<svg xmlns="http://www.w3.org/2000/svg"
     width="64.0" height="63.3"
     viewBox="273.0000 5.0000 58.2574 57.5871">
  <path d="M 310.90328,29.25 C 307.65238,20.713113 305.98642,14.618149 306.47937,13.065002 307.166,10.901617 311.12552,9 314.94346,9 316.95303,9 318.70724,10.041472 320.89541,12.533658 325.48539,17.761355 327.25737,20.774547 326.4807,22.031229 325.62889,23.40949 321.44284,19.716404 319.39464,15.779644 317.41819,11.980799 314.94059,10.843711 311.93667,12.356834 309.3984,13.635403 309.0894,16.316065 310.998,20.5 313.59563,26.194375 314.92816,30.307223 314.43434,31.106234 313.40439,32.772726 311.95451,32.010542 310.90328,29.25 z M 281.25,53.54156 C 278.9125,51.159314 277,48.747435 277,48.181827 277,46.752013 281.81661,41.168513 284.10786,39.942274 286.34276,38.746195 289.59631,40.118462 292.22776,43.36704 295.02923,46.82551 294.26688,47.204987 290.08163,44.43532 286.86819,42.308765 285.79088,42.041549 284.09343,42.949996 282.95503,43.559249 281.75488,45.12847 281.42642,46.437153 280.95561,48.31299 281.62156,49.542704 284.573,52.247496 286.77152,54.262283 288.02067,56.15754 287.59937,56.839208 286.51914,58.58706 285.86984,58.249833 281.25,53.54156 z"/>
</svg>
