<svg xmlns="http://www.w3.org/2000/svg"
     width="33.8" height="64.0"
     viewBox="403.1887 17.0000 43.4291 82.1229">
  <path d="M 421,93.19428 C 421,92.751133 422.125,90.863708 423.5,89 426.86991,84.432339 426.65014,82.022473 422.49651,77.996622 L 418.99303,74.600911 415.01487,78.485478 C 410.12723,83.25813 408.89288,82.66814 412.98709,77.516249 414.64419,75.431057 416,73.542531 416,73.319525 416,73.096518 414.22177,70.177429 412.04839,66.832659 L 408.09677,60.75126 411.12521,54.751952 C 413.77165,49.5094 414.0688,48.106006 413.48094,43.626322 413.11095,40.806845 411.72638,36.530821 410.40412,34.124047 407.95881,29.67312 407.18873,26.76815 408.92649,28.55 411.1832,30.863957 416.99861,43.286295 416.98526,45.764363 416.97715,47.268963 416.32913,49.625 415.54522,51 414.7613,52.375 413.40308,55.05301 412.52695,56.951133 410.9697,60.324863 410.99967,60.493075 413.86288,64.451133 415.47378,66.67801 417.45664,68.63452 418.26925,68.798934 419.77514,69.103622 426,60.734578 426,58.405281 426,57.716774 424.80558,55.733968 423.34574,53.999046 420.36648,50.458394 418.6629,41 421.00444,41 422.97242,41 421.53132,33.194462 419.08197,30.587256 417.93689,29.368369 417,28.030458 417,27.61412 417,27.197783 416.34412,26.201263 415.54249,25.399633 413.89954,23.756681 414.52386,21 416.53889,21 417.2676,21 418.87118,22.414712 420.1024,24.143805 421.99215,26.79772 422.40849,28.94034 422.7742,37.893805 423.21568,48.702494 424.56667,53 427.52305,53 428.33537,53 429,52.620862 429,52.157471 429,51.694079 430.49444,50.510132 432.32098,49.526477 435.03575,48.064477 436.04845,47.955562 437.86884,48.929808 442.49765,51.407072 442.61785,59.545529 438.10788,65.115107 L 436.24186,67.41954 432.52691,64.157775 C 430.48369,62.363804 428.29178,61.067912 427.65598,61.278015 427.02019,61.488118 425.24474,63.685496 423.71052,66.161077 420.50675,71.330632 420.9801,74.358485 425.61532,78.345535 429.00306,81.259549 428.95448,84.403391 425.4391,89.75 422.85041,93.68719 421,95.122914 421,93.19428 z M 438.37299,58.880717 C 438.87586,57.450798 438.98909,55.09267 438.6246,53.640432 438.10706,51.578372 437.35274,51 435.18095,51 429.8902,51 428.49769,54.820401 432.11312,59.41668 434.64907,62.640622 437.12526,62.428614 438.37299,58.880717 z"/>
</svg>
