<svg xmlns="http://www.w3.org/2000/svg"
     width="46.6" height="64.0"
     viewBox="341.0000 65.0000 24.6380 33.8670">
  <path d="M 347,92.907729 C 347,92.30698 347.90788,90.661273 349.01752,89.250601 351.33741,86.301337 350.92935,83.938994 347.36317,79.673275 346.06343,78.118576 345,76.478666 345,76.02903 345,74.566362 350.76156,69 352.27552,69 353.92102,69 361.638,75.695336 360.87357,76.459768 360.60557,76.727759 358.70516,75.804652 356.65041,74.408419 352.59958,71.655807 350.29538,71.57729 348.68361,74.136944 347.88308,75.408278 348.36167,76.668839 350.82643,79.780848 354.70751,84.681118 354.76519,86.14786 351.25,90.553399 348.44836,94.064666 347,94.866997 347,92.907729 z"/>
</svg>
