<svg xmlns="http://www.w3.org/2000/svg"
     width="64.0" height="54.7"
     viewBox="256.5913 61.0000 50.1956 42.9136">
  <path d="M 267.30929,96.75 C 262.81641,89.805731 260.59132,85.073209 261.43806,84.262557 261.87614,83.843151 262.74429,84.361319 263.36728,85.414042 263.99028,86.466766 265.77218,88.716766 267.32706,90.414042 L 270.15412,93.5 269.53474,89.059279 C 268.95284,84.887176 269.15369,84.373012 272.85515,80.559279 275.02202,78.326675 277.94561,75.2625 279.35201,73.75 282.61317,70.242807 283.6236,70.325287 288.49924,74.496668 L 292.49848,77.918242 290.74924,82.843335 C 288.8993,88.051966 288.49021,91.387545 289.76933,90.833333 291.4555,90.102757 300,80.20901 300,78.987164 300,78.269179 298.2,75.297654 296,72.383775 292.13,67.258001 291.14783,65 292.78824,65 294.02075,65 300.89464,73.592675 302.01096,76.528816 302.78689,78.569681 302.6239,79.828107 301.29147,82.083722 300.34399,83.687675 299.23,85 298.81594,85 298.40187,85 296.2347,87.475 294,90.5 287.04576,99.913613 282.82284,96.700701 287.42921,85.500757 L 289.8966,79.501513 287.26121,76.750757 C 285.81174,75.23784 284.13214,74 283.52875,74 282.92536,74 280.04781,76.413855 277.13419,79.364121 271.92761,84.636189 271.84834,84.805837 272.51474,89.249751 273.24487,94.118581 271.91817,98 269.52383,98 268.75064,98 267.7541,97.4375 267.30929,96.75 z"/>
</svg>
