<svg xmlns="http://www.w3.org/2000/svg"
     width="64.0" height="56.5"
     viewBox="82.6562 8.6250 112.8130 99.5175">
  <path d="M 86.65625,80.125 C 91.850322,70.246347 97.695781,58.650843 98.4375,56.25 98.9671,54.535756 98.744434,54 97.46875,54 96.366353,54 95.982905,54.540716 96.375,55.5625 96.702544,56.416066 96.59981,56.867884 96.15625,56.59375 95.712691,56.319615 94.121175,58.679431 92.59375,61.8125 91.745802,63.55182 88.88596,68.708435 86.65625,72.84375 L 86.65625,80.125 z M 115.40625,56.3125 C 114.81013,56.10257 110.76013,62.365879 106.40625,70.21875 102.05236,78.071622 97.964691,85.4 97.3125,86.5 94.752351,90.818002 91,98.750296 91,99.84375 91,100.47818 91.653157,101 92.4375,101 93.761281,101 115.65348,61.639072 116.25,58.1875 116.39089,57.372295 116.00236,56.52243 115.40625,56.3125 z M 135.03125,12.625 130.375,14.5625 C 126.77252,16.06826 125.27192,17.439519 123.625,20.71875 121.35048,25.24763 119.48083,26.148114 118.53125,23.15625 118.20687,22.134228 116.16113,20.488628 113.96875,19.5 110.5806,17.972159 109.3783,17.872199 106.03125,18.875 101.69429,20.174385 97.989768,24.09037 98,27.375 98.008525,30.111464 100.66467,34.108701 106.53125,40.15625 111.04165,44.805788 114,46.262348 114,43.875 114,43.261011 111.54625,40.129049 108.5625,36.90625 105.57876,33.683451 102.86583,30.090127 102.5,28.9375 101.43086,25.56894 104.52108,23 109.65625,23 113.50175,23 114.25215,23.38332 116,26.25 117.08986,28.0375 117.99795,31.1875 118,33.25 118.00451,37.775963 120.61821,38.496414 121.625,34.25 124.47809,22.21637 132.07597,15.392015 138.75,18.90625 142.03041,20.633561 150.86505,24 152.125,24 152.81848,24 155.09515,25.175002 157.1875,26.625 L 161,29.28125 165.96875,24.625 C 171.51387,19.438187 172.9224,19.04843 174.84375,22.125 176.0508,24.057796 175.80088,24.626595 171.96875,28.53125 168.20383,32.36742 167.83506,33.176162 168.4375,36.15625 169.86776,43.231392 169.66652,44.5 167.1875,44.5 164.97359,44.5 162.92227,42.03442 161.59375,37.75 161.29505,36.786684 159.58569,35.382603 157.78125,34.625 146.74208,29.990172 138.07581,27.039207 136.875,27.5 132.10462,29.330565 127.0129,44.869515 130,48.46875 131.97678,50.850622 133,49.268412 133,43.84375 133,36.782707 135.98605,32.579988 140.5,33.3125 142.27446,33.600455 145.71646,34.731928 148.125,35.8125 150.53353,36.893072 153.5291,38.086502 154.78125,38.46875 156.0334,38.850998 157.8226,40.341714 158.75,41.8125 159.6774,43.283287 161.52053,45.9625 162.84375,47.75 164.16698,49.5375 165.52778,51.001488 165.875,51 166.22222,50.998512 168.52853,49.25618 171,47.125 L 175.5,43.25 173.75,39.59375 C 171.38098,34.625867 171.43812,34.324055 176,29.375 178.2,26.988282 180,24.38884 180,23.59375 180,21.017454 174.95543,16 172.375,16 170.92589,16 168.20914,17.618015 165.625,20 160.80247,24.445248 160.35182,24.597043 158.09375,22.59375 157.22544,21.823414 154.925,20.741365 153,20.1875 151.075,19.633636 146.23263,17.710854 142.25,15.90625 L 135.03125,12.625 z M 148.125,45 C 145.57533,45 137.27841,58.004115 138.53125,60.03125 139.55064,61.680669 140.4681,61.119611 142.3125,57.75 143.29092,55.9625 144.96517,53.447786 146.03125,52.15625 L 147.96875,49.8125 152.5,52.65625 C 154.9796,54.222786 156.99902,55.942644 157,56.46875 157.00099,56.994856 155.15671,60.041752 152.90625,63.25 150.65579,66.458248 149.07037,69.737376 149.375,70.53125 149.67964,71.325123 150.51043,71.734648 151.21875,71.4375 153.10794,70.644962 163.13637,56.029664 162.5,55 161.76992,53.818703 149.09094,45 148.125,45 z M 128.75,63.21875 C 127.52515,63.55849 126.15991,65.880977 123.28125,71.8125 121.22803,76.043169 117.17311,83.55 114.28125,88.5 111.38939,93.45 109.00595,98.084672 109,98.8125 108.98273,100.92598 111.99389,99.733707 113.5625,97 118.44484,88.491275 127,72.664903 127,72.125 127,71.772022 127.88101,69.810726 128.96875,67.78125 130.15228,65.573036 130.55384,63.861607 129.96875,63.5 129.54555,63.238445 129.15828,63.105503 128.75,63.21875 z M 142.78125,71 C 141.99674,71 139.75643,74.0375 137.78125,77.75 135.80606,81.4625 132.59152,87.414552 130.65625,90.96875 128.72097,94.522949 127.37051,97.787666 127.65625,98.25 128.78294,100.07304 130.53591,97.960018 136.59375,87.4375 143.43211,75.5592 145.14564,71 142.78125,71 z M 159.75,72.03125 C 158.55206,72.051317 146,94.816318 146,96.96875 146,100.8178 151.95049,92.519884 158.1875,80 161.22993,73.892759 161.61005,72.000091 159.75,72.03125 z M 173.46875,78.25 C 172.45883,78.2304 170.09155,81.463629 167.125,87.03125 164.79966,91.395448 162.4559,95.21086 161.9375,95.53125 161.4191,95.851641 161,96.769959 161,97.5625 161,100.30074 163.51086,98.917282 166.15625,94.71875 170.18212,88.329231 174,80.852824 174,79.375 174,78.615466 173.80539,78.256533 173.46875,78.25 z M 190.8125,79.1875 C 190.41846,79.018544 189.66219,79.590458 188.625,81.21875 182.23278,91.253971 176.26256,101.9188 176.75,102.40625 178.48623,104.14247 180.33277,102.26396 183.75,95.34375 185.42098,91.95987 187.98349,87.168579 189.4375,84.6875 191.12671,81.805084 191.46924,79.469093 190.8125,79.1875 z"/>
</svg>
