<svg xmlns="http://www.w3.org/2000/svg"
     width="37.7" height="64.0"
     viewBox="170.7518 17.9094 53.7672 91.2311">
  <path d="M 175.78125 47.9375 C 176.50803 48.591497 177.25686 49.31689 177.96875 50.46875 C 180.55936 54.660438 180.54053 56.979611 177.78125 61.65625 C 174.95826 66.440852 174.75177 74.908258 177.34375 80.65625 C 179.1248 84.605904 179.13623 84.782927 177.09375 88.59375 C 175.9479 90.731661 175 93.67141 175 95.15625 C 175 98.488692 176.72141 103.20704 178.3125 104.21875 C 179.76219 105.14053 179.53047 105.11406 181.375 104.40625 C 182.21673 104.08325 183.6166 101.65967 184.5 99 C 187.31217 90.533371 190.87503 90.108454 193 98 C 194.31375 102.87888 196.40258 104.73007 198.5625 102.9375 C 202.61868 99.57116 204.28084 91.329929 201.84375 86.6875 C 201.21309 85.486157 199.41309 83.025388 197.84375 81.21875 C 194.58476 77.466977 194.36489 74.679524 196.8125 67.84375 C 198.54152 63.014898 203.4726 58.065329 205 59.625 C 206.71464 61.375883 208.85562 73.639033 208.46875 79.5 C 207.82366 89.27269 209.85512 91.820262 213.84375 86.21875 C 219.25172 78.623954 220.519 59.763472 216.1875 51.34375 C 214.00502 47.101364 209.71674 43 207.46875 43 C 206.7806 43 203.45285 44.86101 200.0625 47.125 C 196.67215 49.388989 193.76658 51.076489 193.59375 50.875 C 192.77943 49.925603 191 46.02593 191 45.1875 C 191 44.670093 192.25415 43.99292 193.78125 43.6875 C 195.30835 43.382081 197.81627 42.132347 199.375 40.90625 C 201.991 38.848504 202.19321 38.280308 201.78125 33.3125 C 201.20601 26.375929 198.52147 22.603448 193.90625 22.25 C 189.45895 21.909413 186.10273 23.702552 183.25 28 C 178.99899 34.403854 178.40634 35.007367 175.5 33.5625 L 175.59375 37.71875 C 178.38178 39.084223 179.11137 38.51056 186.625 29.65625 C 191.68048 23.698708 197.16923 25.094143 198.59375 32.6875 C 199.50038 37.520273 197.20339 39.372578 191.28125 38.59375 C 187.76364 38.131144 186.82793 38.394212 185.59375 40.15625 C 184.37058 41.902569 184.3452 42.501446 185.4375 43.59375 C 186.16308 44.319325 187.5973 46.93865 188.625 49.4375 C 190.90885 54.990687 193.23242 55.33462 199.5625 51.0625 C 205.9201 46.771804 207.70157 46.823898 211.375 51.34375 C 214.46368 55.14411 214.5 55.29956 214.5 66.53125 C 214.5 74.28366 214.10325 78.303 213.25 79.15625 C 212.25 80.15625 212 79.574368 212 76.3125 C 212 71.46641 209.15446 58.026639 207.75 56.25 C 204.49774 52.135912 196.21194 57.993056 193.65625 66.21875 C 190.22574 77.260106 190.14609 76.803663 197.53125 86.90625 C 200.35271 90.765883 200.67109 93.744639 198.5625 96.5625 C 197.17692 98.414159 197.07372 98.355172 196.4375 95.28125 C 195.6901 91.670107 190.01505 86.669333 187.6875 87.5625 C 186.89303 87.867365 185.04641 90.336067 183.5625 93.0625 C 180.76921 98.194699 179 98.703415 179 94.375 C 179 92.852841 180.2178 90.773212 182.125 89.03125 L 185.25 86.15625 L 183.21875 83.3125 C 180.50479 79.501096 177.69564 69.566452 178.53125 66.75 C 178.89936 65.50927 180.35527 62.812427 181.75 60.75 C 184.24932 57.054172 184.25483 56.9239 182.625 52.65625 C 180.99839 48.397049 178.32164 45.273819 175.71875 44 L 175.78125 47.9375 z "/>
</svg>
