<svg xmlns="http://www.w3.org/2000/svg"
     width="64.0" height="59.3"
     viewBox="63.7322 39.7706 70.2678 65.1011">
  <path d="M 116.20931,97.715955 C 112.5074,93.896552 112.40943,93.3063 114.68521,88.533927 116.26072,85.230046 116.26178,84.772163 114.70139,81.5 113.78342,79.575 112.62101,78 112.11825,78 111.61549,78 109.24571,79.11958 106.85207,80.487955 101.47786,83.560236 97.993619,83.636544 92.326173,80.806085 L 87.933284,78.61217 85.216642,81.330926 C 82.897839,83.651533 82.523306,84.810957 82.659147,89.248061 82.859654,95.79739 80.138464,100.2751 76.24289,99.806003 73.283411,99.449627 72.873007,98.776253 70.067641,89.673895 67.732202,82.096278 67.863349,81.508598 73.458048,74.481225 L 76.416095,70.765689 72.192565,67.132844 C 69.869623,65.13478 67.976002,63.03589 67.984517,62.468645 68.003495,61.204483 77.624619,51 78.797534,51 79.260892,51 81.480036,52.575 83.728966,54.5 85.977895,56.425 88.196395,57.998769 88.658964,57.997264 89.121534,57.995759 89.644731,55.188527 89.821626,51.758971 90.171585,44.974089 90.339335,44.473653 91.933469,45.458881 92.520061,45.821415 93,48.946732 93,52.404029 93,57.433467 93.402376,59.05417 95.012905,60.511679 96.983898,62.295403 102.33336,62.999976 103.6801,61.653229 104.05416,61.279172 104.40043,57.941672 104.44959,54.236563 104.49874,50.531453 104.89879,46.93016 105.33858,46.233688 106.8939,43.770605 108,46.191638 108,52.059017 108,55.326558 108.28376,58 108.63057,58 108.97738,58 111.45343,56.425 114.13288,54.5 116.81234,52.575 119.24787,51 119.54516,51 120.9664,51 130,60.48232 130,61.974159 130,62.90942 127.95299,65.593243 125.4511,67.938209 120.93063,72.175136 120.91268,72.218341 122.58055,74.850892 123.50365,76.307901 125.38673,78.713373 126.76518,80.196383 128.65549,82.230088 129.13288,83.585602 128.70763,85.711852 128.02747,89.112662 121.9201,100.19693 120.45931,100.68174 119.88693,100.8717 117.97443,99.537099 116.20931,97.715955 z M 78.5,89.338519 C 78.5,85.400451 79.09834,83.568957 81.351102,80.611415 84.085089,77.022095 84.126166,76.810147 82.351102,75.451652 79.657841,73.390442 78.144638,74.012223 74.883795,78.519999 L 71.9758,82.539997 74.09571,88.817395 C 76.599357,96.231097 78.5,96.455985 78.5,89.338519 z M 111.85444,73.14093 C 122.14446,66.382767 125,64.086489 125,62.569964 125,61.113669 120.5281,56 119.25458,56 118.79207,56 114.60808,58.475444 109.95683,61.500986 102.90879,66.085586 101.00024,66.89799 98.5,66.377775 93.912751,65.423326 86.588432,61.434585 83.198719,58.044873 81.524039,56.370193 79.467132,55 78.627814,55 77.204653,55 71.253898,61.706246 72.110551,62.344677 72.324748,62.50431 75.366512,64.854562 78.870027,67.567459 82.373541,70.280357 87.773541,73.934209 90.870027,75.687132 98.539599,80.028882 102.0075,79.608095 111.85444,73.14093 z M 122.97968,91.039838 C 124.09085,88.861749 125,86.604826 125,86.024454 125,84.51066 117.88339,74 116.85842,74 115.50441,74 115.84068,75.767385 118,80 120.32608,84.559488 120.442,86.573901 118.57255,89.949616 117.82643,91.296905 117.44052,92.984405 117.71497,93.699616 118.65832,96.157934 120.96249,94.993843 122.97968,91.039838 z"/>
</svg>
