<svg xmlns="http://www.w3.org/2000/svg"
     width="46.0" height="64.0"
     viewBox="222.0000 15.9926 66.5045 92.4370">
  <path d="M 255.5,100.94776 C 253.85,100.44621 250.8125,98.47572 248.75,96.568904 245.48181,93.547403 245,92.521607 245,88.58491 245,86.100529 245.75266,82.489505 246.67258,80.560412 248.00454,77.76726 248.1152,76.548248 247.21594,74.574585 245.96757,71.834728 240.54894,68.575376 238.53019,69.350042 237.04933,69.9183 234,78.222219 234,81.686613 234,83.784036 233.79179,83.891166 231.91684,82.758474 229.06804,81.037465 226,74.794148 226,70.717977 226,65.872142 228.71513,58.616246 231.51144,55.98925 234.40366,53.27215 239.49466,53.670742 243.65041,56.939653 247.40126,59.890074 248,59.554247 248,54.5 L 248,50 244.07258,50 C 241.02079,50 239.68307,49.412547 238.07258,47.365141 235.44419,44.023686 235.45665,41.134129 238.12392,35.459762 240.61209,30.166399 245.38197,25.938316 252.89129,22.369758 257.40522,20.224665 258.68834,19.992597 260.77586,20.943737 263.07979,21.993477 263.22452,22.456438 262.68168,27.039875 262.16599,31.394133 262.31781,32 263.92467,32 264.93141,32 266.31531,31.325 267,30.5 268.29169,28.943614 272.55788,28.436826 273.31357,29.75 273.55095,30.1625 274.05735,32.652655 274.43891,35.283677 275.17485,40.358399 274.8417,40.87015 265.9,48.4 264.78433,49.339513 264,51.282579 264,53.106989 264,55.676384 264.3028,56.088154 265.75,55.486786 270.62661,53.46037 276.56521,52.044616 278.11948,52.537921 281.3214,53.554171 284.50446,61.822077 284.45722,69 284.41133,75.971943 282.0953,82 279.4625,82 278.31259,82 278.10269,81.15159 278.53471,78.25 279.19283,73.829919 276.50267,67.693058 273.6756,67.165284 271.58515,66.775027 268,69.636237 268,71.694826 268,72.456493 268.96811,74.974249 270.15136,77.289838 276.30456,89.331516 266.95433,104.42957 255.5,100.94776 z M 263.40476,96.861443 C 266.3532,95.518042 269,90.444375 269,86.135891 269,84.451873 268.1,80.790722 267,78 264.06893,70.563816 264.35422,68.510918 268.73213,65.536051 273.72551,62.142964 275.29963,62.326977 278.9272,66.727844 L 282,70.455688 282,67.543568 C 282,65.941902 281.04519,62.659078 279.8782,60.248404 277.78138,55.916951 277.70924,55.873327 273.74955,56.542313 271.54578,56.914639 268.19289,58.13367 266.2987,59.251273 261.29057,62.206138 259.93557,60.490362 260.70612,52.169675 261.22958,46.517089 261.57112,45.733755 263.89617,44.853062 268.31849,43.177961 271,39.959098 271,36.325686 271,34.496559 270.81197,33 270.58216,33 270.35235,33 267.92002,34.12725 265.17698,35.505 259.25605,38.478912 256.53032,37.988422 257.4172,34.108646 259.53258,24.854727 259.52972,24.831087 256.38962,25.592331 251.16233,26.859565 249.26737,27.826349 245.46214,31.167389 236.10337,39.384497 238.37728,49.029231 248.94119,45.923679 252.07868,45.001329 252.70145,62.409862 249.5739,63.610014 248.85024,63.887709 246.59105,62.983585 244.55347,61.600848 239.5665,58.216596 237.16867,57.57177 234.62777,58.931618 231.65478,60.522717 228.65315,68.144299 229.4932,71.969048 230.35934,75.912542 231.07377,75.78811 233.5,71.271185 236.41999,65.835025 239.39781,64.65214 244.11049,67.056368 250.85221,70.495738 252.49913,75.167835 249.5,82.345757 247.32724,87.545898 247.64077,90.282293 250.75,93.255567 255.30477,97.611165 259.27585,98.742696 263.40476,96.861443 z"/>
</svg>
