<svg xmlns="http://www.w3.org/2000/svg"
     width="31.2" height="64.0"
     viewBox="180.0804 17.0000 40.1002 82.3556">
  <path d="M 202.30271,93.437065 C 196.50336,90.89809 190.37823,83.39632 187.95745,75.86767 184.97382,66.588567 184.08039,55.079163 185.75705,47.521563 188.67155,34.384333 199.56477,21 207.34237,21 211.79545,21 212.39963,23.27254 209.44754,28.918306 207.98513,31.715112 206.44015,35.54845 206.01425,37.436837 205.30491,40.581935 205.65314,41.358585 210.16092,46.685133 212.86749,49.88331 215.32503,53.463604 215.62211,54.641343 216.18058,56.855251 213.33207,62.156944 207.77624,69.244227 204.70784,73.158431 204.72722,74.590443 207.95569,82.5 209.92304,87.319897 211.19558,92.874529 210.56587,93.893422 209.66217,95.355644 206.25521,95.167484 202.30271,93.437065 z M 206,87.653638 C 206,86.363139 205.33554,83.97533 204.52342,82.347397 202.02243,77.33405 200.22629,60.580641 201.10905,50.5 201.93208,41.101402 204.59254,29.369861 206.11417,28.429437 206.60138,28.128328 207,27.185379 207,26.333994 207,25.252849 206.47225,25.002575 205.25,25.504098 204.2875,25.899039 202.825,26.284684 202,26.361087 201.175,26.437489 199.70526,27.625 198.73391,29 197.76256,30.375 195.86677,33.004249 194.52105,34.842775 193.17532,36.681301 191.1097,40.731301 189.93078,43.842775 188.08462,48.715278 187.8728,50.763205 188.40376,58.606708 189.26866,71.383483 192.49943,80.188735 198.3511,85.717573 203.47062,90.554653 206,91.194882 206,87.653638 z M 210.8484,53.467624 C 208.71349,49.849231 205.23994,46.426728 204.4769,47.189767 203.69673,47.969941 203.74402,64.776799 204.52997,66.048488 204.94544,66.720742 206.71518,65.072653 208.97431,61.909654 L 212.72825,56.653745 210.8484,53.467624 z"/>
</svg>
