<svg xmlns="http://www.w3.org/2000/svg"
     width="40.3" height="64.0"
     viewBox="744.6562 18.7822 54.4161 86.4874">
  <path d="M 748.65625,84.5625 C 755.0116,73.059345 767.23157,52.437184 773.5,43 780.56835,32.358523 784,26.440575 784,24.875 784,22.782208 781.49929,24.744745 779.03125,28.75 777.64452,31.000451 772.17045,39.723625 766.875,48.15625 760.30436,58.619529 754.00932,69.416119 748.65625,78.96875 L 748.65625,84.5625 z M 792.8125,36.0625 C 792.21942,36.199922 791.66612,36.780704 791.3125,37.75 790.96135,38.7125 789.12854,41.934687 787.25,44.90625 785.37147,47.877812 781.77623,54.177812 779.28125,58.90625 776.78626,63.634687 774.19769,68.175 773.5,69 772.80231,69.825 769.8538,74.775 766.96875,80 764.0837,85.225 760.67533,91.053576 759.375,92.96875 758.07467,94.883923 757,97.276464 757,98.28125 757,101.26963 758.44078,99.536014 764.5625,89.25 767.75898,83.879128 772.76791,75.556623 775.6875,70.75 778.60709,65.943377 781,61.722187 781,61.34375 781,60.965314 784.17759,55.56722 788.0625,49.34375 791.94741,43.120279 794.84237,37.553971 794.5,37 794.02028,36.223798 793.40558,35.925078 792.8125,36.0625 z M 748.65625,54.90625 C 749.2993,54.029732 751.1098,50.98319 752.75,48 760.57684,33.76463 764.10666,27.570777 765.125,26.34375 765.98174,25.311448 765.8232,24.994715 764.375,25 762.19443,25.007958 760.35189,27.688168 752.625,42 750.75744,45.459117 749.92481,46.900054 748.65625,49.1875 L 748.65625,54.90625 z M 793.03125,66 C 792.50573,66 790.52787,68.5875 788.625,71.75 783.38583,80.457282 774,97.004382 774,97.53125 774,97.787334 774.61813,98 775.375,98 776.13187,98 778.39623,94.9625 780.40625,91.25 782.41627,87.5375 786.26969,81.125 788.96875,77 793.67452,69.808141 795.07231,66 793.03125,66 z M 792.21875,92.59375 C 790.93332,93.433402 789,96.42445 789,98.125 789,99.164069 789.45158,100 790,100 791.24354,100 793.89459,93.834805 793.1875,92.59375 793.00285,92.269657 792.64723,92.313866 792.21875,92.59375 z"/>
</svg>
