<svg xmlns="http://www.w3.org/2000/svg"
     width="42.2" height="64.0"
     viewBox="380.0000 16.6349 53.7133 81.3651">
  <path d="M 390.11961,88.25 C 388.88298,85.0875 387.00017,80.575462 385.93559,78.223249 384.87102,75.871035 384,72.944982 384,71.720908 384,70.496834 386.72675,65.328352 390.05943,60.235392 395.81146,51.445232 396.085,50.749594 395.4512,46.523138 395.07407,44.008252 395.30272,39.906593 395.97665,37.09734 397.23849,31.837409 402.2544,23 403.97798,23 405.89005,23 404.95271,26.488964 401.98807,30.406825 398.28286,35.303373 397.45659,39.56634 398.98103,45.920937 L 400.17451,50.89591 394.52114,59.056754 C 386.37911,70.810062 386.46277,70.268331 391.05381,81.508595 395.29477,91.891758 395.73869,94 393.68401,94 392.96022,94 391.35624,91.4125 390.11961,88.25 z M 402.75271,92.25 C 402.55179,91.8375 402.25591,89.938311 402.09521,88.029579 401.93451,86.120847 400.98667,82.745847 399.98891,80.529579 398.99114,78.313311 397.65191,74.816584 397.01284,72.759076 395.7207,68.599022 396.28247,67.449812 404.33785,57.774175 408.68584,52.551631 410.72564,51.539654 416.17868,51.899729 418.79552,52.072523 420.45524,51.544756 421.92868,50.071319 425.01369,46.986314 424.57605,45.703619 420.75,46.616683 418.9625,47.04326 416.15,47.416514 414.5,47.446138 411.53969,47.499287 411.49602,47.423417 411.19895,41.71174 410.96751,37.261663 411.4244,34.869292 413.17521,31.363632 415.99512,25.71731 420.16897,21.006924 420.76578,22.797333 420.99859,23.495784 420.74449,24.614614 420.2011,25.283622 417.40531,28.725746 414.80842,34.821961 414.29644,39.144843 413.73438,43.890553 413.78203,44 416.41037,44 417.88929,44 420.46759,43.292441 422.13992,42.427646 427.51608,39.647526 429.71331,42.786148 426.60238,48.80202 424.15344,53.537748 421.51844,55.172761 416.00988,55.374638 411.15496,55.552561 410.62296,55.851982 405.95947,61.031253 399.61884,68.073139 399.16777,69.880035 402.02788,76.780552 405.65066,85.521175 406.53789,93 403.95203,93 403.49333,93 402.95364,92.6625 402.75271,92.25 z M 403.05961,44.833333 C 403.18188,35.945035 404.55345,31.250943 408.39976,26.557025 411.80326,22.403498 415,20.634876 415,22.905386 415,23.403349 413.45211,25.663476 411.56024,27.927892 407.54438,32.734567 407.11719,33.8654 406.19297,42.135729 405.36869,49.511691 402.96681,51.57955 403.05961,44.833333 z"/>
</svg>
