<svg xmlns="http://www.w3.org/2000/svg"
     width="53.5" height="64.0"
     viewBox="177.5096 17.8044 71.6739 85.6759">
  <path d="M 193.2,97.8 C 191.1004,95.700396 191.84384,90.51565 194.83699,86.383731 196.43233,84.181418 197.93151,80.54728 198.26242,78.080188 198.58606,75.667229 199.78442,72.430288 200.92543,70.886987 203.47839,67.43393 203.53415,65.793377 201.17126,63.654988 198.17941,60.947405 195.42926,61.680582 191.54186,66.222135 188.56051,69.705172 187.62784,70.256366 186.21393,69.370858 181.50962,66.424617 185.17809,55.205911 191.74271,52.463036 196.36614,50.531242 197.48907,50.604521 202.63341,53.173728 205.02727,54.369279 207.25189,55.081443 207.57702,54.756316 207.90215,54.431188 208.42402,52.257561 208.73675,49.926033 209.28776,45.817955 209.23105,45.709686 206.90267,46.424179 201.63254,48.041383 200.37444,47.992619 197.25,46.050039 192.93652,43.368195 192.95039,39.741468 197.29824,33.432313 201.02569,28.023435 210.85998,21.804449 215,22.238122 217.01851,22.449564 217.6799,23.270378 218.43407,26.5 218.9478,28.7 219.48777,30.664965 219.63399,30.866588 219.78021,31.068212 222.21837,29.806573 225.05212,28.062946 231.30077,24.218113 233.38961,24.376773 233.81113,28.728248 234.25995,33.361597 231.58708,37.957 225.93751,42.265203 221.29373,45.80642 219.68678,49.070354 221.91048,50.444677 222.41125,50.754167 225.0641,49.880725 227.80571,48.503694 234.42294,45.180047 237.22649,45.292025 240.35055,49.004754 244.60031,54.055309 245.18349,65.929792 241.38776,70.124028 238.7687,73.018049 237.00053,72.464817 236.99626,68.75 236.99183,64.89655 233.66784,59 231.50001,59 230.65885,59 228.28974,60.551741 226.23531,62.448314 L 222.5,65.896628 225.25,70.845694 C 226.7786,73.596651 228,77.34408 228,79.283073 228,81.201645 228.67223,84.060324 229.49384,85.635693 231.44178,89.370705 231.47238,95.881499 229.54547,96.620925 228.74548,96.927911 226.25819,96.14902 224.01817,94.890058 220.10336,92.689807 219.83383,92.666944 217.06841,94.300517 213.28218,96.537097 210.71454,96.447043 208.5,94 206.08584,91.332382 205.54818,91.427263 200,95.5 194.57767,99.480354 194.80385,99.403852 193.2,97.8 z M 216.51406,91.398829 C 217.85809,90.518185 220.52626,87.614422 222.44331,84.946023 225.63954,80.497098 225.83706,79.820702 224.82283,76.797193 224.21451,74.983737 223.14057,72.825 222.43631,72 219.59762,68.674671 219.67532,65.319241 222.66233,62.239656 230.01405,54.660096 234.22498,54.392507 238.35498,61.242447 L 240.92196,65.5 240.96098,61.3151 C 241.00628,56.456495 239.55516,51.991545 237.39625,50.346821 235.38061,48.811241 229.6575,50.396717 225.34631,53.68502 220.40552,57.45355 218.56251,56.549257 218.19206,50.1747 217.90754,45.278706 218.12603,44.671453 221.06573,42.18791 227.98538,36.341999 231,33.129026 231,31.6 231,29.260587 229.26561,29.621069 223.87345,33.081206 221.23255,34.77587 218.60684,35.875047 218.03854,35.523822 217.47025,35.172597 216.71999,33.101081 216.37129,30.920452 216.02259,28.739824 215.3213,26.698573 214.81286,26.384338 214.30441,26.070104 211.41862,26.815417 208.39999,28.04059 204.30472,29.702741 202.16129,31.358668 199.95579,34.564264 196.33966,39.82012 196.24617,41.699411 199.52649,43.194021 201.57191,44.125981 202.7532,44.011247 205.73057,42.59144 209.24169,40.917102 209.46683,40.917941 210.70408,42.609988 213.46094,46.380214 211.21778,59.146252 207.67923,59.824773 206.6778,60.016798 204.07092,58.935149 201.88616,57.421109 198.41031,55.012343 197.45059,54.782768 194.20693,55.584155 191.40641,56.27606 190.01681,57.40241 188.52391,60.190578 185.76894,65.335819 187.15074,65.882782 192.13218,61.618851 194.45748,59.628483 197.14696,58 198.1088,58 200.23658,58 207.00713,64.1945 206.9818,66.118077 206.97179,66.878135 205.62179,69.480216 203.9818,71.900481 202.34181,74.320745 201,76.951278 201,77.74611 201,80.419955 211.09292,93 213.23813,93 213.69586,93 215.17003,92.279473 216.51406,91.398829 z M 202.18876,90.262735 C 202.75801,89.582239 202.9242,88.24485 202.55808,87.29076 201.98789,85.804878 201.75669,85.767192 200.94621,87.028025 200.16172,88.248419 199.85097,88.268951 199.12804,87.148155 197.97943,85.367411 195,89.431531 195,92.779042 195,95.110124 195.00389,95.11079 198.07688,93.306536 199.76917,92.312941 201.61951,90.943231 202.18876,90.262735 z M 208.58889,83.923275 C 204.85393,79.484521 205.10427,74.948035 209.33921,70.326923 213.13081,66.18957 213.94829,66.373724 217.62166,72.192717 220.54893,76.829819 220.29306,79.30984 216.4114,83.922928 213.16494,87.781123 211.83511,87.781182 208.58889,83.923275 z M 215.97947,79.715652 C 217.33367,77.313822 217.2822,76.854945 215.37155,74.295829 212.65612,70.658812 210.94771,70.761924 209.35761,74.658803 208.20727,77.477984 208.29179,78.101239 210.14378,80.455658 212.5583,83.525218 213.92959,83.351329 215.97947,79.715652 z M 228,91.434259 C 228,89.363339 226.16319,86 225.0322,86 224.53862,86 223.8243,86.978212 223.44484,88.173804 222.96274,89.69277 223.30125,90.747113 224.56858,91.673804 226.9586,93.421432 228,93.348732 228,91.434259 z"/>
</svg>
