<svg xmlns="http://www.w3.org/2000/svg"
     width="38.8" height="64.0"
     viewBox="119.3852 18.9158 52.6148 86.7888">
  <path d="M 136 65.4375 C 136.67616 65.675589 136.95478 66.640169 137.3125 69.25 C 137.9033 73.560407 137.77982 73.819238 132.1875 79.59375 C 125.29629 86.70946 123.38521 91.594834 125.5 96.65625 C 127.60932 101.70457 130.49669 101.13131 136.3125 94.5 C 138.9594 91.481941 141.72301 89 142.46875 89 C 143.21448 89 144.75732 90.472801 145.875 92.28125 C 148.37893 96.33269 155.04869 100.23848 158.75 99.8125 C 162.29327 99.404714 162.86571 96.123458 160.15625 91.71875 C 156.30487 85.457653 152.70754 70.319868 152.59375 59.8125 C 152.45851 47.324729 153.29895 46.455201 159.375 52.53125 C 161.92671 55.082961 164 57.782016 164 58.53125 C 164 59.280484 161.75 62.225554 159 65.09375 C 153.92204 70.389959 153.32853 71.450479 154.875 72.40625 C 156.67598 73.519316 168 60.603736 168 57.4375 C 168 56.536664 165.3 53.24362 162 50.09375 C 158.7 46.94388 156 43.522446 156 42.5 C 156 40.238088 159.88075 28.968984 161.25 27.25 C 161.79204 26.569504 161.93609 25.298375 161.59375 24.40625 C 161.10121 23.12271 160.20906 22.915786 157.25 23.46875 C 155.19331 23.853088 152.865 24.70612 152.09375 25.34375 C 149.69253 27.328972 143.15995 36.642465 140.90625 41.28125 C 140.35627 42.413266 139.79522 43.302884 139.1875 44.09375 L 136.9375 53.9375 C 136.95079 54.239526 137 54.326559 137 54.6875 C 137 56.708342 136.65648 58.176487 136 59.375 L 136 65.4375 z M 154.1875 28.65625 C 156.69465 28.000616 156.4811 29.690267 152.5 42 C 148.74014 53.625636 148.72084 64.52413 152.4375 78.90625 C 153.91778 84.634415 155.77027 90.592978 156.5625 92.125 C 157.35474 93.657022 158 95.135187 158 95.4375 C 158 97.461815 152.5041 94.070118 149.15625 89.96875 C 142.31796 81.591328 137.66552 57.972176 141.28125 49.90625 C 142.11813 48.039355 143.10121 45.259351 143.4375 43.75 C 144.32129 39.783351 151.80054 29.280455 154.1875 28.65625 z M 138.125 78.5625 C 138.95253 78.491893 139.59644 79.225594 140.5625 81.09375 C 142.34967 84.549762 142.66979 83.992626 133.21875 93.65625 C 131.41291 95.502701 129.79 97 129.625 97 C 127.74836 97 127.42944 90.987791 129.125 87.6875 C 130.54321 84.927048 134.97154 80.125364 137.21875 78.90625 C 137.56049 78.720854 137.84916 78.586036 138.125 78.5625 z "/>
</svg>
