<svg xmlns="http://www.w3.org/2000/svg"
     width="64.0" height="59.5"
     viewBox="518.0512 14.9209 92.6050 86.0905">
  <path d="M 606.65625,70.46875 606.65625,64.21875 C 603.16561,70.631853 599.19766,77.936276 598.28125,79.5 596.00292,83.387653 590,95.776039 590,96.59375 590,96.817481 590.6669,97 591.46875,97 592.27059,97 594.42774,93.9625 596.28125,90.25 598.10623,86.594665 602.74897,77.73984 606.65625,70.46875 z M 606.65625,38.6875 606.65625,34.8125 C 606.16573,35.782783 605.64482,36.795784 605,37.84375 603.35,40.525342 602,43.035081 602,43.4375 602,43.83992 601.1,45.320327 600,46.71875 598.9,48.117174 598,49.649172 598,50.125 598,50.600827 598.40111,51 598.90625,51 599.98015,51 603.02896,46.003473 606.65625,38.6875 z M 555.53125,20 C 554.95313,20 552.17302,21.563409 549.34375,23.46875 L 544.1875,26.9375 540.40625,23.9375 C 538.32942,22.287047 536.01905,21.173639 535.25,21.46875 534.48096,21.763862 533.4284,22 532.9375,22 531.49706,22 529,27.657999 529,30.90625 529,36.025591 535.28079,38.769775 539.5625,35.53125 540.63012,34.723742 542.01343,34.048742 542.625,34.03125 543.896,33.994898 546,43.442116 546,49.15625 546,53.392789 544.97928,53.955205 542.28125,51.15625 541.29732,50.135519 539.28309,48.533816 537.8125,47.59375 535.37387,46.034873 534.90508,46.000935 532.1875,47.40625 526.22898,50.487521 522.05121,60.776095 523.9375,67.78125 525.06785,71.97904 528.93576,75.761015 530.875,74.5625 531.98972,73.873566 533.55386,69.199877 534.46875,63.75 534.81498,61.6875 535.49089,60 535.96875,60 537.12514,60 544,66.714698 544,67.84375 544,68.330951 541.70168,71.691437 538.90625,75.3125 536.11083,78.933562 533.97333,82.58506 534.15625,83.40625 534.33918,84.22744 536.75,87.611179 539.5,90.9375 542.25,94.263822 545.26893,96.996059 546.21875,97 548.97654,97.011442 551.34104,92.527977 550.5625,88.75 549.43306,83.269243 549.70446,81.242394 551.96875,78.0625 554.4605,74.563155 556.01309,74.24043 558.3125,76.78125 559.80736,78.433047 559.76711,79.006433 557.8125,84.3125 556.01363,89.195766 555.88332,90.409358 556.96875,92.4375 558.41862,95.146601 560.97683,96.147128 563.25,94.875 564.09967,94.3995 566.51308,91.640081 568.59375,88.75 572.9475,82.702595 573.21044,79.862285 570.09375,72.65625 566.23318,63.730324 568.01434,61.098349 574.9375,65.46875 582.32005,70.12915 584.11591,69.947451 590.4375,63.96875 595.30392,59.366301 597.37211,56 595.34375,56 594.98829,56 592.55222,58.025 589.90625,60.5 587.26027,62.975 584.51866,65 583.84375,65 581.41119,65 574,60.785359 574,59.40625 574,57.509414 571.97539,57.646499 568.96875,59.71875 563.13692,63.73818 562.83853,65.857834 567,73.65625 568.65,76.74828 570,80.056514 570,81 570,83.255896 563.29267,92 561.5625,92 559.44218,92 558.86635,89.134085 560.40625,86.15625 561.1802,84.659584 562.12259,81.793029 562.5,79.78125 563.12858,76.430653 562.88835,75.842384 559.4375,72.8125 557.36553,70.993284 555.34366,69.5 554.9375,69.5 553.76946,69.5 547.15932,79.561543 546.4375,82.4375 546.07846,83.868036 546.33954,86.392577 547.03125,88.0625 549.27033,93.468129 546.73586,93.64446 542.125,88.40625 539.84864,85.820172 538.01659,83.203816 538.03125,82.59375 538.0459,81.983685 540.0709,78.820842 542.53125,75.5625 544.99159,72.304158 547,68.94428 547,68.0625 547,65.227589 543.70536,61.176483 538.25,57.34375 534.48712,54.700085 533.2782,56.463286 530.53125,68.5 L 529.84375,71.5 527.90625,69.125 C 525.72068,66.431567 525.58244,64.997904 527.03125,59.78125 528.19564,55.588663 532.48765,50 534.53125,50 535.27391,50 538.0066,51.82334 540.59375,54.0625 544.85376,57.749518 545.43211,58.005386 546.84375,56.59375 549.159,54.278502 549.50584,43.756359 547.53125,36.15625 545.88042,29.802258 546.4188,27 549.28125,27 549.8581,27 551.10236,26.309382 552.03125,25.46875 554.23177,23.477305 557.99394,24.834786 560.375,28.46875 561.99532,30.941662 562.00861,31.426756 560.5,35.96875 557.94781,43.652673 559.26826,58 562.53125,58 563.29445,58 565.54001,56.595896 567.5,54.875 570.95092,51.845052 571.11575,51.797744 573.03125,53.53125 574.87157,55.196719 577.58537,56.96352 580.875,58.625 581.74933,59.066592 583.56479,57.893028 585.90625,55.40625 592.35349,48.558889 593.07817,47.050795 592.375,41.75 591.67196,36.45021 594.00434,28.60666 596.5625,27.625 598.60778,26.840156 598.35955,23.991763 596.25,24 595.2875,24.003758 593.375,25.669103 592,27.6875 589.95073,30.695678 589.43614,32.819695 589.15625,39.4375 588.83213,47.101273 588.6299,47.678798 585.3125,51.125 581.97002,54.597252 581.71755,54.7151 579.03125,53.375 577.4865,52.604378 575.64397,51.282338 574.96875,50.46875 573.20241,48.340441 570.87993,48.660535 567.03125,51.5 565.17628,52.868552 563.39002,53.733769 563.09375,53.4375 562.18787,52.531625 563.00288,38.683848 564.125,35.84375 565.1292,33.302071 565.42557,33.188573 570.5625,33.71875 576.96732,34.379787 579,33.143694 579,28.59375 579,21.449066 573.6294,18.920944 568.1875,23.5 566.5534,24.875 564.81436,25.991103 564.34375,25.96875 563.87315,25.946398 561.93548,24.596398 560.03125,22.96875 558.12703,21.341103 556.10936,20 555.53125,20 z M 573.0625,24.125 C 573.58881,24.15212 573.98414,24.612082 574.65625,25.53125 575.43047,26.590057 575.93935,28.133111 575.78125,28.96875 575.49186,30.498346 571.57195,31.352383 569.25,30.375 567.19238,29.508883 567.83263,27.173386 570.625,25.34375 571.87655,24.523705 572.53619,24.09788 573.0625,24.125 z M 535.5625,26.125 C 536.7284,25.924447 538.09768,26.349762 539.5625,27.4375 541.06725,28.554888 541.24983,29.266822 540.4375,30.59375 538.87034,33.15369 535.48886,34.076946 533.375,32.53125 531.83627,31.406105 531.76939,30.845793 532.78125,28.625 533.44358,27.171359 534.3966,26.325553 535.5625,26.125 z"/>
</svg>
