<svg xmlns="http://www.w3.org/2000/svg"
     width="55.2" height="64.0"
     viewBox="334.0312 20.4970 65.3517 75.7104">
  <path d="M 339.3125,69.8125 338.90625,74.34375 C 339.7204,74.003494 341.0839,74.51295 343.9375,75.96875 349.24742,78.67767 355.29356,79.564761 356.71875,77.84375 358.08034,76.199533 365.12388,62.25396 367.90625,55.71875 369.92993,50.965554 369.93111,50.937205 367.96875,47.71875 366.74708,45.71511 366.00232,42.706286 366,39.78125 365.99693,35.915642 366.57492,34.408725 369.15625,31.46875 372.61547,27.528916 371.98267,24.496968 368.375,27.71875 362.75023,32.741878 361.59085,38.811418 364.59375,47.65625 366.13724,52.202507 366.11679,52.585832 363.9375,57.84375 362.6914,60.850199 360.2048,66.055502 358.40625,69.40625 354.62145,76.45747 354.17313,76.534094 344.15625,72.21875 341.54256,71.092753 340.17651,70.452252 339.3125,69.8125 z M 376.9375,28.21875 C 376.53542,28.275983 375.96508,28.475575 375.21875,28.875 371.62353,30.799102 368.22674,43.88299 370.6875,46.34375 372.29211,47.94836 373.1925,46.093034 373.34375,40.8125 373.46302,36.648214 374.11647,34.336168 375.84375,32 377.79136,29.365814 378.14374,28.047052 376.9375,28.21875 z M 338.40625,80.03125 338.03125,84.3125 C 338.59477,84.539386 340.02549,85.232242 342.125,86.375 344.53177,87.685007 349.05712,89.544821 352.1875,90.5 357.77593,92.205212 357.92363,92.207404 360.53125,90.15625 363.71847,87.649181 368.74585,79.46602 373.5,69.09375 378.38172,58.443159 378.30657,58.57344 382.40625,57.90625 389.20108,56.800445 395.38292,48.436096 392.875,43.75 391.73928,41.627887 389.69897,41.52798 386.71875,43.40625 385.5006,44.173981 383.4875,45.099418 382.25,45.46875 380.22453,46.073253 380,45.795813 380,42.71875 380,37.917253 381.86022,33.137251 384.21875,31.875 386.60149,30.599796 385.2043,28.603982 382.625,29.59375 378.28854,31.257805 375.01784,46.093234 378.4375,48.59375 380.22529,49.901011 382.5917,49.445086 387.75,46.8125 390.75825,45.277217 391.64075,46.410407 389.71875,49.34375 386.91027,53.630039 384.9226,55 381.59375,55 377.4282,55 375.85018,56.753774 371.96875,65.875 368.7937,73.336258 360.1637,86.244412 357.25,87.875 355.46864,88.871897 351.72095,87.918255 345.5,84.875 341.48907,82.912873 339.4201,81.488081 338.40625,80.03125 z"/>
</svg>
