<svg xmlns="http://www.w3.org/2000/svg"
     width="51.0" height="64.0"
     viewBox="3781.9539 15.1433 69.5257 87.3138">
  <path d="M 3803.2812,19.1875 C 3801.9567,19.320239 3801.0194,20.959755 3801,23.5625 3800.9916,24.694879 3800.4019,26.448969 3799.6562,27.46875 3798.3652,29.234411 3798.0766,29.181653 3794.1562,26.03125 3790.7204,23.270189 3789.806,22.910731 3788.5312,23.96875 3785.9539,26.10777 3786.6633,31.123162 3790.0625,34.75 3792.8,37.670778 3793.044,38.475826 3792.4688,42.3125 3792.0134,45.349303 3792.3997,48.284102 3793.8125,52.46875 3795.7859,58.314259 3795.8166,58.434743 3793.9062,63.28125 3790.8911,70.93091 3789.4764,82.29735 3791.0625,86.25 3792.658,90.226103 3796.5143,95.084614 3799.375,96.71875 3802.4182,98.457059 3805.8823,98.285564 3812.3438,96.0625 3816.0243,94.7962 3818.9893,94.613971 3821.625,95.3125 L 3821.6875,92.15625 C 3820.8878,91.664045 3819.8861,91.24014 3819.4062,90.8125 3817.4427,89.062567 3817.2155,89.046422 3815.9062,90.625 3815.1361,91.553518 3813.0512,92.916447 3811.2812,93.65625 3801.6401,97.686351 3792.4999,91.126872 3792.6562,80.3125 3792.7349,74.871206 3794.617,66.390511 3796.2188,64.3125 3798.4325,61.440393 3798.6632,57.443407 3796.8438,53.15625 3794.8144,48.373859 3794.4995,43.458352 3795.9688,39.59375 3796.8022,37.402001 3796.5397,36.799352 3793.9688,34.96875 3790.4007,32.428008 3788.6418,29.404812 3789.4688,27.25 3789.9693,25.945361 3790.6591,26.24177 3793.3438,28.84375 3795.1399,30.584587 3797.0595,32 3797.625,32 3799.1591,32 3802.7404,27.787576 3803.1562,25.5 3803.3561,24.4 3803.9482,23.5 3804.4688,23.5 3806.1217,23.5 3810,30.177526 3810,33.03125 3810,36.025471 3808.5246,37 3803.9062,37 3798.8859,37 3797.4337,44.185758 3801,51.4375 3804.4315,58.415303 3808.2785,62 3812.3125,62 3815.231,62 3816.488,61.258324 3819.4375,57.8125 3821.4053,55.513501 3823,53.255248 3823,52.78125 3823,52.307252 3823.9099,50.922308 3825.0312,49.71875 3828.1054,46.419054 3828.3891,43.658324 3826.2188,37.8125 3824.0832,32.060669 3824.2649,26.614549 3826.6875,23.84375 3827.4996,22.915036 3827.7116,21.948892 3827.1875,21.625 3825.6991,20.705151 3823.3065,24.164201 3822.5625,28.3125 3822.0732,31.040828 3822.4904,33.994898 3824.0312,38.625 L 3826.1875,45.09375 3823.625,48.96875 C 3819.4629,55.25811 3814.9185,60 3813.0312,60 3810.8224,60 3806,56.295629 3806,54.59375 3806,53.893913 3805.1,52.495486 3804,51.5 3802.5242,50.164462 3802,48.418771 3802,44.84375 3802,40.177747 3802.1158,40 3804.875,40 3808.9364,40 3813,36.505804 3813,33.03125 3813,30.021898 3807.6636,21.342997 3804.7188,19.5625 3804.2063,19.25266 3803.7228,19.143254 3803.2812,19.1875 z M 3832.4375,22 C 3831.7115,22 3830.4323,24.413999 3829.5625,27.40625 3827.5987,34.161498 3827.6216,35.465293 3829.5938,37.4375 3830.4631,38.306841 3831.6026,38.748382 3832.1562,38.40625 3832.8198,37.996073 3832.8106,37.404339 3832.0938,36.6875 3830.6393,35.233009 3830.7953,30.351533 3832.4375,25.75 3833.5365,22.670407 3833.5143,22 3832.4375,22 z M 3821.7812,87.28125 3821.875,84.1875 C 3819.792,83.297093 3818,81.837547 3818,80.5625 3818,79.832835 3817.1876,79.011531 3816.1875,78.75 3814.9297,78.421059 3813.994,79.08416 3813.1875,80.90625 3811.9657,83.66647 3807.2898,87 3804.625,87 3802.2654,87 3800.9079,83.578345 3800.75,77.21875 3800.5698,69.963033 3802.1115,67 3806,67 3807.6048,67 3810.0147,67.505196 3811.375,68.125 3812.7353,68.744804 3814.9516,68.989968 3816.2812,68.65625 3820.0725,67.704712 3829.036,58.189885 3831.5938,52.40625 3834.174,46.572073 3834.954,45.858106 3839.8438,45.0625 3844.6268,44.284244 3847.4796,40.371967 3846.0312,36.5625 3845.0401,33.955514 3844.6533,33.795823 3841.0312,34.375 3838.8767,34.719509 3836.8639,34.612669 3836.5625,34.125 3835.3974,32.239791 3838.6982,25.497678 3841.4375,24.15625 3843.3602,23.214701 3843.8855,22.479289 3843.1562,21.75 3841.6822,20.27592 3837.1945,23.400111 3835.875,26.8125 3833.7131,32.403513 3833.6448,35.75051 3835.6875,36.84375 3836.8736,37.478509 3838.1687,37.502967 3839.0625,36.9375 3841.7529,35.235388 3844,35.873645 3844,38.3125 3844,41.509262 3842.1666,43 3838.2812,43 3835.3379,43 3834.582,43.640761 3831.3438,48.75 3825.9241,57.300736 3820.4311,63.528699 3816.8125,65.28125 3813.953,66.666166 3813.3006,66.693935 3810.75,65.375 3806.7457,63.304281 3803.0602,64.017396 3800.5938,67.34375 3798.8646,69.675942 3798.523,71.544612 3798.5625,78.0625 3798.6028,84.703891 3798.9238,86.229512 3800.5625,87.46875 3803.6291,89.787736 3807.3479,89.267526 3812.0312,85.875 3815.6959,83.220327 3816.4893,82.975344 3817.4062,84.21875 3818.0006,85.024775 3819.4861,86.203912 3820.6875,86.84375 3821.0642,87.044364 3821.4159,87.132802 3821.7812,87.28125 z"/>
</svg>
