<svg xmlns="http://www.w3.org/2000/svg"
     width="33.2" height="64.0"
     viewBox="2025.9502 45.0000 32.4560 62.4748">
  <path d="M 2039.1562,49 C 2038.6317,49.94853 2037.9574,51.142237 2036.5,53.5625 2034.575,56.75928 2033,60.546273 2033,61.96875 2033,63.391227 2032.2875,65.58562 2031.4062,66.84375 2029.9857,68.87186 2029.9502,69.261879 2031.2812,70.3125 2033.6207,72.159144 2034.2664,75.528714 2032.5312,76.96875 2030.412,78.727471 2030.6356,79.922597 2032.9688,79.3125 2036.1151,78.489711 2036.7495,83.299058 2034.125,87.96875 2031.7739,92.152016 2031.2552,99.848888 2033.1875,101.78125 2034.8811,103.4748 2037.3549,100.97244 2039.4688,95.4375 2040.4038,92.989427 2041.5186,91 2041.9688,91 2043.0635,91 2046.5116,96.903574 2047.3438,100.21875 2047.8566,102.26216 2049.0358,102.534 2052.625,102.40625 L 2054.4062,92.09375 C 2053.6168,91.718305 2053,91.242498 2053,90.625 2053,89.887229 2051.8365,87.545191 2050.4062,85.4375 2048.0726,81.9987 2047.9187,81.233833 2048.9062,77.9375 2051.4325,69.505797 2049.2746,57.481699 2044.4375,52.9375 2042.9516,51.541586 2042.3054,50.365093 2042.2812,49 L 2039.1562,49 z M 2040.5938,53.28125 C 2041.7022,53.372568 2042.9651,54.40532 2044.4062,56.34375 L 2046.5,59.15625 2044.125,61.09375 C 2041.1651,63.497593 2040.9205,63.482872 2038.2812,60.84375 2036.2649,58.827308 2036.2278,58.483116 2037.625,55.78125 2038.5276,54.035901 2039.4853,53.189932 2040.5938,53.28125 z M 2036.6562,62.25 C 2037.0361,62.456818 2037.4743,62.866576 2038,63.5 2039.5169,65.327807 2041.3613,65.40463 2044.0312,63.75 2045.6936,62.719697 2046.2135,62.763636 2047,64 2048.4639,66.301365 2048.1727,73.130441 2046.375,78.40625 2044.8107,82.997265 2044.8455,83.184791 2046.8125,84.5625 2049.2657,86.280816 2052.3113,93.834499 2051.8438,97.03125 2051.3422,100.46093 2049.3382,100.50361 2048.6562,97.09375 2047.9154,93.389574 2042.759,87.415681 2041.1562,88.40625 2040.5153,88.802396 2039.0971,91.091709 2038,93.5 2035.445,99.108598 2034,100.01601 2034,96 2034,92.491495 2035.2969,89.55913 2038.2812,86.28125 2039.7472,84.671198 2040.0075,83.708785 2039.25,82.78125 2037.514,80.655495 2035,70.91232 2035,66.3125 2035,62.930558 2035.5168,61.629545 2036.6562,62.25 z"/>
</svg>
