<svg xmlns="http://www.w3.org/2000/svg"
     width="47.0" height="64.0"
     viewBox="3719.6833 15.3145 64.7571 88.2429">
  <path d="M 3726.0625,64.15625 3725.1562,68.625 C 3723.727,75.741974 3723.6833,86.283744 3725.0625,91.25 3726.1863,95.296642 3730.4173,98.98902 3732.0625,97.34375 3732.6564,96.749911 3732.684,93.983795 3732.1562,90.125 3730.3439,76.872989 3732.6185,65.969594 3737.1875,66 3738.453,66.008422 3739.9623,66.345922 3740.5312,66.75 3742.8648,68.407256 3746.0621,73.494279 3747.0312,77.09375 3747.9763,80.603041 3747.8023,81.299679 3745.0312,85.125 3741.6672,89.769185 3741.2014,93.410298 3743.5625,96.78125 3745.507,99.557399 3746.6498,98.920695 3748.6562,93.90625 3749.5179,91.75303 3750.8149,90 3751.5312,90 3752.8607,90 3757.485,94.955057 3758.2188,97.15625 3758.9997,99.499332 3761.8972,97.077488 3762.5625,93.53125 3763.1087,90.619646 3762.7148,89.190609 3760.5,85.84375 3758.2757,82.482647 3757.9035,81.019629 3758.4062,77.875 3759.2998,72.287831 3762.099,66.88095 3763.9375,67.21875 3766.509,67.691235 3770.8613,82.29894 3770.9375,90.75 3770.9735,94.7375 3771.4182,98 3771.9375,98 3772.4569,98 3774.0472,96.9875 3775.4688,95.75 3778.6454,92.984605 3780.4404,83.518962 3779.5,74.5 3778.6888,66.72011 3777.4322,63.459458 3773.1875,58.15625 3769.957,54.120218 3769.4461,53.858809 3766.0938,54.4375 3757.0311,56.001921 3757.5487,56.35941 3757.2188,48.15625 3756.8737,39.581745 3758.2721,36.552147 3763.0625,35.5 3765.522,34.959796 3766.6567,35.27212 3768.5625,37.0625 3769.8903,38.309921 3771.2676,39.076217 3771.5938,38.75 3772.4228,37.920895 3769.23,22.976391 3767.875,21.34375 3766.1909,19.314508 3763.9079,19.78085 3759.5,23.03125 3751.463,28.957789 3751.1822,28.965687 3747.0938,24.21875 3744.7712,21.522129 3742.7856,20.1103 3740.9375,19.96875 3739.0894,19.8272 3737.3776,20.964041 3735.5625,23.34375 3732.6135,27.210089 3731.2405,34.699996 3732.9062,37.8125 3733.8336,39.545119 3735.1073,39.942354 3740.25,40.1875 L 3746.5,40.5 3746.8125,46 C 3746.9845,49.025 3746.8547,52.9268 3746.5312,54.65625 L 3745.9375,57.78125 3741.3125,56.40625 C 3738.7641,55.6393 3735.5792,55 3734.25,55 3733.4917,55 3732.7677,54.740986 3732.0625,54.375 L 3726.0625,64.15625 z M 3740.5312,22.3125 C 3741.6225,22.610351 3743.0882,23.887775 3745.1875,26.34375 3747.3724,28.899823 3749.791,31 3750.5625,31 3751.334,31 3754.4283,29.425 3757.4375,27.5 3763.6851,23.503475 3765.5075,23.207197 3766.9688,25.9375 3768.3417,28.502942 3768.3161,33.320811 3766.9375,32.46875 3765.2689,31.437491 3761.4234,32.782191 3758.1562,35.53125 3755.6025,37.680064 3755.0496,38.981994 3754.4688,44.40625 3753.6771,51.799487 3754.6253,58.905618 3756.5,59.625 3757.2171,59.900182 3759.7375,59.200978 3762.0938,58.0625 3764.4502,56.924022 3766.9156,56 3767.5625,56 3769.363,56 3773.9683,63.233277 3775.625,68.65625 3777.4486,74.625873 3777.5934,86.460561 3775.9062,90.5 3774.6673,93.46646 3774.6568,93.415832 3773.9062,87.34375 3773.015,80.133076 3768.841,67.590153 3766.4688,64.96875 3764.1633,62.421282 3762.6993,63.309329 3759.5,69.1875 3754.8581,77.716261 3754.6165,80.641758 3758.125,86.34375 3761.8577,92.410078 3760.6267,94.303845 3756.0312,89.5625 3752.1872,85.596452 3750.1119,85.951239 3747.4688,91.0625 3746.6146,92.714178 3745.5056,93.812453 3745,93.5 3743.842,92.784284 3745.3709,88.631961 3748.0312,85.25 3750.8703,81.640819 3750.5288,76.449775 3747.0625,70.40625 3743.8584,64.819946 3739.0657,61.840761 3736.1875,63.65625 3731.2576,66.765971 3728.5508,76.424964 3729.6562,87 3730.3466,93.605334 3728.7651,95.846449 3727.0625,90.6875 3724.6552,83.393455 3726.4834,66.244415 3730.25,60.75 3732.4156,57.591064 3736.0387,57.210034 3742.375,59.46875 3748.7952,61.757351 3749.1001,61.223467 3748.7812,48.625 L 3748.5,37.5 3741.75,37.21875 C 3735.6089,36.949587 3734.9471,36.685914 3734.4062,34.53125 3733.6778,31.628529 3737.2378,23.235844 3739.5625,22.34375 3739.8543,22.231788 3740.1675,22.213216 3740.5312,22.3125 z"/>
</svg>
