<svg xmlns="http://www.w3.org/2000/svg"
     width="30.3" height="64.0"
     viewBox="2629.5903 19.0000 41.7712 88.2379">
  <path d="M2647.0352 100.06574C2646.4658 99.001899 2646.0 97.481999 2646.0 96.688186C2646.0 95.894373 2645.2676 94.637016 2644.3723 93.894059C2642.9585 92.720667 2642.3907 92.967292 2640.0495 95.771615C2636.6559 99.836666 2633.9979 100.04705 2634.0056 96.25C2634.0136 92.297041 2635.9401 85.904801 2637.9988 83.0C2639.4945 80.889758 2639.8275 77.745484 2640.1353 62.831876C2640.4897 45.664265 2640.4366 45.096219 2638.2617 42.779833C2635.3095 39.635717 2633.5903 30.771299 2635.0657 26.300959C2635.6649 24.485432 2636.5759 23.0 2637.0902 23.0C2637.6044 23.0 2639.1198 25.475 2640.4576 28.5C2641.7954 31.525 2643.2522 33.978998 2643.695 33.953328C2644.1377 33.927659 2645.407 32.059768 2646.5156 29.80246C2647.6242 27.545152 2649.274 25.229749 2650.1818 24.65712C2652.5092 23.189044 2655.0 25.497436 2655.0 29.122445C2655.0 33.331804 2657.9866 32.844538 2661.8798 28.0C2663.6477 25.8 2665.523 24.0 2666.0471 24.0C2667.3615 24.0 2667.2431 30.456663 2665.843 35.129744C2665.2066 37.253725 2663.4853 40.336338 2662.0179 41.979995C2659.438 44.869673 2659.3635 45.291292 2659.7669 54.734232C2659.9963 60.105404 2659.6987 67.976454 2659.1055 72.225453C2658.0721 79.627606 2658.1274 80.098961 2660.4278 83.488797C2663.2352 87.625726 2664.3648 93.289632 2663.2092 97.43484C2662.0847 101.46814 2660.5088 101.66985 2658.3728 98.053879C2656.1125 94.227583 2653.4466 94.084383 2652.5291 97.739983C2651.4365 102.09334 2648.7329 103.23787 2647.0352 100.06574Z M2640.0194 92.481447C2642.0167 90.567922 2642.543 89.246665 2642.2106 86.981447C2641.6339 83.052146 2639.6808 83.185857 2638.2879 87.25C2635.3105 95.937421 2635.5757 96.738756 2640.0194 92.481447Z M2643.0 39.40437C2643.0 37.976774 2642.103 35.548953 2641.0066 34.009211C2639.9102 32.46947 2638.5887 30.150003 2638.0699 28.854841C2637.2765 26.873757 2637.1167 27.261795 2637.0634 31.29966C2636.9933 36.60769 2639.242 42.0 2641.5257 42.0C2642.4461 42.0 2643.0 41.024836 2643.0 39.40437Z M2654.0547 86.377833C2656.6309 77.634271 2656.967 74.949796 2656.9814 63.0C2656.9904 55.468017 2656.374 46.229683 2655.5869 42.102353C2654.8109 38.033647 2654.4096 34.096147 2654.695 33.352353C2654.9805 32.608559 2654.7646 32.0 2654.2154 32.0C2653.6662 32.0 2652.9345 30.875 2652.5894 29.5C2651.811 26.398747 2650.4598 26.309574 2648.8012 29.25C2647.6416 31.30582 2646.9332 33.654114 2643.9063 45.476256C2642.1234 52.43978 2642.4257 77.620141 2644.3808 85.0C2646.6973 93.743622 2648.9324 98.467556 2650.1683 97.231651C2650.7051 96.69486 2652.454 91.810642 2654.0547 86.377833Z M2645.0 76.567391C2645.0 75.907352 2645.5054 72.697172 2646.1231 69.433659C2647.6939 61.134928 2647.7297 60.720666 2647.8724 49.176676C2647.9839 40.158131 2648.2086 38.894217 2649.6505 39.176676C2652.3439 39.70429 2654.1819 46.789398 2654.5337 58.0C2654.962 71.648399 2653.1955 77.134946 2648.25 77.516634C2646.2494 77.671034 2645.0 77.306105 2645.0 76.567391Z M2651.0976 72.382453C2652.7847 70.349526 2652.8257 50.673766 2651.1505 47.0C2650.0878 44.669726 2650.0245 44.771561 2650.2174 48.5C2650.4144 52.309546 2649.5832 62.155874 2648.3811 70.25C2647.7887 74.239265 2648.8591 75.079592 2651.0976 72.382453Z M2660.7413 91.396935C2660.4559 88.865249 2659.5348 86.106259 2658.6944 85.265848C2657.3237 83.895152 2657.0613 84.118336 2656.146 87.433503C2655.2623 90.633904 2655.4093 91.45556 2657.2431 93.56459C2660.3755 97.167154 2661.3253 96.578592 2660.7413 91.396935Z M2662.8124 36.199249C2664.3988 33.349531 2664.8451 31.545617 2664.2339 30.453469C2663.4869 29.118644 2662.9115 29.427229 2660.6715 32.364039C2657.9046 35.991575 2656.9718 41.501279 2659.25 40.759875C2659.9375 40.536139 2661.5406 38.483858 2662.8124 36.199249Z"/>
</svg>
