<svg xmlns="http://www.w3.org/2000/svg"
     width="25.5" height="64.0"
     viewBox="2983.0119 22.0000 33.0489 82.9274">
  <path d="M2997.3667 98.081938C2989.5833 93.335836 2988.9868 85.839786 2996.0692 81.775071C3000.3668 79.308564 3000.726 77.355108 2997.3635 74.735752C2988.1999 67.597549 2987.79 64.217009 2995.1451 56.440139C2998.19 53.220553 2999.6773 51.0 2998.7889 51.0C2996.2982 51.0 2988.0626 44.097559 2987.3991 41.454045C2987.0119 39.911124 2987.4091 38.024598 2988.4584 36.423111C2990.9151 32.673778 2997.5879 26.0 2998.8801 26.0C3000.9937 26.0 3007.8671 33.118512 3008.4895 35.952024C3009.2624 39.47113 3007.1481 44.678954 3003.6289 47.924314C3002.183 49.257687 3001.0 50.903283 3001.0 51.581196C3001.0 52.259108 3003.25 54.69757 3006.0 57.0C3009.1669 59.651459 3010.9986 61.977003 3010.9963 63.343118C3010.9918 65.939995 3007.6463 71.653309 3004.3176 74.748882C3001.3411 77.516967 3002.1058 79.296871 3007.589 82.36292C3010.8803 84.203313 3011.5486 85.129735 3011.8065 88.209537C3012.0608 91.246671 3011.4881 92.560809 3008.4401 95.934617C3004.3322 100.48153 3002.0331 100.92737 2997.3667 98.081938Z M2998.9124 43.75C2998.8642 41.4125 2998.5267 37.324365 2998.1624 34.665256L2997.5 29.830513L2993.25 33.761646C2990.9125 35.92377 2989.0 38.401839 2989.0 39.268467C2989.0 40.809974 2996.5593 48.0 2998.18 48.0C2998.631 48.0 2998.9606 46.0875 2998.9124 43.75Z M3000.204 62.75C2999.9979 59.0375 2999.3924 56.0 2998.8583 56.0C2997.2178 56.0 2992.0 62.332004 2992.0 64.322861C2992.0 65.355288 2993.6377 67.837719 2995.6394 69.839377C2998.9917 73.191655 2999.33 73.321818 2999.9287 71.489377C3000.2861 70.395219 3000.41 66.4625 3000.204 62.75Z M3001.1451 88.903494C3000.9498 85.381572 3000.6246 82.324748 3000.4223 82.110551C2999.5654 81.203309 2993.0 87.263742 2993.0 88.961998C2993.0 91.090431 2998.6838 96.278722 3000.3759 95.694864C3001.1023 95.444198 3001.3744 93.041762 3001.1451 88.903494Z M3004.4433 43.777494C3006.9258 40.233181 3006.4194 35.321546 3003.25 32.204545L3000.5 29.5L3000.1623 32.470383C2999.6876 36.645757 3000.9687 46.0 3002.0153 46.0C3002.4945 46.0 3003.5871 44.999872 3004.4433 43.777494Z M3009.0 63.901484C3009.0 62.366424 3004.2615 58.0 3002.5956 58.0C3002.268 58.0 3002.0187 61.4875 3002.0416 65.75L3002.0833 73.5L3005.5416 69.58339C3007.4437 67.429255 3009.0 64.872397 3009.0 63.901484Z M3007.9022 93.604148C3011.0413 90.262649 3010.4543 85.970219 3006.6875 84.722952C3005.1406 84.210745 3003.6237 84.042963 3003.3166 84.350104C3002.5189 85.147739 3003.9918 96.0 3004.8976 96.0C3005.3122 96.0 3006.6642 94.921867 3007.9022 93.604148Z"/>
</svg>
