<svg xmlns="http://www.w3.org/2000/svg"
     width="57.1" height="64.0"
     viewBox="710.6024 16.7173 78.7763 88.2827">
  <path d="M732.04716 93.75C729.83576 89.7625 728.02049 85.955011 728.01322 85.288914C728.00595 84.622816 730.025 81.591673 732.5 78.553041C737.60083 72.290594 737.88724 70.345361 734.6427 64.0C732.90261 60.5969 731.76918 59.5 729.99282 59.5C726.90953 59.5 725.92182 63.096779 726.23657 73.178517C726.36842 77.401701 726.14603 81.1873 725.74238 81.590958C725.33872 81.994616 723.95281 81.843898 722.66258 81.256029C715.48864 77.987363 714.60239 56.224051 721.32496 48.408595L723.58143 45.785299L730.79071 48.292441L738.0 50.799583L738.0 48.313926C738.0 46.946815 737.21709 42.89009 736.26019 39.298982L734.52038 32.769695L729.20994 33.317781C724.18675 33.83622 723.84589 33.724868 722.90845 31.259209C721.49791 27.549203 722.74874 23.071604 725.55256 21.794099C727.91587 20.717301 728.45832 20.936982 734.54971 25.437762C735.41759 26.079017 736.93307 25.525693 739.34272 23.687762C741.28083 22.209493 743.16912 21.0 743.53892 21.0C743.90872 21.0 745.54635 22.123383 747.1781 23.496407C750.13298 25.982779 752.7681 25.802271 754.50332 22.994623C754.84141 22.44758 756.34445 22.0 757.84341 22.0C759.79117 22.0 761.05829 22.828664 762.28439 24.904292C765.92166 31.061693 763.99674 34.0 756.32568 34.0C751.49647 34.0 750.92261 34.248983 749.52568 36.95034C747.88113 40.130551 747.4275 50.528141 748.89377 51.434344C749.38534 51.738152 751.39588 51.314709 753.36165 50.493361C758.27506 48.440406 759.08206 48.568699 762.83886 52.0C766.98615 55.787969 769.05044 55.772626 773.43693 51.921231C775.36552 50.227908 777.68565 48.990408 778.59278 49.171231C779.49991 49.352054 781.4017 51.716314 782.81897 54.425143C785.11901 58.821218 785.37872 60.392103 785.23657 69.048642C785.13863 75.013262 784.46683 80.431891 783.49156 83.123499C782.6194 85.530574 781.28975 89.433408 780.53679 91.796462C778.84042 97.120251 777.33322 99.0 774.76092 99.0C773.1679 99.0 772.89685 98.547379 773.41355 96.75C774.69617 92.28827 775.34761 65.332866 774.1901 64.617489C773.58397 64.242877 771.39562 64.643514 769.3271 65.507794C765.62121 67.056215 765.50196 67.033951 761.17842 63.986438C755.94212 60.295553 753.87618 60.449337 752.68033 64.619018C751.90215 67.332391 752.37095 68.717176 756.39487 75.591243C758.92769 79.91806 760.99012 84.367592 760.97804 85.479091C760.92431 90.422817 754.33182 101.0 751.30425 101.0C748.73109 101.0 747.75156 96.749663 749.29338 92.274505C750.61597 88.435666 750.56639 87.864268 748.60969 84.395492C745.97613 79.726775 744.73227 79.297632 742.08128 82.143133C740.24994 84.108843 740.06425 85.170812 740.61387 90.535416C741.27872 97.024651 740.09533 101.0 737.49876 101.0C736.71177 101.0 734.25855 97.7375 732.04716 93.75Z M755.95405 92.594919C758.88387 86.542727 758.56131 84.417072 753.36649 75.542757C748.92039 67.94748 748.78397 67.483193 749.99351 64.063665C750.6868 62.103649 751.70198 59.9375 752.24946 59.25C753.95776 57.104815 758.0929 57.874383 761.65278 61.0C765.48778 64.367171 766.43573 64.537519 770.0 62.5C773.61278 60.434749 774.92387 60.669572 776.03045 63.580082C777.24871 66.784348 777.51103 81.245541 776.51423 90.25C776.10326 93.9625 776.00747 97.0 776.30138 97.0C776.59529 97.0 777.98452 93.5125 779.38857 89.25C782.92868 78.502739 783.85025 65.075941 781.52774 58.083512C780.57302 55.209135 779.16493 52.616783 778.39864 52.32273C777.63235 52.028677 775.41351 53.185769 773.4679 54.894044C769.04366 58.778577 766.67647 58.801131 762.34722 55.0C758.41589 51.548246 757.6059 51.431067 752.48045 53.572614C749.13715 54.969535 748.54931 54.977877 747.21871 53.647282C744.81927 51.247841 744.48447 42.656828 746.52746 35.909321C748.09734 30.724354 748.14799 29.645038 746.92839 27.366189C744.93111 23.634239 743.18997 23.355485 740.24868 26.296775C737.46876 29.076692 737.09813 32.727897 738.8795 39.784931C740.48368 46.140036 741.035 52.43987 740.11247 53.87406C739.36954 55.029037 738.77193 55.002051 736.36431 53.704808C730.44387 50.514829 724.96011 48.950983 723.12969 49.930594C720.57781 51.296315 718.866 58.020457 719.09269 65.788222C719.32476 73.740347 720.34564 77.0 722.60408 77.0C724.00782 77.0 724.15849 76.252435 723.6013 72.052138C723.23395 69.282852 723.44282 65.127055 724.07568 62.613724C726.63518 52.449033 732.23254 52.825309 737.06679 63.487037C738.68006 67.045014 740.0 70.707914 740.0 71.626816C740.0 72.545717 737.975 75.757294 735.5 78.763654C733.025 81.770013 731.00422 84.740565 731.00938 85.364881C731.02141 86.819085 736.83933 97.0 737.65832 97.0C737.99815 97.0 737.97615 94.071405 737.60943 90.492011L736.94266 83.984022L740.82025 79.827046C745.60856 74.693728 746.99334 75.07004 750.6276 82.492163C753.06159 87.463017 753.23615 88.458022 752.18448 91.366372C749.44591 98.939748 752.41425 99.907166 755.95405 92.594919Z M732.46316 29.059613C733.02785 28.145921 729.3165 24.0 727.93388 24.0C726.53159 24.0 724.79507 27.023584 725.35674 28.487265C725.99574 30.152475 731.5131 30.596841 732.46316 29.059613Z M760.5 28.5C760.5 26.027979 760.05083 25.447671 757.94782 25.202667C756.32993 25.014179 754.68746 25.68787 753.4611 27.042985C751.54738 29.157617 751.54794 29.196274 753.51237 30.632704C754.60457 31.431341 756.6236 31.953198 757.9991 31.792386C760.04624 31.55305 760.5 30.955681 760.5 28.5Z"/>
</svg>
