<svg xmlns="http://www.w3.org/2000/svg"
     width="64.0" height="52.5"
     viewBox="4400.0000 17.8717 104.9395 86.0928">
  <path d="M4412.0 99.298285C4409.341 98.334279 4404.0 92.663152 4404.0 90.803833C4404.0 88.230121 4405.6758 88.575532 4407.6254 91.551112C4408.5448 92.954224 4410.6023 94.777235 4412.1977 95.602248C4414.8672 96.982706 4415.363 96.938777 4418.4173 95.051136C4422.319 92.639739 4426.8755 92.46316 4432.7137 94.497112C4437.5875 96.195117 4438.8044 95.88945 4445.2523 91.347527C4447.8661 89.506387 4450.2468 88.0 4450.5428 88.0C4450.8388 88.0 4452.3003 88.862028 4453.7905 89.915617C4458.3361 93.129349 4460.3612 93.244096 4464.3817 90.515737C4469.2854 87.187967 4471.0141 87.334417 4476.0 91.5C4478.3041 93.425 4480.3896 95.0 4480.6345 95.0C4480.8793 95.0 4482.9054 94.068607 4485.1367 92.930239C4490.3157 90.288156 4491.126 91.03934 4486.7213 94.399013C4482.875 97.332719 4477.9163 97.809009 4475.9453 95.434063C4475.2305 94.572798 4473.3687 93.207767 4471.8079 92.400661C4469.1743 91.038751 4468.6592 91.115425 4464.6472 93.466598C4459.4135 96.533755 4458.8344 96.557005 4453.5393 93.912519L4449.3595 91.825037L4444.9298 94.766125C4438.7609 98.861879 4436.5017 99.193895 4430.1033 96.945052L4424.5408 94.989972L4419.4207 97.494986C4416.6047 98.872744 4414.1205 99.964474 4413.9003 99.921053C4413.6801 99.877632 4412.825 99.597386 4412.0 99.298285Z M4409.655 90.171259C4408.7447 89.165452 4408.0 87.749742 4408.0 87.025237C4408.0 86.300731 4409.125 86.92185 4410.5 88.405499C4411.875 89.889149 4413.0 91.304859 4413.0 91.551522C4413.0 92.609553 4411.1832 91.859861 4409.655 90.171259Z M4429.7687 86.957123C4427.2412 85.016897 4426.8701 84.977571 4424.7962 86.430207C4421.7041 88.595968 4417.3624 88.394212 4413.8926 85.923533C4409.6771 82.921793 4411.3984 81.533905 4416.0762 84.162962L4420.006 86.371666L4422.9625 84.185833C4426.6455 81.46291 4427.7897 81.453835 4430.6331 84.125C4433.463 86.783616 4437.3919 86.841766 4440.8441 84.276129C4444.5448 81.525731 4444.7226 77.489731 4441.3702 72.333327C4437.5892 66.517912 4431.7619 64.172138 4429.091 67.390401C4428.4563 68.155121 4425.665 69.758184 4422.8882 70.952764C4418.1656 72.984365 4417.6798 73.020248 4415.3719 71.508029C4410.7987 68.511516 4409.0078 64.191016 4409.0037 56.144345C4408.9987 46.179334 4412.4176 33.084271 4414.4847 35.151365C4414.7696 35.436283 4414.1021 39.190766 4413.0014 43.494661C4410.2838 54.120057 4410.3703 60.766686 4413.2823 65.102117C4416.3898 69.728555 4419.6165 69.938363 4426.5603 65.965496C4430.8999 63.482604 4432.8091 62.929208 4435.3747 63.41052C4439.7679 64.234689 4443.8874 68.759475 4446.0438 75.12938C4447.6752 79.948539 4447.6889 80.536187 4446.2151 82.490053C4441.6434 88.550975 4434.4058 90.516802 4429.7687 86.957123Z M4417.0081 63.509727C4414.7436 60.781228 4414.5912 50.090892 4416.7237 43.556125C4419.0035 36.569463 4421.5278 34.588566 4420.4334 40.644996C4420.0502 42.765248 4419.346 45.257916 4418.8684 46.184259C4417.8767 48.107575 4417.7313 56.395401 4418.6303 59.75C4419.4358 62.75566 4420.9873 62.586277 4425.5 59.0C4429.8047 55.579036 4434.0104 55.141853 4439.7092 57.52295C4442.2284 58.575551 4443.6747 58.72528 4444.3922 58.007759C4446.1856 56.214365 4445.6713 45.858952 4443.5792 41.637041C4441.7154 37.87606 4441.553 37.789417 4437.4266 38.355007C4431.8433 39.120278 4428.0 36.377357 4428.0 31.62742C4428.0 25.381767 4431.6866 24.334695 4436.6702 29.164928L4439.9355 32.329856L4443.8807 27.914928L4447.8259 23.5L4451.3486 26.883818L4454.8713 30.267635L4459.1327 27.133818C4465.7407 22.274197 4470.0 23.251974 4470.0 29.628571C4470.0 34.442805 4467.5634 36.349075 4462.3273 35.631382C4458.607 35.121456 4457.8276 35.34505 4456.6138 37.270453C4454.9157 39.964098 4453.607 51.586124 4454.5699 55.422389C4455.1687 57.808261 4455.6181 58.092972 4457.8814 57.520119C4465.4735 55.598438 4466.4165 55.719484 4468.7824 58.919497C4473.8274 65.743286 4478.5485 61.317047 4480.9988 47.466159L4482.243 40.432317L4478.1215 33.698545C4474.1165 27.155119 4473.0657 24.0 4474.8916 24.0C4475.382 24.0 4476.0428 25.0125 4476.3601 26.25C4476.6774 27.4875 4478.5657 30.961691 4480.5562 33.970424C4483.9444 39.091784 4484.1324 39.784431 4483.5026 44.825386C4482.0183 56.705276 4477.9961 65.0 4473.7196 65.0C4472.5452 65.0 4469.8833 63.339036 4467.8044 61.308968L4464.0244 57.617937L4460.4783 59.308968C4455.3984 61.731389 4454.0818 61.440029 4452.449 57.532119C4450.5758 53.048917 4450.6083 46.682153 4452.5375 40.185775C4454.2082 34.559741 4453.8296 33.038908 4449.8264 29.296028C4447.2833 26.918393 4446.2853 27.182141 4443.7396 30.904606C4442.598 32.573812 4442.3777 33.837143 4443.019 35.035435C4447.594 43.58402 4448.6487 55.742318 4445.1862 60.018377L4443.3724 62.258321L4438.4487 60.080351C4432.661 57.520162 4429.9908 57.922911 4425.2696 62.068144C4421.581 65.306756 4418.8893 65.776449 4417.0081 63.509727Z M4437.5848 34.862785C4438.3315 33.654631 4434.3698 30.059943 4432.25 30.022236C4430.6572 29.993902 4430.6234 33.223415 4432.2 34.8C4433.7173 36.317276 4436.6646 36.351642 4437.5848 34.862785Z M4458.442 87.234687C4453.736 83.966645 4452.6904 76.218867 4456.25 70.991712C4459.8328 65.730504 4461.3019 65.239361 4465.8352 67.787238C4475.809 73.392813 4481.3612 68.981492 4485.8653 51.872849C4486.9329 47.817782 4488.0977 42.687222 4488.4537 40.471604C4488.9283 37.517255 4490.5341 34.85347 4494.4761 30.480617C4497.4325 27.201191 4500.1673 24.833935 4500.5534 25.220048C4500.9395 25.60616 4499.2356 28.168547 4496.767 30.914241C4493.0874 35.0069 4492.0558 37.040996 4491.0419 42.203206C4487.512 60.174701 4482.5242 69.681816 4475.39 72.036289C4472.3872 73.027306 4471.1756 72.891633 4467.0046 71.097345C4464.3232 69.943805 4461.6713 69.0 4461.1115 69.0C4459.1683 69.0 4456.7434 75.818454 4457.4144 79.395514C4458.3456 84.359247 4459.9814 85.310128 4463.5465 82.960104C4467.1706 80.571163 4469.95 80.490386 4473.7372 82.663935C4476.4002 84.192288 4476.8957 84.198534 4479.8182 82.74058C4484.2649 80.522251 4484.1463 83.067752 4479.6911 85.467025C4476.6076 87.12761 4476.1682 87.138336 4473.2407 85.624496C4469.1156 83.491323 4466.0641 83.603216 4463.0 86.0C4460.1935 88.195252 4459.9286 88.267015 4458.442 87.234687Z M4466.8 32.8C4468.5387 31.061265 4468.272 27.041606 4466.3694 26.311524C4464.3276 25.528014 4458.0 28.838093 4458.0 30.689695C4458.0 33.29488 4464.6987 34.901282 4466.8 32.8Z M4480.978 29.304219C4479.3401 26.72154 4478.0 24.24654 4478.0 23.804219C4478.0 21.871701 4479.9397 23.310465 4482.4516 27.106179L4485.1689 31.212358L4488.074 28.429081C4489.6718 26.898279 4491.2779 25.944532 4491.643 26.309644C4492.3386 27.005304 4486.0667 33.970888 4484.728 33.989352C4484.3034 33.995208 4482.6159 31.886899 4480.978 29.304219Z M4483.2495 87.75C4483.4784 87.0625 4484.5141 86.335597 4485.551 86.134661C4487.1821 85.818581 4487.2556 85.987124 4486.0957 87.384661C4484.5095 89.295915 4482.6556 89.53389 4483.2495 87.75Z"/>
</svg>
