<svg xmlns="http://www.w3.org/2000/svg"
     width="41.6" height="64.0"
     viewBox="6081.6472 15.0000 59.5804 91.5628">
  <path d="M6102.6973 101.25C6100.8805 98.011585 6101.1331 94.453574 6103.5643 89.035968L6106.1934 83.177757L6103.9785 76.838878C6101.5518 69.893791 6098.037 63.0 6096.9228 63.0C6095.8224 63.0 6095.2465 65.098616 6093.443 75.679559C6092.3984 81.808187 6091.9975 87.68735 6092.3764 91.31848C6092.9543 96.85583 6092.8799 97.121572 6090.8371 96.81848C6087.585 96.33598 6085.9304 90.171587 6085.786 78.0C6085.6472 66.307206 6087.0538 58.085111 6090.03 53.191104C6092.6291 48.917172 6094.3828 48.369366 6097.5331 50.847362C6100.446 53.138669 6106.8287 55.504617 6107.7126 54.620719C6108.4108 53.922567 6108.1407 41.036638 6107.4029 39.842841C6107.1164 39.379279 6105.7612 39.0 6104.3913 39.0C6100.5715 39.0 6096.3051 36.351807 6095.6002 33.543332C6094.2525 28.173739 6100.246 19.0 6105.1017 19.0C6107.9395 19.0 6112.0 22.923936 6112.0 25.666243C6112.0 27.823052 6114.9 28.430761 6116.7973 26.671559C6117.7338 25.803261 6119.5463 24.138176 6120.825 22.971369C6124.3538 19.751563 6129.0822 19.328085 6131.5116 22.014275C6135.0488 25.925399 6133.1205 41.0 6129.083 41.0C6127.2073 41.0 6125.0 37.190302 6125.0 33.952947C6125.0 31.103919 6121.5659 31.487411 6119.5518 34.561359C6118.3187 36.443287 6117.8672 39.382301 6117.8497 45.641029C6117.8367 50.3261 6118.0796 54.412889 6118.3895 54.722783C6118.6993 55.032677 6121.2735 54.321826 6124.1098 53.143114C6126.9461 51.964401 6129.7984 51.0 6130.4481 51.0C6133.661 51.0 6137.2276 66.614467 6136.4182 77.136494C6135.5449 88.488354 6132.4762 99.0 6130.0355 99.0C6128.7208 99.0 6129.0016 100.76512 6127.5676 83.484638C6126.3318 68.593091 6125.1609 64.0 6122.6007 64.0C6121.0554 64.0 6118.7233 69.704015 6116.3863 79.199644L6114.7375 85.899287L6117.3361 88.987629C6119.3883 91.426508 6119.8097 92.751443 6119.3401 95.287986C6118.6589 98.966835 6116.0337 102.23459 6115.3135 100.30018C6114.4051 97.860319 6110.811 94.0 6109.4477 94.0C6108.6738 94.0 6107.1224 95.8 6106.0 98.0C6103.9127 102.0915 6103.4338 102.56277 6102.6973 101.25Z M6106.2035 93.993677C6108.28 90.344532 6110.3004 90.209511 6113.5909 93.5C6114.9659 94.875 6116.2955 96.0 6116.5455 96.0C6117.7726 96.0 6116.7787 91.778672 6115.1736 90.173609C6114.1691 89.169094 6113.072 87.629927 6112.7356 86.753238C6112.0132 84.870717 6117.3794 65.596117 6119.5469 62.288127C6121.3767 59.49543 6122.4266 59.426634 6124.9351 61.935067C6127.6017 64.601721 6128.9431 69.916484 6129.6207 80.5C6129.9376 85.45 6130.556 89.880903 6130.9949 90.346451C6132.2523 91.680211 6134.0 81.668891 6134.0 73.13228C6134.0 65.669126 6131.8912 55.668827 6130.0816 54.550418C6129.605 54.255894 6126.7674 55.097408 6123.7758 56.42045C6120.7842 57.743491 6117.8791 58.527634 6117.3201 58.16299C6115.6796 57.092921 6114.8622 49.169271 6115.6098 41.582766C6116.1907 35.687707 6116.7657 34.080473 6119.1452 31.700929C6123.1057 27.740477 6126.2087 28.320935 6127.4264 33.25C6127.9359 35.3125 6128.691 37.0 6129.1044 37.0C6129.5178 37.0 6130.1657 34.521597 6130.5442 31.492437C6131.2787 25.613766 6130.2108 23.0 6127.0746 23.0C6125.5293 23.0 6118.3703 27.661544 6115.1339 30.775062C6113.0715 32.759216 6111.7242 31.818974 6109.2597 26.675495C6107.5019 23.006944 6106.4965 22.0 6104.5913 22.0C6099.9649 22.0 6095.9632 32.064683 6099.4416 34.951568C6100.2345 35.609619 6102.8065 36.002219 6105.1572 35.824012C6109.4292 35.50014 6109.4314 35.501724 6110.1579 39.5C6111.2849 45.701995 6111.1234 56.476581 6109.885 57.715049C6108.6042 58.995801 6102.8157 57.268849 6097.1146 53.90511C6092.8747 51.403532 6092.0234 52.129782 6089.5154 60.387498C6088.1878 64.758994 6087.7702 69.199381 6087.8939 77.632036C6088.1261 93.467811 6089.5048 96.317662 6090.4083 82.829395C6091.1191 72.218721 6093.0669 62.533147 6094.8481 60.751944C6096.5057 59.094299 6099.5741 60.893807 6101.6839 64.760885C6102.8059 66.817398 6104.9373 72.22876 6106.4204 76.786134L6109.117 85.072267L6106.5585 88.112859C6105.1513 89.785184 6104.0 91.75712 6104.0 92.494938C6104.0 93.232756 6103.7269 94.548229 6103.393 95.418213C6102.3356 98.173675 6104.4286 97.112823 6106.2035 93.993677Z"/>
</svg>
