<svg xmlns="http://www.w3.org/2000/svg"
     width="44.9" height="64.0"
     viewBox="3357.5718 14.3729 61.6024 87.7356">
  <path d="M3372.5329 61.053155C3371.9373 60.089534 3373.068 59.210786 3378.3564 56.527303C3381.8491 54.754998 3384.8456 50.51227 3383.5322 49.198871C3383.2441 48.910807 3381.8604 49.198217 3380.4572 49.837559C3379.054 50.476902 3376.4646 50.989994 3374.7029 50.977764C3364.4044 50.906269 3361.5718 36.179442 3369.7412 25.181604C3373.5316 20.078858 3376.1283 19.298141 3380.4422 21.964298L3384.0315 24.182614L3385.9084 21.864842C3387.6191 19.752134 3388.0119 19.668385 3390.3473 20.918252C3392.5707 22.108192 3393.2411 22.072037 3395.4195 20.644716C3398.8867 18.37293 3400.7754 18.572325 3405.2658 21.684224C3414.1057 27.810281 3415.1742 39.801101 3407.5772 47.623493C3404.1488 51.153559 3401.2255 51.796644 3396.6005 50.038211C3390.9834 47.902609 3392.0911 54.372889 3397.9611 57.986068C3401.5807 60.214037 3403.0966 62.0 3401.368 62.0C3400.205 62.0 3393.5153 57.712022 3392.25 56.155487C3390.7747 54.3406 3390.573 47.381934 3391.9706 46.51815C3392.5045 46.188214 3394.2821 46.611657 3395.921 47.459133C3400.4824 49.817914 3403.4955 49.388308 3406.3727 45.968945C3411.901 39.398889 3411.6722 29.594184 3405.8775 24.756629C3401.7284 21.29276 3399.013 21.276757 3394.9539 24.692254C3392.0138 27.166147 3391.654 27.247254 3390.5169 25.692254C3388.8951 23.474281 3387.7584 23.555919 3386.2321 26.0C3384.6019 28.610395 3383.6137 28.522812 3380.5909 25.5C3379.2159 24.125 3377.1934 23.0 3376.0963 23.0C3371.2312 23.0 3365.7397 36.555012 3368.0951 42.75016C3370.5303 49.155214 3374.4169 50.541499 3380.1552 47.051825C3381.9171 45.980329 3383.728 45.331887 3384.1793 45.610842C3384.6307 45.889798 3385.0 48.289722 3385.0 50.944007C3385.0 54.903962 3384.5789 56.045865 3382.6536 57.307377C3378.8241 59.816576 3373.082 61.94176 3372.5329 61.053155Z M3372.5567 42.777494C3370.5994 39.983122 3370.5877 37.230974 3372.5134 32.622124C3374.455 27.975275 3377.9236 27.679548 3380.9319 31.90437C3383.6679 35.746713 3383.5401 38.204644 3380.4111 41.923275C3377.3527 45.557967 3374.7059 45.845831 3372.5567 42.777494Z M3379.3691 39.707444C3381.1255 37.354952 3381.2011 36.744216 3380.011 34.520496C3378.2733 31.273699 3374.4711 31.112511 3373.6303 34.25C3371.4796 42.275287 3374.9722 45.596638 3379.3691 39.707444Z M3386.6585 95.945987C3384.8603 94.531572 3383.273 94.113822 3381.3016 94.536129C3378.7014 95.09311 3378.6312 95.029637 3380.3246 93.653307C3381.5059 92.693262 3382.0348 91.170639 3381.8246 89.335178C3381.546 86.901701 3381.1104 86.540784 3378.75 86.787849C3375.3029 87.148662 3375.2101 85.563649 3378.5502 83.375169C3381.9846 81.124821 3381.5315 77.61869 3377.75 77.183578C3374.1876 76.773676 3374.267 75.81266 3378.0 74.160294C3380.5966 73.010939 3381.0 72.305734 3381.0 68.916182C3381.0 64.652996 3380.5005 64.306878 3377.5589 66.531803C3374.0904 69.155258 3372.2156 68.163694 3375.5 65.442874C3377.3043 63.948194 3379.4964 63.065751 3381.0 63.228837C3383.4956 63.499526 3383.4994 63.516092 3383.1406 72.709696C3382.7375 83.037965 3384.2274 90.990845 3387.0427 93.538609C3389.9021 96.126374 3391.4942 94.776918 3393.0033 88.486359C3394.1098 83.873717 3394.1532 81.011474 3393.2275 73.677638C3392.5963 68.67762 3392.2383 64.428328 3392.4319 64.234767C3393.0441 63.622573 3399.7226 66.742214 3400.503 68.004899C3401.0568 68.900919 3400.4413 69.036191 3398.1251 68.527478C3395.2955 67.906003 3395.0 68.070378 3395.0 70.265557C3395.0 72.737713 3396.8335 74.883023 3400.6132 76.833459C3402.2671 77.68693 3403.518 77.520316 3406.369 76.066808C3411.1519 73.628305 3412.0308 75.199788 3407.463 78.022894C3404.2265 80.023162 3402.8451 80.149575 3398.0237 78.886688C3397.1061 78.646311 3396.4181 79.347674 3396.2055 80.740327C3395.9553 82.378861 3396.5837 83.308842 3398.5449 84.202418C3400.8473 85.251434 3401.787 85.117108 3405.1913 83.252391C3408.4484 81.468291 3409.4993 81.294859 3411.0781 82.280847C3413.7436 83.945494 3413.4836 85.159484 3410.6157 84.439689C3409.1605 84.07444 3406.7118 84.61655 3404.3313 85.831006C3401.4061 87.323313 3399.9724 87.564066 3398.5964 86.794035C3397.2453 86.037891 3396.5337 86.127391 3395.8962 87.133667C3394.375 89.534968 3394.9237 90.909177 3398.0492 92.525456C3400.9207 94.010354 3401.3051 93.974539 3404.6439 91.911068C3408.1131 89.766976 3408.2679 89.75806 3411.8447 91.496366C3413.8551 92.473443 3414.9624 93.465658 3414.3054 93.701288C3413.6484 93.936919 3412.1421 93.611238 3410.9581 92.977553C3409.191 92.031846 3408.0365 92.233213 3404.515 94.101355C3400.3277 96.322704 3400.1587 96.333972 3397.468 94.570989C3394.964 92.930276 3394.6288 92.911855 3393.8128 94.37007C3392.0459 97.527357 3389.4076 98.108492 3386.6585 95.945987Z M3394.4545 41.545455C3390.963 38.053941 3391.1379 32.996416 3394.8955 28.790888C3397.5775 25.789272 3397.975 25.648682 3400.2851 26.884976C3407.2082 30.590127 3406.1657 44.0 3398.9545 44.0C3397.8295 44.0 3395.8045 42.895455 3394.4545 41.545455Z M3400.6874 41.214335C3404.5215 38.776409 3403.2258 29.0 3399.0686 29.0C3394.0679 29.0 3391.9638 37.460357 3396.2225 40.443296C3398.7433 42.20891 3399.0421 42.260518 3400.6874 41.214335Z"/>
</svg>
