<svg xmlns="http://www.w3.org/2000/svg"
     width="47.8" height="64.0"
     viewBox="3450.8647 9.7014 68.0696 91.2189">
  <path d="M3477.9942 93.2655C3476.2117 90.999431 3475.9576 89.757473 3476.5107 86.0155C3476.8777 83.531975 3478.0915 79.864725 3479.208 77.866056C3481.1672 74.358474 3481.1794 74.056174 3479.5573 69.172505C3477.5279 63.062713 3473.9357 57.5 3472.0195 57.5C3471.2491 57.5 3469.5353 59.60527 3468.2111 62.178377C3466.0218 66.432629 3465.9031 67.320991 3466.9018 71.977598C3467.5058 74.794062 3468.0 79.143422 3468.0 81.642841C3468.0 85.346235 3468.3701 86.28403 3470.0 86.710251C3472.0823 87.254788 3472.7944 89.0 3470.9343 89.0C3467.592 89.0 3466.0 86.830263 3466.0 82.275012C3466.0 79.71497 3465.4824 75.114317 3464.8497 72.051338C3463.759 66.770464 3463.8495 66.172265 3466.5997 60.491143C3468.1949 57.196014 3470.1969 54.371944 3471.0488 54.21543C3474.2607 53.625266 3479.6144 60.682598 3481.9674 68.608479L3484.2083 76.157244L3482.1163 78.106299C3480.0996 79.985094 3479.6166 81.279185 3478.6948 87.273867C3477.9953 91.822189 3479.7408 91.374307 3481.9208 86.446088C3484.4508 80.726634 3486.598 80.842327 3488.9335 86.823943C3489.862 89.202112 3491.0444 91.104446 3491.5609 91.051351C3492.0774 90.998257 3492.4899 88.515445 3492.4775 85.533991C3492.46 81.325038 3491.957 79.583101 3490.2275 77.742132C3487.7182 75.071182 3487.4731 72.809939 3489.1662 67.953105C3490.6404 63.724208 3495.8078 56.01099 3497.6369 55.309083C3501.2977 53.904304 3505.31 61.441698 3507.6186 74.060695C3509.0439 81.851097 3509.4718 82.969136 3510.2483 80.932449C3510.7584 79.594602 3510.9861 74.9 3510.7541 70.5C3510.3097 62.067983 3507.4519 53.623931 3503.9789 50.48086C3502.2632 48.928204 3501.7561 48.956347 3496.2547 50.909556C3489.5054 53.305854 3487.0389 53.527627 3486.9078 51.75C3486.5182 46.469661 3486.8645 33.002214 3487.4363 31.200841C3487.8243 29.978314 3489.5058 28.272698 3491.1729 27.410584C3494.0346 25.930763 3494.3323 25.963544 3496.4965 27.996756C3499.3431 30.670993 3500.254 29.440701 3499.3967 24.079551C3498.3376 17.456395 3496.825 17.095512 3490.2309 21.892757C3480.7035 28.824035 3480.6632 28.831852 3476.0296 24.645713C3470.9819 20.085441 3467.6387 19.864118 3465.5257 23.95034C3464.6866 25.573027 3464.0 28.711471 3464.0 30.92466C3464.0 34.369284 3464.4248 35.168301 3466.9503 36.47432C3470.727 38.427284 3471.2681 38.400284 3476.2107 36.012304C3482.2979 33.071277 3483.3504 34.386044 3482.7811 44.219951C3482.5333 48.500489 3482.0452 52.288085 3481.6965 52.636832C3481.3478 52.985579 3479.9268 52.526819 3478.5388 51.617366C3477.1508 50.707913 3474.0992 49.72192 3471.7576 49.426272C3467.5213 48.891423 3467.4832 48.915315 3464.1464 54.194365C3460.5379 59.903416 3460.4946 60.261639 3461.5577 75.614654L3462.1889 84.729308L3459.0944 86.932748C3455.6599 89.378394 3454.8647 88.337425 3458.0 85.5C3459.5988 84.053123 3460.0 82.420033 3460.0 77.359364C3460.0 73.8775 3459.4743 69.063294 3458.8319 66.661128C3457.7181 62.496823 3457.8309 61.994639 3461.2555 55.870903C3463.2309 52.338445 3465.7683 48.614678 3466.8941 47.595865C3468.788 45.88184 3469.2606 45.853787 3473.2205 47.220297C3480.8572 49.855637 3480.4707 50.014214 3480.8072 44.107212C3481.1916 37.360007 3480.3049 36.410071 3475.6811 38.615053C3472.5891 40.089513 3471.4821 40.16142 3467.9887 39.11475C3462.9729 37.612005 3461.4976 34.836132 3462.4255 28.647943C3463.8631 19.061624 3470.5764 15.999448 3477.0 22.0C3478.7663 23.65 3480.5924 25.0 3481.0578 25.0C3481.5233 25.0 3484.801 22.975 3488.3415 20.5C3498.0669 13.701441 3500.4042 14.521112 3501.3941 25.077392C3502.2905 34.637167 3499.7338 38.253534 3496.5 32.0C3494.8097 28.731245 3493.4418 28.348717 3490.75 30.392046C3489.3059 31.488241 3489.0 33.332234 3489.0 40.939698L3489.0 50.158911L3492.25 49.465523C3494.0375 49.08416 3497.0175 48.148406 3498.8721 47.386068C3500.7268 46.623731 3502.5969 46.0 3503.0279 46.0C3504.5669 46.0 3509.9527 55.325367 3511.5125 60.691159C3514.9343 72.461505 3512.5705 92.88128 3507.6772 93.82365C3506.1023 94.126943 3505.9357 93.36911 3506.1397 86.831906C3506.3843 78.996122 3505.6744 73.436188 3503.4316 65.621388C3500.828 56.549747 3498.565 55.84439 3494.2193 62.75C3490.4104 68.802434 3489.3413 74.208416 3491.5848 76.070414C3495.4257 79.258044 3496.5035 90.681217 3493.2976 94.223683C3490.9429 96.825531 3489.8384 96.042004 3488.0621 90.50965C3485.5981 82.83563 3484.0478 83.324411 3482.542 92.25C3481.7888 96.714936 3480.8691 96.920299 3477.9942 93.2655Z M3458.0 92.023053C3458.0 91.485732 3459.1277 90.307238 3460.5059 89.404177C3462.5971 88.033964 3463.4954 87.962558 3465.934 88.972681C3469.0933 90.281269 3470.8441 93.0 3468.5276 93.0C3467.7524 93.0 3466.8399 92.55 3466.5 92.0C3466.1601 91.45 3464.8101 91.0 3463.5 91.0C3462.1899 91.0 3460.8399 91.45 3460.5 92.0C3459.7072 93.282768 3458.0 93.298511 3458.0 92.023053Z"/>
</svg>
