<svg xmlns="http://www.w3.org/2000/svg"
     width="55.5" height="64.0"
     viewBox="1048.9248 14.9066 81.5890 94.0934">
  <path d="M 1106.1689,35.25 C 1104.7247,31.551239 1104.4875,28.157436 1105.4,24.25 1106.6421,18.930824 1108.0776,20.488173 1107.3827,26.401 1106.8959,30.543089 1107.1269,32.343117 1108.374,34.123507 1110.3619,36.961721 1110.4282,38 1108.6213,38 1107.863,38 1106.7595,36.7625 1106.1689,35.25 z M 1100,95.188058 C 1100,94.229081 1104.7462,90.645375 1107.25,89.713854 1110.6658,88.44302 1109.0074,91.627558 1105.1138,93.815859 1100.8894,96.190104 1100,96.428769 1100,95.188058 z M 1070.6667,96.333333 C 1068.8601,94.526786 1071.0176,84.806224 1074.925,77.147017 1076.0799,74.883243 1077.3764,71.338954 1077.8061,69.270819 1078.7929,64.521072 1080.6494,64.175544 1084.6958,67.988531 1087.823,70.935389 1090.2534,71.607461 1093.4069,70.397354 1095.3461,69.653228 1104.827,56.248307 1108.3972,49.202854 1110.6597,44.738103 1111.4443,44 1113.928,44 1115.9322,44 1117.6183,43.053884 1119.4111,40.923275 1120.835,39.231076 1122,37.431076 1122,36.923275 1122,35.6907 1120.2765,35.743595 1119.5,37 1118.3863,38.80204 1114.1531,38.05671 1112.5567,35.777494 1111.0025,33.55849 1110.4586,26.574473 1111.607,23.581787 1112.8496,20.343677 1114,22.168479 1114,27.377555 1114,34.464384 1115.8384,36.234897 1120.0013,33.157146 1124.9267,29.515669 1126.5138,30.555293 1124.908,36.371181 1123.5322,41.353587 1118.4547,47 1115.3499,47 1113.635,47 1112.3993,47.940755 1111.2035,50.156919 1107.4963,57.027182 1097.7814,71.039672 1095.7287,72.477438 1092.6841,74.609977 1088.7436,74.372766 1085.5555,71.86503 1083.248,70.049932 1082.6388,69.937563 1081.4895,71.11503 1079.574,73.07754 1073,88.407579 1073,90.912002 1073,93.539444 1074.4703,93.594339 1076.2637,91.033855 1077.9434,88.635829 1082.7731,86.014531 1085.5271,86.006161 1086.6421,86.002772 1089.0323,87.35 1090.8389,89 1092.6454,90.65 1094.4781,92 1094.9117,92 1095.3452,92 1097.6002,90.623428 1099.9228,88.940952 1105.3521,85.008011 1107.0424,85.554115 1102.817,89.875986 1097.1819,95.639654 1093.9341,95.953421 1088.8151,91.228666 1085.4282,88.102645 1082.1318,88.744764 1076.7896,93.571143 1072.9413,97.047814 1071.8662,97.532837 1070.6667,96.333333 z M 1091.0008,101.75 C 1088.6363,99.9625 1086.1124,98.064075 1085.3923,97.531277 1084.4854,96.86032 1083.2249,97.196921 1081.2915,98.626346 1077.1726,101.6715 1072.3598,104 1070.1845,104 1067.6252,104 1063.0712,100.31738 1061.935,97.32904 1060.494,93.538927 1062.5468,82.316676 1065.9194,75.547258 1069.4824,68.395484 1070.4187,64.894491 1069.5229,62.072172 1068.5713,59.074031 1066.8792,59.495529 1062.08,63.926175 1056.5904,68.994135 1055.1276,69.519208 1054.1161,66.784881 1052.9248,63.564422 1054.8782,58.419921 1059.1239,53.596632 1062.6761,49.561062 1062.8182,49.136839 1061.9343,45.203079 1060.3817,38.293173 1065.0989,27.6022 1071.5716,23.361135 1073.5082,22.092202 1074.3111,22.013308 1075.4732,22.977747 1076.7409,24.029897 1076.6067,24.842571 1074.4682,29.062793 1071.4641,34.991041 1071.2578,40.874973 1073.9395,44.139216 L 1075.879,46.5 1079.6895,44.5 C 1082.445,43.053715 1084.3676,40.866157 1086.6338,36.59862 1089.6264,30.963142 1089.8216,30.798104 1090.9656,32.93581 1092.6597,36.101242 1091.35,44.561664 1088.3627,49.75 1087.0169,52.0875 1085.4847,54 1084.9578,54 1083.1978,54 1083.9727,56.81411 1086.5889,59.923275 1088.0128,61.615474 1089.5456,63 1089.9951,63 1091.3325,63 1098.1131,52.993123 1100.6262,47.310669 L 1102.9607,42.03188 1100.4803,37.367001 C 1097.6439,32.032479 1097.3244,27.207116 1099.5257,22.95034 1101.3412,19.439574 1103.5954,18.906628 1102.488,22.25 1102.0781,23.4875 1101.5375,26.557751 1101.2868,29.072779 1100.9036,32.916004 1101.2432,34.135607 1103.4154,36.717135 1104.8369,38.406502 1105.9979,40.173752 1105.9954,40.644356 1105.9863,42.317139 1101.4607,52.545451 1099.4964,55.332688 1091.4897,66.69351 1089.1672,67.366008 1083.0736,60.087923 L 1078.961,55.175846 1081.2305,53.307289 C 1085.2588,49.990635 1087.1595,47.226586 1088.0125,43.444723 L 1088.8473,39.743221 1085.164,43.339833 C 1083.1382,45.317969 1080.0021,47.451919 1078.1948,48.081943 1073.9791,49.551538 1071.7464,47.737415 1069.9723,41.401068 1068.7585,37.065741 1069.0983,34.399233 1071.6483,28.25 1071.9334,27.5625 1071.675,27 1071.074,27 1070.473,27 1068.5556,29.891287 1066.813,33.425081 1063.7093,39.71902 1063.6716,39.962767 1064.9681,45.366979 L 1066.2916,50.883795 1063.1019,53.567688 C 1059.9688,56.204027 1055.3937,63.727075 1056.3451,64.678387 1056.6116,64.944904 1059.4071,63.140019 1062.5573,60.667533 1065.7075,58.195046 1068.8836,56.401827 1069.6153,56.682602 1071.3536,57.349656 1072.3982,63.108596 1071.6404,67.847423 1071.3104,69.911221 1069.7172,74.277332 1068.0999,77.549892 1066.2405,81.312549 1064.9088,85.932214 1064.4776,90.115891 1063.8519,96.186456 1063.9845,96.907691 1066.0864,98.865891 1069.3301,101.88779 1072.5305,101.52491 1078.1329,97.5 1080.8123,95.575 1083.6773,94 1084.4994,94 1085.3216,94 1087.683,95.49996 1089.7471,97.333245 1091.8112,99.16653 1094.3462,100.97492 1095.3803,101.35188 1097.3573,102.07248 1104.5692,98.479089 1108.75,94.690375 1110.6131,93.001946 1111,92.92396 1111,94.236792 1111,96.806084 1099.7252,105 1096.1899,105 1095.7005,105 1093.3654,103.5375 1091.0008,101.75 z"/>
</svg>
