<svg xmlns="http://www.w3.org/2000/svg"
     width="64.0" height="62.5"
     viewBox="1222.0263 16.7361 92.9914 90.7985">
  <path d="M 1258.9688 21 C 1257.8959 20.736102 1255.7524 21.42375 1252.4062 23.03125 C 1241.6569 28.195156 1240.2991 34.915452 1248.4688 42.53125 C 1251.7949 45.632045 1252.8822 47.400476 1253.125 50.21875 C 1253.5503 55.155271 1252.6615 55.722676 1248.25 53.28125 C 1246.1937 52.143226 1242.9941 50.889536 1241.1562 50.5 C 1238.3233 49.899539 1237.3542 50.240381 1234.8125 52.65625 C 1231.2426 56.049517 1229.3284 59.535889 1227.3438 66.21875 C 1226.0263 70.655174 1226.0483 71.425758 1227.4688 73.59375 C 1228.3409 74.924695 1229.262 76 1229.5312 76 C 1229.8005 76 1231.0804 73.614779 1232.375 70.6875 C 1236.7188 60.865463 1243.3314 58.374234 1247.7188 64.90625 C 1250.9928 69.78054 1250.5816 72.355393 1245.3125 80.28125 L 1240.6562 87.3125 L 1243.5625 92.71875 C 1247.1492 99.349194 1250.3271 102.48281 1252.5625 101.625 C 1254.2422 100.98046 1254.2179 98.764667 1252.4688 90.40625 C 1251.962 87.985084 1252.3446 86.715075 1254.25 84.5 L 1256.6875 81.65625 L 1259.3438 83.59375 C 1262.6518 85.979321 1263.5238 89.022961 1262.0938 93.125 C 1260.6597 97.238795 1260.6913 100.31628 1262.1875 101.8125 C 1263.9096 103.53459 1264.6226 103.31458 1267.4062 100.3125 L 1269.875 97.65625 L 1270.5312 97.9375 L 1271.9062 94.84375 C 1271.6807 94.251931 1271.6978 93.655811 1272.375 93.09375 C 1272.4657 93.018451 1272.6233 93.061399 1272.7188 93 L 1274.5 89 L 1275.5 88.3125 C 1274.5337 87.385688 1273.6793 86.299034 1272.9062 84.78125 C 1271.7044 82.421589 1269.6394 79.108165 1268.3438 77.40625 C 1263.2314 70.690852 1268.0851 63.006741 1273.5938 69.09375 C 1275.9268 71.671878 1280.2605 74 1282.75 74 C 1286.8681 74 1294.012 63.772881 1297.4375 52.96875 C 1298.9816 48.098672 1300.4824 45.425347 1302.5625 43.8125 C 1307.2423 40.183911 1309.4444 36.87468 1310.125 32.53125 C 1311.0177 26.834765 1309.6525 25.999796 1305.7188 29.8125 C 1303.9041 31.571429 1301.9097 33 1301.3125 33 C 1300.0632 33 1299.0198 29.741312 1299 25.75 C 1298.9819 22.12329 1297.3384 22.231035 1296.5312 25.90625 C 1295.7805 29.32399 1298.1442 35.752236 1300.5 36.65625 C 1301.4999 37.039919 1303.2307 36.192488 1305.0625 34.4375 C 1307.5583 32.046408 1308 31.91092 1308 33.46875 C 1308 34.47817 1305.5043 37.600269 1302.4688 40.40625 C 1297.9945 44.542114 1296.6083 46.635978 1295.0938 51.5 C 1291.3914 63.389916 1286.374 71 1282.2188 71 C 1280.0375 71 1272 65.497352 1272 64 C 1272 62.589314 1268.8102 62.810742 1266.75 64.375 C 1265.7933 65.101375 1264.3617 67.274812 1263.5625 69.1875 C 1261.9815 72.971283 1262.0026 72.975344 1268.5312 81.90625 C 1269.8974 83.775086 1271 86.552659 1271 88.09375 C 1271 90.944524 1265.631 100 1263.9375 100 C 1262.718 100 1262.7098 99.867107 1264.6562 92.5625 L 1266.3438 86.3125 L 1262.0625 82.40625 C 1259.703 80.261153 1257.3681 78.342792 1256.875 78.15625 C 1255.8071 77.752256 1252.5825 81.33261 1250.3438 85.4375 C 1248.8587 88.160638 1248.887 88.764465 1250.5 93.25 C 1251.4597 95.918977 1251.9823 98.36138 1251.6562 98.6875 C 1250.9348 99.408948 1247.7314 95.669196 1245.3125 91.25 C 1243.5923 88.107197 1243.6191 87.866427 1245.5312 84.3125 C 1246.6188 82.29117 1248.7375 79.091798 1250.25 77.1875 C 1253.5297 73.058174 1253.7033 70.054949 1250.9688 64.40625 C 1246.4545 55.080942 1237.5536 56.326051 1231.9062 67.0625 C 1229.844 70.983189 1229.5103 71.237171 1229.1875 69.15625 C 1228.6152 65.46767 1229.6693 62.733507 1233.5938 57.59375 C 1237.0035 53.128043 1237.4451 52.860472 1240.6875 53.46875 C 1243.9143 54.074106 1249.9449 56.934921 1252.7188 59.1875 C 1255.0433 61.075224 1256 58.811711 1256 51.5 L 1256 44.125 L 1251.75 41.28125 C 1244.6451 36.509554 1244.3845 29.90803 1251.1562 26.40625 C 1255.736 24.037981 1256.323 24.509102 1255.6875 29.875 C 1254.6764 38.4119 1258.477 39.372249 1265.4062 32.34375 L 1270 27.65625 L 1270 30.90625 C 1270 33.404226 1268.8733 35.31082 1265 39.40625 L 1260 44.6875 L 1260 51.78125 C 1260 56.035015 1260.4691 59.16904 1261.1562 59.59375 C 1261.7866 59.983329 1264.284 59.22587 1266.7188 57.90625 L 1271.1562 55.5 L 1273.3125 58.0625 C 1274.5099 59.465574 1276.6671 62.127588 1278.0938 64 L 1280.6875 67.40625 L 1283.7812 64.96875 C 1287.954 61.645923 1291.199 53.918025 1291.7812 45.90625 L 1292.25 39.28125 L 1288.625 36.40625 C 1284.5911 33.187595 1284.087 30.630941 1286.5625 25.84375 C 1287.4281 24.169951 1287.862 22.549583 1287.5312 22.21875 C 1286.3304 21.01787 1282.9074 25.709223 1282.3125 29.375 C 1281.7576 32.794481 1282.0854 33.514261 1285.8438 37.34375 C 1289.7273 41.300794 1289.9457 41.841565 1289.5625 46.375 C 1288.9428 53.706435 1284.5438 63.005259 1281.6875 63 C 1281.0375 62.998803 1279.15 60.965684 1277.5 58.5 C 1273.875 53.082967 1272.25 52.45795 1267.4375 54.46875 C 1265.4049 55.317999 1263.6454 56 1263.5 56 C 1263.3546 56 1262.9133 53.923242 1262.5312 51.375 C 1261.8556 46.868947 1261.9747 46.615165 1266.375 42.125 C 1268.8633 39.585742 1271.4097 36.15 1272.0312 34.5 C 1273.1804 31.450104 1272.5092 23 1271.125 23 C 1270.7136 23 1268.2366 25.475 1265.625 28.5 C 1261.0649 33.781943 1258.1189 35.396928 1257.875 32.75 C 1257.647 30.274541 1258.1107 27.442355 1259.1875 24.6875 C 1260.0542 22.470095 1260.0416 21.263898 1258.9688 21 z M 1292.0312 23.5625 C 1291.6092 23.607786 1290.9792 25.069848 1290.5 27.90625 C 1290.042 30.617391 1290.3276 32.759955 1291.4375 34.90625 C 1292.3165 36.606128 1293.7204 38 1294.5312 38 C 1296.6049 38 1296.3728 36.635111 1293.9062 34.40625 C 1292.1321 32.803043 1291.8683 31.743421 1292.3438 27.71875 C 1292.6769 24.898015 1292.4533 23.517214 1292.0312 23.5625 z "/>
</svg>
