<svg xmlns="http://www.w3.org/2000/svg"
     width="17.1" height="64.0"
     viewBox="6425.3718 11.7129 24.2532 90.9159">
  <path d="M 6444.5938 79.375 L 6444.1562 79.125 L 6444.5312 66.8125 C 6444.964 52.898614 6443.7402 35.832302 6441.8125 28.625 C 6440.9569 25.425982 6439.399 22.82066 6437.2188 20.90625 C 6431.3038 15.712873 6429.3718 17.465448 6431.5938 26.03125 C 6433.5547 33.590863 6433.4994 70.140935 6431.5 83.40625 C 6430.6782 88.858329 6430 94.370829 6430 95.65625 C 6430 98.628797 6430.7249 98.595383 6433.5938 95.5 C 6436.1781 92.711354 6438.4561 92.996925 6441.2188 96.40625 C 6442.6781 98.207239 6443.2001 98.31946 6444.9375 97.25 C 6445.0771 97.164062 6445.4332 97.112427 6445.625 97.03125 L 6445.5 96 L 6445.0938 89.15625 C 6444.8918 88.521104 6444.6823 87.945254 6444.5 87.09375 C 6443.9995 84.755579 6443.9451 84.101535 6444.7812 84.15625 L 6444.5 79.5 L 6444.5938 79.375 z M 6434.7188 23.21875 C 6434.8511 23.147488 6435.0215 23.147905 6435.25 23.21875 C 6439.4287 24.514416 6442.6186 45.031242 6441.7812 65.375 C 6441.5248 71.603443 6441.6314 80.697161 6442.0312 85.59375 C 6442.4312 90.49034 6442.6505 94.609128 6442.5312 94.75 C 6442.412 94.890872 6441.4986 94.103372 6440.5 93 C 6439.3833 91.765962 6437.4307 91 6435.4062 91 L 6432.0938 91 L 6433.7188 85.75 C 6435.0242 81.523073 6435.3773 75.530787 6435.4375 55 C 6435.4787 40.975 6435.1576 27.987946 6434.75 26.15625 C 6434.3407 24.316898 6434.3217 23.432536 6434.7188 23.21875 z "/>
</svg>
