<svg xmlns="http://www.w3.org/2000/svg"
     width="22.3" height="64.0"
     viewBox="785.6806 16.5991 30.4253 87.4009">
  <path d="M793.57067 97.292787C792.05862 95.662115 790.79157 92.79292 790.38438 90.077531C789.68063 85.384647 791.27155 72.317109 792.91878 69.260267C793.44048 68.29212 794.33385 65.441187 794.90403 62.92486C795.78315 59.045153 795.62319 57.525127 793.85167 52.92486C792.37443 49.08879 791.61505 44.278407 791.25878 36.5C790.79337 26.338667 790.91679 25.309394 792.87762 23.0C794.88649 20.634041 795.05951 20.599076 796.10461 22.347878C797.02065 23.880701 797.95835 24.083374 801.60447 23.536605C806.32441 22.828806 806.58555 23.037371 804.90684 26.174065C803.07858 29.5902 803.74842 44.73401 806.03121 51.593775L808.06196 57.696183L804.53098 68.475305C800.72168 80.104062 800.30914 82.496432 802.25 81.702923C807.09059 79.723878 807.26671 79.700243 806.81261 81.09065C806.2045 82.9526 801.26266 85.314768 799.43926 84.615064C797.47275 83.860444 797.6183 80.608213 799.93671 73.5C804.83898 58.469716 804.87047 58.277814 803.1829 53.720147C802.29048 51.309979 801.38005 44.567764 801.06015 38.0L800.5 26.5L797.32914 26.192544C794.18787 25.887957 794.1519 25.936033 793.47635 31.343024C792.73864 37.247406 794.84177 48.859548 797.62289 54.237651C799.25421 57.392272 799.15546 58.326939 796.06323 69.0C792.75117 80.431806 792.13333 84.358008 792.95076 88.778684C794.44708 96.870753 799.204 98.977223 807.0 95.0C811.67476 92.615117 812.10593 92.560375 811.38331 94.443497C810.5394 96.642698 803.36521 100.0 799.50968 100.0C797.06721 100.0 795.35886 99.221276 793.57067 97.292787Z M802.0 90.01342C802.0 89.089587 808.22837 86.0 810.09074 86.0C812.07432 86.0 809.58218 88.950002 806.7706 89.930124C802.96686 91.256116 802.0 91.272997 802.0 90.01342Z"/>
</svg>
