<svg xmlns="http://www.w3.org/2000/svg"
     width="36.2" height="64.0"
     viewBox="3081.5625 44.4913 33.6414 59.5087">
  <path d="M 3085.5625 84.65625 L 3085.5938 87.59375 C 3086.0502 87.748987 3086.5868 88 3086.9062 88 C 3091.7668 88 3096.3815 79.584915 3098.625 66.625 C 3100.0289 58.515047 3102.373 53.754247 3105.25 53.1875 C 3108.2662 52.59333 3108.0359 57.608532 3104.5 69.625 C 3100.436 83.435951 3100.3412 84.316316 3102.9688 89.21875 C 3104.8334 92.69788 3104.822 96 3102.9375 96 C 3102.4743 96 3100.9058 94.425 3099.4375 92.5 C 3096.2642 88.339591 3094.9875 88.18109 3091.4062 91.5 C 3089.2966 93.455177 3087.1091 94.258701 3085.6562 93.8125 L 3085.6875 96.5 C 3087.453 97.058218 3088.9062 96.543066 3092.0938 94.75 L 3096.0938 92.5 L 3099.1562 96.25 C 3100.8311 98.3125 3102.6194 100 3103.125 100 C 3103.6305 100 3104.7613 98.47069 3105.6562 96.59375 C 3107.1609 93.438322 3107.1759 92.860549 3105.6562 89.0625 C 3103.3821 83.378579 3103.5395 80.753311 3107.0312 69 C 3111.2039 54.954458 3110.2282 48.491325 3104.25 50.59375 C 3101.1865 51.671113 3097.0173 58.818297 3097 63.03125 C 3096.9849 66.722313 3093.5676 78.489118 3091.6562 81.40625 C 3089.4654 84.750059 3087.835 85.756494 3085.5625 84.65625 z "/>
</svg>
