<svg xmlns="http://www.w3.org/2000/svg"
     width="38.1" height="64.0"
     viewBox="6790.0000 11.5000 56.1344 94.2459">
  <path d="M 6830 88.125 C 6828.3787 87.342249 6826.8775 86.430078 6826.0625 85.5625 L 6823.7812 83.125 L 6826.625 80.46875 C 6828.1934 79.01521 6830.742 77.073668 6832.3125 76.15625 C 6834.8591 74.668562 6835.1119 74.077547 6834.6562 70.625 C 6833.9242 65.077867 6832.7948 64.355897 6828.7188 66.875 C 6823.423 70.147962 6822.9413 69.79155 6823.3125 62.625 C 6823.4944 59.115175 6823.0807 54.052675 6822.375 51.375 C 6820.6015 44.646002 6820.71 42.520126 6823 38.03125 C 6826.6088 30.957363 6828.5789 31.631056 6831.5625 40.96875 C 6832.6209 44.281046 6834.039 47 6834.6875 47 C 6835.7075 47 6839 38.001493 6839 35.21875 C 6839 34.678767 6839.6645 32.956504 6840.4688 31.40625 C 6842.1344 28.195813 6841.7376 27.132281 6839.5625 28.9375 C 6837.2398 30.865169 6835.7371 29.201927 6836.4375 25.46875 C 6837.0846 22.019528 6835.4381 19.673151 6834 22 C 6832.9235 23.74185 6831.04 22.340481 6829.4688 18.625 L 6828.1562 15.5 L 6827.1562 18.09375 C 6825.877 21.433771 6818.4545 25.599013 6817.625 23.4375 C 6817.3211 22.645415 6816.3735 22 6815.5312 22 C 6813.8255 22 6813.4407 24.536283 6815 25.5 C 6816.3102 26.309767 6816.2826 29.611499 6814.9375 32.125 C 6814.1184 33.655445 6813.5581 33.883539 6812.5312 33.03125 C 6810.791 31.586991 6809.2586 33.664783 6810.875 35.28125 C 6812.375 36.781234 6812.2941 41.220451 6810.7188 43.375 C 6809.6659 44.814842 6808.9361 44.929293 6806.6562 44.0625 C 6804.2578 43.150611 6803.5485 43.357738 6801.375 45.53125 C 6799.5223 47.383977 6798.9572 48.870579 6799.1875 51.25 C 6799.5791 55.296518 6802.1752 55.990901 6806.0938 53.09375 C 6809.6375 50.47382 6810.6496 50.480748 6812.0312 53.0625 C 6813.5139 55.832908 6814.3346 68.15568 6813.1562 69.875 C 6812.3868 70.997643 6811.077 70.628627 6806.125 67.90625 L 6800.0625 64.5625 L 6797.0312 67.46875 C 6795.3654 69.064834 6794 71.089051 6794 71.96875 C 6794 72.84845 6796.25 75.259434 6799 77.3125 C 6801.75 79.365565 6804 81.4935 6804 82.03125 C 6804 82.569 6802.425 84.744255 6800.5 86.875 C 6798.575 89.005745 6797 91.442386 6797 92.28125 C 6797 93.120113 6798.6195 95.204069 6800.5938 96.9375 C 6804.5959 100.45138 6806.4086 99.983324 6807.4688 95.15625 C 6807.795 93.67085 6809.0872 91.169592 6810.3438 89.59375 C 6812.3068 87.131953 6812.9384 86.874173 6814.75 87.84375 C 6815.9097 88.464395 6817.5814 89.706273 6818.4688 90.59375 C 6819.9535 92.078542 6819.9043 92.481534 6818.0312 95.65625 C 6816.9117 97.553813 6816 99.543938 6816 100.0625 C 6816 101.74591 6820.6478 101.04027 6823.2812 98.96875 L 6825.6875 97.125 L 6830 88.125 z M 6826.9062 23.03125 C 6829.4147 22.726152 6831.7858 24.300217 6833.8125 27.90625 C 6835.9887 31.778362 6836.9138 41 6835.125 41 C 6834.6484 41 6833.3148 38.725452 6832.1562 35.9375 C 6830.2903 31.447837 6829.7354 30.904956 6827.375 31.1875 C 6823.507 31.650503 6818.6089 40.53246 6819.0312 46.3125 C 6819.1992 48.611213 6819.3623 55.5625 6819.4062 61.75 C 6819.4951 74.267955 6819.5301 74.300703 6826 71 C 6831.0135 68.44231 6832.0005 68.48384 6831.9688 71.25 C 6831.951 72.803677 6830.4666 74.5058 6827.1562 76.75 C 6824.5195 78.5375 6821.8666 80 6821.25 80 C 6818.5509 80 6819.2272 82.213545 6822.9688 85.59375 C 6825.1901 87.600649 6827 89.833959 6827 90.5625 C 6827 93.524063 6824.6941 92.893195 6819.625 88.5625 C 6816.685 86.050815 6813.8641 84 6813.3438 84 C 6811.8037 84 6806 90.47197 6806 92.1875 C 6806 94.972183 6803.425 96.299951 6801.5938 94.46875 C 6799.2709 92.145833 6799.4983 91.583899 6804.75 86.5 L 6809.5 81.90625 L 6805.5938 78.71875 C 6796.2406 71.060497 6796.6409 71.55171 6797.9062 69.1875 C 6798.5497 67.985299 6799.4008 67 6799.8125 67 C 6800.2242 67 6803.0248 68.593205 6806.0312 70.53125 C 6809.0378 72.469295 6812.175 73.908059 6813 73.75 C 6813.825 73.591942 6815.0871 71.692487 6815.8125 69.5 C 6817.2933 65.024366 6816.1726 56.500729 6813.2812 50.4375 C 6811.7746 47.277932 6811.8179 46.776221 6814.4375 39.59375 C 6818.199 29.280359 6822.7255 23.539746 6826.9062 23.03125 z M 6804.9688 46 C 6807.7682 46 6808.4386 47.851294 6806.4375 50.0625 C 6804.5651 52.131411 6801 52.706709 6801 50.9375 C 6801 48.677914 6803.1479 46 6804.9688 46 z M 6823.2188 93.84375 C 6823.6794 93.820119 6824 94.099631 6824 94.8125 C 6824 95.266627 6822.875 96.708255 6821.5 98 C 6819.7886 99.607783 6819.0095 99.912532 6819.0312 98.9375 C 6819.0799 96.758759 6821.8367 93.914644 6823.2188 93.84375 z "/>
</svg>
