<svg xmlns="http://www.w3.org/2000/svg"
     width="26.9" height="64.0"
     viewBox="946.4806 17.0000 38.2981 90.9650">
  <path d="M 963.125,21 C 962.64173,21 961.66238,22.356673 960.96875,24.03125 959.4559,27.683606 960.14889,41.115887 962.0625,45.28125 964.30275,50.15762 964.98015,46.751243 963.46875,38.09375 962.40621,32.007383 962.27559,28.70155 963,26.09375 964.229,21.66942 964.2399,21 963.125,21 z M 971.09375,21.4375 C 970.76348,21.508854 970.32569,21.830567 969.75,22.40625 966.06194,26.094316 964.76816,38.719279 967.53125,44.0625 969.35038,47.5803 970.60398,47.740565 973.6875,44.84375 974.95828,43.649915 976.27988,42.936135 976.625,43.28125 977.84857,44.504825 976.01715,47.01557 972.78125,48.5625 970.30182,49.747793 968.584,51.945268 965.75,57.5625 961.43679,66.111648 961.3221,66.93902 963.875,72.4375 966.66309,78.442518 968,85.031001 968,92.875 968,96.711465 968.2599,100.53627 968.59375,101.40625 968.92759,102.27624 969.76229,103 970.4375,103 973.28094,103 970.1149,78.2573 966.34375,71.03125 964.78324,68.041091 964.54881,62 966,62 966.55445,62 967.74268,60.205134 968.625,58 969.64683,55.446195 971.69445,52.995708 974.28125,51.25 979.03268,48.043486 980.77875,44.016753 979.0625,40.25 L 977.90625,37.6875 974.53125,40.96875 C 972.67969,42.763348 970.69127,43.93179 970.09375,43.5625 968.46416,42.55536 968.7892,30.775346 970.5625,26.53125 971.96852,23.166169 972.08456,21.223439 971.09375,21.4375 z M 955.71875,23.375 C 955.56317,23.253411 955.32468,23.299335 955,23.5 954.45723,23.835452 953.31252,26.552531 952.4375,29.5625 950.48064,36.293842 951.6946,43.659149 955.53125,48.21875 958.50623,51.754305 958.23435,55.147094 954.25,64.21875 L 951.75,69.96875 953.8125,75.71875 C 956.61485,83.572404 958.36284,94.233822 957.5625,98.5 957.19908,100.4372 957.15118,102.45491 957.46875,102.96875 958.08449,103.96504 966.53454,103.80921 967.5625,102.78125 968.5412,101.80254 963.97279,99.788429 961.96875,100.3125 960.69978,100.64434 960.30949,100.32882 960.6875,99.34375 961.52887,97.15116 959.07567,82.201614 956.75,75.3125 L 954.6875,69.125 957.375,63.0625 C 960.83189,55.359527 961.15585,49.869735 958.3125,46.78125 955.22281,43.425189 953.37736,34.01939 954.84375,29.125 955.90762,25.574112 956.1855,23.739767 955.71875,23.375 z"/>
</svg>
