<svg xmlns="http://www.w3.org/2000/svg"
     width="43.0" height="64.0"
     viewBox="1916.7009 19.6512 34.2991 51.0676">
  <path d="M 1923.6562,57.9375 1924.7812,59.96875 C 1927.0666,57.693444 1930.2874,51.016652 1931.625,45.09375 1933.6626,36.070852 1932.9384,35.037254 1926.5938,37.84375 1920.9259,40.350897 1920.7009,41.395275 1926,40.5 1929.6335,39.886117 1930,40.020193 1930,41.96875 1930,46.066199 1927.8405,52.674389 1925.5625,55.53125 L 1923.6562,57.9375 z M 1927.5312,64.90625 1928.5312,66.71875 C 1931.1622,63.872166 1934.0523,58.451567 1936.5625,51 1938.866,44.162015 1939.5224,43.348108 1941.4375,44.9375 1942.2673,45.626188 1943.431,46.012584 1944.0312,45.8125 1944.6315,45.612416 1943.7043,44.408137 1941.9688,43.125 1938.123,40.281692 1937.4013,40.851901 1934.8438,48.6875 1932.2287,56.699143 1929.7068,62.155898 1927.5312,64.90625 z M 1938.7812,24.4375 C 1936.3036,23.651156 1923,29.711307 1923,31.625 1923,32.388718 1925.5423,31.608479 1929.75,29.5625 1937.519,25.784836 1939.6617,26.10302 1943.0938,31.65625 1945.2579,35.157959 1947,35.997474 1947,33.53125 1947,31.510367 1941.3381,25.24903 1938.7812,24.4375 z M 1934.75,30.40625 C 1933.8443,30.44338 1932.4913,30.990659 1929.8438,32.09375 1926.8974,33.321317 1923.8367,34.918231 1923.0312,35.65625 1921.7707,36.811478 1921.9173,37 1924.0625,37 1925.433,37 1927.4464,36.375915 1928.5312,35.625 1932.8632,32.6266 1934.7691,32.734899 1939.2188,36.1875 1941.5662,38.008907 1943.6605,39.8375 1943.8438,40.25 1944.4225,41.551892 1946,41.074153 1946,39.59375 1946,38.813608 1944.3792,37.156886 1942.4062,35.9375 1940.4333,34.718113 1938.0244,32.847308 1937.0312,31.78125 1936.1388,30.823291 1935.6557,30.36912 1934.75,30.40625 z"/>
</svg>
