<svg xmlns="http://www.w3.org/2000/svg"
     width="42.0" height="64.0"
     viewBox="5960.9143 11.6830 61.2524 93.3586">
  <path d="M5996.1854 100.26C5993.5942 99.3341 5993.047 95.343069 5994.6469 89.038832C5996.0659 83.447237 5996.057 82.73588 5994.5385 80.418415C5992.342 77.066131 5990.2039 76.367568 5988.218 78.353416C5986.8397 79.731757 5986.7751 80.489218 5987.7956 83.311159C5990.1154 89.726584 5988.4414 99.0 5984.9635 99.0C5984.4558 99.0 5982.2486 95.344308 5980.0586 90.876241C5975.5931 81.765984 5975.6038 81.671014 5982.1054 72.695807C5983.6974 70.498071 5985.0 68.269697 5985.0 67.743866C5985.0 65.896844 5978.8133 59.0 5977.1565 59.0C5974.5736 59.0 5972.9725 62.488927 5972.3126 69.554886C5971.6711 76.424727 5970.5048 77.455694 5966.6658 74.546394C5965.0918 73.35355 5964.9143 72.2038 5965.4144 66.440338C5966.1579 57.872236 5967.5347 52.796142 5969.9115 49.860965C5971.6384 47.728327 5972.1207 47.627082 5975.6484 48.656534C5977.7668 49.274696 5980.9453 50.372034 5982.7118 51.095064C5986.5725 52.675244 5987.022 52.313449 5988.0606 46.789641C5989.2414 40.509481 5988.3447 37.837292 5985.1259 38.043609C5979.5729 38.399546 5977.8242 37.913351 5975.4523 35.353977C5971.7632 31.373394 5972.0359 25.167606 5976.1036 20.534796C5980.3635 15.683047 5984.0619 15.725593 5988.7346 20.680101C5991.6148 23.733922 5992.4857 24.16191 5993.8527 23.195017C5996.8564 21.070376 6002.2095 19.0 6004.699 19.0C6006.1016 19.0 6008.4597 20.305862 6010.2002 22.046391C6012.7997 24.645901 6013.1619 25.614915 6012.669 28.652162C6011.4789 35.986067 6006.4421 40.560766 6001.2097 39.060134C5999.4592 38.558101 5997.7947 38.52314 5997.5108 38.982445C5996.8658 40.026102 5996.5761 50.909393 5997.1773 51.510613C5997.4203 51.753674 5999.9856 51.053385 6002.8779 49.954415C6009.3278 47.503612 6012.593 48.607267 6015.1863 54.114738C6018.1667 60.444287 6018.0492 70.950829 6014.9635 74.036475C6012.569 76.431011 6010.8886 75.806601 6011.3658 72.699613C6011.7138 70.433671 6009.3667 62.196865 6007.9184 60.601347C6006.4326 58.964514 5999.1083 64.81516 5999.0318 67.69992C5999.0143 68.359876 6000.5738 71.509876 6002.4974 74.69992C6006.5247 81.378634 6006.7342 83.331201 6004.056 89.223249C6002.9869 91.575462 6001.8566 94.724511 6001.5442 96.221135C6000.9424 99.105078 5998.3729 101.04166 5996.1854 100.26Z M6000.8056 91.0C6001.8865 87.975 6003.0571 84.812677 6003.407 83.972616C6003.7828 83.070397 6002.3723 79.674958 5999.961 75.676985L5995.8789 68.908738L5997.6894 65.204369C5999.8807 60.721062 6006.0845 56.937499 6008.6233 58.536058C6009.5283 59.10589 6011.0167 61.485007 6011.9308 63.822986C6012.8449 66.160964 6013.9094 67.757238 6014.2964 67.370261C6016.5825 65.084118 6012.7951 52.626085 6009.4202 51.331021C6008.5051 50.979849 6005.6737 51.438933 6003.1282 52.351209C6000.5827 53.263485 5997.4875 54.007666 5996.25 54.004946C5994.1768 54.000389 5994.0009 53.548102 5994.011 48.25C5994.0291 38.817046 5994.9586 35.0 5997.2378 35.0C5998.7277 35.0 5999.0367 34.569338 5998.4935 33.25C5996.8943 29.365346 5996.9664 28.312442 5999.0095 25.715065C6001.6359 22.376098 6004.2135 23.311745 6005.9346 28.228891C6006.9523 31.13631 6006.8405 31.694569 6004.929 33.25C6003.7462 34.2125 6002.1267 35.0 6001.3302 35.0C6000.5337 35.0 6000.1601 35.45 6000.5 36.0C6001.5181 37.647264 6005.5707 37.131858 6007.3878 35.124028C6008.3215 34.092244 6009.3518 31.607063 6009.6773 29.601405C6011.0266 21.286365 6002.1266 19.421168 5994.2473 26.367691L5991.9946 28.353695L5988.5255 24.300861C5983.8829 18.877009 5981.4898 18.35633 5977.8648 21.981344C5974.4772 25.368979 5974.1004 29.667467 5976.8892 33.111504C5978.4752 35.070127 5979.5923 35.409163 5983.8496 35.223927L5988.9207 35.003279L5990.1191 39.003248C5991.0528 42.11952 5991.0495 44.200884 5990.1043 48.424331C5988.3869 56.098475 5987.4955 56.520637 5980.4261 53.007648C5977.1668 51.387963 5973.9479 50.048644 5973.2731 50.031383C5970.8545 49.969522 5968.8517 54.921779 5968.2896 62.353311C5967.6727 70.51117 5968.4072 74.551374 5970.0385 71.971975C5970.5505 71.162389 5970.9979 68.925 5971.0327 67.0C5971.1295 61.650396 5974.0013 56.558685 5977.1265 56.195826C5979.1574 55.960016 5980.4164 56.746641 5982.7284 59.695826C5987.9872 66.403992 5988.2371 67.368064 5985.6963 71.142995C5984.4536 72.989348 5982.4259 76.148539 5981.1904 78.163421L5978.9439 81.826842L5981.5979 87.432274C5983.0577 90.515262 5984.5938 93.248978 5985.0116 93.507198C5986.4572 94.400616 5986.6623 89.268276 5985.3758 84.394121C5984.0969 79.54916 5984.1138 79.472377 5987.0578 76.75C5991.38 72.753053 5993.2468 73.200217 5996.3963 78.986839L5999.1105 83.973677L5997.4067 89.37863C5995.7633 94.592237 5996.0863 99.346636 5997.9529 97.417217C5998.441 96.912748 5999.7246 94.025 6000.8056 91.0Z M5980.75 31.933339C5977.2676 29.878307 5979.6479 22.400372 5983.5454 23.150975C5986.0282 23.629121 5987.812 28.48813 5986.3544 30.802769C5985.0381 32.893023 5983.0544 33.293206 5980.75 31.933339Z M5985.0 28.666667C5985.0 27.933333 5984.7039 27.037238 5984.342 26.675343C5983.4377 25.771011 5980.8895 28.012157 5981.57 29.113307C5982.4221 30.492047 5985.0 30.156366 5985.0 28.666667Z M6004.0 29.5C6004.0 27.666667 6003.4667 27.0 6002.0 27.0C6000.0489 27.0 5999.1746 29.841294 6000.6667 31.333333C6002.1847 32.851407 6004.0 31.853015 6004.0 29.5Z"/>
</svg>
