<svg xmlns="http://www.w3.org/2000/svg"
     width="64.0" height="51.3"
     viewBox="5403.0000 16.0000 114.9067 92.1570">
  <path d="M5444.9097 100.29024C5443.3512 96.231415 5444.4971 91.209212 5447.9669 86.891617L5451.0066 83.109094L5448.5842 76.435422C5445.6838 68.445108 5444.8738 67.461983 5442.3178 68.829931C5439.9139 70.116455 5438.5924 72.753777 5435.9691 81.5C5434.8144 85.35 5433.4489 89.533674 5432.9348 90.797053C5432.4207 92.060432 5432.0 94.142832 5432.0 95.424608C5432.0 96.706385 5431.3819 98.268079 5430.6265 98.895041C5428.2937 100.83104 5425.9019 95.742558 5425.2801 87.520913C5424.2968 74.518434 5429.8125 58.579047 5436.5415 54.977793C5438.6335 53.858207 5439.9316 53.834343 5443.7138 54.84594C5449.2391 56.323744 5449.9853 55.628085 5449.3162 49.622599C5448.5978 43.174213 5446.1255 38.294629 5442.8999 36.958548C5438.848 35.280204 5435.8024 36.36945 5431.6282 40.98975C5428.7817 44.140558 5428.0 45.834747 5428.0 48.853658C5428.0 53.589367 5426.5087 58.024444 5422.792 64.342009C5418.324 71.936567 5415.6749 83.032457 5416.2373 91.796172C5416.6129 97.648048 5416.4096 99.289324 5415.2545 99.732595C5414.4535 100.03996 5413.5061 99.888362 5413.1491 99.395717C5412.7921 98.903073 5411.8394 98.5 5411.032 98.5C5408.8567 98.5 5407.1629 91.627288 5407.0887 82.5C5407.0196 73.984532 5408.3857 67.590787 5412.0031 59.5C5416.821 48.724404 5416.7924 41.93566 5411.9173 39.137775C5408.4876 37.169351 5407.0 34.132484 5407.0 29.09897C5407.0 24.775709 5410.6023 20.0 5413.8634 20.0C5415.9634 20.0 5420.4529 24.700985 5421.4983 27.994604C5422.334 30.627568 5423.9478 30.524646 5428.3168 27.559756C5430.2946 26.217622 5434.2599 23.996178 5437.1287 22.623215C5442.0779 20.254644 5442.5022 20.20809 5445.4224 21.713354C5447.1151 22.585894 5450.4566 25.280863 5452.8481 27.702175L5457.1962 32.104559L5462.5382 27.05228C5469.8264 20.159449 5472.5952 20.167934 5480.5253 27.107402C5485.8027 31.725527 5486.7202 32.166739 5490.1025 31.713075C5492.2706 31.422268 5495.8284 29.695552 5498.5654 27.605673C5505.0002 22.69237 5509.3742 22.619846 5511.6483 27.388751C5513.9067 32.124642 5512.7493 37.1648 5508.2632 42.130459L5504.6394 46.141589L5506.3987 55.31921C5509.4305 71.134833 5509.5607 76.836676 5507.0557 84.097565C5504.1013 92.661165 5502.0048 96.056793 5497.9961 98.770982C5493.1897 102.02524 5492.4827 100.45254 5494.9809 92.063985C5496.2441 87.822579 5497.2868 81.031412 5497.5293 75.467378C5497.8911 67.163025 5497.5885 64.909238 5494.9698 56.401881C5493.3364 51.095559 5492.0 45.909368 5492.0 44.877011C5492.0 43.535184 5491.278 43.0 5489.4679 43.0C5486.2367 43.0 5480.1157 40.453351 5477.5136 38.026402C5476.4061 36.993423 5474.2781 35.845035 5472.7847 35.474429C5470.5381 34.916912 5469.5455 35.374123 5467.0347 38.12316C5464.2805 41.138652 5464.0 42.072064 5464.0 48.222861C5464.0 55.403437 5463.9457 55.336315 5469.5181 55.044681C5474.1815 54.800617 5479.0663 58.750311 5482.4885 65.532093C5485.2119 70.929102 5485.5 72.415888 5485.5 81.074276C5485.5 89.996391 5485.2927 90.984073 5482.4572 95.574276C5477.8604 103.01579 5476.5227 102.2268 5476.3972 92.0C5476.3086 84.786776 5475.8544 82.599484 5473.3964 77.551501C5471.8034 74.279826 5469.986 71.445998 5469.3578 71.254104C5468.1826 70.89511 5464.0 81.859874 5464.0 85.299816C5464.0 86.351126 5465.125 88.548275 5466.5 90.182369C5469.2719 93.476543 5469.5223 95.203308 5467.9022 99.850777C5466.401 104.15699 5464.6927 103.80571 5461.3418 98.501788C5457.7695 92.847254 5455.0532 92.559883 5451.9922 97.51265C5450.7982 99.444607 5448.9572 101.48772 5447.9012 102.05289C5446.2833 102.91873 5445.8125 102.64128 5444.9097 100.29024Z M5454.3624 90.817064C5456.846 89.427161 5460.6852 91.662128 5463.2754 96.005812C5465.0994 99.064522 5465.891 99.726496 5466.3364 98.565688C5467.1389 96.474391 5466.2373 94.232424 5462.8339 89.856096C5459.4284 85.477218 5459.4286 84.599211 5462.837 75.0C5465.9339 66.278108 5467.898 65.19652 5472.2986 69.789754C5476.3766 74.046308 5479.0744 82.262006 5479.0993 90.5C5479.1183 96.797765 5479.2635 97.307013 5480.5475 95.576267C5484.1567 90.71103 5483.69 75.266431 5479.6958 67.3898C5475.7886 59.684739 5474.1193 58.620728 5466.9574 59.270147C5461.0873 59.802429 5460.8479 59.731293 5459.8575 57.160502C5458.5294 53.713217 5459.593 45.718106 5462.0098 40.980716C5463.9861 37.10699 5469.2863 31.998852 5471.3267 32.001554C5472.6674 32.00333 5477.6082 34.629711 5481.3723 37.341586C5482.8608 38.41392 5486.4698 39.413605 5490.0122 39.734827L5496.096 40.286481L5495.453 43.214164C5495.0289 45.144716 5495.7143 48.981935 5497.4652 54.48066C5499.8678 62.026132 5500.0811 63.945938 5499.7071 74.659737C5499.4798 81.171882 5498.8348 88.430986 5498.2737 90.791079C5496.8148 96.927766 5498.7859 95.841054 5502.5 88.461057C5505.2535 82.989764 5505.4954 81.678395 5505.444 72.5C5505.4133 67.0 5504.8702 60.925 5504.2371 59.0C5503.6041 57.075 5502.7911 52.752653 5502.4303 49.394784C5501.8855 44.323344 5502.0636 43.053394 5503.4824 41.894784C5509.1531 37.263941 5510.0 36.010152 5510.0 32.245455C5510.0 25.765887 5506.2048 24.024239 5501.9513 28.551867C5499.3271 31.345163 5491.8769 35.0 5488.8071 35.0C5486.0581 35.0 5483.1357 33.296205 5478.2723 28.858052C5471.8091 22.959869 5469.4711 23.218168 5461.8766 30.669426C5457.3247 35.13552 5456.0327 35.930787 5455.0957 34.84337C5446.3037 24.64056 5444.3462 23.400601 5439.537 24.987788C5437.5905 25.630181 5433.7593 27.695726 5431.0231 29.577888C5428.2869 31.460049 5425.0603 33.0 5423.8528 33.0C5421.43 33.0 5418.0 30.362787 5418.0 28.5C5418.0 26.584119 5414.2121 23.704635 5412.5372 24.347334C5410.0871 25.287542 5410.4987 32.608601 5413.1227 34.759787C5420.754 41.016144 5421.3943 44.352388 5417.0779 55.36568C5410.2883 72.689268 5408.3358 84.927737 5411.0978 92.850777C5412.9493 98.161958 5414.0533 96.422823 5413.3862 89.245695C5412.5875 80.65234 5414.4976 72.908173 5420.1585 61.788649C5423.659 54.912712 5424.3963 52.46583 5424.4844 47.432328C5424.585 41.682619 5424.7978 41.179255 5428.5453 37.826645C5430.7204 35.880739 5433.5599 33.7325 5434.8553 33.05278C5438.4008 31.192385 5443.5439 32.610571 5447.4625 36.529194C5451.298 40.36469 5452.9861 45.16855 5452.9944 52.271439C5453.0013 58.152762 5450.6172 59.816664 5444.5743 58.148117C5437.9745 56.325825 5433.8653 60.11103 5430.0455 71.531337C5428.032 77.551342 5427.4534 88.819964 5428.8924 93.989919C5429.8651 97.484838 5430.7978 95.467737 5431.955 87.366349C5433.2791 78.096254 5435.7393 71.065991 5438.8196 67.75C5442.0332 64.290575 5446.1764 64.094056 5448.2779 67.30138C5450.1904 70.220228 5452.7913 77.84252 5453.5996 82.897525C5454.132 86.226785 5453.9292 86.88769 5452.2079 87.434022C5449.7944 88.200044 5446.9983 93.689965 5447.0043 97.651129C5447.0085 100.426 5447.0849 100.38499 5449.9459 96.072428C5451.5614 93.637263 5453.5489 91.272349 5454.3624 90.817064Z"/>
</svg>
