<svg xmlns="http://www.w3.org/2000/svg"
     width="46.2" height="64.0"
     viewBox="7092.8032 11.4631 66.5708 92.2832">
  <path d="M7133.6667 98.333333C7132.4835 97.15017 7132.9573 91.983185 7134.5274 88.946952C7135.9569 86.182739 7135.912 85.799934 7133.8276 82.980686C7128.8919 76.304811 7124.5451 75.855556 7122.096 81.768193C7121.1411 84.073651 7121.2087 85.170745 7122.4527 87.55641C7123.2969 89.175384 7123.9905 91.6475 7123.9938 93.05C7124.0066 98.331755 7119.1075 99.746348 7116.3747 95.25C7115.4554 93.7375 7113.42 90.626435 7111.8516 88.336522C7110.2832 86.04661 7109.0 83.720544 7109.0 83.167488C7109.0 82.614432 7111.246 79.537997 7113.9911 76.330966C7116.7362 73.123935 7118.9862 69.796691 7118.9911 68.937091C7119.0016 67.091126 7114.153 62.25601 7112.0 61.965462C7107.6427 61.377439 7104.5393 64.355978 7102.6105 70.977186C7101.263 75.602884 7098.7423 77.376722 7097.6311 74.481172C7096.8032 72.323677 7099.7573 58.105784 7101.6407 55.183136C7106.1354 48.208269 7108.3695 47.933157 7117.75 53.199403L7123.0 56.146781L7123.0 48.740057C7123.0 44.666359 7122.7498 41.083175 7122.4441 40.777426C7122.1383 40.471677 7120.3559 40.6918 7118.483 41.266588C7111.5786 43.385607 7105.5818 39.360152 7104.3519 31.780837C7103.5444 26.805001 7104.5147 23.530893 7107.6617 20.612845C7113.2155 15.46314 7121.1959 16.634889 7126.3196 23.352316C7127.8498 25.358542 7129.5057 27.0 7129.9994 27.0C7130.493 27.0 7132.1576 25.828726 7133.6985 24.397169C7136.8256 21.491823 7143.172 18.0 7145.3253 18.0C7147.8156 18.0 7151.9512 22.034712 7152.8211 25.312913C7153.9297 29.49087 7151.6523 36.341766 7148.2705 39.001861C7146.3354 40.524045 7144.2141 41.0 7139.3651 41.0L7133.0 41.0L7133.0 47.440983C7133.0 50.983524 7133.4543 54.162767 7134.0097 54.505968C7134.565 54.849169 7136.1611 54.23184 7137.5566 53.134126C7143.8282 48.200897 7149.8336 49.587394 7152.9966 56.698857C7155.374 62.043827 7155.1217 67.579839 7152.2239 73.656576C7150.1324 78.042684 7148.6369 77.435391 7147.9477 71.920046C7147.4062 67.586734 7144.5945 61.0 7143.2862 61.0C7142.9219 61.0 7141.1365 62.0125 7139.3187 63.25C7134.7355 66.370153 7134.9906 69.314733 7140.4734 76.575742C7142.9337 79.834084 7144.9587 83.326882 7144.9734 84.337515C7145.0185 87.449717 7138.0133 99.0 7136.0806 99.0C7135.1196 99.0 7134.0333 98.7 7133.6667 98.333333Z M7139.9792 91.25C7144.1865 84.550074 7144.154 84.395808 7136.3824 74.168289C7132.5565 69.133307 7132.8616 66.206671 7137.6511 62.001485C7142.2718 57.944424 7144.445 58.160643 7147.4875 62.980128C7148.8694 65.169199 7150.0 67.419199 7150.0 67.980128C7150.0 68.541058 7150.5057 69.0 7151.1238 69.0C7152.8563 69.0 7151.6819 58.967256 7149.5728 55.75C7147.217 52.156468 7142.8952 52.107636 7137.8307 55.617328C7135.7535 57.056859 7133.4026 57.984745 7132.6066 57.679296C7130.4878 56.866206 7129.347 46.503543 7131.1338 44.300479C7132.0699 43.146397 7132.1065 42.85252 7131.25 43.367059C7129.565 44.379365 7129.6309 41.887043 7131.3513 39.534229C7132.4812 37.989018 7133.5536 37.786986 7137.896 38.301282C7144.0887 39.034714 7147.5847 37.703755 7149.575 33.854975C7151.2904 30.537762 7151.3544 28.871827 7149.8897 25.657325C7147.2565 19.877909 7141.2061 20.553061 7133.6396 27.470659C7131.5164 29.411797 7129.4652 31.0 7129.0814 31.0C7128.6976 31.0 7127.0598 29.210834 7125.4418 27.024075C7121.771 22.062871 7116.9523 19.59876 7112.5401 20.426506C7107.4033 21.390166 7105.6531 24.038232 7106.2243 29.982403C7107.0328 38.396732 7112.3012 41.731454 7119.4218 38.335904C7124.6712 35.832641 7125.25 37.239307 7125.25 52.5C7125.25 59.227693 7123.6046 60.302008 7118.7989 56.711978C7114.941 53.82993 7108.9069 51.701277 7106.9026 52.515318C7103.4173 53.930889 7098.8699 65.23306 7099.0789 71.960099C7099.1423 73.99852 7099.4567 73.655637 7100.6711 70.223464C7102.6835 64.536444 7107.9587 59.0 7111.3652 59.0C7114.8497 59.0 7122.0 65.423299 7122.0 68.553551C7122.0 69.919146 7120.1571 72.855287 7117.5226 75.687189C7111.8989 81.732202 7111.2568 83.563183 7113.7886 86.335076C7114.8762 87.525784 7116.5052 89.9625 7117.4087 91.75C7118.3122 93.5375 7119.5039 95.0 7120.0571 95.0C7121.9128 95.0 7122.1584 92.207054 7120.5724 89.139917C7119.7076 87.467589 7119.0086 85.064473 7119.0192 83.79966C7119.0423 81.033009 7124.9254 74.0 7127.2167 74.0C7129.5474 74.0 7134.2831 78.253581 7136.4667 82.308255C7138.2323 85.586741 7138.2432 85.96774 7136.6671 89.28913C7133.0369 96.939145 7135.4933 98.393433 7139.9792 91.25Z M7111.9502 31.906859C7110.3849 28.982084 7111.4953 25.550977 7114.4417 24.208526C7116.4424 23.296943 7117.2339 23.376782 7118.4722 24.615063C7121.4654 27.608214 7121.9879 29.572299 7120.3957 31.845394C7118.3798 34.723513 7113.4767 34.759198 7111.9502 31.906859Z M7118.5 29.069638C7118.5 26.127279 7117.0475 25.513541 7114.4973 27.378309C7112.8415 28.589082 7112.7651 29.012093 7113.9458 30.434676C7115.876 32.760491 7118.5 31.97401 7118.5 29.069638Z M7138.3848 35.234687C7136.1557 33.766222 7135.8246 30.111223 7137.6887 27.550743C7139.9045 24.507192 7141.9371 24.361143 7144.8114 27.038955C7147.5973 29.634414 7147.5699 31.116022 7144.6855 33.825686C7142.2974 36.069279 7140.3221 36.510984 7138.3848 35.234687Z M7143.5817 31.909681C7145.4384 29.858067 7145.4374 29.793012 7143.5272 28.396203C7141.2839 26.755875 7140.0562 26.963798 7138.6294 29.225697C7137.9128 30.361792 7138.001 31.29623 7138.9304 32.416177C7140.6506 34.488882 7141.3129 34.416769 7143.5817 31.909681Z"/>
</svg>
