<svg xmlns="http://www.w3.org/2000/svg"
     width="64.0" height="61.2"
     viewBox="3513.9490 13.0533 93.0510 88.9130">
  <path d="M 3582.7188,18.21875 C 3582.3195,18.403059 3581.7542,18.814469 3581.0312,19.46875 3577.6354,22.541913 3577.3955,27.38229 3580.375,33.125 3581.8157,35.90187 3583.0054,38.932008 3583,39.84375 3582.9841,42.544273 3578.0816,52.282526 3575.25,55.25 3571.9475,58.711144 3570.4931,58.711144 3568.3438,55.25 3563.7989,47.930903 3561.6743,46.882919 3556.6562,49.5 3555.0865,50.318693 3553.3436,50.691274 3552.7812,50.34375 3551.5019,49.553126 3552.3277,39.95755 3554.1562,34.5 3555.4268,30.708316 3555.7458,30.462362 3560.3125,29.9375 3566.4989,29.226485 3568.4236,26.524481 3565.9688,21.9375 3564.7215,19.606825 3560.2271,19.358808 3557.4375,21.46875 3554.7556,23.497268 3552.6295,23.353062 3550.5,21 3548.0423,18.284268 3546.528,18.47388 3542.0625,22.0625 L 3538.25,25.125 3534.9062,22.0625 C 3529.4219,17.053304 3524,18.503236 3524,24.96875 3524,27.356338 3527.7034,29.165758 3532.625,29.1875 3536.3687,29.204038 3537.3166,30.834424 3539.4688,41.15625 3541.4454,50.636006 3540.6937,51.766662 3534.9688,47.96875 3528.5636,43.719556 3527.0076,44.040605 3523.1875,50.34375 3519.1059,57.078348 3517.949,64.733206 3520.4375,68.53125 3521.8102,70.626251 3522.407,70.89648 3523.5625,69.9375 3524.3507,69.283348 3525,67.283483 3525,65.5 3525,62.219791 3528.2293,57 3530.25,57 3532.3884,57 3540,65.980502 3540,68.5 3540,69.852787 3538.875,73.940712 3537.5,77.59375 3534.3535,85.953139 3534.3747,87.030045 3537.75,90.25 3543.3276,95.570941 3549.1251,96.276208 3556.2188,92.5 3561.0566,89.924567 3563.5747,89.38143 3564.1562,90.8125 3564.3395,91.263683 3566.2786,92.838683 3568.4688,94.3125 3573.8986,97.966288 3577.1777,97.78239 3581.75,93.53125 3584.2403,91.215892 3584.9697,90.049288 3583.9062,90.03125 3583.029,90.016368 3581.4955,90.9 3580.5,92 3577.7111,95.08172 3573.3698,94.541649 3568.4375,90.5 3566.0883,88.575 3563.5761,86.997698 3562.8438,87 3562.1113,87.002302 3559.2994,88.127302 3556.5938,89.5 3549.6764,93.009426 3545.2193,92.803142 3540.6875,88.75 L 3537.0625,85.5 3538.5938,81.5 C 3539.4373,79.3 3540.7911,75.157264 3541.5938,72.28125 3543.0084,67.212221 3542.9781,66.933282 3540.5938,63.15625 3537.5228,58.291635 3533.4308,55 3530.4375,55 3527.9311,55 3524.3119,58.923237 3523.375,62.65625 3522.5131,66.090196 3521.0059,65.509027 3521.0312,61.75 3521.0561,58.067009 3523.8726,51.283629 3526.4375,48.71875 3528.3666,46.789642 3530.215,47.415856 3535.3125,51.65625 3543.0481,58.091156 3544.8199,52.119633 3540.4062,34.3125 L 3538.8438,28.09375 3542.1875,25.09375 C 3546.3042,21.350195 3546.967,21.320557 3550.3125,24.8125 L 3553,27.59375 3551.1562,36.34375 C 3549.4179,44.524827 3549.4957,51.83942 3551.375,53.71875 3551.7268,54.07052 3553.5945,53.611073 3555.5312,52.6875 3561.0251,50.067632 3562.2261,50.503902 3565.8125,56.5 3567.6219,59.525 3569.421,62 3569.8125,62 3570.204,62 3572.2452,60.832296 3574.3438,59.40625 3578.6902,56.452698 3584.483,45.636254 3585.5625,38.4375 3585.9274,36.003879 3586.8638,33.890565 3587.7188,33.5625 3588.9264,33.099098 3588.9758,32.675743 3588,31.5 3586.7619,30.008176 3587.0054,24.009915 3588.4375,20.75 3588.907,19.681479 3588.7927,19 3588.125,19 3586.411,19 3583.8102,26.164871 3584.2188,29.78125 3584.6574,33.665306 3583.0826,33.578123 3581.1562,29.625 3579.9902,27.232163 3580.1074,26.385778 3581.9062,22.75 3583.6579,19.209443 3583.9165,17.665822 3582.7188,18.21875 z M 3592.125,19.125 C 3589.7758,18.653309 3588.3981,24.937542 3590.5312,29.0625 3592.0544,32.007998 3592.4846,32.202842 3596.0938,31.71875 3598.2456,31.430137 3600.0084,31.483586 3600,31.84375 3599.9648,33.349501 3598.3115,34.755637 3595.5625,35.65625 3592.3678,36.702922 3592.3514,36.760621 3588.3438,45.5 3583.5968,55.851379 3574.4578,68 3571.4375,68 3570.806,68 3568.191,65.723154 3565.625,62.9375 3560.2869,57.142476 3556.5212,56.488032 3554.4062,61 3550.3499,69.653634 3548.6438,72.944675 3546.4688,76.5 3543.7741,80.904588 3543.3518,83.976759 3545.1875,85.8125 3546.8976,87.522577 3549.0085,87.298283 3553,85 3560.9086,80.446285 3560.6277,80.472491 3564.9062,83.4375 3569.3439,86.512807 3572.7339,86.384214 3576.9062,82.9375 3580.063,80.329741 3578.7216,79.151049 3575.0625,81.3125 3571.2996,83.535349 3568.8277,83.445516 3565.7188,81 3562.38,78.373783 3559.9654,78.477091 3554,81.5 3551.2866,82.875 3548.3404,84 3547.4375,84 3544.9741,84 3546.3642,79.730257 3550.9375,73.34375 3553.0449,70.400865 3555.056,66.46015 3555.4062,64.59375 3555.7563,62.72735 3556.7213,60.935842 3557.5312,60.625 3559.1205,60.015148 3561.9919,60.795459 3562,61.84375 3562.0167,64.011779 3567.005,68.213384 3570.5,69 3574.4267,69.883792 3574.5736,69.826898 3579.2812,64.8125 3582.2519,61.648371 3586.0652,55.665178 3589.3125,49.09375 3593.345,40.933046 3595.0505,38.431563 3596.75,38.1875 3598.7435,37.901203 3603,33.731446 3603,32.0625 3603,31.691794 3602.3634,30.521398 3601.5938,29.46875 3600.343,27.75821 3599.9187,27.709933 3597.625,28.9375 3595.5404,30.05315 3594.7774,30.065405 3593.5312,29.03125 3591.7695,27.569072 3591.477,22.43669 3593.0938,21.4375 3593.8186,20.989577 3593.8541,20.447916 3593.1875,19.78125 3592.8195,19.413276 3592.4606,19.192384 3592.125,19.125 z M 3527.6562,21.59375 C 3529.6506,20.828415 3534.2627,23.659393 3533.7188,25.3125 3532.8216,28.038481 3526,26.492237 3526,23.5625 3526,22.823673 3526.7538,21.940071 3527.6562,21.59375 z M 3561.7188,22.4375 C 3562.3659,22.402256 3562.927,22.520689 3563.25,22.84375 3563.762,23.355767 3564.0385,24.635329 3563.8438,25.65625 3563.2697,28.666283 3557,28.43744 3557,25.40625 3557,24.044336 3559.7774,22.543232 3561.7188,22.4375 z M 3545.5938,29.53125 C 3544.8053,30.251683 3544.8063,36.711895 3545.6562,44.84375 3546.0096,48.22443 3546.7269,51 3547.2812,51 3548.5747,51 3547.3466,30.971614 3545.9688,29.59375 3545.8248,29.449796 3545.7064,29.428331 3545.5938,29.53125 z M 3581.75,84.03125 C 3580.4128,84.066839 3576,87.423967 3576,88.40625 3576,89.319946 3576.8677,89.120837 3580.0625,87.46875 3583.0657,85.915719 3584.0156,83.97095 3581.75,84.03125 z"/>
</svg>
