<svg xmlns="http://www.w3.org/2000/svg"
     width="42.3" height="64.0"
     viewBox="2380.6718 19.7285 57.8805 87.5285">
  <path d="M 2428.125,25 C 2427.5003,25 2427.0034,26.2375 2427,27.75 2426.9967,29.2625 2426.3217,31.799631 2425.5,33.375 2424.6784,34.950369 2424,36.412869 2424,36.625 2424,37.523953 2425.841,36.902203 2426.875,35.65625 2428.525,33.66821 2429.5398,25 2428.125,25 z M 2431.8125,25.125 C 2431.4297,25.582208 2431.265,26.889699 2431.5625,28.75 2432.0689,31.91669 2431.6925,33.08978 2429.1562,36.28125 2426.847,39.187175 2426.1562,41.0943 2426.1562,44.46875 2426.1562,49.686622 2423.7225,55.299752 2420.25,58.03125 2416.9876,60.597488 2415.6574,60.516178 2411.2188,57.5 2409.1952,56.125 2406.966,55 2406.2812,55 2404.5091,55 2402.1085,59.031598 2399.375,66.5625 2396.8368,73.555218 2396.4282,78.334594 2398,82.46875 2399.4095,86.175946 2401.5845,86.605081 2406.625,84.15625 2412.4887,81.307438 2414.5931,81.426633 2417.8125,84.875 2418.5666,85.682699 2419.2858,86.299285 2420,86.84375 L 2420.25,84.03125 C 2419.7165,83.543098 2419.1841,83.106912 2418.625,82.40625 2416.0033,79.120515 2415.4527,78.876143 2412.125,79.5 2410.1254,79.874876 2407.3262,80.893092 2405.875,81.75 2404.4154,82.611861 2402.4393,82.997443 2401.4688,82.625 2399.9487,82.041738 2399.7811,81.028897 2400.2812,75.0625 2400.8331,68.478908 2403.8353,59.825908 2406.0312,58.46875 2406.6008,58.116749 2408.6553,58.762604 2410.5938,59.90625 2415.3057,62.686414 2417.9471,62.541025 2421.7188,59.25 2425.9384,55.567946 2428.9932,49.407877 2429.0312,44.5 2429.0505,42.027188 2430.0138,38.963691 2431.5312,36.5 2433.9913,32.505984 2434.5523,29.580246 2433.4062,26.59375 2432.8232,25.074474 2432.1953,24.667792 2431.8125,25.125 z M 2418.8125,99.5625 2419.1875,95.65625 C 2418.3259,95.080442 2417.4867,94.406276 2415.75,92.59375 2413.288,90.024321 2410.4434,88 2409.2812,88 2408.139,88 2405.2699,89.582606 2402.9375,91.53125 2396.1401,97.21033 2394.9316,97.64824 2392.8125,95.03125 2390.8446,92.601012 2390.5755,90.67688 2390.9062,81.5 2391.1644,74.34179 2393.9238,65.331782 2398.625,56.3125 2401.705,50.403368 2401.9329,49.500666 2400.6875,47.625 2399.923,46.473573 2397.4887,45.093146 2395.2812,44.53125 2389.0902,42.955438 2387.7136,41.317897 2388.2812,36.28125 2389.1968,28.158655 2393.7974,26.505725 2398.6562,32.5625 L 2401.5312,36.125 2403.9062,34.0625 C 2405.2188,32.924191 2406.4222,32 2406.5625,32 2406.7028,32 2406.1155,34.199579 2405.25,36.90625 2403.8587,41.256893 2403.8421,42.285443 2405.125,45.65625 2406.4284,49.080842 2411.7673,54 2414.1875,54 2414.6812,54 2416.1812,52.88125 2417.5312,51.53125 2420.6181,48.444267 2420.9607,42.580087 2418.125,41.0625 2417.0898,40.508428 2415.9515,39.307248 2415.5938,38.375 2414.8325,36.391069 2416.4198,34.25953 2417.4375,35.90625 2419.7668,39.674979 2425.2446,33.796441 2424.25,28.59375 2423.5318,24.836441 2422,25.409935 2422,29.4375 2422,33.177844 2420.4855,34.891773 2418.7188,33.125 2417.1006,31.506856 2414.2964,31.76246 2413.5938,33.59375 2412.3987,36.708229 2413.0492,39.439115 2415.5625,42.0625 2417.5582,44.145574 2417.9709,45.312218 2417.4375,47.4375 2416.5944,50.796443 2414.5984,51.658209 2411.5,50 2407.2586,47.730071 2406.4404,43.833352 2408.5,35.5625 2410.5244,27.432965 2410.1168,24.323939 2407.2188,25.875 2406.2263,26.406133 2404.7899,28.019915 2404.0312,29.4375 2402.3205,32.634031 2401.3012,32.669674 2398.9062,29.625 2394.268,23.728456 2387.9521,26.318945 2386.125,34.875 2384.6718,41.680092 2386.1455,44.067196 2393.25,46.375 2396.7575,47.514355 2399,48.800502 2399,49.6875 2399,50.487261 2397.8249,53.110378 2396.4062,55.53125 2391.8718,63.268553 2389.1064,72.557666 2388.5312,81.8125 2387.4786,98.75241 2392.4935,103.25691 2402.6875,94.53125 2407.5635,90.357583 2411.6111,89.855626 2412.9375,93.25 2413.4211,94.4875 2414.7633,96.5125 2415.9375,97.75 2416.926,98.791705 2417.8279,99.303265 2418.8125,99.5625 z"/>
</svg>
