<svg xmlns="http://www.w3.org/2000/svg"
     width="64.0" height="46.1"
     viewBox="4595.0000 72.5190 41.0000 29.5206">
  <path d="M 4624.6562,78.53125 4621.5,81.28125 C 4621.6124,81.579288 4621.6006,82.006847 4621.8125,82.21875 4622.7152,83.121479 4623.2672,83.107833 4624.1875,82.1875 4625.3662,81.008806 4630,80.488285 4630,81.53125 4630,83.825327 4626.5894,89.158125 4623.0938,92.3125 L 4618.875,96.125 4615.9062,94.25 C 4612.5017,92.094348 4604.9996,85.144049 4605,84.15625 4605.0001,83.790133 4607.0181,83.459157 4609.5,83.40625 4613.4203,83.322682 4614.8326,82.886608 4614.7188,81.46875 L 4610.5,79 4610.4688,78.96875 C 4611.0014,80.603043 4610.7776,81.003005 4608.875,81 4607.5734,80.997944 4605.0195,80.097944 4603.2188,79 4599.1748,76.534384 4599,76.51897 4599,78.96875 4599,81.964038 4606.1992,90.882804 4611.6562,94.625 4614.3184,96.450575 4617.4576,97.949306 4618.625,97.96875 4622.8788,98.039598 4632,85.720015 4632,79.90625 4632,77.946398 4631.6295,77.794623 4628,78.375 4626.161,78.669077 4625.1185,78.653688 4624.6562,78.53125 z"/>
</svg>
