<svg xmlns="http://www.w3.org/2000/svg"
     width="29.3" height="64.0"
     viewBox="494.5000 17.9690 39.5061 86.1814">
  <path d="M 499.15625 84.53125 L 499 86 L 498.5 98.5 L 498.5 98.5625 C 498.84149 98.406521 499.18104 98.247879 499.59375 98.40625 C 503.3413 99.844322 508.87759 100.1504 510.96875 99.03125 C 514.26119 97.26919 517.18552 89.674399 518.5 79.5 C 519.13951 74.55 520.08713 70.567111 520.59375 70.65625 C 521.10036 70.745388 523.13412 71.128863 525.125 71.5 C 528.48857 72.127029 528.78082 71.960156 529.4375 69.34375 C 530.00613 67.078152 529.68445 66.203075 527.8125 64.8125 C 520.90874 59.684064 519.97775 58.613189 518.9375 54.75 C 518.1705 51.901553 518.09926 48.571052 518.75 44.0625 C 520.3733 32.815795 518.44597 22.07909 514.78125 22 C 513.34555 21.969015 508.96082 27.595688 507.75 31 C 506.13562 35.53897 506.18122 59.639336 507.8125 67 C 509.23391 73.413738 509.56808 82.202875 508.5625 86.78125 C 508.04012 89.159653 507.30825 90 505.75 90 C 503.39205 90 499.63566 86.767362 499.15625 84.53125 z M 515.125 25.5 C 516.5608 26.148259 516.90016 30.995581 516.71875 42.65625 C 516.48678 57.566274 516.52133 57.638635 519.21875 61.1875 C 520.70962 63.148969 523.07212 65.055719 524.46875 65.40625 C 525.86537 65.756782 527 66.750854 527 67.625 C 527 68.839865 526.37511 69.064497 524.375 68.5625 C 522.93583 68.201293 520.46083 67.629667 518.875 67.3125 L 516 66.75 L 516 75.21875 C 516 84.815498 514.15426 92.134392 510.875 95.625 C 508.32022 98.344441 506.81906 98.4859 502.25 96.5 C 500.1009 95.565912 499 94.416946 499 93.0625 C 499 90.763576 499.7496 90.566614 503.4375 91.96875 C 506.88447 93.279288 508.57386 92.463539 510.125 88.71875 C 511.95576 84.298908 511.78727 75.324649 509.65625 62.5 C 506.93971 46.151579 508.55963 30.100775 513.3125 26.15625 C 514.05246 25.542132 514.6464 25.283914 515.125 25.5 z "/>
</svg>
