<svg xmlns="http://www.w3.org/2000/svg"
     width="31.1" height="64.0"
     viewBox="2096.0000 19.5000 40.0970 82.5034">
  <path d="M 2101.4688 79.875 L 2100.9688 84.3125 C 2101.5174 84.392113 2102.2572 84.850348 2103.7188 86 C 2106.3108 88.038931 2109.6292 88.570387 2111.625 87.25 C 2112.2357 86.845922 2113.559 84.925 2114.5938 83 C 2116.1645 80.077906 2116.5557 76.797339 2116.8438 63.1875 L 2117.1875 46.90625 L 2114.3438 47.1875 C 2112.0788 47.428189 2111.4871 47.096747 2111.4688 45.5 C 2111.4383 42.852589 2114.4942 31.836607 2116.0625 28.90625 C 2117.28 26.631286 2117.3054 26.608665 2118.6875 28.53125 C 2121.6503 32.652664 2127.0616 42.41162 2127.625 44.65625 C 2128.1437 46.723043 2127.8613 47 2125.25 47 L 2122.2812 47 L 2121.7188 59.75 C 2121.0974 73.620348 2118.1404 87.541971 2114.8125 92.25 C 2112.7207 95.209421 2111.0161 95.510401 2106.8438 93.65625 C 2103.7698 92.290227 2101.4991 90.320269 2100.5312 88.34375 L 2100 93 L 2100.0938 93.625 C 2100.7526 93.460331 2103.032 94.188025 2105.5 95.4375 C 2110.5684 98.003446 2112.1975 97.883276 2115.7812 94.65625 C 2119.8769 90.968357 2123.6717 73.693541 2124.2812 56 C 2124.4915 49.894095 2124.6516 49.470635 2127 49.15625 C 2130.5227 48.684668 2131.3668 47.55804 2130.0312 45.0625 C 2129.1214 43.36263 2129.2337 41.844204 2130.5312 37.9375 C 2132.097 33.223594 2131.8531 24.993076 2130.1562 25 C 2129.792 25.001486 2128.6 26.663609 2127.5 28.6875 C 2126.4 30.711391 2125.05 32.514612 2124.5 32.6875 C 2123.95 32.860389 2122.375 30.860766 2121 28.25 C 2119.625 25.639235 2118.05 23.5 2117.5 23.5 C 2116.95 23.5 2115.8035 24.85 2114.9688 26.5 C 2112.0938 32.183323 2111.9234 32.3178 2110.3438 30.0625 C 2106.5503 24.646504 2104.3583 30.740985 2107.625 37.625 C 2108.6766 39.841224 2109.0595 42.459764 2108.7188 45 C 2108.1215 49.452996 2109.4691 51.201699 2112.75 50.34375 C 2114.619 49.854979 2114.9102 50.281177 2115.1875 53.65625 C 2115.7293 60.250009 2113.9764 79.091515 2112.5 82.625 C 2110.8307 86.620207 2107.6948 87.127625 2103.7188 84 C 2102.3952 82.958917 2101.7693 82.145157 2101.4688 79.875 z M 2108.25 31.03125 C 2108.4415 31.002255 2108.8129 31.487778 2109.5312 32.4375 C 2110.3388 33.505121 2111 35.192621 2111 36.1875 C 2111 37.182378 2110.5849 38 2110.0938 38 C 2108.9604 38 2107.99 35.462347 2108.0312 32.65625 C 2108.0468 31.595425 2108.0585 31.060245 2108.25 31.03125 z M 2128.625 31.28125 C 2128.986 31.150587 2129.2198 31.445023 2129.4688 32.09375 C 2129.8003 32.957814 2129.6213 34.842654 2129.0625 36.3125 C 2127.8667 39.457499 2127.4077 39.615528 2126.125 37.21875 C 2125.4318 35.923499 2125.682 34.757577 2127.0312 32.96875 C 2127.7979 31.9524 2128.264 31.411913 2128.625 31.28125 z "/>
</svg>
