<svg xmlns="http://www.w3.org/2000/svg"
     width="52.3" height="64.0"
     viewBox="5675.1233 53.9150 40.8384 50.0005">
  <path d="M 5707.5938,58.0625 C 5705.9944,57.914957 5704.1526,59.21284 5702.1562,61.96875 5700.5788,64.14635 5698.7509,67.40885 5698.0938,69.21875 5696.2303,74.350365 5691.874,82.870801 5689.7812,85.53125 5688.7372,86.858483 5686.1213,88.480101 5683.9688,89.125 5679.1457,90.570046 5679.6338,92.111592 5684.5625,91 5690.6074,89.636647 5694.261,84.852565 5699.5,71.5 5702.5291,63.779931 5705.4583,59.868101 5707.5938,60.6875 5708.3602,60.981615 5709.0003,62.390094 5709,63.84375 5708.9994,67.029604 5705.3814,76.892652 5703.4062,79.09375 5701.5642,81.146544 5701.6179,85.139172 5703.5312,89.71875 5704.3735,91.734508 5704.8375,93.970924 5704.5625,94.6875 5703.7362,96.840907 5701.0285,96.168695 5699.8125,93.5 5698.3093,90.200718 5696.2909,90.348889 5691.1562,94.125 5687.7025,96.664875 5686.244,97.142928 5683.4375,96.6875 5680.2018,96.162423 5679.1233,96.810892 5680.6562,98.34375 5682.228,99.915435 5688.7216,98.876396 5692.2188,96.5 5694.2423,95.125 5696.1695,94 5696.5,94 5696.8306,94 5698.1206,95.197968 5699.375,96.65625 5701.1869,98.762689 5702.2023,99.154626 5704.3125,98.625 5707.8884,97.727505 5708.6444,94.228025 5706.4688,88.53125 L 5704.7188,83.96875 5708.4375,74.5625 C 5711.0196,68.037458 5711.9617,64.418665 5711.4688,62.8125 5710.5401,59.786766 5709.1931,58.210043 5707.5938,58.0625 z"/>
</svg>
