<svg xmlns="http://www.w3.org/2000/svg"
     width="44.3" height="64.0"
     viewBox="6568.3438 15.4809 61.1809 88.4577">
  <path d="M 6572.3438 83.78125 L 6573.125 86.65625 C 6573.8103 86.542883 6574.0002 86.902756 6573.8125 88.21875 C 6573.7937 88.350804 6573.69 88.435763 6573.6562 88.5625 L 6575 93.46875 C 6575.0048 93.472087 6574.9951 93.496607 6575 93.5 C 6575.7026 93.990044 6576.5463 94.857403 6577.25 96.09375 C 6579.4383 99.938605 6580.9568 99.499089 6582.6875 94.5 C 6583.43 92.355381 6584.8867 89.655674 6585.9062 88.53125 C 6586.9259 87.406826 6587.9175 85.934107 6588.125 85.25 C 6588.3862 84.388813 6590.6306 85.080989 6595.4375 87.5 C 6599.2559 89.421607 6603.3378 91 6604.5 91 C 6605.6622 91 6608.1682 92.159095 6610.0625 93.59375 C 6611.9569 95.028404 6615.3 97.058295 6617.5 98.09375 C 6619.7 99.129205 6622.1813 99.857676 6623 99.71875 C 6625.5247 99.290319 6625.3046 96.083277 6622.5 92.40625 C 6619.4546 88.413538 6617.7368 79.371813 6619.125 74.53125 C 6620.1817 70.846871 6620.1796 71 6619.0938 71 C 6618.6031 71 6615.8849 73.090599 6613.0312 75.65625 C 6608.4275 79.795449 6607.5252 80.238001 6605.1562 79.40625 C 6601.1719 78.007349 6596.0102 67.158055 6596 60.1875 C 6595.9923 54.870619 6598.6617 47.285212 6601.75 43.78125 C 6603.1652 42.175535 6603.5645 42.340382 6607.875 46.15625 C 6612.8659 50.574481 6618.5785 53.765287 6619.625 52.71875 C 6619.9828 52.360949 6619.7235 50.035123 6619.0312 47.5625 C 6617.7559 43.007793 6618.0745 26.842012 6619.5312 22.25 C 6620.1637 20.256574 6619.8882 20 6617.2188 20 C 6613.9972 20 6609.5063 24.18644 6606.5 30 C 6605.6506 31.642576 6604.1672 32.997944 6603.2188 33 C 6602.2704 33.002056 6600.0195 33.902056 6598.2188 35 C 6596.418 36.097944 6594.524 37 6594 37 C 6592.0146 37 6589.8869 31.971886 6589.5625 26.53125 C 6589.1945 20.359749 6588.7732 19.480929 6586.6875 20.28125 C 6584.2876 21.202208 6581.8084 28.005755 6581.3438 34.875 C 6580.9648 40.477279 6581.2465 42.179059 6583.2812 46 C 6585.526 50.215386 6585.6148 50.776484 6584.3125 54.5 C 6583.5457 56.692675 6582.6175 61.425 6582.2812 65 C 6581.8449 69.639952 6581.1678 71.863125 6579.875 72.78125 C 6578.8789 73.488649 6577.5315 75.871418 6576.875 78.0625 C 6576.1338 80.536386 6574.3229 82.373339 6572.3438 83.78125 z M 6615.6562 23.03125 C 6616.5166 22.933959 6616.9643 23.484023 6616.5625 24.75 C 6616.2544 25.720864 6615.9382 31.345864 6615.8438 37.25 C 6615.7493 43.154136 6615.4428 48 6615.1562 48 C 6614.8697 48 6612.484 46.2 6609.875 44 C 6607.2659 41.8 6604.743 40 6604.25 40 C 6603.7571 40 6602.4151 41.0125 6601.2812 42.25 C 6594.1109 50.076049 6592.4242 63.264128 6597.3125 73.21875 C 6600.0316 78.755795 6604.3314 83 6607.2188 83 C 6607.9885 83 6610.1342 81.425 6612 79.5 C 6613.8658 77.575 6615.7454 76 6616.1875 76 C 6616.6296 76 6617 78.484339 6617 81.53125 C 6617 85.097647 6617.7125 88.476202 6619 91 C 6620.1 93.156178 6621 95.171839 6621 95.46875 C 6621 97.092255 6613.0657 92.751504 6611.6875 90.375 C 6611.2477 89.616555 6609.6424 89 6608.0938 89 C 6606.5449 89 6602.1614 87.459357 6598.375 85.5625 C 6592.2209 82.479517 6591.1552 81.486699 6588.25 76.1875 C 6583.5305 67.57904 6583.7643 61.167757 6589.1875 49.1875 C 6591.6725 43.697937 6599.7788 36 6603.0938 36 C 6605.4499 36 6606.3327 35.258816 6608.0938 31.75 C 6609.267 29.4125 6611.1475 26.4875 6612.2812 25.25 C 6613.5287 23.888395 6614.7959 23.128541 6615.6562 23.03125 z M 6586.0312 24.6875 C 6586.7418 24.326017 6586.9555 25.254918 6587.4375 28.46875 C 6587.821 31.026363 6589.0485 34.65364 6590.1562 36.53125 L 6592.1562 39.9375 L 6590.0312 42.96875 C 6588.8471 44.63171 6587.6935 46 6587.4688 46 C 6587.2439 46 6586.2563 44.771843 6585.2812 43.28125 C 6582.8881 39.623297 6582.7807 27.781797 6585.125 25.4375 C 6585.4979 25.064589 6585.7944 24.807994 6586.0312 24.6875 z M 6582.1875 75.09375 C 6583.242 75.291497 6584.4035 76.512796 6585.8125 78.71875 C 6587.7195 81.704454 6587.9373 82.73761 6587 84.4375 C 6586.372 85.57638 6584.3564 88.22523 6582.5 90.34375 L 6579.125 94.21875 L 6577.5312 90.46875 C 6576.2572 87.419564 6576.1904 86.021894 6577.125 83.09375 C 6578.9733 77.303361 6580.4299 74.764172 6582.1875 75.09375 z "/>
</svg>
