<svg xmlns="http://www.w3.org/2000/svg"
     width="34.1" height="64.0"
     viewBox="2592.7500 20.3116 44.2514 82.9685">
  <path d="M 2601.2188 85.84375 L 2596.75 93 C 2597.9916 93.723896 2599.2285 94.382332 2600.4062 95.21875 C 2606.1254 99.280091 2612.0878 99.112902 2616.4375 94.75 C 2619.9537 91.223125 2624 81.715264 2624 76.96875 C 2624 73.6267 2624.2 73.502336 2627.0625 75.25 C 2628.8046 76.313637 2629.338 76.214226 2630.5625 74.5625 C 2633.0014 71.272791 2632.2916 67.675024 2628.5 64 C 2623.7965 59.441187 2621.6345 53.471315 2622.4062 47.3125 C 2624.2362 32.710511 2624.2492 30.026392 2622.5938 27.5 C 2620.5608 24.397396 2618.0099 24.311587 2615.25 27.25 C 2610.8453 31.939541 2610.411 43.411678 2614.0938 58.875 C 2616.8916 70.622286 2616.0194 79.469067 2611.5625 84.625 C 2608.6534 87.990296 2608.0832 88.230785 2604.6875 87.59375 C 2602.4965 87.182714 2601.5814 86.76846 2601.2188 85.84375 z M 2619.4375 28.3125 C 2621.3132 28.537329 2622.0828 31.147995 2621.5938 35.9375 C 2619.4561 56.872771 2619.4511 56.775259 2626.6562 65.59375 C 2628.5001 67.850395 2630 70.182855 2630 70.78125 C 2630 72.782112 2628.0845 73.111511 2625.625 71.5 C 2622.6831 69.572391 2622.3605 69.984761 2621.125 77.65625 C 2619.9113 85.192607 2617.8209 90.272805 2614.5938 93.5 C 2611.4323 96.66148 2607.3846 96.736776 2602.9062 93.71875 C 2598.5662 90.794013 2599.2979 89.409823 2605 89.8125 C 2612.6737 90.354412 2616.6948 84.758843 2617.625 72.25 C 2618.0738 66.215199 2617.7377 62.713462 2616.0938 56.34375 C 2612.9564 44.187576 2613.5159 30.856685 2617.2188 28.875 C 2618.0866 28.410514 2618.8123 28.237557 2619.4375 28.3125 z "/>
</svg>
