<svg xmlns="http://www.w3.org/2000/svg"
     width="30.2" height="64.0"
     viewBox="2564.3773 17.5173 40.8415 86.4941">
  <path d="M 2601.2188 85.84375 C 2601.0793 85.488092 2601 85.071462 2601 84.53125 C 2601 78.477037 2596.8897 77.028103 2592.6562 81.59375 C 2589.8908 84.576189 2589.3974 84.136004 2587.9062 77.3125 C 2585.5954 66.738084 2585.8857 52.302029 2588.5938 43.125 C 2589.1236 41.329227 2588.9581 40.836872 2587.9062 41.1875 C 2584.3562 42.370865 2582.8211 65.464671 2585.5312 77 C 2586.3712 80.575 2587.3342 84.533234 2587.6562 85.78125 C 2588.3342 88.408352 2583.8319 96 2581.5938 96 C 2580.8278 96 2578.2874 93.738031 2575.9688 90.96875 L 2571.75 85.9375 L 2573.3438 81.71875 C 2577.8256 69.748461 2577.8727 56.619557 2573.5 43.59375 C 2570.6579 35.127132 2570.5882 35.512897 2575.9688 29 L 2578.0312 26.5 L 2581.5 30.5 C 2583.4065 32.7 2584.9918 34.8375 2585 35.25 C 2585.0249 36.506417 2587 36.074196 2587 34.8125 C 2587 34.165251 2585.3601 31.240251 2583.3438 28.3125 C 2579.3818 22.560028 2576.5372 21.51727 2575.0625 25.25 C 2574.5735 26.4875 2573.0163 29.043146 2571.5938 30.9375 C 2568.3773 35.221078 2568.3824 36.319201 2571.625 44.71875 C 2575.4025 54.504196 2575.3711 68.261351 2571.5625 79.25 L 2568.875 87 L 2574.0312 92.96875 C 2576.8758 96.239151 2579.7162 99.092692 2580.3438 99.3125 C 2582.3389 100.0114 2583.5786 99.041023 2586.4688 94.46875 C 2588.0192 92.015873 2589.6494 90 2590.0938 90 C 2591.1695 90 2593.9058 91.34176 2596.75 93 L 2601.2188 85.84375 z M 2596.1875 82 C 2598.5903 82 2599.4455 84.263842 2598.0312 86.90625 C 2596.8443 89.12429 2593.558 89.719361 2592.4375 87.90625 C 2591.4023 86.231354 2594.086 82 2596.1875 82 z "/>
</svg>
