<svg xmlns="http://www.w3.org/2000/svg"
     width="37.4" height="64.0"
     viewBox="4778.3438 17.6820 47.8115 81.9181">
  <path d="M 4804.4062,27 C 4807.1251,27 4807.9098,29.862956 4808.9688,43.9375 4809.9606,57.119625 4810.2978,58.769527 4813.0938,63.65625 4814.772,66.589645 4816.5529,69 4817.0625,69 4818.3438,69 4818.2431,72.724354 4816.9375,73.53125 4816.3528,73.892588 4815.0795,73.454639 4814.0938,72.5625 4811.4064,70.130464 4809,71.578401 4809,75.625 4809,79.298647 4805.8293,85.045023 4801.6562,88.90625 4799.0784,91.291338 4791.8639,92.57177 4787.75,91.375 4785.1253,90.611459 4785.6416,89.099181 4788.75,88.46875 4798.749,86.440781 4800.4387,85.529956 4802.6562,80.875 4804.6543,76.68054 4804.7584,75.52152 4803.9688,65.65625 4803.4991,59.787709 4802.8335,54.539519 4802.5,54 4802.1666,53.460482 4801.6641,48.111775 4801.375,42.09375 4800.8413,30.983361 4801.6368,27 4804.4062,27 z M 4792.6562,84.28125 4785,88.5 4782.3438,89.65625 C 4783.5574,91.619194 4785.0842,93.509894 4786,94 4788.9898,95.600105 4796.2162,95.167393 4800,93.15625 4804.2026,90.922536 4809.8784,83.795926 4810.6875,79.75 4811.3652,76.361546 4813.3592,75.22326 4815.5,77 4817.4648,78.630642 4819.1576,77.218166 4820.875,72.46875 4822.1553,68.927977 4822.1105,68.726676 4819.1562,66.15625 4813.6266,61.345111 4812.128,56.87402 4811.1562,41.9375 4810.4972,31.805345 4809.8457,27.693478 4808.5312,25.6875 4805.9068,21.682048 4803.2481,22.228479 4800.9688,27.25 4798.5768,32.519713 4798.4204,43.92947 4800.4688,62.15625 4802.3336,78.750728 4801.3054,82.878341 4794.9688,84.46875 4793.8245,84.755918 4793.1812,84.815678 4792.6562,84.28125 z"/>
</svg>
