<svg xmlns="http://www.w3.org/2000/svg"
     width="64.0" height="58.1"
     viewBox="3208.0191 14.0000 95.9809 87.1105">
  <path d="M 3274.4062,18 C 3267.9341,18 3265.4207,22.641585 3267.8438,30.21875 3269.3577,34.952809 3269.3555,35.25989 3267.5312,36.59375 3264.8685,38.540837 3262.2308,38.360366 3261.5312,36.15625 3261.207,35.134758 3257.8469,31.309758 3254.0625,27.65625 3247.1475,20.980351 3245.8683,20.411092 3239,21 3236.6902,21.198046 3231.036,25.036454 3226.6875,29.34375 3221.4107,34.570512 3219.4434,46.92874 3222.5312,55.5 3223.3239,57.7 3223.9918,60.488893 3224,61.6875 3224.0138,63.68323 3219.014,71.872414 3214.0625,78 3212.9514,79.375 3212.0436,80.876411 3212.0312,81.34375 3212.0191,81.811089 3213.4625,84.583949 3215.25,87.5 3217.7586,91.592379 3218.5889,92.342541 3218.8438,90.8125 3219.0253,89.722259 3217.9462,87.100823 3216.4688,84.96875 3213.547,80.752489 3213.5032,81.005781 3218.7812,74.96875 3219.4816,74.167792 3221.7031,71.338288 3223.7188,68.6875 3227.3031,63.973657 3227.3584,63.776143 3226.125,59.6875 3220.8548,42.217958 3223.1785,33.301124 3234.9375,25.84375 3242.6635,20.944074 3246.2323,22.144629 3255.9062,33 3261.7888,39.600928 3262.5408,40.154363 3265.3438,39.59375 3267.0207,39.258358 3269.4153,38.31318 3270.6562,37.5 L 3272.9062,36 3270.9688,31.75 C 3267.7641,24.689804 3268.7235,20 3273.375,20 3275.5923,20 3280,23.701433 3280,25.5625 3280,26.224283 3280.675,27.315311 3281.5,28 3283.9881,30.064913 3283.2945,32 3280.0625,32 3275.9771,32 3275.6062,33.207988 3278.0938,38.5 3279.2798,41.023396 3279.9531,43.359414 3279.5938,43.71875 3279.2344,44.078087 3277.4321,43.852232 3275.5938,43.1875 3271.4586,41.692195 3269.3061,42.447262 3264.125,47.25 3257.6182,53.281727 3257.2447,61.335958 3263.2812,65.0625 3268.6384,68.369571 3270.8976,68.505768 3275.6562,65.90625 3279.4859,63.814233 3280.2282,62.717098 3279.9688,59.46875 3279.8858,58.429267 3283.4522,53 3284.2188,53 3285.2833,53 3285.2022,54.130129 3283.875,57.9375 3281.877,63.66897 3285.5919,64.50617 3291.25,59.625 3295.1852,56.230191 3294.6487,55.258307 3290.5625,58.375 3286.5596,61.42814 3284.4865,61.789006 3285.4688,59.25 3287.2314,54.693953 3287.2421,52.012264 3285.5,51.34375 3283.4049,50.539802 3280.2643,54.104993 3279.3438,58.3125 3278.667,61.4052 3273.3577,66 3270.4688,66 3269.4547,66 3267.1825,64.998392 3265.4062,63.78125 3259.8639,59.983579 3260.2748,52.432685 3266.2812,47.90625 3270.8774,44.442645 3271.9689,44.201028 3276.4688,45.53125 3283.2526,47.536584 3284.6441,45.758091 3281,39.78125 3278.0702,34.975844 3278.4088,34 3283,34 3287.77,34 3287.9713,33.061155 3284.3125,27.5625 3280.0147,21.103468 3276.8069,18 3274.4062,18 z M 3297.25,60 C 3296.7616,60 3295.3762,61.35 3294.1562,63 3292.9363,64.65 3291.2773,66 3290.4688,66 3289.6601,66 3289,66.430542 3289,66.96875 3289,68.610974 3293.2958,66.050071 3295.8125,62.90625 3297.0918,61.308107 3297.7384,60 3297.25,60 z M 3241.625,28.40625 C 3241.0773,28.494271 3240.4515,28.685364 3239.6875,28.9375 3233.2813,31.051722 3228.9844,38.066525 3228.3125,47.46875 3227.9644,52.339956 3228.2553,54.131153 3229.9062,56.75 3231.0332,58.5375 3232.7366,60 3233.6562,60 3235.5219,60 3246,52.252079 3246,50.875 3246,49.210155 3244.1773,50.009926 3240,53.5 3235.0741,57.615484 3232.8276,57.891736 3231.0625,54.59375 3230.0344,52.672703 3229.9942,50.806751 3230.9375,45.34375 3232.2924,37.49723 3233.8362,34.66518 3238.2188,32 3240.985,30.317725 3241.6271,30.288015 3244.0312,31.53125 3245.5184,32.300355 3248.8651,35.291619 3251.4688,38.1875 L 3256.2188,43.4375 3255.4062,49.46875 C 3254.2532,58.218866 3254.7026,62.775306 3257.0625,66.59375 L 3259.1562,69.96875 3254.9062,75 C 3252.4955,77.859098 3249.8614,80 3248.75,80 3246.2556,80 3239.8537,74.967631 3238.0312,71.5625 3236.6709,69.02069 3236.8105,68.744914 3243,62.5 3246.5096,58.958825 3249.0918,55.748144 3248.7188,55.375 3247.5888,54.245051 3235.0143,67.275154 3235,69.59375 3234.9817,72.574066 3245.1414,82 3248.375,82 3250.0537,82 3252.2861,80.497563 3255.125,77.46875 3260.1989,72.055238 3262.1544,72.848062 3259,79.03125 3256.9017,83.144338 3256.8398,84.590478 3258.5938,90.75 3259.0691,92.419692 3258.8247,93 3257.625,93 3255.1488,93 3251.7404,89.093931 3252.3125,86.90625 3252.6287,85.697294 3252.2976,85 3251.4062,85 3250.6328,85 3250,85.415874 3250,85.90625 3250,87.492881 3244.7686,88.149035 3241.8438,86.9375 3240.2695,86.285446 3236.9567,82.905412 3234.4375,79.375 3231.9338,75.866337 3229.3457,73 3228.6562,73 3227.9669,73 3225.8676,74.573049 3224,76.5 3220.792,79.809803 3220.6792,80.178503 3221.8125,83.3125 3222.4723,85.137097 3223,88.289049 3223,90.3125 3223,93.324835 3222.6376,94 3221,94 3219.9,94 3219,94.419959 3219,94.9375 3219,96.605988 3220.8938,97.110504 3222.9688,96 3224.5809,95.137205 3225,93.909402 3225,89.9375 3225,87.199389 3224.4375,84.064767 3223.75,82.9375 3222.6531,81.138929 3222.8556,80.558346 3225.4062,78.34375 L 3228.3125,75.8125 3230.875,79.15625 C 3232.278,80.991496 3235.0725,84.1875 3237.0938,86.25 3240.3721,89.595462 3241.311,90 3245.7812,90 3249.2323,90 3250.961,90.440413 3251.3438,91.4375 3252.2157,93.709741 3256.5296,95.320557 3261.3125,95.875 L 3259.5,85.5 3259.9375,85.1875 C 3259.5439,84.977999 3259,84.761683 3259,84.5625 3259,83.930403 3259.9,81.657586 3261,79.5 3262.1,77.342414 3263,75.063848 3263,74.4375 3263,72.802403 3279.9331,71.739935 3283.9062,73.125 3285.6198,73.722365 3288.0826,73.94153 3289.3438,73.625 3292.7924,72.759452 3300,67.195634 3300,65.40625 3300,64.287302 3299.1457,64.698014 3297.0625,66.78125 3292.6417,71.202049 3288.5596,72.584318 3284.4375,71.09375 3282.1814,70.277935 3278.3248,70.096677 3272.7812,70.53125 L 3264.5,71.1875 3260.7812,67.34375 C 3256.4787,62.883983 3255.7788,58.405101 3257.9375,48.875 3259.1217,43.646781 3259.0667,43.095927 3257.1562,40.875 3251.9687,34.844263 3250.246,33.128466 3246.7812,30.5625 3244.2718,28.704014 3243.2682,28.142187 3241.625,28.40625 z"/>
</svg>
