<svg xmlns="http://www.w3.org/2000/svg"
     width="48.8" height="64.0"
     viewBox="7519.5655 16.9787 66.6659 87.4610">
  <path d="M7537.4184 99.0846C7533.8615 97.554341 7529.9987 92.122488 7530.0146 88.673275C7530.0294 85.439462 7532.0109 78.866411 7534.3988 74.129727C7537.4019 68.172612 7536.8087 58.0 7533.4581 58.0C7532.7867 58.0 7530.8317 59.437739 7529.1136 61.194976C7525.1246 65.275049 7523.5655 64.079964 7524.5256 57.678042C7524.9822 54.633287 7526.3065 51.83362 7528.5055 49.264657C7531.4382 45.83844 7531.7454 44.920736 7531.2956 40.930137C7530.361 32.638087 7535.4358 21.0 7539.9863 21.0C7542.2994 21.0 7545.5523 25.784826 7546.4317 30.480769C7546.8417 32.670191 7547.1487 37.507691 7547.1138 41.230769C7547.079 44.953846 7547.4263 48.0 7547.8857 48.0C7548.3451 48.0 7550.3896 49.132435 7552.4292 50.516523C7554.4688 51.90061 7556.563 52.770079 7557.083 52.448674C7558.8275 51.370545 7562.0 44.109367 7562.0 41.194826C7562.0 39.579967 7561.1195 37.513174 7560.0 36.5C7557.7138 34.430984 7557.3055 28.618313 7559.1605 24.547053C7560.4498 21.717365 7562.6257 20.978712 7561.5085 23.75C7561.1204 24.7125 7560.5657 27.167769 7560.2757 29.206153C7559.8484 32.209357 7560.2465 33.504189 7562.3742 36.032879C7563.8184 37.749193 7565.0 39.737347 7565.0 40.450999C7565.0 44.416064 7558.9747 56.0 7556.9123 56.0C7556.521 56.0 7553.3431 54.259746 7549.8504 52.13277C7545.0533 49.211431 7543.5 47.710801 7543.5 45.997517C7543.5 44.69879 7542.3445 42.863839 7540.7962 41.703975C7537.1419 38.966462 7534.7469 40.76851 7535.1913 45.921142C7535.4547 48.974755 7535.1728 49.546504 7533.2705 49.816867C7530.8543 50.160258 7527.0 54.825334 7527.0 57.406313C7527.0 58.797569 7527.4824 58.745348 7530.7352 57.001943C7535.6776 54.352989 7536.8486 54.472009 7538.0957 57.75C7540.0894 62.991015 7539.343 70.095193 7536.0722 77.009176C7531.2272 87.25069 7532.3391 93.572436 7539.5126 96.569702C7543.2213 98.119323 7546.6636 97.441115 7552.911 93.929873L7556.8643 91.708003L7560.0089 94.354001C7563.5244 97.312141 7569.0 98.001102 7569.0 95.485302C7569.0 94.174433 7564.4962 90.681303 7561.5053 89.67239C7560.9582 89.487841 7561.7457 86.814383 7563.2553 83.731372C7564.7649 80.648362 7566.0 77.661695 7566.0 77.094334C7566.0 74.720989 7562.8241 77.564003 7560.0406 82.429118C7558.3957 85.304031 7555.8925 88.183581 7554.4779 88.828116C7551.3479 90.254257 7546.0298 90.342037 7542.5651 89.024751C7540.2185 88.132587 7540.0008 87.557528 7540.0098 82.274751C7540.0166 78.235717 7540.768 74.892162 7542.5098 71.150703C7543.9758 68.001519 7545.0 63.991442 7545.0 61.400703C7545.0 58.980317 7545.1683 57.0 7545.374 57.0C7545.5798 57.0 7547.7173 58.09918 7550.124 59.442623C7554.3704 61.812902 7560.5315 62.567113 7561.5947 60.846806C7561.8825 60.381063 7561.6673 60.0 7561.1165 60.0C7560.5657 60.0 7561.5516 57.781252 7563.3075 55.069449C7565.0634 52.357646 7567.251 48.784827 7568.1688 47.129852C7569.3503 44.999589 7571.0446 43.795801 7573.9704 43.007957C7576.6862 42.276686 7578.3882 41.141607 7578.9342 39.697555C7580.0501 36.746393 7579.2993 35.769444 7576.9015 37.052695C7573.4422 38.904054 7571.2804 37.355487 7570.553 32.505161C7569.9292 28.344859 7571.0688 24.00191 7572.7852 23.998637C7573.1783 23.997887 7573.35 26.401999 7573.1666 29.341109L7572.8332 34.684945L7577.1666 34.592472C7581.1996 34.506409 7581.5223 34.694797 7581.8223 37.310472C7582.2314 40.879109 7580.6107 42.809296 7575.2899 45.090075C7571.9788 46.509382 7570.4441 48.040628 7568.2757 52.088626C7564.8482 58.487074 7560.5077 63.7041 7557.9312 64.521823C7556.8612 64.861451 7554.5697 64.432979 7552.8392 63.569664C7548.7613 61.535358 7547.0 61.583355 7547.0 63.728788C7547.0 64.679621 7545.8462 68.477055 7544.436 72.167531C7542.855 76.304921 7541.9924 80.338705 7542.186 82.688743C7542.4864 86.335179 7542.6689 86.513821 7546.4047 86.819587C7552.633 87.329353 7554.7214 86.331584 7557.5583 81.490809C7561.8179 74.22227 7569.0379 70.273389 7568.9687 75.25C7568.9515 76.4875 7567.8359 79.749608 7566.4896 82.499128L7564.0417 87.498256L7568.5208 91.326934C7573.6865 95.742378 7574.1089 97.627894 7570.2604 99.091094C7566.7838 100.41289 7561.928 99.517795 7558.6692 96.954446L7556.1355 94.961454L7552.0142 97.109599C7547.3984 99.515482 7540.5682 100.4397 7537.4184 99.0846Z M7540.7396 39.75C7540.9745 40.4375 7542.0605 41.0 7543.1529 41.0C7546.0803 41.0 7545.1572 36.934521 7541.8039 35.058476C7539.2785 33.645645 7538.946 33.702068 7536.5539 35.949372C7532.8598 39.419785 7533.1394 41.143415 7537.1563 39.663136C7539.6261 38.752971 7540.4055 38.771863 7540.7396 39.75Z M7537.6562 32.853226C7539.5641 31.060889 7540.1979 30.919314 7541.4949 31.995727C7543.8794 33.974696 7544.4399 32.442775 7542.855 28.278573C7540.8357 22.973129 7538.6777 22.968582 7536.1141 28.264368C7532.8252 35.058269 7533.4212 36.83181 7537.6562 32.853226Z M7567.0422 38.026056C7564.9691 36.744847 7564.4887 26.959052 7566.3781 24.5C7567.803 22.64548 7567.8716 22.879601 7567.3218 27.718615C7566.8781 31.623737 7567.1377 33.56124 7568.3533 35.416468C7570.0636 38.026704 7569.3479 39.451103 7567.0422 38.026056Z"/>
</svg>
