<svg xmlns="http://www.w3.org/2000/svg"
     width="49.8" height="64.0"
     viewBox="3041.0642 15.6046 69.6589 89.4475">
  <path d="M 3063.4375,20.375 C 3062.5921,20.699408 3061.9874,22.301655 3061.9688,24.21875 3061.9358,27.615406 3060.0613,31 3058.2188,31 3057.638,31 3055.7424,29.2 3054,27 3050.4994,22.580128 3048.5931,22.019138 3047.0312,24.9375 3045.2589,28.249249 3045.8595,32.674461 3048.5,35.8125 3050.3261,37.982727 3050.9959,39.974668 3051,43.15625 3051.003,45.551854 3051.4648,49.179216 3052.0312,51.21875 3052.9458,54.512207 3052.7108,55.599837 3049.9375,61.09375 3045.4519,69.979508 3045.0642,76.006243 3048.5,83.25 3050,86.4125 3051.5217,89 3051.875,89 3052.2283,89 3053.079,89.906716 3053.7812,91.03125 3054.8668,92.769532 3054.7625,93.506189 3053.0312,95.9375 3051.9112,97.51037 3051,99.078654 3051,99.40625 3051,101.05212 3053.1509,99.58908 3055.9688,96.03125 L 3059.125,92.0625 3055.6562,89 C 3051.474,85.327839 3048.8768,79.283412 3048.8438,73.09375 3048.8161,67.896806 3049.8466,64.795079 3053.4062,59.15625 3055.7929,55.375625 3055.8205,55.064331 3054.4375,50.46875 3053.6467,47.841197 3053,43.947359 3053,41.8125 3053,39.515873 3052.1752,36.821901 3051,35.21875 3048.792,32.206924 3047.2439,26 3048.6875,26 3049.197,26 3051.5575,28.034007 3053.9375,30.53125 3056.3176,33.028492 3058.6961,34.924224 3059.2188,34.75 3060.5154,34.317754 3062.763,30.093784 3063.4688,26.75 3063.7879,25.2375 3064.6678,24 3065.4375,24 3067.1861,24 3071,30.016405 3071,32.78125 3071,35.813929 3066.3768,39 3061.9688,39 3058.8224,39 3058.1605,39.391561 3057.7812,41.375 3057.3715,43.518998 3059.445,53.788703 3060.5,54.84375 3060.741,55.084736 3062.2978,54.692122 3063.9688,54 3068.2877,52.211047 3073.0129,53.435801 3076.0625,57.125 3078.0298,59.504981 3079.1557,60.078421 3080.7812,59.5625 3083.3322,58.752836 3087.664,50.283629 3088.5938,44.28125 3089.1942,40.404944 3089.0324,39.973405 3086.7188,39.09375 3083.959,38.044489 3081,34.420857 3081,32.09375 3081,31.15561 3082.2513,31.818592 3084.4375,33.9375 3086.4965,35.933214 3088.4734,37.033467 3089.375,36.6875 3091.8124,35.752185 3094.359,24 3092.125,24 3091.6465,24 3091.0343,26.070919 3090.75,28.59375 3089.9791,35.432719 3088.7029,36.020717 3084.4688,31.53125 3081.8206,28.723415 3080.5746,28.019095 3079.75,28.84375 3077.7118,30.881905 3080.0945,37.20787 3083.75,39.46875 3086.6763,41.278621 3086.9699,41.868361 3086.4375,44.96875 3085.7699,48.856444 3082.5998,55.503907 3080.9375,56.53125 3080.335,56.903648 3078.624,56.087591 3077.1562,54.6875 3073.4147,51.118489 3069.9371,49.982125 3065.5625,50.96875 3062.162,51.735701 3061.8163,51.612534 3060.9062,49.21875 3060.3627,47.789076 3060.0237,45.469806 3060.1875,44.0625 3060.4444,41.857074 3061.1052,41.413479 3064.9062,40.90625 3072.2908,39.920829 3075.0323,33.980907 3071.4688,26.65625 3069.6318,22.880462 3065.4452,19.604583 3063.4375,20.375 z M 3098.75,23 C 3097.7473,23 3097.0567,24.40668 3096.6562,27.25 3096.3271,29.5875 3095.7626,32.7375 3095.4062,34.25 3095.0046,35.954173 3095.1737,37 3095.8438,37 3097.4954,37 3098.8048,33.89969 3099.5625,28.1875 3100.1243,23.952608 3099.977,23 3098.75,23 z M 3062.3125,94.03125 C 3061.0027,93.994733 3057.9783,97.832537 3058.0312,99.46875 3058.0495,100.03387 3058.9695,99.437462 3060.0625,98.125 3061.9165,95.898956 3062.157,95.84859 3063.8438,97.375 3065.6199,98.982454 3068,99.565825 3068,98.40625 3068,97.446625 3063.6077,94.06736 3062.3125,94.03125 z M 3105,24.5 C 3104.45,24.839919 3104,26.306107 3104,27.75 3104,31.591473 3100.1648,38.850386 3097.125,40.78125 3093.9134,42.821183 3093.2591,43.823452 3089.9062,51.65625 3086.0217,60.731128 3083.4189,64 3080.0625,64 3078.5172,64 3076.6814,63.321053 3076,62.5 3074.0874,60.195537 3067.1239,58.622526 3064.375,59.875 3060.8668,61.473427 3056.1719,68.634193 3055.4375,73.53125 3054.9071,77.067919 3055.2285,78.654223 3057.0625,81.71875 3063.2086,91.989021 3065.906,92.347743 3076.625,84.46875 3078.6021,83.015448 3078.9745,83.10696 3081.7812,85.46875 3082.9835,86.480313 3084.3954,87.186164 3085.5938,87.59375 L 3085.5625,84.65625 C 3084.8192,84.296378 3083.9849,83.742836 3083.0625,82.9375 3081.2217,81.330348 3079.3922,80 3078.9688,80 3078.5453,80 3076.3269,81.545635 3074.0625,83.4375 3067.5293,88.895847 3066.1771,88.953622 3061.7812,84 3058.6558,80.478044 3058.0044,79.028815 3058.0625,75.625 3058.1439,70.852214 3058.6843,69.394083 3061.7188,65.59375 3064.3841,62.255674 3070.7867,60.942898 3073.0938,63.25 3080.1501,70.306466 3085.0777,67.502869 3092.0312,52.5 3094.4814,47.213315 3096.8337,43.70841 3098.9688,42.15625 3100.7457,40.86442 3103.0258,37.93942 3104.0625,35.65625 3106.064,31.24809 3106.7231,23.435057 3105,24.5 z M 3085.6875,96.5 3085.6562,93.8125 C 3085.1478,93.65634 3084.7323,93.383257 3084.4375,92.90625 3084.0629,92.300132 3082.2438,91.173992 3080.4062,90.40625 3077.4457,89.169233 3076.6752,89.201017 3073.5625,90.75 3069.5433,92.750088 3069.4146,93.157782 3071.625,96.53125 3073.6895,99.682038 3075.2229,99.7232 3074.4375,96.59375 3073.9779,94.762751 3074.3568,93.879425 3076,93 3077.8271,92.022173 3078.7413,92.23457 3081.875,94.40625 3083.5439,95.562754 3084.6605,96.175284 3085.6875,96.5 z"/>
</svg>
