<svg xmlns="http://www.w3.org/2000/svg"
     width="63.8" height="64.0"
     viewBox="4315.7500 13.8994 90.0928 90.4361">
  <path d="M 4350.75 20.46875 C 4349.9404 20.67402 4349.1066 21.442808 4347.5 23 L 4344.1875 26.1875 L 4342.0938 24.09375 C 4339.5991 21.599027 4334.4721 21.3047 4333.5938 23.59375 C 4331.7039 28.518641 4334.1366 31.350984 4340.3438 31.5 L 4344.5 31.59375 L 4345.8125 40.9375 C 4346.538 46.070811 4346.7464 50.628525 4346.2812 51.09375 C 4345.8161 51.558976 4343.2534 50.831059 4340.5625 49.46875 C 4337.8716 48.106441 4334.2123 47 4332.4375 47 C 4328.0642 47 4323.9947 51.757771 4321.5938 59.6875 L 4319.75 65.8125 L 4321.9375 68.90625 C 4324.0167 71.826171 4325.9103 72.906915 4326.0625 71.25 C 4326.5095 66.384021 4327.314 64.287219 4329.625 61.875 C 4334.3031 56.992138 4337.2254 57.193431 4343.25 62.8125 C 4346.4562 65.802861 4346.7515 68.783477 4344.1562 72.125 C 4343.1374 73.436673 4341.501 76.185685 4340.5312 78.25 C 4338.7855 81.96619 4338.7922 82.06012 4341.4688 87.75 C 4346.0049 97.393003 4349.9618 100.33556 4352.0938 95.65625 C 4352.9007 93.885186 4352.7967 92.41051 4351.5938 89.53125 C 4350.7226 87.446458 4350 84.648867 4350 83.3125 C 4350 80.401357 4354.0312 73.010881 4355.625 73 C 4356.2455 72.995764 4358.438 75.443529 4360.5 78.4375 C 4363.5272 82.832816 4364.1267 84.421514 4363.5625 86.6875 C 4361.9851 93.023402 4361.8134 96.07025 4363 97.5 C 4364.7925 99.659773 4366.6047 99.362596 4369.375 96.375 L 4371.8125 93.71875 L 4372.0312 93.84375 L 4372 92 L 4372.7812 89.6875 C 4372.5557 89.133187 4372.6145 88.738269 4373 88.5 C 4373.0522 88.467755 4373.1307 88.493523 4373.1875 88.46875 L 4374.5938 84.25 C 4374.2881 83.850616 4373.9726 83.439087 4373.9688 83.09375 C 4373.959 82.219533 4371.2342 77.719103 4367.9062 73.09375 C 4363.2629 66.639993 4361.9868 64.139706 4362.4375 62.34375 C 4363.1912 59.340843 4365.4685 59.369789 4370.5 62.46875 C 4376.2238 65.994123 4381.2731 65.848052 4383.9688 62.0625 C 4385.121 60.444404 4386.7104 57.577064 4387.5 55.6875 C 4389.4977 50.906327 4393 37.5138 4393 34.6875 C 4393 33.279807 4394.5753 30.7965 4396.9688 28.4375 C 4400.7987 24.662656 4401.8428 22.944151 4400.25 23.03125 C 4399.8375 23.053807 4397.5659 24.849087 4395.1875 27 C 4391.1397 30.66081 4390.7436 31.483532 4388.9375 40.1875 C 4386.8985 50.014197 4383.8422 58.304547 4381.1562 61.34375 C 4379.0402 63.738105 4375.2854 62.958905 4369.5312 59 C 4364.1876 55.323433 4363.6726 55.306776 4361.0625 58.625 C 4358.1392 62.341359 4358.4914 65.656103 4362.25 70.03125 C 4371.394 80.675315 4372.5305 84.059368 4369.5 91.3125 C 4367.79 95.405005 4366.256 96.662231 4364.7812 95.1875 C 4364.0696 94.475756 4364.2578 92.718116 4365.3438 89.53125 C 4366.4009 86.428813 4366.6171 84.134599 4366.0312 82.59375 C 4364.6314 78.912001 4356.7825 68.925106 4355.5938 69.3125 C 4353.4531 70.01011 4347 80.377565 4347 83.125 C 4347 84.649625 4347.9501 87.467913 4349.0938 89.40625 C 4351.3574 93.242873 4350.8956 95.992853 4348.3438 93.875 C 4346.3509 92.22116 4342 83.546073 4342 81.21875 C 4342 80.197278 4343.575 77.145054 4345.5 74.4375 C 4349.8674 68.294719 4349.973 65.129339 4345.9062 61.0625 C 4338.5901 53.746392 4334.164 53.813784 4327.3438 61.375 L 4322.7188 66.5 L 4323.4688 61.5 C 4324.2984 55.903971 4325.3173 53.538395 4328.3125 50.25 C 4331.1305 47.156112 4332.591 47.380184 4340.4062 52.09375 C 4344.3743 54.486972 4347.5738 55.832555 4348.0938 55.3125 C 4349.5053 53.901083 4350.0349 41.896296 4348.875 37.5 C 4346.6451 29.048364 4346.7059 27.634355 4349.3438 25.15625 L 4351.8125 22.8125 L 4354 25 C 4355.7681 26.76807 4356.0767 27.892425 4355.5625 30.84375 C 4353.9943 39.843631 4353.822 42.417276 4354.4688 47.59375 C 4355.2707 54.01334 4357.0044 55.283994 4360.5 52 C 4363.5607 49.12464 4366.7001 49.827772 4371.9062 54.53125 C 4374.0215 56.442291 4376.204 58 4376.75 58 C 4378.3901 58 4383.0326 50.52095 4384.5625 45.4375 C 4387.0331 37.22818 4386.5091 33.891498 4381.8438 28.15625 C 4379.5615 25.350605 4377.3115 23.304689 4376.8438 23.59375 C 4375.4098 24.479912 4375.8504 25.491237 4379.6562 29.9375 C 4384.0444 35.06419 4384.5206 39.957657 4381.25 47 C 4377.6685 54.71151 4377.8479 54.647394 4371.875 50.625 C 4365.8569 46.5722 4364.4608 46.28848 4361.125 48.625 C 4357.9911 50.820064 4357.02 49.268138 4357 41.8125 C 4356.9784 33.774875 4358.4608 31 4362.7188 31 C 4364.9793 31 4366.892 30.170461 4368.5312 28.53125 C 4374.4151 22.647334 4368.1878 17.899414 4361.1562 22.90625 C 4359.2932 24.232832 4357.8922 24.634608 4357.5 24 C 4357.1515 23.436132 4355.4907 22.274086 4353.8125 21.40625 C 4352.3205 20.634706 4351.5596 20.26348 4350.75 20.46875 z M 4381.5625 21 C 4380.1791 21 4381.2469 23.64148 4383.6562 26.15625 C 4385.1154 27.679288 4386.8029 28.638915 4387.4062 28.28125 C 4390.4553 26.473759 4394 23.531596 4394 22.8125 C 4394 21.385659 4391.9092 21.952843 4389.1875 24.09375 L 4386.5312 26.15625 L 4384.3125 23.59375 C 4383.0928 22.175718 4381.8638 21 4381.5625 21 z M 4366.625 23 C 4368.3298 23 4368.4526 26.172379 4366.8125 27.8125 C 4365.285 29.340028 4362.3396 29.353939 4361.4062 27.84375 C 4360.6061 26.549146 4364.4305 23 4366.625 23 z M 4336.9062 24 C 4339.1622 24 4341 25.377984 4341 27.0625 C 4341 29.455435 4339.863 30.074974 4337.7188 28.875 C 4335.9299 27.873907 4335.2841 24 4336.9062 24 z "/>
</svg>
