<svg xmlns="http://www.w3.org/2000/svg"
     width="64.0" height="63.9"
     viewBox="1433.4496 17.6777 90.7454 90.6191">
  <path d="M 1474.125,21.6875 C 1471.2602,21.705265 1451,30.932735 1451,32.21875 1451,33.547512 1452.6594,33.115329 1459.2188,30.125 1473.3825,23.667946 1473.7089,23.584335 1476.2188,25.25 1477.4745,26.083464 1479.7855,27.948417 1481.3438,29.40625 L 1484.1562,32.0625 1481.5312,39.65625 C 1479.5224,45.473511 1479.0646,48.273718 1479.5625,51.59375 1480.46,57.578869 1482.1466,58.791863 1486.625,56.65625 1490.5942,54.763466 1490.8325,54.838603 1496.8125,60.4375 1499.1923,62.665548 1501.5548,64.660417 1502.0625,64.84375 1502.5703,65.027084 1503,66.183892 1503,67.4375 1503,71.169591 1507.0112,86.30358 1508.7188,89 1509.5895,90.375 1512.1274,93.209876 1514.3438,95.28125 1517.2141,97.963903 1518.678,98.736179 1519.4375,97.96875 1520.195,97.203206 1519.271,95.731687 1516.25,92.90625 1513.9117,90.71926 1511.3568,87.935574 1510.5625,86.71875 1508.8617,84.113195 1504.891,67.007372 1505.6875,65.71875 1506.1896,64.906228 1504.0906,62.693226 1495.0625,54.5625 1492.0354,51.836259 1491.5847,51.729737 1488.6562,52.90625 1483.691,54.901023 1482.7513,54.7055 1481.8438,51.5 1481.2146,49.278117 1481.5399,47.006251 1483.125,42.71875 L 1485.2812,36.9375 1489.5625,37.15625 C 1496.27,37.50346 1499.5837,33.33295 1496.4375,28.53125 1494.4919,25.561824 1490.5779,25.150681 1487.8438,27.625 1486.1497,29.157971 1485.7533,29.03086 1481.4062,25.46875 1478.6143,23.180961 1475.7059,21.677696 1474.125,21.6875 z M 1491.2812,29.25 C 1493.9325,28.66261 1496.2571,30.780372 1494,33.5 1492.515,35.289317 1489.8458,35.439672 1488.2188,33.8125 1487.3035,32.897371 1487.3901,32.211523 1488.6562,30.8125 1489.4552,29.929615 1490.3975,29.445797 1491.2812,29.25 z M 1469.3438,30.9375 C 1468.8242,30.417973 1465.958,31.038485 1462.4688,32.40625 1459.1824,33.694448 1455.6849,35.030975 1454.6875,35.375 1453.6902,35.719026 1453.1577,36.446116 1453.5,37 1454.2513,38.215602 1453.5838,38.253725 1459.1562,36.5625 1465.7566,34.559329 1470.401,31.994811 1469.3438,30.9375 z M 1472.7812,35.34375 C 1470.4184,34.990533 1465.4152,35.911329 1462.25,37.5625 1460.7404,38.349971 1458.9375,38.996612 1458.25,39 1457.5625,39.003389 1457,39.675 1457,40.5 1457,42.429782 1457.4446,42.396583 1463.75,40 1471.7973,36.941379 1472.0176,37.041302 1472,44.25 1471.9787,52.940258 1471.2223,53.858011 1466.0625,51.53125 L 1461.9688,49.6875 1459.2188,52.03125 C 1457.715,53.33162 1454.8274,56.244086 1452.7812,58.46875 1449.095,62.476727 1449.0609,62.57861 1449.0312,71.125 1448.9869,83.968344 1448.3916,85.7788 1442.2812,91.75 1438.6281,95.319878 1437.4496,97 1438.625,97 1439.5757,97 1442.4726,94.811972 1445.0625,92.125 1450.3891,86.598689 1451.457,83.058538 1451.1875,71.5 1451.0042,63.638957 1451.962,61.528339 1458.3125,56 L 1462.125,52.65625 1466.7188,54.90625 C 1469.234,56.128258 1471.5932,56.756156 1471.9688,56.3125 1473.6539,54.321582 1475.0677,47.063695 1474.6562,42.5 1474.4082,39.75 1474.1491,36.874949 1474.0938,36.125 1474.0627,35.704646 1473.5689,35.461489 1472.7812,35.34375 z M 1465.9688,58.21875 C 1464.067,57.993521 1462.5864,59.001378 1459.5312,62.65625 1455.7053,67.23332 1455.554,67.694295 1455.4688,74.96875 1455.4046,80.43897 1454.7785,83.832439 1453.1875,87.375 L 1451,92.28125 1454.75,96.53125 C 1456.8148,98.879473 1458.8236,100.85444 1459.2188,100.90625 1460.3868,101.05935 1458.8571,97.694261 1456.6562,95.25 1454.6574,93.030126 1454.671,92.849295 1456.3438,86.25 1458.2714,78.645671 1458.7024,73.310099 1457.5938,70.8125 1457.0537,69.595997 1457.9182,67.90859 1460.7188,64.90625 1464.1161,61.264191 1464.9123,60.87696 1466.7188,61.84375 1468.7772,62.945393 1470.4407,66.421647 1472,72.8125 1472.7303,75.805506 1472.3482,76.766475 1467.9375,82.59375 L 1463.0312,89.03125 1466.5,95.28125 C 1470.0791,101.75546 1472.6566,103.32362 1475,100.5 1476.5772,98.599619 1476.5726,93.938528 1475,91 1474.0984,89.315353 1474.1764,88.362099 1475.4375,86.4375 1477.6647,83.03828 1479.1579,83.405935 1481.7812,88 1483.8219,91.573502 1483.9304,92.433203 1482.9062,96.5 1482.0229,100.00839 1482.0364,101.33893 1483,102.5 1484.4681,104.26894 1484.604,104.29683 1486.9688,103.03125 1489.272,101.79863 1495,91.742185 1495,88.9375 1495,87.779389 1492.975,84.459518 1490.5,81.5625 1485.6574,75.894121 1485.1971,73.874032 1487.4688,68.4375 L 1488.9375,64.9375 1492.4688,67.21875 C 1495.86,69.414075 1497.7084,72.999516 1497.8125,77.5625 1497.8382,78.691656 1498.8186,82.461796 1500,85.96875 1502.0732,92.122858 1502.0735,92.490077 1500.4062,96.1875 1498.1767,101.13152 1499.1381,102.11589 1501.875,97.6875 1504.472,93.485538 1504.5086,92.101762 1502.0938,85.0625 1501.0434,82.000882 1499.8677,77.299235 1499.5,74.625 1498.9507,70.629437 1498.1158,69.090779 1494.6875,65.90625 1492.393,63.774842 1489.9576,62.006857 1489.2812,62 1488.6049,61.993144 1487.1345,63.774817 1486.0312,65.9375 1484.9279,68.100184 1483.6403,70.10706 1483.1562,70.40625 1481.2823,71.564395 1483.4632,76.729419 1488.125,82.15625 1490.8044,85.275325 1493,88.593171 1493,89.5 1493,90.406829 1491.6139,93.125903 1489.9375,95.5625 1485.5781,101.89868 1483.6519,101.4018 1486.125,94.5625 1487.1272,91.791051 1486.9256,90.978399 1484.1562,86.875 1479.3271,79.719629 1478.8536,79.526057 1475.0625,83.4375 1471.5856,87.02472 1471.6287,86.583544 1473.6562,96.25 1474.6655,101.06216 1471.6819,99.425067 1468.875,93.625 L 1466.25,88.25 1469.9688,83.875 C 1475.8171,76.997957 1476.1846,75.953883 1474.5,70.28125 1472.4863,63.500143 1469,58.577724 1465.9688,58.21875 z M 1446.7188,95.75 C 1445.4699,96.022899 1444.2917,96.912295 1443,98.46875 1441.8184,99.892408 1442.1149,100.01377 1445.7188,99.4375 1448.2535,99.032193 1450.0066,99.209015 1450.4375,99.90625 1451.3706,101.41605 1454.0078,101.29678 1454,99.75 1453.9965,99.0625 1452.5933,97.710169 1450.9062,96.75 1449.2886,95.829315 1447.9676,95.477101 1446.7188,95.75 z M 1508.9375,94.90625 C 1507.87,95.082412 1506.9884,96.134187 1505.9062,98.15625 1504.7465,100.32312 1506.8193,100.77446 1508.8125,98.78125 1509.7791,97.814637 1510.4522,97.814637 1512,98.78125 1515.7489,101.12248 1516.4719,99.914856 1513.0625,97 1511.2551,95.454763 1510.005,94.730088 1508.9375,94.90625 z"/>
</svg>
