<svg xmlns="http://www.w3.org/2000/svg"
     width="17.9" height="64.0"
     viewBox="1390.9311 15.9917 25.2379 90.4003">
  <path d="M 1410.9375 87.84375 C 1410.8836 87.770943 1410.7162 87.699865 1410.6875 87.625 C 1410.4376 86.973804 1410.5548 84.200991 1410.9688 81.46875 C 1412.169 73.547995 1411.5388 26.932242 1410.1875 23.71875 C 1409.1511 21.254155 1408.8266 21.097504 1407.0312 22.21875 C 1405.3993 23.23787 1404.5882 23.226139 1402.875 22.15625 C 1399.409 19.991719 1398.7513 21.905701 1399.9375 30.625 C 1401.8036 44.342314 1399.984 72.007641 1395.4375 98.875 C 1394.9311 101.86775 1395.0776 102.16423 1396.6875 101.46875 C 1399.8988 100.08153 1404.7394 99.776614 1405.4375 100.90625 C 1406.3557 102.39199 1407.9811 102.29194 1408 100.75 C 1408.0084 100.0625 1408.4428 98.875261 1408.9375 98.09375 C 1409.1228 97.800997 1409.3444 97.829652 1409.5312 97.6875 L 1409.5 97.5 L 1410.125 93.3125 C 1410.0273 92.97385 1410.0839 92.624964 1410.2812 92.28125 L 1410.9375 87.84375 z M 1402.375 26 L 1405.0625 26 C 1408.8084 26 1409.0973 28.205903 1408.9062 55 C 1408.6842 86.168055 1407.9386 95.812467 1405.6562 96.5 C 1402.4738 97.458648 1399.2497 97.905921 1398.8125 97.46875 C 1398.5427 97.19897 1398.8954 93.282705 1399.5938 88.75 C 1402.5771 69.387691 1403.2437 59.792725 1402.8125 43.21875 L 1402.375 26 z "/>
</svg>
