<svg xmlns="http://www.w3.org/2000/svg"
     width="61.9" height="64.0"
     viewBox="1868.9809 20.0000 83.0191 85.8837">
  <path d="M 1923.6562,57.9375 1923.2812,58.40625 1920.0625,55.6875 C 1915.7819,52.085594 1912.7751,51.460551 1908.9375,53.375 1907.1949,54.244323 1905.3582,54.736131 1904.875,54.4375 1904.3918,54.138869 1904,51.428456 1904,48.4375 1904,43.679317 1904.4076,42.533662 1907.3438,39.25 1911.4991,34.60267 1913,31.816814 1913,28.71875 1913,24.791448 1911.9606,24.857258 1907.2188,29.03125 1902.4401,33.237613 1898.5035,34.348996 1899.3438,31.25 1901.2294,24.29461 1901.1835,24 1898.2188,24 1894.8586,24 1887.2437,28.614611 1884.1875,32.5 1879.7133,38.18796 1882.7004,43 1890.7188,43 L 1895,43 1895,47.3125 C 1895,53.27887 1893.6265,54.350149 1889.125,51.9375 1884.7565,49.59608 1883.1399,49.516499 1880.2188,51.5625 1877.5253,53.449055 1872.9809,62.029472 1873,65.21875 1873.0229,69.050041 1874.158,72 1875.5938,72 1876.3435,72 1877.858,70.272235 1878.9375,68.15625 1880.9121,64.285605 1884.7471,61 1887.3125,61 1889.6398,61 1892.9581,64.571838 1893.5938,67.75 1894.3771,71.666582 1892.8503,74.473812 1886.875,80.125 1884.1891,82.665197 1882.0505,85.590197 1882.0938,86.625 1882.1958,89.066144 1886.9978,96.954342 1889.25,98.375 1892.5193,100.43721 1894.5,97.954357 1894.5,91.78125 1894.5,86.422186 1896.029,82.984151 1898.375,83.03125 1898.9952,83.043701 1901.075,84.867102 1903,87.09375 1904.925,89.320397 1907.9017,92.027702 1909.625,93.09375 1912.4166,94.820741 1913.3103,94.890186 1917.8438,93.84375 1922.9281,92.670129 1922.9592,92.687993 1928.75,96.75 1931.9372,98.985694 1935.6652,100.97298 1937.0312,101.1875 1941.4648,101.88367 1948,99.290813 1948,96.84375 1948,96.346971 1946.6851,96.629626 1945.0625,97.46875 1940.3376,99.912058 1936.9882,99.330541 1930.5,94.90625 1924.5766,90.867156 1924.417,90.834806 1917.875,91.46875 L 1911.25,92.09375 1905.2812,85.46875 1899.3125,78.875 1896.0625,81.59375 C 1892.0901,84.936326 1891.0908,87.423618 1892.0312,91.59375 1893.5239,98.211916 1890.3751,97.394649 1885.625,89.90625 1883.5122,86.575616 1884.1915,84.91806 1889.4688,80.59375 1895.3765,75.752766 1897.3925,71.233719 1896,66.0625 1894.7394,61.381172 1891.8229,59 1887.2812,59 1884.7797,59 1883.0229,59.977133 1879.9062,63.09375 1877.6603,65.339584 1875.6083,66.952132 1875.3438,66.6875 1874.2473,65.591108 1876.4297,58.657939 1878.7188,55.9375 1881.7022,52.391908 1884.7762,52.181315 1890.125,55.1875 1892.7887,56.684607 1894.3297,57.045289 1895.0312,56.34375 1896.5271,54.847898 1897.3322,48.665587 1896.5625,44.5625 1895.9092,41.080105 1895.8126,41 1891.1562,41 1883.7417,41 1881.904,37.740397 1886.5312,32.75 1888.7288,30.380123 1895.8201,26 1897.4688,26 1897.7756,26 1897.9288,27.864032 1897.7812,30.125 1897.4022,35.935565 1899.6492,37.259595 1904.1562,33.875 1909.3865,29.947353 1910,29.699849 1910,31.59375 1910,32.536369 1908.2419,34.987777 1906.0938,37.03125 1902.2216,40.714673 1902.1735,40.800617 1902.0938,48.5625 1902.0448,53.318682 1902.4799,56.675776 1903.1562,57.09375 1903.7686,57.47217 1906.2007,56.902289 1908.5938,55.84375 1912.4878,54.121242 1913.2357,54.090978 1915.7188,55.375 1917.2447,56.164074 1919.3598,57.749941 1920.4062,58.90625 1921.4528,60.062558 1922.8039,61.000983 1923.4062,61 1923.7755,60.999397 1924.2907,60.457188 1924.7812,59.96875 L 1923.6562,57.9375 z M 1927.5312,64.90625 C 1926.5481,66.149104 1925.6136,67 1924.8125,67 1924.3466,67 1922.1988,65.851221 1920.0625,64.4375 1912.7755,59.615178 1906.8114,62.541073 1905.4062,71.65625 1904.7986,75.597656 1905.0121,76.114837 1909.4062,80.8125 1914.4804,86.237322 1917.3151,87.314812 1921.6562,85.5 1925.2834,83.983583 1926.0522,84.302208 1930.9375,89.1875 1933.5809,91.830884 1935.5234,93.023716 1936.5625,92.625 1937.4367,92.28953 1938.7013,91.98613 1939.3438,91.96875 1940.9895,91.924228 1946.3539,87.041481 1945.5938,86.28125 1945.2486,85.936025 1943.6523,86.614069 1942.0312,87.8125 1937.6929,91.019903 1934.9596,90.590314 1930.4375,85.9375 1926.3479,81.729593 1926.2474,81.693837 1918.8438,83.53125 1916.7081,84.06129 1915.4675,83.532027 1912.5,80.8125 1909.5488,78.107954 1908.6957,76.520107 1908.2812,72.84375 1907.8554,69.065197 1908.1357,67.864319 1909.875,66.125 1912.6493,63.350758 1915.2846,63.444439 1919.7812,66.5 1921.8048,67.875 1924.1861,69 1925.0625,69 1926.1155,69 1927.2986,68.052406 1928.5312,66.71875 L 1927.5312,64.90625 z M 1946.9062,91.09375 C 1946.1924,91.266546 1945.1587,91.899303 1943.875,92.96875 1942.5247,94.093629 1942.06,94.949721 1942.8125,94.96875 1944.6955,95.016361 1948,93.106673 1948,91.96875 1948,91.210033 1947.6201,90.920954 1946.9062,91.09375 z"/>
</svg>
