<svg xmlns="http://www.w3.org/2000/svg"
     width="31.7" height="64.0"
     viewBox="4759.2188 11.9010 40.4602 81.7552">
  <path d="M 4792.6562,84.28125 C 4792.1313,83.746822 4791.738,82.607427 4791.125,80.53125 4789.2936,74.328653 4790.3462,67.242783 4793.1562,66.8125 4795.1935,66.500529 4795.1944,66.508943 4793.0625,64.0625 4790.6997,61.351122 4790.6584,57.5 4793,57.5 4795.679,57.5 4795.5104,55.525466 4792.7188,54.1875 4789.2512,52.525537 4788.9755,48.582147 4792.25,47.5 4794.4972,46.757354 4794.4969,46.749529 4792,46.28125 4788.3642,45.599369 4787,44.136054 4787,40.90625 4787,39.334724 4786.2679,36.200379 4785.375,33.96875 L 4783.75,29.9375 4787.625,26.5 C 4792.0368,22.603495 4790.3562,21.676743 4785.8125,25.5 4782.721,28.101324 4781,28.658023 4781,27.0625 4781,26.549563 4780.106,25.851032 4779,25.5 4777.894,25.148967 4775.9815,23.094295 4774.75,20.9375 4772.5874,17.149982 4770.6982,16.037426 4769.5625,17.875 4769.2626,18.360354 4769.9075,19.892353 4771,21.28125 4772.0925,22.670147 4773,24.259108 4773,24.8125 4773,25.365892 4770.0404,28.1643 4766.4375,31.03125 L 4763.2188,33.59375 4764.5312,35.25 C 4765.6416,34.204787 4767.1376,32.92526 4769.0312,31.53125 4778.2735,24.727451 4780.8371,26.792446 4785.625,44.84375 4788.3337,55.056007 4788.7198,66.077212 4787.0938,84.75 4786.9106,86.851583 4783.4911,86.151655 4781,83.5 L 4778.625,80.96875 4780.8125,78.03125 C 4783.4205,74.503725 4783.4844,73.428172 4781.3438,69.5 4778.4064,64.109879 4777.3332,57.324263 4778.3438,50.5625 4779.5749,42.324948 4778.669,37.681453 4775.4688,35.96875 4773.2637,34.788656 4772.6291,34.872029 4770.2812,36.625 4769.1661,37.457581 4768.3259,38.245046 4767.5312,39.03125 L 4769.0938,41 C 4772.1615,37.431942 4774.735,37.164605 4776.0625,40.65625 4777.4698,44.357832 4776.8927,46.330144 4774.1875,46.96875 4771.1635,47.682619 4770.8963,49.407211 4773.75,49.8125 4775.0722,50.000281 4776.009,50.825002 4776,51.8125 4775.9756,54.489199 4774.3321,56.354586 4772.5938,55.6875 4770.0802,54.72296 4770.7013,57.381816 4773.25,58.5 4776.3037,59.839738 4776.8701,63.961449 4774.0938,64.6875 4770.8979,65.523249 4771.517,67.733673 4774.8125,67.25 4777.0701,66.918652 4777.8462,67.347923 4778.8125,69.46875 4779.4719,70.915996 4780,72.503452 4780,73 4780,74.870934 4773.8557,82.901096 4771.9688,83.5 4770.8865,83.843491 4770,84.549563 4770,85.0625 4770,86.355149 4772.355,86.2387 4773.7188,84.875 4775.7207,82.872964 4779.5164,84.772155 4781.875,88.96875 4782.0122,89.212788 4782.1936,89.413409 4782.3438,89.65625 L 4785,88.5 4792.6562,84.28125 z M 4779.125,16.0625 C 4778.5192,15.901012 4778,16.259683 4778,17.28125 4778,17.983871 4778.7063,19.558871 4779.5625,20.78125 4781.4147,23.425577 4781.3191,23.420709 4785.0938,21.46875 4786.7343,20.620327 4787.7951,19.496814 4787.4688,18.96875 4787.0922,18.359611 4786.1886,18.363841 4785,19 4782.258,20.467468 4781.3045,20.240221 4780.7188,18 4780.4316,16.90188 4779.7308,16.223988 4779.125,16.0625 z"/>
</svg>
