<svg xmlns="http://www.w3.org/2000/svg"
     width="64.0" height="53.6"
     viewBox="1682.2484 19.2160 102.4739 85.8305">
  <path d="M 1687.75,27 C 1686.2484,26.998434 1687.0498,28.698306 1689.8438,31.375 1692.499,33.919018 1692.7564,34.798588 1693.2812,43.8125 1694.066,57.288398 1698.534,70.601547 1703.5,74.25 1705.4779,75.703103 1708.7631,74.942447 1712.5938,72.1875 1714.7388,70.644819 1717.0154,69.073497 1717.6562,68.6875 1719.2423,67.732335 1725,72.730864 1725,75.0625 1725,76.094471 1723.7392,78.412112 1722.1875,80.21875 1718.0098,85.083093 1716.0035,88.253361 1716.0312,89.96875 1716.0449,90.808872 1717.6522,93.665709 1719.5938,96.3125 1722.2377,99.916944 1723.6684,101.04645 1725.3125,100.8125 1727.2567,100.53584 1727.5216,99.871478 1727.5938,95 1727.7026,87.635717 1727.6767,87.682252 1730.25,84.6875 1732.7887,81.733023 1733.3396,81.933446 1737.375,87.34375 1739.9907,90.85062 1740.1791,91.550217 1739.1875,94.78125 1737.8881,99.015191 1738.3097,100 1741.5,100 1743.2051,100 1744.7655,98.719325 1746.9375,95.5625 1751.1123,89.494597 1750.8846,87.137995 1745.5,81.4375 1740.8198,76.482746 1740.0457,73.696827 1742.4062,70.46875 1743.7556,68.623275 1743.8923,68.651168 1747.6875,71.28125 1752.6667,74.731821 1754.1518,74.704207 1758.4062,70.96875 1763.4759,66.517621 1766.6043,60.464042 1769.0938,50.40625 1772.1637,38.003398 1772.7283,36.686987 1776.5938,32.34375 1780.0158,28.498896 1780.7223,27 1779.1562,27 1777.9245,27 1772.4088,33.292559 1770.7188,36.625 1769.9162,38.207403 1768.4889,43.1 1767.5312,47.5 1765.3669,57.443417 1761.6589,65.226532 1757.2188,69.125 1754.0175,71.935827 1753.6798,72.020497 1751.6562,70.53125 1750.4732,69.660505 1748.15,68.289995 1746.5,67.5 1743.6739,66.14692 1743.3696,66.220798 1741.25,68.59375 1737.565,72.719254 1738.2326,76.92268 1743.5,82.78125 1745.975,85.534046 1748,88.402235 1748,89.15625 1748,91.03283 1743.1757,98 1741.875,98 1741.2045,98 1741.0757,96.574103 1741.5,94.0625 1742.0931,90.551805 1741.713,89.452879 1738.0312,84.03125 1735.7586,80.684467 1733.5339,78.165527 1733.0938,78.4375 1732.6538,78.709473 1730.3518,81.473672 1727.9688,84.5625 1724.258,89.372302 1723.7956,90.434211 1724.8125,92.0625 1726.4368,94.663525 1726.3194,98 1724.5938,98 1722.764,98 1719,91.955031 1719,89 1719,87.679226 1720.8912,84.695247 1723.5,81.90625 1725.975,79.260275 1728,76.124384 1728,74.9375 1728,72.475329 1721.4595,66 1718.9688,66 1718.0664,66 1715.2506,67.621118 1712.7188,69.59375 1707.1244,73.95229 1705.0125,73.587637 1701.5625,67.6875 1698.0225,61.633482 1696.7423,55.870285 1696.2812,44.03125 L 1695.875,33.5625 1692.1875,30.28125 C 1690.1628,28.4792 1688.1625,27.00043 1687.75,27 z M 1706.875,25 C 1706.043,25 1704.2917,26.125 1703,27.5 1700.0643,30.624921 1699.4788,30.620415 1696.5,27.40625 1695.1757,25.977279 1693.4932,25.009422 1692.7812,25.25 1691.9363,25.535524 1692.7985,26.97899 1695.2188,29.40625 1699.3808,33.580347 1700.3348,33.455236 1705.4375,28.09375 1707.4619,25.966686 1707.9177,25 1706.875,25 z M 1732.625,23.28125 C 1731.8951,23.215978 1730.997,23.274165 1729.9688,23.5 1725.7626,24.423822 1716,33.770202 1716,36.875 1716,38.12368 1717.3298,40.454808 1718.9375,42.0625 1721.2433,44.368355 1722.7384,45 1726.0625,45 L 1730.2812,45 1729.75,51.59375 C 1729.0733,60.023872 1728.28,60.801136 1723.25,57.90625 L 1719.2812,55.625 1713.875,59.21875 C 1710.3005,61.608709 1708.1309,62.496929 1707.375,61.875 1705.5785,60.396901 1704,52.735772 1704,45.40625 1704,39.095539 1704.2505,38.340219 1708.0938,33.25 1712.6813,27.173741 1712.4554,24.571157 1707.8125,30 1701.8489,36.973222 1701.6191,37.604793 1701.7812,47.21875 1701.889,53.605756 1702.4587,57.252953 1703.7188,59.78125 1706.5826,65.527316 1708.218,65.941826 1713.5,62.21875 1718.9072,58.407405 1719.2471,58.361386 1723.7188,61.125 L 1727.1875,63.28125 1729.3438,61.09375 C 1731.2072,59.231523 1731.533,57.689565 1731.6875,49.9375 L 1731.8438,40.9375 1727.1562,41.5625 C 1723.2636,42.078878 1722.175,41.862469 1720.6875,40.21875 1717.4117,36.599037 1721.4678,29.641312 1728.375,27.03125 1731.0912,26.004881 1731.2081,26.070496 1730.5312,28.21875 1730.1375,29.468215 1729.5673,31.7375 1729.2812,33.25 1728.8116,35.734265 1729.0382,35.988837 1731.625,35.96875 1733.1999,35.95652 1735.625,35.075541 1737,34 1742.2329,29.906767 1744.0974,33.228109 1739.1562,37.84375 1736.3518,40.46345 1736.3228,40.652821 1736.5938,50.5 1736.745,55.996027 1736.8986,60.898353 1736.9375,61.375 1736.9765,61.851648 1738.0125,61.917821 1739.25,61.53125 1742.908,60.388564 1744.4997,60.722867 1748.5,63.4375 1750.5859,64.85302 1752.8164,66 1753.4688,66 1755.2298,66 1758.6968,61.965215 1760.3438,58 1762.5119,52.78007 1764.6113,39.108341 1763.4688,37.59375 1762.9432,36.897162 1760.9559,34.225317 1759.0625,31.65625 1757.1691,29.087183 1755.2566,27 1754.8125,27 1753.1702,27 1754.0816,29.36044 1757.625,34.1875 1761.1828,39.03413 1761.2527,39.28997 1760.6875,46.03125 1760.0111,54.100162 1757.0668,61.513757 1754.1562,62.4375 1752.796,62.869203 1750.7715,62.209582 1748.0938,60.4375 1745.2054,58.526079 1743.3433,57.951437 1741.5312,58.40625 1739.3062,58.964695 1738.9834,58.719574 1738.8438,56.28125 1738.346,47.590527 1739.2691,42.397902 1742.0938,38.09375 1744.8364,33.914505 1745.7638,30.107564 1744.375,28.71875 1744.032,28.375748 1741.0993,29.461878 1737.8438,31.15625 1731.6924,34.357642 1729.707,34.313255 1731.7812,30.96875 1732.4478,29.893763 1733.545,28.117523 1734.2188,27.03125 1735.5413,24.898768 1734.8147,23.477067 1732.625,23.28125 z M 1761,25 C 1759.327,25 1759.8998,27.25229 1762.1875,29.6875 1763.3834,30.960448 1764.8129,32 1765.375,32 1766.8308,32 1774,26.910176 1774,25.875 1774,24.52229 1772.7151,24.876191 1770,27 1766.796,29.506187 1764.7839,29.506187 1763.2188,27 1762.5318,25.9 1761.5454,25 1761,25 z"/>
</svg>
