<svg xmlns="http://www.w3.org/2000/svg"
     width="44.5" height="64.0"
     viewBox="3817.6250 47.0002 38.6476 55.6247">
  <path d="M 3821.6875 92.15625 L 3821.625 95.3125 C 3823.0645 95.69402 3824.4325 96.239925 3825.6875 97.21875 C 3827.4903 98.624859 3830.5835 97.284527 3833.5312 93.78125 L 3836.1875 90.625 L 3839.6562 92.53125 C 3842.2602 93.933557 3843.5616 94.12762 3844.8125 93.34375 C 3847.3534 91.751338 3847.4259 88.073507 3844.9688 84.75 C 3842.0839 80.848158 3842.6362 73.666873 3846.2188 68.28125 C 3851.7883 59.908643 3852.2726 53.611947 3847.4688 52.40625 C 3841.8665 51.000168 3836.4742 58.296051 3833.0312 71.875 C 3830.4363 82.110194 3828.6629 85 3825.0938 85 C 3824.0475 85 3822.9428 84.643944 3821.875 84.1875 L 3821.7812 87.28125 C 3827.6514 89.666268 3832.056 85.420509 3834.4688 74.8125 C 3835.9533 68.28594 3841.722 56.620118 3844.3438 54.84375 C 3846.0601 53.680854 3848 55.132096 3848 57.59375 C 3848 58.909244 3846.3374 63.245402 3844.3125 67.21875 C 3840.0704 75.542778 3839.3028 82.45971 3842.25 85.71875 C 3844.0118 87.667022 3844.6437 91.006946 3843.25 91 C 3842.8375 90.997944 3840.9892 90.086236 3839.1562 88.96875 L 3835.8438 86.9375 L 3832.0938 91.15625 C 3828.38 95.341202 3828.2901 95.370466 3824.9062 94.03125 C 3823.8077 93.596469 3822.8127 92.848761 3821.6875 92.15625 z "/>
</svg>
