<svg xmlns="http://www.w3.org/2000/svg"
     width="34.2" height="64.0"
     viewBox="3917.8274 15.7188 45.9075 85.9528">
  <path d="M3948.54 95.652917C3946.6712 94.28638 3946.6802 92.305052 3948.601 82.281392C3949.1068 79.641875 3948.6433 78.337456 3946.0249 75.031392C3944.2688 72.814126 3942.3978 71.0 3941.8671 71.0C3941.3364 71.0 3940.0575 72.88672 3939.0251 75.192712C3937.3292 78.980555 3937.2905 79.66116 3938.6246 82.24088C3939.529 83.989832 3939.9847 87.112075 3939.8006 90.298169C3939.5285 95.00721 3939.2772 95.5 3937.1486 95.5C3935.4305 95.5 3934.2181 94.422822 3932.6467 91.5C3931.4638 89.3 3929.4791 85.863235 3928.2362 83.862745C3925.6607 79.717649 3925.8649 78.697226 3930.6821 71.637788C3933.3236 67.766843 3934.0 65.779095 3934.0 61.887788L3934.0 57.0L3930.1224 57.0C3924.525 57.0 3923.6236 55.395277 3925.6668 49.068658C3927.2502 44.16609 3927.2476 43.689225 3925.6236 40.939886C3923.321 37.04193 3921.8274 27.58409 3923.0194 24.449028C3924.2301 21.264685 3925.133 21.367456 3927.1537 24.919615C3928.0633 26.518448 3929.7583 28.335443 3930.9204 28.957381C3932.8457 29.987773 3933.2062 29.684706 3934.9811 25.544089C3937.4585 19.76449 3939.5219 19.718836 3941.9528 25.389835C3942.9877 27.804244 3944.2446 30.033116 3944.7458 30.342885C3945.7663 30.973572 3950.6525 26.790838 3953.2532 23.060332C3955.4925 19.848259 3956.2308 20.814269 3956.2308 26.956312C3956.2308 30.494547 3955.4016 33.65401 3953.4723 37.467235L3950.7138 42.919282L3952.4411 49.075417C3954.2166 55.403133 3953.9441 56.545489 3950.5115 57.164419C3947.2007 57.761376 3947.7168 60.133362 3952.966 68.446165C3959.3067 78.487577 3959.7349 80.860266 3956.5847 88.5C3953.6724 95.562833 3951.3007 97.671588 3948.54 95.652917Z M3930.6835 35.924891C3931.7841 32.740128 3931.6789 32.342595 3929.1835 30.254967C3927.7076 29.020199 3926.0998 28.007699 3925.6107 28.004967C3924.6721 27.999725 3925.4604 37.317903 3926.5473 39.07661C3927.6475 40.856685 3929.4553 39.479165 3930.6835 35.924891Z M3938.8065 90.775934C3938.975 89.362528 3938.4125 86.529776 3937.5565 84.480929C3936.7004 82.432082 3936.0 79.501092 3936.0 77.967619C3936.0 75.27077 3940.5947 67.0 3942.0929 67.0C3943.0707 67.0 3952.0 78.910508 3952.0 80.21487C3952.0 80.774056 3951.247 83.35168 3950.3267 85.942922C3948.6865 90.561012 3949.0333 94.715497 3950.9596 93.524963C3951.4952 93.193972 3953.1048 90.590937 3954.5365 87.740441C3957.625 81.591249 3957.3139 78.118787 3953.159 72.36806C3944.9878 61.058376 3942.9933 55.0 3947.441 55.0C3948.7835 55.0 3950.1643 54.543212 3950.5093 53.984915C3951.652 52.135988 3948.6301 41.627953 3945.4249 36.305255C3943.6897 33.423667 3941.7046 29.701153 3941.0137 28.033002C3938.6195 22.25295 3937.4573 23.933719 3930.0869 43.835438C3928.3891 48.419929 3927.0 52.556555 3927.0 53.02794C3927.0 53.499325 3928.9125 54.023378 3931.25 54.192502L3935.5 54.5L3935.802 60.915808C3936.0821 66.866098 3935.8463 67.705825 3932.552 72.488993C3930.5984 75.32555 3929.0 78.586658 3929.0 79.735901C3929.0 80.885143 3930.575 84.216948 3932.5 87.139912C3934.425 90.062876 3936.0 92.839654 3936.0 93.31053C3936.0 95.376079 3938.5304 93.09081 3938.8065 90.775934Z M3952.551 34.532119C3954.1328 30.746462 3954.4272 27.997171 3953.25 28.004967C3952.8375 28.007699 3951.1942 29.054823 3949.5982 30.331908C3947.2298 32.226996 3946.8197 33.145314 3947.3672 35.326941C3948.3015 39.049572 3950.8252 38.662625 3952.551 34.532119Z"/>
</svg>
