<svg xmlns="http://www.w3.org/2000/svg"
     width="33.3" height="64.0"
     viewBox="7756.0938 15.7531 47.2500 90.8513">
  <path d="M 7761.75 92 L 7761.1562 95.3125 C 7761.7899 95.114827 7762.6355 95 7763.875 95 C 7769.4402 95 7774.3319 92.630391 7777.75 88.28125 C 7783.9219 80.428213 7784.2118 79.169016 7784.9688 57.53125 C 7785.5641 40.509913 7785.979 36.80157 7787.7188 32.875 C 7790.1175 27.460608 7791.6593 26.221784 7793.5938 28.15625 C 7795.5185 30.080938 7795.5449 36.583353 7793.6562 42 C 7789.3836 54.252778 7789.006 72.039208 7792.8438 79.9375 C 7794.0298 82.378307 7795 84.935766 7795 85.625 C 7795 87.987426 7792.8637 88.194943 7790.5938 86.0625 C 7787.7006 83.344567 7786.21 83.971068 7782.5 89.4375 C 7780.8511 91.867178 7777.7351 95.023652 7775.5625 96.4375 C 7771.0024 99.405034 7763.1267 99.820483 7760.75 97.78125 L 7760.0938 101.5625 C 7760.9038 101.43018 7762.2278 101.46912 7764.3438 101.6875 C 7773.2283 102.60447 7777.6062 100.11068 7786.0938 89.25 C 7787.552 87.383902 7788.7729 87.72097 7790.5938 90.5 C 7791.4947 91.875 7792.6148 93 7793.0938 93 C 7793.5728 93 7795.1767 91.173295 7796.6562 88.9375 L 7799.3438 84.875 L 7796.5625 79.375 C 7794.8724 76.037078 7793.5794 71.570395 7793.25 67.9375 C 7792.6679 61.518651 7794.2643 49.472818 7796.7188 41.625 C 7798.6466 35.461079 7797.9929 27.212258 7795.4375 25.34375 C 7787.7919 19.753125 7782.9287 30.099684 7782.4375 53 C 7782.0083 73.004115 7781.327 77.63846 7777.9062 83.65625 C 7774.6993 89.29795 7770.4435 92.002356 7764.8438 92 L 7761.75 92 z "/>
</svg>
