<svg xmlns="http://www.w3.org/2000/svg"
     width="39.8" height="64.0"
     viewBox="3714.5700 33.5897 21.4925 34.5666">
  <path d="M 3726.0625,64.15625 3732.0625,54.375 C 3729.5797,53.086411 3727.4619,49.666065 3726.0625,44.4375 3725.2111,41.256432 3723.9677,38.466043 3723.3125,38.25 3721.3097,37.589659 3718.6217,44.144072 3718.5938,49.75 3718.57,54.49715 3718.9364,55.352037 3722.4375,58.9375 L 3726.3125,62.875 3726.0625,64.15625 z M 3722.8125,43.25 C 3723.475,43.085116 3724,43.915628 3724,45.78125 3724,47.427303 3725.2566,50.453284 3726.875,52.6875 3729.0074,55.631166 3729.5341,57.110047 3728.8438,58.34375 3727.5231,60.703562 3726.5444,60.444085 3723.5938,56.9375 3720.4559,53.208455 3719.6993,50.445921 3720.7812,46.5625 3721.3397,44.557883 3722.15,43.414884 3722.8125,43.25 z"/>
</svg>
