<svg xmlns="http://www.w3.org/2000/svg"
     width="64.0" height="60.6"
     viewBox="318.2000 16.4450 96.8697 91.6727">
  <path d="M 410.28125,21.03125 C 409.78027,20.869953 409.05836,22.385829 408.59375,25.75 407.69575,32.252304 405.36371,36.80811 399.6875,43.125 395.63609,47.633709 390.01654,58.215431 390,61.375 389.99182,62.938993 393.68591,57.633807 395.9375,52.84375 397.13814,50.289511 400.04436,46.237022 402.375,43.84375 407.61117,38.466862 409.99051,33.493418 410.71875,26.4375 411.06973,23.036748 410.78223,21.192547 410.28125,21.03125 z M 402.625,20.53125 C 402.19315,20.790101 401.99122,21.981252 401.96875,24.1875 401.94461,26.557459 401.21201,30.3 400.375,32.5 399.53799,34.7 398.6155,37.2875 398.3125,38.25 397.51838,40.772598 399.67686,40.405835 401.4375,37.71875 403.3851,34.74634 404.6864,21.558746 403.125,20.59375 402.93204,20.474494 402.76895,20.444966 402.625,20.53125 z M 366.21875,20.59375 C 363.14827,20.529307 360.06441,21.481526 357.5,23.4375 352.37956,27.343049 351.44115,29.837552 353.125,35.15625 354.11385,38.279655 355.5465,40.161261 358.25,41.90625 362.29798,44.519046 362.8455,46.352198 360.53125,49.65625 358.67485,52.306639 348.69207,59 346.59375,59 342.95717,59 340.03762,42.960907 343.4375,41.65625 345.58557,40.831959 348.16724,35.258278 347.8125,32.1875 347.38224,28.463059 343.76545,28.005536 342.1875,31.46875 341.54954,32.868931 340.36804,34 339.53125,34 337.99182,34 337.5054,31.88264 337.90625,26.75 338.20707,22.898123 336.3544,23.304606 335.625,27.25 334.8231,31.587546 336.22028,36.422579 338.40625,36.84375 339.37826,37.031027 341.26782,36.1519 342.59375,34.90625 344.53014,33.087106 345,32.962534 345,34.25 345,35.755029 344.29931,36.615409 340.53125,39.78125 337.33089,42.470127 339.64572,57.691784 343.71875,60.75 344.63438,61.4375 346.07553,62 346.9375,62 349.19804,62 360.81532,54.182981 362.59375,51.46875 363.62125,49.900593 364.26892,45.562974 364.59375,37.84375 365.0378,27.291711 365.9482,23.604445 367.6875,25.34375 368.08367,25.739922 368.44995,31.987516 368.5,39.21875 L 368.59375,52.375 374.53125,57.1875 C 377.7957,59.835925 380.9978,62 381.65625,62 383.76899,62 389.01347,54.649888 390.53125,49.5625 392.76427,42.077747 392.47707,40.471529 388.5,38.125 386.575,36.989222 385,35.550906 385,34.9375 385,34.316089 386.55554,34.798259 388.5,36 390.41941,37.186262 392.73686,37.991404 393.65625,37.8125 397.09324,37.143702 399.2135,26.051469 396.59375,22.46875 395.34425,20.759952 395.19729,21.216317 395.25,26.8125 395.32734,35.023526 394.22863,36.075034 389.0625,32.65625 383.66171,29.082181 382,29.204379 382,33.15625 382,35.553231 382.96028,37.193749 386,40 L 390,43.6875 388.0625,49.3125 C 385.83229,55.794717 382.79324,59.594028 380.8125,58.40625 380.08288,57.96872 377.5875,56.031183 375.25,54.09375 371.75551,51.197348 371,49.955001 371,47.125 371,44.383324 371.82934,42.922335 375.0625,39.9375 378.85213,36.438933 379.10086,35.869443 378.8125,31.4375 378.54773,27.368235 377.9922,26.30351 374.90625,23.8125 372.34999,21.749053 369.28923,20.658193 366.21875,20.59375 z M 362.84375,24.15625 C 363.51792,24.38756 363.4184,25.54455 362.90625,27.75 362.42729,29.8125 362.04437,33.4125 362.03125,35.75 362.01507,38.631627 361.56821,40 360.65625,40 358.37319,40 355.86484,36.336786 355.3125,32.21875 354.82448,28.580297 355.02627,28.148623 358.25,26.15625 360.72746,24.625098 362.16958,23.92494 362.84375,24.15625 z M 371.5,25.03125 C 372.33191,25.028336 373.58316,25.917531 375,27.71875 377.45543,30.840326 377.10732,35.644332 374.28125,37.75 371.57305,39.767841 371.01042,39.247807 370.9375,34.75 370.89961,32.4125 370.69958,29.2625 370.5,27.75 370.26177,25.944653 370.66809,25.034164 371.5,25.03125 z M 331.75,24.15625 C 331.3962,24.185704 330.86254,25.012359 330.15625,26.5625 328.71473,29.726282 328.65183,35.965611 330.03125,39.59375 331.01331,42.176764 331.16925,42.237424 332.78125,40.625 334.19214,39.213739 334.25922,38.794988 333.125,38.09375 332.10945,37.46587 331.87615,35.514698 332.1875,30.625 332.46744,26.228627 332.33966,24.10716 331.75,24.15625 z M 325.25,25 C 323.04635,25 322.20005,37.605098 324.15625,41.3125 324.79013,42.513843 326.84167,44.85 328.71875,46.5 331.62674,49.056188 332.31193,50.535562 333.34375,56.5 334.72838,64.50382 336.05755,67.338171 339.5,69.59375 342.64318,71.653244 348.66256,70.710234 353.53125,67.40625 355.48802,66.078354 357.27434,65 357.5,65 357.72565,65 358.19426,66.6875 358.53125,68.75 358.86824,70.8125 359.36015,73.688938 359.625,75.125 360.00016,77.159251 359.10658,78.910506 355.5625,83.0625 353.06059,85.993565 351,88.907049 351,89.5625 351,90.21795 353.5875,93.518251 356.75,96.875 359.9125,100.23175 363.26207,102.99182 364.1875,103 366.55751,103.02093 367.28089,99.788131 366,95.03125 365.10237,91.697728 365.22832,90.346181 366.59375,87.46875 368.86641,82.679484 369.41784,82.522747 372.34375,86 374.79187,88.90942 374.83428,89.197358 373.4375,93.15625 371.71687,98.033047 371.60025,101.63946 373.09375,102.5625 375.61006,104.11767 386.67918,89.669901 385.59375,86.25 385.27639,85.250102 382.30141,81.675882 379,78.3125 373.94133,73.158884 373,71.644788 373,68.65625 373,63.617794 374.49128,63.304654 379.03125,67.40625 381.21211,69.376521 383.54489,71 384.1875,71 386.13317,71 389,67.804891 389,65.65625 389,63.689778 388.93712,63.702879 386.625,65.875 L 384.25,68.125 379.5625,64.0625 C 376.98489,61.831597 374.21141,60 373.40625,60 371.24003,60 370.13517,63.960102 370.71875,69.5625 371.18261,74.015665 371.83043,75.074077 377.125,80.1875 380.64215,83.584312 383,86.709937 383,87.96875 383,89.127026 381.15034,91.965047 378.90625,94.28125 L 374.84375,98.5 375.5,95.5 C 377.37855,86.849801 377.33126,86.710314 373.125,82.625 L 369.125,78.71875 366,83.625 C 362.83039,88.564118 362.57038,91.047516 364.5625,97.75 365.657,101.43243 363.69081,100.33645 358.625,94.46875 L 353.84375,88.9375 357.0625,85.21875 C 358.84139,83.170767 360.91591,81.127329 361.65625,80.6875 363.32215,79.697793 363.35321,77.298181 361.78125,69.6875 360.19437,62.004574 357.64567,60.429721 353.03125,64.3125 349.86724,66.974837 344.14076,68.645624 341.5625,67.65625 338.94956,66.653572 336.89892,62.29983 335.78125,55.34375 334.79244,49.189574 334.20983,47.961691 329.78125,43.21875 L 324.84375,37.96875 325.53125,31.46875 C 325.96835,27.387204 325.87469,25 325.25,25 z"/>
</svg>
