<svg xmlns="http://www.w3.org/2000/svg"
     width="26.5" height="64.0"
     viewBox="3424.5000 14.2323 35.5056 85.7599">
  <path d="M 3431.9688 85.625 L 3428.5 94.5 L 3428.5 94.5625 C 3429.6206 94.438346 3431.3733 94.540949 3433 94.9375 C 3434.925 95.406763 3438.6149 95.849951 3441.1875 95.90625 C 3445.1133 95.992162 3446.2008 95.582842 3447.9375 93.375 C 3451.5133 88.829148 3452.2461 83.579612 3451.75 66.1875 C 3451.3708 52.893633 3451.6158 48.167119 3453.125 40.6875 C 3456.0056 26.411279 3455.1647 19.883211 3450.3438 19.1875 C 3443.7246 18.232294 3441.1199 32.460608 3442.8438 60.1875 C 3444.0494 79.578982 3443.7977 82.089274 3440.2188 85.3125 C 3437.9533 87.35282 3432.5741 87.349832 3431.9688 85.625 z M 3450.0938 22 C 3453.0463 22 3453.3809 26.100864 3451.4688 38.75 C 3450.3355 46.24702 3449.6959 56.861042 3449.625 68.46875 C 3449.5257 84.734465 3449.285 86.844792 3447.4375 90 C 3445.6914 92.982055 3444.8035 93.521562 3441.4375 93.6875 C 3439.2647 93.794618 3437.05 93.727759 3436.5 93.53125 C 3435.95 93.334742 3434.2744 92.891215 3432.7812 92.5625 C 3429.0954 91.751037 3430.0947 88.60179 3433.8125 89.3125 C 3435.2106 89.579765 3437.8443 89.082752 3439.6562 88.21875 C 3443.4571 86.406229 3446.1716 79.896362 3445.5625 74 C 3444.104 59.879142 3443.8257 43.288793 3444.9375 34.40625 C 3446.2443 23.965379 3447.0682 22 3450.0938 22 z "/>
</svg>
