<svg xmlns="http://www.w3.org/2000/svg"
     width="29.3" height="64.0"
     viewBox="2828.0000 17.0456 27.4205 59.9629">
  <path d="M 2832.5312,53.59375 2832,55 2832,60.09375 2836.25,62.03125 C 2845.5835,66.267897 2846.3517,64.595741 2846.0625,41 2845.9892,35.01559 2845.666,32.943928 2844.9688,34 2844.4239,34.825 2844.0376,40 2844.0938,45.5 2844.2572,61.499504 2843.1845,63.233356 2836.2188,58.5 2834.0994,57.059849 2833.245,56.197712 2832.5312,53.59375 z M 2832,62.8125 2832,69.5 2832.25,70.0625 C 2832.4708,69.53296 2832.7049,68.999222 2832.8438,69 2833.2107,69.002056 2835.0257,69.935041 2836.875,71.0625 2839.0456,72.385845 2841.5267,73.008532 2843.875,72.8125 2847.1278,72.54096 2847.6508,72.076853 2848.875,68.5 2851.4205,61.06223 2850.6363,26.677413 2847.8438,23.3125 2845.9623,21.045633 2843.9884,23.750184 2844.1562,28.375 2844.2791,31.758444 2844.3686,31.959163 2844.7188,29.5 2845.58,23.450554 2846.7131,25.10732 2847.5625,33.6875 2848.7869,46.054852 2848.5633,61.71601 2847.0938,66.875 2845.873,71.160919 2845.8002,71.222221 2842.3125,70.65625 2836.9144,69.780248 2832.0083,66.065176 2832,62.8125 z"/>
</svg>
