<svg xmlns="http://www.w3.org/2000/svg"
     width="63.9" height="64.0"
     viewBox="1942.7055 19.8025 83.3939 83.5735">
  <path d="M1971.0117 97.731019C1965.7076 95.859184 1964.5469 92.537147 1966.5271 84.895443C1968.1402 78.670139 1967.8588 72.662957 1965.7589 68.5C1964.0508 65.113714 1960.7419 62.0 1958.8514 62.0C1956.9217 62.0 1954.0 66.687719 1954.0 69.783673C1954.0 70.81932 1953.7039 71.962762 1953.342 72.324657C1952.2163 73.450323 1950.0 70.871835 1950.0 68.436572C1950.0 67.161376 1949.5317 65.828606 1948.9593 65.47486C1946.7055 64.08195 1951.3676 53.501854 1954.8695 52.062313C1957.8216 50.848781 1962.6117 51.860341 1966.7485 54.57086C1969.7639 56.546639 1970.9607 55.331319 1970.9847 50.269052C1970.9972 47.63734 1970.529 46.9199 1968.4607 46.400774C1965.1867 45.579061 1961.0 40.082498 1961.0 36.605949C1961.0 30.584662 1966.8721 24.0 1972.2418 24.0C1974.6641 24.0 1975.0885 24.323789 1974.536 25.75C1974.1631 26.7125 1973.6023 29.6375 1973.2897 32.25C1972.7834 36.48196 1972.9333 37.0 1974.6645 37.0C1976.6982 37.0 1981.4074 32.487152 1984.3868 27.683079C1985.8605 25.306905 1986.3747 25.066055 1987.6732 26.14375C1990.1365 28.188086 1988.8099 34.935876 1984.7281 41.124089C1982.5466 44.431308 1981.0508 48.033591 1980.841 50.485343L1980.5 54.470685L1984.1368 54.168476C1987.1447 53.91853 1988.291 54.419845 1990.7653 57.067283C1994.1702 60.710553 1994.8949 60.508256 1999.066 54.750123C2002.9378 49.40539 2003.1166 43.666127 1999.5 40.82134C1997.8714 39.540303 1997.0 37.855 1997.0 35.986437C1997.0 31.909842 1998.7269 31.364146 2001.9266 34.429634C2004.4565 36.853477 2004.8065 36.938058 2006.0595 35.428345C2006.8124 34.521175 2007.5342 31.691182 2007.6636 29.139472C2007.793 26.587762 2007.9216 24.2975 2007.9494 24.05C2007.9772 23.8025 2008.498 24.098003 2009.1067 24.706674C2010.7489 26.348858 2009.2301 35.279956 2006.7937 38.307839C2005.6651 39.71042 2004.6115 42.352439 2004.4523 44.178993C2003.962 49.805689 2003.1881 52.031717 1999.9901 57.015398C1997.3391 61.146682 1995.2881 63.0 1993.3672 63.0C1993.1092 63.0 1991.4283 61.395752 1989.6321 59.435005C1986.9136 56.467676 1985.9163 55.982905 1983.6831 56.543413C1982.2074 56.913785 1981.0 57.543032 1981.0 57.941741C1981.0 58.34045 1980.325 58.666667 1979.5 58.666667C1978.3282 58.666667 1978.0 57.312274 1978.0 52.477136C1978.0 46.91545 1978.3636 45.811447 1981.5842 41.593465C1984.8404 37.328984 1987.5394 31.206093 1986.5842 30.250821C1986.3743 30.040918 1984.0704 32.148614 1981.4644 34.93459C1978.8585 37.720565 1975.8983 40.0 1974.8862 40.0C1972.7478 40.0 1969.7515 35.92531 1970.3938 33.890905C1972.0565 28.624959 1972.0092 27.0 1970.1934 27.0C1968.2049 27.0 1964.9835 30.079165 1963.0461 33.831626C1962.0121 35.834256 1962.2017 36.706335 1964.3893 40.012135C1966.1553 42.680717 1967.7895 43.958994 1969.7182 44.180509C1972.3427 44.481931 1972.5165 44.811106 1972.7925 50.000792C1972.9756 53.444573 1972.5846 56.185834 1971.747 57.331383C1970.4651 59.08449 1970.2055 59.053022 1965.5555 56.580591C1960.3481 53.811767 1954.8869 53.223073 1953.2119 55.25C1952.6438 55.9375 1951.8636 58.1875 1951.4782 60.25C1950.9042 63.321727 1951.0689 64.0 1952.3887 64.0C1953.2749 64.0 1954.0 63.561556 1954.0 63.02568C1954.0 62.489804 1955.4104 61.322023 1957.1342 60.430611C1960.0859 58.904222 1960.4207 58.923367 1962.8842 60.759462C1969.1165 65.404494 1971.3842 75.03403 1968.6747 85.348542C1966.9196 92.029948 1967.2836 93.777138 1970.7015 95.076604C1975.3041 96.826504 1979.5523 96.137207 1983.5 93.0C1988.1039 89.341319 1989.6561 89.2774 1994.4757 92.54804C2000.8964 96.905297 2003.5184 96.874602 2008.1249 92.388251C2012.5596 88.069253 2012.5942 90.457007 2008.1663 95.25C2004.6346 99.07297 1999.6587 98.984163 1994.1587 95.0C1991.8809 93.35 1989.7495 92.0 1989.4221 92.0C1989.0948 92.0 1986.9534 93.341494 1984.6635 94.981097C1979.6421 98.576487 1975.673 99.375991 1971.0117 97.731019Z M1973.6667 90.333333C1972.497 89.163659 1972.9441 86.574621 1974.9679 82.798617C1976.0503 80.779147 1977.3759 76.394912 1977.9136 73.055874C1978.4513 69.716835 1979.1673 66.538294 1979.5047 65.992447C1980.4954 64.389475 1989.5814 64.790649 1991.0 66.5C1991.7097 67.355129 1993.89 68.0 1996.0716 68.0C2000.7375 68.0 2003.2612 65.024514 2007.5215 54.5C2009.08 50.65 2012.0929 45.185595 2014.2167 42.356879C2018.2101 37.038167 2020.0 32.519543 2020.0 27.756602C2020.0 26.240471 2020.5057 25.0 2021.1238 25.0C2021.8701 25.0 2022.0994 26.788052 2021.8063 30.32263C2021.4533 34.57885 2020.4347 37.033186 2016.7223 42.57263C2014.1688 46.382684 2011.4249 51.361086 2010.6245 53.635746C2009.0013 58.249042 2004.8248 65.323967 2001.7021 68.75C1999.289 71.397537 1994.489 71.731258 1991.2684 69.475409C1990.0712 68.636885 1987.3836 67.849385 1985.2958 67.725409L1981.5 67.5L1980.641 72.5C1980.1685 75.25 1978.706 79.585898 1977.391 82.135328C1973.3017 90.063017 1974.7655 91.154344 1981.8907 85.490294C1987.1111 81.340483 1988.5407 81.21002 1992.9716 84.479043L1996.3317 86.958087L1999.7185 84.864976C2004.0865 82.165358 2004.9501 83.022772 2001.114 86.250616C1997.7419 89.088047 1994.1764 88.957403 1991.4049 85.894862C1988.9079 83.135795 1986.5012 83.552385 1982.1317 87.5C1978.5065 90.775133 1975.2114 91.878046 1973.6667 90.333333Z M2002.0298 38.055694C2001.4575 36.986325 2000.5417 35.834767 1999.9946 35.496677C1998.586 34.626073 1998.7557 37.355664 2000.2 38.8C2002.067 40.66698 2003.1841 40.212561 2002.0298 38.055694Z M2003.0 89.056704C2003.0 87.979534 2006.9638 85.0 2008.3968 85.0C2008.9203 85.0 2008.2917 86.125 2007.0 87.5C2004.5714 90.085096 2003.0 90.696658 2003.0 89.056704Z M2009.0 40.328741C2009.0 39.959548 2009.7343 38.846096 2010.6318 37.854403C2011.7471 36.622017 2012.2477 34.28463 2012.2134 30.469531C2012.1789 26.632471 2012.5284 25.013031 2013.3316 25.288579C2015.0551 25.879866 2014.3959 35.46612 2012.4249 38.4743C2010.8789 40.833779 2009.0 41.851126 2009.0 40.328741Z"/>
</svg>
