<svg xmlns="http://www.w3.org/2000/svg"
     width="35.5" height="64.0"
     viewBox="549.2188 17.4930 49.1619 88.5070">
  <path d="M 553.21875 29.0625 L 554.375 30.96875 C 555.85192 30.031866 557.1882 29.219866 559.125 27.90625 C 563.20976 25.13579 568.57797 24.491664 571.5 26.40625 C 576.3918 29.611482 577.99856 34.874831 579.1875 51.3125 C 579.81705 60.016344 580.77622 66.828962 581.40625 67.25 C 582.0109 67.654078 583.45484 67.991578 584.625 68 C 588.43018 68.027387 589.04766 70.017298 587.4375 77.0625 C 585.20006 86.852301 580.61883 98 578.84375 98 C 578.38712 98 576.83912 96.0875 575.375 93.75 C 573.91089 91.4125 572.33988 89.255105 571.90625 88.96875 C 570.7171 88.183485 565.8752 70.777836 566.4375 69.3125 C 566.76651 68.45511 567.9525 68.23425 570.0625 68.65625 C 574.29306 69.502363 574.98145 68.13731 575 58.6875 C 575.01687 50.089827 572.67975 38.05855 570.15625 33.71875 C 567.65671 29.420163 565.15197 29.42148 556.375 33.71875 C 556.26543 33.772395 556.2317 33.79167 556.125 33.84375 L 557.375 35.9375 C 558.17131 35.4991 558.75982 35.162971 559.78125 34.625 C 565.5909 31.565157 566.84323 31.860286 569.46875 36.9375 C 570.87097 39.64908 572.37388 49.257985 572.25 54.75 C 572.20969 56.5375 572.13959 59.862551 572.09375 62.125 L 572 66.21875 L 567.59375 65.5625 C 565.16752 65.198664 562.93085 65.317622 562.625 65.8125 C 562.31915 66.307378 562.78925 69.202268 563.65625 72.25 C 565.17857 77.601319 565.13184 77.897348 563.09375 80.65625 C 561.933 82.227526 560.47956 85.996964 559.84375 89.03125 C 558.84205 93.811655 558.93376 95.046487 560.46875 98.28125 C 561.44307 100.33447 562.62877 102 563.125 102 C 563.62123 102 564.82765 100.3125 565.78125 98.25 C 567.35564 94.844814 569.6511 92.113388 571.03125 92.03125 C 571.32517 92.013759 572.34965 93.338763 573.3125 94.96875 C 575.41892 98.534635 577.78237 101 579.09375 101 C 579.62302 101 580.98922 99.425 582.125 97.5 C 583.26078 95.575 584.51245 94 584.90625 94 C 585.30006 94 586.4057 95.595394 587.34375 97.5625 C 589.22021 101.49748 590.83355 101.59916 592.78125 97.90625 C 594.38064 94.873744 593.57935 88.595199 590.90625 83.0625 C 589.25367 79.642065 589.11122 78.306407 589.96875 75.21875 C 591.63972 69.202158 591.29436 68.087937 587.25 66.25 C 585.1875 65.312708 583.36637 64.478515 583.1875 64.375 C 583.00863 64.271484 582.24986 57.696525 581.53125 49.78125 C 580.44963 37.867558 579.79674 34.50448 577.625 30.21875 C 574.20373 23.467196 570.61363 21.493046 564.71875 23.0625 C 562.39025 23.682442 559.825 24.759101 559 25.46875 C 558.33645 26.039525 555.68918 27.623384 553.21875 29.0625 z M 565.6875 82.46875 C 566.48979 82.440203 567.20849 83.571399 567.96875 85.875 C 569.19476 89.589867 569.09738 90.000907 566.5 93.40625 C 564.98982 95.386196 563.42454 97 563 97 C 561.34475 97 561.26004 89.457051 562.875 86.0625 C 564.00289 83.691716 564.88521 82.497297 565.6875 82.46875 z M 588.4375 85.1875 C 589.71391 85.617623 591 88.515569 591 92.4375 C 591 94.398657 590.56713 96 590.03125 96 C 588.34271 96 585.8029 89.934679 586.4375 87.40625 C 586.89986 85.56406 587.67165 84.929426 588.4375 85.1875 z "/>
</svg>
