<svg xmlns="http://www.w3.org/2000/svg"
     width="39.1" height="64.0"
     viewBox="4263.6346 14.6254 53.1158 86.9783">
  <path d="M 4300.7812,60.59375 C 4298.7462,60.985305 4296.7051,60.086488 4293.625,57.5625 L 4290.7188,55.21875 4292,47.09375 C 4293.0907,40.082558 4293.6083,38.75175 4295.875,37.375 4299.8216,34.97798 4302.806,30.74312 4303.8438,26.125 4304.3546,23.851091 4304.4462,22 4304.0312,22 4303.6166,22 4301.5996,23.11765 4299.5625,24.5 4295.8591,27.013221 4289.5298,30 4287.875,30 4286.5259,30 4286.9026,25.794409 4288.5,23 4290.3702,19.728402 4290.3402,19.234589 4288.25,18.78125 4287.5483,18.629055 4286.6607,18.625392 4285.6875,18.75 4282.7678,19.123825 4279.064,20.593063 4277.1562,22.34375 4273.5004,25.698708 4270.7353,31.82824 4271.5,34.875 4272.4514,38.665684 4273.75,39.853181 4278.125,41.03125 4281.4678,41.93138 4282,42.454302 4282,44.875 4282,48.76066 4280.188,53.762193 4277.0312,58.5 4274.5613,62.206917 4271.0755,70.191544 4269.4375,75.9375 4267.6346,82.261999 4269.9626,92.89499 4273.7812,95.8125 4276.1257,97.603685 4280.8485,96.518021 4284.0312,93.46875 4287.4541,90.189555 4292.3766,90.209678 4297.2188,93.5 4301.8529,96.648934 4303.5995,96.630085 4308.3438,93.40625 4312.7504,90.411941 4312.6322,89.122845 4308.1562,91.4375 4304.0039,93.584746 4302.3953,93.408624 4297.2188,90.375 4291.8789,87.245607 4288.1713,87.530031 4282.125,91.53125 4278.2428,94.100406 4277.9147,94.166185 4275.5625,92.625 4272.58,90.670775 4270.5569,84.110293 4271.4688,79.25 4272.858,71.84426 4276.0993,63.262386 4279.4375,58.09375 4281.3596,55.117795 4283.4721,50.292397 4284.125,47.375 4285.545,41.029749 4284.7198,39.534142 4278.9062,37.96875 4276.038,37.19642 4274.8723,36.262908 4274.4062,34.40625 4273.461,30.640016 4276.1292,24.827326 4280,22.21875 4284.2511,19.353964 4286.6046,19.672306 4286.1875,23.03125 4285.2595,30.504709 4285.4385,31.480182 4287.7812,31.8125 4289.0391,31.990938 4292.535,30.753438 4295.5312,29.0625 4298.5274,27.371562 4301.2026,26 4301.5,26 4302.9723,26 4298.5164,32.28063 4295.0938,35.03125 4291.6076,37.832673 4290.9816,39.087033 4289.0938,46.8125 L 4287,55.4375 4291.25,59.1875 C 4294.4837,62.029012 4296.3811,62.936359 4299.1875,62.96875 4300.0138,62.978287 4300.6676,62.761092 4301.375,62.625 L 4300.7812,60.59375 z M 4302.5,66.6875 C 4300.3305,67.118043 4297.7236,66.442313 4293,65 4289.425,63.908403 4285.7762,63.004202 4284.875,63 4283.8368,62.99516 4281.7022,65.926244 4279.0625,71 4275.5889,77.676704 4274.9336,79.803078 4275.1875,83.75 4275.5819,89.881363 4277.617,90.330668 4283.1875,85.5625 4288.1161,81.343831 4290.3649,81.098558 4292.5938,84.5 4295.0508,88.249947 4299.6797,87.870301 4304.5938,83.53125 4308.7308,79.878128 4307.6216,78.585887 4303.2812,82 4301.8827,83.1 4299.7267,84 4298.5,84 4297.2733,84 4295.1172,83.1 4293.7188,82 4290.0451,79.110343 4287.0409,79.517788 4282.5312,83.53125 4279.0071,86.667818 4278.4699,86.866496 4277.8438,85.28125 4276.2225,81.176063 4277.4623,77.36885 4283.6562,67.28125 L 4285.0312,65.03125 4290.625,67.53125 C 4296.0743,69.941181 4299.4771,70.476748 4303.1875,69.125 L 4302.5,66.6875 z M 4310.0312,84.125 C 4309.3781,84.294043 4308.3872,84.914881 4307,86 4305.625,87.075541 4305.0889,87.95652 4305.8125,87.96875 4307.7064,88.000756 4311,86.101406 4311,84.96875 4311,84.242644 4310.6845,83.955957 4310.0312,84.125 z"/>
</svg>
