<svg xmlns="http://www.w3.org/2000/svg"
     width="42.4" height="64.0"
     viewBox="4296.7812 15.4078 38.2373 57.7172">
  <path d="M 4300.7812 60.59375 L 4301.375 62.625 C 4305.4796 61.835301 4307.8436 58.577724 4310.0312 50.5 C 4312.6964 40.65935 4318.2225 29.819747 4322.375 26.3125 L 4325.5 23.6875 L 4325.8125 26.34375 C 4326.7019 33.814955 4317.5651 53.559902 4309.4688 61.65625 C 4306.4302 64.694769 4304.6874 66.253418 4302.5 66.6875 L 4303.1875 69.125 C 4304.4512 68.664631 4305.7643 67.996302 4307.1875 67.09375 C 4312.7189 63.585861 4315.5146 59.976722 4320.8125 49.5 C 4328.0842 35.120043 4331.0185 20.996448 4326.9062 20.21875 C 4322.6183 19.407791 4311.8982 35.322504 4308.5 47.5625 C 4305.9609 56.708331 4305.0625 58.630813 4302.5625 59.96875 C 4301.9559 60.293405 4301.3658 60.48128 4300.7812 60.59375 z "/>
</svg>
