<svg xmlns="http://www.w3.org/2000/svg"
     width="51.6" height="64.0"
     viewBox="224.4378 19.6875 70.5622 87.5211">
  <path d="M 277.4375 90.84375 C 276.95412 90.190955 276.62236 89.464447 276.40625 88.3125 C 276.06504 86.493694 274.45688 83.16436 272.84375 80.9375 C 267.34237 73.343076 267.26596 70.790635 272.3125 65.25 C 274.82491 62.4916 277.13794 62.396517 279.4375 64.9375 C 280.9691 66.629893 281.0652 67.661624 280.15625 73.5 C 279.4009 78.351812 279.41003 80.862566 280.25 82.8125 C 281.30402 85.259358 281.44992 84.908848 282.03125 78.5 C 282.38047 74.65 283.01527 70.084736 283.4375 68.34375 C 284.1481 65.413723 283.89924 64.94639 279.875 62.03125 L 275.53125 58.875 L 270.625 64 C 266.13089 68.711139 265.8042 69.412111 266.28125 72.96875 C 266.59016 75.271846 268.25811 78.749164 270.40625 81.5625 C 274.64605 87.115197 275.067 91.510798 271.90625 96.625 C 268.57272 102.01877 265.96753 100.52155 268.15625 94.46875 C 269.2625 91.409478 269.19893 90.577272 267.6875 88.21875 C 266.72943 86.723702 265.24344 83.8125 264.375 81.75 C 263.50656 79.6875 262.31284 78 261.75 78 C 260.12849 78 254.05284 84.89251 253.40625 87.46875 C 253.0836 88.754301 253.33537 90.785264 253.96875 91.96875 C 255.19948 94.268385 254.44066 100 252.90625 100 C 252.39996 100 252 99.611955 252 99.15625 C 252 98.700544 250.629 96.287774 248.96875 93.78125 C 245.40754 88.404811 245.7169 87.069043 251.9375 79.65625 C 257.99404 72.438972 257.3296 66.225501 250 61.375 L 245.90625 58.6875 L 243.28125 60.65625 C 241.82709 61.741939 239.77135 63.777666 238.71875 65.1875 C 237.12706 67.319399 237.00733 68.113937 238 69.96875 C 239.26224 72.327263 238.54076 79 237.03125 79 C 235.93576 79 232.38145 71.462265 231.59375 67.5 C 231.07167 64.873874 231.65314 63.783408 236.4375 58.75 C 239.44352 55.5875 242.23296 53 242.625 53 C 243.01703 53 245.73262 54.35 248.65625 56 C 255.05999 59.614047 256.78775 59.743075 257.5625 56.65625 C 258.44329 53.146895 257.24172 42.837072 255.46875 38.59375 C 253.63551 34.206192 254.1792 31.780397 257.46875 29.625 C 259.7539 28.127714 259.98264 28.189895 262.53125 31.21875 C 264.89089 34.023018 265.11306 34.847126 264.375 38.4375 C 263.39657 43.197104 263.29738 54.769493 264.21875 57.125 C 264.78381 58.569562 265.58253 58.440436 270.96875 55.875 C 277.81133 52.615905 278.99768 52.817326 283.4375 58.09375 C 288.25127 63.814594 289.10335 66.260094 287.40625 69.53125 C 285.78026 72.665357 285.85014 81.679695 287.5 81.1875 C 288.05 81.023421 288.37628 79.368151 288.21875 77.5 C 288.06123 75.631849 288.62373 72.459938 289.46875 70.4375 C 290.31378 68.415061 291 65.970146 291 65 C 291 64.029855 288.1875 60.194712 284.75 56.5 L 278.5 49.78125 L 272.8125 52.3125 C 269.69257 53.695431 266.88007 54.567573 266.5625 54.25 C 265.78855 53.476059 265.8291 45.041964 266.625 41.0625 C 267.20978 38.138574 267.56608 37.88157 270.875 38.03125 C 272.86143 38.121106 275.0506 38.147041 275.71875 38.09375 C 277.7111 37.934842 279.02084 34.385435 278.34375 31 C 277.73946 27.978528 277.53653 27.861381 274.09375 28.5 C 272.10931 28.868103 269.66843 29.903839 268.65625 30.8125 C 267.00244 32.297181 266.69841 32.327573 265.65625 30.9375 C 265.01843 30.086741 263.46607 28.097342 262.21875 26.53125 L 259.96875 23.6875 L 257.375 26.09375 C 255.95604 27.417902 253.9006 29.781155 252.78125 31.34375 L 250.71875 34.1875 L 252.84375 37.9375 C 255.12926 42.004013 256.9499 56 255.1875 56 C 254.65391 56 252.23739 54.868375 249.84375 53.5 C 245.03558 50.751304 241.48551 50.335611 239.6875 52.28125 C 228.43782 64.454611 228.75038 63.934374 229.46875 67.8125 C 230.13279 71.397366 234.26366 80.596188 236 82.375 C 236.49198 82.879008 237.78938 81.805166 239 79.875 C 240.63931 77.261317 241.01636 75.367254 240.6875 71.5625 C 240.3286 67.410343 240.63409 66.272167 242.59375 64.3125 C 243.87229 63.033967 245.31167 62 245.8125 62 C 247.87075 62 251.93714 66.278585 253.03125 69.59375 C 254.16007 73.014126 254.03825 73.342868 249.59375 79 C 243.48503 86.775426 243.17708 89.024717 247.34375 96.5 C 249.95866 101.19132 251.2189 102.5 253.0625 102.5 C 254.9447 102.5 255.57622 101.7939 256.1875 99 C 256.60867 97.075 256.69248 93.609334 256.375 91.3125 C 255.9396 88.162506 256.25895 86.511561 257.65625 84.59375 C 258.6751 83.195368 259.77449 82.048534 260.09375 82.03125 C 260.41301 82.013966 262.12698 84.072652 263.9375 86.59375 C 266.80047 90.580368 267.1011 91.482682 266.125 93.625 C 265.50772 94.979782 265 96.917373 265 97.90625 C 265 100.31857 268.32194 103.20862 270.25 102.46875 C 270.56376 102.34835 271.30051 102.4033 272 102.46875 L 273.75 98.46875 C 273.67392 97.900499 273.79248 97.285156 274.34375 96.53125 C 274.50436 96.311608 274.65806 96.196985 274.8125 96.03125 L 277 91 L 277.4375 90.84375 z M 274.1875 31 C 276.30863 30.980792 277.19852 32.341615 276.40625 34.40625 C 275.61275 36.474058 271.10706 36.476852 270.3125 34.40625 C 269.64438 32.665172 271.5013 31.024325 274.1875 31 z "/>
</svg>
