<svg xmlns="http://www.w3.org/2000/svg"
     width="60.9" height="64.0"
     viewBox="6136.3384 15.4500 86.0981 90.5500">
  <path d="M6175.0296 96.75C6173.3736 93.8625 6172.0145 91.171646 6172.0094 90.770324C6171.9926 89.463386 6163.9656 85.90399 6162.7157 86.649251C6162.0471 87.047942 6159.7743 89.314962 6157.665 91.687072C6153.307 96.588264 6152.324 96.829302 6148.6097 93.907611C6143.3552 89.774444 6141.4087 79.744278 6144.449 72.467881C6146.1112 68.489503 6150.0 67.483684 6150.0 71.032119C6150.0 74.22714 6152.7548 80.0 6154.2795 80.0C6155.0393 80.0 6157.1152 77.975 6158.8926 75.5C6162.4768 70.509085 6162.784 70.369384 6165.5589 72.468197C6169.2907 75.290781 6170.0 74.419403 6170.0 67.012545L6170.0 60.025089L6166.0199 57.512545C6163.8308 56.130645 6161.563 55.0 6160.9804 55.0C6160.3978 55.0 6157.5824 56.575 6154.7239 58.5C6151.8654 60.425 6148.7436 62.0 6147.7864 62.0C6141.5474 62.0 6140.3384 39.678123 6146.3493 35.467889C6149.7033 33.118637 6151.3045 33.589668 6150.7076 36.75C6150.4219 38.2625 6149.8727 41.120908 6149.4872 43.102017C6148.5904 47.711093 6150.4277 48.590571 6155.3934 45.929115C6160.2719 43.314405 6161.268 43.454425 6166.5679 47.5C6169.0898 49.425 6171.5292 51.0 6171.9887 51.0C6173.4114 51.0 6174.0685 43.765872 6173.1522 38.189834C6172.0996 31.783748 6170.999 30.395011 6168.1731 31.907359C6165.1859 33.506064 6162.5329 33.246307 6160.655 31.171259C6158.4297 28.71233 6158.5682 25.4318 6161.0 23.0C6163.672 20.328031 6166.1466 20.479713 6169.4231 23.516303C6172.2674 26.152302 6172.544 26.109611 6177.7025 22.238393C6181.4182 19.449953 6184.0491 19.854802 6186.0089 23.51657C6187.3567 26.034952 6190.3639 26.83824 6191.5088 24.98571C6192.0843 24.054567 6199.3058 20.0 6200.3887 20.0C6200.6464 20.0 6201.5643 20.707143 6202.4286 21.571429C6204.8084 23.951296 6204.3343 28.041677 6201.3129 31.195281C6198.4862 34.145707 6195.0833 34.74257 6190.6653 33.062846C6187.3877 31.816705 6187.1014 33.195024 6188.3412 44.25C6189.3226 53.001297 6190.3651 54.674834 6192.9186 51.598113C6195.304 48.723865 6199.0294 48.748388 6203.2396 51.666052L6207.2314 54.432396L6209.1224 52.097186C6210.1624 50.81282 6211.7244 47.316047 6212.5934 44.326579C6213.4892 41.245436 6214.6646 39.05487 6215.3073 39.269095C6218.081 40.193676 6218.4365 53.446773 6215.8188 58.338474C6213.922 61.882895 6207.7507 68.0 6206.0717 68.0C6205.1391 68.0 6203.378 66.65 6202.1581 65.0C6199.3563 61.210379 6196.9676 61.211507 6192.6477 65.004491C6190.0436 67.290914 6189.0613 69.105304 6188.5379 72.596141C6188.1595 75.119078 6188.0669 77.400239 6188.3321 77.665386C6188.5972 77.930534 6190.2542 77.402772 6192.0143 76.492581C6195.1674 74.862056 6195.271 74.883055 6199.0486 77.918845C6201.1574 79.61348 6203.3208 81.0 6203.8562 81.0C6204.3916 81.0 6206.5215 78.695259 6208.5893 75.878353C6212.0556 71.156242 6212.4523 70.89812 6213.6745 72.569483C6215.5291 75.10581 6215.3265 83.20732 6213.2957 87.716073C6211.1286 92.527338 6206.1227 98.0 6203.8888 98.0C6202.9435 98.0 6200.3875 95.975 6198.2089 93.5C6193.9954 88.713229 6193.0525 88.388541 6188.2383 90.066787C6185.8396 90.902977 6184.7014 92.308019 6182.9729 96.566787C6181.76 99.555054 6180.1541 102.0 6179.4041 102.0C6178.6541 102.0 6176.6856 99.6375 6175.0296 96.75Z M6154.1399 55.5C6157.0629 53.575 6160.1477 52.0 6160.9951 52.0C6161.8424 52.0 6164.1913 53.125 6166.2148 54.5C6170.4023 57.34548 6172.0 57.636411 6172.0 55.553454C6172.0 53.730425 6161.9824 47.0 6159.2689 47.0C6158.1557 47.0 6156.6847 47.675 6156.0 48.5C6155.3153 49.325 6153.2438 50.0 6151.3966 50.0C6148.6458 50.0 6147.9243 49.546421 6147.409 47.493427C6147.063 46.114812 6147.0637 43.302312 6147.4105 41.243427C6147.9627 37.965637 6147.8844 37.748776 6146.7809 39.5C6145.4329 41.639345 6145.0361 54.324237 6146.2257 57.25C6147.2145 59.681989 6148.0807 59.490455 6154.1399 55.5Z M6158.1251 87.755607L6162.7503 82.510488L6166.4989 84.298104C6168.5607 85.281293 6170.403 85.930304 6170.593 85.74035C6170.7829 85.550395 6170.6839 83.826967 6170.3729 81.910509C6169.9722 79.441359 6168.9568 77.937805 6166.8879 76.750466C6163.2825 74.681232 6162.1088 75.106592 6159.2408 79.521954C6155.0809 85.926181 6149.8182 83.47847 6148.5296 74.540054C6147.4408 66.988255 6145.7003 71.394674 6146.1619 80.534421C6146.4687 86.609673 6146.9471 88.314833 6148.9406 90.43672C6150.265 91.846524 6151.8327 93.000164 6152.4243 93.000363C6153.0159 93.000563 6155.5813 90.640423 6158.1251 87.755607Z M6167.483 29.018758C6168.977 27.367978 6169.0591 26.776144 6167.9755 25.470501C6166.2943 23.444719 6162.6204 23.975481 6162.1756 26.308413C6161.3033 30.883814 6164.3754 32.452652 6167.483 29.018758Z M6181.8221 92.25C6184.5279 84.805898 6187.0813 58.775519 6185.8685 51.0C6183.9983 39.0099 6183.7456 33.343843 6184.9785 31.040163C6186.0502 29.037734 6185.8865 28.431993 6183.6771 26.222523C6181.3669 23.912353 6180.8886 23.803508 6178.1081 24.955234C6173.2919 26.950167 6172.7806 28.165532 6174.8973 32.587637C6176.3365 35.5943 6176.68 38.120479 6176.3811 43.5C6175.9257 51.693294 6174.0427 61.0 6172.8403 61.0C6172.3781 61.0 6172.0 60.55 6172.0 60.0C6172.0 59.45 6171.5921 59.0 6171.0936 59.0C6170.5951 59.0 6170.4213 59.894939 6170.7073 60.988753C6170.9933 62.082567 6171.5873 62.755092 6172.0271 62.483254C6172.4669 62.211416 6172.8483 66.621729 6172.8746 72.283949C6172.9131 80.581846 6173.4135 84.026117 6175.4542 90.039447C6176.8467 94.142751 6177.9892 97.6125 6177.993 97.75C6177.9969 97.8875 6178.3897 98.0 6178.866 98.0C6179.3423 98.0 6180.6725 95.4125 6181.8221 92.25Z M6206.1555 93.75C6208.7632 91.63021 6211.7138 85.709238 6212.3844 81.25C6212.736 78.9125 6212.6808 77.004792 6212.2618 77.010648C6211.8428 77.016505 6209.9743 78.591505 6208.1096 80.510648C6206.2448 82.429792 6204.1692 84.0 6203.4971 84.0C6202.8249 84.0 6200.5763 82.65 6198.5 81.0C6196.4237 79.35 6194.4918 78.0 6194.2069 78.0C6192.5367 78.0 6187.0 83.416821 6187.0 85.050891C6187.0 87.275533 6187.3147 87.343726 6191.7332 86.076523C6194.7574 85.209181 6195.1506 85.406738 6198.2007 89.326523C6202.9219 95.39366 6203.6413 95.793723 6206.1555 93.75Z M6210.8815 61.00485C6213.7694 57.018213 6215.7562 50.374968 6214.4276 49.147816C6214.0418 48.791517 6213.5068 49.11812 6213.2386 49.873601C6212.9704 50.629081 6211.5098 52.636314 6209.9928 54.334117L6207.2346 57.421033L6203.1387 54.710517C6198.1009 51.376605 6197.399 51.364838 6192.7321 54.536051C6189.6166 56.653137 6189.0 57.650314 6189.0 60.572102L6189.0 64.072102L6192.7321 61.536051C6197.548 58.263555 6199.2086 58.341141 6202.662 62.0C6204.2193 63.65 6206.0546 65.0 6206.7405 65.0C6207.4263 65.0 6209.2898 63.202183 6210.8815 61.00485Z M6200.3531 28.739102C6202.2246 26.223049 6202.2667 25.838109 6200.8271 24.398487C6199.3874 22.958865 6198.8816 23.049627 6195.1237 25.42193C6190.7771 28.165774 6189.8252 30.534541 6192.75 31.328242C6196.0984 32.236883 6198.3119 31.483088 6200.3531 28.739102Z"/>
</svg>
