<svg xmlns="http://www.w3.org/2000/svg"
     width="42.7" height="64.0"
     viewBox="5180.2870 11.2886 61.9263 92.7114">
  <path d="M 5213 17 C 5212.45 17 5212 18.0404 5212 19.3125 C 5212 20.5846 5210.7139 22.851495 5209.1562 24.34375 L 5206.3438 27.0625 L 5203.625 24.90625 C 5202.1286 23.729193 5200.6265 23.029768 5200.3125 23.34375 C 5199.2497 24.406566 5200.9988 27.179085 5203.0625 27.71875 C 5204.5027 28.095376 5204.9006 28.73871 5204.4062 29.875 C 5204.0189 30.765218 5203.197 32.9625 5202.5938 34.75 C 5201.3073 38.561695 5199.5439 38.874378 5196.9375 35.75 C 5195.3733 33.875001 5195.0589 33.798296 5195.0312 35.21875 C 5195.0129 36.15625 5196.125 38.03125 5197.5 39.40625 C 5199.8949 41.801111 5200.7287 44.927581 5199.3438 46.3125 C 5198.9843 46.671877 5197.2073 46.038668 5195.375 44.90625 C 5191.2491 42.356289 5188.8379 43.033832 5186.5 47.375 C 5184.287 51.484276 5185.07 55.336635 5188.5625 57.625 C 5190.869 59.13631 5191.4162 59.151059 5195.0625 57.71875 L 5199.0312 56.15625 L 5200.4375 59.5 C 5201.6289 62.351388 5202.4213 69.142086 5202.0938 73.75 C 5201.9624 75.597843 5199.6044 75.269866 5196.7188 73 C 5193.4039 70.392533 5192.5553 70.491773 5191.1562 73.5625 C 5189.1929 77.871516 5189.7614 79.919189 5193.5 82.125 C 5195.5486 83.333708 5197 84.980932 5197 86.09375 C 5197 87.139423 5196.652 88 5196.2188 88 C 5195.7855 88 5193.8729 89.305702 5191.9688 90.90625 L 5188.5 93.8125 L 5191.4375 96.90625 C 5193.0529 98.605702 5195.0496 100 5195.875 100 C 5196.7003 100 5200.016 97.915762 5203.25 95.375 L 5209.125 90.75 L 5214.8125 94.5625 C 5217.9378 96.66138 5221.0097 98.769413 5221.625 99.21875 C 5222.3186 99.725239 5224.3484 98.432859 5226.9688 95.8125 L 5231.1875 91.5625 L 5227.0938 88.03125 C 5224.8327 86.085975 5222.9915 84.066253 5223 83.53125 C 5223.0085 82.996248 5224.8304 80.971248 5227.0625 79.03125 L 5231.125 75.5 L 5228.2188 72.0625 L 5225.3125 68.59375 L 5220.3125 71.8125 C 5217.569 73.572989 5215.0595 75 5214.75 75 C 5214.4405 75 5213.6565 72.6375 5213 69.75 C 5212.3436 66.8625 5210.9228 61.92904 5209.8438 58.78125 C 5208.21 54.015262 5208.0594 52.175414 5208.875 47.78125 C 5209.9725 41.868259 5213.2744 33.559101 5214.9375 32.53125 C 5217.197 31.13477 5219.7652 33.21884 5222.4688 38.5625 C 5224.8985 43.364855 5225.2102 44.811369 5224.6875 49.8125 C 5224.0975 55.457395 5224.6249 60.003529 5225.875 60 C 5226.7929 59.997409 5231.6427 51.937656 5232.5 49 C 5232.9013 47.625 5233.8796 45.761714 5234.6562 44.875 C 5236.2046 43.107077 5238.2133 37 5237.25 37 C 5236.9192 37 5235.8502 37.711228 5234.875 38.59375 C 5233.2183 40.093079 5233.0664 39.978282 5232.2188 36.84375 C 5231.572 34.452417 5231.6928 32.737451 5232.6562 30.8125 C 5235.1069 25.915638 5233.4976 22.36849 5230.9688 27.09375 C 5229.8896 29.110229 5229.7798 29.095889 5227.8438 27.34375 C 5226.1996 25.855749 5225.9419 24.794305 5226.4688 21.28125 C 5227.196 16.431133 5225.5522 15.288564 5224.5312 19.9375 C 5223.9312 22.669491 5223.6287 22.809199 5220.1875 22.28125 C 5216.0003 21.638849 5214 20.37929 5214 18.375 C 5214 17.617345 5213.55 17 5213 17 z M 5214.5 24.3125 C 5218.2992 23.791134 5222.2309 25.231809 5221.3125 27.625 C 5220.833 28.874447 5221.1524 29.100779 5222.75 28.59375 C 5224.9413 27.898251 5228 30.157614 5228 32.46875 C 5228 33.191595 5228.6784 35.049631 5229.5 36.625 C 5231.4573 40.377937 5231.3985 46.360802 5229.375 50.625 C 5226.848 55.950364 5226.1889 55.500357 5226.6562 48.75 C 5227.0289 43.36716 5226.6943 41.746609 5224.25 37 C 5218.7601 26.339375 5213.3377 26.894834 5208.6562 38.625 C 5204.6096 48.76437 5204.5424 51.708932 5208 61.78125 C 5209.6452 66.573833 5210.996 72.157459 5211 74.1875 C 5211.004 76.217541 5211.428 78.165828 5211.9688 78.5 C 5212.5094 78.834172 5215.6579 77.626712 5218.9375 75.8125 C 5223.863 73.087858 5225.1105 72.72478 5226.1875 73.8125 C 5227.2619 74.897499 5226.7645 75.777789 5223.25 78.8125 C 5220.904 80.838238 5218.9972 82.95 5219.0312 83.5 C 5219.0652 84.05 5220.8509 85.85 5223 87.5 C 5227.4228 90.895707 5227.7557 91.991284 5225.1562 94.34375 C 5222.5516 96.700824 5221.6842 96.475299 5215.7812 92 C 5212.8825 89.802366 5210.1415 88.002366 5209.7188 88 C 5209.2959 87.997633 5206.371 90.025346 5203.2188 92.5 C 5196.9732 97.403031 5195.8845 97.77078 5194 95.5 C 5192.9485 94.233056 5193.4832 93.328246 5197.4062 89.875 C 5201.955 85.871088 5202.0244 85.707473 5200.2812 83.78125 C 5199.2961 82.692723 5197.2638 81.157815 5195.75 80.375 C 5192.9729 78.938907 5192.1483 76.64439 5194 75.5 C 5194.5523 75.158651 5196.8333 75.903376 5199.0625 77.15625 C 5202.4635 79.067711 5203.259 79.199113 5204 78 C 5205.5091 75.558371 5204.857 64.781214 5202.8438 58.6875 C 5200.9327 52.903546 5200.9541 52.819103 5203.0625 42.6875 C 5205.0952 32.919755 5207.5241 27.632489 5210.9375 25.53125 C 5211.9887 24.884148 5213.2336 24.486289 5214.5 24.3125 z M 5191.6562 46.625 C 5192.2669 46.565438 5192.9598 46.785832 5193.9375 47.28125 C 5195.2436 47.943073 5196.8023 49.315542 5197.4062 50.3125 C 5198.2978 51.783896 5198.0414 52.489879 5196.125 54.0625 C 5193.7943 55.97521 5189.9523 56.639743 5188.6562 55.34375 C 5187.3369 54.024405 5188.0406 49.262654 5189.7812 47.6875 C 5190.5129 47.025343 5191.0456 46.684562 5191.6562 46.625 z "/>
</svg>
