<svg xmlns="http://www.w3.org/2000/svg"
     width="64.0" height="56.2"
     viewBox="5115.7632 11.4056 49.0615 43.0944">
  <path d="M 5146.5,50.5 5150.5938,50.40625 C 5155.5773,50.29455 5157,49.501845 5157,46.84375 5157,44.464972 5153.3651,39 5151.7812,39 5151.1832,39 5149.1831,37.84049 5147.3438,36.4375 5141.8333,32.234545 5143.4131,24.878525 5149.5,26.40625 5156.0908,28.060424 5160.8247,19.404868 5154.625,17.03125 5153.1642,16.471973 5151.3406,16.847166 5148.75,18.28125 L 5145,20.375 5142.4375,17.9375 5139.875,15.53125 5135.9062,17.8125 5131.9062,20.125 5128.5938,18.0625 C 5124.375,15.455257 5121.3135,15.405632 5120.5,17.96875 5119.7632,20.29014 5121.7725,24.875667 5124.1875,26.375 5125.3995,27.127491 5126.5671,27.044573 5128.3438,26.09375 5131.5989,24.351724 5133,25.382915 5133,29.5 5133,32.956974 5130.14,36.18748 5125.9062,37.53125 5123.2424,38.376708 5121.2453,42.893766 5121.9375,46.5 5122.4544,49.192818 5122.9258,49.540395 5126.6562,49.8125 L 5130.75,50.09375 5132.5312,48.15625 C 5131.7736,47.527143 5130.0692,47 5128.375,47 5125.4505,47 5125,46.668463 5125,44.53125 5125,42.769458 5126.2657,41.123606 5129.4375,38.78125 5135.1086,34.593264 5136.6973,31.138125 5135.1875,26.21875 5134.2566,23.185791 5134.3343,22.27651 5135.6875,20.78125 5137.787,18.461328 5139.2593,18.523994 5141.5,21 5143.1136,22.78301 5143.1784,23.430282 5142.0312,26.90625 5140.1916,32.480404 5141.281,35.324642 5146.5938,38.84375 5149.1223,40.518599 5151.5725,42.021008 5152.0312,42.1875 5152.4901,42.353992 5153.1785,43.765271 5153.5625,45.3125 L 5154.25,48.125 5149.4688,47.8125 C 5146.006,47.585709 5145.0107,47.629908 5144.375,48.90625 L 5146.5,50.5 z M 5152.6875,19.03125 C 5154.5708,18.98096 5155.2923,20.936436 5153.9688,22.53125 5152.5562,24.233321 5149.4174,24.472429 5148.4688,22.9375 5147.7668,21.801715 5150.6959,19.084433 5152.6875,19.03125 z M 5123.75,19.0625 C 5124.4771,18.706061 5125.8097,19.131429 5127.5625,20.46875 5129.2426,21.750631 5129.2983,22.100003 5128,22.96875 5125.8307,24.420262 5124.2877,24.214581 5123.5938,22.40625 5122.8843,20.557468 5123.0229,19.418939 5123.75,19.0625 z"/>
</svg>
