<svg xmlns="http://www.w3.org/2000/svg"
     width="48.4" height="64.0"
     viewBox="3296.2326 13.8884 68.7674 91.0068">
  <path d="M3338.7091 96.923367C3337.8488 95.590515 3336.6014 93.287255 3335.937 91.805012C3335.2727 90.322768 3334.149 88.887424 3333.44 88.615357C3332.0958 88.099538 3329.6235 91.229823 3327.9977 95.506173C3325.9487 100.89522 3321.4125 96.437142 3322.485 90.088603C3322.8299 88.047443 3324.2461 85.057608 3325.6322 83.444524C3328.6928 79.882625 3328.3853 77.265522 3323.847 68.25C3320.524 61.648807 3318.5873 60.588623 3315.6932 63.786536C3312.2361 67.606595 3310.0234 74.858737 3308.8001 86.379177C3307.791 95.881961 3307.2755 98.007129 3306.0374 97.768684C3301.0548 96.809116 3300.2326 80.963283 3304.5447 69.0C3307.9083 59.667938 3311.3293 52.801509 3313.5214 50.98222C3314.982 49.770076 3315.9084 49.96157 3320.6865 52.463203C3326.9969 55.767142 3327.4082 55.518562 3328.4347 47.780528C3329.2796 41.411337 3328.2307 40.111396 3322.7313 40.712001C3316.6225 41.379147 3313.4263 39.821854 3311.9934 35.48012C3310.9862 32.428222 3311.0675 31.111658 3312.494 27.37657C3315.7256 18.914742 3321.6751 17.888407 3326.37 24.982851C3327.8321 27.192283 3329.7021 29.0 3330.5255 29.0C3331.3489 29.0 3334.605 27.272795 3337.7613 25.161767C3346.3929 19.38865 3349.4314 18.39741 3352.4445 20.371668C3353.7969 21.257808 3355.37 23.670603 3355.9448 25.740544C3357.2323 30.376485 3357.2323 30.623284 3355.9474 35.25C3354.6884 39.783387 3352.6048 40.07026 3350.5 36.0C3349.6468 34.35 3348.2673 33.0 3347.4345 33.0C3344.6313 33.0 3338.4462 36.797683 3337.0742 39.361293C3335.593 42.129003 3336.0793 53.479347 3337.7508 55.150793C3338.3101 55.71009 3340.5516 55.26382 3343.4731 54.011533C3346.1147 52.87923 3349.1021 52.215019 3350.1119 52.535508C3355.6487 54.292816 3361.0 69.236545 3361.0 82.940838C3361.0 90.028904 3360.6361 92.22779 3359.162 94.048325C3356.4735 97.368447 3355.3665 95.911507 3354.7202 88.202391C3353.902 78.443632 3349.1267 64.58967 3346.449 64.206523C3344.8962 63.984334 3343.865 64.980077 3342.2041 68.305722C3338.7459 75.230245 3338.4734 78.348313 3340.8794 83.466905C3343.3018 88.620338 3343.6331 94.751911 3341.6366 97.482237C3340.3283 99.271548 3340.2102 99.249012 3338.7091 96.923367Z M3338.4825 83.379879C3335.9526 79.062917 3335.9069 78.72161 3337.3079 74.609794C3339.173 69.135983 3343.6148 62.085061 3345.7026 61.283882C3349.3136 59.898204 3355.0735 72.720962 3356.5803 85.5C3357.4377 92.771394 3358.1507 94.078296 3359.057 90.039452C3360.7657 82.424533 3357.0749 62.907484 3352.9295 57.637531C3350.5207 54.575167 3348.231 54.364466 3342.237 56.653584C3337.1923 58.58019 3336.2593 58.032348 3334.9461 52.372264C3333.2394 45.016072 3333.7753 39.420467 3336.4963 36.186795C3341.4798 30.264223 3349.2137 28.985695 3351.8255 33.652661C3352.3266 34.548135 3353.2459 34.966059 3353.8683 34.581381C3356.8194 32.75751 3353.5214 22.0 3350.0112 22.0C3347.5738 22.0 3341.2654 25.064536 3335.3198 29.136846C3333.0207 30.711581 3330.7001 32.0 3330.1629 32.0C3329.6258 32.0 3327.3024 29.75 3325.0 27.0C3322.6976 24.25 3320.2504 22.0 3319.5619 22.0C3315.7287 22.0 3312.6062 31.527136 3314.9835 35.969105C3316.0679 37.995302 3316.7783 38.184083 3321.9198 37.81218C3329.1478 37.289356 3330.2 38.319803 3330.2 45.921125C3330.2 51.854028 3327.95 58.0 3325.7781 58.0C3325.1343 58.0 3322.9277 56.835871 3320.8745 55.413046C3318.8214 53.990221 3316.3222 52.977721 3315.3208 53.163046C3312.823 53.625281 3306.7097 66.255093 3304.555 75.404304C3302.8633 82.587905 3303.1048 93.3287 3304.9841 94.490178C3305.7916 94.989238 3307.0 87.781384 3307.0 82.465764C3307.0 77.052961 3310.8809 66.205283 3314.149 62.483082C3319.2685 56.652235 3321.6874 58.064515 3327.3454 70.188075C3330.7924 77.574091 3330.8533 82.394791 3327.5271 84.574224C3326.0646 85.532444 3324.7983 87.558485 3324.4279 89.532392C3323.3635 95.206324 3324.997 95.650521 3328.1715 90.55035C3332.4269 83.71342 3335.2195 84.711442 3339.2233 94.5L3340.4504 97.5L3340.7826 92.685824C3341.0441 88.896636 3340.5544 86.915304 3338.4825 83.379879Z"/>
</svg>
