<svg xmlns="http://www.w3.org/2000/svg"
     width="64.0" height="63.4"
     viewBox="149.9199 16.7949 90.0801 89.3043">
  <path d="M 183.4375,21.1875 C 182.47041,21.225594 181.38732,22.1717 179.46875,24.03125 176.16572,27.232674 173.54806,27.265017 172.71875,24.09375 172.01048,21.385325 168.20514,20.794859 165.9375,23.0625 162.09793,26.902069 164.36911,32.846718 169.8125,33.15625 174.57086,33.42683 174.90673,33.500479 176.15625,34.75 177.32946,35.923212 177.72235,55.621399 176.59375,56.75 176.34438,56.999374 173.58896,56.007345 170.46875,54.53125 163.92251,51.434384 161.07791,51.723466 158.4375,55.75 156.18455,59.185664 153.91989,68.623128 154.8125,70.84375 155.24104,71.909866 155.83723,70.543947 156.5,67 157.68726,60.651498 160.18527,55.505977 162.5625,54.59375 163.52275,54.225269 166.5481,55.248857 169.78125,57 172.84062,58.657027 175.72156,60 176.1875,60 178.89333,60 180.28832,40.410396 178.09375,33.125 177.17064,30.060494 177.35583,29.487916 180.125,26.71875 L 183.15625,23.6875 186.1875,26.71875 189.21875,29.75 187.53125,35.53125 C 185.42079,42.791003 184.55481,54.004103 185.9375,56 186.84148,57.304879 187.47945,57.198946 190.96875,55.21875 L 195,52.9375 199.46875,57.09375 C 202.12188,59.539323 204.57524,60.987132 205.4375,60.65625 207.86896,59.723211 215.66542,49.099709 216.875,45.0625 218.47014,39.738382 218.30478,38.321464 216,37.71875 213.09216,36.958334 210.7294,30.830395 212.03125,27.40625 213.13187,24.511405 212.76725,23.415156 211.0625,24.46875 210.47591,24.831284 210,27.533937 210,30.46875 210,34.85158 210.42953,36.221965 212.46875,38.15625 216.53781,42.015907 215.20579,47.881336 208.6875,54.75 204.76676,58.881494 203.17917,58.836904 199.71875,54.5 196.70753,50.726077 194.61551,50.222067 191.5625,52.53125 187.46523,55.630268 186.66819,54.573802 187.375,46.96875 187.73483,43.097136 188.8198,38.259636 189.78125,36.21875 191.21102,33.183752 192.05342,32.483278 194.5,32.4375 198.79521,32.357132 202,30.316102 202,27.65625 202,22.923088 197.60233,21.644413 192.03125,24.75 188.90888,26.49056 188.87352,26.485166 186.65625,23.75 185.25482,22.021227 184.40459,21.149406 183.4375,21.1875 z M 225.15625,23.125 C 224.64935,23.21643 223.9986,24.962488 223.5625,28.25 222.94546,32.901437 223.10747,33.666913 225.0625,35.25 226.6631,36.546083 228.17855,36.865206 230.625,36.40625 232.76997,36.00385 234,36.181239 234,36.875 234,38.642322 229.15544,41.290583 226.96875,40.71875 225.44447,40.320142 224.57066,40.955952 223.34375,43.34375 216.85555,55.971091 204,70.313189 204,64.9375 204,63.110737 197.35871,60.922999 194.8125,61.90625 188.95062,64.169889 183.69299,74.024936 184.90625,80.5 185.89169,85.759197 187.7795,88.647615 191.46875,90.46875 195.60563,92.510843 199.85036,92.35582 204.1875,90.03125 207.815,88.087028 207.84082,88.087028 210.3125,90.03125 211.68168,91.108242 214.11443,92 215.6875,92 218.62845,92 226,87.688139 226,85.96875 226,84.446413 224.73576,84.812841 220.78125,87.5 216.17687,90.628754 214.90419,90.622431 211.15625,87.46875 L 208.15625,84.9375 204.8125,86.96875 C 193.67008,93.762039 183.22695,83.398382 189.0625,71.34375 190.96418,67.415407 195.0738,64 197.875,64 198.41012,64 200.22425,65.147197 201.90625,66.5625 203.86915,68.214177 205.58359,68.912264 206.71875,68.5 209.0341,67.659122 215.05916,60.277374 220.71875,51.34375 224.34017,45.627361 225.88736,44.085028 228.34375,43.59375 232.32655,42.797189 236,39.270431 236,36.28125 236,33.335656 233.90526,32.493261 230.03125,33.84375 226.2514,35.16141 225.58431,34.18332 225.875,27.8125 226.02264,24.57702 225.66315,23.03357 225.15625,23.125 z M 218.28125,23.875 C 218.15369,23.836712 218.01452,23.936121 217.875,24.15625 216.8685,25.744198 216.69825,34.385754 217.65625,35.34375 219.12321,36.810709 221.22839,36.000765 220.5,34.25 220.09956,33.2875 219.5331,30.317852 219.25,27.65625 218.99619,25.270043 218.66393,23.989863 218.28125,23.875 z M 169.09375,24.25 C 169.65175,24.357712 170.32112,24.890613 171.46875,25.96875 172.85509,27.271145 174,28.958373 174,29.6875 174,30.490322 172.82672,31 171.03125,31 167.16409,31 165.00073,27.561772 167.375,25.1875 168.09301,24.469493 168.53575,24.142288 169.09375,24.25 z M 196.59375,25.0625 C 197.47299,25.098771 198.26138,25.597212 199.0625,26.5625 200.14663,27.868795 200.12734,28.3096 198.9375,29.0625 195.11864,31.478972 190.0171,28.913361 193.53125,26.34375 194.73808,25.461296 195.71451,25.026229 196.59375,25.0625 z M 167.125,61 C 163.9024,61 162.41774,62.488604 158.625,69.4375 156.94904,72.508121 156.28911,74.695363 156.875,75.28125 158.16478,76.571031 160,75.273203 160,73.0625 160,67.981352 163.70267,63 167.46875,63 169.52072,63 173,72.325869 173,77.8125 173,82.000067 172.53327,83.211458 169.96875,85.71875 166.58907,89.023012 166.77003,91.115782 170.5625,92.84375 173.12557,94.011564 173.68912,95.456067 172,96.5 171.45,96.839919 171,97.994959 171,99.0625 171,101.58612 171.73092,101.50866 174.09375,98.75 177.74301,94.489402 178.24746,93.037674 176.28125,92.40625 175.29504,92.089537 173.51953,91.358013 172.3125,90.78125 L 170.125,89.71875 172.78125,86.21875 C 176.41307,81.457186 176.34882,73.566524 172.59375,66.15625 170.37195,61.771729 169.52628,61 167.125,61 z M 225.78125,92.4375 C 225.27067,92.427514 224.5969,92.495041 223.75,92.65625 219.83888,93.400736 219.6245,93.571474 220.46875,94.9375 221.35131,96.365513 224.32527,96.299731 225.8125,94.8125 227.34468,93.28032 227.313,92.467459 225.78125,92.4375 z M 185.625,94 C 185.37421,94 183.23429,95.8 180.875,98 178.51572,100.2 177.22943,102 178,102 178.77057,102 180.64174,100.82599 182.15625,99.375 184.83747,96.806227 184.97412,96.757995 188.25,98.3125 193.89911,100.99318 199.3025,101.4177 203.34375,99.5 206.83091,97.845234 207.0663,97.858537 210.53125,100 213.54877,101.86492 214.92366,102.09912 219.46875,101.53125 222.43034,101.16122 225.39563,100.20978 226.0625,99.40625 227.55962,97.602329 226.41546,96.178289 224.78125,97.8125 222.06497,100.52878 209,98.48635 209,95.34375 209,93.437058 207.22881,93.68145 204.28125,96 202.72458,97.224479 200.20329,98 197.8125,98 195.66476,98 192.15618,97.1 190,96 187.84382,94.9 185.87579,94 185.625,94 z"/>
</svg>
