<svg xmlns="http://www.w3.org/2000/svg"
     width="60.7" height="64.0"
     viewBox="631.4724 16.4915 86.5276 91.2290">
  <path d="M 664.90625,20.5 C 663.52409,20.491492 662.13795,20.986666 659.34375,21.96875 653.25261,24.109613 649,26.55169 649,27.90625 649,28.763013 654.34741,27.214295 656.78125,25.65625 661.48224,22.646863 670.2414,23.167253 674.1875,26.6875 675.11534,27.515213 676.38863,27.877844 677,27.5 678.861,26.349834 676.30795,24.251051 670.375,22.03125 667.6595,21.015251 666.28841,20.508508 664.90625,20.5 z M 697.875,21.25 C 697.44861,20.746606 696.73335,21.523736 695.875,23.75 694.53684,27.220721 695.30963,33.313315 697.5,36.65625 698.6221,38.368786 699.52083,38.885417 700.1875,38.21875 700.85416,37.552084 700.61271,36.339651 699.46875,34.59375 698.19094,32.643573 697.87985,30.586782 698.21875,26.5 698.46345,23.549261 698.30139,21.753394 697.875,21.25 z M 690.875,22.1875 C 690.52217,22.268914 690.08161,22.511991 689.53125,22.96875 686.87863,25.170229 687.60513,31.999028 691.09375,37.5 693.42728,41.179603 694.06986,43.143778 693.6875,45.5 692.98717,49.815641 689.72093,56.5 688.3125,56.5 687.67393,56.5 685.52604,54.3625 683.53125,51.75 679.56375,46.553923 677.78459,46.039647 674,49 672.625,50.075541 671.12874,50.95652 670.6875,50.96875 670.24626,50.98098 670.02126,48.6375 670.1875,45.75 670.46578,40.916484 670.69455,40.516921 672.84375,40.75 674.34515,40.912827 675.01664,40.555996 674.75,39.75 674.17478,38.011203 669.27428,35.381971 668.34375,36.3125 667.92431,36.731935 667.4329,40.396007 667.25,44.46875 666.95153,51.114844 667.14505,52.007264 669,53 670.66868,53.893051 671.55173,53.717916 673.65625,52.0625 677.26531,49.223611 678.35361,49.444908 681.53125,53.75 683.0536,55.8125 684.9957,58.0625 685.84375,58.75 686.69179,59.4375 687.66024,60 688,60 691.02688,60 695.76086,50.634443 696.6875,42.84375 697.17199,38.770417 696.97002,38.068849 695.03125,37.03125 691.67694,35.236075 689.77977,29.890166 691.125,26.03125 692.06914,23.32289 691.93348,21.943258 690.875,22.1875 z M 664.53125,26.9375 657.28125,29.21875 C 653.25624,30.468175 650,32.015024 650,32.71875 650,34.361536 650.32361,34.337872 657.78125,32 663.64227,30.162648 664.35024,30.134224 668.28125,31.59375 674.90557,34.053267 677.31961,34.458817 676.84375,33.03125 676.61506,32.345169 673.74039,30.706047 670.46875,29.375 L 664.53125,26.9375 z M 704.84375,21.21875 C 704.70185,21.014389 704.27217,21.383532 703.4375,22.1875 702.23253,23.348147 701.70244,25.322583 701.75,28.46875 701.84023,34.437042 703.43505,36.351399 707.71875,35.65625 712.02232,34.957877 711.87775,36.427792 707.40625,39.25 705.1543,40.671332 702.8194,43.53977 701.0625,47 699.52658,50.025 697.45106,54.075 696.46875,56 691.54998,65.639095 688.96852,66.907069 682.90625,62.59375 681.03742,61.264069 677.73952,59.211148 675.59375,58.03125 669.79633,54.843431 668.57785,56.497448 668.5,67.75 668.449,75.120855 668.07026,77.089156 666.09375,80.28125 L 663.75,84.0625 667.9375,88.03125 C 669.08788,89.12558 670.30833,90.117544 671.53125,91.03125 L 672.6875,88.46875 C 672.65161,88.441429 672.6299,88.433854 672.59375,88.40625 667.39937,84.440044 667.39434,84.394549 670.53125,76 671.70055,72.870891 672.03852,69.748306 671.6875,65.75 671.12019,59.287851 672.22327,58.472291 677.09375,61.75 685.04977,67.104198 686.72017,67.996596 688.8125,68 691.98399,68.005159 694.74057,64.64204 700,54.4375 703.18186,48.263938 705.89137,44.5251 709.25,41.6875 712.88453,38.6168 714,37.012231 714,34.8125 714,31.673375 711.5761,30.017653 709.71875,31.875 706.18456,35.409194 703.10506,30.567358 704.53125,23.75 704.85374,22.208406 704.98565,21.423111 704.84375,21.21875 z M 667.90625,99.09375 669,96.65625 C 667.81368,96.092787 666.07032,95.45375 665.34375,95 663.43898,93.810449 662.91635,94.029895 659.875,97.34375 658.02493,99.359594 656.16631,101 655.75,101 654.4727,101 654.90586,97.049402 656.53125,93.90625 658.2814,90.521833 657.83929,89.27399 654.40625,87.96875 651.32117,86.795804 651.36726,85.645326 654.59375,83.53125 656.0202,82.596606 658.07293,79.824008 659.15625,77.375 660.87617,73.486833 660.97514,72.270704 660,67.71875 659.38581,64.851647 657.62558,60.25 656.0625,57.5 653.54524,53.071269 652.79371,52.468428 649.5,52.1875 644.57626,51.767543 641.51885,54.658174 639.9375,61.25 638.32404,67.975644 636.95478,65.373952 638.03125,57.625 638.63482,53.280234 639.5855,51.003787 641.625,48.875 645.24538,45.096143 648.92137,45.179304 654.65625,49.125 658.08631,51.484943 659.46353,51.943178 660.34375,51.0625 661.4304,49.975293 661.94293,36.613415 660.9375,35.625 660.69319,35.384826 658.35244,35.4198 655.71875,35.71875 650.15225,36.350599 649.82588,38.352798 655.21875,38.8125 658.23532,39.06964 658.83273,39.532672 659.15625,41.8125 659.36666,43.29526 659.38514,45.293026 659.1875,46.28125 658.85819,47.927891 658.48262,47.865223 654.5,45.53125 646.73181,40.978791 640.98471,42.979099 637.4375,51.46875 635.9791,54.959199 635.47244,64.484176 636.59375,67.40625 637.5556,69.912786 640.99342,69.403655 641,66.75 641.01794,59.512883 645.5548,53.084396 649.6875,54.4375 650.67693,54.761453 652.7375,57.253057 654.25,60 656.44462,63.985783 657,66.290326 657,71.40625 657,77.337017 656.78394,78.011129 653.9375,80.40625 650.60163,83.213204 648.07816,83.671916 646.21875,81.8125 644.44011,80.033866 643.53716,81.675756 644.78125,84.40625 645.38319,85.72736 647.7001,87.836259 649.9375,89.09375 654.57803,91.701873 654.39849,91.235985 652.5625,96.5 651.59093,99.285576 651.49963,100.87951 652.21875,101.75 653.84663,103.72054 655.81702,103.2304 660.03125,99.84375 663.30335,97.214217 664.18556,96.903797 665.46875,97.96875 665.73316,98.18819 667.20441,98.733163 667.90625,99.09375 z"/>
</svg>
