<svg xmlns="http://www.w3.org/2000/svg"
     width="58.8" height="64.0"
     viewBox="4905.7746 12.3497 84.2254 91.6576">
  <path d="M 4937.4375,16.375 C 4932.7674,16.552424 4924.9334,21.048969 4921.875,25.6875 4919.7341,28.934465 4919.5123,31.829435 4921.1562,35.4375 4922.4363,38.246804 4922.3951,38.2573 4929.5,38.40625 L 4934.5,38.5 4934.8125,44.40625 C 4934.9798,47.648911 4934.6997,50.675269 4934.2188,51.15625 4933.7193,51.655596 4930.7357,50.70395 4927.25,48.90625 L 4921.1562,45.75 4917.4688,48.03125 C 4911.8233,51.520354 4909.7746,58.560822 4911.6562,67.96875 4912.9333,74.35447 4916.9712,72.721196 4917,65.8125 4917.0302,58.544059 4923.705,56.581375 4927.3125,62.78125 4930.7905,68.75869 4931.0938,72.571038 4928.4062,76.53125 4922.3615,85.438762 4922.3135,85.94237 4926.8125,94.75 4928.2865,97.635577 4929.9448,99.998077 4930.5,100 4932.6014,100.00728 4934.1611,95.85066 4933.5,91.9375 4932.9817,88.869872 4933.266,87.422487 4934.9688,85.03125 4936.1524,83.368887 4937.5019,82 4937.9375,82 4938.3731,82 4940.3964,83.575 4942.4375,85.5 4946.7844,89.599645 4950.4366,90.022105 4954.4375,86.875 4956.8467,84.979895 4957.4106,84.891872 4959.6562,86.09375 4960.2871,86.431366 4961.0081,87.24711 4961.7812,87.875 L 4962.5938,85.15625 C 4959.0928,82.885911 4956.6184,82.772562 4953.4688,84.46875 4951.6845,85.429616 4949.3642,85.949366 4948.3438,85.625 4946.1929,84.941243 4941.3911,80.642122 4940.8125,78.90625 4940.0929,76.747568 4936.2935,78.951029 4933.5312,83.125 4931.1602,86.708043 4930.9221,87.789655 4931.5312,92.21875 4932.3424,98.116798 4931.0929,98.031245 4928,91.96875 4925.3009,86.678147 4925.4494,85.287175 4929.5,79 4933.2613,73.161933 4933.5483,71.550362 4931.9375,65.75 4930.3552,60.052366 4926.9835,56.667989 4923,56.78125 4918.7857,56.901071 4915.9001,59.759201 4915,64.6875 L 4914.3125,68.5 4913.1562,65.6875 C 4911.7768,62.328388 4912.6345,55.212728 4914.7188,52.8125 4917.4255,49.695486 4921.3517,49.021704 4925.625,50.9375 4927.7622,51.895666 4930.1202,53.431587 4930.875,54.34375 4934.9175,59.228665 4937.9408,53.164587 4937.0312,42 L 4936.5,35.5 4930,35.5 4923.5,35.5 4923.5625,30.6875 C 4923.6193,26.605471 4924.0768,25.502571 4926.5625,23.5 4928.1757,22.200404 4931.2202,20.45626 4933.3125,19.625 4938.0127,17.757611 4938.7755,18.916966 4936.4688,24.4375 4935.0442,27.84683 4935.0138,28.451359 4936.3438,29.78125 4937.6737,31.111141 4938.4021,30.967096 4942.6875,28.5 4945.3414,26.972166 4948.2875,25.05266 4949.25,24.21875 4950.8468,22.835258 4951,22.900938 4951,24.9375 4951,27.151384 4947.2377,31.465366 4943.4688,33.59375 4941.7501,34.56425 4941.4551,36.018483 4941.1562,45.34375 4940.8666,54.384236 4941.0423,56 4942.3438,56 4943.1864,56 4944.1353,55.614072 4944.4375,55.125 4944.7398,54.635929 4946.1136,53.941721 4947.5,53.59375 4949.5465,53.08011 4950.6087,53.629749 4953.1562,56.53125 4958.8518,63.018235 4963.5871,59.629229 4967.5312,46.21875 4969.1187,40.821257 4968.8736,39 4966.5938,39 4965.8864,39 4964.454,38.064286 4963.4062,36.90625 4960.8877,34.122636 4960.9672,25.80195 4963.5312,22.96875 4965.0391,21.302668 4965.0706,21 4963.7812,21 4961.7015,21 4960.1238,23.06852 4959.375,26.8125 4958.3681,31.846956 4959.8027,36.713695 4963.2188,39.90625 4966.3017,42.787494 4966.3493,42.936161 4965.0938,47.1875 4963.6971,51.916682 4960.2982,58 4959.0625,58 4958.6343,58 4956.5679,56.386 4954.4688,54.40625 4951.0158,51.149748 4950.2819,50.862737 4946.6875,51.4375 L 4942.6875,52.0625 4943.3438,44.28125 C 4943.9663,36.707193 4944.0967,36.412491 4948.0938,32.96875 4951.5516,29.989676 4952.2721,28.682433 4952.7188,24.71875 4953.3343,19.257232 4952.0404,18.571225 4948,22.28125 4939.8453,29.769131 4935.6153,29.823622 4939.5,22.375 4941.4552,18.626218 4941.3781,17.247849 4939.2188,16.5625 4938.7045,16.399272 4938.1047,16.349654 4937.4375,16.375 z M 4969.25,21.0625 C 4968.6752,21.35798 4967.7954,22.76251 4967.125,25 4966.2404,27.952387 4966.2039,30.043465 4967,33 4967.6336,35.352789 4968.6723,37 4969.5312,37 4971.4149,37 4971.3832,36.258205 4969.4062,34.28125 4967.8369,32.711959 4967.8553,30.449949 4969.5312,23.75 4970.0747,21.577783 4969.8248,20.76702 4969.25,21.0625 z M 4963.7812,81.15625 4964.5938,78.375 C 4960.7728,75.811681 4958.3873,75.563644 4955,77.5 4951.1926,79.676505 4949.2069,79.302964 4947.5312,76.0625 4945.6151,72.357119 4945.5756,66.974 4947.4375,64.4375 4948.822,62.55138 4948.9937,62.549594 4953.8125,64.25 4961.0459,66.802449 4964.3704,66.536817 4967.1562,63.1875 4969.7784,60.035146 4975.5777,47.926105 4976.4375,43.8125 4976.746,42.336658 4977.8529,40.865576 4978.9062,40.53125 4982.8834,39.26895 4986,35.929643 4986,32.90625 4986,29.412575 4983.6869,28.101354 4981.2188,30.21875 4978.6602,32.4136 4976.383,32.976749 4975.125,31.71875 4973.48,30.073778 4973.7644,24.308368 4975.625,21.46875 4977.0271,19.328917 4977.021,19 4975.7188,19 4971.6909,19 4968.9708,29.868467 4972.0625,33.59375 4973.3919,35.195575 4977.5151,35.15192 4981.25,33.53125 4982.5078,32.985474 4983,33.245455 4983,34.40625 4983,35.356606 4981.3493,36.684973 4979,37.625 4975.5567,39.002708 4974.8298,39.849286 4973.625,43.90625 4971.818,49.991015 4966.2001,61.121134 4964.125,62.71875 4962.3083,64.117386 4958.2144,63.556304 4953.3125,61.21875 4950.421,59.839901 4949.8789,59.846405 4947.5938,61.34375 4942.128,64.925056 4942.1448,77.096739 4947.625,80.6875 4949.8238,82.128187 4950.6408,82.194541 4953.3438,81.09375 4958.812,78.866797 4960.5029,78.768729 4963.7812,81.15625 z"/>
</svg>
