<svg xmlns="http://www.w3.org/2000/svg"
     width="41.2" height="64.0"
     viewBox="5290.5000 37.9293 41.2007 64.0707">
  <path d="M 5295.0312 94.09375 C 5295.6814 94.022973 5296.5799 94.3954 5298.4375 95.28125 C 5303.5413 97.715057 5311.1772 97.566715 5313.5 95 C 5315.8581 92.39429 5316.8098 92.47731 5319.1875 95.5 C 5320.5148 97.187481 5322.1349 98 5324.1875 98 L 5327.2188 98 L 5326.5312 93.46875 C 5326.1569 90.972712 5325.1839 87.291924 5324.3438 85.28125 C 5322.2427 80.252615 5322.4742 73.469698 5325 66.71875 C 5327.3988 60.307393 5327.7007 56.722325 5326.1562 52.8125 C 5321.857 41.929343 5311.8693 54.197231 5310.7188 71.78125 C 5310.3769 77.00578 5309.5746 81.001243 5308.5312 82.59375 L 5306.875 85.125 L 5301.1875 81.9375 C 5298.0594 80.193867 5295.1296 78.440329 5294.6875 78.03125 C 5294.6565 78.002614 5294.6551 76.868946 5294.625 76.75 L 5294.5 77 L 5294.6875 83.5 C 5295.4259 82.987252 5296.9617 83.568815 5300.5938 85.5 C 5303.1798 86.875 5305.8421 88 5306.5 88 C 5310.2052 88 5313.9693 77.584513 5314 67.21875 C 5314.0275 57.920376 5321.1232 47.643955 5323.4062 53.59375 C 5324.4816 56.396124 5324.0408 62.018335 5322.5312 64.9375 C 5321.7234 66.499811 5320.6409 70.402124 5320.125 73.625 C 5319.3384 78.539219 5319.5046 80.3875 5321.1562 85 C 5322.2393 88.025 5323.3828 91.5125 5323.6875 92.75 C 5324.5097 96.08857 5322.4831 95.493 5319.4375 91.5 C 5317.9692 89.575 5316.3327 88 5315.8125 88 C 5315.2922 88 5313.6891 89.414701 5312.25 91.125 C 5309.9083 93.907994 5309.1984 94.177424 5305.4062 93.75 C 5300.5388 93.201362 5296.4859 90.979381 5294.8438 88.34375 L 5295 94 L 5295.0312 94.09375 z "/>
</svg>
