<svg xmlns="http://www.w3.org/2000/svg"
     width="64.0" height="43.0"
     viewBox="6958.3003 68.8962 51.1191 34.3568">
  <path d="M 6989.7812,81.15625 6987.0312,81.5625 C 6987.3889,82.608277 6988.1035,83.536979 6989.5312,84.1875 6991.3319,85.007923 6992.6618,84.760997 6995.9062,82.9375 6998.1523,81.675167 7000.277,80.93328 7000.625,81.28125 7001.8741,82.530355 6997.2397,89.563414 6993.4062,92.25 6986.0941,97.374536 6978.5773,96.43234 6971.375,89.53125 6964.7093,83.144402 6965.4423,81.7994 6973.7188,85.125 6978.4774,87.037085 6982.1084,85.233149 6982.7812,82.1875 L 6980.5,82.5 6980.1875,82.15625 C 6979.8648,82.446293 6979.4841,82.753225 6978.9062,83.0625 6976.1046,84.561904 6971.7013,82.689544 6968.5938,78.71875 6964.0369,72.896164 6962.3003,78.865053 6966.25,86.78125 6968.6521,91.59562 6973.846,95.6963 6979.25,97.0625 6987.9145,99.253011 6995.0004,96.236957 7000.125,88.15625 7005.4194,79.807821 7003.2349,76.021653 6995.5,80.125 6991.8871,82.041598 6990.8567,82.20142 6989.8125,81.15625 6989.8057,81.149412 6989.7881,81.163194 6989.7812,81.15625 z"/>
</svg>
