<svg xmlns="http://www.w3.org/2000/svg"
     width="47.3" height="64.0"
     viewBox="2590.1537 41.5699 21.0093 28.4301">
  <path d="M 2599.375 45.65625 C 2597.4363 45.915425 2596.4769 47.463443 2595.5312 51.1875 C 2594.1537 56.612768 2595.168 61.900235 2598.0312 64.21875 C 2599.2362 65.194484 2600.3547 66 2600.5312 66 C 2601.5669 66 2605.3746 59.299864 2606.0625 56.25 C 2607.163 51.370381 2605.1105 46.435594 2601.6875 45.78125 C 2600.7872 45.609134 2600.0212 45.569858 2599.375 45.65625 z M 2600.2188 48.53125 C 2602.7717 48.176222 2604.7002 52.090988 2603.625 56.375 C 2603.2973 57.680453 2602.2061 59.749389 2601.2188 60.96875 L 2599.4375 63.1875 L 2598.0938 60.65625 C 2596.5262 57.727373 2597.1725 50.124861 2599.0938 48.9375 C 2599.4767 48.700815 2599.854 48.581968 2600.2188 48.53125 z "/>
</svg>
