<svg xmlns="http://www.w3.org/2000/svg"
     width="53.8" height="64.0"
     viewBox="4644.2871 15.6496 75.0603 89.2132">
  <path d="M4649.888 97.25C4648.2871 93.106427 4649.2955 84.107781 4651.9565 78.791231C4653.739 75.229902 4654.0413 73.754647 4653.1969 72.737201C4650.345 69.300924 4649.8803 52.034053 4652.1697 34.575491C4653.1413 27.16653 4653.8104 25.128706 4656.1099 22.575491C4658.6113 19.798069 4659.0317 19.649555 4660.4473 21.043117C4661.8464 22.420404 4661.8744 23.974782 4660.7081 35.507292C4659.367 48.768246 4660.2245 60.908183 4662.5573 61.685757C4663.1282 61.876074 4664.8956 60.674635 4666.4848 59.015894C4669.606 55.758009 4671.8608 55.358296 4677.0037 57.151129C4679.8665 58.149125 4680.485 58.057184 4681.6529 56.459999C4682.4163 55.416017 4682.981 52.209005 4682.9561 49.05887C4682.9155 43.913739 4682.3557 41.725673 4678.9619 33.447309C4677.8265 30.67771 4677.9681 30.005382 4680.4881 26.197309C4683.7735 21.232759 4685.9221 20.905172 4688.3409 25.0C4689.3156 26.65 4690.4502 28.0 4690.8623 28.0C4691.2743 28.0 4693.1363 26.875 4695.0 25.5C4699.3256 22.308659 4701.3786 22.340684 4702.874 25.622832C4704.6312 29.479481 4702.2117 32.778386 4697.325 33.188611C4694.1459 33.45549 4693.507 33.928818 4692.8556 36.5C4691.6131 41.403924 4691.2905 51.297359 4692.2769 54.25C4693.3894 57.580103 4694.5947 57.65677 4700.5267 54.774787C4704.7462 52.724758 4705.3191 52.668623 4707.8034 54.061762C4711.9735 56.400276 4715.3474 64.41335 4714.6483 70.318944C4714.0983 74.965755 4710.3586 82.691982 4709.2137 81.547051C4708.9067 81.240069 4708.5404 78.711788 4708.3997 75.928648C4708.1359 70.712274 4705.9051 66.0 4703.6995 66.0C4701.8188 66.0 4698.0 68.934372 4698.0 70.379491C4698.0 71.075836 4699.35 74.432488 4701.0 77.838717C4704.8965 85.882589 4705.0412 91.946102 4701.4491 96.655609C4698.4264 100.61856 4696.6114 100.86278 4694.4701 97.594674C4693.074 95.464033 4693.0592 94.794149 4694.34 91.728725C4695.6063 88.698086 4695.6018 87.887975 4694.3042 85.208738C4693.4893 83.526088 4691.9578 81.366753 4690.9008 80.410217C4689.0667 78.750352 4688.8684 78.775019 4686.5519 80.951243C4684.395 82.977528 4684.1456 83.993172 4684.3124 90.072413C4684.4516 95.147886 4684.0942 97.321176 4682.9275 98.493444C4681.2201 100.20914 4678.0 99.587348 4678.0 97.541951C4678.0 96.857711 4676.875 94.182044 4675.5 91.596025C4674.125 89.010005 4673.0 86.124476 4673.0 85.183737C4673.0 84.242998 4674.6362 81.043732 4676.6359 78.074257C4681.23 71.252447 4680.6544 68.03714 4674.6144 66.782218C4671.0195 66.035303 4670.4487 66.25348 4666.5177 69.876922C4664.1917 72.020971 4661.3236 74.291607 4660.1443 74.92278C4658.3079 75.905601 4657.9979 76.962667 4657.9854 82.285184C4657.9661 90.538654 4654.6907 100.0 4651.8528 100.0C4651.3565 100.0 4650.4724 98.7625 4649.888 97.25Z M4654.9006 92.25C4656.3192 86.808652 4656.6004 78.700139 4655.3845 78.294845C4653.925 77.808323 4651.9602 82.540232 4651.2971 88.138981C4650.3544 96.09849 4653.0851 99.213712 4654.9006 92.25Z M4700.0 95.0C4702.966 92.034022 4702.5984 86.093833 4699.0 78.841289C4694.6336 70.040773 4695.1965 66.172971 4701.1453 64.099198C4705.212 62.681534 4708.8036 64.768131 4709.6591 69.04538C4709.9841 70.670421 4710.6437 72.0 4711.125 72.0C4712.8056 72.0 4711.9819 65.387868 4709.75 60.96189C4707.0762 55.659484 4704.8357 55.022868 4699.1166 57.94051C4693.4931 60.809395 4691.486 60.587469 4689.9707 56.929267C4688.4921 53.359502 4688.5172 39.400131 4690.0093 35.475533C4690.8825 33.178922 4690.5832 32.261515 4687.8243 28.778118L4684.6275 24.741833L4682.7314 27.08336C4680.6532 29.649824 4680.7887 31.769672 4683.4932 39.0C4685.4332 44.18632 4685.2905 58.109538 4683.2767 60.123292C4682.1383 61.261712 4678.5296 60.675389 4672.5485 58.380238C4671.8647 58.117828 4669.3939 59.499925 4667.058 61.451564C4664.722 63.403204 4662.1672 65.0 4661.3806 65.0C4657.9337 65.0 4656.7954 53.444596 4658.3271 34.0C4659.0723 24.539805 4659.0012 23.648901 4657.6092 25.003607C4656.6632 25.924222 4655.4249 30.770827 4654.4154 37.503607C4651.8706 54.475044 4653.4282 72.35567 4657.5684 73.698947C4658.156 73.889595 4661.2749 71.736993 4664.4993 68.915387C4669.8805 64.206406 4670.6818 63.828108 4674.2585 64.307852C4682.5947 65.425967 4684.178 70.881933 4678.5434 79.073202C4675.5546 83.418128 4675.2252 84.462212 4676.1095 86.787953C4677.8743 91.429883 4681.1284 96.03866 4682.1815 95.387809C4683.1303 94.801425 4682.9844 92.995278 4681.5038 87.0C4681.0439 85.137883 4681.6984 83.402051 4684.0688 80.196903C4688.0582 74.802528 4690.2331 74.953261 4694.791 80.939988C4697.4271 84.402513 4698.0423 85.9986 4697.5856 88.189988C4697.2635 89.735495 4696.7239 92.35 4696.3865 94.0C4695.6622 97.541653 4697.069 97.93097 4700.0 95.0Z M4699.6549 29.456872C4699.9806 28.608151 4699.9684 27.635053 4699.6278 27.294431C4698.6588 26.325508 4693.8126 28.887843 4694.5026 30.004253C4695.4591 31.551928 4698.9951 31.176263 4699.6549 29.456872Z"/>
</svg>
