<svg xmlns="http://www.w3.org/2000/svg"
     width="57.1" height="64.0"
     viewBox="78.9990 14.8691 82.9889 93.0155">
  <path d="M 109.71875,19.1875 C 107.18862,19.02661 100.27001,22.721404 96.5625,26.90625 91.691174,32.404746 96.030794,41 103.6875,41 L 107.28125,41 106.59375,46.6875 C 106.22537,49.82182 105.69621,52.647534 105.40625,52.9375 105.11628,53.227466 102.42634,52.15861 99.4375,50.59375 94.199071,47.851081 93.928151,47.836813 91.4375,49.46875 88.794418,51.200564 83.00142,62.072672 83,65.3125 82.998972,67.656942 85.782019,73 87,73 87.520587,73 88.896352,70.773283 90.0625,68.0625 92.698719,61.934443 95.158512,59.608065 97.96875,60.5 100.87769,61.423263 102.878,64.82835 103.59375,70.0625 104.16976,74.274842 103.93111,74.833972 99,81 94.645683,86.444785 93.893601,87.981129 94.3125,90.5625 94.757765,93.306346 98.016737,99.180959 101.09375,102.8125 102.00215,103.88462 102.56448,103.81257 104.1875,102.34375 105.75119,100.92864 106.05562,99.732102 105.59375,96.84375 105.27044,94.821872 104.73328,92.477225 104.40625,91.625 103.72971,89.861946 108.40624,85 110.78125,85 111.6064,85 114.44778,87.025 117.09375,89.5 119.73973,91.975 122.40877,94 123,94 123.59123,94 125.68175,93.325 127.65625,92.5 129.63076,91.675 131.47863,91 131.75,91 132.02137,91 133.87604,92.742732 135.875,94.875 140.93114,100.26832 143.67023,100.7109 148.84375,96.90625 151.13515,95.221132 153,93.408669 153,92.90625 153,91.555705 152.45756,91.750706 148.40625,94.5 146.38008,95.875 143.94825,97 143,97 141.25356,97 136,92.429129 136,90.90625 136,90.450601 135.10654,89.592199 134,89 132.43375,88.161768 130.93864,88.383405 127.25,90.03125 L 122.5,92.15625 117.46875,86.5625 C 114.70701,83.49617 111.94946,81 111.34375,81 110.08424,81 102,89.520636 102,90.84375 102,91.323966 102.48754,93.136045 103.09375,94.875 103.69995,96.613955 103.89658,98.797971 103.53125,99.75 102.94257,101.28408 102.64825,101.20987 100.90625,99 99.021154,96.608603 96,90.477761 96,89.0625 96,88.689615 98.25,85.600217 101,82.1875 106.62337,75.20896 107.33107,71.387944 104.375,64 100.9883,55.535801 93.622723,55.963409 89,64.90625 87.88719,67.059025 87.66141,67.141918 86.8125,65.625 84.723046,61.891354 89.942416,50.988331 93.8125,51 94.74701,51.002818 97.3,52.113733 99.5,53.46875 101.7,54.823767 104.22779,55.951585 105.125,55.96875 107.06241,56.005817 109,49.39504 109,42.71875 L 109,38.3125 104.65625,38.40625 C 102.266,38.45899 99.566003,37.879845 98.65625,37.125 95.14904,34.214982 97.655255,27.268155 103.25,24.375 106.91094,22.481853 107.30354,22.835474 105.90625,26.84375 105.06405,29.259694 105.09953,30.408601 106.03125,31.53125 108.0067,33.911525 113.45786,33.329218 116.96875,30.375 121.27664,26.750147 121.54711,27.754151 117.59375,32.75 114.01569,37.271592 112.30806,45.321544 113.59375,51.75 114.31479,55.355195 114.85503,55.531343 119.78125,53.75 123.12691,52.540194 123.31167,52.608582 126.5,56.40625 128.78475,59.127645 130.26882,60.104714 131.4375,59.65625 133.40173,58.902503 136.53465,52.191694 138.5625,44.40625 139.9586,39.046265 139.93105,38.742018 137.5,34.59375 134.81551,30.013011 134.35719,26.088551 136.09375,22.84375 137.36046,20.476885 136.33232,18.869102 134.9375,21.03125 134.41556,21.840322 133.4746,24.170782 132.84375,26.21875 131.8025,29.598945 131.93779,30.301852 134.34375,33.9375 135.80145,36.14024 137,39.069928 137,40.4375 137,43.515902 134.3355,51.683963 132.28125,54.90625 L 130.75,57.3125 127.5,53.40625 C 124.31309,49.610279 124.12679,49.540237 120.78125,50.75 114.91637,52.870767 114.64832,52.666727 115.25,46.03125 115.68684,41.21375 116.6054,38.849317 119.90625,33.90625 122.15945,30.532057 124,26.942367 124,25.9375 124,22.589266 121.85401,22.728323 118.15625,26.3125 113.83371,30.502278 109.33233,32.038327 108.40625,29.625 107.85563,28.190108 108.36282,26.023105 110.5,20.75 110.91961,19.714678 110.56213,19.24113 109.71875,19.1875 z M 142.21875,21.0625 C 141.84996,20.84942 141.00114,21.287294 139.96875,22.53125 137.97006,24.939524 137.72004,30.939679 139.5,33.65625 140.36936,34.983059 141.53209,35.784629 142.09375,35.4375 142.73734,35.039742 142.54889,34.152441 141.5625,33.0625 139.54236,30.830273 139.57705,26.594314 141.625,23.46875 142.49975,22.13371 142.58754,21.27558 142.21875,21.0625 z M 146.03125,22.5 C 145.57906,22.551864 144.92972,23.90751 144.4375,26.53125 143.98458,28.945536 144.27956,30.749205 145.40625,32.46875 146.81551,34.619552 147.32298,34.807185 149.4375,33.84375 152.5877,32.40842 155.70912,33.459848 154.09375,35.40625 153.46947,36.158459 151.71892,37.028134 150.21875,37.34375 147.8593,37.84015 146.57765,39.826179 140.625,52.0625 133.94335,65.797362 133.64227,66.190955 130.96875,65.65625 129.45436,65.353371 126.53386,63.963922 124.46875,62.5625 119.81709,59.405798 119.45368,59.390023 117.375,62.5625 113.67988,68.201956 116.72716,79.693416 122.875,83.28125 125.21044,84.644198 127.06993,84.921533 130.71875,84.4375 134.79003,83.897426 135.79285,84.123463 137.40625,85.90625 138.44985,87.059416 139.51423,88 139.78125,88 141.06313,88 149,83.533519 149,82.8125 149,81.610162 147.69987,81.810155 144.3125,83.5 141.52713,84.889523 141.01078,84.8271 137.21875,82.75 133.65478,80.79782 132.69603,80.677521 129.9375,81.71875 125.95151,83.223295 123.32478,81.707036 120.1875,76.125 117.73436,71.760228 117.35956,67.241585 119.25,64.65625 120.42172,63.053839 120.93022,63.138211 126.15625,65.96875 129.24944,67.644093 132.3742,68.796656 133.125,68.5 134.63063,67.905094 142.8147,53.711262 144.65625,48.5 146.50607,43.265348 148.90308,40.226381 152.0625,39.125 156.0538,37.733628 157.98787,33.550369 155.6875,31.25 154.26524,29.827742 153.50303,29.746237 150.84375,30.75 146.5378,32.375314 145.66445,31.496468 146.375,26.3125 146.73251,23.704211 146.48344,22.448136 146.03125,22.5 z M 150.46875,85.9375 C 149.86851,84.966282 144,88.820348 144,90.1875 144,91.56167 145.60851,91.082373 148.375,88.90625 149.82941,87.762209 150.77826,86.438288 150.46875,85.9375 z"/>
</svg>
