<svg xmlns="http://www.w3.org/2000/svg"
     width="58.3" height="64.0"
     viewBox="5786.7207 13.0000 83.2148 91.3565">
  <path d="M5808.8282 95.75C5806.6545 92.261074 5805.0 88.087662 5805.0 86.093678C5805.0 85.096959 5806.5706 82.305633 5808.4903 79.890731C5810.41 77.475829 5811.985 74.716414 5811.9903 73.758698C5812.0026 71.551984 5806.2664 66.0 5803.9741 66.0C5801.2967 66.0 5800.1191 68.135651 5799.3938 74.306797C5798.0858 85.435795 5792.7588 83.598803 5791.4711 71.574701C5790.7207 64.567857 5791.8157 59.775291 5795.1295 55.562483C5797.6576 52.348528 5799.7707 52.343383 5806.0707 55.535845C5808.8231 56.93056 5811.4425 57.844523 5811.8918 57.566875C5813.0246 56.866743 5814.0914 45.706927 5813.3702 42.100862C5812.8706 39.602802 5812.1818 39.037562 5808.9779 38.496263C5803.3519 37.545756 5801.5793 35.085923 5802.3689 29.324892C5803.3189 22.394472 5809.1903 17.0 5815.7837 17.0C5819.6301 17.0 5820.1936 17.774825 5818.3708 20.556803C5816.707 23.096046 5816.8425 27.127127 5818.6111 27.708696C5819.2222 27.909639 5821.6272 26.482387 5823.9557 24.537024C5828.8555 20.443364 5829.5501 20.29081 5830.9952 22.990969C5832.2483 25.33244 5830.3278 29.836939 5826.1916 34.257443C5823.8354 36.775651 5823.5812 37.887726 5823.2615 47.075356L5822.9114 57.135826L5827.2246 56.489031C5830.9667 55.927869 5831.9061 56.183673 5834.3204 58.421118C5835.8508 59.839503 5837.7225 61.0 5838.4797 61.0C5840.2489 61.0 5844.1179 50.718062 5844.3252 45.465606C5844.4367 42.638467 5843.8213 40.588235 5842.2685 38.614159C5839.3102 34.853282 5838.6472 30.440198 5840.2347 25.076011C5841.839 19.65515 5844.6757 17.896942 5843.372 23.131506C5841.9834 28.707246 5842.6685 33.97499 5845.4462 39.078503C5848.0641 43.888374 5848.0694 43.943421 5846.5052 49.97997C5843.8901 60.0719 5839.7375 65.761025 5836.6403 63.494885C5829.8939 58.558738 5830.3592 58.689588 5825.4727 60.354589C5819.6955 62.323094 5819.7279 62.400237 5820.1627 47.696085L5820.5 36.289625L5824.25 32.141931C5829.8663 25.930034 5829.4018 24.295847 5823.2148 28.5C5816.4748 33.079969 5812.7942 30.779212 5814.3574 22.963209C5814.8602 20.449124 5814.639 20.0 5812.8981 20.0C5811.7695 20.0 5809.5308 21.315385 5807.9231 22.923077C5805.6623 25.183829 5805.0 26.75655 5805.0 29.86406C5805.0 34.411433 5805.8499 35.209167 5811.5 35.964944L5815.5 36.5L5815.7843 46.094586C5816.0976 56.663697 5815.0531 61.0 5812.1942 61.0C5811.1738 61.0 5808.1252 59.876883 5805.4195 58.504185C5797.805 54.641128 5796.1111 55.189037 5794.2185 62.127226C5793.5232 64.675937 5793.5975 67.500655 5794.4684 71.627226C5795.6221 77.093876 5795.7585 77.292539 5796.4414 74.5C5798.0499 67.922007 5798.7319 66.542723 5801.3381 64.596916C5804.0349 62.583444 5804.0702 62.583008 5807.6649 64.518864C5809.6531 65.589562 5812.3805 68.128912 5813.7258 70.161864L5816.1719 73.858141L5812.0859 79.269939C5807.7022 85.076151 5807.2601 87.081681 5809.5 91.0L5810.9291 93.5L5810.9646 89.989071C5810.9897 87.498668 5811.9447 85.385429 5814.25 82.718868C5817.459 79.007014 5817.5315 78.981345 5820.0 80.683906C5824.2936 83.645307 5825.0908 85.22481 5824.554 89.706492C5823.9223 94.981051 5825.4009 96.059119 5827.5547 91.894198C5829.6505 87.841464 5828.8782 83.779277 5824.9758 78.329107C5822.3676 74.686482 5822.1251 73.799891 5823.0613 71.329107C5824.2856 68.097956 5827.8353 64.0 5829.41 64.0C5829.9937 64.0 5832.8725 65.214881 5835.8072 66.699735C5839.8817 68.761217 5841.54 69.151093 5842.8216 68.348866C5844.9347 67.026158 5850.1268 56.915042 5849.5314 55.282025C5849.2872 54.612139 5849.5118 53.801735 5850.0305 53.481128C5850.5493 53.160521 5851.6809 50.465756 5852.5451 47.492762C5853.9108 42.795056 5854.5717 41.922734 5857.5928 40.830295C5859.8231 40.023803 5861.2789 38.737028 5861.6546 37.240066C5862.4308 34.147612 5861.7823 33.686444 5858.6588 35.109581C5854.6957 36.915305 5853.0 34.931207 5853.0 28.488339C5853.0 24.789514 5853.5698 22.51875 5854.9139 20.860784C5857.5264 17.638383 5858.1968 18.771006 5856.4988 23.538281C5853.8028 31.107876 5854.8182 33.951212 5859.462 31.835358C5861.6066 30.858219 5862.35 30.921427 5863.6172 32.188657C5865.9355 34.506953 5863.5954 41.81246 5860.2669 42.64786C5858.5543 43.077708 5857.165 44.830985 5855.4319 48.749934C5854.0943 51.774344 5853.0 54.879101 5853.0 55.649394C5853.0 56.419688 5851.4645 60.098941 5849.5879 63.825512L5846.1757 70.601095L5848.0997 76.300193C5850.334 82.918186 5849.833 88.93615 5846.821 91.661986C5844.1235 94.103192 5841.9539 92.50457 5839.6722 86.394587C5837.9277 81.723301 5837.8426 77.453338 5839.4218 73.835603C5839.9751 72.56796 5839.0652 71.536478 5835.6047 69.508507C5830.3131 66.407379 5827.6138 66.800479 5826.1919 70.879325C5825.3588 73.269136 5825.7131 74.465742 5828.6221 79.088465C5831.4129 83.523368 5831.9182 85.131653 5831.422 88.0C5830.2237 94.926858 5825.447 99.852198 5822.6493 97.045691C5822.0172 96.411551 5821.5 93.384915 5821.5 90.319835C5821.5 86.018826 5821.0863 84.490555 5819.6874 83.62348C5818.1981 82.70043 5817.5127 82.941421 5815.8454 84.974322C5814.2547 86.913892 5813.9505 88.288801 5814.4378 91.336086C5815.4128 97.433624 5811.6982 100.3565 5808.8282 95.75Z M5846.3672 83.797002C5846.4496 78.008977 5845.2763 74.0 5843.5 74.0C5840.5998 74.0 5840.3393 80.523663 5842.9644 87.412839C5844.4754 91.378145 5846.2866 89.453448 5846.3672 83.797002Z M5847.9497 37.439381C5847.2373 36.58104 5846.4822 33.54354 5846.2716 30.689381C5845.9773 26.701548 5846.3682 24.736035 5847.9597 22.200502C5850.558 18.061051 5852.6249 18.890855 5850.4056 23.182475C5848.8347 26.220286 5848.8715 31.801486 5850.4951 36.75C5851.3524 39.363259 5849.8778 39.76264 5847.9497 37.439381Z"/>
</svg>
