<svg xmlns="http://www.w3.org/2000/svg"
     width="33.4" height="64.0"
     viewBox="7611.4609 17.9855 44.8596 86.0122">
  <path d="M 7619.9375 87.65625 L 7616 96 L 7616.0938 97.25 C 7616.9163 97.036688 7618.1068 97.417774 7620 98.5 C 7621.375 99.286021 7624.6254 99.94926 7627.2188 99.96875 C 7631.0651 99.997655 7632.576 99.457563 7635.375 97 C 7639.2965 93.556904 7641.5934 88.43018 7642.5625 81.125 C 7643.2132 76.219766 7643.3132 76.10907 7645.3438 77.53125 C 7648.6349 79.836518 7649.8203 79.292168 7651.125 74.9375 C 7652.3205 70.947427 7652.3054 70.834206 7648.5938 67.1875 C 7643.1453 61.834291 7639.4926 49.705725 7638.625 34 C 7638.0841 24.209307 7637.4442 21.985453 7635.1562 22.0625 C 7632.3334 22.157564 7628.9697 27.607998 7627.9688 33.71875 C 7626.4451 43.021484 7626.8163 48.176193 7630 61.34375 C 7633.331 75.120758 7633.6996 81.341616 7631.5312 86.53125 C 7629.7094 90.891216 7627.9204 91.632894 7623.2188 89.84375 C 7621.297 89.112426 7620.3985 88.576345 7619.9375 87.65625 z M 7634.4062 25 C 7635.4295 25 7635.9523 27.858954 7636.5 36.625 C 7637.5366 53.215269 7641.0231 64.528893 7646.4688 68.8125 C 7650.5311 72.00793 7649.4887 77.59011 7645.4062 74.5 C 7641.4254 71.486682 7640.3383 72.515035 7639.7188 79.90625 C 7639.0291 88.132672 7636.1322 94.348118 7632.0312 96.46875 C 7628.714 98.184185 7627.9191 98.217904 7623 96.8125 C 7615.6533 94.713526 7615.4609 91.198953 7622.7812 92.84375 C 7627.7634 93.963172 7630.6516 92.725011 7633 88.5 C 7636.0534 83.006528 7635.9986 77.972162 7632.7812 65.8125 C 7631.134 59.586856 7629.3988 51.575 7628.9062 48 C 7627.479 37.640134 7630.5027 25 7634.4062 25 z "/>
</svg>
