<svg xmlns="http://www.w3.org/2000/svg"
     width="16.8" height="64.0"
     viewBox="2082.4138 18.0683 23.0550 87.8082">
  <path d="M 2101.4688 79.875 C 2101.1924 77.787678 2101.1898 74.512141 2101.2188 67.75 C 2101.2762 54.352394 2100.3957 45.067352 2097.5938 29.3125 C 2096.7908 24.797959 2094.6939 22.068324 2093.5 24 C 2093.1021 24.643827 2091.6339 24.858864 2090 24.5 C 2088.4547 24.1606 2086.9613 24.2428 2086.6875 24.6875 C 2086.4138 25.1322 2087.0408 29.55 2088.0938 34.5 C 2090.0909 43.889198 2092.0449 68.322044 2091.4375 76.4375 C 2091.0586 81.499828 2089.3421 93.773478 2088.375 98.25 C 2087.7229 101.26814 2088.136 101.53713 2091.125 99.9375 C 2092.5769 99.160466 2093.5283 99.172927 2094.5625 100.03125 C 2096.7858 101.87648 2099 100.41432 2099 97.09375 C 2099 95.458947 2099.3958 93.889885 2099.875 93.59375 C 2099.9011 93.577588 2100.0557 93.634506 2100.0938 93.625 L 2100 93 L 2100.5312 88.34375 C 2100.2008 87.668896 2100 86.99902 2100 86.34375 C 2100 84.768545 2100.2962 84.214903 2100.9688 84.3125 L 2101.4688 79.875 z M 2090.125 28.0625 C 2090.61 28.009766 2091.2916 28.097126 2092.2188 28.1875 C 2096.0587 28.561798 2096.17 28.986392 2098.4375 49.125 C 2099.974 62.771944 2099.8779 70.700298 2097.9375 87.5 C 2097.3658 92.45 2096.5722 96.759422 2096.1875 97.0625 C 2095.8028 97.365578 2094.4423 97.428927 2093.1562 97.21875 C 2091.3336 96.920835 2090.9432 96.347119 2091.3438 94.65625 C 2092.0856 91.525198 2093.1912 81.763719 2093.4375 76.25 C 2093.836 67.328101 2092.0336 42.247941 2090.5312 35.875 C 2089.0596 29.632301 2088.6699 28.220703 2090.125 28.0625 z "/>
</svg>
