<svg xmlns="http://www.w3.org/2000/svg"
     width="28.7" height="64.0"
     viewBox="3145.0001 19.0971 39.4911 88.1416">
  <path d="M 3178,61.5 3178,53.15625 C 3177.9769,38.880785 3174.7641,27.758223 3169.7812,24.625 3167.3514,23.097139 3166.1124,24.644046 3163.4688,32.5 L 3161.25,39.09375 3158.625,35.96875 C 3157.1814,34.25311 3155.727,31.65761 3155.4062,30.1875 3154.436,25.740675 3154.1011,25 3153,25 3150.4448,25 3149.0001,35.307595 3150.875,40.1875 3151.3642,41.460805 3153.569,44.525 3155.75,47 L 3159.7188,51.5 3160.25,63 C 3160.5447,69.325 3161.2904,75.780086 3161.9062,77.34375 3162.8838,79.825633 3162.7,80.547598 3160.5312,83.125 3156.1254,88.360971 3154.9095,97.781792 3158.125,101.65625 3159.4384,103.23878 3161,102.52298 3161,100.34375 3161,99.492854 3162.4006,97.044117 3164.0938,94.90625 3167.6731,90.387006 3169.4193,90.706314 3173,96.5 3175.6551,100.79603 3177.3776,100.94796 3179,97.03125 3180.4912,93.431047 3179.7182,89.78072 3176.4062,84.71875 3174.1902,81.331771 3174.0592,80.547362 3175.0312,76.9375 3175.665,74.584202 3176.291,73.509643 3177.6562,73.5 L 3176.5,72 3178,61.5 z M 3169.1562,27.34375 C 3169.5753,27.424421 3170.019,27.610864 3170.375,27.90625 3172.0903,29.329831 3174.9504,39.326466 3175.3125,45.15625 3175.5482,48.951034 3175.1151,50.401506 3172.9688,53.03125 L 3170.3438,56.25 3166.5625,52.9375 C 3162.8029,49.636531 3162.7875,49.557779 3163.4375,43.8125 3164.2182,36.911896 3166.6435,28.345751 3168.0625,27.46875 3168.3424,27.295761 3168.7372,27.263079 3169.1562,27.34375 z M 3152.3125,31.3125 C 3152.4837,31.139368 3152.7739,31.537743 3153.3125,32.40625 3153.9677,33.462688 3155.9625,35.996029 3157.75,38.03125 3159.654,40.199158 3161,42.834899 3161,44.375 3161,47.618244 3159.0773,47.768203 3156.25,44.75 3153.5591,41.877428 3151.9877,37.736724 3152.0625,33.6875 3152.0891,32.247418 3152.1413,31.485632 3152.3125,31.3125 z M 3162.4688,53 C 3162.7188,53 3164.0812,54.175 3165.5312,55.625 L 3168.1875,58.28125 3165.7812,60.65625 C 3164.4646,61.972916 3163.0708,62.758334 3162.6875,62.375 3161.9277,61.615243 3161.7288,53 3162.4688,53 z M 3174.4688,55.96875 C 3175.0066,55.878016 3175.5,56.251922 3175.5,57.15625 3175.5,57.797916 3174.8962,58.534575 3174.1562,58.78125 3173.3151,59.061624 3172.9403,58.605217 3173.1562,57.5625 3173.3503,56.625427 3173.9309,56.059484 3174.4688,55.96875 z M 3170.0938,60.125 C 3171.3906,60.084109 3172.5406,60.907526 3173.625,62.5625 3175.1857,64.944501 3175.1955,65.560183 3173.6562,71.9375 3171.5121,80.821239 3171.5434,81.430262 3174.5,85.78125 3176.9818,89.433523 3177.9455,96 3176,96 3175.45,96 3175,95.570301 3175,95.0625 3175,93.215006 3169.7845,88 3167.9375,88 3166.8323,88 3164.9173,89.66943 3163.375,92 3159.9276,97.209344 3158.5989,97.126829 3159.3125,91.75 3159.7302,88.603197 3160.687,86.809648 3163.0312,84.84375 L 3166.1875,82.1875 3164.5938,76.6875 C 3162.3323,68.907993 3162.5602,66.076674 3165.6875,62.8125 3167.3562,61.070717 3168.7969,60.165891 3170.0938,60.125 z"/>
</svg>
