<svg xmlns="http://www.w3.org/2000/svg"
     width="31.2" height="64.0"
     viewBox="3360.1496 19.0000 42.1422 86.5431">
  <path d="M3371.2 97.8C3370.54 97.14 3370.0 95.816558 3370.0 94.859017C3370.0 93.901476 3369.55 92.839919 3369.0 92.5C3368.45 92.160081 3367.9972 91.121024 3367.9938 90.190983C3367.9905 89.260942 3367.3155 87.211062 3366.4938 85.635693C3364.1496 81.140891 3364.6718 79.02353 3370.103 71.0L3375.1798 63.5L3374.5697 55.063135C3374.2341 50.42286 3373.7546 46.421235 3373.504 46.170635C3373.2534 45.920035 3372.3516 46.293249 3371.5 47.0C3370.6484 47.706751 3369.7138 48.047178 3369.4232 47.756505C3368.8475 47.18081 3373.7858 43.0 3375.0415 43.0C3376.1333 43.0 3377.3721 61.243527 3376.4756 64.118663C3376.0671 65.428398 3374.3306 68.281061 3372.6165 70.457913C3366.751 77.907021 3366.1434 79.963192 3368.4382 84.596362C3369.2292 86.193363 3370.8972 89.75 3372.1448 92.5C3373.3924 95.25 3374.5828 97.8375 3374.79 98.25C3375.402 99.468437 3372.5053 99.105348 3371.2 97.8Z M3386.5 39.482146C3383.75 37.03959 3381.1447 35.031879 3380.7105 35.020567C3380.2764 35.009255 3377.5824 36.575 3374.7239 38.5C3365.8188 44.497036 3365.6717 42.810986 3374.5054 35.995834C3379.6252 32.045923 3380.2682 31.805574 3382.5081 33.004358C3385.2084 34.449488 3394.0 42.38005 3394.0 43.370709C3394.0 45.04447 3391.027 43.503052 3386.5 39.482146Z M3388.0 32.0C3385.525 29.360704 3382.6691 27.155992 3381.6534 27.10064C3380.6378 27.045288 3377.762 28.8 3375.2627 31.0C3372.7633 33.2 3369.9943 34.985744 3369.1092 34.96832C3368.0369 34.94721 3368.501 34.210576 3370.5 32.760532C3372.15 31.563673 3375.2404 28.87793 3377.3676 26.792213C3379.4949 24.706496 3381.6264 23.0 3382.1043 23.0C3383.7791 23.0 3395.1988 34.869314 3394.5438 35.929187C3393.5266 37.575041 3392.8432 37.164726 3388.0 32.0Z M3385.3113 98.368722C3384.967 97.47152 3385.2411 93.940937 3385.9205 90.522982C3386.9832 85.176522 3386.9324 83.773905 3385.5565 80.480956C3382.9393 74.217154 3382.067 73.588431 3379.4303 76.065466C3376.0822 79.21089 3374.5895 83.3644 3375.9163 85.843531C3376.5123 86.957273 3376.9483 89.810601 3376.885 92.184259L3376.77 96.5L3375.9929 93.0C3375.5655 91.075 3374.6192 88.039187 3373.8901 86.253749C3372.4368 82.695275 3373.3671 80.296022 3378.9306 73.252825L3381.4957 70.005651L3383.2846 72.252825C3384.2685 73.488771 3386.3417 76.975 3387.8917 80.0C3390.4484 84.989747 3390.5883 85.77832 3389.4 88.5C3388.6796 90.15 3388.0699 92.776818 3388.0451 94.337372C3388.0072 96.724647 3388.5316 96.169435 3391.3514 90.837372C3395.8513 82.328128 3395.5819 79.336674 3389.4821 70.077806C3384.9792 63.242727 3384.625 62.235891 3384.2116 55.093761C3383.8595 49.011345 3384.0868 47.172859 3385.3173 46.151665C3386.6074 45.080921 3387.2115 45.21146 3388.9331 46.933088C3391.6204 49.62035 3391.6983 51.444107 3389.0657 50.035184C3385.8744 48.327222 3385.685 48.723337 3386.3398 55.735446C3386.8863 61.588529 3387.5768 63.360846 3391.6105 69.264297C3397.609 78.043544 3398.2918 82.664967 3394.6116 89.578231C3393.1752 92.276452 3392.0 95.185167 3392.0 96.042043C3392.0 99.64011 3386.5294 101.54307 3385.3113 98.368722Z"/>
</svg>
