<svg xmlns="http://www.w3.org/2000/svg"
     width="64.0" height="57.8"
     viewBox="1697.2021 17.2226 97.2082 87.7774">
  <path d="M 1732.9375,21.28125 C 1732.2281,21.339865 1731.1633,21.903191 1729.1562,23.03125 1723.8026,26.040201 1719.5337,32.054042 1720.375,35.40625 1721.0373,38.044834 1725.2469,41.53746 1728.5,42.15625 1730.7913,42.592081 1731.427,44.859323 1730.5625,49.34375 1729.3824,55.465378 1728.7188,55.618214 1722.5312,51.1875 1715.4329,46.104344 1711.6154,45.13242 1708.7812,47.65625 1704.3865,51.570084 1701.2021,64.36714 1703.1875,70.0625 1704.649,74.254952 1706.6366,73.719357 1707.4062,68.90625 1708.7064,60.776166 1712.5696,56.616078 1716.7188,58.875 1717.702,59.410327 1719.9982,61.393812 1721.8438,63.3125 L 1725.2188,66.8125 1720.5938,73.40625 C 1718.0606,77.030214 1716,80.886579 1716,82 1716,83.113421 1717.125,85.821859 1718.5,88 1719.875,90.178141 1721,92.253486 1721,92.625 1721,92.996515 1722.1638,94.84389 1723.5938,96.71875 1726.0805,99.978997 1726.2767,100.05073 1728.0938,98.40625 1730.5552,96.178694 1730.5137,91.213604 1728,88 1725.3842,84.655887 1725.5046,82.812092 1728.5312,79.96875 L 1731.0625,77.59375 1735.1875,81.84375 1739.3438,86.09375 1737.6562,91.375 C 1736.74,94.281951 1736,97.654591 1736,98.84375 1736,100.64348 1736.5875,101 1739.4688,101 1742.6713,101 1743.0161,100.70727 1744.0312,96.9375 1744.6348,94.696621 1744.9307,92.334121 1744.6875,91.6875 1744.2316,90.475387 1744.0886,90.70561 1742.0625,96.25 1741.5098,97.7625 1740.595,99 1740.0312,99 1738.524,99 1738.7643,94.791579 1740.5312,90.5625 1741.3806,88.52996 1741.8344,86.079973 1741.5312,85.125 1740.8467,82.967959 1733.0814,75 1731.6562,75 1729.9991,75 1723.9927,81.220279 1724,82.9375 1724.0036,83.792108 1724.9072,85.85 1726,87.5 1728.0849,90.648066 1728.6086,94.501237 1727.0938,95.4375 1726.2829,95.938588 1718,83.838086 1718,82.15625 1718,81.763737 1720.25,78.365844 1723,74.59375 1725.75,70.821655 1728,66.950635 1728,65.96875 1728,63.727154 1719.8392,56.439829 1716.3438,55.5625 1713.1542,54.761997 1708.6236,58.592827 1706.7812,63.6875 1705.0306,68.529126 1704.3057,67.736667 1705,61.75 1705.6658,56.009602 1708.2579,50.228117 1710.5625,49.34375 1712.63,48.550381 1717.0668,50.573734 1723.125,55.09375 1729.2782,59.68466 1730.3404,59.284982 1732.0312,51.6875 1733.8261,43.623089 1733.1424,40.695824 1729.25,39.90625 1724.8212,39.007891 1723,37.288499 1723,33.96875 1723,30.733885 1728.1113,25 1731,25 1732.6298,25 1732.7153,25.406163 1731.8438,28.5625 1730.0242,35.151859 1734.5382,37.17902 1739.5,32 1743.2545,28.081153 1745.3411,27.962692 1743.9062,31.75 1743.3333,33.2625 1741.8949,35.525655 1740.7188,36.78125 1738.9241,38.696802 1738.5344,40.599397 1738.1875,48.53125 1737.7018,59.635745 1738.7256,60.981653 1744.4375,56.625 1746.3202,55.189002 1748.2848,54 1748.7812,54 1749.2776,54 1751.7599,55.636295 1754.3125,57.625 1756.865,59.613706 1759.562,61.006758 1760.3125,60.71875 1763.2428,59.594295 1769.3065,48.78524 1769.7812,43.84375 1770.1979,39.508077 1770.058,39 1768.25,39 1767.141,39 1765.1734,38.112952 1763.875,37.03125 1760.9568,34.600167 1762.7883,34.409192 1766.8125,36.71875 1769.3985,38.202909 1770.0164,38.231309 1771.5,37 1772.4394,36.220343 1773.6004,34.516092 1774.0938,33.21875 1775.32,29.992978 1774.1279,23 1772.3438,23 1771.2518,23 1771.0543,24.062491 1771.5,27.75 1772.3044,34.405582 1771.1837,35.78988 1766.6875,33.65625 1763.0027,31.907732 1760.5182,32.234774 1759.625,34.5625 1758.9936,36.207842 1761.0562,38.474583 1765.0938,40.5625 1766.6916,41.388803 1768.0054,42.607874 1768,43.28125 1767.9817,45.582792 1763.2981,54.510096 1761.0625,56.5 1759.1072,58.240383 1758.6722,58.283176 1757.6562,56.96875 1755.893,54.687148 1751.288,52 1749.1562,52 1748.1112,52 1746.0719,52.962298 1744.5938,54.125 1743.1155,55.287703 1741.6398,55.983615 1741.3438,55.6875 1741.0476,55.391384 1740.7784,51.970492 1740.7188,48.09375 1740.6302,42.357132 1740.9901,40.634409 1742.625,38.78125 1746.7463,34.109801 1748.5096,25.794396 1745.625,24.6875 1744.8554,24.392176 1742.5807,25.898859 1740.4375,28.09375 1734.7072,33.962059 1732.7556,33.045488 1735.5312,25.8125 1735.8208,25.058123 1735.4402,23.59187 1734.6875,22.5625 1734.024,21.655093 1733.6469,21.222635 1732.9375,21.28125 z M 1778.4375,22.40625 C 1777.4883,22.217034 1777.3802,23.561262 1778.3125,26.03125 1779.2177,28.429442 1779.0391,29.819536 1777.3125,33.90625 1776.1578,36.639352 1775.4751,39.131322 1775.7812,39.4375 1776.7625,40.418692 1777.0663,40.078935 1779.0312,35.75 1781.2797,30.796792 1781.5772,24.719215 1779.6562,23.125 1779.1567,22.710406 1778.7539,22.469322 1778.4375,22.40625 z M 1785.6875,23.8125 C 1785.3308,24.337772 1785.3004,25.966699 1785.6562,28.5625 1786.1228,31.966519 1785.784,33.613419 1784,36.5 1782.761,38.504685 1780.7397,40.528661 1779.5,41 1777.9909,41.57373 1775.8583,44.709429 1773.0938,50.5 1768.4905,60.141828 1763.4013,66.94144 1760.75,66.96875 1759.7875,66.978664 1759,66.588218 1759,66.09375 1759,64.891461 1751.4305,61 1749.0938,61 1747.3017,61 1740,68.125894 1740,69.875 1740,70.349243 1740.814,71.813328 1741.8125,73.125 1746.9186,79.832331 1748.2254,82.964183 1747.1562,86.03125 1745.9915,89.372469 1746.5924,89.88649 1748.5938,87.25 1750.7609,84.395048 1750.2087,81.575876 1746.5,76.71875 1742.4301,71.388502 1742.2031,69.489295 1745.1875,66.3125 1748.0664,63.24809 1750.6859,63.435978 1755.4375,67.03125 1757.598,68.665949 1760.0746,70 1760.9688,70 1764.2143,70 1770.0738,62.192596 1776.3125,49.5 1777.3938,47.3 1779.9687,44.02087 1782.0625,42.21875 1788.4486,36.722161 1790.4103,30.933232 1787.6562,25.625 1786.7387,23.856425 1786.0442,23.287228 1785.6875,23.8125 z"/>
</svg>
