<svg xmlns="http://www.w3.org/2000/svg"
     width="50.6" height="64.0"
     viewBox="7161.0458 20.7562 39.4289 49.8375">
  <path d="M 7166.9062 60.84375 L 7168.7188 62.28125 C 7169.2491 61.574811 7169.7141 61.038263 7170.375 60.0625 C 7173.3711 55.6393 7175.2704 49.577366 7174.4688 47 C 7174.2122 46.175 7172.6514 44.71817 7171 43.78125 C 7169.3486 42.844331 7168 41.592699 7168 40.96875 C 7168 40.344802 7170.4722 37.270383 7173.5 34.15625 L 7179 28.5 L 7180.9688 31 C 7183.2864 33.946937 7186 41.353996 7186 44.75 C 7186 46.745891 7185.5537 47.080655 7183.375 46.8125 C 7180.9649 46.515863 7180.4802 47.15981 7177.0312 55.15625 C 7175.483 58.745808 7173.6859 62.020613 7171.9375 64.84375 L 7174.125 66.59375 C 7177.0878 59.453047 7182.2784 50 7184.0312 50 C 7187.8458 50 7189 48.844727 7189 45.0625 C 7189 42.400504 7189.7 40.692978 7191.4688 39.03125 C 7194.3474 36.326873 7196.4747 30.676881 7195.5312 28.21875 C 7194.9802 26.782638 7194.336 27.098343 7191.5312 30.25 C 7189.6959 32.3125 7187.5372 34 7186.7188 34 C 7185.9002 34 7184.2638 31.958006 7183.0938 29.46875 C 7181.2914 25.634474 7180.6938 25.083362 7179.1562 25.90625 C 7178.158 26.440479 7176.7409 27.582472 7176.0312 28.4375 C 7174.1941 30.651126 7172.8824 30.386671 7170.4062 27.28125 C 7168.5396 24.940224 7168.0107 24.756217 7166.625 25.90625 C 7165.3505 26.963981 7165.0458 28.972077 7165.1875 35.5625 L 7165.375 43.875 L 7168.6875 45.65625 C 7172.9861 47.971149 7173.0381 51.284896 7168.9062 58 C 7167.9395 59.571192 7167.5705 59.922443 7166.9062 60.84375 z M 7167.7812 29.15625 C 7168.2903 28.90174 7169.0361 29.338546 7170 30.5 C 7170.9932 31.696716 7170.9932 32.303284 7170 33.5 C 7168.0722 35.822907 7167 35.286828 7167 32 C 7167 30.356586 7167.2722 29.41076 7167.7812 29.15625 z M 7192.6562 33.28125 C 7192.9918 33.518342 7192.0804 35.045892 7190.1875 37.25 C 7188.5927 39.107022 7187 39.561248 7187 38.15625 C 7187 37.266292 7189.5351 34.861814 7191.9062 33.5 C 7192.3071 33.2698 7192.5444 33.202219 7192.6562 33.28125 z "/>
</svg>
