<svg xmlns="http://www.w3.org/2000/svg"
     width="43.4" height="64.0"
     viewBox="1040.8808 14.4281 62.1192 91.6332">
  <path d="M 1079.5625 83.25 C 1078.306 81.989619 1077.1314 80.827741 1075.375 78.6875 C 1073.633 76.564754 1072.6207 76.192262 1069.875 76.59375 C 1068.0243 76.86438 1066.0505 76.713691 1065.5 76.28125 C 1063.4166 74.64472 1060.1963 66.288693 1059.625 61 C 1058.6043 51.552213 1063.3908 39 1068 39 C 1071.1274 39 1073.9847 43.713177 1074 48.875 C 1074.0205 55.808028 1074.8884 58.1786 1077.125 57.46875 C 1078.1568 57.141263 1079 57.297015 1079 57.84375 C 1079 58.390485 1078.4375 59.050462 1077.75 59.28125 C 1076.899 59.566932 1076.9405 59.659307 1077.875 59.59375 C 1078.6299 59.54079 1080.0122 57.480893 1080.9688 55.03125 C 1081.9253 52.581607 1083.1919 50.436025 1083.75 50.25 C 1084.308 50.063974 1085.7283 51.606831 1086.9375 53.65625 L 1089.1562 57.375 L 1092 54.3125 C 1095.7375 50.313341 1099 44.164412 1099 41.09375 C 1099 35.401021 1091.9049 32.266454 1085.5625 35.15625 C 1083.6127 36.044617 1082.7021 35.997682 1081.5 35 C 1080.1072 33.84409 1080.1026 33.491355 1081.4688 31.40625 C 1083.0738 28.9567 1083.4158 26.224735 1082.4062 23.59375 C 1081.2888 20.681753 1080 21.958796 1080 26 C 1080 28.615385 1079.5375 30 1078.6875 30 C 1076.3697 30 1075 27.69638 1075 23.8125 C 1075 19.518447 1073.543 18.717858 1072.5938 22.5 C 1071.6373 26.310619 1066.6468 25.640106 1065.875 21.59375 C 1065.2957 18.556974 1063 18.428143 1063 21.4375 C 1063 23.183398 1061.8262 25.090229 1059.4375 27.1875 C 1054.3541 31.650756 1049.3426 42.682883 1047.6875 53.09375 C 1046.2679 62.023215 1046.2562 61.972612 1050.0625 74.53125 C 1051.2456 78.434979 1051.1851 78.658734 1048.0312 81.8125 C 1045.2155 84.628177 1044.8808 85.532419 1045.4375 88.5 C 1045.7912 90.385513 1046.9885 93.970179 1048.0938 96.46875 C 1050.3329 101.53072 1051.9441 102.06135 1055 98.78125 C 1056.6525 97.007478 1056.9414 95.753301 1056.4688 92.53125 C 1056.0698 89.81151 1056.3228 87.886201 1057.2812 86.59375 C 1058.6409 84.760133 1058.8904 84.749441 1062.875 86.34375 C 1065.1644 87.259799 1067.7224 88 1068.5625 88 C 1069.3339 88 1071.8885 89.988383 1074.4062 92.40625 L 1075.5 90.4375 C 1074.6048 89.452409 1073.7259 88.444197 1072.6875 87.125 C 1071.3962 85.484609 1070.2209 84.974473 1068.625 85.375 C 1067.3021 85.707039 1064.7865 85.115039 1062.5312 83.90625 L 1058.7188 81.84375 L 1056.0938 84.4375 C 1053.9898 86.544783 1053.5 87.991985 1053.5 92 C 1053.5 94.727623 1053.0421 97.008306 1052.5 97.0625 C 1051.9579 97.116694 1050.647 94.70362 1049.5625 91.6875 L 1047.5938 86.1875 L 1051.2812 82.09375 C 1053.3203 79.836688 1055 77.596976 1055 77.09375 C 1055 76.590523 1053.8528 73.911743 1052.4688 71.15625 C 1049.4185 65.08347 1049.1916 59.466122 1051.5 48.5 C 1053.5677 38.676597 1055.916 33.399515 1059.875 29.625 C 1062.5228 27.100512 1063.4419 26.787239 1067.125 27.28125 C 1072.5736 28.012065 1075.9027 30.597478 1078.8438 36.3125 L 1081.2188 40.90625 L 1084.8438 38.46875 C 1089.4518 35.337436 1093.4572 35.258992 1095.4375 38.28125 C 1097.3402 41.185122 1095.9148 46.461256 1091.9375 51.21875 L 1089.2188 54.5 L 1087.4062 50.71875 C 1085.1315 45.955844 1083.2446 46.239276 1080.1875 51.78125 C 1078.8986 54.117848 1077.4191 55.75446 1076.9062 55.4375 C 1076.3935 55.120541 1076.0669 52.506267 1076.1875 49.625 C 1076.4429 43.521547 1073.5842 38.423739 1069.2812 37.34375 C 1065.7134 36.448285 1063.9711 37.797476 1060.5 44.09375 C 1057.765 49.054801 1057.5374 50.30245 1057.5625 59 C 1057.5847 66.679791 1058.0043 69.3919 1059.7812 73.125 C 1062.7034 79.263581 1064.2021 80.388329 1068.4375 79.59375 C 1071.731 78.975895 1072.0898 79.195818 1076.0312 84.53125 C 1076.5975 85.297752 1077.1185 85.897626 1077.6875 86.59375 L 1079.5625 83.25 z "/>
</svg>
