<svg xmlns="http://www.w3.org/2000/svg"
     width="39.9" height="64.0"
     viewBox="421.0938 18.6028 52.8889 84.9014">
  <path d="M 425.09375 84.8125 L 425.15625 87.40625 C 425.68702 87.703834 426.18796 87.942192 426.8125 88.375 C 433.77954 93.203163 437.53379 91.489529 444.28125 80.375 C 446.32353 77.010936 448.86628 71.385936 449.9375 67.875 C 451.54386 62.610083 456.98073 40.217599 458.53125 32.46875 C 458.96027 30.324712 462.53058 26 463.875 26 C 465.27197 26 466.99727 30.973165 466.9375 34.8125 C 466.9058 36.849121 466.0267 41.65 464.96875 45.5 C 463.91081 49.35 462.32463 56.162597 461.4375 60.65625 C 459.81075 68.896446 460.17846 72.487212 463.625 81.46875 C 464.73197 84.353478 461.17551 84.329978 458.6875 81.4375 C 457.16109 79.662945 455.75355 78.884158 454.71875 79.28125 C 453.83299 79.621147 450.79387 83.08456 447.96875 86.96875 C 445.14363 90.852939 442.06955 94.424501 441.15625 94.90625 C 438.59985 96.254717 430.72838 96.036203 428.46875 94.5625 C 427.83997 94.152419 426.66655 93.715538 425.34375 93.3125 L 425.40625 95.875 C 426.2436 96.184326 427.07765 96.495709 427.71875 97 C 430.55439 99.230517 433.69018 99.504178 439.21875 97.96875 C 441.97131 97.204291 444.08476 95.442441 447.34375 91.21875 C 449.7673 88.077806 452.72332 84.62465 453.90625 83.5625 C 456.03683 81.649468 456.08035 81.651817 457.59375 83.8125 C 459.42632 86.428867 464.47033 86.77333 465.8125 84.375 C 466.40017 83.324896 466.04869 80.277025 464.84375 75.6875 C 462.64317 67.305667 462.59732 64.322815 464.5 57 C 469.53297 37.629629 469.98261 35.311425 469.40625 31.34375 C 468.74077 26.762573 465.23206 22.602778 462.8125 23.53125 C 459.34891 24.860356 456.84991 30.287066 454.4375 41.78125 C 449.17005 66.878632 444.73483 78.608517 437.5625 86.34375 C 434.52657 89.617944 432.25257 89.476338 426.53125 85.59375 C 426.0429 85.262343 425.56939 85.055646 425.09375 84.8125 z "/>
</svg>
