<svg xmlns="http://www.w3.org/2000/svg"
     width="52.2" height="64.0"
     viewBox="4382.1780 14.0572 76.5345 93.9039">
  <path d="M4403.3078 102.85602C4402.6956 102.11021 4400.4035 98.091037 4398.2143 93.924527C4394.5826 87.012771 4394.3419 86.092825 4395.4668 83.424527C4396.1448 81.816037 4398.2675 79.15 4400.1838 77.5C4402.1 75.85 4404.4583 73.279406 4405.4243 71.787569C4407.1329 69.149073 4407.1087 68.922772 4404.5364 63.485373C4401.2732 56.58756 4398.4614 55.083729 4395.3141 58.55301C4394.1118 59.878244 4392.8224 63.001491 4392.4487 65.49356C4391.3933 72.531241 4388.5427 72.716198 4387.0683 65.842649C4386.178 61.691814 4388.7884 53.455014 4392.5624 48.507094C4396.1741 43.771878 4401.2583 43.572602 4405.5 48.0C4408.8047 51.449391 4409.7047 51.598302 4412.6032 49.175326C4416.1862 46.180106 4417.1223 43.402717 4416.3955 37.923461C4415.8345 33.694707 4415.2923 32.681424 4413.1557 31.869111C4411.7444 31.332535 4408.916 31.176298 4406.8703 31.521917C4402.6402 32.236591 4401.0 30.466946 4401.0 25.188186C4401.0 19.432169 4407.044 18.365894 4410.4247 23.525497L4412.0949 26.074485L4416.7846 22.06586L4421.4743 18.057236L4425.197 21.692409L4428.9198 25.327581L4432.7637 22.663791C4437.2691 19.541519 4437.3804 19.523273 4439.4286 21.571429C4443.376 25.518835 4439.7155 31.387188 4433.6327 30.863126C4431.6937 30.696073 4429.8074 30.859242 4429.4409 31.225725C4429.0745 31.592208 4428.198 34.655025 4427.4933 38.031984L4426.212 44.171911L4429.2096 47.585955C4432.5196 51.355806 4434.1047 51.783757 4436.0547 49.434063C4436.7695 48.572798 4438.6708 47.187345 4440.2799 46.355279C4446.0993 43.345955 4452.2348 48.229278 4453.8672 57.169515C4454.7125 61.799253 4454.6084 63.587382 4453.2995 66.919515C4451.2285 72.191778 4449.395 72.119395 4448.5873 66.733487C4448.2354 64.386905 4446.8875 61.137643 4445.592 59.512905C4443.6504 57.07793 4442.9758 56.77523 4441.7527 57.790293C4440.9366 58.467594 4439.9878 61.07268 4439.6442 63.579373C4438.9889 68.360062 4439.6317 70.107888 4444.5425 76.897883C4447.645 81.187549 4447.6326 83.902611 4444.4789 90.903509C4439.9548 100.9465 4439.5622 101.5 4436.9617 101.5C4434.8183 101.5 4434.4585 100.99201 4434.1789 97.570765C4433.9994 95.373692 4434.5902 92.017525 4435.5191 89.95764C4437.1087 86.432465 4437.0894 86.095519 4435.0698 82.136875C4432.7813 77.650928 4431.9105 77.198018 4430.0 79.5C4429.3153 80.325 4428.205 81.0 4427.5325 81.0C4426.8601 81.0 4425.4955 81.9 4424.5 83.0C4422.0618 85.694133 4420.8503 85.529133 4417.1574 82.0C4412.7585 77.796136 4410.7545 78.057256 4408.118 83.177855C4407.258 84.848158 4407.0067 86.91755 4407.4502 88.677855C4409.3503 96.221144 4409.2281 98.623343 4406.8002 101.4459C4404.8611 103.70027 4404.2149 103.96116 4403.3078 102.85602Z M4406.5792 97.540608C4406.9283 96.149604 4406.4521 93.132312 4405.4831 90.59491C4403.8232 86.248553 4403.8338 86.004994 4405.8225 82.787244C4406.9515 80.960496 4408.9668 78.440412 4410.3009 77.187058L4412.7266 74.908232L4417.2049 78.326617L4421.6832 81.745003L4427.374 77.8335C4430.5039 75.682173 4433.4431 74.155833 4433.9056 74.441633C4434.368 74.727433 4435.9327 77.386179 4437.3828 80.349957L4440.0192 85.738645L4438.0316 90.119322C4435.8431 94.942584 4435.5011 97.573607 4436.9464 98.466848C4437.4669 98.788532 4439.4988 95.851488 4441.4618 91.940083C4444.7184 85.451101 4444.9387 84.486081 4443.978 80.918284C4443.3989 78.7677 4442.103 76.218802 4441.0982 75.254066C4436.7061 71.037217 4435.901 65.787186 4438.6086 59.020236C4440.7674 53.624756 4444.4567 53.414134 4447.75 58.498354C4448.9875 60.408833 4450.0 62.428262 4450.0 62.985976C4450.0 63.543689 4450.5127 64.0 4451.1393 64.0C4452.6005 64.0 4451.6266 54.976164 4449.8601 52.147518C4448.6795 50.257139 4444.9622 48.0 4443.0295 48.0C4442.5476 48.0 4440.0136 49.633159 4437.3986 51.629241L4432.6441 55.258483L4427.911 50.296864L4423.178 45.335245L4424.5907 38.917622C4425.3677 35.38793 4426.26 31.375 4426.5736 30.0C4427.0098 28.08753 4426.4351 26.822417 4424.1282 24.616813L4421.1125 21.733626L4417.9384 24.907792C4414.8325 28.013685 4414.8038 28.125675 4416.6036 30.114432C4417.9076 31.555368 4418.5569 34.164154 4418.8346 39.077997L4419.2262 46.009087L4415.2308 50.004544C4413.0332 52.202045 4410.5773 54.0 4409.7732 54.0C4408.969 54.0 4407.0036 52.86337 4405.4055 51.474155C4399.6635 46.482452 4395.5126 46.835176 4392.5802 52.563998C4388.6025 60.335047 4387.8175 62.851446 4388.8149 64.633791C4389.6159 66.065017 4389.8764 65.839345 4390.4528 63.214801C4391.2326 59.664615 4394.2317 55.481573 4397.0965 53.948346C4400.1984 52.288289 4404.5544 55.553323 4407.4792 61.730654C4408.8656 64.658863 4410.0 67.654574 4410.0 68.387789C4410.0 70.444467 4405.7587 76.220012 4400.9642 80.692308L4396.6306 84.73466L4400.402 92.36733C4402.4762 96.565298 4404.5758 100.0 4405.0676 100.0C4405.5595 100.0 4406.2397 98.893274 4406.5792 97.540608Z M4408.4872 28.020667C4409.3689 26.594114 4407.1828 23.0 4405.4334 23.0C4403.6559 23.0 4402.5536 25.394203 4403.3616 27.5C4404.0049 29.176412 4407.5504 29.536562 4408.4872 28.020667Z M4417.7029 71.207837C4414.6344 68.065331 4414.0 66.703525 4414.0 63.258729C4414.0 59.719932 4414.4973 58.722458 4417.3444 56.550891C4419.1838 55.147901 4421.3862 54.0 4422.2386 54.0C4424.5968 54.0 4430.0 59.522965 4430.0 61.933328C4430.0 66.460046 4424.8569 74.790128 4421.9529 74.966731C4421.6521 74.985029 4419.7396 73.293527 4417.7029 71.207837Z M4425.0 69.0C4426.1 67.9 4427.0 66.361804 4427.0 65.581787C4427.0 64.801771 4427.2666 63.468834 4427.5924 62.619707C4428.1245 61.233046 4423.7777 56.0 4422.0938 56.0C4421.756 56.0 4420.2108 57.176468 4418.6601 58.614373C4415.4358 61.604111 4415.6253 64.868368 4419.2484 68.75C4421.823 71.508202 4422.4639 71.536062 4425.0 69.0Z M4436.4182 28.393011C4438.2276 27.698679 4438.5426 24.453363 4436.8991 23.437661C4435.4647 22.551133 4431.5511 26.464701 4432.4377 27.899134C4433.2099 29.148568 4434.1464 29.264773 4436.4182 28.393011Z"/>
</svg>
