<svg xmlns="http://www.w3.org/2000/svg"
     width="57.9" height="64.0"
     viewBox="4832.9853 20.0000 82.5971 91.2212">
  <path d="M 4885.2188,93.34375 C 4885.1949,93.274685 4885,93.190065 4885,93.125 4885,92.590238 4883.4454,90.122936 4881.5625,87.65625 L 4878.1562,83.1875 4881.0312,77.09375 C 4882.6159,73.743307 4884.5358,71 4885.2812,71 4886.8566,71 4891.2292,75.466634 4892.9688,78.84375 4893.6286,80.124998 4894.6878,84.070455 4895.3438,87.625 4895.9998,91.179544 4896.9925,94.167042 4897.5312,94.28125 4898.7874,94.547548 4900.8642,88.456479 4900.9375,84.3125 4900.9909,81.292373 4901.2405,81.103395 4905.1875,80.8125 4910.8389,80.395988 4911.5824,78 4906.0625,78 4902.5729,78 4901.7973,77.616433 4900.9688,75.4375 4899.3577,71.200062 4899.7938,69.27296 4902.5,68.59375 4903.875,68.248647 4905,67.300908 4905,66.5 4905,65.387635 4904.4387,65.259794 4902.6562,65.9375 4899.9225,66.976871 4898.7743,66.39995 4897.0312,63.09375 4895.9328,61.010391 4895.9781,60.487838 4897.5,59.375 4898.4726,58.663794 4899.7967,57.907037 4900.4062,57.6875 4901.0157,57.467963 4901.1761,56.924328 4900.7812,56.5 4900.3863,56.075671 4898.6671,56.296568 4896.9688,57 4894.6507,57.960208 4893.6091,58.015404 4892.75,57.15625 4890.9984,55.404708 4888.9976,55.760771 4885.4062,58.5 4883.6036,59.875 4881.9867,60.999889 4881.8125,61 4881.6383,61.000111 4881.5622,56.864837 4881.625,51.8125 4881.7352,42.9532 4881.8419,42.533477 4884.625,40.28125 4888.416,37.213449 4891.8336,37.67011 4893.9062,41.5 4897.0406,47.291409 4897.1156,47.366428 4898.4375,44.84375 4899.8397,42.167665 4899.6418,31.790407 4898.0938,27.71875 4897.269,25.549469 4896.4094,25 4893.875,25 4890.5005,25 4880.8551,29.245554 4878.9062,31.59375 4877.4994,33.288928 4875,33.450031 4875,31.84375 4875,29.644507 4869.8969,24 4867.9062,24 4864.8944,24 4860,26.840958 4860,28.59375 4860,29.977186 4860.1561,29.96892 4861.5625,28.5625 4864.0409,26.084115 4868.5533,26.593913 4870.9375,29.625 4872.0774,31.074172 4873,32.816517 4873,33.5 4873,34.183483 4873.5559,35.23644 4874.25,35.8125 4875.1741,36.579415 4877.077,35.815868 4881.3125,32.96875 4887.5149,28.799391 4893.4488,27.042576 4895.25,28.84375 4895.8496,29.443312 4896.5497,32.518003 4896.8125,35.6875 L 4897.2812,41.46875 4893.7188,38.71875 C 4891.752,37.218609 4889.4552,36 4888.625,36 4885.87,36 4880.1955,40.039807 4879.5938,42.4375 4878.6694,46.120425 4879.0464,63.903265 4880.0625,64.53125 4880.5626,64.840318 4882.7864,63.653847 4885,61.875 L 4889.0312,58.625 4892.375,61.90625 C 4894.2932,63.765356 4896.4437,67.303856 4897.375,70.1875 4899.1765,75.765555 4899.5647,85 4898,85 4897.45,85 4897,84.494462 4897,83.875 4897,81.967923 4890.9656,70.574623 4889.25,69.25 4885.6568,66.47571 4883.4031,67.707231 4880.1875,74.25 4874.675,85.466374 4874.7295,85.129943 4879,89.375 4882.4949,92.849008 4884,96.39704 4884,101.125 4884,103.63541 4882.2837,103.50492 4881.4688,100.9375 4880.5002,97.886089 4875.171,92.823813 4873.3125,93.1875 4872.4211,93.361944 4870.2088,95.633205 4868.4062,98.25 4865.4755,102.50459 4865.0633,102.77944 4864.4688,100.90625 4863.2993,97.221532 4864.9232,92.251601 4868.1562,89.53125 4871.0757,87.074673 4871.1472,86.77717 4869.9375,83.71875 4869.2365,81.946554 4868.1519,79.825 4867.5312,79 4865.9434,76.889225 4864.1686,72.857211 4863.8125,70.59375 4862.8184,64.273394 4854.0648,72.759631 4847.5,86.4375 4841.0209,99.936913 4839.2704,100.50329 4843.0312,87.875 4846.6798,75.624052 4859.2141,57.24385 4862.375,59.5 4863.1456,60.05 4865.4247,61.809121 4867.4375,63.40625 4869.977,65.421372 4871.4015,65.973546 4872.125,65.25 4873.1958,64.179261 4873.0257,41.676804 4871.9375,40.59375 4871.6262,40.283976 4869.9502,40.565193 4868.2188,41.21875 4864.2929,42.700582 4859.6655,41.294104 4859.1562,38.46875 4858.6306,35.552314 4857,34.180807 4857,36.65625 4857,37.792078 4857.9131,39.890843 4859.0312,41.3125 4860.7548,43.503528 4861.7832,43.873358 4865.7812,43.71875 L 4870.5,43.53125 4871.1875,48.53125 C 4871.9214,53.96241 4871.228,62 4870.0312,62 4869.6193,62 4867.5763,60.65 4865.5,59 4861.3663,55.714971 4858.5176,55.17398 4857.625,57.5 4856.9411,59.28205 4854.3409,59.491564 4853.7812,57.8125 4853.5506,57.1206 4852.6484,56.939077 4851.5938,57.34375 4849.9426,57.977331 4849.8962,58.213452 4851.3125,60.375 4852.7483,62.566324 4852.6973,62.974015 4850.3438,66.4375 L 4847.8125,70.15625 4845.5,68 C 4842.4687,65.152269 4840.9964,67.279623 4843.875,70.34375 4845.2469,71.804147 4845.7292,73.307443 4845.3438,74.78125 4844.681,77.31551 4842.4837,77.737706 4841.625,75.5 4840.9413,73.71832 4838.4244,73.508808 4837.4062,75.15625 4836.9853,75.837309 4837.8468,77.275523 4839.5,78.59375 L 4842.3438,80.84375 4840.5938,88.28125 C 4838.4849,97.236212 4838.7231,101.5 4841.3438,101.5 4842.5642,101.5 4843.6174,100.29179 4844.4375,97.90625 4847.0848,90.205758 4858.6928,72.24858 4861.6562,71.28125 4862.2959,71.072464 4863.1314,72.364571 4863.5312,74.1875 4863.9298,76.004133 4865.0984,79.083145 4866.125,81 4868.4862,85.408545 4868.4599,85.867573 4865.7812,88.71875 4862.8689,91.81888 4861.9124,102.86248 4864.375,104.90625 4865.7442,106.04257 4866.0921,105.81059 4866.9688,103.34375 4868.4115,99.284138 4869.3807,97.780643 4871.3125,96.5625 4873.5888,95.127038 4877.7584,97.520824 4879.9062,101.5 4882.7139,106.70137 4883.1849,107.22125 4884.1562,106.25 4884.6642,105.74196 4885.3055,104.02748 4885.5938,102.4375 4885.882,100.84751 4886.291,99.365298 4886.5,99.15625 4886.5261,99.13017 4887.0665,99.289206 4887.1562,99.28125 L 4885,94.5 4885.2188,93.34375 z M 4859.0625,32 C 4858.4801,32 4858,32.45 4858,33 4858,33.55 4858.1949,34 4858.4375,34 4858.68,34 4859.1601,33.55 4859.5,33 4859.8399,32.45 4859.645,32 4859.0625,32 z"/>
</svg>
