<svg xmlns="http://www.w3.org/2000/svg"
     width="28.6" height="64.0"
     viewBox="494.7829 30.2600 34.7605 77.7400">
  <path d="M 501.40625 40.9375 L 501.3125 44.09375 C 501.78096 43.659263 501.85876 43.703596 502.4375 43.15625 C 509.16886 36.790004 511.16303 36.578162 513.9375 41.84375 C 514.88262 43.63747 514.89224 45.704116 514.03125 50.84375 C 513.0387 56.768692 513.15661 58.160754 514.96875 63.40625 C 517.44704 70.580058 517.55109 76.743119 515.3125 81.4375 C 513.87953 84.442474 513.80411 85.693906 514.8125 90.0625 C 515.89597 94.756356 515.84371 95.441322 513.84375 98.25 L 511.65625 101.3125 L 509.3125 98.59375 C 506.69925 95.555661 506.42874 92.66307 508.40625 89.09375 C 509.56348 87.005005 509.50688 86.118026 507.90625 82.59375 C 505.65567 77.638406 505.50705 73.101268 507.46875 68.40625 C 509.55483 63.413573 510.34558 55.981381 509.125 52.8125 C 508.5535 51.328764 506.92448 49.339608 505.5 48.40625 C 503.98648 47.414552 502.76746 47.10781 501.21875 47.6875 L 501.125 50.9375 C 505.04309 48.812441 507 51.005055 507 57.8125 C 507 63.082125 506.93585 63.205109 504.5 62.59375 C 501.71069 61.893679 501.20902 63.098652 503.5 65 C 504.325 65.684689 505 67.034689 505 68 C 505 69.838371 502.80965 72.169358 501.34375 71.90625 C 498.96102 71.478582 498.78292 72.17515 500.96875 73.28125 C 502.50374 74.058009 503.68046 75.729261 504.09375 77.75 C 504.69286 80.67933 504.52118 81 502.375 81 C 501.06947 81 500 81.45 500 82 C 500 82.55 501.06734 83 502.375 83 C 503.68265 83 505.32464 83.711082 506.03125 84.5625 C 507.84606 86.749205 504.88707 93 502.03125 93 C 500.92235 93 500 93.45 500 94 C 500 94.55 501.0085 95 502.25 95 C 503.85595 95 505.28495 96.298464 507.21875 99.5 C 508.71371 101.975 510.43671 104 511.03125 104 C 511.6258 104 513.4435 102.55382 515.0625 100.78125 C 518.2549 97.286019 518.86741 93.00396 516.84375 88.5625 C 515.33291 85.246562 517.24437 82.539756 520.03125 84.03125 C 521.03734 84.569693 522.68884 85.002056 523.6875 85 C 524.9619 84.997376 524.53105 84.390786 522.25 83 C 518.85239 80.928435 518.61866 80.219229 519.625 75.1875 C 520.09582 72.833442 520.85339 72.029967 522.875 71.75 C 525.54341 71.380462 525.0955 70.966931 520.5 69.53125 C 518.1079 68.783933 518.64221 64.083949 521.25 62.9375 C 523.3438 62.017013 523.3108 61.981312 520.71875 62.34375 C 516.61972 62.916906 515.66476 60.341824 516.5 50.90625 C 517.1229 43.869426 516.98604 42.694174 515.03125 39.53125 C 511.77344 34.259995 507.72748 34.563406 501.84375 40.53125 C 501.68571 40.691548 501.56035 40.787782 501.40625 40.9375 z "/>
</svg>
