<svg xmlns="http://www.w3.org/2000/svg"
     width="39.6" height="64.0"
     viewBox="4881.0000 18.9892 57.8706 93.5790">
  <path d="M 4885.2188 93.34375 L 4885 94.5 L 4887.1562 99.28125 C 4887.7858 99.225437 4889.4303 99.428699 4891.7812 100.03125 C 4894.5802 100.74861 4898.2253 100.99118 4900.3438 100.59375 C 4904.4632 99.820941 4910.3485 95.15855 4912.5312 90.9375 C 4914.4421 87.242153 4915.8921 73.309179 4915.9688 58 C 4916.0639 39.019991 4916.8447 34.218004 4920.625 29.25 C 4923.6476 25.277777 4925.5075 25.138355 4927.3125 28.75 C 4928.744 31.614174 4928.5607 34.960675 4926 51 C 4924.4732 60.562785 4925.1618 69.353134 4927.875 74.96875 C 4931.254 81.962591 4930.3953 84.33468 4926.2188 79.53125 C 4923.0748 75.915475 4921.3443 77.255989 4919.6562 84.65625 C 4917.8538 92.557903 4914.6644 97.552894 4908.9688 101.5 C 4904.989 104.25798 4904.0207 104.49803 4895.8438 104.5 C 4886.9425 104.50214 4885.5352 105.0065 4888.75 107 C 4891.2789 108.56819 4902.895 107.60361 4907 105.5 C 4915.1005 101.34885 4921.7934 92.538544 4921.9375 85.8125 C 4922.0146 82.209201 4923.2512 81.648252 4926.75 83.65625 C 4932.6262 87.028747 4934.8706 82.677537 4931.0625 75.28125 C 4927.5783 68.514233 4926.7011 59.664832 4928.5625 50 C 4931.0431 37.119816 4931.1207 31.151913 4928.875 26.75 C 4927.5215 24.096867 4926.2962 22.989167 4924.7188 23 C 4921.9131 23.019269 4920.9401 23.725836 4918.2188 27.625 C 4914.3137 33.220365 4913.016 41.835011 4913 62.59375 C 4912.9861 80.486942 4912.6277 83.688117 4909.7812 91.25 C 4908.3336 95.095783 4903.1818 97.995347 4897.875 97.96875 C 4893.4937 97.946791 4885.8167 95.072339 4885.2188 93.34375 z "/>
</svg>
