<svg xmlns="http://www.w3.org/2000/svg"
     width="61.4" height="64.0"
     viewBox="5837.6562 18.1386 82.3438 85.8698">
  <path d="M 5841.6562 69.8125 L 5844.2188 71.84375 C 5844.792 69.251284 5845.6196 67.405295 5847.9375 64.96875 C 5853.2145 59.421414 5856.109 59.591954 5862.25 65.90625 C 5864.8625 68.592468 5867 71.487478 5867 72.3125 C 5867 73.137523 5865.2 76.197075 5863 79.125 C 5860.8 82.052924 5859 85.485907 5859 86.75 C 5859 89.133733 5863.2551 96.564565 5865.875 98.75 C 5866.6991 99.4375 5867.6302 100.00842 5867.9375 100 C 5870.7902 99.921838 5872.2454 94.502116 5870.8125 89.3125 C 5869.9855 86.317125 5870.2245 85.420922 5872.5 82.4375 C 5873.9394 80.550452 5875.653 78.999017 5876.3125 79 C 5876.972 79.000984 5878.7134 80.913484 5880.1875 83.25 C 5882.6627 87.173089 5882.7791 87.817118 5881.7188 91.78125 C 5880.4144 96.657404 5881.4567 99.5 5884.5938 99.5 C 5886.7377 99.5 5892.8309 89.051963 5892.9375 85.1875 C 5893.0161 82.336037 5890.8724 78.108393 5888.0938 75.59375 C 5886.8062 74.428541 5886 72.457322 5886 70.53125 C 5886 64.958916 5889.6954 63.392758 5894.2812 67 C 5897.902 69.84805 5905 69.511597 5905 66.5 C 5905 65.801188 5905.7215 64.661432 5906.5938 63.9375 C 5910.2496 60.903406 5916 42.736701 5916 34.25 C 5916 27.293192 5912.417 22.138631 5908.625 23.59375 C 5905.6972 24.717249 5904.7584 28.858542 5904.625 41.15625 C 5904.5138 51.410279 5904.1736 53.966499 5902.625 56.25 C 5900.4887 59.399975 5897.712 59.787956 5895.8125 57.21875 C 5895.0938 56.24669 5893.2195 54.654984 5891.6562 53.65625 C 5889.2206 52.099885 5888.3841 51.997282 5885.8125 53.0625 C 5882.1697 54.571383 5880.6614 53.04827 5882.0938 49.28125 C 5882.5953 47.962035 5883 45.233388 5883 43.25 C 5883 38.411383 5885.3757 36 5890.0938 36 C 5892.9781 36 5894.3529 35.389577 5895.9375 33.375 C 5898.3363 30.325504 5898.5681 27.157334 5896.625 24.5 C 5895.4216 22.854247 5894.893 22.798562 5892.2188 23.90625 C 5890.5492 24.597748 5888.1877 26.262973 5886.9375 27.59375 C 5885.6873 28.924527 5884.3791 30.003758 5884.0625 30 C 5883.7459 29.996242 5882.4334 28.421242 5881.125 26.5 C 5879.8166 24.578758 5878.2416 22.999984 5877.625 23 C 5877.0084 23.000017 5875.2546 24.575017 5873.7188 26.5 C 5872.1827 28.424984 5870.4718 30 5869.9375 30 C 5869.4032 30 5867.6803 28.556986 5866.0938 26.78125 C 5863.5192 23.899826 5862.9036 23.641973 5860.375 24.53125 C 5858.7496 25.102844 5857.1478 26.638258 5856.625 28.125 C 5854.4697 34.253517 5858.8314 38.782713 5865.1562 36.96875 C 5870.0188 35.574174 5871.2388 37.346835 5871.7812 46.71875 C 5872.1519 53.120055 5871.9261 54.800444 5870.5938 55.90625 C 5869.1809 57.07877 5868.1698 56.70759 5863.0625 53.125 C 5856.4365 48.477111 5853.9465 48.065281 5851.125 51.09375 C 5849.1805 53.180983 5843.0172 64.969167 5843 66.625 C 5842.9964 66.971276 5842.1981 68.597846 5841.6562 69.8125 z M 5910.6562 26 C 5914.1664 26 5914.1134 37.087692 5910.5312 50.5 C 5908.7326 57.234419 5902.7726 67 5900.4688 67 C 5899.6385 67 5897.1781 65.875 5895 64.5 C 5889.6019 61.092353 5886.4564 61.215001 5884.5312 64.9375 C 5881.9425 69.943483 5883.145 75.09734 5887.9062 79.40625 C 5889.2382 80.611572 5890 82.522868 5890 84.625 C 5890 88.505073 5886.052 97.18041 5884.5312 96.65625 C 5883.4029 96.267318 5883.4106 92.137816 5884.5312 87.75 C 5885.0951 85.542226 5884.6363 84.328961 5882.125 81.46875 C 5880.4121 79.517932 5879 77.274612 5879 76.46875 C 5879 73.674787 5876.125 75.023561 5872.0312 79.75 C 5868.8386 83.435982 5868.037 85.06001 5868.4688 87 C 5868.7747 88.375 5869.3198 91.1875 5869.6562 93.25 C 5870.4437 98.076538 5868.3276 98.336357 5865.5312 93.75 C 5860.4358 85.392781 5860.4767 86.375793 5864.9375 80.59375 C 5870.7028 73.120891 5870.5237 70.216189 5863.875 63.875 C 5858.122 58.388111 5855.7006 57.39981 5851.6562 58.9375 C 5850.1293 59.518003 5848.6767 60 5848.4375 60 C 5847.211 60 5848.3418 57.696729 5851.0938 54.5625 L 5854.1562 51.03125 L 5857.8438 53.0625 C 5859.8601 54.178772 5863.2582 56.172464 5865.4062 57.46875 C 5869.9779 60.227624 5871.3833 59.928774 5873.0625 55.875 C 5874.4552 52.512559 5873.7223 39.214342 5871.9688 35.9375 C 5871.125 34.360799 5871.425 33.302471 5873.5625 30.5 C 5875.0257 28.581656 5876.6168 27 5877.0938 27 C 5877.5707 27 5879.173 28.805912 5880.625 31 C 5882.8732 34.397267 5883.0919 35.398932 5882.1875 37.75 C 5879.8594 43.801838 5878.931 51.227899 5880.0625 54.65625 C 5881.2653 58.300686 5882.4684 58.714457 5885.4375 56.46875 C 5888.3712 54.249868 5889.93 54.642827 5893.6562 58.59375 C 5896.9028 62.036097 5897.205 62.159986 5900.1562 60.9375 C 5905.2483 58.828302 5906.9428 53.581237 5906.9688 39.9375 C 5906.9905 28.498845 5907.6647 26 5910.6562 26 z M 5893.9375 26.4375 C 5894.4734 26.487093 5894.8567 26.746473 5895.1562 27.21875 C 5896.3222 29.05655 5896.2419 29.372465 5893.9688 31.8125 C 5891.9495 33.980044 5887.591 34.769867 5886.5938 33.15625 C 5885.7693 31.82215 5888.9772 27.972429 5891.7812 26.90625 C 5892.7216 26.548718 5893.4016 26.387907 5893.9375 26.4375 z M 5861.6562 27.5 C 5863.6166 28.189685 5866.0553 30.705896 5865.8125 32.40625 C 5865.5153 34.487275 5862.8126 35.41572 5860.25 34.34375 C 5858.7789 33.728376 5858.558 28.403046 5859.9688 27.53125 C 5860.4047 27.261784 5861.0029 27.270105 5861.6562 27.5 z "/>
</svg>
