<svg xmlns="http://www.w3.org/2000/svg"
     width="33.8" height="64.0"
     viewBox="3579.0000 15.4055 47.0000 88.8758">
  <path d="M 3609 84.625 C 3608.1749 82.664674 3608.1753 79.806758 3608.5625 74.53125 L 3609.2812 64.75 L 3615.6562 61.875 C 3619.1506 60.290549 3622 58.728935 3622 58.4375 C 3622 56.968503 3617.8164 50 3616.9375 50 C 3616.3793 50 3614.8103 50.725498 3613.4375 51.625 C 3612.0647 52.524502 3610.7047 53.048407 3610.4375 52.78125 C 3610.1704 52.514093 3610.4895 50.034197 3611.125 47.28125 C 3612.029 43.364711 3612.8315 42.062187 3614.875 41.25 L 3617.5 40.21875 L 3614.75 40.09375 C 3612.3993 40.002817 3612 39.569257 3612 37.0625 C 3612 35.0011 3612.584 33.949438 3614 33.5 C 3616.3601 32.750947 3615.7098 31 3613.0625 31 C 3610.1477 31 3609.636 26.827686 3612.2812 24.65625 L 3614.5 22.84375 L 3611.6875 23.4375 C 3609.7003 23.870865 3608.1448 23.472587 3606.3125 22.03125 C 3603.26 19.63018 3599.7383 19.405499 3598 21.5 C 3596.5937 23.194537 3594 23.518744 3594 22 C 3594 21.45 3593.55 21 3593 21 C 3592.45 21 3592 21.675 3592 22.5 C 3592 23.325 3592.476 24 3593.0625 24 C 3593.6491 24 3593.9866 25.2375 3593.8125 26.75 C 3593.5763 28.803417 3592.9563 29.5 3591.3438 29.5 C 3588.2408 29.5 3587.7078 30.436034 3589.7812 32.3125 C 3591.9484 34.273711 3591.6336 41 3589.375 41 C 3586.9817 41 3587.8857 43.437953 3590.9062 45.15625 C 3592.7441 46.201737 3594.0564 47.949168 3594.5 49.96875 C 3595.4355 54.228283 3594.7372 54.627902 3590.6875 52.125 C 3588.8061 50.962262 3586.9965 50 3586.6562 50 C 3586.0109 50 3583 56.634996 3583 58.0625 C 3583 58.513079 3585.6745 60.292094 3588.9375 62.03125 C 3592.2005 63.770407 3595.1034 65.867101 3595.4062 66.65625 C 3595.7091 67.4454 3596.0296 75.302003 3596.0938 84.125 L 3596.1875 100.15625 L 3601.125 99.46875 C 3603.9062 99.086243 3606.5927 99.237552 3607.2812 99.78125 C 3607.5007 99.954564 3608.1588 100.11382 3608.5 100.28125 L 3608.6875 94 C 3608.6494 93.902777 3608.5973 93.817744 3608.5625 93.71875 C 3607.8244 91.61984 3607.8883 90.403338 3608.8438 89.90625 L 3609 84.625 z M 3600.7188 22.21875 C 3601.4089 22.024492 3602.0754 22.482501 3603.4375 23.375 C 3607.7846 26.223328 3609.2175 30.954763 3608.6875 40.875 C 3608.4343 45.616142 3607.8964 50.9625 3607.5 52.75 C 3606.6453 56.604596 3608.0601 56.993897 3612.9688 54.25 C 3615.9868 52.562913 3616.1643 52.566154 3617.5625 54.4375 C 3618.3602 55.505121 3619 56.701456 3619 57.09375 C 3619 57.486043 3616.5576 58.821119 3613.5625 60.0625 C 3606.2532 63.092035 3605.7833 64.492268 3606.1875 81.8125 L 3606.5 95.84375 L 3603.625 96.4375 C 3602.0437 96.752926 3600.3562 97 3599.875 97 C 3599.1491 97 3598.3386 77.638243 3598.9375 74.5625 C 3599.0392 74.040392 3598.8358 71.418515 3598.4688 68.75 C 3597.8856 64.510453 3597.296 63.577323 3593.9062 61.4375 C 3591.7726 60.090623 3589.3532 59 3588.5 59 C 3586.3837 59 3585.5098 56.301938 3587.0312 54.46875 C 3588.1222 53.154314 3588.8092 53.297473 3592.75 55.5 C 3596.9035 57.821437 3600 58.687327 3600 57.53125 C 3600 56.951434 3597.2717 49.654591 3595.5 45.5 C 3594.7964 43.85 3593.9147 41.45693 3593.5312 40.1875 C 3592.479 36.703371 3594.7982 28.66661 3597.9375 24.90625 C 3599.3299 23.238411 3600.0286 22.413008 3600.7188 22.21875 z "/>
</svg>
