<svg xmlns="http://www.w3.org/2000/svg"
     width="37.3" height="64.0"
     viewBox="2053.0000 16.4428 50.6601 86.9700">
  <path d="M 2061.4062 85.84375 L 2061 86 L 2057 96.46875 C 2057.847 96.409341 2058.9548 96.789439 2060.9688 97.5 C 2066.3902 99.412764 2072.0633 99.411141 2076.5625 97.53125 C 2080.7696 95.773401 2081.8694 94.722519 2085.3438 89.21875 C 2088.3597 84.441207 2088.0488 84.626474 2091.4062 86.15625 C 2093.4322 87.0793 2094.4148 86.970877 2096.4688 85.625 C 2099.5147 83.629278 2099.6601 81.741759 2097.0625 78.09375 C 2094.5918 74.62396 2093.2904 61.85456 2094.9688 57.53125 C 2095.6047 55.893472 2096.5161 50.043472 2097 44.53125 C 2098.1116 31.868979 2097.0512 27.042933 2092.4062 23.5 C 2088.398 20.442766 2085.4718 20.824554 2081.5312 24.9375 C 2079.1269 27.447172 2078.8371 28.661859 2078.4062 36.9375 C 2078.1427 41.99854 2078.439 49.590351 2079.0625 53.8125 C 2081.9132 73.119409 2077.7483 90 2070.1562 90 C 2067.2643 90 2064.1765 88.384075 2061.4062 85.84375 z M 2087.9062 24.71875 C 2089.5687 24.868012 2091.1372 25.74733 2092.3438 27.34375 C 2094.2085 29.811143 2094.4882 31.335795 2094.3125 39.125 C 2094.2015 44.048619 2093.414 50.801356 2092.5625 54.125 C 2090.3457 62.778298 2090.522 72.639482 2093 77.5 C 2094.1 79.657586 2095 82.010043 2095 82.71875 C 2095 85.080389 2091.3275 84.051798 2090.0938 81.34375 C 2089.0487 79.049998 2088.6867 78.875776 2087.4688 80.09375 C 2086.6913 80.871165 2084.8126 83.975847 2083.2812 87 C 2081.316 90.881231 2079.4706 93.015814 2077 94.25 C 2072.7892 96.35355 2063.1824 96.59476 2060.5312 94.65625 C 2058.1989 92.950774 2059.171 89.498032 2061.75 90.34375 C 2072.5093 93.87213 2073.5741 93.756537 2077.2188 88.875 C 2081.5422 83.084342 2083.367 66.075722 2081.0938 52.5 C 2079.5253 43.133945 2080.5786 28.691301 2083 26.5 C 2084.4959 25.146215 2086.2438 24.569488 2087.9062 24.71875 z "/>
</svg>
