<svg xmlns="http://www.w3.org/2000/svg"
     width="29.7" height="64.0"
     viewBox="7070.2812 20.4549 38.1946 82.4104">
  <path d="M 7075.625 86.875 L 7075.2188 89.8125 C 7076.3619 89.61062 7077.6462 89.293025 7079.25 88.8125 C 7087.8998 86.220968 7091.31 75.038334 7090.5 52 C 7089.9055 35.091179 7090.8481 30.686122 7095.1562 30.1875 C 7097.4357 29.923682 7097.9756 30.426057 7099.0312 33.625 C 7100.4144 37.816195 7099.768 49.942942 7097.9062 54.625 C 7097.2771 56.207266 7096.7095 61.380071 7096.6562 66.125 C 7096.5681 73.983488 7096.846 75.303769 7099.75 80.84375 C 7103.2274 87.477717 7102.5568 89.973545 7098.4688 85.5625 C 7095.4933 82.352021 7093.5032 83.067997 7089.3125 88.9375 C 7087.7646 91.105443 7085.4509 93.355867 7084.1875 93.9375 C 7081.6466 95.107321 7077.9773 95.200977 7074.625 94.40625 L 7074.2812 96.9375 C 7081.1858 98.865311 7086.9592 97.013318 7091.3125 90.9375 C 7094.3435 86.707019 7096.0042 86.120124 7098.0312 88.5625 C 7098.7474 89.425354 7100.4675 89.979754 7101.9062 89.8125 C 7104.0782 89.560016 7104.4758 89.020152 7104.375 86.5 C 7104.309 84.85 7103.052 80.646265 7101.5625 77.15625 C 7098.4131 69.777444 7098.3954 63.454423 7101.5 48.78125 C 7103.0888 41.271971 7103.1637 39.312327 7102.0938 34.53125 C 7100.27 26.381661 7094.9552 24.454928 7090.5938 30.34375 C 7088.6481 32.970662 7088.5276 34.296824 7088.75 48.34375 C 7089.1098 71.076716 7086.9117 81.140371 7080.6875 85.5 C 7079.5897 86.268936 7077.5767 86.714757 7075.625 86.875 z "/>
</svg>
