<svg xmlns="http://www.w3.org/2000/svg"
     width="28.1" height="64.0"
     viewBox="749.0481 15.5625 38.4388 87.4375">
  <path d="M 772.75 85.53125 C 772.17738 84.619124 771.95276 83.281328 771.65625 80.8125 C 770.82876 73.922384 770.83289 49.033738 771.65625 41.15625 C 772.24796 35.495082 772.48688 35 774.71875 35 C 777.38049 35 781.1005 33.315281 782.25 31.59375 C 783.48695 29.741238 783.07246 25.315651 781.5625 24.0625 C 780.13125 22.874666 777.8294 23.69452 772.71875 27.25 C 771.44837 28.133807 770.73416 28.189802 770.21875 27.40625 C 769.82191 26.802939 768.2001 24.788276 766.625 22.9375 L 763.78125 19.5625 L 760.125 23.8125 C 758.1251 26.137602 755.98825 28.008515 755.34375 28 C 754.51777 27.989086 754.15404 31.374975 754.125 39.4375 C 754.10235 45.728488 753.83472 61.703488 753.53125 74.9375 C 753.04812 96.006185 753.17367 99 754.5 99 C 755.76733 99 756.03003 96.835661 756.1875 85.75 C 756.44427 67.673792 756.41092 60.300815 756.0625 55 C 755.89982 52.525 755.87372 46.08151 756 40.6875 C 756.22412 31.114289 756.31535 30.805457 759.375 27.9375 C 761.09896 26.321554 762.8297 25.002546 763.21875 25 C 763.6078 24.997455 765.14807 26.547356 766.65625 28.4375 L 769.40625 31.875 L 769.125 64.9375 C 768.93831 86.560413 769.18805 98 769.84375 98 C 770.3057 98 770.75561 97.607124 771.03125 97.125 L 771 97 L 771.78125 91.9375 C 771.25167 91.15707 771.45699 90.683877 772.03125 90.34375 L 772.75 85.53125 z M 779.6875 26.6875 C 780.80279 27.239873 780.67104 29.328959 778.96875 31.03125 C 776.47076 33.529236 774 33.572917 774 31.125 C 774 29.157941 775.35296 27.714289 778.15625 26.71875 C 778.78823 26.494312 779.31574 26.503376 779.6875 26.6875 z M 763.0625 33.84375 C 762.91137 33.837225 762.743 33.913248 762.5625 34.09375 C 762.32615 34.3301 761.80318 48.794684 761.40625 66.25 C 760.74387 95.378643 760.82804 98 762.34375 98 C 764.09925 98 764.23475 95.25204 764.4375 50.84375 C 764.49295 38.69929 764.12042 33.889422 763.0625 33.84375 z "/>
</svg>
