<svg xmlns="http://www.w3.org/2000/svg"
     width="32.2" height="64.0"
     viewBox="4340.3137 15.0000 46.8214 93.1523">
  <path d="M 4376.6549,35.321595 C 4376.3679,35.034569 4375.6313,35.109852 4375.018,35.488892 4374.2176,35.983567 4374.2693,36.620193 4375.2014,37.744753 4376.3714,39.156267 4376.5335,39.139696 4376.8384,37.577456 4377.0245,36.623759 4376.942,35.608622 4376.6549,35.321595 z M 4378.3793,60.25 C 4379.6154,56.042203 4380.1521,51.002399 4379.3613,51.029313 4378.8876,51.045436 4377.0221,52.40286 4375.2158,54.045811 4371.972,56.996133 4371.9535,57.063255 4373.7158,59.485073 4375.8241,62.382614 4377.6642,62.684422 4378.3793,60.25 z M 4374.0965,33.122925 4376.4146,31.24585 4374.5554,27.122925 C 4373.5329,24.855316 4372.0987,23 4371.3684,23 4370.6382,23 4369.1005,24.842821 4367.9515,27.095159 4365.969,30.981137 4365.9503,31.287616 4367.5861,33.095159 4369.751,35.487323 4371.1691,35.493372 4374.0965,33.122925 z M 4366.9357,38.060903 C 4368.1445,37.29601 4368.1584,36.895837 4367.024,35.528881 4365.9545,34.240309 4365.5067,34.173003 4364.8536,35.202666 4362.9427,38.214984 4364.1257,39.838968 4366.9357,38.060903 z M 4366.2981,58.368517 C 4367.1176,57.549109 4365.2219,54 4363.9648,54 4363.4342,54 4363,54.825 4363,55.833333 4363,58.533852 4364.7713,59.895383 4366.2981,58.368517 z M 4375.831,50.565436 C 4378.3399,47.888732 4379.762,45.54332 4379.4187,44.648653 4378.8913,43.27423 4371.7803,38 4370.4547,38 4370.1312,38 4368.3216,39.17841 4366.4333,40.618689 4361.8853,44.08761 4361.5915,49.271661 4365.75,52.676473 4369.6634,55.880658 4371.1388,55.571712 4375.831,50.565436 z M 4366.2677,91.923884 C 4367.7899,89.723767 4369.7081,87.665501 4370.5304,87.34996 4372.5233,86.585209 4375.0035,88.767251 4376.6683,92.75 4377.4155,94.5375 4378.4708,96 4379.0134,96 4380.9477,96 4379.9508,90.556974 4376.851,84.194099 L 4373.7019,77.730144 4375.3559,73.115072 C 4377.581,66.906308 4377.5248,66.59151 4373.4667,62.533333 4369.5071,58.573787 4369.5991,58.60898 4366.9343,60.035184 4364.5519,61.31018 4364.4203,65.222603 4366.5488,71.492098 4368.0015,75.770724 4367.9799,76.223224 4366.2018,78.777045 4365.1591,80.27467 4363.7871,83.02965 4363.153,84.899223 4361.8617,88.706191 4361.5953,96.020479 4362.75,95.962049 4363.1625,95.941175 4364.7455,94.124001 4366.2677,91.923884 z M 4360.5646,55.307861 C 4360.2541,54.498571 4360,53.423229 4360,52.918213 4360,50.948956 4357.1471,52.17141 4353.1664,55.84639 4350.8749,57.961904 4349,60.400988 4349,61.266576 4349,62.538169 4350.1645,62.258443 4355.0646,59.809834 4359.3484,57.669235 4360.9635,56.347199 4360.5646,55.307861 z M 4376.2294,99.254006 C 4374.9938,96.639303 4373.9867,93.9926 4373.9914,93.372445 4373.9961,92.752289 4373.2826,91.64947 4372.4057,90.921735 4371.045,89.792443 4370.5333,89.957647 4368.913,92.049291 4367.8689,93.397181 4366.0712,96.4125 4364.9181,98.75 4362.2642,104.12995 4360.3874,104.15232 4358.9518,98.821102 4357.5308,93.543786 4358.3527,87.990511 4361.5885,81.006405 4363.7884,76.258111 4363.9922,74.990733 4363.115,71.513261 4362.5582,69.305967 4361.8342,65.8125 4361.506,63.75 4361.1779,61.6875 4360.5923,60.021614 4360.2047,60.048032 4359.2176,60.115315 4353.7588,63.143693 4350.6726,65.336196 4344.3137,69.853713 4344.7861,61.851579 4351.2719,55.185341 4353.5974,52.795178 4356.6822,50.217732 4358.1271,49.457685 4360.3928,48.265855 4360.8198,47.279684 4361.2313,42.28789 4361.4937,39.104551 4362.709,33.905481 4363.9319,30.734402 4366.0946,25.12649 4370.3178,19 4372.0208,19 4374.0352,19 4377.5467,25.995451 4379.268,33.437512 4382.5678,47.704609 4382.7165,48.786241 4381.9804,53.177497 4379.4487,68.279887 4378.8568,71.09841 4377.5702,74.177835 4376.2157,77.419494 4376.2968,77.890481 4379.089,82.99645 4380.7114,85.963181 4382.2831,89.990142 4382.5816,91.945253 4383.1351,95.570266 4381.0913,103.13624 4379.4068,103.69772 4378.8949,103.86838 4377.465,101.86871 4376.2294,99.254006 z"/>
</svg>
