<svg xmlns="http://www.w3.org/2000/svg"
     width="39.9" height="64.0"
     viewBox="67.5987 18.0918 53.6000 85.9082">
  <path d="M 106.5 88.09375 C 106.30787 87.084682 106.26222 85.947888 106.5 84.59375 C 108.30965 74.288117 107.36855 65.371265 103.78125 58.90625 L 101.78125 55.28125 L 104.0625 49.09375 C 105.70456 44.590232 107.05041 42.509239 109.0625 41.46875 C 112.68198 39.597045 115.57953 35.36371 116.21875 31 C 117.19868 24.310387 115.12618 23.174042 110.5625 27.9375 C 109.0075 29.560575 106.4479 31.357935 104.875 31.90625 L 102 32.90625 L 102 28.5 C 102 22.902015 99.932461 22.091849 93.625 25.15625 C 89.190525 27.310685 86 31.564819 86 35.34375 C 86 39.907966 90.286527 44 95.0625 44 C 97.448507 44 97.764081 48.563145 95.59375 51.53125 C 94.240714 53.381637 94.056851 53.38509 90.5625 51.71875 C 84.885478 49.011567 81.239798 49.465091 77.625 53.3125 C 74.333559 56.815744 71.598673 64.217852 72.15625 68.15625 C 72.657605 71.697532 75.717837 71.059959 77.75 67 C 79.6897 63.124769 83.355127 61.373919 87.34375 62.375 C 97.516572 64.928215 101.53926 89.097032 93.3125 98.1875 C 91.784919 99.875458 91.837674 100 94.21875 100 C 95.925984 100 97.983711 98.62898 100.5 95.84375 L 104.25 91.71875 L 104.6875 91.96875 L 105 91.5 L 106.5 88.09375 z M 98.25 26.25 C 98.978172 26.693012 99.029056 28.102858 98.84375 30.75 C 98.546356 34.998343 98.728021 35.533629 100.6875 35.8125 C 103.06424 36.150755 106.9134 34.075169 111.25 30.125 L 114 27.625 L 114 30.40625 C 114 34.267277 111.40974 38.220729 107.71875 40 C 105.23464 41.197481 104.00795 42.985597 101.65625 48.90625 C 99.324928 54.775589 98.956946 56.652975 99.875 57.90625 C 104.77761 64.599013 106.12895 79.42445 102.625 88.25 C 101.58778 90.8625 100.32023 93 99.8125 93 C 99.304763 93 99.124807 92.599698 99.4375 92.09375 C 99.750194 91.587801 100.17459 88.325301 100.375 84.84375 C 101.06636 72.83348 96.286604 61.898273 89.6875 60.4375 C 83.23774 59.009786 80.662804 59.666817 77.125 63.6875 L 73.78125 67.5 L 74.5 64 C 75.088696 61.124258 77.849037 54 78.375 54 C 78.453464 54 79.913993 53.584461 81.625 53.09375 C 84.707206 52.209786 90.542559 54.011697 92.15625 56.34375 C 93.372596 58.101573 95.731542 56.181901 97.9375 51.625 C 100.71544 45.886542 100.39388 42.598803 97 42.21875 C 91.729936 41.628599 90.321373 40.976407 89.25 38.625 C 87.503961 34.792863 89.586014 29.418216 93.5625 27.53125 C 96.111051 26.321883 97.521828 25.806988 98.25 26.25 z "/>
</svg>
