<svg xmlns="http://www.w3.org/2000/svg"
     width="35.8" height="64.0"
     viewBox="870.0000 15.0073 50.5847 90.4645">
  <path d="M890.81736 98.957599C888.20569 97.434051 884.97588 87.499052 884.31775 78.964542C883.9252 73.874064 884.26449 68.035635 885.31133 61.867174C889.3596 38.01303 889.38611 37.160079 886.23134 32.266349C884.91361 30.222268 884.61163 30.158616 882.6732 31.516349C881.50818 32.332357 879.82486 33.0 878.93248 33.0C876.56804 33.0 874.0 29.742206 874.0 26.742688C874.0 21.435315 880.31341 19.007341 883.73203 23.0C885.78323 25.395634 888.28054 25.571819 890.04531 23.445404C892.99129 19.895715 894.96911 19.706592 899.11303 22.57833L903.06189 25.31489L905.83566 22.657445C909.21789 19.417067 912.36684 19.257953 914.4433 22.222506C916.5847 25.279789 916.39273 28.201327 913.87271 30.906256C911.75748 33.176692 909.03262 33.367474 904.77324 31.54336C903.49881 30.997574 902.74209 31.471946 901.88444 33.354273C900.98276 35.333262 901.0832 39.332138 902.33274 51.202342C905.51064 81.391117 905.45929 83.417242 901.27358 93.0C898.38348 99.61659 895.12731 101.47185 890.81736 98.957599Z M882.93497 28.578361C884.56185 26.618091 882.24732 23.0 879.36644 23.0C876.94653 23.0 875.65809 25.347391 876.54471 28.140877C877.24965 30.361923 881.22866 30.634331 882.93497 28.578361Z M898.98574 91.5C902.30278 84.827874 902.70279 75.743154 900.48286 57.498822C898.87992 44.325189 898.8925 36.576887 900.52759 29.949693C901.06311 27.77914 900.63798 27.119983 897.67255 25.522993C894.37345 23.746307 894.05046 23.736921 891.59415 25.346353C888.5315 27.353076 888.48625 27.785085 890.68906 33.987219C892.33102 38.61027 892.29946 39.196898 889.55706 55.027042C886.4624 72.890649 886.47786 81.319926 889.62091 89.832282C892.91032 98.741017 895.18454 99.146017 898.98574 91.5Z M912.81697 26.744314C913.23973 23.068892 910.54017 22.01539 907.77778 24.777778C905.01539 27.540166 906.06889 30.239734 909.74431 29.816971C911.91193 29.567642 912.56764 28.911929 912.81697 26.744314Z"/>
</svg>
