<svg xmlns="http://www.w3.org/2000/svg"
     width="58.2" height="64.0"
     viewBox="4996.8132 19.0000 82.6868 91.0000">
  <path d="M 5028.0312 23 C 5022.3315 23 5018.4155 28.684956 5019.4375 35.5 C 5020.2152 40.686319 5023.5687 44.069116 5028.7188 44.90625 C 5032.3023 45.488739 5032.5368 45.755838 5033.375 50.34375 C 5034.3128 55.477062 5033.2216 63.107985 5031.4688 63.6875 C 5030.8999 63.87558 5027.572 61.29787 5024.0625 57.96875 C 5020.553 54.63963 5016.9621 52.051524 5016.0938 52.21875 C 5013.9564 52.630356 5008.2579 61.457998 5006.5625 67 C 5005.8053 69.475 5004.6209 72.85 5003.9062 74.5 C 5002.4091 77.95643 5002.2524 79.097727 5001.4062 92.15625 C 5000.8132 101.30708 5000.8872 101.85694 5002.9062 102.9375 C 5005.4528 104.30035 5005.4811 104.24278 5006.9375 94.5 C 5008.2214 85.91137 5009.7541 80.258072 5011.0312 79.46875 C 5011.561 79.141417 5012 77.567328 5012 75.96875 C 5012 73.190071 5016.7038 67 5018.8125 67 C 5020.6122 67 5023.5207 70.940791 5028.125 79.65625 L 5030.3125 83.8125 L 5027.1562 88.59375 C 5023.3506 94.339192 5022.9114 99.911445 5026.0312 103.03125 C 5028.5554 105.55546 5029.6701 104.91475 5031.9375 99.625 C 5035.6709 90.91536 5038.7051 91.104795 5043.3125 100.34375 C 5044.8629 103.45268 5046.545 106 5047.0312 106 C 5047.5176 106 5048.6443 104.463 5049.5312 102.59375 C 5050.8776 99.756377 5050.9405 98.483484 5049.9688 94.875 C 5049.3286 92.497745 5048.1773 89.663376 5047.4062 88.5625 C 5046.6352 87.461624 5046 85.65096 5046 84.53125 C 5046 82.421227 5052.8477 71.175241 5055.4688 69 C 5058.0014 66.898026 5060.7455 75.133585 5061.6875 87.6875 C 5062.3384 96.36255 5062.8102 98.536093 5064.0938 98.78125 C 5065.2678 99.005507 5066.2333 97.407479 5067.6875 92.78125 C 5069.2375 87.850452 5070.1092 86.437843 5071.8125 86.1875 C 5074.6997 85.763154 5074.5829 84.375238 5071.5938 83.625 C 5069.3878 83.071354 5069.238 82.614458 5069.5625 77.84375 C 5069.8488 73.635016 5070.45 72.189908 5072.7188 70.28125 L 5075.5 67.9375 L 5072.5312 68.21875 C 5070.2217 68.435293 5069.302 67.947449 5068.3125 66 C 5066.4151 62.265957 5066.7226 60.452982 5069.5 59.1875 C 5070.875 58.561008 5072 57.593041 5072 57.03125 C 5072 55.736528 5071.6574 55.731908 5068.5312 57.15625 C 5066.322 58.162857 5065.6349 58.007553 5063.5312 56.03125 C 5060.3405 53.033735 5057.171 53.842766 5050.75 59.21875 C 5047.3659 62.052079 5045.5703 62.976586 5044.8438 62.25 C 5044.2158 61.622107 5043.9441 57.591499 5044.1562 52.1875 C 5044.4353 45.081889 5044.9012 42.755754 5046.4062 41.09375 C 5049.2055 38.002793 5052.6345 38.392464 5054.5 42 C 5057.4978 47.797108 5060 44.541879 5060 34.84375 C 5060 29.982616 5057.5829 24 5055.625 24 C 5054.8169 24 5053.5055 23.739422 5052.7188 23.4375 C 5051.932 23.135579 5048.2526 24.942111 5044.5312 27.4375 C 5038.0696 31.770582 5036 32.318529 5036 29.6875 C 5036 27.73554 5030.3592 23 5028.0312 23 z M 5052.9688 25.96875 L 5055 28 C 5056.3468 29.346791 5057 31.324421 5057 34 C 5057 37.796607 5055.8473 39.179903 5054.5 37 C 5053.557 35.474113 5047.7067 35.810518 5045.25 37.53125 C 5042.3382 39.570744 5041.0067 44.840289 5041 54.3125 C 5040.991 66.948484 5043.6737 69.000483 5051.1875 62.0625 C 5055.8838 57.726088 5059.4787 56.327781 5061.5312 58.03125 C 5063.6894 59.822431 5066.0738 67.961071 5066.6875 75.59375 C 5067.2576 82.685136 5066.3254 94.669111 5065.2812 93.625 C 5064.9781 93.321804 5064.3591 89.063296 5063.9062 84.15625 C 5062.9482 73.774345 5059.6833 65.5 5056.5312 65.5 C 5055.2148 65.5 5052.7318 68.236434 5048.8125 74 C 5045.6334 78.675 5043.0074 83.068557 5043 83.78125 C 5042.9926 84.493943 5044.125 87.19832 5045.5 89.78125 C 5047.9909 94.460454 5048.8352 100 5047.0625 100 C 5046.5496 100 5045.8501 99.102968 5045.5 98 C 5044.3901 94.503197 5039.9222 90 5037.5625 90 C 5036.3216 90 5034.626 90.7875 5033.7812 91.75 C 5032.9365 92.7125 5031.3747 95.237905 5030.3125 97.34375 C 5028.6218 100.69586 5028.2002 100.96462 5027.0625 99.59375 C 5025.2898 97.457832 5026.3802 93.747785 5030 89.625 C 5031.6421 87.754805 5033 85.323579 5033 84.21875 C 5033 79.5966 5025.5463 67.151045 5021.4688 64.96875 C 5016.3459 62.227125 5011.6682 67.626017 5007.9688 80.5625 C 5007.0063 83.928036 5005.9214 89.007587 5005.5312 91.84375 C 5005.1412 94.679912 5004.4046 97 5003.9062 97 C 5001.774 97 5003.3716 85.177403 5007.2188 72.5 C 5009.4893 65.017762 5014.5899 55 5016.125 55 C 5016.6369 55 5019.7765 57.591656 5023.0938 60.75 C 5030.989 68.267191 5031.5923 68.561981 5033.4062 65.78125 C 5036.1089 61.638229 5036.9787 55.015217 5035.6562 48.5 L 5034.4375 42.5 L 5029.5938 41.9375 C 5023.7966 41.266477 5022 39.274207 5022 33.46875 C 5022 29.173683 5024.1901 26 5027.1562 26 C 5028.7715 26 5031.6168 28.874867 5034.3125 33.21875 C 5036.2088 36.274494 5037.9433 36.109073 5042 32.46875 C 5043.375 31.234886 5046.4199 29.261662 5048.75 28.09375 L 5052.9688 25.96875 z "/>
</svg>
