<svg xmlns="http://www.w3.org/2000/svg"
     width="56.1" height="64.0"
     viewBox="5222.5012 17.1094 77.9363 88.8906">
  <path d="M5256.3488 100.25C5251.3352 97.437897 5247.1373 93.39523 5246.47 90.736456C5245.6464 87.455014 5247.6298 80.375795 5250.4395 76.568761C5251.6851 74.880942 5253.0026 72.65795 5253.3673 71.628777C5254.3358 68.895344 5249.3212 61.548824 5244.7229 58.964421C5240.9816 56.861685 5240.8202 56.852774 5238.8453 58.639962C5236.0478 61.171663 5234.8195 63.662031 5233.4886 69.5C5232.2092 75.112568 5230.2473 76.003031 5228.2666 71.870267C5226.5012 68.187004 5228.101 60.586492 5232.268 52.859349C5236.6329 44.765319 5238.1385 44.296023 5246.1278 48.539302C5256.5662 54.083387 5257.9891 52.778469 5249.8443 45.130785C5245.0661 40.644225 5244.6552 39.886731 5244.2322 34.786124C5243.8198 29.813686 5244.052 28.975206 5246.6379 26.098436C5249.1683 23.283429 5250.3381 22.825808 5256.7305 22.150394C5266.5828 21.109419 5269.9002 22.294423 5271.7067 27.5C5273.7034 33.253621 5272.5601 40.532823 5269.3072 42.776886C5264.6266 46.005928 5263.0 47.997639 5263.0 50.5C5263.0 51.875 5263.2159 53.0 5263.4797 53.0C5263.7436 53.0 5266.3311 51.190276 5269.2297 48.978391C5277.3165 42.807582 5278.6063 42.773102 5283.7425 48.590419C5290.3804 56.108577 5293.3463 62.906239 5292.9975 69.802134C5292.3477 82.648596 5292.763 89.529871 5294.3673 92.5C5296.3669 96.202099 5296.4375 98.0 5294.5833 98.0C5293.8042 98.0 5292.963 98.5625 5292.714 99.25C5292.3557 100.23926 5291.7969 100.22501 5290.0349 99.181703C5288.1263 98.051606 5287.5357 98.110214 5285.8981 99.592239C5283.2864 101.95579 5282.4646 100.74669 5284.5351 97.586764C5286.3377 94.835719 5289.7788 94.178846 5291.8 96.2C5293.6108 98.010821 5293.3005 95.880654 5291.022 90.859204C5288.7242 85.795394 5288.5659 82.575743 5290.1573 73.268559C5291.2704 66.758494 5291.21 66.28662 5288.5747 60.912721C5287.0678 57.839717 5284.1347 53.351423 5282.0567 50.938733C5278.651 46.984378 5278.0431 46.65963 5275.8893 47.643795C5274.5752 48.244269 5271.12 50.877529 5268.211 53.495484C5265.3021 56.11344 5262.6021 57.93666 5262.211 57.547085C5261.82 57.15751 5261.3761 51.587544 5261.2246 45.169383C5260.916 32.088656 5260.3553 28.24471 5258.9595 29.640492C5256.2692 32.330815 5256.0283 49.21235 5258.5661 57.208359C5259.2601 59.394763 5256.791 59.657971 5255.0675 57.581315C5254.4199 56.801039 5250.6913 54.262241 5246.7816 51.939543C5241.5357 48.823048 5239.2573 47.96374 5238.0865 48.660166C5237.2139 49.179206 5235.0375 52.462825 5233.25 55.957096C5230.7771 60.791301 5230.0178 63.528462 5230.0744 67.405158L5230.1489 72.5L5232.5696 65.569627C5235.2505 57.894321 5238.2488 54.0 5241.4773 54.0C5244.3582 54.0 5251.4278 59.338065 5253.9485 63.416671C5256.5016 67.547622 5256.5841 72.980797 5254.1414 76.115141C5251.0405 80.094061 5249.0 84.740589 5249.0 87.82298C5249.0 90.003108 5250.1372 91.793499 5253.4777 94.87264C5258.7455 99.728368 5261.6301 100.06757 5265.1907 96.25C5270.9879 90.034483 5271.3798 85.661473 5266.9047 77.124271L5263.8094 71.219308L5265.7906 66.859654C5267.6965 62.665859 5274.3365 55.0 5276.0632 55.0C5277.4123 55.0 5281.7679 61.221104 5284.083 66.454814C5286.0652 70.935796 5286.1373 71.850031 5285.0432 78.632227C5284.3926 82.665216 5284.1551 86.441887 5284.5153 87.024828C5285.3976 88.452381 5281.851 98.11996 5280.2146 98.747887C5277.9542 99.615284 5277.9161 98.443941 5280.0478 93.624733C5281.1875 91.048344 5281.996 87.716302 5281.8444 86.220195C5281.6929 84.724088 5281.9416 80.630889 5282.3972 77.124199C5283.1605 71.249248 5283.0007 70.287131 5280.3628 64.876494C5278.5198 61.09627 5276.8861 59.003773 5275.7766 59.002296C5274.1161 59.000084 5266.9664 68.389124 5267.0314 70.486652C5267.0486 71.043993 5268.3986 74.188543 5270.0314 77.474539C5273.338 84.129279 5273.6248 86.57176 5271.6529 91.282119C5270.2049 94.740893 5262.808 102.0 5260.7315 102.0C5260.037 102.0 5258.0648 101.2125 5256.3488 100.25Z M5254.0 39.434259C5254.0 36.373101 5254.3878 33.110601 5254.8617 32.184259C5255.3356 31.257916 5256.0192 29.2625 5256.3807 27.75C5256.9806 25.240406 5256.7894 25.0 5254.1934 25.0C5248.8995 25.0 5244.9335 32.055029 5247.065 37.680602C5248.2037 40.686082 5251.8045 45.0 5253.1743 45.0C5253.6284 45.0 5254.0 42.495416 5254.0 39.434259Z M5267.4642 41.649858C5268.7426 40.715041 5269.4501 38.617765 5269.764 34.83202C5270.1564 30.100572 5269.8874 28.980612 5267.7663 26.514704C5263.6472 21.725911 5262.215 23.470203 5262.7181 32.663123C5263.3239 43.730786 5263.6845 44.413628 5267.4642 41.649858Z"/>
</svg>
