<svg xmlns="http://www.w3.org/2000/svg"
     width="23.5" height="64.0"
     viewBox="915.4005 14.9226 34.3309 93.5904">
  <path d="M 943.15625 90.125 C 940.51184 83.001335 938.68455 73.261721 938.75 66.0625 C 938.82586 57.718001 941.84962 41.670657 944.5625 35.28125 C 945.73145 32.528111 945.71636 31.468414 944.4375 27.84375 C 942.00768 20.956889 938.63008 18.922592 932.40625 20.59375 C 929.18689 21.458181 924.35341 30.594715 923.09375 38.15625 C 921.89423 45.356772 921.46001 57.288827 922.34375 58.71875 C 922.64562 59.207193 923.13886 64.769685 923.46875 71.0625 C 924.00665 81.323013 923.86111 82.916201 922.03125 86.46875 C 919.75529 90.887363 919.40053 96.584125 921.15625 100.4375 C 923.01316 104.51299 925.25414 103.54185 927.96875 97.4375 C 931.16879 90.241557 932.43053 89.189978 934.3125 92.1875 C 935.11256 93.461806 936.05615 96.124061 936.40625 98.125 C 936.90485 100.97462 937.60466 101.87574 939.5625 102.25 C 940.93726 102.5128 942.29942 102.35124 942.59375 101.875 C 942.71294 101.68214 943.30574 101.51933 943.9375 101.375 L 943 91.5 L 943.15625 90.125 z M 935.6875 22 C 937.73236 22 941.80487 26.387597 942.5625 29.40625 C 943.75982 34.176739 942.20533 38.705422 938.59375 40.9375 C 933.62954 44.005547 933.60615 44.00017 928.15625 36.1875 C 925.94018 33.010667 925.90517 32.729159 927.4375 29.5 C 929.16473 25.860143 933.40845 22 935.6875 22 z M 926.125 38.71875 L 928.875 42 C 931.33761 44.949806 932.02565 45.252133 935.3125 44.71875 C 937.33878 44.389931 939 44.395709 939 44.71875 C 939 45.041791 938.26163 48.874315 937.375 53.25 C 935.35367 63.225675 935.88349 78.492864 938.46875 85 C 939.45206 87.475 940.46267 91.6375 940.71875 94.25 C 941.29707 100.15005 939.82575 100.44528 938.21875 94.75 C 936.84511 89.881739 933.57006 85.529651 932 86.5 C 931.41372 86.862338 929.55659 89.614132 927.875 92.59375 C 926.19341 95.573367 924.34961 98 923.78125 98 C 922.1262 98 923.79553 88.438624 926.15625 84.4375 C 928.45402 80.543077 928.39748 76.212394 925.8125 61 C 924.42517 52.83566 924.28943 46.012282 925.40625 41.5625 L 926.125 38.71875 z "/>
</svg>
