<svg xmlns="http://www.w3.org/2000/svg"
     width="28.2" height="64.0"
     viewBox="3077.0000 13.6925 37.9272 86.0888">
  <path d="M 3109.3438,80.125 C 3109.0256,79.296492 3109.1769,78.137933 3109.5,76 3110.639,68.464484 3110.9272,46.037181 3110,36.5 3109.4812,31.163182 3108.2275,25.508968 3106.9375,22.59375 3104.7732,17.702669 3104.74,17.69249 3103.0938,19.875 3102.1837,21.081549 3100.7125,24.18388 3099.8125,26.78125 3097.8814,32.354739 3093.8704,48.387354 3094.0938,49.625 3094.5847,52.344913 3093.5309,53.812249 3089.4688,56.03125 3085.0006,58.472083 3081,64.265332 3081,68.3125 3081,70.57467 3082.2011,70.438098 3087.9375,67.53125 L 3092.7812,65.0625 3093.375,67.28125 C 3093.7012,68.498229 3093.9925,70.934129 3094,72.6875 3094.0224,77.901501 3096.9735,89.165992 3099.125,92.1875 3101.4157,95.404577 3103.7024,95.781285 3105.5625,93.25 3105.9584,92.711292 3106.2567,92.40921 3106.5625,92.21875 L 3107.5,88.15625 C 3107.3118,87.789964 3107,87.408506 3107,87.0625 3107,85.564107 3107.5091,84.746891 3108.3438,84.53125 L 3109.3438,80.125 z M 3103.9062,23.59375 C 3104.871,24.174979 3105.8983,27.823024 3107.0938,34.6875 3108.461,42.538836 3107.782,70.020921 3105.9062,82.6875 3105.2307,87.249738 3104.1553,91.111573 3103.4688,91.375 3101.975,91.948232 3099.6948,86.735051 3097.8438,78.5 3096.084,70.670636 3096.1007,49.196134 3097.875,41.5 3100.0006,32.280314 3101.9462,25.647493 3102.9688,24.03125 3103.2735,23.54948 3103.5847,23.400007 3103.9062,23.59375 z M 3093.5938,57.25 C 3094.7936,58.449784 3091.818,62.904443 3088.5312,64.84375 3083.6426,67.728089 3082.648,67.554285 3084.4375,64.09375 3085.8828,61.298885 3092.6163,56.272556 3093.5938,57.25 z M 3102.375,39.40625 C 3102.1873,39.891099 3101.9547,41.655852 3101.5938,45 3100.3721,56.320005 3099.4527,71.217287 3099.8125,73.75 3099.9882,74.9875 3100.4826,76 3100.9062,76 3101.9178,76 3103.6731,46.662567 3102.9688,41.5 3102.7254,39.716454 3102.5627,38.921401 3102.375,39.40625 z"/>
</svg>
