<svg xmlns="http://www.w3.org/2000/svg"
     width="27.6" height="64.0"
     viewBox="15.7812 15.6021 37.2677 86.4604">
  <path d="M 21.1875,83.125 20.8125,86.34375 C 21.021001,86.39783 21.190213,86.521971 21.40625,86.5625 23.588952,86.971977 25.820308,86.640113 27.84375,85.59375 33.193269,82.827407 34.383446,78.00234 31.3125,71.5625 29.645371,68.066494 29.653079,67.988294 32.625,64.25 37.131189,58.581797 37.115339,58.673265 35.40625,51.34375 33.154813,41.688347 33.804714,30.757787 36.78125,27.78125 L 39,25.5625 41.25,27.8125 C 43.278209,29.83969 43.486589,31.016365 43.46875,39.78125 43.457865,45.129094 42.81818,52.071623 42.03125,55.21875 40.646108,60.758272 40.662673,61.022101 42.84375,63.34375 45.943706,66.643502 45.821666,68.646377 42.15625,74.78125 39.121862,79.859962 39.076031,80.182032 40.65625,82.59375 42.023445,84.680353 44.803984,86.656092 47.34375,87.53125 L 47.625,84.46875 C 47.496679,84.408988 47.414646,84.408919 47.28125,84.34375 42.393057,81.95567 42.089537,79.503736 45.9375,73.25 47.618144,70.518606 49,67.876357 49,67.375 49,66.873644 47.685443,64.843911 46.0625,62.875 L 43.09375,59.28125 45.03125,51.40625 C 49.04897,34.970087 44.417544,19.602103 36.875,24.3125 32.123143,27.280084 30.634694,38.801676 33.1875,52.65625 L 34.34375,59.0625 30.46875,63.03125 C 26.688312,66.90277 26.595454,67.105108 27.90625,70.25 28.648525,72.030882 29.466578,75.129664 29.71875,77.125 30.092533,80.082585 29.763004,81.052591 27.875,82.375 25.368928,84.130321 23.110714,84.196562 21.1875,83.125 z M 20.03125,93 19.78125,95.0625 C 21.452864,94.370395 23.225822,93.427015 25.125,92 28.052924,89.8 30.920272,88 31.5,88 32.079728,88 33.978208,89.28526 35.71875,90.875 40.285325,95.045922 43.768683,97.358955 46.4375,98.0625 L 46.6875,95.40625 C 44.13469,94.683191 41.808582,93.088606 37.40625,89.34375 34.596952,86.954013 31.783339,85 31.15625,85 30.529161,85 28.088613,86.814864 25.75,89.03125 23.634743,91.035954 21.773546,92.204284 20.03125,93 z"/>
</svg>
