<svg xmlns="http://www.w3.org/2000/svg"
     width="52.7" height="64.0"
     viewBox="1436.3125 57.4715 39.6879 48.2104">
  <path d="M 1445.6562 86.84375 L 1444.6562 88.65625 C 1446.6655 89.94921 1448.7503 91 1450.0938 91 C 1453.5723 91 1457.3237 86.686375 1458.9062 80.84375 C 1460.7172 74.158039 1465.3021 65.547396 1467.25 65.1875 C 1470.0353 64.672888 1469.4477 70.11276 1465.9062 77.6875 C 1462.7715 84.392423 1462.6824 85.632216 1464.5625 94.75 C 1464.931 96.5375 1464.936 98 1464.5625 98 C 1462.8929 98 1460 95.807441 1460 94.53125 C 1460 91.89446 1457.8294 91.780248 1455.1562 94.28125 C 1450.669 98.479626 1446.8196 98.418609 1441.5312 94.375 L 1440.3125 96.59375 C 1446.2101 100.42681 1450.5858 100.94414 1455.0938 98.28125 C 1457.9086 96.618498 1458.072 96.634595 1460.2188 98.78125 C 1463.1194 101.68196 1465.5695 101.58922 1467.5938 98.5 C 1469.1176 96.174185 1469.1155 95.809341 1467.5 93.34375 C 1465.3755 90.101295 1465.9206 83.65771 1468.875 77 C 1471.6343 70.781884 1472.0004 65.110591 1469.75 63.65625 C 1466.3694 61.471549 1461.8308 66.974949 1458.375 77.5 C 1456.4077 83.491501 1452.5223 89 1450.25 89 C 1449.3819 89 1447.4929 88.005018 1445.6562 86.84375 z "/>
</svg>
