<svg xmlns="http://www.w3.org/2000/svg"
     width="29.1" height="64.0"
     viewBox="4012.5000 22.3438 39.1461 86.0571">
  <path d="M 4016.5 26.34375 L 4016.5 27 L 4017 30.59375 C 4017 29.604618 4018.0102 29.254825 4020.3125 29.4375 C 4028.8762 30.116992 4035.5087 39.719185 4034.8438 50.46875 C 4034.5064 55.92339 4034.5958 56.147833 4038.4375 59.375 L 4042.375 62.6875 L 4039.1875 67.53125 L 4035.9688 72.375 L 4038.875 75.4375 C 4041.7669 78.495939 4043.7468 83.287924 4044.0625 88 C 4044.6658 97.005101 4042.6287 99.096123 4041.5625 90.5625 C 4040.8589 84.930924 4037.5347 78.731579 4034.9688 78.25 C 4033.1164 77.902348 4030.0209 85.22435 4030 90 C 4029.9792 94.726534 4028.7369 96.61769 4027.0312 94.5625 C 4025.3932 92.588736 4026.4657 84.963918 4029.0938 79.8125 C 4031.6151 74.870438 4031.5856 74.657317 4027.4062 70.03125 L 4023.7812 66.03125 L 4026.3125 63.03125 C 4030.5426 58.004091 4031.4506 53.711021 4030 45.59375 C 4028.9754 39.86072 4028.1184 37.930991 4025.4688 35.28125 C 4023.4543 33.266758 4021.1967 32 4019.5938 32 C 4018.0442 32 4017.0659 31.459118 4017.0312 30.625 L 4017.5 34 L 4017.625 36.34375 C 4018.289 34.767542 4018.8882 34.5 4019.9688 34.5 C 4026.7536 34.5 4030.7152 51.987027 4025.5312 59.09375 C 4020.5063 65.98236 4020.4597 66.2842 4024.4062 70.46875 C 4026.3788 72.560204 4028 74.582871 4028 74.9375 C 4028 75.292129 4027.1 78.120303 4026 81.25 C 4023.2106 89.18626 4023.3646 95.140072 4026.4375 98.6875 C 4029.6498 102.3958 4030.4834 101.2857 4031.875 91.625 C 4032.498 87.300455 4033.2609 83.362955 4033.5625 82.875 C 4034.4929 81.369569 4036.8317 81.906507 4037.4062 83.75 C 4037.9561 85.514604 4039.9654 98.808542 4039.8438 99.90625 C 4039.8078 100.23142 4039.8098 101.0625 4039.875 101.75 C 4040.1261 104.40087 4043.187 102.82413 4044.7188 99.25 C 4047.6461 92.419166 4046.0597 79.193432 4041.875 75.40625 C 4039.475 73.234361 4039.513 71.255174 4042 67.5 C 4044.7997 63.272628 4044.5042 61.491646 4040.5 58.4375 C 4037.1396 55.874375 4037 55.518273 4037 49.34375 C 4037 37.578948 4028.8354 27 4019.75 27 C 4018.5809 27 4017.4529 26.722365 4016.5 26.34375 z "/>
</svg>
