<svg xmlns="http://www.w3.org/2000/svg"
     width="64.0" height="56.5"
     viewBox="5910.5565 64.1224 45.5375 40.1729">
  <path d="M 5943.3125,92.96875 C 5943.2198,92.790171 5943,92.610357 5943,92.4375 5943,91.595666 5942.2908,89.556426 5941.4375,87.90625 5939.6722,84.492502 5940.3345,81 5942.75,81 5943.6453,81 5945.6413,82.206126 5947.1875,83.6875 5950.7234,87.075154 5952.094,85.888245 5951.0625,80.34375 5950.0058,74.663617 5946.8775,69.578003 5944.1875,69.1875 5942.8921,68.999459 5940.6905,69.936154 5938.9062,71.4375 5935.1029,74.637863 5933.9168,74.638038 5930.1875,71.5 5926.1734,68.122369 5924.2455,68.328271 5919.7812,72.6875 5914.5575,77.788329 5914.5565,82.148176 5919.7812,79.4375 5921.9772,78.29818 5922.7758,78.292499 5924.4062,79.375 5928.1232,81.842984 5928.6167,83.685679 5926.5625,87.5 5924.9959,90.409114 5924.8854,91.402315 5925.875,93.25 5927.5657,96.406963 5934.6739,100.29523 5937.4688,99.59375 5938.0274,99.453528 5938.5199,99.535453 5939.0312,99.625 L 5939,99 5943.3125,92.96875 z M 5942.8125,71.34375 C 5943.5144,71.222064 5944.0413,71.626484 5944.9375,72.4375 5946.8602,74.177508 5948.5143,78.798205 5947.5625,79.75 5947.2741,80.038476 5946.4017,79.733095 5945.5938,79.0625 5943.3183,77.174047 5939.647,78.200697 5938.25,81.125 5937.2005,83.321758 5937.2791,84.521717 5938.7188,88.40625 5940.0067,91.88109 5940.1811,93.495206 5939.375,94.78125 5937.8282,97.248996 5934.9878,97.334499 5931.25,95.03125 5927.6185,92.793518 5927.3605,91.483241 5929.4688,86.4375 5930.8807,83.058231 5930.8112,82.848521 5927.8438,79.46875 5925.8514,77.199566 5923.9117,76 5922.25,76 5919.762,76 5919.735,75.950347 5921.5,74 5922.4955,72.9 5924.1845,72 5925.25,72 5926.3155,72 5928.3203,72.9 5929.7188,74 5933.1141,76.670717 5935.456,76.53101 5939.5938,73.375 5941.2334,72.124324 5942.1106,71.465436 5942.8125,71.34375 z M 5934.0312,85.125 C 5933.1988,85.248768 5932.379,86.046513 5931.4062,87.53125 5929.8566,89.89631 5929.8581,90.182392 5931.5312,92.03125 5933.4651,94.168178 5933.9982,94.330296 5936.4062,93.40625 5938.3195,92.672046 5938.4174,89.152445 5936.5938,86.75 5935.6796,85.545815 5934.8637,85.001232 5934.0312,85.125 z M 5934,88 C 5934.55,88 5935,88.675 5935,89.5 5935,90.325 5934.55,91 5934,91 5933.45,91 5933,90.325 5933,89.5 5933,88.675 5933.45,88 5934,88 z"/>
</svg>
