<svg xmlns="http://www.w3.org/2000/svg"
     width="20.1" height="64.0"
     viewBox="568.4759 17.7874 28.0241 89.0502">
  <path d="M 592.5,86.5 592.4375,65.84375 C 592.36739,43.85326 591.02811,33.416451 587.40625,26.15625 585.58878,22.513051 584.6884,21.787418 582.75,22.53125 579.64553,23.722547 574.35516,40.066872 573.6875,50.5 572.47589,69.433308 576.10404,94.76772 580.8125,100.25 583.03489,102.83763 584.97675,102.38353 586.15625,99 586.74004,97.325352 587.27878,96.477376 588.03125,96.28125 L 588,96 589.53125,92.75 C 589.34799,92.436266 589,92.048698 589,91.84375 589,90.535584 589.68017,90.045279 590.75,90.21875 L 592.5,86.5 z M 583.28125,24.65625 584.5,27.09375 C 587.29834,32.578056 589.98499,51.150649 590,65.1875 590.01103,75.510076 588.28847,87.150813 585.96875,92.5625 584.92223,95.003916 583.66607,97 583.15625,97 582.64642,97 581.4277,95.0875 580.46875,92.75 575.75645,81.263524 574.50516,52.375544 578.09375,37.9375 579.24758,33.295286 580.87408,28.42407 581.71875,27.09375 L 583.28125,24.65625 z M 581.8125,37.625 C 580.85995,38.213711 580.8145,66.990617 581.75,79.75 582.32342,87.570968 583.9789,89.71171 584.0625,82.75 584.37763,56.508356 583.38193,36.655036 581.8125,37.625 z"/>
</svg>
