<svg xmlns="http://www.w3.org/2000/svg"
     width="43.8" height="64.0"
     viewBox="5293.0037 16.4319 61.3631 89.5957">
  <path d="M 5333.875 90.0625 C 5332.8402 89.73605 5331.7095 89.204139 5330.25 88.25 C 5327.459 86.42546 5327.426 84.500258 5330.0938 77.78125 C 5331.7904 73.508091 5332.0738 71.282927 5331.5625 66.1875 C 5331.0381 60.961046 5331.2661 59.251241 5332.9375 56.1875 C 5334.0463 54.15491 5335.4305 51.199699 5336 49.625 C 5336.9014 47.132797 5337.4034 46.861095 5339.7812 47.46875 C 5344.2613 48.613616 5348.2763 48.570607 5348.6875 47.375 C 5348.8994 46.758617 5347.4784 44.175876 5345.5312 41.625 C 5343.5841 39.074124 5342.0159 36.432741 5342.0312 35.75 C 5342.0466 35.067259 5343.3966 32.722976 5345.0312 30.5625 C 5350.3668 23.510809 5348.6162 20.431886 5341.875 25 C 5339.4693 26.630258 5337.1024 27.958741 5336.625 27.96875 C 5336.1476 27.978758 5334.223 26.65 5332.3438 25 C 5327.2959 20.567991 5323.8823 21.213821 5320.0938 27.34375 C 5316.5682 33.0483 5317.4343 37.539918 5323.2812 43.71875 L 5326.3438 46.9375 L 5324.5 50.96875 C 5323.5002 53.185903 5322.614 55 5322.5 55 C 5322.3861 55 5319.6462 53.643033 5316.4062 52 C 5309.7191 48.608924 5306.4765 48.277487 5303.125 50.625 C 5299.9893 52.821339 5297.0581 59.579511 5297.0312 64.65625 C 5297.0037 69.84467 5299.4507 71.324781 5301.25 67.21875 C 5305.1234 58.379974 5314.3763 59.423697 5318.4375 69.15625 C 5321.4736 76.432101 5320.6812 81.108424 5315.375 87.65625 C 5309.6258 94.7507 5308.6026 99.406139 5312.375 101.125 C 5314.3561 102.02762 5315.4201 101.75505 5318.875 99.46875 L 5323 96.71875 L 5329.75 99.8125 C 5330.1505 99.995263 5330.3451 100.05106 5330.7188 100.21875 L 5331.5312 97.59375 C 5330.82 97.228816 5330.3232 97.047444 5329.5 96.59375 C 5322.9844 93.002862 5320.196 93.102263 5317.7812 96.96875 C 5316.1717 99.546026 5313 99.667751 5313 97.15625 C 5313 96.138772 5314.4625 93.363319 5316.25 91 C 5318.0375 88.636681 5320.1546 85.796474 5320.9688 84.6875 C 5322.9155 82.036107 5322.6981 71.997167 5320.5938 67.5625 C 5319.7185 65.717978 5317.4595 62.853094 5315.5625 61.1875 C 5310.9446 57.132945 5306.7609 57.65064 5302.25 62.8125 C 5299.3798 66.096858 5299.0132 66.250945 5299 64.3125 C 5298.9785 61.164839 5300.816 56.848347 5303.25 54.25 C 5305.4171 51.936629 5310.3779 51.184437 5311.5 53 C 5311.8399 53.55 5312.9434 54 5313.9688 54 C 5314.9941 54 5317.2253 55.148082 5318.9062 56.5625 C 5320.5872 57.976917 5322.4283 58.853341 5323 58.5 C 5324.2542 57.724893 5329 48.556462 5329 46.90625 C 5329 46.261973 5327.2 43.761718 5325 41.375 C 5320.573 36.572283 5319.7678 32.208783 5322.5625 28.21875 C 5324.7294 25.125091 5327.8288 25.446451 5331.6562 29.15625 L 5334.9375 32.3125 L 5338.9375 29.65625 C 5345.0135 25.635338 5345.9415 26.465025 5341 31.5 L 5336.5938 36 L 5340.7812 40.28125 C 5343.0957 42.639568 5345 44.849645 5345 45.1875 C 5345 45.525354 5343.0356 45.225505 5340.625 44.5 C 5336.232 43.177919 5334.0541 43.792387 5333.9688 46.4375 C 5333.925 47.788402 5330.9959 53.775414 5328.7812 57.03125 C 5327.2288 59.313541 5327.1887 59.9964 5328.4688 64.25 C 5329.697 68.33084 5329.6928 69.711874 5328.4375 74.53125 C 5327.6406 77.5908 5326.3248 81.405111 5325.5 83 C 5324.6753 84.594888 5324 86.094917 5324 86.34375 C 5324 86.592582 5326.4833 88.435182 5329.5 90.4375 C 5330.9936 91.428907 5332.1064 92.145708 5333.0938 92.625 L 5333.875 90.0625 z "/>
</svg>
