<svg xmlns="http://www.w3.org/2000/svg"
     width="34.0" height="64.0"
     viewBox="4133.4375 16.0000 47.7984 89.9571">
  <path d="M 4137.4375,99.375 C 4138.185,99.408487 4139.1402,99.653015 4140.9062,100.25 4145.9564,101.95708 4153.2289,101.01232 4156.2812,98.25 4159.3158,95.503691 4162.6775,88.979718 4164,83.25 4165.3124,77.564046 4166.4315,76.938734 4170.5312,79.625 4172.5204,80.928409 4173.2959,80.999317 4174.5,80 4177.2359,77.729383 4176.6058,75.145947 4170.9688,65.5 4168.9578,62.058854 4168.6382,60.172721 4168.6562,52 4168.6769,42.609648 4170.8111,32.190146 4173.3438,29.09375 4174.2559,27.978618 4174.1838,27.76485 4173,28.15625 4169.309,29.376637 4164.6337,51.847177 4166.1875,60.875 4166.6002,63.27334 4168.3004,67.33769 4169.9688,69.9375 4172.7628,74.291434 4174.0302,78.679863 4172.25,77.8125 4171.8375,77.611519 4170.2899,76.835905 4168.8125,76.09375 4167.335,75.351595 4165.5427,74.969818 4164.8125,75.25 4164.0824,75.530182 4162.4573,79.19675 4161.2188,83.40625 4158.1929,93.691417 4154.4225,97.850336 4147.5,98.5625 4142.291,99.098382 4138.9599,97.916273 4138.0938,95.5625 L 4137.5,98.5 4137.4375,99.375 z M 4139.25,89.6875 C 4139.7481,89.637336 4140.3799,89.938193 4141.3438,90.84375 4142.6023,92.026139 4144.875,93 4146.4062,93 4153.8397,93 4158.061,80.616621 4158.0312,58.8125 4158.0063,40.393547 4160.3224,29.740101 4165.5312,24.53125 4169.3407,20.721696 4169.668,20 4167.5938,20 4165.3745,20 4160.1815,26.630345 4159.1562,30.75 4158.6412,32.819722 4157.9122,35.625 4157.5312,37 4157.1505,38.375 4156.4464,47.825 4156,58 4155.1363,77.689361 4153.7838,84.464341 4149.875,88.625 4146.9944,91.691248 4145.6481,91.618412 4142.5,88.25 4141.276,86.940351 4140.693,85.682107 4140.5,83.5625 L 4139.25,89.6875 z"/>
</svg>
