<svg xmlns="http://www.w3.org/2000/svg"
     width="20.0" height="64.0"
     viewBox="3341.7211 16.8192 23.1616 74.1808">
  <path d="M3352.0 86.62443C3352.0 86.417867 3353.2045 83.605367 3354.6768 80.37443C3357.0732 75.115113 3357.3984 73.032773 3357.7818 60.487735C3358.4712 37.934438 3355.7805 22.819529 3351.7871 26.812857C3350.9183 27.681721 3350.663 31.318732 3350.9127 39.27C3351.8082 67.783072 3351.5287 77.368668 3349.7032 80.75C3348.7382 82.5375 3347.5102 84.0 3346.9743 84.0C3345.7211 84.0 3345.7337 83.881644 3347.4166 79.853801C3349.7777 74.202946 3350.3725 62.917334 3348.9428 50.89527C3347.5766 39.406899 3348.5718 27.425844 3351.1503 24.318873C3354.0548 20.819188 3357.8364 24.21644 3359.4681 31.791193C3360.8148 38.043219 3360.8827 67.758553 3359.5617 72.766223C3357.8286 79.335803 3354.3258 87.0 3353.0562 87.0C3352.4753 87.0 3352.0 86.830994 3352.0 86.62443Z"/>
</svg>
