<svg xmlns="http://www.w3.org/2000/svg"
     width="32.0" height="64.0"
     viewBox="1275.9893 14.9996 44.0107 88.0004">
  <path d="M 1283.5938 88.4375 L 1283 89 L 1281.5 97.5 L 1281.5 97.53125 C 1282.1133 97.32488 1282.7946 97.361486 1283.8125 97.90625 C 1284.9354 98.507203 1287.8471 99 1290.25 99 C 1297.6081 99 1303.8859 93.021913 1307.3438 82.75 C 1307.6927 81.713479 1308.9406 81 1310.4062 81 C 1312.806 81 1316 77.804731 1316 75.40625 C 1316 74.779256 1314.6849 72.604076 1313.0625 70.5625 C 1309.1786 65.675225 1307.8509 55.645941 1309.5 43.5 C 1311.0231 32.281909 1309.4927 22.93015 1305.75 20.59375 C 1303.1964 18.999613 1300.9242 20.75286 1298 26.5625 C 1295.7497 31.0331 1295.5422 32.598309 1295.6562 43 C 1295.7256 49.325 1296.277 56.525 1296.875 59 C 1297.473 61.475 1297.9552 67.316419 1297.9688 72 C 1298.0055 84.841709 1295.4277 88.622576 1286.3125 88.90625 C 1284.9727 88.947944 1284.1695 88.849663 1283.5938 88.4375 z M 1304.0312 22.40625 C 1304.5258 22.541843 1304.9988 22.979326 1305.4375 23.71875 C 1307.6066 27.374292 1307.9157 31.801035 1306.8125 43.5 C 1305.4006 58.473028 1306.2048 65.52075 1309.9688 71.125 C 1313.2671 76.036272 1312.9583 78 1308.875 78 C 1306.5991 78 1305.7426 78.605039 1304.9688 80.75 C 1302.3875 87.90438 1300.4587 91.180786 1297.5 93.4375 C 1293.9451 96.148909 1290.7799 97.003612 1287 96.28125 C 1279.9893 94.94145 1281.0636 91 1288.4375 91 C 1293.8956 91 1296.1888 89.519838 1298.9062 84.25 C 1301.0021 80.185801 1301.3217 69.983527 1299.625 60.96875 C 1297.3111 48.674386 1297.2335 35.797863 1299.4375 28.8125 C 1300.8772 24.249505 1302.5476 21.99947 1304.0312 22.40625 z "/>
</svg>
