<svg xmlns="http://www.w3.org/2000/svg"
     width="50.3" height="64.0"
     viewBox="1311.2533 14.9649 69.9731 89.0420">
  <path d="M 1335.0938 20 C 1330.2854 20 1325.7151 29.480204 1325.5625 39.75 C 1325.4569 46.852444 1325.3727 47.050652 1321.7188 50.0625 C 1319.6677 51.753166 1318 53.607007 1318 54.15625 C 1318 54.705494 1317.3383 55.818006 1316.5312 56.625 C 1315.5452 57.611068 1315.2533 59.123102 1315.6562 61.28125 C 1316.6414 66.558071 1317.6928 66.702477 1322.0312 62.1875 C 1324.2514 59.877111 1326.6727 58 1327.4062 58 C 1329.7259 58 1330.3164 68.770585 1328.4375 77.03125 C 1325.7397 88.892715 1328.0101 97.063661 1334.375 98.3125 C 1339.0789 99.235443 1340.8162 98.874315 1345.25 96.0625 C 1349.2812 93.505986 1350.0148 93.324858 1351.0938 94.625 C 1354.0366 98.170762 1362.2543 100.00685 1366.0625 97.96875 C 1368.7935 96.507166 1368.4969 95.455511 1364.625 93.0625 C 1362.7647 91.912779 1360.672 89.653409 1360 88.03125 C 1358.7911 85.112685 1359.0472 78.691833 1360.5312 74.125 C 1361.2607 71.879939 1361.1377 71.804007 1357.9688 72.5 C 1354.5199 73.257513 1351.5227 76.027574 1350.4062 79.5 C 1349.358 82.760389 1345.8301 86 1343.3125 86 C 1339.346 86 1338.3083 82.052885 1340.3125 74.53125 C 1341.2427 71.040501 1342 66.790977 1342 65.09375 C 1342 61.483282 1341.7867 61.522065 1348.6562 63.6875 L 1354 65.375 L 1356.9375 62.5625 C 1358.591 60.978315 1361.2814 56.198116 1363.0938 51.625 C 1366.7173 42.481393 1368.1289 40.424142 1371.4375 39.59375 C 1374.311 38.872534 1377.2264 34.595845 1376.8125 31.6875 C 1376.5595 29.909714 1375.8401 29.5 1373 29.5 C 1369.5973 29.5 1369.4865 29.381905 1369.1875 25.25 C 1368.8613 20.740982 1367.5664 19.671328 1366.5 23.03125 C 1365.6544 25.695501 1366.7657 30.571337 1368.5625 32.0625 C 1369.3492 32.715417 1370.897 33.007172 1372 32.71875 C 1373.2675 32.387281 1374 32.687446 1374 33.53125 C 1374 35.277944 1371.2368 38 1369.4688 38 C 1367.1093 38 1364.3014 41.858907 1362 48.3125 C 1360.7886 51.70957 1358.7054 56.1875 1357.375 58.25 C 1354.4303 62.815303 1351.4994 63.126133 1345.1562 59.5 C 1342.7626 58.131625 1340.3917 57 1339.9062 57 C 1339.4208 57 1339.2822 59.5875 1339.5938 62.75 C 1339.9858 66.727432 1339.688 69.84819 1338.5938 72.875 C 1336.3471 79.088855 1336.5845 83.38589 1339.3438 86.59375 C 1341.1487 88.692117 1342.2117 89.175582 1344.1562 88.6875 C 1348.018 87.718266 1351.7677 84.285471 1352.4688 81.09375 C 1353.0792 78.314789 1356.9264 73.743752 1357.0938 75.59375 C 1357.1388 76.091494 1357.1247 78.975 1357.0625 82 C 1356.9494 87.499219 1359.6255 94 1362 94 C 1362.5581 94 1363 94.503037 1363 95.125 C 1363 95.873094 1361.7286 96.05847 1359.25 95.65625 C 1355.82 95.099642 1354.2404 93.885129 1352.0938 90.15625 C 1351.4892 89.106049 1350.2182 89.615796 1346.5625 92.40625 C 1340.5548 96.992031 1334.9807 97.397934 1332.4062 93.46875 C 1331.0331 91.373118 1330.8812 89.637112 1331.5312 83.21875 C 1332.5301 73.355612 1332.2481 56.84184 1331.0625 55.65625 C 1329.704 54.297758 1325.5541 55.660822 1322.0312 58.625 C 1320.3156 60.068598 1318.5948 60.938619 1318.2188 60.5625 C 1316.937 59.28077 1321.5023 52.706074 1324.9062 50.90625 L 1328.2812 49.09375 L 1328.1562 40.8125 C 1328.027 31.808246 1330.0569 24.580924 1333.2812 22.59375 C 1334.746 21.690976 1335.4296 21.956418 1337 24 C 1338.5459 26.011863 1340.6825 33.748088 1340.3125 36 C 1340.2673 36.275 1339.9351 39.041481 1339.5625 42.15625 C 1338.9255 47.481819 1339.0142 47.877241 1341.1875 48.53125 C 1342.4586 48.913761 1345.2043 50.852895 1347.2812 52.84375 C 1350.351 55.786396 1351.3799 56.249988 1352.7812 55.375 C 1355.9437 53.400468 1360.0756 45.529346 1360.25 41.15625 C 1360.397 37.470334 1360.0011 36.611851 1356.7188 33.90625 C 1352.3788 30.328992 1351.8388 26.723189 1355.0625 22.625 C 1357.3986 19.655098 1355.8177 18.964876 1352.8438 21.65625 C 1351.6126 22.770539 1351 24.700017 1351 27.59375 C 1351 31.407699 1351.4397 32.263839 1355 35.125 C 1358.6943 38.093841 1358.971 38.647565 1358.375 41.9375 C 1357.5585 46.444292 1354.5054 52.607658 1352.75 53.28125 C 1352.0142 53.563633 1349.2933 51.776278 1346.7188 49.34375 C 1342.2317 45.104139 1342.0579 44.762609 1342.625 40.625 C 1343.7894 32.13018 1339.3616 20 1335.0938 20 z M 1360.9062 21.0625 C 1360.465 20.953396 1359.7615 21.572902 1359.0312 22.9375 C 1357.5744 25.659792 1357.7528 28.19748 1359.5625 30.78125 C 1361.1229 33.009022 1365 33.877325 1365 32 C 1365 31.45 1364.3457 31 1363.5312 31 C 1361.7902 31 1360.5751 26.99894 1361.25 23.46875 C 1361.5321 21.993305 1361.3475 21.171604 1360.9062 21.0625 z "/>
</svg>
