<svg xmlns="http://www.w3.org/2000/svg"
     width="64.0" height="63.9"
     viewBox="3650.2128 12.5134 97.2427 97.1014">
  <path d="M 3726.625,77 C 3724.53,77 3722.4035,80.09367 3720.5312,85.84375 3718.629,91.685854 3719.0256,97.842268 3721.5625,101.71875 3724.1123,105.61485 3726.5235,103.0292 3729.5,93.25 3731.4764,86.756475 3729.7578,77 3726.625,77 z M 3689.3125,66.46875 C 3687.906,67.471416 3687.669,78.23712 3688.75,94.78125 3689.1047,100.20905 3689.6482,102.93364 3690.375,102.6875 3691.662,102.25161 3691.3076,68.066509 3690,66.65625 3689.7524,66.389256 3689.5134,66.325512 3689.3125,66.46875 z M 3713.0938,18.5 C 3712.4052,18.634607 3711.9851,19.16696 3712.5,20 3712.7943,20.476147 3711.4211,22.112022 3709.4375,23.625 3706.3295,25.995569 3705.5442,26.20648 3703.8125,25.125 3701.2686,23.536322 3700.5173,24.252545 3701.9375,26.90625 3702.7772,28.475246 3702.6868,29.809134 3701.5625,32.5 3700.7495,34.445771 3699.7184,35.979592 3699.2812,35.90625 3697.1138,35.542603 3697.0443,36.218098 3698.9375,38.625 3702.041,42.570409 3701.6101,45.479185 3697.5312,48 3695.6153,49.184142 3693.1117,51.305541 3692,52.71875 L 3690,55.28125 3687.5,52.59375 C 3686.128,51.113364 3683.4255,49.241989 3681.5,48.4375 3678.4827,47.176751 3678,46.493395 3678,43.59375 3678,41.743475 3678.6973,39.655551 3679.5625,38.9375 3681.7057,37.158772 3685,30.538181 3685,28 3685,25.278135 3682.3792,24.357263 3680.2188,26.3125 3679.2757,27.165922 3677.2615,28.331581 3675.75,28.90625 3672.3301,30.206496 3672.1463,28.977152 3675.1562,24.75 3677.2832,21.762936 3677.2879,21.683534 3675.4062,20.28125 3670.3502,16.513417 3660.8389,21.967414 3659.4375,29.4375 3658.5517,34.159587 3659.2845,35.705625 3663.375,37.65625 3665.4548,38.648027 3666.9866,40.184571 3667.25,41.5625 3667.6165,43.479683 3666.9878,44.108317 3663.3438,45.5 3658.4722,47.360495 3655.1476,51.336361 3654.8438,55.625 3654.2128,64.533663 3656.2694,66.560173 3659.9375,60.625 3661.3472,58.343988 3662.9678,57.096991 3664.9062,56.8125 3668.2695,56.318867 3677.9353,60.244841 3678.125,62.1875 3678.1952,62.906128 3678.3695,64.528012 3678.5,65.78125 3679.8295,78.552728 3680.1813,82.867109 3680.625,91.46875 3680.9074,96.944416 3681.3495,101.77294 3681.625,102.21875 3682.9869,104.42223 3683.4837,101.18028 3683.3438,90.84375 3683.1368,75.571 3681.5704,61.423662 3679.875,59.375 3677.7112,56.76036 3670.9286,54.05545 3666.4375,54.03125 3663.3653,54.014695 3661.7704,54.615505 3660,56.5 3655.9189,60.844101 3654.6055,58.75933 3657.5312,52.59375 3659.0766,49.336912 3663.3941,47 3667.875,47 3669.9384,47 3670.092,46.605025 3669.8125,41.75 3669.5239,36.738639 3669.3636,36.479349 3666.5,36.15625 3662.4751,35.702128 3661,34.325271 3661,30.96875 3661,26.644698 3665.4461,22 3669.5938,22 3673.3155,22 3673.8554,23.282109 3671.4688,26.4375 3667.5342,31.639456 3671.2537,34.154743 3677.625,30.59375 3681.7262,28.301563 3682,28.255448 3682,30.03125 3682,31.073394 3680.6519,33.462308 3679,35.34375 3675.8316,38.952339 3674.0889,46.297629 3675.8125,48.84375 3676.3151,49.586174 3678.2421,50.496273 3680.0938,50.875 3682.5469,51.376716 3684.2516,52.712694 3686.3125,55.78125 3689.5197,60.55664 3690.6861,60.96933 3691.9375,57.75 3693.0919,54.780217 3697.8016,50.396468 3701.25,49.09375 3703.9858,48.060196 3704.0043,47.989655 3703.375,41.21875 3702.6888,33.834982 3704.2085,29.039334 3707.8438,27.09375 3711.4055,25.187566 3718.5249,23.014364 3721.3438,23 3728.7002,22.962515 3735.8529,33.859595 3734.4062,42.90625 3733.5301,48.385606 3731.696,47.64476 3730.8125,41.46875 3729.901,35.096655 3725.5554,28.904982 3721.2188,27.78125 3714.303,25.989218 3707.7882,33.693333 3707.5938,43.90625 L 3707.5,49.5 3711,49.21875 C 3715.4999,48.849103 3718.5746,50.519699 3720.0938,54.1875 3721.809,58.328325 3720.1806,59.645653 3716.0312,57.5 3713.7323,56.311204 3711.6391,56.051713 3708.6562,56.53125 3703.0009,57.440424 3700.3995,59.268865 3697.9062,64.15625 3696.094,67.708347 3695.832,69.806962 3696.0312,78.90625 3696.49,99.853736 3696.5289,100.35341 3697.9062,100.8125 3699.0066,101.17928 3699.1348,98.336815 3698.5625,84.875 L 3697.875,68.5 3700.6562,64.21875 C 3705.1604,57.363879 3712.6273,56.50915 3718.6562,62.15625 L 3720.8438,64.1875 3721.9062,62.15625 C 3722.5032,61.040708 3723,58.484908 3723,56.46875 3723,51.285436 3717.7153,46 3712.5312,46 3709.5117,46 3708.9568,45.690869 3709.375,44.25 3709.6543,43.2875 3710.3789,40.629185 3710.9688,38.34375 3712.5407,32.254242 3714.9942,29.664692 3719.0938,29.78125 3721.5182,29.850182 3723.1122,30.665262 3724.625,32.5625 3728.2991,37.170278 3730.4533,47.983801 3728,49.5 3727.45,49.839919 3727,50.994959 3727,52.0625 3727,54.887403 3730.3479,54.516882 3733.1562,51.375 3734.4516,49.925997 3737.1712,47.146517 3739.2188,45.21875 3742.9492,41.706492 3743.4555,39.152858 3740.0625,40.96875 3739.0682,41.500886 3737.9723,41.659815 3737.625,41.3125 3736.6631,40.350665 3736.8706,35.43925 3738,32.46875 3739.1968,29.320824 3738.3951,27.421836 3736.5312,28.96875 3735.5585,29.776129 3734.3652,28.756809 3731.5625,24.6875 L 3727.875,19.3125 3722.2188,20.21875 C 3717.4262,20.970303 3716.3632,20.831547 3715.3438,19.4375 3714.7464,18.620585 3713.7823,18.365393 3713.0938,18.5 z M 3726.4688,80.3125 C 3728.0696,80.839383 3728.2429,91.049185 3726.7188,95.4375 3725.9654,97.606543 3724.8414,99.542471 3724.2188,99.75 3722.7998,100.22299 3721.5516,95.786443 3721.625,90.4375 3721.6843,86.124358 3724.7338,79.741497 3726.4688,80.3125 z"/>
</svg>
