<svg xmlns="http://www.w3.org/2000/svg"
     width="34.1" height="64.0"
     viewBox="2674.9617 15.0849 46.8089 87.9151">
  <path d="M 2682.9688 88.5625 L 2681.375 92.125 C 2681.7275 91.91709 2682.0561 91.61505 2682.4062 91.46875 C 2686.2094 89.879695 2693.0843 82.26101 2698.0938 74.0625 C 2702.9572 66.102975 2702.7281 61.128174 2697.0312 49.5 C 2690.7949 36.770836 2690.3188 26 2696 26 C 2698.7481 26 2700.7799 30.550567 2702.5312 40.59375 C 2704.1688 49.984191 2705.2425 52.521473 2709.9062 58.375 C 2713.7256 63.1687 2714.0755 66.319081 2710.6875 65.46875 C 2707.9573 64.783511 2706.9687 65.811489 2704.5625 72 C 2700.7157 81.893707 2689.1015 95.156097 2683.125 96.46875 C 2679.4728 97.270898 2678.9617 99 2682.375 99 C 2685.0518 99 2690.5434 95.533552 2695.4375 90.75 C 2699.5267 86.753224 2706.5096 76.048369 2708.0312 71.4375 C 2708.7748 69.184517 2709.7904 68 2711 68 C 2716.5113 68 2717.7706 63.276322 2713.5938 58.3125 C 2709.5031 53.451086 2706.9108 47.403747 2705.9375 40.53125 C 2703.8881 26.0601 2697.8531 19.084877 2692.5 25 C 2688.1225 29.837074 2689.1711 38.16987 2695.875 52 C 2700.0657 60.64534 2700.5553 66.65446 2697.4688 71.5 C 2692.9039 78.666408 2684.6535 89 2683.5 89 C 2683.2878 89 2683.1089 88.840032 2682.9688 88.5625 z "/>
</svg>
