<svg xmlns="http://www.w3.org/2000/svg"
     width="31.9" height="64.0"
     viewBox="2273.0421 30.7330 34.5509 69.2104">
  <path d="M 2282.3438 36.71875 C 2281.7715 36.365067 2280.3416 36.95818 2279.1562 38.0625 C 2277.0639 40.011873 2277.0421 40.167111 2278.7188 43.28125 C 2280.9438 47.414198 2282.1004 77.170457 2280.4062 86.8125 C 2279.4732 92.122807 2279.5307 93.374415 2280.7812 94.625 C 2282.0996 95.943393 2282.5708 95.830023 2284.9375 93.5625 C 2287.9689 90.658233 2289.6521 90.424433 2292.4375 92.53125 C 2296.385 95.51696 2296.5586 94.757855 2296.5312 73.75 C 2296.5089 56.590271 2296.785 52.802123 2298.3125 48.84375 C 2299.304 46.274574 2300.7665 43.629418 2301.5625 42.96875 C 2303.593 41.283576 2303.3636 38.638988 2301 36.5 C 2299.0482 34.733599 2298.9131 34.733013 2296.5 37 C 2294.2784 39.087048 2293.5708 39.408403 2293.1562 37.59375 L 2290.1875 40.90625 C 2290.3375 42.216196 2290.5586 43.234586 2290.9375 43.46875 C 2291.4546 43.788318 2293.4195 42.693359 2295.3125 41.03125 C 2300.9549 36.077181 2301.4613 37.330983 2297.25 45.90625 C 2294.5933 51.316031 2294.4869 52.146039 2294.1875 70.1875 L 2293.875 88.84375 L 2290.6875 88.75 C 2288.933 88.687575 2286.7609 88.96674 2285.875 89.375 C 2284.4534 90.030137 2284.2738 88.906278 2284.1875 79.8125 C 2284.0183 62.008829 2283.0693 48.538515 2281.6562 43.84375 C 2280.4585 39.863758 2280.4839 39.201488 2281.8438 38.34375 C 2282.7909 37.74631 2282.9688 37.153466 2282.375 36.75 C 2282.3591 36.739164 2282.3608 36.729318 2282.3438 36.71875 z "/>
</svg>
