<svg xmlns="http://www.w3.org/2000/svg"
     width="53.6" height="64.0"
     viewBox="4044.6725 13.7919 75.0613 89.6156">
  <path d="M4068.7712 97.704896C4065.3194 96.180778 4061.2619 90.686324 4059.9269 85.728351C4059.1359 82.7908 4059.2942 79.99317 4060.6099 73.663034C4061.552 69.130478 4062.0299 64.255451 4061.6721 62.829639C4060.8934 59.727289 4057.2997 58.712971 4053.8548 60.623276C4049.6807 62.937993 4048.6725 62.407507 4049.3442 58.25C4049.9868 54.272121 4054.9694 49.078139 4058.1918 49.026901C4059.671 49.003382 4059.8113 48.136851 4059.308 42.133829C4058.5867 33.53007 4060.5676 27.802554 4066.1463 22.362084L4070.1065 18.5L4071.9526 20.942241C4075.8294 26.071086 4077.0449 35.757068 4074.951 44.83678C4074.0204 48.872489 4074.1279 49.312795 4076.5006 51.179169C4079.5965 53.614375 4082.0 59.052563 4082.0 63.622124C4082.0 67.650118 4080.8024 67.852984 4076.8176 64.5C4072.9921 61.281058 4071.931 61.3432 4072.5484 64.75C4072.8226 66.2625 4072.1998 70.158787 4071.1645 73.408416C4068.2675 82.501451 4070.5355 89.0 4076.6061 89.0C4079.3491 89.0 4086.5161 81.193345 4089.144 75.343131C4092.076 68.815802 4092.5259 60.430113 4090.5029 50.014763C4087.4898 34.50218 4089.4069 24.598678 4096.175 20.714364C4101.2671 17.791857 4102.4872 20.365144 4098.8955 26.452573C4096.1069 31.178814 4095.856 39.472372 4098.3873 43.25C4100.8956 46.993239 4104.9033 46.901821 4109.3472 43.0C4111.2265 41.35 4113.2671 40.0 4113.882 40.0C4115.7338 40.0 4115.1438 45.650583 4112.785 50.505687C4110.8816 54.423323 4109.9318 55.250284 4106.035 56.382468L4101.5 57.700059L4100.8899 64.60003C4100.3027 71.24176 4098.3468 78.614908 4096.0179 82.966533C4093.1604 88.305817 4086.4948 96.011868 4083.5078 97.429277C4079.6145 99.276785 4072.6271 99.407469 4068.7712 97.704896Z M4083.5993 94.343008C4087.5616 91.746751 4093.907 82.568876 4096.1474 76.193457C4097.2478 73.062056 4098.4041 67.0125 4098.7169 62.75C4099.0511 58.197439 4099.7425 54.956144 4100.3929 54.893701C4101.0018 54.835236 4102.175 54.687209 4103.0 54.564751C4103.825 54.442293 4105.2941 54.265128 4106.2647 54.17105C4108.0808 53.995022 4111.9896 48.537337 4111.9963 46.168441C4111.999 45.208825 4111.0592 45.418322 4108.632 46.918441C4104.1243 49.704337 4101.6378 49.541685 4097.9175 46.217559C4093.9538 42.676002 4093.0026 36.375352 4095.3789 29.401364C4097.363 23.578401 4097.3857 22.914758 4095.5772 23.608735C4091.1183 25.319791 4089.6527 38.788436 4092.5965 51.0C4094.2995 58.064087 4093.8715 69.891512 4091.7351 74.80551C4087.9842 83.432852 4080.7611 92.0 4077.2381 92.0C4069.1078 92.0 4065.318 83.593559 4068.5054 72.62927C4069.5016 69.202691 4069.8585 65.762744 4069.4461 63.564178C4068.6207 59.164676 4070.8404 57.883809 4075.0158 60.350237C4078.5299 62.42607 4079.0009 62.414209 4078.9963 60.25C4078.99 57.309318 4075.1785 52.0 4073.0737 52.0C4070.0854 52.0 4069.8565 50.721661 4071.6153 43.856538C4073.4181 36.819499 4072.9211 26.492551 4070.6714 24.242855C4069.5877 23.159129 4068.9038 23.287869 4066.7517 24.980667C4062.3587 28.436214 4061.1648 34.690038 4062.2617 48.5C4062.4712 51.136988 4062.1479 51.540158 4059.5899 51.831875C4056.0518 52.235354 4052.0 54.750256 4052.0 56.542757C4052.0 57.535298 4053.3349 57.717725 4057.4726 57.290669C4062.719 56.749198 4062.9877 56.837575 4063.9726 59.428021C4065.4452 63.301154 4065.2396 69.490899 4063.5 73.654243C4060.8183 80.072507 4061.98 86.914191 4066.7577 92.839921C4070.1535 97.051749 4078.3489 97.783175 4083.5993 94.343008Z"/>
</svg>
