<svg xmlns="http://www.w3.org/2000/svg"
     width="21.9" height="64.0"
     viewBox="3296.4482 16.9186 28.9580 84.8002">
  <path d="M 3320.1562 85.375 C 3320.0388 84.860591 3319.8712 84.725885 3319.75 84 C 3317.9062 72.95317 3317.8095 70.636508 3318.9688 64.75 C 3320.6165 56.382368 3320.3452 41.957412 3318.375 34.09375 C 3316.4776 26.520138 3313.4035 20.918564 3311.5625 21.625 C 3310.8442 21.900638 3309.2649 25.418377 3308.0625 29.46875 C 3305.478 38.174502 3304.2405 58.610713 3305.7812 66.875 C 3306.6878 71.737755 3306.5423 72.702281 3304.3125 77 C 3301.3377 82.733826 3300.4482 88.478849 3301.9375 92.34375 C 3303.2292 95.695532 3304.9802 94.858066 3307.0312 89.90625 C 3308.8954 85.406008 3312.2353 86.248466 3313.375 91.5 C 3313.8525 93.7 3314.3755 95.971157 3314.5312 96.5625 C 3314.6908 97.167741 3317.5983 97.637031 3321.4062 97.71875 L 3320 86.5 L 3320.1562 85.375 z M 3312.3125 26.25 C 3312.9648 26.459058 3314.3841 29.168667 3315.4688 32.28125 C 3317.4315 37.913763 3317.4315 37.953729 3315.4688 39.4375 C 3313.0498 41.266081 3311.7485 41.373529 3310.1875 39.8125 C 3307.9529 37.577866 3309.8522 25.461397 3312.3125 26.25 z M 3317.375 41.71875 C 3318.5809 42.924677 3317.9596 56.992835 3316.4062 63.6875 C 3314.6744 71.152013 3314.8387 74.37323 3317.4062 83.78125 C 3318.347 87.227959 3318.992 91.502959 3318.8125 93.28125 L 3318.4688 96.5 L 3316.1562 91.3125 C 3312.2788 82.688072 3308.1779 80.740561 3306 86.46875 C 3304.5328 90.328015 3303.6806 89.494095 3304.2188 84.71875 C 3304.4845 82.36073 3305.9157 78.530387 3307.375 76.21875 C 3309.828 72.332897 3309.9383 71.650582 3308.9375 67.25 C 3307.5581 61.184808 3306.9448 44.726738 3308.0312 42.96875 C 3308.7123 41.866937 3309.1123 41.863617 3310.4062 42.9375 C 3311.708 44.01786 3312.3945 43.953888 3314.375 42.65625 C 3315.6897 41.794817 3317.0369 41.380709 3317.375 41.71875 z "/>
</svg>
