<svg xmlns="http://www.w3.org/2000/svg"
     width="42.5" height="64.0"
     viewBox="7415.3920 17.1510 57.4205 86.5281">
  <path d="M 7464.3438 83.5 C 7463.6198 83.257189 7462.7586 82.88431 7461.625 82.34375 C 7458.2718 80.744713 7458.0437 80.772505 7453.6562 83.34375 C 7451.1741 84.798362 7448.6721 86 7448.0938 86 C 7446.5354 86 7443.5396 79.597178 7440.5938 69.9375 C 7437.626 60.205489 7437.1991 50.838351 7439.4688 45.40625 C 7440.718 42.41625 7441.3709 41.918147 7443.6875 42.1875 C 7447.5835 42.640478 7450.7724 47.833378 7451.5938 55.09375 C 7452.0605 59.218597 7452.6967 61 7453.6875 61 C 7455.2818 61 7458.9351 53.638182 7458.9688 50.375 C 7458.9808 49.207415 7459.9266 46.161647 7461.0625 43.59375 C 7462.1984 41.025854 7462.946 38.158269 7462.7188 37.21875 C 7462.4198 35.981912 7461.8588 36.465817 7460.7188 39 L 7459.1562 42.5 L 7458.0625 39.6875 C 7457.4698 38.139196 7457 34.201696 7457 30.9375 C 7457 27.647567 7456.5543 25 7456 25 C 7455.45 25 7455 26.094959 7455 27.4375 C 7455 28.780041 7454.5009 30.194959 7453.9062 30.5625 C 7452.4841 31.441509 7447 26.12685 7447 23.875 C 7447 22.910359 7446.55 21.839919 7446 21.5 C 7445.4353 21.150986 7445 21.964481 7445 23.375 C 7445 25.547309 7444.4463 25.948073 7440.75 26.5 C 7438.3915 26.852174 7435.2281 26.64242 7433.625 26.03125 C 7429.9624 24.634866 7429.3001 25.303696 7431.3125 28.375 C 7432.7909 30.631268 7432.7594 31.099848 7430.875 35 C 7429.1635 38.5425 7428.4833 39.141089 7426.4375 38.75 C 7423.6793 38.222751 7423.345 39.54699 7425.5312 42.4375 C 7428.4349 46.276567 7426.9636 51.347398 7422.2188 53.875 C 7419.392 55.380867 7420.1231 56.902897 7423.375 56.28125 C 7425.6189 55.852295 7425.8023 56.14462 7426.1562 60.59375 C 7426.4715 64.556733 7426.1323 65.889818 7424.0938 68.3125 L 7421.625 71.25 L 7424.6562 70.5625 C 7427.5789 69.920582 7427.7789 70.09388 7428.9688 74.34375 C 7429.9268 77.765674 7429.9411 79.268547 7429.0312 80.96875 C 7427.6486 83.552084 7428.3566 84.779523 7430.3125 83.15625 C 7431.3883 82.26343 7431.9375 82.56739 7432.875 84.625 C 7433.8448 86.753541 7433.7803 87.687448 7432.5312 89.59375 C 7430.303 92.994607 7430.6817 94.946046 7433 92 L 7434.9688 89.5 L 7438.25 93.15625 C 7440.0433 95.165329 7442.4 97.288304 7443.5 97.875 C 7446.8825 99.679099 7448.688 99.164787 7453.5 95 C 7456.0499 92.793124 7458.6664 91.261982 7459.3125 91.625 C 7459.9586 91.988018 7461.9367 93.362392 7463.6875 94.65625 C 7465.6708 96.121954 7467.3144 96.837487 7468.8125 96.90625 L 7467.7812 93.84375 C 7466.6539 93.58097 7465.3616 92.8614 7463.6875 91.59375 C 7458.4326 87.614625 7456.1649 87.785658 7451.875 92.5 C 7446.6132 98.282317 7442.4021 96.694784 7437.3125 87 C 7434.565 81.766472 7431.2661 72.507177 7430.1875 67.03125 C 7429.9131 65.638118 7429.6087 60.225 7429.5312 55 C 7429.4112 46.889201 7429.7753 44.549494 7432 39 C 7434.0206 33.95957 7435.3431 32.145218 7437.8438 30.875 C 7444.9249 27.278019 7454.0712 33.08951 7455.9688 42.40625 C 7456.9196 47.07517 7456.6593 52.109461 7455.375 54.1875 C 7454.4583 55.670775 7453 53.970488 7453 51.40625 C 7453 46.291813 7447.6826 39.08367 7443.875 39.03125 C 7442.9866 39.01902 7441.1663 39.872605 7439.8125 40.9375 C 7433.2912 46.067129 7434.2836 66.208428 7441.8438 81.84375 C 7445.0913 88.560134 7447.1163 90.046488 7450.25 88.0625 C 7456.825 83.899851 7457.9183 83.65148 7462.1562 85.5625 C 7463.402 86.124277 7464.4449 86.454329 7465.375 86.59375 L 7464.3438 83.5 z "/>
</svg>
