<svg xmlns="http://www.w3.org/2000/svg"
     width="43.6" height="64.0"
     viewBox="6437.0000 20.9433 58.2174 85.5119">
  <path d="M6448.2 100.8C6445.4572 98.057165 6447.3954 90.115794 6452.1789 84.497268C6454.455 81.823906 6455.0226 66.261244 6452.8933 64.912872C6449.3627 62.677243 6448.0 63.815452 6448.0 69.0C6448.0 72.479988 6447.5979 74.0 6446.6773 74.0C6444.7455 74.0 6441.0 65.868411 6441.0 61.674396C6441.0 57.355558 6443.4647 51.815387 6446.1253 50.153846C6447.7853 49.11713 6448.5534 49.441198 6451.7159 52.51254C6457.1189 57.759888 6458.4396 56.965407 6458.7935 48.254927C6459.1831 38.666615 6458.1557 36.791562 6452.9672 37.621238C6448.2378 38.377493 6446.0 36.915236 6446.0 33.068685C6446.0 27.201987 6450.5907 24.943307 6454.9904 28.645352C6458.3116 31.439991 6457.7465 31.564442 6464.6039 26.52806C6465.5524 25.831446 6466.8084 26.397998 6469.0377 28.52806L6472.1481 31.5L6474.1574 28.75C6476.777 25.164873 6480.6143 25.059315 6482.1951 28.528893C6483.1616 30.650066 6483.0213 31.496494 6481.3248 33.778893C6480.1141 35.407669 6478.1376 36.631246 6476.4011 36.826947C6474.8055 37.006768 6473.2019 37.456768 6472.8374 37.826947C6472.2275 38.446551 6471.5268 50.189266 6471.8575 54.25C6472.0528 56.648557 6473.3581 56.453153 6478.0993 53.315608C6481.9617 50.759562 6482.2821 50.707945 6484.8005 52.236023C6489.0687 54.825826 6491.2174 59.701558 6490.5959 65.387146C6490.0641 70.252472 6487.8207 74.0 6485.4399 74.0C6484.7523 74.0 6483.5846 72.128788 6482.8449 69.841752C6481.0667 64.343928 6478.7068 62.848743 6476.0309 65.524624C6474.2017 67.353901 6474.1226 68.066093 6475.0887 74.010743C6475.6687 77.579835 6476.2063 81.28089 6476.2833 82.23531C6476.3604 83.189731 6477.9031 85.84056 6479.7117 88.126041C6482.2754 91.365832 6483.0 93.229004 6483.0 96.581714C6483.0 98.946852 6482.5157 101.18128 6481.9238 101.5471C6481.3319 101.91293 6479.1417 100.84135 6477.0567 99.165815L6473.2658 96.119392L6469.1713 98.145229L6465.0767 100.17107L6461.0305 97.896978L6456.9843 95.62289L6453.6945 98.811445C6449.9827 102.40909 6449.8552 102.45523 6448.2 100.8Z M6447.0 66.166667C6447.0 63.508333 6447.2822 61.051176 6447.627 60.706317C6447.9719 60.361459 6449.8268 60.736459 6451.7491 61.539651C6456.0448 63.334474 6455.6699 63.370432 6456.2618 61.106821C6456.6243 59.720817 6455.5761 58.381338 6452.3492 56.106821C6449.925 54.39807 6447.556 53.0 6447.0847 53.0C6446.6135 53.0 6445.4462 54.64731 6444.4908 56.660689C6442.9842 59.835455 6442.9123 61.030123 6443.9485 65.660689C6445.4372 72.312814 6447.0 72.571946 6447.0 66.166667Z M6454.6681 33.422459C6455.4706 31.331356 6452.8018 28.755103 6450.6775 29.570245C6449.7542 29.924576 6449.0 31.289797 6449.0 32.606989C6449.0 34.500779 6449.5281 35.0 6451.5314 35.0C6452.9236 35.0 6454.3352 34.290106 6454.6681 33.422459Z M6453.9231 95.581839C6455.7082 93.681741 6456.0498 92.50343 6455.518 90.081839C6455.1457 88.386828 6454.5351 87.0 6454.1611 87.0C6453.0473 87.0 6450.7328 91.250657 6449.9453 94.742715C6449.0434 98.741374 6450.6387 99.077904 6453.9231 95.581839Z M6467.398 96.400776C6469.5981 95.556518 6472.6349 90.184448 6473.426 85.737158C6474.0319 82.331365 6473.4664 77.83194 6469.897 57.658755C6468.7148 50.97764 6468.8938 41.807443 6470.2866 37.690617C6471.0771 35.354048 6470.8512 34.470481 6468.9442 32.440617C6466.3379 29.666271 6464.4846 29.372532 6462.4464 31.410714C6461.6705 32.186607 6460.5412 32.986274 6459.9367 33.187752C6459.1943 33.435243 6459.393 34.941722 6460.5493 37.831711C6462.7073 43.225076 6462.1047 52.775261 6459.0243 62.0C6455.2067 73.432493 6456.9742 91.767237 6462.2502 95.462665C6464.6963 97.176006 6465.1583 97.260206 6467.398 96.400776Z M6487.7043 62.832255C6487.0912 58.261012 6484.5757 54.0 6482.4903 54.0C6480.4183 54.0 6473.0835 59.24702 6473.038 60.761818C6473.0106 61.669719 6474.086 61.849984 6476.8718 61.404517C6480.4284 60.83579 6480.9736 61.073795 6483.5708 64.328711C6486.9843 68.606799 6488.4096 68.090801 6487.7043 62.832255Z M6480.4654 93.718241C6480.1105 92.304164 6478.9763 90.38351 6477.9449 89.450121C6476.1623 87.836944 6476.0079 87.88855 6474.8208 90.494028C6473.6759 93.006743 6473.809 93.438973 6476.4192 95.6842C6479.6797 98.4887 6481.4472 97.6299 6480.4654 93.718241Z M6479.8196 31.239784C6480.0574 29.57236 6479.6376 29.0 6478.1765 29.0C6476.1212 29.0 6474.5672 31.490681 6475.59 33.145611C6476.6388 34.842645 6479.4887 33.558477 6479.8196 31.239784Z"/>
</svg>
