<svg xmlns="http://www.w3.org/2000/svg"
     width="26.4" height="64.0"
     viewBox="3893.0000 18.0546 36.0296 87.2810">
  <path d="M3904.137 99.383396C3900.9698 97.165027 3897.9989 89.79226 3898.0054 84.167095C3898.0084 81.600193 3898.9449 73.2 3900.0866 65.5C3902.3465 50.258298 3902.1088 44.544367 3898.995 39.267002C3897.8978 37.407275 3897.0 35.378377 3897.0 34.758341C3897.0 32.48165 3904.5236 22.054578 3906.0 22.285108C3906.825 22.413926 3909.0292 24.886879 3910.8982 27.780559C3914.003 32.587654 3914.4414 32.910514 3915.9769 31.520898C3918.2747 29.441431 3921.3392 29.61234 3923.4433 31.9373C3924.9476 33.599542 3925.0296 34.380432 3924.0207 37.4373C3923.0559 40.360548 3922.3563 41.0 3920.1224 41.0C3918.6251 41.0 3916.8675 40.4675 3916.2167 39.816667C3915.5658 39.165833 3914.6883 38.978042 3914.2667 39.399352C3912.9376 40.727297 3913.5352 58.055741 3915.3021 69.424069C3916.236 75.432307 3917.0 82.762734 3917.0 85.713907C3917.0 92.15637 3914.2722 98.099319 3910.5332 99.802939C3907.1694 101.33559 3906.8988 101.31785 3904.137 99.383396Z M3912.8112 94.0C3914.9439 90.863587 3915.1384 89.720884 3914.6832 83.0C3914.4038 78.875 3913.5733 71.45 3912.8376 66.5C3911.3797 56.690476 3911.0696 42.030245 3912.2326 37.895192C3912.799 35.881318 3912.2672 34.236564 3909.8884 30.645192C3908.1961 28.090336 3906.5164 26.009608 3906.1558 26.021351C3905.7951 26.033095 3904.2169 27.855924 3902.6487 30.072082L3899.7974 34.101462L3901.8987 38.986112C3904.4722 44.968313 3904.6916 55.558089 3902.5 68.0C3899.8899 82.817692 3900.6857 91.040035 3905.2875 96.798257C3906.9993 98.940296 3910.2821 97.71933 3912.8112 94.0Z M3922.0 35.34617C3922.0 33.233076 3919.0522 32.519247 3917.351 34.220399C3916.0258 35.545581 3916.0466 35.903711 3917.5345 37.39166C3918.8323 38.68949 3919.5273 38.807246 3920.6059 37.912073C3921.3727 37.275744 3922.0 36.121088 3922.0 35.34617Z"/>
</svg>
