<svg xmlns="http://www.w3.org/2000/svg"
     width="28.8" height="64.0"
     viewBox="2350.7812 16.0000 38.3745 85.1876">
  <path d="M 2357.8438 82.53125 L 2356.5625 87.5625 C 2357.0318 87.218438 2357.8601 87.131725 2359.3438 87.1875 C 2361.1823 87.25662 2363.245 86.95926 2363.9375 86.53125 C 2367.7842 84.153863 2369.0419 71.990653 2366.9375 57.5 C 2366.3784 53.65 2365.8694 46.397675 2365.8125 41.375 C 2365.723 33.484035 2366.043 31.649215 2368.125 27.875 C 2370.2444 24.032915 2370.9466 23.5 2373.9688 23.5 C 2377.1696 23.5 2377.462 23.773605 2378.25 27.5 C 2378.8342 30.262915 2378.5892 33.974169 2377.4688 39.5 C 2375.4654 49.380349 2374.507 64.138705 2375.4375 70.34375 C 2375.835 72.994401 2377.1732 76.224007 2378.5625 77.875 C 2381.9996 81.959799 2381.7177 83.217027 2377.5625 82.4375 C 2374.3491 81.834664 2374.0276 82.050788 2372.1875 85.65625 C 2371.1073 87.772699 2369.3034 90.33464 2368.1875 91.34375 C 2365.6002 93.68365 2358.9413 94.609471 2357.25 92.875 C 2356.5951 92.203382 2356.0811 90.749265 2356.0312 89.53125 L 2354.7812 94.4375 C 2355.4191 94.573695 2356.097 94.797331 2357.3438 95.46875 C 2360.5095 97.173555 2360.9199 97.187568 2365.8125 95.5625 C 2369.9624 94.184119 2371.3762 93.104787 2373.1562 89.9375 C 2375.024 86.614356 2375.8803 86 2378.6562 86 C 2383.7656 86 2385.1557 81.645618 2381.5312 77 C 2380.8875 76.175 2379.7641 73.609603 2379.0312 71.28125 C 2377.3468 65.928716 2378.2523 45.857546 2380.5312 38.1875 C 2383.1254 29.456247 2380.47 20 2375.4375 20 C 2371.8489 20 2368.1451 23.031302 2366.625 27.21875 C 2363.2849 36.419778 2363.1138 38.704333 2364.5625 52.28125 C 2366.9937 75.064002 2365.9705 85 2361.1875 85 C 2359.5531 85 2358.5386 84.363291 2357.8438 82.53125 z "/>
</svg>
