<svg xmlns="http://www.w3.org/2000/svg"
     width="34.0" height="64.0"
     viewBox="4761.5553 17.6741 48.0385 90.3259">
  <path d="M 4766.3438 85.34375 L 4766.5 86 L 4767.4062 88.21875 C 4767.7889 88.300357 4767.9451 88.761036 4767.9688 89.59375 L 4771 97 L 4771 97.8125 C 4771.1365 97.916772 4771.2783 97.990166 4771.4062 98.15625 C 4773.5766 100.97235 4778.3121 104 4780.5312 104 C 4781.8175 104 4783.8969 102.73904 4785.2812 101.09375 C 4788.5145 97.251304 4796 83.540805 4796 81.46875 C 4796 80.572164 4794.3813 82.870588 4792.4062 86.59375 C 4785.4875 99.635186 4781.7146 103.15808 4777.5625 100.4375 C 4769.9815 95.470261 4766.4176 72.598335 4768.5312 42.5 C 4768.8788 37.55 4769.1459 32.2625 4769.125 30.75 C 4769.0871 28.004348 4770.3179 27.087331 4771.5 29 C 4771.8437 29.556156 4772.3727 36.193656 4772.6562 43.75 C 4773.6191 69.404969 4775.7558 84.707244 4779 89 C 4781.3241 92.075232 4782.0415 91.40083 4784.9375 83.5 C 4786.147 80.2 4787.7451 76.15 4788.4688 74.5 C 4789.7913 71.484355 4790.924 67.178797 4793.0625 57 C 4793.6981 53.975 4794.6025 50.705037 4795.0938 49.75 C 4795.5851 48.794963 4796 47.375742 4796 46.5625 C 4796 45.749258 4796.643 43.137971 4797.4375 40.78125 C 4798.232 38.424529 4799.1103 35.269716 4799.375 33.78125 C 4799.6397 32.292784 4800.3322 30.267784 4800.9062 29.28125 C 4801.8835 27.602038 4801.9433 27.627653 4802.0312 29.5 C 4802.0829 30.6 4802.3567 34.694286 4802.625 38.59375 C 4803.0637 44.973591 4801.9832 57.399874 4800.4375 64 C 4799.9378 66.133446 4800.042 66.249694 4801 64.75 C 4801.6174 63.783451 4802.5995 58.87407 4803.2188 53.84375 C 4803.8884 48.404528 4804.5341 45.539228 4805.5938 43.59375 L 4805.5 43 L 4805.0938 37.96875 C 4804.5744 37.719534 4804.3232 37.314573 4804.1875 36.625 C 4804.0023 35.683706 4804.2629 34.979338 4804.8125 34.40625 L 4804.5 30.5 L 4804.5 30.34375 C 4804.1734 30.054979 4804 29.689062 4804 29.09375 C 4804 23.832296 4800.4708 22.016674 4799.4375 26.75 C 4799.1073 28.2625 4798.4465 30.625 4797.9688 32 C 4797.4909 33.375 4795.7086 39.9 4794 46.5 C 4789.9502 62.144013 4781.9977 86 4780.8438 86 C 4778.3265 86 4776.4951 72.51456 4775.4375 46.5 C 4774.8687 32.506499 4773.6354 25.766315 4771.2812 23.8125 C 4768.7046 21.674114 4767.2572 25.377898 4766.4375 36.3125 C 4765.5553 48.081746 4765.579 78.792298 4766.4688 82.84375 C 4766.7132 83.95649 4766.7166 84.686226 4766.3438 85.34375 z M 4798.1875 71.96875 C 4797.757 72.543106 4797.1018 74.207302 4796.5625 76.5 C 4796.1069 78.436837 4796.1892 79.145612 4796.8125 78.5 C 4797.3435 77.95 4798.0807 75.925 4798.4375 74 C 4798.825 71.909879 4798.618 71.394394 4798.1875 71.96875 z "/>
</svg>
