<svg xmlns="http://www.w3.org/2000/svg"
     width="25.5" height="64.0"
     viewBox="6818.0000 24.3443 31.9609 80.3031">
  <path d="M6832.447 99.081309C6830.8262 98.07121 6827.9588 95.62458 6826.0751 93.644354C6822.9548 90.364114 6822.7845 89.886368 6824.1602 88.271971C6824.9907 87.297387 6826.6711 84.828613 6827.8945 82.785807L6830.1189 79.071614L6826.0594 73.694938C6823.8267 70.737767 6822.0 67.989791 6822.0 67.588326C6822.0 67.18686 6824.0639 63.966059 6826.5865 60.43099L6831.173 54.003591L6827.0865 48.871167C6824.8389 46.048334 6823.0 43.404205 6823.0 42.995325C6823.0 41.793695 6827.7574 33.734275 6830.2257 30.754387C6831.4766 29.2443 6832.9563 28.3443 6833.5139 28.754387C6836.4584 30.919695 6843.0 39.549803 6843.0 41.269063C6843.0 42.362179 6841.6259 45.658297 6839.9464 48.59377C6836.5429 54.542313 6836.6975 55.47241 6841.9139 60.437091C6845.9609 64.288656 6845.8538 67.31252 6841.5 72.13168C6839.575 74.262425 6838.0 76.81619 6838.0 77.806714C6838.0 78.797238 6839.575 81.134217 6841.5 83.0C6843.425 84.865783 6845.0 86.819981 6845.0 87.342661C6845.0 88.562538 6838.5532 98.295991 6836.759 99.785075C6835.7199 100.64741 6834.6905 100.4794 6832.447 99.081309Z M6832.6402 67.561925C6832.5396 63.470984 6832.1524 59.819061 6831.7799 59.446541C6830.9953 58.661994 6826.3334 63.672343 6825.4637 66.234727C6824.7928 68.211397 6829.4913 75.0 6831.5303 75.0C6832.4881 75.0 6832.7758 73.071863 6832.6402 67.561925Z M6832.0 41.5C6832.0 37.270394 6831.5728 34.0 6831.0203 34.0C6829.9446 34.0 6826.0 41.185999 6826.0 43.145711C6826.0 44.549107 6829.9339 49.0 6831.1743 49.0C6831.6284 49.0 6832.0 45.625 6832.0 41.5Z M6834.0 88.5C6834.0 84.230186 6833.5747 81.0 6833.0125 81.0C6832.0423 81.0 6827.0 88.275439 6827.0 89.675409C6827.0 90.681814 6832.2026 96.0 6833.1871 96.0C6833.6342 96.0 6834.0 92.625 6834.0 88.5Z M6838.4639 47.267865C6841.5369 42.745675 6841.5921 41.64027 6838.9319 37.90437C6835.2509 32.734871 6834.0 34.027294 6834.0 43.0C6834.0 47.467204 6834.4257 51.0 6834.9639 51.0C6835.4941 51.0 6837.0691 49.320539 6838.4639 47.267865Z M6839.9848 70.75C6841.6109 68.9625 6842.9507 66.825 6842.962 66.0C6842.9945 63.635769 6835.8232 56.520163 6835.0526 58.152021C6834.1045 60.15964 6835.0159 74.0 6836.0962 74.0C6836.6088 74.0 6838.3587 72.5375 6839.9848 70.75Z M6840.5034 90.815565L6843.2725 86.631131L6840.5639 84.301278C6839.0741 83.019859 6837.4378 82.229412 6836.9276 82.54473C6835.7543 83.269864 6835.6973 95.0 6836.8671 95.0C6837.344 95.0 6838.9803 93.117004 6840.5034 90.815565Z"/>
</svg>
