<svg xmlns="http://www.w3.org/2000/svg"
     width="31.3" height="64.0"
     viewBox="6355.8750 21.4448 40.8781 83.5552">
  <path d="M 6359.875 84.125 L 6360.125 87.25 C 6361.5707 87.36616 6363.5916 88.321614 6366.1875 90.1875 C 6368.7438 92.02492 6372.0564 89.792389 6375.3125 84 L 6378.0625 79.0625 L 6377.7812 59.28125 C 6377.5048 40.33912 6377.6075 39.319241 6379.7812 35.25 C 6381.0299 32.9125 6382.5405 31 6383.1562 31 C 6387.1963 31 6387.9792 40.021814 6385.375 56.375 C 6383.3646 68.999478 6383.9393 75.462445 6387.5625 80.9375 C 6389.6098 84.031129 6390.0355 85.370771 6389.1875 86.21875 C 6388.3396 87.066729 6387.5702 86.938862 6386.1875 85.6875 C 6383.1592 82.946931 6381.6178 83.691711 6377.125 90.0625 C 6374.7766 93.392597 6371.7549 96.604293 6370.4062 97.21875 C 6368.2353 98.207909 6367.5342 97.967251 6364.4062 94.9375 L 6360.875 91.5 L 6360.5 91.71875 L 6360.7812 95.4375 C 6361.7424 95.606542 6362.7281 96.29176 6364.5312 97.875 C 6366.4829 99.588601 6368.3165 101 6368.625 101 C 6370.5924 101 6375.1858 97.023575 6378.5312 92.40625 C 6382.7537 86.578476 6383.4659 86.209693 6386.0312 88.53125 C 6387.977 90.292042 6390.6111 89.5909 6392.0312 86.9375 C 6392.7531 85.588481 6392.5083 84.16778 6391.0625 81.59375 C 6387.6266 75.476445 6386.1732 68.04767 6387.1562 61.4375 C 6389.0202 48.903792 6389.8128 37.850459 6389.0312 35.125 C 6386.2551 25.444846 6381.7616 25.593402 6377.3125 35.53125 C 6375.8063 38.895492 6375.5117 42.523463 6375.5 59.5 C 6375.486 79.970693 6375.2323 81.648724 6371.2188 86.25 C 6369.2332 88.526194 6367.409 88.460291 6364.2812 86 C 6362.6178 84.691534 6361.2667 84.058104 6359.875 84.125 z "/>
</svg>
