<svg xmlns="http://www.w3.org/2000/svg"
     width="64.0" height="53.0"
     viewBox="1767.1804 17.2847 107.5028 89.0299">
  <path d="M 1859.7188,21.8125 C 1859.3894,22.340268 1859.4531,24.004216 1860.125,26.4375 1861.5523,31.606708 1860.2894,37.80596 1857.2812,40.59375 1855.919,41.856294 1855.1247,43.392769 1855.5,44 1856.64,45.844521 1858.3087,44.588601 1860.7188,40.03125 1863.3319,35.089566 1863.6687,28.860743 1861.625,24 1860.7432,21.902999 1860.0481,21.284732 1859.7188,21.8125 z M 1826.5312,22.0625 C 1824.467,22.437307 1822.0412,24.056788 1818.9062,27 1813.3933,32.175868 1811.3268,33.042837 1810.375,30.5625 1810.0695,29.766337 1808.2657,27.910812 1806.375,26.46875 1803.2928,24.117782 1802.5969,23.967306 1799.5625,24.96875 1797.1874,25.752584 1795.6571,27.180008 1794.4375,29.75 1790.681,37.666355 1793.2071,43.072867 1802.8125,47.65625 1803.4249,47.948467 1800.9826,59.423656 1800.125,60.28125 1799.6382,60.768019 1795.8097,59.992421 1791.375,58.5 L 1783.5,55.84375 1779.9062,59.875 C 1774.1951,66.289151 1771.1804,78.429764 1771.7812,92.59375 1771.967,96.974189 1772.3702,97.844913 1774.5625,98.84375 1778.3924,100.5888 1778.498,100.44876 1778.5625,94.25 1778.688,82.191033 1782.6326,69.384743 1786.5312,68.40625 1790.4847,67.414017 1794.2831,70.079758 1797.25,75.9375 1799.9774,81.322204 1799.9798,81.389421 1798.0625,83.4375 1794.6006,87.135485 1792.2225,94.115374 1793.1875,97.75 1794.3994,102.31463 1796.3444,101.80825 1799.9375,95.96875 1801.6419,93.198706 1803.7243,90.665411 1804.5625,90.34375 1806.4638,89.614176 1809.6828,92.448743 1811.9375,96.84375 1812.951,98.819173 1814.5507,99.969604 1817.0938,101.15625 L 1819.7188,90.5625 C 1819.0498,89.921883 1818.4827,89.239405 1818.125,88.46875 1817.3663,86.834376 1815.8479,84.521412 1814.75,83.3125 L 1812.75,81.09375 1815.375,76.59375 C 1818.0876,71.964989 1821.3905,69 1823.8125,69 1824.5678,69 1826.3965,69.853483 1827.875,70.90625 1829.3535,71.959016 1832.1861,73.130401 1834.1562,73.5 1837.388,74.106295 1838.2233,73.755921 1842.6875,69.84375 1847.3064,65.796087 1852.2437,59.470258 1854.9062,54.25 1855.5346,53.018193 1857.285,51.357194 1858.7812,50.5625 1863.8103,47.891361 1866.9223,44.034757 1868.5312,38.5 1870.6462,31.225084 1870.6832,25.243653 1868.5938,23.15625 1867.0518,21.615852 1866.966,21.901271 1867.5938,27.25 1868.104,31.595947 1867.8417,34.154827 1866.5,37.75 1864.3949,43.390444 1862.7162,45.485513 1857.875,48.5625 1855.7405,49.919114 1852.9391,53.220388 1851,56.65625 1847.6799,62.539255 1840.0514,70.487138 1836.6562,71.59375 1835.5511,71.953985 1832.2146,70.886413 1828.375,68.9375 L 1821.9375,65.6875 1819.2188,68.3125 C 1817.7112,69.756813 1814.9209,73.475661 1813.0312,76.59375 L 1809.5938,82.25 1812.3125,84.4375 C 1815.2718,86.797111 1817.3949,92.474281 1816.1562,94.6875 1815.571,95.733452 1814.5937,95.064244 1812.1562,92.03125 1807.7848,86.591488 1805.1969,86.694191 1800.3438,92.5 1796.1215,97.551122 1794.9946,98.022482 1795,94.75 1795.0049,91.843964 1798.3044,86.440449 1800.9375,85.03125 1803.8678,83.463005 1803.5224,79.687392 1799.875,73.3125 1796.6593,67.692032 1794.1224,66 1788.875,66 1782.8162,66 1779.4613,72.522271 1776.9062,89.21875 1776.2561,93.467119 1775.3981,96.746055 1775,96.5 1773.1486,95.35575 1773.247,82.327472 1775.1562,74.65625 1777.1681,66.573062 1781.0724,59 1783.25,59 1783.9288,59 1787.9977,60.167228 1792.2812,61.59375 1796.5647,63.020272 1800.6582,63.962569 1801.375,63.6875 1802.101,63.408912 1803.1965,60.075652 1803.8438,56.15625 1805.5671,45.721173 1805.4706,45.056611 1802.0625,44.375 1798.2672,43.615939 1796.04,41.108074 1795.4062,36.875 1794.8046,32.855168 1797.9942,27 1800.7812,27 1801.7748,27 1804.571,29.025 1807,31.5 1809.429,33.975 1811.8957,36.006941 1812.4688,36 1813.0417,35.99306 1815.6037,33.571384 1818.1875,30.625 1820.7712,27.678615 1823.8617,25.024608 1825.0312,24.71875 1827.4619,24.083095 1830.9453,26.990321 1831.0625,29.75 1831.1034,30.7125 1831.3206,32.394324 1831.5312,33.5 1831.7417,34.605675 1831.4975,36.163838 1831,36.96875 1830.2409,38.197067 1829.7073,38.08122 1827.625,36.125 1824.7625,33.435847 1823.5803,33.923769 1818.3125,40 1813.181,45.919142 1811,51.268738 1811,57.96875 1811,65.111301 1811.716,65.410939 1819.0625,61.28125 L 1823.9375,58.53125 1827.2188,61.65625 C 1829.0267,63.373236 1831.4489,65.06293 1832.5938,65.40625 1835.624,66.315005 1840.6881,62.504284 1846.25,55.15625 1851.6736,47.991017 1852.3527,44.381046 1848.4688,43.40625 1846.2882,42.858981 1844,40.373462 1844,38.5625 1844,37.364915 1846.1999,38.092266 1849.125,40.25 L 1852.1875,42.5 1854.5938,39.5 C 1857.4128,35.982405 1857.8863,27.758067 1855.4688,24.5625 1853.4001,21.828085 1852.966,22.86909 1854.2188,27.5625 1855.281,31.542025 1854.9167,35.152349 1853.125,37.90625 1852.3773,39.055513 1851.6713,38.924853 1849.1875,37.15625 1845.4569,34.499805 1844.3594,34.459921 1843,37 1841.7518,39.332314 1843.0371,42.568252 1846.25,45.125 1849.1266,47.414057 1848.0841,50.388804 1841.9688,57.25 1835.6947,64.289309 1832.9181,64.763099 1828.7188,59.5 1825.3952,55.334597 1824.2505,55.212597 1819.4062,58.5 1814.9895,61.49722 1814.3098,61.577755 1813.5312,59.125 1812.1123,54.65413 1815.9377,45.735035 1822.125,39.09375 L 1824.2188,36.84375 1826.4062,38.9375 C 1831.0138,43.266054 1834,40.909013 1834,32.9375 1834,28.720425 1833.4803,26.586362 1831.9375,24.625 1830.3035,22.547701 1828.5955,21.687693 1826.5312,22.0625 z"/>
</svg>
