<svg xmlns="http://www.w3.org/2000/svg"
     width="46.6" height="64.0"
     viewBox="337.8744 18.6777 62.8317 86.3171">
  <path d="M 379.54545,39.545455 C 380.89545,38.195455 382,36.006141 382,34.680313 382,31.692391 378.76085,27.432229 375.92521,26.690693 374.13426,26.222349 373.89372,26.476855 374.38743,28.317753 374.70932,29.517989 374.97884,33.0875 374.98635,36.25 375.0015,42.630416 375.84836,43.242551 379.54545,39.545455 z M 366.29257,34.769889 C 366.61585,31.307893 367.18042,27.693397 367.54717,26.737676 368.70141,23.729784 364.44093,24.687274 361.58889,28.076725 358.07922,32.247741 358.09105,37.139862 361.61754,39.913795 363.05718,41.04622 364.56576,41.768377 364.96992,41.518588 365.37409,41.268799 365.96928,38.231884 366.29257,34.769889 z M 378.67169,95.378318 C 381.09172,91.684873 380.65055,87.567574 376.97424,79.536671 373.19622,71.283578 373.38104,65.943665 377.65834,59.771519 381.37377,54.410147 384.56632,53.831011 388.17034,57.864615 389.78721,59.674205 391,62.18201 391,63.715777 391,65.704902 391.29148,66.108525 392.12557,65.274426 392.81869,64.581306 393.08271,61.820272 392.81276,58.088122 392.34687,51.647371 389.46371,47 385.93384,47 384.9892,47 381.91904,49.065445 379.11126,51.589878 375.65539,54.697 373.85746,55.746909 373.54574,54.839878 373.29248,54.102945 372.95359,48.008752 372.79264,41.297227 372.51514,29.725872 371.3932,25.273463 369.2859,27.380766 368.87481,27.791854 368.36625,34.399354 368.15575,42.064099 367.94526,49.728845 367.35529,56 366.8447,56 366.33412,56 364.92269,55.050703 363.70819,53.89045 361.12579,51.423405 353.68333,48 350.9024,48 348.64902,48 345.28385,53.028929 344.3969,57.721819 344.062,59.493819 344.22198,62.643819 344.75241,64.721819 345.55809,67.878095 345.83446,68.170791 346.43142,66.5 349.79189,57.094609 353.7768,53.882916 359.35269,56.08591 363.96269,57.907287 365.73258,59.732899 367.58122,64.573513 369.22526,68.87836 369.21723,68.938628 366.11716,75.563323 360.25822,88.083594 363.37798,97.919003 373.22695,97.977764 376.15862,97.995255 377.32044,97.440574 378.67169,95.378318 z M 368.0154,99.605957 C 362.67977,97.832864 360.6182,94.131796 360.57692,86.251873 360.54764,80.664357 361.02106,78.65886 363.3222,74.622398 367.29883,67.646918 365.7602,62.963893 358.21223,59.069564 353.20149,56.484304 349,61.492784 349,70.051215 349,78.296046 343.07158,71.429442 342.39684,62.4031 341.87438,55.413821 344.76034,48.478482 349.21153,46.026484 351.75484,44.625471 352.3299,44.733419 358.48047,47.7664 362.08704,49.54488 365.25435,51 365.51893,51 365.78352,51 366,49.656039 366,48.01342 366,45.558794 365.39093,44.772356 362.58049,43.598078 355.63986,40.698098 354.86992,33.206109 360.85332,26.791596 364.32317,23.071728 365.14336,22.67775 369.09521,22.832599 375.53786,23.085047 379.69785,24.766935 382.05001,28.070227 385.9536,33.552321 384.60898,39.22444 378.51265,42.992182 375.7941,44.672339 375,45.822886 375,48.081559 375,49.686702 375.17978,51 375.39951,51 375.61924,51 378.15559,49.414147 381.03584,47.475882 384.65186,45.042477 386.92684,44.140651 388.38633,44.562064 391.1517,45.360536 394.55601,49.470746 395.69213,53.382742 396.70612,56.874215 395.5163,66.672965 393.83193,68.702518 392.67962,70.09096 389.04565,70.496919 388.9311,69.25 387.92876,58.339158 384.25874,55.060146 379.78394,61.077394 375.822,66.405012 375.77864,70.57846 379.58958,79.784706 383.3084,88.768444 383.44113,92.999765 380.1322,97.084044 377.93105,99.80097 372.1949,100.99486 368.0154,99.605957 z"/>
</svg>
