<svg xmlns="http://www.w3.org/2000/svg"
     width="48.1" height="64.0"
     viewBox="5775.5000 57.0000 34.3207 45.6278">
  <path d="M 5782.5 83.59375 L 5782.0312 89.1875 C 5782.6776 88.992388 5783.6502 89.287761 5785.1562 90.09375 C 5786.2714 90.690517 5788.2963 90.903842 5789.6562 90.5625 C 5793.3956 89.623988 5795.1235 84.389798 5794.7812 75.09375 C 5794.4904 67.195682 5795.5905 64 5798.5625 64 C 5800.8982 64 5801.2194 67.98128 5799.4688 75.125 C 5797.4602 83.321015 5797.9415 88.839 5801 92.71875 C 5802.9367 95.175468 5803.0045 95.545855 5801.5312 95.84375 C 5800.6129 96.029459 5798.9774 95.375589 5797.9062 94.40625 C 5796.0717 92.745941 5795.746 92.734765 5792.4375 94.3125 C 5786.2991 97.239682 5781.3916 96.314838 5781.0625 92.3125 L 5779.5 97 L 5779.6562 98 C 5779.6766 98.000572 5779.7303 97.999281 5779.75 98 C 5783.7141 98.144976 5790.3827 98.145891 5794.5 98 C 5796.7 97.922046 5799.8338 98.010852 5801.4688 98.1875 C 5805.544 98.627819 5805.8207 96.307443 5802.4688 89.6875 L 5799.7812 84.40625 L 5801.4062 78.125 C 5804.2332 67.090403 5803.1605 61 5798.4375 61 C 5796.7208 61 5795.335 61.99984 5793.9375 64.25 C 5792.1911 67.062124 5792.0315 68.561246 5792.5625 75.3125 C 5793.2335 83.843161 5791.7611 88 5788.0938 88 C 5785.5978 88 5783.8653 86.541426 5782.5 83.59375 z "/>
</svg>
