<svg xmlns="http://www.w3.org/2000/svg"
     width="24.5" height="64.0"
     viewBox="6110.0000 17.6607 32.0000 83.4643">
  <path d="M 6138,87.3125 C 6136.7156,86.540157 6134.8189,84.849786 6132.7812,82.4375 6131.1502,80.50672 6131.1177,79.850671 6132.6562,71.4375 6135.0026,58.607055 6135.0391,36.917975 6132.7188,30.90625 6130.6542,25.557141 6126.9482,21.660691 6124.375,22.15625 6121.6305,22.68479 6117.1678,30.786605 6115.9062,37.5 6114.6048,44.426481 6115.1851,56.920723 6117.5312,71.6875 L 6119.1562,81.875 6116.5938,85.65625 C 6115.1748,87.74446 6114,90.246423 6114,91.21875 6114,94.274708 6115.5834,93.176879 6118.9375,87.78125 6121.7131,83.316364 6122.0963,81.983763 6121.5312,78.53125 6121.1681,76.312761 6120.6336,71.8 6120.3438,68.5 6120.0538,65.2 6119.2241,60.762905 6118.5,58.65625 6116.5798,53.070255 6118.3271,34.943049 6121.3125,29.5625 6123.8142,25.053587 6124.889,24.477898 6127.3125,26.25 6131.7544,29.498027 6133.6073,54.214333 6130.4375,68 6127.3269,81.528176 6127.2747,81.079978 6132.375,85.78125 6134.4959,87.736257 6136.6689,89.119464 6138,89.59375 L 6138,87.3125 z M 6138,94 C 6137.3038,93.57306 6136.7536,93.415292 6135.9688,92.6875 6129.5211,86.708911 6127.0413,86.241932 6122.5312,90.15625 6121.4074,91.131659 6119.6,92.596142 6118.5,93.40625 6116.9544,94.544515 6116.7715,95.133136 6117.6875,96.0625 6118.6082,96.996675 6119.7688,96.560464 6122.8438,94.125 6125.021,92.400593 6127.4105,90.994662 6128.1562,91 6128.9022,91.005338 6131.4914,92.580338 6133.9062,94.5 6135.532,95.792367 6136.8028,96.586672 6138,97.125 L 6138,94 z"/>
</svg>
