<svg xmlns="http://www.w3.org/2000/svg"
     width="57.8" height="64.0"
     viewBox="5152.8659 23.5000 74.4753 82.4413">
  <path d="M5181.6667 100.33333C5181.3 99.966667 5181.0 94.246083 5181.0 87.620925L5181.0 75.575184L5175.9477 80.537592C5170.9948 85.40233 5170.9077 85.59089 5171.5233 90.117898C5172.0938 94.312631 5171.903 94.931174 5169.4408 96.867898C5165.8745 99.673152 5163.8158 99.557367 5159.9877 96.33623C5157.0246 93.842915 5156.8659 93.379831 5157.5078 89.099405C5158.4599 82.750062 5160.1016 79.993036 5166.1896 74.519438L5171.4623 69.778794L5166.7312 65.785331C5161.5853 61.441811 5161.0733 59.690585 5163.9436 56.25C5166.1223 53.638376 5168.2376 53.376424 5170.0 55.5C5172.1768 58.12283 5174.0 57.277146 5174.0 53.64466C5174.0 50.734015 5173.5797 50.168766 5170.8283 49.379703C5169.0839 48.879413 5167.4475 47.842608 5167.1919 47.075693C5166.8509 46.052776 5167.2297 45.887181 5168.6136 46.454104C5173.4764 48.446228 5173.7695 48.323751 5174.5011 43.993783C5174.9476 41.350385 5174.8014 39.401393 5174.1041 38.7041C5173.4968 38.096845 5173.0 37.24 5173.0 36.8C5173.0 35.532199 5175.7904 35.871285 5176.2309 37.192606C5176.4869 37.960742 5177.937 37.387067 5180.3052 35.580791C5183.329 33.274435 5183.8869 32.307828 5183.4468 30.138185L5182.9117 27.5L5184.5778 29.75C5186.7014 32.617736 5193.5741 32.929279 5195.608 30.25C5196.8299 28.640331 5196.9389 28.693319 5196.9682 30.910801C5196.987 32.335926 5198.3149 34.495553 5200.2161 36.192894C5203.4187 39.052254 5203.4355 39.055139 5204.2375 36.88691C5205.4422 33.630306 5206.3913 35.438636 5205.2284 38.774737C5204.5498 40.72138 5204.5601 42.273739 5205.2602 43.575784C5206.7704 46.384175 5206.8108 46.401923 5208.5 45.0C5211.026 42.903638 5211.3439 44.615852 5209.0139 47.767392C5207.3031 50.081333 5206.9947 51.454975 5207.5371 54.346002C5207.9141 56.355701 5208.4675 58.0 5208.7669 58.0C5209.0663 58.0 5210.7862 56.875 5212.5889 55.5C5214.3916 54.125 5216.2496 53.0 5216.7177 53.0C5217.5563 53.0 5220.8548 57.914459 5222.1785 61.13628C5222.6719 62.33726 5221.5237 63.839382 5217.9686 66.643827C5215.28 68.764722 5213.0622 71.013968 5213.0401 71.642151C5213.018 72.270334 5215.025 76.385197 5217.5 80.786291C5222.8232 90.252181 5223.3412 94.749661 5219.5455 98.545455C5216.8125 101.27843 5215.2671 101.53443 5211.5968 99.862164C5208.7664 98.572527 5206.7446 93.865888 5207.5841 90.520855C5207.992 88.895783 5206.9804 86.719071 5203.9083 82.611097C5201.5771 79.493873 5199.1816 77.108986 5198.5849 77.31135C5197.8937 77.54577 5197.64 80.186867 5197.8858 84.589641C5198.5526 96.530507 5198.5244 97.4933 5197.5 97.774574C5196.2854 98.108065 5194.4845 78.190199 5195.3995 74.544279C5196.3132 70.903864 5198.0079 71.436763 5202.0 76.619859C5203.925 79.11914 5206.7432 82.589604 5208.2626 84.332003C5210.548 86.952781 5210.9254 88.124207 5210.4477 91.113701C5209.5065 97.003982 5213.8483 100.03504 5217.4795 96.022623C5220.454 92.73585 5218.0661 85.67319 5209.6476 72.858644C5207.9232 70.233798 5207.933 70.204498 5211.2232 68.171051C5213.0442 67.04562 5215.6017 64.988465 5216.9064 63.599595C5219.1887 61.17021 5219.2146 60.976448 5217.588 58.493888L5215.8972 55.913399L5211.9663 59.02668C5209.8044 60.738984 5207.6301 61.889416 5207.1346 61.583195C5206.6391 61.276975 5205.9198 58.513327 5205.536 55.441755C5204.598 47.933962 5202.5391 43.244233 5198.208 38.75C5194.9452 35.364272 5194.0909 35.0 5189.4134 35.0C5184.6376 35.0 5183.9501 35.31284 5180.6164 39.002881C5178.5 41.345404 5176.9409 44.145241 5176.8576 45.752881C5176.7793 47.263796 5176.5703 50.075 5176.3933 52.0C5176.2163 53.925 5176.5113 56.821594 5177.0488 58.436875C5178.5851 63.053067 5176.7073 63.72864 5172.3419 60.130276C5168.0147 56.563431 5166.5057 56.257845 5165.5261 58.75C5165.017 60.04507 5166.1666 61.697206 5169.948 65.105344L5175.0579 69.710688L5169.1483 75.105344C5162.5032 81.171372 5160.0 85.323948 5160.0 90.28136C5160.0 94.502374 5163.4468 96.901616 5166.875 95.066898C5169.3117 93.762842 5169.4385 93.056593 5167.859 89.589916C5166.8085 87.28419 5167.2129 86.52756 5172.962 80.042863C5176.5565 75.988427 5180.0109 73.0 5181.103 73.0C5182.8494 73.0 5183.0 73.863459 5183.0 83.875C5183.0 89.85625 5183.2812 96.15625 5183.625 97.875C5184.2048 100.77381 5183.2747 101.94135 5181.6667 100.33333Z M5181.3133 59.15748C5179.1365 57.733889 5178.945 53.028037 5180.9074 49.181431C5183.5167 44.066957 5185.5697 42.398034 5187.3919 43.910314C5189.87 45.96695 5189.8608 48.886703 5187.3603 53.904597C5184.8899 58.862032 5183.1597 60.364997 5181.3133 59.15748Z M5184.8716 54.654692C5186.5026 52.689428 5187.4764 47.0 5186.1817 47.0C5184.574 47.0 5182.0 51.138039 5182.0 53.722506C5182.0 56.280706 5183.1991 56.669957 5184.8716 54.654692Z M5189.0676 87.314283C5188.9764 79.492107 5189.265 75.864982 5189.9259 76.525925C5191.3991 77.999138 5191.7877 98.197412 5190.3525 98.698062C5189.5363 98.982783 5189.1653 95.696175 5189.0676 87.314283Z M5189.6604 63.557299C5188.5362 60.627759 5193.9413 48.0 5196.3194 48.0C5198.0801 48.0 5200.2838 54.506254 5199.4538 57.253917C5198.5203 60.344306 5193.9921 65.0 5191.9199 65.0C5190.9816 65.0 5189.9649 64.350785 5189.6604 63.557299Z M5197.2863 55.54516C5197.4038 53.990457 5196.9938 52.538065 5196.3752 52.317621C5195.0304 51.838394 5191.6863 59.683378 5192.6031 61.166784C5193.6254 62.820977 5197.0467 58.714174 5197.2863 55.54516Z"/>
</svg>
