<svg xmlns="http://www.w3.org/2000/svg"
     width="40.4" height="64.0"
     viewBox="5071.4652 17.5388 56.5224 89.4433">
  <path d="M 5116.9688,85.15625 C 5116.8926,85.138394 5116.714,85 5116.6562,85 5115.9484,85 5113.598,86.334051 5111.4375,87.96875 5107.4532,90.983467 5103,91.980788 5103,89.84375 5103,89.199557 5102.3614,87.962057 5101.5938,87.09375 5100.826,86.225442 5099.5267,83.44214 5098.6875,80.9375 5096.8101,75.334144 5094.5041,49.475386 5095.4375,44.5 5096.0401,41.288038 5096.4334,40.91281 5098.7812,41.1875 5100.6986,41.411828 5102.2076,42.781809 5104.25,46.09375 5106.8749,50.350267 5107.1004,51.478796 5107.2188,61.59375 5107.2889,67.59383 5107.1702,73.625 5106.9375,75 5106.6052,76.96396 5106.9207,77.5 5108.4688,77.5 5109.5524,77.5 5110.9475,76.483713 5111.5625,75.25 5112.1776,74.016287 5113.3252,72.216287 5114.125,71.25 5114.9249,70.283713 5116.1957,67.7 5116.9375,65.5 5117.6792,63.3 5119.3592,60.242199 5120.6562,58.6875 5123.046,55.823003 5123.9876,49 5122,49 5121.45,49 5121,49.45 5121,50 5121,50.55 5120.6026,51 5120.125,51 5118.4895,51 5118.0439,42.761891 5119.5625,40.59375 5121.3705,38.012589 5121.5153,31.649837 5119.75,32.25 5119.0625,32.483732 5118.5,33.860774 5118.5,35.3125 5118.5,36.764226 5118.0419,37.845874 5117.5,37.71875 5116.1915,37.411766 5112.9273,30.934021 5113.5625,29.90625 5114.4781,28.424712 5112.7905,24 5111.3125,24 5110.3086,24 5110.0632,24.623826 5110.5,26 5111.2674,28.417763 5111.2301,28.423531 5106.375,26.34375 5104.2454,25.431464 5101.2404,24.747036 5099.7188,24.84375 5098.1972,24.940464 5095.567,24.312484 5093.875,23.4375 5090.2033,21.53883 5089.0149,22.232496 5091.4062,24.875 5092.3531,25.921331 5092.7587,26.961709 5092.3125,27.15625 5091.8664,27.35079 5090.3373,28.923417 5088.9062,30.65625 5087.0572,32.895421 5085.8999,33.535438 5084.9062,32.90625 5083.0022,31.700612 5079,31.767218 5079,33 5079,33.55 5079.5926,34 5080.3125,34 5081.0323,34 5082.4377,34.612709 5083.4375,35.34375 5084.9202,36.427946 5085.0415,37.037468 5084.125,38.75 5083.507,39.904708 5082.7926,42.521987 5082.5312,44.5625 5082.27,46.603012 5081.9342,48.350126 5081.7812,48.4375 5081.6284,48.524874 5080.231,49.148796 5078.6875,49.8125 5075.4652,51.198074 5075.9653,53 5079.5625,53 5081.8743,53 5082,53.325033 5082,58.90625 5082,63.221992 5081.5985,64.953457 5080.5,65.375 5078.4148,66.17516 5078.6074,68 5080.7812,68 5082.07,68 5082.9475,69.30545 5083.8438,72.65625 5085.153,77.551829 5084.7758,78.565363 5081.5,79.15625 5078.6229,79.675223 5079.9907,81.511442 5083.25,81.5 5085.5783,81.491826 5086.0947,81.98578 5086.625,84.8125 5087.1693,87.713487 5086.7759,88.648117 5083.625,91.875 5081.6306,93.917383 5080,95.891939 5080,96.28125 5080,98.087687 5082.9407,96.641319 5086.3438,93.15625 L 5090.0938,89.34375 5088.625,82.90625 C 5087.831,79.377584 5086.4368,73.8 5085.5,70.5 5083.3208,62.823489 5083.8585,43.643988 5086.4375,37.46875 5088.2003,33.247985 5092.6521,29.528926 5097.6562,28.09375 5101.1951,27.078809 5107.2603,29.607405 5110.7188,33.53125 5115.6696,39.148161 5117.4743,53.691594 5114.4688,63.8125 5112.1463,71.632592 5110,70.290128 5110,61 5110,53.057577 5107.9675,46.311862 5104.25,41.96875 5099.3146,36.202808 5094.813,36.635357 5092.9688,43.0625 5091.5101,48.145797 5093.5181,73.993915 5095.9688,81.75 5100.4775,96.019947 5103.2046,97.771173 5111.0938,91.5 5112.9402,90.032164 5114.71,89.035524 5116.125,88.46875 L 5116.9688,85.15625 z M 5114.625,94.53125 C 5112.2092,93.841185 5110.1597,93.925265 5109.4375,95.09375 5109.07,95.688329 5107.4352,96.994146 5105.7812,98 5102.7826,99.823567 5102.7631,99.807043 5096.9375,96.65625 L 5091.0938,93.5 5087.8438,96.71875 C 5084.0233,100.51323 5084.4835,101.77901 5088.7812,99.3125 5091.7669,97.598961 5091.9136,97.610823 5096.6562,100.25 5099.3177,101.73105 5102.2079,102.95537 5103.0625,102.96875 5103.9171,102.98213 5106.1321,101.42716 5108,99.5 5110.3827,97.041688 5111.7777,96.322702 5114,97.0625 L 5114.625,94.53125 z"/>
</svg>
