<svg xmlns="http://www.w3.org/2000/svg"
     width="37.2" height="64.0"
     viewBox="6626.4046 21.0000 49.5969 85.2428">
  <path d="M6632.0 96.0C6632.0 95.45 6632.3375 94.983104 6632.75 94.962453C6633.1625 94.941803 6635.2115 93.459214 6637.3033 91.667811C6640.6867 88.770358 6640.9983 88.12578 6640.1256 85.830223C6639.3357 83.752803 6638.643 83.345591 6636.5722 83.741442C6633.8306 84.265528 6632.9835 82.604026 6635.5 81.638374C6636.434 81.279971 6637.0 79.755283 6637.0 77.597807C6637.0 74.561223 6636.66 74.093725 6634.25 73.816422C6631.0698 73.450496 6630.4046 70.503548 6633.5 70.493523C6635.2795 70.48776 6635.461 69.93654 6635.1466 65.493523C6634.9409 62.588448 6634.209 60.165545 6633.3966 59.70031C6631.5386 58.636442 6631.5973 56.631481 6633.4653 57.348324C6634.5025 57.746324 6635.2314 56.827951 6635.9598 54.205313C6637.5813 48.366658 6637.2583 46.438731 6634.4436 45.156262C6631.3817 43.761177 6632.1524 41.74915 6635.4332 42.572583C6637.3846 43.062365 6638.1471 42.430824 6640.3387 38.509608C6642.4734 34.690368 6642.7245 33.531795 6641.7547 31.978832C6640.2209 29.522887 6641.554 28.240348 6644.0319 29.787855C6645.0994 30.454535 6646.5643 31.0 6647.2871 31.0C6649.9562 31.0 6653.9846 28.446597 6653.9922 26.75C6653.9965 25.7875 6654.45 25.0 6655.0 25.0C6655.55 25.0 6656.0 25.726808 6656.0 26.61513C6656.0 27.503451 6657.6875 29.776308 6659.75 31.665924C6663.3024 34.920572 6663.5263 34.990428 6664.0 32.991777C6664.6912 30.07527 6666.5639 30.924834 6666.2224 34.0C6665.6842 38.847034 6665.8165 40.529544 6666.9684 43.488386L6668.1318 46.476773L6670.0436 43.988386C6671.738 41.783119 6671.9581 41.718625 6671.9778 43.421539C6672.0015 45.469422 6667.9846 56.354302 6665.214 61.75C6664.2575 63.612828 6662.7693 65.0 6661.7273 65.0C6660.1949 65.0 6660.0114 64.45598 6660.5592 61.536282C6661.3817 57.151864 6658.4023 47.285683 6655.842 45.915451C6651.4079 43.5424 6645.336 55.754094 6647.0492 63.599205C6647.5178 65.744642 6648.4398 70.65 6649.0982 74.5C6650.3991 82.107128 6651.5851 85.540276 6653.8483 88.25C6655.5278 90.260781 6659.0513 90.548693 6660.7833 88.816667C6661.4342 88.165833 6662.2714 87.938074 6662.6439 88.310536C6663.5684 89.235049 6660.0377 93.0 6658.2461 93.0C6655.3836 93.0 6650.1847 89.820111 6649.5533 87.683102C6647.2651 79.937865 6646.0783 74.47368 6645.0607 67.0C6643.6979 56.990319 6645.0755 50.618182 6649.6301 45.864218C6654.9349 40.327211 6658.5588 42.634675 6661.9604 53.715318L6663.7362 59.5L6664.9593 56.5C6666.6356 52.388282 6665.5865 44.25317 6663.0288 41.53062C6661.9129 40.342883 6661.0 38.682345 6661.0 37.840536C6661.0 33.688952 6653.7547 31.195586 6648.698 33.606967C6638.1879 38.618895 6634.3585 61.173657 6640.7837 80.221086L6643.7256 88.942173L6639.2986 92.971086C6635.0446 96.842549 6632.0 98.106058 6632.0 96.0Z M6650.6823 98.835583C6648.2205 96.999927 6647.5575 96.898854 6645.4338 98.035436C6642.0858 99.827205 6641.189 98.48943 6644.1083 96.058273C6647.1038 93.563744 6648.1348 93.534928 6651.1151 95.862439C6654.9093 98.825436 6657.6947 99.298804 6661.1608 97.569664C6665.0027 95.65308 6665.0 95.653154 6665.0 97.464816C6665.0 101.30945 6655.2516 102.24275 6650.6823 98.835583Z"/>
</svg>
