<svg xmlns="http://www.w3.org/2000/svg"
     width="18.2" height="64.0"
     viewBox="2307.1226 15.0949 25.3425 88.9820">
  <path d="M2318.5263 97.75C2318.3004 97.0625 2317.1176 92.9 2315.898 88.5C2311.1226 71.271419 2312.3713 25.256437 2317.7351 20.804924C2319.7955 19.094937 2323.1267 23.074605 2326.0186 30.700859C2327.9466 35.78529 2328.2326 38.595151 2328.3392 53.5C2328.4651 71.101376 2326.3839 86.358645 2322.6324 95.33735C2321.0949 99.017184 2319.2912 100.07697 2318.5263 97.75Z M2323.4484 79.988475C2325.7074 68.121939 2326.4376 52.049436 2325.1784 41.909658C2323.392 27.525518 2319.1376 20.231237 2317.503 28.75C2314.9134 42.245408 2315.5894 77.237134 2318.6158 86.34859C2320.6174 92.374746 2321.2486 91.543981 2323.4484 79.988475Z"/>
</svg>
