<svg xmlns="http://www.w3.org/2000/svg"
     width="46.6" height="64.0"
     viewBox="3238.6672 18.0000 65.2702 89.7008">
  <path d="M3269.2342 99.970687C3265.2496 96.346068 3262.8623 96.240514 3258.5889 99.5C3253.0813 103.70083 3249.2949 102.47788 3245.1938 95.173646C3242.9566 91.188909 3242.6672 83.7633 3244.404 74.901752C3246.3209 65.121049 3248.2385 60.159935 3252.4068 54.197347L3255.4147 49.894693L3251.7073 46.49833C3248.9669 43.987798 3248.0 42.297837 3248.0 40.018864C3248.0 32.452965 3255.1422 24.0 3261.5348 24.0C3265.5458 24.0 3265.8604 25.180925 3263.0 29.5C3260.6162 33.09948 3260.3665 37.0 3262.5199 37.0C3263.3558 37.0 3265.8219 35.875 3268.0 34.5C3272.2195 31.836375 3273.0073 31.559958 3272.9876 32.75C3272.9695 33.846577 3266.1255 38.103633 3262.8877 39.032201C3258.1655 40.386506 3257.2332 37.962044 3259.9529 31.400287C3261.2069 28.37487 3261.9377 25.604369 3261.577 25.24362C3260.4075 24.074187 3254.5484 27.965544 3252.75 31.106057C3251.7875 32.786869 3251.0 35.97742 3251.0 38.196169C3251.0 41.529248 3251.6082 42.78735 3254.5 45.436135C3256.425 47.199366 3258.0 48.946516 3258.0 49.31869C3258.0 49.690864 3256.4173 52.1984 3254.4828 54.890991C3249.8215 61.379314 3247.2517 69.183959 3246.426 79.360601C3245.6596 88.805934 3246.7243 93.452873 3250.4585 96.961005L3252.8589 99.216111L3258.3675 96.521009C3264.4558 93.542309 3266.5148 93.719028 3270.6783 97.577616C3274.3925 101.01982 3276.4172 100.62529 3282.0428 95.363158C3284.7693 92.812895 3287.0 91.039282 3287.0 91.421797C3287.0 92.924532 3280.3491 100.28473 3277.7997 101.60334C3274.0235 103.55641 3272.9515 103.35206 3269.2342 99.970687Z M3265.8264 90.288122C3263.5044 88.847584 3262.6357 88.800115 3259.2207 89.927158C3253.6694 91.759245 3250.9962 90.224867 3251.0108 85.214816C3251.0249 80.39384 3253.2553 73.138939 3256.6291 66.940073C3259.7801 61.1508 3261.9321 60.669496 3267.8795 64.423926C3271.802 66.900076 3273.1354 67.326899 3276.2977 67.118483C3278.6363 66.964359 3283.0 62.234567 3283.0 59.853977C3283.0 58.83429 3283.3769 58.0 3283.8376 58.0C3284.6544 58.0 3287.429 50.122047 3288.4584 44.879978C3288.882 42.722486 3289.6814 42.146656 3292.9864 41.618161C3296.1393 41.11399 3297.0 40.541908 3297.0 38.950333C3297.0 37.344397 3296.4396 36.983987 3294.2974 37.212151C3292.1234 37.443706 3291.3986 36.954846 3290.5912 34.712476C3289.4626 31.577906 3291.5513 23.954382 3293.733 23.245355C3294.6588 22.94449 3294.606 23.865142 3293.5212 26.939931C3291.7186 32.049074 3292.4109 34.125739 3295.7981 33.769881C3297.8069 33.55884 3298.5107 34.045055 3299.0265 36.0C3299.9374 39.452738 3298.449 41.91446 3294.437 43.590757C3292.0842 44.573841 3290.8504 45.858389 3290.4362 47.756099C3287.8103 59.788915 3281.1044 70.0 3275.8281 70.0C3274.7179 70.0 3271.3497 68.65 3268.3432 67.0C3265.3367 65.35 3262.2239 64.0 3261.4258 64.0C3258.6185 64.0 3252.1513 82.624739 3253.625 86.465181C3254.3306 88.303885 3256.9522 88.434541 3260.5202 86.80883C3262.7059 85.812986 3263.7176 85.931619 3266.6898 87.532299L3270.2451 89.446939L3275.1226 86.723761C3278.7095 84.721087 3280.0 84.374759 3280.0 85.414797C3280.0 86.821479 3271.7691 92.024171 3269.624 91.973391C3269.0058 91.958755 3267.2969 91.200384 3265.8264 90.288122Z M3268.5 62.158321C3264.8873 59.949526 3263.7513 58.5475 3261.9986 54.134903L3260.662 50.769806L3266.2825 45.325556C3269.3737 42.331219 3272.1989 38.948555 3272.5608 37.808525C3273.0575 36.243585 3273.419 36.059884 3274.0363 37.058739C3275.229 38.988573 3272.6854 43.257458 3267.9045 47.349782L3263.7565 50.900302L3267.4634 55.950151C3269.5022 58.727568 3271.7222 61.0 3272.3966 61.0C3273.0711 61.0 3274.6029 60.086948 3275.8008 58.970997C3280.5972 54.502383 3282.9257 46.334801 3281.0357 40.608035C3278.5913 33.20156 3280.1478 22.0 3283.6213 22.0C3285.191 22.0 3285.4726 23.5899 3284.0578 24.464291C3282.1528 25.641661 3281.7718 33.703362 3283.3627 39.175645C3284.6615 43.643375 3284.7155 45.212239 3283.6844 48.522283C3281.5731 55.300357 3278.11 60.89178 3275.0398 62.479393C3271.4629 64.329106 3272.1018 64.360473 3268.5 62.158321Z M3274.0789 33.416667C3274.1269 32.251724 3274.3639 32.014767 3274.6831 32.8125C3274.972 33.534375 3274.9365 34.396875 3274.6042 34.729167C3274.2719 35.061458 3274.0355 34.470833 3274.0789 33.416667Z M3278.0 92.410293C3278.0 91.31427 3282.4889 88.066519 3284.0 88.069232C3284.9283 88.070899 3284.3566 89.009171 3282.5 90.530996C3279.5646 92.937138 3278.0 93.590536 3278.0 92.410293Z M3284.8492 35.833333C3284.3993 28.871436 3286.7337 22.0 3289.5487 22.0C3290.8574 22.0 3290.8478 22.302676 3289.4725 24.401663C3288.607 25.722578 3287.7333 29.197856 3287.5309 32.124503C3287.1633 37.44014 3285.1344 40.2462 3284.8492 35.833333Z"/>
</svg>
