<svg xmlns="http://www.w3.org/2000/svg"
     width="39.9" height="64.0"
     viewBox="1414.4783 15.5074 53.8618 86.5004">
  <path d="M 1447.875 19.65625 C 1441.7002 19.81816 1438.7595 23.226898 1438.6562 30.375 C 1438.5877 35.120259 1438.9615 36.359999 1441.2812 38.78125 C 1444.6693 42.317679 1444.6592 42.797828 1441.125 47.03125 C 1438.906 49.689139 1437.9392 50.21236 1436.875 49.375 C 1432.0813 45.603263 1423.0787 48.434305 1420.5312 54.53125 C 1418.7925 58.692773 1418.4783 65 1420 65 C 1420.55 65 1421 64.347581 1421 63.5625 C 1421 61.562427 1425.8328 58 1428.5312 58 C 1430.947 58 1438 64.98296 1438 67.375 C 1438 69.850762 1435.5872 74.403813 1431.1875 80.1875 C 1427.6729 84.807657 1426.7793 86.883758 1426.3125 91.40625 C 1425.8381 96.003236 1425.9969 97.064933 1427.375 97.59375 C 1428.4539 98.007763 1429.8964 97.321575 1431.4688 95.625 C 1432.8029 94.185524 1434.1217 93 1434.375 93 C 1434.6282 93 1437.202 94.575 1440.125 96.5 C 1440.1899 96.54275 1440.248 96.551803 1440.3125 96.59375 L 1441.5312 94.375 C 1441.0804 94.030273 1440.6926 93.843085 1440.2188 93.4375 C 1435.6436 89.521386 1434.89 89.3833 1431.4688 91.625 C 1429.0512 93.209086 1429 93.186608 1429 90.4375 C 1429 88.647367 1430.5615 85.6151 1433.3438 82.0625 C 1442.8412 69.935077 1443.174 65.792536 1435.25 58.25 C 1432.1551 55.304066 1426.2598 55.234657 1422.625 58.09375 L 1419.9688 60.1875 L 1421.1875 57.34375 C 1424.1672 50.366407 1429.9517 48.112707 1435.125 51.9375 C 1436.7568 53.143962 1438.4944 53.986708 1438.9688 53.8125 C 1439.9239 53.461694 1447 43.192185 1447 42.15625 C 1447 41.797233 1445.6516 40.215098 1444 38.65625 C 1440.2518 35.118606 1439.535 32.418032 1440.9688 27.09375 C 1442.1328 22.771006 1445.3657 20.422249 1448.5 21.625 C 1450.3602 22.338826 1450.3538 23.757125 1448.5 27 C 1446.7173 30.118526 1446.5641 34.998371 1448.25 34.96875 C 1450.2173 34.934184 1458.3548 31.015516 1459.1562 29.71875 C 1459.5541 29.075019 1460.2148 28.871063 1460.5938 29.25 C 1461.864 30.520163 1458.7494 36.09332 1455.9688 37.53125 C 1454.4559 38.313601 1452.7273 40.189539 1452.125 41.71875 C 1450.6271 45.521453 1447.5315 50.74213 1445.375 53.125 C 1443.9075 54.74657 1443.7921 55.447447 1444.7812 57.03125 C 1446.3126 59.483471 1446.3542 67.666653 1444.8438 72.09375 C 1444.2059 73.963323 1442.6309 76.757801 1441.3438 78.3125 C 1440.0567 79.867199 1439 81.934898 1439 82.875 C 1439 84.303678 1441.7434 86.781812 1444.6562 88.65625 L 1445.6562 86.84375 C 1443.2878 85.346172 1441 83.534073 1441 82.78125 C 1441 82.258463 1442.435 79.815255 1444.1875 77.375 C 1447.681 72.510367 1449.5852 62.697228 1447.9062 58.28125 C 1447.1714 56.348733 1447.7471 54.744416 1451 49.59375 C 1453.1947 46.118685 1455 42.868383 1455 42.34375 C 1455 41.819116 1456.3507 40.375612 1458 39.15625 C 1461.5152 36.557347 1464.3401 30.472754 1463.5312 27.25 C 1462.844 24.511392 1460.5942 24.319764 1458.8125 26.84375 C 1457.6575 28.480004 1452.0314 32 1450.5625 32 C 1449.3291 32 1450.1283 28.297719 1452.0625 25.125 C 1454.6258 20.920443 1453.5531 19.507366 1447.875 19.65625 z "/>
</svg>
