<svg xmlns="http://www.w3.org/2000/svg"
     width="35.5" height="64.0"
     viewBox="4553.9710 16.0000 50.5277 91.1436">
  <path d="M 4587.0625 20 C 4585.3316 20 4581.1488 26.00533 4579.5625 30.78125 C 4577.5004 36.989743 4577.9777 57.706715 4580.375 66.46875 C 4583.3225 77.241732 4581.8922 87 4577.375 87 C 4574.6361 87 4569.4214 82.129332 4567.0312 77.34375 L 4564.6875 72.625 L 4561.3438 76.5625 C 4559.515 78.724113 4558.0082 81.547687 4558 82.8125 C 4557.971 87.290161 4564.2076 96.413524 4569.9062 100.25 C 4574.2045 103.14365 4576.8615 102.44939 4581.9062 97.15625 C 4584.4401 94.49756 4587.2352 91.254579 4588.125 89.9375 L 4589.75 87.53125 L 4593.25 89.4375 C 4595.1759 90.47467 4597.4782 91.031638 4598.375 90.6875 C 4600.1654 90.000471 4600.4987 86.963111 4599.0938 84.25 C 4592.7456 71.990976 4591.9842 68.017139 4591.625 46.3125 C 4591.358 30.174385 4590.9797 25.838435 4589.625 23.21875 C 4588.7075 21.44437 4587.5495 20 4587.0625 20 z M 4586 25.5 C 4588.0038 25.5 4588.7814 32.459503 4588.9062 51.84375 C 4589.0127 68.346489 4590.1618 74.585086 4594.5625 82.28125 C 4595.8844 84.593006 4596.9933 86.8375 4597 87.25 C 4597.0237 88.72542 4594.2772 87.963821 4592.5 86 C 4589.7719 82.985459 4588.3458 83.534793 4585.375 88.75 C 4583.8868 91.3625 4581.5441 94.7375 4580.1562 96.25 C 4577.122 99.556687 4572.7748 99.885512 4570.25 97 C 4566.3274 92.51708 4565.3902 91.35702 4563.4062 88.5 C 4560.2139 83.902544 4559.9204 82.296304 4561.9062 79.84375 L 4563.75 77.59375 L 4565.3438 80.6875 C 4567.1191 84.120481 4574.4982 90 4577.0312 90 C 4579.3799 90 4582.913 85.831468 4584.0312 81.78125 C 4584.7251 79.268752 4584.5769 75.960743 4583.4375 69.90625 C 4582.5677 65.28414 4581.4025 59.025 4580.8438 56 C 4578.6867 44.323575 4581.8608 25.5 4586 25.5 z "/>
</svg>
