<svg xmlns="http://www.w3.org/2000/svg"
     width="31.2" height="64.0"
     viewBox="3453.8148 17.6719 41.1547 84.3159">
  <path d="M 3458.9062 88.0625 L 3459 90 L 3458.8125 91.8125 C 3459.406 91.164156 3460.1309 90.811316 3461.2188 90.59375 C 3465.1085 89.815797 3468.6138 86.075367 3470.125 81.03125 C 3471.3459 76.956156 3470.7163 68.248271 3468.1875 54 C 3467.8459 52.075 3467.5916 46.82235 3467.625 42.34375 C 3467.6737 35.835173 3468.1693 33.225994 3470.0938 29.34375 C 3473.0008 23.479494 3475.5033 22.993586 3478.2812 27.75 C 3479.8696 30.469614 3480.1649 32.869403 3480.0625 42.1875 C 3479.9951 48.329424 3479.6862 54.353801 3479.375 55.59375 C 3478.4799 59.160335 3481.6415 68.330768 3484.9688 71.8125 C 3489.7715 76.8382 3488.3735 82.576494 3483.4688 77.96875 C 3482.1624 76.741545 3480.4513 76.007432 3479.6562 76.3125 C 3478.8612 76.617567 3477.2145 79.850481 3476 83.5 C 3474.7855 87.149519 3472.7564 91.320563 3471.5 92.78125 C 3469.4958 95.111262 3468.515 95.417144 3463.4375 95.34375 C 3458.1817 95.267778 3457.8148 95.408757 3459.5625 96.71875 C 3460.8945 97.717089 3462.8856 97.987817 3466 97.59375 C 3471.7396 96.867524 3475.3456 93.09466 3477.5625 85.46875 C 3479.4216 79.073935 3481.2512 77.819181 3484.1562 80.9375 C 3486.8172 83.793562 3488.2089 83.189403 3489.75 78.5625 C 3490.9695 74.901243 3490.9195 74.643372 3487.6562 71.03125 C 3482.8726 65.736416 3481.6038 59.563274 3482.4688 45.6875 C 3483.0939 35.658036 3482.9307 33.905719 3481 28.75 C 3479.3509 24.34608 3478.2778 22.852577 3476.375 22.375 C 3473.5736 21.671896 3469.8337 24.523742 3467.375 29.25 C 3464.9888 33.83684 3464.763 46.252818 3466.7812 61.5 C 3468.935 77.770501 3468.4776 81.95996 3464.1875 86.25 C 3461.868 88.569461 3459.9707 89.056978 3458.9062 88.0625 z "/>
</svg>
