<svg xmlns="http://www.w3.org/2000/svg"
     width="53.5" height="64.0"
     viewBox="2216.8438 39.7717 53.1562 63.5773">
  <path d="M 2228.0625 83 L 2221.5 86.5 L 2220.8438 87.25 C 2221.3495 87.711125 2221.8755 88.086372 2222.3438 88.625 C 2224.0843 90.627083 2227.4923 93.552083 2229.9375 95.125 C 2236.5039 99.349004 2240.2645 99.02858 2245.375 93.75 C 2247.6401 91.410355 2249.9719 88.629712 2250.5625 87.5625 C 2251.5417 85.793167 2251.9259 85.734235 2254.9062 86.96875 C 2258.933 88.636686 2260.4334 87.127317 2259.3438 82.5 C 2258.3626 78.333875 2258.6265 72.104872 2259.875 69.59375 C 2263.1283 63.05042 2266 54.637491 2266 51.65625 C 2266 49.775609 2265.177 47.198006 2264.1562 45.9375 C 2262.4889 43.878448 2262.0064 43.77168 2259.4062 44.875 C 2254.4819 46.9645 2250.4861 53.542289 2247.5 64.5 C 2244.5783 75.220896 2242.4364 81.153772 2240.1875 84.75 C 2238.3399 87.7045 2233.2239 87.762031 2230.125 84.875 L 2228.0625 83 z M 2260.1562 47.15625 C 2264.1626 46.383919 2263.7476 52.704577 2258.9062 65.59375 C 2255.1577 75.573698 2254.909 76.806489 2255.9688 80.34375 C 2257.3201 84.853903 2256.722 85.98118 2254.1875 83.6875 C 2252.5848 82.237047 2252.1512 82.212132 2250.3125 83.5 C 2249.1688 84.30104 2247.9579 86.048448 2247.625 87.375 C 2247.292 88.701552 2245.4179 91.163721 2243.4688 92.875 C 2241.5197 94.586279 2238.9371 96.002056 2237.7188 96 C 2235.0135 95.995435 2229.6737 92.838159 2226.4062 89.3125 C 2222.0518 84.613962 2224.1439 83.256086 2229.1875 87.5 C 2236.6897 93.812736 2242.5451 88.992384 2246.9062 72.90625 C 2251.478 56.043034 2254.1615 50.044206 2258.1562 47.90625 C 2258.9086 47.503614 2259.5839 47.266583 2260.1562 47.15625 z "/>
</svg>
