<svg xmlns="http://www.w3.org/2000/svg"
     width="24.1" height="64.0"
     viewBox="4251.8582 12.2125 35.6470 94.5404">
  <path d="M 4283.5 89.5 C 4282.1697 88.700018 4280.8853 86.688151 4279.0938 83.03125 C 4275.9368 76.587446 4275.8092 75.932535 4277.2188 73.78125 C 4278.5951 71.680646 4279.8843 65.385242 4281.4688 53 C 4282.5588 44.479168 4277.4648 23.370988 4273.3125 19.21875 C 4270.3062 16.212455 4268.243 17.301045 4264.75 23.71875 C 4259.8198 32.777173 4258.2325 55.917444 4261.5938 69.84375 C 4263.2176 76.571176 4263.2077 76.897442 4261.3125 79.65625 C 4257.5175 85.180502 4255.8582 95.002263 4258.0312 99.0625 C 4259.8833 102.52293 4261.8783 101.2798 4263.5312 95.59375 C 4265.3584 89.308251 4267.3517 87.115925 4269.8438 88.65625 C 4271.4292 89.636197 4274.78 94.89073 4276.9375 99.75 C 4278.052 102.26008 4280.496 102.75282 4281.3125 100.625 C 4281.4756 100.2001 4281.9507 99.976629 4282.5312 99.8125 L 4282.9062 95.65625 C 4282.9063 95.639 4282.9056 95.611113 4282.9062 95.59375 L 4283.5 89.53125 C 4283.4948 89.528184 4283.5052 89.503103 4283.5 89.5 z M 4270.0625 21.25 C 4271.9044 20.86465 4273.485 23.161975 4275.1875 28.53125 C 4278.0925 37.692705 4277.4618 38.363349 4270.7188 33.21875 C 4264.4769 28.456576 4264.0624 26.725859 4268.125 22.5 C 4268.8142 21.783143 4269.4485 21.37845 4270.0625 21.25 z M 4264.9688 32.5 C 4266.337 32.600744 4269.0033 34.752512 4274.75 40.125 C 4278.8278 43.937304 4279 44.358371 4279 50.0625 C 4279 53.332219 4278.8875 55.985916 4278.75 55.96875 C 4278.6125 55.951585 4276.7 54.793163 4274.5 53.40625 C 4272.3 52.019338 4268.823 50.191091 4266.7812 49.34375 C 4264.7396 48.496409 4262.7804 46.924309 4262.4375 45.84375 C 4261.7151 43.567652 4262.7414 35.048258 4263.9688 33.0625 C 4264.2027 32.684011 4264.5127 32.466419 4264.9688 32.5 z M 4262.4062 50 C 4263.417 50 4274.2975 55.777598 4276.4062 57.4375 C 4277.9778 58.67446 4278.1757 59.784203 4277.6875 63.90625 C 4277.364 66.637821 4276.1967 70.683083 4275.0625 72.90625 L 4273 76.9375 L 4275.875 81.71875 C 4277.5341 84.447179 4279.1021 88.750955 4279.5 91.75 C 4280.3471 98.135574 4279.1677 98.472449 4276.0312 92.75 C 4273.2307 87.640324 4270.093 84 4268.4688 84 C 4266.9321 84 4262 91.099992 4262 93.3125 C 4262 94.245437 4261.55 95 4261 95 C 4258.3281 95 4260.9925 83.662294 4264.5312 79.96875 L 4267.2188 77.15625 L 4265.2188 71.34375 C 4263.2236 65.54739 4261.1705 50 4262.4062 50 z "/>
</svg>
