<svg xmlns="http://www.w3.org/2000/svg"
     width="36.2" height="64.0"
     viewBox="5554.9845 37.2500 38.6506 68.4256">
  <path d="M 5570.4375,41.25 C 5570.2986,42.005406 5569.8052,42.653503 5568.7812,43.75 5567.5337,45.085945 5565.2625,46.838134 5563.75,47.625 5562.2375,48.411867 5561,49.495374 5561,50.03125 5561,51.976636 5563.9016,50.92415 5568,47.5 5570.3041,45.575 5572.6087,44 5573.125,44 5574.9401,44 5583.5127,48.814039 5585.375,50.875 5586.4111,52.021477 5587.6547,52.728212 5588.125,52.4375 5589.6351,51.504243 5585.6965,46.778641 5582.1875,45.3125 5579.7471,44.292829 5579.1474,43.658092 5579.375,42.34375 L 5571,41.5 5570.4375,41.25 z M 5572.5625,49.3125 C 5571.9819,49.516503 5571.456,49.937738 5570.9375,50.5625 5570.2265,51.4192 5567.7252,53.260687 5565.3438,54.65625 5560.2937,57.615838 5558.9845,61.091465 5563.875,58.5625 5565.4591,57.743348 5568.1233,55.926222 5569.7812,54.53125 5571.4391,53.136278 5573.2278,52 5573.7812,52 5574.3348,52 5577.2141,53.989719 5580.1562,56.4375 5587.1935,62.292503 5587.8098,60.119565 5580.875,53.90625 5576.5808,50.058826 5574.3042,48.700492 5572.5625,49.3125 z M 5569.8125,61 C 5567.4856,61 5561.0565,64.525156 5561.0312,65.8125 5561.0039,67.208262 5564.6141,66.578631 5566.4375,64.875 5566.96,64.386817 5567.7909,64 5568.2812,64 5569.2937,64 5568.6184,91.992887 5567.5,96.25 5567.0687,97.891877 5567.1558,99 5567.75,99 5569.3764,99 5570.9316,93.882566 5571.0625,88 5571.4299,71.489835 5570.9262,61 5569.8125,61 z M 5579.4688,63.28125 C 5577.516,63.571455 5577.0099,65.462139 5577.1562,70 5577.236,72.475 5576.9902,77.875 5576.5938,82 5575.9598,88.595702 5576.0999,89.891862 5577.9062,92.75 5579.0359,94.5375 5580.6669,96 5581.5,96 5583.4775,96 5583.3985,95.110172 5581.25,92.71875 5579.754,91.053632 5579.5318,89.022139 5579.75,78.71875 5579.8904,72.08969 5580.1878,66.468542 5580.4062,66.25 5580.6247,66.031459 5581.7153,66.451462 5582.8438,67.15625 5583.9724,67.861038 5585.1945,68.117959 5585.5625,67.75 5586.9224,66.390028 5585.0356,64.180437 5581.9375,63.5 5580.9389,63.280657 5580.1197,63.184515 5579.4688,63.28125 z M 5576.1562,97 C 5574.0805,97 5570.6391,100.2954 5571.6562,101.3125 5572.0194,101.67559 5572.9252,101.48176 5573.6562,100.875 5574.3873,100.26824 5575.668,100.02448 5576.5,100.34375 5577.5346,100.74077 5578,100.31516 5578,98.96875 5578,97.721925 5577.3248,97 5576.1562,97 z"/>
</svg>
