<svg xmlns="http://www.w3.org/2000/svg"
     width="36.5" height="64.0"
     viewBox="6394.7105 18.2596 49.8360 87.3876">
  <path d="M6408.6667 100.33333C6407.1572 98.823823 6408.1851 94.515849 6411.0773 90.230409C6413.9456 85.980407 6414.0818 85.381834 6413.0832 81.416015C6411.1355 73.680952 6410.0529 71.547115 6408.7416 72.858413C6407.1175 74.482458 6402.8687 86.818782 6402.6656 90.5C6402.5593 92.426414 6401.9632 93.5 6401.0 93.5C6398.868 93.5 6398.7105 81.06994 6400.7594 74.51378C6402.4382 69.141694 6407.6215 61.120428 6412.1743 56.84879C6414.3979 54.762522 6415.0 53.310782 6415.0 50.035932C6415.0 46.642171 6414.6771 45.921243 6413.25 46.128785C6409.835 46.625423 6406.94 44.802804 6404.951 40.903913C6403.2461 37.562148 6403.0983 36.348611 6403.9919 33.030242C6406.4788 23.794575 6415.9925 22.259594 6419.4506 30.536067C6420.2467 32.44123 6421.3076 34.0 6421.8082 34.0C6422.3088 34.0 6424.7633 32.2 6427.2627 30.0C6432.4739 25.412872 6433.7386 25.119022 6434.8887 28.228037C6436.0509 31.369833 6434.3404 36.693716 6430.7222 41.19608C6428.5912 43.847835 6427.4129 46.653635 6426.9127 50.267643L6426.1885 55.5L6430.584 59.5C6436.1982 64.609109 6440.3708 73.578451 6440.4455 80.698081C6440.5465 90.332919 6436.3673 89.965732 6432.5 80.0C6431.4037 77.175 6429.7106 74.143097 6428.7375 73.262438C6427.1082 71.787923 6426.8541 71.813097 6425.5262 73.58062C6424.7331 74.636279 6423.5529 77.821035 6422.9036 80.657854C6421.8377 85.314695 6421.9219 86.140352 6423.7705 89.157854C6425.6975 92.303375 6426.3674 95.192139 6426.1107 99.25C6425.9591 101.64722 6423.2819 101.46354 6422.5007 99.002324C6421.4386 95.65571 6417.293 95.345148 6414.1302 98.375258C6411.3649 101.02461 6409.8874 101.55411 6408.6667 100.33333Z M6413.8131 95.5C6416.3519 92.580074 6417.094 92.480152 6421.0497 94.52568C6424.8801 96.506492 6425.0254 94.790083 6421.4706 89.551803L6418.9412 85.824512L6421.162 78.662256C6422.3835 74.723015 6423.9584 70.854352 6424.6619 70.065226C6426.9043 67.549806 6430.6681 70.633244 6434.2549 77.924335L6437.4898 84.5L6437.8085 80.124221C6438.252 74.036559 6433.9002 65.502772 6428.3111 61.5C6424.2518 58.592811 6424.1203 58.323568 6424.0611 52.797053C6424.0061 47.665775 6425.3796 42.338953 6427.1028 41.0C6428.5699 39.860026 6433.0 32.61866 6433.0 31.360453C6433.0 29.250589 6431.497 29.733343 6428.0548 32.948772C6426.3187 34.570597 6423.9888 36.186157 6422.8774 36.538905C6420.4434 37.311444 6417.4379 34.880779 6416.5747 31.441634C6415.8661 28.618245 6412.119 27.330756 6409.1832 28.901932C6406.2493 30.472127 6405.3475 37.074524 6407.5979 40.509003C6409.1836 42.929086 6409.7446 43.115423 6413.6725 42.526409L6418.0 41.877454L6418.0 47.488387C6418.0 53.818194 6416.2722 57.936401 6412.6097 60.33616C6407.0072 64.007051 6400.6745 76.962753 6402.0204 82.0C6402.623 84.255075 6402.8032 84.059136 6403.8599 80.0C6405.1262 75.135687 6407.95 68.990568 6408.9075 69.015313C6410.638 69.060036 6411.9366 71.021658 6413.3138 75.671431C6414.1563 78.515718 6415.3719 81.826451 6416.0153 83.028615C6417.0154 84.897355 6416.7561 85.815223 6414.2269 89.357183C6409.1961 96.402747 6408.8742 101.18017 6413.8131 95.5Z"/>
</svg>
