<svg xmlns="http://www.w3.org/2000/svg"
     width="22.2" height="64.0"
     viewBox="42.4375 17.8079 30.0893 86.7322">
  <path d="M 46.4375 98.0625 C 46.618628 98.110248 46.826724 98.217642 47 98.25 C 59.263592 100.54015 63.177819 94.293489 66.40625 67.28125 C 68.193474 52.32758 68.526766 27.848678 66.96875 24.9375 C 65.293859 21.807936 63.490208 22.683316 61.1875 27.75 C 59.313976 31.872345 58.946787 34.878482 58.5 50.5 C 57.935753 70.228353 57.358295 75.890598 55.40625 80.5625 C 53.309614 85.580453 51.700391 86.366742 47.625 84.46875 L 47.34375 87.53125 C 48.218361 87.832625 49.066015 88 49.8125 88 C 53.025293 88 56.64736 84.30091 57.875 79.78125 C 59.660937 73.206174 59.980407 69.878993 60.53125 51 C 61.011563 34.538281 62.086667 27 63.96875 27 C 65.487522 27 65.989588 30.147478 65.96875 39.34375 C 65.921785 60.071085 61.995156 85.839954 57.8125 92.75 C 56.062564 95.641018 55.332627 96 51.34375 96 C 49.484225 96 48.06209 95.795589 46.6875 95.40625 L 46.4375 98.0625 z "/>
</svg>
