<svg xmlns="http://www.w3.org/2000/svg"
     width="32.5" height="64.0"
     viewBox="5998.6875 17.7742 43.3125 85.2720">
  <path d="M 6007.5312 83.96875 L 6007.5 84 L 6005.4688 88.25 C 6006.3941 88.456477 6007.7841 89.143876 6010.1562 90.5 C 6015.3493 93.46868 6015.8045 93.47833 6018.9062 91.09375 C 6021.1933 89.335576 6021.3651 88.482851 6022.125 73.875 C 6022.654 63.70576 6022.5392 56.129291 6021.8125 51.5 C 6021.2082 47.65 6020.7481 44.05 6020.7812 43.5 C 6021.4979 31.58712 6022.6303 27.80339 6026 26 C 6027.5964 25.145629 6028.2395 25.401798 6029.5938 27.46875 C 6031.0664 29.716178 6031.0907 31.224233 6030.0312 41.5 C 6027.9071 62.101927 6028.7815 73.909196 6032.6562 77.125 C 6035.0265 79.092047 6034.2744 81.574603 6031.3125 81.53125 C 6028.9322 81.496409 6028.3283 82.227776 6026.1875 87.65625 C 6024.5532 91.800428 6022.9844 94.158691 6021.3438 94.90625 C 6020.0063 95.515622 6018.1242 95.953524 6017.1875 95.90625 C 6012.8289 95.686257 6005.9166 92.423719 6004.5312 90.21875 L 6002.6875 94.125 C 6003.8488 94.163526 6005.543 94.775802 6007.625 96.0625 C 6009.4675 97.201213 6013.3214 98.352673 6016.2188 98.625 C 6020.7006 99.046236 6021.9091 98.782415 6024.2188 96.8125 C 6025.7118 95.53896 6027.7447 92.25 6028.75 89.5 C 6030.2908 85.28533 6030.933 84.540266 6032.8438 84.8125 C 6035.4075 85.177754 6038 83.434865 6038 81.34375 C 6038 80.575165 6036.9473 78.270321 6035.6562 76.21875 C 6033.2707 72.427891 6032.3349 68.969572 6031.5 60.71875 C 6031.2439 58.188332 6030.9346 55.755392 6030.8125 55.3125 C 6030.6904 54.869608 6031.188 51.4935 6031.9062 47.8125 C 6032.6245 44.1315 6032.9967 40.5315 6032.75 39.8125 C 6032.5034 39.0935 6032.6673 37.182168 6033.125 35.5625 C 6034.2048 31.741307 6032.4958 25.350199 6030.0312 24.03125 C 6025.8139 21.774202 6024.0163 22.740081 6021.3125 28.75 C 6019.0531 33.77208 6018.7177 35.85144 6018.7188 45.125 C 6018.7193 50.964738 6019.086 56.310854 6019.5312 57.03125 C 6020.6085 58.774098 6020.1493 80.531711 6018.9375 85.15625 C 6017.795 89.516553 6015.8492 90.488324 6012.125 88.5625 C 6009.2232 87.061886 6007.9361 85.833149 6007.5312 83.96875 z "/>
</svg>
