<svg xmlns="http://www.w3.org/2000/svg"
     width="39.1" height="64.0"
     viewBox="4479.1562 27.0000 48.8667 80.0325">
  <path d="M 4488.3438 89.1875 L 4486.9062 91.8125 C 4489.2731 93.567074 4491.6459 95 4492.3125 95 C 4494.311 95 4499.46 88.952856 4501.25 84.5 C 4502.1344 82.3 4503.1223 76.582934 4503.4375 71.8125 C 4504.2409 59.649189 4505.7726 53.84222 4510.9688 43.5 C 4514.8511 35.77246 4515.8535 34.5 4518 34.5 C 4521.7764 34.5 4521.6679 38.284671 4517.625 47.15625 C 4509.7498 64.437117 4508.2829 74.677941 4512.5 83 C 4513.875 85.713432 4515 88.400466 4515 88.96875 C 4515 90.67277 4512.777 90.12968 4510.3438 87.84375 C 4507.5903 85.257009 4506.5602 85.897255 4502.0625 92.90625 C 4496.7353 101.20788 4491.6853 102.22768 4484.3438 96.59375 L 4483.1562 98.78125 C 4483.2468 98.886496 4483.5061 99.002517 4483.5625 99.09375 C 4483.9341 99.695105 4485.6536 100.81334 4487.375 101.5625 C 4489.0965 102.31166 4491.4815 102.94722 4492.6875 102.96875 C 4496.261 103.03253 4501.3043 99.379339 4504.3438 94.53125 C 4506.8682 90.504612 4510 88.478719 4510 90.875 C 4510 91.358273 4511.3495 92.316342 4513 93 C 4515.3305 93.965312 4516.3194 93.990374 4517.4375 93.0625 C 4518.9876 91.776026 4518.9519 91.608243 4515.375 82.34375 C 4511.5656 72.477006 4512.4565 66.022259 4519.9062 49.5 C 4522.1381 44.55 4523.9915 39.236157 4524 37.6875 C 4524.0229 33.51702 4522.2775 31 4519.4062 31 C 4511.863 31 4502.772 51.578407 4501.1562 72.28125 C 4500.427 81.626605 4500.0332 83.085626 4497.125 87.3125 C 4495.3542 89.886322 4493.3485 91.991103 4492.6875 91.96875 C 4492.0419 91.946923 4490.1158 90.683971 4488.3438 89.1875 z "/>
</svg>
