<svg xmlns="http://www.w3.org/2000/svg"
     width="43.3" height="64.0"
     viewBox="4453.5806 15.0000 62.2004 91.9152">
  <path d="M 4494.4688,19 C 4492.2013,19 4486.4511,23.009347 4484.5,25.96875 4481.2561,30.889173 4482.5198,37.924164 4487.3438,41.71875 L 4489.9375,43.75 4488.0312,47.6875 C 4484.7009,54.580495 4483.4705,54.920264 4479.3125,50.0625 4475.4814,45.586708 4471.8457,43.616663 4469.0625,44.5 4464.5764,45.923856 4457.5806,62.57179 4460.4688,64.96875 4461.4544,65.786754 4462.5238,65.320023 4464.8125,63.03125 4466.4801,61.363636 4468.4889,60 4469.2812,60 4471.1383,60 4475.9849,64.821499 4477.125,67.8125 4478.9712,72.656041 4478.1481,74.562848 4471.9688,79.9375 4465.2078,85.817922 4462.5646,90.78489 4463.5,95.8125 4464.4262,100.79093 4466.1739,99.161561 4466.375,93.125 4466.5365,88.275866 4466.9024,87.49946 4470.5312,84.3125 4481.8635,74.359969 4481.3025,75.161172 4480.625,70.21875 4479.8947,64.890474 4476.314,59.77934 4472.0938,58.03125 4469.4319,56.92868 4468.754,57.052194 4466.0625,58.96875 4462.6889,61.370948 4462.3731,60.793944 4464,54.9375 4465.3019,50.250719 4469.1438,46.601915 4471.875,47.46875 4473.0044,47.827205 4475.9117,50.150966 4478.3125,52.65625 4482.3175,56.835431 4482.8481,57.101754 4484.8125,55.875 4487.4399,54.234141 4492,45.690122 4492,42.40625 4492,40.688621 4491.4488,40 4490.0625,40 4487.345,40 4485,36.247294 4485,31.875 4485,28.703464 4485.5898,27.747842 4489.1562,25.125 4491.4392,23.446169 4493.7078,22.297265 4494.1875,22.59375 4494.6672,22.890235 4494.0636,24.8851 4492.875,27 4491.6863,29.114899 4491.01,31.536383 4491.3438,32.40625 4492.3005,34.899551 4497.0635,34.250291 4501.9062,30.96875 4505.9381,28.236695 4509,27.186018 4509,28.53125 4509,30.565145 4504.4991,37.236896 4502.6562,37.9375 4499.7043,39.05983 4498.7743,40.296572 4494.4688,48.5625 4492.4808,52.379147 4490.1539,56.759947 4489.3125,58.3125 4488.0168,60.703494 4487.9698,61.83369 4489.0312,65.625 4490.0318,69.198604 4490.0233,70.938556 4489.0312,74.25 4487.5844,79.079262 4483.3693,85 4481.375,85 4480.6153,85 4480,85.675 4480,86.5 4480,87.325 4480.4296,88 4480.9375,88 4481.4454,88 4483.9156,89.575 4486.4375,91.5 4486.5995,91.623629 4486.7438,91.692082 4486.9062,91.8125 L 4488.3438,89.1875 C 4488.3011,89.151493 4488.2612,89.13006 4488.2188,89.09375 L 4484.9375,86.3125 4488.4688,81.0625 C 4491.4414,76.645136 4492,74.94216 4492,70.34375 4492,67.337862 4491.5465,64.021147 4491,63 4490.2193,61.541337 4490.779,60.023009 4493.5312,55.84375 4495.4581,52.918029 4497.7433,48.62124 4498.625,46.3125 4499.7489,43.369682 4501.1907,41.674752 4503.4688,40.59375 4507.5701,38.647581 4508.4196,37.556899 4510.2812,32 4511.781,27.522993 4511.2025,24 4508.9375,24 4508.3851,24 4505.5773,25.575 4502.7188,27.5 4499.8603,29.425 4496.7043,31 4495.6875,31 4493.9959,31 4494.0342,30.619205 4496.4062,26.375 4499.2685,21.253796 4498.6997,19 4494.4688,19 z M 4473.9688,91.28125 C 4473.8379,90.999185 4473.4438,91.247535 4472.7188,91.84375 4470.7691,93.446811 4468.6197,99.544358 4469.5,100.96875 4470.703,102.91518 4473,102.0357 4473,99.625 4473,98.31875 4473.2885,95.73125 4473.6562,93.875 4473.956,92.362037 4474.0996,91.563315 4473.9688,91.28125 z M 4483.1562,98.78125 4484.3438,96.59375 C 4484.2795,96.544427 4484.2209,96.550351 4484.1562,96.5 4481.6878,94.576852 4479.3347,93 4478.9062,93 4477.6784,93 4475,97.256138 4475,99.21875 4475,101.85437 4476.8913,101.38483 4478,98.46875 4478.8119,96.333317 4479.295,96.089759 4480.9375,96.96875 4481.849,97.456592 4482.65,98.192777 4483.1562,98.78125 z"/>
</svg>
