<svg xmlns="http://www.w3.org/2000/svg"
     width="32.4" height="64.0"
     viewBox="97.5882 19.8125 43.9815 86.9272">
  <path d="M 106.5 88.09375 L 105 91.5 L 104.6875 91.96875 L 107.1875 93.4375 C 112.71355 96.701821 116.61012 94.23113 120.0625 85.25 C 122.09101 79.97296 122.2482 77.935139 122.09375 60.5 C 121.91737 40.590569 122.90804 33.978914 126.59375 29.90625 C 128.8096 27.457765 131.64981 27.473044 132.96875 29.9375 C 134.49114 32.78212 134.26293 37.654695 131.8125 56.125 L 129.625 72.71875 L 132.5 78.375 C 134.70909 82.741183 135.07037 84.304633 134.15625 85.21875 C 133.24214 86.132866 132.31163 86.028884 130.09375 84.71875 C 126.87418 82.816906 126.81594 82.857889 123.5 89.4375 C 122.40435 91.611515 119.98078 94.917815 118.125 96.78125 C 115.13214 99.786451 114.28461 100.13497 110.625 99.71875 C 108.35578 99.460662 105.375 98.91395 104 98.5 C 101.65642 97.794452 101.58818 97.84254 103.125 99.46875 C 104.02667 100.42286 106.27667 101.53809 108.125 101.9375 C 111.83729 102.73969 113.07779 102.52076 117.5625 100.28125 C 120.4151 98.856759 122.24804 96.491556 125.75 89.71875 C 127.02356 87.255685 127.55947 87.024517 130.59375 87.59375 C 132.73554 87.995553 134.56839 87.77317 135.5 87 C 137.35934 85.456889 137.45179 81.07656 135.65625 78.46875 C 132.99791 74.607811 132.87636 69.018447 135.09375 51.78125 C 137.56967 32.534283 137.22218 28.510964 132.84375 26.0625 C 128.8202 23.812496 125.30091 26.112195 122.21875 33 C 119.86686 38.255841 119.74565 39.454439 119.625 60 C 119.50267 80.832847 119.43093 81.655152 117 86.5 C 115.07138 90.343727 113.88565 91.578578 111.875 91.8125 C 108.8826 92.160639 107.00335 90.73731 106.5 88.09375 z "/>
</svg>
