<svg xmlns="http://www.w3.org/2000/svg"
     width="64.0" height="59.0"
     viewBox="2174.8419 13.9615 86.2724 79.5806">
  <path d="M 2228.0625,83 2227.8438,82.78125 2230.5938,79.875 C 2234.2796,76.027746 2231.7146,76.132955 2226.5625,80.03125 2220.9706,84.262235 2218.6332,83.910552 2212.9062,78 2210.2418,75.25 2207.6215,73 2207.0938,73 2204.4296,73 2199.695,81.094428 2200.75,83.84375 2201.1035,84.764852 2201.704,84.079875 2202.4062,81.96875 2204.3205,76.214306 2206.3351,75.95763 2211.25,80.78125 2213.6208,83.108044 2216.3864,85 2217.375,85 2218.0976,85 2219.4697,85.997121 2220.8438,87.25 L 2221.5,86.5 2228.0625,83 z M 2256.9688,18.125 C 2256.8232,17.961523 2256.4091,18.260171 2255.625,18.90625 2253.4103,20.731335 2242.806,42.869682 2243.5625,44.09375 2243.8778,44.60384 2244.5049,44.786738 2244.9688,44.5 2246.0762,43.815634 2255.8464,23.503503 2256.6875,20.125 2256.9846,18.931879 2257.1143,18.288477 2256.9688,18.125 z M 2236.0312,18.3125 C 2235.8005,18.156625 2235.3882,18.269175 2234.8125,18.625 2233.6776,19.326403 2228,31.276094 2228,32.96875 2228,35.927797 2230.3951,33.170076 2233.4062,26.75 2235.8377,21.566028 2236.7236,18.780125 2236.0312,18.3125 z M 2202.9062,21.1875 C 2199.4817,21.234763 2198.0693,21.927699 2194.4062,25.4375 2189.1852,30.440096 2188.6491,33.810092 2192.625,36.9375 2194.0741,38.077419 2196.6966,39 2198.4375,39 2202.2716,39 2204.0204,40.535994 2204,43.9375 2203.9712,48.727519 2202.732,49.412186 2198.1875,47.09375 2193.2791,44.589653 2191.1238,44.501776 2186.7812,46.59375 2181.998,48.898126 2179.6976,52.566855 2179.1875,58.71875 2178.8419,62.885854 2179.144,64.498377 2180.5312,66.03125 2183.0778,68.845034 2184.498,68.477104 2184.625,64.9375 2184.7599,61.180093 2187.9646,56.607871 2190.7812,56.1875 2193.4104,55.795112 2201,62.480498 2201,65.1875 2201,66.261904 2199.6245,69.14164 2197.9375,71.59375 2194.6408,76.385198 2193.3785,81.342555 2194.4062,85.4375 2195.4364,89.542148 2197.0975,88.47913 2196.4062,84.15625 2195.7584,80.104538 2196.7595,77.360602 2201.5,70.375 2202.8687,68.358071 2204,65.685362 2204,64.40625 2204,59.125597 2194.0842,51.89625 2189.0312,53.5 2187.9244,53.851296 2185.8354,56.123992 2184.4062,58.5625 2182.9773,61.001007 2181.5765,63 2181.2812,63 2179.9998,63 2181.9867,54.83337 2183.9375,52.09375 2187.0116,47.776642 2191.7893,47.09503 2198.125,50.0625 2201.0999,51.455876 2203.3658,51.998945 2203.875,51.4375 2205.5043,49.64116 2206.7709,44.287263 2206.25,41.40625 2205.4644,37.061133 2204.2744,36.085146 2200.5625,36.6875 2193.01,37.913107 2190.4489,32.175226 2196.1562,26.84375 2199.796,23.443726 2203.7438,23.251732 2203.0938,26.5 2202.144,31.244998 2202.4945,32.511146 2204.8438,32.84375 2207.7726,33.258407 2212.3223,31.416078 2214.5938,28.90625 2215.5437,27.856506 2216.6914,27 2217.1562,27 2219.0448,27 2217.7798,29.876464 2214.4375,33.21875 2210.9777,36.678613 2210.8966,36.928065 2211.1875,43.625 L 2211.5,50.5 2214.4688,50.28125 C 2216.4967,50.131828 2218.2999,50.87508 2220.0938,52.59375 2223.3203,55.684959 2226.4977,55.18026 2230.5625,50.9375 2234.1898,47.151438 2233.0012,45.981936 2228.9688,49.375 2225.2328,52.518614 2223.4344,52.680114 2222,50 2221.2028,48.510483 2219.8926,48 2216.9062,48 L 2212.9062,48 2213.4062,42.6875 C 2213.8184,38.343882 2214.5765,36.69171 2217.4688,33.625 2219.8282,31.123241 2221,28.912467 2221,27 2221,22.947893 2220.0447,22.765853 2215.5,26.0625 2209.4514,30.45011 2207.1047,31.510886 2205.9375,30.34375 2205.2575,29.663703 2205.2705,28.430444 2205.9688,26.59375 2207.7722,21.85056 2207.3634,21.125987 2202.9062,21.1875 z M 2216.5,57.53125 C 2213.8755,58.027555 2211.9961,60.835093 2212,65.25 2212.0046,70.403056 2214.9964,75.704984 2218.1875,76.21875 2222.1528,76.857181 2228,73.933006 2228,71.3125 2228,70.191348 2227.4018,70.343287 2225.375,71.9375 2222.008,74.585994 2217.4111,74.640621 2216.0312,72.0625 2214.7387,69.647205 2214.7275,63.000454 2216,61 2216.8093,59.727797 2217.2715,59.713947 2219.0938,60.84375 2221.5442,62.363167 2223.9092,60.985766 2221.7812,59.28125 2219.9028,57.776546 2218.0747,57.233467 2216.5,57.53125 z"/>
</svg>
