<svg xmlns="http://www.w3.org/2000/svg"
     width="30.0" height="64.0"
     viewBox="3102.5625 12.3835 40.6246 86.6165">
  <path d="M 3109.3438 80.125 L 3108.3438 84.53125 C 3109.0671 84.344361 3110.024 84.600723 3111.2188 85.4375 C 3114.7301 87.897007 3117.6461 87.358632 3120.2812 83.75 C 3123.4689 79.384707 3125.0791 68.647401 3123.8438 60 C 3123.3331 56.425 3122.6685 49.45 3122.375 44.5 C 3121.9158 36.75269 3122.1475 34.804061 3124 30.5 C 3125.1836 27.75 3126.8477 24.7125 3127.7188 23.75 C 3129.6907 21.570742 3132.6017 21.496915 3133.4062 23.59375 C 3134.4871 26.410299 3134.0513 36.323394 3132.5312 43.5 C 3130.4536 53.308475 3130.6273 61.54598 3133.0312 66.84375 C 3136.0558 73.509275 3135.5188 76.875318 3131.7812 74.875 C 3130.1833 74.019864 3129.7588 74.230889 3129.3125 75.9375 C 3129.0141 77.07865 3128.412 78 3127.9688 78 C 3127.5255 78 3126.619 79.6875 3125.9688 81.75 C 3125.3186 83.8125 3123.7003 87.1875 3122.375 89.25 C 3120.4045 92.316482 3119.396 93.003057 3116.75 93 C 3113.1331 92.995821 3108.6943 90.481087 3107.5 88.15625 L 3106.5625 92.21875 C 3107.2028 91.81996 3107.9239 92.122041 3109.8438 93.25 C 3111.4999 94.22305 3114.8167 95 3117.3438 95 C 3121.2965 95 3122.2206 94.57658 3124.375 91.75 C 3125.7374 89.9625 3127.6956 86.25 3128.7188 83.5 C 3130.2227 79.457442 3131.0395 78.466207 3133.0312 78.34375 C 3134.3863 78.260446 3136.0124 78.147946 3136.6562 78.09375 C 3139.1871 77.880692 3139.156 72.35746 3136.5625 66.6875 C 3133.6191 60.252503 3133.4347 56.40066 3135.5 43 C 3137.417 30.561421 3137.3747 24.520745 3135.375 21.46875 C 3132.043 16.383452 3126.2672 19.832421 3122.125 29.375 C 3119.7967 34.738616 3119.2043 46.723115 3120.9688 52.875 C 3122.6904 58.878126 3122.5406 71.066159 3120.6875 77.1875 C 3118.6781 83.825431 3116.5848 85.045663 3111.9062 82.3125 C 3110.4312 81.450868 3109.6619 80.953508 3109.3438 80.125 z "/>
</svg>
