<svg xmlns="http://www.w3.org/2000/svg"
     width="32.4" height="64.0"
     viewBox="1522.0000 11.4528 46.4998 91.9412">
  <path d="M1530.4769 98.234687C1529.0058 97.178308 1526.0 92.27327 1526.0 90.929088C1526.0 90.301384 1527.412 88.00506 1529.1377 85.826144C1532.5676 81.495583 1532.5906 82.710145 1528.8468 70.5C1528.3409 68.85 1527.6514 62.692964 1527.3146 56.817698C1526.6613 45.423207 1527.4265 40.882751 1531.5814 31.5C1538.2514 16.437546 1552.7249 15.452761 1560.9758 29.5C1564.1622 34.924964 1564.4998 36.218795 1564.4982 43.0C1564.4966 49.684858 1564.1323 51.130315 1561.1465 56.299441C1559.3041 59.489133 1557.2799 61.926033 1556.6483 61.714775C1555.9188 61.470747 1555.5 58.568525 1555.5 53.756639C1555.5 46.956713 1555.1934 45.746146 1552.5 41.912131C1542.5357 27.727982 1534.214 43.781263 1541.3025 63.51321C1542.0954 65.720476 1543.0679 69.442595 1543.4636 71.784587C1543.9019 74.378909 1545.7236 78.085797 1548.1257 81.271377C1553.2496 88.066495 1553.7302 90.16582 1551.0298 93.958139C1548.399 97.652727 1547.0589 97.756027 1544.0 94.5C1540.8681 91.166209 1539.4116 91.34234 1535.7307 95.5C1532.4472 99.208729 1532.0913 99.393986 1530.4769 98.234687Z M1536.8145 92.0C1537.4665 92.0 1538.0 91.535877 1538.0 90.968615C1538.0 88.571202 1541.2555 88.870584 1544.0235 91.522555C1546.4521 93.849248 1547.1793 94.096118 1548.4638 93.030007C1550.7003 91.173926 1550.4632 90.371684 1545.5279 83.094314C1540.9044 76.276727 1538.7175 69.94364 1536.5552 57.110819C1533.4373 38.606007 1542.2809 28.168201 1552.197 38.649359C1555.3933 42.027856 1557.9875 47.838066 1558.0318 51.717881C1558.0613 54.295695 1558.1648 54.366526 1559.4415 52.682423C1561.8252 49.537899 1562.4021 39.726764 1560.534 34.102274C1558.6841 28.532831 1552.4427 22.068302 1548.7471 21.894037C1540.0106 21.482069 1537.9882 22.802726 1534.037 31.5C1528.5916 43.486261 1528.0424 53.609734 1531.921 70.5C1532.5525 73.25 1533.7665 76.997753 1534.6187 78.828339C1536.2987 82.436966 1536.5334 81.856286 1530.75 88.397749C1528.7056 90.71009 1528.6229 91.426949 1530.0855 94.159741L1531.171 96.187999L1533.3999 94.094C1534.6259 92.9423 1536.1624 92.0 1536.8145 92.0Z"/>
</svg>
