<svg xmlns="http://www.w3.org/2000/svg"
     width="45.4" height="64.0"
     viewBox="4354.9882 12.2249 61.2715 86.2878">
  <path d="M4378.4958 92.993176C4378.1535 92.439422 4378.7332 90.751922 4379.7838 89.243176C4383.9365 83.279936 4385.0781 75.330519 4382.85 67.893525C4380.4887 60.012375 4375.005 57.87075 4368.0472 62.11238L4364.5944 64.217285L4362.8221 62.028619C4360.518 59.183209 4359.0126 53.640963 4359.0056 47.978358C4358.9882 33.849828 4369.8389 16.224893 4373.892 23.798216C4374.5857 25.094339 4373.9343 28.765033 4371.5591 36.944614C4369.7467 43.186115 4368.4819 49.126918 4368.7485 50.146398C4369.38 52.561315 4371.4977 52.502279 4374.0 50.0C4376.872 47.12798 4380.3937 47.528743 4384.5795 51.203941C4388.1396 54.329767 4388.265 54.360243 4389.721 52.453941C4391.6168 49.971912 4394.0 44.500457 4394.0 42.629944C4394.0 41.841082 4392.5667 40.696006 4390.8149 40.08533C4386.2187 38.483083 4384.0 36.104464 4384.0 32.779271C4384.0 28.551169 4385.4902 26.383095 4390.3562 23.531375C4397.3245 19.447729 4399.5659 20.469122 4396.8271 26.480073C4394.7431 31.054113 4397.109 31.464332 4402.9405 27.540029C4408.9084 23.523963 4410.6093 23.193686 4411.4635 25.885091C4412.2597 28.393712 4410.3177 32.662208 4406.2914 37.252881C4404.4811 39.316965 4403.0 41.715924 4403.0 42.583901C4403.0 43.451878 4401.4954 47.163082 4399.6565 50.83102C4396.7309 56.666267 4396.2438 58.761173 4395.7598 67.588043C4395.3751 74.603245 4394.597 79.005778 4393.2054 82.041426C4391.789 85.130973 4391.4554 87.067617 4392.0639 88.667981C4393.1246 91.457891 4391.7646 92.494459 4389.1697 90.873908C4387.5928 89.88913 4386.7268 90.058318 4384.2247 91.840031C4380.8797 94.221817 4379.4349 94.512651 4378.4958 92.993176Z M4390.2737 81.772831C4393.3782 76.446457 4394.4528 68.98275 4393.0295 62.631787C4392.0186 58.120788 4392.1196 57.531954 4394.4224 54.512823C4395.788 52.722454 4398.1425 48.162144 4399.6546 44.378803C4401.2368 40.420207 4403.8041 36.176306 4405.702 34.381923C4407.5159 32.666981 4409.0 30.304481 4409.0 29.131923C4409.0 27.959365 4408.8049 27.0 4408.5664 27.0C4408.328 27.0 4405.8951 28.391101 4403.16 30.091336C4396.8084 34.039702 4394.6016 33.707669 4394.1896 28.741683C4394.0189 26.683758 4393.4406 25.0 4392.9045 25.0C4390.8237 25.0 4387.1608 28.223209 4386.571 30.573153C4385.6618 34.195785 4387.4617 36.674783 4391.7294 37.677563C4394.9422 38.432466 4395.5438 39.005298 4395.796 41.549474C4396.1454 45.073226 4393.7647 51.235283 4390.9769 54.023052C4388.2203 56.779716 4384.5831 56.575089 4383.2215 53.586735C4381.4603 49.72139 4378.6579 49.510844 4373.9889 52.893078C4369.2309 56.339726 4367.3282 56.045694 4366.1993 51.689382C4365.6022 49.385108 4366.1431 46.147682 4368.3116 39.046001C4372.3588 25.79203 4372.4975 25.0 4370.7716 25.0C4364.7909 25.0 4359.8404 45.683382 4363.0526 57.25C4364.2538 61.575397 4365.0759 61.794205 4369.1708 58.878408C4372.425 56.561163 4378.684 56.662954 4381.597 59.080498C4385.637 62.43341 4387.7355 77.557106 4385.0985 84.3151C4383.6362 88.062509 4383.6869 88.237921 4385.8916 87.058015C4386.932 86.501221 4388.9039 84.122888 4390.2737 81.772831Z"/>
</svg>
