<svg xmlns="http://www.w3.org/2000/svg"
     width="34.7" height="64.0"
     viewBox="1169.9688 18.1905 46.5930 85.9086">
  <path d="M 1179.7188 84.1875 L 1179.5 85 L 1177.5625 89.625 C 1178.2965 89.175083 1179.4276 89 1181.5 89 C 1185.1373 89 1186.1778 88.541768 1187.75 86.25 C 1190.6614 82.006421 1191.7627 76.696919 1192.9375 61.5 C 1193.5327 53.8 1194.508 45.025 1195.0938 42 C 1198.3327 25.275275 1205.9284 22.190523 1207.4062 37 C 1207.9582 42.530556 1207.5176 45.662605 1204.4062 58 C 1200.634 72.958353 1199.6999 82.910108 1201.375 90.5 L 1202.2812 94.5 L 1199.8125 92.25 C 1196.6806 89.370584 1195.4147 89.403437 1193.4062 92.46875 C 1192.512 93.833511 1190.1621 95.411578 1188.1562 95.96875 C 1186.1502 96.525921 1184.05 96.915583 1183.5 96.84375 C 1178.4844 96.18868 1176.3296 94.734916 1176.4062 92.3125 L 1173.9688 97.5 C 1174.9741 97.590847 1176.1469 97.872964 1177.5 98.375 C 1182.147 100.09914 1187.8919 99.646384 1192.3438 97.21875 C 1194.0735 96.27547 1197.2433 95.503488 1199.375 95.5 C 1204.7542 95.491198 1205.7124 93.664388 1204.0312 86.65625 C 1202.409 79.893931 1203.0038 74.423069 1207 58.53125 C 1212.5618 36.413754 1210.2569 22.208414 1201.5 24.40625 C 1196.2152 25.732656 1191.6287 40.228762 1190.5312 59 C 1189.3453 79.289194 1186.5104 87.800697 1181.4062 86.40625 C 1180.5606 86.175218 1180.0846 85.650433 1179.7188 84.1875 z "/>
</svg>
