<svg xmlns="http://www.w3.org/2000/svg"
     width="52.1" height="64.0"
     viewBox="1765.7889 12.9009 76.5596 94.0448">
  <path d="M1773.6185 97.92705C1771.08 91.832377 1769.7889 82.509057 1770.1485 72.869054C1770.4738 64.148541 1770.7534 63.052527 1773.9044 58.145509C1775.7767 55.22959 1778.3262 52.177129 1779.5699 51.362263C1781.6357 50.008704 1782.2488 50.10594 1786.6655 52.487611C1789.3245 53.921419 1792.7488 55.860764 1794.2751 56.797267C1796.721 58.298009 1797.1699 58.322059 1798.0596 57.0C1799.1379 55.397519 1798.9493 36.610281 1797.8438 35.508326C1797.228 34.894563 1792.6902 35.887678 1788.75 37.498538C1787.506 38.007107 1787.0 37.742158 1787.0 36.582238C1787.0 34.814803 1789.3723 33.668745 1795.257 32.593329C1798.7147 31.961446 1799.0979 32.12733 1800.0666 34.675227C1800.6455 36.197895 1801.1971 41.281379 1801.2924 45.971857C1801.4759 55.0091 1799.8832 61.0 1797.2969 61.0C1796.4937 61.0 1793.2336 59.474453 1790.0522 57.609896C1781.358 52.514365 1780.666 52.436303 1777.7852 56.226075C1772.7142 62.896906 1772.0 65.339062 1772.0 76.00752C1772.0 85.65887 1773.4447 95.0 1774.9374 95.0C1775.3225 95.0 1775.6831 90.963916 1775.7388 86.030925C1775.8922 72.454111 1779.5681 62.0 1784.1886 62.0C1786.6083 62.0 1792.9871 68.365871 1793.0278 70.821202C1793.0431 71.744541 1794.3931 74.267663 1796.0278 76.428139C1799.3954 80.878852 1799.7382 83.142888 1797.3451 85.127555C1795.4777 86.676231 1793.0 92.081506 1793.0 94.606718C1793.0 95.709973 1794.4677 94.701648 1797.3199 91.638837C1799.6958 89.087476 1802.0583 87.015946 1802.5699 87.035435C1804.5818 87.112087 1807.9744 89.677289 1810.8359 93.285575C1812.4871 95.367641 1814.0826 96.67541 1814.3815 96.191729C1815.5471 94.305706 1812.7382 87.399964 1809.7956 84.917381C1806.8262 82.412231 1806.7721 82.217253 1807.9912 78.417381C1809.7027 73.082746 1815.6459 63.349848 1817.6651 62.575011C1822.4675 60.732176 1828.368 72.774892 1830.4904 88.750942C1830.874 91.63896 1831.5491 93.778693 1831.9904 93.505903C1832.4318 93.233114 1833.3027 90.08269 1833.9258 86.504961C1836.002 74.582064 1831.6878 60.353066 1824.7298 56.175495C1822.1402 54.620679 1821.7817 54.62384 1819.2298 56.223989C1812.4135 60.498096 1810.0102 61.410211 1808.7872 60.187203C1806.8355 58.235526 1806.6436 46.865024 1808.4148 38.123912C1810.2055 29.286205 1809.882 27.833469 1805.079 23.142827C1801.9142 20.052164 1796.6595 20.566948 1787.4682 24.868094C1780.0415 28.343463 1780.0 28.356045 1780.0 27.132886C1780.0 24.326265 1797.0307 16.900883 1801.5058 17.756354C1802.6864 17.982042 1805.3506 19.722522 1807.4263 21.624087L1811.2002 25.081478L1815.6228 22.940569C1819.7675 20.934159 1820.2009 20.901637 1822.5226 22.422883C1825.4645 24.350468 1825.6902 27.544565 1823.1206 30.886364C1821.7042 32.728366 1820.332 33.272727 1817.105 33.272727C1811.8622 33.272727 1810.9767 34.736584 1809.9282 45.137153C1808.7359 56.964253 1810.0432 59.179018 1815.8456 55.162725C1820.1213 52.203209 1821.9804 51.896856 1825.5074 53.570552C1830.01 55.707178 1833.7063 61.625443 1835.6126 69.750471C1838.3485 81.411738 1836.1437 95.856419 1831.3468 97.697166C1829.3022 98.481747 1828.0344 96.31417 1828.0145 92.0C1827.967 81.688236 1822.4986 66.0 1818.9519 66.0C1816.9214 66.0 1812.6698 72.061837 1811.0018 77.33504C1809.8721 80.906526 1809.9635 81.353223 1812.3308 83.83504C1816.6604 88.374061 1818.4606 96.139443 1815.8 98.8C1813.809 100.79098 1812.4027 100.18854 1809.5998 96.144025C1804.6256 88.96627 1800.603 88.937472 1796.9726 96.053627C1794.8791 100.15737 1792.6511 101.1392 1791.607 98.418213C1790.4663 95.445667 1790.9998 92.339447 1793.4958 87.419478C1794.8685 84.713765 1795.9935 82.208492 1795.9958 81.852204C1795.9981 81.495916 1794.1285 78.120916 1791.841 74.352204C1785.3934 63.729199 1783.1212 62.687618 1780.7105 69.25C1778.8546 74.302078 1778.219 78.461865 1777.4638 90.5C1776.8174 100.80463 1775.7088 102.94573 1773.6185 97.92705Z M1784.0 31.489456C1784.0 30.133701 1786.6556 28.750304 1793.4196 26.582515C1798.5366 24.942556 1800.2242 25.175783 1798.1621 27.237919C1796.2369 29.163102 1784.0 32.836688 1784.0 31.489456Z M1820.8 29.8C1823.088 27.51202 1822.2271 25.0 1819.155 25.0C1815.526 25.0 1811.8286 28.647134 1814.0398 30.045737C1816.0876 31.341026 1819.3786 31.221395 1820.8 29.8Z"/>
</svg>
