<svg xmlns="http://www.w3.org/2000/svg"
     width="34.6" height="64.0"
     viewBox="2587.9688 12.6414 50.0322 92.6405">
  <path d="M 2591.9688 86.125 C 2592.589 84.832625 2593.14 84.019572 2593.4375 84.03125 C 2594.0247 84.054303 2596.0465 84.899165 2597.9375 85.90625 C 2601.2897 87.691577 2601.3782 87.877068 2601.125 93.34375 C 2600.9822 96.427449 2601.1531 99.407587 2601.5 99.96875 C 2602.2407 101.16733 2604.9968 101.28186 2606.7188 100.1875 C 2607.384 99.764733 2609.0939 96.781167 2610.5312 93.53125 C 2614.4798 84.60283 2617.0615 83.422065 2620.375 89.03125 C 2623.9401 95.066558 2627.1217 91.168068 2627.2188 80.6875 C 2627.2643 75.789633 2626.8828 74.466987 2624.7188 72.1875 C 2622.4535 69.801382 2622.263 69.035574 2623 65.5 C 2623.4586 63.3 2624.3428 58.8 2625 55.5 C 2626.107 49.941842 2627.6689 46.023359 2632.2812 37.25 C 2633.6286 34.687232 2634.001 32.074321 2633.7812 26.6875 C 2633.4007 17.359512 2631.522 16.64137 2627.625 24.34375 C 2624.1136 31.283808 2620.3037 35.079574 2618.9688 32.96875 C 2618.0761 31.557085 2617.8812 30.167039 2617.625 23.5 C 2617.5368 21.205097 2617.0299 20.5 2615.5 20.5 C 2610.9266 20.5 2608.1361 33.880649 2611.6562 38.90625 C 2613.032 40.870516 2613.1819 42.978186 2612.6875 51.875 C 2612.1022 62.407488 2609.8989 72.398563 2607.6562 74.6875 C 2605.9668 76.411977 2600.9344 74.997926 2597.0625 71.71875 C 2595.7836 70.63563 2595.1521 69.896434 2594.7188 69.09375 L 2593.375 76.375 C 2593.4827 76.06793 2593.4898 75.883481 2593.625 75.53125 C 2594.1779 74.090346 2594.4213 74.090695 2595.875 75.40625 C 2597.936 77.271415 2606.2092 79.509161 2608.1875 78.75 C 2610.0358 78.040758 2613.9621 67.452367 2614.5 61.75 C 2616.1614 44.133774 2616.0831 40.942464 2613.9375 37.125 C 2612.6153 34.772376 2611.9819 32.096971 2612.1875 29.9375 C 2612.6123 25.475619 2614.2314 26.115798 2615.5 31.25 C 2616.6727 35.99588 2619.1264 38.024108 2621.75 36.40625 C 2622.7125 35.812722 2624.981 32.884908 2626.7812 29.90625 C 2630.5956 23.595277 2632.0078 22.714088 2632 26.65625 C 2631.9912 31.147995 2630.2724 36.196729 2626.9688 41.40625 C 2625.2864 44.059039 2623.4675 48.515525 2622.9375 51.34375 C 2621.1288 60.996403 2617.766 73.497481 2615.3125 79.65625 C 2612.4617 86.812538 2611.1318 87.47096 2604.3438 85.03125 C 2595.9868 82.027662 2593.2553 80.888889 2592.9062 78.96875 L 2592 84 L 2591.9688 86.125 z M 2621.9375 74.21875 C 2623.3251 73.911042 2624.2056 76.467967 2624.25 81.40625 C 2624.2778 84.49645 2624.0928 87.250945 2623.8438 87.5 C 2623.5947 87.749054 2622.1434 86.511653 2620.625 84.78125 C 2617.7139 81.463676 2617.6472 79.195843 2620.375 75.5 C 2620.9371 74.73839 2621.475 74.321319 2621.9375 74.21875 z M 2605.1562 89.21875 C 2605.6845 89.182679 2606.3235 89.286782 2607.0938 89.53125 C 2608.7617 90.060671 2609.0344 90.714179 2608.5 92.84375 C 2608.1341 94.301317 2607.3856 96.059423 2606.8125 96.75 C 2604.6869 99.311107 2603 98.126802 2603 94.0625 C 2603 90.772471 2603.5716 89.326963 2605.1562 89.21875 z "/>
</svg>
