<svg xmlns="http://www.w3.org/2000/svg"
     width="48.1" height="64.0"
     viewBox="7207.9970 13.4524 65.4530 87.0886">
  <path d="M7250.6987 92.671639C7248.7581 90.127348 7247.3756 89.323846 7244.83 89.260794C7242.9985 89.215429 7240.069 88.866734 7238.3199 88.485916C7235.5561 87.884152 7234.6723 88.260988 7231.5685 91.364836C7229.4 93.533371 7227.4086 94.71027 7226.4986 94.361086C7224.3285 93.52834 7224.5413 85.267462 7226.8299 81.5C7227.8322 79.85 7229.7039 75.560417 7230.9891 71.967592C7233.7671 64.202304 7233.2937 61.010884 7228.7316 56.749297L7225.5778 53.80318L7223.7889 56.012374C7222.805 57.227431 7222.0 59.264572 7222.0 60.539355C7222.0 63.316856 7219.4698 66.117514 7217.6065 65.402499C7211.997 63.249926 7213.5234 48.233507 7219.9316 42.529132C7222.1451 40.55873 7222.1469 40.558964 7227.6164 43.517632C7232.28 46.040369 7233.226 46.257384 7234.0283 44.9885C7235.2865 42.998349 7235.256 32.803587 7233.9818 29.45201C7233.1059 27.14829 7232.5816 26.874115 7230.2318 27.491121C7228.7293 27.885636 7225.7 28.274026 7223.5 28.354211C7219.8546 28.487075 7219.4724 28.260574 7219.1883 25.799453C7218.7693 22.168196 7220.6078 19.0 7223.1341 19.0C7224.2691 19.0 7226.7557 19.739312 7228.6599 20.642916C7231.9762 22.216588 7232.2443 22.195514 7235.0206 20.142916C7238.6205 17.481362 7240.0867 17.45245 7242.268 20.0C7244.2709 22.339301 7246.5272 22.485207 7250.0 20.5C7251.375 19.713979 7253.0467 19.054925 7253.7148 19.035435C7255.5542 18.981782 7257.2477 22.876881 7256.566 25.593141C7256.0982 27.456997 7255.2946 28.0 7253.004 28.0C7249.3696 28.0 7247.0977 31.103579 7245.8448 37.780092C7244.0161 47.524434 7247.3561 50.907176 7253.2401 45.269967C7255.9304 42.69246 7256.2389 42.623698 7258.7608 44.039212C7260.2299 44.863815 7262.7367 47.394903 7264.3314 49.663852C7269.45 56.946851 7267.5686 68.865366 7261.1497 69.819551C7259.2308 70.104797 7259.0 69.672425 7259.0 65.792057C7259.0 57.657367 7254.0102 54.368209 7250.0681 59.90437C7247.2708 63.832802 7247.4214 68.904949 7250.4599 73.102117C7255.1795 79.621518 7257.0 83.876653 7257.0 88.388733C7257.0 91.11759 7256.3882 93.4689 7255.4286 94.428571C7253.4065 96.450616 7253.6501 96.541088 7250.6987 92.671639Z M7247.1953 84.312909C7250.5408 81.107675 7250.7584 77.873752 7247.8986 73.857545C7244.6711 69.324927 7244.3141 63.845909 7246.9666 59.553971C7250.8553 53.262069 7255.3504 52.277504 7258.8119 56.959507C7260.0154 58.587237 7261.0 61.035679 7261.0 62.40049C7261.0 65.75621 7262.6366 66.547491 7264.0634 63.881583C7265.84 60.561913 7264.6158 53.496072 7261.5727 49.506382C7260.1017 47.577872 7258.4472 46.0 7257.8961 46.0C7257.3449 46.0 7255.2383 47.125 7253.2148 48.5C7245.6375 53.648891 7242.4264 50.916891 7243.3636 40.118744C7243.6796 36.478435 7244.211 31.925 7244.5445 30.0C7245.0647 26.997737 7244.7199 26.088402 7242.1201 23.605715C7239.1859 20.803603 7239.0083 20.764529 7236.5447 22.378768C7233.6097 24.301843 7233.4425 25.219461 7235.4646 28.305563C7238.1695 32.433761 7237.4209 51.0 7234.5496 51.0C7233.8486 51.0 7231.5986 49.667791 7229.5497 48.039535C7224.803 44.267279 7222.3141 43.494692 7220.2971 45.167382C7216.953 47.940685 7214.9676 56.146008 7216.607 60.418213C7217.5465 62.866497 7218.6908 62.29603 7219.3387 59.056375C7219.6625 57.437382 7221.2005 54.687954 7222.7565 52.946536L7225.5855 49.780321L7228.8366 52.515951C7230.6247 54.020548 7233.0076 57.054651 7234.1318 59.258403C7236.2883 63.485421 7236.0865 65.76518 7232.8415 73.836939L7231.5 77.173877L7237.0 82.05511C7240.025 84.739789 7242.9254 86.950666 7243.4453 86.968172C7243.9652 86.985677 7245.6527 85.790809 7247.1953 84.312909Z M7227.0 24.468615C7227.0 22.374836 7224.3032 21.503502 7222.4873 23.010569C7220.1767 24.928198 7220.719 26.0 7224.0 26.0C7226.0273 26.0 7227.0 25.503487 7227.0 24.468615Z M7231.1953 88.312909C7234.5547 85.094363 7234.6869 83.91006 7231.8821 82.158445C7229.2733 80.529194 7228.1234 81.519042 7227.0389 86.327672C7225.8099 91.776726 7226.991 92.340859 7231.1953 88.312909Z M7254.2142 86.905406C7253.8179 82.222349 7252.6027 81.431256 7250.5702 84.533215C7248.9319 87.033584 7248.9333 87.268867 7250.5985 89.108893C7253.0467 91.814085 7254.552 90.896728 7254.2142 86.905406Z M7254.5 24.069638C7254.5 23.298004 7254.05 22.523982 7253.5 22.349589C7251.8594 21.829381 7249.6877 23.685593 7250.4651 24.943565C7251.4296 26.50408 7254.5 25.839046 7254.5 24.069638Z"/>
</svg>
