<svg xmlns="http://www.w3.org/2000/svg"
     width="34.3" height="64.0"
     viewBox="5225.9688 16.1895 46.9897 87.8006">
  <path d="M 5231.9375 88.28125 L 5231.25 91.6875 C 5232.2595 92.121795 5233.2727 92.498279 5234.0625 92.65625 C 5238.1823 93.480209 5240.2454 91.337504 5243.9375 82.46875 C 5246.4085 76.533163 5247.1717 72.882672 5247.9688 62.84375 C 5249.6892 41.175601 5251.0215 34.205065 5254.4375 29.09375 C 5256.7085 25.695835 5258.2623 24.400984 5260.4062 24.15625 C 5266.5349 23.456642 5266.5159 30.213553 5260.4062 48.09375 C 5256.2723 60.192303 5255.8826 62.233259 5256.1875 69 C 5256.4279 74.331452 5257.1549 77.738203 5258.75 80.78125 C 5259.9842 83.135686 5261 85.273186 5261 85.53125 C 5261 86.660741 5255.7142 85.846288 5253.4688 84.375 C 5251.0536 82.792483 5250.9709 82.829314 5249.5938 86.125 C 5247.5714 90.964697 5244.4872 94.539466 5241.1875 95.90625 C 5238.7297 96.924317 5237.3466 96.731905 5231.5 94.53125 C 5231.2057 94.420471 5231.0297 94.382689 5230.75 94.28125 L 5229.9688 98.15625 C 5230.133 98.216865 5230.3448 98.250231 5230.5 98.3125 C 5232.7 99.19513 5235.85 99.915415 5237.5 99.9375 C 5241.4335 99.990151 5246.6943 96.730652 5248.8125 92.90625 C 5252.0554 87.051269 5252.7355 86.379519 5254.125 87.75 C 5255.8836 89.484565 5262.4935 89.315176 5264 87.5 C 5265.2627 85.978556 5264.8651 84.837614 5260.4375 77 C 5257.7285 72.204374 5258.6427 62.387775 5263.0625 48.5625 C 5268.4839 31.60437 5268.9585 27.246076 5265.8438 23.625 C 5262.8887 20.189516 5259.5049 20.704738 5255 25.3125 C 5250.3588 30.059624 5248.0478 39.3977 5246.0625 61.5 C 5244.9907 73.43289 5242.315 82.832353 5238.6875 87.375 L 5236.375 90.25 L 5231.9375 88.28125 z "/>
</svg>
