<svg xmlns="http://www.w3.org/2000/svg"
     width="57.5" height="64.0"
     viewBox="2306.8890 14.3189 81.9813 91.2737">
  <path d="M 2368,92.5 C 2368,90.989951 2367.4294,90 2366.559,90 2364.4491,90 2363.6461,91.868701 2365.0364,93.543805 2366.8403,95.717372 2368,95.308907 2368,92.5 z M 2369.6681,26.422459 C 2370.0011,25.554811 2369.5502,24.121662 2368.6663,23.237685 2367.277,21.848408 2366.716,21.814033 2364.5295,22.984206 2361.8209,24.433798 2361.2094,26.514338 2363.25,27.337719 2365.8716,28.395546 2369.0869,27.937017 2369.6681,26.422459 z M 2339.9004,95.606039 C 2341.8658,93.513899 2341.9836,92.946555 2340.8341,91.106039 2339.1844,88.46444 2337.3823,88.417152 2336.011,90.979481 2334.9429,92.975182 2335.6036,98 2336.9341,98 2337.3286,98 2338.6634,96.922717 2339.9004,95.606039 z M 2336,27.654988 C 2336,25.6142 2332.2781,22.679303 2330.5372,23.347334 2328.6988,24.052824 2328.5406,26.140638 2330.2,27.8 2331.8281,29.428079 2336,29.323772 2336,27.654988 z M 2334.2,99.8 C 2332.1182,97.718205 2332.8779,93.464737 2336.8898,84.739765 2339.0291,80.087111 2341.0696,74.959416 2341.4243,73.344886 2342.6914,67.57554 2336.8221,58.994536 2331.6151,59.003738 2327.9308,59.010249 2322.9068,62.866894 2321.1582,67.030979 2319.2096,71.671085 2317.7598,72.32444 2318.9988,68.004024 2320.4367,62.990358 2323.7981,59.242513 2328.4504,57.465791 2332.661,55.857765 2333.06,55.866111 2336.679,57.63791 2342.0938,60.288897 2345.2395,66.103467 2344.4489,72 2344.1171,74.475 2342.9813,77.986646 2341.9249,79.803657 2340.1488,82.858461 2340.121,83.333258 2341.5552,86.106838 2343.9512,90.740108 2350.6988,97 2353.2971,97 2356.9386,97 2363.0485,90.057124 2363.7034,85.174962 2364.1651,81.732207 2363.7496,80.3438 2361.0463,76.296996 2357.174,70.50003 2357.3178,66.072069 2361.559,60.511472 2367.4342,52.808723 2373.9987,52.666861 2378.2054,60.151735 2380.0373,63.411046 2380.5463,63.794289 2381.0691,62.307814 2381.9415,59.82732 2379.3687,52.689911 2376.4778,49.57052 2373.4139,46.264507 2370.8548,46.326395 2365.6802,49.831644 2359.5074,54.01305 2358.2195,54.281204 2356.6206,51.717852 2354.8351,48.855185 2353.8657,37.529553 2354.9823,32.578378 2355.964,28.225834 2354.9449,25.843664 2351.257,23.869925 2349.1629,22.749222 2348.6005,22.937921 2345.8564,25.682078 2343.1954,28.343111 2342.9463,29.031141 2343.9591,30.923553 2345.7715,34.310011 2346.4386,46.140954 2345.0538,50.33694 2343.5564,54.874182 2342.1137,54.95245 2334.6356,50.902136 2328.2008,47.416927 2325.9046,47.526489 2321.1269,51.546697 2315.9308,55.918898 2312.1438,65.531742 2314.1447,69.270333 2315.5089,71.819364 2314.3505,72.779029 2312.3383,70.766823 2310.9468,69.375402 2310.889,68.497926 2311.9191,64.407149 2313.3681,58.652584 2317.4962,51.375262 2320.3823,49.487692 2321.547,48.725935 2324.1282,47.42333 2326.1181,46.593014 2329.6058,45.137796 2329.9583,45.195158 2335.893,48.183509 2339.2792,49.888597 2342.339,50.994324 2342.6927,50.640678 2343.9629,49.370474 2344.184,39.397016 2343.0364,35.135339 L 2341.8654,30.786372 2336.68,31.434246 C 2331.0135,32.142228 2328.6738,31.093368 2327.5647,27.347961 2327.125,25.86321 2327.6736,24.328365 2329.3341,22.398011 2331.9788,19.323363 2331.2417,19.155288 2338.5897,24.50861 2340.5341,25.925254 2340.9857,25.787453 2345.0897,22.52522 2347.5153,20.597026 2349.9841,19.015044 2350.5757,19.009706 2351.1673,19.004368 2352.7083,20.125 2354,21.5 2356.895,24.581553 2357.0542,24.581553 2361.5951,21.5 2366.2827,18.318915 2368.3425,18.34868 2370.9274,21.634859 2373.3505,24.715283 2373.4847,25.954927 2371.6645,28.444194 2370.6223,29.869383 2369.0966,30.242239 2364.7198,30.141337 2361.6347,30.070216 2358.815,30.490389 2358.4536,31.075055 2357.2888,32.959813 2357.564,47.964044 2358.7859,49.185884 2359.655,50.054955 2361.2148,49.543793 2365.1404,47.103496 2372.5976,42.467863 2377.6848,44.497582 2382.5189,54.037291 2384.7224,58.385753 2384.8703,59.410726 2383.9753,64.130068 2382.9229,69.679688 2380.4701,74.408593 2379.0874,73.554029 2378.6338,73.273692 2377.9586,71.142632 2377.5869,68.81834 2376.829,64.078538 2373.758,58.504841 2371.4073,57.60281 2369.1462,56.735141 2366.3852,58.539227 2363.5191,62.757105 2360.3529,67.416528 2360.3489,70.008308 2363.5,75 2364.875,77.178141 2366,79.223033 2366,79.544205 2366,79.865377 2367.125,82.587655 2368.5,85.593712 2371.2394,91.582616 2371.5522,94.09969 2369.9331,97.125035 2368.8714,99.108787 2368.8486,99.108216 2365.2904,97.00886 L 2361.7147,94.899132 2359.0526,97.449566 C 2355.8149,100.55153 2352.2863,100.69151 2347.5641,97.905297 L 2344.0138,95.810595 2340.9302,98.405297 C 2337.518,101.27648 2335.9926,101.59259 2334.2,99.8 z"/>
</svg>
