<svg xmlns="http://www.w3.org/2000/svg"
     width="36.2" height="64.0"
     viewBox="6068.7875 16.0006 49.2125 86.9994">
  <path d="M6096.9268 95.75C6095.7116 93.9625 6092.7344 90.616481 6090.3107 88.314403L6085.9041 84.128807L6089.3686 77.314403C6094.1394 67.930768 6094.4392 65.949767 6091.7045 61.878352C6087.3307 55.366488 6080.7761 57.339034 6079.5467 65.537125C6079.1825 67.966067 6078.5206 70.17826 6078.0759 70.45311C6076.2766 71.565118 6073.9733 67.037647 6073.3618 61.186956C6072.7875 55.692575 6072.9875 54.617333 6075.2077 51.262378C6076.5772 49.192948 6078.9045 46.853871 6080.3796 46.06443C6082.8059 44.765901 6083.5591 44.846052 6088.2808 46.905275C6095.4155 50.016873 6096.4418 50.004142 6096.8117 46.799453C6097.2439 43.053812 6095.4433 40.14258 6092.2211 39.377499C6086.0548 37.91335 6084.0837 32.515532 6088.0467 27.946138C6090.8846 24.674015 6098.1175 20.009442 6100.3613 20.004281C6101.9543 20.000617 6102.126 20.514626 6101.5527 23.571014C6101.1842 25.535071 6100.636 27.785071 6100.3344 28.571014C6099.1024 31.781388 6106.0804 28.832899 6109.7434 24.595311C6112.7981 21.061404 6114.0 21.335416 6114.0 25.565741C6114.0 29.788943 6112.8256 32.253268 6108.5136 37.078124C6104.1451 41.966199 6102.9583 50.578441 6105.9796 55.467038C6109.1098 60.531736 6108.5703 65.402074 6103.9378 73.901013C6099.9258 81.26141 6099.9122 81.32326 6101.4518 85.17125C6103.7933 91.023153 6103.2163 99.0 6100.4515 99.0C6099.7281 99.0 6098.142 97.5375 6096.9268 95.75Z M6100.6305 92.520491C6100.9428 91.706761 6100.2116 89.002752 6099.0056 86.511581L6096.813 81.982181L6099.0424 78.241091C6106.4768 65.765741 6106.9835 63.331648 6103.506 56.79919C6101.2622 52.584129 6101.0959 51.502328 6101.8475 46.006726C6102.5705 40.720093 6103.2419 39.329191 6106.8414 35.661596C6109.1893 33.269273 6111.0 30.461098 6111.0 29.212148C6111.0 26.620433 6109.775 26.361285 6107.9453 28.565937C6105.9785 30.935739 6101.0157 33.220011 6099.2805 32.55415C6098.1166 32.107528 6097.8717 30.99311 6098.2756 27.981796C6098.7259 24.624561 6098.5292 24.0 6097.0212 24.0C6095.2405 24.0 6088.0 31.168474 6088.0 32.931452C6088.0 34.540445 6091.0658 37.0 6093.0714 37.0C6094.1321 37.0 6095.9 37.9 6097.0 39.0C6100.5522 42.552216 6099.0825 53.0 6095.0306 53.0C6094.5761 53.0 6092.2457 51.88042 6089.8521 50.512045C6083.762 47.030552 6080.6823 47.238941 6077.5509 51.344391C6074.9319 54.77813 6074.1844 60.16255 6075.9413 62.939206C6076.6499 64.05915 6077.2322 63.580836 6078.5664 60.783C6081.7715 54.062018 6088.5653 53.317863 6093.473 59.150243C6097.0966 63.456682 6096.799 68.134158 6092.3335 77.06015C6089.8412 82.041954 6089.0561 84.518711 6089.882 84.794004C6091.4619 85.320618 6098.0 92.053192 6098.0 93.153401C6098.0 94.580129 6100.0273 94.092345 6100.6305 92.520491Z"/>
</svg>
