<svg xmlns="http://www.w3.org/2000/svg"
     width="29.8" height="64.0"
     viewBox="6680.7188 12.2679 40.0000 85.8409">
  <path d="M 6687.7188,80.75 6687.0625,83.46875 C 6691.712,85.036519 6694.1911,83.407362 6697.8438,76.1875 6700.1813,71.567146 6699.8997,70.038031 6696.0938,66.59375 6693.2466,64.017174 6693.4129,63.190897 6697.7188,58.78125 6701.8152,54.585988 6701.6347,55.793893 6700.875,37 6700.5876,29.89152 6700.8675,26.744783 6702,24.5 6706.0429,16.486071 6711.5154,25.636226 6710.6562,39 6710.3911,43.125 6709.3688,48.580521 6708.4062,51.125 6706.6853,55.674284 6706.71,55.787404 6708.8438,58.5 6711.6878,62.115596 6711.6125,62.543738 6707.5,67.5625 6705.575,69.911709 6704,72.804463 6704,73.96875 6704,76.363481 6706.1925,80.209301 6709.8125,84.1875 6711.7999,86.371419 6712.8547,86.773524 6715.375,86.3125 6715.7217,86.249081 6715.9862,86.108926 6716.3125,86.03125 L 6716.1562,82.78125 C 6714.3486,82.833103 6712.5106,82.058548 6710.875,80.25 6705.4469,74.248179 6705.5006,74.595435 6709.9375,68.71875 6712.1789,65.750024 6714,62.752618 6714,62.0625 6714,61.372381 6713.0248,59.439972 6711.8438,57.78125 6709.7535,54.84563 6709.7401,54.649859 6711.3438,49.5625 6715.6173,36.00556 6710.9968,16.267885 6704.0625,18.46875 6702.923,18.830386 6702,19.549563 6702,20.0625 6702,20.575436 6701.2125,20.999906 6700.25,21 6698.7765,21.000145 6698.4894,22.018734 6698.375,27.5 6698.3004,31.080338 6697.6802,34.680432 6697,35.5 6696.1378,36.538896 6696.0611,37.378514 6696.7812,38.25 6697.3494,38.9375 6698.123,41.138914 6698.5,43.15625 6699.121,46.479584 6698.9693,46.855332 6696.8438,47.15625 6693.9394,47.567426 6694.1144,49.320539 6697.125,50.03125 6700.8221,50.904018 6700.4271,52.822828 6695.5938,57.65625 6693.0662,60.183717 6691,62.983083 6691,63.875 6691,64.766918 6692.35,66.786415 6694,68.34375 6697.5824,71.724988 6697.6109,72.114673 6694.8125,77.09375 6692.7208,80.815462 6689.9655,82.692575 6688.1875,81.59375 6688.1394,81.564005 6687.7999,80.848688 6687.7188,80.75 z M 6685.375,90.75 6684.7188,93.5625 C 6687.2757,94.10882 6690.4955,92.710345 6695.1562,89.15625 L 6700.2188,85.28125 6705.8438,88.65625 C 6709.9005,91.099093 6713.594,92.612634 6716.7188,93.28125 L 6716.5312,90.1875 C 6712.4433,88.953153 6707.0517,86.49861 6704.2188,84.34375 6701.0095,81.902719 6700.8528,81.860987 6698.2188,83.5625 6696.7311,84.523422 6694.5344,86.361207 6693.3438,87.625 6691.2269,89.871927 6687.7769,91.125133 6685.375,90.75 z"/>
</svg>
