<svg xmlns="http://www.w3.org/2000/svg"
     width="27.3" height="64.0"
     viewBox="2568.0140 13.7777 38.0561 89.1373">
  <path d="M 2574.9688 68.09375 L 2575 68.5 L 2575 74.15625 C 2575.1745 74.281986 2575.3312 74.441684 2575.4375 74.71875 C 2575.7578 75.553435 2575.5964 76.313064 2575 77.1875 L 2575 80 L 2574.8438 81.375 C 2575.4601 81.836655 2576.1255 83.4296 2576.4688 85.71875 C 2577.1986 90.585387 2580.1386 97.361491 2582.0312 98.53125 C 2582.6205 98.895345 2584.1574 98.915026 2585.4375 98.59375 C 2587.2743 98.132723 2588.2487 96.532592 2590.0625 91 C 2590.6862 89.097543 2591.3645 87.383899 2591.9688 86.125 L 2592 84 L 2592.9062 78.96875 C 2592.7825 78.288122 2593.0205 77.386021 2593.375 76.375 L 2594.7188 69.09375 C 2594.1819 68.099273 2594.0234 67.020023 2594.25 65.21875 C 2594.5078 63.170021 2594.2773 56.913462 2593.75 51.3125 L 2592.8125 41.125 L 2596.2812 36.5625 C 2600.3947 31.175344 2602.0701 23.663883 2599.6875 21.28125 C 2597.7071 19.300906 2595.1699 20.724798 2590.4375 26.5 C 2588.4089 28.975634 2586.3657 31 2585.875 31 C 2585.3843 31 2583.9252 28.596391 2582.625 25.65625 C 2581.3247 22.716109 2579.5332 20.02399 2578.6562 19.6875 C 2573.6794 17.777677 2572.014 31.222174 2576.3438 38.375 C 2578.621 42.136951 2578.6639 42.45023 2577.375 50.375 C 2576.6471 54.850463 2576.0422 60.673738 2576.0312 63.3125 C 2576.0233 65.220521 2575.6184 66.716699 2574.9688 68.09375 z M 2577.0938 22 C 2578.1076 22 2582.2085 30.709377 2583.3438 35.25 C 2584.2913 39.040048 2585.619 38.698459 2588 34.03125 C 2590.1986 29.721535 2595.3079 24 2596.9688 24 C 2599.6971 24 2597.3059 31.765017 2593.0938 36.5625 L 2590.2188 39.8125 L 2590.7188 57.15625 C 2591.2234 74.690801 2590.4572 81.515496 2586.7812 92.25 C 2586.075 94.3125 2584.9372 96 2584.2188 96 C 2582.5663 96 2580.0497 90.088928 2579.0625 83.84375 C 2577.9701 76.933206 2578.7928 55.611286 2580.4375 48 C 2581.8006 41.691927 2581.7636 41.396655 2579.5 38 C 2575.8164 32.472804 2574.2459 22 2577.0938 22 z "/>
</svg>
