<svg xmlns="http://www.w3.org/2000/svg"
     width="26.5" height="64.0"
     viewBox="2649.3320 15.8125 37.2618 90.0974">
  <path d="M 2679.9375 82.9375 C 2679.8056 82.61681 2679.6156 82.327769 2679.5 82 C 2678.6306 79.536052 2677.2864 76.543972 2676.5 75.34375 C 2675.2562 73.445504 2675.2806 72.158422 2676.625 65.34375 C 2679.4575 50.986382 2676.0783 30.904677 2669.5938 23.40625 L 2666.5 19.8125 L 2663.8125 21.9375 C 2659.2635 25.517474 2656.829 33.811806 2656.25 47.6875 C 2655.7833 58.870933 2655.9615 60.602778 2658.375 68.34375 C 2661.5981 78.681466 2661.6015 79.336154 2658.5938 83.3125 C 2654.3102 88.975583 2653.332 95.938607 2656.2812 99.75 C 2657.9526 101.90992 2659.7511 101.12834 2662.0625 97.25 C 2664.54 93.093078 2666.7442 91 2668.625 91 C 2669.3082 91 2671.9171 93.095251 2674.4062 95.65625 C 2678.2423 99.603037 2679.1627 100.11518 2680.4688 99.03125 C 2681.3162 98.327907 2682 96.907656 2682 95.875 C 2682 94.977887 2682.2005 94.5273 2682.5938 94.3125 L 2682.5 93.5 L 2679.9375 82.9375 z M 2665.4688 24.09375 C 2667.1545 23.882018 2668.8274 25.91135 2670 30 C 2670.6846 32.387132 2670.5662 33.590067 2669.5312 34.625 C 2667.8168 36.339531 2667.2101 36.314642 2663.75 34.4375 C 2660.6163 32.737445 2660.3625 31.131289 2662.5312 26.9375 C 2663.4552 25.150824 2664.4573 24.220789 2665.4688 24.09375 z M 2671.2812 37.3125 C 2672.8391 37.653165 2673.8511 40.972172 2674.4688 47.5625 C 2675.2283 55.668876 2674.5169 63.293969 2672.4375 69.1875 C 2671.2821 72.462332 2671.3322 73.156886 2672.875 75.1875 C 2675.902 79.171414 2678.3054 85.323554 2678.7812 90.25 C 2679.0336 92.8625 2678.9507 95 2678.5625 95 C 2678.1743 95 2675.9944 93.2 2673.75 91 C 2671.5057 88.8 2669.1255 87 2668.4375 87 C 2667.7495 87 2665.2112 89.278343 2662.8125 92.0625 C 2658.2359 97.374547 2657 97.53359 2657 92.8125 C 2657 90.067272 2660.8176 82.860741 2662.9688 81.53125 C 2664.3624 80.669905 2664.2854 75.38115 2662.8438 72.6875 C 2659.004 65.513078 2656.8091 40.784582 2659.75 37.84375 C 2660.4927 37.101015 2661.8609 37.164702 2664.3438 38.0625 C 2667.2774 39.123292 2668.1415 39.122194 2669.5312 37.96875 C 2670.1778 37.432201 2670.762 37.198945 2671.2812 37.3125 z "/>
</svg>
