<svg xmlns="http://www.w3.org/2000/svg"
     width="60.6" height="64.0"
     viewBox="6023.0000 56.0543 48.6593 51.3663">
  <path d="M 6031.5312 83.125 L 6030.2812 86.3125 C 6030.5104 86.361258 6030.6895 86.458108 6030.9375 86.5 C 6037.5946 87.624717 6043.7773 82.974094 6051.2188 71.25 C 6058.3248 60.054325 6066.2397 62.245472 6064.4062 74.90625 C 6063.5231 81.005642 6063.2126 81.380851 6060.4375 79.5625 C 6054.1706 75.45627 6050.0228 79.754905 6050 90.375 C 6049.9916 94.288327 6049.5949 98.102134 6049.125 98.84375 C 6047.7127 101.07231 6044.7542 99.698943 6043.5938 96.28125 C 6041.8493 91.143496 6040.7847 90.57578 6035.625 91.875 C 6032.1144 92.758979 6029.3288 93.03817 6027.6562 92.84375 L 6027 94.53125 C 6027.0895 94.57556 6027.1598 94.578381 6027.25 94.625 C 6030.0562 96.076184 6034.2992 95.979718 6038.5625 94.34375 C 6039.5175 93.977256 6040.5113 94.97743 6041.5 97.34375 C 6042.3167 99.298465 6043.7822 101.34269 6044.75 101.90625 C 6047.3505 103.42058 6048.4826 103.23897 6050.5938 100.90625 C 6052.0388 99.309496 6052.5725 96.910147 6052.8438 90.9375 C 6053.2696 81.560787 6054.2708 80.245403 6059.4688 82.125 C 6064.0462 83.780249 6065.736 82.298276 6066.625 75.8125 C 6067.6593 68.265922 6066.4189 64.167805 6062.5938 62.34375 C 6059.5954 60.913931 6059.0307 60.919769 6056.1562 62.40625 C 6054.4233 63.302356 6052.1565 65.730083 6051.0938 67.78125 C 6046.5549 76.541566 6038.4389 84 6033.4688 84 C 6033.0483 84 6032.2426 83.498656 6031.5312 83.125 z "/>
</svg>
