<svg xmlns="http://www.w3.org/2000/svg"
     width="58.4" height="64.0"
     viewBox="3763.8314 13.9168 79.1686 86.8117">
  <path d="M 3782.625,18.1875 C 3780.2569,17.916832 3778.8187,18.818303 3774.375,23.40625 3769.6589,28.275351 3769,29.467696 3769,33.03125 3769,37.344948 3772.3668,42 3775.4688,42 3777.8333,42 3777.3556,44.939772 3772.9688,58.0625 3768.6666,70.931807 3767.8314,78.388432 3769.8438,85.5625 3772.0591,93.46092 3778.6923,96.728537 3785,93.03125 3791.5256,89.206273 3792.5418,88.644993 3795.25,90.90625 L 3796.4375,87.5 C 3795.119,86.429701 3793.458,85 3793.1562,85 3792.6753,85 3790.7751,86.10779 3788.9062,87.46875 3783.1711,91.645303 3780.8365,92.357042 3778,90.8125 3770.7842,86.883362 3770.1606,73.405817 3776.4062,56.53125 3781.0322,44.032761 3780.9916,40.009732 3776.2188,38.78125 3769.9087,37.157129 3769.9292,31.391313 3776.2812,24.65625 3780.9734,19.681087 3782.2956,19.861179 3781.4688,25.375 3780.7749,30.001718 3782.1061,34 3784.3438,34 3785.0418,34 3787.76,32.615661 3790.4062,30.9375 3793.0524,29.259339 3795.4724,28.128703 3795.75,28.40625 3797.0112,29.667443 3794.5415,34.583371 3790.4688,38.9375 3786.6323,43.038972 3786,44.300347 3786,47.96875 3786,51.588481 3786.5792,52.829207 3789.875,56.125 3793.8954,60.145421 3796.6351,60.840834 3801.3125,59.0625 3805.6589,57.410004 3810.707,52.141975 3813.4375,46.375 L 3816.0938,40.75 3813.8438,35.34375 C 3811.5421,29.79065 3811.5509,29.82343 3814.5,22.75 3815.6865,19.904272 3812.459,21.666055 3811.125,24.59375 3809.5567,28.035945 3809.7096,32.244193 3811.5625,36.875 3813.071,40.645098 3813.0482,40.999323 3810.625,45.78125 3806.4739,53.973032 3799.6064,58.479772 3795.0312,56.03125 3792.5484,54.702441 3789.0055,49.280411 3789,46.8125 3788.998,45.883945 3790.372,43.633945 3792.0625,41.8125 3797.9954,35.420099 3801.0688,26.028291 3797.6562,24.71875 3796.9256,24.438389 3794.3742,25.509529 3791.9688,27.125 3785.1436,31.708899 3783.8589,30.664044 3785.0938,21.5 3785.454,18.82583 3785.1815,18.479708 3782.625,18.1875 z M 3822.0312,22.09375 C 3821.6206,21.920502 3820.5474,22.820946 3819.0625,24.90625 3816.0471,29.14101 3815.4306,33.484664 3817.4062,36.5 3818.3113,37.881424 3819.7189,39 3820.5312,39 3822.3751,39 3822.3523,38.05273 3820.4688,35.5625 3818.4744,32.925684 3818.6212,30.188321 3821,25.75 3822.1854,23.538341 3822.4419,22.266998 3822.0312,22.09375 z M 3797.9688,83.1875 3799.1562,79.84375 C 3798.7526,79.520171 3798.7199,79.567958 3798.25,79.1875 L 3794,75.75 3788.5625,78.59375 C 3785.571,80.160005 3782.8476,81.160119 3782.5,80.8125 3781.1893,79.501848 3781.7094,71.352663 3783.3438,67.59375 L 3785.0312,63.6875 3787.2812,65.75 C 3789.9298,68.196415 3796.024,70.037753 3799.2188,69.34375 3806.0891,67.851282 3812.2608,63.484502 3819.2812,55.21875 3825.0377,48.441125 3827.4718,46.375445 3831.3125,44.9375 3837.6504,42.564597 3839,41.336191 3839,37.875 3839,34.997434 3838.9819,34.991713 3833.25,35.25 3827.9449,35.489052 3827.4843,35.309431 3827.1875,33.21875 3827.0106,31.972433 3827.8114,29.435134 3828.9688,27.5625 3830.1706,25.617975 3830.6399,23.899993 3830.0938,23.5625 3828.5938,22.635517 3824.8528,28.677016 3824.2812,32.9375 3823.843,36.204514 3824.1136,36.973679 3826.0312,38 3827.2883,38.672764 3830.014,39.006087 3832.1562,38.71875 3834.2769,38.434303 3836,38.578961 3836,39.0625 3836,40.280115 3830.5466,43 3828.0938,43 3826.8429,43 3822.0431,47.147347 3815.4688,53.90625 3806.5683,63.056526 3804.1648,64.967702 3800.4375,65.90625 3796.5604,66.882514 3795.4583,66.764922 3791.9375,64.96875 3789.7202,63.837569 3787.1068,61.583189 3786.125,59.96875 3783.6269,55.860989 3782.5075,57.44084 3779.9375,68.5625 3778.0731,76.630786 3777.9681,78.169653 3779.1562,80.65625 3780.8656,84.23335 3783.8054,84.696013 3788.125,82.0625 3792.4935,79.399202 3793.8468,79.543683 3797.9688,83.1875 z"/>
</svg>
