<svg xmlns="http://www.w3.org/2000/svg"
     width="36.1" height="64.0"
     viewBox="85.5000 14.8701 49.2472 87.3788">
  <path d="M 89.5 83.59375 C 89.568538 83.534045 89.693309 83.268897 89.75 83.25 C 91.585162 82.638279 94.756574 86.935116 95.9375 91.625 C 97.377111 97.342211 99.581525 98.248907 102.65625 94.40625 C 103.94058 92.801158 104.99727 90.995155 105 90.375 C 105.00273 89.754844 105.61113 88.733025 106.34375 88.125 C 108.23728 86.553511 111.03297 88.860173 112.40625 93.09375 C 113.88477 97.651755 116.45151 97.988456 118.5625 93.90625 C 120.60952 89.947754 120.06001 84.620756 117 78.75 C 114.71692 74.369826 114.7224 72.592369 117.0625 63 C 117.66629 60.525 118.44231 54.197543 118.8125 48.9375 C 119.47731 39.491503 119.54397 39.321436 123.1875 36.125 C 128.80079 31.200525 130.7472 22.262068 126.5625 20.65625 C 124.58487 19.897359 118.93139 23.891171 116.5 27.75 C 115.4 29.495793 114.05 30.948123 113.5 30.96875 C 112.95 30.989377 111.22158 28.724474 109.65625 25.9375 C 106.36437 20.076478 104.31292 18.87007 102.28125 21.59375 C 101.20893 23.03132 101.00742 25.114092 101.5 30 C 102.06605 35.614594 102.62878 36.987344 105.625 40.09375 L 109.09375 43.6875 L 108.0625 54 C 106.91782 65.154539 104.11012 72.154523 100.53125 72.84375 C 99.460139 73.050027 96.716708 72.21382 94.4375 70.96875 L 90.40625 68.75 L 90.03125 74.84375 C 90.180594 74.285261 90.411051 73.316408 90.46875 73.25 C 90.590753 73.109582 92.487217 73.982287 94.6875 75.1875 L 98.6875 77.375 L 102.0625 75.40625 C 103.919 74.321993 106.23145 72.034253 107.21875 70.34375 C 109.20198 66.947989 110.92107 55.909622 110.96875 46.21875 C 110.99648 40.584289 110.77606 39.875937 108.71875 39.09375 C 105.14193 37.733842 103.90191 35.576086 103.28125 29.5625 C 102.4541 21.548188 104.93764 21.985117 109.03125 30.5625 C 110.75246 34.168963 112.69936 36.929426 113.34375 36.71875 C 113.98814 36.508074 115.66081 34.19714 117.0625 31.5625 C 120.99739 24.166423 126 21.408245 126 26.65625 C 126 28.507758 124.64198 30.641777 121.59375 33.5625 L 117.21875 37.78125 L 116.5 47.625 C 115.72496 58.533145 112.8942 71.093356 109.625 78 C 107.50813 82.472198 107.45592 82.498893 102 82.71875 C 98.740137 82.850112 94.944807 82.29306 92.6875 81.34375 C 91.07892 80.667262 90.218447 80.207204 89.75 79.65625 L 89.5 83.5 L 89.5 83.59375 z M 113.1875 78.5 C 113.62603 78.286165 114.0519 78.614395 114.78125 79.34375 C 115.75606 80.318562 116.54575 83.280996 116.8125 86.96875 C 117.10505 91.013214 116.8763 93 116.125 93 C 115.5089 93 115 92.345301 115 91.5625 C 115 90.779699 113.83986 88.791608 112.4375 87.125 C 109.96385 84.185235 109.94047 84.01372 111.53125 80.9375 C 112.2815 79.486668 112.74897 78.713835 113.1875 78.5 z M 100.5 86 C 101.875 86 102.98824 86.5625 102.96875 87.25 C 102.94927 87.9375 102.33052 89.576447 101.59375 90.90625 C 100.25618 93.320479 100.24833 93.317707 99.125 91.21875 C 97.275012 87.762015 97.741834 86 100.5 86 z "/>
</svg>
