<svg xmlns="http://www.w3.org/2000/svg"
     width="41.0" height="64.0"
     viewBox="4450.7175 17.1767 35.7825 55.8103">
  <path d="M 4482.4688,51.1875 C 4482.1056,51.586642 4481.7187,52 4481.4688,52 4480.7965,52 4478.2261,53.147343 4475.75,54.53125 4469.0844,58.256771 4467.729,57.285053 4466.5312,48 4465.8241,42.51798 4468.1902,38.75 4472.3438,38.75 4475.2391,38.75 4475.8981,37.545223 4473.5,36.625 4471.1675,35.729925 4467.5491,37.530465 4465.5625,40.5625 4464.1618,42.700243 4463.8782,44.586442 4464.2812,49.03125 4464.566,52.172038 4465.3093,55.701201 4465.9375,56.875 4467.4099,59.626246 4471.7424,59.672174 4476.5,57 4481.0913,54.421257 4482.0994,54.519391 4481.8125,57.5 L 4482.5,52 4482.4688,51.1875 z M 4481.7812,57.8125 C 4481.5262,59.767255 4480.6934,60.703638 4478.5,61.375 4476.85,61.88004 4473.5476,63.141853 4471.1562,64.1875 4467.253,65.894372 4466.5651,65.957669 4464.5312,64.625 4460.927,62.263454 4458.7334,53.952195 4459.4688,45.5625 4460.3632,35.357626 4461.996,29.932935 4465.1562,26.84375 4467.9866,24.077018 4469.1747,24.031215 4475.25,26.5 4476.4922,27.004797 4477,26.752031 4477,25.59375 4477,24.696293 4475.8483,23.505137 4474.4375,22.96875 4469.7239,21.176658 4466.8959,21.833065 4463.4375,25.5 4456.5398,32.813744 4454.7175,55.435607 4460.3438,63.9375 4463.5622,68.800869 4465.1424,68.986956 4474.4062,65.5 4478.3716,64.007447 4480.2707,63.548253 4481,63.90625 L 4481.7812,57.8125 z M 4472.6562,29.53125 C 4472.2094,29.447428 4471.8282,29.484254 4471.625,29.6875 4471.2824,30.030044 4471.5124,30.918145 4472.125,31.65625 4473.4108,33.20547 4476,33.455118 4476,32.03125 4476,31.093972 4473.9968,29.782715 4472.6562,29.53125 z"/>
</svg>
