<svg xmlns="http://www.w3.org/2000/svg"
     width="59.9" height="64.0"
     viewBox="7330.8438 59.0000 38.1562 40.7813">
  <path d="M 7338.0938 78.15625 L 7337.0312 81.5625 C 7337.8215 81.812667 7338.6243 81.792217 7339.8125 81.53125 C 7341.9101 81.070552 7345.7923 78.221223 7350.7812 73.4375 C 7355.0262 69.367204 7359.0048 66.007156 7359.625 66 C 7362.4425 65.967488 7364.5349 72.593372 7363.2188 77.375 L 7362.4375 80.21875 L 7359.4375 77.71875 C 7354.2256 73.33319 7350.5543 77.514777 7350.9062 87.46875 L 7351.125 93.5 L 7347.125 89.59375 C 7343.5686 86.128767 7342.7244 85.789247 7339.5 86.3125 C 7337.7977 86.588741 7336.6311 86.571397 7335.5625 86.34375 L 7334.8438 88.6875 C 7335.8056 88.865106 7336.8315 89 7338.0625 89 C 7341.8985 89 7343.3353 89.593928 7346.5938 92.46875 C 7348.7478 94.369301 7350.95 95.781252 7351.5 95.625 C 7352.05 95.468749 7352.725 92.090344 7353 88.125 C 7353.3311 83.351115 7353.98 80.621859 7354.9375 80.03125 C 7356.6301 78.9873 7359.4985 80.252571 7360.8438 82.65625 C 7361.3953 83.642017 7362.4003 84.061528 7363.375 83.6875 C 7364.6869 83.184086 7365 81.51989 7365 75.03125 C 7365 68.333198 7364.668 66.667969 7363 65 C 7361.9 63.9 7360.5093 63 7359.9062 63 C 7359.3032 63 7354.9528 66.6 7350.25 71 C 7345.161 75.761275 7340.8453 79.001418 7339.5938 79 C 7339.2442 78.999604 7338.6178 78.476728 7338.0938 78.15625 z "/>
</svg>
