<svg xmlns="http://www.w3.org/2000/svg"
     width="44.6" height="64.0"
     viewBox="1561.4351 15.9999 60.5649 86.9954">
  <path d="M1566.9789 98.319551C1566.9672 97.868798 1566.6901 91.86017 1566.3629 84.967044C1565.4351 65.418572 1568.1915 56.907082 1576.5856 53.399802L1579.7645 52.071553L1580.1916 42.285777C1580.5228 34.696185 1581.1194 31.537384 1582.8497 28.210771C1585.4464 23.218348 1590.1194 20.00904 1594.7997 20.003738C1598.1768 19.999912 1604.0 22.426172 1604.0 23.837119C1604.0 25.860859 1607.9864 28.725251 1610.2111 28.299986C1613.819 27.610281 1618.0 32.274128 1618.0 36.98848C1618.0 41.970723 1614.3222 47.397139 1610.6572 47.822258C1607.1065 48.234126 1605.186 46.599627 1602.8688 41.193902C1601.3622 37.679206 1600.5843 36.920046 1598.7554 37.179739C1596.1074 37.555746 1593.0644 43.100628 1592.2747 48.988975C1591.8178 52.395113 1592.1555 53.309302 1594.8748 56.028652C1597.6774 58.831253 1598.0 59.770372 1598.0 65.126583C1598.0 68.628007 1597.3427 72.37048 1596.4113 74.171496L1594.8226 77.243671L1590.6152 72.462255C1586.9844 68.33612 1586.0422 67.772594 1583.7402 68.350353C1579.7948 69.340599 1576.4737 75.913669 1573.8122 88.0C1571.7653 97.29531 1571.2419 98.536663 1569.25 98.819551C1568.0125 98.995304 1566.9905 98.770304 1566.9789 98.319551Z M1572.4907 84.5C1576.3713 66.701584 1582.6123 61.49046 1590.735 69.266386C1592.5143 70.969686 1594.2396 72.093717 1594.5691 71.764235C1594.8986 71.434752 1595.4048 69.401247 1595.6939 67.245335C1596.3025 62.708178 1594.0657 57.473007 1591.1189 56.537749C1588.628 55.747162 1588.0371 53.183669 1589.0705 47.651806C1590.3214 40.95614 1592.5213 36.359789 1595.3675 34.494853C1599.1348 32.026436 1601.5635 33.384351 1604.506 39.604253C1607.7138 46.385068 1609.5232 47.255659 1612.7094 43.551441C1614.5624 41.397163 1615.0354 39.833485 1614.8018 36.633982C1614.5502 33.187488 1614.1167 32.445659 1612.195 32.173236C1610.9272 31.993516 1609.2698 32.361131 1608.5119 32.990157C1607.4249 33.892264 1606.75 33.538924 1605.3169 31.317371C1600.1145 23.252824 1597.1397 21.959933 1590.5219 24.887274C1586.4866 26.672292 1585.9729 27.324606 1584.293 32.796835C1582.8969 37.344624 1582.6026 40.510994 1583.0536 46.130467C1583.7788 55.165674 1583.5181 56.0 1579.9697 56.0C1576.3516 56.0 1571.4174 60.153957 1570.1314 64.282726C1568.4454 69.695222 1568.2364 96.967203 1569.9036 94.0C1570.3672 93.175 1571.5313 88.9 1572.4907 84.5Z"/>
</svg>
