<svg xmlns="http://www.w3.org/2000/svg"
     width="28.1" height="64.0"
     viewBox="3863.5000 12.9658 34.2372 78.0342">
  <path d="M 3867.5 20.1875 L 3867.5 24.1875 C 3867.9872 23.084372 3868.4616 22.271428 3868.9688 22 C 3869.8265 21.540884 3872.1822 20.876209 3874.1875 20.5 C 3877.354 19.905964 3878.0327 20.137239 3879.4375 22.28125 C 3880.3271 23.639075 3881.3223 27.055713 3881.6562 29.875 C 3882.1561 34.095339 3881.8522 35.80055 3879.9062 39.46875 L 3877.5625 43.90625 L 3880.7812 48.46875 C 3883.7827 52.727096 3884.0047 53.628458 3884 61.28125 C 3883.9956 68.263259 3883.6236 70.102745 3881.5312 73.5 C 3880.1762 75.7 3879.0485 78.050388 3879.0312 78.71875 C 3878.9801 80.710006 3885.0563 87 3887.0312 87 C 3888.7764 87 3892.148 83.187918 3893.2188 80 C 3893.7372 78.456401 3890.7931 71.66036 3888.4375 68.96875 C 3887.5881 67.998168 3887.0304 64.290627 3886.9062 58.65625 C 3886.7386 51.05014 3887.028 49.466983 3888.875 46.96875 C 3891.6353 43.235273 3891.5551 42.575261 3888.0625 37.09375 C 3886.4548 34.570599 3884.8284 30.7 3884.4375 28.5 C 3883.5222 23.347474 3881.459 19.328401 3879.0938 18.0625 C 3877.0446 16.965804 3872.0871 17.987212 3867.5 20.1875 z M 3885.0312 38.125 C 3885.5193 38.250981 3885.9868 38.662261 3886.5625 39.4375 C 3887.3553 40.505121 3888 41.934802 3888 42.59375 C 3888 43.252697 3887.1941 44.76426 3886.2188 45.96875 C 3884.4492 48.153962 3884.4594 48.148633 3882.6562 46.15625 C 3880.4949 43.767957 3880.8082 40.119852 3883.3125 38.59375 C 3884.0348 38.153587 3884.5432 37.999019 3885.0312 38.125 z M 3886.2812 72.15625 C 3887.1982 72.165474 3888.1453 73.1529 3889.25 75.09375 C 3891.4633 78.982533 3891.434 80.28229 3889.1562 82.34375 C 3886.8771 84.406349 3886.661 84.402462 3884.8125 82.25 C 3882.0879 79.077436 3881.917 78.092451 3883.5 75.03125 C 3884.4928 73.111498 3885.3643 72.147026 3886.2812 72.15625 z "/>
</svg>
