<svg xmlns="http://www.w3.org/2000/svg"
     width="31.9" height="64.0"
     viewBox="2937.0000 11.4658 48.0842 96.5159">
  <path d="M2952.0677 102.12651C2950.6319 99.44369 2950.723 97.036527 2952.4451 92.155671C2953.8631 88.13652 2953.8257 87.952846 2950.4451 82.338773C2947.7803 77.913521 2947.0 75.520901 2947.0 71.775585C2947.0 66.513723 2950.2482 58.887657 2953.8919 55.595012C2956.3366 53.385879 2956.4859 51.227654 2954.625 45.0C2953.3201 40.633288 2953.1361 40.479281 2948.4136 39.8005C2943.6652 39.117988 2941.0 37.12589 2941.0 34.25921C2941.0 30.532538 2947.3936 21.65514 2952.1692 18.750902C2957.5712 15.465773 2959.6958 16.820592 2958.1158 22.542911C2957.3725 25.234688 2957.4406 26.23185 2958.3926 26.597161C2959.9968 27.212767 2963.7426 25.62637 2967.1502 22.888153C2968.6078 21.716881 2970.2484 21.035493 2970.7961 21.373958C2972.6169 22.499285 2970.2484 29.372572 2967.0531 32.235904C2963.7417 35.203237 2963.1956 38.39411 2965.0759 43.788001C2965.872 46.071622 2966.9737 47.054946 2969.3113 47.568367C2976.9162 49.23869 2981.0842 55.549012 2980.0267 63.791651C2979.4049 68.63861 2976.814 74.0 2975.0936 74.0C2974.0592 74.0 2973.0325 70.487713 2973.0137 66.884859C2972.9994 64.157264 2969.6072 59.0 2967.8274 59.0C2967.2623 59.0 2965.27 60.53 2963.4 62.4C2960.4988 65.301246 2960.0 66.488824 2960.0 70.495708C2960.0 73.078347 2960.6363 76.385847 2961.4139 77.845708C2963.7112 82.158359 2967.0 89.026152 2967.0 89.510863C2967.0 90.186469 2954.8968 103.45233 2953.9533 103.81077C2953.5035 103.98169 2952.6549 103.22377 2952.0677 102.12651Z M2960.5705 82.585223C2955.1784 70.753179 2956.4864 61.715503 2964.2763 56.978153C2969.321 53.910276 2973.8599 57.703234 2975.842 66.643172L2976.6971 70.5L2977.4602 65.762809C2978.8804 56.946293 2975.5604 51.462174 2968.0415 50.204555L2963.583 49.45882L2962.1943 41.698965C2960.7832 33.813536 2961.3435 31.052991 2964.3724 30.968575C2965.731 30.930712 2969.419 26.085649 2968.664 25.33062C2968.371 25.037693 2966.5968 25.96847 2964.7213 27.399013C2958.8316 31.891263 2954.3844 30.071676 2954.8367 23.354785C2955.0467 20.236331 2954.8813 19.993157 2953.1721 20.907895C2950.2589 22.466999 2945.1044 28.735927 2944.3877 31.591556C2943.5284 35.015053 2944.8315 36.064589 2950.4038 36.437107C2952.9775 36.609166 2955.3197 36.986373 2955.6087 37.275346C2956.4842 38.150825 2958.9263 49.289794 2958.9644 52.58102C2958.9911 54.893008 2958.3534 56.008106 2956.4094 57.048502C2952.6649 59.052499 2949.999 64.947575 2950.0053 71.210162C2950.0104 76.357939 2950.4657 77.474955 2955.3818 84.40033C2957.0646 86.770883 2957.1049 87.233618 2955.7633 88.775623C2954.2559 90.508183 2952.7478 98.414442 2953.7362 99.402853C2954.0271 99.69378 2956.447 97.703522 2959.1138 94.980057L2963.9624 90.028303L2960.5705 82.585223Z"/>
</svg>
