<svg xmlns="http://www.w3.org/2000/svg"
     width="33.6" height="64.0"
     viewBox="2858.7493 15.5344 47.2507 89.9463">
  <path d="M 2889 74 C 2887.9013 70.722884 2887.7535 65.491642 2887.375 54.5625 L 2886.6875 34.6875 L 2889.4688 35.40625 C 2899.838 38.008771 2902 37.095835 2902 30.15625 C 2902 26.1826 2901.5213 24.888218 2899.0938 22.5625 C 2895.9331 19.534373 2895.755 19.589262 2889.8125 24.3125 L 2886.125 27.25 L 2881.5 23.46875 L 2876.9062 19.6875 L 2872.4375 24.0625 C 2868.502 27.924922 2867.7307 28.299551 2866 27.21875 C 2864.9186 26.543366 2863.8738 26 2863.6875 26 C 2862.7493 26 2863.677 33.638338 2864.7188 34.5 C 2865.5757 35.208897 2866.0977 42.777575 2866.5 60.5 C 2866.8121 74.25 2867.2006 86.625 2867.375 88 C 2867.5494 89.375 2867.7577 92.4125 2867.8438 94.75 C 2867.9334 97.185772 2868.4997 99 2869.1562 99 C 2870.0008 99 2870.0995 94.071698 2869.5938 80.25 C 2869.0138 64.403223 2868.6651 37.805297 2868.9375 31.8125 C 2869.0354 29.657335 2874.9743 24.006133 2877.1562 24 C 2878.0618 23.997455 2880.1714 25.564062 2881.8438 27.46875 L 2884.875 30.9375 L 2884.9375 54.21875 C 2885.0025 76.672735 2885.6364 93.04552 2886.5938 97.75 C 2887.3528 101.48072 2889 100.27973 2889 96 C 2889 95.364486 2889.0741 94.91001 2889.125 94.375 L 2888.5 92 L 2888.6875 85 C 2888.6726 84.934592 2888.6384 84.87939 2888.625 84.8125 C 2888.0389 81.882003 2887.9088 80.467622 2888.8125 80.375 L 2889 74.0625 C 2888.995 74.047757 2889.005 74.014829 2889 74 z M 2896.375 24.1875 C 2899.3691 24.616473 2901.5382 29.523498 2900.125 32.625 C 2899.5269 33.937672 2898.2555 34.955853 2897.2812 34.90625 C 2893.6149 34.719589 2888.8813 32.857183 2888.3125 31.375 C 2887.4973 29.250578 2893.6225 23.793133 2896.375 24.1875 z M 2875.9375 33 C 2875.1999 33 2875.0426 41.082148 2875.4062 59.34375 C 2875.8854 83.411964 2876.2936 90.335352 2877.5938 96.75 C 2877.8446 97.9875 2878.5221 99 2879.125 99 C 2879.8628 99 2880.0287 97.283505 2879.5938 93.75 C 2879.2382 90.8625 2878.517 76.125 2878 61 C 2877.4831 45.875 2877.0471 33.3875 2877.0312 33.25 C 2877.0153 33.1125 2876.5224 33 2875.9375 33 z "/>
</svg>
