<svg xmlns="http://www.w3.org/2000/svg"
     width="47.4" height="64.0"
     viewBox="1841.9620 15.0000 66.5044 89.8624">
  <path d="M1879.5 98.000153C1879.1306 96.836113 1879.131 93.682929 1879.501 90.993079C1880.0235 87.193927 1879.7713 85.421475 1878.3712 83.051221C1874.8279 77.052948 1871.1585 80.824924 1873.1809 88.386536C1874.522 93.400942 1873.2599 98.0 1870.5427 98.0C1868.8766 98.0 1860.0 85.156651 1860.0 82.746055C1860.0 81.905497 1861.8 79.039519 1864.0 76.377215C1866.2 73.71491 1868.0 70.988472 1868.0 70.318463C1868.0 68.379477 1862.1787 60.282549 1860.2535 59.543792C1859.0339 59.075776 1857.6693 59.805725 1855.7517 61.951876C1853.6024 64.357312 1853.0 66.029348 1853.0 69.589101C1853.0 73.388143 1852.7093 74.090662 1851.2532 73.810249C1848.7622 73.330528 1845.962 67.127783 1846.5986 63.5C1847.4176 58.833203 1849.103 54.794525 1851.7107 51.25C1854.6736 47.222816 1858.2371 46.986071 1863.0 50.5C1867.1007 53.52537 1868.6612 53.642871 1869.5033 50.989671C1870.2544 48.623185 1869.281 38.924564 1867.8144 34.161304C1866.949 31.350714 1866.4473 30.933683 1864.6432 31.524824C1863.4644 31.911042 1860.8999 32.439886 1858.9442 32.700031C1854.4406 33.299112 1852.7638 31.441309 1853.1855 26.319788C1853.4619 22.963028 1853.803 22.512299 1856.0 22.601465C1857.375 22.657271 1860.182 23.44853 1862.2379 24.359818L1865.9757 26.016706L1869.8591 22.508353C1871.9949 20.578759 1874.3414 19.0 1875.0736 19.0C1875.8057 19.0 1877.8712 20.421353 1879.6636 22.158562L1882.9224 25.317124L1886.9398 22.658562C1891.7599 19.468748 1892.4164 19.416444 1895.0152 22.01523C1896.4975 23.497488 1896.8587 24.753729 1896.3809 26.76523C1895.0198 32.49617 1892.0106 33.860479 1885.0332 31.910024C1882.5755 31.222984 1880.0033 37.756627 1880.0016 44.690983C1880.0007 48.096024 1880.442 51.155159 1880.9823 51.489061C1881.5226 51.822963 1883.652 50.949521 1885.7144 49.548078C1890.8821 46.036585 1892.9375 46.329033 1897.6761 51.25C1902.5936 56.356728 1904.4664 61.58088 1903.6126 67.810006C1902.5976 75.214692 1898.0 80.432232 1898.0 74.179315C1898.0 70.396272 1892.9345 60.580232 1890.7768 60.181829C1888.6171 59.783074 1885.0089 65.439924 1885.0037 69.232779C1885.0017 70.735807 1886.5524 74.766453 1888.4498 78.189769L1891.8995 84.41398L1889.3582 89.45699C1887.9605 92.230645 1886.2806 95.625 1885.625 97.0C1884.0686 100.26471 1880.4085 100.86237 1879.5 98.000153Z M1884.8463 93.118627C1885.4859 90.983872 1886.6821 88.678772 1887.5046 87.996182C1889.7022 86.172362 1889.3487 83.875975 1886.1078 78.921445C1881.9368 72.545026 1881.4642 69.118105 1884.0091 63.704058C1886.8627 57.633343 1889.2509 55.528749 1891.7616 56.872413C1894.194 58.174207 1898.4733 63.744344 1899.4752 66.912894C1900.1225 68.960019 1900.3744 69.082341 1901.1369 67.719825C1902.8119 64.726768 1900.4061 57.93556 1896.1703 53.699755C1891.676 49.205398 1889.5525 49.164014 1884.5945 53.474155C1881.2842 56.351793 1880.8568 56.45684 1879.2 54.8C1877.4322 53.032176 1877.6939 39.254712 1879.6016 33.655767C1881.1911 28.990868 1881.1831 28.928866 1878.5464 25.471984C1875.6712 21.702378 1874.3219 21.776821 1870.5801 25.911505C1868.8717 27.799231 1868.7997 28.531222 1869.8572 33.254129C1872.3573 44.418859 1871.8736 57.0 1868.9442 57.0C1868.3363 57.0 1865.4661 55.425 1862.566 53.5C1859.6658 51.575 1856.5888 50.0 1855.7281 50.0C1852.049 50.0 1847.419 63.352515 1849.6906 67.411656C1850.4217 68.718036 1850.9175 67.975397 1852.022 63.919323C1853.5853 58.178107 1856.6125 55.406547 1860.2427 56.392776C1865.0015 57.68562 1871.0 65.221045 1871.0 69.906263C1871.0 70.902949 1869.2 73.763328 1867.0 76.26266C1864.8 78.761992 1863.0 81.604914 1863.0 82.580265C1863.0 84.887763 1870.0306 95.099117 1871.1451 94.410323C1872.4147 93.625675 1872.183 90.373741 1870.585 86.549262C1869.233 83.313422 1869.305 82.979238 1872.2037 79.037613C1875.4011 74.689834 1876.675 74.386463 1878.4286 77.555229C1879.0179 78.620134 1880.2875 80.687817 1881.25 82.15008C1883.1711 85.068749 1883.5717 89.528615 1882.0 90.5C1881.45 90.839919 1881.0 92.441476 1881.0 94.059017C1881.0 98.340955 1883.462 97.739014 1884.8463 93.118627Z M1861.3889 28.5C1861.3278 27.95 1860.0357 26.886779 1858.5176 26.137286C1856.2978 25.041395 1855.6034 25.023639 1854.9712 26.046602C1853.5248 28.386948 1855.0987 30.122917 1858.3776 29.803838C1860.0949 29.636727 1861.45 29.05 1861.3889 28.5Z M1893.8107 26.682339C1893.4506 24.152703 1889.6869 23.185046 1887.445 25.045681C1885.3613 26.774947 1885.6654 28.541462 1888.25 29.722579C1891.3022 31.117383 1894.2153 29.52467 1893.8107 26.682339Z"/>
</svg>
