<svg xmlns="http://www.w3.org/2000/svg"
     width="35.4" height="64.0"
     viewBox="6917.5832 15.2839 48.3233 87.3932">
  <path d="M 6959.8125,83.15625 C 6958.514,82.974397 6955.6411,81.975459 6953.3125,80.8125 6949.208,78.762633 6949,78.436578 6949,74.28125 6949,71.876427 6949.7243,68.460486 6950.625,66.71875 L 6952.2812,63.5625 6954.9688,66.78125 C 6958.0373,70.456744 6959.5975,70.83908 6960.4688,68.09375 6961.9065,63.563605 6957.2333,53.075918 6951.8438,48.75 6947.9487,45.623623 6947.8011,45.309249 6948.3125,41 6949.2602,33.013431 6950.5022,31 6954.4062,31 6959.809,31 6961,30.15501 6961,26.40625 6961,23.915112 6960.348,22.617138 6958.5,21.40625 6956.1961,19.896709 6955.8026,19.886703 6953.5312,21.375 6950.4595,23.387654 6948.6021,23.430402 6947,21.5 6945.1608,19.283908 6942.5454,19.677975 6938.9688,22.6875 6936.1314,25.074962 6935.5715,25.207604 6933.6562,24 6927.1245,19.881359 6926.0599,19.478824 6924.2812,20.59375 6923.0259,21.380586 6922.5,22.978287 6922.5,26.09375 L 6922.5,30.5 6928.1875,30.8125 6933.8438,31.09375 6935.4375,35.71875 C 6938.0596,43.414256 6937.5835,45.555977 6932.1875,50.8125 6926.1715,56.672861 6921.9429,65.332286 6921.6875,72.3125 6921.5832,75.163941 6921.95,77.725 6922.5,78 6923.05,78.275 6924.625,76.213537 6926,73.40625 6931.1193,62.954389 6932.8519,62.621458 6936.4062,71.5 6939.6115,79.50646 6939.6294,81.131282 6936.5625,87.71875 6933.1539,95.039782 6935.0602,95.243357 6938.9375,87.96875 6942.0472,82.134273 6942.09,81.79759 6940.9375,76.21875 6939.5387,69.447014 6935.4938,61 6933.6562,61 6931.9853,61 6927.5608,65.64987 6925.5625,69.5 L 6924,72.5 6924,69.875 C 6923.9884,64.971585 6928.081,57.658387 6933.8438,52.28125 6938.838,47.621276 6939.4578,46.634725 6939.3438,43.28125 6939.2734,41.20977 6938.4679,37.363939 6937.5625,34.75 L 6935.9062,30 6938.7188,26.5 C 6942.0324,22.347099 6944.3365,22.069812 6946.625,25.5625 6948.1978,27.9629 6948.197,28.621879 6946.625,35.9375 6944.4998,45.827455 6945.8307,50.104331 6951.375,51.15625 6952.6463,51.397443 6954.1765,53.788551 6956.0625,58.5 6957.6005,62.342012 6958.6492,65.663358 6958.4062,65.90625 6958.1633,66.149142 6956.6739,65.106347 6955.0625,63.5625 6953.4426,62.010559 6951.4833,60.975897 6950.6875,61.28125 6948.7211,62.035858 6946,70.388377 6946,75.6875 6946,79.761416 6946.2724,80.228156 6950.5938,82.96875 6954.4821,85.434632 6957.5541,86.675577 6960.0938,86.625 L 6959.8125,83.15625 z M 6925.9688,23.09375 C 6926.7136,23.168536 6927.7122,23.784016 6929.125,24.96875 6931.1398,26.658292 6931.2802,27.111041 6930,27.96875 6926.4819,30.325876 6922.9719,28.156593 6924.375,24.5 6924.7604,23.495805 6925.2239,23.018964 6925.9688,23.09375 z M 6955.5,24.5 C 6957.8128,24.5 6958.5,24.961685 6958.5,26.5 6958.5,28.542631 6956.8577,29.152373 6953.6875,28.3125 6950.6684,27.512644 6952.0987,24.5 6955.5,24.5 z M 6960.6562,93.78125 C 6958.6755,93.542212 6956.8121,92.925676 6955.3125,91.71875 6951.178,88.391016 6947.3593,86.646986 6945.625,87.3125 6944.3269,87.810638 6940,94.852524 6940,96.46875 6940,98.677071 6944.1706,94.969992 6945.3125,91.75 6946.2185,89.195316 6947.9062,89.586324 6953.5,93.59375 6957.0159,96.112618 6958.6079,96.811798 6960.9062,96.75 L 6960.6562,93.78125 z"/>
</svg>
