<svg xmlns="http://www.w3.org/2000/svg"
     width="37.9" height="64.0"
     viewBox="3285.0000 12.7898 51.1684 86.5129">
  <path d="M 3289,70.4375 3289,73.03125 C 3289.6139,73.066188 3291.7103,74.526247 3293.75,76.34375 3301.6063,83.344152 3303.6391,83.021379 3307.6562,74.1875 3309.8863,69.283603 3310.2689,67.03191 3310.375,57.84375 3310.4872,48.131371 3310.2931,46.919152 3308.2188,44.34375 3301.9261,36.530927 3300.1543,26.641742 3304.125,21.59375 3306.9929,17.947786 3305.4382,16.789801 3302.4062,20.3125 3300.4354,22.602333 3300,24.216341 3300,29.09375 3300,35.618497 3301.8832,41.150683 3305.3125,44.8125 3307.3076,46.942787 3307.4958,48.184897 3307.4375,57.84375 3307.3838,66.754153 3307.0021,69.192441 3305.1875,72.6875 3303.9933,74.987684 3302.6262,77.127788 3302.125,77.4375 3301.6239,77.747212 3299.0341,76.197395 3296.375,74 3293.7158,71.802604 3291.1332,70 3290.6562,70 3290.2477,70 3289.6178,70.215773 3289,70.4375 z M 3311.0938,20 C 3309.7291,20 3306,28.259589 3306,31.28125 3306,34.209206 3307.8918,39.114517 3309.4688,40.25 3312.4756,42.415029 3313.6235,39.599608 3311.0625,36.34375 3308.6019,33.21564 3308.2861,26.32324 3310.4688,23.4375 3312.1681,21.190632 3312.3878,20 3311.0938,20 z M 3289,78.0625 3289,82 3289,82.125 C 3289.6307,82.314265 3290.8944,83.679936 3292,85.46875 3296.8326,93.288055 3303.557,95.302725 3308.0625,90.25 3314.3031,83.251446 3317.3514,73.816288 3319.5,54.71875 3320.0954,49.427023 3320.4803,48.725342 3323.9375,46.4375 3331.7696,41.254464 3332.1684,30.891596 3324.375,35.0625 3320.4923,37.140479 3318.5485,35.320259 3318.1875,29.1875 3318.0218,26.373127 3318.3996,23.086366 3319.0312,21.90625 3319.9513,20.187268 3319.923,19.862506 3318.8438,20.21875 3315.1312,21.444247 3313.8155,30.783543 3316.5938,36.15625 3318.0778,39.02621 3318.4698,39.214837 3322.5938,38.75 3325.0204,38.476475 3327,38.443902 3327,38.6875 3327,40.496004 3324.2725,43.404073 3321.5,44.5625 3318.364,45.872779 3318.1225,46.353832 3317,53.21875 3313.9327,71.977256 3312.9914,76.078417 3310.6875,80.625 3306.6952,88.503517 3304.9059,90.2765 3301.6875,89.46875 3300.165,89.086627 3297.72,87.122448 3296.25,85.125 3292.822,80.467203 3290.3351,78 3289.0938,78 3289.0821,78 3289.0135,78.060245 3289,78.0625 z"/>
</svg>
