<svg xmlns="http://www.w3.org/2000/svg"
     width="34.4" height="64.0"
     viewBox="2172.0000 11.5071 48.6779 90.6776">
  <path d="M 2176.0625 79.875 L 2176 80 L 2181.375 88.8125 C 2181.2751 88.497729 2181 88.189986 2181 87.875 C 2181 85.794227 2182.233 85.521356 2184.9375 86.96875 C 2186.0842 87.582416 2187.986 87.562613 2190.25 86.9375 C 2197.1401 85.03506 2198.3966 77.41133 2194.625 60.5 C 2193.7664 56.65 2193.0462 49.225 2193.0312 44 C 2193.0086 36.024958 2193.4153 33.655636 2195.4375 29.3125 C 2200.8188 17.75464 2208 19.255761 2208 31.9375 C 2208 34.609305 2207.2778 42.816434 2206.4062 50.15625 C 2205.5346 57.496065 2205.069 65.807682 2205.3438 68.625 C 2205.9106 74.440491 2209.0979 81.41806 2212.0312 83.25 C 2213.1184 83.928896 2214 85.02726 2214 85.6875 C 2214 87.805307 2212.1112 88.138737 2209.5625 86.46875 C 2206.2611 84.305603 2204.1845 85.182554 2200 90.53125 C 2197.0039 94.360935 2196.0041 94.975868 2193 94.90625 C 2187.7007 94.783439 2182.625 92.006278 2181.4688 89.03125 L 2179.5625 93.34375 C 2180.3519 93.44266 2181.3091 93.841577 2183.25 94.8125 C 2185.594 95.985047 2188.7042 97.217958 2190.1875 97.5625 C 2192.8662 98.184705 2199.9751 96.474809 2200.0312 95.1875 C 2200.0473 94.817654 2201.4522 92.96851 2203.1562 91.09375 L 2206.25 87.6875 L 2209.5938 89.5 C 2212.329 90.973016 2213.222 91.066033 2214.4688 90.03125 C 2216.6779 88.197851 2216.3445 83.62689 2213.8438 81.40625 C 2209.9111 77.913978 2207.7364 71.34944 2207.9375 63.59375 C 2208.0385 59.698046 2208.3156 55.15 2208.5625 53.5 C 2208.8095 51.85 2209.2829 44.875 2209.5938 38 C 2210.1119 26.537923 2209.9849 25.23014 2208.0938 22.25 C 2203.8149 15.50711 2197.4069 19.175032 2192.9375 30.9375 C 2190.2612 37.980944 2190.3349 52.312445 2193.125 65.34375 C 2194.9066 73.665176 2195.0496 75.861776 2194.0625 79.15625 C 2192.2409 85.236375 2189.621 85.887055 2181.0625 82.375 C 2179.2129 81.615999 2177.5407 80.743693 2176.0625 79.875 z "/>
</svg>
