<svg xmlns="http://www.w3.org/2000/svg"
     width="27.3" height="64.0"
     viewBox="0.3828 15.0000 38.2710 89.7148">
  <path d="M7.2668768 98.75C4.3827941 95.063848 5.8761267 84.969785 10.099951 79.600063C11.970351 77.222233 12.004308 76.779088 10.626969 72.72223C6.5945467 60.845008 5.7652504 55.586374 6.3198362 45.41036C7.1992645 29.27386 11.816477 19.0 18.189012 19.0C23.928748 19.0 26.4131 27.300197 27.541598 50.246902C28.042427 60.430665 27.83161 64.337035 26.493173 69.673909C24.872564 76.135915 24.880677 76.405371 26.741649 77.927007C31.209372 81.580072 34.653836 90.546729 33.442857 95.371652C32.445877 99.343939 29.338112 98.679883 24.68357 93.5C22.459583 91.025 19.853628 89.0 18.892559 89.0C17.066566 89.0 14.67895 91.658633 11.79651 96.901515C9.9591952 100.24342 8.8041397 100.71478 7.2668768 98.75Z M11.982942 92.033436C15.654813 84.835975 19.842335 84.206026 25.5 90.0C27.648243 92.2 29.764569 94.0 30.202948 94.0C33.130534 94.0 27.987644 81.211722 24.20983 79.097551C22.782814 78.298952 22.750573 77.223747 23.902136 68.836276C25.250405 59.016083 24.640304 39.327299 22.93307 37.563244C22.375332 36.986943 21.130813 37.467931 19.698793 38.813244C16.911017 41.432223 15.273551 41.557535 12.82261 39.339464C11.813431 38.426169 10.652997 38.013413 10.243869 38.422229C9.8347411 38.831044 9.3573995 42.840785 9.18311 47.332764C8.9109353 54.347548 9.351675 57.086114 12.30656 66.740527L15.746899 77.981055L13.358687 80.557979C9.3257887 84.909548 6.65459 93.321257 8.6666667 95.333333C9.7061396 96.372806 9.8341382 96.24544 11.982942 92.033436Z M19.962931 34.539458C21.849368 32.531438 22.162888 31.38199 21.66766 28.289458C20.954692 23.837216 17.471151 20.36409 15.423239 22.063706C14.698345 22.665314 13.348888 25.138047 12.424444 27.558668C10.86046 31.653904 10.858404 32.134952 12.394872 34.479898C14.481117 37.663911 17.008971 37.683805 19.962931 34.539458Z"/>
</svg>
