<svg xmlns="http://www.w3.org/2000/svg"
     width="33.3" height="64.0"
     viewBox="4413.1432 16.7535 44.3907 85.1912">
  <path d="M4425.7458 93.25C4419.9923 87.355118 4418.0657 79.953399 4417.5424 61.732791C4417.1432 47.834891 4421.0596 26.057558 4424.6814 22.035714C4425.836 20.753533 4426.2026 20.774052 4427.6293 22.2007C4429.0844 23.655819 4429.1175 24.560571 4427.9386 30.664986C4426.1392 39.983082 4426.3815 70.897276 4428.3018 77.0C4430.8946 85.239946 4432.2144 83.658471 4438.3814 64.921391C4443.6767 48.832873 4447.0 34.533442 4447.0 27.837625C4447.0 24.617907 4449.6535 22.842639 4451.0856 25.104283C4453.5339 28.970824 4451.3116 56.585547 4447.553 69.0C4445.321 76.372488 4438.3888 91.064434 4435.6924 94.137383C4432.3515 97.944736 4430.135 97.746991 4425.7458 93.25Z M4437.0442 89.396832C4438.5171 86.731351 4444.1714 74.204351 4446.0249 69.5C4448.1039 64.223551 4450.4089 44.709752 4449.9821 36.0L4449.7616 31.5L4448.5551 37.5C4447.4675 42.908542 4441.8836 61.176036 4436.7256 76.199662C4434.4658 82.781725 4431.6733 85.914632 4429.3647 84.457962C4426.2591 82.498437 4423.9619 73.082413 4424.0851 62.817417C4424.1491 57.491996 4423.9833 52.766996 4423.7168 52.317417C4423.4503 51.867838 4423.5844 48.8 4424.0149 45.5C4424.4454 42.2 4425.079 36.125 4425.423 32.0L4426.0484 24.5L4424.1103 28.666936C4420.9527 35.455681 4419.7018 46.415168 4420.228 62.679117C4420.7657 79.295868 4422.8283 86.982166 4428.1879 92.341707C4430.8284 94.982256 4431.227 95.093232 4433.2488 93.750828C4434.4558 92.949388 4436.1637 90.99009 4437.0442 89.396832Z"/>
</svg>
