<svg xmlns="http://www.w3.org/2000/svg"
     width="64.0" height="62.3"
     viewBox="5889.3971 17.9676 90.2941 87.9138">
  <path d="M 5921.1875 23.375 C 5920.8291 23.416204 5920.4983 23.565939 5920.1562 23.8125 C 5915.4907 27.175538 5914.1353 27.374217 5912.1875 24.96875 C 5909.7573 21.967576 5907.8129 22.752581 5904.2812 28.1875 C 5901.7557 32.074084 5901.4931 33.315627 5901.5625 41.03125 C 5901.625 47.964937 5902.1291 50.622984 5904.2188 55.1875 L 5906.7812 60.8125 L 5904.4375 64.65625 C 5901.3457 69.687076 5901.443 71.695067 5905.0312 76.4375 C 5908.5291 81.060279 5908.6674 82.426461 5906.0312 86.75 C 5904.2697 89.639031 5903.7819 89.848186 5901.4688 88.96875 C 5898.0174 87.656585 5893.3971 90.053382 5895.4375 92.09375 C 5895.6737 92.329964 5897.9335 92.357887 5900.4688 92.15625 C 5904.8403 91.808572 5905.2321 91.536636 5908.0312 86.65625 C 5909.6545 83.82584 5910.9949 80.949612 5911 80.28125 C 5911.0052 79.612888 5909.65 77.535496 5908 75.65625 C 5904.4209 71.57991 5904.3636 70.92516 5907.1562 65.15625 C 5909.0593 61.225089 5909.1591 60.321286 5908.0312 57.59375 C 5904.2218 48.380379 5903.0543 36.172556 5905.4375 30.46875 C 5906.984 26.767501 5908.9781 26.063767 5911 28.5 C 5912.601 30.429144 5914.4671 30.382727 5917.5312 28.375 C 5918.8826 27.489526 5920.7273 27.061754 5921.625 27.40625 C 5924.3077 28.435695 5923.0235 42.769353 5919.5 51.1875 L 5916.7188 57.84375 L 5919.3438 62.90625 C 5922.6419 69.213741 5922.6502 70.571793 5919.3438 75.4375 L 5916.6875 79.34375 L 5919.5 84.4375 C 5924.6413 93.745449 5925.0428 93.836906 5931.6562 87.5 C 5934.2393 85.025 5936.7849 83 5937.3125 83 C 5937.8401 83 5940.2383 84.8 5942.625 87 C 5945.0117 89.2 5947.5404 91 5948.25 91 C 5949.8769 91 5957.3102 85.997669 5956.6562 85.34375 C 5956.3896 85.077088 5954.83 85.571945 5953.1562 86.4375 C 5948.7977 88.691412 5947.5793 88.427291 5943.875 84.5 C 5942.0593 82.575 5939.6316 81 5938.5 81 C 5936.0877 81 5932.2618 83.490005 5929.6875 86.71875 C 5927.0358 90.044635 5925.4035 89.539177 5922.4688 84.53125 L 5919.875 80.09375 L 5922.5625 75.46875 C 5925.0813 71.170789 5925.1816 70.57771 5924.0312 66.6875 C 5923.3518 64.389289 5922.0966 61.705469 5921.2188 60.71875 C 5919.8938 59.229647 5919.7914 58.294815 5920.7188 55.21875 C 5923.0658 47.433011 5925.2574 42 5926.0625 42 C 5926.5229 42 5928.5677 43.125 5930.5938 44.5 C 5935.3858 47.7519 5937.3139 47.646931 5941.9688 43.90625 C 5946.2159 40.493122 5948.1019 40.785352 5951.6875 45.34375 C 5953.8817 48.133225 5957.1394 50 5959.7812 50 C 5960.8322 50 5964.5709 48.138999 5968.0938 45.875 C 5975.6912 40.99227 5975.4988 41.155036 5974.7188 40.375 C 5974.3796 40.035876 5971.7634 41.210778 5968.9062 42.96875 C 5959.7427 48.607164 5959.6766 48.590628 5953.4688 42.96875 C 5950.4444 40.229897 5947.3686 38 5946.625 38 C 5945.8815 38 5943.5763 39.35 5941.5 41 C 5937.1027 44.494519 5936.8072 44.53919 5933.2188 42.3125 C 5928.3525 39.292809 5926 36.681789 5926 34.3125 C 5926 31.411039 5927.0747 31.410869 5932.0625 34.25 L 5936 36.5 L 5939.5625 32.75 C 5944.8378 27.190525 5947.6536 26.864415 5951.4375 31.3125 C 5953.1248 33.296039 5955.8105 35.405758 5957.4062 36 C 5959.9161 36.934666 5960.8405 36.713985 5964.375 34.375 C 5966.6221 32.887923 5967.9162 31.472056 5967.25 31.25 C 5966.5839 31.027944 5965.049 31.57139 5963.8125 32.4375 C 5960.3351 34.873157 5958.5861 34.359984 5953.6562 29.5 C 5951.1458 27.025 5948.2393 25 5947.1875 25 C 5945.3952 25 5941.9895 27.185769 5937.5938 31.1875 C 5935.3197 33.257584 5933.8381 32.656069 5926.6562 26.6875 C 5923.6317 24.173907 5922.2628 23.251388 5921.1875 23.375 z M 5970.4062 34.75 C 5969.9041 34.441146 5967.7 35.730946 5965.5 37.59375 C 5962.714 39.952773 5962.0109 40.989638 5963.2188 41 C 5965.3555 41.018331 5971.669 35.526606 5970.4062 34.75 z M 5959.125 90.6875 C 5958.5813 90.789157 5957.825 91.073376 5957 91.5 C 5955.35 92.353248 5954 93.270374 5954 93.53125 C 5954 94.337307 5956.0334 94.054728 5958.0625 92.96875 C 5959.1264 92.399399 5960 91.482273 5960 90.9375 C 5960 90.665114 5959.6687 90.585843 5959.125 90.6875 z M 5912.9688 91.1875 C 5911.2548 91.117539 5909.7614 92.082408 5907.8125 94.03125 C 5905.234 96.609802 5904.3009 96.949309 5901.4062 96.40625 C 5897.9368 95.755376 5896.586 97.252105 5899.5938 98.40625 C 5902.7427 99.614583 5905.9001 98.950687 5908.8125 96.5 C 5910.4466 95.125 5912.1838 94 5912.6562 94 C 5913.1286 94 5915.73 95.575 5918.4375 97.5 C 5924.373 101.71999 5926.2446 101.83278 5930.875 98.25 C 5936.3195 94.03726 5937.0267 94.000525 5943.9062 97.625 C 5951.2648 101.50186 5955.6325 101.88141 5959.375 98.9375 C 5962.6883 96.331326 5962.8396 94.227809 5959.5625 96.375 C 5955.6197 98.958473 5951.885 98.628831 5945.5312 95.1875 C 5942.2861 93.429845 5938.7023 91.997646 5937.5625 92 C 5936.4227 92.002355 5933.475 93.354709 5931 95 C 5928.525 96.645291 5925.9327 97.997645 5925.25 98 C 5924.5672 98.002354 5921.9593 96.425 5919.4375 94.5 C 5916.63 92.357007 5914.6827 91.257461 5912.9688 91.1875 z "/>
</svg>
