<svg xmlns="http://www.w3.org/2000/svg"
     width="23.7" height="64.0"
     viewBox="1497.4210 22.3088 31.6102 85.1994">
  <path d="M 1523.1562,85.75 C 1522.6366,85.041252 1522.1175,84.232364 1521.5938,83.21875 1520.0824,80.294021 1520.0484,78.798556 1521.0625,69.71875 1522.9502,52.815681 1520.7372,33.667346 1516.3438,28.8125 1514.078,26.308846 1510.3609,26.523994 1508.5938,29.25 1507.7917,30.4875 1505.9515,35.062188 1504.5,39.40625 1502.1619,46.403742 1501.903,48.39962 1502.3438,56.90625 1502.6173,62.187188 1503.4974,68.075 1504.3125,70 1505.1275,71.925 1506.1138,75.630306 1506.5,78.21875 1507.0803,82.107831 1506.8533,83.351112 1505.1875,85.46875 1502.9969,88.25366 1501.421,96.636397 1502.4688,99.9375 1503.5714,103.41176 1506.3347,102.31004 1509,97.3125 1510.375,94.734363 1512.0424,92.431128 1512.7188,92.21875 1513.395,92.006371 1514.7355,93.582894 1515.6875,95.6875 1516.6394,97.792106 1518.0805,100.2875 1518.875,101.25 1520.739,103.50821 1521.5714,103.45454 1523.3125,100.96875 1523.6552,100.47952 1524.3242,100.03043 1525.0312,99.625 L 1525,99 1523,86.5 1523.1562,85.75 z M 1511.7812,29.53125 C 1512.0901,29.558568 1512.4573,29.713951 1512.875,29.9375 1515.6475,31.421286 1517.4245,36.981687 1515.6875,38.71875 1514.9526,39.45359 1512.712,40.327733 1510.6875,40.65625 1507.535,41.167834 1507.0125,40.985924 1507.0312,39.375 1507.0432,38.340537 1507.9268,35.55222 1509,33.1875 1510.2725,30.383639 1510.8547,29.449297 1511.7812,29.53125 z M 1516.5,42 C 1518.5,42 1519,42.5 1519,44.5 1519,47.463464 1517.926,47.664242 1515.6562,45.15625 1513.3938,42.656183 1513.5713,42 1516.5,42 z M 1507.4688,46 C 1509.7347,46 1509.8622,46.20218 1508.8438,48.4375 1507.1232,52.213628 1505,52.510456 1505,48.96875 1505,46.475741 1505.3872,46 1507.4688,46 z M 1518.125,67.46875 C 1519.4153,67.759988 1519.2627,69.559613 1517.9688,74.21875 1517.0891,77.386046 1517.2849,78.888918 1519.4062,84.21875 1520.7794,87.668631 1522.0254,92.396229 1522.1562,94.71875 1522.2872,97.041271 1522.1372,99.175399 1521.8438,99.46875 1521.0202,100.29236 1518.3591,96.823148 1517.3125,93.5625 1516.7955,91.951793 1515.5938,90.151793 1514.625,89.5625 1513.1654,88.674711 1512.2663,89.185633 1509.4375,92.5 1507.5597,94.7 1506.0082,97.0625 1506,97.75 1505.9918,98.4375 1505.4938,99 1504.875,99 1504.1483,99 1503.9713,97.893519 1504.375,95.875 1504.7188,94.15625 1505,92.179499 1505,91.5 1505,90.820501 1506.2016,88.514251 1507.6562,86.375 1510.218,82.607492 1510.2558,82.311743 1509.0625,76.5 1508.385,73.2 1507.7458,70.05 1507.6562,69.5 1507.5667,68.95 1508.8973,68.46125 1510.5938,68.40625 1512.29,68.35125 1514.8775,67.992979 1516.3438,67.625 1517.1092,67.432895 1517.6949,67.371671 1518.125,67.46875 z M 1513.7188,48 C 1514.2783,48 1515.925,49.175 1517.375,50.625 1520.932,54.181948 1521.1327,61.229347 1517.75,63.4375 1515.2718,65.055225 1510.4043,65.966886 1507.8438,65.3125 1506.7854,65.042034 1505.9723,63.389423 1505.5625,60.65625 1504.9726,56.722526 1505.2208,56.078113 1508.8125,52.1875 1510.9452,49.877371 1513.1592,48 1513.7188,48 z"/>
</svg>
