<svg xmlns="http://www.w3.org/2000/svg"
     width="36.6" height="64.0"
     viewBox="7362.0000 13.0000 49.7023 86.9333">
  <path d="M7382.0212 93.039673C7380.6595 90.495177 7382.0664 84.119846 7384.8535 80.205715L7386.9549 77.25466L7384.8856 71.12733C7383.7475 67.757299 7382.2524 65.0 7381.5632 65.0C7380.1246 65.0 7377.182 68.026518 7375.5888 71.144688C7373.9998 74.254526 7372.5434 73.944172 7372.1995 70.422473C7371.6925 65.229546 7375.8271 56.063045 7381.2746 50.303126L7386.2374 45.055728L7385.5676 39.694776C7385.0779 35.774962 7384.1202 33.482489 7382.0053 31.166912C7378.405 27.225148 7376.0065 27.177392 7371.6965 30.961656C7367.6665 34.49998 7366.0 33.585202 7366.0 27.834796C7366.0 23.146153 7370.8987 17.0 7374.6357 17.0C7378.0213 17.0 7383.0029 19.324681 7386.203 22.397902L7388.906 24.993734L7393.6019 22.496867C7399.0385 19.606222 7401.676 19.384335 7404.7775 21.556704C7407.4689 23.441805 7407.7023 27.717771 7405.3809 32.609707C7403.7832 35.976677 7402.4212 36.684579 7396.5 37.225794C7393.8488 37.468117 7393.3968 37.991534 7392.6127 41.727422L7391.7254 45.954844L7397.7077 51.727422C7402.6541 56.500372 7403.9055 58.40149 7404.9342 62.705856C7406.1819 67.926634 7405.6395 74.0 7403.9257 74.0C7403.4222 74.0 7402.0884 72.0389 7400.9617 69.641999C7398.778 64.996194 7395.5407 61.0 7393.961 61.0C7391.7553 61.0 7393.039 70.388365 7396.1355 76.903157C7399.8353 84.687064 7400.7767 90.673511 7398.7302 93.402775C7396.9738 95.745085 7395.5469 94.954707 7393.4128 90.457522C7391.2696 85.94095 7389.5048 86.090238 7387.0 91.0C7384.7246 95.460235 7383.5698 95.93329 7382.0212 93.039673Z M7386.9911 87.021456C7388.596 83.146959 7391.2925 83.12402 7394.1291 86.960733C7395.333 88.589136 7396.6592 89.7106 7397.0762 89.452875C7398.0977 88.821562 7396.2891 82.520784 7393.5016 77.0C7390.478 71.011659 7389.7216 60.229413 7392.214 58.645164C7394.7112 57.057799 7399.0744 60.650223 7401.2721 66.103062L7403.0441 70.5L7402.6892 64.74231C7402.2966 58.375782 7400.4852 55.665591 7393.75 51.367807C7390.2486 49.133569 7390.0 48.64854 7390.0 44.052555C7390.0 41.345259 7390.445 37.959743 7390.9889 36.529185C7391.9194 34.08175 7392.264 33.966131 7396.8242 34.571067C7401.6383 35.209676 7401.6821 35.189647 7403.401 31.567398C7405.5489 27.041048 7405.1901 24.903134 7402.0172 23.321277C7399.8626 22.247047 7398.8595 22.467529 7394.0499 25.072508L7388.5475 28.052695L7386.0238 26.017026C7379.334 20.621071 7376.0999 19.011527 7373.7458 19.906556C7370.6492 21.083855 7369.1438 23.030948 7368.3809 26.845308C7367.645 30.524761 7368.2514 30.734002 7371.7271 28.0C7374.9308 25.479968 7377.4124 25.473706 7381.4603 27.97544C7385.4142 30.419112 7387.0605 33.863288 7387.7309 41.094256C7388.2429 46.617262 7388.1969 46.737223 7384.1159 50.513099C7379.9462 54.371044 7375.449 61.362698 7374.3688 65.666742C7373.5479 68.937363 7375.4443 68.589162 7378.0 65.0C7380.8392 61.012761 7383.658 61.108043 7385.3962 65.25C7389.1602 74.219369 7389.9362 79.70352 7387.5699 80.61156C7386.0315 81.201896 7384.0 86.093949 7384.0 89.20824C7384.0 91.78492 7385.4602 90.717364 7386.9911 87.021456Z M7395.9304 30.416177C7393.4736 27.455892 7398.5756 23.17562 7401.3062 25.90622C7402.0979 26.697927 7401.6543 27.0 7399.7 27.0C7398.215 27.0 7397.0 27.45 7397.0 28.0C7397.0 28.55 7398.125 29.0 7399.5 29.0C7402.2929 29.0 7402.8527 30.45881 7400.4182 31.393011C7398.0515 32.301194 7397.3721 32.153312 7395.9304 30.416177Z"/>
</svg>
