<svg xmlns="http://www.w3.org/2000/svg"
     width="41.2" height="64.0"
     viewBox="5194.1017 18.2682 53.9989 83.8881">
  <path d="M 5231.9375,88.28125 5231.625,88.15625 C 5227.416,86.294405 5226.9244,85.789349 5227.5938,83.78125 5230.2389,75.84604 5230.6274,72.627817 5229.5,67.625 5228.5886,63.580208 5228.6409,61.573019 5229.6875,58.09375 5230.4169,55.668838 5231,52.518838 5231,51.09375 5231,49.316678 5232.1208,47.59819 5234.5938,45.625 5240.3253,41.051699 5244.1006,30.744699 5240.5312,29.375 5239.7057,29.058158 5237.3076,30.177628 5235.125,31.90625 5228.5534,37.111087 5225.4024,35.677124 5226.625,28.03125 5227.1325,24.85779 5226.8827,24.015538 5225.2188,23.125 5223.6177,22.268155 5222.6497,22.471965 5220.4688,24.1875 5217.6931,26.370772 5213.0178,35.114775 5213,38.15625 5212.9946,39.07387 5214.8,41.710241 5217,44 5220.0467,47.170991 5221,48.972503 5221,51.53125 5221,55.952022 5219.6565,56.590227 5215.5312,54.15625 5208.9865,50.294735 5205.6312,50.912403 5201.9688,56.6875 5198.6217,61.965341 5198.1017,67.360272 5200.4688,71.9375 5202.8916,76.62292 5204.8441,76.56824 5207.0312,71.75 5208.0896,69.418424 5208.9568,66.9375 5208.9688,66.25 5209.0259,62.997669 5215.6239,66.285787 5217.875,70.6875 5220.5155,75.850738 5218.5898,79.689005 5210.9688,84.5 5206.3528,87.413886 5204.9871,89.708405 5205.0938,94.1875 L 5205.1562,97.5 5206.2188,94.5 C 5207.5946,90.562652 5210.4317,87.538096 5215.5625,84.53125 5220.289,81.761362 5223.5016,76.223513 5222.4375,72.71875 5221.3907,69.270847 5217.1879,64.162533 5214.0938,62.5625 5210.3985,60.651596 5207.8808,62.333386 5206.0312,67.9375 5205.292,70.177136 5204.3739,72 5204,72 5203.6261,72 5202.7724,70.3125 5202.0938,68.25 5200.6803,63.954962 5201.7154,60.023211 5205.25,56.25 5208.0218,53.291133 5209.6048,53.413495 5215,57 5217.475,58.645291 5219.9946,59.997645 5220.5938,60 5222.3133,60.006757 5224,55.308129 5224,50.53125 5224,46.791878 5223.4217,45.561316 5220,42 5215.7539,37.580625 5215.2754,35.794035 5217.1875,31.3125 5220.051,24.600911 5224.6995,22.418097 5223.5938,28.3125 5223.2514,30.137663 5223.4838,33.062663 5224.0938,34.8125 5225.5062,38.864123 5228.9592,39.065233 5234.3438,35.40625 5236.4392,33.982357 5238.4005,33.056708 5238.6875,33.34375 5240.0712,34.72742 5236.4504,41.314198 5232.5625,44.5 5227.4885,48.657764 5226.732,51.883783 5226.5938,69.65625 5226.5228,78.784901 5226.1834,81.13485 5224.75,82.71875 5223.7875,83.782315 5223,85.175207 5223,85.8125 5223,87.043281 5227.4968,90.072844 5231.25,91.6875 L 5231.9375,88.28125 z M 5213.9688,91.6875 C 5213.9311,90.430058 5209.0086,95.94081 5209,97.25 5208.9972,97.6625 5209.607,98 5210.3438,98 5211.6939,98 5214.0355,93.917478 5213.9688,91.6875 z M 5230.75,94.28125 C 5224.1901,91.902407 5221.4878,92.022053 5220.75,94.84375 5220.3767,96.271322 5220.9212,96.630534 5223.4062,96.65625 5224.9956,96.672696 5227.8044,97.357687 5229.9688,98.15625 L 5230.75,94.28125 z"/>
</svg>
