<svg xmlns="http://www.w3.org/2000/svg"
     width="32.8" height="64.0"
     viewBox="3250.4719 16.3511 42.5281 82.8694">
  <path d="M 3289,70.4375 C 3286.3481,71.389321 3282.3173,74.021807 3280.4688,76.21875 3276.9934,80.348812 3274.12,79.475285 3271.1562,73.375 3268.5437,67.99754 3267.4235,60.832512 3268.4062,55.59375 3269.0994,51.898618 3274.8315,45.157044 3280.2188,41.71875 3283.1758,39.831503 3284.5639,36.31124 3283.5625,33.15625 3282.6737,30.355813 3280.1329,29.703716 3277.3438,31.53125 3273.9407,33.760998 3273,32.629003 3273,26.34375 3273,22.430599 3272.6484,20.960923 3271.7812,21.25 3269.878,21.884424 3269.0496,27.987597 3270.3438,31.84375 3271.9113,36.514966 3274.3054,37.959383 3276.7812,35.71875 3279.2621,33.473529 3281,33.550498 3281,35.90625 3281,37.756563 3274.8235,44 3273,44 3272.4961,44 3270.5145,46.853395 3268.5625,50.34375 3265.7799,55.319581 3265,57.811106 3265,61.84375 3265,68.119749 3267.9885,76.32782 3271.6562,80.15625 3273.1541,81.719655 3275.2172,83 3276.25,83 3277.2828,83 3280.3214,80.75 3283,78 3285.6786,75.25 3288.3534,73 3288.9375,73 3288.9444,73 3288.9927,73.030833 3289,73.03125 L 3289,70.4375 z M 3289,78.0625 C 3288.3864,78.16481 3285.9622,80.513174 3283.4375,83.4375 3278.0327,89.697809 3274.2341,91.726475 3271.125,90.0625 3268.552,88.685499 3264.4691,83.295107 3263.5,80 3263.0956,78.625 3261.8921,75.587514 3260.8438,73.25 3259.7955,70.912486 3258.6926,67.71282 3258.375,66.125 3257.8459,63.47936 3260.6593,49.636789 3262.9688,43.5625 3263.7326,41.553677 3263.4734,40.221134 3261.7188,37.25 3260.0689,34.456408 3259.5012,31.919874 3259.5,27.3125 3259.4983,20.659418 3258.3999,20.351098 3256.9688,26.625 3256.0125,30.817042 3257.1463,36.748222 3259.625,40.53125 3260.9371,42.533792 3260.7734,43.709376 3257.9375,52.5625 3254.5516,63.132742 3254.4719,66.758993 3257.5,73.59375 3263.3206,86.731512 3265.3782,90.25421 3268.3438,92.0625 3273.5228,95.22046 3275.6421,94.59921 3282,88 3285.1793,84.7 3288.247,82 3288.8125,82 3288.85,82 3288.9552,82.111545 3289,82.125 L 3289,82 3289,78.0625 z M 3265.2188,21.25 C 3264.8952,21.511174 3264.492,22.076633 3264.0312,22.9375 3262.6541,25.510622 3262.7168,31.278216 3264.1562,34.4375 3264.7946,35.838379 3265.9196,37 3266.6562,37 3268.274,37 3268.4312,34.399244 3266.875,33.4375 3266.1811,33.008607 3265.9222,30.543209 3266.1875,26.875 3266.5131,22.372954 3266.1893,20.466477 3265.2188,21.25 z"/>
</svg>
