<svg xmlns="http://www.w3.org/2000/svg"
     width="32.1" height="64.0"
     viewBox="2535.5919 15.5776 43.4081 86.4224">
  <path d="M 2574.9688,68.09375 C 2573.7362,70.706397 2571.2419,72.707505 2566.3125,75.09375 2562.3724,77.001142 2561.6669,77.073117 2560.375,75.78125 2558.6603,74.066494 2557.0803,65.018775 2556.4375,53 2555.9497,43.87828 2556.2618,42.908973 2562.3438,34.1875 2566.8899,27.668389 2566.1227,19.872621 2561.0938,21.46875 2558.4405,22.310867 2552.0323,29.005829 2551.9688,31 2551.9424,31.825 2551.3091,31.15 2550.5625,29.5 2549.816,27.85 2547.8266,24.925 2546.125,23 2543.1358,19.618294 2542.9786,19.577605 2541.5312,21.4375 2539.5919,23.929811 2540.4769,32.909362 2543.2188,38.375 2544.8683,41.663534 2545.0676,43.441404 2544.5,49.875 2543.7837,57.993731 2545.5269,70.762273 2548.4375,78.875 2549.8395,82.782836 2549.8511,83.805444 2548.5312,88.25 2547.47,91.823269 2547.3247,93.746437 2548.0625,95.125 2549.1572,97.170537 2549.695,97.047089 2554.625,93.40625 L 2557.75,91.09375 2559.5938,94.5625 C 2560.8607,96.915079 2562.1622,98 2563.6875,98 2566.3433,98 2567.4778,96.065494 2568.4062,90 2569.0855,85.562153 2572.2141,81 2574.5625,81 2574.654,81 2574.7477,81.303034 2574.8438,81.375 L 2575,80 2575,77.1875 C 2574.172,78.401612 2572.3679,79.879344 2568.6875,82.40625 2562.6785,86.53194 2558.2676,87.631348 2555.75,85.65625 2550.5225,81.555117 2546.0439,61.026458 2547.4062,47.40625 2547.9308,42.161703 2547.6816,40.687057 2545.625,36.90625 2542.7379,31.598629 2541.5134,25 2543.4062,25 2544.1094,25 2545.9095,27.25 2547.4062,30 2548.9029,32.75 2550.5297,35 2551.0312,35 2551.5328,35 2552.585,33.7625 2553.375,32.25 2555.4339,28.308376 2560.6232,23.649134 2562,24.5 2563.7094,25.55647 2562.3786,29.561642 2558.3125,35.6875 2556.3612,38.627239 2554.3394,42.955098 2553.8125,45.28125 2552.2319,52.259325 2554.9789,75.928896 2557.625,78.125 2560.1112,80.188356 2564.7166,79.476061 2569.9062,76.25 2573.1434,74.237676 2574.3664,73.699674 2575,74.15625 L 2575,68.5 2574.9688,68.09375 z M 2551.625,85.90625 2553.4375,87.9375 C 2554.9675,89.62807 2555.0601,90.216297 2553.9688,91.53125 2553.2505,92.396594 2551.8516,93.554427 2550.8438,94.09375 2549.3131,94.912921 2549.0016,94.690264 2549.0312,92.78125 2549.0508,91.524399 2549.6442,89.479099 2550.3438,88.21875 L 2551.625,85.90625 z M 2563.625,88.96875 C 2565.754,88.848206 2566.708,91.01392 2565.4062,94.40625 2564.543,96.655644 2563.4736,96.386995 2561.5,93.375 2560.0827,91.211864 2560.0397,90.582558 2561.1562,89.875 2562.0937,89.280979 2562.9153,89.008931 2563.625,88.96875 z"/>
</svg>
