<svg xmlns="http://www.w3.org/2000/svg"
     width="24.7" height="64.0"
     viewBox="3381.0396 13.5658 33.3354 86.4342">
  <path d="M 3407.375 62.28125 C 3407.3982 61.602607 3407.3988 60.942928 3407.5625 60.15625 C 3408.5842 55.24755 3408.3187 54.226736 3404.5938 49 C 3402.8299 46.525 3401.0588 43.946475 3400.6562 43.28125 C 3400.2218 42.56357 3401.3718 40.477333 3403.4688 38.15625 C 3408.2987 32.810018 3408.1656 29.631199 3402.9062 23.65625 C 3397.6476 17.682164 3395.2279 17.565818 3391.0938 23.1875 C 3386.9165 28.867572 3387.0283 32.443752 3391.625 38.34375 L 3395.2812 43 L 3392.5938 46.75 C 3391.117 48.811669 3388.9566 51.691629 3387.8125 53.15625 C 3385.0396 56.706147 3385.9819 60.231937 3391.0625 65.3125 C 3393.2268 67.476828 3395 69.665509 3395 70.1875 C 3395 70.709491 3393.8892 72.594592 3392.5312 74.375 C 3389.8484 77.89257 3387 84.065588 3387 86.375 C 3387 87.170879 3389.3032 89.659463 3392.125 91.90625 C 3394.9469 94.153037 3398.1901 96 3399.3125 96 C 3400.435 96 3403.3237 93.93851 3405.75 91.40625 L 3410 86.9375 L 3410.375 83.21875 C 3405.2769 77.42761 3400.5998 69.830991 3401.6562 68.15625 C 3402.5984 66.662664 3403.3911 66.247821 3404.3438 66.8125 L 3404 66 L 3407.375 62.28125 z M 3395.625 21 C 3397.142 20.997584 3405 29.615728 3405 31.28125 C 3405 32.011059 3403.4867 34.28002 3401.625 36.3125 C 3399.7634 38.344979 3397.8509 39.978664 3397.375 39.96875 C 3396.5593 39.951754 3391.2824 33.995295 3389.625 31.21875 C 3388.7494 29.752028 3393.8853 21.002771 3395.625 21 z M 3397.625 46 C 3399.2739 46 3406.0036 54.769122 3406 56.90625 C 3405.9985 57.789659 3404.311 60.461432 3402.25 62.84375 L 3398.5 67.15625 L 3394.2188 64.0625 C 3391.8614 62.349783 3389.4426 59.845587 3388.8438 58.53125 C 3387.883 56.422557 3388.2532 55.543152 3392.0312 51.0625 C 3394.3861 48.269736 3396.9113 46 3397.625 46 z M 3397.8438 73.21875 C 3399.9123 73.617119 3406.9935 82.961985 3407 85.3125 C 3407.0027 86.317308 3405.6702 88.454808 3404.0625 90.0625 C 3402.4548 91.670192 3400.5403 93 3399.7812 93 C 3397.217 93 3390 86.914181 3390 84.75 C 3390 81.635074 3395.971 72.858098 3397.8438 73.21875 z "/>
</svg>
