<svg xmlns="http://www.w3.org/2000/svg"
     width="63.7" height="64.0"
     viewBox="785.5091 16.1839 85.5906 86.0054">
  <path d="M808.75 92.433376C802.92436 85.503383 802.71336 82.900033 807.49029 76.890731C809.40996 74.475829 810.98496 71.659559 810.99029 70.632353C811.00094 68.584618 803.95494 61.0 802.04198 61.0C800.16666 61.0 796.85823 65.247301 794.96832 70.081023C793.78196 73.115315 792.65452 74.5 791.37029 74.5C789.72741 74.5 789.50907 73.709646 789.57457 68.0C789.6576 60.763347 791.58409 55.727246 796.13159 50.85913C799.44355 47.313664 801.5797 47.447044 808.17613 51.611188C813.46907 54.952472 815.0 54.246771 815.0 48.465643C815.0 42.002794 813.68728 40.0 809.45125 40.0C807.53814 40.0 805.0902 40.551232 804.01139 41.224959C802.5514 42.136737 801.76054 42.160539 800.91806 41.318057C799.21477 39.614766 804.51929 36.545455 809.16628 36.545455C815.39193 36.545455 817.43103 39.413063 817.35188 48.056936C817.30393 53.293726 816.84892 55.579542 815.60735 56.820781C814.03462 58.393107 813.47826 58.258594 806.8673 54.707682C799.07173 50.520482 798.97934 50.536311 794.63645 56.803097C792.95786 59.225316 791.7298 62.771853 791.18158 66.780562C790.71377 70.201253 790.5045 73.0 790.71653 73.0C790.92857 73.0 791.80557 71.3125 792.66542 69.25C797.68212 57.216584 803.79474 55.620061 810.61497 64.561851C814.23437 69.307129 814.10944 73.035976 810.16667 77.94223C808.425 80.109501 807.0 82.716519 807.0 83.735603C807.0 84.754686 808.76481 87.481074 810.92181 89.794241C816.51771 95.795299 818.76776 95.319149 815.41862 88.842636C814.52345 87.111553 814.09579 84.754473 814.43307 83.410636C815.09463 80.774777 820.66316 74.0 822.16815 74.0C823.17982 74.0 827.28981 78.524986 830.25719 82.905813C831.58873 84.871597 831.85885 86.563991 831.3723 89.892387C830.56096 95.442538 832.13309 94.748224 834.98727 88.295868C837.36522 82.92013 837.07246 81.472878 832.5 76.0C830.64127 73.775244 828.85692 71.124554 828.53478 70.109576C827.6323 67.266112 829.61354 63.250933 832.70704 61.654064C835.33333 60.298373 835.70661 60.38503 838.96223 63.106168C840.86645 64.697776 843.11645 65.999987 843.96223 65.999971C846.27314 65.999926 851.08318 59.395892 853.7489 52.563173C855.04993 49.228428 856.56906 45.572779 857.12476 44.439509C857.68045 43.306239 857.99221 41.281239 857.81756 39.939509C857.6429 38.597779 857.95 37.275 858.5 37.0C860.23771 36.131146 860.20514 41.862165 858.44156 47.282531C857.50791 50.152139 855.61067 54.932784 854.22549 57.906186L851.70698 63.312372L854.73191 65.906186C859.05514 69.613279 865.9416 79.457977 866.63431 82.921565C867.09967 85.248334 866.66187 86.429035 864.55114 88.539773C861.19091 91.900003 860.1395 91.019887 862.42017 86.755977C863.739 84.290325 863.92397 82.893174 863.18221 81.0C861.87299 77.658503 851.19671 66.0 849.44596 66.0C848.68353 66.0 847.03378 67.796534 845.77986 69.992298C843.08447 74.712243 842.0 75.047181 842.0 71.159712C842.0 69.025336 841.08025 67.66501 838.29931 65.686345C834.85599 63.236383 834.47349 63.166509 832.79931 64.681621C830.07443 67.147608 830.59808 69.550373 835.10227 75.248598C839.84835 81.252838 839.96768 84.232586 835.79787 92.617649C833.96218 96.309038 832.74613 97.574179 830.81271 97.804095C827.57289 98.189364 826.8863 96.45222 828.11574 90.980416C828.97897 87.138442 828.80558 86.326959 826.37075 82.813497C822.65891 77.457302 822.0095 77.25182 819.33946 80.588691C816.57634 84.041878 816.51412 84.718762 818.57929 88.858488C820.66238 93.034143 819.37117 97.376459 815.92288 97.79191C814.03492 98.019373 812.45131 96.836334 808.75 92.433376Z M840.25057 57.029622C839.57379 55.945914 837.86263 54.300875 836.44801 53.373981C834.04879 51.801946 833.64271 51.799956 830.40406 53.344359C828.49451 54.254961 826.54975 55.0 826.08238 55.0C825.61501 55.0 825.05427 50.559651 824.83629 45.132557C824.46693 35.936743 824.2378 35.022699 821.46998 31.703606C819.83649 29.744777 817.81651 27.164775 816.98113 25.970268C815.60425 24.001473 815.09008 23.899686 811.48113 24.88147C809.29151 25.477138 805.28329 27.547489 802.57398 29.482251C799.86467 31.417013 797.16467 32.981544 796.57398 32.958987C794.73547 32.888778 804.28595 24.819408 808.5 22.882473C814.37099 20.183945 816.4476 20.506485 819.86056 24.647005L822.86673 28.29401L827.77091 25.147005C833.14034 21.701456 835.17332 21.29898 836.87162 23.345308C839.22749 26.183964 839.24897 30.413771 836.92252 33.371368C835.0392 35.765626 834.16402 36.126024 831.34437 35.668457L828.0 35.125741L828.0 42.679502C828.0 50.054618 828.05321 50.21664 830.25 49.530407C834.23874 48.284405 836.23249 48.833 839.60895 52.105596C842.19027 54.607513 843.21845 55.063591 844.28394 54.179317C846.69739 52.176327 851.15807 42.264404 851.64852 37.814735C852.386 31.123877 852.9863 28.873496 853.8854 29.429173C856.56913 31.087807 851.48817 49.049061 846.47652 55.619674C843.5275 59.486038 842.00058 59.831829 840.25057 57.029622Z M797.55344 36.086466C797.20657 35.525214 799.62357 33.704416 802.93328 32.033679C809.74003 28.597642 810.01467 28.527939 809.96115 30.25C809.93978 30.9375 807.63922 32.625 804.8488 34.0C798.16122 37.295351 798.27964 37.261483 797.55344 36.086466Z M834.8 31.8C836.44203 30.157974 836.30671 27.499439 834.50501 26.004155C833.30025 25.004299 832.52368 25.082074 830.50501 26.404763C827.5771 28.323199 827.28155 30.48216 829.75 31.919901C832.07769 33.275654 833.35467 33.245334 834.8 31.8Z M854.79127 89.457933C854.41332 89.079989 854.79968 87.709163 855.64984 86.411653C857.07432 84.237628 857.02942 83.783673 855.07756 80.625495C852.4731 76.411389 850.85242 75.714643 848.1148 77.632143C846.89713 78.485033 846.0 78.665138 846.0 78.056704C846.0 76.735208 849.6659 73.0 850.96287 73.0C852.60347 73.0 860.0 81.303837 860.0 83.145682C860.0 85.267661 855.75063 90.417298 854.79127 89.457933Z"/>
</svg>
