<svg xmlns="http://www.w3.org/2000/svg"
     width="23.7" height="64.0"
     viewBox="7435.6489 20.9805 30.6879 82.7689">
  <path d="M 7451.5335,97.037024 C 7450.5196,95.916661 7449.1973,94.993109 7448.595,94.984687 7445.3703,94.939592 7444.9188,93.355231 7446.8481,88.854354 7448.4799,85.047591 7448.5761,84.0108 7447.4869,81.975436 7446.7814,80.657319 7444.6958,79.02756 7442.8521,78.35375 7439.7225,77.20996 7439.6489,77.083554 7441.7434,76.449404 7443.7442,75.843639 7443.9187,75.322886 7443.3563,71.635084 7443.0095,69.360788 7442.3375,66.742084 7441.8629,65.815741 7440.5941,63.339187 7440.7704,62.99854 7443.1846,63.26179 7444.7951,63.43741 7445.9924,62.448993 7447.7411,59.5 7449.8692,55.91125 7450.0572,54.67896 7449.5697,47.514196 7449.1093,40.749102 7448.6803,39.266971 7446.7631,37.818188 7444.941,36.441268 7444.7458,35.861441 7445.7611,34.842881 7446.7776,33.823202 7447.4566,34.012037 7449.2611,35.816284 7451.1516,37.70641 7451.5545,39.364245 7451.8502,46.468646 7452.1616,53.94942 7451.8991,55.526681 7449.4832,60.69125 7445.594,69.005505 7445.4184,72.321803 7448.5406,78.492792 7451.0679,83.487878 7451.1058,83.811138 7449.5879,87.44375 7447.7665,91.803036 7447.9603,92.334859 7452.128,94.41396 7455.055,95.874162 7455.3132,95.838324 7457.0748,93.727284 7459.3546,90.995384 7459.3578,90.934641 7457.4727,86.223358 7456.103,82.800036 7456.103,81.959658 7457.4727,78.077395 7459.5433,72.208678 7459.3923,67.036784 7456.9672,60.760727 7455.1651,56.0969 7455.0083,54.138439 7455.5852,43.5 7456.1778,32.57383 7456.0635,31.287552 7454.3083,29.125908 7452.4512,26.838724 7452.2671,26.810499 7449.2807,28.354868 7447.5757,29.236547 7445.9766,30.529888 7445.7273,31.22896 7445.4779,31.928032 7444.9075,32.157806 7444.4598,31.739569 7444.0121,31.321332 7444.9546,29.613082 7446.5542,27.943459 7448.7486,25.652973 7450.198,24.980469 7452.4585,25.20389 7457.2005,25.672578 7458.092,28.611268 7457.8571,43 7457.6834,53.638351 7457.9973,56.599632 7459.9645,62.883457 7462.0307,69.483746 7462.1443,70.756595 7461.0352,74.883457 7459.4052,80.948847 7459.4093,83.819369 7461.0535,87.71262 7462.3368,90.751272 7462.2444,91.13033 7459.3471,94.71262 7455.6806,99.245909 7453.9882,99.749379 7451.5335,97.037024 z"/>
</svg>
