<svg xmlns="http://www.w3.org/2000/svg"
     width="45.7" height="64.0"
     viewBox="462.5465 17.0000 64.9535 90.8921">
  <path d="M485.625 99.875C484.46575 94.07874 484.98747 91.317379 488.03728 87.107231C490.61191 83.553054 490.97182 82.349692 490.40006 79.207192C489.52973 74.423687 484.52573 64.415719 482.64309 63.693281C478.36127 62.050195 475.82612 71.816899 476.59929 86.977049C477.13055 97.393843 477.04437 98.155193 475.37048 97.832831C473.08043 97.391808 469.35861 91.899521 467.75792 86.598961C467.07711 84.344533 466.54648 77.775 466.57874 72.0C466.63314 62.26107 466.87339 61.010397 469.8933 54.745257C471.68405 51.030148 473.95816 47.557576 474.94688 47.028431C477.31927 45.758766 482.25059 47.208654 487.18107 50.625484C489.30141 52.094877 491.30169 53.031643 491.62615 52.707188C491.9506 52.382733 492.27995 49.775126 492.35803 46.912507L492.5 41.707745L488.02283 40.603873C480.22305 38.680795 478.37683 30.423167 484.4 24.4C486.27 22.53 488.65672 21.0 489.70383 21.0C491.77514 21.0 498.0 26.850774 498.0 28.797607C498.0 30.890567 500.32479 30.11425 506.38497 25.997617C509.6217 23.798927 513.1252 22.0 514.17051 22.0C517.13782 22.0 520.09815 29.814152 519.17639 35.21364C518.30158 40.338055 515.64663 41.513299 513.85049 37.571205C513.20615 36.157042 511.9046 35.0 510.95814 35.0C509.14422 35.0 503.05893 40.630012 502.91667 42.439838C502.87083 43.022927 502.70667 44.625 502.55185 46.0C502.20182 49.108828 503.58603 53.0 505.04197 53.0C505.64228 53.0 507.60839 51.875 509.41111 50.5C515.15229 46.120991 518.197 47.487445 521.66612 56.0C523.07745 59.463132 523.5 63.149773 523.5 72.0C523.5 82.637243 523.28278 83.950134 520.60463 89.5C517.24756 96.456785 515.27372 99.0 513.23151 99.0C512.12126 99.0 511.92598 98.223968 512.41365 95.75C514.63022 84.505463 513.70893 71.325223 510.34415 66.143098C508.42972 63.194659 507.65957 63.990781 505.16205 71.5C501.96471 81.113341 501.57717 84.558237 503.40024 87.161036C506.0358 90.923817 505.03039 101.0 502.01938 101.0C501.51874 101.0 500.52208 99.804008 499.80457 98.342241C497.80088 94.26018 495.50516 93.232862 493.14991 95.364333C492.06797 96.343473 490.63704 98.462056 489.97005 100.07229C488.38782 103.89214 486.41047 103.80235 485.625 99.875Z M502.98469 93.333407C502.9957 91.055851 502.26191 89.629148 500.37104 88.251748L497.74208 86.336684L501.51356 75.418342C505.81019 62.97974 506.52198 61.788755 509.41249 62.201743C513.07023 62.724351 515.41243 71.549813 515.41406 84.815801L515.41545 96.131602L517.62412 91.126985C522.72401 79.571197 523.02122 65.064777 518.34891 55.75C515.48692 50.044289 513.8867 49.828051 508.60959 54.43392C506.46987 56.301474 504.19212 57.627218 503.54793 57.380018C501.83387 56.722272 500.0 50.972823 500.0 46.256741C500.0 43.159056 500.80614 41.098552 503.29443 37.836197C507.68034 32.085877 511.14774 30.850712 514.38 33.887265C517.49405 36.812766 518.36808 35.347433 516.92572 29.6193C515.15121 22.572089 513.30969 22.618635 504.45651 29.934472C501.75059 32.170512 498.97506 34.0 498.28865 34.0C497.60225 34.0 496.11317 32.182002 494.9796 29.960004C493.84602 27.738007 491.80742 25.413747 490.44938 24.794982C488.34192 23.834758 487.61545 24.012638 485.49011 26.009292C480.14052 31.034971 483.7028 39.841139 490.56465 38.553849C493.60423 37.983621 494.00761 38.182157 494.59929 40.539574C495.50295 44.140052 494.2094 54.215632 492.64201 55.78497C491.59681 56.831463 490.88058 56.693908 488.7828 55.043792C485.30238 52.30609 476.95307 48.804032 475.36206 49.414558C474.65418 49.686198 472.67695 52.677973 470.96822 56.062948C468.17648 61.593352 467.84869 63.195121 467.73573 71.858724C467.60003 82.26641 468.89326 88.45111 471.97978 92.155337L473.93346 94.5L473.97231 83.5C473.99367 77.45 474.46985 70.84851 475.03049 68.830023C477.85582 58.657763 483.39761 58.524254 488.66977 68.501435C490.41314 71.800646 491.87564 75.710942 491.91977 77.190983C491.9639 78.671024 492.45 80.160081 493.0 80.5C494.84529 81.640455 494.02407 84.602761 491.08091 87.422488C487.97556 90.397597 486.32501 94.725012 487.75151 96.15151C488.23447 96.634471 489.59158 95.69112 490.8368 94.006866C492.05949 92.35309 493.84628 91.0 494.80743 91.0C497.85698 91.0 500.99901 93.938975 501.01531 96.806704C501.02729 98.912966 501.24191 99.173058 502.0 98.0C502.53316 97.175 502.97627 95.075033 502.98469 93.333407Z"/>
</svg>
