<svg xmlns="http://www.w3.org/2000/svg"
     width="33.1" height="64.0"
     viewBox="1954.5938 15.8798 45.9624 88.9033">
  <path d="M 1958.5938 82.15625 L 1958.6562 85.53125 C 1960.2146 85.466715 1961.7267 86.009045 1964.25 87.25 C 1972.4901 91.30256 1973.5351 91.426599 1975.8125 88.53125 C 1976.9145 87.130353 1978.3498 83.772722 1979 81.0625 C 1980.0457 76.703398 1979.8517 74.760462 1977.5 64.3125 C 1975.267 54.392264 1974.9784 51.211617 1975.5625 44.53125 C 1976.6056 32.600943 1982.1999 24 1988.9375 24 C 1991.4364 24 1991.8211 24.433877 1992.4062 28.09375 C 1993.1484 32.734921 1991.8257 41.095412 1988.8438 50.75 C 1987.2713 55.840683 1986.8922 59.371005 1987.1562 66.40625 C 1987.4626 74.572585 1987.7949 75.887045 1990.3438 79.21875 C 1993.3833 83.191952 1993.2419 85.778525 1990.0938 83.8125 C 1987.736 82.340009 1985.2064 83.349438 1984.0625 86.21875 C 1982.8434 89.27652 1978.5881 93.629424 1975.0312 95.46875 C 1972.3287 96.866292 1971.7758 96.820207 1967.1562 94.5 C 1963.9979 92.91365 1961.4047 92.165031 1958.8125 92.1875 L 1958.875 95.375 C 1960.8164 95.607163 1963.0078 96.237334 1966.1562 97.5625 C 1973.8079 100.78306 1975.9406 100.08372 1983.3125 91.9375 C 1987.7902 86.989489 1988.8099 86.307869 1990.4375 87.21875 C 1991.9719 88.077418 1992.7125 87.852828 1994.1875 86.03125 C 1996.5562 83.106061 1996.5526 83.164426 1992.75 77.40625 C 1989.6788 72.755488 1989.5022 72.031038 1989.6875 64.1875 C 1989.7954 59.622475 1990.8475 52.258773 1992 47.8125 C 1993.1525 43.366227 1994.3365 36.313701 1994.6562 32.125 C 1995.1579 25.54992 1994.9792 24.172579 1993.3125 22.125 C 1991.735 20.187051 1990.8205 19.879774 1988.2812 20.4375 C 1986.572 20.812904 1983.777 22.42262 1982.0938 24.03125 C 1973.2666 32.466964 1970.9188 46.831213 1975.3438 65.03125 C 1977.8898 75.502707 1977.8916 76.754495 1975.4688 84.6875 C 1974.4274 88.096879 1972.5029 88.159345 1966.4375 84.96875 C 1963.3433 83.341123 1960.0087 82 1959.0312 82 C 1958.959 82 1958.6916 82.139538 1958.5938 82.15625 z "/>
</svg>
