<svg xmlns="http://www.w3.org/2000/svg"
     width="62.1" height="64.0"
     viewBox="875.4123 17.4387 86.0565 88.7150">
  <path d="M 957.15625,80.34375 950.1875,76.90625 C 940.69186,72.236973 936.63425,67.54821 937.1875,61.90625 937.66415,57.04537 939.75017,57.17205 941.96875,62.1875 943.0329,64.593201 944.23654,66.892795 944.625,67.28125 946.49053,69.146778 951.03228,61.150704 950.96875,56.125 950.91792,52.104643 946.00001,45.778248 941.65625,44.125 938.12704,42.781774 937.70854,42.82367 935.1875,44.84375 927.9694,50.627523 928.22277,50.5863 924.96875,47.46875 922.68961,45.285199 922,43.741207 922,40.75 922,34.641009 923.43281,32.813154 927.59375,33.59375 930.19772,34.082258 931.56716,33.793736 933.03125,32.46875 935.54246,30.196136 935.56996,25.800471 933.0625,23.53125 931.19056,21.837174 930.91671,21.861909 926.5,24 L 921.875,26.25 919.625,24.125 C 916.80713,21.477746 914.53747,21.438661 911.28125,24 908.31151,26.335999 906.64687,26.521868 904.8125,24.6875 904.08326,23.958259 902.05234,23.066719 900.3125,22.71875 893.96528,21.449306 889.45309,28.38213 893.96875,32.46875 895.73981,34.071536 896.42597,34.149406 900.53125,33 906.33223,31.375825 907.55691,32.389633 909.21875,40.3125 910.34915,45.701714 910.29232,46.145181 908.21875,48.21875 L 906.03125,50.4375 900.5,47.71875 C 897.45768,46.226659 894.2109,45 893.3125,45 890.20527,45 884.77889,50.26895 882.3125,55.65625 879.41229,61.991135 879.84648,66.508606 883.53125,68.1875 887.11,69.818085 889,68.584381 889,64.59375 889,60.985209 891.74968,58 895.0625,58 898.18206,58 904,66.547324 904,71.125 904,72.354417 902.20784,75.506626 900,78.125 895.17454,83.847702 894.24732,87.510853 896.71875,91.125 897.70171,92.562444 899.625,95.350503 901,97.34375 903.86864,101.50223 907.30779,102.15371 909.0625,98.875 910.13129,96.877951 910.03678,95.141126 908.46875,88.8125 907.73932,85.868467 910.44797,81.087003 912.875,81.03125 913.6274,81.013966 915.77701,82.35 917.65625,84 919.5355,85.65 921.64951,87 922.34375,87 923.03799,87 925.35176,85.2 927.5,83 929.64824,80.8 932.11951,79 933,79 933.88049,79 936.16711,80.602231 938.0625,82.5625 943.07769,87.749355 950.97462,92 955.625,92 956.30012,92 956.84505,91.814413 957.46875,91.75 L 957.375,88.21875 C 956.97446,88.225163 956.72598,88.285439 956.28125,88.28125 949.12298,88.213823 947.36936,87.359776 939.59375,80.34375 936.33752,77.405617 933.15091,75 932.53125,75 931.9116,75 929.64824,76.8 927.5,79 925.35176,81.2 923.13838,82.991103 922.5625,82.96875 921.98662,82.946398 919.93548,81.596398 918.03125,79.96875 916.12703,78.341103 914.09666,77 913.5,77 912.90335,77 910.66797,78.750049 908.5625,80.90625 904.49512,85.071627 904.60525,84.471592 906.65625,94.25 907.09716,96.352079 906.85835,97 905.625,97 904.73757,97 904,96.562112 904,96.03125 904,95.500388 902.61529,93.477734 900.90625,91.53125 897.14303,87.245175 897.43302,85.142573 902.625,79.53125 907.58999,74.165259 908.16556,69.245125 904.5625,62.84375 901.39829,57.222055 900.25048,56.187598 896.1875,55.375 893.51572,54.840646 892.53294,55.279563 889.53125,58.28125 887.5948,60.217708 886,62.542917 886,63.46875 886,64.394584 885.4375,64.957806 884.75,64.71875 884.01223,64.462214 883.51809,62.672702 883.5625,60.3125 883.65253,55.527586 886.75637,50.768494 890.875,49.0625 893.37763,48.025878 894.34486,48.153979 897.65625,49.9375 899.77884,51.080733 902.44521,52.699632 903.59375,53.53125 905.5129,54.920841 905.88818,54.83824 908.34375,52.5625 912.8678,48.369751 913.30706,45.743452 910.90625,37.1875 L 908.78125,29.59375 911.5,27.25 C 914.79803,24.413156 916.64198,24.638449 919.3125,28.21875 921.10138,30.617053 921.18891,31.397061 920.15625,34.84375 918.02698,41.950625 918.6364,45.585092 922.625,50 924.614,52.201585 926.7515,54.000761 927.375,54 927.9985,53.999238 930.525,52.182945 933,49.96875 936.55498,46.788377 938.02942,46.082509 940,46.5625 943.40841,47.392721 945.07148,48.92748 946.65625,52.71875 948.22593,56.473903 948.31054,57.965137 947.0625,59.9375 946.32652,61.100613 945.59747,60.767377 943.1875,58.1875 939.78478,54.544875 937.52135,54.153222 936.03125,56.9375 934.70976,59.406724 934.68973,65.582992 936,68.03125 937.99781,71.76418 948.29819,80.537768 952.71875,82.28125 954.66968,83.050703 956.04579,83.360902 957.25,83.40625 L 957.15625,80.34375 z M 897.0625,25 C 897.50935,25 899.1392,25.469777 900.6875,26.0625 L 903.5,27.15625 901.125,29.0625 C 898.29519,31.36673 895.14385,31.585024 894.34375,29.5 893.75816,27.973976 895.55849,25 897.0625,25 z M 930.625,25 C 932.37727,25 933.14027,27.873486 931.96875,30.0625 931.40137,31.122657 930.6119,31.972362 930.21875,31.9375 928.3233,31.769421 925,29.960729 925,29.09375 925,27.909306 928.99834,25 930.625,25 z M 917.1875,54.375 C 916.00528,54.555416 914.98952,55.452517 913.71875,57.15625 910.92733,60.898712 912.02327,67.824047 916.15625,72.53125 920.5109,77.490919 923.46618,76.88571 926.84375,70.34375 928.67074,66.805098 925.64893,58.370587 921.6875,55.9375 919.71854,54.728174 918.36972,54.194584 917.1875,54.375 z M 917.8125,57.34375 C 920.05867,57.620767 922.72523,60.1624 923.875,64 924.97938,67.686102 924.92059,68.420426 923.40625,70.09375 921.32545,72.393007 921.03897,72.403561 918.46875,70.21875 916.23977,68.324008 913.85325,61.592587 914.65625,59.5 915.29165,57.844176 916.4648,57.17754 917.8125,57.34375 z"/>
</svg>
