<svg xmlns="http://www.w3.org/2000/svg"
     width="23.5" height="64.0"
     viewBox="6112.4894 19.0089 31.8544 86.5757">
  <path d="M 6136.1562 70.625 C 6136.1212 70.509868 6136 70.397416 6136 70.28125 C 6136 69.470337 6136.7135 67.58386 6137.5938 66.09375 C 6139.0828 63.573081 6139.048 62.905536 6137.0938 56.34375 C 6134.1635 46.504125 6134.3484 39.978664 6137.6875 33.84375 L 6140.3438 28.9375 L 6136.9375 26 C 6135.0534 24.389179 6133.1423 23.053602 6132.6875 23.03125 C 6132.2327 23.008897 6130.6093 24.234519 6129.0938 25.75 C 6123.4601 31.383707 6121.7548 46.389944 6125.5312 57.09375 C 6126.7242 60.475199 6126.6117 61.013874 6123.9375 65.125 C 6116.4894 76.574937 6118.1853 95.17181 6127.0938 99.75 C 6130.6637 101.58462 6134.3844 101.252 6137.4062 98.875 C 6138.8843 97.712297 6139.8532 96.540673 6139.5625 96.25 C 6139.2719 95.959327 6138.4821 96.17529 6137.7812 96.75 C 6135.3818 98.717712 6131.698 98.505661 6127 96.09375 C 6120.6658 92.841839 6120.6515 74.312569 6126.9688 64.90625 C 6129.7701 60.735246 6129.7695 60.605925 6128.2812 56.09375 C 6125.8111 48.605193 6125.4946 38.634609 6127.5312 33.1875 C 6130.1301 26.236816 6130.6629 25.788344 6134.0938 27.5625 C 6135.6884 28.387139 6137 29.231237 6137 29.4375 C 6137 29.643762 6135.8696 32.214137 6134.5 35.15625 C 6131.5841 41.419886 6131.4067 45.37193 6133.625 53.53125 C 6136.4059 63.759515 6136.4082 63.68421 6133.1562 68.59375 C 6131.4672 71.143648 6129.3134 75.230128 6128.375 77.6875 C 6125.4122 85.445439 6128.9437 89.994803 6134.25 85.25 C 6136.4692 83.265691 6135.8121 82.49944 6133.125 83.9375 C 6129.7608 85.737975 6128.7191 82.352138 6131.0312 77.1875 C 6132.0652 74.878139 6133.1091 73 6133.3438 73 C 6133.4133 73 6134.2222 73.33268 6134.5312 73.4375 L 6136.1562 70.625 z M 6137.3438 89.03125 C 6135.4439 88.979531 6133 90.131917 6133 91.09375 C 6133 92.404316 6134.3589 92.197961 6136.5625 90.53125 C 6137.6301 89.723742 6137.9862 89.048742 6137.3438 89.03125 z "/>
</svg>
