<svg xmlns="http://www.w3.org/2000/svg"
     width="44.5" height="64.0"
     viewBox="626.2742 17.8240 57.9198 83.2470">
  <path d="M652.70497 93.75C650.36822 90.302435 645.22115 85.0 644.21136 85.0C643.7156 85.0 642.49549 85.9 641.5 87.0C639.24629 89.490327 636.8089 89.551309 634.65499 87.171259C632.35493 84.629725 632.57598 83.052021 635.68709 79.804719C638.87922 76.472856 639.98807 76.337264 642.26797 79.0C644.51886 81.62885 645.44161 81.525339 647.92742 78.365141C650.77912 74.739791 650.54366 72.961375 646.61023 68.41661C643.34279 64.641342 643.15049 64.563154 641.28149 66.25C638.73501 68.548299 637.78088 68.460114 635.17431 65.685549C632.5196 62.859734 632.39058 59.861495 634.82874 57.654988C637.09537 55.60372 638.7037 55.560846 640.64286 57.5C642.92126 59.778398 644.49764 59.336183 647.89641 55.465204C651.47035 51.394705 651.78925 49.024239 649.09138 46.582693C648.04163 45.632688 646.63704 43.537944 645.97005 41.927706C644.61447 38.65504 643.29785 38.307482 640.44113 40.468197C637.65281 42.577174 635.09792 42.332439 632.94356 39.75C630.27424 36.55027 630.54621 34.83216 634.29761 31.196167C638.27924 27.337016 640.40959 27.169289 642.61883 30.541019L644.28377 33.082037L646.7369 30.791019C648.08612 29.530958 649.83383 27.2625 650.62069 25.75C652.66316 21.824001 655.65258 22.234126 659.732 27.0C663.70332 31.639604 665.74072 31.96935 669.0 28.5C672.10533 25.194527 673.2104 25.336667 676.87748 29.513238L679.96214 33.026476L677.23107 36.975287C673.97592 41.681849 672.54856 41.895787 668.7264 38.25L665.84336 35.5L664.17168 37.703043C658.38972 45.322871 656.00211 48.805684 656.01728 49.597861C656.03823 50.692097 659.57163 54.069564 663.04565 56.316067C665.47202 57.885097 665.76281 57.845697 669.25123 55.475251L672.91116 52.988267L675.06013 55.244134C676.24206 56.48486 677.90198 58.532606 678.74884 59.79468C680.19399 61.948409 680.11465 62.27089 677.45719 65.04468C674.00015 68.653061 672.04371 68.749106 668.18237 65.5C666.54827 64.125 664.93875 63.0 664.60564 63.0C663.7813 63.0 660.0 66.83517 660.0 67.671259C660.0 68.040452 659.27179 69.14718 658.38176 70.130656C656.87117 71.799833 657.05412 72.251134 661.13176 76.914369C663.53429 79.661936 665.99276 81.930208 666.59501 81.954973C667.19727 81.979738 668.50451 81.1 669.5 80.0C671.87677 77.373704 672.84003 77.472557 676.19528 80.687091C679.68843 84.03374 679.72659 86.000678 676.36364 89.363636C673.13134 92.595934 672.7829 92.604096 668.29237 89.552702L664.69085 87.105405L661.09542 91.54885C657.07751 96.514433 654.95594 97.071005 652.70497 93.75Z M640.02234 37.182996C641.93281 35.635989 642.09264 35.041612 641.09794 33.182996C639.62526 30.431268 638.23687 30.428846 635.31595 33.17291C633.1509 35.206863 633.10873 35.462663 634.65648 37.17291C636.71233 39.444602 637.22817 39.445571 640.02234 37.182996Z M640.60773 83.426784C641.58428 79.53592 639.50366 78.113251 637.02183 80.974835C634.86197 83.465168 634.60974 84.276405 635.66667 85.333333C637.25937 86.926033 639.99434 85.870721 640.60773 83.426784Z M640.53894 62.936987C640.90028 62.352329 640.39442 60.988322 639.4148 59.905859C637.84177 58.167682 637.46066 58.110764 636.15274 59.418684C634.9362 60.635232 634.90149 61.176378 635.95835 62.449812C637.44688 64.243379 639.59064 64.471381 640.53894 62.936987Z M658.91493 65.869372C661.16172 63.047526 663.0 60.442819 663.0 60.081134C663.0 59.719449 660.94862 57.70878 658.44137 55.61298L653.88274 51.802436L650.47823 55.651218C648.60575 57.768048 646.79967 60.29425 646.46471 61.265001C645.76916 63.280826 651.34682 71.0 653.49896 71.0C654.23096 71.0 656.66815 68.691217 658.91493 65.869372Z M659.57461 40.456197C663.24488 35.127133 663.26324 35.050708 661.51513 32.382751C659.58854 29.442399 654.96393 25.081965 653.71862 25.031601C653.28885 25.014221 652.64977 25.7875 652.29842 26.75C651.94708 27.7125 650.6112 29.772026 649.32981 31.326725C646.57029 34.674818 646.46254 36.037952 648.62059 40.29966C650.92078 44.84208 652.97557 46.946605 654.52859 46.350656C655.26596 46.0677 657.53667 43.415193 659.57461 40.456197Z M659.75156 89.75C660.90666 88.5125 662.15972 86.259177 662.53613 84.742615C663.11671 82.403503 662.59663 81.361337 659.10764 77.872346C654.51575 73.28046 653.75522 73.423919 649.9368 79.602255L647.84944 82.979673L651.54518 87.489836C655.74503 92.615189 656.80472 92.907046 659.75156 89.75Z M674.5 87.0C676.24663 85.069992 676.24663 84.930008 674.5 83.0C672.0669 80.311452 670.19331 80.481631 668.8104 83.516792C667.83956 85.64755 667.95788 86.256204 669.58183 87.484988C672.09231 89.384569 672.36646 89.357534 674.5 87.0Z M675.37894 62.763897C676.24455 61.389355 676.02389 60.579442 674.3194 58.874952C670.55784 55.113391 666.00424 59.137226 669.56721 63.074269C671.64934 65.374996 673.80718 65.259758 675.37894 62.763897Z M674.35761 31.423029C672.40666 28.4455 670.43137 28.325452 668.94951 31.094349C668.01955 32.831991 668.22422 33.609767 670.15119 35.660937L672.47374 38.133177L674.20949 35.989618C675.80681 34.01701 675.81862 33.652819 674.35761 31.423029Z"/>
</svg>
