<svg xmlns="http://www.w3.org/2000/svg"
     width="64.0" height="56.0"
     viewBox="3984.7792 14.9618 102.2421 89.5127">
  <path d="M 4058.5938 20.40625 C 4058.2586 20.140031 4057.1811 20.725216 4055.5625 22.34375 C 4053.5021 24.404117 4053 25.876856 4053 29.875 C 4053 34.002525 4053.5952 35.610371 4056.4688 39.375 L 4059.9062 43.90625 L 4058.4688 48.71875 C 4056.9884 53.569231 4050.1166 62 4047.6562 62 C 4046.9561 62 4044.2366 59.525 4041.625 56.5 C 4036.6856 50.778671 4034.7079 49.995128 4031.4375 52.46875 C 4027.5469 55.411461 4027 54.502892 4027 45.125 C 4027 38.218787 4027.353 35.936036 4028.5938 34.90625 C 4029.975 33.75987 4030.8385 34.304739 4035.0625 38.875 C 4037.7451 41.777521 4040.4037 43.880522 4040.9688 43.53125 C 4045.428 40.775326 4036.1583 21 4030.4062 21 C 4027.3178 21 4021.1326 24.099075 4018.5938 26.90625 C 4016.2324 29.517373 4015.6631 29.511553 4010.2812 26.90625 C 4006.2192 24.939878 4005.7882 24.91769 4003.4688 26.4375 C 4000.6573 28.279624 4000.0952 32.993529 4002.4375 34.9375 C 4003.2261 35.591972 4005.928 35.983353 4008.5312 35.8125 L 4013.25 35.5 L 4014.5938 40 C 4015.7232 43.760448 4015.5927 52 4014.4062 52 C 4014.2206 52 4011.9455 50.65 4009.3438 49 C 4002.8658 44.891798 4000.0745 45.081646 3995.6875 49.9375 C 3991.9201 54.107588 3988.7792 62.464498 3989.6875 65.9375 C 3990.5304 69.16079 3993.5716 68.428637 3995.4062 64.5625 C 3997.0326 61.135107 4001.3301 57 4003.2812 57 C 4004.7195 57 4013 66.185211 4013 67.78125 C 4013 68.5043 4011.0295 71.192313 4008.625 73.78125 C 4001.9921 80.923171 4001.8763 82.953917 4007.5938 92.75 C 4012.1022 100.47451 4016.7773 97.284439 4015.5312 87.3125 C 4014.9771 82.877515 4015.1514 81.465482 4016.5625 79.90625 C 4018.9762 77.239091 4021.0856 77.59779 4023.875 81.125 C 4026.0364 83.857993 4026.1647 84.498483 4025.125 87.96875 C 4023.855 92.207731 4024.9753 97 4027.25 97 C 4029.0457 97 4037 84.713735 4037 81.9375 C 4037 80.705553 4035.3971 77.295989 4033.4375 74.34375 C 4031.1221 70.855471 4030.0783 68.324214 4030.4688 67.09375 C 4031.6175 63.47453 4033.903 63.98619 4039.9062 69.28125 C 4042.9221 71.941318 4044.4157 73.566983 4045.5 75.5 L 4054 69 L 4054.5938 68.9375 L 4059.6875 62.03125 C 4062.8863 57.710231 4066.6898 52.159443 4068.1562 49.6875 C 4070.1884 46.262066 4071.6155 45.012403 4074.1562 44.46875 C 4075.9898 44.076427 4078.0888 43.302682 4078.8125 42.71875 C 4080.9547 40.990421 4083.0213 36.246712 4082.375 34.5625 C 4081.6542 32.684126 4077.7696 32.520852 4074.9375 34.25 C 4073.1954 35.313637 4072.662 35.214226 4071.4375 33.5625 C 4069.8191 31.379486 4069.537 27.869529 4070.875 26.4375 C 4071.3632 25.915 4072.0647 24.484039 4072.4375 23.25 C 4073.7329 18.961817 4070.204 21.948848 4068.4062 26.65625 C 4066.8175 30.81646 4066.7844 31.35805 4068.3125 34.5625 C 4070.0686 38.245018 4072.5095 38.941628 4075.9688 36.78125 C 4077.0362 36.11457 4078.2382 35.92569 4078.6562 36.34375 C 4080.1583 37.845848 4077.2263 40.530675 4072.9062 41.59375 C 4068.8785 42.584872 4068.2442 43.175454 4065.4375 48.6875 C 4060.9577 57.485404 4049.9355 71 4047.25 71 C 4046.5113 71 4043.7069 68.75 4041 66 C 4035.5814 60.495157 4033.5602 59.967018 4029.625 63.0625 C 4025.8203 66.055278 4026.2039 69.778347 4031 76.625 C 4033.2 79.765604 4035 82.648058 4035 83.03125 C 4035 83.414442 4033.677 85.374697 4032.0625 87.40625 C 4030.448 89.437803 4028.9227 91.655925 4028.6875 92.3125 C 4028.4523 92.969074 4027.9047 93.156586 4027.4688 92.75 C 4027.0326 92.343414 4027.4129 90.210314 4028.2812 88 L 4029.8438 83.96875 L 4025.9688 79.09375 C 4023.8364 76.396158 4021.5936 73.854902 4020.9688 73.46875 C 4019.5858 72.614072 4012.1182 79.662938 4011.4062 82.5 C 4011.1278 83.609584 4011.5995 86.232178 4012.4688 88.3125 C 4014.012 92.005812 4013.8323 94 4011.9375 94 C 4011.4199 94 4011 93.508847 4011 92.90625 C 4011 92.303654 4010.1259 90.587201 4009.0625 89.09375 C 4005.149 83.597788 4005.4086 81.818151 4010.9375 75.5 C 4013.7417 72.295515 4016 68.716442 4016 67.5 C 4016 65.017598 4009.9327 56.58401 4007.0312 55.03125 C 4005.9851 54.471328 4004.3112 53.997372 4003.3125 54 C 4000.6664 54.006962 3993.6948 60.739581 3994.4062 62.59375 C 3994.7265 63.428177 3994.5592 63.838243 3994.0625 63.53125 C 3993.5657 63.224258 3992.9197 63.559074 3992.5938 64.25 C 3992.2677 64.940927 3992.2369 63.475 3992.5312 61 C 3993.1115 56.119935 3995.1112 52.761677 3999.3125 49.625 L 4002 47.625 L 4008.0625 51.8125 C 4011.4045 54.118641 4014.4849 56 4014.9062 56 C 4017.6061 56 4018.7638 45.876407 4017.0625 37.0625 C 4016.5921 34.625125 4016.4166 32.049524 4016.6875 31.34375 C 4017.4085 29.464816 4027.5075 23 4029.7188 23 C 4030.7597 23 4032.5463 24.268963 4033.6875 25.8125 C 4036.0452 29.001568 4040.3219 37.99055 4039.75 38.5625 C 4039.542 38.770457 4037.7137 36.93024 4035.6562 34.46875 C 4033.5987 32.00726 4031.2149 30 4030.375 30 C 4029.5351 30 4027.4644 31.379349 4025.7812 33.0625 C 4022.753 36.090643 4022.7388 36.213098 4023.25 44.40625 C 4023.5341 48.960297 4024.2705 53.655948 4024.9062 54.84375 C 4026.0629 57.005115 4029.4147 57.779981 4030.4375 56.125 C 4030.7364 55.641388 4031.9022 55.014012 4033.0312 54.71875 C 4034.538 54.324704 4036.0561 55.234971 4038.7812 58.21875 C 4045.2166 65.264833 4046.2707 66.052763 4048.4062 65.375 C 4050.8135 64.610938 4051.3367 64.071385 4056.5938 57 C 4058.8427 53.975 4060.9801 50.2625 4061.3438 48.75 C 4061.7074 47.2375 4062.2845 44.881876 4062.625 43.5 C 4063.1057 41.548431 4062.6435 40.518612 4060.5938 38.90625 C 4055.0031 34.508622 4053.5647 28.119937 4057.125 23.59375 C 4058.5309 21.806379 4058.9289 20.672469 4058.5938 20.40625 z M 4065.4062 20.4375 C 4064.9113 20.311314 4063.9946 20.962152 4062.6562 22.40625 C 4059.2056 26.129673 4058.8918 33.442812 4062.0312 36.8125 C 4064.2901 39.237237 4065.5595 39.529197 4066.5625 37.90625 C 4066.9296 37.312295 4066.2533 36.187233 4065.0938 35.375 C 4062.4711 33.538017 4062.17 26.553132 4064.5938 23.875 C 4065.4753 22.901018 4066.0185 21.524284 4065.7812 20.8125 C 4065.7092 20.596367 4065.5712 20.479562 4065.4062 20.4375 z M 4005.5 28.28125 C 4006.1301 28.241153 4006.8847 28.306369 4007.6875 28.53125 C 4009.2403 28.966202 4010.8375 29.24647 4011.25 29.15625 C 4012.4308 28.89799 4012.1434 29.73159 4010.4375 31.4375 C 4008.4125 33.462446 4004.1202 33.460782 4003.3438 31.4375 C 4002.6468 29.621244 4003.6097 28.401542 4005.5 28.28125 z "/>
</svg>
