<svg xmlns="http://www.w3.org/2000/svg"
     width="64.0" height="47.6"
     viewBox="4112.1562 72.9947 39.8438 29.6550">
  <path d="M 4118.875 85.0625 L 4118 88.875 C 4118.4923 89.03885 4118.9783 89.283145 4119.4688 89.40625 C 4123.1079 90.319606 4128.483 88.433484 4130.3438 85.59375 C 4134.0111 79.996605 4143.3875 78.725806 4144.625 83.65625 C 4145.4255 86.845679 4144.8002 87.324508 4141.6875 85.90625 C 4137.5776 84.033668 4136 85.302325 4136 90.46875 C 4136 95.192291 4134.6173 96.525343 4133.4688 92.90625 C 4132.9797 91.365795 4132.2362 90.948723 4130.6562 91.34375 C 4121.4764 93.638907 4119.4061 94.095475 4117 93.3125 L 4116.1562 97.09375 C 4119.5407 98.100918 4120.4412 98.111794 4126.0625 96.90625 C 4130.0071 96.060264 4131.7822 96.063917 4133.5312 97 C 4136.6137 98.649713 4138 97.564862 4138 93.5 C 4138 89.411994 4138.9713 88.646532 4142.5312 90 C 4146.1244 91.366132 4148 89.789954 4148 85.34375 C 4148 81.047517 4144.2508 76.994692 4140.2812 77 C 4137.1237 77.004222 4132.5508 79.542917 4128.6875 83.40625 C 4126.0691 86.024646 4122.979 86.490827 4118.875 85.0625 z "/>
</svg>
