<svg xmlns="http://www.w3.org/2000/svg"
     width="39.1" height="64.0"
     viewBox="2002.9916 15.0024 54.0117 88.3064">
  <path d="M2015.5 98.054643C2010.0231 95.812998 2006.9916 88.740789 2007.0244 78.282119C2007.053 69.181534 2008.1737 63.6705 2011.4312 56.611778C2012.8141 53.615084 2014.0668 48.486485 2014.4589 44.216875C2014.8267 40.211157 2015.6614 35.392321 2016.3138 33.508351C2018.1718 28.143074 2025.2025 19.011513 2027.4803 19.005354C2028.5694 19.002409 2031.9444 20.516376 2034.9803 22.369725C2038.0161 24.223074 2042.1604 26.038376 2044.1897 26.403729C2048.3664 27.155675 2053.0033 31.854927 2052.9944 35.326725C2052.9755 42.701405 2047.9646 50.0 2042.9203 50.0C2039.1125 50.0 2037.0 46.714848 2037.0 40.79327C2037.0 36.92942 2036.4451 35.41576 2034.057 32.765777C2031.6833 30.131703 2030.7821 29.703402 2029.3981 30.551549C2023.6707 34.061349 2022.2072 48.442815 2026.1244 62.721187C2027.8571 69.036811 2028.1259 71.938408 2027.5823 78.456783C2026.6516 89.616401 2025.1868 94.707933 2022.2399 97.025939C2019.524 99.162265 2018.5641 99.308768 2015.5 98.054643Z M2021.8691 93.439237C2026.4432 87.624216 2027.0442 70.766037 2023.0794 59.485715C2019.4893 49.271093 2022.4157 32.394621 2028.4643 28.431414C2033.4533 25.16251 2040.0266 32.060134 2039.694 40.215116C2039.4664 45.795418 2041.8542 49.212546 2044.7186 47.405719C2047.9477 45.368818 2050.0908 41.37932 2050.262 37.086293C2050.4653 31.988291 2047.6832 29.0 2042.7336 29.0C2041.059 29.0 2038.2963 27.949804 2036.5944 26.666231C2034.8925 25.382657 2032.0589 23.838537 2030.2976 23.234851C2027.5842 22.30483 2026.7172 22.434637 2024.619 24.085017C2019.6983 27.955692 2018.0361 32.112514 2017.407 42.120844C2016.9355 49.621991 2016.2615 52.601277 2014.0412 57.0C2008.5136 67.950632 2007.8577 83.580269 2012.6081 91.149754C2016.0628 96.654727 2018.8063 97.332971 2021.8691 93.439237Z"/>
</svg>
