<svg xmlns="http://www.w3.org/2000/svg"
     width="41.8" height="64.0"
     viewBox="3733.0000 67.2886 23.6560 36.1774">
  <path d="M 3746.7101,92.991142 C 3747.4033,91.621014 3747.9772,87.757244 3747.9853,84.404988 3747.9968,79.633642 3747.5793,77.929283 3746.063,76.557026 3743.7654,74.477759 3742.5409,75.053335 3740.3826,79.226982 3738.5134,82.841698 3738.8727,91.936738 3740.9853,94.482269 3742.7793,96.643955 3745.1781,96.019145 3746.7101,92.991142 z M 3740.3997,98.234687 C 3738.2026,96.767636 3737,93.016694 3737,87.630841 3737,81.334601 3738.225,77.469554 3741.2409,74.25 3744.0151,71.288567 3746.3887,71.407414 3748.9274,74.634859 3752.656,79.374971 3751.3357,93.257163 3746.7766,97.25 3744.6751,99.090537 3742.2437,99.46597 3740.3997,98.234687 z"/>
</svg>
