<svg xmlns="http://www.w3.org/2000/svg"
     width="30.9" height="64.0"
     viewBox="3922.0000 14.7137 41.0000 84.9147">
  <path d="M 3929.0312 81.53125 L 3928.1562 84.5 C 3929.8503 85.434442 3931.7017 86.183615 3932.9375 86.21875 C 3936.036 86.306848 3940 83.673024 3940 81.53125 C 3940 80.894799 3940.853 78.586152 3941.9062 76.40625 C 3943.4619 73.186688 3944.0114 68.694164 3944.8125 52.46875 C 3945.3548 41.482845 3946.3377 31.01786 3947 29.21875 C 3948.5027 25.136657 3951.4927 23.334671 3953.6875 25.15625 C 3954.9282 26.185872 3955.1098 27.713557 3954.5938 32.75 C 3954.2388 36.214822 3953.5375 40.053733 3953.0625 41.28125 C 3952.5874 42.508766 3951.6773 47.009632 3951.0312 51.28125 C 3949.6991 60.088971 3950.7464 67.749616 3954.1875 74.3125 C 3955.2879 76.411155 3955.9068 78.405665 3955.5625 78.75 C 3955.2182 79.094335 3953.3227 78.809382 3951.3438 78.09375 C 3947.3556 76.651593 3947.5193 76.544727 3944.0625 83 C 3943.0317 84.925 3941.2318 87.5125 3940.0625 88.75 C 3937.0676 91.919537 3930.9099 91.316282 3926.9062 88.71875 L 3926 91.84375 C 3927.4402 92.701916 3929.1279 93.515313 3930.7188 93.9375 C 3937.0901 95.628353 3942.003 92.826103 3945.4688 85.5 C 3947.7628 80.65064 3948.3071 80.110657 3949.9688 81 C 3954.1071 83.214735 3959 81.597702 3959 78.03125 C 3959 77.170605 3958.1884 74.916855 3957.1875 73 C 3956.1866 71.083145 3954.7762 67.003161 3954.0625 63.9375 C 3952.7287 58.208289 3952.9839 55.56447 3957.1562 33.46875 C 3958.0853 28.548564 3958.0589 26.880782 3956.9062 24.46875 C 3954.1558 18.713651 3948.8484 20.469683 3944.75 28.5 C 3942.9783 31.971285 3942.6314 35.191513 3942.0312 53 C 3941.4671 69.739675 3940.9873 74.142483 3939.5312 77 C 3936.0455 83.840488 3934.0299 84.698747 3929.0312 81.53125 z "/>
</svg>
