<svg xmlns="http://www.w3.org/2000/svg"
     width="24.4" height="64.0"
     viewBox="6712.1562 15.0000 31.6322 82.8705">
  <path d="M 6716.7188,93.28125 C 6718.66,93.696632 6720.4294,93.870546 6721.7812,93.53125 6725.3662,92.631463 6729.6449,87.653656 6733.5938,79.8125 6737.5249,72.006195 6737.7839,68.960477 6735,63.5 6731.8765,57.373481 6732.9496,43.40134 6737.0625,36.65625 6739.4634,32.718732 6739.7884,21.909837 6737.5625,20.0625 6736.3358,19.044394 6736.2037,19.656673 6736.6875,24.34375 6737.1314,28.645089 6736.8035,30.753852 6735.1875,34.15625 6730.1272,44.810519 6729.0856,59.91328 6733.0312,65.25 6735.5805,68.698082 6735.2838,71.422791 6731.5312,79.28125 6728.3215,86.003079 6723.6246,91 6720.5,91 6719.5567,91 6718.1171,90.66634 6716.5312,90.1875 L 6716.7188,93.28125 z M 6716.3125,86.03125 C 6720.3143,85.078591 6722.9045,83.122111 6724.875,79.25 6728.5757,71.977884 6729.0885,68.221051 6727.375,60.6875 6726.0784,54.98675 6725.9894,52.725346 6726.9375,47.90625 6727.7228,43.914489 6727.7785,41.435907 6727.0938,40.15625 6725.8902,37.907469 6721.6542,35 6719.5938,35 6716.6084,35 6717.0574,36.942084 6720.4062,38.53125 6724.6659,40.552578 6725.2473,41.948947 6724.0312,47.375 6723.4168,50.116795 6723.4049,53.616478 6724.0312,57.09375 6726.107,68.615104 6726.1973,69.873281 6725.0312,73.40625 6723.0652,79.363441 6719.6372,82.681399 6716.1562,82.78125 L 6716.3125,86.03125 z M 6728.9688,19 C 6727.6485,19 6727.7391,19.598862 6729.5625,23.125 6730.4217,24.786623 6731.0326,27.113936 6730.9375,28.3125 6730.8424,29.511064 6730.8141,30.867541 6730.875,31.3125 6730.9359,31.757459 6731.45,31.839919 6732,31.5 6734.3722,30.033926 6731.6957,19 6728.9688,19 z M 6724.4062,19.53125 C 6724.2146,19.505664 6724.016,19.577769 6723.8438,19.75 6723.1548,20.438926 6723.3768,21.796892 6724.5,23.96875 6726.744,28.308341 6725.8981,30.11713 6722.0312,29.34375 6718.2492,28.587332 6718.1148,29.962384 6721.75,32.15625 6725.5407,34.443975 6726.6744,34.364365 6727.375,31.75 6728.3075,28.270583 6728.1338,26.559757 6726.4375,22.5 6725.6404,20.592322 6724.9811,19.608009 6724.4062,19.53125 z"/>
</svg>
