<svg xmlns="http://www.w3.org/2000/svg"
     width="59.1" height="64.0"
     viewBox="5601.3750 18.0000 80.0312 86.6979">
  <path d="M 5611.3125,58.75 5611.25,61.75 C 5611.4203,61.799093 5611.7703,61.999677 5611.875,62 5612.6385,62.002354 5615.2383,60.2 5617.625,58 5620.0117,55.8 5622.8694,54 5624,54 5625.1306,54 5628.2866,55.125 5631,56.5 5633.7134,57.875 5636.3606,59 5636.875,59 5638.1726,59 5640,53.384874 5640,49.40625 5640,45.677733 5637.7099,36.171828 5636.0625,33.09375 5635.1511,31.390738 5635.4518,30.527709 5637.9688,27.78125 L 5641,24.5 5644.875,28.59375 5648.7812,32.6875 5647.5,37.59375 C 5646.3612,42.003828 5646.3955,49.80031 5647.5625,55.625 5648.2436,59.024752 5650.5396,59.135375 5656.5,56 5662.7833,52.694812 5664.0634,52.876065 5671.0938,57.96875 5673.4057,59.643589 5676.0189,61 5676.9062,61 5676.9733,61 5677.2216,60.861226 5677.3125,60.84375 L 5677.4062,57.8125 C 5676.5061,57.586452 5674.5646,56.467765 5672.625,55 5670.4894,53.383814 5667.1746,51.562384 5665.2812,50.9375 5662.151,49.904383 5661.3819,50.08512 5656.8438,52.90625 5654.0988,54.612622 5651.4573,56 5650.9688,56 5649.5495,56 5648.6869,49.329674 5649.4062,43.90625 5650.4076,36.357468 5651.7936,34 5655.2188,34 5658.3003,34 5662.0309,32.419451 5663.25,30.59375 5664.6349,28.51961 5664.0312,24.072372 5662.25,23.15625 5660.1144,22.05788 5658.4329,22.605583 5654.4062,25.65625 5650.3651,28.718048 5648.9626,28.614187 5645.5,25 5643.9192,23.35 5641.9984,22 5641.25,22 5639.9176,22 5631,30.783998 5631,32.09375 5631,32.459175 5631.7249,33.377945 5632.625,34.125 5635.3949,36.423757 5638,43.871486 5638,49.53125 5638,52.478193 5637.5852,55.133707 5637.0938,55.4375 5636.6021,55.741292 5633.6731,54.830371 5630.5625,53.40625 5623.8815,50.347614 5621.8295,50.629648 5616,55.5 L 5611.7812,59.03125 5611.3125,58.75 z M 5659.75,25.46875 C 5660.4085,25.306664 5660.8788,25.472597 5661.3125,25.90625 5662.1454,26.739229 5662.1557,27.534128 5661.375,28.78125 5660.2126,30.637902 5654,31.768307 5654,30.125 5654,29.577604 5655.3702,28.142577 5657.0625,26.9375 5658.2224,26.111623 5659.0915,25.630836 5659.75,25.46875 z M 5611.125,67.96875 5611.0938,70.625 C 5612.926,70.641282 5614.6075,70.000197 5616.6562,68.4375 5621.0936,65.052936 5626.7168,62.773849 5628.9062,63.46875 5634.8769,65.363756 5638.0432,76.163501 5634.0938,81.15625 5631.6992,84.183409 5624.3931,87 5618.9375,87 5616.9046,87 5613.3178,86.32877 5610.9688,85.5 5608.4825,84.622804 5607.064,84.579189 5605.375,85 L 5605.6875,87.1875 5611.2188,89 C 5617.358,91.025333 5621.0571,90.641666 5629.0938,87.15625 5637.8649,83.352243 5640.162,78.220108 5637.0312,69.3125 5633.4838,59.21923 5626.7721,57.902224 5616.75,65.3125 5614.2385,67.169464 5612.7583,68.008077 5611.125,67.96875 z M 5606.625,93.59375 5606.9688,96 5607.125,95.90625 5612.8125,98.0625 C 5619.0493,100.43873 5626.1477,100.69786 5629.0625,98.65625 5630.0916,97.935483 5633.207,95.260257 5636,92.6875 5638.793,90.114744 5641.5852,88 5642.1875,88 5642.7898,88 5646.1975,89.850158 5649.75,92.09375 5658.7506,97.778101 5661.3987,98.019458 5668.9375,93.875 L 5675.0625,90.5 5676.2812,91.15625 5675.125,88.125 C 5674.3089,88.221032 5671.848,89.411875 5669.3438,91 5662.8999,95.086539 5660.0147,94.845909 5651.4375,89.5 5647.4665,87.025 5643.5256,85 5642.6562,85 5641.7868,85 5638.7839,87.027478 5636,89.5 5626.3612,98.06061 5623.408,98.809344 5614.0625,95.0625 5610.8885,93.789939 5608.7583,93.297832 5606.625,93.59375 z M 5672.75,81.9375 5671.3438,78.25 C 5671.2943,78.241744 5671.0065,78.063953 5670.9688,78.0625 5670.122,78.029914 5666.4128,79.558944 5662.75,81.46875 L 5656.0938,84.9375 5654.0625,82.34375 C 5651.7165,79.3613 5651.5697,77.645577 5653.125,71.46875 5655.0694,63.746719 5661.5793,59.378329 5665,63.5 5665.6818,64.321507 5668.6996,66.397599 5671.7188,68.125 5674.1683,69.526482 5675.6309,70.161181 5677.0938,70.28125 L 5677.1562,67.15625 C 5676.089,66.916212 5674.9389,66.421698 5673.1875,65.40625 5670.6044,63.908538 5667.4367,61.856097 5666.125,60.84375 5662.678,58.183293 5660.519,58.533226 5656.0938,62.53125 5652.1751,66.071497 5649,72.879892 5649,77.75 5649,82.07618 5652.6248,86.86492 5656,87 5656.825,87.033018 5660.278,85.582922 5663.6875,83.78125 L 5669.9062,80.5 5672.75,81.9375 z"/>
</svg>
