<svg xmlns="http://www.w3.org/2000/svg"
     width="46.0" height="64.0"
     viewBox="4851.1562 16.1902 63.3423 88.0362">
  <path d="M 4858.375 57.25 C 4858.8614 57.142095 4859.2633 57 4860.25 57 C 4864.3783 57 4867.988 54.398036 4871.0938 49.21875 C 4874.9667 42.760143 4880.0791 37 4881.9062 37 C 4884.6055 37 4887.7139 41.055557 4888.4375 45.5 C 4889.0436 49.2229 4888.795 49.793557 4885.0312 53.46875 C 4882.8059 55.641708 4881 58.200706 4881 59.1875 C 4881 60.174294 4882.575 62.744255 4884.5 64.875 C 4886.425 67.005745 4888 69.003206 4888 69.3125 C 4888 69.621795 4886.536 72.22077 4884.75 75.09375 C 4881.9269 79.635191 4881.5025 81.206994 4881.5 87.0625 C 4881.497 94.222841 4883.4087 98 4887.0312 98 C 4888.4203 98 4888.9101 96.716865 4889.4688 91.5 C 4890.2063 84.612458 4893.7573 76.5 4896.0312 76.5 C 4898.3008 76.5 4901.0668 82.478948 4902.125 89.6875 C 4902.6749 93.433126 4903.3403 97.175 4903.625 98 C 4904.3932 100.22638 4907.6962 95.824201 4909.0625 90.75 C 4910.4985 85.417317 4908.1132 75.541175 4904.0312 69.90625 C 4900.8634 65.533071 4900.9315 64.683484 4904.8125 58.75 C 4907.5754 54.525977 4907.0463 53.098683 4901.7188 50.34375 C 4898.965 48.919752 4898.8435 48.575873 4899.4688 44.40625 C 4900.2628 39.111353 4898.7785 34.241251 4894.5312 28.125 C 4890.0521 21.674932 4884.5563 20.190174 4879.5938 24.09375 C 4878.1229 25.250729 4874.7221 29.481221 4872.0312 33.46875 C 4865.7464 42.782699 4861.7486 46.214139 4857.625 45.8125 C 4856.2928 45.682747 4855.5796 45.516623 4855.1562 45.03125 C 4855.4097 46.893332 4855.7042 48.435155 4855.9688 49.78125 C 4856.5225 49.339126 4857.5908 48.987571 4859.7188 48.53125 C 4863.4745 47.72589 4870.1637 40.741872 4875.4062 32.15625 C 4879.8978 24.800543 4881.9501 23.534063 4886.2812 25.34375 C 4888.0764 26.093815 4890.8612 28.423729 4892.4688 30.53125 C 4894.9502 33.784634 4895.4702 35.589471 4895.9688 42.375 C 4896.3282 47.266275 4897.0107 50.503559 4897.75 50.75 C 4898.4144 50.971467 4900.0052 52.008579 4901.25 53.03125 L 4903.5 54.875 L 4900.75 59.84375 C 4899.2375 62.571258 4898 65.229762 4898 65.75 C 4898 66.270238 4899.4065 68.263177 4901.125 70.1875 C 4902.8436 72.111824 4904.8768 75.44437 4905.625 77.59375 C 4907.1663 82.021646 4907.4906 92 4906.0938 92 C 4905.2629 92 4903.922 87.880799 4903.5 84 C 4902.959 79.024702 4899.071 73 4896.4062 73 C 4893.0327 73 4887 84.790416 4887 91.375 C 4887 92.823689 4886.59 94 4886.0938 94 C 4884.9987 94 4883.0009 88.500807 4883.0312 85.59375 C 4883.0616 82.682139 4886.2988 76.074657 4889.4062 72.59375 C 4890.8328 70.995703 4892 69.525516 4892 69.3125 C 4892 69.099484 4889.9606 66.726542 4887.4688 64.0625 L 4882.9375 59.21875 L 4886.9062 55.46875 C 4891.5319 51.08546 4892.3614 48.57928 4891.0938 42.9375 C 4889.4624 35.6771 4884.2188 32.22371 4879.0312 35 C 4878.0129 35.544949 4875.0847 39.127733 4872.5312 42.96875 C 4869.9778 46.809767 4866.7288 50.854716 4865.3125 51.96875 C 4862.28 54.354152 4858.2915 54.498683 4856.5625 52.5625 C 4856.8198 53.552402 4857.085 54.629465 4857.3125 55.25 C 4857.9245 56.919056 4858.2806 57.164589 4858.375 57.25 z "/>
</svg>
