<svg xmlns="http://www.w3.org/2000/svg"
     width="28.0" height="64.0"
     viewBox="4831.6562 16.9459 37.2749 85.2387">
  <path d="M 4835.6562 87.5625 L 4835.7812 90.5 C 4835.9024 90.533694 4836.1887 90.526992 4836.2812 90.5625 C 4838.129 91.271544 4843.8542 86.465491 4845.1875 83.09375 C 4847.5263 77.17918 4848.5468 69.207717 4847.8438 62.4375 C 4845.6267 41.08754 4845.6372 35.636327 4847.8125 30.71875 C 4849.1826 27.621408 4850.7781 25.654634 4852.5 25 C 4855.3724 23.907886 4860 23.656936 4860 24.59375 C 4860 24.918819 4858.4169 27.010571 4856.5 29.25 C 4852.3082 34.147197 4851.5546 37.698772 4852.3125 48.4375 C 4852.8568 56.151186 4854.3298 61.236168 4859.0625 71.625 C 4862.1159 78.327693 4861.74 79.130926 4856.9688 76.3125 C 4853.378 74.191398 4851.5003 75.513312 4850.5625 80.78125 C 4850.1988 82.824154 4848.2733 86.8625 4846.3125 89.75 C 4842.7645 94.974739 4842.7286 95.008118 4837.625 94.90625 C 4836.9929 94.893633 4836.5201 94.840214 4835.9375 94.8125 L 4836.0312 97.71875 C 4841.2464 98.184643 4841.9678 97.963454 4845.0938 95.21875 C 4848.8334 91.935317 4853 84.537932 4853 81.1875 C 4853 78.160853 4854.4128 77.764568 4857.9688 79.75 C 4861.0535 81.472431 4861.1417 81.447223 4863.0312 79.15625 C 4864.9311 76.852711 4864.9258 76.774779 4863 73 C 4861.2327 69.535806 4858.7494 63.318877 4857.3125 58.75 C 4857.0166 57.808963 4857.4521 57.454751 4858.375 57.25 C 4858.2806 57.164589 4857.9245 56.919056 4857.3125 55.25 C 4857.085 54.629465 4856.8198 53.552402 4856.5625 52.5625 C 4856.4 52.38056 4856.1492 52.282907 4856.0312 52.0625 C 4855.4103 50.902235 4855.3514 50.274223 4855.9688 49.78125 C 4855.7042 48.435155 4855.4097 46.893332 4855.1562 45.03125 C 4854.6014 44.395161 4854.5738 43.141046 4854.6562 40.125 C 4854.8192 34.158805 4856.9515 30.341587 4861.3438 28.1875 C 4864.9227 26.432304 4864.7392 23.561776 4860.9688 22 C 4858.4239 20.945901 4857.2479 21.020923 4853.375 22.5 C 4849.5784 23.949906 4848.4335 24.999768 4846.8438 28.59375 C 4843.9258 35.190169 4843.4914 44.17418 4845.4688 56 C 4847.4938 68.111016 4846.4976 76.307179 4842.2188 82.90625 C 4840.2906 85.879914 4837.9572 87.385728 4835.6562 87.5625 z "/>
</svg>
