<svg xmlns="http://www.w3.org/2000/svg"
     width="24.1" height="64.0"
     viewBox="7775.2812 18.1412 31.8506 84.4838">
  <path d="M 7779.2812 86.5625 L 7779.375 88.78125 C 7781.1407 88.549605 7782.6848 87.856142 7784.1562 86.25 C 7788.6152 81.382986 7789.278 76.581968 7788.5625 54.53125 C 7787.9221 34.79359 7787.9293 34.43933 7790.2188 30.5 C 7791.73 27.89978 7793.3977 26.3805 7794.9688 26.15625 C 7800.1859 25.411616 7801.2446 31.600863 7798.3438 46.125 C 7795.9845 57.936426 7795.927 76.698361 7798.25 80.25 C 7800.5879 83.824353 7800.4623 84.321694 7797.4375 83.5625 C 7795.3676 83.042994 7794.362 83.540681 7792.1875 86.125 C 7790.7081 87.88311 7788.15 90.83275 7786.5 92.6875 C 7784.3577 95.09559 7782.017 96.365916 7779.6875 96.59375 L 7779.7812 98.625 C 7783.4287 97.903519 7787.3554 95.4673 7790.75 91.40625 C 7792.8141 88.936938 7795.5648 86.825153 7797.1875 86.46875 C 7801.9247 85.428295 7803.1318 83.549484 7801.5312 79.71875 C 7799.7675 75.49748 7798.1388 63.47498 7798.7188 59 C 7798.9682 57.075 7799.8129 51.948257 7800.5938 47.625 C 7802.4926 37.113956 7802.4176 28.045794 7800.4375 25.21875 C 7798.2819 22.141161 7794.4451 22.398589 7791 25.84375 C 7786.1967 30.647025 7785.4019 37.109324 7786.625 61 C 7787.2708 73.612172 7785.7996 81.876522 7782.375 85.09375 C 7781.074 86.315972 7780.2285 86.62178 7779.2812 86.5625 z "/>
</svg>
