<svg xmlns="http://www.w3.org/2000/svg"
     width="37.8" height="64.0"
     viewBox="5450.0000 17.6289 51.5627 87.3813">
  <path d="M 5458.4375 86.125 L 5458 87 L 5456.4062 91.34375 C 5456.9304 90.307963 5457.8631 89.938179 5458.5 90.96875 C 5458.8455 91.527722 5461.2325 91.987048 5463.8125 91.96875 C 5472.3315 91.908331 5475.6046 86.558008 5475.9062 72.25 C 5476.0323 66.274281 5476.8673 61.610707 5478.9375 55.25 C 5480.5066 50.429106 5482.1068 42.9 5482.5 38.5 C 5483.2549 30.052868 5485.1133 25 5487.4688 25 C 5489.3434 25 5491.8494 28.667633 5492.5625 32.46875 C 5493.2664 36.220919 5489.996 48.851709 5486.5312 55.75 C 5483.4115 61.961131 5482.2286 69.365542 5484 71.5 C 5484.6911 72.332666 5484.9651 73 5484.625 73 C 5484.2849 73 5484.9025 75.3625 5486 78.25 C 5487.0975 81.1375 5487.9997 83.6125 5488 83.75 C 5488.0017 84.606565 5485.3595 83.74976 5483.875 82.40625 C 5482.2281 80.915851 5481.9321 81.087682 5479.3125 85 C 5477.7663 87.309271 5474.6663 91.173304 5472.4062 93.59375 C 5469.3434 96.874234 5467.5613 97.997928 5465.4062 97.96875 C 5460.867 97.907292 5456 95.378376 5456 93.09375 C 5456 92.675863 5456.0968 92.342754 5456.1875 92 L 5454 98 L 5454.0312 98.3125 C 5455.5488 98.569399 5457.0702 98.968467 5458 99.5 C 5459.375 100.28602 5462.4004 100.94927 5464.7188 100.96875 C 5469.6433 101.01015 5474.1576 97.624056 5478.625 90.5625 C 5481.2887 86.352203 5481.4952 86.253767 5486.4375 86.375 C 5490.9576 86.48588 5491.5324 86.251499 5491.8125 84.28125 C 5491.9855 83.064764 5490.937 80.036553 5489.4688 77.53125 C 5485.4897 70.741607 5485.7025 63.798428 5490.2188 53.5 C 5496.9264 38.204177 5497.5627 33.957171 5494.125 27.21875 C 5491.6574 22.381855 5490.6291 21.628866 5487.6562 22.375 C 5484.6142 23.138513 5481.4384 30.001769 5479.4375 40.1875 C 5478.5395 44.758871 5476.7059 52.1 5475.3438 56.5 C 5473.7429 61.670741 5472.6574 68.116106 5472.2812 74.71875 C 5471.7771 83.567379 5471.403 85.214054 5469.4688 87.03125 C 5467.7569 88.639357 5466.2234 89.052636 5462.875 88.8125 L 5458.5 88.5 L 5458.4375 86.125 z "/>
</svg>
