<svg xmlns="http://www.w3.org/2000/svg"
     width="46.7" height="64.0"
     viewBox="6449.4643 8.9576 66.0381 90.5265">
  <path d="M 6492.25,81.09375 C 6490.4956,81.403896 6488.6045,81.203155 6484.6875,79.875 6478.6236,77.818903 6478.3804,77.821352 6473.2188,79.5625 6470.0275,80.638977 6467.6161,80.994932 6467.0938,80.4375 6465.9808,79.249918 6467.6309,67.141694 6469.5312,62.59375 6471.8783,56.976218 6473.4085,56.761843 6480.875,61.125 6484.5088,63.248497 6488.2491,65 6489.2188,65 6491.5329,65 6498.618,58.555193 6501.75,53.59375 6505.357,47.879899 6508.72,37.5613 6510.125,27.84375 6511.5024,18.316792 6511.1508,16.464448 6507.5938,14.84375 6504.3614,13.370989 6493,15.68177 6493,17.8125 6493,18.83864 6493.7491,19.056849 6495.75,18.59375 6503.7583,16.740277 6505.9508,16.712004 6506.625,18.46875 6506.9909,19.422416 6506.8444,24.763841 6506.3125,30.34375 6505.4804,39.074031 6504.8195,41.587686 6501.4375,48.34375 6498.0143,55.182246 6491.4999,63.020291 6489.25,63 6488.8391,62.996293 6485.3646,60.971293 6481.5312,58.5 6477.6979,56.028706 6474.0769,54 6473.4688,54 6471.5814,54 6468.1294,58.366387 6466.5938,62.71875 6465.7869,65.005566 6464.8401,69.9505 6464.4688,73.71875 6463.652,82.008617 6464.8,83.615651 6470.75,82.53125 6476.7197,81.443274 6481.0743,81.562584 6487.0938,83 6489.7016,83.62273 6491.1067,83.924365 6492.375,83.78125 L 6492.25,81.09375 z M 6492.7812,91.96875 C 6492.7451,91.969854 6492.6918,91.999928 6492.6562,92 6491.6362,92.002056 6488.55,90.875 6485.8125,89.5 6479.4509,86.304751 6475.7346,86.347452 6471.4375,89.625 6466.7267,93.21812 6464.0615,92.324287 6460.6875,86.125 6458.417,81.953372 6457.9937,80.057705 6458.0312,73.375 6458.0959,61.875461 6461.3547,52.198458 6467.6875,44.625 6470.9193,40.760049 6470.3794,37.845589 6466.25,36.78125 6464.0238,36.207438 6462.8243,35.196549 6462.4062,33.53125 6461.5931,30.291129 6463.5217,24.766471 6466,23.21875 6467.9117,22.024869 6468,22.231544 6468,27.46875 6468,32.112082 6468.3683,33.174441 6470.3438,34.46875 6473.7389,36.693361 6477.9607,34.901549 6482.0312,29.46875 6485.5116,24.82365 6487,23.93465 6487,26.53125 6487,30.999875 6480.3916,41 6477.4375,41 6474.7345,41 6474.0475,43.539958 6475.9688,46.46875 6478.129,49.761984 6485.6785,56 6487.5,56 6489.9246,56 6493.8182,51.938495 6497.75,45.28125 6502.5044,37.23112 6503.3773,34.683742 6502.5625,31.4375 6502.1222,29.683195 6501.2615,29 6499.4688,29 6498.1042,29 6497,29.45 6497,30 6497,30.55 6497.9,31 6499,31 6500.4329,31 6501,31.659356 6501,33.34375 6501,38.086061 6491.4006,53 6488.3438,53 6486.6542,53 6478,46.230478 6478,44.90625 6478,44.433832 6479.9234,42.26719 6482.2812,40.09375 6485.1586,37.441499 6487.0744,34.535174 6488.125,31.25 6489.8142,25.967701 6489.5241,20 6487.5625,20 6486.8953,20 6484.3714,22.714811 6481.9688,26.03125 6477.4672,32.245209 6474.1159,34.170998 6471.5,32 6469.2291,30.115297 6469.7164,24.710397 6472.5312,20.5625 6476.6031,14.562242 6473.8007,12.957579 6468.1875,18.0625 6459.8636,25.632863 6457.5276,33.914567 6462.5625,37.875 6463.9651,38.978286 6465.6182,40.039402 6466.25,40.25 6467.0017,40.500569 6466.6685,41.642715 6465.3125,43.5625 6461.7511,48.604371 6457.319,58.281805 6456,63.875 6453.4643,74.627888 6456.933,89.623151 6462.7812,93.25 6466.3836,95.484067 6467.0833,95.433551 6471.4062,92.5 6475.5124,89.71353 6478.5845,89.354873 6481.5312,91.3125 6482.6161,92.03322 6485.3562,93.217876 6487.625,93.9375 6489.4781,94.525289 6491.1834,94.602124 6492.9062,94.40625 L 6492.7812,91.96875 z M 6497.4375,23 C 6496.03,23 6495.1295,23.407884 6495.4375,23.90625 6495.7455,24.404616 6496.9005,24.568763 6498,24.28125 6500.7515,23.561703 6500.5015,23 6497.4375,23 z"/>
</svg>
