<svg xmlns="http://www.w3.org/2000/svg"
     width="35.7" height="64.0"
     viewBox="1712.5000 11.5595 51.6028 92.4138">
  <path d="M 1723.4375 77.375 L 1720.3438 82.125 C 1721.2577 82.163301 1722.5536 82.929082 1724.5312 84.4375 C 1729.7099 88.38743 1732.5017 88.639009 1735.4688 85.4375 C 1738.2966 82.386193 1738.3338 82.187394 1738.5 66 C 1738.7248 44.100989 1741.5104 33.004394 1748.8125 25.1875 C 1752.2197 21.540109 1754.4782 21.152219 1755.9688 23.9375 C 1757.9228 27.588798 1756.4455 38.135059 1752.0312 52 C 1751.4183 53.925 1750.4938 59.486532 1749.9688 64.34375 C 1749.0827 72.540876 1749.1792 73.682562 1751.5 80.40625 C 1754.5591 89.269327 1754.6798 90.939986 1752.1562 88.65625 C 1749.3437 86.111039 1746.7079 86.671094 1742.9375 90.59375 C 1736.9198 96.854454 1735.3508 97.21354 1729 93.9375 C 1721.4561 90.045956 1718.4322 87.392693 1718.5 84.96875 L 1716.5 88 L 1718.5 92 L 1719.5625 94.28125 C 1719.7164 93.818614 1719.8826 92.861262 1720 92.84375 C 1720.275 92.802724 1723.4599 94.239251 1727.0938 96.03125 C 1735.0879 99.973308 1737.8103 99.626649 1743.0625 93.9375 C 1747.3498 89.29359 1749.1015 89.047974 1751.9062 92.75 C 1753.9374 95.430935 1754.0378 95.45488 1755.5 93.5625 C 1757.6645 90.76123 1757.3616 86.791075 1754.4375 79.84375 C 1752.127 74.354213 1751.9191 72.820308 1752.375 64.59375 C 1752.6538 59.56265 1753.628 53.201351 1754.5625 50.46875 C 1758.4587 39.075228 1760.1028 27.065107 1758.375 22.5625 C 1755.6876 15.559499 1746.2221 21.417142 1741.0312 33.28125 C 1738.4192 39.250903 1736 57.038829 1736 70.375 C 1736 80.125771 1735.7551 81.927993 1734.1562 83.375 C 1731.9561 85.36604 1729.6331 84.743571 1725.75 81.15625 C 1724.5438 80.041974 1723.8439 78.806616 1723.4375 77.375 z "/>
</svg>
