<svg xmlns="http://www.w3.org/2000/svg"
     width="38.5" height="64.0"
     viewBox="397.0000 14.6619 50.8218 84.5310">
  <path d="M404.38853 92.819646C403.06073 90.671216 404.08014 81.763235 406.10889 77.786567L408.1052 73.873473L404.5526 70.215894C402.59867 68.204226 401.00001 65.870195 401.00003 65.029158C401.00006 63.523568 407.08504 58.0 408.74362 58.0C409.21139 58.0 411.37057 59.819262 413.5418 62.042805C418.50709 67.12773 421.66599 67.11517 424.30727 62.0C425.77535 59.156891 426.05015 56.667979 425.77147 48.738756L425.42841 38.977512L421.73854 35.936015C416.04456 31.242552 414.14422 22.117769 418.33682 19.602128C419.90377 18.661928 420.88466 19.287221 425.01302 23.858044L429.85239 29.216089L434.12764 25.108044C439.35251 20.087518 442.58068 19.689604 443.21159 23.988327C443.82177 28.145717 441.5774 34.099304 438.45582 36.603892C436.09919 38.49472 435.90102 39.157167 436.49906 43.145187C436.86505 45.585759 436.67626 51.092829 436.07954 55.383122C435.10062 62.421263 435.17607 63.443452 436.85146 65.841827C439.52632 69.670957 440.25217 73.705891 438.96677 77.600686C437.67116 81.526414 435.2508 82.039603 432.47862 78.976371C429.95701 76.19003 428.89174 77.702734 428.86615 84.106146C428.84587 89.180657 427.01074 94.0 425.09872 94.0C424.62838 94.0 422.53896 91.525 420.45556 88.5C418.37216 85.475 416.35607 83.0 415.97536 83.0C415.59465 83.0 413.63985 85.475 411.63137 88.5C408.06096 93.877425 405.85528 95.192895 404.38853 92.819646Z M423.51377 75.15462C425.45441 73.971151 427.72692 70.856867 429.89585 66.408515C432.90502 60.236887 433.31829 58.358208 433.77187 48.788673C434.18535 40.064999 434.6361 37.694345 436.20063 36.015022C438.33365 33.7255 441.0 27.901581 441.0 25.532119C441.0 22.833803 438.53542 23.878743 434.0 28.5C431.57097 30.975 429.33978 32.981064 429.04179 32.957921C428.74381 32.934777 426.7 30.471355 424.5 27.48365C419.51003 20.707037 417.50973 20.308103 418.3065 26.248437C418.85847 30.363713 420.71176 32.745457 425.57484 35.5893C427.16142 36.517104 427.49555 38.244628 427.82859 47.241581C428.27028 59.173467 427.17786 63.928334 423.29275 66.984363C419.32331 70.106723 416.6718 69.513908 411.50731 64.349415L406.85673 59.69883L404.70029 61.855262C402.69525 63.860303 402.65167 64.189375 404.07953 66.542601C405.54683 68.960845 417.40969 77.002341 419.5 76.995701C420.05 76.993953 421.8562 76.165467 423.51377 75.15462Z M415.0 78.679637C415.0 77.657322 412.00298 75.084935 410.75 75.031803C410.3375 75.014312 410.0 75.512891 410.0 76.139757C410.0 76.766624 409.31472 77.7806 408.47717 78.393038C406.73743 79.665167 405.43314 86.080391 406.40129 88.603357C406.91527 89.942764 407.87605 89.187037 411.02504 84.966437C413.21127 82.03623 415.0 79.20717 415.0 78.679637Z M426.36984 83.75C426.97358 78.389728 426.87687 78.0 424.94299 78.0C422.52019 78.0 419.0 79.708945 419.0 80.885145C419.0 81.902095 425.04141 90.31239 425.43475 89.843015C425.59285 89.654357 426.01364 86.9125 426.36984 83.75Z M436.9682 74.25C436.93623 70.480835 435.15639 67.0 433.26108 67.0C432.70094 67.0 431.66724 68.389138 430.96397 70.086973C429.76233 72.988 429.86043 73.317128 432.59265 75.55101C436.51732 78.759844 437.00521 78.614775 436.9682 74.25Z"/>
</svg>
