<svg xmlns="http://www.w3.org/2000/svg"
     width="31.8" height="64.0"
     viewBox="553.5938 15.9795 42.1901 85.0232">
  <path d="M 560.625 85.375 L 560.5 86 L 559.53125 88.78125 C 560.23107 88.741637 561.15883 88.835905 562.40625 89.21875 C 567.55212 90.798062 570.59538 89.56846 573.4375 84.71875 C 576.09356 80.18654 577.19032 71.773083 578.46875 46 C 579.00724 35.144149 580.11063 27.545619 581.375 26.28125 C 582.48949 25.16676 584.9733 28.255219 585.59375 31.5625 C 585.94204 33.419023 585.47869 41.238612 584.5625 48.90625 C 582.79484 63.699683 583.41241 72.831849 586.5625 77.71875 C 588.42852 80.613606 588.39544 84 586.5 84 C 585.67966 84 584.46821 83.1 583.78125 82 C 581.8724 78.943454 580.28272 79.584111 578.21875 84.25 C 577.18475 86.5875 574.66087 89.9625 572.625 91.75 C 570.58912 93.5375 568.16212 94.978016 567.21875 94.96875 C 565.96023 94.956389 562.03369 92.964514 558.8125 90.78125 L 557.59375 94.21875 C 558.74152 93.975408 560.07008 94.339939 561.5625 95.46875 C 562.63012 96.276258 565.15192 96.951258 567.15625 96.96875 C 571.03686 97.002616 574.06182 94.717266 579.03125 88.09375 C 581.26896 85.111212 581.8402 84.838382 583.71875 85.84375 C 586.29385 87.221904 590.67556 87.345909 591.46875 86.0625 C 591.7838 85.552741 590.87428 81.615241 589.46875 77.3125 C 586.54002 68.346839 586.13575 61.81233 587.375 44 C 588.10486 33.509405 587.97272 30.897178 586.65625 27.75 C 583.40581 19.979464 579.06473 25.000651 577.1875 38.6875 C 576.52199 43.539691 575.52413 54.185639 574.96875 62.375 C 574.26178 72.799537 573.43219 78.49735 572.15625 81.375 C 569.52109 87.318162 568.16702 88.184826 563.59375 86.78125 C 561.92221 86.26824 561.08845 85.911969 560.625 85.375 z "/>
</svg>
