<svg xmlns="http://www.w3.org/2000/svg"
     width="23.1" height="64.0"
     viewBox="3604.0616 14.4352 30.5241 84.3954">
  <path d="M3614.0072 88.512564C3609.1793 80.074346 3608.8018 77.807976 3611.0367 70.679642C3613.5004 62.821776 3613.4808 60.33004 3610.887 51.620712C3608.0616 42.133381 3608.5251 30.396618 3611.967 24.272559C3614.774 19.278192 3616.489 18.435154 3619.6409 20.500367C3622.4999 22.373638 3622.3734 21.626502 3622.4432 37.05996L3622.5 49.619921L3626.3782 55.254733C3630.157 60.745159 3630.5857 63.568747 3627.7727 64.439158C3627.0727 64.655746 3625.3081 65.092676 3623.8513 65.410113C3621.6509 65.88957 3621.0018 66.823981 3620.0168 70.930067C3618.8632 75.73875 3618.9299 76.04969 3622.4756 82.389939C3626.2764 89.186462 3626.2691 91.915301 3622.446 93.382351C3618.6721 94.830527 3617.1043 93.925812 3614.0072 88.512564Z M3623.0 89.325415C3623.0 88.993095 3621.7082 86.621754 3620.1293 84.055767C3616.2074 77.681821 3615.726 75.731232 3616.9516 71.179713C3618.3845 65.858261 3621.5876 62.0 3624.5726 62.0C3627.6772 62.0 3627.6288 61.581672 3623.9924 56.990431C3620.0567 52.021226 3618.7718 45.187048 3619.9806 35.65288C3621.0934 26.87594 3620.2287 22.626753 3617.2404 22.188015C3613.9695 21.707783 3611.7285 27.030013 3611.2116 36.505836C3610.8426 43.268865 3611.1804 45.68672 3613.3874 52.081016C3616.3447 60.64895 3616.6012 63.92449 3614.6182 67.79966C3613.8583 69.284847 3612.9228 72.388426 3612.5394 74.696501C3611.9296 78.367346 3612.3008 79.71285 3615.5025 85.43813C3618.7232 91.197222 3619.3932 91.859942 3621.0814 90.956445C3622.1366 90.391698 3623.0 89.657735 3623.0 89.325415Z"/>
</svg>
