<svg xmlns="http://www.w3.org/2000/svg"
     width="27.8" height="64.0"
     viewBox="6416.0000 12.1219 38.5593 88.7159">
  <path d="M 6436.4048,90.861443 C 6440.4577,89.014776 6442.4343,83.621492 6442.4086,74.479555 6442.3902,67.964529 6441.9494,65.682266 6440.0599,62.320304 L 6437.7337,58.181498 6439.8306,53.840749 C 6443.238,46.786865 6444.5324,39.641393 6443.1932,35.277755 6442.1587,31.907019 6442.289,31.190455 6444.5231,27.966627 6445.8854,26.000857 6446.9831,23.516687 6446.9625,22.446249 6446.9324,20.889066 6446.2628,21.273393 6443.6128,24.368792 6440.6009,27.887058 6440.1739,28.087772 6438.9004,26.584088 6435.4116,22.464692 6434.6577,22 6431.4638,22 6424.9414,22 6424.2538,29.139666 6430.4099,32.944298 6436.5223,36.72197 6437.635,44.621968 6433.2998,53.461372 L 6430.5995,58.967052 6432.9915,62.20239 C 6435.8939,66.128061 6437.183,73.195593 6435.9053,78.176999 6434.8736,82.199565 6429.9866,87 6426.9233,87 6424.3568,87 6424.4897,88.529142 6427.2225,90.443296 6429.8547,92.286976 6432.9652,92.428621 6436.4048,90.861443 z M 6426.5,93.51366 C 6422.7015,91.521166 6420,88.335441 6420,85.848706 6420,84.234015 6420.6346,83.956425 6423.8873,84.148348 6428.8121,84.438931 6432.6198,82.007636 6433.4973,78.012158 6434.5484,73.226823 6433.0205,66.839849 6429.8698,62.848162 6427.2888,59.578138 6426.7934,56 6428.9218,56 6430.4357,56 6433,48.706315 6433,44.400332 6433,38.739752 6431.8851,36.609264 6428.1031,35.042714 6422.534,32.735902 6422.1013,22.945404 6427.4146,19.463976 6430.1336,17.682412 6434.0008,18.739642 6437.8489,22.316612 L 6440.1979,24.5 6444.059,20.166334 C 6446.1827,17.782818 6448.3882,16.121875 6448.9601,16.475351 6450.5593,17.463671 6450.1946,22.737081 6448.2808,26.29966 6447.0842,28.527141 6446.5444,31.931889 6446.5052,37.5 6446.4608,43.791042 6445.8855,46.850272 6443.812,51.820913 L 6441.1752,58.141826 6443.2553,62.820913 C 6445.5723,68.033042 6445.9138,77.892712 6444.0208,84.922829 6442.0256,92.332478 6432.8371,96.8378 6426.5,93.51366 z"/>
</svg>
