<svg xmlns="http://www.w3.org/2000/svg"
     width="50.5" height="64.0"
     viewBox="5314.8313 14.7257 70.4812 89.2743">
  <path d="M 5377.7812,61.34375 C 5377.535,61.534547 5377.2449,61.854433 5377.0312,61.96875 5375.7785,62.639158 5374.177,61.793849 5370.4375,58.40625 5364.8505,53.345024 5361.9495,52.246346 5358.375,53.875 5357.0147,54.494804 5355.6423,55 5355.3125,55 5354.9827,55 5354.9948,51.5125 5355.3438,47.25 5355.8876,40.609177 5356.331,39.177981 5358.5312,37.25 5362.0854,34.135851 5363.7447,34.425888 5365.6875,38.5 5368.9223,45.283407 5371.2432,42.013031 5371.4062,30.40625 5371.4728,25.658886 5371.0593,23.74857 5369.5938,22.125 5366.8985,19.139098 5363.9718,19.478155 5358.125,23.5 5355.3266,25.425 5352.6831,27 5352.2188,27 5351.7544,27 5350.0973,25.425 5348.5625,23.5 5344.756,18.725749 5341.7695,18.853227 5336.8438,24.03125 5332.3217,28.784927 5331.7624,33.1626 5335.125,37.4375 5336.8941,39.686571 5337.9209,40.081857 5341.2188,39.84375 5346.1261,39.489428 5347.3777,41.282889 5346.4688,47.34375 5345.4664,54.027191 5345.1162,54.250844 5338.9375,51.96875 5335.9404,50.861779 5332.4872,50.200272 5331.25,50.5 5328.2419,51.228776 5324.5745,57.280636 5321.4062,66.71875 5319.105,73.574108 5318.8313,75.694823 5319.1562,85.1875 5319.3835,91.829544 5319.9958,96.402053 5320.75,97.15625 5322.6098,99.015997 5323.0773,97.742909 5321.9375,93.9375 5320.3457,88.62333 5320.6871,74.954691 5322.5625,68.375 5323.9977,63.340139 5329.4641,52 5330.4688,52 5330.652,52 5333.8225,53.35 5337.5,55 5341.1775,56.65 5344.6023,58 5345.0938,58 5345.585,58 5346.6873,56.3125 5347.5625,54.25 5349.1871,50.42151 5349.2764,37.932701 5347.6875,36.34375 5347.2703,35.92657 5345.4852,36.145462 5343.7188,36.8125 5340.9369,37.862917 5340.1653,37.76873 5338,36.125 5334.4971,33.465858 5334.8281,28.369711 5338.6875,25.28125 5342.7038,22.06722 5344.6189,22.436105 5347.5,27 5348.8888,29.2 5350.5265,31 5351.1562,31 5351.7861,31 5354.7251,29.136407 5357.6562,26.875 5364.2408,21.795103 5367.5292,21.992445 5368.5625,27.5 5368.9221,29.416952 5368.9464,32.126181 5368.5938,33.53125 L 5367.9375,36.09375 5365.5,34.1875 C 5362.4841,31.815201 5358.9488,32.351023 5355.8438,35.65625 5354.0131,37.604885 5353.4683,39.507661 5353.1562,45.03125 5352.9406,48.846528 5353.0757,53.152141 5353.4375,54.59375 5354.0585,57.068188 5354.3374,57.191387 5358.5312,56.5625 5362.8621,55.913037 5363.0986,56.004855 5368.0312,60.9375 5370.9074,63.813585 5373.9904,66 5375.1875,66 5376.0638,66 5377.3344,65.163902 5378.6875,64.03125 L 5377.7812,61.34375 z M 5380.4375,69.28125 C 5377.1584,70.773986 5373.2231,69.434267 5367.25,65.46875 5364.3709,63.557364 5361.6295,62 5361.1562,62 5359.3668,62 5356.9041,65.897604 5354.875,71.90625 L 5352.7812,78.125 5356,82.125 C 5357.9127,84.505042 5359.437,87.728382 5359.75,90.0625 5360.4163,95.029846 5359.5785,95.056654 5357.0625,90.125 5355.0814,86.24167 5353.3938,85 5350.0625,85 5348.2367,85 5343,91.57477 5343,93.875 5343,94.57877 5342.4375,94.959171 5341.75,94.71875 5339.5678,93.955643 5340.505,87.503122 5343.3438,83.78125 5346.6076,79.50202 5346.6115,79.136871 5343.375,72.75 5339.3741,64.854553 5335.7896,60.044578 5333.8438,60 5332.7423,59.974768 5329.2427,66.18895 5327.6562,71 5324.7282,79.878958 5323.6164,97 5325.9688,97 5326.381,97 5327.0292,92.794077 5327.4062,87.65625 5328.1152,77.998839 5329.7695,70.140412 5331.9688,66.03125 L 5333.25,63.6875 5335.125,66.09375 C 5336.1523,67.42104 5338.308,71.034475 5339.9375,74.125 L 5342.9062,79.75 5340.4688,83.0625 C 5339.0849,84.938228 5338,87.750656 5338,89.53125 5338,93.722776 5339.8042,98.700261 5341.5625,99.375 5343.0636,99.951012 5345,97.223481 5345,94.53125 5345,92.325314 5349.0642,87 5350.75,87 5351.506,87 5353.4415,89.925 5355.0625,93.5 5356.6835,97.075 5358.4682,100 5359,100 5359.5318,100 5360.6833,98.858268 5361.5938,97.46875 5364.0247,93.758554 5362.821,86.826042 5358.875,81.84375 5355.82,77.986511 5355.7891,77.822638 5357.0312,73.21875 5357.7298,70.629816 5358.9782,67.721035 5359.8125,66.75 5361.2609,65.064312 5361.4195,65.064785 5363.4062,66.8125 5365.9796,69.076119 5372.3426,71.732394 5377.0312,72.53125 5378.6527,72.807519 5380.0147,72.547341 5381.3125,71.96875 L 5380.4375,69.28125 z"/>
</svg>
