<svg xmlns="http://www.w3.org/2000/svg"
     width="52.3" height="64.0"
     viewBox="4214.5133 16.5931 68.6045 83.9585">
  <path d="M4219.6395 34.306147C4218.5133 33.179963 4218.9536 32.0 4220.5 32.0C4221.325 32.0 4222.0 32.423442 4222.0 32.940983C4222.0 34.201961 4220.4384 35.105078 4219.6395 34.306147Z M4243.4496 95.042667C4242.3218 94.585859 4240.1614 92.589383 4238.6487 90.606054C4237.1359 88.622724 4235.4267 87.0 4234.8503 87.0C4234.274 87.0 4232.4836 88.411762 4230.8718 90.137248C4229.2599 91.862734 4227.6724 93.005749 4227.3439 92.67728C4226.6869 92.020204 4234.7385 82.0 4235.9236 82.0C4236.3291 82.0 4238.1391 84.058275 4239.9457 86.573945C4244.3754 92.742107 4247.2037 93.982342 4250.7789 91.324338C4252.7359 89.869398 4253.5888 88.248356 4253.8163 85.551564L4254.1325 81.801811L4250.0559 82.490552C4246.298 83.125442 4245.698 82.897964 4242.3812 79.581224C4238.3613 75.561281 4238.2665 73.798762 4241.5752 64.596226C4243.1391 60.246603 4243.1977 58.855454 4242.0938 52.285747C4240.6719 43.823771 4241.5702 41.307865 4247.0194 38.489985C4256.5302 33.571766 4263.0881 38.810638 4262.0533 50.5C4261.9559 51.6 4261.0041 53.719278 4259.9381 55.209507C4257.8799 58.086868 4257.3783 61.0 4258.941 61.0C4259.4585 61.0 4260.1586 60.55242 4260.4967 60.005377C4260.8348 59.458335 4261.9551 58.559227 4262.9862 58.00736C4265.6229 56.596274 4268.0 59.234302 4268.0 63.571429C4268.0 65.457143 4268.4796 67.0 4269.0657 67.0C4273.1463 67.0 4277.4201 60.449771 4276.3032 55.907566C4275.398 52.226653 4273.978 50.941213 4271.1397 51.233493C4268.6856 51.486215 4268.5121 51.189656 4267.7866 45.5C4266.4224 34.800729 4262.9117 29.0 4257.8007 29.0C4255.1527 29.0 4244.0897 34.111835 4239.4941 37.458851C4236.8996 39.348464 4235.7228 38.499658 4233.3073 32.996466C4229.7681 24.933316 4221.6931 22.588125 4219.8724 29.09464C4219.2148 31.444746 4219.1971 31.436829 4219.0997 28.75C4218.992 25.778893 4222.0376 22.0 4224.5398 22.0C4225.3867 22.0 4227.8398 22.897938 4229.991 23.995417C4232.8641 25.461173 4234.4451 27.217775 4235.947 30.613148C4238.23 35.774089 4237.1127 35.804254 4245.5474 30.353948C4247.6009 29.027027 4247.9773 28.173038 4247.4888 25.949148C4246.7139 22.420969 4248.5689 21.146418 4249.4382 24.609784C4250.0365 26.993682 4250.3924 27.149671 4253.7949 26.51931C4255.8327 26.14177 4257.6287 25.484292 4257.7861 25.058247C4257.9434 24.632202 4258.7166 23.432306 4259.5043 22.39181C4260.8659 20.593125 4260.938 20.62774 4260.9682 23.095012C4260.9857 24.522269 4261.9252 26.527295 4263.0559 27.550624C4264.7492 29.083038 4265.4524 29.198569 4267.0424 28.205612C4270.3013 26.170369 4271.4741 26.866436 4269.0799 29.414924C4266.3027 32.371154 4267.0077 35.672233 4270.7175 37.082711C4273.0989 37.988118 4273.1582 38.167707 4271.632 39.854167C4268.9406 42.828073 4269.8311 48.0 4273.0344 48.0C4274.0356 48.0 4275.8317 49.2375 4277.0257 50.75C4278.7981 52.995173 4279.1178 54.460916 4278.7673 58.734503C4278.261 64.907611 4276.4365 67.285993 4270.4544 69.570572C4264.9934 71.656148 4263.9777 71.032691 4265.055 66.256202C4265.5207 64.191254 4265.5697 62.169708 4265.1639 61.763877C4264.758 61.358046 4262.7251 62.181776 4260.6463 63.594388C4255.6327 67.001203 4253.5576 66.211247 4254.4603 61.239439C4254.8337 59.182747 4256.2329 55.900812 4257.5696 53.946249C4260.6345 49.464706 4260.6537 45.871536 4257.6316 42.358058C4255.3814 39.742094 4255.0649 39.66397 4251.2944 40.793659C4249.1115 41.447648 4246.5059 42.888463 4245.5041 43.995472C4243.8782 45.79209 4243.8222 46.431225 4244.9827 49.947687C4246.6263 54.927813 4245.8667 65.42332 4243.5365 69.92937C4241.8772 73.138238 4241.8867 73.37031 4243.7826 75.884183C4245.7883 78.543669 4248.4566 79.069538 4252.6944 77.640506C4254.377 77.073111 4255.2462 77.44619 4256.4218 79.240232C4258.5425 82.476942 4256.8223 88.377736 4252.4969 92.703076C4249.1623 96.037653 4247.1748 96.551627 4243.4496 95.042667Z M4222.0 88.002881C4222.0 87.454465 4223.6656 85.162148 4225.7013 82.908843L4229.4026 78.811924L4227.696 74.006801C4224.7285 65.651611 4224.519 60.875885 4226.8852 55.526709C4229.547 49.509117 4229.5298 48.927614 4226.5878 45.50378C4223.3776 41.767893 4221.5059 38.160787 4222.3431 37.323604C4223.1335 36.533155 4232.8871 46.941942 4232.9546 48.647926C4232.9796 49.279286 4231.8804 51.754286 4230.512 54.147926C4227.353 59.67386 4227.345 64.214184 4230.4795 72.541882L4232.9591 79.129422L4228.3427 84.064711C4223.8378 88.880812 4222.0 90.0219 4222.0 88.002881Z"/>
</svg>
