<svg xmlns="http://www.w3.org/2000/svg"
     width="32.4" height="64.0"
     viewBox="3209.3438 13.0345 43.1330 85.2077">
  <path d="M 3214.6562 81.40625 L 3214.2188 85 C 3218.3972 87.026213 3222.0038 87.68261 3224.0625 86.65625 C 3229.6931 83.849114 3232.2809 73.083006 3230.0312 61.78125 C 3227.1429 47.271419 3229.2395 26.802289 3234.0625 22.4375 C 3236.9199 19.85161 3238.7179 21.335398 3240.0625 27.34375 C 3241.0449 31.733387 3241.0099 34.348607 3239.9375 40.65625 C 3237.9727 52.212865 3238.3881 57.089194 3241.9375 64.375 C 3243.6247 67.838211 3245 71.605763 3245 72.78125 L 3245 74.9375 L 3241.4688 72.84375 C 3237.2146 70.33369 3235.8696 71.124402 3234.0625 77.15625 C 3231.7389 84.911621 3227.7176 89.50989 3222.25 90.59375 C 3220.1186 91.016257 3218.2207 90.707718 3216.75 89.75 C 3215.986 89.252444 3214.8915 88.809517 3213.7812 88.375 L 3213.3438 92.1875 C 3219.1342 94.23272 3223.1038 94.242139 3226.7812 92 C 3230.6098 89.665742 3236 81.640648 3236 78.28125 C 3236 74.681894 3238.7102 74.350796 3242.0625 77.5625 C 3244.6374 80.029396 3245.1972 80.201672 3246.4375 78.9375 C 3247.2202 78.139782 3247.9812 76.375 3248.125 75 C 3248.4768 71.634714 3246.0993 63.337297 3244.375 61.90625 C 3243.6111 61.272273 3243 59.760156 3243 58.5625 C 3243 57.364845 3242.5565 55.962619 3242.0312 55.4375 C 3241.425 54.831152 3241.4717 49.70324 3242.125 41.375 C 3243.2368 27.20248 3242.3979 20.790147 3239.2188 19.125 C 3235.2275 17.034459 3230.9099 21.010751 3228 29.46875 C 3225.5436 36.608375 3225.2796 52.433843 3227.4688 61.5 C 3229.2085 68.705522 3229.3402 72.280559 3227.9688 77.21875 C 3226.7328 81.669213 3224.5921 84 3221.7812 84 C 3220.4061 84 3217.2357 82.724356 3214.6562 81.40625 z "/>
</svg>
