<svg xmlns="http://www.w3.org/2000/svg"
     width="27.5" height="64.0"
     viewBox="7553.5642 15.8425 36.5662 85.1575">
  <path d="M7567.0014 92.25C7564.0045 89.22952 7561.4272 85.315343 7559.9231 81.5C7557.7696 76.037597 7557.5642 74.066409 7557.6316 59.5C7557.6993 44.853697 7557.9286 42.87441 7560.3422 36.105851C7561.7924 32.03907 7564.1551 26.704617 7565.5928 24.251512C7567.9874 20.165359 7568.4625 19.842499 7571.258 20.401599C7575.5121 21.252419 7576.8487 22.609559 7579.6871 28.959979C7584.3952 39.493817 7586.1304 48.452082 7586.0869 62.0C7586.0374 77.403097 7585.5729 80.935423 7582.8936 86.287151C7580.3932 91.281416 7575.1979 97.0 7573.161 97.0C7572.3653 97.0 7569.5935 94.8625 7567.0014 92.25Z M7578.7202 89.098961C7582.5248 83.43377 7583.4073 78.410911 7583.3938 62.5C7583.3817 48.324995 7583.2055 46.971769 7580.1902 37.895732C7576.9571 28.163949 7573.2588 22.591578 7570.4237 23.179978C7568.8918 23.49791 7567.2729 26.151194 7563.0615 35.245845C7560.5672 40.632388 7558.3661 62.807327 7559.4741 71.387105C7560.161 76.705962 7563.7203 84.484375 7567.8704 89.736375C7571.3953 94.197213 7575.4566 93.958617 7578.7202 89.098961Z M7570.9137 83.907572C7569.3248 82.206736 7567.5959 79.169236 7567.0715 77.157572C7563.966 65.244076 7563.759 63.580733 7564.3995 55.686978C7565.3783 43.624101 7568.5359 34.0 7571.5149 34.0C7574.4002 34.0 7579.2575 46.456232 7580.4345 56.873641C7581.233 63.941327 7579.2572 78.526685 7576.8614 83.25C7575.8153 85.3125 7574.699 87.0 7574.3809 87.0C7574.0627 87.0 7572.5025 85.608407 7570.9137 83.907572Z M7576.095 79.250248C7577.8599 74.608132 7578.4491 56.704902 7577.0145 51.311523C7575.5038 45.632128 7571.9759 38.0 7570.8613 38.0C7569.8283 38.0 7568.399 43.632927 7566.921 53.528256C7565.8934 60.407914 7565.9564 62.491563 7567.3609 68.092146C7568.2624 71.686744 7569.0 75.189379 7569.0 75.875781C7569.0 77.718911 7572.3019 81.932266 7573.7748 81.968575C7574.4759 81.985859 7575.52 80.762611 7576.095 79.250248Z"/>
</svg>
