<svg xmlns="http://www.w3.org/2000/svg"
     width="42.6" height="64.0"
     viewBox="3170.5608 12.0000 55.9843 84.1875">
  <path d="M 3214.6562,81.40625 C 3212.6677,80.390117 3211,79.350505 3211,78.84375 3211,78.402371 3211.7913,76.12988 3212.75,73.78125 3214.7517,68.877976 3214.9958,57.677325 3213.1875,54.34375 3212.3256,52.754698 3212.2854,49.464375 3213,41.84375 L 3213.9688,31.5 3218.0625,27.96875 C 3221.2647,25.213574 3222.1777,23.689949 3222.3125,20.96875 3222.4561,18.068951 3222.1397,17.451624 3220.2812,17.1875 3219.0264,17.009163 3216.5818,17.992624 3214.6875,19.4375 3210.2709,22.806186 3207.8333,22.685435 3205.6562,19 3204.2211,16.570382 3203.2261,16 3200.375,16 3194.0756,16 3188.3499,24.063956 3190.8125,29.46875 3191.3945,30.746028 3194.3591,33.311587 3197.4062,35.15625 3202.2834,38.108579 3202.9439,38.88916 3202.9688,41.75 3203.0024,45.592606 3202.7431,45.664798 3198.7812,42.84375 3194.7595,39.979957 3186.8737,39.194656 3183.5938,41.34375 3179.4304,44.071693 3176.0491,49.425001 3175.375,54.34375 3174.5608,60.283875 3176.5848,60.668204 3180.125,55.25 3182.3249,51.883029 3182.9761,51.521812 3186.6875,51.59375 3188.961,51.637817 3192.0132,52.452543 3193.4688,53.40625 3197.3298,55.936132 3202,63.769731 3202,67.75 3202,72.140308 3200.7437,74.349983 3194.9375,80.15625 3190.1688,84.924891 3188.1422,88.525697 3189.5312,89.8125 3189.9317,90.183551 3190.4992,89.859398 3190.7812,89.0625 3191.0633,88.265602 3194.1373,84.586488 3197.5938,80.90625 3206.3739,71.557637 3207.2936,64.844343 3201,56.15625 3197.1761,50.877589 3194.0255,48.865759 3188.5625,48.25 3184.4353,47.784807 3183.881,48.011599 3180.5625,51.625 3174.9885,57.694295 3176.6734,51.662182 3182.3438,45.25 3185.5027,41.67774 3191.2893,42.187143 3197.6875,46.59375 3200.5534,48.567534 3203.3297,49.91146 3203.8438,49.59375 3205.2391,48.731341 3206.1797,42.450447 3205.4688,38.75 3204.9489,36.044327 3204.0263,35.128998 3199.9375,33.3125 3193.8562,30.61081 3191.8316,27.130909 3194.0625,23.15625 3194.8786,21.702217 3196.8048,20.092736 3198.3125,19.5625 3200.7765,18.695955 3201.3519,18.985999 3204.0938,22.3125 3205.7717,24.347975 3207.608,26 3208.1562,26 3208.7046,26 3211.1018,24.65 3213.5,23 3221.1413,17.742641 3222.5451,19.795888 3215.625,26.09375 L 3211.2812,30.0625 3210.0938,41.8125 C 3209.0769,51.96695 3209.1399,54.069752 3210.4688,57.25 3211.3149,59.275354 3212,62.064056 3212,63.4375 3212,66.76498 3209.1624,74.993888 3207.4062,76.75 3205.2907,78.865664 3205.6522,79.732635 3209.75,82.4375 3211.2821,83.448834 3212.783,84.303803 3214.2188,85 L 3214.6562,81.40625 z M 3213.7812,88.375 C 3209.5586,86.722436 3203.7385,85.686061 3202.25,86.625 3199.7904,88.176475 3199.2573,90.471338 3201.6562,89.1875 3203.1053,88.411954 3205.088,88.815962 3210.0312,90.96875 3211.2524,91.50055 3212.269,91.807878 3213.3438,92.1875 L 3213.7812,88.375 z"/>
</svg>
