<svg xmlns="http://www.w3.org/2000/svg"
     width="36.6" height="64.0"
     viewBox="1303.5000 14.3236 50.4998 88.3639">
  <path d="M 1313.2812 78 L 1310.2812 84.75 C 1310.8682 84.141366 1311.4455 84.587712 1313.2188 86.5 C 1315.0016 88.422703 1317.0529 89.365434 1320.1875 89.71875 C 1324.1733 90.168017 1324.8955 89.930865 1327.125 87.28125 C 1328.4909 85.657951 1330.2123 81.747365 1330.9688 78.59375 C 1332.38 72.711257 1331.9808 68.398637 1328.8125 56 C 1328.18 53.525 1327.6449 47.675 1327.625 43 C 1327.5943 35.794448 1327.958 33.842132 1330.0312 30.15625 C 1331.3763 27.764831 1333.7853 25.134551 1335.375 24.3125 C 1338.0607 22.923643 1338.4047 22.966534 1340.375 24.9375 C 1342.7845 27.347649 1342.9257 32.611358 1340.9062 44 C 1339.9344 49.480803 1340.0113 51.555397 1341.4062 57 C 1343.1221 63.697817 1345.3361 68 1347.0312 68 C 1347.5686 68 1348 68.709955 1348 69.5625 C 1348 70.785425 1346.9918 71.049247 1343.2812 70.8125 C 1338.0551 70.479059 1338.4593 69.953728 1336.0312 80.5 C 1335.3981 83.25 1334.0033 86.427052 1332.9375 87.5625 C 1331.8716 88.697948 1331 90.089441 1331 90.65625 C 1331 91.223058 1330.1621 92.433507 1329.1562 93.34375 C 1326.5362 95.714782 1322.0465 95.405334 1316.4062 92.4375 C 1311.0545 89.621447 1309.2966 88.200364 1309.4375 86.625 L 1307.5 91 L 1307.5 91.34375 L 1311.9062 94.03125 C 1317.3086 97.355368 1323.1108 98.687534 1327.4688 97.59375 C 1330.4956 96.834049 1337.5054 86.730939 1338.5 81.6875 C 1338.8472 79.926746 1339.5667 77.29819 1340.125 75.84375 C 1341.0377 73.466047 1341.5497 73.251789 1345.0312 73.71875 C 1348.6091 74.198653 1348.949 74.037332 1349.5938 71.46875 C 1349.9998 69.850354 1349.8182 68.022526 1349.1562 67.09375 C 1344.6616 60.786468 1343.5647 57.370841 1343.5625 49.5 C 1343.5612 45.1 1343.9105 38.575 1344.3125 35 C 1344.9047 29.733464 1344.685 27.835827 1343.25 25 C 1339.8715 18.323607 1332.2758 20.88968 1327.3125 30.375 C 1324.0842 36.544524 1324.5534 52.316616 1328.25 62.3125 C 1330.0044 67.056476 1329.3137 77.716359 1326.9375 82.625 C 1325.08 86.461992 1324.4128 87 1321.5938 87 C 1319.367 87 1317.5435 86.124744 1315.6875 84.1875 C 1313.7163 82.130057 1313.0177 80.239029 1313.2812 78 z "/>
</svg>
