<svg xmlns="http://www.w3.org/2000/svg"
     width="50.0" height="64.0"
     viewBox="4687.6680 15.0000 66.3320 84.9311">
  <path d="M4696.0909 91.178196C4693.7635 86.616145 4692.0667 77.15842 4691.8138 67.338504C4691.668 61.679253 4692.0967 59.606878 4694.2998 55.320769C4695.764 52.472192 4697.4532 49.837918 4698.0537 49.466827C4698.6541 49.095736 4701.888 50.022942 4705.2402 51.527286C4711.0693 54.143253 4711.393 54.183035 4712.6675 52.440098C4713.4004 51.437802 4714.0 48.228749 4714.0 45.30887L4714.0 40.0L4710.4231 40.0C4705.039 40.0 4701.0 35.576817 4701.0 29.680515C4701.0 25.811757 4701.4777 24.787732 4704.5348 22.103592C4706.4789 20.396616 4708.5263 19.0 4709.0845 19.0C4711.6906 19.0 4716.2499 22.418557 4717.1722 25.064144C4718.4141 28.626576 4718.671 28.64307 4724.1479 25.512045C4729.1563 22.648908 4735.1164 22.230385 4737.0859 24.603527C4738.6592 26.499226 4738.5731 33.20212 4736.9244 37.182554C4735.4784 40.673347 4734.6816 40.706654 4732.2566 37.377653C4730.0457 34.34263 4727.7654 34.634513 4723.6115 38.484252C4721.4869 40.453282 4721.0 41.809948 4721.0 45.761121C4721.0 48.432262 4721.6204 51.46625 4722.3788 52.503316C4723.7073 54.320185 4723.8565 54.324061 4726.473 52.609677C4730.1773 50.182501 4733.2413 51.185844 4735.2984 55.499652C4737.2592 59.611347 4739.4829 60.804039 4742.1189 59.157821C4746.9345 56.150422 4750.0 59.393473 4750.0 67.495407C4750.0 74.586608 4749.3863 74.41527 4748.6753 67.125554C4747.9921 60.12119 4746.9818 59.161389 4742.5277 61.285408C4738.0576 63.417056 4736.6182 62.801534 4734.7093 57.941956C4732.8551 53.221535 4730.8354 52.222637 4727.5275 54.390049C4723.3976 57.096057 4721.2257 56.474257 4720.0526 52.25C4717.5958 43.403676 4719.2522 37.472285 4725.011 34.494289C4728.7342 32.568984 4730.9069 32.605759 4733.1458 34.631977C4734.8355 36.161098 4735.0166 36.086448 4736.02 33.447521C4737.3709 29.894376 4736.9554 26.989519 4734.9132 25.710212C4732.4208 24.148814 4726.2827 25.812901 4722.5966 29.049324C4720.7483 30.672196 4718.9419 32.0 4718.5824 32.0C4718.223 32.0 4717.108 30.084785 4716.1046 27.743966C4715.0889 25.374515 4713.1009 22.85675 4711.6196 22.064017C4709.2173 20.778335 4708.694 20.837165 4706.2295 22.670022C4704.1941 24.18371 4703.4239 25.71174 4703.2009 28.678525C4702.7696 34.414364 4705.4083 37.352516 4711.1149 37.490648L4715.5 37.596794L4715.7975 43.216899C4715.9798 46.661744 4715.4976 50.266601 4714.5517 52.53058C4713.0652 56.088235 4712.8702 56.198543 4709.2542 55.528115C4707.1894 55.145293 4704.0969 53.969857 4702.382 52.916037C4698.4439 50.496112 4698.5717 50.478497 4696.4377 53.735457C4693.6479 57.993216 4693.0298 63.643936 4694.1664 74.5C4695.5994 88.187216 4696.9181 89.801287 4697.026 78.0C4697.1275 66.903013 4698.5574 61.634684 4701.5854 61.202024C4703.7275 60.895932 4705.7192 63.347771 4712.0489 74.082936L4714.8537 78.839913L4711.9547 82.669957C4710.3602 84.776481 4709.0431 87.564254 4709.0278 88.86501C4709.0009 91.149664 4709.0837 91.175147 4711.4648 89.61501C4714.641 87.533921 4718.8493 87.553646 4721.1774 89.660536C4722.1866 90.573831 4723.2885 91.044787 4723.6262 90.707106C4724.7676 89.565724 4722.9345 84.843782 4720.4596 82.550099C4719.1068 81.296407 4718.0393 79.42226 4718.0873 78.385329C4718.2537 74.79195 4722.5076 63.683957 4724.0952 62.697072C4726.8627 60.976853 4730.377 62.729968 4732.8249 67.05178C4734.5484 70.094787 4735.5831 70.987766 4736.8249 70.504158C4739.8471 69.327225 4740.3211 69.47215 4741.7177 72.0C4743.0787 74.463469 4742.956 81.11004 4741.4083 88.75C4740.5267 93.102203 4742.1035 92.868402 4744.7805 88.25C4745.9759 86.1875 4746.957 84.95 4746.9606 85.5C4746.9744 87.612883 4742.3631 94.49897 4740.7229 94.81484C4738.5733 95.22882 4738.5434 93.696286 4740.5168 84.23757C4741.3501 80.243233 4741.7398 75.811462 4741.3828 74.38919C4740.8284 72.180214 4740.3243 71.885133 4737.925 72.365003C4735.6165 72.826698 4734.6578 72.354355 4732.543 69.713383C4731.1278 67.946023 4729.5089 65.9375 4728.9455 65.25C4726.8995 62.753353 4724.9387 64.08152 4722.4874 69.62443C4719.8851 75.508641 4719.2633 80.0 4721.051 80.0C4722.4955 80.0 4725.0 86.284445 4725.0 89.908864C4725.0 93.859577 4723.3554 94.682504 4720.6115 92.104769C4717.5977 89.273433 4714.5747 89.453872 4712.0894 92.613451C4709.5641 95.823838 4707.0 95.159954 4707.0 91.295738C4707.0 89.77387 4708.1795 86.197367 4709.6212 83.347953L4712.2424 78.1672L4709.1529 72.767272C4705.1331 65.741445 4702.2354 63.00564 4700.9681 65.039763C4698.9178 68.330605 4698.5274 82.11358 4700.1933 92.392371C4700.7668 95.931141 4698.1153 95.14638 4696.0909 91.178196Z M4747.1886 82.5C4747.215 81.4 4747.5801 79.15 4748.0 77.5L4748.7634 74.5L4748.8114 77.5C4748.8378 79.15 4748.4727 81.4 4748.0 82.5C4747.1406 84.5 4747.1406 84.5 4747.1886 82.5Z"/>
</svg>
