<svg xmlns="http://www.w3.org/2000/svg"
     width="45.1" height="64.0"
     viewBox="3867.8240 17.1844 61.6210 87.4590">
  <path d="M 3893.9062,21.21875 C 3893.4122,21.184402 3892.9183,21.264153 3892.3125,21.40625 3887.8723,22.447689 3884,27.338105 3884,31.90625 3884,37.391596 3886.4378,39.946466 3892.5,40.8125 3895.5179,41.243634 3897.4666,42.002973 3897.4062,42.75 3897.3512,43.430704 3897.2387,45.042622 3897.1562,46.3125 3897.0737,47.582379 3896.4171,49.388758 3895.7188,50.34375 3894.5359,51.961219 3894.1964,51.992246 3890.625,50.5 3886.2081,48.654516 3882.3207,49.175372 3878.5312,52.15625 3874.8132,55.080764 3871.824,61.473097 3872.1875,65.75 3872.5438,69.941917 3874.5117,71.154884 3875.5312,67.8125 3876.686,64.027351 3879.0934,62 3882.4688,62 3887.2071,62 3890.0805,65.556662 3890.2188,71.625 3890.3605,77.849138 3888.901,80.483699 3883.9688,83 3879.1667,85.449819 3876.7559,88.922165 3877.1875,92.6875 3877.5087,95.4891 3877.5093,95.481476 3879.5,91.5 3880.8152,88.869676 3882.9596,86.699868 3885.7812,85.15625 3891.2975,82.138363 3893.3492,78.943616 3893.4375,73.15625 3893.5366,66.659202 3891.5008,62.456222 3887.3125,60.46875 3883.0463,58.444316 3879.5469,59.150493 3875.625,62.8125 L 3872.75,65.5 3873.5,63 C 3876.5943,52.622833 3883.7193,49.173659 3891.7812,54.15625 3895.1902,56.263108 3895.3261,56.287808 3896.6562,54.46875 3898.3592,52.139807 3899.9926,46.392615 3900,42.71875 3900.0062,39.654736 3897.1955,38 3892,38 3886.1619,38 3883.845,29.822437 3888.625,26.0625 3893.0749,22.562151 3895.6615,23.709725 3900.3438,31.25 3902.3767,34.523787 3904.0429,34.71837 3906.5312,31.96875 3908.6715,29.603825 3913.5792,26.52345 3916.6562,25.59375 3919.632,24.694705 3922,27.346129 3922,31.59375 3922,34.814095 3921.8481,34.993437 3919.875,33.9375 3915.8232,31.769 3907.9448,35.073334 3908.0312,38.90625 3908.0774,40.956686 3911.5733,45.012568 3915.8125,47.9375 3920.5265,51.19 3918.5059,52.974558 3913.2188,50.21875 3908.2699,47.639313 3905.3081,48.820885 3902.6562,54.4375 3900.921,58.112813 3900.9297,58.510779 3902.5312,62.0625 3904.5278,66.490163 3903.6824,70.119576 3899.0312,77.15625 3897.4467,79.55334 3895.8465,82.734647 3895.4688,84.25 3894.8532,86.718541 3895.1383,87.160705 3898.3438,88.5 3899.6926,89.063611 3900.9404,89.276695 3902.1562,89.53125 L 3902.625,86.53125 C 3902.5046,86.507449 3902.4044,86.562155 3902.2812,86.53125 3898.9099,85.685091 3896.5675,83.899907 3897.7812,83.09375 3898.2685,82.770201 3900.3497,80.04242 3902.4062,77.03125 3905.9634,71.822754 3906.1297,71.263264 3905.5938,65.53125 3904.6617,55.563989 3904.7399,54.822539 3906.7812,52.78125 3908.7337,50.828766 3908.7434,50.830351 3912.8125,52.90625 3917.8932,55.49827 3919.6465,55.533145 3920.9688,53.0625 3922.4431,50.307651 3922.545,50.517626 3916.2812,44.59375 3911.245,39.830876 3910.7582,39.021017 3911.9688,37.5625 3913.9196,35.211926 3919.3744,35.857881 3919.8438,38.5 3920.4752,42.055377 3921.7842,42.292836 3923.4062,39.15625 3925.2461,35.59851 3925.445,31.308703 3923.9375,27.34375 3921.8427,21.833869 3918.0364,21.623699 3909.9062,26.5625 L 3904.0625,30.09375 3899.5938,25.4375 C 3896.6911,22.408139 3895.3884,21.321795 3893.9062,21.21875 z M 3886,93 C 3885.45,93 3885,94.155041 3885,95.5625 3885,97.013867 3885.4328,97.850523 3886,97.5 3886.55,97.160081 3887,96.005041 3887,94.9375 3887,93.869959 3886.55,93 3886,93 z M 3901,97.3125 3901.3438,94.875 C 3900.1103,94.672315 3898.7694,94.310736 3897.2188,93.75 3894.0714,92.61193 3893.6555,92.714754 3891.9062,94.875 3890.8608,96.16613 3890,97.860931 3890,98.625 3890,100.64339 3891.6818,100.29691 3893.3125,97.96875 3894.614,96.110672 3895.1112,96.046999 3899.7812,97.125 3900.2354,97.229825 3900.5757,97.235406 3901,97.3125 z"/>
</svg>
