<svg xmlns="http://www.w3.org/2000/svg"
     width="49.3" height="64.0"
     viewBox="2325.4648 23.8755 61.6771 80.1245">
  <path d="M 2366.9375 81.21875 C 2365.7074 81.24499 2364.5854 81.600528 2363.4375 82.46875 C 2360.156 84.950804 2357.7175 84.191609 2352.25 79.03125 C 2346.386 73.496599 2345.5601 71.908427 2344.5938 64 C 2344.0064 59.193727 2344.2823 57.806273 2346.7188 53 C 2348.6397 49.210659 2350.1809 47.401955 2351.6875 47.1875 C 2356.2025 46.544832 2358.7321 55.290801 2356.0625 62.3125 C 2354.4279 66.611693 2354.7166 71.955164 2356.625 72.6875 C 2357.7509 73.11954 2359.3308 72.031036 2361.7188 69.15625 C 2365.6232 64.455861 2367 64.561108 2367 69.5625 C 2367 73.72933 2368.6683 73.96969 2374.4375 70.65625 C 2380.6141 67.108763 2383.1419 57.141904 2378.9375 52.9375 C 2377.1644 51.164379 2376.1287 50.960746 2371.5625 51.53125 C 2364.9218 52.360952 2364.4698 51.758664 2364.75 42.25 C 2364.8746 38.024266 2364.5414 35 2363.9688 35 C 2363.4284 35 2363 36.164579 2363 37.59375 L 2363 40.1875 L 2359.6562 37.34375 C 2357.8207 35.777079 2355.8417 33.2625 2355.25 31.75 C 2353.9911 28.5319 2350.9016 27.875526 2351.7188 31 C 2352.1238 32.548813 2351.7525 33 2350.0625 33 C 2348.8622 33 2346.9534 33.499913 2345.8438 34.09375 C 2344.2844 34.928322 2343.443 34.814804 2342.0938 33.59375 C 2341.1337 32.724913 2339.8005 32 2339.1562 32 C 2337.4035 32 2337.7595 34.096187 2339.75 35.5625 C 2341.3958 36.774904 2341.3621 37.153389 2338.9688 41.6875 C 2336.8337 45.732182 2335.8675 46.586119 2332.9688 47.03125 L 2329.5 47.5625 L 2332.2812 48.3125 C 2334.9855 49.038156 2335.052 49.202039 2334.4375 54.28125 C 2334.0421 57.549579 2333.0946 60.117349 2331.9062 61.15625 C 2329.4648 63.290782 2329.4727 64.31353 2331.9375 63.53125 C 2333.525 63.027401 2334.0593 63.589012 2334.9062 66.65625 C 2335.7568 69.736195 2335.6655 70.7237 2334.3125 72.21875 C 2332.7628 73.931086 2332.7869 74.034134 2335 73.78125 C 2336.8984 73.564323 2337.6541 74.217218 2338.8438 77.28125 C 2340.2967 81.023422 2340.2654 81.136051 2337.1562 84.34375 C 2333.6714 87.939238 2333.3447 89.546516 2335.5312 92.4375 C 2336.3388 93.505121 2337 95.642621 2337 97.1875 C 2337 99.61524 2337.3879 100 2339.875 100 C 2343.8175 100 2345.3765 97.839083 2344.5625 93.5 C 2343.7559 89.200573 2346.2397 87.478373 2348.5312 90.75 C 2349.3063 91.856669 2351.7448 93.466392 2353.9375 94.34375 C 2357.6056 95.811423 2358.3215 95.812445 2363.0625 94.28125 C 2366.1308 93.290294 2367.4496 93.000648 2368.9062 93.34375 L 2368.4688 90.65625 C 2367.0427 90.713726 2365.5612 90.938145 2363.9688 91.5 C 2357.7477 93.694882 2356.4238 93.413632 2351.5 88.875 C 2347.0918 84.811652 2346.9851 84.768301 2344.4375 86.4375 C 2342.1798 87.916796 2341.9032 88.715858 2342.1875 92.71875 C 2342.6233 98.854762 2340.972 99.03859 2338.375 93.125 L 2336.25 88.28125 L 2340.6875 84.5 C 2345.0639 80.768879 2345.088 80.721573 2343.25 78.625 C 2340.7362 75.757427 2337.2442 64.841075 2336.5 57.5 C 2335.9972 52.540469 2336.2804 50.719648 2338.0938 47 C 2343.443 36.027264 2348.3899 33.030499 2355.0625 36.75 C 2356.947 37.800469 2359.0358 39.763705 2359.6875 41.09375 C 2362.2404 46.303522 2364 50.857375 2364 52.28125 C 2364 54.403033 2366.357 55.036059 2370.1875 53.9375 C 2374.9462 52.572715 2375.7957 52.72771 2377.4688 55.28125 C 2380.38 59.724267 2375.9138 69 2370.875 69 C 2369.4581 69 2369 68.263545 2369 66.09375 C 2369 61.566071 2366.2681 61.33147 2362.0312 65.46875 C 2360.0403 67.412848 2358.108 69 2357.7188 69 C 2356.5439 69 2356.9044 66.045969 2358.7188 60.9375 C 2360.2161 56.721763 2360.2625 55.621977 2359.0938 52.3125 C 2357.2573 47.112195 2355.188 45 2351.9062 45 C 2347.326 45 2342.5947 53.610664 2342.625 61.90625 C 2342.6589 71.153942 2343.8149 73.954785 2350.25 80.65625 C 2356.6191 87.289047 2358.5584 88.039044 2363 85.5 C 2364.6956 84.530687 2366.0027 84.141309 2367.4375 84.25 L 2366.9375 81.21875 z "/>
</svg>
