<svg xmlns="http://www.w3.org/2000/svg"
     width="29.3" height="64.0"
     viewBox="4921.5000 15.0573 41.1542 89.8999">
  <path d="M 4929.4375 83.15625 L 4928.1562 87.1875 C 4928.837 87.143594 4929.8106 87.528594 4931.5625 88.4375 C 4935.0921 90.268702 4937.6638 89.051023 4939.5 84.65625 C 4940.4578 82.363955 4940.6812 78.602757 4940.2812 71.34375 C 4939.3903 55.175826 4942.2244 36.028866 4946.6875 28.1875 C 4949.414 23.397277 4951.9597 22.92461 4953.0938 27 C 4954.2931 31.310382 4953.9828 45.136606 4952.4688 54.5 C 4949.5752 72.395756 4949.5581 75.972691 4952.2812 81.25 L 4954.7188 86 L 4952.5625 86 C 4951.3723 86 4949.8748 85.499725 4949.25 84.875 C 4948.4022 84.027184 4947.3681 84.945029 4945.0938 88.53125 C 4943.4178 91.173803 4940.8031 94.152702 4939.2812 95.15625 C 4936.0288 97.300867 4935.4583 97.350114 4931.5 95.625 C 4928.768 94.434334 4927.2919 93.082785 4926.7812 91.53125 L 4925.5 95.5 C 4926.1027 95.624469 4926.8354 95.962114 4928.3125 96.875 C 4934.9175 100.95714 4943.5983 98.300943 4946.5312 91.28125 C 4947.9411 87.906911 4948.1637 87.781545 4951.875 88.375 C 4957.7744 89.318356 4958.6542 87.497685 4955.4062 81.03125 C 4952.3537 74.953642 4952.2369 72.226703 4954.4062 58 C 4956.164 46.473262 4956.798 32.36972 4955.7812 27.1875 C 4954.4307 20.304118 4950.5748 19.057281 4946.6562 24.25 C 4940.5872 32.292393 4938 45.323109 4938 67.9375 C 4938 86.576101 4937.3408 88.500187 4932.0625 85.40625 C 4930.5686 84.530584 4929.8068 84.015715 4929.4375 83.15625 z "/>
</svg>
