<svg xmlns="http://www.w3.org/2000/svg"
     width="29.6" height="64.0"
     viewBox="2585.3836 15.9171 40.1111 86.5829">
  <path d="M 2589.5938 87.15625 L 2589.9688 98.5 C 2591.0768 98.204108 2592.3112 98 2593.4375 98 C 2595.3441 98 2598.0691 97.464465 2599.5 96.8125 C 2601.9644 95.689681 2611 84.791293 2611 82.9375 C 2611 82.459672 2613.3625 82.161425 2616.25 82.28125 C 2621.4888 82.498649 2621.4947 82.493617 2621.375 79.5 C 2621.309 77.85 2619.9899 73.575 2618.4375 70 C 2614.9583 61.987281 2614.8568 56.008211 2617.9688 43.46875 C 2619.8597 35.849724 2620.0149 33.818323 2619.0625 30.28125 C 2616.2717 19.917071 2608.7784 20.732161 2603 32.03125 C 2599.7905 38.307107 2599.0928 45.451314 2600.4688 58 C 2602.5436 76.922777 2601.0269 83.842861 2594.2188 86.6875 L 2590.5312 88.21875 L 2589.5938 87.15625 z M 2612.6875 25.15625 C 2613.6711 25.146756 2614.4698 25.837083 2615.4375 27.21875 C 2617.5537 30.240125 2617.3938 35.517999 2614.875 45.75 C 2612.0977 57.031834 2612.59 66.346227 2616.3438 73.71875 C 2617.8046 76.587966 2619 79.210421 2619 79.53125 C 2619 79.852079 2616.898 79.977545 2614.3438 79.8125 C 2609.7557 79.516062 2609.6671 79.554652 2607.3438 84 C 2606.0502 86.475 2603.1478 90.1875 2600.875 92.25 C 2596.477 96.241184 2591.4566 97.318485 2590.375 94.5 C 2589.3836 91.916388 2590.7076 90.281769 2594.375 89.59375 C 2598.0667 88.901185 2600.6834 86.07028 2602.7812 80.5 C 2604.7403 75.298205 2604.7851 71.840643 2603.0312 58.625 C 2600.7229 41.229953 2602.2892 32.824088 2608.875 27.28125 C 2610.5469 25.874102 2611.7039 25.165744 2612.6875 25.15625 z "/>
</svg>
