<svg xmlns="http://www.w3.org/2000/svg"
     width="31.7" height="64.0"
     viewBox="1276.7314 14.6386 43.7720 88.4657">
  <path d="M 1313.2812,78 C 1313.4325,76.714853 1313.8287,75.32972 1314.6875,73.6875 1315.9878,71.200804 1316.3781,67.601129 1316.4375,57.5 1316.5034,46.309463 1316.1731,43.525674 1314.125,37.5 1311.3508,29.338044 1310.224,27.869057 1303.5,23.5625 1296.1318,18.84338 1294.4621,18.638596 1290.5625,22.0625 1282.589,29.063379 1280.7314,43.229601 1286.4062,53.65625 L 1289.0938,58.59375 1286.9688,63.5625 C 1281.817,75.507982 1282.7261,88.29679 1289.2188,94.9375 1292.4663,98.259209 1297.6449,99.104271 1300.2188,96.75 1300.9704,96.0625 1302.7647,94.459871 1304.1875,93.1875 L 1306.75,90.875 1307.5,91.34375 1307.5,91 1309.4375,86.625 C 1309.4701,86.26067 1309.5245,85.902996 1309.75,85.5 1309.9436,85.154019 1310.1131,84.924383 1310.2812,84.75 L 1313.2812,78 z M 1294.125,23.09375 C 1296.0447,22.854764 1298.4304,23.896876 1302.1562,26.09375 1308.8305,30.028964 1309.3584,30.764643 1312.5938,40.8125 1315.0062,48.304353 1315.2379,50.146518 1314.75,59.3125 1314.2866,68.01978 1313.6824,70.690396 1310.6562,77.8125 1306.584,87.396805 1303.1199,92.369489 1299,94.5 1295.4651,96.327976 1296.1248,96.368033 1292.3438,94.0625 1289.8865,92.56416 1288.8173,90.840437 1287.5,86.3125 1285.3208,78.822192 1285.8977,72.162034 1289.4062,64.375 L 1292.1562,58.25 1289.3438,52.875 C 1287.1311,48.6588 1286.4411,45.876901 1286.1875,40 1285.8884,33.069277 1286.0901,32.139458 1288.9062,27.75 1290.7614,24.858316 1292.2053,23.332736 1294.125,23.09375 z M 1296.4688,28 C 1294.3263,28 1290.3659,34.161195 1290.1562,37.8125 1289.8975,42.318389 1292.4316,49.363795 1296.1875,54.59375 L 1299.3125,58.9375 1295.5,66.40625 C 1290.7395,75.785003 1289.8499,82.482355 1292.9375,85.75 1294.1068,86.9875 1295.7075,88 1296.4688,88 1298.6585,88 1304,83.01085 1304,80.96875 1304,79.950101 1304.3854,78.865061 1304.875,78.5625 1305.3646,78.259939 1306.5693,74.80066 1307.5312,70.875 1309.8023,61.608253 1309.1193,47.339665 1306.0938,40.5 1303.5819,34.821678 1298.3332,28 1296.4688,28 z M 1296.7812,32.125 C 1297.7227,32.363133 1298.8907,33.48174 1300.4062,35.46875 1304.1689,40.401655 1305.8673,45.882697 1306.5312,55.3125 1307.1886,64.646617 1304.6467,76.897282 1300.9688,82.0625 1298.6197,85.361338 1296.8728,85.738198 1294.9375,83.40625 1293.1179,81.213873 1295.0122,72.508518 1298.9688,64.90625 1302.247,58.607165 1302.0849,56.482904 1297.9688,51.25 1295.7618,48.44435 1293.5656,41.562364 1293.875,38.5 1294.349,33.809141 1295.2122,31.728112 1296.7812,32.125 z"/>
</svg>
