<svg xmlns="http://www.w3.org/2000/svg"
     width="29.9" height="64.0"
     viewBox="0.8224 11.3045 43.3026 92.6955">
  <path d="M 37.375 53.59375 C 36.975886 53.303284 36.710467 53.228798 36.09375 52.65625 C 34.666338 51.331069 32.2625 49.459454 30.75 48.5 C 27.022143 46.135233 26.991998 41.329355 30.6875 36.9375 C 35.175633 31.603658 33.732503 23.308847 27.46875 18.53125 C 23.238259 15.304498 22.190834 15.347556 21.375 18.75 C 20.344773 23.046571 18.062876 27 16.625 27 C 15.905038 27 14.126406 25.65 12.65625 24 C 8.4259366 19.252195 5 20.574731 5 26.9375 C 5 29.942783 5.8822428 31.286358 11 36.15625 C 16.060334 40.971501 17 42.416009 17 45.3125 C 17 48.207375 16.379418 49.159288 13.03125 51.375 C 8.313088 54.497332 6.4881089 57.724724 5.5625 64.5625 C 4.8223796 70.030012 7.1987362 78.373553 10.59375 82.125 C 11.814954 83.474416 12.256927 85.491336 12.125 89.21875 C 12.023284 92.092577 12.462464 95.694691 13.09375 97.21875 C 13.725036 98.742809 14.783752 100 15.4375 100 C 17.421911 100 25.010749 87.653744 25 84.4375 C 24.989457 81.283005 20.896541 71.676686 19.09375 70.5625 C 17.124111 69.345196 17.828558 63.22894 20.1875 61.03125 C 23.243278 58.184361 25.09115 58.471057 28.875 62.375 C 31.513009 65.096734 32.991537 65.795829 36.34375 65.875 C 37.903616 65.91184 38.945584 65.77378 40.125 65.6875 L 39.4375 62.6875 C 38.896086 62.665125 38.478186 62.73139 37.84375 62.65625 C 34.375493 62.245486 32.230838 61.284001 29.90625 59.0625 C 25.552936 54.90224 22.636059 55.113942 17.75 60 C 13.137166 64.612835 13.103912 67.099301 17.46875 73.53125 C 18.871814 75.598781 20.518724 79.028377 21.15625 81.15625 C 22.4228 85.383617 21.622515 87.863129 17.59375 92.1875 C 15.806141 94.106273 15.46229 94.20812 15.1875 92.78125 C 15.011438 91.867033 15.357962 89.405886 15.9375 87.3125 C 16.924339 83.747879 16.782048 83.321597 13.96875 80.6875 C 9.4558474 76.462059 7.7204419 71.562763 8.3125 64.65625 C 8.8642641 58.219776 11.648205 54.206063 17.125 51.9375 C 19.788625 50.83419 20 50.363404 20 45.46875 C 20 39.363692 19.319645 37 17.53125 37 C 15.361616 37 8.1974013 29.63762 7.5625 26.75 C 6.7430578 23.023062 8.2820151 23.276845 12.125 27.5 C 16.593103 32.410113 18.651499 32.088283 21.3125 26.03125 C 22.514946 23.294213 23.970873 21.044213 24.5625 21.03125 C 26.366621 20.991722 29.752777 25.317679 30.4375 28.5625 C 30.961357 31.044998 30.497727 32.357019 28 35.5 C 25.265859 38.940469 24.957868 40.017544 25.21875 44.9375 C 25.464218 49.566757 25.830966 50.529273 27.5 50.84375 C 28.6 51.05101 31.185915 52.764415 33.25 54.625 C 35.512247 56.664211 37.005095 57.651582 38.3125 57.78125 L 37.375 53.59375 z "/>
</svg>
