<svg xmlns="http://www.w3.org/2000/svg"
     width="58.7" height="64.0"
     viewBox="3415.4914 15.7503 78.8414 85.9172">
  <path d="M 3422.3538,92.874318 C 3419.4914,87.585277 3419.7741,73.26437 3422.8903,65.690473 3425.2385,59.983223 3425.2514,59.780764 3423.6222,54.190473 3420.4416,43.276873 3419.953,22.978641 3422.8716,23.00586 3423.2172,23.009083 3423.5319,28.296583 3423.571,34.75586 3423.6333,45.057585 3423.9661,47.290766 3426.2809,52.938416 L 3428.9197,59.376833 3426.5129,63.938416 C 3422.6304,71.296744 3421.9855,75.177463 3423.5387,81.835513 3424.2915,85.062494 3425.4581,88.911255 3426.1311,90.388315 3427.153,92.631284 3427.0931,93.335488 3425.7673,94.661258 3424.3175,96.111096 3424.0217,95.956264 3422.3538,92.874318 z M 3433.2931,94.32459 C 3429.7452,88.909795 3429.9663,69.87994 3433.6605,62.702594 3434.9873,60.124904 3434.8861,59.457292 3432.3715,54.202594 3430.7567,50.82811 3429.463,46.160942 3429.2026,42.770588 3428.6448,35.507626 3429.7793,24.684229 3431.3193,22.577379 3432.248,21.306798 3432.5,23.901161 3432.5,34.730982 3432.5,47.906909 3432.6217,48.731027 3435.3243,53.863454 L 3438.1487,59.226908 3436.1667,63.863454 C 3432.1389,73.28606 3432.1474,89.196115 3436.1823,92.955192 3437.299,93.995588 3437.9133,95.331286 3437.5473,95.92341 3436.4695,97.667452 3435.1613,97.175825 3433.2931,94.32459 z M 3441.8169,91.706025 C 3438.1592,82.499408 3437.9185,75.420755 3440.9629,66.59345 3443.5244,59.166501 3443.5178,58.951268 3440.5012,51.410789 3437.5082,43.929691 3436.6365,28.289199 3438.9736,24.002663 3439.9957,22.127818 3440.4574,21.878556 3440.8256,23.002663 3441.0953,23.826198 3442.249,25.175 3443.3894,26 3446.2948,28.102016 3455.1515,31.911659 3457.245,31.95984 3458.2047,31.981928 3461.8047,29.730924 3465.245,26.95761 3473.8843,19.993145 3475.4442,19.750263 3480.021,24.656866 3488.1794,33.403131 3490.3328,48.089402 3485.3101,60.730199 3481.0793,71.378296 3472.8865,81.219865 3470.3581,78.691427 3470.0879,78.421275 3471.2286,73.843948 3472.8929,68.519589 3477.0546,55.205632 3477.7413,48.256382 3475.4902,42.236483 3472.7215,34.832718 3472.2743,34.557572 3468.1147,37.698262 3466.1266,39.199345 3463.8569,41.054758 3463.0709,41.821402 3461.0844,43.759033 3455.8718,42.865006 3448,39.236533 3444.4066,37.580191 3441.2359,36.656669 3440.9094,37.171297 3440.0287,38.559402 3441.8427,48.795114 3443.5568,52.109774 3445.2515,55.387024 3445.7287,55.51975 3448.4411,53.468197 3449.5088,52.660688 3451.1178,52 3452.0168,52 3454.4121,52 3458.0024,56.249939 3457.9847,59.064451 3457.9674,61.817037 3457.448,62.696969 3454.2328,65.420582 3451.9758,67.332512 3451.9521,67.328261 3448.9762,64.477175 3445.144,60.805737 3444.1199,61.771601 3442.3814,70.696714 3441.0282,77.643721 3441.6545,84.737702 3444.201,91.305635 3444.8459,92.969134 3444.9222,94.477807 3444.3883,95.01166 3443.8545,95.545513 3442.8077,94.199834 3441.8169,91.706025 z M 3477.3673,71.75 C 3478.7253,69.9625 3481.2232,65.000786 3482.9182,60.723969 3486.3608,52.037584 3486.8719,45.215091 3484.6366,37.787663 3482.9777,32.275507 3477.453,24 3475.4321,24 3473.6213,24 3466.6372,28.304742 3462.2152,32.146336 3460.4086,33.715851 3458.1586,34.993422 3457.2152,34.985383 3456.2718,34.977343 3452.3612,33.4384 3448.5249,31.565509 3441.29,28.033446 3440,27.925524 3440,30.852304 3440,32.020547 3442.203,33.598313 3446.75,35.686481 3459.7246,41.644993 3459.5291,41.613835 3463.5842,38.370394 3470.1299,33.134799 3471.6271,32.445632 3473.3498,33.875327 3475.7133,35.836854 3478.3321,44.871344 3478.3138,51 3478.2997,55.686521 3475.7799,67.240408 3473.4612,73.25 3472.3433,76.14745 3474.7198,75.234834 3477.3673,71.75 z M 3455.6954,60.351308 C 3456.0165,59.514488 3455.3728,57.928398 3454.2608,56.816335 3452.5988,55.154356 3451.8701,54.999153 3450.1218,55.934796 3447.5971,57.286018 3447.4537,58.775089 3449.5592,61.781012 3450.8365,63.604706 3451.4793,63.813838 3453.1157,62.938103 3454.2142,62.350191 3455.3751,61.186133 3455.6954,60.351308 z"/>
</svg>
