<svg xmlns="http://www.w3.org/2000/svg"
     width="42.6" height="64.0"
     viewBox="1088.5000 12.3934 57.7913 86.8196">
  <path d="M 1100.4062 58.625 L 1097.375 62.40625 C 1098.031 62.723091 1098.8249 63.571318 1099.9062 65.25 C 1105.0951 73.305216 1106.1468 74.533609 1109.7188 76.71875 C 1115.0427 79.975845 1117.8537 79.389348 1120.4062 74.5 C 1122.1932 71.077379 1122.5739 68.04614 1123.0938 53.5 C 1123.4279 44.15 1124.2121 34.640699 1124.8438 32.375 C 1126.3077 27.123367 1129.5657 23 1132.2188 23 C 1137.7784 23 1138.4926 32.211134 1134 45.84375 C 1130.5285 56.377836 1130.239 62.736238 1132.9688 68.75 C 1134.6633 72.48309 1135.7646 73.423463 1138.0938 73.15625 C 1138.4247 73.118272 1138.5077 74.214653 1138.25 75.5625 C 1137.6559 78.670197 1136.894 78.615427 1132.9688 75.3125 C 1128.3383 71.416231 1126.3884 73.016387 1124.5312 82.21875 C 1124.228 83.721164 1122.574 86.533664 1120.875 88.46875 C 1119.1759 90.403837 1117.2869 92 1116.6875 92 C 1115.0786 92 1105.5794 81.862337 1102.4688 76.84375 C 1100.9864 74.452249 1098.6273 71.289206 1097.25 69.8125 C 1095.4807 67.915457 1095.0601 66.621108 1095.4062 64.875 L 1092.5 68.5 L 1092.6875 69.875 C 1094.1894 70.3764 1095.6767 72.309294 1098.6562 76.84375 C 1104.2014 85.28258 1109.1413 91.110207 1112.5 93.15625 C 1115.8765 95.213043 1118.358 94.795598 1121.8438 91.625 C 1124.6743 89.050349 1128 82.82645 1128 80.09375 C 1128 77.124468 1129.4594 76.800392 1132.375 79.09375 C 1135.7012 81.710148 1139.0303 81.228299 1140.9062 77.875 C 1142.2913 75.399054 1142.1807 75.022557 1139.0938 71.125 C 1136.7781 68.201377 1135.6263 65.464186 1135.125 61.75 C 1134.3729 56.178004 1134.5384 55.004056 1137.875 42.5625 C 1140.3913 33.180047 1140.545 27.983764 1138.4688 23.96875 C 1134.5515 16.393448 1125.4911 20.984547 1122.375 32.125 C 1121.4249 35.522018 1120.7686 43.018239 1120.5938 52.5 C 1120.3327 66.668534 1119.5322 71.448003 1116.8438 74.6875 C 1114.687 77.286197 1107.6227 71.325777 1101.4688 61.6875 C 1100.6801 60.452444 1100.3447 59.682285 1100.4062 58.625 z "/>
</svg>
