<svg xmlns="http://www.w3.org/2000/svg"
     width="51.5" height="64.0"
     viewBox="1779.7711 18.4686 72.0768 89.4983">
  <path d="M 1833.125,86.15625 C 1831.8577,86.205786 1830.5988,86.970665 1828.5938,88.5 1824.7499,91.431789 1823.5563,91.53491 1818.375,89.40625 1806.5722,84.557182 1801.8921,71.928483 1805.5,54.625 1806.9341,47.747275 1809.1052,44 1811.625,44 1812.3475,44 1814.6841,46.3625 1816.8125,49.25 1823.1356,57.828374 1823.1927,58.025558 1821.375,65.15625 1820.1318,70.033191 1819.9995,72.130811 1820.8438,74.25 1822.3326,77.987915 1823.3833,77.71639 1826.7188,72.75 1830.4654,67.17123 1832.0957,67.023621 1834.875,71.96875 1836.6949,75.206702 1837.4508,75.822489 1838.8125,75.09375 1841.4448,73.684972 1843.6584,70.855851 1845.4062,66.625 1847.8479,60.714601 1847.4422,57.3172 1843.9375,53.8125 1841.2973,51.172244 1840.3919,50.826302 1837,51.28125 1833.7853,51.712436 1832.954,51.466269 1832.4688,49.9375 1832.1437,48.913242 1832.357,47.178367 1832.9375,46.09375 1833.518,45.009133 1833.9559,42.636158 1833.9062,40.8125 L 1833.8125,37.5 1832.9062,40.6875 C 1831.654,45.017484 1830.0472,45.783622 1827.8438,43.0625 1826.3543,41.223022 1826.1415,39.786229 1826.6562,35.40625 1827.0953,31.670373 1826.913,30 1826.125,30 1825.4993,30 1825.0084,30.7875 1825,31.75 1824.9916,32.7125 1824.5439,34.158163 1824.0312,34.96875 1822.5346,37.335428 1818.1882,32.587709 1817.8125,28.1875 1817.457,24.023289 1815,22.468591 1815,26.40625 1815,28.619301 1814.5501,29 1811.9375,29 1810.2602,29 1807.5473,28.302295 1805.875,27.4375 1802.8354,25.865669 1800,26.088775 1800,27.90625 1800,28.436448 1800.9,29.150874 1802,29.5 1803.1,29.849126 1804,30.860012 1804,31.75 1804,33.868362 1800.0747,37.995226 1798.0625,38 1795.9586,38.004991 1790,41.703692 1790,43 1790,43.613209 1791.4772,43.410491 1793.6562,42.5 1795.6658,41.6604 1797.5495,41.205714 1797.8438,41.5 1798.9476,42.6038 1793.9263,51.0744 1791.6562,51.9375 1788.9628,52.961522 1786,55.678861 1786,57.125 1786,57.666901 1786.9963,57.418687 1788.2188,56.5625 1792.0433,53.883657 1793.3109,54.515588 1792.5625,58.75 1792.1071,61.326162 1790.8065,63.387931 1788.4375,65.34375 1784.4875,68.604785 1783.7711,71.047821 1787.4688,68.625 1791.0967,66.247902 1792,66.611904 1792,70.46875 1792,72.896723 1791.4168,74.258534 1790.0312,75 1787.7393,76.226595 1785.5309,79.87465 1786.5,80.84375 1786.8646,81.20828 1787.7012,80.79572 1788.3438,79.9375 1788.9863,79.079281 1790.2978,78.087893 1791.2812,77.71875 1794.3022,76.58464 1794.4192,79.735279 1791.5,83.5625 1788.5524,87.427022 1788.5562,89.252776 1791.5,86 1795.8029,81.245299 1799.6872,85.89284 1796.5938,92.09375 1794.8587,95.571627 1794.5472,98 1795.8125,98 1796.888,98 1801.0029,89.388504 1800.9688,87.21875 1800.9539,86.270963 1799.6039,82.365385 1797.9688,78.53125 1793.3731,67.754795 1794.0981,57.604613 1800.4688,43.625 1804.4127,34.970752 1806.0376,33.5 1811.5938,33.5 1814.9671,33.5 1816.5216,34.122913 1818.9375,36.4375 1820.6237,38.0529 1822,39.711845 1822,40.125 1822,40.538155 1823.312,42.31709 1824.9062,44.0625 1826.5004,45.80791 1828.5981,48.986465 1829.5625,51.125 1831.3904,55.178627 1834.3515,56.273523 1836.8125,53.8125 1838.4495,52.175432 1843.3716,55.853538 1843.8438,59.0625 1844.3079,62.218031 1842.3573,68.443236 1840.4062,70.0625 1839.0627,71.177573 1838.4737,70.909059 1836.3438,68.1875 1833.028,63.950825 1830.0295,64.048597 1826.0938,68.53125 1823.0079,72.045861 1823,72.059932 1823,69.5 1823,68.083951 1823.8931,65.202396 1824.9688,63.09375 L 1826.9062,59.25 1824,54.875 C 1816.025,42.855994 1815.6563,42.5 1811.4375,42.5 1807.9027,42.5 1807.3053,42.883417 1805.75,46.0625 1803.4295,50.805618 1802,58.795222 1802,66.9375 1802,75.440112 1805.1919,82.17026 1812.0938,88.28125 1818.269,93.749004 1822.2978,95.133724 1826.75,93.3125 1828.5375,92.581307 1830,91.573859 1830,91.0625 1830,89.902728 1831.3905,89.516542 1833.25,89.71875 L 1833.125,86.15625 z M 1833.4688,95.28125 C 1831.9498,95.123188 1830.3656,95.75472 1828,97.5 1825.5505,99.307202 1823.3558,100.0027 1820.0625,100 1815.8162,99.996516 1814.1853,99.292794 1807.6875,94.75 1806.1638,93.684745 1805.6519,93.802125 1804.4375,95.4375 1802.4591,98.101744 1802.6354,99.251988 1804.9062,98.53125 1806.047,98.169189 1808.5568,98.912886 1811.1562,100.40625 1817.3543,103.96691 1824.7192,103.94584 1829,100.34375 1831.3301,98.38312 1831.959,97.928276 1833.5938,98.5 L 1833.4688,95.28125 z"/>
</svg>
