<svg xmlns="http://www.w3.org/2000/svg"
     width="28.5" height="64.0"
     viewBox="4436.2558 38.0938 29.3796 65.9583">
  <path d="M 4456.4062 42.78125 L 4447.4062 42.09375 C 4447.8234 43.08233 4446.7418 45.6527 4444.5312 48.9375 C 4440.5805 54.808216 4440.2558 56.541541 4442.5938 59.125 C 4445.1225 61.919178 4445.8458 71.895122 4444.2188 81.8125 C 4442.9428 89.589374 4442.9488 90.942576 4444.3438 94.28125 C 4445.2044 96.341188 4446.9567 98.431046 4448.2188 98.9375 C 4449.4807 99.443954 4450.8726 99.902637 4451.3125 99.9375 C 4452.7579 100.05208 4457.4697 97.230387 4459.375 95.125 C 4460.1803 94.23515 4460.7073 93.789245 4461.3438 93.65625 L 4460.5 80.5 L 4460.5938 80.0625 C 4455.763 74.467071 4454.9164 65.974519 4458.9688 58.03125 C 4461.6354 52.804344 4461.5388 50.554223 4458.375 46.40625 C 4456.876 44.440967 4456.3108 43.561514 4456.4062 42.78125 z M 4451.875 44 C 4452.9961 44 4459 50.477184 4459 51.6875 C 4459 52.282353 4457.8584 55.245877 4456.4688 58.28125 C 4453.1886 65.445839 4453.197 68.803714 4456.4688 78.40625 C 4459.5957 87.583494 4459.2839 91.84483 4455.3125 94.96875 C 4452.0561 97.530168 4450.5272 97.52722 4448 95 C 4445.6257 92.625652 4445.3852 87.201542 4447.3125 79 C 4448.6926 73.127116 4447.711 63.952685 4444.9688 57.375 C 4443.7339 54.413291 4443.8488 53.971253 4447.4062 49.125 C 4449.4736 46.308661 4451.4797 44 4451.875 44 z "/>
</svg>
