<svg xmlns="http://www.w3.org/2000/svg"
     width="22.0" height="64.0"
     viewBox="1350.4082 11.2978 31.7070 92.2052">
  <path d="M1366.9731 93.75C1365.912 91.4125 1365.034 88.88125 1365.022 88.125C1365.0061 87.132749 1364.1649 86.917018 1362.0 87.35C1358.5965 88.030693 1357.9919 86.609871 1361.0 85.0C1364.7838 82.974964 1362.6913 75.347091 1358.6891 76.576153L1356.5 77.248422L1358.75 74.80976C1360.1344 73.309288 1361.0 71.103863 1361.0 69.077141C1361.0 66.062931 1360.7877 65.836472 1358.5 66.410644C1357.125 66.755747 1356.0 66.657972 1356.0 66.193366C1356.0 65.72876 1357.125 64.291745 1358.5 63.0C1359.9896 61.600567 1361.0 59.541487 1361.0 57.905141C1361.0 55.656277 1360.4471 55.037469 1357.947 54.488366C1354.4082 53.711099 1354.502 51.553684 1358.0761 51.521695C1360.2083 51.502611 1360.537 50.989087 1360.8073 47.254655C1361.077 43.527495 1360.8024 42.867091 1358.5573 41.84414C1355.3367 40.376744 1355.2635 39.0 1358.4062 39.0C1360.5462 39.0 1360.8911 38.427351 1361.5243 33.823001C1362.0996 29.64043 1361.9255 28.418717 1360.6182 27.462758C1358.382 25.827595 1358.5943 25.000005 1361.25 24.999971C1362.6228 24.999953 1364.5888 23.635421 1366.2926 21.499971C1371.2413 15.297827 1372.6387 16.595381 1376.0044 30.518054C1377.9714 38.654854 1378.1152 41.225358 1377.5972 58.981317C1377.0899 76.370249 1375.4479 91.202673 1373.4713 96.25C1372.1974 99.503072 1369.0316 98.285141 1366.9731 93.75Z M1373.0791 87.232563C1373.7467 84.079653 1374.5645 73.436794 1374.8964 63.581764C1375.5302 44.766248 1374.3284 31.114975 1371.4266 24.170089C1370.1622 21.143955 1369.7516 20.835866 1368.618 22.062874C1364.9442 26.039396 1364.1158 31.421598 1363.9133 52.62952C1363.7328 71.528982 1363.9277 74.298602 1365.9773 81.956145C1368.3283 90.740146 1369.8808 94.19169 1371.1329 93.41788C1371.5358 93.168865 1372.4116 90.385473 1373.0791 87.232563Z"/>
</svg>
