<svg xmlns="http://www.w3.org/2000/svg"
     width="49.8" height="64.0"
     viewBox="200.9196 14.6594 68.1421 87.5978">
  <path d="M218.03399 95.540959C216.41688 93.592456 217.5642 88.678055 220.44212 85.226045C223.65007 81.378183 226.88361 73.599401 227.14969 69.089985C227.32771 66.072892 226.68247 64.386899 224.10375 61.130994C222.30425 58.858947 220.18814 57.0 219.40127 57.0C216.73296 57.0 212.97766 65.499579 212.55909 72.486305C212.41184 74.944095 209.20108 73.899662 208.00157 71.003783C204.91959 63.563235 207.31133 52.514427 213.18942 47.038155C216.08962 44.336203 218.04094 44.46512 223.91912 47.747027C226.62521 49.257892 229.14409 50.189241 229.51664 49.816691C230.45039 48.882942 230.48834 43.445571 229.60127 37.691751C228.7938 32.454206 227.15568 31.101509 223.68254 32.804273C217.295 35.935868 214.75411 34.833295 213.54849 28.406787C213.04175 25.705608 213.26728 24.304146 214.38929 23.182141C215.76702 21.80441 216.48101 21.838658 221.42656 23.5197L226.93053 25.390557L231.11852 22.024996L235.30651 18.659434L238.13916 21.829717C241.47058 25.558226 241.92733 25.624537 246.22583 23.003738C250.16688 20.60088 253.56549 20.425294 254.39301 22.581787C255.49577 25.455524 255.0259 28.664115 253.1928 30.777694C251.71818 32.477946 250.62329 32.75916 247.24321 32.305795C243.43172 31.794567 243.04955 31.954405 242.45917 34.306657C241.57469 37.830689 241.35275 49.672242 242.15598 50.483088C242.51676 50.847297 245.33687 49.468832 248.42289 47.419834C253.32182 44.167129 254.34623 43.836724 256.49572 44.816097C257.84977 45.433041 260.34016 48.089305 262.02993 50.718907C264.86965 55.138057 265.06165 55.99141 264.56621 61.991303C264.00324 68.808896 261.7538 73.21219 258.50844 73.849436C257.03866 74.138034 256.82843 73.702784 257.30089 71.349436C258.02941 67.72067 256.24148 61.52851 253.83682 59.352326C251.34676 57.098848 247.89538 58.899167 245.64048 63.627721C243.49272 68.131621 243.56967 71.282505 245.93778 75.801882C249.62828 82.84497 253.0 90.706338 253.0 92.267884C253.0 97.453729 250.33704 98.257189 245.46521 94.541261C242.61922 92.370518 241.88399 92.217519 239.18825 93.235046C236.64658 94.19442 235.56903 94.082846 232.75852 92.569289C229.65013 90.895309 229.14299 90.874697 226.36826 92.309568C224.7106 93.166775 222.76951 94.572798 222.05472 95.434063C220.43995 97.37975 219.57905 97.402638 218.03399 95.540959Z M241.87275 87.338875C245.53174 83.055238 245.7088 81.315217 243.0 76.261185C241.9 74.208823 241.0 71.297492 241.0 69.791561C241.0 65.366211 244.97765 58.326975 248.57211 56.391233C251.56586 54.778992 251.9981 54.768737 254.26809 56.256093C255.61911 57.141314 257.63471 59.705291 258.74719 61.953819C260.24401 64.979166 260.92979 65.625342 261.38494 64.439239C262.60128 61.269512 261.92629 56.428672 259.73355 52.595883C256.12345 46.285644 254.92037 46.033679 248.73643 50.292721C245.77589 52.331725 242.62939 54.0 241.7442 54.0C238.79348 54.0 238.01807 47.0332 239.51377 33.960159C240.09808 28.853075 239.93588 28.208608 237.43743 25.710159C234.19425 22.466978 233.83117 22.424088 231.49282 25.007931C229.73478 26.950549 229.74427 27.300852 231.78455 35.777245C233.82306 44.246258 233.74507 49.367405 231.52282 52.96308C230.55187 54.534109 226.86581 53.571651 221.93679 50.460095C219.79341 49.107043 217.43424 48.0 216.69419 48.0C213.15429 48.0 208.31312 57.359965 208.80657 63.25C209.21738 68.153603 210.38796 67.993897 212.47139 62.75C214.44517 57.782065 217.68972 53.986701 219.92431 54.031803C222.01054 54.073911 223.98901 55.714429 227.38508 60.218151C229.83071 63.461434 230.13292 64.610879 229.75133 69.218151C229.51072 72.123168 228.70394 75.937719 227.95848 77.694931C226.86133 80.28115 226.84192 81.329034 227.85658 83.194931C229.20438 85.67344 235.77802 90.902144 237.62275 90.962976C238.24026 90.983339 240.15276 89.352494 241.87275 87.338875Z M222.89504 29.626467C223.788 28.550519 223.49717 27.900551 221.55267 26.626467C217.07916 23.695311 214.88598 24.933323 216.60699 29.418213C217.35339 31.363315 221.3439 31.495477 222.89504 29.626467Z M224.17398 90.410032C226.98694 88.955394 227.11303 88.684462 225.65545 87.226875C224.19786 85.769287 223.88938 85.790137 222.03113 87.47183C220.16975 89.15635 219.23941 92.0 220.54966 92.0C220.85197 92.0 222.48292 91.284515 224.17398 90.410032Z M251.8 28.8C253.24459 27.355408 253.37511 24.349864 252.02937 23.51815C250.8556 22.79272 245.0 25.673166 245.0 26.97599C245.0 28.003368 247.91658 29.922286 249.55 29.969591C250.1275 29.986316 251.14 29.46 251.8 28.8Z M250.0 91.69113C250.0 89.544335 247.39156 86.639968 246.1517 87.406242C244.44879 88.458702 244.75343 90.757008 246.75 91.919901C249.12805 93.304985 250.0 93.243607 250.0 91.69113Z"/>
</svg>
