<svg xmlns="http://www.w3.org/2000/svg"
     width="28.5" height="64.0"
     viewBox="5617.2103 15.8528 37.8710 85.1578">
  <path d="M 5649.5625 77.5625 C 5649.0585 76.609935 5648.5639 75.719141 5648.1875 74.34375 C 5647.4571 71.674703 5646.4133 68.050631 5645.875 66.28125 C 5645.216 64.114843 5645.2285 62.41849 5645.9375 61.09375 C 5647.529 58.119899 5647.2487 44.497918 5645.5 40.3125 C 5644.0469 36.834879 5644.0787 36.588276 5646.625 33.25 C 5650.0462 28.764483 5651.0813 21.35825 5648.4375 20.34375 C 5647.1581 19.852782 5646.1765 20.359553 5645.0625 22.0625 C 5644.1977 23.38441 5642.7014 25.255323 5641.7188 26.25 C 5639.9967 27.992902 5639.7846 27.939752 5635.625 24.53125 C 5630.61 20.421807 5626.834 19.975698 5624.5625 23.21875 C 5621.2103 28.004734 5623.9491 37.65278 5629.375 40.125 C 5634.3783 42.404624 5635.6013 52.08158 5631.8438 59.84375 L 5629.6562 64.3125 L 5632.2188 66.40625 C 5636.9564 70.304826 5638.4178 76.787855 5635.8438 82.4375 C 5634.8633 84.589464 5634.0228 85 5630.4062 85 C 5628.052 85 5625.8806 85.379635 5625.5938 85.84375 C 5624.4193 87.74398 5627.1532 94.010934 5629.7812 95.4375 C 5631.2693 96.245179 5633.9259 96.94673 5635.6875 96.96875 C 5639.0378 97.010629 5644 95.19618 5644 93.9375 C 5644 92.998886 5645.0157 92.601395 5646.6875 92.65625 L 5648.1875 85.53125 C 5648.1167 84.384163 5648.2244 83.689534 5648.5938 83.4375 L 5649.5625 77.5625 z M 5628.125 23.09375 C 5628.7783 23.110099 5629.6983 23.580087 5631.5 24.53125 C 5633.547 25.611868 5635.7065 27.5125 5636.2812 28.75 C 5637.7814 31.979518 5641.3024 31.600886 5644.4375 27.875 C 5648.1451 23.468733 5648.8969 25.13016 5645.4062 30.03125 C 5643.8119 32.269558 5642.0998 34.706003 5641.5938 35.4375 C 5640.996 36.301475 5641.2588 37.994891 5642.3438 40.28125 C 5644.3103 44.425452 5644.5864 55.74326 5642.8438 60.5625 C 5641.8822 63.221897 5641.961 64.426495 5643.375 67.40625 C 5646.1017 73.152261 5646.4965 79.990608 5644.4688 86.4375 C 5643.4909 89.546392 5641.8868 92.506432 5640.9062 93.03125 C 5637.7972 94.695171 5633.1955 94.135536 5631.0312 91.8125 C 5628.3333 88.916594 5628.4643 88 5631.5625 88 C 5635.6138 88 5637.8168 86.285173 5638.9375 82.25 C 5640.7194 75.833739 5640.2406 71.63908 5637.125 67 C 5634.6058 63.24894 5634.35 62.299363 5635.25 59.59375 C 5636.666 55.337431 5637.3237 47.47003 5636.5312 44.3125 C 5636.1705 42.875415 5633.7222 39.62362 5631.0625 37.09375 C 5625.789 32.077689 5624.1304 27.561317 5626.4375 24.40625 C 5627.0881 23.516456 5627.4717 23.077401 5628.125 23.09375 z "/>
</svg>
