<svg xmlns="http://www.w3.org/2000/svg"
     width="44.9" height="64.0"
     viewBox="5900.5570 16.2743 59.4430 84.7251">
  <path d="M5925.4572 95.136969C5918.2006 90.711746 5916.962 82.601428 5922.0 72.5C5923.6459 69.2 5924.9942 65.745161 5924.9962 64.82258C5925.0004 62.975183 5920.5008 59.0 5918.4056 59.0C5916.3551 59.0 5912.0 64.222118 5912.0 66.680765C5912.0 71.86682 5907.5429 69.411004 5906.4579 63.627081C5905.5289 58.675106 5907.5753 52.438635 5910.9078 50.06565C5912.9747 48.59386 5915.2005 48.063046 5918.9506 48.147535C5921.8024 48.211784 5924.5793 47.820669 5925.1216 47.27839C5926.1053 46.294681 5924.0038 34.670419 5922.5859 33.25252C5922.2217 32.888319 5920.4783 33.183967 5918.7118 33.909516C5913.632 35.995926 5910.6478 36.236321 5908.6087 34.723394C5904.557 31.717331 5909.6407 21.162409 5914.4446 22.60672C5915.5751 22.946603 5917.6496 24.299134 5919.0547 25.612344C5920.4598 26.925555 5922.059 28.0 5922.6086 28.0C5923.1581 28.0 5925.1342 26.425 5927.0 24.5C5928.8658 22.575 5931.0916 21.018288 5931.9462 21.040641C5932.8008 21.062993 5935.058 22.412993 5936.9622 24.040641C5938.8664 25.668288 5940.759 27.0 5941.1678 27.0C5941.5767 27.0 5943.569 25.875 5945.5951 24.5C5951.822 20.27433 5956.0 21.559265 5956.0 27.7C5956.0 29.716994 5955.1851 31.814861 5953.9041 33.095891C5951.8403 35.159659 5950.5608 35.243627 5942.5585 33.840439C5939.8664 33.36838 5938.0329 37.321264 5938.0147 43.636456L5938.0 48.772912L5942.3501 49.425246C5945.2292 49.856991 5947.5502 50.994381 5949.214 52.78879C5953.6747 57.599671 5955.3276 65.802091 5952.5907 69.54509C5951.2458 71.3843 5950.9797 71.255847 5946.7708 66.73622C5944.345 64.131299 5941.8151 62.0 5941.1487 62.0C5938.4113 62.0 5939.0065 65.394655 5942.8903 71.931965C5945.1506 75.736697 5946.9975 79.670987 5946.9944 80.67483C5946.9815 84.916891 5944.5712 90.628765 5941.4969 93.703076C5938.6723 96.527662 5937.5052 96.999464 5933.35 96.996262C5930.3915 96.993982 5927.3133 96.268853 5925.4572 95.136969Z M5936.2731 75.46041C5939.9542 72.959048 5939.9878 72.877006 5938.5052 70.01007C5936.5865 66.299614 5936.5742 61.598291 5938.4791 60.017337C5940.2058 58.5843 5945.1745 59.942943 5948.1912 62.673031C5950.7856 65.02094 5951.5103 63.646734 5950.1218 59.012272C5948.7508 54.436303 5945.1149 52.0 5939.6566 52.0C5937.5323 52.0 5935.9955 51.430552 5935.6433 50.512913C5934.7349 48.145689 5936.1187 36.772336 5937.6917 33.677604C5939.0719 30.962161 5938.9885 30.725323 5935.4919 27.427604C5933.493 25.542422 5931.5181 24.0 5931.1031 24.0C5930.6881 24.0 5929.3052 25.11069 5928.0299 26.468199C5925.8385 28.800773 5925.774 29.249532 5926.8556 34.634981C5929.0281 45.452927 5927.9016 55.301586 5924.8416 52.241641C5924.1587 51.558738 5921.2847 51.0 5918.455 51.0C5912.074 51.0 5909.9691 52.99197 5909.2522 59.70942L5908.7408 64.5L5912.8382 60.118549C5916.509 56.193169 5917.2771 55.802715 5920.2177 56.367479C5923.9031 57.075276 5928.0 61.115164 5928.0 64.041412C5928.0 65.102849 5927.4752 67.933364 5926.8338 70.331446C5926.1924 72.729528 5925.9533 75.435986 5926.3025 76.345797C5927.2459 78.804487 5931.969 78.385078 5936.2731 75.46041Z M5918.0 31.000512L5920.5 29.045495L5917.5 26.544118C5915.85 25.16836 5913.8405 24.148807 5913.0344 24.278445C5911.0179 24.602743 5908.5252 29.320274 5909.3014 31.343177C5910.1723 33.612532 5914.8979 33.426374 5918.0 31.000512Z M5930.4667 87.917795C5934.2538 85.361896 5938.0 80.728661 5938.0 78.600687C5938.0 78.326438 5936.4395 78.754091 5934.5321 79.551027C5929.828 81.51655 5927.6486 81.374161 5925.4624 78.958457L5923.6148 76.916914L5922.3429 79.208457C5920.4941 82.539062 5920.7201 85.37441 5923.0726 88.365141C5924.2125 89.814314 5925.3149 91.0 5925.5224 91.0C5925.73 91.0 5927.9549 89.613008 5930.4667 87.917795Z M5940.6319 90.428798C5943.3643 87.531588 5944.0 86.057822 5944.0 82.619928C5944.0 80.28921 5943.3946 77.554363 5942.6547 76.54249C5941.3999 74.826356 5941.2703 74.897514 5940.7271 77.60136C5939.9131 81.653505 5936.0114 87.130731 5932.2512 89.5C5927.7789 92.317918 5928.1081 94.0 5933.1319 94.0C5936.5744 94.0 5937.8258 93.404113 5940.6319 90.428798Z M5952.4286 30.428571C5954.3461 28.511058 5954.3747 27.894643 5952.6551 25.542981C5951.3495 23.757516 5951.2188 23.75769 5948.1864 25.548934C5944.9405 27.466335 5943.59 29.527597 5944.5558 31.090242C5945.4704 32.570099 5950.729 32.128136 5952.4286 30.428571Z"/>
</svg>
