<svg xmlns="http://www.w3.org/2000/svg"
     width="48.4" height="64.0"
     viewBox="2008.5237 18.3665 64.4861 85.2431">
  <path d="M2020.5937 95.295264C2020.1495 93.895619 2020.6278 91.749327 2021.9281 89.306871C2024.6464 84.201197 2025.7797 82.966273 2030.6537 79.798593C2034.0467 77.593473 2034.9325 76.358812 2035.4903 73.05757C2037.1473 63.249956 2026.4125 56.830287 2020.7626 64.25C2019.4014 66.0375 2017.9677 68.5125 2017.5765 69.75C2015.9255 74.972748 2012.5237 69.917866 2013.2648 63.342981C2013.8129 58.480491 2017.4869 52.324102 2020.4025 51.382715C2023.4032 50.413828 2029.6878 50.762525 2032.0546 52.029233C2034.8573 53.529203 2035.9542 52.35526 2036.2576 47.530844C2036.4865 43.891416 2036.3052 43.627721 2033.0 42.792967C2028.2464 41.592402 2025.0 37.772039 2025.0 33.378495C2025.0 28.822038 2026.3742 26.374996 2029.98 24.51035C2034.1258 22.366484 2034.5428 22.492219 2039.8965 27.5C2042.5425 29.975 2045.0455 32.0 2045.4587 32.0C2045.8719 32.0 2048.2234 30.641108 2050.6844 28.98024C2056.7197 24.907081 2061.9165 22.838714 2064.2524 23.580093C2066.4926 24.291111 2069.0098 29.691253 2068.978 33.717881C2068.9476 37.573504 2065.311 45.268887 2063.7601 44.759681C2063.067 44.532144 2062.3615 42.951644 2062.1922 41.24746C2061.6045 35.331444 2058.1037 34.971057 2052.3222 40.231416C2049.5337 42.768613 2050.2817 44.592919 2055.1233 47.062921C2059.231 49.15849 2059.691 50.389351 2057.8646 54.397935C2056.1923 58.068116 2054.3537 58.291595 2049.4541 55.420216C2047.0372 54.00385 2044.5963 53.131436 2044.0299 53.481519C2042.4276 54.471816 2042.8161 58.138978 2044.75 60.278947C2047.7534 63.602348 2047.0377 73.230134 2043.2367 80.634671C2040.2311 86.489879 2040.169 86.842929 2041.8726 88.384671C2046.2342 92.33188 2049.3653 89.742207 2054.4284 78.0C2057.4345 71.028196 2061.0 66.229475 2061.0 69.155333C2061.0 70.035211 2060.3714 71.276836 2059.603 71.914501C2058.8347 72.552166 2057.4596 75.355873 2056.5474 78.144962C2054.8504 83.333077 2050.5721 90.918452 2048.6005 92.234687C2046.0548 93.93417 2042.6178 92.874554 2039.3143 89.371736C2035.9051 85.756931 2035.8996 85.735601 2037.8333 83.621736C2043.8222 77.075082 2045.5046 67.948131 2041.9717 61.170259C2039.8067 57.016469 2040.2528 53.694933 2043.3175 51.151492C2044.91 49.829793 2047.1125 50.588522 2051.2128 53.871281C2053.3786 55.605303 2056.0 54.657167 2056.0 52.139793C2056.0 50.925215 2055.0837 49.986838 2053.5126 49.592531C2050.1854 48.75744 2047.6087 44.695209 2048.4018 41.535141C2049.169 38.478603 2055.5333 34.0 2059.1097 34.0C2060.5647 34.0 2062.3153 34.675 2063.0 35.5C2065.0119 37.924182 2066.0 37.243791 2066.0 33.434259C2066.0 25.083056 2062.3599 24.034387 2053.405 29.805813C2044.5399 35.519424 2044.5945 35.516782 2039.8562 30.461379C2034.4744 24.719424 2030.3167 24.519481 2027.5834 29.871181C2025.5513 33.85003 2027.1257 36.441143 2033.3706 39.39544C2036.4032 40.830087 2039.1524 42.437622 2039.4801 42.967741C2039.8077 43.49786 2039.3388 46.466475 2038.4382 49.564663C2036.819 55.13451 2036.7652 55.190139 2033.6503 54.521127C2031.9176 54.148993 2028.1899 53.615891 2025.3663 53.336455C2020.45 52.849901 2020.1219 52.973621 2017.6163 56.258586C2015.614 58.883801 2015.001 60.840005 2015.0043 64.594391L2015.0086 69.5L2017.96 65.051161C2023.3009 57.000413 2029.2815 56.139778 2034.9581 62.605046C2040.4241 68.830526 2038.5951 77.851468 2031.0015 82.119308C2026.4343 84.686227 2024.1756 87.690537 2022.4699 93.467441C2021.437 96.965628 2021.1978 97.19866 2020.5937 95.295264Z M2026.0 95.69113C2026.0 94.971251 2026.6688 93.508751 2027.4863 92.44113C2028.846 90.665225 2028.8802 90.776633 2027.8884 93.75C2026.7565 97.143486 2026.0 97.921082 2026.0 95.69113Z M2040.6205 96.251093C2034.926 93.716226 2034.6978 93.69283 2033.3705 95.508039C2032.0475 97.317297 2032.0 97.310556 2032.0 95.313574C2032.0 91.181133 2034.3176 90.70657 2041.0799 93.454334C2044.5256 94.85445 2048.1456 96.0 2049.1244 96.0C2051.3184 96.0 2056.6146 88.487276 2058.6671 82.463553C2060.0909 78.284989 2062.001 76.442856 2061.9992 79.25C2061.9977 81.597343 2055.8724 93.494 2053.2462 96.25C2050.0451 99.609459 2048.1652 99.609621 2040.6205 96.251093Z"/>
</svg>
