<svg xmlns="http://www.w3.org/2000/svg"
     width="64.0" height="62.9"
     viewBox="1033.3562 16.2425 88.3382 86.7575">
  <path d="M 1100.4062,58.625 C 1100.4842,57.284222 1101.2613,55.443509 1103.25,51.1875 1105.2225,46.966011 1107.3511,42.15 1107.9688,40.5 1109.234,37.119505 1112.397,33.257944 1115.8438,30.84375 1117.1179,29.951235 1117.6944,28.926345 1117.1562,28.59375 1115.68,27.68136 1107.6927,34.746913 1106.125,38.34375 1099.443,53.674027 1093.1904,63.698114 1087.5625,68.125 1084.9005,70.219003 1084.7423,70.220581 1075.4062,68.65625 1065.119,66.932552 1062.4125,67.349606 1058.1562,71.3125 1049.4738,79.396601 1052.5086,89.059895 1062.1562,84.03125 1067.0801,81.46476 1067.4469,81.480037 1071.4062,84.5 1073.209,85.875 1075.413,87 1076.3125,87 1078.6658,87 1086,83.922446 1086,82.9375 1086,81.226681 1084.109,81.05779 1081.3438,82.5 1077.4624,84.524293 1076.3961,84.400151 1072.5938,81.5 1068.9091,78.689663 1065.4405,78.3544 1062.5625,80.53125 1061.4948,81.338759 1059.517,82 1058.1875,82 1056.0764,82 1055.8609,81.672398 1056.4375,79.375 1057.3733,75.646755 1060.0655,72.283845 1063.1562,70.96875 1065.2272,70.087595 1067.8215,70.237789 1075.0312,71.625 L 1084.2812,73.40625 1088.1875,71.125 C 1090.261,69.931623 1091.4839,69.473171 1092.6875,69.875 L 1092.5,68.5 1095.4062,64.875 C 1095.4284,64.763087 1095.3771,64.678659 1095.4062,64.5625 1095.8948,62.615988 1096.4995,61.983384 1097.375,62.40625 L 1100.4062,58.625 z M 1088.5,84.46875 C 1088.0789,84.477294 1087.3155,84.819744 1086,85.5 1084.35,86.353248 1083,87.495374 1083,88.03125 1083,88.567126 1083.4764,89 1084.0625,89 1086.1108,89 1089,86.915628 1089,85.4375 1089,84.783932 1088.9211,84.460206 1088.5,84.46875 z M 1051.25,20.375 C 1050.1657,20.422389 1049.1523,20.775209 1047.625,21.5 1043.7109,23.357338 1041.8831,25.727281 1040.0625,31.28125 1037.3562,39.537563 1041.8157,48.140438 1049.5625,49.59375 1052.9437,50.228061 1052.9967,50.307037 1052.9688,55.375 1052.9453,59.642214 1052.2965,61.492991 1049.0938,66.3125 1042.1384,76.778931 1041.5426,84.662329 1047.0625,93.59375 1049.7234,97.899147 1053.1545,98.379508 1060.2188,95.40625 1067.4819,92.349182 1068.6507,92.409376 1073.4375,96.03125 1075.598,97.665949 1078.1712,99 1079.1562,99 1083.2988,99 1092,92.581895 1092,89.53125 1092,88.034312 1088.7469,89.276355 1088.3125,90.9375 1088.0302,92.01712 1086.0231,93.571776 1083.7812,94.46875 1079.8114,96.057142 1079.7456,96.036397 1075.0625,93.03125 1069.48,89.448935 1067.3156,89.286934 1061.875,92.0625 1054.4823,95.834004 1050.018,94.679014 1047.3438,88.28125 1045.1172,82.954575 1046.1978,72.966525 1049.3438,69.78125 1053.7965,65.273094 1056.0149,60.389673 1056,55.03125 1055.9813,48.298777 1055.4671,47.46291 1050.9062,46.625 1046.1481,45.750862 1043.3266,42.499282 1042.5312,37 1041.7399,31.528582 1043.7551,26.058227 1047.4688,23.625 1049.5996,22.228813 1050.7224,22.100609 1054.0625,23 1057.4034,23.899614 1058.4524,24.862634 1060.25,28.5625 1061.4395,31.010895 1062.699,33 1063.0625,33 1063.426,33 1065.3434,31.482148 1067.3125,29.625 1074.1223,23.202543 1079.9782,24.376536 1082.9375,32.75 1084.6656,37.639547 1083.2404,43.853336 1079.5625,47.53125 1077.5837,49.510069 1076.7556,49.692457 1072.9688,49 1065.8418,47.696725 1063,49.670779 1063,55.9375 1063,59.329902 1065.278,61.471975 1070.9375,63.46875 1080.8077,66.951169 1085.4922,64.817141 1093.2812,53.3125 1098.9742,44.903923 1101.3343,38.67408 1100.5,34.15625 1099.74,30.040651 1096.9299,24 1095.7812,24 1093.9171,24 1093.9936,26.936598 1095.9375,30.125 1099.8878,36.604635 1098.3678,42.622776 1090,53.6875 1083.841,61.831431 1080.4531,63.517558 1073.9375,61.59375 1069.4428,60.2666 1066,56.958491 1066,53.96875 1066,51.598439 1067.4633,51.154228 1073.5,51.71875 1078.0371,52.143033 1078.7654,51.906993 1081.3125,49.21875 1085.5306,44.76697 1087.0427,38.690532 1085.4688,32.53125 1082.9593,22.710842 1075.7409,20.242545 1067.625,26.4375 L 1063.125,29.90625 1061.3125,26.1875 C 1059.9161,23.330474 1058.548,22.211511 1055.3125,21.1875 1053.4857,20.609306 1052.3343,20.327611 1051.25,20.375 z M 1099.4062,23.03125 C 1099.1408,23.116278 1099,23.314085 1099,23.65625 1099,24.016835 1100.1595,25.816835 1101.5625,27.65625 1102.9655,29.495665 1104.4862,31 1104.9375,31 1105.3888,31 1107.7168,29.208693 1110.125,27.03125 1113.5649,23.920986 1114.0831,23.063471 1112.5625,23.03125 1111.4979,23.008693 1109.5854,23.991627 1108.3125,25.1875 L 1106,27.34375 1103.6875,25.1875 C 1102.0194,23.620293 1100.2027,22.776166 1099.4062,23.03125 z M 1052.125,28.125 C 1051.266,28.122405 1050.3196,28.73409 1048.75,29.96875 1045.1636,32.789821 1044.6292,37.723083 1047.5938,40.6875 1048.8639,41.957635 1050.8125,43 1051.9062,43 1056.594,43 1058.7846,33.784623 1055,30 1053.7568,28.756842 1052.984,28.127595 1052.125,28.125 z M 1074.2188,32 C 1070.9331,32.018532 1069.6651,32.793826 1068.125,35.71875 1066.7354,38.357786 1067.601,42.990637 1069.8125,44.75 1072.2663,46.702231 1074.6808,46.243915 1076.9375,43.375 1080.6591,38.64373 1079.0647,31.972667 1074.2188,32 z M 1052.1875,31.15625 C 1052.6189,31.238024 1053.0025,31.660155 1053.5938,32.46875 1055.2587,34.745743 1055.3265,35.525593 1053.9688,38.0625 1052.7713,40.299857 1051.8643,40.489298 1050.1875,38.8125 1048.4865,37.11145 1048.6988,33.478974 1050.5938,31.90625 1051.2769,31.339244 1051.7561,31.074476 1052.1875,31.15625 z M 1073.5,34.84375 C 1075.0496,34.585292 1075.5628,35.134903 1075.8125,37.3125 1075.9897,38.858259 1075.5946,40.770759 1074.9375,41.5625 1072.9915,43.90735 1071.3057,43.215949 1070.625,39.8125 1069.9258,36.316532 1070.4814,35.347222 1073.5,34.84375 z"/>
</svg>
