<svg xmlns="http://www.w3.org/2000/svg"
     width="57.3" height="64.0"
     viewBox="3547.5000 52.7138 41.2926 46.1565">
  <path d="M 3551.5312 78.46875 L 3551.5 78.5 L 3552.5 82 L 3553.3125 83.3125 C 3554.249 83.291579 3555.6454 83.431603 3557.4062 83.875 C 3561.8618 84.996935 3568 85.392705 3568 84.5625 C 3568 81.814269 3571.3573 69.372252 3572.625 67.4375 C 3574.3643 64.783111 3579.7713 61.458793 3580.75 62.4375 C 3581.064 62.751429 3580.1391 65.410508 3578.6875 68.375 C 3575.8137 74.24412 3575.3574 77.329566 3576.4688 83.59375 C 3577.1882 87.649181 3577.1708 87.670406 3574.3438 87.3125 C 3572.2471 87.047066 3570.6388 87.759864 3568.25 89.96875 C 3566.4625 91.621594 3565 93.217247 3565 93.5 C 3565 94.870258 3568.7484 93.764231 3570.3125 91.9375 C 3571.6383 90.389002 3572.7853 90.009786 3574.875 90.46875 C 3579.4586 91.475492 3580.4795 89.278315 3579 81.4375 C 3577.6851 74.468664 3578.1622 72.52977 3583.2188 64.875 C 3584.7454 62.563668 3584.7926 62.07276 3583.5 61 C 3578.3354 56.713774 3567 68.821562 3567 78.625 C 3567 82.923459 3562.7184 83.299903 3553.75 79.8125 C 3552.5281 79.33736 3551.8848 78.96568 3551.5312 78.46875 z "/>
</svg>
