<svg xmlns="http://www.w3.org/2000/svg"
     width="56.5" height="64.0"
     viewBox="1611.0000 16.0000 77.0000 87.2430">
  <path d="M 1683.4062,55.78125 C 1682.8884,57.309949 1682.0936,58.346982 1680.5,59.5625 1676.2649,62.792812 1674.9809,62.646029 1669.9062,58.40625 1665.4694,54.699305 1664.5923,54.569478 1656.75,56.53125 1654.024,57.213176 1653.9986,57.199154 1654.0938,52.375 1654.1465,49.698383 1654.7275,45.25 1655.375,42.5 1656.5098,37.680636 1656.6669,37.51349 1659.75,37.8125 1663.8928,38.214283 1669.6626,35.442936 1670.375,32.71875 1671.8702,27.001102 1665.6287,23.056626 1660.4688,26.4375 1656.6781,28.921206 1654.3483,28.322157 1650.875,24 1648.5746,21.137568 1646.9076,20 1645,20 1642.0854,20 1627.6778,27.118476 1624.5625,30.09375 1620.8417,33.647233 1623.7463,32.999638 1631.9375,28.46875 1643.9601,21.818585 1645.4078,21.708758 1650.125,27.09375 1654.4592,32.041559 1654.5387,32.727783 1652.4688,42.5 1650.7858,50.445522 1650.5828,57.80793 1651.9688,60 1652.7776,61.279381 1653.3824,61.287608 1656.2188,60.125 1662.9395,57.370256 1664.6508,57.549813 1669.1562,61.40625 1674.0673,65.60984 1675.0582,65.724154 1679.7188,62.84375 1682.2919,61.253411 1683.1567,61.055128 1683.8438,61.84375 L 1683.75,56.25 1683.4062,55.78125 z M 1664.6562,27.1875 C 1665.2775,27.142106 1665.783,27.394276 1666.4375,27.9375 1668.7821,29.88337 1668.3182,32.53122 1665.4375,33.84375 1662.3676,35.242518 1660.981,35.262831 1659,34 1657.1238,32.803983 1658.3864,30.550731 1662.1875,28.25 1663.2981,27.577794 1664.035,27.232894 1664.6562,27.1875 z M 1638.625,29.6875 C 1635.4608,29.650174 1626,34.853727 1626,37.09375 1626,38.192556 1628.7916,37.172676 1632.1562,34.84375 1633.6161,33.833249 1635.7236,33 1636.8438,33 1639.0886,33 1640.4361,31.526451 1639.5312,30.0625 1639.3815,29.820229 1639.077,29.692832 1638.625,29.6875 z M 1683.9375,66.09375 C 1683.3383,66.92423 1682.4779,67.785995 1681.0938,68.71875 1676.6929,71.684487 1671.9277,71.663588 1668.3125,68.65625 1662.2523,63.615018 1661.4506,63.562116 1658.7188,68.25 1657.3604,70.580939 1655.4102,75.107298 1654.4062,78.3125 L 1652.5938,84.15625 1654.9375,88.59375 C 1657.6434,93.694488 1657.2444,94.871523 1653.625,92.5 1650.5323,90.473546 1647.7437,91.200552 1645.5,94.625 1643.3827,97.856411 1644.5616,99.242958 1646.9375,96.3125 L 1648.7188,94.09375 1652.4688,96.125 C 1656.0079,98.021931 1656.3016,98.02814 1658.0938,96.40625 1660.5163,94.213922 1660.4972,91.876969 1658,87.78125 1655.5901,83.828596 1655.4848,80.84776 1657.5625,74.75 1659.9327,67.79387 1661.2076,67.209571 1665.875,70.90625 1670.5676,74.622845 1675.2336,74.942192 1680.75,71.96875 L 1683.75,70.375 1684,70 1683.9375,66.09375 z M 1640.4062,36 C 1636.6277,36 1632.1476,37.92509 1630.0625,40.4375 1628.9612,41.764524 1629.0382,41.995701 1630.625,41.96875 1631.6548,41.951258 1633.3699,41.276258 1634.4375,40.46875 1636.5531,38.86865 1641.5579,38.471007 1642.4062,39.84375 1643.4276,41.496181 1644.0545,56.526071 1643.1562,57.875 1642.4199,58.980894 1641.3988,58.745021 1637.7812,56.625 1635.3288,55.187789 1632.6146,54 1631.75,54 1629.7966,54 1621.909,62.100587 1620.2812,65.78125 1619.6186,67.279735 1619.058,72.325 1619.0312,77 1618.9928,83.674375 1618.5675,86.210304 1617,88.78125 1615.902,90.582043 1615,92.552199 1615,93.15625 1615,95.076638 1618.2308,91.691198 1619.6562,88.28125 1620.396,86.511415 1621,81.88533 1621,78 1621,74.11467 1621.6188,69.466085 1622.375,67.65625 1624.094,63.542147 1629.7518,57 1631.5938,57 1632.3534,57 1635.2277,58.387987 1638,60.09375 1644.9951,64.397904 1646.0073,63.408041 1646,52.125 1645.997,47.379845 1645.5103,41.8125 1644.9375,39.75 1643.9874,36.328627 1643.6019,36 1640.4062,36 z M 1633.4688,63 C 1629.4431,63 1625.5107,70.295129 1624.4375,79.78125 1623.787,85.530743 1623.9361,86.242171 1626.4688,89.5625 1629.0593,92.95882 1629.2965,95.702707 1626.7812,93.1875 1626.1304,92.536667 1624.915,92.01387 1624.0625,92.03125 1622.5674,92.061732 1617,96.318481 1617,97.4375 1617,98.360286 1618.073,98.078416 1621.0625,96.3125 1623.7866,94.703345 1624.0356,94.696917 1626.0625,96.53125 1627.9777,98.264489 1628.3014,98.321407 1629.3438,96.90625 1629.9815,96.040277 1631.1248,95.122601 1631.875,94.875 1632.8965,94.537811 1632.5965,93.68733 1630.75,91.46875 1626.2902,86.110216 1625.8652,84.564471 1626.9375,77.90625 1628.7595,66.592747 1632.5889,64.153118 1637.9375,70.90625 1644.0358,78.606072 1644.8436,85.21193 1640.3125,90.21875 1638.7899,91.901175 1639.1183,95 1640.8125,95 1642.3981,95 1646.3245,85.082656 1646.1875,81.4375 1645.9293,74.569373 1637.9521,63 1633.4688,63 z"/>
</svg>
