<svg xmlns="http://www.w3.org/2000/svg"
     width="55.8" height="64.0"
     viewBox="3782.9788 15.3529 76.5196 87.7810">
  <path d="M 3835.8201,26.235314 C 3836.2303,23.360002 3833.4029,22.168574 3831.2584,24.313067 3829.9306,25.640871 3829.8874,26.159439 3830.9939,27.4927 3832.7935,29.661027 3835.4294,28.974276 3835.8201,26.235314 z M 3830,90.559017 C 3830,89.216476 3829.5468,87.837954 3828.9929,87.495635 3827.7272,86.713382 3826.5931,89.497283 3827.3616,91.5 3828.2696,93.86603 3830,93.248863 3830,90.559017 z M 3804.1252,91.25 C 3804.9885,90.2875 3806.5015,89.032206 3807.4873,88.460458 3809.0259,87.568191 3809.0961,87.126817 3807.9834,85.345008 3806.2284,82.534818 3803.3879,83.448496 3802.0629,87.249406 3800.1138,92.840693 3801.0571,94.670599 3804.1252,91.25 z M 3806.5,26 C 3806.5,25.107011 3805.3871,24.371952 3803.75,24.183578 3801.0907,23.877588 3799.9674,25.634099 3801.7088,27.375516 3802.9304,28.597082 3806.5,27.572272 3806.5,26 z M 3826.2297,95.340809 C 3824.3672,92.783987 3824.2015,92.745491 3821.9238,94.340809 3818.803,96.526735 3818.6337,96.495257 3814.6368,92.985969 3811.7955,90.491233 3810.7858,90.130935 3808.7768,90.894773 3807.4418,91.402332 3805.5855,92.983646 3804.6517,94.408804 3802.5269,97.651626 3801.2684,97.683124 3799.8315,94.52944 3798.437,91.468879 3800.8472,84.362998 3804.2973,81.363162 3806.8177,79.171706 3809.6346,67.664494 3808.6302,63.662765 3807.8298,60.47381 3804.1819,56 3802.382,56 3799.1992,56 3796.1964,60.583289 3795.4269,66.615825 3794.7733,71.739583 3794.5772,72.137155 3793.9092,69.69227 3792.817,65.694721 3795.45,57.577805 3798.6573,55.054941 3802.5225,52.014562 3804.6293,52.505954 3808.0684,57.25 3811.3979,61.842733 3811.3112,60.545534 3809.4551,78 L 3808.8703,83.5 3813.8197,88.348697 3818.7691,93.197394 3821.4357,91.450197 C 3826.894,87.873789 3828.8754,79.007145 3825,75.5 3820.7884,71.688529 3823.2182,62.745938 3830.1725,56.463085 3835.0904,52.020066 3837.8549,52.168158 3840.1953,57 3841.1276,58.925 3842.8414,62.476747 3844.0036,64.892771 3845.2506,67.484961 3846.1325,71.321048 3846.1552,74.251444 3846.1894,78.669581 3845.7777,79.64331 3842.4228,83.079043 3839.0627,86.520111 3838.7732,87.206829 3839.765,89.383635 3841.2737,92.694706 3844.9412,93.800865 3846.6523,91.460864 3847.3698,90.479533 3847.6986,88.647452 3847.3829,87.389573 3847.0672,86.131695 3847.7426,82.404689 3848.8837,79.107338 3851.5761,71.327226 3852.5062,65.331073 3851.2648,63.755419 3850.7208,63.064938 3849.9782,61.254824 3849.6146,59.732941 3849.2509,58.211059 3847.375,54.498559 3845.4459,51.482941 3841.508,45.327028 3840.087,44.894623 3834,48 3825.2106,52.484019 3823.2737,50.302268 3824.3628,37.144228 3824.9063,30.57672 3824.7161,29.042225 3823.0124,26.25 3820.6243,22.33613 3819.4291,22.214741 3815.9643,25.534199 L 3813.3192,28.068397 3815.3196,33.784199 C 3817.643,40.423034 3817.176,45.026175 3813.7459,49.295108 L 3811.5,52.090216 3807.3649,49.043085 C 3805.0906,47.367163 3801.89,45.727991 3800.2524,45.400481 3797.7643,44.902866 3796.9497,45.272961 3795.2956,47.652504 3791.2482,53.474764 3789.7594,57.688733 3789.2549,64.75 3788.6207,73.62796 3786.9788,74.374606 3787.0559,65.75 3787.1189,58.703885 3789.0066,53.281923 3793.7296,46.581342 3797.5889,41.106117 3800.681,40.615668 3806.4895,44.557457 3810.7845,47.472101 3812.5964,47.191819 3814.0422,43.389127 3814.8068,41.378017 3814.6169,39.354238 3813.2659,35.113501 L 3811.4774,29.5 3807.5654,29.814906 C 3801.575,30.297112 3799,29.34142 3799,26.635936 3799,24.09968 3801.8162,20.986838 3804.0787,21.022236 3804.8604,21.034466 3806.625,21.924459 3808,23 3811.336,25.609444 3813.1875,25.493721 3816,22.5 3818.9566,19.352886 3819.7361,19.372959 3823.1933,22.685232 L 3825.9961,25.370464 3830.0019,23.119072 C 3834.4317,20.629377 3837.5381,20.96944 3838.5162,24.051152 3839.9616,28.60519 3835.8478,33.059282 3832.0657,31.035184 3831.0019,30.465833 3829.6959,30 3829.1636,30 3827.5977,30 3826,35.883269 3826,41.649223 3826,46.389156 3826.2357,47 3828.0646,47 3829.2002,47 3832.3092,46.062224 3834.9735,44.916053 3840.9876,42.328851 3842.5892,43.019979 3847.3575,50.260199 3854.5862,61.236135 3855.4984,66.379927 3852.0782,76.880272 3850.9352,80.389421 3850,85.022376 3850,87.175726 3850,96.553772 3839.4318,98.795449 3837.4637,89.834862 3836.9248,87.381264 3837.4318,85.926604 3840.1403,82.155053 3842.7595,78.507923 3843.4473,76.612033 3843.3224,73.384043 3843.165,69.318443 3838.1413,57.823401 3835.9225,56.452131 3833.2274,54.786429 3825.0551,64.649931 3825.0165,69.615141 3825.0074,70.778469 3825.9,72.874447 3827,74.272871 3828.1,75.671294 3828.9988,77.86948 3828.9972,79.157729 3828.9957,80.445978 3829.9453,83.3 3831.1075,85.5 3832.9689,89.023449 3833.0838,90.006335 3832.0718,93.75 3830.7454,98.656643 3828.9928,99.133886 3826.2297,95.340809 z"/>
</svg>
