<svg xmlns="http://www.w3.org/2000/svg"
     width="44.1" height="64.0"
     viewBox="1955.2056 16.6196 58.9511 85.6340">
  <path d="M1982.0 96.434259C1982.0 96.123101 1982.4658 94.998101 1983.0352 93.934259C1984.2905 91.588657 1987.9892 91.425944 1992.0711 93.536755C1994.7635 94.929075 1995.3683 94.919069 1998.5057 93.430293C2002.3186 91.620914 2005.654 86.979781 2006.6229 82.135299C2007.1199 79.650588 2006.9128 79.0 2005.625 79.0C2004.7313 79.0 2004.0 79.584924 2004.0 80.299832C2004.0 82.601147 1998.7384 89.79817 1996.2156 90.947638C1994.1345 91.895834 1993.2654 91.67708 1990.385 89.480073C1986.9851 86.886847 1986.2887 85.557644 1987.8307 84.604661C1988.2875 84.322305 1989.216 81.612583 1989.894 78.583056C1990.9973 73.652882 1990.922 72.612193 1989.1767 68.666462C1988.1041 66.241863 1986.7256 63.948469 1986.1133 63.570033C1984.6235 62.649262 1984.7265 58.092972 1986.307 55.0C1987.3369 52.984606 1988.3341 52.5 1991.4514 52.5C1996.5408 52.5 1996.9469 50.748359 1992.4955 47.997212C1990.5168 46.774313 1988.2121 44.727115 1987.3739 43.447883C1985.9691 41.303915 1986.0262 40.883514 1988.1044 38.072644C1989.3444 36.395494 1992.0412 33.857441 1994.0974 32.432525C1998.0596 29.686698 1999.8222 29.921245 2004.25 33.783487C2005.8591 35.187099 2006.0 35.1015 2006.0 32.720087C2006.0 29.097909 2004.3133 25.057453 2002.5128 24.366527C1999.9762 23.393143 1996.7838 24.755579 1990.5197 29.484922C1987.2305 31.968215 1983.9122 34.0 1983.1457 34.0C1982.3793 34.0 1979.9697 31.975 1977.7911 29.5C1972.2435 23.197646 1968.3443 23.444699 1964.8363 30.320799C1962.8537 34.207111 1962.8354 34.538887 1964.4396 37.517685C1966.6558 41.633022 1970.8511 44.0 1975.929 44.0C1979.2946 44.0 1980.1984 44.412211 1980.8623 46.25C1982.0833 49.629995 1982.2241 57.743457 1981.0741 58.454211C1980.519 58.797287 1978.1657 58.160439 1975.8446 57.038993C1973.5234 55.917547 1971.0946 55.0 1970.447 55.0C1967.6296 55.0 1963.9495 59.366063 1962.4662 64.468163C1961.1271 69.074574 1961.1036 70.263314 1962.2943 73.152554L1963.6739 76.5L1964.3835 72.0C1965.25 66.504201 1966.792 64.317087 1970.7801 62.926797C1977.278 60.661616 1983.0371 66.94186 1982.9682 76.217881C1982.9317 81.132171 1981.7602 83.041521 1977.3985 85.295212C1974.0855 87.007037 1971.0 90.946657 1971.0 93.464817C1971.0 94.309168 1970.4938 95.0 1969.875 95.0C1967.797 95.0 1969.9006 88.580227 1972.7489 86.229675C1980.3118 79.988363 1981.0 79.165538 1980.9984 76.365173C1980.9963 72.383561 1977.9753 66.761723 1975.0694 65.331641C1973.1246 64.374552 1972.0842 64.422239 1969.8642 65.570219C1967.173 66.961897 1966.6086 68.388771 1965.7697 75.921672C1965.3146 80.008203 1963.0985 79.476847 1961.0223 74.783406C1959.265 70.81065 1959.2056 69.906902 1960.4032 65.366787C1961.8992 59.695868 1964.4248 55.378226 1967.0759 53.959393C1969.418 52.705921 1973.7147 52.729422 1974.5 54.0C1974.8399 54.55 1975.9915 55.0 1977.059 55.0C1978.6479 55.0 1979.0 54.293877 1979.0 51.106989C1979.0 46.978249 1977.9213 46.0 1973.3686 46.0C1969.9499 46.0 1965.613 43.584485 1963.6485 40.586295C1960.4323 35.67777 1962.2415 27.045545 1967.2168 23.560704C1971.1365 20.815204 1973.8789 21.630561 1979.0853 27.089483L1983.9395 32.178966L1991.1633 27.089483C1999.6728 21.094224 2002.8809 20.619571 2005.9319 24.90437C2008.3554 28.307857 2008.7653 36.571101 2006.6539 39.458633C2005.4033 41.168909 2005.1727 41.022829 2003.4039 37.399762C2000.9757 32.426099 1998.5616 32.086146 1993.2084 35.964026C1987.6313 40.004058 1987.7808 42.07825 1993.9214 45.856643C1997.8047 48.246011 1998.7312 49.311989 1998.3134 50.909658C1997.5709 53.748735 1996.0334 54.78522 1991.996 55.168295C1987.435 55.601046 1987.0276 58.147459 1990.4413 64.884118C1993.4059 70.734603 1993.7598 76.937268 1991.445 82.47741C1989.9975 85.941765 1990.0148 86.293694 1991.695 87.567731C1992.6877 88.320495 1994.045 88.950705 1994.711 88.968197C1996.3813 89.012058 1999.7982 85.22905 2002.0728 80.817849C2004.4924 76.125301 2005.6982 75.416935 2007.89 77.400494C2010.1567 79.451814 2009.5448 84.166042 2006.3553 89.224703C2002.2223 95.779787 1996.2193 98.253618 1990.8933 95.596637C1986.897 93.603017 1985.0998 93.576427 1984.3616 95.5C1983.816 96.921911 1982.0 97.640316 1982.0 96.434259Z M1975.0304 96.44113C1975.0137 95.308751 1975.6983 93.508751 1976.5518 92.44113C1978.0428 90.57599 1978.0772 90.597869 1977.4308 93.0C1977.0608 94.375 1976.3762 96.175 1975.9094 97.0C1975.2317 98.197967 1975.0547 98.085436 1975.0304 96.44113Z"/>
</svg>
