<svg xmlns="http://www.w3.org/2000/svg"
     width="35.6" height="64.0"
     viewBox="5849.7812 15.9780 49.2188 88.6068">
  <path d="M 5862.5625 79.65625 L 5862 80 L 5859.7188 82.5 C 5860.5742 82.745421 5861.5265 83.377694 5862.625 84.78125 C 5867.3975 90.879424 5874.8192 89.436025 5876.9688 82 C 5878.4167 76.991069 5878.2553 71.934357 5876.2812 62.34375 C 5874.5852 54.10404 5874.579 53.736793 5876.7188 43.28125 C 5878.9434 32.411592 5880.504 29.207222 5885.3438 25.59375 C 5887.4461 24.02409 5888.4586 23.796929 5889.7812 24.625 C 5892.5249 26.34255 5892.3297 31.009805 5889.0625 40.84375 C 5885.279 52.2318 5885.276 55.093469 5889.0312 61.90625 C 5892.691 68.54578 5892.698 69.224655 5889.3125 67.9375 C 5885.2522 66.393755 5883.9114 68.523929 5882.9688 77.875 C 5882.0494 86.994682 5880.3603 90.523025 5875.4375 93.75 C 5870.3766 97.067512 5869.1218 96.780906 5860.2188 90.0625 C 5858.3925 88.684383 5857.3198 86.950069 5857.0625 85.4375 L 5853.7812 89.0625 C 5854.2492 89.116868 5857.453 91.326292 5861 94.03125 C 5869.3997 100.43694 5872.3109 100.58479 5878.4375 94.9375 C 5883.0244 90.709365 5885.9744 84.31467 5886 78.5625 C 5886.0246 73.024895 5887.0779 70.790638 5889.3125 71.375 C 5892.0374 72.087576 5895 70.353279 5895 68.0625 C 5895 67.037701 5893.65 63.6367 5892 60.5 C 5888.3498 53.560909 5888.2687 50.304932 5891.5 40.40625 C 5894.4029 31.513443 5894.6332 26.915213 5892.375 23.46875 C 5890.0878 19.978036 5887.6067 20.388988 5882.4688 25.125 C 5877.5606 29.649209 5876.0546 33.45104 5874 46.1875 C 5873.0714 51.944276 5873.0575 55.204536 5873.9688 60.5625 C 5876.7786 77.083293 5876.1595 83.067241 5871.4375 85.21875 C 5868.0689 86.753567 5863.6976 83.493599 5862.5625 79.65625 z "/>
</svg>
