<svg xmlns="http://www.w3.org/2000/svg"
     width="47.3" height="64.0"
     viewBox="4441.2863 15.8234 22.8989 30.9578">
  <path d="M 4456.4062 42.78125 C 4456.4696 42.263115 4456.7965 41.801996 4457.4375 41.09375 C 4458.3709 40.062346 4459.3816 36.77558 4459.6875 33.8125 C 4460.1852 28.989659 4459.9543 28.098483 4457.5312 25.21875 C 4452.9913 19.82341 4447.7569 21.69232 4446.0312 29.34375 C 4445.2863 32.646581 4445.9177 38.567116 4447.4062 42.09375 L 4456.4062 42.78125 z M 4452.125 24.125 C 4453.3696 24.288303 4454.7547 25.232413 4455.9688 26.9375 C 4457.6363 29.279158 4457.902 30.704125 4457.375 34 C 4457.0116 36.272408 4456.0693 38.774411 4455.2812 39.5625 C 4453.6417 41.202136 4451.3855 41.444708 4450.5312 40.0625 C 4449.0099 37.600829 4447.9634 27.968037 4449 26.03125 C 4449.773 24.58689 4450.8804 23.961697 4452.125 24.125 z "/>
</svg>
