<svg xmlns="http://www.w3.org/2000/svg"
     width="50.6" height="64.0"
     viewBox="4861.5041 13.4620 72.8461 92.1740">
  <path d="M 4929.4375 83.15625 C 4929.0101 82.161579 4929.1269 80.693538 4929.4688 77.46875 C 4930.3502 69.154673 4927.8846 57.415883 4924.5312 54.0625 L 4922.0312 51.5625 L 4917.25 53.4375 C 4914.6329 54.468989 4911.15 55.354883 4909.5 55.40625 C 4906.567 55.497561 4906.4855 55.391775 4906.1875 50.1875 C 4905.6425 40.669424 4909.6672 34 4915.9688 34 C 4918.2179 34 4922 38.953562 4922 41.90625 C 4922 45.116152 4924.6709 44.387169 4925.9062 40.84375 C 4926.51 39.111677 4927 34.868508 4927 31.40625 C 4927 26.296794 4926.5679 24.618412 4924.7188 22.46875 C 4921.2465 18.432119 4916.4057 18.706974 4909.7188 23.3125 C 4906.7665 25.345808 4903.6739 27 4902.8438 27 C 4902.0136 27 4900.2399 25.310882 4898.9062 23.25 C 4896.9989 20.302504 4895.5846 19.303771 4892.2188 18.59375 C 4886.8537 17.461986 4883.7052 18.97118 4881.4375 23.75 C 4878.1787 30.617461 4881.9878 38.488696 4889.0938 39.625 C 4892.2256 40.125781 4892.8968 40.702835 4893.4062 43.25 C 4894.3509 47.973338 4894.1016 54.831134 4892.9688 55.53125 C 4892.4029 55.88095 4889.1687 54.079741 4885.7812 51.5625 C 4878.8867 46.439061 4876.2512 45.962222 4873.3438 49.25 C 4867.6886 55.644976 4865.571 63.074143 4865.5312 76.5 C 4865.5041 85.672885 4865.7199 86.89288 4868.2812 91.25 C 4872.6328 98.653078 4874.0178 97.681762 4873.3125 87.6875 C 4872.5175 76.422 4873.6655 66.605432 4876.0938 63.75 L 4878 61.5 L 4880.5312 64.5 C 4881.9132 66.15 4884.8904 71.099486 4887.1562 75.5 L 4891.2812 83.5 L 4888.125 88.4375 C 4884.9846 93.389451 4884.4591 95.449432 4885.5938 98.40625 C 4886.5199 100.81983 4890.5392 100.31681 4892.3438 97.5625 C 4895.3395 92.990507 4899.7503 93.39259 4904.6875 98.65625 C 4907.4754 101.6286 4908.8147 101.63595 4909.5625 98.65625 C 4910.2992 95.721174 4907.7194 89.366636 4904.375 85.875 C 4901.9092 83.300566 4901.8746 83.136103 4903.3438 78.875 C 4905.4353 72.80842 4907.6651 68.627868 4909.8438 66.65625 C 4911.5845 65.080903 4911.8629 65.086434 4914.375 67.0625 C 4919.2157 70.870152 4920.4025 74.516027 4920.6562 86.34375 C 4920.7845 92.31553 4921.1789 97.491396 4921.5312 97.84375 C 4921.8835 98.196105 4922.7815 97.65025 4923.5312 96.625 C 4924.2664 95.619616 4924.7467 95.344419 4925.5 95.5 L 4926.7812 91.53125 C 4926.5409 90.801058 4926.4341 90.036833 4926.6562 89.1875 C 4927.0123 87.825849 4927.4014 87.236188 4928.1562 87.1875 L 4929.4375 83.15625 z M 4888.5938 21 C 4893.6476 21 4895.9345 22.571351 4898.1562 27.59375 C 4900.0876 31.959995 4901.3185 32.911794 4902.5 31 C 4903.6406 29.154591 4916.6128 22 4918.8125 22 C 4922.9121 22 4925 25.379001 4925 32 C 4925 35.3 4924.748 38 4924.4375 38 C 4924.127 38 4922.7322 36.65 4921.3438 35 C 4919.3748 32.660083 4918.0118 32.013907 4915.1562 32.03125 C 4910.3674 32.060335 4907.4636 34.46211 4905.5625 40 C 4903.789 45.165832 4903.5105 54.22114 4905.0312 57.0625 C 4906.4124 59.643292 4908.6429 59.502646 4915.4062 56.40625 C 4918.5197 54.980853 4921.7258 54.04665 4922.5 54.34375 C 4927.0673 56.096377 4929.499 74.178629 4926.5312 84.3125 C 4925.5933 87.515783 4924.6349 89.947369 4924.4062 89.71875 C 4924.1777 89.490131 4923.5252 85.687402 4922.9688 81.25 C 4921.851 72.335681 4918.5094 65.040853 4914.25 62.25 C 4911.7652 60.621895 4911.6544 60.65843 4908.4688 64.34375 C 4905.4782 67.803359 4901.9643 75.619102 4900.4375 82.21875 C 4899.9506 84.323787 4900.3872 85.439025 4902.375 87.28125 C 4904.7961 89.525031 4907 93.819717 4907 96.25 C 4907 96.860068 4905.9875 96.439643 4904.75 95.3125 C 4901.8641 92.683918 4898.6167 91 4896.375 91 C 4895.4026 91 4893.1262 92.429608 4891.3125 94.1875 C 4888.3872 97.022827 4888 97.171136 4888 95.375 C 4888 94.261403 4889.3866 91.233542 4891.0938 88.65625 L 4894.2188 83.96875 L 4889.9688 75.75 C 4885.9845 68.024438 4879.4172 58 4878.3438 58 C 4873.6933 58 4870.8612 66.739878 4870.9062 81 C 4870.9356 90.329866 4870.8071 91.299955 4869.5312 89.625 C 4865.7689 84.686262 4866.7829 62.731104 4871.1562 54.78125 C 4874.4488 48.795884 4876.9855 48.740249 4884.5312 54.4375 C 4891.1138 59.407541 4893.4086 59.977826 4894.9688 57.0625 C 4896.121 54.909595 4896.3081 46.523859 4895.3438 40.6875 C 4894.8345 37.605686 4894.3352 36.929628 4892.625 37.0625 C 4886.2516 37.557685 4883 34.757264 4883 28.75 C 4883 22.98393 4884.4243 21 4888.5938 21 z "/>
</svg>
