<svg xmlns="http://www.w3.org/2000/svg"
     width="21.4" height="64.0"
     viewBox="6766.5288 14.7291 30.1274 90.1101">
  <path d="M 6792.6562 82.28125 C 6792.1445 81.288077 6792 79.755161 6792 76.5 C 6792 72.912819 6791.1404 67.842994 6789.9688 64.4375 C 6787.5546 57.420709 6787.4099 54.129759 6789.125 47.5 C 6791.1698 39.596137 6790.7011 33.24502 6787.6562 27.28125 C 6786.187 24.403644 6783.8456 21.26634 6782.4375 20.34375 C 6779.9733 18.729136 6779.7873 18.775208 6777.4062 21.15625 C 6771.8115 26.751003 6770.5288 40.886396 6774.625 51.9375 C 6776.7348 57.629222 6777.043 59.539882 6776.2188 61.75 C 6770.6719 76.625877 6772.9998 94.671193 6781 98.71875 C 6785.1913 100.83923 6785.9512 100.42858 6789.5625 94.21875 C 6789.569 94.207504 6789.9654 94.433525 6790 94.4375 L 6791.0938 89.25 C 6791.1034 89.09701 6791.1528 88.937467 6791.1875 88.78125 L 6792.5 82.5 L 6792.6562 82.28125 z M 6778.875 23.21875 C 6780.7264 22.508293 6784.3574 27.038366 6786.5625 32.8125 C 6788.1456 36.957799 6788.147 37.816165 6786.625 45.5625 C 6784.5968 55.885062 6784.6116 57.669142 6786.625 63.125 C 6787.5131 65.53165 6788.5789 69.236642 6789 71.34375 C 6789.9177 75.934546 6788.5727 89.046587 6786.7812 93.09375 C 6785.1509 96.777038 6783.5006 96.749632 6779.9688 92.96875 C 6774.7332 87.364042 6774.0412 75.931648 6778.1562 63.625 L 6780.0938 57.75 L 6777.6562 51.625 C 6774.0331 42.527433 6773.4662 36.317069 6775.625 29.46875 C 6776.6149 26.328349 6778.0825 23.522857 6778.875 23.21875 z "/>
</svg>
