<svg xmlns="http://www.w3.org/2000/svg"
     width="47.2" height="64.0"
     viewBox="5526.6211 10.0000 67.7777 91.9044">
  <path d="M5548.75 90.421806C5546.1375 87.358958 5544.0 83.976013 5544.0 82.904152C5544.0 81.832291 5545.7668 79.03859 5547.9262 76.695927C5553.682 70.451573 5553.8873 68.371933 5549.3064 62.711259C5547.2129 60.124304 5544.9309 58.005972 5544.2353 58.003853C5541.7811 57.996376 5538.4004 65.121006 5536.5264 74.25C5535.8964 77.319187 5532.6338 78.093956 5531.607 75.418213C5530.6211 72.849054 5530.9235 62.815747 5532.1163 58.519256C5533.619 53.106445 5538.5694 46.146178 5541.4265 45.429092C5543.7558 44.844486 5551.2113 47.914795 5552.4912 49.98571C5552.8359 50.54357 5553.8333 51.0 5554.7075 51.0C5556.0789 51.0 5556.217 49.867694 5555.714 42.75C5555.0123 32.819897 5554.3218 30.660565 5552.121 31.51256C5545.9675 33.894662 5541.0 31.608876 5541.0 26.395303C5541.0 20.277487 5546.5975 17.687745 5550.5 22.0C5551.4955 23.1 5552.9152 24.0 5553.655 24.0C5555.4596 24.0 5555.3646 21.547494 5553.5 20.0C5552.675 19.315311 5552.0 18.360211 5552.0 17.877555C5552.0 16.171009 5554.9073 17.029584 5556.4144 19.181182C5557.9018 21.304777 5557.9957 21.313886 5559.9711 19.526194C5561.087 18.516301 5562.0 16.859769 5562.0 15.845012C5562.0 14.830256 5562.45 14.0 5563.0 14.0C5563.55 14.0 5564.0 15.098442 5564.0 16.440983C5564.0 19.67945 5565.794 20.652251 5567.5209 18.350138C5568.7646 16.692033 5568.8479 16.889227 5568.3235 20.25C5568.0016 22.3125 5568.0083 24.0 5568.3384 24.0C5568.6684 24.0 5570.7797 23.040267 5573.0302 21.86726C5578.5353 18.997834 5582.0 20.332883 5582.0 25.323574C5582.0 29.786561 5579.4201 32.0 5574.2183 32.0C5570.3043 32.0 5570.0409 32.191179 5569.0526 35.75C5568.4798 37.8125 5568.0086 41.876623 5568.0056 44.781385C5567.9989 51.083249 5569.4758 52.135787 5574.5161 49.421377C5578.8598 47.082137 5582.5505 48.209213 5585.661 52.82488C5588.7303 57.379452 5590.3988 65.812398 5588.9776 69.587276C5587.8499 72.582477 5581.2665 80.0 5579.7358 80.0C5579.2637 80.0 5579.1794 77.986581 5579.5484 75.525735C5580.309 70.453973 5577.5399 61.0 5575.2938 61.0C5574.5727 61.0 5572.6366 62.199384 5570.9913 63.665298C5566.7949 67.404322 5567.063 70.589305 5571.9752 75.354536C5577.5685 80.780467 5578.1871 84.854608 5574.2444 90.297435C5568.7339 97.904422 5565.3289 97.61297 5566.4955 89.634168C5566.9555 86.487947 5566.5802 85.138386 5564.4794 82.384168C5561.3837 78.32541 5560.5607 78.2147 5558.3674 81.562011C5556.8279 83.911564 5556.8189 84.397084 5558.259 87.416835C5559.5252 90.07223 5559.5989 91.173303 5558.6396 93.104824C5556.5953 97.220772 5553.9333 96.498575 5548.75 90.421806Z M5556.6413 91.49228C5556.9595 90.663033 5556.4954 88.878866 5555.61 87.527463C5554.7245 86.17606 5554.0 84.479822 5554.0 83.758045C5554.0 81.909018 5559.5906 76.0 5561.34 76.0C5562.1391 76.0 5564.1894 77.590658 5565.8964 79.534796C5568.414 82.402145 5569.0 83.945636 5569.0 87.70911L5569.0 92.348628L5571.5 90.0C5575.2094 86.515178 5574.8543 82.186425 5570.4903 77.692973C5565.5179 72.57308 5564.5981 69.649163 5566.6197 65.388953C5568.6301 61.152436 5572.4826 58.0 5575.6496 58.0C5578.515 58.0 5581.732 62.716943 5582.6401 68.25C5583.2953 72.241969 5583.8834 72.716565 5585.8 70.8C5589.1185 67.481479 5585.8118 54.501449 5580.9102 51.60602C5578.0662 49.926022 5577.8366 49.937876 5574.6113 51.931235C5570.4362 54.511585 5568.3639 54.548377 5567.0352 52.065741C5565.7838 49.727549 5565.7538 40.182632 5566.9784 34.0C5567.7611 30.048525 5567.5712 29.042896 5565.4207 25.75C5564.0737 23.6875 5562.6405 22.014221 5562.2358 22.031601C5561.8311 22.048982 5560.2356 23.175565 5558.6901 24.53512L5555.8803 27.007038L5557.4401 35.331449C5559.3025 45.270335 5559.3906 49.048516 5557.8395 52.452947C5556.4002 55.611907 5554.7633 55.659227 5550.6833 52.659823C5548.9325 51.372725 5546.026 49.738374 5544.2245 49.027931C5540.0869 47.396261 5538.1882 48.879601 5534.889 56.321303C5532.7839 61.069438 5531.4809 72.999796 5533.0674 72.999946C5533.3794 72.999976 5534.4113 70.536504 5535.3604 67.525565C5537.1558 61.829895 5542.5706 55.0 5545.2908 55.0C5547.4833 55.0 5556.0 65.264874 5556.0 67.907473C5556.0 70.944907 5553.7457 74.960766 5550.0893 78.437091C5546.3945 81.949825 5546.1892 84.217047 5549.3412 86.696419C5550.6288 87.709287 5552.2197 89.541948 5552.8764 90.768999C5554.2592 93.352875 5555.8128 93.651336 5556.6413 91.49228Z M5550.0951 28.385463C5551.2494 26.994603 5551.0485 26.438465 5548.6451 24.371175C5545.527 21.689087 5544.0 22.013825 5544.0 25.359017C5544.0 29.560653 5547.6256 31.360931 5550.0951 28.385463Z M5577.8 28.8C5579.4839 27.116127 5579.2942 24.050142 5577.4628 23.347334C5575.757 22.692791 5572.0 25.598094 5572.0 27.571654C5572.0 29.83984 5575.9282 30.671775 5577.8 28.8Z"/>
</svg>
