<svg xmlns="http://www.w3.org/2000/svg"
     width="42.1" height="64.0"
     viewBox="6656.5679 15.6973 56.5685 86.0759">
  <path d="M6681.0932 93.424951C6677.7502 90.612021 6675.6281 84.875435 6674.4539 75.477031C6673.9046 71.080947 6673.3018 69.630182 6671.8688 69.255438C6669.6714 68.680804 6669.3526 67.0 6671.441 67.0C6673.3927 67.0 6673.6414 66.397774 6674.4519 59.711687L6675.1535 53.923373L6672.5767 54.570095C6668.7695 55.525646 6669.3496 53.277806 6673.4099 51.341594C6678.9971 48.677235 6680.6438 38.68387 6676.5301 32.405633L6675.0893 30.206718L6671.0904 32.185251C6666.4704 34.471038 6663.3767 33.920955 6661.8362 30.539758C6660.5679 27.756304 6661.9363 24.743091 6665.5411 22.381123C6667.6187 21.01979 6668.4881 20.959547 6671.0059 22.002444C6672.6527 22.684552 6674.0 23.638047 6674.0 24.12132C6674.0 25.592918 6677.6712 25.101088 6679.0453 23.445404C6681.7143 20.229408 6684.0434 19.697276 6686.3443 21.777753C6690.4832 25.520002 6692.2215 25.976664 6694.9689 24.043437C6699.2005 21.065852 6701.9261 20.623125 6704.0717 22.564855C6709.1364 27.148354 6703.8572 34.416985 6697.2797 31.916251C6693.1733 30.35498 6692.0 32.742741 6692.0 42.661192C6692.0 50.700452 6692.0868 51.004336 6695.0 53.158121C6698.4815 55.732129 6698.9271 57.475699 6695.9011 56.684385C6694.129 56.220985 6693.8992 56.475356 6694.4252 58.317753C6694.7678 59.517989 6695.3252 61.770494 6695.6637 63.323321C6696.0023 64.876147 6697.5665 67.098274 6699.1397 68.261379C6702.436 70.698458 6703.2074 73.71657 6700.1104 72.059075C6697.8719 70.861085 6697.0356 72.928534 6697.0137 79.714816C6697.0032 82.93423 6697.4789 84.185958 6699.028 85.01499C6701.4776 86.32596 6700.7716 88.014551 6698.0694 87.307906C6696.597 86.922863 6695.6612 87.743756 6694.113 90.778451C6691.0402 96.801662 6686.2607 97.773168 6681.0932 93.424951Z M6671.6813 28.348068C6674.2118 25.043915 6669.8718 21.814077 6666.0819 24.180952C6663.3993 25.85624 6662.6818 27.911701 6664.1585 29.691034C6665.5858 31.410727 6669.9296 30.635256 6671.6813 28.348068Z M6690.8507 91.929855C6695.9642 86.441145 6696.7783 72.03559 6692.6636 59.848447C6689.9878 51.923097 6689.147 41.935661 6690.4033 33.0C6691.023 28.592439 6690.9511 28.441983 6686.9003 25.675692L6682.7646 22.851383L6679.9434 25.554199C6677.2853 28.100808 6677.2113 28.392903 6678.6629 30.608271C6681.693 35.232779 6682.1628 40.480543 6680.0603 46.21815C6673.8292 63.22246 6675.3151 84.880165 6683.166 91.486266C6686.7961 94.540769 6688.3355 94.629628 6690.8507 91.929855Z M6702.8201 27.245529C6703.2089 24.508048 6700.9527 23.419765 6698.0781 24.95818C6694.3073 26.976257 6695.9185 30.123772 6700.5 29.689552C6701.7386 29.572158 6702.6219 28.641773 6702.8201 27.245529Z"/>
</svg>
