<svg xmlns="http://www.w3.org/2000/svg"
     width="52.4" height="64.0"
     viewBox="1451.0249 14.2664 72.7877 88.9527">
  <path d="M1484.0628 98.275326C1483.2724 97.963597 1481.5449 96.424123 1480.2239 94.854273C1477.1794 91.236014 1475.6713 91.263897 1472.3424 95.0C1470.8723 96.65 1468.7811 98.0 1467.6954 98.0C1465.9076 98.0 1465.7787 97.516039 1466.3291 92.868828C1466.7694 89.151387 1467.8723 86.536955 1470.3321 83.379684C1473.4393 79.391448 1473.742 78.391128 1473.8997 71.589218L1474.072 64.156724L1470.4226 61.373187C1466.8936 58.681439 1466.7275 58.652182 1465.3866 60.485955C1464.624 61.528922 1463.9543 63.083751 1463.8985 63.94113C1463.4687 70.545286 1462.945 73.455003 1462.0195 74.380533C1459.3671 77.032885 1455.2093 70.196427 1455.098 63.0C1455.0249 58.267898 1458.0234 51.999556 1461.9344 48.70863C1466.0125 45.277138 1467.1471 45.312259 1471.3472 49.0C1475.6494 52.777338 1476.5404 52.757053 1477.9022 48.850777C1479.263 44.947005 1479.2933 40.567545 1477.9908 36.0C1476.1662 29.600993 1475.7033 29.307942 1470.4788 31.244265C1465.8805 32.948531 1465.855 32.945944 1463.4373 30.528223C1461.3482 28.439106 1461.1572 27.716863 1462.0633 25.333637C1464.3523 19.313059 1468.0227 18.26637 1472.0 22.5C1474.9387 25.628127 1476.1001 25.628127 1479.8176 22.5C1482.9159 19.892983 1486.4132 19.241448 1487.5381 21.061683C1488.885 23.240947 1493.1879 24.139933 1494.8917 22.598025C1498.1882 19.614676 1502.0678 18.814404 1504.7414 20.566228C1506.7777 21.900426 1507.105 22.724783 1506.6005 25.247488C1505.6125 30.187545 1504.2207 31.160301 1498.5738 30.857535C1493.922 30.608125 1493.3913 30.811145 1492.1927 33.298463C1489.8616 38.136069 1490.7576 52.0 1493.4013 52.0C1494.0846 52.0 1496.4114 50.662519 1498.5719 49.02782C1500.7323 47.393121 1503.5555 46.043121 1504.8456 46.02782C1513.7937 45.921693 1519.8126 63.094975 1514.0789 72.372295C1510.7254 77.798416 1508.6543 76.908821 1507.8791 69.709284C1506.9156 60.761478 1502.4979 57.567304 1497.1974 61.986118C1495.0149 63.805613 1494.9508 64.214027 1495.9673 69.819434C1496.5571 73.071989 1496.7896 76.384642 1496.4841 77.180885C1496.1699 77.99958 1497.2629 80.024878 1498.9996 81.842195C1502.6236 85.634302 1504.0 88.861216 1504.0 93.5651C1504.0 97.61159 1501.9619 98.099012 1498.0 95.0C1494.5665 92.314246 1492.9588 92.507062 1489.662 96.0C1486.7282 99.108349 1486.4558 99.219044 1484.0628 98.275326Z M1461.9612 64.749629C1462.6115 61.586926 1463.8136 58.329228 1464.6326 57.510301C1465.9512 56.191691 1466.5877 56.25918 1470.1964 58.1002C1474.3214 60.204618 1475.9408 59.705709 1475.9847 56.31695C1476.0086 54.465759 1467.2954 47.796453 1465.344 48.172274C1464.3819 48.357548 1462.111 50.454563 1460.2974 52.832307C1457.8523 56.038061 1457.0 58.177574 1457.0 61.109858C1457.0 64.895328 1459.9246 73.574859 1460.501 71.5C1460.6538 70.95 1461.3109 67.912333 1461.9612 64.749629Z M1469.4349 29.024751C1470.8457 28.488364 1472.0 27.511297 1472.0 26.853492C1472.0 24.997174 1468.8836 22.0 1466.9534 22.0C1464.7785 22.0 1463.4591 26.643363 1465.0794 28.595653C1466.4661 30.266596 1466.2298 30.243315 1469.4349 29.024751Z M1473.9709 91.107553C1476.1116 89.418629 1476.3088 88.780252 1475.4468 86.329103C1473.5766 81.011399 1469.9707 83.896435 1468.3483 92.008456C1467.7584 94.958081 1467.8637 95.137403 1469.6021 94.142768C1470.646 93.54554 1472.6119 92.179693 1473.9709 91.107553Z M1489.6919 92.743167C1493.0709 87.743628 1494.0537 84.284344 1494.1347 77.105772C1494.202 71.134991 1493.4748 66.888474 1490.0232 53.097176C1488.5136 47.065412 1488.462 37.160118 1489.9173 32.750605C1491.3158 28.513131 1490.3675 25.942115 1486.4622 23.38329C1484.1155 21.845637 1483.8238 21.897025 1480.4974 24.434181C1478.5738 25.901362 1477.0 27.25474 1477.0 27.441687C1477.0 27.628635 1477.8901 29.743234 1478.978 32.140796C1481.4897 37.675909 1481.5255 45.348524 1479.0826 54.528244C1478.0539 58.393779 1476.8945 64.946758 1476.5062 69.09042C1475.8891 75.675463 1476.1172 77.53571 1478.3166 83.860317C1482.735 96.565183 1485.5978 98.800778 1489.6919 92.743167Z M1514.0 64.67489C1514.0 58.666442 1511.9631 53.146721 1508.7472 50.440772C1504.9821 47.272644 1504.1553 47.347667 1498.3592 51.383304C1494.6271 53.981853 1493.563 55.301235 1493.7716 57.071532C1494.1419 60.214478 1494.1997 60.232329 1498.3693 58.490165C1501.1504 57.328163 1502.5402 57.218743 1504.0763 58.04086C1506.8094 59.503558 1509.9917 64.901864 1509.9963 68.083333C1509.9983 69.504167 1510.3251 70.991815 1510.7226 71.389218C1512.0372 72.703878 1514.0 68.682821 1514.0 64.67489Z M1504.2042 26.712258C1504.4447 25.453999 1504.4597 23.878999 1504.2374 23.212258C1503.6396 21.418792 1499.8423 21.781339 1497.0939 23.894277C1493.5978 26.582081 1494.904 29.0 1499.852 29.0C1503.1369 29.0 1503.8372 28.631852 1504.2042 26.712258Z M1501.2102 90.463748C1500.7813 87.558218 1498.9027 84.176623 1497.3962 83.598535C1496.5158 83.260713 1495.8536 84.263322 1495.4159 86.596835C1494.8985 89.354798 1495.1573 90.407978 1496.6291 91.533855C1499.1546 93.465791 1501.57 92.901581 1501.2102 90.463748Z"/>
</svg>
