<svg xmlns="http://www.w3.org/2000/svg"
     width="64.0" height="62.6"
     viewBox="1522.2796 15.1054 85.7204 83.8966">
  <path d="M 1555.6562,19.46875 C 1554.6017,19.105371 1552.8257,19.571143 1550.3438,20.84375 1544.1615,24.013588 1541.5317,27.467347 1541.6562,32.21875 1541.7713,36.607683 1543.9155,39.137925 1549.25,41.15625 1551.8219,42.129327 1552,42.573918 1552,48.09375 1552,54.947635 1551.1455,55.384692 1545.375,51.46875 1538.057,46.502616 1535.487,47.180686 1530.2812,55.375 1526.2796,61.673734 1527.381,74.677785 1531.8438,73.78125 1532.5908,73.631147 1534.1658,70.612622 1535.3438,67.09375 1538.2772,58.330085 1540.6236,57.493323 1545.4688,63.40625 1547.4109,65.776342 1549,68.506624 1549,69.5 1549,70.493377 1547.2,73.711121 1545,76.625 1542.8,79.538879 1541,82.58538 1541,83.40625 1541,85.722473 1548.3002,94.99879 1550.125,95 1553.0439,95.001934 1554.1325,92.563456 1553.1562,88.21875 1552.4194,84.939113 1552.6022,83.65998 1554.1875,81.15625 1555.9278,78.407632 1556.371,78.205997 1558.5938,79.21875 1559.9532,79.838136 1561.7907,81.832301 1562.6562,83.65625 1563.5062,85.447372 1564.9308,87.347735 1566.5,89.125 L 1567.875,87.3125 C 1567.1373,86.421538 1566.4428,85.511608 1565.9062,84.53125 1560.7839,75.171769 1557.1928,73.831693 1552.75,79.6875 1549.7162,83.686109 1549.5235,84.647767 1551,88.53125 1551.5539,89.988209 1551.7371,91.620866 1551.4062,92.15625 1550.5561,93.531829 1544.1011,85.918864 1544.0625,83.5 1544.045,82.4 1545.5454,79.590509 1547.4062,77.25 1552.0774,71.374485 1552.5803,68.689746 1549.8438,64.1875 1547.1912,59.823552 1544.2448,57 1542.3125,57 1538.495,57 1534.985,60.123024 1533.875,64.53125 1533.0049,67.986707 1532.3088,69 1530.75,69 1528.9159,69 1528.7808,68.55214 1529.3125,64.0625 1529.9056,59.054981 1531.4736,55.348055 1534.75,51.21875 L 1536.5312,48.96875 1541.4062,52.21875 C 1551.437,58.942278 1550.7434,58.662783 1552.6562,56.75 1553.9784,55.427902 1554.3958,53.246407 1554.4375,47.28125 L 1554.5,39.5 1551.5,39.15625 C 1547.3155,38.695847 1543.9813,35.328828 1544,31.5625 1544.0084,29.870873 1544.3459,28.05 1544.75,27.5 1546.1399,25.608135 1549.5039,23.246965 1551.75,22.5625 1553.8775,21.914153 1554,22.145937 1554,26.9375 1554,31.58977 1554.1863,32 1556.3438,32 1558.5857,32 1566.0575,27.345947 1567.4688,25.0625 1568.5464,23.318735 1570.004,24.896392 1570,27.8125 1569.9952,31.219867 1566.8138,36.512623 1563.8125,38.09375 1560.3644,39.910295 1560.0506,40.820665 1560.1562,49.25 1560.258,57.352871 1560.8368,58.192185 1564.4375,55.46875 1567.0845,53.466712 1568.1353,53.601665 1572.4062,56.5 1577.8029,60.162242 1579.7445,59.803486 1581.9375,54.6875 1582.9568,52.309632 1584.3622,47.785561 1585.0625,44.65625 1586.2654,39.281359 1586.1987,38.861579 1584.1562,36.6875 1582.5233,34.949405 1582,33.134564 1582,29.28125 1582,24.879332 1582.3774,23.895145 1584.75,22.125 1587.3904,20.155044 1587.4193,20.061668 1585.2812,20.03125 1580.0405,19.956698 1577.7127,32.390357 1581.9062,38.0625 1583.7998,40.623777 1583.7767,40.785788 1581.9062,47.53125 1579.3989,56.573751 1578.9287,56.973934 1573.6562,54.09375 1570.8013,52.534137 1568.2949,51.887374 1566.25,52.1875 1563.4258,52.602009 1563.0894,52.350526 1562.5312,49.375 1561.6778,44.825932 1562.7707,41.433824 1565.4375,40.21875 1569.6457,38.301367 1573.2974,27.521905 1571.4062,22.59375 1570.4812,20.183313 1569.1077,20.637524 1564.375,25 1558.1768,30.713278 1555.2655,29.953536 1556.6562,23 1557.0544,21.009344 1556.7108,19.832129 1555.6562,19.46875 z M 1592.5,20.34375 C 1592.1875,20.312655 1591.1384,21.795548 1589.5938,24.84375 1587.7573,28.467723 1587.185,30.737897 1587.625,32.9375 1587.9615,34.620066 1588.6137,36 1589.0625,36 1590.6378,36 1591.0022,34.124014 1589.9062,31.71875 1589.0097,29.750939 1589.2153,28.468531 1590.9062,24.96875 1592.3823,21.913722 1592.8125,20.374845 1592.5,20.34375 z M 1570.5,83.75 1572,81.6875 C 1568.6621,78.728874 1565,73.301623 1565,70.09375 1565,67.000132 1567.5121,63 1569.4688,63 1570.2203,63 1572.1328,64.062357 1573.6875,65.34375 1580.2199,70.727828 1581.7217,69.678251 1589.5312,54.375 1593.8965,45.820961 1595.013,44.360591 1597.9375,43.40625 1601.9891,42.084095 1604,39.582619 1604,35.875 1604,33.508445 1603.5514,33.082607 1600.75,32.8125 L 1597.5,32.5 1597.6875,26.5 C 1597.8738,20.622252 1597.848,20.559499 1596.375,23.3125 1594.4571,26.896828 1594.3065,33.939456 1596.125,35.125 1596.8782,35.616053 1598.438,35.801709 1599.5938,35.53125 1602.5493,34.839709 1603.1511,35.85187 1601.375,38.5625 1600.442,39.986391 1598.6602,40.999346 1596.7812,41.1875 1595.0917,41.356677 1593.3356,42.175 1592.9062,43 1592.4769,43.825 1590.4469,48.057307 1588.375,52.40625 1584.837,59.832861 1580.65,66.002759 1579.1562,66 1578.7926,65.999328 1577.1918,64.874328 1575.5938,63.5 1567.3919,56.446388 1559.9218,65.233319 1564.7812,76.21875 1565.8375,78.606517 1568.1844,81.521694 1570.5,83.75 z"/>
</svg>
