<svg xmlns="http://www.w3.org/2000/svg"
     width="37.7" height="64.0"
     viewBox="949.5000 14.0131 57.6761 97.8996">
  <path d="M 953.5,75.25 953.5,80.8125 C 955.81027,76.951589 958.29737,72.738971 959.8125,70.59375 962.18506,67.234521 963.98917,63.561177 963.96875,62.09375 L 963.9375,59.5 961.65625,62.28125 C 960.29859,63.940012 957.04104,69.257051 953.5,75.25 z M 977.9375,18.125 C 976.84852,18.013108 975.74364,18.086395 974.59375,18.375 970.58939,19.380028 963.35306,27.452544 961.53125,32.9375 959.85309,37.989972 959.76739,46.263107 961.40625,45.78125 961.90692,45.634044 962.4499,43.7 962.625,41.5 963.28305,33.232087 964.13986,31.051051 968.625,26.0625 972.44968,21.808536 973.73452,21 976.65625,21 984.32959,21 990,32.666068 990,48.5 L 990,56.8125 993.6875,58.71875 C 997.15361,60.517499 1000.0624,65.281365 998.59375,66.75 998.25531,67.088444 996.15441,66.339718 993.9375,65.09375 990.19992,62.993111 989.73961,62.928031 987.53125,64.375 985.83198,65.488405 984.82774,67.544062 984,71.53125 983.36195,74.604715 983.085,77.819081 983.40625,78.65625 984.35969,81.140873 986.54014,79.575061 986.1875,76.65625 986.00971,75.184597 986.36704,72.417859 987,70.5 987.87074,67.86161 988.72849,67 990.46875,67 991.73375,67 993.32164,67.707472 994.03125,68.5625 996.43303,71.456467 998.74319,72.131787 1000.4375,70.4375 1003.1761,67.698899 1000.0605,57.800161 996.0625,56.53125 993.62538,55.757739 993.27295,54.496387 992.5625,44.4375 991.48568,29.191271 985.56038,18.908243 977.9375,18.125 z M 975.125,30.1875 C 971.87499,30.566808 968.27245,36.724398 967.34375,43.5 966.35937,50.681833 968.92994,48.899165 970.90625,41.03125 973.5204,30.624046 977.20286,30.602444 980.125,40.96875 982.06693,47.857747 981.53478,51.055345 977.09375,59.4375 974.60213,64.140258 973,68.52021 973,70.59375 973,75.78434 974.60008,74.662128 975.8125,68.625 976.40586,65.670463 978.26163,61.08007 979.9375,58.4375 984.03243,51.980456 984.6073,48.054813 982.59375,40.8125 980.31498,32.616199 978.36507,29.809351 975.125,30.1875 z M 982.21875,63.0625 C 981.62663,63.303844 980.70899,64.266335 980,65.75 978.57655,68.728786 977.65875,77.61277 978.53125,79.90625 979.5639,82.620712 980.79153,79.503652 981.25,73 981.50201,69.425 982.05424,65.7125 982.46875,64.75 983.09279,63.30096 982.81087,62.821156 982.21875,63.0625 z M 968.3125,82 C 966.84091,82.022286 955,102.37061 955,104.875 955,107.91267 957.37409,105.10405 962.3125,96.25 967.96161,86.121763 969.70807,81.978865 968.3125,82 z"/>
</svg>
