<svg xmlns="http://www.w3.org/2000/svg"
     width="37.0" height="64.0"
     viewBox="617.0000 13.9896 54.3436 93.8799">
  <path d="M 663,39.573702 C 663,36.619778 661.09749,37.091646 658.27648,40.745244 656.58573,42.93501 655.55453,45.316831 655.80241,46.459757 656.17761,48.189756 656.62444,47.986311 659.61372,44.724442 661.47617,42.692153 663,40.37432 663,39.573702 z M 664.6167,63.833512 C 663.87257,60.11285 659.48345,54 657.5561,54 656.02817,54 655,56.14921 655,59.343074 655,60.823069 656.36403,62.376706 659.25,64.183857 664.79343,67.655063 665.37344,67.617199 664.6167,63.833512 z M 657.33698,32.819861 C 654.96635,30.200349 653.86117,30.57859 654.61921,33.75 655.62478,37.957025 656.18788,38.463539 657.64461,36.471351 658.78221,34.915582 658.73588,34.365633 657.33698,32.819861 z M 648.01693,29.983073 C 649.91189,28.088111 649.93863,27.781997 648.45909,24.920887 646.57855,21.284334 644.20315,21.383879 642.06754,25.188737 640.69686,27.630781 640.72908,28.043155 642.43815,29.931662 644.76682,32.504805 645.48854,32.511456 648.01693,29.983073 z M 639.46698,94.073219 C 640.44089,91.913489 642.53423,88.904298 644.11886,87.386127 L 647,84.625818 649.92734,87.430389 C 651.53738,88.972903 653.39197,91.532094 654.04866,93.11748 655.62969,96.93442 656.63579,96.754936 657.43139,92.514014 658.20552,88.387557 657.08807,85.885589 652.17596,80.747069 648.6402,77.048346 648.60615,76.932794 649.81874,72.747069 653.07878,61.493734 654.09327,35.693266 651.38231,32.982311 650.62355,32.223554 649.41923,32.426338 647.23322,33.680933 644.31627,35.355032 644.05232,35.357328 642.24786,33.724311 639.22169,30.985661 638.2429,31.645938 637.02142,37.25 633.82655,51.907837 634.5624,59.91991 640.24327,72.329933 L 643.36976,79.159866 640.25719,81.595821 C 636.53927,84.505528 634.56003,89.841196 635.44625,94.565179 636.28291,99.024973 637.2896,98.901799 639.46698,94.073219 z M 635.33513,32.826459 C 636.35037,28.94417 633.48384,27.50716 630.91019,30.608213 629.77618,31.974614 629.86169,32.425694 631.47888,33.608213 634.05763,35.493841 634.67006,35.369686 635.33513,32.826459 z M 631.84343,64 C 632.89498,64 633.05619,63.109232 632.52211,60.25 632.13684,58.1875 631.6667,56.342439 631.47735,56.149864 630.22314,54.874344 623,64.277783 623,67.18609 623,68.917991 623.30496,68.864874 626.73213,66.536051 628.78481,65.141223 631.08489,64 631.84343,64 z M 635.07405,100.58923 C 631.90385,96.769373 633.15838,84.97662 637.11595,81.395071 639.12586,79.576127 639.56036,77.005481 638.1208,75.45 637.63724,74.9275 636.70235,72.8125 636.04325,70.75 635.02894,67.575916 634.40786,67 631.99917,67 630.42269,67 627.8283,68.115042 626.18237,69.5 622.20842,72.843858 621,72.650656 621,68.671445 621,64.728708 626.2028,56.320351 629.60027,54.772358 631.45754,53.926132 632.00651,52.668833 632.50727,48.11456 632.84681,45.026552 633.35273,41.28344 633.63154,39.796533 634.07841,37.413356 633.74541,36.991213 630.82076,36.233361 626.955,35.23164 626.15187,32.943362 628.44026,29.450831 629.7162,27.503495 630.91448,26.992086 634.27305,26.96148 637.8941,26.928481 638.78668,26.474961 640.5,23.797559 644.01282,18.308071 645.69471,17.989582 649.32103,22.127171 651.06946,24.122115 653.25014,26.147115 654.16698,26.627171 657.65591,28.453973 666,37.220789 666,39.059677 666,40.117336 664.40231,43.075781 662.44958,45.633999 L 658.89916,50.285305 661.32013,52.892652 C 665.62723,57.531339 667.17814,60.830022 667.24878,65.50248 667.3436,71.774694 665.7931,73.114283 662.25659,69.815594 660.74047,68.401422 658.48325,66.72128 657.24055,66.081945 655.21689,65.040825 654.87013,65.2107 653.91779,67.709758 651.50422,74.043223 651.67125,75.552014 655.31439,80.32478 659.38961,85.663615 660.45476,89.481781 659.5507,95.510462 658.42807,102.9967 654.00879,103.86946 652.47956,96.906947 651.65275,93.14249 647.31833,87.940616 645.56807,88.612252 644.83247,88.894529 642.94123,92.021174 641.36531,95.560352 638.45503,102.09621 637.17434,103.11992 635.07405,100.58923 z"/>
</svg>
