<svg xmlns="http://www.w3.org/2000/svg"
     width="36.0" height="64.0"
     viewBox="4643.7812 17.3474 43.8687 77.9654">
  <path d="M 4647.7812 40.65625 C 4648.6317 40.426497 4649.9685 40.452235 4652.2188 40.71875 C 4657.1391 41.301496 4657.3485 41.212332 4661.0938 37.15625 C 4663.2033 34.871549 4665.4143 33 4666 33 C 4669.281 33 4669.1622 44.413131 4665.8438 49.15625 C 4663.5811 52.390189 4663.5711 53.039655 4665.5938 57.28125 C 4667.1315 60.505786 4667.0991 60.775426 4664.6562 64.375 C 4663.2616 66.430296 4661.5678 70.512874 4660.9062 73.46875 C 4659.791 78.451808 4659.8756 79.193106 4662.0938 83.59375 C 4663.4096 86.204148 4664.95 88.362816 4665.5 88.40625 C 4666.05 88.449685 4666.746 85.575 4667.0625 82 C 4667.6856 74.961085 4670.186 69 4672.5 69 C 4674.6114 69 4676.966 74.217151 4677.7812 80.6875 C 4679.12 91.31282 4683.2041 87.442381 4683.2812 75.46875 C 4683.3164 70.023163 4682.8155 67.253469 4681.25 64.25 C 4679.1906 60.298864 4679.1948 60.216191 4681.0938 57.09375 C 4683.6499 52.89047 4683.5297 52.045842 4679.8438 47.25 C 4677.1003 43.680543 4676.6784 42.32634 4676.5938 36.75 C 4676.5115 31.326594 4676.073 29.761505 4673.6562 26.59375 C 4672.0855 24.535025 4670.1743 22.607226 4669.4062 22.3125 C 4666.8912 21.347388 4663.4213 22.895636 4658.6875 27.0625 C 4653.9863 31.200687 4651.5406 31.554953 4650.4062 28.59375 L 4650 30.5 L 4649.2812 33.78125 C 4649.8232 33.310491 4650.5924 33.079249 4651.8125 33.3125 C 4653.8135 33.695018 4655.439 32.776484 4659.5312 28.90625 C 4664.8161 23.908128 4666.6699 23.215604 4670.0625 25.03125 C 4674.0606 27.170951 4676.4273 35.879244 4674.5938 41.65625 C 4674.1572 43.031901 4675.086 45.053525 4677.625 48.3125 L 4681.2812 53 L 4678.5625 57.09375 L 4675.8438 61.1875 L 4678.0625 63.5625 C 4680.6888 66.358027 4682.1586 74.144869 4681 79.0625 C 4680.4039 81.592641 4680.1692 81.879998 4680.0938 80.15625 C 4679.9605 77.115335 4674.3684 65 4673.0938 65 C 4670.7666 65 4665.1095 75.039407 4664.75 79.8125 C 4664.422 84.167391 4663 81.862928 4663 76.96875 C 4663 71.351436 4665.0585 65.519536 4668.0312 62.75 C 4669.8488 61.056599 4669.8895 60.686978 4668.5 58 C 4666.537 54.203887 4666.6094 51.10878 4668.6875 48.8125 C 4669.8641 47.512403 4670.3867 45.058422 4670.4375 40.625 C 4670.5571 30.198935 4666.4587 28.00142 4659.9688 35.03125 C 4656.7424 38.526014 4655.8453 38.997514 4653.375 38.40625 C 4650.7897 37.787441 4649.3261 36.982325 4648.8125 35.96875 L 4647.7812 40.65625 z "/>
</svg>
