<svg xmlns="http://www.w3.org/2000/svg"
     width="45.3" height="64.0"
     viewBox="33.3750 17.5926 46.3685 65.5366">
  <path d="M 37.375,53.59375 38.3125,57.78125 C 39.533224,57.902321 40.592378,57.285277 41.90625,55.875 43.896171,53.739071 44.298692,52.420324 45.5625,44 46.293651,39.128589 50.886028,29.164728 53.34375,27.125 54.180371,26.430666 56.145804,26.010259 57.6875,26.1875 61.575528,26.634489 63.140181,30.433503 64.34375,42.25 65.268897,51.332987 65.509768,52 67.5625,52 70.082324,52 72.490852,54.416081 71.53125,55.96875 71.176441,56.542843 69.811353,57 68.5,57 65.069266,57 62.98204,60.572123 63,66.46875 63.01796,72.365533 64.090422,74.549642 66.5,73.625 67.848729,73.107444 67.983866,72.672679 67.0625,71.5625 66.418348,70.786344 66.018033,68.055997 66.1875,65.46875 66.472857,61.112206 66.758738,60.668352 69.90625,59.625 74.661919,58.048569 75.743499,54.649749 72.53125,51.4375 71.187437,50.093687 69.459973,49 68.6875,49 67.63593,49 67.137617,46.900536 66.75,40.6875 66.152798,31.11509 63.419319,24.494516 59.40625,22.96875 55.786701,21.592599 55.382449,21.691445 52.09375,24.90625 47.877857,29.027416 44.06182,37.092265 42.53125,45.125 41.807638,48.922665 40.666707,52.721513 39.96875,53.5625 39.149598,54.549516 38.459164,54.382782 37.375,53.59375 z M 39.4375,62.6875 40.125,65.6875 C 46.393552,65.228927 48.155084,62.592268 51,51.46875 53.12764,43.149757 54.541531,40 56.15625,40 57.956442,40 56.358076,46.670211 53.03125,53.0625 49.514321,59.820061 48.927985,68.48826 51.53125,74.71875 53.374035,79.129156 55.731961,78.066961 54.03125,73.59375 51.935076,68.080396 52.786567,59.938201 56.15625,53.03125 59.99937,45.153882 60.912309,39.012668 58.5625,37.0625 55.656637,34.650848 52.186498,37.494378 50.46875,43.6875 49.657551,46.612175 48.33056,51.446226 47.5,54.4375 45.627184,61.182475 43.949996,62.873986 39.4375,62.6875 z M 58.84375,61 C 57.131277,61.00054 56.196903,71.766125 57.59375,75.40625 57.927594,76.276233 58.848365,77 59.625,77 60.685203,77 60.858668,76.31475 60.28125,74.25 59.858271,72.7375 59.5,69.137612 59.5,66.25 59.5,63.362389 59.197406,60.999889 58.84375,61 z"/>
</svg>
