<svg xmlns="http://www.w3.org/2000/svg"
     width="31.7" height="64.0"
     viewBox="162.5625 15.0000 42.6856 86.1847">
  <path d="M 166.5625 81.375 L 167.21875 86.0625 C 167.54192 85.420193 168.47073 85.641419 171.53125 86.5625 C 177.21857 88.274131 180.31522 87.21869 182.59375 82.8125 C 184.05369 79.989277 184.17265 77.924606 183.46875 67.53125 C 181.90514 44.443822 182.4456 33.090628 185.3125 28.21875 C 187.68157 24.192857 190.73809 22.331842 192.34375 23.9375 C 193.74929 25.343049 193.67708 36.596318 192.1875 48.375 C 190.73565 59.855246 191.5511 68.305398 194.65625 73.75 C 195.98937 76.0875 196.71694 78.035286 196.28125 78.09375 C 195.84557 78.152215 194.6 78.264715 193.5 78.34375 C 192.14042 78.441437 190.62084 80.261157 188.75 84 C 187.23636 87.025 184.84202 90.5125 183.4375 91.75 C 180.7657 94.104067 179.86396 94.239316 173.8125 93.0625 C 170.66299 92.45002 168.74657 91.390196 167.78125 89.90625 L 168.5 95 L 168.9375 95.65625 C 170.46883 95.957811 171.47207 96.261125 174.09375 96.5 C 181.60793 97.184656 181.73323 97.177704 185.28125 94.0625 C 187.25434 92.330104 189.62707 88.91812 190.5625 86.46875 C 191.98941 82.732439 192.6949 82 194.9375 82 C 196.40766 82 198.48539 81.389749 199.53125 80.625 C 201.1754 79.422767 201.24805 78.915145 200.15625 76.875 C 195.44888 68.078715 194.81181 66.194079 194.34375 59.625 C 194.05364 55.55352 194.49481 48.065923 195.375 42.15625 C 197.37686 28.715525 195.77232 19 191.5625 19 C 189.95862 19 184.578 24.810261 182.75 28.5 C 179.80939 34.43546 178.78829 56.534735 181.0625 65 C 182.43125 70.094923 182.22166 76.560308 180.5625 80.53125 C 178.95308 84.383133 176.71543 84.871896 169.75 82.9375 C 167.97858 82.445552 167.07256 82.045101 166.5625 81.375 z "/>
</svg>
