<svg xmlns="http://www.w3.org/2000/svg"
     width="26.4" height="64.0"
     viewBox="2890.7993 18.9254 33.8257 82.0297">
  <path d="M 2919.2188,81.8125 C 2917.508,82.246958 2915.9317,81.544135 2914.1875,79.6875 2912.1559,77.524884 2912.0651,76.900513 2912.9688,69.9375 2915.9273,47.141218 2911.9351,24.004643 2904.9062,23.1875 2902.6516,22.925381 2901.9052,23.689745 2898.9688,29.1875 2895.8198,35.083437 2895.5633,36.238237 2895.1875,47 2894.7993,58.120052 2895.045,59.984279 2899.0938,79.8125 2899.7445,82.999302 2899.552,85.196263 2898.4062,88.3125 2897.5565,90.623831 2896.6152,93.2875 2896.3125,94.25 2895.5095,96.803207 2897.4862,96.392907 2898.7188,93.75 2903.2598,84.012538 2903.3142,83.608875 2901.5312,76.5 2900.6073,72.816089 2899.4793,66.138459 2899,61.65625 2898.5207,57.174042 2897.802,52.07956 2897.4375,50.34375 2896.5583,46.157226 2898.7669,33.466442 2901.1875,28.6875 2903.7491,23.630164 2905.9135,24.170315 2908.4062,30.5 2909.9952,34.534621 2910.3997,38.280247 2910.5625,50 2910.6732,57.975 2910.3421,67.655809 2909.8125,71.5 L 2908.8438,78.46875 2911.9062,81.21875 C 2914.8765,83.872646 2917.226,84.987575 2919.5,84.5 L 2919.2188,81.8125 z M 2920.3125,92.59375 C 2919.4748,92.308336 2918.1054,91.653085 2916.4062,90.5 2914.38,89.125 2911.6869,88 2910.4375,88 2907.9348,88 2903,93.169845 2903,95.78125 2903,96.955077 2903.9223,96.504192 2906.3125,94.1875 2910.2858,90.336457 2911.595,90.250113 2916,93.5 2917.6903,94.747084 2919.5879,95.692024 2920.625,95.875 L 2920.3125,92.59375 z"/>
</svg>
