<svg xmlns="http://www.w3.org/2000/svg"
     width="24.0" height="64.0"
     viewBox="3969.8003 16.6675 31.2847 83.3325">
  <path d="M3978.0 94.554566C3978.0 93.759577 3979.2058 92.522077 3980.6795 91.804566C3982.1532 91.087055 3984.4191 88.475 3985.7148 86.0C3987.0105 83.525 3989.045 80.754936 3990.236 79.844303C3991.8503 78.609996 3992.1326 77.846469 3991.345 76.844303C3987.7778 72.304732 3987.452 56.918274 3990.7051 46.620962C3991.7424 43.337379 3992.0968 39.413357 3991.7888 34.620962C3991.304 27.07769 3989.5809 23.0 3986.8781 23.0C3984.8216 23.0 3980.144 29.031809 3978.8987 33.289741C3977.157 39.244671 3977.7777 50.075645 3980.4444 60.2625C3983.5746 72.219865 3983.7384 79.27659 3980.9905 83.783581C3979.0606 86.94897 3976.4594 88.792694 3975.4074 87.74078C3975.129 87.462316 3976.0484 85.543928 3977.4506 83.477695C3980.391 79.144731 3980.744 74.038835 3978.6289 66.431501C3973.8119 49.105652 3973.8003 38.818255 3978.588 30.01224C3980.1896 27.066409 3982.7581 23.730282 3984.2958 22.598625C3986.853 20.716699 3987.3169 20.667506 3989.7307 22.022321C3995.4006 25.204767 3997.085 37.247155 3993.314 47.640825C3991.1545 53.59297 3991.791 72.013071 3994.25 74.726439C3996.7525 77.487802 3996.4208 79.564175 3993.0995 81.929185C3991.5041 83.065141 3989.3275 85.683283 3988.2625 87.747279C3986.5067 91.149779 3980.9762 96.0 3978.8521 96.0C3978.3835 96.0 3978.0 95.349555 3978.0 94.554566Z"/>
</svg>
