<svg xmlns="http://www.w3.org/2000/svg"
     width="32.3" height="64.0"
     viewBox="4456.5000 13.1034 43.9087 86.8966">
  <path d="M 4461.3438 93.65625 C 4462.0864 93.50105 4462.9897 93.795727 4464.75 94.53125 C 4466.6755 95.335761 4470.1663 96 4472.5 96 C 4480.0029 96 4483.7673 91.214565 4486.3125 78.5 C 4487.4723 72.706343 4487.6123 72.511422 4490.4062 72.8125 C 4496.0192 73.417331 4496.4087 69.265498 4491.4062 61.84375 L 4487.7812 56.5 L 4488.4062 48 C 4488.7382 43.325 4489.2584 37.568409 4489.5938 35.21875 C 4491.2856 23.369779 4485.4554 17.103362 4479.1562 24 C 4474.5527 29.040246 4472.7276 36.199301 4473.2812 47.0625 C 4473.5455 52.246904 4474.318 59.65 4475 63.5 C 4476.6184 72.637308 4476.489 77.180034 4474.4688 81.4375 C 4472.1608 86.301125 4469.7652 86.760377 4464.3125 83.34375 C 4462.8606 82.434002 4461.6583 81.295519 4460.5938 80.0625 L 4460.5 80.5 L 4461.3438 93.65625 z M 4484.2188 22.9375 C 4485.3864 23.170965 4486.3825 24.521751 4487.125 27 C 4488.0854 30.205319 4488.0346 32.450111 4486.9062 38.25 C 4486.1309 42.235118 4485.5289 48.746009 4485.5625 52.71875 C 4485.6181 59.298475 4485.9076 60.291542 4488.8125 63.90625 C 4492.0876 67.981691 4492.963 70.59229 4490.75 69.6875 C 4490.0625 69.40642 4488.7079 68.884828 4487.75 68.5 C 4485.75 67.696475 4485.7081 67.777486 4483.9688 77.5 C 4482.4183 86.166843 4479.9597 91.250338 4476.5312 92.8125 C 4473.1407 94.357293 4470.3041 94.261843 4466.25 92.5 C 4463.2382 91.191183 4461.122 88.534246 4462.2188 87.4375 C 4462.4726 87.18374 4464.0949 87.484082 4465.8438 88.09375 C 4470.5519 89.735041 4473.2816 88.600617 4475.9375 83.875 C 4478.8114 78.761611 4479.121 69.592571 4476.6875 60.5 C 4474.2455 51.37583 4474.4653 36.519032 4477.125 30.9375 C 4479.8322 25.256164 4482.2727 22.548392 4484.2188 22.9375 z "/>
</svg>
