<svg xmlns="http://www.w3.org/2000/svg"
     width="22.0" height="64.0"
     viewBox="3694.3736 16.7308 28.4838 82.6871">
  <path d="M 3716.3438 81.4375 C 3716.1935 80.150857 3716.3577 77.868134 3716.7188 73.625 C 3718.8574 48.491027 3714.8886 22.369679 3708.75 21.1875 C 3706.3784 20.730767 3704.4754 25.130642 3702.5312 35.5 C 3698.3736 57.677024 3700.6159 85.642847 3707.2188 93.75 C 3708.577 95.417909 3709.9982 95.334018 3712.0938 93.4375 C 3712.7951 92.802763 3713.3184 92.476776 3714.0312 92.40625 L 3714 91.5 L 3714.75 87.9375 C 3714.1882 87.316186 3713.843 86.815135 3714 86.65625 C 3714.0467 86.608925 3714.8832 86.553633 3715.0625 86.5 L 3716 82 L 3716.3438 81.46875 C 3716.3431 81.463647 3716.3443 81.442635 3716.3438 81.4375 z M 3708.0312 25 C 3709.3803 24.527519 3710.8205 28.064943 3712.5625 35.5 C 3715.2082 46.791967 3715.2388 73.448646 3712.625 83.75 C 3711.6133 87.7375 3710.466 91 3710.0938 91 C 3708.6149 91 3705.7186 84.469344 3704.375 78.15625 C 3702.6274 69.944705 3702.4232 47.938501 3704 38.5 C 3705.4274 29.954869 3706.6822 25.472481 3708.0312 25 z "/>
</svg>
