<svg xmlns="http://www.w3.org/2000/svg"
     width="47.2" height="64.0"
     viewBox="2251.6534 17.6646 65.2512 88.5190">
  <path d="M2272.214 95.818215C2270.4463 93.518233 2269.0 90.866902 2269.0 89.926369C2269.0 88.985835 2271.0333 85.954791 2273.5184 83.190715C2278.0198 78.18412 2278.0344 78.143916 2277.3775 72.554445C2277.0148 69.468571 2276.444 66.780157 2276.109 66.580192C2275.7741 66.380226 2272.704 67.542565 2269.2868 69.163167C2261.9411 72.646773 2259.7001 72.06645 2257.9918 66.238233C2256.1565 59.976308 2255.6534 45.131668 2257.0698 39.029296C2258.3844 33.365585 2262.3683 26.513506 2264.9421 25.489239C2265.7352 25.173605 2268.4635 25.994176 2271.005 27.31273L2275.6258 29.710102L2278.5629 27.302394C2285.2818 21.794484 2285.8261 21.763961 2293.0 26.492766C2304.6296 34.158626 2306.1169 35.825328 2306.3922 41.5C2306.6223 46.24158 2304.9642 57.467256 2303.475 61.25C2302.726 63.152356 2298.5189 63.648625 2297.474 61.957871C2297.1197 61.3847 2295.0641 60.209198 2292.9058 59.345644C2288.2667 57.489437 2288.2305 57.366799 2287.693 41.694081C2287.0682 23.474747 2283.7392 24.185255 2282.5905 42.783119C2281.8248 55.179584 2280.5456 57.494807 2273.298 59.601737C2265.5806 61.84525 2264.5787 61.070061 2264.2025 52.564579C2263.9491 46.835715 2264.2833 45.192317 2266.4557 41.485323C2267.8587 39.09138 2269.9051 36.847518 2271.0033 36.498962C2273.5338 35.695796 2273.6884 31.24306 2271.25 29.392046C2268.2296 27.099246 2264.3412 27.712027 2262.1205 30.830796C2257.1529 37.807147 2257.7441 65.251688 2262.9311 68.4574C2263.511 68.815824 2266.9591 67.6899 2270.5936 65.955347C2274.9814 63.861222 2277.5363 63.136268 2278.1977 63.797652C2279.5083 65.108276 2280.8051 76.302919 2279.9193 78.659001C2279.5386 79.67155 2277.4244 82.539102 2275.221 85.031339C2271.4056 89.347001 2271.2821 89.69088 2272.6263 92.256197C2273.8938 94.675389 2276.783 97.0 2278.5222 97.0C2278.8817 97.0 2278.8841 95.273508 2278.5276 93.163351C2277.9324 89.640528 2278.2365 88.932276 2282.245 84.504715C2287.2095 79.02125 2287.9149 79.084293 2292.9764 85.463885C2294.9408 87.939806 2295.9109 90.098241 2295.5607 91.213885C2295.2523 92.196248 2294.7225 93.9 2294.3834 95.0C2293.2131 98.795789 2296.0106 97.031691 2298.1524 92.62331C2300.9313 86.903426 2300.1709 84.249028 2294.5461 80.034572C2289.5229 76.270779 2288.0525 72.228381 2289.6885 66.679659C2290.5508 63.755167 2290.9347 63.519136 2294.4715 63.73846C2296.5866 63.869613 2299.0686 64.657113 2299.9872 65.48846C2302.8036 68.037182 2304.6351 67.246765 2306.3328 62.75C2308.7981 56.220375 2310.1079 45.511942 2309.7892 34.494035L2309.5 24.5L2306.5 24.701306C2303.6652 24.891529 2303.6069 24.822709 2305.4411 23.451306C2307.6622 21.790712 2308.922 21.66457 2310.8829 22.906447C2312.9046 24.186907 2312.5835 48.95938 2310.4378 57.239895C2307.9519 66.833477 2306.5233 69.005668 2302.7243 68.968197C2300.9509 68.950705 2298.6265 68.275705 2297.5589 67.468197C2296.4912 66.660688 2294.8037 66.0 2293.8089 66.0C2292.3492 66.0 2292.0 66.815415 2292.0 70.22332C2292.0 74.005274 2292.5225 74.932096 2297.0 79.091859C2300.9289 82.741985 2302.0 84.402166 2302.0 86.841788C2302.0 90.998412 2298.0917 98.836111 2295.6293 99.617652C2292.7028 100.54648 2290.9532 97.649954 2292.076 93.735096C2292.9846 90.566761 2292.6718 89.764979 2288.473 84.5C2286.9025 82.5307 2286.833 82.550001 2283.9465 85.757396C2281.6539 88.304859 2281.0487 89.874557 2281.1696 92.959659C2281.4763 100.78863 2277.1062 102.18354 2272.214 95.818215Z M2274.0576 56.360259C2278.2484 54.683449 2280.0 52.06673 2280.0 47.482941C2280.0 45.774218 2278.7024 44.203323 2275.4329 41.95381C2271.1678 39.019388 2270.7462 38.919754 2269.058 40.447548C2267.814 41.573296 2267.0364 44.253123 2266.5648 49.039637C2265.61 58.72862 2266.3447 59.446378 2274.0576 56.360259Z M2280.5168 36.310958C2280.6872 34.006986 2281.1209 31.194486 2281.4807 30.060958C2282.4793 26.914342 2279.7576 27.484084 2277.1881 30.959507C2274.757 34.247757 2274.3561 37.956058 2276.2292 39.829187C2278.4782 42.078232 2280.1945 40.66992 2280.5168 36.310958Z M2296.3267 36.774378C2298.3292 34.082257 2298.3304 34.022617 2296.4294 31.921999C2295.3708 30.752283 2293.2662 29.154756 2291.7524 28.371941C2288.5856 26.734362 2288.495 27.036703 2289.6429 35.411255C2290.186 39.373715 2290.5972 40.054965 2292.2926 39.800826C2293.3963 39.635372 2295.2117 38.27347 2296.3267 36.774378Z M2302.4697 57.218238C2303.8099 53.725827 2304.2619 40.357939 2303.1125 38.210174C2301.9703 36.076016 2301.8884 36.099816 2296.001 40.275569L2290.045 44.5L2290.2725 49.89649C2290.4262 53.54307 2290.9864 55.520916 2292.0 55.995903C2292.825 56.38251 2294.8208 57.395506 2296.4351 58.247006C2299.7003 59.969333 2301.534 59.656731 2302.4697 57.218238Z M2301.5 29.0C2301.8399 28.45 2303.018 28.0 2304.118 28.0C2305.218 28.0 2305.8399 28.45 2305.5 29.0C2305.1601 29.55 2303.982 30.0 2302.882 30.0C2301.782 30.0 2301.1601 29.55 2301.5 29.0Z"/>
</svg>
