<svg xmlns="http://www.w3.org/2000/svg"
     width="46.5" height="64.0"
     viewBox="308.0360 12.8954 68.7239 94.5090">
  <path d="M 360.71875,73.40625 C 360.53496,72.362936 360.5321,71.089563 360.75,68.375 361.20695,62.682344 360.98591,61.594297 358.625,58.1875 357.17475,56.094791 356,53.604871 356,52.65625 356,49.6185 361.86058,39.19044 363.9375,38.53125 366.9788,37.56598 369.68324,33.525374 371.03125,27.90625 372.75992,20.700349 371.35417,19.654851 365.5,23.78125 363.0207,25.528825 359.79619,27.260462 358.34375,27.625 355.954,28.22479 355.76283,28.073219 356.25,25.90625 356.5461,24.589217 357.12928,22.0375 357.53125,20.25 358.18719,17.333186 358.01006,17 356,17 352.59402,17 344.38518,21.890467 343.125,24.65625 342.51057,26.004789 342,28.596107 342,30.4375 342,33.745274 343.19143,35.370761 348.875,39.78125 351.17606,41.566886 351.20916,41.717817 349.625,44.78125 347.12907,49.607854 344.76165,50.44166 341.96875,47.46875 339.14826,44.466484 335.17585,44.280648 331.71875,47 326.55639,51.060715 325.92929,49.62854 325.25,32.65625 324.8525,22.72477 324.40146,19.711114 323.28125,19.28125 317.0637,16.895353 312.03601,46.301016 317,56.03125 320.3287,62.556039 327.13785,64.803227 332,61 333.375,59.924459 335.11491,59.04348 335.875,59.03125 338.40096,58.990607 343.67775,62.941338 346.46875,66.96875 349.8387,71.831585 349.48867,73.768176 344.03125,80.34375 339.76563,85.483345 338.97217,88.91272 341.5625,91.0625 342.4277,91.780551 344.02277,94.088207 345.09375,96.1875 348.77552,103.40436 354.8829,99.305069 353.5625,90.5 352.99077,86.687416 353.38018,85.03241 355.03125,85.375 L 355,84.5 357.1875,80.125 C 357.33305,79.422445 357.55929,78.784309 357.96875,78.53125 357.97548,78.52709 357.99311,78.535246 358,78.53125 L 360.5,73.5 360.71875,73.40625 z M 353.25,20 C 353.67733,20 353.89251,22.5875 353.75,25.75 353.49276,31.458816 353.51901,31.499509 356.25,31.3125 357.76288,31.208903 361.02629,29.682733 363.5,27.90625 365.97371,26.129767 368.2855,24.941746 368.625,25.28125 370.28569,26.94194 365.08168,36 362.46875,36 360.69093,36 359.23261,38.052407 355.46875,45.90625 L 352.125,52.90625 354.71875,56.6875 C 359.57198,63.788142 358.61691,74.357399 352.40625,82.5 349.86492,85.831855 349.77481,86.348578 350.90625,90.125 351.83845,93.236386 351.85067,94.462197 350.9375,95.5625 349.3303,97.499053 348.24342,97.368862 347.53125,95.125 347.20347,94.092256 345.84326,91.969499 344.5,90.40625 342.18679,87.7142 342.14051,87.427543 343.65625,85.03125 344.53642,83.639744 346.29369,81.375 347.5625,80 353.22104,73.867893 352.43567,67.328821 345.28125,61.03125 339.34607,55.806898 336.65076,55.257835 332.0625,58.4375 327.89874,61.32299 325.22047,61.703268 324.375,59.5 324.05841,58.675 323.15828,58 322.40625,58 320.13907,58 317.71484,51.90223 317.21875,44.96875 316.72992,38.136641 319.40231,23 321.09375,23 322.11059,23 322.10287,22.74814 322.4375,37 322.78422,51.767044 325.43979,55.177823 332.1875,49.5 336.01402,46.280199 337.21267,46.351518 340.65625,50 343.90974,53.447089 344.70615,53.576236 347.5625,51.1875 353.80762,45.964775 354.40925,39.299372 348.875,36.4375 345.5475,34.716787 343.61766,30.703526 344.46875,27.3125 344.97951,25.27749 351.31752,20 353.25,20 z"/>
</svg>
