<svg xmlns="http://www.w3.org/2000/svg"
     width="57.1" height="64.0"
     viewBox="547.9114 13.9415 81.1368 90.9054">
  <path d="M 612,55.5651 C 612,54.225904 611.52035,51.868631 610.93412,50.326713 L 609.86823,47.523227 607.95635,50.011614 C 605.46587,53.253076 605.5202,54.421366 608.25,56.325576 611.36771,58.500381 612,58.372157 612,55.5651 z M 604.53434,65.066397 C 602.65785,61.43767 600.70984,61.136587 599.25227,64.25 598.33499,66.209343 598.67049,66.908481 601.84946,69.662079 605.49865,72.822988 605.50011,72.82329 605.81002,70.478476 605.98052,69.188351 605.40647,66.752915 604.53434,65.066397 z M 597,89.174314 C 597,88.720187 598.125,87.291745 599.5,86 601.37247,84.24091 602,84.032744 602,85.170698 602,86.006328 601.17707,87.434769 600.17126,88.345012 598.17265,90.153727 597,90.460382 597,89.174314 z M 563.44113,88.576386 C 561.85301,87.411665 561.53114,86.059942 561.67125,81.143475 561.87892,73.855985 564.13835,68.758993 568.70526,65.275641 L 572.12907,62.664176 576.81454,65.022666 C 584.49898,68.890735 588.05825,69.928351 590.48165,69.006975 593.84999,67.726335 599.43934,60.649288 603.98878,51.904684 607.49539,45.164525 608.66029,43.798472 612.28413,42.176875 614.60286,41.139292 617.35724,39.325029 618.40499,38.14518 620.41426,35.88257 619.98345,35.429602 617.18426,36.861668 616.25792,37.335585 614.30573,38.008309 612.84606,38.35661 610.53957,38.906978 610.05096,38.584937 609.11384,35.896715 607.3796,30.921884 610.38224,20 613.48416,20 614.69578,20 614.69075,20.495895 613.44897,23.467881 611.62384,27.836029 611.57606,34.403268 613.35863,35.882675 614.39595,36.743574 615.32012,36.536035 617.26636,35.00512 618.66836,33.902304 620.28042,33 620.84871,33 625.04818,33 620.96185,40.809313 615.12892,43.931005 612.73062,45.214536 612.69956,45.716573 614.55331,53.236043 615.48737,57.024932 614.23093,63 612.50014,63 611.72506,63 609.86619,61.775284 608.36932,60.278409 604.91771,56.826803 604.22864,58.567678 606.94157,63.885461 609.24623,68.402979 609.60722,72.992778 607.8,74.8 606.00297,76.597025 604.8449,76.290477 601,73 597.01252,69.587509 595.39626,69.33372 592.14666,71.60983 589.37026,73.554494 586.06283,73.037897 577.93407,69.389923 L 572.11797,66.779813 569.09409,68.933004 C 564.80586,71.986492 562.63018,80.57195 565.01525,85.028503 566.20821,87.257563 567.7077,86.877391 573.68018,82.831644 575.97927,81.27424 578.36412,80 578.97984,80 580.67617,80 586.2271,82.984715 588.65565,85.202651 590.95601,87.303515 593.27859,86.779099 595.95469,83.554596 596.6643,82.699568 597.97729,82.013429 598.87244,82.029842 600.84824,82.066068 592.18618,89.925466 590.1212,89.970158 589.36286,89.986571 586.99906,88.425 584.86832,86.5 582.73758,84.575 580.02938,83 578.85011,83 577.67084,83 574.7839,84.575 572.4347,86.5 567.72213,90.361595 566.31749,90.685891 563.44113,88.576386 z M 586.81577,96.542906 C 583.78075,94.044308 580.79406,92 580.17868,92 579.56331,92 576.40319,93.35 573.1562,95 567.51877,97.864739 561.7075,98.812028 559.44721,97.234687 557.61031,95.952805 553.79062,89.005528 553.00323,85.514319 551.91142,80.673366 554.44534,65.311202 557.46005,58.494406 L 560.01991,52.706121 556.83051,47.735878 C 552.58355,41.117562 552.45378,35.630653 556.35625,27.683152 558.44724,23.424799 560.12706,21.430185 562.62594,20.238552 565.72237,18.761966 566.18464,18.756065 567.60358,20.175006 569.02252,21.593948 568.95315,22.238141 566.85662,27.11166 563.72798,34.384389 563.81738,39.27193 567.13985,42.594394 569.68468,45.139228 569.79628,45.156711 572.98148,43.509577 574.76746,42.58601 578.21927,39.995542 580.65216,37.752981 583.8002,34.851218 585.3848,33.984798 586.14799,34.747994 587.98192,36.581923 584.24424,46.000941 579.88221,50.537852 577.74699,52.75867 576,54.874552 576,55.239811 576,56.322145 584.72754,62 586.39122,62 588.60589,62 591.76951,58.306391 595.00925,51.938237 598.82157,44.444604 599.521,40.229082 597.57215,36.491495 595.29266,32.11981 595.54093,24.853324 598.08007,21.625331 600.9778,17.941471 602.53566,19.39722 600.03157,23.448917 598.57398,25.80735 598.17642,27.632086 598.62811,29.890547 599.47328,34.116418 600.62735,34.613241 601.33853,31.057373 602.30103,26.244834 606.11948,19 607.69346,19 608.50372,19 608.99294,19.3375 608.7806,19.75 604.96445,27.16354 604.12921,30.90514 605.41645,34.820173 606.02147,36.660271 605.7664,37.248328 604.18368,37.662217 602.83361,38.015269 601.97085,39.367386 601.51661,41.842044 600.71296,46.220329 594.62929,58.599724 591.7416,61.732813 590.60973,62.96086 588.84778,64.230926 587.82613,64.555183 585.75241,65.213357 579,63.292005 579,62.043768 579,61.603148 577.6328,60.676329 575.96178,59.98417 573.06067,58.78249 571,56.332957 571,54.086065 571,53.511086 572.79342,52.125714 574.98538,51.007461 579.02352,48.947355 581.23984,46.348292 582.46923,42.231198 L 583.14671,39.962396 579.57336,41.66641 C 577.60801,42.603618 576,43.725523 576,44.159532 576,45.729202 569.77455,48.160231 567.3276,47.546088 563.47554,46.57928 559.16241,35.170925 561.69244,32.640897 562.07328,32.260057 562.53615,30.95718 562.72105,29.745616 562.90595,28.534051 563.49435,27.105647 564.02861,26.571385 564.56288,26.037123 565,24.804501 565,23.832224 565,20.606449 560.66259,23.372818 558.30903,28.099683 554.87191,35.002721 555.27262,40.426561 559.694,46.846208 L 563.38801,52.209735 560.64501,57.089404 C 557.54402,62.605921 555.0432,73.033253 555.01736,80.554219 555.00393,84.46304 555.67488,86.672607 557.97798,90.304219 561.89352,96.478388 564.90265,96.765135 573.69668,91.80209 580.12725,88.172903 582.10775,88.467548 588.50616,94.005334 591.04467,96.2024 593.76797,98 594.55794,98 595.3479,98 597.79553,96.372637 599.99712,94.383638 602.1987,92.394638 604,91.170259 604,91.662795 604,92.78965 597.05338,100 595.96774,100 595.52545,100 594.52692,100.24431 593.74879,100.54291 592.95672,100.84685 589.90512,99.086231 586.81577,96.542906 z"/>
</svg>
