<svg xmlns="http://www.w3.org/2000/svg"
     width="30.4" height="64.0"
     viewBox="5002.0000 16.0000 40.4096 85.0000">
  <path d="M 5026.625,73.375 C 5025.3518,71.784597 5024.662,69.992625 5023.7188,66.3125 5021.5693,57.925815 5021.5013,49.023015 5023.5312,42.1875 5024.3776,39.337675 5025.2198,37 5025.4062,37 5025.5928,37 5027.3692,37.675 5029.3438,38.5 5031.3182,39.325 5033.6456,40 5034.5,40 5036.6055,40 5038.4096,35.719701 5037.625,32.59375 5036.5024,28.120968 5033.1077,27.518601 5025.875,30.46875 5024.6329,30.975381 5023.443,29.777942 5021.0312,25.5625 5019.2801,22.501951 5017.2885,20 5016.5938,20 5014.984,20 5006,33.726233 5006,36.1875 5006,37.20494 5007.1765,39.842452 5008.625,42.03125 5012.3662,47.684606 5012.8745,56.702575 5010.0938,68.125 5008.9374,72.875167 5007.9969,77.825167 5008,79.125 5008.0111,83.836279 5010.2113,89.214803 5013.6875,93.0625 5015.6399,95.223571 5017.8587,97 5018.625,97 5019.3912,97 5021.2427,95.210377 5022.75,93.03125 5024.2573,90.852124 5025.8836,89.052124 5026.3438,89.03125 5026.4207,89.027757 5027.0185,89.434505 5027.1875,89.5 L 5027,88.5 5026.6562,82.78125 C 5026.4468,82.313995 5026,81.747063 5026,81.375 5026,80.431624 5026.1936,79.906542 5026.5,79.5625 L 5026.5,73.5 5026.625,73.375 z M 5016.0938,24.625 C 5016.6608,24.394352 5017.1519,24.729539 5017.9688,25.46875 5018.9375,26.345497 5020.5424,28.838439 5021.5312,31.03125 5023.2309,34.800461 5023.2251,35.357583 5021.6562,41 5019.6071,48.37036 5019.5335,59.105186 5021.5,64.75 5022.3136,67.085625 5023.2732,72.735981 5023.625,77.3125 5024.1469,84.102324 5023.9572,86.30764 5022.5312,89.3125 5020.4581,93.681218 5016.8262,94.358894 5014.8125,90.75 5010.4791,82.983833 5010.089,77.335313 5013.0938,65.65625 5015.8413,54.977231 5015.2069,47.688668 5010.9375,40.75 5007.5483,35.241824 5007.4852,35.559784 5013.7188,27.1875 5014.863,25.65052 5015.5267,24.855648 5016.0938,24.625 z M 5032.8438,31.25 C 5035.1208,31.530598 5036.338,33.491681 5035.0625,35.875 5033.7751,38.28061 5033.4505,38.326714 5030,36.4375 5026.7275,34.645716 5026.8447,32.771084 5030.2812,31.5625 5031.2225,31.231496 5032.0847,31.156467 5032.8438,31.25 z"/>
</svg>
