<svg xmlns="http://www.w3.org/2000/svg"
     width="41.7" height="64.0"
     viewBox="6430.5000 14.8981 55.3574 85.0213">
  <path d="M 6434.5 79.8125 L 6434.5 91.65625 C 6435.6329 91.417236 6437.0607 91.620534 6439.7812 92.0625 C 6442.9221 92.572735 6447.0786 93.444291 6449 94 C 6455.6361 95.919332 6458.4773 95.313418 6462.125 91.25 C 6463.9765 89.1875 6466.3602 85.5875 6467.4062 83.25 C 6469.4035 78.786651 6471.7611 77.802265 6474 80.5 C 6475.499 82.30618 6478.1689 82.45613 6479.8125 80.8125 C 6481.6307 78.994321 6481.239 73.388782 6479 69 C 6476.4956 64.090914 6476.5034 60.693301 6479 48.34375 C 6481.8574 34.209422 6481.3659 27.1408 6477.2188 22.0625 C 6474.6345 18.898065 6469.2326 20.184558 6467.4688 24.40625 C 6465.3273 29.531138 6462.9501 43.821083 6462.4688 54.5 C 6461.7077 71.379634 6460.2278 78.020229 6456.6875 80.5 C 6453.8471 82.489449 6445.5801 82.420518 6437.3125 80.34375 C 6435.8547 79.977554 6435.4348 80.007028 6434.5 79.8125 z M 6472.3125 23.28125 C 6473.4795 23.010212 6474.7699 23.38387 6475.9688 24.46875 C 6478.2072 26.49455 6479.5808 37.541452 6478.1875 42.25 C 6477.6579 44.040069 6476.4405 49.766753 6475.4688 55 C 6473.7114 64.46397 6473.7045 64.570198 6475.8438 69.40625 C 6479.5267 77.732461 6478.2896 81.492012 6473.375 76.875 C 6472.1301 75.705418 6470.4239 74.993968 6469.5938 75.3125 C 6468.7637 75.631033 6466.7474 78.748643 6465.125 82.21875 C 6463.5025 85.688858 6461.3567 89.274409 6460.3438 90.1875 C 6457.6067 92.654698 6454.0878 93.014754 6448.5 91.4375 C 6445.75 90.66127 6442.4611 90.041859 6441.1875 90.03125 C 6437.2418 89.998383 6435.2248 88.341475 6435.75 85.59375 C 6436.2197 83.137114 6436.2762 83.115959 6444.375 83.6875 C 6451.4094 84.183925 6453.1323 83.985295 6456.6562 82.1875 C 6462.5972 79.156661 6464.2104 74.552361 6464.6562 59.5 C 6465.0406 46.522391 6467.3598 30.003728 6469.3438 26 C 6470.1071 24.459423 6471.1455 23.552288 6472.3125 23.28125 z "/>
</svg>
