<svg xmlns="http://www.w3.org/2000/svg"
     width="56.6" height="64.0"
     viewBox="2692.0000 20.9897 75.4344 85.3639">
  <path d="M2713.5242 96.312839C2713.1294 93.679886 2711.663 89.57474 2710.2656 87.190293C2707.8593 83.084194 2707.5123 82.871989 2703.7034 83.177467C2698.5117 83.593854 2697.4857 81.37471 2702.4402 80.445241C2704.9992 79.965165 2706.7379 80.253457 2708.5858 81.464266C2711.0783 83.09742 2715.9373 91.941912 2716.022 95.0C2716.0939 97.593595 2719.0 92.919214 2719.0 90.209999C2719.0 88.885742 2718.2468 86.215067 2717.3263 84.275166C2715.8676 81.201264 2715.8191 80.153939 2716.9489 76.124037C2717.6618 73.580817 2718.431 67.225 2718.6581 62.0C2718.8853 56.775 2719.7537 50.400231 2720.5881 47.833846C2722.3518 42.408538 2726.3301 38.0 2729.462 38.0C2733.5274 38.0 2738.5707 45.588694 2739.627 53.295139C2740.1219 56.906352 2739.7043 58.591828 2737.1102 63.453141C2734.0167 69.250307 2732.7474 78.0 2735.0 78.0C2735.55 78.0 2736.0 77.314946 2736.0 76.477657C2736.0 74.315063 2743.9141 66.0 2745.9724 66.0C2748.7335 66.0 2750.9089 69.246396 2751.9987 74.993252C2752.5572 77.938065 2753.2234 80.55669 2753.4791 80.812417C2754.4389 81.772258 2756.2081 75.309004 2756.3513 70.31925C2756.4783 65.89379 2756.0902 64.710187 2753.6887 62.200583L2750.8775 59.262668L2753.9065 54.486338C2755.5725 51.859357 2757.5941 47.637756 2758.399 45.105004C2761.9185 34.029438 2761.1587 26.925451 2757.5054 36.75C2755.0835 43.262776 2752.2276 47.804772 2749.3819 49.669356C2745.9942 51.889015 2744.5371 50.300666 2742.5371 42.208518C2740.7062 34.800029 2739.7655 33.173211 2735.8327 30.614045C2728.779 26.024021 2717.6371 35.68411 2714.0498 49.5C2713.4785 51.7 2713.0086 56.9875 2713.0056 61.25C2712.9991 70.231486 2711.6002 72.463891 2705.3058 73.537693C2703.2126 73.894779 2700.2625 75.05835 2698.75 76.123407C2697.2375 77.188464 2696.0 77.666147 2696.0 77.184925C2696.0 75.536767 2699.6664 72.99229 2704.3317 71.402636C2706.898 70.528221 2709.2341 69.430246 2709.5231 68.962691C2709.812 68.495136 2710.2279 64.824758 2710.4471 60.806296C2710.9684 51.254323 2711.7639 47.592382 2714.6856 41.297639C2717.3364 35.586251 2725.3865 27.621771 2729.5696 26.571878C2735.8735 24.989713 2742.798 32.080278 2745.5635 42.949259C2746.1861 45.396352 2747.1677 47.555904 2747.7448 47.748263C2749.2529 48.250978 2752.5579 43.235787 2755.9212 35.340649C2759.1538 27.752619 2761.4438 26.190944 2762.4721 30.873198C2763.4344 35.254162 2761.4801 44.208068 2757.9451 51.615037C2754.8948 58.006437 2754.8734 58.157031 2756.6383 60.806449C2759.9502 65.777942 2758.3145 80.5954 2754.0254 84.477042C2751.1106 87.114845 2750.0 85.480019 2750.0 78.551767C2750.0 73.660354 2749.5431 71.684987 2747.9897 69.860784L2745.9794 67.5L2742.4588 71.452341C2740.438 73.720952 2738.2821 77.66153 2737.3982 80.702341C2736.5511 83.616054 2735.4504 86.0 2734.9521 86.0C2734.4538 86.0 2733.3011 84.863014 2732.3906 83.473365C2729.6569 79.301283 2730.9272 68.24492 2734.8686 61.904549C2738.5235 56.024913 2738.4972 56.253087 2736.3186 49.341798C2734.2886 42.90175 2730.7365 39.070662 2728.2051 40.590817C2724.2549 42.962866 2721.7505 50.639503 2720.9518 62.823226C2720.5308 69.245452 2719.696 75.762791 2719.0966 77.306202C2718.2469 79.494161 2718.3365 80.750019 2719.5034 83.006542C2721.4996 86.866738 2721.3931 92.707471 2719.2484 96.997063C2716.5703 102.35361 2714.391 102.09311 2713.5242 96.312839Z"/>
</svg>
