<svg xmlns="http://www.w3.org/2000/svg"
     width="40.5" height="64.0"
     viewBox="6486.1808 14.5643 55.1107 86.9874">
  <path d="M6494.865 94.603003C6494.0099 92.726281 6494.007 90.631121 6494.8535 86.296614C6495.835 81.271031 6495.7239 79.639438 6494.0179 74.030296C6491.0514 64.276072 6490.1808 43.821673 6492.4351 36.840676C6496.5598 24.067393 6500.2164 19.92314 6507.9021 19.310951C6517.2764 18.564262 6523.9245 26.602979 6526.33 41.593441C6527.3745 48.102294 6528.2529 50.353236 6531.2994 54.326596C6535.6519 60.003506 6535.8282 62.009132 6532.488 67.852074C6529.3466 73.347185 6529.3705 73.966991 6532.9277 79.237796C6536.4664 84.481143 6537.2915 87.548294 6536.2086 91.43484C6535.0427 95.619669 6533.446 95.659647 6530.8024 91.570204C6527.4777 86.427287 6525.1786 86.023456 6521.8594 89.999383C6519.9626 92.271406 6518.6133 93.065588 6517.4248 92.609515C6515.9209 92.032424 6515.7956 90.905892 6516.3777 83.194777C6516.904 76.223162 6516.7354 74.033979 6515.5513 72.467784C6513.4918 69.743601 6513.6426 66.137254 6516.0 61.738815C6517.1 59.686454 6518.0 56.837376 6518.0 55.407532C6518.0 50.909902 6514.8516 41.687434 6511.6307 36.75C6506.1576 28.360171 6504.0084 30.830492 6502.4059 47.353086C6501.0976 60.841814 6501.1626 63.861804 6502.9427 72.310616C6503.8882 76.798043 6505.1657 79.245714 6508.5526 83.059249C6511.2223 86.065156 6512.7129 88.584709 6512.3622 89.498633C6511.7188 91.175227 6510.0 91.547742 6510.0 90.010587C6510.0 89.466409 6507.8242 86.618564 6505.1649 83.682041C6500.7517 78.808882 6500.2289 77.695201 6499.1751 70.921454C6498.0808 63.887036 6498.1233 60.744477 6499.5295 44.737431C6500.1757 37.381318 6503.0916 29.562575 6505.5389 28.623449C6506.386 28.298388 6507.9139 28.553761 6508.9341 29.190944C6511.8074 30.985339 6516.7296 39.801595 6519.133 47.458517C6521.4089 54.709418 6521.2849 56.454657 6517.9073 64.705522C6516.741 67.554556 6516.847 68.518758 6518.86 73.375588C6521.0351 78.623248 6521.0631 79.048501 6519.5659 84.09013C6518.7084 86.977628 6518.2396 89.572926 6518.5241 89.857459C6518.8087 90.141992 6520.3175 88.84634 6521.877 86.978232L6524.7126 83.581672L6527.6063 85.44825C6529.1978 86.474867 6530.8599 87.918991 6531.2997 88.657414C6532.4901 90.655965 6534.0 90.280778 6534.0 87.986431C6534.0 85.696467 6532.5125 82.781066 6529.25 78.676984C6526.3705 75.054654 6526.4276 72.54346 6529.512 67.147926C6530.8804 64.754286 6532.0 62.211971 6532.0 61.498337C6532.0 60.784703 6530.2631 57.889216 6528.1402 55.063922C6524.7869 50.601131 6524.1936 48.993014 6523.6189 42.809604C6522.7858 33.845001 6520.2502 28.055334 6515.6059 24.51301C6511.0672 21.051173 6505.1816 20.622005 6501.9758 23.51913C6498.2764 26.862259 6494.7467 35.058166 6494.0166 42.0C6493.0885 50.824435 6494.5855 66.131457 6497.1307 73.841734C6498.9579 79.377064 6499.0844 80.902963 6498.1254 85.841734C6497.5211 88.95378 6497.2849 92.461713 6497.6005 93.637141C6498.4399 96.763758 6496.2085 97.551641 6494.865 94.603003Z M6505.0907 94.066188C6504.3156 93.581557 6503.0781 93.416551 6502.3407 93.699509C6501.4359 94.046689 6501.0 93.385458 6501.0 91.666006C6501.0 88.176643 6502.8008 87.356395 6505.1982 89.753791C6507.4694 92.024927 6507.3827 95.49924 6505.0907 94.066188Z"/>
</svg>
