<svg xmlns="http://www.w3.org/2000/svg"
     width="21.9" height="64.0"
     viewBox="1004.0752 13.9841 31.3901 91.8800">
  <path d="M1016.4113 99.109054C1012.6878 96.838464 1008.99 92.334915 1009.0266 90.115141C1009.0413 89.226814 1011.0663 85.834084 1013.5266 82.575742C1015.987 79.3174 1018.0 76.314883 1018.0 75.903482C1018.0 75.49208 1016.4293 73.207996 1014.5095 70.827739C1008.0752 62.850222 1008.0763 62.866325 1013.436 55.092814C1018.9112 47.151881 1018.8903 46.533164 1012.8628 38.087208C1010.7383 35.110173 1009.0 32.225415 1009.0 31.676636C1009.0 29.964274 1017.437 18.065043 1018.6748 18.031672C1020.4375 17.98415 1027.9683 26.045121 1029.5777 29.702168C1031.4653 33.991469 1030.3188 36.678382 1024.6025 41.362516C1018.9536 45.991373 1018.4265 49.580609 1022.8675 53.177522C1026.8798 56.42725 1029.2847 60.527761 1028.545 62.858248C1028.2035 63.934144 1026.3706 66.768677 1024.4718 69.157211C1022.573 71.545745 1021.015 74.250755 1021.0097 75.168345C1021.0044 76.085935 1023.025 79.209039 1025.5 82.108577C1031.0431 88.602512 1031.2921 91.578166 1026.75 97.04923C1023.1141 101.42883 1020.9293 101.86411 1016.4113 99.109054Z M1017.6708 62.25C1017.3769 58.5375 1017.1058 55.317756 1017.0683 55.095012C1016.9418 54.344607 1012.8239 58.460507 1011.8149 60.345818C1011.0095 61.850688 1011.4547 62.873879 1014.1037 65.607007C1015.9125 67.473153 1017.5752 69.0 1017.7987 69.0C1018.0222 69.0 1017.9646 65.9625 1017.6708 62.25Z M1019.0 88.5C1019.0 84.989919 1018.5793 81.858046 1018.0652 81.540283C1016.8794 80.807417 1012.0 87.122313 1012.0 89.389845C1012.0 91.546904 1016.6884 96.310637 1018.0084 95.49482C1018.5538 95.15775 1019.0 92.010081 1019.0 88.5Z M1017.0 30.325686L1017.0 23.651372L1014.5 26.0C1011.3186 28.98879 1011.1913 33.320157 1014.2225 35.443296C1015.4449 36.299483 1016.5699 37.0 1016.7225 37.0C1016.8751 37.0 1017.0 33.996559 1017.0 30.325686Z M1025.4517 37.457229C1027.6453 35.424181 1028.0602 34.371766 1027.5213 32.207229C1026.7128 28.959897 1021.4985 23.573888 1020.0374 24.476901C1017.9842 25.745863 1019.3133 40.0 1021.4848 40.0C1022.1575 40.0 1023.9426 38.855753 1025.4517 37.457229Z M1025.9382 63.684628C1027.0566 60.724773 1023.7054 55.0 1020.8544 55.0C1019.8992 55.0 1019.8328 64.060605 1020.7685 66.731686C1021.3909 68.508686 1024.8961 66.442729 1025.9382 63.684628Z M1024.8937 95.25C1027.7191 92.518384 1028.0594 89.345215 1025.8307 86.511888C1022.7384 82.58072 1021.531 83.3818 1021.2275 89.5659C1020.8568 97.120328 1021.6643 98.372239 1024.8937 95.25Z"/>
</svg>
