<svg xmlns="http://www.w3.org/2000/svg"
     width="40.1" height="64.0"
     viewBox="7310.0000 17.7152 53.5831 85.5723">
  <path d="M 7315.75 82.28125 L 7315.5 82.5 L 7317.5 88.5 L 7317.2812 89 L 7322.7812 89.5625 C 7329.2341 90.198342 7329.7632 90.07728 7332.9375 87.40625 C 7336.9926 83.994149 7339.0071 79.497032 7339.0312 73.78125 C 7339.0412 71.426084 7340.1894 63.2 7341.5938 55.5 C 7342.9981 47.8 7344.49 39.633701 7344.9062 37.34375 C 7345.6696 33.145463 7347.4859 29.670266 7350.5 26.65625 C 7352.7953 24.360871 7355.7431 26.115021 7356.5 30.25 C 7356.8259 32.030816 7356.2007 38.050093 7355.0938 43.625 C 7352.4764 56.806659 7352.2389 65.588047 7354.375 69.71875 C 7356.2907 73.423226 7356.4928 77 7354.8125 77 C 7354.1651 77 7352.4198 75.556862 7350.9375 73.78125 C 7348.6492 71.04024 7348.011 70.745371 7346.6875 71.84375 C 7345.8302 72.555274 7344.6732 75.328854 7344.0938 78.03125 C 7342.4958 85.481858 7339.052 92.016166 7335.5938 94.125 C 7333.4347 95.441602 7330.6977 95.97923 7326.5 95.9375 C 7318.902 95.861966 7316.3044 94.790997 7316.0938 91.8125 L 7316 92 L 7314 95 L 7314 95.3125 C 7314.3943 95.276259 7314.7853 95.400846 7315.2812 95.8125 C 7316.1106 96.500789 7319.6545 97.534843 7323.125 98.09375 C 7330.5371 99.287435 7335.9416 97.748291 7340.2812 93.21875 C 7342.9638 90.418822 7346 83.313424 7346 79.8125 C 7346 78.745492 7346.4556 76.981829 7347.0312 75.90625 C 7348.0275 74.044854 7348.2052 74.092949 7350.625 76.96875 C 7353.3047 80.153389 7355.8165 80.808497 7357.8125 78.8125 C 7359.5831 77.041908 7359.2751 73.485376 7356.875 67.90625 C 7354.9018 63.319441 7354.828 62.295797 7355.8438 54.21875 C 7356.4475 49.418031 7357.4405 43.025 7358.0625 40 C 7359.5019 33.00011 7358.7639 26.036446 7356.4062 24.3125 C 7352.8541 21.715169 7350.2506 22.748056 7346.0938 28.375 C 7341.5422 34.536266 7340.5698 38.317889 7338.4062 58 C 7336.499 75.34942 7334.8528 81.085488 7330.9062 84.40625 C 7327.3454 87.402444 7325.5111 87.580086 7320.1562 85.4375 C 7318.5387 84.790259 7317.104 83.681911 7315.75 82.28125 z "/>
</svg>
