<svg xmlns="http://www.w3.org/2000/svg"
     width="46.0" height="64.0"
     viewBox="7670.5000 16.0293 41.5271 57.8114">
  <path d="M 7679.3125 53.3125 L 7677 57.75 C 7677.8896 57.21573 7678.8504 57.450893 7681.3125 58.625 C 7688.6217 62.110511 7692.2096 57.606542 7693.4062 43.5 C 7694.2428 33.637776 7695.7284 28.185897 7698.3438 25.25 C 7700.8889 22.393128 7701.5783 22.424127 7703.5938 25.5 C 7705.1169 27.824493 7705.0946 28.533741 7703.4688 35.4375 C 7702.4248 39.870582 7701.9294 44.895697 7702.2188 47.90625 C 7702.6333 52.220315 7702.4271 53.050039 7700.8125 53.5625 C 7699.7736 53.892212 7697.8824 55.824861 7696.5938 57.84375 C 7695.3053 59.862639 7693.1422 62.520962 7691.8125 63.75 C 7688.2121 67.077705 7684.1655 67.434458 7679.7812 64.84375 C 7677.0628 63.237386 7675.7753 61.818869 7675.5625 60.5 L 7674.5 62.5 L 7677.4688 67.15625 L 7680.75 68.53125 C 7682.8399 69.404484 7685.5959 69.84071 7687 69.5 C 7691.0109 68.526751 7696.7462 64.303015 7698.1875 61.28125 C 7699.2451 59.064049 7700.3095 58.439774 7703.375 58.1875 C 7707.1154 57.879695 7707.1885 57.78301 7706.5938 54.6875 C 7704.9469 46.115417 7704.9289 42.937483 7706.4375 35.65625 C 7708.0271 27.983794 7708.0014 27.745697 7705.9375 24.40625 C 7703.2507 20.058845 7700.6334 20.029265 7696.5938 24.3125 C 7693.0211 28.100623 7691.3563 33.747532 7690.375 45.3125 C 7689.4328 56.416627 7686.4486 59.243598 7680.0625 55.09375 C 7679.6452 54.822561 7679.4456 54.132488 7679.3125 53.3125 z "/>
</svg>
