<svg xmlns="http://www.w3.org/2000/svg"
     width="54.1" height="64.0"
     viewBox="3608.2257 9.3525 81.5428 96.5096">
  <path d="M 3677.0312 88.09375 C 3676.0766 87.929767 3675.1503 87.547516 3674.25 87 C 3669.2602 83.965518 3661.216 75.243014 3660.5312 72.125 C 3659.4446 67.177311 3664.6177 59 3668.8438 59 C 3670.6308 59 3673.8039 65.415334 3674.5312 70.5 C 3675.46 76.992989 3675.5023 77.019523 3679.0312 75.6875 C 3685.7685 73.144511 3685.5655 57.721723 3678.7188 50.875 C 3675.1673 47.323632 3669.8398 47.020128 3663.9375 50.03125 C 3661.7405 51.152051 3659.4998 51.79701 3658.9688 51.46875 C 3657.4718 50.543605 3657.8304 40.339813 3659.5 36.34375 C 3660.9664 32.834218 3661.0855 32.798942 3665.3438 33.4375 C 3670.7115 34.242428 3673.8651 32.051653 3674.1875 27.34375 C 3674.6309 20.868294 3669.2644 19.030135 3663.2812 23.59375 C 3658.8167 26.998985 3656.6804 26.202172 3657.5625 21.5 C 3658.2512 17.82916 3656.8649 16.645715 3655.25 19.53125 C 3653.9745 21.810579 3651.4132 20.347056 3650.2812 16.6875 C 3649.2497 13.352483 3648.7545 13.827743 3647.5312 19.375 L 3646.9062 22.25 L 3644.625 20.125 C 3641.7099 17.386387 3640.6391 18.436902 3642.5625 22.15625 C 3644.5238 25.949002 3642.8485 26.716852 3636.9375 24.71875 C 3631.7994 22.981902 3629.1887 23.50487 3627.7812 26.59375 C 3626.9671 28.380599 3627.0923 29.481523 3628.3125 31.34375 C 3630.108 34.083949 3634.7495 35.65683 3636.3438 34.0625 C 3636.9243 33.482055 3638.4126 33 3639.6562 33 C 3641.5156 33 3642.2034 33.926767 3643.4688 38.1875 C 3645.1759 43.936429 3645.4408 49.77886 3644.0938 51.90625 C 3643.3647 53.057644 3642.7045 52.927244 3640.3438 51.25 C 3636.7274 48.680546 3630.3493 46 3627.8438 46 C 3621.3226 46 3612.2257 67.96673 3615.9062 74.84375 C 3618.139 79.015651 3620.5372 77.511184 3622.4062 70.75 C 3624.0858 64.674946 3628.8578 58 3631.5312 58 C 3632.1601 58 3634.8006 60.716061 3637.375 64.03125 C 3642.6715 70.851555 3642.7247 70.254293 3635.5938 79.4375 C 3631.1743 85.128862 3629.8758 89.167904 3632.0312 90.5 C 3632.5935 90.847459 3634.852 93.601536 3637.0625 96.59375 C 3640.4463 101.17428 3641.3852 101.86204 3642.9375 101.03125 C 3645.4359 99.694137 3646.3095 95.499621 3644.9688 91.4375 C 3643.7115 87.627879 3644.4088 85.82616 3648.5 82 L 3651.1562 79.5 L 3654.125 83 C 3661.2618 91.402491 3663.983 93.82437 3669.5 96.8125 C 3672.5472 98.462944 3675.8793 99.761687 3677.3438 99.90625 L 3677.2812 97.125 C 3676.0265 97.113045 3675.1004 96.682226 3674.7188 95.6875 C 3674.4433 94.969822 3672.3408 93.783169 3670.0625 93.03125 C 3666.9725 92.011473 3664.2428 89.715137 3659.3125 84.0625 C 3655.6771 79.894598 3652.2951 76.323063 3651.7812 76.125 C 3650.5452 75.648695 3645.3948 80.640177 3642.8125 84.8125 C 3641.1142 87.556576 3640.9445 88.582746 3641.875 90.625 C 3642.4948 91.985433 3643 93.988379 3643 95.0625 C 3643 96.136621 3642.6316 97 3642.1875 97 C 3641.5353 97 3635.2465 89.059079 3634.2188 86.9375 C 3634.0718 86.634245 3636.4704 83.060047 3639.5312 78.96875 C 3645.993 70.331693 3646.0205 69.098181 3639.9375 62.1875 C 3637.7708 59.726001 3636 57.373002 3636 56.9375 C 3636 55.26763 3631.9566 54.973186 3629.125 56.4375 C 3624.9441 58.599505 3622.2082 62.443918 3620.375 68.75 C 3619.2781 72.523079 3618.4721 73.878347 3617.75 73.15625 C 3615.5431 70.949401 3619.8009 56.499374 3624.3438 50.75 C 3625.8373 48.859785 3630.4936 48.371571 3631.5 50 C 3631.8399 50.55 3632.9373 51 3633.9375 51 C 3634.9377 51 3636.2935 51.655162 3636.9688 52.46875 C 3637.6439 53.282338 3639.6136 54.652487 3641.3125 55.5 C 3645.3845 57.531381 3646.8528 56.096691 3647.6562 49.3125 C 3648.0988 45.575669 3647.6912 42.504149 3646.125 37.65625 C 3643.4124 29.259779 3643.4224 28.901542 3646.875 25.59375 C 3650.1513 22.454891 3651.5809 22.873421 3655.9062 28.21875 C 3658.094 30.922284 3658.202 31.529149 3657.0938 34.59375 C 3655.3085 39.531047 3654.2312 51.381805 3655.3438 53.875 C 3656.5012 56.468991 3658.3501 56.569591 3661.8438 54.21875 C 3669.8798 48.81154 3672.9411 48.819826 3677.375 54.3125 C 3680.1017 57.690185 3680.4527 58.878571 3680.4688 64.59375 C 3680.4819 69.27179 3680.0855 71.32214 3679 72 C 3677.7831 72.759931 3677.3113 72.043268 3676.5 68.1875 C 3675.3403 62.675679 3671.8828 57.421914 3668.7812 56.4375 C 3665.855 55.508763 3659.5344 62.270454 3658 67.96875 C 3656.9852 71.737668 3657.1222 72.552906 3659.3438 76.34375 C 3660.6985 78.655328 3664.6325 82.985496 3668.0625 85.96875 C 3672.7659 90.059612 3674.5525 91.11557 3677.125 91.25 L 3677.0312 88.09375 z M 3668.9375 24.28125 C 3669.9203 24.555023 3670.5 25.637623 3670.5 27.5 C 3670.5 31.026339 3667.6803 31.986411 3664.5 29.53125 C 3662.5261 28.007331 3662.5163 27.990859 3664.9062 25.96875 C 3666.5622 24.567645 3667.9547 24.007477 3668.9375 24.28125 z M 3632.5625 26.25 C 3633.3222 26.351034 3634.3196 26.722693 3635.6875 27.375 C 3638.5597 28.744678 3639.055 29.355437 3637.9375 30.0625 C 3633.9635 32.576974 3627.8639 29.72991 3630.8438 26.75 C 3631.259 26.33482 3631.8028 26.148966 3632.5625 26.25 z "/>
</svg>
