<svg xmlns="http://www.w3.org/2000/svg"
     width="34.4" height="64.0"
     viewBox="1581.5312 21.1038 45.8235 85.3286">
  <path d="M 1588.4062 90.78125 L 1587.5625 94.15625 C 1588.9396 94.621875 1590.2147 95 1591.0312 95 C 1594.3461 95 1598.6652 92.305101 1601.6875 88.34375 L 1604.5 84.65625 L 1604.7188 64.03125 C 1604.88 47.703978 1605.2184 42.80671 1606.4375 40.46875 C 1607.2845 38.844361 1607.9967 37.136697 1608 36.6875 C 1608.0167 34.473837 1613.4191 29 1615.5938 29 C 1619.9839 29 1619.9306 33.026486 1615.1875 55 C 1614.0596 60.225 1613.2567 66.3 1613.4062 68.5 C 1613.5558 70.7 1613.7544 74.364251 1613.8438 76.625 C 1613.9433 79.144726 1614.9675 82.147969 1616.5 84.40625 C 1620.6308 90.493353 1618.9476 92.229653 1613.75 87.25 L 1610.875 84.53125 L 1605.1875 90.6875 C 1600.3114 95.966958 1598.7387 97.003954 1594.2812 98 C 1591.2731 98.672184 1588.7907 98.804732 1586.4375 98.4375 L 1585.5312 102 C 1588.6416 102.4324 1591.2116 102.16771 1598.8125 100.46875 C 1601.0222 99.974838 1603.4768 98.126844 1606.2188 94.875 C 1610.7796 89.466019 1611.7949 89.096261 1614.2812 92 C 1616.3229 94.38441 1618.3224 94.552532 1620.375 92.5 C 1623.3547 89.520225 1623.3051 87.108932 1620.2188 83.59375 C 1615.9329 78.712428 1615.0884 67.950883 1618 55.46875 C 1622.8637 34.618223 1623.0496 28.743802 1618.9062 26.15625 C 1617.2274 25.107714 1616.1897 25.103751 1613.875 26.0625 C 1610.939 27.278668 1605 34.93203 1605 37.5 C 1605 38.264968 1604.6126 39.136115 1604.125 39.4375 C 1602.4041 40.501076 1601.7444 47.685939 1601.8438 64.84375 C 1601.9546 83.99356 1601.4765 86.118431 1595.9375 90.0625 C 1593.0659 92.107301 1592.5054 92.1769 1588.75 90.9375 C 1588.6267 90.89682 1588.5324 90.825544 1588.4062 90.78125 z "/>
</svg>
