<svg xmlns="http://www.w3.org/2000/svg"
     width="40.4" height="64.0"
     viewBox="2560.5000 19.0567 49.3893 78.2047">
  <path d="M 2564.8125 68.0625 L 2564.5 68.5 L 2566.5312 76.4375 C 2566.5574 76.375 2566.4902 76.166072 2566.5312 76.125 C 2566.7987 75.85757 2568.2433 76.838023 2569.75 78.28125 C 2573.3274 81.707776 2579.6683 84.304587 2582.625 83.5625 C 2588.322 82.132636 2589.933 71.57625 2586.125 60.5 C 2582.4739 49.880399 2583.7877 36.896243 2589.0938 31.21875 C 2592.5659 27.50345 2596.3859 26.984111 2598 30 C 2599.6017 32.992848 2599.0624 45.226055 2596.8438 56.4375 C 2594.6248 67.650706 2594.9853 72.001948 2598.5938 78.3125 C 2601.6966 83.738529 2601.6249 84.373475 2598.0625 82.53125 C 2594.0046 80.432829 2592.7416 80.592264 2589.9375 83.59375 C 2588.6041 85.021008 2586.2976 86.821008 2584.8125 87.59375 C 2581.4426 89.347104 2575.2499 89.342971 2572.0938 87.59375 C 2570.8321 86.894492 2568.9912 83.763083 2567.7188 80.90625 L 2568.5 84 L 2573 91 L 2574.5625 92.34375 C 2574.8125 92.080007 2575.3003 92.106501 2576.25 92.34375 C 2579.9235 93.261432 2585.9356 91.391853 2590.1562 88 C 2593.7345 85.124409 2594.3945 84.933751 2596.9688 86 C 2600.4513 87.442514 2603.9684 87.007145 2605.2188 85 C 2605.8893 83.923462 2605.1647 81.826433 2602.5938 77.5625 C 2599.5574 72.526892 2599 70.731739 2599 65.71875 C 2599 62.465784 2599.6346 57.260639 2600.4062 54.15625 C 2602.5668 45.462949 2603.3143 34.419889 2602 30.4375 C 2599.7246 23.542999 2593.6666 23.056698 2587.5 29.25 C 2583.843 32.922821 2583.1074 34.405705 2582.125 40.09375 C 2580.496 49.52589 2580.7197 52.515631 2583.5938 61.5 C 2586.4407 70.39978 2586.2596 76.541092 2583.0938 79.40625 C 2581.409 80.930901 2580.988 80.923248 2576.9062 79.09375 C 2574.4902 78.010827 2570.7202 75.423283 2568.5312 73.34375 C 2566.2572 71.183373 2565.3179 69.992888 2564.8125 68.0625 z "/>
</svg>
