<svg xmlns="http://www.w3.org/2000/svg"
     width="40.7" height="64.0"
     viewBox="3035.5000 15.1696 55.8551 87.8304">
  <path d="M 3042.2812 77.5 L 3041.1562 83.0625 C 3041.8114 81.65189 3042.6958 82.003102 3044.5312 84.03125 C 3047.8457 87.693662 3052.7822 90.1433 3056.1875 89.8125 C 3058.749 89.563662 3060.0743 88.575133 3062.4062 85.09375 C 3065.6185 80.29799 3065.8693 76.868898 3064.2188 61.5 C 3063.1925 51.945308 3064.21 45.300783 3067.875 37.46875 C 3073.0498 26.410512 3078.3536 23.943021 3080.8125 31.46875 C 3081.9495 34.948791 3081.8191 36.781082 3079.9375 45.96875 C 3077.888 55.975878 3077.7328 64.081116 3079.4688 68.1875 C 3080.0749 69.621481 3079.4417 69.92622 3075.3438 70.1875 L 3070.5 70.5 L 3069.875 75.5 C 3069.0834 81.963378 3065.5966 90.078976 3062.1562 93.375 C 3057.9747 97.381043 3054.3768 97.614693 3048.4375 94.3125 C 3041.716 90.575383 3040.1605 89.803029 3040.0938 88.0625 L 3039.5 91 L 3039.5938 92.25 L 3045.5312 95.40625 C 3049.2621 97.386165 3053.6415 99 3055.2812 99 C 3062.4791 99 3068.6577 91.664547 3071.8438 79.34375 L 3073.625 72.5 L 3078.8125 72.84375 C 3083.3249 73.140735 3083.9995 72.943837 3083.9688 71.34375 C 3083.9492 70.330728 3083.286 68.375 3082.5 67 C 3080.638 63.742749 3080.6224 56.218948 3082.4688 49.09375 C 3087.3551 30.236884 3081.7092 19.169574 3071.6875 27.96875 C 3064.5164 34.265125 3059.6336 51.558377 3061.875 62.71875 C 3063.7473 72.041716 3063.3412 79.193175 3060.7188 83.09375 C 3057.9431 87.222607 3055.3463 87.744857 3050.3125 85.15625 C 3046.0819 82.980679 3043.7912 80.830747 3042.2812 77.5 z "/>
</svg>
