<svg xmlns="http://www.w3.org/2000/svg"
     width="44.7" height="64.0"
     viewBox="5719.7680 16.4267 63.4576 90.8521">
  <path d="M5753.8107 95.75C5752.3769 92.8625 5750.9154 89.528137 5750.5631 88.340305C5750.2108 87.152473 5749.2155 85.593776 5748.3512 84.876534C5746.6916 83.499152 5744.63 85.280521 5737.7687 94.02074C5735.1016 97.418185 5735.001 97.453428 5733.4899 95.519457C5730.7052 91.955566 5734.2206 82.647504 5740.4005 77.221483L5743.9189 74.132328L5739.4682 71.316592C5735.4551 68.777761 5732.0 63.532795 5732.0 59.979764C5732.0 57.895581 5736.7619 59.158362 5741.867 62.596361C5748.5534 67.099261 5749.4903 66.402789 5748.5506 57.627909L5747.8521 51.104966L5740.9073 51.233741C5732.5378 51.388934 5729.6674 49.72456 5726.1273 42.663572C5723.7724 37.966514 5723.768 37.895793 5725.5388 33.215545C5727.7177 27.456861 5733.849 20.998554 5737.1324 21.003738C5739.2383 21.007063 5742.0319 22.44518 5747.0931 26.131507C5748.3578 27.052652 5749.2855 26.856882 5751.5931 25.181837C5755.9141 22.045353 5763.1055 20.426675 5767.6893 21.558818C5770.6579 22.292018 5772.2182 23.574628 5774.75 27.363014C5779.0118 33.73995 5779.2256 40.232905 5775.3895 46.778755C5772.7826 51.227074 5772.7726 51.232431 5768.1395 50.658326C5765.5878 50.342131 5762.2625 49.787196 5760.75 49.425136L5758.0 48.766846L5758.0 55.883423C5758.0 60.647524 5758.3865 63.0 5759.1691 63.0C5759.8122 63.0 5762.7304 61.65 5765.654 60.0C5768.5776 58.35 5771.8765 57.0 5772.9849 57.0C5776.2985 57.0 5775.5731 62.095943 5771.5 67.432057C5769.575 69.953944 5768.0 72.384971 5768.0 72.834339C5768.0 73.283707 5769.1688 74.742313 5770.5973 76.075686C5775.4076 80.565592 5777.9624 87.328548 5776.393 91.418213C5775.4384 93.905794 5773.7921 93.307184 5769.7379 88.998356C5764.3192 83.239422 5764.214 83.299962 5761.9856 93.459105C5759.9811 102.59731 5757.5494 103.27876 5753.8107 95.75Z M5755.2223 55.981514C5754.9091 46.411762 5756.2766 42.998429 5759.6583 44.909039C5761.9161 46.18463 5768.9878 49.0 5769.9341 49.0C5771.6335 49.0 5775.1659 42.51669 5775.6586 38.492977C5776.2517 33.650629 5773.8445 28.405321 5769.6955 25.499255C5765.4411 22.519391 5755.7024 24.356453 5751.5747 28.917446C5750.5381 30.062851 5749.194 31.0 5748.5878 31.0C5747.9041 31.0 5747.6144 32.61958 5747.8248 35.265455C5748.1 38.725067 5747.6853 40.047529 5745.6298 42.265455C5742.0786 46.097249 5737.9692 45.940489 5734.5202 41.841666C5731.3624 38.088862 5731.7233 34.991886 5735.8203 30.685416C5738.0441 28.347901 5739.049 27.974208 5741.749 28.480729C5746.3027 29.335009 5745.866 27.48245 5740.9188 24.95855C5737.1398 23.030671 5736.6593 22.993214 5734.4316 24.452851C5731.2453 26.540572 5728.0 33.068045 5728.0 37.38896C5728.0 39.953698 5728.8777 41.788222 5731.3681 44.428798C5734.3428 47.582965 5735.3063 47.998212 5739.6181 47.984687C5742.3031 47.976265 5745.1342 47.567899 5745.9093 47.077207C5746.6844 46.586516 5747.8981 46.407416 5748.6064 46.679209C5749.8335 47.150072 5752.0957 55.83171 5751.8169 59.0C5751.4402 63.28138 5752.0576 65.135396 5753.75 64.804838C5755.2792 64.506152 5755.465 63.392957 5755.2223 55.981514Z M5744.548 39.567058C5746.2051 37.037987 5745.6218 34.590751 5742.8046 32.252891C5740.9275 30.695163 5735.0 33.335385 5735.0 35.72922C5735.0 41.366593 5741.6243 44.029234 5744.548 39.567058Z M5746.6883 70.435149C5746.8606 69.918231 5744.3012 67.807328 5741.0008 65.744254C5737.7004 63.68118 5735.0 62.406494 5735.0 62.911618C5735.0 64.294909 5744.1891 72.103636 5745.3583 71.713904C5745.9175 71.527507 5746.516 70.952067 5746.6883 70.435149Z M5760.3147 88.8038C5761.1731 85.395891 5761.6703 82.27552 5761.4194 81.869644C5761.1686 81.463768 5759.4025 81.384978 5757.4948 81.694554C5754.74 82.141604 5753.3075 81.709153 5750.5328 79.592844C5747.2836 77.114517 5746.8456 77.028466 5744.2673 78.361754C5742.7427 79.150172 5740.726 80.645282 5739.7858 81.684219C5737.8574 83.815011 5734.6496 90.982891 5735.3229 91.656267C5735.565 91.898319 5737.9154 89.57694 5740.5462 86.497646C5747.1421 78.777058 5749.2938 79.060748 5753.8377 88.25C5755.6735 91.9625 5757.5306 95.0 5757.9647 95.0C5758.3987 95.0 5759.4562 92.21171 5760.3147 88.8038Z M5759.8195 77.357967C5761.7456 73.916313 5758.3825 68.0 5754.5 68.0C5751.3781 68.0 5748.6256 71.372051 5749.3597 74.297192C5750.3853 78.383313 5757.9989 80.611234 5759.8195 77.357967Z M5759.0 41.0C5755.8159 37.815941 5756.33 32.499171 5760.1602 29.000817C5763.1123 26.304547 5763.4996 26.206997 5766.0391 27.520203C5769.228 29.169289 5770.0 30.80766 5770.0 35.9268C5770.0 42.415083 5763.4404 45.44038 5759.0 41.0Z M5766.8 38.8C5768.4827 37.117251 5768.2936 33.436476 5766.4286 31.571429C5764.1029 29.245728 5761.1176 29.647695 5759.8367 32.459036C5757.7259 37.091803 5763.3692 42.230782 5766.8 38.8Z M5768.1907 67.25C5769.6014 65.7375 5771.2764 63.4875 5771.913 62.25C5773.5294 59.107529 5771.9582 59.30497 5765.3749 63.071597C5760.6878 65.753251 5760.1373 66.388009 5761.0383 68.071597C5762.4879 70.780146 5765.1874 70.470053 5768.1907 67.25Z M5772.7004 83.785757C5770.3498 78.839397 5765.2872 74.312757 5763.7854 75.814562C5762.8503 76.749731 5763.7805 78.227411 5767.9834 82.483229C5770.9531 85.490239 5773.5806 87.752743 5773.8223 87.511017C5774.064 87.269291 5773.5592 85.592924 5772.7004 83.785757Z"/>
</svg>
