<svg xmlns="http://www.w3.org/2000/svg"
     width="27.4" height="64.0"
     viewBox="1644.0000 17.4561 37.9661 88.8283">
  <path d="M 1648.0312,79.34375 1648,79.5 1648.4062,85.375 C 1648.8045,84.41999 1649.7757,84.900587 1654.2812,87.5625 1660.5263,91.252176 1663.1154,91.776503 1664.875,89.65625 1668.6171,85.147381 1669.3798,54.569719 1666.0625,42.25 1664.7851,37.506 1662.6474,36.346161 1659.3125,38.53125 1656.4468,40.408922 1657.272,42.388358 1660.5625,41.5625 1662.5968,41.051929 1663.0527,41.486869 1663.9688,44.75 1666.6759,54.393457 1666.3937,82.690627 1663.5625,86.5625 1662.3588,88.208625 1661.8439,88.07795 1655.7812,84.6875 1652.2119,82.691445 1648.7769,80.441748 1648.125,79.65625 1648.0891,79.613003 1648.0652,79.399701 1648.0312,79.34375 z M 1648.5938,88 1649,94 1649.75,96.25 C 1650.2591,96.098245 1650.7977,96.385206 1651.7188,97.21875 1652.7398,98.142708 1655.1226,99.57839 1657.0312,100.40625 1661.3613,102.28438 1661.7355,102.27143 1665.9688,100.1875 1668.6329,98.875894 1669.8033,97.38515 1671.1562,93.59375 1677.9661,74.508654 1674.5679,25.202512 1666.25,22.5625 1662.764,21.456086 1652,26.388329 1652,29.09375 1652,29.533204 1654.3625,28.813075 1657.25,27.46875 1660.1375,26.124426 1663.2949,25.005373 1664.25,25 1666.1678,24.989211 1668.4708,29.719743 1670.125,37 1672.6441,48.086092 1671.9437,79.401244 1668.9062,91.21875 1667.8166,95.457833 1664.7824,98 1660.8438,98 1657.6225,98 1650.3785,91.729351 1648.5938,88 z M 1662.3438,30.75 C 1661.0891,30.039935 1655,32.842204 1655,34.125 1655,34.827823 1656.0017,34.959866 1657.75,34.53125 1660.8443,33.772627 1663.6317,31.478911 1662.3438,30.75 z"/>
</svg>
