<svg xmlns="http://www.w3.org/2000/svg"
     width="49.1" height="64.0"
     viewBox="3376.8125 39.2500 51.7943 67.5063">
  <path d="M 3390.4375 43.875 C 3390.1592 45.024527 3389.0161 46.644794 3386.125 49.96875 L 3380.8125 56.0625 L 3382.7812 60.28125 C 3388.1776 71.907665 3389.0483 83.112152 3385.4688 94.75 C 3384.3713 98.317781 3386.8939 97.466875 3388.4375 93.75 C 3391.1266 87.274579 3391.3257 78.178706 3388.9688 69.5 C 3387.7737 65.1 3386.1791 60.499399 3385.4062 59.28125 C 3383.37 56.072054 3383.5487 55.638904 3388.5938 50.59375 C 3392.8083 46.379265 3396 44.741738 3396 46.84375 C 3396 47.316316 3397.7668 49.721402 3399.9375 52.1875 L 3403.9062 56.6875 L 3402.875 63.59375 C 3401.2124 74.963881 3401.5774 92.705524 3403.5312 95.6875 C 3405.6672 98.94749 3407.4869 97.422347 3406.0312 93.59375 C 3404.3749 89.237182 3404.2557 64.741562 3405.875 62.1875 C 3406.5635 61.101518 3407.3789 61.146474 3410.4688 62.4375 C 3416.4754 64.947265 3420.2647 64.507394 3422.2812 61.09375 C 3424.6068 57.157029 3424.4371 55.276369 3421.4375 51.34375 C 3418.2808 47.205058 3416.4484 47.169492 3411.0312 51.09375 L 3406.7812 54.15625 L 3403.8125 51.34375 C 3400.8226 48.501989 3398.9169 45.332839 3398.75 43.25 L 3392 44 L 3390.4375 43.875 z M 3415.625 51 C 3419.1245 51 3421.5784 60.188969 3418.4062 61.40625 C 3416.4762 62.146884 3417.2752 62.312275 3412.25 60.03125 C 3409.9125 58.97022 3408 57.765331 3408 57.375 C 3408 56.22268 3414.2499 51 3415.625 51 z M 3396.2188 94 C 3394.5575 94 3388 99.733402 3388 101.1875 C 3388 102.75627 3389.6687 101.95388 3392.4688 99.03125 L 3395.3125 96.0625 L 3398.2188 98.53125 C 3401.1656 101.01088 3404 101.78162 3404 100.09375 C 3404 98.673534 3398.0332 94 3396.2188 94 z "/>
</svg>
