<svg xmlns="http://www.w3.org/2000/svg"
     width="64.0" height="55.9"
     viewBox="6941.7847 15.7071 96.0506 83.9634">
  <path d="M6975.8332 92.661533C6972.419 90.344593 6972.3557 90.33999 6968.9592 92.161533C6964.5984 94.500278 6960.766 94.503896 6958.655 92.171259C6956.0674 89.312049 6956.7296 85.950665 6960.905 80.75C6962.9113 78.250976 6964.7437 78.567758 6968.7797 82.111398L6972.3233 85.222795L6974.1588 82.861398C6976.4362 79.931273 6978.456 73.630602 6977.7268 71.73052C6976.8651 69.484826 6969.0123 67.664612 6965.6692 68.935652C6952.7164 73.860331 6945.7847 63.868115 6950.6187 47.239799C6952.1102 42.10903 6952.1102 41.4566 6950.6187 38.931599C6947.2799 33.279548 6949.8145 26.365108 6956.7053 22.326797L6961.1504 19.721804L6963.8252 21.707301C6967.241 24.242806 6968.9666 27.623358 6968.9853 31.815741C6968.9995 35.025015 6967.5288 38.952879 6965.9133 40.020066C6965.4803 40.306103 6964.1977 42.70591 6963.063 45.352972C6960.7451 50.760407 6960.3687 56.473358 6962.25 57.690983C6962.9375 58.135942 6967.1 58.5 6971.5 58.5C6980.5522 58.5 6982.1138 57.526958 6984.0381 50.687481C6985.0197 47.198711 6984.9057 46.713665 6982.696 44.975502C6981.3679 43.930799 6979.7233 41.08346 6979.0415 38.648083C6977.2573 32.275834 6979.4584 28.028768 6986.6891 23.891789C6993.2183 20.156174 6995.285 20.919382 6993.1126 26.263966C6990.8129 31.921972 6990.6918 33.667741 6992.5494 34.380566C6993.7923 34.857513 6995.4441 33.773532 6998.4294 30.521921C7000.7128 28.034864 7003.1049 26.0 7003.7452 26.0C7005.5663 26.0 7006.3852 32.7711 7005.0877 37.101535C7004.402 39.390168 7002.0918 42.769516 6999.5138 45.255073C6995.3971 49.224049 6993.0 53.349084 6993.0 56.464133C6993.0 57.984657 7000.1492 62.0 7002.8565 62.0C7005.123 62.0 7007.9296 58.884871 7011.4055 52.511164C7013.9279 47.885835 7014.0383 47.208283 7012.9194 43.212291C7009.7029 31.723806 7020.8305 19.707104 7027.7007 27.25C7033.8353 33.985229 7033.4726 44.194924 7026.9457 48.5C7025.2781 49.6 7023.0742 52.376636 7022.0483 54.670301C7019.2912 60.834334 7013.7169 69.0 7012.266 69.0C7010.5542 69.0 7010.6681 68.279005 7012.8733 65.15437C7013.9037 63.694467 7016.1953 59.575 7017.9659 56.0C7019.7364 52.425 7022.7909 48.116807 7024.7536 46.426237C7027.9363 43.684772 7028.3144 42.842771 7028.2508 38.637721C7028.1744 33.584827 7026.2627 29.746164 7022.9361 27.96579C7020.2071 26.505292 7018.5902 27.887714 7016.439 33.520685C7015.008 37.267597 7014.9471 38.610952 7016.0077 43.032106C7017.1301 47.710668 7017.0633 48.423056 7015.2763 50.840191C7014.1948 52.303086 7012.5125 55.075 7011.538 57.0C7007.6531 64.67371 7002.2567 67.174129 6997.4411 63.531803C6996.3735 62.724295 6994.3106 62.049295 6992.857 62.031803C6989.2668 61.988602 6988.6474 59.724635 6990.4909 53.383157C6991.6857 49.273236 6993.0431 47.227628 6996.4839 44.351456C7000.9182 40.644872 7003.0 36.810775 7003.0 32.350777C7003.0 31.05785 7002.55 30.0 7002.0 30.0C7001.45 30.0 7001.0 30.490368 7001.0 31.089707C7001.0 32.469326 6997.2143 35.771637 6994.1845 37.034864C6992.6318 37.682278 6991.1916 37.637719 6989.8124 36.899591C6988.0519 35.9574 6987.8426 35.165358 6988.3587 31.399448C6989.0232 26.551515 6988.0638 25.866152 6984.3017 28.501242C6979.8136 31.644816 6980.8973 40.269133 6986.1325 43.070908C6987.9549 44.046218 6988.1616 44.80446 6987.6408 48.603751C6986.9813 53.415323 6984.0412 59.890989 6981.594 61.922005C6980.3997 62.913163 6979.3108 62.955385 6976.8717 62.105107C6972.9207 60.727798 6968.0 60.6695 6968.0 62.0C6968.0 63.941382 6962.103 63.026448 6959.9434 60.75C6956.7 57.331057 6957.7196 48.981691 6962.4035 40.606215C6966.4114 33.439441 6966.7237 31.300065 6964.4139 26.833472C6962.988 24.076104 6962.4739 23.82369 6959.3247 24.334742C6954.4725 25.122145 6953.2025 26.466698 6952.4271 31.637552C6951.855 35.452324 6952.0905 36.467399 6954.0249 38.526468C6955.6643 40.271606 6956.0082 41.296183 6955.2648 42.220685C6953.8199 44.017604 6951.0393 56.87964 6951.6675 58.860467C6953.6134 64.99636 6954.3377 65.972534 6957.3612 66.534803C6959.2201 66.880503 6962.0037 66.487845 6964.1878 65.571819C6970.2842 63.014966 6978.1011 65.505462 6980.0474 70.624754C6980.7891 72.575399 6980.44 74.558655 6978.5028 79.400915C6975.8516 86.027875 6975.3105 90.0 6977.059 90.0C6977.6415 90.0 6977.9054 90.344018 6977.6456 90.764484C6976.5385 92.555767 6985.9255 90.997524 6990.6452 88.606551C6996.8943 85.440787 6998.9188 85.361711 7002.4574 88.145174C7006.2935 91.162636 7010.8867 91.981775 7014.3429 90.264813C7017.5698 88.66182 7018.3376 88.956599 7017.3872 91.433476C7015.9056 95.294416 7007.1136 95.532027 7001.8456 91.8535C6998.2886 89.369717 6995.3559 89.534824 6990.1479 92.512045C6984.704 95.624195 6980.2672 95.670528 6975.8332 92.661533Z M6969.0 88.371277C6970.333 87.040836 6970.1816 86.597651 6967.64 84.390419C6964.2786 81.471277 6962.9767 81.669561 6961.1706 85.375689C6960.1016 87.569223 6960.0871 88.400011 6961.0964 89.616133C6962.5485 91.36578 6966.6464 90.720333 6969.0 88.371277Z M7009.5465 85.853595C7010.1353 83.998462 7009.9201 83.787641 7007.9606 84.300043C7005.5434 84.932152 7001.1693 83.113856 6999.0953 80.614773C6997.9814 79.272617 6997.197 79.380328 6992.2937 81.548836C6985.7922 84.42409 6983.1785 84.628803 6982.2971 82.331808C6981.3011 79.736244 6986.9921 69.848512 6990.7147 67.706675C6994.1669 65.720474 6993.6402 65.599096 7001.8831 70.28035C7004.3516 71.682221 7005.4595 71.824438 7007.0947 70.94933C7009.6558 69.578642 7010.7226 70.424404 7009.0201 72.475834C7007.1187 74.766884 7001.8328 74.327753 6998.0921 71.567978C6995.4176 69.594744 6994.3696 69.330124 6992.5367 70.165236C6990.4014 71.13816 6986.4005 77.73387 6987.3623 78.695653C6987.6087 78.942075 6989.8938 78.436363 6992.4401 77.571847C6998.4871 75.518842 6998.7114 75.542523 7002.8068 78.66623C7005.9505 81.064006 7006.6877 81.229613 7010.1293 80.311004C7014.7249 79.084379 7015.602 79.654481 7013.2522 82.340743C7012.2885 83.442418 7012.0314 84.034096 7012.6809 83.655582C7014.7023 82.477573 7015.4173 85.22167 7013.4616 86.651704C7010.5941 88.748531 7008.7471 88.372037 7009.5465 85.853595Z"/>
</svg>
