<svg xmlns="http://www.w3.org/2000/svg"
     width="28.7" height="64.0"
     viewBox="6696.0000 18.5130 35.9735 80.1235">
  <path d="M6701.601 91.163435C6701.3166 90.703325 6702.6401 87.964047 6704.542 85.076151C6709.1211 78.123081 6709.0607 75.647921 6704.25 73.11452C6701.4624 71.646543 6701.2794 69.578294 6704.0 70.289749C6705.709 70.736654 6706.0 70.320431 6706.0 67.429433C6706.0 64.924034 6705.3513 63.621051 6703.5 62.408043C6700.431 60.397153 6700.0693 57.569819 6703.0 58.5C6706.1229 59.491162 6705.7506 53.600146 6702.5 50.58758C6701.125 49.313273 6700.0 47.935977 6700.0 47.526921C6700.0 47.117866 6701.125 47.065541 6702.5 47.410644C6704.9005 48.013134 6705.0 47.851447 6705.0 43.347793C6705.0 40.454159 6704.3879 37.981099 6703.402 36.891754C6701.4786 34.766365 6702.4404 32.29069 6704.5193 34.016008C6706.7646 35.879446 6708.4745 31.559641 6706.9491 27.877208C6705.6963 24.852677 6706.463 22.513043 6707.9294 24.885723C6708.5038 25.815171 6708.9552 25.881485 6709.434 25.106763C6710.5195 23.350434 6713.5245 23.817042 6715.5513 26.056643C6716.8249 27.463975 6718.1367 27.931531 6719.7062 27.537591C6722.5079 26.834416 6722.6631 28.089902 6720.0652 30.441013C6718.4413 31.910568 6718.3126 32.592076 6719.2645 34.681139C6720.1938 36.720759 6720.9044 37.069121 6723.1993 36.610139C6726.8 35.889993 6727.018 38.215145 6723.5 39.818046C6721.3555 40.795162 6721.0 41.61778 6721.0 45.603561C6721.0 50.232938 6721.011 50.247797 6724.0 49.65C6727.5255 48.944904 6727.9735 50.41699 6724.75 52.11452C6721.54 53.804959 6721.0325 54.907014 6721.0153 60.225249C6721.0004 64.836276 6721.0596 64.927847 6723.4646 64.01346C6727.3482 62.536905 6727.3725 64.582649 6723.4985 66.868376C6720.7229 68.506024 6720.0 69.559415 6720.0 71.966275C6720.0 75.183739 6720.9321 75.641905 6724.0657 73.964816C6727.32 72.223202 6726.3548 74.813655 6722.9861 76.86223L6719.9723 78.695063L6721.9861 81.255261C6723.9796 83.789501 6724.6979 87.033913 6723.25 86.963556C6722.8375 86.943512 6721.2266 85.256012 6719.6702 83.213556L6716.8405 79.5L6717.5614 67.0C6717.958 60.125 6718.27 51.528468 6718.2548 47.896596C6718.2257 40.958105 6716.0639 31.833518 6713.6757 28.569779C6712.2937 26.681135 6712.2377 26.687334 6711.0762 28.857581C6707.6307 35.295672 6706.3068 60.416418 6709.035 67.591969C6709.5657 68.987996 6710.0 71.23201 6710.0 72.578669C6710.0 73.925327 6710.5324 75.87962 6711.1831 76.921542C6712.1355 78.446589 6712.0326 79.272579 6710.6552 81.157974C6709.7141 82.446088 6707.7225 85.4125 6706.2294 87.75C6703.5031 92.017984 6702.5593 92.71401 6701.601 91.163435Z M6706.0 93.264261C6706.0 92.784701 6707.5751 90.865673 6709.5003 88.999755L6713.0005 85.607176L6716.7503 87.741709C6718.8188 88.919209 6720.6433 90.8007 6720.8196 91.938121C6721.2325 94.602937 6718.886 94.636552 6716.5 92.0C6714.2057 89.464837 6712.5393 89.479776 6708.9044 92.068094C6707.307 93.205546 6706.0 93.743821 6706.0 93.264261Z"/>
</svg>
