<svg xmlns="http://www.w3.org/2000/svg"
     width="64.0" height="63.6"
     viewBox="6273.9534 17.3164 86.3325 85.7473">
  <path d="M6317.0 94.912409C6316.175 93.239214 6314.2853 91.134046 6312.8007 90.234258C6310.2598 88.694278 6309.9743 88.712756 6307.9359 90.549139C6306.7449 91.622113 6305.3833 93.5125 6304.91 94.75C6304.4093 96.059179 6303.2029 97.0 6302.0248 97.0C6300.2536 97.0 6300.0 96.354341 6300.0 91.844391C6300.0 87.809579 6300.5754 85.934423 6302.6467 83.218769L6305.2934 79.748757L6302.763 74.589267C6300.0909 69.14099 6295.419 63.0 6293.9463 63.0C6292.2172 63.0 6290.6062 67.664263 6289.0097 77.293373C6287.5779 85.929167 6287.5581 87.442199 6288.8424 90.093966C6290.4319 93.375921 6289.3388 95.727735 6286.6954 94.713369C6282.3052 93.028684 6277.9534 73.485835 6279.9779 64.546442C6281.281 58.792165 6286.758 48.030083 6288.7778 47.255042C6289.5397 46.962647 6291.936 47.719789 6294.1027 48.937579C6296.2695 50.155369 6299.3503 51.526863 6300.9489 51.985344C6304.3746 52.967815 6305.0 51.987036 6305.0 45.632498L6305.0 41.428571L6299.5255 41.428571C6287.3558 41.428571 6282.5511 30.634311 6291.9517 24.413277C6296.6314 21.316361 6298.7998 21.734318 6303.2128 26.583932C6304.9225 28.462769 6306.9173 30.0 6307.6457 30.0C6308.374 30.0 6311.1609 28.65192 6313.8386 27.004267C6322.74 21.527208 6327.3295 21.959937 6330.4672 28.572112C6332.1115 32.037122 6332.0779 37.413783 6330.3757 43.25C6329.5986 45.914094 6328.0161 45.344724 6326.8428 41.978891C6325.2159 37.311844 6319.6504 35.306469 6317.0433 38.447872C6315.6818 40.088368 6313.9754 50.866765 6314.979 51.487014C6315.3394 51.709782 6317.5371 51.236483 6319.8628 50.435238C6324.7293 48.758577 6325.9096 49.182688 6330.9462 54.417923C6332.8416 56.388065 6334.891 58.0 6335.5004 58.0C6336.1098 58.0 6338.776 56.625366 6341.4253 54.945258C6351.3009 48.682301 6354.951 52.862423 6355.7625 71.364461C6356.2859 83.299389 6355.5224 87.032686 6351.0717 94.298761C6348.4045 98.653253 6345.2365 99.06369 6345.9 94.968792C6346.12 93.610956 6346.345 87.775 6346.4 82.0C6346.548 66.455266 6344.0069 62.060327 6337.7271 67.0C6334.1862 69.785301 6331.5105 69.504522 6326.9922 65.873499C6324.8524 64.153923 6322.4799 62.985601 6321.7199 63.277227C6320.4816 63.752412 6316.0 74.252325 6316.0 76.678357C6316.0 77.213515 6317.0994 78.684221 6318.4431 79.946592C6321.3607 82.687488 6322.9177 91.690531 6321.1464 95.578012C6319.7025 98.747153 6318.821 98.605663 6317.0 94.912409Z M6318.5632 86.569365C6317.4888 82.873487 6316.3432 80.926326 6314.9908 80.497082C6312.4946 79.704814 6312.4702 77.243402 6314.9043 71.776751C6315.9517 69.424538 6317.595 65.5875 6318.5562 63.25C6320.7279 57.968509 6322.6786 57.811399 6327.8683 62.5C6332.4703 66.657627 6333.3261 66.751377 6337.5145 63.556724C6341.7479 60.327788 6344.5164 61.131729 6347.1864 66.365297C6348.9183 69.760223 6349.2889 72.333817 6349.3205 81.185007C6349.3415 87.076233 6349.7163 91.675322 6350.1534 91.405205C6351.5435 90.546056 6354.0 80.804201 6354.0 76.150412C6354.0 66.05764 6350.6582 54.0 6347.8609 54.0C6347.3609 54.0 6344.6621 55.575 6341.8637 57.5C6339.0652 59.425 6335.9525 61.0 6334.9466 61.0C6333.9407 61.0 6331.0636 58.975 6328.553 56.5C6326.0425 54.025 6323.7751 52.0 6323.5144 52.0C6323.2538 52.0 6321.2323 52.723495 6319.0223 53.607768C6312.506 56.215058 6311.616 55.26029 6312.2874 46.382779C6312.6873 41.094929 6313.4054 38.209542 6314.6688 36.813481C6318.0074 33.124353 6319.4806 32.908645 6324.3838 35.390979L6329.0 37.727981L6329.0 34.814331C6329.0 33.211823 6328.3134 30.573027 6327.4743 28.95034C6325.2978 24.741395 6320.8593 24.928414 6314.4292 29.5C6307.9939 34.075365 6305.3173 33.971855 6301.5 29.0C6298.0557 24.513938 6296.3466 24.15289 6292.5801 27.115634C6286.2594 32.087493 6293.0132 40.470931 6301.4603 38.138574C6306.3103 36.799436 6308.0 38.599063 6308.0 45.103547C6308.0 50.356382 6305.8027 57.0 6304.0654 57.0C6303.4952 57.0 6300.1053 55.449096 6296.5322 53.553547C6290.4587 50.331491 6289.9268 50.216034 6288.3626 51.780274C6282.8096 57.333258 6280.5928 70.164001 6283.1068 82.200779C6284.8324 90.463182 6285.7119 89.909953 6286.1726 80.272065C6286.9328 64.373355 6292.9973 56.770555 6299.406 63.682051C6300.8323 65.2203 6302.6604 67.833622 6303.4684 69.489434C6304.2764 71.145245 6305.8486 73.85 6306.9622 75.5C6309.5359 79.313592 6309.545 81.692241 6306.989 82.503481C6304.6971 83.230926 6302.0 87.854444 6302.0 91.056095C6302.0 93.044938 6302.2242 92.971494 6304.9012 90.105755C6306.5725 88.316669 6308.8098 87.0 6310.1787 87.0C6312.9689 87.0 6317.0 89.574632 6317.0 91.356704C6317.0 92.040517 6317.5625 93.166371 6318.25 93.858603C6320.2465 95.868841 6320.3779 92.811597 6318.5632 86.569365Z"/>
</svg>
