<svg xmlns="http://www.w3.org/2000/svg"
     width="32.7" height="64.0"
     viewBox="2408.8087 20.0000 44.7538 87.4780">
  <path d="M 2448.8125,91.90625 C 2446.8678,91.16039 2444.6979,89.417344 2442.2188,86.59375 2438.6251,82.500758 2437.7367,78.088572 2438.1875,66.5 L 2438.5,58.5 2441.25,58.6875 C 2442.7625,58.791045 2444,58.513266 2444,58.0625 2444,56.67656 2437.0566,51.846981 2436,52.5 2434.7505,53.272262 2434.727,76.083319 2435.9688,81.4375 2436.4691,83.594933 2437.7296,86.519933 2438.7812,87.9375 2440.9775,90.897849 2445.9127,94.369501 2449.0312,95.46875 L 2448.8125,91.90625 z M 2449.3438,99.84375 C 2444.9882,99.51258 2439.1047,96.978517 2436.5938,94.15625 2435.5461,92.978573 2433.9061,92 2432.9375,92 2431.1438,92 2425,98.89423 2425,100.90625 2425,103.07286 2427.8892,101.94019 2430.3125,98.84375 L 2432.7812,95.71875 2435.625,97.71875 C 2438.8144,99.955608 2444.4515,102.62237 2447.5,103.34375 2448.0672,103.47797 2448.815,103.36358 2449.5625,103.375 L 2449.3438,99.84375 z M 2430.9375,24 C 2430.0701,24 2428.2709,25.188885 2426.9375,26.625 2425.6041,28.061115 2421.8205,31.292959 2418.5625,33.8125 2415.3045,36.332041 2413.175,38.568745 2413.8125,38.78125 2415.0707,39.200626 2419.2497,36.516398 2425.4375,31.3125 2427.599,29.494707 2429.8655,28 2430.4688,28 2431.0721,28 2434.6758,31.146305 2438.5,35 2445.0348,41.585246 2447.5,42.976798 2447.5,40.09375 2447.5,38.291811 2432.7923,24 2430.9375,24 z M 2429.4375,36.1875 C 2427.402,36.611436 2414.1424,46.230696 2414.0625,47.34375 2413.9296,49.195521 2419.5175,46.702576 2424.0938,42.84375 L 2428.9062,38.75 2434.2188,43.1875 C 2437.1319,45.625693 2440.85,48.598534 2442.5,49.78125 2444.15,50.963965 2445.9219,51.80958 2446.4375,51.65625 2448.5732,51.021168 2447.9099,49.075688 2444.8125,46.9375 2442.9981,45.684931 2439.1354,42.669808 2436.25,40.25 2433.3646,37.830193 2430.2932,36.009267 2429.4375,36.1875 z M 2424.2188,49.03125 C 2421.7689,49.058556 2412.8087,54.881438 2413.5,56 2413.8295,56.533128 2416.014,56.00423 2418.5312,54.78125 2420.9726,53.595142 2423.3074,52.963543 2423.7188,53.375 2425.0765,54.732724 2424.6417,88.764138 2423.25,90.15625 2422.5625,90.843961 2422,93.0975 2422,95.1875 2422,100.1375 2423.0865,100.0086 2425.4375,94.75 2427.05,91.143536 2427.3362,87.925856 2427.4062,73.5 2427.4991,54.401034 2426.8094,49.002376 2424.2188,49.03125 z"/>
</svg>
