<svg xmlns="http://www.w3.org/2000/svg"
     width="37.2" height="64.0"
     viewBox="5585.6256 14.4458 52.6244 90.4654">
  <path d="M 5631.125,89.71875 C 5629.8368,89.583186 5628.4533,89.034381 5626.7812,87.84375 5622.6125,84.875342 5620.7009,79.872652 5621.5,74.0625 5622.1142,69.597124 5622.3913,69.249022 5628.1875,66.0625 L 5634.25,62.75 5633.625,58.1875 C 5633.2828,55.691307 5632.7584,53.414555 5632.4688,53.125 5632.1793,52.835446 5630.643,53.378911 5629.0625,54.3125 5626.3192,55.933046 5622,56.615278 5622,55.4375 5622,55.131051 5622.5131,52.899 5623.125,50.46875 5624.1108,46.553761 5624.6002,45.967838 5627.5938,45.40625 5631.5943,44.655756 5631.144,43 5626.9375,43 5624.173,43 5624,42.75994 5624,39 5624,36.8 5624.3676,35 5624.8125,35 5625.2573,35 5626.4948,34.332659 5627.5625,33.5 5629.4129,32.056842 5629.3727,31.998411 5626.5938,32.25 5624.0445,32.480789 5623.5607,32.093146 5622.7812,29.15625 5622.0684,26.470736 5622.2428,25.382109 5623.6875,23.75 5625.4633,21.743696 5625.4574,21.716543 5622.75,22.375 5620.9259,22.818624 5619.1514,22.488287 5617.5,21.40625 5615.9239,20.373561 5613.8053,19.969 5611.75,20.28125 5609.9614,20.552974 5607.6659,20.341209 5606.6562,19.8125 5604.0464,18.445757 5603.585,19.437591 5605.4688,22.3125 5606.8692,24.449926 5606.9222,25.31934 5605.8125,28.875 5604.45,33.240337 5603.0943,33.938014 5600.6562,31.5 5598.8434,29.687224 5598,29.578857 5598,31.1875 5598,31.848816 5599.3364,33.784567 5600.9688,35.46875 5604.5939,39.208936 5604.3147,43.363683 5600.5,42.40625 5596.9452,41.514062 5596.393,43.911171 5599.875,45.125 5602.9914,46.211375 5603.3788,46.864369 5604.4375,53.15625 5604.9908,56.44477 5604.8569,56.773561 5603.0938,56.3125 5602.0133,56.029961 5600.352,54.951418 5599.4062,53.90625 5596.9374,51.178132 5594.7568,51.567872 5592.75,55.09375 5589.6256,60.583338 5590.7971,62.841153 5599.3125,67.9375 5605.1195,71.412925 5606.4714,74.191221 5606.375,82.40625 5606.3257,86.595871 5605.6104,91.114023 5604.625,93.4375 5602.6334,98.133735 5603.9497,100.51563 5606.4375,96.71875 5612.4181,87.59126 5610.5378,71.172543 5602.9688,66.34375 5597.9952,63.170838 5593.9822,59.971865 5594,59.1875 5594.0084,58.816832 5594.4116,57.887232 5594.875,57.15625 5595.542,56.104061 5596.7876,56.416542 5600.8125,58.65625 5607.5484,62.404464 5608.9699,61.317341 5607.0625,53.875 5604.7667,44.917354 5606.1178,29.833684 5609.4375,27.40625 5610.2928,26.780889 5611,25.6227 5611,24.8125 5611,19.900694 5617.498,23.446083 5619.125,29.25 5620.9452,35.743234 5620.7626,48.643777 5618.7812,54.78125 5616.6446,61.399621 5617.7891,62.191904 5625.0938,59.15625 5629.3676,57.380094 5630.1732,57.303819 5630.6562,58.5625 5631.4264,60.569522 5629.421,62.756267 5624.5625,65.21875 5619.5584,67.75502 5619.3572,68.076441 5618.5625,74.4375 5617.5869,82.245876 5619.4951,86.818304 5625.375,90.75 5627.9616,92.479517 5630.5925,93.846854 5631.4688,93.9375 L 5631.125,89.71875 z M 5631.75,97.75 C 5628.8409,97.987875 5626.576,97.201244 5622.6875,94.5625 5616.6806,90.486099 5615.1998,90.41681 5611.4062,94.09375 5609.5363,95.906177 5608,97.745392 5608,98.1875 5608,99.834737 5610.7286,98.917761 5613,96.5 5615.6707,93.657202 5616.3361,93.498724 5618.1875,95.25 5618.9143,95.9375 5621.525,97.484119 5624,98.6875 5626.475,99.890881 5629.625,100.88421 5631,100.90625 5631.3079,100.91119 5631.6491,100.80928 5631.9688,100.78125 L 5631.75,97.75 z"/>
</svg>
