<svg xmlns="http://www.w3.org/2000/svg"
     width="29.6" height="64.0"
     viewBox="5482.3236 16.9018 39.8457 86.0982">
  <path d="M5489.3802 95.671173C5487.8583 92.479578 5487.9005 92.139468 5490.4053 87.421173C5491.8422 84.714528 5493.5648 81.727176 5494.2332 80.782614C5495.2319 79.371467 5494.9541 78.056879 5492.6753 73.410439C5491.1499 70.300306 5489.496 65.615385 5488.9999 62.999505C5486.3236 48.887184 5495.0898 20.901814 5501.4253 23.332943C5503.3745 24.080931 5508.5857 34.447873 5511.0929 42.565467C5513.4795 50.292282 5513.8198 61.100457 5511.9674 70.343323C5510.6481 76.926421 5510.6753 77.249644 5512.681 78.843323C5513.8277 79.754496 5515.2686 81.482916 5515.883 82.684259C5518.1693 87.154885 5516.5356 98.666708 5513.7438 97.75744C5513.0597 97.534622 5511.9232 96.169468 5511.2183 94.723765C5509.6833 91.575885 5505.3606 87.995377 5503.1151 88.011846C5502.2268 88.018361 5499.7855 90.493361 5497.69 93.511846C5495.5945 96.530331 5493.2248 99.0 5492.4238 99.0C5491.6229 99.0 5490.2533 97.502028 5489.3802 95.671173Z M5505.7244 84.885834C5507.4173 85.587071 5509.8123 87.23576 5511.0466 88.549585C5512.2809 89.863411 5513.6753 90.700671 5514.1454 90.410163C5516.1477 89.172643 5514.6976 85.676598 5510.5227 81.676326L5506.0454 77.386301L5508.123 71.943151C5510.7451 65.073832 5510.9762 51.272149 5508.5658 45.503181L5506.9687 41.680795L5504.6699 43.840397C5501.7537 46.580003 5501.134 46.550001 5496.9551 43.466867C5493.7044 41.068554 5493.4497 41.028637 5492.1702 42.716867C5490.3921 45.063046 5491.0723 62.443857 5493.0869 66.139247C5493.8641 67.564843 5495.7373 71.026308 5497.2495 73.831392L5499.999 78.931544L5497.035 82.307396C5493.6066 86.212113 5491.6693 90.69585 5492.4884 92.830305C5492.9035 93.912178 5494.3607 92.861639 5497.8523 88.963284C5502.5535 83.71446 5502.7059 83.635535 5505.7244 84.885834Z M5503.8754 39.903415C5505.5375 38.119353 5505.666 37.336773 5504.7375 34.653415C5503.0365 29.737107 5500.508 26.065293 5499.3409 26.816538C5497.7736 27.825328 5495.0 33.602607 5495.0 35.858289C5495.0 37.363317 5498.7616 40.759339 5501.711 41.917154C5501.8271 41.962719 5502.8011 41.056537 5503.8754 39.903415Z"/>
</svg>
