<svg xmlns="http://www.w3.org/2000/svg"
     width="38.5" height="64.0"
     viewBox="6359.5000 13.3841 37.0000 61.4337">
  <path d="M 6382.385,64.535183 C 6384.4888,61.324299 6384.4275,60.497243 6381.8244,56.976319 6379.8249,54.271854 6379.7439,53.621304 6380.8244,48.940522 6382.8898,39.992627 6381.6861,29.930783 6378.2295,27.25 6375.7116,25.297251 6375.0217,25.696704 6372.9936,30.28147 6370.7823,35.280568 6371.0197,43.723028 6373.541,49.744169 6374.8657,52.907706 6374.9198,54.194351 6373.884,57.902992 6372.6984,62.14857 6372.752,62.389892 6375.383,64.652992 6378.8511,67.636129 6380.3699,67.610574 6382.385,64.535183 z M 6373.3422,67.220687 C 6371.6055,65.724309 6369.018,63.691492 6367.5922,62.703315 6364.498,60.558723 6364.0267,58.408741 6366.9995,59.999744 6368.7409,60.931691 6369.2157,60.615523 6370.6771,57.550968 6372.1574,54.446642 6372.1869,53.710585 6370.9276,51.303181 6370.1424,49.802287 6368.15,47.285376 6366.5,45.710046 L 6363.5,42.845808 6366.25,43.441956 C 6368.7486,43.983616 6369,43.776328 6369,41.17404 6369,39.591358 6368.1158,37.50974 6367.0236,36.521341 6364.8752,34.577083 6365.1832,32.749323 6367.5088,33.641743 6370.0167,34.604133 6371.598,29.54268 6370.0912,25.375731 6368.5106,21.004627 6369.5202,19.712401 6371.9741,22.96565 6373.5099,25.001724 6374.0632,25.192473 6375.3457,24.128089 6376.1895,23.427757 6377.0194,21.874938 6377.19,20.677379 6377.6589,17.384087 6379.4583,18.070193 6379.8078,21.675529 6380.217,25.897504 6382.1712,27.513934 6385.0217,25.988374 6387.9274,24.433329 6388.4705,25.264259 6386.0061,27.494452 6383.9591,29.346983 6383.5578,31.748051 6384.6278,35.740409 6385.1193,37.574182 6385.7067,37.8672 6387.8641,37.354826 L 6390.5,36.728834 6387.75,39.669136 C 6384.438,43.210362 6384.1547,46.545694 6387.1006,47.316061 6389.6121,47.972833 6388.7125,50 6385.9096,50 6382.8957,50 6382.4519,52.787638 6385.029,55.530895 6386.711,57.321329 6387.9932,57.815736 6389.9055,57.411248 L 6392.5,56.862467 6389.826,58.616741 C 6387.592,60.082357 6385,63.804542 6385,65.547053 6385,65.796174 6385.9,66 6387,66 6388.1,66 6389,66.45 6389,67 6389,67.55 6387.4516,68 6385.559,68 6383.6665,68 6381.8399,68.45 6381.5,69 6380.3765,70.817828 6376.5481,69.982797 6373.3422,67.220687 z"/>
</svg>
