<svg xmlns="http://www.w3.org/2000/svg"
     width="34.2" height="64.0"
     viewBox="6652.3750 19.0000 45.2718 84.6663">
  <path d="M 6656.375 79.03125 L 6660.0938 94.8125 C 6660.6519 94.938545 6661.2534 95.113922 6662 95.5 C 6670.0567 99.666262 6676.3909 95.447866 6679.9688 83.5 C 6682.1659 76.163004 6681.8681 76.576741 6683.7812 78.21875 C 6687.0669 81.038578 6687.8797 81.039687 6690.4375 78.28125 C 6693.3315 75.160162 6693.6468 73.478948 6691.5625 72.3125 C 6689.482 71.148181 6685.0114 61.011677 6685 57.4375 C 6684.9946 55.754715 6685.9635 50.624309 6687.125 46.03125 C 6690.4408 32.919121 6688.4193 23 6682.4375 23 C 6678.8711 23 6675.6323 26.929895 6671.875 35.84375 C 6668.9635 42.750924 6668.6776 44.426081 6668.7812 52.8125 C 6668.8446 57.932901 6669.4215 63.71393 6670.0625 65.65625 C 6671.4553 69.876466 6670.9189 82.48741 6669.2812 84.125 C 6667.6353 85.770945 6659.9184 82.429921 6656.375 79.03125 z M 6681.6562 26 C 6683.4288 26 6686 31.240133 6686 34.84375 C 6686 36.463848 6685.0581 42.603889 6683.9062 48.5 L 6681.8125 59.21875 L 6683.9688 64.875 C 6685.1542 67.973603 6686.959 71.391499 6688 72.5 C 6689.3049 73.889454 6689.6285 74.983046 6689 76 C 6688.2068 77.283371 6687.6885 77.26432 6685.125 75.75 C 6679.9511 72.693728 6678.0185 73.802727 6677.9688 79.84375 C 6677.9425 83.032704 6674.961 89.882716 6672.5625 92.28125 C 6668.7329 96.110869 6659.5152 92.95234 6658.6875 87.53125 C 6658.4321 85.858521 6658.3898 84.348286 6658.5625 84.15625 C 6658.7352 83.964214 6661.1727 85.054905 6664 86.59375 C 6670.366 90.058521 6671.7937 89.400151 6673.6875 82 C 6674.8881 77.308427 6674.877 75.346947 6673.5625 67.53125 C 6671.304 54.102923 6670.9823 49.166869 6672.0938 43.5625 C 6673.9555 34.174732 6678.4167 26 6681.6562 26 z "/>
</svg>
