<svg xmlns="http://www.w3.org/2000/svg"
     width="27.3" height="64.0"
     viewBox="7043.3489 18.1114 34.6325 81.3049">
  <path d="M7054.4297 91.035304C7048.6595 88.699931 7047.3489 80.71556 7050.246 65.547372C7052.6226 53.104375 7052.6463 46.164212 7050.329 41.280798C7048.7718 37.999279 7048.8058 37.853227 7052.5562 31.724175C7058.2473 22.423619 7059.3395 22.111353 7061.93 29.044168C7063.6232 33.575638 7065.101 34.292074 7069.1756 32.556758C7070.3484 32.057278 7071.3476 32.600851 7072.5057 34.368298C7073.9422 36.560792 7073.9814 37.262738 7072.8032 39.696723C7071.6931 41.989967 7070.8143 42.49039 7067.9731 42.447181C7066.0629 42.41813 7064.1694 42.86813 7063.7653 43.447181C7062.6038 45.111696 7062.9429 51.964821 7064.5102 58.5C7069.8253 80.662385 7065.2541 95.416267 7054.4297 91.035304Z M7060.3942 87.701041C7063.9121 85.128697 7064.0791 74.14727 7060.8938 54.85268C7059.8623 48.604287 7059.8732 46.197123 7060.9535 41.693777C7062.1995 36.499794 7062.1465 35.973176 7060.0339 32.554905C7057.5278 28.499891 7056.1632 28.849907 7053.3624 34.266172C7052.0063 36.888517 7052.0225 37.527619 7053.5253 40.694543C7055.7881 45.463138 7055.803 52.485686 7053.5768 65.033435C7051.4762 76.873129 7051.9568 83.956825 7055.0721 87.072082C7057.3482 89.348165 7058.0312 89.428886 7060.3942 87.701041Z M7070.6642 38.432783C7071.4523 36.378936 7069.8704 34.844001 7068.0959 35.940716C7066.5846 36.874736 7067.2807 40.0 7069.0 40.0C7069.5845 40.0 7070.3334 39.294752 7070.6642 38.432783Z"/>
</svg>
