<svg xmlns="http://www.w3.org/2000/svg"
     width="59.0" height="64.0"
     viewBox="1970.1875 17.7386 80.4992 87.2614">
  <path d="M 1974.1875,58.65625 1974.25,62.53125 C 1976.9655,62.912062 1979.1256,61.618857 1982.5938,58 1988.25,52.098038 1990.5237,51.751951 1995.4688,56.09375 2001.6337,61.50673 2004.1615,58.036078 2003.5938,44.90625 2003.3165,38.492527 2002.8256,36.388172 2001.2812,34.84375 1999.3409,32.903486 1999.2665,32.895922 1992.4062,35.1875 1987.4883,36.830323 1985.4062,38.057462 1985.1562,39.40625 1984.8791,40.901007 1985.1966,41.145211 1986.6562,40.5625 1990.2389,39.132318 1999.287,36.943304 1999.75,37.40625 2000.6997,38.355954 2001.222,50.78126 2000.375,52.28125 1999.5954,53.661919 1999.059,53.610612 1995.5625,51.90625 1989.6679,49.032879 1987.7296,49.467263 1981.9062,54.90625 1978.327,58.249183 1976.7841,59.302966 1974.1875,58.65625 z M 2007,38.5 C 2006.45,38.839919 2006,42.919959 2006,47.5625 2006,52.523155 2006.4123,56 2007,56 2007.5931,56 2008,52.310178 2008,46.9375 2008,41.152799 2007.6386,38.10535 2007,38.5 z M 1974.375,69.625 1974.4375,72.625 C 1978.0298,73.043648 1981.2381,71.216124 1984.5,67 1986.15,64.867305 1988.1227,62.846051 1988.875,62.53125 1990.888,61.688875 1999,70.178277 1999,73.125 1999,74.451469 1997.2109,77.699547 1995,80.375 1990.3457,86.007362 1990.145,87.454622 1993.4062,91.875 1994.73,93.669274 1996.3633,96.449921 1997.0312,98.0625 1997.8669,100.07994 1998.9475,101 2000.5,101 2004.861,101 2006.4983,95.748782 2004.0625,89.5625 2003.0833,87.075541 2003.1791,86.228992 2004.75,84.125 2005.7731,82.754562 2007.0795,81.463076 2007.625,81.28125 2008.1704,81.099425 2011.2378,82.984103 2014.4375,85.46875 2020.1016,89.867001 2023,91.064279 2023,88.96875 2023,87.397592 2010.7283,77 2008.875,77 2007.6376,77 2000.0114,85.432799 2000,86.8125 1999.9941,87.527313 2000.7026,89.462169 2001.5625,91.125 2002.5509,93.036231 2002.8764,95.237892 2002.4688,97.09375 2001.8036,100.12232 2000.0181,100.18496 1999.9688,97.1875 1999.9534,96.257459 1998.6035,93.722976 1996.9688,91.5625 1995.3341,89.402023 1994,87.277415 1994,86.84375 1994,86.410086 1996.025,83.786718 1998.5,81 2000.975,78.213282 2003.002,74.937891 2003,73.71875 2002.9931,69.659718 1997.0868,62.062142 1991.25,58.625 1990.1805,57.995234 1988.1324,59.407666 1983.625,63.875 1980.2335,67.236353 1976.64,70 1975.6562,70 1975.2944,70 1974.7808,69.708509 1974.375,69.625 z M 2023.8438,60.5 C 2022.0788,60.419646 2020.5078,61.80872 2018.0625,64.59375 2013.4031,69.900482 2013.5944,73.876563 2018.7812,79.25 2022.1696,82.76017 2027,84.375769 2027,82 2027,81.45 2026.3372,81 2025.5312,81 2022.9935,81 2017,74.985341 2017,72.4375 2017,71.138614 2018.4075,68.4562 2020.125,66.5 L 2023.25,62.96875 2028.375,67.71875 2033.5,72.5 2033.5,83 C 2033.5,88.775 2033.8676,94.0625 2034.3125,94.75 2034.7575,95.4375 2035.8041,96 2036.6562,96 2037.8873,96 2038.0553,95.435106 2037.375,93.25 2036.9041,91.7375 2036.5013,86 2036.5,80.5 L 2036.5,70.5 2030.8125,65.15625 C 2027.5678,62.112178 2025.6087,60.580354 2023.8438,60.5 z M 1999.875,22.0625 C 1997.4598,21.738592 1994.687,22.540428 1990.6875,24.34375 1987.834,25.630311 1984.15,27.28755 1982.5,28.03125 1979.7667,29.263223 1979.6825,29.415437 1981.6562,29.75 1982.8477,29.951964 1986.8423,28.693519 1990.5312,26.96875 1998.4771,23.253822 2000.6409,23.54976 2004.5938,28.75 2006.167,30.819803 2008.4224,33.4 2009.5938,34.5 2011.6437,36.42498 2011.6879,36.781327 2010.4375,44 2009.1475,51.447347 2009.3612,55.351876 2011.25,57.75 2012.7448,59.647744 2014.4057,59.294312 2019.9062,55.875 L 2024.9375,52.75 2030.7188,58.03125 C 2033.8988,60.946051 2037.9653,64.222074 2039.75,65.28125 2043.211,67.335195 2043.2608,67.80526 2040.8125,75.84375 2039.8987,78.844005 2040.469,89.31033 2041.6562,91.25 2043.112,93.628246 2043.8511,91.221511 2043.3438,85.75 2042.9417,81.41447 2043.2531,77.830249 2044.375,74.0625 2046.6867,66.298815 2046.505,65.478941 2041.75,62.6875 2039.4125,61.315265 2035.9158,58.686276 2033.9688,56.84375 2025.7239,49.04176 2026.8283,49.370059 2020.0938,52.875 2016.4807,54.755362 2013.8758,55.576813 2013.5,54.96875 2012.9792,54.125994 2013.0682,38 2013.5938,38 2013.6892,38 2015.3828,38.667619 2017.375,39.5 2020.5687,40.834423 2021.4159,40.851108 2024.5,39.5625 2031.2367,36.747698 2031.4995,29.861065 2025,26.5 2022.0164,24.957149 2021.7355,25.009079 2016.5625,27.96875 L 2011.2188,31.03125 2006.9062,26.5 C 2004.3495,23.817392 2002.2902,22.386408 1999.875,22.0625 z M 2022,28.375 C 2022.6666,28.396888 2023.2158,28.799199 2024.0938,29.59375 2026.2716,31.564593 2026.5656,34.059422 2024.8125,35.8125 2022.9828,37.642154 2018.5252,37.231217 2016.5625,35.0625 2014.4918,32.774393 2015.0566,31.526298 2019.1562,29.40625 2020.5486,28.686247 2021.3334,28.353112 2022,28.375 z M 1997.375,28.4375 C 1996.9336,28.334316 1996.2346,28.409372 1995.25,28.65625 1990.8935,29.748634 1982,34.043444 1982,35.0625 1982,36.52071 1983.7473,36.194125 1991.125,33.3125 1994.9081,31.834881 1998,30.014109 1998,29.28125 1998,28.804197 1997.8164,28.540684 1997.375,28.4375 z"/>
</svg>
