<svg xmlns="http://www.w3.org/2000/svg"
     width="41.0" height="64.0"
     viewBox="6453.8125 19.7494 50.8201 79.2542">
  <path d="M 6457.8125 77.75 L 6458.0625 80.5 C 6459.1298 80.725127 6460.5517 81.518648 6463.1562 83.3125 C 6470.5149 88.380624 6473.5839 88.181069 6476.6875 82.40625 C 6477.861 80.222703 6478.3254 75.545448 6478.5938 63.5 C 6478.7899 54.7 6479.1992 45.07123 6479.5 42.09375 C 6480.0604 36.546508 6483.5312 28.933372 6485.4375 29.0625 C 6486.0238 29.102209 6487.7985 30.697181 6489.375 32.59375 C 6492.1977 35.989458 6492.242 36.247213 6492.4375 49.8125 C 6492.5466 57.388976 6492.9579 64.094507 6493.3438 64.71875 C 6494.7429 66.982697 6491.7425 67.166248 6488.8125 65 C 6486.9575 63.628566 6485.4505 63.143205 6484.875 63.71875 C 6484.3626 64.231162 6483.5599 68.061782 6483.0938 72.21875 C 6482.6276 76.375718 6481.5822 81.050656 6480.7812 82.625 C 6479.9804 84.199343 6478.6714 86.85 6477.875 88.5 C 6475.7789 92.842955 6471.5666 93.026385 6466.5 89 C 6463.4732 86.594586 6461.9529 86.183986 6458.5625 86.28125 L 6458.8438 89.5625 C 6459.0474 89.591593 6459.2234 89.508756 6459.4375 89.5625 C 6460.8529 89.917733 6462.2551 90.627595 6462.5625 91.125 C 6463.4527 92.565267 6469.9996 95.003549 6472.875 94.96875 C 6478.8419 94.896537 6483.3804 88.119612 6485.0938 76.75 C 6485.8189 71.9375 6486.8889 68 6487.4688 68 C 6488.0487 68 6490.9452 68.886485 6493.9062 69.96875 C 6496.8671 71.051015 6499.68 71.700625 6500.1562 71.40625 C 6500.6326 71.111875 6499.5885 68.867038 6497.8438 66.4375 C 6495.1495 62.685741 6494.7214 61.297192 6495 57.25 C 6496.166 40.311027 6495.0823 34.050507 6489.9375 28.03125 C 6486.2777 23.74938 6484.7683 24.373749 6480.7188 31.8125 C 6478.0445 36.7251 6477.852 37.805832 6476.9375 57 C 6475.8923 78.936152 6474.7822 84 6470.9062 84 C 6469.6927 84 6467.2957 82.945511 6465.5938 81.65625 C 6461.5667 78.605601 6459.6877 77.547665 6457.8125 77.75 z "/>
</svg>
