<svg xmlns="http://www.w3.org/2000/svg"
     width="27.7" height="64.0"
     viewBox="4235.9402 13.6752 39.7794 91.8400">
  <path d="M4242.5684 98.794224C4240.7196 96.154598 4240.5226 90.765715 4242.1623 87.684259C4242.8016 86.482916 4244.582 83.925 4246.1187 82.0L4248.9128 78.5L4244.4244 67.5C4240.0033 56.6652 4239.9402 56.348345 4240.218 46.401924C4240.4836 36.889469 4240.7286 35.853761 4244.4424 28.542826C4249.2196 19.13833 4251.4891 17.675216 4256.8482 20.54472C4263.2744 23.985509 4268.0 37.442084 4268.0 52.30029C4268.0 59.894171 4266.7516 65.779908 4263.5833 73.124057C4263.1202 74.197462 4263.8709 75.830066 4265.7972 77.93915C4269.9772 82.515655 4271.7196 90.341914 4269.6574 95.277574C4268.802 97.324908 4267.4128 99.0 4266.5704 99.0C4265.728 99.0 4263.359 96.75 4261.3059 94.0C4259.2529 91.25 4256.8693 89.0 4256.0091 89.0C4253.4138 89.0 4250.0887 91.905787 4248.0009 95.998233C4245.4399 101.01821 4244.4743 101.5152 4242.5684 98.794224Z M4247.3235 43.184246L4250.0211 40.368492L4247.4579 37.960451C4245.2972 35.930553 4244.7483 35.783845 4243.9626 37.026205C4242.8143 38.842132 4242.6948 46.0 4243.8129 46.0C4244.26 46.0 4245.8398 44.732911 4247.3235 43.184246Z M4253.0 58.399419C4253.0 57.117106 4245.2912 51.0 4243.6752 51.0C4242.3979 51.0 4243.6934 58.506376 4245.6105 62.213629L4247.1637 65.217312L4250.0819 62.421565C4251.6868 60.883904 4253.0 59.073938 4253.0 58.399419Z M4255.6837 86.37417C4258.9492 85.761168 4261.8876 87.7834 4264.5619 92.484076C4266.4305 95.768709 4268.2932 93.293402 4267.7277 88.276938C4267.3397 84.834372 4266.3537 82.92245 4263.4134 79.911298L4259.602 76.008088L4261.3059 71.254044C4263.5077 65.111064 4263.5431 65.300852 4259.7704 63.006561L4256.5408 61.042518L4252.7704 64.724207C4250.6967 66.749136 4248.9988 68.877069 4248.9972 69.452948C4248.9957 70.028826 4249.962 72.32696 4251.1447 74.559911L4253.2949 78.619822L4248.6474 83.401687C4244.6871 87.476558 4244.0 88.775684 4244.0 92.188523L4244.0 96.193494L4248.25 91.582659C4250.966 88.636049 4253.6491 86.756108 4255.6837 86.37417Z M4257.904 32.915943C4260.5446 29.344331 4260.0238 26.865227 4256.0365 24.025982C4252.176 21.277103 4251.6848 21.404332 4248.5187 25.973055C4245.3619 30.52821 4245.6596 32.214264 4250.097 34.912788C4253.8355 37.186311 4254.9593 36.898864 4257.904 32.915943Z M4260.0757 52.415051L4262.5 49.830101L4260.0 47.957973C4258.625 46.928302 4256.3133 45.174339 4254.8628 44.060277L4252.2256 42.03471L4249.6128 44.089935C4246.0449 46.896413 4246.3057 48.113327 4251.25 51.729369C4256.5129 55.578456 4257.0684 55.621612 4260.0757 52.415051Z M4263.596 40.874756C4263.2332 38.605871 4262.4735 35.884755 4261.9079 34.82783C4260.9104 32.964098 4260.8064 32.975413 4258.457 35.203074C4255.2867 38.209107 4255.3806 39.301008 4259.0767 42.411106C4263.4316 46.075512 4264.3762 45.75438 4263.596 40.874756Z M4264.8282 56.499066L4264.5 53.754487L4262.0 55.876577C4259.5496 57.956596 4259.5386 58.028493 4261.4463 59.50308C4263.872 61.378133 4265.2638 60.141894 4264.8282 56.499066Z"/>
</svg>
