<svg xmlns="http://www.w3.org/2000/svg"
     width="38.1" height="64.0"
     viewBox="6037.5000 16.0000 48.7278 81.7981">
  <path d="M 6045.625 71.375 L 6045.5 71.5 L 6041.5 79 L 6041.5625 80.34375 L 6045.5312 84.71875 C 6051.161 90.924667 6056.9339 93.798072 6060.4688 92.1875 C 6063.5992 90.761172 6065.6334 86.778877 6068.0625 77.28125 C 6069.1331 73.095368 6070.2122 69.444068 6070.4688 69.1875 C 6070.8799 68.776393 6072.2856 69.631196 6077.6562 73.5 C 6080.9498 75.872497 6082.2278 67.358733 6079.25 62.84375 C 6078.2881 61.385448 6075.3595 58.211386 6072.75 55.78125 L 6068 51.375 L 6068 38.125 C 6068 25.416373 6067.8898 24.827356 6065.5312 22.46875 C 6064.1813 21.11875 6062.1361 20 6060.9688 20 C 6057.9358 20 6053.3539 25.007962 6052.0938 29.6875 C 6050.5223 35.523867 6052.2407 47.142554 6055.9062 55.3125 C 6059.9825 64.397706 6060.7851 70.894419 6058.4688 76.03125 C 6056.5041 80.387835 6054.7626 80.919251 6050.9688 78.28125 C 6047.6893 76.00088 6046.2905 74.280394 6045.625 71.375 z M 6060.8125 22.53125 C 6061.164 22.588205 6061.5206 22.745611 6061.9375 22.96875 C 6065.566 24.910669 6066.3131 27.780905 6065.75 38 C 6065.4581 43.29838 6065.4572 48.905761 6065.75 50.4375 C 6066.0675 52.098716 6068.6276 55.451318 6072.125 58.78125 C 6076.6084 63.049955 6078 65.062806 6078 67.25 L 6078 70.09375 L 6073.5625 67.03125 C 6071.1218 65.351958 6068.9119 64.33463 6068.6562 64.75 C 6068.4006 65.165369 6067.8903 67.75 6067.5 70.5 C 6066.7025 76.119238 6062.2746 88.126476 6060.5938 89.25 C 6059.9892 89.654078 6059.05 89.962384 6058.5 89.96875 C 6056.6519 89.990141 6051.5347 86.25673 6047.0625 81.625 C 6042.3616 76.756491 6042.0955 73.846704 6046.75 78.1875 C 6050.1886 81.394267 6053.2718 83 6056 83 C 6057.6036 83 6058.7501 81.637999 6060.6875 77.40625 C 6063.8948 70.400547 6063.5432 65.122375 6059.2812 56 C 6055.7134 48.36339 6054 41.045828 6054 33.375 C 6054 28.577676 6054.3888 27.455012 6056.9688 24.875 C 6058.824 23.01974 6059.7579 22.360385 6060.8125 22.53125 z "/>
</svg>
