<svg xmlns="http://www.w3.org/2000/svg"
     width="64.0" height="63.2"
     viewBox="6385.7118 18.0000 82.6732 81.6652">
  <path d="M 6457.8125,77.75 C 6456.6792,77.87228 6455.5508,78.338625 6453.9375,79.40625 6447.7293,83.514647 6444.2475,82.55427 6441.625,76 6439.4894,70.662706 6439.5866,66.171985 6441.9375,60.6875 6446.2567,50.611295 6454,54.442648 6454,66.65625 6454,71.285956 6454.8632,71.980576 6457.4375,69.40625 6462.9569,63.886834 6464.385,51.168003 6460,46.5 6457.7823,44.139145 6456.9414,43.889461 6452.5,44.3125 6449.7488,44.574552 6446.2134,45.121662 6444.625,45.53125 L 6441.7188,46.28125 6442.4062,42.40625 C 6443.7006,35.118264 6443.7492,35.05901 6448.5938,35.15625 6454.1553,35.267884 6457,33.007395 6457,28.46875 6457,26.696338 6456.2885,24.638355 6455.4062,23.90625 6453.7446,22.527117 6453.079,22.753341 6446.3438,27 6444.3925,28.230336 6443.8398,28.06505 6440.5625,25.1875 6438.5682,23.436507 6436.7389,22 6436.5,22 6436.2611,22 6434.1956,22.96299 6431.9062,24.15625 6428.2391,26.06766 6427.3723,26.182173 6424.625,25.0625 6419.0827,22.803771 6417.5239,22.779963 6415.6562,24.84375 6413.2706,27.479885 6413.7385,33.343761 6416.375,33.84375 6417.4046,34.039011 6420.0051,33.407515 6422.1562,32.4375 6424.742,31.271493 6426.4068,31.000569 6427.0625,31.65625 6428.4167,33.010426 6431.4521,43.891711 6430.6875,44.65625 6430.3493,44.994481 6427.825,44.29993 6425.0938,43.125 6416.7339,39.52868 6413.0063,40.584985 6409.9375,47.34375 6407.0699,53.659615 6407.8269,64.134073 6411.1875,64.78125 6412.2903,64.993629 6412.94,64.100396 6413.375,61.78125 6414.2479,57.128403 6420.3697,51 6424.1562,51 6426.5997,51 6427.3651,51.628633 6428.6562,54.71875 6430.8615,59.996764 6430.0492,69.089256 6426.75,76.25 6423.7597,82.740143 6422.2971,83.273485 6417.8125,79.5 6414.2108,76.469339 6410.2899,76.315564 6405.2812,79 6401.3754,81.093375 6398.7751,80.87547 6395.75,78.21875 6393.2697,76.040527 6392.3996,77.453868 6394.375,80.46875 6396.4941,83.702855 6401.2112,83.838361 6407.375,80.84375 L 6411.8125,78.6875 6415.875,81.90625 C 6421.8858,86.666871 6424.5197,86.006755 6428.3438,78.6875 6434.7867,66.355157 6432.5367,48 6424.5938,48 6420.9078,48 6415.6793,52.191529 6413.5938,56.78125 6412.5372,59.10675 6411.2996,61 6410.8438,61 6409.2596,61 6410.0146,53.843434 6412.125,48.9375 6413.9947,44.591274 6414.6065,44 6417.25,44 6418.901,44 6422.9136,45.201012 6426.1562,46.65625 6429.3989,48.111489 6432.3346,49.009087 6432.6875,48.65625 6433.8025,47.541223 6433.0568,39.382277 6431.5,35.65625 6429.3897,30.605561 6429.5849,29.42284 6433.0312,26.96875 L 6436.0938,24.8125 6439.4375,28.375 C 6442.7176,31.852872 6442.759,32.014233 6441.4375,35.71875 6440.694,37.802912 6440.0554,41.6375 6440.0312,44.25 6439.9804,49.74263 6440.687,50.029428 6448.0938,47.375 6453.6773,45.373994 6457.2747,46.087562 6458.8438,49.53125 6460.2779,52.678856 6460.3448,58.96282 6459,62.5 6457.8973,65.400351 6456,65.028384 6456,61.90625 6456,58.810168 6453.4175,54.556968 6450.625,53.0625 6446.7261,50.975856 6442.6043,53.147277 6439.9375,58.65625 6435.8665,67.065883 6439.0005,82.282809 6445.25,84.4375 6447.9525,85.369282 6451.4548,84.195808 6456.1562,80.8125 6456.7185,80.40792 6457.3183,80.343016 6458.0625,80.5 L 6457.8125,77.75 z M 6419.75,26.09375 C 6420.4594,26.194592 6421.2164,26.506918 6422,27.03125 6423.2983,27.899997 6423.2426,28.249369 6421.5625,29.53125 6419.4068,31.17591 6416,31.520172 6416,30.09375 6416,27.326745 6417.6217,25.791225 6419.75,26.09375 z M 6453.375,26.28125 C 6455.2858,26.917388 6455.3014,30.301732 6453.4062,31.6875 6451.3525,33.18927 6449.1055,33.34116 6447.1875,32.125 6446.1912,31.493333 6446.6505,30.623334 6449.0625,28.59375 6450.8203,27.114733 6452.7567,26.075421 6453.375,26.28125 z M 6458.5625,86.28125 C 6458.1721,86.292449 6458.015,86.192298 6457.5625,86.21875 6454.0383,86.424761 6452.5,86.930786 6452.5,87.90625 6452.5,90.426794 6448.7185,90.891811 6445.2812,88.8125 6443.5132,87.742968 6440.6824,86.491454 6438.9688,86 6436.1841,85.201376 6435.4613,85.444929 6432.375,88.53125 6430.4758,90.4305 6428.0986,92 6427.0938,92 6425.4367,92 6418.2143,87.752977 6417,86.0625 6415.6081,84.124803 6412.611,84.408929 6407,87.0625 6403.5938,88.67341 6400.381,90 6399.8438,90 6399.3064,90 6397.3702,88.840039 6395.5312,87.4375 6391.169,84.110252 6389.7118,86.074528 6393.5625,90.09375 6397.0702,93.755045 6401.0559,93.884389 6406.5,90.53125 6411.5161,87.441748 6412.3832,87.416634 6416.3438,90.4375 6418.111,91.785439 6420.6726,93.332802 6422.0312,93.875 6426.517,95.665235 6429.4903,95.141398 6432.5,92 6435.9809,88.366677 6437.2374,88.295015 6442.8438,91.5 6448.313,94.626677 6450.0809,94.634967 6453.8438,91.46875 6455.8374,89.791231 6457.224,89.33114 6458.8438,89.5625 L 6458.5625,86.28125 z"/>
</svg>
