<svg xmlns="http://www.w3.org/2000/svg"
     width="39.4" height="64.0"
     viewBox="5671.0000 15.5495 53.6931 87.3161">
  <path d="M5711.7647 95.488403C5709.7103 93.569781 5707.5862 92.0 5707.0446 92.0C5706.503 92.0 5705.0618 93.35 5703.8419 95.0C5700.9882 98.859858 5699.3062 98.777771 5693.7111 94.505566C5688.5107 90.534769 5686.8722 90.660501 5682.8548 95.33863C5680.5773 97.990734 5679.9866 98.233752 5678.6048 97.086996C5675.8446 94.796199 5676.5359 87.940805 5680.0108 83.143768C5682.4845 79.728962 5682.9255 78.319561 5682.4826 75.243729C5681.2415 66.623621 5681.173 61.040908 5682.2121 53.21762C5683.2953 45.061806 5683.2739 44.893712 5680.8094 42.21762C5676.312 37.334004 5675.0 34.622571 5675.0 30.211752C5675.0 21.906286 5678.3566 19.549536 5681.8216 25.422201C5682.9321 27.304411 5684.7448 29.328231 5685.8497 29.919578C5687.5685 30.839442 5688.3023 30.456636 5690.9294 27.269533C5692.6182 25.220662 5694.0 23.196842 5694.0 22.772156C5694.0 22.34747 5694.9093 22.0 5696.0206 22.0C5697.2788 22.0 5699.238 23.697883 5701.2131 26.5C5702.9576 28.975 5704.6918 31.0 5705.0667 31.0C5705.4416 31.0 5707.7124 28.973326 5710.113 26.496279C5712.5136 24.019232 5714.9214 22.140479 5715.4638 22.321271C5718.4635 23.321182 5713.4086 38.861775 5709.6094 40.319664C5708.5343 40.732212 5708.538 41.947175 5709.6302 47.160651C5710.3607 50.647293 5710.9677 59.18991 5710.9792 66.144245C5711.0 78.787668 5711.0002 78.788697 5713.9859 81.984858C5718.696 87.027055 5720.6931 98.121842 5717.0 98.729852C5716.175 98.865676 5713.8191 97.407024 5711.7647 95.488403Z M5686.0684 37.320166C5686.8996 35.133976 5686.4757 34.312043 5682.5491 30.495869C5678.7556 26.80897 5677.9996 26.425956 5677.517 27.946482C5676.8392 30.081856 5678.28 34.180102 5681.1014 38.142364C5683.3557 41.308329 5684.6324 41.096996 5686.0684 37.320166Z M5684.2849 90.486309C5687.0003 88.097041 5687.03 87.958656 5685.4727 84.947147C5684.1797 82.446908 5683.6048 82.08309 5682.4548 83.037475C5680.8432 84.375052 5678.8054 90.876053 5679.5965 92.156154C5680.398 93.453065 5681.2636 93.144771 5684.2849 90.486309Z M5705.9611 84.120935C5707.9846 77.827771 5708.1713 75.657744 5707.7521 63.297825C5707.3602 51.742281 5706.8446 48.199922 5704.5796 41.5C5701.7246 33.054987 5697.5362 25.0 5696.0 25.0C5694.4308 25.0 5690.2397 33.147128 5687.5406 41.444584C5685.381 48.083719 5684.9404 51.370105 5684.8593 61.444584C5684.7776 71.597506 5685.1089 74.409883 5686.9588 79.265598C5689.4199 85.725545 5692.9299 90.368455 5697.4574 93.152788C5700.4398 94.986944 5700.5317 94.985605 5702.1011 93.085084C5702.9817 92.018709 5704.7187 87.984842 5705.9611 84.120935Z M5692.5821 79.132774C5692.2409 78.580809 5692.4759 74.837631 5693.1043 70.814601C5694.1961 63.824667 5693.8292 46.44289 5692.4749 41.0C5692.1328 39.625 5692.8139 40.523856 5693.9884 42.997459C5695.7593 46.727194 5696.1169 49.287718 5696.0831 57.997459C5696.0607 63.773856 5695.7535 70.434734 5695.4003 72.799409L5694.7581 77.098819L5697.629 76.408733C5699.2081 76.029186 5700.6362 75.608237 5700.8027 75.473292C5700.9692 75.338346 5701.1411 70.78915 5701.1847 65.363968C5701.2926 51.944216 5699.7694 45.258877 5695.4557 40.219319C5691.6147 35.731964 5691.334 35.0 5693.4542 35.0C5694.254 35.0 5696.4658 37.039713 5698.3694 39.532695C5702.7168 45.226362 5704.2 53.149029 5703.7922 68.5L5703.5 79.5L5701.0 79.237645C5699.625 79.09335 5698.05 78.927251 5697.5 78.868536C5696.95 78.809821 5695.758 79.071059 5694.8512 79.449064C5693.9443 79.82707 5692.9232 79.68474 5692.5821 79.132774Z M5711.2766 33.799832C5713.7959 29.914396 5714.7375 27.0 5713.4734 27.0C5711.7452 27.0 5706.0 33.657953 5706.0 35.660678C5706.0 39.248477 5708.2605 38.451282 5711.2766 33.799832Z M5715.9835 92.75C5715.965 90.216867 5711.9915 82.746183 5710.5833 82.59707C5710.0792 82.543681 5709.2344 83.796729 5708.7061 85.381621C5707.8524 87.942656 5708.1213 88.632077 5711.1228 91.578567C5715.1489 95.530874 5716.0054 95.737294 5715.9835 92.75Z"/>
</svg>
