<svg xmlns="http://www.w3.org/2000/svg"
     width="31.7" height="64.0"
     viewBox="7472.4135 14.9262 41.1534 83.0738">
  <path d="M 7508.5312 75.46875 C 7508.0198 74.257834 7507.8817 73.012402 7508.4688 72.0625 C 7509.5669 70.285503 7507.9898 67 7506.0312 67 C 7504.9703 67 7502.6663 69.115115 7500.5938 72 C 7496.7584 77.338493 7494.695 78.171114 7493.0312 75.0625 C 7490.3727 70.095053 7492.3723 61.589351 7498.7188 50.90625 C 7500.9058 47.224535 7502.2734 43.45153 7502.6562 39.90625 C 7503.0012 36.711267 7504.23 32.930202 7505.6875 30.65625 C 7508.6615 26.016243 7509.0872 22.165512 7506.8125 20.6875 C 7505.45 19.80221 7504.2993 20.396947 7500.5938 23.8125 C 7498.0894 26.120925 7495.793 28 7495.4688 28 C 7495.1446 28 7493.378 26.425 7491.5625 24.5 C 7486.3057 18.926156 7480.1339 20.408139 7477.9375 27.78125 C 7476.4135 32.897089 7477.932 36.268458 7483.2188 39.65625 C 7485.5785 41.168337 7487.6512 42.532539 7487.8438 42.65625 C 7489.2399 43.553503 7487.5694 50.778359 7484.4375 57.34375 C 7479.4644 67.768418 7478.6703 76.908049 7482.0312 85.03125 C 7483.2737 88.034131 7485.1666 91.2875 7486.25 92.25 C 7487.467 93.331204 7489.8517 94 7492.4688 94 C 7495.9797 94 7497.3308 93.393076 7500.4062 90.40625 C 7502.7831 88.097864 7503.7219 87.367736 7504.625 87.59375 L 7508.5 75.5 L 7508.5312 75.46875 z M 7486.0312 23.3125 C 7486.7356 23.492532 7487.4634 24.026178 7488.5 25 C 7489.8601 26.277754 7491.241 28.143242 7491.5625 29.15625 C 7492.4646 31.998598 7495.8714 31.358325 7500.6562 27.4375 C 7505.4217 23.532627 7506.358 24.502306 7502.5938 29.4375 C 7500.903 31.654161 7500.0177 34.4711 7499.5625 39.03125 C 7499.1322 43.343051 7498.1357 46.695017 7496.5312 49.125 C 7490.2015 58.711749 7487.6269 69.250341 7490.0625 75.65625 C 7492.1549 81.159779 7496.4831 81.502076 7500.875 76.5 C 7504.3501 72.542062 7505 72.257638 7504.9688 74.75 C 7504.9327 77.622351 7501.4746 84.306962 7498.5 87.25 C 7494.1402 91.563488 7488.898 90.849625 7486.6562 85.65625 C 7483.4855 78.310814 7483 76.750976 7483 73.625 C 7483 69.150926 7486.5045 58.835135 7489.5312 54.375 C 7491.3039 51.762705 7492 49.360964 7492 46 C 7492 40.975743 7490.8454 39.388188 7485.6875 37.1875 C 7480.2683 34.875282 7478.9218 25.907148 7483.6562 23.75 C 7484.6529 23.295886 7485.3269 23.132468 7486.0312 23.3125 z "/>
</svg>
