<svg xmlns="http://www.w3.org/2000/svg"
     width="40.6" height="64.0"
     viewBox="3142.1088 15.5695 56.4115 88.9498">
  <path d="M3159.1298 97.45574C3153.5601 92.769169 3148.6711 79.326227 3147.4051 65.217042C3146.1088 50.770566 3149.6382 26.292547 3153.6318 22.031746C3154.8366 20.746264 3155.2536 20.809123 3156.9812 22.536714C3158.7641 24.31961 3159.0409 26.631445 3159.8515 46.504968C3160.5512 63.658922 3161.1615 69.695944 3162.6243 73.93367C3163.6559 76.922188 3165.0369 79.538668 3165.6932 79.748068C3168.6538 80.692731 3176.553 62.771088 3179.5701 48.264181C3180.3978 44.284481 3181.3957 36.859481 3181.7875 31.764181C3182.5886 21.347613 3184.2556 19.56948 3186.7226 26.5C3194.5203 48.406052 3179.3809 100.0 3165.1553 100.0C3163.3984 100.0 3160.8995 98.944843 3159.1298 97.45574Z M3169.0407 95.718197C3178.1681 88.501294 3187.7993 58.698594 3186.6436 41.247931C3185.9473 30.734065 3184.4554 27.510987 3183.5386 34.540054C3182.0422 46.013997 3179.6565 57.858677 3177.8063 63.0C3174.7935 71.372094 3170.1278 80.574388 3167.8512 82.63469C3165.8547 84.441467 3165.7605 84.422881 3163.4806 81.772382C3160.1155 77.860152 3158.2261 67.166044 3157.514 48.0C3157.1769 38.925 3156.5405 29.7 3156.0998 27.5L3155.2986 23.5L3153.6932 27.112695C3149.8571 35.745693 3148.7272 60.391232 3151.5478 73.911152C3155.0357 90.629992 3162.9686 100.51932 3169.0407 95.718197Z"/>
</svg>
