<svg xmlns="http://www.w3.org/2000/svg"
     width="34.5" height="64.0"
     viewBox="2235.9898 16.9619 47.6898 88.5834">
  <path d="M 2275.875,66.09375 C 2275.5819,65.126926 2275.2995,61.295184 2275.25,56.4375 2275.1969,51.218725 2274.8502,45.657098 2274.5,44.0625 2274.0729,42.117945 2274.5048,39.913238 2275.8125,37.34375 2276.8848,35.236687 2278.2465,31.807891 2278.8125,29.75 2279.6796,26.597102 2279.5353,25.653038 2277.9688,23.75 L 2276.125,21.5 2270.5938,27.3125 2265.0625,33.125 2261.9688,28.125 C 2258.8706,23.090002 2255.6319,20.961896 2253.8125,22.78125 2253.2745,23.319289 2252.5858,25.603939 2252.2812,27.875 2251.5041,33.669868 2254.142,39.886386 2259.5312,44.9375 2263.7125,48.856463 2264,49.444751 2264,54.3125 2264,60.269842 2262.5749,66.023867 2260.8438,67.09375 2258.107,68.7852 2248.438,62.579689 2247.4062,58.46875 2246.4916,54.824999 2244.2482,55.480568 2243.0625,59.75 2241.5402,65.231502 2241.7474,68.473692 2243.8438,71.0625 2245.6432,73.284689 2245.6672,73.45308 2243.9062,76.4375 2242.9063,78.132295 2241.5761,81.855771 2240.9688,84.6875 2239.9898,89.252336 2240.1204,90.283261 2241.9688,93.90625 2244.3575,98.588841 2246.4879,99.158792 2247.4375,95.375 2248.4041,91.524002 2252.1116,84 2253.0312,84 2253.4695,84 2254.7544,87.017475 2255.9062,90.6875 2257.0583,94.357525 2258.7468,98.182525 2259.6562,99.1875 2261.79,101.54531 2262.1909,101.48618 2264.9375,98.5625 2266.7678,96.61429 2267.4157,94.342439 2268.125,87.34375 2268.6138,82.522176 2269.4353,78.189623 2269.9375,77.6875 2270.1194,77.50561 2270.7108,77.710073 2271.2188,77.84375 L 2271,76.5 2273.0312,71.96875 C 2272.9781,71.823297 2272.655,71.490982 2272.6875,71.40625 2272.94,70.748133 2273.3196,70.425905 2273.8125,70.28125 L 2275.5,66.5 2275.875,66.09375 z M 2256.375,26 C 2257.835,26 2261.7514,32.815131 2263.4062,38.25 2264.3052,41.202512 2265.8443,40.210308 2268.4688,35.03125 2270.8209,30.389317 2274.526,26 2276.0625,26 2277.6797,26 2275.014,34.380061 2272.5938,36.90625 2270.2811,39.32017 2270.0509,40.054799 2270.9688,42.46875 2271.5487,43.994233 2272.3128,49.192726 2272.6562,54.03125 2273.3211,63.397317 2272.2235,68.080637 2267.875,74.1875 2266.7746,75.732835 2265.1153,77.409717 2264.1875,77.90625 2260.5359,79.860529 2249.372,73.602592 2246.0312,67.71875 2244.3192,64.703314 2245.3435,63.012895 2247.8125,64.78125 2251.995,67.776885 2259.9203,71.233766 2261.3438,70.6875 2264.203,69.590305 2266.3334,63.736514 2266.8125,55.65625 L 2267.2812,47.8125 2261.5,42 C 2256.2993,36.74449 2255.6585,35.670926 2255.2188,31.09375 2254.8116,26.855411 2255.0085,26 2256.375,26 z M 2247.0312,76.5 C 2248.0779,76.167823 2250.0697,76.656548 2251.5,77.59375 2254.0357,79.255188 2254.0593,79.339643 2252.25,81.40625 2251.2349,82.565713 2249.1777,85.4125 2247.6875,87.75 2244.7437,92.367356 2244.4621,92.552087 2243.4062,90.84375 2241.4542,87.685328 2244.0487,77.44663 2247.0312,76.5 z M 2262.25,81.53125 C 2264.8567,81.35902 2266.7745,81.54405 2266.5312,81.9375 2266.2882,82.330949 2265.8059,85.083102 2265.4688,88.03125 2265.1318,90.979398 2264.4396,94.19099 2263.9062,95.1875 2262.3184,98.154452 2261.3931,97.312257 2259.6562,91.25 2256.9173,81.689734 2256.8872,81.885581 2262.25,81.53125 z"/>
</svg>
