<svg xmlns="http://www.w3.org/2000/svg"
     width="39.8" height="64.0"
     viewBox="5820.5000 16.0527 52.3162 84.1222">
  <path d="M 5825.7188 76.375 L 5825.5 76.5 L 5824.5 89.5 L 5824.625 90.25 C 5825.8549 90.079124 5827.5603 90.839722 5830.5 92.5625 C 5835.8839 95.717696 5843.5607 96.174899 5847.5 93.59375 C 5848.9578 92.638599 5851.5318 89.87514 5853.25 87.4375 C 5854.9682 84.999861 5856.6855 83 5857.0625 83 C 5857.4394 83 5859.3533 83.681371 5861.3125 84.5 C 5864.4967 85.830422 5865.0432 85.800519 5866.4375 84.40625 C 5868.8162 82.027474 5868.3841 80.793379 5863.5 76 C 5858.2992 70.895808 5857.9782 68.846156 5860.5625 56.8125 C 5862.9398 45.742944 5862.9556 31.443282 5860.5938 26.6875 C 5859.5491 24.583811 5857.6884 22.194607 5856.4375 21.375 C 5854.4194 20.052686 5853.8287 20.056571 5851.2188 21.40625 C 5846.5752 23.807531 5844.7657 28.863958 5844.7812 39.40625 C 5844.7887 44.406264 5845.5213 52.490456 5846.4062 57.375 C 5848.4692 68.761876 5848.3924 72.524549 5846.0625 77.65625 C 5842.8415 84.750233 5839.74 85.084457 5829.4688 79.34375 C 5827.4594 78.220711 5826.3973 77.435442 5825.7188 76.375 z M 5853.2812 23.1875 C 5854.7091 23.408964 5856.2342 24.853316 5857.7812 27.5 C 5859.9434 31.198968 5860.0738 32.290208 5859.5938 42 C 5859.3083 47.775 5858.3792 56.032868 5857.5312 60.34375 C 5855.2459 71.960861 5855.3923 72.659207 5860.5625 77.40625 C 5865.409 81.856092 5865.5961 83.877842 5860.9375 81.46875 C 5856.6049 79.228291 5855.2492 79.665732 5852.375 84.21875 C 5850.9153 86.531113 5848.7535 89.186911 5847.5938 90.15625 C 5844.1124 93.06623 5836.4975 92.551647 5830.25 88.96875 C 5826.1375 86.610271 5825 85.411225 5825 83.46875 C 5825 82.104875 5825.2459 81 5825.5312 81 C 5825.8167 81 5828.5642 82.35 5831.6562 84 C 5834.7482 85.65 5838.231 87 5839.4062 87 C 5842.5095 87 5845.7716 84.3999 5847.9062 80.1875 C 5850.9361 74.208407 5851.2326 69.330907 5849.2812 59 C 5846.8822 46.298352 5846.8974 30.655095 5849.3125 26.1875 C 5850.513 23.966945 5851.8534 22.966036 5853.2812 23.1875 z "/>
</svg>
