<svg xmlns="http://www.w3.org/2000/svg"
     width="34.1" height="64.0"
     viewBox="776.2188 16.6250 47.8800 89.9225">
  <path d="M 784.375 86.40625 L 780.21875 98.375 C 781.76756 98.50658 783.83381 99.050459 785.46875 99.96875 C 790.06007 102.54754 793.28358 102.53946 797.96875 99.90625 C 802.87123 97.150903 805.77394 91.066186 807.15625 80.65625 C 808.39236 71.347242 809.58676 68.21176 811.28125 69.90625 C 812.89766 71.522664 817.54354 71.230073 819.03125 69.4375 C 820.0987 68.151302 819.84196 66.928314 817.53125 62.09375 C 814.86917 56.524024 814.79553 55.846642 815.46875 46.375 C 816.0852 37.702146 815.90024 35.805011 814.0625 30.90625 C 812.91008 27.83434 810.84496 24.261629 809.46875 22.96875 L 806.96875 20.625 L 804.25 22.65625 C 796.90697 28.101321 793.87662 41.804668 795.84375 60.84375 C 797.54811 77.339665 797.50514 83.114196 795.625 86.75 C 793.35584 91.138062 792.48875 91.417434 788.1875 89 L 784.375 86.84375 L 784.375 86.40625 z M 805.3125 25.53125 C 806.36266 25.108558 807.27225 25.77109 808.625 27.34375 C 812.27021 31.581559 813.29418 37.24812 812.53125 48.75 C 811.90362 58.211866 812.05222 59.28073 814.125 62.96875 C 815.35943 65.165131 816.14675 67.197004 815.875 67.46875 C 815.60325 67.740497 813.91783 67.567713 812.15625 67.0625 C 809.37181 66.263932 808.7795 66.437046 807.46875 68.4375 C 806.63951 69.703085 805.2668 74.935065 804.4375 80.0625 C 802.85924 89.820626 800.63901 94.714745 796.53125 97.40625 C 793.25072 99.555739 790.24105 99.367281 785.75 96.71875 C 781.74636 94.357659 781.63616 94.132104 782.8125 92.28125 C 783.40702 91.345837 784.45952 91.392235 787.5 92.4375 C 792.62018 94.197735 795.05435 93.200105 797.5 88.40625 C 799.17193 85.128999 799.44267 83.023691 799.125 75.5 C 798.91601 70.55 798.67974 59.3 798.625 50.5 C 798.52707 34.754448 798.57252 34.443439 801.21875 30.34375 C 803.06496 27.483498 804.26234 25.953942 805.3125 25.53125 z "/>
</svg>
