<svg xmlns="http://www.w3.org/2000/svg"
     width="35.2" height="64.0"
     viewBox="3906.0000 14.6202 49.0445 89.2947">
  <path d="M 3912.3125 82 L 3911.6875 87.40625 C 3912.4321 86.944591 3913.793 87.238344 3916 88.5 C 3922.2939 92.097918 3926.7972 88.825851 3930 78.28125 C 3931.8804 72.090336 3931.9709 70.459843 3931.0312 63.40625 C 3927.8621 39.614235 3927.7529 38.017242 3928.9375 33.3125 C 3931.3957 23.550105 3936.674 20.219112 3941 25.71875 C 3942.8151 28.026192 3943.0786 29.451704 3942.75 34.96875 C 3942.5363 38.555946 3941.5694 44.370235 3940.5938 47.875 C 3938.9466 53.7925 3938.9453 54.530185 3940.4375 58.4375 C 3941.3213 60.75169 3943.3909 63.959804 3945.0312 65.53125 C 3948.7992 69.141249 3949.2113 72.006038 3945.625 69.65625 C 3940.1847 66.09163 3936.6562 68.905611 3935.5 77.71875 C 3935.1239 80.585625 3933.9574 84.625582 3932.9062 86.6875 C 3931.8551 88.749419 3931 90.97873 3931 91.65625 C 3931 92.33377 3930.0036 93.581313 3928.7812 94.4375 C 3925.4173 96.79365 3923.0524 96.506656 3915.25 92.71875 C 3913.0021 91.627445 3911.7942 90.467405 3911.375 89.4375 L 3910 94 L 3910.0312 94.1875 L 3914.2188 96.3125 C 3919.8942 99.236835 3927.4109 99.914857 3930.2812 97.75 C 3932.753 95.88567 3936.8158 85.902865 3937.9375 78.9375 C 3939.2648 70.696003 3940.3531 69.451807 3943.9688 72.125 C 3947.7776 74.941039 3950.4335 74.278121 3950.8125 70.40625 C 3951.0445 68.035888 3950.1884 66.220262 3947.0625 62.4375 C 3942.6764 57.129781 3941.919 53.106028 3944.0312 46 C 3947.5778 34.068275 3947.1122 27.01854 3942.4688 22.375 C 3938.7139 18.620163 3934.8426 19.197729 3930.625 24.125 C 3924.6383 31.119111 3924.0901 38.791678 3928.0625 60.5 C 3930.0836 71.545114 3927.2183 84.204792 3922.25 86.09375 C 3920.2894 86.83916 3918.8821 86.533816 3915.625 84.625 C 3914.0009 83.673231 3913.0519 82.961672 3912.3125 82 z "/>
</svg>
