<svg xmlns="http://www.w3.org/2000/svg"
     width="64.0" height="50.1"
     viewBox="4499.9950 17.2323 90.4348 70.8054">
  <path d="M4526.5182 81.029368C4525.7967 79.861997 4528.2488 74.86834 4530.4341 73.054723C4532.7277 71.151135 4532.348 66.976453 4529.5 62.785188C4528.125 60.761694 4527.0 58.664274 4527.0 58.124256C4527.0 57.584237 4525.4556 55.50491 4523.5681 53.503529C4520.1767 49.907554 4520.1054 49.88486 4517.5204 51.578585C4514.6015 53.491131 4512.0 58.840956 4512.0 62.930994C4512.0 64.408705 4511.4217 66.40857 4510.715 67.375138C4509.4917 69.048085 4509.3523 69.045256 4507.8143 67.316268C4505.8938 65.157102 4504.0134 58.752902 4504.0056 54.344501C4503.995 48.339417 4511.5236 37.65965 4516.6797 36.365551C4517.9943 36.035611 4521.2155 36.86769 4524.5713 38.404021C4527.69 39.83181 4530.6006 41.0 4531.0393 41.0C4531.478 41.0 4532.8691 39.3125 4534.1308 37.25C4535.3924 35.1875 4538.6444 31.1375 4541.3574 28.25C4547.7463 21.450112 4550.7102 21.232326 4557.3479 27.075027C4559.8941 29.316292 4562.7087 32.691292 4563.6026 34.575027C4565.5265 38.629292 4566.2443 38.710992 4571.5 35.473914C4576.5247 32.37913 4579.4436 32.352653 4582.4654 35.374444C4585.6895 38.598566 4586.4298 44.857195 4584.5966 53.391894C4582.6502 62.453124 4581.5966 63.402517 4578.0949 59.25C4576.5876 57.4625 4574.8322 56.0 4574.194 56.0C4573.5558 56.0 4571.9097 58.218154 4570.5359 60.929231C4567.549 66.823444 4566.6523 67.509396 4564.607 65.464189C4562.9166 63.773753 4560.6359 56.657807 4560.7991 53.583254C4560.9732 50.302908 4556.0261 41.154781 4552.8582 38.899015C4550.2197 37.020237 4549.5319 36.912545 4547.4133 38.046414C4544.8847 39.399664 4540.0 46.80639 4540.0 49.287238C4540.0 50.074343 4541.581 54.140169 4543.5133 58.322408C4546.5823 64.964865 4546.9148 66.423948 4546.1427 69.860264C4544.8691 75.528763 4538.0 84.037759 4538.0 79.946946C4538.0 79.367767 4539.125 77.238306 4540.5 75.214812C4543.6693 70.550818 4543.6473 67.491791 4540.3929 60.278513C4536.2398 51.073505 4536.0756 49.939103 4538.2533 45.5C4545.0032 31.740852 4554.4658 31.67224 4561.0839 45.334458C4562.7117 48.694838 4563.8043 52.067476 4563.512 52.829208C4562.8826 54.469434 4564.758 62.0 4565.7958 62.0C4566.1911 62.0 4567.7377 59.975 4569.2327 57.5C4572.3 52.421858 4575.4152 51.591338 4578.5214 55.023629C4580.9934 57.755205 4581.8705 56.532726 4582.6262 49.301997C4583.4201 41.706421 4582.6497 38.471809 4579.5654 36.450876C4577.3425 34.994406 4576.8592 35.031162 4573.1147 36.941492C4570.8884 38.077264 4568.586 39.905063 4567.9983 41.003266C4566.2853 44.203922 4564.6392 43.35185 4562.0664 37.932764C4559.5592 32.651905 4551.7436 25.017728 4548.8328 25.006456C4546.5163 24.997485 4537.4486 35.507797 4534.8188 41.25C4533.6224 43.8625 4532.2805 46.0 4531.8368 46.0C4531.3931 46.0 4528.8858 44.697575 4526.265 43.105722C4523.6443 41.513869 4520.15 39.939547 4518.5 39.60723C4515.8799 39.079527 4515.0728 39.519415 4512.1267 43.08106C4508.614 47.327716 4507.0644 51.916189 4507.0239 58.190983C4506.9897 63.470901 4508.7067 63.80439 4510.0572 58.780174C4511.2387 54.385164 4517.7636 47.0 4520.4652 47.0C4522.3093 47.0 4527.6632 52.441552 4529.6706 56.356119C4530.5573 58.085254 4532.1192 60.573186 4533.1414 61.884859C4536.1146 65.699945 4535.5151 70.605678 4531.3338 76.676815C4527.3347 82.483361 4527.3873 82.435747 4526.5182 81.029368Z"/>
</svg>
