<svg xmlns="http://www.w3.org/2000/svg"
     width="25.2" height="64.0"
     viewBox="1302.5465 13.7558 36.1893 91.8109">
  <path d="M1307.3189 99.388533C1306.9787 98.502227 1307.4627 96.48664 1308.3944 94.909451C1314.2503 84.99625 1314.5927 44.50099 1308.9364 30.814619C1306.7659 25.562761 1306.5465 24.0 1307.9797 24.0C1308.5185 24.0 1309.9142 25.871737 1311.0813 28.159415C1316.7928 39.354874 1317.9067 72.891215 1313.1768 91.25C1312.1472 95.246152 1312.7508 95.797084 1315.9616 93.791882C1317.4307 92.874436 1319.1718 92.848265 1323.1981 93.683107C1326.1141 94.287745 1328.693 94.600864 1328.929 94.378926C1329.1649 94.156988 1328.4479 92.743437 1327.3356 91.237701C1324.6662 87.623905 1323.5 75.846387 1323.5 52.5L1323.5 34.5L1326.8234 28.75C1328.6513 25.5875 1330.5638 23.0 1331.0734 23.0C1332.319 23.0 1332.3403 22.920184 1329.537 28.731333C1327.7061 32.526504 1326.859 36.48877 1326.2366 44.168486C1324.9596 59.926503 1327.5193 86.177349 1330.9978 92.995743C1334.7358 100.32272 1332.7682 101.29012 1323.2366 96.811763L1318.9733 94.808654L1314.1491 97.904327C1308.5888 101.47237 1308.1547 101.5667 1307.3189 99.388533Z M1313.4786 24.976371C1312.2352 23.602452 1311.9743 22.62566 1312.666 21.93399C1313.3577 21.242319 1314.0957 21.410436 1314.9648 22.457618C1316.8123 24.683632 1319.0123 24.362435 1322.0856 21.418003C1325.9081 17.75576 1326.9189 20.234939 1323.1428 24.011067C1319.6598 27.494044 1316.0806 27.851551 1313.4786 24.976371Z"/>
</svg>
