<svg xmlns="http://www.w3.org/2000/svg"
     width="64.0" height="55.1"
     viewBox="512.4813 16.7187 96.7676 83.2448">
  <path d="M 566.78125,21 C 566.04505,21 563.04797,22.575 560.125,24.5 557.20204,26.425 554.20829,28 553.46875,28 552.72921,28 551.18299,26.679973 550.03125,25.0625 547.44491,21.430314 545.42134,20.718651 541.0625,21.96875 535.90555,23.447745 533,26.692791 533,30.96875 533,36.742446 537.75009,41 544.21875,41 L 548,41 548,46 C 548,48.75 547.68013,51 547.28125,51 546.88237,51 543.50901,49.806286 539.78125,48.34375 534.12944,46.126338 532.5921,45.859279 530.5,46.8125 523.39395,50.050237 516.48128,70.346339 518.875,81 520.1169,86.52732 524.26529,90.935647 526.75,89.375 528.14539,88.498552 528.61653,86.310703 529.0625,78.25 529.55813,69.291909 529.89616,67.8027 532.34375,64.59375 533.85352,62.614339 535.49941,61 536,61 537.89022,61 541.36469,65.752733 544.625,72.8125 548.27627,80.718846 548.21179,81.61792 543.59375,85.9375 542.16825,87.270873 541,88.958373 541,89.6875 541,92.050558 542.67101,91.089447 546.1875,86.75 551.23313,80.52354 551.34246,79.704613 547.9375,71.6875 544.61826,63.872228 539.77443,58 536.625,58 535.52838,58 532.97004,59.847823 530.9375,62.09375 527.08739,66.348078 526.37835,68.784508 526.0625,78.96875 525.96909,81.980788 525.63323,84.680788 525.34375,84.96875 525.05428,85.256711 523.95891,84.423431 522.90625,83.125 520.14672,79.721172 520.40045,71.629279 523.5625,62.1875 526.92379,52.150784 531.85335,46.972911 535.3125,49.84375 537.48509,51.646835 548.03842,55.197851 549.53125,54.625 550.62068,54.206945 551.01147,52.238333 551,46.78125 550.99158,42.776488 550.63239,38.962952 550.21875,38.3125 549.78659,37.632923 547.50507,37.209502 544.84375,37.3125 537.32384,37.603532 533.26173,31.699632 537.65625,26.84375 540.25814,23.96869 546.54187,24.351991 548.625,27.53125 551.67429,32.185046 553.16103,32.242753 559.59375,27.96875 566.23632,23.555325 568.46672,23.130939 569.96875,25.9375 572.0674,29.858875 570.68026,36.527739 568.5,33 567.2196,30.928274 563.19613,32.128964 559.28125,35.75 L 555.21875,39.5 555.71875,47 C 555.99703,51.125 556.57813,54.884453 557,55.34375 557.42187,55.803048 559.66174,54.9876 561.96875,53.53125 565.81806,51.101289 566.35801,50.981216 568.4375,52.34375 569.6838,53.160358 572.14527,56.144555 573.9375,58.9375 575.72972,61.730445 577.79761,64 578.5,64 580.09525,64 584.62697,58.107805 586.5,53.625 587.27519,51.769713 588.39375,47.318111 588.96875,43.71875 L 590,37.15625 585.8125,31.09375 C 583.50417,27.748614 581.25752,25 580.8125,25 579.00502,25 580.20505,28.508664 583.59375,33.125 586.98086,37.739173 587.15836,38.309482 586.5,43.25 585.70647,49.204762 582.52134,57.33371 580.25,59.21875 578.97302,60.278553 578.47197,60.078445 577.125,58 576.2388,56.632554 573.835,53.698505 571.8125,51.5 567.87641,47.221397 568.40086,47.268836 560.84375,50.4375 559.47892,51.009766 559.13634,50.310868 558.78125,46.3125 558.23673,40.181074 558.31278,39.975733 562.625,37.03125 L 566.25,34.5625 567.875,36.65625 C 568.77156,37.807118 570.02847,39.59729 570.6875,40.625 572.49196,43.43893 573.98117,40.677756 574,34.40625 574.02539,25.948164 571.34634,21 566.78125,21 z M 586.25,22.5625 C 585.25951,22.582292 585.53504,24.651598 587.625,27.84375 589.12169,30.129756 590.96418,32 591.71875,32 593.09295,32 600,25.877336 600,24.65625 600,23.270834 597.22153,24.097736 595.5,26 593.08435,28.669261 592.31027,28.537286 589.28125,24.9375 587.88251,23.275189 586.84429,22.550625 586.25,22.5625 z M 604.71875,28.4375 C 604.18858,28.155136 602.56309,28.969327 600.3125,31.125 596.38487,34.886983 595.75339,36.26505 592.96875,46.65625 589.89181,58.138213 582.82984,70 579.09375,70 578.24307,70 575.00871,67.476012 571.875,64.375 564.14704,56.727677 561.78922,57.913577 558.28125,71.375 L 556.5,78.21875 558.8125,79.875 C 560.08178,80.776339 563.14833,83.1875 565.625,85.25 566.31624,85.825647 566.99281,86.207297 567.6875,86.65625 L 568.65625,83.28125 C 567.65848,82.56911 566.51174,81.809013 566,81.34375 565.175,80.593672 563.41215,79.155849 562.09375,78.15625 L 559.71875,76.34375 561.5,70.6875 C 564.19369,62.123551 564.90421,61.971591 571.9375,68.4375 575.26871,71.499978 578.6022,74 579.375,74 581.06534,74 586.68645,67.79055 588.3125,64.125 588.95342,62.680199 590.27279,60.637968 591.21875,59.59375 592.76843,57.883093 594.32377,53.499665 598.15625,40.09375 598.84676,37.678358 600.84433,34.198682 602.59375,32.34375 604.69954,30.110958 605.24892,28.719864 604.71875,28.4375 z M 565.90625,92.96875 566.84375,89.65625 C 563.90709,88.351171 560.87647,86.566098 560.125,85.65625 559.37015,84.74232 558.22568,84 557.59375,84 555.87126,84 543.27301,95.8828 544.9375,95.9375 545.72711,95.963449 548.58798,94.109848 551.3125,91.8125 556.17173,87.715132 556.31408,87.692162 558.875,89.3125 561.41551,90.919926 563.71513,92.039486 565.90625,92.96875 z"/>
</svg>
