<svg xmlns="http://www.w3.org/2000/svg"
     width="27.1" height="64.0"
     viewBox="3952.2301 15.2948 38.6845 91.3735">
  <path d="M3961.3497 95.380508C3961.6977 93.796229 3962.4491 90.25 3963.0195 87.5C3964.5261 80.235934 3964.094 51.14078 3962.3141 40.0C3961.379 34.147149 3959.8833 28.909043 3958.4181 26.355915C3956.3457 22.74489 3956.2301 22.053922 3957.519 20.984221C3959.5546 19.294807 3963.7547 21.119943 3968.0649 25.56694C3969.895 27.455123 3971.8059 29.0 3972.3113 29.0C3972.8167 29.0 3974.7181 27.375702 3976.5365 25.39045C3978.3549 23.405197 3980.3884 21.962786 3981.0553 22.185093C3981.9624 22.487474 3981.9156 22.955873 3980.8695 24.044643C3980.1005 24.845089 3977.9774 27.4125 3976.1516 29.75C3972.4331 34.510584 3971.8255 34.739927 3969.5283 32.25C3964.7595 27.081251 3960.5667 23.099965 3960.2381 23.428558C3960.0332 23.633474 3961.0587 26.155693 3962.517 29.03349C3965.1615 34.252252 3965.8 40.004916 3967.1751 71.0C3967.5286 78.969734 3964.0918 97.151291 3962.1085 97.803455C3961.0468 98.15255 3960.8669 97.57818 3961.3497 95.380508Z M3981.6354 101.21914C3981.3341 100.73159 3979.2516 99.060353 3977.0076 97.505265L3972.9276 94.677831L3969.6662 97.838915C3966.3861 101.01816 3964.0 101.90446 3964.0 99.943629C3964.0 98.560292 3969.9428 93.152942 3972.2774 92.411944C3973.2787 92.094154 3975.0884 92.543355 3976.299 93.410169C3977.5095 94.276982 3979.5842 95.766765 3980.9092 96.720796C3982.8069 98.087104 3983.1931 98.14165 3982.7282 96.977699C3979.0133 87.677764 3976.9758 71.976203 3976.9904 52.760727C3977.0006 39.236061 3978.4126 33.10479 3982.8022 27.524271C3985.432 24.181143 3986.5805 25.976836 3984.4489 30.098816C3980.814 37.127969 3979.9675 42.460492 3980.3922 55.655251C3981.1188 78.22904 3982.0599 86.054045 3984.6777 91.288255C3986.7786 95.488864 3986.9146 96.40025 3985.7862 98.714413C3984.4116 101.53356 3982.5311 102.66833 3981.6354 101.21914Z"/>
</svg>
