<svg xmlns="http://www.w3.org/2000/svg"
     width="51.2" height="64.0"
     viewBox="1904.0069 18.0043 74.4306 92.9957">
  <path d="M 1974.1875 58.65625 C 1972.5339 58.244397 1970.5305 57.279546 1967.0312 55.3125 L 1962.4375 52.75 L 1956.875 55.375 C 1953.8156 56.822327 1950.8304 58 1950.25 58 C 1948.5172 58 1947.5564 46.189183 1949.0625 43.375 C 1950.5183 40.654821 1955.1619 38.95444 1955.8125 40.90625 C 1956.0371 41.58004 1957.2868 43.336923 1958.5938 44.8125 C 1960.6033 47.081307 1961.1013 47.268497 1961.9375 46 C 1965.2924 40.910737 1963.7027 31.609005 1958.5938 26.5 C 1955.2032 23.109456 1952.4 23.349693 1946.5625 27.5 C 1943.8549 29.425 1941.0969 31 1940.4062 31 C 1939.7154 31 1938.1808 29.658299 1937 28 C 1934.27 24.166198 1930.135 22.004303 1927.5 23.03125 C 1926.4 23.459957 1924.037 25.31917 1922.25 27.1875 C 1919.7247 29.827536 1918.9735 31.53355 1918.8438 34.84375 C 1918.5593 42.106367 1923.3914 44.858875 1932.5312 42.59375 C 1935.5064 41.856402 1935.6049 41.947711 1936.8438 46.78125 C 1938.4003 52.854559 1937.56 57 1934.7812 57 C 1933.6832 57 1930.55 55.875 1927.8125 54.5 C 1919.5533 50.351657 1918.1448 50.937756 1912.7812 60.75 C 1908.0069 69.484266 1908.375 97.07921 1913.3125 100.21875 C 1916.2773 102.10393 1916.7245 100.79166 1917.25 88.625 C 1917.8054 75.764183 1919.1242 71.026884 1923.125 67.40625 C 1925.0394 65.673747 1925.1969 65.735027 1928.9062 69.5625 C 1933.5445 74.348379 1936.9949 79.831698 1937 82.4375 C 1937.002 83.497446 1935.6408 85.522446 1933.9688 86.9375 C 1930.7194 89.687604 1929.2504 94.832076 1930.4062 99.4375 C 1931.3257 103.1009 1933.063 102.62112 1937.3438 97.5 C 1939.4126 95.025 1941.6578 93 1942.3438 93 C 1944.32 93 1950.8206 100.18737 1952.0625 103.75 C 1952.978 106.37614 1953.7338 107 1956.0312 107 C 1957.9946 107 1959.0572 106.39523 1959.5 105 C 1959.5051 104.98388 1959.526 104.98469 1959.5312 104.96875 L 1959.8438 96.03125 L 1959.7812 96.125 L 1958.375 93.40625 C 1957.5982 91.908928 1955.8418 89.560562 1954.4688 88.1875 C 1950.6157 84.334517 1950.4159 81.66282 1953.5 74.40625 C 1957.4116 65.202572 1960.5176 63.928753 1966.8125 68.9375 C 1969.59 71.147475 1972.0958 72.352094 1974.4375 72.625 L 1974.375 69.625 C 1972.2805 69.193967 1969.7609 67.900348 1966.6875 65.34375 C 1962.3942 61.772393 1958.7917 62.252276 1954.7812 66.9375 C 1951.565 70.694977 1948 79.474936 1948 83.625 C 1948 84.688647 1950.025 87.741714 1952.5 90.4375 C 1956.1698 94.434719 1957 96.052313 1957 99.125 C 1957 103.68721 1955.4616 105.05826 1954.6875 101.1875 C 1954.3703 99.601676 1951.9389 96.346777 1949.0625 93.65625 L 1944.0312 88.9375 L 1940.75 90.625 C 1938.9571 91.545826 1936.4875 93.363047 1935.25 94.6875 L 1933 97.09375 L 1933 94.5 C 1933 91.65157 1937.0195 87 1939.4688 87 C 1943.6802 87 1938.7917 75.180013 1931.2188 67 C 1925.3242 60.633095 1924.5042 60.713402 1919.3438 68.3125 C 1916.9481 71.840012 1915.9949 74.587981 1915.4688 79.5 C 1914.472 88.807949 1914.1383 92.22759 1914.0312 94.5 C 1913.9379 96.483118 1913.914 96.484747 1912.7812 94.53125 C 1912.0855 93.33158 1911.6819 87.839561 1911.7188 80.46875 C 1911.7734 69.536554 1912.0251 67.814501 1914.4062 62.78125 C 1918.4363 54.262447 1918.5803 54.212561 1928.5625 58.5 C 1937.9423 62.5287 1938.7472 62.414675 1939.9062 56.84375 C 1940.6128 53.447585 1938.9302 39.586421 1937.6562 38.3125 C 1937.2729 37.929043 1934.6677 38.356929 1931.875 39.25 C 1925.8351 41.181487 1922.374 40.293758 1921.4375 36.5625 C 1920.7562 33.847682 1923.2879 28.48264 1926.0938 26.71875 C 1928.7321 25.060171 1932.6605 26.746608 1934.875 30.5 C 1937.3416 34.680613 1939.9499 35.005707 1944.9062 31.75 C 1953.7115 25.9659 1955.0025 25.765831 1957.9062 29.84375 C 1960.332 33.250422 1961.8473 41 1960.0938 41 C 1959.4563 41 1958.6661 40.309029 1958.3438 39.46875 C 1957.125 36.292764 1954.1293 35.749625 1950.4375 38.03125 C 1945.463 41.105688 1944.7049 43.113501 1945.5 51.03125 C 1945.9866 55.87642 1946.7577 58.356351 1948.125 59.59375 C 1949.9658 61.259667 1950.298 61.213129 1955.8438 58.5625 L 1961.6562 55.8125 L 1967.2812 59.40625 C 1970.3525 61.370903 1972.4035 62.2723 1974.25 62.53125 L 1974.1875 58.65625 z "/>
</svg>
