<svg xmlns="http://www.w3.org/2000/svg"
     width="29.9" height="64.0"
     viewBox="3578.7500 16.8955 41.3340 88.3918">
  <path d="M 3594.8125 21.375 C 3593.5422 20.895499 3592.4964 21.625403 3591.5312 23.5 C 3590.9674 24.595128 3588.7581 28.093045 3586.625 31.28125 L 3582.75 37.09375 L 3586.4375 44.15625 C 3590.769 52.424762 3591.0193 56.385977 3588.5625 77.1875 C 3587.2087 88.649525 3587.225 90.29932 3588.6562 94.5 C 3589.6272 97.349587 3591.0689 99.472666 3592.375 100 C 3595.5633 101.28728 3597.7797 101.15018 3601.0312 99.46875 C 3607.6167 96.063282 3609.8369 83.634912 3606.0312 71.5 C 3603.5409 63.558581 3602.2768 47.364992 3603.7188 42 C 3604.6421 38.564805 3604.7418 38.518907 3609.3125 38.84375 C 3613.503 39.14157 3614.0946 38.892643 3615.1562 36.5625 C 3616.084 34.526002 3616.0417 33.446351 3615 31.5 C 3613.1106 27.969623 3610.5083 27.522789 3606.5 30 L 3603.0625 32.125 L 3599.4688 26.5 C 3597.5806 23.548326 3596.0828 21.854501 3594.8125 21.375 z M 3594.875 26.03125 C 3595.8256 26.320728 3596.8486 27.770219 3598.5312 30.0625 L 3602.25 35.09375 L 3601.125 44.28125 C 3599.8541 54.866417 3600.6887 63.277113 3603.9375 72.84375 C 3605.5276 77.526041 3605.9306 80.420132 3605.4688 83.84375 C 3604.5043 90.994523 3603.0376 94.853898 3600.6875 96.5 C 3596.8593 99.181386 3592.8135 97.57002 3591.3438 92.78125 C 3590.2319 89.158638 3591.2903 69.298764 3592.9062 63.40625 C 3594.1108 59.014194 3592.3993 49.409657 3589.3125 43.25 C 3587.0799 38.795098 3586.8469 37.663034 3587.875 35.75 C 3591.8893 28.280129 3593.2907 25.548787 3594.875 26.03125 z M 3610.1875 31.3125 C 3610.7045 31.402623 3611.0982 31.7993 3611.6562 32.5625 C 3612.3874 33.562258 3613 34.742621 3613 35.1875 C 3613 36.566457 3608.3157 36.072509 3607.0625 34.5625 C 3606.1096 33.414402 3606.2994 32.897833 3608.0938 31.9375 C 3609.0323 31.435198 3609.6705 31.222377 3610.1875 31.3125 z "/>
</svg>
