<svg xmlns="http://www.w3.org/2000/svg"
     width="49.6" height="64.0"
     viewBox="3380.9924 12.5567 27.4834 35.4433">
  <path d="M 3390.4375 43.875 L 3392 44 L 3398.75 43.25 C 3398.718 42.851158 3398.642 42.429434 3398.75 42.125 C 3399.0183 41.36875 3400.062 39.938073 3401.0625 38.9375 C 3403.1655 36.834547 3404.4758 31.077453 3403.625 27.6875 C 3403.3027 26.403519 3401.9245 24.157134 3400.5625 22.6875 C 3394.8806 16.556681 3384.9924 21.322752 3385 30.1875 C 3385.0035 34.163438 3385.9342 36.304212 3390.1875 42.1875 C 3390.5592 42.701754 3390.5931 43.232448 3390.4375 43.875 z M 3394.2812 23 C 3401.0781 23 3403.5181 31.862464 3398.4062 37.9375 C 3395.183 41.768212 3393.8549 41.769061 3390.0312 38.03125 C 3387.5655 35.620974 3387 34.245442 3387 30.6875 C 3387 25.324784 3389.2092 23 3394.2812 23 z "/>
</svg>
