<svg xmlns="http://www.w3.org/2000/svg"
     width="31.2" height="64.0"
     viewBox="7771.5000 12.1638 39.2742 80.6083">
  <path d="M 7775.5312 85.75 C 7776.1858 85.987615 7776.2282 86.041235 7777 86.3125 C 7783.9978 88.772156 7787.9236 88.137587 7790 84.25 C 7790.9514 82.468615 7792.2497 80.40973 7792.875 79.65625 C 7795.2534 76.790498 7797.9641 66.4774 7799.0625 56.1875 C 7799.6902 50.307253 7800.8279 43.79238 7801.5938 41.71875 C 7806.7742 27.691397 7794.9223 16.163807 7785.4688 26.03125 C 7781.5773 30.093008 7781.7928 35.864527 7786 40.65625 C 7789.4302 44.563074 7789.5743 45.854514 7787.5312 55.5 C 7786.7157 59.349794 7786.0126 64.075 7786 66 C 7785.9458 74.265246 7782.958 79.200118 7779.25 77.125 C 7778.8005 76.873453 7778.4771 76.291784 7778.2188 75.46875 L 7777 79.96875 C 7777.6951 79.837128 7778.4411 79.729146 7779.5312 79.8125 C 7786.451 80.341588 7786.837 79.536688 7789.25 59.84375 L 7791.4062 42.25 L 7787.6875 38.75 C 7782.1907 33.565821 7782.6446 28.019772 7788.75 25.46875 C 7793.4175 23.518546 7794.433 23.604164 7797.5 26.25 C 7801.3125 29.538996 7802.3415 35.33639 7800.0312 40.4375 C 7799.0203 42.669775 7797.8795 48.1 7797.5 52.5 C 7796.7042 61.72833 7795.2792 67.262789 7790.8125 78.1875 C 7787.2469 86.908274 7786.3229 87.367141 7778.7188 84.25 C 7777.5819 83.783987 7776.8213 83.295102 7776.2188 82.8125 L 7775.5 85.5 L 7775.5312 85.75 z "/>
</svg>
