<svg xmlns="http://www.w3.org/2000/svg"
     width="41.1" height="64.0"
     viewBox="5431.0000 17.9186 57.0000 88.6677">
  <path d="M 5436.1562 82.375 L 5435 82.5 L 5436.2188 84.96875 C 5436.2227 84.963514 5436.2458 84.97361 5436.25 84.96875 C 5436.5864 84.578685 5437.8034 85.39051 5440 87.375 C 5443.2065 90.271901 5444.7975 91 5448.0312 91 C 5454.4962 91 5459.3897 87.897209 5462.4062 81.84375 C 5465.5455 75.544083 5465.6914 70.74219 5463 62.15625 C 5461.9063 58.667408 5461.1762 55.497418 5461.4062 55.125 C 5461.6364 54.752582 5460.9967 50.939756 5459.9688 46.625 C 5458.1205 38.867591 5458.1708 35.142708 5460.2188 29.71875 C 5461.9738 25.070804 5464.423 24.516554 5468.2188 27.90625 C 5471.8861 31.181336 5471.5823 27.928588 5470.7812 56.5 C 5470.5027 66.433832 5471.6338 69.767132 5477.2188 75.65625 C 5480.179 78.777751 5480.1802 78.808021 5478 79.5 C 5476.7693 79.890603 5475.3023 79.708516 5474.6875 79.09375 C 5472.1337 76.539938 5469.9186 77.965487 5467.375 83.75 C 5464.5672 90.135416 5461.8588 93.488444 5457.8125 95.59375 C 5454.3278 97.406842 5450.2245 97.377295 5446.625 95.5 C 5445.0496 94.678389 5442.9322 94 5441.9062 94 C 5441.4164 94 5440.8689 93.580937 5440.3125 93.09375 L 5442.5 97.5 L 5442.5 97.59375 C 5443.0731 97.613153 5443.942 97.906391 5445.4375 98.53125 C 5455.1425 102.58629 5464.9022 97.309636 5469.0625 85.75 L 5470.4062 82 L 5475.0625 82.59375 C 5480.2391 83.280462 5484 81.89322 5484 79.28125 C 5484 78.373497 5482.1979 75.481588 5480 72.875 C 5477.8021 70.268412 5475.5456 66.923391 5474.9688 65.40625 C 5474.3443 63.764019 5474.0432 56.066429 5474.2188 46.40625 C 5474.4941 31.26564 5474.3564 29.994286 5472.4062 27.34375 C 5471.2568 25.78144 5469.0575 23.872763 5467.5312 23.125 C 5465.0691 21.918636 5464.4633 22.005656 5462.125 23.71875 C 5457.625 27.01561 5455.8594 31.650267 5456.3125 39 C 5456.8099 47.069933 5458.8076 58.293295 5460.625 63.28125 C 5464.1339 72.911724 5461.2269 83.762063 5454.375 86.625 C 5449.5925 88.623245 5447.678 88.363285 5440.7188 84.875 C 5437.948 83.486175 5437.1538 82.994609 5436.1562 82.375 z "/>
</svg>
