<svg xmlns="http://www.w3.org/2000/svg"
     width="34.2" height="64.0"
     viewBox="3879.0650 18.0000 46.3647 86.8076">
  <path d="M 3912.3125 82 C 3911.2768 80.653003 3910.692 78.765951 3909.7188 74.53125 C 3906.3393 59.826611 3905.5795 53.435708 3906.5625 48.34375 C 3907.4879 43.549728 3907.5572 43.498306 3911.375 43.46875 C 3918.0071 43.417407 3921.4297 36.429707 3917 32 C 3914.3943 29.394301 3913.4325 29.473631 3910.3438 32.5625 C 3908.9331 33.973093 3907.1914 34.902341 3906.4688 34.625 C 3905.746 34.34766 3904.1528 31.395752 3902.9375 28.0625 C 3901.7221 24.729248 3900.1899 22 3899.5312 22 C 3898.8726 22 3896.8301 24.3625 3895 27.25 C 3890.1651 34.878256 3887.9331 37.110556 3885.8125 36.4375 C 3883.065 35.565495 3883.5372 38.39901 3886.7812 42.21875 C 3892.9279 49.455912 3894.5015 56.942664 3892.875 71.1875 C 3891.8626 80.054224 3891.8886 82.937086 3893.0312 87.71875 C 3895.3029 97.22356 3901.3705 100.80756 3906.6875 95.8125 L 3909 93.65625 L 3910.0312 94.1875 L 3910 94 L 3911.375 89.4375 C 3911.2924 89.234517 3911 89.002509 3911 88.8125 C 3911 88.047357 3911.2817 87.657821 3911.6875 87.40625 L 3912.3125 82 z M 3898.0312 28.84375 C 3899.4656 28.292344 3900.5808 30.439247 3903.4688 36.15625 C 3905.7496 40.671344 3905.7753 40.997025 3904.2812 46.09375 C 3902.6308 51.724185 3903.1352 57.670559 3906.4375 72 C 3908.981 83.03681 3908.2472 91.81046 3904.5938 94.25 C 3898.2744 98.469605 3894.8416 88.030801 3896.2812 69.03125 C 3897.1341 57.776697 3896.3793 52.652856 3892.9375 45.90625 C 3890.2074 40.554935 3890.5163 38.207523 3894.6562 32.5625 C 3896.1951 30.464198 3897.1707 29.174593 3898.0312 28.84375 z M 3913.5312 33.5625 C 3914.3835 33.84327 3915.028 35.022593 3914.8125 36.875 C 3914.6411 38.348515 3913.7779 39.604273 3912.8438 39.78125 C 3910.5343 40.218838 3909.8197 38.616308 3910.9688 35.59375 C 3911.6187 33.884444 3912.679 33.28173 3913.5312 33.5625 z "/>
</svg>
