<svg xmlns="http://www.w3.org/2000/svg"
     width="33.1" height="64.0"
     viewBox="1413.8133 9.6182 49.7781 96.2978">
  <path d="M 1448.2454,92.781061 C 1448.8656,88.555812 1447.5786,84.199118 1444.6263,80.529418 1442.5192,77.910227 1442.0375,77.724014 1440.554,78.955215 1439.5415,79.7955 1439.0796,81.177626 1439.394,82.425797 1440.1686,85.499951 1446.0223,96 1446.9616,96 1447.4079,96 1447.9856,94.551477 1448.2454,92.781061 z M 1432.9441,86.75 C 1432.9892,83.724298 1432.6362,83 1431.1166,83 1430.0088,83 1428.985,83.926551 1428.6303,85.25 1427.7959,88.36364 1427.847,97.513654 1428.7036,98.370261 1429.7853,99.452002 1432.8813,90.968244 1432.9441,86.75 z M 1438.2955,77.595203 C 1442.3188,73.20637 1443.1592,71.93178 1444.029,68.899025 1445.1641,64.940922 1445.5782,49.114863 1444.6213,46.258095 1444.0269,44.483543 1444.3529,43.795937 1446.1852,42.959634 1447.4583,42.378529 1449.5731,40.263721 1450.8847,38.26006 1453.5638,34.167297 1456.3223,24 1454.7536,24 1452.8989,24 1447.299,31.063899 1445.9761,35.072277 1444.3624,39.961924 1442.3752,39.919886 1439.5271,34.935852 1438.4122,32.984903 1435.5304,29.622254 1433.1231,27.463299 L 1428.7461,23.537926 1429.4913,28.018963 C 1430.4909,34.029948 1432.3386,37.392878 1436.1218,40.086708 L 1439.2737,42.331093 1438.587,53.816919 C 1437.8,66.981415 1436.2416,71.921535 1432.801,72.158444 1428.6553,72.443908 1426.6339,71.978698 1424.7971,70.316392 1421.7768,67.583017 1421.5336,69.719429 1424.395,73.848516 1428.8263,80.242874 1434.473,81.764868 1438.2955,77.595203 z M 1427.0025,100.503 C 1426.0369,99.33958 1425.8693,96.622752 1426.3473,89.887693 1426.9883,80.858186 1426.9827,80.828833 1424.0728,77.918932 1422.4684,76.314552 1420.6279,73.402557 1419.9828,71.447832 1417.8133,64.874179 1421.0494,59.986762 1423.9647,65.434055 1425.6152,68.517984 1430.6209,70.728893 1432.8168,69.343788 1435.1207,67.890477 1436.0222,63.667414 1436.2326,53.341924 L 1436.4191,44.183848 1432.268,40.032751 C 1429.1465,36.911192 1427.8264,34.583352 1426.9455,30.646906 1425.3229,23.396727 1425.8416,21.5 1429.4467,21.5 1431.8092,21.5 1433.3327,22.676408 1437.433,27.666895 1440.2199,31.058688 1442.8284,33.871188 1443.2297,33.916895 1443.631,33.962603 1444.8618,32.3125 1445.9649,30.25 1447.0679,28.1875 1449.2971,24.977865 1450.9186,23.117478 1459.1984,13.618225 1459.5914,30.756727 1451.3548,42.134029 1448.1149,46.609293 1447.9878,47.140985 1447.6451,57.65303 1447.4011,65.137841 1446.7847,69.515705 1445.6717,71.667936 1444.1578,74.595593 1444.1716,74.949812 1445.8852,77.148935 1450.9065,83.592819 1452.4466,91.582476 1449.7101,96.991142 1447.7167,100.93112 1445.74,100.49635 1443.1222,95.542208 1441.8145,93.067203 1439.6928,89.616776 1438.4075,87.874592 L 1436.0705,84.706985 1435.4457,88.603492 C 1434.7155,93.157784 1430.9898,101.24858 1429.4001,101.73207 1428.7951,101.91607 1427.7162,101.36299 1427.0025,100.503 z"/>
</svg>
