<svg xmlns="http://www.w3.org/2000/svg"
     width="41.7" height="64.0"
     viewBox="5214.0000 17.2335 54.1781 83.0669">
  <path d="M 5220.4062 82 L 5219.25 87.46875 C 5221.884 88.505995 5233.3328 88.896655 5235.125 87.9375 C 5236.2399 87.340831 5238.2272 84.533309 5239.5312 81.71875 C 5241.7028 77.031812 5241.9055 75.265314 5241.9688 60.5625 C 5242.0484 42.091214 5242.3939 36.951037 5243.9375 31.21875 C 5245.182 26.597073 5245.8053 26.003572 5250.0312 25.46875 C 5252.473 25.159742 5253.2585 25.597341 5254.4688 27.9375 C 5256.9479 32.731869 5257.2164 38.053526 5255.4062 46 C 5252.3877 59.250909 5252.4208 60.440817 5255.9375 65.75 C 5257.6731 68.370339 5259.2683 70.275 5259.4688 70 C 5259.6692 69.725 5260.1979 69.905571 5260.6562 70.40625 C 5261.1344 70.928559 5261.012 71.038693 5260.3438 70.65625 C 5259.7033 70.289644 5259.0019 70.525398 5258.7812 71.1875 C 5258.4723 72.11421 5257.662 72.092853 5255.25 71.09375 C 5253.5266 70.379925 5251.5733 69.975585 5250.9375 70.1875 C 5250.3018 70.399415 5248.7397 73.834835 5247.4688 77.84375 C 5246.1977 81.852666 5243.9915 86.903181 5242.5625 89.0625 L 5239.9688 93 L 5233.25 92.875 C 5225.3641 92.734405 5220.3614 91.66615 5218.75 89.96875 L 5218 93.5 L 5218.0312 94.15625 C 5219.2971 94.047017 5220.9873 94.269091 5224.1562 94.8125 C 5232.804 96.295428 5237.2092 96.300396 5240.4062 94.84375 C 5243.6126 93.382778 5247.3323 87.885174 5249.4062 81.5 C 5251.8553 73.960652 5252.3634 73.397615 5255.4688 74.8125 C 5256.909 75.468729 5259.2133 76 5260.5625 76 C 5264.1781 76 5263.7574 71.772634 5259.5 64.875 L 5256.0312 59.25 L 5258.0312 48.375 C 5260.2812 36.169794 5259.9294 30.681035 5256.5938 25.71875 C 5253.9247 21.748122 5251.0001 21.233533 5246.625 23.9375 C 5243.9385 25.597862 5242.9578 27.141991 5241.6875 31.75 C 5240.2209 37.070484 5238.3431 57.464203 5238.0312 71.40625 C 5237.8963 77.439545 5235.9024 83.79983 5233.7188 85.1875 C 5231.986 86.288722 5226.8038 86.165492 5223.2812 84.9375 C 5221.5759 84.343027 5220.8888 83.456331 5220.4062 82 z "/>
</svg>
