<svg xmlns="http://www.w3.org/2000/svg"
     width="40.8" height="64.0"
     viewBox="7372.5000 17.1935 54.1145 84.9197">
  <path d="M 7377.125,72.28125 C 7378.0253,71.949192 7378.9394,72.222831 7379.8438,73.3125 7380.6534,74.288087 7380.4335,76.031554 7378.9375,79.96875 7376.6274,86.048507 7376.7122,88.829252 7379.3125,90.40625 7380.8022,91.309773 7381.523,91.017176 7383.3125,88.875 7386.1935,85.426015 7390.6393,82.678332 7391.9688,83.5 7392.5534,83.86133 7394.2195,86.463923 7395.6562,89.3125 7399.8289,97.586009 7402.172,98.113194 7405.125,91.4375 7406.61,88.080499 7407.0489,85.262494 7406.8125,80.71875 7406.5351,75.389053 7406.7535,74.509236 7408.3438,74.1875 7409.3553,73.982839 7411.2527,74.831997 7412.5625,76.0625 7414.6178,77.993391 7415.1713,78.118027 7416.5938,76.9375 7419.1548,74.812047 7417.9501,64.931557 7414.5938,60.53125 7410.7894,55.543406 7411.0779,50.890215 7415.5312,45.6875 7419.963,40.510083 7422.6145,32.061915 7421.375,27.0625 7419.92,21.193521 7417.6687,22.019265 7413.375,29.96875 7411.2761,33.854669 7409.1247,36.864474 7408.5938,36.6875 7408.0628,36.510526 7406.0359,33.704173 7404.0625,30.4375 7401.5135,26.218035 7399.7535,24.401323 7398.0312,24.15625 7394.8832,23.708276 7393,26.319666 7393,31.125 7393,35.983641 7394.3519,39.380093 7398.0312,43.84375 7401.5307,48.08929 7401.9525,53.44887 7399.4688,61.8125 7398.2312,65.979866 7397.4128,67.121296 7395.2812,67.65625 7392.0694,68.462384 7387.8846,66.340383 7386.5,63.21875 7385.9571,61.994747 7385.0291,61 7384.4375,61 7383.2235,61 7378.7669,65.586781 7377.3438,68.28125 7377.0375,68.861077 7376.772,69.126858 7376.5,69.25 L 7376.5,69.5 7377.125,72.28125 z M 7396.8125,26.25 C 7397.0198,26.217724 7397.279,26.285478 7397.5938,26.40625 7398.4637,26.740094 7399.3638,27 7399.5938,27 7399.8238,27 7400,27.711079 7400,28.5625 7400,30.890187 7406.7861,41 7408.3438,41 7410.1382,41 7412.2919,38.449584 7414.9062,33.25 7416.0816,30.9125 7417.4101,29 7417.875,29 7418.34,29 7418.3584,30.9125 7417.9062,33.25 7417.454,35.5875 7417.0552,37.856461 7417.0312,38.28125 7417.0072,38.706039 7415.0938,41.085021 7412.7812,43.59375 7409.3046,47.365479 7408.5514,48.930931 7408.375,52.59375 7407.9661,61.081862 7404.7796,71.924932 7401.7812,75.0625 7398.408,78.592193 7395.8112,78.744735 7390.375,75.75 7383.3381,71.873421 7380.6247,69.448697 7381.3125,67.65625 7382.1548,65.461368 7383.581,65.58099 7386.0625,68.0625 7387.3049,69.304881 7389.9831,70.34499 7392.875,70.6875 7397.1948,71.199109 7397.8548,70.971757 7399.75,68.5625 7401.8898,65.842096 7405,54.402192 7405,49.21875 7405,47.384088 7403.7553,44.879541 7401.5312,42.28125 7397.429,37.48867 7396,34.158141 7396,29.3125 7396,27.198327 7396.1906,26.346828 7396.8125,26.25 z M 7383.0938,76 C 7383.6373,76 7385.2076,76.748074 7386.5938,77.65625 L 7389.125,79.3125 7385.3438,83.15625 C 7381.1944,87.405537 7379.9916,87.873829 7380,85.25 7380.0098,82.154612 7382.0741,76 7383.0938,76 z M 7411.2812,63.59375 C 7411.9295,63.394127 7412.6666,64.336882 7413.5312,66.40625 7415.6936,71.581485 7415.2243,72.945577 7411.6875,71.75 7409.179,70.902012 7408.9706,70.469281 7409.5625,67.65625 7410.088,65.158787 7410.633,63.793373 7411.2812,63.59375 z M 7401.6875,80.40625 C 7402.2928,80.379927 7402.7716,80.460549 7403,80.6875 7403.275,80.960809 7403.4667,83.614001 7403.4375,86.59375 7403.4084,89.573499 7402.8459,92.529125 7402.1875,93.1875 7401.2582,94.116895 7401,94.010205 7401,92.6875 7401,91.750506 7400.1,89.302361 7399,87.25 7397.9,85.197638 7397,83.006528 7397,82.375 7397,81.499147 7399.8716,80.48522 7401.6875,80.40625 z"/>
</svg>
