<svg xmlns="http://www.w3.org/2000/svg"
     width="59.1" height="64.0"
     viewBox="4585.6942 14.9475 83.1359 90.0379">
  <path d="M4619.4711 95.75C4620.8566 91.323899 4620.44 90.25691 4616.0 86.859904C4611.7161 83.582349 4607.599 76.067688 4609.2064 74.460249C4609.5462 74.120434 4612.3447 74.636917 4615.4253 75.607989C4622.1708 77.73432 4623.0878 77.141491 4623.7525 70.224467C4624.3276 64.238312 4622.113 59.317461 4618.4275 58.392454C4609.2751 56.095336 4599.9163 64.035452 4598.3557 75.421753C4597.3539 82.730161 4594.9212 82.673627 4592.3472 75.282125C4589.6942 67.663855 4590.4243 64.838111 4597.249 56.309325C4600.6859 52.014196 4604.3984 47.727471 4605.499 46.783269C4608.0497 44.594943 4613.9469 44.530182 4618.3752 46.641868C4620.2688 47.544895 4622.4917 48.025302 4623.3148 47.709438C4625.3774 46.917965 4626.3892 41.595772 4624.9783 38.959545C4623.7642 36.69095 4624.179 36.705534 4613.25 38.547175C4610.4052 39.026551 4609.0 38.901915 4609.0 38.170213C4609.0 36.565729 4616.3902 34.848581 4621.7945 35.197349C4625.7385 35.451876 4626.6857 35.922347 4627.7517 38.15613C4629.2 41.191172 4627.6972 50.798095 4625.6524 51.576225C4625.0186 51.817415 4620.9 50.85781 4616.5 49.443768L4608.5 46.872784L4602.7232 53.186392C4595.6092 60.96146 4592.5791 66.807258 4593.497 70.986144C4594.383 75.020221 4595.4472 74.784009 4596.8134 70.25C4598.3738 65.071794 4603.5654 59.101919 4608.4293 56.892813C4618.8017 52.181776 4626.0201 56.130359 4626.8023 66.943025C4627.157 71.847807 4626.8377 73.526601 4624.9771 76.537128C4622.6331 80.329701 4621.7063 80.514524 4615.25 78.476858C4613.6348 77.967083 4613.0 78.170052 4613.0 79.196277C4613.0 81.160152 4618.2186 86.0 4620.3361 86.0C4621.2858 86.0 4622.3278 86.690575 4622.6517 87.534611C4623.4071 89.503202 4621.054 98.0 4619.7534 98.0C4619.1882 98.0 4619.0676 97.038961 4619.4711 95.75Z M4660.75 92.267237C4658.1355 90.958705 4658.0 90.539194 4658.0 83.755629C4658.0 79.831248 4658.5245 74.08093 4659.1656 70.977144C4660.3176 65.399736 4660.297 65.299865 4657.3968 62.416948C4655.0952 60.128964 4650.2882 54.34601 4646.3111 49.080425C4646.1368 48.849659 4643.6958 49.737365 4640.8866 51.053106L4635.7791 53.445362L4633.8895 51.111897C4631.6052 48.290819 4631.5931 47.878825 4633.5471 39.453266C4634.398 35.784304 4634.9605 32.419253 4634.7971 31.975375C4634.6337 31.531496 4631.6587 28.903241 4628.1859 26.134807C4621.097 20.483668 4622.2591 20.473994 4610.2387 26.284221C4606.795 27.94879 4603.7167 29.050037 4603.3981 28.731437C4602.2829 27.616193 4621.6995 18.947458 4623.6426 19.693096C4624.6593 20.083243 4627.7431 22.109965 4630.4956 24.196924C4636.2109 28.530427 4637.1805 28.711627 4640.8456 26.131196C4645.5358 22.82912 4647.9158 22.572225 4650.5851 25.079924C4652.3797 26.765919 4652.9961 28.395455 4652.9847 31.424314C4652.9548 39.366601 4650.1248 40.305693 4640.185 35.671702C4637.2802 34.317494 4636.3855 35.561853 4635.4681 42.231745C4634.5084 49.209837 4635.8312 50.429939 4641.6515 47.935074C4647.7798 45.308182 4648.4909 45.440167 4651.1188 49.692196C4652.3738 51.722904 4655.3288 55.555386 4657.6855 58.208823C4662.7011 63.856158 4663.6129 66.612718 4662.041 71.37577C4660.1437 77.124788 4660.4376 88.721085 4662.5396 91.043721C4664.8301 93.574719 4664.2098 93.998836 4660.75 92.267237Z M4606.55 32.201754C4607.5903 31.327659 4615.8849 28.519738 4620.25 27.564007C4624.7647 26.575524 4623.375 28.828264 4618.75 29.9956C4616.4125 30.585579 4613.4663 31.502923 4612.2029 32.034144C4609.4292 33.200442 4605.2127 33.325462 4606.55 32.201754Z M4625.0222 99.70034C4624.9794 98.15815 4628.0613 93.0 4629.0257 93.0C4630.5388 93.0 4634.0 96.826978 4634.0 98.5C4634.0 100.58387 4632.647 100.37244 4630.4505 97.945331L4628.5911 95.890663L4626.8178 98.195331C4625.8425 99.462899 4625.0345 100.14015 4625.0222 99.70034Z M4646.0 96.434259C4646.0 96.123101 4646.542 94.885601 4647.2044 93.684259C4647.8668 92.482916 4648.8903 86.419023 4649.4789 80.208941L4650.549 68.917881L4646.3474 64.276008C4642.724 60.272976 4641.9274 59.8154 4640.5588 60.951219C4639.2772 62.014845 4639.0961 63.481979 4639.6179 68.575149C4640.2123 74.376085 4640.0062 75.377439 4637.0496 81.05837L4633.8352 87.234745L4637.0992 90.602392C4641.613 95.259433 4640.411 95.585371 4635.2344 91.108041L4630.9688 87.418635L4634.6509 80.242098C4638.3009 73.127931 4638.322 73.016837 4637.0782 67.45901C4635.9557 62.443053 4636.0072 61.649548 4637.5668 59.926229C4640.6122 56.561099 4644.3581 57.463881 4648.9378 62.666668C4653.5302 67.883905 4654.5089 70.523739 4653.6076 75.2628C4653.269 77.04326 4652.5959 81.536851 4652.1119 85.248557C4651.2595 91.785822 4648.981 97.0 4646.9769 97.0C4646.4396 97.0 4646.0 96.745416 4646.0 96.434259Z M4650.5912 33.492715C4651.3587 30.434821 4648.7307 26.0 4646.1513 26.0C4645.1598 26.0 4643.3041 27.111808 4642.0275 28.470685C4640.0264 30.600759 4639.8942 31.167624 4641.0685 32.582547C4644.2833 36.456157 4649.7171 36.975508 4650.5912 33.492715Z M4657.6519 97.940815C4655.1603 95.980955 4654.9733 95.9714 4652.3787 97.671448C4648.7495 100.04937 4649.57 97.410219 4653.3334 94.600412L4656.0407 92.579133L4659.1265 95.664946C4662.6723 99.210758 4661.5225 100.9854 4657.6519 97.940815Z"/>
</svg>
