<svg xmlns="http://www.w3.org/2000/svg"
     width="45.1" height="64.0"
     viewBox="2043.7189 16.2401 64.1794 91.1446">
  <path d="M2067.5901 99.825166C2065.0562 96.20749 2065.5099 88.185524 2068.4971 83.78951C2070.6176 80.668908 2070.8343 79.691396 2069.9342 77.307376C2068.0369 72.281913 2064.6641 66.0 2063.8632 66.0C2062.2259 66.0 2057.6882 71.709873 2055.3201 76.75C2053.9634 79.6375 2052.266 82.0 2051.548 82.0C2050.8301 82.0 2049.6533 80.577182 2048.933 78.838182C2047.7189 75.907201 2047.8738 75.19538 2051.0545 69.088182C2053.2339 64.90348 2057.3156 59.661155 2062.2428 54.718439C2068.5766 48.364739 2070.0 46.368182 2070.0 43.837597C2070.0 40.894494 2069.8349 40.765101 2066.7245 41.269864C2062.8794 41.893826 2060.9211 40.687865 2058.6537 36.29966C2056.4076 31.952827 2056.5749 28.928085 2059.2844 24.897883C2062.3472 20.341994 2064.719 20.240143 2069.2915 24.468154C2071.3768 26.396383 2073.8547 28.387039 2074.7979 28.891834C2077.1721 30.162495 2083.5121 27.841657 2087.1266 24.378683C2089.8116 21.806272 2090.1496 21.720985 2091.6624 23.233866C2093.0883 24.659685 2093.127 25.292141 2091.9659 28.184264C2091.2337 30.007919 2088.8226 33.205387 2086.6079 35.289748C2082.9428 38.73909 2082.5775 39.538713 2082.5406 44.191967L2082.5 49.304438L2087.9206 52.121436C2095.0517 55.827293 2099.4165 60.183491 2101.5215 65.69553C2103.8983 71.9189 2103.1384 79.215629 2099.7905 82.318369C2098.4137 83.594334 2097.0835 85.249359 2096.8346 85.996203C2095.8789 88.863313 2094.0002 85.67301 2094.0049 81.190983C2094.0114 75.034232 2091.1098 67.118036 2088.1312 65.16638C2085.962 63.745068 2085.6497 63.758628 2084.5052 65.32381C2083.8164 66.265795 2082.9504 69.316226 2082.5808 72.102545C2082.0048 76.444862 2082.2713 77.787248 2084.4467 81.499254C2087.609 86.895263 2089.2828 94.511143 2088.1832 98.5C2086.8366 103.38479 2084.6588 102.70147 2082.1302 96.60078C2078.2628 87.269968 2075.0545 86.926581 2072.8681 95.609447C2071.4085 101.40613 2069.67 102.7947 2067.5901 99.825166Z M2077.1564 86.192614C2079.4399 85.928371 2080.2011 86.598794 2082.5798 90.96921C2084.1016 93.7654 2085.7275 95.672507 2086.1928 95.207225C2087.3728 94.027248 2084.4914 86.333025 2081.3052 82.155698C2078.7385 78.790591 2078.6862 78.460192 2079.744 72.284748C2081.4836 62.129191 2085.2392 58.58788 2090.2417 62.386003C2092.8161 64.3406 2096.1551 72.533729 2095.4775 75.233492C2095.1582 76.505928 2095.2829 78.590626 2095.7548 79.866156C2096.5717 82.074526 2096.6995 81.99286 2098.4295 78.15644C2102.4466 69.247997 2098.3088 61.230618 2086.6431 55.319158C2080.5541 52.23361 2079.0744 50.517794 2079.0318 46.493398C2078.9764 41.251349 2080.84 36.788538 2084.4749 33.459081C2089.3532 28.990741 2088.8811 27.82597 2083.3305 30.636009C2080.7623 31.936204 2077.6491 33.0 2076.4122 33.0C2075.1753 33.0 2071.791 30.975 2068.8914 28.5C2065.9919 26.025 2063.3274 24.0 2062.9703 24.0C2062.6132 24.0 2061.7988 25.146174 2061.1605 26.547053C2058.4354 32.528102 2060.9744 38.0 2066.4749 38.0C2072.2254 38.0 2073.0 38.720335 2073.0 44.068034C2073.0 47.773733 2072.4822 49.404459 2070.8114 50.961045C2069.6077 52.08247 2068.2477 53.0 2067.7891 53.0C2067.3305 53.0 2064.9197 54.876388 2062.4317 57.169751C2057.1531 62.035365 2050.7114 72.942736 2051.1773 76.226075C2051.445 78.11219 2052.0408 77.545892 2054.6707 72.905584C2057.6471 67.654056 2063.0316 62.0 2065.0564 62.0C2066.1882 62.0 2069.5045 68.445588 2072.589 76.640347L2074.9506 82.914525L2072.2271 84.219868C2070.209 85.187128 2069.2753 86.607406 2068.6222 89.703594C2068.1374 92.001706 2068.0335 94.645043 2068.3914 95.577678C2068.8819 96.85576 2069.7142 95.946742 2071.7711 91.886688C2073.9133 87.658188 2075.0711 86.433909 2077.1564 86.192614Z"/>
</svg>
