<svg xmlns="http://www.w3.org/2000/svg"
     width="58.8" height="64.0"
     viewBox="6361.1057 68.3855 31.6419 34.4110">
  <path d="M 6383.642,95.25 C 6382.0267,89.512939 6381.9811,87.260559 6383.4555,86.036897 6384.305,85.331914 6385,83.910211 6385,82.877555 6385,80.869633 6383.5197,80.350029 6382.5,82 6381.6279,83.411161 6377.2885,83.244126 6376.0053,81.75 6375.4149,81.0625 6374.3128,79.605974 6373.5562,78.513275 6372.2055,76.562504 6372.1428,76.560784 6370.0903,78.418263 6365.9961,82.123511 6368.4015,88 6374.0124,88 6377.2613,88 6377.4971,88.251746 6378.4619,92.75 6379.0001,95.259692 6378.8238,96 6377.6879,96 6376.8788,96 6375.9435,94.910848 6375.6093,93.579662 6375.1787,91.863773 6374.0557,90.957003 6371.7509,90.464189 6369.9629,90.081865 6367.9375,89.315917 6367.25,88.762083 6365.1057,87.034722 6365.7882,81.144257 6368.5524,77.520147 6372.1739,72.772132 6373.8898,72.385508 6375.1607,76.031184 6375.738,77.687253 6377.1404,79.539961 6378.2771,80.148313 6380.0578,81.101318 6380.7267,80.786984 6383.1101,77.877204 6385.2007,75.324793 6386.1601,74.780857 6387.0382,75.65 6388.7476,77.342028 6388.4517,83.66163 6386.5254,86.601587 6385.3048,88.464409 6385.0304,90.220548 6385.5133,93.078679 6386.1779,97.012691 6384.6406,98.796545 6383.642,95.25 z"/>
</svg>
