<svg xmlns="http://www.w3.org/2000/svg"
     width="55.0" height="64.0"
     viewBox="7187.0000 51.4780 40.2493 46.8014">
  <path d="M 7195.5312 79.6875 L 7194.0938 83.25 C 7197.3679 85.128939 7201.0477 85.782616 7204.6562 84.96875 C 7210.841 83.573853 7212.9682 79.285168 7213.0312 68.125 C 7213.076 60.22233 7216.4747 56.258402 7219.0625 61.09375 C 7220.3325 63.466941 7219.7273 68.138268 7217.25 75.25 C 7215.8875 79.161399 7215.7926 80.780004 7216.7188 84.25 C 7217.3392 86.574726 7217.6851 88.658636 7217.4688 88.875 C 7217.2524 89.091363 7215.7312 88.709507 7214.0938 88.03125 C 7211.6184 87.005903 7210.2567 87.086154 7206 88.5 C 7201.3217 90.053886 7199.2597 90.02191 7191.9688 88.53125 L 7191 91 L 7191.0312 92.1875 C 7191.6346 92.308062 7192.0428 92.319212 7192.8125 92.53125 C 7199.1582 94.279381 7200.8747 94.259798 7206.4062 92.375 C 7210.1299 91.106184 7211.6984 90.9972 7213.625 91.875 C 7217.2116 93.509181 7219.4513 93.263689 7221.5 91 C 7223.2493 89.066987 7223.2359 88.870584 7221.4375 85.53125 C 7219.7481 82.39422 7219.7188 81.580429 7220.9375 76.78125 C 7221.6763 73.871611 7222.3132 68.867735 7222.375 65.65625 C 7222.4714 60.650994 7222.1487 59.544309 7220.125 57.90625 C 7217.1252 55.478024 7216.6946 55.510854 7213.4375 58.3125 C 7211.0823 60.338387 7210.6577 61.625544 7210.0312 68.75 C 7209.1469 78.809105 7207.3451 82 7202.5625 82 C 7198.7454 82 7196.7812 81.327504 7195.5312 79.6875 z "/>
</svg>
