<svg xmlns="http://www.w3.org/2000/svg"
     width="31.4" height="64.0"
     viewBox="2958.5625 19.3089 41.4563 84.5348">
  <path d="M 2962.5625,84.5 2962.6562,88.65625 C 2962.8343,88.728908 2963.1091,89 2963.25,89 2967.9294,89 2980.0008,80.078839 2980,76.625 2979.9997,75.453754 2979.0722,72.047964 2977.9375,69.0625 2975.3386,62.224597 2974.8133,55.117246 2976.125,44.6875 2977.1522,36.519522 2977.1544,36.473972 2973.9688,30.65625 2969.9458,23.308927 2967.5989,24.298145 2971.375,31.75 2973.797,36.529552 2973.8872,37.289881 2973.3125,48.71875 2972.7814,59.282943 2972.9795,61.553707 2974.9375,68 2976.1569,72.014804 2976.8918,76.250145 2976.5938,77.4375 2975.9457,80.019627 2968.5295,85.123651 2965.0938,85.34375 2964.1475,85.404369 2963.3735,85.175023 2962.5625,84.5 z M 2962.8125,95.90625 2962.9062,99.84375 C 2968.0154,99.055339 2989,81.964522 2989,78.4375 2989,77.575972 2988.5579,76.077936 2988.0312,75.09375 2986.4689,72.174451 2984.9404,60.412738 2984.9062,51.21875 2984.872,41.971588 2984.5046,42.859626 2992.4062,33.53125 2994.5464,31.004635 2996.0188,28.675019 2995.6875,28.34375 2994.4992,27.155414 2984.4873,37.290696 2982.8125,41.375 2980.1125,47.959265 2980.6118,58.493304 2984.5312,77.5 2985.087,80.195385 2984.5951,80.97681 2979.8125,85.0625 2972.5121,91.299173 2965.2793,96 2963,96 2962.9605,96 2962.8562,95.911965 2962.8125,95.90625 z M 2977.5,24 C 2975.4979,24 2975.599,24.744827 2978.25,29.75 2979.4881,32.0875 2981.0745,34 2981.7812,34 2982.4881,34 2984.6375,32.425 2986.5625,30.5 2988.4875,28.575 2990.4996,27 2991.0312,27 2991.5629,27 2992,26.55 2992,26 2992,24.291366 2989.8287,24.880605 2986.3125,27.5625 L 2982.9375,30.15625 2981,27.8125 C 2979.9348,26.534433 2979.0495,25.1625 2979.0312,24.75 2979.0129,24.3375 2978.325,24 2977.5,24 z"/>
</svg>
