<svg xmlns="http://www.w3.org/2000/svg"
     width="45.3" height="64.0"
     viewBox="4054.0000 15.0000 63.6753 90.0000">
  <path d="M 4058.4062 72.15625 C 4059.1703 72.263313 4061.5889 73.526409 4064 75.09375 C 4066.475 76.702627 4069.8023 78.78961 4071.375 79.75 C 4072.9477 80.710391 4075.1977 82.280763 4076.375 83.25 L 4078.5 85.03125 L 4073.0312 89.96875 L 4067.5312 94.90625 L 4070.4688 97.96875 C 4072.074 99.644422 4074.0883 101 4074.9688 101 C 4075.849 101 4078.7914 98.75 4081.5 96 C 4084.2086 93.25 4087.1562 91 4088.0312 91 C 4088.9066 91 4091.1671 92.621825 4093.0625 94.59375 C 4094.9579 96.565676 4097.7115 98.789193 4099.1875 99.5625 C 4101.663 100.85953 4102.1087 100.78647 4104.9375 98.40625 C 4109.0292 94.963293 4108.7983 92.429732 4104 88 C 4101.8 85.968971 4100 83.813317 4100 83.21875 C 4100 82.624184 4101.1812 81.229434 4102.625 80.09375 L 4105.25 78 L 4106.0312 78.625 L 4106.3125 75.03125 C 4103.0427 75.935309 4097.5424 80.193812 4097.1875 82.625 C 4096.9935 83.953643 4098.36 86.095673 4101.0625 88.71875 C 4104.2946 91.855821 4105.0566 93.220291 4104.5312 94.875 C 4103.4825 98.178962 4100.8296 97.427785 4095.9688 92.4375 C 4093.5167 89.920187 4090.6989 87.411472 4089.7188 86.875 C 4088.266 86.07987 4086.7674 86.999535 4081.625 91.9375 C 4075.54 97.780679 4075.2567 97.959214 4073.625 96.15625 C 4072.0115 94.37336 4072.2036 94.037007 4077.7188 89.125 C 4084.4511 83.128873 4085.1917 84.506144 4070.1875 74.8125 C 4061.1923 69.001074 4060.9304 68.74428 4062.5938 66.90625 C 4063.5414 65.859041 4064.6658 65 4065.0938 65 C 4065.5216 65 4069.566 67.25 4074.0938 70 C 4078.6215 72.75 4082.8924 75 4083.5625 75 C 4084.2326 75 4085.0143 73.7625 4085.3125 72.25 C 4086.1971 67.763677 4083.1172 46.202501 4080.4688 38.3125 L 4078.0312 31 L 4081.75 27.53125 C 4083.8076 25.618196 4085.9829 24.046131 4086.5625 24.03125 C 4087.1421 24.016368 4089.1134 25.524264 4090.9375 27.40625 L 4094.25 30.84375 L 4092.4688 42.53125 C 4090.6543 54.533873 4090.8688 73.275102 4092.8438 75.25 C 4093.3962 75.80254 4095.5971 74.776662 4098.375 72.65625 C 4102.4886 69.516291 4104.3272 67.991148 4106.8438 68.78125 L 4107.125 65.1875 C 4106.1474 65.335658 4103.4884 66.445735 4100.6562 68 L 4095.1562 71 L 4094.4375 63.3125 C 4093.9963 58.604192 4094.1943 52.313552 4094.9375 47.0625 C 4096.7808 34.039585 4096.3189 34.755064 4102.5312 35.53125 C 4107.3978 36.139284 4108.1075 35.98623 4110.4375 33.65625 C 4113.6557 30.438014 4113.6753 27.61265 4110.5312 24.46875 C 4107.4529 21.390377 4106.1875 21.382664 4101.5938 24.5 C 4099.5676 25.875 4097.3454 27 4096.6562 27 C 4095.9673 27 4093.6482 25.2 4091.5 23 C 4089.3518 20.8 4087.1794 19 4086.6875 19 C 4086.1957 19 4083.785 21.25 4081.3125 24 C 4076.3381 29.532705 4075.1557 29.93452 4072.5 27 C 4069.9358 24.16654 4065.5919 24.426349 4063.125 27.5625 C 4060.9974 30.267306 4061.2471 32.657955 4063.8438 34.75 C 4065.7676 36.300159 4071.2213 36.372337 4072.7188 34.875 C 4074.6119 32.981815 4075.8491 34.790221 4078.5312 43.28125 C 4080.2092 48.593072 4081.3256 54.952395 4081.7188 61.40625 L 4082.3125 71.34375 L 4075.4062 67.53125 C 4071.6047 65.432418 4067.7746 63.123275 4066.9062 62.375 C 4064.5624 60.355229 4063.367 60.675902 4061 64 C 4059.6822 65.850678 4058.7506 66.813825 4058.0312 66.75 L 4058 67 L 4058.4062 72.15625 z M 4106.125 25.46875 C 4108.6522 25.242776 4110.1432 27.422701 4108.9062 30.75 C 4108.3113 32.35032 4107.2602 33.010891 4105.2812 33 C 4099.447 32.96789 4098.4623 29.70922 4103.3125 26.53125 C 4104.3205 25.870809 4105.2826 25.544075 4106.125 25.46875 z M 4067.5938 27.1875 C 4070.0747 26.831302 4072.4703 29.378283 4071.6562 31.5 C 4071.0203 33.157646 4068.2751 33.467801 4066.1562 32.125 C 4064.1969 30.88329 4065.1663 27.536032 4067.5938 27.1875 z "/>
</svg>
