<svg xmlns="http://www.w3.org/2000/svg"
     width="35.9" height="64.0"
     viewBox="910.7047 17.0000 48.3024 86.0000">
  <path d="M 934.09375 67.875 C 934.09111 67.861271 934 67.76155 934 67.75 C 934 66.61741 936.57229 64 937.6875 64 C 938.14911 64 940.19526 65.125 942.21875 66.5 C 944.24225 67.875 946.52295 69 947.28125 69 C 948.85674 69 952.18359 65.585941 953.9375 62.1875 C 955.00713 60.114947 954.75523 59.533675 951.375 56.4375 C 949.30679 54.543098 947.11067 53 946.5 53 C 945.88934 53 943.83185 54.15216 941.9375 55.5625 L 938.5 58.125 L 934.25 53.46875 C 931.9125 50.905199 930.0175 48.290539 930.03125 47.65625 C 930.04501 47.021961 931.88487 44.561474 934.125 42.1875 C 937.7584 38.337024 938.37003 38.028011 939.84375 39.3125 C 940.75236 40.104439 943.27471 41.304713 945.4375 42 C 949.26177 43.229416 949.44728 43.191841 952.1875 40.125 C 953.73721 38.390571 955 36.103435 955 35.03125 C 955 32.927211 949.43797 26 947.75 26 C 947.18442 26 945.33994 27.497363 943.625 29.3125 C 938.39515 34.847897 937.59637 34.709286 931.90625 27.46875 C 929.10934 23.909748 926.44357 21 925.96875 21 C 924.25045 21 915 33.517137 915 35.84375 C 915 37.174236 916.74592 40.189225 919 42.75 C 921.2 45.249332 923 48.049084 923 48.96875 C 923 49.888415 921.60358 51.9471 919.90625 53.5625 C 915.26342 57.981226 914.70468 59.526163 916.46875 62.9375 C 917.30925 64.562838 919.1238 67.108808 920.5 68.59375 C 923.99293 72.362682 923.63191 75.490076 919 81.625 C 916.8 84.538879 914.99624 87.282651 915 87.71875 C 915.00376 88.154849 916.6309 89.610428 918.625 90.96875 C 920.6191 92.327072 923.18193 94.689572 924.3125 96.21875 C 925.44308 97.747928 926.843 99 927.40625 99 C 927.9695 99 930.32887 97.127895 932.65625 94.84375 L 936.875 90.6875 L 937.34375 91.09375 L 937.28125 90.3125 L 938.6875 86.59375 C 936.657 84.453767 934.625 82.210232 931.6875 78.5625 C 928.95644 75.171122 928.42927 72.019514 930.5 71.34375 C 930.59556 71.312566 931.43371 72.038138 931.78125 72.25 L 931.25 71.21875 L 934.09375 67.875 z M 925.53125 25.375 C 926.06357 25.230625 928.44822 27.569594 930.8125 30.5625 C 935.37788 36.341726 935.37913 36.528618 931 41.65625 C 929.61839 43.274013 928.02243 44.876555 927.46875 45.21875 C 926.58974 45.762008 920.93521 40.048642 918.71875 36.375 C 917.92908 35.066176 923.60504 25.897423 925.53125 25.375 z M 946.90625 30.15625 C 947.81771 30.185777 948.65012 31.019607 949.9375 32.65625 C 951.89539 35.145302 951.9413 35.425509 950.375 37.15625 C 949.45633 38.171367 947.97101 38.9388 947.09375 38.875 C 941.36766 38.458555 939.95716 35.949092 943.46875 32.4375 C 945.01364 30.89261 945.99479 30.126723 946.90625 30.15625 z M 927.8125 50.78125 L 931.90625 55.03125 C 934.16155 57.355188 936 59.660282 936 60.15625 C 936 60.652219 934.14505 63.068539 931.875 65.53125 C 929.60495 67.993961 927.46745 69.987373 927.125 69.96875 C 925.6423 69.888118 920 62.392612 920 60.5 C 920 59.355383 921.76155 56.687988 923.90625 54.59375 L 927.8125 50.78125 z M 945.0625 57.25 C 945.80308 57.186436 946.50837 57.48162 947.59375 58.0625 C 949.43238 59.046502 950.0312 60.059788 949.8125 61.9375 C 949.40781 65.411913 946.00451 65.755713 942.4375 62.6875 L 939.625 60.28125 L 942.375 58.5 C 943.55878 57.724357 944.32192 57.313564 945.0625 57.25 z M 926.9375 78 C 928.20112 78 934 85.79556 934 87.5 C 934 88.168306 933.07742 89.925828 931.9375 91.375 C 929.27691 94.757388 927.28735 94.552761 923.125 90.53125 C 920.7268 88.214205 919.95002 86.757955 920.40625 85.40625 C 921.23656 82.946282 925.59478 78 926.9375 78 z "/>
</svg>
