<svg xmlns="http://www.w3.org/2000/svg"
     width="42.2" height="64.0"
     viewBox="2823.0000 17.6987 58.5614 88.7569">
  <path d="M 2832.9688 78.09375 L 2830.3125 83.59375 C 2831.1609 83.365993 2832.3137 83.939646 2834.0938 85.4375 C 2840.3968 90.741078 2845.1622 90.027856 2851.1875 82.90625 C 2857.2641 75.724009 2859 69.634315 2859 55.71875 C 2859 43.618948 2860.7858 35.313342 2864.6562 29.40625 C 2866.7547 26.203634 2870.3497 26.283388 2871.8438 29.5625 C 2873.4126 33.005864 2873.3118 36.525905 2871.375 45.1875 C 2869.8735 51.902712 2869.0785 73.121406 2870.125 78.5 C 2870.3514 79.663305 2870 80.413451 2869.3125 80.28125 C 2868.6625 80.156242 2866.4125 79.791567 2864.3125 79.46875 L 2860.5 78.875 L 2856.75 85.84375 C 2854.6855 89.673918 2851.4108 94.201094 2849.4688 95.90625 C 2844.9824 99.845291 2843.1792 99.785695 2837.6875 95.59375 C 2830.7841 90.324293 2828.8921 88.50837 2828.75 86.84375 L 2827 90.5 L 2827.0625 91.15625 L 2831.5312 95.03125 C 2837.7053 100.37481 2842.0655 102.45564 2845.375 101.625 C 2849.2476 100.65306 2854.6613 95.438018 2858.3438 89.125 C 2862.1243 82.644033 2863.7056 82.066931 2871.125 84.53125 C 2874.0162 85.49156 2876.5637 85.842574 2877.0625 85.34375 C 2877.5614 84.844926 2876.8141 82.252295 2875.3438 79.28125 C 2873.1061 74.759931 2872.7831 72.774242 2872.7812 64.28125 C 2872.7801 58.892922 2873.5464 50.739473 2874.5 46.125 C 2876.4107 36.878783 2876.1044 30.331868 2873.5938 26.5 C 2870.4479 21.698695 2864.5759 23.965182 2861.2188 31.25 C 2857.599 39.104907 2857.1284 41.439812 2856.5 55 C 2855.7438 71.317791 2854.9949 73.999804 2849.2812 80.75 C 2844.5023 86.395819 2843.064 86.87013 2838.125 84.40625 C 2834.5025 82.599093 2833.0617 80.899971 2832.9688 78.09375 z "/>
</svg>
