<svg xmlns="http://www.w3.org/2000/svg"
     width="38.5" height="64.0"
     viewBox="5537.9062 16.7889 55.8038 92.8227">
  <path d="M 5541.9062,28.34375 5541.9375,31.9375 C 5542.9196,31.839136 5545.6566,30.496672 5548.2812,28.8125 5554.2462,24.984772 5562.7177,23.769143 5564.9062,26.40625 5565.6396,27.289746 5567.0669,28 5568.0625,28 5569.9148,28 5570.3574,28.892229 5571.5312,35 5571.9012,36.925 5573.3947,40.525 5574.8438,43 5581.4233,54.237547 5582.8469,63.057096 5579.3125,70.46875 5577.696,73.858682 5577.7162,74.223416 5579.8125,79.28125 5581.014,82.180118 5582.002,86.11688 5582,88.03125 5581.9961,91.668773 5578.7971,98 5576.9688,98 5574.8778,98 5571.1044,93.148957 5570.4375,89.59375 5569.7366,85.858103 5569.9352,84.708517 5572.0938,79.34375 5573.2719,76.415922 5573.0859,75.76855 5569.5938,69.90625 5565.4921,63.020679 5564.7836,57.270851 5566.9688,49.15625 5568.6889,42.767653 5567.1197,34.633102 5563.625,31.78125 5560.1422,28.939063 5555.1135,29.503428 5551.3125,33.1875 5549.4988,34.945392 5548,36.970392 5548,37.6875 5548,39.69153 5548.8867,39.26603 5551.6875,35.9375 5553.8168,33.406961 5554.879,32.936774 5557.875,33.1875 5560.8823,33.43917 5561.7687,34.087491 5563.1875,37 5565.3934,41.528095 5565.4192,43.962488 5563.25,45.625 5562.0629,46.534815 5561.851,47.197105 5562.5938,47.71875 5563.201,48.145223 5563.4962,50.126928 5563.25,52.15625 5562.9253,54.833395 5562.2301,55.993241 5560.6562,56.4375 5558.5777,57.024224 5558.5688,57.086033 5560.375,58.46875 5562.8505,60.363854 5564.4593,68.725984 5562.75,70.8125 5561.6849,72.112745 5561.8305,72.275884 5563.75,71.78125 5565.4603,71.340526 5566.4891,71.884062 5568.0625,74.09375 5570.5422,77.576204 5569.8859,80.708305 5566.4062,82.03125 5563.6701,83.071569 5563.1648,85 5565.625,85 5566.9751,85 5567.1798,85.85164 5566.7812,90 5566.4532,93.414028 5566.6732,95 5567.4688,95 5568.9016,95 5573,100.39544 5573,102.28125 5573,103.03686 5573.2896,103.97709 5573.6562,104.34375 5574.9241,105.61154 5576,104.99224 5576,103 5576,101.9 5576.6524,101 5577.4375,101 5578.2226,101 5579.7233,99.907448 5580.7812,98.5625 5582.1405,96.834418 5583.325,96.259103 5584.8438,96.65625 5587.3091,97.300923 5587.8615,95.261928 5585.4688,94.34375 5584.385,93.927886 5583.9903,92.595115 5584.1562,89.78125 5584.3421,86.632887 5584.8849,85.615363 5586.75,84.90625 5589.0566,84.029286 5589.0124,81.806745 5586.6875,82.09375 5583.9061,82.437116 5583.1879,81.756355 5582.0312,77.625 5581.001,73.94528 5581.0684,72.776736 5582.375,70.25 5583.6555,67.773816 5584.3881,67.35961 5586.5938,67.78125 5589.71,68.376959 5589.6072,66.312649 5586.4375,64.5625 5583.4922,62.93623 5583.0167,61.888662 5583,56.84375 5582.9891,53.545269 5583.4518,52.051198 5584.5625,51.625 5586.4835,50.887842 5585.5053,48.992437 5583.1875,48.96875 5582.2574,48.959246 5580.4815,47.511842 5579.25,45.75 5577.0203,42.560219 5577.0194,42.545511 5579.0312,41.46875 5581.3897,40.206547 5580.6071,39 5577.4375,39 5575.1194,39 5574.0259,36.76233 5574,31.96875 5573.9819,28.618112 5571.7028,25.487633 5567.8438,23.5625 5562.2839,20.788857 5553.5793,22.072238 5546.8438,26.65625 5544.8404,28.01961 5543.3046,28.583436 5541.9062,28.34375 z"/>
</svg>
