<svg xmlns="http://www.w3.org/2000/svg"
     width="37.5" height="64.0"
     viewBox="2484.0000 16.2388 55.0000 93.9375">
  <path d="M2505.0 102.08889C2505.0 100.94097 2510.7245 96.082659 2513.645 94.752001C2515.147 94.06762 2516.8516 94.101221 2519.0225 94.858005C2521.8728 95.851631 2522.1271 95.787113 2521.4852 94.233003C2518.8875 87.942965 2518.2 74.491267 2519.9931 65.036331C2521.0661 59.378437 2521.0815 59.414412 2513.8702 50.746429L2511.2404 47.585407L2507.5962 53.282159L2503.952 58.97891L2505.8813 66.739455C2508.876 78.785739 2507.1395 99.453498 2503.0172 100.8276C2502.0476 101.15081 2501.8882 100.63434 2502.4174 98.883881C2502.8137 97.572746 2503.5746 92.225 2504.1083 87.0C2504.9008 79.241368 2504.7804 76.155213 2503.4519 70.16354C2501.7146 62.328683 2501.646 62.279935 2495.6146 64.594386C2493.9814 65.221108 2488.0 60.101533 2488.0 58.076923C2488.0 56.088501 2491.9756 53.0 2494.5352 53.0C2495.9295 53.0 2498.1379 53.699452 2499.4426 54.554337C2503.5564 57.249781 2503.3308 54.34318 2499.0869 49.970089C2494.9692 45.727144 2492.0 38.238341 2492.0 32.096093C2492.0 27.569703 2493.7085 28.315056 2494.5341 33.201618C2495.5666 39.313002 2498.339 45.09343 2501.8039 48.359239C2506.2528 52.552413 2507.1265 50.86395 2503.8594 44.386956C2500.9846 38.687608 2500.3276 33.612 2501.625 27.125C2502.622 22.140172 2503.9634 23.513229 2503.3291 28.869226C2502.702 34.164032 2504.9881 42.915293 2507.5548 45.045484C2508.7885 46.069343 2509.0302 45.23903 2509.2064 39.372445C2509.32 35.5926 2509.286 29.9125 2509.131 26.75C2508.9541 23.139885 2509.2494 21.0 2509.9246 21.0C2511.2335 21.0 2511.1098 20.238849 2511.8725 32.989863C2512.3723 41.345095 2512.8159 43.539847 2514.0526 43.775172C2515.8101 44.109615 2520.0275 33.473198 2520.0101 28.75C2520.0046 27.2375 2520.45 26.0 2521.0 26.0C2522.8502 26.0 2522.0206 33.403607 2519.4028 40.254333C2516.6858 47.364692 2516.7939 50.369554 2519.747 49.823907C2522.0623 49.396111 2525.5444 42.030488 2527.1096 34.25C2527.8871 30.38487 2528.8693 28.0 2529.6835 28.0C2531.3909 28.0 2531.3328 30.323942 2529.4712 36.5C2527.4065 43.349732 2524.0635 50.335631 2522.389 51.29969C2521.6251 51.73952 2521.0 52.703875 2521.0 53.442701C2521.0 55.642277 2523.5519 55.947105 2524.8302 53.900221C2525.4829 52.855099 2527.038 52.0 2528.286 52.0C2530.8442 52.0 2535.0 54.572109 2535.0 56.155494C2535.0 58.089255 2528.8078 63.0 2526.3695 63.0C2524.693 63.0 2523.6512 63.787341 2522.9752 65.5651C2521.469 69.526757 2521.8433 82.882916 2523.632 89.0C2526.5453 98.963498 2524.8281 106.17636 2520.8382 100.73451C2517.2156 95.793576 2515.6667 95.607994 2510.5635 99.503415C2505.7037 103.21294 2505.0 103.53998 2505.0 102.08889Z M2497.8196 58.760216C2497.4916 56.461399 2495.031 55.390389 2492.3985 56.40059C2489.9915 57.324224 2492.5539 61.0 2495.6047 61.0C2497.658 61.0 2498.0784 60.57481 2497.8196 58.760216Z M2530.6549 57.456872C2530.9806 56.608151 2530.9449 55.611568 2530.5756 55.242242C2529.7566 54.423226 2526.7682 56.195316 2526.2262 57.821443C2525.6336 59.599051 2529.9699 59.242096 2530.6549 57.456872Z"/>
</svg>
