<svg xmlns="http://www.w3.org/2000/svg"
     width="35.2" height="64.0"
     viewBox="2348.0312 19.7689 48.0082 87.3567">
  <path d="M 2359.375 81.3125 L 2357 83.5 C 2363.3077 92.929107 2369.4123 93.496299 2373.8438 84.375 C 2376.6193 78.661983 2376.6187 71.594215 2373.875 61.9375 C 2371.0144 51.869127 2370.61 47.20106 2371.9688 40.65625 C 2374.3926 28.980446 2380.9165 24.779266 2385.6562 31.8125 C 2389.1159 36.946166 2389.6085 44.360009 2386.9688 51 C 2383.7964 58.979337 2382.3235 65.499398 2381.7188 74 C 2381.161 81.840709 2378.1616 91.383044 2375.2188 94.71875 C 2374.2704 95.793774 2371.9632 97.200903 2370.0938 97.84375 C 2368.2242 98.486597 2366.6491 98.990771 2366.5938 98.96875 C 2363.4943 97.737376 2360.2989 94.77638 2356.6562 89.78125 C 2355.7669 88.561771 2355.0315 87.579022 2354.0625 86.25 L 2352.0312 88.15625 C 2353.3769 89.922044 2354.475 91.284721 2355.7188 92.96875 C 2358.3486 96.529468 2361.625 100.034 2363 100.75 C 2367.5621 103.12563 2374.5465 100.22248 2378.8438 94.1875 C 2382.1955 89.480351 2384.9923 79.241261 2385 71.59375 C 2385.0058 65.919257 2385.7107 62.62287 2388.5625 55.0625 C 2391.6115 46.979517 2392.0394 44.895852 2391.4688 40.5625 C 2390.0251 29.599614 2385.055 23.768903 2378.5312 25.40625 C 2373.7085 26.616686 2368.0305 38.849991 2368 48.125 C 2367.9934 50.111022 2369.1546 55.286022 2370.5625 59.625 C 2373.6761 69.220336 2373.9437 77.993685 2371.3125 83.59375 C 2368.9493 88.623532 2366.2225 89.066265 2362.2188 85.0625 C 2361.3426 84.186386 2360.3532 82.796107 2359.375 81.3125 z "/>
</svg>
