<svg xmlns="http://www.w3.org/2000/svg"
     width="62.5" height="64.0"
     viewBox="6538.0872 17.0032 87.9128 89.9968">
  <path d="M6562.1731 94.393831C6560.5382 92.410438 6558.3906 89.283518 6557.4005 87.445119L6555.6004 84.102576L6559.6388 79.301288C6565.8093 71.96517 6566.3981 70.482516 6564.4504 67.185324C6563.5483 65.658113 6561.2222 63.320485 6559.2813 61.990597L6555.7525 59.572617L6553.3931 62.531642C6552.0954 64.159107 6550.4943 67.900778 6549.8351 70.846468C6548.4582 76.99868 6546.5146 78.353753 6543.8273 75.035021C6542.3229 73.177213 6542.0872 71.755206 6542.5978 67.618262C6543.26 62.252715 6548.3631 51.791316 6551.8636 48.623422C6553.8254 46.848043 6554.0579 46.882617 6560.4427 49.899296C6564.0521 51.604683 6567.4541 53.0 6568.0027 53.0C6569.3404 53.0 6569.2733 45.082329 6567.9022 41.149223C6566.6893 37.669888 6564.3997 37.164588 6558.0712 38.979568C6555.6709 39.667969 6554.2484 39.621118 6553.2855 38.82195C6550.9347 36.870962 6553.4771 35.733184 6561.3109 35.23044L6568.7283 34.754421L6570.3642 39.555349C6572.0046 44.369826 6572.5292 52.457427 6571.393 55.418213C6570.518 57.69836 6568.9159 57.415764 6560.8364 53.556177C6556.8713 51.662074 6553.338 50.2911 6552.9845 50.509569C6552.631 50.728038 6550.6899 53.583086 6548.6709 56.85412C6545.5763 61.867832 6545.0 63.689703 6545.0 68.459744C6545.0 74.988535 6546.2528 75.024599 6547.8849 68.542794C6549.1871 63.371151 6554.3018 57.0 6557.1512 57.0C6560.0431 57.0 6569.0 66.363058 6569.0 69.386148C6569.0 70.866463 6566.9828 74.380967 6564.0 78.097653C6561.25 81.524218 6559.0 84.639312 6559.0 85.020083C6559.0 85.966199 6565.9474 95.0 6566.675 95.0C6566.9958 95.0 6566.9618 92.378634 6566.5993 89.174743C6565.9472 83.411256 6565.9839 83.299915 6570.0551 78.674743C6574.709 73.387642 6576.1113 72.994671 6578.3161 76.359689C6579.1665 77.657518 6580.4972 79.354304 6581.2732 80.130325C6584.4697 83.326888 6585.1303 85.832909 6583.8781 90.012386C6581.6953 97.298068 6584.9025 96.669324 6587.4064 89.320695C6589.7858 82.337394 6589.4378 80.304299 6585.0 75.26266C6580.0947 69.68991 6579.8353 66.49004 6583.968 62.530681L6586.936 59.687179L6593.94 67.09359C6597.7922 71.167115 6600.9566 75.012647 6600.972 75.639216C6601.0163 77.443497 6597.2571 81.584698 6596.3739 80.704522C6595.9349 80.267008 6596.165 78.965374 6596.8853 77.812001C6598.0858 75.889813 6597.6876 75.207616 6592.1103 69.630337C6586.5283 64.048298 6585.8933 63.678106 6584.4229 65.148539C6582.9525 66.618972 6582.9529 67.008314 6584.4287 69.862184C6585.3135 71.573135 6587.4455 74.576761 6589.1665 76.536908C6592.2664 80.067426 6592.2844 80.151283 6591.09 85.488327C6589.6236 92.040967 6586.2073 97.388099 6583.2112 97.820137C6580.198 98.254638 6579.4894 95.895319 6581.0062 90.477957C6582.2225 86.13356 6582.1707 85.916014 6578.8764 81.54349C6577.0194 79.078583 6575.2091 77.047927 6574.8536 77.030921C6574.4981 77.013914 6572.7812 78.624053 6571.0384 80.609008C6568.9881 82.944261 6568.0992 84.797183 6568.5199 85.859008C6570.7576 91.506229 6569.6973 98.0 6566.5376 98.0C6565.772 98.0 6563.808 96.377224 6562.1731 94.393831Z M6612.2448 101.75C6610.2923 99.309441 6609.7843 95.771473 6611.0476 93.410995C6612.1489 91.353305 6611.9733 90.557978 6609.6387 87.030154C6606.699 82.588098 6605.5529 82.189644 6602.8226 84.660536C6600.0304 87.187478 6599.3316 85.340425 6602.0037 82.496057C6605.0055 79.30077 6606.5173 79.351641 6609.5503 82.75C6614.7728 88.601525 6616.3448 91.947808 6615.127 94.620591C6614.5072 95.981024 6614.0 97.618434 6614.0 98.259279C6614.0 99.852171 6619.9084 92.833545 6619.9594 91.180175C6620.0017 89.805712 6615.6769 83.087846 6610.7736 76.911435C6608.2832 73.774442 6608.0101 72.788991 6608.6032 69.080227C6608.9924 66.64594 6609.5945 65.343937 6610.0158 66.025555C6611.0555 67.707876 6611.6668 66.274626 6612.4796 60.249058C6612.8692 57.36104 6613.4966 55.188907 6613.8739 55.422096C6615.032 56.137826 6613.3212 40.616819 6611.583 34.63741C6610.6816 31.536835 6609.7065 29.0 6609.416 29.0C6609.1256 29.0 6608.98 32.9375 6609.0924 37.75C6609.3775 49.948556 6607.5284 59.12377 6603.9618 63.208791L6601.1211 66.462384L6598.3263 63.981192C6596.7892 62.616536 6594.1107 59.925 6592.3742 58.0C6589.3084 54.601371 6589.1197 54.538689 6585.8585 55.835787C6579.3903 58.408396 6579.0997 58.391004 6577.939 55.361971C6576.8601 52.546236 6577.141 47.596397 6578.8515 39.283652C6579.7994 34.677139 6578.9027 32.551779 6573.3563 26.259506C6570.1335 22.603257 6570.7544 22.566987 6555.5 27.3027C6550.4882 28.858618 6547.1296 29.437133 6546.5084 28.851508C6545.1197 27.542475 6547.4008 26.316943 6552.707 25.521226C6555.1139 25.160292 6558.977 24.005245 6561.2916 22.954454C6563.6062 21.903662 6567.1333 21.034041 6569.1295 21.021962C6572.2333 21.003182 6573.2964 21.655771 6576.4683 25.526674L6580.1776 30.053348L6583.4568 28.026674C6587.9594 25.243933 6591.5673 25.40991 6593.5872 28.492715C6596.8818 33.520939 6592.3501 38.657025 6585.3456 37.833523C6582.8817 37.543851 6582.3513 37.960177 6581.3108 41.0C6578.932 47.950081 6580.2199 57.180143 6583.1584 54.241641C6583.8413 53.558738 6586.029 53.0 6588.02 53.0C6591.0562 53.0 6592.3064 53.741702 6595.7726 57.599115C6598.0456 60.128629 6600.4891 62.016622 6601.2027 61.794655C6601.9162 61.572689 6603.3901 59.615587 6604.4779 57.44554C6606.1129 54.184208 6606.5222 50.933125 6606.8382 38.697911C6607.1747 25.669022 6607.416 23.933475 6608.8526 24.210139C6613.6553 25.135046 6617.563 45.137792 6615.5096 58.285646C6615.0986 60.917752 6613.6907 64.650236 6612.3811 66.580055C6611.0715 68.509875 6610.0 70.343473 6610.0 70.654718C6610.0 70.965963 6612.1471 74.208479 6614.7713 77.860309C6619.9193 85.024137 6622.0 89.060328 6622.0 91.882943C6622.0 93.724957 6615.3161 103.0 6613.9887 103.0C6613.5796 103.0 6612.7949 102.4375 6612.2448 101.75Z M6549.0 33.019052C6549.0 32.479531 6550.2375 31.767018 6551.75 31.435691C6553.2625 31.104364 6556.4927 30.195791 6558.9281 29.416639C6564.3273 27.689364 6566.2925 27.622626 6565.7719 29.184224C6564.8703 31.889095 6549.0 35.517771 6549.0 33.019052Z M6591.3861 33.471061C6594.7612 30.095927 6589.6982 26.657264 6585.451 29.440125C6582.8094 31.170963 6582.2325 33.523639 6584.25 34.337719C6586.7507 35.346781 6589.8918 34.965299 6591.3861 33.471061Z"/>
</svg>
