<svg xmlns="http://www.w3.org/2000/svg"
     width="49.7" height="64.0"
     viewBox="1767.5568 12.0867 71.4432 91.9910">
  <path d="M1787.9175 96.217559C1783.8827 92.612458 1782.9968 86.31894 1785.4337 78.571412C1787.463 72.119701 1787.1825 66.129973 1784.7804 64.625598C1783.3859 63.752208 1782.3878 64.201015 1779.5 67.0C1776.6068 69.804246 1775.6167 70.248326 1774.2196 69.368495C1773.2738 68.772921 1772.361 67.580253 1772.1912 66.718122C1771.5568 63.498068 1774.2225 56.759523 1777.617 53.002126C1780.938 49.326176 1781.0697 48.913092 1780.0688 45.308801C1777.619 36.486574 1779.6232 29.37298 1786.9179 21.0C1791.1984 16.086664 1792.5163 16.097663 1796.184 21.077331C1798.5525 24.293137 1800.1585 36.23494 1799.1124 42.852356C1798.3981 47.371409 1798.5292 48.212858 1800.0771 49.041253C1804.5415 51.430542 1809.3671 49.141874 1812.349 43.220997C1815.1475 37.664157 1815.2144 35.043647 1812.6695 30.659238C1809.2369 24.745464 1808.5063 22.0 1810.3652 22.0C1811.1902 22.0 1812.1863 23.0125 1812.5787 24.25C1812.9711 25.4875 1814.3937 28.245483 1815.74 30.378851C1818.0093 33.974939 1818.0977 34.579481 1816.9519 38.671742C1814.9359 45.872243 1810.4307 51.828574 1806.4332 52.578502C1799.8889 53.806228 1795.0 51.460674 1795.0 47.093163C1795.0 45.201266 1794.1399 43.92316 1792.0269 42.674946C1789.2141 41.013421 1788.9126 41.011182 1786.4367 42.633437C1783.8287 44.342237 1783.7685 44.74556 1785.1875 51.00311C1785.3594 51.76107 1784.6 52.565369 1783.5 52.79044C1782.4 53.015511 1780.5544 54.070355 1779.3986 55.134537C1777.146 57.208633 1774.2656 64.598888 1775.3047 65.638049C1775.6502 65.983511 1777.5386 64.856275 1779.5012 63.133081C1781.4638 61.409886 1783.9424 60.0 1785.0091 60.0C1789.439 60.0 1791.5596 71.331612 1788.5 78.654243C1786.0871 84.429206 1786.5309 90.621825 1789.576 93.666927C1791.721 95.811906 1792.8011 96.155887 1796.0311 95.722659C1798.1645 95.436501 1802.0448 93.761688 1804.6538 92.000852C1812.7124 86.562186 1813.7814 86.431883 1817.3745 90.450274C1820.3872 93.819545 1826.0 96.279449 1826.0 94.230532C1826.0 93.688076 1825.2711 91.501792 1824.3803 89.372124C1823.1943 86.53684 1822.9165 83.826435 1823.3427 79.25C1824.0205 71.971371 1822.6551 71.012016 1818.8261 76.076723C1814.7873 81.418849 1811.6681 84.101214 1807.0463 86.206675C1801.3191 88.815742 1798.3445 88.78895 1795.6597 86.104116C1793.2569 83.701325 1793.0265 79.056222 1794.7867 68.5C1796.7776 56.559804 1798.4751 54.972388 1804.4111 59.5C1806.2138 60.875 1808.4394 62.0 1809.3568 62.0C1811.6278 62.0 1816.8736 53.443864 1821.5072 42.182262C1824.3272 35.328526 1826.2817 32.089111 1828.8983 29.932262C1832.0856 27.305068 1835.0 26.144558 1835.0 27.502603C1835.0 27.779034 1833.2461 29.589755 1831.1024 31.526427C1828.9588 33.463099 1826.8996 36.263784 1826.5266 37.750172C1825.4637 41.984809 1816.274 60.328753 1813.9841 62.786737C1811.624 65.319947 1808.6032 65.559776 1805.0 63.5C1800.2608 60.790815 1799.6143 61.417341 1797.8706 70.408934C1795.907 80.535293 1796.3221 83.791742 1799.6841 84.635556C1802.9981 85.467316 1813.0991 80.272307 1814.7152 76.904955C1816.6298 72.915719 1819.5017 70.87653 1824.0679 70.264072L1828.291 69.697637L1827.614 72.598818C1825.6893 80.847592 1825.758 83.976023 1827.9844 89.461585C1830.6264 95.970924 1830.1777 98.0 1826.0965 98.0C1821.8793 98.0 1818.3105 96.438102 1815.4328 93.332981L1812.9422 90.645591L1805.1024 94.822796C1795.7796 99.790223 1792.2377 100.07769 1787.9175 96.217559Z M1787.2459 39.059249C1789.6499 37.854094 1790.2201 37.889222 1791.8247 39.341336C1793.9421 41.257552 1796.0 41.51331 1796.0 39.860243C1796.0 38.735934 1794.6539 37.445745 1790.2562 34.355055C1788.1593 32.88135 1787.8495 32.932672 1785.5235 35.139061C1783.2873 37.260222 1781.8952 41.704975 1783.75 40.801246C1784.1625 40.600265 1785.7357 39.816366 1787.2459 39.059249Z M1794.6068 24.601417C1793.7792 22.620637 1792.4247 21.0 1791.5968 21.0C1789.8671 21.0 1783.0 29.568814 1783.0 31.727136C1783.0 32.518878 1783.3375 33.002227 1783.75 32.801246C1784.1625 32.600265 1785.7056 31.830047 1787.1792 31.089651C1789.5845 29.88113 1790.1469 29.971372 1792.6792 31.972168L1795.5 34.200859L1795.8058 31.201846C1795.974 29.552389 1795.4344 26.582196 1794.6068 24.601417Z M1817.989 25.75C1815.849 22.24012 1815.382 19.0 1817.0162 19.0C1817.5751 19.0 1818.7834 20.575 1819.7014 22.5C1820.6194 24.425 1821.7846 26.0 1822.2909 26.0C1822.7971 26.0 1824.6092 24.823761 1826.3177 23.386136C1830.3602 19.984559 1831.2306 22.106078 1827.423 26.080346C1823.6775 29.989854 1820.5064 29.878815 1817.989 25.75Z"/>
</svg>
