<svg xmlns="http://www.w3.org/2000/svg"
     width="34.7" height="64.0"
     viewBox="5706.5938 17.6935 47.4062 87.3242">
  <path d="M 5710.5938 51.9375 L 5714.625 52.375 C 5713.9123 49.773459 5714.4015 46.548171 5716.3125 40 C 5718.8726 31.228218 5721.0302 30.1673 5724.4375 36 C 5726.0997 38.845306 5726.6115 42.025247 5727.1562 53 C 5727.6414 62.770097 5728.5672 69.262891 5730.5 76.5 C 5732.6509 84.553776 5733.0646 87.9259 5732.6562 93.8125 C 5732.2965 99.000072 5732.4782 101.01767 5733.2812 100.75 C 5736.0329 99.832773 5736.4835 90.506223 5734.4062 78 L 5733.8438 74.5 L 5735.875 77.4375 C 5739.6962 82.983952 5740.7762 92.223781 5738.3438 98.5625 C 5738.0422 99.348442 5738.2158 100 5738.75 100 C 5739.2841 100 5740.4886 98.028038 5741.4062 95.625 C 5743.4477 90.279522 5742.7621 84.508926 5739.2812 77.78125 C 5736.8482 73.07868 5736.8279 73.067596 5738.0938 60.125 L 5739.375 47.15625 L 5734.5312 37.59375 C 5730.0383 28.720404 5728 26.140681 5728 29.28125 C 5728 29.979134 5729.8 34.120768 5732 38.5 C 5735.5671 45.600506 5735.9923 47.209508 5735.9375 53.46875 C 5735.9037 57.329134 5735.3211 63.65 5734.625 67.5 L 5733.3438 74.5 L 5732.1562 70.5 C 5730.7741 65.894579 5728.6356 44.391239 5729.4375 43.09375 C 5730.1772 41.896933 5727.3125 35.164626 5724.4062 31.3125 C 5721.5082 27.471261 5721.4906 27.340757 5723.9375 26.03125 C 5725.4327 25.23104 5726.7482 25.481793 5729.6875 27.15625 C 5735.4231 30.423699 5737.5607 32.673085 5741.9688 39.96875 C 5746.409 47.317591 5746.9139 50.91223 5744.375 57.5 C 5740.5671 67.380428 5740.5343 68.898136 5743.9062 78.71875 C 5746.7107 86.886712 5746.9282 88.357767 5746 92.5 C 5744.9824 97.04067 5745.2816 99 5746.9688 99 C 5748.2133 99 5750 93.228073 5750 89.21875 C 5750 87.103218 5749.3106 85.174986 5748.25 84.3125 C 5747.0116 83.305499 5746.8566 82.735846 5747.7188 82.375 C 5748.628 81.994395 5748.4375 80.55166 5746.9688 76.6875 C 5744.6326 70.540841 5744.4469 64.427774 5746.4688 60.375 C 5748.8265 55.648818 5749.5905 46.292541 5747.7812 44.21875 C 5746.9496 43.265559 5745.4828 40.830211 5744.5312 38.78125 C 5742.0029 33.336186 5735.791 26.707394 5730.6875 24 C 5726.4446 21.749127 5726.1107 21.693512 5723.6875 23.28125 C 5719.2146 26.212013 5716.2486 31.276175 5713.5938 40.46875 C 5712.1712 45.394973 5711 50.055606 5711 50.84375 C 5711 51.177132 5710.8073 51.556878 5710.5938 51.9375 z "/>
</svg>
