<svg xmlns="http://www.w3.org/2000/svg"
     width="62.9" height="64.0"
     viewBox="5459.0000 18.9612 87.9909 89.5692">
  <path d="M 5483.5938,50.125 5483.9688,51.75 5481.125,54.15625 C 5480.9812,54.504549 5480.6877,54.862851 5480.1562,55.34375 5479.648,55.803744 5479.1779,55.965488 5478.6875,56.21875 L 5474.7812,59.53125 5473.6875,60.09375 C 5473.6922,60.733453 5473.3115,61.417804 5472.5,62.65625 5471.5115,64.164943 5470.5845,66.98412 5470.4688,68.9375 5469.4554,86.029643 5468.8755,88.948127 5465.9062,91.0625 5464.3137,92.196419 5463,93.597868 5463,94.15625 5463,94.714631 5463.3375,95.010182 5463.75,94.8125 5471.6826,91.010987 5471.4902,91.25855 5471.7188,84.6875 5471.837,81.286392 5472.1228,77.6 5472.375,76.5 5472.6272,75.4 5472.8954,72.495774 5472.9375,70.0625 5473.0087,65.945852 5473.4731,65.198704 5479.6562,59.3125 5483.3111,55.833274 5486.7208,53 5487.25,53 5487.7792,53 5491.3376,54.6875 5495.1562,56.75 5502.0058,60.449533 5502.1312,60.473084 5503.6562,58.5 5504.8793,56.917567 5505.0878,54.785804 5504.6562,48.28125 5504.0523,39.179385 5502.8499,36 5500.0625,36 5499.0407,36 5497.9416,35.325 5497.625,34.5 5496.8884,32.580537 5493.238,32.572575 5488.625,34.5 5485.2874,35.894532 5483.2079,38.895559 5486.4375,37.65625 5490.0855,36.256384 5495.2784,35.767248 5494.5938,36.875 5494.2068,37.501125 5493.0874,38 5492.125,38 5489.7289,38 5486.5369,40.463864 5487.3125,41.71875 5487.7249,42.386001 5489.9209,42.086665 5493.5938,40.875 5496.6937,39.85233 5499.5709,39.234795 5500,39.5 5501.1405,40.204899 5503.1304,52.519016 5502.4062,54.40625 5501.5501,56.637309 5500.4363,56.448009 5494.4375,53.0625 5490.6391,50.918832 5488.0382,50.157603 5484.9375,50.28125 5484.3112,50.306224 5484.0803,50.140535 5483.5938,50.125 z M 5489.0625,58 C 5488.0878,58 5484.9297,60.73012 5482.0312,64.0625 5477.1075,69.723532 5476.7266,70.530956 5476.25,76.46875 5475.6134,84.400031 5476.2205,86.818844 5479.8438,90.96875 5483.5074,95.164885 5484.7151,93.496166 5481.4688,88.71875 5479.4873,85.802802 5479,83.86961 5479,78.65625 5479,72.471836 5479.2029,71.945729 5483.5625,66.59375 5486.0678,63.518333 5488.31,61 5488.5625,61 5490.1098,61 5495.9426,65.808596 5497.3438,68.25 5499.661,72.287487 5499.4834,73.079972 5495.4062,77.53125 5493.4316,79.687079 5491.1734,82.706092 5490.375,84.25 5489.0028,86.903525 5489.1206,87.388112 5492.4688,92.8125 5494.4168,95.968588 5496,99.104597 5496,99.78125 5496,100.4579 5496.1762,101 5496.4062,101 5496.6362,101 5497.4821,101.25587 5498.2812,101.5625 5500.2903,102.33346 5503,99.37968 5503,96.40625 5503,95.051185 5502.2767,92.813603 5501.375,91.4375 5499.8158,89.057883 5499.8493,88.793388 5502.0625,86.4375 L 5504.375,83.96875 5507.5,87 C 5510.5366,89.943209 5510.5983,90.186313 5509.625,94.9375 5508.8476,98.732652 5508.9374,100.226 5509.9688,101.46875 5512.0103,103.92877 5513.2202,102.93621 5516.75,95.96875 5520.7875,87.999124 5520.8319,85.443303 5516.9375,80.71875 5513.2615,76.259018 5513.5287,72.784432 5517.9688,68.03125 5521.3756,64.384186 5521.736,64.357183 5525.2812,67.40625 5528.0467,69.784559 5528.0555,69.830791 5527,76.4375 5526.4153,80.097851 5526.2252,85.22869 5526.5625,87.8125 5527.1267,92.134035 5526.9325,92.735673 5524.0938,95.4375 5521.1813,98.209598 5520.0372,101 5521.8125,101 5522.2546,101 5524.1674,99.392741 5526.0625,97.4375 5529.4112,93.982485 5529.4991,93.703907 5529.2188,86.8125 5529.0601,82.912558 5529.4382,77.401067 5530.0625,74.59375 L 5531.1875,69.5 5527.125,65.25 C 5524.8942,62.9125 5522.5676,61 5521.9375,61 5519.7679,61 5514.5669,66.230221 5512.7812,70.21875 5510.3366,75.678875 5510.5736,77.92345 5514.0312,81.96875 5516.9376,85.368834 5517.8834,89.312145 5516.0625,90.4375 5515.5549,90.751266 5514.861,92.356307 5514.5,94 5514.139,95.643692 5513.4506,97 5512.9688,97 5512.4869,97 5512.6913,95.271191 5513.4375,93.15625 L 5514.8125,89.3125 5509.7812,84.59375 5504.75,79.84375 5501.375,83.125 C 5497.1209,87.248183 5496.4126,89.457288 5498.4062,92.5 5500.1005,95.085735 5500.4704,97.020182 5499.25,96.96875 5498.2203,96.925353 5493,88.209277 5493,86.53125 5493,85.78515 5494.9843,82.837405 5497.4062,80 5502.7805,73.703868 5503.272,71.999186 5501.0312,67.78125 5499.0211,63.997242 5491.6795,58 5489.0625,58 z M 5475,92.71875 5471,95.5 C 5464.9627,99.683845 5465.6356,101.73467 5471.8125,97.96875 L 5475.1562,95.9375 5478.1562,98.46875 C 5480.9878,100.85135 5483,101.07237 5483,98.96875 5483,98.459014 5481.2013,96.831728 5479,95.375 L 5475,92.71875 z M 5528.0938,34.5 5528,31 5526.125,29.125 C 5523.3298,26.329749 5521.3999,26.433853 5516.75,29.65625 L 5512.9062,32.34375 5508.6562,28.15625 C 5503.5321,23.127166 5501.5077,22.961191 5492.875,26.875 5489.3757,28.461443 5485.6483,30.049662 5484.5938,30.40625 5483.1886,30.881449 5482.9673,31.373642 5483.7812,32.1875 5484.595,33.001357 5486.5139,32.666019 5490.9688,31 5494.3118,29.749824 5497.298,28.35357 5497.5938,27.875 5498.9711,25.646382 5503.3944,27.161959 5507.1562,31.15625 L 5511.0625,35.3125 5510.2812,41.40625 C 5509.3506,48.70168 5509.3531,53.535033 5510.3125,57.25 5511.2301,60.803224 5514.2506,60.855906 5519.2812,57.4375 5522.9781,54.925399 5523.0602,54.91512 5526.0625,56.6875 5527.7367,57.675856 5530.6067,60.431937 5532.4375,62.78125 5535.5465,66.770833 5535.7042,67.331788 5534.8125,71.28125 5534.2874,73.606937 5533.7954,78.684988 5533.7188,82.5625 5533.578,89.690433 5535.5795,95.569585 5539.7188,100.21875 5542.3951,103.22467 5542.9909,101.10815 5540.5,97.4375 5539.1859,95.501097 5537.5904,92.290633 5536.9375,90.3125 5535.8104,86.897219 5535.8713,85.007538 5537.625,70.28125 5538.2073,65.391355 5538.0531,64.812957 5534.9688,61.28125 5533.1558,59.205404 5529.9491,56.216013 5527.8438,54.65625 L 5524,51.84375 5519.3125,54.4375 C 5516.266,56.140226 5514.325,56.700017 5513.6875,56.0625 5512.6373,55.012358 5512.5592,41.548981 5513.5938,39.875 5513.9551,39.290353 5515.8139,39.125378 5518.0312,39.5 5522.3566,40.230755 5525.5649,38.941303 5526.4688,36.09375 5526.6003,35.679427 5527.4088,35.06489 5528.0938,34.5 z M 5522.1562,30.03125 C 5524.3138,29.987562 5525.267,32.636919 5523.9688,35.0625 5522.7089,37.416503 5517.2329,37.735529 5516.375,35.5 5515.7169,33.784947 5519.6291,30.082422 5522.1562,30.03125 z M 5532.3125,97.1875 C 5531.0557,96.833622 5529.6141,97.727246 5528.0625,99.90625 5526.925,101.50365 5526,103.07865 5526,103.40625 5526,104.53043 5527.7557,103.99927 5529,102.5 5530.6212,100.54652 5531.9102,100.60688 5534.3125,102.75 5536.2138,104.44621 5536.2321,104.42315 5535.5,102 5534.6362,99.140876 5533.5693,97.541378 5532.3125,97.1875 z"/>
</svg>
