<svg xmlns="http://www.w3.org/2000/svg"
     width="32.0" height="64.0"
     viewBox="3606.6616 17.0000 44.4837 89.0254">
  <path d="M3627.5 101.23469C3626.95 100.83061 3625.375 98.317142 3624.0 95.649205C3622.625 92.981268 3620.559 90.047719 3619.4088 89.130206C3615.1124 85.70286 3614.8533 83.842407 3617.4597 75.134475C3620.1098 66.280581 3619.9838 64.88472 3615.7758 56.49079C3612.1943 49.346513 3610.6616 41.804697 3611.2646 34.292773C3611.7155 28.675005 3612.2218 27.366414 3615.0883 24.408867C3616.9055 22.53399 3619.3442 21.0 3620.5076 21.0C3623.5535 21.0 3626.8887 24.515219 3629.7289 30.71899C3631.9952 35.669349 3632.1442 36.860494 3631.5058 44.926211C3630.6487 55.755512 3631.3465 57.361527 3640.5042 65.637652L3647.1453 71.639469L3644.9739 75.319735C3642.4166 79.653898 3640.8374 79.882424 3636.8176 76.5C3632.9451 73.241456 3631.5132 73.346742 3629.9994 77.001355C3628.8199 79.849106 3629.0184 80.361973 3633.8781 87.022599C3636.6952 90.883538 3639.0 94.404487 3639.0 94.84693C3639.0 96.376004 3631.2938 102.0254 3629.2636 101.98469C3628.8436 101.97627 3628.05 101.63877 3627.5 101.23469Z M3633.0818 97.0C3634.5511 97.0 3634.1407 92.361652 3632.5549 91.045582C3631.7601 90.385963 3629.6805 87.618862 3627.9336 84.896469L3624.7573 79.946663L3627.1867 75.225845C3628.5229 72.629396 3630.3669 70.360436 3631.2846 70.183712C3632.2022 70.006988 3634.534 71.068264 3636.4663 72.542103C3639.7111 75.017057 3643.0 75.324492 3643.0 73.152859C3643.0 72.652407 3640.5097 70.115457 3637.4661 67.515191C3629.3314 60.565507 3628.0964 57.52705 3628.2807 44.915796C3628.414 35.787643 3628.1508 33.983018 3626.151 30.318115C3622.8223 24.217787 3621.5498 23.409709 3618.4604 25.434009C3615.2711 27.523722 3614.0 30.788303 3614.0 36.889947C3614.0 41.82931 3617.2967 52.591505 3620.9141 59.461442C3623.4988 64.370247 3623.5111 66.19139 3621.0129 74.160906C3618.438 82.375129 3618.4947 84.176651 3621.4143 86.919448C3622.7421 88.16689 3625.0888 91.181365 3626.6292 93.618281C3628.3602 96.356831 3629.9519 97.848713 3630.7967 97.524519C3631.5485 97.236034 3632.5768 97.0 3633.0818 97.0Z"/>
</svg>
