<svg xmlns="http://www.w3.org/2000/svg"
     width="36.7" height="64.0"
     viewBox="4014.2354 18.0018 49.2863 85.9982">
  <path d="M4036.9751 95.951278C4034.0156 90.150046 4032.4307 89.956582 4027.9164 94.845519C4025.8065 97.130484 4023.7022 99.0 4023.2401 99.0C4018.2354 99.0 4019.3518 86.117105 4024.9106 79.722666C4027.6618 76.557959 4027.7222 76.215301 4028.2741 60.67C4028.8056 45.696408 4028.7278 44.749653 4026.8368 43.17C4023.2583 40.180741 4020.7933 34.182642 4021.478 30.130041C4021.8191 28.111018 4022.4807 25.840222 4022.9482 25.083828C4024.1325 23.167533 4026.841 24.451693 4027.9903 27.474374C4029.2665 30.831118 4031.1764 30.664229 4033.3367 27.007204C4034.309 25.361166 4036.0268 23.520834 4037.154 22.917576C4038.8651 22.001831 4039.6801 22.277361 4042.0902 24.58644C4043.6779 26.107573 4045.2375 28.172905 4045.5559 29.176068C4046.4156 31.884673 4047.8025 31.43284 4052.2353 27.0C4054.4353 24.8 4056.6238 23.0 4057.0986 23.0C4059.5217 23.0 4059.4419 35.761505 4056.9852 41.139728C4056.3221 42.591579 4054.7241 44.260331 4053.4341 44.848067C4051.1257 45.899857 4051.0883 46.155394 4051.0602 61.082736C4051.0325 75.751874 4051.1121 76.344505 4053.4895 79.169867C4056.4311 82.665763 4058.2271 88.759188 4057.8064 93.816348C4057.3935 98.78064 4054.2888 99.320343 4050.6973 95.052151C4049.2848 93.373468 4047.7626 92.003466 4047.3146 92.007702C4046.8666 92.011938 4045.4741 93.811938 4044.2201 96.007702C4042.9662 98.203466 4041.2879 100.0 4040.4905 100.0C4039.6931 100.0 4038.1112 98.178075 4036.9751 95.951278Z M4030.9122 84.693705C4029.6882 80.425855 4028.303 79.242687 4026.638 81.042857C4024.4873 83.368171 4021.8763 91.034869 4022.5317 93.100021C4023.0742 94.809195 4023.5449 94.644098 4027.4604 91.371071C4031.4517 88.03483 4031.721 87.513858 4030.9122 84.693705Z M4030.236 36.54584C4030.5706 34.79555 4029.9388 33.357499 4028.0332 31.531839C4026.5637 30.123927 4025.055 29.278299 4024.6807 29.652666C4022.6461 31.687249 4025.5872 39.0 4028.4401 39.0C4029.1698 39.0 4029.978 37.895628 4030.236 36.54584Z M4042.7929 91.25C4045.3445 84.473638 4046.0776 80.978477 4047.1941 70.268002C4048.1076 61.503661 4048.1127 56.708158 4047.2159 49.671841C4045.9799 39.974956 4041.6838 27.199632 4039.3589 26.307473C4036.8186 25.332689 4034.8543 28.099806 4035.1527 32.232595C4035.3226 34.586399 4034.9273 36.426894 4034.1484 36.908284C4032.4247 37.973558 4030.7028 56.816583 4031.2157 69.0C4031.5765 77.569079 4031.9899 79.259435 4035.4349 86.25C4037.5355 90.5125 4039.8174 94.0 4040.5058 94.0C4041.1941 94.0 4042.2233 92.7625 4042.7929 91.25Z M4052.5862 41.234687C4053.9693 40.299168 4056.0 34.419776 4056.0 31.350777C4056.0 28.915034 4054.6076 28.207849 4053.4619 30.061683C4053.101 30.645609 4051.6757 31.552986 4050.2946 32.078076C4048.0309 32.938747 4047.8524 33.399794 4048.4826 36.758777C4049.4893 42.125117 4050.1708 42.86843 4052.5862 41.234687Z M4054.1783 89.395108C4053.775 85.765294 4051.8736 81.769255 4050.3074 81.259629C4049.6124 81.033521 4048.8492 82.286678 4048.4786 84.262408C4047.9728 86.958643 4048.3195 88.196896 4050.1712 90.307205C4053.0414 93.578154 4054.6036 93.222562 4054.1783 89.395108Z"/>
</svg>
