<svg xmlns="http://www.w3.org/2000/svg"
     width="35.9" height="64.0"
     viewBox="4823.6015 16.2231 49.3985 87.9688">
  <path d="M4831.0 94.731217C4831.0 90.077541 4834.6383 84.991067 4839.9669 82.195351C4845.5593 79.261188 4846.9287 77.409487 4846.9682 72.728561C4846.9944 69.624435 4846.5412 68.748071 4844.4069 67.775627C4841.1221 66.278994 4837.3972 68.148563 4834.5 72.747897C4831.8806 76.906248 4830.4215 76.807227 4828.9577 72.371774C4827.6015 68.262603 4828.7456 63.016907 4831.7807 59.427494C4833.8937 56.928559 4841.9992 54.710715 4845.6606 55.629654C4848.2598 56.28201 4848.2935 56.224877 4847.7412 52.107164C4846.961 46.290079 4845.5849 45.002746 4840.1276 44.984687C4834.9302 44.967489 4833.7977 44.446684 4832.1497 41.315741C4830.4361 38.060082 4830.7549 32.73768 4832.9736 27.561664C4836.0513 20.381592 4839.4516 20.223124 4846.9334 26.911082C4851.9652 31.409014 4852.1229 31.384829 4859.5224 24.980597C4862.0679 22.777517 4864.5492 21.221408 4865.0365 21.522578C4867.1385 22.821638 4867.1655 28.679527 4865.0853 32.09167C4862.3107 36.642856 4862.4525 38.101316 4866.0 41.5C4868.2901 43.694071 4869.0 45.262457 4869.0 48.128074C4869.0 53.113891 4867.5849 53.735564 4863.2524 50.652998C4861.2746 49.24574 4859.2837 48.324676 4858.8282 48.60619C4857.4631 49.449832 4857.8729 57.069345 4859.6578 64.035543C4861.2805 70.368052 4861.2667 70.786653 4859.2145 77.510083C4857.2529 83.936571 4857.2167 84.58196 4858.7246 86.248169C4859.9676 87.621638 4860.076 88.323998 4859.183 89.217036C4858.2899 90.110074 4857.3271 89.729469 4855.113 87.608221L4852.2127 84.829627L4854.5943 80.664814C4857.1783 76.146002 4857.9225 66.592154 4855.974 62.95137C4855.4097 61.896939 4854.7971 57.654814 4854.6127 53.524426C4854.2009 44.300237 4855.2859 42.812183 4860.582 45.337692C4864.8047 47.351355 4865.0 47.363779 4865.0 45.618689C4865.0 44.858968 4863.425 43.036067 4861.5 41.567798C4859.575 40.099529 4858.0 38.293708 4858.0 37.554864C4858.0 36.81602 4859.35 34.766331 4861.0 33.0C4863.9779 29.812141 4864.9164 27.0 4863.0023 27.0C4862.4536 27.0 4859.8123 28.575 4857.1329 30.5C4854.4534 32.425 4851.6942 34.0 4851.0013 34.0C4850.3084 34.0 4847.8557 31.975 4845.5508 29.5C4840.3228 23.885981 4837.4846 23.595996 4835.449 28.467881C4833.5527 33.006323 4833.6138 37.00359 4835.6233 39.87255C4837.0402 41.895492 4837.7918 42.108347 4841.5357 41.546921C4845.5749 40.941198 4845.9798 41.10702 4848.4865 44.393406C4850.3266 46.805854 4851.2009 49.244719 4851.3189 52.294096C4851.5489 58.236771 4849.9356 60.099949 4845.6886 58.796508C4843.446 58.108213 4841.1348 58.155899 4838.1804 58.951423C4833.692 60.160024 4832.0 62.546537 4832.0 67.668692L4832.0 70.207184L4835.5348 67.103592C4839.7166 63.431919 4844.5269 62.978939 4847.7223 65.955909C4853.1175 70.982269 4850.2438 80.677564 4842.32 84.182659C4837.5868 86.276371 4835.0923 89.313797 4834.0929 94.200283C4833.1777 98.674814 4831.0 99.048651 4831.0 94.731217Z M4835.3963 97.590257C4834.7373 95.87302 4837.6284 90.0 4839.1327 90.0C4839.7905 90.0 4839.911 90.685351 4839.4404 91.75C4839.015 92.7125 4838.7237 94.7375 4838.7932 96.25C4838.9283 99.192247 4836.3946 100.19192 4835.3963 97.590257Z M4841.0 97.732135C4841.0 95.405256 4846.0474 89.0 4847.8811 89.0C4848.876 89.0 4850.5045 89.9 4851.5 91.0C4852.4955 92.1 4853.9152 93.0 4854.655 93.0C4855.3947 93.0 4856.0 93.9 4856.0 95.0C4856.0 96.242189 4855.3333 97.0 4854.2405 97.0C4853.2728 97.0 4851.919 96.1 4851.2321 95.0C4849.3922 92.053866 4846.1876 92.506925 4844.2035 95.993677C4842.4231 99.122474 4841.0 99.894764 4841.0 97.732135Z"/>
</svg>
