<svg xmlns="http://www.w3.org/2000/svg"
     width="40.1" height="64.0"
     viewBox="5524.0000 19.3980 55.4375 88.4615">
  <path d="M 5555.5938,88.875 C 5555.7758,88.629031 5556.1809,88.708385 5556.875,89.25 5559.5062,91.303302 5560.9348,93.398399 5560.9688,95.28125 5561.016,97.912484 5565.785,96.41047 5568.8125,92.8125 5570.1473,91.226157 5571.4487,90.104968 5571.6875,90.34375 5572.5929,91.249121 5569.0869,97.872947 5567.1562,98.90625 5563.8572,100.67181 5562.2946,100.18249 5559.1562,96.375 5556.6048,93.279597 5555.0475,89.612907 5555.5938,88.875 z M 5555.7812,75 C 5556.9496,75 5561,78.009538 5561,78.875 5561,79.290381 5559.65,80.623852 5558,81.84375 L 5555,84.0625 5555,79.53125 C 5555,77.039785 5555.3537,75 5555.7812,75 z M 5562.9062,63.09375 C 5564.1848,63.114421 5565.4505,63.862733 5566.8125,65.3125 5569.5273,68.202336 5569.5735,70.023876 5566.9375,73.375 5564.4383,76.552262 5563.0805,76.65563 5559.625,73.9375 5556.4699,71.455745 5556.2491,68.173811 5559.0312,65.1875 5560.3417,63.780938 5561.6277,63.073079 5562.9062,63.09375 z M 5528.0938,34.5 C 5531.4523,31.730243 5540.0917,27.736789 5544.6875,27.21875 5549.7664,26.646257 5555.2303,29.588266 5556.8125,33.75 5558.2612,37.560517 5559.8016,45.360485 5560.5625,52.75 5561.1554,58.508227 5560.9931,59.236401 5558.5625,62.125 5554.5919,66.843877 5552.8865,71.708665 5552.3125,80 5551.6454,89.635722 5554.4639,98.086908 5559.3438,101.0625 5563.9308,103.85951 5567.3535,103.54775 5570.3125,100.03125 5573.8982,95.769909 5575.4375,90.515212 5575.4375,82.5 5575.4375,73.559894 5573.7423,68.77035 5568.625,63.21875 5564.3133,58.541079 5562.1616,52.712984 5562.0312,45.5 5561.9253,39.639625 5558.7728,31.116536 5555.5312,27.875 5552.4227,24.766449 5547.5164,23.397965 5543.25,24.46875 5541.734,24.84925 5537.7419,26.543079 5534.375,28.21875 L 5528.25,31.25 5528,31 5528.0938,34.5 z M 5571.125,73.96875 C 5571.8503,74.396238 5572.3324,75.995152 5572.7188,78.875 5573.3487,83.572239 5572.1072,84.187058 5568.125,81.125 L 5565.7188,79.28125 5568.0625,76.125 C 5569.4283,74.277745 5570.3997,73.541262 5571.125,73.96875 z M 5562.75,81.78125 C 5563.9498,81.585929 5564.9531,82.160949 5566.9688,83.84375 L 5570.1875,86.5 5568,89.25 C 5565.2771,92.711644 5564.0455,92.693965 5560.6562,89.15625 5557.6231,85.990291 5557.8677,83.845269 5561.4375,82.21875 5561.9244,81.996925 5562.3501,81.846357 5562.75,81.78125 z"/>
</svg>
