<svg xmlns="http://www.w3.org/2000/svg"
     width="33.7" height="64.0"
     viewBox="467.4688 13.2099 48.5312 92.1106">
  <path d="M 471.59375 89.4375 L 471.5625 92.3125 C 472.8738 92.435166 474.2831 92.431741 475.78125 92.28125 C 480.43203 91.81407 481.49166 91.243828 484.5625 87.65625 C 488.25039 83.347777 491 75.916047 491 70.25 C 491 68.378963 490.03361 63.147887 488.84375 58.65625 C 487.61099 54.00264 486.63561 47.277039 486.59375 43 C 486.53204 36.695182 486.9935 34.555113 489.375 29.6875 C 490.93432 26.500359 492.71031 24.051934 493.34375 24.25 C 493.97719 24.448066 495.26861 26.160213 496.21875 28.03125 C 497.66286 30.874992 497.86284 33.07861 497.34375 41.5625 C 497.00221 47.144466 497.04705 53.006818 497.4375 54.5625 C 497.82795 56.118182 500.34907 59.527129 503.0625 62.15625 C 505.82085 64.828889 508 67.851682 508 69 C 508 70.946394 507.87044 70.949721 505.5625 69.4375 C 504.22304 68.559858 501.86054 68.010037 500.3125 68.1875 C 497.92615 68.461061 497.30799 69.184748 496.21875 73 C 490.96886 91.388755 488.17735 95.069906 478 97 C 475.39806 97.493447 473.47195 97.553568 471.53125 97.125 L 471.46875 100.625 C 476.32722 101.32045 483.95133 99.230833 488.625 95.4375 C 493.30952 91.635349 495.28625 87.961387 497.59375 78.875 C 498.48348 75.371438 499.67019 71.957193 500.21875 71.28125 C 501.62264 69.55137 504.58058 71.319511 506.5 75.03125 C 508.99462 79.855309 512 78.459177 512 72.46875 C 512 68.718947 509.91931 64.801837 505.6875 60.59375 C 500.16884 55.106028 499.08162 51.884433 500.0625 44 C 501.95456 28.791345 496.91601 17.209899 490.78125 22.65625 C 489.64126 23.668323 487.54039 26.975 486.125 30 C 482.79234 37.12262 482.69615 47.917334 485.84375 59.25 C 488.39718 68.443424 488.55295 73.217756 486.46875 79.125 C 484.24418 85.430116 480.75125 88.633819 475.34375 89.375 C 473.82358 89.583363 472.70071 89.526761 471.59375 89.4375 z "/>
</svg>
