<svg xmlns="http://www.w3.org/2000/svg"
     width="63.3" height="64.0"
     viewBox="2371.3416 15.0000 92.7749 93.7350">
  <path d="M2375.7034 95.370094C2375.3416 95.008245 2376.3733 93.199939 2377.9961 91.351638C2382.2975 86.45262 2384.3929 78.291803 2383.599 69.53056C2382.9886 62.794315 2383.1126 62.173285 2385.9108 57.956192C2390.3936 51.200292 2395.9842 45.0 2397.5931 45.0C2398.3835 45.0 2401.4846 46.385129 2404.4843 48.078065C2407.484 49.771 2410.4522 50.838583 2411.0801 50.45047C2412.5456 49.544783 2411.8224 38.42236 2410.192 36.792028C2409.2878 35.887763 2407.8501 35.985964 2404.0087 37.214391C2400.7302 38.262838 2398.7864 38.463351 2398.3737 37.795672C2397.5974 36.539613 2399.4145 35.316687 2404.0 34.009164C2409.0605 32.566194 2410.7525 32.752472 2413.0 35.0C2416.632 38.631955 2415.353 55.0 2411.4372 55.0C2410.5505 55.0 2407.0229 53.432983 2403.5981 51.517741L2397.3712 48.035482L2393.9119 51.767741C2386.692 59.557382 2386.3081 60.564792 2385.8118 73.027802C2385.5012 80.82658 2384.8464 85.460606 2383.7667 87.5C2381.8199 91.177493 2376.6029 96.269525 2375.7034 95.370094Z M2380.0 99.360243C2380.0 98.698041 2381.8419 97.095826 2385.7856 94.327679C2388.0832 92.714926 2389.0974 92.954125 2395.8735 96.706872C2396.079 96.820651 2395.9665 97.644873 2395.6236 98.538475C2395.069 99.983651 2394.6047 99.918788 2391.4216 97.951553L2387.8431 95.739899L2384.962 97.86995C2382.1197 99.971349 2380.0 100.60799 2380.0 99.360243Z M2437.0 101.55291C2437.0 101.30702 2438.0581 99.115782 2439.3514 96.683502C2441.0663 93.45818 2441.7536 90.414101 2441.8905 85.437171C2441.9937 81.683968 2442.5186 76.64816 2443.0568 74.246485C2443.9919 70.074109 2443.8735 69.682241 2440.3972 65.439902C2438.3963 62.997956 2435.9322 61.0 2434.9216 61.0C2432.4203 61.0 2425.0 68.220154 2425.0 70.653992C2425.0 71.734008 2423.4052 75.266146 2421.4559 78.503187C2417.5675 84.960626 2417.2989 88.328706 2420.6346 88.804429C2423.4347 89.203775 2426.3806 85.404018 2429.1417 77.831515C2430.6936 73.575431 2431.7501 72.000464 2432.9002 72.228756C2434.1697 72.480748 2434.4993 73.883616 2434.4967 79.023158C2434.492 88.076965 2431.1753 94.639104 2425.0 97.812406C2417.3397 101.74878 2410.478 99.701644 2405.3477 91.94929C2402.9445 88.317755 2402.8042 87.596806 2403.8328 84.163692C2404.4563 82.082786 2406.0989 79.316235 2407.4832 78.0158C2412.0983 73.680128 2410.3909 66.043715 2403.6228 60.75C2399.0541 57.176555 2397.8417 57.281511 2395.5998 61.444581C2394.1524 64.13213 2393.7148 67.263921 2393.6087 75.694581C2393.4756 86.257484 2393.5379 86.57746 2396.3825 89.951276C2399.8484 94.062061 2398.159 95.542648 2394.5034 91.598129C2393.179 90.169158 2391.7061 89.0 2391.2302 89.0C2390.7542 89.0 2390.4614 83.390642 2390.5794 76.534759C2390.801 63.655655 2391.594 60.887482 2396.8199 54.75C2398.724 52.513715 2399.0161 52.542367 2402.0102 55.259196C2403.3796 56.501753 2405.7281 58.305991 2407.2292 59.268613C2413.7257 63.434834 2414.8193 73.437146 2409.5356 80.364419C2406.1399 84.816467 2406.0231 87.759724 2409.0784 91.892233C2412.3184 96.274553 2417.9206 97.885146 2422.4353 95.732245C2426.8453 93.629275 2430.6623 88.488114 2431.517 83.5L2432.2024 79.5L2428.8512 84.906878C2424.2858 92.272822 2422.4508 93.365949 2418.1526 91.280199C2416.3115 90.386796 2414.5755 89.057262 2414.2947 88.325679C2413.4287 86.068882 2414.895 82.189187 2417.913 78.751832C2419.4993 76.945167 2421.317 73.53641 2421.9524 71.176818C2423.2183 66.475416 2428.0588 60.525116 2432.9336 57.677661L2436.0535 55.855321L2438.7768 59.116965C2440.2745 60.910869 2442.7748 63.715309 2444.3328 65.349054L2447.1657 68.319499L2445.7499 73.939783C2444.9712 77.030939 2444.232 82.921551 2444.1072 87.030033C2443.9199 93.193059 2443.4295 95.156098 2441.3041 98.25C2439.0963 101.46388 2437.0 103.07255 2437.0 101.55291Z M2455.8915 97.722143C2451.1007 91.702096 2450.7347 90.318228 2451.3644 80.604737C2451.689 75.597132 2452.219 69.925 2452.542 68.0C2453.0942 64.70905 2452.6996 64.066967 2445.9346 57.25C2441.9775 53.2625 2438.0073 50.0 2437.112 50.0C2436.2166 50.0 2433.3708 51.125 2430.7878 52.5C2428.2049 53.875 2425.4118 55.0 2424.581 55.0C2421.5892 55.0 2420.7087 51.078803 2421.4109 40.882549L2422.0832 31.121921L2417.713 26.56096C2415.3094 24.052432 2412.4943 22.0 2411.4572 22.0C2410.4201 22.0 2406.0337 23.840651 2401.7095 26.090335C2397.3853 28.34002 2393.5817 29.91502 2393.257 29.590335C2392.485 28.818314 2392.2393 28.993663 2401.5983 23.635988C2406.0523 21.086195 2410.3911 19.0 2411.2401 19.0C2412.0891 19.0 2415.0362 21.025156 2417.7892 23.500347L2422.7946 28.000694L2427.1473 25.512392C2433.2757 22.008971 2435.6647 22.229053 2437.6937 26.483961C2439.1273 29.490236 2439.1685 30.316595 2437.9941 32.510944C2436.3003 35.675958 2432.8828 36.608291 2428.9485 34.978678C2427.2916 34.292343 2425.6706 33.996017 2425.3465 34.320176C2425.0223 34.644335 2424.5447 38.529906 2424.2851 42.954778C2423.8435 50.479824 2423.9417 51.0 2425.8044 51.0C2426.8997 51.0 2429.7543 49.88042 2432.1479 48.512045C2434.5416 47.14367 2437.035 46.01867 2437.689 46.012045C2439.7173 45.991497 2453.7761 59.045255 2455.0575 62.138891C2456.0137 64.447208 2456.0027 66.637978 2455.006 72.465002C2454.3101 76.532904 2453.9452 82.325968 2454.195 85.338478C2454.6016 90.240946 2455.358 91.998467 2459.4775 97.612744C2460.1165 98.483552 2460.1088 99.29118 2459.4554 99.94462C2458.7892 100.61084 2457.6004 99.869523 2455.8915 97.722143Z M2396.0 33.130713C2396.0 31.661336 2408.2148 26.814819 2409.2668 27.866798C2410.3626 28.962609 2408.4219 30.167657 2401.9087 32.435684C2396.7845 34.220037 2396.0 34.312319 2396.0 33.130713Z M2435.5 29.5C2435.5 27.127785 2435.0171 26.431545 2433.1922 26.172873C2430.8645 25.84293 2426.0 28.34368 2426.0 29.870239C2426.0 31.193956 2430.2815 32.927798 2433.0 32.704944C2435.0656 32.535614 2435.5 31.978682 2435.5 29.5Z M2442.0 102.95951C2442.0 101.38386 2446.2279 95.995908 2447.4381 96.029313C2448.9023 96.069732 2455.3215 102.01186 2454.6386 102.69474C2454.0335 103.29986 2452.479 102.69132 2449.6874 100.75636C2448.1493 99.690299 2447.5948 99.840803 2446.0271 101.75C2444.0917 104.10679 2442.0 104.73503 2442.0 102.95951Z"/>
</svg>
