<svg xmlns="http://www.w3.org/2000/svg"
     width="37.0" height="64.0"
     viewBox="3349.5312 16.4696 51.3115 88.7722">
  <path d="M 3353.5312 77.875 L 3354.0312 94.21875 C 3355.1049 94.233647 3356.2515 94.800538 3358.2188 96 C 3366.8162 101.2418 3377.9062 96.13195 3383.5 84.34375 C 3385.4705 80.191269 3386.2663 79.738218 3388.5938 81.5 C 3391.0655 83.370944 3392.5124 83.362524 3394.4375 81.4375 C 3396.8427 79.03232 3396.2996 75.907332 3392.9062 72.40625 C 3388.6757 68.041508 3388.2658 63.475158 3391.0312 52.4375 C 3394.8124 37.345618 3393.4995 24.9607 3387.8438 22.25 C 3384.1291 20.469619 3380.6734 22.016479 3377.4375 26.90625 C 3374.3667 31.546436 3373.9442 37.859309 3375.375 57 C 3376.161 67.515765 3376.0329 69.056307 3374.0312 75 C 3372.8274 78.575 3371.2028 82.5125 3370.4062 83.75 C 3368.4086 86.853203 3363.7685 86.67371 3358.4062 83.28125 C 3355.9489 81.726628 3354.6874 80.090563 3353.5312 77.875 z M 3384.4688 25 C 3387.3775 25 3387.7295 25.513315 3389.4688 32.21875 C 3390.9183 37.806738 3390.5143 42.425448 3387.5625 53.5 C 3386.6829 56.8 3385.9186 61.929906 3385.875 64.90625 C 3385.8022 69.871131 3386.0985 70.598053 3389.4062 73.71875 C 3391.3893 75.589544 3393 77.547139 3393 78.0625 C 3393 79.340578 3390.644 79.237678 3389.3125 77.90625 C 3386.7537 75.347461 3383.6248 77.449489 3379.6875 84.3125 C 3377.5422 88.051884 3374.7753 91.736561 3373.5625 92.53125 C 3370.522 94.523464 3362.9525 95.301209 3360.5 93.875 C 3356.8426 91.748096 3354 88.660439 3354 86.8125 C 3354 84.500269 3354.8696 84.551349 3358 87 C 3359.6365 88.280059 3362.0673 88.954195 3365.0625 88.96875 C 3370.9941 88.997575 3373.2025 86.726283 3376.5 77.03125 C 3379.3143 68.756973 3379.6398 62.996999 3378.0938 48.84375 C 3376.5036 34.286611 3378.9832 25 3384.4688 25 z "/>
</svg>
