<svg xmlns="http://www.w3.org/2000/svg"
     width="36.9" height="64.0"
     viewBox="2189.5000 12.9479 47.5000 82.2955">
  <path d="M 2194.0312 78.59375 L 2193.5 89.125 C 2194.3775 89.045389 2195.5889 89.246354 2197.9062 89.78125 C 2204.2407 91.243409 2211.3181 89.951667 2214.875 86.6875 C 2216.1875 85.483095 2218.1154 82.595969 2219.1562 80.28125 C 2221.5863 74.87788 2222.6294 74.326892 2225.375 76.90625 C 2226.6072 78.063873 2227.9154 79 2228.2812 79 C 2229.1937 79 2233 71.415104 2233 69.59375 C 2233 68.783192 2231.0875 66.849074 2228.75 65.28125 L 2224.5 62.4375 L 2223.9062 48.34375 C 2223.3442 34.777615 2223.1984 33.952228 2219.7188 26.625 C 2215.6992 18.160827 2213.3976 16.947862 2210.3125 21.65625 C 2207.6859 25.664941 2207.2745 40.732965 2209.5625 49.03125 C 2213.9198 64.834259 2211.2131 77.340285 2202.7812 80.3125 C 2201.3078 80.831873 2197.3186 79.890992 2194.0312 78.59375 z M 2213.5 23 C 2215.1559 23 2218.8202 31.672519 2220.1562 38.78125 C 2220.7481 41.929956 2220.9899 48.437264 2220.6875 53.25 L 2220.125 62 L 2224.9375 66.125 C 2228.3269 69.044545 2229.5932 70.812548 2229.25 72.125 C 2228.6642 74.365179 2227.054 74.510284 2224.4375 72.53125 C 2221.2554 70.124375 2220.3904 70.704044 2217.2188 77.34375 C 2214.8907 82.217436 2213.3776 84.067189 2210.6875 85.34375 C 2207.3913 86.907911 2200.0119 87.458196 2197.25 86.34375 C 2196.5625 86.066338 2196 85.212707 2196 84.4375 C 2196 83.441402 2197.1383 83.049015 2199.875 83.15625 C 2204.1054 83.322012 2209.166 80.437704 2211.1562 76.71875 C 2212.9059 73.449585 2214.9718 64.90783 2214.9688 61 C 2214.9672 59.075 2214.3102 55.606708 2213.5 53.28125 C 2210.6905 45.216783 2209.6779 35.221386 2211.0312 28.84375 C 2211.7344 25.530759 2212.7962 23 2213.5 23 z "/>
</svg>
