<svg xmlns="http://www.w3.org/2000/svg"
     width="30.0" height="64.0"
     viewBox="829.3350 18.0000 40.7586 87.0000">
  <path d="M838.25436 98.75C837.09676 97.506327 835.59796 93.755071 834.90325 90.362742C833.74155 84.690017 833.81986 83.743885 835.93785 77.862742C838.77671 69.97991 838.81372 66.978919 836.15813 60.0C833.82336 53.864189 833.33497 42.647461 835.06961 35.0C837.2869 25.22467 838.11539 23.0 839.53854 23.0C841.33591 23.0 841.34066 22.811343 839.4095 28.124273C838.53472 30.530923 837.57572 37.23794 837.27837 43.028755C836.76061 53.112255 836.86663 53.864276 839.78553 60.811456L842.83331 68.065401L840.41666 74.01283C836.91065 82.641161 837.28645 96.0 841.03518 96.0C841.56583 96.0 842.0 94.602455 842.0 92.894345C842.0 88.1439 844.825 78.209255 848.1881 71.132694C850.72172 65.801514 851.03399 64.370005 850.10707 62.335641C848.3551 58.490495 848.81208 46.664463 851.03287 38.377355C853.25211 30.095975 856.47652 23.0 858.02032 23.0C859.38257 23.0 859.27444 23.541725 857.03661 27.92824C855.95674 30.04495 854.38211 35.089523 853.53743 39.138402C852.03592 46.335669 851.44488 59.111545 852.56175 60.228421C852.87072 60.537387 855.07701 59.698343 857.46463 58.36388L861.80574 55.937583L864.00039 58.718792C865.73056 60.911369 866.09361 62.408084 865.71579 65.79058C864.89629 73.12716 859.54622 76.454648 855.73203 72.0C854.79018 70.9 853.58623 70.0 853.05658 70.0C850.58743 70.0 845.0 89.495288 845.0 98.110468C845.0 100.46822 844.57198 101.0 842.67431 101.0C841.39519 101.0 839.40621 99.9875 838.25436 98.75Z M842.58997 58.173978C840.57272 54.273043 840.55611 46.077845 842.5477 37.312053C844.45116 28.93413 846.98178 22.0 848.13586 22.0C849.38661 22.0 849.24102 23.106024 846.85396 31.738842C844.19328 41.36117 843.71277 55.572485 846.0 56.994859C847.31835 57.81471 847.29897 58.128754 845.83997 59.588154C844.29313 61.135409 844.07152 61.038977 842.58997 58.173978Z M862.02475 68.4349C863.22575 65.276021 863.24442 62.934406 862.08322 61.100405C861.34138 59.92876 860.66476 60.011688 857.92881 61.609571C853.66705 64.098568 853.44184 65.105689 856.42676 68.326472C859.52442 71.668902 860.7859 71.693335 862.02475 68.4349Z"/>
</svg>
