<svg xmlns="http://www.w3.org/2000/svg"
     width="26.0" height="64.0"
     viewBox="2514.6698 17.6335 36.3302 89.5006">
  <path d="M 2530.0938,56.03125 2530.375,56.375 2530.2188,61.375 C 2530.6822,61.388646 2531,61.601546 2531,62.21875 2531,62.486007 2530.585,62.919364 2530.1875,63.34375 L 2530.0312,68.1875 C 2530.091,68.171134 2530.4399,68 2530.4688,68 2530.7656,68 2531,71.295392 2531,75.3125 2531,82.346913 2530.8709,82.732801 2527.5,86 2523.3082,90.062863 2523.2166,91.29837 2526.8125,96.5 2530.6253,102.0154 2534.1721,103.13416 2537.5938,99.9375 2544.0253,93.928914 2544.1222,88.867072 2537.9375,83.96875 L 2534.0938,80.90625 2534.0625,60.03125 2534.0312,39.125 2540.5,34.375 C 2544.0666,31.756189 2547,29.031422 2547,28.3125 2547,26.426601 2545.5744,26.707799 2543.5,29 2541.1199,31.629995 2533.5846,36 2531.4375,36 2530.5021,36 2528.0058,34.425 2525.875,32.5 2523.7443,30.575 2521.5484,29 2521,29 2518.6698,29 2520.4806,31.801085 2525.5312,36 L 2530.9375,40.5 2530.9688,48.1875 C 2530.9856,52.895972 2530.855,54.725223 2530.0938,56.03125 z M 2533.8125,85.15625 C 2534.9212,85.128681 2535.9761,85.913613 2537.5312,87.46875 2540.641,90.578534 2540.6261,92.110959 2537.4062,95.9375 2534.3126,99.614003 2533.9545,99.650673 2531.3125,96.75 2527.095,92.119549 2526.8256,90.547816 2529.8438,87.65625 2531.5517,86.019974 2532.7038,85.183819 2533.8125,85.15625 z M 2542.0938,21.84375 C 2541.4334,22.053951 2540.3587,22.691962 2538.75,23.78125 2536.4125,25.364075 2533.997,26.951935 2533.375,27.3125 2532.753,27.673064 2530.5228,26.625936 2528.4375,24.96875 2525.9476,22.990024 2524.3033,22.290445 2523.6562,22.9375 2522.4296,24.164126 2524.3586,26.62421 2528.5,29.15625 2532.2394,31.442539 2533.5494,31.460952 2535.7812,29.25 2536.7528,28.2875 2538.7778,26.693929 2540.2812,25.71875 2541.7846,24.743571 2543,23.276244 2543,22.4375 2543,21.860283 2542.7541,21.633549 2542.0938,21.84375 z"/>
</svg>
