<svg xmlns="http://www.w3.org/2000/svg"
     width="60.3" height="64.0"
     viewBox="4127.9688 51.6044 50.6863 53.8050">
  <path d="M 4136.5 83.125 L 4136.2188 83.21875 L 4134.125 88.625 C 4135.1641 88.059964 4136.2564 88.336904 4138.9375 89.84375 C 4141.0505 91.031327 4144.4573 92 4146.5 92 C 4151.3382 92 4156.3325 87.188213 4158 80.9375 C 4162.0589 65.722972 4163.1848 62.859062 4165.6875 61.71875 C 4167.8209 60.746708 4168.4479 60.858846 4169.625 62.46875 C 4171.6198 65.196711 4171.3949 66.577742 4167.5 75.5 C 4163.6247 84.377454 4163.2829 87.068712 4165.5 92.375 C 4166.7434 95.350837 4166.7724 96 4165.6562 96 C 4164.9091 96 4163.4955 95.1 4162.5 94 C 4160.1677 91.422856 4159.367 91.47899 4155.4062 94.5 C 4150.852 97.97376 4144.1504 97.900247 4137.1875 94.3125 C 4134.8696 93.118149 4133.6495 92.369786 4132.9375 91.71875 L 4131.9688 94.1875 L 4132.0312 94.9375 L 4136.2188 97.40625 C 4142.3194 100.98146 4152.885 101.4094 4156.2812 98.21875 C 4159.164 95.510514 4159.4901 95.490123 4162.0625 98.0625 C 4163.3655 99.365491 4165.1118 100.00889 4166.8125 99.8125 C 4169.1304 99.544828 4169.5452 98.977804 4169.8125 95.75 C 4169.9974 93.51655 4169.4928 91.109521 4168.5625 89.78125 C 4166.329 86.592506 4166.58 84.52903 4170.1875 77.09375 C 4174.0684 69.095011 4174.6551 61.667601 4171.5625 59.40625 C 4166.3631 55.604379 4160.8958 60.268882 4157.9375 71 C 4155.3568 80.361371 4152.2593 86.779853 4149.6875 88.15625 C 4147.0402 89.573055 4140.675 87.472464 4137.3125 84.0625 C 4137.1713 83.919307 4136.6828 83.322424 4136.5 83.125 z "/>
</svg>
