<svg xmlns="http://www.w3.org/2000/svg"
     width="30.3" height="64.0"
     viewBox="1624.0000 15.0000 41.4127 87.5443">
  <path d="M 1651.2188 83.21875 C 1649.7027 82.056561 1649.4818 80.831007 1649.4375 76.40625 C 1649.4049 73.152507 1648.7776 65.665115 1648.0312 59.75 C 1646.7812 49.842356 1646.8311 48.390173 1648.5625 41.4375 L 1650.4375 33.90625 L 1654.1562 34.53125 C 1657.5616 35.106583 1658.005 34.895098 1659.4375 32.125 C 1661.4127 28.3053 1661.4063 26.029541 1659.4375 23.21875 C 1657.2882 20.150249 1654.4738 20.442657 1651.8438 24 C 1650.6238 25.65 1649.2368 27 1648.75 27 C 1648.2632 27 1646.225 25.2 1644.25 23 C 1642.275 20.8 1639.8472 19 1638.8438 19 C 1636.9041 19 1628 30.343819 1628 32.8125 C 1628 33.585559 1629.1082 35.539346 1630.4688 37.15625 C 1635.5321 43.173663 1636.0089 52.295653 1632.0625 67.75 C 1629.8543 76.397669 1630.0858 80.582122 1632.9062 82.6875 C 1634.1752 83.634692 1634.2511 84.110021 1633.25 85.125 C 1631.8908 86.503025 1631.568 91.860398 1632.75 93.5625 C 1633.1541 94.144381 1634.6088 95.381881 1635.9688 96.3125 C 1639.2301 98.544327 1644.6163 98.530558 1645.875 96.28125 C 1646.6063 94.974549 1647.3716 94.916589 1649.4062 95.5625 L 1649.3125 94.53125 L 1651.2188 83.21875 z M 1638.625 23 C 1640.6161 23 1647.0162 29.824362 1647 31.9375 C 1646.9935 32.792521 1646.3119 35.975 1645.5 39 C 1643.6507 45.889685 1643.6472 52.907688 1645.4688 64.875 C 1646.7428 73.24505 1646.7213 74.666664 1645.3125 78.1875 C 1644.0714 81.289395 1643.9834 82.636892 1644.875 84.59375 C 1646.4357 88.019025 1646.2943 90.580636 1644.4375 92.4375 C 1640.7564 96.118551 1637.037 92.79461 1637.75 86.46875 C 1638.1355 83.0491 1637.7924 81.557167 1636.125 79.4375 C 1633.5326 76.141684 1633.5249 75.518534 1636 65.5 C 1637.087 61.1 1637.9935 54.180223 1638 50.125 C 1638.0102 43.731776 1637.5883 41.998057 1634.875 37.0625 L 1631.75 31.375 L 1634.375 27.1875 C 1635.828 24.885848 1637.7436 23 1638.625 23 z M 1655.7188 24.25 C 1657.4619 23.67347 1658.4936 28.700308 1657 30.5 C 1655.5626 32.23196 1655.032 32.299897 1653 31 C 1651.6667 30.147035 1651.6667 29.739239 1653 27.34375 C 1653.825 25.86154 1655.0516 24.470669 1655.7188 24.25 z "/>
</svg>
