<svg xmlns="http://www.w3.org/2000/svg"
     width="55.3" height="64.0"
     viewBox="5360.7225 16.6001 75.3033 87.1102">
  <path d="M 5370.6875 21.125 C 5369.4531 21.404606 5367.7876 23.138642 5367.0625 25.21875 C 5364.7225 31.931069 5366.1701 40.683278 5370.625 46.6875 C 5372.5473 49.278322 5373.0197 51.139472 5373.0625 56.6875 C 5373.0914 60.436697 5373.7223 66.875 5374.4688 71 C 5375.7242 77.938876 5375.6695 78.649633 5374 80.5 C 5368.3896 86.717913 5366.548 93.649182 5369.4375 97.5625 C 5370.8189 99.433291 5370.986 99.364115 5374.3125 95.75 C 5378.6258 91.063716 5382.0988 90.795698 5385.5312 94.875 C 5387.7532 97.515668 5389.918 98.891764 5392.4375 99.34375 C 5394.4804 99.710247 5396.7535 99.498893 5399.625 98.59375 C 5402.6238 97.648442 5406.6444 95.49657 5408.5625 93.8125 L 5412.0625 90.75 L 5413.5938 91.9375 L 5413.625 91.71875 L 5415.125 89.34375 L 5413.0938 87.78125 L 5407 91.84375 C 5403.2589 94.34191 5399.2028 96.143148 5396.4062 96.5625 C 5394.8664 96.793407 5394.0617 96.741741 5393.1875 96.65625 C 5391.7361 96.514317 5390.5446 95.993806 5388.8438 94.375 C 5384.2985 90.049305 5378.9561 80.3069 5377.7188 74.0625 C 5377.1137 71.00891 5376.5505 64.212452 5376.4688 58.96875 C 5376.3239 49.677857 5376.2363 49.308118 5372.6875 44.46875 C 5369.4282 40.024272 5369.0432 38.869893 5369.0938 33.5 C 5369.149 27.606728 5369.1821 27.553364 5370.5312 30.5 C 5371.2867 32.15 5371.9438 34.191323 5371.9688 35.03125 C 5372.0366 37.327195 5377.6186 43 5379.8125 43 C 5382.3208 43 5386.7226 39.482055 5389.0938 35.59375 L 5391 32.5 L 5391 36.3125 C 5391.0045 40.95265 5388.9476 45.139092 5385.4062 47.71875 C 5382.9279 49.524175 5382.7108 50.315422 5382.25 59.125 C 5381.8071 67.591493 5382.0257 69.345361 5384.4375 76.03125 C 5387.3367 84.068486 5388.9722 86.413968 5393.1875 88.59375 C 5393.8498 88.936242 5394.5255 89.160319 5395.1875 89.375 C 5401.5539 91.439468 5407.7199 87.738547 5410.1562 79.96875 C 5413.5472 69.15467 5412.1024 65.337618 5405.5938 67.875 C 5400.9104 69.700806 5400.576 69.671248 5400.2188 67.34375 C 5399.9569 65.638121 5400.6237 64.938942 5403.4688 64 C 5405.4446 63.34793 5407.8113 61.697321 5408.7188 60.3125 C 5410.162 58.109754 5410.2243 56.921487 5409.1875 50.875 C 5407.5295 41.206531 5407.6685 39.348711 5410.2188 37.5625 C 5413.5406 35.235738 5415.6211 35.652574 5419.75 39.4375 L 5423.5 42.84375 L 5421.8438 49.1875 C 5420.925 52.666706 5419.8792 56.208769 5419.5312 57.09375 C 5419.1098 58.166273 5420.4027 60.335106 5423.4375 63.59375 C 5428.2955 68.810127 5429.2972 72 5426.0625 72 C 5424.995 72 5423.8399 71.55 5423.5 71 C 5422.4161 69.246139 5419.1259 69.935605 5417.9375 72.15625 C 5416.5076 74.828075 5416.9707 80.262442 5418.5312 83.875 L 5420.5 80.6875 C 5420.2096 79.683005 5420 78.619844 5420 77.40625 C 5420 73.503755 5420.1437 73.486813 5426.7188 75.53125 C 5428.554 76.101876 5429.142 75.636525 5430.3125 72.84375 C 5432.0258 68.755841 5431.2352 66.733811 5426.1875 62.3125 L 5422.5312 59.09375 L 5424.2812 52.3125 C 5428.3864 36.294993 5424.9497 24.410417 5415.375 21.5625 C 5412.1392 20.600054 5407.6443 24.943702 5405.7188 30.90625 C 5404.2531 35.444338 5404.2185 36.878872 5405.5312 45.625 C 5407.5999 59.405776 5407.7408 58.855846 5402 61.28125 C 5397.54 63.165555 5397 63.722245 5397 66.46875 C 5397 68.162214 5397.6975 70.577447 5398.5625 71.8125 L 5400.1562 74.03125 L 5404.0625 71.84375 C 5406.2162 70.633257 5408.2464 69.933838 5408.5938 70.28125 C 5408.9411 70.628662 5408.9507 72.869177 5408.5938 75.25 C 5407.167 84.764445 5401.416 88.564744 5396 86.40625 C 5392.9742 85.200336 5390.0565 82.183807 5388.0625 77.125 C 5384.9148 69.139283 5384.2345 65.039898 5385.0312 58.28125 C 5385.6262 53.236315 5386.4182 51.344769 5389.2812 48 C 5393.4945 43.077701 5394.6407 37.371677 5393 29.46875 C 5391.5243 22.360329 5389.6782 22.436537 5388.0625 29.65625 C 5386.7299 35.611153 5383.3854 40.023081 5380.2812 39.96875 C 5377.5203 39.920429 5375.0181 35.630896 5373.5 28.375 C 5372.7417 24.750737 5371.9517 21.608089 5371.7188 21.375 C 5371.4496 21.105818 5371.099 21.031798 5370.6875 21.125 z M 5415.4688 25.125 C 5418.6094 25.547521 5421.6467 28.755072 5422.625 33.75 C 5423.3568 37.48632 5422.8927 37.585583 5417.75 34.65625 C 5414.1436 32.602071 5413.8682 32.584758 5411 34.21875 L 5408 35.90625 L 5408 33.09375 C 5408 31.543503 5408.9614 29.073026 5410.125 27.59375 C 5411.6589 25.643792 5413.5842 24.871488 5415.4688 25.125 z M 5375.4375 82.65625 C 5376.3394 82.310184 5377.5597 82.952141 5378.4688 84.25 C 5380.474 87.112767 5380.4044 88.910262 5378.25 89.6875 C 5377.2875 90.034737 5375.3037 91.145749 5373.8438 92.15625 C 5372.3839 93.166751 5370.9214 94 5370.5938 94 C 5368.4044 94 5372.8199 83.660745 5375.4375 82.65625 z "/>
</svg>
