<svg xmlns="http://www.w3.org/2000/svg"
     width="27.8" height="64.0"
     viewBox="3674.3604 18.0000 38.1084 87.8109">
  <path d="M 3706.8125,84.0625 C 3704.5396,81.023566 3702.6936,75.220054 3703.3125,71.6875 3703.6201,69.932051 3704.6063,64.45 3705.5,59.5 3707.5208,48.306944 3706.808,38.671857 3703.375,31.03125 3700.1078,23.759642 3698.3467,22 3694.4062,22 3691.8415,22 3690.4868,22.810854 3688.0625,25.75 3680.2522,35.218988 3678.3604,51.870942 3683.5,66.15625 3684.9524,70.193069 3686.3788,74.209358 3686.6562,75.09375 3686.9337,75.978142 3685.7379,78.721857 3684,81.1875 3678.5212,88.960355 3678.8225,101.81094 3684.4375,99.65625 3685.2472,99.345561 3687.0206,96.89164 3688.375,94.21875 3691.7736,87.511962 3693.4793,86.212869 3695.9375,88.4375 3696.9852,89.385602 3698.9963,92.615945 3700.4062,95.59375 3703.184,101.46052 3703.6415,101.74054 3706.5625,99.53125 3706.9543,99.234938 3707.734,99.015938 3708.4688,98.78125 L 3708.4062,98.4375 3706.8125,84.0625 z M 3693.0312,25.28125 C 3694.585,24.983039 3696.1753,25.68449 3697.6562,27.40625 3700.5968,30.824893 3700.6178,33.059712 3697.6875,35.8125 3694.617,38.697086 3692.9288,38.57198 3689.6562,35.15625 3686.9383,32.31932 3686.9345,32.293606 3688.7188,29.125 3689.9853,26.875892 3691.4775,25.579461 3693.0312,25.28125 z M 3685.875,36 C 3686.3042,36 3687.7083,37.125 3689,38.5 3691.8752,41.560561 3694.8689,41.682002 3698.4375,38.875 3701.8294,36.206871 3703.2443,37.398536 3702.8125,42.53125 3702.5007,46.238757 3702.349,46.374291 3694.5312,49.65625 3685.5985,53.406303 3684.4309,53.612358 3683.6562,51.59375 3682.7172,49.146381 3684.5905,36 3685.875,36 z M 3702.0312,50.28125 C 3702.703,50.278522 3703.1356,50.401232 3703.3125,50.6875 3703.5893,51.135334 3703.5709,52.765986 3703.2812,54.28125 3702.9113,56.216935 3701.9738,57.212783 3700.125,57.65625 3698.6777,58.003398 3695.8218,59.134295 3693.7812,60.15625 3691.7406,61.178205 3688.9282,62 3687.5312,62 3685.4166,62 3685,61.517024 3685,59.1875 3685,56.740112 3685.7235,56.071501 3690.8125,53.8125 3695.9272,51.542053 3700.0159,50.289434 3702.0312,50.28125 z M 3700.2812,61 C 3702.395,61 3702.4386,62.199007 3700.4375,68.9375 3698.9003,74.113839 3698.9144,74.40037 3701.3125,79.875 3702.6663,82.965353 3704.0358,87.525 3704.375,90 L 3705,94.5 3702.75,91.9375 C 3701.5122,90.534426 3699.3362,87.876773 3697.9062,86 3695.3956,82.704913 3695.219,82.620368 3692.875,84.15625 3691.5399,85.031037 3689.1384,87.83244 3687.5312,90.375 3684.4569,95.238734 3682.9907,96.164633 3683,93.25 3683.0129,89.207151 3685.3578,83.63085 3688.4688,80.1875 L 3691.7812,76.5 3689.4375,72 C 3688.145,69.527864 3687.0561,67.0528 3687.0312,66.5 3686.9814,65.391863 3697.5605,61 3700.2812,61 z"/>
</svg>
