<svg xmlns="http://www.w3.org/2000/svg"
     width="49.7" height="64.0"
     viewBox="3070.9009 12.7685 74.4515 95.9694">
  <path d="M3101.594 101.73355C3096.6992 98.934543 3094.118 95.5021 3093.3503 90.77094C3092.8574 87.734084 3093.3001 86.262322 3095.8764 82.372945C3100.1785 75.877884 3099.8416 73.43683 3093.9089 68.11869C3089.9103 64.534217 3088.7559 63.957682 3087.5618 64.948682C3085.2725 66.8487 3083.717 72.828623 3084.4004 77.102577C3084.9099 80.288935 3084.7272 81.0 3083.399 81.0C3082.0172 81.0 3081.8332 79.958303 3082.168 74.031967C3082.5803 66.736385 3084.9417 61.848041 3088.3804 61.171973C3090.1215 60.829667 3100.8686 69.914072 3102.3396 72.971487C3103.137 74.628836 3102.0095 77.641385 3097.3595 86.278402C3095.2306 90.232657 3097.0122 95.043453 3101.8461 98.393351C3108.8161 103.22359 3113.7995 100.95877 3114.7496 92.528984C3115.1493 88.983254 3114.6707 86.657518 3112.5848 82.009637C3110.3277 76.98009 3110.0947 75.685586 3111.102 73.771233C3112.9213 70.313791 3117.0623 65.57545 3118.8787 64.872834C3121.5975 63.821113 3125.4369 66.906258 3128.3621 72.493306C3131.8259 79.10912 3131.7384 84.324672 3128.1551 84.831993C3125.0669 85.269213 3120.0 83.123613 3120.0 81.37868C3120.0 79.790805 3122.5801 79.511648 3123.5 81.0C3124.5645 82.722355 3128.002 82.146452 3127.9766 80.25C3127.9343 77.079608 3122.6071 68.514498 3120.5 68.229155C3117.5635 67.831481 3113.5665 74.076632 3114.4205 77.728109C3115.618 82.847907 3117.2322 86.0 3118.6565 86.0C3119.4341 86.0 3121.067 86.631756 3122.2852 87.403903C3123.5033 88.176049 3126.3234 89.100542 3128.5519 89.45833C3132.112 90.029906 3132.7483 89.829185 3133.7949 87.804428C3135.41 84.67977 3138.0 77.055152 3138.0 75.425219C3138.0 73.992934 3124.0912 58.0 3122.8456 58.0C3122.4293 58.0 3120.431 59.125 3118.4049 60.5C3116.3787 61.875 3113.6911 63.0 3112.4324 63.0C3110.4196 63.0 3110.0669 62.367645 3109.5044 57.75C3109.1527 54.8625 3109.0078 49.35 3109.1824 45.5C3109.4769 39.008574 3109.6718 38.475688 3111.8651 38.165369C3113.4671 37.938702 3115.2944 38.862222 3117.5287 41.027788C3120.5851 43.99019 3123.0 44.341175 3123.0 41.822998C3123.0 41.240566 3121.65 39.226465 3120.0 37.347219C3116.5084 33.370527 3116.3102 32.353719 3118.8681 31.541858C3121.9014 30.579131 3124.5437 27.143704 3123.2477 25.847691C3122.441 25.040956 3121.4121 25.317291 3119.4365 26.87132C3115.5622 29.918831 3113.4761 29.532719 3109.3921 25.012225L3105.7894 21.02445L3101.7147 24.512225C3099.4736 26.430501 3097.3552 28.0 3097.0071 28.0C3096.659 28.0 3095.0808 26.65 3093.5 25.0C3091.9192 23.35 3090.26 22.0 3089.8129 22.0C3088.2275 22.0 3089.0298 25.716968 3091.0 27.5C3092.1 28.495486 3093.0 29.854544 3093.0 30.520129C3093.0 31.185713 3092.1 32.874447 3091.0 34.272871C3087.0231 39.328692 3089.1326 42.317252 3094.3863 39.070288C3098.6435 36.439162 3100.6375 36.454102 3102.0684 39.127847C3103.9901 42.718541 3104.8335 52.145411 3103.7793 58.25C3102.6692 64.678091 3101.2636 65.460627 3097.7023 61.633157C3094.0588 57.717377 3087.8911 54.0 3085.0377 54.0C3082.8482 54.0 3081.9314 54.84723 3080.0548 58.604666C3078.073 62.572805 3077.8238 64.266188 3078.2515 70.854666C3078.5245 75.0596 3079.0953 79.333141 3079.5199 80.351424C3080.1323 81.820313 3079.9017 82.127714 3078.4036 81.839213C3076.2644 81.427233 3075.2947 78.074643 3075.1239 70.5C3074.9009 60.609571 3079.8282 50.0 3084.6445 50.0C3087.3546 50.0 3092.8824 52.879131 3096.676 56.266535C3099.8117 59.066523 3101.0019 57.665044 3100.9863 51.190983C3100.9616 40.876196 3099.398 38.968537 3094.2729 43.0C3090.3849 46.058264 3088.3123 45.532418 3085.9421 40.886416L3083.8435 36.772831L3086.533 33.965565L3089.2225 31.158299L3086.6113 27.734758C3085.1751 25.851811 3084.0 23.831196 3084.0 23.244503C3084.0 22.657809 3085.4464 20.960702 3087.2143 19.473153L3090.4286 16.768519L3093.4643 20.384304C3095.1339 22.372985 3096.9742 24.000069 3097.5538 24.000044C3098.1334 24.00002 3100.1342 22.425 3102.0 20.5C3103.8658 18.575 3105.8686 17.0 3106.4508 17.0C3107.033 17.0 3109.0822 19.007965 3111.0046 21.462144C3112.9271 23.916323 3114.885 25.941323 3115.3556 25.962144C3115.8262 25.982965 3117.5483 24.875 3119.1824 23.5C3123.2059 20.114434 3124.5164 20.343719 3126.327 24.75C3127.8536 28.465106 3127.8406 28.523262 3124.925 31.0C3121.4689 33.93583 3121.3039 35.060089 3123.9745 37.476896C3127.1628 40.362269 3127.4569 42.8847 3124.9201 45.585076C3121.9852 48.709058 3120.9774 48.629586 3117.5 45.0C3112.8712 40.16862 3111.9979 40.924999 3112.0153 49.75C3112.0362 60.314169 3112.8064 61.293955 3117.8829 57.214372C3120.0828 55.446467 3122.3096 54.0 3122.8314 54.0C3124.4587 54.0 3140.0023 71.160786 3140.626 73.646184C3141.3524 76.540178 3137.3715 88.224068 3134.6719 91.121818C3133.0611 92.850804 3132.0149 93.098304 3128.6125 92.555273C3126.3506 92.194277 3123.5033 91.24666 3122.2852 90.449458C3118.877 88.219013 3118.3016 88.631665 3117.7284 93.717559C3117.3185 97.354316 3116.4832 99.072582 3114.0825 101.21756C3110.3024 104.59515 3106.8479 104.73788 3101.594 101.73355Z"/>
</svg>
