<svg xmlns="http://www.w3.org/2000/svg"
     width="39.5" height="64.0"
     viewBox="6780.3750 15.0000 53.9909 87.3860">
  <path d="M 6788.0625 85.1875 L 6787.1875 87.8125 C 6789.7504 88.563203 6792.5295 89.15625 6794.375 89.15625 C 6801.6041 89.15625 6805.9722 86.012552 6808.5938 78.9375 C 6809.8046 75.669369 6810.3311 70.383052 6810.5312 59 C 6810.7795 44.88599 6811.0382 42.894782 6813.4688 36.84375 C 6816.5281 29.227403 6822.313 21.805023 6824.5312 22.65625 C 6826.5667 23.437298 6826.3831 27.75002 6823.9062 36.25 C 6822.7464 40.230538 6821.1565 45.75 6820.375 48.5 C 6818.0566 56.658371 6818.2861 65.205884 6821 71 C 6823.5742 76.495996 6823.3089 77.756371 6819.9688 75.96875 C 6817.13 74.449519 6815.9451 75.618751 6811.0625 84.65625 C 6806.8907 92.378062 6804.5549 93.715526 6793.5 94.625 C 6789.4979 94.954252 6787.7086 94.80296 6785.25 93.53125 L 6784.375 96.15625 C 6785.1134 96.44151 6785.7414 96.885627 6786.375 97.03125 C 6792.2697 98.385976 6806.1485 96.06576 6809.3438 93.1875 C 6810.3664 92.266306 6812.5637 88.8 6814.2188 85.5 C 6815.8737 82.2 6817.3353 79.371638 6817.4688 79.21875 C 6817.6024 79.065862 6818.9502 79.403284 6820.4375 79.96875 C 6823.4761 81.124035 6826.3647 80.070309 6827.375 77.4375 C 6827.7215 76.534573 6826.6178 72.901877 6824.875 69.25 C 6822.0159 63.259484 6821.7991 62.103671 6822.375 56.09375 C 6822.7222 52.470491 6824.3576 45.225 6826 40 C 6830.3659 26.110302 6829.8988 19 6824.6562 19 C 6821.2036 19 6814.3867 28.17683 6810.875 37.5625 C 6809.2046 42.027135 6808.7603 45.95694 6808.5 57.53125 C 6808.0889 75.804459 6806.4952 81.922105 6801.4375 84.90625 C 6797.1552 87.432876 6792.9911 87.563891 6788.3125 85.34375 C 6788.1807 85.281225 6788.1844 85.247408 6788.0625 85.1875 z "/>
</svg>
