<svg xmlns="http://www.w3.org/2000/svg"
     width="64.0" height="64.0"
     viewBox="4080.4518 18.4972 87.0427 86.9838">
  <path d="M 4114.75 22.6875 C 4113.4719 22.788804 4111.8446 23.784214 4109.1875 25.75 C 4106.2376 27.932433 4105.6904 28.027881 4104.1875 26.71875 C 4100.2482 23.28737 4098.3392 22.9341 4095.5938 25.09375 C 4093.8916 26.432714 4093 28.105928 4093 29.9375 C 4093 34.074426 4095.0731 35.316308 4100.7812 34.53125 L 4105.6562 33.875 L 4107.3125 39.03125 C 4108.9601 44.132753 4109.6121 52 4108.375 52 C 4108.0275 52 4106.2391 51.070296 4104.4062 49.9375 C 4102.5733 48.804704 4099.6955 47.486256 4098 47 C 4095.3658 46.244539 4094.4785 46.510719 4091.9688 48.8125 C 4086.1923 54.110125 4084.4518 70.45189 4089.1562 75.15625 C 4091.8063 77.806301 4092.7059 76.872174 4093.4688 70.75 C 4093.8284 67.863114 4094.604 64.2625 4095.1875 62.75 C 4097.1473 57.670626 4103.2999 59.745913 4106.875 66.6875 C 4108.5401 69.920437 4108.3972 70.365438 4103.6875 75.65625 C 4098.6755 81.28666 4097.5186 83.733432 4099.0625 85.59375 C 4099.6708 86.326664 4101.6649 89.758876 4103.4688 93.21875 C 4107.2514 100.47429 4109.8801 101.39971 4113.375 96.71875 C 4115.4205 93.978972 4115.4157 93.860297 4113.6562 88.90625 C 4112.0108 84.273264 4112.0062 83.669581 4113.4688 81.4375 C 4115.5202 78.306421 4118.0282 78.355677 4121.0625 81.59375 C 4123.2177 83.893758 4123.4645 84.963961 4123.25 91.25 C 4123.1105 95.339209 4123.4809 98.880179 4124.125 99.65625 C 4125.6393 101.48096 4125.7977 101.43247 4129.0625 97.9375 L 4131.9375 94.875 L 4132.0312 94.9375 L 4131.9688 94.1875 L 4132.9375 91.71875 C 4131.917 90.785662 4132.1568 90.109495 4133.5312 88.96875 C 4133.7318 88.802344 4133.9317 88.730123 4134.125 88.625 L 4136.2188 83.21875 L 4136.5 83.125 C 4134.8823 81.377631 4132.0845 78.072356 4129.4375 74.71875 C 4124.6565 68.661474 4124.2079 67.681088 4125.1875 65.53125 C 4126.7931 62.007312 4128.6368 61.734966 4131.75 64.625 C 4133.2694 66.03547 4135.7375 67.841242 4137.25 68.625 C 4139.6504 69.868835 4140.3641 69.862034 4142.9375 68.53125 C 4147.6546 66.091929 4152.995 57.902745 4156 48.5 C 4156.7031 46.3 4158.5849 43.025388 4160.1562 41.21875 C 4163.2798 37.627481 4163.4945 36.337098 4161.9688 30.84375 C 4160.3853 25.142768 4158.0193 22.844194 4153.5938 22.71875 C 4145.7765 22.497159 4141.2583 32.521274 4145.75 40.125 C 4147.4552 43.011733 4147.4313 43.183416 4144.5 48.71875 C 4140.2848 56.678406 4138.9908 57.21015 4134.9375 52.59375 C 4132.0561 49.312016 4131.1796 48.884534 4128.0625 49.25 C 4126.0994 49.480165 4123.825 49.863123 4123 50.09375 C 4121.7673 50.438343 4121.5306 49.412093 4121.7188 44.375 C 4121.8447 41.003808 4122.4123 37.057191 4122.9688 35.59375 C 4123.8217 33.350131 4124.2985 33.091607 4125.9375 33.96875 C 4132.2368 37.340011 4138.2209 32.014002 4134.9688 25.9375 C 4133.5214 23.232935 4126.7296 23.270391 4124 26 C 4121.3618 28.638195 4120.7807 28.538706 4118.1875 25.03125 C 4116.9617 23.373233 4116.0281 22.586196 4114.75 22.6875 z M 4152.6875 25.53125 C 4153.4232 25.459442 4154.1442 25.481471 4154.8125 25.65625 C 4156.8012 26.1763 4158.318 28.916646 4159.5312 34.125 C 4160.0016 36.143881 4159.4748 37.551228 4157.1875 40.15625 C 4155.5507 42.020524 4153.6615 45.54329 4153 48 C 4150.4535 57.456713 4144.2959 66 4140.0312 66 C 4139.3956 66 4136.8023 64.425 4134.2812 62.5 C 4131.7602 60.575 4128.9039 59 4127.9062 59 C 4125.6596 59 4120.5121 67.374177 4121.625 69.21875 C 4122.0497 69.922697 4124.5446 73.121446 4127.1875 76.3125 C 4129.8304 79.503554 4132 82.837874 4132 83.71875 C 4132 86.129441 4126.7371 96.679912 4126.25 95.25 C 4126.0174 94.567293 4126.3751 92.394388 4127.0312 90.40625 C 4128.1645 86.972471 4128.0441 86.501403 4124.375 81.21875 C 4118.6854 73.027126 4117.9108 72.816702 4113.0625 77.8125 C 4108.6019 82.408827 4108.269 83.97301 4110.5 89.3125 C 4111.3195 91.273925 4111.7034 93.581757 4111.375 94.4375 C 4110.3553 97.094606 4108.3719 96.16466 4106.7188 92.25 C 4105.8477 90.1875 4104.3757 87.333573 4103.4375 85.90625 C 4101.75 83.338741 4101.7867 83.258175 4106.375 77.625 C 4109.8567 73.350371 4111 71.072073 4111 68.53125 C 4111 62.048404 4101.3745 54.391222 4096.5 57 C 4093.4154 58.650837 4092 62.117854 4092 68.09375 C 4092 70.85033 4091.6107 72.862691 4091.125 72.5625 C 4089.6869 71.673735 4088.667 60.926867 4089.9062 59.6875 C 4090.5037 59.090102 4091 57.385319 4091 55.90625 C 4091 54.427181 4091.8903 52.173431 4092.9688 50.875 L 4094.9375 48.5 L 4101.9375 52.25 C 4105.7902 54.3125 4109.4176 56 4110 56 C 4113.1227 56 4112.7459 43.22954 4109.4375 36.59375 C 4107.3185 32.343416 4107.6682 30.762818 4111.2188 28.28125 C 4114.2353 26.172928 4114.487 26.12622 4116.2812 27.75 C 4119.7706 30.907724 4120.0983 32.593656 4118.875 41.78125 C 4117.1789 54.521034 4118.899 59.084079 4123.5 54 C 4126.2681 50.941268 4129.2547 51.546818 4133.375 56 C 4135.4105 58.2 4137.632 60 4138.3125 60 C 4140.9258 60 4143.7958 56.878734 4146.8438 50.6875 C 4150.356 43.553213 4150.6334 41.424326 4148.4688 38.5625 C 4146.9499 36.554393 4146.5122 31.39987 4147.625 28.5 C 4148.2221 26.943991 4150.4803 25.746674 4152.6875 25.53125 z M 4129.2812 27.0625 C 4130.9473 27.286803 4132.5 28.161864 4132.5 29.5 C 4132.5 30.897587 4131.747 31.568978 4130 31.75 C 4126.6891 32.093079 4124.5447 30.613787 4125.3438 28.53125 C 4125.832 27.258848 4127.6152 26.838197 4129.2812 27.0625 z M 4098 27.25 C 4100.308 26.851547 4102.372 28.622503 4101.6875 30.40625 C 4101.3421 31.30634 4099.9312 32 4098.4688 32 C 4096.3465 32 4095.9268 31.577522 4096.1875 29.75 C 4096.3633 28.518118 4097.175 27.392429 4098 27.25 z "/>
</svg>
