<svg xmlns="http://www.w3.org/2000/svg"
     width="35.7" height="64.0"
     viewBox="77.3125 17.0921 50.4001 90.4700">
  <path d="M 81.8125 47.125 C 83.51038 44.411608 87.021704 41.294867 90.71875 39.5 C 92.482886 38.643535 94.200427 37.504032 94.53125 36.96875 C 96.037745 34.53119 99.151076 36.107887 101.03125 40.25 C 103.51826 45.729007 103.48408 46.266123 100.5 49.8125 C 97.396716 53.500544 97.401731 54.130421 100.5 57.8125 L 103 60.78125 L 99.53125 66.5 C 94.852058 74.270569 93.369051 81.700444 94.9375 89.375 C 97.452231 101.67981 101.49646 103.5621 102.21875 92.75 C 102.83586 83.512395 106.6216 73.5 109.5 73.5 C 112.66254 73.5 115.32017 80.076073 115.21875 87.65625 C 115.08742 97.472585 119.51413 95.045501 122 83.9375 C 123.71265 76.284536 122.03093 68.484292 117.34375 62.34375 L 113.84375 57.75 L 115.90625 52.75 C 118.62296 46.212862 118.59275 45.800365 114.625 39.15625 C 112.76901 36.04835 110.18151 31.25 108.875 28.5 C 105.46259 21.317429 101.52209 21.092108 92 27.5 C 89.131421 29.430412 86.625981 31 86.40625 31 C 86.373815 31 86.373994 30.507741 86.34375 30.4375 L 85.5625 32.3125 L 82.71875 37.625 L 82.40625 39.53125 C 84.321133 34.947834 97.834503 25.560171 102.25 26.1875 C 103.73314 26.398216 105.14148 27.850869 106.375 30.5 C 107.3994 32.7 109.7619 37.04835 111.625 40.15625 C 113.48811 43.26415 115 46.549589 115 47.46875 C 115 48.387912 113.85513 51.112258 112.4375 53.53125 C 109.77113 58.081067 109.88206 59.426623 113.28125 61.875 C 116.58314 64.253292 119.97304 72.928761 119.96875 79 C 119.96439 85.172169 119.17132 89 117.90625 89 C 117.44047 89 117.10812 87.053846 117.15625 84.65625 C 117.20437 82.258653 116.71741 78.671905 116.0625 76.6875 C 114.77693 72.7922 109.46544 67.603426 107.8125 68.625 C 105.69273 69.935091 101.16104 81.366988 100.5 87.0625 C 99.63992 94.473023 98.34416 95.483543 97.4375 89.4375 C 96.098486 80.508317 98.522116 71.299074 104.125 64.125 C 106.02971 61.686162 106.64956 58 105.15625 58 C 104.69919 58 103.74481 56.895807 103.03125 55.5625 C 101.90322 53.454763 102.02444 52.713027 103.875 49.71875 C 105.04563 47.824639 106 45.548585 106 44.65625 C 106 41.610058 101.62929 33.024044 99.78125 32.4375 C 97.373337 31.673258 89.370627 35.477012 85.25 39.34375 C 83.050793 41.407455 82.30806 41.873676 82.09375 41.1875 L 81.3125 45.75 L 81.8125 47.125 z "/>
</svg>
