<svg xmlns="http://www.w3.org/2000/svg"
     width="58.9" height="64.0"
     viewBox="5155.9765 15.9964 82.5547 89.6980">
  <path d="M 5234.5312,34.9375 5232.2188,37.15625 5230.625,34.875 C 5229.6629,33.501326 5229,30.526781 5229,27.5625 5229,23.580505 5228.75,22.84375 5227.75,23.84375 5227.0625,24.53125 5226.5,27.29056 5226.5,29.96875 5226.5,33.707413 5227.0345,35.417901 5228.8438,37.34375 5230.664,39.281375 5231.9786,39.732231 5234.0625,38.6875 L 5234.5312,34.9375 z M 5233.4688,43.375 C 5231.5227,44.285675 5229.5944,45.712584 5228.5938,47.28125 5227.8116,48.507305 5226.1923,52.875 5225,57 5222.6408,65.161703 5218.8002,72 5216.5625,72 5215.7852,72 5212.1759,70.43095 5208.5312,68.53125 5200.3519,64.267933 5198.2996,64.858853 5195.0312,72.34375 5191.2262,81.057869 5191.3427,82.751753 5195.9375,89.28125 5198.1801,92.468173 5200,95.505673 5200,96.03125 5200,98.222858 5197.3056,96.663529 5194.75,92.96875 5193.2427,90.789623 5191.4021,89 5190.6562,89 5188.8507,89 5182.3169,95.426338 5181.5,98 5181.144,99.121748 5180.4479,99.784196 5179.9375,99.46875 5177.9029,98.211313 5179.2051,94.061201 5183,89.75 5187.5656,84.563167 5188.0155,81.457282 5185.375,73.4375 5183.5765,67.974723 5177.899,62.093017 5174.3438,62.03125 5171.7045,61.985395 5167.6535,66.604288 5165.8438,71.71875 5165.0633,73.924491 5164.5,79.728254 5164.5,85.6875 5164.5,97.529816 5163.1793,98.027149 5162.4688,86.4375 5161.7821,75.23718 5163.6055,64.93971 5167.25,59.4375 5168.8722,56.988448 5170.7138,55 5171.375,55 5172.0361,55 5175.0318,56.557828 5178.0312,58.46875 5184.4796,62.576844 5185.5297,62.726354 5187.1875,59.75 5188.8062,56.843807 5188.7356,41.319529 5187.0938,39.6875 5186.4365,39.034131 5183.7908,38.5 5181.2188,38.5 5176.8862,38.5 5176.4063,38.235867 5174.625,34.9375 5172.2435,30.527959 5173.0239,26.393549 5176.5625,24.78125 5178.8434,23.742005 5179.4686,24.044596 5183.5625,28.0625 5187.9067,32.326014 5188.1371,32.43745 5190.6562,31 5194.3125,28.9137 5198.7986,23 5196.7188,23 5195.8655,23 5193.8498,24.091398 5192.25,25.4375 L 5189.3438,27.90625 5184.5625,23.9375 C 5181.9352,21.766398 5179.5089,19.996376 5179.1562,20 5177.6424,20.01556 5172.5204,24.066947 5171.3438,26.1875 5169.2837,29.899689 5169.7841,33.404422 5173,37.84375 5175.7333,41.616954 5176.4083,42 5180.375,42 5184.6397,42 5184.7379,42.084396 5185.3438,45.75 5186.3864,52.058029 5186.1114,57.035388 5184.6562,57.59375 5183.9123,57.879201 5180.9927,56.681334 5178.1875,54.9375 5171.7995,50.966519 5169.4358,51.441697 5165.6562,57.46875 5161.2237,64.537172 5159.9765,70.89515 5160.4062,84 5160.8082,96.258057 5161.2631,98.519156 5163.6562,99.4375 5166.5073,100.53153 5167,98.858589 5167,87.96875 5167,76.494972 5168.7387,68.617177 5171.7812,66.25 5173.934,64.575028 5174.2701,64.639847 5177.2188,67.25 5180.4682,70.126365 5182.7497,74.690779 5183.5938,79.96875 5184.1915,83.707454 5183.9485,84.449841 5181.1875,87.3125 5175.2417,93.477296 5174.4788,101.00524 5179.7812,101 5181.9126,100.99789 5182.9377,100.1745 5184.5,97.25 5187.2793,92.047618 5190.5103,92.129551 5194.125,97.5 5196.8035,101.47951 5196.8365,101.50339 5203.7188,101.6875 5203.9768,101.6944 5204.009,101.65109 5204.25,101.65625 L 5202.3438,91.21875 C 5201.1409,90.124094 5199.6981,88.508563 5198.3438,86.46875 5194.9461,81.351547 5194.8675,80.957998 5196.0625,77.3125 5197.7814,72.068993 5199.9299,68.995553 5201.875,69 5202.7743,69.002056 5205.0181,69.93042 5206.875,71.0625 5208.732,72.194579 5212.3859,73.377905 5215,73.6875 5219.6316,74.236045 5219.8225,74.15115 5222.4062,70.375 5223.8644,68.24377 5226.2339,62.675 5227.6562,58 5230.1385,49.84096 5231.2539,47.544041 5233,47.15625 L 5233.4688,43.375 z M 5222.8125,22.09375 C 5222.4983,22.214601 5222.0896,22.535227 5221.5938,23.0625 5219.28,25.522777 5219.0211,32.315389 5221.0625,36.875 5222.075,39.136536 5223.5868,41 5224.4062,41 5226.8305,41 5227.0972,39.397937 5225,37.5 5222.4575,35.199062 5221.5041,29.897207 5222.9062,25.875 5223.8594,23.140832 5223.755,21.731196 5222.8125,22.09375 z M 5216.5625,22.34375 C 5216.0134,22.105402 5214.9514,22.595111 5213.8125,24 5210.7225,27.811774 5211.6811,35.757484 5215.8438,40.9375 5218.0809,43.721194 5219,45.933004 5219,48.46875 5219,54.681435 5214.569,63 5211.25,63 5210.4521,63 5208.39,61.838829 5206.6875,60.40625 5204.1773,58.294015 5202.8931,57.899301 5199.8125,58.3125 L 5196,58.8125 5196,46.96875 C 5196,35.75277 5196.1245,35.058161 5198.3438,33.3125 5200.7392,31.428212 5203.471,27.158545 5202.75,26.4375 5201.9116,25.599108 5192.8789,34.945979 5192.8438,36.6875 5192.8234,37.692241 5192.891,43.827456 5193,50.34375 L 5193.2188,62.1875 5197.5625,61.53125 C 5201.2397,60.979827 5202.5176,61.283509 5205.6875,63.4375 5210.7484,66.876439 5213.387,66.711449 5216.3125,62.75 5221.7734,55.355312 5224.1528,41.811148 5220.2188,40.5625 5215.946,39.206405 5213.4417,29.478106 5216.2188,25.03125 5217.1519,23.537053 5217.1116,22.582098 5216.5625,22.34375 z"/>
</svg>
