<svg xmlns="http://www.w3.org/2000/svg"
     width="33.7" height="64.0"
     viewBox="5681.0000 21.8224 43.9375 83.5602">
  <path d="M 5710.5938,51.9375 C 5709.7871,53.375634 5707.7658,54.92978 5706.2812,54.96875 5703.2536,55.048231 5702.0508,36.247022 5704.5625,28.125 5705.1178,26.329146 5704.9769,25.841049 5703.9375,26.1875 5699.8472,27.550948 5698.8013,49.493075 5702.4688,57.0625 5704.1796,60.593686 5704.1649,60.667262 5701.0938,66.34375 5699.3927,69.487812 5698,72.736854 5698,73.59375 5698,74.450646 5699.629,77.617851 5701.625,80.625 L 5705.25,86.09375 5703.2188,88.3125 C 5700.5572,91.207852 5697.0048,97.172427 5697,98.75 5696.9922,101.38262 5699.1379,99.804046 5702.0938,95 5705.4729,89.50825 5706.912,89.005616 5710.7188,92 5712.1173,93.1 5713.7616,94.000559 5714.375,94 5714.9883,93.999441 5716.7249,91.815945 5718.2188,89.15625 L 5720.9375,84.3125 5717.6562,81.15625 C 5713.8351,77.452725 5712.9332,77.311328 5710.5,80 5707.945,82.823228 5706.8879,82.504447 5703.6562,77.9375 5700.8229,73.933478 5700.8119,73.913075 5702.5312,70.21875 5705.5455,63.742128 5705.9211,63.58839 5709.4375,67.65625 5713.184,71.990384 5714.1238,71.693034 5717.5312,64.96875 L 5720,60.0625 5717,56.65625 C 5715.7048,55.181122 5715.0282,53.84668 5714.625,52.375 L 5710.5938,51.9375 z M 5711.8438,56.125 C 5712.6796,56.284842 5713.4875,56.884415 5714.4688,57.96875 5716.0148,59.677094 5716.0843,60.351032 5715,62.96875 5713.296,67.082486 5711.6561,66.788443 5709.4688,61.9375 5707.8952,58.448305 5707.8331,57.715417 5709.0625,56.9375 5710.1507,56.248914 5711.0079,55.965158 5711.8438,56.125 z M 5713.2188,82.09375 C 5714.1248,81.930512 5715.0993,82.408339 5716.0312,83.53125 5717.0637,84.775306 5717.039,85.53154 5715.9688,87.53125 5714.4569,90.35626 5712.7951,90.669423 5710.9688,88.46875 5709.9981,87.299147 5709.9832,86.357705 5710.8438,84.46875 5711.4845,83.062492 5712.3127,82.256988 5713.2188,82.09375 z M 5688.1562,26 C 5686.8684,26 5685,33.199378 5685,38.15625 5685,43.841347 5687.3742,52.900615 5689.9688,57.15625 5692.5812,61.441205 5692.5337,62.912034 5689.5625,68.5 5686.8379,73.624234 5686.9861,74.85775 5691.125,80.1875 5694.648,84.723996 5694.6789,86.134333 5691.4062,91.71875 5689.8752,94.331281 5689.1128,96.81419 5689.5,97.8125 5690.0931,99.341758 5690.2646,99.326157 5691.5625,97.5625 5692.3482,96.494879 5693,95.081751 5693,94.4375 5693,93.793249 5694.35,91.576255 5696,89.5 5697.65,87.423745 5699,85.378422 5699,84.9375 5699,84.496578 5697.2,82.041901 5695,79.5 5690.4378,74.22874 5690.2238,72.945267 5693,67.5 5695.5905,62.418923 5695.5283,61.004877 5692.4375,55.46875 5688.8325,49.011611 5686.7087,38.242809 5687.9688,32.78125 5689.1931,27.47408 5689.2301,26 5688.1562,26 z M 5695.9062,26.03125 C 5695.6219,26.100874 5695.247,26.346776 5694.8125,26.78125 5692.026,29.567746 5692.5465,53.252434 5695.5,58.03125 5696.2251,59.204581 5699,59.323609 5699,58.1875 5699,57.7475 5698.6287,56.96 5698.1562,56.4375 5695.5827,53.591528 5694.0813,34.566287 5696.0312,29.4375 5696.8947,27.166343 5696.7593,25.822377 5695.9062,26.03125 z"/>
</svg>
