<svg xmlns="http://www.w3.org/2000/svg"
     width="40.4" height="64.0"
     viewBox="6834.1843 10.4094 57.2176 90.5906">
  <path d="M6859.6845 94.036947C6858.3133 92.407268 6857.0142 90.542739 6856.7978 89.893549C6856.3017 88.404987 6852.6778 90.146928 6848.8489 93.714552C6845.4088 96.919794 6842.6062 96.414796 6842.1612 92.509527C6841.6373 87.911974 6843.728 82.406682 6847.0637 79.599888C6850.0243 77.108657 6850.0636 76.957929 6848.8406 72.776193C6848.146 70.40115 6847.5551 62.694781 6847.5114 55.442516L6847.4329 42.385033L6843.8028 38.859745C6841.0658 36.201749 6840.0019 34.195267 6839.4783 30.703984C6838.1843 22.074922 6841.6844 14.409449 6844.0625 20.664283C6845.514 24.48219 6849.8213 30.010575 6851.3009 29.954789C6851.9604 29.929923 6854.1732 27.229923 6856.2182 23.954789C6858.566 20.194807 6860.613 18.0 6861.772 18.0C6864.0401 18.0 6869.5155 23.540202 6870.9139 27.25C6872.758 32.142202 6878.3634 30.552743 6882.5271 23.957004C6886.2554 18.051124 6887.4019 18.793137 6886.6694 26.637733C6885.9958 33.850534 6884.4241 37.053854 6879.5389 41.170321L6876.37 43.840642L6877.3332 51.670321C6877.9892 57.002119 6877.945 62.127778 6877.1947 67.736844C6876.101 75.913888 6876.1148 76.015114 6879.0946 81.679774C6882.7801 88.686056 6882.9032 95.299936 6879.3576 95.805453C6877.9011 96.013114 6876.5186 95.132688 6875.0395 93.055453C6872.2466 89.133241 6870.9018 89.208865 6867.1341 93.5C6865.444 95.425 6863.6374 97.0 6863.1194 97.0C6862.6015 97.0 6861.0558 95.666626 6859.6845 94.036947Z M6850.9552 34.55887C6850.9305 33.976492 6848.9055 31.262322 6846.4552 28.527382L6842.0 23.554764L6842.0 27.343123C6842.0 31.728712 6843.3537 34.790276 6846.367 37.21955C6848.3511 38.819052 6848.5873 38.823162 6849.75 37.278421C6850.4375 36.365047 6850.9798 35.141249 6850.9552 34.55887Z M6849.85 90.053026C6852.7512 87.571313 6853.109 86.772807 6852.5206 84.093667C6851.7552 80.60875 6850.0789 80.150353 6847.7026 82.776125C6845.9242 84.741225 6844.2321 93.023717 6845.6222 92.959359C6846.105 92.937007 6848.0075 91.629157 6849.85 90.053026Z M6859.0 72.797264C6859.0 71.756245 6857.8093 69.800989 6856.354 68.452251C6854.3347 66.580802 6854.0978 66.0 6855.354 66.0C6857.9384 66.0 6857.6237 59.332735 6855.0 58.5C6853.9 58.150874 6853.0 57.498033 6853.0 57.049244C6853.0 56.600454 6853.9 55.997907 6855.0 55.710251C6857.3119 55.105688 6857.8041 50.204073 6855.7584 48.158359C6854.7695 47.169505 6854.814 46.732981 6855.977 46.014232C6856.9904 45.387895 6857.4128 43.419884 6857.3573 39.582571C6857.3133 36.541525 6857.6424 34.278986 6858.0885 34.554707C6858.5346 34.830427 6859.3881 34.143413 6859.985 33.028008C6861.4687 30.255621 6863.8518 30.479902 6865.0 33.5C6866.0309 36.21157 6868.7343 36.856063 6869.6012 34.596952C6870.2683 32.858408 6866.9294 26.148064 6864.1437 23.628719C6861.0803 20.858332 6859.2357 22.20905 6855.7962 29.74114C6850.3087 41.758233 6849.1019 54.956022 6852.1151 70.0C6853.5528 77.177508 6854.6772 78.602088 6857.1434 76.370241C6858.1645 75.446122 6859.0 73.838282 6859.0 72.797264Z M6866.2927 89.984363C6867.7021 88.875763 6869.3883 86.353336 6870.0399 84.37897C6871.1768 80.934313 6871.083 80.651645 6867.7206 77.385742C6864.4954 74.253058 6864.2813 73.684617 6865.0305 70.241135C6866.0253 65.668817 6865.6672 40.177133 6864.5741 37.75C6861.0347 29.890854 6858.1054 51.556823 6860.7897 65.740992L6862.3492 73.981983L6859.087 78.041411C6854.4689 83.788024 6856.1372 87.676246 6861.0 82.5C6863.3383 80.01099 6867.0 79.095566 6867.0 81.0C6867.0 81.55 6866.3425 82.0 6865.539 82.0C6863.6314 82.0 6860.0 85.926125 6860.0 87.988561C6860.0 89.609181 6861.8268 92.0 6863.0651 92.0C6863.431 92.0 6864.8834 91.092963 6866.2927 89.984363Z M6874.4144 66.171898C6875.0823 59.393469 6874.8426 56.065159 6872.8353 44.25C6871.9718 39.166868 6871.4213 38.0 6869.8868 38.0C6867.0656 38.0 6867.1679 44.969643 6870.0 45.710251C6872.3678 46.329446 6872.5991 47.556113 6870.5 48.361626C6869.5585 48.722911 6869.0 50.252097 6869.0 52.468615C6869.0 54.940957 6869.4498 56.0 6870.5 56.0C6872.6975 56.0 6872.3306 57.680284 6870.0 58.289749C6867.5197 58.938349 6867.3452 62.534169 6869.7292 63.868321C6871.3681 64.785504 6871.3681 64.935771 6869.7292 66.746752C6867.4962 69.214181 6867.5074 73.617124 6869.75 74.907808C6872.3688 76.414995 6873.6396 74.034818 6874.4144 66.171898Z M6877.6072 84.602266C6875.7473 80.150992 6874.3749 80.016715 6873.4569 84.196211C6872.8571 86.927147 6873.1731 87.753235 6875.6274 89.871032C6878.4348 92.293369 6878.507 92.302588 6878.8061 90.277087C6878.9745 89.137182 6878.435 86.583513 6877.6072 84.602266Z M6881.4487 35.769757C6882.9279 33.657899 6883.6145 29.0 6882.4466 29.0C6882.1422 29.0 6880.3422 30.2375 6878.4466 31.75C6875.2896 34.268959 6874.0163 37.683003 6875.6315 39.29815C6876.5491 40.215766 6879.6535 38.332841 6881.4487 35.769757Z"/>
</svg>
