<svg xmlns="http://www.w3.org/2000/svg"
     width="46.4" height="64.0"
     viewBox="5463.0000 29.6308 24.9688 34.4630">
  <path d="M 5483.5938,50.125 C 5481.2081,50.048829 5479.9442,49.54839 5478.0938,47.25 5476.679,45.492718 5474.831,41.929738 5474,39.34375 5473.1691,36.757762 5471.9453,34.444449 5471.25,34.21875 5469.4386,33.630799 5467,40.111353 5467,45.53125 5467,50.652328 5468.0597,53.226846 5471.7812,57.21875 5473.1243,58.659374 5473.682,59.339229 5473.6875,60.09375 L 5474.7812,59.53125 5478.6875,56.21875 C 5476.0418,57.585094 5473.6109,56.124116 5471.125,51.3125 5469.7938,48.735944 5469.6062,41 5470.875,41 5471.3583,41 5472.3386,42.359161 5473.0312,44.03125 5473.7239,45.703339 5476.0012,48.557073 5478.125,50.375 5480.7032,52.581838 5481.4554,53.356182 5481.125,54.15625 L 5483.9688,51.75 5483.5938,50.125 z"/>
</svg>
