<svg xmlns="http://www.w3.org/2000/svg"
     width="57.8" height="64.0"
     viewBox="5081.5975 17.0000 80.4172 89.0000">
  <path d="M 5122.375 21 C 5115.7451 21 5108.1849 31.033705 5107.2812 41 L 5106.7188 47 L 5103.125 47 C 5095.5715 47.007819 5089.0835 54.438054 5089.0312 63.15625 C 5088.9873 70.501512 5091.9325 72.489569 5094.3438 66.71875 C 5098.3417 57.150382 5105.8354 57.872546 5108.125 68.0625 C 5108.9628 71.79164 5108.7721 72.738988 5106.5312 76.125 C 5105.138 78.230339 5102.5398 80.699716 5100.75 81.625 C 5089.7871 87.292415 5085.5975 94.934703 5090.25 100.75 C 5090.8001 101.4375 5092.3349 102 5093.6562 102 C 5095.5322 102 5096.1822 101.33904 5096.6562 98.96875 C 5097.944 92.529454 5105.2271 90.927382 5109.3438 96.1875 C 5111.6161 99.090942 5112.0984 99.284509 5114.4375 98.21875 C 5117.6264 96.765819 5117.7668 93.855085 5114.8438 89.75 C 5112.5007 86.459665 5112.5949 85.484985 5116.4688 75.0625 C 5119.6298 66.558012 5120.1785 61.082547 5118.4375 55.09375 C 5116.5423 48.574499 5117.111 43.186976 5120.3125 37.5 C 5123.4174 31.984412 5125.7832 32.214132 5129.0938 38.34375 C 5130.8168 41.534211 5131.8992 46.018225 5132.3438 51.21875 L 5136.4375 51 C 5136.2498 50.259085 5136.0314 49.75023 5135.875 48.46875 C 5135.257 43.405894 5133.4015 38.85408 5129.8125 33.75 C 5128.3401 31.655956 5127.0307 31 5124.4062 31 C 5120.2695 31 5118.0511 34.036435 5115 43.8125 C 5113.169 49.678946 5113.137 50.386653 5114.5938 53.8125 C 5117.2572 60.076041 5116.5514 67.955343 5112.5312 76.65625 C 5108.4072 85.582016 5108.3138 86.252052 5111.0938 90.15625 C 5113.7025 93.820018 5112.8119 95.091438 5109.6875 92.15625 C 5108.3964 90.94331 5106.0779 89.997911 5104.4375 90 C 5100.7619 90.004681 5094.9573 93.47707 5094.2812 96.0625 C 5093.5174 98.983889 5092 98.398528 5092 95.1875 C 5092 92.08472 5094.6288 89.227239 5102.125 84.1875 C 5109.0472 79.533624 5112 75.570413 5112 70.9375 C 5112 65.648129 5109.4051 59.554755 5106.5 58 C 5103.2789 56.276129 5098.2333 57.406117 5094.9062 60.59375 C 5091.4567 63.898624 5090.6281 62.509567 5092.9688 57.28125 C 5095.6255 51.347359 5098.8836 49.466218 5104.1875 50.8125 C 5106.4878 51.396378 5108.6653 51.694919 5109.0312 51.46875 C 5109.3971 51.242581 5109.9474 47.447261 5110.25 43.03125 C 5110.7338 35.972974 5111.2061 34.450715 5114.1562 30.34375 C 5120.2251 21.894891 5126.7366 22.424214 5133.5938 31.96875 C 5137.6295 37.586383 5139.2094 38.106034 5141.5312 34.5625 C 5143.5096 31.543081 5148.489 29.672856 5150.9688 31 C 5153.2642 32.228418 5154.2639 36.183944 5153.0625 39.34375 C 5152.012 42.10672 5150.8263 43.042541 5146.5938 44.5 C 5143.6268 45.521648 5142.577 46.877654 5141.6875 50.71875 L 5145.2812 50.53125 C 5145.342 50.205639 5145.3336 49.478255 5145.4062 49.25 C 5145.8 48.0125 5146.9488 47 5147.9375 47 C 5153.4092 47 5158.0147 38.636769 5155.9688 32.4375 C 5153.9794 26.409909 5147.3431 25.795959 5140.6875 31.03125 L 5138.25 32.96875 L 5135.625 29 C 5132.7753 24.693851 5126.6497 21 5122.375 21 z "/>
</svg>
