<svg xmlns="http://www.w3.org/2000/svg"
     width="64.0" height="46.9"
     viewBox="2603.0938 62.0000 63.1504 46.2488">
  <path d="M 2607.8125 88.15625 L 2607.0938 88.1875 L 2610.2812 99.84375 L 2610.375 100.09375 C 2611.2063 99.998575 2612.1465 100.49 2613.0625 101.59375 C 2615.266 104.24878 2633.0865 103.22767 2639.2188 100.09375 L 2643.9688 97.65625 L 2646.4375 100.34375 C 2649.1998 103.32432 2653.0928 103.81079 2655.0625 101.4375 C 2656.1182 100.16541 2656.0992 98.951064 2655.0625 94.90625 C 2653.8544 90.192505 2653.9229 89.780129 2656.25 86.71875 C 2660.2841 81.411607 2662.1276 77.087664 2662.1875 72.75 C 2662.2442 68.64256 2660.3335 66 2657.3125 66 C 2655.1511 66 2648.3049 72.813458 2645.4375 77.8125 C 2639.8551 87.544778 2632.1238 93.045084 2624.1562 92.96875 C 2618.5872 92.915396 2611.0179 90.528861 2607.8125 88.15625 z M 2657.2188 69.15625 C 2658.3744 69.180561 2659 70.483506 2659 73.125 C 2659 76.629719 2657.9243 78.883745 2653.3438 84.90625 C 2649.6211 89.800989 2649.3207 91.484645 2651.4688 95.625 C 2652.3789 97.379106 2652.6064 98.799887 2652.0312 99.375 C 2650.8837 100.52263 2648.3173 98.579851 2647.4688 95.90625 C 2646.6421 93.301688 2644.9827 93.509751 2638.25 97 C 2629.3112 101.63391 2618.975 101.83521 2612.4062 97.53125 C 2608.5252 94.988275 2610.6986 93.302238 2615.8438 94.84375 C 2628.6979 98.69494 2637.7835 94.262542 2647.4062 79.5 C 2651.8815 72.634406 2655.2927 69.115732 2657.2188 69.15625 z "/>
</svg>
