<svg xmlns="http://www.w3.org/2000/svg"
     width="37.7" height="64.0"
     viewBox="1262.5014 18.9733 52.5000 89.2095">
  <path d="M 1295.9688,26.15625 C 1296.6066,26.184417 1296.9771,26.613987 1297.625,27.5 1299.4563,30.004409 1299.3545,31.597308 1296.875,39.625 1294.5703,47.086772 1294.7646,54.411408 1297.3438,58.09375 1298.132,59.219015 1300.6133,61.492997 1302.875,63.15625 1306.6966,65.966695 1308.1598,69.168016 1306.1562,70.40625 1305.6877,70.695893 1303.5601,70.050934 1301.4375,68.96875 1299.3148,67.886566 1297.4737,67 1297.3438,67 1297.2137,67 1297.163,70.518471 1297.2188,74.8125 1297.3472,84.700474 1294.8492,93.108294 1290.7812,96.53125 1284.2047,102.06505 1273.8401,98.492873 1271.125,89.75 1269.3246,83.952574 1270.1398,82.830196 1273.75,86.1875 1279.2207,91.27492 1281.8166,92.421643 1284.5312,90.96875 1285.8777,90.248162 1287.7084,88.569971 1288.5938,87.21875 1290.9183,83.670954 1290.1588,71.961192 1287.2188,65.9375 1285.3418,62.091654 1285,59.70598 1285,50.78125 1285,37.149541 1287.419,29.857072 1292.7812,27.3125 1294.4343,26.52809 1295.3309,26.128083 1295.9688,26.15625 z M 1297,23.25 C 1296.0638,22.97327 1294.8834,23.100389 1292.8438,23.40625 L 1288.3438,24.0625 1285.1875,31.78125 C 1280.2579,43.834047 1280.0431,55.175462 1284.5312,67 1285.4707,69.475 1286.4195,74.425 1286.6562,78 1287.0076,83.305025 1286.7626,84.942918 1285.2188,86.875 1283.0155,89.632567 1280.6588,89.26965 1276.625,85.53125 1274.932,83.962283 1274,82.031244 1274,80.09375 1274,76.205638 1272.5698,75.430161 1270.0625,77.9375 1267.1992,80.80078 1266.5014,84.681377 1267.9062,89.9375 1269.2915,95.120418 1272.1362,98.654262 1276.5,100.59375 1284.575,104.18273 1293.5583,100.77186 1296.9688,92.84375 1299.224,87.601305 1301.3027,78.298787 1300.5,77 1300.2265,76.557448 1300.2593,75.465641 1300.5938,74.59375 1301.0593,73.380386 1302.0761,73.141189 1304.9062,73.59375 1308.417,74.155135 1308.6483,74.026303 1309.625,70.84375 1311.0014,66.359199 1310.6512,65.676207 1304.9688,61.59375 1301.1291,58.835194 1299.8428,57.143552 1298.9375,53.78125 1297.6126,48.860895 1298.2138,42.733253 1300.4375,38.46875 1302.7337,34.065335 1302.4295,28.594037 1299.6875,25.40625 1298.6394,24.187736 1297.9362,23.52673 1297,23.25 z"/>
</svg>
