<svg xmlns="http://www.w3.org/2000/svg"
     width="37.2" height="64.0"
     viewBox="3922.2188 16.0986 50.4821 86.9014">
  <path d="M 3929.9688 81.6875 L 3929.75 81.8125 L 3928.3438 86.71875 C 3928.9962 85.683389 3930.7217 85.978699 3934.4375 87.53125 C 3937.4929 88.807859 3938.5102 88.849614 3940.6562 87.78125 C 3943.4512 86.389846 3948 79.119179 3948 76.03125 C 3948 74.978472 3948.45 73.839919 3949 73.5 C 3949.6138 73.120651 3949.9916 64.887624 3950 52.1875 C 3950.0075 40.807459 3950.2597 30.564755 3950.5625 29.4375 C 3950.8653 28.310244 3952.0259 26.842639 3953.125 26.15625 C 3960.1568 21.764777 3963.2136 33.931209 3959.3125 50.75 C 3957.2507 59.63887 3958.4598 68.275257 3962.4688 73.53125 C 3963.8669 75.364245 3965 77.350803 3965 77.9375 C 3965 79.918662 3962.2432 79.017509 3960.5938 76.5 C 3958.8308 73.809343 3955.8793 73.230635 3954.2188 75.25 C 3953.6534 75.9375 3952.4509 79.105865 3951.5312 82.28125 C 3949.8551 88.0678 3946.3989 92.76962 3942.3125 94.875 C 3937.0764 97.572761 3928 93.429778 3928 88.34375 C 3928 87.898555 3928.1058 87.623867 3928.1875 87.3125 L 3926.2188 94.1875 L 3926.25 94.40625 L 3926.375 94.28125 L 3931.7188 96.625 C 3934.6552 97.92368 3938.4159 99 3940.0625 99 C 3944.5445 99 3951.4095 92.226355 3954.0312 85.21875 C 3955.1819 82.143632 3956.3569 79.234388 3956.6562 78.75 C 3957.3583 77.614213 3961 80.88977 3961 82.65625 C 3961 84.23429 3965.5889 84.493455 3966.5312 82.96875 C 3966.8822 82.400836 3967.5377 80.612014 3968 79 C 3968.7009 76.556142 3968.3555 75.472038 3965.9688 72.46875 C 3961.608 66.981553 3960.5416 60.080218 3962.5625 50.40625 C 3964.7923 39.731946 3964.8385 33.398492 3962.7188 27.90625 C 3960.1166 21.164274 3956.7864 20.098609 3951.0938 24.1875 C 3947.7781 26.569086 3947.0444 31.650404 3947 52.90625 C 3946.9592 72.455817 3945.9626 78.069089 3941.5 83.5625 C 3939.6451 85.845845 3939.2098 85.937691 3935.5 84.90625 C 3933.3 84.294579 3931.0153 83.401315 3930.4062 82.90625 C 3930.2673 82.793303 3930.115 82.121076 3929.9688 81.6875 z "/>
</svg>
