<svg xmlns="http://www.w3.org/2000/svg"
     width="53.4" height="64.0"
     viewBox="4728.6095 18.7342 71.1285 85.3083">
  <path d="M 4776.1562,82.6875 C 4775.9921,82.7507 4775.8262,82.757169 4775.6562,82.84375 4769.449,86.005647 4768.4222,86.005075 4762.9375,82.6875 4753.8647,77.199562 4752.0719,73.014185 4752.0312,57.25 4752.0107,49.31404 4752.2841,47.715883 4754,46 4757.511,42.488968 4760.9898,43.414981 4766.9375,49.4375 L 4772.3125,54.875 4770.1562,59.875 C 4767.3537,66.389439 4767.3287,72.091388 4770.0938,74.59375 4772.1449,76.450081 4772.2105,76.423047 4773.5938,74.53125 4774.3691,73.47093 4775,72.218008 4775,71.71875 4775,69.622457 4778.3488,64 4779.5938,64 4781.3231,64 4783,67.152303 4783,70.375 4783,75.688352 4786.6806,74.739287 4790.9375,68.3125 4794.5137,62.913465 4795.738,56.209029 4793.9688,51.9375 4792.414,48.183918 4790.2827,47 4785.0938,47 4778.8607,47 4776.7298,42.460423 4779.1562,34.34375 4779.3454,33.71125 4779.05,33.139286 4778.5,33.0625 4777.95,32.985714 4777.358,33.793155 4777.1875,34.875 4776.6824,38.079059 4774.6734,39.144227 4772.2812,37.46875 4770.5647,36.266447 4770.2766,35.295981 4770.7188,32 4771.3476,27.312333 4769.5665,26.449151 4768.6562,31 4768.0159,34.20171 4766.7452,34.614042 4762.5,33 4760.5539,32.260101 4760.0306,31.505424 4760.4688,30.125 4761.2528,27.654516 4759.3286,22.734211 4757.7812,23.25 4757.0176,23.504528 4756.6578,25.176224 4756.8438,27.75 4757.1317,31.739302 4757.0417,31.885183 4753.3438,32.90625 4749.7496,33.898621 4749.3921,33.81687 4747.1875,31 4745.9028,29.358406 4744.2227,28 4743.4375,28 4741.589,28 4741.6117,28.221285 4744.0625,32.375 4746.0376,35.722578 4746.059,35.977405 4744.4062,38.5 4743.2146,40.318492 4742.1114,40.958606 4740.8438,40.5625 4739.8336,40.246858 4738.1,39.714147 4737,39.375 4733.7048,38.359026 4734.7004,40.870331 4738.4688,43.09375 4741.5579,44.916386 4741.8514,45.477928 4741.3125,48.3125 4740.5208,52.476642 4740.4199,52.562692 4737.5,51 4736.1267,50.265009 4734.7575,49.898725 4734.4688,50.1875 4733.4847,51.171505 4735.1857,53.937093 4737.1562,54.5625 4739.2253,55.219203 4741,58.7446 4741,62.1875 4741,63.984405 4740.5736,64.13911 4737.5,63.5625 4732.6095,62.645031 4732.9365,64.76099 4738,66.75 4741.0695,67.955731 4742.2243,69.039345 4742.8438,71.40625 4743.5979,74.286958 4743.44,74.520709 4740.8125,74.8125 4736.8121,75.256751 4737.3356,76.738012 4741.9062,77.96875 4748.2555,79.678425 4748.372,83.556709 4742.2812,90.34375 4739.7526,93.161409 4739.0981,94.504313 4739.9062,95.3125 4740.7145,96.120688 4741.8846,95.39341 4744.25,92.5625 4751.0055,84.477397 4751.1125,83.756945 4747,72 4743.9831,63.375169 4743.0569,52.934362 4744.625,45.09375 4746.1425,37.50661 4755.1441,33.248176 4763.6875,36.0625 4768.3856,37.610133 4773.9833,41.139114 4774,42.5625 4774.0068,43.142108 4775.4625,45.013521 4777.25,46.71875 4779.8715,49.219601 4781.3634,49.814628 4784.9688,49.84375 4790.575,49.889035 4792.3252,51.892225 4791.7188,57.5625 4791.2448,61.992931 4789.0867,67.155693 4787.5,67.65625 4786.95,67.829759 4785.4728,66.195396 4784.2188,64 4782.9648,61.804605 4781.3611,60 4780.6562,60 4778.6438,60 4774.9406,63.950438 4773.2188,67.90625 4772.0167,70.668107 4771.534,71.072138 4771.2188,69.65625 4770.5515,66.659046 4771.9087,61.385857 4774.0312,58.6875 4776.8526,55.100757 4776.5561,54.045246 4771.25,48.9375 4762.8878,40.887932 4759.5513,39.615258 4754.0938,42.4375 4749.6971,44.711055 4748.6492,48.634198 4749.25,60.40625 4750.0434,75.952328 4753.4223,82.528666 4762.9688,87 4767.8089,89.267018 4767.9944,89.259343 4772.4375,87.5625 4774.4839,86.780981 4775.6128,86.425376 4776.75,86.4375 4776.6005,85.493146 4776.2192,83.083879 4776.1562,82.6875 z M 4777.4375,91.03125 C 4776.7513,91.095803 4775.2326,92.20466 4773.9375,93.59375 4771.7723,95.916119 4770.9615,96.137622 4766.5625,95.625 4763.1621,95.228751 4760.4749,94.12052 4757.875,92.03125 4755.8038,90.366768 4753.4288,89 4752.5938,89 4750.8082,89 4746,93.926349 4746,95.75 4746,97.790526 4748.6238,97.183206 4750.2188,94.78125 L 4751.6875,92.5625 4757.75,95.78125 C 4764.9241,99.604961 4771.1104,100.0425 4775,97 4776.2768,96.001299 4777.1713,95.518177 4778.0938,95.34375 4777.7824,93.361782 4777.6982,92.683646 4777.4375,91.03125 z"/>
</svg>
