<svg xmlns="http://www.w3.org/2000/svg"
     width="40.3" height="64.0"
     viewBox="3393.4204 18.0000 53.7762 85.3211">
  <path d="M3419.4202 96.855451C3413.6355 94.048522 3412.0474 85.157766 3414.9851 72.026139C3416.1507 66.815515 3416.8474 61.528015 3416.5332 60.276139C3415.9011 57.757845 3412.5463 57.13399 3411.6864 59.374846C3410.9254 61.357923 3405.1269 61.984051 3403.4113 60.268403C3397.4204 54.277534 3413.9907 22.0 3423.0571 22.0C3428.999 22.0 3441.6598 40.303927 3442.7019 50.400621C3443.1966 55.193339 3443.0205 55.918656 3441.1151 56.938387C3439.8816 57.598571 3437.4994 57.809115 3435.5024 57.434468C3432.3652 56.845926 3431.9314 57.050274 3430.9743 59.567513C3430.1537 61.725818 3430.3748 64.306183 3431.9579 71.049514C3434.3799 81.365594 3434.4927 84.884956 3432.5507 89.532868C3429.6638 96.44233 3424.5016 99.321129 3419.4202 96.855451Z M3426.9427 93.057313C3430.9915 89.008463 3431.5377 83.955314 3429.1406 72.721654C3427.7951 66.415732 3427.2088 61.20585 3427.6158 59.170767C3428.3947 55.276378 3432.4364 52.036358 3434.2513 53.851347C3435.6426 55.242603 3438.6605 55.358271 3439.4683 54.051296C3440.3183 52.676005 3438.0658 44.227472 3435.4554 39.0C3434.2195 36.525 3431.3232 32.3625 3429.0192 29.75C3423.1789 23.127859 3421.2156 23.343986 3415.3926 31.25C3409.4463 39.323503 3407.5273 43.192263 3405.9518 50.283396C3404.3066 57.688127 3405.2892 58.920805 3410.5778 56.086324C3413.896 54.307851 3414.689 54.212562 3416.4567 55.37992C3420.0138 57.729006 3420.5059 61.134698 3418.6715 70.707695C3415.982 84.743386 3416.5284 89.308286 3421.367 93.227764C3424.0867 95.430763 3424.5845 95.415546 3426.9427 93.057313Z"/>
</svg>
