<svg xmlns="http://www.w3.org/2000/svg"
     width="56.0" height="64.0"
     viewBox="1474.0000 46.2915 52.3881 59.8960">
  <path d="M 1482.0312 89.96875 L 1481.375 90.3125 L 1480.25 93.34375 C 1480.648 93.381352 1480.9073 93.318768 1481.6562 93.53125 C 1487.3179 95.137445 1492.5943 94.932622 1495.875 92.9375 C 1499.7594 90.57527 1501.9643 85.685279 1504.875 73.03125 C 1507.1388 63.189785 1510.698 55.781687 1513.9688 54.03125 C 1516.4359 52.710838 1516.5804 52.705475 1518.4375 54.5625 C 1520.3839 56.50896 1519.8736 59.009158 1515.4688 69 C 1510.7994 79.590856 1510.3695 82.796436 1512.9062 88.53125 C 1514.057 91.132477 1515 93.917831 1515 94.71875 C 1515 96.961074 1512.7767 95.700471 1510.9688 92.4375 C 1508.6773 88.301784 1506.4944 88.286969 1502.3438 92.4375 C 1500.3605 94.420867 1497.6285 96.94692 1496.25 98.03125 C 1493.3015 100.35048 1493.2519 100.35366 1485.5 98.09375 C 1482.202 97.132286 1480.3253 96.20789 1479.5625 95.25 L 1478 99.40625 C 1478.8151 99.395533 1479.6746 99.546542 1481.3125 100.03125 C 1483.6117 100.71165 1488.0945 101.4669 1491.2812 101.71875 L 1497.0938 102.1875 L 1502.1875 97 L 1507.3125 91.8125 L 1509.7188 94.90625 C 1511.2319 96.839746 1513.0583 98 1514.5625 98 C 1518.0483 98 1518.6587 94.317879 1516.0938 88.6875 C 1514.9504 86.177742 1514 83.023525 1514 81.6875 C 1514 79.014445 1516.0439 72.690729 1518.9062 66.5 C 1521.9179 59.986377 1522.3881 56.25487 1520.5625 53.46875 C 1518.5886 50.456196 1515.2017 50.291546 1511.7188 53.03125 C 1507.513 56.339486 1505.3494 60.890442 1502.5312 72.4375 C 1498.4723 89.0689 1496.5066 92 1489.375 92 C 1485.5489 92 1483.2337 91.300517 1482.0312 89.96875 z "/>
</svg>
