<svg xmlns="http://www.w3.org/2000/svg"
     width="28.0" height="64.0"
     viewBox="1580.3864 11.9602 39.6136 90.6958">
  <path d="M1597.0 97.031385C1597.0 96.498646 1596.3859 96.298437 1595.6352 96.586474C1593.742 97.312983 1589.2115 91.644301 1588.4527 87.599449C1587.6675 83.414099 1588.3588 72.867579 1590.0828 62.729382C1591.5708 53.978952 1590.7087 47.43994 1587.0754 39.919922C1584.3864 34.3543 1584.4505 33.463013 1587.9691 27.5C1594.3103 16.753635 1596.6491 15.960164 1601.0405 23.065481C1602.3779 25.229467 1603.7634 27.0 1604.1194 27.0C1604.4755 27.0 1605.0269 27.994743 1605.3448 29.210541L1605.9229 31.421082L1608.2759 29.210541C1612.2166 25.508452 1616.0 26.91277 1616.0 32.077555C1616.0 35.42416 1614.4527 36.744428 1610.034 37.168295C1606.8951 37.469402 1606.4509 37.915102 1605.2195 42.0C1603.5332 47.5939 1603.4321 65.624788 1605.0412 73.80366C1605.6969 77.136682 1606.0506 83.098515 1605.8272 87.052178C1605.4862 93.086725 1605.0484 94.542392 1603.0997 96.120329C1600.6397 98.112377 1597.0 98.655996 1597.0 97.031385Z M1602.0652 92.878226C1602.8081 91.490141 1602.9838 87.945794 1602.5734 82.628226C1602.2284 78.157702 1601.7012 68.425 1601.402 61.0C1600.9298 49.286462 1601.1233 46.656043 1602.8638 41.122357L1604.8697 34.744714L1600.8452 28.372357C1598.6317 24.867561 1596.4437 22.0 1595.9829 22.0C1594.7825 22.0 1591.4937 26.393916 1590.0061 29.985165C1588.9043 32.645362 1589.0315 33.944067 1590.9652 39.776091C1594.0724 49.147169 1594.5025 56.016522 1592.6118 66.07793C1590.7536 75.967065 1590.5752 82.930219 1592.0444 88.220517C1593.7435 94.338305 1599.7817 97.144906 1602.0652 92.878226Z M1613.1549 32.463748C1612.6591 29.641847 1612.1549 29.416511 1610.3579 31.213562C1608.5066 33.064814 1609.4268 35.267387 1611.8432 34.769117C1612.8672 34.557969 1613.3682 33.677498 1613.1549 32.463748Z"/>
</svg>
