<svg xmlns="http://www.w3.org/2000/svg"
     width="43.5" height="64.0"
     viewBox="1890.4688 57.1875 30.5000 44.9151">
  <path d="M 1911.125 97.78125 L 1911.6562 83.9375 L 1914.125 75.8125 L 1916.9688 69.09375 L 1912.7188 62.03125 L 1910.5625 61.1875 C 1910.2164 62.383437 1909.6312 63.266477 1908.5 64.15625 C 1906.7705 65.516688 1905.2332 68.771444 1903.4062 74.8125 C 1900.7634 83.551914 1897.7538 87.732624 1894.4688 87.40625 L 1894.5625 89.9375 C 1899.8459 89.783489 1902.1501 87.079339 1905.4688 76.96875 C 1908.4736 67.813863 1910.8729 64.466651 1912.9688 66.5625 C 1913.6771 67.270753 1913.3435 69.948128 1911.9062 75.0625 C 1910.7552 79.157984 1909.5713 85.3125 1909.2812 88.75 C 1908.9911 92.1875 1908.4734 95.003389 1908.125 95 C 1907.7766 94.996612 1906.1709 94.307511 1904.5625 93.46875 C 1901.9342 92.098148 1901.3084 92.093212 1898.3438 93.5 C 1896.7298 94.265839 1895.7765 94.576125 1894.75 94.46875 L 1894.875 97.53125 C 1895.7292 97.540516 1896.5146 97.475321 1897.6562 97.0625 C 1900.1244 96.170018 1901.8456 96.161085 1904.75 97.03125 C 1907.5391 97.86689 1909.6361 98.102589 1911.125 97.78125 z "/>
</svg>
