<svg xmlns="http://www.w3.org/2000/svg"
     width="27.8" height="64.0"
     viewBox="2855.3736 18.0000 38.6264 89.0000">
  <path d="M2881.0 43.027055C2877.425 39.760027 2874.0231 37.067429 2873.4402 37.043502C2872.8574 37.019576 2870.0081 39.025 2867.1086 41.5C2862.2149 45.677181 2859.3736 47.171398 2860.1667 45.150697C2860.7532 43.656223 2872.7268 33.0 2873.8194 33.0C2874.79 33.0 2880.2504 37.588964 2887.1657 44.216296C2888.7246 45.710259 2890.0 47.397759 2890.0 47.966296C2890.0 50.229151 2887.1988 48.691821 2881.0 43.027055Z M2868.8216 97.75C2868.7234 95.4125 2868.5426 84.275 2868.4196 73.0C2868.2967 61.725 2868.152 52.125798 2868.0981 51.668441C2868.0441 51.211083 2866.4606 51.788264 2864.5792 52.951064C2862.167 54.441895 2860.9498 54.727821 2860.4511 53.92082C2860.0621 53.291385 2860.1686 52.489205 2860.6879 52.138197C2866.8934 47.943345 2869.2526 46.852563 2870.1591 47.759083C2870.7779 48.377882 2871.2757 59.123335 2871.4391 75.385883C2871.6584 97.224772 2871.4636 102.0 2870.3532 102.0C2869.4559 102.0 2868.9399 100.56831 2868.8216 97.75Z M2881.8179 31.336372L2875.1542 24.672743L2870.7465 28.873586C2865.2021 34.157708 2862.2374 36.245792 2860.9082 35.802736C2859.578 35.359349 2874.3854 22.0 2876.207 22.0C2877.9641 22.0 2890.0 34.730879 2890.0 36.589439C2890.0 39.038446 2888.659 38.177475 2881.8179 31.336372Z M2879.5419 101.75C2878.9587 99.906206 2878.1841 51.71394 2878.7141 50.25C2879.391 48.380404 2880.945 48.720651 2884.6556 51.550891C2888.3818 54.39301 2889.2547 56.741878 2885.9219 54.95818C2881.3125 52.491321 2881.1795 53.252101 2881.7325 78.927546C2882.1171 96.784248 2881.9523 103.0 2881.0941 103.0C2880.4578 103.0 2879.7593 102.4375 2879.5419 101.75Z"/>
</svg>
