<svg xmlns="http://www.w3.org/2000/svg"
     width="35.2" height="64.0"
     viewBox="511.0437 16.6652 47.1438 85.6472">
  <path d="M 554.1875,76.21875 C 552.94216,76.068573 551.8848,76.433877 551,77.5 550.31531,78.325 549.2533,79 548.625,79 547.9967,79 545.75913,79.935425 543.65625,81.0625 540.67167,82.66214 539.50829,82.852115 538.40625,81.9375 536.69671,80.518711 536.54174,73.572973 538.125,69.03125 539.22856,65.865552 539.41267,65.793353 543.65625,66.375 547.20433,66.861318 548.42411,66.575894 550.03125,64.96875 552.45882,62.541189 552.52085,60.675949 550.3125,56.9375 547.95708,52.950091 546.53834,52.700272 543.0625,55.625 541.40886,57.016441 539.62279,57.901405 539.125,57.59375 536.55071,56.002751 536.05409,33.154087 538.46875,27.375 540.31307,22.960907 540.4259,20.692353 538.75,21.25 534.18713,22.768271 532.23362,47.209608 535.84375,57.65625 537.55727,62.614639 537.55874,63.008977 535.84375,67.375 532.38552,76.178964 535.12838,87.008254 540.40625,85.375 541.55147,85.020607 545.2832,83.399656 548.6875,81.75 L 553.34375,79.5 554.1875,76.21875 z M 545.8125,57.21875 C 547.86834,57.624421 549.43409,60.429436 548.6875,62.375 548.01612,64.124591 545.31836,64.507847 543.1875,63.15625 541.42284,62.036931 543.73437,56.808682 545.8125,57.21875 z M 551.34375,87.28125 C 551.16128,87.221169 550.80426,87 550.6875,87 549.87283,87 546.83886,88.610028 543.9375,90.5625 537.01807,95.218932 532.61941,95.06388 529.28125,90.09375 526.61007,86.116682 526.37501,81.268955 528.4375,72.5 L 529.84375,66.5 525.90625,58.5 C 520.87933,48.310717 518.35454,35.908325 519.8125,28.5625 520.891,23.128522 520.63906,21.954696 518.8125,23.78125 515.04373,27.550022 517.79078,48.883697 523.5,60.28125 L 527.15625,67.59375 525.59375,73.6875 C 524.72556,77.037937 524,81.140307 524,82.78125 524,87.043453 526.52903,92.470964 529.625,94.90625 533.9552,98.31239 537.18873,97.693597 547.5625,91.5 L 550.65625,89.65625 550.71875,89.71875 551.34375,87.28125 z M 529.9375,20.90625 C 529.70536,20.986589 529.36458,21.364351 528.9375,22.03125 524.61835,28.775816 525.18858,49.96621 529.90625,58.78125 530.55496,59.993379 531.5006,61 532.03125,61 533.31179,61 533.29132,60.896403 531.0625,53.71875 528.31202,44.861181 527.71082,35.72786 529.375,28 530.43984,23.05523 530.63392,20.665234 529.9375,20.90625 z"/>
</svg>
