<svg xmlns="http://www.w3.org/2000/svg"
     width="37.1" height="64.0"
     viewBox="3231.3125 17.0000 50.1926 86.5349">
  <path d="M 3236.9688 39.75 C 3237.3666 38.975542 3237.7921 38.240652 3238.625 37.46875 C 3242.6139 33.771941 3244.8046 33.465976 3247.6875 36.15625 C 3252.7112 40.844266 3255.8748 50.715939 3252.9375 52.53125 C 3252.3536 52.892136 3251.4247 54.366696 3250.875 55.8125 C 3249.9923 58.134078 3250.2397 58.758688 3253.0625 61.0625 L 3256.2812 63.65625 L 3253.9688 70.09375 C 3250.9076 78.66533 3250.6384 91.197854 3253.4062 95.28125 C 3256.2894 99.534872 3258.5806 98.435264 3258.2188 92.96875 C 3257.7528 85.930483 3261.4279 73 3263.9062 73 C 3265.6272 73 3270 85.976603 3270 91.09375 C 3270 95.762296 3270.1823 96.107386 3272.25 95.8125 C 3275.8938 95.292843 3277.495 90.624583 3277.5 80.5 C 3277.5051 70.35618 3275.9322 63.96468 3272.75 61 C 3270.8161 59.198331 3270.7403 58.621418 3271.8125 55.65625 C 3273.5987 50.716639 3273.4086 50.295876 3268.125 46.5 C 3263.1746 42.943458 3262.3765 41.355557 3260.4375 31.1875 C 3259.5638 26.605549 3253.79 21 3249.9375 21 C 3246.0477 21 3240.9986 23.176097 3238.5938 25.875 C 3237.0405 27.618303 3236.1821 28.075373 3235.3125 27.46875 L 3235.375 28.78125 L 3236.0625 33.5 C 3235.8594 33.066256 3237.2632 31.173857 3239.9375 28.5625 C 3243.2496 25.328363 3244.5428 24.71875 3248.125 24.71875 C 3253.8672 24.71875 3256.2978 27.691135 3258.625 37.5625 C 3260.2869 44.611884 3260.793 45.513639 3264.6875 48.375 C 3267.0237 50.091506 3268.9493 51.95 3268.9688 52.5 C 3268.9881 53.05 3268.0788 54.991935 3266.9688 56.8125 C 3264.7582 60.438201 3265.0772 62 3268.0312 62 C 3269.2837 62 3270.7095 63.478654 3272.125 66.25 C 3274.8525 71.590036 3275.9351 86.832408 3273.9062 91.5 C 3272.6364 94.4218 3272.5735 94.317532 3271.9688 87.5 C 3271.1007 77.713791 3267.0516 68 3263.8438 68 C 3263.38 68 3261.6719 70.1375 3260.0312 72.75 C 3257.5559 76.691823 3257.0116 78.605926 3256.9375 84 C 3256.8884 87.575 3256.4959 91.4 3256.0625 92.5 C 3255.377 94.23937 3255.2026 94.073854 3254.5625 91.1875 C 3253.262 85.324294 3254.9738 74.010569 3258.0625 68.21875 L 3260.9062 62.90625 L 3257.9375 60.28125 C 3254.6906 57.388257 3254.2044 54.905146 3256.5 53 C 3258.7879 51.101181 3258.2946 46.936576 3255.0312 40.40625 C 3250.7381 31.815035 3243.8663 28.606866 3238.2188 32.5625 C 3236.8853 33.496504 3236.1844 33.760246 3236.0625 33.5 L 3236.9688 39.75 z "/>
</svg>
