<svg xmlns="http://www.w3.org/2000/svg"
     width="35.6" height="64.0"
     viewBox="4296.2812 14.5322 50.2859 90.3864">
  <path d="M 4300.2812 79.03125 L 4300.5938 85.28125 C 4301.4259 84.648523 4303.3454 84.965858 4306.4375 86.53125 C 4311.7254 89.208325 4316.5548 89.656362 4319.0938 87.71875 C 4319.9718 87.048741 4321.5467 84.925 4322.5938 83 C 4324.2978 79.867092 4324.5 77.245006 4324.5 58 C 4324.5 38.126091 4324.66 36.197471 4326.5938 32.5 C 4333.1467 19.970669 4338.6695 35.962995 4334.5312 55.5 C 4332.3095 65.989229 4332.5595 71.876014 4335.5 77.40625 C 4336.875 79.99227 4338 82.736562 4338 83.5 C 4338 85.896399 4336.133 86.157383 4334.3125 84.03125 C 4331.714 80.996373 4328.7166 81.472405 4326.5625 85.25 C 4325.5432 87.0375 4323.1173 90.1875 4321.1562 92.25 C 4316.9493 96.674914 4313.4974 97.107454 4309.3125 93.71875 C 4307.7578 92.45984 4305.2468 90.880081 4303.7188 90.21875 C 4302.4191 89.656211 4301.2815 88.691257 4300.7188 87.875 L 4300.9688 92.78125 L 4301.25 93.84375 C 4302.3711 93.197579 4304.2132 93.792762 4307 96 C 4313.2103 100.91859 4316.8168 100.59022 4323 94.5 C 4325.7423 91.798931 4328.2505 88.764403 4328.5625 87.78125 C 4329.3602 85.268102 4331.5044 85.5657 4333.8125 88.5 C 4336.5066 91.925006 4338.3236 91.639405 4340.3125 87.46875 C 4342.5671 82.740832 4342.4606 81.664096 4339.25 76.71875 C 4336.8568 73.032594 4336.5171 71.53554 4336.5625 65 C 4336.5911 60.875 4337.1906 55.767941 4337.9062 53.65625 C 4338.6219 51.544559 4339.159 46.152766 4339.0938 41.6875 C 4338.8348 23.960827 4330.447 18.532173 4323.8438 31.8125 C 4321.6278 36.269034 4321.4901 37.537183 4321.4688 57.5 C 4321.4545 70.812945 4321.0559 79.420322 4320.3438 81.03125 C 4317.6822 87.051808 4313.7729 87.309119 4305.0938 81.96875 L 4300.2812 79.03125 z "/>
</svg>
