<svg xmlns="http://www.w3.org/2000/svg"
     width="33.3" height="64.0"
     viewBox="3702.8125 17.5180 44.3938 85.2632">
  <path d="M 3706.8125 84.0625 L 3708.4062 98.4375 L 3708.4688 98.78125 C 3709.7364 98.376368 3711.1877 98.042323 3712.625 98.03125 C 3721.0462 97.966369 3727.7438 92.917904 3731.9375 83.4375 C 3733.7614 79.314127 3734.2713 78.854696 3736.4688 79.40625 C 3738.4034 79.89179 3739.3007 79.473369 3740.5938 77.5 C 3743.2063 73.512578 3742.6474 70.61588 3738.5312 66.84375 C 3733.2285 61.984108 3731.9721 55.873138 3733.6562 43.09375 C 3735.0044 32.864936 3734.6707 27.895099 3732.3438 24.1875 C 3730.6683 21.518024 3727.937 21.928104 3724.1562 25.375 C 3721.0922 28.168465 3720.1562 30.026671 3718.4375 36.625 C 3716.4665 44.192492 3716.6086 47.829307 3719.5625 62.78125 C 3722.678 78.550993 3722.1327 82.746622 3716.5938 85.375 C 3712.5821 87.278637 3711.8508 87.333361 3708.7188 85.90625 C 3708.0726 85.611843 3707.4324 84.891336 3706.8125 84.0625 z M 3728.1875 26.15625 C 3729.7186 25.768393 3730.2123 27.000285 3731.125 31.0625 C 3731.8149 34.132933 3731.6543 37.558614 3730.5 43.71875 C 3728.1122 56.461602 3730.4176 66.732535 3736.4062 69.9375 C 3739.0318 71.342628 3739.8773 74.351757 3737.9688 75.53125 C 3737.3947 75.886059 3736.2627 75.627631 3735.4688 74.96875 C 3733.1175 73.017296 3731.6013 74.406952 3729.5625 80.40625 C 3727.2834 87.112356 3722.8063 92.388388 3718.0938 93.90625 C 3714.2817 95.134041 3709.6652 95.352738 3708.6562 94.34375 C 3708.2895 93.977084 3708 92.561708 3708 91.21875 C 3708 89.166843 3708.3705 88.887594 3710.3125 89.375 C 3713.6925 90.223309 3719.3076 88.363904 3721.9688 85.53125 C 3725.043 82.25877 3725.6025 75.477923 3723.5312 66.5 C 3720.0625 51.465315 3719.6325 44.177909 3721.7188 36 C 3723.2491 30.00134 3724.1437 28.213486 3726.25 27.03125 C 3727.0443 26.585434 3727.6771 26.285536 3728.1875 26.15625 z "/>
</svg>
