<svg xmlns="http://www.w3.org/2000/svg"
     width="32.9" height="64.0"
     viewBox="5752.7336 20.0000 45.1166 87.6513">
  <path d="M 5769.5938 24 C 5767.8875 24 5757.3843 36.814983 5757.8125 38.375 C 5757.9824 38.994008 5759.0351 41.434399 5760.1562 43.78125 C 5763.2171 50.188162 5763.4229 54.581508 5761.125 65.1875 C 5756.7336 85.456514 5757.5343 96.250578 5763.8125 100.9375 C 5767.4477 103.65131 5770.6385 103.48891 5773.4375 100.46875 C 5774.7438 99.059186 5775.8474 98.594474 5777.4375 98.46875 L 5777.4062 98.09375 L 5777.5312 93.09375 C 5777.4277 92.596893 5777.2464 92.333831 5777.1875 91.625 C 5776.9996 89.361618 5777.0188 88.505853 5777.6562 88.28125 L 5777.7812 83.59375 L 5777.8438 83.375 C 5777.1588 81.873533 5776.6385 79.30542 5775.9688 74.28125 C 5773.6051 56.549415 5774.6454 41 5778.2188 41 C 5778.8116 41 5780.791 42.125 5782.5938 43.5 C 5789.1188 48.47697 5793.8502 45.693446 5792.5625 37.625 C 5791.7861 32.760686 5789.5456 29 5787.4375 29 C 5786.6084 29 5784.5651 30.575 5782.875 32.5 C 5781.1848 34.425 5779.1664 36 5778.4062 36 C 5777.6462 36 5775.6658 33.3 5774 30 C 5772.3342 26.7 5770.3564 24 5769.5938 24 z M 5769 28 C 5769.3642 28 5770.8663 30.392268 5772.3438 33.3125 C 5774.9927 38.548141 5775.0359 38.683794 5773.4062 43.0625 C 5771.3216 48.663839 5771.1051 61.220866 5772.9062 74.28125 C 5774.5016 85.850293 5773.9276 95.310991 5771.4375 98.0625 C 5769.4082 100.30487 5768.0069 100.48527 5765.8125 98.75 C 5761.0739 95.002963 5760.4681 77.642374 5764.6562 65 C 5766.9413 58.102272 5766.5306 48.705202 5763.6875 43 C 5761.4994 38.608985 5761.4348 38.017388 5762.7812 35.375 C 5764.3795 32.238596 5767.9471 28 5769 28 z M 5786.6875 33.1875 C 5788.1927 33.025748 5789 35.17662 5789 39.59375 C 5789 43.604992 5787.4986 43.953186 5783.625 40.90625 L 5780.9688 38.84375 L 5783.25 35.96875 C 5784.6494 34.194766 5785.7844 33.284551 5786.6875 33.1875 z "/>
</svg>
