<svg xmlns="http://www.w3.org/2000/svg"
     width="40.6" height="64.0"
     viewBox="1906.5625 14.0000 56.3437 88.7271">
  <path d="M 1958.9062 33.59375 C 1956.3656 31.443682 1954.2423 32.337746 1950.3438 36.40625 C 1947.9164 38.939494 1945.2917 41 1944.5 41 C 1941.5287 41 1939.9515 35.556537 1940.4688 26.96875 C 1940.8401 20.804052 1940.6559 18.939305 1939.7188 19.25 C 1937.7918 19.888817 1936.638 32.466055 1938 37.875 C 1938.635 40.396882 1939.6109 43.055186 1940.1875 43.75 C 1942.0975 46.051336 1945.6446 45.042594 1950.3438 40.90625 C 1952.8961 38.659508 1955 37.350661 1955 38 C 1955 40.136212 1950.8465 45.071844 1947 47.5 C 1944.246 49.238548 1942.792 51.135605 1941.6562 54.46875 C 1940.1033 59.026099 1934.748 66.4735 1930 70.65625 C 1927.5112 72.84873 1927.5226 72.866493 1929.3438 75.96875 C 1933.316 82.735828 1933.9941 84.664959 1934 89.1875 C 1934.0062 93.868971 1933.9903 93.882376 1931.25 92.96875 C 1929.7375 92.464483 1927.6215 92.160873 1926.5625 92.28125 C 1925.0473 92.453485 1924.3541 91.434686 1923.2188 87.5 C 1922.4253 84.75 1920.9718 80.925 1920 79 C 1916.4626 71.993151 1916.5096 71.472508 1921.5312 66.84375 C 1926.1856 62.553538 1932 52.722089 1932 49.125 C 1932 48.06816 1931.325 46.941582 1930.5 46.625 C 1929.675 46.308417 1929.002 45.261011 1929 44.28125 C 1928.9979 43.301488 1928.0979 41.019544 1927 39.21875 C 1924.8306 35.660726 1924.1121 23.666785 1926 22.5 C 1927.5252 21.557372 1927.1761 18 1925.5625 18 C 1923.3614 18 1921.7257 24.542153 1922.2188 31.34375 C 1922.5246 35.561618 1923.6849 39.601276 1925.9062 44.15625 L 1929.1562 50.78125 L 1927.0625 54.90625 C 1925.9101 57.165265 1924.7731 59 1924.5312 59 C 1924.2895 59 1921.9786 56.75 1919.4062 54 C 1912.6643 46.792383 1911 47.422268 1911 57.1875 C 1911 59.063736 1910.8467 60.20552 1910.5625 61.1875 L 1912.7188 62.03125 L 1916.9688 69.09375 L 1914.125 75.8125 L 1911.6562 83.9375 L 1911.125 97.78125 C 1912.7189 97.437255 1913.6175 96.474011 1913.8125 94.78125 C 1914.126 92.060144 1919.3876 87.202862 1920.3438 88.75 C 1920.6074 89.176645 1921.1439 91.216864 1921.5312 93.28125 C 1922.4019 97.922139 1923.5638 98.7271 1926.0938 96.4375 C 1927.9509 94.756806 1928.2269 94.75456 1931.625 96.375 C 1934.4243 97.709902 1935.5108 97.799733 1936.625 96.875 C 1938.7533 95.108683 1937.3989 84.705029 1934.1875 78.15625 C 1931.8874 73.466043 1931.7834 72.705787 1933.1562 71.9375 C 1935.6597 70.536493 1942.8772 60.634281 1944.125 56.90625 C 1944.7535 55.028244 1947.8677 50.935494 1951.0312 47.8125 L 1956.7812 42.15625 L 1956.9062 42.875 L 1958.9062 33.59375 z M 1932.8125 19.21875 C 1931.1284 19.780099 1929.1517 25.786478 1929.0625 30.625 C 1928.9847 34.840543 1931.1348 42.258198 1933.125 44.65625 C 1934.6168 46.453672 1937 46.360604 1937 44.5 C 1937 43.675 1936.6002 43 1936.125 43 C 1933.233 43 1930.3472 23.139509 1933 21.5 C 1934.4025 20.633177 1934.246 18.740903 1932.8125 19.21875 z M 1914.9062 54 C 1916.023 54 1922 61.397268 1922 62.78125 C 1922 63.326348 1920.9875 64.43932 1919.75 65.25 C 1917.619 66.646029 1917.4075 66.53278 1915.75 63.3125 C 1913.8929 59.704397 1913.3721 54 1914.9062 54 z M 1915.1875 77 C 1916.1805 77 1919 82.456277 1919 84.375 C 1919 85.187394 1917.8242 86.797581 1916.375 87.9375 C 1913.0777 90.531177 1912 90.528012 1912 88 C 1912 84.98673 1914.3171 77 1915.1875 77 z "/>
</svg>
