<svg xmlns="http://www.w3.org/2000/svg"
     width="41.3" height="64.0"
     viewBox="3451.5715 14.6891 55.7907 86.4983">
  <path d="M3461.8084 93.812699C3455.8368 88.681669 3455.5715 73.019959 3461.2465 60.648723C3464.1853 54.242529 3464.2732 53.732383 3462.5998 52.795912C3459.9095 51.29033 3457.0364 44.080635 3457.1021 39.0C3457.2295 29.150508 3463.5106 18.689114 3467.3725 21.894222C3468.5149 22.842283 3468.7162 24.712789 3468.2869 30.389043C3467.838 36.325689 3468.0647 38.169183 3469.5167 40.385162C3472.3687 44.73782 3480.092 48.390558 3483.1781 46.846308C3485.2787 45.795165 3488.0 36.664593 3488.0 30.667521C3488.0 27.804065 3488.6032 25.53969 3489.6429 24.5C3491.1519 22.991005 3491.4167 22.988095 3492.8929 24.464286C3495.3722 26.943588 3495.1855 46.212921 3492.6358 51.0C3488.2578 59.219947 3483.4754 61.652026 3476.7316 59.088064C3475.4124 58.586499 3473.8258 58.489637 3473.2058 58.872815C3471.8278 59.72446 3468.0307 71.536887 3468.0129 75.027494C3467.9908 79.358011 3470.6205 82.0 3474.9531 82.0C3478.0965 82.0 3479.3556 81.359012 3481.8964 78.465204C3483.6034 76.521066 3485.0 74.439836 3485.0 73.840249C3485.0 71.690566 3490.2415 61.121312 3491.5581 60.616077C3492.2974 60.332385 3493.8693 60.883295 3495.0511 61.840321C3497.5206 63.839961 3497.8485 68.135056 3496.0436 74.838128C3494.9151 79.02898 3494.9731 79.227801 3498.4436 83.069238C3500.3996 85.234326 3502.0 87.642661 3502.0 88.421093C3502.0 89.199526 3502.2509 90.490207 3502.5575 91.289274C3503.3622 93.386163 3500.317 96.0 3497.0694 96.0C3495.229 96.0 3492.6964 94.604661 3489.6173 91.894373L3484.9531 87.788745L3479.6854 91.416753C3472.6525 96.260469 3465.736 97.187448 3461.8084 93.812699Z M3474.5 91.132659C3476.7 90.12978 3479.915 88.114663 3481.6444 86.654621C3483.3738 85.19458 3485.2874 84.0 3485.897 84.0C3486.5065 84.0 3488.6314 85.8 3490.619 88.0C3493.2155 90.874109 3495.0297 92.0 3497.0643 92.0C3499.7996 92.0 3499.859 91.893963 3498.81 88.884878C3498.1929 87.114612 3496.2726 84.913376 3494.362 83.786102C3490.4907 81.501936 3490.5182 81.617034 3492.5 76.0C3494.3731 70.690962 3494.5225 63.66371 3492.75 64.239118C3492.0625 64.462299 3490.4534 67.595142 3489.1742 71.20099C3487.8951 74.806838 3485.6451 79.188592 3484.1742 80.938221C3479.0857 86.991361 3469.1501 86.885962 3465.863 80.743971C3464.3859 77.984005 3464.2957 70.566446 3465.7179 68.803284C3466.296 68.086478 3467.1019 65.94598 3467.5087 64.046621C3468.3516 60.110675 3472.0052 54.013348 3473.5 54.047814C3474.05 54.060495 3475.625 54.713979 3477.0 55.5C3485.3077 60.249137 3492.5968 51.485364 3491.8007 37.704876L3491.5 32.5L3489.6656 39.655015C3487.3855 48.54799 3484.6899 51.517944 3479.8318 50.489556C3475.4307 49.557897 3470.6872 46.605405 3467.4933 42.809716C3465.1951 40.078379 3464.9249 38.952817 3465.1031 32.850515C3465.2136 29.066601 3465.0405 25.70721 3464.7185 25.3852C3463.4179 24.084576 3462.0739 26.326936 3460.9716 31.636707C3459.3159 39.612403 3460.3744 44.909163 3464.614 49.862105L3468.1448 53.987096L3464.6799 60.91294C3460.5366 69.194914 3459.2434 77.677825 3461.0048 85.02018C3462.8822 92.845821 3466.8246 94.631508 3474.5 91.132659Z"/>
</svg>
