<svg xmlns="http://www.w3.org/2000/svg"
     width="38.2" height="64.0"
     viewBox="6185.6250 21.0476 54.0310 90.5176">
  <path d="M 6196.9375 86.46875 L 6196.0312 86.78125 L 6192.9062 92.15625 L 6195.0938 89.03125 L 6199.0938 91.5625 C 6201.2805 92.942877 6204.4046 94.32466 6206.0625 94.65625 C 6208.6877 95.181288 6209.6359 94.685046 6213.4062 90.75 C 6217.0203 86.978137 6217.9254 85.223785 6218.8125 80.1875 C 6220.0043 73.421519 6219.1442 65.113148 6216.5 58 C 6214.1292 51.622428 6214.0288 36.126707 6216.3438 32.59375 C 6218.6769 29.032967 6220.8378 29.341003 6222.5625 33.46875 C 6223.6286 36.020104 6224 41.273155 6224 53.375 C 6224 71.050364 6225.1085 76.142416 6229.875 80.40625 C 6232.2673 82.546224 6232.3459 82.889814 6231.0312 84.96875 C 6230.2441 86.213281 6229.7063 86.078444 6227.5938 84.09375 C 6226.2177 82.80108 6224.528 81.970163 6223.8125 82.25 C 6223.097 82.529836 6221.6542 85.154833 6220.625 88.09375 C 6218.2414 94.900186 6214.4345 99.933982 6210.3125 101.65625 C 6204.2747 104.179 6200.5954 103.21836 6193.0938 97.1875 L 6190.9688 95.46875 L 6189.6562 97.71875 L 6189.625 98.3125 L 6190.0938 97.9375 L 6194.2812 101.375 C 6196.5931 103.25687 6199.4 105.01106 6200.5 105.28125 C 6209.798 107.56518 6218.8796 101.52519 6222.5938 90.625 C 6223.4627 88.07442 6224.4116 86 6224.6875 86 C 6224.9634 86 6226.5465 86.7875 6228.1875 87.75 C 6231.1114 89.464943 6231.2115 89.438492 6233.0938 87.125 C 6235.656 83.975579 6235.4988 82.397842 6232.3438 78.65625 C 6227.3988 72.792159 6226.8171 69.983392 6226.9375 52.375 C 6227.0544 35.287986 6226.1443 30.331856 6222.25 27.375 C 6219.1847 25.047617 6217.1896 25.848017 6214.5 30.4375 C 6212.2215 34.325408 6211.8938 35.965466 6211.9062 43.84375 C 6211.916 49.969053 6212.5347 54.673376 6213.8438 58.65625 C 6216.4843 66.690094 6217.0484 72.389722 6215.8438 78.90625 C 6213.8094 89.91134 6210.1425 93.35722 6203 91 C 6199.1305 89.722952 6197.4427 88.609845 6196.9375 86.46875 z "/>
</svg>
