<svg xmlns="http://www.w3.org/2000/svg"
     width="36.7" height="64.0"
     viewBox="6110.6296 20.4659 51.3704 89.5341">
  <path d="M 6127.3284,100.25 C 6125.2156,95.202266 6126.2193,83.283611 6129.5298,74.105866 L 6132.0118,67.225439 6129.0059,61.511174 C 6126.1815,56.14193 6126,55.117691 6126,44.547678 6126,33.527778 6127.1927,27 6129.2062,27 6129.8247,27 6129.9244,28.066938 6129.4631,29.75 6128.3477,33.820024 6128.1739,43.51849 6129.1212,48.835864 6129.5782,51.401139 6130.2058,54.949253 6130.5159,56.720563 6130.8259,58.491873 6132.2582,61.341793 6133.6987,63.05372 L 6136.3177,66.166313 6134.1725,70.581917 C 6130.9483,77.218249 6128.8688,88.500403 6129.6217,95.272377 6129.9746,98.447184 6130.6541,101.28624 6131.1317,101.58139 6132.553,102.4598 6132.1182,104 6130.449,104 6129.5959,104 6128.1916,102.3125 6127.3284,100.25 z M 6137.8713,100.75 C 6135.6802,95.557209 6136.0359,76.751017 6138.4482,70.248194 6139.9618,66.167854 6140.1291,64.729119 6139.1982,63.798194 6138.5392,63.139187 6138,61.535416 6138,60.234259 6138,58.933101 6137.5056,56.944792 6136.9014,55.815794 6135.4019,53.013882 6135.422,30.948436 6136.9267,28.136939 6138.8914,24.465933 6139.6875,26.559899 6138.8515,33.199282 6137.6667,42.608512 6139.4149,57.24747 6142.0967,60.372818 6142.5086,60.852868 6144.3429,59.842451 6146.1728,58.127446 6148.0028,56.412441 6149.725,55.014063 6150,55.01994 6152.2596,55.06823 6158,63.097289 6158,66.209532 6158,72.546359 6150.4396,76.353178 6146.5,72 6142.6533,67.749467 6140.6066,70.278412 6139.494,80.656742 6138.9227,85.985351 6139.9212,96.11242 6141.5737,101.75 6142.6377,105.37987 6139.4631,104.52241 6137.8713,100.75 z M 6154.0091,69.489053 C 6155.0177,68.273773 6154.9927,67.267751 6153.8814,64.34797 6151.9845,59.363892 6149.7077,58.049548 6147.0841,60.423922 6143.587,63.58876 6143.4573,65.985434 6146.6424,68.590687 6149.9794,71.320244 6152.2587,71.598193 6154.0091,69.489053 z M 6118.0526,102.25 C 6116.042,95.010136 6116.7676,84.839448 6119.9655,75.437378 L 6122.9309,66.718664 6119.5762,60.994774 C 6115.3812,53.837078 6114.6296,49.450509 6115.5332,37.398452 6116.0446,30.577762 6116.6558,27.685575 6117.668,27.297162 6119.9159,26.434573 6120.1167,27.357388 6118.9079,32.994028 6116.8305,42.68032 6119.6429,56.991216 6125.2243,65.135255 6126.0875,66.394715 6125.8785,67.88847 6124.3152,71.635255 6120.664,80.385882 6119.7149,85.601905 6120.2922,93.745633 6120.5945,98.010535 6121.1549,102.5125 6121.5376,103.75 6122.0549,105.42318 6121.8309,106 6120.6636,106 6119.7017,106 6118.6908,104.54827 6118.0526,102.25 z"/>
</svg>
