<svg xmlns="http://www.w3.org/2000/svg"
     width="29.8" height="64.0"
     viewBox="590.9698 16.5286 42.0302 90.2576">
  <path d="M 622.03125 42.71875 L 621.1875 39.03125 L 621.0625 39.125 L 620.40625 36.5 C 620.22027 35.758974 620.29831 35.553692 620.25 35.03125 L 619.0625 29.84375 L 619.0625 29.53125 C 618.04424 29.148036 617.08307 28.252448 616 26.5 C 612.99796 21.64259 610.65022 20.528571 607.59375 22.53125 C 606.25933 23.405597 604.86204 24.882996 604.5 25.8125 C 603.92057 27.300098 603.62333 27.198967 601.90625 25.09375 C 599.37511 21.990448 598.29741 23.153843 599.8125 27.34375 C 601.26847 31.370155 601.28614 32.455772 599.9375 37.3125 C 599.06548 40.452799 598.60747 40.939743 597.4375 39.96875 C 596.31375 39.036121 595.88198 39.116321 595.375 40.4375 C 594.96976 41.493518 595.66987 43.113659 597.25 44.8125 C 598.63967 46.306572 600.00998 49.278581 600.34375 51.5 C 600.6743 53.7 601.25405 57.024625 601.625 58.875 C 602.26128 62.048871 602.183 62.176239 600.21875 61.125 C 597.48784 59.663465 597 59.701288 597 61.46875 C 597 62.279626 598.4625 63.709133 600.25 64.625 C 604.56802 66.837439 605.14673 67.855971 604.4375 72 C 603.66931 76.488491 602.52963 77.658514 600.53125 76 C 598.25042 74.10708 597.37545 75.658963 599.4375 77.9375 C 600.71863 79.353134 600.99658 80.707834 600.5 82.96875 C 599.97224 85.371597 600.54139 87.454643 603.03125 92.28125 C 604.79613 95.702484 606.70026 99.0625 607.25 99.75 C 609.67774 102.78613 615 99.868662 615 95.5 C 615 94.200091 614.52999 91.860804 613.9375 90.3125 C 612.80393 87.350196 614.39288 76.47676 616.125 75.40625 C 617.28964 74.68646 621.80462 78.10395 622.53125 80.25 C 623.98044 84.530111 629 80.023687 629 74.4375 C 629 72.115658 627.8437 70.04875 624.46875 66.40625 L 619.90625 61.5 L 620.5625 52.125 C 620.93881 46.656832 621.249 44.31451 622.03125 42.71875 z M 609.625 25.0625 C 610.93486 25.004224 612.31766 25.957887 613.78125 27.9375 C 617.18685 32.54382 618.23572 39.182237 617.46875 51.65625 L 616.78125 62.8125 L 621.375 67.25 C 624.55477 70.296749 626 72.480946 626 74.28125 C 626 77.901959 624.50623 78.445134 622.3125 75.65625 C 619.99147 72.705542 616.03054 70.545199 615 71.65625 C 614.57014 72.119703 613.21086 75.548616 611.96875 79.28125 C 610.0319 85.10164 609.85978 86.622035 610.84375 89.90625 C 611.47478 92.012427 612 94.70131 612 95.875 C 612 99.934812 609.20555 97.988472 605.90625 91.625 L 602.59375 85.21875 L 605.40625 78.21875 C 607.99113 71.79778 608.1133 70.816506 607.09375 66.0625 C 606.48354 63.21716 605.26488 59.502083 604.375 57.78125 C 603.22996 55.566995 602.93964 53.22451 603.34375 49.8125 C 603.67395 47.024436 603.48854 45 602.9375 45 C 601.46989 45 601.80517 39.815572 603.65625 33.875 C 605.45893 28.089767 607.44189 25.159627 609.625 25.0625 z "/>
</svg>
