<svg xmlns="http://www.w3.org/2000/svg"
     width="25.9" height="64.0"
     viewBox="189.7792 15.1487 34.5230 85.2508">
  <path d="M 219.53125 86.59375 C 219.48324 86.565281 219.21207 86.524571 219.1875 86.5 C 218.44409 85.756584 218.65927 43.594824 219.46875 31.71875 C 220.30218 19.491205 220.01543 19.148721 213.5625 24.03125 C 208.43857 27.908213 206.36736 27.790712 201.78125 23.3125 C 198.82107 20.421957 197.72367 19.870086 196.78125 20.8125 C 195.83884 21.754914 195.86495 23.263904 196.875 27.75 C 199.63763 40.020023 200.05136 42.776807 200.375 51 C 200.80865 62.018657 199.51825 74.508414 197 83.6875 C 193.77919 95.427443 194.48472 96.399545 201.90625 90.5 C 207.13697 86.34198 209.0219 86.144999 212.15625 89.53125 C 213.90937 91.425258 216.17885 92.995668 218.65625 94.1875 L 219.53125 86.59375 z M 217.25 24.6875 L 216.5 35.59375 C 216.08506 41.59478 215.77427 55.854817 215.8125 67.28125 C 215.88589 89.217943 215.97433 88.912019 211.40625 84.8125 C 209.73732 83.314759 208.81504 83.131506 206.90625 83.9375 C 205.58578 84.495071 203.0375 86.137903 201.25 87.59375 C 197.56877 90.59196 197.42382 90.299861 199.4375 83.4375 C 203.28962 70.309983 203.83701 41.448825 200.40625 31.34375 C 198.55799 25.899812 199.17713 24.876432 202.46875 27.96875 C 205.3681 30.692546 209.35909 30.304136 214.21875 26.84375 L 217.25 24.6875 z "/>
</svg>
