<svg xmlns="http://www.w3.org/2000/svg"
     width="38.4" height="64.0"
     viewBox="3160.6986 14.0000 52.3404 87.1939">
  <path d="M 3207.5 85.375 C 3206.976 85.125619 3206.4463 84.926188 3205.9062 84.4375 C 3203.5581 82.312472 3203.5152 80.114585 3205.6562 75.625 C 3209.039 68.531102 3204.1427 66.572396 3198.4688 72.75 C 3196.5744 74.8125 3195.0026 77.0294 3195 77.6875 C 3194.993 79.443572 3184.3618 86.209631 3182.2812 85.78125 C 3179.9402 85.299187 3180.2847 78.380171 3182.9688 72.3125 C 3185.0613 67.581637 3185.0046 67.598801 3190 69.4375 C 3193.0411 70.556869 3193.9618 70.494658 3197.0625 68.9375 C 3200.4932 67.214623 3200.7099 66.755268 3202.8125 57.3125 C 3205.3363 45.978235 3205.4825 40.834695 3203.5 32.53125 C 3201.7772 25.31596 3199.1577 21.5 3195.9062 21.5 C 3193.546 21.5 3193.4952 21.659726 3192.9688 33.5 C 3192.5412 43.117976 3191.9868 46.444832 3190.1875 50.21875 C 3188.9528 52.808469 3187.4814 55.207097 3186.9062 55.5625 C 3185.3455 56.527123 3181.3789 52.350243 3178.9375 47.15625 C 3177.0409 43.121512 3176.8427 41.35993 3177.2812 32.53125 C 3177.5553 27.011215 3178.1019 21.4875 3178.5 20.25 C 3179.146 18.241608 3178.8888 18 3176.0938 18 C 3173.6381 18 3172.5381 18.701317 3170.9688 21.25 C 3168.1804 25.778514 3165.9496 33.406655 3165.3125 40.53125 C 3164.6986 47.39737 3167.2814 55.011254 3171.5938 59.0625 C 3174.6774 61.95946 3174.6252 62.910504 3171 72.84375 C 3169.142 77.934687 3168 82.985046 3168 86.125 C 3168 90.549893 3168.3977 91.583477 3171.2188 94.21875 C 3174.2691 97.068217 3174.8304 97.193923 3180.75 96.71875 C 3185.4609 96.340604 3187.863 95.588669 3190.4375 93.625 C 3194.662 90.402796 3195.4846 90.37428 3199.125 93.4375 C 3200.7195 94.779192 3203.9751 96.171356 3206.375 96.53125 C 3206.3974 96.534602 3206.4152 96.527984 3206.4375 96.53125 L 3206.625 94.75 C 3205.6563 94.585045 3204.6075 93.721099 3202 91.75 C 3199.6355 89.9625 3197.1184 88.059054 3196.4062 87.53125 C 3195.4976 86.857821 3193.7362 87.591005 3190.4688 89.9375 C 3184.8031 94.006338 3178.3153 95.073202 3174.5312 92.59375 C 3170.7564 90.120384 3170.9476 81.366715 3175 71.84375 C 3176.65 67.966307 3178 63.879106 3178 62.75 C 3178 61.620895 3176.0966 58.219992 3173.7812 55.21875 C 3170.05 50.382366 3169.545 49.050991 3169.1875 43.4375 C 3168.7871 37.149747 3172.0116 23 3173.8438 23 C 3174.269 23 3174.2058 26.561392 3173.7188 30.90625 C 3172.6685 40.275214 3174.5199 49.387305 3178.5625 54.6875 C 3184.0551 61.888662 3188.1302 61.298453 3192.3125 52.75 C 3195.5381 46.157212 3196.0804 43.656611 3196.3125 34 C 3196.4139 29.780906 3196.9233 26.574683 3197.4688 26.6875 C 3198.9334 26.990439 3200.9209 36.700085 3200.9688 43.8125 C 3201.024 52.034549 3198.4269 63.306699 3195.9688 65.53125 C 3194.1604 67.167885 3193.7494 67.195533 3189.7188 65.65625 C 3187.3548 64.753406 3184.8558 64 3184.1562 64 C 3182.3155 64 3178.1247 73.821256 3176.8438 81.09375 C 3175.8409 86.786963 3175.9064 87.444726 3177.625 88.71875 C 3178.7098 89.522869 3180.6497 89.900155 3182.2188 89.59375 C 3186.4541 88.766742 3198 81.088117 3198 79.09375 C 3198 78.138926 3199.125 76.291745 3200.5 75 C 3203.2238 72.441104 3203.8872 73.447732 3201.5312 76.5625 C 3198.8339 80.128829 3199.6033 84.457994 3203.4688 87.40625 C 3204.7177 88.358866 3205.9407 88.946863 3207.125 89.25 L 3207.5 85.375 z "/>
</svg>
