<svg xmlns="http://www.w3.org/2000/svg"
     width="35.6" height="64.0"
     viewBox="4911.7188 17.1459 50.4423 90.5664">
  <path d="M 4920.8125 90.9375 L 4915.7188 101.40625 C 4916.1823 101.59512 4916.4954 101.85735 4917 102.03125 C 4920.3868 103.19839 4923.8344 103.71229 4925.9688 103.375 C 4932.5413 102.3364 4939.2666 95.731957 4942.9375 86.6875 C 4944.2057 83.562794 4945.6438 81 4946.1562 81 C 4946.6687 81 4948.1519 82.224124 4949.4375 83.71875 C 4952.15 86.87213 4953.327 86.325693 4956.4375 80.5 C 4957.9906 77.591192 4958.1611 76.523312 4957.2188 75.1875 C 4950.1757 65.203996 4948.8651 58.817648 4951 45.09375 C 4952.556 35.091507 4951.675 26.85835 4948.6875 23.46875 C 4946.766 21.28869 4946.2365 21.14592 4944.1562 22.25 C 4942.8617 22.93704 4940.2007 26.08638 4938.25 29.25 C 4935.2616 34.096689 4934.6324 36.142838 4934.25 42.25 C 4933.9451 47.118815 4934.3521 51.596653 4935.4688 55.875 C 4938.1861 66.285908 4937.7979 72.935859 4934.125 80.25 C 4931.1937 86.087424 4925.3578 92 4922.5312 92 C 4922.2535 92 4921.5861 91.527018 4920.8125 90.9375 z M 4944.5938 25.375 C 4945.0884 25.184585 4945.5358 25.220446 4945.9375 25.46875 C 4948.3336 26.949627 4949.2191 34.243181 4947.9688 42.28125 C 4945.7458 56.571732 4947.5057 67.624624 4953.1562 74.875 C 4955.346 77.684661 4955.3643 77.946997 4953.5938 80.28125 C 4952.324 81.955197 4952.0076 81.882538 4948.9688 78.84375 L 4945.75 75.59375 L 4943.5625 78.3125 C 4942.3607 79.819752 4940.6012 83.215877 4939.6562 85.84375 C 4937.4766 91.904918 4932.5865 97.852254 4928.3438 99.625 C 4924.5822 101.19667 4924.3453 101.20359 4921.1875 99.9375 C 4917.8322 98.592279 4918.7988 95.814859 4923 94.75 C 4924.9242 94.26229 4928.382 92.023933 4930.6875 89.78125 C 4938.662 82.0242 4941.7373 69.379064 4938.5938 57.34375 C 4936.2087 48.21273 4936.5019 38.595459 4939.3438 32.5 C 4941.2388 28.435447 4943.1098 25.946244 4944.5938 25.375 z "/>
</svg>
