<svg xmlns="http://www.w3.org/2000/svg"
     width="54.5" height="64.0"
     viewBox="3745.0000 18.2979 71.7277 84.2024">
  <path d="M3763.0 96.248446C3756.168 92.835502 3753.7355 82.085426 3757.3623 71.333846C3758.3208 68.492462 3760.1401 65.117462 3761.4052 63.833846C3765.8617 59.312097 3767.2102 54.129776 3765.0033 50.00617C3764.1574 48.425563 3763.1932 48.22777 3758.6301 48.698726C3751.874 49.396023 3749.0 47.149619 3749.0 41.171445C3749.0 33.82089 3760.0274 22.297887 3766.2208 23.176627C3768.1523 23.450672 3768.4644 24.033901 3768.2663 27.0C3767.6063 36.887285 3771.8369 38.413724 3780.3267 31.351432C3783.7002 28.545166 3787.0 28.251036 3787.0 30.756602C3787.0 34.481727 3784.9133 39.497648 3782.1414 42.43516C3779.8598 44.853207 3779.1315 46.726898 3778.6904 51.313678L3778.1314 57.127355L3782.7615 60.063678C3785.308 61.678655 3788.1377 63.0 3789.0498 63.0C3792.8126 63.0 3798.221 55.669282 3799.5041 48.829966C3800.1942 45.151381 3799.1843 43.584346 3796.0861 43.526431C3793.5358 43.478757 3793.7987 41.088639 3796.4267 40.429035C3800.3329 39.448653 3801.7358 40.476856 3802.4769 44.863132C3803.2376 49.365568 3801.0351 55.46523 3796.5036 61.406439C3792.5706 66.562791 3789.4148 67.281539 3783.4297 64.384019C3774.0724 59.853886 3773.898 59.572555 3775.309 51.28624C3776.3073 45.424048 3777.1428 43.447851 3779.7687 40.738633C3781.5459 38.905017 3783.0 36.360299 3783.0 35.083704L3783.0 32.762622L3779.546 35.397109C3774.6205 39.153973 3771.0786 39.636287 3767.7342 37.005576C3765.4908 35.24092 3765.0 34.060071 3765.0 30.42742C3765.0 27.992339 3764.7156 26.0 3764.368 26.0C3764.0205 26.0 3762.2054 26.945989 3760.3346 28.102199C3753.0951 32.576511 3749.5671 42.182541 3754.0184 45.30035C3755.6016 46.409245 3756.9939 46.495108 3760.4749 45.698526C3765.8291 44.473329 3767.4657 45.484743 3769.1328 51.048795C3770.1298 54.37662 3769.9982 55.390796 3768.0961 59.040201C3766.8978 61.339127 3764.5736 64.892258 3762.9312 66.936048C3760.8139 69.570665 3759.6528 72.466084 3758.941 76.885819C3757.9942 82.764519 3758.0955 83.415252 3760.7185 88.309804C3764.1168 94.650995 3766.0791 95.135183 3773.9906 91.584696C3780.9294 88.470775 3784.1877 88.339566 3787.8235 91.027666C3792.485 94.474021 3797.378 94.677412 3802.0025 91.617056C3804.2011 90.162068 3806.0 88.580492 3806.0 88.102443C3806.0 87.008186 3810.0356 85.903974 3811.2628 86.662442C3812.3819 87.354047 3806.1442 92.705455 3800.7585 95.674223C3797.1207 97.679557 3796.4682 97.744286 3792.3588 96.507528C3789.9082 95.770024 3786.8158 94.454124 3785.4868 93.583306C3782.0718 91.345745 3780.0671 91.587929 3773.9098 94.981885C3767.5317 98.497506 3767.5077 98.500291 3763.0 96.248446Z M3789.5 89.076177C3788.4 88.614112 3786.6428 87.282946 3785.595 86.11803C3783.3951 83.672118 3780.5548 83.467884 3777.0 85.5C3771.6869 88.537218 3763.9841 86.279124 3764.0146 81.693296C3764.0311 79.206889 3766.347 72.16335 3768.5469 67.909372C3771.1566 62.862713 3773.1944 62.545422 3780.6962 66.01768C3791.458 70.998814 3798.2461 68.832601 3802.687 59.0C3805.3788 53.040163 3806.9272 44.849004 3806.9644 36.372445C3807.0106 25.83636 3806.0882 24.87603 3798.4245 27.481007C3792.0198 29.658023 3790.3902 28.952009 3795.1372 26.056796C3799.3296 23.499822 3804.8224 22.402377 3806.9132 23.70398C3812.7277 27.323678 3811.2709 49.892178 3804.3593 63.269716C3803.5722 64.793059 3801.0769 67.380559 3798.8141 69.019716C3793.502 72.867753 3788.0171 72.981251 3780.1984 69.404923C3773.2709 66.236222 3772.3049 66.686251 3769.1395 74.55677C3765.5593 83.458437 3768.7407 86.240308 3777.5976 81.952745L3782.1313 79.758013L3787.5708 83.504355L3793.0104 87.250698L3796.5067 84.875349C3798.4297 83.568907 3800.2578 81.712022 3800.5692 80.748939C3801.1331 79.005224 3804.7929 76.45956 3805.59 77.256649C3806.5287 78.195402 3802.7355 83.964361 3799.614 86.345233C3795.7021 89.32897 3792.2931 90.249457 3789.5 89.076177Z M3793.0 36.121828C3793.0 34.89592 3800.0046 31.671232 3800.844 32.510683C3801.7371 33.403744 3798.6785 35.824634 3795.75 36.542603C3794.0138 36.968262 3793.0 36.813139 3793.0 36.121828Z M3802.0 85.978561C3802.0 84.70214 3806.7796 82.44625 3807.6467 83.313393C3807.9978 83.664444 3807.7158 84.637543 3807.0201 85.475834C3805.5983 87.188963 3802.0 87.549309 3802.0 85.978561Z"/>
</svg>
