<svg xmlns="http://www.w3.org/2000/svg"
     width="51.6" height="64.0"
     viewBox="124.3742 16.9777 67.8466 84.0800">
  <path d="M129.97525 85.4349C128.37417 81.223741 128.80115 67.102542 130.68284 62.033433C134.50998 51.723439 141.01454 47.092042 148.18213 49.573526C151.60507 50.758575 151.82332 50.704596 152.23096 48.572124C153.12202 43.910876 151.55815 42.300183 145.39354 41.529966C134.6805 40.191459 132.66386 38.078574 135.08819 30.732769C137.14076 24.513434 141.2635 21.0 146.50883 21.0C150.20632 21.0 151.18632 21.452921 153.0 24.0C155.511 27.526378 157.19663 27.703813 162.5 25.0C167.14622 22.63122 167.0 22.653942 167.0 24.300734C167.0 25.661445 159.00499 30.0 156.4975 30.0C155.70055 30.0 153.61528 28.425 151.86357 26.5C146.83842 20.977728 141.99446 22.250663 138.49397 30.013379C135.58648 36.461041 137.99408 38.682039 148.12756 38.90032C150.67271 38.955144 153.21877 39.5625 153.78546 40.25C155.42154 42.234861 155.83877 51.844823 154.37362 53.79688C153.18254 55.383772 152.81568 55.342456 148.99781 53.191455C144.95535 50.913917 144.85061 50.907202 141.20016 52.691455C135.33602 55.557699 131.91925 63.209108 131.68473 74.0C131.58313 78.675 131.88628 83.7375 132.35841 85.25C133.48237 88.850724 131.33722 89.017158 129.97525 85.4349Z M148.66667 95.333333C146.82754 93.494202 148.19925 88.026657 151.62558 83.539327C155.18193 78.881714 155.22573 78.713996 153.91934 74.755611C152.18968 69.514677 147.0711 61.809632 145.63676 62.287747C145.02162 62.492792 143.61421 64.199431 142.50917 66.080278C140.91057 68.801178 140.5 71.288068 140.5 78.25C140.5 87.079366 139.67529 89.30681 138.2785 84.25C135.59724 74.54301 140.45842 59.0 146.1756 59.0C148.63058 59.0 153.80651 66.428476 156.68305 74.080259L158.95476 80.123144L154.97738 83.906736C152.66517 86.106286 151.0 88.622283 151.0 89.916366C151.0 91.951493 151.28886 91.836128 154.36808 88.571202C156.22052 86.607041 158.60724 85.0 159.67191 85.0C160.73658 85.0 163.13422 86.575 165.0 88.5C166.86578 90.425 168.75406 92.0 169.19617 92.0C169.63828 92.0 170.0 90.467576 170.0 88.594614C170.0 86.167358 168.99469 83.985953 166.5 81.0C163.84105 77.817448 163.0 75.892227 163.0 72.988292C163.0 68.166018 166.24267 60.47568 168.86857 59.070339C174.42138 56.098565 176.71126 58.709706 180.38011 72.196907C181.54605 76.483075 182.95 79.998109 183.5 80.008093C184.96518 80.034691 185.2847 70.558499 184.01862 64.62716C183.41669 61.807222 182.00111 57.5875 180.87289 55.25C178.55361 50.444789 176.96436 50.042831 170.0 52.5C164.5275 54.430811 161.36874 54.403307 160.60699 52.418213C160.27314 51.548229 160.0 48.251671 160.0 45.092527C160.0 38.97978 160.85981 37.633505 167.33676 33.604715C171.92566 30.750336 171.85831 32.854575 167.23346 36.83228C163.22664 40.278443 162.96997 40.813574 162.98452 45.690983C162.99303 48.546024 163.42155 51.142499 163.93678 51.460929C164.45201 51.779358 167.26451 51.131142 170.18678 50.02045C173.10905 48.909757 176.2475 48.000782 177.16111 48.000504C179.63571 47.999753 183.58327 53.242978 185.60734 59.218964C188.01508 66.327708 188.22072 83.206424 185.92754 85.50045C182.47695 88.952313 181.00045 86.284827 175.5488 66.75C174.66623 63.5875 173.58514 61.0 173.14638 61.0C172.08905 61.0 168.53645 64.943674 167.12496 67.684259C165.17932 71.461971 165.82695 75.33437 169.06044 79.257151C172.30598 83.194564 173.65984 88.234847 172.60298 92.445714C171.67931 96.125899 168.32442 95.722684 163.89693 91.399359C159.49414 87.10015 157.14092 87.384259 154.69656 92.510138C153.14217 95.769715 150.3911 97.057767 148.66667 95.333333Z"/>
</svg>
