<svg xmlns="http://www.w3.org/2000/svg"
     width="50.2" height="64.0"
     viewBox="2058.2812 40.9629 50.2175 64.0019">
  <path d="M 2066.375 83 L 2066.1562 83.21875 L 2062.2812 94.90625 L 2062.3125 95.28125 C 2062.7113 94.938266 2063.6413 95.281316 2065.9375 96.46875 C 2072.7813 100.00782 2077.1689 100.9648 2080.4062 99.59375 C 2082.0998 98.876581 2084.3584 97.300909 2085.4062 96.125 C 2087.9716 93.245849 2089.2427 93.443223 2091.3438 97 C 2093.3624 100.41734 2094.5572 100.69583 2097.1562 98.34375 C 2099.8528 95.903415 2099.5323 90.225512 2096.4062 85.625 L 2093.7812 81.8125 L 2096.9375 74.6875 C 2104.4987 57.568898 2100.206 44.962902 2090.625 56.15625 C 2086.2594 61.256433 2084.1129 67.394662 2083.0312 78.125 C 2081.9047 89.300439 2079.8027 90.913388 2071.25 87.03125 C 2068.8715 85.951639 2067.1809 84.47138 2066.375 83 z M 2095.5312 55 C 2097.1995 55 2098.4912 60.955742 2097.5938 64.53125 C 2097.2427 65.930009 2095.6032 69.993871 2093.9688 73.5625 C 2092.3342 77.131129 2091 80.562095 2091 81.1875 C 2091 81.812905 2092.1552 84.286165 2093.5625 86.6875 C 2095.3519 89.740862 2096.0284 92.178451 2095.8125 94.78125 L 2095.5 98.5 L 2093.5 94.5 C 2090.8629 89.225792 2088.4707 88.991926 2083.625 93.5625 C 2080.1173 96.871127 2079.3994 97.172313 2075.7812 96.59375 C 2070.9194 95.816308 2066.0848 93.41875 2065.3125 91.40625 C 2064.3702 88.950659 2065.6815 88.659576 2069.9688 90.375 C 2075.47 92.576172 2080.2737 92.45351 2082.4375 90.0625 C 2085.0595 87.165169 2086.8456 81.086456 2086.3438 76.71875 C 2085.5359 69.686621 2091.747 55 2095.5312 55 z "/>
</svg>
