<svg xmlns="http://www.w3.org/2000/svg"
     width="19.8" height="64.0"
     viewBox="2307.0742 13.3045 28.3244 91.6528">
  <path d="M2325.5694 97.475093C2322.0804 94.477118 2320.0717 94.369188 2316.7271 97.0C2311.6961 100.95738 2311.0742 99.477375 2313.5753 89.5C2315.9764 79.922151 2316.6217 45.742532 2314.6138 34.5C2313.7297 29.55 2313.005 24.085645 2313.0032 22.356989C2312.9988 17.999748 2315.4761 17.304548 2317.6846 21.043271C2319.7403 24.523242 2322.1036 24.774495 2326.0888 21.936765C2329.2149 19.710755 2331.3986 20.148743 2330.563 22.834157C2329.3494 26.73395 2327.8367 40.552814 2327.0702 54.741541C2326.234 70.22204 2326.9367 83.235296 2329.1245 92.782491C2330.641 99.400237 2329.5247 100.87377 2325.5694 97.475093Z M2322.3832 92.731071L2325.2663 92.726435L2324.3898 83.613218C2322.9586 68.732705 2323.9461 44.699041 2326.6488 28.634785C2327.2853 24.851736 2327.2505 24.795586 2325.0124 25.993371C2323.7422 26.673146 2321.2005 26.96967 2319.2948 26.660409C2316.0062 26.126743 2315.8861 26.215573 2316.3991 28.801824C2318.5663 39.726598 2318.9622 45.64763 2318.5878 61.537762C2318.2123 77.47247 2317.2932 86.284465 2315.3693 92.396405C2314.859 94.01727 2315.1157 94.179689 2317.1361 93.514258C2318.4363 93.086055 2320.7974 92.73362 2322.3832 92.731071Z"/>
</svg>
