<svg xmlns="http://www.w3.org/2000/svg"
     width="28.0" height="64.0"
     viewBox="2949.1872 18.1520 40.6908 92.8480">
  <path d="M 2981.625,96.75 2980.375,96.15625 C 2976.1515,94.104336 2975.8585,93.703907 2976.5312,91.21875 2978.1971,85.064639 2978.1695,72.854105 2976.5,67.75 2974.7606,62.432111 2974.2591,57.397083 2975.3438,56.3125 2975.6993,55.956953 2976.8033,56.430455 2977.8125,57.34375 2982.0387,61.168434 2982.1139,57.877019 2977.9062,53 L 2974.875,49.5 2972.9375,51.875 C 2970.6174,54.698813 2970.4662,58.948092 2972.4688,65.59375 2974.9198,73.7279 2975.3979,83.826759 2973.5625,88.90625 2972.0199,93.175136 2972.0395,93.405052 2974.125,95.625 2975.3124,96.888968 2978.5205,98.687131 2981.25,99.59375 2981.5071,99.679135 2981.5177,99.642763 2981.75,99.71875 L 2981.625,96.75 z M 2981.9062,104.0625 C 2978.2093,103.76202 2974.9089,102.66297 2973.9688,100.90625 2972.6275,98.40015 2968.4259,98.453931 2964.25,101 2958.5111,104.49905 2960.9629,106.65632 2966.8438,103.28125 2969.7646,101.60487 2969.9505,101.5927 2972.1875,103.65625 2973.4592,104.82929 2975.4,106.01514 2976.5,106.28125 2978.3317,106.72437 2980.1986,106.93509 2982.0312,107 L 2981.9062,104.0625 z M 2981.0312,22.53125 C 2980.4176,22.152036 2977.4812,24.397632 2974.375,27.65625 L 2968.8125,33.5 2966.6562,30.90625 C 2965.4668,29.482868 2963.5679,27.030998 2962.4375,25.46875 2961.1309,23.662917 2959.9191,22.915446 2959.125,23.40625 2957.6978,24.288284 2958.9696,26.628263 2964.8125,33.8125 L 2968.3125,38.09375 2973.4062,32.78125 C 2981.4241,24.388885 2982.2559,23.288096 2981.0312,22.53125 z M 2984.2812,30 C 2983.1708,30 2973,40.312545 2973,41.4375 2973,41.98547 2974.9043,44.360432 2977.2188,46.71875 2979.5333,49.077069 2981.7832,51 2982.2188,51 2983.731,51 2982.9861,48.767048 2980.5,45.8125 2979.125,44.178405 2978,42.277552 2978,41.59375 2978,40.909948 2979.575,38.53018 2981.5,36.28125 2984.8137,32.409892 2985.878,30 2984.2812,30 z M 2954.8438,29 C 2953.1872,29 2954.1193,31.561914 2957.0312,34.96875 2958.6589,36.872974 2960,38.756919 2960,39.15625 2960,39.55558 2958.65,41.349731 2957,43.15625 2955.35,44.962769 2954,47.016324 2954,47.71875 2954,49.973469 2955.9767,49.103945 2959.2812,45.375 2964.4814,39.507119 2964.4934,39.440116 2959.9062,34 2957.5907,31.253856 2955.3077,29 2954.8438,29 z M 2964.3125,46.03125 C 2962.9756,46.080174 2956.7722,52.084764 2957.4062,52.71875 2957.7314,53.043932 2959.144,52.80258 2960.5625,52.15625 2965.9393,49.706411 2966.332,53.563363 2961.9688,65.9375 2958.6447,75.364148 2958.3625,79.613767 2960.625,85.5 2963.4832,92.935906 2963.4479,93.435274 2959.5938,96.375 2957.6237,97.877644 2956,99.540491 2956,100.0625 2956,101.59297 2957.7838,101.15623 2961.4688,98.75 2966.3819,95.541713 2967.7009,92.743953 2965.7188,89.71875 2964.8592,88.406836 2963.6287,84.573501 2962.9688,81.21875 2961.8533,75.549414 2961.9345,74.607368 2964.3125,67.8125 2967.9818,57.328421 2968.4148,53.939757 2966.625,49.65625 2965.7835,47.642339 2964.7531,46.015128 2964.3125,46.03125 z"/>
</svg>
