<svg xmlns="http://www.w3.org/2000/svg"
     width="35.9" height="64.0"
     viewBox="4271.8125 21.0000 47.8109 85.2323">
  <path d="M 4300.2812 79 L 4300 78.84375 L 4300 58.8125 C 4300 40.118681 4300.116 38.845194 4301.75 39.5625 C 4309.0884 42.784002 4315.6234 33.623381 4310 28 C 4307.3953 25.395349 4307.2407 25.42681 4302.1562 29.46875 L 4297.8438 32.90625 L 4294.0625 28.96875 C 4291.9935 26.793749 4289.4378 25 4288.375 25 C 4287.2643 25 4284.1628 27.575917 4281.0938 31.0625 C 4276.0765 36.762487 4275.8125 37.380344 4276.4062 41.09375 C 4276.7539 43.267339 4277.0283 57.115481 4277.0312 71.875 C 4277.0343 86.634519 4277.332 98.988263 4277.6875 99.34375 C 4280.2068 101.86305 4281.3422 97.531168 4280.625 88.03125 C 4280.3253 84.062433 4280.0274 70.921489 4279.9688 58.84375 L 4279.8438 36.875 L 4283.1875 32.4375 C 4287.1774 27.108475 4289.1275 27.080029 4293.25 32.1875 L 4296.2188 35.84375 L 4296.75 67.9375 C 4297.1856 93.948146 4297.5607 100 4298.6562 100 C 4299.494 100 4300 98.848145 4300 96.96875 C 4300 95.201609 4300.4859 94.284144 4301.25 93.84375 L 4300.9688 92.78125 L 4300.7188 87.875 C 4300.6199 87.731651 4300.3934 87.566974 4300.3438 87.4375 C 4299.9018 86.285751 4300.0944 85.660886 4300.5938 85.28125 L 4300.2812 79.03125 L 4300.2812 79 z M 4306.6562 30.46875 C 4308.4601 30.161702 4309.2966 31.63746 4308.5938 34.4375 C 4308.1328 36.274487 4307.3084 37 4305.6562 37 C 4301.2524 37 4300.6572 33.933857 4304.5625 31.375 C 4305.3507 30.858523 4306.055 30.571099 4306.6562 30.46875 z M 4288.125 34.875 C 4287.9205 34.861153 4287.6887 34.998836 4287.4375 35.25 C 4286.7709 35.916604 4286.8619 98.979409 4287.5312 100.0625 C 4288.8723 102.2323 4290.6124 100.59555 4290.0938 97.65625 C 4290.0124 97.194933 4289.9234 83.15187 4289.9062 66.4375 C 4289.8814 42.252216 4289.5562 34.97193 4288.125 34.875 z "/>
</svg>
