<svg xmlns="http://www.w3.org/2000/svg"
     width="31.7" height="64.0"
     viewBox="2716.8361 16.5596 43.1653 87.2067">
  <path d="M 2723.6669,98.333333 C 2721.2085,95.874963 2725.6505,81.115623 2729.2664,79.728089 2730.3345,79.318205 2730.4625,77.739896 2729.8641,72.353299 2729.4455,68.583985 2729.0798,61.421691 2729.0516,56.437091 2729.0027,47.808663 2728.8635,47.243241 2726.1493,44.642848 2724.3206,42.890835 2722.8362,39.984793 2722.0093,36.53788 2720.8361,31.647535 2720.895,30.864858 2722.6643,27.835391 2725.2498,23.408497 2727.4901,23.11294 2729.468,26.937814 2731.5589,30.981151 2732.4436,30.80109 2733.8695,26.041982 2734.5217,23.865072 2735.5126,21.801331 2736.0716,21.455892 2737.5218,20.559582 2739.8386,22.762937 2742.0936,27.183102 2743.1646,29.282396 2744.4825,31 2745.0222,31 2745.5619,31 2747.6729,28.676387 2749.7132,25.836415 L 2753.4229,20.67283 2754.6664,23.586415 C 2755.3504,25.188887 2755.9303,28.987372 2755.9551,32.027494 2756.0014,37.704866 2755.0183,39.972254 2750.273,45.131836 2748.0834,47.512493 2747.8762,48.514598 2748.1018,55.631836 2748.239,59.959326 2747.8478,66.875 2747.2324,71 L 2746.1136,78.5 2749.0736,81.56484 C 2753.5823,86.233254 2755.764,96.385918 2752.5256,97.628633 2751.7145,97.939857 2749.3955,97.17135 2747.3721,95.920839 L 2743.6933,93.647181 2741.5592,96.323591 C 2738.814,99.766318 2737.7021,99.697818 2736.3063,96 2735.6835,94.35 2734.4998,93 2733.676,93 2732.8521,93 2731.042,94.35 2729.6537,96 2727.2208,98.891296 2725.065,99.731497 2723.6669,98.333333 z M 2730.9221,38.927689 C 2732.1425,34.165873 2732.0929,33.734992 2730.1111,31.888734 2728.9501,30.80708 2728.0002,29.48962 2728.0002,28.961045 2728.0002,26.934914 2725.009,28.116576 2724.4445,30.365712 2723.4591,34.292085 2726.6554,44 2728.9336,44 2729.3123,44 2730.2071,41.71746 2730.9221,38.927689 z M 2732.2996,90.5 C 2733.0783,88.714902 2731.8057,82.999101 2730.6367,83.031425 2727.9566,83.105532 2723.9341,92.466002 2725.4962,94.993581 2726.1394,96.034308 2731.4015,92.558767 2732.2996,90.5 z M 2742.1083,85.945282 C 2744.6207,75.435208 2746.101,61.144917 2745.4405,53.77648 2744.1966,39.899954 2740.2023,26 2737.4587,26 2733.6505,26 2730.6091,59.119936 2732.8726,75.939547 2734.0228,84.485714 2737.5732,94.309008 2739.3034,93.732264 2739.8672,93.544329 2741.1294,90.040187 2742.1083,85.945282 z M 2750.5817,89.75 C 2750.2109,87.4125 2749.2259,84.825 2748.3927,84 2747.0454,82.665814 2746.7189,82.714578 2745.4391,84.44113 2743.3416,87.270761 2743.6769,90.530564 2746.2502,92.325576 2750.2643,95.125648 2751.3335,94.489851 2750.5817,89.75 z M 2751.9296,38.645922 C 2753.378,35.653837 2753.779,33.411996 2753.3447,30.735279 2753.0113,28.680875 2752.6353,27 2752.5092,27 2752.3831,27 2750.6428,28.544046 2748.6418,30.431214 L 2745.0037,33.862428 2746.1531,38.84184 C 2747.5195,44.761738 2748.9931,44.711758 2751.9296,38.645922 z"/>
</svg>
