<svg xmlns="http://www.w3.org/2000/svg"
     width="33.7" height="64.0"
     viewBox="6511.0000 15.3191 46.9577 89.0515">
  <path d="M 6549.4375 86.84375 C 6545.0152 86.010814 6542.0128 80.70599 6542 73.25 C 6541.9952 70.483309 6542.8287 69.357702 6547.5 65.75 C 6553.2884 61.27955 6553.9577 59.569998 6551.5938 55.15625 C 6550.812 53.696389 6549.9038 51.704968 6549.5938 50.71875 C 6549.1425 49.283196 6548.6542 49.133637 6547.0938 49.96875 C 6544.2849 51.472038 6543.8292 51.273088 6544.1875 48.75 C 6544.4076 47.200675 6545.5121 46.19009 6547.75 45.53125 C 6551.8363 44.328245 6552.0413 42.535487 6548 43.34375 C 6545.0715 43.929444 6545 43.857719 6545 40 C 6545 36.891705 6545.5405 35.690198 6547.5 34.40625 C 6550.5576 32.402827 6549.8323 30.7212 6546.4688 32 C 6544.3189 32.817412 6543.9416 32.632677 6543.375 30.375 C 6542.8569 28.311056 6543.3135 27.347278 6545.625 25.5 C 6549.0385 22.772101 6548.1578 20.987989 6544.5625 23.34375 C 6542.1934 24.896014 6541.97 24.875987 6539.4062 22.5 C 6536.0999 19.435782 6533.5809 19.319111 6531.5938 22.15625 C 6530.3501 23.931924 6529.8277 24.086607 6528.5938 23.0625 C 6526.2437 21.112036 6524.5499 22.835278 6526.5938 25.09375 C 6528.9572 27.705393 6527.4149 33.351752 6524.2188 33.8125 C 6522.0714 34.122071 6520.9974 36 6522.9688 36 C 6524.6256 36 6527.0707 40.624386 6526.375 42.4375 C 6525.9126 43.642414 6525.0553 43.968561 6523.4375 43.5625 C 6519.6702 42.616976 6519.5688 44.935781 6523.3125 46.5 C 6526.1688 47.693434 6526.8468 48.550233 6527.1875 51.46875 C 6527.6723 55.620865 6527.4226 55.730515 6524.25 52.75 L 6521.8438 50.5 L 6518.4062 54.25 C 6516.5244 56.303389 6515 58.653022 6515 59.46875 C 6515 60.284477 6517.4604 62.74635 6520.4688 64.96875 C 6523.4771 67.19115 6526.4373 69.98801 6527.0625 71.15625 C 6528.6648 74.15012 6527.4754 80.222604 6523.9688 86.875 C 6520.6052 93.255858 6520.6568 92.986915 6521.9688 96.4375 C 6523.4641 100.37065 6527.9924 99.443911 6532.4062 94.3125 L 6534.5 91.875 L 6539.4375 94.625 C 6542.5557 96.367773 6546.5127 97.534818 6550.25 98.0625 L 6550.0312 95.15625 C 6545.4809 94.424072 6540.745 92.541576 6536.7812 89.75 C 6535.3196 88.720629 6534.4561 89.120104 6531.2188 92.28125 C 6529.1188 94.331884 6526.869 96 6526.1875 96 C 6523.703 96 6523.6883 92.625366 6526.1875 88.09375 C 6529.1423 82.736038 6530.1195 79.270615 6530.4688 72.84375 L 6530.7188 68.1875 L 6524.875 64.34375 C 6518.956 60.462588 6517.7832 58.260101 6520.4688 56.03125 C 6521.6522 55.049108 6522.4466 55.217234 6524.5938 56.90625 C 6529.3966 60.68413 6532.7101 59.130391 6530.7812 54 C 6530.2643 52.625 6529.5947 47.45 6529.3125 42.5 C 6528.8689 34.719048 6529.093 32.845493 6530.9688 28.6875 C 6534.4779 20.908647 6537.6061 21.318656 6540.4688 29.9375 C 6542.3976 35.74472 6542.6337 46.182106 6540.9375 51.84375 C 6539.3623 57.101354 6540.1975 57.96618 6544.125 55.0625 C 6547.488 52.576099 6548.3692 53.001039 6549.6562 57.84375 C 6550.1389 59.660008 6549.5998 60.743103 6547.375 62.5625 C 6545.7883 63.859979 6543.9952 64.94897 6543.375 64.96875 C 6540.7835 65.051408 6539.6736 68.246499 6539.8125 75.1875 C 6539.9733 83.220798 6541.1562 85.71116 6546.2188 88.4375 C 6547.4504 89.100808 6548.5598 89.495108 6549.625 89.65625 L 6549.4375 86.84375 z "/>
</svg>
