<svg xmlns="http://www.w3.org/2000/svg"
     width="33.2" height="64.0"
     viewBox="5357.6681 15.9167 45.2069 87.1962">
  <path d="M 5397.6875 30.3125 L 5395.9375 28.1875 C 5393.6058 25.307976 5391.8392 25.442032 5388.5312 28.75 L 5385.7812 31.46875 L 5383.4062 28.5 C 5382.0176 26.758897 5381.2706 24.769206 5381.5938 23.75 C 5382.8094 19.91672 5378.8893 22.236112 5374.8438 27.75 C 5372.5233 30.9125 5370.2595 33.660417 5369.8125 33.84375 C 5369.3655 34.027084 5369 34.820252 5369 35.625 C 5369 36.429747 5367.6465 37.844331 5366 38.78125 C 5362.3241 40.872971 5362.0973 42.412427 5365.5625 41.75 C 5367.6045 41.359654 5368.326 41.750317 5369.0625 43.6875 C 5370.5169 47.512854 5370.1914 48.730759 5367.5 49.40625 C 5364.0177 50.280257 5364.2195 52.929199 5367.75 52.6875 C 5370.3705 52.508103 5370.5 52.711936 5370.5 57 C 5370.5 60.860604 5370.1805 61.546518 5368.3125 61.8125 C 5367.115 61.983019 5365.54 62.838111 5364.8125 63.71875 C 5363.6459 65.131077 5363.8188 65.2625 5366.1875 64.8125 C 5370.1288 64.063717 5370.75 64.956062 5370.0938 70.4375 C 5369.5491 74.987127 5369.2435 75.445808 5366.25 76.21875 C 5362.21 77.261903 5361.9923 79 5365.9062 79 C 5368.806 79 5368.8194 79.027962 5368.6562 84.75 C 5368.499 90.263065 5368.381 90.503631 5365.6875 90.8125 C 5361.6681 91.273404 5362.9646 93.5 5367.25 93.5 C 5369.2026 93.5 5371.6237 94.253957 5372.6562 95.1875 C 5373.6886 96.121042 5375.6239 97.295287 5376.9375 97.78125 C 5380.5375 99.112944 5383.7395 98.104958 5386.5625 94.75 C 5388.7945 92.097492 5389.3793 91.846279 5391.5 92.8125 C 5394.9099 94.366157 5395.6584 92.510448 5392.7188 89.75 C 5388.7694 86.04145 5388.1821 78.597122 5392.0312 81.03125 C 5396.1159 83.614351 5396.0158 80.493203 5391.9062 77.0625 C 5388.0474 73.84095 5386.0289 66 5389.0625 66 C 5390.0561 66 5391.1601 66.45 5391.5 67 C 5392.4291 68.503328 5394 68.212846 5394 66.53125 C 5394 65.717428 5392.2572 64.15025 5390.125 63.0625 C 5386.1655 61.042481 5385 59.396948 5385 55.8125 C 5385 54.409215 5385.4606 53.985661 5386.5 54.40625 L 5389.5 55.59375 C 5392.2563 56.70911 5391.0416 54.263781 5387.5 51.5625 C 5385.575 50.094231 5384 48.220521 5384 47.40625 C 5384 45.351123 5386.9035 44.444672 5389.0938 45.8125 C 5390.425 46.643905 5391.0918 46.656044 5391.5938 45.84375 C 5391.9716 45.232591 5391.6397 44.377421 5390.875 43.9375 C 5386.7251 41.550165 5385.5236 40.118461 5386.6562 38.96875 C 5387.5335 38.078304 5388.6331 38.104955 5391.2812 39.0625 C 5395.8553 40.716527 5398 39.792362 5398 36.1875 C 5398 35.161909 5398.38 34.071047 5398.875 33.125 L 5397.7188 30.34375 L 5397.6875 30.3125 z M 5378.9688 28 C 5379.2635 28.006808 5380.5464 29.608407 5381.8125 31.5625 C 5384.0507 35.016974 5384.0715 35.27801 5382.5625 40.46875 C 5380.6339 47.102984 5380.5987 51.789049 5382.4375 58.9375 C 5385.584 71.169511 5387.0025 78.71647 5387 83.125 C 5386.9973 87.917068 5384.6478 95 5383.0625 95 C 5382.5648 95 5381.5763 95.223911 5380.8438 95.5 C 5378.709 96.3046 5373.1214 92.286985 5372.4062 89.4375 C 5371.7761 86.926986 5372.3245 76.752544 5373.4375 70.5 C 5374.3886 65.156576 5374.0992 47.057946 5373.0312 45.0625 C 5371.0325 41.327857 5371.8493 36.571541 5375.2188 32.1875 C 5376.9864 29.887518 5378.6739 27.993191 5378.9688 28 z M 5391.8125 29.15625 C 5392.2439 29.074476 5392.7231 29.339244 5393.4062 29.90625 C 5394.2908 30.640333 5395 32.542344 5395 34.125 C 5395 37.228867 5392.4875 38.112529 5390.1875 35.8125 C 5388.6209 34.245906 5388.6991 32.803497 5390.4062 30.46875 C 5390.9975 29.660155 5391.3811 29.238024 5391.8125 29.15625 z "/>
</svg>
