<svg xmlns="http://www.w3.org/2000/svg"
     width="64.0" height="63.8"
     viewBox="934.4977 17.0081 90.0028 89.7744">
  <path d="M 944.72561,72.599668 C 944.18897,57.46381 943.95224,55.854153 941.84326,53.001616 938.925,49.054459 938.49766,39.390974 941.16583,37.682926 942.51446,36.819595 943.44536,37.310054 946.05692,40.259861 949.49635,44.144764 954.22418,45.888923 956.40633,44.0779 957.40068,43.252663 959.40125,43.760715 964.4374,46.117414 968.24777,47.900499 971.51079,48.876764 971.99297,48.377965 973.19661,47.132832 970.97222,36.926498 969.3626,36.308827 968.62704,36.026566 966.64921,36.275306 964.96741,36.861581 962.45253,37.738276 961.80301,37.649725 961.30918,36.362843 960.48126,34.205309 962.72373,33.033446 967.71501,33.015313 972.65463,32.997367 973.18114,33.711768 974.91379,42.783192 976.20187,49.526978 975.70997,53 973.46673,53 972.03968,53 966.61689,50.840822 961.8459,48.372967 957.72417,46.240949 956.61179,46.638745 951.54347,52.057188 L 946.81306,57.114377 947.15662,72.006761 C 947.3849,81.901568 947.13274,87.266735 946.40523,87.994537 945.61191,88.788158 945.14919,84.54701 944.72561,72.599668 z M 946.76978,44.899867 942.50019,41.211453 942.19341,44.545586 C 942.02468,46.379359 942.62402,49.305678 943.52528,51.048516 L 945.16393,54.217312 948.10165,51.402797 951.03937,48.588281 946.76978,44.899867 z M 950.85959,74.166076 C 951.20829,61.899015 951.31211,61.387857 954.34409,57.011137 956.06289,54.530012 957.59997,52.30119 957.75982,52.0582 958.25447,51.306281 965.32421,54.17273 968.84571,56.553006 974.29547,60.236652 976.6987,66.886316 974.91497,73.346458 973.94936,76.843624 966.71625,84 964.1472,84 962.15035,84 962.87611,82.776053 967.50019,78.345408 971.10303,74.89328 972.00019,73.356852 972.00019,70.638949 972.00019,64.65304 969.58639,60.636907 964.23969,57.72687 L 959.34203,55.06123 956.28443,59.399088 C 953.42569,63.454812 953.25067,64.21494 953.59343,71.086175 953.94087,78.051127 952.80283,85.385396 951.22302,86.362717 950.82546,86.608656 950.66192,81.120167 950.85959,74.166076 z M 1013.9535,88.265376 C 1009.6285,81.445425 1008.3609,75.77005 1008.0875,62 1008.0019,57.689578 1007.7935,57.385027 1003.139,54.770889 1000.4664,53.269878 997.7118,51.357378 997.0175,50.520889 995.2623,48.405998 993.5786,48.609806 989.01719,51.489268 985.75633,53.547757 984.61199,53.802907 982.4046,52.963656 L 979.73526,51.948777 980.21898,41.903359 980.7027,31.857941 976.8128,27.92897 C 974.67336,25.768037 972.33244,24 971.61077,24 969.37397,24 963.62885,26.21638 960.84582,28.152952 957.88613,30.212459 954.62742,30.618305 955.21547,28.854168 955.8031,27.091281 968.15663,21.042524 971.21539,21.019997 972.82762,21.008123 975.31859,22.218672 977.34741,24 981.35629,27.519845 983.03358,27.725577 985.50019,25 987.84455,22.409509 992.5941,22.372622 993.965,24.934259 996.7847,30.202835 994.1481,34.5 988.09593,34.5 L 984.50019,34.5 983.60516,41.80497 C 982.46282,51.128438 983.40361,52.378436 988.76614,48.662198 992.904,45.794646 995.042,45.416831 998.0429,47.022857 1000.4664,48.319862 1002.8211,46.934702 1005.9464,42.373543 1007.2178,40.518094 1008.8664,39 1009.61,39 1011.8901,39 1012.3974,43.951674 1010.6706,49.351392 1009.7802,52.135727 1009.4307,54.658211 1009.8939,54.95691 1010.3571,55.25561 1010.9491,60.225 1011.2094,66 1011.6957,76.787644 1013.6069,83.10501 1018.1327,88.884859 1020.3978,91.777541 1020.5005,93 1018.4782,93 1017.6411,93 1015.605,90.869419 1013.9535,88.265376 z M 957.50299,33.004527 C 957.21469,32.538057 959.513,30.996209 962.61035,29.5782 968.75137,26.766744 970.00019,26.495703 970.00019,27.97432 970.00019,29.99472 958.50292,34.622448 957.50299,33.004527 z M 982.47171,99.953914 C 982.11612,99.378567 982.12493,96.728444 982.49128,94.064752 983.13533,89.381981 983.04006,89.132194 979.61309,86.518315 L 976.0688,83.814955 973.02871,85.979688 C 971.35667,87.170292 969.28993,87.999427 968.43597,87.822211 966.51396,87.423351 974.55896,81 976.98053,81 977.86975,81 980.47571,82.804946 982.77155,85.010992 986.41045,88.507576 986.87574,89.437384 986.39959,92.260992 L 985.85339,95.5 987.98832,93.063228 C 990.794,89.860832 989.99888,86.807113 984.92636,81.304073 981.47177,77.556285 981.00019,76.456116 981.00019,72.144467 981.00019,65.032266 984.08739,58.611752 988.68445,56.163343 992.0971,54.34578 993.467,54.720524 998.7891,58.927373 L 1003.7576,62.854745 1003.8241,69.924474 C 1003.8677,74.558044 1004.6447,79.062371 1006.079,82.996025 L 1008.2674,88.997848 1005.5589,93.090681 C 1002.3373,97.958891 1000.7726,97.434902 1003.486,92.396476 1005.3201,88.990765 1005.3244,88.713881 1003.6118,84.185953 1002.6371,81.608679 1001.5833,75.966456 1001.27,71.647681 1000.7071,63.888378 1000.6535,63.761396 996.7421,60.927968 993.0738,58.270688 992.5848,58.163439 990.0691,59.46435 985.88456,61.628274 984.86069,63.446921 984.2912,69.727329 983.78619,75.29663 983.91554,75.709298 987.51569,80.014687 993.0084,86.583373 993.5072,88.111778 991.4632,92.111388 987.44908,99.965995 984.2199,102.78255 982.47171,99.953914 z M 990.8486,31.11486 C 992.7655,29.90009 991.8422,26.5 989.59548,26.5 986.90537,26.5 985.0317,29.758277 987.00019,31.013154 988.83673,32.183909 989.14865,32.192153 990.8486,31.11486 z M 1007.4435,49.777494 C 1008.2997,48.555115 1009.0002,46.651269 1009.0002,45.546725 1009.0002,43.773892 1008.6339,43.904764 1005.8756,46.663082 1004.157,48.381623 1003.0586,50.285469 1003.4346,50.893851 1004.4751,52.577376 1005.7265,52.228901 1007.4435,49.777494 z M 1006.5686,96.25 C 1010.358,90.455454 1012.4804,89.663151 1015.4432,92.936987 1017.8694,95.617924 1016.4418,97.709645 1013.8109,95.328678 1011.8788,93.58016 1011.7614,93.607708 1009.8268,96.263536 1008.7304,97.768591 1007.1442,99 1006.3018,99 1004.991,99 1005.0295,98.603528 1006.5686,96.25 z"/>
</svg>
