<svg xmlns="http://www.w3.org/2000/svg"
     width="43.9" height="64.0"
     viewBox="40.0000 13.0778 65.3299 95.2273">
  <path d="M 92.459363,43.366465 C 91.751381,42.244081 89.875518,41.696487 86.464478,41.616465 80.26758,41.471088 79.407145,39.741916 85.052177,38.778236 90.56088,37.837829 93,35.556636 93,31.345012 93,24.358855 86.701319,22.160133 81.253943,27.244739 78.427237,29.8832 77.014398,28.746559 79.587104,25.903752 82.091053,23.136919 86.703765,20.793446 88.817132,21.214465 89.74271,21.398856 91.248764,20.638534 92.16392,19.524861 94.174764,17.077822 95.589224,18.030507 94.093814,20.824707 93.293549,22.320016 93.397103,23.533022 94.506633,25.660353 95.321208,27.222159 95.990451,29.2875 95.993839,30.25 95.997583,31.313481 96.761441,32 97.940983,32 100.84808,32 101.32987,33.700391 98.615795,34.381581 95.532812,35.155361 92.384926,39.784926 93.906902,41.306902 95.153612,42.553612 95.3775,45 94.244885,45 93.829572,45 93.026087,44.264909 92.459363,43.366465 z M 44,79.172863 C 44,78.583769 45.4625,77.02027 47.25,75.698422 52.131182,72.088811 53,71.723461 53,73.280468 53,74.049644 51.9875,75.194336 50.75,75.824227 49.5125,76.454119 47.4875,77.706238 46.25,78.606714 45.002839,79.51422 44,79.766557 44,79.172863 z M 63.2,101.8 C 61.695866,100.29587 61.652525,95.856731 63.110727,92.656326 64.03698,90.623422 63.853547,89.720927 62.006268,87.222349 60.787917,85.57444 58.745909,83.66679 57.468473,82.983127 55.473855,81.91564 54.763477,82.040889 52.438073,83.870052 48.438904,87.015799 45.726801,86.641086 49.5,83.464118 56.989575,77.158026 56.352373,77.159212 62.484349,83.439964 65.517957,86.547174 68,89.316661 68,89.594379 68,89.872096 67.297693,91.457431 66.439319,93.117345 65.580944,94.777258 65.034346,97.117411 65.224656,98.317685 65.494795,100.02143 66.275628,99.135671 68.785337,94.278517 70.553402,90.856701 72,87.384222 72,86.561896 72,85.739571 69.977028,82.789001 67.504506,80.005074 59.166175,70.616559 59.20401,70.761679 63.593917,65.005252 65.693297,62.252363 67.768503,60 68.205486,60 69.79587,60 68.940731,62.916986 66.5,65.817631 65.125,67.451725 64,69.462583 64,70.286202 64,71.109822 66.013744,74.02346 68.474986,76.760954 75.329531,84.384858 75.663068,86.038379 71.932129,93.899862 67.963734,102.26169 65.705113,104.30511 63.2,101.8 z"/>
</svg>
