<svg xmlns="http://www.w3.org/2000/svg"
     width="25.9" height="64.0"
     viewBox="741.3037 16.3893 35.6965 88.3633">
  <path d="M 750.78464,99.451113 C 750.48275,99.149226 750.96495,96.180702 751.85619,92.854395 L 753.47662,86.806562 750.73841,84.451247 C 747.41142,81.589489 747.28966,80.775486 750.25019,81.187142 752.09213,81.44326 752.45337,81.071543 752.24205,79.137517 752.10007,77.838151 750.86257,75.89299 749.49205,74.814937 746.36401,72.354418 746.26419,70.59846 749.29562,71.3593 751.40099,71.887714 751.55831,71.654944 751.19559,68.548052 750.97565,66.664048 749.735,64.160039 748.40016,62.90603 745.47805,60.160845 745.30371,58.584604 748.00019,59.289749 749.79915,59.760188 750.00019,59.320431 750.00019,54.914854 750.00019,51.099955 749.55796,49.740769 748.00019,48.767927 745.42513,47.159777 745.32293,44.650271 747.86536,45.457206 749.39886,45.943921 749.83812,45.38615 750.33561,42.320466 750.7544,39.739797 750.48802,38.091536 749.47044,36.967132 747.49907,34.788787 747.61878,34 749.92073,34 752.73511,34 753.76916,28.507182 751.43941,25.932838 749.69941,24.010159 750.02186,23.626886 753.12708,23.926848 754.02187,24.013284 755.02025,23.390104 755.3457,22.542002 756.17176,20.389324 758.96705,20.62024 761.55903,23.055279 763.53825,24.91466 763.89502,24.962317 765.30205,23.555279 766.98584,21.871493 769.00019,21.484616 769.00019,22.845012 769.00019,23.309769 768.07836,24.524268 766.95168,25.543899 764.0297,28.188257 764.56158,34.366696 767.75019,34.819551 770.55601,35.21804 770.63948,36.587494 767.94583,38.029091 766.28522,38.917822 765.94981,39.930805 766.19583,43.314275 766.43892,46.657328 766.8525,47.440845 768.25019,47.206163 770.65567,46.802267 770.45523,48.6861 767.95008,50.026818 766.21813,50.953729 765.94655,51.929135 766.20008,56.312001 766.38025,59.426605 766.96645,61.5 767.66686,61.5 769.81888,61.5 770.3065,62.945501 768.39332,63.65352 765.77882,64.621078 765.03333,65.966581 765.0155,69.75 765.00161,72.697847 765.2791,73 768.00019,73 771.76124,73 771.96234,74.756448 768.25019,75.183578 765.8936,75.454733 765.53026,75.916333 765.71039,78.410198 766.0057,82.498817 767.39029,83.59892 770.47306,82.194313 772.52599,81.258935 773.00019,81.307673 773.00019,82.454051 773.00019,83.230197 772.10019,84.150874 771.00019,84.5 768.60179,85.261223 768.5641,85.712052 770.50966,90.368411 771.92372,93.752748 771.89212,94.108069 770.00966,95.990535 767.44739,98.552797 766.18226,98.51967 763.30319,95.81493 L 760.97729,93.62986 757.69113,96.81493 C 754.63041,99.781498 752.08615,100.75263 750.78464,99.451113 z M 763.44932,92.542536 C 765.35887,93.5709 767.19425,94.139268 767.52795,93.805578 767.86164,93.471887 766.87105,90.791622 765.32664,87.849434 L 762.51862,82.5 762.50941,56.5 C 762.50192,35.369526 762.21926,29.951961 761.00019,27.573842 758.98549,23.643631 757.35736,23.316 756.69063,26.706622 756.38852,28.24298 755.44799,32.2 754.60056,35.5 752.63608,43.149936 752.37955,56.254762 753.99373,66.5 754.68696,70.9 755.30952,79.0844 755.37717,84.687556 L 755.50019,94.875113 757.73879,92.773948 C 759.95119,90.69738 760.01804,90.694671 763.44932,92.542536 z"/>
</svg>
