<svg xmlns="http://www.w3.org/2000/svg"
     width="51.4" height="64.0"
     viewBox="4525.4059 17.6746 66.5003 82.7672">
  <path d="M 4587.9062 65.34375 C 4587.8606 64.477019 4587.779 62.105316 4587.6875 59.53125 C 4587.4885 53.939923 4585.8171 52.710295 4582.4688 55.71875 C 4581.3787 56.698119 4578.3239 59.251417 4575.6875 61.375 L 4570.9062 65.21875 L 4565.9375 59.875 C 4560.9978 54.514294 4560.15 52.643366 4562 51.5 C 4564.5339 49.93398 4571.1409 36.677029 4571.6875 32.0625 C 4572.9177 21.67464 4570.3876 21.948461 4564.4375 32.84375 C 4560.4154 40.208656 4557.3237 44 4555.3438 44 C 4552.9452 44 4550.5272 37.676176 4550 30 C 4549.5248 23.081968 4549.3077 22.460974 4547.1562 22.15625 C 4543.798 21.680609 4541.3401 24.439518 4539.9688 30.15625 C 4538.6279 35.745252 4539.2082 41.269723 4541.6875 46.46875 L 4543.3438 49.96875 L 4539.9375 53.3125 C 4533.0181 60.060257 4529.4059 72.812146 4533.3125 76.71875 C 4534.7214 78.127579 4535.3134 77.613826 4539.5312 71.09375 C 4544.6106 63.241804 4548.1917 60.594984 4550.2812 63.1875 C 4559.8681 75.082022 4560.3063 75.877569 4559 79.03125 C 4557.7778 81.981918 4558.0724 91.709333 4559.4688 93.96875 C 4560.9973 96.441863 4561.5132 94.476751 4561.1562 87.40625 C 4560.9455 83.233763 4561.1983 79.395544 4561.7188 78.875 C 4563.8041 76.789717 4565.784 79.237039 4566.9375 85.3125 C 4568.6054 94.096661 4568.942 95 4570.625 95 C 4571.7277 95 4571.9369 94.404123 4571.4062 92.75 C 4570.3849 89.565996 4569.0595 83.711861 4569.0312 82.3125 C 4569.018 81.662063 4569.9264 80.829346 4571.0625 80.46875 C 4572.1986 80.108154 4574.7051 78.435687 4576.625 76.75 L 4580.125 73.6875 L 4580.7188 74.15625 L 4580.625 73.6875 L 4583.0938 70.5 C 4583.1998 69.303126 4583.6394 68.673347 4584.5938 68.6875 L 4587.9062 65.34375 z M 4545.8438 25 C 4546.3577 25 4546.9647 27.874985 4547.1875 31.375 C 4547.6793 39.098464 4551.3908 47 4554.5312 47 C 4557.575 47 4560.4883 44.56368 4563.4375 39.53125 C 4565.7291 35.620911 4568 33.674889 4568 35.625 C 4568 37.221307 4563.1506 44.934887 4559.75 48.75 L 4555.9375 53 L 4562.1875 60.5 C 4565.6271 64.62169 4568.9065 68.002896 4569.4688 68 C 4570.7757 67.99327 4574.7604 65.381992 4579.8438 61.21875 C 4582.3688 59.150867 4584.1091 58.348149 4584.5312 59.03125 C 4585.5824 60.732131 4584.2585 64.406062 4581.5938 67.28125 C 4580.252 68.729124 4578.5777 70.750544 4577.8438 71.75 C 4577.1098 72.749456 4575.2117 74.558945 4573.625 75.78125 C 4572.0384 77.003554 4570.2384 78.002056 4569.625 78 C 4567.577 77.993135 4562.1496 74.144238 4560.9062 71.8125 C 4558.3982 67.108553 4550.6112 59 4548.5938 59 C 4547.3892 59 4544.1941 61.513501 4540.7812 65.15625 C 4535.1566 71.159567 4534.9908 71.242568 4535 68.40625 C 4535.0132 64.302531 4540.4206 55.350993 4544 53.5 C 4545.6457 52.648996 4547 51.515555 4547 50.96875 C 4547 50.421946 4545.875 47.196396 4544.5 43.8125 C 4543.125 40.428605 4542 36.354091 4542 34.78125 C 4542 31.386264 4544.5154 25 4545.8438 25 z "/>
</svg>
