<svg xmlns="http://www.w3.org/2000/svg"
     width="27.0" height="64.0"
     viewBox="102.5475 15.5000 38.6405 91.4724">
  <path d="M 132.125,90.59375 C 131.4982,89.757392 130.97752,86.774515 130.96875,83.5625 130.95756,79.468412 129.85342,73.943796 127.5,66.5 123.91982,55.175967 122.98356,45.795489 124.9375,40.65625 125.69344,38.667965 126.5733,38.1875 129.46875,38.1875 135.40804,38.1875 137.18796,35.676225 134.84375,30.53125 133.33824,27.227011 129.538,26.197205 127.0625,28.4375 124.98365,30.318838 125.00519,30.348414 121.53125,23.5 120.41527,21.3 118.8327,19.5 118.03125,19.5 117.22981,19.5 115.04199,22.2 113.15625,25.5 106.5475,37.06519 106.83475,35.854622 109.59375,40.5625 113.21745,46.745883 114.17558,54.314601 112.40625,62.65625 108.20207,82.477234 108.32243,92.85725 112.78125,98.15625 114.19192,99.832747 116.26139,101.5681 117.40625,102.03125 118.55111,102.49439 119.64769,102.90264 119.8125,102.9375 119.97731,102.97237 121.39034,102.34748 122.96875,101.53125 124.16026,100.9151 124.96284,100.6312 125.875,100.59375 L 125.875,100.5625 128.125,96.28125 C 128.11167,96.221881 128,96.152033 128,96.09375 128,95.257705 128.60342,94.555976 129.46875,94.15625 129.47709,94.152398 129.49162,94.160046 129.5,94.15625 L 132.125,90.59375 z M 118.09375,24.5625 C 118.59269,24.870863 119.92397,27.157018 121.0625,29.65625 122.9571,33.815135 123.04629,34.799148 121.96875,41.1875 120.48816,49.965445 121.23248,55.959246 125.5625,70.0625 127.45215,76.217265 129,82.471747 129,83.96875 129,87.834375 127.12086,92.967157 124.3125,96.75 122.98546,98.5375 121.26634,100 120.5,100 117.5795,100 113.82888,95.473383 113,90.96875 112.07002,85.914702 113.41436,71.350666 115.59375,63 117.44103,55.921895 116.54667,47.173259 113.28125,40.40625 L 110.8125,35.28125 114,29.65625 C 115.75248,26.551032 117.59481,24.254138 118.09375,24.5625 z M 130.21875,30.28125 C 131.58902,30.396477 133,31.62313 133,33.0625 133,35.226781 132.14186,35.79314 129.75,35.25 127.92368,34.835281 127.32864,31.537512 128.90625,30.5625 129.29717,30.320899 129.76199,30.242841 130.21875,30.28125 z"/>
</svg>
