<svg xmlns="http://www.w3.org/2000/svg"
     width="58.9" height="64.0"
     viewBox="5586.2694 16.2998 82.5252 89.7002">
  <path d="M 5651.6562 61.84375 C 5648.2114 63.742602 5645.2478 63.012871 5640.375 59.65625 C 5635.7608 56.47783 5635.4707 56.021442 5634.7812 50.5625 C 5633.9103 43.666833 5635.6276 39.393972 5639.6875 38.375 C 5641.7074 37.868041 5642.7666 38.204726 5644.0938 39.84375 C 5646.3378 42.614975 5647.3681 42.553538 5648.9688 39.5625 C 5650.9844 35.796416 5648.4069 26.062446 5644.875 24.09375 C 5642.399 22.713591 5641.8902 22.840954 5636.0625 26.3125 C 5629.0056 30.516286 5628.3471 30.662112 5627.5625 28.25 C 5627.2495 27.2875 5624.9297 25.085395 5622.4062 23.34375 C 5618.4526 20.614959 5617.4254 20.299835 5614.9688 21.15625 C 5606.545 24.092766 5604.341 32.528553 5610.4062 38.59375 C 5613.2629 41.450475 5614.5098 42 5618.2812 42 C 5622.5949 42 5622.7928 42.136612 5623.4062 45.40625 C 5624.1568 49.406757 5622.8656 56.065441 5620.6562 59.4375 C 5619.6188 61.020793 5617.6942 62.039514 5614.9688 62.5 C 5612.7102 62.881558 5610.7372 63.035856 5610.5938 62.84375 C 5610.4502 62.651645 5609.0972 60.8125 5607.5625 58.75 C 5602.8661 52.438434 5598.3886 54.331763 5593.9688 64.5 C 5590.6698 72.089273 5590.2694 80.448809 5592.9375 86.125 C 5595.434 91.436132 5599.3389 95.538579 5600.9688 94.53125 C 5601.706 94.075576 5601.9757 90.460881 5601.7812 83.96875 C 5601.4067 71.467631 5602.4739 70.018711 5608.5938 74.5 C 5610.4992 75.895346 5611.0535 75.797758 5615.375 73.5 C 5617.9716 72.119356 5620.3729 71 5620.6875 71 C 5621.0022 71 5620.9837 72.331462 5620.6562 73.96875 C 5620.3216 75.642476 5620.751 79.134511 5621.6562 81.9375 C 5623.1418 86.537389 5623.138 87.128476 5621.625 89.4375 C 5619.0322 93.39461 5619.6231 95.549548 5624.1875 98.90625 C 5626.4959 100.60383 5629.1795 102 5630.125 102 C 5632.0627 102 5638 94.996601 5638 92.71875 C 5638 91.902742 5637.325 90.684689 5636.5 90 C 5634.5664 88.395275 5634.5999 86.528279 5636.625 83.4375 C 5637.7687 81.692022 5638.1048 79.616569 5637.75 76.46875 C 5637.4574 73.8733 5637.6525 72 5638.2188 72 C 5638.7562 72 5641.7597 73.180698 5644.9062 74.625 L 5650.6562 77.25 L 5650.5938 83.375 C 5650.5425 89.777956 5652.8078 95 5655.625 95 C 5657.5684 95 5657.3584 93.98913 5654.8438 91.3125 C 5653.152 89.511599 5652.6897 87.858176 5652.7812 83.84375 C 5653.0014 74.182625 5656.5676 75.224098 5659.6562 85.84375 C 5660.665 89.312003 5660.9588 92.7428 5660.5312 95.59375 C 5659.9933 99.181357 5660.1378 99.888254 5661.3125 99.4375 C 5664.7946 98.101273 5664.0256 87.232672 5659.8438 78.625 L 5657.7188 74.21875 L 5657.9375 73.96875 L 5656.4688 71.09375 C 5654.5599 72.87727 5652.8311 74 5651.5938 74 C 5650.3166 74 5645.8163 72.40286 5641.5625 70.4375 C 5637.3088 68.47214 5633.6474 67.040077 5633.4375 67.25 C 5633.2275 67.459923 5633.5459 70.311708 5634.1562 73.59375 C 5635.1641 79.013144 5635.0696 79.939449 5633.0938 83.8125 L 5630.9062 88.09375 L 5632.9375 90.65625 L 5634.9688 93.21875 L 5632.9062 96.125 C 5630.4065 99.635564 5629.3595 99.700109 5625.5 96.5625 L 5622.5 94.125 L 5624.6562 90.28125 C 5626.3197 87.317904 5626.56 85.978754 5625.75 84.53125 C 5623.1261 79.842595 5623.0492 73.688393 5625.5 67.75 C 5626.597 65.092017 5622.8304 65.507767 5618.375 68.53125 C 5612.4316 72.564588 5610.0418 72.766172 5607.4375 69.5 C 5603.0037 63.939566 5598.6033 70.080718 5598.6562 81.75 C 5598.6742 85.7375 5598.3221 89 5597.9062 89 C 5596.1101 89 5593.7227 79.902464 5594.2812 75.1875 C 5594.9453 69.580237 5599.2843 59.203827 5601.2812 58.4375 C 5602.0628 58.13763 5604.5803 59.861584 5607.125 62.40625 L 5611.625 66.875 L 5616.5625 65.1875 C 5619.2783 64.255992 5621.9537 62.825 5622.5 62 C 5626.4714 56.002681 5627.9261 44.00646 5625.0938 40.59375 C 5624.2418 39.567207 5622.1813 39 5619.3438 39 C 5615.8428 39 5614.3775 38.437065 5612.4375 36.34375 C 5609.3475 33.0096 5609.3058 29.01207 5612.3125 26.1875 C 5616.561 22.196174 5621.4551 24.168202 5627.25 32.25 C 5628.4137 33.872968 5628.9202 33.704754 5634.25 30 C 5642.6663 24.149913 5645.6316 24.863758 5646.7188 32.96875 C 5647.2971 37.28145 5646.9789 37.598677 5643.875 35.9375 C 5641.0953 34.449851 5635.5971 36.408136 5633.4688 39.65625 C 5631.7803 42.233294 5631.2992 50.501354 5632.5 55.96875 C 5633.1167 58.776351 5640.644 64.462137 5645.2188 65.5625 C 5647.4614 66.101941 5650.0582 65.331024 5652.6875 63.84375 L 5651.6562 61.84375 z "/>
</svg>
