<svg xmlns="http://www.w3.org/2000/svg"
     width="38.8" height="64.0"
     viewBox="6169.7500 40.1253 41.1954 67.8733">
  <path d="M 6178.4375 87 L 6177.125 91.65625 C 6177.9486 91.314857 6179.3041 91.644989 6181.5 92.5625 C 6185.9036 94.402423 6187.2681 94.035724 6189.6875 90.34375 C 6191.1209 88.156419 6191.6028 84.767594 6192.0312 74.03125 C 6192.4995 62.296594 6192.9062 59.854976 6195.0312 55.625 C 6197.3456 51.018023 6201.1981 47.854349 6202.6875 49.34375 C 6203.8623 50.518511 6202.9621 59.864235 6200.875 68.25 C 6197.99 79.841642 6197.944 87.556799 6200.75 92.3125 C 6201.9806 94.398179 6203 96.768938 6203 97.5625 C 6203 99.874326 6200.1902 99.222505 6198.4062 96.5 C 6196.3544 93.368343 6194.9239 93.355006 6190.2188 96.46875 C 6183.1342 101.15713 6176.2095 100.53945 6176.0312 95.28125 L 6173.75 99.84375 L 6173.8125 100.71875 C 6174.4721 100.87042 6175.0841 101.0058 6176 101.40625 C 6181.9287 103.99853 6185.5575 103.46816 6192.5938 99.03125 C 6194.4308 97.872833 6194.9663 97.966348 6196.8438 99.84375 C 6199.8084 102.80838 6204.7085 102.72783 6206.0938 99.6875 C 6206.9454 97.818509 6206.6456 96.449052 6204.5625 92.53125 C 6201.4839 86.741323 6201.2069 79.981466 6203.5938 69.5 C 6206.1596 58.23295 6206.5145 50.43144 6204.5938 47.5 C 6202.3825 44.125274 6201.0478 44.3394 6196.75 48.75 C 6191.0358 54.614134 6189.7688 58.739939 6189.0938 73.71875 C 6188.579 85.139317 6188.2272 87.224749 6186.5 88.9375 C 6184.6148 90.806937 6184.3266 90.810853 6181.25 89.3125 C 6180.0814 88.743381 6179.1283 87.88366 6178.4375 87 z "/>
</svg>
