<svg xmlns="http://www.w3.org/2000/svg"
     width="43.9" height="64.0"
     viewBox="1560.8750 44.2512 39.9153 58.1608">
  <path d="M 1565.125 81.90625 L 1565.0938 85.03125 C 1568.6929 87.492769 1571.1272 87.485558 1574.4062 84.90625 C 1578.0668 82.026914 1580.6398 76.558964 1582.4375 67.9375 C 1584.1581 59.685169 1587.987 53 1591 53 C 1593.911 53 1593.5428 55.968729 1589.5 64.71875 C 1585.3251 73.754816 1584.9053 79.613799 1588.125 83.96875 C 1589.7862 86.215633 1590.1188 87.607832 1589.5938 90.40625 C 1588.8018 94.627774 1587.8147 94.920867 1585.5938 91.53125 C 1582.885 87.397113 1579.8562 87.341683 1574.5312 91.40625 C 1571.9518 93.375222 1569.075 95 1568.125 95 C 1567.4997 95 1566.2404 94.191416 1564.9375 93.15625 L 1564.875 97.34375 C 1565.9576 97.857778 1567.0091 97.944659 1568.5938 97.6875 C 1570.497 97.378629 1573.8703 95.705052 1576.0625 93.96875 C 1580.4153 90.52127 1582.5211 90.618194 1583.9375 94.34375 C 1584.885 96.835904 1587.517 98.411956 1589.0938 97.4375 C 1592.9116 95.077914 1593.6491 86.432795 1590.4375 81.53125 C 1588.2781 78.235578 1588.9672 73.512653 1592.9688 64.6875 C 1596.1596 57.650235 1596.7903 53.165298 1594.8125 51.1875 C 1591.8762 48.251154 1585.4364 51.323976 1582.4688 57.0625 C 1581.6515 58.643085 1580.1325 63.495167 1579.0938 67.84375 C 1575.5194 82.808868 1571.5207 86.908004 1565.2812 82 C 1565.2292 81.959033 1565.1769 81.945888 1565.125 81.90625 z "/>
</svg>
