<svg xmlns="http://www.w3.org/2000/svg"
     width="39.6" height="64.0"
     viewBox="5438.2660 16.4759 52.7340 85.2159">
  <path d="M 5480.2188 84.34375 C 5479.3028 82.959859 5478.7684 80.481486 5478.0938 76 C 5477.4727 71.875 5476.3422 64.45 5475.5625 59.5 C 5474.0736 50.047069 5473.5638 37.277647 5474.5938 34.59375 C 5475.0094 33.510395 5476.4977 33 5479.2812 33 C 5484.3604 33 5487 30.744598 5487 26.4375 C 5487 21.332545 5482.5252 20.47588 5476.6875 24.4375 L 5473.0938 26.875 L 5469.4062 23.9375 C 5467.3761 22.324123 5465.5077 21 5465.25 21 C 5464.9923 21 5463.1358 22.313678 5461.125 23.90625 L 5457.4688 26.78125 L 5454.5 24.40625 C 5452.8567 23.09141 5450.5188 22.002732 5449.3125 22 C 5445.0945 21.990448 5442.266 29.341903 5445.4688 32 C 5446.2836 32.676273 5449.2936 33.265178 5452.1562 33.34375 C 5457.1862 33.481806 5457.4052 33.615046 5458.25 36.875 C 5458.8359 39.136297 5458.563 43.916244 5457.4375 51.375 C 5453.8796 74.951926 5455.8323 91.301493 5462.6562 95.25 C 5466.5287 97.49069 5470.4794 97.691794 5474.75 95.90625 C 5475.5048 95.590654 5475.7706 95.63955 5476.25 95.5 L 5477.7188 92.78125 C 5477.3021 91.856817 5477.106 90.66511 5477.4062 89.46875 C 5477.8166 87.83404 5478.4019 87.47592 5479.375 87.59375 L 5480.2188 84.34375 z M 5465.5938 25.1875 C 5466.6291 25.296901 5467.6998 26.226883 5469.5938 28.0625 C 5472.483 30.862861 5472.6829 31.470154 5471.9062 34.8125 C 5470.6283 40.312434 5470.8265 48.398641 5472.5312 59 C 5476.3718 82.884738 5476.3297 82.084314 5474.3438 88 C 5472.608 93.1704 5472.2758 93.531881 5468.9375 93.8125 C 5459.6591 94.592443 5456.308 78.214164 5460.4688 52.5 C 5462.1143 42.331354 5462.1468 41.046534 5460.6875 35.5 L 5459.0938 29.5 L 5461.8125 27.25 C 5463.559 25.799027 5464.5584 25.078099 5465.5938 25.1875 z M 5448.5938 25.3125 C 5449.8174 24.905173 5454.7887 28.552728 5454 29.28125 C 5452.7914 30.397611 5449.39 30.86867 5448.1562 30.09375 C 5446.6295 29.134659 5446.9262 25.867673 5448.5938 25.3125 z M 5483.5625 25.40625 C 5483.8979 25.608625 5484 26.085891 5484 26.90625 C 5484 28.023962 5483.1264 29.399399 5482.0625 29.96875 C 5479.7423 31.210522 5479.8724 31.215238 5478 30.03125 C 5476.6667 29.188118 5476.6667 28.926331 5478 27.65625 C 5478.825 26.870388 5480.5125 25.902341 5481.75 25.53125 C 5482.6583 25.258883 5483.2271 25.203875 5483.5625 25.40625 z "/>
</svg>
