<svg xmlns="http://www.w3.org/2000/svg"
     width="39.8" height="64.0"
     viewBox="5393.7188 17.0000 52.7056 84.7051">
  <path d="M 5397.7188,30.34375 5398.875,33.125 C 5399.1436,32.611729 5399.4115,32.079754 5399.75,31.78125 5402.9293,28.977865 5411.8702,24.826789 5415.9375,24.28125 5419.5805,23.792616 5420.0363,23.984785 5420.9688,26.4375 5421.532,27.918946 5422,31.411286 5422,34.1875 5422,38.613816 5421.4326,39.956031 5417.5,45.1875 5411.7405,52.849392 5410.058,58.664668 5410.3125,69.75 5410.4788,76.997235 5410.9883,79.551617 5413.375,84.71875 5416.4578,91.393175 5420.9216,95.628079 5425.9062,96.625 5431.3066,97.70506 5436.5333,92.204357 5440.75,81 5442.4108,76.587277 5442.4244,61.159187 5440.7812,55.65625 5439.6097,51.733026 5433.9044,45.083585 5426.7188,39.3125 5424.276,37.350669 5424,36.524818 5424,30.65625 5424,23.473803 5422.5705,21 5418.4375,21 5415.274,21 5408.6839,23.658457 5402.5938,27.375 L 5397.7188,30.34375 z M 5424.0938,42.1875 C 5425.1685,42.092566 5426.4919,42.911705 5428.6562,44.5625 5432.669,47.623225 5432.789,48.669259 5429.4688,52.25 5428.0716,53.75688 5426.5761,55 5426.1562,55 5425.7364,55 5423.9639,53.51925 5422.2188,51.71875 L 5419.0312,48.4375 5421,45.21875 C 5422.1837,43.272218 5423.019,42.282434 5424.0938,42.1875 z M 5416.8438,51 C 5417.7421,51 5423,56.309298 5423,57.21875 5423,57.556297 5421.4774,58.761392 5419.625,59.90625 5415.5848,62.403226 5415.1252,62.473637 5414.3438,60.4375 5413.6541,58.640024 5415.6732,51 5416.8438,51 z M 5414.125,67.03125 C 5415.6518,67.054252 5425.7845,75.583767 5425,76.1875 5424.725,76.399134 5422.8003,78.015476 5420.7188,79.78125 5418.6371,81.547023 5416.5337,83 5416.0625,83 5415.0294,83 5414.3848,80.390599 5413.4688,72.75 5412.9253,68.216838 5413.0487,67.015036 5414.125,67.03125 z M 5419.375,84.5 C 5420.2617,84.27259 5421.2895,84.872713 5423.3438,86.625 5425.19,88.199806 5427.5249,89.978476 5428.5312,90.5625 5429.5891,91.176518 5430.0496,92.125464 5429.625,92.8125 5428.5041,94.626079 5425.8755,94.161037 5422.0625,91.46875 5417.6138,88.327631 5416.6264,86.555 5418.5,85 5418.8011,84.750095 5419.0794,84.575803 5419.375,84.5 z M 5435.2812,52.28125 C 5436.0487,52.575762 5437.2489,54.822097 5437.9375,57.28125 5440.0653,64.881064 5439.235,65.725429 5433.75,61.53125 5431.1375,59.533576 5429,57.553934 5429,57.125 5429,55.560117 5433.9249,51.76076 5435.2812,52.28125 z M 5425.125,59.75 C 5426.0423,59.679069 5426.8416,60.152125 5428.4375,61.09375 5430.1981,62.132527 5432.6104,64.032949 5433.8125,65.3125 L 5436,67.625 5433.7188,69.5625 C 5428.0302,74.375753 5428.6625,74.386887 5422.625,69.46875 5419.534,66.9509 5417,64.713609 5417,64.5 5417,64.286392 5418.8612,63.006224 5421.125,61.65625 5423.1771,60.432531 5424.2077,59.820931 5425.125,59.75 z M 5438.0312,70 C 5439.2611,70 5439.8591,73.825849 5439.0938,76.6875 5438.7009,78.156742 5437.9677,79.510746 5437.4375,79.6875 5436.0044,80.16517 5432,77.111415 5432,75.53125 5432,74.185189 5436.5626,70 5438.0312,70 z M 5428.0312,78.1875 C 5429.3559,78.277144 5430.8654,79.191451 5433,80.96875 5436.4646,83.853502 5436.4978,83.901802 5434.8438,86.65625 5433.9246,88.186662 5432.7996,89.5533 5432.3438,89.6875 5431.8878,89.8217 5429.3273,88.323917 5426.6875,86.34375 L 5421.9062,82.75 5424.125,80.375 C 5425.5673,78.839761 5426.7066,78.097856 5428.0312,78.1875 z"/>
</svg>
