<svg xmlns="http://www.w3.org/2000/svg"
     width="37.6" height="64.0"
     viewBox="6958.3750 17.8937 35.6301 60.6063">
  <path d="M 6962.375 60.9375 L 6963.0312 63.6875 C 6965.025 63.469879 6966.8716 62.990162 6967.9688 61.8125 C 6970.5284 59.064993 6974 51.970392 6974 49.5 C 6974 48.475197 6974.4196 46.251549 6974.9375 44.5625 C 6975.4554 42.873451 6976.3785 38.9125 6977 35.75 C 6978.3607 28.826398 6981 27.633509 6981 33.9375 C 6981 44.750596 6974.7222 62.582802 6968.75 68.75 C 6967.1818 70.369377 6966.0866 71.200453 6964.875 71.5625 L 6965.5625 74.5 C 6966.7441 74.246738 6967.6114 73.532481 6969.25 72.09375 C 6971.2718 70.318628 6973.874 69 6975.375 69 C 6976.8149 69 6978 68.55 6978 68 C 6978 67.45 6977.325 67 6976.5 67 C 6974.4314 67 6974.6151 64.786569 6977.0938 60.03125 C 6978.9207 56.526173 6979.638 56 6982.5938 56 C 6984.9673 56 6986 55.529548 6986 54.46875 C 6986 53.323957 6985.3456 53.122596 6983.3438 53.625 L 6980.6875 54.28125 L 6981.3438 49.4375 C 6981.71 46.766041 6982.3622 44.231483 6982.7812 43.8125 C 6983.4274 43.166309 6986.4842 42.33654 6989.25 42.0625 C 6989.6625 42.02163 6990 41.528951 6990 40.9375 C 6990 40.32419 6988.6036 40.001935 6986.75 40.1875 C 6984.6073 40.402006 6983.5279 40.074096 6983.5938 39.25 C 6983.6488 38.5625 6983.7596 36.5375 6983.8438 34.75 C 6983.9567 32.346925 6984.786 30.978815 6987 29.5 C 6988.6468 28.4 6989.9984 27.1625 6990 26.75 C 6990.0051 25.43561 6987.2911 25.944296 6986 27.5 C 6984.225 29.638744 6983.1316 29.359556 6982.4375 26.59375 C 6982.1054 25.270716 6981.0721 23.92107 6980.1562 23.59375 C 6979.2404 23.26643 6977.8591 22.721426 6977.0938 22.375 C 6976.0304 21.893714 6975.8476 22.395052 6976.25 24.5 C 6976.801 27.382572 6975.4219 33.848055 6973.9375 35.40625 C 6973.4231 35.946124 6972.4895 35.811213 6971.625 35.09375 C 6970.7719 34.385767 6969.9331 34.29479 6969.5938 34.84375 C 6969.2759 35.358138 6969.7135 36.357915 6970.5625 37.0625 C 6973.3493 39.375326 6974.0133 41.640915 6972.875 44.90625 C 6971.7002 48.276037 6971.0295 48.623285 6969.2188 46.8125 C 6968.5678 46.161666 6967.7288 45.95875 6967.3438 46.34375 C 6966.9588 46.72875 6967.1616 47.567916 6967.8125 48.21875 C 6969.7126 50.118863 6969.1895 53.466446 6966.5 56.59375 C 6965.1257 58.191796 6964.0007 59.8375 6964 60.25 C 6963.9993 60.68521 6963.2752 60.872945 6962.375 60.9375 z "/>
</svg>
