<svg xmlns="http://www.w3.org/2000/svg"
     width="64.0" height="59.4"
     viewBox="1600.9749 64.0211 43.2581 40.1638">
  <path d="M 1629.875 71.125 L 1628 74.1875 C 1629.0629 75.136251 1630.6844 75.352432 1633.1875 75.40625 L 1637.5 75.5 L 1637.1875 79.4375 C 1636.8353 83.824169 1634.9618 87.902199 1631.0938 92.75 C 1629.3746 94.904616 1627.654 95.996462 1626 95.96875 C 1619.3514 95.857356 1610.5834 87.141644 1609.4375 79.5 C 1608.5791 73.776223 1609.4642 72.408523 1612.6562 74.5 C 1614.0121 75.388356 1616.3317 75.983471 1617.8125 75.8125 L 1618.4375 75.75 L 1616.3438 72.71875 C 1615.4744 72.511716 1613.6748 71.85303 1611.4688 70.78125 C 1605.7876 68.021129 1604.9749 68.924088 1606.1875 76.65625 C 1607.7515 86.629714 1611.9332 93.331825 1618.875 97 C 1624.9023 100.18492 1628.1601 99.632913 1632.7188 94.6875 C 1637.6191 89.37113 1640.233 82.827738 1639.8125 76.9375 L 1639.5 72.5 L 1635.2188 72.40625 C 1632.8642 72.361559 1630.4872 71.89339 1629.9375 71.34375 C 1629.9188 71.32503 1629.8936 71.152361 1629.875 71.125 z "/>
</svg>
