<svg xmlns="http://www.w3.org/2000/svg"
     width="36.6" height="64.0"
     viewBox="6918.8674 14.3538 52.3826 91.6466">
  <path d="M 6962.375,60.9375 C 6960.5848,61.06588 6957.7838,60.578182 6956.4375,59.59375 6954.5447,58.209668 6954.5448,58.06515 6956.3125,53.34375 6960.5282,42.083859 6959.3822,29.940704 6953.5,23.59375 6948.6438,18.353844 6943.8622,21.29541 6938.875,32.5625 6937.0967,36.579872 6936.6768,39.521981 6936.5938,48.25 L 6936.4688,59 6930.1875,64.25 6923.875,69.5 6924.5,76.5 C 6924.8408,80.418198 6924.6446,85.032225 6924.0625,86.96875 6922.8674,90.944729 6924.0216,92.871807 6926.0938,90.375 6927.0847,89.181033 6927.4942,85.876694 6927.5,79.1875 L 6927.5312,69.6875 6934,64.75 6940.5,59.84375 6940.1875,50.65625 6939.875,41.5 6944.375,38.6875 C 6949.4204,35.549169 6951.4038,35.917702 6954.4062,40.5 6956.3693,43.495855 6955.8083,48.352551 6952.8438,54.25 6951.2874,57.346052 6951.1884,58.319049 6952.2188,59.96875 6954.0227,62.857368 6958.9408,64.133988 6963.0312,63.6875 L 6962.375,60.9375 z M 6948.3438,24.15625 C 6949.2792,23.988777 6950.0581,24.643034 6951.5625,26.5 6954.1137,29.649025 6956.5698,35.742806 6955.6562,36.65625 6955.362,36.950498 6954.1016,36.474849 6952.8438,35.59375 6949.7975,33.460106 6948.9209,33.563482 6944.5938,36.5 6942.5677,37.875 6940.7194,39 6940.4688,39 6938.1645,39 6944.0939,26.514711 6947.3125,24.59375 6947.6874,24.369966 6948.0319,24.212074 6948.3438,24.15625 z M 6942.4375,66.34375 C 6941.624,66.031562 6939.0204,67.403484 6936.5,69.46875 6932.2336,72.964765 6932.0035,73.386218 6932,78.3125 6931.9975,81.72683 6931.315,84.624393 6930,86.78125 6928.902,88.582043 6928,90.494543 6928,91.03125 6928,91.567956 6928.6867,92 6929.5312,92 6931.6444,92 6935,83.774157 6935,78.59375 6935,75.209895 6935.5961,73.804439 6937.9688,71.53125 L 6940.9375,68.6875 6942,71.46875 C 6942.8254,73.639665 6942.593,75.793858 6941.0312,81.3125 6939.9316,85.198354 6939.285,88.597535 6939.5625,88.875 6940.8283,90.140831 6943.8342,84.96298 6944.8125,79.84375 6946.0126,73.56417 6944.9145,67.294232 6942.4375,66.34375 z M 6964.875,71.5625 C 6963.3662,72.013374 6961.669,71.667792 6958.5,70.5625 6953.5824,68.847316 6952.3783,69.694348 6951.5625,75.3125 6951.2277,77.618338 6950.1898,81.839794 6949.2812,84.6875 6947.387,90.624756 6948.1689,92.438916 6953,93.5 6955.9045,94.137931 6962.5558,91.494702 6966.2812,88.21875 6966.5533,87.979511 6966.7667,87.84028 6967,87.6875 L 6967.25,84.28125 C 6966.3592,84.4717 6965.5426,84.83341 6964.9375,85.5625 6963.1588,87.705737 6956.5381,91 6954,91 6951.0769,91 6950.6588,88.989619 6952.375,83.375 6953.1941,80.695434 6954.1294,77.228021 6954.4688,75.65625 6954.9692,73.338466 6955.4937,72.874185 6957.2812,73.28125 6962.1028,74.379287 6964.1001,74.813469 6965.5625,74.5 L 6964.875,71.5625 z M 6966.3438,97.375 6966.5312,94.34375 6963.1562,95.90625 C 6960.5977,97.09564 6956.025,98.250068 6953,98.46875 6949.975,98.687433 6947.275,98.915603 6947,98.96875 6946.725,99.021896 6947.2934,99.648697 6948.25,100.375 6950.3908,102.00046 6957.7509,101.04344 6963.2812,98.40625 6964.5918,97.781264 6965.4412,97.544506 6966.3438,97.375 z"/>
</svg>
