<svg xmlns="http://www.w3.org/2000/svg"
     width="38.4" height="64.0"
     viewBox="7208.2198 18.9589 51.2685 85.4550">
  <path d="M 7233.6721,96.423013 C 7229.8882,93.851762 7227.9941,93.447905 7226.4502,94.883145 7224.9434,96.283918 7216.2633,97.234713 7215.548,96.077344 7215.2018,95.517109 7215.7244,93.58302 7216.7093,91.779368 7219.4607,86.741083 7219.1653,55.235992 7216.2426,42 7215.0888,36.775 7213.7268,31.375 7213.2161,30 7212.2198,27.318018 7212.61,25 7214.0579,25 7219.8779,25 7225.5145,78.62643 7220.955,90.618794 7220.3043,92.330302 7220.5348,92.906551 7222.0263,93.296569 7223.0715,93.569898 7224.4483,93.164986 7225.0859,92.396765 7226.6194,90.548938 7231.4331,90.611727 7233.0002,92.5 7235.5425,95.563288 7237.1642,94.305479 7236.5458,89.75 7234.0931,71.681842 7233.3343,46.152915 7234.9631,36.5 7236.0066,30.316028 7235.0076,28.973681 7231.0861,31.290188 7229.4941,32.230585 7227.2642,33 7226.1307,33 7223.7052,33 7217.0002,27.41626 7217.0002,25.396408 7217.0002,22.958853 7221.5713,23.763236 7222.7787,26.413265 7224.6046,30.420624 7227.6563,30.627421 7232.6828,27.084415 7235.1236,25.363987 7237.5882,24.245344 7238.1596,24.598542 7238.8424,25.020478 7238.9591,28.587768 7238.5002,35 7238.0298,41.572613 7238.151,44.975189 7238.8716,45.420507 7240.1206,46.192419 7245.0648,43.831962 7246.9455,41.565937 7248.5457,39.637836 7251.0002,39.515592 7251.0002,41.363999 7251.0002,42.708229 7246.3663,46.103098 7240.5002,49.056451 7236.8794,50.879404 7235.9619,54.535676 7238.8919,55.465635 7242.6786,56.667484 7248.1811,52.615125 7251.4053,46.25 7253.4455,42.222247 7255.4883,41.896503 7254.5409,45.75 7254.169,47.2625 7253.2093,49.513348 7252.4082,50.751884 7250.3593,53.919574 7243.2703,58.401549 7240.2243,58.455063 7236.1932,58.525886 7236.4984,60.703329 7240.8506,62.923656 7244.867,64.972678 7247.3447,67.785148 7250.3962,73.759031 7253.4161,79.671114 7249.1255,83.001566 7243.0002,79.5 7241.6252,78.713979 7240.1142,78.054925 7239.6423,78.035435 7239.1705,78.015946 7239.1019,82.435013 7239.4899,87.855584 7240.3083,99.290029 7239.5451,100.41385 7233.6721,96.423013 z M 7248.0002,76.179999 C 7248.0002,73.902207 7241.3416,66 7239.4223,66 7238.4354,66 7238.0002,67.196055 7238.0002,69.907949 7238.0002,73.238105 7238.4807,74.112959 7241.2502,75.825103 7245.4198,78.402804 7248.0002,78.538475 7248.0002,76.179999 z"/>
</svg>
