<svg xmlns="http://www.w3.org/2000/svg"
     width="34.7" height="64.0"
     viewBox="1979.8104 15.0000 49.0170 90.4434">
  <path d="M 2009.2032,94.75 C 2007.6249,90.47154 2006.4718,89.05334 2002.9725,87.086344 L 1998.6785,84.672687 1996.3312,87.586344 C 1988.146,97.746512 1984.7229,99.181426 1984.186,92.677444 1983.8104,88.127295 1988.7431,76.743148 1991.7989,75.107716 1993.6003,74.143671 1993.7347,73.289168 1993.2673,65.773263 1992.9051,59.94782 1993.2309,55.636248 1994.3684,51.200798 L 1995.984,44.901596 1993.2986,39.700798 C 1991.3478,35.922865 1990.6022,32.963435 1990.5733,28.883613 1990.5303,22.817629 1991.852,20.249651 1994.9015,20.474307 1997.9132,20.69619 1999.5289,22.542191 2002.9143,29.629605 2006.6188,37.384924 2006.6985,37.360849 2013.5149,26.424299 2016.06,22.340935 2018.5052,19 2018.9488,19 2022.5969,19 2022.9217,32.065475 2019.4518,39.234924 2017.6406,42.977155 2011.3771,48 2008.5216,48 2007.5484,48 2006.9707,48.990908 2006.9182,50.75 2006.8732,52.2625 2006.6434,56.096042 2006.4076,59.268981 2005.9578,65.323458 2007.7826,70 2010.595,70 2012.1634,70 2017.9768,60.371186 2017.9908,57.75 2018.0049,55.126527 2021.4549,55.612521 2022.9745,58.452049 2024.8274,61.914204 2023.538,71.343682 2020.4582,76.854085 2018.4054,80.526884 2018.1407,81.849454 2018.9047,84.616392 2019.4112,86.450753 2019.667,88.749985 2019.4731,89.725797 2018.2665,95.799277 2017.8405,97.01689 2016.4273,98.430073 2013.4139,101.44343 2011.2695,100.35101 2009.2032,94.75 z M 1993.6677,87.027321 C 1996.5618,82.729894 1996.9821,81.445642 1996.2314,79.193616 1995.7376,77.712127 1994.696,76.5 1993.9169,76.5 1992.0485,76.5 1986.0002,88.503832 1986.0002,92.211862 1986.0002,94.961063 1986.1106,95.036069 1988.1032,93.640409 1989.2598,92.83026 1991.7639,89.854371 1993.6677,87.027321 z M 2012.6957,83.500745 C 2013.8729,82.676155 2015.7802,80.474022 2016.934,78.607117 2020.4133,72.977535 2023.403,61 2021.3289,61 2020.1352,61 2017.0002,64.27364 2017.0002,65.520129 2017.0002,68.081992 2012.8549,71.999998 2010.1776,71.968575 2006.1446,71.921239 2003.6728,67.850039 2003.5685,61.082778 2003.4727,54.869654 2004.5217,44.145162 2005.3015,43.365346 2005.5787,43.088189 2006.7097,43.426164 2007.815,44.116401 2010.9888,46.09846 2016.1887,41.571886 2018.3204,34.971376 2021.5724,24.902334 2019.8581,21.237931 2015.3335,28.586549 2013.7752,31.117454 2011.2884,34.60835 2009.8072,36.344097 2006.2849,40.471852 2004.6778,39.503822 2000.0268,30.452744 1998.0872,26.67819 1995.9787,23.433351 1995.3413,23.24199 1991.888,22.205245 1993.2521,34.736315 1997.1954,40.274076 1999.0295,42.849911 1999.081,43.471092 1997.8591,48.283244 1997.1306,51.15246 1996.5498,58 1996.5684,63.5 1996.5966,71.796958 1996.9746,74.212539 1998.7879,77.683918 2002.4068,84.611887 2007.8557,86.890827 2012.6957,83.500745 z M 2016.025,94.4349 C 2017.0933,91.624839 2017.3387,85.67184 2016.4239,84.756991 2016.1069,84.440003 2014.5186,84.927503 2012.8944,85.840325 2009.8186,87.56888 2009.7199,88.502422 2011.9834,94.455897 2013.2194,97.706717 2014.7841,97.698588 2016.025,94.4349 z"/>
</svg>
