<svg xmlns="http://www.w3.org/2000/svg"
     width="35.8" height="64.0"
     viewBox="3901.7914 17.8896 49.0683 87.8176">
  <path d="M 3937.2396,98.347208 C 3935.4463,97.46322 3932.6776,95.257655 3931.0869,93.445953 3928.0256,89.959293 3923.1647,87 3920.4988,87 3918.6857,87 3916.0002,92.651894 3916.0002,96.467881 3916.0002,101.70729 3908.9837,97.86614 3907.4793,91.803107 3906.6888,88.617793 3908.3153,83.140489 3911.1044,79.594718 3912.8458,77.380888 3912.957,76.553442 3911.9943,72.97802 3911.3891,70.730472 3911.1859,66.944171 3911.5429,64.564018 3911.9572,61.801359 3911.7901,59.988178 3911.0809,59.549852 3908.8429,58.166737 3906.8014,51.298219 3906.2747,43.380046 3905.7914,36.11501 3906.0065,34.666029 3908.3177,29.617726 3910.9417,23.886164 3913.2898,21.889646 3915.1818,23.781578 3915.9113,24.511102 3915.848,26.31492 3914.9731,29.728501 3913.6155,35.025889 3914.2605,42.606155 3916.3072,45.405102 3918.2344,48.040792 3923.5466,45.018132 3924.3889,40.806525 3925.944,33.031152 3932.9566,25.441859 3940.2502,23.640926 3943.5993,22.813956 3943.689,23.720134 3940.7502,28.69284 3938.7463,32.08353 3938.4966,33.866589 3938.4671,44.992673 3938.43,59.037541 3937.9154,59.884854 3931.5157,56.438398 3925.9083,53.418607 3924.2465,55.67391 3924.7395,65.634686 3924.8771,68.41426 3928.4991,76.339273 3930.3242,77.853958 3931.4651,78.800775 3932.0726,78.538512 3933.3877,76.531414 3935.5692,73.202012 3939.6144,70.637978 3941.5275,71.372083 3942.9157,71.904806 3942.9165,72.261226 3941.5352,74.932375 3938.7018,80.411462 3940.1143,89.605278 3944.6103,94.948475 3946.0036,96.604296 3946.8597,98.41827 3946.5129,98.979529 3945.5781,100.49204 3940.9507,100.17651 3937.2396,98.347208 z M 3914.5002,53 C 3915.9175,50.259241 3915.9034,49.719155 3914.3368,46.75 3913.1721,44.542293 3912.6026,41.046135 3912.5612,35.848537 3912.5276,31.640233 3912.1971,28.383026 3911.8267,28.6103 3911.4562,28.837573 3910.4261,31.212265 3909.5376,33.887393 3908.1927,37.936494 3908.1032,39.885201 3909.0035,45.520461 3909.9975,51.742892 3911.4218,56 3912.5097,56 3912.7512,56 3913.647,54.65 3914.5002,53 z M 3914.0039,92.190983 C 3914.006,91.260942 3914.8699,89.08604 3915.9236,87.357867 3917.6408,84.541793 3917.6864,83.997001 3916.3632,82.107867 3914.3755,79.270016 3913.3354,79.451164 3911.5259,82.95034 3909.7187,86.444977 3909.5266,92.126381 3911.1603,93.760081 3912.6026,95.202411 3913.999,94.431908 3914.0039,92.190983 z M 3942.0002,96.2 C 3942.0002,95.76 3941.5271,94.926923 3940.9489,94.348719 3939.154,92.553824 3936.9969,82.678297 3937.5963,79 L 3938.1666,75.5 3934.8305,79.326716 3931.4943,83.153431 3929.0357,80.326716 C 3922.2041,72.47225 3920.0517,62.153874 3923.6644,54.577887 3925.8814,49.928938 3927.8356,49.342907 3930.7261,52.46022 3935.0677,57.142458 3935.9722,55.982743 3935.3089,46.584062 3934.8522,40.112254 3935.1075,36.968202 3936.414,32.97378 3937.3484,30.11689 3937.8885,27.554971 3937.6142,27.280626 3936.6855,26.351969 3930.9798,31.138837 3929.4199,34.155239 3928.5674,35.803898 3927.5505,39.023181 3927.1603,41.309201 3926.6735,44.160743 3925.7543,45.812813 3924.2323,46.571582 3919.0253,49.167555 3915.9249,54.19026 3914.4001,62.5 3913.5983,66.868894 3913.651,67.652472 3915.1285,73.340635 3916.3612,78.086321 3923.1649,85.657632 3926.9424,86.487296 3928.5346,86.83702 3931.146,88.842365 3932.9784,91.12251 3936.518,95.527091 3942.0002,98.612474 3942.0002,96.2 z"/>
</svg>
