<svg xmlns="http://www.w3.org/2000/svg"
     width="27.8" height="64.0"
     viewBox="2312.1208 18.2881 36.3794 83.7119">
  <path d="M 2323.9901,92.359232 C 2325.6457,89.256809 2327.0002,85.640976 2327.0002,84.324048 2327.0002,82.224715 2326.7491,82.064034 2324.9624,83.020215 2322.7243,84.218045 2319.0002,83.471006 2319.0002,81.824204 2319.0002,81.226442 2320.016,81.038123 2321.3858,81.381926 2326.8754,82.759722 2327.2829,75.944002 2321.8049,74.372927 2317.5212,73.144359 2316.6114,70.53606 2320.7865,71.453065 2324.5189,72.272837 2325.0153,71.531538 2324.3009,66.204974 2323.8282,62.680628 2323.3733,62 2321.491,62 2319.1647,62 2316.5565,59.777019 2317.6269,58.706602 2317.9621,58.371443 2319.5332,58.356597 2321.1183,58.673611 2323.9884,59.247647 2324.0002,59.229479 2324.0002,54.222825 2324.0002,49.531254 2323.799,49.125528 2320.987,48.145248 2318.1135,47.143519 2316.1208,44.546083 2317.312,43.354873 2317.6194,43.047494 2318.9001,43.516902 2320.158,44.398001 2321.416,45.2791 2322.7489,46 2323.1201,46 2323.7251,46 2326.0002,35.073689 2326.0002,32.168087 2326.0002,31.525639 2324.9233,31 2323.6072,31 2322.291,31 2320.9304,30.260592 2320.5837,29.356872 2319.6987,27.050741 2320.7501,26.362723 2323.0061,27.77164 2325.441,29.292238 2327.3689,28.548055 2329.0286,25.446963 2330.7191,22.288133 2333.7306,22.314089 2335.1822,25.5 2335.954,27.194096 2337.1254,28 2338.8157,28 2341.2835,28 2341.2899,28.022381 2339.4167,30.09224 2337.8726,31.798452 2337.5831,33.412866 2337.8477,38.84224 2338.2173,46.428935 2339.1235,48.028602 2342.0252,46.216486 2343.682,45.181788 2344.0002,45.240099 2344.0002,46.57839 2344.0002,47.455826 2342.6683,48.676474 2341.0404,49.290941 2338.2749,50.334779 2338.0846,50.746483 2338.1421,55.559609 2338.2123,61.441028 2339.1408,63.543754 2341.3015,62.714618 2342.1282,62.397369 2343.0698,62.402892 2343.3938,62.726892 2344.3657,63.698799 2341.8937,66 2339.8778,66 2338.4052,66 2338.0002,66.741373 2338.0002,69.436642 2338.0002,72.567389 2338.2895,72.90792 2341.2502,73.262419 L 2344.5002,73.651556 2341.2502,75.045015 C 2337.0849,76.830923 2336.836,80.14933 2340.7502,81.711326 2343.4606,82.79292 2343.4678,82.819001 2341.2502,83.520999 2339.9654,83.927706 2339.0002,85.041216 2339.0002,86.116631 2339.0002,88.502881 2337.3669,88.553631 2336.1107,86.206413 2335.5647,85.186216 2335.1985,74.082881 2335.2615,60.456413 2335.3688,37.250687 2334.3815,26.971696 2331.8978,25.436742 2329.7447,24.106046 2326.0907,40.98176 2326.0379,52.5 2325.9987,61.058579 2327.642,76.198579 2329.1486,81.158294 2330.2251,84.702514 2330.0321,85.975338 2327.4477,92.374444 2326.721,94.174012 2326.7952,94.180399 2329.3074,92.534345 2331.4956,91.100633 2332.4906,91.006732 2335.3822,91.961053 2339.2788,93.247046 2342.2738,96 2339.7763,96 2338.9684,96 2336.8963,95.296018 2335.1716,94.435596 2332.1688,92.937627 2331.8929,92.980093 2328.6735,95.435596 2326.8244,96.846018 2324.3369,98 2323.1457,98 2321.0246,98 2321.042,97.883925 2323.9901,92.359232 z"/>
</svg>
