<svg xmlns="http://www.w3.org/2000/svg"
     width="64.0" height="58.8"
     viewBox="3625.1037 18.3616 92.6800 85.0804">
  <path d="M 3692.1604,92.024113 3688.8206,87.099797 3689.1578,74.597338 C 3689.3598,67.109974 3689.095,61.727273 3688.4976,61.178447 3687.949,60.674409 3684.5317,57.775122 3680.9036,54.735587 L 3674.307,49.20916 3671.4036,51.452488 C 3666.6846,55.098618 3663.3543,55.469995 3661.4492,52.562518 3660.0876,50.484516 3660.0095,49.278585 3660.9461,44.801125 3661.556,41.885506 3663.0668,37.7 3664.3035,35.5 3666.3521,31.855397 3666.9558,31.473566 3671.0979,31.202484 3674.9769,30.948622 3676.367,31.429058 3680.5721,34.476844 3683.2825,36.441376 3687.3644,38.93747 3689.643,40.02372 3693.8213,42.01567 3695.0002,43.568867 3695.0002,47.081787 3695.0002,49.914368 3696.6421,49.414848 3698.6819,45.96167 3700.7892,42.394361 3703.9725,42.297128 3705.4889,45.753752 3706.8144,48.774935 3708.1853,48.108994 3709.8966,43.612679 3711.153,40.311589 3711.1275,39.490178 3709.6741,36.442253 3707.7439,32.394733 3705.4219,32.057626 3697.8926,34.731812 3693.2093,36.395181 3692.8783,36.389158 3689.5178,34.579404 3687.5935,33.543083 3684.5765,31.407354 3682.8135,29.833339 3674.4446,22.361564 3661.3591,24.655226 3657.5067,34.269202 3656.2682,37.359831 3655.9041,40.655942 3656.1558,46.5 3656.4837,54.116374 3656.3941,54.515083 3654.2884,54.814544 3653.0719,54.987544 3650.1074,53.975044 3647.7005,52.564544 3642.1699,49.323383 3640.9956,49.351549 3637.6873,52.804719 3635.2777,55.319746 3635.0002,56.355937 3635.0002,62.836837 3635.0002,70.733257 3633.0215,77 3630.5282,77 3629.1037,77 3629.1063,76.767653 3630.5561,74.555038 3631.6974,72.813115 3632.1581,69.744728 3632.1581,63.884079 3632.1581,55.856799 3632.2468,55.554294 3635.8291,51.361834 3637.8482,48.998899 3640.2418,47.050831 3641.1481,47.032794 3642.0545,47.014757 3644.7545,48.11958 3647.1481,49.487955 3649.5418,50.85633 3651.7827,51.98133 3652.1279,51.987955 3652.4731,51.99458 3652.9471,47.994564 3653.1811,43.09903 3653.6625,33.029861 3655.4538,29.325789 3661.8691,25.133182 3665.029,23.068111 3666.3518,22.82797 3672.2444,23.249585 3677.4066,23.61894 3679.882,24.352822 3682.7491,26.363997 3684.8122,27.811151 3688.1131,30.13266 3690.0845,31.522904 L 3693.6687,34.050621 3698.0845,32.047272 C 3704.4127,29.176268 3707.3346,29.420289 3710.4113,33.076725 3713.5928,36.857757 3713.7837,41.543978 3710.9799,47.039838 3708.598,51.708671 3705.3949,52.420665 3704.4108,48.5 3703.5497,45.068903 3701.9342,45.376405 3699.1213,49.506833 3697.8129,51.428075 3696.1412,53 3695.4065,53 3693.7111,53 3692.0002,49.848787 3692.0002,46.726256 3692.0002,45.121848 3691.1556,43.936224 3689.4636,43.165279 3688.0685,42.529616 3684.5401,40.207385 3681.6227,38.004764 3676.0061,33.764161 3671.0138,32.775123 3667.7177,35.25 3665.6052,36.836117 3663.0002,44.222308 3663.0002,48.625727 3663.0002,52.834016 3665.1228,53.084628 3670.4051,49.5 3672.4312,48.125 3674.5591,47 3675.1336,47 3676.1677,47 3680.432,50.647004 3688.7199,58.619518 3692.6375,62.388006 3692.9384,63.02709 3692.2513,66.119518 3691.8382,67.978783 3691.5002,73.55 3691.5002,78.5 3691.5002,86.62603 3691.7672,87.910779 3694.2502,91.730128 3697.1521,96.193883 3697.4656,97.016001 3696.2502,96.974215 3695.8377,96.960032 3693.9973,94.732487 3692.1604,92.024113 z M 3664.0002,96.603478 C 3664.0002,95.208885 3664.7487,92.498267 3665.6635,90.579882 3667.2913,87.166263 3667.2697,87.005662 3664.6493,83.045955 3663.1767,80.82068 3661.5216,79 3660.9713,79 3660.421,79 3659.0957,80.438979 3658.0261,82.197731 3656.0975,85.369167 3656.0978,85.421829 3658.0631,88.6018 3659.7294,91.297983 3659.8566,92.221171 3658.862,94.404068 3658.0793,96.121849 3656.8878,97 3655.3397,97 3654.053,97 3653.0002,96.602941 3653.0002,96.117647 3653.0002,95.632353 3651.2002,93.435294 3649.0002,91.235294 3646.8002,89.035294 3645.0002,86.283617 3645.0002,85.120456 3645.0002,83.957295 3647.0354,80.24098 3649.5229,76.861978 3654.1795,70.536427 3654.415,69.085767 3651.5311,64.491235 3650.8376,63.386414 3649.0689,61.839521 3647.6005,61.053694 3645.1855,59.761207 3644.7446,59.811135 3642.9786,61.577109 3641.8343,62.721493 3640.7646,65.592212 3640.3937,68.51465 3639.7405,73.660253 3637.7081,78 3635.9515,78 3635.3995,78 3635.6346,76.673919 3636.4745,75.04966 3637.3136,73.426973 3638.0002,70.121717 3638.0002,67.704647 3638.0002,64.579967 3638.5782,62.786921 3640.0002,61.5 3641.1002,60.504514 3642.0002,59.070646 3642.0002,58.313628 3642.0002,55.669293 3644.7692,55.911769 3649.2716,58.950367 3653.6542,61.908206 3656.0002,65.824988 3656.0002,70.184407 3656.0002,72.201611 3653.9991,75.75776 3650.2931,80.326725 3649.032,81.881424 3648.0002,83.793409 3648.0002,84.57558 3648.0002,86.624027 3655.6996,94.295344 3656.4832,93.027566 3657.3055,91.697023 3656.1654,88 3654.9328,88 3652.8693,88 3654.1899,82.646632 3657.1676,78.941362 3658.9096,76.773613 3660.6171,75 3660.9621,75 3661.307,75 3663.3137,77.261326 3665.4215,80.02517 3669.3878,85.226198 3669.4869,85.90922 3667.4481,94 3667.0974,95.391638 3668.1885,94.188142 3669.9091,91.285418 3673.7413,84.820537 3673.7549,83.35355 3670.0277,78.428139 3668.3928,76.267663 3666.7878,73.144717 3666.4611,71.48826 3665.7759,68.014669 3668.6512,60.473848 3671.6996,57.749817 3673.5836,56.066203 3673.8643,56.143476 3679.0791,59.781418 3685.0992,63.981042 3685.8471,65.903698 3684.0112,72.460644 3683.1361,75.586155 3683.1247,78.171792 3683.9654,82.808055 3685.0743,88.923381 3685.0515,89.041727 3681.8092,93.994385 3680.0069,96.747473 3678.1875,99 3677.7662,99 3676.5424,99 3676.8518,97.975646 3679.241,94.118034 3681.2489,90.876163 3681.4871,89.165438 3681.533,77.663826 L 3681.5841,64.827653 3678.7154,62.413826 C 3677.1377,61.086222 3675.276,60 3674.5785,60 3672.3301,60 3669.8455,63.734365 3669.2778,67.966795 3668.8084,71.466832 3669.1889,72.734923 3671.7999,76.370622 3676.5075,82.925806 3676.5505,84.57731 3672.2067,92 3669.6188,96.422202 3667.6992,98.602148 3666.2015,98.819551 3664.4278,99.077024 3664.0002,98.646516 3664.0002,96.603478 z M 3683.0002,98.110784 C 3683.0002,97.621715 3683.8421,96.181883 3684.8711,94.911157 3686.683,92.673488 3686.8247,92.654984 3689.3711,94.323426 3692.5434,96.402027 3693.0005,98.605715 3689.917,96.95548 3688.278,96.078333 3687.4616,96.177452 3686.0883,97.420296 3684.1346,99.188368 3683.0002,99.442012 3683.0002,98.110784 z"/>
</svg>
