<svg xmlns="http://www.w3.org/2000/svg"
     width="47.0" height="64.0"
     viewBox="4576.6250 17.3812 49.3478 67.1677">
  <path d="M 4587.9062 65.34375 L 4584.5938 68.6875 C 4585.562 68.70186 4586.9957 69.264895 4589.1562 70.5 C 4594.6494 73.640315 4596.1051 73.631026 4599.9375 70.40625 C 4605.0146 66.134182 4605.367 64.778025 4603.9688 54.59375 C 4602.0491 40.612239 4605.2622 26 4610.25 26 C 4613.4998 26 4614.3711 30.531024 4613.125 41 C 4611.4317 55.227169 4611.591 57.137705 4615 61.84375 C 4616.65 64.121508 4618 66.445238 4618 67 C 4618 68.517272 4615.4273 68.213391 4614.0312 66.53125 C 4612.2664 64.404732 4609.4647 66.168651 4607 71 C 4605.8928 73.170277 4603.6485 75.632417 4602.0312 76.46875 C 4595.7208 79.732058 4583 76.082398 4583 71 C 4583 70.780014 4583.077 70.689322 4583.0938 70.5 L 4580.625 73.6875 L 4580.7188 74.15625 L 4582.8125 75.84375 C 4586.8054 79.048631 4589.4745 79.966864 4595.8438 80.25 C 4602.569 80.548956 4606.0252 78.756652 4609.2188 73.34375 C 4610.737 70.770688 4611.8071 69.97459 4613.2188 70.34375 C 4616.0768 71.091136 4620.8223 69.108667 4621.5312 66.875 C 4621.9728 65.48354 4621.1038 63.729256 4618.4688 60.8125 L 4614.75 56.71875 L 4615.5938 49.09375 C 4617.5146 32.017501 4616.2631 24.601962 4611.25 23.34375 C 4603.4308 21.381239 4598.6168 38.714237 4601.4062 58.78125 C 4602.2155 64.602771 4602.1192 65.242241 4599.9688 67.53125 C 4598.6929 68.889466 4596.8128 70 4595.7812 70 C 4593.162 70 4588.0251 67.19333 4587.9375 65.71875 C 4587.9351 65.677869 4587.9092 65.399771 4587.9062 65.34375 z "/>
</svg>
