<svg xmlns="http://www.w3.org/2000/svg"
     width="21.9" height="64.0"
     viewBox="4301.9688 18.8320 30.1448 87.9083">
  <path d="M 4306.5938 55.875 L 4306.4688 60.25 C 4306.5852 60.223435 4307.0636 60 4307.125 60 C 4308.6424 60 4308.0982 66.414837 4306.375 68.875 C 4306.3112 68.96605 4306.2492 69.009761 4306.1875 69.09375 L 4305.9688 73.9375 C 4306.0225 73.939722 4306.0397 73.935322 4306.0938 73.9375 C 4307.4288 73.991282 4307.8263 75.966518 4308.4062 85.75 C 4308.7895 92.2125 4309.3491 98.5125 4309.6562 99.75 C 4310.3985 102.74034 4312.7706 102.60967 4314.1875 99.5 C 4315.3779 96.887269 4317.4147 96.236653 4318.5625 98.09375 C 4319.0455 98.875263 4319.5244 98.850676 4320.3125 98.0625 C 4321.1077 97.267296 4320.8121 96.544148 4319.1875 95.40625 C 4317.3002 94.084297 4317.0359 93.250127 4317.5938 90.15625 C 4318.5183 85.027695 4318.936 84.643987 4321.125 86.625 C 4322.5585 87.922291 4323.3435 88.06274 4324.1875 87.21875 C 4325.0314 86.374759 4324.5031 85.617176 4322.1562 84.28125 C 4319.4321 82.7304 4319.0055 81.937373 4319 78.40625 C 4318.9921 73.300195 4319.595 72.681726 4322.6562 74.6875 C 4324.4217 75.844275 4325.3941 75.980873 4326.1875 75.1875 C 4326.9809 74.394127 4326.2981 73.634825 4323.6562 72.375 C 4320.0871 70.672968 4320 70.520192 4320 64.90625 C 4320 59.35164 4320.1057 59.135708 4323 58.5 C 4327.5397 57.502931 4328.1136 55.557906 4323.6562 56.28125 C 4320.0043 56.873868 4320.0137 56.871002 4320 53.1875 C 4319.9925 51.159579 4319.7069 48.488638 4319.375 47.25 C 4318.8713 45.370523 4319.3563 44.761307 4322.375 43.5 C 4324.3645 42.668757 4326 41.542619 4326 41 C 4326 39.738565 4325.6461 39.739857 4322.4688 41.1875 C 4320.3333 42.160493 4319.6821 42.114365 4318.9375 40.9375 C 4316.9998 37.874845 4317.925 34.198123 4321.1875 31.875 C 4323.0315 30.561942 4323.8407 29.457312 4323.125 29.21875 C 4322.4475 28.992907 4321.0449 29.55148 4320.0312 30.46875 C 4318.0445 32.266766 4317.6256 31.939212 4316.6562 27.875 C 4315.4533 22.832003 4310.3737 23.164332 4309.5938 28.34375 C 4309.3326 30.078147 4308.851 36.649755 4308.5312 42.9375 C 4308.2105 49.249505 4307.4208 54.979378 4306.7812 55.75 C 4306.761 55.774364 4306.618 55.848744 4306.5938 55.875 z M 4313.4375 28.09375 C 4314.4216 28.911526 4315.1611 32.88909 4315.9688 41 C 4317.608 57.463135 4317.4365 77.057073 4315.5625 85.8125 C 4314.7013 89.835957 4314 93.323457 4314 93.5625 C 4314 93.801543 4313.5999 94 4313.0938 94 C 4312.5876 94 4311.8555 91.048578 4311.4688 87.4375 C 4310.1084 74.735527 4310.795 29.892534 4312.375 28.3125 C 4312.7648 27.922714 4313.1095 27.821158 4313.4375 28.09375 z "/>
</svg>
