<svg xmlns="http://www.w3.org/2000/svg"
     width="34.3" height="64.0"
     viewBox="5920.1013 17.0000 45.5549 85.0000">
  <path d="M 5958.4688 86.5 C 5957.1346 86.110236 5955.7829 85.306961 5954.3125 83.75 C 5950.3146 79.516774 5949.2545 75.382804 5951.9375 74.53125 C 5955.2619 73.476131 5960 67.229758 5960 63.90625 C 5960 58.436778 5958.4871 56.908751 5953.8125 57.65625 L 5949.6875 58.3125 L 5950.25 54.125 C 5950.6313 51.282639 5952.1911 48.137269 5955.0938 44.375 C 5958.7607 39.621999 5959.4553 38.001173 5959.8125 33.0625 C 5960.2806 26.592106 5958.9248 23 5956 23 C 5954.932 23 5953.2964 24.2375 5952.375 25.75 C 5945.3013 37.36237 5943.8719 39.138592 5942.5 38 C 5941.7376 37.367258 5940.3359 34.532671 5939.4062 31.6875 C 5936.8767 23.945816 5935.1503 21 5933.0938 21 C 5927.5324 21 5927.6852 31.671605 5933.4062 43.25 C 5935.3844 47.253493 5937 51.562366 5937 52.84375 C 5937 54.17706 5935.0816 57.392595 5932.5 60.34375 C 5927.1652 66.442198 5924.1013 73.371278 5925.6875 75.84375 C 5926.7034 77.427125 5928.7398 77.686527 5933.9375 76.875 C 5936.1925 76.522909 5936.5034 76.976702 5937.75 82.5 C 5939.7008 91.143245 5947.0586 98 5954.375 98 C 5955.7107 98 5958.566 97.053165 5961.6562 95.75 L 5960.6562 92.84375 C 5960.2687 93.043612 5959.9571 93.257398 5959.5938 93.4375 C 5954.9583 95.735064 5954.4646 95.783112 5951.0938 94.375 C 5941.4933 90.364736 5938.3735 81.422565 5939.5625 61.09375 L 5940.2812 49.15625 L 5937 43.375 C 5934.4257 38.813648 5930 28.050402 5930 26.375 C 5930 26.205454 5930.8502 25.596454 5931.9062 25.03125 C 5933.6033 24.123044 5934.0441 24.558736 5935.5 28.75 C 5938.4186 37.152255 5941.1766 42 5943.0625 42 C 5944.9855 42 5952.6484 32.020527 5953.625 28.25 C 5954.3335 25.514724 5956.647 25.286236 5957.4688 27.875 C 5958.5955 31.425198 5956.0612 38.99539 5952.0312 44.09375 C 5947.2518 50.140227 5946.5 53.286128 5946.5 67.5 C 5946.5 79.986612 5947.8713 83.6402 5954.0625 87.8125 C 5955.8614 89.024755 5957.7219 89.58029 5959.5625 89.625 L 5958.4688 86.5 z M 5955.9375 60.15625 C 5956.8529 60.154934 5957 60.88238 5957 63.15625 C 5957 65.023019 5956.3394 67.502418 5955.5312 68.65625 C 5953.2155 71.962449 5950.2836 72.247293 5949.5312 69.25 C 5948.7211 66.022056 5949.8268 61.017696 5951.3438 61 C 5951.9875 60.99249 5953.5125 60.706637 5954.75 60.375 C 5955.2524 60.240347 5955.6324 60.156689 5955.9375 60.15625 z M 5935.4062 61 C 5935.7396 61 5936 63.413256 5936 66.375 C 5936 70.995008 5935.646 71.989415 5933.5312 73.375 C 5930.0395 75.662881 5927.9889 75.436147 5928.0312 72.75 C 5928.079 69.715142 5933.5534 61 5935.4062 61 z "/>
</svg>
