<svg xmlns="http://www.w3.org/2000/svg"
     width="64.0" height="58.7"
     viewBox="3438.9688 65.7929 41.6565 38.2071">
  <path d="M 3443.375 89.375 L 3442.9688 92.25 C 3443.6669 92.445428 3446.1456 93.967134 3449 96.03125 C 3452.0179 98.213508 3454.8697 100 3455.3438 100 C 3455.8178 100 3457.7644 99.256326 3459.6875 98.34375 C 3462.8862 96.825891 3463.4301 96.805746 3465.875 98.25 C 3467.8368 99.408861 3469.0318 99.564148 3470.375 98.8125 C 3471.8876 97.965975 3472.0695 97.026879 3471.5312 93.4375 C 3471.0227 90.046204 3471.4432 87.70353 3473.4375 82.71875 C 3476.6218 74.759183 3476.6253 73.463775 3473.4375 71.375 C 3471.0229 69.792896 3470.7542 69.797359 3468.375 71.59375 C 3465.5433 73.731834 3463.892 76.337374 3461.0312 83.25 C 3458.6488 89.006651 3456.3859 89.375 3450.5625 84.96875 C 3447.8634 82.926568 3446.175 82.095062 3444.3125 82.3125 L 3443.9375 85.09375 L 3444.7188 84.625 L 3449.6875 87.8125 C 3452.4224 89.567457 3455.3169 90.987048 3456.0938 90.96875 C 3458.6919 90.907553 3462.0816 87.154516 3463.625 82.625 C 3465.3269 77.630229 3469.0712 73 3471.4375 73 C 3473.7397 73 3473.3698 76.641011 3470.3125 83.84375 C 3467.9742 89.352377 3467.7647 90.588081 3468.7812 93.28125 C 3470.4515 97.70595 3469.3996 98.074096 3464.7188 94.75 C 3463.2645 93.717207 3462.4232 93.811416 3459.9062 95.25 C 3455.6991 97.654565 3455.1752 97.546053 3449.125 93 C 3446.6802 91.162965 3444.5119 89.839131 3443.375 89.375 z "/>
</svg>
