<svg xmlns="http://www.w3.org/2000/svg"
     width="30.9" height="64.0"
     viewBox="7264.6922 17.6245 41.0301 84.9698">
  <path d="M 7275.2605,96.75 C 7274.719,96.0625 7273.9728,94.15 7273.6023,92.5 7273.2318,90.85 7271.9755,87.095552 7270.8105,84.156783 L 7268.6922,78.813566 7270.8693,74.656783 C 7272.0666,72.370552 7273.964,69.060365 7275.0856,67.30081 7276.817,64.584679 7276.9373,63.754212 7275.8824,61.80081 7273.9117,58.151879 7271.7536,49.040616 7271.2771,42.358306 7270.9131,37.254484 7271.275,35.295254 7273.4184,30.764401 7276.8496,23.511454 7279.0142,21.624535 7282.9194,22.48225 7289.2907,23.881621 7293.0856,32.64382 7293.5611,47.053478 7293.8991,57.293575 7294.0361,57.85239 7297.4558,62.934015 7301.5666,69.042687 7301.7223,70.036553 7298.9597,72.536679 7297.0064,74.304338 7296.7925,74.308497 7293.9576,72.633918 7290.4361,70.553686 7289.2768,71.093658 7287.3466,75.713354 7286.2843,78.255899 7286.0789,81.027933 7286.5779,86.091276 L 7287.2586,93 7284.2444,93 C 7282.1328,93 7280.7397,93.748571 7279.5922,95.5 7277.7632,98.291373 7276.7132,98.594361 7275.2605,96.75 z M 7279.5002,91 C 7279.8401,90.45 7280.9851,90 7282.0447,90 7283.797,90 7283.9366,89.37763 7283.5897,83.112874 7283.2612,77.181137 7283.5485,75.655206 7285.6609,72.112874 7288.2501,67.771071 7290.2405,67.110783 7293.4413,69.531803 7298.254,73.171891 7298.2314,69.485032 7293.4025,63.190009 7290.0326,58.796872 7289.8432,58.167604 7290.4114,53.24878 7291.1075,47.222262 7289.4341,34.772062 7287.3956,30.810704 7285.9509,28.0035 7282.3557,25 7280.44,25 7278.6078,25 7273.9981,35.553201 7274.0246,39.68705 7274.038,41.784173 7275.2004,47.325 7276.6078,52 7280.5198,64.995199 7280.5202,64.872107 7276.5513,70.837284 7272.3793,77.107704 7272.2713,78.376918 7275.2502,86.121252 7277.4906,91.945614 7278.3243,92.90267 7279.5002,91 z"/>
</svg>
