<svg xmlns="http://www.w3.org/2000/svg"
     width="46.1" height="64.0"
     viewBox="1217.2747 19.0000 63.2715 87.8804">
  <path d="M 1228.6677,100.18507 C 1227.7643,99.186852 1226.5321,96.955763 1225.9295,95.22709 1224.426,90.914213 1226.9848,82.298516 1231.0669,77.928548 1233.9105,74.8845 1234.15,74.067457 1234.2503,67.068427 L 1234.3588,59.5 1229.2849,54.498247 C 1222.9874,48.290339 1221.2747,43.192824 1223.0291,35.879621 1224.4984,29.754599 1227.9667,24.5 1230.54,24.5 1231.7843,24.5 1232.3617,25.047867 1232.121,26 1229.9644,34.531351 1231.3263,42.022081 1235.8158,46.323363 L 1238.5852,48.976617 1244.7076,45.354763 C 1250.2224,42.092394 1250.9444,41.27866 1251.9824,37.156276 1253.4442,31.35127 1261.3345,23 1265.3573,23 1267.3067,23 1268.0002,23.50929 1268.0002,24.940983 1268.0002,26.008524 1267.5502,27.160081 1267.0002,27.5 1265.5589,28.390782 1265.8358,42.514465 1267.4249,49.16091 1269.3241,57.10424 1266.8401,59.198771 1260.5002,55 1256.1299,52.105686 1254.2972,52.490046 1252.1557,56.75 1248.0879,64.841977 1248.725,74.774083 1253.5591,78.628695 L 1256.3065,80.819389 1261.93,74.909695 C 1267.2716,69.296205 1270.1465,67.809689 1271.482,69.970632 1271.812,70.50448 1271.3885,72.282133 1270.5411,73.920972 1269.6936,75.559812 1269.0002,78.416352 1269.0002,80.268839 1269.0002,85.219564 1271.6828,93.402751 1273.9902,95.490983 1276.5295,97.788969 1276.5462,99.637421 1274.0399,100.97877 1270.8117,102.70645 1264.3474,100.60582 1258.9896,96.088047 1256.3231,93.839621 1253.5109,92 1252.7403,92 1251.9697,92 1249.1254,90.876883 1246.4197,89.504185 1243.714,88.131487 1240.8024,87.006487 1239.9495,87.004185 1238.2634,86.999635 1234.697,93.550849 1233.555,98.750345 1232.7541,102.39682 1231.1069,102.88038 1228.6677,100.18507 z M 1237.3725,53.771537 C 1238.1722,52.503741 1237.5049,51.252528 1234.2286,47.877032 1231.9411,45.520238 1229.7953,42.221263 1229.4602,40.545976 1227.9161,32.826663 1226.5041,31.796884 1225.4161,37.596461 1224.4894,42.536243 1226.2995,47.778059 1230.5028,52.326857 1234.138,56.260838 1235.6074,56.569839 1237.3725,53.771537 z M 1236.5285,85.968689 C 1237.7268,84.644652 1237.7643,83.893011 1236.7415,81.698788 1234.9212,77.793703 1233.3513,77.695851 1231.0949,81.346843 1228.4459,85.632962 1227.548,91.753087 1229.0184,95.5 L 1230.1957,98.5 1232.635,93.037797 C 1233.9766,90.033585 1235.7287,86.852486 1236.5285,85.968689 z M 1272.0002,97.828741 C 1272.0002,97.184548 1271.383,95.947048 1270.6287,95.078741 1268.3471,92.452427 1265.7771,83.136577 1266.1771,78.942297 1266.3839,76.774034 1266.2505,75 1265.8807,75 1265.5109,75 1263.4316,77.104998 1261.2599,79.677772 L 1257.3116,84.355545 1253.6316,82.081229 C 1248.6093,78.97723 1246.6479,74.830943 1246.7018,67.431518 1246.7522,60.513511 1249.3191,53.795815 1253.3164,50.120747 L 1255.9043,47.741493 1259.029,50.370747 C 1262.6627,53.428309 1265.3761,53.853451 1264.6406,51.25 1263.4578,47.062605 1262.7323,40.00915 1262.8406,33.75 1262.9048,30.0375 1262.5399,27 1262.0297,27 1260.3146,27 1256.1934,33.457712 1254.7741,38.369149 1253.5811,42.497396 1252.5525,43.790777 1248.0142,46.869149 1244.1404,49.496798 1241.866,52.019647 1239.7825,56 1237.163,61.004255 1236.944,62.191986 1237.3523,69.17718 1237.6244,73.831991 1238.4595,77.965654 1239.4736,79.67718 1241.798,83.600044 1248.268,88.009124 1252.7466,88.722276 1255.3084,89.130193 1257.7058,90.55498 1260.2973,93.209614 1264.1351,97.141071 1267.0544,98.82086 1270.2502,98.936614 1271.2127,98.971476 1272.0002,98.472933 1272.0002,97.828741 z"/>
</svg>
