<svg xmlns="http://www.w3.org/2000/svg"
     width="52.1" height="64.0"
     viewBox="1279.4658 43.0000 52.1119 64.0489">
  <path d="M 1311.0312,47 1301.4062,48.875 C 1301.4044,49.588514 1301.4021,50.271593 1301.0625,50.90625 1299.677,53.494995 1298.9282,53.507348 1294.25,51 1288.2036,47.759349 1285.9145,48.520696 1284.4688,54.28125 1283.4658,58.276861 1286.1878,61 1291.2188,61 1293.3696,61 1296.0646,60.507203 1297.1875,59.90625 1298.6263,59.136248 1299.534,59.127627 1300.2812,59.875 1301.7898,61.383422 1301.5394,70.371769 1299.7812,78.15625 1298.7504,82.720549 1298.5452,86.31768 1299.0938,89.65625 1299.5329,92.328248 1299.9047,94.94438 1299.9375,95.5 1299.9703,96.05562 1301.1339,97.74312 1302.5312,99.25 1305.5932,102.55212 1310.6127,102.94383 1314.0938,100.125 1314.8275,99.530845 1315.6071,99.245433 1316.4375,99 L 1318,90.78125 1318,89.1875 1318.2812,89.21875 1319.0938,85 1319.4062,84.625 C 1318.2753,82.848265 1317.3765,80.368001 1316.5,76.53125 1314.5378,67.942044 1314.2862,64.932958 1315.3125,60.84375 1315.9222,58.414823 1316.2649,58.263307 1319.5312,59 1325.2654,60.293248 1327.5777,56.034386 1323.75,51.25 1322.5877,49.797244 1319.1155,49.63815 1317.0625,50.9375 1315.3365,52.029873 1311.1101,49.257023 1311.0312,47 z M 1306.375,49.21875 C 1307.2855,49.100077 1308.3456,49.920195 1310.125,51.625 1312.7272,54.118082 1312.8294,54.586291 1312.2812,61.125 1311.8415,66.370723 1312.2394,70.226532 1313.9688,77.40625 1316.1942,86.64489 1316.2097,86.93404 1314.4688,92.46875 1313.4934,95.569528 1311.8868,98.506432 1310.9062,99.03125 1303.3992,103.0489 1298.8893,89.782804 1303.0312,75.875 1305.3296,68.157531 1305.2865,60.243028 1302.9062,57.375 1301.9853,56.265418 1302.1314,55.184173 1303.5938,52.46875 1304.7155,50.385814 1305.4645,49.337423 1306.375,49.21875 z M 1288.8438,52.34375 C 1290.0066,52.092032 1291.6544,52.418939 1293.5938,53.34375 1297.4605,55.187635 1297.8628,56.470085 1295.0625,57.96875 1291.006,60.139769 1287,58.559766 1287,54.78125 1287,53.436648 1287.6809,52.595468 1288.8438,52.34375 z M 1320,53 C 1321.3333,53 1322,53.666667 1322,55 1322,56.1 1321.8875,56.9388 1321.75,56.875 1321.6125,56.811199 1320.7125,56.564028 1319.75,56.3125 1317.337,55.68191 1317.5394,53 1320,53 z"/>
</svg>
