<svg xmlns="http://www.w3.org/2000/svg"
     width="33.6" height="64.0"
     viewBox="2667.5938 14.9100 48.5713 92.4675">
  <path d="M 2677.1562 90.34375 L 2671.5938 99.625 C 2672.6073 100.20551 2673.762 100.90533 2674.4375 101.1875 C 2679.5088 103.3057 2681.1874 103.3775 2685.5312 101.5625 C 2690.8355 99.346281 2695.7765 95.164805 2698.1875 90.875 C 2700.3792 86.975399 2702.6191 86.025419 2704.7188 88.125 C 2706.5952 90.001427 2708.6921 88.39024 2710.5 83.65625 C 2712.1651 79.296187 2712.142 79.113986 2710.0938 76.34375 C 2707.4276 72.737529 2707.2617 67.834249 2709.4375 57 C 2711.7051 45.708663 2710.9477 34.54984 2707.4062 27.25 C 2703.3604 18.910043 2698.7403 19.002706 2694.875 27.5 C 2692.5942 32.514023 2692.5011 40.725227 2694.625 49.6875 C 2697.9282 63.626246 2695.8485 76.562678 2688.6562 86.8125 C 2685.9505 90.668517 2684.7157 91.568237 2681.875 91.8125 C 2680.0512 91.969317 2678.7097 91.430546 2677.1562 90.34375 z M 2700.7812 24.1875 C 2702.6351 23.924413 2703.4165 24.693394 2705.0312 28.34375 C 2708.2274 35.569001 2708.5463 45.648682 2706.0312 59.375 L 2703.875 71.28125 L 2706.2812 75.9375 C 2709.1187 81.406734 2708.4889 85.701501 2705 84.625 C 2703.9055 84.287285 2702.1789 83.725183 2701.1562 83.40625 C 2699.6952 82.950586 2698.6062 84.033998 2696.1562 88.375 C 2693.9835 92.225069 2691.6929 94.683778 2688.5938 96.5 C 2682.9587 99.802384 2677.8387 100.70836 2676.1875 98.71875 C 2674.4355 96.607788 2677.3306 94.487219 2681.4688 94.84375 C 2685.544 95.194857 2689.326 91.662579 2693.3125 83.78125 C 2698.9688 72.598797 2700.3551 61.617815 2697.5 50.65625 C 2694.4804 39.063068 2696.2488 24.83067 2700.7812 24.1875 z "/>
</svg>
