<svg xmlns="http://www.w3.org/2000/svg"
     width="54.3" height="64.0"
     viewBox="5825.9973 13.8723 78.1851 92.1277">
  <path d="M 5870.7579,97.017967 C 5868.9662,94.277849 5867.0282,92.027849 5866.4512,92.017967 5865.8743,92.008085 5864.2993,93.787896 5862.9512,95.973103 5860.0216,100.72199 5857.6876,101.07373 5856.0082,97.019411 5854.5856,93.584968 5855.2871,89.810198 5858.0756,85.89408 5859.8971,83.336015 5859.9273,82.817807 5858.5607,77.571078 5856.5599,69.889315 5856.452,69.784403 5852.3246,71.508932 5847.5773,73.492485 5847.4296,73.46456 5844.3426,70 5839.797,64.898279 5838.6314,65.880248 5839.4441,74.127106 5839.8303,78.047015 5840.5635,82.35131 5841.0733,83.692206 5841.5831,85.033102 5842.0002,87.675904 5842.0002,89.5651 5842.0002,92.544855 5841.6751,93 5839.547,93 5837.5831,93 5836.6731,92.052595 5834.9844,88.25 5832.2234,82.032907 5830.0335,72.643697 5830.015,66.944172 5829.9973,61.508663 5833.6521,50.070827 5835.6517,49.303504 5836.4922,48.980945 5839.4626,51.044272 5842.9598,54.380035 5846.2003,57.471016 5849.6195,60 5850.5579,60 5853.1247,60 5859.0002,53.272275 5859.0002,50.33309 5859.0002,46.649955 5856.0209,42.202851 5852.8015,41.080561 5851.2608,40.543474 5850.0002,39.582485 5850.0002,38.945031 5850.0002,38.285509 5850.7013,38.055046 5851.6269,38.410264 5855.7021,39.974058 5857.6547,33.27226 5853.8918,30.636621 5851.4849,28.950788 5852.1006,26.951984 5854.8086,27.660142 5855.8021,27.919952 5857.6616,27.285054 5858.9407,26.249258 5860.9031,24.660216 5861.089,24.034424 5860.1306,22.243685 5858.7102,19.589551 5860.7024,17.87229 5862.442,20.25133 5863.35,21.493067 5864.4832,21.641698 5868.0403,20.985603 5871.755,20.300442 5873.2673,20.546843 5877.0911,22.460304 5880.2149,24.023511 5882.1908,24.472835 5883.2744,23.866425 5885.2466,22.762729 5886.7104,24.689847 5885.1131,26.287132 5883.2242,28.176006 5883.873,29.724567 5886.7985,30.309659 5890.5636,31.062674 5895.0002,35.663752 5895.0002,38.815366 5895.0002,40.984034 5893.222,47.560525 5892.2633,48.937396 5892.0958,49.177963 5890.6338,47.827963 5889.0143,45.937396 L 5886.0699,42.5 5882.7502,46.36475 C 5878.0817,51.799625 5875.5983,51.182296 5875.2123,44.491006 5874.4945,32.046167 5868.1501,28.758888 5866.5447,40 5865.9715,44.013852 5866.3125,45.188576 5869.7011,50.873754 5871.7906,54.379319 5874.0469,57.458894 5874.7151,57.717255 5875.3832,57.975616 5878.4052,56.770784 5881.4305,55.039851 5887.5317,51.549152 5888.4633,51.687135 5893.3303,56.802302 5897.9037,61.608801 5900.1824,73.895939 5898.0021,81.992988 5896.762,86.598325 5891.4421,92.882013 5890.0476,91.388462 5889.5914,90.899808 5889.0232,86.675 5888.785,82 5888.341,73.285007 5886.1808,67 5883.6295,67 5882.9039,67 5881.515,67.878663 5880.5431,68.952585 5879.3184,70.305821 5877.9663,70.74463 5876.1381,70.382157 5873.7705,69.912745 5873.3721,70.274684 5872.2502,73.913823 5870.5564,79.408037 5870.6562,80.383514 5873.1382,82.595012 5877.7214,86.678619 5879.6619,97.195476 5876.4288,100.42857 5875.5645,101.29286 5874.6679,102 5874.4365,102 5874.205,102 5872.5496,99.758085 5870.7579,97.017967 z M 5862.2928,92.499971 C 5865.74,88.179665 5868.5318,88.013449 5870.7967,91.993677 5873.1063,96.052583 5874.0002,95.766022 5874.0002,90.966667 5874.0002,87.701428 5873.343,86.276173 5870.5494,83.482524 L 5867.0986,80.031715 5868.4853,75.265858 C 5869.248,72.644636 5870.0134,69.153848 5870.1861,67.508551 5870.553,64.014244 5873.478,62.903646 5875.3982,65.529611 5876.5561,67.113208 5876.8685,67.119481 5879.773,65.617477 5881.4933,64.727864 5883.7336,64 5884.7513,64 5887.4208,64 5890.6636,71.343499 5891.5183,79.324164 5891.9115,82.995874 5892.6096,86 5893.0697,86 5894.3268,86 5895.9883,79.112964 5895.9946,73.875727 5896.0049,65.359902 5891.1936,56 5886.806,56 5885.791,56 5883.1357,57.151888 5880.9055,58.559751 5875.2503,62.129731 5873.2095,61.498943 5868.5757,54.748839 5865.3487,50.04799 5864.5505,47.931415 5864.2053,43.159175 5863.6793,35.886421 5865.7985,31 5869.4788,31 5875.8483,31 5879.7959,35.944891 5878.5839,42.405354 5877.6918,47.160811 5879.3976,47.711113 5881.9963,43.506231 5884.5719,39.338902 5887.2974,38.997782 5889.6258,42.551347 5891.979,46.142722 5893.5197,44.179169 5891.7229,39.878789 5890.74,37.526253 5889.1975,36.058338 5886.6638,35.064199 5884.6591,34.277596 5882.7681,32.844073 5882.4617,31.878593 5881.5392,28.972194 5875.2776,24.142665 5871.5172,23.437205 5867.026,22.594662 5863.7323,24.644612 5861.0131,29.974787 5858.6203,34.665035 5858.4433,39.731324 5860.5002,44.654243 5863.1342,50.958261 5862.5109,53.853483 5857.4826,58.671417 5854.998,61.052138 5852.0136,63 5850.8507,63 5847.9317,63 5842.9187,59.733667 5840.2055,56.063836 5838.9597,54.378726 5837.35,53 5836.6286,53 5835.3879,53 5833.9319,56.761034 5832.5577,63.515709 5831.407,69.171992 5836.8232,90.985367 5839.381,90.996252 5840.3649,91.000438 5839.77,87.190794 5837.5129,79.032072 5833.7641,65.481434 5838.3172,58.645827 5845.4475,67.119731 5848.3294,70.544663 5848.8634,70.603272 5853.3058,67.98219 5856.0035,66.390534 5856.9305,66.232136 5857.6954,67.23219 5858.9964,68.933351 5860.5837,73.454646 5861.9616,79.384242 5862.9955,83.833394 5862.9106,84.466452 5861.0088,86.490846 5858.8618,88.776272 5857.0466,96.000023 5858.6194,95.999971 5859.1038,95.999954 5860.7569,94.424954 5862.2928,92.499971 z"/>
</svg>
