<svg xmlns="http://www.w3.org/2000/svg"
     width="62.4" height="64.0"
     viewBox="3200.8035 14.9503 88.1967 90.4272">
  <path d="M 3266.4582,39.932094 C 3266.0952,39.344746 3265.5902,36.307246 3265.336,33.182094 3264.9664,28.637823 3265.284,26.849197 3266.9223,24.25 3268.049,22.4625 3269.4972,21 3270.1405,21 3270.8968,21 3270.77,21.618493 3269.7818,22.75 3266.7989,26.165625 3266.6946,32.338796 3269.503,39.25 3270.2984,41.20719 3267.6175,41.807765 3266.4582,39.932094 z M 3239.5294,94.452609 C 3237.0957,86.080695 3232.356,85.731897 3230.6202,93.796964 3229.0314,101.17892 3224.0002,100.06243 3224.0002,92.327895 3224.0002,87.960011 3225.8295,83.111938 3228.7251,79.805969 3230.0512,78.291948 3229.9082,77.518079 3227.3791,72.523237 3224.5508,66.937546 3220.8107,63.381024 3218.9648,64.521852 3215.7311,66.52039 3212.0036,80.599406 3212.0014,90.823324 3212.0004,95.345676 3211.738,96.096159 3210.2578,95.811095 3207.6219,95.303465 3205.631,90.242847 3205.2177,83 3204.8035,75.740389 3207.6516,65.683343 3212.4313,57.527301 3215.9066,51.597265 3218.7528,50.863548 3224.0475,54.532809 3226.2414,56.053173 3228.3557,56.977802 3228.746,56.587541 3229.1363,56.19728 3229.4656,53.317931 3229.4779,50.188988 L 3229.5002,44.5 3225.0002,44.782763 C 3221.1234,45.026366 3220.0412,44.63015 3217.1858,41.921861 3215.2137,40.051441 3214.0999,38.182458 3214.4358,37.30731 3214.7462,36.498323 3215.0002,34.511387 3215.0002,32.891897 3215.0002,28.666884 3222.9706,20.746691 3226.7792,21.187107 3229.2872,21.477133 3229.5766,22.00764 3230.7388,28.446182 3231.4284,32.266583 3232.4854,35.866583 3233.0878,36.446182 3233.8667,37.195725 3235.7441,35.767582 3239.5898,31.5 3242.5635,28.2 3244.9974,25.1625 3244.9984,24.75 3244.9994,24.3375 3245.6241,24 3246.3867,24 3247.2593,24 3248.0185,25.636428 3248.4353,28.41572 3249.2374,33.764268 3247.1773,39.503139 3243.3201,42.665734 3241.201,44.403246 3240.589,45.91389 3240.2247,50.305827 L 3239.7708,55.780186 3244.2043,55.280458 C 3248.2481,54.82467 3248.8753,55.062907 3251.3383,57.989967 3252.9374,59.890372 3254.626,60.973829 3255.4788,60.646588 3257.1988,59.986553 3261.3391,52.078628 3262.8643,46.540286 3263.8216,43.064144 3263.7104,42.32043 3261.9536,40.450414 3257.5657,35.779668 3257.3609,26.353854 3261.5539,22.05303 3264.5789,18.95033 3265.6889,19.854731 3263.0201,23.247586 3259.5877,27.611201 3259.8814,34.608461 3263.6554,38.38247 3266.2642,40.991223 3266.2877,41.133194 3265.0004,46.49902 3263.3599,53.337743 3257.8792,63.387327 3255.5408,63.844677 3254.5278,64.042794 3252.1655,62.614407 3249.9853,60.48545 3246.3393,56.92521 3246.0534,56.827327 3242.6157,57.961872 3237.3675,59.693946 3236.6755,58.781849 3237.2411,50.877448 3237.7026,44.427124 3237.9727,43.792621 3241.8657,40.014604 3245.1604,36.817217 3246.0002,35.291077 3246.0002,32.501111 3246.0002,30.5755 3245.5986,29 3245.1078,29 3244.6169,29 3242.5131,31.2321 3240.4326,33.960223 3238.3521,36.688346 3236.0537,39.149223 3235.325,39.428838 3231.8841,40.749264 3229.6238,37.443913 3228.4536,29.380317 3227.5176,22.930243 3227.3127,22.699542 3224.1814,24.568526 3217.9302,28.299615 3215.2742,36.273995 3219.0313,40.031149 3220.771,41.770773 3222.1152,42.106493 3226.2516,41.834373 3231.1498,41.512136 3231.3658,41.608887 3232.2008,44.5 3233.3344,48.424586 3232.2554,57.543272 3230.4835,59.013853 3229.4011,59.912187 3228.01,59.558743 3224.201,57.41763 3221.2877,55.779983 3218.6227,54.930901 3217.6125,55.318545 3215.3309,56.194072 3209.2787,69.183828 3208.0058,75.937178 3206.948,81.549293 3207.6021,90.635957 3209.132,91.581462 3209.6095,91.876577 3210.0002,90.0944 3210.0002,87.62107 3210.0002,80.939422 3212.7854,70.011048 3215.5742,65.75 3219.5665,59.650275 3224.4902,61.177672 3229.2746,70 3233.2804,77.386644 3233.4217,79.424647 3230.1548,82.691604 3227.1657,85.680607 3225.1634,92.563184 3226.8051,94.204948 3227.3977,94.79754 3227.9926,93.853883 3228.402,91.671973 3229.0499,88.218232 3232.4139,85 3235.3761,85 3237.3106,85 3242.0002,90.676283 3242.0002,93.017708 3242.0002,95.347591 3243.61,96.459214 3244.3168,94.617383 3245.0594,92.682153 3243.3101,85.52769 3240.9752,80.950999 3239.889,78.821771 3239.0002,76.508542 3239.0002,75.810489 3239.0002,74.113603 3245.1633,65.151379 3246.7486,64.543066 3247.4383,64.278407 3249.6398,65.172948 3251.6409,66.530934 3253.642,67.88892 3255.8562,69 3256.5614,69 3257.2665,69 3259.1162,66.947236 3260.6718,64.438303 3262.2274,61.929369 3264.4475,58.666869 3265.6053,57.188303 3266.7632,55.709736 3268.2753,52.7 3268.9657,50.5 3270.6256,45.210318 3272.4509,43.888535 3277.0749,44.627932 3280.2319,45.132767 3280.9906,44.886378 3281.9818,43.034409 3283.9827,39.295642 3282.7365,38.081344 3278.1537,39.304539 3272.9445,40.694967 3271.0002,39.209113 3271.0002,33.837717 3271.0002,29.837066 3274.2915,22 3275.9716,22 3276.4836,22 3276.0343,23.9125 3274.9733,26.25 3271.2998,34.342846 3272.958,38.974557 3278.7467,36.789593 3282.4483,35.392405 3285.0002,36.911312 3285.0002,40.511661 3285.0002,44.515445 3281.8938,47.191005 3277.0566,47.353564 3273.026,47.489017 3272.6072,47.762499 3271.4719,51 3270.7969,52.925 3268.621,56.975 3266.6364,60 3257.8475,73.396883 3257.6061,73.559368 3251.7744,70.003738 3247.3179,67.286613 3246.5238,67.447317 3244.099,71.55716 3241.4736,76.006767 3241.4803,76.215492 3244.4811,83.5 3247.3482,90.460142 3247.631,94.654433 3245.4435,97.777494 3242.922,101.3775 3241.2731,100.4505 3239.5294,94.452609 z"/>
</svg>
