<svg xmlns="http://www.w3.org/2000/svg"
     width="32.5" height="64.0"
     viewBox="1365.9125 16.6508 43.8335 86.2730">
  <path d="M 1384.498,95.403178 C 1379.6014,90.119628 1379.0562,83.79592 1382.5978,73.36436 1384.2583,68.473492 1383.7945,62 1381.7836,62 1381.1644,62 1379.9472,62.63994 1379.0789,63.422089 1376.455,65.785634 1372.5188,66.329821 1371.0292,64.534971 1369.9125,63.189437 1370.0176,62.595688 1371.7044,60.720685 1374.7921,57.288486 1375.325,55.256727 1375.9587,44.5 1376.6417,32.909232 1378.5063,28.217801 1384.2499,23.639623 L 1387.9996,20.650771 1390.3143,22.825385 C 1391.5875,24.021423 1393.1833,25 1393.8607,25 1394.538,25 1396.1921,27.3625 1397.5364,30.25 1399.4535,34.367803 1399.9828,37.14944 1399.9904,43.148454 1399.9988,49.700717 1400.4299,51.613818 1402.9985,56.496729 1404.6475,59.631631 1405.746,62.602327 1405.4395,63.098275 1404.5568,64.526386 1401.8242,64.150668 1399.8053,62.323629 1398.6217,61.252474 1397.6063,60.993886 1396.9928,61.607373 1395.6204,62.979778 1395.5701,70.497654 1396.8862,77.548434 1398.1557,84.350012 1397.2568,91.433238 1394.6119,95.469908 1392.3488,98.923726 1387.7326,98.893268 1384.498,95.403178 z M 1392.542,93.576573 C 1394.3393,90.833556 1394.5462,85.945803 1393.4825,71.355229 1392.7481,61.280793 1392.7609,61.194867 1395.3292,58.961731 1397.8124,56.802636 1397.8942,56.389892 1397.3819,48.606503 1397.0884,44.147926 1396.3971,38.120819 1395.8457,35.212931 1394.976,30.627194 1394.3286,29.601113 1390.9649,27.477708 1386.3754,24.580498 1384.7933,24.980671 1381.8206,29.790636 1380.0084,32.722737 1379.4951,35.414915 1379.0269,44.441413 1378.6253,52.18354 1377.9278,56.474672 1376.701,58.75 1375.2866,61.373489 1375.2193,62 1376.3521,62 1377.1239,62 1378.3155,61.325 1379.0002,60.5 1380.5675,58.611519 1383.3975,58.568906 1384.9261,60.41077 1387.1983,63.148557 1387.2435,68.472601 1385.0546,75.557571 1382.5249,83.746074 1382.9803,88.634442 1386.6829,93.034703 1389.7081,96.630033 1390.4937,96.702684 1392.542,93.576573 z"/>
</svg>
