<svg xmlns="http://www.w3.org/2000/svg"
     width="44.4" height="64.0"
     viewBox="6887.7812 19.0505 40.2188 58.0266">
  <path d="M 6892.3438,61.71875 6892.2188,64.4375 C 6892.3957,64.449808 6892.6476,64.582554 6892.7812,64.53125 6893.5403,64.24004 6894.5418,64 6895,64 6895.4582,64 6897.4038,61.83024 6899.3438,59.1875 6901.8189,55.8157 6903.5486,51.785374 6905.0938,45.625 L 6907.2812,36.84375 6904.4688,30.90625 C 6901.6992,25.111696 6900,23.450622 6900,26.53125 6900,27.381443 6901.0836,30.109004 6902.4062,32.59375 L 6904.8125,37.125 6902.7812,44.3125 C 6900.0121,54.118516 6899.6163,54.995185 6896.0938,59 L 6893,62.5 6892.3438,61.71875 z M 6891.875,71.09375 6891.7812,72.71875 C 6893.6778,73.077183 6895.7274,72.314975 6899,70.65625 6902.8263,68.716883 6904.0177,67.305713 6907.0312,61.21875 6908.9806,57.281479 6911.6806,50.625426 6913.0312,46.4375 6914.988,40.369943 6916.3634,38.044664 6919.75,34.90625 6922.0875,32.740066 6924,30.732423 6924,30.46875 6924,30.064678 6923.7921,29.886435 6923.4375,29.875 6922.3737,29.840695 6919.9282,31.473243 6917.25,34.125 6914.2554,37.08998 6912.4787,40.088578 6910.9062,44.875 6909.7069,48.525916 6907.1896,54.757982 6905.3125,58.75 6902.2426,65.2784 6901.4018,66.268198 6896.8125,68.59375 L 6891.875,71.09375 z M 6906.75,23.3125 C 6906.4719,23.187902 6906.3551,23.725459 6906.1875,24.8125 6905.9918,26.081799 6906.5574,28.219299 6907.4375,29.5625 6908.3176,30.905701 6909.7444,32 6910.5938,32 6912.2231,32 6919.9379,26.031595 6919.9688,24.75 6920.0095,23.050537 6916.1862,24.172933 6914,26.5 6910.9651,29.730523 6910.4126,29.656689 6908.3125,25.75 6907.4896,24.219166 6907.0281,23.437098 6906.75,23.3125 z"/>
</svg>
