<svg xmlns="http://www.w3.org/2000/svg"
     width="27.7" height="64.0"
     viewBox="7307.9193 24.0000 34.8932 80.4935">
  <path d="M 7338.8125,80.5 C 7338.2957,80.732529 7337.761,81 7337.3438,81 7336.5854,81 7335.1447,81.519448 7334.125,82.15625 7330.8324,84.212487 7329,82.543075 7329,77.46875 7329,74.940331 7329.4011,72.113842 7329.875,71.1875 7331.7456,67.530999 7332.0938,64 7330.5938,64 7328.9336,64 7326,72.97194 7326,78.0625 7326,79.859543 7326.7875,82.216449 7327.75,83.28125 7329.2224,84.910106 7330.3356,85.115376 7334.7812,84.59375 7336.3489,84.409807 7337.5773,84.184595 7338.6875,83.90625 L 7338.8125,80.5 z M 7338.4375,91.90625 C 7337.454,92.386643 7337.4418,92.342937 7336.125,93 7327.3871,97.360153 7324.6049,97.809256 7321.2188,95.4375 7319.4035,94.16606 7319,92.930469 7319,88.65625 7319,85.777991 7319.675,80.823639 7320.5,77.65625 7322.7992,68.829016 7322.4889,65.611748 7318.9062,61.53125 7313.9153,55.846891 7311.9193,57.400672 7316.5,63.40625 7319.3671,67.165209 7319.5786,70.255862 7317.5,78 7314.6721,88.535533 7315.9698,96.117814 7321.0312,98.75 7324.3837,100.49349 7329.4228,99.474894 7335.25,95.90625 7336.708,95.013381 7337.318,94.817652 7338.375,94.28125 L 7338.4375,91.90625 z M 7319.0312,28 C 7316.1621,28 7312.3908,42.078411 7314.6562,44.34375 7316.2477,45.935277 7317,44.696837 7317,40.46875 7317,37.976085 7317.675,34.318253 7318.5,32.34375 7320.2736,28.098837 7320.2967,28 7319.0312,28 z M 7327.0625,32 C 7325.7235,32 7322.2613,37.154622 7321.4688,40.3125 7320.4874,44.22236 7321.2945,43.646934 7324.8438,37.9375 7328.289,32.39534 7328.4364,32 7327.0625,32 z M 7333.2812,36.0625 C 7333.0089,36.005952 7332.6493,36.101512 7332.1562,36.40625 7329.5696,38.004911 7326.8126,51.269794 7328.5,54 7329.8806,56.23386 7330.5264,54.708644 7330.6562,49.0625 7330.7412,45.367597 7331.4752,41.987275 7332.5938,40.09375 7333.9102,37.865082 7334.0984,36.232143 7333.2812,36.0625 z"/>
</svg>
