<svg xmlns="http://www.w3.org/2000/svg"
     width="30.7" height="64.0"
     viewBox="5707.2035 14.4341 42.7965 89.2829">
  <path d="M 5712.375,80.53125 5712.5312,82.875 C 5717.1205,81.923978 5722.6012,79.618142 5723.8438,77.25 5724.4416,76.110775 5724.0668,71.386875 5722.75,63.65625 5720.8661,52.595722 5720.823,51.426536 5722.2812,46.1875 L 5723.8438,40.5625 5720.0312,36.4375 C 5716.0646,32.134201 5714.0519,26.541855 5715.8125,24.78125 5716.8248,23.768946 5717.3666,24.483302 5720.9688,31.5 5723.3254,36.090466 5726.3084,35.923607 5729.875,31 5731.5195,28.729818 5733.108,26.339342 5733.375,25.6875 5733.7294,24.822555 5734.1108,24.872649 5734.8125,25.875 5736.1331,27.761533 5734.4609,33.565987 5731.25,38.28125 5728.8225,41.846097 5728.7496,42.385041 5729.8438,47.125 5731.3813,53.786505 5731.2873,62.994304 5729.5938,71 L 5728.2188,77.5 5731.7188,82.15625 C 5733.6565,84.71237 5736.3566,87.29987 5737.6875,87.90625 5738.6499,88.34475 5739.6082,88.612901 5740.5625,88.78125 L 5740.625,86.5625 C 5739.3372,86.300466 5738.1613,85.380102 5735.8438,83.0625 5731.943,79.161842 5731.7541,78.739255 5732.3438,74.4375 5733.1335,68.675436 5734.5936,66 5736.9062,66 5741.0729,66 5746,57.659643 5746,50.625 5746,47.247326 5743.9041,47.212402 5739.5938,50.5 5735.2088,53.844491 5734.2893,53.667671 5733.0625,49.25 5731.5786,43.906934 5731.7476,41.59187 5733.8438,38.875 5738.9726,32.227048 5739.4489,19.820852 5734.5625,20.03125 5733.985,20.056116 5731.8263,22.756116 5729.7812,26.03125 5727.7362,29.306384 5725.5907,32 5725.0312,32 5724.4716,32 5722.6768,29.322434 5721.0312,26.0625 5717.532,19.130613 5716.7223,18.434058 5714.5938,20.5625 5711.2035,23.95277 5713.2905,34.246062 5718.3125,38.875 5720.4318,40.828446 5720.7093,41.657542 5719.9375,43.6875 5718.5277,47.395681 5718.8259,58.986488 5720.5312,67.09375 5722.3203,75.598907 5722.0086,77.07956 5718.0938,78.8125 5715.967,79.753861 5714.0499,80.266954 5712.375,80.53125 z M 5740.9062,52.875 C 5741.7216,52.678984 5742.3094,52.679721 5742.4688,52.9375 5743.3609,54.381086 5739.9614,61.948063 5737.9375,63.03125 5734.7857,64.71802 5734,64.121566 5734,60.03125 5734,56.404217 5734.3415,55.865771 5737.9375,54.03125 5739.0351,53.471294 5740.0909,53.071016 5740.9062,52.875 z M 5713.0312,91.5625 5713.1875,94.34375 C 5715.7045,93.683542 5718.3528,92.575124 5721.2812,90.59375 L 5724.0625,88.71875 5727.7188,93 C 5729.7267,95.34573 5732.7525,97.892442 5734.4375,98.65625 5736.1713,99.44214 5738.2144,99.716997 5740.375,99.59375 L 5740.4375,97 C 5740.3044,96.975494 5740.1264,97.03544 5740,97 5734.8672,95.560621 5730.915,92.838488 5728.5312,89.0625 5725.2385,83.846404 5724.6929,83.633832 5721.9062,86.65625 5719.6361,89.118478 5716.5014,90.815534 5713.0312,91.5625 z"/>
</svg>
