<svg xmlns="http://www.w3.org/2000/svg"
     width="33.8" height="64.0"
     viewBox="6545.4375 14.3239 46.5601 88.2015">
  <path d="M 6549.4375 86.84375 L 6549.625 89.65625 C 6552.6546 90.114561 6555.4156 88.417896 6560.3125 83.75 C 6568.6742 75.779339 6569.7056 69.113032 6565.1562 52.5 C 6563.1911 45.323672 6562.7801 28.588821 6564.4688 24.6875 C 6566.5226 19.942715 6571.8582 26.884709 6574.0312 37.125 C 6574.8624 41.041226 6575.0549 46.153716 6574.5938 52.4375 L 6573.875 61.875 L 6578.9688 65.6875 C 6582.609 68.405146 6583.9727 70.064811 6583.75 71.5 C 6583.562 72.711889 6582.8596 73.341347 6581.9688 73.09375 C 6576.9451 71.697535 6576.1472 72.321914 6571.7812 81 C 6568.1934 88.131574 6566.7085 90.017733 6562.5625 92.71875 C 6558.1208 95.612353 6557.0542 95.891644 6552 95.46875 C 6551.3554 95.414819 6550.6871 95.26178 6550.0312 95.15625 L 6550.25 98.0625 C 6553.2571 98.48708 6556.1269 98.525451 6558.25 97.9375 C 6563.5661 96.465308 6571.1359 89.003644 6574.875 81.5625 C 6577.4877 76.363171 6578.6117 75.027914 6579.875 75.5625 C 6584.6575 77.58625 6585.8765 77.280864 6586.7812 73.84375 C 6587.9976 69.222735 6587.4362 67.968478 6582.6562 64.46875 L 6578.5 61.4375 L 6577.9062 49.46875 C 6577.224 35.74134 6575.4967 28.626716 6571.5625 23.46875 C 6568.2987 19.189677 6566.5196 18.323941 6564.5 20 C 6559.4829 24.163847 6559.6958 43.922534 6564.9375 61 C 6566.5814 66.355853 6566.1793 71.057102 6563.6562 76 C 6561.093 81.02159 6554.0283 87 6550.6562 87 C 6550.2361 87 6549.8354 86.918691 6549.4375 86.84375 z "/>
</svg>
