<svg xmlns="http://www.w3.org/2000/svg"
     width="64.0" height="60.1"
     viewBox="2786.9375 58.1612 45.5890 42.8388">
  <path d="M 2793.8438 74.90625 L 2792.4688 80.78125 C 2793.2718 80.645479 2794.6725 81.57144 2797.4062 83.9375 C 2802.9056 88.697111 2804.8038 88.946311 2808.3438 85.40625 C 2811.8268 81.923312 2812.4437 79.467144 2810.5625 76.78125 C 2808.881 74.380598 2808.4394 68.449721 2809.875 67.5625 C 2810.3563 67.265038 2811.0363 68.756427 2811.375 70.875 C 2811.7138 72.993573 2812.6301 75.298672 2813.4375 75.96875 C 2815.427 77.61989 2820.7294 76.338659 2822.0312 73.90625 C 2823.3535 71.435555 2825 71.464767 2825 73.9375 C 2825 76.605861 2820.2264 82 2817.875 82 C 2816.8084 82 2813.6279 84.475 2810.8125 87.5 C 2805.4727 93.237258 2804.0183 93.943978 2802.0938 91.625 C 2801.459 90.86028 2798.7015 89.269319 2795.9688 88.09375 C 2793.6475 87.095162 2792.2334 86.167967 2791.5312 85.15625 L 2790.9375 89.59375 L 2791 90.4375 C 2792.6058 89.881593 2795.0264 90.660801 2799.0312 93.125 C 2802.8322 95.463809 2804.8131 96.093643 2807 95.65625 C 2808.6023 95.335808 2810.2025 95.499265 2810.5312 96.03125 C 2810.86 96.563235 2811.841 97 2812.7188 97 C 2814.1585 97 2814.1492 96.80602 2812.6562 95.15625 C 2811.7459 94.150443 2811 92.786454 2811 92.125 C 2811 90.030696 2813.9862 89.680494 2816.0312 91.53125 C 2818.5934 93.84998 2819.85 92.593418 2817.5312 90.03125 C 2815.4493 87.7308 2816.1328 85 2818.7812 85 C 2820.7672 85 2825.0096 80.93155 2826.9375 77.1875 C 2828.5265 74.101501 2827.3796 69 2825.0938 69 C 2824.1332 69 2822.282 70.133377 2820.9688 71.53125 C 2817.362 75.370508 2814.74 74.467812 2813.6875 69 C 2812.5221 62.945812 2811.547 62.161234 2808.625 64.90625 C 2805.4042 67.932018 2804.8773 72.254655 2807.25 76.15625 C 2808.8338 78.760602 2808.9361 79.72692 2807.9688 82.0625 C 2806.3179 86.047927 2804.6588 86.274546 2800.3125 83.09375 C 2796.3339 80.182065 2794.6914 78.65652 2793.8438 74.90625 z "/>
</svg>
