<svg xmlns="http://www.w3.org/2000/svg"
     width="21.2" height="64.0"
     viewBox="2219.8196 17.0000 27.1532 82.0000">
  <path d="M 2226.9609,94.75 C 2226.9393,94.6125 2226.6923,87.975 2226.412,80 2226.1316,72.025 2225.7347,62.8 2225.5299,59.5 2225.3252,56.2 2224.842,46.1875 2224.4562,37.25 2223.8196,22.502264 2223.908,21 2225.4127,21 2226.3245,21 2228.1824,21.728494 2229.5413,22.618876 2231.628,23.986121 2232.4824,24.042917 2235.0382,22.984274 2236.7026,22.294861 2238.3001,21.966539 2238.5882,22.254669 2238.8763,22.542798 2239.315,28.565869 2239.5631,35.639271 2239.8111,42.712672 2240.255,49.55415 2240.5494,50.842555 2241.1402,53.427725 2242.9728,91.325906 2242.5295,91.790635 2242.377,91.950484 2240.6723,91.14906 2238.7412,90.009691 2235.7556,88.24815 2234.8352,88.118064 2232.5912,89.140496 2231.1398,89.801807 2229.6893,91.390731 2229.3678,92.671439 2229.0464,93.952148 2228.3822,95 2227.8918,95 2227.4014,95 2226.9825,94.8875 2226.9609,94.75 z M 2237.9849,42.75 C 2237.9765,41.5125 2237.6217,39.952483 2237.1964,39.283296 2236.2723,37.828859 2226.9311,32.735717 2226.316,33.350854 2226.0796,33.587259 2226.2624,35.23264 2226.7223,37.007256 2227.3464,39.415767 2228.688,40.838037 2232.0138,42.616916 2237.5081,45.555649 2238.0041,45.566702 2237.9849,42.75 z M 2236.8077,30.75 C 2236.5367,27.004261 2236.2036,26.485667 2234.0002,26.379201 2232.6252,26.312761 2230.3752,26.087761 2229.0002,25.879201 2227.0936,25.590013 2226.4441,25.974753 2226.264,27.5 2226.0998,28.890518 2227.3187,30.330453 2230.264,32.22511 2236.2341,36.065612 2237.1769,35.853074 2236.8077,30.75 z M 2238.0002,52.589448 C 2238.0002,48.27561 2237.8867,48.12233 2232.8237,45.599318 2229.9766,44.180551 2227.5154,43.151429 2227.3545,43.312381 2227.1935,43.473333 2227.3392,45.314027 2227.6781,47.402811 2228.1533,50.330716 2229.2113,51.864777 2232.2974,54.1003 2234.499,55.695135 2236.6828,57 2237.1502,57 2237.6177,57 2238.0002,55.015251 2238.0002,52.589448 z M 2239.0002,64.546794 C 2239.0002,60.216058 2238.8696,60.031827 2234.2502,57.847836 2231.6377,56.612672 2229.2521,55.458916 2228.9489,55.283933 2228.6456,55.10895 2228.353,56.53666 2228.2986,58.456621 2228.2177,61.308924 2228.9136,62.592478 2232.1028,65.47373 2237.4727,70.325155 2239.0002,70.119882 2239.0002,64.546794 z M 2239.5002,74.568095 C 2239.5002,73.279155 2237.785,71.777274 2234.1935,69.92146 L 2228.8869,67.179341 2229.1935,70.336734 C 2229.4338,72.810183 2230.2584,73.866179 2233.0002,75.211692 2237.2797,77.311806 2239.5002,77.091948 2239.5002,74.568095 z M 2239.7949,83.150664 C 2239.5475,80.339374 2238.938,79.598018 2236.0002,78.535724 2234.0752,77.839642 2231.7127,76.936198 2230.7502,76.528071 2229.2825,75.905719 2229.0024,76.327523 2229.0139,79.143011 2229.0414,85.916849 2229.6438,86.650259 2235.1149,86.57156 L 2240.0897,86.5 2239.7949,83.150664 z"/>
</svg>
