<svg xmlns="http://www.w3.org/2000/svg"
     width="34.1" height="64.0"
     viewBox="2274.4688 19.2377 43.5031 81.7623">
  <path d="M 2278.4688 93.78125 C 2279.709 93.627051 2281.5622 94.010819 2283.625 95.0625 C 2285.7134 96.127189 2288.5628 97 2289.9688 97 C 2294.2347 97 2299.3604 92.656389 2302.875 86.0625 C 2306.0786 80.051865 2306.2006 79.963067 2309.5625 80.59375 C 2313.8544 81.398925 2313.9719 80.225087 2310.375 72.28125 C 2308.2114 67.502827 2307.709 64.68276 2307.4062 56 C 2306.8963 41.380413 2306.2681 36.184818 2304.4375 30.8125 C 2302.012 23.693855 2298.7859 23.237681 2297.0625 29.78125 C 2295.7235 34.865316 2295.5784 41.9781 2296.4062 59 C 2297.1968 75.255623 2296.1648 81.04718 2291.875 84.25 C 2289.5089 86.01655 2289.2957 86.000519 2284.8438 84.03125 C 2283.1919 83.300574 2282.0245 82.610317 2281.125 81.8125 L 2281.125 86.3125 C 2281.8393 86.241746 2282.8843 86.547213 2284.875 87.34375 C 2288.1423 88.651068 2289.4676 88.738489 2291.5 87.8125 C 2297.8078 84.938449 2300.6473 74.431328 2299.25 59 C 2298.1229 46.551817 2298.4017 31.223273 2299.7812 29.84375 C 2301.7681 27.856924 2303.2563 35.718486 2303.9062 51.5 C 2304.4742 65.292133 2304.8727 68.089555 2306.7812 71.71875 C 2309.5781 77.037278 2309.6576 78.420126 2307.0625 77.03125 C 2305.4957 76.192762 2304.8211 76.421802 2303.5625 78.21875 C 2302.7049 79.443064 2302 80.942642 2302 81.5625 C 2302 83.529048 2296.2946 91.265993 2293.8438 92.625 C 2290.6908 94.37337 2288.323 94.222783 2283.25 91.96875 C 2281.1156 91.020402 2279.9675 90.40428 2279.4688 89.75 L 2279.3438 89.9375 L 2278.4688 93.78125 z "/>
</svg>
