<svg xmlns="http://www.w3.org/2000/svg"
     width="64.0" height="59.2"
     viewBox="1409.8928 16.3268 94.3212 87.1924">
  <path d="M 1478.3845,97.234687 C 1477.7709,96.830609 1476.3476,94.7 1475.2216,92.5 1474.0956,90.3 1472.2185,87.488425 1471.0502,86.252056 1469.0473,84.132361 1468.7272,84.08723 1465.4393,85.461002 1460.9258,87.34686 1458.43,86.375895 1455.0784,81.430126 1451.8414,76.653503 1449.2165,76.076408 1446.0514,79.445477 1443.8785,81.758481 1443.7748,82.30424 1444.8356,85.844888 1447.0255,93.154296 1442.4414,99.519238 1437.9285,95.435145 1436.868,94.475329 1436.0002,93.329572 1436.0002,92.889019 1436.0002,92.448465 1434.6502,89.798407 1433.0002,87 1431.3502,84.201593 1430.0002,81.010362 1430.0002,79.908375 1430.0002,78.806388 1432.2502,75.654762 1435.0002,72.904762 1437.7502,70.154762 1440.0002,67.060806 1440.0002,66.029304 1440.0002,63.838773 1434.8858,58.415843 1431.9373,57.480026 1428.9271,56.524635 1425.1002,59.519717 1422.8599,64.584342 1420.4639,70.00072 1417.7191,70.50087 1416.0868,65.818478 1413.8928,59.52485 1417.7792,48.535791 1423.4352,45.040178 1427.5944,42.469657 1429.869,42.743097 1435.3677,46.474654 1437.4144,47.863594 1439.5701,49 1440.1582,49 1441.437,49 1440.5997,42.406166 1438.5709,36.5 1437.2483,32.649855 1437.0154,32.48821 1432.3557,32.185294 1429.6932,32.012206 1426.7239,31.154962 1425.7574,30.280307 1422.1226,26.990828 1424.877,21 1430.0242,21 1431.3258,21 1433.635,22.192054 1435.1557,23.649008 L 1437.9207,26.298016 1441.3937,23.649008 C 1445.6208,20.424873 1447.6547,20.326802 1450.7127,23.199666 1452.9687,25.319052 1453.1592,25.3373 1455.9315,23.699666 1459.8333,21.394832 1462.5811,21.563617 1464.4435,24.222506 1467.9436,29.2196 1464.7478,33.393745 1457.8437,32.84272 L 1453.5495,32.5 1452.8325,36.5 C 1451.7434,42.575717 1451.8676,48 1453.0959,48 1453.6985,48 1455.5093,47.221605 1457.1199,46.270234 1459.5106,44.858018 1460.365,44.768875 1461.7742,45.784653 1470.0604,51.757677 1471.2076,51.948836 1474.2542,47.864236 1477.2366,43.865724 1477.569,37.40948 1475.0881,31.667095 1472.6137,25.93956 1472.465,24 1474.5002,24 1475.3252,24 1476.0002,24.692927 1476.0002,25.539838 1476.0002,26.386749 1476.9002,28.843822 1478.0002,31 1481.2281,37.327174 1480.1552,45.285533 1475.2957,51.060722 1473.1224,53.64345 1472.1633,54.082616 1469.7499,53.599945 1468.145,53.27896 1465.5628,52.112661 1464.0117,51.008168 1460.4481,48.470708 1457.9456,48.468506 1454.7273,51 1451.6599,53.412842 1450.4117,53.514793 1449.6072,51.418213 1448.6338,48.881711 1448.9178,37.837015 1450.0623,33.715655 1451.3178,29.194339 1450.6006,26.391686 1447.8051,24.895571 1446.0659,23.964787 1445.2784,24.260239 1442.7443,26.794336 L 1439.7433,29.795407 1441.8717,36.802941 C 1444.4124,45.167615 1444.5903,50.265369 1442.4048,52.079189 1441.0692,53.187627 1440.377,53.13409 1438.1548,51.750462 1429.5446,46.389566 1427.8846,45.805229 1424.8438,47.06479 1423.2279,47.734095 1421.228,49.592517 1420.3996,51.194618 1418.635,54.606924 1417.3166,64.017283 1418.6109,63.962049 1419.1,63.941175 1420.7415,62.12978 1422.2587,59.936725 1427.3207,52.619851 1432.5496,52.314123 1439.1827,58.947211 1444.6599,64.424356 1444.4177,67.487256 1438.0002,73.904762 1435.2502,76.654762 1433.0002,79.445445 1433.0002,80.106281 1433.0002,81.900428 1439.9584,94 1440.9901,94 1442.909,94 1443.2074,91.532237 1441.9317,86.214375 L 1440.6,80.663496 1445.5227,76.331748 C 1448.2302,73.949287 1450.7289,72 1451.0753,72 1451.4217,72 1453.8555,74.737062 1456.4837,78.082359 1460.4552,83.137352 1461.6202,84.044632 1463.3813,83.453766 1464.5467,83.062742 1467.0629,82.68818 1468.9729,82.621406 1472.0961,82.512217 1472.768,83.003138 1475.6501,87.5 1481.738,96.998895 1481.1467,96.578615 1484.5327,93.813719 1487.4394,91.440217 1493.0002,90.176047 1493.0002,91.888757 1493.0002,93.201215 1490.9709,94.481999 1485.9668,96.327804 1480.9213,98.188859 1480.0007,98.29897 1478.3845,97.234687 z M 1433.2983,28.368517 C 1434.4209,27.245941 1431.988,24 1430.024,24 1427.7546,24 1426.6088,25.537613 1427.3802,27.547887 1427.9351,28.993838 1432.0961,29.570814 1433.2983,28.368517 z M 1461.895,29.626748 C 1463.3873,27.828638 1462.2582,25 1460.0482,25 1459.0923,25 1457.5326,25.859248 1456.5822,26.909439 1454.9426,28.72109 1454.9475,28.873173 1456.6772,29.879031 1459.1568,31.320996 1460.5446,31.253894 1461.895,29.626748 z M 1473.8239,79.841824 C 1470.7888,76.520172 1469.7423,75.951688 1467.8239,76.582391 1462.7216,78.259844 1461.6006,77.697061 1458.6968,72 1455.8637,66.441834 1455.8278,65.513217 1458.1834,58.75 1459.6577,54.517299 1461.4986,54.031031 1465.1563,56.908163 1467.7125,58.91882 1469.0663,59.311748 1472.772,59.118483 1475.5665,58.972741 1482.067,49.370722 1484.5731,41.686858 1485.5036,38.834086 1486.7204,35.925439 1487.2772,35.223198 1488.634,33.511949 1496.8549,28 1498.0503,28 1500.214,28 1498.7062,30.023585 1494.0501,33.3687 1489.9561,36.309954 1488.8368,37.811134 1487.5784,42.048654 1485.9457,47.546363 1483.3691,52.267418 1478.7362,58.25 1476.1932,61.533746 1475.3142,61.996046 1471.6662,61.968197 1469.3749,61.950705 1466.6267,61.275705 1465.5591,60.468197 1462.7918,58.375122 1461.486,58.638329 1460.156,61.557303 1458.8831,64.351209 1459.4999,68.2387 1461.7734,71.75 1462.9317,73.538992 1464.1604,74 1467.77,74 1471.7936,74 1472.7592,74.472334 1476.2607,78.153188 1480.1866,82.280125 1480.2292,82.295926 1483.0102,80.653188 1486.3176,78.69942 1487.0002,78.611588 1487.0002,80.139757 1487.0002,82.025303 1483.6934,83.938686 1480.5002,83.900797 1478.2985,83.874673 1476.5219,82.794559 1473.8239,79.841824 z M 1482.3173,31.75 C 1481.1013,29.852137 1479.038,23.628849 1479.4787,23.188145 1480.2446,22.422278 1482.1404,24.238444 1483.0371,26.597139 1484.2149,29.694934 1486.34,29.656501 1488.4082,26.5 1490.2099,23.750389 1493.0002,23.138919 1493.0002,25.493728 1493.0002,26.901803 1485.6145,33 1483.9092,33 1483.4742,33 1482.7578,32.4375 1482.3173,31.75 z M 1485.0002,88.660515 C 1485.0002,87.247876 1489.8806,84.547047 1490.79,85.456429 1491.5784,86.244873 1487.905,90 1486.3452,90 1485.6055,90 1485.0002,89.397232 1485.0002,88.660515 z"/>
</svg>
