<svg xmlns="http://www.w3.org/2000/svg"
     width="39.1" height="64.0"
     viewBox="516.5008 13.2531 56.0403 91.7469">
  <path d="M 532.96847,99.975117 C 528.36867,98.729934 525.86165,96.560189 523.17593,91.5 520.7506,86.930403 520.52121,85.510074 520.51108,75 520.50077,64.298546 520.69791,63.118087 523.35014,58 526.14043,52.615473 526.17403,52.359459 524.9503,45.806007 523.53583,38.231081 524.16511,27.933942 526.36412,22.670967 527.78621,19.267425 530.98243,17.253071 532.99105,18.494469 533.55881,18.845362 534,23.411619 534,28.936893 534,39.544442 535.22955,44.009155 539.16268,47.683568 542.27684,50.592871 546.95821,52.953267 548.46631,52.374553 551.79384,51.097661 556,38.578165 556,29.950779 556,24.79106 558.40731,24.645741 560.51014,29.678521 564.40414,38.99817 561.7903,55.409703 555.39309,61.806906 552.43412,64.765883 551.46321,65.174576 548.52532,64.697821 546.64343,64.392433 543.40091,62.985492 541.31972,61.571285 539.23852,60.157078 537.24147,59 536.88181,59 535.65999,59 532.86937,66.063958 532.05432,71.219884 531.11081,77.188498 532.99212,84.42872 536.2196,87.25 540.49219,90.984842 548,88.281607 548,83.008396 548,78.989229 549.68345,74.965249 552.67843,71.825443 556.69585,67.613757 558,69.046741 558,77.67273 558,86.112663 558.61446,87.683181 563.80491,92.50981 568.54111,96.914019 565.85973,97.092384 560.75855,92.712453 557.64395,90.038231 556.83552,88.514425 555.93338,83.617552 555.33734,80.382206 555.11707,76.669706 555.44389,75.367552 555.77071,74.065399 555.63463,73 555.1415,73 553.25477,73 551.83521,76.091138 550.99627,82.026409 550.04543,88.753298 548.61746,90.518017 543.26876,91.576248 539.77378,92.267724 533.22772,89.587311 531.94213,86.938335 530.2528,83.457442 529,78.040328 529,74.216515 529,69.498275 532.41813,59.355845 534.88299,56.760214 536.44588,55.114407 536.80377,55.211423 541.5083,58.556227 545.32692,61.271162 547.29021,62.023304 549.96501,61.796013 553.09106,61.530376 553.74437,60.920217 556.33139,55.850087 558.29778,51.996288 559.38266,48.101999 559.74403,43.600087 560.35974,35.929616 558.70826,34.516868 556.99681,41.25 554.80189,49.885183 551.15037,55 547.18054,55 543.08431,55 536.30222,49.971265 533.53064,44.87897 531.3483,40.869284 531,38.974867 531,31.114672 531,26.101602 530.59402,22 530.09783,22 526.93422,22 525.90741,39.478843 528.62546,47.063295 530.23066,51.542459 530.2154,51.699169 527.79771,55.563295 524.04856,61.555458 523,65.577835 523,73.967722 523,82.896349 525.07747,90.815963 528.44729,94.73362 530.45698,97.070024 531.60476,97.5 535.83184,97.5 539.86604,97.5 541.73119,96.869607 545.44766,94.25 547.98361,92.4625 550.60928,91 551.28248,91 551.95569,91 553.77195,92.340749 555.31861,93.979441 556.86527,95.618134 559.90131,97.489364 562.06536,98.137729 566.52586,99.474128 567.26419,101 563.45034,101 560.22944,101 554.98637,98.397822 552.89833,95.762957 551.30261,93.749335 551.27931,93.752005 546.61979,96.482666 541.07308,99.733253 536.44698,100.91676 532.96847,99.975117 z"/>
</svg>
