<svg xmlns="http://www.w3.org/2000/svg"
     width="60.5" height="64.0"
     viewBox="2411.7129 15.2754 83.4912 88.3453">
  <path d="M 2481.9375,94.34375 2481.9375,94.1875 2482.75,89.625 C 2482.3371,89.103615 2482.3626,88.413338 2482.6562,87.1875 2483.0526,85.532886 2483.255,84.698206 2483.6875,84.40625 L 2484.4062,80.40625 C 2483.0645,79.347055 2482,78.342202 2482,77.9375 2482,77.366124 2480.875,75.242244 2479.5,73.21875 2476.8267,69.284636 2476.2542,64.060415 2478,59.46875 2478.5533,58.01324 2479.5658,57.026485 2480.25,57.25 2481.8282,57.765634 2483.8638,63.523064 2483.9375,67.6875 2484.0665,74.981473 2488.6502,71.839706 2490,63.53125 2491.2041,56.120012 2489.9176,50.761363 2486,46.84375 2482.5032,43.346965 2479.9792,43.265143 2475.2188,46.5 2470.6349,49.614808 2470.2115,49.583077 2466.3438,46.0625 2462.3259,42.405294 2461.6281,40.095049 2463,35 L 2464.0938,30.90625 2468.4375,31.53125 C 2474.8688,32.495676 2477.1945,30.907396 2476.8125,25.78125 2476.3748,19.908588 2474.5917,19.275394 2467.7812,22.5 L 2462.125,25.1875 2459.3125,22.59375 C 2455.8693,19.401014 2455.4784,19.393961 2451.4062,22.5 2447.448,25.519066 2446.9097,25.558743 2444.7188,23 2442.6372,20.568915 2439.3108,20.423725 2436.8438,22.65625 2434.4778,24.7975 2434.5089,26.111668 2437.125,29.4375 2438.9732,31.787082 2439.7523,32.068247 2442.7812,31.5 2447.211,30.668966 2447.9801,31.796259 2448,39.1875 2448.0133,44.139266 2447.6731,45.129825 2445.375,46.9375 2442.0304,49.568396 2439.8066,49.558659 2437.4062,46.90625 2434.9073,44.144947 2430.6793,42 2427.7188,42 2423.7509,42 2419.4265,48.025092 2417.0625,56.8125 2415.7129,61.828959 2416.8443,66.653073 2420.0938,69.59375 2421.8282,71.163467 2422.2395,71.220505 2423.0312,69.96875 2423.5393,69.16562 2423.9916,66.771347 2424,64.65625 2424.0195,59.749787 2427.3458,54.760077 2430.3438,55.1875 2432.9209,55.554944 2439,64.219783 2439,67.53125 2439,68.818864 2437.0048,72.185108 2434.4688,75.15625 2428.775,81.826645 2428.1802,84.039913 2431,88 2432.2026,89.68881 2433.5979,92.622037 2434.125,94.53125 2434.883,97.276336 2435.6118,98 2437.5312,98 2440.8794,98 2443.325,93.090759 2442.7188,87.625 2442.379,84.561923 2442.8032,82.660926 2444.375,80.25 2445.5379,78.466258 2446.9853,77.003758 2447.5938,77 2448.2022,76.996242 2450.8378,78.608737 2453.4375,80.59375 L 2458.1562,84.21875 2463.7188,80.40625 2469.25,76.59375 2471.7188,79.46875 C 2473.6728,81.740437 2474.0301,82.962986 2473.5,85.40625 2471.6443,93.958512 2471.6561,96.285111 2473.5312,97.65625 2476.2177,99.62067 2477.5989,99.33965 2479.7812,96.34375 2480.6028,95.215935 2481.1375,94.633689 2481.9375,94.34375 z M 2472.375,23.5625 C 2474.8084,23.213706 2475.5046,24.578071 2474.1875,27.46875 2472.8083,30.495763 2471.0508,30.661564 2467.875,28.0625 L 2465.5,26.125 2469.375,24.5 C 2470.563,23.999177 2471.5639,23.678765 2472.375,23.5625 z M 2440.8438,24 C 2442.314,24 2444.2325,26.833996 2443.5312,27.96875 2442.7502,29.232471 2441.9331,29.258395 2440.0938,28.09375 2438.6511,27.180298 2439.2353,24 2440.8438,24 z M 2455.2188,24.34375 C 2455.9783,24.25468 2456.7263,24.454076 2457.7188,24.90625 2460.0362,25.962165 2460.1517,26.478924 2459.9688,33.28125 2459.6767,44.136224 2459.7156,44.25379 2464.1875,47.96875 2468.9155,51.896558 2471.6204,52.073561 2476.0312,48.8125 2479.945,45.918943 2483.8039,47.118336 2486.25,52 2488.1232,55.738119 2488.6569,65 2487,65 2486.45,65 2486,64.11259 2486,63.03125 2486,61.94991 2485.2203,59.469187 2484.2812,57.5 2482.0469,52.814572 2478.4851,52.960013 2475.625,57.875 2472.4105,63.399143 2473.0233,68.923473 2477.5312,75.46875 2481.2913,80.928075 2481.3355,81.165338 2480.25,85.78125 2479.6388,88.380462 2478.8873,91.7375 2478.5625,93.25 2477.9822,95.952012 2475.6904,96.957386 2474.5,95.03125 2474.167,94.492371 2474.631,91.934574 2475.5,89.375 2476.7229,85.772932 2476.8237,84.037165 2476,81.625 2474.9689,78.605387 2470.7244,73 2469.4688,73 2469.1285,73 2466.7341,74.8 2464.125,77 2459.6189,80.799646 2457,81.965249 2457,80.1875 2457,78.584336 2447.8967,72.94201 2446.5625,73.71875 2443.9855,75.2189 2439.7705,81.086101 2439.6875,83.28125 2439.6412,84.506826 2439.9477,86.870549 2440.3438,88.53125 2440.8307,90.572921 2440.577,92.192064 2439.5938,93.53125 2438.1681,95.473019 2438.1204,95.451056 2437.125,93 2436.5666,91.625 2435.1916,89.15 2434.0625,87.5 2432.9335,85.85 2432.0036,84.020373 2432,83.4375 2431.9964,82.854627 2434.0239,79.994603 2436.5,77.09375 2441.782,70.9058 2442.6188,68.404874 2441,63.5 2439.3438,58.48161 2432.9837,52 2429.7188,52 2426.4477,52 2423.3207,55.884344 2421.8438,61.75 2421.0721,64.814152 2420.4713,65.769655 2419.875,64.84375 2417.948,61.851617 2421.458,49.055021 2424.9688,46.28125 2427.4666,44.307855 2429.4713,44.800729 2434.125,48.5 2439.2088,52.541256 2442.6005,52.911114 2446.5,49.84375 2450.8235,46.442915 2452.0987,42.275109 2450.9688,35.375 2449.6629,27.401644 2449.6563,27.445214 2452.625,25.5 2453.6819,24.80751 2454.4592,24.43282 2455.2188,24.34375 z M 2456.8438,48.59375 C 2455.5544,48.403559 2454.5469,49.234372 2451.9062,51.875 2449.4561,54.325142 2448,56.686257 2448,58.25 2448,62.569882 2450.9076,69.417915 2453.75,71.75 2455.255,72.984768 2457.2643,73.997268 2458.1875,74 2464.4998,74.018679 2467.939,59.74727 2463.1562,53.375 2461.8612,51.649563 2459.6825,49.717967 2458.3125,49.09375 2457.7509,48.837892 2457.2735,48.657147 2456.8438,48.59375 z M 2455.8438,50.65625 2459.5625,54.34375 C 2462.925,57.7062 2463.1946,58.406695 2462.625,61.96875 2462.2805,64.123274 2461.5664,67.030209 2461.0312,68.4375 2458.8379,74.206374 2452.4628,69.149566 2451.4688,60.84375 2451.0387,57.250432 2451.3735,55.986 2453.4062,53.5625 L 2455.8438,50.65625 z"/>
</svg>
