<svg xmlns="http://www.w3.org/2000/svg"
     width="33.3" height="64.0"
     viewBox="5954.4688 14.8288 48.2167 92.7341">
  <path d="M 5958.4688,86.5 5959.5625,89.625 C 5963.512,89.720938 5967.2839,87.271103 5969.7188,82.5625 5970.9243,80.231496 5971.1011,77.712552 5970.5625,70.375 5969.8563,60.753895 5970.9462,54.167025 5973.7812,50.8125 5975.0487,49.312859 5974.8448,48.598595 5971.9688,44.59375 5968.4664,39.716891 5967.1848,33.177396 5968.4375,26.5 5969.4165,21.281491 5971.3924,22.685913 5972.0938,29.09375 5972.7919,35.473043 5975.1016,40.376779 5978.4375,42.5625 5981.8834,44.820335 5984.0597,43.079652 5988.5312,34.5625 5993.2333,25.60638 5994,24.799879 5994,28.78125 5994,32.978853 5990.816,41.255945 5987.5312,45.5625 5982.8763,51.665443 5981.8573,55.245138 5983.125,61.15625 5983.808,64.340883 5984.0039,70.310183 5983.625,76.4375 5983.1677,83.831411 5983.3516,86.933129 5984.2812,88.125 5985.9987,90.327068 5991.9744,94.283901 5994.2188,94.8125 L 5994,91.59375 C 5992.7712,91.320473 5991.4619,90.595379 5989.7812,89.09375 L 5986.5312,86.1875 5986.4062,69.03125 5986.3125,51.875 5989.4688,47.6875 C 5995.0122,40.343215 5998.6855,28.591593 5996.75,24.34375 5995.0248,20.557272 5992.8826,21.948054 5988.5312,29.6875 5982.0342,41.242921 5981.5786,41.749799 5979.4688,40 5977.0406,37.986074 5975,32.798058 5975,28.6875 5975,23.736126 5973.0709,18.828819 5971.25,19.1875 5970.4093,19.353081 5968.7521,20.759669 5967.5938,22.3125 5965.8806,24.609299 5965.5,26.567478 5965.5,32.8125 5965.5,39.502384 5965.8436,41.048037 5968.25,44.75 L 5971.0312,49 5968.9062,55.25 C 5967.0851,60.655763 5966.8965,62.787012 5967.5,71.21875 L 5968.2188,80.9375 5965.1875,83.96875 C 5962.7589,86.397343 5960.6338,87.132507 5958.4688,86.5 z M 5960.6562,92.84375 5961.6562,95.75 C 5964.6147,94.502442 5967.7776,92.944423 5970.0312,91.46875 5972.557,89.814869 5972.6045,89.826075 5979.1875,96.3125 5982.8284,99.900041 5986.8692,103.07085 5988.1562,103.34375 5989.1898,103.56289 5992.121,103.56144 5994.7812,103.53125 L 5994.625,100.96875 C 5988.3662,100.86722 5985.2922,98.981746 5977.9375,90.8125 5973.0785,85.415355 5972.947,85.383821 5967.5,89 5966.0715,89.948353 5963.1557,91.554851 5960.6562,92.84375 z"/>
</svg>
