<svg xmlns="http://www.w3.org/2000/svg"
     width="43.6" height="64.0"
     viewBox="5077.2812 13.4446 61.4248 90.1366">
  <path d="M 5085.7812 81.3125 L 5083.4062 87.5625 C 5084.4667 86.233779 5085.1839 86.291058 5090.4062 88.03125 C 5097.6123 90.432388 5098.9207 90.472421 5103.9062 88.3125 C 5106.6277 87.133438 5108.9229 84.927364 5111.4062 81.15625 C 5115.6707 74.680832 5115.9354 71.025283 5113 59.375 C 5107.9888 39.486801 5112.7649 17.444562 5120.2812 25.75 C 5123.4645 29.26749 5124.4944 36.242527 5123.1875 45.28125 C 5122.526 49.856737 5122 55.534679 5122 57.90625 C 5122 62.803337 5125.1397 69.206686 5128.6875 71.53125 C 5129.9584 72.364015 5131 73.943929 5131 75.03125 C 5131 77.356971 5129.7077 77.582726 5127.7188 75.59375 C 5126.3138 74.188803 5124.6355 73.644452 5122.2812 73.875 C 5121.6159 73.940166 5120.5449 75.743213 5119.9062 77.875 C 5118.5358 82.448877 5111.022 92.856776 5107.7812 94.65625 C 5103.7743 96.881225 5093.6603 95.825533 5085.75 92.34375 C 5083.7502 91.4635 5082.7158 90.914439 5082.3438 90.3125 L 5081.2812 94.53125 L 5081.3125 94.90625 C 5082.6147 94.657205 5084.034 94.986552 5087.4062 96.125 C 5096.1824 99.087803 5103.9547 99.581148 5108.4062 97.46875 C 5113.0189 95.279932 5120.0956 86.768791 5121.9375 81.1875 C 5123.3827 76.808555 5124.9156 75.988498 5127 78.5 C 5128.7345 80.589977 5131.7346 80.36861 5132.9688 78.0625 C 5134.706 74.816362 5134.1411 72.508939 5130.875 69.4375 C 5125.4051 64.293439 5124.8214 61.663254 5126.1875 48 C 5127.8406 31.465736 5125.5427 23.004355 5118.6875 20.5625 C 5115.276 19.347304 5112.9574 21.386583 5109.9062 28.3125 C 5108.0677 32.485929 5107.6402 35.13297 5107.75 41.90625 C 5107.8774 49.764756 5108.8686 56.265382 5111.0625 63.5625 C 5114.3711 74.567348 5107.8804 87.015904 5098.8125 87 C 5097.5476 86.997781 5094.2738 86.191303 5091.5625 85.21875 C 5088.535 84.132807 5087.1806 83.310574 5085.7812 81.3125 z "/>
</svg>
