<svg xmlns="http://www.w3.org/2000/svg"
     width="35.4" height="64.0"
     viewBox="7334.3750 44.0000 30.0603 54.2812">
  <path d="M 7355.3251,73.380508 C 7355.6595,71.796229 7356.4958,65.4375 7357.1836,59.25 7357.8714,53.0625 7358.8552,48 7359.3699,48 7360.4353,48 7359.4918,67.800546 7358.2057,72.43484 7357.0884,76.460749 7354.4953,77.312018 7355.3251,73.380508 z M 7338.8125,80.5 7338.6875,83.90625 C 7342.5532,82.937054 7344.214,81.055446 7347.125,75.59375 7349.8121,70.552341 7350.3918,68.180954 7350.9062,60.21875 7351.46,51.648211 7351.0298,48.520129 7349.5938,50.84375 7349.2951,51.326906 7348.8481,55.577244 7348.5938,60.28125 7348.2751,66.175396 7347.4968,70.062379 7346.0938,72.8125 7344.3382,76.253751 7341.1925,79.42918 7338.8125,80.5 z M 7338.4375,91.90625 7338.375,94.28125 C 7339.2181,93.853439 7340.6725,93 7340.875,93 7341.3315,93 7342.5045,92.1 7343.5,91 7345.6426,88.632474 7344.2916,89.046909 7338.4375,91.90625 z"/>
</svg>
