<svg xmlns="http://www.w3.org/2000/svg"
     width="64.0" height="52.4"
     viewBox="1727.7976 14.7988 107.1086 87.6864">
  <path d="M 1800.7812 19.1875 C 1799.5627 19.363253 1797.4945 21.075 1796.1875 23 C 1794.1373 26.019436 1793.8974 27.254137 1794.4375 31.96875 C 1794.7819 34.974486 1795.725 38.758735 1796.5312 40.375 C 1797.3375 41.991265 1798 44.020106 1798 44.90625 C 1798 48.521154 1788.9608 62 1786.5312 62 C 1785.9012 62 1784.0808 60.65 1782.5 59 C 1779.1204 55.472419 1777.7132 55.30037 1774.2812 58 C 1769.6328 61.656425 1769 60.841506 1769 51.21875 C 1769 43.480877 1769.293 42.012456 1771.5312 38.71875 C 1774.6116 34.185612 1776.9262 34.010905 1779.25 38.09375 C 1781.7903 42.556922 1783.3744 41.266847 1784.3438 33.9375 C 1785.3427 26.384996 1784.2226 22.52566 1780.5312 20.84375 C 1778.291 19.823009 1777.2714 20.194612 1770.8438 24.46875 C 1766.189 27.563901 1763.224 28.943998 1762.4688 28.375 C 1761.8265 27.891247 1759.4548 26.271464 1757.2188 24.78125 C 1754.9826 23.291036 1752.8849 21.603536 1752.5312 21.03125 C 1752.1777 20.458964 1750.6467 20 1749.125 20 C 1744.9493 20 1741.7954 23.968541 1741.2188 29.96875 C 1740.3645 38.859591 1744.6122 44.538679 1752.5625 45.1875 L 1756.5 45.5 L 1757.0938 51.5 C 1757.4148 54.8 1757.4991 57.834445 1757.2812 58.25 C 1757.0634 58.665556 1754.9452 57.878056 1752.5938 56.5 C 1745.3069 52.229621 1741.3442 53.368165 1737.6562 60.78125 C 1732.7591 70.625154 1731.7976 85.763818 1735.5 94.625 C 1737.0189 98.260135 1737.0446 98.312542 1739.4062 97.40625 C 1740.6943 96.911961 1741 95.04538 1741 87.34375 C 1741 77.327507 1743.4648 68.811152 1746.7188 67.5625 C 1748.5278 66.8683 1753.586 71.906256 1756.4688 77.28125 L 1758.4375 80.9375 L 1755.5938 83.90625 C 1753.6226 85.96362 1752.6082 88.228259 1752.25 91.40625 C 1751.5463 97.64941 1753.7677 98.485228 1758.0625 93.59375 C 1759.7955 91.619913 1761.8081 90 1762.5312 90 C 1763.2545 90 1764.803 91.551393 1765.9688 93.4375 C 1768.4155 97.396472 1769.7704 98.107495 1772.3438 96.78125 C 1772.8878 96.500886 1773.8029 96.444981 1774.875 96.5 L 1774.8438 96.3125 L 1772 82.53125 C 1771.5737 82.192498 1770.9289 81.850885 1770.75 81.53125 C 1769.6251 79.521237 1771.2868 74.952391 1774.0312 72.46875 C 1775.7514 70.911963 1776.3387 70.907992 1782.4375 72.4375 C 1786.9715 73.574593 1789.5471 73.77097 1790.8125 73.09375 C 1793.4991 71.655954 1800.1121 64.211493 1803.5312 58.75 C 1805.9198 54.934872 1807.9369 53.253866 1813.6562 50.34375 C 1817.7124 48.279933 1821.4932 46.962139 1822.4062 47.3125 C 1822.8119 47.468164 1823.0365 47.856493 1823.2812 48.21875 L 1830.9062 45.1875 C 1830.5823 43.62809 1830.4826 43.579962 1830.0625 41.5 C 1829.6182 39.3 1828.9494 36.752052 1828.5625 35.84375 C 1827.5595 33.489157 1823.897 32.802264 1821.5312 34.53125 C 1815.8983 38.648246 1814.9961 39.127625 1814.0312 38.53125 C 1813.457 38.176383 1813 35.931592 1813 33.53125 C 1813 30.279818 1813.6698 28.354919 1815.625 26.03125 C 1817.0685 24.315822 1817.9323 22.619817 1817.5625 22.25 C 1816.2802 20.96777 1813.5037 23.632074 1811.0938 28.4375 C 1808.8182 32.974704 1808.7577 33.510721 1810.0938 37.375 C 1811.9858 42.847642 1814.8147 43.274172 1820.25 38.90625 C 1824.1253 35.791954 1824.3343 35.754789 1825.6562 37.5625 C 1826.414 38.598878 1826.8184 40.064235 1826.5312 40.8125 C 1826.2441 41.560764 1826 42.588734 1826 43.09375 C 1826 43.598767 1824.2993 44 1822.2188 44 C 1819.8265 44 1816.0556 45.282 1811.9375 47.46875 C 1806.5026 50.354666 1804.6263 52.081465 1800.625 57.9375 C 1797.9882 61.796655 1794.2437 66.335644 1792.3125 68.03125 C 1788.5342 71.348683 1786.4742 71.413748 1779.1562 68.40625 C 1775.1017 66.739933 1773.0016 67.65357 1770.2188 72.25 C 1766.682 78.091584 1766.5688 79.800244 1769.5 85.59375 C 1771.0802 88.716969 1771.9409 91.670217 1771.5625 92.65625 C 1771.0214 94.066363 1770.3992 93.749822 1767.875 90.6875 C 1764.2768 86.322348 1761.3239 85.961837 1758 89.5 C 1756.7083 90.875 1755.2808 92 1754.8125 92 C 1753.297 92 1756.9769 86.079979 1759.5312 84.40625 C 1760.8948 83.512815 1762 82.131915 1762 81.34375 C 1762 79.305778 1755.4378 69.303247 1752.2188 66.4375 C 1747.7797 62.48552 1745.0006 63.493661 1741.5625 70.375 C 1738.8749 75.75397 1738.6355 77.089683 1738.7812 85.8125 C 1738.9032 93.115599 1738.6805 95.055395 1737.7812 94.15625 C 1737.1149 93.489869 1736.4241 88.877655 1736.1875 83.46875 C 1735.836 75.431953 1736.1164 72.957953 1738 67.71875 C 1740.4671 60.856754 1743.3954 57 1746.1562 57 C 1747.1496 57 1750.4519 58.581436 1753.5 60.53125 C 1756.548 62.481064 1759.5102 63.798157 1760.0938 63.4375 C 1761.6191 62.494805 1760.6631 45.510235 1758.9688 43.46875 C 1758.2341 42.583446 1756.7954 42.078522 1755.7812 42.34375 C 1752.2962 43.255093 1747.0743 41.044403 1745.5 38 C 1742.7977 32.774387 1744.226 24.686398 1748.0625 23.46875 C 1749.9573 22.86737 1758.8835 28.002191 1760.2812 30.5 C 1761.6464 32.939293 1764.6579 32.228831 1770.75 28 C 1773.9183 25.800718 1777.2757 24.000718 1778.2188 24 C 1780.384 23.99835 1782 26.969864 1782 30.9375 C 1782 34.284901 1780.9385 34.835695 1779 32.5 C 1777.3223 30.478441 1773.6511 30.604227 1771.7188 32.75 C 1770.852 33.7125 1769.0235 36.772263 1767.625 39.5625 C 1765.2899 44.221268 1765.1243 45.363458 1765.6875 53.34375 C 1766.0248 58.123318 1766.8359 62.779177 1767.5 63.6875 C 1768.5915 65.180103 1769.1645 64.992499 1773.375 61.96875 L 1778.0312 58.625 L 1781.3125 61.8125 C 1785.7364 66.100282 1788.0536 65.879432 1792.1875 60.75 C 1799.606 51.544855 1803.7254 41.595979 1800.625 40.40625 C 1799.7427 40.067651 1798.628 37.519229 1797.9688 34.34375 C 1796.6879 28.173815 1797.8133 23.709827 1801.125 21.9375 C 1803.6933 20.562961 1803.4762 18.798813 1800.7812 19.1875 z M 1808.9688 22.0625 C 1808.6011 22.036564 1808.0999 22.144817 1807.5 22.375 C 1803.7799 23.802515 1801.252 36.157582 1804 39.46875 C 1806.8389 42.889464 1808.5797 40.450645 1806.4062 36.09375 C 1804.6687 32.61077 1805.547 28.282773 1808.6875 24.8125 C 1810.0798 23.274052 1810.0717 22.140307 1808.9688 22.0625 z "/>
</svg>
