<svg xmlns="http://www.w3.org/2000/svg"
     width="44.7" height="64.0"
     viewBox="2156.4503 14.0000 62.2554 89.0606">
  <path d="M 2168.7176,96.915211 2164.9351,94.918815 2166.7176,91.831895 C 2167.698,90.134089 2169.9627,87.564856 2171.7502,86.122488 2173.5377,84.68012 2175.0002,83.258555 2175.0002,82.963455 2175.0002,82.668355 2172.7502,80.747129 2170.0002,78.694063 2167.2502,76.640998 2165.0002,74.329469 2165.0002,73.557334 2165.0002,71.287177 2170.0063,66 2172.1558,66 2173.2436,66 2175.6086,67.125 2177.4113,68.5 2181.2555,71.432136 2182.5517,71.611042 2183.4269,69.330294 2184.3092,67.031166 2181.0008,50.330628 2178.4571,44.24256 L 2177.0271,40.820231 2173.6456,42.910115 C 2168.6312,46.009215 2165.3696,45.654145 2162.9892,41.75 2160.5119,37.686821 2160.4503,33.807652 2162.8289,31.654988 2165.2556,29.45889 2168.2929,29.560966 2170.4188,31.910063 2171.3695,32.960598 2173.3439,34.120423 2174.8062,34.487451 2176.9481,35.025022 2177.8887,34.623425 2179.6441,32.422024 2181.3884,30.23442 2181.599,29.330364 2180.6995,27.890114 2179.2753,25.60964 2180.4667,24.312305 2182.4633,25.969375 2184.7845,27.895774 2187.0002,26.460918 2187.0002,23.031385 2187.0002,19.782274 2188.0633,19.166186 2189.8841,21.360114 2191.4258,23.217697 2196.1387,22.186543 2196.7475,19.85845 2197.0148,18.836303 2197.9085,18 2198.7335,18 2199.7265,18 2200.0617,18.65673 2199.7253,19.943183 2198.9333,22.971778 2202.1102,25.288878 2205.3603,24.053172 2208.3458,22.918094 2208.7086,23.559746 2206.4761,26.026642 2204.2729,28.461149 2205.6312,31.309434 2208.6357,30.555339 2211.2107,29.909066 2211.9369,31.42656 2209.5002,32.361626 2207.7396,33.03725 2207.649,33.946091 2208.9907,37.475142 2209.8367,39.700157 2210.2746,39.923493 2211.9907,39.005058 2214.3055,37.76624 2214.7057,39.169618 2212.5482,40.960131 2209.8079,43.234392 2207.6832,41.649467 2205.2259,35.498028 2201.3296,25.744162 2198.0931,23.493379 2191.5443,25.983239 2188.0299,27.319415 2180.0002,35.734243 2180.0002,38.08105 2180.0002,39.124673 2180.9081,42.345874 2182.0177,45.239273 2184.8646,52.662605 2186.7454,68.068968 2185.2149,71.428147 2183.7414,74.662063 2182.0122,74.663941 2176.9007,71.437177 2173.0842,69.027953 2172.6958,68.969401 2170.4206,70.46023 2167.1395,72.610039 2167.3436,73.409368 2172.0099,76.685146 2177.8911,80.813726 2178.1186,83.185132 2173.1182,88.235533 2170.8533,90.523071 2169.0002,92.765534 2169.0002,93.218785 2169.0002,93.672036 2170.0819,94.535711 2171.4039,95.138062 2173.5499,96.115849 2174.4651,95.686002 2179.942,91.128127 L 2186.0764,86.023006 2190.2883,88.635059 C 2192.6048,90.071689 2195.508,92.165524 2196.7397,93.288026 2198.9094,95.265303 2199.0419,95.272208 2200.9897,93.509483 2202.0955,92.508781 2203.0002,91.347719 2203.0002,90.929344 2203.0002,90.51097 2201.2002,88.462989 2199.0002,86.378275 2196.8002,84.293562 2195.0002,82.089803 2195.0002,81.481035 2195.0002,80.872266 2196.3502,79.0808 2198.0002,77.5 2201.1227,74.508419 2201.9004,71.492788 2199.7502,70.713821 2199.0627,70.464756 2197.8012,70.866874 2196.947,71.607416 2196.0927,72.347958 2194.3466,73.076739 2193.0669,73.226928 2191.1316,73.454048 2190.698,72.995169 2190.4903,70.5 2190.3529,68.85 2189.7687,62.795804 2189.192,57.04623 2188.13,46.458684 2188.9719,36.972105 2191.215,34.25 2194.3992,30.385917 2200.5985,35.52996 2203.6893,44.600842 2204.5428,47.105743 2205.8619,49.393431 2206.6206,49.684592 2208.6513,50.463843 2208.2989,52 2206.0894,52 2204.8262,52 2203.4705,50.537259 2202.0894,47.684276 2200.9403,45.310627 2200.0002,42.90562 2200.0002,42.339815 2200.0002,41.77401 2198.8566,40.003586 2197.459,38.405539 2195.0303,35.628757 2194.8556,35.582506 2193.5169,37.361832 2191.3548,40.235604 2190.744,48.600341 2191.9787,58.426483 2192.5956,63.336048 2193.3301,67.724765 2193.6109,68.179187 2193.8918,68.633609 2195.0505,68.508255 2196.1859,67.900623 2198.6154,66.600381 2201.8717,67.963286 2203.8308,71.100412 2204.8948,72.804133 2204.6196,73.702963 2201.8557,77.551638 L 2198.6444,82.023341 2201.8223,85.130328 C 2205.5663,88.790738 2205.7884,91.01488 2202.8121,95.040493 2200.4751,98.201562 2196.3444,99.060571 2195.3938,96.583217 2194.7395,94.878137 2187.5785,90 2185.7298,90 2185.0076,90 2182.4292,92.025 2180.0002,94.5 2177.5712,96.975 2174.89,98.980112 2174.042,98.955804 2173.194,98.931496 2170.798,98.01323 2168.7176,96.915211 z M 2171.7777,40.443296 C 2174.7867,38.33573 2174.5945,37.530391 2170.4748,34.984312 2166.4949,32.524586 2164.0002,32.929173 2164.0002,36.034357 2164.0002,41.432221 2167.5184,43.426628 2171.7777,40.443296 z"/>
</svg>
