<svg xmlns="http://www.w3.org/2000/svg"
     width="33.8" height="64.0"
     viewBox="3784.6226 16.5069 46.4399 87.9300">
  <path d="M 3802.5 28.75 L 3801.0312 32 C 3801.3434 33.065241 3801.1506 33.764631 3800.25 33.6875 L 3798.9375 36.5625 L 3798.9062 36.625 C 3799.7511 37.70624 3800 39.179743 3800 42.3125 C 3800 46.727136 3799.6634 47.662951 3797.7812 48.5 C 3793.9924 50.185076 3789.7584 57.322247 3789.2188 62.9375 C 3788.6226 69.141527 3789.6928 69.40171 3795.1875 64.4375 C 3800.0754 60.021577 3803.0253 60.119948 3804.2188 64.75 C 3804.8891 67.350995 3804.4512 69.550376 3802.0312 75.59375 C 3798.1438 85.302056 3798.03 90.721681 3801.6562 95.03125 C 3803.124 96.775443 3805.2614 98.568106 3806.4062 99.03125 C 3809.8808 100.43683 3814.2201 100.10183 3819.75 98 C 3822.697 96.879935 3825.0729 96.245168 3827.0625 96.09375 L 3826.75 93.21875 C 3824.7489 93.44276 3822.5493 93.995164 3820 95 C 3812.1968 98.075737 3805.9706 97.200235 3802.75 92.5625 C 3801.2564 90.411695 3802.0715 83.045758 3804.5 76.59375 C 3807.479 68.679345 3807.6912 63.099347 3805.1562 59.96875 C 3802.9245 57.212716 3799.6446 57.738104 3795.0625 61.59375 L 3792 64.1875 L 3792 61.28125 C 3792 57.423453 3796.2967 51.755947 3800.2812 50.375 C 3802.5703 49.581621 3803.418 48.719358 3803.2188 47.375 C 3802.3031 41.19337 3803.1546 34.598238 3805.4688 30.03125 C 3808.2918 24.460106 3809.2491 23.645215 3811.8438 24.46875 C 3815.9673 25.777493 3817.2625 35.424921 3814.5312 44.5 C 3813.0231 49.511036 3813.2195 51 3815.375 51 C 3818.2321 51 3823 58.814825 3823 63.5 C 3823 67.087492 3821.3828 67.40492 3817.6562 64.5625 C 3812.7859 60.8477 3811.7401 61.181805 3812.5 66.25 C 3813.024 69.745636 3812.5918 71.653733 3810.0625 77 C 3806.6756 84.159038 3806.2095 88.099099 3808.5 90 C 3811.0048 92.078856 3814.885 91.416845 3819.4688 88.125 C 3822.3017 86.090486 3824.1619 85.232326 3825.7812 85.25 L 3825.4375 82.15625 C 3824.3521 82.362488 3821.7067 83.743571 3819.0625 85.5625 C 3810.0917 91.733285 3807.8689 88.704682 3812.9375 77.15625 C 3814.6216 73.31934 3816 69.464062 3816 68.59375 C 3816 66.446735 3817.3218 66.593083 3819.5 69 C 3822.0001 71.762589 3822.8821 71.528506 3824.5 67.65625 C 3826.4274 63.04332 3824.297 54.933366 3820 50.5 C 3816.9989 47.403658 3816.9438 47.181957 3818 42.46875 C 3819.3626 36.388887 3818.349 27.699308 3815.9062 24.59375 C 3812.6914 20.506864 3810.0681 20.597257 3806.0625 24.90625 L 3802.5 28.75 z "/>
</svg>
