<svg xmlns="http://www.w3.org/2000/svg"
     width="41.8" height="64.0"
     viewBox="5647.6562 17.5115 39.5313 60.4572">
  <path d="M 5651.6562 61.84375 L 5652.6875 63.84375 C 5659.3484 60.075996 5666.1679 51.065351 5667.5625 42.34375 C 5668.0628 39.215267 5667.7897 38.128584 5666.0938 36.59375 C 5663.2486 34.01886 5663.4747 30.386142 5666.6562 27.4375 C 5671.4173 23.025121 5677.1362 25.131815 5678.9688 31.9375 C 5680.2506 36.697533 5679.7449 38.113177 5675.9688 40.34375 C 5674.3263 41.313966 5672.7258 43.317559 5672.375 44.8125 C 5670.4627 52.962709 5662.4649 65.49126 5656.4688 71.09375 L 5657.9375 73.96875 L 5662.0938 69.125 C 5666.3478 64.186408 5674.9969 48.838071 5675 46.21875 C 5675.0008 45.509219 5676.8595 43.155116 5679.125 41 C 5682.9052 37.404016 5683.1875 36.769395 5682.5625 33.4375 C 5681.4752 27.641826 5680.0463 25.375721 5676.375 23.625 C 5671.943 21.511518 5670.1503 21.572401 5666.5625 23.9375 C 5660.9986 27.605262 5659.5813 32.935132 5663 37.28125 C 5664.1 38.679673 5665.0004 40.643001 5665 41.65625 C 5664.9985 45.278686 5659.2458 55.56268 5655.1562 59.25 C 5653.8868 60.394579 5652.7521 61.239687 5651.6562 61.84375 z "/>
</svg>
