<svg xmlns="http://www.w3.org/2000/svg"
     width="31.5" height="64.0"
     viewBox="4158.0000 18.0000 44.7015 90.7094">
  <path d="M 4192.25 87.59375 C 4189.5213 86.54383 4189.8911 84.696403 4193.375 81.3125 C 4198.7015 76.138885 4197.9923 74.021083 4192.5 78.6875 C 4186.4321 83.843015 4186.0485 85.829228 4190.0312 91.375 C 4192.4703 94.771287 4193.0808 96.496477 4192.5938 98.4375 C 4191.987 100.85475 4190 102.10285 4190 100.0625 C 4190 99.54296 4187.693 96.617959 4184.875 93.5625 C 4178.3473 86.484806 4176.522 86.404578 4171 93 C 4165.9439 99.038912 4164.5211 99.359767 4165.4688 94.25 C 4166.2801 89.875044 4170.3969 84 4172.6562 84 C 4173.6828 84 4174.0352 83.397353 4173.6875 82.25 C 4167.1696 60.742104 4167.0872 59.628887 4170.5312 43.15625 C 4172.1031 35.638584 4172.5892 34.973005 4174.4688 37.65625 C 4175.2498 38.771484 4177.5285 40.941191 4179.5312 42.46875 C 4182.4003 44.657011 4183.4255 44.977303 4184.3438 44 C 4185.2378 43.048502 4185.1506 42.624853 4184 42.21875 C 4181.2579 41.250955 4175 34.280841 4175 32.1875 C 4175 31.053464 4176.0397 28.885968 4177.3125 27.40625 C 4179.3086 25.085673 4179.9124 24.874794 4181.7812 25.875 C 4184.5761 27.370797 4189.0085 33.864533 4189 36.46875 C 4188.9964 37.578576 4188.0714 39.85 4186.9688 41.5 C 4183.3455 46.922208 4180.6907 57.784116 4180.7812 66.75 C 4180.827 71.281354 4181.1563 75.443854 4181.5 76 C 4182.7647 78.046259 4187.9317 77.030777 4191.2188 74.09375 C 4195.1423 70.588118 4194.3394 68.927542 4190.1562 71.90625 C 4188.5271 73.06625 4186.3941 74 4185.4375 74 C 4183.8619 74 4183.7746 73.035454 4184.2812 63.75 C 4184.8793 52.788451 4186.5565 46.692086 4190.625 40.8125 C 4193.1117 37.219001 4193.1416 37.084398 4191.5 33.625 C 4189.8422 30.131454 4181.8805 22 4180.125 22 C 4178.6829 22 4172 29.841162 4172 31.53125 C 4172 32.374016 4171.3812 34.063101 4170.625 35.28125 C 4168.9006 38.058838 4167.4279 44.209289 4166.0312 54.5625 C 4165.0442 61.87917 4165.1734 63.451846 4167.3125 71.6875 L 4169.6562 80.75 L 4166.9062 84.46875 C 4164.7633 87.342742 4162 95.213411 4162 98.46875 C 4162 99.451779 4165.3152 102 4166.5938 102 C 4167.3845 102 4169.3873 99.785049 4171.0625 97.0625 C 4175.2619 90.23765 4177.5126 89.713339 4181.6562 94.625 C 4183.4554 96.757585 4186.1277 99.7375 4187.5938 101.25 C 4190.7159 104.47145 4192.387 104.70936 4194.1875 102.15625 C 4194.6458 101.50634 4195.4473 100.98637 4196.5938 100.59375 L 4192.25 87.59375 z "/>
</svg>
