<svg xmlns="http://www.w3.org/2000/svg"
     width="60.2" height="64.0"
     viewBox="5188.5155 14.9132 83.5208 88.7879">
  <path d="M 5215.5523,97.75 C 5215.3405,97.0625 5214.8867,95.225111 5214.5438,93.666914 5214.2009,92.108717 5212.8133,89.080159 5211.4603,86.936786 5210.1072,84.793413 5209.0002,82.523343 5209.0002,81.892186 5209.0002,81.261029 5211.2502,77.709546 5214.0002,74 5216.7502,70.290454 5219.0002,66.618497 5219.0002,65.840094 5219.0002,63.629083 5209.6905,55 5207.3051,55 5204.277,55 5200.9074,62.409039 5200.5217,69.915441 5200.0829,78.454767 5198.2995,80.198207 5194.4052,75.894989 5192.863,74.190858 5192.5155,72.334063 5192.5804,66.144989 5192.6731,57.318801 5195.1799,50.486944 5200.2476,45.25 5204.9581,40.382144 5209.9315,41.063248 5218.7774,47.787662 5220.5799,49.157842 5222.2891,50.044428 5222.5757,49.757853 5223.7891,48.544411 5223.2434,41.082447 5221.5511,35.75 5220.5475,32.5875 5219.5783,30 5219.3972,30 5219.2162,30 5217.4741,30.760106 5215.5259,31.689125 5212.1248,33.310996 5211.8746,33.297105 5209.242,31.340228 5205.8925,28.850512 5205.1671,24.578039 5207.6315,21.854923 5209.6933,19.57664 5212.9139,20.000359 5216.8061,23.06199 5220.1709,25.708711 5221.9979,25.508655 5226.9014,21.956583 L 5231.1028,18.913166 5235.1104,22.087254 5239.118,25.261342 5241.994,22.505929 C 5245.2991,19.339491 5248.5887,19.568524 5251.9725,23.200667 5254.4121,25.819272 5254.44,26.248771 5252.424,30.147425 5251.0174,32.867323 5250.4522,33.148592 5247.174,32.759606 5245.1534,32.519847 5242.7725,32.000644 5241.883,31.60582 5240.5973,31.035085 5240.0337,31.81 5239.133,35.386799 5238.51,37.861162 5238.0002,42.161371 5238.0002,44.94282 5238.0002,49.282078 5238.2757,50 5239.9412,50 5241.0087,50 5242.128,49.602254 5242.4284,49.116119 5242.7289,48.629985 5244.977,47.291057 5247.4242,46.140723 5251.4465,44.250044 5252.1938,44.182954 5255.2073,45.44205 5259.4752,47.225328 5261.407,49.404704 5264.0842,55.456945 5268.0363,64.391438 5265.3677,77.794881 5259.1071,80.455118 5257.1103,81.303568 5256.8982,80.818769 5256.6558,74.853213 5256.4045,68.667727 5251.5662,58 5249.0121,58 5248.1485,58 5245.7675,59.626321 5243.721,61.614046 5239.2702,65.937121 5238.9809,68.886093 5242.3957,75.124047 5246.3271,82.305851 5246.3773,83.361866 5243.1214,90.396245 5239.9026,97.350454 5237.5474,99.445386 5234.7244,97.865518 5232.7366,96.753126 5232.4353,91.918782 5234.0628,87.250292 5235.0125,84.525877 5234.7736,83.72004 5231.8128,79.662967 5229.9909,77.166422 5228.0502,75.099016 5227.5002,75.068731 5226.9502,75.038445 5225.4368,76.575223 5224.1371,78.483793 5221.863,81.823126 5221.8226,82.198812 5223.0654,88.451166 5224.2501,94.411421 5224.2053,95.11584 5222.5235,96.974205 5220.4928,99.218137 5216.1534,99.701051 5215.5523,97.75 z M 5221.0002,93.125727 C 5221.0002,92.094876 5220.3324,89.358647 5219.5162,87.045216 5218.2286,83.396013 5218.22,82.475568 5219.4512,80.094805 5221.5512,76.033846 5226.7822,70.761106 5228.2342,71.24177 5228.9305,71.472266 5231.4595,74.061458 5233.8543,76.995529 5238.4226,82.592771 5238.3919,82.419998 5236.3904,91.25 5235.3083,96.023872 5237.9433,94.366033 5240.5753,88.617012 5243.3167,82.628912 5243.0755,80.947919 5238.5106,74.230112 5234.6789,68.591237 5235.1726,65.925351 5241.1359,60.05537 5244.1361,57.102144 5247.177,55 5248.4488,55 5252.5406,55 5258.0537,62.756845 5259.4564,70.487373 5260.1329,74.215862 5260.2714,74.349536 5261.59,72.546243 5264.7431,68.234117 5262.7538,56.088704 5258.0737,51.078699 5254.528,47.283029 5250.9333,47.091062 5246.054,50.436822 5240.5676,54.198817 5237.5413,54.610628 5235.613,51.857589 5233.5835,48.960098 5233.5605,43.485572 5235.5456,35.824945 5237.3106,29.0136 5236.8634,26.611671 5233.4088,24.348147 5231.0974,22.833641 5230.7595,22.894781 5226.9846,25.51079 5224.7932,27.029456 5223.006,28.773301 5223.0131,29.386001 5223.0202,29.9987 5223.9483,33.425 5225.0755,37 5227.0008,43.106015 5227.1876,50.269671 5225.4931,53.011469 5224.3725,54.82461 5221.1051,54.030736 5217.785,51.138671 5213.8095,47.675673 5208.7705,45 5206.2242,45 5203.9136,45 5200.8466,48.217796 5198.1226,53.5 5195.6435,58.307418 5194.2225,70.821462 5195.8396,73.606093 5196.8256,75.304011 5196.9583,75.189548 5197.1221,72.5 5197.6775,63.381894 5201.279,53.991501 5204.9806,52.010474 5207.8895,50.453683 5212.7493,52.840566 5217.3732,58.097097 5223.8641,65.476054 5223.8771,65.755727 5218.0931,73.683094 5215.292,77.522151 5213.0002,81.393994 5213.0002,82.287189 5213.0002,83.180385 5214.1252,85.568962 5215.5002,87.595138 5216.8752,89.621314 5218.0002,92.116298 5218.0002,93.139547 5218.0002,94.162796 5218.6752,95 5219.5002,95 5220.3252,95 5221.0002,94.156577 5221.0002,93.125727 z M 5215.3309,28.548924 C 5217.0919,27.214337 5217.08,27.079808 5215.0194,25.019244 5212.5573,22.557069 5209.6817,22.699994 5209.1791,25.309523 5208.7937,27.310919 5210.6486,30.016825 5212.3726,29.968197 5212.9928,29.950705 5214.324,29.312032 5215.3309,28.548924 z M 5249.9328,28.125867 C 5250.7064,26.680468 5250.4835,25.842326 5248.9583,24.462087 5247.237,22.904346 5246.6581,22.845141 5244.4905,24.0052 5241.8595,25.413276 5241.1443,28.487981 5243.2502,29.337719 5245.9925,30.444278 5248.9822,29.90212 5249.9328,28.125867 z"/>
</svg>
