<svg xmlns="http://www.w3.org/2000/svg"
     width="37.7" height="64.0"
     viewBox="7154.0625 15.8711 51.9156 88.1569">
  <path d="M 7160.9062 80.65625 L 7160.3438 86.65625 C 7161.105 86.037847 7162.3178 86.326879 7165.8438 87.84375 C 7172.0724 90.523259 7175.0259 90.567295 7178.25 88.03125 C 7182.3009 84.844821 7183.1888 78.968808 7182.4062 60.4375 C 7181.6576 42.712119 7182.6532 36.427196 7187.375 29.25 C 7193.5452 19.871068 7195.7788 31.016632 7192.0312 52.5 C 7189.8353 65.087519 7190.4067 69.069631 7195.1875 74.1875 C 7198.0789 77.282752 7198.814 80.371513 7196.9375 81.53125 C 7196.3528 81.892588 7195.0649 81.472629 7194.0938 80.59375 C 7191.7695 78.490241 7189.0791 78.565731 7188.3438 80.75 C 7186.1527 87.258453 7183.4558 91.151687 7179.25 93.9375 C 7173.6614 97.639232 7169.098 97.882416 7163.5 94.71875 C 7161.2943 93.472194 7160.0176 92.07764 7159.5 90.65625 L 7158.0625 95.1875 C 7159.2024 95.289481 7160.608 96.043256 7163.1562 97.5 C 7165.5499 98.868375 7168.9046 99.993375 7170.625 100 C 7177.8923 100.02798 7185.3776 94.430938 7188.9688 86.3125 C 7190.0185 83.93923 7191.217 82 7191.625 82 C 7192.033 82 7193.3928 82.936127 7194.625 84.09375 C 7197.3035 86.610036 7198.5392 86.036659 7200.5 81.34375 C 7201.9781 77.806265 7201.209 74 7199 74 C 7197.3271 74 7193.9863 66.189179 7194 62.28125 C 7194.0073 60.196839 7194.8547 53.775 7195.875 48 C 7198.0727 35.561988 7197.5283 28.090669 7194.1562 24.71875 C 7192.1176 22.68011 7191.7703 22.634188 7189.2812 24.03125 C 7183.4568 27.300444 7178.6736 41.709309 7179.4688 53.625 C 7181.1903 79.422429 7179.8367 86.235541 7172.9375 86.75 C 7170.5332 86.929282 7168.1104 86.136584 7164.9375 84.125 C 7162.972 82.878888 7161.848 81.979997 7160.9062 80.65625 z "/>
</svg>
