<svg xmlns="http://www.w3.org/2000/svg"
     width="37.4" height="64.0"
     viewBox="301.0000 15.3265 52.8059 90.4533">
  <path d="M 328.0625 19.8125 L 323.875 23.375 L 319.6875 26.9375 L 316.3125 23.96875 C 314.45009 22.333533 311.95631 21 310.78125 21 C 307.69677 21 305 23.860581 305 27.125 C 305 31.237538 308.60661 33.275528 315.15625 32.84375 L 320.40625 32.5 L 321.875 36.375 C 323.11468 39.605762 323.16265 41.735512 322.21875 49.375 C 321.59788 54.399939 320.571 60.975 319.9375 64 C 317.67399 74.808459 320.28201 92.297597 325.0625 98.375 C 327.57603 101.57044 331.0416 101.77981 334.84375 98.96875 C 336.18134 97.979832 336.95149 97.534633 337.75 97.5 L 339.6875 92.90625 C 339.60307 92.236848 339.60394 91.54514 339.90625 90.75 C 340.11837 90.192088 340.31926 89.817068 340.53125 89.4375 L 342.0625 82.9375 C 341.37871 81.689648 340.9805 80.310855 340.96875 78.0625 C 340.95563 75.5529 340.47489 71.7 339.90625 69.5 C 335.63402 52.971259 334.89742 48.341236 335.5625 42.03125 C 336.58248 32.354131 337.30844 31 341.40625 31 C 347.56369 31 349.80586 26.563239 345.8125 22.3125 C 343.00726 19.326463 341.23214 19.408656 337.875 22.625 L 335.15625 25.21875 L 331.59375 22.5 L 328.0625 19.8125 z M 341.5625 23.53125 C 342.09806 23.45429 342.65677 23.750018 343.46875 24.34375 C 344.61772 25.183897 345.07494 26.334114 344.6875 27.34375 C 343.97755 29.19385 339.48645 29.60348 338.4375 27.90625 C 338.0633 27.300773 338.60451 25.926746 339.65625 24.875 C 340.48588 24.045367 341.02694 23.60821 341.5625 23.53125 z M 328.53125 24.15625 C 329.67587 24.203861 330.67395 25.0642 332 26.75 C 333.8644 29.120205 334.07204 30.240869 333.46875 35 C 332.35242 43.806332 332.77441 54.103877 334.53125 60.53125 C 337.74487 72.288241 338.15359 74.598081 338.25 82.21875 C 338.32494 88.14287 337.97058 90.394713 336.6875 91.8125 C 335.76681 92.829857 335 94.128551 335 94.6875 C 335 95.24645 334.16206 96.433507 333.15625 97.34375 C 332.15044 98.253994 331.13907 99 330.875 99 C 328.99593 99 326.57034 95.477308 324.46875 89.6875 C 321.51751 81.556909 321.1747 70.059927 323.59375 60 C 324.4534 56.425 325.22537 49.45 325.3125 44.5 C 325.44249 37.115165 325.12976 34.918068 323.5 32.1875 L 321.5 28.84375 L 324.3125 26.4375 C 326.11452 24.881815 327.38663 24.108639 328.53125 24.15625 z M 311.15625 24.1875 C 312.63645 24.10919 314.32984 24.703714 315.53125 26.03125 C 317.44133 28.141862 317.43471 28.2019 315.53125 29.59375 C 314.47093 30.369074 313.11476 31 312.5 31 C 310.32146 31 307.79415 28.344086 308.15625 26.4375 C 308.42313 25.032285 309.67605 24.26581 311.15625 24.1875 z "/>
</svg>
