<svg xmlns="http://www.w3.org/2000/svg"
     width="30.2" height="64.0"
     viewBox="5736.3750 12.7440 42.8997 90.8497">
  <path d="M 5740.4375 97 L 5740.375 99.59375 C 5747.0294 99.214165 5754.8189 94.899914 5758.1875 88.90625 C 5760.5699 84.667378 5762.6487 84.069269 5766.4062 86.53125 C 5769.5828 88.612589 5771.4538 87.607001 5773.3125 82.875 C 5775.2747 77.879855 5774.9644 77.070019 5769.875 74.15625 C 5765.2561 71.511845 5765.3899 73.361116 5768.4062 55.75 C 5771.7213 36.395068 5767.2424 16.744039 5760.7812 22.34375 C 5754.6373 27.668525 5752.712 36.490916 5754.1875 52.5 C 5755.3821 65.4613 5754.887 71.091386 5751.9688 77.875 C 5749.4254 83.787293 5747.6337 85.5301 5743.2188 86.46875 C 5742.1432 86.697416 5741.3722 86.714532 5740.625 86.5625 L 5740.5625 88.78125 C 5745.9812 89.73715 5751.0968 86.448606 5754.125 79.75 C 5756.3765 74.769232 5756.5 73.451298 5756.5 53.5 C 5756.5 34.481847 5756.6887 32.135685 5758.5 28.5625 C 5763.0857 19.51596 5765.3197 24.339527 5765.4062 43.5 C 5765.4539 54.058994 5765.0345 59.05763 5763.6875 63.84375 C 5762.0269 69.744279 5762.0081 70.363023 5763.5312 72.6875 C 5764.4322 74.062448 5766.4943 75.93391 5768.0938 76.84375 C 5771.2118 78.617564 5771.5946 79.997417 5769.9375 83.09375 C 5768.977 84.888548 5768.7128 84.9279 5766.7188 83.53125 C 5765.5227 82.693425 5763.6177 82 5762.4688 82 C 5760.4268 82 5756 85.312494 5756 86.84375 C 5756 87.267914 5754.5709 89.076465 5752.8125 90.875 C 5748.6204 95.162741 5743.6158 97.584972 5740.4375 97 z "/>
</svg>
