<svg xmlns="http://www.w3.org/2000/svg"
     width="26.7" height="64.0"
     viewBox="3870.5002 19.0629 35.5000 84.9371">
  <path d="M 3880.6598,93.25 C 3875.7209,83.344456 3875.5395,81.210996 3879.0054,73.791229 3880.6217,70.331053 3882.0455,66.6 3882.1693,65.5 3882.2932,64.4 3880.6183,59.9 3878.4474,55.5 3874.8377,48.184054 3874.5002,46.809681 3874.5002,39.426731 3874.5002,32.46055 3874.843,30.850208 3877.0002,27.683564 3880.112,23.115512 3881.9703,23.062924 3885.8084,27.434294 3889.4315,31.560787 3889.5649,31.957266 3891.3824,44 3893.1291,55.573803 3893.7958,57.369223 3898.3888,62.866624 3900.3751,65.244056 3902.0002,67.559847 3902.0002,68.012826 3902.0002,71.736596 3898.8442,73.057271 3894.9395,70.967521 3893.3137,70.097398 3892.6956,70.451208 3891.009,73.217521 3888.3045,77.653327 3888.4565,83.206157 3891.4226,88.32193 3894.0311,92.821156 3895.1225,98.319775 3893.5002,98.789611 3892.9502,98.948897 3892.3514,98.12289 3892.1694,96.954041 3891.9875,95.785191 3890.4752,92.344385 3888.8087,89.307805 3885.3856,83.070448 3885.4417,78.975303 3889.047,71.908234 3891.0623,67.957896 3893.5326,66.932433 3895.733,69.132783 3896.356,69.755813 3897.6453,69.966416 3898.5981,69.60079 3900.1173,69.017817 3899.9543,68.540031 3897.2732,65.718008 3892.3836,60.571546 3889.9866,54.680086 3888.9202,45.187966 3887.88,35.928369 3884.6678,27.714954 3881.8865,27.202921 3879.3456,26.735161 3877.0002,32.915277 3877.0002,40.078097 3877.0002,45.35591 3877.6363,47.668128 3881.0002,54.617923 3883.2002,59.163116 3885.0002,63.761362 3885.0002,64.836246 3885.0002,65.911131 3883.6409,69.984858 3881.9796,73.888975 3878.6681,81.670865 3878.72,83.335729 3882.5137,91 3885.5452,97.124229 3886.3652,100 3885.0802,100 3884.5,100 3882.5109,96.9625 3880.6598,93.25 z"/>
</svg>
