<svg xmlns="http://www.w3.org/2000/svg"
     width="43.0" height="64.0"
     viewBox="2068.0200 17.0000 58.4800 86.9816">
  <path d="M 2118.9062 85.59375 C 2118.8225 85.55909 2118.7736 85.567246 2118.6875 85.53125 C 2113.0611 83.18039 2112.9035 80.361118 2118.125 75.875 L 2122.5 72.09375 L 2119.5312 66.5625 C 2117.9006 63.508249 2115.9864 61 2115.2812 61 C 2114.5759 61 2112.1848 62.622868 2109.9688 64.625 C 2107.7526 66.627131 2105.6975 68.00991 2105.375 67.6875 C 2104.3218 66.634249 2104.5453 43.618371 2105.6562 39.21875 C 2106.2521 36.859447 2107.0038 34.683709 2107.3125 34.375 C 2107.6212 34.066291 2109.7226 34.845026 2112 36.125 L 2116.1562 38.4375 L 2118.0625 35.96875 C 2120.402 32.924027 2120.5317 27.760246 2118.375 24.46875 C 2116.1677 21.099938 2111.625 21.113842 2109.4062 24.5 C 2107.2803 27.744755 2105.9987 27.651872 2102.5 24 C 2100.9192 22.35 2099.1574 21 2098.5938 21 C 2098.03 21 2095.6229 22.889928 2093.25 25.21875 L 2088.9375 29.46875 L 2084.7188 27.21875 C 2079.3699 24.385676 2078.2104 24.438231 2076.8438 27.4375 C 2074.0598 33.547593 2079.065 37.772522 2085.4688 34.71875 C 2088.6771 33.188772 2088.7811 33.205681 2089.9688 35.8125 C 2090.6371 37.279219 2091.4341 45.122121 2091.75 53.34375 L 2092.3125 68.25 L 2090.1875 67.09375 C 2089.0175 66.467576 2086.4335 64.27046 2084.4375 62.21875 L 2080.8125 58.5 L 2076.4062 63.5 C 2073.9976 66.25 2072.0426 69.031127 2072.0312 69.6875 C 2072.02 70.343874 2075.1363 73.043874 2078.9688 75.6875 C 2082.8013 78.331127 2085.9513 80.987385 2085.9688 81.59375 C 2085.9862 82.200116 2083.2642 84.85516 2079.9375 87.46875 C 2076.6108 90.082339 2074.0795 92.713705 2074.2812 93.34375 C 2074.4828 93.973795 2076.8499 95.719097 2079.5625 97.21875 C 2082.275 98.718402 2084.8099 99.955902 2085.1875 99.96875 C 2085.5651 99.981597 2088.678 96.85 2092.125 93 C 2095.572 89.15 2098.8196 86 2099.3125 86 C 2099.8054 86 2101.6899 87.4625 2103.5 89.25 C 2112.9358 98.567486 2112.7617 98.465496 2115.5 97 C 2116.9154 96.242504 2117.9658 96.214185 2119.2188 96.53125 L 2118.9062 85.59375 z M 2113.4375 25.21875 C 2115.386 25.118253 2117.1364 27.095169 2116.8125 30.40625 C 2116.4371 34.242973 2113.916 34.902032 2111.125 31.90625 C 2109.5301 30.194335 2109.2969 29.301183 2110.0938 27.8125 C 2111.0071 26.105854 2112.2684 25.279048 2113.4375 25.21875 z M 2098.625 25.4375 C 2100.0545 25.697204 2101.4704 26.845951 2102.9375 28.90625 C 2104.534 31.148293 2104.7434 32.346828 2104.0312 35.09375 C 2103.5453 36.968526 2102.6518 40.361189 2102.0625 42.625 C 2100.1983 49.786652 2101.3986 71.964655 2103.6875 72.71875 C 2104.3406 72.933924 2106.7031 71.296875 2108.9375 69.0625 C 2111.1719 66.828125 2113.5625 65.017718 2114.25 65.03125 C 2114.9375 65.044782 2116.2661 66.616154 2117.2188 68.53125 L 2118.9688 72 L 2114.9062 74.9375 C 2112.6804 76.549925 2110.371 78.043005 2109.75 78.25 C 2109.0972 78.467595 2110.4024 81.193889 2112.875 84.71875 C 2116.5232 89.919733 2117.0161 91.124393 2116.0625 92.90625 C 2114.5557 95.721608 2113.9423 95.576175 2109.9375 91.40625 C 2108.0421 89.43273 2104.7728 86.440417 2102.6562 84.75 L 2098.8125 81.6875 L 2096.1562 85.09375 C 2094.7026 86.970187 2091.7625 90.4125 2089.625 92.75 C 2087.4874 95.0875 2085.2425 96.956534 2084.625 96.90625 C 2082.7596 96.754332 2077.9893 93.569836 2078.0312 92.5 C 2078.0528 91.95 2080.7451 89.475 2084 87 C 2087.2549 84.525 2089.9463 82.011849 2089.9688 81.40625 C 2089.9913 80.80065 2086.6558 77.896129 2082.5625 74.96875 C 2074.6488 69.309092 2074.41 68.662754 2078.9062 64.59375 C 2081.2452 62.477085 2080.5064 62.08566 2088.2812 69.28125 C 2093.8961 74.477679 2094.511 73.287413 2094.4375 56.96875 C 2094.4014 48.944257 2093.7712 39.643255 2093.0312 36.15625 C 2091.7105 29.933032 2091.719 29.812288 2094.2188 27.3125 C 2095.7368 25.794514 2097.1955 25.177796 2098.625 25.4375 z M 2079.8438 28.15625 C 2080.4939 27.959801 2081.5932 28.31591 2083.4375 29.15625 C 2085.4096 30.054784 2085.7407 30.61319 2084.875 31.65625 C 2084.262 32.394925 2082.6826 33 2081.375 33 C 2079.5056 33 2079 32.465666 2079 30.5 C 2079 29.102412 2079.1936 28.352699 2079.8438 28.15625 z "/>
</svg>
