<svg xmlns="http://www.w3.org/2000/svg"
     width="39.8" height="64.0"
     viewBox="1784.5625 16.5958 55.7835 89.6257">
  <path d="M 1790.3125,83.34375 1789.8438,86.6875 C 1790.8581,86.834287 1791.8637,87.22401 1793.5312,88.03125 1798.9904,90.673993 1802.2415,90.526119 1805.875,87.46875 1811.8702,82.424091 1813.2475,78.812816 1813.3438,68.15625 1813.3918,62.838683 1812.9601,54.9 1812.375,50.5 1811.2228,41.836218 1812.5426,32.877176 1815.6562,28.125 1816.9548,26.143337 1817.4072,25.983443 1818.4688,27.125 1820.7746,29.604511 1822,35.187558 1822,43.1875 1822,52.258655 1824.0341,57.455057 1828.9688,60.96875 1830.6312,62.15252 1832,63.999952 1832,65.0625 1832,67.36181 1831.8551,67.397548 1827.6875,65.65625 1821.6198,63.120963 1818.9623,66.259928 1816.4375,79 1815.1058,85.719543 1811.1577,91.95012 1806.25,95.0625 1800.3899,98.778813 1798.2189,98.743784 1793.4688,94.96875 1791.7448,93.598771 1790.3796,92.765706 1789.0938,92.1875 L 1788.5625,95.90625 C 1789.3608,96.364352 1790.2541,97.009866 1791.5,98 1796.812,102.22148 1803.2754,102.08692 1808.7188,97.625 1815.052,92.433726 1817.8495,87.424441 1820.625,76.375 1822.5648,68.652788 1823.6377,67.576074 1827.4062,69.53125 1831.4555,71.632076 1832.755,71.376684 1834.4688,68.0625 1836.346,64.432502 1835.2601,60.869964 1831.5,58.40625 1827.2187,55.601007 1825.2777,50.477581 1824.7812,40.5 1824.4613,34.068532 1823.7279,30.144386 1822.1562,26.75 1819.5654,21.154758 1817.1409,20.5958 1814.0938,24.875 1809.1277,31.849146 1807.649,41.842225 1809.7188,54.5 1811.7893,67.161945 1810.9717,77.032409 1807.4688,81.625 1803.3399,87.038296 1800.8109,87.798121 1795.4375,85.1875 1793.2506,84.12504 1791.7107,83.5894 1790.3125,83.34375 z"/>
</svg>
