<svg xmlns="http://www.w3.org/2000/svg"
     width="50.0" height="64.0"
     viewBox="1683.8438 66.0000 32.2075 41.2139">
  <path d="M 1688.6562,98.46875 1689,101.75 C 1689.0636,101.76192 1689.7084,101.80277 1689.7188,101.8125 1689.8368,101.92318 1692.0173,101.30162 1694.5625,100.4375 1698.8269,98.989711 1699.327,98.988897 1701.0312,100.53125 1703.9958,103.21395 1705.0438,101.77354 1702.4688,98.5625 L 1700.125,95.625 1694.5625,97.53125 C 1691.2686,98.650903 1689.6323,98.822378 1688.6562,98.46875 z M 1687.8438,90.78125 1688.1875,93.9375 C 1691.1064,93.997812 1693.8532,93.188158 1695.5625,91.34375 1696.9113,89.888438 1698,87.984083 1698,87.09375 1698,84.856085 1701.702,78.01884 1704.5938,74.9375 1707.066,72.303063 1707.7468,70 1706.0312,70 1704.51,70 1697.0532,79.879848 1696.3438,82.84375 1694.8395,89.126922 1693.1865,91 1689.0625,91 1688.6348,91 1688.2595,90.828357 1687.8438,90.78125 z M 1711.75,73.40625 C 1710.8398,72.496073 1706.1534,79.340162 1704.5312,83.9375 1702.4867,89.732488 1702.5761,90.932373 1705.5312,95.28125 1708.0756,99.025786 1710.0123,100.08446 1710,97.75 1709.9964,97.0625 1709.0928,95.15 1708,93.5 1705.266,89.371726 1705.4952,86.74396 1709.1562,79.875 1710.8883,76.625703 1712.0513,73.707565 1711.75,73.40625 z"/>
</svg>
