<svg xmlns="http://www.w3.org/2000/svg"
     width="54.9" height="64.0"
     viewBox="5159.3562 36.3750 56.1976 65.5466">
  <path d="M 5183.4375 40.375 C 5183.4564 41.834113 5182.9881 43.365256 5181.4062 45.78125 C 5179.8914 48.095253 5178.2559 50 5177.7812 50 C 5177.3068 50 5175.5625 49.00567 5173.9062 47.78125 C 5171.138 45.734513 5170.6885 45.674046 5168.2812 47.03125 C 5164.3161 49.266991 5163.3562 53.281138 5165.9375 56.90625 C 5167.0919 58.52749 5169.0551 60.022607 5170.2812 60.21875 C 5172.9899 60.652016 5178 59.152766 5178 57.90625 C 5178 57.410054 5178.6462 57 5179.4375 57 C 5181.9154 57 5182.4604 65.424928 5180.6875 76.46875 C 5178.975 87.136888 5179.486 92.923322 5182.4062 95.84375 C 5184.4843 97.92162 5185.7493 96.444709 5184.125 93.84375 C 5182.1838 90.735461 5181.9755 84.259488 5183.5625 75.9375 C 5185.4911 65.824798 5185.3661 61.141001 5183 56.5 C 5181.8999 54.342229 5181.2494 51.767739 5181.5625 50.78125 C 5182.247 48.624627 5186.8545 43 5187.9375 43 C 5188.3608 43 5190.3474 45.462168 5192.3438 48.46875 C 5195.4366 53.126812 5195.8418 54.316973 5195 56.53125 C 5193.2783 61.059666 5193.8381 68.73513 5196.2188 73.28125 C 5197.9026 76.497234 5198.4339 79.271033 5198.4688 85 C 5198.4938 89.125 5198.275 93.378219 5198 94.46875 C 5197.6353 95.91507 5198.0411 96.510393 5199.5 96.65625 C 5199.8439 96.690637 5200.5472 96.927067 5201.0625 97.03125 L 5202.7812 85.90625 C 5202.1554 85.155509 5202.0048 84.171964 5202 82.3125 C 5201.9947 80.221935 5200.8697 76.098364 5199.5 73.15625 C 5197.8961 69.710801 5197 66.019384 5197 62.8125 L 5197 57.84375 L 5200.25 58.0625 C 5206.5528 58.496073 5207.7345 58.099619 5209.0312 54.96875 C 5211.5538 48.878752 5206.5537 44.599044 5201.4375 48.46875 C 5198.4739 50.710347 5197.4961 50.339297 5194.5625 45.90625 C 5192.7594 43.181569 5192.2609 42.20313 5192.5625 40.65625 L 5183.4375 40.375 z M 5170.9062 49.78125 C 5171.5171 49.844424 5172.197 50.100896 5172.9688 50.5 C 5177.6082 52.899118 5178.4175 54.581624 5175.8125 56.40625 C 5171.789 59.224392 5168 57.814327 5168 53.5 C 5168 50.898698 5169.074 49.591729 5170.9062 49.78125 z M 5206.0312 49.78125 C 5206.7983 50.109206 5207.112 51.227771 5206.8438 53.125 C 5206.602 54.833478 5205.7618 55.59053 5203.8438 55.8125 C 5199.883 56.270854 5199.2151 54.079834 5202.4688 51.28125 C 5204.0311 49.937349 5205.2643 49.453294 5206.0312 49.78125 z "/>
</svg>
