<svg xmlns="http://www.w3.org/2000/svg"
     width="64.0" height="47.5"
     viewBox="6687.9295 18.0183 114.9636 85.3242">
  <path d="M 6779.4525,98.088892 C 6778.3261,97.607651 6775.6758,96.04078 6773.563,94.606955 6768.9499,91.476433 6767.0811,91.370645 6762.7747,93.996262 6757.9393,96.944361 6754.6162,96.551064 6750.1322,92.5 6748.0014,90.575 6745.8135,89 6745.2701,89 6744.7267,89 6742.2681,90.772753 6739.8066,92.939451 6733.4423,98.541599 6731.0676,98.893245 6725.1676,95.107238 6719.79,91.656421 6716.8931,91.219608 6714.9458,93.565937 6713.1019,95.787708 6708.5118,98 6705.7459,98 6703.3465,98 6694.8247,93.142666 6693.5198,91.031242 6691.9295,88.458115 6694.3857,88.750094 6699.9188,91.791935 6703.1283,93.556371 6706.4833,95 6707.3745,95 6708.2656,95 6710.778,93.388946 6712.9575,91.41988 6717.37,87.433467 6718.4337,87.44885 6725.6786,91.60384 6727.9765,92.921728 6730.8289,94 6732.0172,94 6733.2055,94 6736.4927,91.975 6739.322,89.5 6742.1513,87.025 6744.7662,85 6745.1329,85 6745.4996,85 6748.1953,86.8 6751.1232,89 6754.0511,91.2 6757.0472,93 6757.7811,93 6758.5151,93 6761.1307,91.875 6763.5935,90.5 6768.8141,87.585377 6770.2785,87.425082 6772.0612,89.573088 6774.1724,92.116944 6781.0491,95.2 6784.6119,95.2 6786.4263,95.2 6789.238,94.255 6790.8601,93.1 6792.4821,91.945 6794.3023,91 6794.9049,91 6795.5075,91 6796.0005,90.55 6796.0005,90 6796.0005,89.45 6796.4505,89 6797.0005,89 6798.8931,89 6797.9972,91.931332 6795.7505,93.089779 6794.513,93.72786 6792.5954,95.071194 6791.4893,96.074965 6789.1322,98.213838 6782.3866,99.342468 6779.4525,98.088892 z M 6704.0382,84.912345 C 6700.9651,82.686172 6700.0796,81.520929 6700.8645,80.735974 6701.6495,79.951019 6702.4486,80.095559 6703.7287,81.254025 6707.4578,84.628789 6710.3126,84.960886 6713.5217,82.393241 6717.2665,79.397019 6718.1409,79.411915 6723.5188,82.563565 6729.4986,86.067975 6735.0486,85.704336 6736.1007,81.73919 6736.8112,79.061887 6735.987,74.31015 6733.8627,68.835786 6732.3912,65.04347 6727.9378,63.381269 6723.7505,65.061482 6721.963,65.77875 6719.2285,67.408344 6717.6738,68.682803 6713.7807,71.874109 6711.2946,71.591556 6707.4561,67.521563 6703.4458,63.269456 6702.0005,57.312244 6702.0005,45.035111 L 6702.0005,36.168663 6698.0005,32.378275 C 6695.8005,30.293562 6694.0005,28.230612 6694.0005,27.793943 6694.0005,25.908081 6696.9014,27.291943 6700.7991,31.037126 L 6705.0005,35.074252 6705.0005,43.960836 C 6705.0005,54.363799 6706.6643,62.588686 6709.4082,65.75 6711.9882,68.722416 6713.0877,68.602181 6718.5528,64.75 6722.0311,62.298267 6724.2231,61.5 6727.4771,61.5 6733.0951,61.5 6735.5988,63.814928 6737.672,70.926014 6739.6349,77.658565 6739.5796,82.467295 6737.5028,85.636908 6735.5059,88.684452 6729.065,88.854371 6723.7393,86 6721.687,84.9 6719.2896,84 6718.4119,84 6717.5341,84 6715.6718,84.9 6714.2734,86 6710.819,88.717175 6709.0278,88.526831 6704.0382,84.912345 z M 6699.2505,87.056438 C 6696.5178,84.776691 6696.4148,84 6698.8455,84 6700.5857,84 6704.0005,86.867471 6704.0005,88.328741 6704.0005,89.600303 6701.4956,88.92935 6699.2505,87.056438 z M 6702.1748,28.685549 C 6700.1271,26.505854 6699.281,24 6700.5928,24 6700.9185,24 6702.3292,24.9 6703.7276,26 6707.0892,28.644244 6708.612,28.52254 6710.6261,25.448653 6711.7883,23.674895 6712.6162,23.215722 6713.3426,23.942061 6714.7758,25.375348 6709.3131,31 6706.4877,31 6705.3115,31 6703.3707,29.958497 6702.1748,28.685549 z M 6711.2533,60.75 C 6708.6046,57.412606 6707.9853,39.828944 6710.3582,35.334786 6712.64,31.013062 6717.7098,25.406191 6718.5713,26.251661 6718.9925,26.665074 6717.9274,28.966317 6716.2045,31.365533 6712.1785,36.971527 6711.1095,41.935597 6712.1202,50.330805 6713.3331,60.40588 6713.893,60.78784 6720.1173,55.785925 L 6724.1167,52.57185 6729.077,54.333579 C 6731.8052,55.30253 6734.4668,55.829863 6734.9917,55.505432 6737.9393,53.683715 6738.5544,42.217262 6736.0569,35.648325 6735.0517,33.00451 6734.9504,32.974559 6732.0627,34.467843 6725.8613,37.6747 6723.0005,35.444588 6723.0005,27.403516 6723.0005,22.721729 6725.1161,22.148976 6730.1368,25.471531 L 6734.2236,28.17605 6737.4097,25.088025 C 6739.162,23.389611 6741.0243,22.018288 6741.5481,22.040641 6742.0719,22.062993 6744.0431,23.400167 6745.9286,25.012138 L 6749.3567,27.942995 6752.5466,25.971497 C 6757.2321,23.075703 6760.8003,23.354138 6761.6352,26.680706 6762.0488,28.328525 6761.7547,30.351372 6760.8719,31.930706 6759.6969,34.032886 6758.5781,34.555413 6754.7182,34.804791 6752.1234,34.972426 6750.0005,35.248506 6750.0005,35.418301 6750.0005,35.588097 6749.5403,38.150941 6748.9778,41.11351 6747.7868,47.386827 6748.6445,54.926165 6750.6362,55.690437 6751.3978,55.982692 6753.6117,55.008481 6755.5559,53.525524 6758.995,50.902436 6759.1644,50.875791 6761.7957,52.544071 6763.2833,53.48723 6765.7217,55.394255 6767.2143,56.781904 6769.3627,58.779195 6770.2223,59.060811 6771.3397,58.13345 6773.3723,56.446564 6775.4139,48.404715 6775.4604,41.9021 6775.496,36.932522 6775.0822,35.767023 6771.7741,31.518344 6768.4275,27.220089 6767.7708,25 6769.8461,25 6770.2462,25 6772.3571,27.3625 6774.537,30.25 6778.1731,35.066268 6778.4932,35.995694 6778.4125,41.5 6778.2881,49.989423 6776.2939,57.375728 6773.3898,60.103994 6770.938,62.407378 6770.9156,62.409066 6767.4646,60.550589 6765.5593,59.524548 6764.0005,58.360515 6764.0005,57.96385 6764.0005,57.567185 6762.6774,56.694606 6761.0603,56.024787 6758.4393,54.939136 6757.7609,55.076976 6754.8103,57.294553 6747.832,62.53934 6744.5105,56.941372 6746.0052,42.454513 6746.4844,37.809867 6747.1324,33.595622 6747.4452,33.089523 6748.1721,31.913356 6743.2416,26 6741.5341,26 6740.8253,26 6739.6807,26.680352 6738.9906,27.511893 6737.9775,28.732688 6738.0649,30.377425 6739.4446,36.054267 6741.3237,43.785427 6740.947,50.203128 6738.2849,55.813126 6736.1656,60.27916 6734.6014,60.706029 6729.9452,58.089061 6725.7646,55.739435 6724.4834,55.983149 6719.1156,60.149093 6716.3666,62.282639 6712.6926,62.563442 6711.2533,60.75 z M 6729.7868,31.813654 C 6730.702,30.898525 6730.598,30.212677 6729.3319,28.813654 6727.1112,26.359819 6726.0005,26.533079 6726.0005,29.333333 6726.0005,32.935356 6727.6105,33.990011 6729.7868,31.813654 z M 6776.8612,86.551325 C 6771.1193,82.64961 6768.771,82.461704 6764.1305,85.532639 6759.1567,88.82415 6756.1576,88.357106 6751.3416,83.541055 6747.4248,79.6243 6747.0199,75.731113 6749.8812,69.5 6753.7992,60.96779 6758.6659,59.651676 6766.8583,64.908768 6774.2342,69.641861 6775.9914,69.023391 6778.767,60.717377 6780.0136,56.986934 6781.6115,49.720585 6782.3179,44.569933 6783.6598,34.785005 6786.5299,28.633718 6790.3259,27.407188 6793.1148,26.506027 6793.727,27.932481 6791.3606,29.818393 6787.8004,32.655653 6786.2193,36.218114 6785.5102,43 6784.6011,51.694395 6781.6613,63.181016 6779.3116,67.219203 6776.6313,71.825822 6773.4641,71.91637 6765.7577,67.606704 6760.194,64.495324 6759.173,64.227761 6756.981,65.306766 6751.9015,67.807195 6749.167,78.090727 6752.7505,81.216513 6757.1913,85.090158 6758.8462,85.280473 6763.6432,82.46922 6769.0687,79.289705 6773.958,79.693734 6778.1488,83.667893 6780.4584,85.858169 6781.0977,86.024601 6783.1488,84.969634 6784.4422,84.304342 6786.963,82.375734 6788.7505,80.683839 6791.0298,78.526431 6792.0005,78.07065 6792.0005,79.15781 6792.0005,81.220326 6788.0195,85.42168 6784.1876,87.40327 6780.3878,89.368184 6781.1344,89.454993 6776.8612,86.551325 z M 6759.0005,29.383423 C 6759.0005,26.461192 6756.0805,26.149128 6753.6691,28.813654 6751.5974,31.102859 6753.1064,32.893583 6756.552,32.234909 6758.3342,31.894215 6759.0005,31.118268 6759.0005,29.383423 z M 6776.1521,28.656432 C 6774.4187,26.868026 6773.0005,25.088709 6773.0005,24.702393 6773.0005,23.291594 6775.4299,24.054765 6777.686,26.174314 L 6780.0005,28.348628 6782.315,26.174314 C 6783.5879,24.978441 6785.4721,24 6786.502,24 6788.1023,24 6787.9474,24.44891 6785.4376,27.086056 6780.6248,32.14292 6779.6854,32.301805 6776.1521,28.656432 z M 6787.0005,89.485904 C 6787.0005,88.734569 6793.3681,83.063801 6794.2505,83.029313 6796.0939,82.957264 6794.733,86.054319 6792.0961,87.931906 6789.3402,89.894301 6787.0005,90.607832 6787.0005,89.485904 z"/>
</svg>
