<svg xmlns="http://www.w3.org/2000/svg"
     width="42.0" height="64.0"
     viewBox="3625.4788 16.0000 56.7766 86.4571">
  <path d="M 3654.5005,20 C 3654.2815,20 3653.189,22.025 3652.0943,24.5 3650.9995,26.975 3649.7156,29 3649.2193,29 3648.7228,29 3646.8174,28.250108 3645.0005,27.34375 3641.2085,25.452042 3636.5202,25.334432 3634.438,27.0625 3629.4788,31.17828 3638.91,40.269672 3644.8443,37.09375 3646.3475,36.289217 3647.1142,36.431521 3648.1567,37.6875 3649.9406,39.836263 3649.9368,53.248626 3648.1567,62.5 3645.2583,77.564066 3646.6375,91.511944 3651.5317,96.40625 3653.5826,98.457085 3658.368,98.448635 3660.063,96.40625 3660.7928,95.526949 3661.5213,95.256868 3663.1255,95.46875 L 3666.3755,83 3666.2505,82.90625 3665.6567,72.1875 C 3665.3248,66.302073 3664.7792,57 3664.438,51.5 3664.0448,45.163007 3664.2155,40.490972 3664.9067,38.71875 3665.8987,36.175396 3666.306,35.95734 3669.5317,36.5625 3672.2017,37.063379 3673.5564,36.803913 3675.0317,35.46875 3678.2554,32.551384 3677.5064,28.360594 3673.3755,26.1875 3671.6939,25.302844 3670.4686,25.474648 3667.3755,27.0625 L 3663.5005,29.0625 3659.188,24.53125 C 3656.8203,22.037912 3654.7195,20 3654.5005,20 z M 3654.7193,26 C 3655.1407,26.00477 3657.1323,27.547987 3659.1255,29.4375 3662.6971,32.823234 3662.7287,32.951892 3661.688,37.5 3660.9263,40.828488 3660.9869,47.336842 3661.9067,60.84375 3663.2363,80.367251 3662.8338,87.621021 3660.1567,92.25 3658.3318,95.405691 3655.9835,95.774113 3653.7817,93.25 3648.8987,87.651972 3648.1008,79.502263 3650.9067,63.8125 3653.2874,50.500705 3653.5273,43.941097 3651.813,37.53125 3650.7905,33.708218 3650.8468,32.54039 3652.2817,29.53125 3653.2075,27.589851 3654.2978,25.995229 3654.7193,26 z M 3640.2193,28.625 C 3642.2491,29.080439 3644.5005,30.907018 3644.5005,32.53125 3644.5005,34.795775 3641.448,35.540166 3638.7505,33.9375 3636.6759,32.704903 3636.4175,29.426897 3638.3443,28.6875 3638.8813,28.481429 3639.5426,28.473187 3640.2193,28.625 z M 3670.7193,29.25 C 3672.2914,28.988267 3673.5507,29.911889 3673.813,31.75 3674.1986,34.453358 3670.9933,34.913962 3668.938,32.4375 3667.854,31.131247 3667.8732,30.702027 3669.063,29.9375 3669.6259,29.575781 3670.1952,29.337244 3670.7193,29.25 z"/>
</svg>
