<svg xmlns="http://www.w3.org/2000/svg"
     width="24.3" height="64.0"
     viewBox="6660.6842 17.0000 32.2761 85.0000">
  <path d="M 6670.7129,93.215651 C 6668.1211,90.584259 6666.0005,87.752952 6666.0005,86.923859 6666.0005,86.094765 6668.0255,83.429029 6670.5005,81 6672.9755,78.570971 6675.0005,76.095971 6675.0005,75.5 6675.0005,74.904029 6672.9755,72.429029 6670.5005,70 6664.963,64.565324 6664.6842,61.626981 6669.1994,56.284796 6670.9587,54.203158 6673.0015,51.769995 6673.7387,50.877766 6674.9008,49.471401 6674.4752,48.547877 6670.5399,43.937535 6668.0432,41.012637 6666.0005,37.669076 6666.0005,36.5074 6666.0005,34.403103 6675.5735,21 6677.0764,21 6678.0198,21 6684.2627,28.586687 6685.8683,31.684259 6687.865,35.536372 6687.118,38.926287 6683.063,44.41545 L 6679.1254,49.7455 6682.1522,52.62275 C 6688.8779,59.016107 6688.9603,61.355171 6682.7391,69.291233 L 6679.7671,73.082465 6683.3097,78.821912 C 6688.1883,86.725849 6688.6111,88.953992 6685.8891,92.414461 6683.9332,94.900959 6678.5824,98 6676.245,98 6675.7942,98 6673.3047,95.847043 6670.7129,93.215651 z M 6675.9868,89.25 C 6675.9686,84.241449 6674.9862,80.838093 6673.684,81.27216 6673.1,81.466828 6671.7211,82.833076 6670.6197,84.308265 L 6668.6171,86.990427 6671.4959,89.995213 C 6675.2472,93.910697 6676.0034,93.785219 6675.9868,89.25 z M 6675.0005,62 C 6675.0005,58.15 6674.5832,55 6674.0731,55 6672.5458,55 6669.0005,60.116406 6669.0005,62.320407 6669.0005,64.358417 6672.5961,69 6674.1748,69 6674.6289,69 6675.0005,65.85 6675.0005,62 z M 6675.1348,40.25 C 6675.3622,37.286421 6674.822,29.526341 6674.3544,29.03908 6673.6789,28.33532 6669.0774,34.302807 6669.0365,35.935549 6668.9976,37.485867 6672.8224,42 6674.1748,42 6674.6289,42 6675.0609,41.2125 6675.1348,40.25 z M 6683.6975,62.991784 C 6684.766,60.161049 6684.617,59.602326 6682.0179,56.693435 6680.4492,54.937803 6678.8384,53.828772 6678.4382,54.228921 6677.5361,55.131019 6676.7952,66.986655 6677.5214,68.899797 6678.2589,70.842808 6682.1329,67.137001 6683.6975,62.991784 z M 6681.4496,41.655609 C 6682.8526,39.816194 6684.0005,37.334883 6684.0005,36.141585 6684.0005,32.722875 6678.0862,24.48623 6677.9749,27.75 6677.9609,28.1625 6677.7234,32.2125 6677.4473,36.75 6677.1402,41.795203 6677.3246,45 6677.922,45 6678.4592,45 6680.0466,43.495024 6681.4496,41.655609 z M 6682.6259,92.325902 C 6685.6998,90.311777 6685.3916,86.941091 6681.6269,81.40087 6678.6391,77.003821 6677.8369,78.100719 6678.0882,86.239912 6678.3526,94.803867 6678.5139,95.020157 6682.6259,92.325902 z"/>
</svg>
