<svg xmlns="http://www.w3.org/2000/svg"
     width="33.2" height="64.0"
     viewBox="58.0000 16.0000 47.0000 90.5710">
  <path d="M 95.0625,88.5 C 93.418679,87.749727 92,86.922829 92,86.53125 92,86.301812 92.934197,84.53733 94.0625,82.625 96.727799,78.107654 97.789817,66.421651 95.96875,61.8125 95.252165,59.99881 93.800097,57.522841 92.71875,56.3125 91.111569,54.513598 90.839889,53.06857 91.21875,48.5 91.602277,43.875168 92.267294,42.289327 95.09375,39.21875 99.841767,34.060645 101,31.635287 101,27 101,23.677055 100.65798,23 99.03125,23 97.950601,23 96.607988,23.891106 96.03125,24.96875 94.627051,27.592519 88.333108,32.301776 87.1875,31.59375 86.660383,31.267975 86.595132,29.247724 87.0625,26.78125 88.013177,21.76418 86.579752,20 81.46875,20 76.027555,20 71,26.215351 71,32.96875 71,36.147353 75.829475,41 79,41 81.079524,41 81.709873,42.968462 81.15625,47.75 80.801611,50.812954 80.555224,51 76.78125,51 68.553837,51 62,57.464932 62,65.59375 62,69.435221 63.466161,73 65.0625,73 65.615179,73 67.78219,71.2 69.875,69 75.371275,63.222214 79.546606,63.888715 81.875,70.90625 83.838891,76.825211 83.258328,79.237835 78.65625,84.53125 74.685653,89.098319 72,94.352297 72,97.5625 72,98.266141 72.698214,99.573216 73.5625,100.4375 75.696051,102.57105 77.713663,102.40354 79,100 79.588703,98.899999 81.114558,97.315099 82.40625,96.46875 84.575841,95.047179 85.19668,95.12337 90.5,97.46875 90.67029,97.54406 90.801908,97.553234 90.96875,97.625 L 91,97 92.125,94.625 C 92.013368,94.570028 91.926073,94.557045 91.8125,94.5 89.074937,93.125 85.739698,92 84.40625,92 83.066494,92 81.013702,93.118496 79.8125,94.5 77.056595,97.669569 76,97.654468 76,94.46875 76,92.917224 77.547091,90.286092 80,87.625 82.193256,85.245598 84.645292,81.689561 85.46875,79.71875 86.812019,76.503853 86.805137,75.618674 85.34375,71.09375 83.409629,65.105091 81.455822,63.102329 76.78125,62.34375 73.886079,61.873929 72.733403,62.314225 69.78125,64.90625 67.835813,66.614366 65.964892,68 65.625,68 65.285108,68 65,66.686621 65,65.0625 65,57.71406 69.991558,53.616388 78.3125,54.15625 L 83.5,54.5 84.15625,47.03125 C 84.523279,42.917657 84.605738,39.205157 84.34375,38.78125 84.081761,38.357344 82.651412,38 81.15625,38 79.661088,38 77.441129,37.293687 76.21875,36.4375 71.252013,32.958662 75.191952,23 81.53125,23 84.117791,23 84.142083,23.079581 83.46875,28.46875 82.814457,33.705541 82.896214,33.9248 85.3125,34.53125 88.179171,35.250738 91.273316,33.896525 95.25,30.1875 97.975618,27.645337 98,27.659374 98,29.84375 98,31.143821 96.19862,33.784136 93.59375,36.28125 89.387393,40.3136 89.121099,40.833804 88.4375,47.78125 87.792235,54.339111 87.954079,55.297247 89.8125,57.28125 92.870774,60.546183 94,64.404232 94,71.40625 94,76.767705 93.558405,78.339119 90.84375,82.4375 L 87.65625,87.21875 90.09375,89.09375 C 91.163884,89.921701 92.444225,90.581531 93.78125,91.125 L 95.0625,88.5 z"/>
</svg>
