<svg xmlns="http://www.w3.org/2000/svg"
     width="45.9" height="64.0"
     viewBox="2599.0000 15.9748 39.2038 54.7127">
  <path d="M 2603.7188,55.3125 2604.8125,57.875 C 2606.9817,55.752584 2609.0985,52.779085 2610.5625,49.46875 2613.6295,42.533803 2613.6166,40.929832 2610.5312,38.03125 2606.7839,34.510769 2605.428,29.519212 2607.4062,26.5 2609.3814,23.485815 2609.4391,22 2607.5625,22 2605.37,22 2603,26.033856 2603,29.78125 2603,33.667648 2604.254,36.438356 2607.7188,40.15625 2609.9772,42.579825 2610.1148,43.155233 2609.0625,46.34375 2608.1327,49.161162 2605.8011,52.824577 2603.7188,55.3125 z M 2607.125,63.15625 2608.6562,66.6875 C 2610.2304,66.035724 2611.3833,64.989771 2613.3125,62.8125 2615.409,60.446414 2618.4517,55.949112 2620.0625,52.8125 2622.5903,47.890271 2623.4559,47.008576 2626.5,46.4375 2631.1947,45.556773 2634.2038,41.718095 2633.8125,37.0625 L 2633.5,33.5 2628.3125,33.78125 2623.0938,34.0625 2622.4375,30.4375 C 2622.0109,28.163774 2622.2148,25.931786 2623.0312,24.40625 2624.8088,21.085106 2623.2576,19.974771 2620.9062,22.875 2618.9578,25.278545 2618.5683,30.161039 2619.9062,35 2620.6982,37.864228 2623.7959,38.716992 2627.0625,36.96875 2630.1147,35.335246 2631.727,37.096134 2630.2188,40.40625 2629.3629,42.284576 2628.1977,42.948597 2625.3125,43.1875 2621.754,43.482147 2621.3073,43.918127 2617.7188,50.5 2613.6442,57.973409 2610.8427,61.449769 2607.125,63.15625 z M 2616.0625,21.625 C 2615.6258,21.283826 2614.6982,21.814341 2613.5938,23.5 2611.0226,27.423968 2610.5539,31.429056 2612.4688,33.34375 2614.2388,35.113984 2617,35.587405 2617,34.125 2617,33.642344 2616.325,32.684689 2615.5,32 2613.6065,30.428551 2613.6093,28.656285 2615.5,25 2616.4387,23.184811 2616.4992,21.966174 2616.0625,21.625 z"/>
</svg>
