<svg xmlns="http://www.w3.org/2000/svg"
     width="64.0" height="58.9"
     viewBox="2663.5346 15.0000 96.8555 89.1873">
  <path d="M 2728.125,56.1875 C 2727.2306,57.234438 2726.4515,58 2725.9375,58 2725.3543,58 2723.3361,56.830588 2721.4688,55.40625 2718.776,53.352349 2717.182,52.886828 2713.7812,53.15625 L 2709.5,53.5 2709.1875,47.1875 C 2708.8999,41.120098 2709.0345,40.740743 2712.3125,37.6875 2714.1904,35.93837 2716.2507,33.513843 2716.875,32.3125 2718.5012,29.183476 2718.2781,23.47031 2716.4688,21.96875 2715.1644,20.886204 2714.3234,21.251916 2711.125,24.375 2708.7577,26.686656 2706.2303,28.149173 2704.4062,28.28125 2701.5194,28.490275 2701.5074,28.44901 2701.8438,23.75 L 2702.1875,19 2697.9375,19 C 2694.1584,19 2693.2129,19.510052 2689.4062,23.65625 2686.4216,26.907159 2684.7483,29.833352 2683.9062,33.34375 L 2682.7188,38.40625 2686,41.15625 C 2687.9426,42.778062 2690.7856,44.00994 2692.9062,44.1875 2696.4992,44.488345 2696.5107,44.50936 2696.8125,49.75 2697.1546,55.693063 2696.7318,55.924164 2691,53 2684.9227,49.899616 2681.6303,50.360479 2677.2188,54.90625 2669.3328,63.032191 2667.5346,80 2674.5625,80 2676.8059,80 2679,76.046326 2679,72 2679,69.554104 2683.5309,65 2685.9688,65 2688.5148,65 2695.6314,69.567868 2696.4688,71.75 2696.8841,72.83213 2695.2564,75.203285 2691.4375,79.0625 2685.1656,85.400475 2685.111,85.813141 2689.7188,93.75 2693.4559,100.18728 2698,98.810649 2698,91.25 2698,87.721631 2704.0546,81.295133 2706.1562,82.59375 2706.8912,83.047913 2709.8971,86.036082 2712.8438,89.21875 2718.8526,95.708569 2720.8447,96.214745 2727.5,93 2733.0197,90.333797 2735.0606,90.521586 2738.3438,94 2742.9802,98.912364 2750.2428,97.649249 2754,91.28125 2756.3101,87.366032 2756.3901,87 2754.9375,87 2754.3506,87 2752.378,88.575 2750.5625,90.5 2746.5212,94.784987 2744.2352,94.898668 2740.5,91 2736.9877,87.333951 2733.6154,87.134706 2726.25,90.1875 L 2720.9375,92.40625 2713.6875,85.1875 C 2709.7031,81.22966 2706.0583,78 2705.5938,78 2704.3251,78 2697.6689,84.011721 2696.2812,86.40625 2695.6133,87.55899 2695.0507,89.5125 2695.0312,90.75 2695.0118,91.9875 2694.7305,93 2694.4062,93 2693.0893,93 2690.0622,88.349222 2690.0312,86.28125 2690.0127,85.053695 2690.9053,83.571306 2692.0312,82.96875 2694.9024,81.432184 2700,74.123344 2700,71.53125 2700,67.66362 2691.8389,62 2686.25,62 2682.6989,62 2678.3601,66.273999 2676.5312,71.59375 2674.8191,76.574116 2673,77.16746 2673,72.75 2673,67.160407 2675.8957,60.305571 2679.625,57.03125 2681.523,55.364725 2683.5019,54 2684.0312,54 2684.5606,54 2687.9863,55.405783 2691.625,57.125 2697.0012,59.665132 2698.3855,59.993045 2699.0938,58.875 2700.2969,56.975637 2700.2078,45.727535 2698.9688,42.46875 2698.0664,40.095618 2697.5972,39.848651 2694.625,40.40625 2692.1764,40.865615 2690.6498,40.554673 2689,39.21875 2687.0814,37.665161 2686.858,36.791085 2687.4375,33.4375 2688.1468,29.332949 2691.2115,25.03547 2694.7812,23.125 2697.7969,21.511093 2697.8537,21.566168 2698.1875,26.65625 2698.6055,33.029246 2700.5716,34.121869 2706.2188,31.21875 2708.5788,30.005528 2711.5125,28.305626 2712.75,27.40625 2714.9037,25.841042 2715,25.847913 2715,28.03125 2715,29.473414 2713.2532,31.928898 2710.25,34.6875 L 2705.5,39.03125 2705.5938,47.53125 C 2705.6505,52.204893 2706.0018,56.345604 2706.375,56.71875 2706.7481,57.091897 2708.8576,56.90101 2711.0625,56.3125 2714.731,55.333304 2715.4289,55.513576 2719.2812,58.125 2721.5966,59.694503 2724.4279,60.958741 2725.5625,60.96875 2726.7292,60.979042 2728.0873,60.098998 2729.4688,58.78125 L 2728.125,56.1875 z M 2732.5,64.6875 C 2731.2155,65.611171 2730.0313,65.801118 2726.875,65.09375 2724.4594,64.552405 2720.8213,63.414942 2718.7812,62.5625 2714.0166,60.571732 2713.406,60.594048 2711,63 2706.7941,67.205921 2708.9625,73.86097 2716.7188,80.5 2721.3868,84.495615 2722.8692,84.707397 2728.625,82.09375 2732.2125,80.464698 2733.073,80.385455 2735.125,81.5625 2742.001,85.50665 2743.4933,85.38168 2748.4375,80.4375 2751.2556,77.619357 2748.6819,76.431445 2745.25,78.96875 L 2742.2812,81.15625 2738.4062,79.09375 C 2733.5885,76.511544 2733.0657,76.512941 2727.625,79.15625 L 2723.2188,81.28125 2718.6562,77.46875 C 2713.1447,72.861605 2710.993,68.569503 2713.125,66.4375 2714.2622,65.300312 2715.2668,65.228373 2718.0312,66.09375 2719.9403,66.691329 2723.075,67.538803 2725,67.96875 2726.925,68.398697 2729.2958,69.069157 2730.25,69.46875 2731.2205,69.875142 2732.4647,69.16856 2734.0938,67.75 L 2732.5,64.6875 z M 2753.6562,81.34375 C 2752.9256,80.613135 2748,84.832727 2748,86.1875 2748,87.714329 2749.6382,87.01401 2752,84.5 2753.2897,83.127169 2754.0272,81.714754 2753.6562,81.34375 z"/>
</svg>
