<svg xmlns="http://www.w3.org/2000/svg"
     width="49.1" height="64.0"
     viewBox="2080.5833 14.8154 67.8855 88.4890">
  <path d="M 2144.0625,25.03125 C 2143.7575,24.525172 2143.4913,23.808858 2143.2188,22.75 2142.5666,20.215639 2141.7809,19.436695 2139.6562,19.1875 2136.8881,18.862839 2127.2658,21.523464 2125.5625,23.09375 2123.5199,24.976732 2126.2393,25.201322 2131.9688,23.59375 2135.2882,22.662363 2138.4231,22.138869 2138.9062,22.4375 2141.7641,24.203737 2140.6268,41.168443 2136.9375,52.0625 2134.1699,60.234978 2129.7157,67.350118 2126.4375,68.84375 2121.5913,71.051819 2117.54,70.256578 2111.875,66 2105.8675,61.486045 2105.3672,61.354069 2102.125,63.625 2096.3844,67.645893 2094.0085,81.172958 2098.125,86.40625 2099.8971,88.659185 2100.7485,89.013922 2103.375,88.46875 2105.0991,88.110867 2107.8092,87.178153 2109.4062,86.40625 2113.1415,84.600897 2114.9744,84.632326 2118.9062,86.59375 2122.9869,88.629517 2125.9405,87.866179 2130.4375,83.625 2136.2778,78.116872 2134.8543,75.698576 2128.875,80.96875 2125.1243,84.274708 2122.362,84.743243 2119.4375,82.53125 2116.7737,80.516454 2114.1447,80.644588 2109.75,83 2105.5215,85.266328 2101.9513,85.576271 2100.1875,83.8125 2098.245,81.870044 2098.7523,72.936515 2101,69.25 2103.5638,65.04513 2106.1191,65.099138 2111.1875,69.4375 2121.9704,78.667305 2133.0907,72.557008 2139.6562,53.78125 2141.0537,49.784892 2142.4509,44.1375 2142.75,41.25 2142.9393,39.422679 2143.2884,38.069823 2143.6875,37.125 L 2144.4062,31.625 C 2144.2042,31.353381 2144.3017,30.97093 2144.4688,30.5625 L 2144.0625,25.03125 z M 2137.4375,81.5625 C 2136.7465,81.72833 2135.4425,82.647793 2133.625,84.3125 2131.6156,86.153068 2130.271,87.958544 2130.625,88.3125 2131.4385,89.12598 2136.9602,85.238899 2137.6875,83.34375 2138.2067,81.990606 2138.1285,81.39667 2137.4375,81.5625 z M 2100.2188,19.15625 C 2099.2576,19.269854 2098.0671,19.590829 2096.625,20.09375 2090.0088,22.401156 2084.5833,33.236662 2086.4062,40.5 2086.873,42.359339 2088.3396,43.63189 2091.5312,45 2095.7738,46.818589 2096,47.147767 2096,51 2096,53.425027 2094.76,57.760126 2092.9062,61.78125 2085.3945,78.075929 2086.3077,93.187352 2095.0938,97.75 2098.0449,99.282596 2101.815,98.54983 2107.3125,95.40625 2112.691,92.330798 2116.2129,92.366821 2119.5938,95.5 2123.6988,99.304391 2127.7156,98.82296 2133.875,93.8125 2136.699,91.515246 2139,89.265246 2139,88.8125 2139,87.136151 2136.7178,88.095058 2132.5625,91.5 2128.0486,95.198778 2125.0248,95.868557 2122.8125,93.65625 2118.4544,89.298196 2112.5469,88.908879 2106.3125,92.5625 2097.5388,97.704214 2092.2008,94.206756 2091.2812,82.75 2090.7116,75.653575 2091.5664,72.059762 2096.1875,62.21875 2101.589,50.716062 2100.9502,44.992391 2093.9688,42.25 2089.252,40.397222 2088.2332,37.854875 2090.0312,32.3125 2091.7956,26.874231 2094.5615,23.305774 2097.4688,22.75 2099.7216,22.319336 2099.9967,22.590461 2100,25.375 2100.0021,27.08623 2100.9102,29.9625 2102,31.75 2103.7145,34.561928 2104.5321,35 2108.0625,35 2110.3068,35 2112.9987,34.538101 2114.0625,33.96875 2115.6785,33.103889 2116,33.247653 2116,34.9375 2116,36.216015 2114.514,37.936066 2111.9375,39.5625 2107.9567,42.075507 2104.0811,48.285395 2104.0312,52.25 2103.9743,56.779175 2119.3061,68.236859 2123.3438,66.6875 2130.129,64.083737 2139.1936,37.885346 2134.625,34.09375 2133.6685,33.299907 2131.9983,33.030185 2130.5,33.40625 2127.1891,34.237233 2127.1921,37 2130.5,37 2132.4707,37 2133,37.518607 2133,39.40625 2133,45.460094 2126.401,61.417352 2123.0312,63.5 2121.601,64.383979 2116.3506,60.981812 2111.6562,56.15625 2108.3066,52.713071 2107.8731,51.805982 2108.4688,49.09375 2108.8456,47.378232 2110.3124,45.172517 2111.7188,44.21875 2118.3808,39.700478 2120.1357,37.244932 2119.8125,32.78125 2119.4451,27.706847 2117.3716,26.793808 2113.375,29.9375 2108.2616,33.959704 2104,31.399281 2104,24.3125 2104,20.320402 2103.1023,18.815437 2100.2188,19.15625 z M 2132.6875,27.1875 C 2130.4238,26.751536 2125.7299,29.746575 2126.5625,31.09375 2126.9585,31.734599 2127.6031,31.764001 2128.3438,31.15625 2128.9824,30.632243 2130.5219,30.03395 2131.7812,29.84375 2134.5699,29.422546 2135.1688,27.665357 2132.6875,27.1875 z"/>
</svg>
