<svg xmlns="http://www.w3.org/2000/svg"
     width="26.0" height="64.0"
     viewBox="3705.6842 15.2027 36.1288 88.8042">
  <path d="M 3737.813,84.90625 C 3736.4822,83.981653 3736.6667,79.723783 3737.0005,49.75 3737.1537,36.002438 3737.0001,34.675353 3734.688,29.625 3732.7814,25.460495 3731.1595,23.609845 3727.7193,21.59375 3725.2598,20.152445 3722.6347,19.202676 3721.8755,19.5 3719.3709,20.48091 3711.009,34.830364 3711.0005,38.15625 3710.9982,39.059266 3713.0255,42.028454 3715.5005,44.78125 3717.9755,47.534046 3720.0005,50.301145 3720.0005,50.90625 3720.0005,51.511354 3718.4755,53.685916 3716.6255,55.75 3712.406,60.457647 3709.6842,65.685815 3710.6255,67.28125 3711.0216,67.952597 3712.9231,70.440207 3714.8443,72.8125 L 3718.3443,77.125 3715.188,83.3125 C 3713.443,86.715207 3712.0003,90.071681 3712.0005,90.78125 3712.0012,92.959217 3720.3088,99.986537 3722.9067,100 3724.2299,100.00686 3726.7915,98.875 3728.5943,97.5 3731.1875,95.521993 3732.4081,94.917257 3733.4693,95.3125 3733.4697,95.305639 3733.5005,95 3733.5005,95 L 3734.813,91.03125 C 3734.6193,90.623383 3734.3816,90.180448 3734.5317,89.9375 3734.5977,89.830739 3735.1413,89.75209 3735.4067,89.65625 L 3737.813,84.90625 z M 3726.563,24.34375 C 3728.2298,25.012322 3730.679,27.797647 3732.1255,31 3734.0437,35.246512 3734.1502,36.851935 3733.6255,59.5 3733.3197,72.7 3732.7571,84.728671 3732.4067,86.21875 3732.0564,87.708829 3730.3404,90.600016 3728.563,92.65625 L 3725.313,96.40625 3724.8443,92.4375 C 3724.5851,90.266186 3724.4889,85.8 3724.6255,82.5 3724.8652,76.710776 3724.9611,34.868169 3724.7505,28.25 3724.6937,26.467267 3724.9013,24.755376 3725.2193,24.4375 3725.5319,24.124848 3726.0074,24.120893 3726.563,24.34375 z M 3720.5317,27.15625 C 3721.3686,27.403599 3721.915,28.930986 3722.2193,31.75 3722.5012,34.3625 3722.4683,38.734427 3722.1255,41.46875 L 3721.5005,46.4375 3717.6567,42.59375 C 3713.4131,38.344792 3713.3441,36.434325 3717.1567,30.25 3718.5799,27.941589 3719.6949,26.908901 3720.5317,27.15625 z M 3720.688,58 C 3722.4446,58 3722.874,60.343876 3722.2817,66.875 3721.9645,70.372719 3721.2591,73.000016 3720.6255,73 3719.1936,72.999962 3714.0005,66.538946 3714.0005,64.75 3714.0005,63.150967 3719.0991,58 3720.688,58 z M 3721.3755,83.03125 C 3721.6699,83.324638 3721.6375,86.137138 3721.313,89.28125 3720.9885,92.425363 3720.3883,95 3720.0005,95 3718.7384,95 3716.0005,91.376189 3716.0005,89.71875 3716.0005,87.883612 3720.5579,82.216249 3721.3755,83.03125 z"/>
</svg>
