<svg xmlns="http://www.w3.org/2000/svg"
     width="55.1" height="64.0"
     viewBox="3590.5005 53.8690 44.7015 51.9289">
  <path d="M 3597.438,83.84375 3596.0317,89.8125 C 3596.5947,88.62859 3598.6255,88.36849 3601.8755,90.0625 3605.425,91.912606 3606.4786,92.037079 3608.9067,91.03125 3612.78,89.426933 3613.9393,86.347622 3613.313,79.375 3612.6341,71.817281 3614.2777,65.715122 3617.563,63.5625 3624.9325,58.733779 3627.6119,69.09172 3623.063,84.8125 3621.9183,88.768559 3623.0484,92.439043 3625.9067,93.96875 3627.097,94.605713 3627.6815,95.621116 3627.3443,96.5 3626.417,98.916412 3624.4078,98.229782 3621.563,94.5 3620.0947,92.575 3618.2094,91 3617.3755,91 3616.5415,91 3614.3785,92.575 3612.563,94.5 3608.5957,98.706584 3604.8764,99.06776 3599.9067,95.71875 3596.9401,93.719502 3595.7739,91.657498 3595.938,90.3125 L 3594.5005,96.5 C 3594.5005,96.5 3594.5005,96.684624 3594.5005,96.6875 3595.3132,96.695521 3596.4754,97.249876 3598.8755,98.5 3605.2071,101.79789 3608.8853,101.66767 3613.5005,98 3615.5768,96.35 3617.4496,95 3617.6567,95 3617.8639,95 3619.3201,96.443014 3620.9067,98.21875 3623.4813,101.10017 3624.0969,101.35803 3626.6255,100.46875 3628.272,99.889711 3629.8669,98.347544 3630.4067,96.8125 3631.202,94.551214 3630.9004,93.84115 3628.4693,91.75 L 3625.6567,89.28125 3627.4067,79.25 C 3629.1438,69.361547 3629.1382,69.104166 3627.1567,64.625 3624.686,59.039525 3621.622,57.868967 3616.7817,60.6875 3611.8978,63.531504 3610.5005,67.165051 3610.5005,77.09375 3610.5005,89.222597 3608.7585,90.686106 3600.3443,85.59375 L 3597.438,83.84375 z"/>
</svg>
