<svg xmlns="http://www.w3.org/2000/svg"
     width="44.2" height="64.0"
     viewBox="1474.0000 14.6673 60.2775 87.2708">
  <path d="M 1529.7188,83.5625 1528.75,83.125 C 1526.2635,81.992261 1523.9789,80.372077 1523.6562,79.53125 1522.8329,77.385469 1519.648,77.626525 1517.5,80 1514.9951,82.767909 1514.3693,82.576475 1511.5,78.03125 1508.3526,73.04537 1508.3637,71.380201 1511.5312,66.71875 1514.6002,62.202304 1516.1943,62.059798 1519,66 1520.1749,67.65 1521.5862,69 1522.125,69 1523.4025,69 1527.1986,64.870151 1528.9688,61.5625 1530.2775,59.117181 1530.1378,58.738492 1526.9688,55.46875 1525.1125,53.553689 1523.2152,52 1522.7188,52 1522.2224,52 1520.5413,53.35 1519,55 1517.4587,56.65 1515.756,58 1515.2188,58 1514.6814,58 1512.5658,55.53063 1510.5,52.53125 L 1506.7188,47.09375 1509.9688,42.0625 1513.1875,37 1516.0938,39.0625 C 1517.6879,40.197636 1519,41.828374 1519,42.65625 1519,45.170616 1522.0801,43.746635 1525.3125,39.75 L 1528.375,35.96875 1526.4375,31.34375 C 1523.4918,24.271651 1521.6574,23.665162 1517.3125,28.375 L 1513.7188,32.28125 1511.8125,29.875 C 1510.7713,28.561047 1509.0299,25.8125 1507.9375,23.75 1505.2452,18.667293 1502.9519,18.929447 1498.6562,24.78125 1492.4,33.303975 1492.2657,34.124464 1496.125,39.65625 1497.9798,42.314848 1499.8375,44.660417 1500.25,44.84375 1502.0465,45.642203 1500.6821,49.17676 1496.5,54.5625 1494.025,57.749812 1492,60.858182 1492,61.46875 1492,62.079317 1494.2307,64.800453 1496.9688,67.53125 1499.7069,70.262048 1501.9569,72.910073 1501.9688,73.40625 1502.0032,74.832224 1495.624,82.934453 1494.4375,82.96875 1493.8492,82.985757 1492.3831,81.875 1491.1875,80.5 1489.992,79.125 1488.2008,78 1487.2188,78 1484.9811,78 1478,84.674533 1478,86.8125 1478,88.880732 1483.9293,95.000038 1485.9375,95 1486.7921,94.999983 1488.7453,93.424983 1490.2812,91.5 1491.8173,89.575016 1493.6403,88 1494.3125,88 1494.9847,88 1497.4764,90.025 1499.875,92.5 1504.8153,97.597712 1506.1035,97.938092 1508.3438,94.75 1512.9821,88.149066 1512.6336,88.281846 1516.4375,91.96875 1519.6756,95.107207 1520.0275,95.217211 1522.1875,93.8125 1523.1919,93.159302 1523.9609,92.854304 1524.8438,92.84375 L 1529.7188,83.5625 z M 1503.0938,23.03125 C 1504.1155,22.977789 1510,33.042583 1510,34.84375 1510,35.779531 1508.8637,38.228577 1507.4688,40.28125 1506.0739,42.333924 1504.5586,44 1504.0938,44 1503.1787,44 1498.9987,38.771469 1497.2188,35.40625 1496.389,33.837337 1496.4452,32.69177 1497.4688,30.71875 1499.245,27.294935 1502.334,23.071006 1503.0938,23.03125 z M 1520.2812,28.75 C 1521.6524,28.354097 1522.7159,29.603781 1523.7812,32.71875 1524.6903,35.376552 1524.5808,36.283884 1523.1875,37.9375 1521.509,39.929754 1521.4889,39.93405 1518.6875,37.46875 1515.649,34.79482 1515.6939,32.509739 1518.8125,29.6875 1519.3548,29.196716 1519.8242,28.881968 1520.2812,28.75 z M 1503.9062,50 C 1505.1815,50 1511,58.719836 1511,60.625 1511,61.605525 1509.8248,64.095438 1508.375,66.1875 1506.9252,68.279563 1505.1801,70 1504.5,70 1503.8198,70 1501.3733,67.944478 1499.0625,65.4375 1494.8313,60.847195 1494.7387,60.031679 1498.0625,57 1498.364,56.725 1499.6265,55.0375 1500.875,53.25 1502.1234,51.4625 1503.4869,50 1503.9062,50 z M 1522.4062,56.53125 C 1522.9712,56.586375 1523.5015,57.064036 1524.4062,57.96875 1526.1513,59.713786 1526.2357,60.218035 1525.0312,62.46875 1523.3728,65.567702 1522.6418,65.614711 1520.0312,62.8125 1517.4585,60.050989 1517.4828,59.478865 1520.2188,57.5625 1521.2418,56.845898 1521.8413,56.476125 1522.4062,56.53125 z M 1505.8125,74.84375 1508.4062,78.65625 C 1511.5596,83.296682 1511.5902,84.182644 1508.8125,89.125 1507.6112,91.262385 1506.2845,93 1505.875,93 1505.4654,93 1503.448,91.392609 1501.375,89.4375 L 1497.5938,85.875 1499.4375,82.5 C 1500.4421,80.634472 1502.2789,78.145261 1503.5312,76.96875 L 1505.8125,74.84375 z M 1486.9062,82.125 C 1488.1353,82.036381 1489.296,82.666352 1490.5312,84.03125 1492.3382,86.028005 1492.3198,86.148952 1489.4375,89.03125 L 1486.5,91.96875 1483.5,89.5625 1480.5,87.1875 1482.9375,84.59375 C 1484.3978,83.034494 1485.6772,82.213619 1486.9062,82.125 z M 1520.2188,82.28125 C 1521.4807,82.3789 1522.6759,83.141182 1523.5938,84.53125 1524.7562,86.291578 1524.6562,86.91397 1522.7188,89.34375 L 1520.5,92.125 1517.5625,89.09375 C 1514.6982,86.104058 1514.699,85.993397 1516.5312,83.96875 1517.6468,82.736037 1518.9568,82.1836 1520.2188,82.28125 z"/>
</svg>
