<svg xmlns="http://www.w3.org/2000/svg"
     width="41.9" height="64.0"
     viewBox="5939.2295 14.5136 60.5322 92.4864">
  <path d="M 5949.0464,100.53388 C 5947.208,99.177516 5945.208,97.880542 5944.6021,97.651717 5943.9962,97.422892 5946.3436,94.327121 5949.8186,90.772227 L 5956.1367,84.308783 5949.6831,80.262408 5943.2295,76.216033 5943.9955,72.027582 C 5945.0688,66.1579 5946.0897,65.474518 5950.117,67.92977 5951.9779,69.064284 5954.738,69.994206 5956.2505,69.996262 5958.9888,69.999984 5959.0001,69.971208 5958.9041,63.25 5958.851,59.5375 5958.2885,54.025 5957.6541,51 5956.5129,45.559242 5956.4646,45.503594 5953.1717,45.833637 5949.0094,46.250803 5946.0005,43.738076 5946.0005,39.845012 5946.0005,35.352568 5951.6266,30.967956 5953.5005,34 5954.6313,35.829626 5957.6647,35.032396 5958.7656,32.616266 5959.6106,30.761658 5959.5126,29.748423 5958.3241,28.051599 5956.42,25.33318 5957.1435,24.470961 5960.0315,26.016601 5963.2117,27.718603 5965.7191,25.21124 5964.0171,22.031018 5962.5367,19.264894 5963.2232,18.51363 5965.9149,19.954163 5967.4507,20.776145 5968.5516,20.775429 5970.0912,19.951444 5971.6458,19.119465 5972.9111,19.134539 5975.0252,20.010222 5976.7076,20.707103 5979.2222,20.894416 5981.1845,20.469017 5984.4964,19.750995 5984.4982,19.752694 5982.6187,21.849432 5980.8276,23.847527 5980.8197,24.075089 5982.4536,26.568801 5983.5709,28.273961 5984.8004,29.024082 5985.9747,28.716992 5986.9671,28.457471 5988.3914,28.639992 5989.1398,29.122593 5990.1856,29.796961 5989.9797,30.142766 5988.2505,30.616657 5985.4964,31.371399 5985.4685,32.036949 5987.9843,36.968158 5989.2207,39.391724 5990.7923,40.977828 5992.1559,41.17832 5995.2422,41.63208 5995.7617,44 5992.775,44 5989.0736,44 5987.226,42.083706 5982.6572,33.506376 5979.8569,28.249313 5977.3824,24.959104 5975.3253,23.75769 5972.2406,21.956102 5972.1999,21.961369 5969.1089,24.562233 5967.3977,26.002135 5964.3654,30.098817 5962.3706,33.665969 L 5958.7435,40.1517 5960.0889,47.82585 C 5961.5536,56.180415 5961.9616,72.368911 5960.7384,73.594185 5960.1134,74.220184 5953.2742,72.447191 5948.3737,70.388772 5947.0627,69.838084 5945.8399,72.424212 5946.5481,74.25 5946.8148,74.9375 5950.2232,77.239892 5954.1224,79.366427 L 5961.2119,83.232854 5954.9388,89.562245 C 5949.5785,94.970613 5948.8534,96.117794 5949.9555,97.445818 5952.1116,100.04373 5953.635,99.269717 5959.6883,92.500556 5962.885,88.925862 5966.0944,86.000862 5966.8203,86.000556 5967.5462,86.00025 5970.0212,87.286718 5972.3203,88.859373 5979.4293,93.722114 5982.5536,95.046864 5983.8517,93.748756 5984.4836,93.11694 5984.9974,92.1275 5984.9937,91.55 5984.9848,90.185808 5979.3525,86.36726 5975.2289,84.929777 5973.4533,84.310792 5972.0005,83.236067 5972.0005,82.5415 5972.0005,81.846933 5974.6852,79.847711 5977.9665,78.098785 5984.4967,74.618239 5985.7524,73.351936 5984.2066,71.806126 5983.5138,71.113314 5981.4074,71.452351 5977.6346,72.863925 5974.5808,74.0065 5971.9014,74.617033 5971.6804,74.220667 5971.4593,73.8243 5970.2393,70.125 5968.9691,66 5966.2417,57.142104 5965.701,43.394977 5967.8771,38.23728 5969.3751,34.686706 5973.2,33.005281 5975.9018,34.709567 5978.3014,36.223158 5982.8332,44.161431 5982.9182,47 5983.0144,50.214775 5978.7826,57.278226 5978.2436,54.802407 5978.0403,53.868732 5978.3525,52.210815 5978.9373,51.118149 5979.522,50.025483 5980.0005,48.192251 5980.0005,47.044301 5980.0005,44.310155 5975.136,37 5973.3166,37 5972.5366,37 5971.1801,38.6875 5970.3021,40.75 5968.8421,44.179643 5968.8412,45.354285 5970.2909,54.5 5972.6129,69.14875 5973.1219,71.16726 5974.3728,70.688682 5984.2316,66.91696 5986.0878,66.522729 5987.0228,68.001908 5987.5437,68.825858 5987.9768,70.98343 5987.9852,72.79651 5987.9976,75.4609 5987.4042,76.419672 5984.891,77.79651 5983.1808,78.73343 5980.8506,80.221554 5979.7129,81.103453 5977.6819,82.677713 5977.7279,82.755914 5982.2375,85.398747 5989.303,89.539371 5989.7061,90.386088 5986.5701,94.497642 5985.1008,96.423939 5983.4161,98 5982.8262,98 5982.2364,98 5978.339,95.926838 5974.1654,93.392973 L 5966.577,88.785946 5960.1898,95.892973 C 5956.6769,99.801838 5953.4846,103 5953.0959,103 5952.7071,103 5950.8849,101.89025 5949.0464,100.53388 z M 5953.4187,42.393011 C 5955.4479,41.614348 5955.4378,39.580114 5953.3946,37.536911 5952.1546,36.296986 5951.4709,36.194655 5950.3946,37.087927 5948.6832,38.508239 5948.613,40.212498 5950.2005,41.8 5951.6028,43.202337 5951.4048,43.165838 5953.4187,42.393011 z M 5983.0005,55.134859 C 5983.0005,53.019073 5987.3513,48.908914 5989.2876,49.195571 5991.9612,49.5914 5992.7782,52 5990.2388,52 5989.1782,52 5987.496,52.9 5986.5005,54 5984.6087,56.090411 5983.0005,56.611864 5983.0005,55.134859 z"/>
</svg>
