<svg xmlns="http://www.w3.org/2000/svg"
     width="41.7" height="64.0"
     viewBox="279.0000 15.8289 56.2018 86.2920">
  <path d="M 287.59375,76.90625 283,81.5 285,92.5 285.25,93.40625 C 285.29462,93.364916 285.43989,93 285.46875,93 285.71194,93 287.63183,94.168335 289.71875,95.59375 292.85555,97.736247 294.32193,98.120897 298.28125,97.75 305.87405,97.03873 313.68058,89.635991 316.03125,80.90625 316.59503,78.812544 317.46995,76.839525 317.96875,76.53125 318.46755,76.222975 320.74794,76.730148 323.0625,77.65625 327.07937,79.263483 327.36037,79.240973 328.65625,77.46875 331.20177,73.987543 330.32414,69.261641 326.4375,65.375 324.47929,63.416791 322.45429,60.703012 321.9375,59.34375 321.42071,57.984488 320.98083,50.939196 320.96875,43.6875 320.94462,29.203583 319.3797,23.348341 314.875,20.9375 312.8035,19.828868 312.27505,20.056283 309.40625,23.375 307.66185,25.392969 305.67994,29.116119 304.96875,31.65625 303.28355,37.675198 303.17228,53.786928 304.8125,56.75 305.4992,57.990539 306.35489,61.938162 306.6875,65.5 307.66145,75.929876 303.52967,84 297.25,84 294.62908,84 288.31011,80.193728 287.5,78.125 287.4299,77.945989 287.56314,77.310287 287.59375,76.90625 z M 313.1875,25.1875 C 316.59933,24.558055 318,29.94742 318,43.71875 318,58.792539 318.69732,61.846938 323.4375,67.09375 326.868,70.890907 328.16271,75 325.90625,75 325.30187,75 323.26198,74.270434 321.375,73.375 318.17638,71.857159 317.81526,71.854236 316.03125,73.46875 314.97879,74.421214 313.82885,76.613281 313.46875,78.34375 312.42515,83.358861 308.22611,89.776934 304.21875,92.5 296.46049,97.771875 285.89012,93.352027 284.4375,84.25 283.78322,80.150283 284.92487,78.444011 286.5625,81.09375 287.80133,83.098217 296.36189,88 298.625,88 301.87408,88 306.52248,83.645467 308.46875,78.78125 310.75805,73.059729 310.63269,66.086822 308.0625,56.5 306.34981,50.111711 306.06653,47.034277 306.59375,41.21875 307.31256,33.289911 310.42596,25.696975 313.1875,25.1875 z"/>
</svg>
