<svg xmlns="http://www.w3.org/2000/svg"
     width="34.7" height="64.0"
     viewBox="987.1181 14.8301 49.0727 90.5766">
  <path d="M 1006.3086,99.533756 C 996.63812,95.328066 991.11809,70.5734 993.89735,43.875441 995.69389,26.617589 998.50903,18.830147 1002.41,20.327094 1003.9051,20.900816 1004.011,22.583199 1003.4423,36.733186 1002.3921,62.861798 1002.4758,64.976563 1004.8578,72.5 1006.0767,76.35 1007.6984,80.32704 1008.4615,81.337866 1014.6696,89.561132 1021.9358,65.326388 1021.9799,36.25 1021.9957,25.827439 1022.287,23 1023.345,23 1026.8401,23 1029.3904,28.859219 1031.0746,40.758957 1032.1908,48.645567 1032.145,51.602625 1030.7419,62.203511 1028.0787,82.325558 1023.1173,94.51911 1015.7707,98.998386 1011.9439,101.3316 1010.6153,101.40677 1006.3086,99.533756 z M 1019.9645,90.001943 C 1027.7473,77.728188 1031.2523,48.642986 1026.7133,34 1025.3281,29.531572 1025.3134,29.598224 1024.6053,43.5 1023.4544,66.098561 1019.3359,81.768126 1013.5509,85.558625 1009.4999,88.212943 1006.6638,86.364542 1003.9716,79.315309 1000.0713,69.102862 999.22939,61.242002 1000.2062,44.157215 1000.6939,35.626773 1000.9273,27.714173 1000.725,26.57366 1000.3872,24.66972 1000.2663,24.715413 999.24816,27.131933 995.56838,35.865891 994.9026,62.032186 997.99794,76.267809 1000.5476,87.993984 1003.5349,93.974833 1007.9567,96.206686 1011.1431,97.814983 1011.5044,97.815095 1014.224,96.208629 1015.8112,95.271021 1018.3945,92.478012 1019.9645,90.001943 z"/>
</svg>
