<svg xmlns="http://www.w3.org/2000/svg"
     width="60.8" height="64.0"
     viewBox="1568.0000 16.3821 85.0000 89.4066">
  <path d="M 1572,93.122445 C 1572,92.639789 1572.7047,91.660064 1573.5659,90.945277 1577.175,87.950027 1578.2855,83.782488 1578.1676,73.675904 1578.0342,62.239383 1578.4868,61.052095 1586.2127,52.57253 L 1591.6134,46.64506 1598.1357,49.82253 C 1601.723,51.570138 1605.1377,53 1605.724,53 1607.0254,53 1607.8508,45.618561 1607.01,41.5 1606.4978,38.990846 1605.9969,38.565728 1603.9488,38.901723 1599.0663,39.702695 1597.5563,39.469772 1597.2301,37.865372 1596.9915,36.691709 1597.8287,36.077329 1600.1989,35.686718 1602.0145,35.387504 1604.7076,34.838848 1606.1835,34.467483 1608.6696,33.841931 1608.9499,34.100315 1609.9949,37.980894 1611.0117,41.757155 1610.6882,50.428508 1609.3507,55.25 1608.6783,57.673703 1606.972,57.460648 1599.3397,54 1595.7007,52.35 1592.3903,51 1591.9832,51 1591.576,51 1589.0508,53.564646 1586.3715,56.699213 L 1581.5,62.398425 1580.9033,74.743449 C 1580.3076,87.066806 1580.3007,87.094537 1576.9571,90.544236 1573.6406,93.965981 1572,94.81928 1572,93.122445 z M 1582.7431,97.37336 C 1580.7356,96.321544 1579.4728,96.211762 1578.0627,96.966457 1575.0558,98.575693 1573.5003,98.307077 1575.0453,96.445404 1577.7481,93.188786 1580.0359,92.704402 1583.6139,94.631268 1585.4763,95.634215 1587,96.775918 1587,97.168387 1587,98.678994 1585.3835,98.756829 1582.7431,97.37336 z M 1614.9769,99.472215 C 1613.9987,98.29346 1614.0065,97.048479 1615.0148,93.447082 1616.2482,89.041701 1616.2004,88.813286 1613.3929,85.70885 1611.8018,83.949478 1610.3903,82.323002 1610.2561,82.09446 1610.122,81.865918 1609.0707,82.530986 1607.92,83.57239 1606.1395,85.18371 1605.9163,86.21344 1606.4219,90.482926 1607.0793,96.034063 1606.5434,97.405006 1603.3236,98.409257 1601.4378,98.99742 1600.6626,98.221616 1597.5189,92.60014 1593.9478,86.214391 1593.9166,86.062001 1595.5389,82.924751 1596.4455,81.171652 1598.9451,78.014226 1601.0936,75.908249 1605.2292,71.85453 1605.6831,70.472137 1603.7182,67.913942 1602.3715,66.160533 1594.5237,61 1593.204,61 1592.7444,61 1591.3854,62.74877 1590.1841,64.886155 1588.3068,68.226425 1588,70.316261 1588,79.76371 1588,88.313893 1588.3332,91.031604 1589.5,92 1591.4133,93.587858 1591.4241,95 1589.5231,95 1586.1797,95 1584.8466,90.516419 1584.7793,79.045846 1584.7165,68.324259 1584.8127,67.820399 1587.8572,62.922751 1589.5858,60.142148 1591,57.447009 1591,56.933554 1591,54.942656 1594.3231,56.174646 1599.7927,60.193315 1602.9317,62.499639 1606.0482,65.087139 1606.7182,65.943315 1609.5041,69.503296 1607.3742,75.895955 1602.1116,79.769463 1597.938,82.841496 1597.3888,85.765841 1600.033,90.838829 1601.2259,93.127473 1602.6065,95 1603.101,95 1604.243,95 1604.2244,94.348288 1602.9515,89.764867 1601.9957,86.323008 1602.1728,85.678299 1605.2071,81.553867 1607.0182,79.09214 1608.9293,77.06045 1609.454,77.039 1609.9788,77.01755 1612.5676,79.3625 1615.2071,82.25 1618.9426,86.336493 1619.8839,88.024501 1619.4547,89.866663 1619.1515,91.168328 1618.6428,93.643328 1618.3243,95.366663 1617.8014,98.196676 1617.8983,98.354792 1619.3258,97 1620.195,96.175 1621.5716,93.900651 1622.3847,91.945891 1623.7789,88.594372 1623.7257,88.16686 1621.4524,84.445891 1616.7088,76.681533 1615.7418,73.862175 1616.9287,71.257087 1618.1378,68.603377 1625.079,60 1626.0109,60 1626.334,60 1628.8795,62.019803 1631.6675,64.488451 L 1636.7368,68.976903 1637.2105,79.627466 C 1637.6106,88.62377 1637.3944,90.877723 1635.8187,94.139015 1634.7928,96.262557 1633.5888,98 1633.1433,98 1631.3754,98 1631.2357,96.680167 1632.6463,93.304027 1633.7346,90.699433 1634.0073,87.154122 1633.684,79.81093 1633.25,69.950927 1633.2119,69.822563 1629.8989,67.056713 1626.1001,63.885385 1624.5125,64.299571 1621.703,69.194832 1619.3355,73.319844 1619.5507,75.222089 1623,80.661052 1626.7719,86.608664 1626.7603,88.773196 1622.9263,94.454145 1619.1732,100.0152 1616.7153,101.56676 1614.9769,99.472215 z M 1644.3867,92.836564 C 1641.6673,88.912384 1641.4727,87.944012 1641.0007,75.985373 L 1640.5,63.297618 1634.8598,58.148809 C 1631.7577,55.316964 1628.9362,53 1628.5899,53 1628.2436,53 1626.1781,54.125 1624,55.5 1621.8219,56.875 1619.3813,58 1618.5766,58 1614.2371,58 1613.3125,49.029044 1616.5828,38.654634 L 1618.3752,32.968529 1614.4888,28.988575 C 1612.3514,26.7996 1609.8143,24.758445 1608.8509,24.452674 1607.8875,24.146903 1604.1097,25.092738 1600.4558,26.554529 1595.9354,28.362957 1593.486,28.886021 1592.7913,28.191264 1591.6453,27.045262 1594.9416,25.054359 1602.1297,22.551069 1608.358,20.382068 1609.2493,20.54857 1614.7697,24.912173 L 1619.7189,28.824346 1622.6095,26.918762 C 1628.3982,23.102532 1632,24.92291 1632,31.664816 1632,36.686382 1630.0365,38.246651 1624.2897,37.791751 L 1620.604,37.5 1618.7643,43.585652 C 1617.3377,48.304584 1617.1615,50.294482 1617.9795,52.44616 1618.9889,55.100941 1619.1311,55.151534 1621.2673,53.615306 1625.8819,50.296637 1629.0711,48.940485 1630.4448,49.712789 1631.2149,50.145755 1634.5799,53.128344 1637.9225,56.340765 1644.6387,62.795384 1644.401,61.953312 1644.0366,78 1643.8927,84.337867 1644.264,86.244217 1646.4331,90.302915 1647.8449,92.944518 1649,95.532018 1649,96.052915 1649,98.103796 1647.1366,96.804663 1644.3867,92.836564 z M 1594,33.038741 C 1594,32.510048 1596.3317,31.385048 1599.1815,30.538741 1605.4481,28.677749 1605,28.684353 1605,30.452996 1605,31.280204 1603.3849,32.354522 1601.25,32.947419 1596.5577,34.250524 1594,34.282742 1594,33.038741 z M 1628.5,31.583333 C 1628.5,27.942032 1626.9968,27.372246 1623.9338,29.852511 1621.871,31.522881 1621.7432,31.985654 1622.9449,33.433641 1623.704,34.348221 1625.2644,34.962298 1626.4125,34.798257 1627.9839,34.573746 1628.5,33.778836 1628.5,31.583333 z M 1636.2426,98.75 C 1638.2706,95.68054 1641.5696,95.327271 1643.0134,98.024962 1644.4598,100.72762 1643.4925,101.78868 1641.0009,100.23262 1639.7952,99.47964 1638.8699,99.401544 1638.4873,100.02048 1638.1544,100.55922 1637.1786,101 1636.319,101 1634.9244,101 1634.9161,100.7577 1636.2426,98.75 z"/>
</svg>
