<svg xmlns="http://www.w3.org/2000/svg"
     width="37.7" height="64.0"
     viewBox="2024.6845 16.2741 53.3155 90.5180">
  <path d="M 2057.8797,97.762713 C 2055.9423,94.122473 2050.6019,88.037619 2049.3273,88.018026 2048.6824,88.008112 2046.0402,90.475 2043.4558,93.5 2037.9644,99.92776 2035.5088,100.52552 2034.5954,95.656803 2033.8016,91.425476 2037.287,79.742147 2040.1346,77.089264 2042.888,74.524025 2041.9254,71.985571 2037.2567,69.5 2031.9305,66.664438 2028.6845,60.116314 2029.3966,53.644124 2030.3862,44.649234 2033.2934,43.735514 2037.8092,51 2039.5187,53.75 2041.3141,56 2041.799,56 2042.2839,56 2043.2672,53.554472 2043.9843,50.565494 2045.2489,45.294033 2045.2114,45.039948 2042.7347,42.09653 2039.0133,37.673946 2035.2487,24.833703 2036.8932,22.172783 2038.0667,20.274079 2042.5637,23.012048 2049.2734,29.71043 L 2055.0469,35.47406 2057.5581,32.48703 C 2058.9392,30.844163 2061.1604,27.850327 2062.4941,25.83406 2065.3568,21.506115 2066.3156,20.800138 2068.2975,21.560684 2071.1257,22.645935 2071.1562,27.793762 2068.3694,33.68456 2065.4094,39.941319 2060.491,46 2058.3717,46 2056.419,46 2055.1129,49.888388 2054.4043,57.811857 2053.635,66.41365 2054.9146,70 2058.7527,70 2061.7412,70 2065.4474,67.846146 2068.1639,64.530757 2070.1994,62.046521 2071.5822,63.043702 2070.056,65.895271 2068.3722,69.041526 2061.9108,73 2058.459,73 2052.6433,73 2051.4991,71.161257 2051.5073,61.828652 2051.5173,50.387775 2053.3494,44.402555 2057.4351,42.463785 2061.2493,40.65381 2067.3088,31.208584 2066.8289,27.821239 2066.5471,25.832579 2065.7281,26.538754 2061.1125,32.75 2058.1494,36.7375 2055.5086,40 2055.2441,40 2054.9797,40 2051.8776,37.057019 2048.3508,33.460041 2044.8239,29.863064 2041.5119,27.183653 2040.9906,27.505795 2039.7017,28.302372 2043.1948,37.25551 2046.4695,41.548889 2049.078,44.968757 2049.081,44.994672 2047.4314,49.739806 2041.3763,67.157268 2046.0243,84.645134 2056.1694,82.616124 2059.4931,81.951381 2066.3235,77.477284 2069.9243,73.606233 2072.6181,70.710313 2074,70.295779 2074,72.383638 2074,73.144638 2072.1731,75.41781 2069.9401,77.43513 2066.4175,80.617602 2065.8366,81.744733 2065.5504,85.952423 2064.8551,96.173618 2060.5565,102.79208 2057.8797,97.762713 z M 2041.9297,61.856989 C 2041.9684,60.403333 2041.3442,58.962329 2040.5427,58.654759 2039.7412,58.347189 2037.9251,56.25745 2036.5069,54.010894 2033.6622,49.504636 2032,49.53423 2032,54.091136 2032,58.471488 2034.3625,63.367957 2037.6265,65.752652 2040.2376,67.66027 2040.5621,67.698927 2041.1797,66.175985 2041.5536,65.254193 2041.8911,63.310645 2041.9297,61.856989 z M 2043.2078,89.297052 C 2047.5379,85.06888 2047.7825,84.018095 2045.0188,81.516975 2043.4083,80.059506 2042.7565,79.957191 2041.5359,80.970226 2039.1977,82.910762 2036.8258,93 2038.7078,93 2039.0971,93 2041.1221,91.333674 2043.2078,89.297052 z M 2062.5914,88.153876 C 2062.9567,85.869244 2062.8926,84 2062.4488,84 2061.7017,84 2054.9407,86.158772 2054.1496,86.649901 2053.9569,86.769548 2055.2811,88.711422 2057.0923,90.965177 2060.7673,95.538257 2061.4678,95.180112 2062.5914,88.153876 z"/>
</svg>
