<svg xmlns="http://www.w3.org/2000/svg"
     width="57.4" height="64.0"
     viewBox="2608.4314 60.3125 39.6311 44.1624">
  <path d="M 2644.0625,78.0625 2644,77 2643.625,73.28125 C 2643.1859,74.793725 2641.9149,76.200394 2638.5938,79.1875 L 2633.0312,84.1875 2634.5938,87.15625 C 2635.4415,88.795469 2635.983,91.189995 2635.8125,92.46875 2635.52,94.662751 2635.2484,94.550213 2631.0938,90.40625 2628.6722,87.990977 2626.0707,86 2625.3125,86 2623.8802,86 2623.6022,86.556961 2622.5312,91.40625 2621.9502,94.037618 2621.7234,94.160863 2620.3125,92.75 2619.4555,91.893019 2618.4166,89.340653 2618,87.0625 2617.3995,83.778359 2617.6911,82.053415 2619.375,78.71875 2621.9714,73.577009 2623.7926,73.101018 2627.9062,76.5625 L 2631.0625,79.25 2637.2812,73.375 2643.0625,67.90625 2642.6875,64.3125 2639.4688,67.125 C 2637.3396,68.978731 2634.7281,71.501739 2633.6562,72.71875 2631.735,74.900325 2631.6768,74.901848 2629.0938,73.0625 2623.8117,69.301302 2620.5824,69.989389 2616.9688,75.6875 2612.4314,82.841983 2612.8859,87.97607 2618.6875,95.75 2622.2136,100.47487 2625,99.682127 2625,93.96875 2625,90.210707 2627.3644,90.623541 2631.1875,95.0625 2634.3943,98.785899 2635.2701,99.317064 2636.75,98.375 2638.1548,97.480757 2638.5,95.85155 2638.5,90.21875 2638.5,84.136814 2638.8454,82.822853 2640.9375,80.59375 2642.2709,79.173052 2643.648,78 2644.0312,78 2644.0398,78 2644.0537,78.060389 2644.0625,78.0625 z"/>
</svg>
