<svg xmlns="http://www.w3.org/2000/svg"
     width="32.2" height="64.0"
     viewBox="4986.0005 17.8687 42.6200 84.7107">
  <path d="M 5000.688,22.0625 C 4998.7961,22.25633 4996.9063,24.037054 4994.2505,27.4375 4991.9203,30.421143 4990.0005,33.303151 4990.0005,33.84375 4990.0005,34.384349 4991.2121,37.155258 4992.688,40 4996.5094,47.365674 4996.9385,57.851348 4994.0317,72.84375 4992.8059,79.166254 4992.1309,85.362499 4992.5005,86.84375 4993.6305,91.372218 4997.1644,96.149854 5000.3755,97.5 5002.9425,98.579345 5004.0649,98.54958 5007.1567,97.3125 5008.7387,96.679529 5009.8384,96.462732 5010.813,96.46875 5010.8531,96.008942 5011.0005,94 5011.0005,94 L 5012.4693,89.78125 C 5012.5078,89.512242 5012.4365,89.322584 5012.5005,89.03125 5012.6974,88.134714 5013.0378,87.487436 5013.438,86.96875 L 5015.188,81.875 C 5014.3249,80.209215 5013.6364,77.905078 5013.063,74.5 5012.4148,70.65 5011.1906,65.475 5010.3443,63 5008.108,56.460374 5007.9606,39.609455 5010.1255,37.4375 5011.4105,36.148329 5012.1994,36.042705 5013.813,36.90625 5019.7128,40.063711 5024.6205,36.130327 5021.8443,30.46875 5019.6405,25.974867 5017.7193,25.333958 5014.063,27.9375 L 5010.8755,30.21875 5007.0943,26.09375 C 5004.4557,23.23571 5002.5799,21.86867 5000.688,22.0625 z M 5000.938,25.09375 C 5002.4744,25.138401 5004.1125,26.743192 5006.4693,29.9375 5008.8392,33.149671 5008.8537,33.363499 5007.2505,36.375 5004.8993,40.791691 5005.2747,55.915047 5007.9067,63.15625 5012.4487,75.651793 5012.0211,88.979375 5006.938,94.0625 5004.6973,96.303138 5004.2117,96.35297 5001.5005,94.78125 4995.3111,91.193172 4994.2352,85.857033 4996.9693,72.625 5000.0135,57.891717 4999.2398,42.934231 4995.1255,37.15625 L 4993.063,34.28125 4996.0005,29.65625 C 4997.947,26.586996 4999.4016,25.049099 5000.938,25.09375 z M 5016.188,30.125 C 5017.7591,29.83615 5019.5005,30.843114 5019.5005,32.5 5019.5005,34.984246 5016.7411,35.597226 5015.0005,33.5 5014.0805,32.391488 5014.0153,31.610198 5014.7505,30.875 5015.1616,30.463899 5015.6643,30.221283 5016.188,30.125 z"/>
</svg>
