<svg xmlns="http://www.w3.org/2000/svg"
     width="33.9" height="64.0"
     viewBox="5197.0630 18.7722 44.7592 84.4357">
  <path d="M 5202.7817,85.90625 5201.063,97.03125 C 5202.1958,97.260266 5203.3664,97.472788 5204.5005,97.84375 5208.6707,99.207818 5214.4252,99.202232 5217.4067,97.84375 5219.9572,96.681693 5224.3016,90.937004 5226.0005,86.46875 5226.9761,83.902609 5228.442,83.287311 5229.5005,85 5230.3548,86.382265 5234.3574,86.268095 5235.813,84.8125 5237.8222,82.803303 5237.1066,78.723721 5233.9693,74.09375 5230.1738,68.492643 5230.0327,62.598732 5233.438,51.5625 5237.2485,39.212987 5237.5616,34.366903 5234.813,29 5232.3594,24.209259 5229.2106,22.772158 5226.3755,25.125 5220.4483,30.044194 5216.8685,46.889964 5217.2505,68.21875 5217.4558,79.67887 5217.2334,81.983574 5215.688,84.34375 5212.9587,88.511987 5210.0379,89.455544 5205.6567,87.625 5204.1424,86.992284 5203.3099,86.539739 5202.7817,85.90625 z M 5228.9067,26.96875 C 5230.271,26.732142 5231.5083,27.970012 5232.6567,30.71875 5234.6242,35.427453 5233.952,41.896836 5230.438,52.03125 5226.4015,63.672416 5226.9294,68.927821 5233.1255,78.75 5234.9634,81.663496 5235.0234,82.064607 5233.563,82.625 5232.6533,82.974076 5231.0873,82.486494 5230.0317,81.53125 5227.0413,78.824878 5224.9359,80.041067 5222.8443,85.65625 5221.7902,88.485434 5219.7775,91.972934 5218.3443,93.40625 5216.2848,95.465613 5214.7618,96 5211.0943,96 5206.1288,96 5202.0005,93.894747 5202.0005,91.34375 5202.0005,90.101752 5202.731,89.900357 5205.5943,90.4375 5211.6031,91.564764 5214.7454,90.294687 5217.438,85.65625 5219.7074,81.746779 5219.8629,80.50241 5219.9693,65.5 5220.1089,45.844917 5221.0305,38.8191 5224.4067,32.15625 5226.0445,28.924291 5227.5425,27.205358 5228.9067,26.96875 z"/>
</svg>
