<svg xmlns="http://www.w3.org/2000/svg"
     width="27.3" height="64.0"
     viewBox="184.3923 14.9983 38.6077 90.6172">
  <path d="M 194.42265,99.874851 C 192.99298,97.561597 193.80372,91.121545 196.02132,87.17585 L 198.31537,83.094138 195.55711,76.947913 C 188.39233,60.982648 189.32207,40.47272 197.82738,26.866231 202.4814,19.420908 205.24655,18.998279 210.00406,25.005132 213.16786,28.999745 217,37.890417 217,41.235883 217,44.20754 214.47196,43.19426 213.4568,39.815707 212.20569,35.651942 210.58704,35.263525 207.65785,38.424175 204.78477,41.524283 203.59947,41.616704 200.27287,39 198.87445,37.9 197.39192,37 196.97837,37 196.56482,37 195.66705,39.964796 194.98331,43.588436 192.88543,54.706813 194.53941,64.79641 201.05243,80.611275 202.20358,83.406477 202.10117,84.049184 200.04431,86.93777 197.53181,90.466259 195.73988,96.721204 197.01566,97.509677 197.45975,97.784141 199.20874,95.756744 200.9023,93.004351 204.69528,86.839988 206.80183,86.626311 211.09639,91.970321 212.85124,94.153997 214.67245,95.702439 215.14351,95.411304 216.4559,94.600202 216.16479,90.638641 214.5,86.654243 212.78964,82.560765 212.61763,81 213.87686,81 215.14611,81 219,90.403973 219,93.501123 219,97.119528 217.28568,100 215.13218,100 214.14358,100 211.88821,98.2 210.12024,96 208.35227,93.8 206.33659,92 205.64094,92 204.31239,92 200.8234,96.267733 199.71385,99.25 198.98707,101.20346 195.4984,101.61544 194.42265,99.874851 z M 207.04049,34.811942 C 210.65376,32.140537 210.68088,31.581462 207.4055,27.287223 203.98247,22.799397 201.08786,23.146825 199.14037,28.279255 197.78237,31.858131 197.82941,32.18951 200.02748,34.529255 202.86301,37.547529 203.31573,37.565778 207.04049,34.811942 z"/>
</svg>
