<svg xmlns="http://www.w3.org/2000/svg"
     width="34.4" height="64.0"
     viewBox="4035.8484 14.3420 47.5988 88.4277">
  <path d="M 4044.5718,83.75 C 4043.7533,67.30688 4041.4233,39.987914 4040.4386,35.287844 4039.8484,32.470823 4040.2414,31.597389 4043.6331,28.187465 4045.7602,26.048942 4048.51,23.106912 4049.7439,21.649621 4052.483,18.414519 4053.5181,18.341975 4055.4461,21.25 4056.2666,22.4875 4058.5366,24.764346 4060.4905,26.309658 L 4064.0432,29.119317 4068.2018,25.559658 C 4073.0259,21.430456 4073.8549,21.284039 4076.8119,24.038955 4079.3002,26.357131 4079.4472,27.420077 4077.8953,31.871886 4076.6056,35.571579 4074.3849,37 4069.9228,37 L 4066.7135,37 4067.4661,46.25 C 4068.7154,61.604606 4068.9951,96.885292 4067.8731,97.578729 4067.32,97.920577 4066.7273,98.04271 4066.556,97.850136 4066.3848,97.657561 4065.6931,83.325 4065.019,66 L 4063.7933,34.5 4058.1803,28.752061 4052.5672,23.004123 4048.1351,27.499536 4043.7031,31.994949 4044.3623,40.247474 C 4044.7249,44.786364 4045.4656,53.225 4046.0084,59 4046.5512,64.775 4047.2872,75.9125 4047.6439,83.75 4048.2042,96.060835 4048.0876,98 4046.7868,98 4045.5496,98 4045.1547,95.459567 4044.5718,83.75 z M 4054.6823,98.266312 C 4054.2699,97.573662 4053.963,91.33514 4052.3819,51.5 4052.12,44.9 4051.8145,38.048751 4051.7031,36.275002 4051.5917,34.501253 4051.8992,32.926253 4052.3864,32.775002 4053.4104,32.457139 4055.8546,41.300716 4055.7652,45 4055.7319,46.375 4056.0028,58.831882 4056.3672,72.681961 4056.7751,88.184526 4056.6663,98.088534 4056.0842,98.448273 4055.5642,98.769666 4054.9333,98.687783 4054.6823,98.266312 z M 4074.2352,32.572942 C 4075.701,30.432214 4075.0805,26 4073.315,26 4071.2963,26 4067.0005,29.826467 4067.0005,31.624624 4067.0005,34.579307 4072.3786,35.284268 4074.2352,32.572942 z"/>
</svg>
