<svg xmlns="http://www.w3.org/2000/svg"
     width="37.6" height="64.0"
     viewBox="2962.1567 12.4089 51.6189 87.9725">
  <path d="M 2972.1567,80.3125 2972.0005,80.5 2969.5317,84.5 C 2970.2939,84.170142 2971.1951,84.270136 2972.9067,85.28125 2976.7028,87.523583 2982.2492,87.499241 2984.313,85.21875 2985.201,84.237558 2987.0965,80.77681 2988.5317,77.53125 2991.761,70.229157 2991.9503,61.646032 2989.0943,51.5 2986.682,42.930415 2987.1765,30.869418 2990.1567,25.96875 2992.253,22.521721 2993.3171,22.752907 2995.5943,27.15625 2997.4248,30.695962 2997.7104,36.688117 2996.563,46.53125 2995.8439,52.699716 2996.0179,54.10768 2997.8443,57.6875 2998.9916,59.93637 3001.3221,63.16543 3003.0317,64.875 3005.2829,67.12627 3005.9678,68.559057 3005.5005,70.03125 3004.8707,72.015807 3004.7745,71.996911 3001.8443,69.53125 3000.1935,68.142277 2998.5167,67 2998.0943,67 2996.2722,67 2994.181,70.867368 2993.5317,75.5 2992.694,81.478104 2989.0871,88.094258 2985.0943,90.9375 2981.5568,93.456382 2979.6729,93.477885 2974.5005,91.125 2970.8263,89.453678 2968.7479,87.728629 2968.438,86.28125 L 2966.1567,89.96875 2968.7193,91.8125 C 2970.3594,92.980317 2973.8586,94.489236 2976.4693,95.1875 2980.9327,96.381306 2981.4739,96.304577 2985.8443,93.875 2989.526,91.828245 2991.176,90.004267 2993.7505,85.0625 2995.538,81.631403 2997.0005,77.313235 2997.0005,75.46875 2997.0005,71.290068 2998.2106,70.466311 3000.5317,73.03125 3002.8833,75.629632 3005.5115,75.531722 3007.438,72.78125 3009.7756,69.44385 3009.343,66.658153 3005.9067,63.0625 3004.2034,61.279997 3001.9143,57.770987 3000.813,55.28125 2998.9633,51.099773 2998.9031,50.173633 3000.063,43.03125 3001.4786,34.314313 3000.4571,27.842415 2996.8755,22.8125 2992.3157,16.40885 2986.8549,21.829917 2985.0005,34.59375 2983.9282,41.974513 2984.0159,43.382111 2985.9693,50.34375 2987.1487,54.547267 2988.149,61.08729 2988.2193,64.875 2988.3257,70.620041 2987.8812,72.700872 2985.5005,77.40625 2981.8428,84.635706 2980.9895,85.311538 2977.3755,83.9375 2974.7616,82.943701 2973.0387,81.657118 2972.1567,80.3125 z"/>
</svg>
