<svg xmlns="http://www.w3.org/2000/svg"
     width="34.0" height="64.0"
     viewBox="5655.5005 16.0000 45.1038 84.9192">
  <path d="M 5662.7193,78 5662.5005,78.5 5661.188,84.8125 C 5661.8743,83.899323 5662.4658,83.818197 5663.9693,84.75 5674.1848,91.081013 5683.1106,70.36779 5676.9067,54.75 5673.3521,45.801249 5673.7531,33.452634 5677.813,26.25 5679.6258,23.0339 5681.3696,23.453069 5683.3443,27.59375 5685.5364,32.190859 5686.0284,36.457028 5686.2817,52.59375 L 5686.5005,65.65625 5689.813,69.46875 C 5692.4557,72.477175 5693.0238,73.790334 5692.5005,75.875 5691.6072,79.43423 5691.4231,79.499016 5688.563,77.625 5684.592,75.023096 5683.0924,75.631309 5680.688,80.75 5679.4608,83.3625 5677.5922,86.771888 5676.563,88.3125 5675.5338,89.853112 5673.4667,91.725627 5671.9693,92.5 5669.5168,93.768252 5668.8199,93.708626 5664.8755,91.71875 5662.3587,90.449015 5660.9977,89.295584 5660.5005,88.09375 L 5659.5005,92.96875 5663.9693,94.90625 C 5668.5148,96.861705 5669.278,96.919205 5672.3755,95.625 5675.6834,94.242832 5680.281,88.552569 5682.7817,82.75 5683.9679,79.997876 5687.2581,78.98981 5688.5005,81 5689.9043,83.27147 5693.1306,81.959468 5694.563,78.53125 5696.6043,73.645701 5696.4008,72.5464 5692.8755,68.53125 L 5689.7505,64.96875 5689.313,49.71875 C 5689.0585,41.34073 5688.3401,32.925 5687.7505,31 5686.3867,26.547469 5682.295,20 5680.8755,20 5678.8102,20 5674.02,26.199653 5672.8755,30.34375 5671.0238,37.048916 5671.5966,47.619131 5674.2505,55.8125 5676.2492,61.982801 5676.4925,64.146436 5675.8443,69.53125 5674.4641,80.995295 5669.6867,85.875941 5664.563,81.0625 5663.6793,80.232233 5663.1394,79.360483 5662.7193,78 z"/>
</svg>
