<svg xmlns="http://www.w3.org/2000/svg"
     width="36.4" height="64.0"
     viewBox="1060.6205 13.9313 52.8795 93.0687">
  <path d="M 1109.5,70.21875 C 1109.1771,69.529365 1109,68.818136 1109,68.03125 1109,60.310624 1104.4599,57.276266 1101.5,63 1099.2481,67.354804 1092.8435,74 1090.9062,74 1088.1849,74 1086.6872,68.472158 1086.5938,58.15625 L 1086.5,48.5 1092.0625,43 C 1098.0984,37.034781 1101.163,30.457982 1100.25,25.40625 1098.8989,17.931266 1095.5117,18.269095 1089.4688,26.5 1086.8441,30.075 1084.421,33.000559 1084.0938,33 1083.7665,32.999441 1082.2601,30.782521 1080.75,28.09375 1078.651,24.356387 1077.0265,22.835967 1073.8438,21.5625 1070.0349,20.038503 1069.5494,20.011097 1068.0938,21.46875 1064.6205,24.946432 1066.9255,35.446319 1072.6562,42.3125 1074.9197,45.024295 1075,45.810295 1075,61.1875 1075,76.652057 1074.9114,77.308152 1072.5938,80.0625 1068.7708,84.605688 1066.5605,91.429669 1067.6562,95.25 1068.9327,99.7005 1071.3597,99.814341 1076.0312,95.59375 1078.2113,93.624263 1080.8241,92 1081.8125,92 1082.8009,92 1084.178,91.4375 1084.875,90.75 1085.8908,89.748123 1086.4142,89.881681 1087.5625,91.4375 1088.3505,92.505121 1088.998,94.080121 1089,94.9375 1089.0021,95.794878 1089.9102,97.9625 1091,99.75 1092.0899,101.5375 1093.3573,103 1093.8125,103 1094.2677,103 1095.9471,101.62452 1097.5625,99.9375 1100.1847,97.199011 1100.5,96.166587 1100.5,90.46875 1100.5,84.44817 1101.2396,82.070621 1103.1875,82.625 L 1109,70.5 1109.5,70.21875 z M 1096.25,24 C 1096.8515,24 1097.0601,25.942241 1096.7812,28.84375 1096.227,34.612088 1092.517,40.056786 1087.5,42.4375 1084.6368,43.796156 1084.0138,44.709889 1083.4688,48.34375 1082.5512,54.463184 1083.5404,67.786971 1085.25,72.5 1086.474,75.874159 1087.1911,76.548877 1089.8438,76.8125 1092.4895,77.075449 1093.71,76.361666 1097.5625,72.3125 1100.0808,69.665614 1102.4971,66.889719 1102.9375,66.125 1103.378,65.360281 1104.2526,65.021572 1104.875,65.40625 1108.8886,67.88678 1102.1254,81.17267 1095.0312,84.75 1092.5773,85.9875 1089.8773,86.9499 1089.0312,86.875 1084.5035,86.474121 1082.8637,85.536419 1080.7812,82.1875 1078.6334,78.733471 1078.5047,77.428052 1078.4375,61.375 L 1078.3438,44.25 1075.125,40.15625 C 1071.6152,35.724788 1068.4813,27.81009 1069.3438,25.5625 1069.7286,24.559698 1070.6692,24.360317 1072.5938,24.875 1074.5133,25.388371 1076.3545,27.381167 1078.9062,31.75 1080.8863,35.140203 1083.044,37.946279 1083.7188,37.96875 1084.3936,37.99122 1085.7322,36.7625 1086.6875,35.25 1089.7155,30.455835 1095.2054,24 1096.25,24 z M 1075.5625,81.3125 C 1076.1432,81.12235 1077.3916,82.596963 1078.3438,84.59375 L 1080.0625,88.21875 1076.2812,91.5625 C 1071.4163,95.861386 1070,95.895072 1070,91.65625 1070,88.396011 1073.4366,82.008579 1075.5625,81.3125 z M 1095.5938,88.4375 C 1096.2235,88.345184 1096.7769,88.366658 1097.0938,88.5625 1098.4695,89.412735 1098.1831,92.747262 1096.4688,96.0625 1095.6296,97.685187 1094.7264,99 1094.4375,99 1093.8014,99 1091,92.48508 1091,91 1091,90.028794 1093.7044,88.714448 1095.5938,88.4375 z"/>
</svg>
