<svg xmlns="http://www.w3.org/2000/svg"
     width="61.0" height="64.0"
     viewBox="2290.6764 16.7390 84.3739 88.4618">
  <path d="M 2357,98.154988 C 2357,97.690231 2357.8267,96.561821 2358.8371,95.64741 2360.9856,93.70307 2367,94.404938 2367,96.6 2367,97.554028 2366.1556,97.781127 2364.1213,97.374256 2362.4844,97.046874 2360.9491,97.273346 2360.5623,97.899256 2359.765,99.189217 2357,99.387715 2357,98.154988 z M 2345.0657,33.964816 C 2347.1069,32.872415 2347.684,29.540748 2346.0111,28.506844 2344.937,27.84304 2338,30.793342 2338,31.913941 2338,33.087968 2340.3331,35 2341.7657,35 2342.5169,35 2344.0019,34.534167 2345.0657,33.964816 z M 2308,38.214632 C 2308,37.032645 2320.98,30.869575 2322.0615,31.538019 2323.3363,32.325905 2323.2509,34 2321.9359,34 2321.3507,34 2318.4123,35.125 2315.4063,36.5 2309.6631,39.127003 2308,39.512021 2308,38.214632 z M 2364.1905,92.086865 C 2360.2868,88.746571 2358.2154,82.759653 2357.321,72.23236 L 2356.7035,64.964721 2350.971,61.48236 C 2347.818,59.567062 2344.7456,58 2344.1434,58 2343.5411,58 2341.575,58.898318 2339.7742,59.996262 2335.2476,62.756109 2334.3329,62.538688 2332.9592,58.3764 2331.7221,54.628043 2332.3076,41.901185 2333.9863,36.047751 2334.7461,33.398667 2334.4326,32.720127 2331.0286,29.644803 2326.4491,25.507509 2323.4398,24.390142 2321.4111,26.07382 2319.1666,27.936587 2310.0331,32.00312 2308.1507,31.977764 2306.8972,31.960879 2307.1016,31.484941 2309,30 2310.375,28.924459 2311.8737,28.034466 2312.3305,28.022236 2312.7873,28.010006 2315.6224,26.366279 2318.6306,24.369509 L 2324.1002,20.739018 2327.5631,22.603931 C 2329.4677,23.629633 2332.1075,25.471615 2333.4293,26.697224 L 2335.8325,28.925603 2339.7088,26.80233 C 2344.468,24.195488 2348.629,24.893979 2350.0121,28.531892 2351.9636,33.664554 2346.3123,39.04815 2340.5034,37.590217 2338.3986,37.061947 2337.7968,37.404329 2336.9596,39.606173 2335.8587,42.501973 2334.9245,57.591151 2335.7925,58.459119 2336.0881,58.754765 2338.3181,57.831527 2340.7481,56.407479 L 2345.1662,53.818302 2351.3331,57.56245 C 2360.2414,62.971017 2360.9971,63.76461 2360.3447,67.026562 2360.0364,68.567886 2360.5234,73.579951 2361.4268,78.164485 2362.8653,85.464474 2363.4998,86.872692 2366.5347,89.5 2370.0338,92.529194 2371.0503,95.034147 2368.75,94.959359 2368.0625,94.937007 2366.0107,93.644385 2364.1905,92.086865 z M 2319.5905,94.702381 C 2315.3446,88.305656 2315.0062,84.342141 2318.3632,80.326725 2322.5176,75.357354 2322.5746,73.374627 2318.6752,69.475245 2311.9577,62.757734 2308.4719,65.457104 2307.4406,78.175163 2306.7972,86.109021 2306.9192,87.081873 2308.8686,89.560021 2311.2913,92.640075 2311.5623,94.003074 2309.75,93.993167 2309.0625,93.989409 2307.5296,92.526909 2306.3436,90.743167 2304.3687,87.773031 2304.2428,86.68431 2304.8481,77.810914 2305.4565,68.892394 2305.7423,67.878395 2308.4416,65.060914 2311.994,61.353085 2312.9486,61.299506 2318.412,64.501301 2325.571,68.69675 2326.6328,73.289406 2322.0182,80.099519 2318.326,85.548456 2318.2942,86.952945 2321.75,91.9487 2324.9686,96.601533 2326.5112,97.128938 2325.556,93.25 2323.7271,85.822817 2323.7821,85.367643 2327.0728,80.699091 2330.84,75.354554 2331.1143,75.410427 2337.4287,82.807876 2341.3549,87.407562 2341.8013,88.392393 2340.9614,90.601531 2339.6774,93.978771 2339.7496,95 2341.2726,95 2341.9725,95 2343.3684,93.471305 2344.3747,91.602899 2346.7479,87.196065 2345.9005,83.267102 2341.4204,77.904724 2337.3385,73.018958 2337.1287,70.188974 2340.5472,66.126235 2343.3325,62.816189 2344.0973,62.857745 2350.1875,66.650033 2353.8313,68.91898 2353.875,69.024134 2353.875,75.526882 2353.875,79.146267 2354.6047,84.3044 2355.4965,86.989399 2356.9792,91.453512 2356.9824,92.133413 2355.5333,94.935607 2354.6617,96.621023 2353.7665,98 2353.5439,98 2353.3213,98 2353.1849,95.8625 2353.2408,93.25 2353.2967,90.6375 2352.7541,84.428474 2352.0351,79.452164 2350.8428,71.200893 2350.4613,70.215025 2347.7011,68.254109 2345.4224,66.635301 2344.2203,66.34689 2342.8372,67.087128 2339.996,68.607673 2340.6387,71.961118 2345.0024,78.384971 2347.2011,81.621705 2349,85.343853 2349,86.656411 2349,88.925474 2344.6582,96.670628 2342.5094,98.234687 2341.0452,99.300415 2337.2193,99.163806 2336.5127,98.02057 2336.1798,97.481883 2336.4374,95.272106 2337.0852,93.109954 2338.2126,89.347116 2338.1182,89.004419 2334.8815,85.10741 2333.0217,82.868163 2331.1729,81.02794 2330.7731,81.018026 2330.3732,81.008112 2329.2956,82.145396 2328.3783,83.545325 2326.9602,85.709717 2326.8887,86.685278 2327.901,90.063844 2328.8464,93.219379 2328.8232,94.596644 2327.7881,96.75629 2325.6579,101.20082 2323.5541,100.67372 2319.5905,94.702381 z M 2295.2094,97.871794 C 2295.4162,97.25128 2297.2381,95.78878 2299.258,94.621794 L 2302.9304,92.5 2305.1597,94.722222 C 2307.8624,97.416445 2306.911,98.825488 2303.5894,97.047824 2301.5577,95.960488 2300.8205,96.012298 2298.8684,97.379651 2296.1697,99.269881 2294.6764,99.470729 2295.2094,97.871794 z M 2295,92.033673 C 2295,91.410527 2295.7363,89.476765 2296.6363,87.736424 2297.9759,85.145901 2298.1559,82.791431 2297.629,74.751062 L 2296.9854,64.929957 2301.5308,60.070502 C 2308.1487,52.995446 2310.4376,52.30155 2317.0831,55.355747 2320.0439,56.716489 2322.8131,57.615535 2323.2368,57.353626 2324.1452,56.792255 2323.464,53.189534 2321.3057,47.139432 2319.6152,42.400487 2320.0438,42.50321 2310.75,44.609817 2306.1579,45.650702 2307.6718,43.535599 2313.1865,41.205686 2317.7796,39.265156 2318.6207,39.176669 2320.5371,40.432328 2323.5013,42.374584 2325.8213,47.628135 2326.5853,54.128437 2327.5023,61.931124 2325.9759,62.962432 2318.5427,59.562402 2315.4616,58.153081 2312.0919,57 2311.0545,57 2310.0171,57 2307.0969,58.929086 2304.5651,61.286858 L 2299.962,65.573715 2300.5535,75.536858 C 2301.0564,84.007223 2300.8719,86.015482 2299.3225,88.940449 2297.5001,92.380743 2295,94.169828 2295,92.033673 z"/>
</svg>
