<svg xmlns="http://www.w3.org/2000/svg"
     width="40.6" height="64.0"
     viewBox="5393.9380 41.5389 39.3850 62.0102">
  <path d="M 5402.188,80.75 5402.0005,81.5 5398.0005,95.5 5397.938,96.28125 C 5398.7959,96.406054 5399.7273,96.645726 5401.2193,97.21875 5407.2868,99.549158 5409.9904,99.354746 5414.3755,96.375 5417.675,94.132902 5418.5288,93.961541 5420.4693,95 5423.3841,96.559992 5425.9176,96.029873 5427.5943,93.5 5428.7531,91.751398 5428.6029,90.776391 5426.4067,86.1875 5423.5858,80.29329 5423.6409,75.579974 5426.7193,63 5429.323,52.359587 5426.8094,45.538937 5420.7193,46.71875 5418.8009,47.090369 5417.2086,48.526148 5415.563,51.375 5413.5191,54.913418 5413.1204,57.167005 5412.7505,67.1875 5412.2742,80.090295 5410.838,84 5406.6255,84 5404.5087,84 5403.1331,82.96688 5402.188,80.75 z M 5421.5005,50.5 C 5425.0528,50.5 5425.6727,56.478985 5422.9693,64.59375 5419.9111,73.772597 5419.9066,82.156129 5422.9693,87.28125 5425.5668,91.628122 5425.1233,92.821152 5421.4693,91.15625 5417.7401,89.457193 5416.1283,89.710351 5412.813,92.5 5408.1977,96.383582 5400.0005,95.443395 5400.0005,91.03125 5400.0005,86.882813 5400.9208,86.138695 5404.7193,87.1875 5407.979,88.087591 5408.5525,87.916777 5411.2193,85.25 5414.7752,81.694064 5415.8657,77.261629 5415.9067,66.21875 5415.9426,56.566709 5418.0986,50.5 5421.5005,50.5 z"/>
</svg>
