<svg xmlns="http://www.w3.org/2000/svg"
     width="48.1" height="64.0"
     viewBox="2458.0035 12.0000 69.0289 91.8558">
  <path d="M 2502.0589,94.678533 C 2501.1998,92.075411 2501.2912,90.426167 2502.4814,87.052806 2504.5882,81.081335 2504.4016,80.049361 2500.3943,75.509243 L 2496.8718,71.518486 2494.9329,74.009243 C 2492.154,77.579173 2491.5767,80.643702 2492.8699,84.960207 2494.6885,91.029977 2492.3546,97.951523 2488.8799,96.793291 2488.2268,96.575606 2485.5513,92.612481 2482.9343,87.986347 L 2478.1761,79.575193 2480.0149,75.970699 C 2481.0263,73.988227 2482.5617,71.778709 2483.4269,71.060658 2485.9524,68.964702 2485.2578,65.642173 2481.541,62.039715 2478.4557,59.049307 2477.8885,58.839047 2476.291,60.093548 2473.0133,62.66748 2472.0639,64.467459 2472.0318,68.168213 2471.9891,73.091493 2471.1426,75 2469.0016,75 2466.869,75 2463.8093,68.096617 2463.8037,63.272297 2463.7989,59.114777 2467.4556,51.573405 2470.7222,49.003893 2473.515,46.807037 2477.9659,46.365929 2479.7129,48.112868 2483.1596,51.559636 2483.6353,43.157247 2480.3561,36.75 2478.7529,33.617592 2478.2564,33.491502 2475.5589,35.531803 2470.5453,39.323879 2462.0035,35.106394 2463.4031,29.529927 2463.7594,28.110487 2464.9394,26.060574 2466.0254,24.974564 2467.1114,23.888554 2468,22.1 2468,21 2468,19.9 2468.45,19 2469,19 2469.55,19 2470,19.869676 2470,20.932612 2470,21.995549 2470.8498,23.13495 2471.8885,23.464614 2472.9272,23.794277 2474.9754,25.174602 2476.44,26.532001 2477.9047,27.889401 2479.4273,29 2479.8237,29 2480.22,29 2482.1699,27.660078 2484.1567,26.022394 2486.5612,24.040396 2487.99,21.867023 2488.4298,19.522394 2488.7933,17.585078 2489.4721,16 2489.9383,16 2490.9304,16 2491.989,18.450301 2492.0258,20.831787 2492.04,21.749304 2494.3273,24.0441 2497.1087,25.931333 2501.9908,29.243986 2502.258,29.306968 2504.8329,27.752279 2506.6969,26.626792 2507.6506,25.056679 2508,22.537828 2508.6338,17.969202 2510.4011,17.474307 2510.8134,21.75 2510.999,23.675123 2511.6828,25 2512.4908,25 2513.241,25 2514.7566,26.14643 2515.8588,27.547622 2517.5077,29.643831 2517.6829,30.611135 2516.8478,33.006762 2515.5091,36.846867 2512.9263,37.519159 2507.4892,35.44271 2502.3007,33.461208 2500.6938,34.20942 2499.141,39.329992 2497.2373,45.607302 2497.0636,47.70477 2498.3068,49.404897 2499.4881,51.020423 2499.909,50.963168 2504.7588,48.527236 2509.6472,46.071932 2510.1191,46.01022 2512.9219,47.4596 2519.1477,50.679111 2523.0324,59.023137 2521.5172,65.921825 2520.5911,70.13818 2518.4979,69.818278 2514.0238,64.776628 2510.5289,60.838383 2510.0978,60.634401 2507.638,61.75519 2504.24,63.303393 2504.3002,65.689314 2507.8465,70.022156 2514.137,77.707781 2514.3149,79.864976 2509.5252,90.375156 2505.7168,98.732294 2503.7676,99.855765 2502.0589,94.678533 z M 2490.5605,88.75 C 2488.6427,79.709748 2488.6799,79.347741 2492.1187,73.598343 2493.9604,70.519254 2495.982,68 2496.6112,68 2498.0401,68 2507,78.774416 2507,80.492757 2507,81.187404 2506.325,83.371254 2505.5,85.345757 2503.7908,89.436404 2503.5367,92.40438 2504.9715,91.517597 2506.2491,90.728042 2510,82.207748 2510,80.095394 2510,79.18769 2507.75,75.319763 2505,71.5 2502.25,67.680237 2500,64.058548 2500,63.451802 2500,61.427534 2504.6717,57.927435 2508.1066,57.378233 2510.9662,56.921013 2511.962,57.320491 2514.4371,59.917834 2518.1957,63.862089 2519.3387,63.818445 2518.4483,59.764667 2517.4397,55.172281 2515.3697,52.395772 2511.8756,50.948471 2509.2399,49.85674 2508.1457,49.986043 2503.4101,51.948861 2500.4189,53.188657 2497.3163,53.951622 2496.5155,53.644338 2494.0035,52.680369 2493.5563,47.912912 2495.3779,41.515112 2496.3198,38.2068 2497.3311,34.573643 2497.6252,33.441429 2498.0349,31.864166 2497.206,30.721787 2494.08,28.555428 L 2490,25.727998 2486,28.5 C 2483.8,30.024601 2482,31.458148 2482,31.685661 2482,31.913173 2482.7171,33.485955 2483.5935,35.180731 2485.3814,38.638213 2487.0611,52.844193 2485.7759,53.63849 2485.319,53.920861 2482.9448,53.183504 2480.4998,51.999918 2477.8826,50.732923 2475.2315,50.109152 2474.0532,50.483113 2469.9194,51.795136 2465.4461,60.944987 2466.6308,65.66523 2467.4198,68.808599 2468.8173,68.613798 2469.6098,65.25 2470.6413,60.871484 2474.8644,57 2478.6092,57 2481.1692,57 2482.5906,57.872088 2485.4221,61.179999 2487.3899,63.478998 2489,66.177701 2489,67.177118 2489,68.176534 2487.425,70.737575 2485.5,72.86832 2483.575,74.999065 2482,77.507207 2482,78.441968 2482,81.08032 2488.3335,91.974833 2489.875,91.988135 2490.902,91.996997 2491.0755,91.177466 2490.5605,88.75 z M 2474.4355,32.670835 C 2475.96,31.556068 2476.0608,30.982088 2475.0602,29.112432 2473.5522,26.294713 2467.7188,26.432035 2467.1756,29.298039 2466.4264,33.251026 2470.8387,35.300872 2474.4355,32.670835 z M 2513.5,31.416667 C 2513.5,29.067407 2509.5893,28.265995 2507.3192,30.150035 2505.9326,31.300838 2506.0855,31.597214 2508.6243,32.679128 2512.2106,34.207471 2513.5,33.873599 2513.5,31.416667 z"/>
</svg>
