<svg xmlns="http://www.w3.org/2000/svg"
     width="43.2" height="64.0"
     viewBox="1099.1875 14.8455 54.1250 80.1550">
  <path d="M 1109.5,70.21875 1109,70.5 1103.1875,82.625 C 1103.9934,82.854348 1104.9825,83.523261 1106.25,84.75 1109.9926,88.372259 1115.6943,91.000518 1119.7188,90.96875 1123.6696,90.937562 1129.9997,87.783975 1133.4375,84.125 1136.9136,80.425185 1137.6416,80.322267 1140.625,83.125 1143.445,85.774247 1144.9765,85.22341 1147.4062,80.625 L 1149.3125,77 1145.8125,73.59375 C 1141.7354,69.634136 1140.9156,66.608249 1141.9688,59 1142.3874,55.975 1142.8103,48.101906 1142.9062,41.5 1143.0647,30.598998 1142.8782,29.08355 1140.7188,25 1137.5499,19.007837 1134.518,18.845519 1131.25,24.5 1128.7888,28.758487 1128.7076,32.630148 1130.5625,58.09375 1131.1019,65.497236 1130.9006,67.237246 1129.1875,70.59375 1126.9406,74.996274 1124.4911,77.458968 1121.375,78.40625 1119.808,78.882628 1117.9041,77.987198 1114.125,75 1111.4444,72.881155 1110.1249,71.552964 1109.5,70.21875 z M 1136.7188,24.34375 C 1139.9791,26.358794 1140.679,41.260034 1138.4375,61.5625 1137.7061,68.186566 1139.2425,72.744915 1143.375,76.125 1145.0888,77.526755 1145.2655,78.092538 1144.25,79.125 1143.2272,80.164863 1142.3964,80.064743 1139.9062,78.59375 1136.8815,76.806923 1136.8123,76.836685 1134.2188,79.15625 1132.7722,80.449852 1130.7613,82.500195 1129.75,83.71875 1128.7388,84.937306 1126.2562,86.402873 1124.2188,86.96875 1119.0744,88.397485 1117.0805,88.207469 1112.7812,85.9375 1108.5804,83.71944 1105.5761,78.915635 1106.5312,75.90625 1107.1249,74.035852 1107.442,74.123563 1111.5625,77.5 1113.988,79.487502 1117.5754,81.370106 1119.5312,81.6875 1122.7951,82.217151 1123.5085,81.875062 1127.9062,77.3125 1130.7913,74.319178 1132.9472,71.014001 1133.3438,69.03125 1134.4257,63.621364 1134.0632,51.84545 1132.6562,46.5 1130.9405,39.98141 1131.639,29.119792 1133.9688,26.03125 1134.9358,24.749255 1136.1688,24.003817 1136.7188,24.34375 z"/>
</svg>
