<svg xmlns="http://www.w3.org/2000/svg"
     width="63.1" height="64.0"
     viewBox="4781.9795 16.6600 88.0281 89.3204">
  <path d="M 4822.6567,21.1875 C 4818.7907,20.660012 4814.1291,22.91669 4805.5943,28.375 4801.5111,30.986344 4801.0845,31.545462 4802.8755,31.8125 4804.0559,31.98849 4806.1106,31.256212 4807.4693,30.1875 4811.2788,27.190911 4820.707,23.705379 4823.2505,24.34375 4824.4957,24.656267 4827.1544,26.910991 4829.188,29.34375 L 4832.9067,33.75 4830.9067,39.03125 C 4828.6877,44.871361 4828.1581,53.563894 4829.938,55.34375 4830.7975,56.2033 4832.1279,55.943316 4835.2193,54.25 4840.0721,51.59188 4840.0643,51.574734 4849.938,60.6875 L 4856.3755,66.65625 4855.0943,73.5625 C 4853.4811,82.284294 4854.5544,87.402504 4859.1255,92.90625 4860.9815,95.140911 4863.063,96.958836 4863.7505,96.96875 4866.0076,97.0013 4865.0544,94.094767 4862.0943,91.90625 4857.7099,88.664702 4856.3656,82.674387 4858.0317,73.84375 4859.6339,65.353451 4859.3605,64.756264 4850.0005,56.53125 4841.449,49.016726 4839.7638,48.246542 4836.563,50.34375 4832.3598,53.097849 4831.6668,52.547505 4832.4067,46.96875 4832.7745,44.197216 4833.5053,40.790939 4834.0317,39.40625 4834.9208,37.067691 4835.3907,36.902549 4840.6567,37.1875 4846.3234,37.494135 4846.3382,37.509028 4847.2193,34.1875 4848.2673,30.236852 4845.5967,23.68824 4842.7193,23.15625 4841.7412,22.975427 4839.3332,24.24986 4837.3755,25.96875 L 4833.813,29.09375 4829.438,25.03125 C 4827.0254,22.80735 4824.9764,21.503993 4822.6567,21.1875 z M 4841.8755,26 C 4843.136,26 4845.3218,32.639862 4844.5005,33.96875 4843.4223,35.713236 4835.9532,34.225905 4836.0317,32.28125 4836.0811,31.061845 4840.7906,26 4841.8755,26 z M 4819.688,30.03125 C 4819.3586,29.887415 4818.4452,30.003543 4816.7193,30.28125 4812.6904,30.929485 4806.0005,34.558473 4806.0005,36.09375 4806.0005,37.456279 4807.1499,37.218062 4811.5005,35 4813.6581,33.9 4815.9529,33 4816.5943,33 4817.2357,33 4818.3706,32.260151 4819.1255,31.34375 4819.7504,30.585168 4820.0174,30.175085 4819.688,30.03125 z M 4819.8755,36.78125 C 4816.1267,36.228908 4809.9551,37.667324 4809.188,39.96875 4808.8436,41.001752 4809.8777,41.144808 4814.0317,40.59375 4817.9176,40.07828 4819.5486,40.228533 4820.1567,41.1875 4821.3193,43.020354 4821.192,51.763623 4820.0005,52.5 4819.4582,52.835158 4817.0816,51.965199 4814.688,50.5625 4812.2945,49.159802 4809.821,48 4809.2193,48 4808.6175,48 4805.4005,51.673197 4802.063,56.15625 L 4796.0005,64.3125 4796.0005,71.96875 C 4796.0005,82.110233 4792.9219,91.573388 4788.8755,93.875 4787.3023,94.769824 4786.004,95.8375 4786.0005,96.25 4785.9795,98.746032 4793.6668,95.214755 4794.8443,92.1875 4797.5063,85.343504 4799.0005,78.084488 4799.0005,71.875 4799.0005,66.388558 4799.447,64.435546 4801.3755,61.59375 4805.1494,56.032676 4808.7669,52 4810.0005,52 4810.6255,52 4813.1799,53.1735 4815.6567,54.625 4820.7183,57.591254 4821.8763,57.157058 4823.7817,51.40625 4824.7247,48.560398 4823.9521,40.329618 4822.5317,38.03125 4822.1176,37.361109 4821.1251,36.965364 4819.8755,36.78125 z M 4809.6255,57.59375 C 4808.9148,57.866462 4806.9406,61.090939 4805.2193,64.78125 4802.2416,71.164998 4801.3377,76.686626 4800.8443,91.65625 4800.7656,94.038269 4803.7169,98.579019 4805.9067,99.46875 4808.1817,100.39308 4808.0726,99.579485 4805.5005,95.9375 4803.3732,92.925487 4803.1791,91.995866 4804.0005,88.5 4804.5175,86.3 4804.9561,81.449534 4804.9693,77.71875 4804.9878,72.478734 4805.5795,69.790192 4807.5317,65.9375 4810.3887,60.299473 4810.7538,60.311788 4817.2817,66.40625 4820.4746,69.387059 4820.9439,70.370367 4820.3755,72.71875 4820.0058,74.246244 4818.027,77.335608 4815.9693,79.59375 4809.5111,86.681004 4809.3778,87.337723 4813.2193,93.8125 4816.716,99.706507 4819.006,101.07487 4821.6567,98.875 4822.8391,97.893677 4823.0627,96.469824 4822.5943,92.9375 4822.0917,89.14965 4822.3651,87.814791 4824.063,85.65625 4826.043,83.139122 4826.2681,83.087004 4829.0005,84.5 4832.9936,86.564916 4833.164,87.117614 4831.5005,92.625 4830.6921,95.301447 4830.2917,98.2875 4830.5943,99.25 4830.8967,100.2125 4831.929,101 4832.9067,101 4835.1503,101 4836.9773,98.883779 4840.3443,92.28125 4844.5213,84.090336 4844.0118,81.890866 4836.7505,76.53125 4834.2176,74.661706 4833.0005,72.973861 4833.0005,71.34375 4833.0005,68.27812 4835.5791,62 4836.8443,62 4837.3723,62 4840.3113,64.3625 4843.3443,67.25 4848.7975,72.441956 4848.8256,72.552025 4848.2817,77.21875 4847.9793,79.814144 4848.2616,83.93663 4848.8755,86.375 4849.7754,89.948464 4849.7013,91.501023 4848.5005,94.375 4846.5742,98.985247 4846.6059,99.344961 4849.0005,98.71875 4850.1005,98.431094 4851.0005,98.601402 4851.0005,99.09375 4851.0005,99.586098 4852.013,99.948452 4853.2505,99.90625 4854.488,99.864048 4856.513,100.14374 4857.7505,100.53125 4860.6637,101.44348 4860.7012,99.616748 4857.813,97.59375 4856.526,96.69234 4854.6757,96.306372 4853.2817,96.65625 4851.0934,97.205509 4850.9525,97.030856 4851.6567,94.375 4852.0754,92.796061 4852.3345,90.6 4852.2193,89.5 4852.1039,88.4 4851.8552,83.73389 4851.688,79.125 L 4851.4067,70.75 4844.6255,64.3125 C 4840.7012,60.576249 4837.1863,58.00126 4836.2193,58.1875 4833.6457,58.683138 4830.0504,65.944149 4830.0317,70.65625 4830.0168,74.427737 4830.4641,75.201879 4835.0005,79 4837.8012,81.344865 4840.0005,84.021531 4840.0005,85.09375 4840.0005,87.099696 4834.9208,97.23285 4834.2505,96.5625 4834.0377,96.349717 4834.3197,94.457824 4834.9067,92.34375 4836.5649,86.372079 4836.3218,85.611467 4831.3755,82.125 L 4826.7193,78.84375 4822.7817,82.6875 C 4818.9302,86.410324 4818.8253,86.637719 4819.4067,91.75 4819.7353,94.6375 4819.8196,97 4819.563,97 4818.8172,97 4814.0005,88.452465 4814.0005,87.125 4814.0005,86.46226 4816.0255,83.739725 4818.5005,81.09375 4822.4725,76.847339 4823.0005,75.743507 4823.0005,71.71875 4823.0005,67.366575 4822.7288,66.937517 4816.9693,62.125 4813.6505,59.351875 4810.3362,57.321037 4809.6255,57.59375 z M 4796.8755,96.21875 C 4796.2337,96.141436 4795.5162,96.349741 4794.5005,96.8125 4790.9649,98.423466 4791.2183,100.7555 4794.8755,100.21875 4796.4603,99.986139 4798.0779,100.33543 4798.4693,100.96875 4798.8607,101.60207 4799.8848,101.98045 4800.7505,101.8125 4802.6638,101.44127 4803.6677,99 4801.9067,99 4801.2166,99 4799.821,98.256015 4798.813,97.34375 4798.0672,96.668807 4797.5173,96.296064 4796.8755,96.21875 z"/>
</svg>
