<svg xmlns="http://www.w3.org/2000/svg"
     width="29.4" height="64.0"
     viewBox="5999.0005 16.0000 39.0000 84.9774">
  <path d="M 6010.6567,20 C 6009.246,20 6003.0005,30.98575 6003.0005,33.46875 6003.0005,34.413593 6003.9501,38.349229 6005.1255,42.21875 6006.9243,48.141045 6007.1745,50.856462 6006.7193,59.375 6006.4218,64.940859 6005.6503,72.472302 6004.9693,76.09375 6004.2881,79.715197 6004.0078,84.258493 6004.3755,86.21875 6005.1479,90.335963 6008.3254,94.781058 6011.3755,96 6013.8212,96.977392 6016.8401,96.347837 6019.0943,94.375 6020.0412,93.546191 6020.6588,93.149177 6021.5317,93.15625 L 6021.5005,93 6023.5005,85.5 6024.7193,80.25 C 6024.3453,79.53967 6024.0091,77.577699 6024.0005,75.5 6023.9915,73.3 6023.3034,68.125 6022.4693,64 6021.6351,59.875 6020.7018,55.095208 6020.3755,53.375 6020.0493,51.654791 6020.3335,47.017148 6021.0005,43.0625 6022.0234,36.998383 6022.4542,35.964249 6023.8443,36.5625 6027.1802,37.998202 6031.0496,38.204094 6032.5005,37 6033.4007,36.252903 6034.0005,34.046509 6034.0005,31.4375 6034.0005,28.106073 6033.4954,26.762737 6031.7817,25.5625 6028.7623,23.447657 6027.6544,23.588129 6024.1567,26.53125 6021.3186,28.919315 6021.0655,28.969758 6019.813,27.28125 6017.8557,24.64281 6012.0297,20 6010.6567,20 z M 6011.9067,24.25 C 6012.6723,24.394147 6014.6119,26.161511 6016.2505,28.1875 L 6019.2505,31.875 6017.9693,41.875 C 6016.854,50.625685 6016.9006,52.588115 6018.313,57.6875 6021.2664,68.350363 6022.1429,79.821327 6020.5005,86 6019.6972,89.021903 6018.2888,92.059403 6017.3443,92.75 6015.1211,94.375589 6013.9075,94.326567 6011.3443,92.53125 6008.9903,90.882527 6006.6667,83.169476 6007.5005,79.75 6010.8516,66.007752 6010.8647,49.221601 6007.5005,39.3125 6006.6808,36.898051 6006.0005,34.240564 6006.0005,33.40625 6006.0005,30.835032 6010.4338,23.972648 6011.9067,24.25 z M 6028.688,28.15625 C 6029.7265,28.543213 6030.5005,29.721814 6030.5005,31.5 6030.5005,35.071623 6028.1302,35.917332 6025.688,33.21875 6024.2757,31.658106 6024.2137,31.065988 6025.313,29.5625 6026.3349,28.165063 6027.6495,27.769287 6028.688,28.15625 z"/>
</svg>
