<svg xmlns="http://www.w3.org/2000/svg"
     width="48.0" height="64.0"
     viewBox="6407.0005 13.3283 69.5137 92.6460">
  <path d="M 6452.0005,98.174887 C 6452.0005,95.400479 6469.9184,65.831201 6471.1415,66.587131 6472.5142,67.435514 6472.2205,68.260841 6468.1253,75.063136 6465.9939,78.603411 6462.4717,84.843169 6460.2981,88.929264 6456.7165,95.662436 6452.0005,100.91718 6452.0005,98.174887 z M 6432.0005,99.232135 C 6432.0005,98.809808 6433.1255,96.808683 6434.5005,94.785188 6435.8755,92.761694 6437.0005,90.915977 6437.0005,90.683594 6437.0005,90.451212 6439.4501,86.264838 6442.444,81.38054 6445.438,76.496243 6450.9183,67.414428 6454.6225,61.198729 6461.3004,49.993056 6463.0005,47.742678 6463.0005,50.108789 6463.0005,51.928368 6454.3524,67.609148 6449.5485,74.5 6447.248,77.8 6443.4116,83.875 6441.0233,88 6434.3932,99.45125 6434.0253,100 6432.9774,100 6432.4401,100 6432.0005,99.654461 6432.0005,99.232135 z M 6415.7819,25.448074 C 6415.0311,24.697268 6417.0752,21 6418.241,21 6419.3757,21 6419.1603,22.399253 6417.7231,24.364755 6417.0205,25.325613 6416.1469,25.813107 6415.7819,25.448074 z M 6412.0005,100.22251 C 6412.0005,99.794885 6412.7241,98.411876 6413.6086,97.149154 6414.493,95.886432 6416.4379,92.523804 6417.9306,89.676648 6423.1578,79.706055 6430.3134,67.409331 6436.9455,57 6445.4401,43.667183 6446.6328,41.689059 6453.6772,29.25 6459.0131,19.827719 6461.0005,17.328282 6461.0005,20.039838 6461.0005,22.358006 6445.4882,49.639794 6439.9851,57 6437.0721,60.896061 6433.6297,66.742198 6428.3354,76.784336 6426.3881,80.477951 6424.2346,84.175 6423.5497,85 6422.8648,85.825 6422.0061,87.175 6421.6415,88 6421.2768,88.825 6420.0971,90.85 6419.0199,92.5 6417.9427,94.15 6416.3611,96.7375 6415.5052,98.25 6414.0508,100.82042 6412.0005,101.97433 6412.0005,100.22251 z M 6411.0005,69.691172 C 6411.0005,68.971316 6412.5755,65.766797 6414.5005,62.570017 6416.4255,59.373238 6418.0005,56.555726 6418.0005,56.308878 6418.0005,55.906409 6425.6338,42.748164 6428.0417,39 6428.5717,38.175 6429.4004,36.6 6429.8834,35.5 6430.5977,33.873038 6438.3613,21.619097 6439.6507,20.083333 6439.8431,19.854167 6440.2325,19.898702 6440.5161,20.182301 6441.0102,20.676405 6432.1245,37.147861 6426.8582,45.5 6425.471,47.7 6421.7506,54.3375 6418.5906,60.25 6413.295,70.158119 6411.0005,73.01226 6411.0005,69.691172 z"/>
</svg>
