<svg xmlns="http://www.w3.org/2000/svg"
     width="26.9" height="64.0"
     viewBox="365.3696 14.9941 37.6304 89.4221">
  <path d="M 372.46875,90.3125 C 373.24485,90.59599 374.00964,91.62867 375.1875,93.625 376.36204,95.61569 378.71184,97.855968 380.40625,98.59375 384.59189,100.41626 385.68607,100.34253 390.71875,97.90625 395.69274,95.498383 399,90.170752 399,84.59375 399,80.209047 397.48407,79.214945 394.6875,81.78125 391.63406,84.58328 386.64744,85.491195 384.75,83.59375 380.55514,79.398897 382.27279,67.190802 388.09375,59.8125 389.69547,57.782251 391,55.486466 391,54.71875 391,53.951034 389.11287,50.712426 386.8125,47.5 383.47238,42.835578 382.53996,40.562643 382.1875,36.3125 381.8205,31.886915 382.02468,31 383.375,31 385.5642,31 388.94068,34.517119 390.1875,38.09375 391.39861,41.567947 393.53196,41.895817 394.375,38.75 396.80973,29.664832 389.92712,19.010822 381.625,19 377.13466,18.994147 371.35834,25.349072 370.46875,31.28125 369.36964,38.610687 370.68264,44.417114 374.5625,49.5 377.98611,53.985178 378.95934,57 376.96875,57 375.20133,57 371.01034,67.248477 371,71.625 370.99532,73.604381 370.65781,74.867712 369.90625,76.09375 L 370,77 372.46875,90.3125 z M 380.75,22 C 383.13781,22 389.01729,25.128892 389.90625,26.875 391.28952,29.592078 392.00266,34.8877 391.0625,35.46875 390.57484,35.770141 389.63837,34.434287 389,32.5 387.58882,28.224094 385.06539,26.653227 381.6875,27.9375 379.83236,28.64282 379.11693,29.793034 378.75,32.6875 378.1281,37.593242 379.70916,42.204782 384.40625,49.28125 L 388.15625,54.9375 385.03125,59.3125 C 375.79798,72.1696 378.74616,89.403486 389.84375,87.40625 391.84753,87.04563 394.0625,86.29563 394.75,85.75 396.32061,84.503496 396.37523,85.661081 394.90625,89.875 394.29662,91.623785 392.60912,93.667639 391.15625,94.40625 383.81526,98.138269 380.8307,97.021784 377.25,89.25 372.19623,78.281003 373.231,65.289403 379.59375,59.65625 381.47432,57.991319 383,56.299377 383,55.875 383,55.450622 381.20544,52.523379 379,49.375 374.21479,42.543894 372.66649,37.443771 373.5625,31.46875 374.24672,26.906005 377.97634,22 380.75,22 z"/>
</svg>
