<svg xmlns="http://www.w3.org/2000/svg"
     width="46.0" height="64.0"
     viewBox="3659.1255 38.3483 46.5494 64.7268">
  <path d="M 3666.3755,83 3663.1255,95.46875 C 3664.4852,95.648341 3666.3997,96.14867 3670.4067,97.28125 3676.7532,99.075044 3679.4509,98.487054 3683.563,94.375 3687.5845,90.35351 3688.9441,90.200483 3691.813,93.5 3694.1645,96.204527 3696.0384,96.587464 3699.063,94.96875 3701.6749,93.570904 3701.594,88.838077 3698.9067,86.40625 3693.8633,81.841939 3692.8645,75.797447 3695.5317,66 3697.5678,58.521502 3697.5818,50.997786 3695.563,47.09375 3693.4165,42.942835 3691.5944,42.348276 3687.3443,44.375 3681.7618,47.0371 3679.7772,52.856423 3679.2817,68 3678.6575,87.077475 3677.0905,90.067352 3670.0943,85.4375 L 3666.3755,83 z M 3690.2505,46.0625 C 3691.532,46.211844 3692.6964,47.401219 3693.6255,49.625 3695.2458,53.503088 3694.9988,56.618921 3692.2817,67.71875 3690.2554,75.997064 3691.1976,81.986476 3695.188,86.53125 3696.9397,88.526325 3697.9568,90.636759 3697.6255,91.5 3696.7691,93.731786 3695.4642,93.336484 3692.6567,90 3689.2742,85.980009 3686.7978,86.220315 3682.3755,91 3678.4636,95.228 3676.5226,95.692814 3670.2193,93.875 3668.2702,93.31292 3666.4787,91.929761 3665.813,90.46875 3664.2829,87.110683 3665.4869,86.273935 3668.938,88.3125 3674.6439,91.683084 3679.0633,89.770926 3680.9693,83.125 3681.4659,81.393176 3681.9345,75.381462 3682.0317,69.75 3682.2312,58.207565 3683.2943,52.769973 3686.1567,48.75 3687.5477,46.796604 3688.969,45.913156 3690.2505,46.0625 z"/>
</svg>
