<svg xmlns="http://www.w3.org/2000/svg"
     width="64.0" height="47.3"
     viewBox="3808.0005 14.6037 123.6946 91.4177">
  <path d="M 3916.0005,92.697252 C 3916.0005,91.512577 3921.1168,87 3922.46,87 3924.2283,87 3922.4576,89.835608 3919.4881,91.759193 3917.0712,93.324794 3916.0005,93.612786 3916.0005,92.697252 z M 3894.7505,26.9487 C 3890.081,20.198464 3891.6894,18.603726 3897.031,24.687523 L 3900.2687,28.375045 3903.6481,24.687523 C 3907.3122,20.689257 3908.0005,20.311221 3908.0005,22.297052 3908.0005,24.07277 3900.7623,31.009012 3898.9583,30.962049 3898.1565,30.941175 3896.263,29.135169 3894.7505,26.9487 z M 3875.0005,34 C 3877.6864,31.314066 3877.5188,29.569592 3874.3768,27.510877 3872.2891,26.143023 3871.2617,26.015584 3869.3487,26.887215 3865.5256,28.629129 3865.2577,30.994816 3868.5822,33.654931 3872.137,36.49937 3872.4826,36.517947 3875.0005,34 z M 3886.2449,89.601872 C 3881.9344,85.707533 3879.4767,85.172616 3876.4416,87.468197 3875.374,88.275705 3872.6038,88.950705 3870.2857,88.968197 3865.375,89.005251 3864.459,87.847631 3862.9531,79.701175 3862.1299,75.248254 3862.2973,73.45041 3863.9945,68.517376 3866.1517,62.247341 3868.4414,59 3870.7051,59 3872.7188,59 3877.481,61.616678 3882.6546,65.565746 3885.1291,67.454586 3887.74,69 3888.4566,69 3890.6319,69 3896.9903,60.368145 3899.6956,53.742481 3901.0975,50.309116 3902.7521,44.289879 3903.3725,40.366397 3904.3954,33.897345 3904.9467,32.756163 3909.2906,28.116397 3913.827,23.270933 3916.0005,21.90032 3916.0005,23.885119 3916.0005,24.371935 3913.9755,27.229987 3911.5005,30.236346 3909.0255,33.242706 3907.0005,36.716947 3907.0005,37.956883 3907.0005,41.574943 3904.0186,52.078687 3901.4524,57.5 3900.1507,60.25 3897.112,64.678128 3894.6998,67.340283 3890.416,72.067935 3890.2286,72.156978 3886.6426,71.166844 3884.6233,70.609296 3881.5738,68.977328 3879.866,67.540248 3874.7906,63.269588 3871.4007,61.812822 3870.1225,63.353033 3866.0974,68.203001 3864.6156,80.577836 3867.5572,84.777494 3869.4764,87.51749 3870.9666,87.558016 3875.7393,85 3880.9366,82.214411 3883.0284,82.476105 3887.7295,86.5 3889.9784,88.425 3892.4542,90 3893.2313,90 3894.0084,90 3896.4119,88.662519 3898.5724,87.02782 3903.2529,83.486329 3904.7801,83.347388 3909.3552,86.046798 L 3912.8243,88.093596 3916.446,84.913717 C 3918.4379,83.164784 3920.3543,82.020499 3920.7047,82.370862 3921.5534,83.219578 3917.1633,87.845072 3913.8946,89.546185 3911.5995,90.74058 3910.841,90.662402 3907.5355,88.890764 L 3903.7823,86.879186 3900.1166,89.419562 C 3898.1004,90.816769 3895.0515,92.239795 3893.3413,92.581841 3890.7223,93.105649 3889.6029,92.635607 3886.2449,89.601872 z M 3846.7505,54.919901 C 3844.2181,53.444941 3844.6028,52 3847.5277,52 3849.9618,52 3850.0367,51.814279 3849.5608,46.958082 3848.9552,40.778513 3848.5381,40.046665 3845.9995,40.710511 3843.4912,41.366454 3843.4198,39.835519 3845.8559,37.630877 3849.5413,34.295636 3853.0005,38.581072 3853.0005,46.481953 3853.0005,54.524714 3850.9123,57.343929 3846.7505,54.919901 z M 3881.3272,59.684814 C 3876.8459,56.014414 3871.4288,52.997222 3869.3825,53.031803 3868.3474,53.049295 3866.627,53.724295 3865.5594,54.531803 3863.1873,56.325947 3859.8386,56.460138 3860.1144,54.75 3860.2252,54.0625 3859.9578,52.675912 3859.52,51.668693 3858.7197,49.827286 3859.4136,37.259075 3860.525,33.465473 3860.9567,31.991826 3860.1031,30.382816 3857.4286,27.628973 3854.1425,24.245328 3853.3574,23.898067 3850.2933,24.472895 3848.3997,24.828137 3844.2967,26.891475 3841.1754,29.058089 3835.9392,32.692828 3832.1408,34.199976 3833.4158,32.136972 3834.0209,31.157905 3845.8432,23.326704 3850.7267,20.670078 L 3853.953,18.915002 3858.4028,23.016715 3862.8526,27.118428 3866.9067,24.559214 C 3871.805,21.467043 3872.751,21.438992 3876.1221,24.285963 3881.8806,29.149116 3881.8802,31.923336 3876.12,37.405031 L 3873.0674,40.310063 3868.9221,37.566847 C 3866.0235,35.648582 3864.4607,35.139821 3863.7254,35.87506 3862.6158,36.984699 3861.3183,53 3862.3381,53 3862.6651,53 3864.4754,52.264298 3866.3611,51.365108 3870.7295,49.281959 3873.1814,49.950338 3879.8578,55.04422 3882.8043,57.292311 3885.8066,58.904647 3886.5296,58.627188 3889.5793,57.456931 3893.2715,48.944058 3893.7737,41.925172 3894.0805,37.638389 3893.8877,35 3893.2678,35 3891.7922,35 3887.0005,27.370813 3887.0005,25.02144 3887.0005,21.745083 3888.2419,22.748299 3892.8764,29.770068 3897.1846,36.297396 3897.243,36.49978 3896.6502,42.848045 3895.7919,52.039468 3890.2025,62 3885.9029,62 3884.941,62 3882.8819,60.958166 3881.3272,59.684814 z M 3817.5005,88.584669 C 3814.3152,86.030677 3814.7511,83.738632 3818.0324,85.787855 3820.9165,87.588999 3822.7921,87.267661 3824.0903,84.75 3825.9983,81.04962 3829.2261,78 3831.2348,78 3832.2719,78 3835.1832,79.575 3837.7043,81.5 3842.9396,85.497437 3844.5051,85.794158 3845.9653,83.065741 3847.8132,79.6129 3847.224,67.358402 3845.0005,63 3842.6149,58.323837 3842.5001,57 3844.4802,57 3849.6729,57 3852.7608,78.797054 3848.4002,84.67083 3845.3743,88.746764 3842.734,88.70876 3837.0099,84.506879 3831.3404,80.345132 3830.5947,80.497994 3826.0663,86.75 3824.3732,89.0875 3822.4283,90.997765 3821.7442,90.995033 3821.0602,90.992301 3819.1505,89.907637 3817.5005,88.584669 z M 3815.4082,93.898048 C 3813.5215,91.813229 3813.5263,91.798965 3815.993,92.148048 3817.3819,92.344586 3818.6274,93.272759 3818.8136,94.25 3819.2644,96.615403 3817.7233,96.456119 3815.4082,93.898048 z M 3815.2505,100.50913 C 3813.463,99.732211 3812.0005,98.399825 3812.0005,97.548274 3812.0005,95.658362 3812.7628,95.649163 3816.0005,97.5 3820.3146,99.966145 3823.1891,99.327619 3827.2626,94.998356 3831.743,90.236677 3834.693,89.896962 3840.5005,93.473914 3846.1391,96.946814 3849.2208,96.699227 3853.9905,92.390114 L 3857.9862,88.780228 3861.5117,91.875665 C 3866.436,96.19932 3869.3086,96.700072 3874.4518,94.131435 3879.927,91.396994 3880.3199,91.424961 3886.6545,95 3893.1246,98.651489 3893.9841,98.679954 3899.5356,95.426589 L 3903.9267,92.853177 3908.3938,95.926589 C 3910.8507,97.616965 3913.7113,99 3914.7507,99 3915.7901,99 3918.5511,97.364599 3920.8863,95.365775 3923.8071,92.865695 3925.4544,92.053904 3926.165,92.764491 3927.6951,94.294596 3917.5875,102 3914.0502,102 3912.5264,102 3909.6218,100.875 3907.5956,99.5 3903.1547,96.486285 3902.914,96.472538 3898.7747,98.996262 3894.3686,101.68265 3891.5181,101.46832 3885.0005,97.96055 3878.4408,94.430125 3878.0361,94.397536 3874.574,97.120878 3871.3521,99.655213 3866.5631,99.248871 3862.0866,96.061329 3858.4113,93.44427 3857.8678,93.471736 3853.4054,96.5 3848.7824,99.637226 3844.6238,99.629424 3839.5005,96.473914 3834.3613,93.308604 3831.4853,93.330531 3829.3751,96.551112 3827.5262,99.37287 3823.0833,102.02139 3820.3002,101.96086 3819.3103,101.93933 3817.038,101.28605 3815.2505,100.50913 z"/>
</svg>
