<svg xmlns="http://www.w3.org/2000/svg"
     width="41.7" height="64.0"
     viewBox="1911.3703 14.6722 58.8290 90.3094">
  <path d="M 1945.9301,96.302782 C 1942.8183,88.845698 1940.7597,85 1939.8797,85 1938.8252,85 1931,93.151279 1931,94.249719 1931,95.318937 1924.7816,97.983084 1923.7599,97.351614 1921.2675,95.811203 1925.5566,84.221537 1930.5717,78.945281 1931.9073,77.540186 1933,75.598102 1933,74.62954 1933,71.78326 1931.0717,69 1929.0997,69 1925.9093,69 1921.8499,64.862183 1918.8785,58.581239 1915.6517,51.760392 1915.3703,49.76748 1917.3967,48.085705 1918.506,47.165098 1919.7923,47.786023 1923.6467,51.10262 1926.316,53.399474 1928.65,55.666007 1928.8333,56.139359 1929.0167,56.612712 1929.7401,57 1930.4409,57 1931.2644,57 1931.9409,54.839706 1932.3535,50.892387 L 1932.9918,44.784773 1928.5275,39.819404 C 1923.8587,34.626501 1922.6346,31.111358 1923.1774,24.455995 1923.4799,20.747021 1923.681,20.519423 1926.398,20.811048 1928.2621,21.011125 1931.2304,22.973315 1934.7181,26.311048 1937.7003,29.164971 1940.4828,31.624682 1940.9013,31.777072 1941.3199,31.929461 1943.7932,29.341961 1946.3976,26.027072 1951.3466,19.727692 1953.4438,18.672236 1954.4861,21.956287 1955.9825,26.671019 1952.374,36.392938 1947.2124,41.552908 1943.6539,45.110258 1942.7159,50.54581 1944.1373,59.371814 1945.1317,65.546738 1947.1373,69 1949.7292,69 1950.5098,69 1953.7717,66.497842 1956.9779,63.439649 1964.9215,55.862745 1966.0809,58.23906 1958.2576,66.062411 1951.6845,72.635462 1947.8719,73.725853 1944.4978,69.997573 1941.9933,67.230121 1940.013,55.828454 1940.7153,48.21943 1941.2147,42.80756 1941.6584,41.724133 1943.923,40.386423 1946.7593,38.710941 1950.3033,33.175725 1951.3733,28.75 1952.3545,24.691077 1950.7032,25.382574 1946,31 1943.6976,33.75 1941.2932,35.990667 1940.6569,35.97926 1940.0206,35.967853 1936.8468,33.267853 1933.604,29.97926 1930.3612,26.690667 1927.2652,24 1926.724,24 1926.1507,24 1925.9494,25.859165 1926.2419,28.453421 1926.7535,32.992924 1930.6219,38.893147 1933.8787,40.101576 1935.2775,40.620605 1935.5,42.816083 1935.5,56.101576 1935.5,70.902126 1935.6049,71.698818 1938.2013,76.620631 1941.2526,82.404734 1942.8072,83.151763 1948.5,81.569488 1951.8231,80.645872 1953.5423,79.077888 1958.6588,72.304362 1962.0462,67.820013 1965.0829,64.416273 1965.4072,64.740495 1966.1993,65.532662 1961.4641,73.56238 1957.3343,78.429999 1954.4918,81.780316 1954,83.122695 1954,87.530775 1954,93.895619 1952.412,98.709146 1949.8619,100.07389 1948.1657,100.98168 1947.6936,100.52886 1945.9301,96.302782 z M 1931.7942,63.829984 C 1932.1387,62.041353 1928.1841,57.586362 1923.6632,54.670097 1920.0861,52.362593 1919.5003,52.955793 1920.9671,57.400272 1923.0453,63.697362 1930.9193,68.373316 1931.7942,63.829984 z M 1932.9069,88.11122 C 1935.1581,85.42239 1937,82.748948 1937,82.170237 1937,78.611806 1930.909,81.307413 1928.5756,85.8985 1924.2969,94.316994 1926.6883,95.538663 1932.9069,88.11122 z M 1950.393,94.418213 C 1950.7269,93.548229 1951,91.073229 1951,88.918213 1951,85.430715 1950.7317,85 1948.559,85 1945.1417,85 1944.874,85.960269 1946.7988,91.31287 1948.5839,96.277139 1949.4068,96.98814 1950.393,94.418213 z"/>
</svg>
