<svg xmlns="http://www.w3.org/2000/svg"
     width="42.2" height="64.0"
     viewBox="3297.2335 14.6482 61.3330 93.0617">
  <path d="M 3303.5662,101.07263 C 3301.2479,98.510916 3301.2335,91.585792 3303.5359,86.5 3304.8338,83.633241 3305.3831,79.808554 3305.4748,73 3305.5713,65.836546 3306.0725,62.564429 3307.5126,59.696127 3309.0545,56.624924 3309.1886,55.56556 3308.209,54.196127 3305.2653,50.081 3304.5455,46.983109 3304.5236,38.336142 3304.5019,29.721924 3304.6831,28.91252 3307.5444,24.841389 3309.2185,22.459397 3311.4059,20.353017 3312.4054,20.160546 3314.075,19.839009 3314.1651,20.382083 3313.5156,26.849685 3312.7756,34.218634 3313.8861,39.83022 3316.5164,42.0132 3317.6257,42.933792 3318.5629,42.73571 3320.8696,41.093192 3322.4864,39.941937 3324.3119,39 3324.9263,39 3325.5407,39 3326.5767,37.7625 3327.2286,36.25 3331.0088,27.478955 3340.1008,18.648196 3342.6649,21.257221 3343.6278,22.237014 3343.4821,23.663861 3341.976,28 3339.9447,33.848594 3339.5109,43.796285 3340.9148,52.337145 3341.4799,55.774829 3341.3678,57.305544 3340.5276,57.627959 3338.8101,58.287053 3334.1632,56.314698 3330.8344,53.513654 3329.246,52.177097 3327.3251,51.321947 3326.5658,51.61332 3324.3322,52.47041 3320.7697,61.993074 3320.7697,67.106272 3320.7697,74.457151 3326.8526,84.44553 3330.105,82.435396 3330.6133,82.121295 3331.9408,80.077182 3333.0551,77.892923 3334.9757,74.128354 3340.5368,69.595375 3342.0712,70.543716 3342.4629,70.785751 3342.7678,74.24993 3342.749,78.24189 3342.7126,85.939108 3344.5133,91.681821 3348.2229,95.699119 3354.5665,102.56904 3342.1686,102.52647 3333.9967,95.65027 3331.7443,93.755014 3329.4871,93.126232 3322.8605,92.548191 3313.6669,91.74622 3313.0236,92.080853 3308.797,99.863314 3306.8164,103.51024 3305.9529,103.70988 3303.5662,101.07263 z M 3309.3217,93.530758 C 3312.0969,89.138033 3312.1132,89.024238 3310.3217,86.56397 3308.0268,83.412305 3307.5901,83.410529 3306.161,86.547053 3304.8768,89.365499 3304.5673,98.001033 3305.7505,97.998212 3306.163,97.997228 3307.7701,95.986874 3309.3217,93.530758 z M 3313.5567,48.327041 3315.6881,45.654082 3313.3572,41.577041 C 3312.0752,39.334668 3310.7282,35.292393 3310.3639,32.594207 3309.7661,28.166546 3309.5699,27.86842 3308.351,29.535337 3306.4956,32.072773 3306.6434,42.067155 3308.6091,46.979764 3309.4938,49.190894 3310.4894,51 3310.8215,51 3311.1536,51 3312.3845,49.797168 3313.5567,48.327041 z M 3344.0005,95.95034 C 3344.0005,95.373027 3343.3357,93.615173 3342.5233,92.043997 3341.7108,90.472821 3340.4869,86.239909 3339.8035,82.637524 3338.6451,76.530897 3338.4444,76.193273 3336.8374,77.64756 3335.8895,78.505463 3334.8282,80.508042 3334.479,82.097735 3333.5504,86.325604 3331.277,87.181725 3326.9035,84.950528 3322.9603,82.93886 3318.7222,76.722731 3317.5326,71.205856 3316.2479,65.248575 3320.1688,53.831718 3325.2414,48.759075 3327.5368,46.463745 3327.6509,46.485828 3331.6533,50 3333.5325,51.65 3335.4768,53 3335.9739,53 3336.471,53 3336.8859,49.296715 3336.8959,44.770477 3336.9058,40.24424 3337.2075,34.05674 3337.5664,31.020477 3338.2,25.65968 3338.165,25.551541 3336.3597,27.281892 3335.3371,28.261932 3333.1406,31.63562 3331.4785,34.778976 3329.578,38.373123 3327.386,41.007195 3325.5722,41.876526 3320.6002,44.259547 3313.6717,52.438166 3310.7505,59.372463 3307.1454,67.930107 3307.0625,74.723721 3310.4917,80.575115 3313.7264,86.094768 3318.0359,88.599291 3325.7184,89.424312 3330.4555,89.93303 3333.1586,90.914605 3337.0689,93.546025 3342.439,97.159835 3344.0005,97.701464 3344.0005,95.95034 z"/>
</svg>
