<svg xmlns="http://www.w3.org/2000/svg"
     width="45.2" height="64.0"
     viewBox="3506.1880 18.0000 62.8125 89.0000">
  <path d="M 3514.3755,82.5 3514.0005,83 3510.188,97.34375 C 3510.889,97.238207 3511.5147,97.489634 3512.4067,98.0625 3513.5593,98.802674 3516.0654,100.19842 3517.9693,101.1875 3519.8731,102.17659 3523.4469,103 3525.9067,103 3529.9686,103 3530.8107,102.54249 3535.2193,97.96875 3537.8889,95.198959 3541.5309,89.911459 3543.313,86.21875 3547.0093,78.559298 3549.2216,77.479614 3552.9693,81.46875 3556.1235,84.826284 3557.6139,84.664297 3560.0005,80.75 3562.6552,76.395912 3562.5444,75.444039 3558.7505,71 3556.963,68.906173 3554.1505,64.562354 3552.5005,61.34375 3549.9208,56.311592 3549.5005,54.389816 3549.5005,47.65625 3549.5005,38.644573 3550.9609,36.529137 3556.4693,37.5625 3560.2384,38.269616 3565.0005,34.978307 3565.0005,31.65625 3565.0005,28.617496 3562.2898,25 3560.0005,25 3557.5752,25 3553.0005,27.059685 3553.0005,28.15625 3553.0005,30.191938 3549.8811,28.703115 3547.438,25.5 3545.9697,23.575 3544.0019,22 3543.063,22 3540.9577,22 3537.8542,25.262446 3535.188,30.3125 L 3533.188,34.15625 3535.2193,38.71875 C 3536.6431,41.937661 3537.3845,46.359405 3537.7505,53.53125 3538.1937,62.215341 3537.9559,64.830306 3536.063,71.0625 3533.7507,78.675165 3529.2354,86.301532 3526.438,87.375 3523.1489,88.637121 3520.3447,87.909451 3516.6255,84.84375 3515.4644,83.886713 3514.9223,83.195291 3514.3755,82.5 z M 3542.438,26.21875 C 3543.4813,26.072399 3544.5869,27.033396 3546.0317,29.0625 3547.8381,31.599437 3548.0151,32.562383 3547.1255,34.8125 3546.5378,36.299007 3545.9968,40.65 3545.9067,44.5 3545.6954,53.539948 3548.6261,62.771574 3553.9693,69.78125 3559.8828,77.539138 3559.2954,82.136048 3552.9693,77.46875 3551.1303,76.112023 3548.8771,75 3547.9693,75 3545.7936,75 3542.8931,78.293183 3541.5005,82.34375 3539.9142,86.957951 3533.1489,96.839216 3530.688,98.15625 3526.3834,100.46 3522.6074,100.19889 3516.9693,97.15625 3512.4879,94.737791 3511.554,93.771726 3511.7817,91.875 3512.2151,88.267395 3513.4422,87.741831 3517.5005,89.4375 3522.8373,91.667345 3526.4017,91.391797 3529.8755,88.46875 3536.2844,83.075988 3540.6699,71.864216 3541.3443,59.25 3541.7664,51.354162 3541.1557,46.662535 3538.563,38.25 3537.3877,34.436535 3537.4419,33.59227 3539.2193,30 3540.4058,27.601767 3541.3947,26.365101 3542.438,26.21875 z M 3558.438,27.53125 C 3561.4379,27.176882 3563.4427,31.182742 3560.813,33.8125 3559.42,35.205473 3556.1076,35.361233 3554.1567,34.125 3552.4406,33.037509 3554.0917,29.57565 3557.0943,27.96875 3557.5527,27.723395 3558.0094,27.581874 3558.438,27.53125 z"/>
</svg>
