<svg xmlns="http://www.w3.org/2000/svg"
     width="64.0" height="55.0"
     viewBox="4605.7127 60.4915 53.5181 46.0082">
  <path d="M 4610.0943,86.875 4611.5005,98.5 4611.6255,99.46875 C 4612.5222,99.562951 4613.8301,99.913738 4615.6567,100.5625 4620.1002,102.14073 4621.4248,102.23619 4626.2505,101.15625 4629.2852,100.47712 4632.5594,99.04321 4633.5317,97.96875 4635.7989,95.463527 4638.1993,95.466064 4639.7817,98 4642.5918,102.4997 4648.9151,98.523248 4646.938,93.5 4645.436,89.683908 4646.0072,87.26034 4649.5943,82.5625 4654.0232,76.762093 4655.2308,70.661751 4652.3755,68.5 4647.0808,64.491458 4639.2072,69.647066 4634.0943,80.46875 4629.3511,90.507643 4625.5244,92.43052 4615.3755,89.875 4612.9549,89.265487 4611.4632,88.25467 4610.0943,86.875 z M 4648.1255,70 C 4650.702,70 4651.0005,70.325409 4651.0005,73.3125 4651.0005,75.702571 4649.9501,77.873865 4647.2505,81.03125 4643.8058,85.059992 4643.524,85.896409 4643.6255,91.21875 4643.6863,94.405524 4643.3886,97 4643.0005,97 4642.6125,97 4641.496,96.1 4640.5005,95 4638.1136,92.362538 4636.3572,92.478329 4631.9067,95.5625 4627.3047,98.751693 4618.8567,99.661661 4614.7505,97.40625 4609.7127,94.639109 4611.3192,93.385286 4619.9067,93.4375 4627.0002,93.480629 4628.0916,93.240865 4630.5005,91 4631.9786,89.625 4634.6933,85.575344 4636.5005,82 4640.6214,73.847195 4644.3322,70 4648.1255,70 z"/>
</svg>
