<svg xmlns="http://www.w3.org/2000/svg"
     width="57.4" height="64.0"
     viewBox="1404.2188 13.6664 79.9062 89.0648">
  <path d="M 1473.75,18 C 1472.2409,18.111207 1470.4126,18.640733 1468.2812,19.53125 1465.6762,20.619753 1464.9484,21.35473 1465.7188,22.125 1466.4891,22.895271 1467.8332,22.816713 1470.4375,21.875 1476.3959,19.720412 1477.5404,21.178614 1477.2812,30.625 1476.9101,44.147208 1471.931,59.129602 1466.0312,64.46875 1463.792,66.495261 1459.5769,66.231793 1453.8438,63.6875 1450.3674,62.144739 1450.0688,62.146885 1447.5938,64.09375 1443.6896,67.164839 1444.0184,72.626514 1448.5,79.28125 1450.425,82.139711 1452,85.269228 1452,86.25 1452,88.851492 1447.2388,96 1445.5,96 1443.6741,96 1443.6614,96.056628 1445.5,91.65625 1446.325,89.681747 1447,87.214905 1447,86.1875 1447,83.882473 1440.1976,75 1438.4375,75 1437.7322,75 1435.7688,76.75178 1434.0625,78.90625 1431.1697,82.558717 1431.0151,83.217686 1431.5625,88.65625 1432.1137,94.133921 1432.0421,94.378236 1430.5312,92.5 1429.6465,91.4 1427.9925,89.443606 1426.875,88.15625 1424.5888,85.522749 1424.6518,85.376884 1429.5,78.65625 1431.428,75.983695 1433,72.800344 1433,71.59375 1433,69.006106 1427.3784,61 1425.5625,61 1424.8712,61 1422.3298,63.345591 1419.9062,66.21875 L 1415.5,71.4375 1415.2188,80.46875 C 1414.9588,88.731053 1415.0646,89.339375 1416.4688,87.5625 1417.508,86.247545 1418,83.403648 1418,78.78125 1418,72.377996 1418.2117,71.755235 1421.4688,68.25 L 1424.9375,64.5 1427.4375,67.5 C 1428.8088,69.15 1429.9491,71.119352 1429.9688,71.875 1429.9886,72.630649 1428.2,75.955474 1426,79.25 1421.3976,86.142219 1421.2294,87.001563 1424.0938,89.59375 1425.25,90.640195 1426.8558,92.76461 1427.6562,94.3125 1429.9413,98.731216 1433.244,97.654848 1434.4062,92.125 1435.0204,89.203037 1434.9674,87.211379 1434.25,86.0625 1433.428,84.74637 1433.6519,83.581582 1435.1875,81.15625 1437.5734,77.388018 1438.0198,77.321049 1440.6875,80.25 1444.6656,84.617569 1445.1525,86.509419 1443.4688,91.46875 1442.6147,93.984455 1442.167,96.492371 1442.5,97.03125 1442.833,97.570128 1444.4089,98 1446,98 1448.2851,98 1449.5067,97.106994 1451.7812,93.75 1456.2689,87.126851 1456.3283,86.332804 1452.9375,80.40625 1451.2479,77.453159 1449.4538,74.787832 1448.9375,74.46875 1447.6198,73.654376 1447.7746,68.631657 1449.1562,67.25 1450.0213,66.384993 1450.9845,66.455582 1453.125,67.5625 1454.6885,68.37101 1457.982,69.14313 1460.4375,69.25 1463.9477,69.402768 1465.4489,68.928755 1467.4688,67.03125 1474.5262,60.401084 1480.125,43.341506 1480.125,28.4375 1480.125,20.94907 1478.2772,17.666379 1473.75,18 z M 1434.6875,19 C 1433.9587,19 1425.0049,25.165067 1420.6562,28.65625 1419.1875,29.835406 1418,31.285227 1418,31.90625 1418,33.152982 1420.9132,31.508951 1427.9062,26.28125 1430.3229,24.474699 1433.0282,23 1433.9375,23 1434.8467,23 1437.3526,24.800846 1439.5,27 1443.2381,30.828153 1443.3378,31.131481 1442.1875,34.3125 1441.5268,36.139895 1441,41.931394 1441,47.1875 1441,58.093498 1442.0538,60.210538 1446.5625,58.15625 1450.2561,56.473298 1451.8791,56.716196 1455.1875,59.5 1456.8216,60.875 1458.8497,62 1459.6875,62 1461.9923,62 1467.7915,55.702557 1468.5312,52.40625 1468.8903,50.80633 1469.8203,48.076871 1470.5938,46.34375 1471.3672,44.610629 1472,41.1439 1472,38.625 1472,34.574942 1471.7089,33.960634 1469.5,33.40625 1466.665,32.6947 1464,33.433307 1464,34.9375 1464,35.494283 1465.125,36.248647 1466.5,36.59375 1469.5881,37.368821 1469.65,39.038406 1466.9375,47.96875 1464.9972,54.356758 1462.0817,59 1460,59 1459.4906,59 1457.446,57.579817 1455.4688,55.84375 1451.928,52.73497 1451.8186,52.713591 1448.5312,54.28125 1446.6953,55.156693 1444.9248,55.612294 1444.5938,55.28125 1443.6548,54.342395 1443.9283,37.669022 1444.9062,36.125 1445.3864,35.367036 1446.3207,35.068286 1446.9688,35.46875 1449.4855,37.024125 1455.1734,36.211368 1457.5938,33.9375 1460.4175,31.284787 1460.673,28.417588 1458.3438,25.84375 1456.294,23.578776 1453.1083,23.487066 1448.625,25.625 L 1445.1875,27.28125 1440.2812,23.125 C 1437.581,20.848105 1435.0588,19 1434.6875,19 z M 1469,27 C 1466.1111,27 1465,27.416667 1465,28.5 1465,30.050661 1468.4407,30.544279 1471.4062,29.40625 1474.3182,28.288812 1473.0412,27 1469,27 z M 1453.4688,27.125 C 1454.4888,27.04317 1455.1816,27.538765 1456.0312,28.5625 1457.0856,29.833027 1457.0653,30.337204 1455.9062,31.4375 1453.6411,33.587934 1450.7003,34.014278 1448.0625,32.5625 L 1445.5938,31.21875 1449.0625,29.125 C 1451.125,27.867653 1452.4487,27.20683 1453.4688,27.125 z M 1431.9375,28 C 1430.4478,28 1419,36.903107 1419,38.0625 1419,39.790637 1420.7579,39.032726 1426.125,35 1429.0529,32.8 1431.7915,31 1432.2188,31 1432.6461,31 1433,30.325 1433,29.5 1433,28.675 1432.5293,28 1431.9375,28 z M 1430.5312,35.34375 C 1428.2908,36.203503 1420.16,42.450601 1419.5938,43.75 1418.6245,45.97426 1421.6235,45.074315 1425.5312,41.96875 1427.6267,40.30353 1429.6511,39.29103 1430.0312,39.71875 1431.3426,41.194217 1433,47.31485 1433,50.6875 1433,54.875964 1431.4981,55.530989 1426.5625,53.46875 L 1422.7188,51.84375 1415.4688,59.25 1408.2188,66.65625 1408.3438,78.3125 C 1408.4248,84.733414 1408.8256,89.998146 1409.2188,90 1411.2829,90.009736 1412.2007,85.139969 1411.7188,76.65625 L 1411.1875,67.59375 1417.0312,61.5625 C 1422.8316,55.561243 1422.8695,55.558829 1426.25,56.78125 1433.1269,59.267954 1436,57.400406 1436,50.46875 1436,44.903757 1432.3015,34.664397 1430.5312,35.34375 z"/>
</svg>
