<svg xmlns="http://www.w3.org/2000/svg"
     width="64.0" height="58.2"
     viewBox="840.5046 15.8217 98.5194 89.6140">
  <path d="M 912.2789,34.458663 C 910.76108,31.275764 910.73741,30.498738 912.04508,26.781702 912.84528,24.507108 914.13421,22.439307 914.90935,22.186588 915.95358,21.846138 916.11124,22.215816 915.51792,23.61355 913.85293,27.535887 913.80589,31.054813 915.38622,33.4667 917.40563,36.548703 917.43687,38 915.48382,38 914.64992,38 913.20771,36.406399 912.2789,34.458663 z M 864.11705,98.641031 C 862.62055,96.837869 865.07727,89.763827 868.85439,85 872.7682,80.063763 871.68065,75.127033 865.38468,69.25 860.23426,64.442285 859.89406,64.330395 857.78349,66.75 854.80509,70.164497 854.21332,72.636524 853.53437,84.5 852.65535,99.859552 851.35609,101.43575 846.78982,92.682151 844.9659,89.185658 844.59936,86.778539 844.55411,78 844.50458,68.389448 844.73593,67.052222 847.28512,62.213947 848.86634,59.21284 851.4599,56.080574 853.28512,54.967685 856.59347,52.950482 862.46207,52.320586 863.4254,53.879293 863.72429,54.362905 864.87585,54.995776 865.98442,55.285674 867.83718,55.770184 868,55.335653 868,49.90638 868,45.399092 867.55239,43.585463 866.11039,42.25 857.34175,34.129223 857,33.683775 857,30.375332 857,28.113414 857.92035,26.001501 859.84459,23.847904 862.18729,21.22597 863.37824,20.687946 866.59459,20.798527 869.69604,20.905158 871.17672,21.66558 873.78732,24.492433 L 877.07463,28.052067 882.78732,24.717441 C 890.38068,20.285018 891.79842,19.821749 894.06209,21.03323 898.44275,23.377686 900.29697,31.981064 897.90217,38.850777 896.48063,42.928636 894.76679,42.839026 892.4659,38.566534 890.01669,34.018629 887.55885,33.487955 884.44099,36.833866 881.24326,40.265479 879.65463,46.211214 880.47456,51.678898 881.16724,56.298032 882.05858,56.75312 886,54.5 889.69278,52.389019 891.35998,52.671832 894.84258,56 896.56915,57.65 898.63816,59 899.44037,59 900.86884,59 909.07159,48.237686 910.32723,44.716017 910.73482,43.572886 909.89223,41.453445 907.98166,38.815979 904.82127,34.453199 904.11718,29.452204 905.97525,24.5651 907.2325,21.258281 910.55426,20.964321 909.5359,24.25 907.22071,31.719802 907.65773,34.406962 911.95247,39.1091 L 914.89511,42.330882 911.69755,48.23675 C 907.57723,55.846968 901.36773,63 898.88168,63 897.81009,63 895.33594,61.402611 893.38358,59.450247 L 889.83383,55.900493 886.24791,58.016237 C 880.56749,61.367765 878.29202,60.18539 877.44981,53.444595 876.50954,45.918955 877.4166,41.290944 880.76582,36.525591 884.61024,31.055644 888.05918,29.928307 892.01093,32.849961 894.53927,34.719239 895.12473,34.838535 895.60666,33.582638 896.40396,31.504923 894.1134,24.980747 892.34893,24.303655 891.55157,23.997678 887.78407,25.379183 883.97671,27.373666 880.16936,29.36815 876.45039,31 875.71234,31 874.97429,31 873.61275,29.411133 872.6867,27.469185 870.7164,23.337421 868.76708,22.344148 865.13531,23.621373 861.54287,24.884768 859.50668,29.209698 861.10141,32.18949 862.54448,34.88588 865.73196,37.747211 868.6621,38.97655 870.50605,39.75018 870.87392,40.839922 871.1621,46.382364 871.49882,52.858473 870.83121,59.502119 869.73339,60.59994 869.41557,60.91776 867.44108,60.01279 865.34564,58.588897 863.25019,57.165004 860.34255,56 858.88423,56 855.34053,56 849.47615,62.53152 847.93636,68.193325 846.58139,73.175521 847.34998,87.356637 849.2097,91.687638 850.27713,94.173505 850.4864,93.164931 851.01229,83 851.65327,70.610451 852.91755,66.783219 857.58109,63.114878 859.93599,61.262507 860.4711,61.194404 862.85106,62.444161 868.23228,65.269921 872.83109,71.222713 874.45156,77.460099 876.42241,85.046093 876.47298,84.662297 873.30045,86.195434 870.48561,87.555717 866.29053,93.623863 867.39879,94.732128 867.74965,95.082983 869.76103,93.686292 871.86854,91.628369 875.0412,88.530347 876.16296,88.002796 878.38951,88.561624 879.86853,88.932836 882.23602,90.753946 883.65058,92.608534 885.06514,94.463122 886.64879,95.717057 887.1698,95.395056 888.61667,94.500845 887.06675,88.88053 884.39049,85.316722 881.21565,81.088966 881.37634,77.567507 885.08254,70.150731 889.01546,62.280276 890.72418,61.308478 895.94595,63.972424 898.13185,65.087591 900.83875,66 901.96127,66 904.9624,66 910.8263,59.431359 916.50267,49.710961 920.78419,42.379156 921.98697,41.032983 924.89972,40.312889 928.33448,39.46374 931.03223,36.6989 929.71312,35.37979 929.31925,34.985915 927.86046,35.271906 926.47136,36.015327 924.66672,36.981139 923.16844,37.095216 921.22287,36.414936 918.90061,35.602949 918.45377,34.820028 918.18577,31.093614 917.87135,26.721813 919.50873,21 921.07421,21 921.53157,21 921.64024,23.242006 921.3157,25.982236 920.91942,29.328162 921.14418,31.4688 922.00004,32.500047 923.13663,33.86956 923.65001,33.814039 926.74721,31.986644 929.43264,30.402203 930.53511,30.199209 931.60998,31.091278 935.02397,33.924638 931.87093,42.430164 927.01089,43.497607 924.56579,44.034643 922.74924,46.038986 917.51995,53.969737 910.83401,64.109658 906.13645,69 903.08221,69 902.11182,69 899.10884,68.329871 896.40893,67.510824 893.70902,66.691778 891.39315,66.016778 891.26254,66.010824 891.13194,66.004871 889.89444,67.791058 888.51254,69.980128 885.27226,75.113064 885.30095,79.871846 888.61297,86.641376 890.58225,90.666433 891.06824,92.822725 890.58577,95.394496 889.6102,100.59474 887.21765,100.79457 882.70574,96.052679 880.58488,93.823706 878.01852,92 877.00273,92 875.98695,92 873.61511,93.8 871.732,96 868.15155,100.18294 866.01243,100.92483 864.11705,98.641031 z"/>
</svg>
