<svg xmlns="http://www.w3.org/2000/svg"
     width="38.7" height="64.0"
     viewBox="400.8731 15.0000 55.6345 91.9929">
  <path d="M 434.75769,95.017967 C 431.80271,90.498877 429,88.519636 429,90.951959 429,91.475537 427.03455,93.256187 424.63232,94.908959 420.8712,97.496677 420.01624,97.732364 418.47597,96.606084 417.00657,95.531638 416.80421,94.445113 417.3423,90.519285 417.70256,87.8909 418.90327,84.274547 420.01054,82.482946 423.52233,76.800758 420.36346,74.162657 414.24946,77.671616 404.87309,83.052914 406.54872,70.361971 416.1622,63.184841 418.82299,61.198378 421.01074,59.331645 421.02386,59.036545 421.03698,58.741445 421.44985,56.766981 421.94136,54.648847 422.80999,50.905504 422.69597,50.66508 417.86826,46.060425 412.35113,40.798198 410,35.076563 410,26.912498 410,22.097558 411.75481,19 414.48253,19 416.24676,19 420.05404,23.603187 424.01314,30.522963 428.11793,37.697391 429.79836,37.510196 436.55547,29.125783 442.19131,22.13268 444.31467,20.523035 446.69753,21.437426 447.95497,21.919951 448.15543,23.039863 447.6891,26.97722 446.94483,33.261448 442.86291,41.608619 437.41023,47.996586 433.90879,52.098636 433.02085,53.984982 432.45336,58.52699 431.70746,64.49696 432.34685,69.50808 434.12838,71.654692 436.11723,74.051111 439.33171,73.090871 443.71215,68.791792 449.19576,63.41003 449.51286,66.028497 444.08899,71.903606 440.80094,75.465211 439.66189,76.089022 436.93786,75.819996 430.49749,75.183941 427.54084,66.345697 429.9256,54.858376 430.8222,50.539496 431.91558,48.544513 434.97481,45.645595 439.08909,41.746915 443.52979,33.723571 444.61273,28.232039 445.51433,23.660103 443.52327,24.727136 438.5,31.50793 436.3,34.477657 433.06007,37.693435 431.30017,38.654104 428.2189,40.336052 428.02042,40.328504 425.94376,38.450388 424.75764,37.377674 422.95657,34.872589 421.94139,32.88353 419.44982,28.001781 415.02653,22.865568 413.90885,23.556334 412.70503,24.300336 412.75067,30.643838 413.99096,34.968465 414.55188,36.924286 417.35825,40.827048 420.45786,43.961863 L 425.93381,49.5 424.5172,58.236926 C 422.04153,73.505668 424.98631,82.19023 433.60371,85.034229 438.97244,86.806068 443.6462,83.386436 448.38766,74.217304 449.32129,72.411821 450.51601,71.200879 451.04259,71.526321 452.50754,72.431711 452.27057,73.168327 448.5,79.429983 445.704,84.073205 445,86.279464 445,90.398648 445,100.7255 439.97242,102.99295 434.75769,95.017967 z M 416.25,74.044124 C 419.7776,72.683974 420,72.343258 420,68.299112 420,65.9346 419.75917,64 419.46482,64 417.91616,64 413.71354,67.653268 412.44889,70.09884 410.90685,73.080817 410.50309,76.390819 411.75,75.828345 412.1625,75.642269 414.1875,74.839369 416.25,74.044124 z M 425.48349,90.017232 C 428.26856,87.110242 428.29479,86.983215 426.51559,85.017232 423.1343,81.280945 421.07375,83.057024 420.58409,90.129863 420.32961,93.805528 421.88841,93.769693 425.48349,90.017232 z M 441.39301,94.418213 C 443.2626,89.546146 441.62829,87.054202 437.58179,88.606989 435.58208,89.374347 435.58929,90.443545 437.61501,93.535183 439.48684,96.39195 440.54106,96.638354 441.39301,94.418213 z"/>
</svg>
