<svg xmlns="http://www.w3.org/2000/svg"
     width="31.7" height="64.0"
     viewBox="6236.8844 17.6481 42.8042 86.3336">
  <path d="M 6269.0943,51.25 C 6270.9216,50.712231 6272.0519,52.8793 6271.7505,57.5 6271.5438,60.66892 6271.0662,61.548319 6269.438,61.78125 6268.3077,61.942961 6266.5431,61.15209 6265.5005,60 6263.7211,58.03384 6263.6857,57.721158 6265.2193,55.1875 6266.6342,52.849951 6267.9978,51.572661 6269.0943,51.25 z M 6267.6255,46.75 C 6267.3615,47.834946 6266.7153,48.813618 6265.5005,50.40625 6260.5359,56.915141 6258.0005,54.320238 6258.0005,42.71875 6258.0005,38.645005 6258.6644,33.142998 6259.4693,30.46875 6260.2741,27.794502 6260.702,25.388997 6260.438,25.125 6259.3613,24.048356 6257.7023,27.149745 6256.4067,32.65625 6253.9946,42.908699 6254.8941,55.069963 6258.2193,57.125 6259.3788,57.841638 6258.1076,60.870466 6253.4067,68.5 6251.4631,71.654627 6251.0458,73.322001 6251.5005,76.4375 6251.8176,78.610212 6252.4926,80.860212 6252.9693,81.4375 6254.4309,83.207749 6255.2571,89.732663 6254.2505,91.53125 6253.4753,92.916461 6252.627,91.855056 6249.6567,85.84375 6245.1939,76.811619 6244.9445,71.930161 6248.563,64.28125 6250.6603,59.847974 6251.4638,59.023692 6253.063,59.53125 6255.4579,60.291355 6255.6071,58.414229 6253.5005,54.375 6251.522,50.581547 6251.5449,37.190358 6253.5317,29.5625 6255.248,22.973401 6254.9327,21.648141 6252.5317,25.3125 6250.2703,28.764053 6248.6627,40.078833 6249.2193,48.75 6249.4753,52.74167 6249.5334,56 6249.313,56 6248.4256,56 6246.1122,49.129786 6245.063,43.34375 6244.0138,37.557781 6244.5025,32.025833 6246.563,26.65625 6246.9978,25.523122 6246.6845,25 6245.5943,25 6244.7104,25 6244.0005,25.112294 6244.0005,25.25 6244.0005,25.387705 6243.3507,28.579161 6242.563,32.34375 6240.8844,40.366561 6241.7392,47.881749 6245.1255,55.1875 L 6247.2817,59.875 6244.5943,65.59375 C 6241.2779,72.597861 6241.6452,76.445414 6246.5943,86.34375 6248.4723,90.10005 6250.0005,93.9288 6250.0005,94.875 6250.0005,95.8212 6250.5432,97.167697 6251.2193,97.84375 6253.3573,99.981764 6255.2456,98.645496 6256.6567,94 6258.1372,89.126014 6257.6586,83.472234 6255.4067,79.15625 6253.3719,75.256309 6253.7021,73.071189 6257.063,67.71875 6260.9271,61.564811 6262.3908,61.045554 6266.0943,64.59375 6269.6106,67.96269 6271.5372,67.33521 6274.188,61.9375 6275.5675,59.128435 6275.6886,57.684189 6274.8443,54 6274.4052,52.084202 6274.2843,50.520679 6274.0317,48.78125 L 6267.6255,46.75 z"/>
</svg>
