<svg xmlns="http://www.w3.org/2000/svg"
     width="30.5" height="64.0"
     viewBox="3775.0264 14.3648 44.5181 93.3658">
  <path d="M 3794.6594,100.94635 C 3790.5259,97.694886 3789.625,92.886075 3790.6148,79.356021 3791.8927,61.886632 3790.9943,57.027401 3787.4786,62.393098 3785.4554,65.480856 3782.9705,65.729281 3780.5758,63.083187 3779.086,61.436973 3779.0264,60.836995 3780.1539,58.833187 3780.8836,57.536456 3781.7291,51.613543 3782.0572,45.5 3782.7213,33.129387 3785.1998,26.53438 3791.0281,21.630261 3794.8019,18.454791 3796.2997,18.364821 3800.1188,21.084215 3804.8189,24.430991 3807.0005,29.832335 3807.0005,38.122304 3807.0005,43.979589 3807.4623,46.11234 3809.474,49.544982 3810.8344,51.866366 3812.6344,54.029278 3813.474,54.351455 3815.1826,55.007105 3815.5445,58.545776 3814.0005,59.5 3813.4505,59.839919 3813.0005,59.606861 3813.0005,58.982094 3813.0005,58.357327 3811.7168,56.562471 3810.1479,54.993525 3805.6667,50.51236 3804.0005,45.996703 3804.0005,38.333269 3804.0005,30.510373 3801.89,25.412778 3797.6523,23 3794.1759,21.020706 3792.5165,22.12937 3788.5933,29.052181 3785.7637,34.045448 3785.4913,35.335683 3785.3291,44.515686 3785.2259,50.357924 3784.5264,56.347573 3783.6504,58.889996 L 3782.1488,63.248619 3785.3722,60.12431 C 3790.3483,55.301354 3791.7448,55.918265 3794.3067,64.071078 3794.5783,64.935171 3794.1807,70.335171 3793.4233,76.071078 3791.872,87.819331 3792.2691,92.056983 3795.3608,96.743167 3798.629,101.6969 3801.8534,100.98971 3804.4617,94.747073 3806.5472,89.755706 3806.3967,83.06424 3804.0606,76.916159 3798.7349,62.899833 3801.77,50.314918 3808.7844,57.329351 3811.7877,60.332661 3811.1444,61.842226 3807.5577,60.207995 3805.4373,59.241891 3805.0189,59.366699 3804.4584,61.132494 3803.6804,63.583975 3804.4635,68.306201 3807.0659,76.855335 3810.1863,87.10622 3809.1408,95.013499 3803.9831,100.1712 3800.6254,103.52895 3798.1991,103.73067 3794.6594,100.94635 z"/>
</svg>
