<svg xmlns="http://www.w3.org/2000/svg"
     width="47.8" height="64.0"
     viewBox="6560.4066 18.9987 65.3588 87.4966">
  <path d="M 6615.688,91.6875 C 6614.5636,90.988168 6613.6411,90.223521 6613.3755,89.53125 6613.0882,88.78264 6614.6975,84.601749 6616.938,80.25 6621.2901,71.79728 6621.7654,70 6619.688,70 6618.9661,70 6617.4056,72.1375 6616.2193,74.75 6613.9116,79.832054 6607.1441,92.408405 6603.8443,97.75 L 6601.8443,101 6603.8443,101 C 6604.952,101 6606.1169,100.2125 6606.438,99.25 6606.7592,98.2875 6607.8449,96.451605 6608.8443,95.15625 L 6610.6567,92.78125 6614.5005,94.6875 6614.5005,94 6615.688,91.6875 z M 6594.8443,23 C 6594.4789,22.998693 6592.7863,25.25 6591.0943,28 6589.4022,30.75 6587.6166,33 6587.1255,33 6586.6344,33 6584.613,31.2 6582.6255,29 6580.6379,26.8 6578.5612,25 6578.0317,25 6576.5749,25 6574.6582,32.486135 6575.3755,35.34375 6576.1308,38.353441 6580.7,44 6582.3755,44 6583.0308,44 6585.7707,40.625 6588.4693,36.5 6591.1677,32.375 6593.7486,29 6594.188,29 6595.0545,29 6600.2406,38.946988 6601.5005,43 6601.9273,44.372888 6603.0244,46.046631 6603.9067,46.71875 6606.4325,48.642427 6607.6411,48.259005 6611.8443,44.25 6616.2687,40.029859 6618.4199,34.221404 6616.9693,30.40625 6615.8165,27.374017 6614.9153,27.370168 6612.063,30.40625 6609.4029,33.237859 6604.6077,35.455381 6602.688,34.71875 6601.9489,34.435097 6600.0462,31.671424 6598.438,28.59375 6596.8298,25.516076 6595.2096,23.001307 6594.8443,23 z M 6578.7505,31.03125 C 6579.163,31.05103 6580.8505,32.182359 6582.5005,33.53125 6584.9274,35.515237 6585.3047,36.310665 6584.438,37.6875 6582.7737,40.331249 6581.4081,40.283155 6579.6255,37.5625 6577.9445,34.996939 6577.4098,30.966961 6578.7505,31.03125 z M 6613.3755,34 C 6614.6714,34 6614.7682,34.476472 6613.9067,36.75 6613.3337,38.2625 6611.9097,40.5125 6610.7505,41.75 6608.2952,44.371029 6605.4615,44.666396 6604.5943,42.40625 6603.593,39.796885 6603.9265,38 6605.3755,38 6606.1264,38 6607.8832,37.1 6609.2817,36 6610.6802,34.9 6612.5133,34 6613.3755,34 z M 6593.7505,50.53125 C 6593.5178,50.37493 6593.1337,50.458571 6592.5943,50.90625 6591.0666,52.174097 6584.2772,63.869897 6575.9693,79.5 6573.0457,85 6569.6674,91.075 6568.4693,93 6567.2712,94.925 6565.9866,97.5125 6565.5943,98.75 6564.4066,102.49526 6567.2524,101.41922 6569.563,97.25 6578.0524,81.931736 6583.2364,72.531943 6586.4067,66.6875 6588.4348,62.949131 6590.9575,58.449131 6592.0317,56.6875 6593.8018,53.784446 6594.4486,51.00021 6593.7505,50.53125 z M 6608.188,55.5 C 6607.8562,55.635355 6607.5284,56.01775 6607.188,56.65625 6606.6433,57.677797 6603.296,64.125 6599.7505,71 6596.2049,77.875 6591.1735,87.4375 6588.563,92.25 6585.1968,98.455319 6584.2405,101 6585.2817,101 6587.4286,101 6587.7752,100.43098 6599.5005,77.6875 6606.8821,63.369548 6609.929,56.522252 6609.2193,55.8125 6608.8643,55.457623 6608.5198,55.364645 6608.188,55.5 z M 6575.563,51.46875 C 6575.2266,51.512309 6574.6848,51.890613 6573.9067,52.59375 6571.7273,54.563161 6567.0005,63.093337 6567.0005,65.0625 6567.0005,67.650572 6569.7185,64.968457 6572.7193,59.4375 6575.6011,54.125804 6576.5722,51.338074 6575.563,51.46875 z"/>
</svg>
