<svg xmlns="http://www.w3.org/2000/svg"
     width="32.3" height="64.0"
     viewBox="1520.8438 15.1463 42.8835 84.9247">
  <path d="M 1529.7188,83.5625 1524.8438,92.84375 C 1525.6615,92.833974 1526.5842,93.047997 1528,93.5625 1534.9028,96.071011 1537.4016,95.458678 1542.2812,90.03125 1547.152,84.613888 1548,81.984687 1548,72.375 1548,66.522648 1548.9468,64.486937 1550.5,67 1551.8442,69.174983 1555.9266,68.044635 1557.4688,65.0625 1559.7273,60.694918 1559.424,57.153073 1556.6875,55.90625 1552.4193,53.961509 1551.624,51.268497 1551.0312,36.65625 1550.5131,23.881515 1550.3144,22.671621 1548.25,21 1545.9608,19.146323 1542.7738,19.290851 1541.1562,21.34375 1538.8918,24.217567 1536.144,34.253101 1535.5,42 1534.9238,48.930259 1535.2261,52.44408 1537.0312,60.875 1539.681,73.250608 1539.3283,79.140446 1535.75,82.71875 L 1533.2812,85.1875 1529.7188,83.5625 z M 1545.0312,22.5625 C 1545.4616,22.696781 1545.8909,23.047112 1546.4062,23.5625 1547.6695,24.825681 1548,27.519092 1548,37 1548,50.416653 1548.7731,53.409847 1553.1875,57.09375 1555.7362,59.220596 1556.1713,60.166996 1555.625,62.34375 1554.8314,65.505593 1552.9825,65.743138 1550.5,63 1548.7449,61.060659 1545.0511,60.231085 1544.9375,61.75 1544.9066,62.1625 1544.7941,67.072423 1544.6875,72.65625 1544.5032,82.305004 1544.3293,83.024345 1541.3438,87.15625 1538.8165,90.653874 1537.5457,91.549291 1534.8438,91.71875 1532.9965,91.834602 1530.5095,91.507241 1529.2812,91 1525.9995,89.644834 1527.4434,87 1531.4688,87 1535.8351,87 1539.7053,83.28364 1540.5,78.34375 1540.8415,76.221504 1541.3034,73.59476 1541.5312,72.5 1541.759,71.405241 1541.0065,66.680241 1539.875,62 1536.7729,49.168639 1537.2006,36.342841 1541.0312,27.40625 1542.67,23.583169 1543.7403,22.159656 1545.0312,22.5625 z"/>
</svg>
