<svg xmlns="http://www.w3.org/2000/svg"
     width="52.1" height="64.0"
     viewBox="5177.2853 18.0000 21.7147 26.6562">
  <path d="M 5183.4375 40.375 L 5192.5625 40.65625 C 5192.7026 39.937804 5192.9507 39.122966 5193.4375 37.90625 C 5194.3026 35.744009 5195 32.464698 5195 30.625 C 5195 26.40652 5191.6434 22 5188.4375 22 C 5184.023 22 5181.2853 31.336189 5183.4375 39.03125 C 5183.5603 39.470246 5183.4318 39.936312 5183.4375 40.375 z M 5189.1875 25.84375 C 5191.005 26.036965 5192.5134 29.504006 5191.5938 34.40625 C 5190.7244 39.040498 5188.4066 39.714042 5186.4375 35.90625 C 5185.1666 33.448602 5185.1098 32.229633 5186.0312 29.4375 C 5186.9067 26.785273 5188.097 25.727821 5189.1875 25.84375 z "/>
</svg>
