<svg xmlns="http://www.w3.org/2000/svg"
     width="40.7" height="64.0"
     viewBox="2873.0614 14.6215 56.9790 89.5170">
  <path d="M 2904.0477,99.412273 C 2903.0095,98.161207 2903.7112,94.533761 2905.57,91.543547 2908.4114,86.972837 2908.424,86.247552 2905.7102,83.533719 2903.7033,81.526738 2903.1163,81.236893 2901.6521,81.529724 2899.4173,81.976696 2896.5309,84.133171 2896.5309,85.355878 2896.5309,85.885539 2896.8815,86.609866 2897.31,86.965501 2898.3219,87.805288 2900.048,93.314138 2900.1224,95.941411 2900.1616,97.320303 2899.8386,98.240916 2899.1352,98.755227 2897.6356,99.851703 2895.4732,98.596664 2890.4034,93.687403 L 2886.2709,89.68582 2886.2709,86.488981 C 2886.2709,82.929057 2886.5889,82.320383 2891.2509,76.95817 2895.5624,71.999194 2895.6695,69.940537 2891.943,63.658481 2891.664,63.188231 2890.944,61.746457 2890.3429,60.45454 2888.9404,57.440096 2888.5077,57.213036 2886.2818,58.323494 2883.8379,59.542661 2881.1542,59.703463 2879.6541,58.720607 2877.0614,57.021722 2877.5539,49.37549 2880.3574,47.80664 2881.524,47.153727 2883.7389,48.074932 2886.4571,50.343676 2887.3433,51.083319 2888.5913,51.688481 2889.2304,51.688481 2890.9171,51.688481 2894.5097,47.471399 2896.7507,42.860952 2898.9669,38.301643 2899.0357,36.122063 2897.1225,31.088249 2895.8833,27.827961 2895.5975,23.222572 2896.5265,21.486657 2897.9176,18.887414 2904.9446,18.621508 2907.2549,21.080691 2909.1488,23.096596 2909.3217,26.248992 2907.9398,33.558291 2906.7703,39.743401 2906.7498,40.300506 2907.5981,42.799261 2908.0946,44.261744 2908.5009,45.827356 2908.5009,46.2784 2908.5009,47.134743 2913.318,52.258481 2914.123,52.258481 2914.3773,52.258481 2916.0181,51.232481 2917.7693,49.978481 2919.5205,48.724481 2921.3391,47.698481 2921.8107,47.698481 2922.8441,47.698481 2924.9294,50.230617 2925.3824,52.035825 2926.0404,54.657525 2923.2232,60.238481 2921.2418,60.238481 2920.8345,60.238481 2919.3674,59.687593 2917.9817,59.014286 2916.5957,58.34098 2915.0981,57.929645 2914.6537,58.100211 2913.7053,58.464141 2910.5853,64.65169 2909.6955,67.933481 2908.8364,71.101621 2908.9166,72.542775 2910.013,73.639147 2911.0875,74.713711 2915.1466,80.657488 2916.596,83.278935 2918.2704,86.307174 2917.8829,88.128894 2914.4041,93.58348 2911.2158,98.58262 2909.4329,100.13848 2906.8928,100.13848 2905.6595,100.13848 2904.3793,99.811693 2904.0477,99.412273 z M 2884.5896,55.658001 C 2885.486,55.019738 2886.0947,54.172539 2885.9422,53.775338 2885.6849,53.10458 2882.7905,51.118481 2882.0705,51.118481 2881.2804,51.118481 2880.5293,53.621614 2880.8633,55.141913 2881.298,57.121377 2882.3331,57.264745 2884.5896,55.658001 z M 2908.5009,96.235696 C 2908.5009,95.970167 2909.0429,95.136542 2909.7055,94.383196 2912.0546,91.712136 2913.4808,89.571433 2914.0507,87.860982 2914.7375,85.799606 2914.3039,84.845933 2909.4984,77.847028 2906.7925,73.906146 2906.2209,72.658114 2906.2209,70.691187 2906.2209,68.152925 2909.173,60.447091 2911.2777,57.491168 2911.945,56.55415 2912.4909,55.577062 2912.4909,55.319862 2912.4909,55.062661 2911.0509,53.435007 2909.291,51.702853 2906.3026,48.761656 2906.0051,48.219065 2904.79,43.494296 2903.6455,39.043913 2903.5754,38.152225 2904.2076,36.084296 2906.6981,27.937701 2906.8197,24.882255 2904.719,23.229852 2902.9548,21.842079 2900.3886,21.689198 2899.3743,22.911426 2898.5289,23.930061 2898.9247,27.762947 2900.3067,31.940667 2901.5206,35.609972 2901.1197,39.907801 2899.1973,43.837124 2898.3578,45.553114 2897.6709,47.159595 2897.6709,47.407079 2897.6709,47.654564 2896.2601,49.463918 2894.5359,51.427866 2892.8116,53.391813 2891.4026,55.47226 2891.4047,56.051081 2891.4066,56.6299 2891.9228,57.872981 2892.5517,58.813481 2893.1804,59.753981 2894.7282,62.61613 2895.9912,65.173813 L 2898.2876,69.824143 2897.1619,73.026676 C 2896.0544,76.177602 2893.976,79.181558 2891.8869,80.650579 2890.4147,81.685773 2889.1209,84.364921 2889.1209,86.37831 2889.1209,87.636881 2889.9018,88.890687 2892.1993,91.320193 2895.504,94.814743 2896.9095,95.049098 2896.3005,92.003999 2896.1106,91.054573 2895.187,89.117958 2894.2481,87.700402 2893.3091,86.282852 2892.5409,84.839332 2892.5409,84.492584 2892.5409,83.50641 2894.2395,81.32848 2895.0087,81.32848 2895.39,81.32848 2897.065,80.43073 2898.7311,79.33348 2900.3973,78.23623 2902.1566,77.33848 2902.6407,77.33848 2904.0335,77.33848 2909.5095,83.019317 2910.4978,85.489543 2911.3293,87.567712 2911.3213,87.841095 2910.3888,89.232471 2908.3546,92.267481 2906.7541,95.627779 2907.0865,96.165643 2907.5072,96.846297 2908.5009,96.895516 2908.5009,96.235696 z M 2922.0832,54.573527 C 2922.9108,52.199468 2921.6513,51.157417 2919.5881,52.509268 2916.8902,54.277002 2917.2464,56.218221 2920.2726,56.239752 2921.1214,56.245792 2921.6793,55.732457 2922.0832,54.573527 z"/>
</svg>
