<svg xmlns="http://www.w3.org/2000/svg"
     width="50.0" height="64.0"
     viewBox="6972.5005 17.1401 67.3614 86.2754">
  <path d="M 6977.3443,86.125 6977.0005,86.5 6978.2817,91.1875 C 6979.1771,90.016187 6980.5773,88.731678 6982.4693,87.8125 L 6986.6567,85.78125 6993.6567,88.84375 C 6999.7292,91.508931 7001.1525,91.801512 7004.2817,90.9375 7008.4295,89.792235 7014.3088,83.594654 7017.0317,77.5 7019.014,73.063147 7019.1066,62.348051 7017.2505,51.5 7016.685,48.194476 7016.3511,43.206615 7016.5005,40.4375 7016.7855,35.155963 7020.3061,26 7022.063,26 7023.7029,26 7025.8972,32.320515 7026.0943,37.625 7026.194,40.308346 7025.9231,45.450416 7025.5005,49.0625 7024.704,55.86919 7025.7002,59.232813 7030.7505,67.1875 7032.8642,70.516826 7031.9356,71.671042 7028.813,69.625 7025.6065,67.524025 7024.546,68.497079 7022.2193,75.59375 7018.5539,86.77264 7014.967,91.385918 7007.6255,94.40625 7005.4958,95.282409 7003.6958,95.962548 7003.6255,95.90625 7003.5551,95.849951 7002.1505,95.4201 7000.5005,94.96875 6998.8505,94.517401 6995.7031,93.474418 6993.5005,92.65625 6989.6295,91.218369 6986.0059,91.456386 6979.313,93.53125 6978.6593,93.733911 6978.2367,93.726518 6977.9067,93.65625 L 6976.5005,97.5 6976.688,98.125 C 6977.5812,97.820387 6978.4891,97.515644 6979.5005,97 6984.1731,94.617761 6991.5832,94.390732 6995.6255,96.5 7001.1762,99.396357 7004.6393,99.415519 7010.4067,96.59375 7016.7171,93.506404 7022.0781,86.54475 7024.5317,78.25 7026.165,72.728862 7027.2589,71.855327 7028.9067,74.75 7030.2394,77.090705 7032.9852,75.423327 7034.688,71.25 7035.8619,68.373141 7035.7001,67.886055 7032.2193,63.34375 L 7028.5005,58.5 7028.7505,46.46875 C 7028.9434,36.708382 7028.62,33.51935 7027.0943,29.5 7023.9285,21.16022 7021.0953,21.140125 7016.688,29.4375 7014.853,32.892312 7014.5373,35.080297 7014.5943,44 7014.6313,49.775 7015.0339,58.782114 7015.4693,64.03125 7016.18,72.601326 7016.0491,73.978795 7014.2193,77.53125 7011.8687,82.094606 7006.4768,87.486278 7003.313,88.4375 7002.0811,88.807879 6999.477,88.364545 6997.313,87.4375 6987.293,83.144927 6986.5977,83.052736 6981.9693,85.125 6979.577,86.196039 6978.1578,86.442929 6977.3443,86.125 z"/>
</svg>
