<svg xmlns="http://www.w3.org/2000/svg"
     width="34.8" height="64.0"
     viewBox="629.6855 44.4545 22.1794 40.8461">
  <path d="M 635.94403,65.155758 C 634.40914,63.912881 633.88722,62.736285 634.34343,61.547423 634.98302,59.880685 635.16341,59.877053 637.61227,61.481602 640.09155,63.106089 641.35443,63.1102 645.25,61.506465 646.50269,60.990754 647,61.257188 647,62.444038 647,63.39077 645.51229,64.723658 643.53212,65.551027 639.10924,67.399024 638.68719,67.37704 635.94403,65.155758 z M 636.2,79.8 C 633.6855,77.285502 634.94616,76.275831 640.5,76.35611 646.73264,76.446202 647.86493,78.15423 642.85078,79.902175 638.83923,81.300606 637.68284,81.282841 636.2,79.8 z M 637.75,51.919901 C 634.65992,50.120092 635.74133,48.454545 640,48.454545 644.30281,48.454545 645.04107,49.48923 642.25,51.607954 640.14647,53.204757 639.97623,53.216559 637.75,51.919901 z"/>
</svg>
