<svg xmlns="http://www.w3.org/2000/svg"
     width="46.2" height="64.0"
     viewBox="5006.8130 42.1972 43.2020 59.8028">
  <path d="M 5015.188,81.875 5013.438,86.96875 C 5014.3619,85.771224 5015.6362,85.601556 5016.5005,87 5016.8404,87.55 5018.4374,88 5020.063,88 5023.524,88 5026.5743,83.910314 5027.4067,78.09375 5027.6888,76.122662 5028.4299,70.566253 5029.063,65.75 5030.3485,55.971693 5032.997,50.724938 5036.9693,50.15625 5042.8866,49.309111 5043.5686,57.311997 5038.5005,68.28125 5034.063,77.885574 5033.9454,82.101177 5038.0005,86.15625 5042.1697,90.325453 5041.7475,91.194661 5036.5005,89.25 L 5032.0005,87.5625 5027.7193,91.78125 C 5024.8239,94.622721 5022.6297,95.966834 5020.9693,95.875 5014.1089,95.495552 5011.891,93.818695 5012.4693,89.78125 L 5011.0005,94 C 5011.0005,94 5010.8531,96.008942 5010.813,96.46875 5011.5431,96.473258 5012.1995,96.59245 5012.8443,96.9375 5013.9513,97.529949 5017.2007,98 5020.0317,98 5024.3809,98 5025.8225,97.465311 5029.3443,94.625 5033.258,91.468705 5033.6838,91.357623 5036.5005,92.59375 5040.7914,94.476811 5041.7535,94.310947 5043.6567,91.40625 5045.3286,88.854611 5045.2798,88.777421 5041.5317,85.34375 5037.9927,82.101446 5037.8012,81.586375 5038.3443,77.625 5038.6647,75.286799 5040.2954,70.475865 5041.9693,66.9375 5046.015,58.385685 5045.8507,50.592116 5041.5943,47.75 5039.2687,46.197194 5034.8668,47.039956 5032.4067,49.5 5028.6507,53.255975 5026.9528,58.282116 5025.8755,68.8125 5024.6651,80.643316 5023.0134,85 5019.7193,85 5017.7019,85 5016.2886,83.999061 5015.188,81.875 z"/>
</svg>
