<svg xmlns="http://www.w3.org/2000/svg"
     width="36.9" height="64.0"
     viewBox="5364.0005 18.0000 48.3146 83.8800">
  <path d="M 5387.313,22 C 5386.5751,22 5384.5989,24.25 5382.9067,27 5381.2146,29.75 5379.5915,32 5379.313,32 5379.0344,32 5377.6802,31.1 5376.2817,30 5371.8318,26.499643 5368.0005,27.953536 5368.0005,33.15625 5368.0005,36.530187 5370.3899,38 5375.9067,38 L 5379.938,38 5381.5943,43.6875 C 5382.9097,48.212679 5383.0708,50.898461 5382.3755,56.9375 5381.8959,61.103403 5381.5509,68.824686 5381.5943,74.09375 5381.6857,85.246265 5383.7227,90.724193 5389.4693,95.28125 5392.4738,97.663763 5393.2288,97.879955 5394.938,96.8125 5395.868,96.231725 5396.7866,96.113745 5397.938,96.28125 L 5398.0005,95.5 5402.0005,81.5 5402.188,80.75 C 5401.4452,79.007564 5400.964,76.587396 5400.688,73 5400.3706,68.875 5399.3874,63.025 5398.5005,60 5395.3605,49.290377 5394.6667,44.013872 5395.9067,39.875 5396.9125,36.517988 5397.4876,36 5400.0317,36 5405.3003,36 5408.3151,27.902729 5403.313,27.1875 5402.1137,27.016009 5399.9371,27.65245 5398.5005,28.59375 5395.904,30.295004 5395.875,30.281167 5392.2817,26.15625 5390.2937,23.87394 5388.0509,22 5387.313,22 z M 5386.8443,25.0625 C 5388.5102,25.194348 5394.0354,33.440216 5393.438,34.90625 5391.588,39.44681 5391.7616,49.140429 5393.813,55.25 5398.3986,68.906629 5398.6948,84.957469 5394.4693,91.40625 5393.5316,92.837326 5392.6541,94 5392.5005,94 5391.2194,94 5385.9524,87.704922 5385.313,85.40625 5384.2799,81.692154 5384.3474,64.641964 5385.438,55.3125 5386.168,49.06782 5385.9695,47.158203 5383.9693,40.9375 5382.1432,35.258617 5381.9101,33.410985 5382.8443,32.125 5383.4933,31.231506 5384.5296,29.2625 5385.1255,27.75 5385.7213,26.2375 5386.4856,25.034112 5386.8443,25.0625 z M 5403.188,29 C 5404.4089,29 5404.174,31.451523 5402.813,32.8125 5401.3068,34.318735 5400.3164,34.315605 5399.4067,32.84375 5398.7341,31.755196 5401.4446,29 5403.188,29 z M 5372.3755,31.0625 C 5373.5869,31.291603 5375.3752,32.592905 5375.7817,33.8125 5376.3743,35.590108 5372.0293,35.253974 5371.3443,33.46875 5371.0185,32.620029 5371.0687,31.619326 5371.438,31.25 5371.6428,31.045246 5371.9717,30.986132 5372.3755,31.0625 z"/>
</svg>
