<svg xmlns="http://www.w3.org/2000/svg"
     width="29.8" height="64.0"
     viewBox="2570.9983 15.9972 41.6579 89.4334">
  <path d="M 2603.7188,55.3125 C 2602.4575,56.819403 2601.2668,58 2600.5938,58 2599.833,58 2598.1734,57.143666 2596.875,56.09375 2594.6955,54.331443 2594.4616,53.275254 2594,42.34375 2593.445,29.199074 2591.578,23.776547 2586.6562,21 2585.4729,20.332375 2584.7504,19.997189 2584,20 2583.2496,20.002811 2582.474,20.354605 2581.25,21.03125 2577.3718,23.175195 2575.0018,28.461143 2575,35 2574.9983,40.863 2577.6508,51.457015 2580.4688,56.90625 2582.9511,61.706469 2582.6031,67.642271 2579.4375,74.53125 2577.9307,77.810252 2576.708,80.95 2576.7188,81.5 2576.7294,82.05 2577.9248,85.060242 2579.375,88.1875 2580.8253,91.314758 2582,94.499758 2582,95.25 2582,96.000242 2582.5625,97.156158 2583.25,97.84375 2584.2501,98.843951 2584.828,98.702746 2586.1562,97.0625 2588.2403,94.489129 2590.0614,94.447317 2592.9688,96.96875 2598.1132,101.43062 2598.4542,94.903426 2593.5,86.6875 2591.5764,83.497456 2590,80.353746 2590,79.6875 2590,79.021253 2591.4552,76.243709 2593.25,73.5 2596.4846,68.555165 2596.57,68.504406 2603,67.8125 2605.7454,67.51708 2607.3399,67.232534 2608.6562,66.6875 L 2607.125,63.15625 C 2605.6359,63.839748 2604.0378,64.310738 2602.0938,64.53125 2599.0104,64.880994 2595.7688,65.379817 2594.875,65.625 2592.8788,66.17263 2586,77.096032 2586,79.71875 2586,80.76567 2587.35,83.74197 2589,86.34375 2590.65,88.94553 2592,91.275351 2592,91.53125 2592,91.78715 2590.2779,92 2588.1875,92 2584.6701,92 2584.2227,91.657976 2582.1875,87.46875 2579.3854,81.701155 2579.4148,81.422202 2583,73.84375 2586.6177,66.196632 2586.7481,61.973194 2583.625,54.875 2577.647,41.288188 2576.5845,28.487097 2581.0938,24.40625 2583.6838,22.062148 2585.7905,23.236866 2588.5,28.5625 2590.1341,31.774376 2590.5,34.483479 2590.5,43.3125 L 2590.5,54.125 2593.7812,57.5625 C 2595.6222,59.498002 2598.0472,61 2599.3125,61 2600.8929,61 2602.8741,59.771651 2604.8125,57.875 L 2603.7188,55.3125 z"/>
</svg>
