<svg xmlns="http://www.w3.org/2000/svg"
     width="19.8" height="64.0"
     viewBox="2638.6875 15.0000 27.0037 87.4017">
  <path d="M 2650,19 C 2646.3043,19 2644.1848,30.169995 2643.625,52.625 L 2643.3438,63.75 2642.6875,64.3125 2643.0625,67.90625 2643.5,67.5 2643.8125,70.84375 C 2643.9042,71.801074 2643.8352,72.55724 2643.625,73.28125 L 2644,77 2644.0625,78.0625 C 2644.4464,78.154977 2645.0343,80.19581 2645.375,82.75 2646.3209,89.841133 2649.3111,97.427054 2651.3125,97.8125 2654.3722,98.401745 2658.171,86.80219 2660.4688,69.8125 2661.6912,60.773268 2661.1609,44.167824 2659.4062,36.28125 2657.4628,27.545897 2652.8209,19 2650,19 z M 2650.0625,23 C 2651.7993,23 2654.8734,30.691981 2656.4375,38.9375 2659.0327,52.618115 2658.1334,73.77929 2654.4062,87.0625 2651.7192,96.638998 2650.757,95.252616 2648.375,78.59375 2645.6433,59.489038 2646.7505,23 2650.0625,23 z"/>
</svg>
