<svg xmlns="http://www.w3.org/2000/svg"
     width="46.3" height="64.0"
     viewBox="1396.5211 12.5226 64.4789 89.0454">
  <path d="M 1442.2188 17.4375 C 1437.8952 18.449508 1434 23.366788 1434 27.8125 C 1434 34.898895 1429.2848 36.065055 1423.125 30.5 C 1418.5392 26.357062 1416.8011 26.147691 1414.625 29.46875 C 1412.1575 33.234623 1412.6241 35.595418 1416.3125 37.875 C 1421.7397 41.229205 1422.748 43.009956 1423.3125 50.25 C 1423.7795 56.240788 1423.6345 57 1422.0625 57 C 1421.0883 57 1419.0438 55.839262 1417.5312 54.4375 C 1414.3242 51.465314 1412.6137 51.66693 1412.2188 55.0625 C 1411.7424 59.158708 1416.0473 66.290199 1420.25 68.34375 C 1422.3125 69.351547 1424.0031 70.701547 1424 71.34375 C 1423.9829 74.934565 1421.567 80.198619 1418.9062 82.4375 C 1413.3045 87.151139 1408.3248 84.842938 1407.2812 77.0625 C 1406.3354 70.011215 1402.925 72.236591 1401.625 80.75 C 1400.5211 87.978235 1404.4632 93.835254 1411.9375 96.03125 C 1417.1681 97.568039 1423.242 94.928925 1428.2188 88.9375 L 1431.6562 84.78125 L 1435.7812 86.90625 C 1440.4672 89.29684 1449.6662 89.764756 1452.1562 87.75 C 1454.8857 85.541408 1457 81.635375 1457 78.78125 C 1457 77.253628 1456.5742 76 1456.0625 76 C 1455.5507 76 1454.9882 75.076821 1454.8125 73.9375 C 1454.6367 72.798179 1453.2613 71.099877 1451.75 70.1875 C 1449.0281 68.544375 1448.9832 68.58629 1445.9375 72.28125 C 1444.2463 74.332947 1442.41 76 1441.875 76 C 1440.1519 76 1436 71.164784 1436 69.15625 C 1436 67.997261 1437.3857 66.366854 1439.4375 65.15625 C 1443.369 62.836604 1447 56.527581 1447 52 C 1447 47.718228 1444.8402 47.344288 1440.9062 50.9375 C 1439.0644 52.619763 1437.2088 54 1436.7812 54 C 1436.3538 54 1436 51.537112 1436 48.53125 C 1436 43.844222 1436.4321 42.562736 1439.0938 39.53125 C 1440.8008 37.587112 1443.0059 36 1444 36 C 1446.8992 36 1451 30.350434 1451 26.34375 C 1451 21.458881 1446.1274 16.522615 1442.2188 17.4375 z M 1442.1875 20.375 C 1442.9421 20.276501 1443.6708 20.45451 1444.5938 20.875 C 1449.457 23.090858 1448.8391 32.225341 1443.7812 32.8125 C 1441.9412 33.026094 1439.7841 34.729984 1437.0312 38.1875 L 1433 43.25 L 1433 57.1875 C 1433 72.603647 1434.0097 76.291486 1438.75 78.09375 C 1441.9563 79.31278 1446 78.474762 1446 76.59375 C 1446 74.492799 1448.6943 72.776614 1450.875 73.46875 C 1453.7646 74.38587 1455.0689 78.956333 1453.5 82.6875 C 1451.3443 87.814537 1446.1173 88.008891 1436.7812 83.34375 C 1434.187 82.047431 1431.6813 81 1431.2188 81 C 1430.7563 81 1428.9682 82.999861 1427.25 85.4375 C 1425.5318 87.87514 1423.0877 90.549887 1421.8125 91.375 C 1419.0201 93.18183 1414.6792 94.33533 1413.8438 93.5 C 1413.5115 93.167666 1411.9572 92.806713 1410.4062 92.6875 C 1407.1654 92.438403 1404.6111 88.725355 1403.5625 82.75 C 1402.8775 78.846859 1404.3594 77.411028 1405.4688 80.90625 C 1408.4073 90.164676 1417.2557 90.090927 1423.3125 80.75 C 1426.6375 75.622 1427.3777 69.094608 1426.125 56.0625 C 1425.4972 49.530391 1425.4745 44.973729 1426.0625 43.875 C 1426.7994 42.498175 1426.3727 41.685266 1424.0938 40.0625 C 1422.4968 38.925405 1420.7928 38 1420.3125 38 C 1419.1799 38 1416 34.291468 1416 32.96875 C 1416 30.535248 1419.2186 30.99762 1422.5312 33.90625 C 1426.8415 37.690705 1429.8907 37.811368 1433.9375 34.40625 C 1436.4939 32.255144 1437 31.100868 1437 27.53125 C 1437 23.998199 1437.4673 22.913799 1439.625 21.5 C 1440.656 20.824488 1441.4329 20.473499 1442.1875 20.375 z M 1443.6562 53.3125 C 1444.5233 54.179658 1442.8184 58.820257 1440.875 60.90625 C 1437.9627 64.032234 1435.9768 63.502324 1436 59.59375 C 1436.0116 57.632589 1442.5851 52.241368 1443.6562 53.3125 z M 1415.5 56.46875 C 1415.7885 56.525606 1416.1997 56.783243 1416.75 57.28125 C 1417.7135 58.153212 1419.7385 59.331581 1421.25 59.90625 C 1423.4116 60.728075 1424 61.589643 1424 63.96875 C 1424 65.632363 1423.6463 67 1423.2188 67 C 1421.5598 67 1417.9245 63.754794 1416.5 61 C 1414.953 58.008406 1414.6346 56.298183 1415.5 56.46875 z "/>
</svg>
