<svg xmlns="http://www.w3.org/2000/svg"
     width="23.9" height="64.0"
     viewBox="1940.6516 8.6668 36.2234 97.1567">
  <path d="M 1971.4062,89.5625 C 1970.4311,89.120038 1969.2102,88.343183 1968,87.25 L 1964.9375,84.5 1964.5938,63 C 1964.3415,46.86089 1963.8307,39.629922 1962.5,34 1958.7296,18.047854 1953.2495,12.666754 1949.0938,20.8125 1945.4555,27.944173 1944.6516,35.235429 1945.8125,50.5 1946.8766,64.493189 1947.2728,66.848406 1950.5,78.9375 1952.1314,85.048917 1952.0994,89.06496 1950.4062,96.25 1950.0116,97.92497 1950.1684,99 1950.8125,99 1952.2758,99 1952.7342,98.080969 1954.375,91.78125 1955.6865,86.746117 1955.6512,85.68953 1953.8438,79.375 1950.26,66.854805 1949.858,64.615108 1948.75,50.6875 1947.6444,36.790787 1948.6457,25.565139 1951.25,22.28125 1952.6417,20.526476 1955.4933,22.299976 1956.7812,25.71875 1959.6984,33.462166 1960.3415,39.51549 1960.4688,60.5 1960.5509,74.055224 1961.0062,83.484008 1961.6875,85.0625 1962.896,87.862627 1969.3996,94 1971.1562,94 1971.3827,94 1971.6817,93.840212 1971.9375,93.78125 L 1971.4062,89.5625 z M 1972.4062,97.59375 C 1970.3466,97.262425 1968.0102,96.423044 1967.0938,95.59375 1964.4144,93.169002 1960.4219,93.634982 1957.5625,96.71875 1954.4619,100.06263 1955.6366,101.82347 1959.8125,100.09375 1962.1906,99.108705 1963.3217,99.152495 1966.0938,100.40625 1968.154,101.33802 1970.5144,101.65291 1972.875,101.59375 L 1972.4062,97.59375 z"/>
</svg>
