<svg xmlns="http://www.w3.org/2000/svg"
     width="30.8" height="64.0"
     viewBox="174.7500 13.6250 42.7156 88.9018">
  <path d="M 190 17.625 L 186.90625 20.5625 C 185.20903 22.17613 182.67553 25.447544 181.28125 27.8125 L 178.75 32.09375 L 181.90625 38.3125 C 186.02111 46.419427 186.96109 57.572327 184.59375 69.875 C 181.97388 83.490042 182.88206 94.664382 186.78125 96.9375 C 189.50744 98.526791 192.927 98.168033 197.0625 95.84375 C 198.85821 94.834504 199.98398 94.513448 200.875 94.5 L 200.8125 94.0625 L 202.40625 89.65625 C 201.84943 88.281725 201.94772 87.127602 203.1875 87.40625 L 204.28125 82.71875 C 203.6106 81.013931 203.28472 78.649254 203.25 74.75 C 203.203 69.472209 202.37947 64.374681 200.65625 58.75 C 197.26274 47.673389 196.84121 39.955203 199.4375 36.4375 C 200.58579 34.881681 201.10924 34.748123 202.125 35.75 C 203.89323 37.494067 210.48084 37.330475 212 35.5 C 213.46558 33.734083 212.81024 26.687606 210.96875 24.46875 C 209.16029 22.289688 206.11583 22.700224 202.28125 25.625 C 198.9937 28.132535 198.77617 28.162159 197.5 26.375 C 196.76925 25.351642 194.79676 22.95113 193.09375 21.0625 L 190 17.625 z M 190 22.59375 C 191.21728 22.986499 192.53367 24.508491 194.34375 27.28125 C 196.65356 30.819519 196.98371 32.066609 196.3125 35 C 194.77008 41.740747 195.48409 52.170046 198 59.5 C 199.77053 64.65834 200.40014 68.736302 200.4375 75 C 200.4977 85.091436 199.85118 87.84343 196.40625 91.9375 C 194.46847 94.24042 192.99487 95 190.5 95 C 187.5583 95 187.01885 94.588099 185.96875 91.40625 C 184.62738 87.341875 185.19596 74.561612 186.96875 69 C 188.53492 64.086567 189.07638 48.870455 187.84375 44.40625 C 187.27699 42.353601 185.71046 38.883757 184.34375 36.71875 C 181.5837 32.346561 181.93126 30.142903 186.28125 24.6875 C 187.66938 22.946624 188.78272 22.201001 190 22.59375 z M 207.46875 24.84375 L 209.21875 27.03125 C 211.5323 29.888362 211.47445 32.677914 209.0625 33.96875 C 206.63102 35.270042 206.85581 35.284574 204.21875 33.4375 C 201.27516 31.375733 201.40768 29.604483 204.71875 27 L 207.46875 24.84375 z "/>
</svg>
