<svg xmlns="http://www.w3.org/2000/svg"
     width="25.4" height="64.0"
     viewBox="4220.9810 18.4712 34.7378 87.4919">
  <path d="M 4248.625 76.5 C 4248.52 76.450047 4248.2457 76.391349 4248.1562 76.34375 C 4247.0976 75.780531 4246.9771 47.652025 4248 40.65625 L 4249.1875 32.5625 L 4246.3438 30.25 C 4244.783 28.990476 4242.6 27.136706 4241.5 26.125 C 4237.5273 22.47116 4236.9929 22.576603 4231.4062 28.09375 C 4225.392 34.033278 4224.981 35.669641 4227.4062 44.40625 C 4231.6147 59.566978 4232.9695 76.657476 4231.0312 90.3125 C 4230.0267 97.388926 4230.0198 99.337398 4231.0625 100.59375 C 4232.199 101.96307 4232.6849 101.77365 4235.2188 99.0625 C 4238.5089 95.541978 4238.7883 95.479449 4242.5625 97.4375 C 4246.5814 99.522538 4247.8414 98.09242 4244.4062 95.34375 C 4241.0737 92.677165 4238.3125 92.392564 4235.4375 94.40625 C 4233.4651 95.787768 4233.4614 95.679643 4234.2812 86.15625 C 4234.7894 80.253566 4234.7203 73.199328 4234.0938 68 C 4233.5304 63.325 4233.0892 58.825 4233.125 58 C 4233.2255 55.688545 4231.1795 46.322003 4229.5 41.375 C 4228.6703 38.931315 4228 36.497944 4228 35.96875 C 4228 34.380751 4235.1237 27 4236.6562 27 C 4237.4385 27 4239.8877 28.723935 4242.0938 30.84375 L 4246.0938 34.71875 L 4244.875 43.09375 C 4243.9549 49.477301 4243.9272 55.774062 4244.75 69.3125 C 4245.8924 88.110495 4246.7328 91.238613 4251.7188 91.75 L 4250.9375 88.5625 C 4250.2039 88.281812 4249.7542 87.86582 4249.5 87.25 C 4248.3909 84.562663 4247.1407 79 4247.6562 79 C 4247.6903 79 4248.2962 79.247659 4248.4062 79.28125 L 4248.3125 79 L 4248.625 76.5 z "/>
</svg>
