<svg xmlns="http://www.w3.org/2000/svg"
     width="64.0" height="62.6"
     viewBox="2630.9204 11.3527 97.9549 95.8508">
  <path d="M 2681.375 20 C 2678.7989 20 2671.5648 23.284524 2670.5625 24.90625 C 2670.2439 25.421795 2668.5973 26.159856 2666.9062 26.53125 C 2664.3875 27.08446 2663.1274 26.632063 2659.9688 24.09375 C 2649.0918 15.352703 2636.9176 26.409744 2646.375 36.4375 C 2649.295 39.533675 2650.3592 40 2654.375 40 L 2659 40 L 2659 46.75 C 2658.9786 56.158491 2658.3294 56.868839 2652.6875 53.5625 C 2647.4506 50.493425 2646.1442 50.800782 2641.25 56.375 C 2636.7602 61.488594 2635.5646 66.098762 2635.5312 78.5 C 2635.5075 87.35467 2635.8708 90.251192 2637.4062 93.34375 C 2639.2176 96.991705 2641.4701 98.873631 2642.625 97.71875 C 2642.9156 97.428075 2643.2856 91.742906 2643.4688 85.09375 C 2643.8173 72.442012 2645.1292 68.14124 2649.3438 65.59375 C 2650.8822 64.663815 2651.6995 65.10711 2654.5 68.3125 C 2656.3312 70.408439 2658.7924 74.555927 2660 77.53125 L 2662.2188 82.9375 L 2659.5938 88.15625 C 2656.5925 94.178782 2656.3851 96.672597 2658.5625 99.78125 C 2660.9595 103.20347 2663.0622 102.35327 2665.7812 96.90625 C 2668.2518 91.957065 2671.0507 91.961416 2674.3438 96.9375 C 2677.4649 101.65384 2678.3764 101.88412 2680.5938 98.5 C 2681.2262 97.534795 2681.8874 96.996476 2682.5938 96.6875 L 2682.2812 95.96875 L 2679.4062 84.84375 C 2679.3938 84.834488 2679.3556 84.821723 2679.3438 84.8125 C 2678.707 84.316584 2677.4327 82.368452 2676.5312 80.46875 C 2675.005 77.252348 2675.0284 76.742036 2676.625 73.25 C 2677.568 71.1875 2678.9945 68.7125 2679.8125 67.75 C 2681.641 65.59864 2685.3446 65.469605 2687.375 67.5 C 2689.785 69.910011 2694.6202 70.481798 2697.4062 68.65625 C 2701.169 66.190815 2709.0948 53.492196 2712.4688 44.5 C 2714.9781 37.811998 2717.8998 33.510272 2721.25 31.53125 C 2724.2481 29.760268 2724.8753 28 2722.5312 28 C 2719.2344 28 2714.2029 34.097064 2710.4062 42.71875 C 2708.2831 47.540205 2704.5637 54.78245 2702.125 58.78125 C 2697.3636 66.588573 2694.4423 68.395982 2690.5938 65.96875 C 2683.3196 61.381025 2683.321 61.363636 2680.3125 63.5625 C 2678.7696 64.690184 2676.1436 68.175137 2674.5 71.28125 L 2671.5312 76.9375 L 2675.25 84.46875 C 2678.7782 91.599126 2680.0355 97 2678.1562 97 C 2677.6929 97 2676.4758 95.428176 2675.4375 93.5 C 2674.3991 91.571824 2672.7075 89.729988 2671.6875 89.40625 C 2669.553 88.72877 2665.6054 91.99363 2663.375 96.28125 C 2661.7077 99.486403 2660 99.030139 2660 95.375 C 2660 92.449232 2661.7243 88.828508 2663.6562 87.6875 C 2665.6959 86.482913 2665.2823 82.628005 2662.4062 75.71875 C 2659.6365 69.06456 2653.7026 62 2650.875 62 C 2648.4969 62 2643.1055 68.786848 2642.5625 72.46875 C 2642.317 74.133156 2641.5478 79.038243 2640.8438 83.375 C 2639.6152 90.942902 2639.4948 91.143986 2638.3125 88.375 C 2634.9204 80.430826 2637.939 62.814071 2643.7188 56.78125 C 2646.78 53.586071 2649.2871 53.639949 2654.0938 57.0625 C 2658.056 59.883936 2660.7416 59.585901 2661.3438 56.25 C 2662.2941 50.98454 2661.9939 39.691899 2660.875 38.34375 C 2660.2554 37.597223 2657.9008 37 2655.625 37 C 2652.5795 37 2650.7666 36.338636 2648.75 34.46875 C 2647.2431 33.071492 2646 31.514009 2646 31.03125 C 2646 30.548492 2645.755 29.483708 2645.4375 28.65625 C 2644.5753 26.409523 2648.5491 23 2652.0312 23 C 2654.18 23 2656.3365 24.177673 2659.5 27.09375 L 2663.9375 31.21875 L 2671.5625 27.09375 C 2682.6934 21.089798 2685 21.723559 2685 30.65625 C 2685 36.763782 2683.7724 38.094773 2681.4375 34.53125 C 2679.4972 31.569975 2677.8677 31.371533 2674 33.65625 C 2670.3327 35.822592 2668.9729 38.949141 2668.5 46.40625 C 2667.7028 58.978674 2670.3181 62.423901 2677.375 58.0625 C 2681.7652 55.349195 2682.6028 55.440978 2686.6562 59 C 2688.5354 60.65 2690.7521 62 2691.5938 62 C 2694.7426 62 2702.7121 52.313789 2705.5938 44.96875 L 2708.375 37.875 L 2704.625 30.28125 C 2701.9591 24.893547 2700.5758 23.017989 2699.8125 23.78125 C 2699.0492 24.544511 2699.6451 26.455114 2701.875 30.40625 C 2705.448 36.737287 2705.6026 38.066125 2703.4688 44.125 C 2701.4092 49.973124 2697.2483 55.819185 2693.9375 57.53125 C 2691.3864 58.850493 2691.0251 58.740602 2687.6562 55.46875 C 2684.5165 52.419523 2683.8068 52.142282 2681.4688 53.03125 C 2680.0091 53.586168 2677.855 54.682253 2676.6875 55.5 C 2671.3843 59.214523 2670.0575 56.798356 2671.0312 45.15625 C 2671.4662 39.954963 2672.0008 38.497646 2674.0312 36.9375 C 2677.5572 34.228096 2678.5883 34.517859 2680.6562 38.75 C 2681.664 40.8125 2682.9574 42.5 2683.5 42.5 C 2685.2131 42.5 2687.3591 36.70806 2687.7812 31 C 2688.1158 26.478993 2687.8153 25.010503 2686.0312 22.75 C 2684.713 21.079483 2682.8737 20 2681.375 20 z M 2705.0312 22 C 2703.6624 22 2703.7136 22.713858 2705.625 27.71875 C 2707.5244 32.692381 2709.4747 33.160656 2713.6875 29.65625 C 2715.2422 28.362963 2717.5284 26.753058 2718.7812 26.09375 C 2720.0342 25.434442 2720.7917 24.459904 2720.4688 23.9375 C 2719.5409 22.436303 2718.5331 22.794874 2714.5 26 C 2712.4237 27.65 2710.435 29 2710.0625 29 C 2709.69 29 2708.6055 27.425 2707.6875 25.5 C 2706.7695 23.575 2705.5901 22 2705.0312 22 z "/>
</svg>
