<svg xmlns="http://www.w3.org/2000/svg"
     width="41.8" height="64.0"
     viewBox="1726.8125 8.7031 29.4775 45.1094">
  <path d="M 1730.8125 46.28125 L 1734.375 49.8125 C 1734.2655 49.580695 1734 49.254741 1734 49.09375 C 1734 46.174391 1739.1414 39.019624 1743.2188 36.28125 C 1749.3804 32.143029 1752.29 27.429824 1751.6562 22.59375 C 1750.4739 13.569391 1743.7018 12.703074 1739.25 21 C 1737.2628 24.703705 1736.9097 26.43992 1737.3438 30.875 C 1737.8228 35.769102 1737.563 36.783906 1734.4062 41.71875 C 1732.8587 44.137959 1731.5486 45.72622 1730.8125 46.28125 z M 1745.7188 18.40625 C 1746.1917 18.393932 1746.6291 18.785347 1747.375 19.53125 C 1749.3632 21.519377 1749.4336 24.254517 1747.5938 27.8125 C 1746.825 29.298986 1745.2673 31.341211 1744.125 32.375 C 1742.0743 34.230854 1742.026 34.220542 1740.9375 31.375 C 1739.6019 27.883333 1741.0324 22.197571 1743.875 19.625 C 1744.7457 18.836996 1745.2458 18.418568 1745.7188 18.40625 z "/>
</svg>
