<svg xmlns="http://www.w3.org/2000/svg"
     width="64.0" height="57.6"
     viewBox="2675.4062 53.9578 55.4113 49.8990">
  <path d="M 2679.4062 84.84375 L 2682.2812 95.96875 L 2682.5938 96.6875 C 2683.1456 96.446135 2683.7272 96.306118 2684.375 96.4375 C 2699.3065 99.465998 2699.4994 99.476918 2704.3125 96.65625 C 2709.8994 93.382094 2710.3893 93.376332 2711.8125 96.5 C 2713.1697 99.478678 2716.9192 99.856744 2719.25 97.25 C 2721.4787 94.757378 2721.6556 92.975706 2720.0625 89.15625 C 2718.9023 86.374507 2718.9011 85.182665 2719.9688 82.15625 C 2720.6765 80.150158 2721.8121 77.825 2722.5 77 C 2723.8935 75.328544 2725.6681 70.142186 2726.4688 65.375 C 2726.8175 63.29862 2726.4813 61.814434 2725.5 61 C 2721.8344 57.957779 2715.4983 63.024099 2708.6875 74.4375 C 2702.6576 84.542257 2698.892 88 2693.9062 88 C 2689.4238 88 2681.2466 86.215288 2679.4062 84.84375 z M 2722.0938 63 C 2724.1311 63 2724.2251 63.34115 2723.625 67.71875 C 2723.27 70.309373 2721.8828 74.01849 2720.5312 75.96875 C 2716.6178 81.615741 2715.6919 85.195524 2716.9688 89.9375 C 2718.6238 96.083743 2716.2915 98.503967 2713.7812 93.25 C 2712.0308 89.586283 2708.973 89.31469 2705.1875 92.5 C 2700.6488 96.319076 2696.7634 96.463207 2685.0938 93.1875 C 2683.7638 92.814148 2682.4736 91.954707 2682.25 91.28125 C 2681.9424 90.354874 2683.7676 90.181382 2689.6875 90.59375 C 2700.0548 91.315916 2702.1507 89.963662 2708.875 78.3125 C 2714.9418 67.800458 2719.0972 63 2722.0938 63 z "/>
</svg>
