<svg xmlns="http://www.w3.org/2000/svg"
     width="33.9" height="64.0"
     viewBox="1053.8438 17.7711 44.9561 84.7601">
  <path d="M 1057.8438 83.9375 L 1058.0312 98.53125 L 1063.3125 98.25 C 1069.1793 97.942578 1073.5818 97.183615 1075.5 96.125 C 1079.666 93.825817 1084.2881 84.665265 1083.6875 79.90625 C 1083.0579 74.916882 1084.3877 73 1088.5 73 C 1093.4152 73 1094.7999 70.091562 1091.6562 66.3125 C 1090.3649 64.76015 1088.7933 62.559013 1088.1875 61.40625 C 1087.0796 59.29768 1085.1882 45.359239 1085.1562 39.15625 C 1085.1355 35.129816 1079.6959 23.49164 1077.4375 22.625 C 1075.2123 21.771131 1074.7653 22.180418 1072 27.6875 C 1068.3925 34.872009 1068.2933 42.093199 1071.5625 57.5 C 1074.4256 70.993019 1074.9946 84.095758 1072.8438 86.6875 C 1071.3733 88.459328 1064.853 88.358235 1062.4375 86.53125 C 1061.3699 85.723742 1059.825 85.05293 1059 85.03125 C 1058.775 85.025336 1058.2453 84.346938 1057.8438 83.9375 z M 1076.8438 26.21875 C 1079.4392 26.718578 1082.9382 38.419975 1082.9688 46.6875 C 1083.0079 57.335011 1084.7106 63.912523 1088.25 67.21875 C 1091.3341 70.099722 1090.8832 70.571354 1085.6875 70.03125 C 1082.3528 69.684599 1080.9919 71.94878 1080.9688 77.875 C 1080.9436 84.339681 1078.348 90.942427 1074.875 93.375 C 1073.3556 94.439206 1070.6345 94.957714 1067.0312 94.90625 C 1059.9668 94.80535 1059 94.390977 1059 91.3125 C 1059 89.029086 1059.2632 88.864666 1061.75 89.59375 C 1063.2625 90.037185 1066.5059 90.40881 1068.9688 90.4375 C 1072.9725 90.484138 1073.6216 90.1959 1074.9062 87.53125 C 1077.5611 82.024314 1077.4261 71.61676 1074.5312 57.5 C 1073.0651 50.35 1071.8252 42.25 1071.7812 39.5 C 1071.6832 33.376727 1074.5828 25.78333 1076.8438 26.21875 z "/>
</svg>
