<svg xmlns="http://www.w3.org/2000/svg"
     width="31.2" height="64.0"
     viewBox="5042.2911 13.0055 44.3339 90.8499">
  <path d="M 5082 50.5625 C 5079.288 48.697614 5077.0865 48.028002 5074.9375 48.5 C 5073.323 48.854613 5071.9916 49.024951 5072 48.84375 C 5072.0083 48.66255 5072.6386 46.475 5073.375 44 C 5074.476 40.299327 5075.1678 39.447716 5077.3438 39.1875 C 5080.626 38.79499 5080.7405 37.669506 5077.625 36.25 C 5076.0441 35.529695 5075.0801 34.059271 5074.7188 31.84375 C 5074.272 29.105574 5074.6184 28.095855 5076.7812 26.28125 C 5079.8772 23.683621 5079.3279 22.446545 5075.7812 24.0625 C 5073.5894 25.0612 5072.6875 24.759252 5068.2812 21.59375 C 5062.3491 17.331905 5060.5293 17.005515 5061.375 20.375 C 5062.0888 23.218786 5057.5819 32 5055.4062 32 C 5053.6109 32 5053.6098 32.903574 5055.4062 34.90625 C 5057.4548 37.189898 5056.3553 42.257462 5053.9688 41.5 C 5050.9549 40.543444 5050.7551 42.827886 5053.7188 44.375 C 5056.6723 45.916834 5060.8142 52.529589 5059.5938 53.75 C 5059.1948 54.148885 5057.5028 53.670923 5055.8438 52.71875 C 5051.3727 50.152703 5050.4565 50.533166 5048.5 55.65625 C 5046.2911 61.440228 5046.9222 62.573636 5053.9688 65.40625 C 5058.0386 67.042236 5059.5462 68.225489 5060.0625 70.15625 C 5060.8019 72.920965 5060.5077 83.873242 5059.4375 93.375 C 5059.0738 96.603903 5059.1508 99.065301 5059.625 98.84375 C 5060.0992 98.622198 5061.7737 97.784364 5063.3438 97 C 5065.8751 95.73535 5066.5415 95.762637 5069.1875 97.28125 C 5073.6728 99.855464 5074.3929 98.772852 5073.4375 90.625 C 5072.9789 86.714357 5072.5883 79.738179 5072.5625 75.125 C 5072.5186 67.265459 5072.6639 66.607525 5075.0625 64.8125 C 5076.4402 63.781511 5077.2547 63.451633 5078.5 63.71875 L 5078.4375 62.96875 L 5080.3438 60.21875 C 5080.1165 59.504031 5080.4702 58.737332 5081.375 57.5 C 5081.9004 56.781511 5082.2427 56.440865 5082.625 56.3125 L 5082 50.5625 z M 5066.125 25 C 5071.8401 25 5073.615 33.88061 5070.0312 44.59375 C 5066.8819 54.008237 5067.4923 55.648513 5073 52.5 C 5076.7357 50.364507 5077.7634 50.691872 5078.5312 54.1875 C 5079.1688 57.090656 5078.7867 57.765759 5073.9688 62.21875 L 5068.7188 67.0625 L 5069.3438 76.875 C 5069.6975 82.271932 5070.2786 88.112025 5070.625 89.84375 C 5071.2505 92.971207 5071.2225 93 5067.0938 93 L 5062.9375 93 L 5063.5938 82.65625 C 5063.962 76.959724 5063.9822 70.71647 5063.625 68.8125 C 5063.0252 65.615171 5062.493 65.178201 5056.5 63.0625 C 5049.9184 60.738984 5049.0039 59.667883 5051.25 56.78125 C 5052.3236 55.401493 5053.2392 55.325104 5057.75 56.28125 C 5065.0699 57.832826 5066.0399 56.606632 5062.4062 50.40625 C 5058.9416 44.494197 5058.5235 35.555766 5061.4375 29.09375 C 5062.9714 25.692216 5063.7872 25 5066.125 25 z "/>
</svg>
