<svg xmlns="http://www.w3.org/2000/svg"
     width="30.2" height="64.0"
     viewBox="2790.0000 16.3057 42.3060 89.6756">
  <path d="M 2794,101.375 C 2795.8153,101.60689 2797.5632,101.20892 2799.4688,100.03125 2801.2972,98.90116 2803.5116,96.834064 2804.4062,95.46875 2806.7963,91.821135 2809.5662,92.352495 2812.5,97 2815.44,101.65734 2816.6838,101.98131 2818.0312,98.4375 2820.152,92.859369 2818.9961,86.974472 2814.9062,82.46875 2813.256,80.650658 2813.1703,79.709845 2814.0938,73.46875 2815.486,64.059416 2816.5152,60.713581 2820.5312,52.5 2825.0685,43.220636 2828.306,30.768157 2827.4688,25.8125 2826.5384,20.305668 2824.0919,20.751104 2824.7188,26.3125 2825.3082,31.542722 2822.0059,44.02005 2817.8438,52.28125 2816.2405,55.463437 2813.608,63.854755 2812,70.9375 2808.9741,84.266212 2805.4018,91.948608 2800,96.71875 2797.9399,98.537962 2796.2088,99.23114 2794,98.625 L 2794,101.375 z M 2812.1562,84.34375 C 2812.5271,84.201842 2812.9421,84.504595 2813.625,85.1875 2814.4634,86.025897 2815.4135,88.599329 2815.7188,90.875 2816.3818,95.819206 2815.1999,96.149761 2812.0625,91.90625 2810.0959,89.246212 2809.9425,88.402601 2810.9375,86.21875 2811.4585,85.075167 2811.7854,84.485658 2812.1562,84.34375 z M 2794,88.625 C 2797.2879,87.800094 2800.3561,85.143607 2802.5312,80.9375 2804.9049,76.347141 2808,62.330124 2808,56.1875 2808,50.896797 2807.7245,50.040496 2805.4688,48.5625 2802.6488,46.714849 2800.468,42.156985 2801.7812,40.84375 2802.2455,40.379536 2803.621,41.346224 2804.8438,43 2807.8348,47.045548 2810.3176,46.815516 2813.1562,42.25 2815.0353,39.227926 2815.5,37.114882 2815.5,31.3125 2815.5,26.491826 2815.0476,23.6829 2814.125,22.8125 2812.9626,21.715715 2812.8499,22.161604 2813.375,25.65625 2814.144,30.773885 2812.4899,39.92871 2810.4375,41.96875 2809.0712,43.326843 2808.5338,43.050688 2805.3438,39.21875 2801.1443,34.17423 2799,34.822278 2799,41.125 2799,44.177205 2799.7881,45.85652 2802.6562,49.03125 2806.2944,53.058216 2806.2693,53.067114 2805.625,60 2804.5613,71.444067 2801.2775,81.874325 2797.8125,84.75 2797.1314,85.315263 2795.4459,86.003736 2794,86.40625 L 2794,88.625 z M 2819.1875,21.125 C 2818.535,20.735116 2818,23.406816 2818,28.5 2818,33.56796 2817.3531,37.690089 2816,41.25 2814.9003,44.1434 2814.0003,47.092541 2814,47.8125 2813.9992,50.029314 2815.9525,48.062084 2817.5938,44.1875 2819.8266,38.91587 2821.1269,30.193274 2820.4062,25.25 2820.0342,22.697848 2819.579,21.35893 2819.1875,21.125 z"/>
</svg>
