<svg xmlns="http://www.w3.org/2000/svg"
     width="64.0" height="54.8"
     viewBox="1215.5014 16.2304 100.4986 85.9792">
  <path d="M 1295.4688,20.375 C 1295.1557,20.423187 1294.6678,20.642604 1294,21 1289.7773,23.259889 1287.4401,32.30854 1290.25,35.5 1290.9375,36.280866 1291.8375,36.947829 1292.25,36.96875 1293.3619,37.025139 1293.1595,34.21663 1292,33.5 1290.1425,32.352001 1290.9745,27.188872 1293.5,24.1875 1295.7622,21.499098 1296.4078,20.230438 1295.4688,20.375 z M 1240.4062,21 C 1236.6896,21 1231.1664,26.726315 1229.5,32.3125 1228.1019,36.999015 1228.1085,37.202289 1230.4688,39.5625 1232.4013,41.49498 1233.9338,42 1237.9688,42 1242.4912,42 1243.1614,42.274544 1244.0312,44.5625 1245.2329,47.723121 1245.3139,54.690787 1244.1562,55.40625 1243.6877,55.695893 1241.5601,55.050934 1239.4375,53.96875 1234.277,51.337781 1233.7212,51.435448 1230.125,55.53125 1225.5509,60.740852 1223.3141,65.707655 1221.4375,74.96875 1219.5014,84.524002 1219.9068,92.134589 1222.5,95 1225.4046,98.209629 1226.024,97.313427 1224.0312,92.75 1222.463,89.158356 1222.2987,87.338195 1223,81 1224.2589,69.620297 1227.7665,60.884234 1232.625,57.0625 1234.9867,55.204784 1235.1739,55.212411 1240.25,57 1243.1115,58.007735 1245.7955,58.605299 1246.2188,58.34375 1247.4948,57.555066 1247.1418,42.516767 1245.8125,41.1875 1245.1525,40.5275 1242.305,40 1239.5,40 1236.695,40 1233.8475,39.4725 1233.1875,38.8125 1230.6446,36.269648 1232.5044,29.552159 1236.8438,25.625 1239.662,23.074514 1243.2265,24.126191 1246.5625,28.5 1248.0275,30.420729 1249.8731,32 1250.6562,32 1251.4395,32 1254.5682,30.172604 1257.5938,27.9375 1264.5544,22.795428 1266.9804,22.966837 1268.9688,28.71875 1270.6557,33.598503 1269.9713,34.853413 1266.625,33.0625 1263.1577,31.206856 1260.592,32.468039 1255.9375,38.3125 1251.8262,43.474782 1251.7946,43.547717 1252.1562,50.71875 1252.3564,54.688544 1252.991,58.374641 1253.5312,58.90625 1254.1651,59.530028 1255.9186,59.195214 1258.5,57.96875 1260.7,56.923509 1262.7881,56.049913 1263.125,56.03125 1263.4619,56.012588 1265.4237,57.35 1267.5,59 1269.5763,60.65 1272.3053,62 1273.5625,62 1277.1001,62 1281.3912,57.693433 1284.75,50.78125 1289.1542,41.717773 1289.5881,38.640693 1287.0625,35.09375 1284.727,31.813836 1284.4128,27.922966 1286.2188,25.03125 1288.0373,22.119506 1286.1083,21.158768 1283.9062,23.875 1281.4423,26.914181 1281.4841,31.092424 1284,35.21875 1286.7553,39.737972 1286.5231,41.830262 1282.4688,49.6875 1279.2425,55.940047 1275.9249,60 1274.0312,60 1273.6178,60 1271.5388,58.601018 1269.4062,56.90625 1265.4944,53.797486 1263.3268,53.567011 1257.3438,55.5 1255.3362,56.148633 1255.1682,55.786288 1254.8438,50.5 1254.6525,47.383286 1254.8901,44.108362 1255.375,43.1875 1256.8748,40.339445 1262.3098,35 1263.7188,35 1264.4543,35 1266.0426,36.631464 1267.2188,38.625 1269.2052,41.991895 1269.4542,42.124139 1270.6875,40.4375 1272.593,37.831551 1272.2233,28.145488 1270.0938,24.5 1267.6098,20.247728 1265.2222,20.35464 1258.3125,24.96875 1254.9804,27.193862 1251.8486,29 1251.3438,29 1250.8389,29 1248.7097,27.2 1246.625,25 1244.2279,22.470303 1241.9433,21 1240.4062,21 z M 1302.875,21.21875 C 1300.4713,22.01012 1296.973,29.275126 1297.25,32.90625 1297.6029,37.532339 1299.7949,38.754016 1304,36.65625 1307.9164,34.702494 1309,34.576858 1309,36.15625 1309,38.705945 1305.6573,41 1301.9062,41 1297.6522,41 1295.6499,43.049738 1290.4062,52.875 1288.827,55.834302 1285.9389,60.092373 1283.9688,62.3125 1279.6568,67.171464 1276.4464,67.494282 1267.6875,64 L 1261.9062,61.6875 1259.1875,63.6875 C 1253.3401,68.030125 1253.1885,80.178642 1258.9062,84.96875 1261.617,87.239785 1264.2118,93 1262.5312,93 1262.1571,93 1259.8749,91.84756 1257.4688,90.4375 1252.5946,87.581081 1251.0019,87.914616 1245.75,92.8125 1244.2433,94.217701 1242.7762,95.088755 1242.4688,94.78125 1241.2485,93.561019 1243.3969,88.793485 1245.875,87.21875 1249.8832,84.671706 1249.9345,84.280501 1247.1875,77.15625 1243.7005,68.11312 1241.1415,64 1239,64 1232.8166,64 1223.4038,86.810099 1227.7812,91.1875 1228.7305,92.136852 1229,91.470754 1229,88.15625 1229,79.671144 1234.819,67 1238.7188,67 1239.4782,67 1241.2515,69.5875 1242.6562,72.75 1247.2311,83.049115 1247.2057,82.422318 1243.4375,86.65625 1240.2435,90.244846 1238.9694,94.656846 1240.6562,96.34375 1242.07,97.757504 1244.8745,96.896261 1248.125,94.03125 1249.987,92.390035 1251.8569,91.040035 1252.2812,91.03125 1252.7056,91.022465 1254.7305,92.075293 1256.7812,93.40625 1259.2772,95.02616 1261.5546,95.564016 1265.2812,95.75 L 1265.25,95.5 1264.4062,84.75 C 1263.6445,84.408714 1262.901,84.131501 1262.125,83.59375 1257.7395,80.554609 1256.4914,76.479031 1258.125,70.5625 1259.5984,65.226277 1261.7813,64.556292 1268.4375,67.5 1271.529,68.867184 1274.7843,70 1275.6562,70 1280.6853,70 1289.4598,61.040689 1294.8125,50.4375 1297.3939,45.323881 1298.5352,44.438425 1303.5,43.6875 1308.1177,42.989069 1312,39.194979 1312,35.40625 1312,32.102894 1309.5723,31.342203 1305.375,33.34375 1303.4813,34.246777 1301.275,35 1300.4688,35 1298.1436,35 1298.7184,30.178385 1301.625,25.21875 1303.241,22.461276 1303.7179,20.941221 1302.875,21.21875 z"/>
</svg>
