<svg xmlns="http://www.w3.org/2000/svg"
     width="25.1" height="64.0"
     viewBox="5897.3364 17.0164 35.3656 90.0500">
  <path d="M5906.5 102.10809L5902.5 101.5L5902.6367 89.5C5902.7119 82.9 5902.3694 65.377516 5901.8756 50.561147C5901.3364 34.384363 5901.3415 23.258535 5901.8882 22.711756C5902.389 22.21096 5906.2169 21.62464 5910.3946 21.408823L5917.9905 21.016428L5921.6286 26.495796C5924.7778 31.238875 5925.192 32.531526 5924.7113 36.115547C5924.3179 39.049076 5923.1217 41.315132 5920.6077 43.889756L5917.0593 47.52358L5920.1005 49.51179C5923.9165 52.006471 5926.0 55.869692 5926.0 60.45034C5926.0 64.28499 5924.3427 66.404773 5919.1566 69.20349C5917.4205 70.140409 5916.0 71.288081 5916.0 71.753872C5916.0 72.219663 5918.294 75.174609 5921.0978 78.320418C5927.7435 85.776669 5928.702 90.61407 5924.4194 95.084084C5921.125 98.522785 5913.7622 103.06638 5911.8219 102.85809C5911.0949 102.78005 5908.7 102.44255 5906.5 102.10809Z M5913.8117 30.722334C5913.9831 29.279449 5913.6166 27.152192 5912.9974 25.995096C5912.08 24.281029 5911.0976 23.94767 5907.6944 24.195643C5901.8814 24.61919 5901.7047 26.975732 5907.1946 30.859426C5912.1709 34.379781 5913.3801 34.354729 5913.8117 30.722334Z M5913.3879 44.356969C5914.1294 38.047492 5913.3488 36.583399 5907.3592 33.049456L5904.0 31.067451L5904.0 37.997674C5904.0 44.880357 5904.0256 44.945295 5907.7321 47.463949C5909.7848 48.858777 5911.7479 50.0 5912.0945 50.0C5912.4411 50.0 5913.0231 47.460636 5913.3879 44.356969Z M5914.0 96.154988C5914.0 92.207894 5912.6893 90.391083 5908.1426 88.035858C5904.7233 86.264593 5903.8449 87.828851 5904.6088 94.328851L5905.2754 100.0L5909.6377 100.0L5914.0 100.0L5914.0 96.154988Z M5911.8706 53.344052C5911.1969 52.532293 5909.4243 51.236526 5907.9315 50.46457C5905.4003 49.155664 5905.1779 49.210687 5904.633 51.280507C5904.3116 52.501228 5904.3134 55.766693 5904.637 58.537096C5905.1601 63.016183 5905.6283 63.808385 5908.8627 65.688234L5912.5 67.802276L5912.7977 61.311127C5912.9843 57.243494 5912.6382 54.26893 5911.8706 53.344052Z M5912.794 79.229288C5913.072 72.375772 5912.9354 71.845508 5910.294 69.521494C5905.6134 65.403254 5905.0 66.081785 5905.0 75.378028C5905.0 82.930641 5905.2217 83.912018 5907.25 85.339086C5911.4402 88.287187 5912.4728 87.149208 5912.794 79.229288Z M5921.3651 94.92742C5925.3206 91.81608 5924.9707 87.171643 5920.4172 82.343506C5917.1888 78.920395 5916.7357 78.720906 5915.837 80.326839C5914.4408 82.821663 5915.8402 97.0 5917.4826 97.0C5918.1688 97.0 5919.916 96.067339 5921.3651 94.92742Z M5921.7775 65.443296C5925.022 63.170727 5924.7768 57.873404 5921.25 54.0511C5916.672 49.089461 5915.7795 49.603824 5915.4563 57.390125C5915.299 61.179694 5915.4051 64.892194 5915.6921 65.640125C5916.3859 67.447971 5919.0379 67.362193 5921.7775 65.443296Z M5920.4565 40.655503C5922.9604 38.824536 5922.1309 30.702257 5919.1569 27.931584C5918.0166 26.869213 5916.8398 26.0 5916.5418 26.0C5916.2438 26.0 5916.0 29.6 5916.0 34.0C5916.0 42.438831 5916.6632 43.429226 5920.4565 40.655503Z"/>
</svg>
