<svg xmlns="http://www.w3.org/2000/svg"
     width="41.1" height="64.0"
     viewBox="4689.9463 12.3998 60.5893 94.3063">
  <path d="M 4695.8125,58.96875 4694.7188,61.0625 4694.4688,61.4375 4695.1875,61.4375 4694.5938,66.03125 C 4693.9463,70.912745 4695.5325,77.322519 4697.25,76.75 4697.8119,76.562723 4699.1288,74.193968 4700.1875,71.46875 4701.2461,68.743533 4703.2106,65.372335 4704.5625,64 4706.8849,61.642352 4707.1997,61.588688 4709.7812,63.03125 4715.3046,66.117662 4713.7084,74.619696 4705.9375,83.5 4700.5719,89.631535 4699,92.563122 4699,96.5625 4699,100.4562 4700.4893,99.392707 4701.7812,94.5625 4702.5146,91.820761 4704.7319,88.097386 4707.5938,84.875 4712.8075,79.004595 4714.4916,75.603064 4715.5,68.84375 4716.0889,64.896178 4715.8751,63.874969 4714.0938,62.09375 4709.3921,57.392047 4702.8709,60.258411 4698.9062,68.75 4696.5881,73.714954 4696.4133,70.373656 4698.5938,63.03125 4700.2896,57.320955 4704.6664,52 4707.6875,52 4708.7004,52 4711.2309,52.915603 4713.3125,54.03125 4715.394,55.146898 4717.515,55.787824 4718.0312,55.46875 4720.1678,54.148287 4724.0422,46.012155 4724.6562,41.53125 L 4725.3125,36.71875 4721.7812,37.375 C 4712.6404,39.089818 4707.7014,31.07395 4714.1875,25.03125 4717.5908,21.860601 4721.4369,22.402128 4724.5625,26.5 4727.8782,30.847175 4730.3971,30.932193 4735.2812,26.90625 4740.5517,22.561843 4742.1227,23.743634 4737.6562,28.6875 4733.5515,33.230903 4733.6215,34.607873 4738.125,37.9375 4742.113,40.885947 4743.0679,39.749885 4739.625,36.15625 L 4736.9375,33.3125 4740.5,28 C 4746.5356,19.031098 4743.9866,16.399762 4736.0625,23.4375 4733.2433,25.941376 4730.613,27.978005 4730.2188,27.96875 4729.8247,27.959495 4727.7217,26.159495 4725.5625,23.96875 4720.9901,19.32939 4718.835,19.065882 4713.7812,22.5 4709.82,25.191732 4708.2114,29.67706 4709.4375,34.5625 4710.1365,37.347589 4715.0271,40 4719.4688,40 4721.5653,40 4722.0031,40.473047 4722,42.75 4721.9959,45.730995 4718.6529,52 4717.0625,52 4716.5231,52 4714.4981,51.251811 4712.5938,50.34375 4708.1027,48.202104 4704.2052,49.688917 4699.875,55.15625 L 4696.8125,59.03125 4695.8125,58.96875 z M 4708.0625,90 C 4707.0454,90 4704,96.764876 4704,99.03125 4704,102.70609 4705.5009,101.01605 4707.125,95.5 4708.0153,92.476033 4708.4384,90 4708.0625,90 z M 4727.7188,98.0625 4727.5938,95 C 4726.5341,94.451688 4725.2815,93.697751 4723.4062,92.40625 4717.1968,88.129641 4714.6836,88.42913 4712.9688,93.625 4711.4683,98.171627 4712.3748,99.082594 4714.4375,95.09375 4715.3172,93.392639 4716.4718,92 4717,92 4717.5282,92 4720.3548,93.540353 4723.25,95.4375 4725.3024,96.782441 4726.6063,97.540161 4727.7188,98.0625 z M 4727.375,89.65625 4727.25,87 4727.375,86.46875 C 4725.5334,85.97374 4723.7751,84.593505 4722.75,82.34375 4721.9349,80.554794 4722.3546,79.439862 4725.0938,76.03125 4728.1698,72.203633 4728.3866,71.38895 4728.25,65.1875 4728.1689,61.500895 4728.0276,57.15 4727.9062,55.5 4727.7849,53.85 4728.7665,50.25 4730.0938,47.5 4732.1637,43.210703 4732.9975,42.431893 4736,41.9375 L 4739.5,41.34375 4736.625,40.15625 C 4732.8098,38.568376 4731.4661,39.762374 4727.75,47.9375 4725.4568,52.982177 4724.958,55.129835 4725.5,57.9375 4727.0205,65.814882 4726.4357,70.310665 4723.1562,75.625 4721.4217,78.435829 4720,81.405305 4720,82.25 4720,83.738045 4725.1398,88.736803 4727.375,89.65625 z"/>
</svg>
