<svg xmlns="http://www.w3.org/2000/svg"
     width="64.0" height="63.0"
     viewBox="413.0000 13.2986 92.1380 90.7014">
  <path d="M417.0 92.842079C417.0 91.999422 417.94607 90.453793 419.10238 89.407348C422.52333 86.311428 423.81075 82.848374 425.0467 73.41762C426.08101 65.525404 426.71636 63.747726 430.57216 57.957704C432.96837 54.359441 436.05766 50.355005 437.43724 49.058956L439.94557 46.702504L446.21766 48.758926C449.66732 49.889958 452.78524 50.632731 453.14638 50.409534C453.50752 50.186337 453.73482 46.740384 453.6515 42.751861L453.5 35.5L450.5 35.844293C448.85 36.033654 447.2075 36.258654 446.85 36.344293C446.4925 36.429932 446.12891 36.074154 446.04203 35.553676C445.85636 34.44138 452.97781 32.15927 454.77012 32.756708C456.13967 33.213222 456.53902 50.604579 455.22731 52.666448C454.67034 53.541947 453.11521 53.454972 448.99262 52.317756C439.19464 49.614979 439.68319 49.562154 436.4248 53.67668C430.73152 60.865855 429.18226 64.385051 427.91805 73.0C427.23201 77.675 425.88601 83.075 424.92693 85.0C422.74938 89.370674 417.0 95.058508 417.0 92.842079Z M419.65163 96.318292C418.93341 95.600082 425.9838 89.089609 427.5 89.07094C428.53984 89.058136 435.0 94.583693 435.0 95.485904C435.0 96.824196 431.38149 95.767567 429.31445 93.825686L427.0 91.651372L424.75 93.67692C421.75007 96.377587 420.40683 97.073495 419.65163 96.318292Z M467.03518 98.065741C465.68251 95.538253 465.7252 92.401955 467.16651 88.416077C468.10988 85.807219 468.06206 84.910492 466.91651 83.7281C466.13743 82.923969 464.47442 81.062712 463.22092 79.591975C460.46945 76.363633 459.60507 76.781511 456.94189 82.627548C455.23675 86.370563 455.07243 87.689436 455.97171 90.414281C457.31388 94.481103 456.48521 96.840117 453.44653 97.602775C450.406 98.3659 449.68356 97.842119 446.65966 92.682219C442.18462 85.046146 442.26545 84.047737 447.93008 76.989467C450.71854 73.514986 453.0 69.82363 453.0 68.786454C453.0 63.462919 446.33662 57.112859 442.81717 59.082439C439.72399 60.81347 435.81307 69.116453 434.48291 76.776261C433.17761 84.292979 433.18738 84.379113 435.72307 87.703568C439.08605 92.11266 437.78145 93.242987 433.85798 89.319516L430.78006 86.241595L431.94759 77.468136C432.58973 72.642734 433.96771 67.023464 435.00976 64.980869C437.68025 59.746268 441.88099 54.999332 443.83889 55.003738C449.28036 55.015983 457.00965 64.894163 455.672 70.12669C455.33831 71.43201 453.2506 74.686498 451.03264 77.358884C448.74885 80.110599 447.0 83.277231 447.0 84.660766C447.0 87.148665 450.93392 94.978286 452.19098 94.992298C453.65434 95.008609 453.93298 93.106205 452.90089 90.145543C451.99108 87.535664 452.21177 86.245339 454.33588 81.755332C455.71646 78.837023 457.8236 75.564629 459.0184 74.483345C461.18694 72.520844 461.19416 72.521771 463.10732 75.008688C464.16143 76.378909 466.42493 79.224445 468.13733 81.3321L471.25078 85.1642L469.6295 90.18423C468.73779 92.945247 468.28731 95.655862 468.62844 96.20782C469.48765 97.598055 473.38958 93.189821 474.74734 89.294938C476.15646 85.252731 475.43642 82.891841 470.58333 75.641867C466.156 69.027921 465.66185 65.274333 468.68366 61.211714C472.00038 56.752603 474.47873 57.166548 480.41343 63.170876C485.55669 68.374479 485.71053 68.700207 486.94515 77.0C487.64057 81.675 488.17442 86.428113 488.13149 87.562473C488.01447 90.654786 484.0192 99.129901 482.98096 98.488233C482.08241 97.9329 482.91278 94.899997 485.06377 90.880838C485.84605 89.419145 485.65089 86.341272 484.32303 79.198154C482.63177 70.100261 482.25387 69.232674 478.21733 65.180921C475.85076 62.805428 473.37122 61.039604 472.70724 61.256869C472.04326 61.474134 471.1103 63.194005 470.63401 65.078804C469.89008 68.022702 470.20708 69.210041 472.88311 73.502856C479.06636 83.421849 479.3124 84.414491 476.91348 89.763251C474.84502 94.375194 470.41332 100.0 468.84809 100.0C468.42034 100.0 467.60453 99.129584 467.03518 98.065741Z M495.70608 92.649836C492.21011 88.943021 490.86113 83.846937 489.66058 69.811472C489.31122 65.727257 488.61592 64.502785 484.26609 60.311472C473.2964 49.74155 474.66953 50.472587 469.49631 52.448258C465.87108 53.832747 464.63317 53.940444 463.46721 52.972786C461.43687 51.287754 461.54729 40.631402 463.66297 34.080583L465.32594 28.931498L461.92814 25.425864C457.12576 20.471063 454.99114 20.218598 449.0111 23.898149C444.15876 26.883828 440.96885 27.823628 441.02836 26.25C441.06163 25.370195 450.56629 19.495595 454.17842 18.122266C456.34485 17.298588 457.29923 17.74778 461.54179 21.587966C464.22268 24.014585 466.50157 26.0 466.60599 26.0C466.71041 26.0 468.68321 24.927961 470.98998 23.617692C473.43447 22.229194 476.08432 21.450258 477.34205 21.750467C480.45414 22.493295 482.95207 26.006488 482.97776 29.676758C482.99579 32.252136 482.403 33.151341 479.84636 34.426758C475.79611 36.44729 475.49135 36.423149 471.94443 33.800793C469.12535 31.716558 468.87946 31.691969 467.24099 33.33044C465.96347 34.607959 465.41591 37.178157 465.14355 43.175702C464.73489 52.174561 464.34881 51.839521 471.71607 48.879356C474.93156 47.587373 474.93365 47.588585 483.1941 55.543569L491.45606 63.5L492.67574 72.873708C494.45566 86.552952 494.9134 88.033644 498.3258 91.150387C500.65653 93.279188 501.13796 94.262041 500.27343 95.126573C499.40889 95.991105 498.27992 95.378893 495.70608 92.649836Z M442.0 32.016846C442.0 30.813169 451.97352 25.640182 452.7661 26.432767C453.4566 27.123263 453.58171 27.024841 447.82193 30.322035C442.67091 33.27074 442.0 33.466048 442.0 32.016846Z M479.80107 29.414825C480.22579 25.062457 477.97042 23.355397 473.97945 25.008513C469.63949 26.806181 469.37084 27.912646 472.62252 30.597124C476.56001 33.847788 479.41435 33.377681 479.80107 29.414825Z M488.21339 96.805144C490.41496 93.489399 492.70616 92.324881 494.63479 93.541429C496.75928 94.881525 496.3913 96.562092 494.03531 96.279192C493.02393 96.157748 491.64714 96.720248 490.97577 97.529192C490.30441 98.338137 489.08032 99.0 488.25558 99.0C486.9357 99.0 486.93064 98.737059 488.21339 96.805144Z"/>
</svg>
