<svg xmlns="http://www.w3.org/2000/svg"
     width="56.3" height="64.0"
     viewBox="4284.8531 15.2676 79.0519 89.8094">
  <path d="M 4358.4375 80.71875 C 4358.0263 80.007985 4358.1695 79.018369 4358.5 77.0625 C 4359.905 68.746687 4355.0897 55.879102 4350.3125 55.1875 C 4349.1421 55.01807 4345.7796 56.225332 4342.8438 57.875 L 4337.5 60.875 L 4333.625 57.3125 L 4329.75 53.75 L 4331.3438 50.40625 L 4332.9375 47.0625 L 4336.4375 48.53125 C 4342.8287 51.201658 4346 49.671257 4346 43.9375 C 4346 41.170768 4342.1441 34.282092 4340.1875 33.53125 C 4338.363 32.831123 4337.145 33.852622 4338.6562 34.8125 C 4340.5601 36.021765 4343.9961 42.408201 4344 44.75 C 4344.0029 46.499678 4343.4327 47 4341.4375 47 C 4338.6495 47 4334.9411 45.345213 4333.7812 43.59375 C 4333.3805 42.988587 4333.0773 40.025 4333.125 37 C 4333.1945 32.595102 4333.7002 30.964724 4335.6875 28.84375 C 4337.7574 26.634709 4337.9954 25.868298 4337.0625 24.125 C 4334.4628 19.267568 4327.1672 20.269889 4323.2188 26.03125 C 4321.3256 28.793791 4319.9672 29.846275 4318.75 29.5 C 4317.7875 29.226186 4316.1658 28.753019 4315.1562 28.4375 C 4312.7431 27.683378 4307.7469 31.893242 4305.5312 36.5625 C 4303.6639 40.49764 4304.17 45 4306.4688 45 C 4307.5289 45 4307.7339 44.127914 4307.3125 41.53125 C 4306.8239 38.520413 4307.2243 37.588091 4310.2812 34.53125 C 4314.236 30.576416 4314.8143 30.409148 4317.5625 32.4375 C 4319.1183 33.585796 4319.2519 34.109241 4318.25 35.125 C 4317.5625 35.822027 4317 37.643579 4317 39.15625 C 4317 40.730829 4316.2472 42.316982 4315.25 42.875 C 4314.2921 43.411078 4313.8399 44.183663 4314.25 44.59375 C 4315.4319 45.775627 4320 40.88884 4320 38.4375 C 4320 34.819333 4325.8634 33.67633 4329.1562 36.65625 C 4331.307 38.602622 4331.6421 45.243409 4329.75 48.90625 C 4328.3656 51.586112 4317.3214 59.841709 4315 59.9375 C 4314.175 59.971542 4311.7 58.886267 4309.5 57.53125 C 4299.1179 51.136764 4290.0965 57.997679 4289.1875 73 C 4288.8531 78.518831 4289.1278 79.91511 4290.9688 82.25 C 4292.1613 83.7625 4293.869 85 4294.75 85 C 4296.0803 85 4296.0003 84.618675 4294.2812 82.75 C 4293.0692 81.43255 4291.9249 78.400538 4291.5312 75.4375 C 4290.351 66.55249 4295.4844 58 4302 58 C 4306.0072 58 4314 62.746698 4314 65.125 C 4314 68.055223 4311.6399 68.365855 4307.125 66.0625 C 4301.9904 63.443042 4300.8329 63.474331 4298.3125 66.25 C 4294.3129 70.654676 4294.8189 78.127782 4299.375 81.90625 C 4301.6347 83.78034 4302.7302 82.456612 4300.75 80.25 C 4298.1174 77.316258 4297.4578 71.25994 4299.5312 68.96875 C 4301.8393 66.418406 4303.2402 66.491981 4307.9062 69.4375 C 4311.5893 71.762486 4311.7679 72.153151 4312.25 78.1875 C 4312.7227 84.104727 4312.5411 84.807839 4309.375 89.5 C 4306.2854 94.07891 4305.0768 98.764219 4306.5938 100.28125 C 4307.3894 101.07696 4316 96.871555 4316 95.6875 C 4316 95.182949 4315.1 95.035852 4314 95.375 C 4312.9 95.714147 4311.0931 96.287651 4310 96.625 C 4308.1926 97.182794 4308.117 96.966441 4309.0312 94.34375 C 4309.5842 92.757567 4310.8937 90.93313 4311.9375 90.28125 C 4313.5951 89.246059 4314.2798 89.639498 4317.4688 93.53125 C 4319.4768 95.981963 4321.5494 98 4322.0625 98 C 4323.8681 98 4322.9648 95.658789 4319.5312 91.46875 C 4315.337 86.350067 4313.8566 80.408385 4314.875 72.90625 C 4315.79 66.165483 4318.4718 61.269598 4322.9062 58.28125 C 4325.869 56.28461 4326.4679 56.208923 4328.8438 57.4375 C 4334.0605 60.135177 4338 67.141575 4338 73.78125 C 4338 79.38136 4335.936 90.289336 4334.4062 92.71875 C 4332.5661 95.64126 4332.6211 96 4335.0312 96 C 4336.1506 96 4338.1328 96.707615 4339.4375 97.5625 C 4343.0521 99.930855 4343.9461 97.335271 4340.4688 94.5625 C 4338.4711 92.969613 4338.0194 92.110579 4338.9062 91.5625 C 4339.6392 91.109569 4341.051 91.662445 4342.375 92.90625 C 4343.6072 94.063873 4344.9354 95 4345.3125 95 C 4346.4514 95 4346.0864 91.154938 4344.875 90.40625 C 4344.0943 89.923767 4344.2197 89.469082 4345.2812 88.875 C 4346.1251 88.402709 4347.5783 85.529649 4348.5312 82.5 C 4351.5297 72.967608 4348.9209 62.560956 4344.0312 64.59375 C 4340.2186 66.178786 4339 66.190186 4339 64.65625 C 4339 62.721902 4347.2701 57.703528 4349.7188 58.15625 C 4352.4816 58.667055 4355.9212 66.71363 4355.9688 72.78125 C 4356.0085 77.859256 4353.0765 84.586653 4350.0312 86.46875 C 4348.3927 87.481424 4348.825 88.989254 4350.75 89 C 4350.941 89.001066 4351.8089 89.417599 4352.1562 89.5 L 4352 88.40625 L 4354.3438 85.59375 C 4354.3449 85.589672 4354.3423 85.5665 4354.3438 85.5625 C 4354.451 85.256249 4354.6084 85.043734 4354.9062 84.90625 L 4358.4375 80.71875 z M 4331.25 24 C 4335.0624 24 4335.363 25.394093 4332.2812 28.90625 C 4329.116 32.513339 4324 33.307225 4324 30.1875 C 4324 27.567983 4328.1718 24 4331.25 24 z M 4345.0938 67.125 C 4345.6267 67.154627 4346.0206 67.633407 4346.7188 68.5625 C 4348.6292 71.104938 4347.7146 79.680161 4344.9688 85.0625 C 4343.8673 87.221793 4342.845 88.9388 4342.7188 88.875 C 4342.5925 88.811199 4341.6698 88.542605 4340.6562 88.28125 C 4339.325 87.937959 4338.9878 87.215832 4339.4062 85.65625 C 4339.7247 84.468906 4339.9925 80.481071 4340 76.78125 C 4340.0125 70.633582 4340.2295 69.913349 4342.625 68.34375 C 4343.8775 67.523096 4344.5608 67.095373 4345.0938 67.125 z "/>
</svg>
