<svg xmlns="http://www.w3.org/2000/svg"
     width="28.8" height="64.0"
     viewBox="2994.6250 17.0918 41.4688 92.2014">
  <path d="M 3001.75 64.34375 L 3001.9062 64.84375 L 3000.9688 71.59375 C 3001.0197 71.669428 3000.9161 71.841132 3000.9375 71.9375 L 3000.0312 78.53125 L 2999.3438 79.59375 C 2999.6264 79.59928 3000.0415 79.522818 3000.1562 79.59375 C 3000.6156 79.877581 3001 82.543264 3001 85.5 C 3001 98.523792 3008.6109 105.29324 3014.5312 97.53125 C 3016.7941 94.564563 3017.3418 92.483709 3018.25 83.125 C 3019.1541 73.80922 3019.0689 71.16598 3017.6562 65.34375 C 3015.8371 57.846747 3015.5399 48.64875 3016.9375 42.625 C 3018.2012 37.178156 3019.0617 36.632917 3023.9375 38.09375 C 3027.7461 39.234848 3028.2775 39.160027 3030.1562 37.28125 C 3031.8472 35.590362 3032.0938 34.516768 3031.5312 31.1875 C 3031.1547 28.958723 3029.6935 25.867465 3028.2812 24.34375 L 3025.7188 21.59375 L 3022.8438 25 C 3021.2733 26.881015 3020 28.785474 3020 29.21875 C 3020 31.453326 3015.2569 29.527085 3011.8125 25.90625 C 3007.2326 21.091791 3006.9033 21.248276 3002.0625 30.3125 L 2998.625 36.71875 L 3000.5625 42.625 C 3001.9402 46.827428 3002.4392 50.906586 3002.3125 56.90625 C 3002.2296 60.827806 3002.1388 62.924706 3001.75 64.34375 z M 3026.0938 26.03125 C 3026.538 26.038825 3026.905 26.526812 3027.5938 27.46875 C 3028.3691 28.52907 3029 30.867621 3029 32.6875 C 3029 35.666067 3028.7154 36 3026.125 36 C 3020.7178 36 3019.6601 31.446992 3024.125 27.40625 C 3025.1339 26.493258 3025.6495 26.023675 3026.0938 26.03125 z M 3007.25 27.03125 C 3007.9447 27.047373 3010.0408 28.460375 3011.9062 30.15625 C 3014.7983 32.785211 3015.3071 33.922062 3015.4375 38.03125 C 3015.5216 40.681981 3015.2717 42.651406 3014.875 42.40625 C 3013.0321 41.267291 3012.7798 53.782969 3014.4688 62.75 C 3017.3427 78.008753 3016.6711 92.833816 3012.9062 96.875 C 3009.9292 100.07041 3008.4918 99.552929 3005.125 94 C 3002.7118 90.019907 3002.2683 80.870028 3004 70.5 C 3006.2016 57.316021 3006.1587 50.159923 3003.8125 42.875 L 3001.5938 36 L 3003.7812 31.5 C 3004.9828 29.026656 3006.5554 27.015128 3007.25 27.03125 z "/>
</svg>
