<svg xmlns="http://www.w3.org/2000/svg"
     width="38.1" height="64.0"
     viewBox="1557.9516 16.0521 50.8045 85.3554">
  <path d="M1578.034 95.248446C1572.2576 92.334491 1570.4941 88.042227 1570.5364 77.0C1570.5684 68.641993 1570.9591 66.559291 1573.7864 59.674442C1578.6922 47.728225 1578.1461 44.860373 1570.7009 43.46899C1566.0565 42.601017 1564.3896 41.032407 1562.9281 36.154332C1561.9516 32.894964 1562.1006 31.764273 1564.0543 27.607868C1566.7057 21.967157 1569.8603 20.052103 1573.3894 21.9408C1574.6941 22.639088 1576.715 22.907858 1577.8801 22.538066C1579.5304 22.014281 1580.2031 22.403941 1580.9245 24.301535C1581.4339 25.641235 1583.0729 27.698753 1584.5667 28.873797C1587.526 31.201624 1587.2496 31.294564 1593.7848 25.774541C1599.3862 21.043266 1601.79 22.352567 1599.9625 29.13941C1599.2976 31.608429 1597.2395 34.952985 1594.9441 37.294684C1589.0414 43.31637 1581.9705 62.700915 1581.7163 73.558182C1581.4871 83.348126 1585.3889 84.507449 1592.776 76.844281C1596.194 73.298595 1598.2541 71.883529 1599.373 72.312896C1604.7561 74.378562 1595.8368 90.930298 1586.8311 95.587321C1583.3113 97.407484 1582.2315 97.365886 1578.034 95.248446Z M1588.0275 92.275802C1593.418 88.516747 1596.0766 85.4763 1597.173 81.81685C1597.8041 79.71049 1598.0139 77.680572 1597.6393 77.305921C1597.2646 76.931269 1595.055 78.45024 1592.729 80.681411C1587.8496 85.361962 1584.9616 86.361811 1582.1036 84.35998C1580.0632 82.930876 1577.639 76.393142 1578.583 74.865685C1578.8624 74.413581 1579.3291 71.466654 1579.62 68.316957C1579.9109 65.16726 1580.5198 61.894933 1580.9731 61.045118C1581.4263 60.195303 1582.9606 55.934621 1584.3825 51.576935C1586.8797 43.924196 1591.3401 36.0 1593.1507 36.0C1594.0494 36.0 1597.9895 30.104772 1597.9963 28.75C1598.0043 27.134867 1595.2618 28.139043 1591.9622 30.959359C1590.058 32.587007 1587.7024 33.937007 1586.7277 33.959359C1585.7529 33.981712 1583.0529 32.263877 1580.7277 30.141948C1574.5435 24.498487 1572.5349 23.634509 1569.2542 25.206916C1565.4833 27.014239 1564.4039 30.637468 1566.2908 35.153579C1567.5518 38.171665 1568.6533 39.056263 1572.9113 40.470532C1581.0002 43.157231 1581.268 45.082149 1575.8144 61.338078C1572.1655 72.214422 1571.8736 80.328293 1574.8813 87.272673C1577.7047 93.791676 1582.9766 95.79803 1588.0275 92.275802Z"/>
</svg>
