<svg xmlns="http://www.w3.org/2000/svg"
     width="64.0" height="52.5"
     viewBox="6251.3147 53.2524 64.1355 52.6394">
  <path d="M 6255.9688 87.25 L 6255.5312 98.3125 L 6255.5625 98.71875 C 6257.0151 98.606209 6258.6974 98.213774 6261.125 97.34375 L 6265.7188 95.71875 L 6272.125 98.90625 C 6276.3635 101.02443 6279.282 101.8918 6280.8438 101.5 C 6283.7658 100.76693 6288 98.04602 6288 96.90625 C 6288 96.438856 6288.9022 95.58749 6290 95 C 6291.5816 94.153542 6292.5784 94.387718 6294.8438 96.0625 C 6300.7625 100.43849 6306.5491 96.472891 6302.5625 90.78125 C 6300.449 87.763835 6300.6042 84.193425 6303 80 C 6310.688 66.543753 6311.4502 63.450177 6308 60 C 6305.2524 57.252364 6304.6016 57.420166 6299.5312 62.09375 C 6296.4561 64.928412 6293.4938 69.40549 6289.875 76.6875 C 6287.0036 82.465335 6283.61 87.85787 6282.3438 88.6875 C 6280.2166 90.081267 6279.5331 89.96081 6273.4062 87.09375 C 6265.6183 83.4493 6264.1151 83.328433 6260.7188 86 C 6258.2249 87.961689 6257.414 88.286865 6255.9688 87.25 z M 6303.9688 61.1875 C 6305.1007 61.009768 6306.1225 61.442659 6307 62.5 C 6308.8211 64.694302 6307.5747 69.215648 6303.5312 75.09375 C 6301.597 77.905717 6299.5072 81.920967 6298.875 84.03125 C 6297.8842 87.338179 6298.0155 88.431624 6299.75 91.9375 C 6302.138 96.764018 6300.772 97.357634 6296.1875 93.5 C 6294.5534 92.125 6292.8727 91 6292.4688 91 C 6292.0649 91 6290.0493 92.526644 6287.9688 94.40625 C 6281.1466 100.56966 6279.9268 100.66856 6271.1562 95.71875 C 6265.4279 92.485868 6265.9945 92.492403 6257.25 95.75 C 6255.3147 96.470961 6255.7343 91.933838 6257.75 90.34375 C 6258.7125 89.584463 6260.7812 88.260082 6262.3438 87.40625 C 6264.8488 86.037381 6265.3808 86.01356 6266.8438 87.3125 C 6269.4227 89.602292 6275.9125 92 6279.5625 92 C 6283.9829 92 6285.4274 90.31747 6290.75 79.0625 C 6296.094 67.762321 6300.5728 61.720695 6303.9688 61.1875 z "/>
</svg>
