<svg xmlns="http://www.w3.org/2000/svg"
     width="57.8" height="64.0"
     viewBox="1318.3421 15.2898 77.6579 86.0185">
  <path d="M 1374.0625,52.25 C 1373.0675,52.865265 1372.3684,52.564163 1370.1875,51.3125 1367.2126,49.605157 1366.9915,49.596482 1362.6875,51.6875 L 1358.25,53.84375 1357.7188,49.3125 C 1357.0599,43.466253 1360.0426,34.554232 1362.6875,34.40625 1363.6896,34.350183 1365.4493,34.237683 1366.5938,34.15625 1372.2162,33.756234 1371.763,22.985868 1366.125,23 1364.6792,23.003624 1362.2201,23.844002 1360.6562,24.875 L 1357.8125,26.75 1352.6875,23.375 C 1347.1929,19.756348 1344.7304,19.289757 1341.375,21.25 1340.2121,21.929392 1337.3996,23.532572 1335.125,24.78125 1331.0984,26.991721 1329.7271,29.008641 1332.25,29 1332.9375,28.997645 1335.525,27.645291 1338,26 1343.5843,22.287773 1345.4592,22.277894 1351.0625,25.84375 1357.4451,29.905523 1358.1447,30.986716 1356.9688,35.0625 1356.4256,36.944686 1355.7171,42.120359 1355.375,46.53125 1354.6014,56.506435 1355.5191,57.796235 1361.5,54.96875 1363.6958,53.930679 1366.084,53.049913 1366.7812,53.03125 1367.4784,53.012588 1371.6409,55.30181 1376.0312,58.125 L 1384,63.28125 1384.0625,71.375 C 1384.1221,79.945207 1385.2405,84.233035 1388.5,88.4375 1390.5009,91.018374 1392,91.743566 1392,90.125 1392,89.644274 1390.841,87.198759 1389.4375,84.6875 1387.2783,80.824379 1386.8797,78.766458 1386.7812,71.3125 1386.7173,66.466985 1386.1807,61.887303 1385.5938,61.125 1385.0069,60.362696 1382.8206,58.650846 1380.75,57.34375 1379.2241,56.380521 1378.1522,55.438739 1377.5625,54.71875 L 1374.0625,52.25 z M 1364.0938,25.34375 C 1366.2393,24.804679 1368.1154,26.225197 1367.8125,28.84375 1367.601,30.672905 1366.8732,31.552188 1365.5,31.65625 1360.126,32.06351 1358.4767,29.694501 1361.9375,26.5625 1362.6437,25.92341 1363.3786,25.52344 1364.0938,25.34375 z M 1341.8438,29.53125 C 1341.1162,28.796582 1334.0196,33.06391 1334,34.25 1333.9756,35.726614 1336.5517,34.957688 1339.5,32.59375 1341.15,31.270782 1342.204,29.8949 1341.8438,29.53125 z M 1344.9375,35 1339.9688,37.5 C 1337.2338,38.885935 1335,40.490515 1335,41.03125 1335,42.397905 1335.5329,42.278319 1339.9375,40.03125 1344.4035,37.75287 1344.5268,37.877107 1345.625,46.15625 L 1346.3125,51.3125 1342.9062,50.65625 C 1341.0365,50.299671 1338.3105,49.734381 1336.875,49.40625 1334.5794,48.881561 1333.7013,49.557873 1329.5625,55 1323.6375,62.790805 1322.3421,65.51533 1323.75,67.21875 1325.34,69.14252 1328,80.236935 1328,84.96875 1328,87.816918 1328.35,88.885217 1329.125,88.40625 1330.7203,87.420278 1329.6456,73.473585 1327.5938,68.5625 1326.1514,65.110789 1326.1518,64.454358 1327.4688,62.59375 1334.8848,52.115124 1334.4652,52.46935 1338.0625,52.8125 1339.9491,52.992467 1342.5619,53.831923 1343.8438,54.65625 1347.8917,57.259278 1348.8223,55.90047 1348.4062,48.03125 1348.1993,44.120079 1347.3129,39.601088 1346.4688,37.96875 L 1344.9375,35 z M 1339.5625,59 C 1338.718,59 1336.8702,60.725834 1335.4688,62.84375 1332.9923,66.585952 1332.9736,66.902754 1334.125,73.875 1335.0233,79.314266 1335.0287,81.994416 1334.1562,84.90625 1333.5234,87.018671 1333.013,89.36381 1333.0312,90.125 1333.0515,90.966039 1333.8856,90.51924 1335.1562,89 1337.0592,86.724583 1337.21,85.604389 1336.75,76.46875 1336.3148,67.827389 1336.4887,66.123693 1338.0312,64.21875 1340.3244,61.386898 1340.8819,61.426274 1344.8125,64.75 1349.832,68.994394 1350.0625,73.234395 1345.5938,79.875 1343.6179,82.81096 1342,85.646936 1342,86.1875 1342,87.712661 1344.2443,86.587397 1345.4375,84.46875 1346.0268,83.422322 1347.4476,80.977086 1348.5938,79.03125 1352.0569,73.151946 1352.2013,70.997297 1349.4375,66.28125 1347.0175,62.151834 1342.7342,59 1339.5625,59 z M 1365.125,59 C 1363.1654,59 1357.9936,67.4289 1358,70.625 1358.007,74.092915 1361.8802,78.951629 1365.9062,80.5625 1370.4276,82.371597 1371.4471,84.861607 1370.4375,91.59375 1369.5872,97.264199 1371.2383,97.308266 1372.75,91.65625 1374.6408,84.58669 1372.5705,80.109593 1366.25,77.46875 1363.2038,76.195961 1361,72.830254 1361,69.5 1361,68.753003 1362.122,66.825169 1363.5,65.1875 L 1366,62.1875 1371.5,65.1875 C 1376.6148,67.957797 1376.9855,68.391579 1377,71.8125 1377.0086,73.83369 1377.6568,78.096665 1378.4062,81.28125 1379.7178,86.855281 1379.6642,87.220294 1377.375,90.59375 1374.9028,94.236664 1374.4054,96 1375.8438,96 1376.3063,96 1377.9289,93.740564 1379.4375,90.96875 1381.8129,86.604296 1382.0325,85.505445 1381.0938,82.8125 1380.4975,81.102241 1380,76.831008 1380,73.3125 1380,67.183644 1379.8584,66.850761 1376.875,65.21875 1375.1622,64.28183 1372.2304,62.4875 1370.3438,61.25 1368.4571,60.0125 1366.1132,59 1365.125,59 z M 1384.25,91.28125 C 1382.6492,91.419429 1381,92.894281 1381,94.625 1381,95.382655 1381.675,96 1382.5,96 1383.325,96 1384,95.524564 1384,94.9375 1384,94.305315 1384.8704,94.133049 1386.125,94.53125 1388.61,95.319939 1388.3657,93.255253 1385.7812,91.625 1385.3226,91.335656 1384.7836,91.23519 1384.25,91.28125 z M 1356.6562,78.875 1353.125,82.40625 C 1351.1878,84.343443 1349.942,86.254584 1350.3438,86.65625 1350.7454,87.057917 1352.2296,86.239166 1353.6562,84.8125 1356.2079,82.260981 1356.307,82.226151 1360.6875,83.71875 1365.7533,85.444836 1366.4934,86.548931 1365.0625,90.3125 1364.5054,91.777571 1364.3066,93.670224 1364.625,94.5 1364.9435,95.329776 1365.7784,96 1366.4688,96 1367.9016,96 1369.5322,85.12269 1368.2812,83.90625 1367.8529,83.489717 1365.0478,82.201111 1362.0625,81.03125 L 1356.6562,78.875 z"/>
</svg>
