<svg xmlns="http://www.w3.org/2000/svg"
     width="64.0" height="58.0"
     viewBox="7066.4816 12.4866 99.9127 90.5069">
  <path d="M7090.8302 86.337811L7084.1605 82.77581L7080.5341 85.541777C7077.6413 87.748262 7076.6642 88.053397 7075.7039 87.050302C7074.7587 86.063121 7074.9093 85.546456 7076.4043 84.646429C7077.4517 84.015893 7079.7611 82.2625 7081.5363 80.75C7085.4538 77.412326 7086.7202 77.315914 7088.1042 80.25C7089.6001 83.421497 7097.8789 87.319473 7101.2969 86.461616C7106.9109 85.052587 7107.2073 72.872519 7101.7641 67.25665C7097.8112 63.178279 7094.7358 63.120559 7089.5719 67.02782C7079.0318 75.002835 7070.4816 66.621295 7070.6713 48.5C7070.7642 39.619678 7072.6336 25.966444 7073.9346 24.665404C7075.4573 23.142705 7075.8055 25.419788 7074.9033 31.0C7072.7473 44.335484 7072.8497 52.166058 7075.2692 58.972616C7077.2241 64.472051 7078.0202 65.574326 7080.5638 66.30384C7083.1144 67.035341 7084.3445 66.632953 7088.8726 63.585718C7092.9506 60.841447 7094.8058 60.15594 7096.8438 60.640385C7106.6985 62.982932 7111.1346 72.143309 7107.8016 83.26791C7106.8904 86.309037 7105.8195 87.595317 7103.3337 88.633929C7098.8939 90.488992 7098.4509 90.407636 7090.8302 86.337811Z M7083.3418 59.526882C7080.2322 57.348819 7077.8191 50.51309 7078.4338 45.623891C7078.7189 43.355751 7079.2133 38.883296 7079.5324 35.685103C7080.1815 29.17925 7080.8151 27.0 7082.0577 27.0C7082.5217 27.0 7082.6349 32.299289 7082.3093 38.776198C7081.8144 48.619084 7081.9909 51.081651 7083.3843 53.776198C7085.0918 57.078239 7086.4004 57.779228 7087.5088 55.98571C7087.8536 55.427851 7089.9366 54.05265 7092.1378 52.92971C7096.003 50.957829 7096.293 50.94647 7100.6163 52.597584C7103.2629 53.608297 7105.4458 53.937787 7105.9562 53.403584C7107.9686 51.297628 7107.4973 42.815569 7104.9003 34.399503C7103.9729 31.39406 7103.7953 31.31325 7099.1084 31.763605C7094.892 32.168748 7094.0638 31.929184 7092.6366 29.891595C7090.4608 26.785165 7090.5689 23.700139 7092.9283 21.564855C7095.0189 19.672893 7097.992 20.080471 7100.0321 22.538726C7101.8513 24.730726 7103.8673 24.323665 7107.6528 21.0C7110.8385 18.202908 7115.0 16.963579 7115.0 18.811942C7115.0 19.258509 7116.3737 20.639484 7118.0526 21.880775L7121.1052 24.137666L7125.1099 20.519641C7129.1348 16.883411 7132.3254 16.486591 7134.2347 19.384781C7135.6388 21.516106 7134.9873 25.746374 7132.8334 28.484698C7130.8635 30.988938 7130.2346 31.187926 7125.9083 30.675546L7121.1498 30.111977L7119.5749 34.734127C7117.7291 40.151363 7117.5499 46.410325 7119.1123 50.892222C7120.1467 53.859542 7120.3742 53.986062 7122.3623 52.699634C7126.6106 49.950664 7129.5298 49.908398 7134.4503 52.524621C7139.3124 55.109821 7140.0014 55.050231 7143.6991 51.72472C7144.9667 50.584776 7146.5821 50.009381 7147.5125 50.366423C7149.6442 51.184446 7148.6881 52.540508 7143.8073 55.621657C7140.7632 57.54331 7139.1392 57.977564 7137.1413 57.404108C7130.8211 55.589951 7124.5046 55.154081 7121.9148 56.353398C7120.9396 56.805023 7119.4291 56.358317 7117.9894 55.192481C7114.8551 52.654524 7114.1089 43.577021 7116.3896 35.731704C7118.5274 28.377854 7118.4283 26.751028 7115.6855 24.174314C7112.6873 21.357569 7110.8837 21.430419 7108.0149 24.484152L7105.6811 26.968304L7108.4014 36.032548C7110.8522 44.198687 7111.0111 45.629334 7110.0059 50.471551C7108.5172 57.642426 7107.161 58.681689 7101.991 56.61309C7096.3937 54.373493 7094.8251 54.562815 7090.5 58.0C7086.1343 61.469384 7086.1196 61.472523 7083.3418 59.526882Z M7093.0 96.5C7087.7249 93.675308 7084.3002 93.401016 7081.2225 95.556704C7078.3577 97.563275 7078.3326 95.699688 7081.1886 93.038955C7084.067 90.357268 7087.3387 90.478933 7093.8493 93.509769C7101.2055 96.93427 7103.6634 96.687643 7110.9517 91.793677C7117.1907 87.604282 7117.2279 87.594221 7120.189 89.293677C7124.1208 91.550227 7126.4782 91.445668 7129.9761 88.859583L7132.8711 86.719167L7137.654 88.967384C7146.0068 92.893666 7146.3941 92.950767 7150.9219 90.923617C7154.1242 89.489893 7155.6496 89.277312 7157.1135 90.060768C7159.4788 91.326592 7158.6847 92.987017 7155.691 93.035435C7154.4859 93.054925 7152.375 93.713979 7151.0 94.5C7147.3818 96.568366 7144.52 96.325594 7139.2122 93.5C7133.7503 90.592454 7131.7469 90.395054 7129.9292 92.585323C7128.9187 93.8029 7127.5565 94.024576 7124.0567 93.540951C7114.5093 92.221596 7113.0074 92.463673 7109.8625 95.828644C7107.3284 98.540121 7106.2172 98.993447 7102.1993 98.954813C7099.2168 98.926134 7095.856 98.029292 7093.0 96.5Z M7100.0 27.860243C7100.0 26.493353 7097.0012 24.076359 7095.25 24.031803C7093.6607 23.991367 7093.631 26.230989 7095.2 27.8C7096.7233 29.323303 7100.0 29.364427 7100.0 27.860243Z M7141.0 84.5C7137.2937 80.676022 7135.4038 80.227377 7132.4411 82.468197C7129.3108 84.835843 7124.2723 84.363183 7121.3355 81.426389C7119.0106 79.101467 7118.827 78.361626 7119.4361 73.770008C7120.2871 67.355047 7122.3994 63.230755 7125.5751 61.783825C7127.5993 60.861526 7129.0156 61.052899 7133.2963 62.82718C7136.1796 64.022231 7138.9254 65.0 7139.3981 65.0C7139.8708 65.0 7142.0009 63.425 7144.1317 61.5C7148.2797 57.752522 7150.0 57.143375 7150.0 59.422077C7150.0 60.832423 7142.3603 68.0 7140.857 68.0C7140.4264 68.0 7137.7907 67.1 7135.0 66.0C7132.2093 64.9 7129.053 64.0 7127.986 64.0C7125.2256 64.0 7122.7048 68.398539 7122.5944 73.407813C7122.4333 80.717893 7126.4673 82.995291 7132.5 79.0C7134.15 77.907248 7135.9621 77.010213 7136.5268 77.006589C7137.0916 77.002965 7139.3416 78.785198 7141.5268 80.967106C7143.7121 83.149014 7145.8906 84.949014 7146.368 84.967106C7146.8454 84.985198 7148.7735 83.65 7150.6528 82.0C7154.3123 78.786885 7158.9532 78.033713 7160.8689 80.342009C7162.3943 82.180056 7161.2845 83.006279 7158.1319 82.379492C7156.103 81.976093 7154.8271 82.559987 7152.5629 84.928103C7148.6037 89.069026 7145.3103 88.947092 7141.0 84.5Z M7130.9648 27.065741C7131.5342 26.001899 7132.0 24.172009 7132.0 22.999319C7132.0 19.757094 7127.022 20.668465 7125.0315 24.275102C7123.6722 26.738127 7123.6687 27.158116 7125.0 28.00979C7127.3962 29.542696 7129.8468 29.154848 7130.9648 27.065741Z"/>
</svg>
