<svg xmlns="http://www.w3.org/2000/svg"
     width="54.6" height="64.0"
     viewBox="3134.9466 12.8315 79.6110 93.2415">
  <path d="M3175.4167 99.524009C3175.0581 98.095334 3175.0479 95.51056 3175.394 93.780066C3175.9047 91.226546 3175.5148 90.102963 3173.3245 87.816857C3171.8402 86.267585 3170.2069 85.0 3169.6949 85.0C3169.1829 85.0 3167.159 86.409198 3165.1974 88.131551C3152.908 98.921816 3138.9466 96.344592 3139.022 83.29966C3139.0466 79.042308 3141.8086 72.223676 3144.3657 70.107499C3146.6422 68.223532 3147.0918 68.937581 3147.3643 74.870211C3147.7773 83.860085 3154.9395 87.981812 3161.3651 82.92742C3164.7591 80.257731 3164.689 78.141987 3161.055 73.569235C3159.4353 71.531059 3157.6004 68.319182 3156.9775 66.43173C3156.2556 64.244362 3155.204 63.0 3154.0774 63.0C3152.3981 63.0 3149.0 60.102953 3149.0 58.671259C3149.0 57.469041 3151.8205 57.964937 3152.2917 59.25C3152.598 60.08547 3153.0875 60.168376 3153.7677 59.5C3155.1798 58.11252 3154.0828 52.0 3152.4217 52.0C3150.8903 52.0 3148.7459 48.58745 3149.6863 47.647026C3150.0251 47.30826 3150.8756 47.811592 3151.5764 48.765544C3152.7497 50.362727 3152.9251 50.302138 3153.7918 48.0C3155.9366 42.302681 3156.0311 41.270721 3154.5226 40.018738C3153.6852 39.323743 3153.0069 37.797711 3153.0153 36.627555C3153.0266 35.052454 3153.2539 34.85237 3153.8905 35.857012C3155.1344 37.820222 3158.4822 36.431937 3159.8748 33.375341C3160.7857 31.376187 3160.7746 30.018722 3159.8259 27.395216C3158.871 24.754483 3158.8651 23.734856 3159.7993 22.800652C3160.7336 21.866449 3161.0 22.051238 3161.0 23.633333C3161.0 26.597962 3161.6418 26.865561 3166.2993 25.842734C3170.5583 24.907403 3173.3973 22.477759 3172.6146 20.43801C3172.3783 19.822352 3172.5841 18.68444 3173.0719 17.909316C3173.7502 16.831514 3174.2403 17.237782 3175.1558 19.636419C3175.9765 21.787068 3177.72 23.437133 3180.7031 24.886419C3183.0958 26.048889 3185.2665 27.0 3185.5268 27.0C3185.787 27.0 3186.0 25.6125 3186.0 23.916667C3186.0 21.887768 3186.4275 20.980106 3187.25 21.262519C3187.9958 21.518594 3188.5 23.468099 3188.5 26.095852C3188.5 30.548794 3190.2658 35.0 3192.0323 35.0C3192.5614 35.0 3193.5844 33.553637 3194.3058 31.78586C3195.0271 30.018084 3195.8907 29.014068 3196.2248 29.554716C3196.5589 30.095363 3196.0393 32.252566 3195.0701 34.348502C3193.56 37.613838 3193.31 43.0 3194.6685 43.0C3194.9079 43.0 3196.842 41.999612 3198.9665 40.776916C3204.1166 37.81289 3207.9795 38.982019 3209.2512 43.889613C3210.2815 47.865705 3209.1026 51.342657 3204.467 58.0C3200.9006 63.121732 3197.7006 63.998257 3197.1653 60.0C3196.6047 55.811915 3195.3571 55.659296 3192.3625 59.412443C3190.7881 61.385567 3188.9533 62.999954 3188.2852 62.999971C3185.9785 63.000027 3184.7413 58.858131 3185.3926 53.316268C3186.1082 47.227628 3184.9531 44.18661 3180.2138 39.682211C3177.8379 37.424097 3176.4992 36.927542 3173.4739 37.182211C3168.9876 37.559861 3166.6514 40.265293 3164.8472 47.172507C3163.7976 51.190484 3163.8979 52.935191 3165.5633 59.627496C3166.6285 63.907862 3168.806 69.455234 3170.4023 71.95499C3171.9985 74.454745 3174.1832 77.85 3175.2571 79.5C3176.3311 81.15 3178.9793 83.613575 3181.1422 84.974612C3186.0197 88.043943 3186.5646 90.145599 3184.13 96.5C3182.4665 100.84215 3181.8101 101.54089 3179.1415 101.8108C3176.549 102.07301 3175.9667 101.71552 3175.4167 99.524009Z M3181.9108 96.684276C3183.0599 94.310627 3184.0 92.058397 3184.0 91.679319C3184.0 91.300241 3180.2676 87.279817 3175.7058 82.745043C3166.4508 73.544837 3164.8345 70.748071 3162.6592 60.168862C3161.342 53.76322 3161.3316 52.147255 3162.5763 47.368319C3165.3959 36.543385 3168.8059 33.178208 3175.654 34.462904C3179.0644 35.102715 3185.1727 40.651361 3187.6621 45.370994C3188.8962 47.710591 3188.9704 49.060555 3188.0629 52.664487C3187.4053 55.275861 3187.3059 57.724136 3187.82 58.642809C3188.5385 59.926792 3189.2286 59.545977 3191.7697 56.463285C3195.306 52.17314 3197.3884 52.315827 3199.3507 56.982728L3200.6177 59.996126L3203.8089 55.468827C3210.5576 45.89433 3206.0213 36.222689 3198.4167 43.972222C3196.8125 45.606944 3195.0431 46.956944 3194.4847 46.972222C3193.9263 46.9875 3192.6955 44.820966 3191.7496 42.157703C3189.7022 36.393164 3183.2905 28.777166 3178.9825 26.992763C3175.6413 25.608774 3169.8817 26.720981 3165.4906 29.598109C3161.8843 31.961035 3157.1217 42.736164 3156.915 49.0C3156.6569 56.819861 3159.4159 66.436299 3163.5227 72.03087C3165.4352 74.636266 3167.0 77.540164 3167.0 78.483977C3167.0 80.875973 3160.8929 86.737781 3157.5185 87.58471C3152.7319 88.78607 3149.7383 86.996107 3147.0 81.295395C3145.625 78.432862 3144.1806 76.070362 3143.7901 76.045395C3143.3997 76.020428 3142.548 77.776695 3141.8974 79.948212C3140.9663 83.055902 3140.9869 84.554245 3141.9944 86.986429C3145.23 94.797793 3155.5995 93.988631 3165.1316 85.180982L3168.7631 81.825389L3172.8386 84.398097C3178.2873 87.837741 3179.4421 90.130354 3177.9711 94.587671C3177.086 97.269375 3177.1002 98.41576 3178.0321 99.538702C3178.6991 100.34242 3179.3746 101.0 3179.5332 101.0C3179.6918 101.0 3180.7617 99.057924 3181.9108 96.684276Z"/>
</svg>
