<svg xmlns="http://www.w3.org/2000/svg"
     width="46.1" height="64.0"
     viewBox="2939.9669 15.5227 65.9393 91.6303">
  <path d="M 3001.75,64.34375 C 3001.3547,65.786509 3000.6514,66.527093 2999.3125,67.625 2994.851,71.283324 2993.2848,71.416796 2989.7812,68.46875 2987.2781,66.362491 2985.9175,65.921021 2983.3125,66.34375 2980.1868,66.850981 2980,66.714682 2980,63.875 2980,58.663027 2981.666,56.712385 2985.5312,57.4375 2988.3617,57.968477 2989.146,57.675045 2990.4688,55.65625 2993.4137,51.16175 2989.1325,45.184887 2984.875,47.84375 2982.0843,49.586583 2981.4799,49.328009 2978.7812,45.25 2977.035,42.611158 2976.5453,40.905216 2977.0938,39.5 2979.0997,34.360386 2977.1792,21.37402 2974.25,20.25 2972.3546,19.522681 2966.136,25.670582 2963.9688,30.40625 2962.3732,33.892901 2962.3397,34.78056 2963.5625,38.84375 2964.8232,43.032642 2964.7574,43.641731 2962.875,46.6875 2960.5826,50.39678 2959.0787,50.729558 2955.4375,48.34375 2950.5692,45.153919 2945.1441,50.690881 2947.9688,55.96875 2949.6188,59.051897 2953.0179,60.117019 2955.7188,58.40625 2956.9369,57.634632 2958.3808,57 2958.9375,57 2960.4946,57 2962.7715,61.092447 2963.5312,65.25 L 2964.2188,69 2960.6562,67.5 C 2952.8843,64.252642 2949.4578,66.664989 2945.9688,77.875 2943.9669,84.306799 2944.5768,91.026286 2947.4375,93.84375 2948.9982,95.38073 2949.2239,95.368388 2950.5625,93.5625 2951.3539,92.494879 2952.0192,90.694879 2952.0312,89.5625 2952.0609,86.788516 2955.2935,79.82164 2957.3438,78.125 2958.7787,76.937558 2959.4721,77.128048 2962.5,79.4375 2967.1429,82.978805 2967.8677,86.269865 2965.1875,91.4375 2961.9384,97.701849 2961.4922,100.61893 2963.625,101.8125 2966.0203,103.153 2968.5488,101.742 2970.5,97.96875 2972.3752,94.342501 2975.2763,94.128338 2976.8125,97.5 2978.7406,101.7317 2982.984,100.45998 2984.25,95.28125 2984.8805,92.701802 2982.8029,89.376663 2981.1875,90.375 2980.3697,90.880425 2980.3618,91.719088 2981.1875,93.53125 2982.8436,97.166091 2981.2405,97.865927 2978.6562,94.625 2975.68,90.892477 2972.3162,91.375832 2969.2188,96 2967.9292,97.925 2966.4071,99.665793 2965.8125,99.875 2964.0396,100.49881 2965.865,94.877133 2968.625,91.25 2971.4471,87.541256 2971.2051,85.413945 2967.3125,80.21875 2963.6113,75.2789 2960.7462,73.689579 2957.875,75 2955.0858,76.273028 2951.3174,81.685913 2950.4375,85.6875 2949.2074,91.280841 2948.9747,91.677873 2947.875,89.71875 2946.423,87.1322 2947.825,77.962254 2950.375,73.40625 2952.9376,68.827736 2955.9543,67.982273 2960.6875,70.53125 2965.7405,73.252478 2967.4053,71.966807 2966.6875,65.90625 2966.3587,63.129939 2965.1528,59.376999 2964.0312,57.5625 2961.3672,53.251919 2961.4316,52.68064 2965.125,47.3125 2968.2062,42.834089 2968.2291,42.707701 2966.625,39.34375 2965.729,37.464855 2965,35.212705 2965,34.34375 2965,32.007509 2969.0678,25.193509 2970.875,24.5 2974.4333,23.134553 2976.8445,31.520581 2974.6875,37.78125 2973.3572,41.642418 2973.409,41.904387 2976.8438,47.4375 2980.1426,52.751668 2980.2926,53.344081 2979.0938,56.3125 2976.8583,61.847478 2975.736,66.897225 2976.375,68.5625 2976.8673,69.845344 2977.8336,70.045518 2981.0625,69.5 2984.4817,68.92234 2985.7189,69.216527 2988.9688,71.46875 2992.6586,74.025784 2992.9311,74.068694 2995.8438,72.5625 2998.7091,71.080737 3000.4898,70.881803 3000.9688,71.59375 L 3001.9062,64.84375 3001.75,64.34375 z M 2951.6875,50.40625 C 2952.713,50.16777 2954.104,50.492636 2955.5938,51.46875 2958.0606,53.085078 2958.1027,53.253758 2956.4375,55.09375 2955.481,56.150728 2954.161,57 2953.5312,57 2951.8041,57 2950,54.84284 2950,52.78125 2950,51.458711 2950.662,50.64473 2951.6875,50.40625 z M 2986.5625,50.46875 C 2987.9166,50.00987 2989,50.989063 2989,53.0625 2989,55.1563 2987.3989,55.548208 2985,54.03125 2983.6806,53.196959 2983.7015,52.861486 2985.1562,51.40625 2985.6406,50.921784 2986.1111,50.62171 2986.5625,50.46875 z M 3000.9375,71.9375 C 3001.121,72.764275 3000.3503,74.240334 2998.1875,76.3125 2994.7272,79.62765 2994.3146,79.624652 2987.625,76.34375 2981.2911,73.237337 2979.4718,73.650112 2977.4062,78.59375 2975.5295,83.085367 2975.9082,86.373256 2978.375,86.84375 2980.01,87.155593 2980.1793,86.767099 2979.625,83.8125 2979.2187,81.646431 2979.4691,79.747137 2980.3125,78.59375 2981.5799,76.860358 2981.8482,76.868745 2986.875,79.03125 2991.3597,80.960495 2992.637,81.133283 2995.7188,80.1875 2997.2057,79.731122 2998.4953,79.577152 2999.3438,79.59375 L 3000.0312,78.53125 3000.9375,71.9375 z"/>
</svg>
