<svg xmlns="http://www.w3.org/2000/svg"
     width="30.0" height="64.0"
     viewBox="3225.3342 16.0433 40.6658 86.7964">
  <path d="M 3240.1562,20.21875 C 3239.3209,20.379631 3236.656,23.42592 3234.25,27 3229.3492,34.280067 3229.3342,34.615657 3233.4062,45.28125 3236.2868,52.825872 3236.878,63.325484 3234.8438,70.5 3234.2201,72.7 3233.6857,78.23676 3233.625,82.8125 L 3233.5,91.125 3237.25,94.5625 C 3241.5762,98.535618 3244.0239,98.839704 3248.1875,95.875 L 3251.1875,93.75 3251.75,94.03125 3253.3125,89.03125 C 3253.2107,88.601291 3253,88.286336 3253,87.71875 3253,85.880254 3253.3606,85.470168 3254.0938,85.53125 L 3254.0938,80.125 C 3253.919,80.006345 3253.9324,80.030458 3253.75,79.90625 3253.2707,79.579948 3252.2731,75.754948 3251.5312,71.40625 3250.7895,67.057552 3249.6614,60.8 3249,57.5 3247.7338,51.181786 3248.2852,40.56625 3250,38.5 3250.7526,37.593244 3252.0063,37.530122 3254.9375,38.3125 3259.4721,39.522843 3262,38.18445 3262,34.5625 3262,29.59292 3254.9036,26.001406 3252,29.5 3250.0499,31.849742 3249.2728,31.386423 3245.3438,25.46875 3243.1377,22.146166 3241.0671,20.043346 3240.1562,20.21875 z M 3239.9375,25.21875 C 3240.7252,25.368874 3242.9243,27.702654 3244.8438,30.375 3247.8329,34.536393 3248.1655,35.490041 3247.125,37.15625 3244.7923,40.891495 3244.6786,50.945318 3246.8438,62.0625 3250.8769,82.771807 3250.6598,91.50613 3246,94 3244.9802,94.545778 3243.97,95 3243.7812,95 3243.0211,95 3238.4214,91.478189 3237.2812,90.03125 3235.6244,87.928757 3235.7404,79.955006 3237.5312,71.5 3239.3499,62.913947 3239.3779,51.691064 3237.5938,47 3236.8616,45.075 3235.4621,41.476887 3234.5,39 L 3232.75,34.5 3235.625,29.71875 C 3237.2422,27.035614 3239.1318,25.065178 3239.9375,25.21875 z M 3255.1875,31.15625 C 3256.6614,31.123665 3258.449,32.496904 3258.8125,34.34375 3259.0459,35.529786 3258.4117,36 3256.5312,36 3253.6299,36 3252.1114,33.513706 3253.9062,31.71875 3254.2641,31.360884 3254.6962,31.167112 3255.1875,31.15625 z"/>
</svg>
