<svg xmlns="http://www.w3.org/2000/svg"
     width="38.9" height="64.0"
     viewBox="3945.4375 31.6036 42.1812 69.3964">
  <path d="M 3951.2188 81.40625 L 3950.3438 87 C 3951.0674 86.440559 3952.9394 86.34979 3956.25 86.65625 C 3961.5575 87.147551 3962.7279 86.959743 3964.0938 85.375 C 3967.0212 81.978472 3968.1524 76.912782 3967.0625 72 C 3964.3088 59.587196 3964.1975 57.043821 3966.1562 50.75 C 3968.3577 43.677139 3969.521 42 3972.1875 42 C 3973.4697 42 3974.6414 43.256872 3975.6875 45.75 C 3977.1213 49.16712 3977.0917 50.343297 3975.625 59 C 3974.7008 64.454441 3974.2985 70.416318 3974.6562 73 C 3975.3489 78.003893 3977.5356 83 3979.0312 83 C 3979.5672 83 3980 83.675 3980 84.5 C 3980 85.325 3979.3482 86 3978.5625 86 C 3977.7768 86 3976.4813 85.325 3975.6562 84.5 C 3973.3198 82.163562 3971.3537 82.706456 3969.125 86.3125 C 3967.9979 88.136186 3966.2614 90.366538 3965.2812 91.25 C 3961.6548 94.51834 3956.1141 94.281384 3952.25 90.71875 C 3950.8695 89.445922 3950.3259 88.586718 3950.1875 87.90625 L 3949.4375 92.65625 L 3949.5 93.25 L 3952.5625 94.90625 C 3954.7033 96.053651 3958.1784 97 3960.2812 97 C 3963.5478 97 3964.7274 96.342478 3968.2812 92.4375 C 3972.0687 88.275901 3972.7325 87.9222 3975.8125 88.5 C 3978.2774 88.962432 3979.7094 88.659055 3981.0938 87.40625 C 3983.6187 85.121244 3983.4869 83.387662 3980.5312 79.875 C 3977.5822 76.370202 3976.5971 71.753461 3977.375 65.28125 C 3979.161 50.423064 3979.1445 46.538004 3977.3125 43 C 3973.4826 35.603565 3967.2406 39.133328 3963.4375 50.84375 C 3961.8838 55.627943 3961.8429 57.025895 3963.0312 64.34375 C 3965.5766 80.019207 3964.6466 84 3958.4375 84 C 3954.4055 84 3952.4867 83.43414 3951.2188 81.40625 z "/>
</svg>
