<svg xmlns="http://www.w3.org/2000/svg"
     width="64.0" height="58.7"
     viewBox="6723.6250 48.3831 58.2482 53.4043">
  <path d="M 6727.625 82.375 L 6731.1875 95 L 6731.375 95.84375 C 6735.2151 92.429388 6738.8062 91.766827 6742.5 93.96875 C 6748.9059 97.787425 6755.1138 96.990631 6758.25 91.96875 C 6759.8751 89.366539 6761.1682 89.48573 6764 92.5 C 6766.9987 95.691931 6769.7282 95.671549 6771.1875 92.46875 C 6772.1404 90.377386 6771.9712 89.227806 6770.1562 85.59375 C 6767.7047 80.684976 6767.8772 79.680197 6772.7188 71.46875 C 6776.8392 64.480649 6777.8732 61.023717 6776.7812 57.84375 C 6775.5806 54.347522 6771.017 52.383129 6767.9375 54.03125 C 6762.9445 56.703414 6757.7463 64.829336 6753.5938 76.40625 C 6750.7058 84.457277 6749.2978 85.121211 6743.9062 81.15625 C 6741.5341 79.411781 6739.0089 78 6738.2812 78 C 6737.5537 78 6735.0716 79.179182 6732.7812 80.625 C 6730.42 82.115636 6728.9459 82.709856 6727.625 82.375 z M 6769.75 56.53125 C 6770.1694 56.539908 6770.6157 56.656781 6771.125 56.84375 C 6774.9021 58.230392 6774.6082 61.920308 6770.0625 70.5 C 6765.7054 78.723762 6764.8812 84.141395 6767.4688 87.5625 C 6771.1908 92.483562 6767.8174 93.647291 6763.8438 88.8125 L 6761.2188 85.59375 L 6757.0938 89.28125 C 6752.2999 93.612166 6747.5893 94.10895 6742.3125 90.84375 C 6739.628 89.18269 6738.5195 89.04662 6735.4062 89.90625 C 6731.2046 91.066367 6730 90.65933 6730 88.09375 C 6730 86.172258 6732.1323 83.967246 6735.8125 82.0625 C 6737.828 81.019338 6738.5365 81.253203 6741.5938 83.9375 C 6743.544 85.64987 6746.1907 87 6747.625 87 C 6750.4706 87 6756 81.81975 6756 79.15625 C 6756 75.538355 6761.5653 63.723016 6765.0312 59.96875 C 6767.4012 57.401684 6768.4917 56.505277 6769.75 56.53125 z "/>
</svg>
