<svg xmlns="http://www.w3.org/2000/svg"
     width="47.7" height="64.0"
     viewBox="281.5956 13.7025 66.6796 89.4424">
  <path d="M323.39757 96.484013C321.97381 94.311081 321.91857 93.362473 322.99248 89.52686C324.20067 85.211634 324.14513 84.971048 321.03394 81.042847C319.27284 78.819281 317.2039 77.0 316.43629 77.0C315.66869 77.0 314.15701 78.732081 313.077 80.849069C311.5495 83.843209 311.23786 85.904479 311.6739 90.129337C312.1086 94.341208 311.88216 95.852909 310.66526 96.862843C307.91547 99.144972 305.85645 97.671835 302.29372 90.873368C298.95382 84.500096 298.88043 84.131902 300.37421 81.243248C301.22845 79.591329 303.0395 76.918081 304.39875 75.302696C305.75801 73.687311 307.17804 71.138808 307.55438 69.639357C308.14073 67.303155 307.62544 66.346985 303.95293 62.956541C301.59579 60.780444 299.11112 59.0 298.43144 59.0C296.84253 59.0 295.07298 63.798696 293.63761 72.0C292.36285 79.283638 290.4841 80.497023 288.11965 75.563758C285.65082 70.412722 285.59557 64.725317 287.94575 57.663012C290.47168 50.072599 293.32109 46.0 296.10582 46.0C297.18419 46.0 300.28657 47.125 303.0 48.5C305.71343 49.875 308.46486 51.0 309.11428 51.0C310.88205 51.0 309.42076 34.571793 307.37532 31.450053C305.38134 28.406865 304.95839 28.409895 300.40486 31.5C294.45308 35.538991 291.0 34.387986 291.0 28.3651C291.0 20.483027 294.52769 17.91012 299.72713 22.0C303.15531 24.696603 304.44914 24.536933 309.03545 20.851268L312.95363 17.702536L317.45447 21.851268C319.92993 24.133071 322.32794 26.0 322.78338 26.0C323.23881 26.0 325.13629 24.875 327.0 23.5C328.86371 22.125 330.90082 21.0 331.52692 21.0C332.15301 21.0 334.16692 22.868598 336.00226 25.15244C339.14188 29.059271 339.25346 29.457741 337.88869 31.889238C335.73699 35.722758 331.57792 36.868227 327.7621 34.678248C325.53978 33.402813 324.38348 33.215956 323.59338 34.004587C322.16273 35.432577 322.13877 51.195401 323.56651 51.681345C324.15309 51.880992 326.61597 50.712573 329.03958 49.084858C334.03372 45.730751 334.51354 45.894705 338.86576 52.442483C342.82444 58.398204 344.27515 63.394098 343.46864 68.293671C342.61933 73.453212 340.41338 79.0 339.21074 79.0C338.72052 79.0 337.75121 76.6375 337.05671 73.75C334.42321 62.800679 331.16515 58.977706 327.54905 62.593807C325.373 64.769855 326.03961 67.371895 330.45347 73.93086C334.74685 80.310796 335.89266 85.35614 333.61879 87.868734C332.72846 88.852545 331.99832 90.297048 331.99626 91.078741C331.99011 93.416329 328.14243 99.0 326.53775 99.0C325.71735 99.0 324.30426 97.867806 323.39757 96.484013Z M329.50006 91.25C332.95461 85.106675 332.46328 81.04141 327.41738 74.017886C322.52241 67.204439 322.26168 62.801506 326.55 59.370307C328.1725 58.072102 330.04205 57.007699 330.70455 57.004967C332.9786 56.99559 336.6754 61.769005 337.96714 66.382633C338.67817 68.922185 339.65144 71.0 340.12996 71.0C342.00437 71.0 340.93573 62.263714 338.45152 57.278553C334.65119 49.652283 334.02549 49.387497 328.23052 52.953177C325.50708 54.62893 322.75493 56.0 322.11465 56.0C318.80303 56.0 317.93451 42.768376 320.72957 34.898698L322.45915 30.028967L318.97957 27.029833C314.53833 23.201813 311.30007 22.271359 309.31774 24.253685C308.10119 25.470236 308.03482 26.196547 308.97899 27.960736C312.51894 34.575201 313.82135 51.100476 311.06451 54.422269C309.87217 55.858948 309.43578 55.814411 306.41557 53.947819C304.58237 52.814841 301.6823 51.189357 299.97097 50.335632C297.04315 48.875041 296.72692 48.907921 294.61435 50.89257C291.33389 53.974402 287.61973 65.159467 288.43455 69.502826C288.79539 71.426272 289.42057 73.0 289.82382 73.0C290.22708 73.0 291.36681 69.856482 292.35656 66.014404C293.3463 62.172326 294.95356 58.043967 295.92826 56.840271L297.70043 54.651735L301.28029 56.864209C305.97028 59.762786 311.0 65.55358 311.0 68.054668C311.0 69.14646 309.7625 71.891319 308.25 74.154355C306.7375 76.417392 304.71487 79.445949 303.75526 80.884483C301.41011 84.40009 301.54764 85.971164 304.50122 89.405539C305.87555 91.003586 307.0 92.691086 307.0 93.155539C307.0 93.619993 307.72746 94.0 308.61658 94.0C309.83868 94.0 310.0827 93.389954 309.61658 91.5C309.27746 90.125 308.73311 87.930297 308.40691 86.622882C307.97383 84.887076 308.96884 82.416933 312.09504 77.466939L316.37626 70.688114L319.27569 74.094057C327.17738 83.376091 327.18291 83.387971 325.92621 88.378753C324.90209 92.445934 325.11516 96.0 326.38312 96.0C326.62836 96.0 328.03098 93.8625 329.50006 91.25Z M299.53518 29.38499C302.69541 27.314327 302.63787 26.808015 298.99795 24.657859C295.24761 22.44248 294.0 23.166679 294.0 27.559017C294.0 31.474189 295.56083 31.989084 299.53518 29.38499Z M334.41422 31.442919C335.82366 30.033478 335.81953 29.654205 334.37064 27.442919C332.49384 24.578552 330.86032 24.390192 327.4238 26.641886L324.91796 28.283773L327.1333 30.641886C329.70067 33.374737 332.2067 33.650444 334.41422 31.442919Z"/>
</svg>
