<svg xmlns="http://www.w3.org/2000/svg"
     width="45.6" height="64.0"
     viewBox="107.5935 13.6585 63.6058 89.3415">
  <path d="M116.78349 97.25C112.49514 92.333745 112.29976 87.324947 116.14942 80.994689C117.97555 77.991864 118.43308 77.78871 122.37029 78.23249L126.62006 78.711501L130.93849 72.251669C133.31362 68.698761 135.31161 65.250625 135.37846 64.589143C135.62078 62.191266 123.53219 42.059973 121.83179 42.0297C114.91374 41.906535 111.59345 31.956067 115.83276 24.051421C118.73893 18.632549 120.90938 17.658539 124.80257 20.026128C126.58857 21.112263 128.46695 23.097972 128.97674 24.438813C130.1701 27.577604 129.31158 34.663954 127.33193 38.015234C125.87582 40.480233 125.96895 40.996501 128.96446 47.064684C133.81199 56.884618 136.40203 61.026477 137.47383 60.672448C138.55866 60.314116 142.54888 53.810994 147.67757 44.042745C150.18655 39.264066 150.90718 36.853862 150.44971 34.771018C149.5693 30.762572 150.83682 24.477164 153.10777 21.590119C154.82003 19.413336 155.40227 19.244272 158.03087 20.160605C164.62349 22.458806 166.97395 30.250303 163.02728 36.723163C161.04048 39.981689 157.27525 41.703335 154.48083 40.631017C152.89202 40.021334 146.68982 48.758382 141.64676 58.710392C138.78017 64.367329 138.80112 64.428101 146.41523 72.54437C151.6476 78.121822 152.01557 78.329625 154.39999 77.053524C157.7359 75.268201 162.44572 77.156646 163.83304 80.835786C167.19926 89.762941 164.95239 98.0 159.15106 98.0C153.60692 98.0 149.55048 91.546513 150.68775 84.535533C151.11186 81.921037 150.323 80.529081 145.00034 74.5C141.60144 70.65 138.31065 67.5 137.68747 67.5C137.06429 67.5 134.68013 70.551112 132.38934 74.280249C128.73028 80.236774 128.32069 81.488016 129.01793 84.579494C130.57941 91.50291 126.47129 99.0 121.11603 99.0C119.5727 99.0 117.62306 98.2125 116.78349 97.25Z M123.03049 95.983683C125.93239 94.430635 127.58677 87.830791 126.02145 84.051788C124.98247 81.543471 124.18426 81.0 121.53919 81.0C119.06105 81.0 118.05417 81.585699 117.16052 83.547053C115.41625 87.375302 115.75741 91.421883 118.07258 94.365141C120.42521 97.356027 120.45069 97.364347 123.03049 95.983683Z M122.1504 37.919509C126.8705 35.393387 128.12213 25.206097 123.98446 22.991683C121.05433 21.423526 120.10378 21.781574 117.98904 25.25C115.60908 29.153409 115.48271 32.098982 117.52568 36.04966C119.24313 39.370839 119.35446 39.415851 122.1504 37.919509Z M161.0766 35.298516C162.3707 31.894776 162.2264 26.6264 160.8 25.2C158.68879 23.08879 154.30542 23.730731 153.63029 26.25C152.44795 30.661888 152.99163 34.991633 154.97732 36.977319C157.34856 39.348556 159.79254 38.675859 161.0766 35.298516Z M163.0 88.892065C163.0 86.803188 162.47285 83.937143 161.82856 82.523076C160.66495 79.969222 157.00081 78.263432 155.14385 79.411097C153.41172 80.481609 152.72549 87.92305 154.06146 91.148368C156.75965 97.662377 163.0 96.087162 163.0 88.892065Z"/>
</svg>
