<svg xmlns="http://www.w3.org/2000/svg"
     width="33.4" height="64.0"
     viewBox="1832.6200 13.0000 47.7687 91.4370">
  <path d="M 1850.1562 17 C 1848.9876 17 1846.8127 19.568647 1842.5 26 C 1836.62 34.768682 1836.6955 34.431962 1839.4062 39.78125 C 1843.5815 48.020812 1844.5631 55.441983 1843.1875 67.8125 C 1841.0057 87.434108 1841.8635 93.410131 1847.5 97.84375 C 1850.791 100.4325 1850.8778 100.43699 1855.875 98.4375 C 1857.6985 97.707861 1858.7841 97.360004 1859.75 97.375 L 1859.6875 96.90625 L 1861.375 88.75 C 1861.3873 88.715338 1861.3617 88.658675 1861.375 88.625 L 1863 80.84375 C 1862.5629 79.862759 1862.427 78.61201 1862.375 76.46875 C 1862.3088 73.740658 1861.4808 68.215183 1860.5312 64.1875 C 1858.5666 55.853684 1858.6816 39.910333 1860.7188 37.875 C 1861.674 36.92069 1862.801 37.071506 1865.9688 38.5 C 1869.8647 40.256795 1870.0673 40.249045 1872 38.5 C 1874.7135 36.044367 1876.3887 29.625971 1875 27.03125 C 1873.9488 25.067096 1871.0009 23 1869.2188 23 C 1868.7093 23 1866.6151 24.128241 1864.5938 25.5 L 1860.9375 28 L 1857.7188 24.28125 C 1852.9397 18.772132 1851.0955 17 1850.1562 17 z M 1849.5938 21.875 C 1851.3241 21.280685 1852.7566 23.268569 1855.6562 27.21875 L 1859.3125 32.21875 L 1857.6562 36.84375 C 1855.4278 43.062056 1855.5387 55.278787 1857.9375 66.125 C 1860.4122 77.314533 1859.4416 90.098875 1855.75 94.75 C 1854.2811 96.600706 1849.5466 96.276252 1847.6562 94.1875 C 1845.0861 91.347511 1844.6402 84.299937 1846 68.625 C 1847.3965 52.528513 1846.7142 47.046607 1842.375 39.09375 C 1840.0486 34.829859 1840.0423 34.620747 1841.75 31.96875 C 1845.8394 25.618048 1847.8634 22.469315 1849.5938 21.875 z M 1869.8125 27.03125 C 1872.1467 27.137374 1873.505 29.581012 1872.0625 33.375 C 1870.8795 36.486659 1868.4678 36.695691 1865 34.03125 L 1862.5312 32.125 L 1864.9375 29.5625 C 1866.6506 27.739036 1868.412 26.967576 1869.8125 27.03125 z "/>
</svg>
