<svg xmlns="http://www.w3.org/2000/svg"
     width="64.0" height="63.5"
     viewBox="6680.2105 13.8965 90.7895 90.1035">
  <path d="M 6699.5938 18.3125 C 6698.8821 18.391032 6698.2081 18.621054 6697.5 19 C 6689.7 23.174418 6692.6087 35.977522 6701.9688 38.6875 C 6704.405 39.392849 6706.8103 40.404094 6707.3125 40.90625 C 6708.4893 42.083036 6709.1913 53.778455 6708.125 54.4375 C 6707.6794 54.712866 6705.3857 53.512698 6703.0312 51.78125 C 6699.0338 48.841499 6698.5715 48.725104 6696.125 50.0625 C 6690.1132 53.34888 6684.2105 72.486171 6685.9375 83.09375 C 6687.1513 90.549547 6690.7548 98.18974 6692.875 97.78125 C 6694.2644 97.513542 6694.4489 96.064468 6694.1562 87.4375 C 6693.7889 76.612297 6694.8935 70.552751 6697.9375 66.84375 C 6700.4562 63.77488 6702.5511 64.981845 6706.2188 71.59375 C 6709.5827 77.657853 6709.6067 78.470131 6706.5312 82.125 C 6703.6325 85.569958 6702.3411 91.255535 6703.625 94.90625 C 6705.0961 99.089398 6707.9983 98.205021 6710.7188 92.75 C 6712.0216 90.1375 6713.6964 88 6714.4375 88 C 6716.274 88 6721.1411 92.857781 6723.2188 96.78125 C 6724.1557 98.55055 6725.4061 100 6726 100 C 6726.5939 100 6728.5875 98.475062 6730.4375 96.625 C 6730.7586 96.303922 6731.0577 96.125866 6731.375 95.84375 L 6731.1875 95 L 6727.625 82.375 C 6726.4125 82.067636 6725.3412 81.004296 6723.8438 78.9375 C 6722.2407 76.724978 6722.2267 76.025117 6723.5312 71.125 C 6725.9077 62.198821 6728.0839 61.134046 6735 65.5 C 6737.1781 66.875 6739.853 68 6740.9375 68 C 6744.948 68 6751.9216 54.470531 6755.8125 39.15625 C 6757.2898 33.341498 6757.8396 32.523127 6762.2188 29.65625 C 6764.8498 27.933743 6767 26.202564 6767 25.78125 C 6767 24.677076 6766.2802 24.809796 6762.6875 26.625 C 6757.3341 29.329832 6755.1401 32.047343 6753.5 37.90625 C 6751.7207 44.262474 6746.5335 56.851488 6743.6562 61.8125 C 6742.0602 64.564351 6741.2861 65.042278 6739.25 64.53125 C 6737.8978 64.191866 6735.5461 62.994929 6734.0312 61.875 C 6727.978 57.399585 6722.3364 61.641025 6719.9062 72.5 C 6718.7048 77.868237 6718.7076 77.91066 6721.9688 81.625 C 6725.053 85.137791 6728 90.673772 6728 92.96875 C 6728 94.776689 6725.1538 94.086313 6724.5312 92.125 C 6723.8153 89.869058 6717.0948 85 6714.6875 85 C 6713.7494 85 6711.7573 86.789623 6710.25 88.96875 C 6707.1703 93.421244 6706 93.945964 6706 90.9375 C 6706 87.928867 6708.5755 83.48838 6711.5625 81.3125 L 6714.1875 79.40625 L 6710.0938 71.4375 C 6707.858 67.065171 6705.1559 62.930802 6704.0625 62.25 C 6698.5124 58.794028 6692.459 67.220173 6691.4062 79.84375 C 6691.0345 84.29987 6690.3767 87.752123 6689.9688 87.5 C 6688.4435 86.557396 6687.862 75.90623 6689.0312 70.25 C 6690.3523 63.860391 6695.2284 53.431137 6697.2188 52.71875 C 6698.6266 52.21485 6701.9278 53.662429 6703.5 55.46875 C 6704.05 56.100664 6705.7259 57.148742 6707.2188 57.78125 C 6710.7728 59.287065 6711.3688 58.253939 6711.6875 50.125 C 6712.0442 41.025653 6710.3687 37.586149 6704.875 36.15625 C 6699.508 34.759341 6698.8076 34.269685 6696.5625 30.40625 C 6694.8888 27.526307 6694.872 27.123082 6696.4062 24.15625 C 6697.3084 22.411958 6698.7444 21 6699.5938 21 C 6701.1904 21 6708.893 25.840639 6712.6562 29.21875 C 6714.7752 31.120862 6714.8077 31.117098 6716.3125 28.96875 C 6718.7976 25.42073 6724.8129 21.84399 6727.7188 22.1875 C 6730.841 22.556592 6732.3996 26.565665 6731.4688 31.875 L 6730.875 35.21875 L 6728.625 33.125 C 6725.4509 30.143065 6722.1488 30.469203 6718.3125 34.1875 C 6715.143 37.259516 6715 37.702906 6715 45.125 C 6715 49.372125 6715.2599 53.536266 6715.5938 54.40625 C 6716.4612 56.666966 6718.986 56.376297 6723.2188 53.5 C 6725.2423 52.125 6727.1043 51 6727.375 51 C 6727.6458 51 6729.9581 52.8 6732.5 55 C 6735.0419 57.2 6737.4543 59 6737.875 59 C 6739.0686 59 6742.5945 54.836576 6744.375 51.3125 C 6745.2627 49.555543 6746.8183 44.497667 6747.8438 40.09375 C 6749.6118 32.501002 6749.646 31.91434 6748.0312 28.3125 C 6746.285 24.417296 6743.3781 21.278211 6742.4062 22.25 C 6742.1061 22.550077 6742.8435 24.702992 6744.0312 27.03125 C 6745.6014 30.108984 6746.0514 32.384139 6745.6875 35.375 C 6744.4757 45.336591 6741.3665 53.539542 6738.375 54.6875 C 6737.4425 55.045302 6735.4106 53.856804 6733.125 51.625 C 6728.714 47.31774 6726.8294 47.129876 6722.75 50.5625 C 6718.9416 53.767027 6718.0213 52.67981 6718 44.875 C 6717.971 34.223941 6724.5745 30.366181 6728.4688 38.75 C 6729.5546 41.0875 6730.8265 43 6731.2812 43 C 6731.736 43 6732.8038 41.321538 6733.6562 39.28125 C 6735.9178 33.868615 6735.1369 22.699387 6732.3125 19.875 C 6730.4343 17.996768 6729.8418 17.896511 6726.6875 18.9375 C 6724.7403 19.580159 6721.4756 21.442762 6719.4375 23.0625 C 6717.3993 24.682238 6715.3314 26 6714.8438 26 C 6714.3561 26 6711.6888 24.455054 6708.9375 22.5625 C 6704.1827 19.291794 6701.7288 18.076904 6699.5938 18.3125 z M 6747.0938 20.0625 C 6746.302 19.870456 6745.9294 20.35125 6746.4062 21.59375 C 6746.7402 22.463734 6747 23.504942 6747 23.90625 C 6747 24.307558 6747.9097 25.608791 6749.0312 26.8125 C 6751.4397 29.397674 6753.2772 29.588628 6755.0625 27.4375 C 6755.7773 26.576235 6757.6349 25.209109 6759.1875 24.40625 C 6760.74 23.603391 6762 22.504626 6762 21.96875 C 6762 20.250709 6758.3705 20.933137 6756.5 23 C 6754.1063 25.645019 6752.5649 25.522401 6750.1875 22.5 C 6749.0921 21.107464 6747.8855 20.254544 6747.0938 20.0625 z "/>
</svg>
