<svg xmlns="http://www.w3.org/2000/svg"
     width="57.7" height="64.0"
     viewBox="3591.0000 18.0000 79.5583 88.2356">
  <path d="M 3623.375,22 C 3622.7985,22 3620.893,23.8 3619.125,26 3615.5262,30.478241 3614.4621,30.752437 3610.1562,28.28125 3607.2807,26.63086 3607.0653,26.627999 3605.0312,28.46875 3602.4811,30.776537 3602.5799,36.710898 3605.1875,38.34375 3606.7673,39.332975 3607.4014,39.150573 3613.1562,36.21875 3615.1539,35.201027 3617.2571,51.157007 3615.5,54 3614.5401,55.553114 3611.8275,55.189939 3607.625,52.9375 L 3603.7812,50.875 3601.4062,53.09375 C 3597.9408,56.349437 3595,65.057579 3595,72.09375 3595,78.453735 3596.4205,82.257565 3599.9688,85.46875 3601.8141,87.138792 3602.2632,87.214312 3603.0625,85.96875 3603.5779,85.16562 3603.7371,82.612151 3603.4062,80.3125 3602.7979,76.082074 3605.1274,66.652737 3607.0938,65.4375 3608.3787,64.643344 3615.1672,70.68938 3616.8438,74.125 3618.0557,76.608692 3617.9776,77.106132 3616.0312,79.1875 3613.0014,82.427726 3608,90.117793 3608,91.53125 3608,92.180383 3609.35,94.117183 3611,95.84375 3612.65,97.570317 3614,99.444994 3614,100 3614,100.555 3615.0617,101 3616.3438,101 3619.7346,101 3621.5907,97.083468 3620.1562,92.96875 3618.9463,89.497585 3619.5407,87.611249 3622.875,84.59375 3624.9094,82.752642 3624.9873,82.781973 3627,85.125 3628.6199,87.010695 3628.9432,88.421473 3628.5312,91.84375 3627.6185,99.427386 3631.0105,102.23558 3635.7188,97.8125 L 3637.8438,95.78125 3637.8438,95 3640.4062,90.46875 C 3640.414,90.440998 3640.3959,90.401962 3640.4062,90.375 3640.7323,89.525288 3641,88.606226 3641,88.34375 3641,88.219826 3641.368,88.433625 3641.5625,88.46875 L 3641.5938,88.40625 3641.9375,84.875 C 3641.4849,84.567718 3641,84.238424 3641,84 3641,83.571436 3639.425,80.923458 3637.5,78.125 3635.575,75.326542 3633.9963,72.482009 3634,71.78125 3634.0038,71.080491 3635.5714,69.448245 3637.4688,68.15625 L 3640.9062,65.8125 3643.7812,67.84375 C 3645.3665,68.972571 3647.2627,70.618076 3647.9688,71.46875 3650.7697,74.843852 3655.7362,72.409358 3659,66.09375 3663.8203,56.766324 3666.5583,33.589593 3663.6562,26.6875 3662.5177,23.979663 3661.5329,22.947672 3660.2812,23.1875 3658.9326,23.445912 3658.3262,24.934763 3657.75,29.5 3654.1624,57.922048 3652.6194,61.116756 3645.3125,55.09375 3640.7759,51.354338 3640.1091,51.329773 3635.4375,54.5 3633.4228,55.867163 3631.3598,56.737122 3630.875,56.4375 3628.5252,54.985247 3631.109,36.445454 3633.5312,37.375 3638.3349,39.218329 3641.8798,39.120128 3643.9062,37.09375 3646.229,34.771032 3646.5196,32.835311 3644.9688,29.9375 3643.7254,27.614106 3640.5478,27.453028 3636.5625,29.53125 3633.6682,31.040571 3633.5777,31.009443 3629.0312,26.53125 3626.4992,24.037309 3623.9516,22 3623.375,22 z M 3623.1875,27.15625 C 3624.5149,27.18889 3625.809,28.189709 3627.4375,30.125 3629.3079,32.347892 3629.8644,33.850076 3629.375,35.375 3626.6191,43.960968 3626.1535,55.481232 3628.4375,58.5625 3629.8552,60.475019 3629.9399,60.469573 3634.1875,58.25 3636.5586,57.010973 3638.95,55.993134 3639.5,56 3640.05,56.006866 3642.4597,57.5735 3644.8438,59.46875 3650.1303,63.671367 3651.8726,63.019163 3655.5,55.5 3657.4518,51.454069 3660,37.256348 3660,30.46875 3660,30.139613 3660.5276,30.20524 3661.1562,30.59375 3663.0746,31.779371 3661.427,50.346964 3658.6562,58.78125 3656.3595,65.772503 3653.7533,70 3651.75,70 3651.2303,70 3649.1637,68.357361 3647.1562,66.34375 3644.7646,63.944723 3642.5777,62.691141 3640.8125,62.6875 3637.7809,62.681248 3630.2291,68.581189 3630.0938,71.0625 3630.0473,71.91564 3631.8,75.364274 3634,78.75 3638.5087,85.688711 3638.8416,88.089454 3636,92.75 3632.908,97.821171 3630.682,96.243649 3632.9062,90.5625 3633.4664,89.131599 3632.6215,87.235675 3629.6875,83.3125 3627.5025,80.390677 3625.4674,78 3625.1562,78 3624.8452,78 3622.6242,80.1375 3620.2188,82.75 3615.7589,87.593667 3615.3155,89.647208 3617.5312,95.25 3617.9119,96.2125 3617.8151,96.964324 3617.3438,96.90625 3615.9971,96.740339 3612,92.055418 3612,90.65625 3612,89.040609 3614.624,85.488576 3618.75,81.5 3622.5948,77.783209 3622.7578,76.194426 3619.75,71.78125 3616.5275,67.053036 3609.697,60.001933 3608.3438,60 3606.1421,59.996856 3600.0374,72.659712 3600,77.3125 3599.9919,78.307459 3599.55,78.839919 3599,78.5 3596.3786,76.879913 3599.1901,59.741618 3602.5312,56.96875 3603.767,55.943114 3604.7557,56.044959 3607.8438,57.4375 3610.0029,58.411122 3613.3286,58.995022 3615.5625,58.8125 L 3619.5,58.5 3619.3125,49.375 C 3619.1997,43.77413 3618.5183,38.81884 3617.5625,36.53125 3616.0372,32.880735 3616.0683,32.747526 3618.75,29.90625 3620.4983,28.053989 3621.8601,27.12361 3623.1875,27.15625 z M 3607.9375,30.3125 C 3608.363,30.296665 3608.8417,30.377115 3609.4062,30.59375 3611.5843,31.429529 3611.4054,33.7149 3609.0625,34.96875 3606.3083,36.442782 3606,36.299498 3606,33.5625 3606,31.444712 3606.6609,30.360005 3607.9375,30.3125 z M 3640.1562,31 C 3642.541,31 3643.784,33.904723 3641.9062,35.09375 3640.1325,36.216949 3638.8665,36.203997 3637.0625,35.0625 3635.8727,34.3096 3635.8534,33.868795 3636.9375,32.5625 3637.657,31.695582 3639.1064,31 3640.1562,31 z"/>
</svg>
