<svg xmlns="http://www.w3.org/2000/svg"
     width="39.0" height="64.0"
     viewBox="6069.5330 17.0162 54.5178 89.4945">
  <path d="M6086.6303 98.75C6085.5582 94.749558 6085.9506 92.349678 6088.6354 86.485129C6091.1479 80.997191 6091.1946 80.599381 6089.6354 77.959994C6088.7359 76.437276 6088.0 74.469704 6088.0 73.587611C6088.0 72.653414 6086.3515 71.32421 6084.0516 70.40398C6079.1519 68.443494 6074.9579 63.104806 6074.2662 57.947787C6073.533 52.481381 6076.001 51.639422 6080.3635 55.867718C6082.141 57.590473 6084.1205 59.0 6084.7624 59.0C6086.532 59.0 6088.0 55.566542 6088.0 51.427572C6088.0 48.5123 6087.1699 46.823099 6084.1013 43.494086C6079.211 38.188689 6077.0692 30.350491 6078.9514 24.6473C6079.6134 22.641285 6080.6827 21.016183 6081.3276 21.035963C6083.2262 21.094201 6087.528 25.180697 6090.5008 29.75C6092.0215 32.0875 6093.9328 34.0 6094.7481 34.0C6095.5634 34.0 6098.8592 31.228808 6102.0721 27.841796C6107.0492 22.595013 6108.1422 21.873129 6109.4569 22.964241C6111.1766 24.391452 6111.5538 31.41328 6110.1141 35.1998C6109.6269 36.4813 6107.1338 39.859336 6104.5739 42.706546C6100.7489 46.960892 6099.8149 48.766975 6099.3322 52.842755C6098.5297 59.619008 6099.7706 68.495163 6101.8857 71.107199C6104.3135 74.105386 6106.8655 72.560882 6112.0163 64.976055C6114.2483 61.689225 6116.7328 59.0 6117.5373 59.0C6120.0508 59.0 6119.3629 67.700053 6116.3512 74.0C6114.1416 78.622155 6113.7539 80.703074 6113.9219 87.037673C6114.0908 93.405051 6113.7906 94.99646 6111.9884 97.287673C6110.8149 98.779453 6109.2452 100.0 6108.5 100.0C6107.7549 100.0 6105.9744 97.525 6104.5433 94.5C6103.1123 91.475 6101.5041 89.0 6100.9697 89.0C6100.4352 89.0 6097.9012 91.7 6095.3385 95.0C6090.4444 101.30224 6087.6381 102.51069 6086.6303 98.75Z M6086.3697 65.75C6087.3655 62.034283 6087.1051 61.168128 6084.7693 60.426792C6083.5425 60.037401 6081.298 58.801542 6079.7816 57.680439C6078.2653 56.559335 6076.7815 55.885194 6076.4843 56.182346C6074.8252 57.841433 6081.7762 68.0 6084.5705 68.0C6085.2284 68.0 6086.0381 66.9875 6086.3697 65.75Z M6110.3632 79.140106C6113.9894 75.42655 6118.6453 64.516851 6117.03 63.518535C6116.5638 63.23039 6114.9982 64.458342 6113.5509 66.247317C6106.3455 75.153859 6103.7376 76.594737 6100.5649 73.422023C6096.8494 69.706517 6095.4624 62.940288 6096.5302 53.73969C6097.1438 48.453392 6097.7664 47.037759 6100.803 44.025791C6106.5643 38.311146 6109.0 34.101943 6109.0 29.860453C6109.0 24.538494 6107.3288 24.888675 6101.1755 31.5C6098.3601 34.525 6095.2275 37.0 6094.2141 37.0C6093.1166 37.0 6090.3846 34.369352 6087.4566 30.493079C6084.7533 26.914273 6082.0822 24.136558 6081.5208 24.320379C6080.9593 24.5042 6080.3622 26.27569 6080.1938 28.257024C6079.8162 32.69965 6082.5596 38.284754 6087.4059 42.939926L6090.9871 46.379851L6090.3433 57.652236C6089.4733 72.884442 6091.4021 78.214374 6099.2593 82.290737C6103.1046 84.2857 6106.1949 83.40886 6110.3632 79.140106Z M6097.9794 87.273053C6097.9907 86.598232 6096.8366 85.283814 6095.4147 84.352124C6093.2137 82.910012 6092.6955 82.869413 6091.9294 84.079071C6090.0318 87.075392 6087.8449 95.15145 6088.4881 96.787188C6089.0419 98.195364 6089.944 97.610715 6093.5603 93.5C6095.9795 90.75 6097.9681 87.947874 6097.9794 87.273053Z M6111.1227 93.925861C6112.0141 90.736134 6112.1669 84.500277 6111.3732 83.706549C6110.868 83.201346 6105.6057 85.28403 6104.142 86.568492C6103.3624 87.252645 6108.4424 97.019215 6109.4101 96.696644C6109.9792 96.506937 6110.7499 95.260085 6111.1227 93.925861Z"/>
</svg>
