<svg xmlns="http://www.w3.org/2000/svg"
     width="39.2" height="64.0"
     viewBox="4723.2500 52.5015 31.0199 50.5987">
  <path d="M 4727.7188 98.0625 C 4729.9287 99.100174 4731.0795 98.800772 4733.9375 97.375 C 4736.7263 95.983772 4737.7564 95.94013 4741.0625 97.03125 C 4744.1883 98.062863 4745.2287 98.060396 4746.4688 97.03125 C 4748.7018 95.177941 4748.3684 92.969521 4745.3438 89.8125 L 4742.6562 87.03125 L 4745.1875 81.78125 C 4749.1039 73.669155 4750.2699 69.171725 4749.7188 64.28125 C 4749.1118 58.89584 4747.0984 56.501493 4743.8438 57.34375 C 4739.0414 58.586559 4736.9512 63.964762 4734.375 81.78125 C 4733.8144 85.657963 4730.492 87.283723 4727.4062 86.46875 C 4727.3973 86.46638 4727.384 86.471161 4727.375 86.46875 L 4727.25 87 L 4727.375 89.65625 C 4727.5951 89.746772 4727.9408 90 4728.0938 90 C 4728.6519 90 4730.3975 89.328669 4732 88.5 C 4734.1905 87.367256 4735.3134 85.703034 4736.4688 81.8125 C 4737.314 78.966343 4737.994 75.475174 4738 74.0625 C 4738.0228 68.747063 4739.2501 64.419938 4741.5312 61.5625 C 4743.8836 58.615773 4743.9033 58.61409 4746.0625 60.5625 C 4747.8991 62.219763 4748.1566 63.265253 4747.7188 67.53125 C 4747.4352 70.294394 4745.5555 76.024474 4743.5625 80.28125 C 4739.6957 88.540538 4739.7943 91.165159 4744 92.5 C 4746.1584 93.185027 4746.7456 95 4744.8125 95 C 4744.164 95 4742.1161 94.456064 4740.25 93.78125 C 4737.3605 92.73641 4736.4062 92.810617 4733.8438 94.28125 C 4731.0557 95.881405 4729.9251 96.206287 4727.5938 95 L 4727.7188 98.0625 z "/>
</svg>
