<svg xmlns="http://www.w3.org/2000/svg"
     width="44.0" height="64.0"
     viewBox="5074.4375 13.5222 55.3284 80.4778">
  <path d="M 5082 50.5625 L 5082.625 56.3125 C 5083.2071 56.117079 5083.8796 56.537892 5085.5 57.8125 C 5087.372 59.285035 5089.6763 60 5092.5938 60 C 5096.2913 60 5097.2418 59.535468 5099.3438 56.75 C 5102.8771 52.067917 5105 46.377196 5105 41.5625 C 5105 38.079297 5104.492 37.006819 5102.0312 35.1875 C 5098.8037 32.801289 5096.2916 26.284921 5097.4375 23.3125 C 5097.9988 21.85676 5098.6732 22.61393 5100.8125 26.96875 C 5102.2877 29.971565 5104.1057 32.590113 5104.8438 32.8125 C 5105.5819 33.034887 5108.3593 30.937701 5111 28.125 C 5113.6407 25.312298 5116.0725 23 5116.4062 23 C 5117.3938 23 5117.0733 27.436458 5115.8438 31.09375 C 5115.2152 32.963323 5113.4153 35.797239 5111.8438 37.375 C 5110.0679 39.157968 5109 41.295773 5109 43.03125 C 5109 47.500843 5105.5347 57.344104 5102.9062 60.375 C 5101.5769 61.90788 5098.9796 63.816804 5097.125 64.59375 C 5092.5076 66.528051 5090.2823 66.317328 5084.75 63.4375 C 5081.8744 61.940585 5080.6285 61.114538 5080.3438 60.21875 L 5078.4375 62.96875 L 5078.5 63.71875 C 5079.5662 63.947449 5080.8855 64.565926 5083.6875 66 L 5089.7812 69.125 L 5090.1875 75.8125 C 5090.6161 82.845579 5093.3071 90 5095.5312 90 C 5096.2537 90 5097.8335 88.7625 5099.0312 87.25 C 5100.9496 84.827334 5101.1658 83.593471 5100.7812 76.8125 L 5100.3438 69.09375 L 5103.25 71.5625 C 5104.8495 72.908442 5106.537 74 5107 74 C 5107.4629 74 5108.8292 75.586345 5110.0312 77.53125 C 5111.7828 80.365273 5112.4749 80.83482 5113.5938 79.90625 C 5114.3617 79.268999 5115 77.226756 5115 75.375 C 5115 71.541814 5111.8383 62.572311 5109.625 60.125 C 5108.3144 58.675714 5108.3635 57.751881 5109.9375 52 C 5110.9573 48.273327 5112.3087 45.379258 5113.125 45.21875 C 5113.9081 45.064775 5116.087 46.527275 5117.9688 48.46875 C 5119.8504 50.410225 5121.9141 52 5122.5625 52 C 5125.7659 52 5124.6186 39.856614 5120.9375 34.78125 C 5119.443 32.720573 5119.1137 31.127218 5119.5625 28.28125 C 5120.1903 24.300797 5118.7461 19 5117.0312 19 C 5116.4719 19 5114.7668 20.426749 5113.25 22.1875 C 5105.2438 31.481734 5105.1507 31.522166 5102.0938 23.46875 C 5101.0752 20.785674 5099.7681 18.433104 5099.2188 18.25 C 5097.0354 17.522227 5095 21.191321 5095 25.84375 C 5095 30.580543 5096.2056 33.21835 5100.5938 38 C 5102.665 40.256886 5102.807 40.942513 5101.9062 45 C 5101.357 47.473931 5099.7933 51.1875 5098.4375 53.25 C 5095.2684 58.071062 5090.8796 58.428095 5086.4375 54.21875 C 5084.7602 52.629276 5083.3384 51.482827 5082 50.5625 z M 5118.2812 36 C 5119.441 36 5122 41.796717 5122 44.4375 C 5122 47.721709 5121.3133 47.630979 5116.7812 43.625 L 5113.0312 40.3125 L 5115.3438 38.15625 C 5116.6076 36.969053 5117.9182 36 5118.2812 36 z M 5106.6875 61 C 5108.1663 61 5110.8932 66.463123 5111.5938 70.84375 C 5111.9595 73.131015 5112.0828 74.980714 5111.875 74.96875 C 5111.6672 74.956786 5109.3893 72.819286 5106.8125 70.21875 C 5102.1574 65.520696 5102.1352 65.485632 5103.9688 63.25 C 5104.9837 62.0125 5106.2067 61 5106.6875 61 z M 5094.625 69.1875 C 5096.2502 68.955699 5097.0242 69.653125 5097.875 72.09375 C 5099.2742 76.107632 5099.3234 81.531301 5097.9688 84.0625 C 5095.522 88.634433 5092.7126 84.153584 5092.5938 75.5 C 5092.5198 70.103454 5092.707 69.46104 5094.625 69.1875 z "/>
</svg>
