<svg xmlns="http://www.w3.org/2000/svg"
     width="41.7" height="64.0"
     viewBox="4511.1562 18.8941 52.8598 81.1311">
  <path d="M 4518.375 78.40625 L 4517.9375 78.53125 L 4517.1875 81.90625 L 4521.4688 84.4375 C 4523.8836 85.852707 4526.8181 87 4528 87 C 4531.1541 87 4535.6701 81.957754 4537.0312 76.90625 C 4538.6455 70.915102 4537.4833 58.736118 4534.4375 49.78125 C 4531.3661 40.750943 4531.2143 33.245926 4534.0625 29.625 C 4536.6853 26.290633 4540.3081 26.245658 4543.5312 29.46875 C 4546.1337 32.071265 4546.1146 31.845321 4546.375 49 C 4546.5405 59.897056 4548.013 63.189134 4553.5 65 C 4557.0512 66.171997 4558.3274 68.030326 4557.3438 70.59375 C 4556.72 72.219234 4555.8797 72.112574 4550.3125 69.875 C 4547.4999 68.744556 4546.842 68.827058 4545.0625 70.4375 C 4543.949 71.445216 4542.7631 73.210036 4542.4062 74.375 C 4540.8554 79.437596 4535.9766 88.696862 4533.7812 90.75 C 4529.707 94.560391 4526.1328 94.606135 4521 90.9375 C 4518.525 89.168526 4516.3286 87.577335 4516.125 87.40625 C 4516.0427 87.337026 4516.23 86.595838 4516.25 86.21875 L 4515.1562 91.125 C 4515.7828 91.225526 4517.8777 92.197388 4520.1562 93.5 C 4522.5499 94.868375 4525.7726 95.993375 4527.3125 96 C 4533.1751 96.025223 4538.7797 91.06095 4541.1562 83.78125 C 4543.0306 78.040111 4546.1361 72 4547.2188 72 C 4547.7933 72 4550.0002 72.519643 4552.125 73.15625 C 4555.4918 74.164942 4556.2437 74.08651 4558.0312 72.46875 C 4559.429 71.203717 4560.016 69.640716 4559.8125 67.5625 C 4559.5726 65.11196 4558.7228 64.122638 4555.5312 62.625 C 4549.4788 59.784944 4549.073 58.787079 4549.0312 46.5 C 4548.9846 32.74788 4547.8747 28.496153 4543.7188 25.96875 C 4538.663 22.894137 4533.0598 25.249691 4530.5 31.5 C 4528.8101 35.626397 4530.3879 46.539343 4533.9688 55.5 C 4534.6281 57.15 4535.2508 62.617457 4535.3438 67.65625 C 4535.4884 75.491754 4535.191 77.232156 4533.4375 79.59375 C 4529.8323 84.449382 4528.5255 84.778244 4523.4062 82.0625 C 4520.8744 80.719335 4518.6018 79.122106 4518.375 78.53125 C 4518.3723 78.524121 4518.3776 78.414557 4518.375 78.40625 z "/>
</svg>
