<svg xmlns="http://www.w3.org/2000/svg"
     width="38.1" height="64.0"
     viewBox="1095.7128 17.6181 24.5684 41.3194">
  <path d="M 1106.4062,54.875 1106.8438,54.9375 1112.0625,49.96875 C 1109.6493,51.260279 1103.8801,47.498742 1102.9062,44 1101.6654,39.542307 1101.9255,29.470765 1103.3438,27.53125 1105.4404,24.663819 1106.6757,26.383153 1107.2812,33.0625 1107.6822,37.483457 1108.6844,40.569824 1110.875,44.09375 1112.8188,47.220702 1113.3883,48.347544 1113.0625,49.0625 L 1116.2812,46 1116.2812,45.46875 C 1114.7816,44.799466 1113.1702,43.296265 1112.0625,41.125 1111.0157,39.073054 1109.8287,34.157769 1109.4375,30.1875 1109.0463,26.217232 1108.3144,22.716453 1107.8125,22.40625 1106.5372,21.618054 1102.3043,24.548078 1100.875,27.21875 1100.2198,28.442941 1099.7128,32.800051 1099.75,36.875 1099.8052,42.920546 1100.246,44.833079 1102.0938,47.375 1103.3392,49.08836 1104.9594,50.872671 1105.6875,51.3125 1107.0883,52.158595 1107.275,53.697612 1106.4062,54.875 z"/>
</svg>
