<svg xmlns="http://www.w3.org/2000/svg"
     width="37.4" height="64.0"
     viewBox="3826.5625 16.1029 43.9450 75.1783">
  <path d="M 3830.5625 78.46875 L 3832.3125 80.9375 C 3832.8525 80.204542 3833.3952 79.516365 3833.9062 78.6875 C 3835.404 76.258077 3837.9262 74.075373 3840.8438 72.6875 C 3848.8582 68.874858 3853.3584 58.48515 3854.625 41 C 3855.0422 35.240347 3855.919 31.291024 3857.3125 28.75 C 3859.7396 24.324186 3860.3985 24.180726 3862.5938 27.53125 C 3864.7499 30.822083 3863.8491 41.06324 3860.4375 51.8125 C 3857.4677 61.169649 3857.4425 62.79552 3860.125 69.03125 C 3862.9847 75.678873 3861.1529 80.391273 3858 74.5 C 3856.1725 71.08524 3853.7003 71.366539 3849.125 75.5 C 3846.9974 77.422146 3843.6629 79.656413 3841.7188 80.46875 C 3839.7745 81.281087 3837.449 82.707259 3836.5312 83.625 C 3836.1774 83.978859 3835.5473 84.316149 3834.9375 84.65625 L 3836.7812 87.28125 C 3837.5218 86.89281 3838.1961 86.628307 3839.0312 86.0625 C 3841.4898 84.396701 3844.0641 83.041259 3844.75 83.03125 C 3845.4359 83.021242 3847.8489 81.306321 3850.125 79.25 L 3854.2812 75.53125 L 3855.75 77.75 C 3857.847 80.908296 3862.4631 80.768267 3864.625 77.46875 C 3866.2043 75.058466 3866.1368 74.636501 3863.625 68.71875 C 3862.1735 65.299075 3860.9984 61.931381 3861 61.21875 C 3861.0016 60.50612 3862.2161 56.23112 3863.6875 51.71875 C 3865.7098 45.516807 3866.381 41.374075 3866.4375 34.78125 C 3866.5075 26.622275 3866.3352 25.871842 3863.8438 23.375 C 3860.5788 20.102906 3858.9549 20.606459 3855.4062 25.96875 C 3853.2009 29.301177 3852.5467 31.741625 3851.9062 39.28125 C 3850.3913 57.116076 3847.2275 65.839551 3841.0938 68.96875 C 3839.0573 70.007637 3834.3239 74.269782 3830.5938 78.4375 C 3830.5816 78.451056 3830.5746 78.455232 3830.5625 78.46875 z "/>
</svg>
