<svg xmlns="http://www.w3.org/2000/svg"
     width="38.8" height="64.0"
     viewBox="7012.8438 15.0375 51.7525 85.3280">
  <path d="M 7019.6562 77.6875 L 7018.2812 84.1875 L 7018.25 84.40625 C 7018.7855 83.845517 7019.5368 84.283639 7021.7188 86 C 7024.4323 88.134528 7028.4184 88.56991 7032.1875 87.125 C 7033.5779 86.591985 7035.6754 83.905105 7037.4375 80.40625 L 7040.375 74.5625 L 7039.9688 59.03125 C 7039.384 35.948625 7039.5428 33.912803 7042.1562 28.4375 C 7045.0787 22.315056 7047.5158 21.575901 7049.4688 26.25 C 7051.19 30.369291 7051.4901 37.05829 7050.5625 51 C 7049.8187 62.179466 7049.6286 61.465564 7055.2188 69.21875 C 7057.2154 71.987894 7054.9819 73.38517 7051.4688 71.5625 C 7048.8904 70.224824 7048.3812 70.236539 7046.8125 71.65625 C 7045.8486 72.528587 7044.5514 74.879006 7043.9062 76.875 C 7042.1176 82.40894 7039.0941 87.999633 7036.4688 90.625 C 7033.8075 93.286276 7031.2029 93.508667 7025.75 91.5625 C 7021.1931 89.936135 7018.3914 88.115993 7017.7812 86.5625 L 7016.8438 91.25 L 7016.8438 91.375 C 7017.6597 91.173777 7018.5072 91.485451 7020.1875 92.28125 C 7026.1735 95.116317 7032.8773 96.365448 7035.5312 95.15625 C 7038.5634 93.774727 7044.461 84.881352 7046.125 79.15625 C 7047.6023 74.07333 7049.1025 73.169277 7052.4688 75.375 C 7053.8108 76.25427 7055.5944 76.698518 7056.4375 76.375 C 7059.2841 75.282646 7060.5963 66 7057.9062 66 C 7057.4277 66 7056.2477 64.787447 7055.2812 63.3125 C 7053.7753 61.014097 7053.5449 58.119615 7053.5312 43.0625 C 7053.5172 27.58408 7053.2681 25.17287 7051.625 22.75 C 7049.4391 19.526907 7045.1299 19.037477 7042.8125 21.75 C 7041.9902 22.7125 7040.3401 26.2 7039.1562 29.5 C 7037.186 34.991709 7037.0278 37.194302 7037.25 55.5 L 7037.5 75.5 L 7034.4375 80 C 7031.7326 83.96592 7030.9611 84.464738 7027.9375 84.3125 C 7024.4046 84.134622 7021.3177 81.250739 7019.6562 77.6875 z "/>
</svg>
