<svg xmlns="http://www.w3.org/2000/svg"
     width="22.9" height="64.0"
     viewBox="50.9726 14.6559 32.8399 91.9258">
  <path d="M 61.25 45.46875 L 60.9375 49.28125 C 61.652035 49.203552 61.850851 49.448017 61.1875 50.6875 C 61.132407 50.790442 60.863841 50.895178 60.78125 51 L 60.34375 56.1875 C 61.691878 57.206065 62.021909 60.62774 62.9375 69.5 L 64.0625 80.5 L 59.875 84.28125 C 54.972556 88.702582 55.374481 90.462917 60.40625 86.625 C 62.309523 85.173303 64.350803 84 64.9375 84 C 67.39768 84 65.749189 87.743533 61.78125 91.15625 C 59.435814 93.173496 57.830059 95.142558 58.21875 95.53125 C 58.607442 95.919941 60.315822 95.068437 62.03125 93.625 C 66.110958 90.192152 67.549685 90.327306 68.90625 94.21875 C 69.52083 95.981738 70.759573 98.491691 71.625 99.8125 C 73.439407 102.58164 74.298937 101.97533 75.96875 96.75 C 76.664356 94.573246 77.065273 93.512424 77.90625 93.25 L 78.65625 88.34375 C 78.419471 87.86696 78.255921 87.344638 78.1875 86.75 C 77.961122 84.782569 78.213091 84.080616 79.28125 84.40625 L 79.8125 80.9375 C 79.720852 80.869741 79.210353 80.452005 79.1875 80.4375 C 79.022557 80.332814 78.762038 73.551723 78.59375 65.375 C 78.153012 43.960538 73.836534 20.455928 70.125 19.21875 C 68.4363 18.65585 66.725889 24.179268 62.5 43.625 C 62.358611 44.27561 61.8802 44.891398 61.25 45.46875 z M 70.34375 25.15625 C 71.215875 26.010965 72.142835 29.609134 73.40625 36.84375 C 75.104234 46.566802 77.012082 69.988698 76.4375 74.21875 C 76.267657 75.469122 75.567352 80.6625 74.90625 85.75 C 74.245147 90.8375 73.426496 94.978136 73.09375 94.96875 C 72.175344 94.942842 68.227326 84.969066 67.5625 81 C 64.202859 60.942673 63.783054 55.319835 64.90625 46 C 66.035985 36.625904 68.297373 26.390127 69.5 25.1875 C 69.791709 24.895791 70.053042 24.871345 70.34375 25.15625 z "/>
</svg>
