<svg xmlns="http://www.w3.org/2000/svg"
     width="19.4" height="64.0"
     viewBox="6850.4434 13.9204 26.6705 87.9137">
  <path d="M6855.368 96.806849C6854.7442 95.967469 6854.7204 87.630444 6855.3014 73.5C6855.8976 59.00038 6855.8457 46.046467 6855.1492 35.503782C6854.484 25.434221 6854.4434 19.156626 6855.0396 18.560374C6855.6359 17.964122 6857.0284 18.611103 6858.7981 20.306593C6862.2069 23.572358 6865.2353 23.73716 6867.9666 20.805517C6870.6544 17.92044 6872.307 19.442895 6871.0907 23.683731C6869.7797 28.2549 6871.0766 88.282756 6872.6045 93.75C6873.1139 95.572706 6872.8313 96.0 6871.1166 96.0C6869.9525 96.0 6869.0 95.565833 6869.0 95.035184C6869.0 93.461808 6865.0819 91.839233 6862.931 92.52189C6861.8346 92.869869 6859.903 94.270381 6858.6384 95.634138C6856.831 97.583336 6856.1315 97.834171 6855.368 96.806849Z M6868.0 47.023053C6868.0 41.619831 6866.5046 39.874789 6860.6374 38.431045L6857.7747 37.726644L6858.5004 43.113322C6858.8996 46.075995 6859.2878 48.553124 6859.3631 48.618054C6860.3315 49.453026 6865.806 51.929727 6866.75 51.959962C6867.5879 51.986801 6868.0 50.359297 6868.0 47.023053Z M6867.8961 33.75C6867.7487 26.747255 6867.4378 26.305146 6862.7327 26.407723C6858.6821 26.49603 6858.4862 26.644368 6858.1787 29.855937C6857.9322 32.431039 6858.3897 33.594403 6860.1451 34.855937C6866.1911 39.20103 6868.0054 38.94215 6867.8961 33.75Z M6868.0 63.464036C6868.0 55.575483 6867.2335 54.319108 6861.3534 52.569569C6859.4247 51.995707 6859.171 52.365728 6858.8534 56.215444C6858.1541 64.693094 6859.1564 68.026849 6862.9996 70.006694C6864.9244 70.998242 6866.8369 71.600812 6867.2496 71.345737C6867.6623 71.090663 6868.0 67.543897 6868.0 63.464036Z M6868.838 88.437772C6869.0239 88.283513 6868.864 85.24388 6868.4827 81.683032C6867.8048 75.352843 6867.7025 75.169579 6863.8845 73.447911C6861.7368 72.479441 6859.7929 71.87375 6859.5647 72.101932C6859.1909 72.475778 6858.7358 83.934313 6858.9241 88.23087C6858.989 89.710466 6859.6896 89.871479 6863.75 89.339992C6866.3625 88.998031 6868.6521 88.592032 6868.838 88.437772Z"/>
</svg>
