<svg xmlns="http://www.w3.org/2000/svg"
     width="38.5" height="64.0"
     viewBox="371.7500 20.4893 48.4837 80.5107">
  <path d="M 376.125 80.0625 L 375.75 84.15625 C 376.91538 82.871985 379.7655 83.265615 383.125 85.59375 C 386.42429 87.88016 387.58824 88.188479 389.8125 87.40625 C 396.5857 85.024242 399.56339 70.691705 396.59375 54.84375 C 394.57869 44.090067 394.58804 39.090874 396.625 34 C 398.25768 29.919541 401.20714 27.40389 403.03125 28.53125 C 407.25422 31.141189 408.53946 43.190588 406.03125 56.75 C 404.33013 65.946286 405.57611 71.227408 410.03125 73.53125 C 413.10365 75.120049 413.40403 75.755908 412.375 78.4375 C 411.83294 79.850089 411.39137 79.794344 408.4375 77.96875 L 405.09375 75.90625 L 403.6875 78.1875 C 402.91404 79.451351 401.07364 82.637116 399.59375 85.25 C 398.11385 87.862885 395.96154 90.900385 394.78125 92 C 391.9762 94.613299 390.04212 94.517624 385.6875 91.5625 C 383.716 90.224603 380.63025 88.987103 378.8125 88.8125 C 377.65071 88.700905 376.90312 88.491204 376.34375 88.15625 L 377.125 92.65625 L 377.21875 92.96875 C 378.61778 92.173434 381.12318 92.568435 384.3125 94.4375 C 386.71368 95.844688 389.81983 97 391.21875 97 C 394.50567 97 398.92454 92.473768 402.46875 85.46875 C 405.42535 79.625137 406.32848 79.094185 409.125 81.625 C 411.60271 83.86729 413.59465 82.790435 415.03125 78.4375 C 416.23371 74.793998 416.17474 74.719652 411.96875 70.875 L 407.71875 66.96875 L 408.59375 60.25 C 409.07077 56.545941 409.45452 48.544388 409.46875 42.46875 C 409.48983 33.465745 409.16124 30.903313 407.6875 28.65625 C 405.35744 25.103518 403.63431 24.489255 400.0625 25.96875 C 394.1406 28.421679 390.82653 41.968297 393.4375 53 C 396.45475 65.748312 394.99603 80.638135 390.4375 83.625 C 388.48944 84.901413 387.86919 84.848802 384.875 83.125 C 383.02181 82.058086 380.10213 80.889987 378.375 80.53125 L 376.125 80.0625 z "/>
</svg>
