<svg xmlns="http://www.w3.org/2000/svg"
     width="55.2" height="64.0"
     viewBox="4835.0000 16.0000 76.7402 89.0226">
  <path d="M4903.9988 94.25C4903.9981 93.8375 4902.8731 92.192507 4901.4988 90.594461C4898.2992 86.874077 4898.3147 83.310181 4901.5708 73.990501C4903.2402 69.212341 4903.8538 66.00881 4903.3208 64.854029C4902.2862 62.61241 4892.2933 52.22735 4889.9794 50.988967C4888.6604 50.283047 4887.1296 50.933828 4883.5509 53.721938C4879.7142 56.711157 4878.6868 57.117566 4877.9422 55.94073C4876.4641 53.604658 4876.87 40.737895 4878.58 35.719104L4880.1601 31.081931L4876.9127 27.040965C4875.1266 24.818434 4873.3157 23.0 4872.8884 23.0C4872.4611 23.0 4870.8489 24.086445 4869.3058 25.414323C4866.6348 27.712687 4866.5646 27.988857 4867.8447 31.164323C4870.2289 37.078508 4871.105 42.545104 4870.7991 49.600492C4870.505 56.385159 4870.4519 56.505493 4867.6089 56.830036C4866.0188 57.011556 4861.6203 56.164096 4857.8345 54.946791L4850.9512 52.733509L4846.4756 57.471654C4841.7655 62.4581 4841.0189 65.289347 4843.0238 70.562565C4843.5869 72.043585 4844.1052 76.375977 4844.1756 80.190101C4844.2744 85.539772 4843.9116 87.510605 4842.5881 88.812437C4840.9695 90.404624 4840.9095 90.160899 4841.5268 84.5C4841.9709 80.42794 4841.67 76.311128 4840.5906 71.687947C4839.7158 67.941318 4839.0 64.05395 4839.0 63.049352C4839.0 60.841813 4849.2624 50.0 4851.352 50.0C4852.1672 50.0 4854.9338 50.9 4857.5 52.0C4860.0662 53.1 4863.4274 54.0 4864.9694 54.0C4867.3182 54.0 4867.8442 53.514749 4868.2121 51.008481C4868.9517 45.96887 4866.9773 35.289439 4864.9701 33.472934C4863.3949 32.047401 4862.661 31.99312 4859.6557 33.079852C4853.1238 35.441809 4848.6277 29.831992 4852.5567 24.222506C4854.533 21.400992 4858.8567 21.312862 4862.3032 24.023846L4864.8761 26.047692L4868.3201 23.023846C4870.2142 21.360731 4872.3582 20.0 4873.0844 20.0C4873.8106 20.0 4875.8383 21.389372 4877.5903 23.087493L4880.7758 26.174987L4885.0021 23.113439C4888.3328 20.70066 4889.6256 20.264419 4891.1024 21.05481C4893.804 22.500659 4894.4251 26.277337 4892.5557 29.892296C4891.1615 32.588389 4890.4155 33.0 4886.9233 33.0C4883.2752 33.0 4882.7621 33.325022 4881.449 36.467881C4880.0775 39.75022 4879.3709 52.0 4880.5531 52.0C4880.8572 52.0 4882.6879 50.925147 4884.6212 49.611438C4889.813 46.083496 4890.3125 46.352094 4902.4837 59.216667C4906.6943 63.667182 4907.0441 67.598713 4904.0 76.259676C4901.4025 83.649902 4901.4776 85.590486 4904.5 89.182369C4907.3153 92.528158 4907.7402 95.0 4905.5 95.0C4904.675 95.0 4903.9995 94.6625 4903.9988 94.25Z M4870.4614 97.399562C4861.8255 92.93077 4860.3579 87.971519 4864.8902 78.574063C4869.0279 69.994685 4868.3758 68.309758 4859.449 64.515823L4852.7029 61.64869L4850.7697 64.036129C4849.1911 65.985598 4848.9689 67.256092 4849.5584 70.961784C4850.4456 76.539436 4850.2179 82.296661 4848.9813 85.549063C4847.5028 89.437923 4847.1931 88.463468 4847.7405 81.64467C4848.0294 78.045025 4847.7496 73.771461 4847.0953 71.788712C4845.7731 67.782333 4846.5381 65.117111 4850.3332 60.508689L4852.7966 57.517379L4856.6483 59.636833C4858.7667 60.802533 4862.191 62.297161 4864.2577 62.958229C4866.3244 63.619297 4868.4619 64.994549 4869.0077 66.014344C4870.759 69.286687 4870.0976 75.332548 4867.4428 80.319609C4864.1128 86.575032 4865.1602 90.597676 4870.969 93.862419C4874.6074 95.907304 4875.1526 95.963099 4878.3679 94.61964C4884.8449 91.913399 4886.1248 84.481848 4881.4793 76.554816C4878.984 72.297032 4878.8326 71.501931 4879.8627 68.063964C4881.1524 63.759223 4884.2143 59.490843 4887.1332 57.928722C4888.8048 57.034083 4889.6575 57.461072 4892.6374 60.685043C4894.5767 62.783269 4896.8339 65.777552 4897.6534 67.339004C4898.9812 69.86898 4898.9723 70.538538 4897.5717 73.490134C4896.7073 75.311802 4896.0 78.797901 4896.0 81.23702C4896.0 84.817266 4895.297 86.574051 4892.3518 90.354378C4888.0577 95.866032 4886.5099 95.757693 4890.3514 90.214363C4892.1574 87.608368 4893.0 85.096377 4893.0 82.318373C4893.0 80.077604 4893.6948 76.58126 4894.5441 74.54872C4896.3614 70.199176 4895.9686 68.614735 4891.9904 64.25C4888.4645 60.381528 4887.9918 60.315364 4885.1897 63.298075C4881.6948 67.01827 4881.467 70.891672 4884.4169 76.439654C4885.8376 79.111678 4886.9983 82.918356 4886.9963 84.898939C4886.987 93.822162 4877.4628 101.02258 4870.4614 97.399562Z M4860.5589 29.558569C4863.2118 27.58857 4861.3442 24.5 4857.5 24.5C4854.0007 24.5 4852.064 27.167316 4853.9304 29.416177C4855.566 31.386911 4858.0255 31.439747 4860.5589 29.558569Z M4889.8 29.8C4891.7169 27.883134 4891.298 24.0 4889.1743 24.0C4886.8862 24.0 4882.5611 28.480785 4883.4542 29.925972C4884.3464 31.36947 4888.3092 31.290802 4889.8 29.8Z M4891.0 97.118689C4891.0 96.633968 4892.5168 95.080481 4894.3706 93.666497L4897.7412 91.095615L4899.8706 93.362259C4901.0418 94.608913 4902.0 95.937399 4902.0 96.314451C4902.0 97.631264 4899.7105 96.986313 4898.4978 95.327897C4897.3741 93.791078 4897.1247 93.831531 4895.4153 95.827897C4893.544 98.013468 4891.0 98.757185 4891.0 97.118689Z"/>
</svg>
