<svg xmlns="http://www.w3.org/2000/svg"
     width="21.5" height="64.0"
     viewBox="3030.8811 16.3918 30.4724 90.8486">
  <path d="M3042.0 36.293772C3040.0512 35.581387 3036.0 31.889311 3036.0 30.825686C3036.0 29.30926 3038.1008 29.97508 3041.5024 32.569616C3045.2274 35.41085 3046.165 35.21545 3052.75 30.225422C3055.1219 28.428018 3056.0 28.154157 3056.0 29.211791C3056.0 31.06593 3047.7572 37.025113 3045.3365 36.921053C3044.3264 36.877632 3042.825 36.595355 3042.0 36.293772Z M3039.75 57.990155C3037.6875 56.265485 3036.0 54.212154 3036.0 53.427196C3036.0 51.399396 3037.7474 51.659516 3038.9266 53.86285C3041.178 58.069637 3047.5377 58.712214 3055.25 55.51215C3056.3272 55.065177 3057.0 55.231213 3057.0 55.944038C3057.0 57.279117 3051.0372 59.970156 3046.5565 60.657231C3044.1832 61.021162 3042.6618 60.425046 3039.75 57.990155Z M3039.5306 26.892719C3034.8811 22.810404 3036.3001 20.391846 3041.0164 24.360337C3044.9223 27.646921 3046.07 27.653463 3049.9233 24.411106C3051.9959 22.667077 3053.0 22.279364 3053.0 23.223048C3053.0 24.803427 3048.5629 28.369193 3045.3126 29.400788C3043.7201 29.90622 3042.2233 29.256942 3039.5306 26.892719Z M3041.2347 72.502684C3038.1658 71.169036 3036.1222 68.544504 3037.2637 67.402985C3037.5446 67.122068 3039.2877 67.814793 3041.1372 68.942375C3045.4386 71.564773 3048.3953 71.536827 3052.7712 68.832413C3057.3535 66.000395 3056.6917 68.588105 3052.025 71.75C3048.2113 74.333999 3045.8308 74.50005 3041.2347 72.502684Z M3045.0 53.183979C3042.1938 52.786594 3037.0 48.325724 3037.0 46.312909C3037.0 44.364638 3037.8728 44.681101 3041.6528 48.0C3045.8436 51.679587 3049.2795 51.811442 3052.6682 48.422727C3054.3964 46.694544 3055.5768 46.176836 3056.2513 46.85131C3056.9258 47.525784 3056.3828 48.667524 3054.6031 50.316879C3051.7741 52.938721 3049.0376 53.755736 3045.0 53.183979Z M3041.8062 101.83159C3036.0902 99.792904 3035.5913 88.851302 3041.0376 84.973258C3044.7545 82.326533 3044.7487 81.55276 3041.0 80.0C3039.35 79.316548 3038.0 78.136953 3038.0 77.37868C3038.0 75.660117 3038.8252 75.685147 3042.0 77.5C3045.6359 79.578489 3050.3705 79.353031 3052.5 77.0C3053.4955 75.9 3055.0066 75.0 3055.8579 75.0C3056.8769 75.0 3056.1429 76.293461 3053.7101 78.784885L3050.0142 82.569769L3052.1173 84.672874C3053.3759 85.931478 3054.4073 88.527545 3054.6858 91.13799C3055.0841 94.871539 3054.7441 95.954665 3052.3256 98.655729C3049.1335 102.22078 3045.7562 103.24041 3041.8062 101.83159Z M3050.3317 98.74672C3053.1818 96.662709 3053.5379 90.953569 3051.0177 87.749687C3048.4667 84.506563 3043.4876 83.989453 3041.392 86.75C3039.5305 89.202292 3039.6426 96.499722 3041.5714 98.428571C3043.4588 100.31591 3047.962 100.47946 3050.3317 98.74672Z"/>
</svg>
