<svg xmlns="http://www.w3.org/2000/svg"
     width="33.7" height="64.0"
     viewBox="685.3204 15.0430 47.6752 90.6494">
  <path d="M694.97586 100.47092C693.18742 98.315969 694.28473 90.98253 697.32602 84.764572C699.62677 80.060661 699.78923 79.020764 698.85147 75.0C697.85823 70.741335 698.37011 50.805046 699.55175 47.725729C699.83851 46.978447 698.75706 44.710974 697.14853 42.6869C691.30981 35.339824 689.32043 19.5 694.23641 19.5C696.05489 19.5 703.40919 27.772456 706.35252 33.128759L708.20504 36.5L711.10252 33.037774C712.69613 31.13355 714.0 29.063567 714.0 28.437813C714.0 27.812058 715.37669 25.399611 717.05931 23.076819C719.66732 19.476576 720.34684 19.042966 721.66567 20.137493C725.28129 23.138194 721.30235 37.169237 714.70495 44.683264C712.13713 47.607851 711.5974 49.278581 710.74024 56.955967C709.68277 66.427531 710.16509 71.475928 712.4224 74.562991C713.79566 76.441028 713.85616 76.44015 715.98759 74.511232C717.18011 73.432012 719.7715 69.931405 721.74622 66.732104C724.11419 62.895678 725.81786 61.099867 726.7501 61.457597C727.52751 61.755919 728.35177 62.0 728.58179 62.0C728.8118 62.0 728.9956 63.6875 728.99023 65.75C728.9789 70.100839 724.94459 79.3774 721.48749 83.001943C719.31467 85.279998 719.19091 85.903472 720.10443 89.969259C721.57878 96.531128 720.67563 99.0 716.80084 99.0C714.32132 99.0 712.69475 97.985199 709.25667 94.293276C705.74389 90.521141 704.69059 89.875805 703.95209 91.043276C703.44529 91.844474 703.02373 93.187372 703.01531 94.027494C702.99506 96.048155 700.35879 99.737614 698.05372 100.97125C696.70622 101.69241 695.87786 101.55775 694.97586 100.47092Z M716.5 83.70734C721.19506 81.054916 725.94108 73.256606 725.97664 68.136047L726.0 64.772094L721.99781 70.765419C716.94751 78.328304 715.66297 79.383212 712.47762 78.583738C708.95989 77.700844 708.0 74.463871 708.0 63.484121C708.0 52.061583 709.4942 44.295309 711.83478 43.552438C715.66004 42.33835 722.72029 26.181231 720.12615 24.577966C719.61178 24.260068 717.85367 26.362477 716.21923 29.249985C711.93443 36.819781 709.58577 39.43876 707.72309 38.723982C706.84946 38.388737 704.59049 35.726196 702.70317 32.807223C700.81584 29.88825 698.08554 26.409059 696.63583 25.075686L694.0 22.651372L694.0 25.699959C694.0 30.135436 696.64941 36.963897 699.98344 41.121403L702.88756 44.742806L701.58507 54.121403C699.63139 68.188867 701.34925 79.452537 706.1273 83.903972C708.99643 86.576969 711.50463 86.529422 716.5 83.70734Z M700.25536 95.302467C702.5885 91.307573 703.06626 84.5 701.01347 84.5C699.05723 84.5 696.83643 89.271547 696.21128 94.817872C695.62041 100.06004 697.35537 100.26794 700.25536 95.302467Z M718.25762 92.448667C717.97199 87.931357 716.563 86.037004 714.8 87.8C714.14 88.46 712.565 89.0 711.3 89.0C707.69133 89.0 708.40623 90.960505 713.41913 94.811431C717.2552 97.758314 718.55326 97.124437 718.25762 92.448667Z"/>
</svg>
