<svg xmlns="http://www.w3.org/2000/svg"
     width="31.5" height="64.0"
     viewBox="2757.5000 15.5000 44.2243 89.9375">
  <path d="M 2761.5,89.75 2761.5,93.21875 C 2764.3114,91.960357 2768.2132,89.390116 2770.0625,87.34375 2776.7343,79.960668 2777.9572,74.391316 2775.7812,61 2774.8637,55.353363 2774.6868,51.325086 2775.2812,49 2777.2807,41.181453 2777.2341,38.053257 2775.0938,33.5 2772.8062,28.633424 2772.1894,23.783273 2774.0938,25.6875 2774.6963,26.290172 2776.1519,28.761422 2777.3438,31.15625 2780.4049,37.306872 2782.4561,36.924485 2787.875,29.15625 2791.4481,24.034028 2792.4685,23.090232 2793.1875,24.375 2794.5617,26.830458 2792.4284,32.95709 2788.5,37.875 2785.0066,42.248352 2785.0054,42.277963 2785.0625,52.375 2785.0976,58.590515 2784.5232,64.750181 2783.5625,68.3125 2781.1618,77.213985 2781.4846,80.940679 2785.0625,85.28125 2787.6242,88.389061 2788.7772,89 2791.9375,89 2792.6351,89 2793.3169,88.796375 2794,88.625 L 2794,86.40625 C 2793.9029,86.433282 2793.8449,86.507427 2793.75,86.53125 2791.4832,87.100184 2790.4814,86.656346 2788,84 2784.6814,80.447374 2784.0166,75.142086 2786.125,69.09375 2787.1998,66.010502 2787.4135,65.883084 2791.25,66.53125 2796.0356,67.339773 2797.0678,66.241375 2796.2812,61.09375 2795.7241,57.447576 2790.36,48 2788.8438,48 2786.8686,48 2788.264,42.550904 2791.4375,37.9375 2796.4855,30.598925 2797.7243,19.5 2793.5,19.5 2792.1581,19.5 2790.1519,21.612284 2787.2812,26 2784.9438,29.572452 2782.6483,32.627635 2782.1875,32.78125 2781.7267,32.934865 2780.0641,30.528713 2778.5,27.4375 2776.936,24.346287 2775.0198,21.576634 2774.25,21.28125 2770.2832,19.759048 2769.4872,28.080686 2772.9375,34.84375 2775.0885,39.060088 2775.0997,39.308697 2773.5,45.6875 2772.1069,51.242343 2772.0384,53.272257 2773.0625,59.34375 2775.5965,74.36709 2774.2235,80.101289 2766.4375,86.9375 2764.307,88.80814 2762.773,89.647327 2761.5,89.75 z M 2789,51 C 2789.55,51 2790,51.512058 2790,52.15625 2790,52.800443 2790.6278,54.037943 2791.4062,54.90625 2792.1846,55.774558 2793.1485,58.1875 2793.5312,60.25 2794.1351,63.503968 2793.9901,63.974754 2792.375,63.90625 2788.5345,63.743352 2788,62.911369 2788,56.90625 2788,53.628472 2788.446,51 2789,51 z M 2761.5,98.90625 2761.5,101.4375 C 2764.9401,100.2987 2769.7096,97.555363 2773.75,94.25 2777.9049,90.850917 2778.0633,90.81075 2780.5938,92.46875 2782.0161,93.400708 2784.8266,95.636485 2786.8438,97.4375 2789.5721,99.873467 2791.828,101.09754 2794,101.375 L 2794,98.625 C 2791.8656,98.039269 2789.298,96.241198 2785.5,93 2781.65,89.714464 2778.1753,87.007232 2777.7812,87 2777.3871,86.992768 2774.8813,88.947689 2772.2188,91.3125 2769.556,93.677311 2765.6961,96.657456 2763.625,97.9375 2762.8431,98.420731 2762.1786,98.639225 2761.5,98.90625 z"/>
</svg>
