<svg xmlns="http://www.w3.org/2000/svg"
     width="48.5" height="64.0"
     viewBox="6538.3079 12.1596 68.1468 89.9003">
  <path d="M 6565.2,95.8 C 6562.9084,93.508441 6563.7707,83.459623 6566.8365,76.728043 6570.5697,68.530937 6574.2872,64.29385 6578.9792,62.888079 6582.5883,61.806759 6583.0839,61.935948 6587.5049,65.110893 6592.0594,68.38171 6592.1796,68.600734 6591.5544,72.490875 6589.6467,84.360483 6589.66,85.048823 6591.8529,88.014871 6593.0829,89.678532 6593.5696,91.147976 6593.006,91.49629 6592.4696,91.827778 6591.0923,90.614221 6589.9452,88.799498 6588.1141,85.902728 6587.9299,84.491725 6588.4364,77.239348 L 6589.0133,68.978695 6585.7567,66.993086 C 6581.0915,64.148694 6579.1725,64.493132 6574.949,68.932942 6569.8279,74.316389 6566.5184,84.245491 6567.3857,91.624694 6568.017,96.995817 6567.4599,98.059932 6565.2,95.8 z M 6559.1438,95.673303 C 6555.3109,91.054854 6553.7641,78.927321 6555.997,71 6556.5392,69.075 6558.8195,65.084982 6561.0644,62.133293 6564.9016,57.087838 6565.0712,56.586038 6563.8966,53.750436 6561.8189,48.734313 6558.0929,45.00038 6555.1611,44.996262 6551.6539,44.991335 6546.2398,41.620379 6544.854,38.578824 6542.3079,32.990829 6548.0487,21.27164 6554.7085,18.461933 6560.1656,16.159602 6561.5,17.367978 6561.5,24.61212 6561.5,29.82419 6561.7401,30.534298 6563.5918,30.798814 6565.1916,31.027359 6566.485,29.797573 6569.0918,25.56926 6570.9663,22.528658 6573.2153,20.031691 6574.0895,20.020446 6578.466,19.964149 6578.4159,31.798507 6574.0133,37.981297 L 6571.6816,41.255925 6574.0845,45.877963 C 6577.8702,53.159878 6577.6903,53.027347 6581.5823,51.401162 6585.5778,49.731741 6586.612,50.113251 6593.3894,55.756902 6595.8616,57.815606 6598.9127,60.227536 6600.1695,61.116746 L 6602.4547,62.733491 6600.5985,69.889838 C 6598.1705,79.251376 6598.13,83.744285 6600.4279,88.840033 6602.3745,93.156963 6601.9376,95.474656 6599.6548,92.940476 6598.9412,92.148214 6597.5345,89.589631 6596.5289,87.254735 6594.7881,83.212818 6594.7805,82.63802 6596.3694,75.254735 6597.2873,70.989631 6598.2987,66.531787 6598.6169,65.348417 6599.0318,63.805706 6598.6665,63.02894 6597.3262,62.603544 6596.2981,62.277235 6594.0048,60.683958 6592.23,59.062927 6585.636,53.040158 6585.162,52.876696 6580.7783,55.113119 6577.696,56.685564 6576.5403,56.863345 6575.4238,55.936756 6574.6407,55.286851 6574,54.358004 6574,53.872652 6574,53.3873 6572.9524,50.81857 6571.6719,48.164362 6567.9106,40.367576 6567.9021,40.269832 6570.6887,36.958171 6573.3204,33.83054 6575.4219,26.378763 6573.9319,25.457892 6573.4878,25.183421 6572.3089,26.135981 6571.3122,27.574692 6567.9828,32.380516 6566.0196,34 6563.5231,34 6559.941,34 6557.6048,29.983373 6558.276,24.978895 6558.7661,21.325261 6558.6191,21 6556.4776,21 6553.0206,21 6548,27.517376 6548,32.004983 6548,36.672852 6552.6482,42 6556.7211,42 6560.5509,42 6563.6207,44.336133 6566.0511,49.100145 6570.2682,57.366337 6570.2728,57.28496 6565.2951,62.554341 6562.7904,65.205854 6560.1244,68.851384 6559.3706,70.655518 6557.4503,75.251465 6557.7192,83.51606 6560,90 6561.0641,93.025 6561.9494,95.8375 6561.9674,96.25 6562.0199,97.456719 6560.339,97.113406 6559.1438,95.673303 z"/>
</svg>
