<svg xmlns="http://www.w3.org/2000/svg"
     width="64.0" height="59.2"
     viewBox="3333.5263 11.7711 99.7745 92.2289">
  <path d="M3338.6667 97.333333C3337.5263 96.192917 3337.9319 88.454647 3339.5304 80.855581C3341.1769 73.028289 3344.6992 66.621362 3350.3856 61.11049C3354.0542 57.555173 3354.9885 57.453158 3364.25 59.596682C3366.9185 60.214294 3367.0 60.107198 3367.0 55.982597C3367.0 53.64479 3366.4788 49.99233 3365.8417 47.86602C3364.7532 44.232765 3364.4475 44.0 3360.7648 44.0C3357.767 44.0 3356.1593 43.313102 3353.9231 41.076923C3352.3154 39.469231 3351.0203 37.331731 3351.0451 36.326923C3351.1621 31.588634 3358.4863 21.052609 3361.6849 21.021351C3362.8866 21.009608 3365.0865 20.53741 3366.5736 19.972022C3370.0359 18.655652 3370.4077 19.108527 3370.4582 24.703927C3370.4827 27.406752 3371.0047 29.494713 3371.7159 29.734313C3372.3846 29.959605 3375.1313 28.086549 3377.8196 25.571967C3383.0788 20.65264 3384.4456 20.112964 3385.393 22.581787C3387.1566 27.177666 3385.2749 33.437245 3380.3593 39.326725C3377.895 42.279298 3377.3388 47.368129 3378.6282 55.165656L3379.2343 58.831312L3384.3672 58.339913C3389.1467 57.882335 3389.7753 58.093298 3393.5 61.405073C3395.7 63.361181 3398.0201 64.970265 3398.6558 64.980816C3400.6736 65.01431 3405.8522 56.019328 3407.1477 50.230794C3408.2912 45.120894 3408.2422 44.562019 3406.5641 43.576201C3400.021 39.732501 3397.2123 35.15885 3399.2066 31.595334C3400.4117 29.441923 3402.3168 29.58756 3404.5 32.0C3405.4955 33.1 3406.8803 34.0 3407.5774 34.0C3409.4957 34.0 3411.2095 27.633418 3410.4216 23.433818C3409.8764 20.527834 3410.0238 19.839516 3411.1146 20.196645C3413.1559 20.864948 3414.9677 26.98097 3414.3151 31.0C3413.1587 38.120892 3408.6617 39.966212 3403.8047 35.312909C3401.9639 33.549303 3401.0076 33.119709 3401.0222 34.062909C3401.0523 36.005687 3403.8008 39.19774 3407.8182 41.955496C3410.9276 44.090002 3411.093 44.490287 3410.4462 48.318268C3409.0632 56.504564 3401.7309 69.0 3398.3103 69.0C3397.5651 69.0 3395.0529 67.264262 3392.7277 65.142805C3387.372 60.256452 3386.3472 59.943709 3381.6847 61.772734C3378.9431 62.848218 3377.5642 62.964227 3376.785 62.184962C3376.1885 61.588516 3375.4876 56.678186 3375.2273 51.273118C3374.7813 42.010732 3374.893 41.274803 3377.1699 38.472861C3381.3646 33.311027 3383.1336 29.95001 3382.8118 27.753801C3382.5365 25.874838 3382.3245 25.79825 3381.0 27.099187C3377.9988 30.047032 3372.2796 34.0 3371.0159 34.0C3368.8444 34.0 3367.0653 30.710367 3367.0318 26.633369C3367.0029 23.117345 3366.796 22.821412 3364.75 23.369714C3363.5125 23.701351 3361.9565 23.978835 3361.2922 23.986345C3359.7584 24.003685 3355.0 32.041736 3355.0 34.615351C3355.0 35.682151 3355.7342 37.603167 3356.6315 38.884275C3358.0286 40.878908 3358.8246 41.123752 3362.1722 40.588457C3366.0025 39.975959 3366.1204 40.049432 3368.0187 44.231676C3370.0673 48.745081 3370.7334 60.293611 3369.0945 62.881405C3368.3568 64.046113 3367.4685 64.006897 3363.4316 62.631405C3360.7983 61.734132 3357.8057 61.0 3356.7814 61.0C3353.4933 61.0 3348.9198 65.3265 3345.2214 71.935812C3341.7857 78.075605 3341.6175 78.823032 3341.5644 88.185812C3341.5123 97.372836 3340.8372 99.503916 3338.6667 97.333333Z M3362.6989 97.956568C3361.8909 94.866639 3363.6131 90.064896 3367.0742 85.758075L3370.1797 81.893681L3366.9323 76.535595C3363.9106 71.549769 3360.7492 69.0 3357.5889 69.0C3354.2593 69.0 3347.0 84.532362 3347.0 91.65655C3347.0 93.495448 3346.55 95.0 3346.0 95.0C3344.583 95.0 3344.7816 88.40915 3346.3794 82.409043C3347.125 79.609017 3349.3641 74.771517 3351.3551 71.659043C3354.4698 66.789979 3355.4049 66.0 3358.0533 66.0C3363.4118 66.0 3367.1494 68.942471 3371.0227 76.210162C3373.6034 81.052545 3373.5166 82.851169 3370.553 85.945281C3367.4479 89.187197 3364.658 95.670624 3366.0089 96.50552C3367.7138 97.55919 3367.0906 100.0 3365.1166 100.0C3364.0609 100.0 3362.9984 99.101998 3362.6989 97.956568Z M3368.0 97.480128C3368.0 96.169694 3373.2416 88.84451 3374.5343 88.348477C3375.3311 88.042687 3377.6186 88.75747 3379.6176 89.936883C3381.6166 91.116296 3383.4151 91.91826 3383.6143 91.719025C3383.8135 91.51979 3382.8568 89.839078 3381.4883 87.98411C3378.3485 83.728338 3378.3662 81.664636 3381.5981 75.179043C3385.2527 67.845214 3386.5537 67.400934 3394.0264 70.934964C3397.4256 72.542554 3400.7669 73.642959 3401.4513 73.38031C3403.599 72.556168 3406.6881 67.621435 3409.5569 60.431921C3414.1408 48.944118 3417.7944 41.756699 3421.6123 36.716218C3424.6739 32.674121 3425.3167 30.924211 3425.7577 25.429504C3426.337 18.213028 3428.2807 17.040903 3428.8292 23.5773C3429.3008 29.19851 3427.5319 34.147479 3423.0032 39.876756C3420.6991 42.791606 3416.9603 49.974626 3414.0439 57.089376C3411.2911 63.80499 3408.2557 70.164935 3407.2986 71.222589C3405.6353 73.060521 3405.6875 73.384471 3408.4791 78.545206C3411.5322 84.189194 3412.2797 90.120326 3410.2 92.2C3409.2667 93.133333 3408.9963 92.522222 3408.9835 89.45C3408.9665 85.35759 3405.4875 77.980336 3403.2234 77.235556C3401.4575 76.65463 3402.8023 85.206903 3404.6488 86.29969C3406.433 87.355637 3406.3769 89.0 3404.5567 89.0C3402.2874 89.0 3400.0 84.909243 3400.0 80.850801C3400.0 77.317542 3399.7373 77.026348 3394.3071 74.540331C3391.176 73.106875 3388.0464 72.151962 3387.3523 72.418302C3385.7574 73.030323 3382.0 80.308504 3382.0 82.785848C3382.0 83.811886 3383.125 85.708255 3384.5 87.0C3386.3085 88.699 3387.0 90.390484 3387.0 93.115297C3387.0 97.894059 3385.51 98.813077 3382.1502 96.106533C3380.6926 94.932338 3378.4547 93.440821 3377.177 92.79205C3375.101 91.737846 3374.5884 91.951936 3372.3545 94.806233C3370.1397 97.636221 3368.0 98.950125 3368.0 97.480128Z M3415.5775 37.125329C3415.2149 36.538703 3415.6534 34.637217 3416.5518 32.899805C3418.1441 29.82062 3418.1205 26.284775 3416.464 19.75C3415.4553 15.771052 3417.6706 16.241469 3419.6682 20.430411C3421.0644 23.358229 3421.1335 24.709975 3420.1401 29.656635C3418.9445 35.609963 3416.8052 39.111842 3415.5775 37.125329Z"/>
</svg>
