<svg xmlns="http://www.w3.org/2000/svg"
     width="35.0" height="64.0"
     viewBox="1156.2199 17.0000 47.5830 87.0221">
  <path d="M1182.2159 95.882375L1176.9318 91.879576L1173.8892 94.439788C1168.6025 98.888283 1167.1147 97.404535 1172.0278 92.583333C1173.6625 90.979167 1175.0 89.103987 1175.0 88.416268C1175.0 87.728549 1173.1375 85.618751 1170.861 83.727828C1168.398 81.681856 1167.159 80.019754 1167.8012 79.622878C1168.3947 79.256078 1170.4853 80.365243 1172.4471 82.087688L1176.0139 85.219406L1179.85 81.859703C1186.9753 75.619299 1187.0105 75.212232 1180.8927 69.796158C1177.9267 67.170406 1175.05 65.027105 1174.5 65.033268C1173.95 65.03943 1172.375 65.924459 1171.0 67.0C1167.797 69.505435 1165.9095 69.496022 1163.1886 66.961045C1160.2199 64.195358 1160.4151 60.219963 1163.6871 56.804719C1167.0971 53.245424 1168.9288 53.272429 1172.4365 56.933716L1175.2472 59.867433L1180.1236 55.067332C1182.8056 52.427277 1185.0 49.832891 1185.0 49.302031C1185.0 48.77117 1182.7506 46.879267 1180.0013 45.097801C1177.1573 43.254901 1174.7515 40.858051 1174.42 39.537091C1173.8872 37.414399 1174.4419 35.998551 1178.624 28.805639C1180.8356 25.001901 1185.412 21.0 1187.5502 21.0C1190.7656 21.0 1199.0049 30.158706 1198.9818 33.707159C1198.9621 36.729977 1194.2154 44.460391 1190.9932 46.717322C1188.2267 48.655061 1188.5092 50.213526 1191.9855 52.191512C1195.3924 54.130061 1198.9908 59.493763 1198.9963 62.641846C1198.9983 63.819862 1196.9288 67.087385 1194.3973 69.903009C1189.5283 75.318527 1189.2798 77.254445 1193.2219 79.061657C1194.4749 79.636051 1196.4884 81.504358 1197.6964 83.21345C1199.761 86.134438 1199.8029 86.53627 1198.3957 89.910445C1196.5904 94.23905 1191.2053 100.02208 1189.0538 99.942587C1188.1992 99.91101 1185.1222 98.083915 1182.2159 95.882375Z M1170.9694 65.25L1173.9703 62.5L1171.0575 59.000747L1168.1447 55.501494L1165.3223 57.606725C1161.6455 60.349327 1161.2934 62.618939 1164.0838 65.589211C1166.9328 68.621791 1167.3102 68.603197 1170.9694 65.25Z M1167.47 92.179641C1168.0378 89.560525 1167.8005 88.574618 1166.3465 87.511403C1163.5914 85.496867 1165.537 84.466633 1168.4688 86.387595C1171.558 88.411696 1171.707 91.056187 1168.8751 93.595012L1166.7501 95.5L1167.47 92.179641Z M1186.0 36.081787C1186.0 27.997935 1185.443 25.0 1183.9409 25.0C1183.027 25.0 1176.0 36.519287 1176.0 38.017525C1176.0 39.173909 1183.0443 44.0 1184.7321 44.0C1185.6492 44.0 1186.0 41.809198 1186.0 36.081787Z M1187.0 62.0C1187.0 56.4356 1186.6339 54.0 1185.7976 54.0C1183.9353 54.0 1178.0 60.183274 1178.0 62.123363C1178.0 63.744925 1184.534 70.0 1186.2278 70.0C1186.6525 70.0 1187.0 66.4 1187.0 62.0Z M1187.0 87.5C1187.0 83.375 1186.6525 80.0 1186.2278 80.0C1184.7514 80.0 1178.0 86.154126 1178.0 87.5C1178.0 88.845874 1184.7514 95.0 1186.2278 95.0C1186.6525 95.0 1187.0 91.625 1187.0 87.5Z M1193.4542 40.356198C1195.4044 37.802106 1197.0 34.832106 1197.0 33.756198C1197.0 31.686894 1190.967 25.0 1189.1 25.0C1187.8955 25.0 1187.4885 43.155208 1188.6667 44.333333C1189.6642 45.330819 1189.6413 45.349819 1193.4542 40.356198Z M1193.8964 67.465204C1195.6034 65.521066 1197.0 63.179989 1197.0 62.262811C1197.0 60.570684 1191.2775 54.0 1189.8038 54.0C1189.3617 54.0 1189.0 57.825 1189.0 62.5C1189.0 67.175 1189.4034 71.0 1189.8964 71.0C1190.3894 71.0 1192.1894 69.409342 1193.8964 67.465204Z M1197.0 87.422284C1197.0 85.294054 1191.9524 80.0 1189.9233 80.0C1188.8259 80.0 1188.6641 95.32877 1189.75 96.421163C1190.8892 97.56718 1197.0 89.982291 1197.0 87.422284Z"/>
</svg>
