<svg xmlns="http://www.w3.org/2000/svg"
     width="36.3" height="64.0"
     viewBox="3054.9064 11.0705 46.6885 82.3948">
  <path d="M3066.5 87.13944C3064.85 86.120244 3062.6832 84.366601 3061.6849 83.242455C3058.9064 80.113883 3061.6184 79.274466 3064.8313 82.268575C3067.7049 84.946571 3071.2203 87.0 3072.9314 87.0C3074.6634 87.0 3082.1332 79.779959 3083.1395 77.133133C3083.6506 75.788789 3084.2692 71.580707 3084.5141 67.78184C3084.759 63.982972 3085.25 60.4045 3085.6053 59.829679C3085.9878 59.210673 3087.8309 59.037152 3090.1256 59.404093C3093.4143 59.929979 3094.0 59.752651 3094.0 58.231055C3094.0 57.168526 3092.8108 55.989608 3091.0801 55.336319C3086.4948 53.605561 3083.8172 47.289299 3083.5408 37.551518C3083.2412 26.996667 3081.58 21.77603 3078.6537 22.193074C3073.4767 22.930863 3072.7867 40.621167 3077.4326 53.5C3078.8215 57.35 3079.9656 62.3 3079.9752 64.5C3079.9948 69.022388 3077.3133 74.093419 3073.6239 76.510749C3071.34 78.007246 3070.8999 78.002217 3067.8262 76.444494C3063.9664 74.48839 3061.0 72.05509 3061.0 70.845012C3061.0 69.361858 3062.9346 69.928349 3066.9545 72.588619C3069.4465 74.237742 3071.5773 74.951539 3072.8256 74.555365C3077.157 73.180628 3078.7933 62.696819 3075.7237 55.987747C3070.5515 44.683253 3070.8655 26.755581 3076.3474 20.382529C3080.9166 15.070501 3084.7751 21.396069 3085.911 36.061118C3086.7639 47.071112 3089.0716 52.132118 3094.0269 53.859531C3097.1934 54.963366 3097.5949 56.305109 3096.0079 60.47917C3095.1479 62.741196 3094.5156 63.049369 3091.2579 62.79427L3087.5 62.5L3086.9814 69.0C3086.2796 77.794796 3082.4907 84.093696 3075.7997 87.589276C3072.2087 89.465259 3070.1002 89.363266 3066.5 87.13944Z"/>
</svg>
