<svg xmlns="http://www.w3.org/2000/svg"
     width="49.8" height="64.0"
     viewBox="5788.4877 18.0000 68.5077 88.0000">
  <path d="M 5844.8125 87.75 C 5843.7972 86.836375 5842.8963 85.838874 5842.25 84.59375 C 5841.2906 82.745273 5839.2148 79.150185 5837.6562 76.625 C 5834.3169 71.214514 5834.6703 67.111639 5838.6562 64.5 C 5841.9349 62.351686 5843.4606 63.039371 5845.6875 67.6875 C 5847.2924 71.037194 5847.5279 71.224378 5847.8125 69.21875 C 5848.2964 65.807932 5844.8438 60.534559 5841.9375 60.25 C 5838.1323 59.877428 5833.9421 63.993025 5833.3125 68.6875 C 5832.7542 72.849951 5835.2421 79.280222 5838.4062 81.90625 C 5841.3549 84.353419 5841.409 89.365854 5838.5625 93.875 C 5835.9426 98.025231 5833.3181 99.498563 5834.3125 96.25 C 5834.6071 95.2875 5835.2923 93.052188 5835.8438 91.28125 C 5836.7883 88.247516 5836.5433 87.751551 5831.9062 82.8125 C 5829.1994 79.929336 5827 77.214648 5827 76.78125 C 5827 76.347852 5826.3869 76 5825.625 76 C 5824.2102 76 5816 88.631142 5816 90.8125 C 5816 91.474401 5816.5449 92.921191 5817.2188 94 C 5818.1195 95.442499 5818.1638 96.242524 5817.3438 97.0625 C 5816.5239 97.882476 5815.3813 96.947042 5813.0312 93.53125 C 5810.2506 89.489646 5809.994 88.658643 5811.1562 87.09375 C 5811.8909 86.104624 5813.9625 83.363319 5815.75 81 C 5820.2493 75.051325 5820.092 71.535701 5815 65.09375 C 5809.7421 58.442019 5806.6271 57.613258 5802.875 61.8125 C 5801.3457 63.524098 5799.5975 66.820779 5798.9688 69.15625 C 5798.0157 72.695131 5797.6599 73.114704 5796.8438 71.65625 C 5794.4193 67.323834 5800.5568 53 5804.8438 53 C 5805.808 53 5808.742 54.35 5811.3438 56 C 5813.9455 57.65 5816.4582 59 5816.9375 59 C 5817.9629 59 5819.2474 50.640436 5819.2188 44.09375 C 5819.2078 41.567414 5818.4479 37.319721 5817.5312 34.65625 C 5815.9651 30.104843 5815.9715 29.698857 5817.5938 27.90625 C 5820.0297 25.214536 5822.1392 25.533693 5825.8125 29.125 C 5829.1382 32.376499 5829.8039 34.821071 5827.875 36.75 C 5827.2502 37.374799 5826.5318 42.064799 5826.2812 47.1875 C 5825.923 54.513224 5826.146 56.926944 5827.3438 58.5 C 5828.8481 60.475662 5828.9496 60.461049 5834.9375 57.1875 C 5842.8888 52.840529 5846.7828 53.06105 5849.25 58 C 5851.5935 62.690994 5851.7317 73.505368 5849.4375 72.625 C 5848.1849 72.144321 5847.9368 72.650895 5848.1875 75.25 C 5848.385 77.297018 5849.0394 78.5 5849.9688 78.5 C 5851.8668 78.5 5852.9954 72.117507 5852.7188 62.84375 C 5852.5302 56.520295 5852.2152 55.580356 5849.6875 53.40625 C 5846.1573 50.369738 5842.8382 50.413361 5836.5 53.53125 C 5833.75 54.884022 5830.9984 55.994971 5830.375 56 C 5827.5599 56.02271 5827.3069 45.965526 5829.9375 38 C 5831.7398 32.54258 5831.7881 32.510104 5835.4688 32.8125 C 5840.4706 33.223441 5844.2262 30.728582 5843.8125 27.28125 C 5843.1906 22.099244 5838.9471 22.075599 5831.8438 27.1875 C 5830.4724 28.174425 5829.5668 27.825263 5826.5625 25.1875 C 5824.5669 23.435302 5822.4738 22 5821.9062 22 C 5821.3386 22 5819.2888 23.196506 5817.375 24.65625 L 5813.9062 27.3125 L 5809.5938 25.15625 C 5807.2215 23.971506 5804.4109 23 5803.3438 23 C 5798.4738 23 5797.3349 29.56292 5801.625 32.9375 C 5804.7365 35.384999 5806.908 35.538968 5809.5625 33.53125 C 5812.5651 31.260163 5813.6011 31.691773 5814.8438 35.75 C 5816.4757 41.079033 5817.2296 53.752014 5815.9688 54.53125 C 5815.4033 54.880731 5812.9502 53.980124 5810.5312 52.5625 C 5804.9855 49.312411 5803.7044 49.349439 5800.4375 52.75 C 5794.6835 58.739417 5792.4877 68.340853 5795.125 75.90625 C 5796.8747 80.925299 5799.2336 79.556338 5801 72.5 C 5802.737 65.560882 5804.5544 62 5806.3438 62 C 5807.8129 62 5814.2766 68.527068 5815.8438 71.59375 C 5817.0746 74.002245 5814.9538 78.792971 5810.5625 83.53125 C 5807.2834 87.069428 5807.3362 90.013958 5810.75 95.28125 C 5814.2347 100.65783 5814.812 101.04874 5817.5938 99.78125 C 5820.5754 98.422754 5821.1575 96.741255 5819.875 93.0625 C 5818.9985 90.548057 5819.1977 89.362419 5821.1562 85.84375 C 5822.4428 83.532661 5824.0419 81.470174 5824.7188 81.25 C 5826.1926 80.770522 5832.9932 87.902454 5833 89.9375 C 5833.0027 90.723451 5832.4658 92.849633 5831.8125 94.65625 C 5830.7874 97.491198 5830.8783 98.211351 5832.4688 99.96875 C 5833.4822 101.08868 5834.6817 102 5835.125 102 C 5836.1535 102 5840 97.877419 5840 96.78125 C 5840 96.655439 5840.5058 96.826638 5840.8125 96.875 C 5840.8087 96.860547 5840.6875 96.4375 5840.6875 96.4375 L 5844.8125 87.75 z M 5802.5625 25.4375 C 5802.9782 25.281296 5803.6627 25.365272 5804.75 25.625 C 5809.7302 26.814701 5811.8026 30.102925 5808.4062 31.40625 C 5807.5363 31.740094 5806.4823 32 5806.0625 32 C 5804.7266 32 5802 28.410238 5802 26.65625 C 5802 25.987966 5802.1468 25.593704 5802.5625 25.4375 z M 5839.0625 26 C 5841.6512 26 5842.284 27.55976 5840.4375 29.40625 C 5838.6218 31.221892 5836.4069 31.486647 5835.4688 29.96875 C 5834.576 28.524171 5836.8587 26 5839.0625 26 z "/>
</svg>
