<svg xmlns="http://www.w3.org/2000/svg"
     width="64.0" height="61.2"
     viewBox="857.2812 50.6179 56.7188 54.2639">
  <path d="M 865.875 96.59375 C 866.64503 96.571142 867.60885 96.821729 869.125 97.625 C 870.97569 98.605519 874.525 99.659197 877 99.96875 C 884.30073 100.88187 886.44918 100.12936 891.59375 94.90625 C 894.25026 92.209181 896.97063 90 897.625 90 C 898.27937 90 899.26855 91.35 899.84375 93 C 901.08817 96.569769 902.2319 96.750173 904.96875 93.8125 C 907.41231 91.189648 907.51116 89.450686 905.46875 84.5625 C 903.98464 81.010529 904.04305 80.555342 906.96875 72.96875 C 908.64308 68.627062 910 63.698993 910 62.03125 C 910 58.802137 906.70202 54.617927 904.6875 55.28125 C 902.25473 56.082291 897.23244 63.994264 893.0625 73.59375 C 888.09678 85.025178 886.27582 87.34931 880.5625 89.53125 C 876.63589 91.030835 876.08545 91.019629 870.6875 89 C 866.69341 87.505619 863.49835 85.483705 861.28125 83.28125 L 865.5 95.5 L 865.875 96.59375 z M 904.75 58.1875 C 907.48827 58.706195 907.42045 64.108327 904.5625 72.03125 C 901.74165 79.851305 901.41731 83.583591 903.1875 87.46875 C 904.06286 89.389939 904.06637 90.339882 903.21875 91.1875 C 902.37114 92.035118 901.81809 91.64361 901.0625 89.65625 C 899.52731 85.618386 895.88485 86.13811 891.75 90.96875 C 889.88435 93.148339 887.05221 95.626728 885.4375 96.46875 C 882.50167 97.999692 881.68241 98.083778 877 97.34375 C 873.53634 96.796339 865 92.832222 865 91.78125 C 865 90.843645 868.4051 91.222257 871.28125 92.46875 C 874.23873 93.75049 881.32295 92.463414 885.3125 89.90625 C 889.12887 87.460089 889.68532 86.514853 898.90625 66.6875 C 902.03322 59.963729 903.42128 57.935809 904.75 58.1875 z "/>
</svg>
