<svg xmlns="http://www.w3.org/2000/svg"
     width="27.9" height="64.0"
     viewBox="348.1402 14.7500 38.8598 89.2264">
  <path d="M 376.125,80.0625 375.21875,79.875 374.78125,65.1875 C 374.54125,57.10544 374.53954,50.116672 374.78125,49.65625 375.02296,49.195827 375.71457,49.308327 376.3125,49.90625 377.78763,51.381382 380.00559,51.288231 379.9375,49.75 379.849,47.750587 374.12897,43.721195 372.34375,44.40625 370.97565,44.931239 370.84838,46.324225 371.375,53.78125 371.71418,58.584079 372.25526,69.925 372.59375,79 372.93225,88.075 373.40628,95.8375 373.65625,96.25 374.54037,97.708968 376,96.968971 376,95.0625 376,93.992986 376.50937,93.372015 377.21875,92.96875 L 377.125,92.65625 376.34375,88.15625 C 375.69797,87.76955 375.31262,87.222012 375.1875,86.34375 375.04414,85.337422 375.30085,84.651223 375.75,84.15625 L 376.125,80.0625 z M 366.84375,18.75 359.9375,26.125 C 356.1319,30.18529 353.00532,33.6125 353,33.75 352.95188,34.993896 355.7669,33.138293 360.5,28.8125 364.50325,25.153758 366.57433,23.902229 367.46875,24.5625 368.16601,25.077224 371.38622,27.637846 374.625,30.25 380.15918,34.713458 383,36.050639 383,34.1875 383,33.742507 379.37658,30.090296 374.9375,26.0625 L 366.84375,18.75 z M 365.875,29.875 C 363.45046,30.798548 353,40.668387 353,42.03125 353,43.525425 357.19584,40.856529 362,36.3125 363.925,34.491733 365.75236,33.00477 366.0625,33 366.37264,32.995229 369.62302,35.015307 373.28125,37.46875 377.72866,40.451474 380.15461,41.542363 380.625,40.78125 381.36651,39.581456 375.45423,34 373.4375,34 372.80422,34 371.1875,32.924968 369.875,31.625 368.42767,30.191483 366.85194,29.502864 365.875,29.875 z M 362.125,42.25 C 361.09136,42.235079 359.40742,43.402217 356.03125,46.28125 352.14021,49.59934 352.8674,51.180212 357.15625,48.71875 358.81944,47.764212 360.51598,47.208235 360.9375,47.46875 361.35902,47.729264 362.02241,52.48954 362.40625,58.0625 362.79008,63.635461 363.5166,70.51236 364,73.34375 364.48341,76.17514 365.16933,82.4375 365.53125,87.25 366.48834,99.976351 368.40279,98.66272 367.71875,85.75 366.94679,71.177386 363.93966,43.66839 363,42.65625 362.76844,42.406824 362.46955,42.254974 362.125,42.25 z"/>
</svg>
