<svg xmlns="http://www.w3.org/2000/svg"
     width="34.7" height="64.0"
     viewBox="6641.0000 32.6258 39.9380 73.6180">
  <path d="M 6647.8438 85.9375 L 6645 96.5 L 6645 96.75 C 6645.6602 96.915501 6646.425 97.353121 6647.4062 98.125 C 6652.6424 102.24374 6660.3329 98.876267 6666.125 89.9375 C 6668.0558 86.957847 6669.9074 85.13814 6670.6875 85.4375 C 6672.8195 86.255626 6675.0975 84.889999 6676.125 82.1875 C 6676.938 80.04911 6676.6388 79.205082 6674.1562 76.59375 C 6670.3642 72.605035 6669.6263 68.802094 6671.375 62 C 6673.9635 51.930998 6674.3033 46.491397 6672.5625 43.125 C 6669.2016 36.625768 6664.8739 37.411576 6660.875 45.25 C 6658.4954 49.914565 6658.1746 55.397071 6659.4375 70 C 6660.3891 81.002272 6658.933 86.489226 6654.7812 87.53125 C 6652.4897 88.106404 6649.3279 87.226353 6647.8438 85.9375 z M 6667.4062 42 C 6668.7113 42 6670.0724 42.723767 6670.4062 43.59375 C 6671.4525 46.320119 6671.0354 53.279523 6669.5 59 C 6668.6881 62.025 6668.0352 66.75 6668.0312 69.5 C 6668.0251 73.681357 6668.4951 75.014972 6671 77.6875 C 6674.7446 81.682641 6674.7681 82.313894 6671.0625 81.5 C 6668.3144 80.896428 6667.9258 81.210468 6665.5938 85.8125 C 6663.0471 90.837946 6657.9281 96 6655.5 96 C 6654.7621 96 6653.5199 96.23583 6652.75 96.53125 C 6651.0625 97.178822 6645.7572 93.209301 6646.5625 91.90625 C 6646.8752 91.400291 6648.8434 91 6650.9688 91 C 6659.8459 91 6663.9288 82.514605 6662.0312 68 C 6660.4881 56.196361 6660.7674 50.406323 6663.0312 45.96875 C 6664.5277 43.03557 6665.6489 42 6667.4062 42 z "/>
</svg>
