<svg xmlns="http://www.w3.org/2000/svg"
     width="31.6" height="64.0"
     viewBox="2204.5938 15.7699 35.0629 71.0340">
  <path d="M 2211.125 69.4375 L 2208.5938 79.1875 C 2209.2455 79.32868 2210.671 79.811335 2212.4688 80.5625 C 2217.8331 82.803864 2223.8501 82.112065 2226.1562 79 C 2232.4831 70.462731 2235.6567 49.245804 2233 33.28125 C 2231.3528 23.383556 2229.6168 19.769906 2226.7188 20.1875 C 2221.7683 20.900847 2219.1779 36.174296 2221.1562 52.90625 C 2221.7481 57.91182 2221.9246 63.569658 2221.5625 65.5 C 2220.3955 71.720598 2214.0102 73.644117 2211.125 69.4375 z M 2227.1875 23.1875 C 2228.469 23.066965 2229.5794 26.369549 2230.8438 33.5 C 2233.3059 47.386709 2230.563 67.769804 2225.0312 76.75 C 2222.7799 80.405056 2220.7767 80.730022 2214.5 78.46875 C 2212.3 77.676172 2210.3875 77.008281 2210.25 77 C 2210.1125 76.991719 2210 76.353026 2210 75.5625 C 2210 74.5368 2211.1622 74.147042 2214.0938 74.1875 C 2221.9923 74.296509 2225.5224 67.509261 2223.9375 55.21875 C 2222.51 44.149434 2222.7933 31.531077 2224.5938 27.03125 C 2225.5795 24.56769 2226.4186 23.259821 2227.1875 23.1875 z "/>
</svg>
