<svg xmlns="http://www.w3.org/2000/svg"
     width="64.0" height="54.6"
     viewBox="2233.4200 16.8698 101.9003 86.9691">
  <path d="M2260.2 97.8C2257.8311 95.431085 2258.8265 89.458866 2262.5 84.0C2264.425 81.139462 2266.0 78.437347 2266.0 77.995301C2266.0 75.764977 2260.9788 62.778956 2259.0917 60.128733C2256.3876 56.3312 2254.6595 56.92268 2252.7062 62.314275C2250.1183 69.457796 2249.7543 72.166806 2249.9264 83.0C2250.0452 90.478583 2249.7035 94.031554 2248.7389 95.347252C2247.4413 97.117208 2247.2561 97.086409 2244.3145 94.611208C2238.7169 89.901107 2237.42 77.419011 2241.0757 63.438337C2243.6488 53.597898 2245.4708 49.68303 2249.2243 45.929552C2252.9221 42.23171 2254.6688 42.253071 2259.9247 46.060415C2263.2924 48.499977 2264.4386 48.880868 2265.5747 47.93797C2266.3586 47.287397 2267.0 45.977233 2267.0 45.026495C2267.0 40.56316 2277.0974 26.093828 2282.0132 23.513013C2283.3954 22.787322 2286.5454 21.90367 2289.0132 21.549343C2293.7458 20.869824 2296.3728 22.197459 2306.4478 30.360343L2309.9781 33.220686L2315.5714 28.108724C2321.5291 22.663762 2325.1703 21.06648 2327.4022 22.918872C2331.3203 26.17056 2329.1762 33.531456 2323.1493 37.519878C2319.0874 40.207963 2316.0 45.111678 2316.0 48.875312C2316.0 50.015491 2317.7571 56.247483 2319.9047 62.724182C2325.0449 78.226018 2325.613 82.379423 2323.5596 89.443129C2322.2854 93.826049 2321.343 95.299303 2319.3218 96.067745C2317.8923 96.611262 2316.5072 96.840547 2316.2439 96.577267C2315.9807 96.313988 2316.2039 93.047609 2316.7401 89.318646C2317.8788 81.399427 2316.5163 73.925724 2312.4825 65.965494C2309.1225 59.334842 2306.6609 49.445282 2307.4226 45.636905C2307.9669 42.915725 2307.48 42.043227 2303.1219 37.929912C2298.3427 33.419152 2294.9544 32.0 2288.9639 32.0C2285.6825 32.0 2281.6877 36.240393 2278.7583 42.833109C2276.5745 47.747689 2277.0483 49.171211 2279.9837 46.514717C2281.0862 45.517017 2284.1107 44.505774 2286.7399 44.255827C2292.6381 43.69509 2296.2991 46.199012 2299.0856 52.699806C2306.1419 69.16143 2305.6954 88.636517 2298.106 95.426371C2294.9717 98.230403 2294.2431 96.511598 2294.9579 88.0C2295.7477 78.594973 2294.6426 71.234392 2291.4168 64.415679C2289.0256 59.361113 2285.687 56.733379 2284.0922 58.650663C2282.942 60.033442 2279.0025 72.289523 2278.8371 75.0C2278.7495 76.433351 2280.245 79.782839 2282.3422 82.850489C2286.1567 88.430189 2286.8606 92.282482 2284.608 95.25C2282.5259 97.9927 2280.3648 97.332289 2277.3149 93.021351C2275.7667 90.833095 2273.8126 89.033095 2272.9725 89.021351C2270.4768 88.986466 2267.3737 91.692643 2265.5834 95.465394C2263.8369 99.145987 2262.239 99.838954 2260.2 97.8Z M2271.2962 87.037644C2274.6324 85.816753 2278.0446 87.607778 2279.8244 91.514023C2281.1255 94.369559 2282.7804 94.73591 2283.6885 92.369436C2284.4238 90.453307 2281.5448 84.719571 2278.3077 81.653254C2275.1887 78.698754 2275.4444 74.375427 2279.3517 64.0C2282.1324 56.616235 2282.8909 55.460338 2285.1271 55.197981C2287.0416 54.973379 2288.5087 55.815369 2290.8507 58.482777C2292.5828 60.455526 2294.0 62.659797 2294.0 63.381158C2294.0 64.102519 2294.6535 66.002777 2295.4523 67.603952C2296.2511 69.205128 2297.2975 75.236765 2297.7777 81.00759L2298.6507 91.5L2300.3253 87.782119C2304.2108 79.155995 2300.6788 56.446968 2294.3981 49.673567C2291.2598 46.289057 2285.517 46.018925 2281.6341 49.073178C2278.4414 51.584562 2275.6105 51.251799 2275.1904 48.315744C2274.7333 45.121236 2278.6882 37.03613 2282.8045 32.75C2285.7369 29.696559 2287.1172 29.0 2290.2351 29.0C2295.4053 29.0 2300.2299 31.163223 2304.4325 35.365798C2306.3538 37.287085 2308.6584 39.269066 2309.5539 39.770199C2310.8967 40.521697 2311.009 41.308006 2310.1945 44.257673C2308.8269 49.210656 2310.3418 55.682546 2315.2837 66.0C2319.0991 73.965422 2319.3597 75.076289 2319.4276 83.663215C2319.479 90.17535 2319.7856 92.345233 2320.487 91.163215C2322.6021 87.598966 2321.4079 76.800041 2317.5471 64.577234C2314.5183 54.988698 2313.8702 51.579249 2314.2364 47.162476C2314.7089 41.465586 2316.4236 39.193017 2324.3921 33.703315C2325.9762 32.61194 2327.0 30.96672 2327.0 29.512332C2327.0 24.565258 2322.3528 25.014738 2316.9948 30.480041C2311.8091 35.769628 2310.5023 36.311101 2307.1302 34.567336C2305.5419 33.745985 2303.9854 32.404315 2303.6713 31.585846C2302.7626 29.217821 2292.8319 24.019711 2289.1969 24.009384C2282.41 23.990102 2273.8286 32.770236 2269.4209 44.243473C2267.996 47.952383 2266.3814 51.264256 2265.833 51.603191C2265.2846 51.942125 2262.4213 50.556391 2259.47 48.52378C2254.1317 44.847155 2254.091 44.837579 2251.5666 46.664063C2246.9553 50.000397 2242.9755 61.396907 2241.5578 75.325289C2240.8048 82.72241 2243.2694 92.0 2245.9874 92.0C2246.3958 92.0 2246.9537 86.4875 2247.2271 79.75C2247.6695 68.849074 2248.0423 66.846436 2250.6121 61.56544C2254.6311 53.306565 2256.3166 52.5373 2260.3311 57.129771C2263.494 60.747993 2265.9294 67.013123 2267.8609 76.5C2268.7739 80.984585 2268.6751 81.657967 2266.9021 83.032425C2263.6776 85.532255 2261.0115 90.289849 2261.0364 93.5L2261.0597 96.5L2264.7798 92.280447C2266.8259 89.959692 2269.7583 87.600431 2271.2962 87.037644Z"/>
</svg>
