<svg xmlns="http://www.w3.org/2000/svg"
     width="64.0" height="59.8"
     viewBox="6881.2557 10.1337 99.2443 92.7744">
  <path d="M 6971.4599,86.441846 C 6975.1829,77.531447 6974.313,68.195084 6969.1879,62.056051 L 6966.321,58.621867 6961.5362,61.425931 C 6956.2846,64.503584 6951.8657,64.576088 6946.0601,61.67986 6943.2575,60.281734 6943.0006,60.294084 6943.0068,61.826645 6943.0141,63.602155 6947.1198,66.732017 6953.1609,69.567261 6956.7151,71.235355 6956.9011,71.222988 6959.5457,69.142702 6963.1063,66.341922 6966.5969,66.385461 6968.1479,69.25 6968.843,70.53386 6969.3871,75.471909 6969.4149,80.75 6969.4417,85.8375 6969.5783,90 6969.7184,90 6969.8585,90 6970.6422,88.398831 6971.4599,86.441846 z M 6934.7366,48.854607 C 6936.2316,46.382365 6936.1944,45.879331 6934.1681,41.169226 6928.5882,28.198259 6935.0414,22.004718 6946.0208,29.793589 6947.9572,31.167315 6950.3885,33.414129 6951.4237,34.786509 6953.1227,37.038897 6953.1826,37.762993 6952.0386,42.226512 6950.4509,48.421487 6951.752,50.179297 6954.8368,46.006866 6957.7567,42.057506 6960.5609,42.05455 6961.35,46 6962.0621,49.560708 6964.259,49.896055 6966.4433,46.777494 6968.5317,43.795905 6968.4081,39.725489 6966.1442,36.929739 6964.4129,34.791657 6964.0662,34.729931 6960.9768,36.009623 6957.8432,37.307597 6957.5826,37.250133 6956.13,34.940669 6953.3011,30.443315 6945.7546,24.006759 6941.9871,22.877985 6937.2732,21.465684 6931.8882,23.055392 6929.0156,26.70725 6926.5516,29.839819 6926.4796,32.766451 6928.7122,39.052515 6930.3208,43.58155 6930.322,43.986665 6928.7325,45.743111 6927.1843,47.45383 6927.1744,47.803912 6928.6155,49.861369 6930.5678,52.648776 6932.6492,52.306452 6934.7366,48.854607 z M 6911.0709,87.585487 C 6909.4895,85.679954 6909.9627,84.740901 6911.9008,85.938719 6912.6395,86.395204 6913.06,87.32008 6912.8353,87.993999 6912.5448,88.865545 6912.0354,88.747603 6911.0709,87.585487 z M 6890.6287,94.970563 C 6886.5727,90.150336 6885.2557,77.980807 6887.8395,69.197857 6890.3319,60.725785 6900.3457,54.096861 6904,58.5 6904.6847,59.325 6906.0385,60 6907.0085,60 6909.802,60 6920.1369,52.576451 6924.2793,47.594383 L 6928.0585,43.049046 6925.5483,38.095292 C 6924.1676,35.370728 6922.5795,32.858135 6922.019,32.511752 6920.4902,31.566876 6920.792,29.706206 6922.3755,30.313868 6924.0143,30.942714 6926.4467,26.394119 6924.9623,25.476694 6924.433,25.149594 6924,24.22971 6924,23.432509 6924,22.278248 6924.3727,22.215811 6925.83,23.125936 6928.8494,25.011553 6933,21.654023 6933,17.325973 6933,15.284612 6933.4073,14.133674 6934,14.5 6934.55,14.839919 6935,15.940382 6935,16.945473 6935,19.740727 6943.6259,20.867525 6945.5538,18.324105 6946.8434,16.6227 6946.9385,16.676744 6946.9682,19.127555 6947.0103,22.602995 6949.2761,24.333248 6953.0583,23.778141 6955.837,23.370312 6956.08,23.545132 6955.5683,25.583819 6955.2458,26.868946 6955.7551,29.172816 6956.7509,30.933442 6958.2227,33.535494 6958.9325,33.932693 6961.2275,33.438401 6965.2937,32.562654 6968.0238,33.827007 6969.4643,37.252949 6971.1066,41.158901 6969.7962,46.458086 6966.2609,50.207068 6963.4319,53.207043 6960.6794,52.716037 6959.5003,49.001061 6958.566,46.057352 6957.1816,46.551224 6955.2986,50.5 6953.2392,54.818608 6951.5353,54.935765 6949.4494,50.902168 6948.0892,48.271888 6948.0278,47.05242 6949.0426,42.82242 6950.2263,37.888251 6950.2066,37.808366 6946.9876,34.487192 6941.2591,28.576934 6935.0055,27.393962 6934.9951,32.218615 6934.99,34.553686 6937.2438,42.022768 6939.6518,47.651129 6940.3933,49.38425 6941.0021,51.18425 6941.0048,51.651129 6941.0157,53.59948 6947.9226,59.819364 6951.3205,60.940751 6954.7278,62.065273 6955.3918,61.922625 6960.5878,58.94977 L 6966.1848,55.74748 6968.8362,57.727036 C 6972.7466,60.646582 6976.5,68.603263 6976.5,73.973306 6976.5,83.105361 6971.3839,95 6967.456,95 6966.2233,95 6966.0929,93.429477 6966.6366,85.132414 6967.6067,70.330033 6966.1686,67.362405 6960.2729,72 6956.9954,74.578088 6956.6175,74.541349 6949.5495,70.957282 6946.2767,69.297721 6943.0842,68.137455 6942.455,68.378913 6941.8257,68.620371 6940.7298,70.893397 6940.0196,73.430084 6938.9107,77.390572 6938.9424,78.286519 6940.2435,79.77112 6942.7603,82.642602 6945.1793,88.090309 6944.6037,89.590257 6943.8389,91.583497 6942.0007,91.343635 6941.9963,89.25 6941.9918,87.14313 6938.3861,81 6937.154,81 6936.6726,81 6934.7866,83.799398 6932.963,87.220885 6931.1393,90.642371 6929.463,92.889138 6929.2379,92.2137 6928.7922,90.876673 6932.4783,82.67717 6934.4068,80.715541 6935.0641,80.046993 6936.6465,75.8138 6937.9232,71.308443 6940.135,63.503813 6940.2595,57.445818 6938.3126,52.372151 6937.7131,50.809919 6935,50.489513 6935,51.980948 6935,53.855223 6930.0626,54.271042 6927.5279,52.610236 6924.2709,50.47619 6924.3382,50.445338 6922.9268,54.721794 6920.3933,62.398244 6922.2448,71.9369 6927.4746,78.152192 L 6929.9766,81.125605 6927.9883,85.022964 C 6926.8947,87.166512 6926,90.063251 6926,91.460162 6926,92.857073 6925.55,94 6925,94 6923.5917,94 6923.8378,88.08032 6925.395,84.5 6926.5931,81.745379 6926.4782,81.213725 6923.9909,78 6922.501,76.075 6920.9732,72.8125 6920.5957,70.75 6919.8001,66.403149 6918.2461,66.018807 6914.0399,69.128595 6910.8818,71.463498 6906.9442,71.145584 6903.7872,68.300808 6901.404,66.153238 6899.1813,67.321724 6897.3606,71.679449 6894.7492,77.929404 6894.5944,81.277508 6896.7914,83.990671 6898.5041,86.105815 6898.9915,86.251906 6900.4096,85.075067 6902.3713,83.446935 6903.2949,84.067952 6902.3959,86.41071 6901.9358,87.60971 6900.8289,88.018516 6898.6238,87.803838 6896.1263,87.560692 6895.1511,86.750254 6893.742,83.746586 6892.0369,80.112143 6892.0476,79.795178 6894.0815,73.746586 6895.2367,70.310964 6896.6461,66.9375 6897.2134,66.25 6898.6003,64.569273 6903.0478,64.721602 6905.4411,66.531803 6908.1263,68.562726 6910.4495,68.373586 6915.0442,65.75 6917.7204,64.221852 6918.9871,62.804387 6918.9923,61.331787 6918.9965,60.139271 6919.2569,58.494046 6919.5709,57.675732 6919.945,56.70091 6917.7411,57.416757 6913.1794,59.751802 L 6906.2168,63.315715 6903.4736,61.157858 C 6899.8328,58.294073 6899.0454,58.406939 6894.8128,62.399277 6887.2808,69.50364 6886.8504,89.27964 6894.1169,94.369307 6897.2051,96.532371 6897.3608,96.500124 6901.5379,92.83254 6904.5849,90.157242 6905.5488,89.807636 6907.741,90.58254 6911.5583,91.931854 6912.0595,94.391616 6908.3512,93.577135 6906.1711,93.098304 6904.6274,93.561589 6902.0384,95.471654 6897.3806,98.908102 6893.81,98.751288 6890.6287,94.970563 z"/>
</svg>
