<svg xmlns="http://www.w3.org/2000/svg"
     width="34.8" height="64.0"
     viewBox="7332.6090 16.8309 49.5134 90.9391">
  <path d="M7364.449 99.532119C7363.652 97.624784 7363.0 95.40931 7363.0 94.608844C7363.0 93.808378 7361.819 91.749882 7360.3755 90.034409C7357.8742 87.061728 7357.6623 86.995632 7355.8609 88.625858C7354.8214 89.566627 7352.741 92.28026 7351.2379 94.656154C7349.7348 97.032047 7347.8408 99.23086 7347.0289 99.542406C7344.4573 100.52921 7342.8061 96.963791 7343.5358 92.0C7344.2825 86.921192 7345.3577 84.480361 7348.2467 81.305919C7349.8182 79.579234 7350.0994 78.343137 7349.5666 75.503362C7349.1836 73.461907 7348.1537 71.635869 7347.1948 71.298431C7341.8188 69.406473 7336.609 58.467582 7338.9768 54.043316C7340.7195 50.786994 7342.0018 51.383876 7346.3993 57.498428C7348.1608 59.94775 7348.9141 59.30406 7349.6591 54.713148C7350.1295 51.814802 7349.5805 50.121769 7346.6095 45.30849C7342.0223 37.876535 7340.1031 29.579547 7341.9435 25.136409C7343.4172 21.578529 7346.8815 20.830949 7347.6835 23.897742C7348.7967 28.154622 7354.7779 38.521368 7356.2901 38.814891C7357.441 39.038281 7359.0797 36.808238 7361.9294 31.140508C7364.1387 26.746407 7366.4766 22.823457 7367.1248 22.422841C7369.1153 21.192652 7371.0005 25.102856 7370.9906 30.44113C7370.9803 35.99656 7367.3971 43.468399 7362.6065 47.924314C7360.1431 50.215551 7360.0 50.881905 7360.0 60.06353C7360.0 67.936573 7360.342 70.200805 7361.804 72.00624L7363.6079 74.234048L7368.4266 70.063541C7374.49 64.815716 7377.3626 64.849289 7377.8058 70.173159C7378.1224 73.976469 7374.5878 82.437336 7371.6711 84.858005C7370.4911 85.837313 7370.3913 86.833468 7371.1853 89.709009C7372.3688 93.995233 7371.6155 98.662399 7369.3331 101.18438C7366.9932 103.77001 7366.0924 103.46527 7364.449 99.532119Z M7348.982 65.75C7348.9678 63.191218 7348.1155 61.79546 7344.9746 59.187365C7341.9995 56.716869 7340.8497 56.228144 7340.4518 57.264916C7339.2702 60.344328 7344.5974 69.0 7347.6743 69.0C7348.507 69.0 7348.9933 67.791358 7348.982 65.75Z M7368.7097 83.035491C7372.2654 80.86745 7376.0 74.466325 7376.0 70.539838C7376.0 67.100625 7375.086 67.32205 7369.9197 72.012918C7361.3293 79.8127 7357.5 75.954674 7357.5 59.5L7357.5 49.5L7362.1876 44.838761C7366.9786 40.074576 7369.4331 34.349081 7368.8091 29.392692C7368.3235 25.536229 7366.7853 26.685882 7362.903 33.806812C7360.9246 37.435511 7358.5683 40.8697 7357.6669 41.438342C7355.4439 42.84058 7352.8243 40.114859 7348.5524 31.954582C7344.9476 25.06862 7343.0 23.413181 7343.0 27.235165C7343.0 32.043873 7346.0399 39.686625 7349.6129 43.860811L7353.2708 48.134262L7351.9944 57.039049C7349.8271 72.159504 7351.8769 80.614425 7358.4044 83.478566C7362.749 85.384889 7365.0164 85.287402 7368.7097 83.035491Z M7352.0961 90.202433C7355.1316 85.704785 7355.134 85.689597 7353.1526 83.708176C7350.2379 80.793458 7348.2921 82.187381 7346.4552 88.506031C7343.5483 98.505482 7345.9957 99.241505 7352.0961 90.202433Z M7369.0 93.5C7369.0 87.567513 7368.3058 86.634173 7364.5872 87.567472C7362.3018 88.14107 7362.2004 88.384618 7363.4298 90.348067C7364.1708 91.53163 7365.3135 94.191644 7365.9691 96.259209C7367.5819 101.34533 7369.0 100.05437 7369.0 93.5Z"/>
</svg>
