<svg xmlns="http://www.w3.org/2000/svg"
     width="38.0" height="64.0"
     viewBox="3120.2188 15.5475 36.2187 61.0123">
  <path d="M 3124.2188 58.3125 L 3124.8125 60.78125 C 3126.5778 60.198638 3130.3433 56.259648 3132.0938 53 C 3136.5974 44.613146 3137.0713 38.715998 3133.5 35.40625 C 3130.6693 32.78283 3130.0609 27.040246 3132.4062 25.09375 C 3133.5512 24.143447 3134.0826 24.715476 3135.25 28.21875 C 3137.1155 33.817133 3139.2303 34.099087 3143.6562 29.40625 C 3146.4637 26.429498 3147.3511 25.969917 3148.0625 27.09375 C 3149.7338 29.734161 3148.9949 32.919798 3145.9062 36.4375 C 3144.2129 38.366177 3141.8207 42.76579 3140.5625 46.21875 C 3137.3212 55.113831 3132.8204 63.067221 3129.6875 65.40625 L 3127 67.40625 L 3126.4062 67.15625 L 3126.8438 68.84375 C 3127.1413 68.86989 3127.5637 68.96544 3127.8125 68.96875 C 3129.6273 68.992891 3132.4673 69.705265 3134.125 70.5625 C 3137.9875 72.559833 3143.3672 72.100997 3143.8125 69.75 C 3143.9935 68.794257 3142.7186 66.030425 3140.9688 63.59375 C 3139.2189 61.157075 3137.9594 58.590709 3138.1875 57.90625 C 3138.4362 57.160135 3140.5405 56.646207 3143.4375 56.59375 C 3147.5038 56.520121 3148.5901 56.060899 3150.3438 53.71875 L 3152.4375 50.9375 L 3148.0312 47.15625 L 3143.625 43.34375 L 3146.1875 39.9375 C 3150.6167 33.979641 3151.4568 29.542001 3149.375 23.03125 C 3149.034 21.964783 3147.7859 22.730253 3144.9688 25.78125 C 3139.919 31.250036 3138.3382 31.186896 3136.9062 25.5 C 3135.4864 19.861142 3132.8618 19.547492 3130.1562 24.6875 C 3128.3212 28.173802 3128.8059 32.436338 3131.5 36.40625 C 3134.302 40.535225 3134.5102 42.190363 3132.8438 47.09375 C 3131.4829 51.09805 3127.034 57.71169 3125.2188 58.4375 C 3124.9695 58.537166 3124.5914 58.409583 3124.2188 58.3125 z M 3143.3438 47 C 3145.253 47 3150.3405 52.647497 3149.5625 53.90625 C 3148.5317 55.57411 3142.0486 55.255477 3141.375 53.5 C 3140.5339 51.308192 3141.8378 47 3143.3438 47 z M 3135.7188 62.53125 C 3136.9274 62.032403 3138.2085 63.3129 3140.2812 66.84375 C 3142.4558 70.547947 3141.6016 71.131499 3136.75 69.21875 C 3132.6989 67.62161 3132.2714 66.538048 3134.5 63.59375 C 3134.9175 63.042159 3135.3159 62.697532 3135.7188 62.53125 z "/>
</svg>
