<svg xmlns="http://www.w3.org/2000/svg"
     width="48.8" height="64.0"
     viewBox="6236.0000 15.2264 69.5139 91.1936">
  <path d="M 6291.8438 84.03125 C 6291.2427 83.242749 6290.8353 82.237194 6290.5938 80.6875 C 6290.234 78.37929 6288.3663 73.926491 6286.4375 70.78125 C 6283.0369 65.236109 6282.9487 64.970668 6284.4688 62.03125 C 6285.4005 60.229472 6286.8418 59 6288 59 C 6290.3536 59 6293 63.700405 6293 67.875 C 6293 74.656218 6295.8005 75.997505 6299 70.75 C 6301.3853 66.837755 6301.5139 63.690599 6299.4688 57.875 C 6297.8044 53.14214 6291.7883 47 6288.8125 47 C 6287.8015 47 6285.1781 48.125 6283 49.5 C 6280.8219 50.875 6278.8461 52 6278.5938 52 C 6277.3249 52 6277.0586 42.99493 6278.2188 39.09375 C 6279.6627 34.238351 6280.6896 33.39523 6286.2812 32.5 C 6288.961 32.070991 6290.4245 31.205897 6291.1875 29.53125 C 6292.5082 26.632804 6291.5707 22.443606 6289.4375 21.625 C 6287.6628 20.943993 6282 23.537833 6282 25.03125 C 6282 27.01273 6278.9363 25.909753 6276.3438 23 C 6272.9814 19.226386 6271.8095 19.241034 6266.9375 23.15625 C 6263.1802 26.175738 6262.916 26.242853 6261.0938 24.59375 C 6258.734 22.458105 6257.4102 24.064932 6259.0312 27.09375 C 6259.8549 28.632718 6259.884 29.522313 6259.0938 30.3125 C 6257.3683 32.037983 6257.82 33.008737 6260.2188 32.75 C 6261.8594 32.573039 6262.8611 33.399921 6264.1562 36 C 6265.9584 39.617659 6266.6787 50 6265.125 50 C 6264.6422 50 6262.6308 49.325 6260.6562 48.5 C 6254.1119 45.765568 6251.4311 46.429999 6247.5625 51.75 C 6244.3153 56.215536 6240 66.734671 6240 70.1875 C 6240 71.043883 6240.6476 72.281989 6241.4375 72.9375 C 6243.7829 74.884017 6246.6973 72.543338 6249.9688 66.0625 C 6251.5979 62.835142 6253.513 59.971362 6254.2188 59.71875 C 6257.162 58.665306 6265 65.052644 6265 68.5 C 6265 69.6692 6263.656 71.912259 6262.0312 73.46875 C 6260.4067 75.02524 6258.341 77.846078 6257.4375 79.75 C 6255.8244 83.149335 6255.8639 83.317995 6259.0938 89.84375 C 6260.9028 93.498737 6263.0242 97.273948 6263.8125 98.21875 C 6267.3178 102.42001 6271.1706 95.108813 6268.9688 88.4375 C 6267.4887 83.952847 6268.407 78.828643 6271.125 76.375 C 6273.1969 74.504649 6273.2607 74.552345 6277.1562 78.9375 C 6280.5902 82.80294 6280.9797 83.751146 6280.3125 86.4375 C 6279.8924 88.128824 6279.5463 91.505186 6279.5312 93.96875 C 6279.4981 99.423049 6281.3738 100.25969 6285.6562 96.65625 C 6287.009 95.517975 6287.807 94.940598 6288.5625 94.8125 L 6291.8438 84.03125 z M 6271.375 23.65625 C 6272.611 23.594402 6273.6519 24.550577 6275.4375 26.5 L 6278.75 30.125 L 6276.7812 36.3125 C 6274.8095 42.550016 6274.901 52.307205 6276.9375 54.34375 C 6277.4228 54.829007 6279.7577 54.054377 6282.25 52.59375 C 6284.6906 51.163487 6287.3746 50 6288.2188 50 C 6290.2597 50 6297.7573 58.229006 6298.5312 61.3125 C 6299.3993 64.771461 6298.723 69.266328 6297.25 69.75 C 6296.4198 70.022592 6295.9797 69.057499 6295.9688 66.84375 C 6295.9504 63.095616 6292.4591 56.25667 6289.6875 54.59375 C 6288.1618 53.678397 6287.3735 54.083971 6284.9375 56.96875 C 6280.3968 62.346228 6280.1646 66.023028 6284 72 C 6289.6752 80.843984 6289.8665 88.010596 6284.5938 94.5 C 6282.7219 96.803922 6281.887 97.243001 6280.9688 96.34375 C 6280.0422 95.436326 6280.1188 94.092856 6281.375 90.40625 C 6282.2665 87.789791 6283 84.853778 6283 83.90625 C 6283 81.620848 6274.0669 69.821433 6272.6875 70.28125 C 6272.0945 70.478918 6270.0693 73.445607 6268.1875 76.875 L 6264.75 83.09375 L 6266.4688 89.15625 C 6268.5509 96.576861 6267.2546 99.110848 6264.0625 93.875 C 6262.928 92.01407 6262.0021 90.119499 6262 89.65625 C 6261.998 89.193001 6261.1 87.679673 6260 86.28125 C 6258.9 84.882826 6258 83.3769 6258 82.9375 C 6258 82.4981 6260.25 79.332815 6263 75.90625 C 6265.75 72.479685 6268 69.159259 6268 68.53125 C 6268 65.449217 6258.2717 56 6255.0938 56 C 6253.9211 56 6247 65.91276 6247 67.59375 C 6247 68.203349 6246.1 69.504514 6245 70.5 C 6243.0337 72.2795 6243 72.261178 6243 68.5625 C 6243 63.3214 6248.3875 52.381041 6251.8438 50.59375 C 6254.2612 49.343676 6255.1906 49.389056 6260.0312 51.09375 C 6263.0374 52.152382 6266.0606 52.795775 6266.75 52.53125 C 6268.7922 51.747577 6268.2751 40.831108 6265.9062 34.5 L 6263.8438 28.9375 L 6266.1562 26.96875 C 6268.6893 24.803232 6270.139 23.718098 6271.375 23.65625 z M 6288.5625 24.65625 C 6290.3093 25.326541 6290.453 28.171987 6288.8125 29.8125 C 6287.2606 31.364449 6285.8126 31.301546 6283.5625 29.65625 C 6281.845 28.400378 6281.895 28.218664 6284.4375 26.21875 C 6285.9167 25.055168 6287.7726 24.353138 6288.5625 24.65625 z "/>
</svg>
