<svg xmlns="http://www.w3.org/2000/svg"
     width="31.0" height="64.0"
     viewBox="1473.0000 20.1295 39.5007 81.4830">
  <path d="M 1477,84.9375 1477.5625,87.71875 C 1482.3228,86.841016 1487.6573,82.395873 1491.6875,75.21875 L 1495.1875,68.9375 1494.1562,57.71875 C 1493.5768,51.545994 1493.3551,45.325867 1493.6562,43.875 1494.1944,41.282897 1492.6551,37 1491.1875,37 1490.1919,37 1490.7188,49.502126 1492.1562,59.75 1493.1866,67.095485 1493.1385,68.404673 1491.5312,71.96875 1490.5402,74.166297 1487.7007,77.982895 1485.25,80.46875 1481.7311,84.037991 1480.108,85 1477.4688,85 1477.3029,85 1477.1653,84.946335 1477,84.9375 z M 1479.1562,95.46875 1479.5312,97.34375 C 1481.1032,97.612485 1482.3378,97.455061 1484.2188,96.5625 1485.7224,95.848982 1486.6688,95.533206 1488.0625,95.65625 L 1490.6875,92.5625 C 1490.6039,92.224879 1490.6844,91.886646 1491.0312,91.46875 1491.5091,90.892993 1492.0298,90.522962 1492.5938,90.3125 L 1495,87.5 1495.9688,87.34375 C 1495.8545,87.219906 1495.573,87.086922 1495.5,86.96875 1495.1928,86.471571 1496.008,84.364209 1497.3125,82.28125 1501.2377,76.013909 1502.7056,70.180069 1501.9062,64 1499.608,46.23007 1500.4226,36.336501 1504.7812,29.75 1508.5007,24.129453 1506.7863,24.155078 1502.6562,29.78125 1499.3919,34.2281 1499.0275,35.396249 1498.4062,43.625 1497.9878,49.166894 1498.2144,55.93518 1498.9688,61.25 1500.422,71.487376 1499.6957,74.520464 1493.8125,83.21875 1489.2902,89.905018 1485.5077,93.775617 1482.0312,95.15625 1481.0863,95.53152 1480.2185,95.636643 1479.1562,95.46875 z"/>
</svg>
