<svg xmlns="http://www.w3.org/2000/svg"
     width="38.2" height="64.0"
     viewBox="7558.0000 35.6666 39.5389 66.1773">
  <path d="M 7564.125 86.9375 L 7563.5625 89.09375 C 7563.9171 89.159979 7565.1432 89.467727 7566.7812 89.9375 C 7569.1378 90.613377 7570.9727 90.472483 7573.375 89.46875 C 7578.2595 87.427855 7579.4061 83.85976 7578.5 73.25 C 7576.8231 53.613544 7578.2951 44 7582.9688 44 C 7586.833 44 7588.0725 53.37313 7585.8438 65.46875 C 7584.4643 72.955182 7585.2206 77.560492 7588.5938 82.53125 C 7591.4679 86.766582 7590.662 88.97654 7586.9688 87 C 7584.9457 85.917317 7584.3941 86.204767 7581.125 90 C 7578.0477 93.572501 7576.8272 94.240233 7573 94.5625 C 7567.4305 95.031487 7563.2194 93.498442 7563.0625 91.03125 L 7562 95 L 7562.1562 95.4375 C 7563.0513 95.339722 7564.1932 95.599977 7566.1562 96.125 C 7572.5829 97.843884 7577.7051 96.589113 7581.5938 92.34375 C 7584.4796 89.193148 7585.0441 88.934353 7587.0938 90.03125 C 7589.0742 91.091152 7589.6102 90.979072 7591.1875 89.03125 C 7593.5389 86.127334 7593.4807 84.892976 7590.8438 82.0625 C 7586.8982 77.827392 7586.2787 74.10415 7587.7188 63.3125 C 7589.2274 52.006608 7588.7061 45.95193 7586.0312 43.53125 C 7581.7609 39.6666 7577.0432 44.599778 7575.8438 54.21875 C 7575.3956 57.811841 7575.5359 65.092072 7576.1562 71.25 C 7577.1171 80.78735 7577.0518 82.289513 7575.5625 84.5625 C 7573.4383 87.80447 7571.8583 88.380135 7567.5 87.5625 L 7564.125 86.9375 z "/>
</svg>
