<svg xmlns="http://www.w3.org/2000/svg"
     width="51.2" height="64.0"
     viewBox="5120.6093 11.5327 75.2904 94.1296">
  <path d="M5162.0 98.045455C5162.0 97.520455 5163.125 95.965909 5164.5 94.590909C5167.3767 91.714202 5167.7577 87.526742 5165.4433 84.222506C5163.2005 81.020486 5157.7137 81.219997 5153.6444 84.651538C5147.3562 89.954174 5142.621 90.684245 5137.1989 87.187139C5130.2341 82.695111 5130.4182 73.130855 5137.7364 59.262908C5140.0404 54.896761 5140.2936 53.732639 5139.2589 52.262908C5138.5763 51.293309 5136.9097 48.418656 5135.5553 45.87479C5134.2009 43.330925 5132.3995 40.983537 5131.5521 40.658371C5127.3623 39.050576 5124.6093 29.467071 5127.0352 24.934259C5128.5203 22.15921 5130.1477 22.5254 5134.0019 26.501947C5135.8948 28.454933 5137.7763 29.623726 5138.2556 29.144396C5138.7283 28.671672 5139.3785 25.732603 5139.7005 22.613132C5140.0224 19.49366 5140.6726 16.702351 5141.1453 16.410223C5142.5652 15.53266 5150.6561 21.946151 5152.5383 25.441303C5154.8462 29.726851 5153.9036 33.274184 5149.3477 37.447938L5145.7781 40.718134L5148.139 44.874325C5150.6031 49.212043 5157.7147 53.707212 5160.4515 52.656983C5162.8161 51.74961 5169.8883 42.104727 5171.0623 38.18636C5171.9914 35.085255 5171.8405 33.669459 5170.1141 29.289393C5168.7148 25.739468 5168.4053 23.86755 5169.1422 23.412089C5169.737 23.044513 5170.6122 23.363921 5171.0871 24.121885C5172.6112 26.554275 5174.2902 35.707673 5173.6674 38.18891C5172.8154 41.583839 5165.017 52.942746 5162.3293 54.70381C5157.8 57.671526 5149.4006 53.625571 5145.9 46.789838C5143.6766 42.448175 5143.3334 36.0 5145.3257 36.0C5147.206 36.0 5151.0 31.711103 5151.0 29.585549C5151.0 28.603497 5149.3578 26.15776 5147.3506 24.150578C5143.9428 20.742797 5143.6495 20.633545 5142.9209 22.500578C5142.4917 23.60026 5142.1067 25.4 5142.0653 26.5C5142.0239 27.6 5140.8648 29.85 5139.4895 31.5L5136.9889 34.5L5134.0 31.044437C5132.0364 28.77422 5130.673 27.926985 5130.0255 28.574545C5128.3601 30.23995 5130.7255 36.420971 5133.937 38.795272C5136.604 40.767081 5143.0 52.142778 5143.0 54.914408C5143.0 55.535068 5141.8361 57.801727 5140.4134 59.951427C5136.4737 65.904764 5134.0202 74.733823 5135.2702 78.459777C5136.6768 82.65255 5137.9704 84.088432 5141.7728 85.677866C5145.4588 87.2186 5146.9309 86.723725 5153.1439 81.855306C5161.5862 75.240042 5171.3847 80.882034 5169.1015 91.043744C5168.5949 93.298413 5167.3951 96.010936 5166.4352 97.071571C5164.6008 99.098643 5162.0 99.669714 5162.0 98.045455Z M5172.0 100.24055C5172.0 99.822848 5172.9 98.919034 5174.0 98.232073C5175.1 97.545112 5176.0 96.369069 5176.0 95.618644C5176.0 94.86822 5176.9187 92.17725 5178.0417 89.638712C5179.7641 85.744966 5179.9167 84.404237 5179.0176 81.065212C5177.5058 75.451126 5173.9825 73.0 5167.4242 73.0C5164.5058 73.0 5161.8707 73.400149 5161.5685 73.889221C5161.2662 74.378292 5159.7771 75.088352 5158.2594 75.467132C5156.7418 75.845911 5154.825 76.734883 5154.0 77.442625C5153.175 78.150367 5150.861 78.979145 5148.8578 79.284354C5143.7175 80.06752 5140.9937 77.950189 5141.022 73.193296C5141.0495 68.561849 5144.1849 61.506612 5146.8492 60.080682C5149.4432 58.692418 5154.5608 58.694577 5157.1589 60.085031C5159.9391 61.572957 5163.4465 60.504591 5166.5042 57.238407C5169.9863 53.51885 5177.9124 39.901294 5179.1011 35.595885C5180.0799 32.051 5187.1196 25.0 5189.68 25.0C5191.8997 25.0 5191.1515 26.387583 5187.644 28.775528C5185.1753 30.456281 5182.6869 34.261184 5178.1238 43.332581C5171.8068 55.890546 5166.6226 62.554641 5162.3331 63.631253C5161.0052 63.96452 5157.9177 63.67691 5155.4719 62.99212C5148.9697 61.171618 5145.7503 62.745687 5144.2119 68.497521C5143.562 70.927353 5143.2966 73.609433 5143.6221 74.457699C5144.5541 76.88626 5149.6642 76.303384 5156.7366 72.961827C5174.436 64.599281 5186.1961 73.911226 5180.0606 91.430281C5178.9183 94.691936 5177.2426 98.179436 5176.3368 99.180281C5174.6846 101.00598 5172.0 101.66231 5172.0 100.24055Z M5168.4309 98.888197C5168.053 98.276705 5168.148 97.489205 5168.642 97.138197C5169.8216 96.300105 5172.9724 86.162567 5172.5191 84.663929C5171.0597 79.838982 5171.0439 78.0 5172.4619 78.0C5174.379 78.0 5175.3916 82.009825 5174.6091 86.502714C5174.2741 88.426221 5173.7217 91.6875 5173.3815 93.75C5172.4909 99.149595 5170.1159 101.6146 5168.4309 98.888197Z M5175.0726 25.365141C5172.7705 22.438579 5172.5349 21.405502 5173.9673 20.520214C5174.4993 20.191413 5175.5076 20.839855 5176.2078 21.961197C5177.7184 24.380051 5179.2928 24.557062 5181.0 22.5C5182.5399 20.644588 5184.0 20.559746 5184.0 22.325686C5184.0 23.898779 5179.85 28.0 5178.2581 28.0C5177.646 28.0 5176.2125 26.814314 5175.0726 25.365141Z"/>
</svg>
