<svg xmlns="http://www.w3.org/2000/svg"
     width="57.6" height="64.0"
     viewBox="1543.5289 16.7599 78.2805 86.9411">
  <path d="M 1582.1875,62.59375 1580.5,62.5 1580.5,56.5 1580.5,50.5 1583.75,50.75 C 1587.126,51.013648 1588.1646,49.652241 1585.4062,48.59375 1582.4306,47.451845 1579.2055,47.999104 1578.5,49.75 1578.1121,50.7125 1577.6445,53.701418 1577.4375,56.375 1577.1339,60.295383 1577.6339,62.327264 1580.0312,66.875 1583.1972,72.881053 1583.9742,80.307576 1582,85.5 1581.1628,87.70214 1581.4071,88.500801 1583.4688,90.5625 1586.8151,93.908898 1589.4576,93.619887 1594.3438,89.4375 1597.3507,86.863698 1599.0457,86.079506 1600.5,86.5625 1605.8114,88.326484 1609.5298,88.139762 1612.25,86 1613.7567,84.814866 1615,83.130953 1615,82.25 1615,80.909776 1614.6326,80.983677 1612.75,82.6875 1609.7134,85.435676 1606.794,86.006514 1603.9062,84.40625 1600.0398,82.263572 1597.6126,82.77271 1594,86.5 1588.7042,91.963832 1583.3175,90.849437 1585.0938,84.65625 1585.5895,82.928028 1586,79.868655 1586,77.875 1586,76.810826 1586.0531,76.110359 1586.2188,75.53125 L 1586,75.5 1582.1875,62.59375 z M 1616.7188,88.09375 C 1616.5011,87.956683 1615.8169,88.124387 1614.5938,88.59375 1613.7238,88.927594 1613,89.602594 1613,90.09375 1613,91.476983 1614.6203,91.162377 1616,89.5 1616.6756,88.685896 1616.9364,88.230817 1616.7188,88.09375 z M 1561.1875,21.21875 C 1559.0671,21.677571 1557.298,24.059515 1555.4688,28.4375 1552.5782,35.355376 1556.0472,41.84811 1564.0312,44.5 1566.8767,45.445107 1569.5163,47.08549 1570.1562,48.28125 1571.3277,50.470278 1571.8678,57.475983 1570.9375,58.40625 1570.6427,58.701015 1568.4219,57.964064 1566.0312,56.78125 L 1561.6875,54.65625 1557.0938,57.0625 C 1553.0149,59.217246 1552.2771,60.133385 1550.625,65.21875 1547.5289,74.749359 1550.7623,79.915905 1555.1562,72.46875 1557.5809,68.359456 1559.7332,67 1563.8125,67 1567.7916,67 1569.5,69.395209 1569.5,74.96875 1569.5,78.719155 1568.7679,80.68058 1565.75,85.0625 1562.1606,90.274216 1560.7398,96.427279 1562.6875,98.375 1564.0135,99.700983 1566.5012,98.480658 1567.75,95.875 1570.1138,90.943276 1571.6074,90.468463 1575.5,93.4375 1579.7862,96.706724 1585.124,99 1588.4062,99 1589.7567,99 1592.1784,97.875 1593.8125,96.5 1597.4037,93.478205 1598.9525,93.398908 1603.2188,96 1606.8627,98.221678 1613.9432,98.681778 1615.8125,96.8125 1617.8094,94.815642 1617.1571,93.985426 1614.4062,95.03125 1611.3334,96.199581 1604.8878,94.774629 1603,92.5 1601.1301,90.24689 1597.51,90.697776 1594.0312,93.625 1591.3839,95.852617 1590.332,96.141537 1586.9062,95.59375 1582.5464,94.896574 1578.2674,92.594367 1576.1875,89.78125 1575.4688,88.809191 1574.0909,88 1573.125,88 1571.1701,88 1566,92.946888 1566,94.8125 1566,95.469904 1565.55,96 1565,96 1563.097,96 1564.0236,92.291873 1566.9062,88.3125 1574.1175,78.357645 1575.0123,71.887294 1569.9375,66.8125 1567.2352,64.110148 1566.4119,63.812956 1562.6875,64.3125 1559.5732,64.730223 1557.6688,65.800921 1555.2812,68.40625 1551.6428,72.376484 1550.6161,71.895637 1552.0312,66.90625 1553.228,62.687084 1553.8143,61.884369 1557.2188,59.71875 1560.6803,57.51684 1561.464,57.549959 1566.7188,60.09375 1572.898,63.085092 1574,62.294689 1574,54.96875 1574,46.541927 1572.2499,43.549481 1566.4688,42.09375 1557.8237,39.916931 1554.1701,33.677462 1557.9688,27.53125 1560.9818,22.656081 1563.7329,22.889225 1569.3438,28.5 1571.8187,30.975 1574.5949,33 1575.5,33 1576.4051,33 1578.6906,31.826697 1580.5938,30.375 1582.4971,28.923303 1584.2417,27.89806 1584.4688,28.125 1584.6956,28.35194 1583.5544,30.529979 1581.9375,32.9375 1580.3206,35.345021 1579,37.774463 1579,38.34375 1579,39.700947 1583.0628,44 1584.3438,44 1584.8921,44 1586.1783,44.742955 1587.1875,45.65625 1588.1967,46.569545 1589.2854,47.058324 1589.625,46.71875 1590.8703,45.473468 1588.9706,42.95261 1585.5312,41.3125 1581.449,39.365775 1581.2991,38.714991 1584,35.28125 1586.1715,32.520688 1588.2355,26.18547 1587.4062,24.84375 1586.4222,23.251479 1584.0693,24.0033 1580.6562,27 1578.777,28.65 1576.3629,30 1575.3125,30 1574.2621,30 1571.429,27.975 1569,25.5 1565.7763,22.215356 1563.3079,20.759929 1561.1875,21.21875 z"/>
</svg>
