<svg xmlns="http://www.w3.org/2000/svg"
     width="23.6" height="64.0"
     viewBox="3042.7939 15.8734 33.2227 90.1266">
  <path d="M3058.216 100.75C3057.6502 100.0625 3054.8487 94.815741 3051.9905 89.090535L3046.7939 78.681071L3050.8969 70.588969C3055.4752 61.559698 3055.7211 59.929327 3053.343 54.372124C3052.215 51.736148 3051.6607 47.467194 3051.6067 41.0C3051.5382 32.791873 3051.8655 30.820067 3054.0137 26.5C3056.7197 21.058171 3059.0976 19.873379 3062.0148 22.513435C3065.4557 25.627339 3066.7832 31.815996 3066.2397 42.208073C3065.6532 53.41989 3066.0956 55.771683 3069.5667 59.896936C3071.9063 62.677342 3072.0166 63.194288 3070.8096 65.724009C3069.9267 67.574749 3068.5785 68.604747 3066.7649 68.814267C3063.9954 69.134231 3060.8567 72.585208 3059.5726 76.722433C3059.0954 78.259735 3059.9798 81.256691 3062.4414 86.443982C3064.3986 90.568495 3066.0 94.651355 3066.0 95.517003C3066.0 97.209245 3061.6902 102.0 3060.1679 102.0C3059.6602 102.0 3058.7819 101.4375 3058.216 100.75Z M3062.4016 94.823192C3062.3439 92.788275 3060.8161 88.816557 3058.7062 85.216597L3055.1092 79.07922L3058.8046 72.498163C3062.3612 66.164242 3062.624 65.935397 3065.8023 66.404163C3070.5045 67.097701 3071.0051 64.741287 3066.9585 60.961273L3063.7038 57.92085L3064.2648 44.540431C3064.7366 33.287837 3064.5613 30.630456 3063.1629 27.830006C3061.9519 25.404988 3060.8291 24.5 3059.0313 24.5C3056.9859 24.5 3056.2406 25.35732 3054.6849 29.5C3052.37 35.664024 3053.0394 47.196665 3056.0551 53.108C3058.7526 58.395549 3058.556 59.892162 3054.0021 68.735966C3051.8033 73.006185 3050.0033 77.088913 3050.0021 77.808696C3049.9981 80.303325 3060.2118 99.096003 3061.3536 98.694989C3061.9841 98.47357 3062.4557 96.731261 3062.4016 94.823192Z"/>
</svg>
