<svg xmlns="http://www.w3.org/2000/svg"
     width="34.1" height="64.0"
     viewBox="2357.5000 15.8371 47.2144 88.7115">
  <path d="M 2363.25 83.34375 L 2362.5938 88.25 C 2362.6508 88.241287 2362.6886 88.129151 2362.75 88.15625 C 2371.4398 91.994445 2372.9227 92.292211 2375.5625 90.5625 C 2379.6716 87.870115 2381.3068 82.696452 2381.2812 72.5 C 2381.2688 67.55 2380.7285 62.15 2380.0625 60.5 C 2378.5294 56.701672 2376.0018 42.660348 2376 37.875 C 2375.9981 32.99261 2377.9786 28.609113 2381.375 25.9375 L 2384.1562 23.71875 L 2386.1875 25.75 C 2389.0955 28.658033 2390.0367 34.984738 2389.3438 47.0625 C 2388.6215 59.652429 2390.2818 66.946998 2395.0312 72.03125 C 2398.7361 75.997323 2397.7387 77.962835 2393 76 C 2390.8478 75.108515 2389.5626 75.031196 2388.8438 75.75 C 2387.0807 77.513023 2381.1378 93.192524 2381.6875 94.625 C 2382.0012 95.442511 2381.1442 96.386775 2379.5312 97 C 2376.0772 98.313194 2376.5611 98.393061 2368.75 94.6875 C 2364.9485 92.884095 2362.9641 91.562148 2362.3125 90.4375 L 2361.5 96.40625 C 2362.8858 96.053432 2364.7387 96.621336 2368.875 98.40625 C 2373.0383 100.20278 2375.0716 100.54863 2377.7812 99.9375 C 2382.6593 98.837313 2383.4744 97.693494 2386.4688 87.78125 C 2387.9181 82.983401 2389.5215 78.783836 2390.0312 78.46875 C 2390.541 78.153665 2391.8992 78.394096 2393.0312 79 C 2395.7616 80.461229 2398.4557 79.503078 2399.7812 76.59375 C 2400.7144 74.54549 2400.4337 73.857282 2397.8125 71.375 C 2396.148 69.798732 2394.3318 67.375 2393.75 66 C 2393.1569 64.598149 2392.6505 55.812955 2392.5938 46 C 2392.4882 27.774349 2391.8392 24.601187 2387.5 21 C 2386.0989 19.837128 2385.3465 19.885323 2382.4062 21.46875 C 2377.294 24.221854 2374.8001 28.968795 2374.2188 37.09375 C 2373.7197 44.070338 2374.9306 52.447784 2377.7188 61.375 C 2379.7756 67.96068 2379.1118 82.625767 2376.5938 86.46875 C 2375.0833 88.773953 2374.3424 89.11222 2371.75 88.59375 C 2370.0595 88.255644 2367.2171 86.857378 2365.4375 85.5 C 2364.4055 84.712838 2363.7542 84.088446 2363.25 83.34375 z "/>
</svg>
