<svg xmlns="http://www.w3.org/2000/svg"
     width="61.3" height="64.0"
     viewBox="5188.7524 12.9767 85.2476 89.0233">
  <path d="M 5259.625,50.03125 5261.1875,50.625 5258.3438,54.0625 C 5251.7324,62.072838 5250.2596,62.532425 5244.5,58.4375 5239.0012,54.527996 5238.5628,54.446305 5234.625,56.5 5229.7173,59.059518 5229,58.571584 5229,52.625 5229,47.8833 5229.2682,47.174649 5231.25,46.65625 L 5233.5,46.0625 5231.1875,43.78125 C 5228.9203,41.543133 5228.8546,41.530423 5227.4375,43.4375 5225.576,45.942852 5225.513,56.965106 5227.3438,59.46875 5228.3691,60.871055 5229.3758,61.133321 5231.5938,60.59375 5239.2234,58.737572 5239.6285,58.764513 5244.2188,62 L 5248.75,65.1875 5252.6562,62.625 C 5254.804,61.203632 5258.2362,58.015175 5260.3125,55.53125 5262.2868,53.169409 5264.4974,51.615195 5266.0625,51.125 L 5260,50 5259.625,50.03125 z M 5267.9062,51.46875 C 5267.9503,51.59936 5268,51.697606 5268,51.875 5268,53.429615 5254.7749,65.835453 5251.8125,67.0625 5249.4881,68.025315 5248.1567,67.949912 5244.6875,66.625 5238.8284,64.387396 5237.1049,64.574118 5235.9688,67.5625 5234.3135,71.916359 5234.8665,74.592826 5238.5,79.875 5242.6468,85.903432 5242.7434,86.882724 5239.5938,90.28125 5238.2755,91.703582 5237.0066,93.46702 5236.75,94.1875 5235.6549,97.263272 5234.905,93.816983 5235.9688,90.59375 5236.6133,88.640534 5236.8783,86.213893 5236.5625,85.21875 5235.5913,82.158718 5227.5106,74.879632 5225.8125,75.53125 5224.9675,75.85548 5222.8892,78.794321 5221.1875,82.09375 5218.5678,87.173367 5218.2729,88.486509 5219.2188,90.5625 5221.4102,95.372216 5218.3521,94.300966 5214.125,88.78125 5212.998,87.309753 5213.256,86.411839 5215.875,82.53125 5221.4144,74.323308 5221.4264,74.24779 5218.7188,70.15625 5215.3129,65.009594 5208.3488,60.305345 5206.1562,61.65625 5203.0855,63.548304 5199.3666,71.64887 5199.8125,75.46875 5200.0385,77.404005 5200.6647,79 5201.2188,79 5201.7847,79 5201.9981,77.795534 5201.6875,76.25 5201.0549,73.102294 5204.2576,65.490233 5206.5938,64.59375 5208.4467,63.882685 5217,71.567037 5217,73.9375 5217,74.859773 5215.7314,77.617321 5214.1875,80.0625 5209.5969,87.332708 5209.6028,87.619897 5214.1875,92.59375 5216.9997,95.644569 5218.999,97.013637 5220.4062,96.8125 5222.2758,96.545292 5222.5,95.817737 5222.5,89.78125 5222.5,84.281416 5222.8914,82.678479 5224.625,80.9375 L 5226.7188,78.8125 5230.4375,82.625 C 5233.1632,85.431593 5233.9417,86.967592 5233.4688,88.46875 5231.934,93.339489 5231.8358,95.097261 5233,96.5 5233.682,97.32184 5234.56,98 5234.9375,98 5237.7376,98 5244,89.580325 5244,85.8125 5244,84.264591 5242.65,81.121508 5241,78.84375 5239.0879,76.204108 5238,73.478956 5238,71.34375 5238,67.461157 5238.0298,67.460609 5244.1562,69.65625 5248.4497,71.195023 5249.0453,71.20986 5252.1875,69.71875 5254.0592,68.830593 5256.4652,67.143427 5257.5,66 5258.5348,64.856573 5260.8817,63.010341 5262.7188,61.875 5264.5557,60.739658 5266.7504,58.409927 5267.625,56.71875 5268.5067,55.013792 5269.1857,54.441288 5269.75,54.90625 L 5270,54.5 5268,51.5 5267.9062,51.46875 z M 5219.4375,17.21875 C 5217.5987,16.976723 5216.6484,17.90693 5212.9688,21.53125 5210.2418,24.217075 5208,27.081581 5208,27.875 5208,29.36422 5208.2727,29.174425 5214.8125,23.25 5216.1785,22.0125 5218.2505,21 5219.4375,21 5221.6471,21 5230.2171,25.931671 5231.4375,27.90625 5232.3667,29.409851 5234.9967,29.291313 5234.9375,27.75 5234.8629,25.804294 5225.9378,19.090351 5221.7188,17.8125 5220.7806,17.528355 5220.0504,17.299426 5219.4375,17.21875 z M 5220.1562,26.78125 C 5219.5312,26.811541 5218.9813,27.018034 5218.4062,27.34375 5214.3907,29.61804 5208.064,35.299031 5208.5938,36.15625 5209.2212,37.171414 5210.1934,36.701072 5215.1562,32.84375 5219.4333,29.519457 5220.9037,29.33321 5224.125,31.84375 5227.0374,34.113441 5232.5081,37 5233.9375,37 5236.1993,37 5234.7819,34.994512 5230.4375,32.0625 5224.5713,28.103424 5222.0314,26.690376 5220.1562,26.78125 z M 5216.5938,40.15625 C 5215.6043,39.652422 5214.1614,40.308122 5212,41.96875 5209.146,44.161643 5209.7947,45.71102 5212.875,44.0625 5215.163,42.83798 5215.4142,43.379381 5216.3438,51.8125 5216.9365,57.19029 5215.5951,57.898993 5208.875,55.75 5204.1956,54.253562 5203.9006,54.273774 5200.8438,56.34375 5195.7414,59.798829 5192.7524,66.384324 5193.2188,73.21875 5193.4722,76.931373 5194.2704,79.644578 5195.4688,80.96875 5196.4828,82.089361 5197.6269,83 5198,83 5199.6712,83 5199.6994,81.699363 5198.0625,80.0625 5197.0818,79.081799 5195.9485,76.167436 5195.5625,73.59375 5194.9634,69.59871 5195.2366,68.246535 5197.4688,64.4375 5198.9068,61.983642 5201.1838,59.268707 5202.5,58.40625 5204.6802,56.977774 5205.1919,57.004332 5208.3438,58.5 5210.2712,59.414575 5213.5114,59.988715 5215.6562,59.8125 L 5219.5,59.5 5219.3125,55 C 5219.2079,52.525 5218.8475,48.1375 5218.5,45.25 5218.146,42.308527 5217.5832,40.660078 5216.5938,40.15625 z"/>
</svg>
