<svg xmlns="http://www.w3.org/2000/svg"
     width="27.1" height="64.0"
     viewBox="1229.9973 20.1235 35.9747 84.8608">
  <path d="M 1261.0789,37.416667 C 1261.1269,36.251724 1261.3639,36.014767 1261.6831,36.8125 1261.972,37.534375 1261.9365,38.396875 1261.6042,38.729167 1261.2719,39.061458 1261.0355,38.470833 1261.0789,37.416667 z M 1239.9243,97.413791 C 1237.806,95.154068 1237.5092,93.923215 1237.5726,87.663791 1237.6125,83.723706 1238.2793,78.025 1239.0544,75 1239.8295,71.975 1240.4676,64.775 1240.4724,59 1240.4808,49.055242 1240.31,48.182719 1237.2428,42.5 1235.4616,39.2 1234.0033,36.089396 1234.0021,35.587547 1233.9973,33.509843 1240.228,25.173629 1242.1643,24.667275 1244.2437,24.123507 1245.1541,24.869258 1249.8843,30.991312 1251.7263,33.375311 1251.8921,33.407618 1253.7334,31.741312 1255.9819,29.706429 1258.116,29.516005 1259.8,31.2 1261.4632,32.863241 1261.3139,34.505409 1259.6267,33.105192 1258.8715,32.478358 1257.5215,32.246403 1256.6267,32.589736 1254.0958,33.560938 1254.7098,36.774325 1257.75,38.469125 L 1260.5,40.002124 1256.5623,39.751062 C 1252.8075,39.511659 1252.5887,39.66253 1251.8495,43 1251.4232,44.925 1251.5077,50.088195 1252.0372,54.473766 1253.2541,64.552338 1253.2509,64.650885 1251.75,63.150006 1250.9005,62.30056 1250.4517,57.876308 1250.3492,49.343195 1250.2017,37.064498 1250.1285,36.678547 1247.0438,31.917947 1243.254,26.069319 1242.206,25.298444 1241.2914,27.686618 1240.9094,28.683978 1239.5757,31.006041 1238.3275,32.846757 L 1236.0581,36.193515 1238.9589,41.846757 C 1242.8612,49.451655 1243.4679,56.173388 1241.41,69 1238.8065,85.22691 1238.5806,91.288298 1240.4451,94.893751 1243.5946,100.98435 1249.545,97.793185 1251.9949,88.699643 1252.881,85.410384 1253.0882,80.845951 1252.6532,74.199643 1252.1876,67.087943 1252.3043,64.982032 1253.0905,66.306663 1254.8501,69.271347 1255.4464,82.571111 1254.0313,87.288754 1251.7008,95.058006 1250.7358,97.071645 1248.6397,98.539827 1245.5575,100.69864 1242.6516,100.32319 1239.9243,97.413791 z"/>
</svg>
