<svg xmlns="http://www.w3.org/2000/svg"
     width="30.8" height="64.0"
     viewBox="7535.3569 19.0120 40.7547 84.5635">
  <path d="M 7548.875 23.21875 C 7547.9297 23.425462 7546.8386 24.564471 7545.0312 26.75 C 7540.0227 32.806758 7539.3569 36.563549 7542 43.8125 C 7544.1065 49.589881 7544.1911 50.778 7543.4062 64.71875 C 7542.9485 72.848622 7542.7061 80.85 7542.875 82.5 C 7543.38 87.43414 7547.2816 94.341646 7550.9062 96.75 C 7555.099 99.535878 7556.7564 99.575531 7559.5312 96.96875 C 7560.5337 96.026989 7561.2204 95.539732 7562.1562 95.4375 L 7562 95 L 7563.0625 91.03125 C 7563.0595 90.984475 7563 90.953704 7563 90.90625 C 7563 89.852083 7563.1089 89 7563.25 89 C 7563.2626 89 7563.5277 89.08726 7563.5625 89.09375 L 7564.125 86.9375 L 7564 86.90625 L 7564 78.5625 C 7564 72.03426 7563.4137 68.58076 7561.3438 62.84375 C 7558.3503 54.546977 7557.3493 45.832994 7558.9062 41.75 C 7559.8357 39.312559 7560.4475 39 7564.4375 39 C 7568.1719 39 7569.2552 38.575684 7570.6562 36.4375 C 7571.9312 34.491592 7572.1116 33.205135 7571.4062 31.1875 C 7570.0758 27.381201 7566.1577 27.157814 7562 30.65625 L 7558.75 33.40625 L 7556.2812 30.4375 C 7554.9218 28.815658 7552.9462 26.4875 7551.9062 25.25 C 7550.6352 23.737623 7549.8203 23.012038 7548.875 23.21875 z M 7549.0625 26 C 7549.5463 26 7551.7791 28.482574 7554.0312 31.53125 C 7557.9177 36.792051 7558.0686 37.261016 7556.9688 40.59375 C 7555.0998 46.256566 7555.668 53.410848 7558.6562 61.75 C 7561.0055 68.305876 7561.4414 71.030831 7561.4062 79.5 C 7561.3754 86.909952 7560.9165 90.341766 7559.6562 92.75 C 7556.1944 99.364781 7549.0069 95.282216 7545.7812 84.875 C 7544.3455 80.242692 7544.2866 78.381221 7545.2812 71.5 C 7547.2333 57.995057 7546.8137 47.210071 7544.1562 42.15625 C 7542.5428 39.087594 7542.0732 36.991401 7542.5312 34.90625 C 7543.1969 31.875043 7547.5016 26 7549.0625 26 z M 7566.4688 31 C 7569.5052 31 7570.3863 32.37841 7569 34.96875 C 7567.8676 37.084639 7565.4508 37.579052 7563.1562 36.125 C 7561.0517 34.791424 7563.4956 31 7566.4688 31 z "/>
</svg>
