<svg xmlns="http://www.w3.org/2000/svg"
     width="56.4" height="64.0"
     viewBox="2546.3664 17.8064 75.5217 85.6365">
  <path d="M2550.7095 97.376178C2550.3664 97.033077 2551.0136 94.933564 2552.1476 92.710595C2553.9839 89.111284 2554.0887 88.066616 2553.1048 83.167635C2552.4972 80.141976 2552.0 75.14626 2552.0 72.066043C2552.0 66.843303 2552.3087 66.112803 2556.5772 61.233167L2561.1545 56.000687L2566.5772 56.638025L2572.0 57.275363L2571.9849 53.887681C2571.9705 50.644132 2570.0211 43.687767 2568.7783 42.444935C2568.4524 42.119111 2566.7635 42.58804 2565.0251 43.487C2559.9062 46.134087 2559.1301 44.594082 2564.1118 41.674642C2566.6219 40.203589 2568.9984 39.0 2569.3929 39.0C2570.8102 39.0 2575.0 50.138187 2575.0 53.906069C2575.0 59.051222 2573.3405 60.246711 2567.309 59.446607C2562.5777 58.818977 2562.3119 58.923394 2558.2176 63.017683C2554.432 66.803326 2554.0 67.727073 2554.0 72.03688C2554.0 74.677752 2554.6989 79.566441 2555.5531 82.900632C2557.0998 88.938197 2557.0954 88.981134 2554.458 93.481399C2551.6102 98.340904 2551.6416 98.308259 2550.7095 97.376178Z M2554.0 98.188561C2554.0 96.840887 2557.9855 93.0 2559.384 93.0C2561.1034 93.0 2564.5216 96.81175 2563.6151 97.718276C2563.2267 98.106584 2561.9864 97.848091 2560.8587 97.143848C2559.1489 96.076073 2558.5206 96.123882 2557.0755 97.431703C2555.1717 99.154583 2554.0 99.442935 2554.0 98.188561Z M2612.7816 93.745033C2609.0847 90.691834 2607.9852 87.18219 2607.3949 76.549917C2606.6752 63.586034 2606.7451 63.744163 2599.8633 59.496514L2593.6874 55.684475L2589.1846 57.353299C2584.9827 58.91065 2584.559 58.910836 2582.841 57.356073C2581.3779 56.032043 2581.0 54.212823 2581.0 48.494236C2581.0 40.503874 2582.3368 35.468454 2584.6988 34.562076C2585.5563 34.233026 2587.7793 34.513948 2589.6388 35.186348C2592.5542 36.240556 2593.257 36.171617 2594.7429 34.685683C2596.0747 33.35386 2596.2185 32.569262 2595.3759 31.231236C2593.7741 28.687686 2591.3465 28.582267 2588.3659 30.926822C2585.6816 33.038297 2583.0 33.663386 2583.0 32.177632C2583.0 30.900432 2575.0431 26.0 2572.9693 26.0C2571.9511 26.0 2570.8346 26.458557 2570.4882 27.019016C2569.8972 27.975312 2560.6938 33.0 2559.5332 33.0C2559.24 33.0 2559.0 32.524696 2559.0 31.94377C2559.0 31.362843 2560.9125 30.037095 2563.25 28.997664C2565.5875 27.958232 2569.0297 25.973486 2570.8992 24.587117C2574.5965 21.845459 2574.4033 21.806439 2581.1242 26.651878L2585.7485 29.985696L2588.282 27.992848C2591.5963 25.38576 2594.5139 25.467859 2596.4433 28.222506C2600.2578 33.668475 2597.1313 38.500332 2590.2917 37.729416C2584.4744 37.073719 2582.9946 39.156826 2583.0153 47.972506C2583.0365 56.999832 2583.6196 57.644667 2589.2762 54.89645L2593.8586 52.670172L2599.4854 56.080404C2607.7266 61.075095 2609.0679 62.828691 2609.0616 68.600099C2609.0586 71.295045 2609.5799 77.020189 2610.22 81.322641C2611.2002 87.910636 2611.8271 89.518203 2614.192 91.508081C2616.8515 93.745916 2617.8881 96.005882 2616.25 95.995033C2615.8375 95.992301 2614.2767 94.979801 2612.7816 93.745033Z M2575.5183 94.75C2577.3377 89.303085 2577.0801 82.440413 2574.8 75.615783C2572.8466 69.768966 2571.9409 68.412733 2568.7901 66.615783C2565.4334 64.7015 2564.9316 64.648106 2563.5206 66.055144C2561.3251 68.24455 2560.3989 79.634679 2562.0132 84.591637C2562.7133 86.741237 2564.5995 90.009756 2566.2047 91.855014C2567.8099 93.700272 2568.8659 95.467466 2568.5512 95.782112C2567.6096 96.723691 2561.8573 90.742243 2560.3768 87.282119C2558.4975 82.889831 2558.5801 69.71269 2560.5104 65.979984C2563.1149 60.94338 2565.1723 60.593963 2570.6142 64.264046C2574.8102 67.093929 2575.637 68.252923 2577.2032 73.5C2580.3548 84.058948 2580.578 89.328727 2578.0472 93.423702C2575.5374 97.484522 2574.4068 98.077482 2575.5183 94.75Z M2561.0 37.595022C2561.0 37.109419 2569.6098 32.0 2570.4281 32.0C2572.0818 32.0 2570.5905 34.089992 2567.632 35.918441C2564.6328 37.772025 2561.0 38.690409 2561.0 37.595022Z M2580.0 96.377494C2580.0 92.877561 2585.8891 89.393475 2587.473 91.956326C2587.7981 92.482305 2588.7246 92.65916 2589.532 92.349337C2590.433 92.003583 2591.0 92.383871 2591.0 93.333994C2591.0 95.638704 2589.4619 96.167556 2586.579 94.85404C2584.4267 93.873399 2583.6818 93.977978 2582.0041 95.496324C2580.9018 96.493832 2580.0 96.890359 2580.0 96.377494Z M2598.036 97.710162C2598.0162 97.275751 2598.9002 95.155708 2600.0005 92.998956L2602.0011 89.077587L2599.8458 80.288794C2596.5586 66.883618 2591.8372 63.358693 2588.3496 71.705779C2586.0934 77.105526 2587.0384 83.824118 2590.3984 86.271667C2591.8293 87.313997 2593.0 88.80428 2593.0 89.583407C2593.0 92.013554 2590.2954 91.139809 2587.4872 87.802431C2585.042 84.896448 2584.8331 84.007349 2585.1965 78.052431C2585.6155 71.188634 2588.1129 64.554397 2590.6434 63.583363C2592.5736 62.84266 2599.9371 68.744084 2600.447 71.440471C2600.6612 72.573212 2601.5914 76.947238 2602.514 81.16053C2603.4367 85.373821 2603.9243 89.648821 2603.5977 90.66053C2602.913 92.781047 2598.0899 98.89452 2598.036 97.710162Z M2603.0 98.261976C2603.0 96.335329 2606.8516 93.818131 2608.836 94.447934C2612.0906 95.48091 2612.3589 97.932565 2609.2017 97.789394C2607.7158 97.722011 2605.7125 98.014976 2604.75 98.440428C2603.7671 98.874888 2603.0 98.796663 2603.0 98.261976Z"/>
</svg>
