<svg xmlns="http://www.w3.org/2000/svg"
     width="43.3" height="64.0"
     viewBox="273.5225 14.0825 62.2373 91.9181">
  <path d="M312.0 99.0C306.56313 95.385764 303.75847 95.287307 298.5 98.526086C296.3 99.881103 293.36503 100.99206 291.97784 100.99488C288.29309 101.00236 282.26208 95.604628 281.04041 91.205905C278.74448 82.939236 279.83827 77.592182 287.87425 57.798195C291.59302 48.638255 291.14055 46.632124 284.56963 43.146257C279.26886 40.334208 277.52254 37.329683 278.32275 32.398582C279.05636 27.877836 283.08878 23.376751 288.65536 20.865068C294.82237 18.082469 296.2608 19.064452 295.45579 25.507549C295.03532 28.872843 295.18736 30.997764 295.87921 31.425351C297.14091 32.205122 300.57845 30.58883 303.69912 27.748523C306.37155 25.316182 309.0 26.080762 309.0 29.290476C309.0 32.968179 306.08304 40.614877 303.94044 42.553899C302.8732 43.519741 302.0 45.072738 302.0 46.005004C302.0 47.881508 311.79302 58.0 313.60917 58.0C315.43148 58.0 316.6383 55.971839 319.15051 48.687248C321.35937 42.28228 321.39525 41.815423 319.75 40.887558C318.7875 40.344742 318.0 39.47298 318.0 38.95031C318.0 37.423064 321.63669 37.857308 323.04361 39.55255C325.63085 42.66998 318.62349 59.554426 314.29119 60.641763C311.92703 61.23513 306.5832 57.217983 301.14608 50.760114C298.5931 47.727851 298.73802 44.404841 301.54568 41.597181C303.43909 39.703767 307.36317 31.029838 306.64929 30.31596C306.36449 30.031159 304.34381 30.802862 302.15889 32.030857C295.37955 35.841058 291.334 33.367162 293.18024 26.540328C294.2435 22.608749 292.89 21.388707 289.17311 22.928294C284.83557 24.724965 281.00327 29.205021 280.34757 33.245572C279.72846 37.060732 280.67678 38.091458 288.32017 41.910986C290.80695 43.153669 291.69072 44.408687 292.37503 47.669183C293.16849 51.449685 292.82403 52.754863 288.68013 61.669183C282.56556 74.822834 281.56307 79.153741 282.9107 86.594197C284.71486 96.555211 290.77701 100.07884 298.41208 95.604394C304.20961 92.206816 307.73853 92.303568 312.8413 96.0C315.11906 97.65 317.75862 99.0 318.70699 99.0C319.65536 99.0 322.58426 96.879416 325.21565 94.287592C327.84704 91.695767 330.0 90.169412 330.0 90.89569C330.0 92.892931 320.42655 102.00061 318.33231 101.99572C317.32454 101.99336 314.475 100.64529 312.0 99.0Z M309.5 88.469004C305.9644 85.570911 304.05569 85.431415 298.25399 87.647101C294.85705 88.944407 293.41645 89.055145 291.47056 88.16854C289.37923 87.215666 289.0 86.356394 289.0 82.57066C289.0 72.961697 292.49604 63.158355 297.1496 59.71816C299.79476 57.762699 299.80694 57.763276 304.4095 60.061906C309.7874 62.747759 312.48779 65.401724 311.48827 67.018984C311.00648 67.798527 309.93787 67.378865 308.14031 65.704184C303.30706 61.201347 301.09244 60.540481 298.16374 62.727076C293.86379 65.937449 289.51213 82.836528 292.27271 85.60409C292.6977 86.030156 295.1727 85.61631 297.77271 84.684432C304.0927 82.419261 305.9964 82.546239 310.0 85.5C311.86371 86.875 313.97331 88.0 314.68801 88.0C315.4027 88.0 317.28041 86.21513 318.86068 84.033623C322.14226 79.503535 323.69173 79.71695 321.35216 84.376784C319.55422 87.957826 316.19002 90.961843 314.0 90.941801C313.175 90.934251 311.15 89.821493 309.5 88.469004Z M313.25 70.337719C311.08612 69.464573 311.75519 66.787525 313.96223 67.488011C317.26993 68.537836 319.55174 66.399713 323.24003 58.794426C327.75743 49.479504 329.34862 42.175455 328.83617 33.106395C328.31158 23.8224 327.28306 23.071106 318.63169 25.652426C317.40443 26.018605 316.90746 25.777613 317.18331 24.950073C317.80135 23.095937 325.96185 20.909213 328.06422 22.034372C330.77713 23.486272 331.75986 27.857445 331.31792 36.506715C330.84391 45.783615 328.16547 54.964264 323.40521 63.628381C319.84337 70.111277 317.13057 71.903564 313.25 70.337719Z M317.5 31.0C317.83992 30.45 318.73992 30.0 319.5 30.0C320.26008 30.0 321.16008 30.45 321.5 31.0C321.85191 31.569401 320.99071 32.0 319.5 32.0C318.00929 32.0 317.14809 31.569401 317.5 31.0Z M322.0 89.674314C322.0 88.051323 326.76078 83.427446 327.58411 84.25078C328.28036 84.947022 324.00048 91.0 322.81194 91.0C322.36537 91.0 322.0 90.403441 322.0 89.674314Z"/>
</svg>
