<svg xmlns="http://www.w3.org/2000/svg"
     width="33.1" height="64.0"
     viewBox="2422.5000 12.7604 46.7278 90.2396">
  <path d="M 2426.5 83 L 2426.6875 87.46875 C 2427.0445 87.544143 2427.493 87.735634 2428.4688 88.375 C 2431.8827 90.611955 2440.2376 90.539748 2442.1875 88.25 C 2446.4485 83.246458 2446.5984 80.359514 2443.5625 60.5 C 2442.7218 55 2441.6164 47.8 2441.125 44.5 C 2439.5074 33.638622 2442.5704 23.975005 2447.875 23.1875 C 2449.6278 22.927289 2450.4581 23.786161 2452.1562 27.625 C 2454.0089 31.813369 2454.1698 33.344959 2453.4688 40.4375 C 2452.3056 52.207215 2452.711 61.87979 2454.4688 64.5625 C 2455.2928 65.820167 2457.3062 67.674155 2458.9688 68.65625 C 2461.3564 70.066727 2462 71.12439 2462 73.71875 C 2462 77.471942 2460.3949 77.947491 2456.4688 75.375 C 2453.0713 73.148897 2451.5561 74.655148 2450.1562 81.625 C 2449.537 84.708168 2448.1615 88.650864 2447.0938 90.375 C 2446.0261 92.099136 2443.863 94.251268 2442.3125 95.15625 C 2439.6015 96.73858 2439.2412 96.662754 2432.75 93.75 C 2429.5279 92.30415 2427.767 91.291842 2426.8438 90.34375 L 2427 94 L 2427.4375 95.34375 C 2427.9726 95.078312 2429.219 95.593574 2432.5 97 C 2435.0662 98.1 2438.0918 99 2439.2188 99 C 2445.0908 99 2451.5529 90.862334 2452.75 81.9375 C 2453.0679 79.567428 2453.7226 78.067976 2454.375 78.3125 C 2458.6799 79.926048 2459.8633 79.925029 2461.8438 78.28125 C 2463.0187 77.306016 2464.2597 75.073958 2464.5938 73.34375 C 2465.2278 70.058826 2465.0017 69.714744 2458.6562 64.6875 C 2456.1861 62.730505 2455.698 61.484596 2455.0625 55.46875 C 2454.6582 51.641203 2454.6928 47.146369 2455.1562 45.5 C 2456.691 40.047735 2456.0907 28.817736 2454.0312 24.28125 C 2450.617 16.760364 2445.2961 17.58868 2440.8438 26.3125 C 2439.3185 29.300869 2438.9027 32.214543 2438.875 40 C 2438.8557 45.449645 2439.1122 50.348728 2439.4375 50.875 C 2439.7628 51.401271 2440.2028 53.998959 2440.4375 56.65625 C 2440.6722 59.313542 2441.3565 65.55 2441.9375 70.5 C 2443.3635 82.648817 2443.3299 82.732511 2440.5312 85.53125 C 2437.5347 88.52772 2433.8335 88.685622 2429.4375 85.96875 C 2427.8753 85.003252 2427.0371 84.224953 2426.5 83 z "/>
</svg>
