<svg xmlns="http://www.w3.org/2000/svg"
     width="51.5" height="64.0"
     viewBox="6762.9483 42.2812 48.5517 60.3438">
  <path d="M 6786.2188 47.90625 C 6785.9778 48.758283 6785.6794 49.66327 6785.125 50.75 C 6782.034 56.808983 6780.6194 57.581977 6777.125 55.09375 C 6773.2264 52.317713 6770.408 52.444919 6768.4062 55.5 C 6767.0197 57.616096 6766.9483 58.492155 6768 61.03125 C 6769.4751 64.592344 6773.0467 65.797663 6777.3125 64.1875 C 6780.963 62.809595 6781.5133 63.12815 6784.0625 68.125 C 6785.7928 71.516804 6786.0474 73.705825 6785.8438 83 C 6785.6373 92.418137 6785.8724 94.20484 6787.4688 95.96875 C 6789.8726 98.625061 6794.9627 98.59705 6798.3438 95.9375 C 6799.4219 95.089417 6800.1679 94.69052 6801 94.53125 L 6801 94 L 6802.75 81.28125 C 6801.1541 79.577749 6798.9815 73.26138 6799 69.5625 C 6799.0213 65.290922 6799.9732 64.225932 6804 63.84375 C 6807.408 63.520302 6807.5 63.380019 6807.5 59.09375 C 6807.5 53.573112 6805.1911 51.606185 6802.0625 54.4375 C 6800.0371 56.27051 6799.9916 56.25119 6798.125 51.90625 C 6797.2688 49.913433 6796.6881 48.053841 6796.25 46.28125 L 6793.125 46.78125 C 6793.6173 48.969336 6794.3111 51.17839 6795.3438 53.28125 C 6798.0525 58.797435 6798.1115 59.269233 6796.875 64.09375 C 6795.7355 68.539662 6795.8107 69.87866 6797.4375 75.3125 C 6800.1773 84.463947 6800.0606 90.716672 6797.125 93.09375 C 6794.5156 95.206707 6790.9792 95.572934 6789.3125 93.90625 C 6788.5984 93.192141 6788.4059 89.304566 6788.75 82.5625 C 6789.2625 72.520472 6789.2085 72.129385 6786.0938 66 L 6782.9062 59.75 L 6785.5625 55.71875 C 6787.8251 52.299804 6788.9263 49.693221 6789.1875 47.40625 L 6786.2188 47.90625 z M 6773.5625 56 C 6775.16 56 6778.1319 59.982078 6777.4062 61.15625 C 6776.4686 62.673454 6771.2466 62.076678 6770.5938 60.375 C 6769.883 58.522697 6771.5913 56 6773.5625 56 z M 6804.7188 56.34375 C 6804.8999 56.408854 6805 56.575012 6805 56.84375 C 6805 57.381226 6805.2599 58.536266 6805.5938 59.40625 C 6805.992 60.444233 6805.6483 61 6804.5938 61 C 6802.828 61 6802.3702 57.507272 6804 56.5 C 6804.275 56.330041 6804.5374 56.278646 6804.7188 56.34375 z "/>
</svg>
