<svg xmlns="http://www.w3.org/2000/svg"
     width="42.9" height="64.0"
     viewBox="4168.4804 18.4469 58.0813 86.5531">
  <path d="M4213.1497 93.64866C4212.051 86.261479 4209.0574 77.771517 4207.1315 76.581302C4206.126 75.959822 4205.5672 77.53495 4202.9034 88.5C4201.0828 95.994029 4199.1739 99.3892 4197.5423 98.035134C4196.8091 97.426619 4195.9174 95.257276 4195.5606 93.214371C4193.921 83.824538 4191.6261 75.957981 4190.6237 76.292092C4190.025 76.49168 4187.8578 81.079464 4185.8079 86.487169C4181.5467 97.727925 4180.7083 98.931766 4178.2225 97.379368C4173.2828 94.294562 4172.4804 83.532081 4176.5853 75.419011C4178.0072 72.608679 4180.2813 69.016611 4181.639 67.436638C4184.4253 64.193964 4184.2184 61.519841 4180.8109 56.7345C4177.9187 52.672673 4176.9337 47.84472 4176.939 37.754912C4176.9437 28.810062 4178.8406 22.446881 4181.262 23.253995C4182.55 23.683335 4184.7559 29.057859 4188.0223 39.724941C4191.1084 49.803312 4192.4094 50.543388 4194.4856 43.401664C4196.2612 37.293597 4196.7063 34.596551 4196.886 28.856989C4196.997 25.310983 4199.6907 22.556662 4200.3971 25.266859C4200.5739 25.945086 4201.7589 31.0 4203.0304 36.5C4204.3018 42.0 4205.5583 46.904843 4205.8226 47.399651C4206.6446 48.939041 4209.9891 41.296779 4211.9801 33.329402C4214.326 23.941945 4215.4258 22.606682 4218.0171 26.0C4222.5617 31.951321 4221.9367 44.631166 4216.6446 53.846066C4214.64 57.336403 4213.0 60.551313 4213.0 60.990311C4213.0 61.429309 4214.3237 63.205544 4215.9416 64.9375C4219.1843 68.408785 4222.0081 76.686606 4221.9853 82.653907C4221.9593 89.435937 4217.5557 101.0 4214.9991 101.0C4214.5833 101.0 4213.7511 97.691897 4213.1497 93.64866Z M4182.3524 88.41701C4183.7815 84.623479 4188.4226 74.50182 4191.7144 68.0C4191.8536 67.725 4191.5947 66.911463 4191.139 66.192141C4189.8237 64.115905 4184.0456 68.130355 4180.2259 73.774318C4176.5464 79.210896 4175.1295 86.72453 4176.915 91.331282C4178.4129 95.196148 4180.149 94.265628 4182.3524 88.41701Z M4191.9646 57.065724C4191.9841 56.276873 4191.0239 53.615087 4189.8309 51.150645C4188.6379 48.686204 4186.2754 42.581628 4184.5809 37.584921C4182.8864 32.588214 4181.05 28.619367 4180.5 28.765261C4179.9226 28.918433 4179.5095 32.932727 4179.5225 38.265261C4179.5425 46.456243 4179.8793 48.175863 4182.5023 53.479763C4184.1288 56.768633 4186.3191 60.319101 4187.3697 61.369692C4189.2499 63.249913 4189.3006 63.242392 4190.6045 60.889929C4191.333 59.575468 4191.9451 57.854576 4191.9646 57.065724Z M4203.961 66.811439C4206.3367 64.261429 4206.3364 64.263558 4204.9022 60.149223C4203.9812 57.507385 4203.2921 57.0 4200.6247 57.0C4192.6318 57.0 4189.9664 65.068572 4197.0282 67.8868C4200.7292 69.363767 4201.7274 69.208925 4203.961 66.811439Z M4199.9613 90.601914C4201.2165 87.300366 4202.3685 80.294113 4202.4402 75.525048C4202.4985 71.651949 4202.3975 71.532997 4198.5 70.882756C4196.3 70.515719 4194.235 70.373699 4193.9111 70.567156C4193.5872 70.760612 4193.9559 73.749644 4194.7303 77.209447C4197.5021 89.592441 4197.9135 91.510207 4197.9564 92.25C4198.0451 93.776412 4199.0768 92.928303 4199.9613 90.601914Z M4201.8637 53.404234C4202.9144 53.073898 4203.0675 51.69582 4202.5307 47.399137C4201.6847 40.628348 4199.4245 33.857782 4198.7254 36.0C4197.3109 40.333991 4196.0162 46.023731 4195.4747 50.285777L4194.8667 55.071554L4197.6834 54.452254C4199.2325 54.111639 4201.1137 53.64003 4201.8637 53.404234Z M4211.1758 58.25C4216.4775 52.005583 4220.3761 41.538661 4219.0147 37.204239C4218.5476 35.716907 4217.8812 33.209401 4217.534 31.632001C4217.1868 30.054602 4216.6289 29.037814 4216.2942 29.372472C4215.6591 30.007548 4208.2916 50.844493 4207.3271 54.733322C4206.7054 57.240068 4207.4844 60.0 4208.8136 60.0C4209.2956 60.0 4210.3586 59.2125 4211.1758 58.25Z M4218.392 81.674734C4218.2757 72.810375 4216.7095 68.310773 4212.7832 65.560704C4209.6101 63.33815 4208.1334 63.620321 4207.3876 66.591729C4206.916 68.47067 4207.7144 71.152154 4210.2905 76.341729C4212.2448 80.278778 4214.3617 85.469742 4214.9947 87.877204C4216.8006 94.745662 4218.5224 91.60232 4218.392 81.674734Z"/>
</svg>
