<svg xmlns="http://www.w3.org/2000/svg"
     width="31.3" height="64.0"
     viewBox="5302.8750 10.8125 43.6959 89.3137">
  <path d="M 5318.5312 14.8125 L 5315.2188 18.65625 C 5313.3846 20.772855 5310.7492 24.152434 5309.375 26.15625 L 5306.875 29.78125 L 5310.9688 37.8125 C 5316.8229 49.302059 5317.155 54.703516 5313.0312 71.40625 C 5309.5003 85.708654 5309.5813 89.172951 5313.5625 93.46875 C 5315.8333 95.918932 5316.5394 96.126176 5320.7812 95.5625 C 5323.3593 95.219932 5325.3176 95.041907 5327.5625 95 L 5327.5 94 L 5330.3125 89.03125 C 5330.3886 88.718184 5330.5391 88.449169 5330.7812 88.1875 L 5333.3438 83.6875 C 5332.6114 82.671238 5332.4251 80.186701 5332.3125 73.1875 C 5332.1953 65.904691 5331.456 59.815185 5329.9688 54.09375 C 5328.4341 48.190211 5327.8982 43.761765 5328.1875 39.21875 C 5328.6532 31.904615 5330.2069 30 5335.625 30 C 5337.4056 30 5339.5732 29.301786 5340.4375 28.4375 C 5342.5709 26.304122 5342.3957 21.680013 5340.125 19.625 C 5337.8033 17.523887 5334.2085 18.676402 5331.25 22.4375 C 5330.1361 23.853574 5328.9676 25 5328.6562 25 C 5328.3448 25 5325.9354 22.710355 5323.3125 19.90625 L 5318.5312 14.8125 z M 5318.1562 20.15625 C 5318.6779 19.961993 5320.9028 21.761993 5323.0938 24.15625 C 5326.6996 28.096651 5326.9998 28.831889 5326.3125 32 C 5324.8975 38.522152 5325.5042 51.195538 5327.4688 56.3125 C 5328.8273 59.850913 5329.3426 63.997628 5329.4062 71.875 C 5329.482 81.244426 5329.2068 83.279408 5327.0938 87.8125 C 5324.7167 92.911646 5324.5817 93 5320.2812 93 C 5316.1726 93 5315.7993 92.764802 5314.3438 89.28125 C 5313.0346 86.148016 5312.9703 84.463927 5313.9375 78.46875 C 5314.5679 74.560504 5315.7302 69.192867 5316.5312 66.53125 C 5319.4722 56.759269 5317.8944 44.248261 5312.5 34.8125 C 5311.1413 32.435962 5310.0067 30.204212 5310 29.84375 C 5309.9831 28.92331 5317.004 20.585229 5318.1562 20.15625 z M 5337.1562 22 C 5339.2681 22 5340.7609 24.680805 5339.375 25.96875 C 5337.3828 27.820081 5333.9853 28.152964 5333.375 26.5625 C 5332.5954 24.530945 5334.6955 22 5337.1562 22 z "/>
</svg>
