<svg xmlns="http://www.w3.org/2000/svg"
     width="42.9" height="64.0"
     viewBox="212.6875 17.3532 59.0059 88.1150">
  <path d="M 216.6875 95.1875 C 217.45236 95.129501 218.05274 95.271764 218.40625 95.84375 C 219.44264 97.520657 233.30256 101.21062 239.09375 101.34375 C 244.51008 101.46826 245.26714 101.20064 248.25 98.21875 C 251.45605 95.01376 251.48828 94.802106 251.71875 84.71875 C 252.11617 67.331092 253.25235 64.551493 258.53125 68.03125 C 262.28097 70.502993 264.65535 70.516604 265.96875 68.0625 C 267.69345 64.839868 267.17019 63.236636 263.125 59.28125 C 257.18305 53.471213 256.986 52.700371 259.09375 42.5 C 261.98624 28.501923 261.40425 22.686885 257 21.875 C 254.1695 21.353221 250.49179 23.06017 248.21875 25.96875 C 246.18043 28.576979 245.24677 30.90208 241.875 41.5 C 240.40335 46.125606 239.78304 60.619675 240.6875 69.5 C 241.59038 78.364817 241.09749 85.492732 239.375 88.40625 C 238.46263 89.949484 237.21874 90.275423 232.96875 90.125 C 230.07147 90.022454 226.25294 89.252903 224.46875 88.40625 C 223.29841 87.850887 222.59869 87.347749 222.0625 86.6875 L 219.96875 90.03125 C 220.75596 88.78542 221.17891 88.851933 223 90.5 C 224.53939 91.893129 226.99742 92.544612 231.8125 92.8125 C 237.88783 93.150502 238.72037 92.958971 240.84375 90.6875 C 244.55896 86.713181 245.03794 82.029865 243.40625 66.53125 C 242.59531 58.828605 242.20486 51.191413 242.53125 49.53125 C 245.67328 33.549989 248.33197 27.087607 252.5625 25.15625 C 256.57146 23.326046 258.14932 25.475287 257.875 32.34375 C 257.73962 35.733245 257.03907 40.481338 256.3125 42.90625 C 255.58593 45.331162 255 49.051172 255 51.1875 C 255 54.556502 255.66215 55.684266 259.90625 59.59375 C 263.44303 62.851682 264.64973 64.653428 264.28125 66.0625 C 263.64194 68.507219 263.40771 68.494588 258.34375 65.8125 C 255.06495 64.075906 253.87754 63.845478 252.75 64.78125 C 250.63649 66.535308 248.59613 78.893001 249.40625 85 C 250.19246 90.926726 248.74992 96.499764 246.1875 97.5 C 241.21368 99.441524 233.75775 98.672055 224.5625 95.28125 C 219.32304 93.349168 218.49433 92.364631 219.96875 90.03125 L 216.6875 95.1875 z "/>
</svg>
