<svg xmlns="http://www.w3.org/2000/svg"
     width="29.0" height="64.0"
     viewBox="5460.1091 13.4926 40.9884 90.3291">
  <path d="M 5495.875,87.4375 C 5494.8159,86.931534 5493.7033,86.359782 5492.2188,85.46875 5487.7418,82.781738 5487.2657,80.099987 5490.4062,75.125 5493.6182,70.036935 5493.6425,68.405827 5490.5,63.78125 5489.125,61.757756 5488,59.678442 5488,59.15625 5488,58.634058 5489.3457,54.888238 5491,50.84375 5496.7392,36.812162 5497.0975,26.995237 5492.0625,20.84375 L 5490.125,18.5 5485.6875,22.84375 C 5480.4902,27.915567 5478.6574,27.842297 5474.125,22.34375 5470.1263,17.49264 5467.8659,18.100438 5466.1875,24.5 5464.1091,32.424622 5465.3243,43.853529 5469.0938,52.03125 L 5472.2188,58.8125 5469.5938,62.625 C 5466.3101,67.457381 5466.351,68.78078 5469.8125,73.59375 5471.3552,75.738771 5472.9108,78.00923 5473.2812,78.625 5473.6516,79.24077 5472.832,81.04077 5471.4688,82.625 5468.0334,86.617005 5465.6905,94.013654 5466.875,97.09375 5467.9063,99.775291 5468.0123,99.585884 5469.9062,91.5 5470.7064,88.083371 5471.9987,85.708314 5474.0312,84 5475.6672,82.625 5477.005,80.884313 5477,80.125 5476.9951,79.365686 5475.425,76.55446 5473.5,73.875 5469.4858,68.287547 5469.2997,67.139259 5471.875,64.375 5475.8388,60.120358 5475.9395,58.856099 5472.9375,52.6875 5469.1366,44.877035 5468.1268,41.562893 5467.4688,34.625 5466.9881,29.558014 5468.2712,22 5469.5938,22 5469.8274,22 5471.6374,23.8 5473.625,26 5478.0397,30.88663 5480.6866,31.073855 5485.4688,26.875 5489.6952,23.164192 5491.4122,23.947601 5492.375,29.96875 5493.1895,35.062499 5488.3692,55.047673 5485.9688,56.53125 5484.375,57.516295 5484.8491,59.800633 5487.5,64 5488.875,66.178141 5490,68.439472 5490,69.03125 5490,69.623027 5488.6808,72.769638 5487.0625,76.03125 5483.7302,82.74748 5483.6575,82.606208 5491.4062,87.9375 5493.326,89.258336 5494.8072,90.1277 5496.0938,90.71875 L 5495.875,87.4375 z M 5496.4062,95.46875 C 5492.4467,94.832994 5488.6607,93.259349 5486.4062,90.90625 5484.8813,89.314559 5482.7493,88 5481.6875,88 5479.3491,88 5472,95.112088 5472,97.375 5472,99.821693 5473.2393,99.35449 5476.875,95.5 5480.6214,91.528085 5482.1668,91.215426 5484.7188,93.875 5487.5624,96.838543 5491.1208,98.38338 5496.5,99 5496.5557,99.006387 5496.6008,98.993934 5496.6562,99 L 5496.4062,95.46875 z"/>
</svg>
