<svg xmlns="http://www.w3.org/2000/svg"
     width="42.3" height="64.0"
     viewBox="4113.5000 20.0000 55.9648 84.6852">
  <path d="M 4123.3125 84.6875 L 4120.9688 88.875 C 4121.8798 88.491377 4123.0269 88.707628 4125.8438 89.5625 C 4131.9522 91.41635 4138.0187 91.381809 4140.75 89.46875 C 4142.0782 88.538407 4143.7402 85.321321 4144.9688 81.34375 C 4146.6987 75.742682 4146.9952 72.053918 4147 56.15625 C 4147.0056 37.270379 4147.7861 31.338898 4150.6562 28.46875 C 4153.5256 25.599361 4156.2663 27.051597 4158.3125 32.5 C 4160.703 38.865026 4160.1173 52.629853 4157.0625 61.40625 C 4153.773 70.857052 4154.7474 78.297633 4159.6875 81.3125 C 4160.4082 81.75233 4161 82.750706 4161 83.5625 C 4161 84.852592 4160.6412 84.864774 4158.0625 83.53125 C 4153.4533 81.147786 4152.2598 81.617778 4148.375 87.46875 C 4145.9163 91.171695 4143.4022 93.594106 4140.5625 94.96875 C 4137.9635 96.226892 4134.4949 96.955168 4131.4375 96.90625 C 4125.7975 96.816011 4124.5765 96.47397 4120.6875 93.75 C 4119.6826 93.046129 4119.3425 92.687555 4119.0312 92.28125 L 4117.5 95 L 4117.5938 96.21875 C 4118.5625 96.320198 4119.5808 96.709152 4120.8438 97.59375 C 4122.104 98.476433 4124.3378 99.597483 4125.8125 100.0625 C 4127.2871 100.52752 4129.7937 100.6852 4131.375 100.4375 C 4132.9562 100.1898 4135.2568 100 4136.4688 100 C 4139.63 100 4147.0072 94.797994 4150.5 90.125 C 4153.3387 86.327105 4153.7581 86.135693 4158.4688 86.3125 C 4164.8409 86.551662 4165.4648 84.541732 4160.9688 78.28125 C 4157.9545 74.084046 4157.7834 73.437658 4158.4062 68.15625 C 4159.56 58.372323 4159.778 57.310337 4161.0312 54.96875 C 4162.5376 52.15417 4162.5751 38.813954 4161.0938 33.3125 C 4159.7665 28.383687 4156.4857 24 4154.125 24 C 4150.9039 24 4146.8673 29.448705 4145.25 36 C 4145.0463 36.825 4144.9057 45.15 4144.9375 54.5 C 4144.9807 67.222697 4144.5868 73.135439 4143.3438 78 C 4140.6603 88.501499 4138.8842 89.477763 4127.9375 86.40625 C 4125.5033 85.723264 4124.1741 85.274405 4123.3125 84.6875 z "/>
</svg>
