<svg xmlns="http://www.w3.org/2000/svg"
     width="30.4" height="64.0"
     viewBox="3344.0000 10.9167 43.4264 91.5614">
  <path d="M3348.0 58.632123C3348.0 58.338125 3348.675 55.50608 3349.5 52.338691C3350.325 49.171302 3351.0 43.666423 3351.0 40.105626C3351.0 24.766046 3362.8054 14.916682 3371.9592 22.619116C3376.7163 26.621956 3378.2714 30.578752 3379.0477 40.654619C3379.4975 46.493126 3380.3411 50.648854 3381.3765 52.127125C3383.3987 55.014176 3383.4264 56.0 3381.4853 56.0C3378.4988 56.0 3376.0077 49.964031 3376.0037 42.717881C3375.9997 35.414722 3374.2627 29.988714 3370.7023 26.157548C3365.674 20.746862 3360.8047 21.343806 3356.7744 27.86504C3355.0867 30.59582 3354.4631 33.690029 3353.9094 42.081349C3353.2139 52.619418 3351.7237 57.953704 3349.25 58.759491C3348.5625 58.983438 3348.0 58.926122 3348.0 58.632123Z M3362.2541 97.357588C3359.5134 96.210359 3357.7587 86.245107 3358.4661 75.844226C3359.497 60.686456 3357.8619 56.962802 3352.4199 62.075205C3349.0078 65.280706 3348.7439 62.802437 3352.1135 59.19706C3355.5852 55.482301 3357.0105 55.249081 3359.4908 57.989869C3361.8175 60.56082 3362.4924 67.92368 3361.0932 75.470845C3359.2484 85.421399 3362.2626 96.264422 3366.429 94.66562C3370.8913 92.953272 3372.4062 85.626491 3370.4316 75.306507C3368.7633 66.587041 3369.4126 60.794432 3372.4546 57.257844C3374.9785 54.323704 3379.0 54.821094 3379.0 58.067388C3379.0 60.147102 3377.527 60.661793 3376.47 58.951442C3376.0295 58.238719 3375.3548 58.290591 3374.3634 59.113396C3373.1798 60.095649 3372.9609 63.101578 3373.2024 75.054453L3373.5 89.784996L3370.3979 93.642498C3367.4237 97.34083 3364.9309 98.478048 3362.2541 97.357588Z"/>
</svg>
