<svg xmlns="http://www.w3.org/2000/svg"
     width="60.1" height="64.0"
     viewBox="746.1477 18.0000 84.0867 89.5474">
  <path d="M 817.6803,96.806427 C 818.91915,95.432927 819.56619,95.336644 821.10392,96.296973 823.86874,98.023631 823.4422,98.659742 819.57638,98.575026 816.42618,98.505992 816.27475,98.364749 817.6803,96.806427 z M 802.5,30.486305 C 802.5,26.959966 799.67299,26.007764 796.49274,28.462925 794.51877,29.986844 794.52272,30.020558 796.91265,32.042667 800.22459,34.844878 802.5,34.211059 802.5,30.486305 z M 775.93011,34.12683 C 779.29291,31.06136 781.00626,30.257113 780.99368,31.75 780.9902,32.1625 779.5277,33.389075 777.74368,34.475722 772.65313,37.57637 772.23436,37.495809 775.93011,34.12683 z M 821.10382,91.902974 817.80961,87.5 818.44477,76.263646 819.07992,65.027292 814.78996,60.74732 C 812.43048,58.393336 808.7796,55.158692 806.67689,53.559223 803.18977,50.90667 802.56835,50.75431 799.60589,51.825548 791.90338,54.610813 790.55511,52.744147 791.13909,40.103312 791.42377,33.94103 791.18751,32.93462 788.68641,29.655509 783.93899,23.431326 782.65975,23.261596 776.35764,28.019732 773.32678,30.308054 770.68088,32.014214 770.47787,31.811199 769.25862,30.591954 779.78055,22 782.49291,22 783.66601,22 785.9192,23.35 787.5,25 790.65538,28.293508 793.57661,28.787471 796.55887,26.531803 800.38415,23.638505 803.94822,24.858644 805.3823,29.552457 806.49161,33.183265 803.74361,35.5 798.32761,35.5 L 793.5,35.5 793.5,43 C 793.5,51.333369 793.29386,51.16933 801.61168,49.454949 804.33013,48.894653 805.40432,49.41759 810.11168,53.592927 813.07526,56.221555 816.77782,59.975995 818.3396,61.936126 821.04204,65.327858 821.14206,65.813962 820.41033,72 819.26124,81.714375 819.77899,86.048815 822.59861,90.319485 826.23432,95.826234 825.0097,97.123517 821.10382,91.902974 z M 793.72546,100.05815 C 793.44616,98.990132 793.66649,96.01185 794.21506,93.439744 795.14032,89.101522 795.00584,88.470005 792.35624,84.710717 790.78531,82.481858 788.93462,80.47168 788.24359,80.243654 786.34971,79.618706 781.86457,89.878439 783.05735,92.107165 785.11936,95.960054 783.55955,101 780.30512,101 779.59294,101 778.05569,98.969263 776.889,96.487251 775.72232,94.005239 774.37001,91.728682 773.88388,91.428234 772.04118,90.289381 773.12173,85.180192 776.33322,79.84698 781.45691,71.338259 781.45873,71.312427 777.3572,65.357186 775.3279,62.410734 773.17986,60.000805 772.58378,60.001788 771.9877,60.002772 770.24293,61.993398 768.7065,64.425401 766.56783,67.810695 765.65014,70.982194 764.79162,77.954958 763.72155,86.64586 763.76931,87.196701 765.83512,89.990852 768.54826,93.660575 768.69252,95.449436 766.14713,93.859812 765.12805,93.223388 763.76014,91.225581 763.10732,89.42024 761.54413,85.097311 763.22068,71.241318 766.00216,65.495533 768.42102,60.498841 772.41056,56.51767 774.00895,57.505533 776.04092,58.761355 782,68.825661 782,71.001623 782,73.347587 779.67272,78.273942 776.8586,81.884859 774.63949,84.732308 774.43386,89.285254 776.44885,90.957547 777.24571,91.618888 778.40561,93.698988 779.0264,95.579992 780.43363,99.843953 783.59484,100.44587 782.54523,96.25 780.6725,88.763693 780.83651,87.605097 784.59785,81.75 786.62945,78.5875 788.56354,76.017157 788.89583,76.038126 790.16132,76.117984 797,87.221506 797,89.196341 797,90.335732 796.47444,93.022113 795.8321,95.166077 793.89372,101.6358 796.09118,101.83688 800.3978,95.583859 L 804.1556,90.127709 799.5778,81.379136 C 796.7887,76.048927 795,71.319603 795,69.275443 795,64.8284 798.53342,57.975377 800.77032,58.083964 801.72165,58.130145 805.24708,61.244443 808.60463,65.004627 L 814.70925,71.841325 815.24835,83.170662 C 815.66827,91.995288 815.46303,95.128521 814.31999,97.34293 812.44791,100.96972 811.43277,100.06592 812.84103,96.026176 813.4963,94.146469 813.68929,88.973751 813.33729,82.725129 L 812.76128,72.5 806.69274,66.283503 C 799.90632,59.331633 799.00277,59.346821 797.01507,66.446178 795.67139,71.245341 795.37253,70.264138 801.85959,82.351546 803.58682,85.569896 805,88.839319 805,89.61693 805,90.394541 803.36129,93.498846 801.35842,96.515384 797.60321,102.17114 794.63793,103.54745 793.72546,100.05815 z M 756.15812,96 C 758.7484,92.496454 758.33731,92.605951 761.92848,94.463015 764.29173,95.685098 767.52725,99.910364 765.25068,98.801473 764.83781,98.600367 763.26433,97.816366 761.75406,97.059249 759.35007,95.854094 758.77989,95.889222 757.17532,97.341336 754.26838,99.972083 753.73826,99.273038 756.15812,96 z M 751.88752,94.619728 C 755.02538,91.279635 756.93933,84.164282 757.86646,72.392332 758.63114,62.682908 758.80951,62.1088 762.39355,57.821139 768.2074,50.865909 771.03314,49.568572 777.16466,51.0395 783.0267,52.445782 783.55813,52.035609 784.57372,45.320999 785.42557,39.688948 784.64147,38.715829 779.89737,39.517338 775.67676,40.230407 774.57259,38.834296 777.93426,37.035184 780.85352,35.472843 783.49506,35.784561 785.42704,37.919382 786.84385,39.484936 787.03646,40.86006 786.47186,45.378915 785.41518,53.836329 784.41745,54.710183 777.47941,53.254913 770.57877,51.807488 769.5611,52.253016 764.09942,59.112606 760.50462,63.627482 759.99998,64.891427 759.99983,69.380628 759.99964,75.153402 757.5324,89.136684 756.01317,91.975397 754.63055,94.558832 752.07555,97 750.75426,97 750.14767,97 750.65764,95.928878 751.88752,94.619728 z"/>
</svg>
