<svg xmlns="http://www.w3.org/2000/svg"
     width="24.6" height="64.0"
     viewBox="6527.7403 16.5419 32.2597 83.8597">
  <path d="M6541.3929 93.92035C6539.8018 92.871406 6537.7125 92.010213 6536.75 92.006589C6535.7875 92.002965 6535.0 91.55 6535.0 91.0C6535.0 90.45 6535.4586 90.0 6536.0191 90.0C6537.2146 90.0 6536.4012 85.828955 6534.3782 81.585002C6533.204 79.121705 6533.2 78.424397 6534.3527 77.085002C6535.103 76.213251 6536.2385 73.947371 6536.8762 72.049714C6537.8434 69.171462 6537.784 68.458602 6536.5178 67.750024C6534.3206 66.520392 6534.6556 65.0 6537.1238 65.0C6539.0926 65.0 6539.2136 64.589176 6538.781 59.372866C6538.4193 55.010977 6537.7997 53.357543 6536.0256 52.019278C6534.2189 50.656481 6533.9504 49.911084 6534.751 48.480516C6536.0933 46.081964 6535.1401 38.962546 6533.1747 36.70707C6531.7403 35.061045 6531.7844 34.869149 6533.7121 34.365027C6536.1427 33.72941 6537.8463 27.446318 6536.0697 25.669748C6534.3924 23.992449 6534.815 22.806511 6536.8588 23.45519C6537.9319 23.795773 6539.2518 23.40155 6539.9813 22.522578C6541.6251 20.541854 6545.4005 20.57267 6547.0667 22.580413C6547.8317 23.502136 6549.3415 23.976715 6550.6892 23.719085C6553.4815 23.185306 6553.7317 24.538056 6551.101 25.94592C6549.5397 26.781516 6549.3385 27.566882 6549.9691 30.363157C6551.0025 34.945105 6551.7679 36.0 6554.059 36.0C6555.1266 36.0 6556.0 36.45 6556.0 37.0C6556.0 37.55 6555.1324 38.0 6554.072 38.0C6552.4767 38.0 6552.021 38.983873 6551.4316 43.700854C6550.7892 48.842839 6550.9292 49.541023 6552.8597 50.822826C6555.7051 52.712098 6555.567 54.0 6552.5191 54.0C6550.6253 54.0 6549.8955 54.650885 6549.4355 56.75C6549.1041 58.2625 6548.6304 60.138868 6548.3827 60.919706C6547.5649 63.498748 6550.3027 73.172074 6552.1828 74.34622C6554.532 75.813326 6554.4806 76.64106 6552.0 77.289749C6549.3891 77.972522 6549.4552 80.414575 6552.1528 82.927709L6554.3056 84.933328L6551.8398 85.870814C6550.1712 86.505201 6548.9873 88.099075 6548.1779 90.800668C6546.7144 95.685327 6545.1567 96.401568 6541.3929 93.92035Z M6545.925 89.75C6548.0122 86.410068 6548.4315 74.417621 6546.6604 68.714273C6545.2977 64.326069 6545.3411 63.121637 6547.1835 54.214273C6550.4386 38.476501 6548.1066 24.088863 6542.2887 24.015313C6540.4549 23.992129 6538.0 33.554594 6538.0 40.721339C6538.0 45.106235 6538.6207 48.29643 6540.0 51.0C6542.5531 56.004545 6542.5531 62.638455 6540.0 71.0C6537.3298 79.74491 6537.4536 83.731593 6540.5361 88.267865C6543.4942 92.621217 6544.0373 92.77059 6545.925 89.75Z"/>
</svg>
