<svg xmlns="http://www.w3.org/2000/svg"
     width="30.4" height="64.0"
     viewBox="3576.0061 12.3396 43.2492 91.1599">
  <path d="M3596.0785 97.25C3591.366 93.401715 3589.7823 78.865512 3592.518 64.568968C3593.7145 58.315789 3593.7927 55.882901 3592.8875 53.068968C3591.2507 47.980867 3590.186 46.9917 3586.6371 47.261505C3583.5194 47.498522 3583.5015 47.47212 3583.7378 43.0C3583.8826 40.261232 3583.1976 36.666212 3581.9878 33.814619C3580.8945 31.237659 3580.0061 27.862659 3580.0137 26.314619C3580.0528 18.246908 3583.6516 16.339611 3586.2679 23.0C3588.1153 27.703097 3589.4201 28.022048 3591.3719 24.247639C3592.1548 22.733841 3593.7859 20.598753 3594.9967 19.502999L3597.1981 17.51072L3599.5762 20.49316C3600.8842 22.133502 3602.4692 24.71859 3603.0985 26.2378C3604.6796 30.054844 3606.5356 29.695967 3609.5 25.0C3612.4159 20.380858 3613.7096 19.99475 3614.5849 23.482343C3615.2553 26.153231 3613.3625 35.712125 3611.7639 37.72911C3611.1267 38.533089 3611.172 40.054716 3611.8949 42.128333C3613.7854 47.551544 3613.4508 48.169136 3608.8122 47.817481C3604.6639 47.502995 3604.616 47.537734 3603.7373 51.5C3603.1698 54.058827 3603.2619 57.841907 3603.993 62.0C3605.7818 72.17363 3606.6159 85.136503 3605.7969 90.033046C3605.3088 92.951012 3604.1548 95.280224 3602.4691 96.75C3599.3631 99.458047 3598.8333 99.499504 3596.0785 97.25Z M3587.2795 32.75C3587.8358 31.191263 3585.2939 26.0 3583.9743 26.0C3582.6913 26.0 3582.7276 29.622543 3584.0352 32.065741C3585.2195 34.2787 3586.6279 34.575734 3587.2795 32.75Z M3602.8605 91.970416C3604.0275 88.622679 3602.7495 69.497029 3600.8997 62.627496C3599.6719 58.067693 3600.5739 49.471347 3602.6182 46.25C3603.4036 45.0125 3604.9357 44.0 3606.0231 44.0C3607.1104 44.0 3608.0 43.797519 3608.0 43.550043C3608.0 43.302567 3605.7254 38.549315 3602.9453 32.987262C3597.403 21.899209 3596.0351 21.063459 3592.7199 26.739965C3590.9325 29.800363 3586.0 42.475488 3586.0 44.008128C3586.0 44.401118 3587.0525 44.521455 3588.3389 44.275543C3590.0512 43.948219 3591.3801 44.663052 3593.2991 46.943651C3596.8691 51.186336 3597.3687 55.087022 3595.5479 64.5C3592.4367 80.583105 3594.3099 95.0 3599.5108 95.0C3601.1651 95.0 3602.0987 94.155626 3602.8605 91.970416Z M3610.3873 33.592901C3610.7196 32.268996 3611.2665 30.468996 3611.6027 29.592901C3612.5794 27.047765 3610.3918 27.753164 3608.539 30.580788C3606.8765 33.118044 3607.0474 36.0 3608.8602 36.0C3609.3678 36.0 3610.055 34.916805 3610.3873 33.592901Z"/>
</svg>
