<svg xmlns="http://www.w3.org/2000/svg"
     width="49.3" height="64.0"
     viewBox="1942.7290 18.0000 68.2524 88.5192">
  <path d="M 1993.5,36.713537 C 1992.4,36.070671 1990.4732,34.952365 1989.2181,34.228413 1987.9631,33.50446 1987.1845,32.510529 1987.4878,32.019676 1988.2814,30.735729 1998,35.001112 1998,36.633325 1998,38.274958 1996.2258,38.306582 1993.5,36.713537 z M 1968.5714,56.960154 C 1963.7949,54.576916 1962.6381,54.535813 1959.4336,56.635489 1957.4703,57.921846 1956.0414,58.08195 1952.74,57.385489 1947.9494,56.374908 1947.886,54.355972 1952.6582,54.781823 1954.4164,54.938721 1957.5758,54.146564 1959.7855,52.994765 L 1963.7548,50.925883 1968.6274,53.522165 C 1974.4421,56.620412 1974.4006,56.703004 1973.1866,44.443284 1972.6996,39.524478 1972.6709,34.490953 1973.1229,33.257673 1974.6179,29.178363 1982.0493,22 1984.7774,22 1988.0648,22 1998,27.04098 1998,28.708909 1998,30.492512 1997.6425,30.40881 1990.306,26.907404 L 1983.826,23.814808 1981.3506,26.140346 C 1979.9891,27.419392 1977.9807,29.913171 1976.8875,31.682078 1975.0175,34.707787 1974.9697,35.519572 1976.0802,45.388438 1976.7294,51.15803 1976.9911,56.580918 1976.6617,57.439302 1975.8704,59.501408 1973.3676,59.353179 1968.5714,56.960154 z M 1987.5109,100.03434 C 1987.1678,98.953235 1987.3599,96.365735 1987.9379,94.284345 1989.5703,88.406061 1989.2926,87.428786 1984.7655,83.121216 L 1980.5309,79.092052 1978.2826,81.204194 C 1975.1671,84.131103 1974.5999,86.590671 1976.4359,89.21201 1978.51,92.173097 1978.4119,95.269802 1976.1558,98.055975 1973.8799,100.86653 1971.5062,100.15302 1970.5575,96.373218 1970.1726,94.839648 1968.3147,91.877008 1966.4289,89.789574 1964.543,87.702139 1963,85.486778 1963,84.866549 1963,84.24632 1964.575,81.546575 1966.5,78.867115 1973.3668,69.30899 1969.1293,61.122199 1959.1032,64.576495 1955.4925,65.820459 1954.4992,65.81758 1951.4759,64.554394 1946.729,62.570994 1947.1138,61.992532 1952.75,62.63935 1955.9479,63.006344 1958.4224,62.698801 1960.3227,61.698174 1964.2001,59.656611 1967.9778,60.868461 1970.83,65.068728 1973.8126,69.461203 1973.1529,74.756599 1968.9639,80.045535 1967.3338,82.103785 1966,84.097318 1966,84.475607 1966,84.853897 1967.5054,87.03914 1969.3453,89.331703 1971.1852,91.624266 1973.0709,94.4 1973.5357,95.5 1974.3061,97.323264 1974.4135,97.262086 1974.7512,94.807693 1974.955,93.326925 1974.382,90.986458 1973.4779,89.606657 1972.4747,88.075548 1972.0957,86.273865 1972.5053,84.983258 1973.3729,82.249763 1978.8568,76 1980.3878,76 1981.0371,76 1983.9835,78.445545 1986.9354,81.434545 L 1992.3024,86.86909 1991.1512,92.601231 C 1990.5181,95.753908 1990.1671,98.500473 1990.3714,98.704708 1990.9805,99.313805 1997,89.450128 1997,87.842956 1997,87.027884 1994.525,83.743681 1991.5,80.544728 1988.2874,77.147436 1986,73.820078 1986,72.544333 1986,71.343069 1987.3265,68.874478 1988.9477,67.058575 1992.7356,62.815849 1995.9208,63.412072 1999.661,69.063971 2002.7147,73.678449 2003.9623,72.937987 2003.9809,66.5 2003.9942,61.921187 2001.0873,56.479885 1998.1259,55.539949 1996.9229,55.158151 1994.4239,55.76343 1991.9117,57.04504 1984.4302,60.861823 1981.3018,57.433368 1982.2152,46.418623 1982.8519,38.741137 1983.6475,38.250359 1991,41 1997.9236,43.589266 1997.9249,45.943241 1991.0013,43.500469 1985.6323,41.606168 1985.0367,42.269505 1985.0153,50.166667 1984.9974,56.797708 1985.9344,57.507765 1991.2102,54.861189 1993.2508,53.837535 1995.9791,53 1997.2731,53 1999.8723,53 2004.4042,57.195009 2005.7509,60.847645 2006.9814,64.18544 2005.6904,72.579673 2003.5893,74.901285 2001.5661,77.136882 1999,76.648508 1999,74.02787 1999,71.989413 1995.3351,67 1993.8377,67 1992.5538,67 1989.0776,71.108722 1989.0333,72.678571 1989.015,73.326786 1989.7875,74.643982 1990.75,75.605673 1994.7907,79.642973 1998.9813,85.629878 1998.9903,87.378273 1999.0008,89.410477 1993.309,100.03347 1991.566,101.23469 1989.7021,102.51925 1988.1541,102.06104 1987.5109,100.03434 z"/>
</svg>
