<svg xmlns="http://www.w3.org/2000/svg"
     width="50.1" height="64.0"
     viewBox="7384.0000 16.6251 63.7555 81.4240">
  <path d="M7438.7309 90.25C7439.1539 88.7375 7439.4492 83.88524 7439.3872 79.4672C7439.2935 72.800055 7438.7882 70.441577 7436.4149 65.5946C7434.8422 62.38271 7432.5473 59.094263 7431.3152 58.28694C7429.2836 56.955772 7428.5508 57.059046 7423.4463 59.395944C7415.1997 63.171394 7414.0 62.223587 7414.0 51.932698C7414.0 42.811114 7415.6047 37.96032 7419.4574 35.435931C7421.5898 34.038776 7422.5519 33.930426 7424.588 34.858149C7428.5245 36.65174 7429.0 36.293624 7429.0 31.535184C7429.0 28.292523 7428.521 26.823995 7427.25 26.170311C7425.1404 25.085285 7424.2742 25.325365 7416.2001 29.232946L7409.9002 32.281891L7406.592 28.670131C7403.0495 24.802679 7398.9139 22.712072 7396.5786 23.608227C7395.0124 24.209231 7393.0 29.099683 7393.0 32.304832C7393.0 36.044481 7397.7396 40.934728 7402.0288 41.620599C7404.1922 41.966538 7406.5176 42.918791 7407.1965 43.736717C7408.6033 45.431817 7408.5405 58.859522 7407.1191 60.280904C7406.6066 60.793424 7404.0948 59.627912 7401.1455 57.509056L7396.0563 53.852818L7393.5083 56.400841C7392.1068 57.802253 7390.6879 60.310369 7390.3551 61.974432C7389.6704 65.397981 7388.0 66.078754 7388.0 62.934259C7388.0 58.829984 7393.0188 52.0 7396.0348 52.0C7396.9621 52.0 7399.4115 53.147241 7401.4777 54.549425C7403.5439 55.951609 7405.3954 56.93793 7405.5921 56.741249C7405.7888 56.544568 7406.0338 54.006389 7406.1367 51.100852C7406.333 45.552851 7405.3728 44.078146 7401.5 43.979877C7396.3191 43.848418 7391.0178 37.872511 7391.0066 32.151129C7390.9976 27.592842 7393.7678 22.09638 7396.4081 21.433705C7399.6298 20.625115 7403.8682 22.604671 7407.5713 26.647541L7410.8588 30.236711L7413.6794 28.267055C7417.9353 25.295128 7425.5392 22.718968 7427.871 23.459045C7429.1437 23.863 7430.3211 25.503469 7430.9356 27.728999C7432.0431 31.740119 7431.2714 42.806909 7429.7494 44.73899C7428.4967 46.329179 7427.0 45.410678 7427.0 43.051767C7427.0 42.045157 7426.1529 40.175398 7425.1175 38.896745C7423.4804 36.874985 7422.9064 36.721631 7420.7144 37.720356C7417.8544 39.023444 7416.0 45.4465 7416.0 54.049221C7416.0 58.284781 7416.2807 59.0 7417.9428 59.0C7419.0114 59.0 7421.4624 58.0697 7423.3895 56.932667C7425.521 55.675052 7428.1626 54.989624 7430.1337 55.182667C7432.874 55.451035 7433.8699 56.346628 7436.588 60.986876C7441.4166 69.230174 7443.7555 85.800371 7440.8596 91.25C7439.3721 94.049103 7437.8663 93.341695 7438.7309 90.25Z M7403.0399 71.620919C7402.4265 69.762425 7401.0165 67.419899 7399.9064 66.415307C7398.1999 64.870969 7397.5727 64.785744 7395.8467 65.863676C7394.7239 66.564871 7393.6344 66.967747 7393.4256 66.758956C7392.7287 66.062076 7396.0952 62.0 7397.3696 62.0C7399.9403 62.0 7406.0 70.028336 7406.0 73.434259C7406.0 76.210139 7404.1882 75.100228 7403.0399 71.620919Z M7433.0732 79.830861C7431.566 72.934818 7429.1833 68.192942 7426.8538 67.45361C7422.2101 65.979759 7418.6795 69.898722 7417.3908 77.957266C7416.9524 80.69898 7416.3868 81.786831 7415.7374 81.137421C7413.9505 79.350495 7415.8962 71.581576 7419.1059 67.687647C7422.6847 63.345949 7425.598 62.971317 7429.2758 66.379843C7432.2626 69.147864 7436.7492 82.650829 7435.1977 84.202338C7434.5852 84.81485 7433.817 83.234311 7433.0732 79.830861Z"/>
</svg>
