<svg xmlns="http://www.w3.org/2000/svg"
     width="30.5" height="64.0"
     viewBox="5491.8750 13.3884 43.0503 90.2374">
  <path d="M 5495.875 87.4375 L 5496.0938 90.71875 C 5499.2619 92.174174 5501.0294 91.55444 5503.625 88.8125 C 5507.9301 84.264646 5509.8234 77.492235 5510.5312 64 C 5511.8251 39.341848 5512.5342 33.85173 5515.25 27.71875 C 5517.9709 21.574312 5521.2329 20.426476 5524.6562 24.40625 C 5527.8569 28.127357 5527.7331 34.187326 5524.25 42.75 C 5520.625 51.661569 5520.4199 60.982595 5523.75 65.65625 C 5524.9861 67.391154 5526 69.273613 5526 69.84375 C 5526 71.638593 5524.1599 72.114569 5522.125 70.84375 C 5519.0861 68.945966 5517.4187 71.092498 5514.3125 80.84375 C 5510.9533 91.389278 5508.0772 94.906071 5502.25 95.6875 C 5500.352 95.942024 5498.3708 95.784188 5496.4062 95.46875 L 5496.6562 99 C 5502.3744 99.625765 5506.5753 98.571957 5509.8438 95.625 C 5512.8519 92.912821 5513.7713 91.121716 5516.9688 82 C 5519.4972 74.787029 5519.7524 74.47526 5523.0625 74.15625 C 5529.2874 73.556318 5530.9253 69.690354 5526.8125 65.3125 C 5523.2247 61.493428 5523.0865 52.697728 5526.5 44.28125 C 5530.0851 35.441833 5530.3421 27.927571 5527.2188 22.875 C 5524.4474 18.391805 5521.3701 17.388398 5518 19.875 C 5511.9068 24.370809 5509.1119 35.309667 5508.4062 57.5 C 5507.9166 72.899771 5506.7664 80.023918 5504 84.5 C 5501.4841 88.570775 5499.9224 89.371104 5495.875 87.4375 z "/>
</svg>
