<svg xmlns="http://www.w3.org/2000/svg"
     width="47.1" height="64.0"
     viewBox="1825.1351 16.8410 40.2873 54.6858">
  <path d="M 1842.875 21.34375 C 1842.2826 21.511335 1841.6508 21.91403 1840.9688 22.53125 C 1838.871 24.429601 1838.2009 32.182419 1839.9062 34.875 C 1840.4737 35.771143 1839.9487 38.062598 1838.4062 41.375 C 1837.0962 44.18876 1836.0053 47.666494 1836 49.09375 C 1835.9946 50.521007 1835.0626 52.547305 1833.9062 53.59375 C 1831.2575 55.990893 1829.1351 60.114351 1829.7188 61.75 C 1830.5285 64.01876 1836.4626 63.202935 1839.0312 60.46875 L 1841.4062 57.9375 L 1842.8438 60.71875 C 1843.6249 62.249193 1844.9398 64.2875 1845.7812 65.25 C 1847.5705 67.296617 1850.3383 67.52683 1851.7812 65.75 C 1852.7132 64.602571 1853.697 59.007544 1854.2812 51.5 C 1854.52 48.432496 1854.4484 48.421771 1849.75 49.75 C 1845.7717 50.874665 1847.9755 45.732202 1856.5 34.09375 C 1861.4224 27.373299 1858.4662 22.150737 1853.0312 27.96875 C 1851.3961 29.719283 1849.6127 30.87134 1849.0625 30.53125 C 1848.5122 30.19116 1847.5625 28.111351 1846.9688 25.90625 C 1846.0174 22.37311 1844.6522 20.840994 1842.875 21.34375 z M 1842.9375 25 C 1843.3817 25 1844.028 26.42117 1844.375 28.15625 C 1845.6308 34.434812 1849.2874 35.775055 1853.5312 31.53125 C 1858.1546 26.90786 1855.3682 32.460092 1850.2812 38 C 1843.8097 45.0479 1843.2713 54.164783 1849.4062 52.625 C 1852.1865 51.927178 1852.7767 52.848299 1850.8125 54.8125 C 1848.9208 56.704165 1843.6835 55.843334 1840.6562 53.15625 C 1838.3714 51.128254 1839.029 45.613066 1842.1875 40.125 C 1844.243 36.553405 1844.2438 36.324418 1842.5625 32.78125 C 1840.9179 29.315422 1841.1236 25 1842.9375 25 z M 1836.5 54.59375 C 1837.006 54.488589 1837.3799 54.772032 1837.9062 55.40625 C 1838.8878 56.588864 1838.7294 57.270588 1837.0625 58.9375 C 1834.7271 61.272912 1832 61.68127 1832 59.6875 C 1832 58.958373 1833.0513 57.370444 1834.3438 56.15625 C 1835.3601 55.201451 1835.994 54.698911 1836.5 54.59375 z M 1847.9375 59 C 1849.941 59 1851.5924 62.232536 1850.5 64 C 1849.6764 65.332733 1848.6525 65.277513 1847.1875 63.8125 C 1845.287 61.912011 1845.747 59 1847.9375 59 z "/>
</svg>
