<svg xmlns="http://www.w3.org/2000/svg"
     width="43.0" height="64.0"
     viewBox="2896.8750 34.3194 35.5003 52.8056">
  <path d="M 2903.4688 81.15625 L 2904.5938 83.125 C 2909.7786 77.542547 2914.4026 75.37783 2917.5938 77.46875 C 2920.4145 79.316973 2924.3978 79.4572 2925.7188 77.75 C 2928.3753 74.31668 2928.0372 72.811949 2923.5938 68.65625 L 2919.1562 64.5 L 2920.75 54.6875 C 2922.2392 45.641909 2922.2395 44.655265 2920.75 42.1875 C 2918.4471 38.372344 2915.7483 38.319356 2912.625 42.03125 C 2910.1761 44.94152 2910 45.82714 2910 54.875 C 2910 63.886044 2909.7836 64.94416 2907.125 69.0625 C 2905.6018 71.422049 2902.8616 74.74983 2900.875 76.6875 L 2902.0312 78.6875 C 2902.8595 77.606052 2903.1619 77.02481 2904.5312 75.5 C 2911.095 68.191197 2912 65.649271 2912 54.8125 C 2912 47.944625 2912.4223 44.846662 2913.5625 43.21875 C 2915.5711 40.35103 2917.4055 40.393034 2918.75 43.34375 C 2919.9507 45.979026 2919.8482 48.227271 2917.9688 58.90625 L 2916.6562 66.34375 L 2921.5312 70.5625 C 2925.783 74.251012 2926.2308 74.998515 2925.0625 76.40625 C 2923.8361 77.884036 2923.4418 77.877552 2920.3125 76.03125 C 2918.4315 74.921455 2915.8936 74.011761 2914.6875 74.03125 C 2911.417 74.0841 2907.2474 76.846825 2903.4688 81.15625 z "/>
</svg>
