<svg xmlns="http://www.w3.org/2000/svg"
     width="32.3" height="64.0"
     viewBox="4597.6965 16.0000 43.7943 86.8192">
  <path d="M4620.202 97.743451C4619.6045 97.023505 4618.6508 95.211705 4618.0826 93.717229C4616.7519 90.217345 4615.6413 90.290686 4612.9605 94.055453C4611.4814 96.132688 4610.0989 97.013114 4608.6424 96.805453C4605.5924 96.370599 4605.419 92.397422 4608.0818 83.960364C4609.9734 77.966737 4610.1297 76.376296 4609.149 73.103018C4607.6719 68.172995 4607.6798 58.170488 4609.1665 50.972887C4610.3038 45.466631 4610.2519 45.183815 4607.0945 39.665118C4602.0624 30.870051 4601.6965 20.0 4606.4324 20.0C4607.0855 20.0 4609.5629 22.933945 4611.9376 26.519878C4614.3123 30.105811 4616.6762 33.299893 4617.1907 33.617839C4618.3179 34.314534 4622.0 31.170788 4622.0 29.511622C4622.0 28.863501 4623.4946 26.604242 4625.3213 24.491046C4627.7658 21.663128 4629.1191 20.831742 4630.4478 21.341614C4632.0011 21.937655 4632.1564 22.763136 4631.5605 27.255159C4630.7281 33.530284 4628.881 37.626665 4623.8869 44.273164C4617.4444 52.84741 4615.9623 70.036332 4621.4141 72.954011C4624.2013 74.445712 4626.7698 73.396641 4631.6636 68.767587C4633.4036 67.121754 4635.3161 66.077308 4635.9136 66.446598C4637.4908 67.421351 4637.2453 71.6809 4635.3861 75.598871C4633.2655 80.067604 4631.6801 80.009931 4633.551 75.532119C4635.7445 70.282472 4635.3464 69.744982 4631.25 72.424943C4625.9341 75.9027 4622.4867 76.54895 4619.5423 74.619692C4615.9396 72.259099 4614.9068 67.190791 4616.0959 57.70719C4617.2316 48.649989 4617.9085 47.024815 4622.4273 42.505995C4626.1056 38.827688 4628.5337 34.124109 4629.5285 28.75C4630.5453 23.256235 4627.7107 23.772291 4624.0356 29.75C4618.2886 39.097816 4618.453 39.002846 4614.9496 35.0C4613.2647 33.075 4610.929 29.8125 4609.759 27.75C4608.589 25.6875 4607.0396 24.0 4606.3159 24.0C4603.846 24.0 4604.9641 29.761911 4608.8706 37.164976L4612.7412 44.5L4611.3055 52.5C4608.8992 65.908664 4610.5244 75.443037 4616.2913 81.75C4619.0814 84.801439 4625.6627 84.839752 4629.493 81.826854L4632.2557 79.653708L4631.1201 81.775569C4630.4955 82.942593 4629.1163 84.505533 4628.0552 85.248769C4626.7002 86.197864 4626.0328 88.039236 4625.813 91.434867C4625.5808 95.022056 4624.9566 96.628669 4623.3942 97.661036C4621.6636 98.80456 4621.0949 98.819243 4620.202 97.743451Z M4613.4875 90.019872C4616.5439 85.178171 4616.5615 84.831744 4613.8373 83.13048C4611.9054 81.924 4611.4809 82.031725 4609.8596 84.139934C4607.593 87.086986 4607.3321 94.0 4609.4875 94.0C4610.3056 94.0 4612.1056 92.208942 4613.4875 90.019872Z M4624.1477 92.907047C4623.6226 89.318855 4622.1278 87.0 4620.3398 87.0C4619.0894 87.0 4618.8847 87.673403 4619.3809 90.154692C4620.506 95.779927 4624.9431 98.341952 4624.1477 92.907047Z"/>
</svg>
