<svg xmlns="http://www.w3.org/2000/svg"
     width="24.1" height="64.0"
     viewBox="5422.9252 10.7572 33.5684 88.9957">
  <path d="M5436.9757 92.729127C5434.2433 88.249393 5431.2688 78.814398 5429.9676 70.5C5428.47 60.930783 5426.9252 25.376431 5427.8933 22.759475C5428.8485 20.177261 5430.0 29.680842 5430.0 40.146691C5430.0 47.800808 5430.7198 48.414662 5435.3499 44.709486C5438.1939 42.433671 5438.1996 42.405476 5438.0766 31.214453C5437.9991 24.154406 5438.3325 20.0 5438.9767 20.0C5439.5395 20.0 5440.0394 22.1375 5440.0877 24.75C5440.1584 28.581879 5440.6601 39.48832 5440.941 43.301027C5441.0187 44.355537 5448.0532 47.280121 5448.7752 46.558093C5449.6099 45.723412 5449.8248 42.653493 5449.9167 30.25C5450.0052 18.292684 5451.5923 14.757153 5452.1612 25.25C5452.4936 31.381326 5451.4813 53.101618 5450.5417 60.0C5447.8817 79.528979 5443.6963 94.135097 5440.3976 95.400932C5439.4806 95.752822 5438.2192 94.767981 5436.9757 92.729127Z M5435.6945 56.811445L5438.9843 53.62289L5443.1045 55.9386C5446.4808 57.836166 5447.3823 58.005639 5448.0971 56.877155C5450.2505 53.477397 5449.0738 51.266172 5443.75 48.707882L5438.5 46.185075L5434.5 48.503761C5430.9666 50.551981 5430.4906 51.270225 5430.4194 54.661223C5430.2846 61.081074 5430.9919 61.369397 5435.6945 56.811445Z M5443.0148 86.25C5445.3468 80.037804 5446.9977 71.591628 5446.9729 66.0C5446.9598 63.055687 5446.314 62.044773 5442.9058 59.632747L5438.8542 56.765495L5435.693 59.632747C5431.4081 63.519227 5430.9309 64.257958 5431.5797 66.0C5431.8869 66.825 5432.56 69.75 5433.0755 72.5C5434.2457 78.743001 5438.9955 92.0 5440.0621 92.0C5440.4989 92.0 5441.8276 89.4125 5443.0148 86.25Z"/>
</svg>
