<svg xmlns="http://www.w3.org/2000/svg"
     width="24.0" height="64.0"
     viewBox="3803.5616 17.0000 32.9175 87.7670">
  <path d="M 3829.5 96.75 L 3829.5 96.5 L 3829.7812 91.3125 C 3829.5604 90.969724 3829.4029 90.637273 3829.3438 90.25 C 3829.1359 88.888381 3829.182 88.244473 3829.9688 88.1875 L 3830 87.5 L 3831.1562 85.1875 L 3830.875 85.0625 L 3831.6875 75.28125 C 3832.1342 69.904974 3832.4791 59.2 3832.4688 51.5 C 3832.441 31.116532 3828.9511 21 3821.9062 21 C 3818.7755 21 3816.3078 23.65881 3812.875 30.75 L 3810.6562 35.375 L 3813.8438 41.4375 C 3815.6068 44.774764 3817.0468 47.845151 3817.0312 48.28125 C 3817.0158 48.717349 3815.2 51.461121 3813 54.375 C 3807.5616 61.578109 3807.6692 64.231675 3813.6562 69.5 L 3818.3438 73.59375 L 3815.25 79.5625 C 3809.7058 90.241656 3809.9841 92.117666 3817.7812 97.0625 C 3823.2082 100.50414 3826.2271 100.76696 3828.125 97.96875 C 3828.6112 97.251891 3829.0218 96.962336 3829.5 96.75 z M 3823.7188 24.1875 C 3826.5911 24.740679 3829.9611 37.821794 3830.25 49.5 C 3830.4689 58.349946 3829.6221 71.779655 3828.4688 77.5 C 3828.2471 78.6 3827.82 81.909167 3827.5312 84.84375 C 3827.2424 87.778332 3826.6018 90.904856 3826.0938 91.8125 C 3825.3311 93.175305 3825.0464 92.965764 3824.5312 90.5 C 3824.1881 88.857774 3823.4938 85.863811 3822.9688 83.875 C 3822.4438 81.88619 3822 67.576518 3822 52.0625 C 3822 25.993084 3822.1391 23.883283 3823.7188 24.1875 z M 3818.1562 26 C 3818.6227 26 3819 29.825 3819 34.5 C 3819 39.175 3818.7936 43 3818.5312 43 C 3817.7836 43 3815.2802 38.731467 3814.5 36.125 C 3813.768 33.679394 3816.5439 26 3818.1562 26 z M 3818.0938 53 C 3818.5962 53 3819 56.6 3819 61 C 3819 65.4 3818.6625 68.991103 3818.25 68.96875 C 3817.0128 68.901709 3811 63.431721 3811 62.375 C 3811 60.94977 3817.0164 53 3818.0938 53 z M 3818.9688 81.46875 C 3819.9029 82.046143 3822 90.778516 3822 94.0625 C 3822 95.135428 3821.6625 95.956534 3821.25 95.90625 C 3819.3943 95.68004 3814.9278 92.344554 3814.4375 90.8125 C 3813.7878 88.782174 3817.7126 80.692367 3818.9688 81.46875 z "/>
</svg>
