<svg xmlns="http://www.w3.org/2000/svg"
     width="32.6" height="64.0"
     viewBox="1660.2278 15.5000 44.3391 87.0894">
  <path d="M 1675 19.5 L 1672.25 22.5625 C 1664.7024 30.939884 1664.2278 32.872738 1667.3438 42.3125 C 1670.4224 51.63916 1670.5612 54.221837 1668.5938 64.28125 C 1665.5364 79.913116 1665.8513 88.643132 1669.6875 93.78125 C 1672.2878 97.264121 1676.4742 98.589411 1680.4375 97.15625 C 1681.5804 96.74297 1682.5034 96.641264 1683.5312 96.6875 L 1683.5 95.5 L 1685.125 91.53125 C 1685.1139 91.40336 1685 91.322315 1685 91.1875 C 1685 89.814345 1685.347 89.456778 1686 89.40625 L 1687.4688 85.78125 C 1686.6641 84.049142 1686.4576 80.999114 1686.4062 75.3125 C 1686.3346 67.36947 1685.8142 63.360976 1684.5 60.1875 C 1682.3896 55.090936 1682.9411 44.249121 1685.5 40.34375 C 1686.9655 38.107165 1687.196 38.073256 1689.4688 39.5625 C 1692.4943 41.544887 1694.9723 40.403604 1697.9062 35.65625 C 1700.5669 31.351329 1700.5345 30.780297 1697.4062 27.0625 C 1693.9897 23.002162 1690.6957 23.061819 1686.8125 27.21875 L 1683.7812 30.4375 L 1682 27.96875 C 1681.007 26.611804 1679.0212 24.15 1677.5938 22.5 L 1675 19.5 z M 1675.0312 24.5 L 1676.7812 27 C 1677.7333 28.366734 1679.6744 30.770519 1681.0938 32.375 C 1683.5868 35.193314 1683.616 35.447415 1682.2188 39.40625 C 1680.2932 44.861977 1680.3644 55.124508 1682.375 62.46875 C 1683.2724 65.746804 1684.0042 70.696804 1684 73.46875 C 1683.99 80.159963 1682.2248 90.650853 1680.7188 93.0625 C 1679.9238 94.335381 1678.4042 95 1676.25 95 C 1668.9675 95 1666.9436 83.126443 1671.0938 64.75 C 1673.5722 53.775691 1673.2252 47.697483 1669.6875 40 C 1666.9476 34.038398 1667.0198 33.572735 1671.9375 28 L 1675.0312 24.5 z M 1691.75 27.46875 C 1692.4074 27.294403 1693.0196 27.46517 1693.8438 27.90625 C 1696.7488 29.460979 1697.3828 32.499878 1695.4375 35.46875 C 1693.3771 38.613304 1692.9561 38.620678 1689.6562 35.5625 C 1686.4066 32.550891 1686.3746 31.941715 1689.4062 29.09375 C 1690.3845 28.174682 1691.0926 27.643097 1691.75 27.46875 z "/>
</svg>
