<svg xmlns="http://www.w3.org/2000/svg"
     width="61.5" height="64.0"
     viewBox="5915.4375 50.8411 51.2936 53.3615">
  <path d="M 5924.1562 85.625 L 5919.4375 94.71875 C 5919.8606 95.128125 5920.3346 95.492022 5920.75 95.625 C 5921.7207 95.935779 5923.4 96.57134 5924.5 97.03125 C 5925.6 97.491161 5927.175 98.109911 5928 98.40625 C 5933.0008 100.20252 5940.7652 96.611931 5945.5938 90.28125 C 5948.0347 87.081048 5951.2695 86.008976 5952.5 88 C 5953.4207 89.48976 5956.9753 89.205112 5957.5938 87.59375 C 5957.8898 86.822073 5957.2226 84.369032 5956.0938 82.15625 C 5953.8106 77.680791 5954.0343 76.705885 5959.1875 68 C 5962.213 62.888754 5962.7311 60.505928 5961.5938 57.125 C 5960.8974 55.054962 5960.3493 54.841063 5957.1562 55.34375 C 5952.4931 56.077903 5948.9263 60.210374 5945.4688 68.90625 C 5942.3621 76.719733 5937.4646 84.678778 5934.9375 86.03125 C 5932.0344 87.584914 5927.0206 87.092494 5924.1562 85.625 z M 5957.4375 57.53125 C 5961.1444 56.896535 5960.4928 61.754685 5955.5 69.84375 C 5951.9675 75.5669 5951.1968 79.626591 5952.9688 82.9375 C 5953.8147 84.518323 5953.4904 84.722382 5950.2812 84.625 C 5947.2193 84.532082 5946.2718 85.031703 5944.375 87.8125 C 5943.1336 89.632408 5940.9583 92.033769 5939.5312 93.15625 C 5936.8759 95.245044 5930.685 96.421337 5928 95.34375 C 5925.7167 94.427376 5923 91.829433 5923 90.5625 C 5923 89.841994 5925.2023 89.446392 5929.0938 89.46875 C 5935.1814 89.503726 5935.2171 89.486887 5939.5938 84.5 C 5942.3502 81.359284 5945.1333 76.575812 5947.0625 71.625 C 5950.8182 61.987204 5952.2946 59.659381 5955.5938 58.15625 C 5956.3012 57.833901 5956.9079 57.621924 5957.4375 57.53125 z "/>
</svg>
