<svg xmlns="http://www.w3.org/2000/svg"
     width="17.0" height="64.0"
     viewBox="2932.0328 13.0699 23.5532 88.4845">
  <path d="M2946.6676 94.887204C2945.6597 94.293834 2943.3699 94.083231 2941.579 94.419197L2938.3229 95.030044L2937.5379 65.265022C2936.2667 17.06995 2936.0328 19.394402 2941.8204 22.706622C2944.3962 24.180765 2945.3059 24.281136 2946.9307 23.270479C2948.0645 22.565214 2949.1486 22.431498 2949.4734 22.95688C2950.7686 25.052696 2951.586 44.152484 2951.4436 69.0C2951.2827 97.094356 2951.1978 97.554413 2946.6676 94.887204Z M2949.4172 51.75C2950.0008 48.865956 2949.9809 46.19323 2949.3501 42.762901C2948.9665 40.676908 2947.7643 39.546969 2944.2963 38.012901C2941.7935 36.905805 2939.353 36.0 2938.8729 36.0C2938.3928 36.0 2938.0 38.879306 2938.0 42.398458L2938.0 48.796917L2942.25 51.359437C2947.522 54.538143 2948.8385 54.609884 2949.4172 51.75Z M2948.9847 33.25C2948.9642 28.235854 2948.1911 27.277706 2943.2747 26.173054C2938.3882 25.075129 2937.9909 25.320756 2938.0278 29.416667C2938.0513 32.015992 2938.7185 32.84475 2942.2778 34.696205C2948.2238 37.789057 2949.0025 37.621135 2948.9847 33.25Z M2949.0306 68.5C2949.4046 57.842191 2949.3224 57.566357 2944.9103 54.677632C2942.6609 53.204934 2940.3577 52.0 2939.792 52.0C2938.7997 52.0 2939.5914 68.482627 2940.669 70.259354C2941.116 70.996279 2948.3387 74.970572 2948.66 74.656437C2948.7481 74.570397 2948.9148 71.8 2949.0306 68.5Z M2949.1543 84.5C2948.9642 80.65 2948.4754 77.146162 2948.068 76.713693C2947.6607 76.281224 2945.7281 75.667855 2943.7734 75.35065L2940.2194 74.773914L2939.8437 79.496849C2939.6371 82.094464 2939.6372 85.992971 2939.8439 88.160198L2940.2197 92.100611L2944.8598 91.800306L2949.5 91.5L2949.1543 84.5Z"/>
</svg>
