<svg xmlns="http://www.w3.org/2000/svg"
     width="47.0" height="64.0"
     viewBox="4297.9564 19.2072 61.3917 83.6520">
  <path d="M 4348.3438,82.84375 C 4347.2987,82.563481 4345.561,82.295867 4345.125,82.0625 4341.744,80.253062 4339.7073,75.27999 4340.2812,70.1875 4340.6543,66.87813 4340.3014,64.881507 4338.9062,62.59375 4336.4993,58.646685 4336.4682,49.597172 4338.8438,42 L 4340.5625,36.5 4345.6562,36.1875 C 4349.5578,35.95924 4351.2889,35.327353 4353.0938,33.40625 4355.2955,31.062515 4355.3481,30.708914 4353.9375,28.1875 4351.5065,23.842173 4349.0045,24.220834 4340.9062,30.125 4339.633,31.053301 4338.2359,30.554525 4333.6562,27.625 4327.1843,23.484929 4325.4925,23.207206 4324.0312,25.9375 4322.4954,28.807438 4316.9329,32.526109 4316.125,31.21875 4315.7581,30.625213 4314.2202,29.664546 4312.7188,29.09375 4306.6865,26.800244 4301.9564,32.234717 4305.4062,37.5 4307.3015,40.392471 4310.0383,40.673357 4313.5938,38.34375 4315.1871,37.299809 4316.4596,37.053303 4317.0625,37.65625 4318.7501,39.343828 4320.8178,49.339699 4320.6562,55 4320.5108,60.092105 4320.3331,60.477156 4318.25,60.1875 4317.0125,60.015428 4316,60.388877 4316,61 4316,62.342981 4322.1115,65.062116 4323.375,64.28125 4324.8459,63.372184 4323.1325,47.011059 4320.8438,40.09375 L 4318.7188,33.65625 4322.125,30.875 C 4325.9387,27.721931 4327.2277,27.841475 4333.8125,31.875 4337.406,34.076187 4338.0441,34.914476 4337.6562,37 4333.1977,60.970593 4333.3615,58.723132 4335.6875,63.3125 4337.1132,66.125453 4337.6566,68.654719 4337.3438,71 4337.0076,73.520632 4337.8037,76.619985 4340.1875,82.0625 4343.7399,90.173356 4345.2909,91.868137 4345.8125,88.1875 4346.0665,86.395695 4346.6561,86.078469 4348.5312,86.375 L 4348.3438,82.84375 z M 4350,28 C 4352.2468,28 4353.4117,30.811094 4351.9062,32.625 4350.5182,34.297454 4345.3984,34.449101 4344.4062,32.84375 4343.535,31.434112 4347.496,28 4350,28 z M 4310.9062,31.1875 C 4313.781,31.522784 4315.0368,34.735203 4312.8438,36.125 4310.6328,37.526115 4307.2623,37.117315 4306.5938,35.375 4305.6887,33.016586 4307.9223,30.839485 4310.9062,31.1875 z M 4328.7188,35 C 4328.0755,35 4327.9443,39.180703 4328.3438,46.75 4328.6847,53.2125 4328.9573,58.8375 4328.9688,59.25 4328.9803,59.6625 4329.45,60 4330,60 4331.1372,60 4331.3063,50.365592 4330.3438,41.15625 4329.9904,37.77557 4329.2679,35 4328.7188,35 z M 4348.9688,93.9375 C 4347.9484,93.545964 4346.7893,93 4346.2812,93 4345.461,93 4343.4187,91.841621 4341.75,90.4375 4337.4667,86.833309 4334.3386,87.501054 4330.25,92.875 4328.4179,95.283004 4327.1559,97.499622 4327.4375,97.78125 4327.7191,98.062877 4329.7526,96.627131 4331.9688,94.625 4334.1849,92.622868 4336.3912,91 4336.8438,91 4337.2962,91 4338.7083,92.125 4340,93.5 4341.2917,94.875 4343.2959,95.991719 4344.4375,96 4345.3197,96.0064 4347.3221,96.581668 4349.125,97.125 L 4348.9688,93.9375 z M 4313.7188,63.1875 C 4312.1947,62.895011 4312.3542,63.681535 4314.875,68.6875 4318.9279,76.736042 4321,84.315359 4321,91.1875 4321,98.185722 4322.6073,98.859242 4323.5938,92.28125 4324.8884,83.647078 4318.2326,64.053699 4313.7188,63.1875 z"/>
</svg>
