<svg xmlns="http://www.w3.org/2000/svg"
     width="43.2" height="64.0"
     viewBox="3460.4402 17.0000 57.1328 84.6445">
  <path d="M 3501.3438,87.9375 C 3500.7523,87.649818 3500.4205,87.634679 3499.6562,87.21875 L 3494.75,84.5625 3495.375,78.625 C 3495.7156,75.366842 3496.5078,72.087538 3497.125,71.34375 3499.8837,68.019731 3503.9241,70.937075 3505.4062,77.3125 3506.2859,81.096478 3508.0502,80.312452 3510.7188,74.9375 3513.3074,69.723775 3513.573,65.010859 3511.5312,61.0625 3509.3224,56.790908 3507.3749,56.600903 3500.8438,60 L 3494.9688,63.0625 3493.9375,60.34375 C 3491.8502,54.853739 3492.3262,51.019528 3495,51.71875 3497.4977,52.37192 3497.5583,50.903915 3495.1562,47.9375 3493.9762,46.480368 3492.7155,45.905998 3491.6562,46.3125 3489.736,47.049372 3489.4209,53.815724 3491,60.65625 3492.2651,66.135901 3492.726,83.500713 3491.7188,88.25 3490.678,93.157675 3488.6925,93.031186 3485.4375,87.875 3481.8732,82.228732 3481.2816,75.146857 3483.5,64.21875 3485.3792,54.96227 3485.053,47.831828 3482.5938,44.46875 3481.3342,42.74612 3481.1024,42.757068 3477.625,44.90625 3473.1139,47.694264 3472.8827,49.400514 3477.125,48.46875 3481.0286,47.611376 3481.9795,48.905218 3482,55.1875 3482.0186,60.886139 3480.8988,61.771961 3477.0938,59.0625 3473.4078,56.437908 3471.6949,57.132856 3468.5312,62.53125 3464.4402,69.512264 3465.67,81 3470.5,81 3472.6121,81 3473.371,79.033758 3473.125,74.28125 3472.9624,71.140408 3473.3356,69.809835 3474.4688,69.375 3477.3697,68.261823 3478.6889,70.822774 3479.2812,78.65625 3479.8134,85.692555 3479.6767,86.564281 3477.4375,89.5 3476.0986,91.255438 3475,93.526601 3475,94.5625 3475,96.005934 3475.733,95.582801 3478.0938,92.71875 3481.4202,88.683105 3484.1854,88.559495 3481.5625,92.5625 3479.2326,96.118426 3479.695,97.644546 3482.3438,95.15625 L 3484.6562,92.96875 3486.5,95 C 3487.8676,96.511168 3489.1109,96.904599 3491.4062,96.5 3492.7516,96.262855 3494.8369,96.608456 3497,97.1875 L 3497,97 3498.5625,93.71875 C 3496.3152,92.850725 3494.4811,91.912006 3494.25,91.21875 3493.719,89.625678 3495.3425,89.730174 3499.625,91.5 L 3501.3438,87.9375 z M 3507.4062,60 C 3509.7784,60 3511.3569,66.388477 3510,70.5 3508.6286,74.655377 3507.7117,74.882535 3506.1562,71.46875 3504.7829,68.454465 3501.3171,66.942947 3498.3438,68.0625 3496.2525,68.849952 3495,68.432896 3495,66.9375 3495,65.93436 3505.61,60 3507.4062,60 z M 3473.7812,61.03125 C 3475.7761,61.06974 3480,64.34154 3480,65.84375 3480,66.50553 3478.9193,66.568373 3476.9375,66 3472.7851,64.809129 3469.8597,67.633361 3470.1875,72.5 3470.4599,76.54471 3469.4822,78.058637 3468.5312,75.0625 3467.1483,70.705216 3470.7856,60.97345 3473.7812,61.03125 z M 3483.625,21 C 3482.135,21 3471.4095,31.753274 3472.1562,32.5 3472.4592,32.802987 3474.914,31.245629 3477.5938,29.03125 3480.2735,26.81687 3483.0175,25 3483.6875,25 3485.1517,25 3493.186,30.320758 3494.9688,32.46875 3497.6251,35.669515 3499.2116,33.175011 3496.6562,29.8125 3495.0089,27.64492 3485.1866,21 3483.625,21 z M 3484.0625,31.34375 C 3482.5821,31.566029 3480.7503,32.688643 3477.625,35.15625 3472.9151,38.874964 3470.5992,42 3472.5625,42 3473.2572,42 3481.2753,35.83957 3482.1562,34.625 3483.032,33.41779 3491.1041,37.417414 3494,40.5 3496.6572,43.328423 3498,43.684407 3498,41.53125 3498,39.726644 3488.7128,32.220421 3485.4688,31.40625 3485.0245,31.294752 3484.556,31.269657 3484.0625,31.34375 z"/>
</svg>
