<svg xmlns="http://www.w3.org/2000/svg"
     width="52.0" height="64.0"
     viewBox="6797.0000 47.2178 42.8709 52.7743">
  <path d="M 6802.75 81.28125 L 6801 94 L 6801 94.53125 C 6801.9329 94.352692 6802.9649 94.506658 6804.7188 95.03125 C 6807.9313 95.992105 6809.3538 95.849325 6814.125 94.0625 C 6819.7548 91.95411 6823.9509 88.607133 6822.625 87.28125 C 6822.2353 86.891575 6821.1237 87.120199 6820.1875 87.78125 C 6813.5117 92.495468 6806.3834 93.820882 6803.4688 90.90625 C 6801.4842 88.921756 6802.5705 85.600102 6804.875 86.59375 C 6809.4052 88.547005 6812.134 88.244537 6815.0312 85.46875 C 6818.4186 82.22348 6819.6084 78.883012 6820.4062 70.21875 C 6821.2153 61.433834 6823.7973 57 6828.125 57 C 6828.6563 57 6830.2083 58.195045 6831.5625 59.65625 C 6832.9167 61.117455 6834.3312 61.981336 6834.7188 61.59375 C 6835.6762 60.636272 6833.9187 58.006217 6830.6875 55.59375 C 6824.8264 51.217784 6818 58.787628 6818 69.65625 C 6818 72.528906 6817.5241 76.139196 6816.9375 77.6875 C 6814.5584 83.966475 6808.8867 86.978292 6806 83.5 C 6805.3153 82.675 6804.1746 82 6803.4688 82 C 6803.2612 82 6802.9963 81.544207 6802.75 81.28125 z M 6827.6875 65.4375 C 6827.0413 65.600562 6826.5 66.104972 6825.75 67.03125 C 6824.6652 68.371009 6824 70.923055 6824 73.625 C 6824 76.859859 6824.3945 78 6825.5 78 C 6826.5408 78 6827 76.965495 6827 74.59375 C 6827 69.328772 6827.8319 67.931819 6830.5938 68.625 C 6833.9556 69.468787 6833.6696 67.206372 6830.25 65.90625 C 6829.0849 65.463259 6828.3337 65.274438 6827.6875 65.4375 z M 6830.5312 80 C 6827.4828 80 6827.188 81.552658 6830.0938 82.3125 C 6832.8611 83.036176 6832.2334 86.38686 6829.25 86.8125 C 6828.0181 86.988253 6827 87.775753 6827 88.5625 C 6827 91.046496 6831.7964 90.259553 6833.625 87.46875 C 6835.8709 84.041143 6834.2005 80 6830.5312 80 z "/>
</svg>
