<svg xmlns="http://www.w3.org/2000/svg"
     width="36.6" height="64.0"
     viewBox="4694.2799 13.7460 50.7407 88.7598">
  <path d="M 4729.9375 88.875 C 4729.8498 88.84667 4729.6131 88.925642 4729.5625 88.875 C 4729.3222 88.634612 4728.8579 85.303984 4728.5625 81.46875 C 4728.267 77.633517 4727.2539 70.9 4726.2812 66.5 C 4723.9032 55.742545 4723.9895 41.705411 4726.4688 37 C 4728.9693 32.2541 4730.9447 30.882396 4734.4062 31.5 C 4737.8411 32.112855 4741.0206 29.751913 4741 26.59375 C 4740.9509 19.053473 4736.9968 17.745955 4732.125 23.65625 L 4729.125 27.3125 L 4725.8125 24.8125 C 4720.6467 20.878739 4718.704 20.621804 4716 23.5 C 4713.1516 26.53201 4712.026 26.601469 4708.7188 24 C 4705.3261 21.331393 4703.5449 21.469128 4701.0625 24.625 C 4698.2799 28.16252 4698.4682 30.808913 4701.5625 32.21875 C 4703.5298 33.115128 4704.9044 33.077513 4707.625 32.09375 C 4709.564 31.392597 4711.2782 30.96826 4711.4375 31.15625 C 4714.4046 34.657241 4714.8228 45.237714 4712.4688 57.5 C 4709.3069 73.969423 4710.9888 89.242107 4716.625 95.125 C 4719.7019 98.336566 4720.4863 98.505733 4723.9375 96.59375 C 4724.7785 96.127836 4725.3926 95.9832 4726.0625 95.90625 L 4729.9375 88.875 z M 4737.9062 22.4375 C 4739.6022 23.485587 4739.222 28.709513 4737.4062 29.40625 C 4735.3844 30.18214 4735.6897 30.238466 4733.4375 28.5625 C 4731.5419 27.151832 4731.5723 27.053489 4734.1562 24.4375 C 4735.6116 22.96418 4737.2991 22.062234 4737.9062 22.4375 z M 4720.0938 24.5 C 4721.7249 24.804604 4723.4563 25.85074 4725.0938 27.59375 C 4727.2937 29.935416 4727.3044 30.143501 4725.7188 33.46875 C 4720.8713 43.633919 4720.5037 51.715253 4724.0625 68.90625 C 4725.1338 74.081362 4726 81.137032 4726 84.59375 C 4726 89.761466 4725.5709 91.362794 4723.625 93.625 L 4721.2812 96.40625 L 4718.7188 93.625 C 4713.0145 87.469919 4711.9959 79.321173 4714.5938 60.5 C 4717.3352 40.638343 4717.3673 39.31158 4715.5 33.375 C 4713.7952 27.955083 4713.8084 27.754043 4715.7188 25.84375 C 4716.9298 24.632686 4718.4626 24.195396 4720.0938 24.5 z M 4704.5 25 C 4705.7489 25 4707.3597 25.709233 4708.0938 26.59375 C 4709.2278 27.960151 4709.1484 28.411231 4707.5312 29.59375 C 4705.1946 31.302295 4704.8153 31.320337 4702.625 29.71875 C 4700.3147 28.029408 4701.5289 25 4704.5 25 z "/>
</svg>
