<svg xmlns="http://www.w3.org/2000/svg"
     width="44.7" height="64.0"
     viewBox="3672.0000 18.0000 59.7481 85.5070">
  <path d="M 3689.4589,97.933469 C 3688.6308,96.593554 3688.3739,96.742808 3695.4728,94.438655 3698.7579,93.372395 3703.216,91.15 3705.3798,89.5 3708.6958,86.971385 3709.7466,85.192288 3712.0677,78.177424 3714.724,70.149229 3717.1972,66 3719.3262,66 3719.8852,66 3721.1655,66.744744 3722.1713,67.654988 3723.8928,69.212944 3724,69.174505 3724,66.999378 3724,65.72855 3722.793,63.106368 3721.3179,61.172306 3718.1933,57.075812 3717.9895,53.868299 3720.3348,45.70121 3723.0189,36.354381 3722.0744,24.195718 3718.7438,25.21995 3718.0597,25.430333 3716.5263,27.60441 3715.3362,30.051232 3713.3394,34.156788 3712.0093,42.286174 3710.5998,59 3709.5445,71.513074 3704.6409,82.56828 3698.3044,86.720127 3693.175,90.081063 3676,87.447986 3676,83.300661 3676,81.657049 3676.3617,81.712358 3684,84.523808 3696.385,89.082408 3706.0201,80.39271 3707.5386,63.29485 3708.6435,50.854019 3711.1227,34.903822 3712.6041,30.704902 3714.3515,25.752233 3717.6366,22 3720.2253,22 3724.9639,22 3726.4307,35.480225 3722.9602,47.13359 3720.7878,54.42818 3720.9554,55.481418 3725.1491,60.884859 3727.5743,64.009675 3727.7481,72.77571 3725.4027,73.675727 3724.3679,74.072808 3723.0103,73.291656 3721.548,71.457724 L 3719.2907,68.626763 3717.709,71.063382 C 3716.8391,72.403522 3715.1363,76.534705 3713.925,80.243789 3711.0591,89.019703 3707.1876,93.247532 3699.0776,96.457768 3691.971,99.270827 3690.4314,99.507032 3689.4589,97.933469 z"/>
</svg>
