<svg xmlns="http://www.w3.org/2000/svg"
     width="51.4" height="64.0"
     viewBox="1814.5000 67.6378 32.5000 40.4827">
  <path d="M 1819.375 98.71875 L 1818.5 101.5 L 1818.5 101.6875 C 1818.8657 102.36141 1819.9933 103.0532 1821.1875 103.28125 C 1822.4586 103.52401 1823.7796 103.8001 1824.125 103.875 C 1825.2567 104.12045 1832.467 100.83751 1834.2188 99.28125 C 1835.1608 98.444318 1836.6459 98.035268 1837.5312 98.375 C 1839.8362 99.259472 1843 97.26939 1843 94.9375 C 1843 93.789249 1841.9452 92.470999 1840.5 91.8125 C 1837.6125 90.496878 1837.443 89.285844 1839.4688 84.4375 C 1842.2185 77.856507 1839.248 71.637755 1834.4062 73.84375 C 1831.6164 75.114939 1827 84.318883 1827 88.59375 C 1827 92.262343 1825.2337 95 1822.875 95 C 1820.5004 95 1820.841 97.339114 1823.2812 97.8125 C 1825.9594 98.332046 1828.7996 94.447777 1829.5312 89.3125 C 1829.909 86.660355 1830.9419 82.925 1831.8125 81 C 1835.7141 72.373475 1839.3918 75.662581 1836.5312 85.21875 L 1834.9375 90.5 L 1837.4688 92.6875 C 1840.7626 95.551129 1840.6732 96.084628 1836.9688 95.34375 C 1834.6939 94.888794 1833.3682 95.267431 1831.7188 96.8125 C 1827.2761 100.97396 1819.8201 101.83593 1819.375 98.71875 z "/>
</svg>
