<svg xmlns="http://www.w3.org/2000/svg"
     width="24.4" height="64.0"
     viewBox="7138.0169 18.0000 32.0509 84.0086">
  <path d="M7145.7585 89.740791L7142.0169 81.5L7145.5085 72.768205C7147.4288 67.965718 7149.0 63.340386 7149.0 62.489689C7149.0 61.638991 7147.5423 58.143299 7145.7606 54.721483C7142.8101 49.054875 7142.5209 47.697318 7142.5177 39.5C7142.5149 32.065528 7142.908 29.760723 7144.7775 26.25C7146.6158 22.797787 7147.5673 22.0 7149.846 22.0C7153.6237 22.0 7157.0962 26.092685 7159.3671 33.221823C7159.6688 34.168826 7159.1889 38.292435 7158.3007 42.385398C7156.4703 50.819926 7157.0062 53.216179 7162.1787 59.724828C7166.0678 64.618719 7165.5946 67.137785 7160.5194 68.556703C7157.0057 69.539067 7156.3802 70.187437 7155.1858 74.084797C7153.3433 80.097178 7153.5606 84.218297 7155.9687 88.938731C7157.0859 91.128607 7158.0 93.613251 7158.0 94.460162C7158.0 97.716571 7156.2507 95.746087 7153.7622 89.686607C7150.9304 82.790822 7150.9442 79.70782 7153.8475 70.678363C7155.3007 66.159011 7155.8504 65.5 7158.1674 65.5C7162.1332 65.5 7162.4662 64.481295 7159.6985 60.815679C7155.5234 55.286185 7154.4829 50.101401 7155.9267 42.022174C7157.6729 32.251255 7155.375 25.0 7150.5325 25.0C7146.4141 25.0 7144.8457 28.119998 7144.6652 36.672418C7144.513 43.881828 7144.7962 45.093001 7148.25 52.008858C7150.3125 56.13873 7152.0 60.429326 7152.0 61.543517C7152.0 63.826568 7148.5885 73.961382 7146.3868 78.218997C7145.0437 80.816182 7145.1598 81.528886 7147.9687 87.928575C7150.9677 94.761546 7151.7039 98.008643 7150.25 97.990791C7149.8375 97.985726 7147.8163 94.273226 7145.7585 89.740791Z"/>
</svg>
