<svg xmlns="http://www.w3.org/2000/svg"
     width="38.4" height="64.0"
     viewBox="7596.0017 32.6299 40.1048 66.8841">
  <path d="M7610.4529 92.698007C7611.7843 88.256883 7612.1628 78.429788 7611.1069 75.716059C7610.4815 74.108662 7607.9056 71.615438 7605.0118 69.816584C7602.2553 68.103039 7600.0017 66.205813 7600.0037 65.600524C7600.0091 64.028954 7603.811 58.0 7604.7967 58.0C7605.2511 58.0 7606.6136 58.922957 7607.8244 60.051016C7609.0352 61.179075 7610.4313 61.851502 7610.9267 61.545299C7611.9281 60.926388 7611.4949 41.609751 7610.4413 39.905099C7610.0745 39.311465 7608.9251 39.047838 7607.8871 39.319262C7606.8492 39.590686 7606.0 39.413463 7606.0 38.925432C7606.0 37.524944 7611.0299 36.629889 7612.2188 37.818812C7612.8264 38.426427 7613.4606 44.496466 7613.6821 51.824592C7614.1265 66.526931 7613.4307 67.916179 7607.9376 63.294022C7605.3833 61.144733 7604.657 60.926745 7603.9118 62.085797C7602.4971 64.286013 7603.2887 66.371767 7606.0384 67.689669C7607.4211 68.352362 7609.6655 70.081576 7611.0262 71.532368C7613.3302 73.989119 7613.4938 74.851387 7613.4103 84.095022C7613.3289 93.100822 7613.4678 93.887808 7614.9103 92.593696C7616.7484 90.944711 7621.3545 91.517293 7623.0919 93.610739C7624.5348 95.349368 7622.8289 95.513992 7619.8561 93.922997C7618.7493 93.330645 7617.0914 93.183269 7616.1719 93.595494C7615.2523 94.007719 7613.4411 94.468974 7612.147 94.620504C7610.1464 94.854742 7609.8926 94.566752 7610.4529 92.698007Z M7625.6183 91.47545C7623.6581 89.515285 7622.0406 84.031187 7621.3486 77.0C7620.827 71.699684 7620.9379 71.374883 7624.4037 68.053833C7626.8576 65.702357 7628.0 63.717016 7628.0 61.803833C7628.0 58.592489 7627.9942 58.589892 7624.4375 60.210428C7622.1414 61.256605 7621.5922 61.16282 7620.3905 59.519298C7618.533 56.979113 7618.5947 47.911555 7620.4863 45.44113C7621.8275 43.68935 7621.9098 44.220935 7621.3296 50.890683L7620.6867 58.281366L7624.4894 57.567972C7631.1124 56.325485 7632.1065 61.925911 7626.3868 68.256979C7623.0143 71.989899 7622.8056 72.597605 7623.2536 77.37818C7623.7552 82.729448 7624.9102 86.030892 7627.5486 89.654705C7629.4392 92.251394 7627.8723 93.729398 7625.6183 91.47545Z"/>
</svg>
