<svg xmlns="http://www.w3.org/2000/svg"
     width="38.0" height="64.0"
     viewBox="4800.2714 10.5220 54.0865 91.0537">
  <path d="M4817.3203 93.219319C4808.6738 81.524338 4804.2714 61.00527 4805.4728 38.0C4806.1836 24.388167 4807.2397 19.505741 4809.6751 18.571175C4812.9839 17.301458 4813.6776 19.746231 4814.4052 35.243329C4815.3896 56.206055 4817.7486 68.035761 4822.1249 73.955105C4824.8111 77.588405 4825.5637 77.078431 4828.2497 69.804541C4831.2198 61.761629 4832.7464 55.015836 4835.5365 37.606155C4838.7901 17.30406 4840.1501 14.521993 4843.5794 21.153553C4850.3579 34.261758 4841.5217 78.350947 4829.4894 91.456525C4824.3823 97.019239 4820.5411 97.575673 4817.3203 93.219319Z M4828.3391 88.75C4832.0748 84.178684 4836.3487 75.514671 4837.4702 70.239935C4837.8514 68.446899 4838.7697 65.746899 4839.5109 64.239935C4840.2521 62.732971 4841.6117 56.246355 4842.5323 49.825234C4843.939 40.013042 4844.0132 37.006727 4842.9969 30.98141C4842.3318 27.038429 4841.4379 24.192074 4841.0104 24.656177C4840.1515 25.588607 4838.207 35.210933 4837.0002 44.5C4836.0421 51.875027 4834.5564 58.103576 4831.2848 68.460545C4826.9782 82.094184 4824.7716 83.76559 4820.3411 76.75C4815.3037 68.773168 4811.7985 52.351046 4811.4301 35.0C4811.1257 20.669529 4811.2167 21.383276 4809.8661 22.733908C4808.2875 24.312507 4808.1708 56.248697 4809.7052 66.741569C4811.5536 79.380651 4818.5048 93.0 4823.1074 93.0C4824.0747 93.0 4826.429 91.0875 4828.3391 88.75Z"/>
</svg>
