<svg xmlns="http://www.w3.org/2000/svg"
     width="63.2" height="64.0"
     viewBox="3157.7711 14.2097 85.5149 86.6251">
  <path d="M 3208.0312 36.25 C 3207.1178 35.053142 3207.241 33.87954 3207.9375 30.25 C 3209.0488 24.458582 3208.0399 20 3205.5938 20 C 3204.7851 20 3202.5183 23.0375 3200.5625 26.75 C 3198.6067 30.4625 3195.883 34.85 3194.5312 36.5 L 3192.0938 39.5 L 3189.625 36.5 C 3188.2759 34.85 3186.6274 31.7 3185.9688 29.5 C 3183.2627 20.462573 3180.8977 18.209696 3177.7812 21.75 C 3173.9176 26.139151 3175.5184 37.335143 3181 44.15625 C 3183.8003 47.640895 3184.0421 48.468305 3183.4375 52.5 C 3182.6363 57.842512 3180.7532 58.358097 3176.0938 54.4375 C 3172.4082 51.33639 3171 51.951944 3171 56.65625 C 3171 59.601461 3171.8886 61.025396 3176.3438 65.375 C 3181.9646 70.862677 3183.5582 75.021868 3182.3438 81.09375 C 3181.677 84.427231 3179.515 84.850971 3174.9688 82.5 C 3171.6211 80.768899 3170.448 78.824314 3168.375 71.84375 C 3167.1246 67.633047 3166.5403 66.923832 3164.6875 67.1875 C 3162.7869 67.457972 3162.4535 68.209029 3162.1875 72.875 C 3161.7711 80.180356 3165.1581 91.185815 3168.6562 93.9375 C 3172.2535 96.767147 3182.013 96.834825 3185.9062 94.0625 C 3190.73 90.627748 3193.5522 90.522254 3200.1875 93.5 C 3205.74 95.991849 3206.6165 96.106037 3210.0625 94.96875 C 3214.3186 93.564106 3220.1128 88.358155 3223.6562 82.75 C 3225.1146 80.441898 3227.751 78.19846 3230.5 76.90625 C 3235.6515 74.48476 3239.286 69.388746 3238.8125 65.28125 C 3238.3869 61.589868 3235.5127 61.15387 3232.1562 64.28125 C 3229.0226 67.201078 3225.2429 69.289837 3224.2188 68.65625 C 3223.8177 68.408094 3222.3873 65.22103 3221.0312 61.59375 C 3219.0376 56.260692 3218.1546 55 3216.4062 55 C 3210.8576 55 3209.6314 64.978017 3214.3438 71.78125 C 3217.2962 76.043569 3217.2522 76.790281 3213.6875 80.75 C 3211.096 83.628722 3209.8721 83.572257 3202.9688 80.3125 L 3197.2812 77.625 L 3197.25 63.5625 C 3197.2191 49.881841 3197.2988 49.432826 3199.75 46.8125 L 3202.2812 44.125 L 3202.5312 44.25 L 3205.125 40.46875 C 3205.0366 39.758737 3205.2913 39.397404 3205.8438 39.4375 L 3208.0312 36.25 z M 3179.4375 23.21875 C 3180.3023 22.640544 3181.3151 24.476107 3182.9062 29.1875 C 3185.4119 36.607091 3188.8986 41.990646 3191.1875 42 C 3193.3843 42.008977 3199.7251 34.621438 3202.1562 29.25 C 3204.6554 23.72826 3206.4648 23.647097 3205.5938 29.09375 C 3204.7667 34.266421 3202.1362 39.457052 3197.5312 44.96875 C 3193.9645 49.237944 3193.9243 49.365766 3194.0625 57.875 C 3194.1394 62.61078 3193.8711 69.7625 3193.4688 73.75 C 3192.7577 80.796781 3192.8063 81 3194.9688 81 C 3196.1925 81 3198.4061 81.869355 3199.9062 82.9375 C 3201.4063 84.005644 3204.9337 85.193049 3207.7188 85.5625 L 3212.7812 86.21875 L 3216.875 81.03125 C 3219.1373 78.169265 3221 75.402618 3221 74.90625 C 3221 74.409881 3219.6718 72.805491 3218.0312 71.34375 C 3214.693 68.369368 3213.3882 63.761513 3214.8438 60 C 3215.9153 57.230645 3215.5521 56.699453 3220.4375 68.5 C 3221.4387 70.918512 3222.5272 72 3223.9688 72 C 3226.2526 72 3231.0459 69.299147 3232.3125 67.28125 C 3233.2925 65.719943 3236 65.578529 3236 67.09375 C 3236 69.021241 3229.2935 75 3227.125 75 C 3225.7486 75 3224.141 76.447528 3222.4062 79.25 C 3218.6813 85.267465 3214.0532 89.932303 3210.1875 91.5625 C 3207.0766 92.874375 3206.4961 92.75899 3200.9688 89.96875 C 3197.7234 88.330519 3194.3907 87 3193.5625 87 C 3192.7342 87 3189.5498 88.35 3186.5 90 C 3179.0389 94.03659 3171.8524 94.218466 3169.375 90.4375 C 3167.6033 87.733549 3164 77.621097 3164 75.34375 C 3164 72.849662 3165.6003 73.960313 3166.8125 77.3125 C 3168.9151 83.12733 3172.3114 85.443025 3178.8125 85.46875 L 3184.5 85.5 L 3184.6562 73 C 3184.7497 66.125 3185.3861 57.201388 3186.0625 53.1875 L 3187.3125 45.90625 L 3184.25 42.6875 C 3178.8237 36.967679 3176.5856 29.827132 3178.5938 24.59375 C 3178.8665 23.883042 3179.1492 23.411485 3179.4375 23.21875 z M 3174.2188 57.8125 C 3174.4271 57.458098 3175.6695 57.989344 3178.0312 59.25 C 3180.3691 60.497924 3181.9459 62.026884 3181.7812 62.875 C 3181.2542 65.590348 3179.1997 65.135397 3176.5938 61.71875 C 3174.8414 59.421339 3174.0104 58.166902 3174.2188 57.8125 z "/>
</svg>
