<svg xmlns="http://www.w3.org/2000/svg"
     width="45.3" height="64.0"
     viewBox="2007.0000 17.0000 61.5882 87.0000">
  <path d="M2036.6843 96.471021C2035.1356 94.530114 2032.0857 91.816668 2029.9068 90.44114L2025.945 87.940181L2022.6281 90.47009C2020.8038 91.861541 2018.3739 93.0 2017.2282 93.0C2015.3004 93.0 2011.0 88.793135 2011.0 86.907295C2011.0 86.454652 2013.0566 84.879067 2015.5702 83.405994L2020.1404 80.72768L2022.9682 82.818344L2025.7959 84.909008L2030.9743 79.433614C2033.8225 76.422148 2036.0059 73.580333 2035.8264 73.11847C2035.4772 72.220005 2026.1486 64.0 2025.4781 64.0C2025.258 64.0 2024.142 65.00454 2022.9982 66.232312C2021.0438 68.330061 2020.7552 68.371265 2018.2092 66.915866C2016.0767 65.696797 2015.532 64.683544 2015.6504 62.15597C2015.7332 60.389844 2016.3463 58.287645 2017.0129 57.484417C2018.0631 56.218991 2018.6151 56.301785 2021.1468 58.104529C2023.8932 60.060111 2024.2179 60.087252 2026.5542 58.55647C2029.2198 56.809891 2035.0 49.36518 2035.0 47.678544C2035.0 47.116786 2032.8913 44.636639 2030.3139 42.167107C2025.6305 37.679562 2025.6262 37.677979 2022.7329 39.338524C2018.9798 41.492488 2017.821 41.433661 2014.6349 38.92742C2011.055 36.111505 2011.3084 34.751271 2016.0213 31.48521C2019.5027 29.072635 2020.3818 28.852949 2022.5684 29.849209C2026.2877 31.543839 2026.4947 31.442137 2030.4045 26.0C2032.4301 23.180596 2034.7821 21.0 2035.7976 21.0C2036.8054 21.0 2040.1667 24.083022 2043.4295 28.0C2046.6365 31.85 2049.5984 35.0 2050.0116 35.0C2050.4247 35.0 2052.1939 33.5375 2053.9433 31.75L2057.1239 28.5L2060.547 32.34364C2064.3485 36.612139 2064.1628 38.153566 2059.3953 41.903717L2056.7779 43.962539L2053.2208 41.030445L2049.6636 38.098352L2045.8862 41.090127C2040.8655 45.066637 2040.1897 47.471237 2043.1556 50.806379C2048.3484 56.645548 2050.1217 57.173781 2053.5907 53.914796C2055.7232 51.911449 2055.9137 51.89738 2058.4458 53.556413C2062.5186 56.225033 2063.3227 58.475324 2061.4781 62.042417C2059.3675 66.123802 2057.6543 66.602064 2054.1311 64.093368C2052.5142 62.942016 2050.9378 62.0 2050.628 62.0C2049.7347 62.0 2042.0 72.562209 2042.0 73.782053C2042.0 74.387226 2044.0904 77.002783 2046.6453 79.594401C2050.4955 83.499873 2051.5653 84.107795 2052.8953 83.145959C2057.5743 79.762184 2058.9278 79.58359 2061.5099 82.009292C2064.4223 84.745333 2064.5882 86.172607 2062.385 89.535183C2060.5208 92.380348 2057.443 92.698995 2054.1441 90.388368C2051.9029 88.818549 2051.7134 88.922325 2046.8416 94.388368C2044.0907 97.474766 2041.3135 99.999987 2040.67 99.999971C2040.0265 99.999954 2038.2329 98.411927 2036.6843 96.471021Z M2020.3754 89.516241C2022.6273 87.810994 2021.867 85.0 2019.1538 85.0C2016.7278 85.0 2014.5998 87.514769 2015.3567 89.487265C2016.0769 91.36402 2017.9212 91.374668 2020.3754 89.516241Z M2021.8484 37.11486C2023.563 36.028278 2022.9536 32.601085 2020.9885 32.278966C2018.7369 31.909876 2015.6607 34.673325 2016.3432 36.451956C2016.991 38.14017 2019.7132 38.467964 2021.8484 37.11486Z M2021.5271 63.956195C2022.4642 62.439845 2019.9241 59.675872 2018.7096 60.890401C2017.5881 62.01191 2018.4606 65.0 2019.9096 65.0C2020.4444 65.0 2021.1723 64.530288 2021.5271 63.956195Z M2043.8465 65.934343C2047.9707 60.968212 2047.6481 59.032215 2041.7287 53.223763L2037.3708 48.947527L2034.0632 54.052039C2032.244 56.859521 2030.1356 59.394472 2029.3778 59.685264C2028.62 59.976057 2028.0017 60.728333 2028.0039 61.356989C2028.0092 62.945272 2036.9168 70.004015 2038.8879 69.981974C2039.7746 69.97206 2042.0059 68.150626 2043.8465 65.934343Z M2042.9825 40.518071C2046.0701 37.332485 2046.2467 36.829429 2045.0574 34.607311C2044.3425 33.271453 2041.8344 30.291035 2039.4839 27.984159C2035.2195 23.799044 2035.2061 23.794302 2033.3551 25.823244C2028.1104 31.572128 2027.7592 32.487953 2029.3447 36.282648C2030.8332 39.844939 2035.4453 43.915137 2038.0538 43.96832C2038.9084 43.985744 2041.1263 42.433132 2042.9825 40.518071Z M2045.9937 91.849962C2047.6472 89.56744 2049.0 87.298162 2049.0 86.807121C2049.0 85.375817 2039.8527 76.0 2038.4563 76.0C2037.7578 76.0 2035.2809 78.275707 2032.9522 81.057126L2028.7181 86.114252L2031.1091 87.781704C2032.4241 88.698802 2035.075 90.91092 2037.0 92.69752C2038.925 94.484121 2041.0597 95.958061 2041.7437 95.972942C2042.4278 95.987824 2044.3403 94.132483 2045.9937 91.849962Z M2059.9686 59.627555C2059.9513 59.0074 2058.879 57.73128 2057.5858 56.791734C2055.3485 55.166369 2055.1482 55.178798 2053.4567 57.047864C2052.4789 58.128283 2051.8637 59.15872 2052.0895 59.337725C2055.5889 62.111988 2057.4917 62.836844 2058.6818 61.849078C2059.4068 61.247396 2059.9859 60.247711 2059.9686 59.627555Z M2059.6703 38.416723C2060.0241 37.494787 2059.4072 35.962776 2058.1935 34.749026C2056.4532 33.008755 2055.8524 32.877616 2054.5545 33.954748C2052.5053 35.655459 2052.5841 37.658409 2054.75 38.919901C2057.2855 40.396675 2058.9769 40.223698 2059.6703 38.416723Z M2060.7921 87.961247C2061.8543 86.260484 2061.8007 85.657868 2060.4691 84.326275C2059.1117 82.968833 2058.5084 82.925113 2056.4365 84.034008C2053.551 85.578235 2053.3677 86.799565 2055.75 88.607954C2058.1926 90.462142 2059.3207 90.317455 2060.7921 87.961247Z"/>
</svg>
