<svg xmlns="http://www.w3.org/2000/svg"
     width="33.1" height="64.0"
     viewBox="2119.9062 18.6717 44.0938 85.3283">
  <path d="M 2123.9062 88.59375 L 2125.25 100 C 2126.2055 99.69358 2127.8724 99.41726 2129.9062 99.34375 C 2139.0128 99.014621 2145.4772 94.946 2148.4688 87.6875 C 2151.2754 80.877758 2151.5798 80.544167 2154.5938 80.3125 C 2157.659 80.0769 2160 77.726143 2160 74.90625 C 2160 73.964719 2158.3573 71.865225 2156.3438 70.25 C 2153.0603 67.615944 2152.5573 66.552638 2151.4062 59.90625 C 2150.6963 55.806054 2150.3089 48.703189 2150.5625 44 C 2151.1227 33.609215 2150.3404 27.640206 2148 24.75 C 2146.385 22.755545 2145.9901 22.671721 2143.625 23.9375 C 2140.0282 25.86244 2137.3177 32.071974 2136.0625 41.3125 C 2134.134 55.509135 2134.5984 60.830566 2138.5938 70.375 L 2142.1875 78.96875 L 2140.125 82.3125 C 2138.9919 84.145979 2137.1983 86.400779 2136.1562 87.34375 C 2133.74 89.530379 2128.2374 91.18125 2127.4688 89.9375 C 2127.1539 89.42802 2126.0169 89 2124.9688 89 C 2124.6395 89 2124.2677 88.769151 2123.9062 88.59375 z M 2144 26 C 2146.8512 26 2147.8324 30.837036 2148.2188 47 C 2148.6465 64.896202 2149.7437 69.290947 2154.5938 72.46875 C 2155.9213 73.338638 2157 74.943929 2157 76.03125 C 2157 78.121264 2155.5404 78.683439 2154.5 77 C 2154.1601 76.45 2153.0633 76 2152.0625 76 C 2150.255 76 2149.3069 77.729357 2147.0312 85.15625 C 2145.5395 90.024412 2141.8745 93.521029 2136.25 95.4375 C 2130.2283 97.489314 2128.6825 97.411586 2126.5 95 C 2124.733 93.04752 2124.7413 93 2127.3438 93 C 2132.1449 93 2138.3165 89.305359 2141.25 84.65625 C 2144.5199 79.474028 2144.609 78.214961 2142.0625 72.625 C 2136.6029 60.640592 2136.132 56.516006 2138.4375 41.375 C 2139.8001 32.42641 2142.1173 26 2144 26 z "/>
</svg>
