<svg xmlns="http://www.w3.org/2000/svg"
     width="22.7" height="64.0"
     viewBox="5818.9970 11.5945 32.0202 90.3849">
  <path d="M5827.4698 88.765586C5823.6671 81.210404 5823.6061 80.920736 5824.8369 76.265586C5825.53 73.644514 5826.9752 69.670424 5828.0485 67.434276C5830.4944 62.338467 5830.5137 58.935982 5828.1235 54.210162C5825.7551 49.527554 5822.997 37.441868 5823.0098 31.802595C5823.0238 25.636206 5827.0391 17.457995 5830.4761 16.595342C5834.4638 15.59451 5836.7719 16.717034 5838.5857 20.539332C5839.9401 23.393505 5840.0908 25.939921 5839.5025 36.02837C5838.8032 48.020094 5838.8166 48.127872 5841.4835 51.976191C5842.9603 54.107168 5844.8358 56.10673 5845.6512 56.419662C5846.5878 56.779042 5847.0172 58.003724 5846.817 59.744314C5846.5706 61.88628 5845.7309 62.748582 5843.0466 63.616167C5835.9969 65.894738 5834.0987 77.974801 5839.1551 88.382313C5841.1804 92.551099 5841.1736 96.0 5839.14 96.0C5837.8923 96.0 5835.5729 89.815519 5834.0552 82.442275C5832.9915 77.274392 5833.0423 75.596779 5834.4009 71.021699C5836.5604 63.749996 5838.5147 61.0 5841.5231 61.0C5844.8834 61.0 5844.6398 59.706492 5840.5 55.566667C5838.575 53.641667 5836.9567 51.264167 5836.9037 50.283333C5836.5821 44.324733 5836.869 34.790834 5837.5012 30.428758C5838.485 23.640935 5836.1849 18.725411 5832.2417 19.189095C5828.4799 19.631453 5825.7113 24.785449 5825.8532 31.08198C5825.9873 37.035935 5828.5744 48.691094 5830.3825 51.487696C5833.515 56.332543 5833.2443 59.319544 5828.2895 74.580414L5826.3153 80.660828L5829.2306 86.832067C5833.6807 96.251842 5832.1074 97.979372 5827.4698 88.765586Z"/>
</svg>
