<svg xmlns="http://www.w3.org/2000/svg"
     width="53.4" height="64.0"
     viewBox="6174.7758 15.0000 71.7242 86.0045">
  <path d="M 6195.0312,19 C 6190.3861,19 6185.8682,22.410453 6182.9688,28.09375 6180.0657,33.784129 6180.4577,35.359689 6186,40 6191.5732,44.666161 6192.2296,47.167018 6188.9688,51.3125 6185.6911,55.479417 6182.2315,64.014797 6181,70.9375 6178.7758,83.441189 6183.1994,96 6189.8438,96 6191.2051,96 6194.3284,94.812467 6196.7812,93.375 6200.9112,90.954741 6201.6292,90.865562 6206.5,91.84375 6209.3928,92.424726 6213.2724,93.808065 6215.125,94.9375 6216.9776,96.066935 6219.1331,96.997944 6219.9062,97 6221.605,97.004518 6228.3504,92.006581 6227.625,91.28125 6227.3429,90.999091 6225.8844,91.712297 6224.4062,92.875 6221.0462,95.518002 6218.8142,95.557225 6216.5,93 6212.4331,88.506102 6202.8266,87.831196 6196.4062,91.59375 6188.1538,96.430044 6184.1537,92.977743 6183.2812,80.25 6182.5848,70.089487 6183.997,63.935777 6188.9688,55.3125 6191.1944,51.452 6193,47.12354 6193,45.6875 6193,43.124602 6190.712,40.276666 6186.25,37.28125 6184.9464,36.406105 6184,34.754362 6184,33.34375 6184,27.881039 6189.9559,21 6194.6875,21 6197.0418,21 6197.085,21.15197 6196.4375,26.875 6195.584,34.418495 6196.7813,35.244037 6202.625,31.125 6205.0606,29.408242 6207.4973,28 6208.0312,28 6210.4131,28 6208.5661,32.008334 6203.5312,37.78125 6197.2213,45.016268 6197.2338,45.573565 6203.9688,54.09375 6206.1831,56.895146 6208,59.58124 6208,60.0625 6208,61.437313 6211.7057,63.04683 6213.375,62.40625 6217.2711,60.911186 6227.0171,41.813163 6226.9688,35.78125 6226.9588,34.530009 6225.6088,31.514015 6223.9688,29.09375 6221.5727,25.557591 6221,25.114367 6221,26.875 6221,28.080035 6221.9352,30.370431 6223.0938,31.9375 6224.9707,34.476138 6225.0881,35.294506 6224.1562,39.625 6222.1872,48.776605 6215.7463,60.030128 6212.5,59.96875 6210.5414,59.931719 6206.9689,55.790921 6202.2812,48.125 L 6200.0938,44.5 6203.4375,41 C 6208.3082,35.927189 6211.1415,30.151714 6209.9062,27.84375 6208.597,25.397334 6207.7127,25.516917 6202.9688,28.65625 6200.7693,30.111736 6198.6544,30.998164 6198.2812,30.625 6197.908,30.251836 6198.1449,27.902613 6198.8125,25.40625 6199.4802,22.909887 6199.7845,20.448459 6199.4688,19.9375 6199.153,19.42654 6197.1566,19 6195.0312,19 z M 6223.875,21.09375 C 6223.3509,20.911063 6223,21.190059 6223,22.03125 6223,22.600601 6223.7368,24.175601 6224.625,25.53125 6226.7527,28.778492 6228.9243,28.638825 6233,25 6236.893,21.524354 6236.3916,19.74009 6232.4062,22.875 6229.0494,25.515563 6227.3773,25.55565 6225.7812,23 6225.1097,21.92474 6224.3991,21.276437 6223.875,21.09375 z M 6242.5,23.65625 6239,25.625 C 6234.9153,27.912628 6233.4219,30.759554 6228.9062,44.9375 6225.608,55.293256 6219.5383,66.204337 6216.4062,67.40625 6214.3176,68.207721 6210.3285,65.986546 6203.9375,60.53125 6201.0109,58.033164 6198.03,56 6197.3125,56 6194.8029,56 6190.3595,68.058948 6189.4375,77.34375 6188.9019,82.73767 6189.0681,83.777195 6190.9375,85.75 6193.6421,88.604268 6194.6968,88.572754 6199.2188,85.5 6203.8533,82.350762 6204.6305,82.394078 6209.4375,86.03125 6211.598,87.665949 6213.8834,89 6214.5312,89 6216.5118,89 6225,82.006881 6225,80.375 6225,79.32513 6223.6768,79.985757 6220.8125,82.4375 6215.8605,86.676226 6214.1512,86.835283 6210.1875,83.5 6206.5109,80.406377 6203.0588,80.33852 6198,83.25 6194.8045,85.089071 6193.8423,85.248642 6192.7812,84.1875 6189.2007,80.606966 6193.7016,60 6198.0625,60 6199.1214,60 6201.6859,61.484672 6203.75,63.3125 6209.2192,68.155666 6212.1813,70 6214.5312,70 6219.4894,70 6226.6424,58.364705 6232.6562,40.53125 6234.9686,33.674226 6237.0137,29.50857 6239.25,27.125 L 6242.5,23.65625 z M 6229.125,83 C 6227.4847,83 6223,86.025524 6223,87.125 6223,88.844441 6225.681,87.968492 6228,85.5 6229.2917,84.125 6229.7903,83 6229.125,83 z"/>
</svg>
