<svg xmlns="http://www.w3.org/2000/svg"
     width="32.0" height="64.0"
     viewBox="5530.5865 13.0896 45.4135 90.7089">
  <path d="M5537.5592 97.781012C5536.7016 96.556698 5536.0004 94.642615 5536.0008 93.527494C5536.0018 90.878745 5541.4691 79.343629 5542.9589 78.847041C5543.8291 78.556975 5543.8266 77.239948 5542.9489 73.481309C5542.3091 70.741589 5541.8221 63.116508 5541.8667 56.536685C5541.9371 46.152199 5541.7 44.304584 5540.0698 42.536685C5535.0508 37.093865 5534.5865 20.0 5539.4576 20.0C5540.2206 20.0 5541.3724 21.598304 5542.0171 23.551786C5543.4164 27.791811 5544.9494 27.605269 5546.4978 23.006552C5548.1493 18.101497 5550.2924 17.08956 5553.714 19.599238C5555.2463 20.723189 5557.1437 23.073159 5557.9305 24.821393C5558.7172 26.569627 5559.9174 28.0 5560.5975 28.0C5561.2777 28.0 5563.3879 26.129406 5565.2871 23.843124C5569.2295 19.09694 5572.0 19.073824 5572.0 23.787114C5572.0 28.145591 5569.2991 36.280155 5566.4656 40.455492C5563.9973 44.09284 5563.9181 44.717862 5563.8004 61.490441C5563.6861 77.77969 5563.8036 78.934808 5565.8362 81.518874C5568.8227 85.315616 5570.3746 91.431498 5569.0022 93.995823C5567.6575 96.508485 5566.9599 96.498898 5562.5676 93.907394L5559.0209 91.814789L5558.0721 94.310255C5556.4465 98.585935 5554.8961 98.618129 5551.3958 94.448882C5548.1921 90.632993 5548.1015 90.598211 5546.0937 92.415181C5544.9703 93.431904 5543.7841 95.104897 5543.4578 96.132945C5543.1315 97.160993 5542.0217 98.453228 5540.9914 99.004579C5539.5082 99.79841 5538.7939 99.543767 5537.5592 97.781012Z M5543.8257 91.959066C5546.6341 88.577142 5547.0132 87.539707 5546.2632 85.289592C5545.7747 83.824066 5544.8339 82.44464 5544.1726 82.2242C5542.6111 81.70371 5537.7711 92.239957 5538.5906 94.375597C5539.4891 96.716946 5540.1144 96.428305 5543.8257 91.959066Z M5543.4388 36.474678C5543.9487 33.756356 5543.6152 32.268407 5541.982 29.974678C5540.817 28.338605 5539.6176 27.0 5539.3167 27.0C5538.7136 27.0 5539.9244 38.049976 5540.6589 39.25C5541.6864 40.928495 5542.8145 39.802173 5543.4388 36.474678Z M5556.8102 89.921672C5556.9808 88.589752 5557.7687 85.7 5558.5611 83.5C5562.6975 72.015413 5561.7393 43.243478 5556.7626 29.5C5555.4658 25.918507 5552.1432 22.0 5550.4032 22.0C5548.6259 22.0 5547.2788 26.997755 5545.9561 38.499046C5543.3476 61.18173 5544.8257 76.099434 5550.7416 86.796059C5554.2978 93.226154 5556.2576 94.235557 5556.8102 89.921672Z M5566.6792 89.41077C5565.5841 82.662204 5561.0 80.266956 5561.0 86.443296C5561.0 88.867882 5561.6575 90.347148 5563.2225 91.443296C5566.576 93.792173 5567.3193 93.355112 5566.6792 89.41077Z M5567.9548 28.621841L5568.0 25.743681L5564.75 28.285002C5562.084 30.369647 5561.5476 31.425954 5561.7648 34.163162C5562.2599 40.40324 5563.0207 40.773641 5565.5373 36.0C5566.8421 33.525 5567.93 30.204828 5567.9548 28.621841Z"/>
</svg>
