<svg xmlns="http://www.w3.org/2000/svg"
     width="34.4" height="64.0"
     viewBox="2142.8180 16.0000 46.9977 87.3332">
  <path d="M 2170.6667,98.333333 C 2170.3,97.966667 2170,96.461411 2170,94.988321 2170,91.838405 2167.2386,89 2164.1741,89 2162.9815,89 2160.2624,90.575 2158.1317,92.5 2153.4295,96.748135 2152,96.897235 2152,93.139547 2152,89.941531 2155.8782,83.58814 2159.7666,80.416081 2162.0963,78.515629 2162.3181,77.679256 2162.2865,70.916081 2162.2455,62.161688 2161.1299,61.324712 2154.9517,65.41325 2152.8019,66.835962 2150.8082,68 2150.5214,68 2150.2346,68 2150.0074,66.7625 2150.0165,65.25 2150.0407,61.197119 2154.0277,54.841559 2158.2769,52.082458 2161.5763,49.94003 2161.9987,49.200336 2161.989,45.582458 2161.9829,43.337106 2161.6982,39.807398 2161.3563,37.738663 L 2160.7346,33.977326 2156.3788,36.411823 C 2151.0257,39.403736 2149.6935,38.098324 2154.4204,34.492888 2156.7106,32.746114 2158.8276,31.964257 2160.6892,32.177708 L 2163.5,32.5 2164.1325,42.5 C 2164.4804,48 2164.8179,58.611459 2164.8825,66.08102 L 2165,79.662041 2162.4136,81.046266 C 2158.931,82.910047 2153.7705,89.569794 2154.1762,91.676623 2154.4514,93.105369 2155.0587,92.902327 2158.0017,90.397652 2159.9257,88.760115 2162.7582,86.875967 2164.296,86.210656 2166.7924,85.130574 2167.3548,85.263868 2169.546,87.455046 2170.8957,88.804771 2172,90.843669 2172,91.98593 2172,94.841113 2174.6631,95.614831 2177.0514,93.453501 2179.4879,91.248495 2178.9363,89.01246 2174.5431,83.2848 L 2171.3099,79.069599 2170.6029,55.854278 2169.8959,32.638956 2173.9479,28.935001 C 2178.7663,24.530557 2179.4028,22.058298 2175.0574,24.625155 2172.1895,26.319261 2172.0682,26.305804 2170.278,24.094995 2168.7059,22.153515 2167.869,21.92777 2164.4706,22.528567 2161.3872,23.073672 2159.2152,24.561264 2154.75,29.185919 2148.6759,35.47702 2146.818,35.102772 2152.1302,28.65818 2156.7224,23.087037 2162.136,20 2167.3135,20 2169.7077,20 2172.0049,20.3375 2172.4182,20.75 2172.8316,21.1625 2174.8191,21.5 2176.8349,21.5 2180.0008,21.5 2180.5398,21.840886 2180.7926,24.002665 2181.0177,25.929088 2180.0392,27.379621 2176.5426,30.302437 2171.8361,34.236515 2171.1202,36.665223 2172.8524,42.820456 L 2173.5054,45.140911 2177.792,42.035721 C 2184.0784,37.481891 2185.8157,39.520602 2182.0084,46.98355 2180.913,49.130681 2178.3943,52.463161 2176.4113,54.389063 2173.0837,57.620761 2172.8585,58.203275 2173.4908,61.945351 2173.8675,64.175408 2174.4818,66 2174.8558,66 2175.2297,66 2177.1913,64.875 2179.2148,63.5 2183.538,60.56235 2184,60.475339 2184,62.598871 2184,65.860443 2180.5349,71.341847 2177.2467,73.281955 2174.4021,74.960282 2173.9564,75.690185 2174.4864,77.801971 2174.8341,79.187132 2176.4419,81.925875 2178.0593,83.888067 2182.5291,89.310753 2181.7469,94.52818 2176.02,97.48965 2172.8005,99.15455 2171.6666,99.333247 2170.6667,98.333333 z M 2162,56.301532 C 2162,51.841185 2160.0901,52.051023 2155.6164,57.002881 2150.3336,62.850317 2150.7728,64.346413 2157,61.715502 2161.5638,59.787348 2162,59.315045 2162,56.301532 z M 2178.25,48.643355 C 2179.7625,46.249166 2181,44.037357 2181,43.728221 2181,43.419086 2179.2037,44.141272 2177.0082,45.333079 2173.8511,47.046927 2173.0148,48.074987 2173.0082,50.25 2172.9962,54.268655 2175.1045,53.622431 2178.25,48.643355 z M 2178,70 C 2180.9716,67.028399 2180.4472,65.717386 2177,67.5 2175.35,68.353248 2174,69.714804 2174,70.52568 2174,72.579294 2175.6357,72.364334 2178,70 z"/>
</svg>
