<svg xmlns="http://www.w3.org/2000/svg"
     width="38.4" height="64.0"
     viewBox="5534.8638 16.4644 51.5063 85.8432">
  <path d="M 5573.375,83.75 C 5572.9902,82.672008 5573.4849,81.054115 5574.8438,77.84375 5576.504,73.921042 5578.7558,63.695941 5580.5312,52.15625 5582.3701,40.203921 5580.6334,24.555608 5577.3125,23.28125 5574.2418,22.102936 5572.9883,26.24271 5568.875,51.5 5566.2762,67.458 5563.5022,78 5561.9062,78 5561.4005,78 5561,77.866619 5561,77.6875 5561,77.508382 5559.8378,74.020882 5558.4062,69.9375 5555.2266,60.868634 5554.228,54.354556 5553.4375,37.5 5552.8369,24.695062 5552.1125,22 5549.3438,22 5545.7168,22 5544.7945,31.385372 5545.9375,56.5 L 5546.9062,77.5 5543.9375,81.6875 C 5540.2522,86.89167 5538.8638,94.637387 5541.4375,95.625 5542.6161,96.077276 5544.1909,95.139359 5546.5625,92.625 5548.4477,90.626343 5550.511,89 5551.125,89 5551.739,89 5553.8215,90.8 5555.75,93 5559.5352,97.318245 5563.6753,98.307565 5566.0312,95.46875 5566.7351,94.620592 5567.3109,94.527248 5568.0938,94.78125 L 5570.25,90.3125 C 5570.2358,90.248065 5570.1654,90.189694 5570.1562,90.125 5569.9458,88.639555 5570.3275,88.295058 5571.2188,88.3125 L 5573.375,83.75 z M 5576.0938,27.59375 C 5576.5767,27.070282 5577.4139,27.923382 5578.0625,29.59375 5579.3332,32.866293 5578.509,55.14607 5576.875,61.65625 5576.3454,63.766145 5575.3125,67.975 5574.5938,71 5573.875,74.025 5571.2965,80.325 5568.875,85 5565.7435,91.045863 5563.8867,93.600146 5562.4062,93.8125 5559.4498,94.23652 5553.8575,87.019518 5550.9062,79 5548.656,72.885671 5548.5,71.204747 5548.5,50.75 5548.5,25.36716 5550.1046,20.464354 5551.1562,42.65625 5551.7476,55.135894 5553.4442,65.152714 5556,71.5 5556.4429,72.6 5557.3442,74.939762 5558,76.6875 5558.6557,78.435238 5560.0729,80.644608 5561.1562,81.625 5562.8488,83.156796 5563.2373,83.223586 5564.0312,81.96875 5566.0995,78.699735 5568.7069,67.855664 5570.9688,53 5573.0397,39.398702 5575.2382,28.520895 5576.0938,27.59375 z M 5547.25,81.25 C 5548.1546,80.782843 5548.8704,81.439777 5549.3438,83.25 5549.7726,84.889991 5549.1025,86.355043 5546.7812,88.75 5543.8516,91.772721 5542,92.802547 5542,91.4375 5542,91.12696 5542.9573,88.65196 5544.125,85.9375 5545.2614,83.295981 5546.3454,81.717157 5547.25,81.25 z"/>
</svg>
