<svg xmlns="http://www.w3.org/2000/svg"
     width="40.9" height="64.0"
     viewBox="3887.0000 6.8800 63.7777 99.8813">
  <path d="M 3930.3598,100.49517 C 3930.0422,99.667514 3930.0622,97.305014 3930.4043,95.24517 3930.7463,93.185327 3931.1328,90.73114 3931.2631,89.791423 3931.4873,88.174171 3925.2405,79.118512 3923.845,79.037856 3923.4848,79.017035 3921.9591,81.100377 3920.4547,83.667505 3918.0386,87.790265 3917.8525,88.703053 3918.8597,91.488502 3920.3952,95.734997 3920.2961,97.561056 3918.4286,99.428571 3915.3271,102.53001 3914.0987,101.56338 3907.0481,90.473658 3905.7194,88.383708 3905.8289,87.854466 3908.3387,84.232819 3913.366,76.978306 3912.555,69.240541 3906.4233,65.958945 3904.4325,64.893506 3903.8528,65.1332 3901.1767,68.128296 3899.522,69.98022 3897.6622,73.183959 3897.0439,75.247715 3894.9916,82.097618 3891,78.631821 3891,70 3891,62.891135 3894.576,57.000438 3900.4129,54.494328 3902.8854,53.43275 3903.9401,53.518682 3907.3887,55.062673 3909.6233,56.063135 3911.6371,56.696218 3911.8638,56.469524 3912.0905,56.24283 3911.7369,54.131949 3911.078,51.778677 3910.4191,49.425404 3910.0196,47.209744 3910.19,46.854988 3910.3605,46.500231 3909.6428,45.262731 3908.595,44.104988 3906.6052,41.90623 3904,41.279752 3904,43 3904,43.55 3902.4336,44 3900.5191,44 3897.5896,44 3896.933,43.581166 3896.3746,41.356358 3895.0029,35.890985 3901.6892,30.510676 3904.958,34.449442 3906.7881,36.654527 3908.1065,36.397215 3912.0378,33.067738 L 3915.5,30.135475 3913.75,26.986698 C 3911.542,23.013809 3911.5216,19.144056 3913.692,15.972506 3916.9386,11.228454 3918.9709,10.880002 3922.5455,14.454545 3925.7705,17.679634 3925.7324,21.976164 3922.4439,25.884259 3919.4493,29.443198 3919.9136,30.960921 3925.4966,35.862856 3929.5731,39.442056 3930.253,39.604964 3932.0547,37.434063 3934.4142,34.591016 3938.8378,32.842842 3940.8914,33.94187 3946.7777,37.092153 3942.2136,44.095657 3935.3903,42.383113 3931.8974,41.506455 3929.2274,44.300728 3928.4213,49.676488 3927.8647,53.387633 3928.0907,54.435832 3929.788,56.017146 3931.4161,57.53388 3931.7124,58.725697 3931.274,61.994109 3930.7853,65.637143 3931.2211,66.799004 3935.3228,72.788285 3937.8509,76.479728 3940.4715,81.602716 3941.1464,84.172702 3942.2259,88.283377 3942.1449,89.352226 3940.4733,93.059132 3939.4283,95.376682 3937.7366,98.336466 3936.714,99.63643 3934.616,102.30362 3931.2294,102.76131 3930.3598,100.49517 z M 3936.6479,95.743167 C 3937.8293,93.959425 3939.0994,91.480435 3939.4703,90.2343 3940.3168,87.390732 3938.4754,81.665112 3935.0965,76.633795 3929.1734,67.814163 3927.9982,65.437555 3928.4999,63.293496 3928.7858,62.071906 3928.0305,59.058064 3926.8079,56.541581 3924.8852,52.584002 3924.7548,51.566932 3925.7998,48.677087 3926.4599,46.851591 3927,44.581201 3927,43.631775 3927,41.875435 3918.9303,32.987724 3917.3602,33.014877 3916.8871,33.023059 3914.756,34.505311 3912.6245,36.308771 L 3908.7491,39.587788 3910.7513,43.543894 C 3913.1406,48.264698 3915.2003,57.314407 3914.375,59.465181 3913.5702,61.562361 3912.6112,61.410936 3907.9125,58.444766 3904.3849,56.217868 3903.4459,56.027772 3900.6049,56.965367 3896.6242,58.279142 3893,64.198316 3893,69.386155 3893,71.37377 3893.3464,73 3893.7697,73 3894.1931,73 3896.3306,70.732796 3898.5197,67.961769 3904.0156,61.005155 3906.3169,60.613812 3911.1652,65.811414 3914.0215,68.873516 3914.9944,70.761737 3914.978,73.211277 3914.9575,76.28503 3912.4875,82.540316 3909.9184,86.025018 3909.0381,87.218965 3909.4286,88.630067 3911.717,92.525018 3914.6762,97.561543 3917.8095,99.276768 3917.1516,95.5 3915.6755,87.025383 3915.9073,85.560567 3919.4859,80.75 3921.4293,78.1375 3923.6237,76 3924.3622,76 3925.1007,76 3927.8667,78.75155 3930.5088,82.114556 L 3935.3127,88.229111 3933.6514,92.864556 C 3931.6645,98.408398 3931.6257,99.002046 3933.25,98.993167 3933.9375,98.989409 3935.4666,97.526909 3936.6479,95.743167 z M 3903.8201,38.245529 C 3904.2419,35.275111 3901.191,34.018362 3899.4241,36.434719 3897.695,38.799424 3898.7579,41.176606 3901.3773,40.802872 3902.6984,40.614374 3903.6209,39.648641 3903.8201,38.245529 z M 3920.992,24.019411 C 3922.4501,20.499053 3921.6813,16.475425 3919.3819,15.593048 3916.8513,14.621954 3915,16.873513 3915,20.922445 3915,27.150652 3918.8671,29.149359 3920.992,24.019411 z M 3940.8233,38.332866 C 3940.3396,35.838884 3938.5878,35.69687 3935.9014,37.933858 L 3933.5,39.933461 3937.3233,39.966731 C 3940.3646,39.993195 3941.0805,39.659015 3940.8233,38.332866 z"/>
</svg>
