<svg xmlns="http://www.w3.org/2000/svg"
     width="35.9" height="64.0"
     viewBox="5715.4560 16.4459 49.6647 88.4336">
  <path d="M 5756.7188,20.71875 C 5756.0078,20.445886 5753.6453,21.514295 5751.4688,23.09375 5746.1805,26.93151 5744.9254,27.473477 5744.1562,26.28125 5742.9876,24.469681 5737.1536,22 5734.0625,22 5729.1194,22 5726.1785,28.227047 5727.9688,34.875 5728.9099,38.370037 5729.619,39.056209 5733.7812,40.59375 5740.4375,43.05261 5741,43.696641 5741,48.625 5741,53.50781 5741.1143,53.464316 5734.0938,51.84375 5727.9026,50.414675 5724.8837,51.4892 5722,56.21875 5719.7427,59.921084 5719.456,63.705728 5721.1562,67.4375 5723.0436,71.579827 5724.0602,70.376211 5723.4062,64.75 5722.8852,60.26674 5723.1127,59.083567 5725.0312,56.65625 5727.4669,53.574835 5728.9491,53.50137 5737.7812,56.03125 5740.1385,56.706455 5742.3713,56.972551 5742.7188,56.625 5743.679,55.664839 5744.3396,45.440784 5743.625,42.59375 5743.1441,40.677354 5741.9868,39.821644 5738.75,38.96875 5732.2729,37.262011 5730,35.419218 5730,31.90625 5730,25.01223 5734.309,23.053938 5740.7812,27 5744.8797,29.498875 5747.208,29.522658 5749.4062,27.09375 5751.5526,24.722081 5755,23.727107 5755,25.46875 5755,26.168087 5754.1,27.882826 5753,29.28125 5750.1391,32.918352 5750.4981,34.830148 5754.75,38.65625 L 5758.5,42.03125 5754,41.78125 5749.5,41.5 5748.8438,48.3125 C 5748.2307,54.482504 5748.3818,55.474036 5750.5625,58.6875 5754.1036,63.90564 5755.0675,68.384997 5753.9375,74.34375 5753.4058,77.147305 5752.5419,79.864425 5752,80.40625 5749.8359,82.570412 5751.3113,84.626995 5757.2812,87.65625 5758.6036,88.327229 5759.4184,88.697698 5760.375,89.15625 L 5760.9375,86.28125 C 5760.0393,85.875964 5759.1083,85.264879 5758.125,84.4375 5755.5169,82.242979 5755.2092,81.536805 5756.0312,79.375 5757.3777,75.833335 5757.2246,64.648423 5755.7812,61.3125 5755.1156,59.774121 5753.7657,57.436673 5752.7812,56.125 5750.985,53.731569 5750.4608,49.546224 5751.5938,46.59375 5752.0008,45.532791 5753.4653,45 5756.0312,45 5759.1016,45 5759.9986,44.557877 5760.5625,42.78125 5761.1207,41.02258 5760.5131,39.934052 5757.625,37.4375 5753.4433,33.82275 5753.245,32.783674 5756,29.28125 5758.2556,26.413696 5758.6754,21.469542 5756.7188,20.71875 z M 5737.3438,59 C 5734.1843,59 5729.4159,61.470114 5728.625,63.53125 5727.6611,66.043056 5727.8887,70 5729,70 5729.55,70 5730,68.932655 5730,67.625 5730,61.969393 5737.623,60.781354 5742.0625,65.75 5746.1127,70.282936 5745.2198,75.879322 5739.4375,82.125 5734.0973,87.89307 5731.6303,95.255344 5734.1875,97.8125 5734.8475,98.4725 5736.0156,99 5736.75,99 5737.7975,99 5737.8216,98.558036 5736.9375,96.90625 5735.1145,93.499912 5736.6181,88.807407 5740.5938,85.5 5742.5738,83.85279 5744.776,81.375 5745.4688,80 5747.2564,76.451742 5748.0316,70.249133 5747.0312,67.6875 5745.6196,64.072702 5739.9777,59 5737.3438,59 z M 5759.5,93.4375 5759.4688,93.40625 C 5755.0875,91.945611 5750.702,90.326181 5749.7188,89.8125 5748.7356,89.298818 5747.1477,89.132736 5746.1875,89.4375 5744.0362,90.120282 5741,95.074229 5741,97.90625 5741,100.87953 5741.6569,100.51574 5743.5625,96.5 5744.476,94.575 5745.9752,92.998005 5746.875,93 5747.7749,93.001995 5752.1,94.35399 5756.5,96 5757.3197,96.306628 5758.0343,96.50206 5758.8438,96.78125 L 5759.5,93.4375 z"/>
</svg>
