<svg xmlns="http://www.w3.org/2000/svg"
     width="33.2" height="64.0"
     viewBox="3838.9636 16.0000 47.5696 91.5651">
  <path d="M 3857.8849,100.11503 C 3854.8243,97.696031 3849.4316,87.122358 3847.5384,79.828734 3844.5872,68.458542 3842.9636,34.271499 3845.0227,26.858238 3846.2381,22.482374 3848.5736,20.173626 3850.1699,21.769931 3850.7668,22.366773 3851.5944,27.725201 3852.0091,33.677549 3852.4238,39.629897 3853.5186,47.875 3854.4419,52 3855.3652,56.125 3856.7646,62.473185 3857.5517,66.107078 3859.9344,77.108584 3862.8389,82.561148 3865.1078,80.292196 3866.6575,78.742451 3869.962,68.940535 3871.443,61.5 3873.5562,50.884198 3873.9781,46.527086 3874.1009,34.053387 3874.2232,21.643541 3874.5117,20 3876.5682,20 3879.1984,20 3881.2522,29.89556 3881.7569,45 3882.5332,68.230714 3879.4599,82.542158 3871.0837,94.703012 3866.0541,102.00526 3862.2499,103.56511 3857.8849,100.11503 z M 3865.4931,97.821182 C 3869.3783,96.050968 3875.6384,82.617542 3877.992,71 3879.5241,63.437476 3879.8357,58.5428 3879.5198,47 3879.3017,39.025 3878.7248,31.15 3878.2381,29.5 L 3877.353,26.5 3876.7942,29.5 C 3876.4869,31.15 3876.1684,35.875 3876.0864,40 3875.9267,48.035993 3875.6314,50.422996 3873.3814,61.870682 3871.5574,71.150869 3868.7893,79.082743 3866.015,82.978945 3863.6323,86.325167 3862.7668,86.628848 3861.1534,84.684791 3859.5986,82.811386 3853.9787,65.440072 3853.0058,59.5 3852.5553,56.75 3851.6831,51.675837 3851.0674,48.224081 3850.4517,44.772326 3849.7731,38.247326 3849.5593,33.724081 3849.3455,29.200837 3849.1322,25.0725 3849.0853,24.55 3849.0384,24.0275 3848.4564,24.143556 3847.7921,24.807902 3846.9703,25.629688 3846.5024,31.207728 3846.3284,42.257902 3845.9207,68.140062 3850.2663,87.521173 3858.4595,96.361783 3861.2216,99.342201 3861.8628,99.475244 3865.4931,97.821182 z"/>
</svg>
