<svg xmlns="http://www.w3.org/2000/svg"
     width="40.7" height="64.0"
     viewBox="1674.3750 12.9324 40.8040 64.2038">
  <path d="M 1680.4062,56.28125 1679.8438,59.4375 C 1682.5595,60.429906 1685.028,59.781369 1686.875,57.1875 1689.3908,53.654446 1692.808,44.880431 1693.9688,39 1694.7725,34.927643 1694.6137,34.262686 1692.3438,31.875 1689.7216,29.116745 1687.5407,19.982904 1689.8438,21.40625 1690.4774,21.797905 1691,22.757847 1691,23.53125 1691,25.168883 1696.776,32 1698.1562,32 1698.6714,32 1700.8065,30.148999 1702.9062,27.875 1705.1263,25.470733 1706.9974,24.170302 1707.375,24.78125 1708.3557,26.368085 1706.3839,30.671798 1703.5625,33.125 1702.1832,34.324337 1700.5376,36.930838 1699.9062,38.90625 1698.334,43.82637 1691.3892,57.148752 1687.875,62 1684.8885,66.122785 1682.8625,66.659635 1678.9375,64.375 L 1678.375,67.375 C 1681.6537,69.139344 1684.5714,69.50246 1685.5,68 1686.642,66.152278 1689.3761,66.976911 1692.6562,70.15625 1695.4993,72.911758 1696.1181,73.136266 1697.5625,71.9375 1699.5669,70.274049 1698.9695,62.111045 1696.5625,58.4375 1695.2213,56.390551 1695.2067,55.732688 1696.5312,52.5625 1697.3515,50.59953 1698.234,49 1698.5,49 1698.7661,49 1700.7965,50.634257 1703,52.625 1706.4465,55.738725 1707.2462,56.050566 1708.625,54.90625 1709.8029,53.928706 1710.0729,52.454052 1709.7188,49.3125 1709.2954,45.557035 1708.3854,43.606608 1704.5938,38.5 1703.9867,37.682509 1704.4514,36.460676 1705.9688,34.875 1709.4304,31.257626 1711.179,26.389956 1710.4375,22.4375 1710.0818,20.541474 1709.2513,18.99973 1708.625,19 1707.9987,19.00027 1705.5251,21.275624 1703.125,24.0625 L 1698.7812,29.125 1696.5312,27.03125 C 1695.2998,25.8745 1693.7573,23.120671 1693.0938,20.90625 1692.1071,17.613148 1691.4798,16.932424 1689.6875,17.1875 1687.7438,17.464119 1687.4798,18.196108 1687.2188,23.625 1686.9622,28.961636 1687.2504,30.113491 1689.4688,32.75 1690.8682,34.413088 1692,36.494086 1692,37.375 1692,40.02974 1687.8421,51.308839 1685.7812,54.25 1684.1,56.649263 1682.6078,57.240076 1680.4062,56.28125 z M 1703.5,42 C 1704.8543,42 1708,48.303487 1708,51.03125 1708,52.11259 1707.5868,53 1707.0938,53 1706.0578,53 1700,46.298888 1700,45.15625 1700,44.011053 1702.2283,42 1703.5,42 z M 1693.0312,59 C 1694.456,59 1695.8178,61.559419 1696.1562,64.90625 1696.5921,69.217174 1694.8515,69.895286 1692.1562,66.46875 1690.4545,64.305257 1690.3021,63.449484 1691.2188,61.4375 1691.8282,60.099975 1692.6369,59 1693.0312,59 z"/>
</svg>
