<svg xmlns="http://www.w3.org/2000/svg"
     width="24.6" height="64.0"
     viewBox="2104.9069 14.8099 33.1268 86.1901">
  <path d="M 2116.4451,94.25 C 2116.119,92.7375 2114.5355,88.247768 2112.9261,84.272818 2109.3585,75.461227 2109.3108,73.594071 2112.5,67.596025 2115.3145,62.302591 2115.6206,59.35544 2113.6553,56.472506 2111.8865,53.877832 2110.2519,47.048525 2109.4733,39 2108.9069,33.144122 2109.1248,31.96057 2111.6723,27.05648 2115.3046,20.064016 2117.2543,18.809884 2120.0877,21.643296 2123.0103,24.565829 2123.6678,28.831251 2122.6639,38.354674 2121.8979,45.62136 2122.0341,47.006909 2123.927,51.199237 2125.0939,53.783817 2127.3877,56.85196 2129.0243,58.017331 2134.0337,61.58432 2132.1277,70.001816 2126.6234,68.620336 2125.0135,68.216269 2123.5935,68.549324 2122.5723,69.57053 2120.6161,71.526741 2120.5898,73.306078 2122.4635,76.929387 2125.0014,81.837109 2126.8688,88.172794 2126.2769,89.867514 2125.3205,92.606052 2120.7341,97 2118.832,97 2117.6854,97 2116.8241,96.007629 2116.4451,94.25 z M 2124,88.78585 C 2124,88.331775 2122.875,85.191617 2121.5,81.807721 2118.3172,73.974891 2118.3157,70.593427 2121.4933,67.415781 2123.5137,65.395412 2124.3593,65.12192 2125.9513,65.973948 2127.5571,66.833352 2128.1281,66.629242 2129.0768,64.856582 2130.0697,63.00128 2129.895,62.424391 2127.8687,60.866105 2126.5659,59.864207 2125.2026,59.034466 2124.8392,59.022236 2124.4758,59.010006 2123.2398,57.060982 2122.0925,54.691072 2120.2641,50.914045 2120.037,48.823341 2120.2533,37.754301 2120.5188,24.163883 2119.8703,21.928661 2116.2276,23.878186 2112.5757,25.832646 2110.8848,32.143223 2111.9727,39.758278 2113.0151,47.054855 2115.6375,55.657919 2117.0936,56.557851 2118.9894,57.729541 2117.8967,63.598744 2114.9818,67.900481 2111.9103,72.433269 2111.2929,75.73685 2112.9516,78.763569 2114.6524,81.867351 2116.8469,87.406501 2118.0909,91.735586 L 2119.3079,95.971172 2121.654,92.791307 C 2122.9443,91.04238 2124,89.239925 2124,88.78585 z"/>
</svg>
