<svg xmlns="http://www.w3.org/2000/svg"
     width="33.0" height="64.0"
     viewBox="6319.5926 16.3874 44.0625 85.4490">
  <path d="M 6357.4376,81.40625 C 6356.529,81.262653 6355.6001,80.861053 6354.5939,79.84375 6351.8503,77.070247 6349.0001,71.772358 6349.0001,69.4375 6349.0001,68.520295 6350.4063,66.176358 6352.1251,64.21875 6357.3885,58.224066 6359.6551,50.061127 6356.8439,47.25 6355.9737,46.379908 6355.0891,46.566824 6353.1876,48.0625 6351.8023,49.152187 6350.3108,49.685679 6349.8751,49.25 6349.4394,48.814321 6348.7704,45.941494 6348.4063,42.84375 6347.7724,37.450162 6347.9199,37.013258 6351.4376,32.40625 6354.1551,28.847265 6355.0331,26.782694 6354.8126,24.53125 6354.554,21.889552 6354.0641,21.463633 6351.1876,21.1875 6348.5952,20.938632 6346.9379,21.646148 6343.5313,24.4375 6341.1365,26.399967 6338.6319,28 6338.0001,28 6337.3682,28 6335.3781,26.425 6333.5626,24.5 6329.8835,20.599018 6329.2183,20.387387 6326.5001,22.375 6325.1988,23.326477 6324.6166,24.9025 6324.6876,27.40625 6324.8134,31.84459 6327.1684,35.636724 6331.1563,37.84375 6336.8226,40.979644 6337.0175,41.263134 6336.3439,45.34375 6335.5605,50.08913 6333.6288,50.93734 6330.4689,47.96875 6328.4628,46.084137 6327.7992,45.916535 6326.5313,46.96875 6323.5926,49.407751 6325.5082,55.627735 6331.0313,61.5 6333.5,64.124699 6333.9079,65.375702 6334.1251,71.5 6334.3268,77.187222 6333.9148,79.330994 6332.0313,82.96875 6329.7812,87.314663 6329.0224,93.585203 6330.4376,95.875 6331.6497,97.836365 6332.7218,97.140915 6336.4376,91.96875 6338.4301,89.195402 6340.7006,86.650572 6341.5001,86.34375 6342.3479,86.018431 6344.9388,87.550776 6347.7189,90 6352.199,93.946891 6352.7712,94.162665 6357.0001,93.59375 6357.1164,93.57811 6357.1986,93.548102 6357.3126,93.53125 L 6357.3439,90.65625 C 6354.5789,90.973828 6353.4758,90.426594 6349.6251,87.09375 6347.0198,84.838933 6344.047,83 6343.0313,83 6342.0158,83 6339.1197,85.284265 6336.5939,88.09375 6332.4051,92.752706 6332.0001,92.986164 6332.0001,90.71875 6332.0001,87.814916 6334.5869,81.288145 6336.4689,79.40625 6337.453,78.422096 6337.5368,76.929496 6336.8439,73.3125 6336.0014,68.915818 6337.1387,48.525497 6338.6563,40.9375 6339.1331,38.553651 6338.7234,38.042506 6335.1563,36.46875 6330.4768,34.40411 6326.7365,29.83966 6327.1876,26.78125 6327.6946,23.344025 6329.8426,23.5612 6333.4689,27.40625 6337.5074,31.688269 6338.8511,31.843913 6342.0626,28.40625 6345.0052,25.256488 6349.7048,22.71147 6351.0313,23.53125 6352.9606,24.723672 6351.948,28.483893 6348.8126,31.71875 6346.2528,34.359776 6345.6386,35.756002 6345.7813,38.75 6345.8797,40.809492 6346.0915,49.475 6346.2501,58 6346.5578,74.548707 6347.0446,76.541617 6352.3439,82.25 6354.1174,84.160449 6355.7744,84.993639 6357.4063,84.90625 L 6357.4376,81.40625 z M 6328.4063,49.8125 C 6328.7876,49.869078 6329.5252,50.518243 6331.0001,51.8125 6332.6501,53.26035 6334.0001,55.241227 6334.0001,56.21875 6334.0001,57.196274 6333.3564,58 6332.5626,58 6330.6644,58 6328.0001,54.137789 6328.0001,51.375 6328.0001,50.299622 6328.0251,49.755922 6328.4063,49.8125 z M 6355.4063,50 C 6356.8881,50 6355.7813,56.033347 6353.7501,59.03125 6350.3418,64.061529 6349.0001,63.954594 6349.0001,58.65625 6349.0001,54.81373 6349.4346,53.822472 6351.9063,52.0625 6353.5037,50.925048 6355.0787,50 6355.4063,50 z"/>
</svg>
