<svg xmlns="http://www.w3.org/2000/svg"
     width="38.9" height="64.0"
     viewBox="7200.0030 20.0000 49.2604 81.0738">
  <path d="M 7224.5472,93.766907 C 7223.771,91.909198 7222.8316,89.176672 7222.4596,87.694627 7222.0876,86.212582 7221.6355,85 7221.4548,85 7221.2741,85 7218.9037,87.293741 7216.1872,90.097201 7211.1082,95.338736 7207.8665,96.26018 7207.173,92.659422 7206.5789,89.574377 7207.8507,86.348908 7211.5959,81.442452 L 7215.1922,76.731039 7214.1641,68.0361 C 7213.4796,62.246626 7213.4663,57.871065 7214.1245,54.941731 7215.109,50.560054 7215.0949,50.525454 7210.63,46.36684 7205.9609,42.018105 7204.003,37.46569 7204.021,31 7204.0263,29.075 7204.4177,26.889345 7204.8906,26.142988 7206.1242,24.196064 7209.7182,25.610214 7211.7089,28.825843 7214.2118,32.868831 7218.2184,37 7219.6367,37 7220.331,37 7222.9863,34.075 7225.5374,30.5 7228.0884,26.925 7230.5311,24 7230.9654,24 7233.3153,24 7234.206,27.252816 7233.5454,33.421833 7232.9818,38.684187 7232.21,40.685846 7229.3088,44.409728 7225.9768,48.6865 7225.7363,49.495738 7225.3501,57.731548 7224.9095,67.127042 7226.0639,71.196019 7229.3496,71.828795 7231.761,72.293178 7233.9919,70.101042 7237.0001,64.311523 7238.3751,61.665185 7239.5827,59.342439 7239.6836,59.149864 7239.7845,58.95729 7240.3669,59.108687 7240.9779,59.486301 7243.433,61.003621 7233.3008,75 7229.7473,75 7223.7542,75 7221.548,69.285764 7222.5888,56.458535 7223.1637,49.372855 7223.6817,47.5566 7225.7699,45.30333 7229.0114,41.805717 7231.0001,36.949688 7231.0001,32.532119 7231.0001,27.907351 7229.6842,28.073011 7225.9978,33.161835 7224.3397,35.450844 7222.0812,37.955351 7220.9789,38.727407 7219.1981,39.974716 7218.6586,39.873103 7216.1379,37.815572 7214.5777,36.542008 7212.3199,33.8125 7211.1207,31.75 7207.2951,25.170182 7204.9404,28.236549 7207.5284,36.428235 7208.7199,40.199725 7210.1044,42.196456 7212.9286,44.216549 L 7216.7266,46.933098 7216.627,59.716549 C 7216.5403,70.833362 7216.7984,73.021499 7218.6063,76.5 7220.57,80.278082 7220.9659,80.516576 7225.7421,80.798769 7230.7154,81.092612 7230.869,81.014302 7235.056,76.048769 7237.3974,73.271946 7239.6836,71 7240.1363,71 7241.7229,71 7245.1284,79.209694 7245.183,83.166331 7245.2634,88.991854 7243.9285,89.751375 7238.8652,86.761153 L 7234.6064,84.246109 7232.5533,90.373055 C 7230.9285,95.221594 7230.0263,96.567245 7228.2293,96.82228 7226.4569,97.073822 7225.6487,96.40319 7224.5472,93.766907 z M 7215.2079,88.297052 C 7219.3743,84.228677 7219.7805,82.892538 7217.4409,80.950872 7216.1233,79.857357 7215.4378,80.109541 7213.0169,82.578427 7210.3954,85.251892 7209.5755,87.391067 7209.8849,90.75 7210.0691,92.748722 7211.1673,92.242644 7215.2079,88.297052 z M 7230.0266,91.950547 C 7231.7995,88.63771 7230.863,84.551539 7228.2456,84.179863 7225.3082,83.762753 7224.5094,85.983073 7225.9865,90.458759 7227.3162,94.487894 7228.4455,94.904863 7230.0266,91.950547 z M 7242.6071,83.418213 C 7242.2732,82.548229 7242.0001,81.284238 7242.0001,80.609342 7242.0001,79.934447 7241.3738,78.525737 7240.6083,77.478876 7239.4258,75.861686 7238.9747,75.776179 7237.6083,76.910192 7235.4157,78.729861 7235.5893,80.53937 7238.1887,82.961045 7240.825,85.41716 7243.4796,85.691824 7242.6071,83.418213 z"/>
</svg>
