<svg xmlns="http://www.w3.org/2000/svg"
     width="49.5" height="64.0"
     viewBox="1873.8430 14.7333 69.2894 89.5077">
  <path d="M 1882.7835,92.25 C 1878.762,87.63965 1877.843,79.507962 1880.1334,68.799221 1881.4306,62.73391 1887.219,53 1889.5285,53 1890.3829,53 1893.7731,54.40061 1897.0623,56.112467 1902.4705,58.927103 1903.3317,59.105251 1906.0623,57.974194 1907.7231,57.286287 1910.1884,55.853016 1911.5409,54.789147 1914.9875,52.078063 1914.8808,45.521472 1911.2547,37.197537 1908.9161,31.829123 1908.2121,30.990806 1906.5046,31.541026 1899.5204,33.791575 1895.9694,32.803711 1896.0318,28.627555 1896.0733,25.849664 1898.2814,23 1900.3924,23 1901.3119,23 1903.6943,23.681068 1905.6865,24.513485 1909.2601,26.00661 1909.3684,25.980556 1913.7374,22.576705 1918.6706,18.733292 1919.7273,18.787371 1922.8746,23.044285 L 1925.0535,25.991336 1929.0069,23.495668 C 1933.8913,20.412261 1936.8061,20.301483 1937.8631,23.159077 1939.1324,26.590189 1937.9792,29.959387 1935.0101,31.49479 1930.9409,33.599047 1925.8845,31.851303 1921.6167,26.865349 L 1918.1348,22.79745 1914.0457,26.083549 C 1911.7966,27.890903 1910.1004,29.623977 1910.2762,29.934824 1916.1197,40.265928 1917.9804,50.48386 1914.7631,54.574023 1912.6722,57.232143 1906.0826,61 1903.5247,61 1902.6694,61 1899.5776,59.65 1896.654,58 1893.7304,56.35 1890.6997,55.003075 1889.9191,55.006833 1888.2612,55.014816 1884.7777,59.866069 1882.495,65.346034 1880.6144,69.860759 1880.2306,83.276101 1881.8755,87 1882.4829,88.375 1883.7143,90.5125 1884.6119,91.75 1886.5281,94.391725 1885.0131,94.80603 1882.7835,92.25 z M 1917.7281,99.281637 C 1916.1965,99.050283 1914.2196,97.738648 1913.3099,96.350242 1911.8835,94.173237 1911.829,93.191793 1912.9023,89.003978 1914.0801,84.408534 1914.0087,83.970282 1911.4528,80.108095 1908.7938,76.090085 1908.7826,76.000544 1910.4241,71.898069 1911.3369,69.616829 1911.8688,67.535493 1911.6062,67.27288 1911.3436,67.010266 1909.0427,67.837226 1906.4931,69.110568 L 1901.8574,71.425736 1897.0404,68.717958 1892.2233,66.01018 1890.7625,68.25509 C 1887.9055,72.645642 1887.7915,77.33452 1890.369,84.435448 1892.986,91.645418 1891.7826,92.993217 1888.5899,86.427846 1886.3889,81.901551 1885.2892,72.591276 1886.7384,70.751518 1887.2806,70.063183 1888.0166,68.275489 1888.3739,66.778865 1889.4592,62.233167 1891.9708,61.7338 1896.9452,65.07466 1899.3409,66.683597 1901.7957,67.991848 1902.4005,67.981885 1903.0052,67.971921 1905.9461,66.615521 1908.9358,64.967662 1915.8276,61.168986 1917.0532,62.124222 1914.0989,68.991824 L 1911.9052,74.091125 1914.1377,78.561169 C 1916.2055,82.701559 1916.2741,83.405955 1915.0678,88.112618 1913.5564,94.009806 1914.3849,95.526986 1919.6971,96.589421 1924.0393,97.457856 1928,93.62065 1928,88.545455 1928,86.595455 1928.45,85 1929,85 1929.55,85 1930,86.487574 1930,88.30572 1930,92.807291 1924.5194,100.24102 1921.5,99.834855 1920.95,99.76087 1919.2527,99.511921 1917.7281,99.281637 z M 1904.4182,29.393011 C 1906.7663,28.491977 1906.3392,27.079462 1903.3784,25.953754 1900.3686,24.809458 1897.7754,26.251051 1898.6664,28.573113 1899.2399,30.067607 1901.7338,30.423106 1904.4182,29.393011 z M 1935.4732,28.383929 C 1939.0123,24.844877 1934.2746,22.619495 1930.1062,25.862933 1928.7713,26.901578 1928.0233,28.228651 1928.4152,28.862785 1929.4462,30.530985 1933.6086,30.248587 1935.4732,28.383929 z"/>
</svg>
