<svg xmlns="http://www.w3.org/2000/svg"
     width="25.6" height="64.0"
     viewBox="4766.0217 16.8472 35.0132 87.5590">
  <path d="M 4794.875,83.46875 C 4794.2999,82.778704 4793.8237,81.928015 4793.4375,80.8125 4792.7459,78.814916 4791.353,75.919314 4790.3438,74.375 4788.7966,72.007762 4788.5538,69.859555 4788.7812,60.65625 4789.0261,50.752846 4789.255,49.474771 4791.4688,46.84375 4794.8016,42.882996 4795.6095,37.739483 4793.9062,31.125 4792.2684,24.764175 4789.3945,22.117989 4783.1562,21.28125 4779.9198,20.847157 4778.4824,21.167811 4776.8438,22.625 4774.3415,24.850299 4770.0217,33.642579 4770.0312,36.5 4770.0374,38.357343 4772.1728,42.475024 4776.125,48.15625 4777.3198,49.873776 4777.9186,53.592576 4778.2812,61.90625 L 4778.7812,73.3125 4775.6875,76.125 C 4772.9841,78.594173 4772.5397,79.749934 4772.1875,85.28125 4771.8215,91.028194 4772.0415,91.910224 4774.5625,94.90625 4776.0872,96.718262 4778.2615,98.568106 4779.4062,99.03125 4782.8048,100.40612 4784.5344,100.11528 4788.25,97.59375 L 4791.5,95.40625 4791.5,95 4793.4688,92.0625 C 4793.3705,91.817243 4793.3422,91.560876 4793.4375,91.3125 4793.751,90.495344 4794,89.453073 4794,88.96875 4794,88.8906 4794.4565,88.872023 4794.5938,88.8125 L 4794.875,83.46875 z M 4782.25,24 C 4792.1804,24 4797.0349,40.292447 4788.8438,46.125 L 4785.8438,48.25 4786.1562,60.375 C 4786.4531,71.318821 4786.768,72.99708 4789.25,77.71875 4792.6615,84.208861 4792.8349,89.497255 4789.75,93.21875 4786.6977,96.90097 4783.2483,97.493928 4779.3125,95.0625 4775.2088,92.527354 4774,90.176934 4774,84.6875 4774,80.746124 4774.4237,79.934283 4777.6562,77.46875 L 4781.2812,74.6875 4780.6562,61.3125 4780,47.96875 4776,42.875 C 4771.6006,37.309331 4771.4687,36.851518 4773.125,31.90625 4774.9538,26.446053 4777.7799,24 4782.25,24 z M 4786.3438,29.3125 C 4785.6506,29.11239 4784.6816,29.194797 4783.1562,29.46875 4778.739,30.262106 4777,32.282457 4777,36.625 4777,38.852078 4777.6968,40.371472 4779.2188,41.4375 4782.4051,43.669302 4784.5708,43.383853 4786.9375,40.375 4789.2245,37.467517 4789.5703,33.952899 4787.9062,30.84375 4787.4541,29.99889 4787.0369,29.51261 4786.3438,29.3125 z M 4785.4062,32.375 C 4785.9006,32.582454 4786.2089,33.056289 4786.4688,33.875 4786.8261,35.000834 4786.631,36.847975 4786.0312,37.96875 4784.8949,40.092069 4784.4827,40.226307 4782,39.28125 4777.7249,37.653864 4778.3957,33.694836 4783.1562,32.5 4784.2145,32.234414 4784.9119,32.167546 4785.4062,32.375 z M 4783.9688,78.3125 C 4783.3193,78.319926 4782.531,78.744726 4781.0938,79.59375 4777.3149,81.825941 4776.3219,85.785977 4778.4688,89.9375 4779.6981,92.315024 4780.7167,93 4783,93 4788.8762,93 4790.9091,83.945655 4786.0312,79.53125 4785.1227,78.70905 4784.6182,78.305074 4783.9688,78.3125 z M 4783.4062,82.1875 C 4785.0685,82.424997 4785.5,83.213013 4785.5,86 4785.5,90.587347 4782.0189,91.525477 4780.1562,87.4375 4778.6795,84.196285 4780.1954,81.728745 4783.4062,82.1875 z"/>
</svg>
