<svg xmlns="http://www.w3.org/2000/svg"
     width="41.5" height="64.0"
     viewBox="1066.8476 15.1476 57.6505 88.8524">
  <path d="M 1071.945,98.433682 C 1070.8476,97.111452 1071.3938,95.345602 1075.4497,87.102151 1080.1558,77.537435 1080.2417,77.194888 1079.6328,70.418469 1078.0228,52.501899 1077.8311,42.857732 1078.922,34.660436 1080.1993,25.062418 1081.4583,21.421836 1083.813,20.518268 1087.385,19.147562 1088.1804,22.220174 1089.0217,40.638651 1089.4705,50.462393 1090.356,60.3 1090.9895,62.5 1091.6231,64.7 1092.8393,68.975 1093.6922,72 1095.2972,77.692427 1098.4007,83 1100.1243,83 1103.2285,83 1110.8087,55.669354 1113.992,33 1115.6478,21.208086 1115.7853,20.829586 1118.2853,21.185081 1120.4566,21.493829 1120.4981,21.774353 1120.4009,35.5 1120.2557,56.016715 1119.8308,63.643157 1118.4841,69.903865 1115.0174,86.020801 1109.6179,95.728483 1102.6378,98.394234 1098.4902,99.97819 1097.8801,99.989352 1095.0634,98.532802 1093.3785,97.661513 1091.9817,96.622696 1091.9594,96.22432 1091.937,95.825944 1090.5996,93.957031 1088.9872,92.071179 L 1086.0558,88.642359 1080.1021,94.321179 C 1076.8276,97.444531 1073.9452,100 1073.6967,100 1073.4482,100 1072.6599,99.295157 1071.945,98.433682 z M 1081.4116,89.527005 C 1084.0207,86.106282 1084.6658,81.39989 1082.5,81.585875 1081.5458,81.667814 1075.0868,92.645613 1075.0281,94.285184 1074.9726,95.836197 1078.7429,93.025821 1081.4116,89.527005 z M 1105.2477,92.262708 C 1110.2142,87.50446 1114.7974,75.732065 1116.4455,63.5 1117.8601,53.000614 1118.6348,36.853363 1118.0047,31 1117.6198,27.425 1117.2274,25.175 1117.1327,26 1114.6714,47.427746 1105.9993,81.000707 1101.8552,85.144808 1099.1862,87.813797 1098.3442,87.504447 1095.3367,82.75 1091.1893,76.193331 1085.7282,53.365005 1086.5452,46 1087.0331,41.602067 1084.9303,23 1083.9453,23 1082.5073,23 1081.8705,26.665212 1080.8961,40.551007 1079.247,64.051534 1082.8741,79.818151 1092.6834,91.789149 1095.8928,95.70573 1096.6298,96.12404 1099.3594,95.57813 1101.0469,95.240617 1103.6967,93.748678 1105.2477,92.262708 z"/>
</svg>
