<svg xmlns="http://www.w3.org/2000/svg"
     width="22.6" height="64.0"
     viewBox="1594.5923 12.6840 33.8777 95.8635">
  <path d="M 1609.2,102.8 C 1608.54,102.14 1608,100.95914 1608,100.17586 1608,99.392585 1606.3948,95.196528 1604.4329,90.85129 L 1600.8657,82.950857 1604.0809,75.975428 1607.2961,69 1604.2492,62.25 C 1599.44,51.595787 1598.5923,48.057254 1598.7444,39.272078 1598.9406,27.940701 1603.179,18.703501 1607.433,20.335925 1609.2277,21.024623 1612,30.015008 1612,35.146554 1612,41.28279 1614.8311,48.161132 1619.0871,52.365083 1623.9227,57.141572 1624.47,61.806784 1620.5,64.408043 1619.125,65.308978 1618,66.709531 1618,67.520385 1618,68.331238 1616.6149,71.926313 1614.9219,75.509439 L 1611.8438,82.024215 1613.5702,86.544763 C 1614.5198,89.031064 1615.6799,91.302174 1616.1483,91.591672 1617.9064,92.678195 1616.9283,97.931718 1614.4111,100.92327 1611.5415,104.33364 1610.9475,104.54754 1609.2,102.8 z M 1615,96.316496 C 1615,95.561055 1613.65,92.268632 1612,89 1610.35,85.731368 1609.0019,82.481701 1609.0043,81.778517 1609.0066,81.075333 1610.3547,78.475 1612,76 1613.6453,73.525 1614.9995,70.15 1615.0094,68.5 1615.042,63.049004 1616.0459,61 1618.684,61 1620.7605,61 1621.0309,60.656368 1620.4544,58.75 1620.0801,57.5125 1618.5372,55.503712 1617.0256,54.286026 1613.2472,51.242227 1610.2131,43.678857 1609.4572,35.419795 1607.7426,16.684024 1602.2986,17.562959 1601.2387,36.74666 1600.8067,44.565599 1601.0751,47.036062 1602.9768,52.74666 1604.2137,56.460997 1606.1222,60.979554 1607.2179,62.787898 1609.5806,66.687497 1609.2794,70.216729 1605.9429,77.729407 L 1603.6205,82.958815 1606.7094,90.229407 C 1608.4084,94.228233 1610.0782,98.348754 1610.4201,99.386119 1611.0184,101.2015 1611.1159,101.20507 1613.0208,99.481132 1614.1094,98.496023 1615,97.071937 1615,96.316496 z"/>
</svg>
