<svg xmlns="http://www.w3.org/2000/svg"
     width="31.1" height="64.0"
     viewBox="3588.0000 16.0000 44.8750 92.3233">
  <path d="M 3627.2188,87.53125 C 3625.6984,86.648999 3623.4434,84.162661 3619.25,78.84375 L 3614,72.21875 3614,63.59375 C 3614,55.078329 3614.0269,55 3616.5,55 3617.875,55 3619,54.617967 3619,54.15625 3619,53.324027 3614.6481,51 3613.0938,51 3611.9348,51 3611.108,64.577561 3611.9062,70.5625 3612.43,74.490041 3613.6617,77.017929 3617.375,81.84375 3620.0071,85.264306 3623.3058,88.813474 3624.6875,89.71875 3625.9761,90.563085 3626.7351,90.816129 3627.5938,90.71875 L 3627.2188,87.53125 z M 3628.5,98.59375 C 3627.361,98.035439 3624.0585,95.232065 3620.2188,91.5 3611.1328,82.66905 3608.6107,82.016769 3604.5,87.40625 3602.1981,90.424175 3601.9949,91.392458 3602.5938,95.90625 3602.9654,98.707999 3602.9952,101 3602.6562,101 3601.4299,101 3596.9935,92.99581 3597,90.78125 3597.0037,89.53282 3598.9686,85.451178 3601.375,81.71875 3605.6282,75.121746 3605.751,74.74531 3605.3438,68.21875 3604.5046,54.772097 3603.8555,50.880637 3602.375,50.3125 3600.2673,49.503706 3592,52.918924 3592,54.59375 3592,56.416735 3593.3754,56.375397 3597.0625,54.46875 3599.9082,52.997171 3600.0707,53.032748 3600.9375,55.3125 3601.4338,56.61798 3601.9405,61.919043 3602.0938,67.09375 L 3602.375,76.5 3598.1875,82.90625 C 3595.881,86.42902 3594,90.172364 3594,91.21875 3594,93.371833 3598.6428,102.13039 3600.375,103.25 3602.0355,104.32325 3602.6873,104.18767 3604.4375,102.4375 3605.3794,101.49554 3605.8001,99.891894 3605.5,98.4375 3605.2245,97.102281 3604.7688,94.933671 3604.5,93.625 3603.9888,91.136549 3607.19,86 3609.25,86 3609.86,86 3614.0547,89.6 3618.5625,94 3623.6164,98.932957 3626.5357,101.27792 3628.875,101.78125 L 3628.5,98.59375 z M 3606.5312,20 C 3604.9909,20 3594.8525,26.616781 3593.75,28.34375 3593.3459,28.97672 3593.0084,30.124244 3593,30.875 3592.9828,32.412917 3595.6306,30.961362 3602.375,25.6875 3605.5197,23.22842 3606.5424,22.864415 3607.875,23.8125 3610.6516,25.788043 3618.8777,30 3619.9688,30 3620.5369,30 3621,29.613567 3621,29.125 3621,27.995348 3608.3236,20 3606.5312,20 z M 3604.0312,32.03125 3599,36.90625 C 3596.2435,39.577138 3594,42.256491 3594,42.875 3594,44.888904 3595.7416,44.07389 3600.1562,40 3605.1727,35.370712 3606.7054,35.37414 3614.4062,40.09375 3617.5503,42.02069 3619.6312,42.743752 3620.25,42.125 3622.1867,40.188252 3619.1757,38.005206 3609.0938,34.03125 L 3604.0312,32.03125 z"/>
</svg>
