<svg xmlns="http://www.w3.org/2000/svg"
     width="37.4" height="64.0"
     viewBox="2617.8125 14.0000 51.0598 87.4527">
  <path d="M 2624.625,59.15625 2624.4688,62.5625 C 2626.709,62.598483 2629.0507,62.092042 2632.1562,60.875 2635.5014,59.564052 2638.8703,57.576111 2639.625,56.4375 2640.3798,55.298889 2641.4878,50.68941 2642.0938,46.1875 L 2643.1875,38 2640.0938,34.46875 C 2637.1259,31.088618 2636.0553,28 2637.8438,28 2638.3085,28 2639.5045,28.9 2640.5,30 2644.3187,34.219607 2650,31.494673 2650,25.4375 2650,20.957998 2651.8885,20.990907 2655.875,25.53125 2661.0753,31.454143 2661.4202,37.836509 2656.4688,36.59375 2655.0876,36.247101 2653.1273,36.415613 2652.0938,36.96875 2647.6073,39.369868 2645.4333,55.37731 2648.5938,62.78125 2650.3087,66.799134 2653.1411,82.289187 2652.5312,84.28125 2652.326,84.951818 2651.8914,86.716254 2651.5625,88.21875 2650.8007,91.699127 2645.8472,94.413195 2641.75,93.59375 2640.1214,93.268027 2637.5166,91.922524 2635.9375,90.59375 2634.3583,89.264976 2630.7621,87.692805 2627.9688,87.09375 2626.0968,86.692281 2624.6093,86.635466 2623.2188,86.75 L 2623.8438,90.5 C 2627.1437,90.131745 2630.5827,91.325687 2634.4375,94.125 2638.4932,97.070169 2640.6617,97.452741 2647.375,96.34375 2650.9007,95.761319 2651.4776,95.188195 2653.7812,90.15625 2656.225,84.818492 2656.2649,84.334497 2655.1562,76.0625 2654.5246,71.349366 2653.1148,65.108968 2652,62.1875 2649.5088,55.658812 2649.2332,48.71427 2651.3125,43.75 2652.6406,40.579271 2653.3577,40 2655.9375,40 2662.0266,40 2664.8723,33.494298 2661.5625,27.09375 2659.462,23.03189 2653.3086,18 2650.4688,18 2647.9421,18 2647.3651,19.214155 2646.7812,25.4375 2646.4349,29.129467 2644.9997,29.605706 2642.0312,27.03125 2635.1128,21.030877 2631.2535,30.40339 2638.0938,36.59375 2640.2993,38.589794 2640.4666,41.387673 2638.8438,49.46875 2637.7329,54.99964 2637.4772,55.335059 2633.2188,57.21875 2629.8176,58.723275 2627.1248,59.356669 2624.625,59.15625 z M 2624.2188,68.21875 2624.0625,71.5625 C 2626.3942,71.757942 2629.0369,71.035963 2633.4375,69.03125 2635.8823,67.917497 2638.0923,67 2638.3438,67 2639.2962,67 2641,73.447522 2641,77.0625 2641,84.935435 2638.6356,85.825893 2630.5,81 2627.75,79.368758 2624.3292,78.040629 2622.9062,78.03125 2622.679,78.029753 2622.1375,78.293796 2621.8125,78.375 L 2622.4062,81.90625 C 2624.201,82.062722 2626.1699,82.825092 2629.5312,84.53125 2640.4763,90.086651 2644.0257,88.013156 2643.9688,76.09375 2643.9465,71.443515 2640.8659,63 2639.1875,63 2638.6867,63 2635.2783,64.343532 2631.625,66 2627.9367,67.672386 2626.1979,68.450813 2624.2188,68.21875 z"/>
</svg>
