<svg xmlns="http://www.w3.org/2000/svg"
     width="46.8" height="64.0"
     viewBox="6168.9755 20.5641 59.9566 81.9594">
  <path d="M 6176.3963,80.934267 C 6177.0475,83.037328 6175.5471,87.036514 6178.7925,86.802281 6182.5974,88.120037 6186.4934,89.373543 6190.5826,89.045235 6194.4663,89.257372 6196.6925,85.608845 6198.2331,82.595739 6200.561,77.715213 6201.0987,72.237548 6203.1809,67.268692 6206.5021,56.41494 6205.1326,44.799738 6207.9051,33.846157 6208.531,31.235641 6210.7721,28.225155 6213.8097,29.510264 6217.3173,30.809107 6217.7925,35.163541 6217.8606,38.402717 6217.9593,42.852429 6216.027,47.099948 6216.2532,51.53072 6216.3847,55.348647 6220.0189,57.668559 6220.5404,61.319923 6220.2706,65.42086 6215.927,60.515577 6214.0813,60.02137 6210.7322,57.924474 6208.2917,61.18875 6208.4289,64.348609 6208.0171,68.626694 6207.5225,72.965282 6205.5789,76.872517 6204.5109,80.762061 6203.9481,84.806129 6201.4755,88.196885 6199.8667,91.321113 6197.0197,94.010312 6193.3666,94.265657 6189.1217,94.795358 6185.0897,92.958429 6181.1628,91.641478 6178.7235,91.353775 6175.9806,86.250019 6174.748,90.572753 6172.9755,93.203607 6178.4958,92.831886 6179.8599,94.133347 6185.8946,96.425341 6192.9709,98.523465 6199.0859,95.312854 6202.6069,93.144396 6204.5177,89.201822 6206.2066,85.583433 6207.4976,82.022485 6207.8217,78.182668 6209.4801,74.741255 6210.6861,71.874489 6211.4617,68.788353 6211.2177,65.669241 6211.3264,62.169455 6214.9058,62.694556 6216.1046,65.216464 6218.8436,68.009301 6224.9321,66.436984 6223.5243,61.861921 6223.519,57.65043 6219.5033,55.11887 6218.8835,51.180668 6218.4947,48.021075 6220.2711,45.121959 6220.1626,41.956957 6220.1844,37.983542 6220.428,33.831443 6219.024,30.049096 6216.9441,24.564071 6208.0394,25.337231 6206.0739,30.533992 6204.3098,34.171609 6205.3549,38.466332 6203.6296,42.151243 6203.3019,45.613228 6203.8057,49.12124 6203.1007,52.562923 6202.2672,57.745553 6201.7062,62.987705 6199.9957,67.981653 6198.5372,72.485873 6197.402,77.096267 6195.8894,81.576623 6194.8489,85.178186 6191.0045,86.44215 6187.6262,85.807286 6183.5249,85.396363 6179.4274,83.756137 6176.3963,80.934267 z"/>
</svg>
