<svg xmlns="http://www.w3.org/2000/svg"
     width="52.4" height="64.0"
     viewBox="2449.6932 15.2906 70.3759 85.9207">
  <path d="M 2497.3125,84.25 C 2497.0782,83.119627 2497.0036,81.541019 2497,78.625 2496.9952,74.700167 2496.7061,69.254984 2496.375,66.5 L 2495.7812,61.46875 2499.4688,60.15625 C 2501.4959,59.423244 2503.2782,58.96826 2503.4375,59.15625 2505.07,61.082523 2506.2317,65.284208 2506.7188,71.09375 2507.2535,77.472192 2507.469,78.085896 2509.375,77.8125 2512.256,77.399232 2514.01,73.237261 2514.6875,65.15625 2516.0691,48.675528 2507.3882,39.655365 2498.3125,48.15625 2494.7151,51.525818 2493.6685,49.672109 2494.2812,41.09375 2494.9474,31.76806 2495.6519,29.754739 2498,30.5 2500.6468,31.340045 2504.9581,28.969807 2505.625,26.3125 2506.8841,21.295956 2501.4118,19.290568 2496.6562,23.03125 2494.2368,24.934438 2493.8611,24.993576 2491.0938,23.5625 2489.4588,22.717055 2487.8423,21.553911 2487.5,21 2486.5977,19.540032 2484.3807,19.77561 2482.6562,21.5 2479.7905,24.365865 2475.9155,25.22753 2473.9375,23.4375 2472.9506,22.544404 2470.7168,21.741286 2468.9688,21.65625 2464.888,21.457731 2463.1733,23.77672 2464.5625,27.6875 2465.4443,30.16985 2466.0608,30.5 2469.875,30.5 2473.5709,30.5 2474.4024,30.889037 2475.6562,33.28125 2476.4598,34.814335 2477.367,38.293362 2477.6875,41 2478.2558,45.798485 2478.1731,46.011184 2473.8438,50.21875 2471.4018,52.592073 2467.3673,56.202109 2464.9062,58.21875 L 2460.4375,61.875 2460.2188,73.15625 C 2460.0072,83.329875 2459.742,84.795961 2457.5,88.03125 2453.6932,93.524389 2454.5136,94.88089 2459,90.5 L 2463,86.59375 2463,75.0625 2463,63.53125 2467.125,59.78125 C 2469.3945,57.706714 2471.5735,56 2471.9688,56 2472.364,56 2473.5045,55.1 2474.5,54 2476.6469,51.627681 2478,51.441396 2478,53.5 2478,55.5513 2475.0474,58.872848 2471.6562,60.65625 2467.5848,62.797436 2466,67.549655 2466,77.5 2466,85.042945 2466.3032,86.553613 2468.6562,90.28125 2471.7351,95.158368 2473.0436,93.738348 2470.4688,88.3125 2468.5562,84.282224 2468.3191,72.704696 2470.0312,67.46875 2470.8958,64.824671 2476.4562,60.143671 2477.5,61.1875 2477.706,61.393501 2477.4255,63.549756 2476.875,66 2474.7931,75.265696 2476.7018,89.827709 2480.5625,94.09375 2482.6111,96.357387 2487.4674,97.211284 2490.4688,95.84375 2491.5664,95.343584 2492.4878,95.272464 2493.5312,95.4375 L 2495,91.625 C 2494.5054,91.032583 2494.2907,90.426979 2494.5625,89.71875 2494.8764,88.900695 2495.2741,88.630813 2496.0625,88.78125 L 2497.3125,84.25 z M 2485.0938,22.78125 2489.1562,25.5 C 2493.0069,28.048284 2493.2012,28.386962 2492.5625,31.84375 2490.9713,40.455475 2490.9711,46.628436 2492.5938,56.75 2495.5604,75.25606 2494.3395,90.205273 2489.625,93.25 2487.8443,94.400025 2485.6191,94.146804 2483.3125,92.53125 2479.9427,90.170947 2478.5799,82.327455 2479.5625,71.09375 2480.024,65.81788 2480.4108,55.864331 2480.4375,48.96875 2480.4771,38.707488 2480.1541,35.643633 2478.5938,32.1875 2477.5453,29.864974 2476.8702,27.830132 2477.0938,27.65625 2477.3174,27.482369 2479.1966,26.316502 2481.2812,25.0625 L 2485.0938,22.78125 z M 2467.4688,23.5 C 2467.9534,23.34454 2468.5712,23.326139 2469.25,23.53125 2472.9627,24.653097 2473.7161,25.972948 2471.5625,27.5625 2469.1252,29.361366 2468.5324,29.346508 2467,27.5 2465.5802,25.789256 2466.0148,23.966381 2467.4688,23.5 z M 2500.8438,24.15625 C 2502.6467,23.899827 2503.1141,24.238526 2502.8438,25.65625 2502.6499,26.673556 2501.45,27.659751 2500.1562,27.84375 2498.3533,28.100173 2497.8859,27.761474 2498.1562,26.34375 2498.3501,25.326444 2499.55,24.340249 2500.8438,24.15625 z M 2505.0312,47.3125 C 2505.4835,47.394228 2505.9659,47.58614 2506.5312,47.84375 2510.0776,49.459574 2512.0181,54.696187 2512,62.71875 2511.9815,70.927054 2510.4993,74.314704 2509.5,68.4375 2509.1323,66.275552 2508.1195,62.543004 2507.25,60.15625 2505.7771,56.113258 2505.4632,55.860378 2502.5938,56.3125 2500.8999,56.579407 2498.4375,57.123294 2497.1562,57.53125 2495.0606,58.198453 2494.8597,58.002143 2495.1562,55.53125 2495.3813,53.656093 2496.8593,51.806327 2499.75,49.71875 2502.5477,47.698379 2503.6745,47.067317 2505.0312,47.3125 z M 2463.9375,89.125 2460.4688,91.15625 C 2458.5649,92.279533 2457,93.598077 2457,94.09375 2457,95.431502 2458.267,95.201756 2460.875,93.375 2463.0895,91.823888 2463.3349,91.871579 2465.6562,94.375 2466.9969,95.820834 2468.5035,97 2469.0312,97 2470.9586,97 2469.9314,94.380871 2466.9688,91.78125 L 2463.9375,89.125 z"/>
</svg>
