<svg xmlns="http://www.w3.org/2000/svg"
     width="18.4" height="64.0"
     viewBox="3487.3268 18.0414 25.1720 87.4803">
  <path d="M 3492,98.420439 C 3492,97.001681 3492.5174,91.489181 3493.1497,86.170439 3494.0137,78.902993 3494.0159,72.524183 3493.1588,60.5 3491.7423,40.628327 3491.3268,23.339896 3492.2436,22.423026 3492.6253,22.041358 3494.1323,22.5119 3495.5925,23.468675 3497.7627,24.890611 3498.7092,24.997906 3500.7759,24.056259 3502.4495,23.293711 3503.6399,23.239936 3504.2972,23.897196 3507.4535,27.053525 3508.4988,96.511218 3505.4283,99.059491 3504.7159,99.650708 3503.1223,99.590004 3501.1309,98.895793 3498.5694,98.002844 3497.499,98.09828 3495.5181,99.396207 3492.2742,101.52166 3492,101.44561 3492,98.420439 z M 3502.2949,27.975567 C 3501.8577,27.582786 3499.8125,27.476833 3497.75,27.740116 3494.0948,28.206716 3494.0003,28.323435 3494.0137,32.359406 3494.0355,38.977009 3494.8923,40.742861 3498.849,42.32459 L 3502.5,43.784125 3502.7949,36.23692 C 3502.957,32.085957 3502.732,28.368348 3502.2949,27.975567 z M 3504.989,61.75 C 3504.9692,50.529471 3504.2008,48.143063 3499.9008,45.949383 3497.7992,44.877222 3495.6543,44 3495.1344,44 3494.2333,44 3494.5605,57.757962 3495.5805,62.755466 3495.8539,64.094871 3497.3525,65.584808 3499.2704,66.423892 3504.7175,68.807005 3505.001,68.575252 3504.989,61.75 z M 3504.3121,84.092557 C 3504.8337,73.909497 3504.6988,72.342737 3503.2029,71.206571 3501.4,69.837153 3497.1438,68.5065 3496.5606,69.129904 3496.3702,69.333457 3495.9616,75.35 3495.6525,82.5 L 3495.0906,95.5 3499.4044,95.592557 3503.7183,95.685114 3504.3121,84.092557 z"/>
</svg>
