<svg xmlns="http://www.w3.org/2000/svg"
     width="27.5" height="64.0"
     viewBox="4329.0000 9.6445 40.3668 94.0911">
  <path d="M 4333.1562,85.84375 4333,86 4333.625,91.5 C 4334.1546,91.152596 4335.0644,91 4336.625,91 4339.4788,91 4341.0419,90.208093 4344.0312,87.21875 4349.0534,82.196547 4349.6257,77.821677 4348,57.75 4347.2957,49.054338 4347.0424,39.408883 4347.4062,36.3125 4348.1764,29.76073 4350.6046,24 4352.625,24 4355.1855,24 4356.227,29.321268 4356.4062,43.5 4356.5719,56.5944 4356.7531,57.83514 4359.3125,62.875 4360.8175,65.838627 4361.8037,68.540089 4361.5,68.84375 4361.1963,69.147411 4359.5143,69.404788 4357.75,69.4375 4354.6329,69.495296 4354.5044,69.655311 4353.75,75 4352.7022,82.42314 4349.4591,90.184679 4346.0312,93.46875 4342.0879,97.246704 4336.3224,97.723664 4334.0312,95.3125 L 4334.5,99.5 4334.5312,99.625 C 4337.708,99.735593 4340.581,99.645591 4342.1562,99.125 4348.0177,97.187827 4354.479,86.824011 4355.875,77.125 4356.4949,72.818217 4356.7296,72.5 4359.4688,72.5 4361.6029,72.5 4362.7638,71.812075 4363.6875,70 4365.2428,66.948954 4365.3668,64 4363.9375,64 4363.3565,64 4361.9458,61.905585 4360.8125,59.34375 4359.044,55.345761 4358.8704,53.4686 4359.4062,46.09375 4360.9509,24.839582 4354.4277,13.64454 4348,26.5 4345.7153,31.069393 4345.5192,32.576518 4345.5938,44 4345.6386,50.875 4345.8636,61.96703 4346.0938,68.65625 4346.4774,79.804883 4346.328,81.054964 4344.4062,83.65625 4340.5236,88.911908 4334.949,89.944871 4333.1562,85.84375 z"/>
</svg>
