<svg xmlns="http://www.w3.org/2000/svg"
     width="52.8" height="64.0"
     viewBox="6597.4953 18.2187 69.2854 83.9967">
  <path d="M 6624.6668,96.333333 C 6623.3263,94.992855 6624.0517,88.896554 6625.9797,85.299339 L 6627.9592,81.605927 6625.3446,77.052963 C 6621.8565,70.978999 6618.1029,66 6617.0119,66 6615.3224,66 6609.9878,78.532703 6608.7469,85.417112 6608.0612,89.221523 6606.9663,92.511963 6606.3138,92.7292 6603.7075,93.597002 6601.4953,87.838456 6601.6318,80.541318 6601.7917,71.991012 6604.6208,63.971356 6609.4799,58.294666 6613.7533,53.30217 6615.9323,52.671192 6620.6296,55.066034 6622.6461,56.094083 6624.6794,56.698233 6625.148,56.40859 6626.4353,55.613016 6626.1691,48.569045 6624.8001,47.2 6624.1401,46.54 6621.9508,46 6619.935,46 6616.108,46 6611.8089,43.379789 6609.9564,39.918271 6608.2132,36.661146 6610.5166,30.669558 6615.1058,26.52348 6619.8707,22.218665 6622.328,22.324679 6627.7305,27.068144 6629.5671,28.680665 6631.4217,30 6631.8519,30 6632.2821,30 6635.1914,28.692126 6638.3171,27.093612 6641.4427,25.495099 6644.8632,24.412948 6645.9182,24.688832 6648.866,25.459709 6650.318,30.357152 6650.4133,39.851033 6650.4839,46.890858 6650.2225,48.5 6649.008,48.5 6648.1873,48.5 6646.7124,46.793604 6645.7303,44.708008 6643.6469,40.283255 6641.809,39.310415 6638.4363,40.847102 6636.1725,41.878556 6636.0001,42.483588 6636.0001,49.395228 6636.0001,57.944824 6636.595,58.536333 6642.5001,55.858106 6647.9687,53.377864 6649.393,53.528099 6653.3502,57.002512 6659.6439,62.528453 6662.7807,74.512434 6660.5007,84.320578 6658.0409,94.902195 6657.0044,94.594506 6653.525,82.25 6648.4827,64.359756 6646.8503,62.546504 6642.9816,70.53812 L 6640.7848,75.07624 6643.6346,79.28812 C 6647.2771,84.671418 6647.732,93.258736 6644.5001,95.626428 6642.3273,97.218227 6642.5303,97.371988 6637.5843,90.38898 L 6635.6685,87.684181 6633.3613,90.59209 C 6628.1535,97.155683 6626.5488,98.21532 6624.6668,96.333333 z M 6630.8671,89.100257 C 6632.169,86.761204 6633.8732,84.602184 6634.6544,84.302435 6636.4741,83.604136 6639.4762,86.320976 6641.03,90.072294 6642.7126,94.134241 6644.0001,93.729002 6644.0001,89.137505 6644.0001,86.351401 6643.1641,84.222998 6641.0001,81.5 6639.3501,79.423745 6638.0263,76.999368 6638.0583,76.112495 6638.1504,73.560493 6643.3284,63.73378 6645.1663,62.622983 6648.6628,60.509729 6651.8471,65.727518 6655.0739,78.857621 6656.0683,82.904312 6657.0889,86.422135 6657.3418,86.675005 6658.3235,87.656709 6659.1671,78.598143 6658.5064,74.169582 6657.6059,68.133662 6655.9599,64.278862 6652.5627,60.25 6649.5962,56.731795 6646.6756,56.17447 6643.559,58.531803 6641.1118,60.382755 6636.6016,60.429739 6635.0996,58.619926 6634.4697,57.860886 6633.754,53.650769 6633.5093,49.264111 6633.1036,41.993306 6633.2603,41.111055 6635.2822,39.282218 6638.9245,35.987697 6641.6771,35.857332 6645.1897,38.812994 L 6648.3266,41.452528 6647.7193,35.567885 C 6646.8313,26.964339 6645.7002,26.281097 6638.4398,29.962734 6635.173,31.619296 6631.9722,32.980365 6631.327,32.987333 6630.6818,32.9943 6628.8039,31.65 6627.1539,30 6622.1418,24.987883 6616.8798,26.403041 6613.0697,33.787773 6610.6282,38.519765 6614.5832,42.644405 6622.0814,43.186011 6626.0705,43.474154 6626.544,43.805239 6627.834,47.208247 6629.5095,51.628138 6628.6345,59.819326 6626.3951,60.678658 6625.5894,60.987846 6622.9396,60.18482 6620.5067,58.894155 L 6616.0832,56.547492 6613.2916,58.619605 C 6611.7563,59.759267 6609.0376,63.500399 6607.2501,66.933231 6604.4371,72.335563 6604.0001,74.171385 6604.0001,80.587372 6604.0001,87.635493 6605.4208,90.66856 6606.4183,85.75 6606.6693,84.5125 6607.133,82.276117 6607.4488,80.780259 6607.7646,79.284402 6609.5673,74.671902 6611.4547,70.530259 6614.4472,63.963652 6615.2195,63 6617.4897,63 6619.3587,63 6620.5737,63.865787 6621.7966,66.068939 6622.7335,67.756856 6625.1749,71.694356 6627.2218,74.818939 6631.6402,81.563322 6631.7998,83.034057 6628.5001,86.594501 6625.8943,89.406257 6625.0074,94.489711 6627.2501,93.759875 6627.9376,93.536139 6629.5653,91.439311 6630.8671,89.100257 z"/>
</svg>
