<svg xmlns="http://www.w3.org/2000/svg"
     width="37.2" height="64.0"
     viewBox="5977.8788 15.8502 49.8712 85.8749">
  <path d="M 6023.75,84.59375 C 6023.2681,83.412716 6022.5707,79.878359 6022.0312,75.5 6018.8733,49.870176 6010.1296,27.514936 6001.2188,22.28125 5997.2022,19.922188 5996.6816,19.850152 5993.25,21.15625 5985.5425,24.089743 5983.4446,32.917948 5982.5625,66 5981.8788,91.6411 5982.1744,93.643238 5987.1875,95.40625 5989.4581,96.204778 5990.403,95.86786 5993.5625,93.09375 5997.8731,89.309003 5999.9183,89.443393 6006.9062,94.0625 6011.8658,97.34081 6014.5379,97.725093 6017.0312,95.46875 6017.9444,94.642378 6018.8242,94.523392 6020.0938,94.78125 L 6020,94 6023.75,84.59375 z M 5994.125,23.1875 C 5995.1238,23.009141 5996.2306,23.087652 5997.5,23.40625 6001.2932,24.358294 6004.324,28.022626 6008.5625,36.8125 6012.7208,45.43601 6015.41,53.938905 6017.4688,65 6019.9645,78.408698 6020.1487,84.066654 6018.2188,89 6017.2523,91.470137 6015.7798,93.567514 6014.9688,93.6875 6014.1576,93.807485 6010.575,92.360375 6007,90.46875 6003.425,88.577125 5999.7246,87.042248 5998.7812,87.03125 5997.8379,87.020252 5995.5355,88.35 5993.6562,90 5987.3373,95.548133 5984.5346,93.290277 5984.5312,82.625 5984.5262,66.639734 5986.1557,36.270897 5987.1875,33 5989.1882,26.657894 5991.1285,23.722576 5994.125,23.1875 z M 5994.6562,30.1875 C 5992.8532,30.837848 5992.0001,34.943087 5991,44.03125 5989.4608,58.019062 5989.3664,75.82266 5990.8125,79.28125 5992.2136,82.632143 5994.618,83.721905 5997.125,82.15625 5999.8269,80.468868 6001.2156,80.707979 6005,83.5 6009.0734,86.505267 6010.5972,86.625472 6011.9688,84.0625 6013.5274,81.150192 6013.2304,75.479305 6011.0625,67.0625 6009.9904,62.900046 6008.1382,55.257744 6006.9688,50.0625 6004.563,39.375587 6002.9718,35.767231 5999.1562,32.40625 5997.1604,30.648271 5995.7381,29.797291 5994.6562,30.1875 z M 5995.2812,34.375 C 5996.3555,33.300792 6000.0141,37.067609 6001.6562,40.96875 6002.4713,42.904916 6003.9784,48.55 6005.0312,53.5 6006.0841,58.45 6007.6204,65.2 6008.4375,68.5 6009.2546,71.8 6009.9492,76.1875 6009.9688,78.25 6010.0095,82.544083 6009.8432,82.602949 6004.6875,79.8125 6001.4434,78.056692 6000.4821,77.906278 5998.2188,78.9375 5995.874,80.005871 5995.3452,79.900219 5993.7812,77.96875 5992.2986,76.137805 5992.0074,73.847471 5992.0625,64.125 5992.1278,52.589089 5993.9504,35.705944 5995.2812,34.375 z"/>
</svg>
