<svg xmlns="http://www.w3.org/2000/svg"
     width="64.0" height="55.6"
     viewBox="4130.5000 57.5948 49.3857 42.9052">
  <path d="M 4135.3125,86.4375 4134.5,96.5 4138.5938,95.96875 C 4143.4883,95.335285 4149.3684,93.901864 4151.6562,92.78125 4156.3194,90.497103 4160.3206,85.798891 4159.7812,83.21875 4159.522,81.97886 4158.7065,82.618753 4156.7812,85.625 4153.7674,90.330904 4150.8608,91.64675 4141.3125,92.625 4135.2756,93.243501 4134.8244,93.168518 4135.1875,91.40625 4135.4799,89.986507 4136.3171,89.544293 4138.5312,89.71875 4146.5289,90.348912 4155.9336,83.237909 4158.4375,74.625 4160.2987,68.222646 4163.8492,64.505791 4167.3125,65.375 4169.9075,66.026304 4173,71.232912 4173,74.96875 4173,76.300239 4173.4374,76.862428 4174.125,76.4375 4175.8857,75.349335 4174.4459,68.076279 4171.9375,65.40625 4168.7732,62.038052 4166.4898,61.594805 4163,63.65625 4160.0062,65.424755 4156,72.074931 4156,75.28125 4156,77.450766 4150.4534,83.728189 4146.9062,85.5625 4145.3652,86.359404 4142.0045,87 4139.4375,87 4137.6053,87 4136.4117,86.850373 4135.3125,86.4375 z M 4165.0312,73 C 4163.6469,73 4162.6597,77.525693 4163.4062,80.5 4164.4702,84.738998 4166,83.266204 4166,78 4166,75.25 4165.5707,73 4165.0312,73 z"/>
</svg>
