<svg xmlns="http://www.w3.org/2000/svg"
     width="51.1" height="64.0"
     viewBox="1290.8034 14.6861 70.9890 88.9181">
  <path d="M 1316.0352,96.065741 C 1314.2697,92.766926 1314.8687,90.346383 1318.537,85.955685 1320.4824,83.627237 1321.8596,81.222161 1321.5974,80.611072 1321.3353,79.999982 1319.9757,75.9 1318.576,71.5 1315.5672,62.041359 1312.7913,59.304591 1309.8679,62.914759 1307.7615,65.51614 1304.5285,73.925478 1302.3951,82.352343 1299.3745,94.28409 1298.9992,94.986203 1299.4712,87.822506 1300.0701,78.73351 1305.3618,63.175374 1308.8371,60.285963 1310.3017,59.068243 1312.2508,58.055743 1313.1684,58.035963 1315.4532,57.986715 1318.6953,63.548229 1321.4468,72.23662 1322.7119,76.231479 1324.0615,80.24694 1324.4459,81.159866 1324.9356,82.322795 1324.0753,83.792972 1321.5724,86.070544 1319.4204,88.028853 1318,90.251456 1318,91.660678 1318,95.151978 1319.506,94.514877 1323.1074,89.5 1324.8848,87.025 1326.9186,85 1327.6269,85 1328.3352,85 1330.1714,86.574987 1331.7074,88.499971 1333.2433,90.424954 1334.8863,91.999954 1335.3584,91.999971 1336.7364,92.000018 1335.0287,86.68969 1332.9259,84.435549 1331.8666,83.300101 1331,81.440287 1331,80.302629 1331,77.376079 1338.5128,60.852179 1340.2974,59.853422 1343.3464,58.147118 1349.4612,70.307597 1351.5648,82.261045 1351.9289,84.32962 1352.695,86.311482 1353.2673,86.665182 1353.9752,87.102689 1354.1291,84.1421 1353.7487,77.404137 1353.1302,66.450245 1350.3183,57.227404 1346.4035,53.31257 1343.9824,50.891482 1338.6448,50.147615 1337.4592,52.06605 1336.1792,54.137093 1328.6741,59 1326.7577,59 1325.6895,59 1323.6713,58.1 1322.2729,57 1320.8744,55.9 1319.0325,55 1318.1796,55 1317.3267,55 1315.5533,53.989483 1314.2386,52.754407 L 1311.8483,50.508813 1308.0829,54.545442 C 1305.6913,57.109377 1303.7408,60.573681 1302.7365,64.041036 1300.6456,71.260038 1297.9755,83.572821 1297.0675,90.182918 1296.4573,94.624804 1296.2184,95.084081 1295.6161,92.973162 1294.8034,90.124696 1297.9843,70.981244 1300.5981,62.990006 1301.6645,59.729409 1304.0473,55.925758 1307.0666,52.663966 1311.5702,47.798712 1311.9792,47.580505 1314.1367,48.891725 1315.3962,49.657174 1318.7822,51.505533 1321.6611,52.999191 1327.8588,56.214757 1328.2609,55.789077 1327.3408,46.986083 1326.735,41.190343 1326.6328,41.021742 1323.3539,40.40661 1319.7667,39.733642 1314.9974,35.03106 1315.0037,32.173275 1315.0081,30.213731 1317.8477,25.449712 1320.9185,22.25 1324.3389,18.686096 1333.9968,19.539265 1336.6855,23.642841 1340.0239,28.737803 1337.4925,38.336314 1332.4786,39.594723 1329.785,40.270786 1328.7916,44.661404 1330.1881,49.718939 1331.2757,53.65811 1332.0097,53.745012 1336.7852,50.5 1341.8209,47.078177 1344.1679,47.336251 1348.1534,51.75 1354.1475,58.388149 1357.7924,73.971466 1356.0818,85.646482 1354.5147,96.341822 1350.8836,99.604208 1350.2064,90.925277 1349.494,81.7955 1343.5766,63 1341.4146,63 1340.588,63 1334,77.638196 1334,79.474952 1334,80.35827 1334.975,82.399743 1336.1667,84.011559 1338.4034,87.036966 1338.8489,90.481556 1337.6309,95.334323 1336.6767,99.136465 1334.1119,98.476619 1331.6463,93.794657 1330.5759,91.761984 1329.1367,89.882686 1328.4481,89.61844 1327.7594,89.354194 1325.3271,91.131944 1323.043,93.568996 1318.3926,98.530525 1317.5206,98.841225 1316.0352,96.065741 z M 1326.3097,36.635268 C 1327.0873,34.609055 1325.9286,23.656165 1324.8144,22.5 1324.1807,21.842404 1323.013,22.527212 1321.404,24.5 1316.8503,30.083528 1317.0813,34.155112 1322.0982,36.735258 1325.165,38.312535 1325.6707,38.300529 1326.3097,36.635268 z M 1334.1072,35.370789 C 1334.8509,34.474723 1335.4116,31.921872 1335.3533,29.697787 1335.2383,25.312428 1333.2039,23 1329.4607,23 1327.3949,23 1327.3425,23.243381 1328.2217,28.75 1328.7266,31.9125 1329.3191,35.0625 1329.5385,35.75 1330.0983,37.504875 1332.5017,37.305394 1334.1072,35.370789 z"/>
</svg>
