<svg xmlns="http://www.w3.org/2000/svg"
     width="29.0" height="64.0"
     viewBox="3755.1221 16.1235 41.8779 92.4976">
  <path d="M 3774.8221,97.745033 C 3770.2561,93.917006 3768,88.32843 3768,80.845991 3768,74.95194 3768.4927,73.214573 3772.1707,66.139493 3776.2291,58.332482 3776.3166,57.960346 3775.4207,52.308311 L 3774.5,46.5 3769.2167,46.844813 C 3760.5031,47.413502 3759.1221,44.575911 3763.5174,35.134321 3766.7831,28.118986 3771.6879,22 3774.0455,22 3775.4093,22 3776.2338,23.16266 3777.0592,26.25 3778.1801,30.442196 3779.6313,33 3780.8888,33 3781.243,33 3783.0131,30.525 3784.8224,27.5 3789.2345,20.123529 3793,20.139523 3793,27.534734 3793,30.278237 3791.5186,33.953131 3788.2854,39.230128 3784.6843,45.107741 3785.8149,58.208836 3790.8545,69 3792.3062,72.108397 3792.9598,75.510093 3792.9683,80 3792.9962,94.869261 3783.0239,104.62112 3774.8221,97.745033 z M 3785.6794,95.512002 C 3790.9478,91.821841 3792.5535,78.013194 3788.6207,70.216756 3787.3077,67.613827 3785.3571,60.495179 3784.2681,54.332329 L 3782.2948,43.164658 3784.7652,40.332329 C 3787.564,37.123456 3791,29.762779 3791,26.976112 3791,23.107103 3788.9993,24.153598 3785.7434,29.725602 3783.8884,32.900147 3781.667,35.633041 3780.8068,35.7987 3778.5412,36.235009 3776.2099,33.4931 3774.9879,28.954998 3774.3967,26.759348 3773.3054,25 3772.5348,25 3770.6037,25 3764.9041,35.295906 3764.2866,39.899888 3763.6608,44.565228 3765.393,45.561754 3771.1368,43.840877 3775.9425,42.401058 3776.6492,42.983864 3778.4707,49.888889 3780.0267,55.787386 3779.4794,58.696242 3775.6817,64.712128 3769.582,74.374735 3768.4398,82.021337 3772.0415,89.081329 3775.9568,96.755978 3780.7061,98.995421 3785.6794,95.512002 z M 3776.405,90.893514 C 3773.8013,88.014427 3774.0363,75.484497 3776.794,70.153713 3781.0859,61.856989 3785.5168,66.839699 3785.271,79.686606 3785.0556,90.947348 3781.0419,96.020847 3776.405,90.893514 z M 3782.5617,84.437151 C 3783.8131,76.091871 3781.9305,67.688827 3779.189,69.383179 3777.6689,70.322694 3776.6948,83.08532 3777.9017,86.25 3779.5477,90.565951 3781.7724,89.700488 3782.5617,84.437151 z"/>
</svg>
