<svg xmlns="http://www.w3.org/2000/svg"
     width="25.4" height="64.0"
     viewBox="889.2990 16.0000 34.0983 86.0000">
  <path d="M 902.19662,94.91349 C 899.88827,93.215909 897.99348,91.528409 897.98597,91.16349 897.97846,90.79857 897.71865,89.555088 897.40861,88.400196 897.00297,86.889163 897.98668,84.981181 900.91693,81.595539 907.38442,74.122943 907.35566,72.547271 900.64252,66.55838 897.24734,63.529489 894.97788,60.686545 894.98602,59.472512 894.9935,58.357393 897.26369,54.307393 900.03089,50.472512 905.62813,42.715674 905.6643,42.93547 898.10913,38.79651 893.29902,36.161377 893.94718,32.62535 900.77555,24.25 902.6813,21.9125 905.03397,20 906.00372,20 906.97347,20 909.39426,21.801296 911.38326,24.002881 916.36256,29.514378 916.26954,32.965373 910.99962,38.235294 908.79962,40.435294 906.99962,42.822287 906.99962,43.539724 906.99962,44.25716 908.76365,46.354096 910.91968,48.199582 916.55717,53.025065 917.63646,55.867564 915.44253,60.111388 914.47904,61.975125 912.36905,65.145021 910.75367,67.155601 909.13829,69.166182 907.97356,71.626173 908.16539,72.622248 908.35721,73.618324 910.42353,75.715636 912.75719,77.282943 917.77207,80.650978 919.39732,83.279308 918.55076,86.652247 917.74471,89.863816 910.22962,98 908.06926,98 907.14766,98 904.50497,96.61107 902.19662,94.91349 z M 904.98431,33.25 C 904.96224,24.96439 903.95986,24.011716 900.13996,28.645907 898.41277,30.741286 896.99962,32.958414 896.99962,33.572856 896.99962,35.419481 901.32968,38.613691 904.24962,38.921053 904.66212,38.964474 904.99273,36.4125 904.98431,33.25 z M 905.0922,57.788575 C 904.97592,53.806161 904.64059,50.312062 904.34703,50.023911 903.34236,49.037763 896.98313,57.496313 897.24161,59.474968 897.38352,60.561201 898.55,61.971583 899.8338,62.609152 901.11761,63.246721 902.66261,64.262985 903.26714,64.867517 905.02264,66.623019 905.31684,65.481892 905.0922,57.788575 z M 904.99962,86.5 C 904.99962,80.26452 903.84161,79.567125 901.06609,84.131094 899.54481,86.632638 899.37898,87.73849 900.2413,89.631094 900.83494,90.933992 902.14842,92 903.16014,92 904.72315,92 904.99962,91.173355 904.99962,86.5 z M 911.78335,33.776871 C 913.33979,31.203308 913.31896,30.904686 911.40409,28.339922 907.9199,23.673229 906.99962,24.226939 906.99962,30.989991 906.99962,36.052707 907.2783,37.089199 908.56804,36.823324 909.43067,36.645496 910.87756,35.274592 911.78335,33.776871 z M 913.80819,56.287297 C 913.63226,54.833375 912.10263,52.664032 910.24962,51.24047 L 906.99962,48.743681 906.99962,55.290053 C 906.99962,58.890558 907.29959,62.618136 907.66622,63.57356 908.69895,66.264815 914.22262,59.712057 913.80819,56.287297 z M 915.22308,88.669113 C 916.92551,86.2926 917.05774,85.477122 916.04695,83.58843 914.39281,80.497644 909.13405,77.4042 908.56771,79.188798 907.86447,81.404801 907.23748,94.904531 907.81117,95.478213 908.48304,96.150091 912.52214,92.439493 915.22308,88.669113 z"/>
</svg>
