<svg xmlns="http://www.w3.org/2000/svg"
     width="26.5" height="64.0"
     viewBox="1996.1562 16.9616 36.3419 87.7149">
  <path d="M 2003.5625,81.5 2002.0312,86.875 C 2002.8178,85.767041 2004.2307,85.948751 2009.3438,87.5 2017.1178,89.858562 2018.9523,88.101663 2020.9375,76.5 2021.8691,71.055829 2021.8579,65.526732 2020.9062,51.5 2019.6574,33.092407 2020.154,23.545548 2022.3125,24.25 2025.8949,25.41918 2026.7044,39.492131 2025.0625,72 2024.5047,83.044522 2023.7057,89.739881 2022.6562,92.25 2020.7824,96.732105 2019.4797,96.857259 2009.7188,93.59375 2003.9566,91.667227 2001.7374,90.620374 2001.375,89.21875 L 2000.1562,93.5 C 2000.6967,93.593786 2002.6416,94.254236 2005.5625,95.40625 2018.9249,100.67645 2023.9062,99.315361 2025.9375,89.84375 2027.5321,82.408677 2028.4981,63.956719 2028.3125,44.8125 2028.182,31.35414 2027.8256,27.456503 2026.4375,24.53125 2025.1482,21.814362 2024.2071,20.961574 2022.625,21.1875 2018.2503,21.8122 2017.1314,31.13286 2018.4688,56.0625 2019.4496,74.344106 2018.0225,84.70955 2014.375,85.625 2012.9809,85.974894 2010.2258,85.318576 2007.4375,83.96875 2005.2028,82.886983 2004.0791,82.251242 2003.5625,81.5 z"/>
</svg>
