<svg xmlns="http://www.w3.org/2000/svg"
     width="64.0" height="56.7"
     viewBox="4080.4667 14.4852 98.6518 87.4069">
  <path d="M 4135.0312,18.6875 C 4132.9577,18.48515 4129.6031,20.779339 4122.6562,26.25 L 4119.8125,28.5 4118.1562,26.125 C 4114.3268,20.646035 4112.1102,19 4108.625,19 4102.4435,19 4098.2353,27.713697 4101.4375,33.90625 4102.9382,36.808133 4106.1424,38.645289 4107.8438,37.59375 4108.3176,37.300867 4109.5021,37.636926 4110.4688,38.34375 4112.3161,39.694538 4114.3389,52.33003 4113.0938,54.71875 4112.6507,55.568433 4110.6761,54.86027 4106.4688,52.375 4101.0773,49.190214 4100.1943,48.151586 4097.2812,41.84375 4093.5192,33.697536 4091.3481,33.063888 4089.1562,39.5 4087.9803,42.953082 4088.0123,44.394757 4089.4375,50.09375 4091.0216,56.428263 4090.9962,56.832615 4089.0625,61.34375 4085.3749,69.946569 4084.4667,90.072843 4087.5312,95.03125 4088.841,97.150535 4089.0248,95.255358 4088.1562,88.90625 4087.3076,82.702109 4087.9471,72.630577 4089.5625,66.5 4089.9968,64.851971 4091.6615,60.914471 4093.2812,57.75 4096.6631,51.142476 4098.6193,50.52877 4103.875,54.40625 4108.2048,57.600723 4112.599,59.373743 4114.4688,58.65625 4116.3675,57.927654 4116.5803,46.234539 4114.8125,39.625 4113.7067,35.490523 4113.3808,35.195447 4109.5938,34.6875 4104.7536,34.03831 4102.6534,31.603441 4103.4375,27.59375 4104.1958,23.71646 4105.7624,22 4108.5312,22 4110.9243,22 4115.3812,26.474974 4116.5,30 4117.4678,33.049272 4119.4749,32.42592 4124.7188,27.5 4130.8353,21.754398 4132.8433,21.073813 4135.1875,23.96875 4136.1842,25.199549 4137,27.269518 4137,28.53125 4137,30.614446 4136.6431,30.748926 4133.1562,30.28125 4129.8742,29.841032 4128.8043,30.232199 4125.6875,32.96875 4121.3069,36.814992 4120.0148,41.22563 4120.875,49.5 4121.4229,54.770683 4121.7692,55.527126 4123.7812,55.8125 4125.0411,55.991174 4127.6982,55.217737 4129.6562,54.0625 L 4133.1875,51.9375 4137.0938,55.46875 C 4139.24,57.407813 4141.822,59 4142.8125,59 4146.6598,59 4153.1673,49.895027 4154.5312,42.625 4155.1763,39.185995 4154.9341,38.554888 4152,35.875 4148.1397,32.349125 4148.6201,31.174445 4153.0312,33.375 4155.3099,34.511703 4156.7272,34.683348 4158.0625,33.96875 4160.2131,32.81777 4162.408,25.798272 4161.5,22.9375 4160.5064,19.807113 4159,20.689036 4159,24.40625 4159,30.919654 4156.678,32.738587 4152.4375,29.53125 4149.7203,27.47602 4147.2607,27.638989 4146.5312,29.9375 4145.8043,32.227855 4148.2668,37.471601 4150.7188,38.84375 4152.3332,39.747248 4152.3223,40.117561 4150.6875,45.15625 4149.7343,48.094265 4147.9134,51.778469 4146.625,53.34375 4144.314,56.151348 4144.2382,56.157279 4141.0938,54.53125 4139.3407,53.624712 4137.6493,52.233743 4137.3438,51.4375 4136.6294,49.576 4132.0696,49.634944 4129.5625,51.53125 4126.4228,53.905989 4124.2399,53.337452 4123.5,49.96875 4122.3643,44.797825 4123.9064,38.772559 4127.1562,35.75 4130.986,32.188178 4132.5725,32.27893 4134.5938,36.1875 4136.1573,39.211154 4136.321,39.283208 4137.625,37.5 4139.2994,35.210133 4139.462,25.077041 4137.875,21.59375 4137.0721,19.831663 4136.2754,18.80891 4135.0312,18.6875 z M 4166.0312,20 C 4165.622,20 4164.9968,22.3439 4164.6562,25.21875 4164.3157,28.0936 4163.1441,31.662019 4162.0625,33.125 4160.9808,34.587981 4160.3778,36.065343 4160.7188,36.40625 4162.1346,37.822139 4165.5066,33.980211 4166.5938,29.71875 4167.7541,25.170213 4167.4544,20 4166.0312,20 z M 4091.3125,36.65625 4093.125,38.90625 C 4095.5671,41.922119 4096.5764,47.600498 4095,49.5 4094.3203,50.318971 4093.3976,51 4092.9688,51 4091.4402,51 4090.0207,44.693762 4090.6562,40.71875 L 4091.3125,36.65625 z M 4172.7812,22.78125 C 4172.337,22.277554 4172.0886,23.25192 4171.6562,26.40625 4170.8368,32.384765 4167.9671,37.24347 4163.7188,39.75 4161.2733,41.192813 4160.0612,42.95661 4158.75,47.0625 4157.7973,50.045589 4155.6589,54.840223 4154,57.71875 4149.8943,64.843128 4147.5691,65.328551 4140.3438,60.53125 L 4134.7812,56.84375 4131.9375,59.5625 C 4128.2344,63.110344 4125.2641,69.519268 4124.4375,75.75 4123.8136,80.453316 4123.933,80.806669 4126.75,82.8125 4129.9937,85.122202 4132.3806,89.761126 4131.8125,92.65625 4131.5096,94.199593 4130.8625,93.914147 4127.6875,90.75 4123.12,86.198199 4120.3225,86.010214 4116.5,90 4114.9192,91.65 4113.2342,93 4112.75,93 4111.2584,93 4113.0709,88.644792 4115.7812,85.75 L 4118.375,83 4116.6562,77.53125 C 4115.7072,74.520647 4114.2708,71.395792 4113.4688,70.59375 4112.6666,69.791708 4112,68.651785 4112,68.0625 4112,67.473214 4110.2,65.2 4108,63 4101.4473,56.447266 4097.6883,57.822637 4094.375,68 4092.0783,75.05464 4091.7604,93.048614 4093.9062,93.78125 4094.9666,94.143225 4095.1081,93.611753 4094.5938,91.5625 4094.2227,90.083667 4094.4862,84.170525 4095.1562,78.40625 4096.3684,67.978092 4098.5875,62 4101.25,62 4104.3477,62 4110.2894,69.668959 4113.5312,77.8125 4115.1944,81.990119 4115.1909,82.173749 4113.1875,84.3125 4110.3976,87.290942 4109.0965,91.057133 4109.7188,94.3125 4110.3605,97.669623 4113.1912,97.892062 4115.25,94.75 4116.064,93.507679 4117.9133,91.844733 4119.375,91.0625 4121.9043,89.708835 4122.2314,89.817117 4125.875,93.375 L 4129.6875,97.125 4134.5,96.5 4135.3125,86.4375 C 4133.959,85.929113 4132.7516,85.001645 4130.875,83.125 4128.4871,80.737128 4127,78.281689 4127,76.78125 4127,72.763459 4129.9396,65.405407 4132.5,63 L 4134.9062,60.75 4139.6875,63.625 C 4147.1757,68.109007 4147.6402,68.180746 4150.9375,65.40625 4153.8231,62.978214 4161,50.110214 4161,47.375 4161,46.635853 4163.3915,43.639827 4166.3125,40.71875 4172.218,34.813329 4175.1185,27.797263 4173.3125,23.75 4173.1012,23.276311 4172.9293,22.949149 4172.7812,22.78125 z"/>
</svg>
