<svg xmlns="http://www.w3.org/2000/svg"
     width="34.4" height="64.0"
     viewBox="584.0000 17.0288 45.0000 83.6982">
  <path d="M 606.5,21.15625 C 605.4687,21.283708 604.18487,22.234489 602.4375,24.0625 599.77316,26.8498 599.09946,27.083537 595.1875,26.5 590.07118,25.736811 588,27.024004 588,31 588,34.165072 590.21845,35.474115 593.03125,33.96875 595.40488,32.698424 596.31134,34.262961 598,42.46875 599.49431,49.730186 598.88744,56.361287 595.46875,69.4375 592.71612,79.966069 592.14091,88.522163 593.96875,91.9375 594.57738,93.074748 595.19825,94 595.34375,94 595.48925,94 595.59165,89.8375 595.59375,84.75 595.59663,77.781068 596.15709,73.897088 597.84375,69 599.07505,65.425 600.61192,59.458935 601.25,55.75 602.28795,49.716811 602.15794,48.137866 600.1875,40.625 598.97616,36.006427 598,31.799192 598,31.28125 598,30.763307 599.74358,28.931601 601.875,27.21875 L 605.75,24.09375 608.96875,28.125 612.21875,32.15625 610.46875,36.6875 C 608.42326,42.043555 608.32634,44.461887 609.9375,49.34375 610.90742,52.282626 612.27025,53.568695 617.125,56.15625 617.20424,56.198483 617.26479,56.238568 617.34375,56.28125 L 618.5,53.53125 C 611.7022,49.461727 609.81972,44.995536 612.53125,38.21875 614.1465,34.181843 614.37854,34 618.5625,34 623.29475,34 625,32.346607 625,27.6875 625,23.523032 621.42284,23.286473 615.875,27.125 613.39897,28.838152 613.17155,28.849368 611.75,27.21875 610.92322,26.270387 609.73377,24.4875 609.09375,23.25 608.3101,21.734796 607.5313,21.028792 606.5,21.15625 z M 621.84375,26 C 623.2657,26 623.90274,29.691005 622.6875,30.90625 621.09375,32.500001 616,32.290438 616,30.625 616,29.245581 620.09573,26 621.84375,26 z M 591.96875,28.09375 C 592.50529,28.084431 593.06978,28.193191 593.625,28.40625 594.93099,28.907406 595.00022,29.294802 594,30.5 592.38482,32.446167 589,32.428905 589,30.46875 589,29.084321 590.35914,28.121706 591.96875,28.09375 z M 614.875,62.125 C 610.64025,58.75351 608.88643,57.83342 607.59375,58.90625 605.46435,60.6735 601.97104,69.56045 600.96875,75.71875 600.20318,80.42264 600.37313,81.935657 602.125,85.78125 603.80643,89.472233 603.98468,90.757281 603.0625,92.78125 601.49813,96.214653 602.48906,96.72697 604.5625,93.5625 606.15334,91.134575 606.14142,90.658187 604.625,86.6875 602.49168,81.101477 602.56935,75.192614 604.84375,69.28125 605.85675,66.648389 606.97038,63.70568 607.3125,62.75 607.8903,61.13598 608.19134,61.172849 611.5,63.125 612.44242,63.681041 613.12577,64.188581 613.78125,64.71875 L 614.875,62.125 z"/>
</svg>
