<svg xmlns="http://www.w3.org/2000/svg"
     width="51.7" height="64.0"
     viewBox="3334.9010 10.2632 76.6761 94.9162">
  <path d="M 3356.0128,98.302726 C 3351.9332,94.657595 3351.071,88.414756 3353.4215,79.539901 3354.2897,76.261847 3354.9983,71.761847 3354.9963,69.539901 3354.9925,65.515351 3351.9346,59 3350.0495,59 3349.5105,59 3347.532,60.35 3345.6528,62 3341.2405,65.874064 3339,65.92106 3339,62.139547 3339,58.896253 3342.8272,52.593609 3346.819,49.26311 3349.3177,47.178319 3349.5049,46.462984 3349.5715,38.742823 3349.6952,24.4226 3356.2134,14.263171 3361.9478,19.452782 3365.7251,22.871193 3368.3778,30.992592 3368.4272,39.290392 3368.4718,46.763778 3368.5759,47.105937 3370.9868,47.698941 3372.3691,48.038928 3374.8925,49.370751 3376.5944,50.658549 3378.2963,51.946347 3380.1898,53 3380.8022,53 3381.9966,53 3386.3559,45.962533 3387.466,42.242362 3387.9155,40.73578 3387.2419,38.14992 3385.4412,34.469393 3383.3451,30.185046 3382.8655,28.03939 3383.2925,24.855946 3383.8455,20.733315 3385.418,18.084671 3386.6069,19.273539 3386.959,19.625651 3386.8889,20.720651 3386.451,21.706872 3384.975,25.03176 3385.0889,28.266495 3386.799,31.587945 L 3388.5,34.891763 3388.5944,28.387182 C 3388.6583,23.988373 3389.1836,21.387837 3390.2171,20.35431 3391.5882,18.983257 3391.6925,19.565793 3391.2309,26.016379 3390.8455,31.402943 3391.054,33.415353 3392.062,34.038332 3393.5604,34.964376 3393.7134,34.528712 3387.3981,47.319586 3382.1982,57.851139 3381.9336,58.009506 3376.2981,53.962388 3373.7455,52.129251 3370.0467,50.347427 3368.0785,50.002778 3365.6414,49.57602 3364.6202,48.917445 3364.8769,47.938072 3365.0842,47.147132 3365.4429,43.35 3365.6741,39.5 3366.0456,33.313087 3365.7659,31.861146 3363.266,27 3359.5773,19.827231 3356.9454,19.226636 3354.0523,24.897466 3351.7878,29.336343 3351.1973,40.758563 3352.9888,45.470578 3353.7995,47.602852 3353.6644,48.171332 3352.2388,48.626355 3347.8829,50.016682 3345.9639,51.575572 3343.0251,56.110866 3338.901,62.47539 3339.9629,63.983749 3345.4196,59.51234 3347.7771,57.580553 3350.5825,56 3351.6537,56 3354.1131,56 3358,63.642039 3358,68.47753 3358,72.853016 3356.0582,82.210918 3354.8932,83.45 3352.5287,85.96484 3354.458,93.061293 3358.367,96.227764 3362.5345,99.603526 3373.778,97.502989 3379.1646,92.342325 L 3381.8575,89.762342 3384.6787,91.756834 C 3386.2304,92.853804 3388.9625,94.068032 3390.75,94.455118 3395.2048,95.419816 3395.0991,93.051584 3390.5188,89.276124 L 3387.0376,86.40664 3388.97,81.321142 C 3390.7752,76.570046 3390.7581,75 3388.9011,75 3388.48,75 3385.8073,78.131021 3382.9616,81.957826 3378.9395,87.366768 3376.8137,89.287646 3373.4121,90.58671 3369.7547,91.983512 3368.5437,92.05362 3366.0335,91.013881 3361.5644,89.162731 3360.6636,84.745898 3363.2445,77.338646 3364.3633,74.127391 3365.2875,68.9125 3365.2982,65.75 3365.3088,62.5875 3365.648,60 3366.0518,60 3368.3821,60 3368.1275,69.199225 3365.5758,77.199636 3363.3941,84.039992 3364.0198,87.715881 3367.5152,88.593178 3372.1122,89.74695 3374.892,88.100433 3381.0839,80.556212 3387.7335,72.454325 3389.6188,71.190181 3391.7994,73.370873 3393.0159,74.587296 3393.0483,75.630384 3392.0047,79.980533 3390.8058,84.978123 3390.8505,85.23453 3393.3828,87.877635 3396.2178,90.836808 3396.812,95.081209 3394.6432,96.881187 3393.0851,98.174267 3387.5507,97.407903 3384.4182,95.465294 3382.612,94.34519 3381.5123,94.58272 3376.1116,97.259561 3372.3975,99.100446 3367.7483,100.52218 3364.5847,100.78454 3359.8233,101.17939 3358.949,100.92627 3356.0128,98.302726 z M 3373.7884,61.698383 C 3367.1668,58.542922 3365.4528,56.245494 3370.1102,56.768211 3371.4246,56.915727 3373.7632,57.960686 3375.3071,59.090343 3378.9118,61.727939 3384.492,62.666471 3386.5272,60.977454 3387.3764,60.272638 3389.6694,56.501877 3391.6226,52.597985 3395.7956,44.257751 3397.3072,42.390694 3400.5447,41.578129 3403.1231,40.930996 3405.4781,37.582561 3404.485,35.975663 3404.1508,35.435011 3402.7742,35.269561 3401.4257,35.607997 3396.7496,36.781638 3394.1924,31.508757 3396.0954,24.616794 3397.6119,19.124357 3399.0508,20.276674 3398.7591,26.75 L 3398.5,32.5 3401.8,32.6 C 3406.621,32.746091 3407.5771,34.130339 3406.1491,38.896544 3405.1983,42.07012 3404.2888,43.079616 3401.5727,43.976006 3399.3945,44.69489 3397.5974,46.23938 3396.5447,48.297366 3390.198,60.704987 3386.5749,65.043348 3382.6392,64.948383 3381.4626,64.919993 3377.4798,63.457493 3373.7884,61.698383 z"/>
</svg>
