<svg xmlns="http://www.w3.org/2000/svg"
     width="41.7" height="64.0"
     viewBox="1190.0938 42.0563 42.3505 64.9439">
  <path d="M 1198.8438,88.78125 1196.9688,92.59375 C 1197.8573,92.358061 1198.994,92.228853 1200.5938,92.46875 1209.2348,93.764577 1212.533,89.032467 1212.1562,76 1212.0211,71.325 1211.8639,64.917822 1211.7812,61.75 1211.6662,57.345695 1212.0932,55.345468 1213.6562,53.25 1219.022,46.056313 1221.1668,51.862701 1218.5312,66.5 1216.6693,76.841234 1217.2555,81.114209 1221.0312,84.53125 1223.1629,86.46039 1223.7395,91 1221.8438,91 1221.1996,91 1219.8949,90.30701 1218.9688,89.46875 1217.3022,87.960613 1214,88.37511 1214,90.09375 1214,90.583322 1212.364,92.798416 1210.375,95 1206.6293,99.146039 1205.6287,99.429487 1200.375,97.90625 1197.9469,97.202286 1196.4403,96.207689 1195.7188,95.25 L 1194.0938,98.78125 C 1194.7442,98.85467 1195.3555,98.988454 1196.2812,99.46875 1197.7225,100.2165 1199.7326,101.05642 1200.7188,101.3125 1207.2181,103.00022 1211.5144,101.2283 1213.5938,96.03125 1215.3102,91.741698 1215.973,91.375626 1219.125,93.0625 1224.2271,95.79305 1228.4443,87.521981 1224,83.5 1220.6305,80.450598 1219.9877,75.810098 1221.5,65.6875 1223.5121,52.220074 1221.7728,46.821421 1215.9062,48.3125 1212.5572,49.163695 1208.9677,56.311503 1208.7812,62.53125 1208.6997,65.256384 1208.9932,70.692133 1209.4375,74.59375 1210.7835,86.413426 1207.3123,92.600653 1200.7188,90.09375 1199.7862,89.739196 1199.2476,89.352448 1198.8438,88.78125 z"/>
</svg>
