<svg xmlns="http://www.w3.org/2000/svg"
     width="36.4" height="64.0"
     viewBox="1237.8205 15.1495 50.3462 88.6094">
  <path d="M 1247.75,97.977634 C 1244.9967,96.28312 1243.0288,91.56922 1242.3455,85.031194 1241.8205,80.008342 1242.1747,77.663462 1244.4859,70.862366 1246.0091,66.379941 1248.3525,61.095789 1249.6934,59.119806 L 1252.1315,55.52711 1248.5239,52.633002 C 1243.4136,48.533383 1241.9984,45.202172 1242.0098,37.29966 1242.0227,28.30316 1245.5865,20 1249.4349,20 1252.4792,20 1253.5606,23.092981 1252.6052,29.067691 1251.6478,35.054658 1256.2248,42.228734 1263.4841,46.119459 1269.4473,49.315572 1272.6942,45.766967 1277.1448,31.189338 1279.575,23.22931 1280.3494,22.215145 1282.5821,24.068111 1283.9917,25.238 1284.1667,26.843959 1283.7161,34.47573 1283.1033,44.856014 1280.7214,52.468725 1276.6688,56.999632 1273.9536,60.035283 1273.5668,60.151368 1267.2302,59.832497 1260.7201,59.504893 1260.5896,59.548928 1258.3606,62.824897 1255.7754,66.62453 1253,75.397042 1253,79.769049 1253,83.584224 1256.4667,88 1259.4618,88 1262.8682,88 1265.5165,85.293194 1269.237,78.008655 1273.9039,68.871 1275.5876,68.926387 1275.5656,78.216844 1275.5521,83.906681 1276.0505,86.450973 1277.8439,89.846952 1279.1065,92.237775 1279.8973,94.825275 1279.6012,95.596952 1278.8932,97.442011 1273.2837,97.396439 1269.6791,95.516343 1267.0813,94.161399 1266.6267,94.216152 1263.9319,96.208491 1260.6022,98.670198 1250.6442,99.758891 1247.75,97.977634 z M 1264.494,93.005638 C 1266.9568,90.691911 1267.0973,90.675956 1270.5416,92.318457 1274.0281,93.981045 1277,94.506413 1277,93.460162 1277,93.163251 1276.1,91.156178 1275,89 1273.9,86.843822 1273,83.206649 1273,80.917393 1273,77.330969 1272.7925,76.927343 1271.5,78 1270.675,78.684689 1270,79.887136 1270,80.672105 1270,83.797484 1266.7886,88.061476 1263.354,89.496568 1258.1825,91.657352 1256.5033,91.386805 1253.5889,87.923275 1249.9243,83.568106 1250.0277,75.795466 1253.8643,67.230815 1257.7885,58.470684 1260.2869,55.791642 1263.7582,56.621331 1265.2662,56.981765 1267.175,57.584661 1268,57.961101 1268.825,58.337541 1270.85,58.387792 1272.5,58.072769 1277.2268,57.170319 1280.8363,48.770367 1281.6345,36.815367 1282.3617,25.922119 1281.4898,25.962122 1277.6102,37 1274.0054,47.256101 1272.2547,49.428403 1267.2939,49.800466 1264.0281,50.045408 1262.478,49.483232 1258.9053,46.758296 1251.6719,41.241165 1249.8385,37.689785 1250.1599,29.817687 1250.5561,20.112366 1248.5,19.149489 1245.5936,27.679305 1242.0487,38.083112 1244.417,47.32373 1251.4932,50.698127 1255.2207,52.475672 1256.2125,55.748797 1253.6644,57.863538 1252.1656,59.10747 1248.9962,65.34225 1246.5951,71.770236 1243.8503,79.118396 1244.9888,91.698719 1248.6616,94.604937 1251.6146,96.941528 1261.3514,95.95797 1264.494,93.005638 z"/>
</svg>
