<svg xmlns="http://www.w3.org/2000/svg"
     width="59.2" height="64.0"
     viewBox="3104.6093 13.0227 79.8910 86.3743">
  <path d="M 3143.2035,83.006323 C 3141.1332,79.36809 3139.9453,79.28555 3135.2799,82.455774 3128.9552,86.753533 3128.2211,83.828764 3133.6221,75.850489 3139.7125,66.853704 3141.9298,59.601711 3141.7681,49.207591 3141.62,39.688674 3142.6762,36.592713 3147.375,32.772236 3155.3662,26.274798 3166.0138,39.172226 3160.9129,49.170769 3158.8253,53.262852 3158.8458,53.291748 3163.6617,53.032308 3165.7891,52.917701 3167.1519,53.448977 3167.8275,54.656328 3168.7824,56.362616 3169.0076,56.366797 3172.4159,54.741516 3175.3347,53.349608 3176,52.483455 3176,50.075196 3176,46.52859 3174.8875,45.716958 3169.0792,45.025941 L 3164.6584,44.5 3164.5792,38.94095 C 3164.5137,34.346158 3164.0007,32.785043 3161.6213,29.94095 3158.1571,25.800105 3156.7911,25.161676 3151.2003,25.070285 3144.8216,24.966013 3141.4644,27.177417 3138.3521,33.533632 3134.9184,40.546065 3134.1043,41.168075 3128.0975,41.368173 3119.5497,41.652915 3112.4958,49.018334 3111.328,58.878263 3110.5527,65.424366 3108.6093,64.418014 3109.2452,57.799749 3109.785,52.182644 3113.345,46.425762 3119.1892,41.71949 3121.9345,39.508747 3124.3454,38.588864 3128.6115,38.1243 3134.1919,37.516628 3134.4058,37.380142 3136.6426,33 3137.9065,30.525 3140.1403,27.312302 3141.6065,25.860671 3143.6759,23.811858 3144.1258,22.637237 3143.6171,20.610671 3142.855,17.574103 3144.555,17.022726 3145.5,20 3146.4002,22.836393 3151.3988,22.696373 3153.4433,19.777494 3154.2995,18.555115 3155.0519,17.992615 3155.1153,18.527494 3155.1788,19.062372 3155.2913,20.140721 3155.3653,20.923824 3155.4394,21.706927 3157.0003,22.961126 3158.8339,23.710933 3161.9368,24.979732 3162.2048,24.933031 3162.7005,23.037109 3163.6679,19.338103 3165.2025,20.841811 3164.529,24.828635 3164.0465,27.684403 3164.283,28.989986 3165.4598,29.966647 3166.7794,31.06177 3167.3617,30.982634 3169.0188,29.483025 3171.3309,27.390578 3171.6643,28.739496 3169.5318,31.55887 3168.7243,32.626492 3168.0493,35.362419 3168.0318,37.638709 3168.0017,41.55336 3168.182,41.811571 3171.3627,42.408267 3178.5447,43.755619 3180.5003,50.376797 3175.1327,55.172729 3170.8573,58.992843 3167.0924,59.846819 3165.3047,57.401989 3163.9745,55.582925 3163.8016,55.577339 3160.8717,57.258831 3159.1949,58.221205 3157.4128,58.755108 3156.9115,58.445284 3155.4772,57.558865 3155.8562,52.790836 3157.6225,49.5 3159.778,45.483999 3159.517,40.534801 3156.9603,36.944189 3154.3736,33.311521 3151.2149,33.144695 3147.646,36.452251 3145.3173,38.610426 3145,39.669713 3145,45.28547 3145,54.827435 3143.1482,62.293695 3138.4696,71.616042 3136.1553,76.227219 3134.4127,80 3134.597,80 3134.7813,80 3136.5008,79.251962 3138.418,78.337692 3141.2825,76.971706 3142.1799,76.904403 3143.452,77.960137 3144.3034,78.666751 3145,79.848957 3145,80.587261 3145,83.539101 3148.8054,84.17969 3153.639,82.04154 3158.8236,79.748122 3159.003,79.704844 3158.9923,80.75 3158.9773,82.214528 3151.0552,86 3148.0054,86 3145.6102,86 3144.5204,85.320558 3143.2035,83.006323 z M 3119.4474,80.919939 C 3127.8303,72.957039 3132.0081,65.837435 3131.9853,59.553656 3131.9401,47.1286 3122.7264,47.05251 3116.6671,59.427154 3115.1663,62.492219 3113.5022,65 3112.9692,65 3111.5658,65 3111.6961,64.542561 3114.8998,58.221483 3121.4591,45.279457 3130.4248,42.730971 3133.7885,52.852439 3136.7947,61.898091 3132.167,72.523229 3120.7394,82.812973 3112.0262,90.658647 3110.9127,89.027112 3119.4474,80.919939 z M 3141.1408,92.978038 C 3136.3575,90.807547 3132.8329,90.483853 3130.072,91.961473 3129.0839,92.490283 3126.8214,93.17912 3125.0441,93.492222 3120.5319,94.287162 3121.5071,92.192208 3126.535,90.289524 3133.5821,87.622718 3136.8704,87.55888 3141.2216,90.004408 3144.6871,91.952126 3146.0896,92.164557 3151.6929,91.590481 3158.7755,90.864851 3159.6195,92.178358 3153.2139,93.957396 3148.0301,95.397074 3146.1327,95.243154 3141.1408,92.978038 z M 3156.2619,87.309524 C 3157.1917,86.379762 3158.2332,85.899823 3158.5763,86.242993 3159.5605,87.227176 3158.0496,89 3156.2267,89 3154.7002,89 3154.703,88.868465 3156.2619,87.309524 z"/>
</svg>
