<svg xmlns="http://www.w3.org/2000/svg"
     width="40.6" height="64.0"
     viewBox="406.0000 15.0000 44.4063 70.0000">
  <path d="M 412.25,48.5625 411.0625,55.59375 C 411.22516,53.710662 412.75482,53.644888 416,55.5 419.43682,57.464665 423.34691,57.335845 426,55.1875 427.91733,53.634942 428.30478,52.152308 428.75,44.34375 429.22022,36.096801 429.05429,35.017563 427.03125,32.28125 425.68909,30.465879 424.75165,27.614804 424.65625,25.125 424.44287,19.556305 422.49765,20.514961 422.5625,26.15625 422.59667,29.128881 423.37114,31.700518 424.875,33.8125 426.91012,36.67055 427.06434,37.66973 426.4375,44.03125 425.62573,52.269351 423.60041,55.634302 420.125,54.53125 417.95465,53.842407 413.9325,50.627371 412.25,48.5625 z M 411,55.9375 410,61.9375 C 410.0082,61.931459 410.05528,61.783153 410.0625,61.78125 410.93366,61.551552 421.53125,65.284629 422.75,66.25 423.53286,66.870102 424,69.81769 424,74.125 424,79.416292 424.33931,81 425.4375,81 428.87847,81 433.72186,70.559919 432.71875,65.3125 432.02504,61.683586 433.35873,61.742164 437.03125,65.53125 438.8763,67.434848 441.16126,69 442.09375,69 444.27889,69 445.20775,65.234128 444.375,59.78125 443.56536,54.479662 442.79249,52.948732 439,49.15625 434.1284,44.284645 434.75246,40.243831 441.75,31 445.78581,25.668655 446.40632,19 442.875,19 441.71168,19 439.29007,20.608203 437.5,22.5625 L 434.25,26.09375 432.15625,22.5625 C 430.84701,20.343496 429.3013,19 428.03125,19 425.47258,19 425.47246,19.736863 428,21.84375 429.09548,22.756911 430.57585,25.268457 431.3125,27.4375 432.04914,29.606543 433.10125,31.544167 433.625,31.71875 434.14875,31.893334 435.89034,29.756126 437.5,27 439.10967,24.243873 441.00929,22 441.71875,22 444.89847,22 441.68345,29.651349 437.15625,32.875 434.37522,34.855264 434.25417,35.287888 433.5625,46.21875 432.79766,58.30586 432.1439,59.85638 426.96875,62 424.61795,62.973733 423.1534,62.885129 418.8125,61.46875 412.51017,59.412379 411.02682,58.367602 411,55.9375 z M 436.71875,51.25 C 437.33336,50.952959 438.19953,51.692638 439.59375,53.3125 441.44305,55.461087 442,57.276321 442,61.0625 442,63.78183 441.58451,66 441.0625,66 440.54049,66 438.91128,64.432227 437.4375,62.5 435.268,59.655642 434.86934,58.298399 435.34375,55.375 435.74764,52.886107 436.10414,51.547041 436.71875,51.25 z M 428.84375,64.28125 C 429.29624,64.245333 429.72153,64.332455 430.09375,64.5625 431.48474,65.422176 431.19192,69.505925 429.40625,73.96875 428.52153,76.17988 427.39408,78 426.9375,78 425.80263,78 424.65002,69.668653 425.4375,67.1875 425.94944,65.57455 427.48629,64.389001 428.84375,64.28125 z"/>
</svg>
