<svg xmlns="http://www.w3.org/2000/svg"
     width="25.9" height="64.0"
     viewBox="6353.3126 17.0000 32.6211 80.5312">
  <path d="M 6357.4376,81.40625 6357.4063,84.90625 C 6359.2452,84.807779 6361.0648,83.515351 6363.0001,80.84375 6367.2505,74.976223 6368.2865,70.311177 6367.1563,62.15625 6365.4874,50.113617 6369.4736,23 6372.9063,23 6376.4587,23 6377.0603,30.07041 6375.5313,53.65625 6374.7923,65.057525 6374.8845,66.100707 6376.9689,70.40625 6378.1913,72.931574 6379.848,75 6380.6563,75 6381.4648,75 6381.9337,74.6625 6381.7189,74.25 6377.1527,65.488431 6376.9266,62.635579 6378.5626,37.9375 6379.3248,26.430653 6377.7608,21 6373.6876,21 6368.1959,21 6363.8244,41.182909 6364.7813,62.125 6365.2272,71.880619 6365.0504,73.115801 6362.9376,76.875 6360.9891,80.341865 6359.2761,81.696809 6357.4376,81.40625 z M 6357.3439,90.65625 6357.3126,93.53125 C 6362.941,92.699503 6365.9251,90.387703 6369.2813,84.21875 6371.9103,79.38666 6372.2126,79.130993 6374.5313,80.1875 6377.9507,81.745416 6378.7892,80.44984 6375.9063,78.03125 6372.395,75.085536 6370.8385,75.852332 6367.5001,82.21875 6363.7241,89.419689 6363.383,89.77244 6358.4376,90.5625 6358.0005,90.632327 6357.7087,90.614339 6357.3439,90.65625 z"/>
</svg>
