<svg xmlns="http://www.w3.org/2000/svg"
     width="32.2" height="64.0"
     viewBox="3998.4946 13.7557 46.1884 91.9423">
  <path d="M 4029.2119,99.75 C 4028.6438,99.0625 4027.8529,96.7 4027.4543,94.5 4027.0557,92.3 4025.8669,88.784287 4024.8125,86.687304 4022.0301,81.153724 4019.5269,81.937215 4014.2288,90 4009.5682,97.092624 4006.7192,98.408546 4006.1804,93.717469 4005.7651,90.101314 4008.5675,81.467566 4011.6372,76.905967 4014.0139,73.374186 4014.0294,73.210326 4012.5279,67.445868 4011.6876,64.219532 4011,58.251182 4011,54.182869 4011,48.070989 4010.4915,45.718729 4008.0731,40.642967 4003.6959,31.456094 4002.4946,25.826698 4004.1669,22.337744 4006.363,17.755671 4009.0665,18.642688 4012.2811,25 4013.8107,28.025 4015.3857,30.611628 4015.7811,30.748061 4016.1765,30.884495 4017.7827,28.965844 4019.3505,26.484392 4022.0404,22.226832 4025.4482,19 4027.2547,19 4027.7001,19 4028.4418,20.0125 4028.9031,21.25 4030.0038,24.203019 4028.0744,30.532621 4024.1094,36.976551 4021.2834,41.5695 4021,42.789313 4021,50.361385 4021,59.087884 4022.5856,64.172649 4025.8518,65.920684 4028.2827,67.221667 4030.6704,65.566475 4033.0274,60.946373 4035.1778,56.731224 4036.9545,56.035324 4039.067,58.580785 4040.683,60.527873 4039.2834,68.291433 4036.0928,75.079111 4034.3793,78.724538 4034.1829,80.150981 4035.0016,83.00566 4036.5647,88.455748 4036.1791,94.193922 4034.011,97.75 4031.8703,101.26093 4030.8217,101.69795 4029.2119,99.75 z M 4033.3622,74.25 C 4034.6799,71.6375 4036.0649,67.475 4036.44,65 L 4037.122,60.5 4033.478,64.75 C 4028.2975,70.792265 4025.0598,70.659418 4021.2922,64.25 4018.7652,59.951196 4018.5,58.597609 4018.5,50 4018.5,41.080415 4018.6752,40.271013 4021.3671,36.752031 4024.0808,33.204709 4026.86,26.987928 4026.9561,24.25 4026.9802,23.5625 4026.3768,23 4025.615,23 4024.1227,23 4021.6928,26.244596 4018.6513,32.298571 4016.1312,37.314755 4014.0285,36.766601 4011.7203,30.491744 4010.7103,27.746285 4008.9699,24.6 4007.8525,23.5 L 4005.821,21.5 4006.2873,26 C 4006.8606,31.531804 4008.9847,37.220602 4011.5248,40.027382 4013.0903,41.757292 4013.545,44.272115 4014.0343,53.908162 4014.5264,63.600773 4015.0611,66.535879 4017.0659,70.550252 4019.666,75.756526 4023.7321,78.806546 4028.2332,78.926912 4030.5194,78.988049 4031.3581,78.223323 4033.3622,74.25 z M 4015.768,84.30444 C 4018.4364,80.737071 4018.8427,79.574649 4017.9828,77.967818 4017.4035,76.885518 4016.3222,76 4015.5798,76 4012.7747,76 4007.9774,86.221879 4008.0707,92 L 4008.1111,94.5 4010.3056,91.586622 C 4011.5125,89.984264 4013.9706,86.707282 4015.768,84.30444 z M 4033.6639,91.371084 C 4034.3853,85.854065 4032.6829,82 4029.5248,82 4026.4425,82 4026.4261,82.480861 4029.2346,90.527984 4031.6202,97.363576 4032.8499,97.597629 4033.6639,91.371084 z"/>
</svg>
