<svg xmlns="http://www.w3.org/2000/svg"
     width="64.0" height="51.6"
     viewBox="6962.5001 61.9037 52.0879 42.0315">
  <path d="M 6968.8751,87.28125 6968.5001,87.5 6969.4063,92.84375 C 6970.4166,92.582149 6972.1799,92.482501 6974.4689,92.71875 6979.851,93.274225 6979.9336,93.236215 6984.0939,88.90625 6986.4047,86.501094 6988.8636,83.156398 6989.5626,81.5 6991.4224,77.092739 6997.8692,70 7000.0001,70 7003.4119,70 7004.9133,71.172954 7006.0939,74.75 7007.0897,77.767596 7007.4018,78.022438 7008.2189,76.5625 7010.588,72.329121 7004.092,65.903718 6999.0626,67.5 6996.7587,68.231201 6988.942,77.388144 6985.0001,84 6983.6251,86.306307 6981.3751,88.754465 6980.0001,89.4375 6976.8982,90.978374 6971.5739,89.929864 6968.8751,87.28125 z M 6999.7501,76.6875 C 6999.2846,76.954647 6999.0001,77.451752 6999.0001,78.15625 6999.0001,78.614583 6999.9001,79 7001.0001,79 7003.293,79 7003.6808,77.488335 7001.5939,76.6875 7000.8581,76.40519 7000.2156,76.420353 6999.7501,76.6875 z M 6968.9689,94.21875 6966.5001,97.5 6966.5626,97.8125 C 6968.4747,98.048545 6970.7583,98.356068 6972.5001,98.78125 6974.7001,99.318267 6976.7251,99.814818 6977.0001,99.875 6977.2751,99.935182 6979.1205,99.548182 6981.0939,99 6984.4924,98.055941 6990.0865,92.857727 6993.7813,87.21875 6995.0802,85.236557 6995.8727,84.946556 6998.6563,85.46875 7002.5468,86.198618 7003.1952,84.397493 7000.0626,81.5625 6997.1628,78.938267 6995.0728,80.271913 6989.1876,88.53125 L 6983.8751,96 6978.5001,96 C 6974.1827,96 6970.3773,95.211258 6968.9689,94.21875 z"/>
</svg>
