<svg xmlns="http://www.w3.org/2000/svg"
     width="46.9" height="64.0"
     viewBox="7760.6264 16.0000 64.4413 88.0000">
  <path d="M 7786.5792,96.377196 C 7784.7538,94.384654 7782.7719,91.163246 7782.1751,89.218512 7781.2305,86.140867 7781.3757,85.283833 7783.295,82.605391 7789.4497,74.016435 7789.4792,71.427598 7783.4709,67.1925 7776.3231,62.154264 7775.187,62.819431 7773.0296,73.305837 7771.7365,79.591191 7770.8184,79.978173 7767.5609,75.610854 7764.6264,71.676403 7764.9982,64.385274 7768.4323,58.52552 7769.8791,56.056715 7771.9191,53.578508 7772.9657,53.018392 7775.3101,51.763709 7779.274,51.695354 7780.5501,52.887605 7781.0726,53.375788 7782.5126,54.081113 7783.7501,54.454993 7787.0709,55.458296 7786.6717,52.517773 7782.9869,48.832918 7780.1609,46.006933 7780.0987,45.786967 7781.9869,45.29321 7784.355,44.673932 7784.6363,41.772871 7782.5001,40 7780.5913,38.415861 7780.5747,37 7782.4649,37 7784.7094,37 7786.2758,33.383616 7785.0353,31.065741 7783.6313,28.442395 7783.734,27.683898 7785.4061,28.325572 7787.3788,29.08257 7790.0001,25.856294 7790.0001,22.671259 7790.0001,21.202067 7790.4501,20 7791.0001,20 7791.5501,20 7792.0001,20.84375 7792.0001,21.875 7792.0001,24.154921 7797.5562,25.613294 7799.6433,23.881187 7800.7103,22.995603 7801.0001,23.190926 7801.0001,24.795768 7801.0001,28.199771 7802.1457,30.104855 7804.7993,31.113765 7806.6487,31.816905 7807.0287,32.37143 7806.2171,33.182994 7804.6081,34.792022 7805.9033,40.211643 7808.3787,42.227764 7809.5455,43.178034 7810.0501,44.017442 7809.5001,44.093114 7808.9501,44.168786 7807.8251,44.291292 7807.0001,44.36535 7806.1027,44.445909 7805.5001,45.504289 7805.5001,47 7805.5001,49.119138 7805.9638,49.5 7808.5441,49.5 7813.7187,49.5 7816.5875,52.250264 7819.0117,59.534774 7820.7564,64.777802 7821.0677,67.303477 7820.5146,71.730381 7819.277,81.635764 7817.8419,82.677455 7816.0016,75.006224 7814.4893,68.702112 7809.4211,63.703773 7807.3765,66.499947 7805.9281,68.480694 7806.4013,70.011812 7810.2029,75.645025 7811.8398,78.070675 7813.0001,81.136274 7813.0001,83.035493 7813.0001,87.097952 7809.2263,94.805707 7806.2977,96.724564 7802.8171,99.005179 7801.6706,97.460213 7802.378,91.442081 7802.9357,86.696545 7802.7221,85.810937 7800.3001,82.826431 7798.8153,80.996894 7797.4267,79.275 7797.2142,79 7797.0018,78.725 7795.9601,79.570492 7794.8994,80.878871 7793.2697,82.889015 7793.0694,84.22026 7793.607,89.467477 7794.2391,95.63695 7793.1235,100 7790.9139,100 7790.3552,100 7788.4046,98.369738 7786.5792,96.377196 z M 7792.198,92.968792 C 7792.0319,91.610956 7791.6526,88.869779 7791.3551,86.877286 7790.9372,84.078011 7791.4065,82.316444 7793.4197,79.127286 7794.8527,76.857279 7796.4148,75 7796.891,75 7797.3673,75 7799.6782,77.49041 7802.0265,80.534243 7806.1545,85.884814 7806.2581,86.195657 7805.1481,89.900263 7802.7785,97.809252 7804.776,98.349148 7808.5864,90.829606 7811.7922,84.503306 7811.4104,80.568489 7807.0575,75.072496 7803.3213,70.355198 7802.9925,65.819172 7806.2226,63.556704 7809.2425,61.441465 7809.4322,61.492113 7814.0236,65.640239 7816.2398,67.64237 7818.3388,68.994605 7818.6882,68.645206 7819.0376,68.295807 7818.8165,66.3202 7818.1968,64.254968 7817.5771,62.189735 7816.8027,59.499192 7816.476,58.275982 7816.1492,57.052772 7814.4948,55.064298 7812.7995,53.857151 7810.0655,51.910369 7809.2539,51.786001 7805.6174,52.756622 7803.3626,53.358478 7801.3291,53.662353 7801.0987,53.4319 7800.8682,53.201447 7801.2018,51.270285 7801.8399,49.140428 7803.5343,43.485117 7803.2641,38.437841 7801.033,34.064492 7796.432,25.045837 7792.4593,24.497135 7788.6175,32.349672 7785.4918,38.7382 7785.3468,43.400092 7788.0247,51.405226 7789.1112,54.6531 7790.0001,57.6906 7790.0001,58.155226 7790.0001,59.589849 7786.4302,59.096504 7780.5622,56.850933 L 7774.9464,54.701866 7772.4564,57.041047 C 7769.4937,59.824361 7767.7074,65.189517 7768.1674,69.922988 7768.532,73.674452 7771.0001,75.528756 7771.0001,72.051215 7771.0001,68.317324 7773.8195,63.039393 7776.4558,61.838226 7778.7181,60.807452 7779.5663,61.05715 7783.7578,63.987803 7792.3144,69.970582 7792.7212,71.718073 7787.4745,79.953662 7785.5636,82.953177 7784.0001,86.143214 7784.0001,87.042633 7784.0001,89.48017 7789.2729,96.001011 7791.0001,95.699466 7791.9614,95.531631 7792.3916,94.55099 7792.198,92.968792 z M 7793.2196,50.582389 C 7792.6137,49.252703 7791.8143,45.47992 7791.443,42.198427 7790.8498,36.954956 7791.0217,35.978446 7792.8614,34.138719 7795.3267,31.67336 7797.293,32.152649 7798.8647,35.602065 7800.2842,38.717589 7800.3475,48.482374 7798.9649,51.065741 7797.5339,53.739589 7794.5435,53.488004 7793.2196,50.582389 z M 7797.3132,40.642131 C 7796.7988,37.263954 7795.4346,35.232169 7794.3853,36.281441 7793.2609,37.405874 7793.9136,47.190903 7795.2179,48.762465 7796.2799,50.042041 7796.5647,49.783064 7797.1288,47.025236 7797.4933,45.2427 7797.5763,42.370303 7797.3132,40.642131 z"/>
</svg>
