<svg xmlns="http://www.w3.org/2000/svg"
     width="64.0" height="61.9"
     viewBox="6738.0001 54.0592 51.1686 49.5155">
  <path d="M 6746.0626,84.15625 6744.4063,88.5625 C 6745.1363,87.979971 6746.2905,88.231031 6749.5313,89.46875 6758.467,92.881274 6763.5906,89.268022 6770.1876,74.9375 6773.0089,68.808985 6778.3125,62.623924 6780.2189,63.25 6783.0575,64.182302 6782.149,69.104208 6777.8126,76.28125 6773.9367,82.696127 6773.528,84.01067 6773.7501,88.9375 6773.9857,94.163879 6773.916,94.329398 6772.4376,92.21875 6770.3436,89.229077 6768.1026,89.435456 6763.9689,92.96875 6760.1546,96.229069 6756.4513,96.656887 6749.5001,94.65625 6745.3229,93.454016 6743.6355,92.601425 6743.3439,91.40625 L 6742.0001,95 6742.0001,95.84375 C 6743.1599,95.907848 6744.6366,96.278974 6747.6876,97.125 6756.5221,99.574712 6758.5985,99.49394 6764.2813,96.46875 6768.1336,94.418009 6769.4133,94.163112 6771.0939,95.0625 6772.745,95.946115 6773.5574,95.796738 6775.0939,94.40625 6776.672,92.978001 6776.9021,91.843547 6776.4063,88.09375 6775.8535,83.912209 6776.172,82.963496 6779.9063,77.375 6784.2649,70.852688 6785.1687,65.96712 6782.6563,62.53125 6779.3862,58.059195 6773.5406,63.590207 6765.4376,78.78125 6762.115,85.010229 6761.04,86.1955 6757.9376,87.125 6754.8914,88.037668 6753.5647,87.885071 6749.6563,86.15625 6747.7558,85.315542 6746.7277,84.794599 6746.0626,84.15625 z"/>
</svg>
