<svg xmlns="http://www.w3.org/2000/svg"
     width="28.8" height="64.0"
     viewBox="1168.7535 16.0000 40.2890 89.3959">
  <path d="M 1181.9062,20 C 1180.8531,20 1180,20.401751 1180,20.875 1180,21.348249 1178.8389,23.403639 1177.4375,25.46875 1173.7141,30.95545 1173.4532,33.891375 1176.1562,39.0625 1179.6668,45.778408 1179.7724,54.695822 1176.5,70.5 1172.7535,88.593381 1173.8796,96.798843 1180.5625,99.84375 1183.9691,101.39593 1187.5094,101.30293 1190.875,99.5625 1192.2583,98.847178 1193.1799,98.678095 1194.0938,98.78125 L 1195.7188,95.25 C 1194.826,94.065079 1195.2915,93.038654 1196.9688,92.59375 L 1198.8438,88.78125 C 1198.0713,87.688615 1197.9825,85.51564 1197.9688,78.78125 1197.9522,70.623604 1197.4313,66.748581 1195.375,60 1190.5683,44.22441 1190.5497,44.192358 1191.5625,41.3125 1192.3514,39.069279 1193.3483,38.404653 1197,37.78125 1201.3107,37.045358 1204.9159,34.113871 1204.9688,31.3125 1205.0425,27.400018 1197.9646,25.66734 1193.5938,28.53125 1191.313,30.025665 1191.1216,29.922114 1187.5312,25.03125 1185.3214,22.020743 1183.0501,20 1181.9062,20 z M 1182.125,23.03125 C 1182.4611,23.011169 1184.5981,25.761558 1186.9062,29.125 1190.7112,34.669502 1191.0214,35.499327 1190.0625,38.25 1188.3369,43.200126 1188.8243,47.96904 1192.0938,57.96875 1194.6321,65.731962 1195.1875,69.035978 1195.1875,76.53125 1195.1875,87.216126 1193.6079,93.372002 1190.1875,96.0625 1185.5785,99.68791 1180.0641,98.163548 1178.0312,92.6875 1176.5258,88.631938 1176.78,78.386611 1178.5312,72 1179.3608,68.975 1180.3113,61.276856 1180.6562,54.875 1181.2646,43.581005 1181.2248,43.064283 1178.6562,38.46875 1177.2004,35.863832 1176,33.296873 1176,32.75 1176,31.493472 1181.304,23.08032 1182.125,23.03125 z M 1199.625,29.25 C 1200.7462,29.559151 1201.5,30.505066 1201.5,32 1201.5,33.944574 1200.9175,34.578717 1198.9062,34.8125 1197.409,34.986549 1195.7347,34.398072 1194.9375,33.4375 1193.7477,32.003938 1193.8416,31.579193 1195.5312,30.34375 1197.0159,29.258167 1198.5038,28.940849 1199.625,29.25 z"/>
</svg>
