<svg xmlns="http://www.w3.org/2000/svg"
     width="31.8" height="64.0"
     viewBox="6390.3153 19.7138 39.4036 79.2862">
  <path d="M 6422.2813,72.4375 C 6419.2494,76.498911 6415.7394,79.993799 6413.9063,80 6408.4592,80.018427 6405.1508,68.144544 6404.4063,46 6403.7967,27.86308 6402.8998,23.713776 6399.6876,24.1875 6396.9186,24.595865 6396.2631,27.603361 6395.0939,45.21875 6394.3153,56.948234 6394.3966,61.658709 6395.5001,67.78125 6398.9031,86.661337 6403.6038,95 6410.8126,95 6411.751,95 6414.8989,92.75 6417.8126,90 6420.7262,87.25 6423.516,85 6424.0313,85 6424.3291,85 6424.9917,85.626117 6425.7189,86.5 L 6425.5001,84.5 6423.9376,78.625 C 6423.9549,78.946346 6424.0001,79.179373 6424.0001,79.53125 6424.0001,81.984949 6423.466,83.244547 6422.2501,83.6875 6421.2876,84.038126 6418.8844,86.049138 6416.9063,88.15625 6414.9283,90.263363 6412.4372,92 6411.3751,92 6403.2027,92 6396.9924,74.994079 6397.0313,52.78125 6397.0501,42.095823 6398.4028,28.253567 6399.5626,27.09375 6401.0977,25.558639 6401.8814,30.827808 6401.9063,42.96875 6401.9485,63.628936 6405.6403,80.498149 6410.5313,82.375 6413.5164,83.520494 6414.9751,83.023443 6418.8751,79.5 6420.9475,77.627752 6422.8253,76.176812 6423.2501,76.09375 L 6422.2813,72.4375 z"/>
</svg>
