<svg xmlns="http://www.w3.org/2000/svg"
     width="39.3" height="64.0"
     viewBox="7716.5001 36.9016 41.6977 67.9316">
  <path d="M 7725.4376,85.25 7724.0626,91.25 C 7725.109,90.78225 7726.7653,90.584519 7729.4689,91.09375 7735.0038,92.136285 7737.8071,91.271879 7739.5313,87.9375 7741.722,83.701211 7741.3248,78.477623 7738.4063,73.25 7733.1251,63.790303 7732.2504,50.322363 7736.5313,44.59375 7739.2905,40.901593 7740.7212,44.16535 7741.1563,55 7741.6088,66.26242 7743.2687,69.785269 7748.8439,71.46875 7752.4248,72.550044 7753.3513,76 7750.0626,76 7747.453,76 7746.6897,77.481465 7745.9063,84.125 7745.1778,90.303805 7742.0093,95.654858 7738.1876,97.125 7734.1344,98.684195 7728.4282,98.14245 7725.6251,95.9375 7723.9661,94.632527 7723.1433,93.521549 7722.9689,92.65625 L 7720.5001,95.5 7720.5313,96.15625 C 7721.4699,96.490987 7722.5413,96.97557 7723.5626,97.59375 7728.7948,100.76074 7735.4544,100.83315 7740.0939,97.75 7744.2766,94.970401 7748.0001,87.876918 7748.0001,82.6875 7748.0001,79.730755 7748.4445,78.686601 7749.8751,78.3125 7752.0033,77.755955 7754.1978,73.699933 7753.4376,71.71875 7753.1603,70.996177 7751.5305,69.958945 7749.8126,69.4375 7744.9314,67.955926 7743.0001,63.255365 7743.0001,52.875 7743.0001,43.378413 7741.9241,41.296013 7737.6251,42.375 7730.7241,44.107043 7729.2971,64.295151 7735.4376,73.34375 7738.5832,77.978928 7739.4858,82.431444 7737.9689,86.09375 7736.7989,88.918394 7736.4677,89.065692 7731.7501,88.6875 7727.7209,88.364493 7726.0908,87.623974 7725.4376,85.25 z"/>
</svg>
