<svg xmlns="http://www.w3.org/2000/svg"
     width="17.6" height="64.0"
     viewBox="5435.1072 17.3754 23.0407 83.6673">
  <path d="M 5439.4296,89.359423 C 5440.4868,75.185374 5440.9348,42.667634 5440.1867,34.406913 5439.2942,24.552097 5439.8958,21.375362 5442.5693,21.823978 5453.5129,23.660332 5452.4437,22.939471 5453.0404,28.883661 5453.3376,31.844674 5453.7158,47.618268 5453.8809,63.936091 5454.1479,90.333446 5454.0019,93.75353 5452.5564,94.953166 5451.2081,96.07218 5450.5139,96.07782 5448.4745,94.986328 5446.43,93.892188 5445.5535,93.903477 5443.2585,95.053505 5441.7413,95.813781 5440.1273,96.612005 5439.6717,96.827336 5439.2162,97.042666 5439.1072,93.682106 5439.4296,89.359423 z M 5452,88.65106 C 5451.9999,86.257778 5451.1711,84.83867 5448.5534,82.75 5443.8102,78.965357 5442.2865,79.192825 5441.855,83.75 5441.1763,90.918747 5441.5471,91.483907 5447.0378,91.65106 5451.9695,91.801191 5452,91.782758 5452,88.65106 z M 5451,30.535184 C 5451,26.722504 5448.9977,25 5444.5657,25 5442.5941,25 5442,25.50603 5442,27.185549 5442,30.122308 5445.7979,34 5448.6743,34 5450.6611,34 5451,33.495069 5451,30.535184 z M 5452,75.72344 C 5452,70.628555 5451.8561,70.353563 5447.8202,67.736618 5445.5212,66.245974 5443.5587,65.132926 5443.4591,65.263178 5443.3594,65.39343 5442.9864,68.0875 5442.6302,71.25 5442.1158,75.816742 5442.2702,77 5443.3805,77 5444.1494,77 5445.8408,77.885029 5447.1392,78.966731 5451.0306,82.208554 5452,81.561714 5452,75.72344 z M 5452,46.5651 C 5452,40.358818 5450.6673,37.519062 5447.0521,36.021564 5443.4636,34.535155 5443.2668,34.630908 5442.9866,38 5442.4515,44.432653 5442.9825,45.915991 5446.7321,48.463949 5448.7848,49.858777 5450.8098,51 5451.2321,51 5451.6545,51 5452,49.004295 5452,46.5651 z M 5452.1832,63.75 C 5452.6328,55.773623 5451.8481,54.09852 5446.0671,50.693464 L 5443,48.886928 5443,55.407413 C 5443,61.816968 5443.0635,61.971043 5446.7321,64.463949 5451.5245,67.720436 5451.9626,67.663051 5452.1832,63.75 z"/>
</svg>
