<svg xmlns="http://www.w3.org/2000/svg"
     width="36.4" height="64.0"
     viewBox="1020.4375 13.2251 50.6312 89.0127">
  <path d="M 1026.7813,85.90625 1026.0938,88.875 C 1028.1296,89.491982 1029.9985,89.846123 1031.3438,89.59375 1036.9443,88.543081 1044.1416,83.11774 1047.625,77.28125 1051.9344,70.060764 1052.3447,66.182322 1049.875,56.5625 1046.4865,43.363903 1047.6495,31.871623 1053.0625,25 1055.0121,22.524996 1055.0441,22.519997 1056.5625,24.5 1058.21,26.648425 1057.9857,31.370037 1055.8125,40.1875 1054.2456,46.545174 1056.8317,57.889432 1061.0938,63.25 1063.4992,66.27554 1063.8735,67.363851 1063.0312,68.9375 1062.2094,70.4732 1061.2791,70.743198 1058.625,70.3125 1055.5754,69.817611 1055.2116,70.038951 1054.5625,72.625 1053.4355,77.115477 1045.0552,91.841615 1042.6875,93.5 1039.7536,95.554952 1033.6488,95.025178 1025.25,92.375 L 1024.4375,95.625 C 1027.2385,96.490258 1029.9867,97.365758 1030.5,97.53125 1032.6913,98.237797 1038.6941,97.925 1042.25,96.9375 1046.6411,95.718048 1048.1872,93.682878 1053.0625,82.625 1056.3121,75.254477 1056.899,74.531909 1059.25,74.78125 1061.1311,74.980753 1062.3522,74.298079 1063.75,72.28125 1067.0297,67.548763 1067.0687,66.361413 1064,62.5 1060.232,57.75857 1057.6898,48.961532 1058.375,43.0625 1058.6662,40.555314 1059.1722,35.8 1059.5,32.5 1060.9533,17.866302 1051.4886,17.22513 1047.0312,31.65625 1044.4907,39.88168 1044.5057,43.256314 1047.0938,55.59375 1049.4677,66.911284 1049.1204,71.356985 1045.4688,76.875 1042.5194,81.331592 1038.8819,84.178323 1033.8438,86 1031.0258,87.018896 1029.6428,86.925651 1026.7813,85.90625 z"/>
</svg>
