<svg xmlns="http://www.w3.org/2000/svg"
     width="29.6" height="64.0"
     viewBox="1820.3678 15.0922 42.1411 91.0195">
  <path d="M 1828.0938,52.40625 1829,53.5 1829.0625,53.90625 1829.25,53.6875 1830.5,56 C 1831.6119,58.07751 1831.4647,60.608375 1830.4688,61.5625 L 1827,66 1826.4688,67.25 C 1827.3345,66.933892 1827.4328,68.336997 1826.6562,71.75 1824.9927,79.061883 1825.1755,98.201648 1826.9062,98.78125 1827.971,99.137832 1828.1219,98.604877 1827.5938,96.5 1826.7803,93.259341 1830.5592,68.025041 1832.5938,63.125 1834.1848,59.292757 1834.3929,55.832434 1833.125,54.4375 1830.2687,51.29514 1827.3471,37.827499 1827.5312,28.71875 1827.6794,21.387793 1826.9375,19.092177 1825.5938,22.59375 1824.3678,25.78857 1825.0412,40.203767 1826.6875,46.125 L 1828.375,52.1875 1828.0938,52.40625 z M 1842.1875,21.5 1840.3438,24 C 1838.7946,26.104437 1838.5,28.419797 1838.5,38.65625 1838.5,49.595849 1838.7187,51.113258 1840.6875,53.78125 L 1842.875,56.75 1839.8438,63.125 C 1836.7215,69.673503 1833.0173,85.145611 1833.5938,89.21875 1833.772,90.477742 1834.1755,93.1875 1834.5,95.25 1835.5798,102.11169 1837.0005,99.170492 1836.9062,90.25 1836.8024,80.421563 1839.044,69.108449 1842.0938,64.09375 1843.7523,61.366547 1844.5497,60.907526 1846.5625,61.40625 1847.9099,61.740074 1850.1741,62.302636 1851.625,62.65625 1853.6809,63.157354 1854.691,62.771304 1856.125,60.90625 1858.5089,57.805774 1858.4553,55.492146 1855.9688,51.46875 1853.0087,46.679488 1851.0269,46.305009 1847.7812,49.9375 1846.2756,51.622645 1844.606,53 1844.0938,53 1843.5814,53 1842.401,51.003719 1841.4688,48.5625 1839.7849,44.153478 1839.8228,36.594437 1841.5625,25.5 L 1842.1875,21.5 z M 1834.1562,22.40625 C 1833.6131,22.741931 1832.6467,26.13486 1832,29.96875 1831.0178,35.792324 1831.0872,38.07539 1832.4062,43.875 1833.2746,47.693113 1834.4284,51.985204 1834.9688,53.40625 1835.509,54.827295 1836.6301,56 1837.4688,56 1839.1322,56 1839.5672,53.46122 1838.0625,52.53125 1836.5868,51.619201 1833.7837,40.952482 1833.7188,36 1833.6864,33.525 1833.9956,29.32748 1834.4062,26.65625 1834.8872,23.527919 1834.7924,22.013128 1834.1562,22.40625 z M 1851.1562,50.0625 C 1851.6635,50.1203 1852.1553,50.715996 1853.0938,51.875 1855.4201,54.748043 1855.5921,59.567455 1853.4062,60.40625 1851.5171,61.131154 1851.9878,61.222299 1849.25,59.3125 1846.4284,57.344226 1846.359,53.881218 1849.0938,51.40625 1850.1262,50.471842 1850.649,50.0047 1851.1562,50.0625 z"/>
</svg>
