<svg xmlns="http://www.w3.org/2000/svg"
     width="57.1" height="64.0"
     viewBox="5216.3750 56.1871 42.1916 47.3045">
  <path d="M 5220.375,81.8125 5220.75,85.15625 C 5222.2432,85.256098 5223.6061,86.016301 5225,87.5 5227.8081,90.489115 5231.3549,90.678533 5235.5938,88.09375 5239.275,85.848865 5242.2347,80.532323 5243.9688,73 5245.472,66.470258 5247.4349,63 5249.6562,63 5251.0114,63 5251.1898,63.849699 5250.7188,68.25 5250.4098,71.1375 5249.1713,75.685916 5247.9688,78.375 5245.6752,83.503762 5245.135,88.869625 5246.5,92.90625 L 5247.3125,95.28125 5244.1875,93.46875 C 5241.3448,91.789531 5240.9154,91.75161 5239.2812,93.1875 5235.7244,96.312943 5233.0022,96.366033 5226.875,93.4375 L 5221.4062,90.8125 5221.9375,95.5 C 5223.2287,95.821932 5224.6201,96.271709 5226.1562,96.96875 5231.6599,99.466092 5233.6282,99.491602 5238.2188,97.03125 5240.4269,95.847719 5242.1384,95.446158 5242.5,96.03125 5243.4333,97.541404 5247.6116,97.179308 5249.0312,95.46875 5250.05,94.241311 5250.0516,93.184469 5249.0625,90.1875 5247.9677,86.870319 5248.1207,85.648579 5250.3125,79.375 5254.1921,68.270831 5254.5666,64.566611 5252.0625,62.0625 5250.4596,60.459665 5249.5272,60.187073 5248.125,60.9375 5245.3833,62.404827 5243.1217,66.362999 5241.9688,71.71875 5240.6408,77.88692 5237.1407,84.063419 5233.9688,85.84375 5231.6712,87.133367 5231.0623,86.993157 5226.6875,84.21875 5224.0285,82.532468 5222.1733,81.750618 5220.375,81.8125 z"/>
</svg>
