<svg xmlns="http://www.w3.org/2000/svg"
     width="30.5" height="64.0"
     viewBox="677.0000 15.0777 39.5263 83.0161">
  <path d="M 688.40625,19.4375 C 687.95694,19.557436 687.47568,19.846951 686.90625,20.28125 685.13053,21.63556 681,30.402721 681,32.8125 681,33.663736 682.15474,37.671347 683.5625,41.75 686.25008,49.53662 686.25639,49.595021 683.3125,62.25 681.17393,71.443138 681.90032,82.241757 685.03125,87.8125 687.17964,91.635034 689,93.193535 689,91.1875 689,90.741787 687.85289,87.479287 686.4375,83.9375 684.33542,78.677363 683.95893,76.401043 684.375,71.5 684.9065,65.239383 684.96658,64.926219 687.46875,56 689.14287,50.027756 688.90836,47.559258 685.8125,38.59375 684.09118,33.608873 683.9391,32.134321 684.90625,28.90625 685.53502,26.807612 686.53886,24.799756 687.125,24.4375 688.34739,23.682022 697,31.78761 697,33.6875 697,34.379326 696.23313,36.506907 695.3125,38.4375 693.74217,41.73051 693.76471,42.673387 695.4375,53.71875 696.9408,63.644986 697.04213,66.676889 696.0625,73 695.42342,77.125 694.6345,83.570443 694.3125,87.3125 L 693.71875,94.09375 696.28125,93.46875 C 696.41031,93.436359 696.57967,93.460575 696.71875,93.4375 L 696.5,92.5 697.65625,87.8125 C 697.35915,87.320651 697,86.806627 697,86.34375 697,85.55603 697.5108,85.230303 698.3125,85.1875 L 699.375,81.03125 C 698.26253,79.16943 698.6358,76.079119 699.25,68 699.52582,64.371917 699.05999,57.462678 698.21875,52.375 696.13351,39.763665 697.50218,35.416095 702.1875,39.65625 706.81716,43.84603 712.5263,35.184126 710.0625,27.71875 708.4991,22.981598 706.46259,22.420911 702.34375,25.5625 697.78951,29.036188 695.00163,28.453421 692.46875,23.5625 690.74395,20.231963 689.75419,19.077693 688.40625,19.4375 z M 704.90625,26.8125 C 705.60242,26.608662 706.13317,26.706193 706.5625,27.0625 708.26268,28.473528 708.98154,32.941468 707.9375,35.6875 706.48619,39.504747 703.24048,38.186417 700.21875,32.53125 699.3413,30.889116 699.67322,30.213586 702.25,28.3125 703.33323,27.513319 704.21008,27.016338 704.90625,26.8125 z"/>
</svg>
