<svg xmlns="http://www.w3.org/2000/svg"
     width="38.2" height="64.0"
     viewBox="4245.1640 14.3181 55.8132 93.6091">
  <path d="M 4293.125,45.28125 C 4292.3923,49.127538 4290.7516,53.488825 4287.6875,60.1875 4283.6551,69.003219 4280.3279,71.228816 4278.1875,66.53125 4276.0214,61.776973 4272.8978,46.741909 4273.5,44 4273.8336,42.481128 4275.2305,40.18157 4276.625,38.875 4281.6335,34.182301 4283.8108,23.757729 4280.375,20.90625 4278.9874,19.75466 4278.5127,19.910654 4276.875,22.03125 4275.8268,23.388412 4274.0256,25.615107 4272.875,26.96875 L 4270.7812,29.4375 4267.3438,25.46875 C 4265.4482,23.290107 4263.4592,20.949918 4262.9375,20.28125 4261.4056,18.318059 4259.0942,19.936669 4258.4375,23.4375 4257.6869,27.438602 4259.4659,34.381291 4262.1875,38.0625 4264.0795,40.621491 4264.154,41.196382 4262.9375,46.15625 4262.2164,49.096587 4261.4596,51.698237 4261.2812,51.9375 4261.1029,52.176763 4259.2136,50.662996 4257.0625,48.5625 4254.5621,46.120929 4252.5666,44.958455 4251.5625,45.34375 4249.164,46.264152 4249.6344,51.999795 4252.4375,56.125 4254.6049,59.314621 4256.5774,60.573534 4262.0938,62.3125 4262.9704,62.588856 4264.6636,65.479485 4265.875,68.71875 L 4268.0938,74.59375 4264.4688,82.25 C 4261.7228,88.032186 4260.8183,91.190299 4260.7812,95.3125 4260.7543,98.308024 4261.0418,101.25417 4261.4062,101.84375 4262.6939,103.92717 4264.7725,101.80005 4268.4375,94.6875 4270.4765,90.730542 4272.7865,86.649409 4273.5625,85.59375 4274.9334,83.728885 4275.0261,83.713681 4277,85.5 4278.1173,86.511196 4279.8795,90.061786 4280.9062,93.40625 4282.3197,98.01042 4283.2109,99.5 4284.625,99.5 4288.2175,99.5 4290.1327,88.654568 4287.9375,80.75 4286.9875,77.329244 4287.175,76.60598 4290,72.5 4296.0052,63.771745 4296.9772,60.409265 4296.3125,50.90625 L 4296,46.3125 4293.125,45.28125 z M 4261.0938,23.5 4264.9375,27.75 C 4267.0522,30.0875 4269.4794,32 4270.3438,32 4271.2081,32 4273.1827,30.424984 4274.7188,28.5 4277.8243,24.607747 4278.5296,24.296993 4279.375,26.5 4280.241,28.756942 4278.3471,32.894716 4274.4688,37.1875 4271.4212,40.56067 4271,41.664445 4271,46.4375 4271,52.707117 4273.3777,62.842357 4276.125,68.25 4277.491,70.938852 4278.7,72 4280.3438,72 4284.1342,72 4289.175,65.336416 4291.5,57.25 4292.4023,54.11169 4293.9952,54.435832 4293.9688,57.75 4293.9388,61.499459 4290.9034,67.879823 4287.0938,72.21875 4280.8816,79.294096 4275.3877,78.783247 4270.625,70.65625 4265.2722,61.522393 4263.901,53.075075 4266.2188,43.6875 4267.1462,39.931476 4267.1392,38.50408 4266.1875,37.1875 4262.2279,31.710301 4260.9979,29.1768 4261.0312,26.5 L 4261.0938,23.5 z M 4253.5312,49.4375 C 4253.9816,49.588508 4254.8162,50.362275 4256.3125,51.8125 4258.1262,53.570392 4260.1512,55 4260.8125,55 4261.4738,55 4262,55.9 4262,57 4262,58.166036 4261.3383,59 4260.4062,59 4258.1635,59 4253,53.203305 4253,50.6875 4253,49.738999 4253.0809,49.286492 4253.5312,49.4375 z M 4269.75,77.375 C 4270.2858,77.249718 4270.8812,77.523831 4271.8438,78.125 4273.0333,78.867838 4274,79.763837 4274,80.09375 4274,80.423662 4271.7558,84.445951 4269,89.03125 4262.8647,99.239425 4263,99.075439 4263,95 4263,90.797128 4265.7388,81.987571 4267.9688,79.03125 4268.7254,78.028098 4269.2142,77.500282 4269.75,77.375 z M 4283.125,80 C 4285.0307,79.982134 4285.9809,82.816269 4286,88.6875 4286.0076,90.992541 4285.55,93.160081 4285,93.5 4284.45,93.839919 4284,93.482996 4284,92.71875 4284,91.954504 4282.8898,89.152184 4281.5312,86.46875 4278.9883,81.445885 4279.3235,80.035638 4283.125,80 z"/>
</svg>
