<svg xmlns="http://www.w3.org/2000/svg"
     width="62.4" height="64.0"
     viewBox="6699.0544 17.7977 83.9449 86.0939">
  <path d="M 6727.7813,21.8125 6723.8439,25.65625 C 6718.8715,30.51157 6718.0364,33.449027 6720.8751,36.09375 6723.948,38.956562 6726.7167,44.848514 6727.5313,50.28125 6728.3157,55.511267 6727.7152,55.951266 6723.1563,53.59375 6713.0627,48.374118 6706.1778,52.306256 6703.9063,64.59375 6703.0544,69.202413 6703.1512,70.551344 6704.4689,72.5625 6705.3423,73.895384 6706.3899,75 6706.8126,75 6707.2354,75 6708.8291,72.463697 6710.3439,69.375 6712.9188,64.124669 6713.288,63.801328 6716.0001,64.34375 6720.893,65.322344 6725.9896,67.824826 6726.6563,69.5625 6727.0048,70.470698 6726.3376,73.193651 6725.1563,75.625 6722.8142,80.445808 6722.3612,86.872438 6724.1251,90.3125 6724.7411,91.513843 6726.6207,93.9625 6728.3126,95.75 6731.8251,99.46105 6735.0453,99.891665 6738.5626,97.125 6739.8145,96.140268 6740.6501,95.769143 6742.0001,95.84375 L 6742.0001,95 6743.3439,91.40625 C 6743.188,90.76772 6743.3214,90.067342 6743.9376,89.09375 6744.0835,88.863207 6744.2344,88.699685 6744.4063,88.5625 L 6746.0626,84.15625 C 6745.1513,83.281648 6745.0001,82.214153 6745.0001,79.78125 6745.0001,77.391617 6744.1202,73.667063 6743.0313,71.53125 6740.9157,67.381668 6741.3279,65.95955 6745.2813,63.84375 6746.8444,63.007276 6748.0808,63.423377 6751.6251,65.96875 6757.2134,69.981942 6760.6522,69.768826 6763.2813,65.25 6765.222,61.914573 6766.4791,57.936635 6770.4063,42.71875 6772.0289,36.431543 6773.5011,33.087964 6775.5313,30.96875 6778.9993,27.349111 6778.0185,25.719344 6774.4063,29.09375 6770.7873,32.474739 6769.3278,35.627652 6766.9689,45.1875 6761.5748,67.046333 6760.5887,68.410568 6754.1876,63.28125 6746.8699,57.417478 6746.2461,57.325588 6741.8751,61.59375 6737.5382,65.828678 6737.0987,68.064177 6739.8751,71.59375 6744.1612,77.042644 6743.3096,88.363476 6738.1876,94.09375 6734.9049,97.766309 6732.3548,97.213508 6728.5313,92.03125 6725.33,87.692079 6725.1744,81.729535 6728.1251,75.65625 6731.2597,69.204165 6730.3414,67.086748 6722.6876,63.3125 6715.013,59.527986 6712.8709,60.121719 6709.0939,66.96875 6707.028,70.713801 6706.5559,71.078981 6705.9689,69.4375 6704.9735,66.654422 6707.4889,59.042491 6710.3751,56.15625 L 6712.8751,53.6875 6719.2501,55.84375 C 6726.32,58.231842 6729.5374,58.545639 6730.5313,56.9375 6732.6944,53.437742 6729.5705,41.699869 6724.8751,35.75 L 6721.9063,32 6724.5626,28.5 C 6726.0299,26.576323 6727.6013,25 6728.0626,25 6728.5238,25 6730.1319,26.534921 6731.6251,28.40625 6734.151,31.571893 6734.3694,32.533569 6734.5313,42.1875 6734.6281,47.957127 6735.2123,53.542663 6735.8751,54.78125 6737.0015,56.885884 6737.2486,56.922832 6740.0001,55.5 6743.9722,53.445942 6744.6493,53.565907 6748.9063,56.9375 6752.1383,59.497215 6752.9277,59.721307 6754.9689,58.6875 6758.5606,56.868432 6760.9388,53.00782 6762.5001,46.46875 6764.5328,37.955266 6764.3481,35.422141 6761.2501,29.90625 6756.696,21.797718 6755.1082,24.337338 6759.5313,32.65625 6761.3264,36.032441 6761.9052,38.315183 6761.5001,40.46875 6760.079,48.022941 6758.6529,51.889659 6756.4063,54.3125 L 6753.9689,56.9375 6749.4689,53.75 C 6745.3248,50.829042 6744.7055,50.677549 6741.7813,51.78125 6740.0305,52.442161 6738.2102,52.61638 6737.7501,52.15625 6737.29,51.696119 6737.0567,47.754079 6737.2189,43.40625 L 6737.5001,35.5 6742.1563,35.1875 C 6744.7251,35.021654 6747.3689,34.235848 6748.0313,33.4375 6749.9717,31.099588 6749.4572,26.802097 6747.0001,24.8125 6744.0871,22.453652 6743.9269,22.482075 6739.5001,26 L 6735.7189,29 6731.7501,25.40625 6727.7813,21.8125 z M 6761.7501,23.84375 C 6759.9559,23.067615 6759.9661,25.0958 6762.5626,28.5 6764.0333,30.428237 6765.7858,32 6766.4376,32 6768.0162,32 6774.2113,25.554815 6773.4063,24.75 6773.0596,24.40316 6771.4627,25.076297 6769.8751,26.25 L 6767.0001,28.375 6764.1251,25.59375 C 6763.1514,24.660939 6762.3482,24.102462 6761.7501,23.84375 z M 6742.9376,26.375 C 6745.3377,25.891234 6747.1157,27.201043 6746.8126,29.8125 6746.485,32.636434 6744.9863,33.238993 6741.0626,32.125 6737.6781,31.164088 6737.4175,29.406649 6740.3751,27.46875 6741.264,26.88629 6742.1376,26.536255 6742.9376,26.375 z M 6734.5939,74.09375 C 6733.5937,74.376431 6732.5326,75.685129 6731.5939,78.03125 6729.54,83.164415 6729.5297,89.404533 6731.5626,91.4375 6735.1779,95.052713 6739.7649,88.104328 6738.5939,80.78125 6737.8202,75.942912 6736.2608,73.622615 6734.5939,74.09375 z M 6733.9376,77.09375 C 6735.3343,76.759719 6736.7879,81.223702 6736.0313,85.90625 6735.492,89.245394 6734.0649,90.721086 6732.6876,89.34375 6731.8394,88.495523 6731.8263,82.317697 6732.6563,79.21875 6733.0171,77.871952 6733.472,77.205094 6733.9376,77.09375 z"/>
</svg>
