<svg xmlns="http://www.w3.org/2000/svg"
     width="41.4" height="64.0"
     viewBox="6980.1563 20.8647 30.8438 47.6353">
  <path d="M 6984.1563,55.21875 6985.2813,57.03125 C 6987.5966,54.804726 6989.8605,52.290752 6991.1876,50.15625 6992.9929,47.252469 6993.1123,46.357206 6992.1251,43.0625 6990.1736,36.548962 6990.6652,32.415397 6993.6563,30.0625 6996.4965,27.828383 6999.1395,28.049753 7002.2501,30.78125 7003.5124,31.889666 7004.0001,33.810655 7004.0001,37.71875 7004.0001,42.774817 7003.7328,43.399116 7000.0001,46.75 6997.8001,48.724981 6996.0001,50.743019 6996.0001,51.25 6996.0001,52.858968 6991.8708,58.350437 6988.3439,61.96875 L 6989.8751,64.5 C 6991.9291,62.317352 6994.1961,59.364553 6996.9689,55.25 6999.2848,51.812973 7001.7337,48.662973 7002.4063,48.25 7005.3135,46.465256 7007.0001,42.397559 7007.0001,37.1875 7007.0001,32.369065 7006.6236,31.436047 7003.4689,28.28125 7000.4555,25.267847 6999.489,24.864728 6996.7813,25.40625 6989.9822,26.766095 6987.0009,32.93937 6988.9376,41.59375 6990.2817,47.599428 6989.1987,50.613096 6984.1563,55.21875 z"/>
</svg>
