<svg xmlns="http://www.w3.org/2000/svg"
     width="58.6" height="64.0"
     viewBox="2290.5559 14.3753 83.3428 91.0521">
  <path d="M 2299,97.953275 C 2299,97.123731 2299.708,95.4342 2300.5733,94.198762 2301.8856,92.32517 2301.9845,90.836613 2301.1695,85.226256 2299.6874,75.025383 2300.272,69.82095 2303.3537,65.780632 2304.8092,63.872455 2306,61.795088 2306,61.164262 2306,60.533436 2304.4375,57.970265 2302.5277,55.468326 2298.3588,50.006818 2296.5842,44.050258 2297.3851,38.207105 2297.8041,35.150169 2297.517,33.192555 2296.3998,31.487398 2294.5559,28.673218 2295.1737,24.618185 2297.9596,21.25 2300.3373,18.375275 2301.3879,18.416873 2303.385,21.464817 2305.7726,25.108709 2305.4354,29.691942 2302.5856,32.333107 2297.6592,36.898712 2298.3373,46.336068 2304.0924,53.303736 2306.806,56.589079 2307.6311,57.020309 2310.1461,56.467904 2312.1489,56.028029 2314.3075,56.479599 2317.0598,57.914167 2319.2608,59.061375 2321.9391,60 2323.0117,60 2324.7576,60 2324.8974,59.502805 2324.3474,55.25 2324.0096,52.6375 2323.1205,48.988131 2322.3718,47.14029 2320.9769,43.697933 2320.0395,43.512656 2314.5929,45.602724 2311.2825,46.873059 2313.1676,43.955136 2316.8814,42.060514 2320.5805,40.17339 2320.8376,40.163024 2322.3551,41.839836 2324.5449,44.259621 2326.6913,50.680907 2327.5156,57.278901 2328.138,62.260199 2328.0082,62.862627 2326.1878,63.440403 2323.7832,64.203578 2319.2666,63.226598 2316.5275,61.350805 2313.1641,59.047509 2311.3043,59.817481 2307.4069,65.126791 2302.9867,71.148409 2302.0182,77.332291 2303.9543,87.17322 L 2305.16,93.301564 2302.08,96.381551 C 2300.0294,98.4321 2299,98.957425 2299,97.953275 z M 2302.0202,28.962227 C 2303.1019,26.941159 2302.5255,23 2301.1482,23 2300.7539,23 2299.6766,24.277428 2298.7543,25.838729 2297.4812,27.994033 2297.357,28.957034 2298.2387,29.838729 2299.8924,31.492416 2300.7757,31.28769 2302.0202,28.962227 z M 2302.0293,100.30654 C 2302.0885,98.679014 2308.1587,92.846912 2309.3269,93.295202 2310.8369,93.874649 2313.5357,98.797624 2312.7656,99.567781 2312.4516,99.881718 2311.2602,99.554918 2310.1179,98.841558 2308.3631,97.745637 2307.5727,97.821184 2305.0205,99.328806 2303.3592,100.31015 2302.0132,100.75013 2302.0293,100.30654 z M 2323.9738,97.833521 C 2322.9799,95.658854 2323.0472,94.309604 2324.3391,90.518247 2325.8358,86.125711 2325.8107,85.569012 2323.8839,80.419129 2321.6523,74.454694 2317.616,69 2315.4342,69 2313.0953,69 2311.2139,73.194612 2310.6468,79.673417 2310.1473,85.379488 2310.3351,86.162485 2313.1269,90.016432 2316.9558,95.302087 2316.04,96.400352 2311.485,91.98548 2308.1092,88.713552 2308,88.370313 2308,81.035968 2308,74.578541 2308.3732,72.915038 2310.5361,69.732135 2315.3299,62.677393 2321.1234,65.859679 2326.2608,78.369472 2329.1071,85.300395 2329.6364,88.488658 2328.0985,89.439145 2327.6026,89.745593 2326.6898,91.450954 2326.0701,93.228835 L 2324.9432,96.461347 2328.9546,92.544359 2332.9659,88.62737 2336.4413,92.563685 C 2339.7767,96.341371 2339.9182,96.399253 2339.9518,94 2339.9711,92.625 2339.0928,90.15 2338,88.5 2334.5183,83.242783 2336.3154,71.286079 2341.1938,67.250129 2343.4642,65.37186 2349.5604,69.724149 2349.3371,73.063847 2349.2475,74.403731 2349.6141,78.501719 2350.1518,82.170488 2350.9975,87.941175 2350.8796,89.327901 2349.2775,92.450698 L 2347.4256,96.060421 2347.2639,84.304167 C 2347.1297,74.546247 2346.8151,72.337952 2345.413,71.312703 2343.0832,69.609131 2340.4803,71.183579 2339.1052,75.128114 2337.4424,79.898096 2337.7434,82.560019 2340.5781,88.154082 2344.9646,96.810526 2341.8342,101.42735 2335.4054,95.782811 L 2331.8122,92.627885 2328.5023,96.563943 2325.1925,100.5 2323.9738,97.833521 z M 2310,39.071451 C 2310,38.443062 2312.0623,37.044917 2314.5829,35.964463 2320.0129,33.636893 2320,33.638478 2320,35.299112 2320,36.013623 2318.3125,37.202219 2316.25,37.940436 2314.1875,38.678653 2311.9375,39.492198 2311.25,39.748313 2310.5625,40.004429 2310,39.699841 2310,39.071451 z M 2353.7421,97.915469 C 2352.7752,97.352427 2351.5377,97.167668 2350.9921,97.504895 2350.4464,97.842121 2350,97.402353 2350,96.527632 2350,94.44923 2352.6537,93.467702 2354.386,94.905377 2355.1343,95.526398 2356.4007,95.783472 2357.2002,95.476652 2358.4017,95.015613 2358.2257,94.053402 2356.1862,89.932367 2354.278,86.076426 2353.6082,82.83789 2353.2321,75.647634 L 2352.7458,66.349331 2348.518,63.674666 C 2343.8234,60.704628 2341.4776,60.313021 2340.6891,62.36772 2339.8201,64.632392 2335.2615,64.946437 2333.3833,62.871025 2332.0073,61.350598 2331.8073,59.570365 2332.2375,52.674144 2332.5242,48.078969 2333.2829,43.339891 2333.9235,42.142859 2334.9019,40.314695 2334.5706,38.849027 2331.8529,32.983219 2330.0734,29.142449 2328.141,26.002772 2327.5587,26.006161 2326.9764,26.009549 2325.15,26.721169 2323.5,27.587538 2319.4384,29.720186 2312.6834,32.016744 2312.1224,31.455713 2311.8717,31.205071 2311.8542,30.82731 2312.0833,30.616243 2312.7913,29.964212 2328.9203,22 2329.5328,22 2329.8503,22 2331.1707,24.3625 2332.4669,27.25 2333.7632,30.1375 2335.4617,33.344666 2336.2414,34.377036 2337.6112,36.190882 2337.797,36.162713 2341.7598,33.540286 2347.058,30.03406 2349.1452,30.498415 2350.9051,35.574933 2354.1975,45.072198 2349.1298,48.17143 2337.8692,43.547196 2335.7165,42.66319 2333.9946,47.511791 2334.0153,54.399223 2334.0383,62.069065 2335.0163,62.953727 2339.804,59.635822 L 2343.7577,56.895878 2347.551,59.470079 2351.3443,62.04428 2354.0472,59.454817 C 2355.7627,57.811266 2357.7572,53.769065 2359.5072,48.389167 2362.2331,40.009541 2362.2443,39.868126 2360.4891,35.975721 2358.8103,32.252818 2358.8057,31.797223 2360.4058,27.607404 2362.3551,22.503293 2363.9108,21.548816 2366.8852,23.632143 2369.8987,25.742867 2369.7672,31.931667 2366.6295,35.673275 2365.3257,37.227974 2363.919,40.075 2363.5035,42 2361.9533,49.182405 2357.9732,59.542721 2356.2907,60.774807 2354.9079,61.787455 2354.781,62.419731 2355.6739,63.849395 2356.3717,64.966835 2356.5937,68.192427 2356.2594,72.357385 2355.7229,79.040308 2358.0613,91.301815 2360.1142,92.570563 2361.4666,93.406417 2361.1918,94.416962 2358.961,96.811439 2356.6711,99.269438 2356.228,99.363156 2353.7421,97.915469 z M 2348.7941,40.422988 C 2348.9558,38.815345 2348.4714,36.657178 2347.7176,35.627061 2346.3901,33.812984 2346.2314,33.828698 2342.6671,36.127061 2338.2291,38.98878 2338.3249,40.821403 2343,42.495136 2347.6554,44.161824 2348.4464,43.87896 2348.7941,40.422988 z M 2365.5541,32.557816 C 2367.6693,29.329603 2367.1176,25.5 2364.5374,25.5 2363.1882,25.5 2362.2886,26.498117 2361.6589,28.693818 2359.9967,34.489333 2362.5978,37.069595 2365.5541,32.557816 z"/>
</svg>
