<svg xmlns="http://www.w3.org/2000/svg"
     width="42.7" height="64.0"
     viewBox="7408.0001 20.0000 55.5605 83.2483">
  <path d="M 7442.7406,93.25 C 7440.8542,90.6375 7437.7857,85.9125 7435.9218,82.75 7434.0579,79.5875 7432.2911,77 7431.9956,77 7431.7001,77 7430.3427,79.124793 7428.9792,81.721763 7424.9451,89.405145 7419.9335,96 7418.1288,96 7415.8899,96 7412.0001,93.213125 7412.0001,91.609079 7412.0001,90.906447 7413.7063,87.894463 7415.7916,84.915783 7420.6733,77.942683 7426.0001,68.095874 7426.0001,66.044924 7426.0001,65.164973 7425.3877,63.557385 7424.6392,62.472506 7423.8907,61.387628 7421.6162,56.225 7419.5847,51 7417.5532,45.775 7415.2095,40.016407 7414.3764,38.203127 7413.4639,36.216953 7413.1127,33.763626 7413.493,32.032142 7414.3434,28.160659 7418.3666,24 7421.2599,24 7423.8494,24 7424.0502,24.369822 7430.6284,41.25 7432.7181,46.6125 7434.7083,51 7435.051,51 7435.3937,51 7438.785,44.925786 7442.5871,37.501747 7446.3893,30.077707 7450.0849,24.002707 7450.7998,24.001747 7451.5146,24.000786 7453.4271,24.686556 7455.0498,25.52568 7459.5606,27.858313 7459.1257,30.306786 7452.035,42.5 7450.7556,44.7 7448.6344,48.620211 7447.3212,51.211581 7446.0079,53.80295 7444.4916,56.196221 7443.9516,56.529962 7443.4116,56.863702 7442.3246,58.680991 7441.536,60.568381 7439.8464,64.612078 7440.9285,68.02815 7446.6156,76.603505 7448.4771,79.410433 7450.0001,82.167833 7450.0001,82.731061 7450.0001,83.294288 7450.6751,84.315311 7451.5001,85 7453.4965,86.656845 7453.3987,90.443789 7451.2732,93.785183 7447.7981,99.248273 7447.0373,99.200555 7442.7406,93.25 z M 7432.4984,56.132406 C 7432.8516,54.735864 7432.5194,53.095292 7431.6884,52.132406 7430.35,50.5815 7425.0001,37.381427 7425.0001,35.629917 7425.0001,33.768918 7421.6918,28.001574 7420.6362,28.022236 7420.0113,28.034466 7418.4045,28.886602 7417.0654,29.915873 L 7414.6307,31.787274 7418.4704,41.643637 C 7420.5822,47.064637 7422.6903,51.9275 7423.1551,52.45 7423.6198,52.9725 7424.0001,54.044385 7424.0001,54.831966 7424.0001,55.619547 7424.9701,57.83337 7426.1556,59.751572 L 7428.3111,63.239211 7430.1053,60.869606 C 7431.0921,59.566323 7432.169,57.434583 7432.4984,56.132406 z M 7422.3672,89.02144 C 7423.8153,86.833232 7425.0001,84.687693 7425.0001,84.253575 7425.0001,83.819457 7426.154,81.76621 7427.5642,79.690805 7430.1569,75.875339 7430.4983,71.985206 7428.3038,71.262896 7427.6458,71.046328 7426.1221,72.800691 7424.9177,75.161481 7423.7133,77.52227 7420.9526,81.85696 7418.7828,84.794125 7416.613,87.73129 7415.0851,90.779179 7415.3875,91.567213 7416.4207,94.259698 7419.6898,93.067352 7422.3672,89.02144 z M 7436.0005,62.000714 C 7434.5223,59.238626 7433.3133,59.493612 7431.5292,62.943798 7430.3664,65.192249 7430.2519,66.532067 7431.0442,68.616005 L 7432.0815,71.344413 7434.5764,67.672921 C 7436.5801,64.72424 7436.8604,63.607545 7436.0005,62.000714 z M 7450.9977,90.139216 C 7450.9964,89.237647 7449.3068,86.014352 7447.2429,82.976339 7445.1791,79.938325 7442.374,75.100825 7441.0092,72.226339 7439.6445,69.351852 7438.255,67 7437.9215,67 7437.5879,67 7436.4958,68.521312 7435.4944,70.380693 7433.711,73.692307 7433.7175,73.845287 7435.8139,77.867337 7436.991,80.125609 7439.0998,83.666797 7440.5002,85.736643 7441.9005,87.806489 7444.0167,91.024229 7445.2029,92.887177 L 7447.3595,96.274353 7449.1798,94.026393 C 7450.181,92.790014 7450.999,91.040785 7450.9977,90.139216 z M 7441.5977,56.25 C 7443.5078,53.37578 7444.299,51.973498 7450.4842,40.5 7452.5596,36.65 7454.7049,32.9375 7455.2514,32.25 7456.5365,30.633287 7454.451,28 7451.8855,28 7449.9061,28 7449.2757,29.032197 7441.5663,44.896073 7437.1341,54.016373 7436.2829,56.949481 7437.6668,58.333333 7438.8534,59.519936 7439.7351,59.052625 7441.5977,56.25 z"/>
</svg>
