<svg xmlns="http://www.w3.org/2000/svg"
     width="48.9" height="64.0"
     viewBox="180.5000 49.5401 41.9293 54.8627">
  <path d="M 184.75 91.71875 L 184.5 94.21875 C 186.36844 93.918023 187.98834 94.312284 189 95.53125 C 189.69311 96.3664 191.75617 97.73659 193.5625 98.59375 C 197.37487 100.40284 199.96104 99.503208 202.625 95.4375 C 204.14698 93.114662 204.39753 93.055718 206.0625 94.5625 C 208.76155 97.005102 211.24059 95.919285 212.875 91.625 C 214.02045 88.615435 214.10675 87.378205 213.1875 85.90625 C 211.43708 83.103389 211.73631 80.653259 214.59375 74.40625 C 217.82352 67.34526 218.42933 63.194178 216.75 60 C 214.8945 56.470729 212.27818 56.362134 208.8125 59.65625 C 204.81842 63.45261 203.40173 66.419954 201.5 74.78125 C 200.62107 78.64562 199.06973 82.525974 198.0625 83.4375 C 196.35201 84.985473 196.01532 84.977023 192.875 83.0625 C 189.93978 81.273013 187.87512 80.856944 185.625 81.625 L 185.46875 83.65625 L 186.15625 83.09375 L 190.84375 85.71875 C 195.44416 88.287257 195.60955 88.313066 198.28125 86.5625 C 200.98314 84.792157 202.95745 79.758973 204.4375 70.875 C 204.77087 68.873964 206.05714 65.766108 207.28125 63.96875 C 214.38379 53.540093 217.59796 61.447569 211.59375 74.5625 C 209.93913 78.176661 209.18807 81.201106 209.53125 82.875 C 211.25547 91.284963 211.27036 91.969633 209.5625 92.625 C 208.63015 92.982777 207.34178 92.74803 206.71875 92.125 C 204.86528 90.27153 202.32215 90.830878 200.59375 93.46875 C 199.2389 95.53651 198.4616 95.854528 195.75 95.34375 C 193.96575 95.007654 191.825 94.153201 191 93.46875 C 189.19806 91.973792 187.05992 91.436824 184.75 91.71875 z "/>
</svg>
