<svg xmlns="http://www.w3.org/2000/svg"
     width="25.2" height="64.0"
     viewBox="2248.1251 12.4026 35.8212 90.8192">
  <path d="M2266.5 97.03937C2265.4 96.580749 2263.6308 94.021773 2262.5684 91.352757C2261.506 88.683741 2259.137 84.30262 2257.304 81.616933C2252.155 74.072648 2252.1251 72.830386 2256.87 63.598816C2261.4932 54.603938 2261.8495 51.658695 2259.3793 42.855014C2256.9361 34.147652 2258.1309 25.087041 2262.2537 21.056181C2266.3327 17.068201 2268.6824 16.402582 2271.0661 18.559776C2274.0266 21.239013 2274.7262 25.512841 2274.2127 37.781719L2273.7405 49.063438L2276.9182 54.175264C2279.3353 58.063645 2279.9463 59.967998 2279.471 62.132077C2278.626 65.979505 2277.5349 66.429071 2274.0454 64.367758C2271.1052 62.630923 2271.0724 62.638017 2268.7934 65.504857C2264.8133 70.511416 2264.8301 72.333256 2268.9149 78.703428C2272.6858 84.584171 2274.3621 88.317853 2275.4277 93.209994C2276.3097 97.259275 2271.7344 99.221761 2266.5 97.03937Z M2272.4442 94.090337C2273.106 93.019391 2270.2726 86.532584 2266.071 79.5C2264.4281 76.75 2263.065 73.421577 2263.0419 72.103505C2263.0009 69.760835 2269.3974 59.0 2270.8309 59.0C2271.2292 59.0 2272.5842 59.7209 2273.8422 60.601999C2277.5418 63.193301 2277.6391 61.32282 2274.1363 54.951161L2270.8564 48.98512L2271.5475 37.74256C2272.1123 28.555516 2271.946 25.800304 2270.6382 22.673042C2268.6711 17.969261 2266.4482 18.072957 2263.5595 23.003268C2261.1384 27.13547 2260.9152 37.363896 2263.0107 48.158336L2264.3032 54.816672L2260.1516 62.939892C2257.8682 67.407664 2256.0 71.859436 2256.0 72.832721C2256.0 73.806005 2257.8 77.372468 2260.0 80.758194C2262.2 84.143919 2264.0 87.405742 2264.0 88.006689C2264.0 90.945979 2267.169 95.0 2269.4667 95.0C2270.7951 95.0 2272.135 94.590652 2272.4442 94.090337Z"/>
</svg>
