<svg xmlns="http://www.w3.org/2000/svg"
     width="61.2" height="64.0"
     viewBox="2478.0000 11.0477 86.0000 89.9523">
  <path d="M2487.7413 93.75C2487.5074 93.0625 2487.7339 90.972976 2488.2446 89.106613C2489.0628 86.116614 2488.8769 85.462803 2486.6808 83.606613C2483.4619 80.885977 2482.0 77.896306 2482.0 74.034357C2482.0 70.200537 2483.8746 69.36667 2487.8601 71.427646C2489.5324 72.292441 2491.0999 73.0 2491.3434 73.0C2492.4904 73.0 2492.7997 69.78993 2491.94 66.807299C2490.5547 62.001234 2490.6181 49.065515 2492.0586 42.628883L2493.3032 37.067371L2490.1131 33.804499C2486.5389 30.148713 2485.7039 27.833454 2486.1763 22.888373C2486.6734 17.684288 2489.8733 17.825467 2495.6754 23.307479L2500.3779 27.750515L2506.7287 21.305185C2510.2217 17.760254 2513.6242 15.047699 2514.2898 15.277286C2516.2868 15.966085 2515.6813 25.045361 2513.3202 29.81762L2511.2007 34.101583L2515.2494 36.657442C2519.9022 39.594652 2525.0485 39.395921 2528.2906 36.153837C2529.8963 34.548107 2530.0094 33.886026 2528.9998 31.999666C2527.5049 29.206355 2528.3377 24.738792 2531.0683 20.904084C2533.9553 16.849676 2535.6081 18.304111 2533.0469 22.645142C2530.7251 26.580262 2530.4767 29.18918 2532.1662 31.894537C2533.1211 33.423562 2532.9281 34.275961 2531.101 36.598698C2526.9927 41.821537 2519.3322 43.555274 2515.5645 40.114935C2512.4517 37.272682 2509.5047 36.686942 2507.9206 38.59567C2506.7351 40.024102 2506.9434 40.553226 2509.5294 42.683343C2517.295 49.079807 2523.0425 48.508777 2536.6519 39.988624C2538.4954 38.834512 2539.1687 38.880491 2541.3495 40.309437C2543.8922 41.975453 2546.8028 41.664111 2548.2347 39.572942C2549.7315 37.387016 2548.9416 36.0 2546.2 36.0C2540.8908 36.0 2539.6874 32.320988 2542.6086 25.020236C2543.4933 22.809106 2544.6183 21.0 2545.1086 21.0C2546.2897 21.0 2546.2591 21.173397 2544.4297 24.840503C2541.9056 29.900054 2542.8053 32.442508 2547.25 32.810365C2550.7419 33.099371 2551.0 33.342131 2551.0 36.337859C2551.0 42.807302 2546.5842 45.590192 2540.6262 42.875547C2538.5879 41.946833 2537.6658 42.098177 2535.3291 43.744963C2526.0103 50.312533 2520.0464 51.378389 2512.9195 47.75L2508.5 45.5L2508.5 61.807053C2508.5 78.007982 2508.5163 78.126958 2511.0 80.088835C2518.2732 85.833894 2521.9306 86.006107 2528.9334 80.933265C2531.1605 79.319969 2533.3622 78.0 2533.826 78.0C2534.2899 78.0 2535.8723 79.35 2537.3424 81.0C2538.8126 82.65 2540.5868 84.0 2541.2852 84.0C2542.8067 84.0 2546.5193 81.595363 2550.1403 78.264641C2551.5925 76.928891 2553.0253 76.23189 2553.3243 76.715748C2554.0307 77.858638 2553.2971 78.819278 2548.7152 82.7517C2544.2493 86.584566 2539.583 87.033047 2535.7271 84.0C2532.5906 81.532801 2532.4095 81.532706 2529.2772 83.996609C2527.8811 85.094743 2524.9924 86.463493 2522.8579 87.038275C2519.6479 87.902632 2518.244 87.753797 2514.7384 86.177501C2512.4073 85.129294 2509.375 83.049008 2508.0 81.554642C2505.6042 78.950852 2505.4945 78.267939 2505.3669 65.168807C2505.2937 57.650963 2504.9039 48.908875 2504.5007 45.741945C2503.8025 40.258642 2503.9356 39.733764 2507.2899 34.741945C2511.1207 29.04082 2513.3836 23.033392 2512.7456 20.25809C2512.4235 18.856767 2511.4008 19.484375 2507.7061 23.350843C2505.1567 26.018806 2502.7995 29.056306 2502.468 30.100843C2501.505 33.134958 2499.736 32.347727 2495.5 27.0C2493.3217 24.25 2490.7431 22.0 2489.7697 22.0C2487.6724 22.0 2487.6996 21.818315 2489.1562 26.100777C2489.792 27.97035 2491.817 31.188796 2493.6562 33.252881C2497.1483 37.172152 2497.6939 38.906146 2495.9756 40.624401C2495.384 41.21603 2494.9913 46.475691 2495.0461 53.074401C2495.0984 59.35848 2495.1095 65.571684 2495.0709 66.88152C2495.0322 68.191355 2495.6568 71.472557 2496.4588 74.173078C2497.8211 78.760468 2497.7917 79.208316 2496.0116 80.988377C2493.1376 83.862429 2491.0 88.537955 2491.0 91.95034C2491.0 95.021237 2488.6209 96.33512 2487.7413 93.75Z M2492.4327 81.074404C2495.152 78.069584 2494.0279 75.875449 2489.0 74.374088C2486.525 73.635038 2484.3875 73.02353 2484.25 73.015181C2484.1125 73.006831 2484.0 73.865474 2484.0 74.923275C2484.0 76.852714 2488.5164 83.0 2489.9339 83.0C2490.3498 83.0 2491.4742 82.133482 2492.4327 81.074404Z M2493.398 93.75C2494.2482 89.485945 2499.0963 84.578393 2501.6559 85.390774C2502.703 85.723125 2506.0061 87.571162 2508.9962 89.497524C2511.9862 91.423886 2515.4306 93.0 2516.6504 93.0C2517.8702 93.0 2521.6469 91.79488 2525.0432 90.321957C2530.5851 87.918508 2531.5403 87.776113 2534.3591 88.933218C2546.9868 94.116806 2548.2274 94.091676 2554.4317 88.52661C2558.4653 84.90853 2560.0 84.220579 2560.0 86.030551C2560.0 87.511127 2553.2044 93.277791 2549.7248 94.75C2545.4081 96.576388 2543.595 96.329163 2537.0403 93.02034L2531.1376 90.040679L2524.5903 93.104523C2516.8805 96.712393 2514.7714 96.511605 2506.891 91.419505L2501.5 87.93597L2499.75 90.078769C2498.7875 91.257308 2498.0 92.830882 2498.0 93.5756C2498.0 94.814994 2495.0909 97.0 2493.4407 97.0C2493.0608 97.0 2493.0416 95.5375 2493.398 93.75Z M2534.3913 30.793493C2535.2851 26.324743 2538.2201 20.696609 2539.9372 20.158721C2540.8931 19.859299 2540.6651 20.610345 2539.2564 22.40122C2536.0918 26.424266 2535.3355 31.040904 2537.5728 32.676905C2539.2311 33.889498 2539.1471 34.0 2536.5661 34.0C2533.9301 34.0 2533.791 33.794904 2534.3913 30.793493Z M2547.4195 86.130208C2547.7152 85.651822 2549.3167 84.697228 2550.9785 84.008887C2552.6403 83.320547 2554.0 82.361953 2554.0 81.87868C2554.0 81.395406 2554.45 81.0 2555.0 81.0C2556.905 81.0 2555.9712 82.510333 2552.6813 84.75C2549.383 86.99543 2546.4014 87.777509 2547.4195 86.130208Z"/>
</svg>
