<svg xmlns="http://www.w3.org/2000/svg"
     width="51.7" height="64.0"
     viewBox="389.3125 61.6557 39.4960 48.9004">
  <path d="M 396.75 87.03125 L 396.5 87.5 L 395.25 90.5625 C 396.00625 90.002969 396.70033 89.969592 398 90.78125 C 400.62834 92.422677 404.10874 92.315592 406.65625 90.53125 C 408.2034 89.447584 408.90795 87.529422 409.40625 83.125 C 410.22547 75.884057 413.46286 70.5 417 70.5 C 420.61141 70.5 421.82304 76.527003 419.625 83.5 C 417.67278 89.693162 417.55605 94.318807 419.25 97.03125 C 420.14895 98.470711 420.17604 99.467123 419.40625 100.6875 C 417.62016 103.51905 416.33934 103.23131 414.15625 99.53125 C 411.88299 95.678347 410.54105 95.278388 407.5625 97.53125 C 404.32023 99.983577 400.81503 99.298375 397.09375 95.46875 C 395.58941 93.920608 394.81419 92.941426 394.5625 92.1875 L 393.3125 95.21875 C 393.92996 95.398834 395.83993 96.695312 398 98.5 C 402.69014 102.4185 404.49607 102.75422 407.9375 100.34375 C 410.16958 98.78034 410.3635 98.794818 411.65625 100.59375 C 412.41096 101.64398 413.69083 103.2875 414.5 104.25 C 416.43874 106.5561 417.88614 106.44424 420.6875 103.8125 C 423.06389 101.58 423.77857 97.59922 422 96.5 C 420.49236 95.568226 420.78695 89.330977 422.625 83.5 C 424.80854 76.573035 423.88744 69.733694 420.5625 68.21875 C 414.9373 65.655737 408.17168 73.238898 407.21875 83.15625 C 406.6518 89.056537 404.8859 90.400818 399.8125 88.84375 C 398.03265 88.297499 397.18793 88.004169 396.75 87.03125 z "/>
</svg>
