<svg xmlns="http://www.w3.org/2000/svg"
     width="41.9" height="64.0"
     viewBox="6333.9709 14.0212 57.1345 87.2148">
  <path d="M6360.2072 95.5301C6357.8632 94.484007 6356.32 92.716878 6354.8518 89.39785C6352.6061 84.321156 6352.6397 78.869746 6355.0083 64.0C6356.4935 54.676598 6355.8287 46.949607 6352.9999 40.655343C6350.9115 36.008357 6350.6885 35.835853 6347.5347 36.427507C6342.3854 37.393522 6339.2206 35.692695 6338.4417 31.54079C6337.9709 29.03124 6338.2549 27.259948 6339.4109 25.495587C6341.4597 22.368707 6342.1094 22.382258 6347.0549 25.655031L6351.0669 28.310063L6354.022 25.478963C6355.6472 23.921859 6357.2375 21.827095 6357.5559 20.823932C6358.4454 18.021202 6359.8067 18.592977 6364.4471 23.718516L6368.7191 28.437032L6374.1182 24.718516C6380.2068 20.525104 6381.8353 20.23629 6384.9895 22.790423C6386.9733 24.39682 6387.1054 25.039217 6386.2746 29.040423C6385.7522 31.555932 6384.8367 33.391017 6384.1743 33.25C6383.5284 33.1125 6383.0 33.61875 6383.0 34.375C6383.0 36.206025 6377.652 37.198405 6374.4157 35.967932C6372.9947 35.4277 6371.4459 35.2244 6370.9739 35.516154C6369.4214 36.475617 6368.8853 44.382266 6369.924 51.0C6373.6037 74.444032 6374.2778 82.180757 6373.0997 87.445029C6372.449 90.352764 6371.3729 93.461098 6370.7083 94.352439C6368.9716 96.681835 6364.0296 97.236052 6360.2072 95.5301Z M6348.0898 32.391787C6349.2238 31.025386 6349.1383 30.574306 6347.5211 29.391787C6345.3235 27.784845 6341.0 27.52509 6341.0 29.0C6341.0 30.232678 6344.6751 34.0 6345.8776 34.0C6346.3602 34.0 6347.3557 33.276304 6348.0898 32.391787Z M6366.2089 92.769399C6368.2762 91.793799 6369.0405 90.42348 6369.8975 86.156423C6370.492 83.196117 6370.7461 80.398146 6370.4621 79.938709C6370.1782 79.479273 6369.7021 76.049779 6369.4043 72.317613C6369.1064 68.585446 6368.1875 62.620703 6367.3623 59.062627C6365.4016 50.608138 6365.2544 41.433753 6367.0043 36.74455L6368.4057 32.9891L6363.9947 28.49455C6361.5686 26.022547 6359.3398 24.000013 6359.0418 24.000029C6358.7438 24.000046 6357.2349 25.585577 6355.6887 27.523433L6352.8774 31.046806L6355.9662 37.584197C6360.0667 46.262973 6360.5623 50.923343 6358.6337 62.666039C6355.3823 82.462448 6355.6171 86.473982 6360.3362 91.75C6362.6795 94.369955 6362.7803 94.387444 6366.2089 92.769399Z M6382.75 31.739668C6384.5765 30.301043 6384.2766 26.560256 6382.1828 24.665432C6380.4819 23.126159 6380.0979 23.217794 6376.1828 26.096955C6371.3894 29.622065 6371.1727 30.307123 6374.1838 32.416209C6376.4047 33.97173 6380.3075 33.66349 6382.75 31.739668Z"/>
</svg>
