<svg xmlns="http://www.w3.org/2000/svg"
     width="34.3" height="64.0"
     viewBox="3348.5000 20.1006 43.0317 80.3255">
  <path d="M 3353.0625 74.28125 L 3353 74.5 L 3352.5 93 L 3352.5938 93.59375 C 3353.4996 93.215271 3354.5558 93.323023 3356.6562 93.90625 C 3365.7313 96.426109 3369.4978 94.636663 3372.5625 86.3125 C 3375.1053 79.405811 3375.7195 79.037494 3378.625 82.75 C 3381.6721 86.643494 3384.271 86.889287 3385.8438 83.4375 C 3387.5317 79.732633 3387.3096 78.434198 3384.25 73.8125 C 3381.9289 70.306333 3381.4624 68.37759 3381.1875 61.5625 C 3380.9831 56.496532 3381.4437 50.891836 3382.4688 46.5 C 3385.296 34.385943 3385.3915 32.882923 3383.4688 29.3125 C 3380.662 24.100595 3377.403 24.737524 3372.5625 31.4375 C 3367.3038 38.716464 3365.148 47.301088 3364.5938 63 C 3363.9942 79.983629 3364.0057 79.98015 3356.875 77.84375 C 3353.9068 76.954444 3353.2403 76.574293 3353.0625 74.28125 z M 3379.0938 28.34375 C 3381.8949 28.957205 3382.3624 35.856089 3379.5625 45.46875 C 3378.5722 48.86873 3377.7758 55.128584 3377.7188 59.96875 C 3377.6355 67.03205 3378.0025 69.219442 3379.875 72.6875 C 3381.1168 74.987537 3382.7735 77.407692 3383.5625 78.0625 C 3385.429 79.61155 3385.3986 81.89644 3383.5 82.625 C 3382.5923 82.973354 3380.8388 81.966144 3379.0312 80.03125 C 3377.3895 78.273824 3375.4776 77.019843 3374.7812 77.25 C 3374.0849 77.480158 3372.1512 80.460598 3370.5 83.875 C 3368.8488 87.289403 3366.8238 90.51047 3366 91.03125 C 3364.2363 92.146189 3362.9463 92.119389 3357.25 90.84375 L 3353 89.875 L 3353 84.84375 C 3353 79.352361 3352.8237 79.410571 3360.1875 81.59375 C 3364.8969 82.989965 3367.3703 75.072734 3366.9375 59.84375 C 3366.8072 55.257646 3367.2572 49.475 3367.9375 47 C 3368.6179 44.525 3369.3976 41.276058 3369.6875 39.78125 C 3369.9774 38.286441 3370.8286 36.541286 3371.5938 35.90625 C 3372.3589 35.271214 3373 34.224283 3373 33.5625 C 3373 32.900718 3374.1316 31.283718 3375.5312 29.96875 C 3376.9487 28.637159 3378.16 28.139265 3379.0938 28.34375 z "/>
</svg>
