<svg xmlns="http://www.w3.org/2000/svg"
     width="52.5" height="64.0"
     viewBox="1541.5619 15.5857 76.6105 93.3505">
  <path d="M 1569.2188,20 C 1567.6722,20 1560.6507,23.978827 1558.25,26.21875 1555.1409,29.119499 1552,35.215101 1552,38.34375 1552,41.539403 1553.6686,42.794291 1558.5,43.1875 L 1562.5,43.5 1562.7812,50.21875 C 1563.2387,60.646572 1560.2728,63.990505 1555.8438,58 1550.7188,51.068246 1545.7644,56.498158 1545.625,69.1875 1545.5619,74.934023 1545.8711,76.237877 1547.9375,78.4375 1550.8241,81.510095 1554.0365,81.722119 1556.5,79 1560.7002,74.358819 1561.0404,77.560572 1557.5,88.40625 1556.125,92.618448 1555,96.851872 1555,97.8125 1555,101.11794 1557.8645,103.87411 1561.75,104.28125 1563.8042,104.4965 1566.4302,104.75129 1567.5625,104.84375 1568.6949,104.9362 1572.2167,103.42069 1575.4062,101.5 1580.7727,98.268477 1582.2495,98.107911 1584.25,100.5625 L 1584.3125,97.15625 C 1582.2792,94.283422 1580.6256,94.525978 1574.7188,98.59375 1570.0696,101.79546 1569.0075,102.12768 1565.0938,101.59375 1557.7869,100.59691 1556.4365,97.956995 1559.5,90.625 1562.4125,83.654441 1564.0116,75.881893 1562.9375,73.875 1561.5001,71.189091 1559.7101,71.545706 1557.1562,75 1554.7299,78.281894 1553.3029,78.653968 1550.6562,76.71875 1548.0427,74.807664 1547.3087,64.237388 1549.5,60 L 1551.1875,56.75 1554.9688,60.46875 C 1559.523,64.915883 1561.8467,64.806866 1564.25,60 1566.3124,55.87514 1566.6211,45.205012 1564.75,42.75 1564.0524,41.834628 1561.7325,40.980502 1559.5,40.8125 1555.9817,40.547735 1555.4629,40.170016 1555.1875,37.78125 1555.0153,36.287537 1555.6412,33.472742 1556.5625,31.53125 1558.3779,27.705742 1565.9087,21.502517 1567.1875,22.78125 1567.6202,23.213946 1567.0823,25.901664 1566,28.75 1563.9375,34.178036 1564.184,37 1566.7188,37 1569.2813,37 1575.7259,32.872339 1577.0625,30.375 1577.7608,29.07014 1578.7835,28 1579.3125,28 1581.2678,28 1579.0387,35.089587 1575.7188,39.4375 1573.0075,42.988202 1572.164,45.172717 1571.6562,50.03125 1571.2826,53.607122 1571.4352,56.948504 1572.0312,58.0625 1574.4234,62.532179 1584.3094,61.116885 1588.375,55.71875 1591.7692,51.212194 1594.2842,43.376635 1593.0625,41.09375 1592.2335,39.544732 1592.4486,39.371194 1594.5938,39.78125 1596.091,40.067476 1597.8006,39.594322 1598.9062,38.59375 1599.9182,37.678002 1601.3198,37.058304 1602.0312,37.21875 1605.2167,37.937194 1607.615,24.990048 1604.8125,22.1875 1602.8837,20.258687 1601.8333,20.828271 1603.0625,23.125 1603.7411,24.393022 1603.9235,26.977596 1603.5312,29.59375 1602.3448,37.505601 1600.6449,35.667804 1599.75,25.5 1599.6047,23.85 1599.072,22.606576 1598.5312,22.75 1597.9657,22.899983 1597.6581,25.980109 1597.8438,30 1598.1324,36.245721 1597.9878,36.99717 1596.3438,36.96875 1595.3318,36.951258 1593.6301,36.276258 1592.5625,35.46875 1587.8874,31.932707 1585.47,35.390433 1589.375,40.03125 L 1591.9688,43.09375 1590,48.3125 C 1587.4643,55.051743 1584.0809,58 1578.9375,58 1574.594,58 1574.557,57.90595 1574.9688,50 1575.1413,46.68905 1576.2243,43.939501 1579.0938,39.625 1581.9653,35.307246 1583,32.72824 1583,29.84375 1583,24.117592 1580.7564,23.83895 1575.625,28.875 1570.5315,33.873919 1568,34.264875 1568,30.0625 1568,28.444959 1568.45,26.839919 1569,26.5 1570.1766,25.772792 1570.3718,20 1569.2188,20 z M 1584.375,90.21875 1584.4375,86.6875 C 1581.6338,85.548919 1578.9965,86.136315 1576.1875,88.5 1570.5556,93.238879 1569.7858,91.770164 1572.0312,80.59375 1574.2923,69.340089 1574.4984,69 1579.1562,69 1581.3247,69 1584.3273,68.374637 1585.8125,67.59375 1590.0762,65.351967 1596.4477,58.039659 1599.875,51.5 1601.6044,48.2 1604.5538,43.894258 1606.4062,41.9375 1611.4104,36.651227 1614.1724,30.60668 1613.8125,25.75 1613.3558,19.585685 1611.378,19.988097 1610.7188,26.375 1610.1351,32.030347 1608.714,34.930991 1603.4375,41.25 1601.7225,43.30393 1599.0801,47.35393 1597.5312,50.25 1591.249,61.996592 1585.2629,67 1577.5312,67 1573.0189,67 1570.8263,70.284447 1569.0625,79.75 1566.5372,93.302268 1569.2877,97.44988 1576.5625,91.0625 1580.239,87.83452 1581.5122,87.389983 1582.4688,88.9375 1582.6554,89.23954 1583.6776,89.765274 1584.375,90.21875 z"/>
</svg>
