<svg xmlns="http://www.w3.org/2000/svg"
     width="35.5" height="64.0"
     viewBox="4127.6562 18.0000 47.3522 85.3847">
  <path d="M 4131.6562 95.375 C 4133.6505 96.056301 4135.5804 97.000093 4136.125 97.65625 C 4137.4645 99.270188 4142.5715 99.384667 4146.8125 97.90625 C 4150.5058 96.618743 4155.5311 89.272999 4156.5625 83.65625 C 4157.4572 78.783612 4159.0894 78.183086 4162.4062 81.5 C 4165.9944 85.088111 4168.0147 84.392916 4169.625 79 C 4170.3641 76.525 4170.9917 74.421364 4171 74.34375 C 4171.0084 74.266136 4169.1984 72.035406 4167 69.375 C 4158.5255 59.119696 4158.0298 56.228449 4161.0312 34.84375 C 4162.5593 23.956299 4161.9338 22 4157 22 C 4146.944 22 4141.1515 41.845044 4145.5 61.34375 C 4148.2558 73.700954 4146.0543 83 4140.375 83 C 4139.0715 83 4136.2444 81.776834 4133.8125 80.25 L 4131.6562 95.375 z M 4154.75 24.65625 C 4155.4342 24.475741 4156.1354 24.485911 4156.9062 24.6875 C 4159.1642 25.277947 4159.2506 25.550174 4158.625 32.28125 C 4158.268 36.122481 4157.4803 41.221516 4156.875 43.625 C 4154.943 51.29794 4156.1108 58.957044 4160.1875 65.09375 C 4162.1606 68.063972 4164.7147 71.358506 4165.875 72.40625 C 4168.3028 74.598637 4168.5534 76.843068 4166.6562 79.4375 C 4165.4065 81.146636 4165.1586 81.048988 4162.1562 77.875 L 4158.9375 74.5 L 4156.9688 77 C 4155.8794 78.375 4154.4713 81.475649 4153.8438 83.875 C 4153.1735 86.437013 4151.1719 89.841896 4149 92.125 C 4144.8781 96.457989 4140.788 97.170655 4135.75 94.4375 C 4132.5571 92.705314 4132.7153 93.168705 4134.125 89.125 C 4135.147 86.193388 4135.5503 85.93795 4139.25 86.15625 C 4142.528 86.349669 4143.6882 85.928964 4145.5625 83.75 C 4148.4829 80.354791 4149.5463 72.271119 4148.4375 62.09375 C 4146.9841 48.754047 4147.3107 36.980993 4149.2812 31.875 C 4150.9678 27.505103 4152.6973 25.197778 4154.75 24.65625 z "/>
</svg>
