<svg xmlns="http://www.w3.org/2000/svg"
     width="38.2" height="64.0"
     viewBox="3732.2021 14.0000 52.5479 88.0000">
  <path d="M 3780.75,80.9375 C 3780.1948,79.512559 3779.9595,77.169585 3779.625,72.125 3778.4653,54.639382 3777.3029,47.603095 3773.9688,38 3768.5303,22.33607 3764.7739,18 3756.6562,18 3750.5935,18 3747.4334,20.794545 3743.2812,29.78125 3738.5137,40.099996 3736.8636,49.024426 3736.5312,66.53125 3736.2021,83.874998 3737.9518,92.236963 3742.6562,95.9375 3744.0952,97.069439 3745.5898,98 3745.9688,98 3746.3479,98 3748.8549,96.425 3751.5625,94.5 3754.27,92.575 3757.0022,91 3757.625,91 3758.2478,91 3761.3542,92.201726 3764.5312,93.65625 3769.5364,95.947664 3770.7427,96.142037 3773.4688,95.15625 3774.7412,94.696139 3775.6478,94.530238 3776.625,94.625 L 3780.75,80.9375 z M 3755.125,19.46875 C 3755.7712,19.376483 3756.4304,19.383131 3757.0938,19.5 3763.821,20.685162 3766.6872,24.354133 3771.4375,37.75 3775.4313,49.012384 3777.1562,60.417893 3777.1562,75.625 3777.1563,91.367599 3773.9102,95.544355 3765.125,91.0625 3759.6671,88.278062 3756.9223,88.462171 3751.3438,92 3748.7421,93.65 3746.3673,95.008422 3746.0625,95 3742.9163,94.913072 3739.1937,83.817316 3738.8438,73.5 3737.8821,45.147746 3745.4323,20.85275 3755.125,19.46875 z M 3757.1562,28 C 3754.8103,28 3753.8776,28.808177 3751.75,32.75 3746.0286,43.349625 3742.4533,63.169486 3743.9062,76.15625 3744.4483,81.000912 3745.3523,84.588692 3746.1562,85.09375 3747.8877,86.181426 3751.0026,85.274842 3753.4062,82.96875 3755.2367,81.212467 3755.4594,81.232437 3760.6562,83.78125 L 3766.0312,86.4375 3768.5,83.96875 C 3771.6553,80.811919 3772.2679,73.086734 3770.4062,60.5 3767.2798,39.362573 3762.662,28 3757.1562,28 z M 3757.0625,29.125 C 3757.5344,29.170973 3758.0067,29.622425 3758.875,30.53125 3765.5724,37.540767 3771.3945,76.730412 3766.4688,81.65625 3764.8565,83.268512 3764.525,83.253071 3760.625,81.1875 3755.5483,78.49866 3754.7826,78.477811 3752.5,81 3749.7794,84.006271 3747.3585,83.54271 3746.625,79.875 3744.1858,67.678832 3749.8047,35.757856 3755.375,30.1875 3756.1261,29.436427 3756.5906,29.079027 3757.0625,29.125 z"/>
</svg>
