<svg xmlns="http://www.w3.org/2000/svg"
     width="35.0" height="64.0"
     viewBox="2437.8573 14.2418 44.2348 80.9457">
  <path d="M 2442.5 78.6875 L 2442 90 L 2442.0625 91.1875 C 2443.0765 90.644112 2444.3957 90.238784 2446.5938 90.125 C 2453.2942 89.778163 2459.2216 84.854105 2463.2188 76.3125 C 2464.8457 72.835629 2466.6046 70 2467.125 70 C 2467.6455 70 2469.3952 70.96982 2471 72.15625 C 2473.4197 73.945205 2474.1901 74.092435 2475.4688 73.03125 C 2478.0921 70.854028 2477.4093 63.760454 2474.0312 58.03125 C 2471.2341 53.287182 2471.0081 52.123251 2470.2188 37.875 C 2469.4391 23.800729 2469.2001 22.605931 2467.0625 20.875 C 2463.8107 18.241829 2461.5599 18.543328 2458.625 22.03125 C 2455.2263 26.070327 2454.5644 30.430302 2455.5625 41.90625 C 2457.1125 59.727986 2456.7263 65.184469 2453.5625 71.4375 C 2450.2966 77.892469 2450.6436 77.613207 2445.75 78.53125 C 2443.9974 78.860035 2443.0724 78.971955 2442.5 78.6875 z M 2464.375 22.1875 C 2466.1352 22.822633 2466.9937 26.556455 2467.0312 33.4375 C 2467.1126 48.360661 2468.4538 55.776368 2471.9375 60.71875 C 2476.5273 67.230288 2474.4735 71.755436 2469.0625 67.0625 C 2465.8988 64.318587 2464.3331 65.390422 2461.9688 71.875 C 2459.4339 78.827229 2453.3132 85.553841 2448.2188 86.96875 C 2442.4198 88.57929 2441.8573 88.225614 2442.7188 83.71875 C 2443.0937 81.757687 2444.002 80.809902 2445.875 80.40625 C 2450.9756 79.307046 2452.6501 77.816102 2455.9062 71.40625 C 2459.155 65.010673 2459.1971 64.81385 2458.5312 55.21875 C 2456.8705 31.287578 2457.5342 25.479453 2462.3125 22.59375 C 2463.0949 22.121234 2463.7883 21.975789 2464.375 22.1875 z "/>
</svg>
