<svg xmlns="http://www.w3.org/2000/svg"
     width="35.0" height="64.0"
     viewBox="4598.8109 13.9174 48.8292 89.2800">
  <path d="M 4635.8719,36.650776 C 4638.1135,32.957568 4639.5719,27 4638.2344,27 4637.726,27 4636.5059,27.888512 4635.5231,28.974471 4634.5403,30.060429 4632.8956,31.215754 4631.8681,31.541858 4630.4796,31.982548 4630,33.101656 4630,35.900721 4630,37.971991 4630.269,39.935661 4630.5978,40.264432 4631.6995,41.366137 4633.9428,39.829059 4635.8719,36.650776 z M 4636,92.520236 C 4636,89.76544 4632.77,82.947268 4631.0217,82.011604 4629.6575,81.281526 4629.0383,81.620432 4628.1419,83.587831 4626.4318,87.341071 4626.6814,88.248865 4630.241,91.223099 4633.8818,94.265179 4636,94.742284 4636,92.520236 z M 4623.0819,91.940481 C 4623.8097,90.49392 4624.9544,86.362646 4626.9447,78 4629.1772,68.619798 4628.575,38.653302 4625.9575,28.866488 4625.423,26.868057 4624.3195,24.680126 4623.5053,24.004419 4622.2622,22.97268 4621.7302,23.474679 4620.1849,27.13793 4616.4326,36.033062 4614.6477,47.755439 4614.5721,64 4614.5008,79.324684 4615.4287,84.999638 4619.2011,92.310765 4620.2364,94.317278 4621.9692,94.151943 4623.0819,91.940481 z M 4615.4184,34 C 4615.8419,32.109008 4615.1429,30.531294 4612.549,27.523426 4610.663,25.336311 4608.8383,23.828387 4608.4942,24.172485 4607.6468,25.019862 4609.8017,32.937087 4611.6745,35.856902 4613.3351,38.445948 4614.5586,37.839118 4615.4184,34 z M 4611.0162,90.987182 C 4614.3151,88.374426 4614.723,87.610902 4614.0882,85.237182 4613.0304,81.281822 4610.4228,81.257995 4608.0305,85.181829 4606.1516,88.263563 4605.225,94 4606.6061,94 4606.9394,94 4608.924,92.644232 4611.0162,90.987182 z M 4631.1058,94.802593 4626.7115,90.658679 4625.1004,94.079339 C 4622.7858,98.993348 4619.5386,99.197351 4617.3308,94.567456 4616.3951,92.605355 4615.1382,91 4614.5376,91 4613.9371,91 4611.9427,92.372833 4610.1056,94.05074 4606.1717,97.643825 4603.6242,97.554351 4603.19,93.807846 4602.8109,90.537103 4604.8273,86.465388 4609.0742,81.925316 L 4612.2784,78.5 4612.1025,65 C 4612.0058,57.575 4612.3403,49.334253 4612.846,46.687229 4613.6759,42.342038 4613.5324,41.597779 4611.3689,39.026618 4606.9348,33.756895 4604.8565,26.143465 4606.607,21.581787 4607.5307,19.17469 4608.6757,19.635243 4612.619,24 4614.6065,26.2 4616.54,28 4616.9155,28 4617.291,28 4618.1591,26.448813 4618.8447,24.552917 4621.2442,17.917355 4626.1802,19.113223 4627.5986,26.673733 4628.0776,29.227292 4628.7262,30 4630.3904,30 4632.4971,30 4640,23.664793 4640,21.885954 4640,21.398679 4640.675,21 4641.5,21 4643.6401,21 4643.4071,25.420393 4640.9201,32 4638.4965,38.411694 4635.501,42.000834 4632.5757,41.997962 4630.583,41.996006 4630.5124,42.430437 4630.8099,52.862391 4630.9804,58.838948 4630.7091,66.794117 4630.2072,70.540545 L 4629.2946,77.352231 4633.0313,80.926116 C 4635.0865,82.891752 4637.2145,85.86971 4637.7601,87.543799 4638.8653,90.934587 4638.0416,98.16753 4636.4964,98.641125 4635.9484,98.809085 4633.5226,97.081746 4631.1058,94.802593 z"/>
</svg>
