<svg xmlns="http://www.w3.org/2000/svg"
     width="49.0" height="64.0"
     viewBox="2816.4587 12.0000 70.5470 92.2068">
  <path d="M 2864.6875 83.90625 C 2863.6287 83.520476 2862.6894 83.143423 2862.25 82.78125 C 2860.3647 81.227117 2860.7491 75.886138 2863.1562 70.09375 C 2865.1622 65.267167 2865.2028 64.436875 2864 58.0625 C 2862.4563 49.881256 2863.071 41.49153 2865.375 39.1875 C 2866.5402 38.022298 2868.81 37.518782 2872.9375 37.5 C 2879.9685 37.468005 2883.0057 35.381661 2883 30.59375 C 2882.9955 26.868306 2880.0311 21.720962 2876.5938 19.46875 C 2873.2407 17.271732 2869.2505 18.239306 2863.8125 22.5625 C 2858.688 26.636453 2857.7769 26.750997 2854.7812 23.625 C 2852.3084 21.044738 2843.3513 16 2841.2188 16 C 2838.0193 16 2833.7257 19.373822 2831.9375 23.3125 C 2829.5772 28.511163 2829.3215 36 2831.5 36 C 2832.325 36 2833 35.524197 2833 34.9375 C 2833 32.619819 2838.2835 27 2840.4688 27 C 2843.3905 27 2851.6403 34.68848 2852.5312 38.25 C 2853.3655 41.584467 2852.4646 46.995576 2850.6562 49.46875 C 2849.3947 51.194116 2848.9468 51.140557 2841.4062 48.21875 L 2833.5 45.15625 L 2830.75 47.75 C 2829.2375 49.189019 2828 50.734406 2828 51.1875 C 2828 51.640594 2827.135 53.918495 2826.0938 56.25 C 2821.7755 65.919038 2820.5992 71.386786 2820.5312 82 C 2820.4587 93.339255 2821.1007 96 2823.8438 96 C 2825.3391 96 2825.807 94.421589 2826.8438 85.75 C 2828.3504 73.147659 2829.7581 66.517626 2831.875 62.21875 C 2833.5162 58.885692 2836.7091 57.280053 2839.5625 58.375 C 2841.2162 59.0096 2845.9376 68.668416 2848.0312 75.6875 C 2849.2179 79.665528 2849.1148 80.126113 2846.25 84.6875 C 2842.6015 90.496668 2841.5825 94.382663 2843 97.03125 C 2843.6255 98.200033 2845.1056 99 2846.5938 99 C 2848.6743 99 2849.4721 98.127713 2851.1875 94 C 2852.3304 91.25 2853.8576 89 2854.5625 89 C 2855.2673 89 2857.4813 91.25 2859.5 94 C 2863.0958 98.898418 2865.4415 100.20679 2866.25 97.78125 C 2866.3926 97.353487 2867.0827 97.089219 2868.0312 96.9375 L 2867.5 95 L 2864 84.5 L 2864.6875 83.90625 z M 2840.2812 18.375 C 2841.2343 18.457883 2842.4264 19.014293 2844.6562 20.09375 C 2847.2486 21.348675 2851.1986 24.076703 2853.4062 26.15625 L 2857.4062 29.9375 L 2860.9688 27.28125 C 2862.9186 25.821995 2865.8918 23.582623 2867.5938 22.3125 C 2869.2957 21.042376 2871.4014 20 2872.2812 20 C 2877.2685 20 2882.8881 31.034378 2879.2812 33.75 C 2878.3681 34.4375 2875.2642 35 2872.375 35 C 2865.5663 35 2862.4261 37.565441 2860.5625 44.6875 C 2859.4145 49.074941 2859.4432 50.990866 2860.625 57.25 C 2861.9263 64.141735 2861.8677 65.071689 2860 70.5 C 2857.2195 78.581663 2857.4213 81.580356 2861 85.65625 C 2866.1602 91.533446 2864.3051 94.646155 2859.0625 88.90625 C 2855.3928 84.888395 2852.8394 85.626844 2849.875 91.5625 C 2847.4104 96.497371 2845 97.419865 2845 93.4375 C 2845 90.466666 2846.3468 87.665885 2849.6562 83.6875 C 2852.2541 80.564523 2852.1994 79.591165 2848.7812 69.5 C 2845.9979 61.283039 2843.4037 56.367539 2841.4688 55.625 C 2833.485 52.561341 2827.5681 62.278057 2825.4375 82 C 2824.3858 91.735444 2823.3004 92.447155 2822.5 83.90625 C 2821.7164 75.544281 2823.3989 66.70087 2827.625 57 C 2832.1758 46.553887 2832.0786 46.593858 2842.0312 51.4375 C 2848.8387 54.750499 2849.3704 54.879333 2850.6562 53.25 C 2854.2051 48.753133 2855.2204 45.607088 2854.7812 40.3125 C 2854.4136 35.879787 2853.726 34.324128 2850.9062 31.40625 C 2843.6611 23.908985 2840.0849 22.960453 2835.25 27.3125 C 2833.3545 29.018697 2833 29.105667 2833 27.75 C 2833 24.696667 2834.9231 21.084986 2837.4375 19.4375 C 2838.6307 18.655721 2839.3282 18.292117 2840.2812 18.375 z "/>
</svg>
