<svg xmlns="http://www.w3.org/2000/svg"
     width="43.5" height="64.0"
     viewBox="81.3117 12.3452 64.7579 95.2847">
  <path d="M92.538527 99.39567C86.670469 93.527612 85.311654 80.906863 89.050641 67.0C90.159685 62.875 91.538236 55.225 92.114087 50.0C93.091532 41.13113 95.866764 32.249064 100.36524 23.59236C103.19991 18.137435 113.36846 16.345182 118.78983 20.344944C125.18902 25.066114 128.35132 31.00378 132.00842 45.164718C134.10031 53.26487 134.77666 55.221086 137.65622 61.5C140.03079 66.677788 141.72213 76.259418 141.91122 85.605061C142.06957 93.431192 141.81572 94.964559 139.97415 97.305739C136.2462 102.04506 128.81169 100.31725 124.24307 93.649788C120.89604 88.76512 119.3282 77.54364 120.79645 68.981441C122.28649 60.29218 122.32836 51.754971 120.9067 46.5C119.15147 40.012038 114.90735 31.178424 113.23757 30.53767C110.60108 29.525954 107.1877 33.931392 104.9127 41.282077C103.13296 47.032534 102.82875 49.936057 103.22078 57.430841C103.48366 62.456595 104.21652 67.536062 104.84937 68.718546C106.30413 71.436781 106.33851 83.323139 104.91087 89.979973C102.99982 98.890897 96.772738 103.62988 92.538527 99.39567Z M101.05771 93.25C103.96815 86.823819 103.98184 77.915552 101.09906 66.333672C99.133071 58.435068 98.956059 56.277543 99.819171 50.733601C100.92397 43.637255 105.68754 32.497738 108.83564 29.648742C110.61249 28.04072 111.18526 27.982123 113.60654 29.160664C117.07135 30.847141 119.29813 34.622598 122.05132 43.478622C124.03958 49.874118 124.16195 51.714316 123.5158 65.501393C122.71188 82.654637 123.78673 88.103354 129.09481 93.782983C132.88009 97.833231 137.57763 98.241111 138.94736 94.638465C140.15127 91.471925 138.42849 72.210592 136.45425 66.764634C133.44572 58.465599 130.21332 48.436722 128.95583 43.5C125.03623 28.112187 116.91091 18.767819 108.85172 20.379655C105.10702 21.128597 104.09194 22.356156 99.656254 31.5C96.649735 37.697715 94.232763 48.59299 94.695518 53.862097C94.761312 54.61125 93.992699 57.614672 92.987488 60.536366C90.405948 68.039743 88.695404 80.483133 89.504131 85.876117C90.544198 92.811775 93.526642 98.0 96.473529 98.0C98.407312 98.0 99.347744 97.02555 101.05771 93.25Z M93.424355 88.663468C93.142273 87.928375 93.043896 83.199776 93.20574 78.15547C93.62538 65.076179 95.491091 65.951911 95.537588 79.25C95.571581 88.972038 94.822765 92.307665 93.424355 88.663468Z M130.71348 88.25C130.48176 87.2875 130.21557 84.025 130.12195 81.0C130.02832 77.975 129.47327 73.101813 128.8885 70.170695C127.90765 65.2543 128.18254 62.849203 129.56704 64.233709C131.98097 66.647636 134.24707 90.0 132.06739 90.0C131.55445 90.0 130.94519 89.2125 130.71348 88.25Z"/>
</svg>
