<svg xmlns="http://www.w3.org/2000/svg"
     width="51.2" height="64.0"
     viewBox="7562.3750 53.8867 41.4357 51.7510">
  <path d="M 7570.9062 88.65625 L 7569.5312 91.28125 C 7571.1779 92.274914 7572.5969 92.998935 7573.125 93 C 7575.4419 93.004672 7579.9637 90.902967 7583.75 88.0625 C 7586.9839 85.636431 7586.9728 85.613187 7586.3438 78.84375 C 7585.599 70.831758 7587.2942 63.634366 7590.4062 61.4375 C 7592.3167 60.08886 7592.6533 60.137716 7594.125 61.9375 C 7595.8089 63.996669 7595.7199 65.192307 7593.0312 75.90625 C 7591.8519 80.606011 7592.3467 84.762085 7594.6562 89.28125 C 7596.6119 93.107696 7595.5565 94.325135 7591.9062 92.4375 C 7589.1208 90.997062 7588.6699 91.048236 7585.5625 92.96875 C 7583.7264 94.10352 7581.6791 95.681645 7581 96.5 C 7579.3876 98.442793 7572.6156 98.446697 7571 96.5 C 7570.3153 95.675 7569.1842 95 7568.4688 95 C 7568.33 95 7567.9712 94.799193 7567.75 94.71875 L 7566.375 97.34375 C 7569.328 99.188652 7572.354 101.0022 7573.0625 101.28125 C 7573.8565 101.59403 7575.1112 101.63768 7575.8438 101.40625 C 7576.5763 101.17483 7577.7164 101 7578.4062 101 C 7579.0959 101 7581.7272 99.402998 7584.25 97.4375 C 7588.7001 93.970453 7588.9308 93.898474 7591.375 95.5 C 7592.7606 96.407918 7594.9182 96.99242 7596.1875 96.8125 C 7599.3669 96.361823 7599.8107 91.382825 7597.0625 86.875 C 7594.629 82.88344 7594.3803 76.439405 7596.5 72.375 C 7598.6826 68.190109 7598.4462 61.716702 7596.0312 59.53125 C 7594.2983 57.963007 7593.6695 57.88666 7590.9062 59.03125 C 7586.5636 60.830075 7584.661 65.672634 7584.0312 76.46875 C 7583.5147 85.324852 7583.4501 85.462249 7580.0938 87.71875 C 7576.4668 90.157146 7574.0548 90.422558 7570.9062 88.65625 z "/>
</svg>
