<svg xmlns="http://www.w3.org/2000/svg"
     width="38.1" height="64.0"
     viewBox="6762.9792 14.2245 38.5208 64.7442">
  <path d="M 6793.0938 74.96875 L 6795.5 74 L 6795.75 72.78125 C 6792.6706 72.451642 6786 69.856098 6786 68.90625 C 6786 68.402083 6785.2125 67.980829 6784.25 67.96875 C 6780.5009 67.9217 6774.1083 64.108229 6772.4688 60.9375 C 6768.9999 54.22938 6771.3898 39.587484 6778.2188 25.53125 C 6780.7129 20.397452 6782.584 19.867879 6785.9375 23.4375 C 6788.6243 26.297513 6788.2265 29.669105 6784.5938 34.5 C 6779.3733 41.442365 6778.6436 49.711069 6782.5938 56.96875 C 6785.1363 61.640208 6789.841 65 6793.8438 65 C 6795.1998 65 6796.2457 65.594399 6796.9688 66.59375 L 6797.5 64 L 6797.5 62.625 C 6796.711 64.376241 6795.2921 64.203455 6791.9375 62.46875 C 6787.2607 60.050291 6783 53.439125 6783 48.59375 C 6783 42.910062 6784.4387 38.46422 6787.4062 34.9375 C 6788.7924 33.290238 6790.2175 30.287078 6790.5938 28.28125 C 6791.2027 25.035051 6790.9379 24.325819 6788.125 21.8125 C 6784.746 18.79336 6781.3221 18.224522 6778.8438 20.25 C 6772.9137 25.096625 6766.9792 45.634385 6767.875 58.1875 C 6768.0795 61.052922 6772.8504 65.770983 6778.2812 68.5 C 6781.1433 69.938239 6784.625 71.780916 6786 72.5625 C 6787.375 73.344083 6789.5265 73.991892 6790.7812 74 C 6792.012 74.007953 6792.6874 74.395374 6793.0938 74.96875 z "/>
</svg>
