<svg xmlns="http://www.w3.org/2000/svg"
     width="44.3" height="64.0"
     viewBox="6111.9375 16.0000 25.8000 37.3125">
  <path d="M 6120.25 49.3125 L 6122.5938 44.15625 C 6124.0028 41.050115 6126.4311 37.504755 6127.9688 36.28125 C 6131.8279 33.210329 6133.7375 25.74227 6131.5312 22.375 C 6130.4518 20.727497 6129.0241 20 6126.9375 20 C 6124.3469 20 6123.6204 20.611418 6121.9688 24.25 C 6119.8281 28.966086 6119.4245 34.018166 6121.0625 35.65625 C 6121.7088 36.302489 6121.8575 38.198507 6121.4375 40.4375 C 6120.8942 43.33324 6120.0662 44.445927 6117.625 45.46875 C 6116.8944 45.774871 6116.6186 45.870897 6115.9375 46.15625 L 6120.25 49.3125 z M 6127.3125 22.1875 C 6130.8255 22.687624 6130.9118 29.963164 6127.4375 33.4375 C 6124.5383 36.336635 6123.2259 35.309156 6122.875 29.90625 C 6122.5718 25.239708 6124.5454 21.793571 6127.3125 22.1875 z "/>
</svg>
