<svg xmlns="http://www.w3.org/2000/svg"
     width="51.3" height="64.0"
     viewBox="6672.7792 16.5992 71.6321 89.4008">
  <path d="M 6733.0625 21 C 6732.567 21 6729.1621 23.561356 6725.5 26.6875 L 6718.8438 32.375 L 6714.0625 27.1875 C 6708.5047 21.142131 6705.7254 20.599167 6701.7188 24.78125 C 6699.0464 27.570499 6698.5511 29.181424 6698.8438 34.21875 C 6699.0398 37.592808 6707.857 45 6711.6875 45 C 6713.9323 45 6714.1339 45.298945 6713.5312 47.75 C 6712.6918 51.163831 6710.2823 55 6708.9688 55 C 6708.4267 55 6705.2904 52.525 6702 49.5 C 6698.7096 46.475 6695.6286 44 6695.1562 44 C 6692.3843 44 6686.0506 50.483373 6682.25 57.21875 C 6677.7427 65.206527 6676.7792 70.741947 6679.5 73 C 6681.5663 74.714898 6683.3773 73.061201 6684.875 68.0625 C 6685.5287 65.880755 6687.2158 62.706037 6688.625 61.03125 C 6692.6352 56.265497 6695.5009 56.903555 6702.8125 64.125 C 6710.743 71.957804 6710.9384 75.088902 6703.9375 82.5 C 6700.5667 86.068389 6697.7052 93.481024 6698.5938 96.40625 C 6698.9417 97.552046 6699.9361 99.2875 6700.7812 100.25 C 6701.6264 101.2125 6703.3665 102 6704.6562 102 C 6706.8632 102 6707.3956 101.05275 6707.2812 97.3125 C 6707.2612 96.658255 6708.2943 95.160174 6709.5625 93.96875 L 6711.8438 91.78125 L 6715.6875 94.75 C 6716.8311 95.633086 6718.1271 96.402694 6719.5 97.09375 L 6720.5625 95.0625 C 6719.2225 94.243012 6717.8881 93.236735 6716.2188 91.65625 C 6713.0727 88.677559 6712.8128 88.608374 6710.2188 90.0625 C 6708.7274 90.898479 6706.6 93.003715 6705.5 94.75 C 6702.7937 99.046274 6702 98.797115 6702 93.65625 C 6702 89.872185 6702.6503 88.564357 6707 83.59375 C 6709.7465 80.45509 6712.2674 76.831548 6712.5938 75.53125 C 6714.1603 69.289671 6702.4627 56 6695.4062 56 C 6689.3345 56 6686.7515 58.033789 6682.7812 66 C 6679.2743 73.036905 6679.3881 68.212352 6682.9062 60.6875 C 6685.9512 54.174951 6691.7171 47 6693.9062 47 C 6694.5523 47 6697.1924 48.972372 6699.7812 51.375 C 6705.8089 56.968909 6710.4285 59.416297 6711.7188 57.71875 C 6713.1252 55.868311 6715.7603 49.873561 6716.5625 46.65625 C 6717.3984 43.30386 6716.0105 42.023012 6711.4688 42 C 6709.587 41.990465 6707.0402 40.850929 6704.7188 38.9375 C 6701.603 36.369173 6701 35.221104 6701 32.03125 C 6701 27.215163 6703.7925 23.487404 6706.6875 24.40625 C 6707.816 24.764414 6710.6299 27.294546 6712.9375 30.03125 C 6717.3408 35.253294 6719.9812 36.169645 6722.2188 33.25 C 6724.7023 30.009657 6730.9686 24.624885 6731.5625 25.21875 C 6732.3245 25.980833 6729.5884 31.256213 6727.5625 32.9375 C 6725.0076 35.057891 6725.7362 37.105605 6730.6562 41.6875 C 6733.2156 44.070819 6735.0665 46.245953 6734.7812 46.53125 C 6734.496 46.816547 6732.1656 46.500388 6729.5938 45.8125 C 6723.4899 44.179976 6722.3309 45.009974 6719.4062 53.03125 L 6717.0312 59.5 L 6719.0938 62.3125 C 6722.6677 67.199036 6722.6682 71.173493 6719.0625 77.5625 L 6715.8438 83.25 L 6718.6875 86.25 C 6719.9999 87.646523 6721.6035 88.796868 6723.2812 89.75 L 6724.75 86.9375 C 6724.5851 86.831928 6724.4506 86.769907 6724.2812 86.65625 C 6720.0219 83.797775 6719.5972 82.389928 6721.9062 78.625 C 6722.9645 76.89951 6724.1489 73.370844 6724.5312 70.78125 C 6725.0988 66.937118 6724.8143 65.47133 6723.0938 62.6875 C 6720.9053 59.146587 6720.3697 55.524104 6721.875 54.59375 C 6722.354 54.297736 6723.0114 52.692696 6723.3438 51.03125 C 6723.871 48.395049 6724.3718 48 6727.2812 48 C 6729.1148 48 6731.4948 48.661241 6732.5625 49.46875 C 6734.8349 51.187524 6738.6072 51.463756 6739.5312 49.96875 C 6740.4113 48.544707 6737.5866 44.279642 6732.75 39.75 C 6729.0778 36.310876 6728.86 35.835749 6730.25 34.25 C 6733.1396 30.953517 6735.1707 25.829564 6734.5625 23.40625 C 6734.2323 22.090487 6733.5581 21 6733.0625 21 z "/>
</svg>
