<svg xmlns="http://www.w3.org/2000/svg"
     width="35.0" height="64.0"
     viewBox="1348.2215 15.0000 51.7785 94.7233">
  <path d="M 1392.0312 90.875 C 1391.6994 90.716387 1391.3949 90.564253 1390.9688 90.3125 C 1386.4818 87.662056 1383.5101 80.571583 1383.875 73.3125 C 1384.1585 67.673817 1384.5385 66.737351 1388.0938 63 C 1392.881 57.967463 1396 52.074574 1396 48.03125 C 1396 44.457348 1395.0227 44.202584 1392.4062 47.09375 C 1390.4569 49.247717 1385.8337 52 1384.1562 52 C 1383.64 52 1382.9319 50.3125 1382.5625 48.25 C 1382.193 46.1875 1381.3918 43.084799 1380.7812 41.34375 C 1379.8455 38.675002 1379.9748 37.737857 1381.5938 35.46875 C 1386.1318 29.108321 1387.9534 25.294886 1387.9688 22.25 C 1387.9779 20.4625 1387.5056 19 1386.9062 19 C 1386.307 19 1383.0445 21.477472 1379.6562 24.5 C 1372.9555 30.477547 1372 30.947099 1372 28.1875 C 1372 25.678168 1368.0408 22.170653 1364.375 21.4375 C 1361.8045 20.923391 1360.9094 21.310499 1358.5938 24.0625 C 1356.5464 26.495651 1356.0245 27.949196 1356.5 29.84375 C 1357.3529 33.241896 1360.653 37.762026 1362.7812 38.4375 C 1365.6327 39.342559 1367.1097 42.798704 1367.7188 50.0625 C 1368.1925 55.71326 1368.0191 57.044277 1366.75 57.53125 C 1364.7298 58.306473 1357.8593 54.757668 1356.25 52.09375 C 1355.5579 50.948011 1354.3618 50 1353.5938 50 C 1352.2495 50 1352.2215 53.964776 1353.5312 60.5625 C 1354.1212 63.533698 1360.7001 69.735896 1364.625 71.03125 C 1367.256 71.89957 1368.0348 72.724192 1368.1562 74.8125 C 1368.4861 80.481626 1367.7288 82.479614 1363.8438 86.25 C 1357.8077 92.107818 1355.0491 100.67407 1358.1875 103.8125 C 1360.0983 105.72331 1366.4224 105.24204 1369.3125 102.96875 C 1370.7388 101.84681 1372.9263 99.125735 1374.1562 96.9375 C 1375.3861 94.749265 1376.857 93.120742 1377.4375 93.3125 C 1378.018 93.504257 1379.6915 95.410568 1381.1562 97.5625 C 1384.1428 101.94988 1387.5083 103.82621 1392.1875 103.34375 L 1392.1562 100.53125 C 1391.4396 100.70495 1390.5725 101 1390.0938 101 C 1387.559 101 1383.6285 97.461524 1381.2188 93 C 1380.179 91.075 1378.6843 89.387556 1377.9062 89.25 C 1377.1205 89.111088 1375.1663 91.255392 1373.5 94.0625 C 1371.85 96.842223 1369.2976 99.767167 1367.8125 100.5625 C 1358.2428 105.68714 1356.9432 96.061259 1366.0625 87.53125 L 1371.0938 82.8125 L 1370.625 73.65625 C 1370.3555 68.617936 1370.0971 59.246483 1370.0625 52.84375 L 1370 41.21875 L 1365 36.1875 C 1359.7189 30.878514 1358.4343 26.523702 1361.4375 24.03125 C 1364.3339 21.627466 1370 25.305014 1370 29.59375 C 1370 33.862112 1372.6672 33.512279 1377.6562 28.59375 C 1385.6407 20.722164 1387.593 23.05586 1380.875 32.4375 C 1376.9873 37.866551 1376.8025 38.405739 1377.8125 41.84375 C 1380.4689 50.886136 1381.0896 56.197425 1380.9062 67.9375 C 1380.6926 81.604819 1381.6276 84.722886 1387.7812 91.25 C 1389.2774 92.836994 1390.5836 93.5805 1392.0625 93.6875 L 1392.0312 90.875 z M 1392.7812 50.4375 C 1393.3912 51.047382 1389.3561 58.322739 1387.0625 60.75 C 1385.8932 61.9875 1384.7573 63 1384.5625 63 C 1383.8542 63 1383 59.785933 1383 57.125 C 1383 54.849786 1383.7679 54.021909 1387.6875 52.21875 C 1390.2709 51.030227 1392.5764 50.23262 1392.7812 50.4375 z M 1355.875 55.25 C 1358.5984 56.715362 1366.3586 60 1367.0938 60 C 1367.5982 60 1368 62.025 1368 64.5 C 1368 69.200191 1367.4002 69.636849 1363.3438 68 C 1360.5345 66.866356 1356.3778 61.244459 1355.75 57.71875 C 1355.4768 56.184451 1355.5346 55.066843 1355.875 55.25 z "/>
</svg>
