<svg xmlns="http://www.w3.org/2000/svg"
     width="20.2" height="64.0"
     viewBox="5316.0337 11.8167 29.5110 93.6551">
  <path d="M5324.5065 94.952386C5326.5086 80.395399 5325.0759 40.906612 5322.0303 26.705788C5320.0337 17.395703 5321.2518 15.816652 5326.8176 20.5C5330.4444 23.55174 5332.677 23.65208 5335.6115 20.895231C5336.8438 19.737609 5338.3197 19.079537 5338.8913 19.43285C5339.5501 19.839999 5339.924 26.744489 5339.9122 38.287619C5339.8969 53.308251 5340.2952 69.030627 5341.3845 96.402383C5341.5447 100.42788 5339.7331 100.64922 5336.0548 97.053573C5332.146 93.232591 5330.6895 93.222904 5328.0 97.0C5324.8158 101.47178 5323.6999 100.81769 5324.5065 94.952386Z M5338.5748 90.75C5337.6259 82.398901 5336.8146 61.175792 5336.6825 41.25C5336.6233 32.3125 5336.2498 25.0 5335.8525 25.0C5335.4552 25.0 5334.0305 25.418106 5332.6864 25.929124C5330.9045 26.606592 5329.6506 26.443538 5328.0566 25.327125C5326.8544 24.485008 5325.6095 24.057215 5325.2902 24.376475C5324.9709 24.695735 5325.3278 28.454134 5326.0831 32.728474C5327.0106 37.976748 5327.4636 49.022366 5327.4783 66.748586C5327.4902 81.185308 5327.5913 92.997808 5327.7029 92.998586C5327.8146 92.999364 5328.9951 92.503704 5330.3265 91.897119C5333.2592 90.560872 5336.5416 91.980222 5337.4997 94.998939C5338.7519 98.944321 5339.2722 96.887997 5338.5748 90.75Z"/>
</svg>
