<svg xmlns="http://www.w3.org/2000/svg"
     width="64.0" height="57.0"
     viewBox="7631.7352 49.5938 62.2648 55.4062">
  <path d="M 7683.75,83.15625 7683,82.5 7682.125,81 C 7678.5969,83.411514 7679.2759,83.96872 7684.8438,90.1875 7687.3759,93.015642 7687.2344,95.594947 7684.4688,96.65625 7682.5976,97.374275 7678.1217,93.416834 7673.8438,87.25 7671.3187,83.609935 7668,81.570813 7668,83.65625 7668,84.509943 7674.4179,92.525101 7678.875,97.25 7680.8206,99.3125 7682.8005,101 7683.2812,101 7684.7364,101 7690,95.243098 7690,93.65625 7690,92.840979 7688.4191,90.271915 7686.4688,87.9375 L 7682.9062,83.6875 7683.75,83.15625 z M 7678.8125,75.4375 7677.6562,73.46875 C 7675.9172,74.521453 7674.4909,74.915553 7672.0312,74.5 7668.5731,73.915755 7667.4893,73.075746 7664.5938,68.65625 7662.7339,65.817605 7660.9373,62.578163 7660.5938,61.4375 7659.4451,57.622324 7654.2757,53.59375 7650.5,53.59375 7644.9703,53.59375 7637.9302,61.407733 7636.5,69.125 7635.7352,73.251587 7637.8128,78.32236 7640.7188,79.4375 7643.407,80.469076 7662.3439,78.937714 7661.1875,77.78125 7660.0316,76.625396 7654.1784,76.499227 7647.875,77.5 7643.7406,78.156397 7643.0921,78.000857 7641.625,75.90625 7638.4234,71.335378 7640.7888,62.525077 7646.625,57.25 7648.7014,55.373253 7649.4881,55.187599 7651.3125,56.125 7654.8276,57.931118 7659,62.242508 7659,64.0625 7659,64.985427 7659.9,66.882826 7661,68.28125 7662.1,69.679673 7663,71.247845 7663,71.78125 7663,74.446182 7671.2554,78.061403 7675.5,77.25 7676.1767,77.120639 7677.418,76.408135 7678.8125,75.4375 z"/>
</svg>
