<svg xmlns="http://www.w3.org/2000/svg"
     width="48.0" height="64.0"
     viewBox="7989.0000 18.4321 68.4062 91.2991">
  <path d="M 8053.4062 65.78125 C 8052.5029 65.726927 8051.6861 65.339515 8050.9375 64.4375 C 8050.2265 63.5808 8047.7685 61.785211 8045.4688 60.4375 C 8041.4549 58.085294 8041.1342 58.052401 8037.0312 59.5 C 8034.6805 60.329411 8032.3558 61 8031.875 61 C 8031.3941 61 8031 58.08759 8031 54.53125 C 8031 46.616489 8033.1713 41.590342 8037.3125 39.875 C 8040.0597 38.73704 8040.4721 38.845928 8042.5938 41.3125 C 8043.8623 42.787362 8045.3315 44 8045.8438 44 C 8048.2816 44 8048.1465 32.128102 8045.6562 27.3125 C 8043.3071 22.76962 8041.2086 22.432084 8036.5312 25.90625 C 8034.3055 27.559387 8030.5253 30.138438 8028.125 31.625 L 8023.7812 34.3125 L 8020.625 30.75 C 8015.1689 24.526207 8008.8406 23.09635 8005 27.21875 C 8003.2037 29.146869 8003.0243 30.217559 8003.5938 35.46875 C 8004.6758 45.448571 8008.119 49 8016.6562 49 C 8019.9891 49 8020.0152 49.025341 8020 53.75 C 8019.9781 60.547542 8019.0693 61.588192 8015.0312 59.5 C 8009.5923 56.687409 8003.7625 54.932183 8001.875 55.53125 C 7997.9179 56.787189 7993 72.668178 7993 84.1875 C 7993 87.527457 7993.5424 93.124086 7994.1875 96.625 C 7995.2435 102.35613 7995.5842 103 7997.75 103 C 7999.8568 103 8000.1302 102.59666 7999.875 99.75 C 7999.5231 95.824842 8001.5489 83.468903 8003.75 76.25 C 8004.8483 72.647707 8005.8837 71 8007.0312 71 C 8009.334 71 8019 81.423871 8019 83.90625 C 8019 85.014749 8017.8978 87.532308 8016.5625 89.5 C 8013.4956 94.019334 8012.6389 97.897161 8013.9375 101.3125 C 8015.2523 104.77081 8017.7688 104.74735 8019.0938 101.25 C 8020.195 98.343286 8023.8043 94 8025.125 94 C 8025.5559 94 8027.0769 95.97792 8028.5 98.40625 C 8032.0941 104.53909 8033.6751 105.73114 8035.625 103.78125 C 8038.3382 101.06806 8037.6008 93.473113 8034.0625 87.78125 L 8030.9688 82.8125 L 8033.2188 78.28125 C 8034.4579 75.800377 8036.5502 72.917125 8037.875 71.875 C 8040.2834 69.98055 8040.2833 69.990538 8044.7188 73.625 C 8047.8221 76.167931 8050.3482 77.390326 8053.125 77.34375 L 8053.1875 75.3125 L 8047.7188 71.6875 C 8044.6593 69.656781 8041.5185 67.744425 8040.7188 67.4375 C 8038.7127 66.667733 8034.6875 70.562128 8031.5938 76.28125 C 8028.6378 81.745553 8028.3036 85.187757 8030.5625 87.0625 C 8033.085 89.155919 8035 93.617139 8035 97.4375 C 8035 99.389813 8034.64 101 8034.2188 101 C 8033.7975 101 8031.9878 98.75 8030.1875 96 C 8028.3872 93.25 8026.3897 91 8025.75 91 C 8023.8821 91 8018 97.214151 8018 99.1875 C 8018 100.17961 8017.55 101 8017 101 C 8014.1921 101 8017.999 88.510344 8021.2188 87.15625 C 8022.8957 86.450973 8021.8642 82.140072 8019.1562 78.40625 C 8015.7489 73.707804 8009.4362 68 8007.625 68 C 8004.0591 68 8000.2254 77.107823 7997.875 91.25 C 7996.1243 101.78349 7994.8106 98.945519 7995.3438 85.78125 C 7995.8093 74.289105 7997.3815 65.865326 7999.8125 61.75 C 8001.8926 58.228556 8005.266 58.160976 8012.1875 61.5 C 8015.0377 62.875 8017.9536 64 8018.6562 64 C 8020.8847 64 8022.0021 60.345481 8022.25 52.3125 C 8022.5097 43.897809 8022.7656 44.181737 8016.7812 45.59375 C 8015.2788 45.948231 8012.8589 45.91925 8011.4375 45.5625 C 8005.1212 43.977213 8004.1217 27 8010.3438 27 C 8011.4993 27 8015.9565 29.701802 8017 31.03125 C 8021.5189 36.7883 8022.07 37.211249 8024.2812 36.65625 C 8026.3282 36.142491 8034.1901 30.669606 8037.8125 27.25 C 8040.7819 24.446818 8043.8112 27.160363 8044.6562 33.40625 C 8045.2742 37.974475 8045.1794 38.288362 8043.4062 37.5625 C 8039.1631 35.825514 8037.9713 35.902283 8034.9375 38.0625 C 8030.3424 41.334519 8028.0575 47.131184 8028.0312 55.5625 C 8028.0038 64.389726 8028.9594 65.556829 8034.0938 62.9375 C 8039.6622 60.096674 8042.1261 60.489808 8047.25 65 C 8049.699 67.155686 8052.3882 68.867003 8053.3438 68.9375 L 8053.4062 65.78125 z "/>
</svg>
