<svg xmlns="http://www.w3.org/2000/svg"
     width="47.7" height="64.0"
     viewBox="6445.0000 42.0904 43.1592 57.8633">
  <path d="M 6451.6562 77.25 L 6451.5 78.5 L 6449 88 L 6449.1875 89.46875 C 6450.6116 89.325596 6452.4698 90.401969 6456.6875 93.09375 C 6461.1686 95.953644 6467.4375 95.873264 6470.5625 92.9375 C 6471.9049 91.676342 6473 90.071668 6473 89.375 C 6473 87.132575 6475.0733 86.768224 6477.125 88.625 C 6479.523 90.795087 6482.0269 89.649138 6483.4062 85.78125 C 6484.1592 83.670125 6483.6202 82.40975 6480.0312 77.65625 L 6475.7812 72.03125 L 6476.4688 61.25 C 6477.1171 51.147206 6477.024 50.365446 6475.0312 48.25 C 6473.0626 46.159964 6472.6988 46.090387 6470.0938 47.4375 C 6468.5488 48.236443 6466.5099 50.131245 6465.5312 51.625 C 6463.6996 54.420531 6463.6921 54.808521 6465.5938 76.90625 C 6466.2293 84.291744 6463.2136 85.792001 6455.9062 81.6875 L 6451.7812 79.34375 L 6451.6562 77.25 z M 6471.2188 49.40625 C 6471.7594 49.447719 6472.3265 49.656261 6472.9688 50 C 6474.8796 51.022718 6475.1262 51.749549 6474.625 55.34375 C 6474.3058 57.633422 6473.7544 62.670018 6473.4062 66.53125 C 6472.7813 73.461515 6472.8047 73.603867 6476.375 78.28125 C 6479.5956 82.500416 6480.9821 86 6479.4375 86 C 6479.1352 86 6477.5751 85.330652 6475.9688 84.5 C 6473.2065 83.07158 6472.9794 83.112229 6471.6875 85.25 C 6470.9362 86.493152 6469.584 88.7375 6468.6562 90.25 C 6467.0173 92.921759 6464.5528 93.589277 6461 92.3125 C 6457.4443 91.034664 6450 85.684439 6450 84.40625 C 6450 82.41446 6453.0014 82.682978 6456.5 85 C 6460.2326 87.472027 6463.111 87.526876 6466 85.1875 C 6468.1977 83.407907 6468.2386 83.172962 6467.2812 70.9375 C 6466.1316 56.244065 6467.4343 49.11597 6471.2188 49.40625 z "/>
</svg>
