<svg xmlns="http://www.w3.org/2000/svg"
     width="34.3" height="64.0"
     viewBox="3651.1250 43.5272 32.4742 60.6777">
  <path d="M 3655.75,49.625 3655.5938,52.28125 C 3659.8486,49.706682 3661.7143,50.02456 3665.1875,53.75 3667.5436,56.27716 3667.803,57.42606 3668.3438,68.5 3668.666,75.1 3669.3493,81.953108 3669.875,83.71875 3671.0758,87.751494 3675.7935,94 3677.625,94 3679.5992,94 3679.3607,93.345968 3675.9688,89.125 3673.5542,86.120315 3672.6716,83.586477 3671.5,76.4375 3670.6946,71.522855 3670.0408,64.50867 3670.0312,60.84375 3670.0138,54.181544 3670.0087,54.179666 3665.8125,51.09375 3661.478,47.906115 3659.2333,47.527185 3655.75,49.625 z M 3655.25,58.53125 3655.125,60.6875 C 3656.2268,60.269018 3657.1708,60 3657.75,60 3661.4904,60 3663,64.947203 3663,77.25 3663,87.542261 3662.7789,89.079818 3660.7188,92.125 3659.4575,93.989251 3658.0775,96.0625 3657.6562,96.75 3657.2326,97.441577 3657.3586,98 3657.9375,98 3658.5131,98 3660.2306,96.0875 3661.75,93.75 3664.3194,89.797014 3664.5109,88.661372 3664.7812,77.5 3665.1608,61.826774 3662.9297,56.732138 3655.25,58.53125 z M 3666.0625,92.1875 C 3665.0086,92.694128 3663.9649,94.601976 3662.1875,98.25 3661.235,100.20488 3664.0614,98.684872 3665.9062,96.25 3667.8486,93.686247 3668.1069,93.618521 3669.375,95.25 3670.123,96.2125 3671.0835,97 3671.5312,97 3671.9789,97 3671.2917,95.875 3670,94.5 3668.192,92.575463 3667.1164,91.680872 3666.0625,92.1875 z"/>
</svg>
