<svg xmlns="http://www.w3.org/2000/svg"
     width="57.9" height="64.0"
     viewBox="1194.0000 51.4097 49.9124 55.1337">
  <path d="M 1198 78.09375 L 1198.375 81.5 C 1199.674 82.088022 1201.7574 83.508214 1204 85.5 C 1212.8831 93.389462 1217.4674 91.250527 1223.0625 76.625 C 1225.0384 71.460202 1227.4833 67.131046 1229.7812 64.75 C 1236.5435 57.743225 1239.3963 61.335335 1234.5938 70.8125 C 1231.484 76.949554 1230.4634 85.007503 1232.0625 90.71875 C 1233.7934 96.900911 1232.1302 98.311405 1228.25 93.96875 L 1225.3438 90.6875 L 1221.4062 94.21875 C 1215.6889 99.350133 1213.632 99.702837 1208.875 96.40625 C 1206.6812 94.885901 1203.9812 92.366069 1202.875 90.8125 C 1201.6256 89.057963 1200.4704 88.320905 1199.0625 88.34375 L 1199.3438 90.9375 C 1199.7697 91.010605 1200 91.32058 1200 91.875 C 1200 93.211021 1206.1373 98.978232 1209.3438 100.65625 C 1212.9497 102.54331 1217.1201 101.23935 1221.6875 96.8125 C 1224.3989 94.184516 1225.1739 93.894118 1226.4688 94.96875 C 1227.3164 95.672143 1228 96.801188 1228 97.5 C 1228 99.036511 1230.5003 100.12564 1232.375 99.40625 C 1235.4165 98.23913 1236.2593 94.563634 1234.625 89.75 C 1232.7503 84.227974 1233.6345 77.011413 1236.8125 71.625 C 1239.0405 67.848924 1239.9124 62.301871 1238.625 60.21875 C 1235.6528 55.409657 1226.4986 63.963095 1220.6562 77 C 1214.9684 89.691901 1213.6039 90.238434 1205.0938 83.15625 C 1201.7523 80.375502 1198.6444 78.173326 1198 78.09375 z "/>
</svg>
