<svg xmlns="http://www.w3.org/2000/svg"
     width="34.5" height="64.0"
     viewBox="6940.3557 12.5408 26.1677 48.5021">
  <path d="M6951.5313 53.622212C6950.2235 52.314428 6948.6268 49.276928 6947.9831 46.872212C6947.3394 44.467495 6946.4049 41.718606 6945.9064 40.763569C6944.3557 37.792846 6944.8996 33.285925 6947.5338 27.278513C6951.9412 17.227146 6954.9841 16.540844 6958.7447 24.75C6962.3984 32.725982 6962.5234 44.295225 6959.0308 51.25C6956.3427 56.603039 6954.952 57.042921 6951.5313 53.622212Z M6957.551 48.532119C6960.0859 42.465277 6958.8247 26.759262 6955.5869 24.07209C6953.0426 21.960548 6950.159 24.040789 6948.9623 28.851092C6947.4425 34.959942 6947.5528 37.912624 6949.4358 41.523905C6950.2894 43.160757 6950.9905 45.480357 6950.9938 46.678571C6951.0002 48.921961 6953.3883 52.0 6955.1225 52.0C6955.6612 52.0 6956.7541 50.439453 6957.551 48.532119Z"/>
</svg>
