<svg xmlns="http://www.w3.org/2000/svg"
     width="64.0" height="57.3"
     viewBox="974.1687 14.5104 109.2559 97.7551">
  <path d="M 1070,19.5 C 1069.45,19.839919 1069,21.925804 1069,24.125 1069,26.539329 1067.9925,29.895614 1066.4688,32.625 1064.3475,36.4246 1064.2062,37.088105 1065.625,36.8125 1066.6199,36.619233 1068.0574,34.447198 1069.0938,31.5 1071.0411,25.962217 1071.6012,18.510397 1070,19.5 z M 1078.4688,19 C 1077.8993,18.651069 1077.1263,20.568155 1076.7188,25.0625 1076.0836,32.068242 1073.7788,35.998025 1067.5938,40.625 1064.7591,42.745571 1061.7542,46.733381 1058.125,53.125 1046.7636,73.134067 1040.2773,77.71419 1033.5625,70.46875 1032.3088,69.115994 1030.3675,68 1029.25,68 1024.0706,68 1013.4148,87.254109 1017.25,89.6875 1019.0955,90.858372 1024,98.690294 1024,100.46875 1024,102.59965 1022.2609,102.35989 1021.0312,100.0625 1017.6485,93.741595 1011.5377,93.09221 1006.4375,98.5 1004.6193,100.42787 1002.8823,101.62324 1002.5938,101.15625 1001.4489,99.303849 1004.2216,92.97745 1007.1875,90.65625 L 1010.3125,88.21875 1006.5,80.84375 C 1002.3978,72.885678 997.61468,65.512685 995.875,64.4375 992.73119,62.494517 987,74.646491 987,83.25 987,85.90808 987.72815,91.023394 988.625,94.59375 990.42551,101.76162 989.84395,103.76013 987.03125,100.03125 982.7819,94.397769 981.95821,76.069761 985.5,66.03125 987.17302,61.289391 990.66155,56 992.125,56 992.66773,56 995.76036,57.8 999,60 1002.2396,62.2 1005.3749,64 1005.9688,64 1006.5625,64 1007.4459,62.949408 1007.9375,61.65625 1008.9526,58.986529 1008.6915,39.347746 1007.625,38.28125 1007.2411,37.897381 1005.544,38.119987 1003.875,38.75 998.86241,40.642024 997.83109,39.683941 996.46875,31.96875 995.95746,29.073166 996.30547,27.95181 998.375,25.71875 1002.0854,21.715098 1004.3043,22.226839 1007.9688,27.9375 1009.7117,30.653508 1011.6608,33.064005 1012.3125,33.28125 1012.9643,33.498495 1017.0245,31.22494 1021.3438,28.25 1030.7386,21.779211 1033.9432,21.150286 1035.1562,25.5 1035.6164,27.15 1035.7107,29.997403 1035.375,31.8125 1034.7852,35.002064 1034.7004,35.04396 1033.3125,33.0625 1032.5227,31.934903 1030.8956,31 1029.6875,31 1026.7643,31 1017.8659,37.399207 1016.0938,40.78125 1014.4156,43.984285 1014.3688,59.956254 1016.0312,63.0625 1017.0932,65.046799 1017.2329,65.019424 1022.75,62.03125 1025.8406,60.357349 1028.8477,59.005782 1029.4375,59.03125 1030.0273,59.056717 1031.85,60.850935 1033.5,63 1035.15,65.149065 1036.9081,66.943283 1037.4062,66.96875 1041.0498,67.155052 1050.5768,55.22781 1054,46.21875 L 1056,41 1053.0938,38.4375 C 1051.5032,37.020219 1050.0174,34.546897 1049.7812,32.9375 1049.5449,31.328103 1049.5065,30 1049.6875,30 1049.8684,30 1051.5387,31.613826 1053.4062,33.59375 1055.8417,36.175901 1057.3401,37.031298 1058.7188,36.59375 1061.1445,35.82385 1063.6375,30.668619 1064.5625,24.5 1065.137,20.669153 1064.9865,19.846039 1063.875,20.21875 1063.1145,20.473755 1062.4753,21.316098 1062.4375,22.09375 1062.2243,26.472615 1060.646,32.04952 1059.3125,33.15625 1058.0224,34.226921 1057.3027,33.904608 1054.875,31.1875 1053.2869,29.410107 1052,27.285073 1052,26.46875 1052,25.652428 1051.3827,25 1050.625,25 1046.0678,25 1045.9616,34.264286 1050.4688,38.96875 1052.5745,41.166546 1052.981,42.315653 1052.4375,44.625 1051.3755,49.137248 1046.4826,57.152314 1042.4688,61 L 1038.8125,64.5 1035.0312,60.25 C 1032.9419,57.9125 1030.6835,56 1030.0312,56 1029.3789,56 1026.8326,57.197693 1024.3438,58.65625 1019.1032,61.727443 1018.1268,61.095275 1017.9062,54.5 1017.5344,43.384055 1018.563,39.881156 1023.1562,36.6875 1028.5509,32.936627 1031.1591,33.413609 1032.3125,38.3125 1032.9542,41.037602 1033.7006,42.006634 1034.875,41.78125 1036.9416,41.384634 1038.5495,29.553154 1037.2812,24.15625 1035.9719,18.584053 1032.726,18.706586 1023.2188,24.75 1018.9785,27.445364 1014.948,29.987068 1014.2812,30.375 1013.5202,30.817871 1012.0571,29.472185 1010.3125,26.78125 1008.7844,24.424136 1007.0551,22.151192 1006.5,21.71875 1004.5721,20.216978 999.01696,21.85939 996.46875,24.6875 994.26536,27.132926 994.00635,28.11941 994.5,32.28125 994.81242,34.915284 995.52022,38.229955 996.0625,39.65625 996.97092,42.045585 997.39979,42.205402 1001.4062,41.65625 L 1005.75,41.0625 1006.2188,45.3125 C 1006.4812,47.641286 1006.4765,52.07836 1006.2188,55.1875 1005.6791,61.695943 1005.1459,61.771819 998.40625,56.3125 996.1496,54.484553 993.75087,53 993.09375,53 992.43663,53 990.73741,54.2375 989.3125,55.75 980.19276,65.430337 978.16871,90.049776 985.5625,101.25 987.85643,104.72486 991.17033,106.16794 992.375,104.21875 992.64006,103.78987 992.00757,99.852362 990.96875,95.46875 988.04288,83.122216 988.66897,74.752672 992.9375,69.09375 L 994.65625,66.8125 1000.3125,76.34375 C 1003.435,81.576269 1006,86.1558 1006,86.53125 1006,86.9067 1004.9042,88.53049 1003.5625,90.125 1000.6375,93.601159 999.24696,101.08303 1000.875,104.65625 1002.5195,108.26546 1005.1066,107.21304 1006.75,102.28125 1009.0634,95.338861 1014.5707,95.227497 1019.2188,102 1021.6672,105.56754 1022.2063,105.86017 1024.4688,105 1025.2844,104.68989 1026.1975,104.58593 1027.0938,104.59375 L 1024.6875,93.28125 C 1023.3573,92.697603 1022.281,92.118095 1021.7812,91.53125 1018.2342,87.365704 1020.5978,77.546611 1026.4688,72.03125 L 1028.875,69.78125 1033.2812,73.375 C 1035.709,75.364333 1038.5503,77.003624 1039.5938,77 1044.5975,76.982619 1054.7586,65.748341 1060.7812,53.59375 1063.932,47.235195 1065.8892,44.680952 1069.8438,41.6875 1075.1113,37.699987 1078.707,31.809069 1079.0938,26.5 1079.4246,21.958693 1079.0382,19.348931 1078.4688,19 z"/>
</svg>
