<svg xmlns="http://www.w3.org/2000/svg"
     width="41.2" height="64.0"
     viewBox="8183.5000 35.1634 47.1483 73.2810">
  <path d="M 8191.0625 87.25 L 8191 87.5 L 8191 92.3125 C 8191.5412 92.360307 8192.2593 92.64809 8194.0625 93.40625 C 8197.9927 95.058804 8201.0873 94.071079 8205.0938 89.90625 C 8208.7784 86.076073 8209.3838 80.599559 8207.4375 68.1875 C 8205.5464 56.128023 8205.9065 52.257928 8209.4688 46.875 C 8214.572 39.163436 8218.6331 42.918961 8217.5938 54.40625 C 8215.2855 79.916807 8215.5756 83.121817 8220.625 90.5625 C 8224.1778 95.797913 8223.3848 98.534429 8219.5625 94.25 C 8217.9678 92.4625 8215.9325 91 8215.0312 91 C 8214.13 91 8211.8329 92.621825 8209.9375 94.59375 C 8208.0421 96.565676 8205.2976 98.815676 8203.8125 99.59375 C 8200.8499 101.14579 8200.9329 101.11692 8196.2188 100 C 8192.4551 99.108284 8189.9982 97.059962 8189.7812 94.9375 L 8187.5 99.5 L 8187.5312 99.625 C 8188.2995 99.325276 8188.9864 99.562098 8190.1875 100.40625 C 8191.4675 101.30584 8194.2459 102.51825 8196.375 103.09375 C 8201.3718 104.4444 8205.0976 103.04707 8210.75 97.65625 L 8215 93.59375 L 8218.5312 97.03125 C 8221.4036 99.815358 8222.3846 100.25451 8223.7812 99.375 C 8226.6483 97.56949 8226.3203 95.301015 8222.0625 87.03125 C 8217.4828 78.136351 8217.3387 76.744946 8219.5938 63.75 C 8222.084 49.40082 8220.2579 40 8214.9688 40 C 8214.024 40 8211.4464 41.98959 8209.2188 44.40625 C 8204.1678 49.885937 8203.2661 54.697657 8205.0312 66.8125 C 8207.2632 82.130991 8206.5107 86.883852 8201.4688 90 C 8197.7015 92.328275 8195.5615 92.08083 8192.1875 88.9375 C 8191.685 88.469371 8191.3924 87.845776 8191.0625 87.25 z "/>
</svg>
