<svg xmlns="http://www.w3.org/2000/svg"
     width="43.4" height="64.0"
     viewBox="603.0938 18.3157 60.8721 89.6843">
  <path d="M 607.09375,86.71875 607.53125,90.625 C 608.10245,90.106364 609.51201,90 613.125,90 621.10964,90 624.36848,87.866663 629.03125,79.625 634.1577,70.563776 638.66293,54 636,54 635.45,54 635,54.821753 635,55.8125 635,60.203748 629.94291,74.375956 626.5625,79.46875 621.52243,87.061936 619.80343,88.040479 612.75,87.3125 L 607.09375,86.71875 z M 607.875,93.46875 608.46875,98.6875 C 609.02672,98.369805 609.78258,98.225746 611.03125,98.5 617.38679,99.895909 624.16013,99.245042 627.28125,96.9375 L 630.34375,94.6875 634.28125,99.34375 C 636.94313,102.49735 638.97149,104 640.59375,104 642.80635,104 643,103.61562 643,98.9375 643,93.606051 642.00095,90.883978 638.78125,87.34375 636.95891,85.340001 636.94911,85.005301 638.40625,82.1875 639.26536,80.526173 640.90149,76.707068 642.03125,73.6875 L 644.0625,68.1875 648.78125,68.34375 653.5,68.5 653.8125,64.28125 C 654.15192,59.598632 650.35041,51.703611 647.21875,50.59375 646.27358,50.258779 645.01376,49.752151 644.4375,49.46875 643.79589,49.153212 643.36123,50.606422 643.3125,53.21875 643.19378,59.583331 642.27082,65.617229 641.0625,67.875 640.47209,68.978201 640,70.80281 640,71.9375 640,75.426384 634.30161,86.249042 629.75,91.40625 625.44843,96.280136 625.41042,96.278805 619.46875,96.15625 612.69073,96.016445 609.20138,95.186637 607.875,93.46875 z M 646.9375,54.5 C 648.91341,54.5 652.28218,61.50434 651.5,63.96875 649.94318,68.873874 644.79907,63.883308 645.28125,57.9375 645.45192,55.833006 646.09128,54.5 646.9375,54.5 z M 635.0625,88.15625 C 635.65762,88.092261 636.42422,88.737877 637.8125,90.03125 639.49582,91.599502 640,93.215489 640,97.03125 640,99.759825 639.86868,102 639.71875,102 639.56883,102 638.58836,100.40043 637.53125,98.4375 636.47414,96.474566 634.85061,94.442906 633.90625,93.9375 632.46539,93.166378 632.36895,92.63277 633.34375,90.53125 634.04805,89.012877 634.46738,88.220239 635.0625,88.15625 z M 659.65625,22.78125 C 659.34661,22.315736 658.22925,23.283104 656.5,26 654.92926,28.467835 652.36082,32.474455 650.8125,34.90625 649.26418,37.338044 648,39.700544 648,40.15625 648,43.313551 653.80368,36.341564 657.9375,28.1875 659.46707,25.170388 659.96589,23.246764 659.65625,22.78125 z M 638.15625,23 C 637.57664,23 636.53001,24.091105 635.8125,25.40625 635.09498,26.721396 632.5875,30.883154 630.25,34.6875 627.9125,38.491845 626,41.931992 626,42.3125 626,44.348786 628.15926,42.394921 631.0625,37.75 632.86729,34.8625 635.13197,31.6 636.09375,30.5 638.25088,28.032835 639.63577,23 638.15625,23 z"/>
</svg>
