<svg xmlns="http://www.w3.org/2000/svg"
     width="30.0" height="64.0"
     viewBox="7905.0000 18.4281 39.1983 83.7204">
  <path d="M 7912.625 82.5 L 7912.5 83 L 7911.4688 86.40625 C 7912.0683 86.320694 7912.646 86.276527 7913.9688 86.5 C 7917.2302 87.051032 7918.0988 86.744846 7920.7812 84.0625 C 7925.6229 79.220764 7926.7535 72.318557 7924.6562 60.21875 C 7920.9385 38.770556 7923.5324 26 7931.625 26 C 7933.1661 26 7936.0587 31.63137 7935.4375 33.4375 C 7934.99 34.738788 7934.2483 40.648748 7933.0312 53 C 7931.8715 64.769131 7932.5684 70.57896 7935.625 74.6875 C 7938.3277 78.320227 7938.5178 79.732676 7936.5625 82.3125 C 7935.262 84.028346 7935.0249 84.052047 7932.6562 82.5 C 7930.1667 80.868786 7930.091 80.893158 7927.6562 84.75 C 7926.2993 86.899646 7923.7746 89.876846 7922.0312 91.34375 C 7918.2719 94.507029 7913.7897 94.588982 7909.8125 91.8125 L 7909 94.5 L 7909.0312 94.6875 C 7909.5185 94.461508 7909.9555 94.549307 7910.3438 94.9375 C 7913.5548 98.148472 7923.8714 94.325847 7927.9062 88.4375 C 7930.384 84.821329 7931.8404 84.246618 7933.75 86.15625 C 7935.4133 87.819572 7937.3717 85.901894 7938.9688 81.0625 C 7940.1983 77.337149 7940.1179 76.945122 7937.7188 74.09375 C 7934.2383 69.957495 7933.629 64.982431 7935.1562 53.375 C 7935.8704 47.947823 7936.4579 39.513822 7936.4688 34.65625 C 7936.4853 27.198623 7936.2203 25.611289 7934.6562 24.46875 C 7931.8628 22.428077 7926.5611 25.348321 7923.4688 30.625 C 7921.3863 34.178537 7921 36.155069 7921 42.875 C 7921 47.278605 7921.6543 54.034802 7922.4688 57.90625 C 7924.6228 68.145973 7924.5444 73.761834 7922.1562 79.21875 C 7920.6571 82.64432 7919.3807 84.113893 7917.4688 84.59375 C 7915.0051 85.212109 7913.5292 84.624756 7912.625 82.5 z "/>
</svg>
