<svg xmlns="http://www.w3.org/2000/svg"
     width="35.8" height="64.0"
     viewBox="2663.5312 16.0000 47.5581 85.0716">
  <path d="M 2668.4375 76.875 L 2667.5312 90.875 L 2671.625 92.84375 C 2680.3272 97.07159 2687.1026 94.889406 2692.6875 86.09375 C 2694.6458 83.009717 2696.4157 80.323745 2696.625 80.09375 C 2696.8343 79.863754 2698.1005 80.253172 2699.4375 80.96875 C 2702.7761 82.755463 2704.5765 81.782078 2706 77.46875 C 2707.0893 74.168141 2706.9547 73.352351 2704.6875 69.15625 C 2701.1285 62.56944 2700.4069 53.741565 2702.5 42.5 C 2705.9828 23.794418 2705.6256 20 2700.4062 20 C 2697.1617 20 2690.4964 26.648973 2688.875 31.5 C 2687.9471 34.276343 2687.5231 41.465329 2687.5 55 C 2687.4708 72.137564 2687.2459 74.924027 2685.5938 78 C 2684.5596 79.925 2683.2357 81.845922 2682.625 82.25 C 2680.5062 83.651809 2676.8227 82.989014 2672.4688 80.4375 C 2670.1158 79.058576 2669.0698 78.186865 2668.4375 76.875 z M 2699.9688 22.5625 C 2700.6272 22.450114 2701.141 22.48479 2701.4062 22.75 C 2702.5095 23.853175 2701.9723 30.506963 2700 40 C 2696.9479 54.690576 2697.3625 60.57471 2702.1875 70.65625 C 2704.1027 74.657966 2703.9911 79 2701.9688 79 C 2701.4773 79 2700.1648 78.026951 2699.0625 76.84375 C 2697.4227 75.083662 2696.7864 74.921689 2695.5625 75.9375 C 2694.7397 76.620369 2693.7809 78.131885 2693.4062 79.3125 C 2692.1715 83.202811 2687.6973 89.102995 2684.875 90.5625 C 2681.5902 92.26113 2676.8396 92.23636 2672 90.5 C 2668.9824 89.417327 2668.4551 88.750367 2668.1875 85.625 C 2668.0168 83.631276 2668.1386 82 2668.4688 82 C 2668.7989 82 2670.947 82.934767 2673.2188 84.09375 C 2678.8429 86.962973 2683.8588 85.572241 2687.1875 80.21875 C 2689.4287 76.614071 2689.4904 75.865861 2689.2188 57.78125 C 2688.9297 38.532645 2689.8126 32.458078 2693.75 26.3125 C 2694.8151 24.649926 2697.9934 22.899657 2699.9688 22.5625 z "/>
</svg>
