<svg xmlns="http://www.w3.org/2000/svg"
     width="22.4" height="64.0"
     viewBox="316.8443 13.2038 31.6292 90.3900">
  <path d="M 336.09375,18 C 332.45554,18 329.80066,21.039909 326.46875,29 323.91809,35.093638 323.79299,36.031396 324.5625,44 325.74359,56.230508 325.40376,65.074282 323.59375,69.40625 322.72598,71.483122 321.74444,77.079494 321.40625,81.84375 320.84429,89.760507 320.99785,90.747481 323,93.28125 324.20488,94.806057 326.83085,96.905365 328.84375,97.96875 330.60714,98.900322 332.213,99.364709 333.8125,99.59375 L 333.84375,97.0625 C 333.06413,96.858222 332.3354,96.465052 331.625,95.90625 330.28217,94.849974 328.71307,94 328.125,94 327.53693,94 326.29194,92.868179 325.375,91.46875 324.00484,89.377624 323.81797,87.434027 324.34375,80.59375 324.69562,76.016078 325.70735,70.527706 326.59375,68.40625 327.89745,65.286069 328.08964,62.641012 327.53125,54.53125 326.44932,38.817975 326.59612,35.886153 328.84375,29.59375 332.33618,19.816435 336.50372,17.20376 339.46875,22.9375 341.37372,26.621301 341.38854,29.054033 339.46875,36 338.63267,39.025 337.53018,46.45 337.03125,52.5 336.2694,61.738021 335.54627,64.817166 332.53125,71.71875 328.38508,81.209627 327.75218,86.624146 330.53125,88.65625 331.66582,89.485865 332.8026,89.837321 333.9375,89.96875 L 333.96875,87.78125 C 330.31496,86.711732 330.94868,79.980117 335.8125,71 339.04511,65.03161 339.37477,63.600353 339.9375,53.5 340.27456,47.45 340.89068,41.972483 341.28125,41.34375 341.67183,40.715018 342.59453,37.292976 343.34375,33.71875 344.43068,28.533444 344.47351,26.627809 343.5,24.3125 341.73552,20.11604 339.23853,18 336.09375,18 z"/>
</svg>
