<svg xmlns="http://www.w3.org/2000/svg"
     width="31.9" height="64.0"
     viewBox="950.0000 15.0000 46.3447 93.0599">
  <path d="M 964.0625,23.5 C 966.29242,23.627781 968.18429,25.410912 970.03125,29.03125 972.69255,34.247835 974.8947,34.140674 980.78125,28.5 985.44035,24.035515 987,23.138697 987,24.9375 987,27.36881 984.79809,30.924224 980.59375,35.28125 977.32397,38.66977 976,40.85508 976,42.875 976,46.457151 970.46258,57.306373 966.8125,60.875 L 964.03125,63.59375 966.15625,67.84375 C 968.93822,73.466605 968.81433,84.727457 965.90625,92.5 964.7826,95.50321 963.4519,98.213337 962.9375,98.53125 961.73934,99.271756 961.75672,98.213653 963.0625,92.125 964.44234,85.691054 962.94379,74.644665 959.875,68.5 L 957.59375,63.90625 960.125,61.59375 C 963.81785,58.169547 968.17909,48.697842 967.625,45.3125 967.37177,43.765281 967.13898,41.954626 967.09375,41.28125 967.04852,40.607874 965.69164,39.388803 964.09375,38.5625 959.71653,36.298953 958,34.150668 958,31 958,26.818158 958.96188,24.973779 961.6875,23.9375 962.52029,23.620874 963.31919,23.457406 964.0625,23.5 z M 988.9375,19 C 988.46468,19 986.5648,20.4625 984.71875,22.25 974.9392,31.719377 975.25402,31.511574 973.03125,29.5 971.92177,28.495936 971,27.223058 971,26.65625 971,24.591471 966.59877,21 964.0625,21 960.04941,21 957.36278,23.490592 956.125,28.40625 954.71053,34.023602 955.73785,36.53064 961.0625,40.25 964.0883,42.363575 965,43.648144 965,45.875 965,50.356411 962.32662,55.677076 957.96875,59.90625 955.78159,62.028813 954,64.061441 954,64.4375 954,64.813559 955.05019,66.561697 956.34375,68.3125 958.67062,71.461886 960.53916,77.287963 961.3125,83.90625 961.78706,87.967595 960.45144,94.226253 958.15625,98.78125 956.72665,101.61839 956.69153,102.1987 957.9375,102.96875 959.70305,104.05992 961.78437,103.02959 964.8125,99.53125 970.29734,93.19474 972.39994,80.050066 969.5625,69.9375 L 967.875,63.9375 970.5,60.8125 C 974.03506,56.611327 977.6662,49.287304 979.125,43.375 979.78624,40.695094 981.59157,37.026553 983.15625,35.21875 988.94109,28.535025 992.34475,19 988.9375,19 z"/>
</svg>
