<svg xmlns="http://www.w3.org/2000/svg"
     width="56.3" height="64.0"
     viewBox="487.1490 21.1463 76.6816 87.1146">
  <path d="M 517.1875,28.15625 C 518.12488,28.151754 519.27584,28.212277 520.78125,28.3125 528.39493,28.819379 532.91979,31.977585 538.78125,40.8125 L 542.5625,46.5 548.9375,46.53125 C 554.54688,46.560884 555.43967,46.825162 556.3125,48.78125 556.98589,50.290376 556.94862,52.209965 556.1875,54.75 553.19205,64.746432 544.31017,73.049996 545.6875,64.5625 546.97795,56.610427 543.50976,53.460361 539.28125,58.75 538.07216,60.2625 536.16658,62.625 535.0625,64 L 533.0625,66.5 533.03125,62.28125 C 533.00635,59.122931 533.79454,56.944338 536.15625,53.59375 539.18822,49.292264 539.23592,49.023445 537.625,46.8125 536.70269,45.546662 534.6479,42.46892 533.03125,39.96875 530.03446,35.334191 524.85926,32 520.65625,32 517.84896,32 512.96766,37.015798 510,42.9375 508.14926,46.63048 507.8583,48.493653 508.28125,53.9375 508.98316,62.971619 511.69186,68.244178 519.34375,75.40625 526.44283,82.050907 527.92178,85.347464 525.96875,90.0625 524.05177,94.690509 519.17098,101 517.5,101 515.85836,101 515.36611,96.514355 516.90625,95.5625 517.40839,95.252158 518.1314,93.212951 518.5,91.03125 519.1155,87.388161 518.83128,86.649052 514.9375,82.03125 512.60566,79.265833 510.19516,77.014243 509.59375,77.03125 507.92608,77.078408 502,85.41718 502,87.71875 502,88.835081 502.71027,90.323963 503.5625,91.03125 504.60365,91.895329 505.01374,93.650177 504.8125,96.34375 504.64777,98.548561 503.9938,100.51558 503.375,100.71875 501.94664,101.18775 495,90.820135 495,88.21875 495,87.146303 496.79855,83.983653 499,81.21875 503.27977,75.843583 503.6708,74.054537 502.125,66.96875 500.67456,60.320053 499.95589,47.84733 501.0625,48.53125 501.57457,48.847727 501.99484,48.082459 502,46.8125 502.01253,43.731115 506.96708,35.252634 511.125,31.1875 513.52397,28.842058 514.37535,28.169738 517.1875,28.15625 z M 516.53125,25.3125 C 515.29758,25.478742 514.40289,26.048965 512.9375,27.15625 511.22593,28.449547 508.52413,30.822864 506.9375,32.4375 504.11635,35.308453 504.02033,35.331342 502.03125,33.53125 500.428,32.080325 500,32.009356 500,33.15625 500,33.956494 500.52266,35.116405 501.15625,35.75 502.02557,36.619321 501.87937,38.250833 500.5625,42.4375 498.7263,48.275248 497.75062,49.13111 496.125,46.25 495.30774,44.801567 494.89864,44.720329 493.8125,45.8125 492.72849,46.902531 492.95596,47.522086 495.09375,49.375 497.16228,51.16788 497.79559,52.867017 498.3125,57.8125 498.80457,62.520362 498.66498,64 497.6875,64 496.98093,64 495.89333,63.487078 495.28125,62.875 494.66918,62.262923 493.65588,62.082708 493.03125,62.46875 491.31206,63.531268 493.76094,66 496.53125,66 498.18922,66 499.10784,66.865927 499.90625,69.15625 501.50155,73.732516 501.40163,74.1211 496.96875,80.0625 491.27023,87.700249 491.14895,88.849484 495.5625,96 497.63329,99.354942 500.0374,102.49181 500.90625,103 503.06194,104.26088 504.394,104.231 505.8125,102.8125 507.45123,101.17377 507.30441,93.981457 505.5625,89.8125 504.21026,86.576127 504.27011,86.213841 506.6875,83.125 L 509.25,79.875 513.09375,83.84375 516.9375,87.84375 514.875,93.9375 C 512.5838,100.72211 513.23568,103 517.5625,103 522.22937,103 530.04631,89.350448 528.625,83.6875 528.28268,82.323603 525.04988,78.341248 521.4375,74.84375 513.59856,67.254089 511.11961,62.631301 510.3125,54.1875 509.79644,48.788668 510.03607,47.272003 512,43.6875 516.6542,35.192836 519.80196,33.453598 525.3125,36.3125 528.19159,37.806188 535,46.309871 535,48.40625 535,49.17035 533.86837,51.76261 532.5,54.15625 529.69386,59.064908 529.13603,66.449515 531.34375,69.46875 533.28686,72.126102 535.41416,70.836388 537,66.03125 538.2038,62.383713 540.38368,60 542.53125,60 543.29425,60 542.62706,66.291221 541.46875,69.90625 540.72583,72.224837 540.81679,72.285203 544.5,71.6875 552.18115,70.441021 559.83052,58.498409 558.65625,49.59375 557.99724,44.596312 556.73386,43.858239 549.96875,44.59375 542.95109,45.356718 540.96585,43.731804 542.8125,38.625 544.4926,33.978773 544.2497,33.123016 542.03125,36 540.12162,38.476493 540.07872,38.481194 538.53125,36.5 537.59945,35.30703 537.17817,33.390334 537.46875,31.75 537.73668,30.2375 537.505,29 536.96875,29 536.4325,29 536,29.45 536,30 536,31.56655 534.17796,31.187841 531.21875,29 529.72588,27.896271 525.69924,26.508317 522.28125,25.90625 519.35486,25.390776 517.76492,25.146258 516.53125,25.3125 z"/>
</svg>
