<svg xmlns="http://www.w3.org/2000/svg"
     width="35.9" height="64.0"
     viewBox="4171.4040 17.0000 48.0709 85.5976">
  <path d="M 4212.7282,53.315358 C 4213.1342,52.097255 4207.0967,46 4205.4845,46 4203.7851,46 4199.3044,51.203933 4200.6016,51.671058 4201.2075,51.889246 4203.2052,53.175852 4205.0409,54.530184 4207.9561,56.680944 4208.6324,56.824033 4210.3845,55.66072 4211.4877,54.928184 4212.5424,53.872771 4212.7282,53.315358 z M 4192.9004,96.567064 C 4192.6008,96.267476 4192.674,93.654827 4193.063,90.761179 4193.5988,86.775492 4193.3133,84.175012 4191.8851,80.034659 4189.6214,73.471812 4189.3669,63.770335 4191.4138,62.071538 4192.1914,61.426194 4193.7836,58.864482 4194.9519,56.378845 L 4197.0763,51.859503 4195.0381,48.561718 C 4191.4343,42.730527 4192.8479,21 4196.8311,21 4197.3444,21 4197.1621,22.6875 4196.4261,24.75 4193.8303,32.02358 4195.0948,48 4198.2662,48 4198.786,48 4200.5483,46.875 4202.1824,45.5 4203.8165,44.125 4205.7416,43 4206.4604,43 4207.1792,43 4209.4168,44.825799 4211.4328,47.05733 4215.3027,51.340839 4215.4749,53.551022 4212.2267,57.25 4210.1371,59.629616 4208.2807,59.451467 4204.4111,56.5 4202.6084,55.125 4200.7558,54 4200.2941,54 4199.8325,54 4198.5873,55.6875 4197.5269,57.75 4196.4666,59.8125 4194.9709,62.258413 4194.203,63.185362 4192.5643,65.163768 4192.4125,73.324641 4193.9398,77.341665 4195.8084,82.256404 4196.3439,93.282731 4194.8123,95.305885 4194.0603,96.299122 4193.2,96.866652 4192.9004,96.567064 z M 4188.1733,49.25 C 4184.8643,40.740398 4184.1755,32.189804 4186.3064,26.075109 4186.9629,24.191419 4188.1062,22.451853 4188.8471,22.209407 4189.9103,21.86151 4189.963,22.200686 4189.0971,23.818557 4186.7689,28.168892 4188.0084,41.879301 4191.4868,50.25 4191.9886,51.4577 4191.7536,52 4190.7283,52 4189.9112,52 4188.7614,50.7625 4188.1733,49.25 z M 4184.5736,95.75 C 4184.3182,94.5125 4183.8169,91.261695 4183.4597,88.52599 4183.1025,85.790284 4181.728,81.518865 4180.4051,79.033947 4177.4796,73.538398 4177.4133,71.076918 4180,64 4182.5591,56.998573 4182.5256,56.208445 4179.3786,49.328216 4175.9873,41.914229 4175.404,28.125193 4178.2939,23.68964 4179.2806,22.175286 4180.5131,21.199075 4181.0328,21.520282 4181.5796,21.858208 4181.3234,23.102967 4180.4249,24.474348 4179.1129,26.476669 4179.0253,28.214098 4179.8607,35.6722 4180.4045,40.52749 4181.7833,46.674807 4182.9247,49.332905 4185.5323,55.405493 4185.5183,56.125936 4182.626,64.629466 L 4180.2521,71.609236 4183.0926,77.866887 C 4185.6998,83.610322 4188.3364,96.330293 4187.163,97.503709 4186.0691,98.597578 4185.0139,97.882939 4184.5736,95.75 z"/>
</svg>
