<svg xmlns="http://www.w3.org/2000/svg"
     width="38.3" height="64.0"
     viewBox="5039.1272 11.1252 54.4538 90.8824">
  <path d="M 5043.5 76.5625 L 5044 87 L 5048.5 93.5 L 5048.7188 95.03125 C 5049.8671 95.063252 5051.5675 95.364862 5053.75 96.0625 C 5056.9161 97.074527 5060.85 97.909978 5062.5 97.9375 C 5066.7021 98.00759 5071.5463 94.748559 5073.9062 90.28125 C 5077.6982 83.102694 5077.6233 83.163772 5080.9062 86.75 C 5084.1894 90.336618 5086.1272 90.242173 5087.875 86.40625 C 5089.581 82.661836 5089.2475 79.745725 5086.5 73.84375 C 5083.4948 67.388273 5083.1257 56.064173 5085.5 43.65625 C 5086.3249 39.345367 5087 32.600988 5087 28.65625 C 5087 22.36102 5086.6987 21.154762 5084.4688 18.75 C 5081.1077 15.125211 5079.7565 15.277894 5076.0625 19.75 C 5071.4192 25.371527 5070.7017 29.435347 5070.5 52.0625 L 5070.3125 72.625 L 5067.4062 78.0625 C 5065.0686 82.423225 5063.7777 83.739033 5060.7812 84.71875 C 5057.4207 85.817552 5056.5761 85.68849 5052.2812 83.46875 C 5046.8977 80.686352 5044.4358 78.870406 5043.5 76.5625 z M 5079.875 18.5 L 5082.0938 20.6875 C 5083.962 22.529226 5084.3308 24.028691 5084.4062 30.1875 C 5084.4556 34.209703 5083.8243 40.65 5083 44.5 C 5082.1756 48.35 5081.5 56.45 5081.5 62.5 C 5081.5 72.306112 5081.7442 73.84424 5083.75 76.65625 C 5086.1179 79.975847 5086.7075 84.43732 5084.9375 85.53125 C 5084.3612 85.887418 5082.7362 85.017458 5081.3125 83.59375 C 5079.8888 82.170041 5078.3301 81 5077.8438 81 C 5077.3574 81 5075.495 83.128184 5073.7188 85.71875 C 5071.9425 88.309316 5069.4937 91.459316 5068.2812 92.71875 C 5064.2153 96.94202 5053.058 94.888402 5046.25 88.6875 C 5044.1233 86.750423 5043.1272 82.973937 5044.75 83 C 5045.1625 83.006625 5047.525 84.173601 5050 85.59375 C 5053.5272 87.617656 5055.4181 88.091749 5058.7812 87.71875 C 5064.0655 87.132661 5065.8845 85.551302 5069.5312 78.34375 C 5072.378 72.717134 5072.3835 72.626334 5072.5312 52.09375 C 5072.6887 30.210332 5073.3944 25.968579 5077.5 21.25 L 5079.875 18.5 z "/>
</svg>
