<svg xmlns="http://www.w3.org/2000/svg"
     width="39.5" height="64.0"
     viewBox="6256.9884 14.9673 54.2507 87.8301">
  <path d="M 6297.2188 60.34375 C 6296.5423 58.709054 6296.0032 55.916779 6295.4375 50.9375 C 6294.7725 45.084983 6294.9243 44.699832 6301.0938 35.40625 C 6305.927 28.125483 6307.2391 19 6303.4375 19 C 6300.9609 19 6294.5517 23.049763 6291.3125 26.65625 C 6288.3205 29.98759 6286 30.437845 6286 27.6875 C 6286 27.022633 6284.8546 24.772914 6283.4375 22.6875 C 6281.6043 19.989736 6280.2407 18.967272 6278.75 19.1875 C 6274.154 19.866483 6274.0247 30.796748 6278.5312 37.4375 C 6280.8224 40.813833 6280.8941 41.285569 6279.6875 46 C 6277.7449 53.59089 6277.0675 53.784599 6270.6562 48.5625 C 6267.5688 46.047729 6264.6232 44 6264.125 44 C 6262.8523 44 6261.8493 48.515774 6262.4688 51.5 C 6262.7543 52.875 6263.2171 55.103837 6263.5 56.46875 C 6264.0467 59.105954 6269.5592 66 6271.125 66 C 6271.6374 66 6273.1987 66.742144 6274.5938 67.65625 L 6277.1562 69.3125 L 6273.1875 72.90625 C 6265.3254 80.050313 6260.9884 88.20607 6262.5 92.96875 C 6263.5182 96.177036 6266.6137 95.353895 6270.1875 90.90625 C 6273.3179 87.010407 6277.5953 84 6280 84 C 6281.145 84 6284.5495 90.857799 6284.1562 92.375 C 6284.0327 92.851488 6284.6097 94.313988 6285.4688 95.625 C 6287.0962 98.108903 6290.3937 98.79736 6291.5625 96.90625 C 6291.631 96.795342 6291.9542 96.802623 6292.0938 96.71875 L 6292 95.5 L 6293.4375 92.34375 C 6293.3166 92.23312 6293 92.128833 6293 92.03125 C 6293 91.258244 6293.7567 90.301799 6294.75 89.5 L 6296.875 84.78125 C 6296.0713 84.22588 6296.1305 82.247816 6296.5938 75.25 L 6297.25 65.5 L 6297.75 65.03125 L 6297 64 L 6297.2188 60.34375 z M 6301.6562 21.4375 C 6302.1361 21.444896 6302.3624 21.78443 6302.625 22.46875 C 6303.5447 24.865496 6302.1918 28.787363 6298.4375 34.65625 C 6296.5407 37.621493 6295 40.456759 6295 40.96875 C 6295 41.480741 6294.3193 42.305263 6293.4688 42.78125 C 6292.2141 43.483376 6292.0959 44.390258 6292.8438 47.71875 C 6294.2985 54.193163 6293.5255 84.683583 6291.7812 89.9375 C 6290.2235 94.62936 6288 96.550855 6288 93.1875 C 6288 92.093642 6287.1241 89.458225 6286.0625 87.34375 C 6279.8925 75.054935 6277.9943 57.444443 6281.7188 47 L 6283.6875 41.5 L 6281.4375 37 C 6278.7655 31.630566 6277.3359 22.636385 6279.25 23.25 C 6280.7297 23.724363 6283.6872 29.389497 6284.4688 33.25 C 6285.1531 36.630066 6287.2949 36.8186 6288.75 33.625 C 6290.3763 30.05547 6295.9123 24.083786 6299.1562 22.40625 C 6300.4337 21.745667 6301.1764 21.430104 6301.6562 21.4375 z M 6265 47.84375 L 6268.75 50.65625 C 6270.8147 52.214966 6273.4022 53.987735 6274.5 54.59375 C 6275.9133 55.373876 6276.5901 56.966834 6276.8125 60 C 6277.2179 65.52853 6276.1997 66.420936 6272.2188 64 C 6267.9327 61.393566 6265.0046 56.37892 6265 51.65625 L 6265 47.84375 z M 6276.5312 73.25 C 6277.4985 73.419686 6278.2717 74.363294 6278.875 76.09375 C 6279.4892 77.855662 6280 79.655223 6280 80.09375 C 6280 80.532277 6277.482 82.552218 6274.4062 84.59375 C 6271.3305 86.635281 6268.5957 88.918381 6268.3125 89.65625 C 6268.0294 90.394118 6267.1161 91 6266.2812 91 C 6263.7938 91 6265.5289 85.20435 6269.875 79 C 6272.7767 74.857639 6274.9192 72.967191 6276.5312 73.25 z "/>
</svg>
