<svg xmlns="http://www.w3.org/2000/svg"
     width="24.9" height="64.0"
     viewBox="5092.7597 12.0000 35.4575 91.0000">
  <path d="M 5120.5 80.5 C 5120.2534 78.563299 5120.9767 75.10425 5122.5 67 C 5124.2172 57.864093 5123.8889 40.111555 5121.875 32.59375 C 5120.1526 26.164173 5112.9638 16 5110.125 16 C 5109.0346 16 5106.8979 18.64566 5104.3125 23.25 C 5098.2632 34.022825 5098.2535 34.741903 5103.5312 40.5625 C 5105.9897 43.273656 5107.9976 45.787675 5108 46.125 C 5108.0024 46.462324 5105.75 49.774649 5103 53.5 C 5100.25 57.225351 5097.9947 60.987676 5098 61.875 C 5098.0053 62.762325 5099.57 65.455216 5101.4688 67.84375 C 5106.4732 74.139114 5106.6608 75.468617 5103.0938 79.53125 C 5099.0515 84.135187 5096.7597 88.713308 5097.4375 90.8125 C 5098.2544 93.342643 5103.8718 99 5105.5625 99 C 5106.3719 99 5109.0332 97.151318 5111.4688 94.90625 L 5115.9062 90.84375 L 5116.0312 90.9375 L 5116 90.5 L 5117.3125 87.59375 C 5117.2083 87.361238 5117 87.108713 5117 86.90625 C 5117 85.654609 5117.4829 85.073984 5118.4375 85.125 L 5120.5 80.5 z M 5112.1875 23 C 5113.9957 23.001557 5117.4861 30.030834 5119.0938 36.875 C 5120.9838 44.921064 5120.9329 60.719304 5118.9688 68 C 5118.4495 69.925 5117.9986 72.625 5118 74 C 5118.0013 75.375 5116.6222 79.925192 5114.9062 84.09375 C 5113.1904 88.262308 5110.9136 92.195148 5109.875 92.84375 C 5107.5879 94.272083 5107.6095 94.985914 5109.75 80.96875 C 5111.0379 72.534967 5111.5 63.361097 5111.5 46.25 C 5111.5 33.462176 5111.8125 22.999676 5112.1875 23 z M 5107.4375 24.3125 C 5108.0308 24.508658 5108.6182 28.253624 5108.7812 32.84375 C 5108.9501 37.591814 5108.6823 41 5108.125 41 C 5106.8657 41 5103 34.70532 5103 32.65625 C 5103 30.098942 5106.2806 23.929975 5107.4375 24.3125 z M 5109 52.875 L 5109 60.1875 C 5108.9803 69.594964 5108.1929 70.846414 5104.6875 67.1875 C 5100.6353 62.957937 5101.2323 57.478217 5106.0625 54.625 L 5109 52.875 z M 5105.0312 84.09375 C 5105.6127 84.43179 5105.7393 85.829622 5105.375 88.25 C 5104.5619 93.651705 5103.7791 94.498683 5101.6875 92.1875 C 5099.5825 89.861506 5099.6021 89.049405 5101.9375 86.25 C 5103.4162 84.477461 5104.4498 83.75571 5105.0312 84.09375 z "/>
</svg>
