<svg xmlns="http://www.w3.org/2000/svg"
     width="25.8" height="64.0"
     viewBox="6900.2652 15.0000 37.1249 92.1274">
  <path d="M6907.8802 99.25C6906.0805 94.626091 6907.4042 84.38846 6910.3341 80.270612C6912.7706 76.846138 6912.8155 76.543889 6911.3174 73.646937C6904.9017 61.24033 6904.2652 37.241095 6910.0511 25.899841C6911.9446 22.188293 6916.2643 19.0 6919.3994 19.0C6921.2899 19.0 6924.959 24.01565 6927.8119 30.5C6931.7433 39.435851 6932.317 57.205189 6929.2162 74.0C6928.4913 77.925981 6928.7065 78.993302 6930.9031 82.367227C6932.9467 85.506126 6933.3901 87.346079 6933.2573 92.136888C6933.0702 98.888107 6932.6129 100.0 6930.0237 100.0C6928.7482 100.0 6927.6372 98.616971 6926.4811 95.589781C6924.6089 90.687363 6920.0483 85.699766 6918.4372 86.792729C6916.991 87.773862 6913.0 97.420733 6913.0 99.935381C6913.0 103.12737 6909.1908 102.61744 6907.8802 99.25Z M6913.8527 89.590042C6917.2357 82.392976 6920.6665 82.38172 6926.0375 89.550064C6927.8713 91.997529 6929.7992 94.0 6930.3218 94.0C6931.9765 94.0 6930.0986 84.655367 6927.8219 81.560222C6925.6653 78.62834 6925.6641 78.593428 6927.3509 68.560222C6928.2812 63.0271 6929.0328 55.602088 6929.0212 52.060195C6928.9983 45.110146 6927.0586 34.0 6925.868 34.0C6925.4655 34.0 6924.1749 35.35 6923.0 37.0C6920.286 40.811446 6917.6447 40.798562 6913.8013 36.955128C6912.1266 35.280449 6910.4758 34.190863 6910.1328 34.533827C6909.7899 34.87679 6909.3472 40.264397 6909.149 46.506287C6908.8413 56.200176 6909.1157 58.850084 6911.0305 64.677588C6912.2635 68.429915 6913.851 72.647334 6914.5582 74.049631C6915.7118 76.336809 6915.5433 77.047126 6912.9221 80.950111C6910.6804 84.287816 6910.0 86.44397 6910.0 90.209498C6910.0 95.913292 6910.9524 95.760164 6913.8527 89.590042Z M6922.4461 34.481715L6925.1297 30.96343L6922.8148 26.822596C6918.5581 19.20812 6915.8293 19.328847 6912.5218 27.277979L6910.9498 31.055957L6914.7249 34.523201C6916.8012 36.430185 6918.7841 37.992595 6919.1313 37.995222C6919.4785 37.99785 6920.9702 36.416772 6922.4461 34.481715Z"/>
</svg>
