<svg xmlns="http://www.w3.org/2000/svg"
     width="22.5" height="64.0"
     viewBox="7887.0007 20.0000 29.6243 84.0813">
  <path d="M 7912.625 82.5 C 7911.8543 80.688991 7911.4826 77.818486 7911.4062 73.1875 C 7911.3022 66.880022 7910.6207 62.564736 7909 58 C 7907.1481 52.783854 7906.9351 51.06747 7907.8125 48.5625 C 7911.6969 37.472287 7908.7975 24 7902.5312 24 C 7899.841 24 7895.9144 28.20932 7893.5938 33.59375 C 7891.669 38.059775 7892.0788 44.518741 7894.6562 50.6875 C 7896.2679 54.544671 7896.4176 61.176098 7894.9375 62.65625 C 7893.1764 64.417285 7891.0691 75.07567 7891.0312 82.40625 C 7891.0007 88.344253 7891.3757 89.801012 7893.625 92.75 C 7895.0637 94.636241 7897.5919 96.991645 7899.25 98 C 7902.6725 100.08132 7904.6724 99.634549 7907.375 96.21875 C 7908.0301 95.390776 7908.5624 94.904976 7909.0312 94.6875 L 7909 94.5 L 7909.8125 91.8125 C 7909.6092 91.670586 7909.388 91.626217 7909.1875 91.46875 C 7909.0233 91.339763 7909.1919 90.039113 7909.5625 88.5625 C 7909.9445 87.040681 7910.5094 86.543148 7911.4688 86.40625 L 7912.5 83 L 7912.625 82.5 z M 7901.5312 25.34375 C 7903.6573 24.639506 7905.0029 26.620665 7906.625 32.0625 C 7908.2792 37.612126 7907.7996 42.370652 7904.8438 50.15625 C 7904.0592 52.222795 7904.2575 53.636138 7905.7812 56.65625 C 7908.016 61.085683 7909.2764 69.575157 7909.0938 79.09375 C 7909.0019 83.875137 7908.2735 87.102603 7906.4688 90.84375 C 7903.6728 96.639661 7902.0352 97.164459 7897.75 93.65625 C 7891.6428 88.656438 7891.5134 75.621105 7897.4375 61.75 C 7899.086 57.890046 7898.9226 56.070603 7896.375 48.21875 C 7893.7647 40.173848 7895.0349 30.453534 7899.125 26.90625 C 7900.0534 26.101031 7900.8226 25.578498 7901.5312 25.34375 z "/>
</svg>
