<svg xmlns="http://www.w3.org/2000/svg"
     width="31.3" height="64.0"
     viewBox="6966.4523 16.8348 43.1688 88.1277">
  <path d="M6985.1444 99.404126C6981.3565 96.725962 6979.8565 91.85706 6980.5959 84.639957C6981.2144 78.602924 6981.1249 78.243395 6978.4861 76.167691C6976.9704 74.975461 6975.1711 74.0 6974.4876 74.0C6973.1281 74.0 6970.4523 71.214327 6971.1458 70.520887C6972.0119 69.654775 6979.0541 72.70223 6981.5031 75.002896C6983.8083 77.16853 6984.0045 78.009784 6983.8195 84.934473C6983.5926 93.425336 6984.772 96.582613 6988.7333 98.088682C6992.4418 99.498668 6993.744 98.664338 6994.976 94.088963C6996.1108 89.874905 6995.64 86.327796 6993.3399 81.761438C6992.0846 79.269376 6992.186 78.665675 6994.4656 75.054434C6996.8258 71.315621 7000.6105 68.277145 7001.6333 69.299932C7001.8874 69.554017 7001.4945 70.377976 7000.7602 71.130952C7000.0259 71.883929 6998.4692 74.075 6997.3009 76.0C6995.233 79.407132 6995.22 79.664907 6996.8078 85.714964C6998.2925 91.372301 6998.2992 92.314394 6996.8822 96.214964C6995.445 100.17139 6995.0256 100.52184 6991.4128 100.78482C6988.9717 100.96251 6986.614 100.44319 6985.1444 99.404126Z M6977.25 67.984783C6973.2619 64.356688 6973.1799 63.660968 6976.8353 64.463826L6979.6706 65.086562L6978.677 58.916781C6977.9497 54.401047 6978.0265 51.020913 6978.9631 46.308505L6980.2429 39.870011L6976.727 34.685006C6973.0675 29.288157 6971.2768 24.999989 6972.6826 25.000015C6973.6248 25.000032 6982.3663 36.688032 6983.2561 39.137525C6983.5832 40.038164 6983.1281 43.47286 6982.2446 46.770182C6980.7661 52.288249 6980.7682 53.424986 6982.2715 61.055254C6984.4442 72.08357 6983.376 73.55769 6977.25 67.984783Z M6984.3319 34.75C6981.7049 31.819111 6976.8211 22.845564 6977.4893 22.177321C6978.3087 21.357951 6982.5612 25.769948 6984.5987 29.553389C6985.6196 31.449025 6987.017 33.0 6987.7042 33.0C6988.9357 33.0 6996.3848 24.261152 6997.2708 21.777022C6997.5212 21.07466 6998.0851 20.83481 6998.5238 21.244023C7000.2197 22.826057 6990.3895 37.0 6987.5964 37.0C6986.9101 37.0 6985.4411 35.9875 6984.3319 34.75Z M6990.0 66.447405C6990.0 66.143478 6990.7324 62.674681 6991.6276 58.738966C6992.7099 53.980264 6993.0678 49.34874 6992.6959 44.913144C6992.1654 38.584382 6992.279 38.10689 6994.9173 35.579276C6996.4465 34.114136 6998.7427 30.684423 7000.0198 27.957692C7001.2969 25.230962 7002.715 23.0 7003.1709 23.0C7005.6211 23.0 7001.8191 33.132859 6998.1412 36.404988C6996.2872 38.054441 6995.9993 39.395834 6995.9944 46.404988C6995.9914 50.857244 6995.5086 56.229697 6994.9215 58.343771C6993.5192 63.393993 6994.3627 63.984777 6998.0 60.5C6999.6385 58.930193 7001.3186 57.985305 7001.7336 58.400249C7002.8498 59.516502 6994.4134 67.0 6992.0387 67.0C6990.9174 67.0 6990.0 66.751332 6990.0 66.447405Z"/>
</svg>
