<svg xmlns="http://www.w3.org/2000/svg"
     width="53.3" height="64.0"
     viewBox="144.5290 13.0473 75.7926 91.0688">
  <path d="M 165.875,17.65625 C 164.52308,17.84273 164.40815,18.738812 164.1875,22.15625 163.73977,29.090969 162.18563,29.716851 157.09375,24.96875 154.74954,22.782811 152.42374,21 151.90625,21 148.52901,21 149.25074,32.517154 152.875,36.375 154.04353,37.618841 155,39.659262 155,40.90625 155,42.153239 156.65102,45.202245 158.6875,47.6875 L 162.40625,52.1875 160.0625,61.1875 C 158.08798,68.755632 157.81111,71.589837 158.34375,79.09375 159.01856,88.600495 160.75679,94.034058 164.3125,97.84375 166.16483,99.828392 167.21953,100.11615 171.09375,99.75 174.03477,99.472049 176.96026,98.355049 179.1875,96.65625 181.0129,95.263947 182.85076,94.484196 184.5,94.21875 L 184.75,91.71875 C 182.28857,92.019167 179.63266,93.272524 177,95.53125 176.175,96.239069 174.375,96.940307 173,97.09375 166.73131,97.793301 163.86881,94.29217 161.5,83.03125 159.73803,74.6551 160.22369,67.462378 163.1875,57.75 L 165.25,51 161.625,46.59375 C 159.63179,44.161307 158,41.127874 158,39.875 158,38.622126 156.917,36.017062 155.59375,34.0625 153.01534,30.253926 151.24779,24 152.75,24 153.25165,24 155.10703,25.8 156.875,28 158.64297,30.2 160.7321,32 161.5,32 163.72999,32 166,27.880593 166,23.84375 166,19.032731 167.00078,18.542563 171.125,21.3125 173.79777,23.107609 174.56465,24.334496 174.8125,27.3125 175.0685,30.38851 174.58596,31.563183 172.21875,33.78125 168.33764,37.417837 167.66903,41.505067 170.03125,46.78125 171.99772,51.173496 173.12927,51.673629 177.53125,50 179.6742,49.185251 180.65434,49.376137 182.71875,51 186.63681,54.081951 188.30771,53.466304 192.84375,47.34375 198.69055,39.451983 198.86851,38.08727 194.5625,33.78125 191.55449,30.773243 191,29.523387 191,25.8125 191,23.3925 191.5275,20.8475 192.1875,20.1875 193.12083,19.254167 193.05151,19 191.8125,19 189.77055,19 189,21.080449 189,26.59375 189,30.210443 189.62148,31.667597 192.40625,34.75 195.76684,38.46977 195.78697,38.562536 194.15625,41.5625 191.58781,46.287535 187.74386,51 186.46875,51 185.83242,51 184.4958,50.100355 183.5,49 182.16659,47.526606 180.62353,47.06541 177.6875,47.25 173.80516,47.494085 173.68934,47.371686 172.25,43.125 170.8025,38.854212 170.81366,38.721033 173.34375,36.375 176.18952,33.736251 178.45581,26.980223 177.5,23.96875 176.61177,21.17019 171.38072,17.819619 167.6875,17.65625 166.90872,17.621801 166.32564,17.59409 165.875,17.65625 z M 197.84375,18.125 C 197.70644,18.05322 197.31848,18.523735 196.53125,19.5 194.86033,21.57215 195.17283,27.473307 197.15625,31.25 198.18533,33.20949 199.76784,33.465356 202,32 203.25247,31.177782 203.14664,30.886372 201.28125,30.375 198.71796,29.672306 196.7324,24.149475 197.59375,20.0625 197.85721,18.812428 197.98106,18.19678 197.84375,18.125 z M 185.46875,83.65625 185.625,81.625 C 184.37559,82.051475 183.08611,82.739522 181.5,84 174.61415,89.472182 169.23162,87.127468 170.28125,79.125 171.29135,71.42382 173.12228,62.627724 174.09375,60.8125 175.83679,57.555615 179.66062,56.76211 185.53125,58.46875 188.42494,59.309968 191.30498,60 191.90625,60 194.52346,60 200.86777,52.618024 203.875,46.09375 206.56549,40.256674 207.57119,39.047184 210.0625,38.5 213.38197,37.770922 216.32162,33.263703 215.8125,29.6875 215.55494,27.878343 214.83144,27.5 211.65625,27.5 207.24987,27.5 205,25.232911 205,20.8125 205,17.765017 203.5709,17.04733 202.59375,19.59375 200.29603,25.581507 203.91558,30.433859 210.46875,30.1875 213.62654,30.068787 213.77548,30.210799 213.09375,32.78125 212.52621,34.92112 211.69568,35.563317 209.15625,35.8125 206.1812,36.104428 205.62161,36.775368 202.125,44.34375 199.84381,49.281383 197.0375,53.619395 195.0625,55.28125 191.68845,58.120327 190.07449,58.215705 182,56 178.01503,54.906492 173.57311,57.617295 171.125,62.65625 168.1543,68.77084 166.36699,79.841356 167.5625,84.65625 169.17864,91.165186 175.25762,91.743517 182.40625,86.0625 L 185.46875,83.65625 z"/>
</svg>
