<svg xmlns="http://www.w3.org/2000/svg"
     width="49.4" height="64.0"
     viewBox="721.0000 15.1991 71.8499 93.0925">
  <path d="M733.66667 102.33333C733.3 101.96667 733.0 101.07982 733.0 100.36257C733.0 99.645316 731.67343 97.132816 730.05207 94.779236C728.38897 92.365075 726.84146 88.538707 726.50145 86.0C725.9283 81.720564 726.12104 81.254929 730.43369 76.5C736.04049 70.318221 736.37443 67.480426 731.60048 66.584829C728.28221 65.962316 725.15967 63.506998 726.27185 62.394814C726.57812 62.088544 727.73766 62.324419 728.84861 62.91898C729.95956 63.513541 731.35966 64.0 731.95994 64.0C733.55585 64.0 730.37741 58.272352 728.1073 57.057424C727.0777 56.506399 725.95227 55.317999 725.60635 54.416535C725.09364 53.080448 725.44155 52.894006 727.4887 53.407807C729.76911 53.980155 730.0 53.750824 730.0 50.913408C730.0 49.039354 728.99939 46.599553 727.5 44.817631C726.125 43.183536 725.0 41.431076 725.0 40.923275C725.0 39.29061 726.9446 39.93843 728.23207 42.0C729.93586 44.728196 730.62192 44.523331 731.88144 40.910249C732.72095 38.502023 732.63305 37.191084 731.48293 34.966999C729.77797 31.669964 731.3289 29.699963 733.39984 32.532137C734.59981 34.173192 734.80995 34.170634 737.38465 32.483622C739.28518 31.23835 739.78648 30.386475 739.05135 29.651347C737.76777 28.367768 737.64738 23.0 738.90217 23.0C739.39837 23.0 740.27316 24.344826 740.84615 25.988502C741.74475 28.566243 742.2049 28.860619 744.19397 28.130247C745.9365 27.490402 746.57674 26.378451 746.81406 23.579765C747.18323 19.226114 749.2438 19.19906 750.0021 23.537908C750.34955 25.525986 751.27353 26.624847 753.0021 27.10573C757.23355 28.282909 757.85638 28.086157 758.18358 25.468911C758.68695 21.442404 760.4527 22.117328 761.0 26.545431C761.45947 30.262958 764.80138 36.0 766.50742 36.0C766.90319 36.0 767.02595 34.630187 766.78023 32.955972C766.26423 29.440251 767.23182 28.369479 768.99978 30.499739C769.97617 31.676213 769.90848 32.771459 768.66775 35.872352C767.34907 39.168063 767.31718 40.05151 768.46046 41.615042C769.76367 43.397285 769.98603 43.400113 774.72847 41.694755C777.43275 40.72231 780.32899 40.189014 781.16456 40.509653C782.00013 40.830292 783.71171 42.921591 784.96807 45.156985C788.84993 52.063823 786.55846 60.832581 778.67202 69.25C775.85732 72.254216 774.94381 72.543814 773.34027 70.940265C772.64097 70.240974 772.575 68.304305 773.1463 65.246298C773.6315 62.649129 773.63292 60.232917 773.14952 59.749516C772.66612 59.266116 770.28858 61.109651 767.74072 63.943483C765.24029 66.724567 762.7495 69.0 762.20565 69.0C759.90022 69.0 759.83311 58.839211 762.12916 57.420174C764.92992 55.689211 760.19233 46.487524 753.82947 41.299906C750.80882 38.837182 749.39697 38.279489 747.7022 38.879589C744.10566 40.153087 741.77496 46.181138 741.73295 54.318292C741.70214 60.287159 742.15559 62.344396 744.41802 66.5C748.91581 74.761475 750.37073 76.826471 753.25 79.035404C756.19304 81.293261 756.79679 84.642665 754.8997 88.187418C754.29453 89.318182 753.503 92.326099 753.14074 94.871677C752.59347 98.717319 752.08917 99.555866 750.15858 99.830358C748.88065 100.01205 746.92627 99.338261 745.81551 98.333038C744.20718 96.877519 743.90625 95.690323 744.33763 92.502681C744.79855 89.096709 744.43994 87.978229 741.93208 85.0C739.07934 81.612207 738.93701 81.562231 737.49243 83.44113C735.60716 85.893213 735.60899 88.128426 737.5 92.654243C738.325 94.628746 739.0 97.224292 739.0 98.422124C739.0 101.81642 735.62489 104.29156 733.66667 102.33333Z M734.44979 91.130431L732.73402 86.359041L735.4999 82.179521C737.02113 79.880784 738.80469 78.0 739.46337 78.0C740.12204 78.0 742.19974 80.1375 744.08048 82.75C746.73658 86.43955 747.5 88.483277 747.5 91.904327C747.5 94.53232 748.00414 96.48168 748.75 96.737661C749.47196 96.985439 750.0 96.335103 750.0 95.198168C750.0 94.115494 750.73033 90.968326 751.62296 88.204462L753.24592 83.179255L749.85421 79.78754C747.98876 77.922096 744.97785 74.08221 743.16329 71.254458C734.80761 58.233262 738.49878 35.979176 749.0 36.064873C752.38649 36.092509 759.09261 42.249077 762.96548 48.885921C766.0504 54.172468 766.07971 54.34351 764.55419 58.156157C762.65155 62.911329 762.64978 63.0 764.45737 63.0C765.25892 63.0 767.17142 61.425013 768.70737 59.500029C770.24332 57.575046 772.29864 56.000046 773.27475 56.000029C775.52218 55.999992 776.88565 59.542198 776.25788 63.75C775.62633 67.983103 776.81578 67.857461 780.44613 63.307594C783.02335 60.077606 783.39901 58.782125 783.44613 52.962015C783.52838 42.803729 780.07143 40.426452 772.59514 45.5C770.56896 46.875 768.78298 48.0 768.62628 48.0C768.46958 48.0 766.90727 45.146058 765.15447 41.657907C761.10248 33.594254 754.01229 28.411765 748.30046 29.338668C734.93599 31.507424 728.52787 48.865585 735.55933 63.851573C738.40812 69.923135 738.18846 71.524999 733.94768 75.60456C727.36141 81.940446 727.04024 86.406573 732.55135 95.021363C736.05662 100.50069 737.07139 98.420871 734.44979 91.130431Z"/>
</svg>
