<svg xmlns="http://www.w3.org/2000/svg"
     width="45.5" height="64.0"
     viewBox="7457.0938 63.4688 32.9966 46.3849">
  <path d="M 7470.4062 67.46875 L 7463.5 73 L 7461.0938 73.46875 C 7462.2379 74.197807 7463 74.832387 7463 75.1875 C 7463 75.860857 7465.4677 78.740428 7468.5 81.5625 L 7474.0312 86.6875 L 7471.9688 91.34375 C 7470.0749 95.625004 7469.951 101.20483 7471.6875 104.25 C 7472.6019 105.85368 7475.0444 104.87384 7476.6562 102.25 C 7477.5855 100.7375 7479.8322 97.25 7481.6562 94.5 C 7483.4803 91.75 7485.2319 88.143599 7485.5625 86.46875 C 7486.0904 83.794636 7485.636 82.941665 7481.75 79.46875 C 7479.3162 77.293599 7475.6686 74.254698 7473.6562 72.71875 C 7471.6439 71.182803 7470 69.226623 7470 68.375 C 7470 68.206082 7470.2927 67.753906 7470.4062 67.46875 z M 7466.7188 71.34375 C 7467.4645 71.512344 7468.7069 72.300588 7470.5 73.875 C 7472.4626 75.598195 7474.3879 76.997372 7474.7812 77 C 7476.5838 77.01204 7483 84.112382 7483 86.09375 C 7483 87.299366 7481.3193 90.483825 7479.2812 93.15625 C 7477.2433 95.828675 7475.2182 98 7474.7812 98 C 7473.4162 98 7473.9344 92.972001 7475.6562 89.34375 L 7477.2812 85.875 L 7472.25 81.0625 C 7466.7411 75.808082 7464.4814 70.837969 7466.7188 71.34375 z "/>
</svg>
