<svg xmlns="http://www.w3.org/2000/svg"
     width="31.7" height="64.0"
     viewBox="4765.8593 13.2864 43.2969 87.5240">
  <path d="M4780.222 93.736353C4774.7663 87.928968 4773.0119 75.006941 4775.6452 60.026073C4777.4563 49.723331 4776.3789 41.597261 4772.4503 35.928266L4769.8593 32.189434L4773.0857 27.344717C4774.8603 24.680123 4777.5785 21.464447 4779.1261 20.198771C4782.6874 17.286369 4785.1217 18.358103 4788.0694 24.136114C4790.3063 28.520686 4790.9642 28.639481 4797.7464 25.883451C4801.6629 24.291933 4803.5797 25.648369 4804.5962 30.730844C4805.1562 33.531126 4804.8981 34.0893 4802.548 35.160082C4800.4703 36.106726 4799.1536 36.118997 4796.7562 35.21406C4794.655 34.420966 4793.261 34.368437 4792.4381 35.051349C4790.1424 36.956626 4789.8464 46.638735 4791.5766 63.233033C4793.4727 81.418094 4793.0176 89.43658 4789.8619 93.448427C4787.3163 96.684692 4783.1099 96.810328 4780.222 93.736353Z M4788.7353 90.921031C4790.2334 87.984679 4790.2905 81.042196 4788.899 71.0C4786.9401 56.862878 4786.9945 42.922241 4789.032 36.923638L4790.8741 31.5L4788.5494 29.0C4787.2708 27.625 4785.9261 25.510519 4785.5612 24.301152C4785.1963 23.091786 4783.9877 21.813473 4782.8754 21.460456C4780.6519 20.754757 4779.1684 22.190084 4776.1163 28.0C4774.255 31.543023 4774.3547 33.497586 4776.5065 35.64936C4777.1583 36.301152 4778.2782 39.598779 4778.9952 42.977421C4780.1238 48.295666 4780.0608 50.728914 4778.526 61.10119C4776.5878 74.199884 4776.9211 80.317211 4779.9592 87.404766C4781.7988 91.696417 4784.4691 94.241433 4786.5 93.638792C4787.05 93.475591 4788.0559 92.252598 4788.7353 90.921031Z M4801.6433 31.487265C4802.4418 29.406244 4800.2204 26.988611 4798.1769 27.714676C4794.8917 28.881903 4793.8896 30.162083 4795.1101 31.632679C4796.6337 33.468477 4800.9196 33.373082 4801.6433 31.487265Z"/>
</svg>
