<svg xmlns="http://www.w3.org/2000/svg"
     width="44.7" height="64.0"
     viewBox="6781.4671 16.0000 61.5068 87.9879">
  <path d="M 6793.0938 74.96875 C 6793.8624 76.053321 6793.2921 77.983122 6791.0938 80.71875 C 6787.1812 85.587476 6785.4671 93.46075 6787.5938 96.75 C 6789.6873 99.987899 6791.622 99.548471 6794.375 95.1875 C 6797.4951 90.244884 6802.7577 85 6804.5938 85 C 6806.3697 85 6816.7948 90.763714 6819.5 93.25 C 6822.0396 95.584101 6826.6686 98.007512 6830.5 99 C 6832.15 99.427421 6834.1112 99.6239 6834.8438 99.40625 C 6835.5763 99.188601 6836.5887 99 6837.0938 99 C 6838.9739 99 6837.8879 96.073955 6834.5625 92.09375 C 6830.6733 87.438705 6829.0554 79.604614 6830.9375 74.6875 C 6831.5302 73.139196 6832 71.209569 6832 70.40625 C 6832 67.998615 6826.781 71.262516 6823.9375 75.4375 C 6821.1202 79.573934 6819.501 79.864373 6816.7812 76.75 C 6810.7373 69.828916 6809.2873 60.096862 6813.0625 51.5625 C 6815.7923 45.391242 6817.3432 44.948127 6821.2812 49.25 C 6823.0475 51.179424 6826.1874 53.761281 6828.25 54.96875 C 6831.643 56.955132 6832.0465 57.00752 6832.625 55.5 C 6832.9767 54.583617 6832.6665 51.27225 6831.9062 48.15625 C 6829.9733 40.233253 6830.2533 27.336178 6832.5 21.75 C 6833.0745 20.32161 6832.6703 20 6830.2812 20 C 6826.4342 20 6819.9554 25.561691 6817.5312 30.9375 C 6816.3591 33.537091 6814.8403 35.25723 6813.375 35.625 C 6807.9326 36.990933 6799.3218 50.433785 6798.2812 59.21875 C 6798.0919 60.817592 6797.8445 61.860451 6797.5 62.625 L 6797.5 64 L 6796.9688 66.59375 C 6797.6135 67.484892 6798 68.678149 6798 70.1875 C 6798 72.217575 6797.5188 72.963489 6796.25 72.90625 C 6796.1348 72.901053 6795.8791 72.795064 6795.75 72.78125 L 6795.5 74 L 6793.0938 74.96875 z M 6829.3438 22.125 C 6830.0455 22.264564 6829.9639 23.114366 6829.375 25.6875 C 6828.254 30.585272 6828.2593 45.668236 6829.375 49.25 C 6830.6282 53.272993 6828.8843 52.7097 6823.625 47.375 C 6820.7612 44.470229 6818.5361 42.982153 6817.5938 43.34375 C 6814.9097 44.373738 6809.2339 54.281344 6808.5625 59.125 C 6807.5663 66.311566 6809.4987 72.054987 6814.9062 77.90625 C 6817.5013 80.714227 6820.2675 83 6821.0625 83 C 6821.8575 83 6823.5509 80.75 6824.8125 78 C 6826.0741 75.25 6827.4274 72.997904 6827.8125 73 C 6828.1977 73.002095 6828.5571 76.382831 6828.625 80.5 C 6828.731 86.93237 6829.1179 88.478389 6831.375 91.4375 C 6832.8196 93.331538 6834 95.350803 6834 95.9375 C 6834 96.524197 6833.4375 96.980829 6832.75 96.96875 C 6830.6208 96.931341 6823.5833 93.418394 6822.125 91.65625 C 6821.3632 90.735715 6818.4382 88.81101 6815.625 87.40625 C 6805.0643 82.132813 6801 75.387226 6801 63.03125 C 6801 57.902809 6801.6064 55.153211 6803.6562 50.9375 C 6806.9519 44.159715 6811.3638 39.364797 6815.5938 37.96875 C 6817.6963 37.274859 6819.1703 35.937711 6819.7812 34.1875 C 6821.4142 29.509319 6826.4238 22.523199 6828.375 22.1875 C 6828.7956 22.115132 6829.1098 22.078479 6829.3438 22.125 z M 6799.5625 78.15625 C 6800.4555 78.150887 6801.1022 78.854728 6801.8438 80.25 C 6802.9318 82.297286 6802.5165 83.063094 6797.0938 88.75 C 6790.8839 95.262415 6790.066 95.823096 6789.875 93.75 C 6789.4523 89.161485 6791.9411 83.592113 6795.875 80.28125 C 6797.5501 78.871465 6798.6695 78.161613 6799.5625 78.15625 z "/>
</svg>
