<svg xmlns="http://www.w3.org/2000/svg"
     width="25.5" height="64.0"
     viewBox="2120.3282 12.2362 34.8965 87.4583">
  <path d="M2136.4304 86.097259C2136.7909 80.818766 2137.3271 70.714019 2137.6218 63.642264C2138.1972 49.836202 2138.2082 49.859692 2133.2539 54.319376C2132.0186 55.43139 2130.6686 55.994581 2130.2539 55.570912C2129.8393 55.147242 2131.4125 53.096826 2133.75 51.014432C2138.0058 47.223135 2139.2854 44.0 2136.5348 44.0C2135.7289 44.0 2133.532 45.35 2131.6528 47.0C2128.1828 50.046721 2126.0 50.816445 2126.0 48.993387C2126.0 48.014734 2128.5493 45.503943 2132.385 42.704957C2134.2276 41.360352 2134.2259 41.286376 2132.3099 39.414713C2127.0533 34.279655 2124.3282 25.183753 2126.8536 21.202666C2127.825 19.671376 2129.2871 21.117875 2131.8823 26.177694C2132.772 27.912333 2134.5805 30.032016 2135.9011 30.888101L2138.3022 32.444619L2137.6063 25.381952C2137.0633 19.871276 2137.2207 18.06175 2138.3225 17.147312C2139.4203 16.236236 2140.0141 16.312005 2140.9898 17.487669C2142.4062 19.194377 2147.5521 19.533784 2148.5101 17.983688C2149.4542 16.45611 2151.2247 17.971944 2150.5501 19.730167C2149.798 21.690062 2149.7931 76.059378 2150.5441 86.15588C2150.9653 91.818076 2150.7789 94.018603 2149.8284 94.606053C2149.1215 95.042915 2145.6703 95.466535 2142.159 95.547432L2135.7748 95.694517L2136.4304 86.097259Z M2138.0 36.0C2138.0 34.330017 2137.4669 33.0 2136.7976 33.0C2136.1363 33.0 2134.1113 31.561725 2132.2976 29.803833C2127.9672 25.606595 2127.8414 28.183028 2132.0708 34.449868C2135.6667 39.777938 2138.0 40.387957 2138.0 36.0Z M2145.0818 92.0C2147.5098 92.0 2148.0 91.589594 2148.0 89.556704C2148.0 86.756959 2144.6646 84.0 2141.2775 84.0C2139.2371 84.0 2139.0 84.479559 2139.0 88.606989C2139.0 92.397117 2139.2805 93.106353 2140.5818 92.606989C2141.4518 92.273145 2143.4768 92.0 2145.0818 92.0Z M2147.989 82.75C2147.9399 77.171009 2146.616 74.187322 2143.5387 72.71983C2140.3017 71.17622 2140.296 71.178243 2140.3764 73.83671C2140.4208 75.30152 2140.1207 77.7375 2139.7095 79.25C2139.0545 81.659482 2139.2429 82.001896 2141.2309 82.015313C2142.4789 82.023735 2144.175 82.466844 2145.0 83.0C2147.0428 84.320159 2148.0021 84.239921 2147.989 82.75Z M2146.8126 22.512733C2146.6407 22.359227 2145.0375 21.920309 2143.25 21.53736C2140.2669 20.898271 2140.0 21.045629 2140.0 23.331651C2140.0 24.912101 2141.1876 26.824716 2143.25 28.565608L2146.5 31.309003L2146.8126 27.050418C2146.9845 24.708197 2146.9845 22.666238 2146.8126 22.512733Z M2146.7993 50.532934C2147.0141 45.400333 2146.8488 44.973188 2144.0986 43.550965L2141.1691 42.036063L2140.8345 48.361608C2140.5457 53.823408 2140.7235 54.628342 2142.1371 54.256458C2143.0376 54.019576 2144.0766 54.314967 2144.4462 54.912882C2145.847 57.1795 2146.5781 55.818697 2146.7993 50.532934Z M2147.1185 67.25C2147.3038 61.384676 2147.0724 60.657412 2144.1986 58.074355L2141.5 55.648711L2140.9767 61.574355C2140.5399 66.5202 2140.7649 67.789361 2142.3375 69.25C2145.4056 72.09974 2146.9861 71.438562 2147.1185 67.25Z M2147.0 37.475249C2147.0 33.538359 2146.6667 32.823793 2144.4349 31.975249C2140.8975 30.630317 2141.0 30.541715 2141.0 34.943296C2141.0 37.884568 2141.5648 39.282163 2143.2225 40.443296C2146.549 42.773286 2147.0 42.418952 2147.0 37.475249Z"/>
</svg>
