<svg xmlns="http://www.w3.org/2000/svg"
     width="43.5" height="64.0"
     viewBox="5349.7749 12.9958 43.4111 63.9142">
  <path d="M5363.7133 69.507284C5360.7653 67.256288 5358.2042 64.072714 5356.4392 60.465312C5353.982 55.442992 5353.7749 54.192376 5354.3245 47.698786C5354.6597 43.739454 5355.8532 37.829118 5356.9768 34.564707C5359.2483 27.96554 5365.8821 17.02232 5367.6194 17.008746C5369.2817 16.995757 5379.0045 24.982964 5378.9722 26.335067C5378.9569 26.97578 5377.6069 29.267663 5375.9722 31.428139C5374.3375 33.588616 5373.0 35.861116 5373.0 36.478139C5373.0 37.095163 5372.4745 38.125544 5371.8321 38.767875C5370.2014 40.398637 5368.0331 46.949275 5368.0151 50.29966C5367.968 59.044619 5376.4496 63.368552 5381.1581 57.0C5383.8676 53.335199 5385.4443 53.222213 5387.6163 56.537189C5389.186 58.932765 5389.1696 59.197885 5387.324 61.287189C5386.2489 62.504235 5384.6069 64.728135 5383.6752 66.22919C5381.6451 69.499877 5377.9576 71.498922 5372.3817 72.351681C5368.7312 72.909979 5367.7466 72.586911 5363.7133 69.507284Z M5378.5252 67.575421C5380.6333 66.194151 5385.0 59.356138 5385.0 57.436246C5385.0 57.082359 5383.4093 58.189432 5381.4652 59.896408C5379.5211 61.603384 5377.3836 62.99749 5376.7152 62.994423C5373.163 62.978121 5367.7859 60.602892 5366.354 58.417564C5364.221 55.162186 5365.0384 46.617877 5368.0848 40.3248L5370.3049 35.738622L5367.9025 33.840861C5363.1876 30.116466 5362.1629 29.827045 5361.0506 31.905474C5359.2229 35.320612 5356.9993 45.285474 5357.022 49.960099C5357.0489 55.53555 5359.6469 61.260579 5364.4701 66.37335C5367.8018 69.905063 5368.4747 70.199662 5372.1001 69.713397C5374.287 69.420079 5377.1783 68.457991 5378.5252 67.575421Z M5374.086 29.879236L5376.3082 26.758472L5372.4041 23.416782C5370.2568 21.578853 5367.9888 20.058197 5367.3639 20.037547C5366.7391 20.016896 5365.4608 21.616538 5364.5232 23.592307C5362.8977 27.017816 5362.904 27.246202 5364.6593 28.511033C5365.6717 29.240563 5367.4 30.534714 5368.5 31.386923C5371.247 33.515155 5371.5565 33.431645 5374.086 29.879236Z"/>
</svg>
