<svg xmlns="http://www.w3.org/2000/svg"
     width="38.9" height="64.0"
     viewBox="788.0000 15.2720 54.9426 90.4155">
  <path d="M 835.28125 90.25 C 832.695 90.749235 830.12378 90.802056 829.0625 90.09375 C 827.8082 89.256628 827.82861 88.693956 829.1875 85.8125 C 835.47665 72.476605 838.94256 41.936085 835.5 30.34375 C 834.03517 25.411134 830.72002 21.048091 829.6875 22.71875 C 829.39818 23.186872 829.02054 28.051044 828.875 33.53125 C 828.55895 45.431105 827.00881 54.878518 823.0625 68.96875 C 820.45275 78.286829 818.43548 82 815.9375 82 C 815.5565 82 814.32918 79.6375 813.21875 76.75 C 812.10833 73.8625 810.42535 69.475 809.46875 67 C 808.51215 64.525 807.61734 61.825 807.5 61 C 807.38266 60.175 806.99232 58.15 806.625 56.5 C 804.50084 46.958235 803.95472 43.394032 803 32.625 C 802.42029 26.085928 801.68973 20.290507 801.375 19.78125 C 801.06026 19.271993 799.98684 19.606922 799 20.5 C 796.01374 23.202531 794.78025 35.492857 795.96875 50.5625 C 796.94226 62.906139 799.03683 74.44079 800.90625 77.78125 C 801.51277 78.865045 800.89768 80.53215 798.90625 83.28125 C 796.3066 86.869965 792 96.695081 792 99.03125 C 792 101.17179 795.5316 99.773157 799.625 96 C 802.01171 93.8 804.6282 92 805.4375 92 C 806.24679 92 808.06817 93.529028 809.5 95.40625 C 812.7257 99.635365 814.45478 100.34567 818.4375 99.03125 C 820.91933 98.212174 822.68399 98.405598 827.03125 99.96875 C 829.85397 100.98372 831.88988 101.48281 833.8125 101.6875 L 834.1875 98.71875 C 832.03493 98.606512 829.88906 98.230988 827.75 97.34375 C 822.02369 94.968589 823.17544 91.384326 829.125 93.0625 C 830.7964 93.533946 832.8463 93.319408 834.9375 92.8125 L 835.28125 90.25 z M 799.40625 28.59375 C 799.85488 28.204331 799.96805 29.153748 800 32 C 800.07119 38.341587 801.45812 46.74832 805 62 C 806.40242 68.038961 812.01078 82.380174 813.28125 83.1875 C 813.94939 83.612076 815.95245 83.991578 817.71875 84 C 820.66774 84.014062 821.02523 83.652658 822 79.75 C 822.58385 77.4125 823.48649 74.716905 824.03125 73.75 C 824.57602 72.783094 825.73996 69.183094 826.59375 65.75 C 827.44755 62.316905 828.53493 57.925 829.03125 56 C 829.52756 54.075 830.25262 47.775 830.625 42 C 831.50337 28.378024 832.31715 25.926655 834 32 C 836.42686 40.758478 833.97805 66.819484 829.5625 79.28125 C 826.54066 87.80964 821.60417 95.601439 818.71875 96.375 C 815.70804 97.182148 815.61406 97.172956 813.8125 95.75 C 809.54934 92.38277 804.16819 80.216419 800.875 66.5 C 798.53437 56.751031 797.16254 32.248636 798.8125 29.40625 C 799.04683 29.002562 799.25671 28.723556 799.40625 28.59375 z M 802.84375 82.5 L 803.96875 85.4375 C 805.28024 88.855966 804.75172 90.783374 802.28125 91.65625 C 801.30628 92.000732 799.52322 93.159344 798.34375 94.21875 C 793.78667 98.311913 795.3601 91.472374 800.34375 85.5 L 802.84375 82.5 z "/>
</svg>
