<svg xmlns="http://www.w3.org/2000/svg"
     width="46.0" height="64.0"
     viewBox="655.6875 14.6944 66.3125 92.3450">
  <path d="M688.73644 102.13169C684.78784 101.22913 679.58575 96.754153 677.58583 92.539631C676.14524 89.503803 676.05872 88.328471 677.04646 85.211924C677.6935 83.170366 678.91727 80.397232 679.76594 79.049404C681.51766 76.267386 681.58336 70.822559 679.91383 66.791979C676.97405 59.69471 669.8746 64.277141 668.59292 74.099201C667.48213 82.611722 666.95873 84.0 664.86021 84.0C663.80257 84.0 662.68555 83.2125 662.37794 82.25C662.07033 81.2875 661.36521 79.546921 660.81101 78.382047C659.68751 76.020542 661.13302 67.32916 663.78507 60.5C665.76839 55.392869 670.71679 49.0 672.68665 49.0C673.52187 49.0 676.38421 50.224856 679.04738 51.721902C681.71056 53.218948 684.2119 54.121435 684.6059 53.727428C685.36871 52.964622 683.38609 40.40598 681.77181 35.775258C680.88905 33.242981 680.48717 33.05837 677.05281 33.607545C673.8811 34.114723 672.88777 33.796862 670.64938 31.558467C667.76294 28.672034 667.50224 27.439418 668.96463 23.593029C670.55826 19.401467 674.41046 19.1915 679.19377 23.03548C681.94964 25.250156 683.68139 26.020884 684.5244 25.407919C685.21116 24.908563 687.41925 23.193736 689.43126 21.597191L693.08947 18.694382L696.34234 21.847191C700.15241 25.540051 701.06785 25.687493 703.5 23.0C706.14471 20.077631 711.50707 20.318054 713.55988 23.451037C714.51008 24.90123 714.89889 26.743215 714.51206 27.962004C713.3758 31.542033 705.09386 34.578925 703.5 32.0C700.72133 27.50401 695.83424 41.415864 697.51081 49.049195C698.27378 52.523013 699.28525 52.707379 702.72713 50.0C709.95545 44.314202 718.0 51.787256 718.0 64.187865C718.0 69.653642 716.89133 72.378893 713.29637 75.75C709.81894 79.010892 709.0 78.56317 709.0 73.401129C709.0 68.976207 706.77731 62.598439 704.81187 61.383728C703.37504 60.495718 701.19245 63.907176 699.41698 69.81612C697.83073 75.09533 697.83748 75.157989 700.38979 78.840966C704.19405 84.330509 704.5937 87.902389 701.9855 93.102602C699.26624 98.524253 695.14653 103.03942 693.06291 102.88169C692.20331 102.81661 690.2564 102.47911 688.73644 102.13169Z M698.02202 95.304219C701.4467 89.90406 701.83009 85.339276 699.14909 81.884859C695.14295 76.723016 694.92273 75.544659 696.86434 69.659249C699.54537 61.532536 701.58782 58.815301 704.73402 59.18962C707.71663 59.544476 710.29924 63.451065 711.38803 69.254822C712.28628 74.042926 713.35031 73.998608 714.96507 69.105836C715.99496 65.985251 716.0061 64.193897 715.02117 60.088229C712.83034 50.955826 708.22567 48.317529 702.43178 52.875C700.94596 54.04375 698.72322 55.0 697.49237 55.0C695.5332 55.0 695.19372 54.367906 694.76682 49.925077C694.33679 45.449596 695.22345 39.12756 697.42713 30.956719C698.23 27.979791 694.92049 23.0 692.13918 23.0C691.19557 23.0 688.83099 24.9125 686.88456 27.25L683.3456 31.5L685.11833 38.5C687.33538 47.254531 687.5596 55.848031 685.59068 56.603577C684.81555 56.901022 681.73463 55.986899 678.74419 54.572193C675.75374 53.157487 672.87256 52.0 672.34157 52.0C671.18054 52.0 667.0 57.47434 667.0 58.994691C667.0 59.586312 666.36782 61.067034 665.59517 62.285183C663.78101 65.145326 662.62408 74.011941 663.52802 78.127573C664.39584 82.078715 665.46327 80.495875 666.42449 73.832541C667.18549 68.557119 671.7268 61.538873 675.06493 60.479393C677.77589 59.618968 682.17223 62.678761 683.12652 66.090148C684.45523 70.840029 683.9689 75.998081 681.8 80.159205C680.59 82.480641 679.6 85.786138 679.6 87.504754C679.6 93.454416 686.36366 99.850457 692.77202 99.960858C694.41013 99.989079 695.87493 98.689829 698.02202 95.304219Z M678.92615 29.137989C679.70409 27.684405 679.42348 26.807018 677.64688 25.137989C673.39024 21.13908 669.5088 23.431747 671.8471 28.56377C673.20346 31.540649 677.45569 31.885571 678.92615 29.137989Z M685.5567 91.777494C683.43487 88.748145 683.60263 85.774889 686.07258 82.634859C688.71984 79.269407 691.43971 79.29239 694.60422 82.706951C696.47761 84.728373 696.95228 86.057924 696.47856 87.956951C694.98578 93.941094 688.62952 96.164558 685.5567 91.777494Z M692.8 90.8C695.80067 87.799328 692.43163 81.163448 688.87413 83.067362C685.62227 84.807705 686.93137 92.0 690.5 92.0C691.105 92.0 692.14 91.46 692.8 90.8Z M711.06957 28.416177C712.02245 27.268028 712.09541 26.374028 711.33483 25.166177C709.77984 22.696775 707.69562 22.664984 704.64558 25.064146C702.48908 26.760452 702.16535 27.494303 703.08481 28.602186C704.64859 30.486431 709.44412 30.374717 711.06957 28.416177Z"/>
</svg>
