<svg xmlns="http://www.w3.org/2000/svg"
     width="54.6" height="64.0"
     viewBox="553.4553 18.3872 75.2309 88.2624">
  <path d="M 607.09375,86.71875 607,86.71875 606.84375,83.125 C 606.7571,81.139447 606.74325,78.825 606.8125,78 607.53383,69.405596 610.5562,57 611.9375,57 613.50445,57 615.04693,59.810366 616.25,64.875 617.63812,70.718658 619.25381,71.341597 621.53125,66.9375 623.5875,62.96115 624.68629,54 623.125,54 622.49839,54 622,55.098305 622,56.4375 622,57.776696 621.50055,60.139196 620.90625,61.6875 L 619.84375,64.5 617.65625,60 C 614.03716,52.493057 609.3286,53.915144 606.40625,63.40625 604.18569,70.618123 603.60256,99.618177 605.65625,100.40625 606.44465,100.70879 607.33233,100.28162 607.65625,99.4375 607.81076,99.034846 608.14419,98.872297 608.46875,98.6875 L 607.875,93.46875 C 607.56976,93.073408 607.26029,92.684662 607.1875,92.1875 607.07259,91.40263 607.1755,90.94801 607.53125,90.625 L 607.09375,86.71875 z M 578.5,23.15625 C 577.73099,22.387238 575.09459,25.081033 574.40625,27.34375 574.04489,28.531582 573.07665,30.276735 572.25,31.21875 571.42335,32.160765 571.01931,33.623265 571.34375,34.46875 571.6682,35.314235 572.18438,36 572.5,36 573.30368,36 579.04813,23.704378 578.5,23.15625 z M 619,24 C 617.87986,24 609,37.40194 609,39.09375 609,41.639537 611.79529,38.871314 615.71875,32.4375 620.17803,25.125018 620.62409,24 619,24 z M 601.28125,24.03125 C 600.91108,23.900349 600.123,24.475918 598.9375,26 595.24832,30.742808 591.90452,37.048418 592.53125,38.0625 593.26508,39.249863 595.4946,36.571549 599.46875,29.71875 601.3445,26.484305 601.8982,24.249418 601.28125,24.03125 z M 577.6875,43.28125 C 577.21707,43.542116 577,44.546929 577,46.3125 577,49.022571 575.75283,51.373695 571.375,56.96875 564.61433,65.609178 563.02752,70.311941 563.75,79.3125 564.34541,86.730064 562.82063,93.698551 559.78125,97.5625 557.45535,100.5194 558.91643,100.85809 561.53125,97.96875 564.64637,94.526586 565.98427,88.922678 566,79.0625 566.01759,68.043241 567.53049,63.949799 574.59375,56.09375 577.95078,52.359931 579.10785,50.250545 579.28125,47.4375 579.4203,45.181747 579.00774,43.549357 578.25,43.28125 578.03867,43.206477 577.84431,43.194295 577.6875,43.28125 z M 585.65625,43.6875 C 584.07057,45.273173 585.32214,48.149911 589.25,51.90625 591.5875,54.141676 593.95,55.982311 594.5,55.96875 597.23528,55.901309 608.46263,47 605.8125,47 604.90438,47 602.82159,48.125 601.1875,49.5 596.96719,53.051159 594.7324,52.659028 590.21875,47.53125 588.05118,45.068752 586.01041,43.333335 585.65625,43.6875 z M 581.15625,59.375 C 579.77339,59.656669 578.2113,60.590576 576.46875,62.1875 573.66618,64.755865 572.52451,66.878546 571.4375,71.5 568.78683,82.769473 569.80498,92.179042 574.28125,97.78125 576.49864,100.55639 577.09694,97.202059 575.0625,93.40625 571.08,85.975753 572.88818,68.955565 578.21875,63.625 581.67751,60.166242 582.07719,60.517941 584.59375,69 585.83349,73.17855 586.09281,76.782504 585.65625,84 585.34021,89.225 584.79981,94.5125 584.4375,95.75 583.94648,97.42713 584.16998,98 585.375,98 586.26415,98 587.00942,97.8875 587.03125,97.75 587.05308,97.6125 587.61558,94.35 588.28125,90.5 589.06693,85.955926 589.23051,80.365278 588.75,74.59375 587.83449,63.597378 585.30484,58.529992 581.15625,59.375 z M 596.03125,62.84375 C 595.88072,62.849353 595.71281,62.943445 595.53125,63.125 595.27824,63.378008 594.79965,71.835456 594.46875,81.90625 594.01006,95.866672 594.15281,100.11573 595.0625,99.8125 596.56587,99.311378 596.91377,95.968358 597.21875,78.3125 597.41015,67.232349 597.08499,62.804528 596.03125,62.84375 z M 568.375,98.25 C 567.24056,98.061373 566.07383,98.399469 565.6875,99.40625 565.30991,100.39022 565.55444,100.71386 566.4375,100.375 567.17885,100.09051 568.10565,100.35 568.46875,100.9375 569.52689,102.6496 571.17708,102.16289 570.8125,100.25 570.60169,99.143928 569.50944,98.438627 568.375,98.25 z"/>
</svg>
