<svg xmlns="http://www.w3.org/2000/svg"
     width="26.9" height="64.0"
     viewBox="5717.5910 14.0000 38.0927 90.7238">
  <path d="M 5722.875 24.34375 L 5723.875 33.59375 C 5724.0969 33.294226 5724.1907 33.280991 5724.4375 32.9375 C 5727.1845 29.113972 5728.6345 27.950583 5730.2812 28.1875 C 5735.1336 28.885625 5736.5279 39.468063 5733 48.75 C 5729.8514 57.033977 5730.3005 63.474086 5734.5312 70.5 C 5739.9291 79.464107 5740.7836 86.985966 5736.5938 88.59375 C 5734.1342 89.537591 5730.0943 86.017463 5728.8438 81.84375 C 5727.3894 76.989792 5724.5518 75.065192 5723.0312 77.90625 C 5722.4599 78.973789 5721.9019 82.133477 5721.7812 84.90625 C 5721.591 89.277869 5721.9591 90.360419 5724.5312 93.09375 C 5726.1626 94.827412 5728.85 96.857259 5730.5 97.59375 C 5737.5124 100.72381 5743.8099 98.908745 5747.4375 92.71875 C 5751.6837 85.473112 5750.5878 73.789841 5744.7188 63.40625 C 5741.7658 58.181876 5741.3865 56.684759 5741.75 52.125 C 5741.9805 49.234225 5743.1923 43.815745 5744.4688 40.0625 C 5746.4214 34.321394 5746.664 32.502207 5745.8438 28.65625 C 5744.7628 23.58856 5739.511 18 5735.8438 18 C 5733.7558 18 5727.3241 21.302388 5722.875 24.34375 z M 5738.2188 21.3125 C 5739.1872 21.586209 5739.8242 22.24351 5740.8125 23.5 C 5744.4256 28.093305 5744.6514 32.504258 5741.6562 40.96875 C 5737.9339 51.488422 5738.0834 57.254502 5742.375 65.78125 C 5744.5953 70.192707 5746.0901 74.924992 5746.6875 79.5625 C 5747.6287 86.868217 5747.139 89.218122 5743.8125 93.875 C 5742.5923 95.583172 5740.9652 96.316613 5737.8125 96.5625 C 5728.574 97.28303 5723 92.598141 5723 84.125 C 5723 79.122249 5724.5769 77.909873 5725.4375 82.25 C 5726.2741 86.469768 5729.0872 89.781375 5733.0312 91.15625 C 5735.8756 92.147814 5736.4566 91.982719 5738.8438 89.59375 C 5743.0131 85.421283 5742.4685 78.705354 5737.1562 68.5 C 5734.8659 64.1 5733.0012 59.558376 5733 58.40625 C 5732.9989 57.254124 5733.9016 53.654124 5735 50.40625 C 5736.0983 47.158376 5737.2748 41.959896 5737.625 38.84375 C 5738.16 34.08338 5737.9347 32.615664 5736.125 29.6875 C 5733.4317 25.329645 5731.6341 24.605594 5728.0312 26.46875 C 5725.5331 27.760592 5725.1225 27.765069 5724.625 26.46875 C 5723.8149 24.35753 5727.6217 22.220557 5733.5938 21.4375 C 5735.9554 21.127841 5737.2503 21.038791 5738.2188 21.3125 z "/>
</svg>
