<svg xmlns="http://www.w3.org/2000/svg"
     width="32.5" height="64.0"
     viewBox="5808.7651 15.7213 44.8559 88.3100">
  <path d="M 5841.0312 87.375 C 5840.6381 87.143286 5840.1556 86.977566 5839.8438 86.71875 C 5837.2007 84.525163 5837.159 84.416873 5837.875 75.5 C 5838.2724 70.55 5838.5184 61.256653 5838.4062 54.84375 L 5838.1875 43.1875 L 5841.1875 40.34375 C 5846.3088 35.479818 5849.621 27.276992 5848.4062 22.4375 C 5847.7749 19.921513 5847.6803 19.969229 5843.0625 25.125 C 5837.9359 30.848834 5835.7676 31.171718 5834.5625 26.34375 C 5833.6519 22.695907 5831.1907 20 5828.7812 20 C 5827.4895 20 5826.2586 21.442569 5824.9062 24.5 C 5823.8115 26.975 5822.6056 28.992029 5822.2188 28.96875 C 5821.3528 28.916622 5817 22.221427 5817 20.9375 C 5817 19.723371 5814.2829 19.721255 5813.5312 20.9375 C 5813.2117 21.454727 5812.9376 24.492227 5812.9062 27.6875 C 5812.8419 34.252705 5814.976 39.531814 5818.125 40.53125 C 5819.8033 41.063938 5820.0772 41.757298 5819.5938 44.34375 C 5818.6636 49.319697 5818.7778 71.182462 5819.75 74.46875 C 5820.4739 76.915839 5820.164 78.156041 5817.9688 81.46875 C 5813.9157 87.584848 5812.7651 91.756219 5814.0625 95.6875 C 5815.4156 99.787512 5817.0847 99.873153 5820.3438 96 C 5821.7322 94.35 5823.2937 93 5823.8125 93 C 5824.3313 93 5825.3165 94.35 5826 96 C 5827.4203 99.428949 5828.5489 99.697383 5831.2188 97.28125 C 5832.8606 95.795407 5833.4012 95.763977 5835.3125 96.96875 C 5836.5193 97.729383 5838.625 98.932185 5840 99.65625 C 5840.2724 99.799688 5840.8041 99.901526 5841.1875 100.03125 L 5841.1562 97.09375 C 5838.0517 96.114151 5835.4919 94.358871 5835.1562 92.0625 C 5834.6715 88.745272 5836.517 87.272893 5838.7188 89.21875 C 5839.1821 89.628273 5840.0628 90.076909 5841.0625 90.46875 L 5841.0312 87.375 z M 5828.9062 23.21875 C 5830.8779 23.598459 5833.6147 31.471968 5835.0625 40.90625 C 5836.8903 52.816925 5835.2228 82.273769 5832.3125 89.5 C 5831.0271 92.691488 5829.1498 95.055973 5828.5938 94.15625 C 5827.1506 91.821347 5823.7591 79.97559 5822.4062 72.5 C 5819.5719 56.837968 5824.1287 22.298686 5828.9062 23.21875 z M 5816.1875 24.21875 C 5818.0777 24.848797 5822.158 32.895728 5821.8125 35.3125 C 5821.3023 38.880437 5818.5668 38.441063 5816.6875 34.5 C 5814.6915 30.314389 5814.3654 23.611376 5816.1875 24.21875 z M 5845.25 26.03125 C 5846.284 25.993945 5846.1849 28.372067 5845.0312 31.40625 C 5844.5006 32.801712 5842.7296 35.350769 5841.0938 37.0625 L 5838.125 40.15625 L 5837.4688 36.6875 C 5836.8808 33.553364 5837.2012 32.836122 5840.6562 29.625 C 5842.7698 27.6607 5844.8375 26.046131 5845.25 26.03125 z M 5821.0938 85.125 C 5821.7821 85.090715 5822.3804 85.797905 5822.9375 87.25 C 5823.616 89.018543 5823.2486 90.088447 5821.2188 92.25 C 5819.7983 93.7625 5818.2596 95 5817.8125 95 C 5816.4025 95 5816.9415 90.038109 5818.625 87.46875 C 5819.6273 85.938978 5820.4054 85.159285 5821.0938 85.125 z "/>
</svg>
