<svg xmlns="http://www.w3.org/2000/svg"
     width="52.2" height="64.0"
     viewBox="6535.0000 10.8764 73.0000 89.5324">
  <path d="M 6581.5347,50.890586 C 6582.253,48.627593 6585.643,43.118201 6588.9542,38.832752 6590.0877,37.365765 6592.5149,33.540765 6594.3481,30.332752 6600.8883,18.887416 6604,14.876366 6604,17.891093 6604,18.911097 6595.7556,32.852216 6588.4521,44.182269 6583.4785,51.897857 6580.2085,55.069014 6581.5347,50.890586 z M 6574.0245,32.25 C 6575.2466,30.1875 6577.584,26.137514 6579.2187,23.250031 6580.8534,20.362549 6582.5979,17.748491 6583.0954,17.441014 6585.2267,16.123808 6583.7051,20.880048 6580,27.116663 6577.8,30.819811 6576,34.333487 6576,34.92483 6576,35.516174 6575.0556,36 6573.9012,36 L 6571.8024,36 6574.0245,32.25 z M 6568.0459,83.042352 6563.759,79.084703 6564.6051,73.292352 C 6565.0705,70.106558 6565.3513,65.25 6565.2292,62.5 6564.4878,45.798749 6564.5457,44.056469 6565.884,42.795615 6567.044,41.702822 6567.1634,42.245601 6566.647,46.262844 6566.2789,49.126666 6566.6222,53.558846 6567.5082,57.378976 6568.6668,62.375004 6568.7539,64.964127 6567.9156,69.498579 6566.5804,76.721484 6567.155,78.981065 6570.9673,81.5 6573.7193,83.318308 6575.1913,87 6573.1664,87 6572.7079,87 6570.4037,85.219058 6568.0459,83.042352 z M 6552,35.555405 C 6552,34.42354 6563.0068,16.497737 6563.8806,16.206458 6565.6146,15.628465 6565.2057,17.902396 6563.0249,20.965023 6561.9386,22.490594 6560.5641,24.810061 6559.9705,26.119394 6557.1158,32.415593 6555.1465,35.361217 6553.6445,35.581675 6552.74,35.714422 6552,35.7026 6552,35.555405 z M 6554.7097,91 C 6557.5477,88.25 6560.143,86 6560.4769,86 6560.8109,86 6563.0726,87.4625 6565.503,89.25 6570.7452,93.105432 6571.8308,96.408783 6566.75,93.044239 6559.9464,88.538836 6559.6765,88.523507 6555.779,92.421029 6553.8105,94.389463 6551.6037,96 6550.8748,96 6550.146,96 6551.8717,93.75 6554.7097,91 z M 6543,93.433278 C 6543,93.121581 6544.125,91.391605 6545.5,89.588887 6548.3595,85.839825 6548.626,83.111242 6546.5286,79.055382 6543.6544,73.497276 6543.1007,68.320875 6544.6732,61.711548 6546.1167,55.645013 6546.027,48.397087 6544.4617,44.61355 6543.3402,41.90258 6545.8774,42.95513 6548.3063,46.2085 6550.2137,48.763202 6550.2117,48.896785 6548.1206,58.663769 6545.8508,69.264878 6545.9865,70.797717 6549.9349,79.159487 L 6552.1352,83.818974 6548.8176,88.891519 C 6546.9929,91.68142 6544.9375,93.972151 6544.25,93.982033 6543.5625,93.991915 6543,93.744975 6543,93.433278 z M 6539,30.217275 C 6539,28.351753 6546.2324,16.025624 6547.0357,16.522092 6548.1223,17.19361 6546.868,20.662746 6543.3976,26.584546 6541.0625,30.569097 6539,32.272859 6539,30.217275 z"/>
</svg>
