<svg xmlns="http://www.w3.org/2000/svg"
     width="33.6" height="64.0"
     viewBox="4810.8569 13.5000 46.8791 89.2743">
  <path d="M 4826.0312 17.5 L 4823.7812 20.1875 C 4822.5339 21.660276 4819.9623 24.931995 4818.0938 27.46875 C 4815.1695 31.438442 4814.8569 32.379198 4815.8438 34.28125 C 4820.9016 44.028847 4822.2705 56.344204 4819.375 66.0625 C 4818.1906 70.037695 4817.901 73.978421 4818.25 80.71875 C 4818.7288 89.967529 4820.07 93.727673 4823.9375 96.71875 C 4826.5953 98.774296 4829.0449 98.142616 4832.6875 94.5 L 4836.0312 91.1875 L 4837.4062 77.90625 C 4836.9715 77.27452 4836.6142 76.57696 4836.2812 75.59375 C 4834.2609 69.627767 4833.5384 51.076 4835 42.53125 C 4836.4183 34.239759 4836.9828 33.807606 4842.2188 37 C 4846.451 39.580424 4847.5604 39.501976 4850.5312 36.53125 C 4853.2296 33.832871 4853.736 29.715565 4851.8438 25.5625 C 4850.2923 22.157351 4847.2706 22.291743 4842.9688 25.96875 C 4841.0646 27.596398 4838.8621 28.946398 4838.0938 28.96875 C 4837.3254 28.991103 4834.3093 26.4125 4831.375 23.25 L 4826.0312 17.5 z M 4825.9062 22 C 4826.3759 22 4828.4099 24.025593 4830.4375 26.5 L 4834.125 31 L 4832.4688 39.15625 C 4830.7519 47.574088 4830.9147 57.797605 4833 72 C 4834.5183 82.340643 4834.2225 88.104819 4832 91.75 C 4829.7111 95.504059 4828.2482 95.758302 4824.7812 93.03125 C 4822.7983 91.471468 4822.0282 89.549336 4821.0625 83.5625 C 4819.959 76.722403 4820.0638 75.256504 4822.0625 67.28125 C 4823.7981 60.356054 4824.112 56.922799 4823.625 51 C 4823.0505 44.012799 4821.2816 36.937809 4819.6875 35.34375 C 4818.4454 34.101642 4818.9678 30.261026 4820.5625 28.9375 C 4821.4238 28.222714 4822.791 26.365058 4823.5938 24.8125 C 4824.3966 23.259942 4825.4366 22 4825.9062 22 z M 4847.9688 26.21875 C 4849.8917 26.582161 4850.5844 32.578071 4848.9375 34.5625 C 4848.2826 35.351572 4847.2451 35.990771 4846.625 35.96875 C 4845.1011 35.91464 4840 33.09825 4840 32.3125 C 4840 30.941399 4846.5291 25.946661 4847.9688 26.21875 z "/>
</svg>
