<svg xmlns="http://www.w3.org/2000/svg"
     width="48.9" height="64.0"
     viewBox="7644.2640 16.8176 26.8133 35.0914">
  <path d="M 7663.4688 21 C 7662.4828 20.817585 7661.0359 21.539012 7659.2812 23.1875 C 7657.0412 25.291823 7656.8149 25.338945 7654.125 23.75 C 7651.9902 22.488934 7651.0379 22.368305 7650.1562 23.25 C 7648.264 25.142196 7648.7392 27.219044 7650.9062 26.53125 C 7653.2642 25.782854 7654.2103 29.18955 7654.5312 39.5 C 7654.6511 43.35 7654.8101 46.69 7654.875 46.9375 C 7655.1296 47.908965 7656.8304 45.38829 7657.1875 43.5 C 7657.5579 41.5417 7659.1231 41.182257 7663.375 42.09375 C 7664.402 42.313922 7665.7094 41.760934 7666.2812 40.875 C 7667.0773 39.641817 7666.6941 38.469703 7664.7188 35.875 C 7662.3709 32.790718 7662.2685 32.275074 7663.5312 30 C 7664.2944 28.625 7664.9492 26.0375 7664.9688 24.25 C 7664.9902 22.280836 7664.4547 21.182415 7663.4688 21 z M 7661.4375 25 C 7662.4874 25 7662.0223 28.602723 7660.8125 29.8125 C 7658.9833 31.641688 7657 31.228594 7657 29.03125 C 7657 27.354696 7659.5951 25 7661.4375 25 z M 7658.0625 34.46875 C 7659.1458 33.799272 7664 37.655217 7664 39.1875 C 7664 40.198419 7663.2843 40.134579 7659.75 38.84375 C 7656.9533 37.822308 7656.1163 35.671608 7658.0625 34.46875 z "/>
</svg>
