<svg xmlns="http://www.w3.org/2000/svg"
     width="50.4" height="64.0"
     viewBox="2029.0467 10.9611 71.7682 91.1553">
  <path d="M 2094.8125 86.28125 L 2094.6875 86.3125 L 2095.4375 82.40625 C 2096.8149 75.178741 2096.0358 62.842024 2093.7188 55.25 C 2092.5029 51.266402 2091.178 48.003902 2090.7812 48 C 2090.3845 47.996099 2087.5153 49.125 2084.4062 50.5 C 2081.2971 51.875 2078.1181 53 2077.3438 53 C 2075.2102 53 2074.3046 49.383216 2075.0312 43.71875 C 2075.5426 39.733161 2076.352 38.067437 2078.7188 36.0625 C 2082.5682 32.801511 2085 28.027329 2085 23.75 C 2085 17.88256 2083.1879 17.540782 2078.4062 22.53125 C 2072.66 28.528483 2071.326 28.361533 2070.4688 21.5 C 2069.7072 15.405289 2068.8996 14.961061 2063.6875 17.65625 C 2055.8274 21.720805 2052 26.411508 2052 31.9375 C 2052 36.226654 2054.4532 38.685363 2059.4688 39.4375 L 2064 40.125 L 2064 44.5 C 2064 46.90884 2063.5779 49.150261 2063.0625 49.46875 C 2062.5472 49.787239 2059.6731 48.839256 2056.6875 47.375 C 2053.1016 45.616331 2050.4503 44.928852 2048.875 45.34375 C 2046.1075 46.07261 2039.8281 56.161942 2038.0625 62.71875 C 2037.4404 65.029232 2036.5039 67.200569 2035.9688 67.53125 C 2035.4337 67.861931 2035 69.845029 2035 71.9375 C 2035 74.029972 2034.5992 77.937431 2034.0938 80.625 C 2033.0467 86.192651 2034.1038 93.823564 2036.125 95.125 C 2039.4137 97.242566 2040.5028 95.679436 2040.6562 88.5 C 2040.7384 84.657532 2041.0079 80.825 2041.25 80 C 2041.4921 79.175 2042.0536 76.7 2042.5 74.5 C 2044.4928 64.677703 2050.4866 56.505085 2053.7188 59.1875 C 2056.0748 61.142883 2058.1738 66.02587 2059.5938 72.8125 C 2060.8947 79.030652 2060.8647 79.380278 2058.4688 83.46875 C 2056.1149 87.485303 2055.0859 94.773437 2056.6562 96.34375 C 2058.2162 97.903766 2060.878 96.82167 2061.8125 94.25 C 2062.3621 92.7375 2063.4334 90.657137 2064.2188 89.625 C 2066.1134 87.13468 2068.9266 88.601115 2071.5312 93.4375 C 2074.0509 98.116339 2076.5605 98.112497 2077.4375 93.4375 C 2078.1632 89.569274 2076.6435 83.523864 2074.25 80.78125 C 2070.6523 76.658917 2077.855 60.592575 2082.5 62.375 C 2085.9229 63.688497 2089.3712 79.216488 2088.4375 89.09375 L 2087.8125 95.71875 L 2091.6562 96.34375 C 2091.9723 96.395974 2092.2521 96.393158 2092.5625 96.4375 L 2092.5 96 L 2094.0938 89.3125 L 2094.8125 86.28125 z M 2066.125 19 C 2067.3814 18.997106 2067.7701 20.080653 2067.8438 23.75 C 2068.0048 31.774073 2071.4788 32.584053 2078.2188 26.1875 C 2081.234 23.325791 2082.0394 22.968248 2082.5312 24.25 C 2083.3814 26.465585 2080.5879 31.449427 2077.0938 33.9375 C 2073.7777 36.298751 2072.1788 40.382756 2071.9688 47 C 2071.7595 53.596684 2071.8122 53.841448 2074.0938 55.0625 C 2076.1473 56.161516 2077.947 55.790236 2084.5 52.9375 C 2088.5146 51.189796 2089.1297 51.51553 2091.0938 56.5 C 2093.67 63.038364 2094.5322 75.588779 2093.0625 85 C 2091.4358 95.415768 2089.674 96.717179 2090.5625 86.84375 C 2091.231 79.414719 2089.8679 67.684457 2087.875 63.8125 C 2086.7502 61.627169 2084.0788 59 2083 59 C 2081.0516 59 2075.7425 64.573798 2073.5938 68.875 C 2070.3732 75.322075 2069.7279 78.571702 2071.3438 80.1875 C 2073.2744 82.118179 2074.615 85.035275 2075.3125 88.71875 C 2075.9765 92.225059 2074.4007 94.236318 2073.2812 91.3125 C 2072.2695 88.670053 2068.8232 86.069553 2066.2812 86.03125 C 2064.7049 86.007497 2063.3204 87.287103 2061.4375 90.5 C 2059.9871 92.975 2058.6289 95 2058.4062 95 C 2057.4238 95 2058.1074 87.267562 2059.1875 86.1875 C 2059.8475 85.5275 2060.0217 85 2059.5625 85 C 2059.1034 85 2059.9664 84.025486 2061.4688 82.84375 C 2064.0491 80.814084 2064.159 80.399365 2063.5 75.125 C 2062.6092 67.995079 2060.3718 62.235164 2057.1562 58.75 C 2053.7371 55.044434 2051.8804 55.293112 2047.6562 59.96875 C 2042.9541 65.173494 2038.7007 79.277088 2038.6562 89.78125 C 2038.6445 92.522358 2038.2763 93.682503 2037.6562 93.0625 C 2036.2483 91.654547 2036.8231 73.373686 2038.4375 67.9375 C 2039.1973 65.378859 2041.4016 59.85995 2043.3438 55.65625 C 2047.4532 46.761769 2048.0196 46.537448 2056.5625 51.03125 C 2059.7403 52.702881 2062.9044 53.858262 2063.5938 53.59375 C 2065.2594 52.954556 2066.7328 45.384366 2066.0312 41 C 2065.4932 37.637787 2065.2801 37.508732 2061.0625 37.40625 C 2054.1234 37.237635 2052.0716 32.693075 2056 26.25 C 2058.0986 22.807994 2063.3976 19.006281 2066.125 19 z "/>
</svg>
