<svg xmlns="http://www.w3.org/2000/svg"
     width="30.7" height="64.0"
     viewBox="829.8125 16.5689 42.9181 89.4008">
  <path d="M 835.28125 90.25 L 834.9375 92.8125 C 838.18392 92.025564 841.54978 90.307952 843.875 87.84375 C 849.95346 81.401967 850.72847 77.699917 850.75 55.34375 C 850.76106 43.859732 851.25573 33.74933 851.90625 31.34375 C 854.24797 22.684279 859.23024 20.819797 859.15625 28.625 C 859.13599 30.761361 859.03231 36.664583 858.9375 41.75 C 858.75717 51.422035 859.81456 54.712194 864.15625 57.8125 C 865.91275 59.066777 866.65568 63.00057 865.375 64.28125 C 865.03696 64.619291 863.68971 64.205183 862.375 63.34375 C 858.79216 60.996184 857.01605 62.995133 857 69.375 C 856.98408 75.702147 853.77203 86.271395 850.375 91.1875 C 848.95131 93.24784 845.90029 95.779854 843.4375 96.9375 C 840.38796 98.37095 837.27682 98.879832 834.1875 98.71875 L 833.8125 101.6875 C 836.46336 101.96972 838.83764 101.59025 842.3125 100.40625 C 851.52096 97.26861 859 84.396135 859 71.6875 C 859 66.495223 860.32261 65.068086 862.90625 67.40625 C 865.35673 69.623896 866.86676 69.398156 867.40625 66.75 C 868.73065 60.248997 868.65266 59.00313 866.75 57.28125 C 862.29394 53.248567 861.51338 50.165729 861.5 36.3125 C 861.48649 22.313194 860.9625 20.56889 856.90625 21.15625 C 853.92886 21.587386 850.29957 28.555402 849.0625 36.15625 C 848.55945 39.247075 848.1309 49.684641 848.125 59.375 C 848.11449 76.63162 848.06071 77.122878 845.40625 82 C 843.91565 84.738721 841.66018 87.647144 840.40625 88.46875 C 839.14521 89.295013 837.21284 89.877137 835.28125 90.25 z "/>
</svg>
