<svg xmlns="http://www.w3.org/2000/svg"
     width="50.5" height="64.0"
     viewBox="1464.7593 13.4127 76.9266 97.5838">
  <path d="M 1474.8658,87.937684 C 1474.9376,80.75341 1475.4472,74.032994 1475.9982,73.003425 1476.5492,71.973857 1477,70.236426 1477,69.142467 1477,68.048508 1478.165,65.768924 1479.5889,64.076725 1486.2756,56.130082 1495.3813,64.252816 1501.0274,83.200745 1501.7384,85.586947 1501.4325,86.137286 1498.4007,87.926093 1494.6121,90.161407 1492.5797,94.189397 1493.4636,97.710967 1494.2809,100.96725 1495.3126,100.56777 1497.8791,96.001345 1501.7113,89.182899 1503.2776,89.107556 1508.0104,95.514017 1510.2614,98.561154 1512.53,100.7905 1513.0516,100.46812 1514.9866,99.272229 1513.9434,94.203809 1511,90.5 1507.5392,86.14518 1507.6783,86.935668 1509.1149,79.781834 1510.6114,72.33024 1516.3128,64.62346 1520.6443,64.197015 1523.3404,63.931584 1523.9439,64.361902 1525.5131,67.668779 1527.904,72.70723 1530.0815,89.704653 1528.9684,94.640131 1528.0371,98.769287 1528.5442,100.31192 1530.0634,97.97104 1534.4302,91.242194 1535.5173,72.968222 1532.112,63.533017 1530.0018,57.68637 1525.748,52 1523.4844,52 1522.8565,52 1520.2517,53.385116 1517.6959,55.078035 1511.3522,59.279927 1509.6287,58.767241 1509,52.491319 1508.725,49.746093 1508.7556,45.074874 1509.068,42.110832 1509.55,37.538218 1510.1917,36.212438 1513.3033,33.360832 1517.6935,29.337539 1520.6121,29.054564 1522.182,32.5 1524.688,38.000207 1526.8999,32.860137 1524.7717,26.481976 1523.5734,22.890964 1523.1292,22.514205 1520.2469,22.644682 1518.1554,22.739365 1515.269,24.208073 1511.8948,26.894682 1505.4902,31.994134 1502.8741,32.146662 1500.1784,27.577799 1497.2417,22.600415 1495.0171,21.703256 1491.2669,23.983866 1487.6228,26.200008 1486.2532,30.782854 1487.9854,34.964633 1489.2585,38.038332 1492.5455,39.219339 1497.2475,38.292542 1502.1053,37.335044 1503.3444,39.44911 1502.6312,47.478215 1501.863,56.126105 1501.18,58.71696 1499.498,59.362401 1498.7803,59.637814 1494.5464,58.286562 1490.0894,56.359619 1485.6324,54.432676 1481.2048,53.006491 1480.2503,53.190321 1478.0984,53.604738 1471.9071,67.644722 1471.2309,73.643461 1470.3999,81.016043 1472.0329,101 1473.4663,101 1474.4202,101 1474.7677,97.756475 1474.8658,87.937684 z M 1508.5179,100.59295 C 1503.3556,92.8156 1502.7557,92.486634 1500.1534,96.0064 1498.9478,97.636994 1497.5313,100.10262 1497.0055,101.48556 1494.9345,106.93261 1491,103.28035 1491,95.910905 1491,92.273711 1491.5642,91.153662 1495.0815,87.807731 L 1499.1629,83.925135 1497.0815,79.931774 C 1495.9367,77.735425 1495,75.257991 1495,74.426365 1495,72.268438 1486.0657,63 1483.9856,63 1479.0609,63 1476.829,71.266288 1476.9123,89.196981 1476.9499,97.28032 1476.5675,104.14925 1476.0627,104.46127 1475.5578,104.77329 1474.0087,104.00965 1472.6201,102.76429 1470.2336,100.62386 1470.059,99.761559 1469.4274,87 L 1468.7593,73.5 1472.0157,65 C 1474.0933,59.57717 1476.4564,55.349304 1478.5434,53.321456 L 1481.8147,50.142913 1489.011,53.071456 C 1492.9689,54.682155 1496.827,56 1497.5846,56 1499.229,56 1500.0934,52.977182 1500.3276,46.407978 1500.4568,42.781295 1500.1245,41.514684 1499,41.348623 1498.175,41.226788 1495.3567,40.845056 1492.737,40.50033 1488.4549,39.936842 1487.8239,39.514213 1486.487,36.314654 1485.6692,34.357258 1485,31.931882 1485,30.924929 1485,25.873428 1490.1324,21 1495.4523,21 1498.1337,21 1502.9061,25.285966 1502.9684,27.75 1503.0227,29.897784 1505.5029,29.13155 1510.1068,25.544677 1520.5446,17.412705 1525.4354,17.784825 1527.7403,26.886335 1528.8704,31.348589 1528.881,32.97841 1527.8022,36.386335 1526.1714,41.537962 1524.1221,41.657134 1521.5019,36.752702 1519.0898,32.237625 1517.7547,32.091473 1513.9231,35.923077 1511.3893,38.456811 1510.9778,39.655578 1510.8333,44.923077 1510.7417,48.265385 1510.6292,51.7875 1510.5833,52.75 1510.4578,55.386009 1514.7649,55.56953 1517.4545,53.042775 1518.6968,51.875688 1521.3238,50.659433 1523.2923,50.339986 1526.6599,49.793502 1527.0657,50.034774 1530.1583,54.422189 1535.0359,61.342144 1537.6859,70.137087 1537.2624,78 1536.8917,84.884549 1534.7818,94.601666 1532.7318,98.865975 1531.5278,101.37049 1525.6744,104.00778 1524.3218,102.65517 1523.9677,102.30099 1524.2454,99.64547 1524.9391,96.754005 1526.4498,90.456763 1525.7675,74.343331 1523.8223,70.37917 1523.095,68.897091 1521.6936,67.192973 1520.708,66.592241 1519.2506,65.703917 1518.5441,65.966739 1516.924,68 1513.532,72.256974 1511.2201,77.349623 1510.5002,82.150186 1509.9054,86.11669 1510.095,86.953134 1511.8711,88.197154 1516.5408,91.467918 1517.8288,98.448195 1514.8332,104.25 1513.4151,106.99646 1512.3645,106.38805 1508.5179,100.59295 z"/>
</svg>
