<svg xmlns="http://www.w3.org/2000/svg"
     width="41.1" height="64.0"
     viewBox="4685.2500 16.6787 37.9124 59.1025">
  <path d="M 4689.25,61.4375 4690.3438,63.40625 C 4693.0385,61.154921 4696.3984,56.850945 4698.125,53 4701.1091,46.344421 4700.9181,40.894186 4697.5625,36.90625 4695.2471,34.154552 4694.9061,32.924246 4695.25,29.0625 4695.4739,26.547472 4696.0198,23.6 4696.4688,22.5 4697.2123,20.678712 4697.0506,20.707005 4694.875,22.78125 4691.429,26.066674 4691.5866,33.59105 4695.25,41.1875 4696.7587,44.315941 4698,47.279108 4698,47.78125 4698,49.303671 4692.9893,58.366782 4691.0312,60.375 4690.5234,60.895882 4689.897,61.217915 4689.25,61.4375 z M 4701.7812,22 C 4699.93,22 4699.0107,31.970642 4700.375,37.40625 4700.7326,38.831014 4701.7508,40 4702.625,40 4703.7925,40 4703.9962,39.536647 4703.375,38.25 4702.9104,37.2875 4702.5066,33.2375 4702.5,29.25 4702.4933,25.2625 4702.1832,22 4701.7812,22 z M 4693.5,69.09375 4694.9688,71.78125 C 4696.5516,71.225849 4698.1272,70.425035 4698.9375,69.5625 4701.4888,66.846746 4706.4815,56.679289 4707.9688,51.15625 4708.8442,47.904944 4709.6463,46.88469 4711.7812,46.375 4713.274,46.01863 4715.099,45.245308 4715.8438,44.65625 4717.7807,43.124303 4719.1624,39.060448 4718.4688,36.875 4717.8409,34.896907 4714.5419,34.314192 4713.5,36 4713.1601,36.55 4712.0258,37 4710.9688,37 4708.7068,37 4707.6401,33.750001 4707.625,26.75 4707.6194,24.1375 4707.2917,22 4706.9062,22 4704.4945,22 4704.2752,34.520091 4706.625,37.875 4708.2397,40.180215 4709.979,40.327006 4714.3438,38.5 4715.857,37.866598 4716.122,38.115789 4715.8438,40 4715.6579,41.258746 4714.825,42.620172 4714,43 4706.9863,46.229104 4706.572,46.61518 4704.3125,52.5 4701.4358,59.992449 4698.0163,66.793698 4696.5938,67.8125 4696.2307,68.072476 4694.7136,68.614136 4693.5,69.09375 z"/>
</svg>
