<svg xmlns="http://www.w3.org/2000/svg"
     width="43.5" height="64.0"
     viewBox="3551.8438 17.1534 61.9740 91.1991">
  <path d="M 3559 86.625 L 3558.3125 89.03125 C 3560.5215 89.484739 3562.7083 90.577854 3564.6875 92.5 C 3566.6696 94.425 3568.6164 96 3569 96 C 3575.0851 96 3588.5362 81.823168 3591.9062 71.84375 C 3593.9298 65.851625 3595.436 54.538725 3596.7812 35.59375 C 3597.5384 24.931736 3598.6582 23.051121 3601.5938 27.53125 C 3604.3036 31.667024 3604.8781 38.352094 3603.2812 47.375 C 3601.7148 56.226503 3602.1143 62.357572 3604.5312 67.03125 C 3606.5051 70.848232 3605.7796 72 3601.375 72 C 3597.1338 72 3596.3028 72.770352 3592.1562 80.5625 C 3588.411 87.600531 3582.1932 95.38631 3577.7188 98.6875 C 3572.7506 102.35289 3567.2915 101.73755 3559.0938 96.5625 C 3558.148 95.965484 3557.3689 95.594265 3556.5938 95.21875 L 3555.8438 97.9375 C 3558.511 99.908561 3563.2822 102.27912 3566.5 103.0625 C 3568.15 103.46419 3570.0762 103.84995 3570.7812 103.90625 C 3576.37 104.35243 3587.2911 93.604011 3593.125 81.90625 L 3596.75 74.65625 L 3601.8125 74.5625 C 3609.2267 74.455019 3609.8178 73.401301 3607.125 65.1875 C 3605.0232 58.776279 3604.9735 57.830266 3606.125 49.4375 C 3608.349 33.228059 3607.0228 26.195499 3601.0312 22.65625 C 3598.487 21.15336 3598.1756 21.181147 3596.1562 23.0625 C 3594.4951 24.610108 3593.9523 26.373894 3593.8125 30.78125 C 3593.1344 52.167639 3592.3493 58.758174 3589.1562 69.34375 C 3587.0037 76.480095 3578.9902 88.287927 3574.6562 90.71875 C 3571.3797 92.55643 3567.6288 92.239106 3566.25 90.03125 C 3565.5789 88.956692 3563.2996 87.579675 3561.1562 86.9375 C 3560.3185 86.686503 3559.6881 86.728713 3559 86.625 z "/>
</svg>
