<svg xmlns="http://www.w3.org/2000/svg"
     width="43.1" height="64.0"
     viewBox="2391.0659 11.6003 58.6242 86.9527">
  <path d="M 2442.5,78.6875 C 2441.8973,78.387937 2441.6838,77.637582 2441.375,76.09375 2441.0304,74.370822 2440.354,72.702264 2439.875,72.40625 2438.2861,71.424213 2438.974,68.020542 2441.5312,64.15625 2444.4698,59.715853 2445.6901,53.055347 2443.7812,51.84375 2441.2474,50.235395 2439.1759,51.016756 2438.125,54.03125 2436.1444,59.712804 2433.0524,63.147929 2430.1562,62.8125 2427.9273,62.554327 2427.2199,61.640327 2425.6875,57 2424.4372,53.213788 2424.02,49.699732 2424.3438,45.75 2424.7465,40.836104 2425.3664,39.402194 2428.7188,35.59375 2433.6277,30.016789 2435.7978,24.034167 2434.1875,20.5 2433.5611,19.125319 2432.537,18 2431.9375,18 2431.338,18 2428.8088,19.979968 2426.3125,22.40625 2421.9235,26.672106 2418,28.781347 2418,26.875 2418,26.365562 2416.8822,24.202595 2415.5312,22.0625 2412.5497,17.339314 2407.4785,15.600273 2405.3125,18.5625 2402.6874,22.152513 2403.6968,28.093054 2407.8438,33.5625 2411.1406,37.910731 2411.6671,39.304891 2411.5938,43.5625 2411.5133,48.226813 2411.357,48.476509 2409,48.21875 2407.625,48.068381 2404.5378,46.546748 2402.1562,44.84375 2396.7795,40.999144 2395.0659,41.951521 2396.8125,47.78125 2398.4354,53.197951 2403.7777,58.957041 2408.9375,60.875 2411.339,61.767636 2413.6155,63.175 2414,64 2414.3844,64.825 2415.2332,66.553564 2415.9062,67.84375 2416.9011,69.750878 2416.8581,70.498879 2415.6875,71.84375 2412.5467,75.45223 2411.0831,79.529428 2410.2812,86.75 2409.8375,90.745287 2409.9559,91 2412.3125,91 2414.8554,91 2419.65,85.449312 2423.4375,78.125 2425.2593,74.602002 2427.8854,74.095965 2430.3438,76.8125 2432.0864,78.738059 2435.9273,89.2932 2435.9688,92.25 2436.0011,94.552927 2439.2068,94.508617 2440.6562,92.1875 2440.9333,91.743927 2441.5158,91.480467 2442.0625,91.1875 L 2442,90 2442.5,78.6875 z M 2408.9062,19.09375 C 2411.2792,19.486081 2414.4776,23.946525 2416.4062,30.25 2416.9035,31.875159 2417.1309,31.853169 2420.2188,30.03125 2422.0345,28.959864 2425.0819,26.478045 2426.9688,24.53125 2431.0976,20.271415 2431.9905,20.135955 2431.9688,23.75 2431.9461,27.553896 2427.9882,34.241152 2424.8438,35.75 2422.4323,36.90712 2422.198,37.51431 2422.0938,43.75 2421.9499,52.349704 2423.7543,60.860371 2426.3125,63.71875 2429.9094,67.737737 2435.9559,64.301043 2439.625,56.125 2440.7161,53.693647 2441.4384,53.03226 2442.2188,53.8125 2443.8597,55.453394 2440.5718,63.122583 2436.1875,67.875 2429.3038,75.336671 2421.6501,73.95481 2417.4688,64.5 2415.3764,59.76872 2415,57.419635 2415,48.65625 L 2415,38.34375 2410.5312,32.4375 C 2406.19,26.688068 2405.0763,22.994877 2406.875,20.15625 2407.4122,19.308351 2408.1153,18.962973 2408.9062,19.09375 z M 2399.5938,45.34375 C 2400.1332,45.554783 2400.8347,45.980568 2401.75,46.65625 2403.2557,47.767835 2406.1875,49.22675 2408.25,49.90625 2411.736,51.054728 2412,51.416197 2412,55.0625 2412,57.219846 2411.6625,58.9388 2411.25,58.875 2406.1208,58.081681 2402.781,55.384698 2399.8438,49.65625 2398.0488,46.155595 2397.9754,44.710652 2399.5938,45.34375 z M 2419,72.625 C 2419.3164,72.677611 2419.6621,72.816976 2420.0625,73.03125 2422.7512,74.470168 2422.4939,76.038997 2418.6875,81.5625 2416.8706,84.199029 2414.7742,86.564834 2414.0312,86.8125 2411.9675,87.500433 2413.5069,78.495234 2416.0625,74.90625 2417.352,73.095178 2418.0507,72.467166 2419,72.625 z M 2436.9375,70.625 2438.5312,74.40625 C 2439.4044,76.496047 2440.135,80.470783 2440.1562,83.21875 2440.224,91.970225 2437.1799,91.573295 2435.5625,82.625 2435.1775,80.494791 2434.3283,77.901087 2433.6875,76.875 2432.7281,75.338712 2432.9351,74.627446 2434.75,72.8125 L 2436.9375,70.625 z"/>
</svg>
