<svg xmlns="http://www.w3.org/2000/svg"
     width="27.6" height="64.0"
     viewBox="2980.1479 10.4480 39.7671 92.3719">
  <path d="M2987.25 97.80362C2984.8804 96.635416 2984.1479 92.644656 2986.0835 91.448398C2986.6794 91.080098 2988.5616 87.791041 2990.2662 84.139381C2994.1148 75.894461 2994.7142 69.165655 2992.6036 57.901847C2989.3716 40.653708 2991.2021 30.57481 2998.9879 22.75C3007.2486 14.448031 3013.0139 17.104104 3012.9892 29.20034C3012.9832 32.115153 3012.3082 36.709019 3011.4892 39.408931C3009.2672 46.733353 3009.5511 59.314817 3012.089 66.0C3013.2375 69.025 3014.6351 72.053785 3015.1949 72.730633C3015.915 73.601323 3015.4273 75.301587 3013.5272 78.543776C3010.8816 83.058194 3010.8053 83.102442 3008.3926 81.521583C3005.247 79.460514 3004.5001 80.001881 3002.5427 85.761762C2999.99 93.273271 2995.9474 98.463176 2992.4597 98.706434C2990.8319 98.819973 2988.4875 98.413706 2987.25 97.80362Z M2995.7662 93.25C2998.1111 89.860368 3001.0 82.603202 3001.0 80.102208C3001.0 76.836277 3003.5483 75.570255 3007.1332 77.055168C3009.9151 78.207468 3010.4193 78.147115 3011.6095 76.51932C3012.7537 74.954521 3012.6704 74.156923 3011.0423 71.092457C3006.4838 62.511759 3006.1149 54.418777 3009.4778 36.769196C3010.1977 32.991252 3010.6368 29.13516 3010.4536 28.200103C3009.261 22.113227 3008.7908 21.068374 3006.9867 20.495774C3004.6827 19.764527 2998.8353 24.622312 2996.3588 29.325013C2994.1395 33.539127 2993.4923 44.900903 2995.0544 52.221648C2995.7912 55.674741 2996.4179 62.55 2996.447 67.5C2996.5011 76.689307 2994.643 83.437027 2989.8576 91.429347C2987.8067 94.854674 2988.216 96.0 2991.4909 96.0C2992.9517 96.0 2994.5951 94.942898 2995.7662 93.25Z"/>
</svg>
