<svg xmlns="http://www.w3.org/2000/svg"
     width="64.0" height="53.6"
     viewBox="5525.6456 14.1857 108.4897 90.8143">
  <path d="M 5601.0312 18.8125 C 5600.8364 18.795149 5600.569 18.922769 5600.25 19.1875 C 5597.8125 21.210455 5599.0407 30.997664 5602.3125 35.71875 C 5603.7931 37.855288 5605.0054 40.717062 5605 42.0625 C 5604.978 47.567424 5596.6638 61 5593.2812 61 C 5592.4292 61 5589.7617 59.2 5587.375 57 C 5584.9883 54.8 5582.667 53 5582.1875 53 C 5581.708 53 5579.3247 54.344474 5576.9062 55.96875 C 5574.3796 57.665729 5572.1299 58.536155 5571.625 58.03125 C 5570.4533 56.859562 5570.4294 45.168584 5571.5938 44.03125 C 5572.0977 43.538932 5574.075 42.989213 5576 42.8125 C 5578.7839 42.556938 5579.582 42.034416 5579.8438 40.1875 C 5580.0247 38.910412 5581.2622 36.243412 5582.5938 34.28125 C 5585.1868 30.460022 5586.008 21.736449 5583.9062 20.4375 C 5583.3056 20.066243 5581.483 21.386202 5579.8438 23.375 C 5578.2045 25.363798 5576.3704 27 5575.7812 27 C 5575.1921 27 5573.2908 25.374351 5571.5625 23.375 C 5567.7973 19.019339 5565.5988 19.285465 5562.1875 24.5625 C 5559.3263 28.988491 5557.1004 28.75211 5554.6562 23.75 C 5552.7033 19.753298 5551.8278 19.254352 5550.25 21.25 C 5547.6071 24.592946 5548.8272 34.036219 5552.1562 36.09375 C 5552.8994 36.55305 5552.8498 37.407762 5552.0312 38.9375 C 5550.4253 41.938188 5552.115 43.796459 5556.8125 44.1875 L 5560.5 44.5 L 5560.4688 50.21875 C 5560.435 58.290696 5559.415 58.866025 5552.6875 54.5625 C 5546.5569 50.640806 5543.6188 50.190374 5540.1875 52.59375 C 5536.9134 54.88697 5532.2708 65.388482 5530.9688 73.5 C 5529.6456 81.743048 5530.5572 95.49396 5532.625 98.75 C 5533.5908 100.27086 5535.022 101 5537.0625 101 L 5540.0938 101 L 5539.4062 93.5 C 5538.3282 81.603195 5542.6053 64.993575 5546.75 65 C 5550.0069 65.005049 5556.7225 72.158819 5558.4375 77.46875 C 5559.9583 82.17779 5559.9489 82.586312 5558.1875 84.96875 C 5552.6024 92.523173 5552.2014 97.968557 5557.125 99.53125 C 5559.4829 100.27961 5560.0634 99.758156 5563.2188 94.0625 C 5564.1557 92.37132 5565.3226 91 5565.8438 91 C 5566.3649 91 5568.8624 93.076346 5571.375 95.625 C 5575.7521 100.06479 5576.0505 100.21413 5578.9062 99.03125 C 5579.0682 98.964176 5579.3254 98.964716 5579.5 98.90625 L 5579.5 98 L 5579.9375 86 C 5578.3505 85.032633 5576.7622 84.009155 5575.25 82.65625 C 5573.3882 80.99053 5573.0801 79.998944 5573.625 77.0625 C 5574.4405 72.667445 5578.6227 67 5581.0312 67 C 5582.014 67 5584.6959 68.575 5587 70.5 C 5593.5056 75.935256 5597.0541 75.471386 5603.6875 68.34375 C 5608.6779 62.981516 5615 50.769459 5615 46.5 C 5615 43.486431 5616.9487 41.161737 5620.4688 40 C 5626.6621 37.955997 5630.1353 31.011789 5626.4688 27.96875 C 5625.1901 26.907565 5624.4197 27.054795 5622 28.84375 C 5616.5853 32.847 5613.577 30.813383 5614.1562 23.53125 C 5614.554 18.529548 5614.3529 18.185727 5612.4062 20.75 C 5610.5229 23.231195 5610.665 29.955917 5612.6562 32.15625 C 5614.6578 34.367924 5619.286 34.565303 5621 32.5 C 5622.5599 30.620456 5625 30.543206 5625 32.375 C 5625 33.996217 5623.2098 35.624542 5618.75 38 C 5615.014 39.989911 5614.0603 41.551886 5609.9688 52.5625 C 5607.7926 58.418681 5605.6705 62.043751 5602.1875 65.8125 C 5596.7064 71.743361 5593.6836 72.418967 5590.0312 68.53125 C 5587.0027 65.307475 5581.75 63.551507 5579.2188 64.90625 C 5576.1325 66.557996 5571.8211 72.89967 5570.8438 77.25 C 5569.9671 81.151451 5570.0791 81.45004 5573.9688 85.1875 C 5577.8728 88.938875 5578.6766 91.095688 5577.4062 94.40625 C 5576.9139 95.68942 5576.0477 95.349431 5572.7188 92.5 C 5567.3281 87.885783 5564.9713 87.977061 5561.4688 93.03125 C 5559.0609 96.505724 5558.4561 96.893591 5557.25 95.6875 C 5556.0439 94.481408 5556.066 93.776706 5557.3438 90.71875 C 5558.1622 88.760101 5559.7716 86.655226 5560.9375 86.03125 C 5562.738 85.067682 5562.9628 84.326615 5562.375 81.1875 C 5561.292 75.403995 5559.4012 71.631819 5555.8125 68.09375 C 5546.3214 58.736564 5541.4595 60.734655 5537.4375 75.6875 C 5535.9192 81.331948 5535.4196 93.617746 5536.5625 97.21875 C 5537.546 100.31735 5535.2571 99.157858 5534.1562 96 C 5530.0439 84.20292 5532.8897 63.883222 5539.8125 55.75 C 5542.0913 53.072731 5545.9965 53.646457 5551.7188 57.5 C 5554.5773 59.425 5557.8647 61 5559 61 C 5561.747 61 5563.1243 57.128329 5563.25 49.15625 C 5563.359 42.242966 5562.5409 41.026677 5557.75 41 C 5556.2375 40.991578 5555 40.570571 5555 40.03125 C 5555 38.837676 5560.9401 29.629957 5564.375 25.5 C 5566.5917 22.834799 5567.0166 22.667399 5568.3438 24 C 5570.4318 26.096482 5576 37.088013 5576 39.125 C 5576 40.286386 5575.4026 40.654772 5574.0938 40.3125 C 5573.0501 40.039548 5571.25 40.318705 5570.0938 40.9375 C 5568.2008 41.950596 5568 42.943998 5568 50.90625 C 5568 62.388459 5569.1438 63.675999 5575.4375 59.15625 C 5577.8482 57.425025 5580.4473 56 5581.2188 56 C 5581.9901 56 5584.0086 57.541117 5585.6875 59.4375 C 5589.5813 63.835621 5593.0666 64.793958 5596.3438 62.34375 C 5600.3352 59.359428 5604.7795 51.954075 5606.625 45.21875 L 5608.3438 38.9375 L 5604.9062 35.40625 C 5601.6433 32.038716 5601.5118 31.572511 5601.625 24.9375 C 5601.7021 20.420255 5601.6159 18.864554 5601.0312 18.8125 z M 5607.0938 20 C 5604.6422 20 5604.2469 29.475304 5606.5625 32.78125 C 5607.4187 34.003628 5608.7371 35 5609.5 35 C 5610.5879 35 5610.4473 34.000033 5608.8438 30.375 C 5607.5485 27.446689 5607.0103 24.698641 5607.375 22.875 C 5607.6917 21.291963 5607.5711 20 5607.0938 20 z M 5551.75 24.03125 C 5553.1698 24.111378 5556.9131 31.016102 5556.3438 32.5 C 5555.5446 34.582433 5554.3758 34.370058 5552.5625 31.78125 C 5550.9748 29.514544 5550.3907 23.95454 5551.75 24.03125 z M 5581.0625 26.6875 C 5581.704 26.823369 5582 27.572764 5582 28.9375 C 5582 29.94411 5581.1436 31.828358 5580.0938 33.125 L 5578.1875 35.5 L 5576.9375 32.78125 C 5575.8255 30.340623 5575.9453 29.864771 5578.0938 28.125 C 5579.4297 27.043202 5580.421 26.551631 5581.0625 26.6875 z "/>
</svg>
