<svg xmlns="http://www.w3.org/2000/svg"
     width="26.5" height="64.0"
     viewBox="1874.5000 15.0015 36.8238 89.0101">
  <path d="M 1882.6562 83.28125 L 1881 87.15625 C 1881.8761 87.021247 1883.3082 87.422087 1885.375 88.5 C 1886.9504 89.321611 1888.6192 90 1889.0938 90 C 1892.8864 90 1898.5388 66.98929 1899.5312 47.5 C 1900.3294 31.823184 1901.1402 25.733945 1902.3125 26.90625 C 1903.8947 28.488517 1903.8252 65.558393 1902.2188 74.875 C 1900.9453 82.260418 1897.1517 91.692061 1894.3438 94.5 C 1892.2652 96.578513 1889.1184 96.372065 1885 93.875 C 1881.8083 91.939824 1880.5038 90.65156 1880.1562 89.09375 L 1878.5 93 L 1878.5625 93.34375 C 1879.2945 92.901955 1879.946 93.096216 1880.5625 94.09375 C 1880.9374 94.700277 1883.53 96.27333 1886.3125 97.5625 C 1891.5986 100.01157 1892.1217 99.954255 1895.7188 96.71875 C 1896.6586 95.873423 1897.2304 95.433742 1897.875 95.3125 L 1899.875 91.84375 C 1899.444 91.379772 1899.1995 90.903632 1899.3438 90.5 C 1899.5259 89.990493 1899.9431 89.796039 1901 89.84375 L 1903.4062 85.65625 C 1903.0194 84.923174 1903.079 83.870863 1903.4375 81.71875 C 1906.8097 61.475688 1907.3238 28.954409 1904.3438 24.40625 C 1900.8024 19.001457 1898.1915 22.691475 1898.1562 33.09375 C 1898.0989 50.05632 1894.558 74.660404 1891.0625 82.5625 L 1889.0938 87.03125 L 1885.5625 85.3125 C 1883.9974 84.566153 1883.1381 83.99473 1882.6562 83.28125 z "/>
</svg>
