<svg xmlns="http://www.w3.org/2000/svg"
     width="35.4" height="64.0"
     viewBox="2026.5425 16.3330 49.8258 90.0029">
  <path d="M2061.4796 101.23469C2060.9185 100.83061 2059.7935 99.184844 2058.9796 97.577432C2054.8562 89.432833 2054.8715 89.436997 2051.2115 95.468392C2049.378 98.489875 2047.8061 99.947018 2046.357 99.968392C2042.1074 100.03107 2041.9104 94.541843 2045.9023 87.30203L2048.7684 82.10406L2046.4154 77.30203C2045.1214 74.660913 2044.0485 71.067824 2044.0313 69.317388C2044.0092 67.075771 2043.433 65.954831 2042.0825 65.526172C2036.5221 63.761376 2030.5425 54.784392 2031.1908 49.174954C2031.5804 45.804065 2033.019 45.795331 2036.774 49.141058C2038.4043 50.593639 2040.6699 52.077848 2041.8087 52.439299C2043.5588 52.994732 2044.0427 52.508404 2044.9341 49.298242C2046.8558 42.377895 2046.3155 39.248808 2042.5481 35.481413C2037.3365 30.26979 2036.3148 21.81402 2040.8192 21.172713C2042.4183 20.945046 2044.145 21.934282 2046.4919 24.422713C2048.3475 26.390221 2050.2334 27.991811 2050.6828 27.981803C2051.1323 27.971794 2053.5002 26.608346 2055.945 24.951919C2061.8893 20.924366 2064.6055 20.333037 2067.0403 22.536466C2071.0953 26.20619 2068.6486 31.734821 2061.5872 34.858419C2057.3464 36.734327 2057.2171 36.93207 2056.1218 43.22179C2054.9363 50.029759 2054.8012 64.465204 2055.876 69.487789C2057.0724 75.078233 2063.4184 73.239245 2066.7543 66.335429C2068.5689 62.580057 2070.7156 62.033795 2070.1325 65.475811C2069.7066 67.989919 2065.5651 72.976395 2061.9968 75.271379C2058.8376 77.303279 2054.7469 76.388782 2053.5976 73.393688C2052.1438 69.605325 2051.7666 53.295444 2052.964 46.0C2054.4116 37.180329 2055.9844 34.322304 2060.4074 32.474249C2064.6407 30.705466 2066.3221 28.590093 2065.5152 26.047988C2064.403 22.54353 2060.4382 23.509132 2055.4474 28.5C2052.9724 30.975 2050.5955 33.0 2050.1655 33.0C2049.7355 33.0 2048.0598 31.210637 2046.4418 29.023638C2042.931 24.278171 2040.4736 23.655383 2041.4163 27.75C2041.7646 29.2625 2043.8367 32.134692 2046.0211 34.132649L2049.9927 37.765298L2048.9133 43.132649C2044.7351 63.907703 2046.7085 77.373939 2054.5501 81.596931C2059.6294 84.332292 2065.5493 81.531525 2069.6327 74.46127C2070.2557 73.382571 2071.0797 72.798959 2071.4637 73.164354C2072.3683 74.024919 2070.4034 77.804323 2067.3424 81.091703C2065.2881 83.297921 2065.0831 84.08848 2065.9646 86.406803C2067.5516 90.580891 2067.1975 95.16384 2065.011 98.75C2062.8246 102.33596 2062.9179 102.27028 2061.4796 101.23469Z M2043.8164 58.673366C2044.0707 56.524694 2043.5812 55.791259 2041.3182 54.930882C2039.7702 54.342333 2037.7126 53.144874 2036.7457 52.269861C2034.0188 49.802022 2033.6521 51.397759 2035.9232 55.849468C2039.1898 62.252563 2043.2219 63.695089 2043.8164 58.673366Z M2051.9469 89.869709C2053.5559 87.015457 2053.7263 86.017737 2052.7439 85.202394C2049.9485 82.882459 2044.4446 90.938923 2045.6215 95.62794L2046.2854 98.273137L2048.0929 95.886569C2049.087 94.573956 2050.8213 91.866369 2051.9469 89.869709Z M2063.9847 92.25C2063.9654 86.280717 2062.9566 84.561598 2060.02 85.493659C2058.1431 86.089361 2057.8883 86.691406 2058.4097 89.298397C2059.1243 92.871741 2061.5972 97.0 2063.0231 97.0C2063.5604 97.0 2063.9931 94.8625 2063.9847 92.25Z"/>
</svg>
