<svg xmlns="http://www.w3.org/2000/svg"
     width="44.0" height="64.0"
     viewBox="4150.5000 48.7618 39.0532 56.7935">
  <path d="M 4158.125 86.8125 L 4158 87.5 L 4154.5 98 L 4154.5 98.34375 C 4155.3323 98.36725 4156.3076 98.704084 4158.0625 99.40625 C 4163.4335 101.55533 4165.8298 101.41653 4171.3438 98.625 C 4173.9225 97.319494 4176.2655 96.644494 4176.5625 97.125 C 4177.61 98.819877 4181.8938 97.985246 4183.4375 95.78125 C 4185.5532 92.760613 4185.4028 91.071688 4182.75 88.25 C 4180.3961 85.746195 4180.1052 81.913079 4180.9688 65.4375 C 4181.1452 62.072274 4180.7461 58.40644 4180.0938 57.1875 C 4177.7252 52.761839 4171.6023 55.609281 4169.0625 62.3125 C 4168.4759 63.860804 4168 69.999538 4168 75.96875 C 4168 81.937962 4167.7401 87.536266 4167.4062 88.40625 C 4166.6388 90.406286 4164.7033 90.432119 4160.5 88.4375 C 4159.3791 87.905616 4158.6683 87.40428 4158.125 86.8125 z M 4175.875 57.375 C 4176.3989 57.419638 4176.9142 57.914108 4177.9062 58.90625 C 4180.4068 61.406683 4180.4623 62.417925 4178.4062 70.34375 C 4176.514 77.638245 4177.1909 85.16185 4180.0625 88.8125 C 4183.4744 93.150037 4181.4768 97.689242 4178 93.5 C 4176.288 91.437142 4175.2549 91.603413 4171.8125 94.5 C 4169.6485 96.320894 4167.6723 97 4164.5312 97 C 4159.5082 97 4155.4644 94.366284 4156.9375 92.0625 C 4157.7205 90.8379 4158.4559 90.830019 4161.9062 91.96875 C 4165.1136 93.027279 4166.2315 93.037512 4167.4062 92.0625 C 4170.1658 89.772249 4171.284 84.057105 4170.5938 75.78125 C 4169.8609 66.992457 4170.973 61.217117 4173.9062 58.5625 C 4174.8228 57.732999 4175.3511 57.330362 4175.875 57.375 z "/>
</svg>
