<svg xmlns="http://www.w3.org/2000/svg"
     width="30.7" height="64.0"
     viewBox="230.5372 18.0000 41.6801 86.7814">
  <path d="M 238.09375 28.8125 L 238.75 31.90625 C 239.97163 30.774697 241 29.609821 241 28.96875 C 241 28.557006 242.13813 27.475306 243.53125 26.5625 C 245.92666 24.992971 246.2309 25.019224 248.96875 26.96875 C 253.13845 29.937839 253.876 33.597816 253.84375 51.1875 C 253.82793 59.81605 254.13183 67.416227 254.53125 68.0625 C 254.93067 68.708774 257.18853 70.07488 259.5625 71.125 L 263.90625 73.03125 L 262.53125 77.53125 C 261.10658 82.265087 255.98093 90.915709 253.28125 93.15625 C 251.90371 94.299507 251.21196 93.910661 248.1875 90.3125 C 246.26214 88.021912 243.39707 83.120665 241.8125 79.40625 C 238.64601 71.98365 238.77815 71.655501 244.9375 70.5 C 246.89691 70.132413 248.81341 69.293269 249.21875 68.65625 C 250.67513 66.367429 250.03309 46.980715 248.28125 40.40625 C 246.41307 33.395228 245.16623 32.798333 239.78125 36.8125 L 240.125 38.46875 C 241.48511 37.10031 242.72319 36 243.1875 36 C 245.43446 36 247.62595 50.649044 247.1875 62.65625 L 247 67.78125 L 242.25 68.6875 L 237.5 69.5625 L 237.75 74.34375 C 237.89311 77.097972 237.36479 80.327687 236.5 82 C 234.77588 85.334092 234.53722 91.683829 236 95.53125 C 237.24226 98.798641 239.05829 98.328881 240.3125 94.4375 C 242.08856 88.927012 242.77727 88.904592 247.90625 94.28125 L 252.75 99.375 L 255.5 95 L 258.25 90.65625 L 260.15625 93.09375 C 261.21577 94.4238 262.51971 96.5125 263.03125 97.75 C 264.28433 100.78139 265.50283 100.5886 266.9375 97.125 C 268.21733 94.03522 267.1184 84.954167 264.96875 80.9375 C 264.16828 79.441814 264.17621 77.934553 265.03125 75.34375 C 266.36245 71.310177 265.94462 70.722297 260.75 69.0625 C 258.69516 68.405933 256.77667 67.435718 256.46875 66.9375 C 256.16083 66.439282 255.91806 58.784533 255.9375 49.90625 C 255.96557 37.088686 255.65251 33.067159 254.375 30.375 C 252.75991 26.971459 247.69094 22 245.84375 22 C 245.30024 22 242.67858 24.25 240 27 C 239.31608 27.702151 238.74207 28.20467 238.09375 28.8125 z M 239.03125 81 C 240.83771 81 241.64366 86.425098 240.25 89.21875 C 238.39062 92.945977 236.98325 92.738476 237 88.75 C 237.01716 84.667967 237.98462 81 239.03125 81 z M 263.1875 84.09375 C 264.26054 84.335218 265 86.675936 265 90.59375 C 265 94.799643 263.96191 94.93442 261.65625 91.03125 C 260.29243 88.722485 260.16316 87.594906 261 86.03125 C 261.78191 84.570235 262.54368 83.948869 263.1875 84.09375 z "/>
</svg>
