<svg xmlns="http://www.w3.org/2000/svg"
     width="32.8" height="64.0"
     viewBox="5908.3125 19.6544 43.6187 85.0644">
  <path d="M 5913.0625 100.71875 C 5913.4728 100.68125 5913.7446 100.67456 5914.2188 100.625 C 5920.8598 99.930866 5925.4362 97.61009 5928.5938 93.3125 C 5930.5912 90.594032 5937.2439 77.319964 5938.375 73.78125 C 5938.7978 72.458734 5939.6264 72.175283 5941.875 72.625 C 5944.1829 73.086576 5945.0505 72.786349 5945.9062 71.1875 C 5947.9312 67.403962 5947.0866 64.77742 5942.125 59.53125 C 5936.4784 53.560829 5935 48.712045 5935 36.125 C 5935 29.079313 5934.7514 28.111291 5932.4375 25.9375 C 5930.047 23.69175 5929.7111 23.654365 5927.1875 25.0625 C 5922.8706 27.471249 5921.3875 33.680809 5922.9062 42.96875 C 5923.5845 47.116794 5925.0028 53.348316 5926.0625 56.84375 C 5928.7707 65.776438 5928.5749 71.125862 5925.3125 76.8125 C 5920.6737 84.897999 5917.2518 88.687133 5913.9688 89.34375 C 5913.499 89.437706 5912.8727 89.382235 5912.3125 89.375 L 5912.4688 91.84375 C 5917.3586 91.479094 5920.0162 89.255957 5925.0938 81.25 C 5930.4329 72.831569 5931.235 66.702628 5928.2188 56.9375 C 5925.5077 48.160138 5923.522 35.993312 5924.3125 32.84375 C 5924.6687 31.424634 5925.866 29.182047 5926.9375 27.875 C 5928.7419 25.673951 5928.9925 25.612978 5930.5312 27.125 C 5931.7827 28.354736 5932.2691 30.987918 5932.5 37.8125 C 5932.6687 42.795418 5933.375 48.593301 5934.0625 50.6875 C 5935.6091 55.397983 5939.3153 61.378359 5941.7812 63.15625 C 5946.3546 66.453476 5945.5656 70.381947 5940.5312 69.4375 C 5937.1423 68.801733 5936.5175 69.567299 5934.4688 76.8125 C 5933.2997 80.946527 5927.0147 91.432638 5924.0625 94.15625 C 5922.2466 95.831664 5919.0344 97.253276 5915.4375 98 C 5914.4349 98.208145 5913.7065 98.298117 5912.9062 98.40625 L 5913.0625 100.71875 z "/>
</svg>
