<svg xmlns="http://www.w3.org/2000/svg"
     width="41.9" height="64.0"
     viewBox="2520.0000 51.0000 35.0935 53.6188">
  <path d="M 2527.6562 86.5 L 2527.5 87.5 L 2526.25 91.03125 C 2526.7635 90.725941 2527.5019 90.7429 2529.0938 91.34375 C 2533.4978 93.006134 2535.3338 91.354103 2536.2812 84.90625 C 2539.2788 64.507168 2541.9514 57 2546.1562 57 C 2547.502 57 2546.5509 70.071023 2545 72.96875 C 2544.4749 73.94996 2543.9739 77.222306 2543.875 80.25 C 2543.7368 84.478938 2544.1917 86.461161 2545.8438 88.78125 C 2547.0266 90.44231 2548 92.078654 2548 92.40625 C 2548 93.594701 2545.2141 92.962961 2544 91.5 C 2543.3153 90.675 2542.1944 90 2541.5 90 C 2540.0831 90 2536.6562 94.746061 2536.6562 96.71875 C 2536.6562 98.208218 2536.5816 98.237883 2535.5938 97.25 C 2534.8654 96.521725 2534.4776 96.455133 2530.4375 96.15625 C 2528.0486 95.979516 2526.0199 94.595391 2525.5312 93.125 L 2524 97.5 L 2524 97.5625 C 2524.8114 97.646219 2525.7292 97.836291 2527.5 98.4375 C 2533.9249 100.61882 2535.7373 100.39813 2538.8125 97.03125 C 2540.8084 94.846012 2541.8982 94.334665 2543 95.03125 C 2545.2601 96.46011 2548.5965 96.197618 2550.0312 94.46875 C 2551.0935 93.188914 2550.944 92.222759 2549.0625 88.875 C 2547.1515 85.474926 2546.8573 83.846151 2547.3125 78.65625 C 2547.61 75.264908 2548.363 70.25 2548.9688 67.5 C 2549.5746 64.75 2549.778 60.8125 2549.4375 58.75 C 2548.9335 55.696551 2548.4155 55 2546.5625 55 C 2543.3778 55 2539.2225 59.494243 2537.9062 64.375 C 2537.0093 67.701313 2534.1581 85.251583 2534.0312 88.25 C 2534.0138 88.6625 2532.6708 89 2531.0312 89 C 2529.0991 89 2528.2297 88.566209 2527.6562 86.5 z "/>
</svg>
