<svg xmlns="http://www.w3.org/2000/svg"
     width="41.2" height="64.0"
     viewBox="308.0312 14.1656 41.0666 63.8344">
  <path d="M 312.5 56.34375 L 315.59375 57.28125 L 319.1875 58.375 L 318.46875 66.1875 C 317.82191 73.494768 317.92533 74 319.75 74 C 322.44025 74 324.60804 71.204485 325.40625 66.75 C 325.77584 64.6875 326.39252 63 326.75 63 C 327.10749 63 328.61524 64.178557 330.125 65.625 C 333.92267 69.2634 336.02482 68.250754 335.96875 62.78125 C 335.94461 60.426488 335.21201 56.7 334.375 54.5 C 333.53799 52.3 332.62601 49.789466 332.34375 48.90625 C 332.01361 47.873227 333.86504 45.259954 337.5 41.625 C 340.60782 38.517178 343.57593 34.533961 344.09375 32.75 C 345.0979 29.290584 344.29972 21 342.96875 21 C 342.17543 21 339.15967 24.510833 335.65625 29.5 C 333.39955 32.713726 331.50968 31.572775 330 26.125 C 327.94409 18.706113 325.33315 18.165637 322.3125 24.5 C 320.84172 27.584262 320.79303 28.539024 321.9375 31.78125 C 322.66191 33.833467 323.90736 36.259485 324.71875 37.1875 C 325.91168 38.551884 325.97558 39.508785 325.0625 42.1875 C 324.44145 44.009485 323.31217 46.344381 322.53125 47.375 C 321.15775 49.187655 320.96315 49.154385 316.59375 46.59375 C 314.27927 45.237369 312.98432 44.321897 312.03125 42.5 L 312.25 49.21875 C 312.47219 48.327631 312.97545 48.02477 314.75 48.46875 C 316.2625 48.847166 317.87267 49.812541 318.3125 50.59375 C 318.75233 51.374958 319.74138 52 320.53125 52 C 322.19424 52 326.41861 45.97036 328.0625 41.25 C 329.07504 38.342514 328.92083 37.703073 326.59375 34.9375 C 323.91125 31.749531 322.94172 24.772086 325 23.5 C 325.95899 22.90731 326.41867 23.751223 329 30.6875 C 329.65051 32.43548 330.83856 34.123722 331.65625 34.4375 C 333.18574 35.024419 337.70486 31.149531 339.75 27.5 C 340.58093 26.01722 341.15846 25.79257 342 26.625 C 344.30612 28.906177 341.39659 35.355776 336 39.90625 C 333.24743 42.227248 331 44.689593 331 45.375 C 331 46.060407 329.9875 48.013247 328.75 49.71875 C 327.5125 51.424253 325.84017 53.754899 325.03125 54.90625 C 324.22233 56.057601 323.32233 56.96476 323.03125 56.90625 C 322.28487 56.756224 316.92961 54.925083 314.25 53.90625 C 313.19442 53.504902 312.65819 52.750507 312.34375 51.8125 L 312.5 56.34375 z M 330.625 52.1875 C 330.99609 52.141076 331.25463 52.621005 331.75 53.5625 C 332.31143 54.629529 333.08153 57.4125 333.46875 59.75 C 334.31547 64.861381 333.19447 65.216714 329.59375 60.9375 C 326.5053 57.267087 326.47427 56.871031 328.875 53.90625 C 329.77916 52.789669 330.25391 52.233924 330.625 52.1875 z M 322.65625 59 C 324.81876 59 325.09427 61.028295 323.6875 66.4375 C 322.01127 72.882842 319.98169 73.656858 320 67.84375 C 320.0183 62.036889 320.94277 59 322.65625 59 z "/>
</svg>
