<svg xmlns="http://www.w3.org/2000/svg"
     width="23.4" height="64.0"
     viewBox="2737.6250 15.8512 32.9472 89.9658">
  <path d="M 2741.625 80.78125 L 2742.2188 83.4375 C 2744.9879 81.489612 2747.385 80.041275 2747.6562 80.3125 C 2748.9757 81.632034 2746.7599 86.0588 2744.0938 87.4375 C 2743.7876 87.595816 2743.5438 87.81323 2743.25 88 L 2743.8438 90.65625 C 2745.1703 89.552154 2746.9 88 2747.1875 88 C 2747.6636 88 2748.5081 89.198284 2749.0625 90.65625 C 2749.8994 92.857606 2749.6764 93.70543 2747.8438 95.65625 C 2746.2104 97.394923 2746.0338 98 2747.125 98 C 2747.9359 98 2749.1249 97.468874 2749.7812 96.8125 C 2750.7059 95.887956 2751.6537 96.248087 2753.9062 98.40625 C 2757.4664 101.81698 2760.648 101.58681 2760.1562 97.96875 C 2759.9713 96.607307 2759.4088 95.085 2758.9062 94.5625 C 2757.5883 93.191845 2757.8013 77.915993 2759.1875 73.90625 C 2759.8339 72.036677 2761.6339 68.41083 2763.1875 65.875 C 2766.5402 60.402935 2766.5722 59.83241 2764.0625 54.5625 C 2760.297 46.655463 2759.4531 39.154774 2761.2812 29.875 C 2762.4651 23.866221 2762.6172 21.372357 2761.8125 20.875 C 2760.1559 19.851178 2753.526 23.679918 2752 26.53125 C 2751.0659 28.276756 2749.8346 29 2747.8438 29 C 2744.605 29 2744.0017 30.934675 2747 31.71875 C 2750.5636 32.650664 2749.1204 40 2745.375 40 C 2742.2324 40 2742.3215 41.795985 2745.5 42.59375 C 2746.887 42.941856 2747.9924 43.933017 2748 44.84375 C 2748.0075 45.746626 2748.274 47.463863 2748.5938 48.65625 C 2749.0433 50.331797 2748.7124 50.899641 2747.0625 51.15625 C 2744.1113 51.615251 2744.5338 53.576209 2747.5 53.1875 C 2749.3154 52.949611 2750.2558 53.589816 2751.4375 55.875 C 2752.8669 58.639047 2752.8564 59.288247 2751.2188 63.6875 C 2749.7749 67.566281 2748.9615 68.513714 2747.0312 68.53125 C 2745.7178 68.543182 2744.4752 69.105682 2744.25 69.78125 C 2744.0109 70.498381 2744.7137 71 2745.9688 71 C 2747.7216 71 2748.0705 71.520177 2747.8125 73.75 C 2747.5909 75.666073 2745.8203 77.587605 2741.625 80.78125 z M 2757.75 25 C 2758.1625 24.999938 2758.4996 30.512438 2758.5 37.25 C 2758.5007 48.64828 2758.6887 49.857368 2761.2188 54.65625 L 2763.9375 59.8125 L 2761.375 64.65625 C 2759.9636 67.319615 2758.3379 70.096664 2757.75 70.8125 C 2757.1621 71.528337 2756.3904 77.378337 2756.0625 83.8125 L 2755.4688 95.5 L 2753.2188 92 C 2751.9762 90.075 2750.6689 87.369482 2750.3125 86 C 2749.3302 82.224892 2751.6746 68.375063 2754.125 63.46875 L 2756.2812 59.125 L 2753.5 53.3125 C 2751.2727 48.692421 2750.6933 46.167107 2750.75 41 C 2750.7893 37.425 2751.3007 33.271786 2751.875 31.78125 C 2752.9473 28.998058 2756.4144 25.000198 2757.75 25 z "/>
</svg>
