<svg xmlns="http://www.w3.org/2000/svg"
     width="24.4" height="64.0"
     viewBox="6306.0000 19.5447 33.9261 88.9723">
  <path d="M 6316.875 23.71875 C 6316.274 23.544692 6315.612 23.565438 6314.9062 23.75 C 6311.9824 24.514593 6310 29.779002 6310 36.8125 C 6310 43.478656 6310.9617 47.01623 6315.0938 55.34375 C 6318.3784 61.963488 6318.2987 63.241005 6313.7812 72.5 C 6310.3285 79.57689 6310.1346 83.688029 6312.9375 91.0625 C 6314.0731 94.05027 6314.9997 97.702329 6315 99.1875 C 6315.0003 100.70384 6315.7673 102.33388 6316.75 102.90625 C 6319.5154 104.51697 6322.5321 104.17455 6324.5 102 C 6326.1444 100.18294 6326.183 99.461167 6325.0312 94.25 C 6324.3328 91.089519 6323.0882 87.313052 6322.25 85.875 C 6320.8711 83.509323 6320.8982 82.748793 6322.5 77.65625 C 6323.4737 74.560586 6324.8301 71.240233 6325.5312 70.28125 C 6326.7388 68.629934 6326.9443 68.630745 6328.9062 70.40625 C 6331.533 72.783417 6333.5283 71.373096 6334.9688 66.15625 C 6335.9261 62.689478 6335.7798 62.352761 6331.5938 58.03125 C 6329.1869 55.546544 6326.5495 52.15 6325.75 50.5 C 6324.3523 47.61539 6321.8202 37.552865 6320.5312 29.78125 C 6319.9608 26.341934 6318.6779 24.240925 6316.875 23.71875 z M 6315.3438 26.28125 C 6316.8074 26.76711 6317.558 29.443756 6319.0312 39.4375 C 6320.4181 48.843737 6323.9198 55.960253 6329.25 60.1875 C 6331.7279 62.152663 6333 63.997348 6333 65.59375 C 6333 68.19039 6330.3379 68.931709 6328.3125 66.90625 C 6326.2986 64.892437 6323.3803 67.712998 6321.1562 73.8125 C 6318.6467 80.695098 6318.5754 82.127464 6320.4062 87.5 C 6321.1559 89.7 6322.0615 93.6375 6322.4375 96.25 C 6323.0972 100.83329 6323.0394 101 6320.625 101 C 6317.6074 101 6317.1059 100.30841 6317.2188 96.34375 C 6317.2663 94.668974 6316.6048 91.901077 6315.75 90.1875 C 6312.5751 83.823326 6312.6355 79.938013 6316.0312 73.09375 C 6320.3787 64.331379 6320.7364 61.089375 6318 55.28125 C 6314.1401 47.088549 6313.0146 43.028034 6312.875 36.59375 C 6312.7216 29.516033 6313.6422 25.716439 6315.3438 26.28125 z "/>
</svg>
