<svg xmlns="http://www.w3.org/2000/svg"
     width="34.7" height="64.0"
     viewBox="6540.9370 15.2678 47.0513 86.7322">
  <path d="M6561.0934 94.183102C6560.0224 92.083809 6558.4383 89.778709 6557.5731 89.060658C6555.3619 87.225521 6555.5783 85.669478 6559.0593 78.375676C6561.1764 73.939696 6562.0234 70.81579 6561.8093 68.232709C6561.501 64.512392 6561.4811 64.497166 6555.8173 63.646477C6552.2946 63.117382 6549.9152 62.221443 6549.5576 61.28939C6548.7047 59.066997 6550.6705 52.730804 6552.9828 50.248839C6554.2987 48.836355 6555.0 46.712588 6555.0 44.139852C6555.0 40.597288 6554.6196 39.998675 6551.2609 38.255676C6546.102 35.578447 6544.937 31.456017 6547.9579 26.568059C6550.4204 22.583639 6553.9511 21.201072 6557.5159 22.825293C6559.3317 23.65264 6560.5961 23.549339 6562.935 22.382545C6569.1786 19.267815 6572.0 23.184817 6572.0 34.967722C6572.0 44.257659 6574.3173 51.304026 6579.0669 56.456798C6583.2761 61.023188 6583.9883 64.25047 6581.4145 67.094509C6580.2589 68.371388 6578.9094 68.697275 6576.438 68.296228C6572.7224 67.693275 6572.2277 68.383355 6569.7587 77.612973C6568.7766 81.284598 6568.9587 82.432432 6571.4567 88.309767C6574.1038 94.538253 6574.3159 98.0 6572.0504 98.0C6571.4937 98.0 6570.786 96.7625 6570.4779 95.25C6570.1699 93.7375 6569.035 90.7 6567.9561 88.5C6566.8772 86.3 6565.9957 83.348176 6565.9972 81.94039C6566.0007 78.705017 6569.9378 62.790917 6571.0208 61.634271C6571.4696 61.154961 6572.8611 61.489725 6574.1382 62.384271C6579.0462 65.821936 6580.8123 63.25257 6576.4118 59.076763C6571.6917 54.597732 6569.3345 48.273608 6568.5914 38.095301C6567.6306 24.934827 6565.5318 21.965848 6561.1381 27.551573C6556.7604 33.116915 6557.4111 47.292382 6562.5599 58.524141C6566.078 66.198638 6565.966 70.803812 6562.0678 78.76593C6560.3805 82.212192 6559.0 85.297435 6559.0 85.622026C6559.0 85.946617 6560.2899 87.851948 6561.8665 89.856096C6565.5552 94.545225 6566.7096 98.0 6564.5877 98.0C6563.7368 98.0 6562.1644 96.282396 6561.0934 94.183102Z M6557.536 26.25C6556.8704 24.491993 6553.9932 24.696159 6551.8287 26.654988C6549.2844 28.957582 6549.478 33.520965 6552.2009 35.42818C6554.3355 36.923286 6554.4562 36.827003 6556.2056 32.234884C6557.1976 29.630698 6557.7963 26.9375 6557.536 26.25Z M6558.116 56.54597C6555.8007 50.44662 6555.3375 50.2245 6553.401 54.2853C6551.1581 58.988751 6552.048 61.0 6556.372 61.0L6559.8067 61.0L6558.116 56.54597Z"/>
</svg>
