<svg xmlns="http://www.w3.org/2000/svg"
     width="43.8" height="64.0"
     viewBox="5292.0975 29.6662 52.2273 76.3472">
  <path d="M5313.1605 96.452947C5312.5222 95.052068 5311.9947 92.914568 5311.9881 91.702947C5311.9744 89.159037 5309.4042 79.070874 5308.5529 78.219559C5307.3974 77.064101 5305.036 81.650213 5303.9031 87.25C5302.592 93.730442 5300.8879 94.617662 5298.5257 90.04966C5296.0975 85.354123 5296.566 76.659023 5299.5711 70.645227C5300.9852 67.815352 5302.4858 65.146923 5302.9057 64.715385C5303.3256 64.283846 5302.8583 61.583846 5301.8673 58.715385C5298.5125 49.005943 5300.1367 35.964012 5304.4924 37.63545C5305.2831 37.938873 5306.7885 40.488431 5307.8377 43.301134C5308.887 46.113838 5310.1456 48.548546 5310.6348 48.711598C5311.1239 48.874649 5312.7181 46.306765 5314.1773 43.005189C5318.0474 34.24862 5321.5129 33.666174 5322.6194 41.586307C5323.3843 47.061189 5325.0707 51.143107 5326.3865 50.704495C5326.9985 50.500509 5328.3171 48.130745 5329.3167 45.438354C5332.426 37.064287 5333.9479 36.237133 5337.0232 41.25C5340.3248 46.631716 5338.3979 57.774694 5332.9579 64.758577C5331.2753 66.918753 5331.2815 67.235088 5333.0993 72.019304C5335.4033 78.082755 5335.5636 87.009527 5333.4422 91.111846C5331.1387 95.566265 5328.8362 94.505705 5326.6775 87.995969C5325.0075 82.959929 5322.2094 78.457271 5321.3092 79.357421C5321.1059 79.560747 5320.5363 82.204859 5320.0434 85.233227C5317.8968 98.422651 5315.694 102.01336 5313.1605 96.452947Z M5302.0 84.360599C5302.0 83.458928 5303.3897 80.462597 5305.0883 77.702085C5307.6712 73.504245 5308.002 72.299836 5307.1097 70.341486C5306.523 69.053669 5305.5936 68.0 5305.0445 68.0C5302.2719 68.0 5298.22 79.966973 5299.5614 84.193554C5300.2773 86.449084 5302.0 86.567091 5302.0 84.360599Z M5308.1571 57.614819C5309.7616 54.384626 5309.7299 54.101725 5307.1571 48.69301C5305.6957 45.6208 5304.1711 43.08306 5303.7691 43.053587C5302.2453 42.941879 5301.8372 48.165869 5302.9738 53.232343C5305.0582 62.523341 5305.5235 62.916714 5308.1571 57.614819Z M5323.2107 72.636702C5326.4019 70.212209 5327.163 66.311725 5325.2398 62.238836C5323.2911 58.111849 5320.012 56.036686 5315.405 56.014742C5311.3145 55.995258 5308.9424 58.78624 5308.7402 63.856637C5308.5187 69.412559 5312.7047 74.014902 5317.9371 73.968197C5319.8967 73.950705 5322.2698 73.351532 5323.2107 72.636702Z M5316.3776 92.197979C5316.6503 91.756867 5317.1733 88.217314 5317.5399 84.332305L5318.2065 77.268652L5315.4853 76.585658C5313.9886 76.210011 5312.5152 76.151423 5312.2112 76.455461C5311.9072 76.759499 5312.1853 79.29073 5312.8292 82.080419C5313.4731 84.870107 5314.0 88.46825 5314.0 90.07629C5314.0 92.830068 5315.2807 93.972889 5316.3776 92.197979Z M5322.0 52.779281C5322.0 49.525512 5319.4203 41.025284 5318.521 41.315652C5317.2112 41.738539 5314.1108 47.953687 5314.048 50.282224C5313.9999 52.068063 5316.9694 53.817788 5320.25 53.936614C5321.2125 53.971476 5322.0 53.450676 5322.0 52.779281Z M5332.3697 86.75C5332.7014 85.5125 5332.9788 83.569176 5332.9863 82.431501C5333.007 79.301526 5330.0463 70.0 5329.0294 70.0C5328.5381 70.0 5327.2045 71.308403 5326.0658 72.907562L5323.9955 75.815124L5327.2477 82.405761C5329.0365 86.030611 5330.785 88.997208 5331.1334 88.998199C5331.4817 88.999189 5332.0381 87.9875 5332.3697 86.75Z M5333.6116 58.537131C5336.2582 52.756244 5336.6653 44.03965 5334.3247 43.26972C5332.224 42.578735 5326.7606 56.145075 5327.6455 59.854781C5329.0501 65.742944 5330.4547 65.43273 5333.6116 58.537131Z"/>
</svg>
