<svg xmlns="http://www.w3.org/2000/svg"
     width="32.6" height="64.0"
     viewBox="4129.0641 17.0000 45.2235 88.7494">
  <path d="M 4144.3438 21 C 4143.7434 21 4141.5224 23.1375 4139.4062 25.75 C 4137.29 28.3625 4134.941 30.980767 4134.1875 31.5625 C 4133.0641 32.429786 4133.2767 33.156512 4135.4062 35.6875 C 4136.8347 37.385162 4138 39.414396 4138 40.1875 C 4138 40.960604 4138.5625 42.155491 4139.25 42.84375 C 4141.1624 44.758282 4140.8162 64.894841 4138.7188 73.6875 C 4135.8741 85.612289 4136.9508 92.759358 4142.375 98.0625 C 4145.7607 101.3726 4148.4673 101.74937 4151.8125 99.40625 C 4152.8844 98.655457 4153.61 98.318623 4154.5 98.34375 L 4154.5 98 L 4158 87.5 L 4158.125 86.8125 C 4157.2393 85.847778 4156.8723 84.538225 4156.5 81.6875 C 4156.1283 78.840842 4154.6685 72.488515 4153.2812 67.59375 C 4151.173 60.154442 4150.8729 57.52912 4151.4375 51.59375 C 4152.2195 43.372534 4153.9162 36.942632 4155.4375 36.40625 C 4156.0208 36.200584 4158.2068 35.868818 4160.2812 35.65625 C 4167.1884 34.948433 4170.2876 29.377226 4165.9688 25.46875 C 4164.0588 23.740312 4163.7681 23.736292 4160.7188 25.3125 C 4158.9433 26.230239 4156.7312 27.538565 4155.7812 28.21875 C 4154.3013 29.278489 4153.4438 28.843928 4149.75 25.21875 C 4147.3792 22.891956 4144.9442 21 4144.3438 21 z M 4143.8438 24.03125 C 4144.7766 24.075802 4146.9398 25.983146 4150.7812 30.125 L 4154.0938 33.6875 L 4151.9688 39.09375 C 4148.7141 47.350707 4148.2403 59.908062 4150.875 67.65625 C 4155.5128 81.29524 4155.6776 92.166116 4151.3438 96.5 C 4148.4776 99.366117 4144.9066 98.17901 4141.9375 93.375 C 4139.2204 88.978621 4139.0787 79.84316 4141.625 71.40625 C 4144.2815 62.604359 4144.054 46.030368 4141.1875 40 C 4140.0111 37.525 4138.503 34.775319 4137.8438 33.875 C 4136.8538 32.522865 4137.2154 31.522432 4139.9062 28.125 C 4141.6979 25.862819 4143.4775 24.013759 4143.8438 24.03125 z M 4162.4688 27.21875 C 4163.633 27.437077 4164.5 28.38911 4164.5 30 C 4164.5 32.073886 4163.962 32.558359 4161.3438 32.8125 C 4157.4205 33.19332 4156.2337 31.51406 4158.5938 28.90625 C 4159.8401 27.529085 4161.3045 27.000423 4162.4688 27.21875 z "/>
</svg>
