<svg xmlns="http://www.w3.org/2000/svg"
     width="44.2" height="64.0"
     viewBox="2368.6250 44.9525 40.7808 59.0475">
  <path d="M 2373.9375 83.53125 L 2373.625 86.1875 C 2373.7122 86.241361 2373.7544 86.257044 2373.8438 86.3125 C 2380.4531 90.415424 2381.3869 90.178125 2386.4688 83.1875 C 2389.2226 79.39922 2389.9951 77.238022 2390.5 72 C 2391.3205 63.488609 2394.6006 55.142263 2397.6562 53.75 C 2400.9802 52.235466 2401.5283 53.315843 2400.125 58.75 C 2397.1595 70.232856 2396.7368 74.196854 2397.9375 79.5625 C 2398.5864 82.462044 2399.7675 85.371403 2400.5625 86.03125 C 2402.4746 87.618105 2402.3971 90.904293 2400.4375 91.65625 C 2399.4899 92.019882 2397.6983 91.121832 2395.875 89.375 L 2392.875 86.5 L 2388.6875 91.15625 C 2382.8962 97.566365 2381.8381 97.714455 2375.5938 93 C 2374.7122 92.334456 2373.91 91.834445 2373.0625 91.28125 L 2372.625 94.84375 C 2373.3946 95.330923 2374.1405 95.781881 2375 96.5 C 2377.3041 98.425 2379.9651 100 2380.9062 100 C 2382.8828 100 2388.0442 96.382332 2390.6875 93.15625 L 2392.5 90.9375 L 2396.25 93.625 C 2399.8482 96.200232 2400.0686 96.253867 2401.9375 94.5625 C 2405.1989 91.610932 2405.4058 87.847531 2402.5625 82.5 C 2399.4985 76.737342 2399.4012 74.027913 2402 63.1875 C 2403.0962 58.615159 2404 54.014558 2404 52.96875 C 2404 50.059462 2401.0241 48.952543 2397.3438 50.5 C 2392.6181 52.487015 2389.1483 59.137788 2388.4688 67.5625 C 2388.1608 71.381105 2387.695 75.595209 2387.4062 76.9375 C 2386.8598 79.478739 2381.3924 87 2380.0938 87 C 2379.6843 87 2377.1997 85.601086 2374.5938 83.875 C 2374.2829 83.669106 2374.2131 83.709995 2373.9375 83.53125 z "/>
</svg>
