<svg xmlns="http://www.w3.org/2000/svg"
     width="37.8" height="64.0"
     viewBox="2587.7368 13.0000 55.2632 93.6188">
  <path d="M2598.7917 98.776978C2597.1358 97.004316 2595.3802 94.500021 2594.8905 93.211878C2592.8966 87.96753 2594.5544 72.100408 2597.5994 67.285183C2598.3697 66.067034 2599.0 64.181092 2599.0 63.0942C2599.0 62.007309 2599.45 60.839919 2600.0 60.5C2601.5447 59.54534 2601.1822 55.396126 2599.4269 53.939342C2594.5523 49.893775 2591.7368 36.73686 2594.5469 31.134744C2595.2738 29.685635 2597.0967 25.9125 2598.5978 22.75C2600.4379 18.873336 2601.9167 17.0 2603.1369 17.0C2604.7545 17.0 2604.9267 17.890916 2604.7581 25.38822C2604.6124 31.870858 2605.0004 34.662368 2606.4664 37.676224C2609.0483 42.98445 2614.5696 47.179261 2618.4712 46.796864C2621.1504 46.53427 2621.9275 45.636733 2625.2032 39.021845C2627.24 34.90886 2629.04 29.95886 2629.2032 28.021845C2629.4334 25.28992 2629.9402 24.5 2631.4625 24.5C2637.8502 24.5 2633.7707 50.628793 2626.3551 57.211862C2623.0745 60.124221 2616.9248 62.208477 2613.5052 61.566961C2610.7617 61.052277 2610.1692 61.333231 2609.114 63.649045C2607.1491 67.961651 2606.5363 78.564841 2607.9963 82.988738C2611.1442 92.527142 2622.2868 87.170334 2625.4989 74.574324C2626.7109 69.821554 2628.1657 69.16566 2631.0648 72.064842C2632.9698 73.969786 2633.1859 75.01342 2632.7259 80.086659C2632.3258 84.498259 2632.5562 86.216686 2633.6716 87.142419C2635.9029 88.994262 2639.0 95.590797 2639.0 98.491547C2639.0 102.57341 2636.4022 102.61877 2632.2739 98.608987C2627.9761 94.43451 2623.41 93.784451 2620.5539 96.940442C2618.3026 99.428124 2610.7638 102.0 2605.7231 102.0C2602.5959 102.0 2601.1931 101.34768 2598.7917 98.776978Z M2616.2185 96.759921C2618.8137 95.671405 2621.4563 94.155121 2622.091 93.390401C2623.6945 91.458271 2627.2801 91.654611 2630.1151 93.829783C2633.4231 96.367792 2636.0164 97.210627 2635.9269 95.718615C2635.8005 93.610401 2632.519 88.723466 2630.4678 87.588653C2629.3855 86.989894 2628.3234 86.398375 2628.1075 86.274166C2627.8916 86.149957 2628.1641 85.474957 2628.7131 84.774166C2630.2214 82.848568 2630.9971 78.836753 2630.3555 76.280149C2629.6805 73.590851 2628.0 73.223185 2628.0 75.764809C2628.0 77.68664 2624.5323 84.62903 2622.6633 86.449041C2622.0235 87.072085 2620.3874 88.350932 2619.0275 89.290924C2610.7051 95.043663 2601.557 85.07568 2604.0766 73.0C2604.593 70.525 2605.2865 67.095313 2605.6178 65.378474C2605.949 63.661635 2607.2641 60.961635 2608.5403 59.378474C2610.5807 56.847162 2611.1085 56.650758 2612.9167 57.75C2614.0476 58.4375 2615.6763 59.0 2616.5361 59.0C2618.6729 59.0 2624.2228 56.046519 2625.7506 54.096325C2628.4829 50.608524 2631.105 43.269063 2631.6662 37.538168C2632.3611 30.442169 2631.3402 30.896078 2628.0891 39.12853C2625.9693 44.496294 2620.8707 51.0 2618.7825 51.0C2616.6607 51.0 2610.701 47.547176 2607.7787 44.624821C2603.9912 40.837339 2601.0512 34.582636 2601.022 30.25C2600.9946 26.203959 2599.528 26.078258 2597.5257 29.95034C2594.5258 35.751414 2596.1585 45.958205 2601.0834 52.191362C2602.6875 54.221611 2604.0 56.297219 2604.0 56.803824C2604.0 57.310429 2602.5979 61.049317 2600.8842 65.112462C2598.3168 71.199719 2597.681 74.260101 2597.2715 82.5C2596.7791 92.40867 2596.8007 92.528696 2599.6373 95.642044C2601.2118 97.370168 2603.175 99.003974 2604.0 99.272725C2606.1735 99.980774 2610.8156 99.026114 2616.2185 96.759921Z"/>
</svg>
