<svg xmlns="http://www.w3.org/2000/svg"
     width="16.1" height="64.0"
     viewBox="2410.0150 15.1929 22.3013 88.9265">
  <path d="M2414.9525 99.761818C2414.9263 99.617818 2414.7047 81.674059 2414.46 59.886798L2414.015 20.273595L2419.6787 19.607947C2423.2103 19.192879 2425.7394 19.339351 2426.397 19.997041C2427.0964 20.696449 2427.4694 33.423828 2427.504 57.775891C2427.5327 77.974151 2427.7686 95.123981 2428.0281 95.886625C2428.3163 96.733335 2427.5266 97.546845 2426.0 97.975903C2422.9174 98.842302 2415.0174 100.11939 2414.9525 99.761818Z M2425.0 28.106989C2425.0 22.757789 2423.7472 21.523371 2419.4205 22.6093C2415.7224 23.537482 2416.168 27.894219 2420.2532 30.75C2422.0234 31.9875 2423.8157 33.0 2424.2359 33.0C2424.6562 33.0 2425.0 30.798145 2425.0 28.106989Z M2425.3307 41.97953C2426.0644 38.269757 2425.9168 37.415905 2424.3469 36.288471C2423.3311 35.558926 2421.7074 34.29557 2420.7386 33.481013C2417.8348 31.039515 2417.0 31.757237 2417.0 36.695281C2417.0 40.434805 2417.5501 41.964718 2419.7023 44.211175C2421.1886 45.762512 2422.8688 46.877068 2423.4361 46.687966C2424.0034 46.498864 2424.856 44.380068 2425.3307 41.97953Z M2424.6442 70.199595C2424.7528 67.082025 2424.1933 65.421565 2422.3716 63.455994C2419.1308 59.959045 2417.8293 60.671292 2417.354 66.202036C2417.0048 70.26521 2417.2809 71.075762 2419.6477 72.937492C2423.2682 75.785393 2424.4725 75.12549 2424.6442 70.199595Z M2425.0 56.098776C2425.0 50.396467 2424.8801 50.126807 2421.4428 48.098776C2419.4864 46.944449 2417.7086 46.0 2417.4921 46.0C2416.6987 46.0 2418.0429 58.509153 2418.8661 58.786063C2419.3337 58.943398 2420.5677 59.716587 2421.6082 60.50426C2424.64 62.799425 2425.0 62.33189 2425.0 56.098776Z M2424.9918 82.75C2424.9842 78.872444 2424.6556 78.322013 2421.2418 76.468968L2417.5 74.437937L2417.853 78.968968C2418.2386 83.917741 2420.2734 87.0 2423.155 87.0C2424.6602 87.0 2424.9985 86.217309 2424.9918 82.75Z M2425.0 93.097825C2425.0 90.741695 2424.4075 89.989094 2421.8508 89.097825C2420.1187 88.494021 2418.5437 88.0 2418.3508 88.0C2418.1578 88.0 2418.0 89.8 2418.0 92.0C2418.0 95.904762 2418.0833 96.0 2421.5 96.0C2424.696 96.0 2425.0 95.74793 2425.0 93.097825Z"/>
</svg>
