<svg xmlns="http://www.w3.org/2000/svg"
     width="54.6" height="64.0"
     viewBox="4595.3125 56.4202 41.4226 48.5306">
  <path d="M 4599.9688 92.8125 L 4599.3125 95.34375 C 4600.793 95.712019 4602.5758 96.449228 4604 97.5 C 4608.6774 100.95086 4613.0447 100.77077 4617.375 96.96875 C 4620.4454 94.272834 4621.0918 94.070475 4623.4062 95.125 C 4625.3616 96.01586 4626.6154 96.04616 4628.5 95.1875 C 4631.4026 93.864991 4631.6542 91.915972 4629.375 88.4375 C 4627.3182 85.298424 4627.94 76.82218 4630.4375 74.0625 C 4631.3951 73.004293 4632.2587 70.636221 4632.3438 68.8125 C 4632.7351 60.420214 4622.9336 67.384064 4618.9375 78.34375 C 4616.2434 85.732514 4613.2554 90 4610.75 90 C 4609.723 90 4605.9087 88.425 4602.2812 86.5 C 4602.0718 86.388841 4601.897 86.327339 4601.6875 86.21875 L 4601 88.75 C 4601.3296 88.915981 4601.5927 88.958032 4601.9062 89.125 C 4604.8711 90.703828 4608.5887 92 4610.1875 92 C 4613.3407 92 4617.5055 88.312587 4618.5312 84.625 C 4618.8584 83.448821 4619.5089 81.6 4619.9688 80.5 C 4620.4288 79.4 4621.307 77.15 4621.9375 75.5 C 4623.2627 72.032178 4627.4038 67 4628.9375 67 C 4630.5703 67 4630.1853 69.688934 4627.9062 74.15625 C 4625.3649 79.137608 4624.4934 86.157589 4626.0312 89.03125 C 4626.6569 90.200231 4626.8855 91.845893 4626.5625 92.6875 C 4626.0424 94.043012 4625.6962 94.011151 4623.4375 92.53125 C 4620.9448 90.897949 4620.7777 90.948936 4616.8125 94.53125 C 4612.1398 98.752773 4609.6794 98.777137 4603.4688 94.5625 C 4602.3707 93.817346 4601.1641 93.245434 4599.9688 92.8125 z "/>
</svg>
