<svg xmlns="http://www.w3.org/2000/svg"
     width="34.1" height="64.0"
     viewBox="1451.0000 18.6259 45.5163 85.3820">
  <path d="M 1459.5625 84.40625 L 1459.5 84.5 L 1457.5312 89.5625 C 1458.1017 89.023335 1458.6856 88.954721 1459.9688 89.75 C 1462.9022 91.567967 1466.432 91.278528 1468.4375 89.0625 C 1471.2061 86.003225 1472.8819 79.931315 1472.3125 75 C 1471.5812 68.665217 1475.657 40.562586 1477.9688 36.03125 C 1480.3062 31.449623 1482.5125 29.60763 1484.5938 30.40625 C 1486.4196 31.106888 1486.3163 32.722064 1483.4062 54.875 C 1481.443 69.820349 1481.9954 74.268158 1486.5625 81.21875 C 1487.91 83.269458 1489 85.406958 1489 85.96875 C 1489 87.93147 1485.3379 86.98254 1483.125 84.4375 C 1481.8977 83.026025 1480.3469 82.031023 1479.6875 82.25 C 1479.028 82.468977 1477.0022 85.338753 1475.1875 88.59375 C 1473.3728 91.848747 1471.1529 95.0625 1470.25 95.75 C 1468.0441 97.42964 1462.1343 97.273526 1458.75 95.4375 C 1457.2538 94.625786 1456.4343 93.856838 1456.1875 92.96875 L 1455 96 L 1455.0312 96.3125 L 1457.5 97.96875 C 1459.4387 99.268038 1462.1511 99.995742 1465.1875 100 C 1470.7923 100.00786 1473.5109 97.861077 1476.9062 90.75 C 1478.9048 86.56415 1482 84.26455 1482 86.96875 C 1482 87.506071 1483.0994 88.685731 1484.4375 89.5625 C 1486.3238 90.79844 1487.3129 90.884041 1488.9062 90.03125 C 1492.5163 88.099214 1492.4315 84.851283 1488.5625 77.8125 C 1484.366 70.177865 1483.9932 64.661056 1486.625 49 C 1489.0282 34.699835 1489.2422 31.754399 1488.0938 28.75 C 1485.753 22.625859 1477.3325 27.888108 1474.5 37.25 C 1473.627 40.135216 1471.8655 52.074652 1470.5625 63.78125 C 1469.2596 75.487848 1467.6376 85.725348 1466.9688 86.53125 C 1465.0282 88.869364 1461.1052 88.331021 1459.8438 85.5625 C 1459.6606 85.160474 1459.6607 84.791204 1459.5625 84.40625 z "/>
</svg>
