<svg xmlns="http://www.w3.org/2000/svg"
     width="43.3" height="64.0"
     viewBox="7064.5508 18.8679 58.3003 86.1074">
  <path d="M 7113.9375 88.21875 C 7111.432 86.701593 7108 83.328641 7108 82 C 7108 81.035327 7110.0886 78.338014 7112.625 76 L 7117.2188 71.75 L 7113.25 67.78125 L 7109.3125 63.84375 L 7105.9375 66.9375 C 7104.0771 68.636718 7102.0921 69.8499 7101.5312 69.65625 C 7100.0418 69.142075 7100.3634 48.069167 7101.9062 45.1875 C 7103.057 43.038163 7103.6867 42.888432 7110.25 43.1875 L 7117.3438 43.5 L 7118.1875 40.25 C 7118.8511 37.741645 7118.5844 36.105771 7117 33 C 7115.8746 30.794088 7114.5813 29 7114.125 29 C 7113.6687 29 7111.434 30.35 7109.1562 32 C 7106.8784 33.65 7104.6363 35 7104.1875 35 C 7103.2018 35 7097 26.341494 7097 24.96875 C 7097 22.86793 7095.3172 24.297744 7091.5 29.625 C 7089.3059 32.687 7087.1822 35.377174 7086.7812 35.625 C 7086.3802 35.872826 7083.9745 35.124487 7081.4375 33.96875 C 7077.1237 32.00362 7076.6874 31.984844 7074.375 33.5 C 7073.015 34.391099 7071.6486 35.768318 7071.3438 36.5625 C 7070.3836 39.064675 7071.9432 42.89908 7074.625 44.65625 C 7076.7932 46.076911 7077.8677 46.177844 7081.3438 45.25 C 7083.6218 44.641955 7085.5962 44.283726 7085.75 44.4375 C 7087.0599 45.747385 7087.9973 70.34645 7086.7812 71.5625 C 7085.7881 72.555738 7080.3867 69.251087 7078.625 66.5625 C 7076.1602 62.800706 7074.3468 63.412591 7071.5312 68.96875 C 7068.611 74.731606 7068.5508 75 7070.375 75 C 7072.3379 75 7082 82.924934 7082 84.53125 C 7082 85.2724 7081.2125 86.138769 7080.25 86.46875 C 7079.2875 86.798731 7076.7392 88.566993 7074.5938 90.40625 L 7070.6875 93.75 L 7074.0938 97.3125 C 7075.9643 99.267523 7078.1247 100.8997 7078.875 100.9375 C 7079.6253 100.9753 7082.8256 98.75 7086 96 C 7089.1744 93.25 7092.3125 91 7092.9688 91 C 7093.625 91 7096.7446 93.25 7099.9062 96 C 7103.2307 98.891503 7105.5709 100.38133 7108.0312 100.8125 L 7109.25 98.15625 C 7106.758 98.131903 7104.5642 96.563431 7099.4375 91.75 C 7094.7634 87.361609 7093.594 87.422706 7087 92.4375 C 7080.3849 97.468344 7078.0928 98.00072 7076.2188 95 C 7075.085 93.184523 7075.5333 92.615044 7080.9688 88.75 C 7084.258 86.411115 7086.9542 84.184515 7086.9688 83.78125 C 7086.9834 83.377984 7083.8579 80.902984 7080.0312 78.28125 C 7072.8551 73.364579 7071.3643 70.607768 7074.4688 68.03125 C 7075.676 67.029353 7076.4928 67.336526 7078.9062 69.75 C 7082.9663 73.810062 7087.8563 75.811674 7089.0625 73.90625 C 7090.2152 72.085416 7090.2125 65.352289 7089 50.71875 L 7088.0312 38.9375 L 7091.25 34 C 7093.0328 31.273371 7094.946 29.041132 7095.5 29.03125 C 7096.054 29.021368 7097.77 31.102669 7099.3125 33.65625 L 7102.125 38.28125 L 7099.9375 43.375 C 7097.61 48.785273 7096.0792 63.381996 7097.5 66.6875 C 7097.9317 67.691877 7098.1839 69.510446 7098.0625 70.75 C 7097.6923 74.529502 7100.7577 74.657516 7104.5312 71 C 7107.8293 67.803312 7107.9524 67.746653 7110.4375 69.375 C 7111.84 70.293938 7113 71.247336 7113 71.5 C 7113 71.752663 7110.975 74.073197 7108.5 76.65625 C 7106.025 79.239303 7104 81.859845 7104 82.46875 C 7104 83.759277 7109.5996 88.102229 7113.1562 89.875 L 7113.9375 88.21875 z M 7112.3125 31.6875 L 7114.1562 33.9375 C 7115.1678 35.186814 7116 37.028276 7116 38 C 7116 39.727678 7113.7146 42.381028 7112.9062 41.59375 C 7112.6819 41.375214 7110.9956 40.943134 7109.1562 40.65625 C 7107.3169 40.369365 7105.515 39.858778 7105.1562 39.5 C 7104.7974 39.141223 7106.2572 37.219414 7108.4062 35.25 L 7112.3125 31.6875 z M 7077.3125 35.21875 C 7078.0772 35.307232 7078.9869 35.580354 7080 36 C 7084.1179 37.705678 7085.5658 39.632507 7084.0938 41.40625 C 7081.0727 45.046294 7074.7209 43.317036 7074.1875 38.71875 C 7073.8919 36.169994 7075.0185 34.953304 7077.3125 35.21875 z "/>
</svg>
