<svg xmlns="http://www.w3.org/2000/svg"
     width="33.0" height="64.0"
     viewBox="4939.0000 19.0000 43.5863 84.6551">
  <path d="M 4943.0312 84.53125 L 4943 85 L 4945 97.40625 C 4945.2368 97.429772 4945.4068 97.387645 4945.75 97.53125 C 4949.8495 99.24664 4954.9404 99.655056 4957.6875 98.5 C 4961.5796 96.86349 4967 90.471291 4967 87.53125 C 4967 86.211193 4967.4672 83.920892 4968.0312 82.4375 C 4968.9913 79.912404 4969.1553 79.847087 4970.8438 81.375 C 4973.47 83.75177 4974.4302 83.415861 4976.3125 79.46875 C 4978.5863 74.700526 4978.4344 72.305584 4975.6875 69.6875 C 4972.0159 66.188218 4970.6263 61.485884 4970.9375 53.625 C 4971.0926 49.708282 4971.2509 42.049807 4971.3125 36.625 C 4971.4167 27.434203 4971.2649 26.633075 4969.0938 24.875 C 4967.8122 23.837307 4966.0997 23 4965.2812 23 C 4962.5986 23 4958.2292 28.848631 4956.875 34.25 C 4955.3888 40.177731 4955.4899 55.348829 4957.0625 62.65625 C 4959.7571 75.177029 4959.2683 81.458062 4955.1875 86.25 C 4952.6423 89.238678 4947.1055 88.098551 4943.0312 84.53125 z M 4965.9375 26.65625 C 4966.4214 26.742921 4966.9072 27.032194 4967.4062 27.53125 C 4968.7815 28.90663 4968.9647 31.689764 4968.75 46.90625 L 4968.5 64.6875 L 4972.25 69.53125 C 4974.9344 72.97846 4975.8511 74.958608 4975.4062 76.4375 C 4974.3596 79.916521 4973.188 80.486052 4971.0625 78.5625 C 4968.6943 76.419349 4966 77.150465 4966 79.9375 C 4966 83.754194 4961.9291 92.814677 4959.5 94.40625 C 4956.7492 96.208652 4950.6053 96.399428 4947.25 94.78125 C 4943.9669 93.197868 4944.4651 92.338901 4949.125 91.59375 C 4954.8642 90.676019 4959.4294 85.94599 4960.8125 79.46875 C 4961.9425 74.177217 4961.765 70.740567 4959.5 53.9375 C 4957.9566 42.487745 4958.2981 37.463716 4961.0625 31.9375 C 4963.0082 28.047914 4964.4858 26.396237 4965.9375 26.65625 z "/>
</svg>
