<svg xmlns="http://www.w3.org/2000/svg"
     width="40.0" height="64.0"
     viewBox="3133.5655 17.4660 54.0520 86.5271">
  <path d="M3144.0353 95.777009C3143.3189 93.424654 3141.7991 89.025 3140.658 86.0C3137.628 77.967713 3137.5655 58.090845 3140.5541 53.003268C3143.1383 48.604273 3144.8491 48.284914 3150.5576 51.135891C3155.9391 53.823516 3156.9599 53.064485 3156.9847 46.356989C3157.0012 41.885318 3156.017 41.0 3151.029 41.0C3146.25 41.0 3143.5 37.896009 3143.5 32.501769C3143.5 28.622719 3143.9763 27.417175 3146.2975 25.420556C3147.8361 24.097103 3150.2073 22.73509 3151.5669 22.393859C3155.0635 21.516256 3159.8348 23.779818 3161.5728 27.140854C3162.386 28.713384 3163.5478 30.0 3164.1545 30.0C3164.7612 30.0 3167.0009 28.425 3169.1317 26.5C3174.7037 21.466029 3176.4404 21.770364 3175.6359 27.639778C3175.2861 30.191656 3174.3341 32.779156 3173.5203 33.389778C3169.4853 36.417307 3167.0 41.424996 3167.0 46.527613C3167.0 49.354093 3167.248 51.914687 3167.5512 52.217822C3167.8543 52.520958 3170.3341 51.920958 3173.0619 50.884489C3175.7896 49.84802 3178.4317 49.0 3178.9332 49.0C3181.8231 49.0 3183.6175 64.966395 3182.0405 76.648551C3180.6519 86.934492 3176.5177 99.0 3174.3819 99.0C3173.1565 99.0 3173.0408 96.610671 3173.6153 83.172096C3174.4456 63.751472 3173.5262 60.522559 3169.5798 69.0C3166.5372 75.536222 3166.3493 78.889127 3168.8449 82.115141C3171.9449 86.122418 3172.2962 90.75674 3169.8784 95.751226C3167.9946 99.64267 3167.5645 99.993118 3166.2663 98.694888C3165.4558 97.884369 3164.4834 95.708943 3164.1053 93.860608C3163.2289 89.575344 3161.7439 89.855424 3160.6326 94.51561C3159.7109 98.380338 3157.5799 99.979925 3155.7675 98.167489C3154.2437 96.643746 3154.6657 89.875998 3156.5832 85.083621C3158.0987 81.296118 3158.069 80.74659 3156.0276 74.791245C3153.8313 68.384235 3149.447 61.0 3147.8392 61.0C3144.8189 61.0 3144.1743 72.793306 3146.5632 84.345036C3148.2381 92.443778 3148.1753 99.124063 3146.419 99.699709C3145.8244 99.894579 3144.7518 98.129364 3144.0353 95.777009Z M3169.0 90.078488C3169.0 87.39154 3168.153 85.209183 3166.1146 82.644256C3163.3753 79.197302 3163.2953 78.823324 3164.533 75.256751C3166.9854 68.190177 3169.7679 62.37492 3171.549 60.593815C3174.7194 57.423462 3175.9187 61.704963 3176.0046 76.5C3176.0779 89.120972 3176.1279 89.412532 3177.7201 86.5C3179.8008 82.693712 3180.2759 54.898477 3178.2943 52.902825C3177.3492 51.951026 3175.87 52.154862 3171.4513 53.845813C3168.3508 55.032307 3165.3464 55.714102 3164.7749 55.360911C3164.1024 54.945276 3163.9736 51.858083 3164.4097 46.609373C3165.0341 39.094073 3165.3335 38.256767 3168.4966 35.179751C3171.7865 31.979468 3173.7148 28.381474 3172.6896 27.356237C3172.4184 27.085065 3170.0756 28.48216 3167.4833 30.460894L3162.77 34.058591L3157.9279 29.529296C3155.2647 27.038183 3152.6532 25.0 3152.1246 25.0C3149.7953 25.0 3147.8149 26.457205 3146.3842 29.223873C3145.1282 31.652845 3145.063 32.737785 3146.0324 35.078238C3147.2088 37.918203 3148.3871 38.409051 3156.0 39.230307C3158.3917 39.488314 3158.5 39.790941 3158.5 46.214663C3158.5 51.312063 3158.0725 53.356693 3156.7252 54.7037C3155.0257 56.402886 3154.7375 56.358323 3149.9231 53.652051C3147.1581 52.097738 3144.2821 51.061523 3143.532 51.349351C3140.3439 52.572727 3138.8172 70.952441 3141.2353 78.998821L3142.5873 83.497642L3142.6167 74.498821C3142.6493 64.546106 3144.7833 58.0 3147.9953 58.0C3150.2048 58.0 3153.9673 62.958303 3156.7218 69.5C3159.9695 77.212774 3160.438 81.252263 3158.5161 84.968775C3157.6027 86.735232 3157.1344 88.907794 3157.4755 89.796691C3157.9883 91.133116 3158.4915 90.916477 3160.3823 88.545125C3163.1228 85.108214 3164.5345 85.714398 3166.1209 91.009235C3167.5436 95.757812 3169.0 95.286996 3169.0 90.078488Z"/>
</svg>
