<svg xmlns="http://www.w3.org/2000/svg"
     width="64.0" height="52.8"
     viewBox="6901.9062 64.0761 47.1914 38.9194">
  <path d="M 6907.375 80.96875 L 6907 81 L 6907.375 87.5625 C 6907.4666 87.225368 6907.4851 86.92712 6907.625 86.5625 C 6908.1646 85.156374 6908.762 85.259775 6912.5312 87.46875 C 6914.9022 88.858263 6917.6507 90 6918.625 90 C 6919.5993 90 6924.7818 85.479779 6930.1562 79.9375 C 6935.5307 74.395222 6940.4029 70.119012 6940.9688 70.46875 C 6942.9108 71.669004 6941.9932 74.18711 6937.5 79.90625 C 6933.7949 84.622292 6933 86.36445 6933 89.8125 C 6933 92.115771 6932.7389 94 6932.4375 94 C 6932.1362 94 6930.8909 92.81038 6929.6562 91.375 L 6927.4062 88.78125 L 6924.4688 91.25 C 6922.8423 92.603668 6920.5139 94.212037 6919.3125 94.84375 C 6916.2053 96.477638 6913.9675 96.266595 6910.25 94 C 6908.6133 93.002063 6907.6505 91.937544 6907.25 90.6875 L 6906 94 L 6905.9062 95.1875 C 6906.3906 95.357603 6906.7183 95.361937 6907.4688 95.75 C 6909.1215 96.604675 6911.6215 97.62547 6913 98.03125 C 6916.276 98.995543 6919.8606 98.260978 6923.2188 95.90625 C 6926.4881 93.613873 6927.3778 93.545413 6929 95.5 C 6930.5625 97.382712 6934.3852 97.457818 6935.9062 95.625 C 6936.6107 94.776346 6936.8207 92.708658 6936.4375 90.3125 C 6935.9216 87.086074 6936.2332 85.859268 6938.2188 83.4375 C 6939.5454 81.81934 6941.6508 78.7957 6942.9062 76.71875 C 6945.0592 73.157069 6945.0976 72.811599 6943.5625 70.46875 C 6942.0332 68.134704 6941.7748 68.076139 6939.2188 69.4375 C 6936.3356 70.973155 6930.9085 75.927323 6924.7812 82.65625 C 6919.8297 88.094073 6918.1606 88.377367 6912.3438 84.65625 C 6909.7394 82.990231 6908.356 82.004196 6907.375 80.96875 z "/>
</svg>
