<svg xmlns="http://www.w3.org/2000/svg"
     width="24.4" height="64.0"
     viewBox="437.8325 15.5219 34.5448 90.5203">
  <path d="M448.04934 97.183227C445.16656 86.477391 444.28783 63.175398 446.05535 44.307042L447.10387 33.114085L444.45725 29.114762C442.06837 25.50493 441.83247 23.0 443.88138 23.0C444.30123 23.0 445.91026 24.9125 447.45702 27.25C450.26554 31.494303 450.26778 31.511395 449.13258 40.0C446.45664 60.009552 446.62166 77.34419 449.6396 93.258726C451.05414 100.71804 456.812 86.207862 458.47221 71.0C459.46201 61.933206 459.14126 44.757095 457.87159 38.836831C456.83224 33.990525 456.89421 33.755246 460.65428 28.271656C464.66446 22.423327 468.37725 19.521855 465.94854 24.134298C465.26342 25.435434 463.60583 27.818245 462.26501 29.429433C460.18627 31.927338 459.91731 33.032146 460.43918 36.929433C463.53499 60.048766 460.64981 86.562159 453.8207 97.75C451.20077 102.04211 449.30764 101.85619 448.04934 97.183227Z M450.59743 25.75C448.99923 23.711111 448.48028 22.35344 449.20482 22.106708C449.84004 21.890397 451.32977 22.929937 452.51536 24.416797L454.67096 27.12018L457.52493 23.378433C459.09461 21.320472 460.5517 20.155113 460.76291 20.788745C461.27008 22.31023 456.12999 29.0 454.45379 29.0C453.73393 29.0 451.99857 27.5375 450.59743 25.75Z"/>
</svg>
