<svg xmlns="http://www.w3.org/2000/svg"
     width="52.1" height="64.0"
     viewBox="0.0000 11.8587 78.7731 96.6890">
  <path d="M4.0 72.419424C4.0 71.340225 10.932432 58.961679 13.475488 55.5C14.687629 53.85 17.916944 48.225 20.651743 43.0C28.499609 28.006175 35.432787 16.006482 36.25 16.003102C37.937098 15.996124 36.755154 19.408592 32.359265 27.236299C29.806861 31.781334 25.760936 39.408424 23.368322 44.185386C20.975707 48.962348 18.53628 53.16856 17.947374 53.532525C17.358467 53.896489 16.433425 55.163066 15.891725 56.347139C12.63358 63.468949 6.9613707 72.547146 5.5971288 72.823324C4.718708 73.001152 4.0 72.819397 4.0 72.419424Z M6.0 36.757647C6.0 35.982687 7.125 34.291745 8.5 33.0C9.875 31.708255 11.0 30.161306 11.0 29.562338C11.0 28.963369 12.575 26.134563 14.5 23.276102C16.425 20.417641 18.0 17.611148 18.0 17.03945C18.0 16.467753 18.675 16.0 19.5 16.0C22.075432 16.0 21.199211 18.206845 14.75 27.963326C8.7662255 37.015687 6.0 39.795924 6.0 36.757647Z M6.0 99.535228C6.0 98.606453 18.3057 78.445842 20.060319 76.5C21.052219 75.4 23.254121 71.693194 24.953436 68.262654C26.652751 64.832114 29.204063 60.332114 30.623018 58.262654C32.041973 56.193194 34.276533 52.25 35.588707 49.5C36.900881 46.75 39.319733 42.25 40.963933 39.5C42.608134 36.75 46.101376 30.570669 48.726694 25.768153C51.352013 20.965637 54.0625 17.028137 54.75 17.018153C55.4375 17.008169 56.0 17.237479 56.0 17.527731C56.0 18.544493 49.02675 32.153833 47.142885 34.813717C46.096476 36.291172 43.092561 41.55 40.46752 46.5C33.954526 58.781452 33.672393 59.282132 32.256287 61.071793C31.572245 61.93628 29.430768 65.76128 27.49745 69.571793C25.564131 73.382307 22.036616 79.231299 19.658527 82.569553C17.280438 85.907807 14.040406 91.195307 12.458456 94.319553C10.573661 98.041896 8.9647762 100.0 7.7910911 100.0C6.805991 100.0 6.0 99.790853 6.0 99.535228Z M24.997692 98.75C24.996422 98.0625 26.954087 94.575 29.348058 91.0C33.953617 84.122361 38.626171 76.166068 46.0 62.645548C53.51861 48.85956 56.278403 44.174469 61.673526 36.037805C64.518965 31.74645 67.997908 25.964236 69.40451 23.18844C72.022487 18.022112 74.007636 15.858723 73.990231 18.190983C73.973663 20.41101 69.336098 29.614812 65.064779 35.904609C62.82915 39.196718 61.0 42.225402 61.0 42.635018C61.0 43.044634 59.222385 46.331825 57.049744 49.939887C54.877103 53.547949 51.389603 59.687702 49.299744 63.583782C41.282374 78.530395 34.042804 90.651288 32.06237 92.443556C30.928067 93.470086 30.0 94.845486 30.0 95.5C30.0 96.731023 26.855432 100.0 25.671259 100.0C25.302067 100.0 24.998961 99.4375 24.997692 98.75Z M43.49372 100.98984C43.117335 100.38084 43.918508 98.221484 45.274104 96.19128C48.188794 91.826104 51.692405 85.75756 56.065324 77.5C57.81289 74.2 61.994638 66.776018 65.358099 61.002263C72.751268 48.311064 74.458862 49.815755 67.353296 62.760383C64.714752 67.567172 61.573688 73.589736 60.373153 76.143857C57.204006 82.886174 47.296604 99.508951 45.615863 100.90384C44.577529 101.76558 43.987923 101.78948 43.49372 100.98984Z M63.0 103.08784C63.0 101.73986 70.986621 88.126302 72.22728 87.359533C74.773145 85.786102 69.734206 98.335736 66.248447 102.25C64.56075 104.14517 63.0 104.54772 63.0 103.08784Z"/>
</svg>
