<svg xmlns="http://www.w3.org/2000/svg"
     width="37.9" height="64.0"
     viewBox="5946.4618 19.6769 52.5694 88.8661">
  <path d="M5959.8888 100.25C5958.2047 95.887806 5959.2206 85.983362 5961.7093 82.5C5963.6819 79.739103 5963.7642 79.021793 5962.7418 73.5C5962.1308 70.2 5961.0119 67.125001 5960.2553 66.66667C5955.4547 63.758395 5952.1174 59.654142 5951.4786 55.873082C5950.4618 49.855085 5952.3773 48.566206 5955.9823 52.842563C5959.2031 56.663006 5962.3143 56.786748 5962.8359 53.115145C5963.0733 51.444133 5962.0078 49.540884 5959.2027 46.625361C5954.3793 41.612068 5953.4367 39.801534 5952.6297 34.0C5951.8873 28.66316 5953.5583 24.642831 5956.7073 24.189319C5960.2654 23.676909 5964.748 26.661129 5966.1201 30.455698C5966.8112 32.366874 5967.9221 34.139856 5968.5887 34.395659C5969.2553 34.651461 5972.0428 32.642084 5974.7831 29.930377C5980.3426 24.428981 5982.6586 23.791649 5983.591 27.506573C5984.8199 32.40275 5983.085 36.903106 5977.9451 42.152299C5973.7275 46.459642 5973.0 47.776136 5973.0 51.101298C5973.0 55.859969 5974.7426 56.196427 5979.7213 52.399013C5981.5968 50.96847 5983.4031 50.069778 5983.7353 50.401921C5984.5337 51.200414 5980.0955 60.612469 5978.0793 62.396257C5977.2107 63.164754 5975.6 63.968476 5974.5 64.182305C5972.9521 64.483208 5972.5645 65.241143 5972.7855 67.535542C5973.2321 72.173325 5973.7661 73.0 5976.315 73.0C5979.6041 73.0 5984.0078 70.64509 5987.4631 67.038485C5989.0642 65.367318 5991.0533 64.0 5991.8833 64.0C5994.1119 64.0 5987.29 70.768196 5982.6533 73.15726C5977.9263 75.592903 5973.3951 75.823641 5971.3065 73.735063C5970.0812 72.50976 5969.7602 70.101004 5969.8534 62.831166C5970.0386 48.385281 5970.7186 45.380773 5974.5168 42.226279C5979.9519 37.712442 5983.4714 29.323795 5980.3647 28.288229C5979.7449 28.081643 5976.962 30.466047 5974.1804 33.586905C5970.8901 37.278567 5968.601 39.060852 5967.6289 38.687819C5966.8071 38.372464 5964.5156 35.583361 5962.5366 32.489812C5957.9962 25.392051 5955.3179 25.205615 5955.8446 32.023991C5956.2458 37.216479 5957.0682 39.019169 5961.5889 44.615493L5964.9135 48.730987L5964.7378 61.706895C5964.5387 76.414103 5965.4395 79.032191 5971.5815 81.598494C5974.7641 82.928289 5975.3444 82.857326 5979.7537 80.599154C5982.3642 79.262224 5986.5062 76.105488 5988.9582 73.584186C5991.4102 71.062884 5993.8852 69.014312 5994.4582 69.031803C5995.0312 69.049295 5994.786 69.611795 5993.9133 70.281803C5990.7906 72.679376 5990.0841 75.294775 5991.5911 78.878841C5993.7302 83.966248 5993.3741 90.149038 5990.7148 94.095195C5987.1546 99.378263 5985.3561 99.057964 5984.7777 93.037804C5984.1099 86.088067 5981.934 83.845795 5976.6053 84.616099C5971.9002 85.296246 5969.0098 88.041681 5968.978 91.860784C5968.966 93.312353 5968.088 96.4125 5967.0269 98.75C5964.698 103.88067 5961.5462 104.543 5959.8888 100.25Z M5961.9937 61.25C5961.9885 59.818652 5958.7179 57.082881 5954.75 55.190945C5953.0062 54.359497 5954.1982 57.734167 5956.5405 60.260218C5959.4279 63.37421 5962.003 63.841605 5961.9937 61.25Z M5965.5367 95.75C5965.9193 93.9625 5966.8939 90.525579 5967.7025 88.112398C5968.9226 84.471241 5968.9454 83.580684 5967.8364 82.877711C5965.8612 81.625694 5965.6576 81.735787 5963.75 85.087362C5962.0408 88.090368 5961.3137 96.980403 5962.6667 98.333333C5964.0147 99.681365 5964.8577 98.922612 5965.5367 95.75Z M5978.6124 58.468792C5979.5246 57.076627 5980.058 55.724676 5979.7978 55.464455C5978.9072 54.573841 5973.0 58.144313 5973.0 59.573242C5973.0 61.934603 5976.8362 61.179698 5978.6124 58.468792Z M5990.5603 88.5301C5991.2089 85.072972 5989.5115 78.0 5988.0332 78.0C5987.5868 78.0 5986.1592 78.871808 5984.8608 79.93735C5982.8357 81.599242 5982.6826 82.132429 5983.7841 83.68735C5984.4903 84.684308 5985.7911 87.174924 5986.6748 89.222052C5988.5327 93.526311 5989.6607 93.325436 5990.5603 88.5301Z"/>
</svg>
