<svg xmlns="http://www.w3.org/2000/svg"
     width="16.8" height="64.0"
     viewBox="538.8269 16.7912 24.0204 91.4565">
  <path d="M543.4627 93.75C544.8581 71.624528 544.92042 62.287028 543.8029 42.775381C543.15005 31.37684 542.9291 21.737566 543.3119 21.354771C543.69469 20.971976 545.04761 21.635555 546.31839 22.82939C549.00683 25.355043 552.22713 25.636178 554.0 23.5C554.68469 22.675 555.86479 22.0 556.62244 22.0C558.16256 22.0 558.11366 20.791189 558.55195 69.701174C558.84733 102.66368 558.75907 103.21424 553.55927 100.84505C551.3441 99.83575 550.41375 99.915094 548.04306 101.31549C543.07927 104.24767 542.82693 103.83087 543.4627 93.75Z M555.0 30.05202C555.0 26.120869 554.98751 26.108392 552.07088 27.125136C550.03941 27.833309 548.52572 27.816539 547.13157 27.070412C544.92193 25.88785 543.65993 26.950207 544.54242 29.24996C545.17221 30.891164 550.65384 33.841168 553.25 33.936046C554.63196 33.98655 555.0 33.169698 555.0 30.05202Z M555.81037 41.291467C555.5213 37.837433 555.16065 37.461934 550.55505 35.819747C547.83533 34.849994 545.46575 34.200913 545.28932 34.377346C545.11289 34.553778 545.3258 36.417675 545.76246 38.51934C546.41815 41.675196 547.16091 42.558835 550.0282 43.594196C555.63387 45.618371 556.15511 45.410788 555.81037 41.291467Z M552.64798 97.733042C555.41487 97.83022 555.84939 97.479511 556.23738 94.835992C556.705 91.649902 555.31128 90.619833 548.75 89.302238C546.03004 88.756033 546.0 88.807155 546.0 93.981989C546.0 98.601311 546.20493 99.120795 547.75 98.418228C548.7125 97.980566 550.91659 97.672232 552.64798 97.733042Z M556.0 85.537839C556.0 82.429963 555.5651 81.880894 551.75 80.172189C546.71332 77.916361 545.57163 78.567553 546.72947 83.035778C547.42885 85.734794 548.31511 86.569026 551.54333 87.567058C553.7195 88.239837 555.6125 88.837477 555.75 88.895147C555.8875 88.952816 556.0 87.442028 556.0 85.537839Z M555.79685 74.390111C556.07856 70.637395 555.90001 70.3617 552.29685 68.985821C550.20858 68.188409 548.07008 67.527885 547.54463 67.51799C546.66376 67.501403 546.26547 74.808526 547.12112 75.287785C547.3295 75.404503 548.85 76.274792 550.5 77.221759C554.53636 79.538303 555.44693 79.051519 555.79685 74.390111Z M556.0 63.699266C556.0 60.777843 555.48287 60.147291 551.5 58.212263L547.0 56.025994L547.01365 58.262997C547.03946 62.490166 548.15055 64.667077 550.82285 65.726197C555.29941 67.500402 556.0 67.226109 556.0 63.699266Z M556.53641 54.710967C557.50174 50.864782 555.54973 47.504278 551.65615 46.309304C547.38326 44.99792 547.0 45.3005 547.0 49.98524C547.0 53.106884 547.47191 53.872006 550.25 55.254619C554.71018 57.474378 555.86796 57.374252 556.53641 54.710967Z"/>
</svg>
