<svg xmlns="http://www.w3.org/2000/svg"
     width="64.0" height="60.9"
     viewBox="5585.5000 59.4820 50.5112 48.0814">
  <path d="M 5590.3125 86.9375 L 5590 87 L 5589.7812 92.15625 C 5590.6948 90.925696 5593.0656 90.822527 5596 92.5 C 5597.375 93.286021 5600.1875 93.94926 5602.25 93.96875 C 5607.4676 94.018053 5612.6574 88.665506 5616.5312 79.25 C 5618.1528 75.308995 5620.6675 70.598308 5622.125 68.8125 C 5624.4113 66.011304 5625.0217 65.757201 5626.4062 66.90625 C 5628.5602 68.693896 5628.4322 69.963509 5625.5 76.59375 C 5622.4778 83.427471 5622.3508 86.913282 5625 90.28125 C 5628.4172 94.625502 5626.7216 96.771521 5622.4375 93.53125 C 5619.6392 91.414694 5618.2491 91.63472 5614.1562 94.875 C 5612.1521 96.461633 5608.7 98.2647 5606.5 98.875 C 5599.2442 100.88783 5592.5518 99.717052 5590.25 96.03125 C 5589.8477 95.387001 5589.8225 94.911619 5589.6875 94.375 L 5589.5 99 L 5589.5312 99.28125 C 5590.1226 99.362434 5590.8331 99.656568 5592.2812 100.34375 C 5599.0662 103.56347 5611.8129 101.56494 5615.875 96.65625 C 5617.5852 94.589697 5620.6094 94.504924 5621.375 96.5 C 5622.0652 98.298638 5627.1103 98.514651 5628.8125 96.8125 C 5630.5994 95.025635 5630.2609 92.258346 5627.875 89.03125 C 5625.3772 85.652792 5625.7335 82.286565 5629.375 74.46875 C 5632.0112 68.809325 5631.5294 65.618731 5627.9062 64.46875 C 5624.7973 63.482037 5620.2485 68.559623 5615.1562 78.6875 C 5610.9113 87.130272 5606.3283 92.025595 5602.6875 91.96875 C 5601.4922 91.950087 5598.7 91.062675 5596.5 90 C 5594.3 88.937325 5592.05 88.055506 5591.5 88.03125 C 5591.2323 88.019444 5590.7877 87.591794 5590.3125 86.9375 z "/>
</svg>
