<svg xmlns="http://www.w3.org/2000/svg"
     width="26.6" height="64.0"
     viewBox="723.8150 18.7942 36.2216 87.0804">
  <path d="M747.5 31.0C744.2 28.31989 741.22821 26.098481 740.89602 26.063536C740.56384 26.028591 739.17332 27.0125 737.80598 28.25C733.39204 32.244825 728.86008 35.193413 728.17972 34.513054C727.81504 34.148371 728.22379 33.454263 729.08807 32.970591C729.95234 32.48692 733.20038 29.999374 736.30593 27.442712L741.95239 22.794236L746.2262 26.073757C752.1023 30.582809 756.0 34.217121 756.0 35.187091C756.0 37.003856 753.18528 35.617329 747.5 31.0Z M729.0 99.155539C729.0 98.691086 730.14262 97.003586 731.53916 95.405539C738.01829 87.991526 738.19916 87.281942 736.78532 74.824809C736.0784 68.596164 735.52086 60.6875 735.54635 57.25C735.57184 53.8125 735.37584 51.0 735.1108 51.0C734.84576 51.0 733.61957 51.948222 732.38593 53.107161C731.1523 54.266099 729.55002 55.016674 728.82531 54.775104C728.05413 54.518043 729.28409 53.214477 731.79103 51.631917C736.80516 48.466636 738.41656 48.965983 737.5799 53.425791C737.25006 55.184003 737.44872 59.069969 738.02138 62.06127C738.59404 65.052572 739.30232 72.014349 739.59535 77.531887C740.11753 87.364308 740.07217 87.637019 737.31406 91.247575C735.76633 93.273666 733.69149 96.071817 732.70332 97.465689C730.94483 99.946114 729.0 100.83356 729.0 99.155539Z M729.0 41.305568C729.0 40.485423 735.93308 34.316138 738.74834 32.631167C740.31459 31.693745 755.85631 39.033621 755.93945 40.75C756.03667 42.757122 753.95454 42.235179 746.43703 38.36797L739.37407 34.734586L734.18703 38.461098C731.33417 40.51068 729.0 41.790691 729.0 41.305568Z M750.0 48.129545C747.54526 46.35517 739.77292 43.0 738.11727 43.0C737.65403 43.0 735.56894 44.355811 733.48375 46.012913C731.39856 47.670015 729.46444 48.797774 729.18571 48.519044C728.31779 47.651119 731.68372 44.604997 736.25591 42.120617L740.63487 39.741233L747.56743 43.211314C751.38035 45.119858 754.6455 47.42808 754.82332 48.340697C755.24338 50.496419 753.14749 50.404667 750.0 48.129545Z M746.51523 99.015894C743.00814 95.355285 742.33574 95.303463 739.82134 98.5C738.73976 99.875 737.16896 101.0 736.33067 101.0C735.4698 101.0 736.91478 99.091253 739.65104 96.613964L744.49557 92.227928L747.99778 95.302915C751.46017 98.342935 752.48446 101.00518 750.45232 101.68256C749.87609 101.87464 748.1044 100.67464 746.51523 99.015894Z M749.78662 89.589509L746.07324 85.244607L745.78662 69.470057C745.60679 59.572945 745.87259 53.580223 746.5 53.386096C747.93805 52.941147 753.56861 57.764721 752.66544 58.667892C752.24942 59.083911 751.03561 58.878825 749.96809 58.212145C748.90057 57.545465 747.7855 57.0 747.49017 57.0C747.19484 57.0 747.20711 60.7125 747.51745 65.25C748.73277 83.019456 748.93388 83.921049 752.58309 87.960287C754.46239 90.04045 756.0 92.250361 756.0 92.871201C756.0 95.182705 753.38765 93.802951 749.78662 89.589509Z"/>
</svg>
