<svg xmlns="http://www.w3.org/2000/svg"
     width="47.1" height="64.0"
     viewBox="7223.0000 17.2761 64.2500 87.3576">
  <path d="M 7283.25 61.59375 C 7282.1126 60.857718 7280.8518 60.003423 7279.25 58.78125 L 7274 54.78125 L 7270.5938 56.375 C 7268.7197 57.264274 7266.4939 58 7265.625 58 C 7263.5364 58 7262.6115 54.039289 7263.4375 48.53125 C 7264.0151 44.679895 7264.7083 43.653492 7268.5938 41.03125 C 7271.0654 39.363201 7273.4861 38 7273.9688 38 C 7274.4512 38 7275.8269 39.227431 7277 40.71875 C 7278.7547 42.94955 7279.2706 43.171148 7280.0312 41.96875 C 7281.7918 39.185265 7280.5445 26.128112 7278.3125 23.96875 C 7276.6733 22.382865 7271.8515 24.314775 7267.2188 28.4375 C 7261.7665 33.289421 7259 34.653674 7259 32.46875 C 7259 31.661012 7258.55 31 7258 31 C 7257.45 31 7257 30.479335 7257 29.84375 C 7257 27.837291 7252.1851 22.275252 7249.9375 21.6875 C 7248.3643 21.276085 7246.6928 22.127972 7243.7812 24.84375 C 7240.5473 27.860347 7239.6988 29.452825 7239.2812 33.15625 C 7238.8305 37.156321 7239.118 38.100633 7241.625 40.90625 C 7243.7095 43.238997 7245.6567 44.272682 7248.75 44.6875 L 7253 45.25 L 7253 50.0625 C 7253 52.704278 7252.5448 56.035812 7252 57.46875 C 7250.8835 60.40533 7250.9257 60.427578 7242.5625 54.4375 C 7239.8228 52.475238 7236.7155 51.053911 7235.5625 51.21875 C 7234.3867 51.386827 7232.0929 53.617519 7230.25 56.375 C 7227.1633 60.993611 7227 61.705927 7227 70.5625 C 7227 77.851253 7227.5728 81.690907 7229.625 88.1875 C 7231.0691 92.758962 7232.9443 97.048868 7233.7812 97.71875 C 7237.4231 100.63364 7237.7594 97.258767 7235.5 80.15625 C 7234.2772 70.900709 7234.2183 68.30873 7235.25 66.15625 C 7237.168 62.154503 7239.2081 62.46294 7242.2188 67.21875 C 7243.7063 69.568531 7246.3677 73.422545 7248.1562 75.78125 C 7251.3747 80.025565 7251.4048 80.102933 7249.75 83.28125 C 7246.9928 88.576659 7246.6925 91.531172 7248.5312 95.40625 C 7249.4668 97.377865 7250.6408 99 7251.1562 99 C 7251.6716 99 7252.8045 97.3125 7253.6562 95.25 C 7255.5366 90.696609 7257.9356 87.832026 7259.2188 88.625 C 7259.7408 88.947621 7261.0226 91.198908 7262.0625 93.625 C 7264.38 99.031512 7266.6534 100.14607 7269.125 97.09375 C 7271.4187 94.261228 7270.7565 90.12187 7267.0625 83.96875 C 7264.3378 79.430221 7264.3582 79.431178 7266.1875 75.90625 C 7267.1938 73.967237 7269.3412 71.090466 7270.9688 69.53125 L 7273.9062 66.6875 L 7279.3125 70.75 L 7280.0312 69.125 C 7278.8345 68.269523 7277.7742 67.40728 7277.125 66.625 C 7276.3782 65.725197 7274.9687 65 7274 65 C 7271.8883 65 7265.5455 71.789288 7263.3438 76.40625 C 7261.8262 79.588485 7261.883 79.858577 7264.4375 83.71875 C 7265.8971 85.924265 7267.3313 89.372904 7267.6562 91.375 C 7268.1231 94.251478 7267.9447 95 7266.7188 95 C 7265.8095 95 7264.8846 93.751154 7264.5 92 C 7264.139 90.356702 7262.6988 88.115127 7261.2812 87 C 7258.8267 85.0693 7258.6104 85.063354 7256.7812 86.71875 C 7255.7247 87.674868 7254.1209 89.691444 7253.2188 91.21875 C 7252.3166 92.746057 7251.2127 94 7250.7812 94 C 7249.044 94 7250.167 88.061246 7252.5625 84.53125 L 7255.0938 80.75 L 7252.5625 77.125 C 7240.6785 60.131774 7239.2492 58.989028 7235.1875 63.3125 C 7232.5081 66.164653 7232.1379 72.296468 7233.9688 84.375 C 7235.2261 92.669695 7234.9283 94.594832 7232.9375 90.875 C 7229.2248 83.937661 7227.8559 68.809909 7230.1875 60.625 C 7231.3977 56.37688 7233.6079 53 7235.2188 53 C 7235.7248 53 7239.1287 55.25 7242.7812 58 C 7246.4338 60.75 7250.1696 63 7251.0625 63 C 7253.6006 63 7255 58.566825 7255 50.5625 C 7255 42.706315 7254.4177 41.825079 7249.9062 42.6875 C 7246.8275 43.276045 7242.5533 40.074045 7241.1875 36.15625 C 7239.9664 32.653213 7242.0682 27.651645 7245.7812 25.21875 C 7248.1671 23.655539 7248.343 23.722568 7251.375 27.25 C 7253.0936 29.249399 7255.5376 32.258743 7256.8125 33.9375 C 7259.0026 36.821133 7259.2789 36.912074 7261.8125 35.59375 C 7263.2876 34.826265 7265.625 32.979515 7267 31.5 C 7270.5962 27.63043 7274.8028 25.612092 7276.4375 26.96875 C 7277.9901 28.257255 7279.1631 33.383877 7278.375 35.4375 C 7277.9448 36.558648 7277.3062 36.638209 7275.5625 35.84375 C 7273.6439 34.969551 7272.4773 35.433469 7267.75 38.96875 C 7264.6915 41.255989 7261.9465 44.113797 7261.625 45.3125 C 7260.8462 48.216539 7260.8454 61.501648 7261.625 62.28125 C 7261.9634 62.619637 7264.6939 61.582897 7267.7188 59.96875 C 7273.1862 57.051215 7273.2554 57.039004 7275.875 58.90625 C 7277.3242 59.939317 7279.337 61.726397 7280.375 62.875 C 7280.7754 63.318013 7281.4699 63.746017 7282.1562 64.15625 L 7283.25 61.59375 z "/>
</svg>
