<svg xmlns="http://www.w3.org/2000/svg"
     width="41.7" height="64.0"
     viewBox="6735.2188 51.0502 34.8178 53.3760">
  <path d="M 6740.625 85.5625 L 6740.2812 88.5625 C 6742.034 89.929688 6743.6776 91 6744.5 91 C 6749.334 91 6752.9174 83.763853 6752.9688 73.9375 C 6752.9933 69.249934 6755.5148 59.214297 6757.0625 57.59375 C 6757.5777 57.054294 6758.5521 57.207927 6759.4688 57.96875 C 6761.3167 59.502462 6761.5888 69.372722 6759.9062 73.6875 C 6758.3621 77.647308 6758.6515 84.820357 6760.4688 87.59375 C 6762.8151 91.17488 6762.431 92.039792 6759 90.84375 C 6756.256 89.887177 6755.5986 90.126868 6751.9688 93.40625 C 6749.7753 95.387892 6746.9532 97 6745.6875 97 C 6744.579 97 6742.0412 95.850807 6739.5625 94.46875 L 6739.2188 97.125 C 6744.9244 100.38428 6747.7614 100.42623 6751.75 97.375 C 6754.7317 95.094114 6756.5314 94.5 6760.5 94.5 C 6764.9859 94.5 6765.5455 94.262703 6765.8438 92.15625 C 6766.0366 90.793853 6765.3095 88.885883 6764.125 87.625 C 6761.6407 84.980636 6761.2667 79.624524 6763 71.8125 C 6764.4176 65.423143 6763.6767 57.801286 6761.4688 55.96875 C 6760.6779 55.31236 6758.9816 55.050188 6757.6875 55.375 C 6754.3901 56.202596 6752.0808 62.515636 6750.9688 73.78125 C 6749.9941 83.655301 6749.0424 86.359426 6746.0938 87.9375 C 6744.7257 88.669622 6743.4619 88.023587 6740.625 85.5625 z "/>
</svg>
