<svg xmlns="http://www.w3.org/2000/svg"
     width="36.1" height="64.0"
     viewBox="4635.8387 14.3768 50.5982 89.6652">
  <path d="M4666.555 97.335162L4661.61 94.763447L4659.8947 96.881723C4657.3609 100.01077 4655.7531 99.492417 4653.2824 94.75C4649.911 88.278669 4648.92 85.28365 4646.9128 75.5C4644.824 65.318446 4644.5699 58.197022 4645.9868 49.544285C4646.8321 44.382369 4646.7253 43.316101 4645.1855 41.544285C4642.4998 38.453971 4641.1944 35.008759 4640.6871 29.671924C4639.8387 20.748021 4642.055 18.45029 4646.1581 24.0C4648.3766 27.000588 4653.0 28.22014 4653.0 25.804719C4653.0 25.147314 4654.16 23.398608 4655.5779 21.918706C4658.9713 18.376771 4661.388 19.09954 4664.626 24.624722C4666.0362 27.031125 4667.6502 29.0 4668.2127 29.0C4668.7751 29.0 4671.0353 27.2 4673.2353 25.0C4675.4353 22.8 4677.4074 21.0 4677.6176 21.0C4677.8279 21.0 4678.0 22.762693 4678.0 24.917095C4678.0 29.569659 4674.8485 37.425788 4672.4418 38.772643C4670.9896 39.585304 4670.8673 40.457843 4671.6244 44.601905C4672.6721 50.336589 4674.8883 51.39299 4678.5853 47.919895C4681.5814 45.105167 4682.4369 45.857789 4681.5592 50.536312C4681.104 52.962539 4679.3236 55.740381 4676.1891 58.914959C4671.6792 63.482597 4671.4279 64.050541 4669.6127 73.780465L4667.7253 83.896893L4670.8627 88.785994C4674.0681 93.781148 4675.1261 100.04195 4672.75 99.953439C4672.0625 99.92783 4669.2747 98.749605 4666.555 97.335162Z M4648.5529 34.569668C4649.0819 31.74986 4648.6986 30.515401 4646.3992 27.633656C4641.9778 22.09252 4640.9219 24.006531 4643.5387 32.818499C4645.3353 38.868013 4647.5983 39.658357 4648.5529 34.569668Z M4662.1584 89.557911C4666.2557 81.979471 4669.9776 64.35481 4669.9924 52.460099C4669.9966 49.138153 4669.3024 43.738153 4668.4499 40.460099C4666.5675 33.222623 4660.9204 22.616508 4658.7212 22.188262C4656.3013 21.717026 4651.2424 33.11913 4649.4602 43.061492C4647.6411 53.209955 4647.2919 68.233459 4648.7638 73.024392C4649.3511 74.935976 4650.1353 78.3 4650.5065 80.5C4651.5577 86.730057 4655.892 95.167231 4657.8483 94.791897C4658.7568 94.617618 4660.6963 92.262325 4662.1584 89.557911Z M4671.0 94.40437C4671.0 92.569171 4667.2696 87.0 4666.0403 87.0C4665.3253 87.0 4664.534 89.039017 4663.9059 92.5C4663.7101 93.57853 4667.7053 95.961144 4669.75 95.985258C4670.4375 95.993366 4671.0 95.281967 4671.0 94.40437Z M4675.1689 29.83075C4675.8022 27.716746 4676.0569 25.72356 4675.7348 25.40145C4675.4127 25.07934 4673.5775 26.245962 4671.6566 27.993943C4668.4684 30.895121 4668.2541 31.43044 4669.1975 34.136565C4670.1855 36.970859 4670.314 37.025801 4672.1241 35.387717C4673.1653 34.44539 4674.5355 31.944755 4675.1689 29.83075Z M4677.3168 54.197336L4679.2418 50.901208L4676.3709 51.588862C4672.2823 52.568175 4672.0 52.829374 4672.0 55.632341C4672.0 59.162373 4674.8693 58.387939 4677.3168 54.197336Z"/>
</svg>
