<svg xmlns="http://www.w3.org/2000/svg"
     width="30.4" height="64.0"
     viewBox="3343.0000 11.8750 41.1575 86.5312">
  <path d="M 3348.125,83.46875 3348.2188,86.53125 C 3348.6876,86.733095 3349.0576,86.816565 3349.3125,86.71875 3350.1468,86.398599 3352.742,83.323333 3355.0625,79.90625 3360.0412,72.574713 3360.9541,67.595832 3358.5312,61 3357.5547,58.341568 3356.6271,51.79377 3356.2812,45 3355.7656,34.873297 3355.4215,33.125982 3353.2812,30.3125 3351.8944,28.489404 3351.0011,26.127731 3351.1875,24.8125 3351.4763,22.775477 3351.8274,23.048766 3354.4062,27.125 3356.5568,30.524408 3357.8238,31.606616 3359.1875,31.25 3361.4152,30.667444 3364.4611,26.499167 3365.3438,22.84375 3365.6967,21.382345 3366.2576,19.469845 3366.5938,18.59375 3366.9759,17.598086 3366.6676,17 3365.7812,17 3364.9173,17 3363.8747,18.953329 3363.0938,22 3362.389,24.75 3361.2859,27 3360.625,27 3359.9642,27 3357.7097,25.2 3355.625,23 3353.5403,20.8 3351.2931,19 3350.625,19 3349.2834,19 3347,24.460853 3347,27.6875 3347,28.818607 3347.7075,30.32164 3348.5625,31.03125 3351.5333,33.496823 3352.481,36.550789 3353.125,45.5 3353.4813,50.45 3354.3487,57.937441 3355.0625,62.15625 3356.2321,69.069248 3356.2118,70.231006 3354.625,73.75 3353.6565,75.897544 3351.7955,78.953853 3350.5,80.5625 L 3348.1562,83.5 3348.125,83.46875 z M 3348.375,90.9375 3348.5,94.40625 C 3350.4317,94.231889 3352.2718,93.199967 3354.8438,91.03125 3357.5275,88.768327 3361.3721,84.533084 3363.375,81.625 3366.6641,76.849354 3367.0089,75.690867 3367.0938,69.4375 3367.1453,65.629572 3366.6966,60.921369 3366.0938,59 3364.703,54.56817 3364.6929,44.977571 3366.0625,41.375 3366.6401,39.855847 3368.9023,37.063247 3371.0938,35.1875 3377.1273,30.023045 3380.1575,23.157542 3378.4062,18.59375 3377.4511,16.104636 3376,17.792001 3376,21.40625 3376,25.098145 3371.6056,31.914402 3367.4688,34.625 3366.0547,35.551507 3364.2344,37.552738 3363.4375,39.09375 3361.5218,42.79819 3361.5629,55.509678 3363.5,61 3365.6807,67.180694 3365.4222,73.565997 3362.8438,77.34375 3359.0576,82.890683 3350.6366,91 3348.6562,91 3348.5894,91 3348.4495,90.944294 3348.375,90.9375 z M 3369.875,16.09375 C 3369.3724,16.312484 3369,17.331097 3369,19.03125 3369,22.703951 3366.5175,29 3365.0625,29 3364.4845,29 3364,29.675 3364,30.5 3364,32.752814 3366.6734,32.304166 3368.4688,29.75 3370.6161,26.695042 3372.2568,20.321914 3371.5,17.9375 3371.0259,16.443697 3370.3776,15.875016 3369.875,16.09375 z"/>
</svg>
