<svg xmlns="http://www.w3.org/2000/svg"
     width="43.3" height="64.0"
     viewBox="7304.0339 71.6432 21.9155 32.3568">
  <path d="M 7314.4688 76.03125 C 7311.6605 75.643211 7309.5147 79.84272 7308.5625 88 C 7308.0339 92.527966 7308.2665 94.074384 7309.9375 96.75 C 7311.0539 98.5375 7312.596 100 7313.3438 100 C 7318.7564 100 7321.9494 82.919849 7317.4688 77.96875 C 7316.4087 76.797447 7315.4048 76.160596 7314.4688 76.03125 z M 7314.4375 78.5 C 7316.9859 78.5 7318.1992 83.039173 7317.4062 89.6875 C 7317.03 92.841622 7316.0622 95.544698 7314.9375 96.5625 C 7313.1793 98.153725 7313.0064 98.045944 7311.375 94.625 C 7309.8112 91.345523 7309.7759 90.48542 7311.0938 84.78125 C 7312.2473 79.788355 7312.9171 78.5 7314.4375 78.5 z "/>
</svg>
