<svg xmlns="http://www.w3.org/2000/svg"
     width="37.7" height="64.0"
     viewBox="6170.5135 15.2530 54.4028 92.4206">
  <path d="M 6212.4375 91.28125 C 6212.0438 91.182431 6211.6724 91.086183 6211.1562 90.90625 C 6206.7546 89.371787 6205.9047 87.337488 6207.5938 82.5 C 6209.1687 77.989353 6209.5026 72.073936 6208.4688 67.25 C 6208.0308 65.206314 6208.2182 63.435563 6208.9688 62.53125 C 6209.6271 61.738068 6210.6814 56.744781 6211.3125 51.4375 L 6212.4688 41.8125 L 6216.2188 42.3125 C 6218.2926 42.59065 6220.2711 42.397061 6220.5938 41.875 C 6220.9163 41.352938 6219.3413 38.90705 6217.0938 36.46875 C 6212.5304 31.517945 6212.1483 29.645685 6215 26 C 6216.9461 23.512117 6217.6798 19.987439 6216.25 20 C 6215.8375 20.003624 6214.15 20.929604 6212.5 22.03125 C 6210.85 23.132896 6207.7896 24.48589 6205.6875 25.0625 C 6202.2008 26.018886 6201.4419 25.850369 6197 23 C 6191.1607 19.25299 6188.6805 19.924003 6187.0625 25.75 C 6185.498 31.383372 6185.7517 33.605651 6188.4062 36.6875 C 6190.4339 39.041469 6191.6013 39.5 6195.6562 39.5 L 6200.5 39.5 L 6200.4688 45 C 6200.4119 51.922181 6199.349 56 6197.625 56 C 6196.8895 56 6194.2398 54.425 6191.7188 52.5 C 6186.4984 48.513969 6183.3197 48.11319 6180.1875 51.03125 C 6176.1232 54.817742 6174.9348 58.621253 6174.7188 68.28125 C 6174.5135 77.455243 6174.5148 77.487591 6177.0312 77.78125 C 6179.2849 78.044235 6179.7518 77.490383 6181.4375 72.53125 C 6182.4774 69.472055 6183.9111 66.467534 6184.625 65.875 C 6186.6663 64.180875 6191.2107 66.220989 6193.75 69.96875 C 6197.6204 75.681116 6196.8319 79.295235 6189.25 90.5625 C 6186.2132 95.075356 6184.9781 100.66563 6186.6562 102.34375 C 6187.9861 103.67354 6189.8765 102.91892 6193.9688 99.5 C 6198.5594 95.664565 6197.8449 95.598084 6206.375 100.78125 C 6207.7259 101.60208 6209.9238 101.7221 6212.3125 101.5625 L 6212.3438 98.875 C 6210.5895 98.881891 6208.8861 98.630729 6207.375 97.75 C 6198.1191 92.355413 6197.7073 92.341866 6192.25 97.3125 L 6190 99.34375 L 6190 96.8125 C 6190 95.420719 6191.5059 92.322842 6193.3438 89.90625 C 6198.2078 83.51082 6199.0189 81.616155 6198.9375 76.8125 C 6198.8102 69.295618 6193.4362 62.970226 6186.9062 62.65625 C 6183.7652 62.505223 6183.3097 62.886133 6180.875 67.6875 L 6178.25 72.875 L 6177.6875 69.1875 C 6176.6136 61.926894 6180.4423 52 6184.3125 52 C 6186.3261 52 6190.8747 54.822771 6195.125 58.71875 C 6197.5505 60.942029 6197.8569 60.986852 6199.375 59.46875 C 6202.0721 56.77164 6202.8544 54.648593 6203.4375 48.40625 C 6204.0119 42.25825 6202.8592 36.144481 6200.9062 34.9375 C 6200.2899 34.556573 6198.4273 34.94452 6196.75 35.78125 C 6191.7115 38.294753 6188.5751 34.46962 6189.9688 27.5 C 6190.7519 23.58328 6192.8871 23.305948 6197.5938 26.5 C 6201.2993 29.014599 6202.8524 29.151166 6207.5625 27.34375 C 6209.036 26.7783 6209.1905 27.090688 6208.625 29.34375 C 6208.2419 30.870067 6208.3769 32 6208.9375 32 C 6209.4757 32 6211.0611 33.2375 6212.4688 34.75 L 6215.0312 37.5 L 6212.2812 38 C 6209.6953 38.47427 6209.4763 38.876491 6209.2812 43.90625 C 6209.0331 50.305092 6207.1845 59.715585 6205.7188 62.0625 C 6204.9905 63.228688 6205.013 65.00266 6205.75 67.90625 C 6206.8568 72.266649 6205.6629 80.105885 6203.1875 84.6875 C 6202.1789 86.554161 6202.3284 87.265347 6204.3125 89.40625 C 6206.408 91.667302 6209.4322 93.218239 6212.4062 93.75 L 6212.4375 91.28125 z "/>
</svg>
