<svg xmlns="http://www.w3.org/2000/svg"
     width="50.3" height="64.0"
     viewBox="1660.0938 60.4175 33.3395 42.4613">
  <path d="M 1664.0938 87.8125 C 1664.1195 88.368384 1664.2002 90.403915 1664.25 91.5625 C 1664.4684 91.53178 1664.646 91.58154 1664.875 91.53125 C 1669.0135 90.622296 1669.7749 89.408344 1671.4375 80.71875 C 1673.2091 71.459043 1674.2998 69.217281 1677.5312 68.40625 C 1680.4977 67.661691 1682.4911 69.088508 1683.8438 72.96875 C 1685.1082 76.595991 1684.7399 76.894128 1679.9375 76.25 C 1676.5619 75.797228 1675.9968 76.011595 1676 77.625 C 1676.0021 78.659918 1676.9021 80.980456 1678 82.78125 C 1680.6887 87.191054 1680.5329 88 1676.9688 88 C 1674.5573 88 1673.4972 88.728757 1671.8438 91.53125 C 1670.6996 93.470461 1669.0248 95.40332 1668.125 95.84375 C 1667.3636 96.216432 1665.9616 96.235603 1664.4062 96.09375 C 1664.4526 97.322409 1664.485 97.467829 1664.5312 98.84375 C 1666.8733 98.878767 1668.9914 98.547175 1670.0625 97.71875 C 1670.9289 97.048741 1672.4604 95.23668 1673.4688 93.6875 C 1675.1062 91.172133 1675.8062 90.904687 1679.9062 91.1875 C 1684.0722 91.474858 1684.5421 91.286642 1684.8438 89.15625 C 1685.0297 87.843006 1684.3003 85.860016 1683.2188 84.65625 C 1679.2544 80.243833 1679.339 79.633403 1683.7812 80.34375 C 1686.3234 80.750244 1688.1171 80.607686 1688.5312 79.9375 C 1689.4333 78.478021 1686.2162 70.038083 1683.6875 67.25 C 1681.1246 64.424162 1678.7153 64.417491 1674.9688 67.1875 C 1671.8722 69.476858 1670.3835 72.954707 1668.5938 82 C 1667.625 86.896764 1667.201 87.536561 1664.8125 87.8125 C 1664.5472 87.843153 1664.3317 87.808659 1664.0938 87.8125 z "/>
</svg>
