<svg xmlns="http://www.w3.org/2000/svg"
     width="62.8" height="64.0"
     viewBox="6633.7722 21.1219 83.9393 85.5466">
  <path d="M 6663.75,25.1875 C 6663.5263,25.121866 6663.433,25.660881 6663.25,26.75 6663.0053,28.205606 6662.1664,29 6660.875,29 6659.7771,29 6658.0095,29.443008 6656.9688,30 6655.4679,30.803298 6654.8544,30.596512 6654,29 6652.5116,26.218812 6650.6548,26.443081 6651.375,29.3125 6652.0316,31.928689 6649.6465,36 6647.4688,36 6646.6943,36 6645.5421,35.031696 6644.9062,33.84375 6643.8702,31.907789 6643.6481,31.850614 6642.8125,33.34375 6642.1676,34.49619 6642.4103,35.903013 6643.5938,37.90625 6645.0958,40.44889 6645.1618,41.368519 6644.0312,45.40625 6642.7492,49.985163 6641.716,50.974844 6640.4375,48.90625 6639.9594,48.132639 6639.4342,48.147397 6638.625,48.96875 6637.7722,49.834439 6638.1874,50.643975 6640.25,52.15625 6642.4524,53.771077 6643,54.965559 6643,58.15625 6643,61.685156 6642.7715,62.062267 6641,61.5 6638.3352,60.654234 6638.2839,63.548618 6640.9375,64.96875 6642.0002,65.537517 6643.0752,66.786916 6643.3438,67.75 6643.6124,68.713083 6644.1354,70.546979 6644.5,71.8125 6645.0883,73.854487 6644.8591,74.079578 6642.4375,73.8125 6637.8685,73.308578 6638.3556,75.887333 6642.9688,76.625 6646.1671,77.136437 6647.4238,77.924948 6648.5938,80.1875 6650.0584,83.02002 6650.0141,83.204689 6646.5625,86.65625 6644.6095,88.609307 6643,90.37375 6643,90.59375 6643,91.859698 6645.0611,90.521 6648.4688,87.03125 6651.9597,83.456205 6652.2292,82.833899 6651.125,80.78125 6646.7496,72.647614 6645.8729,70.240323 6644.875,63.53125 6642.8035,49.6029 6646.0727,38.644718 6653.5625,34.34375 6658.0358,31.774974 6659.9195,31.559541 6665.2188,33.03125 6669.2515,34.151249 6675.2609,39.836173 6677.0938,44.25 6678.4533,47.524496 6679.4537,47.638515 6683.7812,45 6685.582,43.902056 6688.3945,43 6690.0312,43 6692.0098,43 6693,42.497293 6693,41.5 6693,39.30666 6688.3497,39.606008 6684.375,42.0625 6680.9878,44.155892 6679,43.974633 6679,41.5625 6679,40.837304 6678.3062,39.663745 6677.4688,38.96875 6676.5804,38.231428 6676.2141,36.941475 6676.5625,35.84375 6677.4776,32.96072 6676.0516,28 6674.3125,28 6673.181,28 6672.9419,28.649814 6673.4062,30.5 6673.7513,31.875 6673.6635,33 6673.1875,33 6670.8821,33 6666.1783,29.711119 6664.9688,27.25 6664.3124,25.914573 6663.9737,25.253134 6663.75,25.1875 z M 6660.0938,38.8125 C 6657.6384,38.837513 6655.3763,40.133877 6653.375,42.75 6650.6812,46.271405 6650.4919,47.048629 6650.5938,55.5 6650.7277,66.619648 6652.7346,73.57741 6658.1562,81.875 6663.8663,90.613917 6667.0237,91.946346 6675.4688,89.09375 6683.0266,86.540822 6684.0826,86.506466 6686.625,88.875 6687.733,89.907325 6689.9544,91.473095 6691.5625,92.34375 6693.1707,93.214405 6694.95,93.927559 6695.5,93.9375 6697.5038,93.97372 6704.5451,90.216806 6706.4062,88.125 6708.9944,85.216067 6707.5539,84.119653 6704.6875,86.8125 6700.9301,90.342471 6696.6558,91.386184 6693.25,89.625 6691.6516,88.798439 6689.7773,87.423765 6689.0625,86.5625 6687.3909,84.548376 6681.5266,84.554707 6675.875,86.5625 6669.4437,88.847336 6665.9243,87.809288 6662.1562,82.5625 6660.4192,80.143675 6659,77.884013 6659,77.53125 6659,77.178488 6658.1574,74.994825 6657.125,72.6875 6652.7482,62.906041 6652.4218,47.91086 6656.4688,42.625 6659.6898,38.418065 6667.98,43.290405 6672.5,52.03125 6673.754,54.456091 6673.8752,55.812153 6673,59.0625 6671.7821,63.585412 6673.3728,70 6675.7188,70 6676.4401,70 6678.0646,67.6375 6679.3438,64.75 6680.623,61.8625 6682.4641,58.835489 6683.4375,58.03125 6685.0107,56.731503 6685.3567,56.776899 6686.5938,58.46875 6687.3593,59.515611 6688,61.110243 6688,62 6688,62.889757 6688.6518,64.494879 6689.4375,65.5625 6690.7999,67.413765 6690.8909,67.420589 6691.5625,65.6875 6691.9498,64.68803 6691.748,63.34178 6691.125,62.71875 6690.502,62.095719 6690,60.934192 6690,60.125 6690,57.981912 6686.9752,55 6684.8125,55 6683.738,55 6681.6082,56.908165 6679.7812,59.5 6675.2163,65.976251 6674.1206,65.498574 6675.9062,57.8125 6676.6643,54.549276 6676.3909,53.55801 6673.4688,49.21875 6668.7975,42.282408 6664.1859,38.770811 6660.0938,38.8125 z M 6696.5,43.5 6695.8438,50 C 6695.4911,53.575 6694.896,58.075 6694.5,60 6693.8078,63.365146 6693.8538,63.420912 6695.375,61.375 6696.2452,60.204656 6697.495,57.222699 6698.1562,54.75 6699.1393,51.074589 6699.1014,49.635173 6697.9375,46.875 L 6696.5,43.5 z M 6653.875,89.5 C 6652.1573,89.442264 6650.9189,90.461208 6649.5625,92.53125 6647.8196,95.191204 6648.9585,95.959799 6651,93.5 6652.7478,91.394029 6653.3892,91.55448 6659.125,95.5 6664.7186,99.347698 6669.6174,100.00534 6674,97.5 6677.5406,95.475998 6679.1136,95.641947 6685.8125,98.75 6692.9417,102.05768 6704.4462,102.66845 6707.6562,99.90625 6708.6778,99.027349 6710.2875,98.028838 6711.25,97.6875 6713.0948,97.033283 6713.7115,94 6712,94 6711.45,94 6711,94.392729 6711,94.875 6711,96.250972 6701.4666,100 6697.9688,100 6696.2346,100 6691.9086,98.65 6688.3438,97 6681.3027,93.740982 6675.9382,93.24875 6672,95.5 6668.4035,97.555961 6667.8677,97.440078 6661.125,92.9375 6657.7889,90.70973 6655.5927,89.557736 6653.875,89.5 z M 6711.7188,88.375 C 6711.1594,87.815598 6705,93.514479 6705,94.59375 6705,94.810585 6705.3654,95 6705.8125,95 6707.1417,95 6712.4223,89.078537 6711.7188,88.375 z"/>
</svg>
