<svg xmlns="http://www.w3.org/2000/svg"
     width="23.9" height="64.0"
     viewBox="2789.1352 19.0000 33.3446 89.3183">
  <path d="M 2798 30.9375 L 2798 31 L 2796.9375 36.9375 C 2796.9722 37.25424 2796.8486 37.624401 2796.7188 38 L 2795.5938 44.25 C 2795.7818 44.438114 2796.1189 51.11551 2796.3438 59.0625 C 2796.6287 69.130457 2797.2619 74.851211 2798.4062 77.9375 C 2799.3095 80.373615 2799.64 82.623615 2799.1562 82.9375 C 2795.3908 85.381271 2793.1352 98.039374 2795.875 101.34375 C 2798.3414 104.31825 2799.7489 103.29727 2803.3125 96 C 2804.5212 93.525 2806.1564 91.5 2806.9375 91.5 C 2807.7185 91.5 2809.2997 93.307351 2810.4375 95.5 C 2812.5979 99.663028 2814.47 100.66277 2817 99.03125 C 2818.1242 98.30627 2818.4798 96.309544 2818.375 91.03125 C 2818.2559 85.035373 2817.8095 83.434093 2815.5 80.40625 L 2812.7812 76.875 L 2814.4062 68.90625 C 2815.2875 64.532252 2816 57.807581 2816 53.96875 C 2816 50.07209 2816.421 47 2816.9688 47 C 2816.9752 47 2817.0552 47.030834 2817.0625 47.03125 L 2817 46 L 2815.4375 40.09375 C 2814.5814 39.090819 2814 38.172949 2814 37.4375 C 2814 37.046154 2814.1886 36.664183 2814.4688 36.40625 L 2812.8125 30.1875 C 2812.5462 29.940258 2812 29.579423 2812 29.4375 C 2812 27.434141 2807.9485 23 2806.125 23 C 2805.1755 23 2803.3108 24.751023 2801.9688 26.875 C 2800.9796 28.440384 2799.4321 29.886141 2798 30.9375 z M 2805.9688 28.15625 C 2807.0229 28.003611 2808.0461 28.811876 2808.8438 30.5625 C 2810.5336 34.271345 2810.2621 36.791604 2808.0625 37.96875 C 2805.482 39.349833 2805.3886 39.335919 2803.125 36.90625 C 2801.2519 34.895742 2801.2151 34.620839 2802.8125 31.40625 C 2803.8117 29.395448 2804.9146 28.308889 2805.9688 28.15625 z M 2800.5 40.1875 C 2800.7536 39.933915 2801.6567 40.305479 2802.5312 41.03125 C 2803.8302 42.109234 2804.7897 42.130317 2807.6562 41.09375 C 2809.5863 40.395865 2811.4129 40.069145 2811.7188 40.375 C 2813.899 42.555153 2812.4232 70.388129 2809.875 75.21875 C 2809.2194 76.461529 2809.7721 78.088135 2811.9062 81.21875 C 2813.5994 83.702409 2815.0962 87.503224 2815.4688 90.25 C 2816.2079 95.697779 2814.9822 96.464183 2812.4375 92.15625 C 2811.5173 90.598541 2809.8755 88.777124 2808.7812 88.09375 C 2807.0884 87.036549 2806.4411 87.18219 2804.4062 89.09375 C 2803.091 90.329379 2801.4744 92.857046 2800.8125 94.6875 C 2799.6474 97.909512 2798.9148 98.571009 2797.8125 97.46875 C 2796.6849 96.341131 2798.8688 88.715702 2801.3125 85.28125 C 2803.7979 81.788091 2803.8325 81.562075 2802.3125 78.09375 C 2799.6669 72.056911 2798.767 64.0253 2799.4062 52.0625 C 2799.7422 45.77521 2800.2464 40.441085 2800.5 40.1875 z "/>
</svg>
