<svg xmlns="http://www.w3.org/2000/svg"
     width="56.0" height="64.0"
     viewBox="629.0000 11.8012 21.3832 24.4176">
  <path d="M 641.65625 31.59375 L 642.625 30.28125 C 645.6296 26.19812 646.38318 22.214567 644.625 19.53125 C 642.36607 16.083682 639.39898 15.801155 635.96875 18.6875 C 633.65423 20.635043 633 21.986485 633 24.875 C 633 26.916108 633.48911 29.082865 634.09375 29.6875 C 634.72417 30.317922 634.80994 31.258029 634.59375 32.21875 L 641.65625 31.59375 z M 638 19.125 C 638.57079 19.023319 639.25495 19.27092 640.375 19.78125 C 643.19714 21.0671 643.87211 24.506029 641.96875 28.0625 C 640.80207 30.242462 637.98936 30.614362 636.1875 28.8125 C 634.56994 27.194937 634.66693 22.804675 636.375 20.46875 C 636.97181 19.652576 637.42921 19.226681 638 19.125 z "/>
</svg>
