<svg xmlns="http://www.w3.org/2000/svg"
     width="22.1" height="64.0"
     viewBox="2301.0177 16.1366 30.5181 88.5491">
  <path d="M 2305.4062 67.3125 L 2306 68.5 L 2306 72.59375 L 2306 75.53125 L 2306 81.5 L 2306 82.34375 C 2306.0252 82.3421 2306.3028 82.080325 2306.3125 82.09375 C 2306.4723 82.314441 2307.1873 85.360475 2307.875 88.84375 C 2308.5627 92.327026 2309.526 96.264526 2310.0312 97.59375 C 2311.1834 100.62388 2313.5203 100.68574 2315.4062 97.75 C 2318.5134 92.913098 2323.6657 73.887121 2324.5625 64 C 2327.2351 34.533676 2327.5358 21.011426 2325.5 20.34375 C 2324.8684 20.136621 2324.3984 25.782626 2324.25 35.6875 C 2324.1209 44.313219 2323.662 51.744272 2323.2188 52.1875 C 2322.7755 52.630728 2321.4169 52.267361 2320.1875 51.40625 C 2318.2718 50.064504 2317.9896 49.050958 2318.1562 44.1875 C 2318.5933 31.433231 2317.9906 20.846878 2316.875 21.21875 C 2316.1298 21.467154 2315.7142 26.40656 2315.625 36.125 C 2315.4847 51.405629 2314.8029 54 2310.875 54 C 2309.1752 54 2308.9891 53.076641 2308.875 44.25 C 2308.5729 20.876232 2308.6327 21.582392 2306.625 21.1875 C 2305.5973 20.985381 2305.0177 21.253737 2305.3438 21.78125 C 2305.6698 22.308764 2305.9818 32.944433 2306.0312 45.4375 C 2306.079 57.536612 2306.1126 63.533748 2305.4062 67.3125 z M 2316.5938 54.4375 C 2319.9743 53.996105 2322.4652 55.434528 2322.8125 58.375 C 2323.1075 60.873757 2322.9131 61.009401 2320.3125 60.4375 C 2318.7615 60.096427 2316.8884 59.635199 2316.1562 59.40625 C 2315.4241 59.177301 2313.8652 59.675113 2312.6875 60.5 C 2310.2141 62.23244 2309.3463 62.362019 2308.5625 61.09375 C 2307.4839 59.34865 2309.1426 57.225359 2312.9688 55.5 C 2314.2473 54.923455 2315.4669 54.584632 2316.5938 54.4375 z M 2315 62.375 C 2315.8945 62.251295 2316.7345 62.475823 2318 63 C 2323.6695 65.348395 2323.6815 65.939914 2317.7812 85.25 C 2316.1427 90.6125 2314.2858 94.98967 2313.6562 94.96875 C 2312.0159 94.91424 2309.8055 92.155013 2310.5 91.03125 C 2310.8229 90.508844 2310.6394 87.239402 2310.0938 83.78125 C 2309.5482 80.323097 2308.9266 74.892813 2308.7188 71.71875 C 2308.3499 66.0854 2308.4267 65.909617 2311.7188 63.875 C 2313.1762 62.974253 2314.1055 62.498705 2315 62.375 z "/>
</svg>
