<svg xmlns="http://www.w3.org/2000/svg"
     width="33.9" height="64.0"
     viewBox="3068.0938 19.6359 42.9503 81.1153">
  <path d="M 3072.0938 86.78125 L 3072.1875 89.625 C 3077.7597 90.870373 3083.869 88.315985 3088.0312 82.65625 C 3092.6508 76.374559 3093.3793 72.273088 3093.4375 52.9375 C 3093.4888 35.892609 3093.5744 35.240264 3096 31.65625 C 3101.1316 24.073891 3103.5672 30.44757 3100.4375 43.21875 C 3098.2734 52.049354 3098.8538 60.129863 3101.8438 63.3125 C 3103.0356 64.581219 3104 66.385448 3104 67.3125 C 3104 69.162465 3102.4777 69.581874 3101.5 68 C 3100.1075 65.74685 3098.1543 67.275459 3096.6875 71.75 C 3092.7439 83.780562 3089.9438 88.095787 3083.5 92.125 C 3081.4657 93.397008 3078.7295 93.977947 3075 93.9375 C 3073.9695 93.926324 3073.1804 93.845595 3072.3125 93.78125 L 3072.4375 96.71875 C 3073.8131 96.731727 3075.2133 96.751186 3076.75 96.59375 C 3082.2105 96.034312 3083.895 95.34697 3087.5625 92.28125 C 3091.44 89.040113 3097.2631 79.4034 3099.4375 72.625 C 3099.9177 71.127808 3100.3077 71.005214 3101.4688 71.96875 C 3103.4146 73.583581 3104.6221 72.643872 3106 68.46875 C 3107.0441 65.304993 3106.9151 64.684645 3104.6562 62 C 3101.0997 57.773414 3100.5776 53.964905 3102.4062 45.6875 C 3104.7276 35.179466 3105.0172 31.882815 3103.875 28.25 C 3102.4242 23.635892 3099.0653 23.84056 3095.6875 28.75 C 3091.4347 34.931121 3090.7034 37.871381 3091.0625 47.5 C 3091.8106 67.558576 3091.4444 72.18513 3088.6562 77.6875 C 3084.6303 85.632313 3077.8218 89.174634 3072.0938 86.78125 z "/>
</svg>
