<svg xmlns="http://www.w3.org/2000/svg"
     width="29.1" height="64.0"
     viewBox="1176.6552 18.9881 40.6954 89.5762">
  <path d="M1182.0 99.559597C1182.0 97.620109 1186.9804 83.744637 1188.1054 82.55C1189.7803 80.771337 1189.0002 77.508857 1185.5198 71.737038C1182.0743 66.023192 1182.0583 65.942227 1183.6416 62.237038C1188.937 49.844369 1188.8194 50.81852 1185.5954 46.053751C1182.2051 41.043299 1180.6552 32.882863 1182.1477 27.90138C1182.7906 25.755621 1183.9203 24.0 1184.6583 24.0C1186.2119 24.0 1186.4839 27.582885 1185.0 28.5C1182.6704 29.939781 1184.5392 38.964786 1188.278 44.329917C1190.8879 48.075237 1190.7691 50.420559 1187.5637 58.432798C1185.7798 62.891997 1185.1988 65.542532 1185.8341 66.323709C1186.3603 66.970669 1188.001 69.679913 1189.4802 72.34425C1192.4573 77.7069 1192.3692 79.171529 1188.5998 86.985192C1187.3262 89.625251 1185.672 93.858607 1184.9238 96.39265C1183.6175 100.81653 1182.0 102.56861 1182.0 99.559597Z M1188.022 101.75C1188.0543 99.908703 1191.6274 92.348321 1192.8109 91.616844C1193.3715 91.2704 1195.0316 87.842661 1196.5001 83.999647C1199.1614 77.035088 1199.1644 76.996868 1197.4028 72.256174C1196.4308 69.640278 1195.0425 66.612372 1194.3177 65.527494C1192.5404 62.866971 1192.659 60.684594 1194.7933 56.780416C1195.7796 54.976187 1197.3235 51.574453 1198.2242 49.221006C1199.7686 45.185766 1199.7553 44.701095 1197.9911 40.712841C1195.9416 36.079481 1194.9196 24.796954 1196.4773 24.0C1197.0148 23.725 1197.9861 26.425 1198.6358 30.0C1200.7395 41.575849 1201.4139 42.514223 1205.4411 39.468197C1206.5088 38.660688 1208.2074 38.0 1209.2159 38.0C1211.2966 38.0 1213.3435 42.342322 1212.5062 44.980325C1211.6831 47.573797 1207.4964 49.13923 1204.4654 47.986843C1202.0279 47.060096 1201.7849 47.318967 1198.5815 54.255059C1195.2705 61.424444 1195.2572 61.511582 1197.1201 63.879831C1198.1541 65.194269 1199.0069 66.996531 1199.0153 67.884859C1199.0237 68.773186 1199.4171 70.109965 1199.8895 70.855477C1200.5983 71.974128 1201.1971 71.916973 1203.3164 70.528349C1208.4306 67.177369 1213.3506 70.317712 1211.4145 75.697231C1210.4927 78.258294 1210.0045 78.486413 1205.7536 78.342447L1201.1015 78.184893L1198.9872 84.538352C1197.8244 88.032754 1196.067 91.928653 1195.0819 93.195905C1194.0968 94.463157 1192.7405 97.1875 1192.0679 99.25C1190.9309 102.73633 1187.9725 104.56433 1188.022 101.75Z M1193.2358 43.327045C1192.1303 41.77217 1190.6907 38.7 1190.0366 36.5C1188.624 31.748301 1189.0112 23.816067 1190.6825 23.26688C1191.5309 22.988104 1191.7389 24.430388 1191.4186 28.371519C1191.1635 31.509211 1191.4069 34.133433 1191.986 34.491377C1192.5437 34.836038 1193.0 35.80951 1193.0 36.654646C1193.0 37.499783 1193.9553 39.532896 1195.123 41.172674C1196.5383 43.160285 1196.9126 44.487423 1196.2459 45.15409C1195.5792 45.820757 1194.5759 45.211742 1193.2358 43.327045Z M1208.8196 74.171672C1209.0733 72.44735 1208.635 72.0 1206.692 72.0C1205.3461 72.0 1203.6884 72.6705 1203.0083 73.489999C1201.9856 74.722333 1202.1805 75.143081 1204.1359 75.923051C1207.3069 77.18797 1208.438 76.76503 1208.8196 74.171672Z M1209.5 43.569638C1209.5 41.000347 1207.6062 40.536693 1205.5422 42.600674C1204.1797 43.963115 1204.1088 44.456032 1205.1761 45.144064C1207.2498 46.480874 1209.5 45.661542 1209.5 43.569638Z"/>
</svg>
