<svg xmlns="http://www.w3.org/2000/svg"
     width="34.7" height="64.0"
     viewBox="5137.0000 19.7020 44.9985 83.0168">
  <path d="M 5176.2812 86 C 5175.9242 85.75067 5175.6831 85.620887 5175.25 85.3125 C 5169.2433 81.035243 5166.8145 76.546914 5165.375 67.0625 C 5164.6711 62.424715 5164.3471 58.262215 5164.625 57.8125 C 5164.9029 57.362785 5167.3331 57 5170.0312 57 C 5176.6937 57 5177.9985 54.754159 5174.9375 48.625 C 5172.9049 44.555222 5172.8952 44.10939 5174.4062 41.1875 C 5176.2296 37.661448 5176.5478 29.452088 5174.9062 28.4375 C 5174.3056 28.066243 5172.483 29.386202 5170.8438 31.375 C 5167.479 35.456963 5165.1405 35.917678 5162.5 33 C 5159.8882 30.113998 5157.8298 30.528308 5155.125 34.5 C 5153.8166 36.421242 5152.331 38 5151.8438 38 C 5150.6097 38 5147.2074 32.14407 5146.4688 28.78125 C 5145.3532 23.701956 5141 26.512835 5141 32.3125 C 5141 35.283454 5143.6292 41.860552 5145.7812 44.28125 C 5147.2232 45.903237 5147.1553 46.294344 5145.0625 49.125 C 5143.1404 51.724724 5142.9606 52.611988 5143.9062 54.6875 C 5144.881 56.826548 5145.5751 57.097605 5149.25 56.84375 L 5153.5 56.5625 L 5153.1562 65.75 L 5152.8125 74.96875 L 5158.0312 82.71875 C 5164.6209 92.495933 5166.6391 94.744648 5171 97.0625 C 5172.8505 98.046046 5174.9637 98.513848 5177.125 98.71875 L 5176.9062 95.375 C 5175.2691 95.114156 5173.6508 94.680847 5172.1875 93.9375 C 5169.8218 92.735761 5167.2315 90.79107 5166.4062 89.625 C 5165.5811 88.458931 5162.8355 84.655108 5160.3125 81.1875 L 5155.7188 74.875 L 5156.4062 63.96875 L 5157.0938 53.03125 L 5151.0625 53.65625 C 5144.6372 54.327826 5143.8011 53.706477 5146.75 50.4375 C 5147.7125 49.370524 5150.6523 45.223613 5153.2812 41.21875 C 5156.7025 36.006968 5158.4331 34.158344 5159.4062 34.71875 C 5163.3596 36.995347 5174.9406 52.403077 5173.6562 53.6875 C 5173.3333 54.010532 5170.943 54.361771 5168.375 54.46875 C 5163.8943 54.65541 5160.302 57.073641 5161.5312 59.0625 C 5161.7904 59.481793 5162.237 63.056121 5162.5 67 C 5163.101 76.013583 5166.4627 82.627144 5173.25 88.03125 C 5174.5727 89.084412 5175.6355 89.843026 5176.5625 90.375 L 5176.2812 86 z M 5172.1562 33.65625 C 5172.6108 33.536036 5172.9087 33.872146 5173.3125 34.59375 C 5173.8857 35.617896 5173.8081 37.094439 5173.125 38.59375 C 5171.862 41.365719 5170.7463 41.610515 5168.9688 39.46875 C 5167.9154 38.199694 5168.1177 37.507615 5170.0625 35.4375 C 5171.098 34.33523 5171.7017 33.776464 5172.1562 33.65625 z M 5144.3125 34.34375 C 5144.9764 33.679897 5150 40.000863 5150 41.5 C 5150 43.114219 5148.829 43.477239 5147.5938 42.25 C 5146.563 41.225876 5143.8815 34.774791 5144.3125 34.34375 z "/>
</svg>
