<svg xmlns="http://www.w3.org/2000/svg"
     width="32.3" height="64.0"
     viewBox="5687.1955 19.0000 43.6719 86.5055">
  <path d="M5703.6421 97.440923C5699.7361 93.647416 5697.9255 90.092562 5695.0134 80.5C5692.4568 72.07816 5691.76 66.372388 5691.5081 51.79561C5691.1955 33.712352 5693.0315 23.0 5696.4434 23.0C5698.9984 23.0 5699.6648 26.102663 5699.8803 39.0C5699.9973 46.00542 5700.7055 53.697832 5701.4913 56.5C5702.2626 59.25 5703.1294 64.2 5703.4176 67.5C5704.0252 74.457984 5706.3195 82.575088 5707.6104 82.333512C5709.4656 81.986312 5715.2566 60.020494 5717.5001 44.820687C5719.6834 30.028994 5721.1429 24.0 5722.5404 24.0C5724.3924 24.0 5726.2757 32.478771 5726.5566 42.081946C5726.8674 52.704542 5724.1293 68.579554 5719.6042 82.391598C5715.6384 94.496187 5713.6521 98.580637 5711.0554 99.970356C5708.187 101.50547 5707.6324 101.31625 5703.6421 97.440923Z M5711.6981 94.58086C5720.0909 81.620135 5726.5532 50.053128 5723.9975 34.5C5723.4552 31.2 5723.009 28.360942 5723.0058 28.190983C5723.0026 28.021024 5722.6031 28.127268 5722.118 28.427081C5721.6329 28.726894 5720.9406 32.015952 5720.5797 35.736098C5718.3408 58.810689 5712.1519 83.934004 5708.0877 86.445779C5706.8384 87.217935 5704.1157 84.374155 5703.525 81.680073C5702.9384 79.004694 5701.4623 71.10376 5699.5679 60.5C5698.4299 54.130417 5697.3891 39.964475 5697.0367 26.05C5697.0097 24.984059 5696.7048 24.895183 5695.8855 25.714452C5693.0753 28.524681 5693.2216 64.317454 5696.0929 76.458629C5698.5141 86.696489 5705.011 98.027521 5708.4371 97.987621C5709.0217 97.980813 5710.4891 96.44777 5711.6981 94.58086Z"/>
</svg>
