<svg xmlns="http://www.w3.org/2000/svg"
     width="33.1" height="64.0"
     viewBox="6034.9375 20.8438 43.7172 84.6297">
  <path d="M 6050.2812 24.84375 L 6044.5938 30.4375 L 6038.9375 36.03125 L 6042 40.5 C 6048.2012 49.513124 6049.3351 57.528183 6046.5 72.34375 C 6044.3108 83.784236 6044.5673 89.182148 6047.5312 95.03125 C 6050.3814 100.65581 6053.0461 101.47345 6056.875 97.90625 C 6058.0228 96.836951 6058.6894 96.406232 6059.5938 96.40625 L 6059.5 96 L 6061.0625 91.8125 C 6061.0454 91.652394 6061 91.523281 6061 91.34375 C 6061 89.853787 6061.2414 89.179282 6062.0625 89.15625 L 6062.5 88 L 6062.5 82.53125 C 6062.4968 82.522341 6062.5031 82.508926 6062.5 82.5 C 6062.0984 81.358229 6061.7305 80.146006 6061.5312 78.75 C 6061.1187 75.859804 6060.3895 70.8 6059.9062 67.5 C 6057.9992 54.47962 6057.8178 47.586051 6059.2812 43.5 C 6060.6986 39.542687 6060.7685 39.514262 6065.2812 39.84375 C 6068.8592 40.104995 6070.2722 39.727735 6071.9062 38.09375 C 6074.3756 35.62441 6074.6547 30.779755 6072.4375 28.5625 C 6069.9938 26.118834 6068.6419 26.552997 6060.7812 32.21875 C 6059.2974 33.288293 6058.4223 32.852316 6054.6562 29.15625 L 6050.2812 24.84375 z M 6049.9062 28.625 L 6054.5625 33.3125 C 6057.9732 36.723192 6058.9863 38.334892 6058.25 39.25 C 6056.71 41.163956 6055.1392 50.067145 6055.6562 54 C 6055.9092 55.925 6056.8834 61.775 6057.8125 67 C 6060.1277 80.020691 6059.9374 90.283458 6057.3125 93.8125 C 6053.9004 98.399813 6051.6027 97.852309 6049.0312 91.875 C 6046.7951 86.677142 6046.7924 86.596167 6048.5 78.0625 C 6049.4439 73.345385 6050.4645 65.840392 6050.75 61.375 C 6051.3174 52.498139 6049.8865 47.012038 6045.125 39.6875 L 6042.6562 35.875 L 6046.2812 32.25 L 6049.9062 28.625 z M 6068.4375 30.21875 C 6070.8588 30.565149 6071.8797 34.834509 6069.8438 36.125 C 6067.6754 37.499417 6063.9805 37.127916 6063.3438 35.46875 C 6062.5331 33.355884 6065.9263 29.859482 6068.4375 30.21875 z "/>
</svg>
