<svg xmlns="http://www.w3.org/2000/svg"
     width="27.5" height="64.0"
     viewBox="6208.3125 16.0000 38.4416 89.5625">
  <path d="M 6212.4375,91.28125 6212.4062,93.75 C 6213.1029,93.874564 6213.7894,94 6214.4688,94 6217.5665,94 6224.1013,86.541739 6225.75,81.125 6227.2602,76.163256 6227.3364,74 6226,74 6225.45,74 6225,74.909339 6225,76.03125 6225,79.096277 6221.6066,85.07724 6217.7812,88.75 6215.1849,91.24269 6214.3071,91.750555 6212.4375,91.28125 z M 6212.3438,98.875 6212.3125,101.5625 C 6217.7295,101.20057 6224.4156,98.80625 6226.5,95.625 6229.1953,91.511509 6227.2772,90.550246 6223.3125,94.03125 6219.564,97.322494 6215.7899,98.861464 6212.3438,98.875 z M 6231.1875,20 C 6230.1325,20 6225.3687,27.242 6224.4688,30.21875 6223.6237,33.01416 6224.6202,32.078868 6228.875,26.09375 6232.0479,21.630437 6232.6735,20 6231.1875,20 z M 6242.1875,39 C 6241.6209,39 6236.5281,45.8625 6230.9062,54.25 6225.2843,62.6375 6219.8848,70.572855 6218.875,71.875 6217.8651,73.177146 6217.2882,74.67378 6217.625,75.21875 6218.1908,76.134147 6222.8876,71.386845 6222.9688,69.8125 6222.9886,69.429126 6225.1375,66.232099 6227.75,62.71875 6230.3625,59.205402 6233.85,54.135287 6235.5,51.4375 6237.15,48.739714 6239.5505,44.817991 6240.8438,42.75 6242.1372,40.682008 6242.7541,39 6242.1875,39 z M 6241.875,71.09375 C 6241.1641,71.403998 6239.8377,72.857723 6238.3125,75.25 6236.8223,77.5875 6234.7376,80.490716 6233.6875,81.6875 6232.6373,82.884285 6232.1038,84.346785 6232.4688,84.9375 6232.8339,85.528216 6233.4985,86 6233.9688,86 6234.8791,86 6239.7482,78.333758 6241.75,73.75 6242.6817,71.616731 6242.5859,70.783502 6241.875,71.09375 z"/>
</svg>
