<svg xmlns="http://www.w3.org/2000/svg"
     width="26.8" height="64.0"
     viewBox="2274.8298 14.0062 35.1702 83.9563">
  <path d="M 2305.4062 67.3125 C 2304.6598 71.30617 2303.0976 72.79803 2299.7812 75.90625 C 2296.2018 79.261028 2292.3012 79.951628 2291.3125 77.375 C 2290.807 76.057641 2291.6408 64.384779 2293.4375 47.5 C 2293.9627 42.563724 2295.3743 37.375801 2296.5625 36 C 2300.1382 31.859583 2298.307 25.201417 2292.5625 21.4375 C 2287.3257 18.006178 2280.1164 22.715016 2279.2812 30.125 C 2278.8298 34.131183 2279.088 35.006607 2281.4062 37.15625 L 2284.0625 39.625 L 2283.0312 48.5625 C 2282.4666 53.481154 2281.6414 60.542076 2281.1875 64.25 C 2280.3129 71.395488 2281.3057 83.687614 2283.125 88.21875 C 2285.4311 93.962452 2293.9228 93.014035 2301.1875 86.21875 C 2303.6919 83.876148 2305.6102 82.369224 2306 82.34375 L 2306 81.5 L 2306 75.53125 C 2306 77.811922 2304.7277 79.635357 2300.375 83.71875 C 2295.6548 88.14692 2294.1644 89 2291 89 C 2286.4936 89 2285.4351 87.874464 2284.0625 81.75 C 2282.7475 75.882085 2282.7906 75.043975 2285.2812 54.59375 L 2287.3438 37.71875 L 2284.6562 35.78125 C 2279.3844 31.94095 2282.2925 23 2288.8125 23 C 2291.0474 23 2292.0923 23.821292 2293.8438 26.9375 L 2296.0312 30.84375 L 2294.0938 34.6875 C 2290.6645 41.4535 2287.0514 77.064696 2289.4062 80.875 C 2290.9752 83.41372 2297.0031 81.409918 2301.6875 76.8125 L 2306 72.59375 L 2306 68.5 L 2305.4062 67.3125 z "/>
</svg>
