<svg xmlns="http://www.w3.org/2000/svg"
     width="33.9" height="64.0"
     viewBox="827.6097 15.8893 49.3903 93.1101">
  <path d="M 872.59375 82.34375 C 871.27059 81.618626 869.08755 80.024214 866.625 77.75 L 860.96875 72.5 L 862.5 67.5 C 863.39352 64.624391 864.22162 57.484003 864.4375 50.6875 C 864.7386 41.20794 865.1613 38.485805 866.5625 36.9375 C 868.85451 34.404861 871.88241 25.324577 871.25 22.90625 C 870.46104 19.889275 868.973 20.600842 862.75 27 C 859.54085 30.3 856.51672 33 856.03125 33 C 855.54578 33 854.26678 31.515632 853.15625 29.71875 C 850.20337 24.940901 846.36187 21.653267 844.5625 22.34375 C 841.79209 23.406857 842.57614 31.727944 846 37.5 C 849.47807 43.363443 849.91488 47 847.125 47 C 846.08826 47 844.49468 45.875 843.59375 44.5 C 841.47061 41.259679 839.35165 41.314219 838.71875 44.625 C 837.93014 48.750381 839.83697 54.265525 843 57.03125 C 845.26374 59.010646 845.99391 60.6482 846.375 64.53125 C 846.64315 67.263486 847.35884 71.607231 847.9375 74.1875 C 848.51616 76.76777 848.71889 79.560294 848.40625 80.375 C 847.13024 83.700241 842.80899 83.396523 837.75 79.65625 C 833.53864 76.54266 832.28552 78.518049 834.375 84.90625 C 835.95294 89.730517 835.92367 90.0636 834 93.21875 C 831.71865 96.960542 831.60973 97.86302 832.96875 101.4375 C 834.32299 104.99942 836.07507 104.6506 840.25 100 C 842.6761 97.297474 844.69674 96 846.4375 96 C 848.17096 96 850.6974 94.364005 854.1875 91 C 857.04057 88.25 859.5558 86 859.75 86 C 859.94419 86 862.78976 88.250396 866.09375 91 C 870.29735 94.498272 871.57463 95.444735 873 95.21875 L 872.90625 91.78125 C 871.60987 91.482475 868.59467 89.493966 865.65625 86.875 L 859.875 81.75 L 855.03125 86.5625 C 848.21216 93.340269 847.04973 93.596057 841.5625 89.40625 C 836.17981 85.296256 835.08016 81.956924 839.9375 84.46875 C 844.30811 86.728881 846.53782 86.364104 849.5 82.84375 C 851.36566 80.626537 851.96262 79.055217 851.5 77.59375 C 848.79829 69.058752 848.36957 57.428995 850.5 50.40625 C 852.59166 43.511285 852.39136 42.188437 848.46875 36.03125 C 842.55269 26.744991 844.34078 23.498815 850.6875 32 C 852.74057 34.75 855.12366 36.968741 855.96875 36.9375 C 856.81385 36.90626 859.68742 34.20626 862.34375 30.9375 C 865.00007 27.668741 867.62171 25 868.1875 25 C 869.87145 25 868.13648 30.137993 864.9375 34.65625 C 862.33129 38.337276 861.99768 39.669862 861.96875 46.15625 C 861.95076 50.191337 861.49298 56.65 860.9375 60.5 C 858.55044 77.044612 858.43801 75.476892 861.9375 77.96875 C 863.68184 79.210829 866.54071 81.535261 868.28125 83.125 C 869.86518 84.5717 871.69628 85.638198 872.71875 85.84375 L 872.59375 82.34375 z M 841.3125 47.34375 C 841.58873 47.067523 843.23965 47.574598 844.96875 48.46875 C 847.50649 49.781067 847.97291 50.538232 847.4375 52.3125 C 846.48878 55.456408 845.741 56.008405 843.84375 54.9375 C 842.21004 54.015352 840.31596 48.340286 841.3125 47.34375 z M 838.28125 91 C 838.59383 91 839.57406 91.730311 840.46875 92.625 C 841.97103 94.127277 841.93405 94.433247 839.875 96.625 C 837.06623 99.614805 834.98999 99.66944 835.03125 96.75 C 835.06171 94.59512 837.09111 91 838.28125 91 z "/>
</svg>
