<svg xmlns="http://www.w3.org/2000/svg"
     width="39.1" height="64.0"
     viewBox="3834.6963 13.0000 55.3037 90.4150">
  <path d="M3869.6744 98.25C3869.4304 97.8375 3868.937 95.475 3868.578 93.0C3867.5176 85.688658 3865.8481 80.118851 3864.3427 78.869419C3863.2031 77.923638 3861.4601 79.25465 3855.201 85.850417C3850.9475 90.332688 3846.9604 94.0 3846.3407 94.0C3845.1499 94.0 3844.0 91.767501 3844.0 89.455725C3844.0 86.009304 3848.6181 76.28275 3852.0119 72.581189C3855.061 69.255548 3855.5974 68.083459 3854.9091 66.25C3854.2808 64.576256 3853.2634 64.0 3850.9366 64.0C3844.4299 64.0 3838.6963 56.985275 3839.7241 50.282167C3840.6049 44.538214 3842.2604 44.40243 3848.1066 49.59464L3853.3902 54.287233L3854.6979 48.529295L3856.0056 42.771357L3851.9642 38.849374C3849.7415 36.692284 3847.4902 33.789434 3846.9614 32.398596C3844.8641 26.882222 3846.4359 17.0 3849.4107 17.0C3850.2138 17.0 3853.4548 19.925 3856.613 23.5C3859.7712 27.075 3863.0627 29.994322 3863.9276 29.987381C3864.7924 29.980441 3867.6657 27.505441 3870.3126 24.487381C3872.9595 21.469322 3875.7561 19.0 3876.5274 19.0C3878.9301 19.0 3879.8364 22.209928 3878.9706 27.653684C3878.0263 33.591047 3876.2456 37.322807 3872.4381 41.343697C3867.8583 46.18015 3867.378 52.017983 3870.5945 63.75C3871.2534 66.153306 3875.7561 65.078551 3878.4522 61.874432C3881.7924 57.904853 3882.7099 58.682492 3880.0351 63.215989C3877.6232 67.303736 3874.3789 69.054343 3871.3154 67.921009C3868.3418 66.820931 3867.3645 64.62781 3866.4492 57.0C3865.1871 46.483044 3865.6579 44.395482 3870.3515 39.694956C3874.9078 35.131948 3877.7392 28.143291 3876.1686 25.336726C3875.3937 23.952069 3874.3886 24.585237 3869.7355 29.389359L3864.2209 35.08304L3860.3277 33.053786C3857.7874 31.729707 3855.4172 29.282747 3853.5072 26.012266C3851.8971 23.25552 3850.2244 21.0 3849.7899 21.0C3849.3555 21.0 3849.0 23.084385 3849.0 25.631966C3849.0 30.90995 3851.4975 35.67914 3856.1807 39.344342C3858.8951 41.468662 3859.0892 41.964807 3858.0012 43.997819C3857.1855 45.521913 3856.9195 49.61342 3857.1958 56.386727C3857.6608 67.786817 3859.8801 73.713057 3864.4668 75.802939C3868.0314 77.427065 3869.4574 77.31914 3873.7898 75.097318C3878.2447 72.812756 3881.4952 69.480732 3882.9086 65.75C3884.0537 62.727484 3886.0 62.038479 3886.0 64.655609C3886.0 66.393043 3881.6357 72.698601 3879.0983 74.627236C3878.0982 75.387407 3877.5455 77.895438 3877.401 82.329252C3877.1883 88.858023 3875.6492 95.353671 3873.7472 97.75C3872.6484 99.134462 3870.3635 99.414963 3869.6744 98.25Z M3853.9742 59.75C3853.9564 58.196323 3852.4648 56.4942 3849.1544 54.25C3846.5176 52.4625 3844.0542 51.0 3843.6801 51.0C3842.5026 51.0 3842.9424 56.545578 3844.25 58.184547C3845.9936 60.370025 3849.0919 61.933667 3851.75 61.969591C3853.4331 61.992339 3853.9935 61.433113 3853.9742 59.75Z M3854.8773 82.768768C3860.2301 77.063637 3860.2469 77.025727 3858.5556 74.444439C3856.9997 72.069892 3856.6752 71.971738 3854.7051 73.279832C3852.0949 75.012913 3848.5101 81.284072 3847.5237 85.84254C3846.509 90.53192 3848.2933 89.786079 3854.8773 82.768768Z M3874.3301 84.69562C3874.486 79.010629 3874.3352 78.527492 3872.5 78.833574C3871.4 79.01704 3870.1206 79.531432 3869.6569 79.976666C3868.8797 80.722884 3870.5416 91.366445 3871.7494 93.378416C3872.831 95.179984 3874.1658 90.688868 3874.3301 84.69562Z"/>
</svg>
