<svg xmlns="http://www.w3.org/2000/svg"
     width="36.2" height="64.0"
     viewBox="3757.4453 11.7401 50.5632 89.4904">
  <path d="M 3796.5312 84.875 C 3793.2263 84.829712 3789.9354 83.547656 3788.5938 81.5 C 3786.5619 78.399053 3786.5461 71.342334 3788.5625 64.40625 C 3790.4519 57.906782 3792.5035 57.412556 3798.75 61.9375 C 3803.166 65.136462 3804.0085 65.007279 3804 61.09375 C 3803.9895 56.208487 3801.7838 50.617274 3798.7812 47.8125 L 3795.7812 45 L 3797.4062 40.96875 C 3799.427 35.918566 3799.3149 28.932759 3797.1562 22.5625 C 3794.9878 16.163489 3793.3796 15.740054 3792.0312 21.1875 C 3789.5716 31.124922 3788.8346 32.967851 3786.0312 35.96875 C 3783.5438 38.631605 3782.781 38.950957 3781.0625 38.03125 C 3779.944 37.432658 3778.3306 35.637632 3777.5 34.03125 C 3775.7601 30.666732 3775.4805 20.434514 3777.0938 19.4375 C 3777.8417 18.975288 3777.8669 18.460602 3777.1562 17.75 C 3776.0451 16.638818 3771.0131 20.383401 3767.4375 25 C 3764.3828 28.943941 3764.8428 37.1597 3768.3125 40.78125 C 3769.796 42.329708 3771 43.957087 3771 44.375 C 3771 44.792913 3769.6384 46.282494 3767.9688 47.6875 C 3764.37 50.715662 3762.1146 54.723182 3761.8125 58.6875 C 3761.4453 63.506425 3762.8417 64.536304 3765.875 61.71875 C 3767.3272 60.369851 3769.6588 58.50234 3771.0938 57.59375 C 3773.4849 56.079537 3773.843 56.093093 3775.0625 57.5625 C 3776.1703 58.897404 3776.1382 60.290104 3775 65.84375 C 3774.2482 69.511937 3773.6023 75.221091 3773.5625 78.5625 C 3773.5023 83.609923 3773.9633 85.374169 3776.2812 88.875 C 3777.8157 91.192561 3780.5158 93.954777 3782.2812 95.03125 C 3785.4749 96.978523 3789.5039 97.230415 3794.7188 96.0625 L 3795.3125 92.28125 C 3786.9649 94.85928 3782.4781 93.172259 3778.5312 86.4375 C 3775.5925 81.422895 3775.5408 79.627778 3778 65.5 C 3780.0441 53.756637 3777.2819 50.403231 3769.7812 55.5 C 3765.3481 58.512367 3765 58.548171 3765 56.03125 C 3765 53.153201 3770.5788 47.283476 3774.5625 45.96875 C 3776.46 45.342515 3778.0015 44.557346 3778 44.1875 C 3777.9985 43.817654 3776.3236 42.6 3774.2812 41.5 C 3769.1967 38.761569 3767.1566 33.554332 3769 27.96875 C 3770.7113 22.783359 3773 22.711132 3773 27.84375 C 3773 33.074094 3776.9282 40.250125 3780.4688 41.5 C 3783.0256 42.402658 3783.574 42.118571 3787.0625 38.1875 C 3789.1609 35.822835 3791.6638 31.829172 3792.625 29.3125 C 3794.0536 25.57165 3794.5191 25.081554 3795.125 26.625 C 3795.5327 27.663359 3795.8989 31.09317 3795.9375 34.28125 C 3796.0033 39.704635 3795.801 40.187415 3793 41.78125 C 3789.1232 43.98726 3789.2117 45.11366 3793.4688 47.40625 C 3797.1478 49.387516 3799.3084 52.037943 3800.25 55.75 C 3800.9206 58.393671 3800.247 58.519391 3796.375 56.5 C 3790.5761 53.475646 3789.2168 54.430812 3786.0938 63.71875 C 3783.1138 72.581208 3783.2857 79.980728 3786.5625 83.875 C 3789.0949 86.884597 3792.4027 88.227266 3796.0312 87.90625 L 3796.5312 84.875 z "/>
</svg>
