<svg xmlns="http://www.w3.org/2000/svg"
     width="39.3" height="64.0"
     viewBox="1144.7188 49.9062 34.4561 56.1286">
  <path d="M 1148.7188 89.96875 L 1149 93.40625 C 1149.9126 93.766039 1150.7244 94 1151.3125 94 C 1154.0871 94 1157.7183 90.016547 1158.8125 85.78125 C 1159.4218 83.422838 1160.8716 77.399494 1162.0312 72.40625 C 1163.3229 66.844761 1165.0567 62.19586 1166.5 60.40625 C 1168.7164 57.657915 1168.9725 57.596943 1170.5938 59.1875 C 1172.2238 60.786907 1172.1888 61.237662 1170.0312 67.625 C 1168.1542 73.182178 1167.8511 75.582215 1168.375 81.21875 C 1168.994 87.878508 1168.9755 88.057264 1167 87 C 1164.4225 85.620555 1163.4334 86.250692 1161.0938 90.8125 C 1160.0551 92.837683 1158.071 95.552664 1156.6875 96.84375 C 1154.7965 98.608375 1152.5086 98.961988 1149.4062 98.09375 L 1149.6875 101.1875 C 1150.0372 101.26099 1150.2587 101.41493 1150.5938 101.46875 C 1154.1177 102.03485 1155.1598 101.7485 1157.9062 99.4375 C 1159.6634 97.958993 1161.998 94.991773 1163.0938 92.84375 C 1164.9994 89.108598 1165.1591 89.004251 1167.25 90.46875 C 1172.0087 93.801904 1175.1749 91.143607 1172.5312 86.03125 C 1169.8133 80.775351 1169.5931 75.661498 1171.875 69.5625 C 1174.4446 62.694779 1174.5598 58.909269 1172.25 56.0625 L 1170.5 53.90625 L 1166.125 58.34375 C 1161.9772 62.573389 1161.6195 63.437081 1158.8125 75.65625 C 1157.1892 82.722959 1155.292 89.099195 1154.5625 89.84375 C 1153.4503 90.978759 1150.9792 90.845186 1148.7188 89.96875 z "/>
</svg>
