<svg xmlns="http://www.w3.org/2000/svg"
     width="46.2" height="64.0"
     viewBox="3684.0000 12.4461 34.9912 48.4289">
  <path d="M 3688.125 52.78125 L 3688 54 L 3690.5312 56.875 C 3690.4732 55.64115 3691.6015 53.782895 3694.8438 49.5 C 3697.6756 45.759212 3700 42.353885 3700 41.9375 C 3700 41.521115 3702.273 39.535347 3705.0625 37.53125 C 3712.0313 32.524698 3714.9912 24.585097 3711.9688 18.9375 C 3710.6355 16.446082 3708.5166 16.500675 3704.875 19.09375 C 3700.5566 22.168696 3698.8548 26.193775 3699.0938 32.8125 C 3699.2107 36.051817 3698.7491 39.630715 3698 41.03125 C 3695.2763 46.123374 3690.0692 52.21474 3688.125 52.78125 z M 3708.75 20.1875 C 3709.1904 20.426996 3709.4788 21.129312 3710 22.5 C 3711.1246 25.457812 3709.8592 29.430812 3706.75 32.75 C 3703.5167 36.201587 3702 35.61177 3702 30.9375 C 3702 26.365848 3704.1111 21.553694 3706.5312 20.625 C 3707.7036 20.175146 3708.3096 19.948004 3708.75 20.1875 z "/>
</svg>
