<svg xmlns="http://www.w3.org/2000/svg"
     width="64.0" height="56.3"
     viewBox="5540.2148 15.0000 105.1655 92.4503">
  <path d="M 5630.3438,19 C 5629.2069,19 5628.9833,19.695951 5629.4688,21.90625 5630.2703,25.555739 5628.6234,31.946123 5626,35.28125 5624.9019,36.677302 5624,38.080501 5624,38.40625 5624,40.165997 5626.2792,38.512119 5628.5,35.15625 5633.0659,28.256648 5634.1272,19 5630.3438,19 z M 5638.7188,19.53125 C 5638.4808,19.821399 5638.3167,21.080141 5637.9688,23.59375 5637.0125,30.499247 5632.6814,37.520005 5626.75,41.78125 5622.5589,44.792258 5621.1402,46.787033 5617,55.40625 5608.6646,72.759374 5605.7163,74.437737 5594.1562,68.40625 5592.6969,67.644839 5590.7766,67.003388 5589.875,67 5587.399,66.990694 5584.2934,70.051509 5582.625,74.1875 5581.1802,77.769102 5581.2418,78.036209 5584,81.84375 5587.2034,86.26587 5588.6357,93.242579 5587.125,97 5586.5721,98.375 5586.0973,98.833145 5586.0625,98 5585.9723,95.844249 5582.1247,88.744536 5580.25,87.28125 5578.1959,85.677984 5576.8423,86.766469 5572.375,93.75 5569.0725,98.912549 5567,99.828567 5567,96.09375 5567,95.10296 5568.125,92.619926 5569.5,90.59375 5572.4598,86.232189 5572.592,84.025124 5570.25,78 5567.6597,71.336114 5564.9591,67.313836 5562.2812,66.09375 5558.8147,64.514265 5558.4033,64.66298 5556.25,68.3125 5553.3825,73.172605 5551.6701,82.171066 5551.5938,92.75 5551.5768,95.0875 5551.2184,97 5550.8125,97 5547.5717,97 5547.4704,75.207078 5550.6562,63.78125 5552.9813,55.442925 5553.6952,55.214492 5560.875,60.5 5567.3021,65.231358 5569.1225,65.816306 5570.75,63.75 5572.9113,61.005947 5573.4868,56.71759 5573.1562,46.25 L 5573,40.96875 5567.5938,41.625 C 5562.6679,42.203938 5561.9419,42.035672 5559.5938,39.6875 5556.5575,36.651247 5555.9945,30.130526 5558.5625,27.5625 5561.8835,24.241556 5569.1264,26.583778 5571.0312,31.59375 5572.3592,35.086756 5574.9077,34.56358 5581.4688,29.46875 5588.0062,24.392321 5591.7725,23.005415 5593.0938,25.125 5594.2507,26.981319 5595.3977,34.946043 5594.625,35.71875 5594.2871,36.056638 5593.1967,35.569545 5592.1875,34.65625 5590.2892,32.938341 5586.2788,32.465159 5584.4375,33.75 5583.8585,34.154078 5582.124,36.201905 5580.5625,38.28125 5577.7604,42.012522 5577.7177,42.196334 5578.25,52.625 5578.5466,58.436637 5579.2366,63.642772 5579.7812,64.1875 5580.4352,64.841385 5582.2172,64.132263 5585.0312,62.09375 5587.3755,60.39554 5589.8254,59 5590.4688,59 5591.1123,59 5593.4697,60.575 5595.7188,62.5 5597.9676,64.425 5600.6436,65.98098 5601.6562,65.96875 5605.5748,65.921423 5610.1423,59.876526 5614.0625,49.5625 5616.6135,42.85071 5616.5284,41.908625 5613,38.8125 5611.1163,37.159611 5610,35.220126 5610,33.59375 5610,30.352545 5610.6898,30.324627 5613.1875,33.5 5615.9702,37.03755 5618.5923,38.281996 5620.8125,37.09375 5624.1113,35.3283 5626.6499,22 5623.6875,22 5622.8904,22 5622.3836,23.257171 5622.375,25.25 5622.3539,30.168313 5621.1304,34 5619.5625,34 5618.7908,34 5616.5354,32.117426 5614.5625,29.8125 5610.4542,25.012886 5609.1397,25.443602 5608.2812,31.84375 5607.7996,35.43521 5608.1192,36.275412 5610.875,39.03125 5614.5248,42.681014 5614.5567,43.011866 5612.1875,49.25 5609.7269,55.728835 5604.4624,63 5602.2188,63 5601.2104,63 5599.0808,61.65 5597.5,60 5594.0801,56.430405 5590.0098,56.067116 5586.2812,59 5584.8827,60.1 5583.4343,61 5583.0625,61 5582.0162,61 5580.1079,52.019186 5580.0938,47 5580.0834,43.382146 5580.7025,41.754301 5583.2812,38.6875 5586.9611,34.310998 5589.1388,34.440105 5591.5938,39.1875 5592.6926,41.312222 5593.7286,42.037909 5595.3125,41.8125 5597.2788,41.532681 5597.5396,40.829833 5597.7812,35 5598.1237,26.734361 5595.6623,22 5591.0625,22 5589.4369,22 5587.8755,22.387747 5587.5938,22.84375 5587.3119,23.299753 5584.4007,25.3338 5581.0938,27.375 L 5575.0625,31.09375 5571.4062,27.03125 C 5566.5447,21.650157 5562.3399,21.472633 5557.4062,26.40625 5551.4861,32.326413 5553.0953,39.801036 5561.4062,44.9375 5564.1292,46.620354 5565.3147,46.850228 5567.4688,46.03125 5568.9381,45.472593 5570.3882,45 5570.6875,45 5571.7243,45 5570.4441,59.93091 5569.3125,61.0625 5568.4636,61.911422 5566.8359,61.198598 5562.8438,58.21875 5556.074,53.165767 5553.8081,52.467071 5551.75,54.75 5546.9173,60.110809 5544.2148,78.354861 5546.4062,90.8125 5547.2105,95.384735 5548.4067,99.772238 5549.0625,100.5625 5549.7184,101.35277 5550.5299,102.00842 5550.875,102 5553.127,101.94505 5553.768,99.425878 5554.2188,88.96875 5554.5942,80.258198 5555.2381,76.278118 5556.8125,72.71875 5559.9101,65.716197 5561.6871,66.450142 5566,76.5625 5569.4028,84.541214 5569.5452,85.740111 5567.5,88 5565.3937,90.327402 5564.4091,98.583037 5566,100.5 5568.4485,103.45026 5570.5485,102.17525 5573.5,96 5575.0773,92.7 5576.872,90 5577.5,90 5579.3146,90 5582.656,94.166973 5584.0938,98.25 5585.544,102.36877 5586.428,102.87337 5587.8438,100.34375 5588.3313,99.472447 5588.7814,99.178314 5589.5312,99.28125 L 5589.5,99 5589.6875,94.375 C 5589.4651,93.490632 5589.3957,92.6755 5589.7812,92.15625 L 5590,87 5590.3125,86.9375 C 5589.8113,86.247413 5589.2636,85.305835 5588.7812,84.25 5587.8418,82.193094 5586.4283,79.6 5585.625,78.5 5584.3417,76.742529 5584.3469,76.045257 5585.6875,72.75 5586.5267,70.6875 5587.8479,69 5588.625,69 5589.4021,69 5592.8036,70.125 5596.1875,71.5 5599.5714,72.875 5603.364,74 5604.625,74 5609.7224,74 5615.7078,65.863583 5622.3125,49.875 5623.3071,47.467376 5625.1888,45.451091 5627.9375,43.90625 5630.6777,42.366185 5633.3617,39.527894 5635.875,35.53125 5640.4754,28.21568 5641.3803,25.021749 5639.8438,21.3125 5639.2688,19.924422 5638.9567,19.241101 5638.7188,19.53125 z"/>
</svg>
