<svg xmlns="http://www.w3.org/2000/svg"
     width="29.5" height="64.0"
     viewBox="1323.5625 17.5204 40.7949 88.6358">
  <path d="M 1327.5625 86.71875 L 1327.8125 91.0625 L 1327.9688 91.15625 L 1332.5625 87.40625 C 1338.1421 82.834198 1340.5216 78.356586 1342.0312 69.6875 C 1343.2395 62.749329 1343.0249 57.37204 1341.0312 45 C 1339.3819 34.764816 1341.5735 27 1346.0938 27 C 1349.2624 27 1350.0321 30.399077 1349.8438 43.21875 C 1349.6335 57.525723 1350.2209 60.686203 1354.125 67.03125 C 1355.7099 69.606982 1357 72.023329 1357 72.375 C 1357 73.412542 1354.1268 73.093904 1352.125 71.84375 C 1349.2589 70.053842 1347.4024 71.397276 1345.5 76.6875 C 1343.1729 83.158991 1334.2939 95.717161 1330.2812 98.1875 L 1328.3125 99.40625 L 1328.4688 102.15625 C 1329.5671 101.92967 1330.6956 101.48818 1332 100.625 C 1335.9579 98.005787 1344.9733 85.578729 1348.1875 78.3125 L 1350.125 73.90625 L 1353.5 76 L 1356.9062 78.09375 L 1358.6562 75.40625 C 1360.3574 72.810089 1360.3202 72.613713 1358.0625 68.625 C 1352.4384 58.688852 1352.5462 59.17689 1352.4062 44 C 1352.3326 36.017913 1351.9526 28.479135 1351.5625 27.25 C 1349.744 21.520427 1341.6401 24.354673 1339.1562 31.59375 C 1337.6818 35.890759 1338.1442 46.075962 1340.1875 54.25 C 1342.4826 63.431095 1338.2011 79.613862 1332.125 84.71875 C 1330.2775 86.270897 1328.9647 86.881547 1327.5625 86.71875 z "/>
</svg>
