<svg xmlns="http://www.w3.org/2000/svg"
     width="31.1" height="64.0"
     viewBox="2987.6253 17.0963 42.2797 87.0761">
  <path d="M3000.742 96.408655C3000.4167 96.083416 3000.7948 93.720916 3001.5821 91.158655C3003.4008 85.239429 3004.4722 73.330796 3003.6029 68.696979C3003.0665 65.837816 3002.2985 64.916495 2999.7172 64.035791C2995.254 62.513017 2993.2303 60.78976 2992.5563 57.938234C2991.6253 53.998834 2993.2737 52.588682 2998.4939 52.858899L3003.1341 53.099095L3002.8171 49.838846C3002.5758 47.357564 3001.9307 46.445586 3000.1173 46.021898C2997.9622 45.518382 2997.8905 45.335747 2999.3673 44.110154C3001.8369 42.060519 3001.5209 36.369487 2998.8994 35.683939C2996.4901 35.053896 2997.2877 32.799553 2999.7699 33.22348C3000.6702 33.377228 3001.9479 32.402081 3002.6478 31.027154C3003.6876 28.984581 3003.6538 28.274883 3002.4533 26.948413C3000.4411 24.724989 3000.6372 23.750063 3002.9488 24.483765C3004.2189 24.886871 3005.639 24.360969 3007.0262 22.973834C3008.4115 21.588525 3009.7387 21.096316 3010.8273 21.56411C3011.7473 21.959422 3013.7268 22.493725 3015.2263 22.751451C3017.3959 23.12436 3017.7722 23.557086 3017.0692 24.870665C3015.8 27.242297 3016.9332 32.239603 3018.5956 31.601673C3020.3438 30.930847 3021.441 32.746119 3020.2228 34.293805C3019.7006 34.957212 3018.9976 39.256543 3018.6605 43.847873C3018.0991 51.493802 3018.1927 52.135934 3019.7738 51.48442C3023.2074 50.069547 3025.0022 49.783512 3025.114 50.633369C3025.905 56.645242 3025.8666 56.733739 3020.4286 61.428579L3014.997 66.117858L3015.5423 73.308929C3015.8423 77.264018 3016.5736 83.060069 3017.1675 86.189043C3018.9604 95.63432 3016.1608 100.17245 3011.732 95.0C3010.7902 93.9 3009.409 93.0 3008.6628 93.0C3007.9166 93.0 3006.2683 93.9 3005.0 95.0C3002.5789 97.099769 3001.7179 97.38461 3000.742 96.408655Z M3006.5251 90.959323C3006.8789 90.38695 3008.1429 90.197656 3009.3342 90.53867C3015.6763 92.354256 3015.3098 92.47012 3014.6467 88.859213C3014.3074 87.011646 3013.7713 80.982275 3013.4553 75.460611C3012.9268 66.224796 3013.0527 65.202661 3015.0287 62.690632C3016.21 61.188807 3018.4869 59.282476 3020.0883 58.45434C3021.6897 57.626205 3023.0 56.285196 3023.0 55.47432C3023.0 53.724262 3022.6369 53.695425 3017.7366 55.056291C3015.6667 55.631116 3013.5583 55.845031 3013.0512 55.531658C3012.5354 55.212837 3012.989 53.018526 3014.0811 50.549533C3016.5879 44.882577 3016.6836 37.934695 3014.3505 31.0C3012.7942 26.374348 3012.0808 25.45143 3009.8629 25.194474C3007.5226 24.923329 3007.0443 25.421619 3005.6129 29.622613C3003.4361 36.011144 3003.5833 43.400303 3006.0361 50.871936C3007.1559 54.283172 3007.8361 57.456227 3007.5475 57.92317C3007.2589 58.390112 3005.3302 58.168173 3003.2614 57.429971C2995.0263 54.491415 2992.5042 56.467552 2999.0771 60.708569C3006.6473 65.593086 3006.3885 65.175777 3006.5975 72.835393C3006.7702 79.163253 3006.0651 84.739256 3004.3955 90.25C3003.8252 92.132106 3005.4632 92.677651 3006.5251 90.959323Z"/>
</svg>
