<svg xmlns="http://www.w3.org/2000/svg"
     width="29.2" height="64.0"
     viewBox="3312.6249 12.7416 39.8751 87.5041">
  <path d="M 3348.125 83.46875 L 3343.5 79 C 3339.7567 75.366147 3338.9633 74.018807 3339.4062 72 C 3339.7079 70.625 3340.8183 65.653333 3341.875 60.96875 C 3346.2253 41.681762 3341.1341 20.509023 3331.4375 17.59375 C 3328.6032 16.741598 3323.3697 22.036878 3321.75 27.375 C 3319.7456 33.980787 3320.3563 52.091877 3322.875 61.4375 C 3324.0517 65.803585 3325 70.713099 3325 72.34375 C 3325 75.43076 3319.8467 87.346683 3318.0312 88.46875 C 3316.6249 89.337842 3316.7113 92.336331 3318.1875 93.8125 C 3320.6206 96.245648 3324.5283 95.14576 3328.25 91 C 3330.225 88.8 3332.458 87 3333.1875 87 C 3333.917 87 3336.6818 88.544966 3339.3438 90.4375 C 3343.5454 93.424789 3346.0927 94.623546 3348.5 94.40625 L 3348.375 90.9375 C 3346.0092 90.721807 3340 87.227506 3340 86 C 3340 85.537511 3338.4147 84.642208 3336.4688 84 C 3333.5436 83.034601 3332.5041 83.082353 3330.5312 84.375 C 3329.2188 85.234902 3327.8883 86.785908 3327.5625 87.8125 C 3326.8875 89.939187 3322.3471 92.690775 3321.2812 91.625 C 3320.8927 91.236514 3321.1022 89.710259 3321.7188 88.21875 C 3322.3352 86.727241 3324.0478 82.599941 3325.5312 79.0625 L 3328.2188 72.625 L 3325.4062 60.0625 C 3322.1366 45.518986 3321.89 36.980799 3324.4688 28.40625 C 3326.7468 20.831089 3329.0961 18.954632 3332.875 21.75 C 3340.8493 27.648802 3343.2675 49.406651 3338 67.9375 L 3335.875 75.375 L 3341.8438 81.34375 C 3344.7054 84.205367 3346.8787 85.954397 3348.2188 86.53125 L 3348.125 83.46875 z "/>
</svg>
