<svg xmlns="http://www.w3.org/2000/svg"
     width="28.1" height="64.0"
     viewBox="2503.9940 18.2509 37.8217 86.0946">
  <path d="M 2527.6562,86.5 C 2527.2354,84.9834 2526.9428,82.698034 2526.5938,78.5 2526.3194,75.2 2525.4576,68.920218 2524.6875,64.5625 2523.7493,59.253844 2523.5379,54.304151 2524.0312,49.5625 2524.6427,43.684842 2525.693,39 2526.375,39 2526.4573,39 2528.0105,39.443014 2529.8438,39.96875 2532.7348,40.797915 2533.4949,40.598868 2535.5625,38.53125 2537.671,36.422816 2537.8157,35.787986 2536.8438,33 2535.4297,28.943458 2533.965,28.458552 2529.5312,30.5625 2527.5482,31.503572 2525.8384,32.084501 2525.7188,31.875 2525.599,31.6655 2524.4857,30.046479 2523.25,28.28125 2522.0144,26.51602 2521,24.60352 2521,24.03125 2521,22.250918 2517.139,22.890667 2516.0938,24.84375 2515.5481,25.863412 2513.5136,28.577175 2511.5938,30.875 L 2508.0938,35.0625 2509.9688,38.28125 C 2512.765,43.089421 2514.2422,52.585016 2513.0312,58 2509.5626,73.510692 2507.994,84.143776 2508.5938,88.125 2509.2836,92.703867 2512.2233,98.508823 2514.2812,99.34375 2516.7504,100.34548 2519.9032,99.940447 2521.4062,98.4375 2522.202,97.641765 2522.926,97.451692 2524,97.5625 L 2524,97.5 2525.5312,93.125 C 2525.3871,92.691261 2525.3377,92.266565 2525.5,91.84375 2525.6849,91.361931 2525.9646,91.200952 2526.25,91.03125 L 2527.5,87.5 2527.6562,86.5 z M 2518.5,27.40625 C 2519.05,27.545151 2520.6759,29.402413 2522.125,31.53125 2524.6669,35.265349 2524.7116,35.531088 2523.2812,39.4375 2521.6368,43.928624 2520.9959,62.264162 2522.2812,68 2525.0299,80.26592 2524.4649,91.330768 2520.875,95.65625 2517.5751,99.632476 2513.3724,95.625936 2511.875,87.125 2510.9243,81.72783 2511.0581,79.984622 2513.0312,72.75 2516.2257,61.037751 2516.1461,41.862142 2512.875,35.75 2512.0972,34.296711 2512.4845,33.179745 2514.6875,30.53125 2516.2325,28.673655 2517.95,27.267349 2518.5,27.40625 z M 2532.0938,32.375 C 2533.3864,32.555379 2534.1831,33.811651 2533.8438,35.5625 2533.4693,37.493524 2532.2052,38.125845 2530.25,37.34375 2528.4313,36.616269 2528.7083,33.310022 2530.6562,32.5625 2531.1774,32.362514 2531.6629,32.314874 2532.0938,32.375 z"/>
</svg>
