<svg xmlns="http://www.w3.org/2000/svg"
     width="25.1" height="64.0"
     viewBox="7484.0754 19.4755 33.3866 85.0910">
  <path d="M7509.4049 99.97213C7508.2527 99.535957 7505.7989 97.271239 7503.952 94.939424L7500.5941 90.699762L7497.0198 94.849881C7493.3372 99.125727 7490.2173 100.47294 7491.4617 97.25C7492.6817 94.090156 7493.9847 79.693775 7493.9924 69.289219C7494.0027 55.478676 7492.2239 39.758965 7489.8405 32.597661C7488.1553 27.534236 7488.0754 26.496032 7489.2782 25.293188C7490.4811 24.090344 7491.2851 24.396261 7494.9348 27.445527C7497.2747 29.400487 7499.8747 31.0 7500.7126 31.0C7501.5505 31.0 7503.8131 29.615244 7505.7407 27.922764C7510.8059 23.475499 7511.7731 25.245049 7508.8791 33.664379C7506.7324 39.909494 7506.5307 42.141345 7506.5443 59.5C7506.5595 78.941215 7507.3225 83.844775 7511.6255 92.154292C7513.1114 95.02371 7513.462 99.609943 7512.25 100.32357C7511.8375 100.56645 7510.5572 100.4083 7509.4049 99.97213Z M7507.015 87.20247C7504.0377 77.745065 7503.8667 76.325508 7503.722 59.86355C7503.5956 45.486953 7503.8785 41.596105 7505.3665 37.245542C7507.5433 30.88107 7507.2034 29.230232 7504.2773 31.956325C7501.5049 34.539191 7499.558 34.533513 7495.9044 31.931906C7494.307 30.794454 7493.0 30.119254 7493.0 30.431461C7493.0 30.743668 7493.727 35.16181 7494.6156 40.249555C7496.4099 50.523008 7496.9649 75.14959 7495.6692 87.0L7494.8491 94.5L7498.3089 91.165892C7501.6244 87.970875 7501.8257 87.911046 7503.1344 89.731746C7503.8855 90.776725 7505.2741 91.920305 7506.2202 92.273034C7507.1663 92.625764 7508.2329 94.079586 7508.5903 95.50375C7508.9477 96.927915 7509.4461 97.887198 7509.6978 97.635491C7509.9496 97.383783 7508.7423 92.688924 7507.015 87.20247Z"/>
</svg>
