<svg xmlns="http://www.w3.org/2000/svg"
     width="43.0" height="64.0"
     viewBox="638.6250 47.6908 36.3477 54.0648">
  <path d="M 642.625 94.6875 C 643.39521 94.384804 644.43791 94.752476 647.1875 95.96875 C 650.86264 97.59444 652.2988 97.755631 655.375 96.90625 C 657.42794 96.339408 659.35281 95.228253 659.65625 94.4375 C 660.37857 92.555152 662.64328 92.593178 663.375 94.5 C 664.24677 96.771797 666.74358 96.307266 668.5625 93.53125 C 670.08647 91.20538 670.05547 90.77934 667.96875 86.46875 C 665.65916 81.697768 665.67526 80.665474 668.0625 69.5 C 670.97271 55.888497 670.52672 51.690787 666.21875 52.1875 C 664.02048 52.440964 662.9304 53.63459 660.53125 58.4375 C 657.99673 63.51142 657.6025 65.38232 657.78125 71.3125 C 657.93332 76.357848 657.4739 79.434287 656.0625 82.625 C 653.97259 87.349579 652.68146 87.862877 649.21875 85.4375 C 648.16671 84.700622 647.6518 83.735106 647.34375 82.4375 L 647 83.5 L 645.34375 87.71875 C 646.01234 87.270415 647.04323 87.545756 649.4375 88.6875 L 653.1875 90.46875 L 655.5625 87.71875 C 658.64317 84.137254 660.35287 77.637587 659.6875 72 C 658.77545 64.272171 664.34392 51.937671 667.375 54.96875 C 668.00965 55.603397 667.92912 57.961686 667.15625 61.71875 C 666.50255 64.896518 665.44237 71.247689 664.8125 75.8125 C 663.8137 83.050987 663.89465 84.554967 665.34375 87.59375 C 667.3734 91.849978 667.37398 92 665.5 92 C 664.675 92 664 91.55 664 91 C 664 89.189455 660.83603 89.955871 657.8125 92.5 C 654.37917 95.388959 651.80363 95.588524 647.25 93.34375 C 645.31121 92.387996 644.4135 91.5657 644.21875 90.59375 L 642.625 94.6875 z "/>
</svg>
