<svg xmlns="http://www.w3.org/2000/svg"
     width="34.9" height="64.0"
     viewBox="3410.4038 14.0000 49.5443 90.7797">
  <path d="M3443.6567 96.75C3442.3119 94.9625 3440.3971 91.175998 3439.4015 88.335551C3437.744 83.606804 3437.2922 83.133441 3434.0457 82.724692C3429.9082 82.203777 3428.5333 83.073922 3426.4042 87.560609C3424.0798 92.459048 3418.5667 98.468253 3417.1821 97.61257C3414.4038 95.895463 3416.7521 83.673194 3420.8649 78.444565C3422.6391 76.189121 3422.6684 75.720898 3421.283 71.759624C3419.5416 66.780176 3419.9816 51.14066 3421.9835 46.863626C3423.0684 44.545792 3422.8941 43.67551 3420.5414 39.660784C3415.8397 31.637974 3416.1396 18.0 3421.0177 18.0C3423.2967 18.0 3428.7757 24.218891 3429.6238 27.76834C3430.6979 32.263374 3431.0711 32.29735 3434.102 28.176006C3439.3797 20.999378 3444.3276 19.101262 3446.0371 23.597456C3447.8908 28.473056 3445.0137 35.280432 3437.3578 44.133507C3434.1413 47.853002 3432.0 54.833268 3432.0 61.598881C3432.0 66.119741 3434.5358 71.0 3436.8849 71.0C3438.4311 71.0 3444.0553 66.74889 3449.9554 61.120491C3451.1028 60.025904 3451.5005 60.001417 3451.8349 61.004764C3452.0682 61.704705 3450.7383 63.682304 3448.8796 65.399427C3438.6063 74.889847 3436.0388 75.80103 3431.9243 71.416752C3429.7619 69.11258 3429.5027 67.951224 3429.5246 60.666752C3429.5536 51.005617 3431.649 45.500004 3437.7702 39.001468C3443.3913 33.033814 3445.9234 24.0 3441.975 24.0C3440.1737 24.0 3434.909 30.213329 3432.8163 34.809031C3431.7371 37.178998 3430.3247 38.941567 3429.6776 38.72585C3429.0304 38.510134 3428.2007 36.234838 3427.8338 33.669637C3427.1307 28.754425 3423.9043 22.560982 3421.5828 21.670141C3418.0281 20.306084 3419.768 33.056679 3423.9351 38.908821C3426.0489 41.877475 3426.0556 42.026215 3424.4308 50.044801C3422.0683 61.704032 3422.7402 70.481757 3426.3582 75.225146C3429.7463 79.667256 3431.7366 80.410836 3437.8488 79.518164C3441.8555 78.932995 3443.3637 77.958692 3448.7329 72.487286C3452.1797 68.974921 3455.2491 66.594082 3455.5996 67.161131C3455.9481 67.725112 3454.2996 70.156882 3451.9361 72.565063C3447.7142 76.866894 3447.6713 76.97931 3449.4856 78.984047C3452.1773 81.958337 3452.9431 95.914073 3450.5461 98.311026C3448.0774 100.77972 3446.403 100.40032 3443.6567 96.75Z M3424.9635 85.354187C3427.1253 80.755153 3426.9675 79.0 3424.3921 79.0C3422.559 79.0 3419.0519 86.44827 3419.022 90.404988C3419.0007 93.214461 3419.0636 93.252394 3420.9351 91.558706C3421.9995 90.595507 3423.8122 87.803474 3424.9635 85.354187Z M3449.4032 93.529462C3450.2581 90.123573 3448.4727 82.818799 3446.4182 81.316552C3445.2054 80.42969 3444.1763 80.37049 3442.7977 81.10828C3440.4862 82.345354 3441.0223 86.340618 3444.2929 92.25C3446.6943 96.589008 3448.5206 97.046256 3449.4032 93.529462Z"/>
</svg>
