<svg xmlns="http://www.w3.org/2000/svg"
     width="36.3" height="64.0"
     viewBox="1035.9936 36.0727 19.8502 34.9898">
  <path d="M 1044.5625 67.0625 L 1045 66.5 L 1051.8438 54.09375 C 1050.1921 52.835575 1048.9923 50.227361 1048.3438 46.09375 C 1047.8764 43.114227 1047.0018 40.489833 1046.375 40.28125 C 1045.7482 40.072668 1044.2014 41.536809 1042.9688 43.53125 C 1039.9936 48.345045 1040.0094 56.322294 1043 62.5 C 1043.834 64.222902 1044.3274 65.686902 1044.5625 67.0625 z M 1045.7188 44.375 C 1045.9183 44.628382 1045.9538 45.544546 1045.9688 47.34375 C 1045.9862 49.458889 1046.761 52.462848 1047.6875 54.03125 C 1049.0598 56.354382 1049.1663 57.357942 1048.2188 59.4375 C 1046.6708 62.834968 1045.4238 62.659161 1044.0938 58.84375 C 1042.5461 54.404101 1042.7351 47.72952 1044.4688 45.4375 C 1045.1557 44.529348 1045.5192 44.121618 1045.7188 44.375 z "/>
</svg>
