<svg xmlns="http://www.w3.org/2000/svg"
     width="30.5" height="64.0"
     viewBox="345.0000 18.7373 40.6667 85.2627">
  <path d="M 363.46875,22.9375 C 363.23248,23.137729 362.77132,23.913722 362.03125,25.25 359.30839,30.16642 359.1528,36.595198 361.5625,44.1875 361.95656,45.42905 362.55528,45.850969 363.125,45.28125 363.69472,44.711531 363.60636,42.295748 362.90625,39.03125 361.84654,34.090034 362.00638,30.173066 363.5,24 363.71582,23.108006 363.70502,22.737271 363.46875,22.9375 z M 369.15625,23 C 368.69428,23 367.74466,24.77584 367.03125,26.9375 365.61856,31.217986 366.24894,41.301746 368.21875,45.625 369.15128,47.671697 368.97869,48.504824 367.15625,50.78125 365.95812,52.277859 363.42561,55.705215 361.53125,58.40625 357.68917,63.884427 357.86767,65.202097 362.90625,68.5 364.58684,69.6 366.18863,71.039366 366.4375,71.6875 366.68636,72.335634 364.8745,76.819021 362.40625,81.65625 358.97932,88.372263 357.99227,91.352625 358.21875,94.25 358.6568,99.854137 360.40647,98.887446 361.21875,92.59375 362.03003,86.307858 366.3544,77 368.46875,77 369.25382,77 371.09892,78.022336 372.5625,79.28125 374.06775,80.576012 374.49509,81.452754 374.53125,82.59375 L 379.8125,80.3125 C 379.48263,79.039444 379.45315,78.03001 379.9375,77.125 381.66675,73.893877 381.16349,71.537368 378.15625,68.65625 L 375.34375,65.9375 372.625,68.09375 C 369.96968,70.182426 369.83901,70.187127 367.6875,68.375 361.61823,63.263093 361.50937,63.039059 363.375,59.625 364.31326,57.908 366.46333,54.994761 368.125,53.15625 370.98582,49.990955 371.24175,49.908805 373,51.5 375.69274,53.936897 378.14998,53.002693 379.59375,49 381.40308,43.983813 381.28019,40.553105 379.1875,37.96875 377.21515,35.533002 377.45625,35.411007 373.03125,41 371.36171,43.108719 370.88787,43.257967 370.0625,42 368.46121,39.559427 367.77254,30.730941 368.9375,27.6875 370.2332,24.302483 370.28027,23 369.15625,23 z M 377.03125,40 C 378.38545,40 378.83933,44.116928 377.8125,47.0625 376.65451,50.384295 375.81636,50.701393 373.9375,48.4375 372.84649,47.122917 372.93166,46.291702 374.46875,43.4375 375.48271,41.554685 376.63201,40 377.03125,40 z M 374.375,70.09375 C 375.28751,70.065992 376.31294,70.663628 377.4375,71.90625 378.82138,73.435427 378.92068,74.244344 378.03125,75.90625 376.64195,78.502173 374.81162,78.578993 372.5625,76.09375 371.17862,74.564573 371.07932,73.755656 371.96875,72.09375 372.6634,70.795789 373.46249,70.121508 374.375,70.09375 z M 356.625,23.375 C 356.2823,23.238416 355.47376,23.857606 354.5,25.34375 352.1111,28.989672 352.13037,39.738311 354.53125,45.0625 L 356.40625,49.25 352.71875,56 C 350.68097,59.726191 349,63.425065 349,64.21875 349,65.012436 350.56693,67.706315 352.5,70.1875 L 356.03125,74.6875 354.09375,81.09375 C 352.42382,86.606956 351.43448,94.482922 351.875,98.75 351.94598,99.4375 352.37352,100 352.84375,100 353.31398,100 353.98437,96.788877 354.3125,92.875 354.64062,88.961124 355.89481,82.961409 357.125,79.53125 L 359.375,73.28125 356.1875,69.90625 C 351.38355,64.791659 351.33551,63.584773 355.625,55.46875 L 359.46875,48.1875 357.09375,43.96875 C 354.4735,39.306655 353.92277,29.908492 356.03125,25.96875 356.85798,24.424005 356.9677,23.511584 356.625,23.375 z"/>
</svg>
