<svg xmlns="http://www.w3.org/2000/svg"
     width="64.0" height="44.1"
     viewBox="3705.3954 62.0370 52.6046 36.2094">
  <path d="M 3712.7188,66.125 C 3712.4502,66.037014 3712.0908,66.501234 3711.4062,67.4375 3709.3954,70.187558 3709.6236,72.34656 3712.5938,78.625 3715.5601,84.895486 3720.6226,90.384317 3725.3125,92.4375 3729.0232,94.062018 3731.4553,94.246443 3736.125,93.3125 3742.8499,91.967511 3754,77.799557 3754,70.59375 3754,67.011688 3752.9806,66.863092 3749.7812,70.0625 3744.9634,74.880364 3740.641,77.866223 3736.1875,79.4375 3732.4971,80.739537 3731.4129,80.736975 3726.75,79.375 3720.8476,77.650995 3714.5441,72.285087 3713.5,68.125 3713.1826,66.86042 3712.9873,66.212986 3712.7188,66.125 z M 3749.5625,75.25 C 3750.6192,76.306717 3744.8888,84.983642 3741.3438,87.6875 3739.1419,89.366901 3736.2459,90.468721 3733.2188,90.75 3729.2539,91.118414 3727.8119,90.702244 3724.1875,88.25 3720.1773,85.536769 3716,80.278813 3716,77.9375 3716,77.377608 3717.9125,78.019898 3720.25,79.375 3728.709,84.278884 3737.0354,83.479748 3745.9688,76.875 3747.6218,75.652774 3749.2322,74.919747 3749.5625,75.25 z"/>
</svg>
