<svg xmlns="http://www.w3.org/2000/svg"
     width="59.8" height="64.0"
     viewBox="7142.0000 17.0938 84.4569 90.3197">
  <path d="M 7180.25,21.09375 7172.875,23.59375 C 7164.5556,26.411313 7159,29.069718 7159,30.21875 7159,31.331581 7159.7017,31.208842 7163.1875,29.40625 7164.8933,28.524144 7168.9747,26.918987 7172.25,25.84375 7177.9997,23.956212 7178.2779,23.941091 7180.2188,25.6875 7181.3242,26.682343 7183.5368,29.385226 7185.125,31.6875 L 7188,35.875 7186.4688,41.6875 C 7185.4656,45.49991 7185.1734,49.30745 7185.5938,52.75 7186.3858,59.236132 7188.0827,59.571497 7194.9062,54.5625 7199.2853,51.348038 7203.809,50.427014 7203.2812,52.84375 7203.1534,53.429268 7205.066,55.542323 7207.5312,57.5625 7211.8138,61.071667 7212,61.475775 7212,66.53125 7212,74.143815 7214.4587,85.829207 7217.0938,90.75 7219.603,95.436085 7218.8652,97.78397 7216,94.25 7213.8202,91.56143 7213.2339,91.493141 7210.8438,93.65625 7208.4005,95.86734 7208.4776,97.33697 7210.9688,95.78125 7212.6164,94.752247 7213.2503,94.844004 7214.6875,96.28125 7216.7407,98.334466 7217.8989,98.378507 7220.25,96.59375 7222.4569,94.918453 7222.4466,94.53138 7220.0312,91.21875 7217.3701,87.56911 7215.1247,78.222779 7214.5625,68.5 L 7214.0938,60.5 7207.5625,54.15625 7201,47.8125 7195.9062,51.46875 C 7193.098,53.486331 7190.1771,54.889526 7189.4062,54.59375 7187.8764,54.006687 7187.6077,50.046936 7188.625,42.625 L 7189.2812,38 7195.0625,38 C 7199.0773,38 7201.3419,37.501757 7202.4688,36.375 7204.7795,34.06426 7204.0332,29.801398 7201.0312,28.3125 7198.8763,27.243654 7197.9651,27.429473 7194.2188,29.625 L 7189.9062,32.15625 7187.7188,29.3125 C 7186.5217,27.760727 7184.3596,25.295023 7182.9062,23.8125 L 7180.25,21.09375 z M 7176.125,29.59375 C 7174.8005,28.77515 7162,33.278449 7162,34.5625 7162,35.402542 7164.0459,35.008535 7167.6562,33.5 7169.6308,32.675 7172.2871,32 7173.5625,32 7176.0378,32 7177.6196,30.517479 7176.125,29.59375 z M 7198.4375,30.21875 C 7200.8392,30.564067 7201.7906,33.891173 7199.8438,35.125 7197.9559,36.321323 7194.254,36.208264 7193.4688,34.9375 7192.4762,33.331467 7196.1086,29.8839 7198.4375,30.21875 z M 7172.0938,36.09375 C 7170.8868,36.259402 7169.4619,36.587076 7167.75,37.0625 7163.7773,38.165761 7162.4071,40.591016 7166.25,39.71875 7175.6917,37.575653 7174.88,37.454512 7176.5312,41.40625 7178.0439,45.026509 7178.9289,53.41472 7177.9062,54.4375 7177.3253,55.018312 7170.2631,51.638081 7168.625,50 7166.6616,48.036595 7164.1277,49.058774 7160.5938,53.1875 7154.2559,60.591756 7153.1232,64.104034 7152.875,77.46875 7152.6651,88.766213 7152.528,89.549674 7150.1875,91.71875 7148.8253,92.981149 7147.3134,94 7146.8438,94 7146.374,94 7146,94.480041 7146,95.0625 7146,96.255177 7147.1173,95.711591 7151.5938,92.40625 L 7154.6875,90.125 7154.9062,77.34375 C 7155.0951,65.717011 7155.3463,64.145305 7157.6875,59.84375 7159.1032,57.242547 7161.2557,54.170882 7162.4688,53.03125 L 7164.6875,50.96875 7169.3125,53.5625 C 7171.8722,54.993107 7174.2498,56.587871 7174.5625,57.09375 7175.599,58.770932 7178.9096,58.029128 7180.0625,55.875 7181.394,53.38702 7180.5193,44.181169 7178.4688,39.25 7177.341,36.537828 7175.7146,35.596795 7172.0938,36.09375 z M 7167.1562,59.21875 C 7166.2826,59.387008 7164.1967,62.182931 7162.5312,65.4375 7159.9751,70.432553 7159.4522,72.746054 7159.1562,80.21875 7158.7779,89.774965 7160.2707,95.020902 7163.9688,97 7166.6146,98.415955 7167.3492,96.625999 7165,94.5 7162.6223,92.348203 7161.061,87.513341 7161.4375,83.5 7162.3966,73.275969 7163.4609,68.123236 7165.2188,65.21875 7167.5622,61.346333 7168.701,61.484928 7171.7812,66.03125 7175.4919,71.508288 7175.534,73.402446 7172.0938,78.5 7170.3897,81.024885 7169,83.945712 7169,84.96875 7169,86.784214 7175.0548,95.186556 7178.2812,97.84375 7180.5624,99.722378 7183.4357,98.889945 7183.8125,96.25 7183.9877,95.022535 7183.1381,92.222899 7181.9062,90.03125 7180.0289,86.690805 7179.8487,85.646446 7180.8125,83.53125 7182.4149,80.014187 7183.4541,80.346318 7187,85.5 7189.295,88.835706 7189.8631,90.441934 7189.1875,91.75 7187.9524,94.141604 7186.8276,100.51505 7187.5312,101.21875 7189.726,103.41347 7195.4035,97.867341 7198.4062,90.59375 7200.3375,85.915514 7199.7923,83.769755 7195.3438,78.5625 7191.0597,73.547782 7191.0468,70.429791 7195.2812,65.53125 L 7198.5938,61.71875 7200.125,64.09375 C 7202.3252,67.484937 7206.7197,78.821252 7207.5312,83.21875 7208.0606,86.086887 7207.7193,87.713645 7206.0938,90.34375 7204.9363,92.216466 7204,94.252419 7204,94.875 7204,97.326739 7205.8108,95.78388 7208.3125,91.1875 7210.6327,86.924476 7210.8237,85.90428 7209.9062,82.4375 7206.6035,69.955622 7201.99,60 7199.5312,60 7198.8212,60 7196.395,62.006039 7194.125,64.46875 7188.8042,70.241087 7188.7838,72.944862 7194,79.5 7198.5271,85.189058 7198.751,86.573886 7196.0625,91.84375 7192.2538,99.30945 7188.4803,100.0034 7191.125,92.75 L 7192.6562,88.5625 7188.25,82.78125 C 7185.8295,79.598436 7183.5606,77.007971 7183.1875,77.03125 7182.0553,77.101882 7177.9934,84.0156 7178.0312,85.8125 7178.0507,86.736863 7178.714,88.625 7179.5,90 7180.286,91.375 7180.9492,93.570155 7180.9688,94.875 7180.9988,96.890208 7180.7656,97.045082 7179.4688,95.96875 7177.4821,94.32001 7172,86.203437 7172,84.90625 7172,84.354095 7173.3927,81.40103 7175.0938,78.34375 L 7178.1875,72.78125 7176.5312,68.40625 C 7174.7173,63.656631 7169.6843,58.731882 7167.1562,59.21875 z M 7156.3125,94.71875 C 7155.4754,94.810105 7154.5605,95.313005 7153.0312,96.28125 7151.1875,97.44859 7150.2201,98.562958 7150.875,98.78125 7151.5298,98.999542 7152.7618,98.627922 7153.5938,97.9375 7154.8323,96.909576 7155.5671,97.045512 7157.7812,98.71875 7159.2683,99.842607 7160.8375,100.55539 7161.25,100.3125 7162.8887,99.347609 7161.8436,96.967291 7159.1875,95.59375 7157.9079,94.932052 7157.1496,94.627395 7156.3125,94.71875 z"/>
</svg>
