<svg xmlns="http://www.w3.org/2000/svg"
     width="56.0" height="64.0"
     viewBox="1039.0345 19.3886 77.5245 88.6114">
  <path d="M 1044.5625,67.0625 C 1044.7727,68.29221 1044.7977,69.460979 1044.5938,70.75 1043.0345,80.60716 1043.1069,87.712051 1044.8438,94.5 1046.5465,101.15444 1046.7624,101.5 1049.5312,101.5 L 1052.4375,101.5 1052.5938,89.5 C 1052.7302,77.614635 1054.2898,70.080514 1056.7812,69.25 1058.0923,68.813013 1061.0177,74.290082 1063.5,81.875 1065.2214,87.134986 1065.2074,87.386019 1063.1875,92.375 1060.3678,99.339442 1060.146,101.36092 1062.1875,101.78125 1063.2773,102.00565 1064.8332,100.67564 1066.5625,98.0625 1068.0411,95.828063 1070.0185,94 1070.9375,94 1071.8565,94 1074.1671,95.599835 1076.0625,97.5625 1078.851,100.44992 1080.0146,101.03557 1082.25,100.59375 1084.039,100.24019 1086.1539,100.75333 1088.25,102.03125 1090.0305,103.11672 1091.95,103.8348 1092.5,103.65625 1094.2517,103.0876 1094.2747,93.478289 1092.5312,92.03125 1090.6051,90.432652 1090.6153,88.996473 1092.5,82.59375 1093.3237,79.795409 1094.4695,75.538653 1095.0625,73.125 1095.9769,69.403192 1096.3449,68.947462 1097.5,70.125 1098.2491,70.888653 1100.0876,75.1 1101.5625,79.5 1103.64,85.697836 1104.2272,89.358482 1104.1875,95.75 1104.1491,101.93226 1104.4821,104 1105.4688,104 1109.1454,104 1112.559,92.011033 1111.6562,82.34375 1110.7246,72.367498 1107.2805,62.08121 1103.7812,58.8125 1099.9656,55.248191 1098.7782,55.279059 1092.6875,59.1875 L 1087.7188,62.375 1085.4062,59.5 C 1082.5593,55.929724 1081.2557,47.319855 1083.0312,43.875 1084.9096,40.231096 1089.1819,36 1091,36 1091.8979,36 1093.2758,37.428167 1094.0625,39.15625 1094.8493,40.884334 1095.95,42.283542 1096.5,42.28125 1100.1136,42.266187 1101.5074,26.874889 1098.0625,25.03125 1094.9932,23.388576 1093.7139,23.743346 1087.0312,28.0625 L 1080.7188,32.125 1077.0625,28.5625 C 1071.7856,23.409671 1066.3591,23.862309 1061.2812,29.875 1058.3859,33.303304 1058.4337,37.761571 1061.375,41.4375 1063.2198,43.743158 1064.753,44.496487 1068.5938,44.9375 L 1073.5,45.5 1073.8125,50.71875 C 1074.0531,54.88956 1073.6319,56.570486 1071.8125,59.03125 1069.9734,61.518767 1069.0692,61.974057 1067.0312,61.46875 1065.6432,61.124583 1063.6,60.052999 1062.5,59.0625 1059.7714,56.605531 1056.5118,55 1054.2188,55 1053.3244,55 1052.5563,54.636563 1051.8438,54.09375 L 1045,66.5 1044.5625,67.0625 z M 1094.25,26.40625 C 1096.5843,26.55879 1098.6238,30.395888 1097.5938,34.5 1096.9716,36.978415 1096.9797,36.979694 1095,35 1091.9714,31.971437 1088.9026,32.503213 1085.5,36.6875 1080.6412,42.662563 1080.0685,44.172044 1080.0312,51.09375 1079.9986,57.154941 1080.2731,57.974186 1083.375,61.5625 L 1086.75,65.46875 1092.0312,62.15625 C 1098.6631,58.033637 1101.1437,58.487177 1104.1875,64.28125 1108.4727,72.438545 1110.277,84.444399 1108.5938,93.75 1107.5399,99.575581 1106.5375,99.085388 1106.3125,92.625 1105.9895,83.347162 1099.6017,65 1096.6875,65 1094.9762,65 1093.7381,67.858693 1090.9688,78.40625 1089.8279,82.751311 1088.4473,87.180669 1087.875,88.25 1087.0519,89.787994 1087.2896,90.679391 1089,92.5 1090.4031,93.993563 1091.0243,95.771542 1090.8125,97.5625 L 1090.5,100.3125 1087.3125,97.625 C 1085.4126,96.020454 1083.9105,95.354914 1083.5312,95.96875 1082.4359,97.740955 1080.1917,97.104267 1076.6562,94 1072.5974,90.436228 1070.429,90.259687 1067.3125,93.1875 L 1065,95.34375 1066.5938,90.6875 C 1067.9181,86.800393 1067.9768,85.43788 1066.9375,82.28125 1064.5083,74.90339 1060.0415,65.966524 1058.5,65.375 1053.9687,63.636167 1049.7125,76.916516 1049.8125,92.5 L 1049.875,99.5 1048.3125,96 C 1044.8649,88.232016 1045.0428,75.114687 1048.7188,65 1050.3576,60.490835 1052.6616,57 1054.0312,57 1054.4334,57 1057.5209,58.822716 1060.875,61.0625 1067.8869,65.744872 1069.4956,65.67569 1073.5625,60.34375 1076.6295,56.322644 1077.2458,53.470644 1076.375,47.25 1075.8113,43.222477 1075.5849,43 1072.4375,43 1061.9414,43 1057.2804,33.847074 1065.2812,28.96875 1069.7672,26.233548 1070.7949,26.448087 1075.125,31 1077.2178,33.2 1079.5197,35 1080.25,35 1080.9803,35 1083.127,33.658897 1085.0312,32.03125 1086.9355,30.403602 1089.0048,29.053602 1089.625,29.03125 1090.2451,29.008897 1091.2688,28.361971 1091.9062,27.59375 1092.6445,26.704226 1093.4719,26.355403 1094.25,26.40625 z M 1080.3438,64.28125 C 1077.8212,63.440373 1073.9451,68.55697 1072.375,74.8125 L 1070.7812,81.09375 1073.5938,85.125 C 1075.1282,87.339311 1077.2873,89.778707 1078.4062,90.5625 1082.0656,93.125636 1083.5854,92.319552 1085.3438,86.875 1086.2523,84.061841 1086.9923,80.349341 1086.9688,78.625 1086.9225,75.222475 1082.1451,64.881677 1080.3438,64.28125 z M 1078.4688,67.5 C 1078.8951,67.472112 1079.3387,67.734701 1079.75,68.25 1082.3708,71.533004 1084,76.325482 1084,80.75 1084,86.697005 1082.2644,89.694373 1079.9062,87.78125 1079.0355,87.074807 1077.292,84.997252 1076.0312,83.15625 1073.8969,80.039693 1073.7966,79.427128 1074.9062,74.46875 1075.896,70.045915 1077.1896,67.583664 1078.4688,67.5 z"/>
</svg>
