<svg xmlns="http://www.w3.org/2000/svg"
     width="22.4" height="64.0"
     viewBox="287.4234 16.0000 32.2016 91.9381">
  <path d="M 293.53125 43.625 L 293.71875 48.96875 C 293.90814 49.410262 294 49.99846 294 50.8125 C 294 51.364382 293.94877 51.8153 293.84375 52.21875 L 294 57 L 293.84375 57.34375 C 294.06307 57.767208 294.24586 58.24612 294.40625 59.28125 C 294.68171 61.058989 295.38791 65.489091 295.96875 69.15625 C 296.92808 75.213101 296.82838 76.170185 294.9375 79.375 C 292.24646 83.93597 291.42337 92.331082 293.15625 97.5 C 294.67048 102.01672 298 103.63949 298 99.875 C 298 98.633254 298.75175 95.004851 299.65625 91.78125 C 300.87205 87.44816 301.69371 85.991256 302.875 86.21875 C 304.92513 86.613571 306.76092 90.435132 308 96.96875 C 308.53992 99.815751 309.28744 102.65326 309.65625 103.25 C 310.0815 103.93808 310.97541 103.51342 312.125 102.09375 C 312.8533 101.19434 313.28994 100.84051 313.75 100.65625 L 314.59375 95.78125 C 314.48809 95.338715 314.49441 94.947947 314.78125 94.625 L 315.5 90.5 L 315.625 90.03125 C 314.61727 89.379311 314 88.626374 314 87.34375 C 314 85.990898 312.85523 82.820656 311.4375 80.28125 C 308.87156 75.685215 308.867 75.627198 310.4375 69.375 C 311.30523 65.920529 312 61.522986 312 59.625 L 312 56.1875 L 312.5 56.34375 L 312.34375 51.8125 C 312.19763 51.376619 312 50.979573 312 50.40625 C 312 49.734218 312.16201 49.571639 312.25 49.21875 L 312.03125 42.5 C 312.02755 42.492924 312.03494 42.475853 312.03125 42.46875 C 311.08443 40.646944 310.45291 37.937401 309.46875 33 C 309.08505 31.075 308.41481 29.05 308 28.5 C 307.58519 27.95 306.72683 25.8125 306.0625 23.75 C 305.39817 21.6875 304.48162 20 304.03125 20 C 302.55451 20 297.02611 26.993327 296.5 29.53125 C 296.21705 30.896163 295.73454 33.2375 295.40625 34.75 C 295.07796 36.2625 294.61261 38.625 294.375 40 C 294.13739 41.375 293.77109 42.992885 293.5625 43.59375 C 293.55949 43.602434 293.53467 43.616215 293.53125 43.625 z M 302.5625 22.8125 L 305 27.96875 C 306.83714 31.891117 307.14907 33.53364 306.34375 34.8125 C 304.72168 37.3884 302.65701 37.322215 300.09375 34.59375 C 297.49531 31.827843 297.71007 28.823998 300.78125 25.03125 L 302.5625 22.8125 z M 297.6875 36 C 297.96632 36 299.34141 36.892004 300.75 38 C 303.07744 39.830764 303.5217 39.888906 305.59375 38.53125 C 307.83712 37.06134 307.87747 37.135959 308.9375 42.28125 C 310.3044 48.916026 309.466 65.898474 307.46875 71.78125 C 306.17564 75.590019 306.15473 76.505412 307.3125 77.875 C 310.1548 81.237338 312 86.991885 312 92.40625 C 312 95.485629 311.66984 98 311.25 98 C 310.83016 98 309.92658 95.660743 309.25 92.8125 C 308.01299 87.605013 304.76127 83 302.34375 83 C 300.91915 83 297.0245 90.799248 297 93.6875 C 296.99158 94.680175 296.59581 96.100792 296.125 96.84375 C 294.65641 99.161245 293.78143 89.557153 295.03125 84.8125 C 295.65484 82.445182 297.19268 79.52166 298.46875 78.3125 C 300.6968 76.20127 300.74554 75.943707 299.34375 71.875 C 297.11791 65.414452 295.73581 51.467517 296.5 43.3125 C 296.87664 39.293188 297.40868 36 297.6875 36 z "/>
</svg>
