<svg xmlns="http://www.w3.org/2000/svg"
     width="26.5" height="64.0"
     viewBox="5859.8750 20.0000 35.2866 85.1531">
  <path d="M 5883.625,88.3125 C 5882.7645,88.05643 5881.942,87.509137 5880.9375,86.25 5878.8631,83.649638 5878.7861,82.844153 5879.375,71.5 5879.7177,64.9 5880.6548,57.062508 5881.4688,54.09375 5882.9707,48.616108 5885.4277,44 5886.8125,44 5888.4618,44 5891.1616,37.824557 5890.5625,35.4375 5889.8054,32.421159 5888.3314,32.351352 5885.3125,35.1875 5882.2277,38.085564 5881.0491,36.792864 5880.3125,29.65625 5879.9923,26.552903 5879.3481,24 5878.875,24 5877.8985,24 5877.71,33.335736 5878.625,36.75 5879.36,39.492874 5883.4273,39.81331 5886.1562,37.34375 5887.8754,35.787946 5888,35.832484 5888,37.90625 5888,39.136752 5886.4875,41.528071 5884.5625,43.3125 5882.6644,45.071959 5880.6263,47.810153 5880.0312,49.40625 5878.089,54.615369 5875.7649,74.89738 5876.4688,80.53125 5877.2301,86.625045 5879.5336,90.148979 5882.875,90.8125 L 5883.625,88.3125 z M 5881,97.25 C 5879.8268,97.697319 5878.8108,98 5878.2188,98 5875.3587,98 5872.2846,92.258177 5870.9062,84.34375 5869.634,77.038171 5870.2532,57.382556 5872,50.125 5872.8579,46.560719 5872.7797,45.43876 5871.5625,44.09375 5868.5078,40.718356 5866.8841,35.013986 5867.5938,30.28125 5868.138,26.651582 5867.9796,25.851058 5866.875,26.21875 5866.0948,26.478443 5865.1309,28.968922 5864.6562,31.9375 5863.875,36.823058 5864.0509,37.556024 5866.9688,42.25 5869.9119,46.984497 5870.0459,47.591389 5869.0938,52.03125 5867.3499,60.162839 5866.6271,80.032741 5867.9062,85 5869.4163,90.863339 5872.0015,97.052899 5873.8438,99.25 5875.2066,100.87531 5877.1882,101.15312 5880.0938,100.3125 L 5881,97.25 z M 5873.2188,24.65625 C 5872.785,24.805103 5872.267,25.889833 5871.7188,28 5870.5214,32.608137 5871.3825,38.681443 5873.5938,41.125 5875.4031,43.124348 5878.05,43.32101 5878.6562,41.5 5878.8413,40.943809 5877.9895,40.043809 5876.75,39.5 5874.7268,38.61242 5874.5051,37.783793 5874.4688,31.5 5874.4414,26.781552 5873.9416,24.408161 5873.2188,24.65625 z"/>
</svg>
