<svg xmlns="http://www.w3.org/2000/svg"
     width="36.5" height="64.0"
     viewBox="6095.0000 18.5068 50.5310 88.4932">
  <path d="M6110.432 99.75C6110.7945 97.9625 6111.573 92.925248 6112.162 88.556106C6113.1496 81.230265 6113.0514 80.102131 6110.8993 74.056106C6109.0971 68.993006 6108.6018 65.644529 6108.7245 59.352235C6108.8623 52.287049 6108.6109 50.958367 6106.8324 49.352235C6104.0964 46.881518 6099.0 36.666515 6099.0 33.653517C6099.0 28.958235 6100.2032 25.354181 6102.1837 24.117377C6104.7627 22.506755 6107.5045 24.752612 6109.993 30.514164C6110.9465 32.721953 6112.5249 35.190773 6113.5005 36.00043C6115.0985 37.32662 6115.4342 37.226147 6116.8871 34.986772C6120.3738 29.613052 6124.6772 25.662165 6126.3462 26.302604C6130.103 27.744214 6127.6452 38.142604 6121.6178 46.307444C6119.8139 48.751019 6119.5303 50.395715 6119.7045 57.403305C6119.9662 67.934333 6121.0753 71.0 6124.6235 71.0C6126.5892 71.0 6128.674 69.507986 6132.5031 65.360749C6135.4964 62.118835 6137.9873 60.17043 6138.3625 60.77752C6138.7215 61.358332 6136.3154 64.601235 6133.0156 67.983971C6126.2732 74.895998 6123.2338 75.567005 6119.7715 70.907899C6115.6444 65.354152 6115.7534 48.022213 6119.9435 43.558525C6122.7866 40.5298 6125.8444 33.121106 6125.2266 30.758384C6124.7318 28.866555 6124.4694 28.972488 6121.8976 32.102339C6120.362 33.971053 6118.3385 37.1875 6117.4009 39.25C6114.8211 44.925173 6113.0093 44.021521 6108.6949 34.907872C6106.5116 30.295746 6104.3806 27.037403 6103.6949 27.262737C6103.0377 27.478724 6102.3634 29.497047 6102.1964 31.747899C6101.9641 34.878962 6102.6585 37.209893 6105.152 41.670179C6106.9446 44.876581 6109.2708 48.124466 6110.3213 48.887702C6111.9979 50.105814 6112.1514 51.086122 6111.5776 56.909217C6111.0616 62.146343 6111.358 64.948251 6112.9854 70.21739C6117.0969 83.52867 6124.388 84.493234 6133.75 72.9644C6136.0875 70.085895 6138.0 67.341335 6138.0 66.865377C6138.0 66.38942 6138.675 66.0 6139.5 66.0C6141.531 66.0 6141.3859 67.239697 6139.0 70.272871C6137.9 71.671294 6137.0 73.26948 6137.0 73.824396C6137.0 74.379312 6136.4677 75.010767 6135.8171 75.227629C6134.9113 75.529579 6134.9232 76.661572 6135.8681 80.060963C6136.5629 82.560847 6136.9704 88.431569 6136.8009 93.5C6136.5334 101.50191 6136.2936 102.5 6134.6387 102.5C6133.3952 102.5 6132.2572 101.17246 6131.2099 98.5C6130.3477 96.3 6128.5443 92.736777 6127.2024 90.581727L6124.7625 86.663455L6122.9035 89.081727C6121.881 90.411777 6121.0345 92.286204 6121.0222 93.247119C6120.9902 95.766023 6114.1276 103.0 6111.7701 103.0C6110.0484 103.0 6109.8639 102.55177 6110.432 99.75Z M6119.5604 91.682666C6122.7392 85.093395 6122.6798 83.363115 6119.2525 82.707946C6116.075 82.100512 6115.0414 83.266327 6115.0043 87.5C6114.9898 89.15 6114.6976 92.196533 6114.3549 94.270074C6113.8151 97.536248 6113.9583 97.953237 6115.4263 97.389894C6116.3583 97.032254 6118.2187 94.464002 6119.5604 91.682666Z M6134.784 88.829601C6134.5324 84.48289 6133.8692 80.469178 6133.3102 79.910241C6132.6219 79.221908 6131.1396 79.575105 6128.7164 81.004833L6125.1388 83.115674L6127.3194 86.332912C6128.5187 88.102393 6130.3503 91.439103 6131.3896 93.747823C6134.109 99.788846 6135.3171 98.038371 6134.784 88.829601Z"/>
</svg>
