<svg xmlns="http://www.w3.org/2000/svg"
     width="51.3" height="64.0"
     viewBox="5369.0000 32.8768 46.4482 57.9762">
  <path d="M 5373.3438 67.9375 L 5373 68 L 5375.8438 85.625 C 5376.3746 85.268534 5376.9744 85.240584 5377.9688 85.5 C 5383.018 86.81725 5387.1496 86.004081 5391.5938 82.8125 L 5396 79.65625 L 5398.3125 81.84375 C 5403.6446 86.852978 5408.9383 82.25453 5405.6875 75.4375 C 5403.3753 70.588757 5403.5813 64.813031 5406.3125 58.6875 C 5411.1375 47.866034 5411.4482 45.799916 5409.0312 41.0625 C 5407.0955 37.268116 5406.5783 36.876768 5404.1875 37.4375 C 5399.8308 38.459271 5397.2339 42.25842 5396.4688 48.71875 C 5395.5998 56.054947 5393.5636 65.066081 5392.2188 67.5625 C 5391.6477 68.622473 5390.0399 70.549761 5388.6562 71.84375 C 5386.3402 74.00993 5385.8542 74.10666 5382.4062 72.96875 C 5378.1629 71.568308 5375.3057 70.023525 5373.3438 67.9375 z M 5404.125 39.96875 C 5405.2658 39.889539 5406.3421 40.741821 5407.0938 42.71875 C 5408.1946 45.614562 5406.6226 52.156147 5402.8438 60.5 C 5400.5847 65.488083 5400.5181 70.765606 5402.625 76.03125 C 5404.5784 80.913385 5403.8312 82.109638 5400.6875 79.15625 C 5397.6053 76.260621 5395.6878 76.430695 5390.5 80 C 5383.8119 84.601509 5376.7435 83.661321 5375.5 78 C 5375.1209 76.273785 5375.0848 74.602674 5375.4062 74.28125 C 5375.7277 73.959826 5377.8359 74.413313 5380.125 75.3125 C 5384.1283 76.885045 5384.461 76.875614 5388.1875 74.78125 C 5393.1342 72.001022 5396.6564 65.697579 5397.4688 58.25 C 5397.814 55.085523 5398.5751 50.25 5399.1562 47.5 C 5400.1364 42.861297 5402.2237 40.100768 5404.125 39.96875 z "/>
</svg>
