<svg xmlns="http://www.w3.org/2000/svg"
     width="31.3" height="64.0"
     viewBox="6952.5580 18.3135 40.4420 82.6865">
  <path d="M6965.9689 96.75C6965.9518 96.6125 6965.7499 93.778599 6965.5202 90.452442C6965.0756 84.015089 6962.5274 76.984924 6958.8222 71.973443L6956.558 68.910837L6959.9701 59.086188C6963.2927 49.519168 6963.3468 49.113917 6962.0317 43.632031C6960.4843 37.181897 6961.846 28.189887 6964.7278 25.827278C6966.1629 24.65079 6966.2662 24.78402 6965.6368 27.0C6963.902 33.107653 6963.7576 39.936909 6965.2826 43.748304C6966.7197 47.339966 6966.6886 48.088484 6964.8536 54.060536C6963.7654 57.602241 6962.2281 61.694431 6961.4375 63.154292C6959.7158 66.33331 6959.5771 69.620607 6961.1243 70.576828C6961.7427 70.959002 6963.5427 74.125679 6965.1243 77.613888C6967.3497 82.521781 6968.0 85.431043 6968.0 90.478043C6968.0 94.159348 6967.5644 97.0 6967.0 97.0C6966.45 97.0 6965.986 96.8875 6965.9689 96.75Z M6974.2809 88.542026C6974.109 82.698152 6973.4085 79.651527 6971.0309 74.407872C6969.3639 70.731396 6968.0 66.860788 6968.0 65.806523C6968.0 64.752257 6969.4625 61.163198 6971.25 57.830835C6974.1885 52.352689 6975.9487 50.370559 6982.8573 44.759787C6985.8936 42.29384 6985.5166 40.850579 6982.2754 42.532146C6976.6207 45.465836 6973.4765 39.476836 6975.9911 30.562157C6977.303 25.911425 6979.6469 22.313543 6980.6871 23.353767C6981.0764 23.743039 6980.6729 25.285188 6979.7905 26.780767C6978.4105 29.119693 6977.5699 34.450911 6977.9031 38.75C6978.0532 40.685716 6981.4857 40.225741 6983.5 38.0C6985.8187 35.43789 6989.0 35.367251 6989.0 37.877876C6989.0 40.943326 6986.0814 47.0 6984.6042 47.0C6982.4789 47.0 6975.3545 54.636261 6973.0625 59.370852C6970.5308 64.600698 6970.4781 66.98863 6972.8011 71.219584C6975.6605 76.427479 6977.0 82.216483 6977.0 89.36602C6977.0 94.008757 6976.6248 95.998751 6975.75 95.995838C6974.8819 95.992948 6974.4331 93.71554 6974.2809 88.542026Z M6971.3042 45.188007C6967.9416 43.109805 6967.6141 34.561153 6970.6214 27.363762C6972.5445 22.761091 6974.0885 23.091545 6972.4261 27.75C6970.5226 33.083841 6970.6415 39.946357 6972.6764 42.194888C6974.4657 44.172056 6973.4048 46.48623 6971.3042 45.188007Z"/>
</svg>
