<svg xmlns="http://www.w3.org/2000/svg"
     width="64.0" height="51.0"
     viewBox="5410.1149 28.5000 93.1571 74.2726">
  <path d="M5420.0749 96.272997C5416.4203 94.381219 5414.1149 91.551803 5415.2792 90.387428C5415.6689 89.997753 5416.8373 90.447747 5417.8756 91.387414C5418.9139 92.327081 5421.4008 93.547992 5423.402 94.100548C5426.4724 94.948318 5427.648 94.763797 5430.9306 92.918873C5433.3982 91.531972 5435.6761 90.952343 5437.1603 91.333657C5449.835 94.589996 5449.7759 94.588887 5452.8662 91.62822L5455.7502 88.86514L5460.2439 92.03257C5464.1078 94.75613 5465.5967 95.2 5470.8688 95.2C5477.041 95.2 5478.9222 96.251617 5474.75 97.369714C5469.5151 98.772611 5463.2983 98.013015 5459.6275 95.521995L5455.976 93.04399L5452.738 95.018257C5448.754 97.447385 5445.8906 97.508338 5439.7168 95.295446C5435.2343 93.688827 5434.7312 93.686344 5431.7168 95.255972C5426.5486 97.947024 5423.7766 98.189185 5420.0749 96.272997Z M5421.443 86.704653C5419.7896 85.282453 5418.9213 83.665757 5419.1604 82.454653C5419.5149 80.659363 5419.7426 80.724208 5421.9535 83.25C5423.6729 85.214322 5425.3091 86.0 5427.6803 86.0C5429.5062 86.0 5431.0 85.622232 5431.0 85.160515C5431.0 84.698798 5432.1682 83.788777 5433.5959 83.138244C5435.7859 82.14043 5436.7066 82.273572 5439.4832 83.989609C5443.2866 86.340226 5445.7484 85.791963 5447.0766 82.298516C5449.7665 75.223577 5447.1441 70.633505 5440.9758 71.619867C5426.3613 73.956819 5420.2111 64.149703 5424.5523 45.430873C5426.1867 38.383391 5428.5733 34.083951 5430.8801 34.031425C5431.9952 34.006032 5432.1195 35.391722 5431.5272 41.25C5431.1241 45.2375 5430.8113 49.27033 5430.8321 50.211845C5430.8868 52.684152 5433.8316 58.537626 5436.0146 60.513243C5437.7756 62.106938 5438.1569 62.10549 5442.3895 60.489038C5446.8124 58.799923 5446.9564 58.809923 5450.5955 61.059013L5454.2996 63.348265L5456.1498 61.063349C5458.6889 57.927622 5458.4682 53.261751 5455.5042 47.419478C5454.1315 44.713765 5453.0065 42.028826 5453.0042 41.452948C5453.0019 40.877069 5454.8275 38.627069 5457.0612 36.452948L5461.1223 32.5L5463.8579 35.838825L5466.5935 39.17765L5472.1808 36.437356C5478.3991 33.38763 5480.6227 33.648361 5481.5999 37.541816C5482.536 41.271647 5479.9947 43.492218 5474.9416 43.359722C5471.516 43.269899 5470.7096 43.660965 5469.501 45.998043C5468.7206 47.507119 5467.7775 51.715554 5467.4051 55.350119C5466.6233 62.980827 5467.7192 64.230819 5472.8601 61.572354C5477.111 59.37412 5479.2784 59.602981 5482.0391 62.541588C5485.3799 66.097779 5487.9449 65.330577 5491.75 59.636986C5494.6786 55.254916 5495.0 54.049246 5495.0 47.446003C5495.0 43.41562 5495.4508 39.839398 5496.0019 39.498843C5497.8969 38.327623 5499.272 44.51675 5499.1861 53.83091C5499.1194 61.062895 5498.6395 64.113232 5497.0526 67.391384C5494.4087 72.853013 5490.2418 76.801632 5486.2878 77.592432C5483.6458 78.120833 5482.6565 77.717554 5480.0477 75.048801C5477.6104 72.555458 5476.258 71.943801 5473.7237 72.188604C5469.5544 72.59134 5466.2872 78.377055 5467.759 82.751203C5468.5707 85.163502 5469.1623 85.482153 5472.592 85.354211C5474.7414 85.274026 5477.7375 84.884067 5479.25 84.487633C5481.29 83.95294 5482.0 84.130669 5482.0 85.176018C5482.0 86.624965 5474.9448 89.0 5470.6406 89.0C5465.6812 89.0 5463.176 83.09991 5465.5821 77.086483C5468.869 68.871529 5475.1682 66.793388 5481.0 72.0C5484.796 75.389093 5484.9612 75.430427 5488.4168 73.855975C5493.8367 71.386467 5498.8538 59.206498 5497.7514 51.194054C5497.3297 48.129168 5496.8587 49.049433 5495.1149 56.345003C5493.6125 62.630715 5489.5583 68.0 5486.3146 68.0C5484.9682 68.0 5482.3916 66.875 5480.5889 65.5C5476.6949 62.529908 5476.1494 62.484252 5471.4323 64.733656C5467.8244 66.454169 5467.7816 66.44852 5465.7896 63.988435C5464.1403 61.951743 5463.8917 60.6168 5464.3955 56.504779C5464.7327 53.752151 5465.6206 49.756105 5466.3685 47.624678L5467.7283 43.749356L5463.8085 40.208071L5459.8888 36.666786L5457.8118 38.743765L5455.7348 40.820744L5457.8674 45.226097C5460.7181 51.114911 5460.7471 59.142046 5457.9319 63.09563C5455.4666 66.557898 5452.884 66.765681 5448.7656 63.833125C5445.6543 61.617675 5445.561 61.623189 5438.9321 64.414116C5436.7649 65.326538 5432.6361 61.853815 5430.4468 57.277198C5429.1599 54.586887 5428.691 51.485753 5428.8172 46.5C5429.0286 38.149676 5427.7664 39.431528 5426.0887 49.270913C5423.6227 63.733215 5430.3244 71.746043 5442.5753 68.983028C5449.6403 67.389602 5451.7525 70.417608 5450.0628 79.716737C5448.5003 88.315414 5444.074 91.205877 5438.81 87.06515C5436.3802 85.153873 5436.3146 85.153793 5433.4251 87.058561C5429.4629 89.670479 5424.7284 89.530639 5421.443 86.704653Z M5479.0 39.468615C5479.0 37.351492 5476.2953 36.509999 5474.4399 38.049853C5473.2128 39.068251 5473.1653 39.488363 5474.2027 40.146416C5476.3229 41.491351 5479.0 41.113105 5479.0 39.468615Z"/>
</svg>
