<svg xmlns="http://www.w3.org/2000/svg"
     width="60.6" height="64.0"
     viewBox="5822.9837 67.4062 29.6295 31.2812">
  <path d="M 5829.4375 90.65625 L 5830 91.34375 L 5838 93.34375 L 5839.7812 94.6875 C 5840.6872 93.853297 5841.6957 93.099392 5842.625 92.65625 C 5847.3591 90.398754 5848.6132 85.657499 5846.4688 78.28125 C 5845.9492 76.493968 5845.6891 75.290114 5845.5625 74.3125 L 5836.875 71.40625 L 5834.1875 72.6875 C 5828.3261 75.558794 5826.9837 80.488572 5829.4688 90 C 5829.5248 90.214593 5829.4186 90.436523 5829.4375 90.65625 z M 5837.5312 74 C 5841.8642 74 5842.1896 74.208262 5843.6562 77.71875 C 5845.4782 82.079381 5845.6611 87.480094 5844.0625 89.40625 C 5841.3976 92.617332 5834.1855 91.763671 5832.2812 88 C 5830.7656 85.003835 5830.6332 80.075485 5831.9688 76.5625 C 5832.8196 74.324844 5833.5396 74 5837.5312 74 z "/>
</svg>
