<svg xmlns="http://www.w3.org/2000/svg"
     width="51.5" height="64.0"
     viewBox="1018.9787 18.0000 70.4374 87.4712">
  <path d="M1047.5 99.999211C1046.4 99.526091 1042.8 99.382282 1039.5 99.679635C1031.8854 100.36577 1031.1784 99.606495 1027.6567 86.959563C1022.9787 70.160586 1024.655 58.280626 1032.7797 50.652825C1036.2306 47.412901 1038.192 47.607804 1043.0202 51.670421C1048.7483 56.490345 1050.2242 52.91405 1047.6143 40.537824L1046.357 34.575648L1041.7497 34.858977C1038.1738 35.078874 1036.6786 34.678615 1035.0712 33.071153C1032.4578 30.457817 1032.4323 27.567661 1035.0 25.0C1037.6682 22.331751 1040.1459 22.479136 1043.4055 25.5C1044.8891 26.875 1046.4457 28.0 1046.8644 28.0C1047.2832 28.0 1048.9192 26.65 1050.5 25.0C1052.0808 23.35 1053.7746 22.0 1054.264 22.0C1054.7534 22.0 1056.5327 23.378859 1058.218 25.064132L1061.2821 28.128264L1065.3911 25.972433C1068.7585 24.205648 1069.9963 24.009146 1072.25 24.88355C1074.3633 25.703469 1075.0 26.614931 1075.0 28.820262C1075.0 33.156891 1071.929 35.404167 1067.0655 34.626469C1063.1289 33.996982 1063.068 34.035262 1062.1009 37.744579C1061.2395 41.048391 1060.6374 48.112783 1060.9073 51.75C1061.0378 53.509385 1063.4283 53.305533 1068.3049 51.119153C1075.7383 47.786435 1076.3995 47.763771 1079.254 50.74386C1083.9716 55.669185 1085.3071 60.429677 1085.3574 72.5C1085.4161 86.597274 1082.6641 96.023355 1077.7778 98.460948C1074.1351 100.2782 1071.4298 100.39441 1067.1884 98.91584C1064.6916 98.045443 1063.6325 98.144027 1061.8167 99.41584C1059.374 101.12677 1050.9223 101.47116 1047.5 99.999211Z M1059.2708 97.75C1062.2058 95.530691 1062.3229 90.445014 1059.536 86.233725C1055.9356 80.793125 1055.5132 77.292397 1057.811 71.93672C1059.9389 66.977138 1068.1295 59.0 1071.094 59.0C1072.2672 59.0 1073.7165 60.675378 1075.2032 63.75C1077.2791 68.043144 1077.4905 69.832568 1077.4015 82.35492C1077.3474 89.975126 1077.6431 95.600126 1078.0588 94.85492C1078.4745 94.109714 1079.8089 90.575 1081.0241 87.0C1085.1984 74.720243 1081.8998 52.374723 1075.7377 51.187998C1074.7831 51.004166 1071.5545 52.011663 1068.563 53.426879C1065.5715 54.842096 1062.2118 56.0 1061.0971 56.0C1056.822 56.0 1055.925 49.862784 1058.6857 39.502004L1060.3714 33.175739L1057.6348 29.58787C1054.4265 25.381561 1053.7849 25.253203 1050.9477 28.25C1049.0954 30.206512 1048.9178 31.152195 1049.5858 35.5C1050.0084 38.25 1050.3869 44.1 1050.427 48.5C1050.4938 55.815136 1050.3256 56.524971 1048.4626 56.791696C1047.342 56.952128 1044.417 55.722817 1041.9626 54.059893C1036.4302 50.31156 1034.7295 50.256549 1032.3823 53.75C1026.5032 62.500105 1025.6603 69.99305 1029.003 83.7894C1031.4265 93.791934 1033.7594 97.55712 1032.6874 89.735789C1030.6872 75.143034 1030.7058 69.497033 1032.7672 65.457986C1035.5901 59.92679 1037.9645 58.017471 1040.7162 59.066036C1042.625 59.793411 1045.0416 63.230425 1050.7341 73.313936C1052.3193 76.121889 1051.497 81.076333 1048.3382 87.74967C1045.1612 94.461322 1045.5301 96.143316 1050.508 97.643341C1055.7716 99.229469 1057.2898 99.247949 1059.2708 97.75Z M1039.7792 91.442067C1041.0026 90.585204 1042.3953 90.126262 1042.8741 90.422195C1044.2337 91.262487 1049.2621 79.180301 1048.619 76.618205C1047.6269 72.665257 1041.5587 63.082249 1039.6325 62.426439C1038.4247 62.015249 1037.0116 62.543433 1035.6325 63.921475C1033.8243 65.728241 1033.4483 67.464175 1033.16 75.335015C1032.8032 85.075523 1034.219 93.0 1036.316 93.0C1036.9975 93.0 1038.5559 92.29893 1039.7792 91.442067Z M1040.75 97.369714C1043.2218 96.707303 1043.4181 96.2093 1042.0563 94.056856C1041.3171 92.888511 1040.6535 92.836824 1038.5716 93.785417C1037.1572 94.429855 1036.0 95.64177 1036.0 96.478561C1036.0 98.108756 1037.1719 98.328613 1040.75 97.369714Z M1043.2981 32.368517C1044.0336 31.633021 1042.2062 27.837616 1040.6003 26.765313C1038.0114 25.036658 1036.0 25.977299 1036.0 28.916667C1036.0 30.520833 1036.5625 32.060307 1037.25 32.337719C1039.0853 33.078261 1042.5707 33.096009 1043.2981 32.368517Z M1075.1108 94.0C1076.2374 89.917117 1076.0871 76.917017 1074.8688 73.070998C1073.0487 67.325269 1070.7453 62.0 1070.0803 62.0C1068.4006 62.0 1062.3209 67.070105 1061.2352 69.376207C1057.4486 77.419414 1057.4878 76.620976 1060.5865 82.621232C1062.8524 87.008924 1064.2439 88.511482 1066.847 89.381431C1070.7843 90.697252 1070.7171 92.638957 1066.75 92.18603C1064.8468 91.968744 1064.0 92.328009 1064.0 93.352697C1064.0 95.096647 1068.4583 96.967305 1071.9605 96.692832C1073.6484 96.56054 1074.6375 95.715119 1075.1108 94.0Z M1070.0657 31.964816C1071.1296 31.395465 1072.0 30.256342 1072.0 29.433431C1072.0 27.06502 1069.2255 26.622199 1066.3189 28.526696C1063.7734 30.194595 1063.7373 30.334725 1065.5178 31.636647C1067.7514 33.269904 1067.6419 33.262006 1070.0657 31.964816Z"/>
</svg>
