<svg xmlns="http://www.w3.org/2000/svg"
     width="64.0" height="55.6"
     viewBox="4028.6157 22.4373 46.5682 40.4689">
  <path d="M 4050.3438,26.6875 C 4049.7363,26.937699 4048.9363,27.845747 4047.4688,29.59375 4044.3646,33.291058 4044.3732,33.290996 4041.6875,31.53125 4039.1839,29.890797 4038.8282,29.880778 4036.5,31.40625 4033.3939,33.441435 4033.3484,35.147834 4036.3125,38.59375 4038.3869,41.005426 4038.8741,41.13777 4041,40 4043.1259,38.86223 4043.6131,38.994574 4045.6875,41.40625 4048.5186,44.697614 4048.531,45.215364 4045.9375,47.5625 4044.2442,49.094914 4043.5587,49.211707 4041.9688,48.21875 4037.0802,45.165728 4032.6157,48.656635 4036.9375,52.15625 4038.1902,53.170583 4040.4234,54.012952 4041.875,54.03125 4043.3266,54.049548 4045.5838,54.961374 4046.9062,56.0625 L 4049.3125,58.0625 4048.9375,58.90625 4054.875,57.40625 C 4054.9848,56.760158 4055.4029,56.032566 4056.4688,55.03125 4058.3502,53.263673 4059.5245,52.898258 4061.6875,53.4375 4067.7443,54.947418 4069.3697,54.622266 4070.4062,51.71875 4071.1839,49.540603 4071.0556,48.618104 4069.75,47.3125 4068.2985,45.860978 4067.5957,45.802349 4064.1562,46.9375 4060.6825,48.083945 4059.8773,48.03206 4057.125,46.40625 4051.5456,43.110377 4053.6543,38.9658 4060.7812,39.25 4065.4331,39.435507 4067.4101,38.190801 4066.4375,35.65625 4065.6275,33.545392 4061.2148,32.379022 4059.7188,33.875 4057.9011,35.692608 4056.4384,35.187505 4054.9688,32.25 4054.2121,30.7375 4052.9174,28.679995 4052.0938,27.6875 4051.3865,26.835221 4050.9512,26.437301 4050.3438,26.6875 z M 4051.3438,30.09375 C 4051.5199,30.319545 4052.6332,32.141937 4053.8438,34.15625 L 4056.0625,37.8125 4053.125,39.90625 C 4051.5126,41.054437 4049.9832,42 4049.7188,42 4048.4548,42 4045.9581,36.702459 4046.4688,35.09375 4047.0732,33.189424 4050.7885,29.381818 4051.3438,30.09375 z M 4039.0312,33.34375 C 4039.4858,33.372963 4039.9909,33.57219 4040.4688,33.96875 4041.6532,34.951733 4041.7395,35.583338 4040.875,36.625 4039.3775,38.429353 4038.0845,38.367738 4037.3438,36.4375 4036.6613,34.658917 4037.6677,33.256112 4039.0312,33.34375 z M 4050.7188,45.59375 C 4051.9141,45.533814 4053.4471,46.244536 4055.75,47.75 4058.5797,49.599837 4058.5767,50.091445 4055.5625,53.34375 4052.5418,56.60322 4050.97,56.684641 4048.125,53.65625 4045.959,51.350636 4045.9683,51.221506 4047.7188,48.15625 4048.6717,46.487536 4049.5234,45.653686 4050.7188,45.59375 z M 4062.5,35 C 4063.325,35 4064,35.419959 4064,35.9375 4064,37.198478 4062.4239,38.111431 4061.625,37.3125 4060.4988,36.186316 4060.9536,35 4062.5,35 z M 4066.0312,48.3125 C 4067.2904,48.335627 4068,49.295364 4068,51.0625 4068,53.041608 4067.8115,53.112551 4064.75,52.3125 4062.5647,51.741423 4062.4682,49.409394 4064.5938,48.59375 4065.1274,48.38897 4065.6115,48.304791 4066.0312,48.3125 z"/>
</svg>
