<svg xmlns="http://www.w3.org/2000/svg"
     width="33.3" height="64.0"
     viewBox="4182.1562 19.7565 42.8309 82.2881">
  <path d="M 4193.7812,49.1875 4193.0938,52.90625 4193.5938,52.71875 4197.7812,55.375 C 4200.0818,56.827302 4202.3997,58 4202.9375,58 4203.4752,58 4205.123,55.947076 4206.5938,53.4375 4208.9616,49.397046 4209.2083,48.146245 4208.75,42.4375 4208.4654,38.891727 4207.723,35.351862 4207.0938,34.59375 4206.203,33.520429 4206.5217,32.519002 4208.5625,30.09375 4210.0039,28.380737 4211.5853,27.248199 4212.0938,27.5625 4212.6024,27.8768 4214.0871,30.215888 4215.375,32.75 L 4217.7188,37.34375 4214.75,43.875 C 4212.4051,49.046493 4211.9356,51.205326 4212.4375,54.34375 4212.9764,57.714307 4212.4754,59.447231 4208.9688,66.1875 4205.3557,73.132301 4204.914,74.627138 4205.5312,78.28125 4206.3439,83.090855 4211.5305,88.875758 4213.375,87.03125 4214.1417,86.264605 4213.6364,85.291338 4211.625,83.6875 4209.268,81.808149 4208.7892,80.623455 4208.6562,76.46875 4208.5185,72.16278 4209.044,70.659019 4212.6562,65.25 4216.5449,59.427188 4216.7628,58.754129 4215.8125,55.3125 4214.6887,51.24233 4215.8063,46.367264 4219.3125,39.84375 4220.3969,37.826117 4220.9871,35.576117 4220.625,34.84375 4218.1902,29.918536 4215.2522,25.534804 4213.7812,24.625 4212.377,23.756477 4211.3106,24.266551 4208.0312,27.46875 4204.14,31.268381 4203.0204,34.588886 4204.9375,36.5625 4205.7736,37.423318 4206.3317,43.282203 4206.0938,48.5625 4206.0428,49.694879 4205.4152,51.44221 4204.6875,52.4375 4203.4251,54.163858 4203.1196,54.113422 4198.5625,51.6875 L 4193.8125,49.15625 4193.7812,49.1875 z M 4192.0625,58.5625 4191.5312,61.46875 C 4192.6465,61.556865 4193.7265,62.133604 4194.875,63.59375 4198.703,68.460274 4196.8957,82.52942 4191.9062,86.65625 4191.1285,87.299533 4189.3477,88.114804 4187.9375,88.46875 4187.4955,88.579683 4187.1421,88.60384 4186.8125,88.625 L 4186.6562,90.8125 C 4188.6771,90.941664 4190.8463,90.146041 4193.0625,88.28125 4202.3491,80.467091 4202.4522,61.95352 4193.2188,58.90625 4192.7374,58.747378 4192.4351,58.669017 4192.0625,58.5625 z M 4186.375,94.59375 4186.1562,97.6875 C 4190.403,98.044624 4194.6863,96.96185 4197.9688,94.03125 L 4201.2812,91.0625 4203.7812,93.03125 C 4206.4455,95.126945 4210,95.662844 4210,93.96875 4210,93.405137 4208.9875,92.530839 4207.75,92 4206.5125,91.469162 4204.5387,90.317425 4203.375,89.46875 4201.3935,88.023738 4200.9914,88.160251 4197.0312,91.46875 4193.4454,94.464687 4190.2597,95.363031 4186.375,94.59375 z"/>
</svg>
