<svg xmlns="http://www.w3.org/2000/svg"
     width="38.4" height="64.0"
     viewBox="26.0000 14.0712 53.2667 88.7767">
  <path d="M 30.0625 83.9375 L 30 84 L 31 88 L 31.125 88.1875 C 31.719182 88.249259 32.734536 88.783355 34.28125 90 C 38.23519 93.11017 44.344898 92.680409 49.03125 88.96875 C 54.732111 84.453585 55.983328 79.553474 56.46875 59.75 C 56.691837 50.648822 57.376336 40.332944 58 36.84375 C 59.05689 30.930788 62.744344 22.913385 65.03125 21.5 C 67.219457 20.147613 69.99105 22.221795 71 25.96875 C 72.069873 29.941954 71.69956 33.604485 68.4375 51.5 C 66.457277 62.363417 66.97329 70.402843 70.03125 75.84375 C 73.45673 81.938568 70.320764 86.188142 66.59375 80.5 C 64.062938 76.637493 62.434709 77.47946 60.03125 83.90625 C 57.848144 89.743821 55.904159 92.236731 51 95.34375 C 49.616912 96.220002 45.860618 97.075424 42.6875 97.25 C 39.508637 97.424891 37.716017 97.277171 36.15625 96.3125 L 37.5 98.5 L 37.53125 98.75 C 39.070367 98.805965 40.769456 98.847909 42.65625 98.78125 C 50.037698 98.52047 51.166183 98.218173 54.5625 95.46875 C 56.626976 93.797494 59.482591 90.197494 60.90625 87.46875 C 62.329909 84.740006 63.578964 82.325202 63.6875 82.125 C 63.796035 81.924797 65.115614 82.712297 66.59375 83.875 C 70.250199 86.751162 71.371306 86.550968 73.46875 82.65625 C 75.253846 79.341528 75.266687 79.314745 72.5 74.59375 C 69.770846 69.9368 69.722433 69.619383 70.375 58.875 C 70.741104 52.847181 71.694277 46.031388 72.5 43.71875 C 74.701359 37.400268 74.439439 26.250969 72 22.25 C 69.623987 18.353056 66.835041 18.071209 63.53125 21.375 C 57.063325 27.842925 54.256762 38.798291 53.71875 59.5 C 53.292629 75.896329 51.438826 84.303449 47.4375 88.0625 C 43.735082 91.540741 37.477471 90.636983 31.78125 85.8125 C 31.003245 85.15356 30.466643 84.571521 30.0625 83.9375 z "/>
</svg>
