<svg xmlns="http://www.w3.org/2000/svg"
     width="53.6" height="64.0"
     viewBox="3722.0000 60.9609 33.2879 39.7683">
  <path d="M 3741.6667,95.333333 C 3740.6991,94.365745 3740.8779,88.741319 3741.929,87.080594 3742.6181,85.991893 3743.5865,85.878884 3746.0854,86.595551 3750.3378,87.81512 3751.2879,90.223059 3747.3512,89.80372 3744.7904,89.530929 3744.4681,89.830964 3744.1866,92.75 3743.8842,95.8869 3743.0625,96.729206 3741.6667,95.333333 z M 3734.6048,93.412469 C 3734.2722,92.545645 3734,90.925084 3734,89.811224 3734,88.274673 3733.5778,87.959854 3732.25,88.506465 3727.4179,90.495754 3726.5026,90.207652 3729.5,87.640889 3734.5118,83.349168 3737,84.471135 3737,91.02277 3737,94.282615 3735.5094,95.769803 3734.6048,93.412469 z M 3726.0887,76.848944 C 3726.1374,76.107025 3728.8427,73.128695 3732.1005,70.230434 L 3738.0236,64.960869 3741.2618,66.628648 C 3746.2654,69.205654 3751,73.090358 3751,74.618689 3751,76.454506 3749.5526,76.370771 3747.9522,74.442364 3747.2412,73.585664 3744.7099,71.742192 3742.327,70.34576 L 3737.9946,67.806791 3731.9973,73.00234 C 3728.6988,75.859892 3726.0399,77.590864 3726.0887,76.848944 z M 3726,84.270414 C 3726,82.392845 3734.8763,75.000536 3737.1202,75.009384 3740.5189,75.022786 3750.4901,80.909885 3749.2368,82.163195 3748.5808,82.819249 3746.3591,82.091048 3742.6772,80.013096 3736.6823,76.629763 3735.3484,76.747535 3731.5,81 3729.2113,83.528954 3726,85.438477 3726,84.270414 z"/>
</svg>
