<svg xmlns="http://www.w3.org/2000/svg"
     width="64.0" height="54.9"
     viewBox="3090.5282 20.7346 50.4878 43.3112">
  <path d="M 3117.0938,25.15625 C 3115.5756,24.734585 3113.6481,26.707716 3111.5312,31 3109.9,34.307614 3108.2914,37 3107.9375,37 3107.5836,37 3105.3765,35.480791 3103.0312,33.625 3100.2293,31.407745 3098.0656,30.437196 3096.75,30.78125 3094.9515,31.251563 3094.8009,31.889534 3095.2812,37.1875 3095.5755,40.431367 3096.5551,44.101041 3097.4375,45.3125 3098.32,46.523958 3100.6468,49.856777 3102.625,52.71875 3104.6033,55.580724 3107.4234,58.342894 3108.875,58.875 3110.3265,59.407105 3112.3012,59.862829 3113.2812,59.90625 3116.432,60.045824 3121.7847,57.248865 3122.4688,55.09375 3122.8338,53.943541 3123.5374,53 3124.0312,53 3126.0781,53 3132.3962,46.251931 3134.125,42.21875 3136.3156,37.108293 3137.016,29.894719 3135.375,29.3125 3134.7499,29.090701 3132.0998,30.749921 3129.5,33 3126.9002,35.250079 3124.3436,36.958271 3123.8125,36.78125 3122.6239,36.385053 3120.5309,32.509169 3119.3438,28.5 3118.7562,26.515684 3118.0046,25.409249 3117.0938,25.15625 z M 3115.8125,30 C 3116.8194,30 3120,36.485343 3120,38.53125 3120,39.33759 3119.4375,39.926158 3118.75,39.84375 3113.7751,39.247425 3112.0956,38.707129 3111.6562,37.5625 3111.1054,36.127048 3114.478,30 3115.8125,30 z M 3096.6875,33.6875 C 3097.1441,33.405315 3099.4628,34.844828 3101.8438,36.875 L 3106.1875,40.5625 3104.4062,44.28125 C 3103.4308,46.326819 3102.2857,48 3101.875,48 3099.2312,48 3094.5282,35.022058 3096.6875,33.6875 z M 3132.3438,34 C 3133.6807,34 3132.8423,38.682562 3130.7188,42.9375 3129.504,45.371606 3127.5467,47.966996 3126.375,48.71875 3124.4024,49.984415 3124.1929,49.867049 3123.75,47.28125 3123.4869,45.745391 3122.9897,43.809103 3122.625,42.96875 3122.1624,41.903112 3123.4397,40.314706 3126.8438,37.71875 3129.5282,35.671603 3131.9912,34 3132.3438,34 z M 3113.2812,41.71875 C 3115.865,41.328605 3118.3807,41.774829 3119.6875,43.21875 3121.8535,45.612153 3121.7238,52.539343 3119.4688,55.03125 3116.9405,57.824913 3110.8423,57.674913 3107.625,54.75 3103.8411,51.310063 3103.5305,48.710582 3106.4688,45.21875 3108.0508,43.338619 3110.6975,42.108895 3113.2812,41.71875 z"/>
</svg>
