<svg xmlns="http://www.w3.org/2000/svg"
     width="31.0" height="64.0"
     viewBox="753.0000 14.4423 42.5229 87.9199">
  <path d="M 787 82 C 786.36748 81.138648 786.23634 79.771596 785.96875 77 C 785.6767 73.975 784.77168 70.487785 783.96875 69.25 C 782.65987 67.232228 782.7407 66.353161 784.75 60.75 C 787.19215 53.939821 787.62816 47.095696 785.90625 42.15625 C 784.9271 39.347443 785.14521 38.472072 787.84375 34.25 C 790.69246 29.792959 791.5229 26.875615 791.15625 22.75 C 790.9227 20.121948 789.85819 20.56843 784.5625 25.5 C 781.90477 27.975 779.34519 30 778.875 30 C 778.40481 30 776.62818 28.0875 774.9375 25.75 C 770.6509 19.823447 767.77667 18.442323 764.1875 20.5625 C 760.57108 22.69877 757 27.94952 757 31.15625 C 757 38.062024 760.2856 41.843993 767.6875 43.4375 C 770.5434 44.052327 770.98154 44.59461 771.5625 48.46875 C 772.28014 53.254258 771.54998 57.867194 769.34375 62.625 C 768.0263 65.466116 768.0742 66.081425 769.9375 69.65625 C 772.86913 75.280706 773.70334 84.865116 771.625 89.03125 C 769.68237 92.925333 769.51795 96.644851 771.25 97.34375 C 773.77415 98.362266 775.0096 97.935796 778.53125 94.84375 L 782.125 91.6875 L 782.5 91.84375 L 782.5 91 L 787 82 z M 767.03125 22 C 768.9761 22 771.13577 24.262578 773.34375 28.625 C 775.63875 33.159375 777.30555 33.30831 782.375 29.4375 C 784.8546 27.544187 787.1295 26 787.4375 26 C 788.76891 26 787.72058 28.856619 784.5625 33.8125 C 781.23663 39.031712 781.19479 39.208678 782.6875 42.78125 C 784.63374 47.439252 783.69928 56.993558 780.78125 62.1875 L 778.6875 65.875 L 780.84375 70.875 C 782.02602 73.623271 783 77.356314 783 79.1875 C 783 82.769121 780.06526 89.110711 776.71875 92.75 C 773.92602 95.787046 772.62724 95.588687 773.4375 92.25 C 775.1215 85.311056 775.17418 78.651403 773.625 72.21875 C 772.17629 66.203289 772.17544 64.926958 773.5 60 C 775.30861 53.27251 775.40874 48.014516 773.78125 44.3125 C 772.23997 40.806561 771.18586 40.019231 767.84375 40 C 764.30205 39.97962 760 34.894495 760 30.71875 C 760 27.257819 764.2428 22 767.03125 22 z "/>
</svg>
