<svg xmlns="http://www.w3.org/2000/svg"
     width="46.2" height="64.0"
     viewBox="4214.9533 21.0000 34.9803 48.4332">
  <path d="M 4225,63 C 4225,62.45 4226.0707,62 4227.3794,62 4228.804,62 4231.4221,60.385868 4233.9035,57.977717 4237.3358,54.646765 4238.3774,54.131604 4239.9634,54.980422 4243.1266,56.673324 4243.4532,54.261533 4240.6153,50.166434 4237.3503,45.455045 4236.6614,41.783168 4237.8677,35.522454 4238.9621,29.842836 4237.9855,27 4234.9401,27 4232.003,27 4230.6849,31.4048 4231.4988,38.5 4232.7566,49.465403 4232.7146,50.127675 4230.559,53.326398 4228.2632,56.733145 4226.2474,57.529903 4222.38,56.55924 4218.9533,55.699179 4220.5294,53.737731 4224.0295,54.506487 4228.7343,55.539818 4230.0359,52.326135 4229.744,40.397976 4229.4563,28.641537 4230.933,25 4235.9879,25 4240.0805,25 4240.966,27.270355 4240.7143,37.117528 4240.5151,44.91102 4240.6954,45.755406 4243.281,49.134987 4245.7732,52.392575 4245.9336,53.051607 4244.826,55.482567 4243.7664,57.808089 4243.1365,58.121565 4240.4119,57.679412 4237.7574,57.248652 4236.6878,57.726918 4233.9207,60.581833 4230.7219,63.882188 4225,65.433235 4225,63 z"/>
</svg>
