<svg xmlns="http://www.w3.org/2000/svg"
     width="36.2" height="64.0"
     viewBox="2625.9590 16.5948 51.0311 90.2650">
  <path d="M2656.4369 101.69614C2656.1688 100.99757 2655.3984 98.227302 2654.7247 95.539999C2654.0511 92.852695 2652.9527 90.474399 2652.2837 90.254897C2651.6147 90.035394 2649.4825 92.333457 2647.5453 95.361704C2643.2526 102.07229 2642.1147 102.85977 2640.2611 100.40278C2638.1783 97.641983 2639.2139 88.484861 2642.297 82.400619C2644.6951 77.668219 2644.7521 77.173823 2643.4701 72.23166C2642.729 69.374563 2641.8166 61.516127 2641.4426 54.768469C2640.7963 43.109465 2640.6219 42.350968 2637.932 39.5C2631.096 32.254866 2629.959 21.0 2636.0632 21.0C2636.9779 21.0 2639.8873 23.310305 2642.5286 26.134011C2646.7569 30.654416 2647.4737 31.072729 2648.5257 29.634011C2649.1828 28.735305 2650.2334 28.0 2650.8602 28.0C2651.4871 28.0 2652.0 27.169744 2652.0 26.154988C2652.0 23.786335 2655.5016 20.594787 2657.3305 21.296573C2661.0702 22.731658 2659.3502 31.491968 2654.0285 38.11417L2650.8954 42.012931L2651.9477 49.578825C2652.5265 53.740067 2653.0069 59.249657 2653.0153 61.822359C2653.0237 64.395062 2653.4176 67.110655 2653.8905 67.857012C2655.3072 70.092953 2658.409 68.30396 2661.446 63.499287C2665.5251 57.046088 2666.2994 56.586332 2669.9282 58.462853C2671.6177 59.336532 2672.9901 60.827304 2672.978 61.77568C2672.9473 64.189501 2669.6493 71.195943 2666.1493 76.283055C2663.6247 79.952312 2663.2725 81.238175 2663.7155 85.168019C2664.425 91.463097 2661.3628 101.26307 2658.3216 102.4301C2657.5531 102.725 2656.705 102.39472 2656.4369 101.69614Z M2663.0916 77.222196C2669.1306 70.387209 2671.78 62.532863 2668.6917 60.620033C2667.1807 59.684163 2666.523 59.991721 2664.6917 62.490521C2654.12 76.915372 2651.442 75.458269 2649.7359 54.352883L2648.6541 40.970488L2651.2129 38.235244C2654.3703 34.860063 2657.0 29.777327 2657.0 27.04966C2657.0 23.799608 2655.2128 24.639667 2651.7869 29.5C2650.0424 31.975 2647.9829 34.0 2647.2103 34.0C2646.4377 34.0 2643.7826 31.75 2641.3101 29.0C2638.8376 26.25 2636.1814 24.0 2635.4073 24.0C2632.0592 24.0 2635.0446 32.130509 2640.548 38.0C2642.5475 40.13252 2642.9812 41.896426 2643.499 50.0C2643.8328 55.225 2644.554 62.362688 2645.1016 65.861529C2646.1598 72.621501 2650.1529 81.426574 2652.8433 82.932208C2654.8883 84.076615 2659.1174 81.720303 2663.0916 77.222196Z M2647.3767 92.61443L2651.1908 87.076647L2649.0273 84.038324C2647.8374 82.367246 2646.5278 81.0 2646.1171 81.0C2643.8777 81.0 2640.3094 93.248631 2641.477 96.927582C2642.331 99.618406 2642.7779 99.291695 2647.3767 92.61443Z M2660.539 96.25C2661.8448 93.215422 2662.1983 85.240568 2661.0583 84.536008C2659.6205 83.647428 2656.3051 84.762519 2655.7005 86.338008C2655.1296 87.82574 2658.0927 98.0 2659.0969 98.0C2659.4759 98.0 2660.1249 97.2125 2660.539 96.25Z"/>
</svg>
