<svg xmlns="http://www.w3.org/2000/svg"
     width="31.3" height="64.0"
     viewBox="5799.3274 21.7797 44.4538 90.8172">
  <path d="M 5829.4375 90.65625 C 5829.696 93.6581 5826.7469 97 5823.4688 97 C 5821.5338 97 5820.483 95.942754 5818.4375 91.90625 C 5815.8696 86.838777 5815.8693 86.643672 5815.6875 60.40625 C 5815.5868 45.885764 5815.2263 34.000041 5814.875 34 C 5813.3989 33.999829 5812.8717 42.550182 5813.0938 63.5625 C 5813.3365 86.5388 5814.146 92.181631 5817.8438 96.375 C 5821.4961 100.517 5826.5138 100.13915 5830.1875 95.46875 C 5832.2344 92.866582 5834.444 92.272016 5835.5312 94.03125 C 5836.6471 95.836824 5833.178 99.877616 5827.875 102.90625 C 5823.6627 105.31198 5822.2893 105.63087 5820.0312 104.84375 C 5816.0504 103.45603 5812.4509 99.267425 5809.9062 93 C 5807.8063 87.827622 5807.6774 85.981522 5807.5938 61.84375 C 5807.4748 27.553053 5805.8215 25.779661 5804.4688 58.5 C 5803.3274 86.102198 5807.3622 102.06987 5816.5 106.09375 C 5822.1842 108.59683 5834.0826 103.49066 5837.8438 96.9375 C 5838.2562 96.218957 5838.9828 95.422673 5839.7812 94.6875 L 5838 93.34375 L 5830 91.34375 L 5829.4375 90.65625 z "/>
</svg>
