<svg xmlns="http://www.w3.org/2000/svg"
     width="47.6" height="64.0"
     viewBox="1807.4063 78.2383 19.9384 26.8258">
  <path d="M 1821.9375,85.03125 C 1821.3454,85.130492 1821.1321,86.552372 1820.5625,91.25 1819.9899,95.973031 1820.1286,97 1821.3438,97 1822.4327,97 1822.904,95.525645 1823.1562,91.40625 1823.3447,88.327937 1823.1366,85.589262 1822.6875,85.3125 1822.3835,85.125189 1822.1349,84.998169 1821.9375,85.03125 z M 1814.875,92.65625 C 1814.911,92.793523 1815,92.839275 1815,93.03125 1815,93.600601 1814.2745,95.189686 1813.375,96.5625 1811.4063,99.567233 1812.3734,101.06406 1814.75,98.6875 1816.764,96.673459 1818.0654,82.238258 1816.125,83.4375 1815.5088,83.81834 1815,85.519874 1815,87.21875 L 1815,90.28125 1814.4062,89.46875 1815,92.5 1814.875,92.65625 z"/>
</svg>
