<svg xmlns="http://www.w3.org/2000/svg"
     width="40.5" height="64.0"
     viewBox="5225.0000 48.2500 41.0000 64.8622">
  <path d="M 5241.1875,52.75 C 5241.1855,54.348651 5240.6213,55.61508 5239.2812,57.15625 5238.1094,58.504 5237.2721,58.637249 5234.9062,57.8125 5231.2792,56.548093 5229,57.333165 5229,59.84375 5229,62.432451 5230.8309,63.760081 5234.9375,64.15625 5237.9234,64.444308 5238.5016,64.970983 5239.2812,68 5239.8501,70.209549 5239.7843,73.46724 5239.0938,76.90625 5237.0067,87.298573 5238.034,99.336825 5241.4375,104.53125 5244.4391,109.11224 5248.3721,107.16685 5251.5625,99.53125 5252.9289,96.261002 5253.0597,93.503787 5252.4688,82.46875 5252.0809,75.226531 5252.0809,68.373753 5252.4375,67.25 5253.0082,65.451966 5253.4306,65.323185 5255.9688,66.28125 5259.4342,67.589348 5262,65.993185 5262,62.53125 5262,58.925091 5258.7965,56.748683 5254.625,57.53125 5251.4802,58.121231 5250.9227,57.912294 5249.9375,55.75 5249.4129,54.598595 5249.3991,53.576308 5249.75,52.25 L 5242.5,53 5241.1875,52.75 z M 5244.6875,53.3125 C 5245.1363,53.181756 5246.6924,55.056634 5248.1562,57.46875 5250.552,61.416219 5250.7213,62.258843 5249.8125,66.15625 5249.102,69.20319 5249.1581,73.795967 5250.0312,81.59375 5250.7137,87.688591 5250.9808,94.213591 5250.625,96.09375 5250.2691,97.973909 5248.9528,100.79435 5247.6875,102.375 5245.5462,105.04994 5245.2914,105.13515 5243.75,103.59375 5240.7473,100.59104 5240.0107,92.389468 5241.4375,77.6875 5242.0731,71.137724 5241.9473,67.871127 5240.9688,64.90625 5239.7752,61.289625 5239.8377,60.564828 5241.75,57.21875 5242.909,55.19062 5244.2387,53.443245 5244.6875,53.3125 z M 5231.9375,59.03125 C 5232.9584,59.032218 5234.0952,59.33309 5234.4688,59.9375 5234.7852,60.449496 5234.7027,61.03376 5234.2812,61.25 5233.0526,61.880403 5230,60.950457 5230,59.9375 5230,59.333444 5230.9166,59.030282 5231.9375,59.03125 z M 5257.4375,59.6875 C 5258.8796,59.962205 5260,61.141172 5260,62.6875 5260,63.977656 5257.6491,64.31181 5255.25,63.34375 5253.3418,62.573782 5253.7519,60.282128 5255.9062,59.71875 5256.4279,59.582337 5256.9568,59.595932 5257.4375,59.6875 z"/>
</svg>
