<svg xmlns="http://www.w3.org/2000/svg"
     width="25.1" height="64.0"
     viewBox="683.3142 19.7852 33.4358 85.2568">
  <path d="M 712.75,49.78125 C 710.62123,49.089891 709.8524,44.589604 709.6875,35 709.52076,25.302782 709.33369,24.255401 708,25.59375 705.76112,27.840451 706.19075,47.797439 708.5625,51.8125 710.26692,54.697856 710.24935,54.738716 706.0625,60.40625 701.03529,67.211324 699.01425,73.485658 698.84375,82.71875 698.69721,90.654279 701.04223,97 704.125,97 706.34391,97 706.73612,93.540881 704.65625,92.3125 702.33171,90.939611 700.88801,87.121553 701.4375,83.75 701.72757,81.970208 702.16549,78.475 702.40625,76 702.96159,70.290858 705.16243,65.072048 708.15625,62.40625 709.19528,61.481062 710.67751,60.686507 712.03125,59.8125 L 712,58.5 712.75,49.78125 z M 693.15625,24.0625 C 692.51905,24.339831 691.51028,25.740615 690.59375,28.03125 689.56655,30.59847 688.9923,35.025934 689,40.28125 689.01009,47.177235 689.40771,49.20747 691.46875,52.8125 L 693.9375,57.09375 691.625,63.3125 C 687.31418,74.838542 687.46651,85.211565 692.15625,97.25 693.24202,100.03715 695.90776,101.04197 696.125,98.75 696.36315,96.237497 695.81515,94.634769 693.6875,91.75 691.78707,89.17329 691.52871,87.664221 691.6875,79.59375 691.83326,72.186079 692.39499,69.039344 694.5625,63.625 L 697.25,56.875 694.53125,51.46875 C 692.0247,46.514633 691.84118,45.368705 692.3125,37.78125 692.5954,33.227049 693.14291,28.2625 693.53125,26.75 694.07806,24.620279 693.79345,23.785169 693.15625,24.0625 z M 701.9375,24.0625 C 701.83451,23.961101 701.46668,24.224466 700.78125,24.78125 698.78957,26.399122 696.5943,37.847109 697.28125,42.96875 697.56664,45.096483 698.60509,48.696647 699.59375,50.9375 700.74088,53.537533 702.03399,55 703.1875,55 705.52215,55 705.50448,54.707547 702.40625,48.375 700.1038,43.668962 699.82905,42.145204 700.21875,35.28125 700.46142,31.006956 701.06217,26.6 701.53125,25.5 701.90116,24.632571 702.04049,24.163899 701.9375,24.0625 z"/>
</svg>
