<svg xmlns="http://www.w3.org/2000/svg"
     width="37.1" height="64.0"
     viewBox="5516.4954 25.8739 51.0632 88.1261">
  <path d="M 5543.2812 30 C 5541.4014 29.873864 5539.4554 30.9579 5537.25 33.25 C 5533.2222 37.436327 5532.3962 40.927659 5534.4375 44.875 C 5536.4585 48.783142 5539.3231 50.321299 5543.0625 49.5 C 5545.7356 48.912888 5546 49.079403 5546 51.46875 C 5546 53.622821 5543.8526 59.278082 5542.4062 60.90625 C 5542.2144 61.122125 5541.4821 60.826903 5540.7812 60.25 C 5540.0805 59.673097 5537.4835 58.869581 5535 58.5 C 5531.2119 57.936279 5530.0207 58.209312 5527.625 60.09375 C 5522.7844 63.901349 5520.4954 72.324122 5523.0312 77.0625 C 5524.3294 79.488223 5527 79.593143 5527 77.21875 C 5527 74.290932 5529.9276 71 5532.5312 71 C 5537.4862 71 5540.3717 80.771298 5537.4688 87.71875 C 5536.6968 89.566364 5534.5275 92.965557 5532.6562 95.28125 C 5530.785 97.596943 5528.7477 100.48616 5528.125 101.6875 C 5526.8074 104.22944 5526.6156 110 5527.8438 110 C 5528.3054 110 5530.3395 108.2 5532.375 106 C 5535.8673 102.2255 5540.3144 100.63616 5541.1562 102.875 C 5541.323 103.31857 5543.3728 105.17769 5545.5625 106.96875 L 5547.0938 104 C 5547.0795 103.98818 5547.0768 103.98062 5547.0625 103.96875 C 5543.7813 101.23807 5540.1988 99 5539.0938 99 C 5537.9887 99 5535.4753 100.38678 5533.5312 102.09375 C 5531.5872 103.80073 5530 104.92179 5530 104.5625 C 5530 103.10217 5532.9303 98.371906 5535 96.5 C 5538.6898 93.162995 5541.3263 86.928482 5541.3438 81.5 C 5541.3641 75.222561 5538.6804 69.384268 5535.4062 68.5625 C 5532.6738 67.876678 5527.2133 70.296433 5526.3438 72.5625 C 5525.394 75.037408 5524 74.140593 5524 71.0625 C 5524 63.613751 5528.664 59.462213 5535.3438 60.96875 C 5537.3813 61.428304 5539.6864 62.314111 5540.4375 62.9375 C 5541.4779 63.800936 5542.165 63.678647 5543.4062 62.4375 C 5547.0324 58.811236 5549.709 50.636432 5548.0938 48.125 C 5547.5054 47.210267 5546.1031 46.911869 5543.875 47.25 C 5539.6069 47.897717 5537.5741 46.849612 5536.0312 43.125 C 5534.4755 39.369267 5536.2221 35.268905 5540.3125 33.03125 C 5542.9857 31.568852 5543.2263 31.620405 5545.3125 34.03125 C 5546.5179 35.424246 5548.2098 37.639864 5549.0625 38.9375 C 5550.4499 41.04897 5550.8702 41.16516 5553.0625 40.03125 C 5554.4098 39.334388 5556.5125 37.814643 5557.75 36.6875 L 5560 34.65625 L 5560 37.4375 C 5560 38.966477 5558.875 41.553406 5557.5 43.1875 C 5556.125 44.821595 5555 47.258122 5555 48.59375 C 5555 49.929378 5553.1217 54.554888 5550.8438 58.90625 L 5546.7188 66.84375 L 5548.4062 71.03125 C 5550.8439 77.123877 5548.8503 88.186434 5544.4375 93.0625 C 5543.0962 94.544672 5543.2916 94.968114 5546.4062 97.34375 C 5547.3899 98.093982 5548.4203 98.574163 5549.5625 99.25 L 5550.4688 97.53125 C 5549.8272 97.189523 5549.2538 97.031532 5548.5625 96.5 C 5546.6415 95.02287 5546.6304 94.931943 5548.9062 90.25 C 5552.2702 83.330101 5553.3737 74.146543 5551.4062 69.4375 C 5549.8632 65.744516 5549.9018 65.63979 5553.9375 57.90625 C 5556.1779 53.613121 5557.9977 49.527946 5558 48.8125 C 5558.0023 48.097055 5559.1273 45.299463 5560.5 42.59375 C 5563.1039 37.461176 5563.5586 34.437399 5562.0938 32.125 C 5561.3922 31.017437 5560.8481 31.151869 5559.1875 32.8125 C 5558.0594 33.940644 5556.0358 35.585267 5554.6875 36.46875 C 5552.297 38.035009 5552.1508 37.969942 5549.0312 34.03125 C 5546.9902 31.454226 5545.1611 30.126136 5543.2812 30 z "/>
</svg>
