<svg xmlns="http://www.w3.org/2000/svg"
     width="64.0" height="53.6"
     viewBox="3223.6507 12.1783 108.0260 90.4592">
  <path d="M 3255.5938 16.1875 C 3255.0676 16.178322 3254.4661 16.234748 3253.75 16.375 C 3249.2827 17.249979 3245.849 19.968891 3243.7188 24.25 C 3242.0935 27.516284 3242.0473 28.166111 3243.375 31.34375 C 3244.9564 35.128429 3248.6097 37.550958 3254.7188 38.8125 C 3258.4074 39.574238 3258.5097 39.708212 3258.8125 44.4375 C 3258.9833 47.104742 3258.6975 49.708806 3258.1875 50.21875 C 3257.3154 51.090887 3250.6489 48.38595 3245.375 45.03125 C 3242.4908 43.196667 3240.5529 44.182271 3237.5312 48.96875 C 3231.0249 59.275326 3227.6507 77.823465 3230.5 87.625 C 3231.9946 92.76597 3234.0639 95 3237.375 95 C 3238.6572 95 3238.8114 93.694045 3238.3125 86.625 C 3237.1712 70.453057 3241.8328 57.748717 3248.3125 59.375 C 3251.5283 60.182134 3256.5446 66.693755 3258.2188 72.28125 C 3259.2926 75.865721 3259.202 76.42689 3257.375 77.90625 C 3253.0594 81.400838 3249.3456 90.1281 3250.6875 93.625 C 3251.5379 95.840933 3254.7726 95.196257 3256.7188 92.4375 C 3257.707 91.036711 3259.2305 88.937766 3260.125 87.75 L 3261.75 85.59375 L 3265.2188 88.53125 C 3267.1204 90.157305 3269.6472 92.9625 3270.8438 94.75 C 3273.4237 98.60438 3273.6783 98.637518 3276.7188 95.78125 C 3277.5101 95.037777 3278.02 94.84171 3278.5625 94.59375 L 3278.5 94 L 3274 80.5 L 3274.4688 80.4375 C 3273.7091 79.816635 3272.9757 79.086172 3272.4688 78.3125 C 3270.9481 75.991718 3270.8836 75.096654 3272.0312 70.3125 C 3274.0744 61.795181 3274.5608 61.471226 3280.9688 64.5625 C 3291.3616 69.576185 3294.6684 68.29658 3304.5 55.46875 C 3310.3786 47.798605 3310.6837 47.614798 3316.6875 46.28125 C 3322.1978 45.05732 3322.9952 44.546242 3324.5 41.375 C 3327.6767 34.680594 3324.2729 30.523671 3319.375 35.125 C 3316.785 37.55818 3314 37.024156 3314 34.09375 C 3314 31.396445 3315.6961 27.14761 3317.5 25.34375 C 3319.8192 23.024485 3319.2979 21.572458 3316.75 23.25 C 3315.5125 24.064768 3313.6337 27.055148 3312.5938 29.90625 C 3311.0535 34.128924 3310.9252 35.571829 3311.875 37.65625 C 3312.8416 39.777811 3313.4937 40.081858 3315.6875 39.53125 C 3317.1428 39.165994 3319.4477 38.011108 3320.8125 36.9375 C 3323.9008 34.508272 3324.3441 34.873674 3323.25 39.125 C 3322.3624 42.574059 3321.9274 42.790855 3312.2812 44.59375 C 3310.9583 44.841011 3307.6638 48.206603 3304.0625 52.9375 C 3294.3004 65.761567 3290.7897 67.191051 3281.0625 62.34375 C 3274.2777 58.962764 3273.2125 59.579413 3270 68.84375 C 3267.9651 74.711906 3267.7445 76.327197 3268.75 77.75 C 3273.2325 84.093017 3276.704 94 3274.4375 94 C 3274.122 94 3271.5772 91.525 3268.8125 88.5 C 3266.0478 85.475 3263.1956 83 3262.4688 83 C 3261.7417 83 3259.5581 84.892452 3257.5938 87.1875 C 3255.6293 89.482549 3253.7481 91.091851 3253.4375 90.78125 C 3252.3024 89.646176 3255.8342 83.269321 3259.5312 79.78125 L 3263.3438 76.1875 L 3259.5938 68.625 C 3253.0398 55.360891 3246.0844 53.402778 3239.8438 63.09375 C 3237.6741 66.462935 3236 75.607133 3236 84.1875 C 3236 87.936488 3235.5619 91 3235.0312 91 C 3232.7339 91 3231.6129 86.172887 3231.75 77 C 3231.9179 65.759045 3234.4161 56.525653 3239.0312 50.25 L 3242.1562 46.03125 L 3250.1562 50.25 C 3257.928 54.361006 3258.2156 54.447005 3259.5938 52.5625 C 3263.0022 47.901955 3260.1252 33.720134 3256.2188 35.90625 C 3254.0513 37.119248 3248.8613 35.469511 3246.75 32.90625 C 3242.5338 27.787666 3246.8816 19 3253.625 19 C 3257.1281 19 3259.6917 21.471405 3261.9688 26.96875 C 3262.6616 28.64126 3263.6314 30 3264.125 30 C 3264.6185 30 3267.6291 27.974654 3270.7812 25.5 C 3279.8337 18.393467 3286 19.900206 3286 29.21875 C 3286 33.505375 3285.1258 33.911437 3282.4062 30.90625 C 3280.8745 29.213629 3279.7925 28.940991 3276.6875 29.4375 C 3272.3733 30.127363 3268.3877 32.438352 3267 35.03125 C 3266.4888 35.986427 3265.7883 39.548129 3265.4688 42.96875 C 3265.027 47.697218 3265.2719 49.767244 3266.4688 51.59375 C 3268.2535 54.317686 3271.1557 54.722272 3273 52.5 C 3275.1959 49.854119 3278.2541 50.835716 3282.5938 55.5625 L 3286.7812 60.125 L 3290.5625 58.53125 C 3295.6778 56.393933 3296.2778 55.805368 3300.4062 48.875 C 3304.1511 42.588557 3304.7329 40.139174 3302.9062 38.3125 C 3301.1552 36.561474 3301.4989 28.427459 3303.4375 25.46875 C 3305.6704 22.060967 3304.8351 21.184815 3302.125 24.09375 C 3299.1183 27.321046 3298.5053 32.108302 3300.4062 37.6875 L 3302.0312 42.4375 L 3298.625 47.96875 C 3296.5405 51.365754 3293.8184 54.271838 3291.5625 55.5 L 3287.9062 57.5 L 3284.1875 53.25 C 3281.1235 49.71332 3279.8809 48.987163 3276.9375 49 C 3274.985 49.008516 3272.9043 49.501969 3272.2812 50.125 C 3271.6583 50.74803 3270.4245 50.987019 3269.5625 50.65625 C 3268.3674 50.197657 3268 48.556567 3268 43.71875 C 3268 38.084557 3268.3078 37.084435 3270.75 34.8125 C 3276.4726 29.488839 3282.2333 30.94771 3283.6562 38.0625 C 3285.0585 45.074111 3287.6086 41.918867 3288.4062 32.1875 C 3288.7962 27.429014 3288.6019 24.110986 3287.8438 22.6875 C 3284.6406 16.673509 3279.2713 16.442566 3271.875 22 C 3266.3699 26.136441 3264 26.940243 3264 24.6875 C 3264 23.96998 3262.4247 21.663788 3260.5 19.5625 C 3258.1873 17.037578 3257.1723 16.215034 3255.5938 16.1875 z M 3310.9688 21.96875 C 3310.6341 22.071996 3310.1286 22.433879 3309.4688 23.09375 C 3307.4093 25.153204 3304.155 34.849669 3304.75 37.125 C 3305.6495 40.564762 3307 39.050572 3307 34.625 C 3307 31.600362 3307.7941 29.137155 3309.5625 26.53125 C 3311.5231 23.642189 3311.9728 21.659012 3310.9688 21.96875 z "/>
</svg>
