<svg xmlns="http://www.w3.org/2000/svg"
     width="45.9" height="64.0"
     viewBox="5743.8194 29.1847 60.4002 84.1311">
  <path d="M5783.6481 107.8355C5782.0632 106.93782 5781.8921 106.01954 5782.4609 101.46672C5783.0502 96.750208 5782.8198 95.684873 5780.4299 92.07343C5778.9473 89.833043 5777.3767 88.0 5776.9397 88.0C5776.5027 88.0 5775.1703 89.2375 5773.9789 90.75C5772.2157 92.988275 5771.9204 94.337368 5772.3921 98.0C5772.9842 102.59773 5771.5937 106.98149 5769.3037 107.73647C5767.4756 108.33917 5762.0 100.12117 5762.0 96.774792C5762.0 95.140589 5763.8037 90.813577 5766.087 86.970163C5770.4414 79.640689 5770.4457 79.789995 5765.7053 73.695826C5763.4194 70.757227 5762.1565 69.960862 5760.1549 70.195826C5757.4526 70.513039 5756.8192 71.88616 5755.4882 80.312345C5755.0383 83.160641 5754.4642 84.043466 5753.2181 83.803487C5748.9393 82.979468 5747.8194 74.19967 5751.0769 67.017983C5754.8099 58.788259 5758.1123 57.181147 5764.0649 60.697433C5767.6757 62.830336 5768.3618 62.129171 5768.4385 56.228138L5768.5 51.5L5764.5329 51.0C5759.143 50.320678 5757.111 46.910434 5758.779 41.343361C5760.0444 37.119834 5762.518 33.184662 5763.3712 34.037837C5763.6653 34.331918 5763.1593 36.648666 5762.2468 39.186166C5760.2768 44.664575 5761.5126 49.0 5765.0443 49.0C5769.851 49.0 5771.0 50.652631 5771.0 57.566569C5771.0 65.47897 5769.7021 66.388032 5763.3553 62.920946C5759.9933 61.084366 5758.569 60.772796 5757.2366 61.582475C5754.3905 63.312086 5751.8355 69.523918 5752.2488 73.709074L5752.6232 77.5L5754.4196 73.361168C5755.4076 71.084811 5757.2804 68.652737 5758.5812 67.956559C5760.6586 66.844766 5761.4083 67.010956 5764.7441 69.322678C5768.7414 72.092776 5772.0 76.659745 5772.0 79.491807C5772.0 80.41758 5770.425 83.991393 5768.5 87.433615C5764.0163 95.451266 5764.0543 98.273551 5768.7228 103.97104C5769.7838 105.26595 5770.6738 101.34936 5769.9176 98.712762C5769.3068 96.583066 5769.4869 94.780899 5770.5288 92.596685C5772.8242 87.784413 5776.5372 83.59593 5777.8103 84.382743C5778.438 84.770691 5780.6002 87.571797 5782.6151 90.607423C5786.1391 95.916504 5786.2323 96.28138 5785.0623 100.18638C5783.3424 105.92703 5785.1975 107.67969 5788.5697 103.5C5792.4644 98.672564 5791.7163 94.240518 5784.9405 82.0C5783.875 80.075 5783.0041 76.925 5783.0053 75.0C5783.0077 71.066755 5786.248 65.0 5788.3463 65.0C5789.6074 65.0 5792.4142 69.785975 5794.7975 76.0C5795.6877 78.320907 5795.8071 78.172539 5796.4649 73.928898C5797.4139 67.806114 5795.6021 61.231477 5792.5873 59.857811C5790.713 59.003845 5789.3522 59.296104 5785.3957 61.402265C5782.7118 62.831019 5779.9402 64.0 5779.2365 64.0C5777.1927 64.0 5775.6852 59.491775 5776.4197 55.576526C5777.3646 50.539839 5779.0 51.125147 5779.0 56.5C5779.0 58.975 5779.3375 61.000093 5779.75 61.000206C5780.1625 61.000319 5783.2339 60.020029 5786.5754 58.821784C5792.5965 56.662589 5792.6741 56.660357 5795.275 58.571578C5796.7184 59.63221 5798.19 61.770223 5798.5451 63.322718C5800.2196 70.64247 5798.332 82.274885 5795.2797 83.446181C5793.9562 83.954057 5792.0 80.380697 5792.0 77.455137C5792.0 76.677072 5791.2515 74.169779 5790.3367 71.883375C5788.8062 68.058474 5788.5665 67.872354 5787.3367 69.554269C5785.1078 72.602377 5785.68 79.635125 5788.4936 83.775792C5789.8651 85.794119 5791.7109 89.624322 5792.5954 92.287356C5794.1587 96.993751 5794.1378 97.256972 5791.8518 101.69418C5788.9697 107.28844 5786.2616 109.31577 5783.6481 107.8355Z"/>
</svg>
