<svg xmlns="http://www.w3.org/2000/svg"
     width="24.5" height="64.0"
     viewBox="3491.5000 13.5503 32.6647 85.3930">
  <path d="M 3499.0625 79.4375 L 3499 79.5 L 3497.6875 83.46875 C 3498.2428 83.320946 3499.26 83.84368 3501.6562 85.15625 C 3503.8463 86.355875 3506.3488 87.083839 3507.2188 86.75 C 3510.2463 85.588219 3512.6186 67.433806 3513.2812 40.28125 C 3513.4724 32.454566 3513.8715 25.784772 3514.1875 25.46875 C 3514.5035 25.152727 3515.3403 28.699934 3516.0312 33.34375 C 3517.7955 45.202888 3515.9257 76.901182 3512.8438 87.1875 C 3512.2095 89.304363 3511.1921 91.38922 3510.5938 91.84375 C 3507.8305 93.942303 3497.1218 89.004265 3496.9375 85.75 L 3495.5 90 L 3495.5312 90.21875 L 3495.5625 90.1875 L 3500.5312 92.59375 C 3503.5566 94.073949 3506.8519 94.943233 3508.9688 94.78125 C 3512.1298 94.539354 3512.6255 94.077417 3514.25 89.6875 C 3516.6599 83.175127 3518.9602 67.187532 3519.6875 52 C 3520.1647 42.037508 3519.9242 37.832818 3518.5 31.25 C 3517.5172 26.707274 3516.1136 22.207274 3515.4062 21.25 C 3512.6727 17.550272 3511.8915 21.375889 3511.4375 40.125 C 3511.1927 50.236143 3510.7164 60.3 3510.4062 62.5 C 3510.0961 64.7 3509.6553 68.525 3509.4062 71 C 3508.8331 76.694456 3506.9805 85 3506.2812 85 C 3504.8665 85 3499.0099 80.681685 3499.0312 79.65625 C 3499.0318 79.63163 3499.0606 79.467609 3499.0625 79.4375 z "/>
</svg>
