<svg xmlns="http://www.w3.org/2000/svg"
     width="63.2" height="64.0"
     viewBox="4646.2407 21.2989 87.1343 88.2685">
  <path d="M 4667.4062,26 C 4665.3575,26 4663,30.123739 4663,33.6875 4663,37.566625 4665.445,39.248496 4669.8125,38.375 4672.2508,37.887339 4673.054,38.209405 4674.0625,40.09375 4677.545,46.600935 4678.5506,57.901521 4675.8125,59.59375 4675.2902,59.916553 4674.1153,59.533547 4673.1875,58.71875 4670.0171,55.934655 4662.8638,52.878014 4660.2188,53.1875 4655.0984,53.786602 4650.2407,64.536801 4651.375,72.8125 4652.0521,77.752583 4654.8105,83 4656.7188,83 4657.6079,83 4658,81.315504 4658,77.53125 4658,70.647447 4660.5041,65 4663.5625,65 4666.2921,65 4673,72.196404 4673,75.125 4673,76.287228 4671.4804,79.326313 4669.625,81.875 4664.4628,88.966074 4664.4511,89.748305 4669.25,97.3125 4673.7192,104.35716 4676.0864,105.56734 4678.0625,101.875 4679.2972,99.567951 4678.9339,96.224566 4676.9375,91.375 4675.7147,88.404591 4675.8268,88.085375 4679.1875,84.625 L 4682.7188,80.96875 4686.9688,85.5625 C 4690.5198,89.415032 4691.0901,90.611701 4690.5,92.84375 4690.1126,94.308816 4689.7364,97.3 4689.6562,99.5 4689.5309,102.9398 4689.8151,103.5377 4691.75,103.8125 4692.9875,103.98825 4694.013,103.76325 4694.0312,103.3125 4694.0495,102.86175 4694.9577,101.42068 4696.0625,100.09375 L 4698.0312,97.78125 4698,97.5 4702,89 4702.625,88.40625 C 4699.4901,85.486216 4695.5074,80.868368 4694.1562,78.3125 4690.75,71.869143 4695.8082,65.797581 4700.375,70.84375 4701.2932,71.858341 4703.8331,73.27452 4706.0312,74 4709.7541,75.228671 4710.1771,75.187837 4712.4062,73.09375 4715.3027,70.372639 4720.3286,60.400533 4723.125,51.8125 4724.2535,48.346683 4726.1245,44.466784 4727.2812,43.21875 4728.8492,41.527097 4729.375,39.658511 4729.375,35.84375 4729.375,31.502488 4728.9565,30.380419 4726.625,28.375 4724.9168,26.905612 4722.6171,26 4720.5312,26 4713.8741,26 4709.6212,35.15866 4713.625,40.875 4714.8456,42.61754 4715.1044,44.466298 4714.6562,48.25 4713.9763,53.990851 4709.9906,62.358351 4707.7188,62.8125 4706.8821,62.979748 4704.188,61.067248 4701.7188,58.5625 4699.2494,56.057751 4696.8163,54 4696.3125,54 4695.8087,54 4693.8637,55.125 4692,56.5 4690.1363,57.875 4688.2013,59 4687.6875,59 4686.468,59 4687.3926,44.364905 4688.8438,40.75 4689.8383,38.272449 4690.4444,38 4694.875,38 4700.1908,38 4701,37.214121 4701,32 4701,28.346244 4698.1136,27.307406 4693.8438,29.4375 4689.7217,31.493806 4689.3693,31.440655 4686.8125,28.5 4684.0291,25.298867 4683.2595,25.357055 4679.4688,29.03125 L 4676.3438,32.0625 4672.5312,29.03125 C 4670.4353,27.365666 4668.1244,26 4667.4062,26 z M 4720.4062,29 C 4724.3878,29 4725.8919,30.534752 4726.6875,35.4375 4727.1432,38.245326 4726.8228,39.570764 4725.25,41.28125 4724.1322,42.497048 4721.773,47.775 4720,53 4716.2074,64.177244 4712.5212,70.872538 4709.5938,71.96875 4708.4362,72.402196 4707.275,72.468259 4707,72.125 4706.0729,70.967763 4696.9361,65 4696.0938,65 4694.5482,65 4690,72.586378 4690,75.15625 4690,77.544162 4694.5788,85.01104 4696.9375,86.46875 4699.6098,88.120331 4695.6844,100 4692.4688,100 4690.5285,100 4690.6088,99.18867 4692.9375,94.84375 L 4694.875,91.21875 4691.75,86.96875 C 4687.5705,81.285458 4684.1991,78 4682.5625,78 4681.8257,78 4680.4193,79.2375 4679.4375,80.75 4678.4557,82.2625 4676.8503,84.093813 4675.8438,84.8125 4673.6349,86.389867 4673.4577,91.427419 4675.5,95 4676.286,96.375 4676.9492,98.0625 4676.9688,98.75 4677.049,101.58379 4673.7544,99.705 4670.9688,95.3125 4667.5581,89.934635 4667.68,88.89914 4672.625,81.40625 4674.4775,78.599322 4676,75.259144 4676,74 4676,70.741869 4667.0508,62 4663.7188,62 4660.3541,62 4657.3,66.904683 4656.1875,74.09375 L 4655.3438,79.5 4653.9688,75.125 C 4652.7585,71.269031 4652.817,69.948971 4654.3438,64.125 4656.5883,55.562755 4657.6876,54.411147 4662.3125,55.9375 4664.2531,56.577966 4667.8921,58.666651 4670.375,60.5625 4675.8288,64.726746 4676.7387,64.800581 4678.0938,61.25 4680.4495,55.077173 4680.1959,50.800783 4676.8125,39.71875 4675.7346,36.188061 4675.8591,35.757934 4678.5312,32.96875 4682.0022,29.34586 4682.7704,29.302593 4686.2188,32.5 L 4688.9375,35 4686.8125,39.75 C 4685.268,43.24064 4684.7146,46.66129 4684.6562,52.71875 4684.5557,63.144579 4685.522,64.357175 4690.6562,60.125 4692.745,58.403348 4694.9302,57 4695.5,57 4696.0697,57 4698.6852,59.25 4701.3125,62 4703.9397,64.75 4706.5003,67 4707,67 4708.3534,67 4712.6309,61.05391 4714.9375,55.96875 4717.4269,50.480774 4717.6013,42.328051 4715.3438,37.59375 4713.8001,34.356731 4713.8099,33.951176 4715.375,31.5625 4716.6242,29.655941 4717.91,29 4720.4062,29 z M 4667.3125,29.09375 C 4668.1658,28.987187 4669.201,29.581097 4670.3438,30.84375 4672.4234,33.141771 4672.4366,34.627139 4670.4062,35.40625 4666.3434,36.965334 4664.438,35.419827 4665.4375,31.4375 4665.8017,29.986676 4666.4592,29.200313 4667.3125,29.09375 z M 4696.4375,31.21875 C 4697.5725,31.447294 4698.5,32.25763 4698.5,33.5 4698.5,34.920761 4697.7302,35.594193 4695.8438,35.8125 4692.687,36.177816 4691.3189,34.507139 4693.0625,32.40625 4693.946,31.341764 4695.3025,30.990206 4696.4375,31.21875 z"/>
</svg>
