<svg xmlns="http://www.w3.org/2000/svg"
     width="37.5" height="64.0"
     viewBox="4013.0280 56.5625 25.9506 44.3334">
  <path d="M 4025.375,60.5625 4023.6562,62.59375 4029.1562,67.3125 4028.8438,79.125 C 4028.5111,90.888768 4028.5148,90.983338 4031.25,93.71875 4034.1732,96.64224 4034.9786,95.416613 4032.5625,91.71875 4031.4905,90.078021 4031.1754,86.907964 4031.375,79.5 4031.5232,74 4031.2522,68.349105 4030.7812,66.9375 4030.3125,65.532225 4027.8874,62.67025 4025.375,60.5625 z M 4020.4062,66.46875 4018.7812,68.375 C 4019.1143,68.681858 4019.4249,68.912265 4019.75,69.25 4022.8086,72.427799 4022.8435,72.64141 4022.0938,78.90625 4021.5087,83.793137 4020.8037,85.746387 4019.0625,87.15625 4017.3193,88.567872 4017.028,89.323209 4017.875,90.34375 4018.485,91.07875 4018.6744,91.981855 4018.3125,92.34375 4018.0497,92.606567 4017.7527,92.603441 4017.4688,92.65625 L 4018.8125,95.46875 C 4020.3433,94.807627 4021.4605,94.715754 4023.2188,95.625 4025.6763,96.895938 4026,96.86944 4026,95.5 4026,94.649085 4024.875,93.438992 4023.5,92.8125 4020.816,91.589603 4020.3364,90.069747 4022.0938,88.3125 4022.6966,87.70958 4023.8261,83.66333 4024.5938,79.34375 L 4025.9688,71.5 4022.0312,67.75 C 4021.5044,67.250279 4020.9588,66.905775 4020.4062,66.46875 z"/>
</svg>
