<svg xmlns="http://www.w3.org/2000/svg"
     width="48.7" height="64.0"
     viewBox="3037.4735 49.9375 45.4765 59.7643">
  <path d="M 3054.5625 53.9375 C 3054.122 56.600891 3052.8634 60.141525 3052.1562 59.78125 C 3047.1951 57.253774 3045.9007 56.810926 3044.5938 57.3125 C 3042.4839 58.122094 3041.4735 62.660756 3043 64.5 C 3043.6937 65.335825 3045.9079 66 3048.0312 66 C 3051.7382 66 3051.8227 66.092472 3053 71 C 3054.0008 75.171787 3053.9168 77.240826 3052.5312 83.46875 C 3050.914 90.738215 3050.943 91.062674 3052.9688 95.71875 C 3054.113 98.348967 3056.2796 101.51523 3057.7812 102.75 C 3061.3713 105.70184 3063.0783 105.59593 3066.3438 102.1875 C 3070.3587 97.996762 3071.0041 94.371517 3069.8125 83.03125 C 3069.2365 77.549041 3069.0449 71.488538 3069.4062 69.5625 C 3070.0047 66.373188 3070.3238 66.121022 3072.8438 66.625 C 3076.9386 67.443972 3078.95 64.745098 3076.9062 61.15625 C 3075.4143 58.536444 3073.2211 58.008554 3069.875 59.4375 C 3068.652 59.959767 3067.9643 59.313831 3067.125 56.90625 C 3066.7535 55.840651 3066.5181 55.040404 3066.3438 54.3125 L 3064.375 54.25 C 3064.5831 55.852936 3064.9314 57.595844 3065.4688 59.09375 C 3066.6378 62.35258 3067.1202 67.99736 3067.2812 80.65625 C 3067.4802 96.286831 3067.3308 97.984044 3065.5938 99.90625 C 3062.9854 102.79274 3061.3755 102.54538 3057.9375 98.78125 C 3054.2191 94.710066 3053.3783 90.234152 3055.0312 83.34375 C 3056.0332 79.166565 3056.0922 76.04857 3055.2812 69.90625 C 3054.3626 62.947611 3054.483 61.15077 3056.125 55.875 C 3056.3379 55.191002 3056.422 54.646233 3056.5938 54 L 3054.5625 53.9375 z M 3046.1562 59.40625 C 3047.818 59.501711 3050 61.012822 3050 62.53125 C 3050 64.531178 3045.1166 64.4514 3044.3438 62.4375 C 3044.0131 61.57553 3044.186 60.407733 3044.75 59.84375 C 3045.0842 59.50951 3045.6023 59.37443 3046.1562 59.40625 z M 3073.1562 61.25 C 3073.7717 61.337921 3074.4722 61.885389 3074.7812 62.8125 C 3074.999 63.465625 3074.4647 64 3073.5938 64 C 3072.7229 64 3072 63.277083 3072 62.40625 C 3072 61.523286 3072.5408 61.162079 3073.1562 61.25 z "/>
</svg>
