<svg xmlns="http://www.w3.org/2000/svg"
     width="33.6" height="64.0"
     viewBox="210.7812 13.2242 47.2185 89.8146">
  <path d="M 215.34375 86.90625 L 215.1875 90.03125 C 217.20895 90.753256 219.12275 90.929252 220.71875 90.53125 C 224.13228 89.679999 231.74883 81.913498 234.71875 76.21875 C 238.73053 68.526242 238.65455 66.197415 234.0625 56.84375 C 229.2771 47.096244 227.80338 37.358943 229.96875 29.625 C 231.38365 24.571451 235.09459 20.44469 237.4375 21.34375 C 238.70874 21.831573 239 23.911746 239 32.9375 C 239 45.762676 240.14388 49.584188 246.65625 58.25 C 249.03748 61.418642 251 64.231142 251 64.5 C 251 64.768858 249.70766 65 248.125 65 C 244.71686 65 243.93873 65.890653 241.53125 72.5 C 239.48329 78.12233 234.27681 86.472603 230.8125 89.6875 C 229.54802 90.860945 226.28817 92.983475 223.59375 94.40625 C 220.12358 96.238656 217.44476 96.939758 214.875 96.65625 L 214.78125 98.5625 C 217.78371 99.038804 220.03767 98.32351 224.8125 95.9375 C 233.82552 91.433637 242.25657 81.016526 244.96875 71 C 245.48249 69.102664 246.397 68.425243 248.8125 68.1875 C 250.76113 67.995707 252.43008 67.083829 253.09375 65.84375 C 253.99973 64.150911 253.52285 62.887853 250.21875 58.15625 C 243.17237 48.06556 242.01739 44.724473 241.90625 34.0625 C 241.79298 23.196625 241.17645 20.135853 238.78125 18.625 C 236.56046 17.22416 232.82903 20.674944 229.8125 26.90625 C 225.55737 35.696176 227.67432 53.03738 233.90625 60.34375 C 236.71894 63.641376 235.89251 69.799425 231.65625 77.03125 C 226.19646 86.351779 221.15119 89.413239 215.34375 86.90625 z "/>
</svg>
