<svg xmlns="http://www.w3.org/2000/svg"
     width="38.1" height="64.0"
     viewBox="2824.0000 15.0101 33.4375 56.1139">
  <path d="M 2828 52.28125 L 2828 53 L 2831.5 64 L 2831.5938 64.59375 C 2831.9182 64.372842 2832.258 64.284699 2832.6562 64.4375 C 2839.6572 67.124062 2842.2402 65.833175 2846.0938 57.6875 C 2848.4949 52.611851 2849.0033 50.167286 2849.0312 44 C 2849.0577 38.164361 2849.477 36.000692 2850.9375 34.25 C 2851.6704 33.371484 2852.5363 32.822918 2853.4375 32.46875 L 2853 23.75 C 2852.3824 23.691557 2852 23.467572 2852 22.96875 C 2852 21.081331 2848.8474 19.067148 2845.8438 19.03125 C 2844.075 19.010112 2842.3146 20.01727 2840.5938 22.0625 C 2837.2589 26.025706 2836.6605 28.57531 2837.4375 35.6875 C 2838.3338 43.892156 2838.2227 50.183627 2837.1562 51.25 C 2836.6541 51.752197 2834.6213 52.525574 2832.6562 52.96875 C 2830.1833 53.526497 2829.1181 53.257788 2828 52.28125 z M 2846.125 22 C 2851.1814 22 2852.6743 28.605347 2848.75 33.59375 C 2846.9273 35.910724 2846.4462 37.967804 2846.1875 44.46875 C 2845.9364 50.779886 2845.2958 53.622976 2843.1875 57.75 C 2840.1629 63.670845 2838.4995 64.207357 2833.1875 60.96875 C 2829.2983 58.5976 2829.4497 56.90253 2833.6562 55.8125 C 2835.3136 55.383044 2837.5171 54.092679 2838.5625 52.9375 C 2840.528 50.765711 2840.4914 51.333872 2839.7188 31.84375 C 2839.4563 25.226081 2841.5672 22 2846.125 22 z "/>
</svg>
