<svg xmlns="http://www.w3.org/2000/svg"
     width="38.3" height="64.0"
     viewBox="3361.3717 14.7979 50.4305 84.2021">
  <path d="M3382.0447 88.25C3380.0207 76.688805 3379.867 76.035862 3379.0512 75.531645C3378.0435 74.908844 3374.0 86.747322 3374.0 90.320496C3374.0 94.108561 3370.536 93.937184 3368.5257 90.04966C3365.4265 84.056501 3367.6541 67.926294 3372.6526 60.166225C3374.044 58.006154 3373.9573 57.545848 3371.4874 53.981877C3365.6167 45.510412 3365.3717 28.500648 3371.0242 21.830023C3372.8794 19.64075 3373.0809 19.605758 3374.3601 21.250761C3375.1089 22.21368 3375.9852 25.226986 3376.3073 27.946998C3376.9324 33.224785 3379.5728 39.382042 3380.8678 38.581691C3381.2983 38.315656 3382.4768 34.479886 3383.4868 30.057759C3384.5329 25.477633 3386.11 21.305415 3387.1516 20.362793C3388.8808 18.797918 3389.0633 18.907267 3390.5128 22.376435C3391.3558 24.394042 3392.5583 28.266168 3393.185 30.98116C3393.8117 33.696152 3394.667 35.705777 3395.0858 35.446993C3395.5045 35.188208 3396.5811 32.766401 3397.4783 30.065199C3399.493 23.999773 3401.1963 22.339174 3403.2731 24.415938C3407.8022 28.945041 3405.3332 45.673333 3398.7194 55.269153C3397.7258 56.710739 3397.853 57.636512 3399.4064 60.269153C3405.7128 70.956815 3407.1234 78.101733 3404.4915 86.025688C3402.3845 92.369136 3400.191 92.359612 3398.5749 86.0C3397.2186 80.662433 3392.9172 72.639907 3391.5 72.804581C3390.95 72.868489 3390.375 73.951103 3390.2223 75.210389C3389.4014 81.979064 3385.6371 95.0 3384.5013 95.0C3383.7108 95.0 3382.7775 92.435571 3382.0447 88.25Z M3372.8342 85.417134C3373.0179 84.36271 3374.7455 79.464111 3376.6733 74.531359L3380.1782 65.562717L3377.9597 63.766295C3375.1439 61.486177 3373.9376 62.445038 3371.7642 68.690843C3369.2281 75.979056 3368.8893 88.536485 3371.25 87.750467C3371.9375 87.521557 3372.6504 86.471557 3372.8342 85.417134Z M3377.6382 43.869924C3378.9201 42.433451 3378.8312 41.737728 3376.8893 38.012136C3375.6773 35.686893 3374.4742 31.582928 3374.2156 28.892211C3373.9571 26.201495 3373.3794 24.0 3372.9318 24.0C3369.0424 24.0 3368.4246 46.191861 3372.1878 50.726238C3373.2816 52.044249 3373.6406 51.791824 3374.819 48.876252C3375.5695 47.019313 3376.8381 44.766466 3377.6382 43.869924Z M3390.9196 62.596918C3396.499 55.874151 3392.0874 41.75 3384.4082 41.75C3380.7189 41.75 3376.9964 46.055638 3377.011 50.305764C3377.0352 57.335671 3378.2152 61.047733 3380.8873 62.499983C3384.2664 64.336458 3389.4344 64.386394 3390.9196 62.596918Z M3386.8544 82.75C3389.6381 66.653624 3389.8785 67.907341 3383.75 66.564471C3381.1854 66.002514 3381.0013 66.182255 3381.0197 69.230948C3381.0305 71.028927 3381.6898 76.1 3382.4848 80.5C3383.2798 84.9 3383.9459 88.6125 3383.9651 88.75C3383.9843 88.8875 3384.399 89.0 3384.8868 89.0C3385.3745 89.0 3386.2599 86.1875 3386.8544 82.75Z M3391.6809 36.25C3391.0092 29.855593 3389.2413 24.0 3387.9823 24.0C3387.3342 24.0 3384.0 36.093748 3384.0 38.444538C3384.0 39.023304 3389.8634 41.778667 3391.3925 41.918426C3391.885 41.963451 3392.0143 39.423722 3391.6809 36.25Z M3403.4822 78.5C3403.4846 72.600268 3403.0147 70.645757 3400.4926 66.065233C3398.8466 63.076111 3397.0276 60.481157 3396.4503 60.298668C3395.873 60.116179 3394.381 61.345909 3393.1349 63.031401L3390.8692 66.095931L3394.234 71.297966C3398.5329 77.944133 3400.0 81.399937 3400.0 84.880386C3400.0 86.412841 3400.3126 87.979241 3400.6946 88.361277C3402.1689 89.835519 3403.4794 85.199254 3403.4822 78.5Z M3400.8417 47.602594C3403.4135 42.452926 3404.5652 34.826236 3403.5711 29.527279C3402.8543 25.706504 3400.7831 25.135504 3400.1453 28.582866C3399.9503 29.63729 3398.8012 32.75 3397.5918 35.5C3393.2047 45.475585 3393.2788 45.086119 3394.9052 49.608893C3396.6742 54.528144 3397.5268 54.239986 3400.8417 47.602594Z"/>
</svg>
