<svg xmlns="http://www.w3.org/2000/svg"
     width="21.5" height="64.0"
     viewBox="5193.6552 22.6376 29.9319 89.0583">
  <path d="M5207.0594 105.57162C5205.4015 103.57392 5200.2951 82.207142 5199.0425 72.026234C5197.6868 61.006807 5197.6552 29.0 5199.0 29.0C5200.1913 29.0 5200.196 29.065686 5200.4968 49.783294C5200.6269 58.739106 5200.9086 66.241983 5201.123 66.456355C5201.3374 66.670726 5203.0849 65.561571 5205.0064 63.991564L5208.5 61.137006L5208.2924 52.818503C5208.0905 44.726515 5207.3978 34.439245 5206.7968 30.607629C5206.6336 29.566825 5207.0309 28.527363 5207.6797 28.297715C5209.0058 27.828398 5209.3759 30.260139 5210.811 48.868336C5211.7563 61.12488 5212.3981 62.944435 5215.7905 62.984687C5216.8014 62.996681 5217.0532 59.159689 5216.9523 45.279423C5216.8618 32.839588 5217.1619 27.446025 5217.9592 27.180252C5219.5871 26.637634 5219.179 71.962931 5217.46 82.628045C5215.9599 91.935161 5213.9006 99.357717 5211.5663 103.87182C5209.7744 107.33685 5208.8224 107.69591 5207.0594 105.57162Z M5211.9084 97.006232C5213.055 93.984659 5214.518 87.760075 5215.1596 83.173823L5216.3261 74.835182L5213.4159 72.514668C5210.2906 70.022637 5209.6348 70.152434 5204.6278 74.253903L5201.7555 76.606681L5204.5064 88.553341C5206.8997 98.9467 5208.6023 103.74327 5209.5543 102.77417C5209.7025 102.62337 5210.7618 100.0278 5211.9084 97.006232Z M5206.5 71.0C5208.5612 68.722408 5211.146 68.449721 5213.9681 70.212145C5215.0356 70.878825 5216.1956 71.137737 5216.5458 70.787506C5217.83 69.503347 5215.7775 65.936289 5212.8974 64.446962C5210.0764 62.988168 5209.7502 63.04772 5205.9897 65.707929C5203.4148 67.529355 5202.0353 69.282198 5202.0214 70.75C5201.9949 73.537286 5204.0976 73.654658 5206.5 71.0Z"/>
</svg>
