<svg xmlns="http://www.w3.org/2000/svg"
     width="43.5" height="64.0"
     viewBox="4506.5000 40.2676 43.3605 63.8046">
  <path d="M 4512.6875 78.59375 L 4510.5 81 L 4510.5 83.125 C 4511.1808 83.17467 4511.9682 83.54468 4512.9062 84.34375 C 4515.4284 86.492285 4522.5545 88.932791 4524.6875 88.375 C 4526.9344 87.787428 4529.5316 83.846429 4532.75 76.09375 C 4534.3792 72.169225 4535.0217 68.582512 4535.0625 63.09375 C 4535.1453 51.974533 4538.236 44.806449 4540.8438 49.6875 C 4542.5784 52.934155 4542.3675 57.337857 4540.0938 67 C 4538.1943 75.071719 4538.0379 77.176554 4539 81 C 4539.6228 83.475 4540.3863 86.5125 4540.6875 87.75 C 4541.3961 90.661438 4538.557 90.843342 4536.7812 88 C 4534.8805 84.956506 4533.22 85.541615 4528.3125 91 C 4522.8667 97.057007 4520.3385 97.336223 4514.125 92.625 C 4512.5136 91.403224 4511.406 90.41804 4510.5 89.5 L 4510.5 94.5 L 4510.5938 94.75 C 4511.4611 94.883263 4512.899 95.496145 4514.5625 96.625 C 4519.6422 100.07219 4524.0009 99.377882 4529.1562 94.34375 C 4532.6133 90.968064 4533.1784 90.764096 4535.3125 91.90625 C 4536.6046 92.597755 4539.1842 92.991953 4541.0625 92.8125 C 4545.3932 92.398734 4545.8605 90.43148 4543.0938 84 C 4540.481 77.926527 4540.4565 74.385099 4543.0312 65.09375 C 4544.7833 58.771396 4544.9241 56.945988 4543.9688 52.34375 C 4542.6938 46.202509 4540.4684 44.26763 4537.2812 46.5 C 4534.2697 48.60933 4533.2016 52.476315 4532.6562 63.15625 C 4532.2512 71.087064 4531.6762 73.820352 4529.3438 78.59375 C 4525.6813 86.089204 4524.3102 86.900704 4519.125 84.5625 C 4515.3089 82.841668 4513.6312 81.403835 4512.6875 78.59375 z "/>
</svg>
