<svg xmlns="http://www.w3.org/2000/svg"
     width="23.3" height="64.0"
     viewBox="918.1152 13.9075 33.6036 92.2705">
  <path d="M 947.71875 89.53125 C 944.77652 87.855006 942 85.660484 942 84.59375 C 942 83.843898 942.6583 82.70386 943.46875 82.03125 C 946.33687 79.650917 946.42682 74.514767 943.65625 70.4375 C 941.37425 67.079247 941.2461 66.425389 942.4375 64.09375 C 945.14745 58.790221 946.27489 47.595409 945.03125 38.25 C 942.38897 18.39452 933.01879 17.907473 926.28125 37.28125 C 923.52657 45.202329 923.67096 49.080483 927.15625 59.8125 L 929.1875 66.09375 L 926.34375 70.3125 C 924.77696 72.6216 923.19848 75.175 922.84375 76 C 922.11517 77.69447 924.40527 81.848082 927.15625 83.8125 C 929.73555 85.654318 929.46742 88.022719 926.03125 93.09375 C 924.39126 95.514015 923.04126 98.57629 923.03125 99.875 C 923.01454 102.04316 923.28192 102.17794 926.5625 101.5625 C 928.52754 101.19386 931.56504 100.00301 933.3125 98.9375 C 937.46119 96.407846 940.3894 96.480007 944.09375 99.21875 C 944.88142 99.801099 945.73084 100.07489 946.5625 100.40625 L 946.8125 98 C 945.80964 97.611372 944.78457 97.245962 944.0625 96.625 C 941.24981 94.206145 937.77353 94.002629 933.1875 96.03125 C 930.7523 97.108452 928.37272 98 927.90625 98 C 926.78358 98 928.55517 93.446074 931.03125 89.96875 C 932.11755 88.44318 933 86.944685 933 86.65625 C 933 86.367815 931.425 84.478595 929.5 82.4375 C 927.575 80.396405 926 78.076903 926 77.28125 C 926 76.485596 927.41345 73.833057 929.15625 71.40625 C 932.14758 67.240897 932.26543 66.763106 931.21875 62.75 C 926.07703 43.035991 926.09608 41.624368 931.21875 31.21875 C 934.93007 23.679986 937.14794 23.270043 940.40625 29.5 C 942.18599 32.902895 942.50716 35.216677 942.46875 45 C 942.43112 54.586814 942.01602 57.454067 940.09375 62.3125 C 937.79413 68.124667 937.81055 68.146405 939.78125 70.3125 C 944.27226 75.248784 944.4523 76.854549 941.09375 81.53125 C 939.39285 83.899712 938 86.044239 938 86.3125 C 938 86.892507 943.62983 90.367001 947.4375 92.21875 L 947.71875 89.53125 z "/>
</svg>
