<svg xmlns="http://www.w3.org/2000/svg"
     width="56.1" height="64.0"
     viewBox="2753.7405 14.2464 81.8533 93.3374">
  <path d="M 2828,52.28125 C 2827.814,52.1188 2827.5999,52.120192 2827.4062,51.90625 2824.3355,48.513064 2822.1816,48.610035 2816.0312,52.40625 2812.8298,54.382274 2809.8432,56 2809.4062,56 2808.9693,56 2807.3551,54.7904 2805.8125,53.3125 2802.6505,50.283057 2802.3158,46.649359 2804.3438,37 2805.4636,31.671502 2805.6023,31.508497 2809.3438,30.90625 2813.4778,30.2408 2814.9756,28.791667 2815,25.34375 2815.0416,19.452839 2810.9831,18.246359 2805.4062,22.5 2801.2841,25.644052 2800.6174,25.616947 2798.1875,22.28125 L 2796.2188,19.5625 2792.3125,22.28125 C 2787.507,25.611452 2786.9128,25.634308 2784.1875,22.5 2781.5232,19.435749 2780.2896,19.390598 2777.3125,22.1875 2774.4745,24.853654 2774.3331,28.083472 2776.9688,30.46875 2778.5158,31.868814 2779.9349,32.132051 2783.4062,31.65625 L 2787.8438,31.0625 2789.5625,35.53125 C 2792.0924,42.155555 2791.0551,47.637982 2786.5,51.8125 L 2782.875,55.125 2778.9688,51.59375 C 2773.3365,46.50542 2770.7244,46.106835 2765.7188,49.625 2760.4546,53.324802 2757.7405,57.972659 2757.8125,63.1875 2757.8977,69.36429 2759.2312,69.768744 2763.9062,65.09375 2768.5601,60.439997 2771.0508,60.0226 2774.8438,63.25 2776.9381,65.032046 2777.5768,66.539897 2777.8125,70.5 2778.0899,75.159703 2777.7983,75.806268 2773.9062,80 2766.3936,88.09502 2766.3716,88.174598 2770.0625,93.8125 2771.8382,96.524877 2774.5952,99.528177 2776.1875,100.46875 2780.49,103.01033 2781.9817,101.24005 2782,93.625 2782.0263,82.726075 2785.4865,79.571442 2791.5625,84.90625 2793.4911,86.599573 2795.3926,88 2795.7812,88 2796.1698,88 2798.8627,86.353888 2801.7812,84.34375 L 2807.0938,80.6875 2810,84.09375 C 2813.3842,88.0514 2813.5136,88.837028 2811.5,93.65625 2809.6053,98.191009 2809.6082,99.483138 2811.5625,101.4375 2813.7087,103.58372 2814.5156,103.41909 2816.6875,100.4375 L 2818.5625,97.875 2819,98.21875 2819,98 2820.4688,94.03125 C 2820.5565,93.488956 2820.5507,93.058974 2820.9375,92.125 2821.1366,91.644285 2821.288,91.65766 2821.5,91.25 L 2824,84.5 2824.2812,84.3125 C 2824.0556,83.829486 2823.7174,83.336871 2823.625,82.875 2823.2704,81.101864 2821.1743,77.264926 2818.9688,74.34375 2815.426,69.651292 2815.0974,68.78314 2816.2188,66.96875 2818.0825,63.95336 2822.0414,64.797384 2824.5,68.71875 2827.1858,73.002554 2828.4407,72.797925 2829.9062,67.90625 2830.486,65.971341 2831.0035,64.995592 2831.5938,64.59375 L 2831.5,64 2828,53 2828,52.28125 z M 2809.0312,23.0625 C 2810.7934,22.650001 2812,23.53355 2812,25.5 2812,27.508266 2811.5023,28 2809.4688,28 2806.5896,28 2804.9866,25.240482 2807.0938,23.90625 2807.7786,23.472585 2808.4439,23.2 2809.0312,23.0625 z M 2780.4062,24 C 2782.0711,24 2785.2164,27.471082 2784.3438,28.34375 2783.0658,29.621719 2779.2004,28.987177 2778.5938,27.40625 2777.8568,25.485856 2778.6555,24 2780.4062,24 z M 2795.1562,24.25 C 2796.3851,24.508167 2797.7025,25.587658 2799.3438,27.5625 2802.1438,30.931879 2802.1757,31.130868 2801.0938,37.34375 2799.2143,48.136251 2799.57,50.511668 2803.625,55 2805.614,57.201585 2807.6984,59 2808.25,59 2808.8015,59 2811.8311,57.425 2815,55.5 2818.1689,53.575 2821.372,51.996242 2822.125,52 2824.5721,52.012212 2828,58.319669 2828,62.8125 2828,67.651767 2827.2555,67.965341 2824,64.5 2821.0677,61.378705 2818.0062,61.312113 2815.1875,64.3125 2812.1147,67.583331 2812.4783,70.80757 2816.5312,75.90625 2820.4185,80.79654 2821.5157,83.804447 2820.5312,86.90625 2819.4293,90.378174 2814.8755,98 2813.9062,98 2812.6536,98 2812.8163,96.94528 2814.5,94 2815.286,92.625 2815.9493,90.444688 2815.9688,89.15625 2816.004,86.820481 2809.2971,77.112133 2807.5938,77.03125 2807.1003,77.007822 2804.7867,78.575 2802.4375,80.5 2797.358,84.662266 2795.7434,84.808046 2791.4062,81.5 2789.6035,80.125 2787.5185,79 2786.75,79 2785.9816,79 2783.9318,80.958276 2782.2188,83.34375 2779.7886,86.727735 2779.0502,88.889763 2778.8125,93.25 2778.4646,99.628355 2777.6078,99.552264 2772.8125,92.59375 2769.6957,88.071044 2769.9897,86.99413 2775.9062,81.1875 2780.7522,76.431483 2781.2847,74.719724 2780,68.53125 2778.9325,63.389446 2775.1498,58 2772.5938,58 2770.3943,58 2764.4494,60.766443 2763.0625,62.4375 2762.3515,63.294276 2761.3576,64 2760.875,64 2758.9698,64 2760.1971,60.944184 2764.0312,56.09375 2768.9228,49.905471 2770.9738,49.674833 2777.375,54.5625 2782.3162,58.335382 2782.3805,58.31404 2788.0938,53.875 2790.9322,51.669578 2791.9126,49.987727 2792.875,45.6875 2793.9626,40.827379 2793.8574,39.610196 2791.9375,34.0625 2789.8915,28.150531 2789.8872,27.788755 2791.5625,25.9375 2792.8021,24.567856 2793.9274,23.991833 2795.1562,24.25 z M 2791.9688,57.40625 C 2791.0957,57.641466 2790.3898,58.212341 2789.4375,59.1875 2786.7911,61.897375 2786.3187,64.094755 2787.3438,69.28125 2787.9012,72.101909 2789.04,73.652376 2791.8125,75.46875 2793.8484,76.802579 2796.0145,77.905141 2796.625,77.9375 2797.2356,77.969859 2799.4294,76.390343 2801.5,74.4375 2804.9759,71.159271 2805.2074,70.563267 2804.6875,66.6875 2804.0156,61.67766 2800.858,58.57939 2795.4375,57.5625 2793.8652,57.267521 2792.8418,57.171034 2791.9688,57.40625 z M 2793.9375,60.03125 C 2795.6756,60.042111 2797.6661,60.718271 2799.375,62.0625 2802.4442,64.476679 2802.9082,69.25381 2800.4375,72.78125 2798.5375,75.493862 2797.3951,75.545112 2793.375,73.09375 2789.8419,70.939307 2788.1707,65.418169 2790,62 2790.7113,60.670894 2792.1994,60.020389 2793.9375,60.03125 z"/>
</svg>
