<svg xmlns="http://www.w3.org/2000/svg"
     width="64.0" height="55.9"
     viewBox="2372.3334 15.2409 100.9861 88.1535">
  <path d="M 2425.2188 19.4375 C 2423.0072 19.240932 2419.7751 19.797245 2419.0625 20.75 C 2418.1783 21.932161 2408.2049 30 2407.625 30 C 2407.3344 30 2405.888 27.975 2404.4375 25.5 C 2401.0383 19.699631 2398.5213 19.580386 2393.625 25 C 2390.5013 28.457544 2390 29.68386 2390 33.9375 C 2390 38.066488 2390.4158 39.199741 2392.625 40.9375 C 2394.2859 42.243976 2396.7469 43 2399.25 43 L 2403.2188 43 L 2402.8438 50.90625 C 2402.646 55.262508 2402.1768 59.167061 2401.7812 59.5625 C 2401.3858 59.957939 2399.5837 59.200375 2397.7812 57.875 C 2391.7645 53.450741 2389.2654 52.514248 2387.4375 54.03125 C 2384.6961 56.306389 2380.1643 63.525275 2378.5625 68.125 C 2376.3334 74.525812 2376.3557 97.547435 2378.5938 98.40625 C 2381.1689 99.394401 2381.6873 98.428161 2382.375 91.28125 C 2383.0346 84.427231 2384.1526 80.391729 2387.875 71.75 C 2390.751 65.073473 2392.7597 65.438637 2397 73.375 L 2400.4062 79.71875 L 2397.75 82.90625 C 2393.3014 88.193153 2392.8452 97 2397.0312 97 C 2398.1344 97 2399.6114 95.749618 2400.5 94.03125 C 2403.7816 87.685343 2408.6306 88.334807 2412.9688 95.6875 C 2414.3358 98.004691 2415.5473 99.00256 2416.5312 98.625 C 2416.8261 98.511842 2417.4137 98.642205 2417.9688 98.75 L 2417.0312 86.46875 C 2414.9407 83.66055 2413.1696 80.423607 2413.0938 78.6875 C 2412.9955 76.43716 2415.3587 71.777121 2417.5 70 C 2418.899 68.838985 2419.5002 69.106801 2422 71.84375 C 2425.3978 75.563832 2428.4105 75.850944 2433.9375 73.03125 C 2438.4458 70.731308 2441.8083 66.685845 2449.875 53.875 C 2454.9092 45.880025 2456.1229 44.532496 2458.1562 44.78125 C 2459.7223 44.972839 2461.47 44.114275 2463.2188 42.28125 C 2469.3195 35.886709 2468.4421 29.215171 2462.0312 33.21875 C 2460.9638 33.88543 2459.805 34.14878 2459.4688 33.8125 C 2458.5251 32.868749 2458.5258 25.738207 2459.4688 23.625 C 2460.7661 20.717863 2457.7479 22.091293 2456.3125 25.0625 C 2455.1651 27.437567 2455.8985 35.242209 2457.4062 36.75 C 2457.7722 37.115855 2459.4023 36.896132 2461.0312 36.28125 C 2463.6145 35.306172 2464 35.404064 2464 36.9375 C 2464 39.579545 2460.7951 41.963129 2457.5625 41.71875 C 2454.9368 41.520244 2454.1723 42.324092 2448.5938 51.4375 C 2441.3572 63.259771 2432.3821 73 2428.7188 73 C 2427.0534 73 2425.3512 71.845102 2423.5625 69.5 C 2420.0179 64.852759 2417.6389 65.004294 2414.4062 70.125 C 2409.5843 77.763447 2409.4127 79.436868 2412.9062 84.1875 C 2415.0853 87.150395 2416 89.509414 2416 92.1875 C 2416 96.374338 2414.509 97.283599 2413.4375 93.75 C 2412.3773 90.253967 2408.9093 87 2406.2188 87 C 2404.682 87 2402.5061 88.360802 2400.375 90.6875 L 2397 94.40625 L 2397 91.21875 C 2397 89.132907 2398.0202 86.911165 2400 84.65625 C 2401.65 82.777004 2403 80.796455 2403 80.25 C 2403 79.703545 2401.9255 76.830937 2400.5938 73.875 C 2397.8511 67.787304 2393.5996 62.836525 2391.75 63.5625 C 2387.8645 65.087607 2381 82.882974 2381 91.4375 C 2381 95.422766 2380.7508 96.161633 2379.75 95.15625 C 2377.9524 93.350349 2378.4827 74.665621 2380.5 68.9375 C 2381.3625 66.488507 2383.2602 62.8125 2384.6875 60.75 C 2387.9533 56.030683 2391.2419 55.8214 2396.5 60 C 2398.5763 61.65 2401.0776 63 2402.0625 63 C 2404.6526 63 2406.4568 54.131869 2405.5625 45.78125 L 2404.875 39.28125 L 2399.2812 39.375 C 2394.0163 39.480369 2393.6487 39.33129 2392.75 36.6875 C 2391.3874 32.678869 2392.6717 27.26045 2395.4062 25.46875 C 2398.5037 23.439293 2399.9778 24.179385 2403.3438 29.5 C 2404.9055 31.968389 2406.5876 34 2407.0938 34 C 2407.5998 34 2410.3691 31.766717 2413.25 29.03125 C 2421.2861 21.400813 2427 21.40196 2427 29.03125 C 2427 32.62277 2426.1717 33.177376 2423.4688 31.40625 C 2421.4438 30.079468 2420.7752 30.071847 2417.6562 31.375 C 2412.8288 33.392026 2411.0987 37.256714 2410.4062 47.6875 C 2409.6969 58.374093 2410.8933 62.582648 2414.2812 61.53125 C 2420.7625 59.519925 2421.1593 59.589334 2424.4688 63.53125 C 2427.5949 67.254871 2427.7659 67.350302 2430.875 66.0625 C 2436.9012 63.566363 2443.7529 53.419969 2445.9375 43.78125 C 2446.7531 40.182469 2446.5754 38.813049 2444.8438 35.21875 C 2442.9196 31.224946 2442.8806 30.628294 2444.25 26.46875 C 2445.4481 22.829436 2445.4887 22 2444.4062 22 C 2440.9873 22 2439.7061 32.707695 2442.625 36.875 C 2444.673 39.798942 2443.9012 45.237393 2440.4062 52.625 C 2437.99 57.73256 2431.8869 64 2429.3438 64 C 2428.684 64 2426.8027 62.372448 2425.1562 60.375 C 2422.0703 56.631206 2421.6785 56.542096 2415.0938 58.5625 L 2412.6875 59.3125 L 2413.25 49.28125 C 2413.8274 38.801259 2414.7568 35.733507 2417.9375 34.03125 C 2420.4457 32.688902 2422.474 33.556115 2423.8438 36.5625 C 2425.2901 39.7369 2427.7874 39.681407 2428.5938 36.46875 C 2429.6671 32.192391 2428.5416 20.968076 2426.9375 19.90625 C 2426.5591 19.655778 2425.9559 19.503023 2425.2188 19.4375 z M 2451.5312 21.21875 C 2451.1275 21.485685 2450.5762 22.048669 2449.9062 22.875 C 2448.019 25.202905 2447.3394 31.1374 2448.5938 34.40625 C 2448.9275 35.276233 2449.8275 36 2450.5938 36 C 2452.267 36 2452.308 35.757986 2450.9375 32.75 C 2450.1356 30.990092 2450.2304 29.322125 2451.375 26 C 2452.7175 22.103305 2452.7426 20.417945 2451.5312 21.21875 z "/>
</svg>
