<svg xmlns="http://www.w3.org/2000/svg"
     width="35.7" height="64.0"
     viewBox="5416.6486 54.6220 32.3514 57.9717">
  <path d="M 5443.7812 98.15625 C 5442.8991 97.268962 5441.7298 95.56721 5440.5625 93.125 C 5438.0147 87.794235 5437.7957 86.617315 5438.4375 80.625 C 5438.9358 75.972065 5439.5815 74 5440.5625 74 C 5442.327 74 5445 68.916208 5445 65.5625 C 5445 62.3949 5442.1289 62.095125 5439.5 65 C 5436.8855 67.88903 5435 67.523896 5435 64.125 C 5435 60.236989 5432.8365 58.622048 5428.6562 59.40625 C 5424.305 60.222567 5422.2508 62.570167 5421.4375 67.65625 C 5420.6486 72.589981 5421.9742 75.401957 5426.0312 77.5 C 5428.6557 78.857126 5429 79.566074 5429 83.53125 C 5429 85.999589 5428.4592 88.87061 5427.8125 89.90625 C 5426.8331 91.474523 5427.0714 92.291879 5429.2188 94.84375 C 5430.6367 96.528928 5432.5504 99.876819 5433.4688 102.28125 C 5434.5992 105.24128 5435.9991 107.00007 5437.8125 107.71875 C 5439.1634 108.25412 5440.4392 108.49054 5441.6875 108.59375 L 5442.2188 105.84375 C 5438.9523 105.48189 5437.2105 103.693 5434 97.53125 C 5431.4831 92.70086 5431.0108 90.86177 5431.5312 87.78125 C 5431.8839 85.693084 5431.8719 82.201728 5431.5 80 C 5430.9669 76.844642 5430.3021 75.86651 5428.3438 75.375 C 5423.2605 74.099182 5422.7104 63.837265 5427.625 61.96875 C 5431.5305 60.483889 5431.8594 60.714901 5432.1875 65.25 C 5432.4337 68.65281 5432.917 69.54584 5434.5625 69.78125 C 5435.6928 69.942961 5437.4513 69.155461 5438.4688 68.03125 C 5440.4704 65.819496 5443 65.321533 5443 67.125 C 5443 67.739892 5441.65 69.777004 5440 71.65625 C 5438.35 73.535496 5437 75.713359 5437 76.5 C 5437 77.286641 5436.3107 79.957268 5435.4688 82.4375 C 5433.985 86.807641 5434.0257 87.060001 5436.4062 90.71875 C 5437.7574 92.795239 5439.3566 96.4125 5439.9688 98.75 C 5440.581 101.0875 5441.3126 103 5441.5938 103 C 5441.9327 103 5442.417 102.77718 5442.875 102.59375 L 5443.7812 98.15625 z "/>
</svg>
