<svg xmlns="http://www.w3.org/2000/svg"
     width="41.6" height="64.0"
     viewBox="5473.5897 59.5942 35.7160 54.9892">
  <path d="M 5495.2222,105.03988 C 5500.0164,101.2687 5503.0111,81.670432 5499.8888,74.5 5498.6638,71.686909 5498.5472,72.091878 5498.0168,81 5497.5778,88.372592 5496.8532,91.787642 5494.7809,96.25 5492.0338,102.16538 5490.3147,103.1718 5487.5979,100.455 5484.8476,97.704733 5483.5815,90.84217 5483.7493,79.594055 5483.8675,71.666837 5483.6116,68.988352 5482.8126,69.787381 5481.7443,70.855724 5479.9864,85.707353 5480.5496,88.906512 5483.4517,105.39015 5488.1747,110.58341 5495.2222,105.03988 z M 5483.2628,106.10892 C 5479.116,101.96217 5477.5897,94.601673 5478.3779,82.552069 5478.7272,77.21278 5479.4704,71.989623 5480.0294,70.945054 5480.9724,69.183067 5484.0105,67 5485.5196,67 5485.8777,67 5485.8877,70.2625 5485.5418,74.25 5484.8202,82.569463 5486.8974,96.326015 5489.2271,98.655655 5490.5418,99.970392 5490.983,99.585948 5493.0538,95.320854 5494.9941,91.324585 5495.4643,88.490215 5495.8026,78.75 5496.2674,65.365154 5497.6059,63.594193 5501.1691,71.649442 5505.3057,81.00076 5503.3076,98.915637 5497.3368,106.01162 5495.2572,108.48302 5494.0724,109 5490.488,109 5487.0419,109 5485.5615,108.40764 5483.2628,106.10892 z"/>
</svg>
