<svg xmlns="http://www.w3.org/2000/svg"
     width="33.3" height="64.0"
     viewBox="5019.5000 22.3405 45.5692 87.6595">
  <path d="M 5026.7188 90.0625 L 5025.5938 94.28125 C 5026.1946 93.838115 5026.9659 94.122267 5028.875 95.25 C 5030.4956 96.207324 5032.6776 97 5033.75 97 C 5036.8733 97 5040.5424 92.79682 5042.875 86.5625 C 5046.2246 77.609965 5046.499 71.104133 5044.0625 57.5625 C 5041.5325 43.501732 5041.157 33.727195 5043.0312 31.46875 C 5043.8345 30.500925 5045.5076 30.003163 5047.375 30.1875 C 5051.4333 30.588114 5051.9351 32.969035 5052.3438 54.5 C 5052.6244 69.27629 5052.9585 72.284839 5054.9375 77.5 C 5059.108 88.490123 5058.8739 89.537536 5053 86.5 C 5050.1807 85.0421 5050.0396 85.0907 5047.6875 88.25 C 5046.357 90.037248 5044.9421 92.80633 5044.5625 94.40625 C 5044.1828 96.006169 5042.3687 98.818674 5040.5312 100.65625 C 5036.6333 104.55423 5034.1373 104.8204 5028.25 101.90625 C 5026.1742 100.87877 5024.9157 99.878784 5024.375 98.8125 L 5023.5 102 L 5023.5938 102.625 C 5024.3019 102.63856 5025.2251 103.07793 5027.0938 104.03125 C 5029.2065 105.10915 5032.6788 106 5034.8438 106 C 5038.0569 106 5039.3482 105.39183 5041.75 102.65625 C 5043.3683 100.81315 5045.7223 97.100646 5047 94.40625 C 5048.2777 91.711855 5049.4731 89.320184 5049.6562 89.09375 C 5049.8396 88.867316 5051.812 89.267582 5054.0312 90 C 5056.7387 90.893565 5058.3871 91.019161 5059.0625 90.34375 C 5061.0685 88.337796 5061.0692 83.898581 5059.0625 80.1875 C 5056.1505 74.801883 5055 66.438127 5055 50.6875 C 5055 35.280048 5053.8962 29.819795 5050.4375 27.96875 C 5047.3952 26.340534 5043.4161 27.448898 5041.4375 30.46875 C 5039.394 33.587426 5039.4488 42.734377 5041.5938 53.5 C 5042.4704 57.9 5043.4174 64.875 5043.6875 69 C 5044.1124 75.490505 5043.7749 77.545523 5041.3125 84.3125 C 5039.2935 89.860777 5037.7232 92.597305 5035.875 93.71875 C 5033.3892 95.227045 5033.1186 95.168959 5029.6562 92.40625 L 5026.7188 90.0625 z "/>
</svg>
