<svg xmlns="http://www.w3.org/2000/svg"
     width="37.1" height="64.0"
     viewBox="4976.7967 19.0133 53.9221 93.1217">
  <path d="M 5026.7188,90.0625 5026,89.5 5026.0625,79 C 5026.1056,67.582836 5023.5602,52.926794 5019.7188,42.5 5015.4611,30.943771 5004.417,23.013273 4996.8125,26.03125 4992.0121,27.936346 4991.1621,28.770647 4988.5,34.40625 4984.3863,43.114972 4982.7716,50.829862 4982.4688,63 4982.3114,69.325 4981.8317,79.481485 4981.4375,85.5625 4980.7967,95.448563 4980.9649,97.112888 4982.7812,101.21875 4984.435,104.95758 4985.409,105.94156 4988.0938,106.53125 4990.8884,107.14507 4991.7425,106.84477 4993.625,104.65625 4994.8466,103.23605 4996.5895,99.506847 4997.5,96.375 4999.4787,89.568377 4998.9645,84.692891 4995.0938,72.65625 4992.6855,65.167421 4992.4824,63.321435 4993.125,56.59375 4994.2165,45.166423 4998.501,38.024004 5002.75,40.5625 5003.7125,41.137535 5005.85,44.290349 5007.5,47.5625 5010.7811,54.069302 5010.8859,55.508091 5010.0312,86 5009.6659,99.037921 5010.096,101.15557 5014.25,105.71875 5016.4495,108.13494 5018.0869,107.75835 5021.375,104.125 5022.3258,103.07441 5022.8486,102.61073 5023.5938,102.625 L 5023.5,102 5024.375,98.8125 C 5023.8112,97.700607 5024.0248,96.493101 5024.9688,95 5025.1751,94.67359 5025.3609,94.438125 5025.5625,94.28125 5025.5708,94.274775 5025.5854,94.287432 5025.5938,94.28125 L 5026.7188,90.0625 z M 5001.5312,28.3125 C 5007.2242,29.236342 5012.006,33.72064 5015.5625,41.5 5022.0356,55.65888 5025.0096,82.83708 5021.5312,95.90625 5019.566,103.29076 5018.5961,104.03362 5015.2812,100.71875 L 5012.5625,98.03125 5012.9062,84.75 C 5013.692,52.72607 5013.7281,53.151962 5010.25,45.9375 5007.1084,39.421036 5004.3468,37 5000.0312,37 4995.9872,37 4991.414,47.328914 4990.4062,58.78125 4989.909,64.434015 4990.216,66.540579 4992.2812,72 4994.4169,77.645516 4996.1259,85.004999 4996.4375,90 4996.4889,90.825 4995.6935,94.060346 4994.6875,97.1875 4992.5815,103.73355 4991.3286,105.0781 4988.4062,103.96875 4984.2647,102.39647 4982.3176,92.786723 4984.0625,82.46875 4984.7097,78.641284 4985.3558,69.875 4985.4688,63 4985.8374,40.554812 4992.1926,26.797058 5001.5312,28.3125 z M 5017.5,68.5 C 5016.5065,68.5 5015.7149,91.726845 5016.6562,93.25 5018.007,95.435613 5018.8141,93.214153 5019.1562,86.4375 5019.6272,77.113669 5018.835,68.5 5017.5,68.5 z M 4987.3125,78 C 4986.2563,78 4986.0135,78.540012 4986.5,79.75 4986.887,80.7125 4987.5652,84.444024 4988.0312,88.03125 4988.4972,91.618475 4989.1317,95.330975 4989.4375,96.28125 4989.7433,97.231524 4990.2383,98.739281 4990.5312,99.65625 4990.9221,100.8793 4991.3721,101.0342 4992.1875,100.21875 4992.9894,99.416921 4992.992,98.336324 4992.2188,96.3125 4991.6292,94.769401 4990.8669,91.25 4990.5312,88.5 4989.4819,79.902746 4988.9004,78 4987.3125,78 z"/>
</svg>
