<svg xmlns="http://www.w3.org/2000/svg"
     width="57.5" height="64.0"
     viewBox="4037.7507 53.4062 42.9189 47.7582">
  <path d="M 4054.875,57.40625 4048.9375,58.90625 4047.1562,62.78125 C 4041.7507,74.654578 4041.7614,88.187116 4047.1562,94.6875 4049.212,97.164468 4053.2178,95.880556 4058.2812,91.15625 4060.263,89.307214 4061.4651,88.839971 4062.4062,89.53125 4067.668,93.395671 4069.1655,94.141812 4070.5938,93.59375 4071.7444,93.152209 4072.0193,92.338324 4071.5312,90.75 4071.1532,89.519183 4070.6084,86.43203 4070.3125,83.90625 4069.8665,80.098882 4070.2151,78.595952 4072.4062,75.125 4075.6727,69.950692 4076.6696,65.511801 4075,63.5 4071.9138,59.781412 4068.1886,62.677499 4062.7812,73 4058.825,80.552323 4055.7356,82.073222 4053.9375,77.34375 4052.8495,74.482062 4053.4925,66.522767 4055.1562,62.125 4055.7174,60.641637 4055.6624,59.291672 4055.0312,58.53125 4054.7567,58.200376 4054.8067,57.80819 4054.875,57.40625 z M 4052.7188,60.5 C 4052.8472,60.683112 4052.7672,61.088809 4052.5,61.75 4052.1085,62.718738 4051.3221,66.2 4050.75,69.5 4049.8947,74.434052 4050.0054,76.166217 4051.3125,79.25 4052.634,82.367852 4053.3776,83 4055.8125,83 4059.5164,83 4061.3714,80.893269 4065.8438,71.5 4068.3416,66.253605 4071.7818,63.067433 4072.9375,64.9375 4074.0689,66.768063 4072.7685,70.888642 4069.4688,75.875 4067.0804,79.483931 4066.7981,80.68786 4067.3125,85.03125 4067.8675,89.716893 4067.7783,89.951679 4066,89 4064.9559,88.441188 4063.8381,87.547042 4063.5,87 4062.4132,85.241511 4059.4141,85.930296 4057,88.5 4055.7083,89.875 4053.8166,91 4052.8125,91 4051.8084,91 4051,91.45 4051,92 4051,94.211905 4049.1421,92.773062 4047.5,89.3125 4044.0971,82.141517 4046.9721,62.371951 4051.6875,60.5625 4052.2634,60.341511 4052.5903,60.316888 4052.7188,60.5 z"/>
</svg>
