<svg xmlns="http://www.w3.org/2000/svg"
     width="33.3" height="64.0"
     viewBox="4421.2188 20.0000 43.3985 83.4845">
  <path d="M 4425.4375 89.625 L 4425.375 92.25 C 4426.6273 92.270339 4427.7946 91.351293 4429.8438 89.5 C 4431.9939 87.557441 4434.2324 84.756561 4434.8125 83.25 C 4436.4538 78.98699 4438 64.702204 4438 53.71875 L 4438 43.75 L 4433.9375 44.28125 C 4431.1261 44.658345 4429.9751 44.461898 4430.1875 43.65625 C 4430.8028 41.32238 4440.529 27.029501 4441.5 27.03125 C 4442.5064 27.033063 4448.2952 35.641139 4451.4375 41.8125 L 4453.125 45.15625 L 4448.5625 44.46875 L 4444 43.78125 L 4443.9688 47.125 C 4443.9516 48.974949 4443.6801 53.425 4443.375 57 C 4443.0699 60.575 4442.8434 64.4 4442.875 65.5 C 4443.0451 71.430999 4439.92 85.464275 4437.5 89.59375 C 4434.1435 95.321114 4431.6318 96.441753 4425.3125 95.09375 L 4425.2188 98.4375 C 4429.3696 99.48446 4432.8068 98.805732 4435.1562 96.25 C 4439.1323 91.924568 4441.9362 86.661335 4443.0625 81.375 C 4444.3688 75.243255 4446.0281 59.194297 4446.0938 52.125 L 4446.1562 46.75 L 4450.5625 47.34375 C 4454.9535 47.945603 4455.4904 47.602869 4455.0938 44.34375 C 4455.0163 43.708243 4456.0815 41.046409 4457.4688 38.4375 C 4459.9394 33.790972 4460.6173 29.749701 4459.4062 26.59375 C 4458.4811 24.182835 4457.523 24.63785 4454.5 29 C 4452.9754 31.2 4451.1183 33 4450.375 33 C 4449.6317 33 4447.9221 31.247517 4446.5625 29.09375 C 4445.2029 26.939983 4443.656 24.890714 4443.125 24.5625 C 4442.5939 24.234286 4440.6011 25.59859 4438.7188 27.59375 L 4435.3125 31.21875 L 4433.0625 27.625 C 4431.8337 25.636821 4430.4697 24 4430.0312 24 C 4429.5927 24 4428.6657 25.379906 4427.9688 27.0625 C 4426.9611 29.495198 4426.9429 31.227181 4427.9062 35.53125 C 4428.6822 38.998329 4428.7862 41.555179 4428.1875 42.625 C 4427.6734 43.543582 4427.4669 45.068243 4427.7188 46.03125 C 4428.0914 47.45593 4428.9321 47.69084 4432.2188 47.25 L 4436.25 46.6875 L 4435.7188 61.59375 C 4435.1401 77.936876 4434.2088 82.412554 4430.375 86.96875 C 4428.2556 89.487457 4427.0611 90.268053 4425.4375 89.625 z M 4430.2812 28.21875 C 4430.5716 28.323512 4430.9192 28.901008 4431.5312 30 C 4432.2969 31.375 4432.9492 33.2875 4432.9688 34.25 C 4432.9882 35.2125 4432.3457 36 4431.5312 36 C 4429.7895 36 4428.4927 31.764595 4429.4688 29.25 C 4429.7677 28.479723 4429.9909 28.113988 4430.2812 28.21875 z M 4456.7812 31.4375 C 4457.0172 31.67348 4456.6788 33.475649 4456.0312 35.4375 C 4454.7831 39.21973 4453.3261 39.997643 4452.3438 37.4375 C 4451.7812 35.971693 4455.8356 30.491881 4456.7812 31.4375 z "/>
</svg>
