<svg xmlns="http://www.w3.org/2000/svg"
     width="46.3" height="64.0"
     viewBox="301.1959 12.5875 63.1415 87.2995">
  <path d="M326.37558 92.25C328.39915 81.838443 329.18649 72.851707 328.83713 64.153684C328.61504 58.624153 328.16158 53.828244 327.82944 53.496109C327.49731 53.163973 325.71231 53.814793 323.86278 54.942375C318.00697 58.512423 311.19953 57.220316 308.51513 52.029266C306.07365 47.307961 305.1959 40.702316 306.16124 34.314842C307.37388 26.291119 308.67156 23.487889 312.53876 20.538232C317.71848 16.587468 320.13682 17.163166 327.08063 24.0C330.43226 27.3 333.63162 30.0 334.19032 30.0C334.74902 30.0 337.34475 28.0875 339.95861 25.75C344.68451 21.523761 349.94482 19.160602 353.20886 19.797409C354.14873 19.980775 355.90105 21.721866 357.1029 23.6665C359.73397 27.92366 360.33738 40.516218 358.15774 45.679838C356.6531 49.244357 352.23422 51.731958 347.26334 51.812822C345.48318 51.841781 343.59668 52.131232 343.07112 52.456046C341.17673 53.62684 340.7885 62.305879 342.05021 75.278639C343.70019 92.243437 343.71857 93.229087 342.39356 93.687861C341.72289 93.920078 341.0368 91.989314 340.65152 88.785478C340.30194 85.878465 339.56636 79.9 339.01691 75.5C337.81536 65.877994 338.71091 52.484816 340.66424 50.863697C341.42172 50.235042 343.9222 49.551281 346.22086 49.344229C348.51952 49.137177 351.41286 48.304277 352.65051 47.493341C358.94686 43.367814 357.9154 24.020807 351.31073 22.363139C348.13783 21.566793 345.54147 23.007408 339.21278 29.075808C336.38831 31.784114 333.74107 34.0 333.33003 34.0C332.91898 34.0 329.63084 30.861031 326.02305 27.024513C319.97065 20.588399 319.23811 20.109287 316.54944 20.828347C311.41094 22.202593 309.54421 26.014733 309.1559 35.927026C308.86835 43.267157 309.15005 45.373804 310.86992 48.745018C313.47712 53.855561 317.77789 55.68334 322.02634 53.48638C323.5921 52.676694 325.15327 51.561023 325.4956 51.007112C325.83794 50.4532 326.95082 50.0 327.96867 50.0C330.68281 50.0 332.47869 61.727504 331.56698 73.497764C330.30012 89.853048 330.26188 89.294066 332.6604 89.482675C335.22786 89.68457 340.0 92.636678 340.0 94.023053C340.0 95.592395 338.01371 95.155948 335.24528 92.978298L332.6751 90.956596L330.5231 92.978298C327.42697 95.88696 325.72673 95.5884 326.37558 92.25Z M318.5 47.240794C313.99643 46.318658 312.65302 40.159531 315.47981 33.394085C316.72609 30.411322 317.31788 29.955712 319.22981 30.507017C328.47651 33.173304 327.78011 49.140959 318.5 47.240794Z M321.61522 44.234687C324.64868 42.236292 323.83472 34.641277 320.44779 33.341592C318.08967 32.436695 316.88513 34.239601 316.82264 38.76759C316.7436 44.495149 318.3823 46.364482 321.61522 44.234687Z M342.08324 44.157335C339.03292 41.509768 338.81128 38.798038 341.24992 33.962058C343.88868 28.729213 347.20827 27.68209 350.73689 30.969503C352.47831 32.591878 352.81357 33.710194 352.32393 36.263204C350.96901 43.327816 345.75671 47.345768 342.08324 44.157335Z M348.40922 40.75C349.20966 39.5125 350.15953 37.299474 350.52006 35.832165C351.0437 33.701046 350.71817 32.919535 348.90197 31.947534C346.899 30.875581 346.35289 31.050993 344.31418 33.421132C341.76778 36.381505 341.47257 38.145968 343.03518 41.065741C344.41374 43.641592 346.62286 43.5118 348.40922 40.75Z"/>
</svg>
