<svg xmlns="http://www.w3.org/2000/svg"
     width="29.3" height="64.0"
     viewBox="3785.0000 15.9496 38.5947 84.4263">
  <path d="M 3789.1875 80.625 L 3789 81.5 L 3790.0625 89.75 C 3790.1354 88.494539 3790.8163 88.002629 3792.75 88 C 3796.7305 87.994589 3801.627 84.658434 3802.2188 81.5625 C 3802.7392 78.840552 3801.8513 70.191239 3800.125 61.5 C 3797.0231 45.882908 3800.7519 24 3806.5312 24 C 3808.1831 24 3808.981 29.881219 3807.75 33 C 3806.2687 36.753274 3806.3554 55.847171 3807.875 60.28125 C 3808.5902 62.367976 3810.7194 66.106966 3812.5938 68.5625 C 3816.6507 73.877372 3817.0988 76.579524 3813.75 75.53125 C 3808.796 73.980488 3807.7865 74.350034 3807.5 77.78125 C 3807.3498 79.580199 3805.9506 83.630199 3804.375 86.78125 C 3801.5616 92.408065 3801.4196 92.496545 3797 92.6875 C 3792.4157 92.885569 3790.7052 92.464916 3790.2188 90.96875 L 3790.875 96.15625 C 3791.5835 95.882528 3793.0219 95.734201 3794.6562 95.875 C 3800.4712 96.375983 3803.6741 94.369137 3806.4062 88.59375 C 3807.7512 85.750891 3809.1561 82.213481 3809.5312 80.71875 C 3810.2665 77.789487 3811.8474 77.255862 3813.875 79.25 C 3814.8947 80.252871 3815.5148 80.01905 3817.0625 78.125 C 3819.5947 75.025977 3819.5018 72.75812 3816.6875 69.3125 C 3810.5644 61.815779 3809.6364 59.087067 3809.5938 48.5 C 3809.5717 43 3809.7699 35.04303 3810.0312 30.8125 C 3810.5865 21.821035 3809.6258 19.949636 3805.4688 21.84375 C 3800.7907 23.975265 3797.7991 32.557032 3797.25 45.40625 C 3796.9545 52.321118 3797.2508 58.764974 3798.0312 62.5 C 3798.7208 65.8 3799.3463 71.642951 3799.4062 75.46875 C 3799.5082 81.964284 3799.3263 82.511429 3796.9062 83.875 C 3794.5703 85.191194 3794.0678 85.146287 3791.8438 83.46875 C 3791.1594 82.952539 3790.1937 81.904705 3789.1875 80.625 z "/>
</svg>
