<svg xmlns="http://www.w3.org/2000/svg"
     width="31.2" height="64.0"
     viewBox="5103.4117 48.5625 31.9008 65.4375">
  <path d="M 5128.125 57.875 L 5123.5312 56.28125 L 5123.8125 62.53125 C 5124.0466 67.704162 5123.5119 71.672966 5121.6875 77.90625 L 5119.2188 86.28125 L 5122.4375 89.5 C 5125.7004 92.762847 5128.5257 100.17623 5127.8125 103.625 C 5127.4972 105.14997 5126.9748 104.80671 5124.9688 101.78125 C 5122.2313 97.652789 5118.793 95.391835 5117 96.5 C 5116.352 96.900463 5115.009 99.146182 5114 101.5 C 5112.991 103.85382 5111.6196 106.10972 5110.9375 106.53125 C 5109.1509 107.63548 5110.5236 98.363447 5112.625 95.15625 C 5114.0608 92.964978 5114.0943 92.064203 5112.875 87.09375 C 5112.1198 84.015221 5111.5454 77.136549 5111.5938 71.8125 C 5111.669 63.548791 5112.0648 61.38428 5114.25 56.96875 L 5115.8438 53.65625 L 5112.625 52.5625 C 5112.4419 53.418525 5112.1354 54.387166 5111.5625 55.875 C 5108.8107 63.022331 5108.003 75.08475 5109.7188 83.375 C 5110.5156 87.224968 5110.9302 91.303775 5110.6562 92.4375 C 5110.3824 93.571226 5109.4916 96.900087 5108.6562 99.84375 C 5107.624 103.4807 5107.4117 105.9643 5108.0312 107.59375 C 5108.5326 108.91258 5109.3341 110 5109.8125 110 C 5111.1403 110 5113.5418 106.90277 5115.5 102.6875 C 5117.6361 98.08902 5119.531 98.17643 5122.7812 103 C 5124.9625 106.23719 5125.4451 106.45316 5131.3125 106.53125 L 5129.5312 94.625 C 5128.9512 94.224195 5128.5009 93.754509 5128.3125 93.21875 C 5127.9797 92.272639 5126.6004 90.012755 5125.25 88.1875 C 5122.5559 84.546225 5122.5998 80.533752 5125.4688 72.5 C 5126.2544 70.3 5126.9446 66.130119 5126.9688 63.25 C 5126.9965 59.943378 5127.1478 58.739076 5128.125 57.875 z "/>
</svg>
