<svg xmlns="http://www.w3.org/2000/svg"
     width="54.1" height="64.0"
     viewBox="3925.6896 18.6618 71.3845 84.4779">
  <path d="M 3942.7812,53.21875 C 3940.5163,52.822755 3938.3167,53.532875 3935.625,55.25 3929.6896,59.03635 3931.284,60.518553 3937.4062,56.90625 3941.6262,54.416481 3943.5352,54.894532 3947.9688,59.46875 L 3951.3125,62.90625 3947.6562,66.96875 C 3945.646,69.193772 3944,71.451584 3944,72 3944,74.051867 3945.864,72.878493 3949.375,68.59375 3953.7156,63.296626 3953.8884,61.205966 3950.25,57.8125 3947.3633,55.120078 3945.0462,53.614745 3942.7812,53.21875 z M 3943.2812,23.09375 C 3941.7511,23.171852 3940.4197,23.938452 3939.4375,25.4375 3937.259,28.762324 3937.9115,31.031716 3941.6562,33.21875 3944.4795,34.867605 3944.9368,34.906952 3946.3125,33.53125 3947.1549,32.688773 3948.75,32 3949.8438,32 3954.2542,32 3957.0281,49.001005 3952.75,49.8125 3951.7879,49.994993 3949.8246,49.202748 3948.375,48.0625 3944.5773,45.075248 3940.1676,45.439632 3935.1562,49.125 3929.8036,53.061349 3930.5629,54.222699 3936.0938,50.5625 3940.8011,47.44735 3942.8694,47.608581 3949.2812,51.65625 L 3953.375,54.25 3955.1875,52.03125 C 3957.8644,48.725456 3957.9873,38.31462 3955.4062,34.28125 3953.3766,31.10951 3953.6471,29.276593 3956.4062,27.46875 3958.4379,26.137496 3959.1768,26.087882 3960.9375,27.1875 3963.2639,28.640343 3964.458,31.430453 3963.4688,33.03125 3962.0855,35.269406 3961.0491,46.967678 3962,49.46875 3963.1423,52.473098 3967.2314,52.923985 3970.7812,50.4375 3975.0991,47.413196 3977.1748,48.828137 3981.75,58 3985.7868,66.092598 3985.9342,66.715684 3984.9062,71 3984.3124,73.475 3984.0222,78.3053 3984.2812,81.71875 3984.6661,86.790143 3985.3487,88.660571 3987.9688,91.96875 3989.7324,94.195416 3991.5831,95.75312 3992.0938,95.4375 3993.0741,94.83167 3992.9271,94.482714 3989.2812,89.09375 3987.198,86.01433 3986.9903,84.661782 3987.125,74.59375 3987.2852,62.626573 3986.073,57.697115 3981.3125,51.25 3977.5353,46.134475 3975.701,45.581577 3970.375,47.9375 3967.8468,49.055862 3965.3965,49.740475 3964.9062,49.4375 3963.6938,48.688101 3963.7659,43.160166 3965.0938,36.96875 L 3966.1875,31.84375 3970.125,32.53125 C 3977.8136,33.830234 3982.0321,27.542015 3975.8125,24.0625 3973.3088,22.66184 3972.908,22.758475 3969.4062,25.25 L 3965.6562,27.90625 3962.875,25.53125 C 3959.9353,23.057659 3956.9972,23.074338 3954.9062,25.59375 3953.3057,27.522259 3951.267,27.348673 3948.2812,25 3946.5515,23.639376 3944.8114,23.015648 3943.2812,23.09375 z M 3943,25.125 C 3943.5673,25.030542 3944.2603,25.273359 3945.375,25.78125 3948.4571,27.185588 3948.7737,29.517787 3946.0625,30.96875 3943.3055,32.444269 3942.1971,32.244997 3941.0625,30.125 3940.3536,28.800329 3940.4758,27.752715 3941.4375,26.4375 3942.0149,25.647862 3942.4327,25.219458 3943,25.125 z M 3973.875,26.1875 C 3974.4851,26.250307 3975.013,26.575445 3975.6562,27.21875 3977.0958,28.658384 3977.0761,28.89795 3975.375,29.71875 3973.1543,30.790208 3969,30.255491 3969,28.90625 3969,28.382712 3970.1359,27.448249 3971.5312,26.8125 3972.5644,26.341784 3973.2649,26.124693 3973.875,26.1875 z M 3970.2812,54.46875 C 3968.8514,54.552976 3967.5626,55.465518 3965.0625,57.84375 3959.4893,63.145364 3959.557,66.191387 3965.4688,72.0625 3967.9327,74.509503 3969.9578,77.09582 3969.9688,77.8125 3969.9798,78.529179 3968.875,80.757756 3967.5,82.78125 3966.125,84.804745 3965,87.074845 3965,87.8125 3965,88.555177 3964.2191,89.004403 3963.25,88.8125 3961.3403,88.434319 3961.0325,84.277353 3962.4688,78.28125 3963.1431,75.466349 3962.9418,74.919421 3960.875,74.03125 3959.571,73.470923 3957.7591,72.468734 3956.8438,71.8125 3955.4585,70.819339 3954.369,71.273046 3950.3438,74.5 3947.6841,76.632223 3945.323,78.514802 3945.0938,78.6875 3944.8647,78.860199 3944.9428,79.286632 3945.2812,79.625 3945.6195,79.963368 3947.6089,78.838368 3949.6875,77.125 3954.2299,73.380743 3954.9509,73.319808 3958.2812,76.40625 3960.6287,78.581828 3960.7877,79.103847 3959.8125,82.28125 3959.222,84.205308 3959.0248,86.917427 3959.375,88.3125 3960.1231,91.293103 3962.7792,94.24258 3964.0312,93.46875 3964.9451,92.904026 3973,77.973481 3973,76.84375 3973,76.488153 3970.975,74.057685 3968.5,71.4375 3963.3158,65.949162 3962.8515,63.054763 3966.5312,59.375 3969.2483,56.657893 3972.7596,56.49145 3974.125,59 3976.2571,62.917198 3978.9,69.341643 3979.4062,71.78125 3980.2051,75.630951 3977.6339,90.239066 3975.6562,93.0625 3974.7417,94.368175 3974.0165,96.128629 3974.0312,96.96875 3974.0694,99.139713 3979.9018,91.991351 3980.125,89.5 3980.2236,88.4 3980.371,87.05 3980.4688,86.5 3980.5664,85.95 3981.0147,82.090098 3981.4375,77.9375 3982.1441,70.998612 3981.982,69.950828 3979.5938,65 3978.1644,62.037163 3977,59.092221 3977,58.4375 3977,56.830166 3975.0743,55.403482 3971.8125,54.625 3971.2567,54.492337 3970.7579,54.440675 3970.2812,54.46875 z M 3984.7812,94.3125 C 3984.1322,94.183144 3983.4251,94.174236 3982.75,94.34375 3981.5053,94.656281 3979.6,95.606106 3978.5,96.4375 3976.1012,98.25054 3976.9771,98.420427 3980.4375,96.84375 3982.3931,95.952749 3983.2788,95.986562 3984.5,97 3985.548,97.869761 3986.427,97.979166 3987.0938,97.3125 3988.2201,96.186146 3986.7285,94.700569 3984.7812,94.3125 z"/>
</svg>
