<svg xmlns="http://www.w3.org/2000/svg"
     width="24.6" height="64.0"
     viewBox="1491.2177 18.7491 32.7198 85.2509">
  <path d="M 1519.3438 79.4375 C 1518.8826 79.737655 1518.5132 80.07825 1517.9375 80.34375 C 1515.736 81.35906 1513.3508 81.966042 1512.625 81.6875 C 1510.6108 80.914578 1508.9494 68.066298 1508.9688 53.5 C 1508.9905 37.1098 1508.0646 26.494954 1506.4688 24.3125 C 1505.3316 22.75754 1505.039 22.749112 1502.8438 24.1875 C 1499.3927 26.448709 1497.0488 36.63523 1496.125 53.46875 C 1495.2177 70.004569 1496.645 83.771886 1499.875 89.96875 C 1501.0515 92.225784 1502 94.560244 1502 95.1875 C 1502 96.973128 1505.1432 100 1507 100 C 1507.9236 100 1511.2344 98.2 1514.375 96 C 1516.9418 94.201965 1518.6197 93.252359 1519.9375 92.71875 L 1519.8125 88.96875 C 1518.9616 89.694718 1518.2594 90.298902 1515.9375 92.03125 C 1513.019 94.208721 1509.8352 96 1508.8438 96 C 1507.6942 96 1506.1744 94.279538 1504.6562 91.25 C 1500.9132 83.780625 1500.1379 80.384775 1499 66.5 C 1498.0566 54.989026 1498.1671 51.962852 1499.9688 40.125 C 1501.0877 32.771961 1502 26.584461 1502 26.375 C 1502 26.165539 1502.6266 26 1503.375 26 C 1505.2817 26 1505.9896 33.288901 1506 52.90625 C 1506.0086 69.083086 1507.2928 81.302119 1509.25 83.75 C 1510.587 85.422295 1513.876 85.324882 1517.375 83.5 C 1518.2663 83.035136 1518.9434 82.748023 1519.5938 82.5 L 1519.5 79.5 L 1519.3438 79.4375 z "/>
</svg>
