<svg xmlns="http://www.w3.org/2000/svg"
     width="64.0" height="58.7"
     viewBox="4112.3405 17.6214 93.0516 85.3627">
  <path d="M 4193.7812,49.1875 4190.6562,51.0625 C 4188.9238,52.118882 4186.6624,52.997944 4185.6562,53 4184.1194,53.00314 4183.943,52.490811 4184.5312,49.8125 4184.9165,48.058983 4186.2802,44.796483 4187.5312,42.5625 4189.543,38.970229 4190.28,38.459257 4193.9062,38.1875 4198.3339,37.855669 4200.5059,35.516215 4199.3125,32.40625 4198.8589,31.224122 4199.0472,30.91402 4199.8438,31.40625 4201.3921,32.363219 4201.3665,29.741526 4199.8125,28.1875 4197.8966,26.271552 4194.3917,26.798834 4191.2188,29.46875 L 4188.2812,31.9375 4186.5,27.96875 C 4183.722,21.808284 4182.9092,21.621424 4178.1875,25.9375 4173.7397,30.003181 4173.0899,32.467749 4175.0625,37.65625 4175.661,39.230372 4175.8385,42.530975 4175.4688,45.21875 4174.7344,50.557409 4172.7009,51.53367 4169.5312,48.03125 4166.725,44.930392 4164.3143,44.648958 4160.9688,47.03125 4159.2997,48.219785 4157.3122,48.943971 4156.5625,48.65625 4154.6831,47.935087 4154.1172,38.650563 4155.5938,32.84375 4156.734,28.360059 4156.6794,28.071007 4154.0938,25.59375 4150.8503,22.486232 4149.6511,22.377849 4145.9688,25 L 4143.1562,27.03125 4139.5625,24.90625 C 4135.498,22.508157 4133.8341,22.812762 4131.5,26.375 4130.1892,28.375546 4130.0903,29.304255 4131.0312,31.0625 4132.0018,32.876049 4132.8137,33.150178 4135.8438,32.71875 4137.8521,32.432797 4140.2159,31.918007 4141.0938,31.5625 4142.3004,31.073718 4143.0645,31.937525 4144.25,35.1875 4146.0039,39.995731 4147.1058,49.828515 4145.9688,50.53125 4145.5625,50.782296 4144.1772,50.135505 4142.875,49.125 4138.2672,45.549189 4136.3071,44.933488 4133.3125,46.0625 4128.9932,47.690946 4124.0864,52.958088 4123.375,56.75 4122.453,61.664809 4124.0836,62.730755 4128.5,60.125 4133.6943,57.060309 4136.6022,57.332179 4138.5312,61.0625 4140.4033,64.682624 4141.5775,76.193747 4140.5938,81.4375 4139.2113,88.806426 4132.9357,91.279512 4127.7812,86.5 4125.0858,84.000664 4123,83.256626 4123,84.8125 4123,86.12299 4127.2789,89.786204 4129.9688,90.78125 4133.1644,91.963415 4138.7743,90.677502 4140.5625,88.34375 4146.1093,81.104764 4144.287,59.689716 4137.8125,56.0625 4135.33,54.671686 4134.7545,54.713378 4130.5625,56.75 L 4126,58.96875 4126,56.1875 C 4126,54.286976 4126.8827,52.736824 4128.75,51.375 4133.4211,47.968326 4134.634,47.951691 4140.9688,51.21875 4144.2937,52.9336 4147.3165,53.996083 4147.7188,53.59375 4149.3032,52.009374 4147.0249,34.196616 4144.875,31.40625 4144.3652,30.744536 4145.0215,29.385239 4146.5625,27.9375 4148.5699,26.051662 4149.4298,25.792748 4150.7812,26.65625 4152.2284,27.580812 4152.4583,29.105491 4152.1562,36.75 4151.5691,51.612559 4153.2494,54.744655 4159.2812,50 4162.6962,47.313758 4164.0689,47.460129 4168.5625,51.03125 4172.9511,54.518804 4174.9365,54.522755 4176.7188,51 4178.2449,47.983661 4178.3805,39.150644 4176.9688,35.4375 4175.582,31.790136 4176.5538,29.283177 4180.0625,27.46875 4182.699,26.105353 4183,26.090872 4183,27.5 4183,28.361035 4183.8798,30.834176 4184.9688,32.96875 L 4186.9688,36.84375 4184.5625,42.25 C 4183.246,45.226946 4181.8349,49.849667 4181.4375,52.5 4180.6238,57.926045 4180.306,57.827565 4189.0625,54.46875 L 4193.0938,52.90625 4193.7812,49.1875 z M 4133.8125,26.125 C 4135.0646,25.683663 4136.8674,26.171315 4138.4375,27.90625 4140.094,29.736673 4140.079,29.877255 4138.1562,30.90625 4135.1314,32.525123 4133.205,32.221013 4132.5,30 4131.8468,27.941879 4132.5604,26.566337 4133.8125,26.125 z M 4195.5938,30 C 4197.3445,30 4198.1431,31.485856 4197.4062,33.40625 4196.7996,34.987177 4192.9343,35.621719 4191.6562,34.34375 4190.7835,33.471082 4193.929,30 4195.5938,30 z M 4163.5,53 C 4161.4696,53 4155.1431,60.473081 4153.0938,65.28125 4151.9671,67.924272 4150.9455,72.757991 4150.8125,76.125 4150.5769,82.091091 4150.653,82.272121 4154.75,86.09375 4157.0468,88.236177 4159.2119,90 4159.5625,90 4159.9132,90 4161.756,89.27672 4163.6562,88.375 4169.0653,85.8082 4172.3482,78.498257 4172.4375,68.8125 4172.5081,61.162354 4172.4917,61.091826 4168.5625,57.0625 4166.3883,54.832988 4164.1018,53 4163.5,53 z M 4192.0625,58.5625 C 4189.7457,57.900259 4189.1047,58.278535 4186.6875,61.09375 4185.0851,62.959989 4182.6583,66.904862 4181.2812,69.84375 4178.0771,76.681721 4178.3743,84.640587 4182,88.5 4183.3954,89.985351 4184.978,90.705233 4186.6562,90.8125 L 4186.8125,88.625 C 4185.454,88.712205 4184.8497,87.948278 4183.5625,85.09375 4181.0568,79.537104 4181.812,72.643569 4185.6562,66.375 4187.8566,62.787212 4189.7288,61.326347 4191.5312,61.46875 L 4192.0625,58.5625 z M 4186.375,94.59375 C 4184.2273,94.168453 4181.9188,93.377474 4179.0938,91.8125 L 4173.3438,88.625 4168.2812,91.25 4163.25,93.875 4156.6562,91.90625 C 4153.03,90.818344 4149.7963,89.498804 4149.4688,88.96875 4148.3794,87.206109 4145.9122,87.964053 4141.2812,91.5 4135.9255,95.589429 4132.2914,95.956956 4125.8438,93.03125 4117.8164,89.388786 4116.3405,90.951214 4123.75,95.25 4130.1863,98.984152 4136.4181,98.616937 4141.9688,94.15625 4146.4266,90.573801 4146.7877,90.493242 4150.6562,92.40625 4154.2698,94.193178 4160.1407,96 4162.3125,96 4163.238,96 4165.6977,95.1 4167.75,94 4172.5519,91.426367 4173.4433,91.492157 4177.4688,94.5625 4180.0634,96.541518 4183.1044,97.430859 4186.1562,97.6875 L 4186.375,94.59375 z M 4163.0938,55.5625 4166.2188,58.90625 C 4168.7029,61.564291 4169.4357,63.364129 4169.7812,67.53125 4170.3285,74.131184 4167.7776,82.249703 4164.2812,85 4161.3518,87.304223 4160.1371,87.431448 4157.9062,85.71875 4151.5558,80.843042 4153.0936,64.952342 4160.5938,57.90625 L 4163.0938,55.5625 z"/>
</svg>
