<svg xmlns="http://www.w3.org/2000/svg"
     width="38.0" height="64.0"
     viewBox="4222.4697 64.9015 23.5294 39.5985">
  <path d="M 4239,96.409952 C 4239,94.727223 4236.9553,93.328192 4233.3799,92.564558 4230.8042,92.01442 4230.1702,92.241236 4229.7456,93.864758 4229.4628,94.94638 4229.6929,96.292912 4230.2571,96.85705 4231.6519,98.251855 4239,97.876084 4239,96.409952 z M 4239,88.52568 C 4239,86.064854 4236.5836,84.2046 4231.25,82.559298 4229.2204,81.933228 4229,82.199774 4229,85.279798 4229,89.044414 4231.2641,90.809611 4236.25,90.93232 4238.5273,90.988366 4239,90.574679 4239,88.52568 z M 4239,79.19748 C 4239,76.637688 4238.5669,76.306251 4234,75.370722 4229.194,74.38623 4229,74.432625 4229,76.566288 4229,78.188208 4230.01,79.205032 4232.75,80.341518 4238.087,82.555183 4239,82.388055 4239,79.19748 z M 4227.33,99.417658 C 4227.1016,98.82237 4226.8214,92.438319 4226.7073,85.230878 4226.4697,70.21215 4226.9751,68.901531 4232.0019,71.500987 4235.0981,73.102076 4236.3721,73.102923 4240.25,71.506465 4241.8566,70.845063 4241.9991,71.716733 4241.989,82.143011 4241.9829,88.389355 4241.7173,95.075 4241.3987,97 L 4240.8195,100.5 4234.2824,100.5 C 4230.5153,100.5 4227.5694,100.04138 4227.33,99.417658 z"/>
</svg>
