<svg xmlns="http://www.w3.org/2000/svg"
     width="47.1" height="64.0"
     viewBox="2113.6875 47.0000 43.8753 59.6656">
  <path d="M 2122.6562 89.21875 L 2121.1875 91.59375 C 2125.864 94.727915 2128.4669 94.595591 2133.125 90.90625 C 2139.1556 86.129932 2140 83.679634 2140 70.90625 C 2140 61.323941 2140.3099 59.261301 2142.0938 56.375 C 2143.2386 54.522581 2144.9725 53 2145.9688 53 C 2149.5565 53 2149.9444 58.763149 2147 68.15625 C 2144.3684 76.551283 2144.3763 83.945819 2147 87.28125 C 2148.8887 89.682296 2149.6337 92 2148.5 92 C 2148.2176 92 2147.1265 91.457458 2146.0938 90.8125 C 2144.4826 89.80623 2143.4587 90.302826 2138.875 94.3125 C 2135.9371 96.882458 2132.5711 99 2131.4062 99 C 2128.6384 99 2122.9007 97.052079 2121 95.46875 C 2120.7002 95.21897 2119.9804 94.954237 2119.3125 94.6875 L 2117.6875 97.40625 C 2117.9368 97.554015 2118.1416 97.612192 2118.4062 97.78125 C 2119.0145 98.169786 2121.525 99.197323 2124 100.09375 C 2131.1009 102.66564 2132.9745 102.35797 2138.9375 97.53125 C 2143.1671 94.107648 2144.7627 93.333428 2146.125 94.0625 C 2148.5629 95.367253 2149.6246 95.250351 2151.4375 93.4375 C 2153.5628 91.312162 2153.4585 90.873731 2150 87 C 2146.5802 83.169572 2146.4516 81.98016 2148.5625 73 C 2152.4671 56.389404 2152.0945 51 2147.0625 51 C 2143.9787 51 2140.7186 54.014611 2138.9375 58.5 C 2138.2823 60.15 2137.6821 66.225 2137.5938 72 C 2137.4171 83.542418 2136.7792 85.412459 2131.625 89.34375 C 2127.4125 92.55677 2127.4342 92.55594 2123.3125 89.75 C 2123.0277 89.556098 2122.9017 89.400506 2122.6562 89.21875 z "/>
</svg>
