<svg xmlns="http://www.w3.org/2000/svg"
     width="28.3" height="64.0"
     viewBox="5388.9149 49.0000 29.3879 66.5542">
  <path d="M 5400.5938 53.40625 L 5398 53 L 5397.7188 53 C 5397.5213 54.903347 5396.842 57.762202 5395.5 62.5 C 5393.5883 69.249399 5393.9536 77.605357 5396.4688 83.625 C 5398.1415 87.628323 5398.4934 92 5397.125 92 C 5394.7331 92 5392.9149 102.01542 5394.4375 106.8125 C 5395.6317 110.57513 5400 110.7233 5400 107 C 5400 103.79203 5402.2617 99.896054 5403.9375 100.21875 C 5404.8019 100.38521 5406.0733 102.30796 5406.7812 104.46875 C 5407.4892 106.62955 5408.5593 108.96831 5409.1562 109.6875 C 5410.7054 111.55423 5410.9381 111.41235 5412.625 107.375 C 5414.3028 103.35932 5413.7703 97.488603 5411.3125 92.6875 C 5410.0426 90.206958 5410.0638 89.102475 5411.4375 83.625 C 5412.3911 79.822805 5413 73.023837 5413 66.21875 L 5413 55.28125 L 5411 54.96875 C 5410.3219 57.586626 5409.9577 61.696187 5409.6875 68.5 C 5409.3818 76.2 5408.6064 83.947204 5407.9688 85.71875 C 5407.0155 88.367225 5407.1106 89.522571 5408.4688 92.21875 C 5410.1537 95.563962 5411.7681 105 5410.6562 105 C 5410.3188 105 5409.3591 103.7625 5408.5312 102.25 C 5407.7033 100.7375 5406.3587 98.649409 5405.5312 97.59375 C 5404.0982 95.765483 5403.9269 95.747253 5402.0938 97.40625 C 5401.0352 98.364171 5399.6328 100.45926 5398.9688 102.0625 C 5398.3046 103.66575 5397.3612 104.73797 5396.875 104.4375 C 5395.093 103.33612 5396.0642 97.393621 5398.625 93.625 L 5401.2188 89.78125 L 5398.9688 82.21875 C 5396.36 73.430726 5396.6159 64.640725 5399.7188 56.46875 C 5400.3158 54.896295 5400.3846 54.258204 5400.5938 53.40625 z "/>
</svg>
