<svg xmlns="http://www.w3.org/2000/svg"
     width="28.9" height="64.0"
     viewBox="5691.5285 26.0000 38.6589 85.7323">
  <path d="M 5705.125 30 C 5703.7996 30 5700.2972 34.262599 5698.0625 38.59375 L 5695.9688 42.6875 L 5698.3125 47.78125 C 5701.0139 53.611965 5701.052 61.282057 5698.4688 74.78125 C 5695.5285 90.146674 5696.8346 99.092801 5702.75 103.96875 C 5707.0391 107.50419 5709.0213 107.73233 5711.4375 105.0625 C 5712.2577 104.15615 5712.7932 103.74175 5713.5938 103.6875 L 5715.1562 98.3125 C 5715.1927 97.970915 5715.2711 97.678343 5715.4062 97.4375 L 5717 92 L 5717.5625 91.71875 C 5717.1598 90.614959 5717.0006 89.173791 5717 86.84375 C 5716.9988 82.004367 5715.8417 74.51688 5712.9688 60.5 C 5711.9584 55.570316 5712.3623 51.146916 5714.125 47.78125 C 5714.8743 46.350546 5715.4396 46.248707 5717.5 47.1875 C 5719.5555 48.124061 5720.3666 47.990226 5722.125 46.40625 C 5725.3124 43.534991 5726.1874 40.347067 5725 35.9375 C 5723.4659 30.240349 5722.1361 30.084877 5717.7188 35.0625 L 5713.8125 39.46875 L 5711.9375 37 C 5708.9458 33.0376 5705.9814 30 5705.125 30 z M 5704.6875 34 C 5705.36 34 5707.2774 36.010527 5708.9688 38.46875 L 5712.0625 42.9375 L 5710.6562 49.03125 C 5709.4548 54.23194 5709.438 56.223753 5710.625 62.8125 C 5713.884 80.901797 5714.3371 85.814707 5713.25 92.375 C 5712.6641 95.910671 5711.4048 99.977668 5710.4688 101.40625 C 5709.5327 102.83483 5708.2008 104 5707.5 104 C 5705.3576 104 5702.2978 100.67696 5701.125 97.09375 C 5699.5795 92.371894 5699.7382 80.667182 5701.4688 73.5 C 5703.6556 64.443591 5703.4108 52.483726 5700.9062 47 L 5698.8438 42.5 L 5701.1562 38.25 C 5702.4247 35.9125 5704.0149 34 5704.6875 34 z M 5721 35.5 C 5722.8794 35.5 5723.5642 41.104554 5722.0312 43.96875 C 5720.7176 46.423465 5718.7166 46.587526 5716.9062 44.40625 C 5715.7889 43.060025 5715.9153 42.229543 5717.5625 39.15625 C 5718.6387 37.148308 5720.1761 35.5 5721 35.5 z "/>
</svg>
