<svg xmlns="http://www.w3.org/2000/svg"
     width="26.3" height="64.0"
     viewBox="3329.0000 16.5177 34.2973 83.4823">
  <path d="M3334.0978 92.850777C3333.494 91.118704 3333.0 88.88443 3333.0 87.885724C3333.0 84.763059 3336.1125 76.596644 3338.1438 74.389694C3340.0682 72.2989 3340.066 72.201815 3337.9092 63.889694C3334.8382 52.054105 3334.8186 38.505627 3337.8613 30.790997C3339.0998 27.651045 3340.9446 24.055026 3341.961 22.799842L3343.809 20.51769L3347.2632 24.180194C3351.0673 28.213809 3353.3824 35.491589 3354.5779 47.175088C3355.1169 52.443214 3354.7855 55.774052 3353.0055 62.977681L3350.7502 72.105187L3352.7581 74.302593C3357.6948 79.7051 3359.2973 86.877618 3356.7101 91.991142C3355.1546 95.065636 3352.2045 95.807787 3351.4122 93.323907C3350.1159 89.259926 3347.5984 83.869857 3346.7523 83.346921C3345.5917 82.629618 3341.0 86.921766 3341.0 88.723974C3341.0 91.092071 3338.0133 96.0 3336.5721 96.0C3335.8151 96.0 3334.7016 94.58285 3334.0978 92.850777Z M3342.8059 82.75C3345.8125 79.530719 3347.1562 79.314398 3348.5129 81.831252C3349.0558 82.838441 3350.3748 85.321826 3351.4441 87.349886C3353.7145 91.656137 3355.3738 91.616858 3355.8079 87.246584C3356.1443 83.859323 3352.7524 76.225936 3350.5321 75.373959C3348.0877 74.435924 3348.0199 72.140749 3350.2333 65.25166C3352.3901 58.538621 3353.3282 44.994916 3351.7461 43.412724C3351.3314 42.998055 3349.9814 43.593006 3348.7461 44.734836L3346.5 46.810892L3343.0282 44.405446C3341.1187 43.082451 3339.1389 42.0 3338.6285 42.0C3337.0626 42.0 3338.8004 59.052243 3341.0406 65.669469L3343.1292 71.838938L3340.1135 76.00201C3337.0793 80.190583 3335.1465 87.809947 3336.5444 90.071768C3337.0515 90.892281 3337.7713 90.348296 3338.7661 88.392767C3339.5754 86.801745 3341.3933 84.2625 3342.8059 82.75Z M3350.5036 38.988763C3351.2637 36.593919 3348.219 27.913712 3345.8246 25.649449C3344.7484 24.631646 3343.7102 23.956646 3343.5176 24.149449C3342.6326 25.035394 3339.0 35.269979 3339.0 36.877309C3339.0 37.869106 3340.6653 39.865462 3342.7007 41.313655C3346.1231 43.748751 3346.5347 43.826034 3348.1752 42.341483C3349.1507 41.458595 3350.1985 39.949871 3350.5036 38.988763Z"/>
</svg>
