<svg xmlns="http://www.w3.org/2000/svg"
     width="57.2" height="64.0"
     viewBox="5832.0312 53.7155 21.9688 24.5970">
  <path d="M 5836.0312 67.6875 L 5837.875 70.90625 L 5836.875 71.40625 L 5845.5625 74.3125 C 5845.4062 73.105356 5845.5102 72.32995 5845.9375 72.1875 C 5848.1388 71.453731 5850 68.817606 5850 66.4375 C 5850 61.137583 5842.293 57.715542 5840 62 C 5839.2743 63.355992 5839.267 64 5839.9688 64 C 5840.5382 64 5841 63.55 5841 63 C 5841 61.60741 5844.3594 61.734363 5845.8125 63.1875 C 5847.4984 64.873404 5847.2974 68.935269 5845.5 69.625 C 5842.8611 70.637621 5839.8417 69.244743 5838.5625 66.6875 L 5836.0312 67.6875 z "/>
</svg>
