<svg xmlns="http://www.w3.org/2000/svg"
     width="40.2" height="64.0"
     viewBox="3723.9865 15.9642 31.0089 49.3268">
  <path d="M 3743.1695,43.34973 C 3744.9384,39.350842 3745.0657,38.1625 3744.078,34.866047 3742.9872,31.225138 3739.9768,28.356522 3738.6447,29.688596 3738.3047,30.028622 3738.9232,31.757707 3740.0192,33.531008 3742.0074,36.747988 3742.0074,36.764963 3740.0279,41.127596 3737.6206,46.433049 3737.513,48 3739.5562,48 3740.4465,48 3741.9927,46.010111 3743.1695,43.34973 z M 3736.2,49.8 C 3734.5503,48.150286 3734.6539,47.479474 3737.4046,42.002958 3739.7421,37.349162 3739.7602,37.134761 3738.0519,34.325743 3736.8384,32.330355 3736.5485,30.749579 3737.1151,29.218012 3738.4818,25.523377 3741.6148,26.486589 3744.5562,31.505713 3747.0389,35.742155 3747.1253,36.309204 3746.0014,40.994118 3744.0504,49.126869 3739.5606,53.160618 3736.2,49.8 z M 3743.2699,53.457329 C 3747.0514,49.675905 3748.9167,44.99111 3749.1202,38.764671 3749.4332,29.185311 3743.2905,22.204511 3736.2627,24.15303 3731.7582,25.401935 3730.9715,28.997302 3733.9671,34.644014 3735.2176,37.001337 3735.944,39.508293 3735.5812,40.215028 3735.2184,40.921763 3734.2708,42.625 3733.4755,44 3728.6685,52.310725 3736.6804,60.046889 3743.2699,53.457329 z M 3734.4653,58.07001 C 3729.5816,56.038778 3727.9865,48.907016 3731.0658,42.871066 3732.9159,39.24454 3732.9414,38.787312 3731.4537,35.910472 3729.2004,31.552987 3729.3516,27.719313 3731.9191,24.113553 3734.5913,20.360877 3738.7889,19.96418 3743.7591,22.994598 3748.9177,26.139802 3750.9954,30.46091 3750.9743,38 3750.9388,50.678662 3742.2094,61.290957 3734.4653,58.07001 z"/>
</svg>
