<svg xmlns="http://www.w3.org/2000/svg"
     width="30.7" height="64.0"
     viewBox="1543.5926 14.6494 43.8325 91.3599">
  <path d="M1556.4116 100.10411C1554.7166 99.073352 1552.0342 95.815755 1550.4507 92.865003C1547.8699 88.056131 1547.5926 86.644634 1547.7757 79.24828C1547.9042 74.05711 1548.7434 68.730145 1550.0384 64.885949L1552.0969 58.775338L1549.9424 51.814036C1548.2856 46.460538 1547.9441 43.603084 1548.464 39.44213C1548.8358 36.466297 1549.5892 33.753914 1550.1382 33.414612C1550.6872 33.07531 1550.899 32.179244 1550.609 31.423354C1549.9198 29.627557 1552.3358 23.907419 1554.6674 21.814311C1557.611 19.171884 1563.0747 18.649402 1566.1175 20.719369C1571.7398 24.544143 1577.873 34.118695 1580.4444 43.085103C1583.4251 53.479021 1582.9277 66.41351 1578.9841 81.058967C1577.7114 85.785636 1570.507 96.887905 1568.1787 97.710744C1567.2554 98.037034 1565.825 98.857373 1565.0 99.533719C1562.1951 101.83322 1559.5444 102.00926 1556.4116 100.10411Z M1563.4631 97.0C1565.724 97.0 1571.0137 90.721012 1573.9937 84.5C1576.5492 79.165279 1578.0033 72.728983 1579.3514 60.785413C1580.6741 49.066591 1571.7277 27.496149 1563.8564 23.425726C1561.1415 22.021798 1560.7165 22.065658 1557.9504 24.035315C1556.3111 25.202614 1554.3617 27.359699 1553.6184 28.828838C1550.3166 35.355285 1550.9667 52.095716 1554.6813 56.20035C1556.2407 57.923442 1556.2019 58.296067 1554.0675 62.093621C1550.6103 68.244959 1549.7499 80.720498 1552.2636 88.2495C1554.2448 94.183348 1558.2109 98.516796 1560.7638 97.537127C1561.5337 97.241707 1562.7484 97.0 1563.4631 97.0Z M1557.7462 86.735333C1555.1039 82.702815 1554.8747 78.804484 1556.8503 71.5C1557.8916 67.65 1559.3297 63.091041 1560.0461 61.36898C1561.2014 58.592014 1561.09 57.636783 1559.0616 52.92155C1554.5263 42.378894 1555.8869 30.014553 1561.673 29.190539C1564.3992 28.802291 1568.5076 35.372841 1570.0498 42.587638C1570.6273 45.289437 1571.5759 49.75 1572.1577 52.5C1573.7446 59.999758 1572.7015 73.62562 1570.0884 79.533162C1566.0885 88.575537 1560.9258 91.588147 1557.7462 86.735333Z M1565.1574 84.25C1569.1198 79.524385 1570.5 73.783575 1570.499 62.032808C1570.4979 49.225924 1567.7451 37.572708 1563.6871 33.196667C1561.6876 31.040414 1561.4697 31.004727 1560.2756 32.637797C1557.9104 35.872339 1559.5411 48.36471 1563.3164 55.932325C1564.5351 58.375319 1564.4872 59.117645 1562.9179 62.104648C1561.9368 63.972092 1560.3869 68.220929 1559.4737 71.54651C1556.6927 81.673801 1560.3894 89.936325 1565.1574 84.25Z"/>
</svg>
