<svg xmlns="http://www.w3.org/2000/svg"
     width="29.3" height="64.0"
     viewBox="981.0000 17.6048 40.4552 88.3065">
  <path d="M996.4138 99.904746C994.83762 98.163089 993.67081 97.87326 989.75148 98.249858C987.01319 98.512973 985.0 98.292415 985.0 97.729302C985.0 97.19189 986.79407 94.065543 988.98683 90.781865C991.17959 87.498187 993.47872 82.941444 994.09601 80.655771C995.74671 74.543633 994.67455 62.192777 991.04419 45.5C989.15573 36.816687 989.50033 29.510456 991.96137 26.054252C995.12964 21.604828 997.84806 22.085898 1001.6894 27.775785C1006.2085 34.469711 1006.6328 36.074059 1007.4073 49.395315C1008.1424 62.039138 1008.8976 64.386292 1014.0015 69.891521C1017.3822 73.538011 1017.4552 75.849518 1014.3398 80.604158C1012.4995 83.412839 1011.3067 83.587526 1008.8918 81.402039C1006.5396 79.27333 1005.0098 80.403227 1004.9561 84.309017C1004.932 86.064058 1004.2637 89.3 1003.4712 91.5C1002.6786 93.7 1002.0233 96.217756 1002.0151 97.095012C1002.0068 97.972269 1001.173 99.438412 1000.1623 100.35311C998.44055 101.91128 998.20409 101.883 996.4138 99.904746Z M1000.406 92.321861C1001.2827 89.748885 1002.0061 86.036385 1002.0137 84.071861C1002.0434 76.289987 1004.2109 74.070938 1008.2298 77.707962C1009.662 79.004092 1010.5249 79.159091 1011.8085 78.350778C1014.5864 76.601503 1014.2709 74.566983 1010.6217 70.697685C1006.0764 65.8783 1005.0584 62.437755 1004.1434 48.802428C1003.3385 36.808046 1000.7652 28.891352 997.23043 27.53493C993.07032 25.938544 992.12835 33.269082 994.79345 46.5C996.83332 56.626972 998.00458 68.679286 997.58644 75.240066C997.23269 80.790585 996.51371 83.038891 993.51267 87.979143C990.30471 93.260007 989.53798 97.021614 991.97674 95.514372C992.43795 95.229334 993.86935 95.41847 995.15765 95.934674C998.68599 97.34844 998.6955 97.341894 1000.406 92.321861Z"/>
</svg>
