<svg xmlns="http://www.w3.org/2000/svg"
     width="24.4" height="64.0"
     viewBox="363.3402 14.9542 32.5661 85.4165">
  <path d="M 388.6875 78.0625 C 388.10091 76.678485 387.90413 74.347546 387.5625 69.15625 C 386.69841 56.025752 387.54697 40.042096 389.5625 31 C 390.48199 26.875 391.2977 22.825 391.375 22 C 391.58692 19.738308 388.06318 20.694263 383.8125 24.0625 L 380.125 26.96875 L 376.625 22.875 C 374.31335 20.174366 372.5776 18.954221 371.5625 19.34375 C 369.67628 20.067561 369.67487 20.385777 371.5625 31 C 374.34714 46.658122 372.19469 85.14572 368.125 92.75 C 367.53795 93.846914 367.34018 95.027684 367.6875 95.375 C 368.68322 96.370724 369.64831 96.12228 370.96875 94.53125 C 372.88679 92.220153 378.52204 91.584606 382.75 93.21875 C 384.96443 94.074648 388.42663 94.453055 391.90625 94.5 L 390.875 89.625 C 390.27014 88.769435 389.68456 87.74282 389.4375 86.71875 C 389.06789 85.186686 389.14298 84.606125 389.75 84.40625 L 388.5 78.5 L 388.6875 78.0625 z M 374.09375 25.09375 C 374.86087 25.256075 376.09251 26.156435 377.46875 27.75 L 379.84375 30.5 L 382.71875 27.75 C 386.25443 24.376024 388.23101 24.171492 387.53125 27.25 C 387.24996 28.4875 386.51016 31.75 385.875 34.5 C 383.62623 44.23625 384.09218 70.652463 386.8125 86.75 C 387.80232 92.60734 387.48947 92.840187 382.21875 90.21875 C 379.54864 88.890744 378.34754 88.797266 375.90625 89.71875 C 373.45711 90.643197 372.79133 90.603871 372.34375 89.4375 C 372.041 88.64854 372.05758 87.25237 372.40625 86.34375 C 373.5769 83.293093 375.99613 58.59053 376 49.5 C 376.00356 41.154709 374.90492 31.431222 373.46875 26.90625 C 373.02564 25.510139 373.32663 24.931425 374.09375 25.09375 z "/>
</svg>
