<svg xmlns="http://www.w3.org/2000/svg"
     width="36.4" height="64.0"
     viewBox="2232.1799 16.3000 50.8201 89.4629">
  <path d="M 2274.8,28.8 C 2276.6346,26.965403 2276.2639,24 2274.2,24 2271.8961,24 2270,25.89613 2270,28.2 2270,30.263921 2272.9654,30.634597 2274.8,28.8 z M 2262.1621,92.593808 C 2264.8973,85.630552 2265.3852,78.051597 2263.9383,65 2263.2371,58.675 2262.6139,51.925 2262.5533,50 2262.4438,46.520988 2264.0543,36.450885 2265.3744,32.3598 2265.925,30.653718 2265.2686,29.588809 2262.1386,27.1098 2257.6659,23.567348 2256.7606,23.382236 2254.5788,25.564009 2253.1819,26.960937 2253.1743,27.436358 2254.5074,30.014349 2256.431,33.734186 2256.3936,43.11981 2254.4117,54 2253.5602,58.675 2252.6166,65.568168 2252.315,69.31815 2251.7945,75.789726 2253.1755,86.393299 2254.9939,89.887448 2255.4555,90.774352 2256.3823,92.97946 2257.0535,94.787689 2257.7247,96.595919 2258.7231,97.925642 2259.2721,97.742631 2259.8211,97.559619 2261.1216,95.242649 2262.1621,92.593808 z M 2246,28.035184 C 2246,26.34506 2243.4043,24 2241.5335,24 2240.6844,24 2239.146,28.349138 2239.6764,29.25 2239.9193,29.6625 2241.4415,30 2243.059,30 2245.3158,30 2246,29.542884 2246,28.035184 z M 2255.4055,98.496131 C 2252.6673,94.317093 2248.9998,80.028074 2249.003,73.551359 2249.0047,70.223112 2249.9047,62.871544 2251.003,57.214542 2254.1722,40.891841 2253.3723,28.805017 2249.2361,30.514009 2244.7086,32.384676 2239.7336,33.023823 2238.3887,31.907607 2236.1799,30.074474 2236.6471,24.360582 2239.1491,22.608124 2241.0018,21.310451 2241.667,21.293536 2243.9719,22.485483 2245.4425,23.245937 2247.2243,24.565283 2247.9314,25.417363 2249.0703,26.789668 2249.6305,26.62589 2252.8364,23.983299 2257.2605,20.336613 2258.2157,20.300016 2262.5565,23.610905 2265.7494,26.046267 2269,26.29751 2269,24.108937 2269,23.584329 2270.5924,22.62956 2272.5387,21.987227 2276.74,20.60069 2279,21.872225 2279,25.622445 2279,29.617981 2275.2707,32.514598 2270.7269,32.048378 2266.2936,31.593501 2264.2526,45.88055 2266.3054,63 2267.0638,69.325 2267.5586,76.829553 2267.4049,79.676784 2267.1084,85.171222 2263.7016,97.449732 2261.8568,99.672553 2260.1219,101.76292 2257.1964,101.22944 2255.4055,98.496131 z"/>
</svg>
