<svg xmlns="http://www.w3.org/2000/svg"
     width="23.1" height="64.0"
     viewBox="78.9759 13.4751 32.7588 90.8397">
  <path d="M 105.875 79.46875 C 105.83635 79.112368 105.63258 78.863353 105.65625 78.4375 C 105.74617 76.819876 106.12119 71 106.46875 65.5 C 107.67483 46.414581 107.73468 41.468646 106.875 35.5 C 105.71593 27.45279 102.83564 18.868057 101.0625 18.1875 C 99.206437 17.475114 89.382362 28.325279 87.9375 32.6875 C 86.816183 36.072893 87.447876 38.113032 91.09375 42.8125 C 93.142121 45.452816 92.608834 47.484163 87.9375 54.5 C 83.589517 61.030199 83.340974 64.156058 86.9375 68.09375 C 88.616719 69.932259 90 72.037181 90 72.75 C 90 73.462819 88.65 76.56422 87 79.65625 C 82.97586 87.197317 83.100052 90.117399 87.59375 94.21875 C 89.566862 96.019588 92.154362 98.051901 93.34375 98.71875 C 96.190449 100.3148 97.236934 99.922484 98.84375 96.625 C 99.71293 94.841283 100.5027 93.91398 101.625 93.625 L 103.1875 88.40625 C 103.09723 88.092597 103 87.787878 103 87.4375 C 103 86.248639 103.43654 85.641 104.09375 85.34375 L 105.875 79.46875 z M 100.125 23.25 C 101.37233 22.670063 103.38 30.118145 104.25 39.34375 C 105.38882 51.419895 104.1418 69.849952 101.375 82.125 C 100.55287 85.772427 99.304366 89.559425 98.59375 90.53125 C 97.423283 92.13196 97.249378 91.996888 96.65625 89.03125 C 94.849003 79.995013 97.072964 31.77707 99.65625 24 C 99.798552 23.571595 99.94681 23.332848 100.125 23.25 z M 96 24.65625 L 95.875 29.5625 C 95.809927 32.270873 95.472427 35.801624 95.125 37.40625 C 94.209584 41.634194 92.214811 41.729121 90.5 37.625 C 88.762607 33.466834 89.537503 30.661388 93.40625 27.0625 L 96 24.65625 z M 92.34375 52.90625 C 93.337814 52.784205 93.536852 55.584452 93.21875 61.75 C 93.013021 65.7375 92.502745 69 92.09375 69 C 90.656919 69 87 64.358687 87 62.53125 C 87 61.51502 88.179524 58.654018 89.625 56.1875 C 90.851248 54.095066 91.747311 52.979477 92.34375 52.90625 z M 92.21875 76.84375 C 93.396867 76.658202 93.812404 79.764392 94.3125 87.25 C 94.634012 92.0625 94.556561 96 94.125 96 C 92.643369 96 86 88.668546 86 87.03125 C 86 86.130596 87.387999 83.189689 89.09375 80.5 C 90.523171 78.246037 91.51188 76.955079 92.21875 76.84375 z "/>
</svg>
