<svg xmlns="http://www.w3.org/2000/svg"
     width="37.4" height="64.0"
     viewBox="1977.0000 40.3784 37.0000 63.2421">
  <path d="M 1981.5312 97.15625 C 1982.4424 97.010718 1983.5356 97.270387 1985.5625 97.8125 C 1992.3221 99.620409 1993.8842 99.303328 1997.7812 95.40625 C 2000.7716 92.415997 2001.8801 91.91353 2004.3438 92.40625 C 2007.6182 93.061131 2010 91.65265 2010 89.0625 C 2010 88.13315 2009.0519 85.433567 2007.9062 83.0625 C 2004.9942 77.035048 2004.6817 73.839967 2005.875 63.1875 C 2006.7762 55.14274 2006.6813 53.407625 2005.25 50.40625 C 2002.3755 44.378352 1997.6931 44.80856 1994.2812 51.40625 C 1992.9641 53.953367 1992.8247 56.723271 1993.375 68.25 C 1994.0296 81.964018 1994.0257 82.068022 1991.5938 84.5 C 1989.2104 86.883302 1989.0302 86.915881 1985.3125 85.375 C 1983.2126 84.504624 1981.3728 83.673401 1981.2188 83.53125 C 1981.1857 83.500795 1981.0469 82.648057 1981 82.5 L 1981.2188 88.625 C 1981.605 87.359192 1982.6313 87.329089 1985.0938 88.1875 C 1989.7758 89.819684 1992.558 88.509241 1994.9375 83.59375 C 1996.8458 79.651748 1996.9552 78.537551 1996.0312 72.84375 C 1993.7771 58.95213 1995.5457 47.371802 1999.7812 48.1875 C 2003.3103 48.867146 2004.0883 52.817577 2003.4375 66.5 C 2002.8359 79.147035 2002.8928 79.63999 2005.4062 84.3125 C 2006.8274 86.954103 2008 89.36201 2008 89.65625 C 2008 89.950491 2006.2935 89.881775 2004.2188 89.53125 C 2000.7946 88.95275 2000.1649 89.215652 1997.3125 92.4375 C 1994.6954 95.393585 1993.538 95.982393 1990.3438 95.90625 C 1985.9506 95.801528 1982.0481 93.600155 1981.3125 91.15625 L 1981.5 97 L 1981.5312 97.15625 z "/>
</svg>
