<svg xmlns="http://www.w3.org/2000/svg"
     width="34.3" height="64.0"
     viewBox="5854.2506 24.4401 46.2961 86.4897">
  <path d="M 5876,28.46875 C 5874.2828,28.554795 5873,30.176048 5873,32.6875 5873,34.031313 5872.5147,36.05044 5871.9062,37.1875 5870.845,39.170231 5870.6318,39.098079 5867,35.125 5862.874,30.611168 5860.4216,30.455148 5859.375,34.625 5858.2506,39.104923 5859.8916,43.576118 5864.0312,47.40625 5867.9261,51.009965 5868,51.216337 5868,57.90625 5868,63.072463 5867.3827,66.075217 5865.5,70.1875 5862.1849,77.428678 5861.9379,84.188779 5864.7812,90.0625 5867.5186,95.716948 5867.534,95.616035 5864.5,99.59375 5863.125,101.39647 5862,103.1258 5862,103.4375 5862,104.8934 5863.9225,103.65119 5867.8125,99.6875 L 5872.0625,95.34375 5870.1875,92.9375 C 5864.28,85.358578 5863.6768,77.856696 5868.3125,69.5625 5870.4375,65.760582 5870.7468,63.9891 5870.5938,57.15625 5870.4162,49.233092 5870.4059,49.161873 5866.375,45.25 5862.6347,41.620119 5860.039,35.617203 5861.5625,34.09375 5861.8853,33.770961 5863.7375,35.218797 5865.6562,37.3125 5867.575,39.406203 5869.8269,40.983067 5870.6875,40.8125 5872.002,40.552005 5874.6561,36.711399 5876.4062,32.53125 5876.6459,31.958577 5878.6923,33.428879 5880.9688,35.78125 5884.3572,39.28251 5885.0674,40.642877 5884.8125,43.28125 5884.5561,45.936259 5884.0176,46.557655 5881.8125,46.8125 5877.8523,47.270179 5876.7836,49.261439 5876.2188,57.15625 L 5875.7188,64.28125 5879.0938,63.59375 C 5888.2132,61.761019 5888.7639,61.763881 5890.8438,63.84375 5893.4889,66.48895 5894.4476,71.719103 5892.9688,75.5 5891.8646,78.323029 5891.7371,78.369219 5890.9688,76.375 5890.5213,75.213465 5888.9325,73.300965 5887.4375,72.125 5880.8091,66.911094 5875,71.85129 5875,82.6875 5875,90.1286 5879.6584,95.56868 5885.2812,96.875 L 5885.9375,94.1875 C 5885.092,93.829464 5884.2369,93.377697 5883.3125,92.75 5877.1125,88.540149 5875.2222,77.829796 5879.9375,73.5625 5881.6086,72.050198 5882.2153,71.975517 5884.6875,73.15625 5886.912,74.218693 5887.6059,75.354384 5888,78.5 5888.5833,83.156069 5890.3894,83.692464 5893.125,80 5895.8059,76.381428 5896.5467,69.23075 5894.6875,64.78125 5892.851,60.38575 5887.879,58.454022 5882.9062,60.1875 5881.2533,60.763707 5879.6552,60.967643 5879.3438,60.65625 5879.0324,60.344858 5879.1473,57.95884 5879.625,55.34375 5880.3385,51.438422 5880.9543,50.482911 5883,50 5885.7962,49.339889 5887.9778,45.825544 5888,41.90625 5888.0153,39.185996 5881.5293,30.878651 5877.8438,28.90625 5877.2079,28.565942 5876.5724,28.440068 5876,28.46875 z M 5883.9688,102.09375 C 5882.0005,102.0554 5879.8948,101.87799 5877.375,101.46875 5873.7826,100.88533 5873.0367,101.10954 5871.625,103.125 5870.7329,104.39874 5870,105.88276 5870,106.40625 5870,106.92974 5871.1321,106.28506 5872.5,105 5874.7701,102.86728 5875.303,102.78293 5878.8438,103.84375 5880.286,104.27587 5881.839,104.42479 5883.3438,104.625 L 5883.9688,102.09375 z"/>
</svg>
