<svg xmlns="http://www.w3.org/2000/svg"
     width="40.3" height="64.0"
     viewBox="1120.5000 19.8131 51.5211 81.7570">
  <path d="M 1132.2188 78.28125 L 1131.5 78.5 L 1124.5 86 L 1126.2188 92.375 L 1129.9688 94.21875 C 1136.3458 97.373886 1140.9488 97.570091 1144.9062 94.84375 C 1149.0432 91.993693 1153.427 83.970514 1155.0938 76.25 C 1155.7757 73.091433 1156.4666 70.330938 1156.625 70.125 C 1156.7834 69.919063 1158.3277 70.94654 1160.0625 72.40625 C 1163.7101 75.475566 1165.2474 74.841686 1167 69.53125 C 1168.0211 66.437342 1167.8383 65.990409 1164.4062 62.375 C 1159.1121 56.798212 1157.1096 51.425601 1157.1875 43.15625 C 1157.2606 35.386799 1155.3278 26.526312 1153.1875 24.75 C 1152.0586 23.813077 1151.2118 24.208299 1148.9688 26.71875 C 1144.9868 31.175266 1144.3239 38.087189 1146.5 52.21875 C 1148.4557 64.91823 1148.0959 69.424531 1144.5938 77.34375 C 1141.5079 84.321234 1138.2337 85.702395 1134.2188 81.6875 C 1132.8444 80.313095 1132.3007 79.488179 1132.2188 78.28125 z M 1150.25 28.25 C 1152.6697 27.681127 1155.3631 34.972389 1154.5625 43.34375 C 1153.7478 51.863094 1155.4977 57.459943 1160.6562 62.84375 C 1163.6608 65.97948 1164.8346 67.936248 1164.4375 69.1875 C 1163.6401 71.699773 1162.344 71.453668 1159.375 68.25 L 1156.8125 65.5 L 1155 67.75 C 1153.9988 68.986517 1152.853 71.914053 1152.4688 74.25 C 1151.7782 78.446604 1148.1542 87.016542 1145.75 90.09375 C 1145.0682 90.966412 1143.5139 92.203912 1142.3125 92.84375 C 1137.7995 95.247405 1132.3706 93.7455 1129.125 89.1875 C 1126.6316 85.68584 1126.5163 84.662298 1128.4062 83.09375 C 1129.5014 82.184809 1130.6026 82.481279 1133.5312 84.46875 C 1138.2012 87.63784 1139.4725 87.621303 1142.625 84.46875 C 1149.0223 78.07149 1151.1078 66.726376 1148.5938 52.25 C 1146.7187 41.452848 1146.6064 36.931091 1148.0625 31.6875 C 1148.6687 29.504696 1149.4434 28.439624 1150.25 28.25 z "/>
</svg>
