<svg xmlns="http://www.w3.org/2000/svg"
     width="17.0" height="64.0"
     viewBox="2012.8044 16.0000 23.7152 89.2158">
  <path d="M2028.0356 98.542889C2026.6064 96.820869 2021.458 96.449957 2020.5 98.0C2020.1601 98.55 2019.1688 99.0 2018.2972 99.0C2016.923 99.0 2016.8044 97.903901 2017.4045 90.75C2017.7851 86.2125 2018.0637 68.4375 2018.0234 51.25C2017.9832 34.0625 2018.1174 20.0 2018.3215 20.0C2018.5257 20.0 2020.0617 20.682934 2021.7349 21.517631C2024.0637 22.679375 2025.422 22.790065 2027.5272 21.989653C2029.0398 21.414568 2030.3853 21.069134 2030.5171 21.222022C2030.649 21.37491 2031.0748 37.475 2031.4635 57.0C2031.8522 76.525 2032.2444 94.063746 2032.3351 95.97499C2032.5196 99.862639 2030.2539 101.21582 2028.0356 98.542889Z M2030.0 92.241951C2030.0 88.679741 2028.4276 86.419777 2024.9459 84.977574C2021.0835 83.377714 2020.0379 84.560967 2020.0153 90.557692L2020.0 94.615385L2025.0 94.615385C2029.5956 94.615385 2030.0 94.423405 2030.0 92.241951Z M2028.106 54.75C2028.3303 47.87004 2027.7961 45.458517 2025.6741 43.772236C2022.4197 41.185939 2019.6162 41.438441 2020.3697 44.25C2020.7014 45.4875 2020.9788 48.568734 2020.9863 51.097186C2020.9975 54.869026 2021.4039 55.889188 2023.25 56.779505C2027.026 58.600613 2027.9936 58.196223 2028.106 54.75Z M2028.1479 39.25C2028.5971 30.898929 2028.5369 26.868707 2027.9489 25.917266C2027.5866 25.331168 2025.7625 24.997516 2023.8951 25.175817L2020.5 25.5L2020.5 31.918629C2020.5 37.993042 2020.6609 38.431549 2023.5 40.09554C2027.5831 42.488642 2027.9776 42.416885 2028.1479 39.25Z M2028.075 70.725C2028.0338 70.32625 2028.0 67.986556 2028.0 65.52568C2028.0 61.559708 2027.6571 60.874048 2024.982 59.49071C2021.6336 57.75915 2021.5202 57.87864 2020.7036 64.0C2020.2974 67.045164 2020.6437 67.779361 2023.3684 69.649704C2026.4389 71.757487 2028.224 72.16531 2028.075 70.725Z M2029.0 80.145035C2029.0 77.028977 2028.388 75.783077 2025.8072 73.645035C2024.0512 72.190266 2022.2512 71.0 2021.8072 71.0C2021.3632 71.0 2021.0 73.235628 2021.0 75.968063C2021.0 80.359428 2021.3192 81.109307 2023.75 82.428025C2028.1046 84.790437 2029.0 84.401069 2029.0 80.145035Z"/>
</svg>
