<svg xmlns="http://www.w3.org/2000/svg"
     width="51.9" height="64.0"
     viewBox="708.0000 39.1400 51.4976 63.4471">
  <path d="M 712.75 49.78125 L 712 58.5 L 712.03125 59.8125 C 715.18671 57.775256 718.50228 56 720.09375 56 C 722.48259 56 724.69953 60.71351 726.28125 69.21875 C 727.25996 74.481496 727.16196 75.393171 725.1875 78.90625 C 722.89542 82.984466 722.36508 88.333856 723.90625 92.1875 C 724.4115 93.450879 725.07252 95.2875 725.375 96.25 C 726.05313 98.407813 729 98.587114 729 96.46875 C 729 94.078959 732.92188 86.954058 734.59375 86.3125 C 736.74559 85.486762 737.35854 86.486851 737.96875 91.78125 C 738.68903 98.03072 740.61479 98.269168 747.59375 93 C 754.02363 88.145399 755.49764 85.515969 754.5625 80.53125 C 753.49792 74.856578 749.34043 70.911372 743.75 70.28125 C 738.63818 69.705073 738.58438 69.632425 737.5 61.5 C 736.65368 55.152941 734.01353 49.183125 730.6875 46.125 C 727.44102 43.140011 722.38092 43.646021 717.875 47.4375 C 715.6116 49.342027 713.9678 50.176753 712.75 49.78125 z M 725.15625 46 C 729.41329 46 733.51458 54.340301 734.53125 65.03125 C 735.39568 74.12136 736.1574 75.331438 739.6875 73.5 C 743.55921 71.491332 747.73902 73.667053 750.59375 79.1875 C 752.86549 83.580563 752.29376 85.637409 747.65625 89.4375 C 745.2621 91.399323 742.82924 93 742.25 93 C 741.67075 93 740.88361 90.726632 740.5 87.9375 C 740.08546 84.923402 739.2138 82.61512 738.34375 82.28125 C 735.9504 81.362835 731.93897 84.173025 729.875 88.21875 C 728.81367 90.299135 727.56842 92 727.09375 92 C 724.67236 92 725.06611 83.320623 727.65625 79.53125 C 730.52793 75.329973 728.12829 60.128296 723.9375 55.9375 C 721.76265 53.762651 717.02092 53.354078 715.1875 55.1875 C 714.25417 56.120833 714 55.942531 714 54.3125 C 714 52.12972 722.22199 46 725.15625 46 z "/>
</svg>
