<svg xmlns="http://www.w3.org/2000/svg"
     width="27.7" height="64.0"
     viewBox="2269.8581 14.2790 41.8755 96.7210">
  <path d="M 2294.5689,77.75 C 2295.4837,49.357045 2295.9057,42.994483 2296.9891,41.262667 2297.8064,39.956263 2297.9119,42.865022 2297.3969,52.5 2296.6697,66.104141 2296.3173,75.268694 2296.1185,85.75 2296.0533,89.1875 2295.5747,92 2295.0549,92 2294.4842,92 2294.2917,86.355366 2294.5689,77.75 z M 2296.7169,93.75 C 2301.6916,84.768328 2303.7386,74.354966 2304.5273,54.017421 2304.892,44.61529 2304.6043,41.169889 2302.9399,35.001286 2301.8219,30.85783 2300.4943,26.799991 2299.9897,25.983865 2298.416,23.438445 2295.861,27.149688 2294.0375,34.629805 2293.1339,38.336063 2291.8072,41.564262 2291.0893,41.803582 2288.9573,42.514247 2290.7382,34.397585 2294.3375,27 2298.4645,18.517669 2300.5978,18.278997 2303.2757,26 2306.8586,36.330541 2307.7336,43.717885 2306.8905,56.518953 2305.6206,75.79977 2303.265,86.399828 2298.3946,94.75 2294.8051,100.90408 2293.2634,99.985164 2296.7169,93.75 z M 2283,105.84439 C 2283,104.92664 2285.3412,101.31017 2288.6717,97.083333 2288.8523,96.854167 2289.2797,96.946339 2289.6215,97.288161 2290.4216,98.088233 2285.2245,107 2283.9578,107 2283.431,107 2283,106.47998 2283,105.84439 z M 2277.2358,85.206345 C 2278.0881,81.947073 2285.4741,71.066446 2286.857,71.032909 2288.6977,70.988269 2288.0126,72.455579 2282.533,80.294248 2277.7452,87.143342 2276.404,88.386961 2277.2358,85.206345 z M 2274.5642,56.103904 C 2273.8581,54.961352 2279.7086,45 2281.0858,45 2282.4843,45 2282.1887,46.70989 2280.0731,50.856736 2277.8008,55.310741 2275.455,57.545161 2274.5642,56.103904 z"/>
</svg>
