<svg xmlns="http://www.w3.org/2000/svg"
     width="52.3" height="64.0"
     viewBox="421.3842 12.2581 55.4994 67.9344">
  <path d="M 459.50333,73.93998 C 458.7315,73.02698 456.21,70.77399 453.9,68.93334 451.59,67.09271 449.32944,65.13972 448.87653,64.59336 448.42362,64.04702 447.75768,63.6 447.39665,63.6 447.03563,63.6 444.28536,66.165 441.28494,69.3 435.3185,75.53409 433.84749,76.19252 432.3511,73.29882 431.86725,72.36317 430.24032,70.08638 428.73569,68.23929 425.80083,64.63644 425.38418,63.27825 427.05,62.74434 427.6275,62.55924 429.50705,61.05605 431.22678,59.4039 432.94652,57.75176 434.63402,56.4 434.97678,56.4 435.31955,56.4 435.6,56.18471 435.6,55.92158 435.6,55.45512 443.15328,49.2 443.71655,49.2 443.87245,49.2 444,49.62981 444,50.15514 444,51.00384 438.28026,56.93408 431.80188,62.80218 430.53792,63.94708 429.63422,65.22375 429.79365,65.63922 430.362,67.12033 434.44462,73.19994 434.86844,73.19631 435.48177,73.19108 440.77726,67.96291 444.20582,63.97765 445.80403,62.11994 447.42403,60.60194 447.80582,60.60431 448.68528,60.60977 460.8,71.26172 460.8,72.02952 460.8,73.411 462.66765,72.36661 465.22763,69.5536 466.75243,67.87808 468,66.79063 468,67.13705 468,67.89976 461.93272,75.6 461.33175,75.6 461.09796,75.6 460.27517,74.853 459.50333,73.93998 z M 438.8454,38.85 C 437.18792,37.1175 434.78229,34.485 433.49955,33 432.21682,31.515 430.67966,30.1062 430.08365,29.86934 428.4464,29.21866 428.77555,27.91362 431.00601,26.21237 432.10932,25.37084 434.58588,23.04379 436.50948,21.04115 438.43308,19.03852 440.26082,17.400001 440.57112,17.400001 440.88142,17.400001 441.98236,18.093663 443.01765,18.941471 451.67887,26.03422 451.93093,26.04552 459.98507,19.702276 463.99895,16.541048 464.962,16.258115 466.28987,17.850001 467.67469,19.510159 472.8836,30.57932 472.54092,31.13378 472.37089,31.4089 469.72712,32.91592 466.66589,34.4827 463.60464,36.04948 459.70424,38.24683 457.99832,39.3657 456.2924,40.48456 454.4699,41.4 453.94832,41.4 452.41744,41.4 452.80791,39.04333 454.44171,38.42216 455.23466,38.12068 456.08354,37.55024 456.32811,37.15451 456.57269,36.75878 459.5517,35.1242 462.94814,33.5221 466.34459,31.92001 469.28171,30.3532 469.47509,30.04031 469.66846,29.72743 468.6805,27.16036 467.27962,24.33571 464.52285,18.777134 463.52233,18.138168 461.53377,20.66621 460.32712,22.20022 455.83458,25.80409 453.7146,26.93867 451.73204,27.9997 448.92369,27.75223 448.2296,26.45532 447.66069,25.3923 440.76132,20.4 439.86113,20.4 439.63996,20.4 437.99043,21.88705 436.19551,23.70455 L 432.93201,27.00909 434.11394,29.20381 C 434.76401,30.4109 437.11931,33.50865 439.34793,36.0877 441.57657,38.66674 443.4,41.05207 443.4,41.38843 443.4,42.77365 441.68439,41.81749 438.8454,38.85 z M 465.993,63.09524 C 464.7552,61.82763 461.60832,59.06012 458.99991,56.94524 454.52569,53.31755 453.2279,51.6 454.96103,51.6 455.3796,51.6 457.3371,53.07469 459.31103,54.87708 461.28496,56.67948 463.17,58.16461 463.5,58.17738 464.26335,58.20691 469.2,63.90916 469.2,64.76136 469.2,65.91413 468.27767,65.43495 465.993,63.09524 z"/>
</svg>
