<svg xmlns="http://www.w3.org/2000/svg"
     width="37.1" height="64.0"
     viewBox="200.0000 18.3556 47.6687 82.2434">
  <path d="M 227.94944,60.27 C 227.92163,59.9565 227.76409,58.485 227.59935,57 227.34324,54.69132 227.30956,41.78182 227.52656,29.1 227.56044,27.12 227.47833,24.96 227.34408,24.3 227.16723,23.43053 227.41863,23.1 228.25683,23.1 230.04088,23.1 230.37773,25.66173 229.53805,32.84375 229.1229,36.39469 228.8776,41.055 228.99294,43.2 229.56008,53.7464 229.47932,59.36065 228.75,60.08999 228.3375,60.5025 227.97725,60.5835 227.94944,60.27 z M 216.10669,60.81908 C 212.21207,57.73758 211.10163,56.09837 212.17895,55.02105 212.38737,54.81263 214.00752,55.88057 215.77929,57.39423 220.48079,61.41086 220.76504,60.95162 220.40497,49.92097 219.79844,31.34009 219.85097,23.33864 220.5835,22.7307 221.02578,22.36364 221.42533,22.35558 221.64395,22.70931 221.83688,23.02148 222.13816,30.44669 222.31346,39.20977 222.61419,54.24323 222.13004,62.49645 220.87307,63.76331 220.62024,64.01813 218.47537,62.69322 216.10669,60.81908 z M 209.21241,92.28086 C 207.33558,89.90534 205.8,87.58423 205.8,87.12285 205.8,86.66148 207.42,84.51604 209.4,82.35522 211.38,80.1944 212.99792,77.993 212.99538,77.46323 212.99283,76.93346 211.91345,75.8848 210.59675,75.13288 207.31588,73.2593 204,70.26387 204,69.17366 204,67.96074 204.67833,68.28592 210.45,72.26567 213.39428,74.29584 215.4,76.0952 215.4,76.70636 215.4,77.82581 213.9629,79.98407 210.40295,84.21101 208.86575,86.03622 208.27032,87.20606 208.60295,87.74751 209.64042,89.4363 213.31332,94.15422 213.608,94.1766 213.99894,94.2063 218.3419,89.79906 220.82773,86.85 221.87085,85.6125 223.20059,84.6 223.7827,84.6 224.77958,84.6 231.84933,89.00032 234.15829,91.05792 235.14008,91.93282 235.45457,91.74529 238.50829,88.46403 240.31873,86.5187 241.8,84.65461 241.8,84.3216 241.8,83.2677 233.15168,75.37818 231.95262,75.33823 230.03946,75.27449 230.23329,74.0616 232.54673,71.62074 235.44678,68.56095 238.27741,64.92981 239.50595,62.69344 L 240.49838,60.88688 237.85472,57.89344 C 235.50154,55.22891 234.55949,53.4 235.54019,53.4 236.22908,53.4 243,59.68902 243,60.32889 243,60.69296 242.325,61.62495 241.5,62.4 240.675,63.17505 240,64.05691 240,64.35969 240,64.8737 239.38187,65.7569 235.95,70.14649 235.2075,71.0962 234.6,72.2576 234.6,72.72737 234.6,73.19715 236.64799,75.57446 239.15109,78.01026 243.27887,82.02707 243.66875,82.60623 243.34264,84.23679 242.941,86.24498 238.18465,91.97082 235.66349,93.48118 234.0732,94.43388 233.97155,94.40975 232.06349,92.62632 230.98357,91.61693 228.70801,89.95628 227.00669,88.93596 L 223.91339,87.08087 221.51784,89.29043 C 220.20029,90.5057 218.80754,92.12195 218.42285,92.88211 217.72761,94.25591 214.48112,96.59348 213.26241,96.59776 212.91174,96.599 211.08924,94.65639 209.21241,92.28086 z"/>
</svg>
