<svg xmlns="http://www.w3.org/2000/svg"
     width="22.4" height="64.0"
     viewBox="349.7230 16.2128 22.1810 63.3871">
  <path d="M 363.6,70.90421 C 363.6,68.32152 363.86843,63.39402 364.19652,59.95421 364.52461,56.51439 364.91452,48.84 365.06299,42.9 365.37894,30.25884 365.96358,22.8 366.63847,22.8 367.53891,22.8 367.90394,25.26317 367.46609,28.38489 367.22579,30.0982 366.94376,35.685 366.83934,40.8 366.73493,45.915 366.52689,51.18 366.37704,52.5 365.734,58.164 364.85341,70.41687 364.81391,74.25 364.80626,74.9925 364.53,75.6 364.2,75.6 363.85111,75.6 363.6,73.63474 363.6,70.90421 z M 353.80679,58.65 C 353.96115,41.48172 354.05376,39.47202 355.20995,28.2 355.95166,20.96891 356.13854,20.21285 357.10453,20.53484 357.78749,20.7625 357.88004,27.11 357.24537,30.19414 356.29439,34.81543 355.63475,45.45931 355.52835,57.9 355.41344,71.33598 355.06022,75.6 354.06215,75.6 353.83788,75.6 353.72297,67.9725 353.80679,58.65 z"/>
</svg>
