<svg xmlns="http://www.w3.org/2000/svg"
     width="34.3" height="64.0"
     viewBox="62.5937 15.8001 44.2610 82.6281">
  <path d="M 85.742368,89.25 C 92.878144,79.26133 95.765908,73.62466 98.035582,65.25468 100.41688,56.47307 100.5212,52.27269 98.60833,42.19313 95.960878,28.24279 92.58718,23.16846 85.464646,22.42389 79.01476,21.74964 74.565154,25.68639 71.902218,34.42315 70.84053,37.9064 69.692868,46.7407 69.885036,49.95071 70.084806,53.28768 71.580306,59.07135 72.54348,60.2319 73.403056,61.26763 77.999998,74.50426 77.999998,75.94364 77.999998,76.30563 78.539692,78.33391 79.199314,80.45091 79.858942,82.56791 80.687896,85.245 81.041446,86.4 82.164568,90.06914 82.931176,91.8 83.43313,91.8 83.701282,91.8 84.74044,90.6525 85.742368,89.25 z M 83.086138,93.74082 C 81.708142,92.75127 80.136208,89.46668 77.929018,82.9649 76.64806,79.19153 75.599998,75.82909 75.599998,75.4928 75.599998,75.15651 75.21388,74.03055 74.741962,72.99068 71.127498,65.02624 68.401596,57.95114 67.795356,54.96072 66.59373,49.03339 68.241024,37.13715 71.047698,31.4733 71.53101,30.49799 72.217002,29.025 72.57213,28.2 74.907334,22.77506 79.503268,19.800366 85.549996,19.800139 87.5575,19.800063 89.4025,20.0025 89.65,20.25 89.8975,20.4975 90.28,20.71025 90.499996,20.72277 92.002798,20.80832 95.371066,23.20889 96.777166,25.19652 100.20332,30.03965 102.85472,41.84884 102.83997,52.2 102.83093,58.54434 102.65388,59.62034 100.64141,65.56142 98.179192,72.83018 95.629018,77.77272 90.869848,84.49988 89.07994,87.02995 86.869486,90.23765 85.957732,91.6281 84.19477,94.31667 84.04327,94.42813 83.086138,93.74082 z"/>
</svg>
