<svg xmlns="http://www.w3.org/2000/svg"
     width="64.0" height="57.9"
     viewBox="490.9745 11.7944 103.0442 93.2056">
  <path d="M 495.3325,99.424102 C 494.97448,98.491104 495.99591,96.145344 497.83626,93.674102 499.54593,91.378346 501.68104,87.8125 502.58096,85.75 503.48087,83.6875 504.8433,82 505.60858,82 507.34979,82 507.34276,82.243901 505.47252,86.720017 503.87572,90.54168 497.24233,101 496.41516,101 496.1523,101 495.6651,100.29085 495.3325,99.424102 z M 498,65.149223 C 498,59.796944 503.6716,50.097574 509.18469,46.02157 514.37725,42.182545 523.20267,42.924497 527.01722,47.520749 528.90908,49.800299 531.34545,49.292636 534.54599,45.951994 537.2015,43.180246 537.43943,42.364527 537.17119,36.951994 536.99886,33.474844 537.28973,31 537.87072,31 539.07207,31 539.65176,32.890594 540.4954,39.560205 541.13025,44.579146 541.0984,44.654575 536.59008,48.810205 534.09011,51.114592 531.32961,53 530.45562,53 529.58164,53 527.3965,51.878734 525.59977,50.508298 521.93735,47.714839 517.24696,46.470218 513.71901,47.355676 509.73762,48.354942 503.45517,55.616579 501.4381,61.55071 499.58959,66.988937 498,68.652693 498,65.149223 z M 519.27668,66.966375 C 519.59653,58.32473 516.8058,57.100461 510.67308,63.192043 507.92067,65.925988 505,66.910109 505,65.103592 505,63.842876 511.41751,58.352578 515.14305,56.426027 518.0851,54.904634 518.3697,54.925256 520.23976,56.795317 522.60801,59.163569 523.61067,66.369845 522.1118,70.25 520.32066,74.886777 519.03849,73.401777 519.27668,66.966375 z M 514.50732,99.011846 C 513.89521,98.021429 521.42099,84.475883 523.19122,83.381822 524.90427,82.323099 525.34348,83.949742 524.09952,86.745774 522.11714,91.201567 516.63943,100 515.84773,100 515.4464,100 514.84321,99.555331 514.50732,99.011846 z M 563.6875,73.354167 C 563.30938,72.976042 563,70.959196 563,68.872288 563,64.382557 565.33496,61.801302 571.53984,59.431635 577.45189,57.173801 580.05896,57.831244 582.95142,62.309373 585.34874,66.020918 585.43392,66.059439 586.26838,63.809373 588.08888,58.900541 584.34731,49.879783 579.90611,48.470201 578.57429,48.047499 576.58368,48.666768 574.18209,50.250912 566.7095,55.180006 564.91836,56.067579 563.81725,55.387052 563.12953,54.962018 562.96882,55.140525 563.40451,55.845492 563.85965,56.581925 563.33664,57 561.96023,57 558.33942,57 550.01165,46.835562 550.00374,42.40655 550.00168,41.255153 550.88487,37.741184 551.96638,34.59773 L 553.93275,28.882358 549.83902,24.441179 C 547.58746,21.998531 545.24009,20.016183 544.62264,20.035963 544.00519,20.055743 542.19839,21.136269 540.60752,22.437134 538.576,24.098331 537.87339,25.40784 538.24702,26.836588 538.84692,29.130643 536.82059,30.420592 535.18552,28.785517 534.44126,28.041261 533.05313,28.361116 530.5065,29.863662 525.99773,32.523901 523.81467,32.557687 521.50272,30.003008 519.31609,27.586809 519.2957,22.723846 521.45835,19.423217 523.59251,16.166086 526.00399,16.37248 529.26745,20.091584 L 531.98027,23.183167 538.58646,19.488776 545.19264,15.794385 548.34632,18.699356 C 554.70759,24.558961 554.52909,24.519329 559.17405,21.103393 564.19466,17.411191 565.38533,17.284354 567.4433,20.222506 569.12565,22.624397 569.55679,27 568.11111,27 567.62222,27 567.28472,27.7875 567.36111,28.75 567.47304,30.160349 566.62661,30.525954 563,30.633726 560.525,30.707276 558.1625,30.876026 557.75,31.008726 557.3375,31.141427 556.5875,31.30625 556.08333,31.375 555.57917,31.44375 554.79167,31.909646 554.33333,32.410325 553.84917,32.93922 554.02376,33.019243 554.75,32.601308 556.30887,31.704217 556.31677,31.570301 554.43747,37.898597 552.99584,42.753116 553.00608,43.366763 554.56982,45.830099 558.96212,52.749204 563.21317,54.857922 566,51.5 566.68469,50.675 567.66366,50 568.1755,50 568.68733,50 570.76169,48.875 572.78519,47.5 579.43259,42.982972 584.69835,44.819792 588.17007,52.866604 589.70056,56.413997 590.01864,58.653876 589.52716,62.422973 588.28317,71.963026 585.22498,73.521308 581.52753,66.499134 579.5755,62.79183 579.13952,62.517395 575.55313,62.738377 569.90987,63.086095 567.18374,65.243216 566.81139,69.65553 566.51297,73.19167 565.14485,74.811512 563.6875,73.354167 z M 528.67033,26.416723 C 529.4025,24.508712 525.68537,20.458383 524.10087,21.437661 523.49539,21.811866 523,23.441476 523,25.059017 523,27.539122 523.39669,28 525.53138,28 526.92365,28 528.33617,27.287525 528.67033,26.416723 z M 550,71.649223 C 550,65.570155 546.14319,58.989681 542.59501,59.014877 539.25022,59.038628 532.94811,65.018622 532.14872,68.927242 531.76365,70.810017 530.83057,72.556476 530.07522,72.808261 528.98796,73.170682 528.8371,72.352938 529.3511,68.883027 529.88722,65.263745 530.90476,63.67231 535.19062,59.75 542.73521,52.845395 546.77578,53.581609 551.38303,62.70034 553.49664,66.88363 553.5703,74 551.5,74 550.59206,74 550,73.072136 550,71.649223 z M 532.70185,98.368517 C 531.90936,97.576023 533.56337,94.38168 536.74694,90.55637 538.09433,88.937373 539.59133,86.574873 540.07362,85.30637 540.96582,82.959697 542.45601,82.310792 543.40959,83.853717 543.98327,84.781945 538.88263,93.33647 537.09777,94.439573 536.494,94.812726 536,95.991476 536,97.059017 536,98.915725 534.03088,99.697546 532.70185,98.368517 z M 554.54858,98.078608 C 553.90931,97.044243 561.90992,84 563.18362,84 564.94019,84 563.82474,87.034552 559.91726,92.886047 555.58743,99.370017 555.43677,99.515731 554.54858,98.078608 z M 566,26.5 C 566.99319,25.303284 566.99319,24.696716 566,23.5 565.31531,22.675 564.22122,22 563.56868,22 562.91615,22 561.50875,22.675 560.44113,23.5 558.51962,24.984836 558.51962,25.015164 560.44113,26.5 561.50875,27.325 562.91615,28 563.56868,28 564.22122,28 565.31531,27.325 566,26.5 z M 576,97.984616 C 576,96.499243 583.13251,86 584.14158,86 585.53553,86 585.12605,88.867232 583.31538,91.785183 579.80729,97.438591 576,100.66508 576,97.984616 z"/>
</svg>
