<svg xmlns="http://www.w3.org/2000/svg"
     width="64.0" height="61.0"
     viewBox="348.7926 8.2700 102.9381 98.1020">
  <path d="M 376.63948,66.306147 C 375.26057,64.927242 376.12329,61.098027 378.64837,57.389547 380.10497,55.250296 381.94037,51.967231 382.72703,50.093846 384.04972,46.94396 383.99848,46.49254 382.046,44.093846 380.88477,42.667231 379.02831,39.5875 377.92054,37.25 L 375.90641,33 377.91798,28.452507 C 380.44356,22.743017 382.97304,19.511828 387.74613,15.897882 391.76979,12.851369 394.86999,12.269986 396.8,14.2 398.88876,16.288764 398.11767,19.510452 394.07298,25.593716 388.81694,33.498871 388.56153,35.40924 392.70708,35.810157 395.30972,36.061859 396.77423,35.327534 400.47753,31.913944 405.3373,27.434367 407.24007,27.314399 404.92866,31.633302 401.58088,37.888685 391.18542,42.042564 387.67177,38.528913 384.32969,35.186828 385.66393,31.434876 394.47752,19.39086 395.13166,18.496963 395.06594,17.665942 394.27887,16.87887 392.03697,14.636971 384.51935,21.280978 380.91861,28.686551 379.05619,32.516932 379.01063,33.112454 380.383,35.686551 381.208,37.233948 383.07566,39.85 384.53336,41.5 388.02668,45.454132 387.44476,50.25051 382.5834,57.572235 380.61253,60.540583 379,63.624597 379,64.425599 379,66.108966 377.57642,67.243086 376.63948,66.306147 z M 376,100.24295 C 376,98.491695 384.8046,82.804077 387.05257,80.55 387.65095,79.95 388.33832,79.95 388.91829,80.55 389.48282,81.13402 387.93235,84.774558 384.89363,90 382.175,94.675 379.59212,99.148216 379.15389,99.940481 377.91026,102.18882 376,102.37202 376,100.24295 z M 385.65841,70.552202 C 384.76244,68.217351 391.35295,59.200504 394.54017,58.400562 396.06663,58.017445 398.88173,58.773546 402.47588,60.532 409.04891,63.747887 414.74835,63.524489 418.60674,59.899727 425.05306,53.843716 431.68795,33.019055 430.58891,22.291759 429.92822,15.843043 430.91555,14.105172 433.01318,18.024631 438.07127,27.475749 427.63717,60.239812 417.95498,65.308817 413.73624,67.517493 407.66077,67.076171 400.60714,64.048671 396.20047,62.157277 395.54652,62.100421 394.02599,63.476482 393.09743,64.316817 392.03672,64.703382 391.66885,64.335515 391.30098,63.967648 391,64.391573 391,65.27757 391,66.163566 389.95016,68.108979 388.66703,69.600709 386.59326,72.01161 386.259,72.117323 385.65841,70.552202 z M 394,99.559017 C 394,98.766476 394.35864,97.896383 394.79697,97.625477 395.23531,97.354571 398.00897,93.053013 400.96066,88.06646 405.91946,79.689122 408,77.334655 408,80.100306 408,82.393877 396.82165,101 395.4437,101 394.64967,101 394,100.35156 394,99.559017 z M 406.98198,56.799888 C 396.29986,51.980333 395.29187,47.567101 403.48746,41.5 406.45927,39.3 409.44138,36.4875 410.11436,35.25 411.46305,32.769981 413,32.267039 413,34.30572 413,36.143445 409.17363,41.067795 404.7289,44.950218 400.40158,48.730089 400.73588,49.804285 407.27826,53.141958 411.06484,55.073728 411.25483,55.079402 413.20157,53.31887 418.01135,48.969159 420.79855,38.606961 418.90226,32.125 418.03976,29.176793 420.83725,30.094371 421.88633,33.103779 423.60334,38.029177 423.2128,42.000838 420.42192,47.996746 415.79152,57.944633 413.23322,59.620319 406.98198,56.799888 z M 414,98.980128 C 414,98.419199 415.07014,96.265051 416.37808,94.193135 417.68602,92.121218 420.1675,87.63016 421.89247,84.213007 424.65503,78.740412 427,76.288653 427,78.872882 427,80.658063 422.57321,89.670966 419.20177,94.75 415.90709,99.713397 414,101.26426 414,98.980128 z M 433.50754,100.01219 C 433.12063,99.386172 433.46701,98.114829 434.27726,97.186987 435.08751,96.259144 437.64609,92.014648 439.96299,87.754774 442.27989,83.4949 444.61598,79.737339 445.1543,79.404639 447.73071,77.812331 447.05922,80.833104 443.14468,88.445161 438.56791,97.344969 434.71625,101.96794 433.50754,100.01219 z M 370.6875,73.03125 C 370.09009,72.675799 368.67198,74.214741 366.96875,77.25 365.65708,79.5875 362.30454,84.875 359.5,89 353.97792,97.122057 352.79263,99.480128 353.75,100.4375 354.09023,100.77773 354.84181,100.87565 355.40625,100.6875 357.32193,100.04894 371,76.668152 371,74.03125 371,73.474851 370.88664,73.149734 370.6875,73.03125 z"/>
</svg>
