<svg xmlns="http://www.w3.org/2000/svg"
     width="30.2" height="64.0"
     viewBox="144.0000 16.0000 42.0000 89.0000">
  <path d="M 148,79.78125 148,85.59375 C 153.85286,75.55793 157.15382,68.991108 156.8125,67.21875 156.62459,66.243015 154.68609,68.569954 152.03125,73.03125 151.05937,74.664426 149.41867,77.404779 148,79.78125 z M 174.5,67.4375 C 173.93091,67.52702 173.27636,68.516919 172.5,70.375 171.64601,72.41889 169.4108,76.227552 167.53125,78.84375 165.6517,81.459948 163.62138,84.68146 163.03125,86.03125 162.44113,87.381041 160.65822,90.525 159.0625,93 157.46677,95.475 156.13699,98.0625 156.09375,98.75 155.96237,100.83931 157.99553,100.14657 159.03125,97.75 159.56606,96.5125 162.94399,91 166.53125,85.5 174.29832,73.591508 176.43752,69.062525 175.03125,67.65625 174.86458,67.489583 174.6897,67.40766 174.5,67.4375 z M 182,92.28125 182,86.0625 C 181.05136,87.677129 180.2817,89.097844 179.4375,90.5 176.45726,95.45 174.00707,99.8375 174,100.25 173.99293,100.6625 174.6131,101 175.375,101 176.1369,101 178.69908,97.7375 181.0625,93.75 181.46032,93.078809 181.60438,92.935002 182,92.28125 z M 167.78125,20 C 165.38467,20 159.17204,28.106679 156.5625,34.625 153.85009,41.40028 152.06362,54.070295 153.34375,57.40625 154.71477,60.979076 155.85458,58.587865 155.875,52.125 155.90761,41.80794 161.20214,27.565536 165.9375,25.03125 167.50803,24.190727 168.23089,24.472358 169.875,26.5625 172.5594,29.975164 173.3759,36.230432 172.71875,48.15625 172.4204,53.570772 172.52769,58 172.9375,58 175.87596,58 177.14097,40.535254 174.875,31.1875 173.68858,26.29317 169.68555,20 167.78125,20 z"/>
</svg>
