<svg xmlns="http://www.w3.org/2000/svg"
     width="64.0" height="59.9"
     viewBox="178.0000 13.7336 100.0000 93.6507">
  <path d="M 182,92.28125 C 183.95474,89.051104 186.03085,85.686133 186.59375,85 188.18954,83.054863 194.5284,70.235813 195.5,67 196.23839,64.540871 196.23721,64.541917 194.21875,66.34375 193.09015,67.351229 190.50717,71.176229 188.5,74.84375 187.06138,77.472396 184.40033,81.977042 182,86.0625 L 182,92.28125 z M 214.5625,67.03125 C 213.64242,66.961801 211.16195,70.448158 206.53125,78.25 202.85873,84.4375 198.49376,91.617645 196.84375,94.21875 195.19375,96.819854 194.16778,99.443146 194.53125,100.03125 195.43112,101.48727 197.36335,99.798894 199.46875,95.71875 200.37806,93.956548 203.36747,89.125 206.09375,85 211.40108,76.969725 214.93314,70.276598 214.96875,68.25 214.98262,67.460891 214.86919,67.0544 214.5625,67.03125 z M 274,68.21875 C 272.9113,69.475586 271.22085,71.846875 269.1875,75.25 266.47636,79.7875 261.94584,87.280963 259.125,91.90625 256.30416,96.531537 254,100.69404 254,101.15625 254,103.01558 256.60125,101.82617 258.15625,99.25 259.0671,97.740978 262.14345,92.693197 265,88.03125 268.57882,82.190527 271.98047,75.860031 274,71.71875 L 274,68.21875 z M 227.625,18 C 226.88041,18 224.57626,19.35 222.5,21 220.42374,22.65 218.53321,24 218.28125,24 218.02928,24 216.61615,23.172593 215.15625,22.15625 208.80339,17.73357 204.28496,19.468536 203.3125,26.71875 202.79572,30.57165 202.96508,31.015501 205.46875,32.15625 207.76805,33.203879 208.68204,33.156685 211.1875,31.71875 212.8245,30.779238 214.75362,30 215.46875,30 217.07875,30 219,37.342255 219,43.46875 219,47.94941 218.94257,48.03257 216.25,47.40625 214.7375,47.054427 211.53242,45.908656 209.125,44.875 206.71759,43.841345 204.27969,43 203.71875,43 202.59605,43 194.21546,49.458519 192.28125,51.8125 191.61137,52.627764 191.30391,53.687277 191.59375,54.15625 192.38882,55.442702 192.54956,55.340759 198,50.5 200.78672,48.025 203.44304,46 203.90625,46 204.36945,46 207.29713,47.125 210.40625,48.5 213.51537,49.875 216.93503,51 218,51 220.74521,51 222.2504,47.564881 221.625,42.6875 219.55996,26.582451 219.4186,28.19705 223.0625,24.4375 224.89571,22.54611 226.80707,21 227.3125,21 229.0733,21 235,28.393655 235,30.59375 235,32.628213 235.85907,32.937628 239,32 239.275,31.917907 241.73419,31.784988 244.46875,31.6875 248.92019,31.528803 249.5368,31.212119 250.40625,28.75 252.89447,21.70386 247.28387,17.879604 240.40625,21.9375 235.8386,24.632482 235.24732,24.561513 231.84375,21 230.26692,19.35 228.36959,18 227.625,18 z M 209.125,22.15625 C 210.05878,21.94497 211.14438,22.405805 212.5625,23.5 214.4558,24.96084 214.42412,25.05941 211.6875,27.5 208.52494,30.320452 207.87896,30.472706 206.25,28.84375 205.385,27.978743 205.45226,26.990724 206.5625,24.84375 207.39122,23.241177 208.19122,22.36753 209.125,22.15625 z M 246.125,23 C 247.73799,23 248.06525,23.553412 247.8125,25.75 247.48821,28.568372 244.97789,29.499081 240.75,28.34375 236.71059,27.239927 240.97516,23 246.125,23 z M 234.3125,36.65625 C 233.63988,36.817765 233.01269,39.286867 233,43.15625 232.97306,51.371078 234.34295,52.425122 241.34375,49.5 244.86434,48.029006 245.02093,48.059967 248.21875,50.96875 250.01779,52.605187 252.175,53.958484 253,53.96875 253.825,53.979016 256.01026,52.419143 257.875,50.5 259.73975,48.580856 261.87399,47 262.59375,47 263.31352,47 265.09423,48.575 266.5625,50.5 269.45869,54.2971 270.4903,54.767638 271.3125,52.625 271.60512,51.862465 270.3517,49.612465 268.53125,47.625 264.38591,43.099338 261.17703,42.916826 257,47 253.23067,50.684641 252.35683,50.706879 248.78125,47.28125 246.13547,44.746431 245.73598,44.673139 242.71875,45.90625 237.29864,48.121395 235.46951,47.873357 235.8125,45 235.97663,43.625 235.81395,40.949448 235.46875,39.0625 235.14522,37.294033 234.71607,36.559341 234.3125,36.65625 z M 237.6875,64 C 236.97193,64 234.49068,67.2625 232.15625,71.25 229.82181,75.2375 225.03273,83.225 221.5,89 217.96726,94.775 215.04851,100.0625 215.03125,100.75 214.96512,103.38423 216.97199,101.76588 220.84375,96.09375 223.05554,92.853478 226.10742,87.790978 227.625,84.84375 229.14258,81.896522 231.38763,78.15 232.59375,76.5 234.74465,73.557525 239,65.594933 239,64.53125 239,64.234339 238.40307,64 237.6875,64 z M 256.125,65.75 C 255.5835,65.208503 253.0808,68.741652 249.875,74.5625 243.68652,85.799032 242.56277,87.694448 238.21875,94.5 236.46342,97.25 235.0417,100.0625 235.03125,100.75 234.99772,102.95606 236.89519,102.08039 238.375,99.21875 239.1643,97.692402 241.43143,93.998611 243.40625,91 245.38107,88.001389 247,85.165139 247,84.6875 247,84.209862 247.84542,82.616154 248.875,81.15625 252.81094,75.575221 257.01351,66.638512 256.125,65.75 z"/>
</svg>
