<svg xmlns="http://www.w3.org/2000/svg"
     width="50.1" height="64.0"
     viewBox="709.0000 10.7785 76.3284 97.5629">
  <path d="M 736,85.08104 C 736,84.575611 736.75841,82.840632 737.68535,81.225529 739.35303,78.319756 739.33349,78.242923 735.82094,73.89449 726.69765,62.60015 726.84507,63.089984 727.19059,45.218347 L 727.5,29.214628 724.69371,26.602897 C 721.02902,23.192277 722.14709,21.256483 726.13964,24.099436 730.70058,27.347109 731.23143,29.932681 730.45437,45.115065 729.76139,58.654907 729.77235,58.755406 732.43857,63.304964 733.91314,65.821123 736.89269,69.762462 739.0598,72.063496 743.58201,76.865169 743.78149,77.999454 740.91844,82.631966 738.99826,85.738877 736,87.231824 736,85.08104 z M 731.08583,20.902225 C 728.39925,17.268425 729.58454,14.778453 732.47862,17.976371 734.69663,20.427253 736.32487,20.532273 738.49286,18.364286 740.1999,16.657241 742.48807,17.670117 741.20836,19.566324 740.18742,21.079089 735.74525,24 734.46555,24 733.86636,24 732.34549,22.606001 731.08583,20.902225 z M 730.70951,103.37618 C 729.96817,102.63484 733.49065,95.432832 735.07284,94.454981 735.67862,94.080587 736.58563,94.185627 737.0884,94.688403 737.64059,95.240586 736.77993,97.265033 734.91476,99.80127 731.57592,104.34139 731.62932,104.29599 730.70951,103.37618 z M 746,68.403124 C 735.98068,55.958558 736.73671,58.271276 737.53223,42.5 738.27743,27.726434 739.31286,24.50848 744.15519,21.916945 746.92949,20.432183 747.60839,21.491696 745.6329,24.22314 744.72721,25.475413 743.36293,27.4 742.60116,28.5 741.0224,30.779752 739.82151,48.380313 740.84759,54.20078 741.27401,56.619654 743.19789,59.823744 746.4017,63.45078 749.09764,66.502851 751.63042,69 752.03009,69 752.42977,69 754.71326,66.46404 757.10451,63.364533 L 761.45224,57.729065 761.72576,43.208446 C 761.99227,29.059406 761.93531,28.603965 759.49964,25.410636 755.01527,19.531334 757.01775,17.794846 761.99123,23.25 L 764.95426,26.5 764.37782,42.5 C 763.80693,58.345867 763.77152,58.54335 760.70217,63 758.99761,65.475 757.34441,67.725 757.02839,68 756.71237,68.275 755.66632,69.7375 754.70385,71.25 753.74137,72.7625 752.40177,73.998285 751.72695,73.99619 751.05213,73.994094 748.475,71.477215 746,68.403124 z M 753,102.38615 C 753,101.05903 757.42046,94 758.25153,94 759.32995,94 758.3032,97.68899 756.37282,100.75 755.06488,102.82401 753,103.82569 753,102.38615 z M 761.5567,81.777494 C 759.01713,78.151738 759.7195,75.426927 765.09164,68.064052 770.84336,60.180915 771.906,55.573593 771.96728,38.252881 771.99992,29.028482 772.00914,28.995312 775.71901,24.752881 777.76447,22.413796 779.56447,20.3125 779.71901,20.083333 779.87356,19.854167 780.26146,19.928126 780.58102,20.247687 781.32838,20.995052 779.39519,24.604806 776.92431,27.075694 775.32422,28.675781 774.9948,30.474253 774.96912,37.75 774.90313,56.452109 772.74549,64.06938 764.9767,73.02686 762.6441,75.716374 762.52018,77.781525 764.5318,80.44113 765.33931,81.508751 766,82.746251 766,83.19113 766,84.855399 763.05665,83.918973 761.5567,81.777494 z M 764.65701,21.382776 C 762.67022,19.540522 762.14806,18.451935 762.89359,17.706405 763.63913,16.960875 764.5668,17.202973 766.02654,18.524016 768.05053,20.355702 768.18333,20.356079 771.55614,18.539698 776.30426,15.982666 777.11255,17.410746 772.9374,20.980088 768.68994,24.611236 768.16622,24.636705 764.65701,21.382776 z M 772.30818,100.24085 C 773.26979,95.385521 779,88.302513 779,91.969206 779,93.600504 774.96718,100.78311 773.26588,102.18189 771.83657,103.35704 771.7327,103.14652 772.30818,100.24085 z M 713,101.94657 C 713,99.624506 717.98806,92.874584 719.16602,93.602607 719.87069,94.038116 714.35982,104 713.41423,104 713.1864,104 713,103.07596 713,101.94657 z"/>
</svg>
