<svg xmlns="http://www.w3.org/2000/svg"
     width="37.9" height="64.0"
     viewBox="98.0000 15.0000 54.0000 91.1762">
  <path d="M 148,79.78125 C 145.85314,83.377552 143.7907,86.853944 141.90625,90 138.77654,95.225 136.42519,99.830267 136.65625,100.21875 137.67157,101.92586 139.89875,99.32215 145.65625,89.75 146.72228,87.977664 147.08903,87.15577 148,85.59375 L 148,79.78125 z M 123.8125,19 C 116.45864,19 112.55807,32.690014 116.65625,44.125 118.26234,48.60642 118.24747,48.885644 116.1875,52.21875 114.60042,54.786694 114.34204,55.93579 115.1875,56.78125 116.68625,58.280003 117.07697,57.949121 119.90625,52.71875 L 122.3125,48.28125 120.21875,43.875 C 118.40724,40.074581 117.5765,34.703757 117.90625,28.875 117.95726,27.973431 118.92721,26.173431 120.0625,24.875 L 122.125,22.5 121.53125,28.625 C 120.67942,37.325573 123.4613,42.892408 128.6875,42.96875 131.46348,43.0093 136.3381,37.171532 137.90625,31.9375 139.56948,26.38613 141,27.038216 141,33.34375 141,38.828591 138.504,43.654116 133.25,48.3125 131.31097,50.031716 131.2807,50.322023 132.75,54.0625 133.60109,56.229152 134.91468,58 135.65625,58 137.14173,58 137.26114,56.553692 136.0625,53.5 135.47384,52.000322 136.11713,50.497338 138.59375,47.46875 143.37724,41.619178 145.50004,30.075601 143,23.5 141.50436,19.566191 139.10651,20.783351 137.09375,26.5 134.52278,33.802091 132.24771,37.797062 130,39 128.30663,39.906267 127.73544,39.594674 126.0625,36.84375 124.0988,33.614707 123.99941,31.154084 125.5625,22.75 126.21438,19.24508 126.10848,19 123.8125,19 z M 114.6875,66.90625 C 114.06938,66.777465 112.54287,68.722804 110.59375,72.25 108.99843,75.136941 106.41093,79.447427 104.84375,81.8125 103.27656,84.177573 102,86.55674 102,87.125 102,87.693261 102.5428,87.99615 103.1875,87.78125 104.30268,87.409525 114.96735,69.324231 115,67.75 115.01078,67.230094 114.89354,66.949178 114.6875,66.90625 z M 134.21875,68.65625 C 133.06928,69.370762 130.95503,72.614038 126.1875,80.625 117.98972,94.399832 116,98.055223 116,99.4375 116,102.17618 117.44175,101.12398 120.3125,96.25 121.85092,93.638059 124.50831,89.25 126.21875,86.5 133.52719,74.749647 136.05004,69.643793 135.09375,68.6875 134.85942,68.453174 134.60191,68.418079 134.21875,68.65625 z"/>
</svg>
