<svg xmlns="http://www.w3.org/2000/svg"
     width="38.6" height="64.0"
     viewBox="304.0000 13.1081 56.2851 93.3770">
  <path d="M 308,80.9375 C 309.57284,78.045395 311.16157,75.098891 312.40625,72.84375 314.47822,69.089721 315.66931,65.898903 315.125,65.5625 314.30225,65.054014 311.44469,69.099006 308,74.78125 L 308,80.9375 z M 355.4375,66.09375 C 354.72081,65.377067 352.82627,67.811498 348.875,74.5 343.99938,82.753199 343.70762,83.193638 338.1875,91.75 335.26137,96.285581 333.16458,100.46921 333.53125,101.0625 334.41047,102.48511 338.73968,98.454582 340.5625,94.5 341.32305,92.85 344.41951,87.45 347.4375,82.5 353.75556,72.137372 356.28515,66.94141 355.4375,66.09375 z M 333.875,67.625 C 333.18641,67.722347 331.66327,69.444391 329.75,72.71875 319.99743,89.409194 315,98.808196 315,100.46875 315,101.4879 315.194,102.1185 315.4375,101.875 317.94681,99.365697 329.98419,79.094669 333,72.28125 334.41835,69.076859 334.56359,67.527653 333.875,67.625 z M 337.9375,17.21875 C 337.52168,17.108136 337.34938,17.497066 337.1875,18.3125 336.98829,19.315922 337.64554,21.069194 338.65625,22.1875 340.84576,24.610102 341.24977,36.125231 339.21875,38.15625 337.85232,39.522689 337.66671,43.383451 338.625,50.375 339.01173,53.196449 339.76977,55 340.5625,55 341.53432,55 341.82732,53.027659 341.71875,47.25 341.63866,42.9875 342.17878,37.607724 342.90625,35.28125 344.74509,29.400646 343.58207,22.492732 340.1875,19.125 339.00513,17.951981 338.35332,17.329364 337.9375,17.21875 z M 326.96875,20.3125 C 325.55923,20.182037 324.77951,21.623262 326.28125,23.125 329.92141,26.765161 331.30363,33 328.46875,33 327.62184,33 325.25934,32.157868 323.21875,31.125 316.5756,27.762492 313.20112,31.15807 315.96875,38.4375 317.06363,41.317234 322.81739,45.251687 324.8125,44.5 325.52856,44.230212 325.83603,44.4563 325.5,45 325.16398,45.5437 325.33792,46 325.90625,46 327.73621,46 330,51.755714 330,56.4375 330,59.814976 330.38646,61 331.5,61 332.62833,61 333,59.794223 333,56.125 333,48.921316 330.73217,44.341518 326.25,42.46875 319.97627,39.84742 316.25439,35.089367 318.625,32.71875 319.41557,31.928184 324.80169,34.611447 327.65625,37.21875 329.75465,39.13539 329.84621,39.118024 330.8125,37.3125 333.86626,31.606491 332.90287,24.65937 328.53125,21.03125 327.98262,20.575929 327.43859,20.355988 326.96875,20.3125 z"/>
</svg>
