<svg xmlns="http://www.w3.org/2000/svg"
     width="50.8" height="64.0"
     viewBox="1264.0000 6.3517 76.1549 95.9885">
  <path d="M 1315.4557,94.953734 C 1312.8163,92.198851 1312.6942,91.734513 1313.8029,88.668547 1315.6569,83.541511 1315.2563,81.393439 1311.9233,78.588894 1308.0401,75.321403 1307.5079,75.346916 1303.3472,79 1299.0324,82.788469 1296.9491,82.772253 1292.5571,78.916009 L 1289.0446,75.832018 1286.0247,77.982403 C 1282.7994,80.279061 1281.4261,83.697373 1282.334,87.169264 1283.1425,90.260976 1280.5762,94.518692 1277.0151,95.993748 1275.3215,96.695249 1273.7172,97.050554 1273.45,96.783314 1272.8712,96.204531 1270.2047,86.749304 1269.4219,82.5 1268.9454,79.913464 1269.4985,78.896916 1273.4346,75.124165 1275.9456,72.717456 1278,70.156142 1278,69.432357 1278,68.708571 1275.75,65.545181 1273,62.402602 1270.25,59.260023 1268,56.303932 1268,55.833512 1268,54.17088 1272.1935,46.084328 1273.7071,44.828131 1274.993,43.760892 1275.5869,43.98703 1277.3709,46.223319 1278.5419,47.691198 1282.0855,51.728947 1285.2457,55.196095 1288.4058,58.663243 1290.9933,62.0625 1290.9957,62.75 1291.006,65.719028 1288.0316,63.441065 1281.5293,55.5 1277.7014,50.825 1274.2278,47 1273.8104,47 1273.3929,47 1272.3321,48.390917 1271.453,50.090927 1270.0856,52.735096 1270.0545,53.421653 1271.2377,54.840927 1271.9984,55.753417 1274.5061,58.700855 1276.8104,61.39079 1282.2603,67.752789 1282.2037,70.005698 1276.4395,76.168099 1272.8366,80.019951 1272.0219,81.511437 1272.5593,83.271804 1275.4852,92.855574 1278.4254,94.623872 1278.5992,86.904327 1278.6537,84.481947 1278.7662,82.007942 1278.8492,81.406537 1278.9321,80.805132 1281.2421,78.422546 1283.9823,76.111902 1289.3524,71.583826 1290.4927,71.586164 1295.3756,76.135265 1297.9982,78.578598 1298.3753,78.525904 1303.5,75 1305.8982,73.35 1308.4754,72 1309.2272,72 1311.4412,72 1318.1919,79.573023 1318.2694,82.143722 1318.3085,83.439675 1317.9888,86.1875 1317.5589,88.25 1317.053,90.677683 1317.1436,92 1317.8159,92 1319.4967,92 1325,84.725588 1325,82.503825 1325,81.381557 1323.2,78.28509 1321,75.622785 1315.1,68.482949 1315.4442,66.515033 1324.1789,57.450224 1328.1272,53.352601 1331.7157,50 1332.1532,50 1333.4014,50 1336.1549,55.940368 1335.4416,57.09451 1335.0358,57.751066 1334.1132,57.507417 1332.9216,56.429023 1331.1498,54.825551 1331.0027,54.829421 1330.363,56.496346 1329.9898,57.469068 1330.2156,59.115534 1330.8648,60.15516 1331.8175,61.680627 1331.7515,62.158142 1330.5226,62.629683 1329.6852,62.951045 1328.2841,62.939279 1327.4092,62.603537 1326.5322,62.266987 1324.4964,62.934478 1322.8719,64.091229 1319.3258,66.616284 1319.6739,68.725979 1324.5302,74.139455 1329.1323,79.269565 1329.4953,81.171669 1326.7993,86.02899 1325.5347,88.307492 1323.7268,91.56969 1322.7818,93.278317 1320.1678,98.004602 1318.7001,98.340232 1315.4557,94.953734 z M 1288.3558,56.484921 C 1287.4141,54.030745 1287.3311,37.59796 1288.2309,31.75 L 1288.9617,27 1285.4151,27 C 1278.5214,27 1275.9889,23.898195 1278.6277,18.686655 1282.4488,11.140062 1285.0532,10.351749 1290.4652,15.103592 1294.5005,18.646612 1294.8527,21.092925 1292.3223,28 1291.1603,31.171576 1290.6392,36.100511 1290.5569,44.696636 1290.4433,56.558945 1289.7693,60.168416 1288.3558,56.484921 z M 1288.0657,22.964816 C 1290.5227,21.649902 1290.5257,19.785703 1288.0744,17.567335 1285.4632,15.204211 1282.7472,15.933995 1281.5569,19.318595 1280.7952,21.484384 1280.9037,22.327244 1282.0363,23.043566 1283.9545,24.256872 1285.694,24.234154 1288.0657,22.964816 z M 1323.0476,27.75 C 1322.4805,27.0625 1320.2163,24.155235 1318.0161,21.289411 1312.422,14.002784 1311.2675,13.550808 1304.2782,15.910749 1301.1002,16.983785 1297.7125,18.165981 1296.75,18.537851 1295.7401,18.928053 1295,18.752972 1295,18.123835 1295,16.685941 1303.6463,12.344574 1308.2183,11.486871 1313.6464,10.468544 1315.4812,11.510722 1320.6475,18.546805 1323.247,22.087208 1326.1898,25.242848 1327.187,25.559338 1328.1841,25.875829 1329,26.779451 1329,27.567388 1329,29.351855 1324.4834,29.490419 1323.0476,27.75 z M 1302.6922,60.25 C 1302.458,59.8375 1301.6971,55.759512 1301.0013,51.187804 1298.9309,37.584993 1301.2781,26.72127 1306.5745,25.391937 1311.3608,24.190666 1314.2524,26.054697 1317.6237,32.514542 1320.475,37.977957 1321.0063,38.474461 1323.7158,38.207186 1326.6522,37.91751 1329.6865,40.080214 1328.6642,41.734272 1328.3849,42.186307 1326.0099,42.543519 1323.3865,42.528077 L 1318.6166,42.5 1315.1599,35.75 C 1312.8148,31.170486 1311.1204,29 1309.8906,29 1307.0717,29 1304.1419,32.870725 1303.4455,37.515075 1302.784,41.926304 1304.7502,57 1305.9872,57 1306.3792,57 1308.5479,55.661339 1310.8065,54.025198 1316.2969,50.048011 1317.0803,51.919674 1312.0365,56.963525 1308.2872,60.712832 1303.8425,62.276058 1302.6922,60.25 z M 1329.2,36.8 C 1327.8437,35.443664 1327.5864,33 1328.8,33 1330.0462,33 1332,35.259054 1332,36.7 1332,38.326394 1330.7703,38.370311 1329.2,36.8 z"/>
</svg>
