<svg xmlns="http://www.w3.org/2000/svg"
     width="48.2" height="64.0"
     viewBox="1329.5328 15.0000 69.2178 91.9030">
  <path d="M 1352.6026,100.16594 C 1352.319,99.707209 1352.4839,95.319709 1352.9689,90.415941 1353.4538,85.512173 1354.1333,71.6 1354.4788,59.5 L 1355.107,37.5 1351.8017,32.100953 C 1349.9838,29.131476 1348.2722,26.667983 1347.9982,26.626523 1347.7242,26.585063 1345.2593,28.94667 1342.5206,31.874537 L 1337.5412,37.197933 1337.317,56.348967 C 1337.1938,66.882035 1337.072,80.820496 1337.0465,87.323324 1337.0044,98.035918 1336.8356,99.113924 1335.25,98.798314 1333.9542,98.540384 1333.5328,97.548109 1333.6262,94.97499 1333.6956,93.063746 1333.841,79.21765 1333.9493,64.20589 L 1334.1462,36.91178 1339.5306,30.877292 C 1342.4921,27.558323 1345.1763,24.019744 1345.4956,23.013783 1346.6787,19.286345 1348.98,19.881666 1351.7854,24.640849 1353.2784,27.173725 1355.2186,30.167261 1356.097,31.293151 1357.6852,33.329 1357.7161,33.32236 1361.7482,30.082089 1365.1684,27.333585 1366.1272,26.997726 1367.8784,27.934896 1372.2587,30.279178 1373.1709,35.241761 1369.9695,39.311594 1368.3899,41.31983 1366.8913,41.960296 1363.2195,42.196453 1358.5831,42.494656 1358.4947,42.563739 1358.1974,46.120359 1357.9155,49.492342 1358.1607,49.847158 1361.7722,51.292194 1367.9331,53.757279 1372.4842,54.346979 1373.6128,52.826422 1375.2885,50.568851 1378.7925,37.808348 1379.469,31.5 1380.3088,23.669518 1381.8215,19 1383.5185,19 1385.303,19 1385.8498,19.985132 1387.4154,26.020672 1389.1375,32.659646 1387.898,45.894574 1384.5881,56.208913 1380.6098,68.606469 1380.9652,68.255711 1373.1764,67.469523 1369.5044,67.098873 1365.1934,66.166601 1363.5964,65.397807 1359.5755,63.462153 1358.3297,63.640096 1357.6303,66.25 1357.0014,68.596632 1356.7459,86 1357.3403,86 1357.5274,86 1360.4466,84.617812 1363.8272,82.928471 1370.7849,79.4517 1372.9008,79.64756 1376.0421,84.059141 1378.5934,87.642164 1379.7024,87.691258 1386,84.5 1392.2731,81.321204 1394.3719,81.348948 1390.5,84.559484 1382.812,90.934239 1378.1561,91.498615 1373.8044,86.583268 1370.8299,83.223554 1370.7165,83.188754 1367.0059,84.49792 1364.9304,85.230181 1361.6106,86.880211 1359.6286,88.164652 1356.7093,90.056387 1356.0224,91.120556 1356.0124,93.766846 L 1356,97.033692 1360.9668,94.516846 C 1366.6242,91.650003 1369.2329,91.370723 1370.9563,93.447375 1371.617,94.243431 1374.1299,95.647993 1376.5405,96.568624 L 1380.9235,98.2425 1387.0573,95.050179 C 1390.431,93.294402 1393.4373,92.103965 1393.7381,92.404763 1394.7506,93.41727 1391.9544,95.784641 1386.466,98.561499 1381.3786,101.1355 1380.7289,101.23534 1376.775,100.05074 1374.4442,99.352395 1371.501,97.966064 1370.2347,96.970008 1367.6725,94.95454 1365.5646,95.297238 1358.2983,98.91059 1353.5549,101.2694 1353.3169,101.32184 1352.6026,100.16594 z M 1342.4957,99.992965 C 1342.0941,99.343251 1342.1132,91.316541 1342.538,82.155833 1342.9629,72.995125 1343.4026,59.2 1343.5151,51.5 1343.749,35.498157 1343.704,36 1344.9052,36 1346.4554,36 1347.5316,50.008541 1346.8257,61 1346.4549,66.775 1345.9597,77.710188 1345.7253,85.300418 1345.3268,98.204986 1344.2941,102.90297 1342.4957,99.992965 z M 1377.3427,64.134117 C 1382.5341,62.090682 1388.1061,31.706109 1384.0358,27.635831 1382.9646,26.564642 1382.8935,26.767686 1382.4956,32.031791 1382.2139,35.758141 1380.1514,43.916682 1377.6638,51.144849 1375.5172,57.382204 1375.412,57.497163 1371.9884,57.346934 1367.22,57.137702 1362.9375,56.504898 1360.25,55.61242 1358.3287,54.974381 1358,55.220443 1358,57.296754 1358,59.791696 1360.7945,61.319019 1370,63.855308 1374.2633,65.029919 1374.9962,65.057747 1377.3427,64.134117 z M 1368.5495,35.844042 C 1369.1917,33.820742 1367.5277,31 1365.692,31 1364.1747,31 1360,35.110698 1360,36.604763 1360,39.493298 1367.6061,38.816522 1368.5495,35.844042 z M 1387.5,89.469004 C 1390.6013,86.926882 1393,86.275015 1393,87.97432 1393,89.09765 1387.7305,92.017466 1385.7997,91.964037 1385.0848,91.944257 1385.85,90.821493 1387.5,89.469004 z"/>
</svg>
