<svg xmlns="http://www.w3.org/2000/svg"
     width="46.8" height="64.0"
     viewBox="771.0831 13.1772 67.8544 92.8228">
  <path d="M 833.71875 54.46875 C 833.22095 54.298095 832.54453 54.020372 831.40625 53.125 C 827.93219 50.392301 826.12109 50.45136 822.03125 53.46875 C 820.19231 54.825477 818.31167 55.695436 817.84375 55.40625 C 817.37584 55.117063 817 51.773611 817 47.96875 C 817 41.66473 817.21751 40.891019 819.53125 39.375 C 822.66929 37.318876 826.33568 29.606458 825.46875 26.875 C 825.11959 25.774891 824.52208 25.038259 824.15625 25.21875 C 823.79042 25.39924 821.3287 26.651679 818.6875 28 C 812.94648 30.930778 811.76866 29.98491 812.6875 23.28125 C 813.4198 17.93859 811.93358 17.177176 805.28125 19.4375 C 797.35728 22.1299 792 27.981115 792 33.9375 C 792 38.628799 793.67542 40.887555 799.125 43.46875 C 803.07931 45.341714 803.54367 45.936411 804.0625 49.8125 C 804.37812 52.170405 804.33219 54.287319 803.9375 54.53125 C 803.54281 54.775182 801.59077 54.321348 799.625 53.5 C 792.88318 50.683087 787.41541 51.988376 781.25 57.90625 C 777.8066 61.211401 776.13582 65.210068 775.5625 71.40625 C 775.08314 76.586942 775.20219 77.145011 777.25 77.90625 C 780.42422 79.086213 781.49837 78.407573 783.5 73.96875 C 786.68951 66.895661 791.86291 64.544538 796.375 68.09375 C 799.44884 70.51163 799.66654 73.189971 797.4375 81.03125 C 794.58875 91.05252 794.54175 90.439846 798.15625 92.03125 C 800.23789 92.947759 802.35431 95.087656 803.8125 97.75 C 805.09278 100.0875 806.57688 102 807.09375 102 C 808.50711 102 811.99574 95.826957 812 93.3125 C 812.00206 92.100879 811.49554 89.986946 810.875 88.625 C 809.93276 86.557002 810.08361 85.697927 811.8125 83.5 C 812.95111 82.052485 814.4239 78.430699 815.09375 75.4375 C 816.03448 71.233873 817.06531 69.428538 819.59375 67.5 C 823.94247 64.183074 825.66692 64.329814 829.65625 68.4375 C 830.59283 69.401868 831.19633 70.163646 831.6875 70.90625 L 833.1875 65.53125 C 832.4668 65.107046 832.03477 64.988305 831.03125 64.3125 C 824.84014 60.143161 823.17341 60.338404 816.8125 65.9375 C 812.96077 69.327925 812.19141 70.615097 811.75 74.53125 C 811.39625 77.669758 810.39817 80.022842 808.59375 81.90625 C 806.30565 84.294508 806.07462 85.054518 806.96875 87.40625 C 807.53823 88.904118 808 91.570631 808 93.3125 L 808 96.46875 L 805.46875 92.71875 C 804.07392 90.666076 802.30396 89 801.53125 89 C 799.05763 89 798.98336 87.383949 801.15625 80.15625 C 803.01271 73.981124 803.11438 72.703302 801.96875 69.9375 C 800.22899 65.73735 797.1828 63 794.21875 63 C 790.31466 63 784.97199 66.079292 782.65625 69.65625 C 779.70812 74.210015 777.55814 74.117339 778.3125 69.46875 C 780.17366 57.999787 792.74295 51.910194 801.21875 58.375 C 803.1198 59.825 805.50789 61 806.5 61 C 808.13597 61 808.23407 60.275318 807.6875 53.1875 C 806.84563 42.270373 805.83764 40 801.84375 40 C 792.15495 40 793.23499 28.436746 803.375 23.625 C 808.9965 20.957422 810.34662 21.370758 809.65625 25.625 C 808.54589 32.46734 812.44959 34.888419 819.0625 31.46875 C 823.3918 29.229984 822.8355 31.538298 817.96875 36.03125 L 813.9375 39.75 L 814.21875 49.625 C 814.55493 61.145374 815.17412 61.729648 822.0625 57.0625 C 824.51098 55.403554 826.82851 54.041259 827.21875 54.03125 C 827.60899 54.021242 828.99265 55.170353 830.3125 56.59375 C 831.85012 58.252007 833.40365 58.966264 834.9375 58.8125 L 833.71875 54.46875 z M 801.59375 73 C 801.8099 73 802 73.675 802 74.5 C 802 75.325 801.56399 76 801.03125 76 C 800.49852 76 800.30842 75.325 800.625 74.5 C 800.94159 73.675 801.37759 73 801.59375 73 z "/>
</svg>
