<svg xmlns="http://www.w3.org/2000/svg"
     width="35.2" height="64.0"
     viewBox="243.7573 16.3097 51.2427 93.1116">
  <path d="M 256.95925,101.30081 C 250.16073,93.557723 247.75728,83.562617 250.34832,73.808254 251.84496,68.17391 257.49512,55.995164 260.90328,51.057377 262.11809,49.297345 262.43942,47.720544 261.9339,46 260.27715,40.361266 260.9465,32.808685 263.58003,27.42595 264.99905,24.525583 266.79905,21.907354 267.58003,21.607663 269.58347,20.838872 269.36104,22.116871 266.5,27.813065 263.78452,33.219469 263.31588,38.996081 265.07794,45.341833 266.02265,48.744045 265.86869,49.602271 263.73251,52.841833 262.40579,54.853825 260.59973,57.681221 259.71904,59.124936 257.36236,62.988237 253.39261,73.093697 252.62564,77.181991 251.77875,81.696279 254.32753,91.771971 256.98982,94.434265 258.96486,96.409306 258.97059,96.398357 258.81026,90.957773 258.56038,82.478297 259.98139,75.066495 263.15678,68.287009 266.32793,61.51658 270.47465,56 272.39273,56 276.51297,56 284,70.380057 284,78.293654 284,80.267225 284.39777,82.127804 284.88394,82.428274 286.60393,83.491284 288.2994,76.761085 288.15994,69.424136 287.99434,60.71168 286.01096,56.775598 278.59896,50.450097 L 273.97037,46.5 276.12451,38.5 C 278.42726,29.948099 283.26243,22.083708 286.25,22.030921 288.75673,21.986629 288.421,23.222475 285.04859,26.453451 283.42531,28.008649 281.80865,30.68034 281.45602,32.390542 281.10338,34.100744 280.09533,37.582769 279.21591,40.128376 L 277.61696,44.756751 282.59181,49.628376 C 289.52565,56.418342 291,60.021895 291,70.179341 291,77.643278 290.63055,79.327344 287.61068,85.628752 284.35608,92.419965 281.64497,95.044972 279.79562,93.195622 279.30236,92.702364 279.37477,91.14448 279.96284,89.59774 281.20104,86.341037 281.34811,74.797757 280.16858,73.45 279.7113,72.9275 278.79269,70.585681 278.12723,68.245958 276.88932,63.893559 273.1278,60.353246 270.72216,61.276375 270.01086,61.549327 268.01004,64.682619 266.2759,68.239246 262.10117,76.801378 260.99181,85.296092 262.71561,95.501668 263.78704,101.84501 263.79772,103.51105 262.77112,104.16262 260.78798,105.42128 260.41644,105.23833 256.95925,101.30081 z M 269.29824,38.564502 C 269.91365,29.844099 272.60347,22.473128 275.58831,21.327739 278.24121,20.309726 278.26613,21.784528 275.6539,25.209337 273.52453,28.001081 272.9914,30.065906 272.40944,37.775016 271.86299,45.01363 271.38897,47 270.20799,47 268.93982,47 268.79663,45.672332 269.29824,38.564502 z"/>
</svg>
