<svg xmlns="http://www.w3.org/2000/svg"
     width="64.0" height="58.4"
     viewBox="1222.8271 14.9455 101.0972 92.2252">
  <path d="M 1283.2584,89 C 1283.7957,89 1286.0353,90.8 1288.2353,93 1290.4353,95.2 1292.4074,97 1292.6176,97 1292.8279,97 1293,95.605544 1293,93.90121 1293,91.711663 1292.0714,89.934947 1289.8351,87.845988 L 1286.6703,84.889555 1289.7719,78.657409 C 1293.1461,71.877566 1300.3675,63 1302.5083,63 1306.5078,63 1313.9237,73.183382 1313.978,78.75 1314.0099,82.011103 1315.7288,81.511036 1316.4962,78.017453 1317.8626,71.796052 1312.5768,56.927343 1308.7357,56.187609 1307.795,56.00646 1303.4212,57.296515 1299.0161,59.054396 1289.3009,62.931296 1287.9971,62.407103 1288.0056,54.627555 1288.0137,47.18249 1289.783,41.937774 1293.4423,38.511688 1297.8518,34.383251 1304.4624,31.046655 1306.9457,31.696053 1308.5359,32.111905 1309,31.759412 1309,30.135683 1309,26.299225 1304.7707,26.396862 1297.6151,30.398513 1289.5433,34.912516 1287.6257,34.970342 1285.9595,30.75 1284.2846,26.50791 1281.0959,23 1278.9146,23 1276.3474,23 1272,28.684691 1272,32.041542 1272,35.353311 1274.2912,37 1278.8991,37 1283.2633,37 1284.3324,39.640475 1283.4966,48.354321 1282.7975,55.643142 1280.9848,60 1278.6513,60 1277.9348,60 1276.2917,58.875 1275,57.5 1272.002,54.308741 1270.9818,54.356705 1264.3412,58.001124 1257.678,61.65789 1256.0655,61.086448 1254.0298,54.34698 1252.1954,48.27395 1252.4066,42.571355 1254.8202,33 1255.8604,28.875 1256.5111,25.275 1256.2661,25 1255.3685,23.992272 1251.4339,30.091456 1249.0336,36.211441 1246.0069,43.928692 1246.0711,50.048941 1249.2728,59.009957 1252.0497,66.782123 1253.314,67.24586 1261.3516,63.44026 1268.6051,60.005863 1271.1648,60.613576 1275.0146,66.684127 1278.4897,72.163736 1281.3509,81.318933 1280.4629,84.117004 1280.116,85.20999 1278.2949,87.503099 1276.4161,89.212803 1274.3222,91.118182 1273,93.259691 1273,94.745665 1273,97.072847 1273.1859,97.006315 1277.6408,93.084987 1280.1932,90.838244 1282.7212,89 1283.2584,89 z M 1238.5265,76.193128 C 1238.2186,75.885241 1237.4117,76.192494 1236.7333,76.875912 1235.7531,77.863528 1235.8679,77.978392 1237.2931,77.435707 1238.2793,77.060176 1238.8343,76.501015 1238.5265,76.193128 z M 1235,76.055764 C 1235,75.536434 1233.8892,73.848934 1232.5316,72.305764 1230.3933,69.875161 1230.059,69.756893 1230.0316,71.421259 1230.0142,72.477952 1230.7447,74.165452 1231.655,75.171259 1233.4483,77.152866 1235,77.563169 1235,76.055764 z M 1269.424,99.553107 C 1268.4802,95.792858 1270.8047,90.24109 1274.5861,87.223871 1276.4637,85.725742 1278,83.717327 1278,82.760727 1278.0001,77.841944 1270.4211,64 1267.7278,64 1264.5281,64 1255.9689,69.314254 1253.9766,72.53794 1252.765,74.498246 1250.6997,76.805907 1249.3869,77.666076 1247.4673,78.923813 1247,80.094853 1247,83.647129 1247,88.617172 1244.7095,95 1242.926,95 1242.0948,95 1241.9945,94.047016 1242.5839,91.75 1243.0425,89.9625 1243.3999,86.1375 1243.3781,83.25 1243.3563,80.3625 1243.6243,78 1243.9738,78 1245.0677,78 1252,71.282139 1252,70.222118 1252,69.667641 1251.3054,68.94745 1250.4565,68.621695 1249.4613,68.2398 1247.7741,69.342481 1245.7065,71.72596 1243.9429,73.75906 1241.7125,76.227443 1240.75,77.211253 1239.6116,78.374884 1239,80.560764 1239,83.466073 1239,87.783556 1236.4184,95 1234.8738,95 1233.2239,95 1233.1076,93.091683 1234.5778,90.144519 1235.4279,88.440396 1235.9832,85.348237 1235.8117,83.273056 1235.5559,80.177002 1235.0755,79.439941 1233.1342,79.165277 1231.833,78.98118 1230.5444,77.973741 1230.2705,76.926525 1229.9967,75.879308 1229.4062,75.248968 1228.9583,75.525768 1227.5742,76.381208 1226.8271,72.191506 1227.9798,70.037773 1229.6054,67.000242 1232.4946,67.563537 1235.7891,71.560323 L 1238.7238,75.120646 1242.8619,70.419533 C 1247.3516,65.319023 1247.7986,63.15567 1245.5,57.654243 1243.5801,53.059186 1243.6,43.732096 1245.5417,38.157013 1249.0988,27.943379 1253.8192,21 1257.2057,21 1260.1254,21 1260.3169,23.287105 1258.08,31.440752 1255.5981,40.487273 1255.3816,49.903446 1257.5587,54.113439 1258.4159,55.771205 1259.4662,56.986358 1259.8925,56.813779 1260.3189,56.641201 1263.1929,55.159705 1266.2793,53.521566 L 1271.8908,50.543133 1274.9049,52.771566 C 1279.2055,55.951176 1280,55.586733 1280,50.434259 1280,47.923101 1280.4512,45.025411 1281.0027,43.994947 1282.26,41.64565 1281.2584,40.961321 1275.6967,40.369596 1270.0951,39.773626 1267.619,36.877066 1268.3097,31.728025 1268.9386,27.038998 1272.8638,21.713254 1276.9332,20.027661 1279.5459,18.945457 1280.3649,19.009052 1282.5898,20.466912 1284.0208,21.404477 1285.9359,23.516665 1286.8457,25.160661 1290.4757,31.719732 1289.9491,31.628464 1298.1608,27.121617 1302.2912,24.854727 1306.5764,23 1307.6834,23 1310.1903,23 1313.3081,29.415856 1312.8315,33.593904 1312.5144,36.373603 1312.2809,36.5 1307.4621,36.5 1302.4347,36.5 1300.0106,37.560021 1295.0445,41.93022 1293.0268,43.705776 1292.5157,45.241908 1292.178,50.54553 1291.7111,57.878181 1292.0081,58.087694 1298.616,55.086926 1305.2717,52.064428 1308.7639,51.615276 1311.5278,53.426244 1314.8421,55.597881 1317.6097,61.332978 1318.974,68.85655 1319.9243,74.097101 1319.8301,76.243496 1318.3896,82.170236 1316.7514,88.910383 1312.7598,95.587606 1311.0138,94.508547 1310.5717,94.235296 1310.6436,92.096589 1311.1737,89.755864 1313.5025,79.47211 1307.257,65.152475 1301.4198,67.392389 1299.1051,68.280625 1292,80.077609 1292,83.032592 1292,84.529977 1292.6718,86.31263 1293.4928,86.994044 1295.8852,88.979511 1297.2905,95.582129 1295.8877,98.245823 1294.6977,100.50548 1293.111,101.95605 1291.798,101.98469 1291.412,101.99311 1289.7028,99.975 1288,97.5 1286.2315,94.929552 1284.118,93 1283.071,93 1282.0629,93 1279.4257,95.025 1277.2106,97.5 1272.6922,102.54833 1270.3319,103.17067 1269.424,99.553107 z"/>
</svg>
