<svg xmlns="http://www.w3.org/2000/svg"
     width="62.0" height="64.0"
     viewBox="1145.4756 12.0664 90.6476 93.6153">
  <path d="M 1206.3005,25.659316 C 1206.5834,24.92194 1206.4359,23.705236 1205.9725,22.95553 1205.2614,21.804957 1204.7321,21.805436 1202.5774,22.958599 1200.6047,24.014329 1200.2769,24.628722 1201.1348,25.662385 1202.567,27.388177 1205.6378,27.386353 1206.3005,25.659316 z M 1172.4472,27.08541 C 1173.038,26.129544 1167.0977,22 1165.132,22 1163.634,22 1163.6805,25.280515 1165.2,26.8 1166.6096,28.209562 1171.6302,28.407287 1172.4472,27.08541 z M 1186.0182,94.376049 C 1188.406,93.420648 1190.6584,91.627399 1191.4896,90.020134 1192.757,87.56927 1192.6924,86.896506 1190.8621,83.481616 1188.2137,78.540239 1187.3337,70.070423 1189.0236,65.785914 1191.047,60.655764 1194.8981,56 1197.1181,56 1198.9548,56 1202.8545,58.705163 1209.7321,64.75 1211.1401,65.9875 1213.341,67 1214.623,67 1215.948,67 1217.5738,66.028999 1218.3903,64.75 1223.8494,56.198481 1228.4303,36.772515 1227.0564,28 L 1226.3517,23.5 1225.6502,28.5 C 1223.8903,41.044798 1222.2162,46.815295 1217.7068,55.880173 1217.0555,57.189269 1215.4547,58.746976 1214.1493,59.341745 1211.6728,60.470108 1210.0125,59.102237 1203.3395,50.435698 1201.255,47.728448 1201.0345,47.673085 1197.0689,48.861197 1194.8084,49.538474 1192.5355,49.830986 1192.0182,49.511225 1189.8803,48.189952 1189.8681,42.097539 1191.9883,34.541837 1194.3784,26.023824 1194.6238,26.83565 1188.3171,22.394923 1185.8923,20.687565 1183.7972,21.356605 1180.6384,24.847058 1178.882,26.787839 1178.8755,27.10905 1180.4932,31.979441 1181.7476,35.7563 1182.009,38.614147 1181.5006,42.994436 1180.6648,50.19628 1179.2634,51.704712 1175.3087,49.659614 1173.7494,48.853292 1170.4546,47.893458 1167.9868,47.52665 1163.889,46.917545 1163.227,47.127656 1160.3506,49.950195 1155.7277,54.486534 1153,60.994955 1153,67.489102 1153,70.520096 1153.3567,73 1153.7926,73 1154.2285,73 1155.1452,70.906207 1155.8296,68.347126 1157.9146,60.551566 1165.2749,53 1170.7881,53 1173.366,53 1178,62.579524 1178,67.908537 1178,70.127477 1176.875,74.486798 1175.5,77.595917 1174.125,80.705036 1173,83.920077 1173,84.740453 1173,86.524558 1179.787,96 1181.0649,96 1181.557,96 1183.7859,95.269222 1186.0182,94.376049 z M 1193.3564,98.275479 1191.3222,95.550957 1187.037,97.483316 C 1182.6389,99.466602 1178.5495,99.700963 1176.5983,98.081563 1175.908,97.508654 1174.7845,97.684414 1173.5998,98.550651 1170.9223,100.50853 1169.9888,99.48994 1171.2933,96.033842 1172.8445,91.924371 1171.3016,90.951966 1168.4629,94.25 1167.1611,95.7625 1165.6243,97 1165.048,97 1163.1829,97 1163.9352,94.409509 1166.5,92 1168.0348,90.558135 1169,88.548792 1169,86.795554 1169,85.224854 1170.125,81.266854 1171.5,78 1174.5267,70.808939 1174.6747,65.242803 1171.9797,59.960162 1170.6594,57.372186 1170.3706,56 1171.1463,56 1171.7992,56 1172.057,55.72367 1171.7193,55.385932 1170.5885,54.255216 1164.126,59.059984 1161.8719,62.70731 1160.646,64.690883 1159.1268,68.6057 1158.496,71.406903 1156.6675,79.526766 1151.6989,78.843707 1150.4172,70.296261 1149.4756,64.017439 1151.4113,56.347441 1155.4516,50.347932 1160.0444,43.528028 1163.1809,42.295633 1170.9587,44.254862 1174.2331,45.079684 1177.1569,45.509767 1177.4561,45.210602 1178.4639,44.202748 1178.0103,35.11666 1176.8219,32.508415 1175.9928,30.688775 1175.1781,30.132698 1174.0719,30.631458 1173.2073,31.021262 1170.6908,31.525744 1168.4796,31.75253 1163.5229,32.260893 1161.0123,29.947357 1160.8146,24.689205 1160.5453,17.524811 1164.9768,16.066432 1171.7903,21.077154 L 1175.9746,24.154308 1178.8261,22.123834 C 1180.3944,21.007074 1182.2553,19.397354 1182.9613,18.54668 1184.9168,16.190339 1187.8777,16.685424 1191.6528,20 1195.6396,23.50049 1197.0568,23.69969 1199.4173,21.091375 1200.3673,20.041631 1202.4625,18.636869 1204.0732,17.96968 1207.7833,16.432892 1209.5352,17.708727 1210.4562,22.618323 1211.4034,27.666966 1209.0491,31 1204.536,31 1202.6561,31 1200.8399,30.55 1200.5,30 1199.3408,28.12437 1198.1798,28.997122 1196.0892,33.315724 1193.8979,37.842443 1193.2396,46 1195.0657,46 1195.6519,46 1197.0438,45.511736 1198.1589,44.914969 1201.5769,43.085701 1204.508,44.685485 1208.3555,50.480222 1210.3712,53.5161 1212.4941,56 1213.0729,56 1216.0418,56 1223,33.957407 1223,24.552595 1223,20.765632 1223.3158,20 1224.8776,20 1232.1232,20 1231.9385,41.270459 1224.5392,58.962274 1222.5926,63.616525 1221,67.576987 1221,67.763301 1221,67.949615 1219.4147,68.764424 1217.4772,69.573989 1213.3164,71.312465 1212.2651,70.908845 1203.7152,64.290569 1200.5336,61.827737 1197.2974,60.055652 1196.5235,60.352603 1194.1882,61.248746 1192.0494,65.360607 1191.3806,70.239751 1190.5504,76.297166 1193.6478,82.988203 1199.9082,88.660617 1203.5851,91.992275 1204.2536,93.075491 1203.2632,94.097373 1202.2644,95.128012 1201.5787,94.95283 1199.6988,93.186756 1195.198,88.958454 1191.9472,91.186028 1196.1265,95.634668 1197.3303,96.916062 1197.9948,98.571174 1197.6579,99.449119 1196.8012,101.68169 1195.6688,101.37272 1193.3564,98.275479 z"/>
</svg>
