<svg xmlns="http://www.w3.org/2000/svg"
     width="62.2" height="64.0"
     viewBox="408.8603 11.0000 94.1397 96.9222">
  <path d="M 481,100.45203 C 481,99.314855 486.56689,95.061877 488.09501,95.031601 490.56287,94.982707 493.61094,98.789065 492.21875,100.18125 491.37343,101.02657 490.68459,100.98313 489.51277,100.0106 488.29165,98.997158 487.37887,98.961977 485.42333,99.852978 482.70172,101.09303 481,101.32349 481,100.45203 z M 476,25.940983 C 476,25.423442 475.55,25 475,25 474.45,25 474,25.701558 474,26.559017 474,27.416476 474.45,27.839919 475,27.5 475.55,27.160081 476,26.458524 476,25.940983 z M 450.42862,28.115495 C 450.72928,27.629017 450.38448,25.524531 449.66241,23.438861 448.67357,20.582665 448.18971,20.063241 447.70196,21.334304 446.34802,24.862598 448.74885,30.833426 450.42862,28.115495 z M 446.00022,98.339288 C 444.3501,95.737321 443,92.836949 443,91.894017 443,90.951085 444.714,88.001686 446.8089,85.339798 450.84103,80.216342 452.49207,77 451.08994,77 450.62392,77 449.68963,75.66492 449.01373,74.033156 446.81499,68.724907 445.69492,68.55887 440.10091,72.711923 436.06741,75.706434 434.65373,77.536802 433.35273,81.449161 431.34316,87.492348 431.36676,91.257838 433.43269,94.207359 435.06317,96.535205 435.55238,100.00132 434.25,99.998212 433.8375,99.997228 432.20334,97.944035 430.61854,95.435559 L 427.73708,90.874694 429.51082,84.187347 C 431.93633,75.042727 432.16805,74.696848 439.67728,69.012211 447.27083,63.26375 447.59296,63.332778 451.47581,71.540439 454.87721,78.73042 454.67992,80.713867 450,86.377215 447.8,89.039519 446,91.593676 446,92.05312 446,92.512564 447.11078,94.151066 448.4684,95.694236 L 450.9368,98.5 450.9684,94.945781 C 451.00377,90.967131 455.65769,82.788751 458.86233,81.073679 460.52252,80.185172 461.21139,80.45328 462.95117,82.665057 465.72868,86.196079 466.33511,88.988388 465.05546,92.354133 463.61134,96.152442 463.71003,99.048504 465.26326,98.452473 466.42379,98.007136 471,89.227062 471,87.445767 471,87.021897 469.61419,84.515492 467.92042,81.875978 464.27634,76.197173 464.47306,75.23356 470.64458,68.531933 L 475.21968,63.563867 479.60984,68.344745 484,73.125623 484,82.082683 C 484,89.874795 483.68012,91.546464 481.54052,94.935812 476.84164,102.37933 474.26829,101.59771 478.41143,93.9854 480.86623,89.47513 481.1018,88.193304 480.71273,81.463435 480.09433,70.766865 476.16705,66.999926 471.17431,72.314451 468.49141,75.170276 468.42921,77.389653 470.93351,80.906624 474.32853,85.674493 474.44636,88.420714 471.50415,94.207202 470.024,97.118241 467.74203,100.29948 466.4331,101.27661 464.14124,102.98752 463.98098,102.98098 462.0998,101.0998 460.29021,99.290208 460.24162,98.736662 461.43986,93.581982 462.48049,89.105341 462.48734,87.681151 461.47489,86.296541 460.39214,84.815792 459.98426,84.768175 458.55362,85.955503 456.0683,88.018128 454.7356,90.988259 454.37221,95.274354 453.99066,99.774736 453.55551,100.63233 450.94452,102.02969 449.26086,102.93076 448.59852,102.43639 446.00022,98.339288 z M 426.21652,100.32268 424.26623,97.645366 420.66109,99.772453 C 418.53183,101.02875 416.80857,101.49928 416.45169,100.92183 415.81633,99.893793 418.85211,97.014793 422.89363,94.812583 424.99393,93.668139 425.42285,93.74095 426.39363,95.406728 427.00213,96.450862 428.2875,98.011503 429.25,98.874818 430.2125,99.738133 431,101.01947 431,101.72224 431,103.92222 428.25317,103.11855 426.21652,100.32268 z M 413.35654,97.486747 C 412.86027,96.193482 413.92575,94.641473 417.38799,91.614447 422.30791,87.312976 423.5668,84.055104 425.45009,70.750526 426.18236,65.577378 426.12645,65.634834 437.5,58.367359 442.50845,55.167056 445.21127,54.031659 447,54.376603 453.20081,55.572382 453.38751,55.532406 454.37604,52.797246 454.9946,51.085743 455.01308,48.335073 454.42643,45.297246 453.53969,40.705522 453.36753,40.512545 450.40798,40.792814 446.41991,41.170483 444.50584,38.990636 445.55237,35.262986 445.97901,33.743344 446.19845,32.05 446.04003,31.5 444.34479,25.614751 444.08367,22.402976 445.01827,18.932167 445.60062,16.769475 446.47294,15 446.95676,15 449.12102,15 451,16.35506 451,17.915859 451,18.851894 451.64157,20.491249 452.42572,21.55887 453.81556,23.451149 453.92389,23.430792 456.73044,20.75 460.49288,17.156138 463.89296,17.235066 467.5,21 469.0808,22.65 470.73869,24 471.18421,24 471.62973,24 473.79553,22.372637 475.99712,20.383638 479.37157,17.335027 480.02442,17.060285 480.15552,18.633638 480.46868,22.391588 479.84717,25.303621 478.19322,27.827867 477.11886,29.467548 476.50036,32.430117 476.50022,35.937233 L 476.5,41.463093 471.65225,42.162631 C 466.23468,42.944395 464.91571,43.711835 466.89126,44.932794 467.89997,45.55621 468.05161,47.247267 467.51411,51.878421 466.70042,58.889205 467.52108,59.481927 473.22583,56.003738 475.02662,54.905794 477.26832,54.005794 478.20737,54.003738 480.2113,53.999351 484.02274,58.544758 489.25,67.172828 492.65897,72.799643 493,74.014477 493,80.531234 493,86.909471 493.33079,88.15657 496,91.841303 497.65,94.119061 499,96.661579 499,97.491341 499,99.581297 496.08146,99.391327 495.29223,97.25 494.93748,96.2875 493.48911,93.960029 492.07362,92.077842 489.82102,89.08255 489.5,87.682305 489.5,80.852152 489.5,73.15386 489.43257,72.947545 484.5,65.554018 479.0402,57.370218 476.10807,56.013126 472.5,60 469.98904,62.774582 467.15156,62.528832 465.97525,59.4349 464.621,55.872948 464.73033,39.669667 466.11798,38.282017 466.7489,37.651096 468.70938,37.403136 470.61798,37.712859 475.16308,38.450426 475.04875,36.798426 470.03514,29.290478 466.80514,24.453514 462.84382,21 460.52562,21 460.00799,21 448,35.849985 448,36.490128 448,36.770558 449.9846,37 452.41023,37 L 456.82046,37 457.51783,45.371849 C 458.21605,53.753812 457.62479,59.495827 455.95736,60.526353 455.46854,60.828462 453.36566,60.213548 451.2843,59.159879 447.22855,57.106698 444.26602,57.544291 440.76368,60.713869 438.82518,62.468186 435.76948,64.340145 432.23771,65.936983 429.63236,67.114953 428.61316,69.320257 427.12482,77 424.80093,88.991179 424.60803,89.417798 419.26555,94.381382 414.80647,98.52421 413.93117,98.984209 413.35654,97.486747 z"/>
</svg>
