<svg xmlns="http://www.w3.org/2000/svg"
     width="44.6" height="64.0"
     viewBox="1346.0803 12.5003 67.9667 97.5943">
  <path d="M 1350.4401,42.25 C 1351.8811,38.394413 1362.5152,20 1363.3032,20 1364.6422,20 1363.8693,21.818762 1357.6723,33.25 1354.4671,39.1625 1351.3814,44 1350.8153,44 1350.2492,44 1350.0803,43.2125 1350.4401,42.25 z M 1352,76.981661 C 1352,75.091577 1358.0181,63.65345 1366.4593,49.5 1370.3955,42.9 1375.7412,33.580585 1378.3385,28.79019 1383.0904,20.026102 1385.9133,16.500339 1384.476,21.124771 1383.4671,24.370748 1376.3543,37.568187 1372.8585,42.680175 1371.2863,44.979272 1370,47.108034 1370,47.410758 1370,47.713482 1368.5183,50.332403 1366.7074,53.230583 1364.8965,56.128762 1362.8811,59.7375 1362.2288,61.25 1361.5766,62.7625 1360.5832,64 1360.0214,64 1359.4596,64 1359,64.655197 1359,65.455994 1359,66.25679 1357.6023,69.29429 1355.8939,72.205994 1352.215,78.476281 1352,78.739935 1352,76.981661 z M 1356,102.18374 C 1356,101.64313 1357.8027,98.343128 1360.006,94.850405 1362.2094,91.357682 1364.3076,87.825 1364.6688,87 1365.0299,86.175 1366.0813,84.375 1367.0052,83 1367.9291,81.625 1369.9821,78.025 1371.5676,75 1373.153,71.975 1375.4739,68.107524 1376.7251,66.405609 1377.9763,64.703694 1379,62.973161 1379,62.55998 1379,62.146798 1379.8474,60.614274 1380.883,59.15437 1383.124,55.995342 1386.7789,49.283003 1395.0962,33.051646 1398.4831,26.441859 1401.8829,20.512109 1402.6513,19.874425 1404.648,18.217308 1405.6563,19.719437 1404.1579,22.118838 1403.4613,23.234172 1401.921,26.008607 1400.7348,28.284248 1399.5487,30.559888 1397.7731,33.226877 1396.7891,34.210888 1395.8051,35.1949 1395,36.753063 1395,37.673473 1395,38.593883 1391.8207,44.733673 1387.935,51.317451 1384.0492,57.90123 1378.6236,67.610667 1375.8781,72.893979 1373.1325,78.17729 1370.2438,82.994495 1369.4586,83.598877 1368.6735,84.203259 1368.3049,84.971545 1368.6395,85.306179 1369.4071,86.073771 1365.2542,93.235879 1363.4382,94.276447 1362.6929,94.703493 1362.3099,95.643896 1362.587,96.366233 1363.1004,97.703908 1361.3109,99.760968 1359.5,99.914963 1358.95,99.961733 1358.5,100.525 1358.5,101.16667 1358.5,101.80833 1357.9375,102.52083 1357.25,102.75 1356.5625,102.97917 1356,102.72435 1356,102.18374 z M 1372.5475,100.75 C 1372.9228,99.5125 1374.0343,97.6 1375.0174,96.5 1376.8498,94.449861 1379.7201,89.693646 1383.5652,82.336038 1384.762,80.045859 1386.6902,76.839493 1387.8499,75.21078 1389.0097,73.582067 1391.4508,69.15585 1393.2746,65.374742 1395.0984,61.593634 1397.7572,56.7 1399.1829,54.5 1400.6087,52.3 1403.472,47.8 1405.5458,44.5 1407.6197,41.2 1409.4984,39.034585 1409.7209,39.687967 1410.047,40.646018 1404.4768,51.623651 1399.9215,59 1399.4121,59.825 1398.5554,61.517793 1398.0179,62.761763 1397.4804,64.005732 1395.2314,67.807708 1393.0203,71.210598 1390.8091,74.613488 1389,77.794435 1389,78.279368 1389,78.764301 1387.5244,81.487325 1385.7208,84.330532 1383.9173,87.17374 1381.5887,91.075 1380.5463,93 1376.246,100.94077 1370.9268,106.09461 1372.5475,100.75 z M 1395.5567,101.0918 C 1394.9786,100.15641 1402.4411,86.463482 1404.0814,85.449669 1405.9013,84.32496 1404.9326,87.545087 1401.297,94.706177 1397.6749,101.84061 1396.694,102.93186 1395.5567,101.0918 z"/>
</svg>
