<svg xmlns="http://www.w3.org/2000/svg"
     width="64.0" height="36.7"
     viewBox="96.9372 71.7500 51.6385 29.5902">
  <path d="M 131.3125,75.75 127.84375,79.59375 C 128.37619,81.628624 130.30494,82.147278 134.71875,81.78125 138.40384,81.475654 140,81.697002 140,82.53125 140,83.928501 136.39246,88.746609 133.5,91.21875 131.37625,93.033885 124.56184,93.458884 120,92.0625 114.52771,90.387427 105.90217,85.923962 105.34375,84.46875 104.39992,82.009149 105.31814,81.916503 109.71875,84.09375 112.10232,85.273049 115.26692,85.996767 117.1875,85.8125 L 120.5,85.5 120.625,83.1875 118.1875,81.34375 118.28125,82 114.875,82 C 112.88845,82 109.92634,80.957627 107.78125,79.5 103.45873,76.562773 102.44952,76.426145 101.59375,78.65625 100.93724,80.367088 102.54181,86.608806 104.1875,88.6875 105.47392,90.312395 112.65377,94.038384 117.5,95.59375 122.94166,97.340215 129.49772,97.310031 132.9375,95.53125 136.83935,93.513523 142.76345,86.419305 143.5625,82.78125 144.57577,78.167862 142.20882,76.339326 137.1875,77.84375 131.67774,79.494514 130.89992,79.350123 131.3125,75.75 z"/>
</svg>
