<svg xmlns="http://www.w3.org/2000/svg"
     width="53.2" height="64.0"
     viewBox="333.2923 12.1562 81.0827 97.5400">
  <path d="M 410.375 56.84375 L 405.6875 52.1875 L 400.375 46.9375 L 396.15625 48.4375 C 393.82995 49.258266 390.95284 50.626245 389.75 51.46875 C 385.58905 54.383189 384.83052 53.561597 385.5 46.75 C 385.83786 43.3125 386.83474 38.540406 387.6875 36.15625 L 389.21875 31.84375 L 395 32.5 C 400.28076 33.112897 400.89569 32.987013 402.375 30.875 C 403.26382 29.606027 404 27.749532 404 26.75 C 404 24.156855 400.16761 17 398.78125 17 C 398.14033 17 395.48407 18.8 392.875 21 C 390.26593 23.2 387.52264 25 386.78125 25 C 386.03987 25 383.20369 23.024647 380.46875 20.59375 L 375.5 16.15625 L 370.125 21.34375 C 366.59136 24.745744 364.60095 26.054238 364.28125 25.1875 C 364.01404 24.463077 362.74488 22.663077 361.46875 21.1875 L 359.15625 18.5 L 355.4375 20.46875 C 350.30761 23.207413 348.38183 26.353931 349.84375 29.5625 C 351.68533 33.604338 357.63798 34.937509 363.15625 32.5625 C 364.20966 32.109122 365.47227 32.572481 366.65625 33.84375 C 368.09267 35.386082 368.5892 37.752655 368.84375 44.40625 C 369.0634 50.147551 368.79421 53 368.0625 53 C 367.46115 53 364.49415 51.613682 361.46875 49.90625 C 355.2349 46.388086 352.93559 46.498269 348.03125 50.625 C 340.8213 56.691775 337.29233 70.150675 341 77.5 C 343.41134 82.279732 345.04359 81.196381 347.375 73.28125 C 349.63135 65.62095 353.6889 60 356.9375 60 C 360.4395 60 367.39667 66.250093 369 70.84375 L 370.46875 75.125 L 365.125 80.0625 C 359.97092 84.826089 359.76532 85.187256 360.375 89 C 360.72403 91.182682 361.64462 94.454933 362.40625 96.25 C 363.16788 98.045067 364.27872 100.7375 364.875 102.25 C 366.18284 105.56736 367.61783 105.6963 370.6875 102.8125 C 372.59008 101.02511 373 99.636089 373 94.875 C 373 89.282485 375.38104 82 377.21875 82 C 377.68916 82 379.40352 82.984068 381.03125 84.1875 C 384.25804 86.573166 384.76544 89.479223 382.90625 94.8125 C 382.085 97.168329 382.17029 98.565161 383.1875 100.6875 C 385.56214 105.64202 387.51537 104.76407 391.90625 96.8125 L 395.9375 89.53125 L 392.46875 83.21875 C 387.92299 74.948756 387.75388 69.538882 391.90625 65.09375 C 393.50192 63.385585 395.25913 62 395.8125 62 C 396.36587 62 398.84001 64.25 401.3125 67 C 403.01765 68.896532 404.43578 70.046619 405.71875 70.84375 L 406.875 67.375 C 405.54237 66.829204 404.13635 65.678516 402.21875 63.5 C 397.57306 58.222219 394.65632 57.744689 390.15625 61.53125 C 384.04772 66.67124 383.74186 74.065064 389.25 84.125 C 392.00346 89.153855 392.20756 90.070069 391.125 92.625 C 387.82666 100.40935 384.29625 100.94653 386.59375 93.3125 C 387.36967 90.734334 387.73493 87.696551 387.375 86.5625 C 386.50498 83.821317 379.80681 76.072757 378.28125 76.03125 C 377.61831 76.013213 375.25901 79.06262 373.03125 82.8125 C 369.39192 88.938394 369.06464 90.099192 369.625 94.1875 C 370.4423 100.15035 368.59266 101.35378 366.4375 96.28125 C 365.55179 94.196578 364.58399 91.036547 364.28125 89.25 C 363.79316 86.369677 364.24064 85.572065 368.125 82.125 C 372.30432 78.41618 372.5 77.97394 372.5 72.6875 C 372.5 68.644798 371.92509 66.372399 370.40625 64.3125 C 368.36919 61.549768 359.68903 56.077534 357.28125 56.03125 C 354.79249 55.98341 348.94538 62.376264 346.15625 68.1875 L 343.25 74.1875 L 342.625 70.84375 C 341.10496 62.741256 348.28009 51 354.75 51 C 356.01831 51 359.73137 52.35 363 54 C 366.26863 55.65 369.42071 57 370 57 C 370.5793 57 371.51689 55.7625 372.09375 54.25 C 373.27325 51.157371 371.5523 32.219053 369.9375 30.5625 C 368.42627 29.0122 368.87267 26.776524 371.1875 24.3125 C 374.11942 21.191617 375.5507 21.378887 380.65625 25.5625 C 385.57017 29.589088 385.79279 30.875023 383.46875 40.5 C 381.56252 48.3946 381.58939 55.414329 383.5 57 C 384.71552 58.008792 385.85875 57.672567 389.75 55.1875 C 397.55143 50.20528 398.83822 50.238798 403.96875 55.46875 C 406.12334 57.665097 407.79886 58.818186 409.53125 59.40625 L 410.375 56.84375 z M 397.5 21.59375 C 398.14106 21.488714 398.42807 21.954369 398.9375 22.90625 C 399.51527 23.985807 400 25.771301 400 26.875 C 400 29.85029 399.40989 29.965318 392.25 28.4375 C 389.12901 27.771526 389.43621 26.924813 393.96875 23.71875 C 395.87373 22.371273 396.85894 21.698786 397.5 21.59375 z M 357 23.5 C 359.04231 23.009466 359.83844 23.46378 361.28125 25.90625 C 362.99568 28.808548 362.99283 28.921139 361.09375 29.9375 C 360.01496 30.514847 358.98616 30.9499 358.8125 30.875 C 358.63884 30.8001 357.51006 30.545619 356.3125 30.3125 C 351.18971 29.315288 351.64751 24.785593 357 23.5 z "/>
</svg>
