<svg xmlns="http://www.w3.org/2000/svg"
     width="27.3" height="64.0"
     viewBox="292.0000 12.5535 38.6419 90.4465">
  <path d="M 303.68111,93.75 C 298.57669,88.796423 296,85.269202 296,83.235351 296,82.742479 298.24723,79.900395 300.99385,76.91961 303.74047,73.938824 305.99047,70.693076 305.99385,69.706835 305.99723,68.720595 303.75,65.841067 301,63.307884 298.25,60.774702 296,58.076715 296,57.312359 296,56.548003 298.24953,53.577531 300.99896,50.71131 303.7484,47.84509 305.9984,45.112451 305.99896,44.63878 305.99953,44.16511 304.2,41.627658 302,39 299.8,36.372342 298,33.487742 298,32.589779 298,30.492072 302.73134,23.317072 304.58322,22.60644 305.36245,22.307421 306,21.178971 306,20.098772 306,17.883084 309.01791,16.553523 311.9412,17.481338 313.82641,18.079681 318.16582,23.549526 322.89729,31.291526 L 325.21445,35.083051 322.52296,38.966873 C 321.04264,41.102975 319.19439,43.095165 318.41573,43.393963 316.1949,44.246176 316.70716,45.930396 320.86024,51.431119 326.5515,58.969129 326.64186,59.9002 322.12819,64.495623 L 318.26157,68.432267 322.13079,73.557002 C 324.28941,76.416071 326,79.81765 326,81.251071 326,85.467247 314.15814,99 310.46877,99 309.71099,99 306.65655,96.6375 303.68111,93.75 z M 310.75,90.292833 C 311.48731,88.705228 311.98173,83.684031 311.95546,78.050635 311.91227,68.788509 311.85941,68.571325 310.20546,70.861105 309.26746,72.159713 306.52935,75.418543 304.12079,78.102949 300.25337,82.413282 299.89987,83.189163 301.09603,84.741844 303.29258,87.593077 308.45853,92.978468 309,92.98155 309.275,92.983115 310.0625,91.773193 310.75,90.292833 z M 312.08112,62.25 C 312.31146,54.44189 312.58624,52.456882 313.5,52 314.09965,51.700175 314.61985,54.027448 314.79935,57.813083 315.07639,63.655446 315.2613,64.102822 317.27923,63.813083 318.57135,63.627558 319.83389,62.43155 320.37806,60.877556 321.13733,58.709267 320.79446,57.583596 318.39818,54.377556 316.80418,52.2449 315.1114,50.332968 314.63645,50.128818 314.1615,49.924667 313.05035,48.913752 312.16723,47.882339 310.62353,46.079429 310.37701,46.188806 305.78077,50.715929 303.15135,53.305817 301,55.872759 301,56.420246 301,58.162827 308.33379,65 310.20295,65 311.47704,65 312.02361,64.199716 312.08112,62.25 z M 310.4306,32.599059 C 310.04306,27.319577 309.38425,23 308.96658,23 307.64226,23 302,30.002435 302,31.646016 302,33.327649 309.95161,43.381728 310.69424,42.639091 310.93678,42.396556 310.81814,37.878541 310.4306,32.599059 z M 318.93254,38.358632 C 320.12674,36.840457 320.6698,35.24584 320.20964,34.608632 319.76931,33.998885 318.13081,31.5875 316.56852,29.25 315.00623,26.9125 313.42056,25 313.04481,25 312.66906,25 312.482,27.1375 312.62913,29.75 313.27452,41.210346 314.92082,43.458708 318.93254,38.358632 z M 319.75,86.093752 C 321.5375,83.756675 323,81.445162 323,80.957057 323,79.364018 316.72242,72.875501 315.97758,73.698665 315.57877,74.139399 314.95662,78.254682 314.59502,82.843739 313.8361,92.475177 314.5331,92.91461 319.75,86.093752 z"/>
</svg>
