<svg xmlns="http://www.w3.org/2000/svg"
     width="57.1" height="64.0"
     viewBox="1.3933 15.6599 82.5162 92.4361">
  <path d="M 45.528142,99.02882 C 40.957189,94.34774 37.932548,93.889001 35.958561,97.577429 32.469939,104.09598 27.45338,102.54195 28.281028,95.199087 28.666673,91.77765 29.595936,90.044875 32.528634,87.278669 L 36.282599,83.73782 34.535693,78.11891 C 32.438385,71.372938 29.035987,64.98636 27.565859,65.035963 25.248515,65.114152 21.105766,69.889719 16.496807,77.795846 11.072805,87.100083 10.511971,87.669788 8.4561951,85.963645 5.3933218,83.421686 7.792941,71.452257 13.172237,62.439776 16.548762,56.78274 24.110383,51 28.131104,51 29.555495,51 32.378686,52.125 34.404862,53.5 36.431038,54.875 38.518834,56 39.044409,56 39.569984,56 40,52.85 40,49 L 40,42 35.75,41.968197 C 29.20743,41.919238 25,37.430713 25,30.5 25,25.716452 26.837267,22.72426 30.7763,21.09266 34.235318,19.659887 36.953773,20.549573 42.387505,24.892733 44.525632,26.60173 46.732387,28 47.291405,28 47.850422,28 51.051045,26.469017 54.4039,24.597816 58.193905,22.482645 62.612503,20.933725 66.084343,20.50329 71.111216,19.880063 71.954162,20.056504 74.528371,22.270745 77.014359,24.409102 77.442187,25.580659 77.802292,31.235993 78.241163,38.128328 76.315874,44.281074 73.366085,45.413014 71.389384,46.171546 67.198564,41.540831 66.808414,38.167007 66.547449,35.910319 65.958708,35.454375 62.981691,35.203447 57.54803,34.745453 54.409398,38.635744 52.915768,47.68002 51.008766,59.22735 51.665953,59.637073 63.863911,54.505645 L 70.227822,51.82848 73.429271,54.931447 C 78.188785,59.544549 79.909481,67.617849 78.515924,78.797416 77.466908,87.212974 75.755103,86.742576 70.521592,76.600601 66.045376,67.926182 63.365937,65.931013 59.192388,68.164629 56.212024,69.759671 54.096717,73.82507 52.348984,81.316936 51.175083,86.348997 51.185024,87.883952 52.418413,92.037221 53.994024,97.34288 53.294841,102.31913 50.909174,102.77882 50.113327,102.93217 47.691863,101.24467 45.528142,99.02882 z M 36.033631,93.25 C 38.670995,90.211784 40.99442,90.417657 45.612495,94.098758 49.265459,97.010563 49.518825,97.074359 49.812026,95.156184 49.98364,94.033451 49.488383,91.901635 48.711454,90.418814 47.464303,88.03854 47.5336,86.788047 49.303121,79.74193 50.914271,73.326439 52.056636,70.973458 55.127385,67.745431 58.599267,64.095725 59.28521,63.784598 62.654439,64.331349 67.273915,65.080987 68.111213,65.93855 72.091554,73.996875 74.787298,79.454493 75.425305,80.174324 76.08003,78.496875 78.229626,72.989464 75.950025,61.861272 71.851533,57.854868 70.245264,56.284691 68.748465,55 68.525314,55 68.302163,55 65.517587,56.35 62.337366,58 54.729359,61.947277 51.632264,61.940633 49.989027,57.97351 47.694529,52.434101 50.505818,40.601064 55.37996,35.282455 58.007609,32.415194 59.375525,31.733785 62.677673,31.647199 67.782551,31.513344 70,33.304979 70,37.563428 70,41.608847 71.799045,42.978488 73.729528,40.402775 75.902747,37.503197 75.002037,26.215835 72.444909,24.304418 69.652339,22.217011 61.567028,23.484703 56.000923,26.882662 49.757797,30.693926 47.815459,31.308378 46.82995,29.78387 46.156052,28.741401 45.841713,28.745016 45.158167,29.803097 44.51879,30.792808 43.293567,30.251697 40.063553,27.553097 37.724524,25.598894 34.876282,24 33.734127,24 27.957314,24 25.95205,32.042959 30.576018,36.666927 32.741177,38.832087 33.787134,39.157761 37.133991,38.708854 40.685092,38.232551 41.217875,38.442855 42.057973,40.65248 43.320923,43.974291 43.258469,55.64853 41.964816,58.065741 40.620749,60.577155 39.76433,60.507589 35,57.5 30.492265,54.654392 24.575438,54.208219 21.345765,56.47037 16.761684,59.681185 11.027486,70.912714 9.7157449,79.25 9.0623864,83.402676 10.476401,84.320871 12.025734,80.75 14.299944,75.508446 20.771297,66.459754 24.2384,63.673406 27.852701,60.768762 28.042309,60.728314 29.950196,62.454928 35.267659,67.267166 41.753866,87 38.018192,87 36.230136,87 30,93.798723 30,95.749962 30,98.621396 31.277822,99.341027 32.762796,97.305885 33.487527,96.312648 34.959402,94.4875 36.033631,93.25 z"/>
</svg>
