<svg xmlns="http://www.w3.org/2000/svg"
     width="37.7" height="64.0"
     viewBox="1027.7500 12.8052 36.6728 62.1948">
  <path d="M 1033.375,53.34375 1032.7812,57.5 C 1037.6991,60.257374 1039.7108,57.739373 1043,45.75 1045.2801,37.439126 1046.1721,21.933419 1044.4062,21.3125 1043.6843,21.058634 1043.0916,24.280372 1042.6875,30.71875 1042.0746,40.481959 1039.1116,51.842559 1036.625,53.90625 1035.9933,54.430559 1034.8572,54.105185 1033.375,53.34375 z M 1032.2812,61.0625 1031.75,64.71875 C 1032.9052,65.389753 1034.0752,66.086281 1035.4688,67.0625 1038.5602,69.228014 1041.7682,71 1042.5938,71 1049.3278,71 1059.9396,45.475964 1060.3125,28.375 1060.4228,23.316519 1060.1299,18.823629 1059.6875,18.375 1058.1395,16.805157 1057.0187,20.559137 1056.9688,27.5 1056.8899,38.441385 1053.9368,49.876553 1048.7188,59.4375 1044.3186,67.499716 1043.1643,68.031977 1037.9688,64.59375 1035.6422,63.054135 1033.9774,62.059072 1032.2812,61.0625 z M 1050.875,19.0625 C 1050.0519,19.522964 1049.2772,23.845461 1048.875,31.09375 1048.3754,40.098397 1047.6882,43.87328 1045.625,48.9375 1044.186,52.469825 1043,55.957325 1043,56.6875 1043,59.588625 1045.5854,57.754576 1047.1562,53.75 1051.0323,43.868615 1053.4228,29.435529 1052.3125,22.59375 1051.877,19.910024 1051.3688,18.786222 1050.875,19.0625 z"/>
</svg>
