<svg xmlns="http://www.w3.org/2000/svg"
     width="64.0" height="43.5"
     viewBox="834.7385 70.5903 49.2615 33.4946">
  <path d="M 868.65532,95.359273 C 873.26742,93.170686 877,88.121698 877,84.07158 L 877,80.831941 873.02815,83.977702 C 864.04009,91.096384 852.06544,90.73653 845.25,83.142931 841.44413,78.902524 841.01802,80.525101 844.26033,86.911481 847.02276,92.35265 850.16368,94.757236 856.00151,95.900159 862.82461,97.235978 864.88616,97.147857 868.65532,95.359273 z M 854.37972,98.997822 C 847.03426,97.932076 842.25612,93.181864 839.91305,84.615712 838.73846,80.321478 839.39147,76 841.21495,76 841.86221,76 844.23314,78.092558 846.48369,80.65013 850.24293,84.922211 851.0203,85.337138 856.04564,85.753879 864.15904,86.426705 869.24912,84.695167 873.39457,79.852138 877.8985,74.590313 880,75.120392 880,81.518275 880,88.84601 875.4804,95.64785 868.74001,98.464166 865.15276,99.963011 861.87233,100.08492 854.37972,98.997822 z"/>
</svg>
