<svg xmlns="http://www.w3.org/2000/svg"
     width="57.5" height="64.0"
     viewBox="1165.0000 12.7078 80.1806 89.2922">
  <path d="M 1200.9025,93.75 C 1196.6274,87.90778 1196.5924,87.719363 1198.9302,83.13679 1201.2451,78.599261 1201.548,74.289946 1199.7182,71.926581 1197.3956,68.926765 1189.3951,65 1185.6058,65 1182.6925,65 1181.2498,65.697927 1178.9436,68.222861 1175.6676,71.809677 1175.3642,73.575366 1177.5318,76.44113 1179.9151,79.592107 1179.4062,86.269653 1176.5477,89.353977 1172.079,94.175849 1169,91.888573 1169,83.747014 1169,78.709776 1174.8494,67.948214 1179.4573,64.507916 1183.1957,61.71676 1189.6966,61.829557 1193.4093,64.75 1197.6356,68.074421 1199.3216,67.74088 1198.4459,63.753623 1198.0537,61.968115 1197.6766,54.880615 1197.6077,48.003623 L 1197.4826,35.5 1193.2098,29.75 C 1188.2841,23.121459 1185.4485,22.343045 1182.0352,26.682366 1180.1339,29.099516 1179.9904,30.167645 1180.5842,37.485314 1181.2121,45.224807 1181.1229,45.744198 1178.6821,48.552948 1175.131,52.639482 1172.6189,51.113866 1172.1938,44.612461 1171.9343,40.644092 1172.3538,39.34116 1174.9438,36.07099 1176.6247,33.948651 1178.0017,31.601948 1178.0037,30.856096 1178.0104,28.457309 1181.9198,22.993652 1184.4567,21.837757 1187.525,20.43976 1190.4801,22.148468 1194.0447,27.381727 1195.3951,29.364261 1197.0263,30.989409 1197.6696,30.993167 1198.3129,30.996925 1199.5604,28.8625 1200.4417,26.25 1201.3231,23.6375 1202.8864,20.404381 1203.9157,19.065292 1205.6977,16.747069 1205.9051,16.707791 1208.2501,18.244332 1210.7118,19.857246 1215,27.636446 1215,30.489102 1215,32.811186 1215.7864,32.395891 1221.8044,26.895782 1231.0828,18.415896 1233.8269,18.406445 1236.8589,26.843934 1239.9278,35.383934 1240.4989,42.146329 1238.5061,46.34599 1236.61,50.341535 1235.3798,51.064331 1232.3761,49.947465 1227.8709,48.27231 1228.5329,40.924366 1233.9568,32.40093 1235.2617,30.350446 1234.9279,26.894571 1233.164,24.19201 1231.6839,21.924369 1227.5152,23.887769 1221.5571,29.658665 L 1215.8773,35.15997 1216.5707,47.914926 C 1217.0651,57.009585 1216.9106,61.740874 1216.0324,64.401943 1215.3549,66.454577 1214.9904,68.323769 1215.2224,68.555704 1215.4543,68.787638 1217.6892,67.680415 1220.1888,66.095206 1228.8915,60.576137 1234.2871,57.887367 1235.0468,58.691058 1237.5995,61.391444 1240.0285,67.822267 1240.599,73.390615 1241.1806,79.067226 1240.9942,80.199419 1239.0217,82.969512 1236.4968,86.515362 1233.5202,86.72353 1231.4362,83.5 1229.8282,81.012742 1231.6155,75.102599 1235.0963,71.397494 1237.2948,69.057298 1237.3129,68.879406 1235.6977,65.492305 1234.7818,63.571537 1233.3277,62 1232.4665,62 1230.2219,62 1225.1343,64.780616 1220.5,68.540332 1218.3,70.325148 1215.7393,71.946226 1214.8095,72.142726 1213.2416,72.474103 1213.2573,72.898672 1215.0269,78 1216.0762,81.025 1216.9322,84.4 1216.9292,85.5 1216.9226,87.918518 1207.7615,98 1205.5704,98 1204.7136,98 1202.613,96.0875 1200.9025,93.75 z M 1174.8,86.8 C 1177.0254,84.574635 1176.0239,77 1173.5043,77 1171.9928,77 1170.6213,83.231414 1171.5139,86.043713 1172.2286,88.295644 1173.1031,88.496903 1174.8,86.8 z M 1178.0276,44.948415 C 1180.3768,40.558975 1177.2791,36.025132 1174.7117,40.095223 1173.5822,41.885934 1174.5244,47 1175.9839,47 1176.504,47 1177.4237,46.076787 1178.0276,44.948415 z M 1210.8202,89.552042 1213.8475,86.104084 1211.7543,79.973826 C 1209.693,73.936834 1209.6892,73.76569 1211.5019,68.724595 1213.5882,62.922942 1214.0116,54.26976 1212.9072,40.010942 1212.1448,30.168884 1210.0706,23.963364 1206.5732,21.06074 1205.2151,19.933591 1204.7978,20.23966 1203.5185,23.301502 1200.5736,30.349682 1199.378,53.905347 1201.6558,60 1202.8064,63.078656 1204.93,72.581044 1204.9644,74.804864 1204.984,76.072539 1204.073,79.144648 1202.94,81.631771 L 1200.8799,86.153815 1203.4909,89.576907 C 1204.9269,91.459608 1206.4823,93 1206.9473,93 1207.4123,93 1209.1551,91.448419 1210.8202,89.552042 z M 1235.927,45.58792 C 1237.2782,43.959895 1237.7997,36.466318 1236.6423,35.30901 1235.5527,34.219323 1232.0492,39.041584 1232.0222,41.668213 1231.9946,44.366117 1232.9639,47 1233.9845,47 1234.4084,47 1235.2825,46.364564 1235.927,45.58792 z M 1238.3812,78.857297 C 1238.8886,77.414497 1238.977,75.393869 1238.5776,74.367012 1237.8962,72.615057 1237.7327,72.645486 1235.9257,74.860784 1233.4359,77.913082 1233.3126,82.279026 1235.7293,81.813609 1236.6805,81.630437 1237.8738,80.300097 1238.3812,78.857297 z"/>
</svg>
