<svg xmlns="http://www.w3.org/2000/svg"
     width="64.0" height="43.7"
     viewBox="697.0000 9.2016 138.3774 94.4602">
  <path d="M 780.1875,13.53125 C 779.32839,13.201575 776.09422,14.505656 772.8125,16.53125 L 766.9375,20.15625 763.4375,17.09375 C 759.10329,13.288259 757.53433,13.269375 752.5625,17.03125 750.40202,18.665949 748.27969,20 747.84375,20 747.4078,20 745.05349,18.577538 742.59375,16.84375 738.27047,13.796424 738.01895,13.765475 735.5625,15.375 730.78737,18.503789 730.92583,26.260383 735.78125,28.125 738.00512,28.979028 739.23685,28.74455 742.5625,26.9375 747.56079,24.221585 750.97517,25.378623 751,29.78125 751.00999,31.551241 751.31635,32.049774 751.84375,31.21875 752.30519,30.491662 752.73395,33.153516 752.84375,37.40625 752.94961,41.506655 752.64673,45.103116 752.15625,45.40625 751.25181,45.965224 743.74006,41.018388 742.53125,39.0625 741.1941,36.898937 735.39445,38.078896 728.4375,41.9375 724.54572,44.096039 720.90323,46.465809 720.34375,47.1875 719.78427,47.909191 718.06815,53.9 716.5625,60.5 713.3867,74.421079 711.92164,77.829094 706.9375,82.84375 703.24143,86.562437 701,90.005314 701,91.9375 701,92.523657 701.3375,93.000016 701.75,93 702.56263,92.999968 707.49626,87.12305 710.125,83.03125 711.02128,81.636144 712.74087,79.465886 713.9375,78.21875 715.2047,76.898061 716.48428,73.766344 717,70.71875 720.1865,51.888279 721.27762,49.460999 728.34375,45.21875 736.70452,40.199243 737.78971,40.222389 745.25,45.4375 748.84631,47.951506 752.43502,50 753.25,50 756.799,50 755.79402,31.965494 751.8125,24.25 750.8318,22.349583 750.97409,21.69217 752.65625,20.125 756.32757,16.70465 758.23181,16.758379 762.4375,20.5 764.59546,22.419836 766.68059,24 767.0625,24 767.44442,24 767.14375,26.8125 766.40625,30.25 764.59658,38.684891 764.6186,47.743593 766.4375,49.5625 768.37126,51.496254 768.54015,51.446756 773.0625,47.8125 776.98327,44.66168 777.06164,44.656512 780.46875,46.28125 782.35916,47.182725 784.68295,49.184514 785.65625,50.71875 790.87499,58.945112 797.34628,64.756415 799.53125,63.1875 800.98874,62.140952 802.73712,59.190923 806.65625,51.0625 810.22867,43.653195 810.2076,43.643191 808.40625,40.59375 804.12042,33.338431 805.34214,21.946041 810.625,19.9375 812.87209,19.08316 814.02869,16 812.09375,16 805.12536,16 800.81595,31.122976 805.28125,39.90625 806.23295,41.778251 807,43.922638 807,44.6875 807,47.424407 799.59438,59 797.84375,59 796.89657,59 794.86067,57.099688 793.3125,54.78125 791.76433,52.462813 788.56591,48.637813 786.21875,46.28125 781.01219,41.053825 777.98908,40.77472 772.15625,45 767.59562,48.303704 767.67339,48.421498 767.9375,39.5 768.11511,33.500624 769.5111,27.278517 771.0625,25.59375 771.54227,25.072735 773.19369,25.251799 775,26 779.23816,27.755501 782.57557,26.146414 783.5,21.9375 784.26636,18.448299 782.7134,14.500526 780.1875,13.53125 z M 778.0625,17.46875 C 779.7125,17.776009 781,19.044693 781,21.125 781,22.579742 780.26812,23.011865 777.75,23 773.1767,22.978453 771.24396,21.627932 772.90625,19.625 774.40164,17.823161 776.4125,17.161491 778.0625,17.46875 z M 818.5,17.625 C 818.18464,17.539508 817.73029,17.599034 817.15625,17.90625 812.74767,20.265649 807.06584,35.753342 809.65625,38.34375 811.86011,40.547618 813.51899,37.64126 812.0625,34.125 811.08925,31.775354 811.29694,30.722959 813.5,26.78125 814.91435,24.250715 816.72375,21.638915 817.53125,20.96875 819.1986,19.584976 819.44607,17.881476 818.5,17.625 z M 737.96875,18.09375 C 739.20512,18.105192 740.63247,18.735571 742.125,20 L 744.5,22 742.125,24 C 739.46005,26.25768 739.34927,26.275971 736.25,24.78125 733.73587,23.56873 733.52621,22.749697 735.03125,19.9375 735.69727,18.693046 736.73238,18.082308 737.96875,18.09375 z M 736.28125,47.4375 C 735.29307,47.775631 732.77727,49.520096 730.6875,51.3125 727.38698,54.143375 726.57799,55.749395 724.53125,63.53125 723.23533,68.458428 721.72988,73.713337 721.15625,75.1875 720.30371,77.378471 720.44777,78.32221 722.0625,80.375 723.8288,82.620484 727,89.0913 727,90.46875 727,90.761416 726.55,91 726,91 725.45,91 725,90.389069 725,89.625 725,88.860931 724.13025,87.173431 723.0625,85.875 L 721.125,83.5 718.71875,86 C 717.39339,87.375 715.28925,90.1875 714.0625,92.25 712.47544,94.918292 712.20879,96.00548 713.15625,96 713.88861,95.995764 715.52733,94.195764 716.78125,92 719.50818,87.224835 720.61644,86.9772 721.5,91 722.57685,95.902884 728.37874,97.857291 729.875,93.8125 730.82903,91.23352 729.39942,85.633066 726.8125,81.84375 724.49692,78.451878 724.51317,74.177572 726.90625,65.0625 728.29896,59.757797 729.74085,56.834816 732.125,54.375 733.92905,52.513692 735.80319,51 736.3125,51 737.2231,51 750,61.005636 750,61.71875 750,62.872611 745.8889,69.836683 744.5625,70.9375 742.1101,72.972809 742.69067,75.16012 747,80.375 751.30292,85.582127 751.2716,85.831289 746.84375,92.15625 744.49725,95.5081 744.52993,96 747,96 748.1,96 749,95.562112 749,95.03125 749,94.500388 750.35788,92.499616 752.03125,90.59375 754.94859,87.271086 755.0394,86.99553 753.6875,83.8125 752.91205,81.986728 751.07293,79.228337 749.625,77.6875 746.99041,74.883847 746.2044,71.614302 747.90625,70.5625 748.40414,70.25479 750.01405,67.910581 751.5,65.375 L 754.21875,60.78125 750.84375,57.59375 C 743.41038,50.543995 738.08182,46.821386 736.28125,47.4375 z M 716.375,81 C 712.51676,81 705.59754,91.92176 707.5,95 708.50308,96.623019 710,95.143068 710,92.53125 710,91.139169 711.63992,88.456366 714,86 718.49911,81.317332 718.6406,81 716.375,81 z M 821.65625,22.21875 C 821.27642,22.409157 820.82189,22.829194 820.3125,23.5 814.8551,30.686752 814.18296,39.559069 819.09375,39.4375 820.42156,39.404629 822.5125,39.041693 823.75,38.625 825.2801,38.109782 826,38.251413 826,39.09375 826,40.966119 822.91209,44 821,44 818.74072,44 816.81935,46.286812 813.03125,53.5625 808.5019,62.261889 801.41085,71 798.875,71 795.40927,71 787.78755,64.633096 780.15625,55.375 776.61256,51.075898 774.38982,51.381423 769.34375,56.875 765.47559,61.086204 765.30502,62.20927 767.9375,65.90625 771.4015,70.770986 771.42962,73.200533 768.0625,77.4375 764.53062,81.881792 764.21833,85.196784 766.9375,89.65625 769.81016,94.367436 766.89442,95.041972 763.40625,90.46875 761.9545,88.565412 760.10323,87 759.3125,87 757.59221,87 752,92.905006 752,94.71875 752,95.421177 751.55,96 751,96 750.45,96 750,96.686899 750,97.53125 750,99.661751 753.17799,97.884307 755.375,94.53125 757.62293,91.100474 759.27073,91.342359 762.65625,95.5625 765.68004,99.331737 769,99.566084 769,96 769,94.696604 769.56009,94.342207 771,94.71875 773.88536,95.473289 774.56373,92.563728 772.09375,90.09375 768.73647,86.736461 768.59152,83.772516 771.4375,78.15625 774.54776,72.018456 774.59389,70.482187 771.9375,66.125 769.37189,61.916739 769.74632,59.327104 773.1875,57.25 L 775.875,55.625 782.6875,62.5625 C 786.43791,66.384321 790.96492,70.649118 792.75,72.03125 795.78346,74.37996 795.93053,74.755442 795,78 794.45242,79.909305 794,84.701214 794,88.625 794,97.005544 794.95503,98.228403 801.6875,98.625 806.15679,98.888278 806.20817,98.852491 805.53125,96.1875 803.88999,89.726042 803.81729,79.415632 805.375,75.6875 806.232,73.636421 806.72425,71.392772 806.46875,70.71875 806.21325,70.044727 807.14233,68.147198 808.5625,66.5 811.47316,63.124038 819.63539,47.955683 819.21875,46.6875 819.06962,46.233552 819.91106,46.155878 821.09375,46.53125 822.6792,47.034451 823.04365,46.867705 822.46875,45.9375 821.98561,45.155768 822.09056,44.936197 822.75,45.34375 824.64991,46.517956 826.70994,44.969657 828.5,41 831.37736,34.619156 829.10535,32.342802 823,35.5 820.37141,36.859297 820.00531,36.829673 819.15625,35.3125 818.13839,33.493681 819.30315,29.113056 821.8125,25.21875 823.20816,23.052796 822.79575,21.647529 821.65625,22.21875 z M 801.53125,74 C 802.9699,74 802.93351,74.954814 800.96875,84.375 800.52571,86.499223 800.41639,89.761723 800.71875,91.625 801.02112,93.488276 800.97197,95 800.625,95 800.27804,95 800,94.157655 800,93.125 800,92.092344 799.325,90.684689 798.5,90 796.39032,88.249122 796.43361,77.691386 798.5625,75.5625 799.42678,74.698214 800.75928,74 801.53125,74 z"/>
</svg>
