<svg xmlns="http://www.w3.org/2000/svg"
     width="22.5" height="64.0"
     viewBox="444.3365 9.0000 33.3639 94.7695">
  <path d="M 462.98469,96.218615 C 462.97312,94.920373 462.76621,94.820345 462.13879,95.809668 461.51059,96.800231 460.91331,96.516641 459.68746,94.645758 458.79605,93.285289 456.05275,90.725863 453.59125,88.958144 451.12974,87.190425 448.88955,85.154566 448.61305,84.434013 448.33655,83.71346 450.32684,80.121251 453.03593,76.451327 L 457.96154,69.778737 453.48077,64.656544 C 451.01635,61.839338 449,59.163306 449,58.709805 449,58.256304 451.025,54.988114 453.5,51.447159 455.975,47.906204 458,44.537743 458,43.961689 458,43.385635 455.92351,40.694382 453.38558,37.981126 449.82689,34.176604 448.90303,32.527671 449.34755,30.773967 450.11388,27.750716 459.8506,13 461.07987,13 461.61066,13 464.51968,16.836167 467.54437,21.524816 473.69428,31.057942 473.7004,30.53326 467.34173,38.893802 465.50378,41.310394 464,43.818804 464,44.468047 464,45.117291 465.79243,47.41508 467.98317,49.574245 470.17392,51.73341 471.97392,54.048813 471.98317,54.719584 472.00611,56.382116 468.26121,63.00553 465.7743,65.700911 L 463.74361,67.901821 467.8718,72.591701 C 472.21164,77.522015 472.90142,80.261831 470.62502,83.527494 469.86879,84.612372 468.44256,88.068605 467.45564,91.208011 465.71494,96.74516 463.01633,99.769505 462.98469,96.218615 z M 468.18098,83.790279 C 469.59137,79.082806 468.36121,76.055532 463.63253,72.597159 L 460.76505,70.5 458.63253,73.452786 C 457.45964,75.076819 455.4875,77.459773 454.25,78.748241 451.04361,82.086687 451.42263,83.471597 456.32972,86.347342 458.71107,87.742905 461.27951,89.631866 462.03738,90.545034 463.30726,92.07515 463.55499,92.032844 465.19662,90.00551 466.17635,88.795603 467.51931,85.998749 468.18098,83.790279 z M 465.89575,36.162453 C 467.60309,33.501802 469,30.982129 469,30.56318 469,29.29039 461.77014,18 460.9551,18 460.32462,18 455.35964,24.985647 452.61258,29.737805 451.92608,30.925381 460.35277,41 462.0326,41 462.45,41 464.18842,38.823104 465.89575,36.162453 z M 463.69334,63.75 C 464.81642,62.5125 466.51007,60.280125 467.457,58.789167 469.1527,56.119265 469.12827,56.017616 465.83935,52.057192 464.00271,49.845565 462.02169,48.02794 461.43709,48.018026 460.15421,47.996269 455.6645,52.681024 454.16285,55.608286 453.26413,57.360207 453.59616,58.416647 456.12717,61.858286 459.61003,66.594238 460.83429,66.90033 463.69334,63.75 z"/>
</svg>
