<svg xmlns="http://www.w3.org/2000/svg"
     width="30.7" height="64.0"
     viewBox="925.6250 11.6129 44.3803 92.4808">
  <path d="M 929.625,81.65625 929.875,85.65625 C 930.02719,85.6996 930.32206,85.941512 930.4375,85.9375 931.76835,85.891242 934.17402,83.575335 937.25,79.375 941.76935,73.203712 942.00578,72.554846 942.0625,66.1875 942.1203,59.698153 942.5622,56.478353 944.90625,45.09375 945.79575,40.773623 945.73066,39.25523 944.65625,37.59375 942.45731,34.193286 942.03692,28.578178 943.625,23.96875 945.66104,18.059109 945.0326,15.612907 942.46875,19.46875 940.49782,22.432874 940.37132,24.555143 941.09375,42 941.31591,47.364446 939.37584,60.797387 938.15625,62.375 937.68213,62.988299 937.38116,65.924013 937.46875,68.875 937.60067,73.319531 937.14349,74.907163 934.8125,78.125 933.26482,80.261513 931.28213,82 930.40625,82 930.21776,82 929.87066,81.753736 929.625,81.65625 z M 930.3125,93.03125 930.71875,99.59375 931.375,100.09375 933.90625,96.78125 C 935.30427,94.968766 938.82273,91.108899 941.71875,88.1875 947.52037,82.335029 947.65731,82.014829 948.40625,70.375 948.9456,61.992649 951.33428,51.584743 953.34375,48.9375 953.97464,48.106378 956.22459,46.356965 958.34375,45.0625 962.80722,42.336035 965.99465,37.666049 966,33.8125 966.00534,29.968312 964.60313,29.60955 961.09375,32.5625 959.40844,33.980595 957.59251,34.846877 957.03125,34.5 955.34569,33.458267 955.87406,27.16719 958,23 960.75529,17.59918 958.69096,16.912747 955.65625,22.21875 952.65747,27.461928 951.61305,32.891438 952.9375,36.375 953.7223,38.439202 954.6174,39 957.09375,39 959.77788,39 960.06172,39.220706 959,40.5 958.31531,41.325 957.21725,42 956.5625,42 955.185,42 950.7323,46.575193 949.21875,49.53125 947.4077,53.068345 945,66.686012 945,73.4375 L 945,79.96875 938.875,86.71875 C 935.5121,90.442211 932.43082,93.647929 932,93.8125 931.86797,93.862937 930.97603,93.365402 930.3125,93.03125 z M 952.5625,17 C 951.63104,17 950.30868,18.424174 949.5625,20.25 947.88572,24.352899 946.65933,34.351283 947.5,37 948.71951,40.842341 951.01843,39.332693 950.9375,34.75 950.85884,30.295754 952.21101,21.735723 953.46875,18.75 953.99929,17.49057 953.75573,17 952.5625,17 z"/>
</svg>
