<svg xmlns="http://www.w3.org/2000/svg"
     width="28.0" height="64.0"
     viewBox="606.0000 12.4038 36.0000 82.2524">
  <path d="M 610,36.666667 C 610,35.841667 610.35907,35.016667 610.79794,34.833333 611.23681,34.65 613.99507,30.7875 616.9274,26.25 621.96528,18.454396 624.0302,16.403812 623.97635,19.25 623.94268,21.029306 612.75258,37.327313 611.25,37.7855 610.5625,37.995142 610,37.491667 610,36.666667 z M 617.70783,80.288669 C 617.26868,77.318427 617.42106,45.86235 617.89549,41.55 617.95297,41.0275 618.55923,41.159226 619.24273,41.842725 620.75902,43.359018 620.73048,83.256505 619.21275,83.762418 618.69313,83.935625 618.01591,82.372438 617.70783,80.288669 z M 637.59375,90.65625 637.34375,83.65625 C 636.52597,82.001606 636,80.471586 636,79.28125 636,78.446925 636.43714,78.476361 637.1875,78.96875 L 637.125,76.625 C 637.07598,76.635343 636.94268,76.539985 636.90625,76.5625 636.37355,76.891723 636,72.498527 636,66.0625 636,59.980041 636.40514,55 636.90625,55 637.06075,55 637.67401,55.733254 638,55.96875 L 637.90625,50.84375 C 636.78084,50.103516 635.64529,48.476451 635.34375,46.96875 633.95815,40.040761 633,46.328076 633,62.375 633,79.589615 633.88568,85.631274 637.59375,90.65625 z M 637.5625,31.65625 637.46875,27.40625 C 635.1258,30.801352 633.04946,34.080047 633.03125,34.84375 632.9822,36.901315 634.85719,35.136341 637.5625,31.65625 z"/>
</svg>
