<svg xmlns="http://www.w3.org/2000/svg"
     width="31.5" height="64.0"
     viewBox="765.0000 12.4224 45.2329 91.9066">
  <path d="M 769,33.594614 C 769,31.637765 780.55391,17 782.09849,17 784.37557,17 782.20293,20.733444 774.08264,30.774356 770.54057,35.154192 769,36.009026 769,33.594614 z M 785.5,97.687552 C 784.4,97.034398 783.11907,95.899856 782.6535,95.166347 781.98512,94.113338 781.30205,94.307063 779.40744,96.086957 778.08768,97.326801 776.73386,98.067189 776.39893,97.732262 776.064,97.397335 777.41223,95.698945 779.39499,93.95806 783.24799,90.575078 784.55805,85 781.5,85 780.675,85 780,85.45 780,86 780,86.55 779.55,87 779,87 776.90956,87 778.13643,84.429566 781.00632,82.79651 783.44826,81.406976 784,80.439393 784,77.54651 784,74.137197 782.79305,72.907796 781.5,75 780.73042,76.2452 778,76.322257 778,75.098776 778,74.603103 779.575,73.268279 781.5,72.132501 784.4427,70.396265 785,69.508723 785,66.558476 785,63.205023 784.88631,63.092726 782.4349,64.024751 777.61864,65.85589 777.65407,64.42591 782.50683,61.121098 785.18322,59.298438 786,58.04585 786,55.764109 786,53.31428 785.68958,52.916502 784.25,53.521607 780.83176,54.958412 778,55.227982 778,54.116577 778,53.50246 778.5625,52.997918 779.25,52.995373 781.85207,52.98574 787,46.976906 787,43.949314 787,42.327191 787.45,41 788,41 788.55,41 789,42.370455 789,44.045455 789,46.897499 790.28358,48.649869 795.4048,52.789427 797.26904,54.296321 797.53208,57 795.81445,57 795.1624,57 793.58144,56.01596 792.30121,54.813244 790.5358,53.154726 789.69339,52.906611 788.81388,53.786118 787.12983,55.47017 789.33453,59.796492 792.48771,60.995327 794.02907,61.581352 795,62.733006 795,63.975249 795,66.568644 793.22012,66.555422 790.43758,63.941357 L 788.24625,61.882714 787.54132,64.691357 C 786.94967,67.048648 787.33163,67.913456 789.91819,70.072826 791.61319,71.48788 793,73.40038 793,74.322826 793,76.61708 791.30288,76.434456 790,74 788.30186,70.826989 787,71.663441 787,75.927522 787,79.09223 787.57586,80.306122 789.96492,82.177522 792.12138,83.86672 792.68338,84.898169 792.02597,85.960237 791.25348,87.208219 790.82162,87.148546 789.05492,85.549701 786.69816,83.416863 786.5204,83.502749 785.63346,87.20284 785.12469,89.325301 785.5451,90.424509 787.59133,92.321878 791.61513,96.052955 789.94851,100.32897 785.5,97.687552 z M 789.06963,35.75 C 789.16005,34.126635 802.12532,17.791559 803.75437,17.248542 806.2329,16.422367 804.87699,19.048702 798.25,27.910278 792.04016,36.214036 788.89413,38.900639 789.06963,35.75 z"/>
</svg>
