<svg xmlns="http://www.w3.org/2000/svg"
     width="64.0" height="58.8"
     viewBox="272.0000 14.0000 105.0000 96.4920">
  <path d="M 373,36.5 C 369.99227,41.618534 367.46987,46.157366 367.75,46.4375 368.8394,47.526903 370.31757,45.875163 373,41.6875 L 373,36.5 z M 373,89.9375 C 370.83562,92.1365 366,99.548265 366,101.03125 366,103.44655 368.6446,101.11648 371.75,95.96875 372.46094,94.790247 372.53783,94.483098 373,93.65625 L 373,89.9375 z M 276,63.21875 C 276.48796,63.146323 277.79422,63.484167 279.53125,64.3125 286.05161,67.42184 289.06512,66.673808 295.96875,60.125 304.55231,51.982602 307.0124,52.912999 311.03125,65.875 313.18529,72.822434 313.35855,72.044053 307.96875,81.5625 L 305.65625,85.625 307.5625,90.3125 C 309.34172,94.637984 310.77211,95.884139 312.25,94.40625 312.57548,94.080768 311.9792,91.753092 310.90625,89.25 309.2177,85.310773 309.12401,84.484825 310.34375,83.09375 311.1188,82.209823 312.73455,79.580518 313.90625,77.25 316.41351,72.263025 316.01456,67.486544 312.4375,59.3125 310.33202,54.5012 306.36028,51 303.03125,51 302.44916,51 299.30422,53.459813 296.03125,56.46875 288.50812,63.384981 286.64767,63.867786 280.125,60.5625 277.95671,59.463744 276.7339,58.73964 276,57.96875 L 276,63.21875 z M 344,54.8125 C 340.45212,54.861464 339.21868,55.463655 336.4375,58.5 332.3893,62.919601 329,69.679017 329,73.34375 329,74.839452 329.73674,77.175601 330.625,78.53125 331.51326,79.886899 332.63826,81 333.125,81 334.34112,81 334.23563,77.263664 333,76.5 330.43817,74.916702 333.79002,64.134536 338.09375,60.125 340.85798,57.549726 345.04719,57.387142 347.90625,59.75 349.54914,61.107755 350.24863,63.40519 351.09375,70 352.45694,80.637652 352.77324,81.633009 354.125,80.28125 354.84089,79.565362 354.84143,76.191587 354.1875,69.53125 353.36764,61.180968 352.87834,59.440842 350.71875,57.28125 348.79534,55.357841 347.23534,54.767849 344,54.8125 z M 322.21875,80.625 C 321.40566,80.369933 320.67656,80.347762 320.1875,80.65625 318.6647,81.61681 314.12153,88.688916 314.03125,90.25 313.93085,91.986113 315.65531,90.759377 317.875,87.5 320.64007,83.439795 321.07358,83.31884 323.5,86 325.73253,88.466922 328.01166,88.59552 327.9375,86.25 327.87339,84.222161 324.65802,81.390202 322.21875,80.625 z M 331.625,91.3125 C 330.6725,90.359996 327.3015,93.7821 324.5,98.5625 323.12009,100.91714 322,103.12294 322,103.4375 322,103.75206 322.5625,104.00481 323.25,104 324.74784,103.98952 332.52248,92.209974 331.625,91.3125 z M 320.9375,94.0625 C 320.61689,94.15664 320.10047,94.481034 319.4375,95.03125 317.93885,96.275015 314,103.16241 314,104.53125 314,106.492 316.87262,103.67127 319.1875,99.4375 321.31055,95.554552 321.89933,93.780081 320.9375,94.0625 z M 276,52.25 C 276.74992,52.221919 278.03786,52.793122 280.40625,54.0625 285.49795,56.791487 287.5197,56.151794 294.3125,49.625 301.67947,42.546516 304.59641,41.510959 309.65625,44.1875 311.76479,45.302865 314.22544,46.828773 315.09375,47.59375 317.15789,49.412254 319,49.369348 319,47.5 319,45.801044 312.11814,41.167978 307.71875,39.90625 303.60175,38.725511 299.25521,40.769346 292.8125,46.90625 289.88393,49.695822 286.9256,51.994344 286.21875,52 284.70643,52.012101 280.42847,49.467001 277.25,46.65625 276.70034,46.17018 276.32107,45.663929 276,45.125 L 276,52.25 z M 345.15625,43.5 C 342.46498,43.5 340.50057,43.998282 340.25,44.75 340.02083,45.4375 339.18541,46 338.40625,46 337.62708,46 337,46.510853 337,47.125 337,47.80616 337.87747,47.984588 339.25,47.59375 346.02151,45.665511 347.01774,45.740292 351,48.5 356.802,52.520789 360.40502,60.398426 360.8125,70 360.98757,74.125 361.34367,78.175 361.625,79 362.05046,80.247651 362.3687,80.173176 363.53125,78.59375 365.07315,76.498938 364.66753,67.29162 362.75,61 361.22833,56.007237 357.06585,49.718421 353.0625,46.375 350.39867,44.150287 348.62023,43.5 345.15625,43.5 z M 284.5,18 C 283.675,18 283,18.377906 283,18.84375 283,19.309595 282.1,20.731689 281,22 279.9,23.268311 279,25.170446 279,26.21875 279,28.785862 280.55507,27.652079 283.53125,22.9375 286.40984,18.377522 286.49217,18 284.5,18 z M 306.21875,18 C 305.35238,18 297.68926,29.454348 296.6875,32.25 295.23134,36.313736 298.78618,33.533864 302.75,27.5 306.75905,21.397292 308.00118,18 306.21875,18 z M 365,19 C 363.87864,19 351,38.259273 351,39.9375 351,42.59723 353.15267,40.3955 357.5625,33.25 360.1931,28.9875 363.18617,24.436673 364.1875,23.125 366.22318,20.458398 366.50968,19 365,19 z M 354.65625,86.03125 C 353.96141,85.835956 352.19149,87.917102 349.0625,92.53125 346.62528,96.125294 344.03341,99.55795 343.3125,100.15625 342.59159,100.75455 342,101.64235 342,102.125 342,102.60766 342.61199,103 343.34375,103 345.12186,103 355,89.410382 355,86.96875 355,86.405578 354.88786,86.096348 354.65625,86.03125 z M 365.09375,86.03125 C 364.60774,86.005806 364.04189,86.407918 363.71875,87.25 363.45412,87.939616 361.13821,91.088051 358.5625,94.25 355.9868,97.411949 354.16968,100.47747 354.53125,101.0625 354.89281,101.64752 355.33032,101.98659 355.5,101.8125 358.40742,98.829336 366,88.394685 366,87.375 366,86.516001 365.57976,86.056694 365.09375,86.03125 z M 343.59375,88 C 342.80224,87.698344 340.88169,89.80233 338.03125,94.09375 335.80596,97.443986 333.49931,101.04399 332.9375,102.09375 332.14935,103.56641 332.24975,104 333.375,104 334.84785,104 344,91.190834 344,89.125 344,88.484934 343.85759,88.100552 343.59375,88 z M 345.25,19 C 344.21648,19.005144 333,36.716429 333,38.34375 333,39.06632 333.29436,39.950605 333.65625,40.3125 334.42612,41.082374 337,39.186959 337,37.84375 337,37.338138 339.025,33.446794 341.5,29.21875 345.81603,21.845681 346.86503,18.99196 345.25,19 z M 325.84375,18.03125 C 324.50103,18.052171 316,30.113826 316,32 316,34.161078 318.59562,32.834758 320.40625,29.75 326.54886,19.284891 327.14695,18.010946 325.84375,18.03125 z"/>
</svg>
