<svg xmlns="http://www.w3.org/2000/svg"
     width="64.0" height="59.7"
     viewBox="452.0000 11.9154 97.4193 90.9065">
  <path d="M 456,28.90625 456,33.625 C 456.26445,33.225773 456.3472,33.175198 456.625,32.75 463.58183,22.102 465.84537,17.254288 462.6875,19.84375 461.62204,20.717428 458.84087,24.664739 456,28.90625 z M 483.1875,19 C 482.05506,19 474.15771,31.568431 473.40625,34.5625 472.55544,37.952399 474.73397,37.71341 476.28125,34.25 476.95696,32.7375 478.9625,29.268708 480.75,26.53125 483.94448,21.639078 484.79937,19 483.1875,19 z M 475.34375,44.625 C 474.82975,44.697557 473.71007,45.754314 472.03125,48.03125 468.07028,53.403391 463.68851,62.811338 462.25,69 461.04938,74.165207 461.97569,83.067261 463.96875,85.46875 466.23711,88.201957 467.15356,85.619394 465.40625,81.4375 462.44783,74.357004 465.3656,62.229158 472.65625,51.21875 475.39073,47.089107 476.20042,44.504071 475.34375,44.625 z M 486.2,96.8 C 483.02796,93.62796 485.71144,83.389698 491.03778,78.342479 495.65126,73.970758 495.64463,73.282967 490.85204,59.078048 489.28923,54.445975 488.21378,50.452882 488.46216,50.204509 489.21799,49.448672 492.01966,50.872352 492.44286,52.227319 498.54042,71.750272 499.56766,78.980081 496.25,79.022236 493.20809,79.060887 489.91133,82.459287 489.00125,86.494455 487.72768,92.141301 488.62019,92.483476 492.89671,87.987917 494.9832,85.794563 497.45735,84 498.39482,84 501.1708,84 505.57651,86.704734 507.4446,89.55579 509.90364,93.308757 511.43299,91.373028 510.56769,85.602826 510.09247,82.43385 509.10974,80.444881 507.32589,79.041707 504.95935,77.180183 504.81921,76.630608 505.47011,71.764063 505.85734,68.868828 507.37248,62.9 508.83709,58.5 511.2274,51.318938 511.7411,50.526294 513.85527,50.756862 517.67006,51.172897 521.64765,54.667435 523.50773,59.237105 526.06804,65.526993 527.92397,73.861182 527.96438,79.25 528.0096,85.279953 529.42182,85.353242 530.92001,79.403386 533.46384,69.300918 529.19023,51.12332 522.8172,44.938509 520.71774,42.901052 519,40.731382 519,40.117021 519,37.997147 521.61783,39.010484 524.90625,42.403277 528.95041,46.575785 531.75277,54.607188 533.21565,66.217493 534.15431,73.667192 534.06012,76.013258 532.568,82.349313 530.79469,89.879416 527.85637,96 526.0147,96 524.75744,96 524.69566,95.403058 524.92801,85.5 525.22364,72.900127 520.63261,57.4793 515.81881,54.903033 514.02411,53.942538 513.42594,54.064499 512.28574,55.623388 511.53081,56.655525 510.68722,58.625 510.4111,60 510.13498,61.375 509.47953,64.127209 508.95453,66.11602 507.75779,70.649589 507.72311,75.710842 508.88388,76.428234 510.62659,77.505287 514,86.044174 514,89.378318 514,93.551771 511.17959,97.38988 508.78733,96.471885 507.85499,96.114113 506.1844,94.282841 505.07491,92.402391 503.96542,90.52194 501.91523,88.462867 500.51893,87.826673 498.31939,86.824495 497.63032,86.992605 495.36123,89.084978 493.92079,90.41324 492.1192,92.9625 491.3577,94.75 489.90861,98.151533 488.22193,98.821927 486.2,96.8 z M 493,33.97856 C 493,31.743865 503.49355,17 505.08403,17 506.18502,17 506.31914,19.693041 505.24173,20.166667 504.82469,20.35 502.27026,23.7625 499.56522,27.75 494.96232,34.535144 493,36.396841 493,33.97856 z M 512,35.893904 C 512,35.285552 513.35,33.083295 515,31 516.65,28.916705 518,26.9298 518,26.584655 518,25.329825 523.29107,18 524.19687,18 524.70898,18 524.11631,19.8 522.87984,22 521.64337,24.2 520.31337,26 519.92427,26 519.53517,26 518.92313,27.170142 518.56418,28.600317 517.39523,33.257761 512,39.252512 512,35.893904 z M 532,35.955803 C 532,35.063909 537.60767,26.164009 542.36851,19.5 544.92939,15.915402 545.41933,18.908656 542.98415,23.261187 537.6454,32.803438 532,39.327942 532,35.955803 z"/>
</svg>
