<svg xmlns="http://www.w3.org/2000/svg"
     width="47.2" height="64.0"
     viewBox="62.0000 11.4173 73.3231 99.4685">
  <path d="M 66,104.84439 C 66,102.6194 71.18163,96.78163 72.227883,97.827883 72.890631,98.490631 72.265162,100.02783 70.362472,102.41244 67.42858,106.08945 66,106.88584 66,104.84439 z M 95.523027,95.164936 C 93.562128,92.435509 90.842262,89.471441 89.478879,88.578118 86.084089,86.353766 86.342178,85.043364 91.079162,80.452948 97.739261,73.998921 97.826383,73.417726 92.888033,68.385914 88.164246,63.572726 85.293381,62.913348 82.5,66 80.099248,68.652801 76.846489,68.529948 74.174314,65.685549 71.20866,62.528755 71.489888,60.18354 75.378793,55.641164 L 78.682493,51.782328 82.223261,54.891164 C 84.170684,56.601024 86.205544,58 86.745173,58 87.947693,58 97,48.443029 97,47.173469 97,45.888304 89.01212,36 87.97395,36 87.503196,36 86.822764,36.477757 86.461878,37.061683 86.100992,37.645609 84.629197,38.57068 83.191222,39.117397 79.802857,40.405651 76.54087,38.71999 74.939133,34.853054 73.876552,32.287757 74.047908,31.538371 76.509189,27.986741 78.028736,25.794033 79.976878,24 80.838394,24 81.699909,24 83.859048,25.409527 85.63648,27.132282 89.580055,30.954545 90.9545,30.562009 95.247924,24.387293 101.28704,15.701964 101.59301,15.417339 103.33581,16.863734 104.19658,17.578112 106.2219,20.503377 107.83652,23.364323 111.88041,30.529708 113.36421,31.653663 116.24499,29.7336 117.48525,28.906961 119.56637,27.291728 120.86971,26.144192 122.66307,24.565216 123.68426,24.295837 125.06842,25.036619 129.06821,27.177239 131.32314,33.44423 129.23469,36.615666 128.83061,37.229282 126.68217,38.652629 124.46038,39.77866 120.48854,41.791638 120.37949,41.794265 117.96038,39.93523 116.60717,38.895313 115.02883,38.034466 114.45295,38.022236 113.01625,37.991725 105.68477,45.612523 106.13623,46.667149 107.77419,50.493506 112.71715,57.998167 113.59996,57.998983 114.20494,57.999542 116.60834,56.61755 118.94085,54.927888 121.27336,53.238227 123.81463,52.098626 124.58812,52.395442 126.60149,53.168043 130.41486,61.476518 129.65952,63.444888 129.30978,64.356305 126.96534,66.012487 124.44966,67.125292 119.48047,69.323403 120.16144,69.484151 113.36561,64.508825 112.36356,63.775208 110.92291,64.606506 107.82146,67.707955 L 103.63115,71.898261 108.54624,77.19913 C 111.24955,80.114609 113.8408,82.661086 114.30458,82.85797 114.76836,83.054853 116.91055,81.799373 119.06499,80.068013 123.83402,76.235515 125.95079,76.920489 128.42165,83.095785 129.94678,86.907451 129.95176,87.395828 128.48206,89.01982 126.04474,91.713029 122.00012,92.062905 117.27554,89.989228 L 113.05109,88.13506 108.90622,92.81753 C 106.62654,95.392888 104.36505,97.3875 103.88068,97.25 103.3963,97.1125 103.1125,97.551817 103.25,98.226259 103.3875,98.900701 102.50737,99.604396 101.29415,99.790025 99.611306,100.04751 98.242967,98.950895 95.523027,95.164936 z M 82.691815,62.588666 85.495158,60.177332 82.522026,57.838666 C 78.75665,54.87682 78.233894,54.906813 76.236124,58.199311 74.700562,60.73005 74.714176,61.026687 76.454127,62.949311 78.807236,65.549467 79.281561,65.522043 82.691815,62.588666 z M 85.82335,34.168135 88.1467,32.380741 84.883512,29.190371 C 83.088759,27.435667 81.368251,26.024898 81.060162,26.055329 80.752073,26.08576 79.506583,27.371391 78.292406,28.912285 L 76.084812,31.713913 78.081361,33.856956 C 80.500223,36.4533 82.736152,36.54317 85.82335,34.168135 z M 105.89359,65.608422 C 110.88672,60.520791 110.83169,59.609924 105.13265,53.01311 L 101.25639,48.526221 95.486563,54.296046 89.716737,60.065871 95.035266,65.032936 C 97.960457,67.764821 100.6305,70 100.96869,70 101.30688,70 103.52309,68.02379 105.89359,65.608422 z M 106.37954,91.581703 C 108.37079,89.15164 110,86.514995 110,85.722493 110,84.10286 102.3156,75 100.94835,75 100.10139,75 94.924133,79.869761 92.183289,83.244469 91.052884,84.636298 91.300499,85.252317 93.933289,87.598143 95.61998,89.100992 97,90.783278 97,91.336557 97,92.804381 100.10728,96 101.53453,96 102.20803,96 104.38828,94.011766 106.37954,91.581703 z M 108.80816,37.739279 C 110.18037,35.468244 110.25157,34.67005 109.20958,33.239279 108.51291,32.282675 106.51493,29.3246 104.76962,26.665778 101.86143,22.235395 101.49171,21.984782 100.34382,23.665778 99.654934,24.6746 98.261118,26.4 97.24645,27.5 92.537815,32.604627 92.538294,32.600123 96.105003,38.237633 97.936155,41.131935 99.890015,43.815449 100.44691,44.200998 101.74656,45.100761 106.64978,41.311473 108.80816,37.739279 z M 123.04966,64.47432 C 126.44316,62.719471 126.73208,61.125654 124.21924,58.022417 122.46536,55.856477 122.3823,55.85005 118.71924,57.596845 114.59918,59.561564 114.26757,60.509304 116.5567,63.777494 118.40016,66.409394 119.15167,66.490047 123.04966,64.47432 z M 123.39794,36.86455 C 126.94389,35.248905 127.27288,33.42877 124.58399,30.302743 L 122.24097,27.578825 118.60175,30.354593 C 116.46651,31.983218 115.24126,33.620011 115.63697,34.31518 117.92142,38.328427 119.23677,38.760502 123.39794,36.86455 z M 124.85701,88.109533 C 126.91334,86.806584 124.37251,80 121.82981,80 120.78321,80 116,84.917282 116,85.993208 116,86.885546 120.0275,88.848144 122,88.917007 122.825,88.945809 124.11066,88.582446 124.85701,88.109533 z"/>
</svg>
