<svg xmlns="http://www.w3.org/2000/svg"
     width="28.6" height="64.0"
     viewBox="369.0000 13.5090 41.7534 93.4351">
  <path d="M 373,36.5 373,41.6875 C 373.83128,40.389747 374.27234,39.921005 375.5,37.84375 376.05,36.913127 378.6375,32.539021 381.25,28.125 386.00003,20.099458 386.94171,17.509013 384.90625,18.1875 384.01617,18.484194 377.74172,28.430581 373,36.5 z M 373,89.9375 373,93.65625 C 374.78467,90.463368 375.28559,89 374,89 373.83511,89 373.3626,89.569095 373,89.9375 z M 392.46875,91.28125 C 392.16683,91.051915 391.57496,91.141768 390.65625,91.65625 389.21252,92.464744 383,100.45207 383,101.5 383,102.94416 385.9323,101.66795 388.1875,99.25 391.64296,95.545182 393.37451,91.969254 392.46875,91.28125 z M 382.59375,93.25 C 381.92174,92.577998 376,98.584782 376,99.9375 376,100.5298 376.63558,101 377.40625,101 378.86194,101 383.46587,94.122124 382.59375,93.25 z M 405.15625,18 C 403.5973,18 393,34.512763 393,36.9375 393,38.920876 394.48301,38.01581 396.59375,34.75 397.74662,32.966258 400.33412,28.961958 402.34375,25.84375 405.96908,20.218601 406.75335,18 405.15625,18 z M 397.75,44 C 397.41273,43.817608 396.97014,44.231921 396.4375,45.09375 395.94462,45.891257 395.57125,79.161292 395.96875,86.34375 395.99412,86.802084 396.5625,86.978797 397.25,86.75 398.18593,86.438529 398.57917,81.005146 398.78125,65.15625 398.96958,50.385174 398.7618,44.547175 397.75,44 z M 383.34375,46.25 C 383.13408,46.179265 382.89004,46.193165 382.625,46.28125 381.85174,46.538243 381.41415,53.003564 381.21875,66.84375 380.98424,83.454559 381.17678,87 382.3125,87 383.41171,87 383.83516,83.161413 384.375,68.125 384.96701,51.635558 384.81142,46.745142 383.34375,46.25 z M 402.1875,92.625 C 400.97921,91.878238 394.71256,99.725898 395.5,101 396.45025,102.53753 397.38992,102.19852 398.90625,99.75 399.67261,98.5125 400.94793,96.530321 401.71875,95.34375 402.49802,94.144182 402.69394,92.937997 402.1875,92.625 z"/>
</svg>
