<svg xmlns="http://www.w3.org/2000/svg"
     width="46.0" height="64.0"
     viewBox="543.8518 12.9804 65.0900 90.6119">
  <path d="M 548.23427,41.212167 C 548.95327,38.462705 563.07218,17 564.16188,17 565.90652,17 551.2622,42.084569 549.09836,42.802632 548.10121,43.133533 547.85184,42.674552 548.23427,41.212167 z M 564.67661,96.25 C 564.43383,95.8375 563.90752,93.925 563.50704,92 563.10656,90.075 561.17928,85.843732 559.22421,82.597182 L 555.66953,76.694363 559.77152,68.597182 C 565.1124,58.054478 566.10538,53.983582 565.34132,45.762665 564.91131,41.135907 565.05968,39 565.81109,39 567.40115,39 568.28367,44.991916 567.8372,52.756373 567.52603,58.167869 566.63169,61.154048 563.3098,67.873265 L 559.17018,76.24653 562.00928,80.873265 C 563.57078,83.417969 565.15734,86.741752 565.53497,88.259448 566.47074,92.020382 567.77939,92.578293 569.06206,89.763144 569.87009,87.989697 569.75619,86.320898 568.59755,82.957941 567.15738,78.77781 567.18659,78.246009 569.07001,74.355377 571.13978,70.079808 575.29545,64.991771 576.70225,65.010779 577.14101,65.016708 579.4125,66.850543 581.75,69.085969 586.45779,73.588181 586.72051,74.891256 584.79749,84.201582 583.72098,89.413529 583.77977,90.205684 585.35861,91.761777 587.0344,93.413425 587.19541,93.401252 588.59146,91.517376 590.49296,88.951418 593,80.483407 593,76.626666 593,74.914579 591.3124,70.775678 589.08684,67.029504 586.9346,63.406747 584.85845,58.76241 584.47318,56.708755 583.48315,51.431398 584.79106,42 586.51294,42 588.56611,42 589.22415,43.71266 588.029,45.945813 587.44408,47.038744 586.91526,50.16356 586.85383,52.889848 586.76399,56.877702 587.46953,59.147389 590.46285,64.499953 595.89603,74.215397 596.18551,75.870747 593.89609,84.132426 590.25338,97.277586 587.80349,99.592282 583.18759,94.25 580.71494,91.388251 580.72058,91.525323 582.59844,79.931557 583.06977,77.021575 582.68243,75.776043 580.49932,73.181557 577.55412,69.681387 574.28153,69.02914 573.31662,71.75 572.97528,72.7125 572.04589,74.258508 571.25132,75.185572 570.07037,76.563435 570.00684,77.804668 570.90332,81.984793 572.46482,89.265834 572.31387,90.473537 569.41111,93.923275 566.81734,97.005791 565.50192,97.652244 564.67661,96.25 z M 572.62198,34.197361 C 572.31613,33.702496 573.40141,31.318144 575.03371,28.898803 576.666,26.479461 578.94563,23.0375 580.09954,21.25 582.01447,18.283602 584,16.980381 584,18.689887 584,19.81787 575.94924,32.797241 574.50729,33.993948 573.75792,34.615876 572.93547,34.704612 572.62198,34.197361 z M 592,34.391297 C 592,33.043677 602.21134,18 603.12608,18 604.94185,18 603.81474,20.718503 599.22019,27.420691 594.94847,33.651967 592,36.498511 592,34.391297 z"/>
</svg>
