<svg xmlns="http://www.w3.org/2000/svg"
     width="28.9" height="64.0"
     viewBox="1284.1511 10.0000 41.8489 92.6917">
  <path d="M 1294.9711,95.946004 C 1290.3308,87.275449 1288.1511,63.767611 1290.3865,46.5 1292.3695,31.182232 1298.4997,14 1301.9818,14 1304.2532,14 1310.8858,18.307986 1314.8796,22.37733 1319.9051,27.497943 1319.9174,29.585026 1314.9679,37.389489 L 1312.0474,41.994662 1315.6253,45.247331 C 1319.656,48.911624 1322,52.875443 1322,56.027263 1322,58.170645 1318.577,62.152984 1314.0476,65.2792 L 1311.5952,66.971859 1314.8406,71.576266 C 1318.83,77.236067 1319.7687,81.117151 1317.5862,82.928458 1316.7138,83.652495 1316,84.824787 1316,85.533551 1316,87.42331 1310.5015,91.730946 1307.1495,92.467156 1305.5554,92.81728 1303.2162,94.205403 1301.9513,95.551873 1299.145,98.538962 1296.4405,98.69167 1294.9711,95.946004 z M 1300.1703,89.421653 C 1300.5555,87.814744 1301.5616,83.8 1302.4062,80.5 1306.332,65.160536 1306.5649,40.069842 1302.8963,27.687033 1301.7049,23.665896 1300.4064,21.031188 1299.7275,21.257496 1296.5387,22.320441 1292.6835,43.703042 1292.8326,59.5 1292.9572,72.692604 1293.5622,78.446532 1295.7015,86.781058 1297.3958,93.382185 1298.9947,94.326925 1300.1703,89.421653 z M 1307.2997,89.385838 C 1311.7894,87.121341 1316,82.962783 1316,80.793037 1316,78.714325 1312.0938,72.152625 1309.6478,70.122696 1307.8478,68.628763 1307.7252,68.801114 1306.5363,74.5 1306.1921,76.15 1305.4529,79.3 1304.8937,81.5 1303.1569,88.332589 1302.7477,91 1303.4362,91 1303.8009,91 1305.5395,90.273627 1307.2997,89.385838 z M 1312.9937,35.849962 C 1314.6472,33.56744 1316,30.699752 1316,29.477322 1316,27.233195 1309.4455,20.379147 1305.0497,18.026576 1302.9947,16.926783 1302.8678,17.008059 1303.505,19.015908 1306.0993,27.189659 1308,34.898653 1308,37.246818 1308,41.099519 1309.4936,40.68172 1312.9937,35.849962 z M 1317.967,58.539788 C 1318.658,57.707189 1318.9653,56.007628 1318.6499,54.762986 1318.049,52.391389 1311.4139,45 1309.886,45 1308.8544,45 1308.885,44.754942 1308.4254,56.692048 L 1308.0715,65.884096 1312.391,62.96885 C 1314.7668,61.365464 1317.276,59.372387 1317.967,58.539788 z"/>
</svg>
