<svg xmlns="http://www.w3.org/2000/svg"
     width="25.8" height="64.0"
     viewBox="395.9932 14.1232 40.1478 99.4890">
  <path d="M 408.54665,104.47227 C 402.18467,96.131284 401.68486,90.690642 406.61341,83.428014 409.42917,79.278769 409.42946,79.626701 406.59518,61.691007 405.74264,56.29606 404.80149,51.487826 404.50373,51.006041 403.64356,49.614246 400.03194,28.842721 400.01519,25.190983 399.9932,20.400414 401.77144,22.223793 402.53359,27.773308 404.13695,39.448113 405.47759,41.564917 409.4354,38.670898 410.98348,37.538908 411.09603,36.834462 410.19429,33.920898 406.93793,23.399512 406.66717,21.932834 407.77641,20.823594 409.06863,19.53137 411.09738,23.539063 413.05439,31.25 413.94132,34.744669 414.74302,36 416.0879,36 417.67616,36 417.95417,34.983707 418.20794,28.25 418.58152,18.336948 420.41476,18.123239 420.76726,27.951649 421.03591,35.442204 421.77472,36.953673 425.18261,36.984687 427.19831,37.003031 427.88978,35.072265 428.80703,26.864271 429.23984,22.991349 430.01601,20.491915 430.87444,20.206828 431.98138,19.83921 432.141,20.991084 431.69454,26.125186 431.10838,32.865976 427.27979,54.273425 424.3431,67.230639 422.68612,74.541542 422.6838,75.220231 424.30044,79.730639 425.24064,82.353788 426.00767,86.836543 426.00495,89.692317 426.00052,94.335306 425.49617,95.551963 421.23769,101.19232 415.46581,108.83719 412.46706,109.6122 408.54665,104.47227 z M 418.50537,100.28158 C 423.38655,94.796238 423.78296,88.964056 419.92476,79.398825 418.8474,76.727851 419.02635,74.855106 421.21475,65.898825 425.2065,49.562107 426.40598,42.005985 425.19914,40.799144 424.52225,40.122247 421.46174,40.002879 416.56012,40.462199 408.60932,41.20725 405.37748,42.949803 406.51391,45.878939 407.9611,49.609025 410,58.625932 410,61.295964 410,62.877636 410.77894,67.095 411.73098,70.667885 L 413.46196,77.164038 409.57418,84.423809 C 407.07215,89.095935 405.975,92.185517 406.49606,93.09179 409.7542,98.758607 413.48798,104 414.26667,104 414.77808,104 416.6855,102.32671 418.50537,100.28158 z"/>
</svg>
