<svg xmlns="http://www.w3.org/2000/svg"
     width="64.0" height="62.1"
     viewBox="1328.0162 17.0000 97.9838 95.0170">
  <path d="M 1422,46.75 C 1421.6418,47.202977 1421.1994,47.863011 1420.75,48.375 1419.7938,49.464478 1418.7352,51.296957 1418.375,52.4375 1418.0148,53.578043 1416.8648,55.093813 1415.8438,55.8125 1414.8227,56.531187 1414,57.560354 1414,58.125 1414,60.518007 1416.8095,57.928576 1421.25,51.4375 1421.5686,50.971831 1421.6894,50.737846 1422,50.28125 L 1422,46.75 z M 1422,83.46875 C 1420.6183,85.163916 1416.9983,90.360952 1413.625,95.75 1412.1619,98.0875 1411.3999,100 1411.9375,100 1412.475,100 1413.4733,98.9875 1414.125,97.75 1414.7767,96.5125 1415.5722,95.275 1415.9062,95 1416.4512,94.551451 1419.2926,90.700684 1422,86.875 L 1422,83.46875 z M 1352,21 C 1351.45,21 1351,21.388045 1351,21.84375 1351,22.711851 1348.5063,26.67249 1338.75,41.34375 1335.5146,46.209021 1332.6088,50.821521 1332.3125,51.59375 1332.0162,52.365978 1332.2269,53 1332.75,53 1333.698,53 1343.7657,39.067033 1349.8125,29.40625 1353.006,24.304209 1353.8687,21 1352,21 z M 1372.6562,21.3125 C 1372.396,21.344972 1372.002,21.593976 1371.4375,22.0625 1370.5723,22.780551 1369.0029,25.035557 1367.9688,27.0625 1366.9347,29.089444 1364.0319,33.722306 1361.5312,37.375 1359.0305,41.027694 1357,44.455344 1357,45 1357,45.544656 1356.5989,46 1356.0938,46 1355.0213,46 1351,52.214475 1351,53.875 1351,55.846592 1352.8332,55.083589 1354.1875,52.5625 1354.905,51.226844 1358.0025,46.614344 1361.0625,42.3125 1369.1581,30.93135 1374.4782,21.085193 1372.6562,21.3125 z M 1415.2188,22.375 C 1414.7372,22.672601 1412.1467,26.304799 1409.4375,30.46875 1406.7283,34.632701 1401.4578,42.430393 1397.75,47.78125 1394.0421,53.132107 1391.0046,58.0625 1391,58.75 1390.9833,61.215982 1393.0166,59.925091 1395.7188,55.75 1397.2315,53.4125 1400.63,48.52683 1403.25,44.875 1405.8699,41.22317 1408,37.941212 1408,37.59375 1408,37.246288 1409.118,35.269458 1410.4688,33.21875 1413.2996,28.921006 1416.5145,21.574138 1415.2188,22.375 z M 1391.6562,23.8125 C 1391.3266,23.437813 1390.1743,24.575134 1388.4688,27.53125 1386.8897,30.268091 1383.5161,35.65 1380.9688,39.5 1372.4993,52.300028 1370,56.320029 1370,57.15625 1370,59.05889 1371.8905,57.756241 1374.1875,54.25 1385.3721,37.177357 1388.0255,32.970269 1389.9375,29.1875 1391.5089,26.078756 1391.9859,24.187187 1391.6562,23.8125 z M 1374.75,66.40625 C 1374.4463,66.353765 1373.5074,67.042769 1371.9062,68.5625 1368.8835,71.431595 1363.0362,81.674665 1362.9688,84.21875 1362.95,84.921934 1362.0627,87.3 1361,89.5 1359.9373,91.7 1359.05,94.570155 1359.0312,95.875 1359.0028,97.869252 1358.7609,98.046441 1357.5,97 1355.6699,95.481114 1355.432,81.811146 1357.0938,74.0625 1358.6113,66.986259 1357.6993,65.566145 1355.6562,71.8125 1352.2636,82.185066 1352.5183,95.835352 1356.1875,100.5 1359.414,104.60189 1360.1449,103.93305 1361.4688,95.5 1362.119,91.357946 1363.2504,87.755202 1365.625,82.34375 1366.3856,80.610629 1367,78.915478 1367,78.5625 1367,78.209522 1368.8,75.538879 1371,72.625 1373.9864,68.669493 1375.2562,66.493726 1374.75,66.40625 z M 1402.9688,68.0625 C 1402.8497,67.976957 1402.4459,68.258006 1401.6875,68.875 1400.7533,69.634976 1399.0545,73.259943 1397.9375,76.9375 L 1395.9062,83.625 1398.9688,89.40625 C 1400.8156,92.917286 1401.9694,96.628778 1401.9375,98.84375 L 1401.9062,102.5 1400.2188,100 C 1396.9267,95.122655 1393.1421,92 1390.5625,92 1388.8934,92 1386.5984,93.401496 1384.0312,95.96875 1381.8513,98.14869 1379.8514,99.573029 1379.5938,99.15625 1378.9178,98.062658 1382.389,90.742711 1384.3438,89.125 1386.7642,87.122071 1386.9466,87.944585 1380.8438,72.09375 1380.2176,70.467652 1379.5625,70.031212 1378.875,70.71875 1378.1875,71.406288 1378.7021,73.760507 1380.4375,78.03125 1383.5046,85.579428 1383.541,86.40693 1381.0938,89.84375 1378.0775,94.079659 1376.3162,103.33233 1377.875,106.75 1378.4528,108.01701 1380.2117,106.19614 1382.0312,102.4375 1386.7281,92.734943 1392.947,93.048453 1398.5312,103.25 1399.3591,104.7625 1400.9199,106 1401.9688,106 1406.075,106 1405.775,98.386328 1401.2812,88.6875 1398.6209,82.945652 1398.5812,82.809752 1400.125,77.1875 1400.9843,74.058283 1402.0705,70.6 1402.5312,69.5 1402.9054,68.606955 1403.0878,68.148043 1402.9688,68.0625 z"/>
</svg>
