<svg xmlns="http://www.w3.org/2000/svg"
     width="59.8" height="64.0"
     viewBox="521.5256 14.9376 89.4744 95.8133">
  <path d="M 607,33.125 607,27.90625 C 604.77298,31.285513 601.79133,35.82151 600.15625,38.3125 598.42332,40.952573 597,43.765073 597,44.5625 597,47.749003 598.69315,46.081123 604.53125,37.21875 605.89038,35.155561 606.43103,34.150079 607,33.125 z M 571.42228,105.61509 C 569.72953,104.85958 566.6831,102.78264 564.65242,100.99968 560.29802,97.176468 557.06456,97.345222 550.51636,101.73744 547.51604,103.74992 545.38237,104.39453 542.08206,104.28558 534.01436,104.01924 529.85315,98.962674 527.47559,86.536253 525.52557,76.344435 527.19744,67.650498 532.97874,57.919128 537.53761,50.245403 537.53545,50.255293 535.50616,46.364307 533.82667,43.144035 533.46253,32.450211 535,31.5 535.5906,31.13499 536,32.252468 536,34.229541 536,37.328834 537.65888,41.483403 540.9291,46.574213 542.12015,48.428342 541.85639,49.224129 538.44323,54.074213 532.96274,61.86196 530.85093,68.127736 530.72229,76.982446 530.50624,91.852715 535.05938,101.01434 542.65121,100.98526 544.76804,100.97715 547.45374,100.41465 548.61941,99.735258 555.65552,95.6344 557.3483,94.926003 560.38429,94.811869 563.00725,94.713262 565.00781,95.711072 569.46229,99.339671 575.663,104.39073 578.32984,104.70197 582.56445,100.86876 583.6999,99.840943 585.1624,99 585.81445,99 589.72613,99 582.72654,105.64279 578,106.41612 575.95378,106.75091 573.22162,106.41819 571.42228,105.61509 z M 567.45295,91.920838 C 561.3797,85.653673 561.08929,85.611777 554.53862,90.057721 551.34391,92.225975 547.88418,94 546.85033,94 541.8314,94 538.54799,80.447621 541.38581,71.445025 543.19503,65.705508 549.44977,59 552.99423,59 554.08788,59 557.04606,60.575 559.56794,62.5 565.03493,66.673046 568.21273,66.899003 573.2543,63.473165 577.38091,60.66906 583.99385,51.1066 584.94041,46.574765 585.27646,44.965886 586.10234,43.465886 586.7757,43.241432 588.65579,42.614736 588.21739,46.151849 586,49.5 584.90725,51.15 584.01021,53.247091 584.00659,54.160202 583.99701,56.573697 576.48723,65.696683 573.04466,67.476904 567.98967,70.090944 564.22736,69.418628 558.29386,64.840966 L 552.90298,60.681932 550.20149,62.684983 C 546.49488,65.433292 543.03627,71.800328 543.01645,75.912108 542.99109,81.17233 546.08592,90 547.95543,90 548.83003,90 551.93712,88.425 554.86009,86.5 557.78305,84.575 560.83264,83 561.63694,83 564.02937,83 568.68283,85.781323 570.80562,88.48002 573.10682,91.405515 574.05421,91.540447 577.99291,89.503667 582.23323,87.310912 582.74518,89.432122 578.83713,93.001577 574.45748,97.00177 572.16585,96.784218 567.45295,91.920838 z M 543.02224,34.25 C 543.03447,33.8375 543.92446,32.375 545,31 546.07554,29.625 546.96553,28.202884 546.97776,27.839743 547.03376,26.176987 552.50195,19 553.71282,19 555.41052,19 554.37027,21.104664 548.6467,29.25 544.98204,34.465247 542.96263,36.260452 543.02224,34.25 z M 560.95411,56.718197 C 559.13468,55.28445 556,50.892759 556,49.777494 556,48.195794 558.3394,49.074172 560.58758,51.5 564.35104,55.560837 568.2502,54.894999 573.54782,49.286854 575.99652,46.694623 578,44.219623 578,43.786854 578,43.354084 578.45,43 579,43 581.43288,43 579.56079,46.525185 574.20094,52.036772 568.15828,58.250493 564.52706,59.533763 560.95411,56.718197 z M 561,34.880811 C 561,33.225859 567.58051,22.689605 569.95783,20.538161 571.08777,19.515583 572.27096,18.937629 572.58715,19.253818 573.37147,20.038137 571.37515,23.698416 567.54427,28.5 565.78903,30.7 564.06264,33.2875 563.70785,34.25 562.99507,36.183664 561,36.648428 561,34.880811 z M 582.51717,34.027779 C 581.89207,33.016346 589.93265,20.150972 591.25,20.05477 593.07631,19.9214 591.67977,23.638621 587.85511,29.091052 583.36494,35.492221 583.4014,35.458502 582.51717,34.027779 z"/>
</svg>
