<svg xmlns="http://www.w3.org/2000/svg"
     width="64.0" height="56.8"
     viewBox="603.0000 14.0000 111.1158 98.6724">
  <path d="M 607,33.125 C 607.23027,32.710141 608,31.546275 608,31.46875 608,31.199667 609.35,29.121508 611,26.84375 614.26679,22.334073 614.67305,20.982524 612.75,21.03125 612.0625,21.04867 609.66082,23.86117 607.40625,27.28125 607.27894,27.47438 607.13328,27.704004 607,27.90625 L 607,33.125 z M 710,24.9375 C 709.02608,26.317271 708.23245,27.508537 707.25,28.8125 705.45711,31.192128 704,33.827544 704,34.65625 704,36.793765 706.14926,35.818539 707.96875,32.84375 708.32922,32.254395 709.2961,30.952064 710,29.9375 L 710,24.9375 z M 654.625,18 C 652.9185,18 644.89813,30.015965 645.71875,31.34375 646.04845,31.877216 647.03139,31.382206 647.90625,30.21875 656.65456,18.584603 656.96987,18 654.625,18 z M 676,19 C 674.7372,19 666,30.959442 666,32.6875 666,35.415982 667.90254,33.759844 672.375,27.09375 677.2449,19.835292 677.60181,19 676,19 z M 694.6875,19 C 693.05898,19 685,30.334111 685,32.625 685,35.957414 688.47087,32.303511 693.4375,23.75 695.58021,20.059837 695.86236,19 694.6875,19 z M 633.03125,20.0625 C 632.79689,20.076057 632.49147,20.191698 632.09375,20.4375 630.60132,21.359872 624,31.477033 624,32.84375 624,34.904778 625.70105,34.062117 628.21875,30.75 632.43474,25.203714 634.67175,19.9676 633.03125,20.0625 z M 674.25,37.125 C 673.57843,37.196236 672.32638,37.812534 669.9375,39.03125 667.73999,40.152338 666.2074,41.507252 666.53125,42.03125 666.88544,42.604354 668.54083,42.396938 670.6875,41.5 672.65025,40.679912 674.41717,40 674.625,40 674.83284,40 675,39.325 675,38.5 675,37.534683 674.92157,37.053764 674.25,37.125 z M 677.5,38.65625 C 676.58679,39.00668 677.45962,41.010969 680.46875,45.40625 682.82706,48.85092 685.0595,52.652788 685.4375,53.84375 685.93576,55.413618 686.94345,56 689.0625,56 691.39369,56 692.68932,55.03841 695.46875,51.25 697.38546,48.6375 698.95511,45.9375 698.96875,45.25 699.01241,43.048583 697.0943,43.908688 695.625,46.75 694.84218,48.263798 693.24719,50.396616 692.0625,51.46875 689.91345,53.413615 689.8815,53.382428 687.5,50.4375 686.18717,48.814068 684.53998,46.375 683.84375,45 681.84054,41.043803 678.91719,38.112423 677.5,38.65625 z M 632.71875,39.59375 C 627.77301,39.678267 626.48479,40.114633 623.875,42.59375 617.25097,48.886113 614.32709,58.565786 616.0625,68.53125 617.40952,76.266438 619.43958,78.597104 621.0625,74.34375 621.66242,72.771471 622.73732,69.25 623.46875,66.5 625.36664,59.364448 626.51193,56.806241 628.9375,54.25 631.99793,51.024708 633.24293,51.407255 637.03125,56.75 638.88367,59.3625 640.67665,61.725 641,62 641.32335,62.275 641.68878,64.147634 641.84375,66.15625 642.06688,69.048406 641.38701,70.77813 638.59375,74.4375 632.73617,82.111345 632.5999,88.188094 637.96875,99.4375 641.55166,106.94483 642.27306,107.60195 644.4375,105.4375 647.83256,102.04244 648.2238,100.06607 646.90625,93.4375 645.51494,86.437861 646.31677,83.837596 651.6875,77.59375 L 654.125,74.71875 658.125,78.59375 C 663.12455,83.475672 663.52784,85.201158 661.53125,92.90625 659.77632,99.678732 660.11963,102.29573 663.28125,105.75 665.95604,108.67237 666.80854,108.58686 668.1875,105.25 668.81254,103.7375 670.40946,100.025 671.75,97 675.16031,89.304405 674.93224,82.155786 671,73.84375 669.3521,70.360392 668.00043,66.545332 668,65.375 667.99816,60.406014 673.5004,51.946048 675.8125,53.375 676.33329,53.696867 677.74493,55.905488 678.9375,58.25 686.06281,72.257961 688.24333,73.479246 695,67.375 700.39675,62.49936 710.11583,43.885369 707.1875,44.03125 706.81142,44.049985 704.71969,47.729854 702.5625,52.1875 698.47023,60.643809 692.48906,68 689.6875,68 688.22529,68 686.72016,65.849552 682.125,57.125 680.05768,53.199906 676.85865,50 675,50 672.86294,50 669.78184,53.424611 667.125,58.71875 664.34713,64.254055 664.43992,65.635667 668.09375,73 672.66554,82.21449 673.03185,88.572679 669.4375,96.3125 667.86046,99.708392 666.45341,102.69038 666.3125,102.90625 666.17159,103.12213 665.32348,102.6728 664.4375,101.9375 662.75049,100.53741 662.75577,100.43994 665.15625,88.21875 L 666.375,81.96875 660.96875,76.46875 C 657.99332,73.455896 655.18933,71 654.71875,71 653.43891,71 651.87559,72.852004 647.21875,79.875 642.63597,86.78629 642.4102,87.815447 644.15625,94.34375 644.79764,96.741832 645.01834,99.53748 644.625,100.5625 644.04703,102.06867 643.29081,101.285 640.78125,96.46875 636.37418,88.010834 636.30548,80.692231 640.5625,75.84375 645.12729,70.644744 646.49928,66.733873 644.84375,63.625 638.10496,50.970408 634.56618,47.021954 631.5625,48.71875 628.11454,50.666512 623.5131,58.016005 620.4375,66.5 619.80993,68.231164 619.62361,68.070629 619,65.3125 617.31486,57.859341 621.7818,45.914249 627.4375,42.71875 628.57742,42.07469 631.525,41.541817 634,41.53125 636.475,41.520683 638.5,41.05 638.5,40.5 638.5,39.93713 635.9764,39.53808 632.71875,39.59375 z"/>
</svg>
