<svg xmlns="http://www.w3.org/2000/svg"
     width="43.4" height="64.0"
     viewBox="1271.0000 14.8646 63.9363 94.3709">
  <path d="M 1275,45.6875 C 1277.0904,42.282718 1279.5734,38.342245 1280.6875,36.71875 1286.0846,28.85381 1291.2048,19.892314 1290.625,19.3125 1290.2765,18.964017 1289.8523,18.864584 1289.6875,19.09375 1289.0484,19.982392 1280.2465,33.507416 1275,41.59375 L 1275,45.6875 z M 1310.625,19.8125 C 1309.904,19.947367 1308.1911,22.308647 1306.0312,26.25 1304.1476,29.6875 1301.1307,34.584313 1299.3125,37.125 1297.4943,39.665686 1296,42.253186 1296,42.875 1296,45.347857 1297.6996,43.684104 1301.7188,37.25 1305.8873,30.576734 1311,21.300518 1311,20.4375 1311,19.965446 1310.8653,19.767544 1310.625,19.8125 z M 1330.375,21.5625 C 1329.8241,21.745675 1328.7639,22.85158 1327.6562,24.5 1326.1793,26.697892 1322.7499,31.605869 1320.0312,35.40625 1317.3127,39.206631 1315.3168,42.720039 1315.625,43.21875 1316.2727,44.266768 1316.7258,43.93068 1318.9062,40.59375 1319.7812,39.254644 1322.89,34.697658 1325.8125,30.5 1328.7349,26.302343 1330.9363,22.340297 1330.7188,21.6875 1330.6644,21.524301 1330.5586,21.501442 1330.375,21.5625 z M 1295.1875,51.96875 C 1294.846,51.827962 1294.0801,52.427054 1292.9062,53.875 1289.5943,57.960255 1287.6709,66.586211 1288.2812,74.65625 1288.7121,80.352016 1288.5166,82.151612 1287.3438,83.125 1286.5232,83.805953 1284.9713,86.068398 1283.9062,88.15625 1282.3313,91.243473 1282.1584,92.734326 1282.9062,96.0625 1283.4119,98.313305 1284.6026,101.00187 1285.5625,102.0625 1288.434,105.2355 1290.6514,104.5177 1291.3438,100.1875 1291.6804,98.082587 1293.0236,95.365317 1294.3438,94.125 1296.4375,92.158053 1297.3903,91.986407 1301.9688,92.59375 1304.8413,92.974808 1307.707,93.941275 1308.3438,94.75 1313.9886,101.92007 1318.3468,103.90445 1325.5,102.5625 1329.4854,101.81484 1330.0303,99.83502 1326.875,97.625 1321.0132,93.519213 1319.5143,85.708594 1323.125,78.25 1324.2879,75.847645 1324.9784,73.665855 1324.6875,73.375 1323.826,72.513452 1319.7699,74.968984 1315.7812,78.78125 1312.1088,82.291383 1312.012,82.317855 1309.9688,80.46875 1304.2712,75.312556 1303.6076,64.808697 1308.5625,58.3125 1311.1849,54.874393 1311.7352,52.598651 1309.7812,53.25 1307.8061,53.908373 1303.9593,62.614537 1303.3438,67.8125 1302.9299,71.30614 1303.2446,73.577619 1304.5,76.0625 1306.5176,80.056002 1310.9033,84.999936 1312.4375,85 1313.0221,85.000025 1314.92,83.312525 1316.6562,81.25 1319.8688,77.433759 1322.0579,77.173875 1320.0938,80.84375 1318.2841,84.225327 1318.8773,90.217618 1321.4688,94.75 L 1323.875,99 1320.1562,99 C 1315.7868,99 1312,96.681072 1312,94 1312,92.660538 1310.8988,91.79812 1308.25,91.0625 1306.1875,90.489715 1304.0181,90.003067 1303.4375,90 1301.5786,89.99018 1295.7882,85.1805 1293.125,81.4375 1290.9215,78.340517 1290.5625,76.760356 1290.5625,70.5625 1290.5625,64.59842 1291.0545,62.352124 1293.3125,58 1295.1594,54.440171 1295.7566,52.203397 1295.1875,51.96875 z M 1289.5,84.1875 C 1290.5336,84.180107 1291.6734,85.096105 1293.4375,86.9375 L 1296.25,89.875 1293.2188,92.6875 C 1291.5525,94.233589 1290.0357,96.351826 1289.8438,97.40625 1289.1703,101.10814 1287.2292,100.03111 1285.5938,95.03125 1283.9795,90.096037 1283.995,89.923239 1286.1562,87 1287.5342,85.136132 1288.4664,84.194893 1289.5,84.1875 z"/>
</svg>
