<svg xmlns="http://www.w3.org/2000/svg"
     width="33.9" height="64.0"
     viewBox="1016.0000 15.6081 50.0000 94.3919">
  <path d="M 1062,32.5 C 1060.0975,35.68838 1058,39.209484 1058,39.59375 1058,41.012417 1060.0384,39.187546 1062,36.46875 L 1062,32.5 z M 1020,35.46875 1020,37.90625 C 1022.0765,35.15773 1024.4213,31.929179 1027.5312,27.03125 1031.089,21.428089 1031.6116,20 1030.1562,20 1028.9553,20 1023,29.466867 1023,31.375 1023,32.260667 1022.6316,33 1022.1875,33 1021.9726,33 1020.8459,34.472019 1020,35.46875 z M 1051.7188,19.9375 C 1050.3876,19.608066 1044.8186,26.516945 1041.1562,33.40625 1040.0129,35.556956 1039.3451,37.746359 1039.6562,38.25 1040.2266,39.172627 1045,32.889942 1045,31.21875 1045,30.724814 1045.9374,29.452695 1047.0938,28.40625 1049.0095,26.672442 1052,21.902438 1052,20.5625 1052,20.198963 1051.9089,19.984562 1051.7188,19.9375 z M 1049.8125,44 C 1048.7782,44 1048.5371,46.491449 1048.7188,55.40625 1048.947,66.614859 1048.2942,70.855392 1045.4375,76.15625 1044.114,78.61228 1044.1681,79.064722 1046.375,81.6875 1049.8378,85.802771 1051.4001,91.741382 1050.1562,96.03125 1049.2404,99.190122 1049.0922,99.293131 1048.4688,97.28125 1046.6683,91.472145 1043.1603,86.492398 1040.6562,86.1875 1038.5816,85.934887 1037.5898,86.697404 1035.4062,90.15625 1033.9256,92.50183 1032.4287,95.434733 1032.0938,96.6875 1031.3403,99.50489 1029.6044,99.768808 1029.1875,97.125 1028.6533,93.737329 1030.8836,87.421434 1034,83.5 1037.614,78.952364 1037.6548,77.872536 1034.625,68.6875 1032.3053,61.655134 1031.523,58.046806 1030.3438,49 1029.6737,43.859377 1029.5243,43.565327 1028.0625,44.46875 1025.8249,45.8517 1027.4525,57.831737 1031.7188,71.3125 L 1034.1875,79.09375 1031.625,82.8125 C 1028.6737,87.077518 1026,94.170586 1026,97.6875 1026,99.020664 1026.6922,101.43981 1027.5312,103.0625 1028.3704,104.68519 1029.6804,106 1030.4375,106 1031.8921,106 1034,101.06937 1034,97.6875 1034,95.176736 1038.8113,88.769973 1040.0938,89.5625 1041.8664,90.658075 1045,97.91213 1045,100.90625 1045,104.25369 1046.0356,105.2967 1048.4375,104.375 1053.3062,102.50673 1054.4108,91.577832 1050.5625,83.3125 1048.35,78.56059 1048.2672,77.771885 1049.4375,73.8125 1051.2704,67.610736 1051.5648,44 1049.8125,44 z"/>
</svg>
