<svg xmlns="http://www.w3.org/2000/svg"
     width="31.2" height="64.0"
     viewBox="1058.0000 16.0346 45.5805 93.6481">
  <path d="M 1062,32.5 1062,36.46875 C 1062.3384,35.999693 1062.6443,35.77884 1062.9688,35.25 1064.3554,32.989554 1066.7828,29.05331 1068.3438,26.5 1071.0111,22.137025 1071.3564,20.034602 1069.1875,21.375 1068.5761,21.752887 1065.0597,27.372198 1062,32.5 z M 1082.0968,101.37268 C 1077.0693,95.661066 1074.1243,86.493322 1072.0191,70 1070.7624,60.155167 1070.7543,52.269875 1072,51.5 1072.55,51.160081 1073.0295,51.471024 1073.0656,52.190983 1073.3555,57.974884 1074.0948,66.183741 1074.6245,69.5 1074.9759,71.7 1075.4183,74.625 1075.6076,76 1076.9815,85.981241 1081.8158,98.295857 1085.0367,100.01965 1087.3556,101.26066 1087.2937,101.3764 1090.3927,89.993737 1093.4729,78.679543 1096.202,61.925464 1096.3753,53.265986 1096.4439,49.837278 1096.95,47.028799 1097.5,47.024922 1099.5805,47.010254 1097.7077,70.249435 1094.4395,85 1092.1305,95.421507 1088.9017,104.82374 1087.4391,105.38501 1086.6634,105.68268 1084.3833,103.97019 1082.0968,101.37268 z M 1080.7444,36.199072 C 1081.9491,33.013835 1090.0937,21 1091.0484,21 1092.6196,21 1092.1993,22.012363 1087.4943,29.561276 1083.3014,36.288498 1079.1765,40.344948 1080.7444,36.199072 z"/>
</svg>
