<svg xmlns="http://www.w3.org/2000/svg"
     width="53.8" height="64.0"
     viewBox="0.0000 17.1878 78.0000 92.8122">
  <path d="M 74,38.34375 C 72.857711,40.386973 71.666283,42.566346 70.46875,44.5 68.765646,47.25 67.112862,50.209915 66.78125,51.09375 66.449638,51.977585 62.766198,58.462185 58.59375,65.46875 54.421301,72.475315 51,78.525643 51,78.9375 51,79.349358 50.143494,80.456245 49.09375,81.40625 48.044006,82.356255 46.628338,84.564762 45.9375,86.3125 45.246661,88.060238 44.144603,90.175 43.5,91 42.855397,91.825 40.691908,95.5375 38.6875,99.25 36.683092,102.9625 35.430656,106 35.90625,106 37.56576,106 44,97.974202 44,95.90625 44,93.880845 48.083157,86.169986 54.03125,77 55.636654,74.525 57.739103,70.925 58.6875,69 61.802545,62.677269 72.164025,45.012102 73.09375,44.4375 73.59429,44.12815 74,43.268116 74,42.5 L 74,38.34375 z M 74,73.375 C 70.749962,79.125102 67.767591,84.02047 64.59375,88.71875 57.954744,98.546563 55.348998,102.45089 54.59375,103.75 54.140092,104.53034 54.477267,105 55.46875,105 56.363149,105 59.122758,101.69326 61.78125,97.4375 64.377688,93.281086 68.93867,86.193586 71.90625,81.6875 72.673077,80.523121 73.191455,79.557021 74,78.28125 L 74,73.375 z M 8.03125,22 C 7.1623897,22 4,27.045327 4,28.4375 4,30.078007 6.1487497,28.615099 7.46875,26.0625 9.254818,22.608625 9.3470739,22 8.03125,22 z M 27.0625,22 C 26.555427,22 24.830567,24.5875 23.21875,27.75 20.143792,33.783287 15.720126,41.482386 9.625,51.4375 7.6243495,54.705144 6,57.742644 6,58.1875 6,60.020731 8.8996128,58.829403 9.5,56.75 10.473869,53.377066 16.685879,41.663821 22.6875,31.8125 28.297243,22.604425 28.535476,22 27.0625,22 z M 46.71875,22.0625 C 46.198076,21.699427 44.998497,22.876933 43.625,25.25 39.225402,32.851426 37.553024,35.802293 34.75,41 33.118675,44.025 31.256554,47.175 30.59375,48 29.930946,48.825 28.824766,50.625 28.15625,52 27.487734,53.375 22.057381,62.584233 16.0625,72.46875 10.067619,82.353268 5.3737993,90.824235 5.65625,91.28125 5.9387007,91.738265 6.6449709,91.94126 7.21875,91.75 8.4675436,91.333735 14.926009,80.062565 14.96875,78.21875 14.985231,77.507765 16.70718,74.582765 18.8125,71.71875 20.917819,68.854735 23.943347,64.25 25.5,61.5 27.056653,58.75 29.827782,54.157136 31.6875,51.28125 33.547218,48.405365 35.839766,44.355365 36.78125,42.28125 37.722733,40.207136 39.858082,36.475 41.53125,34 44.644284,29.395108 47,24.636396 47,22.9375 47,22.458718 46.892308,22.183524 46.71875,22.0625 z M 65.46875,22.15625 C 64.503541,21.187785 62.492315,24.179508 55.90625,36.28125 51.949365,43.551933 46.804659,52.65 44.46875,56.5 39.524296,64.649357 36.796474,69.390136 32.71875,77 31.097812,80.025 29.157312,83.206859 28.40625,84.0625 25.505454,87.367208 17.053298,102.31303 17.59375,103.1875 18.207179,104.18005 21,102.33665 21,100.9375 21,100.48241 22.35,98.101087 24,95.65625 25.65,93.211414 27,90.782109 27,90.25 27,89.717891 28.368822,87.560643 30.03125,85.46875 31.693677,83.376857 33.302803,80.627485 33.625,79.34375 33.947196,78.060016 34.535408,77 34.9375,77 35.339592,77 36.202009,75.9875 36.84375,74.75 37.485492,73.5125 39.137979,70.7 40.53125,68.5 41.924522,66.3 43.984742,62.7 45.09375,60.5 46.202758,58.3 48.105738,54.822258 49.3125,52.78125 50.519262,50.740243 53.651687,45.115243 56.28125,40.28125 58.910812,35.447258 61.519206,30.825 62.0625,30 63.673715,27.553344 65.845142,22.533912 65.46875,22.15625 z"/>
</svg>
