<svg xmlns="http://www.w3.org/2000/svg"
     width="60.2" height="64.0"
     viewBox="517.2500 14.0000 91.0000 96.6961">
  <path d="M 521.25,71.40625 C 521.85779,71.029756 522.3218,70.872771 523,70.40625 528.98622,66.288453 530.18511,66.460719 533.375,71.90625 L 535.25,75.125 532.75,77.8125 C 527.79439,83.129045 527.18927,87.063999 530.53125,92.5 531.20751,93.6 532.08209,96.304189 532.46875,98.5 532.85542,100.69582 533.39872,102.83332 533.65625,103.25 535.78607,106.69612 540.42097,97.37061 539.53125,91.4375 538.86803,87.014835 540.33574,83 542.625,83 543.26217,83 544.66339,84.6875 545.71875,86.75 547.2282,89.699932 547.42947,91.183921 546.6875,93.6875 545.44569,97.877708 546.48517,101.70332 549.09375,102.53125 551.89721,103.42103 552.62915,102.53231 555.53125,94.53125 558.69396,85.811712 558.65088,84.248025 555.03125,78.90625 551.56302,73.787907 551.4758,73.208422 553.84375,70.375 557.09474,66.484957 559.59795,66.509017 564.1875,70.4375 566.48156,72.401131 569.10585,74 570,74 572.25042,74 577.69104,69.820504 580.625,65.84375 582.91598,62.738492 589.09215,50.645617 590.375,46.75 590.78563,45.503063 592.02437,44.993999 594.71875,44.96875 596.79851,44.94926 599.625,44.286021 601,43.5 602.70202,42.527035 603.63403,42.08943 604.25,42.1875 L 602.3125,33.34375 C 601.60601,34.067634 600.87845,34.649077 600.03125,35 597.61176,36.002183 596.69594,35.992549 595.5,35 593.75128,33.548698 593.54406,29.712229 595.0625,26.875 595.64728,25.782334 595.99237,24.121175 595.8125,23.1875 595.25183,20.277073 591,28.307875 591,32.28125 591,37.396617 593.25506,39.292601 598.375,38.4375 L 602.5,37.75 600.59375,39.875 C 599.16253,41.469401 597.51684,42 593.96875,42 589.02995,42 587.73961,42.854164 586.46875,47 584.52256,53.348904 579.32008,62.466158 575.3125,66.53125 572.88969,68.988824 570.51648,71 570.03125,71 569.54602,71 567.48963,69.43719 565.46875,67.53125 559.29752,61.711038 556.6571,62.01898 551.4375,69.09375 548.31754,73.322618 548.40017,74.547586 552.03125,79.90625 553.67124,82.326514 555,85.312358 555,86.53125 555,89.645526 550.93436,99.060969 549.875,98.40625 549.39315,98.108453 549.28054,95.493267 549.625,92.5625 550.19666,87.698548 549.95846,86.834128 547.0625,82.625 545.31755,80.088797 543.57358,78.021336 543.1875,78.03125 542.80142,78.041164 541.01347,79.83233 539.1875,82.03125 536.04126,85.820101 535.88193,86.334241 536.53125,91.53125 536.9081,94.547416 536.95411,97 536.625,97 535.71727,97 531,87.301728 531,85.4375 531,84.539216 532.575,82.2375 534.5,80.3125 536.425,78.3875 538,76.03107 538,75.09375 538,72.138435 532.1954,64 530.09375,64 529.02964,64 525.79796,65.575 522.875,67.5 522.27653,67.894141 521.90482,68.048598 521.375,68.375 L 521.25,71.40625 z M 521.6875,61.9375 C 522.99896,61.344895 524.35958,60.484173 525.78125,59.0625 529.4918,55.351955 530.67212,55.286214 535.5,58.5625 537.57274,59.969102 539.83033,60.89397 540.53125,60.625 541.99187,60.064506 542.76405,51.099099 542,43.5625 541.55723,39.195026 541.17623,38.560001 538.71875,37.90625 536.15369,37.223878 532.10867,33.495362 532.03125,31.75 531.96871,30.340164 534.73593,30.997853 537.28125,33 541.17842,36.065515 543.65886,35.594943 545,31.53125 545.62997,29.622432 545.98732,27.077557 545.8125,25.875 545.33376,22.581719 547.16561,22.611175 551.84375,26 557.44081,30.054491 558.83544,33.095182 556.625,36.46875 555.37034,38.383606 554.08895,39 551.46875,39 L 548,39 548,45.25 C 547.99395,48.6875 547.71433,53.165997 547.375,55.21875 546.87916,58.218275 547.08519,59.082087 548.5,59.625 549.46824,59.996548 551.09785,59.793051 552.125,59.15625 553.15214,58.519448 554.83542,57.457071 555.875,56.8125 557.4813,55.816553 558.4169,56.191997 562.0625,59.3125 564.42192,61.332071 566.68495,63 567.09375,63 569.45092,63 574.57252,56.681561 578.5,48.90625 583.43524,39.135887 583.72754,37.848693 581.5,36 579.35431,34.219234 579.61881,27.192788 582,22.75 583.64043,19.689313 583.74308,19 582.53125,19 578.35229,19 575.93173,28.969367 578.40625,36 L 580,40.5 576.375,47.5 C 572.82973,54.384443 569.43157,59 567.875,59 567.44001,59 565.5355,57.65 563.65625,56 559.76897,52.586918 558.13975,52.340953 553.84375,54.5625 552.16995,55.428055 550.71652,55.990555 550.59375,55.8125 550.47097,55.634445 550.62611,52.575 550.9375,49 551.43772,43.25693 551.76092,42.465887 553.71875,42.1875 556.60134,41.777618 561,36.507553 561,33.46875 561,30.865288 559.06699,26 558.03125,26 557.67324,26 556.4701,25.143108 555.34375,24.09375 553.08667,21.990962 545.6709,18 544.03125,18 543.44545,18 543.00862,20.292393 543,23.25 542.97773,30.883307 542.29335,31.399565 536.78125,27.96875 532.55824,25.340279 531.92479,25.200206 530.53125,26.59375 527.11665,30.008343 530.42249,37.789338 536.5,40.6875 539.75675,42.240538 540.01268,42.69825 540,46.9375 539.99249,49.448134 539.70225,52.498029 539.375,53.71875 538.81292,55.815452 538.62197,55.856945 535.9375,54.46875 531.38735,52.115777 528.27289,52.633355 524.5,56.40625 523.44252,57.463729 522.59822,58.047779 521.8125,58.53125 L 521.6875,61.9375 z M 589.15625,20.5 C 586.82404,21.445056 583.77525,29.366053 584.5625,33.5625 584.9182,35.458526 585.82462,37 586.5625,37 587.58671,37 587.76973,35.798058 587.3125,31.9375 586.81605,27.745764 587.07265,26.395533 588.84375,24 590.01889,22.410534 590.57626,20.860708 590.09375,20.5625 589.80269,20.382617 589.48942,20.364992 589.15625,20.5 z"/>
</svg>
