<svg xmlns="http://www.w3.org/2000/svg"
     width="52.4" height="64.0"
     viewBox="1060.0000 18.9575 72.9062 89.0658">
  <path d="M 1128.9062 59.03125 C 1128.6019 59.34344 1128.1645 60 1127.9688 60 C 1127.4934 60 1126.7523 59.375486 1126.3125 58.625 C 1125.8727 57.874514 1124.0852 56.561167 1122.375 55.6875 C 1119.5267 54.232391 1118.8484 54.218271 1114.1562 55.71875 C 1111.3391 56.619657 1108.7396 57.083412 1108.375 56.71875 C 1108.0103 56.354088 1107.5093 53.823251 1107.25 51.125 C 1106.8538 47.001621 1107.1131 45.886948 1109 44 C 1110.9834 42.016559 1111.9311 41.810684 1117.0312 42.34375 C 1122.3732 42.902099 1122.9272 42.757189 1124.4062 40.5 C 1125.2852 39.158431 1126 36.117228 1126 33.71875 C 1126 28.684238 1123.4361 25.559049 1118 24 C 1115.122 23.174602 1113.9237 23.460046 1109.0938 26.1875 C 1106.023 27.921553 1102.4786 30.130694 1101.2188 31.09375 C 1098.7019 33.01783 1098.5631 32.975111 1084.0938 26.28125 C 1078.0902 23.503896 1072.9603 22.957468 1070.6875 24.84375 C 1067.784 27.253403 1065.7797 33.004185 1066.5 36.84375 C 1068.0022 44.851323 1070.4784 45.549208 1073.7812 38.9375 C 1074.7262 37.045765 1076.2957 35.365368 1077.25 35.1875 C 1078.2043 35.009633 1081.8043 36.546078 1085.25 38.625 C 1088.6957 40.703921 1091.6403 42.490812 1091.8125 42.59375 C 1091.9848 42.696688 1092.7181 45.023083 1093.4375 47.75 C 1095.5392 55.717436 1092.7008 57.617435 1085.8438 52.84375 C 1082.3424 50.406156 1079.2842 50.517763 1074.8125 53.25 C 1069.1116 56.733234 1064 64.403079 1064 69.4375 C 1064 75.650171 1069.5727 83.802312 1072.0938 81.28125 C 1072.5827 80.792336 1073.4889 77.740595 1074.0938 74.46875 C 1075.5117 66.798049 1076.519 65 1079.4688 65 C 1083.5988 65 1091 70.307274 1091 73.28125 C 1091 73.51678 1089.65 75.423745 1088 77.5 C 1086.35 79.576255 1085 82.087511 1085 83.0625 C 1085 84.037489 1086.3504 87.669366 1088 91.15625 C 1089.6496 94.643133 1090.9996 98.257459 1091 99.1875 C 1091.0014 102.25312 1093.2565 102.39888 1095.75 99.5 C 1098.1872 96.666579 1098.238 95.321213 1096.3438 87.40625 C 1096.0226 86.06386 1096.7556 84.247456 1098.3125 82.4375 L 1100.75 79.59375 L 1103.4062 82.53125 C 1106.1543 85.585826 1106.1282 85.503511 1104.5 95.9375 C 1104.104 98.474942 1105.5046 101.98018 1107.4062 103.25 C 1108.0115 103.65408 1108.8203 103.99158 1109.2188 104 C 1110.3209 104.0233 1112.508 99.264761 1115.0312 91.375 L 1117.3125 84.28125 L 1115.125 79.75 C 1112.8341 75.017652 1113.1714 71.747836 1116.2188 69.21875 C 1117.3629 68.269137 1118.3664 68.552589 1121.0938 70.59375 C 1122.9744 72.00134 1126.2073 74.019353 1128.2812 75.09375 C 1128.3733 75.141419 1128.3809 75.111023 1128.4688 75.15625 L 1128.5625 71.625 C 1127.1191 70.789113 1125.4083 69.636161 1123.75 68.375 L 1117.6562 63.75 L 1113.3438 68.40625 C 1110.962 70.963545 1109 73.351935 1109 73.71875 C 1109 74.085565 1110.1638 76.092759 1111.5938 78.15625 C 1114.8209 82.812985 1114.9086 86.905176 1111.9062 93.78125 C 1108.3621 101.89792 1106.2848 99.265596 1108.7812 89.8125 C 1109.7069 86.307499 1108.6849 83.063088 1105.9688 81 C 1105.6067 80.725 1104.7767 79.4875 1104.125 78.25 C 1102.501 75.166204 1100.6694 75.420854 1097.5 79.1875 C 1093.6948 83.709769 1093.0184 86.042142 1094.25 90.65625 C 1094.8406 92.869099 1095.021 95.530651 1094.625 96.5625 C 1094.078 97.988075 1093.2926 96.767296 1091.4375 91.46875 C 1088.4205 82.852092 1088.438 81.838038 1091.3438 78.3125 C 1092.6252 76.757801 1093.9733 74.66868 1094.3438 73.65625 C 1095.8824 69.451778 1086.7296 62 1080.0312 62 C 1076.2213 62 1073.4398 66.095215 1072.4688 73.15625 C 1071.7296 78.530137 1070.886 79.098444 1068.5625 75.78125 C 1066.5886 72.963162 1066.5559 66.759532 1068.5 63 C 1071.8404 56.540441 1081.7306 52.548686 1084.9062 56.375 C 1086.3403 58.10306 1094.4439 60.440564 1096.4062 59.6875 C 1097.5537 59.247189 1097.7603 57.850617 1097.3438 53.3125 C 1096.2902 41.830715 1095.774 40.937773 1087.6562 36.25 C 1083.6084 33.9125 1079.2993 32 1078.0625 32 C 1076.8257 32 1074.5546 33.338052 1073.0312 34.96875 C 1071.5079 36.599448 1069.9723 37.659865 1069.625 37.3125 C 1068.4262 36.113744 1068.9933 31.423417 1070.625 29.09375 C 1072.0408 27.072452 1072.8842 26.84161 1076.875 27.25 C 1079.441 27.51258 1085.2189 29.548795 1089.875 31.84375 C 1098.3965 36.044026 1098.9399 36.094022 1102.5312 32.875 C 1106.1693 29.614076 1113.8737 26.241986 1116.5312 26.75 C 1121.4039 27.681475 1124.9733 35.62043 1121.9062 38.6875 C 1121.2994 39.29429 1119.1243 39.561991 1117.0312 39.28125 C 1112.2919 38.645578 1106.1716 41.390602 1104.9062 44.71875 C 1103.7012 47.888539 1103.7382 56.200953 1104.9688 59.4375 C 1106.0431 62.262971 1109.0418 62.840323 1110.9062 60.59375 C 1111.5431 59.826284 1113.6827 58.901475 1115.6562 58.53125 C 1118.6717 57.965541 1119.6721 58.26712 1121.9375 60.4375 C 1123.4201 61.857891 1124.9382 62.718117 1125.3125 62.34375 C 1125.6869 61.969383 1126 62.202084 1126 62.84375 C 1126 63.485417 1126.9069 64 1128 64 C 1128.1971 64 1128.5264 63.689619 1128.7812 63.5625 L 1128.9062 59.03125 z "/>
</svg>
