<svg xmlns="http://www.w3.org/2000/svg"
     width="45.9" height="64.0"
     viewBox="87.8379 16.2891 62.1621 86.7415">
  <path d="M 108.11405,96.799965 C 107.5859,95.410823 106.43231,90.093603 105.55052,84.983921 103.90252,75.43423 100.40645,61.073117 99.511916,60.178583 99.235011,59.901678 97.860377,60.198217 96.457173,60.837559 93.313732,62.269807 92,62.311367 92,60.978561 92,60.41677 93.125,59.444538 94.5,58.818046 97.360841,57.51456 97.690629,55.818061 95.445404,53.954689 93.249965,52.132637 91.837897,49.218219 92.848048,48.593912 93.317449,48.303806 95.206091,49.176496 97.045032,50.533223 98.883972,51.88995 100.65756,53 100.98635,53 101.87531,53 112.73548,30.979648 113.56263,27.5 114.9,21.874044 118.15383,20.289118 121.26134,23.75 122.96565,25.648118 131,46.074532 131,48.509421 131,50.570759 131.74734,50.390388 135.18237,47.5 136.81646,46.125 138.5661,45 139.07045,45 140.61944,45 146,53.16469 146,55.51518 146,58.186278 142.4161,63 140.42742,63 138.32284,63 138.6914,61.070476 141.18105,59.054482 143.16328,57.449369 143.24462,57.004789 142.07346,54.177345 141.36471,52.466276 140.10503,50.502129 139.27416,49.812574 138.01578,48.76821 137.36658,49.054923 135.38672,51.529418 134.07949,53.163238 133.0077,54.740477 133.00497,55.034392 133.00224,55.328308 134.33053,56.354747 135.95673,57.315368 140.10695,59.766962 139.09193,62.521389 134.9079,60.161563 131.53863,58.261274 130.99005,58.710359 129.17174,64.857372 124.70317,79.96391 118.57896,98 117.91806,98 115.74291,98 116.50048,94.572393 122.91082,75.410406 L 129.84823,54.672867 127.36786,48.086433 C 126.00366,44.463895 123.79497,38.404738 122.45966,34.62164 118.81199,24.28732 116.58569,22.361066 115.4271,28.53688 115.06217,30.482164 112.85522,35.994664 110.52278,40.78688 101.98254,58.333625 102.54974,56.231043 104.32024,63.779633 105.18718,67.475835 106.42174,74.1 107.06371,78.5 107.70568,82.9 108.92237,88.884104 109.76746,91.798009 110.89732,95.693821 111.00893,97.391075 110.18915,98.210849 109.36938,99.030622 108.82017,98.657211 108.11405,96.799965 z"/>
</svg>
