<svg xmlns="http://www.w3.org/2000/svg"
     width="45.5" height="64.0"
     viewBox="850.4688 48.1520 21.2199 29.8480">
  <path d="M 854.46875,55.90625 854.78125,60.4375 C 855.30928,60.655001 855.93114,61 856.28125,61 859.06665,61 867.68868,53.536284 866.0625,52.53125 865.44881,52.151964 863.36525,53.244913 861.4375,54.9375 859.50975,56.630088 857.6758,58 857.375,58 857.19394,58 855.63521,56.780397 854.46875,55.90625 z M 855.3125,68.375 855.6875,73.90625 C 855.73701,73.914038 855.83028,74 855.875,74 858.51809,74 866,69.864904 866,68.40625 866,66.546707 863.57239,66.605391 862,68.5 860.44553,70.373019 858.44169,70.373172 855.3125,68.375 z"/>
</svg>
