<svg xmlns="http://www.w3.org/2000/svg"
     width="34.0" height="64.0"
     viewBox="501.4218 21.7445 30.6214 57.5745">
  <path d="M 521.25,71.40625 521.375,68.375 C 515.54698,71.96542 513.49515,71.651253 511.5,66.75 508.99184,60.588498 509.53162,48.608041 512.90625,36.40625 514.60394,30.267881 515.31772,29.651279 520.40625,29.84375 522.93003,29.939212 525,29.605538 525,29.09375 525,27.679532 518.19911,25.744503 515.5625,26.40625 512.54966,27.162424 509.50257,34.578021 507.5,46 505.42176,57.85361 505.63543,61.634061 508.78125,68 512.04282,74.600193 514.93349,75.319015 521.25,71.40625 z M 521.6875,61.9375 521.8125,58.53125 C 520.76263,59.177256 519.8484,59.511283 518.96875,59.28125 517.3821,58.866332 516.98978,58.199633 517.40625,56.625 517.90108,54.754088 519.34446,47.733477 520.59375,41.25 520.92771,39.516822 521.73502,39 524.03125,39 528.04316,39 527.78698,37.21566 523.53125,35.4375 521.62391,34.640565 519.83582,34 519.5625,34 518.31035,34 516.80339,38.676532 515.9375,45.28125 515.41701,49.251358 514.71646,53.972054 514.375,55.78125 513.91685,58.20871 514.23126,59.619464 515.59375,61.125 517.16369,62.859761 519.31055,63.011559 521.6875,61.9375 z"/>
</svg>
