<svg xmlns="http://www.w3.org/2000/svg"
     width="63.0" height="64.0"
     viewBox="0.0000 13.1143 92.3307 93.7322">
  <path d="M 4,22 C 4,21.45 4.45,21 5,21 5.55,21 6,21.45 6,22 6,22.55 5.55,23 5,23 4.45,23 4,22.55 4,22 z M 6,55.583053 C 6,55.353732 7.5235167,52.316232 9.3855927,48.833053 11.247669,45.349874 14.443158,39.35 16.48668,35.5 23.28257,22.696527 24.35869,21 25.684141,21 26.407863,21 27,21.660877 27,22.468615 27,23.363208 26.413711,23.71225 25.5,23.361626 24.536572,22.991924 24,23.381977 24,24.452028 24,25.368331 24.440101,25.846036 24.978003,25.513595 25.515905,25.181153 23.867304,28.417095 21.314446,32.704578 18.761587,36.99206 15.252714,42.975 13.516951,46 8.8073058,54.207728 7.5961784,56 6.7594532,56 6.3417539,56 6,55.812374 6,55.583053 z M 32.606989,100.41821 C 32.273145,99.548229 32,97.984106 32,96.942382 32,95.900659 31.101682,93.574963 30.003738,91.77417 27.467452,87.61428 27.466285,83.469735 30,78.5 33.333125,71.962268 32.239147,68 27.10096,68 25.395273,68 23.114323,69.584491 19.916024,72.991106 15.879964,77.290049 15.056659,77.773196 13.979272,76.475024 13.116597,75.435565 12.931126,73.243106 13.381616,69.410139 14.203924,62.41358 15.952338,58.314657 19.741603,54.5 21.380621,52.85 23.047453,50.462729 23.445676,49.194953 24.234373,46.684072 25.776561,46.69867 27.374636,49.232144 28.188048,50.521671 27.368979,51.813592 23.291411,55.672625 19.862968,58.917324 17.833384,61.811418 17.10091,64.5 14.977324,72.29472 15.934379,73.861874 20.075686,69.371121 21.409059,67.925238 24.015844,66.096911 25.868542,65.308171 29.011251,63.970243 29.394794,64.022262 31.58952,66.0841 32.883361,67.2996 34.424059,69.754883 35.013295,71.540284 35.948949,74.375345 35.762652,75.260934 33.542316,78.532781 30.37668,83.197607 30.372696,86.380169 33.526086,91.5 L 35.989753,95.5 35.994877,89.972506 C 36.000139,84.295514 37.014833,81.989468 41.789631,76.803046 L 44.272539,74.106093 47.386269,76.488931 C 49.098821,77.799491 51.333707,80.42984 52.352683,82.334149 53.927846,85.277888 54.049442,86.523289 53.164443,90.648265 51.654222,97.687403 53.421853,98.446465 56.392562,92.034494 59.105751,86.178355 58.994745,85.335069 54.370888,76.676347 51.415263,71.141589 51.624311,65.791274 55.013969,60.217426 57.138866,56.723314 59.521573,56.170901 62.55887,58.468197 65.51276,60.702407 68.750526,60.370363 69.562032,57.75 71.318326,52.078907 77.246309,41.633397 80.392279,38.666365 85.697446,33.662948 86.331643,28.101025 82.181403,22.975695 79.690462,19.899513 75.615443,20.909184 73.424856,25.145312 72.064818,27.775335 72.000537,28.930267 73.012934,32.546196 74.157157,36.632957 74.066922,37.042382 71.058226,41.415372 68.049012,45.789115 66,47.219703 66,44.946946 66,44.367767 67.105922,42.266382 68.457604,40.277203 70.444004,37.353953 70.806102,35.864506 70.346161,32.508865 69.409869,25.677873 74.480824,18 79.928736,18 81.748885,18 86.066884,23.534671 87.0262,27.0973 88.330685,31.941785 86.703382,36.189679 81.439964,41.679552 79.268627,43.944309 76.151829,49.139732 74.078822,53.949919 72.101405,58.538296 69.762564,62.747189 68.881397,63.303015 67.712075,64.040605 66.075697,63.730965 62.823914,62.156804 60.373464,60.970562 58.073198,60 57.712211,60 57.351223,60 56.339757,62.463343 55.464507,65.474096 L 53.873144,70.948191 57.436572,77.320195 C 61.638615,84.834149 61.761609,86.607625 58.616186,94.329183 55.471234,102.04958 54.594849,102.84647 51.910729,100.42637 50.02183,98.723271 49.829669,97.71896 50.252778,91.761221 50.710483,85.316334 50.592514,84.861828 47.547818,81.339635 45.602243,79.088936 43.899034,77.944366 43.167851,78.396262 40.710869,79.914761 38.278633,86.44226 38.751997,90.247286 39.320418,94.816399 38.515547,98.341596 36.42707,100.43007 34.43709,102.42005 33.3739,102.41675 32.606989,100.41821 z M 31.657339,42.25458 C 31.311478,41.694964 32.052916,39.72125 33.304979,37.868548 34.557043,36.015847 38.008866,30.474705 40.975696,25.554901 43.942527,20.635096 46.538106,17.114318 46.74365,17.730949 47.194204,19.082613 43.424235,27.619774 41.983618,28.510125 41.421711,28.857402 39.861537,31.247192 38.516565,33.820769 35.262278,40.047782 32.43894,43.519237 31.657339,42.25458 z M 46,50.2 C 46,49.76 46.41619,48.9725 46.924868,48.45 48.037382,47.307254 63.681519,21.417569 64.295255,19.703521 64.53227,19.041584 65.095516,18.845218 65.546913,19.267151 66.265498,19.938831 60.692656,32.676833 59.101332,34 58.770599,34.275 57.825,35.716341 57,37.202979 51.613051,46.910186 48.794457,51 47.491451,51 46.671153,51 46,50.64 46,50.2 z"/>
</svg>
