<svg xmlns="http://www.w3.org/2000/svg"
     width="50.4" height="64.0"
     viewBox="220.1711 17.0000 59.7149 75.8864">
  <path d="M 242.88158,82.309017 C 242.81645,78.564058 242.83883,75.095359 242.93131,74.600797 243.0238,74.106236 242.83769,73.019414 242.51774,72.185639 242.05192,70.971724 241.29486,71.270203 238.71801,73.683717 234.32216,77.800938 230.88475,80 228.84488,80 224.17114,80 226.55054,69.427525 232.97358,61.654754 L 236.93573,56.860005 234.47862,53.147059 C 229.21394,45.191583 225.93367,33.942385 227.60699,29.581787 228.56687,27.080388 231.81282,27.737935 233.37383,30.75 235.44254,34.741698 242.94439,43 244.50175,43 245.28428,43 246.74869,40.009968 248.05254,35.75 250.6128,27.385066 253.61794,21 254.99464,21 256.98392,21 258.91682,26.994581 259.38079,34.602886 259.64566,38.946299 260.23083,42.319463 260.68118,42.098806 263.29416,40.818531 267.11862,35.982423 269.56375,30.866621 272.2169,25.315596 274.35003,23.55009 275.22658,26.179735 275.88602,28.158057 274.11617,39.226626 272.37714,44 271.47545,46.475 269.58753,49.7375 268.18176,51.25 L 265.62582,54 268.25986,56.75 C 271.82476,60.471834 274,66.018219 274,71.386094 274,80.350452 272.17031,80.96486 263.23786,75 259.94333,72.8 256.98821,71 256.67091,71 255.72909,71 254.01159,78.211298 254.00558,82.190983 254.00031,85.678791 252.59569,87.929019 251.25851,86.59184 250.63281,85.966138 252.28202,75.871982 253.52002,72.75 254.12033,71.236151 253.59229,71 249.60699,71 L 245,71 245,79.440983 C 245,84.083524 244.55,88.160081 244,88.5 243.37472,88.886447 242.95563,86.566591 242.88158,82.309017 z M 233.95392,74.905744 C 238.5188,72.340135 241,68.357435 241,63.595708 241,59.150974 239.54286,58.997916 235.17843,62.984208 231.77556,66.092252 229,71.475723 229,74.967881 229,77.498364 229.34876,77.493989 233.95392,74.905744 z M 236.98331,40.147365 C 233.07206,36.103415 229.61239,33.054275 229.29517,33.371497 228.45548,34.211189 235.92287,50.540091 238.32635,53.119923 L 240.36839,55.311798 242.23154,51.405899 244.09468,47.5 236.98331,40.147365 z M 255.90114,65.398553 C 260.89015,59.056054 258.82822,49.542525 252.0407,47.586927 247.31834,46.226334 244.08181,49.807212 243.31452,57.241527 242.79125,62.311543 242.97723,63.068135 245.32348,65.414388 248.78127,68.872181 253.17396,68.865605 255.90114,65.398553 z M 256.61353,36.133644 C 255.64339,23.5124 253.80794,23.080037 250.67565,34.734902 249.75404,38.164098 249,41.558539 249,42.278105 249,43.641775 254.84078,45.913148 256.38651,45.150582 256.87647,44.908866 256.97802,40.875471 256.61353,36.133644 z M 271,72.678139 C 271,66.599961 265.50438,57 262.02486,57 261.63687,57 260.72746,59.467598 260.00395,62.483552 258.68977,67.961634 258.69128,67.969365 261.51096,70.233552 268.00619,75.449185 271,76.220456 271,72.678139 z M 269.53375,43.550808 C 270.43533,41.190057 271.02156,38.297972 270.83649,37.123953 270.55248,35.322313 269.72013,35.948714 265.5,41.139994 258.94686,49.201164 258.61474,49.830862 260.02185,51.526332 261.80709,53.677414 267.48431,48.917188 269.53375,43.550808 z"/>
</svg>
