<svg xmlns="http://www.w3.org/2000/svg"
     width="64.0" height="56.4"
     viewBox="335.6209 13.7342 107.4423 94.6318">
  <path d="M 424,36.899912 C 424,35.099345 428.06134,23.684743 429.0998,22.566667 431.10679,20.405793 430.92069,23.208497 428.59945,30.101624 426.37125,36.718503 424,40.223356 424,36.899912 z M 398.53641,33.710967 C 399.18743,31.117085 397.55189,26 396.0718,26 394.07822,26 390,28.360561 390,29.514492 390,31.289422 394.67259,36 396.4332,36 397.27398,36 398.22043,34.969935 398.53641,33.710967 z M 366.66667,103.33333 C 366.3,102.96667 366,102.01044 366,101.20838 366,100.40632 364.8082,97.094403 363.35155,93.848563 361.13224,88.90328 360.89561,87.586749 361.89115,85.723517 364.06592,81.653249 365.56491,79.229175 366.90733,77.611658 368.84993,75.27097 366.23864,71.778026 360.45193,68.976732 356.08941,66.864872 355.59856,66.821011 352.55728,68.271293 350.68898,69.162226 348.61393,71.293818 347.6619,73.300067 344.73098,79.476514 341.86003,78.823489 340.57339,71.687718 339.62092,66.405257 341.40944,61.766259 345.99612,57.622474 351.65298,52.511838 355.45492,52.110913 362.19423,55.914341 371.0048,60.886724 372,60.232202 372,49.465266 372,37.329274 368.4211,35.113197 359.13632,41.5 351.69216,46.620677 348,45.904198 348,39.338955 348,35.894693 350.68857,32.551008 354.40694,31.370841 355.53685,31.012223 357.59502,29.949091 358.98066,29.008326 369.37221,21.953079 372.81375,20 374.85429,20 377.25993,20 382.6007,23.24479 384.66924,25.963085 385.70055,27.318335 386.50097,27.164156 391.45406,24.656173 394.54263,23.092288 397.6659,22.041552 398.39466,22.321203 400.55433,23.149946 402.0948,31.072786 400.92208,35.320037 399.49057,40.504535 396.37536,40.633358 391.24805,35.720087 386.47457,31.145875 385.47911,32.789119 385.58965,45.060579 385.63896,50.534208 385.97187,55.305202 386.32945,55.662787 386.68704,56.020373 388.75633,55.511753 390.92788,54.532521 395.79579,52.337399 398.26248,52.892904 404.37628,57.561141 406.97799,59.547691 409.70499,60.943449 410.43628,60.662824 412.39079,59.912811 417.65703,50.087852 418.42391,45.760735 418.83411,43.446136 418.5402,40.398122 417.65248,37.760735 416.05247,33.007127 416.6876,25.995997 419.05758,22.25 421.91461,17.734181 423.13702,20.591255 420.50616,25.635693 418.58926,29.311174 418.6108,32.414024 420.58915,37.594269 422.04529,41.407102 422.04204,42.288785 420.55039,48.127701 418.73413,55.237276 415.28999,61.108657 411.46605,63.614204 408.98286,65.24125 408.78,65.174717 402.02641,60.518208 L 395.12449,55.759432 390.38879,58.406264 C 387.56584,59.984044 385.28786,60.687857 384.74881,60.148812 382.11388,57.513881 381.31369,45.750961 383.14803,36.617114 L 384.29605,30.900665 380.9132,27.410447 C 379.05263,25.490827 376.526,23.668154 375.29847,23.360063 373.08485,22.804481 367.27107,25.808252 361.12138,30.684844 359.60601,31.886508 356.48377,33.622869 354.18308,34.543423 349.79583,36.29885 348.75604,38.722715 351.43608,40.946949 353.03137,42.270923 355.08746,41.479973 360.5,37.460177 369.60122,30.700868 375.02233,34.535664 374.97614,47.70034 374.93978,58.065201 373.13487,63.897727 369.93686,63.984687 369.62714,63.993109 366.38929,62.2 362.74164,60 359.09399,57.8 355.16907,56 354.01959,56 349.08538,56 343,63.106146 343,68.868034 343,72.866223 343.82543,72.807064 347.98992,68.510404 349.87178,66.568815 352.79682,64.75354 354.5837,64.41832 360.38092,63.330755 369.70395,68.972146 371.4036,74.596089 371.86655,76.127932 370.93583,78.075282 367.94611,81.830213 363.74386,87.108021 363.42146,89.445039 366.53873,92.03214 367.34243,92.699152 368,94.063232 368,95.063428 368,96.063624 368.49812,97.189821 369.10693,97.566088 369.87911,98.043317 370.00103,97.281173 369.51009,95.045953 368.94205,92.45966 369.54448,90.38741 372.6338,84.300957 374.73892,80.153551 377.06216,76.529643 377.79655,76.247828 379.5179,75.587285 385.6301,81.500153 386.8534,85.00931 387.4039,86.588473 387.42876,88.292021 386.91318,89.10624 385.31744,91.626285 386.0763,99 387.93139,99 388.32596,99 389.8812,96.330525 391.38748,93.067833 L 394.12616,87.135667 390.00601,79.628537 C 386.00858,72.345008 385.93207,72.032051 387.43722,69.121408 389.10197,65.902135 392.59465,63 394.80424,63 395.55182,63 398.906,64.607352 402.25798,66.571894 410.25994,71.261713 413.52061,71.336813 417.21102,66.916293 421.09689,62.261648 425.37605,53.788297 427.78126,45.985678 428.8857,42.402802 430.81761,37.728568 432.07439,35.598493 433.33116,33.468418 434.61769,30.136821 434.93333,28.194943 435.24897,26.253066 436.13678,24.454406 436.90624,24.197922 439.06322,23.478927 437.58726,30.514204 434.64991,34.952829 433.31323,36.972694 431.69796,41.137924 431.06043,44.208896 429.57394,51.369314 422.05887,66.681037 418.26752,70.274054 414.10765,74.216324 409.742,74.120513 401.60882,69.908453 394.35095,66.149701 392.31968,66.407449 390.5727,71.308824 389.8123,73.442218 390.20024,74.803035 392.7281,78.86951 397.28391,86.19827 397.44383,87.358548 394.71125,93.257638 393.37565,96.140937 391.77888,99.7375 391.16288,101.25 390.54688,102.7625 389.39089,104 388.59402,104 387.79715,104 386.16463,102.7625 384.9662,101.25 383.09921,98.893716 382.86374,97.640983 383.32153,92.5 383.79558,87.176383 383.57215,86.128089 381.33955,83.200883 378.35716,79.290615 377.02204,79.901075 374.09767,86.512109 372.78366,89.482633 372.37186,92.119549 372.72823,95.281177 373.16648,99.169365 372.93725,99.963216 371.09091,100.95135 369.9101,101.5833 369.20814,102.52777 369.53101,103.05017 370.19194,104.11958 367.69933,104.36599 366.66667,103.33333 z"/>
</svg>
