<svg xmlns="http://www.w3.org/2000/svg"
     width="64.0" height="11.8"
     viewBox="-16.3438 -32.4062 741.6543 136.4062">
  <path d="m 721.31055,39.148438 c -2.12873,3.903108 -4.19616,7.592129 -5.4668,9.695312 C 713.73303,52.337462 712,55.358152 712,55.5625 c 0,0.204348 -3.36025,6.224825 -7.46875,13.375 -4.10851,7.150176 -8.62509,15.154485 -10.03125,17.78125 -1.40615,2.626764 -3.42361,6.13125 -4.46875,7.78125 -1.04514,1.65 -1.92855,3.610417 -1.96875,4.34375 -0.13302,2.42667 2.41951,0.572792 3.4375,-2.5 0.55,-1.660168 1.34565,-2.988978 1.78125,-2.9375 0.83425,0.09859 7.17474,-10.856242 16.4375,-28.40625 3.048,-5.775 5.89513,-10.95 6.3125,-11.5 0.73829,-0.972908 2.82646,-4.731385 5.2793,-9.324219 z m 0,35.765624 C 718.40598,79.928378 715.49196,84.850264 713.5,88 c -3.85528,6.096032 -6.5,10.721818 -6.5,11.375 0,0.347581 0.5625,0.6321 1.25,0.625 1.23444,-0.01275 8.34609,-10.395765 12.90625,-18.84375 0.0407,-0.07536 0.11176,-0.200747 0.1543,-0.279297 z M 715.15625,18 c -0.58068,0 -2.13713,2.1375 -3.46875,4.75 -1.33162,2.6125 -4.87627,9.053585 -7.875,14.3125 -2.99874,5.258915 -5.78767,10.208915 -6.1875,11 -0.39983,0.791085 -1.72624,3.075057 -2.9375,5.09375 -1.21126,2.018692 -3.48,6.068692 -5.0625,9 -1.5825,2.931307 -4.30849,7.59375 -6.0625,10.34375 -1.75401,2.75 -4.39313,6.915408 -5.875,9.25 C 674.56652,86.666901 668,98.670711 668,99.46875 668,99.767302 668.80183,100 669.78125,100 c 0.97942,0 2.36552,-1.2375 3.0625,-2.75 0.69698,-1.5125 2.70765,-5.274104 4.46875,-8.375 C 684.89369,75.526242 690,66.163852 690,65.65625 c 0,-0.300269 1.28676,-2.478677 2.875,-4.84375 C 694.46323,58.447427 697.3275,53.575 699.21875,50 701.11,46.425 703.84198,41.60782 705.3125,39.28125 706.78301,36.954679 708,34.794391 708,34.5 c 0,-0.294391 1.54408,-2.870962 3.4375,-5.75 C 715.14235,23.116552 716.90969,18 715.15625,18 Z M 672.50391,54.703125 672.48047,59.5 c 0.12066,-0.233309 0.2885,-0.539924 0.39453,-0.75 1.59816,-3.166289 3.34071,-6.316289 3.875,-7 0.5343,-0.683712 2.64786,-4.4 4.71875,-8.25 2.07089,-3.85 4.33399,-7.675 5.03125,-8.5 2.47404,-2.927302 7.61486,-14.203825 7.21875,-15.84375 -0.17604,-0.728793 -0.29642,-1.065696 -0.46875,-1.03125 -0.17233,0.03445 -0.38973,0.445257 -0.75,1.28125 -0.45284,1.050767 -3.76638,6.900767 -7.34375,13 -3.57737,6.099234 -9.12286,15.891581 -12.34375,21.75 -0.104,0.189161 -0.20449,0.358924 -0.30859,0.546875 z"/>
</svg>
