<svg xmlns="http://www.w3.org/2000/svg"
     width="64.0" height="58.8"
     viewBox="-24.9375 -34.0938 840.2055 772.0938">
  <path d="m 721.31055,39.148438 v 5.027343 C 726.68669,34.109167 734,19.603603 734,18.59375 c 0,-0.281163 -0.0605,-0.433018 -0.15625,-0.5 -0.66994,-0.468873 -3.65112,4.241926 -8.4375,13.40625 -1.25764,2.407955 -2.68829,5.06788 -4.0957,7.648438 z m 0,35.765624 v 5.962891 c 1.30813,-2.415539 3.44035,-6.24407 4.87695,-8.720703 1.48332,-2.557171 5.03516,-9.38125 7.875,-15.15625 2.83985,-5.775 5.86574,-11.283713 6.71875,-12.25 1.95778,-2.217765 2.43821,-3.067717 12.625,-22.25 1.7112,-3.222287 2.05441,-5.506628 0.84375,-5.5 -0.4125,0.0023 -3.225,4.839758 -6.25,10.75 -3.025,5.910241 -6.85,12.775 -8.5,15.25 -4.36324,6.544855 -5.10731,7.80802 -8.78125,15.03125 -1.81364,3.565747 -5.60876,10.323612 -9.4082,16.882812 z M 773.21875,17 c -1.04128,0 -5.94343,8.587284 -11.03125,19.34375 -2.25235,4.761826 -5.47009,10.674254 -7.15625,13.125 -1.68616,2.450747 -4.25405,6.842444 -5.6875,9.75 -2.34704,4.760643 -8.56036,15.063777 -19.5,32.34375 C 727.7303,94.900845 726,98.163345 726,98.8125 c 0,3.71423 4.50689,-0.808207 8.78125,-8.8125 3.55932,-6.665291 10.50778,-18.065158 11.3125,-18.5625 C 746.59162,71.129799 747,70.188886 747,69.34375 c 0,-0.845137 0.82164,-2.727596 1.84375,-4.1875 C 750.61576,62.625241 753.1328,58.231648 759.75,46 761.38649,42.975 765.2414,35.953642 768.34375,30.40625 773.62548,20.96187 775.08474,17 773.21875,17 Z m 39.0625,0 C 811.26804,17 799.71073,37.290333 795.75,46 790.01211,58.617656 789,61.047822 789,62.40625 c 0,0.785161 -0.40025,1.566666 -0.90625,1.75 -1.19794,0.434035 -18.56624,28.712019 -20.9375,34.09375 -0.18334,0.416086 0.38607,0.75 1.25,0.75 1.65406,0 5.46097,-5.427511 8.6875,-12.375 1.05659,-2.275088 2.69664,-5.304016 3.65625,-6.75 6.24796,-9.41468 13.9477,-23.188725 15.5,-27.71875 1.91979,-5.602476 12.05259,-25.583298 14.28125,-28.15625 1.68044,-1.940047 2.9449,-7 1.75,-7 z m 0.32031,33.042969 c -5.38114,9.379065 -10.63973,18.27979 -13.35156,22.425781 -1.79053,2.737458 -3.25,5.316958 -3.25,5.71875 0,0.401792 -2.475,4.905077 -5.5,10 -3.025,5.094924 -5.5,9.602923 -5.5,10.03125 0,1.464738 2.78578,0.773171 3.40625,-0.84375 0.34064,-0.887707 3.07555,-5.307677 6.09375,-9.84375 3.01819,-4.536072 5.5,-8.816043 5.5,-9.5 0,-0.683956 1.36941,-3.25638 3.03125,-5.71875 1.66183,-2.46237 3.95646,-6.365718 5.125,-8.65625 1.16855,-2.290532 2.71136,-4.604389 3.40625,-5.15625 0.23337,-0.185337 0.58245,-0.703611 0.9668,-1.337891 z m -0.36914,36.96289 C 811.02925,87.07822 806,95.508375 806,97.46875 c 0,1.494306 0.23262,1.572451 1.5625,0.46875 0.8652,-0.718051 2.43524,-2.974148 3.46875,-5 0.31145,-0.610493 0.72087,-1.314452 1.16211,-2.039062 z M 793.96875,18 c -0.5589,0 -1.75198,1.6875 -2.6875,3.75 -0.93552,2.0625 -2.58073,5.063014 -3.65625,6.65625 -1.74982,2.592105 -4.84288,8.019447 -13.65625,24.09375 -9.1181,16.630096 -13.36605,24.059394 -14,24.5 -0.39567,0.275 -2.40464,3.875 -4.46875,8 -2.0641,4.125 -4.62175,8.741253 -5.6875,10.25 -1.06575,1.508746 -1.63999,3.200789 -1.28125,3.78125 1.0677,1.72757 3.05625,-0.59589 6.96875,-8.15625 1.98249,-3.830899 4.93878,-9.064661 6.5625,-11.625 1.62372,-2.560339 2.9375,-5.088487 2.9375,-5.625 0,-0.536513 0.61497,-1.662943 1.375,-2.53125 1.32027,-1.508364 8.3174,-14.003517 16.875,-30.09375 2.19388,-4.125 5.07967,-8.940015 6.40625,-10.71875 1.32657,-1.778735 3.0713,-5.128335 3.875,-7.40625 1.73873,-4.928084 1.7277,-4.875 0.4375,-4.875 z"/>
</svg>
