<svg xmlns="http://www.w3.org/2000/svg"
     width="64.0" height="55.7"
     viewBox="-17.0000 -21.7812 146.7285 127.7812">
  <path d="M 125.72852,36.644531 C 124.23371,39.362052 122.15912,43.25498 120.5,46.5 c -1.96844,3.85 -4.79361,9.046772 -6.28125,11.5625 -1.48765,2.515727 -4.51875,7.649297 -6.71875,11.375 -2.2,3.725704 -5.58165,9.747681 -7.53125,13.40625 -1.949601,3.658569 -4.992262,9.13125 -6.75,12.15625 -1.757738,3.025 -3.213589,6.12016 -3.21875,6.875 -0.0076,1.10664 0.290514,1.12878 1.5,0.125 0.825,-0.68469 1.5,-1.6835 1.5,-2.21875 0,-0.535252 0.919802,-2.251615 2.03125,-3.8125 1.111448,-1.560884 4.201783,-7.046686 6.875,-12.1875 2.67321,-5.140814 6.02842,-11.065043 7.46875,-13.1875 C 110.81534,68.471294 112,66.123249 112,65.375 112,64.626751 112.41365,64 112.9375,64 c 0.85158,0 9.02515,-15.97955 9.09375,-17.78125 0.0153,-0.401855 1.3653,-2.495774 3,-4.65625 0.2739,-0.362002 0.52128,-0.718807 0.77344,-1.076172 z m 0.67773,34.685547 c -1.45845,2.687258 -2.91501,5.382349 -3.84375,7.169922 -2.28603,4.4 -6.29223,11.256874 -8.875,15.25 C 111.10473,97.743125 109,101.45562 109,102 c 0,1.90372 2.0626,0.98865 2.9375,-1.3125 0.4855,-1.276959 3.45779,-6.340421 6.625,-11.25 3.16721,-4.909579 6.64239,-10.96154 7.71875,-13.4375 0.0489,-0.112448 0.15204,-0.30837 0.20898,-0.433594 z M 78.388672,47.617188 v 4.607421 C 81.417041,45.546031 86.330811,35.454151 86.9375,35 c 1.377128,-1.03088 7.074784,-13 6.1875,-13 -0.509068,0 -2.626807,3.2625 -4.6875,7.25 -2.060692,3.9875 -4.693349,8.825 -5.875,10.75 -0.813368,1.32504 -2.460167,4.368986 -4.173828,7.617188 z m 0,38.673828 v 4.585937 C 83.571359,80.732511 89.582903,70.126653 91.28125,68.25 92.229254,67.202468 93,65.872698 93,65.28125 93,63.758056 108.07081,34.943009 110.40625,32 c 0.65469,-0.825 1.82459,-2.85 2.625,-4.5 0.8004,-1.65 1.86334,-3.27611 2.34375,-3.625 0.48041,-0.34889 0.67394,-1.228187 0.4375,-1.9375 -0.0786,-0.235961 -0.18975,-0.377888 -0.34375,-0.40625 C 114.39075,21.332719 111.25931,26.568429 103,42 98.437236,50.525 89.116092,67.34286 82.28125,79.375 c -1.487152,2.618001 -2.545498,4.525282 -3.892578,6.916016 z"/>
</svg>
