<svg xmlns="http://www.w3.org/2000/svg"
     width="64.0" height="15.5"
     viewBox="-20.8125 -40.7168 544.6250 131.6048">
  <path d="m 516.03711,49.921875 0.19141,6.615234 c 1.7891,-3.219158 3.34272,-6.01849 6.30273,-11.318359 10.67548,-19.114321 12.3368,-22.415328 12.40625,-24.4375 0.0334,-0.972501 -0.14401,-1.481186 -0.5,-1.53125 -1.06797,-0.150191 -3.76314,3.712622 -7.25,10.59375 -2.69279,5.314061 -7.42192,13.873477 -10.53125,19.03125 -0.21953,0.364159 -0.40592,0.689648 -0.61914,1.046875 z m 0.95312,32.740234 0.17774,6.076172 C 518.26339,86.88802 519.23138,85.181904 519.8125,84 c 0.67607,-1.375 2.5189,-4.525 4.125,-7 3.24446,-4.9997 8.44007,-13.884434 12.53125,-21.5 1.47734,-2.75 3.5185,-6.35 4.5625,-8 1.04401,-1.65 2.76885,-4.575 3.8125,-6.5 4.24379,-7.827612 6.96431,-12.679672 9,-16 1.18022,-1.925 2.1542,-4.2875 2.15625,-5.25 0.002,-0.841204 -0.159,-1.380555 -0.4375,-1.625 -0.83551,-0.733336 -2.70689,1.09249 -4.3125,4.625 -1.18744,2.6125 -2.66306,5.425 -3.25,6.25 -1.0174,1.430047 -13.55766,24.187124 -16.8125,30.5 -0.85072,1.65 -3.33959,5.64897 -5.53125,8.875 -2.19167,3.226031 -4.74125,7.276031 -5.65625,9 -0.46122,0.869 -1.58321,2.835833 -3.00977,5.287109 z m 39.26368,-36.716797 c -1.94974,3.690452 -3.7715,6.977345 -4.19141,7.492188 -0.48127,0.590073 -2.33434,3.9875 -4.125,7.5625 -4.37845,8.741499 -11.38625,21.077391 -16.5,29 -2.30753,3.575 -4.54137,7.572428 -4.9375,8.875 -0.53471,1.75828 -0.34968,2.26337 0.65625,1.9375 1.23889,-0.40133 3.83206,-4.390838 7.0625,-10.8125 0.6917,-1.375 1.79469,-2.95 2.4375,-3.5 0.64281,-0.55 2.54304,-3.6559 4.25,-6.90625 1.70696,-3.250349 3.49958,-6.400349 3.96875,-7 0.46916,-0.59965 2.65562,-4.507038 4.875,-8.6875 2.21937,-4.180461 4.50085,-8.455461 5.0625,-9.5 0.27266,-0.507087 0.92251,-1.835692 1.44141,-2.867188 z m 0,37.09961 c -0.75827,1.279525 -1.46613,2.449375 -2.09766,3.455078 -1.38148,2.2 -3.8245,6.404968 -5.4375,9.34375 -2.50458,4.56321 -2.65212,5.2941 -1.125,5 1.54387,-0.29732 5.86515,-6.123772 8.0625,-10.84375 0.10241,-0.219979 0.31795,-0.60142 0.59766,-1.070312 z"/>
</svg>
