<svg xmlns="http://www.w3.org/2000/svg"
     width="64.0" height="7.1"
     viewBox="-85.4903 -37.3438 1170.4903 129.8750">
  <path d="m 1081,69.4375 c -7.7101,12.354482 -15.9735,27.160045 -15.5312,28.3125 0.443,1.154633 0.9014,1.286036 1.7187,0.46875 1.892,-1.891993 8.4668,-13.074346 13.8125,-23.0625 z m -1.5312,-33.34375 c -1.1851,0.660248 -4.7311,6.83755 -14.0313,23.90625 -2.847,5.225 -7.3598,13.55 -10.0625,18.5 -2.7027,4.95 -6.1579,10.778576 -7.6562,12.96875 -1.4984,2.190173 -2.7188,4.552673 -2.7188,5.25 0,2.90584 2.8739,0.934065 5.4062,-3.71875 1.4946,-2.746025 3.7213,-6.233525 4.9688,-7.75 1.2475,-1.516475 3.073,-4.744216 4.0312,-7.1875 0.9582,-2.443284 2.5262,-5.593284 3.5,-7 0.974,-1.406716 3.0869,-5.2625 4.6876,-8.5625 1.6007,-3.3 3.178,-6.225 3.5,-6.5 0.9976,-0.852079 8.9062,-17.67176 8.9062,-18.9375 0,-0.804684 -0.1362,-1.188833 -0.5312,-0.96875 z m -81.49028,4.441406 0.0195,4.001953 c 0.46573,-0.826955 1.04023,-1.796784 1.68945,-2.818359 2.37113,-3.731042 12.30993,-22.723537 12.31253,-23.53125 6e-4,-0.20241 -0.037,-0.32136 -0.125,-0.34375 -0.6146,-0.156732 -3.3422,4.024599 -7.4375,11.4375 -2.636,4.771456 -4.2991,7.71223 -6.45901,11.253906 z m 0.1621,33.173828 0.0195,4.306641 c 1.31973,-2.250781 2.40048,-3.952949 2.90238,-4.515625 0.981,-1.1 3.1828,-4.650637 4.875,-7.875 1.6923,-3.224364 4.1906,-7.182165 5.5625,-8.8125 1.3718,-1.630336 2.4987,-3.479699 2.5,-4.125 0,-0.645301 1.6888,-3.767249 3.75,-6.90625 7.1539,-10.894805 16.25,-26.706158 16.25,-28.25 C 1034,17.232698 1033.5756,17 1033.0625,17 1032.1429,17 1022,33.074743 1022,34.53125 c 0,0.412337 -2.383,4.38247 -5.3125,8.84375 -3.755,5.718521 -11.5211,18.505315 -18.54688,30.333984 z M 1052.5938,17 c -0.7661,0 -4.2105,4.8375 -7.6563,10.75 -3.4458,5.9125 -7.4826,12.775 -8.9687,15.25 -1.4861,2.475 -5.2862,9 -8.4688,14.5 -3.1826,5.5 -6.8184,11.575 -8.0625,13.5 C 1015.5174,77.065945 1009,88.019571 1009,88.53125 c 0,0.270075 -1.35,2.347242 -3,4.625 -1.65,2.277759 -3,4.532522 -3,5 0,0.467479 0.6191,0.84375 1.375,0.84375 0.7559,0 3.6082,-3.7125 6.3438,-8.25 2.7355,-4.5375 7.3428,-12.075 10.25,-16.75 2.9072,-4.675 5.9285,-9.85 6.6874,-11.5 0.7589,-1.65 3.3685,-6.15 5.8126,-10 2.4441,-3.85 4.4765,-7.363303 4.5,-7.8125 0.023,-0.449197 1.1099,-2.249197 2.4374,-4 C 1042.9221,37.369293 1054,18.52742 1054,17.5625 1054,17.258342 1053.3598,17 1052.5938,17 Z m 18.8124,0.5 c -0.3848,0.193296 -0.9957,0.851114 -1.9374,2 -1.3525,1.65 -2.4661,3.396946 -2.4688,3.875 0,0.478054 -1.5372,3.403054 -3.4062,6.5 -1.8691,3.096946 -4.3905,7.425 -5.625,9.625 -11.7831,20.999281 -15.2751,26.971704 -19.3126,33.25 -2.5679,3.993125 -4.6562,7.495006 -4.6562,7.78125 0,0.286244 -1.7654,3.66687 -3.9375,7.5 -2.1721,3.833131 -3.6895,6.96875 -3.375,6.96875 0.3144,0 -0.01,0.7875 -0.6875,1.75 -0.6783,0.9625 0.1933,0.175 1.9375,-1.75 3.1127,-3.435452 10.2143,-14.620833 15.5313,-24.5 4.0556,-7.535639 8.6709,-15.421127 12.2812,-20.9375 1.7802,-2.720179 3.25,-5.441604 3.25,-6.03125 0,-0.589647 1.0679,-2.638952 2.375,-4.5625 3.977,-5.852722 10.6319,-18.863116 10.5938,-20.71875 -0.014,-0.669013 -0.1777,-0.943296 -0.5626,-0.75 z"/>
</svg>
