<svg xmlns="http://www.w3.org/2000/svg"
     width="42.9" height="64.0"
     viewBox="180.1624 12.5378 60.2244 89.9326">
  <path d="M 192,96.466667 C 192,95.623333 193.47966,93.453671 195.28814,91.645194 199.60741,87.325925 204.83217,74.052244 206.85861,62.25 208.5624,52.326973 209.12695,51.714312 214,54.5 215.375,55.286021 216.8375,55.945075 217.25,55.964565 217.6625,55.984054 218,52.127455 218,47.394345 218,38.717344 216.09596,29.020042 213.34942,23.708805 L 211.86017,20.828924 208.8364,25.596917 C 204.68093,32.149422 197.41038,41.026022 193.90841,43.822478 190.64666,46.427113 190.10829,48.912842 192.75,49.17105 193.7125,49.265128 195.175,49.442293 196,49.564751 196.825,49.687209 198.12712,49.835236 198.8936,49.893701 200.00877,49.978762 200.15783,51.391957 199.63968,56.967042 198.69717,67.108034 196.75076,74.51675 192.80031,83 188.97176,91.221487 185.45739,95.355508 184.47441,92.793914 184.1624,91.980836 185.50302,88.892344 187.45356,85.930599 189.4041,82.968854 191,79.774403 191,78.831821 191,77.889238 191.39944,76.871169 191.88764,76.569445 193.39036,75.640708 197.13493,60.151858 196.80832,56.215751 196.54919,53.092842 196.10113,52.455334 194,52.220045 186.24033,51.351103 185.13583,49.440439 189.2087,43.931589 191.23855,41.186068 191.30414,40.683257 190.01869,37.722081 188.06829,33.229125 188.2855,27.215885 190.56806,22.513394 192.92175,17.664353 196,16.53785 196,20.525547 196,24.063236 198.87448,30 200.58737,30 201.33509,30 203.48747,27.712333 205.37043,24.916295 207.25339,22.120257 209.73546,19.173167 210.88612,18.367208 212.75938,17.055125 213.1888,17.09798 214.99086,18.776856 216.09779,19.808122 217.83271,23.092711 218.84623,26.075942 219.92909,29.263301 221.35951,31.630987 222.31501,31.817647 223.20933,31.992353 226.21124,30.011787 228.98593,27.416391 231.76062,24.820994 234.32441,22.991073 234.68323,23.3499 235.04206,23.708727 235.53408,26.395148 235.77661,29.319725 236.38676,36.67735 232.78255,43.863529 226.82941,47.158904 223.10422,49.220995 222.47209,50.095885 221.52531,54.5 220.38078,59.823953 219.73379,60.166127 213.85189,58.558228 211.34666,57.873388 211.16575,58.068106 210.49891,62.167165 208.62229,73.702606 199.88581,94.194367 195.54818,97.234687 193.78518,98.470407 192,98.083997 192,96.466667 z M 197.19794,35.464911 C 198.16277,33.347337 198.00542,32.321619 196.24252,29.236917 193.52881,24.488487 192.70508,24.293678 191.28203,28.063776 190.03269,31.373664 190.42426,33.475673 192.80699,36.25 194.85033,38.629164 195.83655,38.45283 197.19794,35.464911 z M 227.78449,42.527884 C 229.40036,41.16822 231.08203,40.38072 231.52154,40.777884 231.96105,41.175048 231.99151,40.928702 231.58923,40.23045 231.18694,39.532197 231.35203,37.463377 231.95608,35.633072 232.56014,33.802768 232.7847,31.602523 232.45512,30.743639 231.96418,29.464272 230.96541,29.843345 226.92902,32.841016 222.62461,36.037729 222.00202,36.952714 222.00108,40.083333 221.99938,45.734372 223.31362,46.289878 227.78449,42.527884 z"/>
</svg>
