<svg xmlns="http://www.w3.org/2000/svg"
     width="48.7" height="64.0"
     viewBox="1038.4128 11.0000 55.7992 73.3438">
  <path d="M 1048 15 C 1044.0184 15 1042.4128 28.253663 1046 31.5 C 1048.393 33.665609 1048.5593 36.270351 1046.4375 38.03125 C 1045.586 38.737966 1045.0235 40.258122 1045.1875 41.40625 C 1045.4536 43.268667 1046.2026 43.516256 1052.125 43.625 C 1055.776 43.692037 1059.2635 44.059578 1059.875 44.4375 C 1062.1881 45.867091 1060.5821 70.97764 1058.2812 75.9375 L 1060.5938 80.34375 C 1061.4255 79.70772 1061.7929 78.291878 1062.2188 75 C 1063.5931 64.375229 1064.2529 49.259864 1063.5625 44.65625 L 1062.875 40 L 1055.9375 40.65625 C 1050.8582 41.128322 1049 40.969967 1049 40.09375 C 1049 38.36566 1059.2851 25.987174 1063.4062 22.75 C 1065.3318 21.2375 1067.5012 20 1068.25 20 C 1068.9989 20 1070.9445 21.8498 1072.5625 24.09375 C 1074.1805 26.337699 1076.2245 28.925199 1077.0938 29.84375 C 1077.963 30.7623 1079.4745 34.2 1080.4688 37.5 C 1081.4629 40.8 1082.4559 43.8375 1082.6875 44.25 C 1083.5641 45.811443 1080.2093 44.916098 1078 43 C 1076.7317 41.9 1075.1054 41 1074.375 41 C 1072.5011 41 1071.66 45.232669 1072.4688 50.625 C 1072.9043 53.53022 1072.8048 55.00652 1072.1875 54.625 C 1070.8275 53.784439 1069.6347 66.740253 1070.5 73.03125 C 1070.7193 74.626208 1071.1124 75.98236 1071.5312 77.03125 L 1075.25 73.5625 C 1074.4338 73.242376 1073.8732 72.582386 1073.5938 71.25 C 1072.7807 67.373075 1074.4798 49.113903 1075.7812 47.8125 C 1076.5546 47.039025 1077.9071 47.345147 1080.5 48.875 C 1082.4915 50.049986 1084.5636 51 1085.0938 51 C 1085.6528 51 1085.9386 47.744476 1085.7812 43.25 C 1085.5525 36.70817 1085.883 34.770788 1087.9062 30.8125 C 1090.1228 26.476135 1090.212 25.779906 1089.0312 21.5625 C 1088.329 19.054126 1087.4823 17 1087.1562 17 C 1086.8303 17 1084.8555 18.9125 1082.7812 21.25 L 1079 25.5 L 1074.75 20.75 C 1072.4093 18.133025 1069.908 15.995525 1069.1875 16 C 1067.6148 16.009768 1058.8186 22.582918 1057.6875 24.59375 C 1057.2477 25.375668 1056.0911 26 1055.0938 26 C 1053.7721 26 1052.7921 24.508719 1051.5312 20.5 C 1050.2724 16.497624 1049.3164 15 1048 15 z M 1047.9688 21.25 C 1048.2383 21.163811 1048.4775 21.269284 1048.625 21.625 C 1048.8785 22.236258 1049.8925 24.355254 1050.9062 26.34375 C 1052.3846 29.243427 1052.4939 30.149203 1051.4688 31 C 1050.5179 31.789119 1049.6575 31.394272 1048.0938 29.40625 C 1046.9375 27.936377 1045.9916 26.013328 1046 25.125 C 1046.016 23.439314 1047.1601 21.508566 1047.9688 21.25 z M 1085.125 23.90625 C 1086.765 23.393438 1087.1147 25.723756 1085.3438 29.4375 C 1083.3318 33.656571 1082.2795 33.916823 1081.4062 30.4375 C 1080.9328 28.550684 1081.3501 27.229008 1083.0625 25.40625 C 1083.867 24.549884 1084.5783 24.077187 1085.125 23.90625 z "/>
</svg>
