<svg xmlns="http://www.w3.org/2000/svg"
     width="64.0" height="50.2"
     viewBox="2.0000 8.9154 122.9230 96.5036">
  <path d="M 6,86.557754 C 6,86.314518 7.7376289,83.277018 9.8613976,79.807754 11.985166,76.338489 18.350584,65.625 24.00677,56 35.113849,37.099342 36.582426,35 38.697141,35 40.286458,35 37.551228,40.185241 29.993344,51.5 27.421672,55.35 23.819721,61.2 21.989009,64.5 20.158297,67.8 17.63321,72.3 16.377705,74.5 15.122201,76.7 13.083932,80.4125 11.848219,82.75 10.476497,85.344777 8.9001472,87 7.8007343,87 6.8103304,87 6,86.800989 6,86.557754 z M 7.4610557,51.936987 C 7.0997176,51.352329 7.5231599,50.079396 8.4020387,49.108246 9.2809174,48.137096 10,46.997419 10,46.57563 10,46.153841 10.829111,44.614274 11.84247,43.15437 12.855828,41.694467 14.987135,38.025 16.578708,35 18.17028,31.975 20.888413,27.442171 22.619003,24.927046 24.349594,22.411922 26.504843,18.924422 27.408446,17.177046 29.057995,13.98717 31.033777,12.915448 30.96107,15.25 30.939658,15.9375 29.377613,18.975 27.489858,22 25.602104,25.025 22.631514,30.2 20.888548,33.5 19.145583,36.8 16.671551,40.874222 15.3907,42.553827 14.109849,44.233431 12.366918,47.270931 11.51752,49.303827 9.9565492,53.039755 8.6619676,53.880103 7.4610557,51.936987 z M 8,20.149223 C 8,17.722491 10.37658,13 11.597825,13 13.341027,13 13.338401,13.25433 11.551027,17.532119 10.247569,20.651732 8,22.308189 8,20.149223 z M 18,96.828741 C 18,96.184548 18.621014,94.947048 19.380031,94.078741 20.139048,93.210433 22.442795,89.35 24.499468,85.5 26.556142,81.65 29.258001,76.925 30.503601,75 36.69278,65.434992 39.820685,60.140332 40.445872,58.170542 40.824769,56.976744 41.828235,56 42.675796,56 45.211767,56 43.593453,59.908453 35.490327,73.353899 31.370647,80.189648 28,86.063386 28,86.40665 28,86.749915 26.361289,89.498846 24.35842,92.515384 20.99064,97.587627 18,99.616385 18,96.828741 z M 36,99.148269 C 36,98.679817 37.9125,95.361165 40.25,91.773487 42.5875,88.185808 46.075,82.740711 48,79.67327 49.925,76.605829 52.092824,74.074481 52.817388,74.048052 54.807508,73.975462 53.418875,77.461477 48.130663,85.813584 45.583798,89.836056 42.633301,94.673556 41.574002,96.563584 39.854398,99.631747 36,101.41905 36,99.148269 z M 82.25,57.095265 C 81.2875,56.047661 79.657378,53.977435 78.627507,52.494764 76.222859,49.032872 72.690792,49.588507 66.032567,54.476094 63.424406,56.39066 61.000104,57.66677 60.645228,57.311895 58.884995,55.551662 61.188087,40.948634 64.043686,35.763569 65.786989,32.598159 65.041258,29.966748 61.25,25.905686 L 57.5,21.888819 52.628455,26.428307 C 49.949105,28.925026 47.313099,30.693506 46.770664,30.358262 45.678794,29.68345 56.839566,18.058797 58.613999,18.022677 59.226699,18.010204 60.975399,19.8 62.5,22 64.024601,24.2 65.630901,26 66.069555,26 66.50821,26 69.104922,24.608899 71.840027,22.908664 77.996288,19.081722 80.124803,19.382179 81.738007,24.305843 82.802323,27.554243 82.727211,28.604569 81.202637,31.792183 79.533546,35.281953 79.176436,35.488373 75.130087,35.30228 72.765542,35.193535 70.225341,34.60198 69.485196,33.987714 68.449059,33.127797 67.876533,33.362182 66.996489,35.006561 64.708211,39.282247 62.051866,52 63.447085,52 63.692982,52 66.010005,50.875 68.596025,49.5 75.503017,45.827517 78.43312,46.152959 81.759504,50.962049 83.266777,53.141175 85.24474,54.941175 86.154978,54.962049 87.102006,54.983766 88.975972,52.96809 90.535754,50.25 92.034943,47.6375 94.777703,43.17374 96.630776,40.330532 100.62255,34.205872 100.76643,31.845718 97.473914,26.5 94.654371,21.922202 93.931203,14.868088 96.5,17 97.325,17.684689 98,19.110402 98,20.168251 98,21.2261 99.125,24.204919 100.5,26.787849 101.875,29.37078 103,32.101458 103,32.856022 103,33.981502 99.599209,40.094483 92.906089,51 92.399756,51.825 91.435409,53.625 90.763096,55 88.565071,59.495352 85.213089,60.32035 82.25,57.095265 z M 62.312533,89.354233 C 61.091308,87.490409 60.567626,84.608845 60.540613,79.604233 60.508116,73.583456 60.947162,71.696701 63.419448,67.232757 66.782881,61.15976 67.376748,60.576185 72.276932,58.528757 L 75.900469,57.014747 81.530037,61.941054 87.159605,66.867361 90.854499,64.236743 C 95.823866,60.69875 102.56142,49.735039 107.59236,37 109.54783,32.050035 112.03116,28.856731 116.30758,25.793141 120.92304,22.486659 120.6178,24.632108 115.7292,29.858422 112.98871,32.788228 110.64115,36.501479 109.87151,39.123832 109.1651,41.530725 107.32235,45.670313 105.77652,48.322919 104.23068,50.975524 102.31671,54.699575 101.52325,56.598588 99.610181,61.177215 90.48899,70 87.668576,70 86.376153,70 83.673565,68.145859 81.109396,65.5 78.71081,63.025 76.384251,61 75.939265,61 68.513107,61 61.46551,74.44769 64.051389,83.683542 65.476393,88.773159 66.736471,89.357081 72.163015,87.442485 76.334216,85.970799 79.305276,86.756867 76.792382,88.667299 75.279152,89.817734 67.987683,92 65.657033,92 64.771023,92 63.265998,90.809405 62.312533,89.354233 z M 78.8,31.8 C 80.456675,30.143325 80.303433,26.44629 78.50348,24.646337 77.190342,23.333199 76.651811,23.326989 74.108705,24.595657 72.514664,25.39087 70.650993,26.715602 69.967213,27.539506 67.133272,30.954196 75.574283,35.025717 78.8,31.8 z M 102.91897,23.553327 C 99.951957,17.960456 101.11464,16.524382 104.93551,21.062604 L 107.82957,24.5 111.21239,21.25 C 115.09968,17.515342 116,17.256036 116,19.871098 116,20.900202 114.42807,22.812702 112.50683,24.121098 110.58559,25.429494 109.01059,26.8375 109.00683,27.25 109.00307,27.6625 108.16253,28 107.13896,28 105.95693,28 104.41726,26.377626 102.91897,23.553327 z"/>
</svg>
