<svg xmlns="http://www.w3.org/2000/svg"
     width="32.3" height="64.0"
     viewBox="406.0000 10.4130 45.6751 90.5870">
  <path d="M 412.19898,88.14557 C 410.98954,83.275634 410,78.39489 410,77.299474 410,75.007566 414.93434,60.961431 417.44515,56.106077 419.05727,52.988563 419.04538,52.626037 417.20091,48.664456 416.1345,46.374005 414.95656,41.999807 414.58327,38.944016 413.57506,30.690607 416.69259,18 419.72831,18 420.7585,18 420.98708,18.536522 420.47391,19.75 416.95519,28.070557 417.55672,43.131309 421.59968,47.936092 L 424.02351,50.816657 420.11152,58.658328 C 417.95992,62.971248 415.43986,69.114441 414.5114,72.309869 412.82615,78.109851 412.82797,78.132958 415.58397,85.889574 418.30296,93.542017 418.34853,97 415.73036,97 414.88638,97 413.59189,93.754253 412.19898,88.14557 z M 424.66667,93.333333 C 424.3,92.966667 423.99723,91.954167 423.99384,91.083333 423.99045,90.2125 423.2778,88.15 422.41017,86.5 420.13098,82.165603 420.33633,75.746577 422.94685,69.724037 429.97144,53.518091 431.86559,51 437.03138,51 440.39661,51 442.7341,49.149809 443.52629,45.859094 444.37852,42.319002 442.41153,41.27147 439.67597,43.808581 436.13274,47.094776 433.95178,46.910862 431.82204,43.146283 430.17575,40.23624 430.04705,38.913306 430.84924,33.146283 431.92337,25.424212 435.74769,16.672272 438.2592,16.188598 440.38308,15.779576 440.57893,18.274641 438.5548,19.954516 436.06894,22.017602 433.72615,30.79824 434.23861,36.131419 434.79182,41.888844 435.48055,42.871036 437.79796,41.207372 442.4669,37.855554 444.15831,37.498024 445.68803,39.539572 447.67513,42.191526 446.85572,49.632328 444.3667,51.538199 443.34002,52.324344 440.7,53.468852 438.5,54.08155 436.3,54.694248 434.0086,55.597645 433.40799,56.089097 432.80739,56.58055 431.94774,56.649052 431.49767,56.241324 431.04759,55.833596 430.97917,56.023852 431.34561,56.664116 431.71206,57.304379 430.49933,61.129379 428.65066,65.164116 423.97604,75.366493 423.5527,79.214385 426.35138,86.062959 427.6017,89.122586 428.44664,92.160086 428.22901,92.812959 427.79924,94.102283 425.73688,94.403545 424.66667,93.333333 z M 423.91006,43.75 C 421.1699,35.491009 423.05435,21.639006 427.54108,17.059524 430.13402,14.412983 430.36494,16.950746 427.99217,22.016722 424.93157,28.551222 424.59454,38.788935 427.34013,41.82312 428.53387,43.142334 428.94929,44.584399 428.52275,45.928336 427.45967,49.277783 425.42531,48.317059 423.91006,43.75 z"/>
</svg>
