<svg xmlns="http://www.w3.org/2000/svg"
     width="24.9" height="64.0"
     viewBox="240.5753 11.1259 37.4247 96.1971">
  <path d="M 247.02527,97.75 C 244.92787,91.92581 244.57529,78.017358 246.38958,72.673495 248.58998,66.192352 251.37399,60.897422 254.59227,57.072714 257.0718,54.125958 257.19177,53.583432 256.14007,50.073165 254.58538,44.884069 254.70775,40.692176 256.60672,34.087892 259.18905,25.107055 260.65549,22.364557 264.40418,19.505292 270.14586,15.125898 270.4711,15.825008 270.48639,32.578796 270.49754,44.807388 270.8158,48.114205 272.25,50.903638 273.2125,52.775639 274,55.074723 274,56.012714 274,56.950705 270.81463,61.494068 266.9214,66.109076 259.02939,75.464209 254.36046,84.50654 252.77832,93.5 251.3517,101.60945 249.03219,103.32296 247.02527,97.75 z M 251.50873,86.75 C 254.39846,77.662596 256.60719,73.686437 263.52497,65.118316 L 270.25032,56.788519 268.87516,52.644259 C 267.97902,49.943594 267.5,43.765765 267.5,34.908996 267.5,22.120279 267.3895,21.346889 265.62807,21.807512 263.13728,22.458869 260.32657,29.058476 258.83467,37.758569 257.74973,44.085434 257.82288,45.434608 259.52187,50.432943 L 261.42326,56.026732 257.82892,58.989491 C 253.7918,62.31722 249.50088,69.813173 248.46145,75.353814 247.83871,78.673288 248.66954,92 249.49923,92 249.68625,92 250.59053,89.6375 251.50873,86.75 z"/>
</svg>
