<svg xmlns="http://www.w3.org/2000/svg"
     width="44.6" height="64.0"
     viewBox="921.8794 14.6967 63.3412 90.8738">
  <path d="M 955,99.134156 C 955,96.579847 948.46823,77.068225 947.18283,75.782835 945.49722,74.09722 939.54099,78.481848 935.98178,84.028392 932.49616,89.460255 931.57613,89.945027 930.07524,87.140587 928.20817,83.65194 930.06729,75.882321 935.30642,65.278394 L 938.38036,59.056787 935.13181,55.0144 C 928.77307,47.101798 925.87935,24.893748 931.22525,25.033269 932.98068,25.079084 935.7331,27.573714 940.84312,33.750347 944.93581,38.697301 947,40.155021 947,38.098302 947,36.154948 955.51173,19 956.47596,19 957.69105,19 964,34.082949 964,36.987914 964,41.753005 968.15225,37.207938 973.55131,26.533001 977.51117,18.703642 979.24297,18.696672 980.35598,26.505612 981.22058,32.571707 980.12784,37.235534 974.89928,49.794991 973.7991,52.43773 973.77835,53.244981 974.7945,53.872994 977.37777,55.469542 980,64.828428 980,72.45171 980,76.538351 979.56768,80.149154 979.03929,80.475717 978.5109,80.80228 976.17662,79.691693 973.85199,78.007745 968.56838,74.180318 968.35591,74.375046 963.49459,87.5 961.45746,93 959.37197,98.2875 958.86017,99.25 957.62628,101.57049 955,101.49168 955,99.134156 z M 940.57321,51.769341 C 940.9626,50.542479 942.20303,48.291823 943.32973,46.767884 945.14043,44.31879 945.20243,43.852122 943.86375,42.748542 943.03076,42.061844 940.19098,38.9125 937.55314,35.75 934.91529,32.5875 932.32934,30 931.80657,30 929.47175,30 933.51746,48.704326 936.58558,52.094564 938.82589,54.570083 939.7071,54.498214 940.57321,51.769341 z M 941.82671,74 945.12688,71.5 943.00619,66.726365 C 941.83981,64.100866 940.45806,62.216901 939.93564,62.539777 937.55931,64.00843 932.32932,78.105796 933.47379,79.957593 933.78423,80.459893 935.0481,79.887421 936.28238,78.685433 937.51667,77.483445 940.01162,75.375 941.82671,74 z M 960.5896,74.831441 C 964.74008,73.330607 967.9735,67.656887 968.70224,60.596101 969.52063,52.666634 966.60093,47.869015 959.48483,45.450178 955.45742,44.08122 953.40618,43.880985 950.86772,44.609005 946.78072,45.781142 943,51.045877 943,55.564978 943,62.251807 948.4771,71.264274 954.76889,74.930471 956.9643,76.209727 956.76882,76.213052 960.5896,74.831441 z M 961.54536,41.92661 C 962.45848,40.449149 956.82541,26 955.33629,26 954.67546,26 953.82041,27.0125 953.43619,28.25 953.05197,29.4875 951.92714,31.651646 950.93656,33.059213 949.94599,34.466781 948.99252,36.923483 948.81776,38.518552 948.51085,41.31964 948.6366,41.410898 952.5,41.190878 954.7,41.065589 957.175,41.414496 958,41.966227 959.93306,43.258987 960.72739,43.250111 961.54536,41.92661 z M 960,88.462508 C 960,87.827131 960.62905,86.000639 961.39789,84.403638 962.16673,82.806637 963.11797,80.421618 963.51175,79.103595 964.15392,76.954164 963.98409,76.772401 961.86385,77.33994 960.56373,77.687953 957.8125,77.978835 955.75,77.986345 952.61392,77.997765 952,78.343095 952,80.095708 952,81.248347 952.67192,83.385847 953.49315,84.845708 954.31438,86.305569 955.473,88.85 956.06785,90.5 957.10665,93.3814 957.20576,93.42326 958.5747,91.55887 959.35862,90.491249 960,89.097886 960,88.462508 z M 973.35301,45.385928 C 975.76896,40.319614 978.05734,29.924879 977.12391,28.256939 976.56991,27.266991 975.23029,28.766892 972.50235,33.431457 970.38957,37.044156 968.32297,40 967.90992,40 966.48743,40 965.78615,46.037406 967.03399,47.540959 969.09472,50.02398 971.53875,49.19047 973.35301,45.385928 z M 976.95587,71.75 C 976.93159,69.9625 976.36609,66.475 975.6992,64 973.18853,54.682288 971.48439,54.706791 970.56138,64.073875 969.91877,70.595329 970.03777,71.298167 972.08518,73.073875 975.40757,75.955367 977.00707,75.520614 976.95587,71.75 z"/>
</svg>
