<svg xmlns="http://www.w3.org/2000/svg"
     width="64.0" height="55.9"
     viewBox="558.9885 10.4502 112.0890 97.8373">
  <path d="M 578.39065,98.575628 C 577.60353,96.52443 578.76722,90.35083 580.61423,86.779111 581.40775,85.244612 583.89007,82.83194 586.1305,81.417618 590.57467,78.612139 590.52756,78.936026 588.33718,66.244358 587.53695,61.607668 582.58653,57.632694 578.60416,58.429168 575.00549,59.148901 570.61523,63.100489 568.95134,67.11748 566.70833,72.532571 562.98851,69.980816 563.02196,63.05 563.04295,58.702508 565.40863,52.256166 568.19514,48.953393 571.74574,44.744979 584.15785,43.026613 587.72231,46.25 588.78665,47.2125 590.14232,48 590.7349,48 591.96981,48 593.50475,38.625714 592.52848,37.046086 592.1729,36.470739 590.22102,35.999301 588.19098,35.998446 584.11259,35.996729 578.18416,33.377051 576.68297,30.913241 575.22034,28.512704 576.75536,22.444187 579.71487,18.927006 583.48183,14.450237 587.94918,15.289465 593.70148,21.554504 598.06688,26.309028 598.68603,26.451938 604.5,24.047003 605.6,23.591991 609.94124,21.779682 614.14719,20.019649 623.35461,16.166693 625.00131,16.650502 627.37442,23.905873 629.48064,30.345266 629.39836,33.525358 626.98812,38.836693 624.7261,43.821391 623.24189,43.846109 620.75797,38.940449 617.40295,32.314385 613.52139,31.32476 608.92308,35.923077 606.46901,38.377141 606,39.651287 606,43.86406 606,49.550612 607.10622,50.807888 610.29398,48.744384 616.22736,44.903575 621.84156,46.04781 628,52.35306 630.25432,54.661124 632.45137,55.947798 634.17308,55.968249 637.44547,56.007119 641.66012,52.001809 645.02886,45.651668 647.38409,41.212022 647.41402,40.916462 645.82713,37.769531 642.25287,30.681477 642.94823,27.988883 649.59585,23.176118 655.48074,18.915549 659.65298,16.929606 661.35052,17.581013 662.16299,17.892785 663.80985,20.567656 665.01022,23.52517 666.77758,27.879666 667.07752,30.073977 666.58717,35.061582 665.85589,42.499684 665.81341,42.576448 661.67111,43.943529 659.28545,44.730867 657.41753,46.575048 654.93504,50.594009 649.74631,58.994131 646.31987,63.168523 641.69438,66.724957 636.14995,70.987937 632.52616,70.980502 627.43,66.69569 623.98954,63.802979 617.46436,61 614.17075,61 613.47476,61 613.11437,63.395727 613.18518,67.551587 613.24906,71.300221 612.8055,74.594497 612.14841,75.251587 610.43976,76.960242 610.72975,78.611636 613.51254,83.019872 616.04887,87.037675 619.99168,88.440507 621.57003,85.886685 621.94847,85.274361 624.20757,83.911027 626.59025,82.857053 630.46687,81.14224 631.26822,81.088028 634.2112,82.34149 636.02004,83.111904 638.59094,84.925238 639.92431,86.371121 643.86849,90.648111 648.06843,89.394547 655.0365,81.860563 656.50673,80.270927 658.06713,79.423457 658.74848,79.844555 660.41906,80.877029 653.51089,88.370979 648.51481,90.946001 643.8174,93.367082 640.42279,93.5779 639.27117,91.520066 637.90523,89.079263 631.76452,85 629.4562,85 628.27082,85 625.32075,86.341811 622.90048,87.981803 620.48022,89.621794 617.79094,90.971794 616.92431,90.981803 615.20506,91.001658 611,86.997506 611,85.340536 611,84.773728 610.06664,83.465299 608.92587,82.432917 606.73798,80.452904 606.77776,79.338769 609.27526,72.646438 610.3534,69.757457 610.47634,67.681504 609.76641,64.352881 609.24558,61.910884 609.07095,59.257487 609.37834,58.456443 610.24343,56.202065 616.00833,56.732208 620.5,59.479196 622.7,60.824659 626.84524,63.152534 629.71164,64.652253 634.50944,67.162486 635.13725,67.264705 637.61767,65.939507 641.4298,63.902823 648.84662,55.211013 652.98271,47.933116 655.77586,43.018272 657.22058,41.513064 660,40.622034 663.12623,39.619825 663.53445,39.077644 663.82258,35.545065 664.19446,30.985731 662.32635,23.469212 660.32357,21.466423 659.16224,20.305102 658.42094,20.409103 655.47633,22.146467 653.56439,23.274537 650.60151,25.503968 648.89214,27.100759 646.33653,29.488051 645.90607,30.492385 646.47001,32.752007 646.84721,34.263403 647.8491,36.269367 648.69643,37.209705 650.62924,39.354657 649.93527,42.373083 645.84166,49.626561 639.56544,60.747417 633.06202,62.48203 625.63949,55.014949 620.31104,49.654528 616.94795,48.383487 613.32471,50.360724 605.44973,54.658177 605.87866,54.554544 604.39045,52.519298 602.58583,50.051328 602.59472,40.679616 604.40499,37.20034 608.28047,29.751781 615.42479,27.467388 619.61375,32.337345 620.868,33.795494 622.35977,35.778608 622.9288,36.744263 623.83081,38.274979 624.09195,38.307755 624.96639,37 626.75767,34.321079 626.19778,25.463822 624.07262,22.860784 L 622.14524,20.5 615.82262,22.816733 C 612.34518,24.090937 606.66008,26.100928 603.18906,27.283381 L 596.87811,29.433295 592.54748,24.716648 C 587.63774,19.36927 584.11511,18.569876 581.5567,22.222506 579.63137,24.971304 579.61383,27.905684 581.50777,30.408268 582.5742,31.8174 584.28987,32.344268 588.06703,32.422558 595.14919,32.569352 596.14164,34.138339 595.59321,44.320831 595.0658,54.113271 594.21141,55.161365 589.61446,51.655102 584.4239,47.696064 581.95883,47.037959 576.6006,48.180758 570.14581,49.55743 566,55.043784 566,62.209055 566,67.33281 567.32566,67.903841 568.99957,63.501127 569.48148,62.2336 571.54279,59.92504 573.58025,58.370993 582.26607,51.745992 590.38078,56.591542 592.83646,69.869488 594.35179,78.062965 593.51056,80.903303 588.6853,83.885476 583.67242,86.983607 582.59115,88.672877 582.01497,94.306506 581.50263,99.315946 579.55505,101.61002 578.39065,98.575628 z M 584.73337,100.8 C 584.10236,99.042068 587.18758,90.971695 589.54171,88.222278 590.58823,87.000025 592.32866,86 593.40933,86 595.16722,86 595.07609,86.311142 592.54422,88.953841 590.98774,90.578454 589.17205,94.043121 588.50935,96.653101 587.30533,101.39503 585.61378,103.25274 584.73337,100.8 z M 608.2381,97.357227 C 603.08397,91.906818 602.81335,91.76193 600.29985,93.107116 598.86864,93.87308 596.58576,96.179947 595.22679,98.233486 593.86782,100.28703 592.3585,101.72157 591.87275,101.42136 590.68179,100.6853 596.25787,92.716279 599.40821,90.6521 603.41339,88.027803 605.4021,88.662212 609.90299,94 612.42946,96.99624 614.93877,99 616.1645,99 617.2895,99 620.30021,97.571271 622.85498,95.825047 628.73373,91.806817 632.91434,91.834492 640.70911,95.943241 643.8941,97.622099 647.30543,98.996675 648.28984,98.997855 650.96717,99.001064 656.99161,95.584559 661.48437,91.515141 663.7331,89.4783 665.63454,88.40362 665.84936,89.048081 666.42723,90.781702 658.09718,98.774545 653.28445,101.10435 649.58039,102.89745 648.54059,103.01068 645.26432,101.97773 643.19394,101.32498 639.82215,99.712957 637.77144,98.395456 633.22677,95.475682 628.66549,95.331362 625.27287,98 623.87445,99.1 622.17107,100 621.48759,100 620.8041,100 619.68469,100.675 619,101.5 616.68657,104.28752 613.70705,103.14056 608.2381,97.357227 z M 653,92.081559 C 653,91.576417 654.49211,90.240946 656.31579,89.113846 658.13948,87.986745 660.45922,86.150044 661.47078,85.032286 663.50182,82.788011 665,82.398247 665,84.11413 665,85.795032 656.75232,92.912061 654.75,92.958987 653.7875,92.981544 653,92.586702 653,92.081559 z"/>
</svg>
