<svg xmlns="http://www.w3.org/2000/svg"
     width="45.6" height="64.0"
     viewBox="808.8613 13.0000 67.1099 94.1496">
  <path d="M 839.29342,99.579292 C 839.63111,97.498356 839.49343,96.195044 838.97008,96.51849 838.46879,96.828309 837.79718,95.825892 837.47763,94.290898 836.72308,90.666417 830.97956,74.728456 830.06979,73.734569 828.34818,71.853784 821.00447,77.566568 817.36728,83.616036 815.85863,86.125275 814.93459,85.032007 813.90471,79.51932 812.86125,73.933965 815.2774,66.946616 820.4375,60.626882 L 823.80712,56.5 821.40356,50.12826 C 819.60997,45.373518 819,41.762337 819,35.898496 819,27.651132 821.16374,20 823.49609,20 824.21337,20 825.74781,23.183889 826.99016,27.25 829.73564,36.235768 832.6884,43 833.86543,43 834.35571,43 835.5034,40.027982 836.41585,36.395515 838.67984,27.38253 843.49672,17 845.41423,17 847.66915,17 849.69652,20.653943 851.52026,28.004936 854.4504,39.815522 854.82105,41.154382 855.29046,41.623789 855.54639,41.879728 858.33619,38.660596 861.49,34.470164 866.67163,27.585389 869.39248,25.059144 870.46781,26.134473 870.67766,26.344326 871.13499,29.307664 871.48411,32.719668 871.97116,37.479835 871.60679,40.851864 869.91815,47.211657 868.70776,51.770245 867.21852,56.128198 866.60872,56.895995 865.99892,57.663792 864.7512,59.903195 863.83601,61.872446 862.52279,64.69814 862.41739,65.852456 863.33601,67.348314 863.9762,68.390791 865.05587,70.201389 865.73526,71.371864 867.26038,73.999384 867.3925,87.398085 865.92042,90.148706 864.87128,92.109037 864.78358,92.114234 862.81088,90.332964 861.69441,89.324834 859.197,86.115716 857.26109,83.20159 852.98735,76.768323 850.97461,76.720187 849.31856,83.011637 847.02548,91.72319 842.20198,102.49071 840.43085,102.8517 838.96908,103.14964 838.79521,102.64941 839.29342,99.579292 z M 821.18356,75.543715 C 822.53451,74.192758 824.89627,72.609739 826.43189,72.025894 828.66731,71.175992 829.10466,70.519341 828.62563,68.732179 828.29655,67.504481 828.02116,65.0375 828.01365,63.25 828.00397,60.944218 827.53551,60 826.40121,60 822.39355,60 815.31281,71.125868 816.44629,75.642025 817.19559,78.627467 818.11897,78.608305 821.18356,75.543715 z M 829.3669,51.418286 C 829.8437,49.813229 830.5592,47.838553 830.95689,47.030118 831.38111,46.167764 830.50616,43.194395 828.83999,39.836206 827.27799,36.687989 826,33.4636 826,32.670897 826,31.878195 825.37993,29.754904 824.62206,27.952474 823.26892,24.734288 823.22294,24.714922 822.06633,26.876061 820.32155,30.136204 821.43153,41.80368 824.16083,48.892382 826.67058,55.410838 827.99062,56.051303 829.3669,51.418286 z M 849.2484,73.947862 C 854.28564,72.548945 856.43377,68.457925 856.39007,60.346834 856.3542,53.690267 854.76949,50.205523 850.50864,47.413707 844.56112,43.516742 835.82789,44.088874 833.81469,48.507362 833.20576,49.84382 832.36531,50.725776 831.94703,50.467263 831.52875,50.208751 831.40875,50.847075 831.68038,51.885761 831.952,52.924448 831.68503,54.076626 831.08712,54.446158 830.4892,54.81569 830,57.53195 830,60.482292 830,67.047816 832.91848,71.095184 839.27609,73.346416 844.53312,75.207935 844.67934,75.216754 849.2484,73.947862 z M 846.04295,86.155671 C 848.73973,78.947877 848.3774,77.635909 843.48689,76.900355 841.2941,76.570551 838.2625,75.959267 836.75,75.541947 835.2375,75.124627 834,74.994726 834,75.253277 834,75.511828 835.35,78.70073 837,82.339727 838.65,85.978724 840,90.015966 840,91.311376 840,97.295826 842.75399,94.94618 846.04295,86.155671 z M 852,43.463812 C 852,41.254955 847.99972,25.617586 847.03559,24.057593 846.589,23.33499 845.73829,23.04371 845.14513,23.410304 843.25729,24.577056 839.3499,33.354636 838.75976,37.754439 L 838.19031,42 842.40403,42 C 844.72157,42 847.49125,42.660688 848.55887,43.468197 851.06904,45.366792 852,45.365606 852,43.463812 z M 861.84558,70.25 C 859.53561,65.988624 858,64.829153 858,67.346362 858,68.086861 857.27786,70.140284 856.39525,71.909524 855.01846,74.66937 854.99105,75.294916 856.20231,76.313162 856.97881,76.965923 858.93845,79.3 860.55706,81.5 L 863.5,85.5 863.82469,80 C 864.07693,75.727449 863.63524,73.551517 861.84558,70.25 z M 863.70081,57.09801 C 867.15873,51.995071 870.47698,38.748636 869.38613,34.40232 868.54047,31.032953 867.70631,31.359407 863.86679,36.562354 862.01506,39.071649 859.41225,42.488541 858.08277,44.155447 855.95972,46.817352 855.80024,47.570372 856.77236,50.343092 857.38111,52.079392 858.18512,55.207082 858.55904,57.293515 859.34912,61.701966 860.61361,61.653887 863.70081,57.09801 z"/>
</svg>
