<svg xmlns="http://www.w3.org/2000/svg"
     width="36.1" height="64.0"
     viewBox="1025.4660 14.4849 50.7405 89.9520">
  <path d="M 1064.8041,92.672412 C 1066.221,90.867019 1067.3061,85.876318 1067.1244,82 1066.6727,72.360583 1065.7335,68.766033 1062.7908,65.414533 1059.271,61.405635 1058.0254,61.208726 1055.4243,64.25 1051.3218,69.046879 1050.7199,71.217149 1050.8238,80.839052 1050.9311,90.777637 1051.9339,93.278202 1056.4948,94.980666 1058.6957,95.802179 1063.3659,94.504819 1064.8041,92.672412 z M 1054.5805,98.140138 C 1048.7423,94.713296 1047.4946,91.789232 1047.5524,81.669667 1047.6076,72.003771 1047.4887,72.356531 1055.3038,58.661075 1056.8212,56.001911 1057.0448,53.753436 1056.7122,44.5 1055.8945,21.756881 1050.83,18.484919 1037.7626,32.257509 1034.057,36.16305 1030.7805,39.113791 1030.4814,38.81471 1029.466,37.7993 1040.2787,26.029618 1045.0251,22.983868 1051.0212,19.136187 1053.7989,19.913418 1056.7895,26.275671 1058.4255,29.756103 1059.0288,33.666386 1059.5855,44.399888 1060.277,57.732207 1060.3662,58.143279 1063.0325,60.293099 1066.3721,62.98571 1068.3337,66.807496 1069.9886,73.845987 1072.2065,83.278894 1069.374,93.165758 1063.1405,97.75 1059.5525,100.38867 1058.4934,100.43694 1054.5805,98.140138 z"/>
</svg>
