<svg xmlns="http://www.w3.org/2000/svg"
     width="28.8" height="64.0"
     viewBox="994.0000 16.0159 41.5639 92.4933">
  <path d="M 998,31.093805 C 998,29.773656 1011.3026,20.127446 1013.25,20.035435 1013.6625,20.015946 1014,20.5625 1014,21.25 1013.9999,22.513936 1000.7257,32 998.95704,32 998.43067,32 998,31.592212 998,31.093805 z M 1006.5,70.750222 C 1006.5,46.2093 1005.9755,43 1001.9648,43 1000.8842,43 1000,42.596911 1000,42.104246 1000,41.220637 1009.0518,35 1010.3375,35 1011.6901,35 1010.937,37.232862 1009.0424,38.839707 1007.1991,40.403102 1007.168,40.811839 1008.5101,45.84318 1010.5416,53.459445 1010.9944,86.328311 1009.1287,90.75 1008.3745,92.5375 1007.4745,94.0001 1007.1287,94.000222 1006.7829,94.000344 1006.5,83.537844 1006.5,70.750222 z M 1026,47.11813 C 1026,46.541434 1024.65,44.532027 1023,42.652781 1019.7486,38.949635 1019.1955,37 1021.3964,37 1023.364,37 1029.172,43.870972 1028.8046,45.76416 1028.4596,47.542297 1026,48.729714 1026,47.11813 z M 1025.0914,95.299054 C 1023.2728,93.244848 1021.3244,90.424704 1020.7617,89.032067 1018.9901,84.647579 1019.6569,51.009773 1021.553,49.113713 1022.8846,47.782072 1023.24,51.645872 1023.3637,68.799612 L 1023.5,87.705199 1027.3102,91.922083 C 1030.9394,95.938724 1031.5639,97.97869 1029.3865,98.704487 1028.8429,98.885705 1026.9101,97.35326 1025.0914,95.299054 z M 1018.25,98.063918 C 1014.0537,93.19113 1013.0466,91 1015.0033,91 1016.4412,91 1026,100.40186 1026,101.81616 1026,104.50922 1022.2277,102.68282 1018.25,98.063918 z"/>
</svg>
