<svg xmlns="http://www.w3.org/2000/svg"
     width="28.5" height="64.0"
     viewBox="877.3677 12.9469 40.6323 91.1809">
  <path d="M 901.5,98.798285 C 890.2961,94.899998 881.36771,76.058356 881.69327,57 881.99583,39.288651 888.78554,26.17655 900.53496,20.613461 908.27889,16.946884 909.52532,17.93956 906.09429,25.040977 905.04615,27.210378 903.6157,31.220604 902.91551,33.95259 901.40066,39.863217 901.74459,40.831932 908.93613,50.910489 911.72126,54.813698 914,58.770173 914,59.702656 914,60.635139 911.84334,63.446011 909.20742,65.94904 903.72068,71.159158 900,76.141527 900,78.278694 900,79.087168 901.59471,83.704312 903.54379,88.539014 906.78684,96.583384 907.32794,100.12783 905.28138,99.921053 904.85162,99.877632 903.15,99.372386 901.5,98.798285 z M 900.54234,88.25 C 894.89971,71.940022 894.63714,52.915049 899.82122,36 901.42256,30.775 902.90538,25.835683 903.11638,25.023741 903.36058,24.083995 902.62221,23.414848 901.0847,23.182528 899.221,22.900922 897.69305,23.923197 894.39426,27.658787 885.228,38.038744 882.18549,56.938756 887.01476,73.5 888.2978,77.9 890.22002,82.85 891.28637,84.5 893.28725,87.596057 900.96915,94.992505 902.18879,94.997295 902.56763,94.998783 901.82673,91.9625 900.54234,88.25 z M 908.52452,57.324987 C 907.53244,55.771244 905.10963,52.503518 903.1405,50.063374 899.6394,45.724829 899.54521,45.680614 898.8798,48.063374 897.96328,51.345376 897.81941,69.486079 898.7029,70.369565 899.08949,70.756159 901.86336,68.614904 904.86704,65.611219 L 910.32829,60.149974 908.52452,57.324987 z"/>
</svg>
