<svg xmlns="http://www.w3.org/2000/svg"
     width="61.5" height="64.0"
     viewBox="504.4040 11.9988 41.1722 42.8762">
  <path d="M 515.15625,16.0625 C 514.89141,16.043828 514.54233,16.172202 514.0625,16.46875 510.20508,18.852765 508.40398,34.459465 511.25,40.9375 512.42405,43.609849 512.23664,45.203778 510.90625,49.3125 L 513.96875,49.84375 C 514.03676,49.287149 514.28083,48.698306 514.78125,47.84375 516.22818,45.372843 516.15162,44.803938 514.03125,39.875 512.16901,35.5461 511.87941,33.49151 512.375,28.75 512.70903,25.554143 513.68995,21.562318 514.5625,19.875 515.78256,17.515665 515.95076,16.118515 515.15625,16.0625 z M 523.28125,16.09375 C 523.01535,15.998831 522.62795,16.107346 522.09375,16.4375 520.29011,17.552213 517,29.990635 517,35.6875 517,40.362656 517.25374,41.082477 518.75,40.78125 520.21767,40.485779 520.43275,39.519556 520.15625,34.78125 519.92246,30.774757 520.4865,27.384818 522.0625,23.0625 523.68109,18.623356 524.07894,16.378507 523.28125,16.09375 z M 529.5,50.6875 533.375,50.875 532.78125,49 536.28125,45.375 C 540.11496,41.428006 541.57618,36.909757 539.96875,33.90625 538.6082,31.364032 537.39832,31.487682 533.78125,34.53125 532.12011,35.929003 530.24326,36.907675 529.625,36.6875 527.93773,36.08663 528.71571,29.249962 531,24.53125 532.10619,22.246175 533,19.542845 533,18.53125 533,16.796703 532.89189,16.775983 531.125,18.375 528.94303,20.349649 524.71958,33.010969 525.1875,36.15625 525.72146,39.745502 528.48703,40.745245 532.25,38.71875 536.23239,36.574094 537.60439,36.593955 537.15625,38.8125 536.63507,41.392553 533.86504,44.118553 530.15625,45.6875 527.02891,47.010476 526.91082,47.222563 528.40625,48.875 529.00901,49.541038 529.22617,50.115298 529.5,50.6875 z"/>
</svg>
