<svg xmlns="http://www.w3.org/2000/svg"
     width="55.9" height="64.0"
     viewBox="740.8651 12.2705 83.3197 95.4727">
  <path d="M 815.5,49.75 C 814.19885,51.396634 808.1282,55 806.34375,55 805.41299,55 802.068,52.75 798.90625,50 792.96563,44.833003 791.28536,44.25186 787.84375,46.09375 786.7328,46.688311 785.70615,47.025811 785.5625,46.84375 784.91874,46.027855 786.81954,31.774212 787.6875,30.90625 788.31473,30.279021 789.58304,30.657519 791.25,31.96875 792.76153,33.157722 795.31763,34 797.4375,34 800.4,34 801.23248,33.538432 802.03125,31.4375 803.67811,27.105924 803.19987,21.582317 800.96875,19.1875 798.25116,16.270509 795.70955,16.444004 790.6875,19.84375 788.3884,21.400152 785.98368,22.972092 785.34375,23.34375 784.68932,23.723831 782.73481,22.471759 780.875,20.5 779.0564,18.57194 776.93641,17 776.1875,17 775.43859,17 772.87396,18.62286 770.46875,20.59375 L 766.09375,24.15625 762.09375,20.96875 C 757.41104,17.205616 755.52914,17.537524 753.46875,22.46875 751.47039,27.251481 751.63201,30.632013 754,33 756.73176,35.731761 758.47509,35.517906 762.15625,32 763.88281,30.35 765.57438,29 765.90625,29 767.29222,29 770.8613,37.886086 771.4375,42.75 771.77956,45.6375 771.88176,48 771.65625,48 771.43075,48 768.63659,46.85229 765.4375,45.4375 755.45574,41.023092 752.09745,42.027595 747.875,50.75 744.86515,56.967538 744.88134,66.883192 747.90625,72.8125 749.40263,75.745646 750.65775,77.036668 751.8125,76.8125 753.24371,76.534661 753.50102,75.166332 753.53125,68.125 753.56501,60.260968 753.73539,59.618619 756.34375,57.375 757.86721,56.064581 759.69716,55 760.40625,55 765.62622,55 771.15983,72.535415 768.84375,81.75 767.5895,86.740082 765.53521,87.263058 762,83.5 760.70825,82.125 759.09883,81 758.40625,81 756.32178,81 747,87.204885 747,88.59375 747,90.890478 749.08081,91.246008 751.3125,89.34375 756.56913,84.863067 757.89246,84.663065 762.03125,87.53125 764.13909,88.991983 766.65901,90.004551 767.65625,89.8125 773.82535,88.62444 775.3008,68.0797 769.84375,59.25 764.81858,51.119113 760.76911,50.043386 755.40625,55.40625 752.34015,58.47235 752.00089,59.380754 751.9375,64.65625 751.87937,69.494588 750.32194,76.832982 750.0625,73.5 750.01969,72.95 749.52975,69.675827 748.96875,66.21875 748.14023,61.113224 748.23978,59.048064 749.53125,55.21875 751.6302,48.995162 753.66709,45.999002 755.78125,46 758.77699,46.001412 767.27236,49.644261 769.6875,51.96875 770.96329,53.196654 772.61983,53.977283 773.375,53.6875 775.09077,53.029095 776.43914,44.611555 775.1875,42.375 774.67706,41.462904 774.45496,39.982998 774.6875,39.09375 774.92004,38.204503 773.68648,34.843953 771.96875,31.625 L 768.875,25.78125 771.09375,23.375 C 773.90545,20.382085 776.33373,20.348951 778.28125,23.25 779.112,24.4875 780.77545,26.528328 781.96875,27.78125 783.93717,29.84803 784.05348,30.543555 783.15625,35.28125 782.61233,38.153328 782.11447,42.8625 782.0625,45.75 781.95848,51.528603 782.59774,51.991472 787.375,49.5 790.46773,47.887059 790.13675,47.686951 800.65625,57.09375 803.63956,59.761503 806.4962,59.482664 812.15625,56 814.30723,54.67649 815.80843,53.989315 816.84375,53.59375 L 816,50 815.5,49.75 z M 795.875,20.375 C 797.02853,20.52104 797.96515,21.510605 798.84375,23.34375 800.72989,27.279041 799.6132,31 796.5625,31 795.24381,31 793.93584,31.4675 793.65625,32.03125 793.37667,32.595 793.27237,32.4825 793.4375,31.78125 793.60263,31.08 792.56888,29.213851 791.125,27.65625 L 788.5,24.84375 791.5,22.40625 C 793.33956,20.917232 794.72147,20.22896 795.875,20.375 z M 758.25,22.09375 C 759.17403,22.001713 760.21785,22.599649 761.34375,23.84375 763.46471,26.187379 763.41542,27.299225 761.15625,29.34375 758.71062,31.557018 757.30571,31.431512 755.9375,28.875 755.11139,27.331398 755.08999,26.097907 755.875,24.375 756.52233,22.95428 757.32597,22.185787 758.25,22.09375 z M 818.21875,59.59375 C 817.94998,60.258491 817.63576,60.90888 817.25,61.25 816.2875,62.101126 813.23399,63.592707 810.46875,64.5625 L 805.4375,66.3125 798.3125,61.5625 C 790.27152,56.215611 788.50478,56.31303 785.6875,62.25 782.22303,69.550826 781.63838,74.086573 783.40625,80.09375 785.32846,86.625363 788.33298,89.863399 793.21875,90.65625 796.16229,91.133921 797.45785,90.631489 801.4375,87.59375 804.0363,85.61004 806.56792,84 807.0625,84 807.55708,84 809.41796,84.902056 811.21875,86 814.73608,88.144518 818,88.62335 818,87 818,86.45 817.61196,86 817.15625,86 816.70055,86 814.23676,84.615506 811.65625,82.90625 L 806.96875,79.78125 801.59375,83.46875 C 795.29788,87.80488 791.73813,87.885548 788.6875,83.78125 786.21442,80.453985 785.30384,71.606277 786.9375,66.65625 788.66362,61.426038 791.22369,61.107642 796.78125,65.4375 803.39404,70.589478 804.8608,70.72281 812.6875,66.84375 815.96239,65.220649 818.29393,64.087269 819.1875,63.65625 L 819,63 818.21875,59.59375 z M 803.65625,91.25 C 801.95437,91.563182 800.20529,92.620576 798.125,94.5 794.59598,97.688255 790,99.21387 790,97.1875 790,96.174384 781.83257,92 779.84375,92 779.04938,92 776.86578,93.575 775,95.5 773.13422,97.425 771.20581,99 770.71875,99 770.23168,99 767.17375,97.459215 763.9375,95.5625 L 758.0625,92.09375 752.53125,95.6875 C 749.48746,97.66307 747,99.685107 747,100.15625 747,101.49804 748.01937,101.18614 752.65625,98.46875 L 756.96875,95.9375 760.8125,97.90625 C 762.92275,98.982817 765.25261,100.59944 766,101.5 767.86166,103.74316 771.68021,102.6657 775.75,98.75 779.30668,95.328002 779.12138,95.289176 788,100.5625 791.40058,102.58223 795.59492,101.63463 799.3125,98 802.79576,94.594464 803.82345,94.446173 809.71875,96.5 812.72042,97.545732 814.67217,97.683058 816.46875,97 820.18483,95.587151 819.54952,94.009378 815.25,93.96875 813.1875,93.94926 810.375,93.286021 809,92.5 807.0195,91.367847 805.35813,90.936818 803.65625,91.25 z"/>
</svg>
