<svg xmlns="http://www.w3.org/2000/svg"
     width="26.6" height="64.0"
     viewBox="340.6561 10.9685 40.3370 97.1329">
  <path d="M 373.1875 59.875 L 374.40625 53.125 C 374.163 52.582084 373.87317 52.044219 373.8125 51.5 C 373.57175 49.340346 374.06041 48.420647 375.1875 48.53125 L 375.90625 44.5625 C 374.29001 42.956913 372.96007 40.026227 372.1875 35.8125 C 370.35602 25.823211 364.83651 14.968467 361.59375 15 C 360.9915 15.005857 359.07221 16.500777 357.3125 18.3125 C 352.25335 23.521177 349.69256 34.308368 349.6875 50.5 C 349.68412 61.310083 350.02196 64.485364 351.78125 69.1875 L 353.90625 74.84375 L 351.875 77.4375 C 347.30841 83.242977 344.65606 95.62442 347.03125 100.0625 C 348.32206 102.4744 351.86956 102.59446 352.625 100.25 C 353.57804 97.29234 359.31382 85.919521 360.09375 85.4375 C 362.375 84.02761 366.76502 89.55734 368.90625 96.5 C 369.58477 98.7 370.31529 101.0625 370.53125 101.75 C 371.26989 104.10138 373.80738 102.996 374.90625 99.84375 C 376.99301 93.85769 376.05378 86.777485 371.96875 77.4375 C 369.98235 72.895795 369.88099 71.843555 370.90625 66.9375 C 371.75003 62.899861 372.4197 60.785936 373.1875 59.875 z M 361.21875 19 C 362.19014 19 367.00506 28.102557 366.96875 29.875 C 366.95045 30.768226 366.09486 32.5125 365.0625 33.75 C 364.03014 34.9875 363.03059 35.978664 362.84375 35.96875 C 361.51245 35.898107 356 27.67258 356 25.75 C 356 23.645555 359.58648 19 361.21875 19 z M 355.0625 32.6875 C 355.65479 32.992715 356.51698 33.990686 358.03125 35.875 C 361.87011 40.65195 363.15199 40.940434 365.40625 37.5 C 368.60456 32.618773 369.4892 34.601382 370.34375 48.5 C 370.6404 53.324821 370.20977 57.798858 368.90625 62.90625 C 366.46818 72.458996 366.5202 73.611008 369.65625 79 C 371.59641 82.333987 372.379 85.378576 372.75 90.75 C 373.09697 95.773448 372.90901 98 372.125 98 C 371.50267 98 371 97.273689 371 96.375 C 371 92.514253 368.40964 86.66646 365.1875 83.25 L 361.71875 79.5625 L 359.125 82.90625 C 357.70428 84.748522 355.40793 88.557283 354 91.375 C 352.59207 94.192717 350.99902 96.379592 350.46875 96.21875 C 348.91628 95.747848 349.78449 86.298876 351.65625 83.28125 C 352.59989 81.759921 354.39588 79.358757 355.65625 77.96875 L 357.9375 75.4375 L 355.28125 68.96875 C 352.86165 63.072032 352.6402 61.298656 352.625 49 C 352.61554 41.339994 353.05728 34.685859 353.65625 33.625 C 354.13909 32.769827 354.47021 32.382285 355.0625 32.6875 z "/>
</svg>
