<svg xmlns="http://www.w3.org/2000/svg"
     width="62.0" height="64.0"
     viewBox="607.2469 10.1722 91.8167 94.8299">
  <path d="M 687.15625,50.15625 C 686.66314,51.087021 685.14989,51.933508 682.25,53.40625 L 679.03125,55.03125 672.96875,49.46875 C 666.54013,43.558742 666.10787,43.457673 659.59375,46.59375 657.99675,47.362591 656.59169,48 656.46875,48 655.75696,48 657.37676,37.833029 658.65625,34.25 660.21173,29.894083 661.39177,28.94435 662.3125,31.34375 662.98784,33.103637 670.52979,34.334345 672.90625,33.0625 675.38178,31.73764 676.21624,26.764051 674.875,21.4375 673.21822,14.857816 671.78106,14.172191 666.84375,17.59375 664.57451,19.166337 662.23316,21.244929 661.625,22.21875 660.09707,24.665364 659.61859,24.540045 653.875,20 651.0918,17.8 648.28899,16 647.625,16 646.96101,16 644.67585,17.773239 642.5625,19.9375 L 638.71875,23.875 634.96875,20.84375 C 630.48077,17.23711 627.5277,17.367763 624.59375,21.3125 622.12894,24.626468 621.81613,32.65172 624.09375,34.09375 626.71944,35.756153 631.04375,35.038348 633.78125,32.5 635.26412,31.125 636.77018,30 637.125,30 638.06242,30 641,39.428831 641,42.4375 641,45.374037 640.06058,45.534518 634.5,43.53125 625.11149,40.148922 619.72777,42.381008 615.59375,51.34375 612.4298,58.203315 611.24694,68.779677 613.53125,69.65625 615.99045,70.599933 617.3941,68.613643 615.9375,66.28125 612.83615,61.315206 619.05085,47.446545 625.03125,45.96875 627.91644,45.255801 633.32182,46.419476 637.25,48.59375 638.7625,49.430928 639.99158,49.756095 640,49.3125 640.00842,48.868905 640.41334,49.084361 640.875,49.8125 641.55298,50.881847 642.01478,50.828976 643.34375,49.5 645.62174,47.222009 645.43857,40.971712 642.84375,32.75 L 640.6875,25.9375 643.53125,22.96875 C 645.09226,21.339413 646.64409,20 646.96875,20 647.29341,20 649.69582,21.9125 652.3125,24.25 L 657.0625,28.5 655.03125,35.5 C 652.63469,43.739983 652.29379,53 654.375,53 655.12583,53 656.81333,52.17238 658.125,51.15625 662.47498,47.786397 669,47.394652 669,50.5 669,51.852009 676.44057,59 677.84375,59 678.29787,59 680.76592,57.613733 683.34375,55.90625 686.4522,53.847301 688.28874,53.210926 689.96875,53.4375 L 687.15625,50.15625 z M 670.0625,19.96875 C 670.89249,20.436003 671.3256,22.037579 671.71875,24.96875 672.12329,27.984793 671.90289,29.462676 670.90625,30.09375 669.22025,31.161321 669.09072,31.137205 666.28125,29.78125 662.39332,27.904786 662.29989,24.953669 666.0625,21.8125 668.00115,20.19405 669.23251,19.501497 670.0625,19.96875 z M 629.375,22 C 630.84766,22 635,26.131615 635,27.59375 635,28.127217 633.69111,29.337666 632.09375,30.28125 627.57722,32.949226 626,32.443544 626,28.28125 626,25.196444 627.72083,22 629.375,22 z M 631.8125,52.09375 C 630.72574,52.037688 629.68251,52.108229 628.75,52.34375 626.4931,52.91377 619.98699,62.482039 620.03125,65.15625 620.05547,66.620384 623.93228,62.097101 623.96875,60.5625 624.01653,58.552411 628.49231,55.010141 630.9375,55.03125 633.89469,55.056779 637.22666,57.474995 638.9375,60.8125 641.04215,64.918249 641.43922,76.041913 639.625,80.375 L 638,84.25 633,83.78125 C 630.19021,83.511265 627.10472,82.499758 626,81.5 624.15936,79.834247 623.98601,79.845224 623.375,81.4375 622.51169,83.687236 623.71559,84.732249 629.0625,86.4375 631.50568,87.216684 635.075,87.783504 637,87.6875 640.15342,87.530231 640.7414,87.004887 642.90625,82.5 644.22778,79.75 645.31667,75.7 645.3125,73.5 645.29974,66.774792 643.04992,58.340223 640.5625,55.65625 638.69711,53.643467 635.07279,52.261936 631.8125,52.09375 z M 692.53125,56.46875 C 691.58202,58.250535 688.49043,60.604096 683.28125,63.34375 L 678.0625,66.09375 673,62.59375 C 663.80205,56.266675 662.37848,56.637612 659,66.25 656.27406,74.005785 656.37215,80.776937 659.28125,85.09375 661.54015,88.445736 664.67325,89.988657 665.875,88.34375 666.73457,87.167205 672.75367,83 673.59375,83 673.97187,83 676.27205,84.614472 678.6875,86.59375 683.63819,90.650465 685.95481,90.63594 690.6875,86.5625 694.28879,83.462855 693.32476,82.541454 688.5625,84.53125 684.82696,86.092059 684.82655,86.107784 680.5,82.5625 678.11752,80.610237 675.54283,79 674.78125,79 674.01966,79 671.44695,80.43396 669.0625,82.1875 L 664.71875,85.375 662.78125,83 C 661.09579,80.918544 660.96,79.665414 661.5625,73.0625 661.94171,68.906551 662.65417,64.7125 663.15625,63.75 664.45192,61.266127 667.27006,61.56909 670.5,64.5625 676.1434,69.792621 679.22739,69.6995 687.71875,63.96875 690.13529,62.337846 692.47628,61 692.9375,61 693.21976,61 693.5609,61.668123 693.875,62.53125 L 693,57 692.53125,56.46875 z M 647.71875,88.65625 C 647.05012,89.05959 644.35297,91.08566 641.71875,93.15625 637.5132,96.461958 636.60126,96.800199 634.25,95.90625 632.77724,95.346309 630.92567,94.357309 630.15625,93.71875 628.60598,92.432143 622.2033,90.023528 620.25,90 617.22387,89.96355 619.41739,93.104394 624.0625,95.4375 626.85535,96.840267 630.13296,98.673823 631.3125,99.5 632.49203,100.32618 633.90362,101.00206 634.46875,101 635.98874,100.99447 642.10384,97.150215 645.125,94.3125 648.07258,91.543907 648.88052,91.759113 656.15625,97.25 660.96204,100.87685 664.82375,100.82243 669.125,97.03125 672.98169,93.63192 673.78014,93.435521 676.59375,95.40625 679.23385,97.255446 685.32228,98.383463 688.46875,97.59375 691.33054,96.875485 695.06362,91 692.65625,91 691.88448,91 690.68469,91.675 690,92.5 688.24081,94.619693 682.09049,94.360603 678.21875,92 673.9754,89.412827 673.17313,89.490953 669.03125,93.03125 665.00431,96.473308 663.16034,96.690817 659.875,94.125 655.81041,90.950595 648.99459,87.886629 647.71875,88.65625 z"/>
</svg>
