<svg xmlns="http://www.w3.org/2000/svg"
     width="39.7" height="64.0"
     viewBox="1058.4743 12.1036 58.9007 94.9970">
  <path d="M 1113.1875 91.65625 C 1111.029 90.897845 1109.658 88.050644 1108.75 82.75 C 1107.755 76.940799 1107.8396 75.588698 1109.3125 72.5 C 1111.336 68.256641 1111.4273 66.996802 1109.75 67 C 1108.0662 67.003211 1096.7038 74.759695 1095.6562 76.625 C 1095.0498 77.70482 1093.9589 77.938443 1091.6562 77.4375 C 1087.3363 76.497669 1085.5261 75.064109 1082.0312 69.90625 C 1077.3751 63.034585 1078.0225 56.548756 1084.125 48.84375 C 1087.7999 44.203797 1089.1936 44.061266 1091.6875 48 C 1094.1483 51.886665 1099.7809 56 1102.625 56 C 1105.6364 56 1106.3914 53.139527 1104.5312 48.6875 C 1102.0431 42.732578 1102.5166 31.330428 1105.5 25.4375 C 1108.4316 19.646839 1107.9984 17 1104.1562 17 C 1100.009 17 1094.5634 21.330713 1091.1875 27.3125 C 1088.5094 32.057824 1087.5177 32.938217 1083.125 34.375 C 1076.6404 36.496009 1076.7267 36.492885 1074.7188 33.09375 C 1072.7726 29.799143 1072.4691 23.848344 1074.0938 20.8125 C 1075.5577 18.07712 1073.7786 16.103567 1071.5312 17.96875 C 1069.1325 19.95957 1065.4066 28.015235 1064.625 32.90625 C 1064.024 36.666995 1064.312 37.880513 1066.5625 41.28125 L 1069.1875 45.25 L 1067.3438 49.34375 C 1065.0838 54.355286 1064.8589 65.609947 1066.9062 71.78125 C 1068.2239 75.753174 1068.1932 76.332328 1066.2188 80.03125 C 1062.803 86.430745 1062.4743 90.286601 1064.9375 95.375 C 1068.5332 102.80259 1070.6349 102.3052 1072.8438 93.5 C 1074.694 86.124551 1075.4029 85.669948 1083.0625 87.15625 C 1089.376 88.381346 1089.5399 88.498984 1092 93.375 C 1093.8646 97.070899 1095.6516 98.955078 1099 100.75 C 1103.07 102.93179 1104.2549 103.10058 1111.4062 102.5 C 1112.214 102.43216 1112.6767 102.3469 1113.375 102.28125 L 1113.3125 99.03125 C 1111.7275 99.122405 1109.8784 99.249014 1108 99.53125 C 1103.7373 100.17172 1103.2414 99.988211 1098.75 96.03125 C 1095.9426 93.557915 1093.6736 90.565915 1093.1875 88.6875 C 1092.4291 85.756624 1091.9921 85.440994 1087.1562 84.84375 C 1081.6019 84.15775 1074.8154 80.266158 1072.7188 76.5625 C 1070.3428 72.3654 1069.0148 66.305355 1069 59.375 C 1068.9861 52.892224 1069.3171 51.802956 1072.5625 46.875 C 1076.4061 41.038438 1080.2595 38.162537 1086.4375 36.5 C 1089.4721 35.683345 1090.5859 34.764088 1091.3438 32.46875 C 1093.0712 27.236426 1096.7291 22.360225 1099.9375 21.03125 C 1101.6529 20.320738 1103.3139 19.970169 1103.625 20.28125 C 1103.9361 20.59233 1103.2475 23.385167 1102.0938 26.46875 C 1099.4434 33.552292 1099.4163 40.995033 1102.0312 47.875 C 1105.3515 56.61064 1103.1414 55.936565 1095.625 45.9375 L 1091.25 40.15625 L 1087.625 42.71875 C 1085.6295 44.138603 1082.5393 47.586649 1080.75 50.375 C 1078.0837 54.53009 1077.5 56.442278 1077.5 60.96875 C 1077.5 70.436059 1082.7335 78.274523 1091 81.15625 C 1093.9225 82.175048 1094.3578 81.985112 1098.6562 77.625 C 1101.1586 75.08678 1103.5981 73 1104.0938 73 C 1104.5893 73 1105 74.831051 1105 77.0625 C 1105 86.484442 1108.3773 93.468202 1113.2188 94.71875 L 1113.1875 91.65625 z M 1069.5312 24.875 C 1070.2329 24.416875 1070.9039 25.722856 1071.2188 29 C 1071.4844 31.764157 1072.4884 34.888825 1073.4375 35.9375 C 1074.813 37.457458 1074.92 38.245586 1074.0312 39.90625 C 1072.5489 42.676237 1071.5239 42.544074 1069.1875 39.25 C 1067.6432 37.072695 1067.3479 35.423423 1067.75 31.28125 C 1068.111 27.562814 1068.8296 25.333125 1069.5312 24.875 z M 1069.4062 79 C 1069.6809 79 1071.0342 80.040853 1072.4062 81.3125 C 1074.8765 83.601831 1074.8768 83.640591 1073.0625 86.40625 C 1072.0548 87.94248 1070.9362 90.951627 1070.5938 93.09375 C 1070.2511 95.235873 1069.6175 97 1069.1875 97 C 1068.7576 97 1067.8967 94.489282 1067.25 91.40625 C 1066.289 86.824627 1066.3096 85.180708 1067.4688 82.40625 C 1068.2488 80.539282 1069.1314 79 1069.4062 79 z "/>
</svg>
