<svg xmlns="http://www.w3.org/2000/svg"
     width="19.9" height="64.0"
     viewBox="872.8585 10.7261 29.2536 94.0534">
  <path d="M 883.97525,97.5 C 883.43886,96.125 882.52447,93.778561 881.94327,92.285692 878.99983,84.725192 876.89918,69.069688 876.8732,54.5 876.85849,46.25 877.04575,38.375 877.28933,37 878.8383,28.256218 884.09761,16.116459 886.70853,15.258233 888.32743,14.72609 893.58768,26.492107 896.15996,36.398992 897.85134,42.913162 898.11204,46.156516 897.64701,54.898992 896.83415,70.180498 894.31781,86.613263 892.1428,90.843796 891.10895,92.854708 889.67783,95.7375 888.96255,97.25 887.34292,100.6748 885.25457,100.77948 883.97525,97.5 z M 889.31599,89.739829 C 891.38201,84.916271 893.97511,64.348345 893.99001,52.666613 894.00445,41.341587 888.36149,20.379505 885.55059,21.31647 882.09071,22.469763 878.95005,41.541834 879.67446,57 880.4605,73.773088 884.32012,94.021403 886.72525,93.989829 887.15136,93.984235 888.3172,92.071735 889.31599,89.739829 z M 895.68311,43.8125 C 895.36389,43.014767 895.12693,43.251724 895.07895,44.416667 895.03553,45.470833 895.27188,46.061458 895.60417,45.729167 895.93646,45.396875 895.97198,44.534375 895.68311,43.8125 z"/>
</svg>
