<svg xmlns="http://www.w3.org/2000/svg"
     width="41.0" height="64.0"
     viewBox="228.0000 10.9779 59.6562 93.0221">
  <path d="M 283.65625,32.3125 C 282.92694,32.695977 282.33789,32.996471 281.4375,33.5 277.99527,35.425 274.69188,37 274.09375,37 272.12819,37 272.81767,32.33975 276.59375,20 277.27586,17.770934 277.17714,17.647985 275.71875,18.84375 273.43766,20.714056 270,30.324982 270,34.84375 270,40.47756 273.31569,42.78199 276.90625,39.625 277.6584,38.96368 280.26939,37.417366 282.71875,36.09375 L 283.65625,32.3125 z M 280.6875,44.25 C 274.2452,44.820902 270.6531,51.081892 268.5,65.25 266.60074,77.747801 262.96876,88.390632 258.9375,93.28125 256.28856,96.494876 255.5377,96.859824 252.71875,96.3125 249.56882,95.700914 241.63745,91.740089 235.25,87.59375 233.62305,86.537636 232.76162,85.351633 232.375,84.1875 L 232,90 232.1875,90.59375 C 232.58561,90.470327 233.07027,90.609249 233.78125,91.21875 237.31793,94.25065 250.60312,100 254.0625,100 257.111,100 258.06736,99.34553 261.15625,95.25 265.80227,89.089877 267.69481,85.304772 269.0625,79.34375 270.22657,74.270233 271.9367,64.424486 272.46875,59.8125 272.63981,58.329738 273.58255,55.0779 274.53125,52.59375 275.88001,49.062074 276.9464,47.83245 279.46875,47 279.67398,46.932269 279.83436,46.931135 280.03125,46.875 L 280.6875,44.25 z M 232.875,76.15625 232.53125,81.5 C 233.22482,80.846173 234.83907,81.388522 238.78125,83.375 244.99686,86.507066 249.38807,87.395662 251.9375,86.03125 255.47527,84.13789 258.6418,76.120628 260.84375,63.5 263.92239,45.854563 263.96243,43.231081 261.28125,38.09375 258.42606,32.622994 258.34959,26.066112 261.03125,20.15625 263.381,14.977871 263.37149,15 261.65625,15 259.44387,15 256.56673,22.804861 256.53125,28.90625 256.50838,32.839053 257.20526,35.952181 258.875,39.34375 260.9198,43.497158 261.1644,45.044607 260.59375,50.34375 258.82309,66.78642 254.1632,82.243283 250.5625,83.625 249.82366,83.908522 245.36131,82.241206 240.625,79.9375 L 232.875,76.15625 z M 270.65625,15 C 268.77752,15 264.29244,24.100519 263.4375,29.625 263.05211,32.115301 263.2504,34.595242 263.96875,35.9375 265.6363,39.053352 266.49365,37.672847 266.59375,31.65625 266.66737,27.231246 268.00439,23.119485 271.78125,15.75 271.99266,15.3375 271.48663,15 270.65625,15 z"/>
</svg>
