<svg xmlns="http://www.w3.org/2000/svg"
     width="46.8" height="64.0"
     viewBox="482.2752 12.2812 71.6623 97.9899">
  <path d="M 549.34375 16.28125 C 548.2687 16.517493 547.51073 16.803158 546.03125 16.875 C 539.9135 17.172071 535.68526 20.094335 531.5 26.875 C 528.07149 32.429618 527.78066 32.661659 521.90625 33.875 C 518.57115 34.563853 514.28616 35.853529 512.40625 36.75 C 509.19834 38.279741 508.91605 38.27389 507.6875 36.59375 C 505.45924 33.546428 503.72572 26.079247 504.28125 21.9375 C 504.76118 18.359294 504.61412 18 502.59375 18 C 494.41963 18 490.02237 37.463914 496.46875 45.125 C 499.46337 48.683909 499.4351 48.527007 497.4375 54.125 C 496.41977 56.977065 495.98178 61.111559 496.15625 66 C 496.40704 73.026977 496.24336 73.664475 493.65625 76.25 C 487.90197 82.000762 486.27524 91.651836 490.03125 97.8125 C 492.34628 101.60964 494.2725 101.55718 495 97.65625 C 495.56089 94.648689 500.08911 88.553463 502.875 87.0625 C 504.2926 86.303825 505.90451 86.85781 510.09375 89.5625 C 513.06263 91.479295 517.3 93.574024 519.5 94.21875 C 521.7 94.863475 525.61762 97.141815 528.1875 99.28125 C 530.75739 101.42068 534.58239 103.8118 536.6875 104.5625 C 541.47899 106.27117 541.26406 106.23946 543.34375 104.71875 C 544.98548 103.51829 544.99119 103.20391 543.125 98.96875 C 540.13442 92.181899 539.47658 84.060364 541.46875 78.0625 C 544.38555 69.280813 540.66613 69.043929 533.84375 77.59375 C 531.47294 80.564847 528.93403 83 528.21875 83 C 527.50347 83 525.21907 82.130817 523.125 81.0625 C 512.77453 75.782085 510.15059 61.888715 517.8125 52.9375 C 520.75474 49.500153 526.09207 46 528.4375 46 C 528.71898 46 529.83681 47.716226 530.90625 49.8125 C 532.91393 53.747885 539.37963 59 542.21875 59 C 544.4204 59 544.83766 57.230172 543.75 52.5 C 542.33066 46.327408 543.33878 30.138729 545.40625 25.96875 C 546.44444 23.874779 548.03369 22.147294 549.9375 20.75 L 549.34375 16.28125 z M 543.6875 19.96875 C 544.09361 19.975918 544.42757 20.115069 544.6875 20.375 C 544.98902 20.676524 544.02415 23.958311 542.53125 27.6875 C 540.2221 33.455676 539.84694 35.758044 540.03125 43 C 540.32794 54.657118 540.419 54.254631 537.875 52.75 C 536.70471 52.057839 534.67278 49.1375 533.375 46.25 C 530.94508 40.843528 529.26186 39.894385 526.65625 42.5 C 525.83125 43.325 524.62973 44 524 44 C 523.37026 44 520.71174 46.16681 518.09375 48.8125 C 506.61172 60.415998 509.4461 78.686531 523.71875 85 C 529.74637 87.666302 530.48004 87.562627 532.875 83.6875 C 534.0021 81.863814 535.9029 79.501314 537.09375 78.4375 C 539.25695 76.505069 539.25718 76.508296 538.5 78.9375 C 537.64087 81.693774 537.71996 92.860987 538.625 97.75 C 538.9559 99.5375 539.07371 101.00339 538.875 101 C 537.71665 100.98025 532.12907 97.516105 530 95.5 C 528.625 94.197957 525.025 92.224597 522 91.09375 C 510.94307 86.960299 502.32697 78.664018 499.96875 69.90625 C 498.85006 65.751765 499.70357 55.781748 501.4375 52.5625 C 506.80775 42.591966 517.09952 36 527.34375 36 C 529.25505 36 530.29905 35.041363 531.90625 31.75 C 534.87316 25.674082 540.84471 19.918572 543.6875 19.96875 z M 499.9375 24.15625 C 500.58637 24.222515 501 25.459233 501 27.84375 C 501 29.950537 502.10879 33.84498 503.46875 36.53125 L 505.9375 41.4375 L 503.8125 43.71875 C 501.00329 46.709017 500.55922 46.614222 498.09375 42.625 C 495.63987 38.654538 495.35698 32.448153 497.4375 27.46875 C 498.39305 25.181816 499.28863 24.089985 499.9375 24.15625 z M 496.46875 76.65625 C 497.83655 76.131373 502 80.662821 502 82.6875 C 502 84.170962 492.18861 94.1307 491.625 93.21875 C 491.33518 92.749819 491.00512 90.549102 490.875 88.34375 C 490.62627 84.128285 493.68251 77.725428 496.46875 76.65625 z "/>
</svg>
