<svg xmlns="http://www.w3.org/2000/svg"
     width="39.5" height="64.0"
     viewBox="341.0000 13.0000 55.4449 89.7927">
  <path d="M 345.40625 75.90625 L 345 78 L 345.28125 80.3125 C 345.99196 80.19943 347.13901 80.731983 349.21875 82 C 351.01954 83.097944 353.27941 83.997944 354.25 84 C 357.04368 84.005918 360.19961 78.121718 359.59375 74 C 359.14321 70.934872 359.72101 63.377164 361.53125 49.5 C 363.37274 35.383278 369.67449 20 373.59375 20 C 376.46723 20 381.60638 22.759593 383.15625 25.125 C 385.25252 28.324315 389.53485 41.777654 388.71875 42.59375 C 387.37298 43.939522 385.21903 42.01337 383.15625 37.625 C 381.17941 33.419451 378.59287 31 376.09375 31 C 374.17912 31 369.93355 39.792483 369 45.65625 C 368.48838 48.869812 367.86858 55.325 367.625 60 C 366.99114 72.165101 364.27724 90.573276 362.78125 92.96875 C 361.26352 95.399009 358.23958 95.515095 352 93.375 C 349.18811 92.410557 347.58883 91.674253 346.5625 90.5625 L 347 94 L 347.34375 95.375 C 348.56907 95.503988 350.27907 95.995544 353.375 97.03125 C 358.31237 98.682991 359.67588 98.792694 361.875 97.75 C 365.64279 95.963528 367.8779 90.588121 368.5625 81.59375 C 368.89115 77.27577 369.57412 72.616723 370.09375 71.25 C 370.61338 69.883276 371.26916 62.850499 371.5625 55.625 C 372.14484 41.280505 372.48733 39.362306 374.78125 36.75 C 377.03283 34.185899 378.67538 34.590012 379.875 38.03125 C 380.45868 39.705574 381.87367 42.405574 383.03125 44.03125 C 386.77197 49.284609 392.44487 47.241811 392.1875 40.71875 C 392.05971 37.479785 388.44537 26.316356 386.21875 22.3125 C 384.59221 19.387703 379.52294 17 374.96875 17 C 371.84779 17 370.7917 17.600993 368.4375 20.6875 C 365.22546 24.898708 360.63615 39.296104 359.0625 50.15625 C 358.477 54.196965 357.55947 60.429316 357.03125 64 C 356.50303 67.570684 356.34458 71.508184 356.65625 72.75 C 357.40676 75.740242 356.26377 80.009734 354.71875 80.03125 C 354.04173 80.040678 351.37238 79.028178 348.78125 77.78125 C 347.17284 77.007235 346.14304 76.700468 345.40625 75.90625 z "/>
</svg>
