<svg xmlns="http://www.w3.org/2000/svg"
     width="42.0" height="64.0"
     viewBox="417.0000 12.6913 61.5933 93.8544">
  <path d="M 421.96875,72.84375 421.65625,79.46875 426.8125,83.75 C 433.73805,89.5135 438.53204,91.782227 440.8125,90.34375 443.80574,88.455665 444.4096,83.143151 444.03125,62 443.76268,46.99121 445.56838,35.682404 449.46875,27.90625 453.84115,19.189017 455.49397,19.030598 463.03125,26.78125 468.63346,32.542046 470.98611,37.228194 471,42.6875 471.00569,44.920415 472.64067,46.671829 473.71875,45.59375 474.59333,44.719168 474.20976,38.523965 473,34.03125 471.83064,29.688603 463.04853,19.357937 459.3125,17.9375 456.03486,16.691341 452.70547,18.48371 449.25,23.375 444.11955,30.637234 441.59047,43.76288 441.8125,62 441.99418,76.92274 441.46783,84.651702 440.09375,86.875 439.06215,88.544174 433.39817,84.828835 426.25,77.78125 423.90258,75.466863 422.70425,74.161719 421.96875,72.84375 z M 421.3125,86.90625 421,94 421.25,94.875 C 421.69882,94.425754 422.99184,94.981809 426.75,96.875 434.70619,100.88296 443.11849,102.54573 446.59375,100.8125 452.4076,97.912954 455.84324,83.382403 456.03125,61 456.14924,46.952549 456.98661,39.834927 458.5625,39.3125 459.14821,39.118328 461.09626,41.010884 462.90625,43.53125 464.71624,46.051617 466.43591,47.876598 466.71875,47.59375 468.70997,45.602536 461.20422,35.631829 458.15625,36.21875 455.25349,36.777709 453.80623,43.799861 453.375,59.5 452.62476,86.814176 449.93668,99.025959 444.71875,98.96875 440.05052,98.917568 434.16038,96.939755 428.5,93.53125 423.48708,90.512626 421.85607,89.320052 421.3125,86.90625 z"/>
</svg>
