<svg xmlns="http://www.w3.org/2000/svg"
     width="19.1" height="64.0"
     viewBox="323.5419 12.3778 27.8018 92.9502">
  <path d="M 330.07149,84.836123 C 330.12002,76.401255 329.83722,67.110447 329.44306,64.189882 328.93982,60.461188 329.12563,58.133766 330.06698,56.374846 330.99074,54.64879 331.07643,53.656949 330.34258,53.184964 329.75684,52.808234 328.9942,50.475 328.64783,48 327.76253,41.673959 327.54191,19.124753 328.35735,18.309318 330.28885,16.377814 331.13693,21.115788 331.54167,36.099323 331.94412,50.997628 332.43176,61.524666 333.4363,77 333.99896,85.668002 332.68633,99.278457 331.24163,99.756158 330.26459,100.07922 330.00299,96.743684 330.07149,84.836123 z M 345.40625,75.90625 C 343.6336,73.995444 343.82937,68.819097 343.65625,44.34375 343.57001,32.152051 343.18841,21.844626 342.8125,21.46875 340.80465,19.461071 340.4357,24.470879 340.53125,51.6875 340.63939,82.48697 341.43841,96.041198 343.375,99.5 344.39854,101.32806 344.52608,101.2206 344.8125,98.25 345.03258,95.967434 345.48202,95.179018 347.34375,95.375 L 347,94 346.5625,90.5625 C 345.45391,89.361632 345.03301,87.704777 344.65625,84.75 344.27304,81.744711 344.36798,80.457797 345.28125,80.3125 L 345,78 345.40625,75.90625 z"/>
</svg>
