<svg xmlns="http://www.w3.org/2000/svg"
     width="57.2" height="64.0"
     viewBox="5.6415 9.3301 88.8974 99.4121">
  <path d="M 46.615826,90 C 41.72063,85.487766 40.096097,85.131345 37.5,88 36.504514,89.1 35.139869,90 34.467457,90 33.795045,90 32.665618,90.697979 31.95762,91.551065 31.176859,92.491824 29.466133,92.983669 27.609891,92.801065 25.226857,92.56664 24.04957,91.61461 22.291166,88.5 19.475665,83.512985 19.427086,79.637578 22.08131,71.758636 24.616321,64.233571 27.49084,60 30.065213,60 31.126177,60 33.683035,61.4625 35.747119,63.25 44.609429,70.924773 51.049816,72.106374 55.458904,66.86647 58.628199,63.099977 61.437552,57.73156 64.511955,49.566915 68.484106,39.018133 72.052047,31.917258 73.697569,31.285812 75.744031,30.500511 77.784398,33.278616 79.1574,38.719761 80.508293,44.07329 82.028651,45.430824 84.582045,43.56345 86.055809,42.485643 86.458819,41.074992 86.322186,37.47246 86.175655,33.60898 85.453369,31.967418 82.216816,28.142064 77.231969,22.250364 73.466583,20.700424 71.145332,23.584726 64.460139,31.891501 62.82542,34.637468 55.122233,50.5 52.985498,54.9 50.382369,59.26811 49.337503,60.20691 46.132019,63.087001 42.300437,61.925741 35.422445,55.989592 29.381069,50.775496 29.092558,50.324352 29.673525,47 30.009939,45.075 31.562605,42.031426 33.123894,40.236502 40.372464,31.903236 40.35339,25.721525 33.095664,31.087393 31.538929,32.238338 29.201833,33.023425 27.886157,32.837393 24.480737,32.35588 24.287821,28.674565 27.41998,23.941553 30.525282,19.249126 30.710408,17 27.991341,17 25.496983,17 17.92186,22.384503 16.285435,25.320721 14.045594,29.339642 14.720418,33.936412 18,37 19.743154,38.62835 20.979877,40.786442 20.951968,42.15121 20.888435,45.25806 17.768446,51.381232 16.5,50.888474 15.311584,50.426805 15.408817,49.554994 17.126174,45.27407 18.327631,42.279151 18.231834,41.849488 15.788417,39.27407 9.641546,32.795124 11.893981,23.818289 21.246965,17.519622 26.737474,13.822097 28.879814,13.330127 32.065741,15.035184 34.680354,16.434482 34.507938,17.723031 31,23 26.140088,30.310734 27.656434,32.208731 34.595138,27.5 39.458596,24.199568 40.786564,24.345368 41.52103,28.260406 42.276154,32.285563 41.014767,35.764093 37.213637,40.138909 31.187689,47.074326 31.185684,47.601384 37.164507,53.053196 40.099028,55.729051 43.319749,58.202309 44.321664,58.549326 47.069728,59.501128 49.47052,56.713492 54.610432,46.602714 60.464117,35.087865 69.506423,21.334522 72.155395,19.916835 76.78255,17.440457 83.995951,22.480807 87.650256,30.743839 90.452425,37.080041 90.538946,38.801964 88.291917,43.514033 86.762739,46.720752 86.22346,47.064712 83.143194,46.79796 79.439772,46.477243 79.062327,46.016738 76.468781,38.654785 75.068438,34.679817 74.535356,34.051183 73.500774,35.154785 72.141978,36.60423 67,49.111438 67,50.967091 67,53.515694 59.42492,67.165056 56.364045,70.131773 53.793655,72.623092 52.270699,73.296642 49.447938,73.190524 44.892594,73.019271 37.797427,69.523938 34.505552,65.82937 33.119013,64.273217 31.349745,63 30.573845,63 28.369655,63 25.292437,68.885656 23.866975,75.827925 22.671341,81.65089 22.724555,82.448878 24.533828,85.827925 27.159482,90.731666 29.668878,90.899134 35.365514,86.550793 40.969453,82.27321 42.918776,82.145513 47.215204,85.774541 53.920717,91.438431 53.483896,91.303944 57.883957,89.059201 62.688313,86.608201 63,86.571282 63,88.453206 63,89.879985 55.089856,94 52.350539,94 51.583165,94 49.002544,92.2 46.615826,90 z M 45.694236,101.4684 C 42.66003,98.799026 40.561551,98.455801 36.5651,99.975249 32.963665,101.34451 33.264489,99.431708 36.95034,97.52568 41.056747,95.402174 43.14058,95.60618 47.48953,98.557457 49.562273,99.964059 51.915678,100.8626 52.719319,100.55421 54.9364,99.703439 56.287223,100.94899 54.926114,102.58903 53.139108,104.74224 48.819518,104.2179 45.694236,101.4684 z"/>
</svg>
