<svg xmlns="http://www.w3.org/2000/svg"
     width="49.8" height="64.0"
     viewBox="1303.3479 32.8612 41.6521 53.5699">
  <path d="M 1327,80.506272 C 1327,79.19729 1331.2973,75.563684 1336.4745,72.495113 1338.0663,71.551662 1338.0623,71.044296 1336.4094,64.196164 1334.464,56.136238 1333.5339,54.508265 1330.3319,53.559591 1327.3421,52.673756 1322.3141,57.278367 1318.5,64.395207 1315.1698,70.609169 1312.8616,71.500608 1311.1083,67.25 1307.3479,58.133848 1315.8343,41.566187 1326.1088,37.965165 1329.2587,36.861162 1330.2123,36.941898 1333.6088,38.600176 1336.3275,39.927556 1337.604,41.253285 1337.8453,43 L 1338.1906,45.5 1335.8453,43.364935 C 1332.4687,40.291054 1329.5278,39.685419 1325.2539,41.183856 1319.0112,43.372586 1315.2586,48.948283 1313.9975,57.908818 1313.0542,64.610953 1314.1959,66.455616 1316.5135,61.973988 1317.4395,60.183289 1320.2737,56.756584 1322.8117,54.359086 1327.5695,49.864726 1331.0718,48.897706 1334.9924,50.995913 1337.7838,52.489858 1341,62.133508 1341,69.009714 L 1341,74.944404 1336.0315,77.081801 C 1333.2988,78.25737 1330.5437,79.844879 1329.909,80.609599 1328.3974,82.431026 1327,82.381392 1327,80.506272 z"/>
</svg>
