<svg xmlns="http://www.w3.org/2000/svg"
     width="64.0" height="57.9"
     viewBox="-0.9601 14.7120 105.2662 95.2880">
  <path d="M 4.6138523,53.75 C 5.5297192,51.9625 6.6058248,50.275 7.0051981,50 7.4045714,49.725 8.6612204,47.665333 9.7977514,45.422961 13.019103,39.067246 19.95189,29 21.107388,29 21.680945,29 20.831109,31.3625 19.218864,34.25 7.3528643,55.50178 6.4150851,56.972775 4.7243199,56.986054 3.0459859,56.999235 3.0399298,56.821829 4.6138523,53.75 z M 6.2122625,24.5 C 8.3900312,20.017496 10,18.711992 10,21.428571 10,22.214286 9.2928571,23.564286 8.4285714,24.428571 7.5642857,25.292857 7.1693858,26 7.5510161,26 7.9326465,26 7.6846892,26.675 7,27.5 4.5047499,30.506592 4.079975,28.88889 6.2122625,24.5 z M 5,90.733993 C 5,90.03769 7.7603946,84.75019 11.13421,78.983993 14.508026,73.217797 18.371499,66.5875 19.719705,64.25 21.067911,61.9125 22.823349,60 23.620678,60 25.369866,60 24.999011,60.793015 17.54119,73 14.685012,77.675 11.073291,83.8625 9.5151411,86.75 6.7857716,91.807958 5,93.383657 5,90.733993 z M 59.17834,105.01906 C 57.351427,104.58138 54.971397,103.27305 53.889385,102.11164 51.459504,99.503473 51.402293,99.506681 46.5,102.52609 41.232987,105.77013 37.791742,105.64081 32.5,102 27.709913,98.704334 23.930322,98.174104 21.979944,100.52417 21.284224,101.36246 20.47735,101.81068 20.18689,101.52022 19.369884,100.70322 24.163927,96 25.813715,96 26.619513,96 29.472832,97.35 32.154424,99 38.155958,102.69278 42.225047,102.80904 47.105084,99.427177 50.79176,96.872309 50.840122,96.867075 54.034718,98.677177 62.339733,103.38291 62.230485,103.35166 66.444946,102.22676 70.978909,101.01658 72.069575,101.38994 69.940476,103.42337 67.996431,105.28006 63.222426,105.9879 59.17834,105.01906 z M 51.462408,60.958205 C 44.927089,54.318337 42.960808,53.893145 37.83595,58.011593 34.593445,60.617341 33.604422,60.9915 32.886498,59.884032 32.036857,58.573378 32.722564,45.428783 33.731835,43.679441 33.992213,43.228133 35.912888,43.147385 38,43.5 40.429119,43.910397 42.050759,43.726887 42.506135,42.990073 43.609477,41.204828 37.010218,29.15403 33.217003,26.027342 30.99777,24.198063 30.220613,22.981688 30.973719,22.516243 32.130465,21.801334 35.121642,23.832298 38.093869,27.350718 40.097425,29.722458 42.185084,28.751297 47.333647,23.052453 49.347278,20.823604 51.220966,19 51.497397,19 51.773829,19 52,21.267927 52,24.039838 52,29.387632 49.036167,36.665155 46.45482,37.655711 45.537109,38.00787 45,39.608189 45,41.990357 45,46.20719 43.085113,47.367023 37.851314,46.320263 35.012951,45.75259 35,45.773278 35,50.875 35,53.69375 35.284385,56 35.631966,56 35.979547,56 37.778417,55.063997 39.629454,53.919993 44.10848,51.151802 47.521319,51.997038 52.475292,57.101439 59.475569,64.314281 60.262801,64.172871 66.957544,54.5 71.023003,48.626039 71.471199,46.371339 69.459977,41.911245 67.968795,38.604394 67.877345,37.235915 68.830412,32.490247 70.110039,26.118511 74.649072,19.241694 76.403872,21.016151 77.200602,21.821806 77.001579,22.40569 75.675226,23.153815 74.6716,23.719906 72.954133,26.274098 71.858633,28.829796 69.700867,33.863659 69.961545,38.485485 72.633204,42.56295 73.650412,44.115407 73.832074,45.413295 73.207601,46.666752 72.705272,47.675038 71.455032,50.3 70.42929,52.5 67.312736,59.184348 60.896063,65.8473 57.462408,65.964565 56.891733,65.984054 54.191733,63.731192 51.462408,60.958205 z M 60.197036,93.845143 56.243693,89.690287 53.075021,91.946581 C 49.242516,94.675565 43.100875,95.659538 40.059498,94.031842 37.31599,92.563562 35,87.269458 35,82.466377 35,78.371761 36.63568,74.656804 38.052878,75.53268 38.641327,75.896362 38.579213,76.917731 37.890371,78.204844 36.287855,81.199172 37.459975,87.796267 40.092341,90.598293 43.148936,93.851889 46.752424,93.627723 51.867904,89.865757 55.766294,86.998848 56.344711,86.846524 58.649296,88.079901 60.035011,88.821513 62.061446,90.681923 63.152484,92.214144 65.41618,95.393212 66.885522,95.627679 71.04966,93.47432 75.097575,91.381062 74.845628,93.513807 70.75,96.01096 66.123751,98.831639 64.654836,98.53017 60.197036,93.845143 z M 49.685178,72.307798 44.870356,69.719733 41.988385,71.850466 C 38.26712,74.601716 37.071343,72.837748 40.400709,69.508382 43.525389,66.383702 44.36567,66.387678 50.316031,69.5553 52.956095,70.960714 56.908768,72.182084 59.099748,72.269455 63.516958,72.445601 64.530533,71.544881 72.06253,60.75 75.606897,55.670202 78,53.627524 78,55.68196 78,57.231918 66.814932,73.028678 65.047842,73.974396 61.651203,75.792222 54.781028,75.04692 49.685178,72.307798 z M 47.462402,33.697726 C 49.260211,30.953923 50.598319,25 49.417163,25 48.959102,25 46.899554,26.645135 44.84039,28.655855 41.808905,31.616021 41.284267,32.662641 42.083411,34.155855 43.425247,36.663097 45.643189,36.474195 47.462402,33.697726 z M 75.29682,34.558336 C 75.956963,30.490353 80.517301,22 82.042154,22 83.531583,22 83.172094,24.152357 81.345567,26.170647 80.435629,27.176117 79.154129,30.113717 78.497789,32.698647 77.005707,38.575066 74.39926,40.089352 75.29682,34.558336 z M 98,102.59375 98,97.125 C 95.968843,100.28016 93.840567,103.71 93.15625,105.25 92.972916,105.66258 93.451349,106 94.21875,106 95.117306,106 96.490862,104.6399 98,102.59375 z M 98,67.15625 98,61.75 C 93.733161,69.13059 84,87.661283 84,88.46875 84,88.763262 84.610945,89 85.34375,89 86.076556,89 89.739007,83.0375 93.5,75.75 95.635386,71.612362 96.574648,69.873815 98,67.15625 z M 98,27.1875 98,23.3125 C 96.615749,24.519311 95.072918,26.323581 95.03125,27.1875 95.012952,27.566887 92.748949,31.616887 90,36.1875 87.25105,40.758113 85.00105,45.0625 85,45.75 84.99628,48.18371 86.984852,46.950498 89.03125,43.25 90.171825,41.1875 93.302485,35.675 96,31 96.844362,29.536655 97.379942,28.41931 98,27.1875 z M 98,27.1875 C 99.360863,24.484003 100.3061,22.284402 99.9375,22.15625 99.584488,22.033515 98.816681,22.600505 98,23.3125 L 98,27.1875 z"/>
</svg>
