<svg xmlns="http://www.w3.org/2000/svg"
     width="64.0" height="51.1"
     viewBox="330.0281 13.9037 121.0656 96.6114">
  <path d="M 445.71875,35.96875 C 444.99754,36.244042 444.36955,36.379328 443.875,36.25 442.77278,35.961762 440.77553,36.315157 439.4375,37.03125 438.09947,37.747343 436.69767,38.010173 436.3125,37.625 435.41517,36.727667 437.8129,27.597923 439.0625,27.15625 439.58119,26.972916 440,25.902761 440,24.78125 440,23.006432 439.7995,22.942768 438.375,24.125 436.41739,25.749675 433.36548,32.563762 432.46875,37.34375 431.55609,42.208636 434.04748,43.513184 439.21875,40.875 442.97927,38.956524 443,38.984117 443,40.96875 443,43.647339 438.52515,46.398004 434.40625,46.28125 431.35532,46.194768 430.80445,46.6818 427.90625,51.84375 426.16155,54.951205 422.55175,60.278264 419.875,63.65625 417.19826,67.034235 415.02262,70.634235 415.03125,71.65625 415.05316,74.252035 422.87796,65.433525 428.25,56.78125 431.56211,51.446731 433.05381,49.9387 435.46875,49.46875 440.63672,48.463062 443.25429,46.629955 444.9375,42.875 445.30707,42.050541 446.11984,40.945822 447.09375,39.75 L 445.71875,35.96875 z M 359.1875,18.25 C 357.49264,17.90375 355.9968,18.447897 354.34375,19.78125 349.09909,24.011582 347.86969,31.491133 351.53125,36.71875 353.41079,39.402167 361.23829,40.871741 363.53125,38.96875 365.65438,37.206706 365.95651,37.850417 366.65625,45.34375 367.43314,53.66335 366.00181,54.645421 359.8125,50.09375 357.49408,48.388768 354.84271,47 353.90625,47 351.37518,47 342.53416,57.18007 339.5,63.59375 336.04717,70.892431 334.02813,85.565458 335.90625,89.6875 L 337.1875,92.5 338.96875,90.28125 C 339.95392,89.06462 341.07554,86.36283 341.4375,84.28125 342.33745,79.105885 347.59526,68.761951 351,65.5 355.96622,60.742062 359.38525,63.920569 363.5625,77.25 365.33637,82.910342 365.33963,83.050375 363.34375,85.75 358.26733,92.616344 356.84477,97.977024 359.03125,102.0625 360.73587,105.2476 362.31792,104.30514 365.78125,98 370.42712,89.541993 373.45704,89.828423 376.0625,99 376.76559,101.475 377.77625,104.07544 378.3125,104.78125 379.62986,106.51517 381.26059,105.8254 382.75,102.90625 384.53342,99.410851 384.27225,95.840372 381.90625,90.34375 380.43584,86.927738 380.01587,84.388736 380.4375,81.71875 381.1215,77.387302 386.88478,64 388.0625,64 388.49454,64 391.32663,66.276465 394.375,69.0625 399.41984,73.673198 399.87189,74.413945 399.3125,77.3125 398.7209,80.377972 398.76218,80.42611 400.59375,78.8125 401.98356,77.588077 403.40843,77.344633 405.84375,77.84375 408.49369,78.386852 409.85697,79.634065 412.5625,84 414.43467,87.021127 416.38463,91.643345 416.875,94.28125 417.81746,99.351063 418.54957,100.76292 419.6875,99.625 420.9799,98.332593 417.86889,86.519141 414.8125,81.15625 412.70683,77.461543 412.09074,75.534263 412.8125,74.8125 413.38523,74.239773 413.61795,73.183295 413.34375,72.46875 412.95956,71.467558 412.11025,71.60898 409.59375,73.09375 L 406.3125,75 402.40625,72.125 C 400.25694,70.536921 396.48327,67.165028 394.03125,64.625 391.57924,62.084971 389.10424,59.993191 388.53125,60 385.91923,60.031036 376.98315,79.44346 377.03125,84.96875 377.04333,86.356295 377.94333,89.446188 379.03125,91.84375 381.06579,96.327472 381.72442,102.55838 380.0625,101.53125 379.54857,101.21363 378.40385,98.501656 377.53125,95.5 376.06148,90.444173 373.95794,88 371.03125,88 369.37203,88 365.02149,93.033772 363.46875,96.75 362.18313,99.826919 360,101.21874 360,98.96875 360,96.614024 362.93375,91.296742 365.96875,88.15625 369.77652,84.216127 369.73205,82.063177 365.46875,70.90625 362.76148,63.821392 359.33143,60 355.6875,60 351.19966,60 341.12164,74.110518 339.375,82.84375 338.60464,86.695509 336.99836,88.03201 337,84.8125 337.00238,80.139475 339.75526,68.384593 341.75,64.5 342.8797,62.3 345.66557,58.3625 347.96875,55.75 352.3781,50.748473 355.67084,49.687134 358.03125,52.53125 358.73671,53.38128 359.9298,53.853257 360.6875,53.5625 361.4452,53.271742 362.36719,53.828022 362.71875,54.78125 363.44133,56.740446 364.95392,57.977376 366.65625,58 369.5034,58.03784 370.91681,46.646093 369.0625,38.65625 367.88642,33.588799 367.44317,33.315491 364.0625,35.3125 362.48206,36.246088 360.25622,37 359.125,37 356.12339,37 353,33.133425 353,29.4375 353,26.259685 356.23881,21 358.1875,21 358.75634,21 361.41639,22.749625 364.125,24.90625 368.35481,28.274077 369.44643,28.727294 371.78125,27.96875 390.18355,21.990163 392.8335,21.872737 395.46875,26.96875 397.04795,30.022585 397.57275,36 396.25,36 395.8323,36 394.92615,35.113949 394.25,34.03125 391.26078,29.244743 383.87637,27.848004 379.125,31.1875 377.08034,32.624591 376.57098,34.177409 375.6875,41.875 374.78811,49.711131 374.88983,51.156032 376.34375,53.375 L 378,55.9375 382.59375,53.96875 C 385.11445,52.888253 387.94056,52 388.90625,52 389.97182,52 392.32126,54.539933 394.84375,58.46875 399.5293,65.766589 402.91036,68.498525 406.25,67.65625 409.77951,66.76609 416.48675,59.956971 418.71875,55 419.83318,52.525 421.46722,48.841399 422.375,46.8125 423.72217,43.801529 423.85256,42.273057 423,38.46875 421.70879,32.707116 422.62953,27.27304 425.125,25.9375 427.35846,24.74219 427.64126,22 425.53125,22 422.3034,22 420.52681,27.001289 420.40625,36.4375 420.24675,48.922411 416.45057,57.699467 408.875,63.09375 405.16646,65.734466 403.95959,64.986534 398.125,56.40625 393.00552,48.877608 392.20924,48.564606 382.875,50.46875 379.61837,51.133088 379.22351,50.969151 378.71875,48.84375 378.41065,47.5464 378.44154,43.793637 378.8125,40.5 379.41126,35.183816 379.81241,34.382777 382.375,33.15625 384.88403,31.955355 385.70607,31.968154 388.65625,33.375 392.10538,35.019774 392.37237,35.389035 393.4375,40.25 394.89884,46.919192 400,40.26449 400,31.6875 400,28.751082 399.23698,26.182042 397.6875,23.90625 395.40731,20.557229 395.27429,20.497817 388.4375,20.65625 383.15291,20.778713 380.30924,21.43682 376.5,23.40625 373.75,24.828039 371.12185,25.997698 370.65625,26 370.19065,26.002302 367.74933,24.2 365.25,22 362.7778,19.823883 360.88236,18.59625 359.1875,18.25 z M 432.0625,22.28125 C 428.67066,22.869009 424.05085,34.361794 425.96875,39.40625 427.73142,44.042417 429.30023,41.933856 429.40625,34.78125 429.48651,29.367406 429.90235,27.716097 431.75,25.75 432.99253,24.427813 433.74005,23.083802 433.40625,22.75 432.99431,22.33806 432.54705,22.197284 432.0625,22.28125 z M 407.03125,83.3125 C 405.96482,82.890244 404.8186,83.511654 403.1875,85.03125 400.44705,87.584371 400.404,88.312526 403.0625,87.46875 406.67696,86.321565 408.59937,89.077295 411.59375,99.75 411.78663,100.4375 412.4562,101 413.09375,101 414.85424,101 413.39297,93.676921 410.46875,87.90625 409.09601,85.197278 408.09768,83.734756 407.03125,83.3125 z"/>
</svg>
