<svg xmlns="http://www.w3.org/2000/svg"
     width="41.6" height="64.0"
     viewBox="522.8438 17.5020 62.1562 95.5379">
  <path d="M 529.40625,87.53125 528.875,90.59375 C 529.7698,90.96832 530.69993,91.563831 531.8125,92.5 535.72651,95.793419 539.31762,95.666431 545.03125,92 552.96714,86.907556 553.46434,85.981985 552.3125,78.75 551.08213,71.024908 552.18024,57.46088 554.40625,53.15625 555.90699,50.254133 555.92841,49.55276 554.53125,45.4375 552.58163,39.695046 552.56443,30.33628 554.5,26.625 556.26317,23.244275 556.31632,23 555.03125,23 554.49243,23 553.08803,24.902261 551.90625,27.21875 550.07441,30.809453 549.83149,32.563189 550.28125,39.125 550.5714,43.358257 551.25954,47.636922 551.8125,48.625 552.54995,49.942748 552.26433,51.768307 550.75,55.46875 549.05557,59.609291 548.66766,62.795677 548.59375,73.34375 L 548.5,86.21875 544.5,89.0625 C 539.71701,92.478993 537.37253,92.696717 534.46875,89.96875 533.07949,88.663612 531.24847,87.907268 529.40625,87.53125 z M 527.5,98.5 526.84375,102.34375 C 527.74569,102.75968 528.60858,103.35169 529.34375,104.21875 530.5375,105.62666 532.4,107.28297 533.5,107.875 534.6,108.46703 536.21401,108.95203 537.09375,108.96875 540.83415,109.03986 554.03265,97.892942 559.4375,90.09375 561.69785,86.832063 562.14927,85.104992 562.125,80.03125 562.10888,76.66099 561.83771,73.032782 561.5,71.96875 560.77055,69.670441 563.46215,58.453902 565.5,55.34375 566.28783,54.141378 569.1698,51.926866 571.90625,50.4375 575.16637,48.663123 577.23722,46.767017 577.875,44.9375 578.47808,43.207494 579.45537,42.074622 581,41.1875 L 581,37.125 C 579.73563,37.304584 578.4628,37.485713 577.5,37.625 575.29102,37.944571 572.3564,39.293274 570.9375,40.625 569.52436,41.951315 568.06186,42.718117 567.6875,42.34375 566.22942,40.885669 567.10068,32.857806 569.1875,28.5625 571.35705,24.09691 571.09178,21.501971 568.71875,23.875 568.04042,24.553333 567.47692,25.4275 567.4375,25.8125 567.39809,26.1975 566.58077,29.078052 565.625,32.21875 564.66923,35.359448 564.01731,39.859448 564.1875,42.21875 564.4684,46.112901 564.71692,46.465128 566.90625,46.15625 568.23267,45.969113 569.94338,45.181613 570.71875,44.40625 572.52814,42.59686 574,42.619622 574,44.4375 574,45.221291 572.09747,46.908791 569.78125,48.1875 567.46504,49.466208 564.62226,51.928514 563.4375,53.6875 560.33968,58.286764 558,68.662158 558,77.875 558,84.914988 557.7089,86.187373 555.5,88.8125 554.125,90.446594 553,92.201764 553,92.71875 553,94.228142 543.39156,102.90063 540.5,104 536.64789,105.46457 536.27856,105.34105 532.4375,101.5 530.76645,99.828949 529.16143,98.959334 527.5,98.5 z M 563.46875,22.1875 C 560.32736,23.756845 555.8996,38.434524 557.40625,44.4375 557.7587,45.841779 558.7471,47 559.625,47 560.97357,47 561.13478,46.174069 560.5625,41.59375 559.87046,36.054823 561.67098,27.300663 564.125,24.34375 564.76202,23.576195 565.03554,22.691783 564.71875,22.375 564.34367,21.999923 563.91752,21.963308 563.46875,22.1875 z"/>
</svg>
