<svg xmlns="http://www.w3.org/2000/svg"
     width="38.2" height="64.0"
     viewBox="200.5286 13.7657 57.9537 97.0317">
  <path d="M 251.84375,88.5 C 250.26652,88.662492 248.67563,89.216566 247.1875,90.46875 245.44865,91.931896 243.63414,92.877169 243.125,92.5625 242.61585,92.247832 241.05657,90.08725 239.6875,87.75 237.12657,83.378034 236.61175,79.194514 236.875,65.125 L 237,58.75 241.0625,59.28125 C 246.08459,59.954854 246.5818,58.975379 245.3125,51.09375 244.39922,45.42281 244.45334,45.236472 247.65625,41.53125 252.43905,35.998364 254.48233,29.999111 253.375,24.75 252.88312,22.418274 251.93092,20.5 251.25,20.5 250.56908,20.5 248.5468,22.75 246.75,25.5 242.1475,32.544112 240.06518,32.536979 236.09375,25.5 232.25526,18.698565 230.41973,17.765737 227.59375,21.1875 222.99318,26.757959 222.24281,27.75635 220.4375,30.8125 217.15278,36.373087 214.76801,34.688153 213.09375,25.59375 212.49505,22.341703 211.73072,19.416703 211.40625,19.09375 210.20647,17.899547 207.08,23.223851 205.90625,28.46875 204.52865,34.624496 205.46451,37.994619 209.9375,43.3125 212.08236,45.862494 212.5,47.389347 212.5,52.4375 L 212.5,58.5 217.1875,58.34375 221.875,58.1875 222.5625,63.75 C 223.59063,71.978931 222.43906,90.816681 220.59375,95.875 219.71579,98.281649 219,100.86915 219,101.625 219,104.26916 220.80149,102.96742 222.28125,99.25 225.68402,90.701621 226.54208,83.050926 225.625,69.3125 224.84071,57.563496 223.7441,54.520473 220.71875,55.46875 215.30345,57.166143 214.50157,56.76902 214.65625,52.5 214.88922,46.070355 216.51695,40.48305 218.84375,38.15625 220.03412,36.965872 221,35.368333 221,34.59375 221,33.819168 223.09061,30.618343 225.65625,27.46875 230.98161,20.931315 230.74352,20.831984 235.90625,31 239.2954,37.674942 241.62229,44.855737 242.5,51.34375 L 243.15625,56.1875 240.25,55.5625 C 235.22962,54.459838 234.5,56.475521 234.5,71.90625 L 234.5,85.53125 237.84375,90.78125 C 239.68858,93.659482 241.89298,96 242.71875,96 243.54452,96 245.5534,94.875 247.1875,93.5 249.34247,91.686709 250.55216,91.047789 252.09375,91.40625 L 251.84375,88.5 z M 209.28125,24.59375 211.46875,29.53125 C 212.6742,32.257272 214.36434,35.076218 215.21875,35.78125 216.47579,36.818523 216.57943,37.540399 215.65625,39.53125 214.29654,42.463505 212.87901,42.643624 210.65625,40.1875 207.6615,36.878337 206.70229,32.43399 208.0625,28.3125 L 209.28125,24.59375 z M 250.53125,26.21875 C 251.6952,27.382706 250.09104,33.56143 247.71875,37.0625 244.96461,41.127118 243.03019,41.869429 242.3125,39.125 242.01131,37.973241 241.32359,37.289814 240.78125,37.625 239.1099,38.657953 241.74333,34.7541 245.90625,30 248.07298,27.52558 250.14497,25.832475 250.53125,26.21875 z M 252.6875,98.8125 250.3125,100.4375 C 248.2342,101.84974 246.06158,103 245.5,103 244.93841,103 242.27005,101.425 239.5625,99.5 236.85495,97.575 233.87669,96 232.9375,96 231.17653,96 224,103.22671 224,105 224,106.65603 224.91517,106.16363 228.6875,102.5 230.66961,100.575 232.63985,99 233.03125,99 233.42265,99 236.37472,100.78399 239.59375,102.96875 244.79428,106.49835 245.66304,106.7974 247.46875,105.625 250.34088,103.76019 251.81184,102.84115 253,102.4375 L 252.6875,98.8125 z"/>
</svg>
