<svg xmlns="http://www.w3.org/2000/svg"
     width="29.2" height="64.0"
     viewBox="157.2188 16.7607 40.8973 89.7783">
  <path d="M 166 74.71875 L 166 75 L 164.96875 78.34375 C 165.80193 78.346255 169.94129 80.984227 173.3125 83.71875 C 174.86719 84.979828 176.81531 86 177.625 86 C 179.93828 86 182.95329 78.150113 183 72 C 183.02297 68.975 183.46706 63.49726 184 59.8125 C 184.78154 54.408863 185.42805 45.504519 186.03125 31.5 C 186.05494 30.95 186.70581 31.625 187.46875 33 C 189.8711 37.329622 190.33217 52.196813 188.5625 67.40625 C 186.2827 87.000114 184.95348 92.046515 180.9375 96.0625 C 177.90699 99.09301 175.96592 98.428818 168.6875 91.75 L 162.53125 86.09375 L 161.21875 90.25 C 161.84544 90.457174 164.66265 92.609852 168 95.5 C 175.49122 101.98741 178.61726 102.53899 183 98.15625 C 184.56309 96.593159 186.31135 93.330659 186.90625 90.90625 C 187.50116 88.48184 188.45928 85.063138 189.03125 83.3125 C 189.60322 81.561862 190.98838 74.136862 192.09375 66.8125 C 194.116 53.412778 194.06715 44.232767 191.90625 35.78125 C 190.88568 31.789706 184.89553 20.760725 184.15625 21.5 C 183.90956 21.74669 183.65056 29.043328 183.5625 37.71875 C 183.31085 62.508879 180.39477 83 177.125 83 C 176.58622 83 175.37458 82.218327 174.4375 81.28125 C 173.50042 80.344172 171.11738 78.422067 169.15625 77 L 166 74.71875 z "/>
</svg>
