<svg xmlns="http://www.w3.org/2000/svg"
     width="22.6" height="64.0"
     viewBox="293.5938 23.7252 29.4062 83.4343">
  <path d="M 299.6875 37.84375 C 302.0677 35.035173 306.94975 31.775388 308.59375 32.40625 C 309.30063 32.677502 310.2064 34.591479 310.59375 36.65625 C 311.24221 40.112807 311.0161 40.658133 307.65625 43.5625 C 304.22564 46.528027 302.94106 49 304.84375 49 C 305.30851 49 306.50451 48.1 307.5 47 C 308.49549 45.9 309.73689 45 310.25 45 C 312.0046 45 309.82432 53.485324 307.40625 56.0625 C 304.51198 59.147224 304.30326 60.441049 306.9375 59.03125 C 309.82725 57.4847 310 57.658827 310 62 C 310 64.2 310.45 66 311 66 C 311.55 66 312 66.480041 312 67.0625 C 312 67.644959 311.55 67.839919 311 67.5 C 310.45 67.160081 309.99505 67.467541 310 68.1875 C 310.00496 68.907459 308.53894 70.717316 306.75 72.1875 C 304.96106 73.657683 303.8631 75.1756 304.28125 75.59375 C 304.6994 76.0119 305.56791 75.838334 306.21875 75.1875 C 308.46296 72.943289 309.26462 73.996794 308.75 78.5625 C 308.40221 81.648065 307.38778 84.035053 305.625 85.875 C 302.3138 89.331147 302.24457 90.726792 305.5 88.59375 C 307.97877 86.969596 308 86.967732 308 90 C 308 93.141451 305.80801 97.531449 303.125 99.75 C 301.94185 100.72832 301.8718 101.27805 302.8125 102.21875 C 303.7532 103.15945 304.35501 102.9427 305.5625 101.21875 C 307.37701 98.628177 309.2456 98.379666 311.03125 100.53125 C 313.17154 103.11014 314.59178 100.54774 312.65625 97.59375 C 311.73694 96.190698 311 93.060139 311 90.53125 C 311 86.088901 312.23335 84.524909 313.375 87.5 C 314.19704 89.642201 316 89.365749 316 87.09375 C 316 86.039623 314.86839 84.352123 313.5 83.34375 C 311.35102 81.760147 311.11157 80.989275 311.65625 77.6875 C 312.21846 74.279477 312.55454 73.910006 314.65625 74.4375 C 317.53782 75.160729 317.74901 73.498035 315 71.78125 C 313.37997 70.769527 313 69.42993 313 64.8125 C 313 61.481494 313.49156 58.805116 314.1875 58.375 C 314.84254 57.970163 315.56545 58.165122 315.78125 58.8125 C 316.31074 60.400975 319 60.323683 319 58.71875 C 319 58.016227 317.72832 56.316963 316.15625 54.9375 C 313.82596 52.892703 313.36177 51.832684 313.75 49.1875 C 314.13629 46.555544 314.59824 46.046678 316.125 46.53125 C 318.62544 47.324861 318.55408 45.218697 316 42.5 C 314.90306 41.332363 313.61782 38.231674 313.125 35.59375 C 312.63219 32.955826 311.50322 30.065717 310.625 29.1875 C 309.16266 27.725156 308.62842 27.880493 304.46875 30.8125 C 301.97064 32.573329 299.04369 34 297.9375 34 C 297.85418 34 297.68879 34.08317 297.59375 34.09375 L 299.6875 37.84375 z "/>
</svg>
