<svg xmlns="http://www.w3.org/2000/svg"
     width="64.0" height="51.8"
     viewBox="825.6826 13.8576 116.3174 94.0629">
  <path d="M 833.16319,95.458813 C 830.69722,90.046607 829.68265,79.499058 830.864,71.556249 832.02113,63.776266 836.34275,53.541614 840.28289,49.25 842.93545,46.360828 848.11544,46.290192 852.63204,49.081603 856.63332,51.554531 857.30466,50.71682 856.81309,43.864404 856.55721,40.297566 856.13451,39.48829 854.5,39.43592 848.49112,39.243394 844.95824,37.819931 843.50249,35.004814 842.67612,33.406792 842.03289,31.064473 842.07309,29.79966 842.17782,26.504501 845.21542,21.747426 848.33061,20 850.79231,18.619141 851.30238,18.6746 854.75235,20.698233 865.42497,26.958402 864.21347,26.815961 872.30327,22.761758 876.29119,20.763217 881.8407,18.824709 884.63552,18.453962 889.13086,17.857634 889.96487,18.045915 891.8657,20.08622 895.70684,24.209204 896.55837,31.440475 894.00459,38.25 892.17679,43.123723 890.4184,43.017973 889.61374,37.985933 888.27899,29.638867 882.82743,28.075587 874.69858,33.708885 L 870.84746,36.377709 871.53618,42.438855 C 871.91497,45.772485 872.33876,48.626964 872.47792,48.782142 872.61709,48.937319 874.83526,48.501465 877.4072,47.813577 883.13356,46.28201 884.37647,46.919192 888.66168,53.583209 893.41735,60.978842 895.99886,64 897.5626,64 899.30305,64 904.77496,58.233537 909.65658,51.254983 912.91868,46.59164 913.19662,45.726945 912.16279,43.45793 909.8288,38.335387 911.33281,28.164829 915.23644,22.672955 916.5981,20.757286 917.57367,20.173674 918.26262,20.862619 918.95156,21.551563 918.44788,22.867443 916.70022,24.944417 913.40659,28.858675 912.29138,35.766562 914.05177,41.349527 914.77155,43.632287 915.24003,46.147905 915.09282,46.939788 914.94561,47.731672 911.44129,52.794172 907.30545,58.189788 899.00108,69.023675 897.34064,69.840398 892.27866,65.581026 890.69753,64.25059 888.21009,60.724018 886.75101,57.744199 883.11132,50.310977 881.70544,49.259221 877.66983,50.950431 875.92642,51.681044 873.15,52.328584 871.5,52.389409 L 868.5,52.5 868.20799,44.15308 C 868.02847,39.021452 868.34869,35.284781 869.03929,34.452655 871.01387,32.073439 880.87871,27 883.53031,27 886.0636,27 891,30.935103 891,32.954545 891,33.529545 891.45,34 892,34 893.87214,34 893.08315,26.375423 890.92742,23.634859 887.98808,19.898093 883.98344,20.225762 874.24321,25 869.75485,27.2 865.30942,29 864.36446,29 863.41951,29 860.29514,27.380646 857.42141,25.401436 851.2914,21.179532 848.55018,21.43898 846.46113,26.438796 843.90949,32.545722 847.53484,36.824003 854.32734,35.721732 859.01186,34.961539 860,36.329524 860,43.575 860,55.522409 857.90802,58.870812 853.49219,53.991365 852.4924,52.886615 849.96194,51.469664 847.86893,50.842584 842.89351,49.351911 841.62044,50.419581 837.32975,59.681365 833.33616,68.301851 832.12817,79.596732 834.40803,87 835.78787,91.480724 836.44714,91.253918 837.31478,86 837.54185,84.625 837.78892,86.050696 837.86382,89.168213 837.93872,92.285729 837.72686,95.548229 837.39301,96.418213 836.48486,98.784824 834.47044,98.327919 833.16319,95.458813 z M 838.16514,76 C 838.02155,71.196424 839.07485,68.52235 840.87194,69.128115 841.63275,69.384569 841.53457,70.348351 840.55564,72.233142 839.77489,73.73637 838.9479,76.21137 838.71788,77.733142 838.44299,79.551769 838.25356,78.957803 838.16514,76 z M 851.16028,101.69312 C 850.45607,100.8446 849.71459,98.344363 849.51254,96.137031 849.22082,92.950001 849.77867,91.167312 852.22201,87.478546 855.17412,83.021663 855.25007,82.644248 854.09593,78.166696 853.43434,75.600013 852.64456,72.375 852.34088,71 851.57003,67.509805 848.74167,61 847.99611,61 847.03753,61 843.25927,64.732778 842.73894,66.193895 842.48312,66.912253 841.92445,67.174748 841.49746,66.777218 840.38964,65.745844 845.57944,59.268256 848.17313,58.445049 849.69064,57.963412 850.74629,58.30013 851.66719,59.559536 852.72357,61.004213 856.87212,73.322913 859.62666,83.194363 859.92521,84.264288 859.1095,85.53737 857.4133,86.648767 854.59067,88.498225 851.51776,94.410704 852.52888,96.046723 853.38688,97.434996 856.73457,95.411666 857.48343,93.052214 858.56262,89.651994 861.60171,89.629886 866.48076,92.98676 871.76513,96.622505 872.24607,95.629107 868.77577,88.246352 866.20898,82.785746 866.31044,80.890312 869.64544,72 872.53121,64.30721 876.47907,58 878.40843,58 880.03756,58 883.63198,61.347587 890.5,69.261224 896.10515,75.719729 897.91937,76.67521 901.01205,74.797536 903.10308,73.528 919.86723,53.190517 923.30728,47.75 924.73212,45.496583 925.76991,45 929.05444,45 931.68806,45 933.25942,44.487526 933.63617,43.505744 933.95154,42.683903 934.65731,42.288207 935.20455,42.626421 935.75179,42.964634 935.66481,42.242204 935.01125,41.021021 934.06446,39.251936 933.28206,38.937182 931.16148,39.472297 925.44821,40.914004 923.51656,40.616659 923.17961,38.243621 922.83253,35.79926 927.10761,25.643563 929.68036,22.800706 932.43326,19.758787 932.94161,21.849289 930.52194,26.261528 929.24353,28.592687 927.88615,31.990763 927.50553,33.812807 L 926.8135,37.125614 930.30145,36.47127 C 934.45181,35.692659 938,37.299873 938,39.958458 938,40.996909 936.835,43.231076 935.41111,44.923275 933.44522,47.259596 931.99539,48 929.38636,48 926.56449,48 925.76504,48.487792 924.91269,50.729648 924.34189,52.230954 923.53787,53.693454 923.12598,53.979648 921.89319,54.836218 906,74.756376 906,75.444953 906,75.794771 906.9315,77.340902 908.06999,78.8808 910.1184,81.651423 915.40327,97.930064 914.53593,98.797407 913.12374,100.20959 910.98024,97.399371 909.59221,92.315974 908.71877,89.117188 907.21439,84.925 906.24915,83 904.76799,80.046085 903.94782,79.483659 900.99245,79.395264 899.0665,79.337659 896.52554,78.984188 895.34586,78.609773 893.74123,78.100482 892.68871,78.580282 891.1671,80.514692 890.04846,81.936814 888.96418,83.607457 888.75759,84.227235 888.551,84.847012 887.83476,85.015909 887.16595,84.602563 886.29426,84.063831 886.83968,82.727625 889.09211,79.883698 892.19377,75.967532 892.21022,75.887897 890.36715,73.708186 889.34022,72.493684 888.26337,71.275 887.97416,71 887.68495,70.725 885.95964,68.5875 884.14013,66.25 882.32063,63.9125 880.2004,62 879.42852,62 877.27096,62 873.3925,68.919317 871.57629,76.008655 870.67679,79.519773 869.76658,82.566755 869.55361,82.779726 869.34064,82.992697 870.25395,85.332235 871.58319,87.9787 874.1875,93.163757 874.56128,96.393521 873.02475,100.4349 871.6995,103.92057 870.74041,103.67592 867.52152,99.031053 863.32359,92.973441 861.42381,92.880959 856.55172,98.497037 852.96684,102.62933 852.27677,103.03841 851.16028,101.69312 z M 901.6623,94.081414 C 899.57472,89.726191 897.22492,85.91655 896.44051,85.615545 895.6561,85.31454 894.11109,86.037756 893.00716,87.222693 891.49647,88.844222 891,89.002572 891,87.862875 891,85.877745 895.16812,82 897.30191,82 898.81147,82 904,88.792473 904,90.768686 904,91.213323 904.87111,93.285747 905.9358,95.374074 907.70047,98.835368 907.78938,102 906.12196,102 905.75673,102 903.74988,98.436636 901.6623,94.081414 z M 918.68333,41.35 C 918.3075,40.974167 918,38.477213 918,35.801215 918,30.873629 919.53418,26.141149 922.3115,22.501572 924.77975,19.267014 925.2808,21.439223 923.00222,25.496054 921.47387,28.217147 920.96573,30.693305 921.12546,34.641468 921.33223,39.752347 920.19891,42.86558 918.68333,41.35 z"/>
</svg>
