<svg xmlns="http://www.w3.org/2000/svg"
     width="27.2" height="64.0"
     viewBox="691.0000 18.0000 36.9079 86.7841">
  <path d="M 695 28.21875 L 695 34.40625 C 696.13718 31.677989 697.72182 30.365564 702.21875 27.96875 C 707.52078 25.142825 708.77547 25.442723 709.90625 29.75 C 712.91501 41.210663 712.17573 50.723994 707.96875 54.53125 C 706.88946 55.507999 706 56.691493 706 57.15625 C 706 58.481603 707.69714 58.146612 709.34375 56.5 C 711.60953 54.234225 712 54.631491 712 59.21875 C 712 62.698542 711.37562 64.052838 708.40625 67.09375 C 704.56159 71.031041 705.15727 73.328918 709.125 69.875 L 711.5 67.8125 L 711.8125 72.875 C 712.08839 77.510513 711.83602 78.173487 708.8125 80.875 C 705.07082 84.218188 705.48164 86.04025 709.40625 83.46875 C 711.42968 82.142944 712.00437 82.057253 712 83.125 C 711.98676 86.365621 709.57761 92.694846 707.375 95.3125 C 706.06236 96.872487 705 98.554699 705 99.0625 C 705 100.78414 707.92353 100.0114 709 98 C 710.37242 95.435614 711.80766 95.48014 714.65625 98.15625 C 716.69927 100.07557 717.02504 100.10704 717.59375 98.625 C 717.97356 97.635237 717.25772 95.681703 715.84375 93.75 C 713.74694 90.885445 713.58952 90.003757 714.4375 86.21875 C 715.17485 82.927525 715.74466 82.098412 716.9375 82.59375 C 722.80465 85.03012 723.90785 83.069778 718.96875 79 C 715.42011 76.075949 713.54572 69 716.3125 69 C 717.177 69 718.16008 69.45 718.5 70 C 719.53246 71.670556 722 71.120693 722 69.21875 C 722 68.237334 720.70088 66.680895 719.125 65.75 C 716.90158 64.436593 716.13026 63.082296 715.6875 59.78125 C 715.01386 54.758896 715.49371 53.933671 717.5 56.5625 C 718.7738 58.231548 719.09942 58.299208 719.96875 57 C 721.43004 54.816127 721.30246 54.417544 718 50.65625 C 715.55326 47.869567 715.01274 46.345231 715 42.375 C 714.96917 32.767811 711.12522 22 707.75 22 C 707.24029 22 704.06239 23.615782 700.6875 25.59375 C 697.89798 27.228643 696.01288 28.085683 695 28.21875 z "/>
</svg>
