<svg xmlns="http://www.w3.org/2000/svg"
     width="35.1" height="64.0"
     viewBox="559.9688 42.1250 35.0312 63.7951">
  <path d="M 578.53125,46.125 572.59375,47.71875 C 573.99002,47.955994 574.76137,48.80729 575.9375,51 579.96612,58.510688 581.42324,62.770616 582.4375,69.90625 583.72286,78.949216 586.00836,80.837312 586,72.84375 585.99305,66.193438 584.72207,61.291636 580.875,53.0625 579.04862,49.155754 578.41996,47.601288 578.53125,46.125 z M 591,88.21875 C 589.96659,89.966682 589.12247,91.600343 587.8125,93.34375 584.01817,98.393533 583.36541,100.05291 584.65625,101.34375 585.23255,101.92005 588.1878,98.06847 591,93.71875 L 591,88.21875 z M 563.96875,50.3125 C 565.08105,50.27338 565.99631,50.812883 565.84375,51.96875 565.73231,52.813111 566.16869,55.3 566.8125,57.5 567.45632,59.7 567.99694,65.485417 568,70.34375 568.00418,76.96197 568.31346,79.059224 569.25,78.75 571.00168,78.171636 572.03563,64.583731 570.75,59 570.18014,56.525 569.06648,53.219861 568.28125,51.65625 567.66396,50.427048 567.40888,49.671952 567.40625,49.09375 L 564,50 563.96875,50.3125 z M 576.71875,81.21875 C 576.45443,81.226113 575.94272,81.64685 575,82.5 573.9,83.495486 573,84.684666 573,85.125 573,85.565334 571.2,88.484397 569,91.625 566.8,94.765604 565,97.92243 565,98.65625 565,100.5092 566.42449,100.33184 568.15625,98.25 571.08285,94.731779 577,84.143556 577,82.4375 577,81.610613 576.98307,81.211387 576.71875,81.21875 z"/>
</svg>
