<svg xmlns="http://www.w3.org/2000/svg"
     width="44.7" height="64.0"
     viewBox="1541.0000 9.3447 66.8577 95.7966">
  <path d="M 1545,78.4375 1545,84.28125 C 1545.3312,83.701928 1545.7893,83.074859 1546.0625,82.53125 1547.8642,78.945885 1550.1499,75.254514 1551.1562,74.34375 1552.1627,73.432987 1553,71.858507 1553,70.84375 1553,69.828994 1553.3924,69 1553.875,69 1554.3576,69 1556.0451,66.42763 1557.625,63.28125 1559.2049,60.134869 1561.0625,56.961655 1561.75,56.21875 1562.4375,55.475845 1563,54.028255 1563,53 1563,51.971745 1563.4589,50.822442 1564.0312,50.46875 1565.6281,49.481871 1569.0223,43.774187 1576.8438,28.875 1584.3318,14.611079 1584.5756,14 1583.0312,14 1581.7583,14 1574,27.158019 1574,29.3125 1574,30.243008 1573.6279,31 1573.1875,31 1572.1072,31 1568,39.588985 1568,41.84375 1568,42.833164 1566.8201,44.729127 1565.375,46.0625 1563.9299,47.395873 1562.2292,49.625 1561.5938,51 1560.0611,54.316391 1555.4771,61.841271 1550.2812,69.5625 1547.9595,73.012625 1545.9345,76.404715 1545.7812,77.09375 1545.7079,77.423471 1545.275,77.947617 1545,78.4375 z M 1602.6562,13.375 C 1601.6695,13.465782 1600.0628,16.063744 1595.7188,23.75 1592.6851,29.117924 1588.3608,36.65 1586.125,40.5 1583.8891,44.35 1580.8104,49.680007 1579.2812,52.34375 1577.7519,55.007493 1574.3735,60.632493 1571.7812,64.84375 1569.1891,69.055007 1565.6685,75.2 1563.9375,78.5 1562.2066,81.8 1559.764,85.85 1558.5312,87.5 1555.8599,91.075234 1553,96.471816 1553,97.9375 1553,99.847639 1554.8401,99.041036 1556.8125,96.25 1558.5867,93.739498 1567.0739,78.848677 1570.9688,71.4375 1571.8514,69.757983 1573.5086,67.057983 1574.625,65.4375 1575.7414,63.817018 1577.9041,60.025 1579.4375,57 1580.9708,53.975 1583.4229,49.922901 1584.875,48 1589.4717,41.912752 1591.4603,38.626862 1593.4375,34 1594.4951,31.525 1595.9657,28.774558 1596.6875,27.90625 1597.4093,27.037943 1598,25.958541 1598,25.5 1598,25.041458 1599.399,22.515904 1601.0938,19.875 1602.7885,17.234095 1603.8577,14.609969 1603.5,14.03125 1603.235,13.602508 1602.9852,13.344739 1602.6562,13.375 z M 1597.4062,55 C 1597.0652,54.884039 1596.4313,55.332327 1595.4688,56.5625 1594.0763,58.342022 1593.2304,59.884318 1588.625,68.65625 1587.7169,70.385877 1586.2822,72.356032 1585.4688,73.03125 1584.6551,73.706468 1584,74.867344 1584,75.625 1584,76.382655 1583.6363,77 1583.1875,77 1582.7388,77 1581.3148,78.9125 1580.0312,81.25 1578.7476,83.5875 1575.7365,88.476034 1573.3438,92.125 1570.951,95.773966 1569,99.036466 1569,99.375 1569,101.14132 1571.0375,99.533556 1573.5,95.8125 1575.0275,93.504235 1576.6866,91.141735 1577.1875,90.5625 1577.6883,89.983265 1580.4711,85.829775 1583.375,81.34375 1586.2789,76.857726 1589.428,72.447011 1590.3438,71.53125 1591.2595,70.615489 1592,69.40706 1592,68.84375 1592,68.280439 1592.8085,66.616154 1593.8125,65.15625 1596.8354,60.760554 1598.4293,55.347882 1597.4062,55 z M 1563.5938,14.125 C 1562.6305,14.71749 1560.4101,17.720491 1557.5938,22.75 1554.901,27.558871 1551.6377,32.959263 1550.3125,34.75 1548.9874,36.540737 1548.169,38.4645 1548.5,39 1549.5406,40.683767 1552.5666,37.95569 1555.0938,33.09375 1556.4093,30.562611 1557.8949,27.933712 1558.375,27.25 1558.8552,26.566289 1560.5,23.303789 1562.0625,20 1564.2615,15.35024 1564.557,13.53251 1563.5938,14.125 z M 1595.3125,90.40625 C 1593.9828,90.669501 1592,92.534675 1592,94.03125 1592,96.729869 1594.8574,96.525021 1595.9062,93.75 1596.374,92.5125 1596.5563,91.163987 1596.3125,90.75 1596.1096,90.405488 1595.7557,90.3185 1595.3125,90.40625 z"/>
</svg>
