<svg xmlns="http://www.w3.org/2000/svg"
     width="35.6" height="64.0"
     viewBox="1505.0000 24.4074 44.0000 79.0051">
  <path d="M 1509,31.71875 1509,34.75 C 1517.2603,31.473043 1522.4793,31.09189 1527.5938,33.59375 1532.3963,35.943135 1533.9809,38.944804 1534,45.78125 1534.0081,48.686415 1534.6405,52.623915 1535.4375,54.53125 1536.9588,58.17235 1539.3523,59.102565 1540.375,56.4375 1540.7069,55.572657 1540.4982,53.914379 1539.875,52.75 1539.2519,51.58562 1538.3874,47.501898 1537.9688,43.6875 1537.0018,34.878781 1534.9619,32.004103 1528.4375,30.3125 1521.0896,28.407408 1515.3784,28.889242 1509,31.71875 z M 1509,41 1509,44.03125 C 1511.2364,42.917301 1513.4164,42.014218 1515.375,41.5625 1521.2511,40.207228 1524.3483,47.450026 1519.75,51.78125 1516.5396,54.805128 1513.6373,60.608635 1514.375,62.53125 1515.3317,65.024267 1517.3669,63.741492 1518.0938,60.1875 1518.4501,58.444511 1519.2596,56.397745 1519.875,55.65625 1520.4904,54.914755 1520.6578,53.950074 1520.25,53.5 1519.8423,53.049927 1520.0513,52.99176 1520.7188,53.375 1521.3861,53.75824 1522.8159,53.18406 1523.9062,52.09375 1528.0253,47.974849 1523.5112,38 1517.5312,38 1515.6422,38 1512.4981,39.178455 1509,41 z M 1534.625,65.15625 C 1533.53,65.694783 1531.9392,67.647644 1531.4375,69.34375 1530.8279,71.404779 1528.9174,74.633246 1523.0312,83.5 1521.5709,85.7 1519.1553,89.6375 1517.6562,92.25 1515.8661,95.370025 1515.37,96.985465 1516.2188,96.96875 1519.0967,96.912071 1537.27,66.926312 1535.5,65.15625 1535.3059,64.962173 1534.99,64.976739 1534.625,65.15625 z M 1545,78.4375 C 1544.7003,78.97135 1544.5411,79.452133 1544.1562,79.90625 1541.2697,83.311566 1534.0003,95.581113 1534.0312,97 1534.0845,99.412503 1541.1766,90.969188 1545,84.28125 L 1545,78.4375 z"/>
</svg>
