<svg xmlns="http://www.w3.org/2000/svg"
     width="64.0" height="56.5"
     viewBox="1300.0082 16.8710 98.9918 87.4299">
  <path d="M 1304.0181,97.25 C 1304.0281,96.8375 1305.4414,94.025 1307.1588,91 1308.8762,87.975 1311.6018,83.1375 1313.2158,80.25 1314.8297,77.3625 1316.7685,75 1317.5241,75 1319.2331,75 1317.4972,79.536689 1312.9777,86.881748 1311.34,89.543445 1309.985,92.121428 1309.9667,92.610599 1309.9146,94.005358 1306.2997,98 1305.0897,98 1304.4904,98 1304.0082,97.6625 1304.0181,97.25 z M 1395,48.9375 C 1393.8359,50.568227 1393.5008,51.126567 1392.0625,53.125 1389.8319,56.224378 1388,59.261878 1388,59.875 1388,61.986617 1389.7634,60.988463 1392.625,57.25 1393.1154,56.609404 1394.2863,54.745661 1395,53.71875 L 1395,48.9375 z M 1395,88.5625 C 1392.9342,92.158284 1390,97.16595 1390,97.375 1390,97.724962 1390.5573,98 1391.25,98 1392.1392,98 1393.3073,96.491917 1395,93.71875 L 1395,88.5625 z M 1349.625,21.25 C 1346.8279,21.629039 1343.8186,22.764484 1341.4062,24.53125 1333.8522,30.063505 1331.1576,33.138755 1330.5,37.03125 1329.3612,43.771958 1333.4765,49 1339.9375,49 1343.2965,49 1343.264,48.92786 1343.4062,57.34375 L 1343.5,63.15625 1340,62.625 C 1335.5972,61.926398 1332,62.823014 1332,64.625 1332,65.93936 1333.7717,66.206693 1343.6875,66.4375 1346.3044,66.498414 1346.3855,66.335026 1346.6562,60 1346.8091,56.425 1346.698,51.871579 1346.4062,49.875 1345.8991,46.404056 1345.6698,46.223733 1341.1562,45.625 1337.3474,45.119748 1336.1,44.431993 1334.7188,42.09375 1333.7772,40.499875 1333,38.297217 1333,37.21875 1333,32.68291 1343.4713,24 1348.9375,24 L 1352.0312,24 1349.3125,28.09375 C 1346.377,32.529526 1345.7993,38.598529 1348.1562,40.15625 1349.5989,41.109657 1355.8499,40.330144 1357.5,39 1358.05,38.556641 1360.1875,37.510608 1362.25,36.65625 1364.9689,35.529983 1366,35.44287 1366,36.3125 1366,37.578273 1360.1163,44.014384 1355.6875,47.625 1353.2176,49.638527 1353.0871,50.23319 1353.3438,57.40625 1353.7112,67.674279 1354.4701,68.234275 1362.375,64.21875 1365.8586,62.449144 1369.369,61 1370.1875,61 1371.0059,61 1373.4141,62.867989 1375.5312,65.15625 1379.3315,69.263682 1379.4026,69.280431 1380.4062,67.03125 1381.2849,65.062175 1380.9087,64.298282 1377.7188,61.375 1373.4227,57.437934 1371.0639,57.209951 1363.9062,60.03125 1361.0644,61.15141 1358.6271,61.93891 1358.5,61.78125 1358.3729,61.62359 1358.005,58.974229 1357.6562,55.875 1357.0349,50.354292 1357.0705,50.176713 1360.375,47.65625 1367.2244,42.431891 1372.9928,30 1368.5625,30 1367.77,30 1366.8393,30.451069 1366.5,31 1365.7947,32.14114 1356.2589,36.739066 1354,37.03125 1350.731,37.454083 1350,36.910053 1350,33.9375 1350,30.8954 1353.6534,26.067459 1357,24.71875 1358.2377,24.219957 1358.1609,23.832457 1356.5,22.46875 1354.9948,21.232857 1352.4221,20.870961 1349.625,21.25 z M 1390.7812,36.34375 C 1389.7936,36.32454 1385.7337,40.618026 1384.25,43.5 1383.4005,45.15 1382.4247,46.725 1382.0625,47 1380.7363,48.006718 1377,53.842298 1377,54.90625 1377,57.295516 1379.8708,55.794891 1381.375,52.625 1382.2525,50.775769 1383.6336,48.693113 1384.4688,48 1385.304,47.306887 1386,46.213302 1386,45.5625 1386,44.911698 1387.125,42.863708 1388.5,41 1389.875,39.136292 1391,37.164019 1391,36.625 1391,36.429473 1390.9223,36.346494 1390.7812,36.34375 z M 1368.1562,71.1875 C 1367.5892,71.121441 1367.0244,71.173759 1366.5,71.375 1364.8119,72.022786 1364.8243,72.141826 1366.5625,74.0625 1368.5577,76.267219 1371.5,76.28338 1371.5,74.09375 1371.5,72.629921 1369.8575,71.385677 1368.1562,71.1875 z M 1337.7188,75.1875 C 1337.4928,75.233764 1336.8652,75.94891 1335.6562,77.375 1334.3191,78.952441 1332.2394,82.102441 1331.0312,84.375 1329.8231,86.647559 1327.7604,90.3 1326.4375,92.5 1325.1146,94.7 1324.0403,97.0625 1324.0312,97.75 1323.9977,100.30089 1325.91,98.853837 1328.7812,94.1875 1330.4072,91.544842 1332.0765,88.302955 1332.5,86.96875 1332.9234,85.634546 1334.0863,83.416888 1335.0625,82.03125 1336.0388,80.645613 1337.12,78.375 1337.4688,77 1337.784,75.756928 1337.9447,75.141236 1337.7188,75.1875 z M 1357.4062,77.40625 C 1356.9573,77.605008 1356.2359,78.220782 1355.2812,79.28125 1353.339,81.438873 1345,96.118639 1345,97.375 1345,97.719791 1345.366,98 1345.8125,98 1346.9673,98 1350.0469,93.639874 1354.7812,85.28125 1357.8341,79.89132 1358.7531,76.809977 1357.4062,77.40625 z M 1378.7812,81 C 1377.3338,81 1368.1651,94.856675 1368.0312,97.25 1367.9107,99.408123 1370.0462,97.332542 1373.6875,91.75 1379.4758,82.876142 1380.375,81 1378.7812,81 z"/>
</svg>
