<svg xmlns="http://www.w3.org/2000/svg"
     width="35.0" height="64.0"
     viewBox="1258.9188 18.0000 46.4971 85.0000">
  <path d="M 1263.125,97.253877 C 1264.5898,93.362923 1279.7684,70.004702 1280.8333,70.002614 1282.369,69.999603 1282.4322,69.814444 1278.4943,76.849108 1273.4223,85.909832 1265.5721,97.366323 1264.125,97.819443 1263.3688,98.056249 1262.9188,97.801744 1263.125,97.253877 z M 1279.5446,59.109077 C 1279.803,55.998481 1279.5271,53.825751 1278.8179,53.387429 1277.6987,52.695741 1273.2995,56.870402 1271.1716,60.643391 1270.4748,61.878903 1269.7921,62.165467 1269.1306,61.5 1268.4709,60.836273 1269.1167,59.154908 1271.051,56.5 1275.8385,49.92884 1275.8556,50.068323 1269.5619,44.348753 1264.7129,39.942144 1263.8631,38.681726 1264.3724,36.652392 1264.9054,34.528788 1278.3134,22 1280.0531,22 1280.4132,22 1281.8717,23.078505 1283.294,24.396679 1284.7163,25.714852 1286.2446,26.952352 1286.69,27.146679 1287.1355,27.341005 1288.5125,28.944278 1289.75,30.709507 1293.0194,35.373092 1292.7561,40.690977 1289.0406,45.037774 1285.5087,49.16989 1285.3755,50.124871 1288,52.5 1289.787,54.117213 1290.8653,59 1289.4354,59 1289.1249,59 1287.7121,57.622849 1286.2958,55.939663 1283.2367,52.304213 1282.2345,52.971062 1281.8131,58.922279 1281.6409,61.354533 1280.9663,63.519945 1280.3139,63.734306 1279.4697,64.011703 1279.248,62.678424 1279.5446,59.109077 z M 1279,35.943296 C 1279,24.664088 1279.3885,24.900854 1271.8232,31.569903 1266.1627,36.559709 1266.1544,36.907942 1271.5818,41.656134 1274.2868,44.022636 1277.0625,45.968121 1277.75,45.979433 1278.6685,45.994546 1279,43.332962 1279,35.943296 z M 1286.75,43.672461 C 1289.8994,39.058674 1289.5965,36.042014 1285.539,31.612299 1280.6225,26.244763 1279.5927,27.437517 1280.3143,37.663397 1280.6394,42.269302 1281.166,46.459618 1281.4847,46.975211 1282.3964,48.450367 1284.3064,47.252257 1286.75,43.672461 z M 1283,98.536646 C 1283,97.619727 1297.1917,73.459929 1298.7383,71.743869 1299.6088,70.777997 1300.5362,70.202872 1300.7991,70.465813 1301.4159,71.082542 1294.2727,84.87916 1291.9797,87.5 1291.0173,88.6 1289.9346,90.475392 1289.5737,91.667538 1288.7619,94.349302 1285.1807,99 1283.9274,99 1283.4173,99 1283,98.791491 1283,98.536646 z"/>
</svg>
