<svg xmlns="http://www.w3.org/2000/svg"
     width="64.0" height="61.4"
     viewBox="363.6711 12.6376 97.2193 93.2821">
  <path d="M 390.5567,90.777494 C 388.44039,87.756032 388.51217,87.417889 392.42631,81.969693 399.64795,71.917684 401.17617,59 395.14372,59 392.93484,59 384,67.405226 384,69.483175 384,71.90436 380.30719,71.282691 379.64483,68.75 378.08654,62.791533 382.09707,53.206105 387.96286,48.869336 389.92474,47.418858 390.88538,45.885766 390.76253,44.40134 390.65966,43.158429 390.148,42.222164 389.62551,42.320751 388.31214,42.568566 386.78208,35.046139 387.5328,32.032087 388.44137,28.384277 393.43634,22.022868 397.20196,19.717799 401.11329,17.323539 405.45439,16.63763 408.01684,18.009012 409.74464,18.933705 409.64089,19.332653 406.43287,24.099748 404.19597,27.423775 403,30.385325 403,32.600489 403,37.891767 406.11816,37.068032 412.84387,30 415.98405,26.7 419.08264,24 419.72964,24 420.37663,24 421.36431,25.659893 421.92448,27.688652 422.74311,30.653506 422.54032,32.702932 420.89098,38.133019 419.76239,41.848662 418.20022,45.418869 417.4195,46.066812 414.96238,48.106041 415.85837,50.379157 420.64663,54.253947 426.05843,58.633317 426.31723,58.531761 431.50399,49.993435 435.67397,43.128897 435.92693,39.874287 432.5,37.17866 429.81553,35.067052 429.35111,33.519072 431.08126,32.449778 432.90816,31.320694 438,37.050518 438,40.235397 438,46.088749 428.12404,62 424.49092,62 423.87672,62 422.08894,60.658498 420.51809,59.018885 418.94724,57.379272 415.93805,54.843072 413.831,53.382884 409.31636,50.254238 409.12105,49.124905 412.57521,46.121556 415.81052,43.308492 418.94926,36.508488 418.97804,32.25 419.00645,28.045805 418.01886,28.151604 414.31078,32.75 412.64761,34.8125 409.46131,37.519368 407.23011,38.765262 403.52562,40.833835 403.03561,40.892754 401.58669,39.443833 399.11239,36.969535 399.07481,30.560964 401.50601,25.687503 402.31005,24.075767 402.70845,22.337281 402.39135,21.8242 401.65487,20.632551 397.33945,23.390384 393.66152,27.403123 391.13287,30.161957 390.86903,31.073909 391.24443,35.75769 391.5326,39.353253 392.35091,41.744622 393.83291,43.322141 397.02304,46.717876 396.52432,48.218778 391.28171,51 386.79611,53.379625 384.01812,56.794851 382.53752,61.75 381.58582,64.9351 383.54784,64.606009 387.18304,60.970804 391.08133,57.07252 395.6163,54.743444 397.89822,55.467697 404.15033,57.45204 402.88587,74.34589 395.83915,82.977844 392.91938,86.55445 392.22936,89.405686 394.01631,90.510081 395.13562,91.201849 394.39999,93 392.99769,93 392.51133,93 391.41289,91.999872 390.5567,90.777494 z M 419,94.5 C 415.99578,92.782633 412.12346,92.622363 408.34482,94.058998 406.04864,94.932006 405.33469,94.810625 404.27972,93.367868 402.03838,90.302654 402.87181,87.447525 408.06898,80.386682 413.04677,73.623905 416.13506,70.020734 414.51859,72.861803 414.08094,73.631011 414.25081,74.536975 414.90896,74.943735 415.69659,75.430514 414.60396,77.557179 411.53708,81.506723 405.60227,89.149582 405.67452,89.987383 412.25,89.773751 415.1375,89.679938 418.9625,90.241123 420.75,91.020829 423.47716,92.210413 424.52284,92.22603 427.25,91.117906 436.14281,87.504501 438.13752,89.457126 429.65351,93.470705 423.53367,96.36585 422.44753,96.470788 419,94.5 z M 413.44855,65.885907 C 412.47973,63.737444 411.99118,61.67549 412.36288,61.303788 412.73458,60.932086 415.2767,61.836674 418.01202,63.313983 426.21421,67.743862 431.13045,66.591006 434.84819,59.36591 437.93057,53.375561 442.99943,37.006641 442.9997,33.042163 442.99996,29.250463 442.44688,28.017882 439.29851,24.793654 436.61855,22.049123 435.89897,20.701027 436.69115,19.908851 438.03941,18.560589 440.51069,19.758718 443.93718,23.421874 445.78493,25.397253 446.46989,27.414705 446.76935,31.763696 447.09992,36.564543 446.50025,39.343645 443.0921,48.805391 438.99096,60.191016 434.4416,68.232827 431.45295,69.379679 429.09087,70.286095 424.49229,70.137665 421.66792,69.063844 420.31367,68.548958 418.92135,68.411983 418.57388,68.759455 416.87787,70.455463 415.046,69.428412 413.44855,65.885907 z M 434.65499,30.171259 C 433.04709,28.394551 432.4218,26 433.56574,26 435.4081,26 438,28.35863 438,30.035184 438,32.492363 436.79975,32.54119 434.65499,30.171259 z M 433,97.654988 C 433,95.475716 436.73144,92.682965 438.65629,93.421601 440.18863,94.009616 440.08326,94.367476 437.73718,96.542882 434.79229,99.273538 433,99.694298 433,97.654988 z M 446,99.22836 C 446,97.973764 453.53279,86.406787 454.90017,85.561698 456.89045,84.33164 455.99355,87.40441 452.5831,93.5 449.64867,98.744789 446,101.91972 446,99.22836 z M 368.52638,99.042682 C 367.67111,97.658828 373.92786,87 375.59546,87 377.53039,87 377.42917,87.414834 373.86067,94.110023 370.76264,99.922527 369.68565,100.91843 368.52638,99.042682 z"/>
</svg>
