<svg xmlns="http://www.w3.org/2000/svg"
     width="46.5" height="64.0"
     viewBox="1601.0627 8.6249 68.5295 94.2242">
  <path d="M 1617.1589,94.768389 C 1606.8116,86.815765 1605.0627,69.65074 1613.4759,58.620471 1614.9131,56.736168 1617.2412,54.905304 1618.6493,54.551885 1620.7392,54.027359 1621.0833,53.504263 1620.5223,51.704652 1616.2793,38.093178 1616.2652,30.63597 1620.4689,23.462895 1625.1991,15.391323 1631.7145,12.624898 1637.7768,16.113923 1645.1374,20.350144 1646.8992,25.964225 1641.1368,26.820997 1636.309,27.53882 1634.6498,36.589718 1637.6456,45.865574 1638.95,49.904339 1641.2308,52.964508 1648.6456,60.624326 1653.7905,65.939255 1658,70.642747 1658,71.076529 1658,71.510312 1658.8149,72.123849 1659.8108,72.439946 1662.0354,73.146013 1664.9475,79.489011 1665.2648,84.319777 1665.5922,89.304496 1663.7283,88.882491 1662.3988,83.670906 1660.8228,77.492922 1660.5332,77.102827 1648.3306,64.71952 1634.5603,50.74522 1633.5279,48.916664 1633.5279,38.5 1633.5279,29.484252 1635.6073,24 1639.0257,24 1640.1116,24 1641,23.543386 1641,22.985302 1641,21.520764 1634.8843,18.008137 1632.3267,18.003738 1629.3276,17.99858 1624.3253,22.44203 1621.8352,27.323123 1619.0934,32.697428 1619.7509,40.700119 1623.5908,48.691382 1625.126,51.886122 1626.4085,54.95 1626.441,55.5 1626.4734,56.05 1625.0842,56.571511 1623.3538,56.658912 1616.0688,57.02688 1611.9732,62.642424 1611.2099,73.309758 1610.8042,78.980214 1611.1051,80.95428 1612.9875,84.97338 1615.2574,89.81972 1618.8084,93.216245 1623.4502,94.98105 1626.8659,96.279731 1627.3129,94.991419 1625.4005,89.358774 1622.8588,81.872259 1623.0273,74.162787 1625.8181,70.25 1628.5149,66.468982 1630.681,66.218323 1636.7711,68.982524 1645.9847,73.164433 1651.6813,77.815532 1654.2826,83.280124 1655.6493,86.151056 1656.5501,88.866814 1656.2845,89.315143 1655.573,90.51587 1652.3619,87.287836 1651.002,84.004836 1648.4606,77.869296 1631.8164,68.247662 1628.5022,70.998202 1625.8997,73.15809 1625.7107,78.41911 1627.9218,87.158929 1629.9022,94.987371 1629.927,95.576823 1628.3248,96.75 1625.4582,98.849069 1621.5706,98.159149 1617.1589,94.768389 z"/>
</svg>
