<svg xmlns="http://www.w3.org/2000/svg"
     width="38.6" height="64.0"
     viewBox="1537.0111 14.8544 57.5286 95.3823">
  <path d="M 1581.0418,102.55033 C 1580.3801,101.75301 1579.7256,97.590509 1579.5874,93.300328 1579.369,86.515486 1578.8512,84.565654 1575.6101,78.32294 1571.9245,71.223792 1564.899,64 1561.6805,64 1558.229,64 1553.798,76.293648 1554.7262,83.294612 1555.3155,87.739845 1553.0485,91 1549.3681,91 1541.0111,91 1541.7703,67.856378 1550.5028,56.407497 1553.004,53.128168 1553.0454,52.840251 1551.8485,47.04551 1550.7799,41.871856 1550.8431,40.355547 1552.3177,35.783452 1554.3678,29.427168 1560.9707,19.641302 1563.5493,19.137745 1565.0004,18.85436 1564.7067,19.569991 1562.2003,22.42466 1554.6342,31.042009 1551.838,40.327219 1554.5435,47.850838 L 1556.3021,52.74137 1553.1966,56.620685 C 1548.1393,62.938296 1545.8336,69.308178 1545.6571,77.450371 1545.4918,85.071249 1546.6914,88 1549.9781,88 1551.415,88 1551.8065,86.741586 1552.268,80.6398 1553.1307,69.23292 1558.773,59.885898 1563.7105,61.684203 1566.8172,62.815717 1574.8674,70.006777 1575.5946,72.299979 1575.9783,73.509991 1577.2827,76.075 1578.4934,78 1581.026,82.026933 1581.9433,86.131327 1582.1311,94.27601 1582.2703,100.3117 1583.1844,101.9218 1585.419,100.06721 1587.7322,98.147453 1588.1775,91.289785 1586.4196,84.659371 1583.7908,74.744538 1580.282,68.29683 1571.1843,56.66346 1567.6735,52.1742 1566.7081,50.009628 1566.0082,45.058097 1565.535,41.710351 1565.5021,37.736101 1565.9351,36.226432 1567.0128,32.46846 1571.7313,23.284098 1572.981,22.511752 1574.7149,21.44012 1574.1164,23.842136 1571.2937,29.283244 1569.1827,33.35239 1568.5937,35.871434 1568.6162,40.734206 1568.648,47.584734 1569.6979,50.271428 1574.9724,57 1582.6504,66.794503 1586.7666,73.995381 1588.1198,80 1590.2648,89.517886 1590.5397,91.777436 1589.9648,95.163923 1588.7365,102.39955 1584.1011,106.23665 1581.0418,102.55033 z"/>
</svg>
