<svg xmlns="http://www.w3.org/2000/svg"
     width="28.7" height="64.0"
     viewBox="577.7572 13.0000 41.5866 92.7289">
  <path d="M 614.09375 87.875 C 611.10177 87.9747 608.46338 85.357297 607.0625 80.3125 C 605.59166 75.015739 605.66578 74.500252 608.625 67.90625 L 611.25 62.0625 L 607.59375 54.34375 C 604.163 47.119575 603.95948 46.200361 604.5625 40.0625 C 605.59674 29.535452 600.94076 17 596 17 C 592.86836 17 588.12297 21.847534 586.9375 26.25 C 585.66432 30.978229 586.11909 37.067105 588.09375 41.78125 C 589.02028 43.993194 589.12977 45.507764 588.46875 46.46875 C 587.93039 47.251413 586.18557 49.733869 584.59375 51.96875 C 581.79019 55.904859 581.75715 56.074171 583.5 58 C 584.48958 59.093465 584.99391 60 584.59375 60 C 584.19359 60 584.79944 61.178199 585.9375 62.625 C 588.25298 65.568653 589.55942 69.879652 591.40625 80.5 C 593.44206 92.207126 599.21869 99.371447 608 101.09375 C 610.64967 101.61344 613.04781 101.72887 615.34375 101.65625 L 615.0625 98.5 C 612.17969 98.687789 609.31703 98.567603 607.375 97.96875 C 603.98897 96.924614 597.30567 90.743322 596.0625 87.5 C 595.64086 86.4 594.46593 81.225 593.46875 76 C 592.09366 68.794886 590.83415 65.246935 588.25 61.34375 L 584.84375 56.21875 L 588.4375 51.21875 C 592.27363 45.879134 592.76127 42.955685 590.5 39 C 589.71398 37.625 589.05073 34.03062 589.03125 31 C 589.00184 26.427546 589.44285 25.007147 591.59375 22.6875 C 595.39835 18.584407 597.16231 19.513867 599.75 27 C 601.58051 32.295622 601.87863 34.797023 601.40625 40.5 C 600.85935 47.102609 601.03618 47.924277 604.46875 54.84375 L 608.125 62.15625 L 605.875 66.34375 C 604.27205 69.315052 603.60514 72.262746 603.5625 76.65625 C 603.50971 82.09601 603.85336 83.261185 606.59375 86.65625 C 609.1318 89.800642 610.43696 90.564859 613.75 90.8125 C 613.99568 90.830864 614.1526 90.801476 614.375 90.8125 L 614.09375 87.875 z "/>
</svg>
