<svg xmlns="http://www.w3.org/2000/svg"
     width="62.3" height="64.0"
     viewBox="860.7619 14.0000 91.6039 94.0633">
  <path d="M 883.5,101.97921 C 877.09971,100.63107 874,97.599543 874,92.688186 874,89.121106 876.12524,87.716917 879.55209,89.019804 884.92089,91.061019 893.211,88.182465 895.42984,83.506613 898.19943,77.670126 897.62992,76.376889 891.25,74.015102 883.39946,71.108907 875.33803,66.124969 872.52175,62.436458 864.76187,52.273255 865.21972,37.944678 873.61787,28.133329 878.62207,22.287043 882.69614,20.603993 890.19724,21.284168 900.32589,22.202603 904.72585,27.087021 903.49384,36.044807 902.72107,41.663513 899.80628,46 896.80242,46 895.04317,46 894.83804,45.559781 895.36637,42.918138 896.75965,35.951732 890.01868,30.778899 883.8496,34.080491 879.15704,36.591875 878.34308,46.296088 882.31637,52.360097 886.66412,58.995592 904.64572,66.680473 912.97653,65.463467 923.9756,63.856669 931.80551,56.35431 933.87664,45.437667 935.30474,37.910385 934.11208,33.703281 930.0762,32.031565 926.88918,30.711457 921.81492,30.378316 920.1901,31.382512 918.3363,32.528223 914,30.91434 914,29.078683 914,25.041484 925.61285,18 932.27103,18 939.16425,18 945.98945,26.558601 947.28451,36.82647 948.3658,45.399464 942.83093,59.251112 935.80049,65.566524 931.61117,69.32978 922.58358,73.784172 916.73226,74.975173 910.52512,76.238598 909.2688,77.750062 907.66377,85.885299 905.69356,95.871541 893.39425,104.06331 883.5,101.97921 z M 916.12652,71.933799 C 923.78263,70.592323 933.2818,65.8202 936.29573,61.801336 946.05127,48.793022 946.58282,30.949295 937.43217,23.651779 933.34447,20.391899 930.09042,20.52455 922.39164,24.264907 917.08554,26.842811 916.30056,29.353798 921.25,27.916794 927.21765,26.184164 933.86544,28.905326 936.60438,34.201856 938.16655,37.22275 937.68739,45.457133 935.88461,46.571314 935.39808,46.87201 935,48.337016 935,49.826882 935,53.562798 931.00653,59.093596 925.29354,63.269949 919.51261,67.495967 911.36786,69.461028 905.75,67.985162 903.6875,67.443323 900.5375,66.614967 898.75,66.144371 895.5236,65.294956 884.74883,59.803545 882.13787,57.677922 881.3887,57.068011 879.65946,54.12856 878.29512,51.145809 874.95919,43.852705 875.70296,38.097041 880.61626,33.18374 883.6526,30.147398 884.48421,29.816892 887.75309,30.347357 892.4785,31.114187 896.0675,33.779197 898.1244,38.04857 L 899.74879,41.420231 900.47102,38.131941 C 901.46491,33.606771 900.36805,28.643104 897.87571,26.387288 894.81679,23.618665 882.56577,23.691297 878.86425,26.5 871.78342,31.872913 868.05276,45.721237 871.39028,54.243587 874.10154,61.16675 877.15704,63.881516 888.28366,69.253081 897.8081,73.851168 902.56809,74.30946 916.12652,71.933799 z M 896.75169,96.392485 C 901.76024,93.472455 904.84343,88.117638 905.70507,80.842419 906.27462,76.033456 906.20276,75.835934 904.00198,76.160812 902.73823,76.347365 901.39146,77.175 901.00916,78 896.38933,87.969483 895.62209,89.004531 891.30149,91.096099 887.92939,92.728502 885.7993,93.107274 882.51946,92.657721 877.79616,92.010321 876.13215,93.47879 878.31868,96.364844 881.38188,100.40802 889.84231,100.42071 896.75169,96.392485 z"/>
</svg>
