<svg xmlns="http://www.w3.org/2000/svg"
     width="51.1" height="64.0"
     viewBox="1090.0000 14.0000 72.8633 91.2873">
  <path d="M 1151.0574,99.734339 C 1149.7103,99.052569 1147.0332,95.535357 1145.0884,91.891905 1143.1488,88.258464 1140.8166,84.883877 1139.9056,84.392824 1138.9945,83.901771 1136.8231,82.690611 1135.0802,81.701359 1133.1873,80.627001 1129.588,79.838326 1126.142,79.742812 1118.734,79.537486 1110.5513,83.319582 1107.2408,88.479008 1105.9983,90.415553 1104.4233,92.00125 1103.7408,92.002778 1101.9895,92.006698 1094,87.667033 1094,86.711879 1094,84.684921 1098.2231,78.002482 1101.675,74.567431 1103.7787,72.473888 1108.2301,69.497641 1111.5669,67.953549 1114.9037,66.409456 1118.2004,64.463469 1118.8928,63.629133 1119.5853,62.794797 1120.3763,58.686053 1120.6506,54.498591 1121.2417,45.477189 1120.3202,43.734177 1115.2013,44.191324 1109.7467,44.678453 1108.9348,42.278505 1112.3035,35.625642 1115.1067,30.089358 1126.3434,18 1128.6859,18 1129.3948,18 1131.0831,19.6875 1132.4376,21.75 1133.792,23.8125 1135.8127,26.625 1136.9279,28 1138.0431,29.375 1138.9655,31.0625 1138.9778,31.75 1138.99,32.4375 1139.4011,33 1139.8914,33 1141.3057,33 1144.1311,41.01146 1143.4612,43.122193 1143.1275,44.173675 1141.2485,45.704996 1139.2856,46.525129 L 1135.7168,48.01628 1136.3584,54.154831 C 1136.7113,57.531034 1137,61.103317 1137,62.093237 1137,63.165116 1139.2186,65.365692 1142.4852,67.533965 1145.5021,69.536445 1149.2765,72.823901 1150.8728,74.839423 1156.187,81.549122 1158.8633,95.99389 1155.4286,99.428571 1153.5698,101.28734 1154.0585,101.25316 1151.0574,99.734339 z M 1154.7904,94.922881 C 1155.1747,91.716154 1151.4862,80.333382 1148.7858,76.392381 1146.9595,73.726981 1143.8338,71.673413 1136.0515,68.025889 1134.1448,67.132222 1133.2189,63.411443 1132.404,53.368296 L 1131.7335,45.104996 1134.6167,44.459553 C 1140.4188,43.160703 1141,42.827062 1141,40.794992 1141,38.578132 1130.2185,22 1128.7768,22 1125.5451,22 1113.1418,37.802459 1114.5655,40.105993 1114.8102,40.501983 1116.814,41.130676 1119.0183,41.503088 1123.2585,42.219463 1125.5135,44.76563 1124.5844,47.787773 1124.2949,48.729498 1123.8069,52.425 1123.5,56 1122.7366,64.893211 1122.4794,65.454953 1118.229,67.515052 1107.9759,72.484561 1106.228,73.535983 1102.7911,76.80162 1100.7511,78.739878 1098.6309,81.62013 1098.0794,83.20218 1097.1778,85.788494 1097.3315,86.175537 1099.6034,87.039318 1103.2342,88.419728 1103.5509,88.322482 1106.382,84.95783 1108.9382,81.919965 1116.8288,77.834074 1122.5,76.611601 1126.1197,75.831341 1136.1241,78.295517 1140.6216,81.075155 1142.4017,82.175299 1144.7844,84.970949 1145.9165,87.287709 1151.0892,97.873063 1154.1239,100.48412 1154.7904,94.922881 z"/>
</svg>
