<svg xmlns="http://www.w3.org/2000/svg"
     width="30.5" height="64.0"
     viewBox="376.6673 13.5501 45.6452 95.8249">
  <path d="M 417.6875 86.5625 C 415.94088 86.188603 413.96495 85.027067 411.65625 83 C 407.44385 79.301464 406.34196 74.085296 408.5 67.96875 C 410.80258 61.442562 410.43312 58.998139 406.4375 54.90625 L 402.84375 51.25 L 402.625 37.875 C 402.44551 27.492711 401.98886 23.772081 400.65625 21.25 C 398.98415 18.085389 398.0971 17.550081 395 17.9375 C 390.75607 18.468377 386.81509 31.426329 386.78125 44.9375 C 386.76113 52.96952 386.38991 55.139057 384.5 58.5 C 380.69865 65.260205 380.66734 66.290242 384.0625 70.5625 C 385.76414 72.70374 389.16336 78.510118 391.625 83.46875 C 397.98552 96.281164 402.81928 100.76262 414.4375 104.5625 C 415.55245 104.92716 416.95838 105.20903 418.3125 105.375 L 418.1875 102.40625 C 417.58722 102.33018 416.99359 102.2411 416.5 102.03125 C 415.4 101.56357 413.02032 100.64265 411.21875 99.96875 C 407.20756 98.468319 399.78616 91.570171 397.78125 87.5 C 393.28434 78.370804 388.34243 70.283306 386.28125 68.65625 C 383.60747 66.545621 383.86654 64.316932 387.34375 59.5 C 389.19968 56.929008 389.50983 55.069973 389.59375 46.5 C 389.69318 36.345155 391.37665 25.520697 393.21875 23.25 C 393.77649 22.5625 395.04125 22 396.03125 22 C 399.17258 22 400.31127 27.922312 399.53125 40.40625 L 398.8125 51.59375 L 403.0625 55.71875 L 407.3125 59.84375 L 405.78125 67.5625 C 403.54196 78.816276 405.22172 83.187898 413.625 87.90625 C 415.52041 88.970503 416.67726 89.520431 417.78125 89.65625 L 417.6875 86.5625 z "/>
</svg>
