<svg xmlns="http://www.w3.org/2000/svg"
     width="46.0" height="64.0"
     viewBox="1.2729 12.0037 64.9741 90.4315">
  <path d="M 12.636982,92.888998 C 5.2931793,84.309416 5.2728714,65.916357 12.584317,45.189965 16.169363,35.027122 18.652859,30.789156 26.320401,21.75 30.633117,16.665802 31.62065,16.003659 34.848944,16.031601 39.347949,16.070542 42.351376,18.568476 48.213996,27.147243 58.017798,41.49314 62.246948,67.088506 57.525999,83.504696 55.899492,89.160559 49.393929,96.419579 46.466857,95.844677 40.278294,94.62919 37.874758,78.851501 41.923765,66.022156 43.829766,59.98296 49.218214,51.294859 52.810135,48.469444 53.869233,47.636355 53.601239,46.038621 51.411499,40.131023 49.921676,36.111696 48.101261,32.592352 47.366134,32.310257 46.631007,32.028162 44.638366,32.967952 42.938044,34.398679 38.491622,38.140096 32.5933,37.99908 27.962226,34.040641 26.058002,32.412993 24.05,31.066068 23.5,31.047474 22.296029,31.00677 18.519938,36.425512 17.077652,40.26363 16.202382,42.592845 16.493014,43.866188 18.926575,48.364284 21.535041,53.185668 22.797851,56.890361 26.131054,69.5 27.628663,75.165516 26.609665,88.416181 24.417311,91.784856 20.264951,98.165191 17.384312,98.435186 12.636982,92.888998 z M 22.557533,89.488523 C 25.134599,82.740573 24.030839,71.16207 19.618304,58.655843 17.707998,53.241557 15.862923,48.529589 15.518137,48.184804 12.206716,44.873382 8.6804126,71.326608 10.96578,82.335164 12.244403,88.494255 16.039434,94 19.006186,94 20.252597,94 21.383007,92.563976 22.557533,89.488523 z M 41.113845,32.815859 C 43.25123,31.614581 45,29.996548 45,29.220229 45,26.086646 37.931287,18 35.192154,18 33.342166,18 26,25.563536 26,27.469303 26,29.354369 33.0033,35 35.341689,35 36.37899,35 38.976461,34.017137 41.113845,32.815859 z M 53.980807,84.212487 C 55.611853,79.941388 55.997056,76.577381 55.984687,66.712487 55.968123,53.501903 55.262526,50.707307 52.51858,52.98458 50.07677,55.011103 45.990175,62.395427 44.341653,67.759983 41.859683,75.836713 42.922284,90.097867 46.154914,92.095742 48.228229,93.377121 51.889393,89.689122 53.980807,84.212487 z"/>
</svg>
