<svg xmlns="http://www.w3.org/2000/svg"
     width="64.0" height="51.7"
     viewBox="1684.8374 11.0257 114.1626 92.1494">
  <path d="M 1694.5742,98.120053 C 1694.2776,97.640115 1695.553,96.179265 1697.4085,94.87372 1699.2639,93.568174 1704.2017,89.9125 1708.3813,86.75 1712.561,83.5875 1716.28,81 1716.6459,81 1717.6661,81 1724.002,75.991735 1723.9847,75.199109 1723.9763,74.814599 1723.5531,73.841919 1723.0444,73.037599 1722.2761,71.822915 1721.3047,72.152977 1717.3097,74.986111 1714.6644,76.862114 1712.275,78.64646 1712,78.951325 1711.725,79.25619 1709.475,80.853094 1707,82.5 1704.525,84.146906 1702.275,85.726716 1702,86.010689 1699.8192,88.262658 1689.8435,94.173115 1689.2497,93.565067 1688.8374,93.142813 1689.5388,92.055433 1690.8085,91.148666 1692.0782,90.2419 1695.7939,87.475 1699.0657,85 1702.3376,82.525 1707.3153,78.925 1710.1273,77 1712.9393,75.075 1716.6816,72.285646 1718.4435,70.801435 L 1721.6469,68.10287 1721.1888,59.375274 1720.7307,50.647678 1705.8273,35.661925 C 1696.025,25.805563 1691.2616,20.338423 1691.9106,19.689421 1693.1196,18.480426 1696.5999,21.462613 1707.4717,33.023233 1716.0383,42.132718 1720.3273,45.533816 1721.9687,44.519355 1724.702,42.830059 1722.4715,39.661849 1712.75,31.425184 1701.7038,22.066177 1698,18.429916 1698,16.944236 1698,15.025651 1699.7483,16.254562 1710.9094,26.018689 1717.1845,31.50841 1722.8537,36 1723.5075,36 1724.1613,36 1725.5423,34.123834 1726.5763,31.830742 1728.8363,26.81911 1736.5987,18.941032 1740.8386,17.355977 1743.5012,16.360573 1744.2964,16.505339 1746.9598,18.470337 1750.8441,21.33611 1755.6056,27.87253 1759.2056,35.28122 1761.5786,40.16468 1762.2854,40.912722 1763.7574,40.098315 1764.7158,39.568047 1770.217,34.378998 1775.9821,28.567095 1785.555,18.916663 1789,16.371692 1789,18.95031 1789,19.47298 1788.3244,20.278706 1787.4987,20.740811 1786.6729,21.202916 1781.0344,26.488132 1774.9687,32.485736 1764.1645,43.168564 1761.6181,47.018112 1763.8677,49.267699 1765.065,50.464988 1765.2547,50.305254 1772.0052,42.4154 1776.9786,36.602665 1795,21.732662 1795,23.441726 1795,24.227744 1791.9712,27.487408 1788.2693,30.685425 1779.2878,38.444443 1771.9409,45.595886 1767.7585,50.650568 1764.9365,54.061187 1764.2921,55.710246 1764.1438,59.900568 1764.0371,62.915057 1764.3933,65 1765.015,65 1765.5934,65 1767.542,66.4625 1769.3451,68.25 1771.1483,70.0375 1776.9833,75.49665 1782.3118,80.381444 1790.81,88.17201 1793.7603,92.006149 1791.25,91.99738 1790.8375,91.995939 1784.5392,86.568347 1777.2537,79.936064 1769.9683,73.303782 1763.6101,68.122948 1763.1244,68.423101 1760.9055,69.794488 1761.2573,73.057214 1763.8434,75.090167 1765.3045,76.238791 1769.218,79.725895 1772.5401,82.839287 1775.8621,85.952679 1780.9246,90.467759 1783.7901,92.872798 1788.9039,97.164936 1790.1232,99 1787.8613,99 1786.3228,99 1774.7689,89.42318 1768.0342,82.565553 1765.0279,79.504499 1761.8779,77.006997 1761.0342,77.015549 1760.1838,77.024168 1758.3857,79.333452 1757,82.196535 1754.3214,87.731078 1744.6102,99 1742.5194,99 1740.5708,99 1727,84.238927 1727,82.11943 1727,81.088433 1726.3346,79.692622 1725.5212,79.017629 1724.3137,78.015422 1723.5251,78.278704 1721.221,80.453362 1719.6692,81.918008 1717.4843,83.652675 1716.3656,84.308177 1711.2757,87.290609 1703.2853,92.951332 1702.0295,94.46447 1700.1057,96.782509 1695.2262,99.175071 1694.5742,98.120053 z M 1748.28,90.75 C 1757.1097,81.873078 1762.9536,63.729343 1760.9742,51.338386 1759.6764,43.214546 1755.7415,32.679613 1752.279,28.058781 1745.8896,19.531806 1744.3185,18.749705 1739.0507,21.473777 1732.6775,24.769483 1726.4985,35.355693 1724.4434,46.5 1724.0376,48.7 1723.8133,54.304949 1723.9448,58.955441 1724.2774,70.717457 1728.1018,80.263916 1735.8339,88.632805 1738.9502,92.005848 1742.0743,94.818348 1742.7763,94.882805 1743.4783,94.947262 1745.955,93.0875 1748.28,90.75 z M 1738.299,77.770845 C 1732.7228,69.484194 1731.7345,65.483085 1732.2031,53.090044 1732.55,43.916308 1733.0735,40.666075 1734.7143,37.5 1737.382,32.352112 1739.7876,30.229422 1743.4119,29.824957 1746.1265,29.52201 1746.4541,29.872523 1748.2477,35 1750.8382,42.40507 1752.1862,56.211771 1751.019,63.383311 1749.8053,70.840539 1745.1036,80.411025 1742.4771,80.770845 1741.1805,80.948461 1739.7424,79.915825 1738.299,77.770845 z M 1746.3937,70.489479 C 1749.4296,62.90584 1749.8464,53.544608 1747.6216,42.91103 1746.3692,36.925589 1744.5297,32 1743.5466,32 1740.5443,32 1737.8554,35.839748 1735.5926,43.358471 1734.0724,48.409908 1734.9669,65.267119 1736.9532,69 1739.1111,73.055083 1742.074,77 1742.9618,77 1743.4158,77 1744.9602,74.070265 1746.3937,70.489479 z"/>
</svg>
