<svg xmlns="http://www.w3.org/2000/svg"
     width="18.1" height="64.0"
     viewBox="2260.8763 19.9685 23.5313 83.0929">
  <path d="M 2265.3399,79.25 C 2266.0105,53.820519 2266.7665,46.947174 2270.1482,35.536442 2273.3007,24.898956 2273.7544,23.96851 2275.468,24.626089 2276.3106,24.949428 2277,26.261538 2277,27.541889 2277,28.82224 2277.4156,30.96287 2277.9235,32.298844 2279.2514,35.791303 2280.4076,65.157345 2280.1298,88.333333 2280.0317,96.519783 2279.6946,99.061373 2278.75,98.735716 2278.0625,98.498693 2277.5717,96.998693 2277.6593,95.402383 2278.2621,84.422117 2277.9145,58.604888 2277.0346,49 2275.3457,30.564632 2274.6334,28.945591 2272.1109,37.808377 2269.1793,48.108963 2267.9937,60.037486 2267.9919,79.25 2267.9904,96.611481 2267.7984,99 2266.4046,99 2264.9932,99 2264.8763,96.83122 2265.3399,79.25 z"/>
</svg>
