<svg xmlns="http://www.w3.org/2000/svg"
     width="32.9" height="64.0"
     viewBox="1469.2676 14.9781 48.7916 94.9181">
  <path d="M 1479.4287,101.57885 1474.5,97.110191 1476.9633,92.584015 1479.4266,88.05784 1477.2133,83.502168 C 1474.4841,77.884629 1474.4294,74.544236 1476.9723,68.795426 1478.0571,66.343081 1479.5803,61.612013 1480.3571,58.281944 1481.6296,52.827516 1481.5979,51.720087 1480.0377,47.111303 1479.0851,44.297521 1477.597,41.208885 1476.7308,40.247668 1473.2676,36.404765 1473.6302,33.827849 1478.5259,27.487602 1484.6819,19.515101 1486.0095,18.978064 1490.5842,22.609781 1498.1185,28.591184 1497.4068,28.442268 1502.125,25.024393 1508.5747,20.352287 1511.3935,21.646508 1513.3828,30.193281 1514.0592,33.099345 1511.5918,36.591903 1507.2399,38.888489 1505.2736,39.926136 1504.6678,39.744615 1502.5804,37.492281 L 1500.1811,34.903361 1498.6028,37.15664 C 1495.2847,41.89391 1493.7779,48.804877 1494.3178,56.810269 1494.603,61.039621 1495.3232,65.766795 1495.9182,67.3151 1497.5295,71.508181 1497.2413,75.200325 1494.887,80.522565 1492.8249,85.184176 1492.8155,85.436543 1494.4963,90.987898 1496.0851,96.235122 1496.0944,96.916798 1494.6165,99.774803 1491.7489,105.31996 1488.5536,105.47062 1491.235,99.934245 1492.3825,97.564873 1492.5166,95.930806 1491.7912,93.156109 1489.7615,85.392455 1489.7715,84.050919 1491.8893,79.987967 1494.346,75.274642 1494.4659,71.937727 1492.5,63 1490.173,52.420761 1490.8295,47.56031 1496.4242,33.947766 1497.0406,32.447968 1494.9373,29.881164 1489.097,25.005922 1485.4869,21.992392 1484.5502,22.409735 1480.0647,29.030276 1476.5029,34.287442 1476.3792,35.317321 1478.8856,38.84563 1481.858,43.02984 1484,48.919148 1484,52.907238 1484,54.921882 1482.8216,59.929426 1481.3813,64.035114 1477.6919,74.552096 1477.2573,80.0179 1479.9189,82.426596 1482.3724,84.647031 1482.5796,88.365054 1480.4745,92.401509 1478.5235,96.142732 1479.2535,98.23406 1483.5264,101.14428 1486.8547,103.41108 1487.4954,105.00154 1485.3662,105.71126 1484.8114,105.8962 1482.1395,104.03661 1479.4287,101.57885 z M 1509.4392,34.067162 C 1511.4526,31.842395 1510.7854,26.2386 1508.398,25.322479 1506.7833,24.702882 1502.1516,27.441294 1501.3703,29.477479 1500.6362,31.390355 1503.8799,36 1505.96,36 1506.9115,36 1508.4772,35.130223 1509.4392,34.067162 z"/>
</svg>
