<svg xmlns="http://www.w3.org/2000/svg"
     width="31.9" height="64.0"
     viewBox="690.0000 15.0014 48.3566 96.9986">
  <path d="M 729.35446,34.531572 C 730.85542,33.39454 731.03024,32.590461 730.27159,30.313375 729.13166,26.891865 726.96275,26.323078 723.5593,28.553105 720.41332,30.61443 720.31099,32.403993 723.22251,34.443296 725.92474,36.336013 726.95294,36.350815 729.35446,34.531572 z M 707.26115,103.00922 C 709.5873,101.17947 709.7106,100.69769 708.78553,97.053169 707.9395,93.720074 708.1155,92.39285 709.88952,88.728226 712.43126,83.477687 712.4673,81.873413 710.34906,68.272924 708.52334,56.550636 709.23744,49.166291 713.10809,39.742349 715.14877,34.773867 714.77917,32.636314 711.27318,29.130325 710.49716,28.354304 709.16648,26.657518 708.31611,25.359689 706.07229,21.935198 703.4031,22.433761 700.50077,26.819469 698.08823,30.465073 698.04459,30.782105 699.54217,33.784077 700.40512,35.513905 701.57494,41.197087 702.14177,46.413371 703.10866,55.311306 703.01251,56.453162 700.58618,64.886935 699.16378,69.831111 698.00678,75.366669 698.01506,77.188173 698.03002,80.480068 700.00459,87.337926 701.31466,88.647995 702.38544,89.71877 702.11852,93.808717 700.92992,94.54331 700.34138,94.90705 699.48287,96.171107 699.02211,97.352327 698.37223,99.018434 698.78034,100.10381 700.84219,102.19284 704.08219,105.47555 704.11967,105.48031 707.26115,103.00922 z M 698.50246,104.00252 694.59902,100.00504 696.76835,95.539914 C 698.82988,91.296647 698.85993,90.861766 697.37308,86.787396 695.16243,80.729592 695.32359,73.540241 697.83715,66.084844 701.21374,56.069645 700.30407,40.671258 695.9884,34.790493 694.89478,33.300263 694,31.580996 694,30.969899 694,29.241667 702.04716,20.119808 704.16467,19.447737 705.57086,19.00143 707.22963,20.151333 710.62118,23.923562 713.13147,26.715603 715.78874,29 716.52622,29 717.26371,29 720.13863,27.587945 722.91493,25.8621 728.83199,22.183854 729.92339,22.614069 732.6257,29.68996 L 734.35664,34.22238 731.92832,36.114166 C 728.22765,38.997176 725.30928,39.432669 722.41193,37.534249 717.67811,34.432535 716.13206,36.509176 713.00797,50.165518 711.22746,57.948661 711.37336,61.196454 714.02318,72.764351 715.5286,79.336311 715.19492,84.202021 712.94143,88.538558 710.96922,92.333792 710.83019,95.975116 712.49676,100.18445 712.98294,101.41243 712.01689,102.69962 708.9318,104.93445 706.60427,106.6205 704.18377,108 703.55291,108 702.92205,108 700.64935,106.20113 698.50246,104.00252 z"/>
</svg>
