<svg xmlns="http://www.w3.org/2000/svg"
     width="21.0" height="64.0"
     viewBox="387.8302 15.9608 29.2587 89.0392">
  <path d="M 399.02544,99.025436 C 397.93943,97.939426 396.7693,95.801926 396.42515,94.275436 396.08101,92.748946 395.40961,89.925 394.93316,88 394.4567,86.075 393.83902,78.2 393.56053,70.5 391.89076,24.332699 391.83017,20 392.85438,20 394.21154,20 395.15247,25.252814 394.8248,31 394.68369,33.475 394.66538,41.0125 394.78412,47.75 395.01968,61.116687 395.90371,62.752714 399.87626,57.173783 401.75967,54.528773 401.85204,53.287339 401.31687,37.811584 400.95122,27.23771 401.10568,21.052723 401.74525,20.657444 402.87237,19.960847 403.68878,28.267684 403.94112,43 404.13389,54.254557 404.3117,54.963806 407.52514,57.296685 L 410,59.09337 410.19352,47.296685 C 410.29996,40.808508 410.27312,32.0125 410.13387,27.75 409.91809,21.144621 410.12182,20 411.51331,20 413.0024,20 413.08883,22.736967 412.4966,51.134613 L 411.84728,82.269225 408.96113,89.764449 C 406.18722,96.968184 403.63364,101 401.84501,101 401.38026,101 400.11145,100.11145 399.02544,99.025436 z M 402.89639,63 C 403.30501,63 404.6175,64.125 405.81305,65.5 408.55319,68.651436 410,68.682153 410,65.588894 410,63.194528 405.02238,58 402.72799,58 400.6381,58 396,63.360556 396,65.775985 L 396,68.177787 399.07673,65.588894 C 400.76892,64.165002 402.48777,63 402.89639,63 z M 403.86859,95.658342 C 405.89547,93.216095 409,81.81988 409,76.821762 409,72.710443 408.54907,71.50718 406.25,69.483635 402.75764,66.409812 402.20984,66.424782 398.80472,69.687091 395.48048,72.871911 395.25932,75.941787 397.55972,86.968508 399.53335,96.428886 401.2578,98.804149 403.86859,95.658342 z"/>
</svg>
