<svg xmlns="http://www.w3.org/2000/svg"
     width="64.0" height="51.7"
     viewBox="1356.6013 11.9984 103.4301 83.5278">
  <path d="M 1405.0625,16.0625 C 1403.0327,16.136832 1395,25.837034 1395,28.21875 1395,29.22667 1395.6857,31.726174 1396.5312,33.75 1400.0447,42.158938 1399.1094,59 1395.125,59 1394.2026,59 1391.0529,57.2 1388.125,55 1382.1995,50.547685 1382.0339,50.500176 1377.2812,52.21875 1372.8619,53.816803 1371.9939,52.496856 1372.7188,45.09375 1373.4725,37.397733 1374.5163,35.648454 1377.8438,36.4375 1382.5445,37.552177 1383.2695,37.523721 1383.7188,36.25 1383.9612,35.5625 1383.5772,35.003389 1382.8438,35 1382.1105,34.996612 1380.2372,34.339575 1378.6875,33.53125 1376.1499,32.207693 1375.6711,32.224335 1374,33.78125 1371.5657,36.049079 1369.7948,43.346089 1370.1875,49.4375 1370.5867,55.629327 1372.2857,56.886494 1377.8125,55.0625 1381.5306,53.835389 1382.0532,53.905845 1385.1562,56.09375 1386.9924,57.388316 1389.3713,59.241302 1390.4375,60.21875 1393.3377,62.87758 1397.8449,62.549724 1398.9688,59.59375 1401.3874,53.232084 1401.2139,44.401955 1398.4062,30.1875 1397.8592,27.418413 1398.2161,26.386632 1400.5625,23.9375 1402.1082,22.324135 1403.9732,21 1404.6875,21 1405.4018,21 1407.1766,22.826691 1408.6562,25.0625 L 1411.3438,29.125 1409.0938,35.3125 C 1406.3942,42.657326 1405.1168,57.468931 1406.9062,60.8125 1408.4008,63.605173 1408.9026,63.566372 1413.5938,60.1875 1419.5567,55.892485 1420.2493,55.859074 1424.9688,59.59375 1430.1253,63.674235 1431.2502,63.774424 1433.875,60.4375 1438.4925,54.567348 1440.4711,42.942246 1437.9062,36.75 1436.7599,33.982276 1436.4058,33.832922 1432.625,34.4375 1428.8904,35.034681 1425.4498,36.793504 1426.3125,37.65625 1426.515,37.858747 1428.5633,37.367108 1430.8438,36.5625 1434.7137,35.197116 1435.0577,35.208025 1436,36.96875 1437.8599,40.444036 1437.1329,49.161813 1434.5312,54.75 1433.187,57.6375 1431.6044,60 1431,60 1430.3955,60 1428.2423,58.875 1426.2188,57.5 1421.577,54.345897 1418.8415,54.334888 1414.1875,57.5 1410.7591,59.83163 1410.4098,59.894739 1409.25,58.3125 1406.4492,54.491312 1408.854,40.242221 1413.7812,31.4375 1414.5728,30.023168 1414.3325,28.603186 1412.7812,25.5625 1409.7284,19.578477 1406.814,15.998363 1405.0625,16.0625 z M 1432.375,28.625 C 1431.2079,28.857269 1428.5651,30.191 1426,31.9375 1423.6834,33.514748 1425.5456,33.183278 1429.4688,31.3125 1431.4123,30.385633 1433,29.243507 1433,28.78125 1433,28.584957 1432.764,28.547577 1432.375,28.625 z M 1372.7812,18.53125 C 1371.2837,19.10592 1369.0032,23.249002 1364.8438,33 1360.6013,42.945447 1362.3247,62.386263 1367.9062,67.4375 1369.6268,68.994476 1370.0621,68.938242 1374.4375,66.8125 1378.7442,64.720151 1379.3279,64.674488 1381.8125,66.0625 1385.0619,67.877752 1389.9363,76.402073 1389.9688,80.3125 1389.9842,82.164571 1389.3593,84.234745 1388.4688,85.875 L 1390.1562,87.84375 C 1390.3453,87.586792 1390.5119,87.40167 1390.7188,87.09375 1393.6706,82.700721 1393.616,78.095542 1390.5312,72.21875 1385.3643,62.37536 1381.1784,60.082152 1374.625,63.5 1370.6049,65.596598 1369.5168,65.392114 1368.0312,62.25 1363.9632,53.645606 1363.4941,41.32377 1366.9688,33.5 1367.4574,32.4 1368.7675,29.368997 1369.875,26.75 1370.9825,24.131003 1372.5976,21.709301 1373.4688,21.375 1374.3399,21.040699 1377.3694,21.703823 1380.1875,22.875 1385.4618,25.066906 1386.63,25.043278 1385.75,22.75 1385.1234,21.117168 1374.7939,17.758897 1372.7812,18.53125 z M 1376.4375,26 C 1373.7377,26 1375.4054,28.272377 1379.0625,29.59375 1383.4456,31.177477 1383.7392,31.199637 1384.5,29.96875 1385.1573,28.905062 1379.2506,26 1376.4375,26 z M 1411,88.4375 1413.7188,86.625 C 1413.2709,85.555692 1412.9975,84.188897 1413,82.125 1413.0085,75.06067 1414.6128,70.659228 1418.125,68.0625 L 1421.2812,65.75 1425.6562,67.875 C 1430.8646,70.405428 1432.1869,70.471839 1436,68.5 1438.769,67.068098 1438.9493,67.119279 1440.7812,69.75 1444.553,75.166197 1446.4841,85.945449 1443.9688,87.5 1443.4097,87.845464 1443.2551,88.577176 1443.5938,89.125 1444.7326,90.967813 1448.0148,86.820962 1447.9688,83.59375 1447.9041,79.058708 1445.8144,72.027933 1443.2812,67.75 1440.6417,63.292144 1441.3002,59.006774 1444.2812,61.21875 1447.0694,63.287607 1452.361,78.752706 1452.3438,84.75 1452.3257,91.067661 1453.524,91.526169 1455.0625,85.8125 1456.0314,82.214305 1455.9027,80.997349 1454.1562,77.0625 1453.0404,74.548715 1451.6281,70.884467 1451.0312,68.90625 1450.4345,66.928032 1448.6123,63.229941 1447,60.6875 1444.1002,56.114996 1444.0859,55.97487 1445.0312,47.65625 1446.1974,37.393497 1445.0697,30.390152 1441.25,24.34375 1439.1223,20.975821 1437.8906,20.001385 1435.8125,20 1433.0177,19.998138 1423,25.616101 1423,27.1875 1423,28.157663 1423.3952,27.946054 1429.6875,23.65625 1433.0655,21.353324 1434.2058,21.02962 1435.8438,21.90625 1442.1304,25.270798 1444.3372,35.707447 1441.6875,49.5 1438.5443,65.86148 1435.7638,68.761908 1426.6875,65 L 1421.2188,62.71875 1418.3438,64.75 C 1413.8846,67.928288 1412.3861,70.128728 1411.1562,75.1875 1409.7869,80.820286 1409.7917,85.469617 1411,88.4375 z"/>
</svg>
