<svg xmlns="http://www.w3.org/2000/svg"
     width="18.1" height="64.0"
     viewBox="505.6545 16.0000 24.6249 86.9723">
  <path d="M 510.42751,93.75 C 512.01876,83.850228 512.94023,75.127568 512.96912,69.690983 512.98832,66.079952 513.37837,64.115815 514,64.5 515.29836,65.302432 515.26546,72.289589 513.91132,83.330807 513.31565,88.18775 513.08104,92.414375 513.38997,92.723307 513.69891,93.032239 514.65661,92.699948 515.51822,91.984882 516.70478,91.000122 517.36556,90.965557 518.24238,91.842382 521.18181,94.781806 521.49833,92.816344 521.31697,72.750601 521.09936,48.674499 520.63251,43.583045 517.85552,35 515.28793,27.064194 513.55729,24.834322 514.36299,30.5 515.62279,39.358927 516.03784,53.760152 515.15555,58 514.33464,61.944924 514.19661,61.143148 514.03656,51.5 513.93615,45.45 513.45264,38.025 512.9621,35 510.71802,21.161458 510.6569,20 512.17265,20 513.45851,20 518,25.042648 518,26.470406 518,26.773671 518.86043,28.929393 519.91207,31.260898 522.54251,37.092648 524.04634,51.563439 523.93789,70 523.88774,78.525 524.33536,87.94587 524.9326,90.935266 526.27942,97.676497 525.16141,98.728142 519.87962,95.688327 L 516.12929,93.529912 513.75019,95.764956 C 510.33617,98.972265 509.65455,98.558912 510.42751,93.75 z"/>
</svg>
