<svg xmlns="http://www.w3.org/2000/svg"
     width="60.1" height="64.0"
     viewBox="415.4941 12.1617 87.4529 93.0822">
  <path d="M 435.41917,93.53277 C 430.99227,84.331119 431.27823,82.331015 438.11795,74.657019 441.91355,70.398455 442.98301,68.521829 442.49341,66.979226 441.63246,64.266611 436.9493,60 434.8328,60 432.86098,60 429.39763,64.113721 427.45431,68.764058 424.5638,75.681032 419.49409,73.616944 420.24252,65.827844 420.61267,61.975599 421.77115,59.653485 426.37325,53.539037 431.09996,47.259035 432.52131,46 434.88424,46 437.93741,46 444.63485,50.042715 446.87804,53.239708 448.92107,56.151431 449.96633,53.76367 449.98469,46.143011 449.99696,41.04702 449.71725,39.894523 448.5746,40.333001 447.79062,40.633839 445.55341,40.439362 443.60301,39.90083 440.6366,39.081767 439.8597,38.263747 438.85115,34.897515 437.75007,31.22244 437.87927,30.396654 440.34055,25.378207 442.37468,21.230702 443.88172,19.52954 446.48569,18.441532 451.94206,16.161715 452.9304,16.565824 455.18874,22 456.33159,24.75 457.87752,27 458.62413,27 459.37075,27 460.99825,25.426948 462.24081,23.504329 464.78957,19.560612 467.79501,18.097616 469.14604,20.142988 470.59407,22.33521 469.07692,28.226845 466.09275,32 461.81115,37.413631 461.1402,39.173625 460.6273,46.33671 460.08884,53.856955 460.61207,54.296003 465.58889,50.5 467.39161,49.125 469.69423,48 470.70583,48 471.71743,48 475.21982,50.489245 478.48892,53.531656 481.75801,56.574067 485.12286,58.936567 485.96636,58.781656 489.25771,58.177192 494.00933,43.251171 491.96397,39.941703 491.29588,38.860713 490.86632,38.866055 489.53383,39.97192 488.41139,40.90347 487.59587,40.995866 486.87335,40.273348 485.65075,39.050752 489.42142,36 492.15512,36 494.63766,36 495.20868,38.975416 494.07597,46.008929 492.9353,53.091799 489.66759,60.529842 487.29693,61.439552 485.32955,62.194507 479.23458,58.30341 474.86783,53.504676 473.11378,51.577104 471.26418,50 470.75762,50 470.25106,50 467.84782,51.629651 465.41709,53.621447 461.76167,56.616789 460.73847,57.02784 459.4988,55.999002 456.80937,53.766979 458.12721,34 460.96544,34 462.37523,34 466.20322,27.137839 465.46224,25.93891 465.0333,25.244857 463.67708,25.973438 461.7733,27.920672 458.05752,31.721259 456.47789,31.800718 455.22632,28.25 454.69319,26.7375 453.35203,24.391182 452.24597,23.035961 450.46931,20.859084 449.93465,20.708746 447.6582,21.745965 444.96584,22.972688 441,29.559907 441,32.805174 441,33.841842 441.88852,35.49412 442.97448,36.476904 444.67003,38.01136 445.36783,38.09028 447.91412,37.035572 451.9711,35.355116 453.00147,36.323843 452.99131,41.809017 452.97307,51.650737 451.83217,57.126531 449.63014,57.941118 447.97112,58.55483 446.75869,57.832644 443.5298,54.307446 440.6769,51.192737 438.46718,49.747175 435.96355,49.357729 432.57519,48.830659 432.2402,49.064185 427.96355,54.934745 422.9757,61.781576 421.50836,65.702685 423.1802,67.717126 424.06663,68.785211 424.68218,68.395694 426.24659,65.776736 429.33526,60.606017 433.17908,57 435.6021,57 437.76151,57 446,65.11061 446,67.236498 446,68.600531 442.70364,74 441.8709,74 440.3901,74 435,82.518801 435,84.859145 435,87.24101 439.46678,96 440.68144,96 441.00987,96 441.04091,93.8625 440.75041,91.25 440.08211,85.239746 440.47362,84.30395 446.21734,78.182818 452.92515,71.034254 453.66845,71.042905 459.07123,78.332426 463.22534,83.937208 463.5624,84.80627 462.76507,87.856378 462.28251,89.702386 462.02546,92.402386 462.19384,93.856378 462.46415,96.190399 462.9492,95.70958 466.33565,89.75075 L 470.17129,83.001499 466.19919,78.488956 C 464.01454,76.007058 461.99453,73.08707 461.71028,72.000095 461.09697,69.654819 463.50825,66.34955 469.01323,61.989522 L 472.99207,58.838223 476.11158,61.957735 C 479.60385,65.450009 485.97211,69 488.74455,69 491.73032,69 493.76195,64.072311 495.35328,52.970634 497.15722,40.385748 496.9577,31.809706 494.74328,26.75 492.76382,22.227174 490.36939,21.903335 486.62121,25.651515 485.16288,27.109848 483.63902,27.971113 483.23485,27.565436 482.83068,27.159758 483.5125,26.006945 484.75,25.003628 485.9875,24.000311 487,22.765087 487,22.258687 487,20.441954 492.0177,18.521703 493.8151,19.65058 496.61101,21.406586 498.88941,28.935727 498.91391,36.5 498.94703,46.725812 496.50424,62.091291 494.09448,66.814795 491.40102,72.094414 491.45748,73.873832 494.5,79.596025 495.875,82.182044 497,84.885872 497,85.60453 497,86.323189 495.875,88.568962 494.5,90.595138 493.125,92.621314 492,95.341298 492,96.639547 492,98.071061 491.40969,99 490.5,99 488.41149,99 488.60505,97.630155 491.65338,90.837567 L 494.30677,84.925042 492.23184,80.212521 C 491.09062,77.620634 489.91072,74.7125 489.60984,73.75 489.30895,72.7875 488.14865,72 487.03138,72 484.51916,72 484.51942,72.012104 487.16444,78.160624 489.13057,82.731013 489.21299,83.644224 488.06395,88.127539 487.36823,90.842079 487.07781,94.173877 487.41856,95.531534 487.87776,97.361145 487.63684,98 486.48767,98 484.02016,98 483.70746,95.518125 485.42889,89.596616 L 487.03076,84.086387 483.85752,76.793194 C 481.78486,72.029493 479.28796,68.234284 476.65831,65.850608 L 472.63234,62.201215 468.81617,65.267972 C 463.95103,69.177704 463.87547,72.012881 468.5,77.13168 470.425,79.262425 472,81.928788 472,83.056932 472,84.185075 470.65,87.534456 469,90.5 467.35,93.465544 466,96.536121 466,97.323504 466,98.110888 465.27342,99.358116 464.38538,100.09512 463.00116,101.24392 462.50174,101.10289 460.88538,99.106783 458.81784,96.553479 458.4408,91.601009 460.00144,87.496213 460.88656,85.168161 460.51754,84.286645 456.82428,79.906656 L 452.64568,74.951086 449.23752,78.225543 C 444.2929,82.976183 443.10761,85.775072 443.7241,91.244608 444.25429,95.948369 442.31691,101 439.98277,101 439.44866,101 437.39504,97.639747 435.41917,93.53277 z M 484,35.088894 C 484,33.979609 489.78748,29 491.07673,29 492.86968,29 491.96033,30.531608 488.5534,33.25 484.87563,36.184501 484,36.538123 484,35.088894 z"/>
</svg>
