<svg xmlns="http://www.w3.org/2000/svg"
     width="52.8" height="64.0"
     viewBox="1930.1425 14.7664 75.6179 91.5790">
  <path d="M 1942.0634,100.57637 C 1940.2781,98.425271 1943.2378,92.324979 1947.0845,90.227341 1954.1069,86.397902 1956,84.118527 1956,79.492894 1956,73.413371 1955.2398,72 1951.9697,72 1947.8187,72 1943.2479,76.356635 1941.6522,81.834055 1938.9955,90.953921 1934.1425,86.794665 1936.0017,76.991227 1937.1267,71.058926 1942.5959,62.068837 1946.2681,60.115581 1948.5236,58.915864 1949.4158,58.949218 1952.9557,60.365581 1955.2023,61.264512 1957.449,62 1957.9483,62 1959.3596,62 1960.3251,51.525849 1959.304,47.293947 L 1958.3885,43.5 1953.2595,43.815206 C 1949.0667,44.072873 1947.7333,43.733305 1945.955,41.955018 1944.1447,40.144711 1943.8892,39.084856 1944.4325,35.639812 1945.3493,29.826921 1948.6113,23.498125 1951.3288,22.259964 1953.9321,21.07381 1955.3732,21.65099 1961.2343,26.227431 1965.8279,29.814122 1968.7932,29.557978 1971.4843,25.342045 1973.5535,22.100281 1976.882,20.691008 1979.1536,22.094906 1980.1822,22.730654 1980.2001,24.01444 1979.2437,28.573927 1978.2833,33.152684 1977.267,34.983882 1974.0255,37.976441 L 1970,41.69278 1970,49.34639 C 1970,53.555875 1970.3623,57 1970.8052,57 1971.2481,57 1974.7356,55.947391 1978.5552,54.660869 L 1985.5,52.321739 1987.0885,44.867262 C 1989.2383,34.778408 1991.618,28.863988 1995.0308,25.127376 2000.8407,18.766415 2001.7604,21.293306 1998.5317,34.745782 1994.2547,52.566489 1994,53.874931 1994,58.02905 1994,61.448417 1993.5402,62.309027 1990.8339,63.954796 1989.0926,65.013766 1985.3801,66.407449 1982.5839,67.05187 1976.3507,68.488412 1975,70.074812 1975,75.958995 1975,79.210441 1974.2656,81.616449 1972.4639,84.267865 1970.3351,87.400702 1970.1952,88 1971.5927,88 1972.5084,88 1975.0009,86.425 1977.1317,84.5 1979.2624,82.575 1981.7118,81 1982.5748,81 1985.1212,81 1993.759,86.422729 1991.8104,86.797993 1990.8885,86.975532 1988.7764,86.418613 1987.1168,85.560396 1982.6346,83.242553 1980.6617,83.625962 1977.1364,87.5 1974.0376,90.905377 1971.1754,91.772011 1967.5818,90.393011 1965.1935,89.476552 1965.641,87.789033 1969.6298,82.669275 1973.1389,78.165133 1973.2372,77.813433 1972.5891,72.084508 L 1971.9186,66.158686 1977.7093,65.030036 C 1980.8942,64.409279 1984.7064,63.669649 1986.1809,63.386414 1987.6554,63.10318 1989.3075,62.334413 1989.8522,61.678044 1990.397,61.021675 1991.5433,55.9881 1992.3996,50.492323 1993.256,44.996545 1994.4056,38.7 1994.9544,36.5 1996.2357,31.363901 1996.2401,30 1994.9752,30 1993.3792,30 1991.9178,34.631571 1990.1104,45.417557 L 1988.4485,55.335115 1982.179,56.613991 C 1978.7307,57.317373 1974.3219,58.874032 1972.3815,60.073234 1970.2747,61.37533 1968.4888,61.888807 1967.948,61.347977 1966.9047,60.304724 1966.5113,42.313126 1967.4782,39.867674 1967.8332,38.969895 1969.8958,36.81119 1972.0618,35.070551 1974.7155,32.937971 1976,31.105733 1976,29.452877 1976,28.103795 1975.55,27 1975,27 1974.45,27 1974,27.413298 1974,27.918441 1974,28.963765 1967.8113,33 1966.2086,33 1965.6281,33 1963.0554,31.398723 1960.4914,29.441608 1957.7288,27.332863 1954.9588,26.008851 1953.6919,26.191608 1950.8879,26.596104 1946.9025,33.577509 1947.2412,37.491811 1947.5666,41.253759 1949.8759,41.810662 1955.198,39.410707 1959.9848,37.252179 1960.5676,37.847067 1961.6454,45.991388 1963.0747,56.792179 1962.0482,66 1959.4148,66 1958.5929,66 1956.1577,65.100781 1954.0034,64.001736 1950.9079,62.422544 1949.5975,62.226253 1947.755,63.065756 1944.6766,64.468393 1938.9971,72.883088 1939.0111,76.020651 1939.022,78.457344 1939.0665,78.443745 1941.5991,75.230178 1944.8258,71.135833 1948.8766,69 1953.4152,69 1957.7515,69 1959,70.982642 1959,77.869159 1959,85.115621 1957.8328,87.228892 1952.1099,90.343661 1946.835,93.214653 1945,95.416518 1945,98.875242 1945,101.49471 1943.5315,102.34537 1942.0634,100.57637 z M 1948,100.54705 C 1948,99.271222 1950.4336,95 1951.1605,95 1952.1473,95 1952.1865,95.702234 1951.3697,98.75 1951.0381,99.9875 1950.1442,101 1949.3834,101 1948.6225,101 1948,100.79617 1948,100.54705 z M 1956.7033,97.561554 C 1959.9589,93.14304 1962.4593,92.411194 1967.7819,94.318881 1973.9855,96.542327 1974.3226,96.503253 1979.1587,93 1983.4741,89.87391 1986.7823,89.277963 1990.0657,91.035184 1993.2228,92.72481 1992.3528,94.156812 1988.5972,93.452259 1985.8707,92.940754 1984,93.475579 1979.1839,96.143495 L 1973.1734,99.473097 1967.5682,97.56784 1961.963,95.662582 1959.9425,97.831291 C 1958.8313,99.024081 1957.2436,100 1956.4144,100 1955.1497,100 1955.1963,99.606852 1956.7033,97.561554 z"/>
</svg>
