<svg xmlns="http://www.w3.org/2000/svg"
     width="20.0" height="64.0"
     viewBox="1785.1783 18.6826 28.3002 90.4696">
  <path d="M 1803.5398,102.04402 C 1801.3432,99.616765 1799.6971,99.455116 1798,101.5 1796.6778,103.09314 1795,103.50688 1795,102.23978 1795,101.82166 1796.1446,100.24522 1797.5434,98.736569 1799.9623,96.127924 1800.2273,96.06617 1802.9531,97.475748 1804.5295,98.290943 1806.0494,99.529888 1806.3307,100.22896 1808.3116,105.15222 1805.3484,74.925644 1801.8478,54.5 1799.4841,40.708339 1797.7252,34.615555 1794.904,30.447342 L 1792.9092,27.5 1793.4586,37 C 1793.7608,42.225 1794.2289,49.65 1794.4987,53.5 1795.9321,73.948159 1796.0223,80.938048 1794.9667,89.778919 1793.7356,100.09005 1792.4817,103.8817 1790.8445,102.24446 1790.2174,101.61744 1790.47,99.014657 1791.5583,94.887097 1792.986,89.472263 1793.1439,85.531651 1792.596,69 1792.2405,58.275 1791.4347,45.225 1790.8054,40 1789.1783,26.491156 1789.2285,24.914526 1791.3265,23.623746 1792.8563,22.682596 1793.5925,23.019881 1795.8572,25.699487 1797.3445,27.459204 1799.3659,31.284204 1800.3492,34.199487 1803.8851,44.682004 1808.4951,76.606796 1809.2011,95.5 1809.4785,102.92386 1809.352,103.52117 1807.4448,103.79402 1806.3145,103.95573 1804.5572,103.16823 1803.5398,102.04402 z"/>
</svg>
