<svg xmlns="http://www.w3.org/2000/svg"
     width="42.3" height="64.0"
     viewBox="2004.6530 17.8712 59.5717 90.0420">
  <path d="M 2020.5593,99.75 C 2021.8906,95.434378 2024.0232,92.076863 2026.565,90.294782 2033.5486,85.398486 2035,83.780056 2035,80.888763 2035,77.583364 2028.3906,69.596913 2024.8996,68.684003 2021.7747,67.866827 2019.1732,71.213304 2018.3996,77.045446 2018.0257,79.864123 2017.143,82.391644 2016.438,82.66216 2014.1896,83.524953 2011.197,81.126805 2010.0014,77.504214 2008.653,73.418608 2009.2598,69.367961 2012.2084,62.771222 2013.9533,58.867391 2015.0657,57.758427 2018.585,56.414395 2022.6585,54.858716 2023.1455,54.885347 2029.5406,57.013509 2037.368,59.618302 2037.9607,59.24132 2037.9847,51.643011 2037.9982,47.367527 2037.7905,46.884668 2036.25,47.609957 2032.6626,49.298973 2026.1126,48.557154 2023.7513,46.194414 2018.8615,41.30161 2022.5675,27.332126 2029.5268,24.424358 2035.6374,21.871199 2037.6317,22.48271 2041.7106,28.160212 L 2045.4178,33.320425 2050.5956,27.531196 C 2053.5699,24.205793 2056.2473,22.034786 2056.8867,22.430001 2060.2247,24.492968 2056.665,38.587614 2051.4196,44.077143 2049.5191,46.066027 2048.819,48.132315 2048.3524,53.129479 2047.7757,59.304462 2047.8682,59.683639 2050.3472,61.307927 2054.1675,63.811098 2058.3379,73.170308 2057.4553,77.259866 2056.6336,81.066558 2053.4235,87.753435 2051.2087,90.271873 2049.7957,91.878553 2049.8066,92.371174 2051.3252,95.5558 2053.3657,99.834742 2053.3732,100 2051.5257,100 2050.0575,100 2047,95.194628 2047,92.887207 2047,92.220545 2048.4158,89.468748 2050.1462,86.772102 2056.3104,77.166163 2055.4524,69.815657 2047.3916,63.171218 L 2043.7251,60.148984 2044.9004,55.481396 C 2045.5468,52.914222 2045.8312,50.043494 2045.5324,49.102001 2045.1957,48.041388 2046.6591,45.128602 2049.379,41.445097 2053.3547,36.061084 2056.2322,29 2054.4507,29 2054.0611,29 2051.9991,30.575 2049.8683,32.5 2047.7376,34.425 2045.3113,36 2044.4765,36 2043.6418,36 2041.5314,33.975 2039.7869,31.5 2035.4191,25.303428 2031.2752,25.582591 2027.0894,32.355384 2025.0234,35.698203 2024.3426,41.476581 2025.7653,43.592752 2026.1694,44.193765 2027.9121,44.959928 2029.6379,45.295336 2032.0077,45.755891 2033.2084,45.427204 2034.5429,43.952585 2038.5361,39.540187 2041,42.749405 2041,52.36283 2041,62.075336 2039.0592,63.394617 2029.1152,60.441583 2026.229,59.584454 2022.4348,59.021954 2020.6837,59.191583 2017.9408,59.457298 2017.1136,60.261499 2014.7093,65 2012.7566,68.848518 2012.0059,71.677741 2012.2093,74.422279 2012.5746,79.351132 2014.5881,80.191653 2015.5168,75.80297 2015.9012,73.986337 2017.1039,71.0375 2018.1894,69.25 2020.8133,64.92936 2025.0957,64.837871 2030.8141,68.980284 2035.644,72.479038 2038,76.544141 2038,81.378912 2038,85.193388 2036.6432,86.937635 2030.8128,90.618194 2028.4417,92.115007 2026.1045,94.789638 2024.7732,97.529928 2022.4966,102.21593 2019.2751,103.91316 2020.5593,99.75 z M 2032,101.03896 C 2032,100.51038 2032.9148,99.225618 2034.033,98.183926 2036.2981,96.073614 2041,96.344419 2041,98.585192 2041,99.379238 2040.3778,99.698453 2039.4923,99.358664 2038.663,99.040452 2036.8789,99.504575 2035.5275,100.39005 2032.6912,102.24843 2032,102.37559 2032,101.03896 z"/>
</svg>
