<svg xmlns="http://www.w3.org/2000/svg"
     width="22.1" height="64.0"
     viewBox="1028.6885 19.0000 29.7297 86.0000">
  <path d="M 1038.9929,97.75 C 1037.9051,95.9625 1036.0416,92.666006 1034.8518,90.424458 L 1032.6885,86.348916 1036.8443,80.229327 C 1039.1299,76.863554 1041,73.8166 1041,73.458319 1041,73.100039 1039.2,70.761992 1037,68.26266 1034.8,65.763328 1033,63.364027 1033,62.930881 1033,62.497734 1034.6399,59.390356 1036.6443,56.025597 1040.6582,49.287409 1040.6002,48.670122 1035.2703,41.405609 1034.0216,39.703694 1033,37.806252 1033,37.189072 1033,35.380365 1042.3571,23 1043.7241,23 1045.2721,23 1049.6491,29.558 1050.5369,33.207458 1051.0271,35.222626 1050.4034,37.299331 1048.0977,41.329185 1044.3688,47.846662 1044.3331,48.436868 1047.4226,52.487472 1048.7551,54.234412 1050.8021,57.367183 1051.9715,59.449186 1054.3176,63.626345 1054.4182,63.344363 1048.25,69.886364 1047.0125,71.198864 1046,72.785974 1046,73.413275 1046,74.040577 1047.7792,76.921681 1049.9537,79.815729 1052.4961,83.199355 1053.6904,85.688455 1053.2993,86.788817 1052.0676,90.254643 1043.8527,101 1042.4348,101 1041.6295,101 1040.0806,99.5375 1038.9929,97.75 z M 1047.4802,37.222738 C 1048.1337,34.619068 1045.3053,27.857909 1043.3037,27.239019 1041.9864,26.831714 1036,34.516838 1036,36.615242 1036,37.338583 1037.4416,39.572245 1039.2034,41.578934 L 1042.4069,45.227461 1044.6428,42.423339 C 1045.8726,40.881073 1047.1494,38.540802 1047.4802,37.222738 z M 1050,62.664724 C 1050,60.696522 1044.2162,52.998677 1042.7437,53.007197 1042.0597,53.011155 1040.2945,54.900589 1038.8212,57.205938 1035.8641,61.832854 1036.0456,62.823835 1040.8343,68.198378 L 1043.4693,71.155634 1046.7346,67.592502 C 1048.5306,65.63278 1050,63.415279 1050,62.664724 z M 1049.643,87.286139 C 1050.3389,84.513711 1045.8082,77.993371 1043.1991,78.012379 1042.2646,78.019187 1040.4511,79.643439 1039.1691,81.621827 1036.5659,85.638966 1036.7488,87.765107 1040.201,93.616018 L 1042.3855,97.318596 1045.7248,93.455579 C 1047.5615,91.33092 1049.3247,88.554672 1049.643,87.286139 z"/>
</svg>
