<svg xmlns="http://www.w3.org/2000/svg"
     width="20.7" height="64.0"
     viewBox="220.1643 13.9993 28.6841 88.4990">
  <path d="M 226.50348,97.005631 C 226.16548,96.458728 226.42692,92.331877 227.08448,87.834851 228.51576,78.046248 227.58558,41.044737 225.58029,28 224.16429,18.788661 224.26129,17.999294 226.80902,18.001393 228.48793,18.002775 230.8197,22.692503 235.13976,34.756409 238.99584,45.524644 244.84842,84.66398 243.59868,91.325692 242.82447,95.452562 240.64009,96.976797 238.11408,95.152782 234.81509,92.770611 233.81641,92.801712 231.13558,95.370103 228.12995,98.249678 227.42597,98.498246 226.50348,97.005631 z M 232.77287,89.827126 C 233.67004,88.92996 234.55742,88.932946 236.54781,89.83983 237.97894,90.491898 239.47362,90.825318 239.86932,90.580764 240.76728,90.025798 238.6696,67.024555 236.44202,53 234.87345,43.124542 232.80525,35.906952 229.32661,28.168788 227.42396,23.936372 226.43419,24.755543 227.93953,29.316784 229.58195,34.293346 230.95543,59.091127 230.53904,76.25 230.34218,84.3625 230.50036,91 230.89055,91 231.28075,91 232.12779,90.472207 232.77287,89.827126 z"/>
</svg>
