<svg xmlns="http://www.w3.org/2000/svg"
     width="64.0" height="60.5"
     viewBox="2320.2315 18.1258 92.9409 87.8742">
  <path d="M 2336.3802,98.849199 C 2337.2641,94.429325 2341.1636,86.91572 2343.25,85.612233 2347.2759,83.097021 2344.3323,68.623463 2339.5507,67.423378 2336.3018,66.607951 2335.3684,67.331654 2333.9522,71.763928 2332.2837,76.985695 2331.3925,77.665151 2329.0236,75.521384 2324.2315,71.184586 2327.7621,59.379705 2334.7209,56.472151 2339.568,54.446886 2340.9446,54.598298 2345.4368,57.650842 2347.5824,59.108804 2350.5974,60.448338 2352.1369,60.627582 2354.4957,60.902224 2355.4344,60.228938 2358.1055,56.346728 2361.5779,51.299632 2362.7178,45.506045 2361.3055,40.082349 2359.9126,34.733358 2358.2146,34.335738 2352.1174,37.930787 2345.207,42.005313 2343.5835,41.036402 2344.2313,33.224358 2344.5643,29.208585 2345.3065,27.238928 2347.2004,25.345083 L 2349.7254,22.820026 2353.2447,25.910013 C 2357.5923,29.727197 2359.5436,29.736182 2363.9622,25.959359 2368.4472,22.125817 2370.3839,22.228756 2374.1341,26.5 2375.8243,28.425 2377.7475,30 2378.4078,30 2379.0682,30 2381.7372,28.65 2384.3389,27 2389.6987,23.600914 2392.6382,23.193524 2393.358,25.75 2396.7129,37.665446 2394.5701,40.06056 2383.9344,36.283116 2381.2757,35.33883 2378.7476,34.919115 2378.3163,35.350415 2377.885,35.781716 2377.374,39.366813 2377.1808,43.317299 2376.9073,48.911874 2377.2828,51.550245 2378.8793,55.25 2380.6673,59.393714 2381.3088,60 2383.9054,60 2385.5425,60 2387.1608,59.548815 2387.5016,58.997367 2387.8424,58.445918 2390.0798,57.102515 2392.4736,56.012025 2396.4768,54.188359 2397.1121,54.148881 2400.3933,55.519874 2404.4982,57.235005 2406.8399,60.356076 2408.0511,65.726552 2409.1724,70.698358 2407.9357,71.816225 2403.7776,69.58943 2401.7508,68.504008 2398.9735,67.9612 2396.5,68.167073 2392.8357,68.472062 2392.393,68.827874 2391.2243,72.407174 2390.2699,75.33034 2390.221,77.139615 2391.0301,79.591207 2392.1925,83.11333 2398.4415,89.370572 2401.8895,90.464914 2403.0503,90.833338 2404,91.599451 2404,92.167388 2404,94.066257 2397.2275,100 2395.0602,100 2392.2736,100 2386.0158,96.783133 2383.5948,94.106129 L 2381.6895,91.999439 2378.1729,94.681699 C 2373.2001,98.474653 2365.9182,98.961215 2358.0672,96.025131 2352.9078,94.095652 2351.648,93.961064 2348.493,95.002304 2346.4948,95.66176 2344.6226,96.819962 2344.3324,97.576085 2343.8054,98.949618 2338.5574,102 2336.7214,102 2336.1651,102 2336.0193,100.65363 2336.3802,98.849199 z M 2399.3992,94.646816 C 2400.2884,93.149819 2400.123,92.573211 2398.5386,91.646816 2397.4599,91.016067 2394.7599,88.716434 2392.5386,86.53652 2388.7021,82.771401 2388.5003,82.270928 2388.5057,76.53652 2388.5099,72.113517 2389.0445,69.752944 2390.5057,67.705101 2392.4367,64.998945 2392.7118,64.929176 2399.1702,65.507785 2405.5857,66.082561 2405.8194,66.025208 2405.2911,64.005132 2404.691,61.71043 2399.1068,57 2396.9865,57 2396.2579,57 2393.2696,58.35 2390.346,60 2383.9839,63.590574 2382.0172,63.723746 2379.2702,60.75 2374.2963,55.365631 2372.7172,45.82504 2375.2391,36.395682 L 2376.4783,31.762662 2373.0269,28.881331 C 2371.1287,27.296599 2369.2281,26 2368.8036,26 2368.379,26 2366.6026,27.276775 2364.8561,28.837278 2361.6914,31.66493 2361.6849,31.691224 2362.9325,36.587278 2365.1022,45.101515 2365.1242,47.841874 2363.0584,52.276708 2358.1573,62.798463 2352.1905,65.483021 2344.9138,60.440271 2340.9654,57.704042 2340.7118,57.661393 2336.696,59.05845 2331.6983,60.797109 2327.4436,67.091858 2329.1328,70.248098 2330.0448,71.95227 2330.309,71.840053 2332.3137,68.897154 2335.5062,64.210496 2337.1988,63.425508 2340.8504,64.938053 2347.2847,67.603209 2349.9967,82.978018 2344.8536,87.632474 2342.4789,89.781593 2339.6089,94.942245 2340.3669,95.700266 2340.6499,95.98319 2343.3831,94.783307 2346.4408,93.03386 L 2352.0003,89.853048 2357.7501,92.671909 C 2366.0974,96.764141 2370.8307,96.409301 2379.7195,91.024929 L 2382.9389,89.074742 2384.4715,91.262721 C 2388.1035,96.448175 2397.1155,98.491184 2399.3992,94.646816 z M 2352.0398,34.979676 C 2354.2179,33.868498 2356,32.603124 2356,32.167735 2356,31.732345 2354.6158,30.352717 2352.924,29.101895 2349.9885,26.931653 2349.7599,26.90728 2347.924,28.568824 2345.501,30.761589 2345.3401,37 2347.7065,37 2347.9117,37 2349.8617,36.090854 2352.0398,34.979676 z M 2363.4545,83.545455 C 2359.3267,79.417621 2360.4666,69.220451 2365.442,65.765313 2367.8567,64.08848 2372.2194,65.065508 2375.0769,67.923077 2377.4416,70.287787 2378,71.705782 2378,75.346352 2378,84.531021 2369.3283,89.419176 2363.4545,83.545455 z M 2373.5455,81.545455 C 2377.6982,77.392699 2376.2037,70.155463 2370.7248,67.886022 2367.9354,66.730609 2367.5324,66.842289 2365.3546,69.374197 2361.5294,73.821201 2362.575,81.083062 2367.3154,82.99302 2370.5477,84.295355 2370.8706,84.220334 2373.5455,81.545455 z M 2391.5376,32.25 C 2391.1641,30.7375 2390.487,29.119218 2390.0331,28.653818 2389.1777,27.776957 2382,30.696166 2382,31.9209 2382,32.876306 2386.9909,34.764273 2389.8584,34.893619 2391.9432,34.987657 2392.138,34.68093 2391.5376,32.25 z"/>
</svg>
