<svg xmlns="http://www.w3.org/2000/svg"
     width="25.6" height="64.0"
     viewBox="2066.2285 20.3625 33.8428 84.6375">
  <path d="M 2081.5567,96.777494 C 2079.1932,93.403082 2079.4686,80.129932 2082.0532,72.850209 2083.6692,68.298682 2083.8685,66.62272 2082.9891,64.979634 2077.5277,54.774914 2077.8606,33.003119 2083.5689,27.059524 2085.8996,24.632763 2086.0481,26.367783 2083.9763,31.820331 2080.616,40.663903 2081.7302,58.975314 2085.9453,64.180786 2087.6692,66.309714 2087.6498,66.556347 2085.3747,71.442282 2082.4823,77.653714 2082.0151,91.194767 2084.5257,96.04966 2085.8542,98.618757 2085.8615,99 2084.5824,99 2083.7744,99 2082.4129,97.999872 2081.5567,96.777494 z M 2091.6183,98.47545 C 2088.0633,94.920469 2087.5512,82.791453 2090.5243,72.564419 2091.684,68.575097 2091.8005,66.605575 2091.0012,64.503135 2088.7532,58.590487 2088.0598,44.88113 2089.6489,37.766407 2091.2123,30.766481 2094.8984,24.362535 2094.9667,28.527494 2094.985,29.642615 2094.2342,31.648387 2093.2981,32.984765 2090.0251,37.657623 2091.1785,57.95578 2095.1574,65.704663 2096.0713,67.484486 2095.9322,68.447989 2094.4356,70.704663 2091.7958,74.685132 2091.0984,91.355836 2093.3866,95.780627 2095.1623,99.214491 2094.051,100.90812 2091.6183,98.47545 z M 2072.8621,98.25 C 2070.2285,91.595694 2071.083,76.832314 2074.5871,68.445845 2075.9005,65.302436 2075.8129,64.647486 2073.3614,59.280265 2071.2052,54.559564 2070.723,52.033542 2070.7308,45.5 2070.7409,37.030397 2072.0254,30.715157 2074.3978,27.470674 2076.6503,24.390221 2077.073,26.141873 2075.259,31.039047 2072.0697,39.648848 2073.478,55.387583 2078.1,62.788527 2078.9881,64.210667 2078.8,65.558821 2077.2261,69.050425 2073.5902,77.11669 2072.5914,93.150875 2075.469,97.259197 2077.4024,100.01955 2077.4041,101 2075.4752,101 2074.6366,101 2073.4607,99.7625 2072.8621,98.25 z"/>
</svg>
