<svg xmlns="http://www.w3.org/2000/svg"
     width="57.3" height="64.0"
     viewBox="1511.0000 12.8227 84.7337 94.6233">
  <path d="M 1542.2422,94.403034 C 1540.9146,86.05916 1541.1493,85.136267 1546.1535,79.022156 1549.6391,74.763467 1549.6818,73.582613 1546.5007,69.411991 1543.322,65.244596 1540.7836,64.440486 1537.532,66.571001 1533.337,69.31966 1527.0237,78.020311 1525.8542,82.6646 1525.2261,85.159135 1524.1761,87 1523.3813,87 1521.1901,87 1521.7517,83.982637 1525.1914,77.275169 1526.9472,73.851512 1528.096,70.76271 1527.7445,70.411165 1526.7384,69.405114 1521.7245,73.78435 1519.2551,77.825905 1516.645,82.097749 1516.3814,84.825382 1518.5,85.638374 1520.4292,86.378665 1520.4566,89 1518.5352,89 1516.6886,89 1515,85.917079 1515,82.54587 1515,79.52087 1518.6418,73.455794 1522.3792,70.256613 1525.548,67.544159 1525.5807,66.722437 1522.8753,57.815223 1521.0898,51.936929 1520.8289,49.117852 1521.2414,40.159986 1521.8476,26.996543 1524.2773,19.5 1527.9375,19.5 L 1530.3125,19.5 1530.5009,34 C 1530.6871,48.325422 1531.9115,55.007344 1534.3478,54.993411 1534.9815,54.989787 1536.85,54.092752 1538.5,53 1542.4359,50.393364 1543.0471,50.461276 1547.5,54 1554.0244,59.184955 1555.958,57.732408 1555.9863,47.625 1555.9998,42.817947 1555.961,42.757797 1553.2029,43.309419 1548.9204,44.165912 1547.6761,42.877511 1548.436,38.373739 1548.8571,35.877846 1548.5401,32.943603 1547.5448,30.124273 1545.6307,24.702622 1545.529,20 1547.3257,20 1548.0548,20 1549.7083,21.125 1551,22.5 1554.1254,25.826821 1555.3956,25.658977 1558.5678,21.5 1561.9545,17.059811 1565.3398,16.822717 1567.4373,20.878819 1569.4453,24.761861 1571.1345,25.20453 1574.9921,22.858601 1581.1882,19.090512 1582.7911,23.305802 1577.7532,30.119894 1576.2137,32.202296 1575.5813,34.534475 1575.5475,38.255365 1575.5021,43.238364 1575.3677,43.49469 1572.5404,43.988607 1570.1297,44.409751 1569.4511,45.140066 1568.8812,47.92649 1568.0996,51.748054 1569.3058,56 1571.1715,56 1571.843,56 1574.1002,54.816575 1576.1873,53.370168 1580.65,50.27753 1581.5446,50.701925 1585.5071,57.791591 1590.0608,65.939135 1591.7337,76.979878 1589.2992,82.819219 1587.4049,87.362743 1585.7598,86.379768 1584.4561,79.92533 1582.8884,72.163881 1579.3206,66 1576.3957,66 1574.0947,66 1569.0095,72.340248 1569.0046,75.215272 1569.0021,76.708671 1570.333,80.032505 1571.9623,82.60157 L 1574.9246,87.272597 1572.5806,91.386299 C 1571.2914,93.648834 1569.9498,96.7375 1569.5992,98.25 1569.2487,99.7625 1568.3058,101 1567.504,101 1565.1195,101 1562.7436,96.444 1563.4502,93.226703 1563.9454,90.972121 1563.4197,89.544815 1560.9492,86.436063 1559.2288,84.271228 1557.4299,82.5 1556.9517,82.5 1556.4735,82.5 1554.9387,84.049926 1553.5411,85.94428 1551.6599,88.494171 1551,90.621753 1551,94.137576 1551,97.911456 1550.5436,99.206237 1548.7775,100.4433 1544.4905,103.44605 1543.5414,102.56887 1542.2422,94.403034 z M 1548.4986,91.995637 C 1548.1634,90.939587 1548.4097,89.046048 1549.0459,87.787773 1550.1569,85.590575 1556.8926,79 1558.0273,79 1558.3294,79 1560.3365,81.105559 1562.4877,83.679021 1565.7536,87.58613 1566.3533,88.9884 1566.1229,92.179021 1565.9712,94.280559 1566.062,96 1566.3248,96 1567.1794,96 1571,88.928932 1571,87.34721 1571,86.501052 1570.159,84.614274 1569.1312,83.15437 1566.3072,79.143331 1565.7383,76.323079 1566.9887,72.534285 1568.2286,68.777291 1574.1105,63 1576.6956,63 1579.3244,63 1583.8844,68.957484 1585.7251,74.79684 1587.3305,79.889794 1587.4766,80.049521 1588.1672,77.467158 1588.971,74.461583 1587.1661,66.259713 1584.4339,60.501862 1582.2794,55.961724 1579.27,53.737895 1577.0954,55.078977 1568.9144,60.124096 1569.1023,60.059649 1568.0898,58.167809 1567.5686,57.193953 1567.0397,52.8203 1566.9145,48.448581 L 1566.6869,40.5 1569.5934,40.440107 C 1572.3206,40.38391 1572.4858,40.147103 1572.2699,36.603655 1572.0077,32.299945 1565.6324,21 1563.4666,21 1561.3458,21 1558.6739,24.348449 1554.9149,31.717043 1553.0367,35.398646 1551.3276,38.835508 1551.117,39.354513 1550.8877,39.919447 1552.4345,40.026226 1554.9713,39.620576 L 1559.2087,38.942991 1558.5252,46.221496 C 1557.0431,62.004549 1555.4434,63.718745 1548,57.5 1543.015,53.335111 1541.729,53.208817 1537.8176,56.5 1536.1835,57.875 1534.2121,59 1533.4367,59 1530.4824,59 1528.8009,51.942968 1528.2543,37.25 1527.9628,29.4125 1527.3803,23 1526.9599,23 1524.2612,23 1522.1139,44.719219 1524.0583,52.34929 1528.3805,69.310026 1529.073,69.971516 1536.5944,64.323616 1538.2963,63.045627 1540.5746,62 1541.6573,62 1543.7222,62 1547.4027,65.516414 1550.422,70.373744 1552.4904,73.701391 1551.8385,75.890859 1546.9367,82.079973 1543.7469,86.107367 1543.348,89.091784 1545.1815,95.211409 L 1546.363,99.154858 1547.7355,96.535293 C 1548.4904,95.094533 1548.8338,93.051687 1548.4986,91.995637 z M 1553,29.7 C 1553,28.259054 1551.0462,26 1549.8,26 1548.5864,26 1548.8437,28.443664 1550.2,29.8 1551.7703,31.370311 1553,31.326394 1553,29.7 z M 1577.0298,26.944306 C 1577.8099,25.486659 1577.7487,25.003833 1576.7852,25.015313 1574.4143,25.043562 1572.6963,26.766141 1573.3472,28.462457 1574.0774,30.365219 1575.5165,29.771937 1577.0298,26.944306 z"/>
</svg>
