<svg xmlns="http://www.w3.org/2000/svg"
     width="33.4" height="64.0"
     viewBox="2707.3600 25.0000 40.9323 78.4928">
  <path d="M 2715.6476,97.238796 C 2715.3436,96.746949 2715.1084,89.17951 2715.125,80.422264 2715.1552,64.470255 2713.5041,43.860404 2711.9626,40.947427 2711.36,39.808782 2712.5409,38.009178 2716.3919,34.197427 2719.2799,31.338842 2722.013,29 2722.4655,29 2722.9179,29 2724.7632,30.6875 2726.5661,32.75 2729.8415,36.496889 2729.8466,36.498575 2732.6721,34.782148 2740.3462,30.120385 2742.0704,29.497706 2743.0438,31.036606 2744.2923,33.010524 2744.2446,39.674512 2742.9648,42.065741 2741.7775,44.284274 2737.9581,44.610594 2734.9559,42.75 2732.0431,40.944791 2731.4024,42.524513 2730.6677,53.322708 2729.7123,67.36343 2726.0634,94.336567 2724.9717,95.428303 2723.6205,96.779507 2723.7258,93.962918 2725.4819,81.780274 2727.0339,71.013475 2728.972,50.071706 2728.9897,43.878609 2728.9976,41.099546 2728.1278,39.279387 2725.25,36.053266 L 2721.5,31.849315 2718.2543,35.217798 2715.0087,38.58628 2716.4584,51.04314 C 2717.2965,58.244111 2717.819,70.535214 2717.6968,80.173996 2717.5003,95.664517 2717.0406,99.492806 2715.6476,97.238796 z M 2741,37.5 C 2741,33.480585 2739.6904,33.096799 2736,36.034741 2733.554,37.982034 2733.5419,38.057129 2735.4411,39.512505 2738.9207,42.178875 2741,41.426079 2741,37.5 z"/>
</svg>
