<svg xmlns="http://www.w3.org/2000/svg"
     width="22.1" height="64.0"
     viewBox="2163.4603 20.0000 30.4978 88.3140">
  <path d="M 2167.8104,54.25 C 2167.4603,50.020895 2168.5258,42.507634 2169.9021,39.5 2170.4055,38.4 2172.1848,34.4625 2173.8561,30.75 2175.6513,26.762473 2177.5095,24 2178.3966,24 2181.3186,24 2185.5454,31.305276 2187.9301,40.476964 2189.2037,45.375457 2188.2091,54.982532 2186.3546,55.694152 2185.6126,55.97892 2183.3373,54.747302 2181.2985,52.957224 L 2177.5916,49.702537 2173.9099,53.851268 C 2171.885,56.133071 2169.7541,58 2169.1745,58 2168.5949,58 2167.9811,56.3125 2167.8104,54.25 z M 2174.2911,101.18469 C 2170.4261,97.021556 2168.9693,93.47725 2168.3361,86.696827 2167.8607,81.605071 2168.0606,80.1946 2169.4174,79.068566 2170.8749,77.858926 2171.487,78.079701 2174.3386,80.843548 2176.1297,82.579597 2178.3176,84 2179.2006,84 2180.0836,84 2182.1904,82.3125 2183.8823,80.25 2186.4545,77.11458 2187.1306,76.745832 2188.0075,78 2189.9581,80.78949 2186.7615,94.136432 2182.6343,100.43532 2180.2741,104.03756 2177.1962,104.314 2174.2911,101.18469 z M 2174.2508,50.25971 2177.1111,47.519419 2181.0036,49.75971 C 2183.1446,50.991869 2185.0853,52 2185.3164,52 2186.7864,52 2186.5452,43.435676 2184.938,38.563993 2182.9946,32.673274 2180.0321,27 2178.8994,27 2176.5623,27 2170,43.096116 2170,48.828461 2170,51.122807 2170.3129,53 2170.6953,53 2171.0777,53 2172.6777,51.766869 2174.2508,50.25971 z M 2181.3187,99.200354 C 2184.4028,95.792392 2188.1395,82 2185.9786,82 2185.367,82 2183.3037,83.192054 2181.3935,84.649008 L 2177.9205,87.298016 2175.1555,84.649008 C 2170.8056,80.481491 2169.6237,81.105989 2170.4253,87.148522 2171.1421,92.552021 2176.0016,101 2178.3931,101 2179.1064,101 2180.4229,100.19016 2181.3187,99.200354 z"/>
</svg>
