<svg xmlns="http://www.w3.org/2000/svg"
     width="62.7" height="64.0"
     viewBox="797.9806 10.4963 96.0194 98.0436">
  <path d="M 885.0625,56.375 C 882.62027,58.465677 880.02957,59.84146 877.03125,60.5 873.82035,61.205233 872.11285,59.923965 866.96875,53.09375 L 864.4375,49.75 860.09375,51.96875 C 854.97668,54.579286 853.65273,53.626916 854.625,48 855.43796,43.295082 856.43121,42.408718 859.375,43.75 862.4851,45.167054 862.99162,44.584633 862.96875,39.59375 862.95661,36.94244 861.72916,33.08595 859.46875,28.625 857.55404,24.846283 856,20.974939 856,20 856,19.025061 855.30234,17.956871 854.4375,17.625 850.83247,16.241623 845.86899,21.403716 839.5625,33.15625 834.6253,42.357041 834.70716,43.370351 840.28125,42.8125 843.19931,42.520462 843.54097,42.778191 843.84375,45.4375 844.02793,47.055158 843.8904,50.354989 843.53125,52.75 842.94547,56.656225 842.64473,57.01685 840.6875,56.40625 839.48748,56.031875 837.01634,54.442847 835.21875,52.875 829.71531,48.07492 827.48198,48.110557 822.5,53 820.12084,55.334969 817.74242,56.967958 817.1875,56.625 816.54308,56.226728 816.35339,50.558063 816.6875,40.96875 816.97521,32.711245 816.92152,24.382453 816.5625,22.46875 815.06687,14.496311 808.82681,21.184644 805.59375,34.21875 801.98063,48.785103 803.77335,63.045828 810.125,70 813.81707,74.042292 816.61004,73.789263 822,68.96875 824.475,66.755234 827.48377,64.686871 828.6875,64.375 831.75759,63.579578 835.74842,66.778386 836.96875,71 838.32705,75.698961 838.45432,75.266989 834.5,80 830.68878,84.561739 830.14542,88.056798 832.09375,95.5 832.66962,97.7 833.30983,100.4 833.5,101.5 833.69018,102.6 833.86041,103.6125 833.90625,103.75 833.95208,103.8875 835.504,104 837.34375,104 842.3973,104 844.09211,101.53751 843.34375,95.21875 842.64726,89.338028 844.69518,82.481918 848.09375,79.40625 850.08791,77.601561 850.19574,77.638908 853.53125,81.53125 857.97497,86.71682 858.28955,87.881084 856.59375,92.6875 855.2997,96.355242 855.35605,96.977556 857.03125,99.53125 859.20689,102.84782 861.87688,104.53988 863.03125,103.34375 864.05511,102.28286 867.94832,91.487946 868.6875,87.6875 869.10664,85.532562 868.37192,83.641653 865.5625,79.5625 861.15561,73.163889 859.84172,67.375819 862.53125,66.34375 864.30521,65.663019 865.31943,66.554459 869.71875,72.59375 870.83073,74.120248 872.91823,75.277856 875.25,75.65625 878.56626,76.194405 879.60153,75.764864 884.5625,71.9375 887.57292,69.614972 889.07963,68.704688 890,68.625 L 885.0625,56.375 z M 813.9375,21.5 813.96875,39.5625 C 813.99348,53.66166 814.31507,58.046996 815.4375,59.5625 816.81683,61.424872 817.06754,61.306549 821.84375,56.625 827.38044,51.198054 829.41377,50.99362 834.0625,55.34375 839.19396,60.145606 844.4159,61.481994 845.375,58.25 845.66062,57.2875 845.95976,53.8 846.03125,50.5 846.26292,39.805253 846.32177,40 843,40 841.01823,40 840,39.508766 840,38.53125 840,35.407913 843.35919,28.860935 847.03125,24.84375 851.67249,19.766313 852.51863,20.167773 857.03125,29.71875 860.9347,37.980403 860.70462,40.373165 856.0625,40.4375 L 852.65625,40.5 852.40625,46 C 852.26221,49.025 852.55842,53.185419 853.09375,55.25 L 854.09375,59 856.71875,56.5625 C 860.72537,52.847351 864.16406,52.322222 866,55.15625 866.82985,56.437243 868.91005,59.045275 870.625,60.9375 L 873.75,64.375 879.625,62.1875 C 885.151,60.140812 885.57974,60.13477 886.78125,61.75 888.7644,64.415996 887.91167,66.033946 882.5625,69.71875 876.50496,73.891515 873.88079,73.532085 869.15625,67.9375 865.32113,63.396116 862.72935,62.970949 860.4375,66.46875 858.30973,69.716133 859.16797,73.331693 863.53125,79.46875 867.61235,85.208891 867.71619,86.413701 864.75,94.125 862.32176,100.43778 860.96785,101.24662 858.5625,97.8125 857.1957,95.861121 857.21476,95.352981 858.53125,93.34375 860.83448,89.828584 860.30701,86.973225 856.34375,81.21875 851.66828,74.430187 849.82682,74.581392 844.5625,82.25 840.93122,87.539732 840.63127,88.523271 840.6875,94.5 840.74729,100.85508 840.07295,102.04652 837.40625,100.25 835.96155,99.276715 833,90.339251 833,86.96875 833,85.501969 833.93744,83.452695 835.09375,82.40625 838.00969,79.767356 840,75.626683 840,72.1875 840,69.983918 838.80182,68.187106 834.96875,64.65625 L 829.90625,60 823.3125,65 C 819.68061,67.749411 815.94579,70 815.03125,70 812.99223,70 809.93636,65.915962 807.6875,60.21875 804.32537,51.701191 806.63021,31.263309 811.71875,24.46875 L 813.9375,21.5 z"/>
</svg>
