<svg xmlns="http://www.w3.org/2000/svg"
     width="61.6" height="64.0"
     viewBox="124.0000 8.6220 93.1116 96.7401">
  <path d="M 128,61.8125 C 128.68231,61.747766 130.61795,62.41301 132.96875,63.59375 139.1749,66.710922 140.80363,66.631993 145.5625,63.03125 150.13848,59.568887 151.04066,59.434755 155.65625,61.625 160.27701,63.817691 162.74694,69.336099 160.5,72.40625 152.9918,82.665195 151.93956,84.705741 152.875,87.09375 153.8771,89.651915 161.15109,97.005054 164.5,98.84375 169.08684,101.36212 171.28742,100.29186 181.71875,90.59375 185.15242,87.40144 187,84.886228 187,83.375 187,82.099915 185.425,78.189608 183.5,74.6875 181.575,71.185392 180,67.430152 180,66.3125 180,63.756459 183.65508,59 185.625,59 186.44026,59 189.69427,60.736228 192.84375,62.875 L 198.5625,66.78125 199.875,74.625 C 201.81175,86.19025 201.9353,86.502196 203.625,84.8125 204.75959,83.677913 204.82847,82.32565 204,77.9375 203.43389,74.938964 202.68879,71.595687 202.34375,70.5 201.20631,66.888091 204.60857,70.643139 206.90625,75.53125 209.53003,81.113095 209.55082,84.467436 206.96875,87.75 205.4952,89.623316 205.22984,90.62274 206.03125,91.40625 207.32384,92.669977 211.53149,88.046857 212.46875,84.3125 213.1116,81.751183 209.14092,71.461456 205.75,66.875 L 203.625,64.03125 205.75,59.75 C 209.0091,53.138703 210.01115,48.048619 210.09375,37.75 210.15509,30.102247 209.77245,27.480515 208.15625,24.3125 205.06543,18.253994 203.61895,17.433453 200.28125,19.8125 196.42468,22.561381 193.54876,25.89251 194.34375,26.6875 194.70921,27.052963 196.01467,26.396178 197.25,25.25 199.38498,23.269101 201.14459,22.610748 203.59375,22.875 204.19771,22.940166 205.50998,24.80453 206.5,27 208.23595,30.84965 208.25748,37.414249 206.5625,50.125 206.03357,54.091495 202.31103,61.958751 200.65625,62.59375 198.91051,63.263653 194.41349,61.072323 190.09375,57.4375 186.23497,54.190557 183.07139,54.705234 179.96875,59.0625 176.13214,64.450522 176.23377,68.945159 180.40625,76.40625 183.40471,81.767995 183.88126,83.353341 183,85 182.4076,86.106914 181.51687,87 181.03125,87 180.54564,87 177.90287,89.269989 175.125,92.0625 171.04986,96.159124 169.62294,97.033441 167.84375,96.46875 164.66931,95.461219 156,87.033761 156,84.96875 156,84.007197 157.98314,80.825684 160.40625,77.875 165.69433,71.435566 165.92422,70.641419 163.84375,65.5 162.71981,62.722435 160.98598,60.805269 158.21875,59.25 152.97017,56.300137 151.00573,56.409277 145.34375,60 142.74197,61.65 139.91732,63.002056 139.0625,63 136.29207,62.993337 130.71645,58.959671 128.28125,55.75 L 128,61.8125 z M 168.34375,75.4375 C 165.91328,75.916993 163.93335,77.993695 162.34375,81.75 161.15176,84.56675 161.16935,85.424744 162.46875,87.9375 163.29667,89.53852 164.78002,91.059533 165.75,91.3125 168.68682,92.078417 169.05819,92.033492 171.28125,90.84375 178.90538,86.76344 178.6906,77.202867 170.9375,75.5 170.02781,75.300199 169.15391,75.277669 168.34375,75.4375 z M 128.46875,52.1875 C 129.71187,52.359949 131.69033,53.403045 134.4375,55.5 136.95938,57.425 139.56726,59.004137 140.25,59 140.93274,58.995863 143.46088,56.989371 145.875,54.53125 152.5445,47.740211 153.26009,47.757823 163.5,55.40625 164.16945,55.906281 165.50074,56.015718 166.4375,55.65625 167.85616,55.11186 168.1011,53.820221 167.90625,47.8125 167.67218,40.595579 166.49164,35.221276 164.34375,31.5625 163.31922,29.817278 162.80069,29.739467 159.40625,30.78125 154.63411,32.245861 153,31.065361 153,26.1875 153,22.489808 156.97014,17 159.65625,17 160.36908,17 162.11196,19.292916 163.53125,22.09375 165.88122,26.7312 166.36619,27.113697 168.8125,26.53125 170.28998,26.179476 172.72852,25.01156 174.21875,23.9375 175.70898,22.863441 177.39648,22 177.96875,22 179.97097,22 178.98025,25.565285 175.96875,29.21875 L 172.9375,32.90625 173.71875,41.59375 C 174.64916,51.855393 176.05768,53.650584 180.5,50.15625 184.41254,47.078645 186.56368,47.438558 191.78125,52.03125 194.30428,54.252104 197.07613,55.939604 197.9375,55.78125 200.0951,55.384603 203.03567,49.005192 204.6875,41.125 205.95306,35.087543 205.92152,34.403691 204.34375,33.25 202.95284,32.232939 202.24648,32.267132 200.625,33.34375 197.53236,35.39719 197.48865,37 200.53125,37 203.10177,37 203.19339,37.172711 202.53125,40.75 201.95788,43.847643 199.50329,50.348022 198.34375,51.875 197.85544,52.518058 192,49.806258 192,48.9375 192,48.491678 190.65851,47.189959 189.03125,46.03125 L 186.09375,43.9375 182.0625,46.46875 C 179.85069,47.865007 177.70468,49.000503 177.28125,49 176.85782,48.999498 176.40052,45.4716 176.28125,41.15625 176.10374,34.734097 176.40706,32.952945 177.90625,31.34375 180.90912,28.12055 182,25.360329 182,21.0625 182,16.149078 180.85593,15.942078 175.4375,19.84375 168.3354,24.957797 167.00045,24.633101 164.46875,17.25 163.75972,15.182288 162.46657,13.339108 161.5625,13.15625 158.92136,12.62205 152.92424,17.921711 150.84375,22.625 149.07698,26.619084 149.04351,27.181395 150.46875,29.9375 152.51457,33.893674 155.16891,35.262081 158.40625,34.03125 161.58134,32.824081 163.71235,34.696699 164.40625,39.28125 166.41454,52.549855 166.03516,53.641361 160.6875,49.5625 154.74423,45.029345 152.12997,45.175851 146.3125,50.40625 143.50798,52.927757 140.73537,55 140.15625,55 138.84378,55 130.73043,49.565827 129.09375,47.59375 128.963,47.436203 128.92029,46.538873 128.8125,46.1875 L 128.65625,48 128.46875,52.1875 z M 203.5625,27.09375 C 202.69494,26.74554 200.62381,27.791352 198,30 196.075,31.620409 195.11491,32.953955 195.875,32.96875 197.70101,33.004295 204,29.078756 204,27.90625 204,27.473457 203.85169,27.20982 203.5625,27.09375 z M 169.78125,79.1875 C 173.50871,79.620822 175.33713,84.542043 172.53125,86.59375 170.06071,88.400256 166.573,88.38254 165.0625,86.5625 164.13712,85.447489 164.23521,84.445822 165.5,82 166.7947,79.496328 167.64387,78.939026 169.78125,79.1875 z"/>
</svg>
