<svg xmlns="http://www.w3.org/2000/svg"
     width="16.0" height="64.0"
     viewBox="361.5938 13.1303 23.3294 93.1445">
  <path d="M 365.59375,51.65625 365.875,54.28125 C 365.9357,54.261884 366.44575,54 366.46875,54 366.75748,54 366.98455,55.0125 366.96875,56.25 366.96184,56.791577 366.69646,57.34914 366.28125,57.9375 L 366.65625,61.34375 366.40625,62.375 C 366.43638,62.381788 366.60838,62.264629 366.625,62.28125 366.95134,62.607591 367.52285,71.118681 367.875,81.1875 L 368.5,99.5 372.90625,99.28125 C 380.92311,98.907934 380.33787,102.27485 379.5625,60.71875 379.18044,40.24225 378.64497,22.4875 378.34375,21.25 377.89426,19.403312 377.08309,19 373.9375,19 371.82958,19 369.80704,18.504172 369.4375,17.90625 368.95794,17.130308 368.43663,17.157218 367.625,17.96875 366.87628,18.717385 366.4836,24.564346 366.4375,35.125 L 366.375,51.1875 365.59375,51.65625 z M 372.34375,22.1875 C 374.97165,22.44631 375.52061,23.021137 376.125,26 377.01998,30.411092 377.30438,93.053441 376.4375,95.3125 375.68894,97.263228 372.10766,97.584902 371.53125,95.75 371.31529,95.0625 370.88565,88.65 370.5625,81.5 370.23936,74.35 369.77298,66.25 369.53125,63.5 368.65696,53.55392 368.07059,27.834563 368.65625,24.90625 369.18499,22.262572 369.62831,21.920067 372.34375,22.1875 z"/>
</svg>
