<svg xmlns="http://www.w3.org/2000/svg"
     width="64.0" height="60.1"
     viewBox="2584.9631 19.4964 83.3494 78.2853">
  <path d="M 2652.8438,59.78125 C 2652.5897,71.597961 2651.2183,75 2646.5938,75 2643.7663,75 2642.3338,74.209082 2639.2812,70.90625 2633.9933,65.184896 2630.661,63.584996 2626.7812,64.9375 2625.0951,65.525326 2623.39,66 2623,66 2622.6099,66 2622.2376,63.1875 2622.1875,59.75 2622.1063,54.165402 2622.3999,53.180607 2624.9688,50.5 2630.6714,44.549467 2633.8479,30.888894 2630.5625,26.4375 2628.7863,24.030949 2628.0371,24.803886 2625.0625,32 2622.2358,38.838285 2620.3502,41 2617.2812,41 2614.3735,41 2612,36.090544 2612,30.125 2612,23.496415 2608.0444,23.905847 2599.3438,31.40625 2593.892,36.105819 2592.6283,39.719414 2594.8438,44.15625 2596.4166,47.306181 2601.8035,50.938662 2606.9375,52.28125 2608.7246,52.748577 2609,53.601409 2609,58.90625 2609,62.257741 2608.5421,65 2608,65 2607.4578,65 2605.0735,64.481893 2602.6875,63.84375 2598.7268,62.784428 2598.079,62.885318 2595.2188,65 2593.4958,66.273898 2591.6051,68.666182 2591.0312,70.3125 2588.9631,76.245372 2590.2455,86.268589 2593.3125,88.21875 2595.4863,89.60101 2595.9963,89.03092 2596,85.25 2596.0051,80.174759 2599.2399,75 2602.4062,75 2603.7471,75 2606.2721,76.202333 2608,77.65625 2610.8805,80.080041 2611.1033,80.765682 2610.9688,85.90625 2610.769,93.534746 2610.8528,93.78171 2612.5312,91.5625 2613.3388,90.494879 2614.0027,87.569879 2614,85.0625 2613.9961,81.291015 2613.4163,79.87984 2610.6562,76.875 2608.8212,74.877306 2606.3661,72.93656 2605.1875,72.5625 2601.8701,71.509581 2597.8516,74.058179 2595.5,78.75 2593.0789,83.580458 2592,83.340323 2592,77.96875 2592,72.690815 2593.7374,68.478519 2596.5,67 2599.3268,65.487173 2604.5721,66.286388 2607.1562,68.625 2608.1343,69.510172 2609.6522,69.96231 2610.5312,69.625 2611.8962,69.101249 2612.038,67.748343 2611.5,60.28125 2611.1535,55.47224 2610.6728,51.329104 2610.4375,51.09375 2610.2021,50.858396 2607.6517,49.854581 2604.7812,48.84375 2598.7253,46.711084 2597.1073,45.333944 2596.4688,41.8125 2595.9104,38.73372 2598.2842,35.468135 2603.875,31.59375 2608.5527,28.352108 2609.8125,28.71449 2609.8125,33.34375 2609.8125,38.580665 2612.3829,42.626555 2616.2188,43.40625 2619.7107,44.11601 2620.5834,43.440614 2625.6562,36.46875 2626.8489,34.8296 2628.1755,33.831834 2628.5938,34.25 2629.897,35.553208 2626.035,45.905272 2622.9062,49.46875 2620.0686,52.700539 2619.9395,53.244312 2620.2188,60.6875 2620.5436,69.345296 2619.9327,68.844598 2628.25,67.40625 2631.7345,66.803674 2632.2855,67.068735 2636.25,71.28125 2645.092,80.676452 2651.0243,80.351487 2654.5,70.3125 2655.2267,68.213592 2655.6151,65.380406 2655.3438,64 2655.274,63.645052 2655.4764,61.500101 2655.4688,60.625 L 2652.8438,59.78125 z M 2661.875,62.6875 C 2661.8569,63.183312 2661.7959,63.48343 2661.7812,64 2661.5015,73.894003 2661.0185,77.314525 2659.4688,80.4375 2655.8558,87.718249 2648.5451,87.729571 2639.6875,80.4375 2632.677,74.666119 2628.9441,73.469508 2626.0938,76.125 2624.6271,77.49146 2624,79.309008 2624,82.21875 2624,87.434568 2625.9704,93 2627.8125,93 2628.7949,93 2628.9745,92.47265 2628.4062,91.25 2627.9587,90.2875 2627.5551,87.025 2627.5312,84 2627.4905,78.858953 2627.6546,78.4928 2630,78.21875 2631.779,78.010886 2634.0379,79.201731 2637.7188,82.34375 2644.4153,88.059807 2651.6354,90.10952 2655.7812,87.46875 2662.6529,83.091737 2663.9087,79.485205 2664.3125,63.46875 L 2661.875,62.6875 z"/>
</svg>
