<svg xmlns="http://www.w3.org/2000/svg"
     width="23.7" height="64.0"
     viewBox="912.5384 15.8479 33.4304 90.3830">
  <path d="M 941.96875,66.78125 941.78125,62.4375 C 941.57947,62.135187 941.34699,61.881297 941.1875,61.53125 940.27304,59.524226 940.67746,58.498213 941.625,58.46875 L 941.34375,52 941.4375,51.5625 C 940.94293,48.96846 940.76835,45.437214 940.8125,39.3125 940.86731,31.709762 941.02283,24.825 941.1875,24 941.35218,23.175 941.05,22.275 940.5,22 939.07422,21.28711 938.07755,31.378357 938.15625,45.8125 938.19314,52.578315 938.03177,58.311974 937.78125,58.5625 937.53072,58.813027 935.4454,57.658253 933.15625,56 L 929,52.96875 929.25,36.5 C 929.44379,23.8373 929.20971,19.999267 928.25,20 927.30054,20.000724 927,23.967175 927,36.5 927,51.666667 926.83838,53.161616 925,55 922.3228,57.677199 921.026,57.520011 920.875,54.5 920.80625,53.125 920.64274,50.7625 920.5,49.25 919.88091,42.689905 919.9409,23.295057 920.59375,21.59375 921.1126,20.241653 920.92867,19.847921 919.90625,20.1875 918.50702,20.652231 916.53838,32.1826 917.4375,34.65625 917.66972,35.295139 918.15182,43.845139 918.5,53.65625 919.35114,77.639811 921.07224,87.914307 925.4375,95 929.42628,101.47458 931.31531,102.23094 933.40625,98.1875 935.54464,94.052314 939,81.179079 939,77.34375 939,75.577655 939.4803,73.828569 940.0625,73.46875 940.65799,73.100712 940.84715,71.580573 940.5,70 939.95964,67.539758 940.44561,66.589444 941.96875,66.78125 z M 927.71875,57.34375 C 928.27956,57.238077 928.82808,57.245574 929.34375,57.375 931.93091,58.024335 938,63.428029 938,65.09375 938,66.959404 935.08186,67.138798 931.5625,65.46875 928.26578,63.904354 927.80591,63.884581 925.53125,65.375 922.74113,67.203154 922.57545,67.262959 921.65625,66.34375 919.29548,63.982989 923.79305,58.083458 927.71875,57.34375 z M 928.46875,67.65625 C 928.96799,67.709456 929.55403,67.855185 930.28125,68.0625 935.3467,69.506547 936.25306,71.48861 935.625,79.5 935.32318,83.35 934.63163,88.080844 934.0625,90.03125 933.49338,91.981656 932.43062,94.401459 931.71875,95.375 930.48745,97.058903 930.35667,97.031908 928.6875,95.1875 926.39548,92.654839 923.37543,84.325401 922.53125,78.1875 921.93792,73.873442 922.13872,72.981939 924.4375,70.25 926.19319,68.163483 926.97102,67.496631 928.46875,67.65625 z"/>
</svg>
