<svg xmlns="http://www.w3.org/2000/svg"
     width="18.3" height="64.0"
     viewBox="2522.3122 14.3260 24.7830 86.6740">
  <path d="M 2526.8303,50.25 C 2526.3122,41.854437 2527.3464,36.140689 2531.161,26.323936 2534.0335,18.931546 2537.4197,18.325967 2539.7764,24.783156 2542.4522,32.114196 2543.0952,36.187668 2542.8102,44 2542.4675,53.391077 2541.0528,55.008759 2538.0005,49.5 2535.6984,45.345414 2533.8116,45.337545 2531.5843,49.473245 2529.3078,53.700619 2527.0658,54.066921 2526.8303,50.25 z M 2531.6083,94.75 C 2528.5931,90.03161 2526.9906,81.951373 2527.6541,74.812311 2528.0055,71.030841 2528.6205,67.734537 2529.0207,67.487191 2529.4209,67.239845 2531.0209,68.216771 2532.5761,69.658137 L 2535.4039,72.278802 2538.1676,68.968251 C 2540.5267,66.142526 2541.0284,65.910454 2541.5937,67.383589 2541.958,68.332828 2542.0413,72.347346 2541.779,76.304739 2541.4167,81.768601 2540.5055,85.124255 2537.992,90.25 2536.1715,93.9625 2534.3139,97 2533.864,97 2533.4142,97 2532.3991,95.9875 2531.6083,94.75 z M 2531.9303,44.916165 C 2535.0363,41.947904 2535.2301,41.898299 2537.1023,43.592537 2538.5098,44.86631 2539.3494,45.050564 2540.1407,44.259279 2542.2346,42.165382 2537.8179,24 2535.2149,24 2533.8409,24 2532.1702,27.692839 2530.6445,34.102433 2529.3418,39.575137 2528.0736,48 2528.5525,48 2528.6355,48 2530.1555,46.612274 2531.9303,44.916165 z M 2536.9937,88.012305 C 2540.7443,80.66065 2540.7504,66.99235 2537,74 2535.622,76.574788 2534.2491,76.529252 2532.0686,73.836434 2530.3323,71.692159 2530.3108,71.715834 2529.6562,76.491712 2528.9045,81.976131 2531.4938,92 2533.6623,92 2534.3757,92 2535.8748,90.205537 2536.9937,88.012305 z"/>
</svg>
