<svg xmlns="http://www.w3.org/2000/svg"
     width="19.3" height="64.0"
     viewBox="1524.9813 12.4907 27.9383 92.5134">
  <path d="M 1536.6133,98.813259 C 1535.742,97.483465 1534.7342,94.843976 1534.3737,92.947726 1534.0132,91.051477 1533.342,88.761421 1532.8821,87.858713 1531.8743,85.880494 1531.2783,81.93422 1529.8227,67.601414 1528.9813,59.317334 1529.0104,54.279559 1529.9437,46.601414 1531.6518,32.550065 1537.7488,16.490673 1540.6862,18.306049 1541.2145,18.632579 1542.2315,20.834798 1542.9461,23.19987 1543.6607,25.564941 1544.8542,29.525 1545.5984,32 1547.1114,37.031992 1548.9196,55.607473 1548.4214,61 1548.2435,62.925 1547.8838,67.082889 1547.622,70.239753 1546.6566,81.881254 1542.6633,96.354759 1539.4481,99.865533 1538.4054,101.00403 1537.9341,100.82908 1536.6133,98.813259 z M 1541.7381,91 C 1545.2742,80.106611 1546.9214,56.738986 1545.0552,43.943188 1543.6241,34.130357 1541.1775,23.891738 1539.9557,22.602584 1538.4267,20.989313 1533.8671,33.249305 1532.3697,43 1530.0491,58.111333 1532.2075,79.989936 1537.5913,95.927541 1538.2733,97.946599 1540.243,95.606116 1541.7381,91 z"/>
</svg>
