<svg xmlns="http://www.w3.org/2000/svg"
     width="46.7" height="64.0"
     viewBox="2625.3986 15.4022 65.9452 90.3687">
  <path d="M 2686.9062,55.25 C 2686.8362,55.444053 2686.7552,56.016633 2686.6875,56.125 2684.4266,59.745147 2682.1072,59.443674 2678.0625,55.0625 2674.0337,50.698531 2673.5869,50.649836 2667.2812,53.8125 2662.6475,56.136686 2661.9273,54.878323 2663.0312,46.125 2663.7606,40.342827 2664.5125,38.254955 2666.4062,36.5 2669.4367,33.691382 2671.6273,29.495295 2672.5,24.84375 2673.4733,19.655583 2671.8278,19.402198 2666.8438,24 2660.4692,29.88072 2658.8178,30.02681 2653.5,25.125 2651.0462,22.863145 2648.1316,21 2647,21 2643.8254,21 2640.1735,23.853323 2637.4688,28.46875 2634.4905,33.550737 2634.3244,37.914959 2637,41 2638.7241,42.987855 2639.8796,43.283274 2645.5,43.1875 L 2652,43.0625 2652,46.90625 C 2652,56.856584 2650.221,58.775238 2644.5,55 2639.8695,51.944372 2635.5417,54.09589 2631.9062,61.21875 2629.9358,65.07946 2629.3986,71.513944 2630.875,73.84375 2632.284,76.066989 2635.4258,74.685291 2636.5,71.375 2638.5134,65.1708 2641.6384,63.472742 2645.1562,66.65625 2648.2103,69.420089 2647.3301,72.364782 2641.4375,78.96875 2637.649,83.214597 2636.0678,85.758657 2636.5,86.875 2636.8492,87.776847 2637.6132,90.75 2638.1875,93.5 2638.7618,96.25 2639.3989,99.0625 2639.5938,99.75 2640.1665,101.77087 2641.6442,101.22012 2644.4062,97.9375 2645.9872,96.058627 2646.9907,93.625333 2647,91.6875 2647.0185,87.847251 2647.2659,87.48155 2653.1562,82.75 L 2657.8125,79 2660.4062,82.09375 C 2662.4471,84.519009 2663,86.229626 2663,90.25 2663,95.683431 2664.9,99 2668.0312,99 2669.2111,99 2669.9722,97.90717 2670.4062,95.59375 2670.757,93.724113 2671.7741,90.768398 2672.6562,89 2674.1884,85.928841 2674.1408,85.483681 2671.5938,79.28125 L 2668.9375,72.78125 2671.5625,69.34375 C 2674.3255,65.721297 2674.5648,65.731766 2678.9062,69.84375 2679.8511,70.738636 2681.6016,70.987257 2684.0625,70.59375 2685.3753,70.383825 2686.2923,70.374622 2687,70.65625 L 2687.3438,70 2687.3438,66.46875 C 2686.8713,67.093367 2686.0886,67.546874 2684.8438,68.0625 2681.855,69.300445 2681.5769,69.211425 2678.875,66.1875 2677.3118,64.438017 2675.7728,63 2675.4688,63 2675.1648,63 2673.1197,64.748112 2670.9062,66.875 2666.1826,71.413859 2665.642,74.758984 2668.8438,80 2671.4294,84.232812 2671.5292,86.16325 2669.3125,91.1875 2667.0692,96.27201 2665.414,95.5446 2665.8438,89.65625 2666.1397,85.601606 2665.7744,84.490639 2663.0938,81.4375 2661.3935,79.501089 2660,77.499612 2660,76.96875 2660,74.811366 2657.1743,76.308878 2651.25,81.59375 2645.6592,86.581059 2645,87.571643 2645,90.96875 2645,93.057472 2644.3606,95.269856 2643.5938,95.90625 2642.4577,96.849044 2641.9022,96.183738 2640.5938,92.34375 2638.4088,85.931503 2638.5575,84.362786 2641.5938,81.75 2645.3036,78.557612 2650,71.485878 2650,69.09375 2650,66.675645 2646.4499,63.154723 2643.2188,62.34375 2640.3519,61.624202 2637.2767,64.182638 2635.2188,69 2633.7873,72.350745 2633.6989,72.405573 2632.75,70.3125 2631.3356,67.19262 2632.5697,63.46485 2636.375,59.3125 L 2639.6562,55.6875 2645.5,58.375 C 2649.261,60.09682 2651.6903,60.715883 2652.3125,60.09375 2653.4185,58.98776 2654.6626,47.136413 2654.1875,42.1875 2653.8815,38.99916 2653.7483,38.888681 2650.6875,39.65625 2646.27,40.764067 2640.226,40.427142 2638.4688,38.96875 2635.8271,36.776315 2636.7441,32.596868 2640.8438,28.15625 2642.9593,25.864735 2645.442,24 2646.375,24 2647.3081,24 2650.2188,25.980125 2652.8125,28.40625 2657.3252,32.627353 2657.6376,32.782103 2660.5,31.5625 2662.1452,30.861519 2664.3584,29.300145 2665.4062,28.125 2667.8666,25.365484 2669,25.438552 2669,28.3125 2669,29.633849 2667.513,32.048913 2665.5,34 2663.5696,35.870995 2661.5416,39.019353 2661,40.96875 2659.9191,44.859508 2659.6192,60 2660.625,60 2660.9705,60 2663.6743,58.625742 2666.625,56.9375 2672.846,53.378234 2674.5505,53.623872 2677.9062,58.5625 2680.1602,61.879568 2680.588,62.071616 2684.1562,61.46875 2685.9488,61.165908 2686.836,61.057298 2687.3438,61.3125 L 2687.3438,56 2686.9062,55.25 z"/>
</svg>
