<svg xmlns="http://www.w3.org/2000/svg"
     width="26.9" height="64.0"
     viewBox="987.5983 15.6129 38.3209 91.0156">
  <path d="M 1004.75,100.10668 C 1003.7875,99.130729 1003,97.693024 1003,96.91178 1003,95.056636 998.8732,83.710714 996.14332,78.060504 993.51093,72.612092 993.50303,71.768061 996,62.757441 998.63398,53.252397 998.55998,52.154696 994.7881,44.779909 992.18739,39.695005 991.59835,37.400161 991.69261,32.720199 991.76408,29.171969 992.4559,25.953158 993.48442,24.383435 994.40588,22.977105 995.28955,21.978016 995.44813,22.163236 995.60671,22.348456 995.27012,25.545788 994.70017,29.268417 993.6152,36.354835 994.00677,37.8647 999.62125,48.243461 1000.9734,50.743071 1000.8782,51.911496 998.55036,61.38887 L 995.99538,71.790817 1000.004,80.50866 C 1002.2087,85.303474 1004.2939,90.985514 1004.6376,93.135415 1006.1252,102.43833 1009.4886,96.126934 1008.6457,85.614271 1008.2466,80.636413 1007.5369,78.135998 1006.0845,76.589983 1004.2014,74.585515 1004.1607,74.108092 1005.4356,68.975712 1006.1837,65.964071 1007.3592,61.925 1008.0479,60 1008.7366,58.075 1009.7122,55.322659 1010.2159,53.883687 1010.7197,52.444714 1012.2656,50.660627 1013.6513,49.919049 1016.5447,48.370531 1018.8305,44.31017 1018.2501,41.75 1017.7762,39.659883 1017.2709,39.63016 1014,41.5 1010.1313,43.711522 1008.126,43.336304 1007.3194,40.25 1006.2707,36.237524 1006.5621,30.471429 1007.9874,27.0304 1009.4782,23.431252 1011.3423,23.969501 1009.9618,27.600501 1009.4328,28.991835 1009,32.403364 1009,35.181677 1009,40.192629 1009.0221,40.227631 1011.75,39.544625 1016.6887,38.308107 1019.2288,38.472247 1020.2705,40.095223 1021.9192,42.663647 1020.1686,47.076072 1015.9748,50.922518 1013.7742,52.940812 1011.4003,56.41828 1010.528,58.901402 1008.4332,64.864722 1007.4767,73.656247 1008.7511,75.233918 1011.5236,78.666052 1011.9317,92.525865 1009.4362,98.498443 1007.7898,102.4388 1007.2371,102.62849 1004.75,100.10668 z M 1000.9101,41.75 C 998.43203,34.281072 999.94653,19.612852 1003.0008,21.500514 1003.6597,21.907743 1003.6056,22.868346 1002.8436,24.292222 1001.2128,27.339388 1001.5333,36.790871 1003.4176,41.217881 1005.3396,45.733644 1005.3531,46 1003.6601,46 1002.9231,46 1001.6856,44.0875 1000.9101,41.75 z"/>
</svg>
