<svg xmlns="http://www.w3.org/2000/svg"
     width="52.7" height="64.0"
     viewBox="2044.0000 13.0000 80.6255 97.9921">
  <path d="M 2116.5,58.3125 C 2115.1729,60.695206 2112.9701,60.156299 2107.75,56 2102.2928,51.654891 2098.4521,50.954947 2094,53.5 2088.7515,56.500338 2088,55.750386 2088,47.4375 2088,39.888786 2088.0172,39.831813 2091.9375,36.3125 2096.1688,32.51401 2099,26.758028 2099,21.96875 2099,18.156243 2097.342,18.170544 2092.5625,21.96875 2086.8678,26.494345 2085.0042,26.741602 2082.5625,23.375 2079.4838,19.129859 2077.1736,17 2075.625,17 2073.9706,17 2064.7921,25.602829 2063.1562,28.6875 2061.3645,32.06621 2061.729,38.474724 2063.875,41.125 2065.3599,42.958721 2066.803,43.462464 2070.625,43.53125 L 2075.5,43.625 2075.8125,49.3125 C 2076.1507,55.730417 2075.5848,56.112821 2069.4062,53.53125 2066.1591,52.174522 2065.5522,52.185356 2062.1875,53.9375 2054.7227,57.824776 2050.5582,69.888038 2054.9062,75.03125 2056.9692,77.471399 2057.0321,77.46636 2058.25,75.5 2058.9312,74.4 2059.9439,72.16691 2060.5,70.53125 2061.6983,67.007089 2065.4185,64.83838 2068.4062,65.9375 2070.0431,66.539671 2070.6947,67.992513 2071.375,72.4375 2072.4972,79.770166 2071.3094,82.590761 2066.8125,83.3125 2064.9836,83.606036 2061.6072,84.138917 2059.2812,84.53125 2056.0979,85.068223 2054.419,84.851169 2052.5,83.59375 2049.5869,81.685065 2048,82.219464 2048,85.125 2048,89.853798 2052.1667,94.176389 2058.5,96 2060.7,96.633466 2063.625,97.492494 2065,97.90625 2066.468,98.347994 2067.3434,99.224065 2067.125,100.0625 2066.9204,100.84781 2066.5221,102.2875 2066.25,103.25 2065.1921,106.9921 2068.5853,104.72556 2070.6875,100.28125 2073.1102,95.159382 2072.8473,93.548698 2069.6875,94.375 2066.698,95.15678 2055.4002,92.099648 2053.5,90 2051.9834,88.324145 2052.3211,88.195181 2059.4062,87.53125 2063.8987,87.110271 2067.3555,86.258045 2068.0625,85.40625 2068.7106,84.62529 2069.8488,84 2070.5938,84 2073.5558,84 2075.2325,79.373207 2074.5938,72.875 2073.9182,66.003401 2073.2179,64.744919 2069.1562,63.0625 2064.9355,61.314229 2061.2199,63.160765 2059.1875,68 2056.8169,73.644291 2055.2824,72.979005 2055.9688,66.59375 2056.3128,63.392916 2060.8606,57.067525 2063.25,56.46875 2064.4872,56.158727 2067.4684,56.619122 2069.875,57.46875 2076.3554,59.756551 2077.9691,59.50511 2078.0938,56.25 2078.1517,54.7375 2078.2953,51.475 2078.4062,49 2078.788,40.475575 2078.5131,40.057254 2072.375,40.21875 2064.8204,40.417514 2063.1207,38.68642 2065.0625,32.78125 2065.8385,30.421326 2068.3573,26.558047 2070.6562,24.1875 2074.3537,20.374943 2075.059,20.02997 2076.8125,21.125 2077.9027,21.805861 2079.5037,23.860313 2080.375,25.6875 2082.3274,29.781766 2085.0677,30.000233 2090.2188,26.5 2092.2422,25.125 2094.4237,24 2095.0625,24 2097.8989,24 2092.2197,34.802702 2089.3125,34.9375 2086.258,35.079127 2085,39.379285 2085,49.71875 2085,61.402027 2085.0219,61.426331 2092.4062,57.5 2094.9922,56.125 2097.9003,55 2098.875,55 2099.8498,55 2103.2502,57.025 2106.4375,59.5 2109.6248,61.975 2112.3419,64 2112.4688,64 2112.5955,64 2114.1435,63.489485 2115.9062,62.875 2117.1715,62.433939 2117.9615,62.311929 2118.7812,62.53125 L 2116.6562,59.34375 2116.5,58.3125 z M 2100.1562,64.09375 C 2098.2941,64.098361 2096.3737,65.070076 2094.2812,67.03125 L 2091.0625,70.0625 2093.0312,73.28125 C 2095.7979,77.818792 2095.5848,83.14641 2092.5,86.8125 2089.4555,90.430684 2089.4526,90.776362 2092.1875,93.6875 2095.8282,97.562873 2099.0488,95.92138 2095.5,92 2094.1784,90.539642 2094.234,89.932701 2096,86.46875 2098.1735,82.205639 2098.6231,76.998164 2096.9375,75.3125 2096.3474,74.722436 2096.0099,72.732436 2096.1875,70.875 2096.6353,66.189754 2099.8877,65.832901 2104.5625,69.9375 2106.4881,71.628185 2108.964,73 2110.0625,73 2113.1486,73 2118.946,70.269516 2119.625,68.5 2120.6255,65.892814 2119.268,65.623929 2116.4062,67.875 2112.6068,70.863593 2109.0351,70.57989 2105.6562,67 2103.8144,65.048568 2102.0184,64.089139 2100.1562,64.09375 z M 2080.0938,94 C 2079.0156,94 2074.9895,100.61422 2075.0312,102.3125 2075.0736,104.0361 2081,97.240748 2081,95.46875 2081,94.652428 2080.5893,94 2080.0938,94 z M 2086.2812,96.0625 C 2085.5249,96.058073 2085,96.332364 2085,96.9375 2085,97.46017 2085.7875,98.331924 2086.75,98.875 2089.0348,100.16414 2091.1803,98.347143 2089,96.96875 2088.0339,96.35796 2087.0376,96.066927 2086.2812,96.0625 z"/>
</svg>
