<svg xmlns="http://www.w3.org/2000/svg"
     width="43.0" height="64.0"
     viewBox="1667.6562 16.5343 38.3438 57.0100">
  <path d="M 1671.6562,59.65625 1673.3438,62 1675.8125,63.03125 C 1675.141,61.220111 1675.0212,59.53485 1675.0312,56.625 1675.0559,49.486573 1678.2748,39.440204 1683.125,31.4375 1686.4865,25.891095 1688.0032,24.67161 1690.4062,25.59375 1693.4959,26.779405 1693.9448,35.42401 1691,37 1689.9,37.588702 1689,38.783257 1689,39.65625 1689,40.987878 1689.2402,41.034961 1690.5625,39.9375 1691.8688,38.853371 1692.3096,38.87266 1693.0625,40.0625 1694.3426,42.085443 1694.2512,42.462726 1692,44.5 1690.9,45.495486 1690,46.691493 1690,47.15625 1690,47.621006 1690.9,48 1692,48 1694.7781,48 1694.5632,50.966439 1691.5938,53.46875 1689.6631,55.095644 1689.2631,56.155038 1689.6875,58.75 1689.9898,60.598409 1690.8364,62 1691.625,62 1693.8893,62 1693.192,64.829866 1690.5,66.59375 1686.8809,68.965062 1687.3917,69.544276 1692.75,69.1875 1700.086,68.699037 1700.6662,68.329968 1698.125,65.625 1696.172,63.546128 1696.1058,63.157136 1697.5,62 1698.8976,60.840082 1698.899,60.54259 1697.5312,59.03125 1695.4235,56.702217 1695.6177,55 1698,55 1700.5226,55 1700.5411,53.805605 1698.0625,51.5625 1695.8056,49.520008 1696.3712,47 1699.0938,47 1701.6988,47 1701.4771,45.529315 1698.5,43.1875 1697.125,42.105925 1696,40.477094 1696,39.59375 1696,37.808904 1697.5406,37.447732 1698.5,39 1699.4475,40.533158 1702,40.192819 1702,38.53125 1702,37.720374 1700.6992,36.376561 1699.125,35.5625 1696.8621,34.392309 1696.1639,33.225352 1695.7188,29.90625 1694.9458,24.143745 1691.3586,20.534275 1687.75,21.90625 1686.308,22.454493 1684.6424,23.79156 1684.0625,24.875 1683.4827,25.95844 1682.4113,27.457113 1681.6875,28.1875 1677.9488,31.960084 1673.1812,45.265869 1672.3438,54.25 1672.0666,57.222504 1671.8313,58.761866 1671.6562,59.65625 z"/>
</svg>
