<svg xmlns="http://www.w3.org/2000/svg"
     width="53.1" height="64.0"
     viewBox="1138.2173 11.8931 79.7926 96.1069">
  <path d="M 1164.9752,101.4349 C 1163.4563,97.439814 1163.7958,94.802518 1166.5369,89.301706 L 1169.0739,84.210723 1166.4605,78.691171 C 1165.0231,75.655417 1163.0313,72.433333 1162.0342,71.530984 1160.3432,70.000579 1160.0519,70.047443 1157.6984,72.228507 1154.4557,75.233809 1148.9446,87.236743 1149.1826,90.775733 1149.8139,100.16301 1147.7884,102.73596 1144.5301,96.685694 1142.2173,92.391099 1142.7685,77.235609 1145.551,68.614551 1149.0409,57.802131 1154.4385,54.778293 1163.4946,58.562194 1169.1631,60.930656 1170.0024,60.118468 1169.9847,52.281385 1169.9763,48.551623 1169.5647,44.860582 1169.07,44.079071 1168.1169,42.573114 1167.4843,42.875965 1161,47.942637 1159.625,49.01703 1156.8647,50.184751 1154.866,50.537572 1151.7777,51.082734 1150.747,50.745753 1148.0025,48.293528 1144.9582,45.573472 1144.7752,45.021803 1144.8119,38.67392 1144.8749,27.744513 1151.1553,17 1157.4808,17 1161.1586,17 1167.258,21.362308 1170.8925,26.592104 1172.0744,28.292761 1174.1302,30.266891 1175.4609,30.979059 1177.6556,32.153617 1178.4201,31.912983 1183.6902,28.388859 1189.6541,24.400779 1190.1547,24.102869 1198.2318,19.735985 1205.3397,15.893096 1208.5976,17.545261 1211.8416,26.637787 1213.9468,32.538554 1214.0099,43.537781 1211.9569,46.75 1209.8961,49.974473 1207.3724,49.612199 1206.6476,45.987844 1205.8459,41.97974 1201.9476,33 1201.0092,33 1199.2259,33 1185.7131,41.549219 1183.9465,43.795171 1182.4933,45.642542 1182,47.840726 1182,52.468192 1182,55.877353 1182.2811,58.947772 1182.6247,59.291346 1182.9683,59.63492 1185.3272,58.80992 1187.8667,57.458013 1190.4063,56.106106 1193.2547,55 1194.1966,55 1196.5069,55 1200.149,58.795544 1203.4654,64.659225 1208.2364,73.094969 1208.1028,89.658243 1203.2186,95.25 1200.3116,98.578088 1199.3367,97.244761 1198.1003,88.25 1196.3245,75.33055 1195.2792,72 1193.0004,72 1190.798,72 1187.2289,75.422064 1185.9105,78.797832 1185.2875,80.39316 1185.5007,82.227507 1186.6078,84.797832 1188.4485,89.071307 1188.9285,98.471511 1187.3848,100.01523 1185.7633,101.63675 1183.4172,100.22882 1180.569,95.924945 1176.8546,90.312033 1176.1076,90.550524 1170.1544,99.25 1168.3666,101.8625 1166.6894,104 1166.4272,104 1166.165,104 1165.5116,102.84571 1164.9752,101.4349 z M 1171.6851,94.014218 C 1175.6737,88.366431 1177.5022,88.065674 1181.4757,92.403775 1183.2874,94.381699 1185.0465,96 1185.3849,96 1186.5173,96 1186.0162,91.279882 1184.3292,86.056281 1182.7064,81.031769 1182.7206,80.754802 1184.8209,76.431802 1186.8637,72.22711 1192.3343,67.624206 1194.458,68.323306 1195.8019,68.765715 1199.0356,78.505212 1199.6994,84.109761 1200.7946,93.35668 1203.2622,93.061029 1204.4517,83.540374 1205.8645,72.232851 1199.4455,57.899877 1193.0275,58.031272 1192.1874,58.048472 1189.25,59.169526 1186.5,60.522504 1181.9383,62.766827 1181.3936,62.839335 1180.2862,61.349672 1179.5781,60.397009 1179.2165,57.588995 1179.4182,54.608441 1179.6084,51.798798 1179.8171,48.218044 1179.882,46.65121 1179.9561,44.863217 1181.1451,42.732724 1183.0752,40.929732 1187.3789,36.909513 1200.4689,29.858966 1202.3144,30.56714 1203.1565,30.890299 1204.4717,32.582393 1205.237,34.32735 1206.0022,36.072308 1207.3421,39.075 1208.2145,41 L 1209.8005,44.5 1210.7759,42 C 1212.6978,37.073701 1209.9107,25.039115 1206.0357,21.532331 1204.7501,20.368815 1203.399,20.0472 1201.8217,20.529205 1199.4562,21.252069 1185.7261,29.333295 1182.9982,31.60831 1182.1722,32.297176 1180.1892,33.357759 1178.5916,33.965162 1175.7918,35.029649 1175.4488,34.811375 1169.0935,27.92077 1161.4619,19.646464 1159.096,18.381892 1155.1066,20.444862 1151.9412,22.081763 1146.9965,31.957757 1147.0056,36.625046 1147.0158,41.895944 1148.9369,46.842674 1151.2811,47.634135 1154.8672,48.844896 1157.1812,48.060909 1162.8379,43.718665 1167.0656,40.473346 1168.5215,39.838217 1169.8379,40.664889 1173.3247,42.854508 1173.0955,59.994571 1169.5447,62.590968 1168.159,63.604249 1167.0768,63.484006 1163.6729,61.938563 1155.5218,58.237685 1151.1727,60.05042 1147.7909,68.558355 1145.5705,74.144317 1143.9999,93 1145.755,93 1146.3173,93 1147.0844,91.3125 1147.4596,89.25 1149.023,80.655513 1157.3771,67 1161.0715,67 1163.1289,67 1166.358,71.505305 1169.9467,79.383025 L 1172.138,84.1933 1169.646,87.84665 C 1167.5011,90.991096 1166.4798,94.475089 1166.8893,97.25 1167.1501,99.017018 1169.064,97.725684 1171.6851,94.014218 z"/>
</svg>
