<svg xmlns="http://www.w3.org/2000/svg"
     width="38.0" height="64.0"
     viewBox="736.6018 14.9841 56.1983 94.5808">
  <path d="M 747.1745,103.71026 C 745.18699,101.31546 749.28801,94.664759 755.88006,89.592292 762.40366,84.572495 763.62777,82.159828 762.55428,76.43765 761.10409,68.707482 754.04049,66.412213 749.66696,72.25 748.3278,74.0375 746.91672,76.537271 746.53121,77.805047 744.96286,82.962685 740.60181,76.776162 741.49322,70.658234 742.24753,65.48125 745.47441,59.390483 748.52015,57.394837 750.5842,56.042421 751.74562,55.945983 755.25161,56.835896 757.58197,57.427406 759.7716,57.59381 760.11745,57.205684 761.085,56.119864 761.95916,45 761.07697,45 760.64878,45 758.84622,45.506249 757.07127,46.124999 752.91002,47.57562 749.69259,46.184274 747.00144,41.770392 744.32284,37.377102 744.48574,33.424665 747.60326,27.168627 749.8212,22.717795 753.86312,19 756.48404,19 757.33113,19 763,24.932408 763,25.818871 763,26.231324 764.26955,27.318726 765.82122,28.23532 768.62114,29.889274 768.70608,29.860896 777.07122,24.476703 781.70705,21.492869 786.06782,19.039952 786.76182,19.025775 788.80011,18.984139 787.14042,26.95135 784.20059,31.320778 782.78671,33.422206 779.93783,36.572206 777.86974,38.320778 774.17759,41.442499 774.09806,41.65919 773.47257,50.301554 L 772.83556,59.103108 777.16778,62.919941 C 780.15021,65.547564 781.9113,68.137342 782.8201,71.231973 784.05202,75.426929 783.96413,76.145483 781.50418,81.990065 L 778.86817,88.252958 781.43408,90.931198 C 784.1897,93.807445 784.96723,96.661572 782.62416,95.29969 781.86745,94.859861 780.04157,93.054283 778.56665,91.287296 L 775.88498,88.074591 778.05787,85.135592 C 779.62183,83.020228 780.23077,80.763815 780.23077,77.083967 780.23077,70.282673 778.7274,67.068704 773.96333,63.685146 770.12741,60.960781 770.0014,60.68753 770.04355,55.185146 770.12343,44.757436 771.38664,40.872512 775.98726,36.905613 780.75649,32.793335 783.98382,28.296427 783.99341,25.75 784.00326,23.134002 782.13064,23.637586 775.52147,28.02827 772.23327,30.212721 768.94383,32 768.21161,32 767.47938,32 764.44066,29.692712 761.45891,26.872693 756.22327,21.921041 755.95616,21.798704 753.66225,23.301733 752.35584,24.157724 750.31601,26.923705 749.12928,29.448358 746.8627,34.270288 746.99785,37.512813 749.64202,41.75 751.52088,44.760804 757.16806,44.831941 760.11803,41.881966 763.3463,38.653696 764.17272,41.05877 763.42293,51.5 763.06747,56.45 762.64409,60.645303 762.48209,60.822895 762.32009,61.000488 760.45785,60.665498 758.34377,60.078472 751.51855,58.183279 749.38335,58.643659 746.98263,62.528099 744.43761,66.64604 743.24491,73.415297 744.88572,74.429371 745.49857,74.808136 746,74.722525 746,74.239125 746,71.987559 751.9466,66.867752 754.65109,66.790857 761.81264,66.587238 765,70.540816 765,79.627565 765,83.872267 764.60862,84.661501 760.89293,87.909683 751.05294,96.511588 748.82454,99.164781 749.42626,101.5622 750.09918,104.24335 748.71376,105.56496 747.1745,103.71026 z M 755,101.19113 C 755,99.097245 757.56549,95.232157 758.40085,96.067515 759.13807,96.804732 756.79661,103 755.78076,103 755.35134,103 755,102.18601 755,101.19113 z M 768.10468,97.5 C 769.77504,95.025 771.44731,93.018732 771.82085,93.041627 772.19438,93.064521 774.26247,94.639521 776.41661,96.541627 780.68036,100.30653 779.37852,101.23906 774.03167,98.25 770.91504,96.507704 770.8923,96.512106 768.86722,99.25 765.48904,103.81728 764.84254,102.33358 768.10468,97.5 z"/>
</svg>
