<svg xmlns="http://www.w3.org/2000/svg"
     width="18.5" height="64.0"
     viewBox="1275.9688 13.9085 26.4583 91.5987">
  <path d="M 1280.0625,57.875 1280.3438,63.28125 C 1280.5639,63.547279 1280.7059,63.918245 1280.8125,64.4375 1280.9781,65.243862 1280.8013,65.900935 1280.5,66.5 L 1280.6562,69.34375 1279.9688,71 C 1281.0722,71.699155 1281.7713,73.973262 1282.3125,78.78125 1283.5763,90.007908 1289.8964,101.5072 1292.7188,97.71875 1293.9464,96.070923 1295.7025,88.153458 1297,78.5 1298.1612,69.861418 1298.4271,42.048387 1297.4062,36.125 1296.4174,30.388376 1293.8479,21.620024 1292.75,20.25 1290.8736,17.908512 1288.2003,18.854635 1287.0938,22.25 1285.5641,26.943479 1283.087,40.232549 1282,49.5 1281.4665,54.048908 1280.9423,56.394043 1280.0625,57.875 z M 1290.8438,22.21875 C 1290.9891,22.283043 1291.1113,22.418623 1291.25,22.65625 1291.5188,23.116672 1292.5363,26.65 1293.5,30.5 1296.7171,43.351458 1295.834,81.46035 1292.0938,91.25 1291.5158,92.7625 1290.6435,94 1290.1562,94 1289.669,94 1288.273,91.4125 1287.0625,88.25 1285.2189,83.433857 1284.7999,79.739031 1284.3438,65.5 1283.8405,49.787777 1283.9802,47.554905 1286.4062,36.03125 1288.582,25.696252 1289.826,21.768696 1290.8438,22.21875 z"/>
</svg>
