<svg xmlns="http://www.w3.org/2000/svg"
     width="24.6" height="64.0"
     viewBox="2112.5000 15.0000 33.5000 87.0093">
  <path d="M 2116.5,58.3125 2116.6562,59.34375 2118.7812,62.53125 C 2119.9715,62.849695 2121.2285,64.027903 2124.0625,67.0625 2126.7819,69.974279 2129,72.66315 2129,73.03125 2129,73.399351 2126.5109,76.221499 2123.4688,79.3125 L 2117.9375,84.9375 2121.6562,90.21875 C 2125.2118,95.292343 2127.7443,97.901053 2129.1875,97.96875 2130.0518,98.009295 2141,83.962217 2141,82.8125 2141,82.339391 2140.2125,81.661467 2139.25,81.3125 2136.5941,80.349568 2132.0772,74.781196 2132.0312,72.40625 2131.9869,70.103594 2135.1262,66.274251 2139.3125,63.53125 2140.7843,62.5669 2142,61.34267 2142,60.8125 2142,60.28233 2139.75,57.255493 2137,54.09375 2134.25,50.932007 2132,47.449046 2132,46.34375 2132,45.238454 2133.8,41.822265 2136,38.75 2138.2,35.677736 2140,32.771172 2140,32.3125 2140,31.853828 2137.975,29.017199 2135.5,26 2133.025,22.982801 2131,20.1664 2131,19.75 2131,19.333599 2130.4154,19 2129.6875,19 2128.0609,19 2119,32.031599 2119,34.375 2119,35.306145 2121.025,38.032076 2123.5,40.4375 2125.975,42.842925 2127.9871,45.194692 2127.9688,45.65625 2127.9154,47.000284 2124.7776,50.338061 2121.1875,52.875 2119.3618,54.165108 2117.4669,56.314647 2116.9688,57.625 2116.8462,57.947223 2116.6409,58.05951 2116.5,58.3125 z M 2128.5625,24.34375 C 2129.4157,24.016378 2130.9599,24.766387 2132.1562,26.125 2137.4246,32.108626 2137.8364,34.381402 2134.0938,36.71875 2132.3904,37.78249 2132.1363,37.472082 2131.5312,33.4375 2130.5655,26.997414 2128.8064,27.868492 2129.375,34.5 2129.6339,37.519045 2129.5208,40.192922 2129.125,40.4375 2128.0113,41.125826 2122,36.034924 2122,34.40625 2122,32.359206 2126.7809,25.02743 2128.5625,24.34375 z M 2128.3125,50.65625 C 2128.8288,50.497649 2129.0271,50.965566 2129.2812,51.9375 2129.5779,53.072086 2129.5806,56.698113 2129.2812,60 2128.9819,63.301886 2128.3986,66 2128,66 2126.3736,66 2122,60.580117 2122,58.5625 2122,57.370392 2123.5237,54.919365 2125.375,53.125 2126.961,51.587873 2127.7962,50.814851 2128.3125,50.65625 z M 2128.1875,79 C 2128.6346,79 2129,81.444959 2129,84.4375 2129,87.430041 2129.4428,90.143677 2129.9688,90.46875 2130.4948,90.793823 2130.6537,91.723864 2130.3438,92.53125 2130.0339,93.338636 2129.4578,94 2129.0625,94 2128.0466,94 2124.4733,89.948147 2123.0312,87.15625 2121.9606,85.083284 2122.1462,84.460973 2124.5938,81.90625 2126.1209,80.312202 2127.7404,79 2128.1875,79 z M 2132.9375,54 C 2133.3199,54 2134.6555,55.370672 2135.9062,57.0625 2138.1148,60.049695 2138.1159,60.197926 2136.3438,62.15625 2135.3399,63.265366 2133.7186,64.606592 2132.75,65.125 2131.2117,65.948244 2130.988,65.587278 2131,62.28125 2131.0158,57.888012 2131.9379,54 2132.9375,54 z M 2131.9062,80.4375 C 2132.5885,79.755235 2136,83.162897 2136,84.53125 2136,85.210075 2135.1603,86.815249 2134.125,88.09375 L 2132.25,90.4375 2131.8438,85.65625 C 2131.6344,83.024895 2131.6689,80.674915 2131.9062,80.4375 z"/>
</svg>
