<svg xmlns="http://www.w3.org/2000/svg"
     width="42.4" height="64.0"
     viewBox="1017.9347 13.5186 61.2853 92.4814">
  <path d="M 1026,99.543495 C 1026,96.943901 1029.774,90.271736 1032.2091,88.566082 1033.4389,87.704737 1036.0448,87 1038,87 1043.1527,87 1046,84.652241 1046,80.403458 1046,75.951869 1042.8703,69.800275 1039.473,67.574295 1036.9568,65.925589 1036.7344,65.930224 1034.8074,67.67154 1033.6944,68.677193 1031.716,71.605654 1030.4109,74.179231 1027.4716,79.975468 1026.5293,80.593759 1024.6733,77.944005 1021.9347,74.034068 1025.8249,58.636926 1030.3526,55.465565 1033.2671,53.424161 1037.9496,53.64865 1041.5,56 1046.8757,59.560187 1049.0168,58.320995 1048.9847,51.668213 1048.9639,47.366586 1048.1218,46.512184 1043.8201,46.427895 1041.1232,46.375053 1038.9349,45.368193 1035.6285,42.658809 1030.0273,38.069051 1028.718,32.645381 1031.471,25.43675 1033.8566,19.190115 1037.2195,17.518644 1042.5573,19.926436 1044.7258,20.904603 1048.8161,23.796314 1051.6469,26.352461 1054.4777,28.908607 1057.4854,31 1058.3307,31 1059.176,31 1062.6801,28.742764 1066.1177,25.983921 1069.5553,23.225077 1072.7266,21.32664 1073.1652,21.765171 1073.6037,22.203702 1074.2132,23.898437 1074.5195,25.53125 1075.22,29.264577 1069.8635,38.547641 1065.3052,41.5 1060.9555,44.317293 1059.6554,46.75981 1059.4502,52.5 1059.287,57.066394 1059.6132,57.856887 1063.2118,61.61533 1069.4568,68.137729 1070.2358,74.950447 1065.6859,83.251941 L 1063.6295,87.003882 1066.3968,89.892247 C 1070.7683,94.455168 1067.5756,94.967974 1062.9453,90.446611 L 1059.0712,86.663612 1062.5356,82.828925 C 1064.9948,80.106865 1065.9984,78.052093 1065.9944,75.747119 1065.9842,69.779344 1064.0643,65.150813 1060.4583,62.400363 1057.1242,59.85738 1057,59.523412 1057,53.103817 1057,45.664093 1058.3273,42.916343 1063.1177,40.43913 1066.6018,38.63745 1072,30.654689 1072,27.304219 1072,24.251603 1071.0279,24.394257 1066.3875,28.127822 1064.2494,29.848125 1061.0536,31.872453 1059.2857,32.62633 1056.1577,33.960195 1055.9697,33.893977 1052.2857,30.161165 1046.8623,24.66596 1041.6372,21 1039.2282,21 1036.9475,21 1033.2767,25.049186 1032.4036,28.528194 1031.4038,32.511391 1033.7382,38.324436 1037.5527,41.350883 1041.0414,44.118737 1043.4019,44.440252 1049,42.910024 1050.2029,42.58121 1050.5578,43.802287 1050.7917,49.075207 1051.3156,60.883781 1048.3725,63.655737 1040.7852,58.5 1034.6563,54.335279 1031.8758,55.216691 1028.5868,62.366984 1025.5748,68.914823 1024.8522,72.142828 1025.9872,73.979347 1026.4844,74.78385 1027.0678,75.230111 1027.2836,74.97104 1027.4993,74.711968 1029.1412,72.332321 1030.9321,69.682936 1035.0472,63.595358 1037.5077,62.580183 1041.3325,65.391933 1048.0706,70.345516 1050.5105,82.392279 1045.6323,86.622609 1044.2861,87.790045 1041.1373,89.052234 1038.6351,89.427475 1035.2947,89.92839 1033.4096,90.912929 1031.5427,93.131591 1030.1442,94.793614 1028.9438,96.568924 1028.875,97.076725 1028.8063,97.584526 1028.6938,98.525 1028.625,99.166667 1028.4281,101.00462 1026,101.35318 1026,99.543495 z M 1033,101.36803 C 1033,99.890232 1037.4152,93.745657 1037.7517,94.755158 1038.2389,96.216713 1035.2235,102 1033.9743,102 1033.4384,102 1033,101.71562 1033,101.36803 z M 1039.655,37.171259 C 1037.9278,35.262694 1037.6258,32.996929 1038.6098,29.328467 1039.1115,27.457857 1039.6986,27.234578 1042.8461,27.717229 1044.8558,28.02539 1047.0625,28.72018 1047.75,29.261206 1049.3425,30.514419 1049.3759,36.224066 1047.8,37.8 1046.0068,39.59324 1041.5344,39.248005 1039.655,37.171259 z M 1047,34.934259 C 1047,31.219826 1042.1666,28.30343 1040.4945,31.008949 1039.1199,33.23299 1041.1007,36 1044.0674,36 1045.6803,36 1047,35.520416 1047,34.934259 z M 1049.4166,95.458373 C 1052.9364,92.350428 1058,90.770812 1058,92.780762 1058,93.210182 1059.4437,94.106466 1061.2083,94.772506 1063.7516,95.732501 1064.1609,96.239082 1063.1833,97.216703 1062.2091,98.190884 1061.5352,98.192618 1059.975,97.224959 1058.8888,96.551232 1057.1615,95.480175 1056.1367,94.844832 1054.6003,93.89232 1053.6627,94.15547 1050.7923,96.344832 1045.7785,100.16903 1044.7976,99.536955 1049.4166,95.458373 z"/>
</svg>
