<svg xmlns="http://www.w3.org/2000/svg"
     width="17.2" height="64.0"
     viewBox="1705.1030 15.0000 22.8970 85.1594">
  <path d="M 1723.5312,90.40625 1722.6562,88 1722.6562,83.28125 C 1722.3098,82.622543 1722,81.974511 1722,81.40625 1722,80.018183 1722.1093,79.349734 1722.6562,79.28125 L 1722.6562,73.0625 C 1720.8238,70.634273 1720.6525,68.918178 1720.5625,58.15625 1720.5018,50.902782 1721.1995,40.003498 1722.2188,32.625 1723.1967,25.546961 1724,19.584461 1724,19.375 1724,19.165539 1722.8831,19 1721.5,19 1717.8688,19 1715.646,23.299327 1713.4062,34.75 1709.103,56.750119 1712.6914,90.942268 1719.7188,94.875 1722.0138,96.159372 1723,95.415853 1723,92.4375 1723,91.269139 1723.1634,90.682942 1723.5312,90.40625 z M 1719.4688,24.40625 C 1719.9913,24.497904 1719.7647,29.232382 1718.9375,38.65625 1718.2179,46.85347 1717.9553,59.531669 1718.2812,69.75 1718.584,79.2375 1718.7003,87 1718.5312,87 1717.8211,87 1716.688,83.033525 1715.4062,76 1713.5482,65.804296 1713.6118,46.28218 1715.5312,38.0625 1717.6779,28.870052 1718.9462,24.314596 1719.4688,24.40625 z"/>
</svg>
