<svg xmlns="http://www.w3.org/2000/svg"
     width="23.8" height="64.0"
     viewBox="2682.9062 14.8023 33.5202 90.3089">
  <path d="M 2686.9062,55.25 2687.3438,56 2687.3438,61.3125 C 2687.8913,61.587671 2688,62.284388 2688,63.78125 2688,64.990128 2687.8299,65.825939 2687.3438,66.46875 L 2687.3438,70 2687,70.65625 C 2688.6941,71.33045 2688.9523,73.963364 2689.0312,81.5 2689.1218,90.15616 2690.3336,97.739975 2691.8438,99.25 2693.7049,101.11112 2699.788,97.705266 2699.7812,94.8125 2699.7572,84.580815 2701.2603,38.427146 2701.625,38.0625 2701.8798,37.80765 2703.6108,38.420093 2705.5,39.4375 2708.3095,40.950504 2709.2209,41.066838 2710.4688,40.03125 2712.4264,38.406589 2712.3868,37.758517 2710.0625,32.65625 2709.0027,30.329845 2707.8495,27.32467 2707.5,25.96875 2707.1505,24.61283 2705.9889,22.413207 2704.9062,21.09375 2703.0963,18.88802 2702.6325,18.80227 2699.1562,19.84375 2696.5143,20.635277 2694.5969,22.164296 2692.7812,24.9375 2689.6596,29.705382 2689.2254,31.606826 2688.4688,44.34375 2688.18,49.20281 2687.5156,53.562141 2686.9062,55.25 z M 2701,22.40625 C 2701.8468,22.437422 2702.6152,22.771454 2703.25,23.40625 2704.9966,25.152889 2708.3856,34.958066 2707.5312,35.8125 2707.2036,36.140224 2705.356,35.564425 2703.4375,34.53125 2700.9957,33.21626 2699.6432,32.981862 2698.9062,33.71875 2698.2261,34.398861 2697.8477,43.557091 2697.8438,59.625 2697.8404,73.30333 2697.5213,86.980729 2697.1562,90 2696.6815,93.927375 2696.0395,95.559337 2694.875,95.78125 2693.5511,96.03354 2693.0608,94.656474 2692.2188,88.3125 2689.7054,69.378094 2690.1784,34.268066 2693.0312,28.9375 2695.2407,24.809101 2698.4595,22.312735 2701,22.40625 z"/>
</svg>
