<svg xmlns="http://www.w3.org/2000/svg"
     width="43.3" height="64.0"
     viewBox="469.9662 15.0474 60.6048 89.6575">
  <path d="M 481,95.654988 C 481,94.915231 481.94857,93.452731 483.10793,92.404988 484.26729,91.357244 486.08541,89.280088 487.14819,87.789085 489.06232,85.103715 489.06127,85.040424 487.037,81.07252 484.87638,76.837359 482.40905,74.946601 480.1108,75.764859 479.22335,76.080826 478.989,75.826811 479.46195,75.061558 479.86915,74.40271 480.84882,74.111744 481.639,74.414968 482.42919,74.718191 483.30204,74.376471 483.57867,73.65559 484.50603,71.238927 482.19731,67.324369 479.08413,66.034846 477.38786,65.332228 476,64.088809 476,63.271691 476,62.255655 476.55319,62.008222 477.75,62.488945 478.7125,62.875553 480.13362,63.449134 480.90805,63.763571 483.89525,64.97645 481.32633,57.413207 477.48344,53.681033 475.45703,51.713012 473.96615,49.601556 474.17036,48.988907 474.37458,48.376258 475.88229,49.240625 477.52083,50.909722 479.15937,52.578819 480.80106,53.956944 481.16902,53.972222 481.53697,53.9875 482.29637,51.8625 482.85657,49.25 483.79689,44.86478 483.68791,44.303808 481.43755,41.945281 478.62644,38.999049 478.38903,38 480.5,38 481.325,38 482,38.45 482,39 482,39.55 482.61386,40 483.36414,40 484.11442,40 485.4857,38.016734 486.41143,35.592743 488.09012,31.197168 488.08783,31.178735 485.54729,28.638198 483.05133,26.142236 482.23404,24 483.77776,24 484.20553,24 485.32612,24.9 486.26797,26 488.55847,28.675107 489.37059,28.536724 492.38169,24.958236 496.97307,19.501692 502.19027,19.047418 506.842,23.699144 508.0197,24.876839 508.59297,24.841493 510.6994,23.461305 513.78841,21.437306 514.91234,22.33439 512.55334,24.941058 510.99158,26.666782 510.94306,27.250084 512.13692,29.947189 513.65357,33.373541 515.46772,33.791686 518.17739,31.339464 519.18657,30.426169 520.29101,29.957675 520.6317,30.298366 520.97239,30.639056 519.82187,32.120453 518.07499,33.590358 515.3497,35.883537 514.99195,36.705597 515.55477,39.381456 516.52694,44.003463 517.59804,44.66866 520.9141,42.709812 526.52749,39.393902 526.57099,41.30276 520.97636,45.441827 517.13529,48.283565 517,48.581267 517,54.191827 517,59.683098 517.13318,60 519.44098,60 520.78352,60 522.16008,59.55 522.5,59 523.27757,57.741865 525,57.691403 525,58.926758 525,59.98851 519.35548,63 517.36541,63 516.63539,63 515.79172,64.2375 515.49058,65.75 515.18944,67.2625 514.55479,69.711429 514.08026,71.192065 513.0378,74.444728 513.48786,75 517.16667,75 518.725,75 520,75.401855 520,75.893011 520,77.02125 517.49968,78 514.61748,78 512.97476,78 511.82483,79.180844 510.18934,82.547189 507.81889,87.426283 508.08543,88.957359 511.90738,92.416176 514.26748,94.552043 514.60793,96.000014 512.75,95.999971 511.01108,95.999929 506,89.506647 506,87.253429 506,86.234043 506.41733,84.9725 506.9274,84.45 507.43746,83.9275 508.99895,80.444835 510.39736,76.710745 513.72106,67.835657 515.48322,51.420828 513.92061,43.891018 512.05428,34.897687 508.19265,27.311217 504.31739,25.024756 499.78605,22.351202 499.14798,22.451651 494.76263,26.528936 490.51743,30.47592 488.99891,33.661794 485.91474,45.091879 484.14121,51.664683 483.86552,54.560236 484.42521,60.736588 485.11037,68.297589 487.90243,78.137444 490.78256,83.141353 492.25942,85.707244 492.16452,85.942945 487.4607,91.391353 482.56027,97.067503 481,98.097178 481,95.654988 z M 489,98.211762 C 489,97.209781 497.5806,90 498.77309,90 499.26379,90 501.09049,91.773499 502.83243,93.941109 506.45006,98.442763 505.30944,100.70495 501.49648,96.590703 498.50968,93.367897 497.26336,93.354592 493,96.5 489.277,99.246742 489,99.365282 489,98.211762 z M 496.74998,78.919889 C 493.75426,77.175043 491.95909,72.281357 491.33209,64.150515 490.43044,52.45813 491.52649,46.254917 495.75794,39.102066 501.52447,29.354284 504.8882,29.606557 507.73071,40 510.52661,50.222979 507.63837,69.081633 502.08167,76.885303 499.65449,80.293971 499.325,80.419702 496.74998,78.919889 z M 502.78995,72.25 C 507.61138,61.002912 508.52753,46.045822 504.8633,38.400651 502.60403,33.686856 500.13782,34.664959 496.20322,41.835244 492.8591,47.929461 492.72536,48.576232 492.68781,58.835244 492.65353,68.203715 492.92523,69.955807 494.92317,73.25 498.04224,78.392726 500.27854,78.108456 502.78995,72.25 z"/>
</svg>
