<svg xmlns="http://www.w3.org/2000/svg"
     width="37.2" height="64.0"
     viewBox="1364.1957 13.3469 53.5088 92.0255">
  <path d="M 1375.0024,96.75 C 1375.0037,96.0625 1376.798,92.860165 1378.9897,89.633701 L 1382.9747,83.767402 1380.5513,79.633701 C 1379.1527,77.24805 1376.6208,74.756636 1374.5639,73.74213 1370.6837,71.828229 1369.8074,70.454854 1372.999,71.289489 1374.0985,71.577002 1375.2555,71.395688 1375.5701,70.886569 1376.6052,69.211722 1373.9475,63.195653 1371.4495,61.558855 1368.4911,59.620456 1368.1957,57.609942 1371,58.5 1372.7348,59.050619 1373,58.6797 1373,55.702246 1373,53.724724 1372.106,51.13315 1370.8909,49.588423 L 1368.7818,46.907128 1371.3909,47.561972 C 1373.8554,48.180534 1374,48.009147 1374,44.468651 1374,42.054399 1373.3778,40.265494 1372.2516,39.442004 1371.2899,38.738839 1370.8291,37.837604 1371.2274,37.43926 1371.6258,37.040916 1372.6178,37.267864 1373.432,37.943589 1375.3265,39.515873 1376.6075,38.699841 1377.4378,35.391854 1377.8904,33.588656 1377.5612,32.172564 1376.388,30.876275 1374.3343,28.606959 1375.2779,27.155798 1377.5701,29.058209 1378.9625,30.213773 1379.4517,30.059056 1381.0721,27.950709 1383.1543,25.241404 1383.5473,22.456256 1381.9837,21.489919 1381.4247,21.144455 1381.2206,20.452113 1381.53,19.95138 1381.8531,19.428744 1382.8831,19.53454 1383.9483,20.199764 1385.4184,21.117896 1386.3361,21.009797 1388.3667,19.679285 1391.9264,17.346904 1393.1979,17.553383 1396.5,21 1399.5585,24.192335 1401.5359,24.788491 1402.3048,22.75 1402.5641,22.0625 1402.5435,23.404308 1402.2589,25.731796 1401.841,29.150405 1402.0801,30.093497 1403.5032,30.639616 1404.4722,31.01143 1406.1053,30.790809 1407.1325,30.149347 1409.6093,28.602521 1409.5011,30.093203 1406.8962,33.404877 1403.3114,37.962193 1405.9653,45.634726 1409.8,41.8 1410.5356,41.064416 1411,41.004433 1411,41.645012 1411,42.219769 1410.1,43.504514 1409,44.5 1407.3998,45.948196 1407.0127,47.528251 1407.0634,52.404988 1407.1119,57.073421 1407.3385,57.973372 1408.0312,56.25 1408.5531,54.951457 1409.7949,54 1410.9678,54 1413.7045,54 1413.5579,54.46641 1409.6316,58.252188 1407.2419,60.556354 1406.0742,62.748019 1405.6125,65.795393 1404.9891,69.91077 1405.0488,70.044257 1407.0364,68.980539 1408.1773,68.369904 1409.6484,68.051938 1410.3054,68.273948 1410.9624,68.495959 1410.0648,69.422573 1408.3107,70.333091 1405.3053,71.89314 1402,75.501512 1402,77.222506 1402,77.650128 1402.9,78 1404,78 1407.1117,78 1406.3543,79.609078 1402.7569,80.640798 1398.5261,81.854152 1398.1997,84.113554 1401.4043,90.001505 1404.2876,95.299088 1404.6132,97 1402.7441,97 1402.0534,97 1400.8643,95.5375 1400.1017,93.75 1399.3391,91.9625 1397.8277,89.516211 1396.7432,88.313802 1394.7721,86.128548 1394.7726,86.124826 1397.9075,79.689823 1402.6063,70.044749 1403.9006,63.807511 1403.6648,51.94601 1403.4813,42.715996 1403.0734,40.552512 1400.1608,33.360602 1396.1938,23.565548 1393.4334,20.50451 1389.8097,21.882237 1384.1314,24.04115 1376,42.861804 1376,53.845901 1376,60.362062 1379.3016,71.18395 1383.6493,78.91829 L 1386.4236,83.853585 1383.6122,87.676792 C 1382.0659,89.779557 1379.9011,92.9625 1378.8016,94.75 1376.7613,98.066909 1374.9981,98.995095 1375.0024,96.75 z M 1381.6561,99.252558 C 1381.082,98.323737 1389.6426,89.248315 1390.3249,90.062368 1390.5266,90.303066 1391.8661,92.262673 1393.3016,94.41705 1396.6503,99.442786 1395.5709,101.37243 1391.9121,96.901126 L 1389.129,93.5 1385.6772,96.836906 C 1383.7788,98.672205 1381.9692,99.759248 1381.6561,99.252558 z M 1387.1438,74.673303 C 1381.7653,68.192599 1380.7202,47.781012 1385.266,38 1387.3317,33.555364 1390.1022,30 1391.5,30 1393.5054,30 1396.9764,35.359593 1397.7896,39.711762 1398.1789,41.795293 1398.4713,48 1398.4394,53.5 1398.3917,61.709606 1397.964,64.447102 1396.0504,68.789909 1393.1468,75.379145 1389.6479,77.690469 1387.1438,74.673303 z M 1393.3645,69.644315 C 1394.2403,67.798689 1395.5024,63.107081 1396.1693,59.21852 1398.0601,48.19218 1395.0555,33 1390.984,33 1389.8502,33 1386.2764,41.103599 1385.2509,46 1383.1134,56.205168 1386.1502,72.98712 1390.1361,72.996252 1391.0359,72.998313 1392.4887,71.489942 1393.3645,69.644315 z"/>
</svg>
