<svg xmlns="http://www.w3.org/2000/svg"
     width="47.7" height="64.0"
     viewBox="886.8270 16.5684 65.1161 87.4504">
  <path d="M 900,96.122124 C 900,95.089292 899.30516,92.58126 898.45591,90.54872 896.3582,85.528199 897.203,83.668896 903.58213,79.26656 906.62394,77.167355 909.31014,74.46545 909.65025,73.162947 910.38461,70.350666 907.24291,65.641885 904.34107,65.20553 901.60252,64.793729 897.17198,68.557006 896.26229,72.067598 895.27305,75.885192 893.93609,76.140316 892.09633,72.862561 890.87966,70.694913 890.82697,69.520898 891.80049,66.271572 893.36252,61.057988 896.90625,55.909955 900.20926,54.056024 902.65739,52.681923 903.19112,52.739133 906.78909,54.761305 908.94266,55.971681 910.99613,56.670541 911.35234,56.314328 912.23585,55.430813 912.14504,47.766657 911.23469,46.384781 910.83061,45.771411 909.375,44.930685 908,44.516501 904.61905,43.498075 902.42362,41.436934 900.96249,37.909445 898.67653,32.390658 904.66712,22 910.13486,22 911.16069,22 912.00669,22.3375 912.01488,22.75 912.02306,23.1625 913.54194,25.287591 915.39017,27.472424 L 918.75058,31.444849 922.7419,28.678863 C 924.93713,27.157571 927.75866,24.821349 929.01197,23.487259 931.75412,20.568378 933,21.081218 933,25.128842 933,28.29759 929.04837,34.792248 924.60623,38.924314 922.3185,41.052364 922,42.135913 922,47.790945 922,53.995039 922.0832,54.209571 924.25,53.592558 932.46054,51.254545 932.97702,51.473781 936.54239,58.810384 938.555,62.951794 940.5135,63.75025 943.04338,61.460745 944.12626,60.480746 945.25351,59.920175 945.54837,60.215032 946.42334,61.090005 940.05448,65.959353 938.72292,65.433463 938.05031,65.167821 936.25263,62.69371 934.72807,59.935439 933.20351,57.177167 931.21348,54.635416 930.30579,54.287102 929.38774,53.934814 926.98235,54.616716 924.88487,55.823873 922.81105,57.017411 920.91841,57.657805 920.679,57.246971 920.4396,56.836137 920.23147,53.172686 920.21651,49.10597 920.18953,41.775077 920.22573,41.67261 924.45496,37.10597 929.07723,32.114938 931,29.01848 931,26.565741 931,24.184937 929.46737,24.677856 926.33477,28.066153 922.97216,31.703235 918.7582,34.12321 917.43518,33.176979 916.91457,32.804641 915.21116,30.786774 913.64982,28.692832 910.1581,24.010043 907.51727,24.089159 904.23242,28.974965 901.74887,32.66893 901.84309,35.50197 904.59078,39.75 906.0942,42.074348 910.36536,42.835882 911.51008,40.983688 911.85554,40.424717 912.5571,40.226274 913.0691,40.542705 914.10277,41.18155 914.37205,59.294616 913.36288,60.303788 913.01246,60.654205 911.41639,60.008558 909.81605,58.869018 908.21572,57.729477 905.19675,56.567821 903.10725,56.28756 899.43176,55.794573 899.20553,55.944779 896.15408,60.904019 893.43127,65.329148 891.94195,71 893.5026,71 893.77903,71 895.6314,69.2 897.61896,67 901.85348,62.312898 905.48679,61.760361 908.8103,65.298075 911.64878,68.3195 912.6759,73.476982 910.8745,75.663056 910.11853,76.580467 907.10881,78.863762 904.18625,80.737046 899.17088,83.951766 898.91064,84.321495 899.55172,87.321509 900.64527,92.438881 904,95.270929 904,91.076725 904,88.465637 908.02983,83.908727 912.375,81.606313 916.82385,79.248961 918.55752,80.357127 920.11839,86.555907 922.67252,96.69925 931.03624,98.053713 930.98526,88.315741 930.97029,85.457561 930.31501,84.034679 926.19748,77.919568 923.52719,73.953818 923.6951,68.099381 926.57024,64.922384 929.16407,62.056235 930.402,62.508189 935,68 939.47174,73.341005 941.54046,74.002431 945.55221,71.373831 947.63946,70.006215 947.94311,69.984679 947.46202,71.238381 946.80097,72.96105 942.76766,75 940.02104,75 938.98437,75 937.1029,73.5375 935.83998,71.75 930.62018,64.361998 927.65314,64.001538 926.41434,70.604895 925.94804,73.090518 926.27812,74.715882 927.63788,76.629706 932.31371,83.210806 932.98977,84.746187 932.99474,88.795455 932.9987,92.027216 932.39218,93.698734 930.54545,95.545455 927.41616,98.674745 926.7896,98.632179 922.66421,95.010034 920.30155,92.935592 919.06884,90.831966 918.63836,88.139906 917.75386,82.608553 915.81443,81.283355 912.28525,83.798881 908.3301,86.618027 906.36498,89.093818 905.63281,92.180073 904.52434,96.852513 900,100.01881 900,96.122124 z"/>
</svg>
