<svg xmlns="http://www.w3.org/2000/svg"
     width="18.5" height="64.0"
     viewBox="2032.5474 20.0000 23.9437 82.6538">
  <path d="M 2036.8263,97.49294 C 2036.5474,97.214057 2036.6714,94.851557 2037.1018,92.24294 2037.5322,89.634323 2037.9222,73.2125 2037.9685,55.75 2038.0416,28.145215 2038.2496,24 2039.5618,24 2041.7602,24 2044.9057,32.145009 2046.0911,40.907485 2046.656,45.083368 2047.5471,50.143292 2048.0712,52.15176 2049.8259,58.875597 2052.4416,82.759023 2052.4803,92.410061 2052.4911,95.110594 2052.0068,97.487486 2051.4041,97.692043 2050.8013,97.896601 2049.1075,96.249697 2047.64,94.032257 2045.2625,90.439545 2044.7577,90.134382 2043.0039,91.229668 2041.9214,91.905685 2040.6011,93.705561 2040.0699,95.229394 2039.1619,97.833996 2037.9871,98.653807 2036.8263,97.49294 z M 2049.5535,82.75 C 2048.5512,70.524805 2044.7623,44.921816 2042.8227,37.268161 2040.7945,29.265029 2039.8431,33.872869 2040.4305,48.853458 2040.7464,56.909056 2040.6662,69.237597 2040.2524,76.250216 2039.8386,83.262835 2039.8436,89.000335 2040.2636,89.000216 2040.6835,89.000097 2041.9138,88.446297 2042.9974,87.769549 2044.6282,86.75109 2045.2658,86.837234 2046.6981,88.269549 2049.657,91.228443 2050.1677,90.241325 2049.5535,82.75 z"/>
</svg>
