<svg xmlns="http://www.w3.org/2000/svg"
     width="30.3" height="64.0"
     viewBox="1344.6562 20.0000 39.0823 82.4301">
  <path d="M 1348.6562,27.21875 1348.6562,29.125 C 1354.727,24.812964 1358.8056,25.106734 1361.25,30 1362.2356,31.972785 1362.9992,35.747681 1363,38.65625 1363.0011,42.311239 1363.8757,45.665764 1366,50.15625 1369.2994,57.13054 1369.8711,63.666468 1367.875,71.59375 1366.898,75.473902 1367.0308,76.805773 1368.875,81.625 1372.0114,89.820967 1371.2939,96.044327 1367.2188,95.96875 1362.6078,95.883233 1359.6761,90.350813 1361.0625,84.375 1362.5379,78.015306 1362.2076,73.605315 1360.1875,72.34375 1359.1929,71.722599 1357.8227,69.411825 1357.1562,67.1875 1355.9383,63.122354 1356.1039,61.91302 1359.0625,51.28125 1361.487,42.56886 1358.0231,36.238738 1351.4062,37.3125 1350.4641,37.465386 1349.5566,37.932569 1348.6562,38.34375 L 1348.6562,40.53125 C 1349.6105,40.026134 1350.6071,39.622327 1351.6875,39.40625 1354.1543,38.912888 1355.0628,39.251649 1356.375,41.125 1357.2696,42.40221 1358,44.757285 1358,46.34375 1358,48.698664 1357.6787,49.088175 1356.25,48.5 1350.8084,46.259808 1348.679,47.419868 1353.5,50 1357.7277,52.262607 1356.3458,57.912329 1351.75,57.15625 1349.3668,56.764178 1349.5351,58.680834 1352,60 1353.1,60.588702 1354,61.725601 1354,62.53125 1354,63.336899 1353.1,64 1352,64 1349.2282,64 1349.4895,65.650786 1352.375,66.375 1355.4822,67.154844 1357.7941,72.338355 1356,74.5 1354.9471,75.768772 1355.1669,76 1357.4375,76 1359.9262,76 1360.1004,76.271401 1359.8125,79.75 1359.6097,82.199936 1358.98,83.537031 1358,83.625 1354.7448,83.917208 1354.565,84.095789 1356.25,85.375 1357.2106,86.104251 1358.2582,88.072781 1358.5938,89.75 1359.1027,92.295188 1358.764,93.088801 1356.5625,94.53125 1353.3071,96.664285 1353.7887,97.411033 1357.5,96 1359.6574,95.179755 1360.7816,95.281358 1362.5938,96.46875 1365.5616,98.413338 1369.3981,98.430135 1371,96.5 1371.6847,95.675 1373.2049,94.986241 1374.375,94.96875 1376.3998,94.938483 1376.4239,94.878684 1374.6875,93.5625 1371.9835,91.51301 1372.7911,86.772997 1376,85.90625 1378.423,85.251786 1378.3819,85.200423 1375.1562,84.46875 1371.4356,83.624829 1370,81.062978 1370,75.3125 L 1370,71.75 1374.25,72.375 C 1378.2284,72.961519 1378.3722,72.885293 1376.5,71.4375 1375.4,70.586847 1373.6807,70.11715 1372.6875,70.375 1371.1543,70.773082 1370.928,70.282149 1371.1875,67.1875 1371.4645,63.885676 1371.8678,63.433906 1375.4375,62.4375 1379.7385,61.236932 1378.869,59.64415 1374.2188,60.1875 1371.9166,60.456497 1371.4427,60.074096 1371.1875,57.875 1370.9367,55.713863 1371.5396,54.962981 1374.6875,53.4375 1377.3286,52.157606 1377.9914,51.468319 1376.8125,51.21875 1375.8788,51.0211 1374.2273,51.33303 1373.1562,51.90625 1371.6661,52.703769 1370.8894,52.597225 1369.875,51.375 1368.7372,50.004063 1368.9816,49.423295 1371.5312,47.28125 1373.5758,45.563552 1373.8766,44.999392 1372.5,45.5 1368.2189,47.056875 1367.3353,47.095433 1366.2188,45.75 1365.583,44.983933 1364.9062,40.946068 1364.7188,36.78125 1364.2784,26.996978 1362.4958,24 1357.125,24 1354.6371,24 1351.9947,25.029384 1348.6562,27.21875 z"/>
</svg>
