<svg xmlns="http://www.w3.org/2000/svg"
     width="52.1" height="64.0"
     viewBox="2059.5321 13.4193 75.2778 92.5498">
  <path d="M 2071.0174,98.171197 C 2065.461,92.614893 2064.5201,81.787931 2068.4989,69.192758 2069.8733,64.841991 2072.1458,59.590642 2073.5489,57.523092 2075.552,54.571319 2076.0355,52.769047 2075.8,49.131956 2075.5087,44.6348 2075.3981,44.490449 2072,44.171821 2067.59,43.758315 2065.211,41.641575 2064.4205,37.427891 2063.5321,32.692076 2065.4388,27.953934 2070.0417,23.459287 2074.7417,18.869839 2076.9069,19.357544 2078.4264,25.347962 2079.5515,29.783623 2080.7516,29.912463 2084.5,26 2088.3998,21.929489 2090.9451,22.024707 2091.1829,26.25 2091.5065,32.000244 2091.0149,35.047897 2089.1561,38.814424 2087.7456,41.672743 2087.4679,43.846748 2087.9187,48.5 2088.4915,54.411793 2088.5656,54.533078 2092.9619,56.75 2095.4159,57.9875 2098.2284,59 2099.2119,59 2102.2645,59 2108.618,51.6351 2110.9745,45.364802 2113.5782,38.436909 2113.3059,34.68152 2109.6509,27.114326 2107.2159,22.072892 2106.9571,19.237431 2109.05,20.530911 2109.5515,20.840854 2111.4073,23.998792 2113.1739,27.54855 L 2116.386,34.002655 2114.7046,41.008583 C 2112.7856,49.004408 2107.6026,57.344656 2102.6924,60.337953 2099.6029,62.221352 2099.3388,62.227805 2094.5,60.538099 2086.8055,57.851188 2085.2833,55.966738 2085.1243,48.931547 2085.0501,45.651794 2084.8993,42.637978 2084.7891,42.23418 2084.6789,41.830381 2085.3021,40.15 2086.174,38.5 2088.3849,34.315714 2089.3383,29.327145 2088.0762,28.547122 2087.5038,28.193319 2085.3399,29.056884 2083.2677,30.466156 2079.7767,32.840308 2079.4082,32.903237 2078.25,31.323105 2077.5625,30.385155 2076.9931,28.916249 2076.9847,28.05887 2076.9523,24.756819 2075.5182,23.806747 2072.5844,25.143516 2069.1215,26.721287 2067,30.786218 2067,35.843351 2067,40.213146 2068.0081,41 2073.6065,41 2076.3822,41 2077.2385,41.497157 2078.0248,43.5651 2079.9231,48.558167 2079.1949,54.337425 2076.1361,58.552997 2066.1398,72.329968 2066.5682,98 2076.7944,98 2078.1608,98 2081.454,96.661614 2084.1125,95.025809 2091.4042,90.539142 2092.9836,90.410822 2097.4293,93.94384 2102.213,97.745455 2105.1578,97.787038 2112.3591,94.154661 2119.3532,90.626744 2120.1135,92.571382 2113.3009,96.563799 2106.9237,100.30111 2101.571,100.35995 2096.3612,96.75 2094.1784,95.2375 2091.8935,94 2091.2835,94 2090.6736,94 2087.7831,95.575 2084.8601,97.5 2078.3331,101.79851 2074.8152,101.96909 2071.0174,98.171197 z M 2080.4642,87.597488 C 2076.403,84.627847 2079.5587,66.257784 2084.4527,64.379789 2085.3077,64.051666 2088.0258,64.731981 2090.4928,65.891601 2104.8976,72.662666 2115.1895,63.451067 2119.0564,40.326177 2120.0681,34.275731 2123.2452,27.923618 2128.6893,21.066667 2128.8785,20.828333 2129.5045,21.10453 2130.0804,21.680436 2130.8099,22.409907 2129.9812,24.270209 2127.3484,27.813088 2124.5244,31.613242 2123.1418,34.870291 2121.8782,40.699318 2118.4075,56.709581 2113.3271,65.928762 2106.1857,69.175836 2101.2137,71.436544 2097.0391,71.38775 2090.7607,68.995543 2085.8232,67.114231 2085.4226,67.096034 2084.2407,68.69935 2082.7722,70.691426 2081.0136,76.594692 2081.0056,79.55887 2081.0025,80.691249 2081.5759,82.405298 2082.2797,83.367868 2083.631,85.215788 2085.0424,84.908888 2091,81.471803 2094.5516,79.422763 2097.6054,79.660102 2099.9406,82.166667 2102.9881,85.437685 2107.1449,84.988591 2110.7054,81.003662 2112.6172,78.864028 2113.9293,78.076617 2114.3767,78.800521 2115.3381,80.356079 2107.4915,88 2104.9333,88 2103.7966,88 2101.3916,86.875 2099.5889,85.5 2095.5338,82.407049 2094.365,82.38987 2089.9821,85.358809 2085.0796,88.679793 2082.7074,89.237752 2080.4642,87.597488 z M 2110.193,89.921008 C 2110.7133,88.359956 2115.7959,85.462576 2116.6012,86.267906 2117.4352,87.101898 2113.0187,90.920519 2111.1667,90.966731 2110.4333,90.985029 2109.9952,90.514454 2110.193,89.921008 z M 2115.1743,23.685549 C 2112.9496,21.317471 2112.3082,19 2113.8776,19 2114.3602,19 2115.3153,19.675 2116,20.5 2117.6891,22.535222 2119.3416,22.384993 2121.5,20 2123.5839,17.697272 2125,17.419283 2125,19.312909 2125,20.835386 2119.8792,26 2118.3696,26 2117.8081,26 2116.3702,24.958497 2115.1743,23.685549 z"/>
</svg>
