<svg xmlns="http://www.w3.org/2000/svg"
     width="40.4" height="64.0"
     viewBox="1656.2270 15.7616 56.8980 90.2186">
  <path d="M 1663.9646,98.75 C 1662.8613,96.9625 1661.683,94.443234 1661.3462,93.151632 1660.227,88.859825 1661.6627,73.688103 1663.5604,69.75327 1665.2542,66.240991 1665.267,65.677816 1663.7643,60.75327 1661.1907,52.319284 1660.8227,47.916702 1661.944,38.973866 1663.1658,29.230343 1666.4316,21.652551 1669.6043,21.199548 1671.6274,20.910681 1671.7287,21.39564 1672.2308,33.776205 1672.6327,43.684899 1673.214,47.672978 1674.7525,51.076657 1678.6392,59.675315 1683.7859,62.54993 1685.8051,57.25 1688.9418,49.0169 1689.4834,45.711207 1689.4914,34.75 1689.5013,21.207431 1690.6061,19.761582 1694.0761,28.75 1695.929,33.549579 1696.277,36.343193 1696.1814,45.651223 1696.0651,56.97732 1694.5314,63.487638 1690.5469,69.568795 1688.6868,72.407713 1683.5664,72.895646 1680.4411,70.531803 1677.3051,68.159832 1674.3815,68.648694 1673.1558,71.75 1671.2523,76.565939 1670.7619,79.917275 1671.4353,83.506573 1672.193,87.545718 1673.9581,87.964687 1677.7271,85 1680.9256,82.484061 1682.4394,82.49042 1686.56,85.037105 1689.9607,87.138835 1694.2642,86.952381 1695.7628,84.638386 1696.9506,82.804223 1702.8128,79.888088 1703.4005,80.839022 1704.2636,82.235556 1693.6408,89 1690.5845,89 1689.0615,89 1686.7033,88.125144 1685.3439,87.055876 1682.8232,85.073112 1680.6337,85.267704 1678.1801,87.692545 1676.0646,89.783206 1671.9073,90.466407 1670.9218,88.885347 1668.9017,85.644364 1668.7785,78.956313 1670.6351,73.320817 1673.1073,65.816457 1674.6367,64.964614 1680.4368,67.861322 1683.0754,69.17913 1685.8083,69.878229 1686.9298,69.522294 1691.5808,68.046111 1695.8215,51.563423 1694.609,39.674506 1693.6587,30.356852 1692.3957,29.791102 1691.6714,38.358735 1690.9345,47.076087 1687.4176,61.102204 1685.6828,62.242493 1682.0821,64.609144 1674.4395,58.42999 1672.1396,51.292614 1671.4674,49.206676 1670.6442,42.4375 1670.3101,36.25 1669.9761,30.0625 1669.3957,25 1669.0204,25 1666.7606,25 1664,37.366705 1664,47.489488 1664,51.03577 1664.8691,56.185292 1666.0657,59.728474 1667.9257,65.236168 1667.9868,66.126845 1666.6798,68.672646 1662.8038,76.22232 1662.2717,90.265682 1665.6452,95.976583 1668.1728,100.25548 1670.099,100.47935 1675.7449,97.150429 1683.0686,92.83223 1684.3545,92.630038 1689.0993,95.050663 1694.4374,97.773966 1699.003,97.779305 1703.391,95.067376 1707.7447,92.376658 1709.125,94.062735 1704.9831,97.012066 1699.2635,101.08473 1695.727,101.4025 1689.4051,98.411785 1683.7903,95.755557 1683.7453,95.751436 1680.1315,97.561777 1676.91,99.175576 1668.7964,101.83692 1666.7353,101.95587 1666.3147,101.98014 1665.0679,100.5375 1663.9646,98.75 z M 1697.4195,91.130208 C 1698.2353,89.810319 1703.9749,87.641517 1704.7091,88.37573 1705.7066,89.373268 1701.7754,91.9326 1699.191,91.968197 1697.921,91.985688 1697.1239,91.608593 1697.4195,91.130208 z"/>
</svg>
