<svg xmlns="http://www.w3.org/2000/svg"
     width="49.3" height="64.0"
     viewBox="134.8305 13.3738 69.8258 90.6262">
  <path d="M 198.65625,71.5625 198.65625,71.34375 199.1875,67.0625 C 197.40545,68.631646 193.17431,71 191.84375,71 191.37682,71 189.36256,69.2 187.375,67 185.38743,64.8 183.35973,63 182.875,63 181.39831,63 172.2298,69.955158 171.625,71.53125 170.77574,73.74438 171.80785,75.622949 175.375,78.34375 181.4643,82.988287 182.01739,92.986411 176.21875,93.8125 173.3469,94.221633 168.50197,89.259854 167.65625,85.03125 167.25033,83.001651 166.45154,82 165.25,82 162.39476,82 156.25935,87.684137 155,91.5 153.24463,96.818852 151.84992,95.710918 152.1875,89.25 152.48474,83.560953 152.54355,83.48501 157,81.15625 162.57255,78.24426 162.981,77.641562 163,71.78125 163.0137,67.554157 162.70232,66.896355 160.0625,65.53125 156.48577,63.681653 151.99729,63.556853 149.6875,65.25 148.74961,65.9375 146.88132,68.3 145.53125,70.5 143.45961,73.875826 143.05759,74.144759 143.03125,72.21875 142.98877,69.11264 145.6318,63.003681 148.21875,60.25 150.75191,57.553574 155.53586,57.286174 158.875,59.625 160.14479,60.514393 161.53223,60.851549 161.96875,60.375 162.40491,59.898849 162.98764,54.848521 163.28125,49.15625 L 163.8125,38.8125 161.15625,39.40625 C 152.9057,41.286175 152.30636,41.247668 150.125,38.90625 148.94815,37.643049 148,35.746406 148,34.6875 148,31.222782 152.11045,25.297834 155.84375,23.40625 158.30319,22.160106 159.73732,21.576683 160.5,21.6875 161.26268,21.798317 161.37142,22.610726 161.1875,24.1875 160.41247,30.831764 165.80484,32.990369 173.25,29 178.09853,26.401347 179,26.485431 179,29.5 179,31.7807 176.57315,34.663071 171.625,38.28125 170.17556,39.341105 169.97414,41.110769 170.21875,50.5 L 170.5,61.5 173,61.21875 C 174.375,61.065043 175.65656,60.482865 175.84375,59.9375 176.03094,59.392135 177.55145,58.237195 179.21875,57.375 182.22673,55.819514 182.26208,55.840797 186.5,60 190.35057,63.779049 191.12953,64.147748 194.15625,63.5 196.00271,63.10484 198.01501,62.359197 198.65625,61.84375 199.10294,61.484689 199.51057,61.554946 199.84375,61.84375 L 200.65625,55.34375 C 199.87718,57.424004 197.53642,59.364654 194.34375,60.375 192.70922,60.89226 191.10349,60.095955 187.5625,57.03125 L 182.90625,53 179,55 C 176.86649,56.088437 174.84478,57.442141 174.5,58 173.20558,60.094416 172.23901,58.869722 171.75,54.53125 170.86132,46.646898 172.51178,41.143502 177,37 179.201,34.968047 181.03455,33.128236 181.0625,32.90625 182.45292,21.862812 181.70891,20.536579 176.3125,24.25 172.31776,26.998887 167.81065,29 165.5625,29 163.88305,29 162.92591,24.282264 164.03125,21.375 164.61876,19.829732 164.45606,18.788143 163.46875,17.96875 163.18689,17.734831 162.88285,17.583741 162.53125,17.53125 161.47645,17.373778 159.9493,18.089137 156.84375,20 148.52779,25.116865 144.28832,32.133245 145.5,38.75 146.26256,42.914165 149.05397,44.339354 155.1875,43.75 157.87376,43.491884 160.30829,43.706297 160.625,44.21875 160.94171,44.731203 160.8986,47.559874 160.53125,50.5 L 159.875,55.84375 154.625,55.3125 C 149.46234,54.779667 149.29112,54.82371 146.34375,58.625 140.92599,65.612427 138.83049,74.563971 141.59375,78.78125 142.83705,80.678757 143.41106,80.893111 144.5625,79.9375 145.35071,79.283348 146,77.713718 146,76.4375 146,73.684379 149.50881,67.408348 151.46875,66.65625 152.22737,66.365138 154.40758,66.536526 156.3125,67.0625 159.06653,67.822926 159.85165,68.617984 160.1875,70.90625 160.87422,75.585172 159.47231,77.788224 154.90625,79.15625 149.70638,80.71417 148.30507,83.832593 148.625,93 148.74976,96.575 148.86246,99.6125 148.90625,99.75 148.95005,99.8875 149.71124,100 150.5625,100 152.38,100 157,95.287967 157,93.4375 157,91.695518 161.90462,85.995202 163.34375,86.0625 163.98236,86.092363 165.85,88.213434 167.5,90.78125 172.19981,98.095342 179.09763,98.496947 182.34375,91.65625 183.88792,88.402167 183.89526,87.772954 182.40625,83.3125 181.47927,80.535664 179.57785,77.524883 177.90625,76.1875 173.85471,72.946027 174.1803,70.656226 179.03125,68.46875 L 183.0625,66.65625 186.8125,70.34375 C 191.08496,74.515693 191.49792,74.605414 195.90625,72.40625 197.2228,71.749467 197.99382,71.650219 198.65625,71.5625 z"/>
</svg>
