<svg xmlns="http://www.w3.org/2000/svg"
     width="47.1" height="64.0"
     viewBox="1838.0000 15.9829 67.6056 91.7824">
  <path d="M 1854.2731,99.554739 C 1847.4435,93.413035 1845.5252,87.338647 1846.2517,74.154978 1846.7445,65.211752 1847.2068,63.353389 1850.8995,55.473495 1853.1548,50.660806 1855,46.365766 1855,45.928963 1855,45.49216 1853.9875,44.832817 1852.75,44.463758 1851.5125,44.094698 1848.5875,42.859609 1846.25,41.719115 1842.4127,39.846864 1842,39.293385 1842,36.019747 1842,30.759721 1849.7291,21 1853.8947,21 1854.4254,21 1855.871,23.025 1857.1071,25.5 1858.3432,27.975 1859.9259,30 1860.6243,30 1861.3227,30 1864.01,28.875 1866.596,27.5 1872.5695,24.32385 1874.3477,24.259347 1873.4879,27.25 1872.2494,31.557488 1869.6651,36.492022 1869.269,35.305439 1869.0497,34.64843 1869.3859,33.147389 1870.0162,31.969792 1870.6464,30.792196 1870.9715,29.638193 1870.7387,29.405342 1870.5058,29.172492 1867.7234,30.365088 1864.5556,32.055556 1861.3877,33.746024 1858.7101,34.987579 1858.6053,34.814567 1858.5005,34.641555 1857.3507,32.3625 1856.0502,29.75 1854.5755,26.787644 1853.0255,25 1851.9317,25 1849.818,25 1845.2362,30.210734 1844.3919,33.574836 1843.4541,37.311263 1844.4523,38.630546 1849.676,40.558514 1855.8452,42.835413 1857.9158,44.606115 1857.2749,47.056817 1856.9954,48.125568 1856.3692,49 1855.8834,49 1855.3975,49 1855,49.487536 1855,50.083414 1855,50.679291 1853.623,54.605598 1851.9401,58.80854 1849.0949,65.913992 1848.9072,67.153752 1849.2642,76.475126 1849.7039,87.954713 1851.3703,93.154711 1855.9091,97.210066 1859.7608,100.6516 1862.0571,100.71282 1866.7852,97.5 1868.8098,96.124216 1871.8993,95 1873.6554,95 1875.6003,95 1878.0068,95.976306 1879.8176,97.5 1883.7062,100.77204 1886.1852,100.65433 1890.3472,97 1893.7671,93.99728 1896,93.180826 1896,94.93305 1896,96.603117 1887.3545,103 1885.0973,103 1882.4087,103 1877,100.31103 1877,98.97432 1877,97.120469 1869.7101,97.923708 1867.4746,100.02388 1866.2897,101.13702 1863.9086,102.45262 1862.1833,102.94744 1859.3316,103.76528 1858.6121,103.45668 1854.2731,99.554739 z M 1859.4839,91.341053 C 1857.1615,89.018675 1856.6694,85.441128 1857.3167,75.587046 1857.8973,66.747389 1860.0571,59 1861.9406,59 1862.4432,59 1864.1247,60.524213 1865.6772,62.38714 1869.6164,67.113839 1877.2384,72 1880.6725,72 1887.959,72 1891.7283,65.126893 1896.576,43.000374 1899.3776,30.21288 1898.4601,27.418102 1890.2711,23.795712 1885.8899,21.857692 1884.6374,19.9829 1887.75,20.021962 1888.7125,20.034041 1891.4294,20.919623 1893.7876,21.989922 1900.0897,24.850195 1901.6056,29.009692 1899.9751,38.967426 1897.0617,56.759637 1893.2503,66.81704 1887.5116,71.855676 1881.7361,76.926639 1876.9154,76.125734 1867.6144,68.549985 L 1861.9689,63.951641 1860.9569,66.613476 C 1859.7797,69.709513 1859.4243,83.610901 1860.4405,86.812377 1861.3945,89.818476 1864.0292,89.552907 1868.5,86 1870.5763,84.35 1872.9331,83 1873.7375,83 1874.5419,83 1876.7582,84.558238 1878.6628,86.462752 L 1882.1255,89.925504 1886.6006,85.800551 C 1889.5684,83.064859 1891.4107,82.010652 1892.0704,82.670432 1893.2209,83.820884 1883.9713,93 1881.6615,93 1880.8782,93 1879.0361,91.425 1877.5678,89.5 1876.0995,87.575 1874.4447,86 1873.8905,86 1873.3362,86 1871.2216,87.294395 1869.1914,88.876433 1864.5759,92.472955 1861.4177,93.2748 1859.4839,91.341053 z M 1875.8376,64.223776 C 1871.9762,62.406357 1865.7012,54.922383 1863.3793,49.365307 1861.6616,45.254327 1861.602,40.574664 1863.25,39.209081 1864.2221,38.403542 1864.5112,39.348307 1864.5505,43.458867 1864.5982,48.462296 1864.9084,49.08493 1870.361,55.122231 1879.2011,64.910312 1882.3251,64.803744 1887.1232,54.550422 1888.7397,51.096052 1890.3284,46.023158 1890.6536,43.277324 1891.1811,38.822947 1890.9921,38.107889 1888.8999,36.64245 1887.6102,35.739103 1885.7551,35 1884.7775,35 1882.5863,35 1882.4402,33.428807 1884.5559,32.616924 1886.8943,31.719584 1892.9786,34.614367 1893.1356,36.698973 1893.9548,47.576478 1888.3167,62.167783 1882.2213,64.945046 1879.4469,66.20914 1880.2481,66.29967 1875.8376,64.223776 z M 1866.5,37 C 1866.8399,36.45 1867.3165,36 1867.559,36 1867.8016,36 1868,36.45 1868,37 1868,37.55 1867.5234,38 1866.941,38 1866.3585,38 1866.1601,37.55 1866.5,37 z M 1886.2058,29.431578 C 1884.9742,28.568946 1884.2024,27.481469 1884.4908,27.014962 1885.1116,26.010486 1893,28.918371 1893,30.15169 1893,31.568289 1888.5889,31.100758 1886.2058,29.431578 z M 1888,92.568094 C 1888,90.888342 1893.4234,86.756781 1894.3769,87.710212 1895.0833,88.416639 1890.1442,94 1888.8129,94 1888.3658,94 1888,93.355642 1888,92.568094 z"/>
</svg>
