<svg xmlns="http://www.w3.org/2000/svg"
     width="33.3" height="64.0"
     viewBox="2131.9999 13.9524 46.6563 89.5659">
  <path d="M 2173.4062,73.375 C 2172.9254,74.279946 2172.3122,75.174068 2171.3125,76.3125 2167.5154,80.636798 2161.5761,84 2157.7812,84 2154.4067,84 2152.7056,81.046651 2150.9688,72.21875 2149.5235,64.872352 2150.1595,50.372567 2152.1875,44.5 2153.4481,40.849533 2153.8438,40.518372 2156.7812,40.75 2160.8944,41.074329 2160.9123,39.607761 2156.8125,37.5625 2154.121,36.219799 2153.3948,36.167635 2152.25,37.3125 2148.1449,41.417559 2146.0858,66.24305 2148.9688,76.84375 2150.6076,82.869829 2153.9017,87 2157.0312,87 2160.7476,87 2168.6316,82.971769 2170.875,79.9375 2172.1824,78.169074 2173.111,77.33245 2173.7812,77.25 L 2173.4062,73.375 z M 2174.3438,83.40625 C 2173.7327,84.415665 2172.5889,85.273586 2170.25,86.6875 2167.6375,88.266844 2162.479,91.048695 2158.7812,92.84375 2151.1974,96.525242 2149.1899,96.199648 2146.4688,90.9375 2141.6883,81.693242 2138.6922,57.102068 2140.9688,45.78125 2143.4755,33.316202 2148.2681,23 2151.5312,23 2153.6914,23 2162,27.071344 2162,28.125 2162,28.61443 2162.45,29 2163,29 2165.3423,29 2163.6897,26.127907 2159.75,23.34375 2152.121,17.952393 2150.5819,18.036075 2146.5938,24.0625 2138.5266,36.25275 2135.9999,54.073079 2139.4375,74.625 2141.826,88.905085 2144.5122,95.456877 2149.1562,98.34375 2151.0458,99.518337 2159.8713,95.765004 2171.6562,88.78125 L 2174.625,87.03125 2174.6562,86.65625 2174.3438,83.40625 z M 2153.5,30 C 2152.9808,30.839982 2154.9705,32.728431 2158.3438,34.59375 2160.7427,35.920342 2162.2278,35.848052 2162.7188,34.375 2163.1216,33.166619 2154.1686,28.918209 2153.5,30 z"/>
</svg>
