<svg xmlns="http://www.w3.org/2000/svg"
     width="20.4" height="64.0"
     viewBox="2603.8213 18.1787 29.4889 92.5764">
  <path d="M 2610.8232,99.977029 C 2607.9041,97.05798 2607.8213,96.726776 2608.4127,90.342751 2609.0988,82.937463 2612.0356,75.307317 2614.5748,74.332916 2616.8412,73.46321 2620.9945,76.071727 2623.8346,80.148702 2625.8005,82.970723 2626.0694,84.265733 2625.5371,88.348501 2623.7733,101.87713 2617.6012,106.75502 2610.8232,99.977029 z M 2614.75,54.919889 C 2611.8699,53.242399 2610,48.43375 2610,42.704818 2610,38.588605 2610.7701,35.804849 2613.25,30.957096 2617.0505,23.527734 2618.7623,22.178655 2622.6528,23.546859 2626.2684,24.81839 2629.3102,32.664464 2628.4499,38.5 2626.4874,51.812019 2620.9038,58.50417 2614.75,54.919889 z M 2620.2871,98.235227 C 2625.5933,92.371986 2623.1183,77 2616.8681,77 2610.6789,77 2608.3208,96.953556 2614.229,99.330706 2616.7226,100.334 2618.7136,99.973973 2620.2871,98.235227 z M 2621.2244,52.25 C 2625.9723,46.834959 2627.5017,36.529912 2624.5913,29.564243 2623.4251,26.773244 2619.5175,23.899493 2618.6008,25.158694 2611.5561,34.83516 2610.0447,46.225328 2615.0923,51.598293 2617.7761,54.45501 2619.1619,54.602296 2621.2244,52.25 z"/>
</svg>
