<svg xmlns="http://www.w3.org/2000/svg"
     width="56.5" height="64.0"
     viewBox="2634.9419 14.5756 79.8304 90.4244">
  <path d="M 2674.3398,97.166124 C 2671.6779,95.057492 2668.9082,92.613589 2668.1849,91.735229 2667.002,90.298764 2666.1475,90.531981 2659.6849,94.05504 2652.1245,98.176582 2649.6108,98.691053 2645.7123,96.914788 2642.0613,95.251266 2640.329,91.232991 2639.6581,82.871653 2638.9419,73.944535 2640.2934,67.61476 2645.557,55.245547 2649.041,47.058444 2649.0538,46.974161 2647.1362,44.91583 2643.1357,40.6218 2642.4552,30.820458 2645.6972,24.188184 2648.4407,18.575613 2650.1467,19.449848 2653,27.930469 2654.375,32.017227 2656.0308,35.531646 2656.6795,35.74029 2657.9319,36.143105 2664.2653,28.507277 2667.3398,22.887789 2669.0386,19.782674 2669.2796,19.661928 2670.4859,21.311598 2672.8905,24.600094 2669.1787,42.851061 2666.2275,42.25 2665.4806,42.09789 2665,43.143568 2665,44.920545 2665,48.241498 2665.3505,48.374117 2678.4493,50.009171 2682.8214,50.554919 2686.7626,50.637374 2687.2076,50.192406 2688.5379,48.862111 2692,38.245528 2692,35.496466 2692,34.092041 2690.6435,30.255799 2688.9856,26.971483 2686.7197,22.482821 2686.3305,21 2687.4182,21 2688.2141,21 2689.1847,22.006595 2689.5752,23.236878 2689.9657,24.46716 2691.3995,27.1577 2692.7615,29.215855 L 2695.2379,32.957955 2693.0651,41.209797 C 2690.1164,52.408029 2689.2281,53.254499 2681.033,52.6754 2672.3331,52.060623 2663.2769,50.038544 2661.9243,48.408771 2661.0994,47.4149 2661.4876,46.227322 2663.4991,43.590015 2666.3815,39.810989 2669.0339,32.261691 2668.9444,28.091069 L 2668.8889,25.5 2666.6944,28.447114 C 2665.4875,30.068027 2662.7146,33.374535 2660.5325,35.794909 L 2656.565,40.195591 2654.2553,37.510392 C 2652.9849,36.033533 2651.4145,32.839525 2650.7654,30.412597 2649.4465,25.481331 2648.6099,24.991807 2646.9148,28.159278 2645.3065,31.164316 2646.4971,39.828562 2648.9798,43.186508 2650.0909,44.689387 2651,46.254749 2651,46.665092 2651,47.075434 2649.4843,50.806155 2647.6318,54.955584 2642.8084,65.759292 2642.0715,68.587198 2641.8872,77 2641.6318,88.660891 2641.8082,89.583159 2644.9344,92.929764 2648.4325,96.674552 2650.0221,96.500864 2660.2698,91.254109 2667.8357,87.380436 2667.1588,87.235786 2674.6796,94.333623 2678.339,97.787258 2679.2664,98.196721 2682.1315,97.623701 2683.9313,97.263742 2686.3905,96.042311 2687.5964,94.90941 2689.7129,92.921052 2691.9093,93.719648 2690.5176,95.971528 2689.9118,96.951808 2681.4145,101 2679.9627,101 2679.532,101 2677.0017,99.274756 2674.3398,97.166124 z M 2675.3746,87.448888 C 2671.788,81.975111 2662.4472,80.475369 2657.8505,84.63527 2655.4016,86.851532 2652.7655,85.954865 2651.8684,82.600465 2650.3812,77.039321 2657.0336,57.122734 2661.1064,54.943051 2662.381,54.260898 2665.1017,54.706229 2670.5751,56.492935 2680.206,59.63679 2689.0999,59.882514 2691.7137,57.076962 2692.699,56.019291 2695.2041,50.554335 2697.2804,44.932615 2700.8778,35.192243 2707.489,25 2710.2095,25 2710.7723,25 2709.6249,26.779723 2707.6597,28.95494 2703.6139,33.433158 2700.574,38.971375 2699.5451,43.738532 2699.1607,45.519725 2698.4307,47.233783 2697.9231,47.547549 2697.4154,47.861316 2697,48.923959 2697,49.908978 2697,50.893998 2695.6059,53.624464 2693.9019,55.976681 L 2690.8039,60.253439 2680.6519,59.797587 C 2673.7832,59.48916 2669.2898,58.765759 2666.7581,57.56077 2664.7001,56.581239 2662.4348,56.002929 2661.7241,56.275636 2658.298,57.590349 2652.4954,75.227105 2653.6272,80.885918 2653.9697,82.598663 2654.4367,84 2654.6648,84 2654.893,84 2656.8438,83.1 2659,82 2665.453,78.707939 2671.7551,79.756997 2676.4073,84.897621 2678.7181,87.451024 2679.4077,87.459747 2684.5,85 2688.9686,82.841517 2690,82.621058 2690,83.824399 2690,84.58963 2679.2482,90 2677.7275,90 2677.3527,90 2676.2939,88.852 2675.3746,87.448888 z M 2683,91.598776 C 2683,91.160965 2689.8377,87 2690.5572,87 2690.8007,87 2691,87.5846 2691,88.299112 2691,89.013623 2689.5056,90.138623 2687.679,90.799112 2684.1898,92.060836 2683,92.264173 2683,91.598776 z M 2696.1439,25.881054 C 2692.5468,20.989713 2693.8461,18.815058 2697.573,23.489108 L 2699.7863,26.2648 2703.3609,23.538314 C 2705.3269,22.038747 2707.4817,20.993916 2708.1494,21.216467 2708.8171,21.439025 2707.5941,22.943799 2705.4317,24.560552 2703.2692,26.177249 2701.0163,28.116779 2700.4252,28.870621 2699.5659,29.966521 2698.7077,29.367307 2696.1439,25.881054 z"/>
</svg>
