<svg xmlns="http://www.w3.org/2000/svg"
     width="22.5" height="64.0"
     viewBox="778.6562 18.8792 29.3377 83.3080">
  <path d="M 800.94442,81.25 C 800.91385,73.1375 800.73385,62.675 800.54442,58 800.23299,50.314241 799.81403,26.886133 799.94624,24.55 799.97816,23.985852 800.41058,24.010582 801.01089,24.610886 801.59932,25.199323 802.22306,34.79012 802.50343,47.560886 802.76834,59.627399 803.22839,75.4625 803.52577,82.75 803.99399,94.223856 803.86094,96 802.53323,96 801.2274,96 800.99176,93.812372 800.94442,81.25 z M 791.42401,94.877053 C 791.0423,94.259432 791.08098,79.971932 791.50996,63.127053 791.93894,46.282174 792.3372,30.514444 792.39496,28.087654 792.45822,25.430304 793.01881,23.500652 793.80438,23.236195 794.8649,22.879175 794.97439,26.882305 794.39003,44.648541 793.99473,56.666843 793.75813,73.1375 793.86427,81.25 794.04391,94.981022 793.46977,98.187158 791.42401,94.877053 z M 782.65625,53.15625 782.65625,57.4375 C 782.77521,57.389008 783.49866,57 783.53125,57 784.27703,57 784.05625,61.387661 783.25,62.5 783.18325,62.592096 782.7944,62.788405 782.65625,62.90625 L 782.65625,65.6875 783.5,65.28125 783.78125,81.125 C 783.98921,93.131938 784.35205,97 785.3125,97 786.31301,97 786.60229,89.171936 786.6875,60 786.74998,38.605264 786.42772,23 785.90625,23 785.41024,23 784.9897,23.5625 784.96875,24.25 784.40269,42.820381 783.76253,50.482546 782.65625,53.15625 z"/>
</svg>
