<svg xmlns="http://www.w3.org/2000/svg"
     width="21.6" height="64.0"
     viewBox="1025.5030 16.8391 28.4207 84.2999">
  <path d="M 1031.4411,94.578613 C 1029.8444,93.409437 1029.503,91.945561 1029.517,86.328613 1029.5384,77.720685 1032.9025,70.687968 1037.2387,70.18592 1044.0567,69.396536 1046.281,83.44369 1040.6785,91.909568 1037.7569,96.324406 1034.9377,97.138986 1031.4411,94.578613 z M 1040.0631,87.669318 C 1042.2874,82.770239 1042.4179,80.797766 1040.8117,76.355716 1038.6771,70.452578 1035.3899,71.113194 1033.1313,77.899223 1031.6625,82.312485 1031.6757,91.275686 1033.1532,92.753196 1034.9677,94.56775 1037.9157,92.398831 1040.0631,87.669318 z M 1036.8284,50.9638 C 1035.9091,50.42734 1034.3909,47.682176 1033.4546,44.863435 1030.6039,36.280551 1032.9168,26.066275 1038.5464,22.377619 1040.8945,20.839098 1041.1812,20.854004 1043.128,22.615841 1049.9237,28.76586 1049.685,41.652791 1042.6344,49.260465 1039.8597,52.254475 1039.3144,52.414427 1036.8284,50.9638 z M 1041.5675,47.289658 C 1044.6594,44.197783 1046.1443,39.165566 1045.4402,34.16572 1044.0582,24.351594 1039.2677,21.879865 1035.99,29.289707 1034.3917,32.902943 1034.2324,34.569403 1034.9798,39.857226 1036.2021,48.504591 1038.1523,50.704849 1041.5675,47.289658 z"/>
</svg>
