<svg xmlns="http://www.w3.org/2000/svg"
     width="49.0" height="64.0"
     viewBox="1049.8421 13.8016 67.5017 88.1984">
  <path d="M 1113.3438,52.59375 C 1112.7158,54.132625 1111.9784,55.299094 1110.9062,56.0625 1109.3259,57.187808 1106.518,58.359212 1104.6875,58.65625 1101.8297,59.120019 1101.12,58.792309 1099.5625,56.34375 1098.5649,54.775482 1096.8632,52.537521 1095.7812,51.34375 1093.9251,49.295813 1093.58,49.253464 1089.7812,50.59375 1087.5669,51.375021 1085.6335,52 1085.5,52 1085.3665,52 1085.2465,49.471159 1085.2188,46.375 1085.171,41.071244 1085.41,40.470563 1089.5625,36.03125 1094.7956,30.436618 1097.8523,23.282398 1095.4062,22.34375 1094.5375,22.010355 1091.9635,23.12345 1089.4375,24.9375 1086.995,26.691574 1084.5031,27.806344 1083.9062,27.4375 1083.3094,27.068656 1081.9698,24.762581 1080.9062,22.28125 1079.071,17.999587 1078.8042,17.801645 1075.7812,18.40625 1069.7441,19.613684 1065,25.99382 1065,32.9375 1065,38.51967 1067.7983,41.325408 1072.5312,40.4375 L 1076,39.78125 1076,45.375 C 1076,51.674578 1075.8833,51.757249 1069,49.3125 1064.516,47.719926 1064.0766,47.706166 1061.625,49.3125 1057.6718,51.902788 1054.7735,58.550963 1054.3125,66 1053.8421,73.60047 1055.1515,76.681738 1057.5312,73.5625 1058.3458,72.494879 1059,70.881107 1059,69.96875 1059,67.620618 1064.7044,60 1066.4688,60 1068.7576,60 1071.1659,64.494751 1070.8125,68.125 1070.562,70.698809 1069.4017,72.254543 1065.3438,75.4375 1062.5054,77.663739 1059.9002,80.138684 1059.5625,80.90625 1059.2248,81.673816 1059.7478,85.836316 1060.7188,90.15625 1061.6898,94.476184 1062.9737,98 1063.5625,98 1065.8291,98 1069,93.855703 1069,90.90625 1069,86.733184 1071.343,82.600763 1075.5312,79.40625 1079.7769,76.167938 1081.0007,76.892789 1081.5938,83.125 1082.0922,88.364368 1084.4037,91.815397 1089.25,94.46875 1092.8276,96.427477 1092.8697,96.425044 1095.0312,94.46875 1096.8888,92.787699 1097.1604,91.684985 1096.8125,86.875 1096.5515,83.266291 1095.7559,80.599703 1094.625,79.46875 1090.6625,75.506279 1089.7463,73.140158 1090.4375,68.53125 1090.8068,66.068069 1091.4414,63.842462 1091.8438,63.59375 1092.2463,63.345037 1094.5779,64.497569 1097.0312,66.15625 1101.0985,68.906195 1101.9967,69.129946 1107.125,68.5625 1109.4307,68.307378 1110.8957,68.177329 1111.875,68.59375 L 1112.6562,67.34375 1112.7812,64.40625 C 1111.7274,65.516827 1109.9355,66.184096 1106.7188,66.625 1102.5381,67.19802 1101.6881,66.928763 1097.1875,63.625 1094.4693,61.629634 1091.986,60 1091.6875,60 1090.6865,60 1087.9706,66.338212 1087.375,70.0625 1086.8615,73.273846 1087.2322,74.251141 1090.25,77.625 1095.1016,83.04911 1095.9393,85.027671 1095.125,89.03125 1094.1937,93.610689 1090.8901,94.228269 1087.0312,90.53125 1084.8917,88.481361 1084.1306,86.637457 1083.6875,82.34375 1083.1598,77.231103 1081.3193,74.136051 1078.7188,74.03125 1078.2847,74.013759 1075.6906,76.266168 1072.9688,79.03125 1068.2451,83.830104 1067.4162,85.413326 1066.7812,90.90625 1066.3338,94.775909 1064.4236,94.386531 1063.1562,90.15625 1061.1108,83.329312 1061.5738,82.040342 1068.0938,76.0625 1073.8961,70.742578 1074.1392,70.313742 1073.5,66.90625 1073.1309,64.938942 1071.802,62.031083 1070.5312,60.4375 1068.4844,57.870428 1067.8811,57.649915 1065.375,58.53125 1063.8193,59.078365 1061.5062,61.082261 1060.2188,63 1058.9311,64.917739 1057.4545,66.660417 1056.9375,66.84375 1055.0901,67.498915 1056.047,62.273968 1058.75,56.9375 1061.9444,50.630808 1064.3184,49.800472 1071.4688,52.53125 1073.8827,53.45317 1076.3452,53.92854 1076.9375,53.5625 1078.1064,52.84006 1078.4705,36.782995 1077.3438,35.65625 1076.9758,35.288383 1075.8647,35.695074 1074.9062,36.5625 1073.9334,37.442943 1071.9397,37.993908 1070.375,37.8125 1068.1268,37.551849 1067.4578,36.877603 1066.9375,34.3125 1066.1545,30.451936 1068.861,23.690116 1071.8438,22.09375 1075.9279,19.907969 1077.9622,20.745994 1080,25.5 1082.1771,30.578973 1083.859,31.073638 1088.5,28 1092.1395,25.589637 1093,25.5069 1093,27.59375 1093,29.316829 1087.384,35.371383 1085.0938,36.125 1083.3036,36.714046 1082.2794,53.424707 1083.9688,54.46875 1084.5739,54.842701 1086.8102,54.265037 1088.9375,53.15625 1092.7085,51.19067 1092.8542,51.18147 1094.5,53 1095.4283,54.025836 1096.9322,56.362024 1097.8438,58.1875 1099.893,62.291048 1102.8681,62.850731 1107.5938,60.0625 1110.5367,58.326079 1112.1585,57.880264 1113.0625,58.4375 L 1113.3438,52.65625 1113.3438,52.59375 z"/>
</svg>
