<svg xmlns="http://www.w3.org/2000/svg"
     width="34.6" height="64.0"
     viewBox="1119.0938 17.0000 45.9062 84.9566">
  <path d="M 1123.0938,89.4375 1127.3125,91.8125 C 1138.1994,97.956642 1143.7939,97.726129 1148.4062,90.9375 1151.2199,86.796206 1151.8424,83.997011 1152.4375,73.09375 1153.1645,59.775274 1155.0879,49.954422 1158.1562,43.875 1160.4731,39.28432 1161,36.969244 1161,31.21875 1161,23.934581 1160.4149,21 1158.9375,21 1158.4665,21 1158.1538,24.9375 1158.25,29.75 1158.4054,37.532464 1158.1261,39.1103 1155.6562,43.96875 1153.2526,48.697131 1152.6978,51.529619 1151.5,65.15625 1149.4543,88.428164 1148.0666,92.01604 1140.6562,93.40625 1137.8236,93.937668 1135.842,93.501053 1131.5,91.375 1126.7396,89.044072 1124.4333,87.274345 1124.125,86.34375 L 1123.0938,89.4375 z M 1124.3438,85.65625 C 1125.2912,85.431454 1127.6611,85.871522 1131.4688,87.1875 L 1138.1562,89.5 1140.5312,86.71875 C 1144.0227,82.680522 1145.3599,76.857203 1145.5625,64.75 1145.8029,50.38719 1145.3145,48.402065 1141,46.25 1139.0767,45.290619 1137.351,43.635432 1137.1562,42.59375 1136.8408,40.906258 1137.2551,40.796155 1140.875,41.375 1144.4192,41.941736 1145.0666,41.717751 1146.125,39.75 1148.1122,36.055731 1148.8383,30.053898 1147.7188,26.40625 1146.1614,21.331752 1145.2687,22.288842 1145.7812,28.46875 1146.03,31.468347 1145.931,35.094584 1145.5625,36.5625 1144.9671,38.934809 1144.532,39.175194 1141.6875,38.65625 1139.9275,38.335143 1137.4875,37.798053 1136.25,37.4375 1134.2528,36.855611 1134,37.130729 1134,39.9375 1134,43.154645 1136.1357,45.980031 1140.9375,49.09375 1143.3091,50.631601 1143.3843,51.052783 1143.4375,63.09375 1143.4992,77.057383 1141.9615,84.56306 1138.8125,85.5625 1137.741,85.902591 1134.8003,85.580562 1132.2812,84.84375 1129.9834,84.171634 1128.3621,83.088191 1126.6562,81.4375 L 1125.3438,82.65625 1124.3438,85.65625 z M 1152.0312,22 C 1151.2172,21.847949 1151.1653,23.280564 1152.0625,25.625 1153.2915,28.836371 1152.4356,39 1150.9375,39 1150.4271,39 1150,39.472172 1150,40.0625 1150,40.652828 1150.7539,40.990328 1151.6562,40.8125 1155.2966,40.095156 1156.4107,26.004369 1153.0938,22.6875 1152.6674,22.261197 1152.3026,22.050684 1152.0312,22 z"/>
</svg>
