<svg xmlns="http://www.w3.org/2000/svg"
     width="53.3" height="64.0"
     viewBox="342.5202 16.5186 69.4798 83.4814">
  <path d="M 407.78125,49.65625 405.875,51.1875 C 403.20199,53.307844 394.48551,57.996375 393.28125,57.96875 392.85047,57.958868 391.01494,55.715612 389.21875,52.96875 L 385.96875,47.96875 381.96875,50 378,52.03125 378,47.375 C 378,43.491406 378.61191,41.958339 381.625,38.28125 387.59389,30.997006 388.5224,20.51855 382.75,25.625 378.93428,29.000515 374.90217,31.175055 373.46875,30.625 372.71853,30.337113 371.80037,28.528061 371.4375,26.59375 370.59495,22.102571 368.8516,20.663978 365.1875,21.46875 360.00091,22.607917 355,29.380764 355,35.28125 355,39.589469 357.58317,42.000583 362.9375,42.71875 366.89754,43.249903 367,43.366586 367,47.0625 367,50.819826 366.95492,50.864925 363.15625,50.8125 354.82889,50.697573 350.8089,53.700155 348.46875,61.75 346.52018,68.452826 346.83499,74.341763 349.15625,74.78125 350.26885,74.9919 351.18335,74.035173 351.9375,71.8125 352.55425,69.994805 354.36134,66.925 355.96875,65 358.88523,61.507292 358.90057,61.504167 360.84375,63.5 364.81364,67.577437 364.48366,69.464957 359.03125,74.0625 353.55387,78.681091 352.89825,81.008999 355.09375,88 355.69716,89.921369 356.32424,92.4 356.5,93.5 356.67577,94.6 356.86041,95.6125 356.90625,95.75 356.95208,95.8875 357.5904,96 358.3125,96 360.66239,96 364.74178,90.608776 365.46875,86.53125 366.47939,80.86275 367.73558,79 370.53125,79 372.33499,79 373.08595,79.656267 373.46875,81.5 373.75423,82.875 374.25026,85.2375 374.5625,86.75 375.58809,91.717876 377.74179,94 381.40625,94 386.24037,94 388.84787,91.381492 389.46875,85.875 389.9141,81.92521 389.54988,80.691195 387.125,77.34375 382.76176,71.32048 381.88565,69.259308 382.5625,66.5625 L 383.1875,64.0625 386.46875,67.53125 C 388.26634,69.437247 390.68359,71 391.84375,71 393.78831,71 403.87423,66.117906 406.75,63.78125 407.20374,63.412572 407.56254,63.302879 407.875,63.4375 L 408,62.65625 408,60.40625 C 407.00856,61.499858 405.09397,62.667733 400.9375,64.84375 396.13235,67.359371 392.13274,68.839681 391.0625,68.5 390.07308,68.185969 388.17981,65.928352 386.875,63.46875 385.57018,61.009148 384.18202,59 383.78125,59 382.67753,59 380.19147,63.23604 379.96875,65.5 379.45816,70.690018 380.27848,73.118867 384.0625,77.65625 387.36537,81.616689 387.98614,83.038658 387.53125,85.40625 386.792,89.253904 385.23968,91 382.53125,91 379.65919,91 377,88.020424 377,84.8125 377,81.040757 375.07104,76.249307 373.28125,75.5625 369.83094,74.238492 363,81.150442 363,85.96875 363,86.997887 362.7401,88.536266 362.40625,89.40625 361.06259,92.907775 358.53144,90.319026 357.5625,84.4375 356.9739,80.864681 357.21754,80.046388 359.6875,77.5625 361.23052,76.010785 363.5125,74.067057 364.75,73.25 367.41968,71.487345 367.60789,69.046076 365.375,64.6875 362.3279,58.739624 359.18715,58.467968 354.40625,63.6875 352.55213,65.711727 350.75553,67.099275 350.4375,66.78125 348.98179,65.32554 351.43091,58.825993 354.34375,56.375 357.14538,54.017582 357.99885,53.807961 363.125,54.34375 369.89175,55.051016 370,54.910004 370,44.8125 L 370,37.78125 367.25,38.53125 C 363.27302,39.612769 361.00789,39.314145 358.96875,37.46875 355.47029,34.302687 359.78638,26.592722 365.71875,25.40625 368.72679,24.804641 368.85442,24.912401 369.6875,29.125 370.72495,34.371019 372.47438,35.006442 378.0625,32.09375 382.86129,29.592481 383,29.576946 383,31.625 383,32.513321 381.3943,34.707647 379.4375,36.5 376.03355,39.617897 375.86615,40.092648 375.5625,47.40625 375.38795,51.610544 375.63834,55.292977 376.125,55.59375 376.61167,55.894523 378.21239,55.198241 379.65625,54.0625 383.41831,51.103268 385.34559,51.491051 388.09375,55.75 390.95623,60.186115 394.62782,61.060422 398.75,58.28125 403.82527,54.8595 406.65534,53.723671 408,54.75 L 408,50 407.78125,49.65625 z"/>
</svg>
