<svg xmlns="http://www.w3.org/2000/svg"
     width="48.9" height="64.0"
     viewBox="222.8820 15.2975 66.2430 86.7340">
  <path d="M 285.125,59.75 C 284.67381,59.794435 284.33901,59.963888 283.84375,59.96875 280.76017,59.999021 279.44523,59.248205 275.59375,55.25 L 271.03125,50.5 267.0625,52.75 C 264.88504,53.9875 262.90201,55 262.65625,55 262.41048,55 262.02311,53.0875 261.78125,50.75 261.19128,45.048119 263.32199,38.091893 266.78125,34.46875 271.33401,29.700284 274.23021,25.045883 273.625,23.46875 272.80758,21.338583 271.78432,21.607442 266,25.5 263.13946,27.425 260.19362,29 259.46875,29 258.74388,29 257.19402,27.431958 256,25.5 252.73905,20.223672 250.35904,19.297462 247.3125,22.15625 245.12836,24.205781 240,33.795416 240,35.8125 240,36.218526 241.13035,38.171874 242.5,40.1875 244.17644,42.654609 245.89217,43.973854 247.75,44.1875 250.23739,44.473542 250.52948,44.924185 250.8125,48.875 251.11132,53.046161 251.01449,53.229839 248.8125,52.5625 236.87437,48.944504 233.33221,50.203233 229.5,59.375 226.88197,65.640837 229.49766,76.49718 232.4375,71.5625 233.02152,70.582182 234.9827,67.782244 236.8125,65.34375 L 240.15625,60.90625 243.0625,64.59375 C 244.6702,66.61678 246,69.094571 246,70.09375 246,71.092929 243.8625,73.537973 241.25,75.53125 238.6375,77.524526 236.17455,79.738742 235.78125,80.4375 235.21071,81.451176 238.48136,96.509938 239.5625,97.84375 239.71466,98.031469 240.75538,97.907936 241.84375,97.5625 244.03319,96.867598 247,91.384807 247,88.0625 247,85.730966 252.26575,80 254.40625,80 255.23626,80 256.16218,82.220548 256.875,85.84375 258.4135,93.663779 260.72205,96.009654 266.78125,95.96875 273.48635,95.923485 275,94.441519 275,87.875 275,83.038989 274.57687,81.953511 271,77.625 264.4218,69.664471 266.55053,65.234633 274.3125,70.71875 276.61879,72.348228 279.26603,73.947912 280.1875,74.28125 281.11463,74.616634 282.53313,74.474492 284.09375,74.125 L 284.34375,70.65625 C 282.1181,71.015411 280.12635,70.344792 277.5,68.5625 272.3891,65.094152 268.3297,64.397583 265.9375,66.5625 262.83683,69.368564 263.51659,73.319829 268,78.5 271.37811,82.403102 272,83.826634 272,87.59375 272,91.424031 271.63291,92.204214 269.40625,93.21875 264.8822,95.280046 261.91679,92.691359 260.03125,85 257.43028,74.390302 256.43707,73.935431 248.8125,79.75 243.93543,83.469301 242.93433,85.338836 243.3125,89.90625 243.64049,93.867713 241.40821,93.334948 240.15625,89.15625 238.26077,82.829704 238.65501,81.755052 244.6875,76.34375 250.00276,71.575829 250.32902,71.018353 249.28125,68.71875 247.48072,64.767016 241.94832,59 239.96875,59 238.97194,59 236.73127,60.805887 234.96875,63.03125 233.20623,65.256613 231.52495,66.868705 231.25,66.59375 230.97504,66.318794 231.06651,64.067673 231.4375,61.59375 231.99711,57.862031 232.69676,56.716 235.625,54.90625 238.7169,52.995349 239.61811,52.858598 242.90625,53.84375 244.97072,54.46228 247.50021,55.89525 248.5,57 249.49978,58.104749 251.09091,59 252.03125,59 253.52679,59 253.72532,57.861184 253.625,49.9375 L 253.5,40.875 250.21875,41.5 C 247.555,41.99481 246.55225,41.674478 245,39.8125 242.62935,36.968833 242.5351,34.814625 244.625,30.6875 246.75245,26.4862 249.00886,24 250.65625,24 251.3882,24 253.16911,25.8 254.625,28 256.08089,30.2 257.92727,32 258.71875,32 259.51022,32 262.12706,30.833512 264.5625,29.40625 266.99794,27.978988 269,27.238472 269,27.78125 269,28.324027 266.88904,31.134257 264.3125,34 259.64993,39.185898 259.62399,39.246354 259.1875,47.5625 258.5678,59.369308 258.82411,59.753351 265.03125,56.375 L 270.09375,53.625 274.5625,58.3125 C 278.7625,62.695582 281.48643,64.126523 284.84375,63.5 L 285.125,59.75 z"/>
</svg>
