<svg xmlns="http://www.w3.org/2000/svg"
     width="54.4" height="64.0"
     viewBox="2352.8665 14.3111 79.1785 93.0980">
  <path d="M 2410.3919,99.790958 C 2409.0753,97.244957 2408.8511,94.899869 2409.307,88.441 L 2409.8815,80.300084 2405.6907,76.266834 C 2401.9024,72.620822 2398.0826,70 2396.557,70 2396.241,70 2396.2682,72.430803 2396.6174,75.401785 2397.1721,80.121787 2396.9839,81.033337 2395.1261,82.624026 2393.9568,83.625276 2393,84.737912 2393,85.096549 2393,85.455185 2394.575,87.468115 2396.5,89.569725 2399.8848,93.265032 2400.9812,96 2399.0778,96 2397.7295,96 2390.014,86.741717 2390.0065,85.114671 2390.0029,84.35274 2391.1586,82.65556 2392.5747,81.343161 2394.7124,79.362077 2395.0333,78.408888 2394.4652,75.728491 2394.0889,73.952821 2392.7053,71.067525 2391.3905,69.316722 2390.0757,67.565919 2389,65.653419 2389,65.066722 2389,63.500848 2392.2227,63.767236 2394.7574,65.542633 2395.9687,66.391081 2398.4939,67.726238 2400.3689,68.509649 L 2403.7779,69.934033 2406.4306,65.925543 C 2409.2065,61.730895 2416,42.745347 2416,39.182368 2416,36.222686 2417.5085,35.694452 2420.921,37.459133 2424.6562,39.390714 2425,39.381812 2425,37.353505 2425,34.626899 2418.0656,25 2416.1015,25 2414.1317,25 2411,27.972611 2411,29.84231 2411,30.493965 2410.5975,31.808532 2410.1057,32.763569 2409.6138,33.718606 2408.7221,37.722201 2408.1242,41.660447 2406.8905,49.786493 2404.4134,57.873806 2402.5666,59.804959 2401.5488,60.869233 2400.3466,60.341557 2396.0484,56.943988 2386.2884,49.229156 2386.6546,49.972649 2387.4275,39.442524 2388.0619,30.800256 2387.9468,29.888603 2385.8052,26.592117 2382.9209,22.152607 2381.3682,21.528706 2378.2647,23.562236 2376.4483,24.752392 2375.9716,25.732055 2376.4289,27.334922 2378.9214,36.070979 2379.4392,50.96084 2377.3239,53.076072 2376.5109,53.889065 2368.5813,50.553078 2364.798,47.806399 2362.3654,46.040369 2361.479,47.481895 2361.6455,52.932944 2361.8094,58.293571 2364.3132,64 2366.5015,64 2367.2991,64 2369.425,63.101682 2371.2258,62.003738 2375.3331,59.499558 2377.6941,59.460905 2378.4636,61.885251 2379.4659,65.04319 2379.8632,75.433718 2379.1206,79.064941 2378.2881,83.135072 2376.2393,83.815993 2371.538,81.58505 2368.2736,80.035983 2366,79.5638 2366,80.4349 2366,82.772527 2368.678,86.362603 2372.4335,89.059596 2377.3889,92.618312 2377.9016,94.355908 2375.4149,99.164562 2373.3051,103.24454 2371.5579,101.56675 2373.1526,96.992114 2374.0911,94.30004 2374.0685,93.522843 2373.0421,93.180706 2370.4518,92.317275 2366.0256,87.378804 2363.5216,82.558398 2361.3692,78.414856 2361.1722,77.399216 2362.3019,76.269536 2363.4316,75.139856 2364.5816,75.412768 2369.4229,77.959418 2372.5984,79.629845 2375.5497,80.77828 2375.9814,80.511495 2377.3475,79.667225 2378.2769,68.876936 2377.0862,67.686178 2376.4888,67.08878 2376,65.79 2376,64.8 2376,62.592502 2375.1373,62.56114 2370.0797,64.584779 2367.9013,65.456408 2365.3433,66.018908 2364.3952,65.834779 2359.7724,64.936957 2356.8665,43 2361.3703,43 2362.0063,43 2364.8654,44.575 2367.7239,46.5 2373.771,50.572324 2375.5478,50.837371 2376.3457,47.786116 2377.5352,43.237202 2375.0992,28 2373.1824,28 2372.8662,28 2370.8998,29.183425 2368.8127,30.629832 2365.6912,32.793004 2364.7501,33.037449 2363.5089,32.007388 2362.679,31.318635 2362.003,29.572711 2362.0066,28.127555 L 2362.0132,25.5 2363.8394,28.26959 2365.6657,31.03918 2368.3328,28.567339 C 2371.3701,25.752503 2371.5962,24.739699 2369.5639,23.053051 2368.4732,22.147821 2367.6109,22.13786 2365.9783,23.011626 2362.9182,24.649337 2362.2197,23.3359 2364.7859,20.769642 L 2366.9607,18.594839 2369.9399,20.79742 C 2373.6158,23.515186 2375.0316,23.549603 2378.2729,21 2381.6871,18.314335 2382.5372,18.452849 2385.9444,22.25 L 2388.8606,25.5 2392.3644,22.117718 C 2396.3077,18.311138 2398.4625,18.456058 2400.0512,22.634696 2401.1534,25.533793 2400.5287,31.871296 2398.9889,33.411113 2398.3909,34.009079 2397.1443,33.880008 2395.6156,33.061845 2394.2819,32.348087 2392.7488,32.03721 2392.2087,32.371006 2391.0184,33.106653 2389.7163,39.082778 2389.5915,44.383063 2389.5069,47.971459 2389.9379,48.603122 2395.2701,52.707002 L 2401.0403,57.147878 2402.4778,53.707263 C 2403.2685,51.814925 2404.6363,46.944152 2405.5173,42.883324 2406.3983,38.822496 2407.5073,34.6 2407.9818,33.5 2408.4562,32.4 2409.0946,30.335617 2409.4005,28.912482 2410.1566,25.394151 2413.758,21 2415.8855,21 2417.5822,21 2423,25.851961 2423,27.371441 2423,27.790542 2424.1557,29.648683 2425.5683,31.500642 2427.3975,33.89881 2428.045,35.822157 2427.8183,38.18392 2427.5108,41.387704 2427.3511,41.5 2423.1026,41.5 L 2418.7052,41.5 2415.5375,51.04636 C 2413.7952,56.296858 2412.0205,61.157868 2411.5936,61.848604 2411.0981,62.650341 2413.0304,65.779836 2416.9371,70.502799 L 2423.0567,77.901109 2421.109,82.200554 C 2420.0378,84.56525 2418.8582,87.625 2418.4878,89 2416.8891,94.933748 2413.6649,103 2412.8917,103 2412.4295,103 2411.3046,101.55593 2410.3919,99.790958 z M 2380.8327,102.49939 C 2379.9956,101.66222 2384.4158,93.001625 2385.6807,93.000785 2387.1887,92.999782 2393.9016,97.257047 2393.9577,98.25 2394.0265,99.469011 2390.5083,99.105555 2389.1178,97.75 2388.0861,96.744338 2387.2998,97.135278 2385.0949,99.75 2382.3277,103.03164 2381.7425,103.40913 2380.8327,102.49939 z M 2397.9847,27.75 C 2397.9628,24.537038 2396.4729,22.604543 2394.5782,23.331602 2391.9941,24.32323 2391.4419,27.118702 2393.5286,28.644608 2396.2646,30.6452 2398.002,30.296395 2397.9847,27.75 z M 2416.5651,86.342409 C 2417.8576,82.579084 2418.9163,78.825 2418.9178,78 2418.9193,77.175 2416.9004,74.304558 2414.4313,71.621241 2410.0683,66.879674 2409.8866,66.792641 2407.971,68.526229 2405.3056,70.938433 2405.4468,71.645276 2409.4881,76.118524 L 2412.9762,79.97945 2412.3597,87.739725 C 2411.6089,97.190091 2412.9981,96.728508 2416.5651,86.342409 z"/>
</svg>
