<svg xmlns="http://www.w3.org/2000/svg"
     width="18.4" height="64.0"
     viewBox="1008.1918 18.9272 25.9861 90.2061">
  <path d="M 1020,103.58871 C 1020,102.05082 1019.4568,101.87932 1016.4016,102.45249 1012.1918,103.24225 1012.5062,101.82381 1017.0634,99.467208 1019.32,98.300297 1020,97.255459 1020,94.955268 1020,92.212049 1019.7702,92.01167 1017.25,92.557502 L 1014.5,93.153108 1017.759,90.326554 C 1022.2044,86.471093 1022.2991,81.488138 1018,77.657584 1015.0617,75.039585 1014.1323,73 1015.8776,73 1016.3602,73 1017.3153,73.675 1018,74.5 1020.1404,77.07904 1021,76.166288 1021,71.314451 1021,67.851691 1020.4128,65.986236 1018.75,64.166297 L 1016.5,61.703692 1018.75,62.258226 C 1020.782,62.75904 1021,62.449341 1021,59.061368 1021,56.579967 1020.3229,54.697228 1019,53.5 1017.9,52.504514 1017,51.279445 1017,50.777625 1017,50.275805 1017.9,50.150874 1019,50.5 1020.8215,51.07812 1021,50.6797 1021,46.036003 1021,42.549409 1020.5502,40.764612 1019.5773,40.391296 1018.7948,40.091033 1017.8882,39.150923 1017.5625,38.302163 1017.1238,37.159027 1017.4678,36.889067 1018.8894,37.260823 1020.5119,37.685123 1020.9146,37.055123 1021.4951,33.184332 1022.1815,28.606718 1021.3831,27.061292 1017.6082,25.661063 1016.8214,25.369205 1016.8502,24.878052 1017.7076,23.967382 1018.6849,22.929419 1019.2074,22.927196 1020.4467,23.955729 1021.4333,24.774591 1023.227,24.992398 1025.489,24.568034 1029.4816,23.819029 1030.1779,25.142263 1026.6396,26.754422 1024.7779,27.602668 1024.161,28.851356 1023.7193,32.664937 1023.0934,38.068725 1024.0905,39.999729 1026.4818,38.015118 1029.5472,35.471028 1029.3092,38.085738 1026.1816,41.312588 1023.7374,43.834403 1023,45.478112 1023,48.404596 1023,51.057997 1023.3793,52.058895 1024.25,51.702923 1029.276,49.64806 1029.4381,49.765109 1026.25,53.14733 1023.9777,55.558002 1023,57.558576 1023,59.797607 1023,63.139495 1024.6114,63.98861 1026.8,61.8 1027.5067,61.093265 1028,61.021612 1028,61.625686 1028,62.189813 1026.875,63.708255 1025.5,65 1023.6783,66.711437 1023,68.38655 1023,71.174314 1023,75.428724 1023.4956,75.766443 1026.1774,73.339464 1027.1866,72.426169 1028.2963,71.962931 1028.6434,72.310045 1028.9905,72.65716 1027.8273,74.293015 1026.0586,75.94528 1023.5009,78.334498 1022.7798,79.88247 1022.5353,83.50797 1022.2534,87.689377 1022.4745,88.193999 1025.2069,89.607008 1028.3996,91.257983 1028.1646,92.5 1024.6596,92.5 1022.9437,92.5 1022.4345,93.183195 1022.181,95.825577 1021.925,98.494188 1022.2707,99.258039 1023.931,99.692208 1026.4712,100.35647 1026.6861,103 1024.2,103 1023.21,103 1021.86,103.54 1021.2,104.2 1020.2667,105.13333 1020,104.99749 1020,103.58871 z"/>
</svg>
