<svg xmlns="http://www.w3.org/2000/svg"
     width="25.6" height="64.0"
     viewBox="1639.7580 13.0000 37.3863 93.5974">
  <path d="M 1645.389,98.470922 C 1643.9612,96.291782 1643.758,93.00559 1643.9204,74.720922 1644.1679,46.8503 1644.6885,41.314329 1648.1504,29.74086 1650.2793,22.623321 1654.6196,17 1657.9843,17 1658.991,17 1661.8058,19.21465 1664.2395,21.921445 1667.896,25.988378 1668.9705,28.143223 1670.4279,34.331975 1673.1443,45.866881 1670.887,49.356866 1665.2525,42.333341 1660.6918,36.648259 1659.4524,38.001909 1658.0761,50.171769 1657.4336,55.852296 1656.4787,62.386769 1655.954,64.69282 1655.4293,66.998871 1655,74.100824 1655,80.474939 1655,88.644146 1654.5459,93.151071 1653.4612,95.747073 1651.0103,101.61295 1648.0928,102.59742 1645.389,98.470922 z M 1651.6129,83.686307 C 1651.8562,78.083838 1652.6942,68.775 1653.4752,63 1654.2562,57.225 1655.1952,49.125 1655.5619,45 1655.9286,40.875 1656.643,36.7125 1657.1495,35.75 1658.3838,33.404283 1661.149,33.542765 1664.4178,36.114004 1665.8959,37.276707 1667.2739,38.059399 1667.48,37.853321 1667.6861,37.647242 1667.0463,35.090617 1666.0582,32.171931 1664.2008,26.685255 1658.6133,19.823957 1656.6292,20.593401 1654.4528,21.437409 1651.8585,27.457988 1649.5866,36.936675 1647.5972,45.236437 1647.2659,49.473452 1647.0787,69.004686 1646.9357,83.923354 1647.2469,92.519051 1648.0018,94.504686 1649.0243,97.193934 1649.2444,97.314674 1650.1557,95.686307 1650.7139,94.688776 1651.3697,89.288776 1651.6129,83.686307 z"/>
</svg>
