<svg xmlns="http://www.w3.org/2000/svg"
     width="47.3" height="64.0"
     viewBox="-0.8769 16.4919 64.2188 86.9302">
  <path d="M 39,98.296293 C 38.175,97.996096 36.375,96.745314 35,95.516777 33.625,94.288241 31.080448,92.472729 29.345439,91.482307 26.40441,89.803433 25.960853,89.790693 22.792664,91.294097 20.923647,92.181004 18.560955,93.827658 17.542238,94.953328 15.077911,97.676379 10.745478,97.545302 7.3744959,94.645705 5.1865334,92.763698 4.5027991,91.108687 3.9661766,86.395705 3.1230582,78.990866 4.3266358,68.865877 6.9307123,61.456812 L 8.9369836,55.748611 6.2842813,51.222116 C 4.0359406,47.385613 3.6315789,45.522549 3.6315789,39 3.6315789,32.473812 4.035446,30.615231 6.2892828,26.769349 8.8343959,22.426442 11.158577,20.49191 12.372581,21.705915 12.685043,22.018377 12.666849,24.894036 12.332149,28.096268 11.935112,31.894915 12.177451,35.06225 13.0294,37.209255 15.454294,43.32025 16.026349,43.500852 19.824794,39.354624 23.211929,35.657366 27.97078,26.811593 27.990231,24.176676 27.995604,23.448848 28.7875,23.009503 29.75,23.200355 32.532401,23.752071 32.149197,38.832983 29.185738,45.406767 27.130629,49.965575 27.089755,50.441697 28.609349,52.120829 30.972985,54.732618 38.460754,57.352158 41.431476,56.606554 43.62099,56.057021 44.362201,54.638236 47.109877,45.737261 50.67845,34.177024 55.571728,23.690576 57.151735,24.217245 58.345187,24.615062 59.341869,31.280672 59.212615,38 59.104944,43.597303 53.748736,61.139756 50.945292,65.076831 47.832938,69.447729 45.822911,70.192889 40.414472,68.980833 37.847596,68.405584 33.803943,67.049567 31.428576,65.967463 29.05321,64.885358 26.440682,64 25.622958,64 23.550546,64 20.562042,68.627624 19.05456,74.170999 17.192347,81.018811 18.907355,82.791235 23.727129,79 27.825397,75.776303 31.290234,76.428919 37,81.5 39.786718,83.975 42.294666,86 42.573218,86 42.85177,86 44.905356,85.068607 47.136743,83.930239 51.168668,81.873304 52.810326,81.879848 51.532287,83.947759 50.654807,85.367551 43.498056,89 41.578222,89 40.752422,89 37.993195,86.975 35.446607,84.5 32.900019,82.025 29.927722,80 28.841502,80 27.755282,80 25.280829,81.209493 23.342719,82.687762 20.590162,84.787239 19.455671,85.142251 18.159441,84.309745 15.619476,82.678449 16.030025,71.732429 18.835549,66.283436 22.151108,59.843833 23.790849,59.406418 31.751002,62.838125 35.462951,64.438385 40.186324,66.000976 42.247386,66.31055 45.603155,66.814589 46.238755,66.540387 48.329442,63.686705 53.353563,56.829036 58.637194,30.957684 54.75,32.248381 53.504165,32.662046 53.190067,33.471598 50.966462,42 49.157731,48.9372 46.90181,55.270527 45.356336,57.75 42.5878,62.191685 30.365452,59.481252 24.641402,53.156247 23.069453,51.419263 23.122447,51.032825 25.521141,46.741094 28.241493,41.873855 30.338661,29.585889 27.788605,33.455313 25.213992,37.361999 16.676667,46 15.390127,46 13.196276,46 9.0449603,36.916045 9.0150563,32.05 9.0031624,30.114599 8.7423009,29.857699 7.7730972,30.826903 6.1354715,32.464528 6.281188,45.76955 7.9722437,49.01049 8.68668,50.379721 10.100685,52.296171 11.114478,53.269268 12.903404,54.986384 12.885183,55.202594 10.496343,60.604185 6.2950913,70.103962 5.3908812,87.151278 8.8661471,91.338717 10.80252,93.671904 13.807336,93.93939 16.275091,91.998254 17.539468,91.003695 20.468401,89.202526 22.783832,87.995656 L 26.993705,85.801347 32.323001,89.338731 C 35.254113,91.284293 38.235629,93.57899 38.948593,94.438058 40.276133,96.037646 43.615007,96.468702 46.399899,95.400039 47.566074,94.952535 47.717328,94.340339 46.995123,92.990887 46.198563,91.502501 46.68944,90.769431 49.763437,88.856713 55.083634,85.546352 55.366623,85.490029 54.745522,87.865123 54.438753,89.03821 54.596731,90.250766 55.096584,90.559692 56.720343,91.56323 54.058351,94.929584 50.006402,96.996734 46.20351,98.936824 42.093845,99.422065 39,98.296293 z"/>
</svg>
