<svg xmlns="http://www.w3.org/2000/svg"
     width="32.1" height="64.0"
     viewBox="759.0000 18.2008 44.2500 88.1268">
  <path d="M 799.25,99.21875 799.15625,96.375 C 795.4132,98.028528 791.62166,99.097643 789.4375,98.84375 786.07845,98.453286 782.93407,93.074819 780.46875,83.5625 777.31266,71.384854 778.94666,39.813703 783.21875,30.4375 785.97964,24.377992 786.93149,30.132767 785.90625,46.8125 785.51129,53.238249 785.3142,60.075 785.5,62 785.6858,63.925 786.14532,68.875 786.5,73 787.27389,82.000584 790.18675,88.618015 793.65625,89.28125 795.22351,89.580851 797.10057,89.426276 798.96875,89.125 L 798.90625,86.96875 C 796.24472,86.922603 793.36611,86.238417 792.125,84.90625 789.05051,81.606164 788.57457,77.109866 788.53125,50.8125 788.48674,23.797369 788.18798,22.20082 783.625,26.1875 780.68865,28.752986 777,39.873179 777,46.1875 777,51.724266 775.24809,51.830352 770.46875,46.625 765.42531,41.131999 763,40.622096 763,45.03125 763,49.503702 767.34714,57.338368 771.8125,60.875 775.12181,63.496021 775.80121,64.674634 776.25,68.65625 776.88917,74.326946 776.60638,75.264666 773.75,76.53125 769.64974,78.349397 765.80383,85.538011 765.25,92.4375 764.88868,96.938796 765.10686,98.959943 766.03125,99.53125 767.29842,100.31441 767.89586,99.729533 773.8125,92.03125 775.09183,90.36668 776.7171,89 777.40625,89 778.0954,89 779.71906,91.292162 781.03125,94.09375 782.34345,96.895338 784.3333,99.820334 785.4375,100.59375 787.91302,102.32767 789.40262,102.30515 794.5,100.46875 796.36843,99.795629 798.12277,99.381575 799.25,99.21875 z M 766.1875,47.125 C 766.59188,46.654332 767.79401,47.700265 771,50.90625 773.75,53.65625 776,56.811309 776,57.9375 776,59.06369 775.64637,60 775.21875,60 772.18512,60 766,52.013249 766,48.09375 766,47.627902 766.05271,47.281889 766.1875,47.125 z M 774.90625,79 C 778.53505,79 779.28553,86.251765 775.84375,88.09375 774.64953,88.732878 772.57967,90.544777 771.25,92.125 767.83997,96.177592 766.62925,95.796626 767.40625,90.9375 768.24316,85.703797 772.45212,79 774.90625,79 z"/>
</svg>
