<svg xmlns="http://www.w3.org/2000/svg"
     width="16.0" height="64.0"
     viewBox="1490.8498 13.1365 23.4476 93.8903">
  <path d="M 1496.6274,102.28706 C 1494.9903,101.86663 1494.8498,101.22068 1495.51,97.153058 1495.9254,94.593876 1496.3747,76.525 1496.5084,57 1496.7814,17.13646 1496.0972,20.187653 1504.481,21.444885 L 1508.7272,22.081644 1509.4793,31.290822 C 1510.2568,40.813322 1510.2974,55.776806 1509.5692,64.5 1509.3396,67.25 1508.8269,76.764283 1508.4299,85.642851 L 1507.708,101.7857 1504.104,102.38184 C 1500.2051,103.02677 1499.4714,103.01747 1496.6274,102.28706 z M 1504.9019,97.75 C 1506.316,94.017147 1508.1932,48.790457 1507.4409,36.575046 L 1506.7388,25.173584 1503.2392,24.517043 C 1498.3934,23.607974 1497.6766,24.724687 1498.6696,31.636391 1499.5705,37.90712 1499.5551,64.266128 1498.6381,85.408817 1498.3302,92.508666 1498.3122,98.696166 1498.5982,99.158817 1499.7179,100.97056 1504.0485,100.00272 1504.9019,97.75 z"/>
</svg>
