<svg xmlns="http://www.w3.org/2000/svg"
     width="59.2" height="64.0"
     viewBox="190.6562 14.7779 87.5368 94.6805">
  <path d="M 200,48.03125 198.46875,51.28125 C 199.53535,51.321208 201.1241,52.31972 203.90625,54.53125 206.33771,56.464016 209.3076,58.294478 210.5,58.59375 213.49468,59.345367 220.54038,55.469837 223.6875,51.34375 226.04418,48.253985 226.2252,47.344365 225.75,41.21875 225.4628,37.516586 224.90305,33.746295 224.53125,32.84375 223.85908,31.212073 229.18788,24 231.0625,24 231.5394,24 233.43584,26.3625 235.28125,29.25 238.55319,34.369547 238.60554,34.606873 237.3125,38.90625 236.5832,41.331162 236,45.784027 236,48.78125 236,54.000873 236.20037,54.39764 240.75,58.59375 246.82963,64.200974 249.05338,64.21115 256.5625,58.59375 260.69727,55.500631 262.92444,54.424379 264,55 270.41114,58.431136 272.18259,69.049488 268.25,80.28125 266.62233,84.930008 261.66105,92 260.03125,92 259.58417,92 260.08788,88.762804 261.125,84.8125 263.44934,75.959288 263.60409,68.182415 261.5,67.375 260.68171,67.060991 257.91974,68.199979 255.34375,69.90625 252.76775,71.612521 250.18695,72.984051 249.59375,72.96875 249.00054,72.953449 246.72298,71.603449 244.5625,69.96875 242.40202,68.334051 240.04413,67 239.3125,67 238.01102,67 230,82.995191 230,85.59375 230,86.317409 231.125,88.567574 232.5,90.59375 233.875,92.619926 235,95.101751 235,96.125 235,98.459257 235.24039,98.571741 230.59375,94.46875 225.79204,90.228835 223.37341,90.127102 218.5,94 214.13059,97.472369 214,97.508148 214,95.4375 214,94.581488 216.30117,91.676215 219.125,88.96875 224.85265,83.47713 224.69881,84.868524 221.5,70.03125 220.61336,65.918665 219.73757,62.393827 219.5625,62.21875 219.38742,62.043672 217.22769,62.889998 214.75,64.09375 L 210.21875,66.28125 204.25,62.65625 C 198.61158,59.231092 196.64308,57.661481 196.375,55.6875 L 194.65625,59.34375 194.65625,59.375 200.09375,62.96875 C 209.53148,69.237464 209.46847,69.220102 213.46875,67.3125 215.67239,66.261658 217.35384,65.980773 217.90625,66.5625 218.39719,67.079493 219.49049,70.813875 220.3125,74.875 L 221.78125,82.28125 218.03125,86.375 C 208.43726,96.868386 208.85032,105.4584 218.5625,97.5 224.09541,92.966193 226.51958,93.261527 231.15625,99.03125 232.93595,101.24584 235.08278,102.94289 235.9375,102.78125 238.57294,102.28283 238.45301,95.517547 235.71875,90.1875 233.01828,84.923306 233.33301,81.186647 237.03125,73.9375 239.21316,69.660614 239.26265,69.662493 244.75,73.78125 248.52871,76.61752 251.2936,76.302408 255.8125,72.5 259.31649,69.551589 260.70861,69.35836 261.21875,71.75 261.8062,74.504056 259.38775,86.027695 257.09375,91.34375 255.94672,94.001848 255,96.589348 255,97.09375 255,99.466331 258.67722,97.49179 263.34375,92.65625 267.55517,88.29231 268.89905,85.984654 270.75,79.90625 274.19305,68.599455 273.40517,60.123992 268.40625,54.90625 264.06608,50.376089 262.58564,50.365737 256.84375,54.9375 249.66654,60.652076 247.82444,60.926237 243.25,56.9375 238.7147,52.982899 237.99643,51.33802 238.59375,46.34375 239.08978,42.196447 240.88434,36 241.59375,36 241.83443,36 244.44825,37.361861 247.40625,39.03125 252.12165,41.692459 252.96977,41.905234 254.25,40.625 255.92946,38.94555 257.32493,29.129058 256.40625,25.46875 255.58109,22.181046 253.24968,22.315058 247,26 244.20159,27.65 241.26175,29 240.46875,29 239.67576,29 237.85053,27.213697 236.40625,25.03125 232.26799,18.77792 230.56189,18.85059 224.5,25.46875 L 219.28125,31.15625 221.15625,34.78125 C 222.24553,36.91782 223,40.536464 223,43.53125 223,47.811389 222.55725,49.047185 220.25,51.1875 218.7375,52.590565 216.09383,54.208963 214.375,54.78125 210.9459,55.922974 210.11411,55.589424 203.40625,50.5625 L 200,48.03125 z M 251.96875,27.53125 C 253.98263,27.594134 254.37206,29.889677 253.375,34.875 253.03125,36.59375 252.46875,37.972362 252.125,37.9375 250.30556,37.752976 247.2722,35.987909 245.625,34.15625 243.47996,31.771013 244.33396,30.435673 249.40625,28.1875 250.44973,27.725001 251.29746,27.510289 251.96875,27.53125 z"/>
</svg>
