<svg xmlns="http://www.w3.org/2000/svg"
     width="44.2" height="64.0"
     viewBox="1680.9764 13.6549 62.3674 90.3693">
  <path d="M 1738.125,63.6875 1738,61.34375 1738.25,58.75 C 1737.6724,58.970921 1737.0822,59.224094 1736.375,59.6875 1733.2704,61.721678 1727.3029,63.976913 1724.9688,64 1724.1317,64.008281 1721.8207,62.655327 1719.8125,61 1713.0161,55.397795 1707.923,55.967565 1703.5625,62.875 1699.0251,70.062776 1696.1225,85.72161 1699,87.5 1699.5566,87.844024 1702.594,86.662752 1705.7188,84.875 L 1711.375,81.625 1716.1562,84.3125 C 1720.0072,86.462555 1721.4535,86.778054 1723.5,86 1727.2233,84.584398 1732,80.824448 1732,79.3125 1732,77.345339 1730.4945,77.7173 1727.1875,80.5 1723.5996,83.518997 1721.525,83.625531 1717.2188,81 1712.8961,78.364516 1710.2279,78.478399 1705.7812,81.5 1703.7577,82.875 1701.7888,84 1701.4062,84 1700.2402,84 1701.8847,71.978464 1703.4375,69.15625 1704.238,67.701328 1705.4843,65.375 1706.1875,64 1706.8907,62.625 1707.9077,61.167974 1708.4688,60.75 1710.1314,59.511653 1714.2512,60.917607 1718.2812,64.125 1720.3552,65.775463 1722.8579,67.204635 1723.875,67.28125 1726.0182,67.44269 1734.04,65.027803 1735.4375,63.8125 1736.5242,62.867462 1737.3826,62.829795 1738.125,63.6875 z M 1734.4062,83 C 1732.1887,83 1726.8664,86.936192 1727.5625,88.0625 1728.3295,89.303583 1728.3649,89.309146 1732.4375,86.90625 1736.2042,84.683841 1737.0555,83 1734.4062,83 z M 1738.9062,51.34375 1739.3438,46.65625 C 1738.4563,47.719045 1737.2215,48.68669 1734.9688,50.21875 1728.6345,54.526623 1723.0011,55.191794 1719.25,52.0625 1716.5912,49.844438 1716.4764,48.043505 1718.625,42 1721.6177,33.582346 1720.2553,18 1716.5312,18 1715.7031,18 1714.7521,19.2375 1714.4062,20.75 1712.4131,29.467495 1709.9361,34.894833 1706.3125,38.53125 1704.5526,40.297348 1704.4744,40.261086 1703.9688,36.9375 1703.6813,35.048261 1703.8607,31.25 1704.3438,28.5 1705.8712,19.805053 1705.7444,18.533514 1703.3125,18.1875 1699.569,17.654883 1697.2314,19.76833 1694.9688,25.75 1692.4896,32.304329 1692.6453,41.009436 1695.4062,49.125 1696.9741,53.73341 1696.977,53.755645 1693.5,61.28125 1685.7244,78.110589 1684.9764,90.052814 1691.25,96.75 1694.3171,100.02419 1697.126,99.564757 1705.125,94.4375 L 1712.25,89.84375 1718.0625,92.96875 C 1724.8042,96.562081 1729.5032,97.027182 1733.3125,94.53125 1737.9607,91.485652 1735.9572,89.695489 1730.625,92.125 1727.5558,93.523427 1724.4344,92.795005 1719.625,89.53125 1714.2471,85.881685 1711.077,86.258258 1703.375,91.53125 1699.7263,94.029282 1696.2731,95.91396 1695.6875,95.71875 1693.3257,94.931479 1690.8595,90.098984 1690.5625,85.65625 1690.1244,79.103599 1691.5616,73.08131 1696.2812,61.625 1699.5535,53.681974 1700.126,51.421623 1699.2188,49.96875 1697.5462,47.290589 1695.6684,35.34541 1696.375,31.8125 1696.984,28.767739 1700.917,21.573234 1701.5938,22.25 1701.7869,22.443082 1701.4891,25.514152 1700.9375,29.0625 1699.6461,37.369769 1700.7585,43.387039 1703.6875,43.8125 1705.2784,44.043594 1706.8229,42.711933 1709.9062,38.40625 1712.159,35.26037 1714,32.33091 1714,31.90625 1714,31.48159 1714.487,29.860804 1715.0938,28.3125 1716.1384,25.646132 1716.2398,25.621902 1717,27.59375 1717.895,29.915476 1715.9905,41.682167 1713.9062,46.71875 1712.6452,49.766196 1712.7486,50.128178 1715.5,53 1718.6606,56.29889 1724.8687,58.502268 1728.125,57.46875 1730.493,56.717182 1735.3357,53.835683 1738.9062,51.34375 z"/>
</svg>
