<svg xmlns="http://www.w3.org/2000/svg"
     width="19.6" height="64.0"
     viewBox="1462.7957 20.0000 25.2043 82.4620">
  <path d="M 1473.3994,96.25 C 1472.7016,93.768405 1471.0457,93.354348 1469.2,95.2 1468.3525,96.047497 1468,96.068818 1468,95.27258 1468,94.652499 1469.125,93.260235 1470.5,92.17866 1473.2624,90.005727 1474.0664,85.35451 1471.5,86.393011 1467.181,88.140715 1466.7957,87.889905 1469.75,85.254034 1471.9523,83.289156 1473,81.451799 1473,79.554729 1473,77.159834 1472.7797,76.937976 1471.4758,78.020056 1468.713,80.313033 1468.5902,78.037171 1471.3229,75.18485 1474.7951,71.560631 1475.1888,63.759379 1472,61.767927 1470.9,61.080966 1470,59.921828 1470,59.192066 1470,58.3203 1470.686,58.082938 1472,58.5 1473.3966,58.943264 1474,58.6797 1474,57.626405 1474,56.796801 1473.5524,55.841414 1473.0054,55.503323 1472.4583,55.165233 1471.5347,53.999181 1470.953,52.912097 1469.9996,51.130761 1470.1472,50.998842 1472.4476,51.576199 1475.9019,52.443178 1475.8304,50.140315 1472.2717,45.911009 L 1469.5433,42.668567 1472.2717,43.353336 C 1474.5119,43.915602 1475,43.704632 1475,42.17404 1475,41.148804 1474.1,39.495486 1473,38.5 1470.6234,36.349184 1470.4306,35 1472.5,35 1474.7017,35 1474.3664,30.641578 1472,28.5 1469.9352,26.631426 1469.3018,24 1470.9167,24 1471.4208,24 1471.9833,24.407388 1472.1667,24.905306 1472.6116,26.113774 1477.0463,26.492462 1479.3172,25.515903 1480.3278,25.081308 1481.581,25.180971 1482.1404,25.740433 1482.8151,26.415098 1482.3593,26.943981 1480.7566,27.346232 1478.0647,28.021863 1475.3841,32.194398 1476.4911,33.985674 1476.9341,34.702429 1478.25,34.906567 1479.8591,34.508153 L 1482.5,33.854252 1479.2168,37.25894 C 1477.0451,39.511097 1476.1504,41.22833 1476.5738,42.331814 1477.323,44.284137 1479.11,44.489967 1480.7833,42.816667 1481.4342,42.165833 1482.3117,41.984729 1482.7333,42.414213 1483.155,42.843697 1482.0375,44.421469 1480.25,45.920373 1478.413,47.460778 1477,49.592226 1477,50.822826 1477,53.289248 1477.3485,53.419054 1480.0657,51.964816 1483.0627,50.360868 1482.3907,52.493499 1479,55.346546 1477.35,56.73493 1476,58.574932 1476,59.43544 1476,61.399593 1476.4708,61.392875 1479.5352,59.38499 1481.4939,58.10162 1481.9975,58.050283 1481.9876,59.13499 1481.9808,59.885746 1480.3754,61.536604 1478.4199,62.803565 1475.2233,64.874716 1474.9313,65.42963 1475.5258,68.303565 1476.2952,72.023185 1478.4348,74 1481.6911,74 1483.3724,74 1484,74.572712 1484,76.106989 1484,77.70489 1483.5772,78.050397 1482.25,77.536958 1481.2875,77.164597 1479.2293,76.603562 1477.6762,76.290213 1474.978,75.745827 1474.8668,75.871255 1475.1762,79.110244 1475.4362,81.832505 1476.14,82.781681 1478.75,83.930467 1483.0615,85.828154 1482.913,87.393861 1478.5,86.565978 1476.4674,86.184651 1475,86.313327 1475,86.872899 1475,89.190915 1476.4481,91.180373 1479.1539,92.579573 1480.7552,93.407655 1481.7984,94.517228 1481.472,95.045292 1481.1001,95.6471 1480.1229,95.60097 1478.8537,94.921684 1477.7399,94.325635 1476.7086,93.986919 1476.5618,94.16898 1476.4151,94.351041 1475.7858,95.4 1475.1635,96.5 1474.0535,98.462019 1474.02,98.457271 1473.3994,96.25 z"/>
</svg>
