<svg xmlns="http://www.w3.org/2000/svg"
     width="64.0" height="61.2"
     viewBox="2019.9540 12.3462 98.7373 94.3553">
  <path d="M 2091.1863,101.78635 C 2089.6878,100.28776 2089.6849,97.783791 2091.176,92.806766 2092.3373,88.930812 2092.299,88.828838 2088.124,84.690746 2084.2322,80.833187 2083.792,80.639134 2082.5878,82.25 2081.4095,83.826106 2078,84.748642 2078,83.491342 2078,82.55911 2083.3171,77 2084.2087,77 2084.6917,77 2087.557,79.450522 2090.5761,82.445605 2095.2104,87.043022 2095.9656,88.289072 2095.4243,90.445605 2094.517,94.060489 2095.8367,93.618038 2097.4572,89.764031 2099.0498,85.976296 2098.5701,84.741813 2092.8128,77.812305 L 2088.9181,73.12461 2092.2774,68.723661 C 2095.9486,63.914179 2099.1607,56.294932 2100.8033,48.5 2103.2818,36.738256 2102.7187,37.724648 2106.5449,38.44244 2109.7934,39.051865 2110.009,38.923468 2110.1508,36.295313 2110.4477,30.791244 2109.7798,27.499435 2107.8025,24.722568 2106.6978,23.171251 2105.2997,22.066781 2104.6954,22.26819 2103.1491,22.783623 2100.0708,28.524681 2097.8687,35 2096.84,38.025 2095.5811,41.4 2095.0713,42.5 2094.5614,43.6 2093.1395,47.644367 2091.9115,51.487483 2089.3072,59.638139 2085.5816,64 2081.2242,64 2078.9574,64 2077.1271,62.74569 2073.1354,58.456906 2068.3472,53.312314 2067.7317,52.959704 2064.5736,53.552163 2061.6454,54.101505 2060.9314,53.82496 2059.4532,51.56886 2055.7869,45.973377 2060.8418,31.881634 2066.9538,30.659234 2071.9503,29.659935 2072.992,30.630326 2073.0703,36.356989 2073.1089,39.185645 2073.4883,42.389963 2073.9132,43.477696 2074.6684,45.410565 2074.7121,45.406389 2075.843,43.293437 2076.4793,42.104362 2077,40.251752 2077,39.176525 2077,38.101299 2077.7931,36.242191 2078.7623,35.045175 2080.2762,33.175586 2080.9198,33.019 2083.3274,33.934391 2087.9318,35.684983 2088.3026,35.377342 2087.7284,30.282996 2087.3389,26.826812 2086.4873,24.955765 2084.5426,23.282996 2081.1487,20.36367 2080.7534,20.399591 2076.6528,24 2072.7632,27.415071 2071.8309,27.590542 2068.6499,25.506232 2067.396,24.68466 2064.3731,23.738748 2061.9324,23.404207 2058.3599,22.914551 2057.1815,23.157068 2055.8889,24.647975 2053.1799,27.772525 2051.7956,33.067452 2051.006,43.325208 2050.5899,48.729073 2049.7915,53.608467 2049.2317,54.168306 2048.5412,54.858826 2047.4017,54.654053 2045.6886,53.531609 2044.0572,52.462705 2041.6301,51.987281 2038.8317,52.188511 2034.5622,52.495524 2034.4519,52.597388 2031.1533,59.276877 2029.1142,63.406067 2028.0676,66.726968 2028.4746,67.776877 2029.0458,69.250554 2029.4543,69.065708 2031.2967,66.5 2035.9923,59.960768 2038.8762,57.752355 2041.7752,58.47582 2048.1499,60.066684 2050.1955,65.093741 2046.9792,71.264475 2045.8175,73.493251 2043.7719,76.178177 2042.4335,77.230977 2039.6999,79.381215 2039.4314,81.845526 2041.2074,88.485649 2042.7845,94.382149 2044,94.229462 2044,88.134859 2044,83.080079 2045.6666,80.02036 2051,75.283554 2054.7575,71.946405 2056.3051,72.473758 2060.4605,78.507106 2063.8029,83.36024 2064.1775,84.488372 2063.6149,88.007106 2062.8249,92.947304 2064.0764,93.160049 2066.3148,88.466073 2068.6659,83.535635 2068.4427,81.50379 2065,76.5 2063.35,74.101807 2062,71.373844 2062,70.437859 2062,67.540847 2066.0217,62 2068.1244,62 2070.8762,62 2080.0053,70.769816 2079.9778,73.386842 2079.9443,76.565328 2076.3967,80.787702 2074.9614,79.357359 2074.1221,78.521061 2074.1077,77.667361 2074.9074,76.173101 2076.7116,72.801755 2076.1911,71.319389 2072.0514,68.040729 L 2068.1028,64.913399 2066.4224,67.478018 C 2064.7868,69.974396 2064.8424,70.205229 2068.5137,76.15327 L 2072.2854,82.263904 2070.0257,87.381952 C 2068.7828,90.196878 2067.2756,94.1875 2066.6763,96.25 2065.2481,101.16581 2062.6943,101.20448 2060.754,96.339681 2059.6529,93.57916 2059.5344,91.732454 2060.2718,88.827396 2061.1351,85.426225 2060.9407,84.508749 2058.6106,80.987715 2057.1591,78.794472 2055.4401,77 2054.7905,77 2054.1409,77 2052.3473,78.209191 2050.8047,79.687091 2048.3912,81.999381 2047.9995,83.150109 2047.9963,87.937091 2047.9937,91.717402 2047.3575,94.541441 2046.011,96.75 2043.6622,100.60226 2040.2476,101.13684 2039.6235,97.75 2036.1703,79.009018 2036.1425,79.482182 2041.0141,74.080314 2043.6308,71.178833 2045,68.712924 2045,66.901743 2045,63.97212 2042.7426,61 2040.5175,61 2038.9159,61 2034.756,65.77825 2031.7048,71.122792 2029.1685,75.565327 2027.7606,75.964654 2026.2583,72.667587 2023.954,67.610266 2028.2661,55.478247 2034.1179,50.554206 2036.9577,48.164741 2037.8653,47.931328 2042.0687,48.509448 2047.661,49.278582 2047.5066,49.536809 2048.8804,37.117238 2050.5219,22.278216 2057.2842,16.346163 2067.3377,20.926067 2072.9739,23.493644 2072.6034,23.51149 2076.1824,20.5 2079.854,17.410489 2082.6769,17.341895 2086.2662,20.254967 2089.4263,22.819594 2091.8063,31.65139 2090.6157,36.395003 2089.9986,38.853925 2089.5611,39.133577 2087.2039,38.576299 2081.6223,37.256746 2081.567,37.293307 2079.5,43.670762 2078.4,47.064682 2077.1607,50.178956 2076.7461,50.591372 2076.3314,51.003788 2074.8638,50.281254 2073.4848,48.98574 2070.7183,46.386769 2068.5649,39.946319 2069.4889,37.034991 2070.4198,34.101823 2068.0962,33.560955 2065.4092,36.085345 2062.6571,38.670766 2060.6333,44.357658 2061.1534,48.043948 2061.4594,50.21249 2061.9976,50.5 2065.7509,50.5 2069.5974,50.5 2070.4627,50.999555 2074.845,55.75 2077.5087,58.6375 2080.4674,61 2081.4197,61 2084.4914,61 2087.1382,56.673795 2091.0302,45.291473 2097.3826,26.713404 2101.4435,19 2104.8719,19 2105.8266,19 2108.001,20.4625 2109.7039,22.25 2113.1808,25.899651 2114.6913,32.948629 2113.5033,39.980619 2112.8056,44.109868 2110.6892,45.289188 2108.2871,42.887132 2106.3929,40.992942 2105.3842,42.636635 2103.4856,50.711031 2101.763,58.036862 2098.8887,65.152978 2095.2535,71.091956 2093.723,73.592465 2093.7973,73.854499 2097.3589,78.519002 2102.6068,85.39193 2102.8203,87.161313 2099.1202,93.113508 2097.4041,95.874169 2096,98.483246 2096,98.911458 2096,99.33967 2095.1839,100.42863 2094.1863,101.33136 2092.7873,102.59746 2092.1015,102.70147 2091.1863,101.78635 z"/>
</svg>
