<svg xmlns="http://www.w3.org/2000/svg"
     width="38.0" height="64.0"
     viewBox="88.8438 16.8141 49.3605 83.1859">
  <path d="M 92.84375,88.09375 95,89.78125 C 98.317421,92.39209 106.37554,96 108.875,96 109.97271,96 111.1775,95.541122 111.53125,94.96875 111.885,94.396377 112.97021,94.161743 113.9375,94.46875 116.42872,95.259434 120.14682,91.993874 123.1875,86.34375 125.1435,82.709152 125.94832,79.380853 126.4375,73 127.42764,60.084575 128.98701,50.13786 131.03125,43.5 133.51357,35.439677 134.2043,30.097589 133.21875,26.5625 131.61614,20.814097 130.38986,22.815004 130.375,31.21875 130.36391,37.490731 129.80694,40.831533 128.09375,45 126.54053,48.77926 125.26779,55.605616 124,66.84375 122.36405,81.345419 121.84193,83.624147 119.4375,87.09375 117.91536,89.290197 115.8984,91 114.84375,91 113.81109,91 112.12908,91.540929 111.09375,92.1875 108.63018,93.726026 101.19474,90.985604 96.40625,86.78125 94.900722,85.459379 94.076885,84.41162 93.59375,83.28125 L 92.84375,88.09375 z M 94.71875,76.0625 C 95.858508,76.511233 98.099932,77.881741 100.90625,80.0625 108.19931,85.729867 111.29914,86.283411 113.375,82.25 117.31083,74.602626 118.25201,48 114.59375,48 113.96518,48 111.77143,46.863578 109.71875,45.46875 107.10521,43.692804 106,42.194205 106,40.46875 106,37.520123 106.466,37.424742 109.0625,39.84375 111.77076,42.366876 115.87648,44.467275 116.625,43.71875 118.84806,41.495696 118.45505,25.048806 116.125,22.71875 114.43544,21.029196 112.27281,23.426029 113.8125,25.28125 114.43249,26.028283 115.23501,29.135116 115.59375,32.1875 116.37934,38.871612 115.11045,40.210193 110.9375,37.125 107.29215,34.429875 103.35724,34.335036 102.53125,36.9375 101.63091,39.774205 105.53681,46.750467 109.28125,48.96875 115.13071,52.434099 115.13892,52.456506 114.46875,61.84375 113.52047,75.126581 111.62773,82 108.9375,82 108.49127,82 105.33281,79.75 101.90625,77 98.632964,74.373017 95.893095,72.4077 95.3125,72.21875 L 94.71875,76.0625 z M 123.09375,22 C 122.45086,22 122.32934,36.080187 122.9375,39.9375 122.97652,40.185 123.5625,39.84375 124.25,39.15625 126.44133,36.964915 125.43322,22 123.09375,22 z"/>
</svg>
