<svg xmlns="http://www.w3.org/2000/svg"
     width="53.6" height="64.0"
     viewBox="280.3047 13.6114 77.2318 92.2814">
  <path d="M 291.5975,97.933498 C 285.17395,90.299546 284.30466,73.602893 289.65273,60.580067 L 292.4264,53.826055 289.75171,48.663027 C 285.92316,41.272679 285.63302,38.37544 287.97905,30.961899 291.99129,18.283027 295.37941,17.611397 296.26489,29.319391 296.8301,36.792843 298.19257,41 300.0476,41 301.401,41 307.44367,31.306945 308.93108,26.75 309.6043,24.6875 310.74272,23 311.46092,23 314.59197,23 314.86757,35.02695 311.9408,43.942314 310.80824,47.392258 310.02074,50.285313 310.1908,50.371325 316.80104,53.714639 322.55126,56 324.35317,56 327.58999,56 330.21974,50.553557 332.56143,39 L 333.87886,32.5 329.92395,29 C 326.29826,25.791355 324.8411,23 326.79179,23 327.22728,23 329.52077,24.973853 331.88845,27.38634 L 336.19332,31.772679 334.57509,39.63634 C 331.63855,53.906224 329.03681,59 324.68473,59 323.09918,59 307.50545,52.601056 306.08946,51.369365 305.86367,51.172958 306.36928,50.222003 307.21304,49.256131 310.07141,45.984087 312.59483,33.580494 310.94517,30.911286 310.33551,29.924827 309.81851,30.347166 308.99983,32.500438 307.52825,36.370995 300.90763,45 299.40952,45 297.2895,45 295.28201,40.600631 294.03883,33.2302 293.36755,29.250426 292.4209,26.239872 291.93515,26.540082 291.4494,26.840291 290.41191,29.241208 289.62963,31.875454 287.81108,37.999155 288.77674,43.529668 292.52184,48.43975 295.31998,52.108296 295.33798,52.217037 293.66329,55.333545 287.0882,67.569395 286.93716,86.568791 293.34596,95.25 295.83475,98.621256 297.17932,98.670994 302.44262,95.586496 308.22909,92.195396 313.05427,91.459582 316.80073,93.396956 318.47477,94.262632 321.90214,95.669521 324.4171,96.523376 329.47193,98.239532 330.96721,97.822341 334.92431,93.591822 337.4632,90.877514 339,90.288812 339,92.030551 339,93.063809 333.04027,98.738808 330.24307,100.36912 328.49444,101.38828 322.05934,99.58537 317.18338,96.710212 312.92561,94.199573 307.37947,94.846045 302.72603,98.395398 298.14075,101.89276 294.81276,101.75463 291.5975,97.933498 z M 317.1795,87.434945 311.8857,83.869889 308.38569,85.934945 C 300.93581,90.330481 297.96415,87.677026 298.0466,76.702947 298.09734,69.949266 301.33103,60.455343 304.1962,58.648035 305.42956,57.870052 308.32164,58.435518 315.68185,60.893742 321.09232,62.700773 326.86477,64.026421 328.50953,63.839627 332.73119,63.360174 335.1909,58.185187 339.60304,40.5 341.05489,34.680524 342.1509,32.658543 346.10189,28.510523 351.92296,22.399173 353.53648,22.884391 347.93828,29.062759 344.84319,32.478605 343.33968,35.45659 341.40659,42 336.67265,58.024198 335.80581,60.463979 333.89092,63.153184 330.9255,67.317736 327.53061,67.498634 317.13805,64.045866 312.09575,62.37064 307.16028,61 306.17033,61 302.03137,61 298.63953,74.847709 301.01528,82.04631 302.49873,86.541194 303.29891,86.78227 307.5,84 311.55595,81.313851 313.3839,81.480028 318.5,85 320.89819,86.65 323.58912,88 324.47984,88 326.60939,88 331.3077,85.539101 332.94528,83.565937 334.50746,81.683624 336.00976,81.526925 335.97421,83.25 335.93976,84.920282 326.8732,91 324.4168,91 323.34788,91 320.09109,89.395725 317.1795,87.434945 z M 330.91152,90.594186 C 333.34301,88.005983 336.68756,86.685447 337.49644,87.994247 337.94003,88.711976 330.91442,93 329.29489,93 328.94096,93 329.66844,91.917384 330.91152,90.594186 z M 333.57785,24.08126 C 329.79792,20.135861 331.18666,17.84659 335.0909,21.587083 337.62178,24.011822 338.26452,24.200508 340.50927,23.177732 341.91004,22.539496 343.31665,21.33841 343.63505,20.508652 344.2995,18.777135 347,18.448205 347,20.09879 347,21.993685 340.89289,27 338.58134,27 337.3674,27 335.11583,25.686567 333.57785,24.08126 z"/>
</svg>
