<svg xmlns="http://www.w3.org/2000/svg"
     width="64.0" height="63.5"
     viewBox="674.4321 18.0922 88.9926 88.3368">
  <path d="M 687.24239,100.50593 C 678.4321,96.67691 680.93934,82.673521 694.06519,62.39931 701.16075,51.439495 702.16889,48.262264 698.38475,48.785854 692.82371,49.555304 687.14044,43.560886 688.45715,38.314724 689.4091,34.52184 695.93762,26.348533 699.58367,24.385007 703.84124,22.092156 705.52854,23.426532 706.38969,29.767445 707.44011,37.502058 707.92511,37.791236 714.84169,34.806889 718.67366,33.153479 721.17111,32.571112 721.78728,33.187284 723.58856,34.988557 720.8619,42.138104 716.83969,46.160305 L 713.00542,49.994578 718.17375,55.497289 C 724.9223,62.682462 728.00426,62.925139 732.73276,56.64368 735.95089,52.368621 739,45.27447 739,42.062103 739,41.134559 738.09214,38.496608 736.98254,36.19999 734.61907,31.308183 733.21836,23 734.75709,23 736.03184,23 737,25.396271 737,28.551371 737,29.864659 737.9,32.541542 739,34.5 741.5483,39.037028 741.53257,43.574825 738.9458,50.13751 735.75606,58.229947 731.72935,62.700981 726.89535,63.517681 722.28168,64.297155 720.2148,62.835446 712.76732,53.526271 L 708.78827,48.552542 711.14413,47.038959 C 714.69702,44.756318 719,39.977738 719,38.314789 719,36.563275 713.89154,37.315562 710.28518,39.598161 706.22278,42.169403 705.24522,41.420883 704.52146,35.184863 703.41583,25.658747 701.73178,25.017194 696.12986,31.988026 690.83711,38.574156 690.28534,40.610372 693.00805,43.508568 694.86796,45.488351 696.17995,45.946494 699.42307,45.748677 703.20271,45.518134 703.52315,45.701292 703.81743,48.260422 704.12702,50.952678 699.7482,60.062962 696.01194,64.5 689.20328,72.585707 684.09139,86.4068 685.38138,93.241941 685.9379,96.190685 686.66125,97.135533 688.7938,97.6993 692.52835,98.686575 693.46878,98.378318 699.1297,94.311349 704.87666,90.182575 708.59596,89.782811 711.21142,93.012764 713.60825,95.972727 719.33195,99 722.53156,99 725.13119,99 728.8764,97.059884 732.59454,93.787112 733.80747,92.719473 735.38588,92.210848 736.34454,92.578719 738.27223,93.318443 738.58947,95.998226 736.75,96.003761 736.0625,96.00583 732.8,97.354137 729.5,99 726.2,100.64586 722.20312,101.99417 720.61803,101.99624 717.2439,102.00064 711.38581,98.718895 708.40347,95.153552 L 706.30694,92.647181 702.40347,95.008405 C 700.25656,96.307078 697.22797,98.411462 695.67327,99.684814 692.41133,102.35646 691.66709,102.42894 687.24239,100.50593 z M 714.20892,89.5 C 709.52296,84.176475 706.53795,83.725169 701.48826,87.576755 696.97207,91.021416 693.60399,90.562899 693.20146,86.448623 692.83203,82.672759 700.93578,65.982274 704.4996,63.178973 707.57221,60.762062 711.56656,61.408852 713.70283,64.669216 714.57232,65.996229 717.17192,68.188525 719.47972,69.540984 729.31435,75.304458 733.95666,71.409728 743.36637,49.500975 745.96458,43.451511 749.40959,37.140891 751.02193,35.477376 752.63427,33.81386 754.82956,30.663422 755.90036,28.476401 757.51336,25.181947 757.96889,24.811692 758.5565,26.317461 759.42466,28.54212 758.02529,31.264279 752.63642,37.833691 750.20026,40.803546 747.31182,46.093261 745.61633,50.689884 741.78543,61.075784 738.65279,66.285386 733.67778,70.543809 726.40106,76.772411 722.46588,76.445352 714.54447,68.953614 711.66373,66.229126 708.79056,64 708.15965,64 705.66301,64 696,79.867141 696,83.966756 696,86.540203 698.04572,86.552355 702.22583,84.003738 706.94898,81.124035 711.29669,81.394768 714.21006,84.75 715.52337,86.2625 717.57685,88.34681 718.77333,89.381799 720.86158,91.188187 721.05998,91.193018 723.72438,89.502346 725.25097,88.533658 727.68814,86.637449 729.14031,85.28855 730.59247,83.93965 732.04654,83.266291 732.37157,83.792196 733.56301,85.719983 723.62964,94 720.12548,94 719.04995,94 716.3875,91.975 714.20892,89.5 z M 728.03795,92.785184 C 728.0858,91.16483 735.74841,85.783899 736.43227,86.890418 737.01531,87.833785 733.54858,91.209402 730.25,92.910221 728.48107,93.822319 728.00811,93.795586 728.03795,92.785184 z M 740.79409,29.521522 C 739.25027,26.407539 738.49871,23.809815 739.04409,23.47275 740.56013,22.535784 742,23.921975 742,26.31847 742,27.52871 742.98466,29.133839 744.18814,29.885423 746.20456,31.1447 746.60456,30.967385 749.28514,27.62597 751.79272,24.500198 755,22.785467 755,24.570594 755,26.05521 746.49646,34.998775 745.09346,34.989755 744.16573,34.98379 742.36951,32.699241 740.79409,29.521522 z"/>
</svg>
