<svg xmlns="http://www.w3.org/2000/svg"
     width="53.8" height="64.0"
     viewBox="1268.6363 17.9807 74.5924 88.7557">
  <path d="M 1321.6396,39.25 C 1324.1344,35.846446 1326.2369,30 1324.9662,30 1322.8522,30 1317,36.91771 1317,39.416629 1317,42.796522 1319.0952,42.721274 1321.6396,39.25 z M 1301,37.075842 C 1301,35.062444 1297.3708,30 1295.9274,30 1294.2349,30 1294.9678,34.689392 1297.0801,37.374669 1299.2908,40.185192 1301,40.054897 1301,37.075842 z M 1326.0671,97.964094 C 1331.147,95.245383 1336.3854,75.774067 1333.8388,69.076145 1332.4892,65.526424 1331.508,67.55501 1330.0806,76.846 1328.0954,89.768373 1323.9637,94.055989 1317.0722,90.345548 1311.1502,87.157149 1309.4264,77.229262 1312.6418,64.830767 1313.6871,60.800318 1314.3131,54.139736 1314.3647,46.5 1314.4325,36.443721 1314.1248,33.852093 1312.465,30.5 1311.3756,28.3 1309.8269,26.5 1309.0234,26.5 1308.2049,26.5 1306.6798,28.698226 1305.5545,31.5 1303.7708,35.941419 1303.5755,38.429263 1303.8063,53.769331 1304.011,67.37113 1303.7322,72.022286 1302.4937,75.67026 1299.2681,85.170941 1294.4436,89.172707 1287.6666,87.968742 1281.8885,86.942247 1279.0067,83.464662 1278.3057,76.672861 1277.7228,71.025168 1276.7628,69.569844 1275.607,72.581787 1274.4615,75.566975 1275.0004,88.06509 1276.4212,91.465701 1279.6565,99.20875 1290.1067,100.06453 1296.4073,93.102379 1299.0047,90.232373 1299.7375,90.436079 1301.4356,94.5 1303.2284,98.790932 1304.2572,98.86241 1307.7641,94.939699 L 1310.5,91.879397 1313.5,94.78785 C 1317.8884,99.042315 1322.0752,100.1005 1326.0671,97.964094 z M 1300,98.902137 1297.5,95.810275 1293,98.393092 C 1287.432,101.58892 1283.3094,101.68235 1278.8979,98.71267 1274.0113,95.423185 1273.0397,92.57508 1272.814,80.878713 1272.6363,71.666269 1272.8883,69.938144 1275.0569,65.5 1276.6113,62.318855 1278.2275,60.396288 1279.5,60.214897 1281.3912,59.945303 1281.5,60.501426 1281.5,70.437545 1281.5,79.618174 1281.753,81.198279 1283.5035,82.948342 1286.8874,86.331596 1291.1606,86.577196 1294.7079,83.592321 1300.7492,78.508879 1302.6536,68.590392 1300.6776,52.5 1299.8597,45.83999 1299.1624,43.830005 1296.5146,40.5 1292.1951,35.067739 1290.5152,30.367855 1290.8848,24.75 1291.0671,21.98066 1293.1002,22.681919 1297.5498,27.04885 L 1301.6753,31.097699 1304.0876,27.547344 C 1305.4144,25.594649 1307.3197,23.732107 1308.3217,23.408362 1310.2843,22.774197 1314,25.480577 1314,27.544204 1314,28.223029 1314.8645,29.840785 1315.921,31.139216 L 1317.842,33.5 1322.4042,28.75 C 1327.6024,23.337715 1329,22.889362 1329,26.63398 1329,32.128036 1326.5602,37.582921 1321.8186,42.690139 1317.317,47.538834 1317,48.229625 1317,53.190513 1317,56.111142 1316.3094,61.650579 1315.4654,65.500374 1312.6762,78.222979 1312.676,78.234328 1315.1594,82.911331 1318.2557,88.742357 1320.0869,89.828322 1323.2872,87.73137 1326.0166,85.943032 1327.1773,82.061446 1329.0646,68.410957 1329.6797,63.961984 1330.5575,59.71592 1331.0153,58.975259 1332.4817,56.602639 1334.655,59.594482 1336.3411,66.306778 1339.2287,77.802358 1334.9187,95.110214 1328,99.802765 1323.705,102.71581 1317.1204,102.40118 1313.6233,99.115819 1310.7644,96.430064 1310.0302,96.475563 1307.145,99.517277 1304.0916,102.73638 1303.0261,102.64465 1300,98.902137 z"/>
</svg>
