<svg xmlns="http://www.w3.org/2000/svg"
     width="18.6" height="64.0"
     viewBox="74.0000 18.8914 25.3125 87.1678">
  <path d="M 92.84375,88.09375 93.59375,83.28125 C 93.193685,82.345234 93,81.377923 93,79.96875 93,77.858185 93.351495,75.890603 93.78125,75.625 93.864941,75.573276 94.443116,75.95398 94.71875,76.0625 L 95.3125,72.21875 C 95.285312,72.209902 95.016452,72 95,72 94.632228,72 94.558209,61.517163 94.8125,48.71875 95.226268,27.893908 95.080914,25.327987 93.59375,24.09375 92.145015,22.891407 91.460127,23.075275 88.21875,25.6875 82.823236,30.035744 78.590985,37.220967 79.4375,40.59375 79.808126,42.070444 82.792862,46.063762 86.0625,49.46875 91.877495,55.524463 92,55.803552 92,61.28125 92,68.271659 91.039294,70.804457 86.84375,75 81.179283,80.664468 78,85.19401 78,87.5625 78,88.812484 79.823511,92.136217 82.0625,94.96875 87.667196,102.05923 90.053487,101.7325 91.46875,93.65625 L 92.5,87.8125 92.84375,88.09375 z M 91.15625,27 C 91.892329,26.982673 92.822259,44.823704 92.1875,46.75 90.746999,51.121467 83,44.163511 83,38.5 83,34.710587 88.421273,27.064381 91.15625,27 z M 90,76.09375 C 91.375358,75.996006 91.119062,79.336439 89.90625,87.3125 89.304812,91.267854 88.455406,94.864407 88.03125,95.3125 87.607094,95.760594 85.837235,94.326329 84.09375,92.125 80.285155,87.316256 80.575185,85.07129 85.625,79.71875 87.771878,77.443172 89.174785,76.152396 90,76.09375 z"/>
</svg>
