<svg xmlns="http://www.w3.org/2000/svg"
     width="17.0" height="64.0"
     viewBox="1040.7500 18.0000 23.1562 87.0000">
  <path d="M 1058.8125,61.875 1058.6562,61.34375 1059.0938,56.90625 C 1058.4589,56.3317 1057.996,55.779325 1058,55.3125 1058.0187,53.110089 1058.5259,52.101146 1059.5625,52.03125 L 1059.9062,48.4375 C 1059.7648,48.384386 1059.2984,48 1059.2188,48 1058.6444,48 1058.3474,45.97149 1058.5312,43.25 1058.7078,40.6375 1058.9557,35.343892 1059.0938,31.5 L 1059.3438,24.53125 1055.4375,23.34375 C 1053.2785,22.69241 1050.3226,22.104768 1048.875,22.0625 L 1046.25,22 1046.1875,42.25 C 1046.1563,53.3875 1045.8191,71.1625 1045.4375,81.75 L 1044.75,101 1047.8125,101 C 1049.503,101 1051.1601,100.55 1051.5,100 1051.8399,99.45 1053.7049,99 1055.6562,99 1058.6951,99 1059.0777,98.748869 1058.3438,97.25 1057.3393,95.198747 1057.7728,63.173639 1058.8125,61.875 z M 1048.1875,25 1051.3438,25 C 1057.3005,25.028858 1057.1187,23.927435 1056.375,56.5625 1056,73.020136 1055.5888,87.625 1055.4688,89 1055.3487,90.375 1055.196,92.546935 1055.125,93.8125 1055.0342,95.434315 1053.9756,96.54123 1051.5312,97.5625 1047.3086,99.326846 1047.0147,99.327735 1046.9062,97.75 1046.7385,95.309258 1047.2453,75.444338 1047.5625,72 1047.7398,70.075 1047.9519,58.7125 1048.0312,46.75 L 1048.1875,25 z"/>
</svg>
