<svg xmlns="http://www.w3.org/2000/svg"
     width="17.2" height="64.0"
     viewBox="1539.0000 11.9117 25.4549 94.8105">
  <path d="M 1543.0058,98.611069 C 1543.009,96.349981 1543.4486,91.831329 1543.9827,88.56962 1545.4011,79.907981 1546.3592,28.352336 1545.1959,23.285004 1543.7454,16.966536 1544.9972,15.911689 1552.5,17.12988 1555.8,17.665683 1558.9036,18.506709 1559.3968,18.998826 1560.1807,19.780956 1560.4549,76.959885 1559.754,93.490958 L 1559.5,99.481916 1555,100.27055 C 1552.525,100.7043 1548.8125,101.43335 1546.75,101.89066 L 1543,102.72214 1543.0058,98.611069 z M 1556.2183,97.181695 C 1557.7918,95.60817 1558.6547,23.493755 1557.1221,21.647083 1555.8208,20.079172 1550.7074,18.79045 1548.7609,19.539865 1547.7846,19.915775 1547.4788,27.414488 1547.4062,52.762677 1547.3546,70.768205 1546.8394,88.2 1546.2613,91.5 1545.6832,94.8 1545.4465,97.889414 1545.7354,98.365364 1546.4188,99.491366 1554.862,98.538013 1556.2183,97.181695 z"/>
</svg>
