<svg xmlns="http://www.w3.org/2000/svg"
     width="52.4" height="64.0"
     viewBox="1985.3856 13.0000 76.8644 93.9248">
  <path d="M 2057.7188,88.6875 C 2055.3048,89.056306 2052.8432,88.686927 2051.5,87.34375 2049.4948,85.338554 2050.1672,80.210729 2053.0938,75.1875 2055.244,71.496868 2054.8878,70 2051.875,70 2049.3922,70 2039.8781,79.362954 2037.9688,83.6875 2036.4723,87.076957 2030.6412,91 2027.0938,91 2025.7753,91 2024.4986,90.012054 2023.7812,88.4375 2022.764,86.204739 2023.0876,85.064525 2026.3125,79.09375 2030.1782,71.936673 2030.7741,68.002415 2029.0625,60.625 L 2028.1562,56.75 2033.5625,57.375 C 2038.0566,57.903197 2039,57.745512 2039,56.46875 2039,53.727325 2035.9808,47.544202 2033.8438,45.90625 2031.969,44.469359 2031.7567,43.185633 2031.625,32.90625 2031.4879,22.202899 2030.3365,17 2028.125,17 2027.6824,17 2026.7722,20.109916 2026.0938,23.90625 2024.8284,30.986468 2022.2033,37.098918 2020.1562,37.78125 2018.4698,38.343432 2017.1832,34.137479 2016.4062,25.5625 2016.0296,21.405307 2015.401,18 2015,18 2013.9073,18 2009.4905,25.030563 2008.1562,28.90625 2006.548,33.577861 2006.6964,41.914188 2008.4688,46.9375 L 2009.9375,51.125 2002.5938,58.3125 C 1998.5388,62.269189 1994.6048,66.625 1993.875,68 1993.0857,69.48745 1992.2967,75.765258 1991.9375,83.5 1991.6054,90.65 1990.9912,97.2875 1990.5625,98.25 1989.3856,100.89262 1993.1785,100.52019 1995.6562,97.75 1998.1253,94.989635 1999.6698,90.92148 2000.5,85 2000.847,82.525 2001.6215,78.918308 2002.2188,77 2003.3959,73.219813 2013.706,61.716743 2015.125,62.59375 2016.6887,63.560182 2016.0617,67.952757 2013.4375,74.1875 2009.8697,82.664309 2008.7105,90.369869 2010.4062,94.375 2012.1346,98.457377 2015.1297,101.03119 2019.2188,102 2021.0288,102.42885 2022.5,102.82523 2022.5,102.875 2022.5,102.92477 2024.8263,102.3555 2027.6875,101.59375 2030.5487,100.832 2034.966,98.814127 2037.4688,97.125 L 2042,94.0625 2045.75,96.625 C 2048.9817,98.839146 2050.2568,99.139984 2055.0625,98.71875 2056.0095,98.63574 2057.1541,98.35324 2058.25,98.125 L 2058.0938,95.1875 C 2053.5828,96.030506 2048.9094,96.143822 2047.5312,95 2046.6964,94.307158 2046,92.907656 2046,91.875 2046,89.113853 2043.8731,89.573715 2038.9062,93.40625 2032.3339,98.477728 2021.882,100.60266 2016.8438,97.90625 2011.5909,95.094983 2011.1667,86.586445 2015.7188,75.59375 2018.7327,68.315186 2019.1805,61.742989 2016.8125,59.375 2015.2164,57.778851 2014.7693,58.059654 2009.3125,63.9375 2001.7876,72.042823 1999.3641,76.618499 1997.9062,85.65625 1997.2508,89.719311 1996.3158,93.302038 1995.8438,93.59375 1994.8407,94.213632 1994.6924,76.788438 1995.6562,71.96875 1996.1317,69.591904 1998.7514,66.304768 2005.1562,60.0625 2010.5506,54.805002 2013.6659,51.054033 2013.125,50.46875 2011.0839,48.259928 2008.8041,38.703044 2009.4062,34.9375 2010.1057,30.563158 2011.9739,26 2013.0625,26 2013.4617,26 2014.053,27.925834 2014.4062,30.28125 2015.1672,35.355941 2018.3652,41 2020.4688,41 2022.1444,41 2025.1474,35.660092 2027.0625,29.25 2027.7608,26.9125 2028.6645,25 2029.0938,25 2030.5912,25 2031.2029,33.86298 2030.0625,39.15625 2028.9641,44.255009 2029.0157,44.581621 2031.3438,46.59375 2033.9669,48.861044 2036,52.128397 2036,54.0625 2036,54.907538 2034.6909,55.080771 2031.5938,54.65625 2025.7467,53.854823 2023.8367,55.777482 2026.3125,59.96875 2029.0177,64.548155 2028.4099,69.309885 2024,77.875 2019.4024,86.80467 2019.1927,88.499626 2022.1875,91.6875 2026.8234,96.622223 2035.5919,92.892155 2040.75,83.8125 2043.8902,78.284859 2048.5461,73.233657 2049.5625,74.25 2049.8842,74.57173 2049.7269,75.646644 2049.1875,76.65625 2048.2107,78.484581 2047.7048,82.48815 2047.9062,86.71875 2048.0239,89.188907 2052.423,92.006119 2056.1875,92 2056.6763,91.999206 2057.2944,91.780617 2057.875,91.625 L 2057.7188,88.6875 z"/>
</svg>
