<svg xmlns="http://www.w3.org/2000/svg"
     width="48.6" height="64.0"
     viewBox="1467.3995 14.5737 70.6983 93.0489">
  <path d="M 1482.5967,101.75 C 1482.4094,101.0625 1481.5235,97.985449 1480.6281,94.912108 1478.1453,86.390751 1478.3779,85.583159 1485.5,78 1489.075,74.193541 1492,70.681098 1492,70.19457 1492,68.486667 1488.3163,66 1485.7863,66 1482.9715,66 1480.6427,68.841183 1478.5844,74.786574 1477.0614,79.18549 1474.388,81.197888 1472.9868,79 1471.3995,76.509901 1471.8802,68.440363 1473.8905,63.832905 1477.9402,54.550874 1482.7604,52.467945 1494,55.142997 1495.1211,55.409813 1495.5777,54.425639 1495.8076,51.247163 1496.0868,47.387357 1495.8558,46.893964 1493.3076,45.908363 1491.7634,45.311084 1489.6,44.648522 1488.5,44.436003 1485.4348,43.843805 1482,39.282295 1482,35.803768 1482,29.402452 1488.9967,19.85226 1494.432,18.834642 1495.8255,18.573742 1496.5882,19.710372 1497.893,23.99272 1498.9008,27.300253 1500.2033,29.608049 1501.1669,29.793632 1502.0471,29.963139 1505.3646,27.828915 1508.5392,25.050913 1511.7138,22.272911 1514.8858,20 1515.5882,20 1517.6783,20 1518.2511,23.784726 1516.9696,29.126627 1516.0554,32.937475 1514.5983,35.306474 1510.8838,39.020953 1506.0333,43.87151 1506,43.949341 1506,50.452381 1506,57.536692 1506.3696,57.89445 1511.1403,55.427424 1515.6163,53.112824 1521.3046,54.371231 1525.5482,58.61484 1530.9877,64.054332 1532.3847,67.575451 1532.4457,76 1532.4756,80.125 1532.7961,83.952484 1533.1579,84.505521 1534.0978,85.941983 1532.1284,96.07383 1530.3829,98.781865 1528.1963,102.17438 1526.896,100.49316 1528.5833,96.454946 1529.7173,93.740903 1529.9196,90.204219 1529.4831,80.726786 1528.8672,67.355089 1527.5274,63.229535 1522.608,59.556689 1519.1011,56.938389 1512.0108,56.775281 1509.2762,59.25 1505.8395,62.360257 1504.0133,61.512724 1503.8896,56.75 1503.8289,54.4125 1503.6875,49.916305 1503.5753,46.758455 1503.4082,42.054322 1503.6881,40.916395 1505.1241,40.460614 1509.6187,39.034092 1516.3925,27.06209 1514.4674,23.947273 1514.1235,23.390791 1511.3845,25.189735 1508.3421,27.970346 1501.0266,34.656257 1498.7135,34.66435 1496.5039,28.011762 1495.5927,25.268231 1494.4844,22.799363 1494.0411,22.525387 1492.667,21.67614 1487.8286,26.166067 1486.3788,29.635782 1483.2674,37.082545 1485.6731,41.555169 1493.2232,42.360477 1495.4548,42.598502 1496.894,43.47395 1497.7353,45.104995 1499.1586,47.864711 1499.4369,58.611972 1498.1062,59.434344 1497.6147,59.738152 1495.6041,59.314709 1493.6384,58.493361 1489.4377,56.738229 1483.7,56.554983 1480.8418,58.084676 1477.1902,60.038919 1471.9161,75 1474.8787,75 1475.362,75 1476.3307,73.615894 1477.0314,71.924209 1478.8168,67.613801 1483.7122,63 1486.5002,63 1489.3715,63 1495,67.549051 1495,69.869633 1495,70.800148 1491.85,74.845425 1488,78.859136 1484.15,82.872848 1481,86.847746 1481,87.692242 1481,89.949033 1485.1823,97.005368 1486.1613,96.400319 1486.6226,96.115225 1487,94.027473 1487,91.76087 1487,88.145831 1487.5696,87.109306 1491.6388,83.319887 1494.1902,80.943949 1496.8142,79 1497.4699,79 1499.1753,79 1500.7598,82.716327 1501.5203,88.5 1502.5626,96.427045 1507.8624,100.1222 1510.0264,94.430602 1511.342,90.970235 1510.4509,87.986266 1506.4007,82.289588 1504.2507,79.265536 1503,76.338167 1503,74.329923 1503,70.536976 1506.6632,65.796358 1510.9739,64.010831 1513.5172,62.957356 1514.3756,63.016093 1516.4674,64.386715 1519.9771,66.686296 1524,75.699808 1524,81.263586 1524,86.098808 1520.783,95 1519.0355,95 1517.7255,95 1517.6581,95.402252 1520.0005,89.239273 1521.1002,86.345874 1521.9956,82.745874 1521.9902,81.239273 1521.9765,77.394983 1517.5816,68.381614 1515.0637,67.034114 1511.9716,65.379245 1507.8056,67.682991 1506.6611,71.680742 1505.8779,74.416208 1506.2578,75.768869 1509.3752,81.343226 1513.3718,88.489822 1514.0689,94.028982 1511.4433,97.777494 1507.3546,103.61498 1499.0131,97.854192 1498.9847,89.173275 1498.9641,82.903177 1497.976,81.381943 1495.0772,83.15783 1491.5827,85.298692 1488.6901,90.700325 1489.3285,93.892731 1489.758,96.040033 1489.2237,97.404236 1486.9993,99.839627 1483.831,103.30845 1483.1069,103.62268 1482.5967,101.75 z M 1522,98.122124 C 1522,96.235455 1525.0812,90 1526.0134,90 1527.3729,90 1527.2505,91.464807 1525.551,95.532119 1524.2397,98.67054 1522,100.30411 1522,98.122124 z"/>
</svg>
