<svg xmlns="http://www.w3.org/2000/svg"
     width="36.4" height="64.0"
     viewBox="286.9464 12.0991 52.0536 91.4288">
  <path d="M 301.48985,98.695676 C 297.28792,97.340562 295.94309,96.071679 293.86348,91.5 290.94641,85.087296 291.45278,77.653105 295.60122,65.987664 298.88565,56.751806 299.10557,55.476317 298.10122,51.487688 297.49555,49.082358 297.00422,43.151129 297.00938,38.30718 297.01782,30.385862 297.31654,28.980817 299.97918,24.338312 301.77224,21.211972 304.20895,18.543379 306.15873,17.570701 309.10564,16.100591 309.78226,16.099093 314.15954,17.552991 320.33648,19.60464 330.0048,27.127285 331.78634,31.267905 332.55119,33.045557 333.18908,36.569449 333.20388,39.098775 333.25851,48.440397 330.39755,50.950093 327.61668,44 325.56117,38.862792 324,38.89117 324,44.065741 324,48.922133 322.49974,52.129 320.57359,51.389864 318.61469,50.638166 314,37.688222 314,32.94279 314,28.572382 311.82925,27.539386 309.39205,30.75 307.71216,32.96297 307.57158,45.838024 309.16908,51.170007 310.18153,54.549245 310.05447,55.770638 308.22081,60.286027 307.05627,63.153712 305.55727,69.180205 304.8897,73.678234 303.79011,81.08715 303.84373,82.112549 305.45964,84.578743 L 307.24334,87.301017 311.37167,82.875918 C 318.29746,75.452264 329,72.503555 329,78.019052 329,79.108573 328.63543,80 328.18984,80 326.81136,80 321,86.157963 321,87.618657 321,89.468451 324.42827,89.365137 328.59077,87.389903 331.89089,85.823891 335,86.032886 335,87.820732 335,88.306658 333.97626,90.223369 332.72501,92.080089 329.61333,96.697515 322.12119,99.527864 316.67171,98.144639 313.89616,97.44013 311.60447,97.515655 308.6344,98.409514 305.75237,99.276879 303.56384,99.364536 301.48985,98.695676 z M 310.73507,94.864934 C 311.58093,94.019067 313.01486,94.018114 316.36303,94.861193 318.83412,95.483421 321.45084,95.806786 322.17796,95.579781 322.90508,95.352777 324.68786,94.908345 326.1397,94.592155 327.59153,94.275965 329.04823,93.31669 329.37681,92.460434 329.89238,91.11689 329.17176,90.994391 324.11688,91.566286 320.29818,91.998323 318.02613,91.851296 317.58891,91.143852 316.74556,89.779287 318.99889,85.361555 322.41564,81.680887 323.85497,80.130375 324.79085,78.470602 324.49537,77.992504 323.93247,77.081718 315.76784,80.87961 315.13437,82.346905 314.07603,84.79828 308.55496,90 307.01142,90 306.03165,90 304.44172,88.796896 303.47823,87.326436 301.09504,83.689218 301.93832,69.907051 305.05326,61.584871 307.00553,56.369016 307.13325,55.089154 306.13363,50.758581 305.51013,48.057442 305,42.73885 305,38.939486 305,32.73036 305.29325,31.703351 307.89886,28.787166 310.49094,25.88612 311.09945,25.648289 313.64886,26.539795 315.82145,27.29953 316.55845,28.246405 316.7456,30.518405 317.18616,35.866778 319.12425,44 319.95817,44 320.40628,44 321.06747,42.035761 321.42748,39.635025 321.78749,37.234289 322.67129,34.464211 323.39148,33.479297 324.59146,31.838232 324.92159,32.056816 327.34099,36.094272 L 329.98108,40.5 329.99054,37.20034 C 330.00379,32.580519 327.66075,28.563836 323.79405,26.577663 321.98232,25.647049 318.97095,23.786369 317.10212,22.442818 311.03971,18.084411 305.70369,19.740166 301.92183,27.15323 299.46537,31.968292 298.89416,43.738519 300.73048,51.701984 301.99194,57.172479 301.9443,57.370762 296.41803,69.651129 295.57647,71.52123 295,76.039869 295,80.76627 295,87.453788 295.35511,89.192676 297.21553,91.615141 298.43406,93.201814 299.89656,94.830609 300.46553,95.234687 302.09042,96.38869 309.47727,96.122727 310.73507,94.864934 z"/>
</svg>
