<svg xmlns="http://www.w3.org/2000/svg"
     width="48.6" height="64.0"
     viewBox="1400.9904 10.5000 73.1156 96.2827">
  <path d="M 1454,94.174314 C 1454,93.202944 1458.3168,89 1459.3145,89 1460.8768,89 1459.8395,91.999043 1457.7775,93.443296 1455.3114,95.170631 1454,95.424408 1454,94.174314 z M 1451.8329,27.069959 C 1452.3186,23.753022 1451.1626,20 1449.6553,20 1448.9366,20 1447.274,21.143895 1445.9606,22.541989 L 1443.5725,25.083978 1446.5362,27.503646 C 1449.9978,30.329743 1451.372,30.217222 1451.8329,27.069959 z M 1422.2517,100.81389 C 1415.8567,99.100706 1414.1206,88.408157 1417.9633,74.401464 1419.0835,70.318385 1420,66.539986 1420,66.005021 1420,65.470056 1418.4529,65.770115 1416.562,66.67182 1413.3531,68.202045 1412.9477,68.195784 1410.4785,66.57786 1406.8915,64.227578 1404.9904,59.22284 1405.048,52.282119 1405.1437,40.760304 1410.8634,35.497058 1416.4613,41.77968 1417.8827,43.37503 1419.6512,45.508345 1420.3912,46.520379 1421.674,48.274586 1421.7964,48.248941 1423.0157,45.970755 1424.8135,42.611482 1424.856,29.005896 1423.0791,25.664639 1421.7792,23.22037 1421.8476,22.791075 1423.8825,20.625101 1425.1058,19.322886 1427.6894,17.412014 1429.6237,16.378718 L 1433.1407,14.5 1436.9347,18.936303 1440.7286,23.372607 1445.0613,20.186303 C 1448.686,17.520686 1453,15.986734 1453,17.36351 1453,17.563441 1453.4389,20.041541 1453.9754,22.8704 1455.0509,28.541197 1453.8221,33 1451.1839,33 1450.3616,33 1448.2138,31.875 1446.4111,30.5 1444.6084,29.125 1442.7146,28 1442.2026,28 1439.7093,28 1435.3932,45.273809 1436.8977,49.230911 1438.1989,52.653237 1446.2127,58.08472 1450.8859,58.711517 1454.4064,59.183724 1454.6915,59.007422 1456.3137,55.354951 1459.1221,49.031467 1461.0439,40.164224 1462.1333,28.503009 1462.6984,22.454664 1463.357,17.309664 1463.597,17.069675 1465.7682,14.898465 1470.106,30.78701 1469.4478,38.5 1468.6438,47.921229 1467.8119,53 1467.0728,53 1466.6661,53 1466.3333,53.629473 1466.3333,54.398829 1466.3333,55.732032 1463.1426,63.977405 1460.7863,68.73343 1460.1777,69.961816 1458.9043,71.212984 1457.9565,71.513802 1455.0919,72.422987 1447.376,70.194398 1442.3476,67.005486 1439.7411,65.352469 1436.9962,64 1436.248,64 1434.1589,64 1431.1781,71.804916 1430.4123,79.280391 1429.6697,86.528537 1430.4273,87.504109 1434.4411,84.468197 1437.4722,82.175584 1442.7865,82.642597 1446.1824,85.5 1449.7742,88.522318 1450.9721,88.596352 1454.2729,86 1457.288,83.628284 1458,83.517191 1458,85.418441 1458,87.13524 1452.0139,91 1449.3548,91 1448.3048,91 1445.9677,89.65 1444.1611,88 1440.0077,84.206457 1437.95,84.226969 1433.5321,88.105956 1428.0002,92.963002 1426.5847,91.673898 1427.2849,82.416578 1427.5984,78.271355 1428.2762,74.344352 1428.7911,73.689904 1429.3061,73.035457 1429.7137,71.727262 1429.697,70.782804 1429.6803,69.838345 1430.5051,67.206316 1431.5298,64.933848 1433.2708,61.073005 1433.6095,60.837226 1436.6952,61.33796 1438.5114,61.632688 1441.9105,63.215509 1444.2487,64.855339 1449.8565,68.788207 1455.9567,69.81031 1458.3089,67.211174 1463.3572,61.632852 1468.983,35.365929 1466.1961,30.38595 1465.329,28.836578 1465.0774,29.162679 1464.5419,32.529271 1463.3967,39.730412 1463.2462,40.446092 1461.525,46.879204 1460.5862,50.387767 1458.9494,55.285109 1457.8876,57.762186 L 1455.9571,62.265964 1451.3099,61.628994 C 1446.3731,60.952331 1437.933,56.170134 1435.4704,52.654235 1433.4442,49.761469 1433.6293,44.710588 1436.0632,36.478358 1439.3323,25.420749 1439.3447,25.83703 1435.6184,21.5 L 1432.1817,17.5 1429.3409,19.607964 C 1426.5179,21.702645 1426.5016,21.778256 1426.7528,31.607964 1427.0057,41.501326 1424.9966,50.963717 1422.5,51.638065 1421.95,51.786624 1419.7796,49.678833 1417.6769,46.954086 1413.6722,41.764519 1412.0521,41.027365 1410.0235,43.471651 1406.4827,47.738056 1407.4505,60.912682 1411.5,63.571163 1413.2195,64.700029 1414.2012,64.542974 1418.5,62.451222 1421.25,61.113107 1423.6125,60.014172 1423.75,60.009143 1424.5527,59.979788 1423.6789,63.904206 1421.3634,70.728946 1416.3986,85.361636 1417.9425,98 1424.6948,98 1427.2395,98 1434.4613,94.680685 1435.4709,93.047045 1436.4468,91.468015 1442.2767,93.056751 1445.0939,95.669441 1446.5205,96.992542 1449.3312,98.341765 1451.3398,98.667715 1454.6311,99.201824 1455.3365,98.884026 1458.4821,95.449765 1462.4046,91.16748 1464.4283,91.364128 1461.03,95.697338 1456.464,101.51942 1449.2858,102.78267 1444.3267,98.636833 1439.7725,94.829472 1437.881,94.690928 1432.9513,97.803638 1427.0006,101.561 1426.0445,101.82999 1422.2517,100.81389 z"/>
</svg>
