<svg xmlns="http://www.w3.org/2000/svg"
     width="23.9" height="64.0"
     viewBox="1190.4882 12.7991 34.1048 91.2009">
  <path d="M 1208.0312,17.21875 C 1207.5905,17.35863 1207.101,17.635557 1206.4375,18 1201.9538,20.462948 1200.1252,23.970704 1197.9375,34.5 1195.4087,46.670879 1194.4882,65.730999 1195.4688,85.34375 1196.0614,97.198419 1196.4738,100 1197.6562,100 1203.1676,100 1204.7242,94.37494 1205.4688,71.5 1206.2477,47.565139 1207.3936,36.503019 1209.2188,35.375 1209.8256,34.999967 1211.844,36.360539 1213.7188,38.40625 1218.4173,43.533227 1220.593,42.926747 1220.1875,36.625 1219.8331,31.116523 1217.3777,25.921221 1212.5312,20.375 1210.0628,17.550238 1209.3536,16.799109 1208.0312,17.21875 z M 1206.625,20.46875 C 1207.4458,20.217512 1208.3314,20.297048 1209.25,20.71875 1212.9912,22.4362 1219.2611,36 1216.3125,36 1215.9262,36 1214.1851,34.632212 1212.4688,32.96875 1209.3679,29.963255 1209.3573,29.954233 1207.5625,31.9375 1204.8593,34.924521 1204.1426,40.414748 1203.4688,63.5 1203.1318,75.05 1202.389,86.84084 1201.8438,89.71875 1201.2985,92.59666 1200.4657,95.224166 1199.9688,95.53125 1198.1751,96.639853 1197.5397,90.152165 1197.5625,71 1197.5991,40.214408 1200.8793,22.227416 1206.625,20.46875 z"/>
</svg>
