<svg xmlns="http://www.w3.org/2000/svg"
     width="64.0" height="60.8"
     viewBox="67.0148 15.0000 97.9305 93.0492">
  <path d="M 92.805743,93.2082 C 93.063236,89.724606 93.835059,88.434925 97.696533,85.03592 100.21831,82.816164 102.58978,81 102.96648,81 103.34317,81 104.71404,82.131163 106.01287,83.513696 107.79879,85.414719 108.4799,87.486457 108.80737,92.013696 109.04553,95.306163 109.5238,97.987642 109.87019,97.972538 110.76409,97.933561 115,89.320603 115,87.541997 115,86.727771 114.14152,84.36023 113.09227,82.280794 109.66848,75.495442 109.6748,74.55526 113.16715,71.140838 116.36669,68.012697 119.3429,67.127774 120.4794,68.966672 120.80799,69.498342 123.37031,71.085288 126.17343,72.493218 130.96219,74.898476 131.41733,74.956572 133.7089,73.455079 137.05723,71.261169 141.66573,60.549925 144.60679,48.125784 148.03035,33.663406 149.14902,32.014913 153.10825,35.597961 156.73414,38.879348 158.12838,34.94485 155.53726,28.743409 153.35053,23.509829 148.20601,22.229768 145.56407,26.261878 143.53998,29.351029 140.31603,40.126248 139.06002,48 137.60759,57.105071 136.42635,60.757355 133.50737,65.168227 130.58508,69.584102 127.38837,70.191614 124.40735,66.897621 122.24506,64.508323 117.78337,62 115.69568,62 114.92368,62 113.07815,63.125 111.5945,64.5 105.75258,69.914112 105.00733,67.356771 107.12725,49.170439 108.19575,40.004014 108.45634,39.279658 112.12725,35.272343 115.50574,31.584243 116.92949,29 115.58291,29 115.3535,29 113.0662,29.9 110.5,31 103.38072,34.051679 102.55046,33.779514 102.19506,28.277593 102.02735,25.681154 101.748,23.414667 101.57429,23.240957 100.6467,22.313366 95.685418,25.772936 93.97544,28.539739 89.960481,35.036079 92.620304,42 99.116497,42 L 102.23299,42 101.63274,48.25 C 101.3026,51.6875 100.7383,57.800367 100.37874,61.834149 99.65194,69.987886 98.293416,71.522863 94.699119,68.251477 87.887715,62.052008 83.175347,62.8744 78.949878,71 77.319995,74.134275 76.008211,81 77.039252,81 77.46314,81 78.931077,79.086952 80.301336,76.748783 81.671594,74.410613 83.713982,71.66383 84.839976,70.64482 86.84351,68.831646 86.977224,68.853031 91.100399,71.646037 97.903497,76.254402 98.194032,77.533504 93.413238,81.828507 88.849622,85.928399 86.774264,89.195208 87.473916,91.177558 89.533729,97.0137 90.165529,98.112182 91.256153,97.753562 91.940269,97.52861 92.637584,95.483197 92.805743,93.2082 z M 107.0702,101.57472 C 105.08228,99.458682 104.87923,98.513512 105.47773,94.161913 106.20687,88.860451 104.97481,85 102.55371,85 100.3043,85 96,90.91096 96,94 96,95.603429 94.8694,98.190191 93.411106,99.923275 90.397349,103.50492 87,104.04918 87,100.95034 87,99.823027 86.285175,97.51836 85.411499,95.828858 83.119668,91.396946 84.274861,87.113974 89.008864,82.491345 91.203989,80.347863 93,78.05488 93,77.395828 93,76.736776 91.461513,75.289822 89.581141,74.180376 86.399627,72.303236 86.060156,72.279024 84.691205,73.8316 83.882113,74.74922 82.193817,77.975 80.939435,81 77.745935,88.701278 77.048133,89.477481 75.085903,87.5112 71.014811,83.431702 75.562944,66.583588 81.966114,62.024129 85.50501,59.504213 86.670148,59.501515 90.77417,62.003738 96.874501,65.723111 97.228042,65.227172 98.42964,51.264815 98.958345,45.12135 98.926034,45.020127 96.233119,44.383576 91.606478,43.289932 89,40.14764 89,35.663544 89,28.646559 96.402848,19 101.78774,19 103.88321,19 104.96249,21.44631 104.98635,26.25 105.00426,29.857366 107.78058,29.904672 113.76166,26.399522 116.72476,24.66303 118.53183,24.131831 119.20069,24.800686 120.91975,26.519749 118.99301,31.886438 115.00071,36.499176 111.5129,40.529027 111.11473,41.596648 110.44866,48.704599 110.04721,52.988708 109.36344,57.732763 108.92918,59.246944 107.9834,62.544693 109.16767,62.79987 112.66197,60.051252 115.59,57.748063 117.85488,58.335221 124.52792,63.127437 126.89659,64.828488 129.309,65.92706 129.88883,65.568709 131.89271,64.330241 134.85462,56.056124 136.00076,48.494968 138.12335,34.492198 143.50283,21.886286 147.83983,20.752137 152.98467,19.40673 158.64673,25.592355 160.42404,34.5 160.94534,37.112709 160.56987,37.806732 157.51557,39.875982 154.59696,41.853305 153.74902,42.036592 152.46188,40.968363 150.18695,39.080336 149.3076,40.558703 147.50593,49.300409 145.72775,57.928121 139.41072,72.470937 136.19064,75.35 133.2221,78.004175 127.91508,77.693912 123.36197,74.6 119.15624,71.74213 117.02366,71.376335 115.2,73.2 113.44119,74.958815 113.74321,78.092368 116,81.5 117.09275,83.15 117.98979,85.45632 117.99341,86.625156 118.0015,89.235249 111.37847,104 110.19956,104 109.73155,104 108.32333,102.90863 107.0702,101.57472 z"/>
</svg>
