<svg xmlns="http://www.w3.org/2000/svg"
     width="47.3" height="64.0"
     viewBox="1208.0919 13.1187 71.1269 96.1648">
  <path d="M 1275.2188,61.25 C 1274.9643,61.712151 1274.675,62 1274.3125,62 1273.4861,62 1271.6797,62.9 1270.2812,64 1268.8827,65.1 1266.8154,66 1265.6875,66 1263.3595,66 1259,62.314773 1259,60.34375 1259,58.585119 1254.1433,57.450514 1252.7188,58.875 1250.4449,61.148903 1249.7143,59.957555 1250.3125,54.90625 1251.0965,48.286885 1252.23,47.010613 1256.5938,47.71875 1263.0257,48.762505 1265.6028,43.742766 1261.2188,38.75 1259.8102,37.145753 1260.0726,36.613465 1264.3438,32.28125 1268.4524,28.113797 1273.0308,19.718297 1271.8438,18.53125 1271.323,18.010545 1264.351,20.336488 1263.3125,21.375 1262.4791,22.208378 1254.0962,26 1253.0938,26 1252.7322,26 1251.7107,24.7625 1250.8125,23.25 1248.416,19.21421 1244.1849,17.118723 1240.5,18.125 1236.3935,19.246439 1234,23.596078 1234,30 1234,34.518193 1234.4579,35.720859 1237.5938,39.34375 L 1241.1875,43.5 1240.5625,51.5 C 1240.2086,55.896549 1239.5599,59.846349 1239.125,60.28125 1238.6901,60.71615 1235.6041,59.250199 1232.2812,57.03125 1225.3978,52.434688 1224.6485,52.288067 1220.4062,54.875 1214.7475,58.325636 1212.0919,66.785998 1213.6562,76.25 1214.5009,81.359522 1216.3896,80.960113 1218.4062,75.25 1222.2627,64.330347 1224.6168,63.188785 1230.7188,69.28125 1237.0267,75.579632 1235.2141,83.79661 1227.0312,86 1222.5426,87.20869 1220.4908,89.64554 1218.5312,96.1875 1217.6033,99.285574 1217.5346,101.19812 1218.2812,103 1219.2277,105.28356 1219.4092,105.01018 1220.2812,99.71875 1221.3113,93.468315 1225.389,88 1229.0312,88 1233.0804,88 1238.7369,79.117399 1237.5938,74.5625 1236.8166,71.466063 1231.4498,65.564115 1227.5938,63.59375 1223.8767,61.69444 1221.8454,62.714842 1218.875,68 1216.2815,72.614505 1214.5518,71.971272 1215.5312,66.75 1216.3411,62.43325 1221.464,56 1224.0938,56 1225.1603,56 1229.1702,58.088852 1233.0312,60.65625 1237.1162,63.372598 1240.3962,64.94044 1240.875,64.40625 1241.3276,63.901352 1242.2538,58.948171 1242.9375,53.375 1244.2979,42.284834 1243.8883,40.344121 1239.625,38.0625 1237.5917,36.974285 1236.9663,35.701594 1236.4375,31.46875 1235.6144,24.880755 1236.4735,22.14014 1239.7188,20.90625 1242.9226,19.688131 1245.8946,21.463359 1248.9688,26.4375 1250.1758,28.390586 1251.476,29.981242 1251.8438,29.96875 1252.2114,29.956258 1255.4192,28.381258 1258.9688,26.46875 1266.049,22.653767 1267.0186,22.392785 1267,24.25 1266.9854,25.721184 1260.578,32.745651 1257,35.21875 L 1254.5,36.9375 1257.25,39.0625 C 1258.7625,40.223264 1260,42.062796 1260,43.15625 1260,44.926899 1259.4166,45.098841 1254.7812,44.8125 L 1249.5938,44.5 1248.7812,49 C 1248.3329,51.475 1247.7883,54.625 1247.5625,56 1247.3366,57.375 1246.8227,60.1875 1246.4375,62.25 1245.6014,66.726534 1246.7422,67.069521 1250.5938,63.5 1254.184,60.172682 1255.4286,60.339366 1258,64.5 1260.9521,69.276475 1263.8729,69.810971 1269.9062,66.65625 L 1274.8125,64.09375 1274.9375,64.5625 1275.2188,61.25 z M 1226.4375,96 C 1225.1505,96 1223.6565,101.65915 1224.5625,103.125 1225.5681,104.75217 1226.7679,103.09451 1227.1875,99.5 1227.4505,97.247469 1227.1912,96 1226.4375,96 z M 1274.3125,71.125 C 1273.3803,71.95608 1272.0209,72.755349 1269.7188,73.75 1262.9943,76.655422 1260.6441,76.594839 1257.6875,73.40625 L 1255.2812,70.8125 1251.6562,73.15625 C 1248.1261,75.443435 1248.0262,75.617918 1248.5,80.625 1248.9432,85.308808 1248.7704,85.919686 1246.4062,87.46875 1244.1778,88.928914 1243.8869,89.658917 1244.4375,92.59375 1245.1621,96.456646 1244.1573,96.936239 1241.5,94 1239.2335,91.495515 1238.5086,91.497424 1234.9062,94.0625 1233.0636,95.374624 1232,97.019552 1232,98.5625 1232,101.68563 1233.7858,101.70528 1234.9688,98.59375 1236.439,94.726503 1238.1073,94.389563 1240.5625,97.46875 1242.3818,99.750282 1243.2895,100.14857 1245.5,99.59375 1247.9527,98.978166 1248.1599,98.572883 1247.75,95.21875 1247.3828,92.214805 1247.8201,90.903611 1250.0938,88.28125 1252.7847,85.177616 1252.8545,84.878939 1251.4688,81.5625 1250.1898,78.501456 1250.2121,77.944101 1251.5938,76.5625 1253.6366,74.519592 1254.6567,74.591378 1257.7188,77 1261.1266,79.680635 1264.4483,79.513294 1269.75,76.40625 1271.8839,75.15569 1273.3967,74.537763 1274,74.5 L 1274.3125,71.125 z"/>
</svg>
