<svg xmlns="http://www.w3.org/2000/svg"
     width="26.6" height="64.0"
     viewBox="711.1984 14.0000 37.0029 89.0884">
  <path d="M 738.03125,67.75 738,67.34375 738.25,62.375 C 738.23572,62.302999 738.16681,62.262041 738.15625,62.1875 738.03177,61.308895 738.08819,60.826124 738.34375,60.53125 L 738.59375,55.59375 C 737.36515,54.13112 736.95748,51.799022 736.5,44.5 L 735.84375,34.5 739.8125,28.5625 C 743.42651,23.145393 744.2013,20 741.90625,20 741.42248,20 740.36673,21.575215 739.5625,23.5 738.75827,25.424784 736.8974,28.6075 735.40625,30.5625 732.41055,34.490062 732.13916,37.619538 734.09375,47 735.39565,53.248048 734.69545,68.75226 732.625,79.59375 731.13733,87.383672 727.66386,96 726,96 724.33643,96 722.12188,89.886822 721.0625,82.40625 720.06098,75.334222 721.79861,51.025613 724.125,39.625 725.038,35.150767 725.04208,33.293432 724.15625,31.875 723.51661,30.850765 723,29.40347 723,28.65625 723,27.909031 722.1,26.495486 721,25.5 719.9,24.504514 719,23.118413 719,22.4375 719,21.756587 718.325,20.941582 717.5,20.625 715.19841,19.741795 715.64764,22.865315 718.34375,26.40625 722.02855,31.245664 722.20135,32.909401 720.4375,48.6875 719.52609,56.84032 718.74112,68.9 718.71875,75.5 718.68447,85.613625 719.04373,88.417998 720.9375,93.3125 722.95394,98.52404 723.44106,99.088374 725.78125,98.8125 730.19929,98.291681 734.2331,88.522163 735.65625,74.90625 736.17397,69.95294 736.64767,68.140871 738.03125,67.75 z M 738.03125,18 C 736.92772,18 732,23.110055 732,24.25 732,26.105544 728.86427,24.732904 726.84375,22 725.62385,20.35 724.03407,19 723.3125,19 721.40085,19 721.61815,19.538656 725.71875,25.03125 727.76116,27.766964 729.74361,30 730.125,30 731.16797,30 739,20.403952 739,19.125 739,18.513829 738.55899,18 738.03125,18 z"/>
</svg>
