<svg xmlns="http://www.w3.org/2000/svg"
     width="51.4" height="64.0"
     viewBox="1888.8750 14.9548 74.4688 92.6560">
  <path d="M 1893.5,45.84375 1893.375,49.4375 C 1893.7397,49.311048 1894.269,49.001119 1894.5,49 1895.6018,48.994662 1898.73,50.575 1901.4375,52.5 1906.3964,56.025615 1909.3599,56.844687 1910.5,55 1911.0887,54.047405 1915,53.52977 1915,54.40625 1915,54.636266 1915.2558,55.482087 1915.5625,56.28125 1916.1914,57.920215 1908.4233,63 1905.2812,63 1904.2494,63 1901.2117,61.617543 1898.5625,59.9375 L 1893.75,56.90625 1893.0625,57.5 1892.875,62.40625 C 1893.1293,62.298497 1893.5458,62 1893.6875,62 1894.4244,62 1896.8762,63.174125 1899.125,64.59375 1903.6435,67.446119 1906.5548,67.261984 1910.7812,63.9375 1915.4702,60.249202 1915.9685,64.429733 1911.9062,73.375 1910.8781,75.638798 1909.9893,78.625 1909.9375,80 1909.8787,81.559196 1908.543,83.603355 1906.375,85.40625 L 1902.9062,88.28125 1900.0312,85.53125 C 1895.383,81.07797 1894.4275,83.094251 1898.8438,88.03125 L 1902.8438,92.5 1906.3125,88.75 C 1910.3526,84.38064 1911.642,84.120186 1913.125,87.375 1913.9853,89.26336 1913.7693,90.689045 1912.125,94.40625 1910.3415,98.438161 1910.2932,99.157204 1911.5938,99.65625 1912.4226,99.974293 1913.1824,100.08044 1913.3125,99.875 1914.6023,97.838011 1917.0004,91.568673 1917,90.21875 1916.9997,89.27491 1916.0887,86.103127 1914.9688,83.15625 1912.9567,77.862718 1912.9371,77.748488 1914.8125,73.65625 1918.2047,66.253963 1919.1837,61.158752 1918.5,54.15625 1917.6515,45.465672 1917.2424,44.203282 1915.125,43.53125 1912.378,42.6594 1908.9064,35.526936 1908.2812,29.46875 1907.97,26.453661 1908.05,24 1908.4375,24 1909.7144,24 1914.4557,30.292672 1917,35.34375 1920.5036,42.299162 1922.1267,43.093791 1925.4062,39.4375 1926.8509,37.826899 1929.1745,34.634154 1930.5625,32.34375 1932.7456,28.741424 1936.773,25 1938.4688,25 1939.5783,25 1938.9531,31.909617 1937.5312,35.3125 1936.717,37.260992 1934.65,40.931297 1932.9375,43.46875 1931.206,46.034327 1930.0815,48.747507 1930.4062,49.59375 1930.7275,50.430716 1930.3195,52.726075 1929.5,54.6875 1927.5744,59.296049 1927.5883,65.103758 1929.5625,69.78125 1932.0106,75.581324 1931.866,83.35699 1929.2188,86.9375 1928.006,88.577858 1927,90.61055 1927,91.46875 1927,93.896514 1931.8393,101 1933.5,101 1935.5283,101 1935.4014,100.39769 1932.5,96.59375 1929.4505,92.595703 1929.4331,91.274283 1932.3438,87.71875 1934.4172,85.185953 1934.8642,85.045632 1937.7812,86.0625 1940.7133,87.084606 1941.3809,86.897058 1946.0938,83.4375 1951.6292,79.374129 1956.0186,78.694335 1958.5625,81.15625 L 1959.3438,78 1959.3438,76.34375 C 1958.622,76.673531 1957.4247,76.719878 1955.25,76.65625 1951.3357,76.541725 1949.7153,77.085001 1946.0938,79.75 1938.5737,85.283733 1934.7092,83.56541 1933.6562,74.15625 1933.0939,69.130617 1933.1908,68.814859 1935.0938,69.3125 1938.8535,70.295663 1950,63.313427 1950,59.96875 1950,58.2864 1947.955,58.926257 1945.6875,61.34375 1941.1205,66.212691 1934.6991,67.515218 1931.6875,64.1875 1929.4347,61.698171 1931.2017,54.46624 1933.8125,55.5 1939.0239,57.563444 1941.4696,57.07186 1945.875,53.03125 1949.3681,49.827304 1949.8927,48.904735 1948.5938,48.40625 1947.5521,48.006529 1945.8542,48.87885 1943.8125,50.875 1940.3952,54.216036 1938.9888,54.587244 1935.9062,52.9375 1934.2739,52.063896 1934.0354,51.250874 1934.5938,48.1875 1934.9642,46.154707 1936.0019,43.375 1936.9062,42 1943.2186,32.403062 1943.7758,22 1937.9688,22 1936.015,22 1932.8821,25.23656 1928.0625,32.1875 1924.0552,37.96694 1922.3298,39.039983 1921.3438,36.34375 1920.2782,33.429749 1914.4544,24.764419 1911.5,21.6875 1908.924,19.00469 1908.7173,18.95477 1906.9062,20.59375 1902.7962,24.313307 1905.3387,37.510195 1911.5625,44.78125 1913.4576,46.995304 1915,49.19076 1915,49.65625 1915,50.12174 1913.3124,51.04199 1911.25,51.6875 1908.2834,52.616032 1907.187,52.583216 1906,51.5625 1905.1749,50.852903 1902.369,49.051557 1899.7812,47.5625 L 1895.0938,44.875 1893.5,45.84375 z M 1921.1562,95.6875 1918.0625,98.78125 C 1916.3707,100.47312 1915,102.12019 1915,102.4375 1915,103.61081 1917.7956,102.95126 1919,101.5 1919.6847,100.675 1921.0347,100 1922,100 1922.9653,100 1924.3153,100.675 1925,101.5 1925.6847,102.325 1926.8895,103 1927.6875,103 1930.2747,103 1928.5829,99.930148 1924.8125,97.78125 L 1921.1562,95.6875 z"/>
</svg>
