<svg xmlns="http://www.w3.org/2000/svg"
     width="26.0" height="64.0"
     viewBox="-1.2671 11.0039 39.4775 97.0490">
  <path d="M 6.6541694,101.29813 C 3.5005826,95.199766 2.7329469,86.591918 3.2624308,63.265022 3.6932143,44.286462 4.1413436,39.097951 5.9566802,32.070584 9.6103191,17.926945 12.094816,15.003907 16.618151,19.527242 21.94549,24.854581 26.141328,39.558553 22.904932,41.558755 22.302645,41.930989 20.497949,41.265603 18.894497,40.080119 L 15.979129,37.924695 15.132685,40.212347 C 13.30067,45.163661 12.401238,57.183091 12.784686,71.589485 12.987058,79.192745 13.153093,79.748724 15.547053,80.839485 21.586783,83.59137 24.442497,81.703776 28.541959,72.25 29.795979,69.358102 31.000622,68 32.311727,68 34.105071,68 34.210406,68.643675 33.832197,77.291128 33.471232,85.544288 33.082225,87.136243 30.350095,91.541128 L 27.274355,96.5 21.232021,96.269013 15.189686,96.038026 14.312795,99.769013 C 13.602551,102.79095 12.930242,103.55909 10.775128,103.81091 8.7043952,104.05287 7.7905462,103.49564 6.6541694,101.29813 z M 11.252555,98.75 C 11.483127,98.0625 11.338207,96.016173 10.93051,94.202606 9.7267323,88.847812 9.971317,56.326264 11.296788,45.5 L 12.521098,35.5 16.760549,35.689328 C 19.480625,35.810803 20.996499,35.452413 20.990231,34.689328 20.972183,32.492042 16.304108,23.518347 14.211448,21.658102 12.15031,19.825879 12.129014,19.852142 10.156889,26.658102 8.4310845,32.613991 6.2246187,46.464228 6.0400449,52.5 5.7556663,61.799501 6.0839643,85.103508 6.5331116,87.5 8.6916356,99.017124 10.065012,102.29092 11.252555,98.75 z M 27.820522,90.105548 C 30.297374,85.698585 31.888316,77 30.217483,77 29.637583,77 28.204074,78.551767 27.031909,80.448371 24.583516,84.409954 22.193805,85.446541 17.527456,84.571129 14.623735,84.026387 14.155335,84.244959 13.615287,86.396684 12.372959,91.34651 15.13786,93.813462 22.065859,93.936614 25.195649,93.992248 25.899387,93.523747 27.820522,90.105548 z"/>
</svg>
