<svg xmlns="http://www.w3.org/2000/svg"
     width="28.1" height="64.0"
     viewBox="1565.8284 13.5000 42.6716 97.2548">
  <path d="M 1576.5,17.5 C 1572.6575,17.5 1569.8284,31.590941 1572.0312,39.71875 1573.5973,45.497224 1576.3242,51.198959 1578.3438,52.875 1580.1594,54.381858 1579.4648,57.171653 1574.9688,66.6875 1571.3608,74.323503 1571.4126,76.455629 1575.3438,87.65625 1576.723,91.585643 1578.175,96.985643 1578.5625,99.65625 1578.95,102.32686 1579.4633,104.87096 1579.7188,105.3125 1580.5528,106.75478 1582.4523,105.39164 1584.5,101.90625 1586.9194,97.788416 1587.2635,85.818557 1585.1562,79.46875 1583.8973,75.675475 1583.9879,75.054359 1586.6562,69.5 1588.2181,66.248734 1589.9706,63.461039 1590.5625,63.28125 1591.1544,63.10146 1593.1954,65.201483 1595.0625,67.9375 1595.4769,68.544755 1595.973,69.06535 1596.4375,69.65625 L 1598.1875,66.875 C 1597.1038,65.392232 1596.0728,63.835366 1595.375,62.5 1593.7982,59.482158 1591.956,57.001307 1591.2812,57 1590.6066,56.998693 1589.2085,58.6875 1588.1875,60.75 1587.1665,62.8125 1585.0835,66.697171 1583.5625,69.375 L 1580.8125,74.25 1582.4062,79.9375 C 1584.1649,86.205364 1584.4869,95.666839 1583.0312,97.96875 1581.7856,99.938365 1581.5389,99.488644 1580.0625,92.5 1579.3654,89.2 1577.9524,84.532415 1576.9062,82.125 1575.8601,79.717585 1575,76.940077 1575,75.9375 1575,74.934924 1576.8,69.947353 1579,64.875 1581.2,59.802646 1583,55.243558 1583,54.75 1583,54.256441 1581.6137,51.873798 1579.9375,49.4375 1576.1399,43.917783 1574.2096,37.647058 1574.7812,32.75 1575.2023,29.143178 1577,26.355215 1577,29.3125 1577,31.376709 1581.5502,41.059532 1583.9062,44 1585.442,45.91658 1586.3044,46.266632 1587.5312,45.5 1589.0029,44.580271 1592.9099,34.488055 1594.4688,27.59375 L 1595.125,24.71875 1596.7812,27.09375 C 1598.6177,29.709724 1599.0132,40.124808 1597.5625,47.59375 1596.6689,52.194013 1598.3219,56.141382 1602.5625,60.09375 L 1604.5,57.09375 C 1600.0491,51.765416 1599.2151,48.321927 1601.0312,43.9375 1603.9855,36.80544 1599.1931,18.5 1594.375,18.5 1592.7618,18.5 1592.3116,19.865974 1591.1875,28.5 1590.2649,35.585737 1589.3706,39.049735 1588.0625,40.375 1586.2603,42.200793 1586.1557,42.181558 1584.5625,39.75 1582.0503,35.915856 1578.8929,26.143277 1578.6875,21.59375 1578.5358,18.235995 1578.1387,17.5 1576.5,17.5 z"/>
</svg>
