<svg xmlns="http://www.w3.org/2000/svg"
     width="43.6" height="64.0"
     viewBox="823.3438 11.2738 64.9548 95.3049">
  <path d="M 827.5,63.71875 C 828.24914,63.581692 829.93499,63.964456 831.96875,64.875 836.88096,67.074262 838.26798,66.810735 841.90625,62.875 844.34457,60.237329 844.68677,60.154384 847.625,61.4375 850.5439,62.712175 850.79647,63.279727 851.875,70.53125 852.50757,74.784358 853.28315,79.262495 853.59375,80.5 854.00093,82.122367 853.25105,83.798168 850.90625,86.46875 848.3125,89.422869 847.54596,91.271273 847.1875,95.59375 846.63011,102.31518 847.8157,102.57872 853.5,97 L 857.59375,92.96875 860.5,96 C 863.9237,99.573579 866.76048,99.847289 867.90625,96.75 868.81796,94.28541 868.15904,91.420241 865.46875,85.84375 863.73798,82.256174 863.75413,82.038374 866,76.34375 868.66646,69.582662 870.54331,67.137063 871.96875,68.5625 874.04779,70.641549 877,82.484088 877,88.71875 877,93.431693 877.33707,95.047378 878.25,94.75 881.59569,93.660175 884.25341,80.239617 883.53125,68.0625 883.09708,60.741452 880.64372,50.514841 878.78125,48.25 877.35045,46.510083 873.49614,46.684456 871.9375,48.5625 870.72275,50.026178 865.78904,53 864.5625,53 864.26019,53 864,48.518571 864,43.03125 864,33.771876 864.16183,32.941874 866.25,31.625 871.34793,28.410067 872.76249,28.61162 874.9375,32.875 877.62263,38.138295 878.92235,38.821256 881.15625,36.0625 884.29859,32.18188 883.33431,22.712139 879.34375,18.40625 876.44072,15.273829 874.92249,15.514618 864.25,20.71875 L 856.90625,24.28125 854.21875,21.75 C 850.52635,18.294148 847.58656,17.538445 845.59375,19.53125 842.50214,22.622867 842.16996,24.372808 843.40625,30.5 L 844.59375,36.5 849.5625,36.5 854.5,36.5 854.8125,43.40625 C 854.97702,47.201729 854.67008,50.736175 854.15625,51.25 853.57728,51.82897 851.99715,51.532766 850,50.5 846.18314,48.526227 843.26266,49.070973 839.1875,52.5 835.59894,55.519573 834.6523,55.566265 830.5,53 829.33455,52.279715 828.6686,51.689776 828.15625,50.90625 L 828,51.34375 827.75,55.4375 C 828.38312,55.30726 829.45286,55.695986 831.1875,56.71875 L 834.5,58.65625 839.84375,55.125 845.1875,51.59375 849.34375,53.8125 C 854.5638,56.577265 855.62226,56.558845 856.375,53.75 857.41623,49.864691 857.07138,33.169524 855.9375,32.46875 855.35431,32.108315 853.50306,32.3935 851.8125,33.09375 849.07819,34.226338 848.56621,34.151584 847.3125,32.4375 842.2453,25.509573 846.94547,18.69415 852.875,24.375 855.34632,26.742681 855.87898,26.881097 859.53125,25.875 861.71305,25.273976 864.625,23.984709 866,23.03125 869.34506,20.7117 874.71461,18.963865 876.4375,19.625 878.46589,20.403364 881.17678,26.648906 880.8125,29.71875 880.34292,33.67587 878.27651,33.589917 876.59375,29.5625 875.59368,27.169006 874.45675,26 873.125,26 870.14352,26 865.77822,27.881676 863.25,30.25 861.17758,32.191355 861,33.212974 861,43.46875 861,56.225523 862.06226,59.217061 865.8125,56.875 867.00962,56.127386 868,55.187771 868,54.78125 868,54.374729 869.83399,53.105651 872.0625,51.96875 L 876.09375,49.90625 877.96875,52.21875 C 880.71284,55.596483 881.99831,67.346317 881.15625,81.25 880.9686,84.34839 879,85.091856 879,82.0625 879,80.988379 878.56247,79.075879 878.03125,77.8125 877.50003,76.549121 876.59332,73.7 876.03125,71.5 875.46918,69.3 873.92691,66.15 872.59375,64.5 L 870.1875,61.5 867.25,68 C 860.16285,83.78645 860.49761,82.338962 862.875,87.25 866.53192,94.804188 865.43834,97.357367 860.90625,91.84375 L 858.3125,88.6875 854.15625,92.84375 C 851.87274,95.12726 849.71875,97 849.375,97 847.71039,97 850.40735,90.181883 853.21875,87.28125 L 856.40625,84 854.59375,73.25 C 852.63871,61.666468 852.18526,60.653472 847.71875,58.34375 844.84438,56.857354 844.68196,56.906139 840.9375,60.5625 L 837.09375,64.3125 832.5625,62.5625 C 829.4846,61.387039 828.0922,60.230863 827.5625,58.625 L 827.34375,62 827.5,63.71875 z"/>
</svg>
