<svg xmlns="http://www.w3.org/2000/svg"
     width="40.8" height="64.0"
     viewBox="888.8230 10.3970 59.0000 92.6030">
  <path d="M 903.97162,92.75 C 900.76757,84.095306 900.90045,80.095953 904.54476,75.500005 906.17014,73.450185 907.91498,71.200995 908.42217,70.501806 909.6466,68.81387 905.83984,59.5 903.92551,59.5 903.14148,59.5 901.375,61.850889 900,64.724197 897.21096,70.552402 894.83928,71.245908 893.96881,66.487789 892.82301,60.224616 896.87753,48.047826 900.94604,45.533346 902.39496,44.637868 908.66515,46.522292 910.56794,48.425083 912.98441,50.841552 914,49.425876 914,43.640983 914,37.961432 912.82195,36 909.41078,36 908.20672,36 906.15922,35.139759 904.86078,34.088353 902.89918,32.499943 902.5,31.249535 902.5,26.693341 902.5,17.018436 907.92942,14.397046 915.23533,20.544567 918.76478,23.514397 921.48132,23.274969 929.37084,19.298709 935.30732,16.306764 938.09941,16.806744 940.9174,21.366356 943.82297,26.067668 943.67799,32.104573 940.5733,35.694236 938.27895,38.346982 938.11136,38.390926 937.5003,36.5 935.81251,31.277117 933.897,28 932.53196,28 931.70673,28 929.63052,29.251827 927.91814,30.781838 925.17657,33.231423 924.75042,34.336211 924.35012,40.031838 923.76143,48.407901 924.40031,49.328678 929.53242,47.500856 935.85772,45.248075 938.73368,45.579986 940.35607,48.75 943.60457,55.097287 943.11743,65.6977 939.29511,71.836764 937.52004,74.687724 936.81111,74.130255 936.45173,69.600861 936.0896,65.03689 933.89777,60.603993 931.80387,60.200745 930.87937,60.022704 929.14842,60.851576 927.95732,62.042683 925.31653,64.683475 925.75899,68.082456 929.45196,73.524347 932.72299,78.344477 932.65876,80.427916 929.00079,88.160212 927.35122,91.647095 926.00122,95.0625 926.00079,95.75 926.00036,96.4375 925.11583,97 924.03518,97 921.01526,97 919.70754,93.496329 920.46492,87.434456 921.50105,79.141537 918.54856,75.526388 914.44386,80.06203 913.08214,81.566714 912.56724,83.707291 912.53888,87.981596 912.50708,92.772587 912.05858,94.308981 910.07569,96.419567 908.74231,97.838805 907.34403,99 906.9684,99 906.59276,99 905.24421,96.1875 903.97162,92.75 z M 910.19327,87.004856 C 910.56907,81.809389 911.09582,80.496349 914.01078,77.488877 915.87064,75.569994 917.66943,74 918.00811,74 918.34678,74 919.68034,75.428936 920.97157,77.175412 922.82553,79.683027 923.30771,81.575751 923.26439,86.175412 923.23421,89.378936 923.54487,92 923.95474,92 924.36461,92 925.95664,89.043145 927.49259,85.429211 L 930.28521,78.858423 927.04631,74.26336 C 925.26491,71.736075 923.62811,68.679536 923.40897,67.471051 922.95038,64.942056 929.25363,56 931.49492,56 932.26673,56 934.09953,57.575 935.5678,59.5 937.03607,61.425 938.68805,63 939.23888,63 940.76629,63 939.61739,51.177213 937.934,49.57214 935.6327,47.377902 930.27282,48.818218 926.57657,52.624127 924.77333,54.480857 922.95397,56 922.53354,56 922.11311,56 921.95824,50.821424 922.18938,44.492053 L 922.60963,32.984105 926.50776,28.992053 C 928.65173,26.796424 931.24415,25 932.26869,25 935.27548,25 938,26.918225 938,29.035184 938,31.41551 939.5448,31.628621 940.41229,29.36797 941.33224,26.970613 937.86585,20.552385 935.4655,20.208688 934.34652,20.048467 929.93409,21.510967 925.66009,23.458688 916.99573,27.407166 916,27.625059 916,25.57258 916,23.317339 910.90086,19.870895 908.05466,20.202427 905.91809,20.451299 905.34876,21.220404 904.57588,24.901856 903.71528,29.001181 903.83939,29.465095 906.38165,31.651856 908.10375,33.133145 910.38302,34 912.55576,34 L 916,34 916.15844,41.75 C 916.46603,56.795238 916.09837,57.494384 910.67691,52.173622 905.84126,47.427796 903.30179,46.98541 900.15043,50.339872 896.80986,53.895752 894.47952,64 897,64 897.55,64 898,63.425288 898,62.722861 898,62.020435 899.3642,59.952118 901.03155,58.126601 903.6443,55.266002 904.28483,54.991503 905.66818,56.139576 907.36993,57.551903 910.22656,63.639277 911.37297,68.29626 911.92976,70.558051 911.51787,71.635976 909.21805,73.935792 907.65426,75.499591 905.58625,77.982518 904.62248,79.453409 902.91889,82.053424 902.94586,82.291677 905.59291,88.025358 907.09041,91.269039 908.64001,93.722485 909.03647,93.477459 909.43293,93.232434 909.95349,90.319763 910.19327,87.004856 z"/>
</svg>
