<svg xmlns="http://www.w3.org/2000/svg"
     width="30.5" height="64.0"
     viewBox="930.9989 48.0788 27.1342 56.8510">
  <path d="M 945.03129,95.94153 C 946.87657,92.493595 946.73897,85.933032 944.79494,84.672504 943.43272,83.789228 942.56765,84.057542 940.49262,86.006932 937.63791,88.688799 937.72407,91.361848 940.80183,95.599183 942.90605,98.496179 943.63261,98.554989 945.03129,95.94153 z M 941.22466,82.840031 C 943.76588,81.030523 944.57742,80.879512 946.2264,81.909319 947.309,82.58541 948.41702,82.916308 948.68868,82.644648 949.69154,81.641798 947.84969,78.131536 945.51954,76.604763 943.25713,75.122371 942.93878,75.180632 940.05854,77.604197 938.20443,79.164328 937,81.127261 937,82.588894 937,85.544325 937.39394,85.567743 941.22466,82.840031 z M 940.10733,98.409324 C 936.10322,93.318914 934.99891,86.847355 935.01531,68.568499 935.02395,58.946158 935.3976,52.078845 935.87183,52.82686 936.3345,53.556634 936.74948,58.891009 936.79402,64.681029 936.83856,70.471048 937.08431,75.41764 937.34012,75.673456 938.04188,76.375214 941.88539,73.741049 942.50119,72.136296 942.79809,71.362596 943.32416,66.740415 943.67025,61.864784 944.01633,56.989153 944.74974,53 945.30006,53 945.94346,53 946.07022,56.515951 945.65517,62.849402 945.06115,71.913778 945.1706,72.844418 947.02848,74.525773 950.33814,77.520971 951.30931,75.197212 951.40968,64.042714 951.46555,57.833029 951.88138,54.132364 952.5,54.339309 954.13312,54.885631 953.49968,72.806167 951.57529,80.5 948.44817,93.00243 945.60361,99.965463 943.31102,100.72966 942.71034,100.92989 941.26868,99.885736 940.10733,98.409324 z"/>
</svg>
