<svg xmlns="http://www.w3.org/2000/svg"
     width="24.5" height="64.0"
     viewBox="1281.4480 16.9555 35.8794 93.8569">
  <path d="M 1300.5101,105.01631 C 1300.1646,104.45734 1298.3153,104 1296.4005,104 1293.0848,104 1287,100.6295 1287,98.792889 1287,98.335843 1288.125,98.244253 1289.5,98.589356 1291.6726,99.13464 1292,98.885913 1292,96.690195 1292,95.300554 1292.2525,93.505488 1292.5612,92.701159 1292.9226,91.759312 1291.8525,90.453919 1289.555,89.033962 1285.9468,86.804004 1285.448,84.099008 1288.9949,85.997296 1292.0921,87.654855 1292.7096,87.192716 1293.3337,82.75 1293.8803,78.858571 1293.6594,78.27172 1290.7153,75.794283 L 1287.5,73.088566 1290.5,73.294283 C 1293.1923,73.4789 1293.5316,73.173461 1293.8084,70.31644 1294.0396,67.929999 1293.6014,66.857049 1292.0584,66.031256 1289.4844,64.653686 1289.3889,63 1291.8834,63 1293.806,63 1294.9608,60.478735 1294.9863,56.225249 1294.9955,54.697732 1294.159,53.630753 1292.4398,52.977122 1289.5952,51.895583 1290.0167,50 1293.1019,50 1295.0073,50 1295.0647,49.476167 1294.5538,36.75 1294.2613,29.4625 1294.4118,22.887687 1294.8884,22.139305 1295.5373,21.120229 1297.0409,20.955491 1300.8774,21.483142 1303.6948,21.870636 1306,22.631204 1306,23.173293 1306,23.755281 1307.3309,23.88605 1309.25,23.492616 L 1312.5,22.826322 1310,24.559465 C 1306.0482,27.299112 1305.356,28.609 1305.8091,32.49023 1306.1468,35.382755 1306.5667,35.986543 1307.8667,35.448765 1312.7584,33.425149 1313.3274,33.958618 1309.685,37.153613 1306.6633,39.80409 1305.7459,41.429715 1305.2737,44.970677 L 1304.6775,49.441354 1307.3997,47.65767 C 1311.6989,44.840706 1312.7654,46.314443 1308.6817,49.429241 1304.9051,52.309776 1303.9288,55.757212 1305.9737,58.991641 1306.7247,60.179598 1307.1695,60.230495 1308.1584,59.241641 1308.8413,58.558738 1310.0975,58.006695 1310.95,58.014877 1311.8906,58.023904 1310.9935,59.304469 1308.6685,61.271842 1305.3681,64.064554 1304.883,64.99809 1305.1685,68.006965 1305.509,71.594533 1306.3209,71.978478 1310.5,70.52802 1311.6634,70.124234 1310.9314,71.1641 1308.75,73.013928 1306.0081,75.339074 1305,76.974422 1305,79.096995 1305,82.464866 1305.2319,82.549366 1308.5352,80.38499 1312.1951,77.986908 1311.5188,80.17267 1307.5,83.730667 1305.1331,85.826174 1304,87.7014 1304,89.523074 1304,91.897055 1304.2968,92.142333 1306.5,91.589356 1309.7334,90.777819 1309.7004,92.322959 1306.4335,94.702731 1304.6229,96.021711 1303.6996,97.820401 1303.2986,100.81052 1302.7151,105.16087 1301.6201,106.81238 1300.5101,105.01631 z M 1301.1363,99.25 C 1301.8378,97.474967 1302.2722,83.736802 1302.3615,60.5 L 1302.5,24.5 1299.2844,24.189205 1296.0687,23.878409 1296.6433,38.189205 C 1296.9593,46.060142 1297.1748,52.95 1297.1222,53.5 1296.6691,58.235499 1295.0994,89.948382 1295.0557,95.25 1295.0015,101.81568 1295.0689,102 1297.5248,102 1299.3489,102 1300.3511,101.23689 1301.1363,99.25 z"/>
</svg>
