<svg xmlns="http://www.w3.org/2000/svg"
     width="26.6" height="64.0"
     viewBox="967.8995 20.0000 34.1005 82.0359">
  <path d="M 973.83369,95.809932 C 971.89954,92.375398 972.20122,63.245045 974.3088,49.93304 977.02378,32.784492 980.7505,24 985.3106,24 990.24283,24 998,33.48704 998,39.519179 998,42.893313 996.34579,41.850859 995.48565,37.934681 995.11813,36.261369 993.09629,33.082995 990.99266,30.871626 987.99912,27.724764 986.55967,26.921483 984.3693,27.175477 981.90062,27.461743 981.354,28.207324 979.73252,33.5 973.97006,52.309184 972.21784,94.861868 977.16719,95.79906 979.75023,96.288174 981.19436,87.548561 983,60.5 984.36507,40.051175 984.9397,36 986.47515,36 989.09529,36 995.8755,47.340875 993.96229,48.523306 992.43529,49.467047 991.20648,48.216586 990.5,45 989.78464,41.742996 988.27899,40.286148 987.02449,41.637132 986.26236,42.457865 984.36994,62.184855 983.38417,79.584532 983.13226,84.031024 982.38026,89.881024 981.71307,92.584532 980.67144,96.805329 980.12087,97.543801 977.81726,97.809932 975.86169,98.035855 974.78192,97.493741 973.83369,95.809932 z"/>
</svg>
