<svg xmlns="http://www.w3.org/2000/svg"
     width="21.9" height="64.0"
     viewBox="2536.9926 16.4460 31.6012 92.3352">
  <path d="M 2562.0625,90.0625 C 2561.6233,89.894184 2561.234,89.788729 2560.4688,89.21875 2556.9776,86.618436 2556.1287,82.088946 2555.5625,63 2555.0425,45.465532 2553.1734,28.960648 2551.0938,23.65625 2549.9629,20.772199 2547.88,20.446018 2547.4062,23.0625 2544.2443,40.53017 2542.9464,49.874414 2542.125,61 2540.9926,76.338519 2541.5383,99.249811 2543.0938,102.15625 2544.4015,104.59998 2547.6431,103.82757 2550.5312,100.40625 2551.6519,99.078648 2553.0019,97.99159 2553.5312,98 2554.0606,98.00841 2556.7313,99.545891 2559.4688,101.40625 L 2564.4688,104.78125 2564.5938,104.6875 2563.875,100.5 C 2562.344,100.16738 2560.0976,98.918173 2555.6875,96.21875 2552.6155,94.338348 2552.9937,94.135212 2548.4375,100.46875 2545.7937,104.14393 2544.6933,100.77879 2544.2188,87.46875 2543.651,71.544685 2545.5861,44.501342 2547.9062,36.03125 L 2549.6875,29.53125 2550.8125,34.53125 C 2552.415,41.723038 2553.1439,53.233894 2553.2188,71.75 2553.2636,82.872879 2553.6516,88.019424 2554.4062,88.03125 2555.0126,88.040752 2556.5484,89.165752 2557.8438,90.53125 2559.5262,92.305048 2561.0126,93.020686 2562.5312,92.8125 L 2562.0625,90.0625 z"/>
</svg>
