<svg xmlns="http://www.w3.org/2000/svg"
     width="30.4" height="64.0"
     viewBox="2645.4071 16.0000 44.0411 92.7398">
  <path d="M 2656.875,54.375 2659.6875,59.0625 2660.6562,60.65625 2660.6562,65.34375 2659.6562,66.4375 C 2659.8359,66.763612 2660,67.777334 2660,69.40625 2660,71.630514 2658.8088,74.584419 2656.5312,77.96875 2650.1761,87.412411 2649.4071,97.797211 2654.75,102 2658.2332,104.73982 2659.3547,103.42584 2660.8438,94.90625 2662.1784,87.269316 2664.2409,82.62951 2667.2812,80.5 2670.2468,78.422845 2670.5376,78.535065 2672.9688,82.46875 2676.0899,87.518958 2677.1857,91.763095 2677.0312,98.34375 2676.9112,103.46388 2677.1029,104.13689 2678.6875,103.84375 2682.0831,103.21557 2684.4577,96.303711 2684.3125,87.5 2684.1952,80.392404 2683.8005,78.740449 2680.5938,72.59375 2676.5011,64.748878 2676.5165,61.287879 2680.6562,55.1875 2684.1096,50.098618 2685.4482,44.527314 2685.4062,35.40625 2685.3651,26.460443 2683.0095,20.5 2679.5312,20.5 2677.9966,20.5 2677.6512,21.362909 2677.5,25.5 2677.2992,30.992367 2673.7062,43.348854 2671.4062,46.46875 2670.2944,47.976932 2669.5531,48.220056 2668.3125,47.4375 2665.3995,45.600044 2663.8463,38.223456 2664.375,28.75 2664.6437,23.9375 2664.4742,20 2664,20 2662.1735,20 2656.8719,27.734216 2655.4688,32.4375 2653.5772,38.777506 2653.6091,43.316848 2655.5938,50 L 2656.875,54.375 z M 2680.75,27.5 2681.9688,30.5 C 2684.6186,37.026075 2681.1006,53.766864 2676.6562,55.75 2673.5696,57.127287 2673.6309,67.443425 2676.75,71.75 2678.0448,73.537716 2679.7656,76.561631 2680.5625,78.46875 2682.2047,82.398992 2682.5208,93 2681,93 2680.45,93 2680.0004,92.4375 2680,91.75 2679.9987,89.677535 2674.4338,78.596031 2672.6562,77.125 2670.2457,75.130152 2666.1463,77.174205 2662.75,82.0625 2660.3152,85.566933 2659.4924,87.793465 2657.3125,96.75 2657.0113,97.9875 2656.4172,99 2656,99 2655.1487,99 2654,94.013681 2654,90.34375 2654,87.183019 2658.1608,79.097216 2661.2812,76.1875 2663.5005,74.11824 2663.742,73.063588 2663.8438,65.59375 2663.9399,58.540939 2663.6843,57.027325 2662.0312,55.53125 2660.0221,53.713081 2657.3068,45.780418 2656.9062,40.5 2656.5923,36.359953 2657.9601,30.283361 2659.4688,29.03125 2660.439,28.225971 2660.8664,29.308333 2661.3438,33.875 2661.9923,40.079698 2665.4066,50.512431 2667.1562,51.59375 2670.2042,53.477434 2674.9787,46.994129 2677.9062,37 2678.4702,35.075 2679.3431,32.15 2679.8438,30.5 L 2680.75,27.5 z"/>
</svg>
