<svg xmlns="http://www.w3.org/2000/svg"
     width="22.1" height="64.0"
     viewBox="1613.7618 12.2593 33.7773 97.7407">
  <path d="M 1622.5369,101.45739 C 1618.1713,90.026177 1617.7618,62.513827 1621.6314,40.616369 1624.3598,25.176758 1625.8683,20.676031 1628.8496,19.080491 1634.121,16.259311 1638.1198,19.498034 1641.0705,28.978538 1643.3532,36.312945 1643.5391,41.307708 1641.5896,42.925656 1640.469,43.855619 1639.4656,43.469726 1636.7076,41.0481 1634.7982,39.371645 1632.9903,38 1632.6899,38 1631.5344,38 1630.8424,49.442816 1630.5432,73.5 1630.3721,87.25 1630.18,99.26997 1630.1161,100.21104 1630.0036,101.86916 1626.3153,106 1624.9473,106 1624.5757,106 1623.491,103.95583 1622.5369,101.45739 z M 1627.4202,97.75 C 1627.7705,96.030041 1629.2274,48.042367 1629.1735,40 1629.1535,37.016302 1631.2788,33.000275 1632.8713,33.012379 1633.7671,33.019187 1635.625,34.706687 1637,36.762379 L 1639.5,40.5 1639.8005,37.422473 C 1640.2389,32.932452 1636.4601,23.584174 1633.5846,22.045259 1632.2679,21.340623 1630.67,21.085893 1630.0337,21.479191 1627.7449,22.893708 1624.9304,32.696848 1622.9935,46 1620.9059,60.338816 1621.9792,94.921317 1624.6458,99.235908 1625.5645,100.72242 1626.9678,99.970819 1627.4202,97.75 z"/>
</svg>
