<svg xmlns="http://www.w3.org/2000/svg"
     width="22.4" height="64.0"
     viewBox="1905.1504 15.2706 31.9637 91.3783">
  <path d="M 1928.2731,97.285313 C 1926.7874,95.010586 1926.5,92.280278 1926.5,80.438482 1926.5,70.95083 1926.8927,65.833386 1927.6948,64.867252 1928.5878,63.791552 1928.6513,60.912118 1927.9462,53.464083 1926.957,43.015829 1927.3699,33.787393 1929.0211,29.444606 1929.5595,28.028463 1930.0069,25.886596 1930.0153,24.6849 1930.0327,22.203559 1931.604,19.270646 1932.4583,20.124933 1932.7701,20.43679 1932.3447,24.248757 1931.5128,28.595973 1929.6012,38.586054 1929.5578,52.495299 1931.4219,57.778588 1932.7263,61.475579 1932.6762,62.147233 1930.8166,65.905887 1929.0474,69.481788 1928.8346,71.516568 1929.1447,81.896856 1929.4386,91.734283 1929.8195,94.143554 1931.348,95.83227 1933.1141,97.783602 1932.91,100 1930.964,100 1930.4592,100 1929.2482,98.778391 1928.2731,97.285313 z M 1920.0132,99.515936 C 1918.2968,97.447809 1916.7338,82.745069 1917.4443,75.350661 1917.7692,71.968525 1918.6645,67.109855 1919.4338,64.553617 1920.6345,60.56392 1920.6329,59.523236 1919.4225,57.202956 1917.1636,52.873117 1917.5471,36.244995 1920.105,27.607813 1922.4779,19.595254 1922.4922,19.568114 1923.8723,20.421082 1924.5096,20.81498 1924.1442,23.139538 1922.874,26.771217 1920.2907,34.15733 1919.9508,50.674661 1922.2695,56.151077 1923.6697,59.458391 1923.6657,60.070391 1922.2269,62.651077 1919.8756,66.868577 1919.969,93.496933 1922.348,97.127606 1924.6204,100.59582 1922.6134,102.64893 1920.0132,99.515936 z M 1913.397,101.19563 C 1909.7104,98.741742 1909.1504,77.841534 1912.4332,65.229492 1913.9119,59.548612 1913.9213,58.534484 1912.5327,54.444545 1909.6313,45.898775 1911.1415,22 1914.5829,22 1916.3416,22 1916.3445,21.934117 1914.3764,26.627876 1913.0722,29.738423 1912.8636,32.663503 1913.3161,41.5 1913.6258,47.55 1914.5308,54.274425 1915.3271,56.443166 1916.596,59.898962 1916.5916,60.887751 1915.2912,64.443166 1913.2152,70.119172 1912.4123,89.381642 1913.9794,95.914053 1915.2754,101.31627 1915.1593,102.36866 1913.397,101.19563 z"/>
</svg>
