<svg xmlns="http://www.w3.org/2000/svg"
     width="30.9" height="64.0"
     viewBox="1469.5460 17.4806 42.0970 87.0707">
  <path d="M 1493.1562,21.53125 C 1488.0519,21.480598 1482.4987,27.524582 1480.1562,36.25 1478.5663,42.172791 1480.5094,40.604989 1482.9062,34.03125 1485.2098,27.713596 1488.7866,24 1492.5312,24 1497.005,24 1505.8398,36.738018 1504.4375,41.15625 1503.5714,43.884903 1502.3579,43.457626 1497.9688,38.84375 L 1494,34.65625 1491.5,37 C 1490.1366,38.280837 1488.731,40.931712 1488.375,42.90625 1488.019,44.880788 1486.9024,49.83077 1485.875,53.90625 1484.4101,59.716823 1484,65.029955 1484,78.53125 1484,96.503707 1483.4571,98.876765 1479.625,97.40625 1477.4545,96.573341 1477.1987,94.993385 1476.625,77.90625 1476.1692,64.332121 1476.7796,55.787933 1478.9062,45.15625 1480.1537,38.919186 1478.2932,41.453039 1476.4062,48.5625 1473.546,59.339035 1474.0128,94.91911 1477.0625,98.59375 1478.6871,100.5513 1484.6366,100.41181 1485.4062,98.40625 1485.7401,97.536266 1486.0198,88.873766 1486.0312,79.15625 1486.0456,66.975233 1486.5188,59.481303 1487.5625,55 1488.3952,51.425 1489.3277,47.375 1489.625,46 1490.4662,42.110159 1492.2287,39 1493.5938,39 1495.4698,39 1498.854,43.594695 1500.0312,47.34375 L 1504.875,47.34375 C 1505.3047,45.397059 1505.9628,42.960444 1506.5625,41.53125 1507.643,38.956313 1507.5444,38.012248 1505.7812,34.53125 1502.8281,28.700474 1498.0776,22.988801 1495.3125,21.9375 1494.6116,21.671022 1493.8854,21.538486 1493.1562,21.53125 z"/>
</svg>
