<svg xmlns="http://www.w3.org/2000/svg"
     width="44.6" height="64.0"
     viewBox="734.5311 16.7386 61.5597 88.3878">
  <path d="M 776.50503,100.2635 C 775.4078,99.986024 772.62672,98.463225 770.32486,96.8795 768.02299,95.295775 765.49547,94 764.70814,94 763.92081,94 760.24292,95.375549 756.53506,97.056776 748.35246,100.76694 745.16676,100.39626 741.26433,95.279908 738.86719,92.137097 738.55057,90.839279 738.53974,84.111926 738.53108,78.726492 739.20799,74.517967 740.85399,69.723832 742.65867,64.467488 743.02976,61.851789 742.50848,58.061688 741.70056,52.187406 743.49296,39.430201 746.10837,32.439899 748.41474,26.275575 753.57874,20.738633 754.58233,23.353951 754.93511,24.273286 754.79513,25.582239 754.27127,26.262735 752.67907,28.33099 750.87827,41.167409 751.39038,46.798233 751.91643,52.582354 754.77684,58.5 757.04666,58.5 759.69327,58.5 763.33704,49.040571 765.10014,37.592724 766.66314,27.444069 767.09963,26 768.60421,26 770.79266,26 772.01563,30.369048 772.63888,40.41388 773.157,48.764245 772.94659,50.26927 770.04042,59 766.58459,69.38204 763.3219,73.619127 759.60326,72.554184 751.28369,70.171626 750.71013,70.613721 749.62908,80.242183 749.08146,85.119589 749.27557,86.275569 750.91797,87.917971 753.33154,90.331541 756.32081,89.706199 760.76834,85.857313 766.13147,81.21607 768.68085,81.108576 772.68689,85.354767 775.99599,88.86224 776.21234,88.937723 778.80861,87.490574 780.28888,86.665482 782.5125,85.262678 783.75,84.373231 785.28894,83.267123 786,83.138976 786,83.967735 786,85.381131 782.67375,88.398319 778.74496,90.548661 776.08555,92.00423 775.86743,91.934092 772.46162,88.528289 770.52106,86.58773 768.12933,85 767.14667,85 766.164,85 763.43234,86.65 761.07632,88.666667 755.89488,93.101789 751.66653,93.541356 748.75634,89.947417 747.15035,87.964106 746.93302,86.628231 747.4684,82.030751 748.18115,75.910182 749.75364,70.140047 751.2099,68.301657 751.93038,67.392115 753.2282,67.622698 756.59502,69.258429 761.01658,71.406588 761.03729,71.407151 763.01172,69.432723 767.34313,65.101311 771.9047,44.773496 770.32155,36.857753 769.37941,32.147051 768.37238,33.562577 766.68669,41.967094 764.95457,50.603043 761.23228,59.732409 758.52831,61.976508 756.19461,63.9133 754.0429,62.434612 751.25,56.974757 749.4064,53.370698 748.98527,50.853417 748.91843,43.03811 L 748.83685,33.5 747.17978,37 C 745.9576,39.581445 745.46843,43.780554 745.31588,53 745.18037,61.189992 744.55694,67.224003 743.50779,70.5 740.32511,80.438064 740.10578,81.565163 740.53328,85.785267 741.23124,92.675214 744.34385,97 748.60467,97 749.95867,97 753.18903,95.939376 755.78324,94.643057 763.98574,90.544304 765.43474,90.528553 771.81835,94.468742 778.33932,98.49371 782.53727,98.938425 786.27287,96 787.67129,94.9 789.37672,94 790.06272,94 792.09074,94 787.86494,98.121569 784.28212,99.638016 780.96437,101.04227 779.91751,101.12646 776.50503,100.2635 z M 782.0722,92.809017 C 782.17655,90.916989 789,85.419244 789,87.227194 789,88.010492 787.9875,89.562868 786.75,90.67692 783.45546,93.642807 781.98935,94.311044 782.0722,92.809017 z"/>
</svg>
