<svg xmlns="http://www.w3.org/2000/svg"
     width="26.5" height="64.0"
     viewBox="881.0904 15.1171 38.7849 93.7599">
  <path d="M 908.26419,97.826237 C 905.81829,94.133076 905.4609,92.549789 905.1604,84.076237 904.87564,76.046441 904.48415,74.136654 902.73609,72.25 901.58949,71.0125 900.30739,70 899.88696,70 899.46653,70 898.85769,72.1375 898.53398,74.75 896.16454,93.872361 894.33064,100.57512 891.69134,99.759319 891.0361,99.556787 889.63672,97.647049 888.58161,95.515457 885.09038,88.462324 885.56854,63.446432 889.55672,44.5 891.65589,34.527626 895.92142,23.11242 897.95541,22.023861 903.38666,19.117145 909.52086,21.238984 912.53456,27.066832 914.17958,30.247955 914.84921,39.816931 913.57148,41.884348 912.37305,43.823439 910.49123,43.101589 908.65907,40 906.58865,36.49506 903.5539,36.09652 901.93725,39.117255 901.31403,40.281745 900.62411,44.09566 900.40409,47.592621 900.01996,53.697802 900.11392,54.007552 902.76611,55.37905 905.32701,56.703343 913.37886,65.226611 915.36658,68.717249 915.8432,69.554241 915.87526,72.322765 915.43782,74.869526 915.00039,77.416287 914.56792,83.775 914.47678,89 914.232,103.03267 912.93378,104.87705 908.26419,97.826237 z M 894.20124,91.417871 C 895.25809,85.573379 897.7442,57.518256 897.91581,49.5 898.07107,42.244922 899.25887,37.757071 901.81968,34.75 903.83997,32.377651 905.21642,32.544465 908.46526,35.555384 909.98178,36.960846 911.44216,37.891168 911.71056,37.622769 912.81595,36.517387 910.64578,28.699722 908.56061,26.275563 905.62595,22.86382 900.47207,22.698797 897.85339,25.932726 894.68429,29.846404 890.86837,45.143964 889.10598,61 887.36068,76.7024 889.31605,96.727982 892.49125,95.669582 893.04209,95.48597 893.81158,93.5727 894.20124,91.417871 z M 913.08349,76.265987 C 914.44819,71.316718 914.08294,70.590197 905.91143,62 L 900.6795,56.5 899.91894,59.980308 C 899.06789,63.874749 899.14748,64.067794 903.90867,69.657415 907.18352,73.502076 907.30892,73.950504 907.10278,81.079592 906.95031,86.352519 907.39584,89.657608 908.64228,92.5 L 910.39635,96.5 911.15618,88.5 C 911.57409,84.1 912.44138,78.594694 913.08349,76.265987 z"/>
</svg>
