<svg xmlns="http://www.w3.org/2000/svg"
     width="39.0" height="64.0"
     viewBox="1847.2102 12.9318 55.0833 90.3967">
  <path d="M 1858.4688,46.8125 1860.6562,48.65625 1859.9375,51.21875 C 1860.3618,50.539653 1860.957,50 1861.5625,50 1863.7433,50 1863.3212,48.561581 1859.3438,42.34375 1856.2706,37.539469 1855.6327,35.520356 1855.2188,29.5625 1854.7309,22.539333 1854.752,22.50232 1856.75,24.28125 1858.4476,25.792688 1860.6905,29.904435 1868.25,45.34375 1868.9341,46.741004 1868.6575,47.551644 1867.125,48.625 1866.0065,49.408447 1864.7749,51.734558 1864.4062,53.78125 1864.0376,55.827942 1863.3142,58.046551 1862.7812,58.71875 1862.1872,59.467961 1859.635,60.847839 1856.9062,62.125 L 1856,65.34375 1855.3438,66.34375 C 1855.8295,66.814409 1855.6668,68.3765 1854.6562,71.1875 1853.7994,73.571052 1852.8387,80.753057 1852.5,87.25 1851.9698,97.419973 1852.1069,99 1853.4375,99 1854.2885,99 1855.2613,97.772491 1855.625,96.25 1855.9864,94.7375 1856.6015,93.05 1857,92.5 1857.3986,91.95 1858.5603,88.8 1859.5625,85.5 1862.3222,76.41285 1867.6622,68.762854 1868.125,73.25 1868.6453,78.293052 1868.9352,80.440867 1870.0938,87.75 1870.8613,92.592953 1871.8812,96 1872.5625,96 1873.7294,96 1875.1416,92.590243 1878.5312,81.5 1881.4486,71.954828 1881.6558,72.008182 1884.5,83 1886.3024,89.96529 1889.4236,97.540528 1890.875,98.4375 1892.3166,99.328453 1893.9461,96.616642 1894.8438,91.8125 1895.8908,86.20786 1894.8001,78.034324 1891.0938,63.75 L 1889.0938,56.03125 1891.5312,51.25 C 1892.8724,48.632552 1894.6623,42.301983 1895.5312,37.1875 1898.2935,20.930616 1896.4796,18.168457 1890.4688,29.5 1886.1819,37.581289 1883.3901,41.437479 1882.6562,40.25 1882.3737,39.792653 1881.3974,35.172162 1880.5,30 1879.6026,24.827838 1878.6462,20.251419 1878.375,19.8125 1876.839,17.327226 1874.8619,19.824756 1871.9375,28 1870.1668,32.95 1868.5794,37 1868.4062,37 1867.6366,37 1858.632,22.24497 1858.0312,20 1857.6291,18.496999 1856.528,17.375127 1855.25,17.1875 1853.5082,16.931779 1852.9993,17.536781 1852.4375,20.53125 1851.2102,27.073739 1852.7895,36.564433 1856.0312,42.0625 1857.374,44.339751 1858.1038,45.875701 1858.4688,46.8125 z M 1876.0938,26.53125 C 1876.4782,26.250987 1876.7077,26.62105 1877.0312,27.5 1878.1707,30.595252 1880,41.26073 1880,44.8125 1880,46.787332 1879.5239,47.947824 1878.75,47.84375 1878.0625,47.751293 1875.7693,47.500007 1873.6562,47.28125 1870.2833,46.932055 1869.8973,46.605076 1870.375,44.6875 1870.6742,43.486214 1871.2151,40.475 1871.5938,38 1871.9724,35.525 1873.177,31.7 1874.2812,29.5 1875.1636,27.7421 1875.7093,26.811513 1876.0938,26.53125 z M 1893.3438,31.0625 C 1893.6032,30.905846 1893.7584,30.970824 1893.8125,31.25 1894.4235,34.403553 1891.0184,48.31247 1888.6562,52.3125 L 1886.3438,56.25 1888.1875,62.875 C 1891.3241,74.072299 1893.1314,83.947205 1892.8125,88.25 1892.4879,92.631502 1890.7126,94.237374 1889.5,91.28125 1889.0957,90.295505 1887.3006,83.660298 1885.5,76.53125 1881.3429,60.071896 1880.0711,59.248659 1878.4688,72 1878.0886,75.025 1877.1746,79.075 1876.4688,81 1875.763,82.925 1874.8971,85.4 1874.5312,86.5 1873.9389,88.281669 1873.7577,88.33571 1872.9375,86.875 1871.6368,84.558594 1869.8327,71.044761 1870.5312,68.84375 1870.8513,67.835455 1872.56,66.640866 1874.3125,66.1875 1878.4887,65.107187 1882.2702,58.914974 1881.5938,54.25 1881.0853,50.74327 1881.0942,50.697163 1888.5,38 1890.8733,33.931013 1892.5653,31.532463 1893.3438,31.0625 z M 1875.0625,50.1875 C 1876.0759,50.267025 1876.9471,50.546422 1877.5312,51.03125 1879.653,52.792227 1879.3424,58.317697 1876.9375,61.375 1874.6952,64.225648 1869.9997,64.963068 1868.25,62.75 1866.7435,60.844462 1866.0942,55.871119 1867.0312,53.40625 1867.8008,51.382216 1872.0223,49.948924 1875.0625,50.1875 z M 1862.7812,62.625 C 1863.3886,62.429708 1863.9879,62.585617 1864.5625,63.0625 1866.4427,64.622954 1866.3768,67.016941 1864.375,69.875 1863.4836,71.147584 1861.2899,75.752234 1859.5,80.125 1857.71,84.497765 1856.0302,88.31352 1855.75,88.59375 1855.4698,88.87398 1855.0205,87.403201 1854.75,85.3125 1854.4254,82.803768 1855.1136,78.807882 1856.8125,73.5625 1858.9871,66.848779 1860.9592,63.210876 1862.7812,62.625 z"/>
</svg>
