<svg xmlns="http://www.w3.org/2000/svg"
     width="30.3" height="64.0"
     viewBox="1572.6562 12.4614 43.0616 90.8056">
  <path d="M 1577.0938,92.9375 C 1577.2799,92.391159 1577.5716,92.37205 1578.25,93.25 1580.6611,96.370097 1587.7863,99.266986 1591.375,98.59375 1599.5988,97.050957 1602.0198,87.381185 1602.1562,55.5 1602.204,44.339073 1602.4117,43.150386 1604.9688,38.5 1609.9041,29.524516 1611.7178,20.311603 1609.0938,17.6875 1608.2938,16.8875 1608,18.262505 1608,22.71875 1608,27.730398 1607.3806,30.02574 1604.625,35.3125 1601.3028,41.686282 1601.2635,42.017301 1600.6562,58.375 1599.5547,88.049169 1597.4964,96 1590.9062,96 1587.7414,96 1583,94.111169 1583,92.84375 1583,92.382033 1582.409,92 1581.6875,92 1580.2284,92 1577.4119,88.371276 1576.9062,86.28125 L 1576.6562,91.34375 1577.0938,92.9375 z M 1576.9688,85.09375 C 1577.3644,84.474141 1578.1582,84.544347 1580.1875,85.59375 1585.4346,88.307164 1586.9151,88.158413 1588.9688,84.78125 1591.6564,80.361741 1592.8546,70.633211 1592.6562,54.84375 1592.5003,42.419192 1592.3138,40.962648 1590.375,38.84375 1588.1011,36.358666 1585.7207,32.007193 1584.5312,28.15625 L 1583.8125,25.78125 1587.125,28.15625 C 1588.953,29.451067 1591.0396,31.0625 1591.7812,31.75 1593.7972,33.618694 1594.7941,33.289484 1596.3125,30.25 1597.9865,26.898966 1598.5527,17 1597.0625,17 1596.4722,17 1596,19.139656 1596,21.90625 1596,30.962095 1594.2811,32.06378 1588.875,26.5 1587.0103,24.580857 1584.9235,23.005857 1584.2188,23 1580.5175,22.969243 1582.3965,31.741991 1587.5312,38.46875 L 1591,43.03125 1591,56.3125 C 1591,69.698718 1589.6918,80.43139 1587.7812,82.75 1585.9934,84.919643 1581.5563,84.181667 1578.75,81.25 L 1577.25,79.71875 1576.9688,85.09375 z M 1602.5625,17.125 C 1601.8166,16.461378 1601.3618,18.114567 1601.7188,21.28125 1602.0196,23.94967 1601.6141,26.97662 1600.625,29.34375 1599.5772,31.851538 1599.4199,33.037138 1600.1875,32.78125 1602.6365,31.964935 1604.8339,22.314252 1603.4062,18.59375 1603.1109,17.824058 1602.8111,17.346207 1602.5625,17.125 z"/>
</svg>
