<svg xmlns="http://www.w3.org/2000/svg"
     width="24.0" height="64.0"
     viewBox="1154.8639 16.9964 33.4101 89.1658">
  <path d="M 1173.4228,92.25 C 1173.8059,88.5375 1174.3311,71.348924 1174.5899,54.053164 1174.8486,36.757404 1175.2346,22.432018 1175.4477,22.218972 1176.6703,20.996414 1177.1538,36.227231 1176.6077,58.755378 1175.8877,88.455551 1175.1325,99 1173.7252,99 1173.0897,99 1172.9797,96.543622 1173.4228,92.25 z M 1164,98.967082 C 1159.4574,95.394075 1158.8639,94.802766 1159.3413,94.325383 1159.6014,94.065313 1161.1489,94.542762 1162.7803,95.386381 1166.2696,97.190799 1167,96.718248 1167,92.656159 1167,90.506787 1166.0704,88.836265 1163.75,86.816053 L 1160.5,83.986453 1163.5,84.243226 C 1166.1337,84.468646 1166.5401,84.149342 1166.8282,81.628258 1167.074,79.477311 1166.321,77.87373 1163.8282,75.239378 1161.1979,72.459811 1160.9194,71.830654 1162.5,72.239214 1163.6,72.523549 1165.175,72.923545 1166,73.128094 1167.1237,73.406691 1167.5771,72.434864 1167.8073,69.254655 1168.077,65.527495 1167.8024,64.867091 1165.5573,63.84414 1162.2743,62.348326 1162.2342,60.769697 1165.5,61.589356 1167.8825,62.187321 1168,62.010325 1168,57.824016 1168,54.003602 1167.6091,53.200303 1165,51.659071 1163.35,50.684392 1162,49.462369 1162,48.943464 1162,47.547965 1163.1136,47.792794 1165.1504,49.636119 1166.8193,51.146433 1167.0063,51.147033 1167.5831,49.643913 1167.9268,48.748334 1167.7594,42.949581 1167.2111,36.757794 1166.6628,30.566007 1166.5846,25.103887 1167.0373,24.619748 1168.4171,23.144296 1169.0744,29.714712 1169.2761,47 1169.5812,73.150125 1168.6746,101.00442 1167.5196,100.96673 1166.9588,100.94843 1165.375,100.04859 1164,98.967082 z M 1182.0312,96.96875 C 1182.0376,96.96541 1182.0249,96.940684 1182.0312,96.9375 L 1182.25,91.875 C 1180.7803,89.880931 1180.8431,88.186831 1182.4062,87.96875 L 1182.625,83.375 1181.7188,82.6875 1182.3125,73.0625 C 1182.6383,67.714569 1182.4853,62.785633 1181.9688,61.96875 1181.3283,60.956032 1180.9905,62.365535 1180.875,66.5 1180.7828,69.8 1180.6219,72.95 1180.5312,73.5 1179.6937,78.580027 1178.9859,100.16981 1179.625,101.1875 1180.2371,102.16222 1180.5345,101.98622 1180.7812,100.5 1181.1329,98.381574 1181.4048,97.300153 1182.0312,96.96875 z M 1182.1562,24 C 1181.7876,23.999803 1181.5,32.078524 1181.5,41.9375 1181.5,61.026251 1182.5521,63.684189 1183.625,47.3125 1184.274,37.409225 1183.4235,24.000677 1182.1562,24 z"/>
</svg>
