<svg xmlns="http://www.w3.org/2000/svg"
     width="24.3" height="64.0"
     viewBox="1026.7681 15.5193 34.7408 91.4378">
  <path d="M 1041.4688,20.21875 C 1039.4712,20.45191 1037.7076,21.666796 1036.4688,24.0625 1035.6068,25.729244 1034.499,30.655435 1034,35.03125 1032.6392,46.962443 1030.7681,75.590836 1030.8438,83.21875 1030.9078,89.681694 1032.9823,98.061604 1035.1875,100.71875 1037.0452,102.95711 1039.0514,102.09752 1040.5938,98.40625 1043.2262,92.1059 1043.9561,85.042554 1044.4375,61.125 1044.6962,48.269544 1045.1599,37.496307 1045.4688,37.1875 1045.7776,36.878694 1047.7864,38.337004 1049.9375,40.4375 1055.2245,45.600114 1057.5089,44.857581 1056.7188,38.21875 1055.4477,27.540157 1047.4613,19.519271 1041.4688,20.21875 z M 1040.3438,23.4375 C 1042.9635,22.779988 1047.7802,24.818973 1050.0312,27.53125 1051.1088,28.829478 1055,38.380553 1055,39.71875 1055,39.877363 1054.4168,40 1053.6875,40 1052.9581,40 1051.0425,38.425 1049.4375,36.5 1046.2713,32.702619 1043.4379,31.975538 1042.625,34.75 1042.343,35.7125 1042.2428,45.05 1042.4062,55.5 1042.7015,74.387469 1041.858,88.080097 1039.9375,95.25 1038.6345,100.11503 1036.6077,100.00232 1034.5938,94.96875 1032.6958,90.225176 1032.5072,75.296328 1034.0625,56 1034.6166,49.125 1035.2865,40.216545 1035.5625,36.21875 1036.1911,27.109784 1037.2666,24.209844 1040.3438,23.4375 z"/>
</svg>
