<svg xmlns="http://www.w3.org/2000/svg"
     width="24.1" height="64.0"
     viewBox="849.0938 16.6959 34.6923 92.1069">
  <path d="M 853.09375,91.8125 853.59375,94.65625 C 854.78757,94.220744 856.96718,92.427989 859,90 862.90393,85.337188 863.1008,84.801402 862.09375,81.75 859.85717,74.973091 860.4139,44.040063 862.90625,36.84375 863.62593,34.765788 863.29687,33.142931 861.375,29.34375 858.66127,23.979175 856,20.744495 856,22.8125 856,23.498641 857.15639,26.350182 858.5625,29.125 861.02879,33.991994 861.06468,34.442983 859.9375,41.84375 858.58568,50.719386 858.25401,71.952954 859.34375,80.09375 860.0404,85.297978 859.92754,85.89921 857.34375,88.84375 855.81781,90.582736 854.03872,92 853.40625,92 853.35775,92 853.16151,91.835061 853.09375,91.8125 z M 854.65625,100.90625 855.28125,104.59375 C 855.46067,104.62338 855.82558,104.8028 855.9375,104.78125 857.67469,104.4467 865.16955,95.097604 868.09375,89.625 870.03826,85.985875 870.13845,84.745819 869.5,70 868.57125,48.549382 869.82175,40.934869 875.6875,32.1875 878.07984,28.619892 879.78605,25.473549 879.5,25.1875 878.66492,24.352422 873.55979,30.558626 870.40625,36.25 L 867.5,41.5 867.5,64 C 867.49153,81.201691 867.14267,87.077478 866.09375,88.9375 863.47655,93.578479 857.95525,100.80204 856.625,101.3125 856.30695,101.43455 855.51504,101.19877 854.65625,100.90625 z M 862.34375,21.09375 C 862.1347,21.226377 862,21.490996 862,21.9375 862,22.456062 862.93942,24.481062 864.09375,26.4375 865.24807,28.393938 866.71057,30.002545 867.34375,30 868.76562,29.994284 875,24.241194 875,22.9375 875,21.424138 873.5366,21.840598 871.21875,24 868.42861,26.59942 867.57414,26.522459 865.59375,23.5 864.36785,21.629047 862.9709,20.69587 862.34375,21.09375 z"/>
</svg>
