<svg xmlns="http://www.w3.org/2000/svg"
     width="33.4" height="64.0"
     viewBox="1381.9911 52.3776 26.3841 50.6224">
  <path d="M 1403.375,57.0625 C 1402.6901,56.377563 1399.0314,61.099955 1396.2188,65.875 L 1398.75,65.78125 C 1399.3087,64.845894 1399.2924,64.548539 1399.9688,63.53125 1402.1461,60.256225 1403.6715,57.358959 1403.375,57.0625 z M 1398.75,65.78125 1396.2188,65.875 C 1395.8095,66.569773 1395.3254,67.158588 1394.9688,67.84375 1393.6363,70.403345 1392.2811,72.725 1391.9375,73 1391.5939,73.275 1390.77,74.493628 1390.125,75.71875 1389.1666,77.538907 1389.2098,77.872628 1390.3438,77.4375 1391.1069,77.144621 1392.231,75.782244 1392.8438,74.4375 1393.4564,73.092757 1394.407,72 1394.9688,72 1395.5306,72 1395.9982,71.4375 1396,70.75 1396.0012,70.276051 1397.5101,67.857147 1398.75,65.78125 z M 1386.5625,77.8125 C 1386.1323,77.781801 1385.9911,78.779214 1386.4688,81.125 1387.5544,86.456843 1390.9918,95.335528 1392.7188,97.25 1393.587,98.2125 1395.5744,99 1397.125,99 1401.8137,99 1404.3752,92.000423 1402.6875,83.75 1401.4157,77.532119 1400.088,79.523569 1400.6875,86.75 1401.1749,92.625939 1400.968,93.73687 1399.25,95.28125 1395.5402,98.616247 1392.6902,95.437947 1389.9688,85.03125 1388.8523,80.761759 1387.2795,77.863664 1386.5625,77.8125 z"/>
</svg>
