<svg xmlns="http://www.w3.org/2000/svg"
     width="16.2" height="64.0"
     viewBox="1558.0057 17.0000 23.2443 91.8095">
  <path d="M 1577.0938,92.9375 1576.6562,91.34375 1576.9062,86.28125 C 1576.819,85.920756 1576.6708,85.484772 1576.75,85.25 1576.7869,85.140581 1576.9166,85.17542 1576.9688,85.09375 L 1577.25,79.71875 1576.0938,78.5 1576.0312,50.625 C 1575.9883,35.289259 1575.7009,22.351759 1575.4062,21.875 1575.1116,21.39824 1574.5297,21 1574.0938,21 1572.5856,21 1567.1524,26.871124 1564.5312,31.34375 1562.0656,35.551177 1562.0057,36.034967 1563.3438,39.15625 1564.1292,40.988459 1566.3844,44.042108 1568.375,45.9375 1570.3655,47.832892 1572,49.784293 1572,50.25 1572,50.715707 1570.2,53.461121 1568,56.375 1565.8,59.288879 1564,62.324492 1564,63.125 1564,63.925508 1565.5578,67.031735 1567.4688,70.03125 1569.3797,73.030764 1570.9546,76.106171 1570.9688,76.84375 1570.9828,77.581328 1569.2,80.738685 1567,83.875 1564.8,87.011316 1563,90.262322 1563,91.09375 1563,91.925178 1565.25,94.770748 1568,97.40625 1570.75,100.04175 1573,102.59707 1573,103.09375 1573,104.80948 1575.9878,103.99462 1576.0938,102.25 1576.1522,101.2875 1576.3151,99.825 1576.4375,99 1576.56,98.175 1576.7497,96.180122 1576.8438,94.5625 1576.8998,93.598632 1576.9814,93.267387 1577.0938,92.9375 z M 1572.6562,25.15625 C 1573.0902,25.040208 1573.4456,25.101867 1573.6875,25.34375 1573.9031,25.559371 1573.938,30.609519 1573.7812,36.5625 L 1573.5,47.375 1569.7812,44.125 C 1564.5929,39.565227 1563.8814,35.207886 1567.4688,30.03125 1569.3275,27.349173 1571.3543,25.504376 1572.6562,25.15625 z M 1573.5938,53.96875 C 1573.8551,54.034294 1574.0081,54.280279 1574.0312,54.75 1574.0517,55.1625 1574.1641,59.662204 1574.2812,64.75 1574.5229,75.236813 1573.5418,76.407045 1569.6562,70.25 1565.7297,64.027835 1565.67,62.753172 1569,58.15625 1571.0724,55.295417 1572.8096,53.772119 1573.5938,53.96875 z M 1573.9375,78.46875 C 1574.3843,78.744878 1574.6964,83.331182 1574.625,88.65625 1574.549,94.327359 1574.0752,98.485318 1573.4688,98.6875 1572.2761,99.085054 1565,91.943126 1565,90.375 1565,88.659604 1573.0571,77.92463 1573.9375,78.46875 z"/>
</svg>
