<svg xmlns="http://www.w3.org/2000/svg"
     width="64.0" height="57.5"
     viewBox="29.4742 22.0000 97.1793 87.2410">
  <path d="M 88.481392,96.973148 C 86.169563,93.637178 85.874733,92.564874 86.762957,90.723148 89.767509,84.493226 89.881213,82.412806 87.43708,78.388852 81.961493,69.373998 81.583675,65.926095 85.24073,58.345384 89.22256,50.091449 94.90141,41.25181 96.654282,40.57917 98.716355,39.787878 101.09203,41.925082 105.45218,48.493912 107.33534,51.331023 109.56708,54.225747 110.4116,54.926631 113.45427,57.451824 113.36425,62.361369 110.09806,72.026568 108.39413,77.068781 107,83.138723 107,85.515327 107,93.297276 109.27607,95.753973 110.46009,89.25 110.83555,87.1875 112.5197,81.675 114.20264,77 115.88558,72.325 117.73164,65.957776 118.30501,62.850614 119.34212,57.230265 119.32593,57.166017 115.15549,50.350614 105.8377,35.123323 100.71489,29 97.293427,29 95.996557,29 91.810593,31.058687 87.991283,33.57486 80.324974,38.625447 78.978998,38.675067 74.566829,34.069755 70.851229,30.191504 72.132855,28.092559 76.151694,31.474189 77.80266,32.863385 79.529394,34 79.988881,34 80.448369,34 83.946371,32.2 87.762219,30 92.184539,27.450344 95.949036,26 98.144577,26 102.00218,26 103.64506,27.840024 114.41254,44.220196 121.83385,55.509949 122.65345,58.465564 120.40445,65.827996 119.45151,68.947598 118.35433,71.95 117.96627,72.5 116.85479,74.075339 112,93.379864 112,96.224234 112,102.24912 107.038,99.568984 105.10497,92.5 103.36039,86.120188 103.83129,81.090357 107.01973,72.048052 110.52499,62.107256 110.72019,58.96174 107.98543,56.486814 106.87742,55.484075 104.77586,52.774767 103.31531,50.46613 99.974446,45.185366 97.399532,43.423528 95.421639,45.065034 94.639738,45.713954 94,46.673616 94,47.197615 94,47.721614 92.240857,51.154013 90.090793,54.82517 85.030894,63.464766 84.433098,66.528757 86.935026,71 93.02094,81.876252 92.985793,81.728192 90.912338,87.754793 L 89.024863,93.240836 91.512431,96.197143 C 94.305002,99.515924 94.652183,101 92.636001,101 91.885801,101 90.016227,99.187917 88.481392,96.973148 z M 72.657077,104.25416 C 72.392462,103.826 73.779201,101.72625 75.738719,99.588044 78.689423,96.368269 79.576222,95.901882 80.90074,96.873227 81.780333,97.518283 83.9625,98.980143 85.75,100.1218 88.868497,102.11356 90.160347,105 87.933278,105 87.346581,105 85.391605,103.875 83.588887,102.5 79.685894,99.523042 78.541372,99.406805 76.806704,101.81121 75.118803,104.15079 73.266972,105.24099 72.657077,104.25416 z M 40.90246,102.33333 C 40.848812,101.875 40.641894,97.9 40.442641,93.5 40.243388,89.1 39.124944,81.9 37.957209,77.5 34.048445,62.771858 33.474159,58.35093 34.934406,54.230058 36.78191,49.016333 46.043475,34.908835 47.164098,35.601418 48.058686,36.154304 45.281016,41.549917 40.396062,48.748298 36.142656,55.016043 35.865541,58.055197 38.61436,68.288445 41.248057,78.093119 41.571734,79.484651 43.166066,87.856908 43.938877,91.915142 44.466653,92.932655 45.343092,92.054052 46.133263,91.261931 46.434243,86.272104 46.292562,76.313161 46.049833,59.251432 46.618567,57.269193 53.933841,49.680561 L 58.899406,44.529443 61.699703,47.230206 C 63.239866,48.715626 65.327646,52.084002 66.339214,54.715485 67.350781,57.346968 68.578995,60.4 69.068578,61.5 72.107423,68.327707 72.137052,69.138762 69.529792,74.125053 66.315351,80.272554 66.30672,84.699302 69.5,89.404862 72.539668,93.884063 72.597485,95.29718 69.918441,99.631966 66.472246,105.20803 64.387006,103.53916 67.729766,97.880323 69.125072,95.518258 69.224634,94.618325 68.244683,93.226031 65.941435,89.953628 64,84.747998 64,81.844632 64,80.243516 65.146804,76.670403 66.548454,73.90438 L 69.096909,68.875247 65.535596,61.187624 C 59.358659,47.853784 58.916837,47.633855 53.097298,54.996124 L 49.053629,60.111749 49.117693,75.687717 C 49.180236,90.893706 49.114277,91.395243 46.340879,96.802267 43.767328,101.81967 41.153493,104.47803 40.90246,102.33333 z"/>
</svg>
