<svg xmlns="http://www.w3.org/2000/svg"
     width="32.6" height="64.0"
     viewBox="506.5295 15.4792 45.7265 89.7110">
  <path d="M 529.66667,100.33333 C 529.3,99.966667 529,98.876135 529,97.90993 529,96.943724 527.51771,94.206224 525.70602,91.826596 520.41612,84.878369 520.44852,85.149095 524.42015,81.081777 528.90445,76.489438 530.19196,70.974578 527.47953,67.977377 524.78518,65.000159 520.15104,65.706108 516.15456,69.702579 512.19154,73.665606 510.52954,65.456986 514.20264,60.061988 516.82529,56.209869 517.93824,55.525806 523.5,54.347462 527.34567,53.532697 527.51197,53.333814 527.8103,49.192653 528.09111,45.294654 527.72781,44.492516 523.98749,40.752198 518.9276,35.69231 517.15188,32.387258 516.35001,26.53697 515.84573,22.857798 516.04392,21.920378 517.43926,21.384934 518.66297,20.915353 520.50721,22.18137 523.96577,25.865198 526.61721,28.689339 529.02743,31 529.32181,31 529.61619,31 531.29856,28.775372 533.06041,26.056381 536.80168,20.282607 538.27558,19.479238 541.38695,21.517885 547.95201,25.819479 548.25604,36.302887 542.00965,42.989672 537.93362,47.35307 536.80507,55.085239 539.77613,58.292424 540.9009,59.506591 542.31872,62.375239 542.92683,64.667197 544.16413,69.33051 542.74736,75.099042 538.54706,82.5 537.29848,84.7 536.4665,87.030663 536.69821,87.679252 537.31571,89.407731 534.20295,99.252974 532.74655,100.1778 531.20646,101.15578 530.52359,101.19026 529.66667,100.33333 z M 532.88683,90.07404 C 532.67705,86.121584 533.14542,84.392345 535.2568,81.32404 538.83065,76.130445 540,72.692437 540,67.378529 540,63.71187 539.46862,62.3927 537.10584,60.193629 534.26762,57.552058 534.22911,57.376192 535.11326,51.093813 535.8653,45.750158 536.57338,44.145179 539.38238,41.417115 544.86721,36.090318 545.01475,27.79572 539.68166,24.592241 538.18525,23.693377 537.47706,23.989272 535.68166,26.263524 534.48175,27.783463 532.51641,30.258463 531.31424,31.763524 L 529.12848,34.5 524.06424,29.537592 C 518.74129,24.321675 517.60593,24.862365 520.40104,31.282119 521.89118,34.704664 526.48807,40 527.96904,40 528.4575,40 529.53611,40.67897 530.36596,41.508822 531.52069,42.663548 531.76043,44.582374 531.38749,49.685055 531.11948,53.352132 530.69779,56.679965 530.45041,57.080241 530.20302,57.480517 527.74918,57.825454 524.99743,57.84677 519.07332,57.892658 518.46629,58.197617 516.41915,62.156343 514.50363,65.860547 515.12107,66.729037 518.15784,64.601999 521.75717,62.080929 526.51058,62.559472 529.45953,65.739782 533.12358,69.691296 532.86472,74.51405 528.65262,80.773213 L 525.30523,85.747405 528.3309,90.373702 C 529.99502,92.918166 531.75971,95 532.25243,95 532.74514,95 533.03063,92.783318 532.88683,90.07404 z"/>
</svg>
