<svg xmlns="http://www.w3.org/2000/svg"
     width="27.6" height="64.0"
     viewBox="128.8236 14.8625 42.4222 98.3320">
  <path d="M 133.667,106.5746 C 132.82365,104.37687 134.87664,97.933567 137.83287,93.5 139.29979,91.3 140.725,89.387631 141,89.25029 141.275,89.11295 141.42491,80.676597 141.33313,70.502839 141.17564,53.044138 141.03578,51.794313 138.84324,48.252549 136.87886,45.079358 136.46788,42.878899 136.18133,34 135.9238,26.019992 136.18667,23.041006 137.27663,21.58752 139.32013,18.862465 142,20.193584 142,23.933668 142,30.503917 147.19475,41 150.44651,41 151.05035,41 154.20025,36.707092 157.4463,31.460204 164.13836,20.643202 166.28368,19.62613 166.83606,27.008627 167.24581,32.484939 165.51448,41.0548 162.86254,46.67697 L 160.89229,50.85394 163.43479,55.871323 C 164.83317,58.630883 166.0949,62.371961 166.23865,64.184829 166.48193,67.253109 166.25806,67.516214 163,67.991062 159.80309,68.456997 159.52451,68.762561 159.78304,71.519612 159.93871,73.179755 159.46755,77.454491 158.73602,81.019027 157.60056,86.551826 157.61677,87.929576 158.84682,90.436242 161.81182,96.478515 161.5522,107 158.43811,107 157.60002,107 154.76491,104.98948 152.13786,102.53219 L 147.36141,98.064374 142.4683,103.03219 C 137.53262,108.04322 134.67233,109.19445 133.667,106.5746 z M 148.78818,94 C 149.2688,94 150.26253,95.122027 150.99646,96.493393 152.63749,99.559678 156.91083,102.48917 158.06259,101.33741 158.52942,100.87058 158.42657,98.57869 157.83405,96.244316 157.01822,93.030226 156.27248,92 154.76173,92 153.14769,92 152.90325,91.570352 153.48165,89.75 156.83553,79.194502 157.31194,72.996573 155.40332,64.75 154.61728,61.35376 156.54232,61.06555 160.29525,64.017601 161.70598,65.127281 163.07442,65.688603 163.33623,65.264983 164.05192,64.106982 161.39317,57.023059 159.05681,53.862966 156.51153,50.420294 156.50195,49.760704 158.96485,47.53181 161.32232,45.398332 164.01395,36.683689 163.96402,31.346093 L 163.92805,27.5 161.89939,30 C 160.78363,31.375 158.10963,35.3125 155.95717,38.75 153.80472,42.1875 151.49028,45 150.81397,45 149.0487,45 142.00849,37.885185 141.9549,36.047052 141.93009,35.196174 141.25493,33.15 140.45453,31.5 139.06042,28.626054 139.01446,28.801385 139.36059,35.672767 139.64625,41.343488 140.34624,43.961108 142.7033,48.172767 145.16181,52.565686 145.52945,54.026154 144.79952,56.5 144.31267,58.15 144.04611,66.25 144.20717,74.5 144.47895,88.421761 144.34792,89.715648 142.38439,92.5 139.22746,96.976608 136.99895,101.66562 137.6967,102.36337 138.03602,102.70269 140.47379,100.95974 143.11398,98.490154 145.75417,96.020569 148.30756,94 148.78818,94 z"/>
</svg>
