<svg xmlns="http://www.w3.org/2000/svg"
     width="22.8" height="64.0"
     viewBox="1737.5090 15.5368 33.9963 95.3126">
  <path d="M 1742.3462,94.25 C 1741.8808,88.3375 1741.509,73.15 1741.52,60.5 1741.5371,40.908853 1741.816,36.616886 1743.4016,31.541508 1745.6689,24.284348 1749.9177,19.53677 1753.2428,20.54525 1756.7162,21.598752 1759.8012,24.894265 1762.5245,30.460528 1767.5053,40.640985 1765.4952,47.960252 1759.031,43.18107 L 1755.9791,40.924695 1755.1332,43.212347 C 1754.668,44.470556 1753.7475,54.725 1753.0877,66 1751.2303,97.742888 1751.0162,99.114646 1747.2754,103.24817 1744.0164,106.84933 1743.2242,105.40315 1742.3462,94.25 z M 1748.9616,88.092898 C 1749.462,84.466804 1750.1318,75.425 1750.4499,68 1751.1092,52.611185 1751.8423,42.737859 1752.6215,38.75 1753.3111,35.221372 1756.3601,35.093701 1758.592,38.5 1762.3033,44.164186 1763.2945,39.310972 1759.8393,32.392646 1758.6509,30.013117 1756.4308,26.870828 1754.9058,25.409783 L 1752.1331,22.753337 1749.6188,25.46626 C 1745.3711,30.049685 1744.4985,36.893019 1744.5145,65.5 1744.5225,79.8 1744.9108,93.3 1745.3773,95.5 1746.1753,99.262496 1746.2799,99.357076 1747.1387,97.092898 1747.6409,95.768991 1748.4612,91.718991 1748.9616,88.092898 z"/>
</svg>
