<svg xmlns="http://www.w3.org/2000/svg"
     width="49.7" height="64.0"
     viewBox="1790.0976 11.0383 74.5586 95.9389">
  <path d="M 1858.4688,46.8125 C 1858.5481,47.016049 1859,47.768264 1859,47.84375 1859,49.510459 1853.2677,53.985413 1850.4688,54.5 1846.8316,55.168703 1845.9918,54.625132 1842.625,49.25 1841.1609,46.9125 1839.3988,45 1838.6875,45 1837.9763,45 1835.8637,46.125 1834,47.5 1828.8679,51.286326 1828.4174,50.872322 1829,43.03125 1829.4738,36.654352 1829.8201,35.762548 1833.25,32.25 1836.2118,29.216837 1837,27.652734 1837,24.71875 1837,20.414833 1835.4528,19.912807 1831.2188,22.90625 1825.9881,26.604351 1824.5916,26.435458 1822.9688,21.84375 1820.9674,16.181155 1818.9113,15.03827 1814.75,17.28125 1810.484,19.580743 1807,24.787537 1807,28.84375 1807,33.326178 1810.8147,37 1815.4688,37 L 1819,37 1819,41.75 C 1818.9777,48.6587 1818.0757,49.506893 1814,46.5 1812.0841,45.086463 1809.2432,44 1807.4688,44 1804.9082,44 1803.7649,44.817334 1801.1875,48.40625 1795.2699,56.646398 1794.0976,69.016244 1798.75,74.25 1801.5617,77.413091 1803,76.404248 1803,71.25 1803,65.596297 1804.4545,59.963537 1806.2188,58.84375 1808.276,57.537976 1811.7487,57.873732 1813.4375,59.5625 1814.432,60.557029 1815,62.913653 1815,65.96875 1815,70.413966 1814.6043,71.204051 1810,75.90625 1807.25,78.714739 1804.9934,81.790275 1805,82.75 1805.0065,83.709724 1805.6881,86.975 1806.5,90 1807.3119,93.025 1807.9935,96.9625 1808,98.75 1808.0144,102.69747 1809.7314,102.97717 1812.9688,99.53125 1814.7937,97.588761 1815.3627,95.714299 1815.5625,90.96875 1815.7642,86.178005 1816.3732,84.194627 1818.5,81.40625 1821.0244,78.096592 1821.3011,77.962544 1823,79.5 1825.6622,81.909212 1826.2801,85.67393 1824.875,91.15625 1823.5915,96.164204 1824.3644,100.94765 1826.5938,101.6875 1827.1991,101.88843 1830.0726,97.296558 1832.9688,91.46875 L 1838.2188,80.875 1835.0625,72.8125 1831.875,64.78125 1834.0938,62.375 C 1835.3257,61.063595 1836.7873,60 1837.3125,60 1837.8377,60 1840.1685,62.058854 1842.5,64.5625 1846.2173,68.55431 1847.0981,69.011299 1849.625,68.40625 1851.2099,68.026765 1853.0804,67.271287 1853.7812,66.71875 1854.5951,66.077037 1855.0523,66.061354 1855.3438,66.34375 L 1856,65.34375 1856.9062,62.125 C 1853.6846,63.632845 1850.1868,65 1848.9375,65 1847.9299,65 1845.6782,63.228492 1843.9375,61.0625 1839.4503,55.478702 1838.2879,55.328091 1833.75,59.71875 1830.1763,63.17652 1829.8765,63.845551 1830.375,67.5 1830.6751,69.7 1831.8476,73.289957 1832.9688,75.46875 1834.0898,77.647543 1835,79.945376 1835,80.59375 1835,82.413884 1827.9268,96.27054 1827.3125,95.65625 1827.0137,95.357455 1827.3941,92.789418 1828.125,89.9375 1829.3946,84.983881 1829.3349,84.542206 1826.875,80.125 1823.3372,73.772169 1821.3419,73.754388 1816.5312,80.0625 1813.1514,84.494345 1812.6237,85.900702 1812.6875,90.125 1812.7282,92.822762 1812.3984,95.24641 1811.9375,95.53125 1811.1809,95.998872 1810.3916,93.820485 1808.4688,85.84375 1807.687,82.600712 1809.1589,79.690396 1813.4688,75.90625 1818.9827,71.065014 1819.245,59.22957 1813.9062,56.46875 1809.7275,54.307801 1807.1915,54.683458 1803.9375,57.9375 1801.6627,60.212294 1801,61.76476 1801,64.9375 1801,69.515026 1799.3843,70.396064 1798.375,66.375 1796.9459,60.680937 1803.628,47 1807.8438,47 1808.7671,47 1811.2363,48.151699 1813.3125,49.5625 1818.8461,53.322662 1820.398,52.611772 1821,46 1821.275,42.979768 1821.3257,38.774876 1821.125,36.65625 1820.7788,32.9997 1820.6142,32.827158 1817.875,33.375 1813.2544,34.299122 1810,32.549502 1810,29.15625 1810,25.847583 1813.0875,21.412984 1816.0625,20.46875 1818.4429,19.713238 1821,21.526263 1821,23.96875 1821,24.916162 1821.9137,26.519918 1823.0312,27.53125 1825.0075,29.319682 1825.1854,29.298856 1829.5312,27.1875 1833.3283,25.342737 1834,25.26335 1834,26.59375 1834,27.454792 1832.2,30.005665 1830,32.25 L 1826,36.3125 1826,45.15625 C 1826,55.440221 1826.8484,56.111376 1833.5625,51.03125 1835.7229,49.396551 1837.7634,48.046551 1838.0938,48.03125 1838.4241,48.015949 1840.103,50.25 1841.8125,53 1844.4773,57.286786 1845.3574,58 1848.0625,58 1851.9089,58 1858.7705,54.307759 1859.5625,51.8125 1859.6361,51.580579 1859.8097,51.423248 1859.9375,51.21875 L 1860.6562,48.65625 1858.4688,46.8125 z"/>
</svg>
