<svg xmlns="http://www.w3.org/2000/svg"
     width="64.0" height="61.2"
     viewBox="366.1634 16.1473 96.0414 91.8527">
  <path d="M 431.8405,100.50365 427.35277,97.007292 421.18461,99.253646 C 412.88527,102.27615 412.96696,102.33603 405.38388,87.671944 L 402.8872,82.843889 400.1936,84.54696 C 395.91924,87.24949 394.04618,90.208242 394.02224,94.295455 393.99426,99.07099 389.83136,103.93485 387.45793,101.96508 386.65607,101.2996 386,99.785339 386,98.600062 386,97.414785 385.39214,95.557385 384.6492,94.472506 381.21677,89.460321 381.69677,87.696637 388.02818,82.057108 395.23551,75.637366 395.64722,73.289683 390.4288,68.368077 388.46464,66.515635 386.23361,65 385.47095,65 383.64308,65 379,72.99808 379,76.146728 379,77.505785 378.3737,79.474263 377.60821,80.521124 376.40121,82.171795 375.99415,82.240033 374.54228,81.035086 371.0765,78.158746 370.16342,74.838321 371.13739,68.653223 371.64378,65.437495 372.92529,61.106601 373.9852,59.029014 376.04607,54.98938 381.29478,50 383.48351,50 384.21504,50 387.82246,51.35 391.5,53 395.17754,54.65 398.42058,56 398.70676,56 399.22056,56 398.34745,48.5614 397.33444,44.308224 396.86058,42.318669 396.36298,42.169675 391.94134,42.693354 387.35789,43.236195 386.8601,43.060102 383.51116,39.711156 380.21493,36.414927 379.99953,35.832531 380.59481,31.826025 380.94833,29.446711 381.85912,27.000391 382.61879,26.389757 383.37845,25.779124 384,24.589769 384,23.746746 384,22.903723 384.7118,21.940833 385.58179,21.606989 389.38562,20.147321 392.97547,21.122572 397.78102,24.921144 L 402.74164,28.842287 408.24205,25.528882 C 416.56657,20.514254 419.35026,20.196416 422.99792,23.844078 425.61629,26.462441 426,27.558972 426,32.423077 426,36.815675 425.53827,38.461734 423.82572,40.174282 L 421.65144,42.348564 420.07572,40.139083 C 415.25915,33.385267 415.40886,33.492679 412.59739,34.77367 409.16671,36.336796 407.79203,40.047103 407.80795,47.700558 407.82436,55.586034 408.32695,56.39941 412.00709,54.496333 413.59856,53.67335 415.19682,53 415.55877,53 415.92072,53 418.13402,55.088051 420.47721,57.640112 422.82041,60.192174 425.22103,61.981433 425.81192,61.616243 426.40281,61.251052 428.73939,57.700502 431.00433,53.72613 433.26926,49.751759 436.00108,45.097761 437.07504,43.383914 438.864,40.529031 438.93202,39.624627 437.88644,32.594648 436.84545,25.595503 437.07751,22.744176 438.56693,24.233592 438.87873,24.545401 439.7795,27.882901 440.56864,31.650259 441.95789,38.282618 441.92983,38.642811 439.68446,43 434.74285,52.58931 429.6467,61.576037 428.20119,63.25 425.78967,66.042652 422.77779,65.268066 419.5,61.012253 415.66334,56.030817 414.19313,55.469932 411.53009,57.97173 406.90391,62.317805 405,59.100757 405,46.937781 405,39.228589 405.10159,38.893312 408.61636,35.002881 410.60536,32.801296 412.91473,31 413.74829,31 414.58184,31 416.81944,32.649407 418.72071,34.665349 421.49921,37.611409 422.36445,38.052949 423.12983,36.915349 424.50266,34.874879 423.46614,28.17256 421.42976,25.922384 418.89724,23.123985 416.66558,23.515273 408.92252,28.115338 L 401.99538,32.230676 397.92406,28.159357 C 393.18355,23.418848 391.20452,22.591544 387.74837,23.905571 385.7889,24.650558 384.95417,26.022571 383.97362,30.10995 382.73025,35.292898 382.74937,35.387663 385.51843,37.769512 387.77548,39.710942 389.02199,40.063481 391.91109,39.577487 399.36128,38.324245 399.40935,38.335524 400.10442,41.5 400.98868,45.525752 401.17131,60 400.33786,60 399.97368,60 397.83618,58.924616 395.58786,57.610257 393.33954,56.295898 389.6079,54.655779 387.29532,53.965549 383.66036,52.880626 382.74751,52.935416 380.55819,54.369917 377.00861,56.695689 374.25667,62.60918 373.46418,69.613807 372.94738,74.181708 373.12185,75.856237 374.20853,76.758105 375.37728,77.728074 375.93438,77.083779 377.3636,73.109246 378.31824,70.454491 380.62693,66.614644 382.49402,64.576253 385.23218,61.586874 386.23795,61.060179 387.69437,61.852966 391.48831,63.918164 396.08513,69.749755 396.64664,73.209942 397.25291,76.945922 397.0025,77.277005 387.51744,85.280233 L 384.53487,87.796836 387.1422,92.856989 C 390.04683,98.494128 391,98.49729 391,92.86979 391,89.443741 391.59573,88.577137 397.09966,83.996723 401.9633,79.949164 403.48308,79.156035 404.59966,80.082711 405.36985,80.721909 406,81.61568 406,82.068868 406,83.937183 413.28111,95.138081 415.39667,96.524256 417.46712,97.880863 418.16693,97.819791 422.84937,95.873854 L 428.01706,93.726259 433.9599,97.394387 C 440.39079,101.36376 444.11889,101.51489 446.06156,97.884972 446.65863,96.769336 448.14751,96 449.7095,96 L 452.34863,96 449.92431,98.628879 C 447.16733,101.6185 442.18891,104 438.69623,104 437.39382,104 434.30874,102.42664 431.8405,100.50365 z M 433,91 C 430.58711,87.611405 428.98877,87.306024 425.52945,89.572659 421.00678,92.536025 418.05081,91.151958 413.70844,84.03774 410.08836,78.106867 409.80867,77.142785 410.3071,72.313449 410.6058,69.419332 411.13545,66.589849 411.48411,66.025709 412.74989,63.977631 416.66525,65.077276 420.29398,68.5 422.33484,70.425 424.6336,72 425.40232,72 429.20146,72 437.27636,60.255038 443.40951,45.808474 445.85451,40.049311 447.01234,38.611006 451.71919,35.485831 454.72706,33.488717 457.48324,32.158004 457.84402,32.528691 458.20481,32.899378 457.45553,33.944567 456.17895,34.851334 450.70054,38.742709 447,42.311084 447,43.702463 447,47.414864 437.18143,64.988434 432.16756,70.25 427.73051,74.906257 424.7625,75.059371 419.05702,70.926348 416.72334,69.235839 414.59148,68.075189 414.31954,68.347125 414.04761,68.61906 413.44341,70.533969 412.97689,72.602478 412.1077,76.456346 413.64293,80.195484 418.82469,86.845158 L 420.65216,89.190317 424.56127,87.095158 C 429.68119,84.351046 430.59068,84.436837 434.15385,88 437.92289,91.76904 439.39278,91.761071 443.20291,87.950938 444.87989,86.273954 446.96854,85.039876 447.84435,85.208542 449.13473,85.457045 448.96859,85.963332 446.96837,87.878012 443.55861,91.141947 438.83068,93.991789 436.81809,93.996262 435.89305,93.998318 434.1749,92.65 433,91 z M 443.44897,30.532119 C 442.65204,28.624784 442,26.337284 442,25.448785 442,23.239155 444.41596,24.201513 444.84706,26.582866 445.47884,30.072727 446.85586,30.482682 450.03969,28.128776 451.71907,26.887155 453.85948,26.018872 454.79615,26.199258 456.03315,26.437483 455.16012,27.549682 451.60579,30.263616 448.91442,32.318627 446.30414,34 445.80517,34 445.3062,34 444.24591,32.439453 443.44897,30.532119 z M 444,94.073242 C 444,92.891038 450.1293,89.795056 450.91233,90.581743 451.69502,91.368091 447.15489,95 445.38922,95 444.62515,95 444,94.582959 444,94.073242 z"/>
</svg>
