<svg xmlns="http://www.w3.org/2000/svg"
     width="33.8" height="64.0"
     viewBox="1856.7812 16.0476 50.5028 95.6899">
  <path d="M 1860.7812,62.625 1860.8438,66.28125 C 1861.7685,66.492325 1862.5057,66.229779 1863.7188,65.5625 1868.2535,63.068091 1874,57.420776 1874,55.46875 1874,54.470344 1873.4034,52.962057 1872.6562,52.09375 1868.4589,47.215532 1868.005,38.389132 1871.5938,31.1875 1874.7386,24.876799 1877.5214,24.033994 1876.3125,29.75 1875.1088,35.441146 1875.8332,43.859726 1877.9688,48.6875 1881.3368,56.301572 1884.1563,54.294024 1891.6875,39 1894.7772,32.725527 1896.0369,30.961944 1896.5312,32.25 1897.505,34.787837 1895.4941,44.944396 1892.5938,52.125 1890.2084,58.030221 1890.1784,58.439721 1891.8438,59.9375 1894.7589,62.559225 1898.8681,71.453076 1899.5625,76.6875 1900.199,81.485828 1897.666,94 1896.0625,94 1895.695,94 1895.3451,90.9625 1895.2812,87.25 1895.1419,79.144084 1893.913,75.565938 1889.75,71.25 1885.7669,67.120601 1883.451,66.898552 1884.5625,70.75 1885.9399,75.523361 1885.3821,78.820949 1882.4062,83.21875 1878.8559,88.465324 1877,92.6055 1877,95.25 1877,96.980579 1876.7914,97.055871 1875.4062,95.90625 1873.3894,94.232408 1874.0302,88.377898 1876.9375,81.96875 1879.3773,76.590052 1879.5392,72.219331 1877.4375,69.21875 1875.8305,66.924423 1872.5732,66.263559 1871.5,68 1871.1645,68.542885 1868.8694,70.377521 1866.375,72.09375 L 1861.8125,75.21875 1861,74.625 1861.0625,77.8125 C 1861.1516,77.832726 1861.3692,78 1861.4375,78 1862.3391,78 1865.5499,76.194327 1868.5625,73.96875 1871.5752,71.743174 1874.4924,70.166965 1875.0312,70.5 1876.7579,71.567085 1876.0725,77.481492 1873.5,83.8125 1872.125,87.196396 1871,91.096406 1871,92.5 1871,95.845115 1873.2088,100.93559 1875.9062,103.75 1879.728,107.7375 1881.1062,106.7529 1880.375,100.53125 1879.6578,94.42894 1880.7305,90.816835 1885.125,84.6875 1886.6266,82.593148 1888.1446,79.555648 1888.5,77.9375 1888.8554,76.319352 1889.5738,75 1890.0938,75 1893.0691,75 1894.1454,91.3028 1891.5,96.375 1889.7443,99.741452 1889.5865,101.63831 1891.0312,102.53125 1892.5455,103.46715 1896.7317,100.43519 1898.3125,97.25 1900.7215,92.396015 1903.284,79.252329 1902.5625,75.40625 1901.9363,72.068665 1897.1596,62.182174 1894.75,59.21875 1894.0049,58.302319 1894.478,55.963009 1896.4375,50.96875 1898.4876,45.743225 1899.1875,42.249119 1899.1875,37.03125 1899.1875,21.567656 1896.4653,20.047584 1892,32.96875 1889.1787,41.132723 1884.6796,48.959275 1882.375,49.71875 1879.6919,50.602966 1877.3759,37.024632 1879.0938,30.5 1880.8171,23.955139 1880.7062,22.543277 1878.4375,22.21875 1875.3121,21.771679 1871.1293,25.640851 1868.2812,31.65625 1866.1191,36.222725 1865.8254,38.054436 1866.25,43.34375 1866.5263,46.786397 1867.5246,51.080517 1868.4688,52.90625 L 1870.1562,56.21875 1866.875,59.625 C 1864.2649,62.317971 1862.4791,63.210294 1860.7812,62.625 z"/>
</svg>
