<svg xmlns="http://www.w3.org/2000/svg"
     width="37.0" height="64.0"
     viewBox="1756.8698 15.0780 54.3566 93.9220">
  <path d="M 1779.6669,103.18438 C 1778.7632,102.18579 1777.7372,99.935793 1777.3869,98.184383 1776.5721,94.110516 1774.285,94.049284 1770.5,98 1767.3083,101.33139 1765.8211,101.69427 1764.0593,99.571488 1762.2541,97.396298 1767.0897,88.223947 1772.0049,84.5 1774.1828,82.85 1776.3101,80.375 1776.7323,79 1777.9437,75.055158 1777.5766,53.931677 1776.2174,49.368581 1774.6285,44.034407 1770.3981,41.853921 1766.5411,44.381124 1763.5472,46.342802 1763,46.389791 1763,44.685212 1763,42.762173 1769.1986,40.124146 1772.3166,40.720197 1775.6124,41.350231 1775.7476,40.050982 1772.6855,37.174314 1770.2625,34.89801 1766.5555,34.292178 1765.5,36 1765.1601,36.55 1764.121,36.986809 1763.191,36.970687 1761.941,36.949018 1762.3454,36.172218 1764.7416,33.992257 1767.5002,31.482575 1768.3667,31.188932 1770.5567,32.02157 1774.0136,33.335857 1774,33.341524 1774,30.583407 1774,29.108066 1772.9445,27.397906 1771.29,26.192703 L 1768.58,24.218593 1765.29,26.727985 C 1761.3172,29.758207 1760.8698,27.898825 1764.75,24.483635 1768.2528,21.400653 1769.5123,21.411855 1773.2528,24.559259 L 1776.2943,27.118518 1779.9393,23.559259 C 1784.5153,19.090975 1786.5235,19.07803 1789.1325,23.5 1790.2683,25.425 1791.5189,27 1791.9117,27 1792.3045,27 1793.9192,25.65 1795.5,24 1797.0808,22.35 1798.77,21 1799.2538,21 1799.7377,21 1801.7852,22.558273 1803.8039,24.462829 1806.7501,27.24237 1807.2264,28.173554 1806.218,29.181969 1805.2096,30.190384 1804.4642,29.901737 1802.4404,27.71914 1801.0537,26.223613 1799.3023,25 1798.5484,25 1797.0981,25 1792,30.509435 1792,32.076725 1792,33.320944 1795.7228,33.257469 1796.5,32 1797.5309,30.332032 1799.6864,30.865235 1802.9233,33.588894 1806.201,36.346927 1806.9741,39 1804.5,39 1803.675,39 1803,38.560374 1803,38.023053 1803,37.485732 1801.9093,36.331445 1800.5762,35.45797 1798.3617,34.006954 1797.8868,34.00718 1795.0762,35.460597 1792.8927,36.589712 1792,37.772851 1792,39.537498 1792,41.86341 1792.2491,41.983809 1795.8646,41.405662 1799.8943,40.761278 1804,42.939702 1804,45.722241 1804,47.467821 1802.5175,47.328463 1800.9462,45.435181 1800.0256,44.325951 1798.3179,43.967071 1795.0806,44.202529 1790.9258,44.504715 1790.456,44.80391 1789.8751,47.517348 1788.6902,53.052783 1788.9906,63.543569 1790.5,69.338691 1791.325,72.50608 1792,76.199328 1792,77.545909 1792,78.89249 1793.4831,81.683035 1795.2958,83.747119 1801.6277,90.957301 1803.8133,96.50542 1801.5443,99.608509 1800.4796,101.06454 1799.8742,100.96996 1795.2459,98.624591 1790.3914,96.164625 1790.0944,96.127155 1789.5307,97.903412 1788.7035,100.50964 1784.3831,105 1782.7027,105 1781.9367,105 1780.5706,104.18297 1779.6669,103.18438 z M 1773.3848,92.618456 C 1775.7674,90.629182 1776.1482,89.726738 1775.5727,87.433694 L 1774.8759,84.65742 1771.4972,88.07871 C 1769.6388,89.960419 1767.8058,92.785949 1767.4238,94.357664 1766.7932,96.951724 1766.9031,97.114394 1768.6146,96.121136 1769.6516,95.51933 1771.7981,93.943125 1773.3848,92.618456 z M 1785.385,99.535183 C 1786.2732,98.179534 1787,96.244534 1787,95.235183 1787,94.225832 1787.4472,92.9528 1787.9938,92.406222 1789.9478,90.452245 1790.3687,79.423331 1788.6856,74.27778 1785.953,65.923072 1785.5682,57.315815 1787.5316,48.459992 1790.3344,35.818031 1790.4252,32.749685 1788.1487,27.603279 1787.0288,25.071476 1785.4588,23 1784.6598,23 1782.9367,23 1777.4503,29.005905 1776.5328,31.896522 1776.1788,33.011885 1776.3625,34.808853 1776.941,35.889785 1777.5195,36.970717 1777.7096,38.593072 1777.3635,39.495018 1777.0174,40.396965 1777.2121,42.117064 1777.7962,43.317461 1778.3802,44.517857 1779.3344,50.911247 1779.9165,57.524993 1780.8026,67.593072 1780.7135,70.929186 1779.3685,78.024993 1778.0316,85.078611 1777.9611,87.586474 1778.9479,92.978081 1780.6284,102.15882 1782.4501,104.01446 1785.385,99.535183 z M 1800,95.960162 C 1800,94.275754 1796.2787,87.476173 1794.5897,86.074412 1793.2613,84.971987 1792.876,85.195961 1791.9611,87.602277 1790.5528,91.306468 1791.4154,94.414199 1794.2283,95.769806 1797.1706,97.187823 1800,97.281139 1800,95.960162 z"/>
</svg>
