<svg xmlns="http://www.w3.org/2000/svg"
     width="55.9" height="64.0"
     viewBox="2497.0000 15.0000 78.5644 90.0029">
  <path d="M 2540.5,98.941759 C 2533.326,94.369365 2530.2803,93.993582 2526.0062,97.153509 2521.7794,100.27853 2517.4502,99.822605 2513.2773,95.812976 2507.6246,90.38148 2506.6304,87.596371 2506.5616,77 2506.5034,68.022855 2506.7048,67.075686 2510.2208,59.790438 2515.0554,49.773123 2515.7684,47 2513.5095,47 2507.5931,47 2501,39.808802 2501,33.355562 2501,26.828138 2507.5753,19 2513.058,19 2515.1685,19 2517.4302,22.069437 2518.4001,26.25 2518.8797,28.317405 2519.6393,29 2521.46,29 2522.7921,29 2524.1641,28.54357 2524.5088,27.98571 2525.5761,26.258842 2533.1161,22.83056 2534.597,23.39883 2537.9948,24.702707 2534.642,33.069836 2528.7195,38.066229 2526.0711,40.30054 2525.6872,41.261491 2525.7512,45.49582 2525.8342,50.987447 2526.9361,52.2274 2535.5479,56.520484 2539.8909,58.685534 2541.0391,58.882343 2543.771,57.93 2548.1835,56.391762 2551.0589,51.298986 2551.6233,44.022268 2552.2878,35.453774 2550.7973,31.093089 2545.9959,27.558173 2543.7981,25.940167 2542,23.957923 2542,23.153185 2542,21.539734 2543.2497,22.413289 2550.25,28.920212 2553.9573,32.366163 2554,32.49372 2554,40.110661 2554,46.512442 2553.5475,48.687638 2551.3242,52.972953 2546.65,61.982146 2541.8802,62.772102 2530.4027,56.437882 2522.1906,51.90578 2521.9629,51.544769 2522.9108,44.559568 2523.6626,39.019593 2524.262,38.01813 2528.524,35.181534 2530.1428,34.104153 2533,29.223149 2533,27.535183 2533,25.343357 2531.9452,25.601038 2526.7026,29.073628 2520.4574,33.210225 2518.0137,32.74264 2515.8652,27 2514.3976,23.077553 2513.8334,22.526296 2511.4694,22.704887 2507.832,22.979665 2505.1718,25.567317 2504.4229,29.559114 2502.9424,37.4512 2507.3978,44 2514.2477,44 L 2518.2226,44 2517.5578,47.75 C 2517.1921,49.8125 2515.2869,54.875 2513.3238,59 2507.3099,71.637544 2507.6232,85.084441 2514.1037,92.465289 2518.3483,97.299691 2520.2526,97.628027 2525.6617,94.458095 2529.8805,91.985751 2530.5906,91.860385 2534.2191,92.947502 2536.3954,93.599529 2539.7251,95.00308 2541.6184,96.066503 2545.9951,98.52473 2549.0836,98.508141 2554,96 2558.7584,93.572428 2560.7882,93.345343 2559.0543,95.434536 2556.9911,97.920601 2550.0685,101.00295 2546.7192,100.92691 2544.9486,100.88671 2542.15,99.993394 2540.5,98.941759 z M 2538.6306,90.144361 C 2537.707,89.12376 2535.4446,87.477299 2533.603,86.48556 2530.3408,84.728707 2530.1809,84.734471 2527.3774,86.710003 2522.0349,90.474698 2520.2714,90.49363 2518.0258,86.810396 2514.9715,81.800787 2515.4146,76.438838 2519.5692,68.134357 2523.6513,59.974618 2524.7056,59.571088 2531.5154,63.5619 2538.6562,67.746701 2547.1998,66.614353 2553.0452,60.708387 2555.4674,58.261195 2557.1689,51.971328 2559.4678,36.967491 2559.8114,34.724727 2561.612,31.621314 2564.3995,28.467491 2569.6791,22.493937 2571.5644,22.938334 2566.5261,28.968776 2562.6395,33.620724 2562.8164,33.078425 2560.3218,47.992913 2558.6558,57.95377 2558.3623,58.690034 2554.5334,62.513076 2547.8039,69.23227 2538.6655,70.785547 2531.1479,66.487955 2528.7543,65.11958 2526.2793,64.019047 2525.6479,64.042326 2522.447,64.160351 2517.3808,76.904153 2518.5032,82.014581 2519.5718,86.880007 2521.4949,87.652176 2526.099,85.064536 2530.7211,82.466734 2533.5728,82.809615 2538.4811,86.553355 2540.2453,87.89901 2542.2078,89 2542.8421,89 2543.4764,89 2546.21,87.40898 2548.9167,85.464401 2555.7001,80.591012 2556.1375,82.598205 2549.4241,87.792663 2543.4301,92.430456 2541.1493,92.927412 2538.6306,90.144361 z M 2551.7381,25.340288 C 2549.6822,23.877447 2548,22.302447 2548,21.840288 2548,20.346437 2550.6626,20.946772 2553.3248,23.040868 L 2555.9194,25.081736 2559.98,22.394529 C 2562.2134,20.916566 2564.2925,19.95915 2564.6003,20.266939 2565.2777,20.944385 2557.919,27.934681 2556.4881,27.972942 2555.9316,27.987824 2553.7941,26.80313 2551.7381,25.340288 z M 2550,92.004666 C 2550,90.926015 2556.967,85.997739 2558.4821,86.004627 2559.8169,86.010696 2554.0136,91.414438 2551.75,92.273274 2550.7875,92.63845 2550,92.517577 2550,92.004666 z"/>
</svg>
