<svg xmlns="http://www.w3.org/2000/svg"
     width="58.6" height="64.0"
     viewBox="149.9552 15.0000 80.7011 88.1758">
  <path d="M 225.53125,52.5 C 224.19503,54.057933 212.17685,60 210.15625,60 209.3936,60 206.87511,57.896536 204.53125,55.34375 200.21557,50.64338 198.90319,50.309329 193.875,52.4375 191.44101,53.467681 191.02454,51.054698 192.46875,44.40625 194.97843,32.852972 196.73456,31.024492 201.875,34.625 204.04318,36.14365 204.31682,36.120677 206.125,34.3125 209.7615,30.676003 209.38955,20 205.625,20 204.84166,20 201.86054,21.575 199,23.5 196.13946,25.425 193.51348,26.980493 193.15625,26.96875 192.79902,26.957006 191.23567,25.157006 189.6875,22.96875 188.13933,20.780493 186.30747,19 185.625,19 184.94252,19 182.86371,20.125 181,21.5 176.88959,24.532562 175.86099,24.580901 173.46875,21.9375 172.20708,20.543375 170.6342,19.984339 168.5625,20.1875 164.50858,20.585048 162.45977,24.621129 163.6875,29.8125 164.75202,34.313752 167.12369,35.012652 171.15625,32.03125 175.14172,29.084667 177.25931,29.759464 178.8125,34.5 180.18651,38.693634 180.61977,49.188172 179.5,51 179.06561,51.702856 177.72754,51.36932 175.5625,50.03125 173.75363,48.913307 171.49595,48 170.5625,48 169.62905,48 166.47099,50.404014 163.53125,53.34375 155.97659,60.898414 153.95516,69.126844 158.03125,75.8125 160.40473,79.705506 162.37729,79.563 162.75,75.4375 162.89523,73.829916 163.25062,71.100858 163.53125,69.375 164.68664,62.269289 173.90833,57.97879 176.03125,63.5625 178.01973,68.792584 177.22406,71.210577 171.875,76.3125 166.80249,81.150645 166.76211,81.226742 167.21875,86.34375 167.84445,93.355183 170.38196,99.175775 172.46875,98.375 174.66755,97.531242 177,92.708388 177,89 177,85.504815 179.33771,81.416887 182.21875,79.875 183.70441,79.079901 184.61783,79.25509 186.0625,80.5625 187.57942,81.935292 187.9001,83.497505 187.75,88.5625 187.60384,93.494495 187.97653,95.323143 189.4375,96.9375 190.86422,98.514005 191.62621,98.729857 192.65625,97.875 193.39777,97.259598 194,96.226943 194,95.5625 194,94.898058 195.12731,92.111963 196.5,89.40625 197.8727,86.700537 198.9977,84.030936 199,83.46875 199.00231,82.906564 197.62539,80.766455 195.9375,78.71875 192.7004,74.791593 192.655,72.984424 195.75,68.25 197.728,65.224257 198.51704,65.377739 202.21875,69.59375 204.99382,72.75439 205.82199,73.146909 208.9375,72.71875 210.89215,72.450128 215.2,70.390389 218.5,68.15625 222.98649,65.118844 224.11477,64.502905 224.5625,65.34375 L 225.34375,64.65625 226,59.03125 C 226,60.278413 224.94666,61.508449 223.25,62.25 221.7375,62.91106 218.925,64.659473 217,66.15625 215.075,67.653026 212.2116,69.373817 210.625,69.96875 207.92749,70.980242 207.44854,70.763952 203.5625,66.53125 201.27684,64.041689 198.98533,62 198.4375,62 196.81993,62 190,71.773857 190,74.09375 190,75.266389 191.40474,77.984245 193.125,80.15625 L 196.25,84.125 194.375,87.625 C 191.63641,92.769812 191,92.692395 191,87.1875 191,81.828845 188.61498,77.655772 184.875,76.46875 183.28173,75.963066 181.7664,76.796014 178.40625,80.09375 174.58799,83.84109 174,84.97606 174,88.65625 174,92.751305 172.41846,95.487854 171.59375,92.8125 171.37107,92.09014 170.70023,90.021747 170.125,88.21875 169.54977,86.415752 169.36486,84.165752 169.71875,83.21875 170.50807,81.106588 175.86366,76.224296 178.25,75.4375 180.95145,74.546808 180.76056,62.760563 178,60 173.60113,55.601125 165.15038,59.132916 161.28125,67 L 159.09375,71.5 159.03125,68.15625 C 159.00858,66.314371 159.71222,63.295198 160.59375,61.4375 162.27521,57.894094 169.20445,51 171.09375,51 171.6999,51 174.2505,52.375606 176.75,54.0625 179.61129,55.99356 181.55624,56.729952 181.96875,56.0625 183.29538,53.915967 183.0148,40.333106 181.53125,34.6875 179.48094,26.88512 179.59784,25.485613 182.4375,23.625 184.81101,22.069811 184.93957,22.175431 189.03125,27.0625 192.81951,31.587164 193.11051,32.312102 192.125,34.78125 190.90508,37.837717 189.22196,45.286745 188.5625,50.4375 187.93331,55.351833 189.90878,56.732035 194.875,54.78125 L 198.71875,53.28125 203,58.21875 C 206.93946,62.792178 207.53287,63.117199 210.65625,62.53125 212.51666,62.182235 216.22095,60.786251 218.90625,59.4375 224.83685,56.458729 226,56.412765 226,59.03125 L 226.65625,53.34375 225.53125,52.5 z M 169.125,22.96875 C 170.32973,22.73436 171.68172,23.264489 172.6875,24.875 173.67754,26.4603 173.41834,27.063942 170.96875,28.875 167.43202,31.489818 167.28904,31.486048 166.5,29 165.50383,25.861332 167.11711,23.3594 169.125,22.96875 z M 204.09375,24.21875 C 204.77329,24.501194 205,25.554236 205,27.5 205,31.173815 204.23589,31.57088 200.25,29.96875 197.34753,28.8021 197.40982,27.629283 200.46875,25.625 202.28575,24.434451 203.41421,23.936306 204.09375,24.21875 z"/>
</svg>
