<svg xmlns="http://www.w3.org/2000/svg"
     width="15.5" height="64.0"
     viewBox="1059.0179 16.7071 22.1383 91.2929">
  <path d="M 1077.1562,42.5 1076,41.34375 1076.125,38.25 C 1075.8722,37.539756 1075.9886,36.408217 1076.2812,35.125 L 1076.5312,29.03125 1076.5,29.0625 1076.1875,25.53125 C 1075.8456,21.645025 1074.1218,20.707122 1068.2188,21.21875 L 1064.9688,21.5 1064.5312,36.5 C 1064.3029,44.746022 1063.8293,63.3125 1063.4688,77.75 1063.1082,92.1875 1063.0179,104 1063.2812,104 1063.5446,104 1065.0496,103.32161 1066.625,102.5 1068.2004,101.67839 1071.1374,101.00339 1073.1562,101 L 1076.8438,101 1076.4062,77.25 C 1076.1648,64.1875 1075.9171,51.25 1075.8438,48.5 1075.7649,45.545964 1076.2098,44.011854 1077.1562,42.5 z M 1068.4062,23.6875 C 1069.0116,23.457435 1070.4675,23.620509 1071.6562,24.0625 1073.8157,24.865361 1073.8374,24.907502 1073.9375,61.9375 L 1074.0312,99 1069.8438,99 1065.6875,99 1066.5,82.25 C 1066.9448,73.0375 1067.3142,56.197664 1067.3125,44.8125 1067.3105,30.667101 1067.654,23.973343 1068.4062,23.6875 z"/>
</svg>
