<svg xmlns="http://www.w3.org/2000/svg"
     width="25.6" height="64.0"
     viewBox="1544.6562 13.4419 36.3008 90.8353">
  <path d="M 1548.6562,83.59375 1549.1875,89.5625 1554.5312,82.6875 C 1558.9869,76.957873 1560.0028,74.990931 1559.5312,73 1558.0176,66.610067 1557.9176,52.951097 1559.3125,43.9375 1560.7798,34.456264 1560.6057,29 1558.8438,29 1558.3401,29 1557.6002,28.2125 1557.1875,27.25 1555.7918,23.994872 1552.5046,19.006361 1551.75,19 1550.6115,18.990402 1550.8631,21.456794 1552.125,22.71875 1553.2154,23.809157 1553.7135,24.621628 1557.1875,30.71875 1558.7625,33.482864 1558.7818,34.468905 1557.3438,44.59375 1556.2914,52.002699 1555.9851,58.7164 1556.4062,65.53125 L 1557.0312,75.5625 1553.9375,79.78125 C 1551.6013,82.957979 1550.3047,83.991947 1548.6562,83.59375 z M 1558.1562,19 C 1556.6848,19 1557.79,21.947559 1560.3125,24.75 1563.1167,27.865309 1564.6967,27.572901 1568.6562,23.25 1572.6276,18.91438 1571.2357,17.441904 1567,21.5 L 1564.125,24.25 1561.6875,21.625 C 1560.3503,20.182168 1558.7634,19 1558.1562,19 z M 1549.7812,96.28125 1550.0625,99.59375 C 1553.0438,100.27719 1555.4008,98.088849 1560.2812,91.6875 1565.832,84.406913 1566.2834,83.407214 1567.0625,76.6875 1567.5216,72.727754 1567.968,64.55 1568.0312,58.5 1568.2418,38.381084 1569.0807,32.945387 1572.75,28.3125 1575.8331,24.419808 1576.957,21 1575.1562,21 1574.3185,21 1568.077,29.764447 1566.25,33.5 1565.712,34.6 1565.2108,41.575 1565.125,49 1565.0393,56.425 1564.6201,67 1564.2188,72.5 1563.4282,83.335178 1562.6139,85.236894 1554.9688,93.375 1552.0808,96.449151 1551.4061,96.988073 1549.7812,96.28125 z"/>
</svg>
