<svg xmlns="http://www.w3.org/2000/svg"
     width="36.6" height="64.0"
     viewBox="717.2478 14.4007 51.2233 89.6557">
  <path d="M 752.74103,94.75 749.04466,90.5 745.48747,94.5 741.93029,98.5 739.14232,95.25 C 737.60893,93.4625 735.90881,92 735.36427,92 734.81972,92 733.0808,93.35 731.5,95 726.65573,100.05633 724.04954,98.471086 724.01365,90.446344 724.00614,88.766834 725.19509,84.99446 726.65575,82.063292 729.31096,76.734986 729.31112,76.733154 727.4578,73.116948 726.43826,71.127626 724.73814,68.512413 723.67975,67.305363 721.24776,64.53179 721.8658,61.81187 726.61504,54.387621 728.57764,51.319577 729.95649,48.064753 729.67914,47.154679 729.40179,46.244606 728.23553,42.923742 727.08744,39.774983 725.93935,36.626223 725,31.984139 725,29.459241 725,20.516718 728.78001,18.400658 733.55988,24.667394 L 736.35714,28.334788 739.00139,25.167394 C 742.40559,21.089712 744.32358,21.169468 747,25.5 749.6454,29.780349 751.24212,29.872615 755.65278,26 759.66381,22.478268 761.52137,22.237155 763.02318,25.043316 764.47101,27.748605 761.90369,36.823994 757.91869,43.087547 756.31341,45.610698 755,48.213158 755,48.870791 755,49.528424 756.1289,52.294263 757.50867,55.0171 760.20808,60.344142 760.23192,59.889959 756.57307,72.845774 755.1176,77.999541 755.1476,78.358716 757.40848,82.845774 760.50396,88.989259 761.30696,93.062438 760.06605,96.326276 758.65657,100.03349 757.03225,99.683949 752.74103,94.75 z M 732.48254,91.450793 C 736.30936,87.623977 737.23776,87.69825 739.8797,92.042572 741.76895,95.1492 742.30001,95.000537 746.17635,90.279928 L 748.82051,87.059856 752.9114,91.029928 C 755.16139,93.213468 757.22677,95 757.50114,95 758.44566,95 757.99786,90.089129 756.79876,87.297053 756.13807,85.758674 754.75313,83.25646 753.7211,81.736577 751.86674,79.005614 751.87497,78.882239 754.42235,71.233168 757.61064,61.659586 757.61846,59.623987 754.48795,54.147926 751.60558,49.105909 751.37303,46.765225 753.57309,44.939342 755.43679,43.392605 758.23941,38.014071 759.97261,32.657936 761.8883,26.737849 760.00876,25.855923 755.04106,30.34394 752.81531,32.354773 750.55118,34 750.00966,34 749.46815,34 747.8888,32.2 746.5,30 745.1112,27.8 743.56322,26 743.06004,26 742.15033,26 739.50595,29.09735 737.3948,32.635663 736.39781,34.306637 736.08677,34.090406 734.21789,30.427098 731.20824,24.527691 729.44288,23.303963 727.95435,26.085289 726.33108,29.118404 727.39971,35.854935 730.56577,42.547447 L 733.16151,48.034389 728.58076,55.194155 C 726.06134,59.132025 724,62.742509 724,63.217452 724,64.020008 727.80475,69.87564 729.05677,71 729.363,71.275 730.19033,72.926851 730.89528,74.670781 732.04182,77.507124 731.94945,78.149355 730.01952,80.759729 727.65986,83.951339 726.23936,89.223071 726.78867,92.75 727.2689,95.833365 728.34566,95.587673 732.48254,91.450793 z M 737.1077,81.9367 C 735.58875,79.438986 735.42166,78.176608 736.20272,75.099471 737.04092,71.797226 736.83814,70.85031 734.58032,67.523224 731.16741,62.494022 731.32102,60.307045 735.5,54.42922 739.01934,49.479191 739.85361,47 738,47 736.68576,47 736.71134,40.407879 738.03518,37.934259 739.22712,35.707105 743.77371,35.325195 746.18121,37.25 748.54037,39.13616 749.06901,42.965862 747.41241,46.169372 746.02666,48.849125 746.12214,49.422176 748.90462,55.125514 L 751.8773,61.218722 749.22422,65.970626 746.57113,70.72253 748.44871,74.886259 750.32629,79.049989 747.47605,82.024994 C 743.58697,86.084327 739.60942,86.050455 737.1077,81.9367 z M 746.05691,66.920083 C 748.74094,63.150705 748.81515,60.399596 746.375,55.127298 743.82447,49.616504 742.12322,49.181551 738.81054,53.193318 734.39874,58.536163 733.47437,61.548841 735.36261,64.43066 736.74652,66.542781 741.07339,69.565916 743.18191,69.893921 743.55695,69.952265 744.8507,68.614037 746.05691,66.920083 z M 745.17126,81.345012 C 748.96788,77.909117 745.92667,71.295943 741.35233,73.040682 740.17111,73.491222 738.90026,74.352359 738.52823,74.954321 737.41954,76.748221 739.00176,81.844365 740.81615,82.323414 741.74227,82.567935 742.68957,82.820198 742.92126,82.883999 743.15295,82.947799 744.16545,82.255256 745.17126,81.345012 z M 744.8,45.8 C 747.97986,42.620143 744.54199,36.997927 740.72418,39.134482 737.71654,40.81764 739.11235,47 742.5,47 743.105,47 744.14,46.46 744.8,45.8 z"/>
</svg>
