<svg xmlns="http://www.w3.org/2000/svg"
     width="59.3" height="64.0"
     viewBox="855.7818 16.9266 83.6680 90.3743">
  <path d="M 903.21875,21.6875 C 902.2384,21.601033 900.69756,22.76357 898.25,25.125 892.42373,30.746246 890.51052,30.922283 888.03125,26.0625 885.47063,21.043273 883.69871,20.926574 877.75,25.46875 873.03809,29.06656 869.1619,36.388896 870.34375,39.46875 871.42412,42.284158 877.25312,45.125565 880.8125,44.59375 L 884.09375,44.125 883.8125,49.3125 883.5,54.5 876.65625,54.15625 C 870.27451,53.821948 869.62289,53.986926 866.8125,56.65625 861.79713,61.419889 859.78184,66.439247 860.3125,72.71875 861.12968,82.388759 865.70439,83.506659 868.09375,74.625 870.06014,67.315585 871.72724,65 875,65 877.03358,65 878.44928,65.769758 879.5625,67.46875 881.0724,69.773145 881.04553,70.116572 879.1875,72.71875 878.09406,74.250122 875.3512,77.196582 873.09375,79.28125 868.48307,83.53904 868.14226,85.484457 870.96875,90.8125 872.04775,92.846465 873.16228,95.7375 873.46875,97.25 874.69483,103.30092 881,98.591537 881,91.625 881,87.188799 883.86184,81.999939 886.3125,82 887.44463,82.000029 893,88.226184 893,89.5 893,90.918403 898.32613,96.980147 900.0625,97.53125 901.21772,97.897903 903.3746,97.134159 905.6875,95.5625 910.50033,92.292097 911.49221,92.327921 915.78125,96.09375 918.7334,98.685775 919.88608,99.126071 922.78125,98.65625 925.89642,98.150727 930.54763,95.20388 929.65625,94.3125 929.46233,94.118575 927.67928,94.667781 925.6875,95.5 921.01467,97.452432 921.49091,97.553406 917.4375,93.5 913.28556,89.348057 911.9032,89.214633 906.15625,92.5 903.76261,93.868375 901.36033,95 900.84375,95 900.32717,95 898.52199,92.75 896.8125,90 895.10301,87.25 893.34294,85 892.90625,85 892.46956,85 891.31843,83.65 890.34375,82 889.36907,80.35 887.91657,79 887.125,79 886.33342,79 883.95859,80.808091 881.84375,83.03125 878.56306,86.479979 878,87.727771 878,91.53125 878,93.983091 877.55,96 877,96 876.45,96 876.00362,95.2125 876,94.25 875.99638,93.2875 875.09275,91.15 874,89.5 872.90725,87.85 872.00362,85.907924 872,85.1875 871.99638,84.467077 874.15087,81.542077 876.78125,78.6875 884.44508,70.370441 884.35264,70.586748 882.5625,67.125 881.46967,65.011693 879.76039,63.711394 876.96875,62.875 873.3347,61.786211 872.7773,61.878591 870.71875,63.8125 869.47031,64.985341 867.59628,68.427402 866.5625,71.46875 865.52871,74.510099 864.30442,77 863.84375,77 863.38308,77 862.99794,74.4125 863,71.25 863.00807,58.840346 870.97834,53.770114 883.09375,58.46875 885.62187,59.449213 886.72341,57.036691 887.46875,48.84375 888.25901,40.157173 887.67477,39.247779 882.65625,41.0625 879.97866,42.030727 878.7956,42.001896 876.4375,40.875 870.97242,38.263334 872.65617,32.73027 880.6875,27.03125 884.10298,24.60763 884.31111,24.568216 885.375,26.34375 887.40089,29.724775 890.14202,33 890.9375,33 891.36849,33 893.84572,31.385224 896.4375,29.40625 899.02928,27.427276 901.38417,26.040421 901.6875,26.34375 903.13664,27.792888 900.70012,34.074288 897.71875,36.5625 895.94995,38.038714 893.94926,40.205559 893.28125,41.375 892.09857,43.445433 891.46625,59 892.5625,59 892.86481,59 894.4123,58.305943 896.03125,57.46875 903.15685,53.783959 903.40289,53.808789 909.65625,58.53125 912.87023,60.958409 916.28467,62.954095 917.25,62.96875 919.6964,63.005889 935.02873,54.850953 934.40625,53.84375 934.12671,53.391447 930.43019,54.773063 926.1875,56.90625 L 918.46875,60.78125 915,58.9375 C 913.08286,57.929015 910.1918,55.969971 908.59375,54.5625 905.21022,51.582475 904.46568,51.490493 899.65625,53.5 897.68175,54.325 895.82391,55 895.53125,55 895.23858,55 895,52.26125 895,48.90625 895,43.25053 895.26743,42.545069 898.5625,39.25 903.46519,34.347315 905.17201,30.63478 904.8125,25.6875 904.62401,23.09357 904.1991,21.773967 903.21875,21.6875 z M 934.53125,61.53125 C 933.61266,61.626737 931.58508,62.457355 928.96875,64 922.03886,68.086006 914.23379,71.001873 912.15625,70.28125 911.24033,69.963553 908.82107,67.948111 906.78125,65.78125 904.66523,63.533439 902.36777,61.967247 901.40625,62.15625 898.7042,62.687383 895.81386,67.40538 895.3125,72.125 894.92691,75.754713 895.38355,77.305491 897.9375,81.28125 901.78865,87.276393 903.3782,87.883443 908.0625,85.1875 L 911.78125,83.0625 916.15625,85.46875 C 921.48727,88.404315 920.99776,88.337991 924,86.03125 926.88889,83.811598 926.18884,82.262364 923.15625,84.15625 921.4107,85.246361 920.506,85.101411 917.15625,83.21875 912.48827,80.595197 910.24633,80.451257 907.1875,82.59375 904.31017,84.609107 902.51607,83.908018 900,79.78125 897.71058,76.026235 897.41874,69.368217 899.40625,66.75 901.25281,64.317451 901.72133,64.471329 906.25,69 908.96216,71.712151 911.11857,73 912.96875,73 915.66128,73 929.69378,66.534662 933.4375,63.5625 935.27918,62.100379 935.44984,61.435763 934.53125,61.53125 z M 928.8125,89.25 C 926.61063,88.77372 920.77312,91.804559 921.53125,93.03125 921.86691,93.574352 923.91388,93.032673 926.3125,91.78125 929.18754,90.281269 929.96569,89.499443 928.8125,89.25 z"/>
</svg>
