<svg xmlns="http://www.w3.org/2000/svg"
     width="37.0" height="64.0"
     viewBox="2417.5000 14.6118 53.2881 92.1716">
  <path d="M 2423.0376,101.54532 C 2422.251,100.59747 2422.2479,98.285537 2423.0265,93.266892 2424.0699,86.54245 2423.5813,43.376702 2422.3444,33 2422.0494,30.525 2421.7387,26.925 2421.654,25 L 2421.5,21.5 2428,21.5 2434.5,21.5 2435.3926,36.25 C 2436.4005,52.9055 2436.5754,53.164029 2443.7056,48.538476 2451.5269,43.464595 2451.1863,44.025899 2452.0246,34.829084 2452.8625,25.635157 2453.5664,23.607329 2456.9977,20.502087 2459.0757,18.621532 2459.243,18.611842 2460.4778,20.300544 2462.6813,23.313925 2464.3399,50.06846 2462.44,51.951747 2461.923,52.464262 2457.675,54.293464 2453,56.01664 2435.7674,62.368476 2435.3966,62.568042 2437.0739,64.589028 2437.7179,65.365062 2438.911,66 2439.7251,66 2440.5392,66 2443.2966,67.067293 2445.8526,68.371762 2448.4087,69.676231 2452.7018,71.813731 2455.3928,73.121762 2458.0839,74.429793 2461.7564,76.865443 2463.554,78.534317 2466.6962,81.451497 2466.7881,81.752053 2465.9347,86.319906 2465.0141,91.247801 2460.189,99.329774 2457.5668,100.33601 2455.5583,101.10674 2454.5311,99.220926 2454.8628,95.37152 2455.0124,93.635017 2454.6388,90.372448 2454.0327,88.121366 2453.0023,84.294654 2452.4333,83.79874 2445.284,80.495547 2440.2229,78.157173 2437.3017,77.298314 2436.6445,77.95547 2436.0985,78.501547 2435.4468,83.919367 2435.1965,89.995071 2434.9462,96.070774 2434.3878,101.26031 2433.9557,101.52738 2431.9443,102.77049 2424.0652,102.78344 2423.0376,101.54532 z M 2432.2586,94 C 2433.9843,81.489382 2433.4571,27.166666 2431.5806,24.130424 2431.328,23.721776 2429.4872,23.578208 2427.4899,23.811383 L 2423.8584,24.235339 2424.5125,31.867669 C 2424.8722,36.065451 2425.3243,42.65 2425.5171,46.5 2425.7099,50.35 2426.1347,58.45 2426.461,64.5 2426.7873,70.55 2426.6675,80.675 2426.1948,87 2425.7222,93.325 2425.5274,98.863289 2425.7621,99.30731 2425.9968,99.75133 2427.3839,99.97633 2428.8444,99.80731 2431.2493,99.529012 2431.5716,98.980766 2432.2586,94 z M 2444.7161,56.377916 C 2446.7972,55.48577 2449.1898,54.41799 2450.0328,54.005071 2450.8759,53.592153 2453.018,52.935319 2454.7931,52.545441 2460.1818,51.361877 2460.7418,50.134391 2460.3672,40.326422 2459.9267,28.795437 2459.1061,23 2457.914,23 2456.3919,23 2455.2044,27.13969 2454.4367,35.122894 2453.7854,41.895246 2453.4273,42.78814 2450.0686,46.014887 2448.0564,47.948074 2444.0678,50.641811 2441.205,52.000967 2432.2371,56.258681 2435.5014,60.328051 2444.7161,56.377916 z M 2462.1721,89.343844 C 2463.2599,86.884805 2463.84,84.0712 2463.488,82.962057 2462.878,81.040306 2452.1026,73 2450.137,73 2449.602,73 2446.9245,71.875 2444.1869,70.5 2438.1759,67.480833 2437.3176,67.423984 2436.5028,69.991051 2435.5643,72.948262 2436.3459,73.651434 2445.9132,78.456421 2453.9611,82.498295 2454.8085,83.210088 2456.3366,87.211425 2457.2515,89.606917 2458,92.365878 2458,93.34245 2458,96.141656 2460.0226,94.20318 2462.1721,89.343844 z"/>
</svg>
