<svg xmlns="http://www.w3.org/2000/svg"
     width="15.3" height="64.0"
     viewBox="2473.6713 16.4013 21.5272 89.9364">
  <path d="M 2478.3279,100.75 C 2477.8209,100.05876 2477.6713,95.029946 2477.9932,89.5 2478.3134,84 2478.3869,66.400548 2478.1565,50.390107 2477.9107,33.308775 2478.1167,21.045896 2478.6551,20.713148 2479.1598,20.401262 2482.1885,20.675713 2485.3856,21.323041 L 2491.1985,22.5 2491.0283,50 C 2490.9347,65.125 2490.8142,82.293629 2490.7606,88.15251 L 2490.663,98.80502 2485.7167,100.40251 C 2479.7644,102.32488 2479.4926,102.33766 2478.3279,100.75 z M 2484.8508,97.902175 C 2487.8162,96.868427 2488.0048,96.503628 2488.0815,91.652175 2488.1263,88.818479 2488.3186,72.662864 2488.5088,55.750808 L 2488.8546,25.001617 2486.4295,24.392962 C 2481.7917,23.228933 2481.2871,24.173227 2480.671,35.170703 2480.1915,43.727602 2480.3405,97.931157 2480.8458,98.75 2481.0939,99.15222 2481.5293,99.060061 2484.8508,97.902175 z"/>
</svg>
