<svg xmlns="http://www.w3.org/2000/svg"
     width="20.2" height="64.0"
     viewBox="1658.8965 15.3593 28.1035 89.1771">
  <path d="M 1666.4122,97.678117 C 1663.8907,95.5092 1663.6825,94.702166 1663.2532,85.428117 1662.8965,77.722915 1663.232,73.746487 1664.7517,67.668354 1666.5445,60.498067 1666.5834,59.484703 1665.213,55.668354 1664.3897,53.375759 1663.7385,48.461217 1663.7659,44.747149 1663.8125,38.415981 1666.2688,27.67723 1668.1568,25.55 1668.6206,25.0275 1669,23.838784 1669,22.908408 1669,21.02462 1673.7593,19.359281 1675.1548,20.754769 1675.6421,21.242075 1675.5515,23.997215 1674.9475,27.060124 1673.8268,32.743349 1674.5367,51.632265 1675.9573,53.930928 1676.5408,54.875033 1677.2586,54.931972 1678.7196,54.150049 1681.1769,52.834939 1683,54.374907 1683,57.765741 1683,61.981018 1681.2221,64 1677.5101,64 1674.4197,64 1674.0433,64.312772 1673.5991,67.25 1671.3163,82.345939 1672.3506,86.707646 1677.1774,82.339464 1679.9696,79.812522 1680.6684,81.659575 1677.9963,84.503943 1676.7066,85.876774 1674.6252,87 1673.371,87 1671.5454,87 1670.9562,86.283537 1670.4167,83.40759 1669.5182,78.618365 1670.6913,67.812025 1672.6377,62.947453 1673.9885,59.571527 1674.0258,58.297228 1672.9068,53.76381 1672.1922,50.868715 1671.592,43.4375 1671.573,37.25 1671.554,31.0625 1671.4013,26 1671.2337,26 1671.0661,26 1670.0338,28.08815 1668.9398,30.640333 1665.9834,37.537489 1665.3106,48.596143 1667.4496,55.13582 1669.251,60.643113 1669.2928,60.209008 1665.8833,71.399223 1663.862,78.033647 1665.3607,92.78929 1668.3607,95.789259 1670.3278,97.756355 1674.7245,96.061831 1678.9999,91.688873 1681.216,89.422183 1682,89.051725 1682,90.271207 1682,92.139192 1678.9394,95.340802 1674.5,98.11667 1670.6302,100.53639 1669.6749,100.48459 1666.4122,97.678117 z M 1676.0314,89.25 C 1676.0724,88.271831 1681.0092,84.675837 1681.5578,85.2245 1682.1513,85.817941 1678.1257,90 1676.961,90 1676.4325,90 1676.0141,89.6625 1676.0314,89.25 z M 1680.8196,59.239784 C 1681.1708,56.777889 1680.0622,56.337839 1678.2,58.2 1676.4086,59.991445 1676.7441,62.19543 1678.75,61.813108 1679.7125,61.629662 1680.6438,60.471666 1680.8196,59.239784 z"/>
</svg>
