<svg xmlns="http://www.w3.org/2000/svg"
     width="17.7" height="64.0"
     viewBox="1605.9852 13.3657 26.3165 95.3705">
  <path d="M 1624.7519,101.22642 C 1623.9185,100.27689 1622.9409,98.528137 1622.5796,97.340305 1622.2182,96.152473 1621.2061,94.586027 1620.3305,93.859314 1618.9596,92.721614 1618.2903,93.056443 1615.5132,96.269009 1612.2625,100.02958 1609.9852,101.05761 1610.0175,98.75 1610.0271,98.0625 1610.7116,93.45 1611.5386,88.5 1613.7191,75.449209 1614.5059,62.172054 1614.4555,39.278141 1614.4224,24.262465 1614.7248,18.935846 1615.63,18.588486 1618.8166,17.365686 1623.32,30.409418 1625.0939,46 1626.3859,57.353931 1626.5579,60.040388 1627.5975,85.102554 1628.3017,102.07859 1627.8326,104.7362 1624.7519,101.22642 z M 1625.9992,93.25 C 1625.9987,92.2875 1625.57,86.775 1625.0464,81 1624.5229,75.225 1623.8228,66.225 1623.4907,61 1622.4199,44.150513 1621.5645,37.625896 1619.5176,30.694649 1618.403,26.920188 1618.2134,28.60362 1617.6255,47.5 1617.0272,66.72962 1616.5428,73.045693 1614.443,89 L 1613.7191,94.5 1616.2855,92.145231 C 1618.9761,89.676509 1620.442,89.911084 1622.8067,93.188793 1624.465,95.487298 1626.0002,95.516732 1625.9992,93.25 z"/>
</svg>
