<svg xmlns="http://www.w3.org/2000/svg"
     width="29.8" height="64.0"
     viewBox="1947.0490 15.9981 41.9510 90.1392">
  <path d="M 1962.6875,20 C 1961.989,20 1959.1278,22.3625 1956.3125,25.25 L 1951.1875,30.5 1952.1562,37 C 1953.0509,43.002106 1952.5841,79.440912 1951.4375,93.25 1951.049,97.929172 1951.2675,99 1952.5,99 1953.689,99 1954.0432,97.548853 1954.1562,92.25 1954.4716,77.456467 1954.7246,71.082743 1955.4375,61.46875 1955.9011,55.217962 1955.7577,47.740965 1955.0312,41.65625 L 1953.8438,31.875 1957.5312,27.40625 C 1961.6661,22.360294 1962.3847,22.50687 1966.5625,29.125 L 1968.875,32.75 1967.5,54.625 C 1965.4424,87.756869 1965.1105,98 1966.0938,98 1967.2306,98 1967.0328,99.661894 1967.9688,83 1969.2922,59.440922 1971.2471,37.574538 1972.0938,36.625 1972.5423,36.121842 1974.6453,36.445296 1976.9688,37.375 1979.2159,38.274088 1981.4326,39 1981.9062,39 1982.9062,39 1985,31.271467 1985,27.59375 1985,23.987447 1982.9478,19.998082 1981.0938,20 1980.2195,20.000904 1977.8191,21.800904 1975.75,24 1973.6808,26.199096 1971.3702,28 1970.625,28 1969.8797,28 1968.0809,26.2 1966.625,24 1965.1691,21.8 1963.3859,20 1962.6875,20 z M 1980.6875,24.0625 C 1981.576,24.264825 1982,25.682777 1982,28.3125 1982,30.682379 1981.4375,33.351461 1980.75,34.25 1979.6304,35.713307 1979.2132,35.726969 1976.75,34.40625 1973.3263,32.57053 1973.2965,30.981056 1976.5938,27.0625 1978.4507,24.85562 1979.799,23.860175 1980.6875,24.0625 z M 1962.0312,32 C 1961.5955,32 1961.0139,41.5625 1960.7188,53.25 1960.4237,64.9375 1959.4555,79.650322 1958.5625,85.9375 1957.6695,92.224677 1957.1864,98.026458 1957.5,98.84375 1958.7639,102.13729 1959.9954,97.911533 1961.375,85.5 1962.1691,78.356977 1962.7948,71.825 1962.7812,71 1962.7677,70.175 1963.0872,64.506726 1963.5,58.40625 1964.2711,47.010871 1963.4396,32 1962.0312,32 z"/>
</svg>
