<svg xmlns="http://www.w3.org/2000/svg"
     width="32.9" height="64.0"
     viewBox="1450.0000 19.2008 44.0141 85.7079">
  <path d="M 1454,96.980128 C 1454,96.419199 1455.0284,94.281699 1456.2854,92.230128 1461.3361,83.986775 1461.4501,83.092305 1458.0626,78.286412 1456.3782,75.896725 1455.0125,73.392184 1455.0278,72.720764 1455.0431,72.049344 1456.3931,69.732337 1458.0278,67.571861 1459.6625,65.411384 1461,63.129883 1461,62.501859 1461,61.873835 1459.425,59.519964 1457.5,57.271034 1455.575,55.022105 1454,52.758623 1454,52.241074 1454,51.723526 1455.3986,49.369339 1457.108,47.009547 1460.7323,42.006406 1460.6482,39.281533 1456.6092,30.841908 1455.2115,27.921483 1454.4177,25.18229 1454.8452,24.754813 1455.6164,23.983553 1463,38.637154 1463,40.939077 1463,41.599392 1461.65,44.101807 1460,46.5 1458.35,48.898193 1457,51.28521 1457,51.804483 1457,52.323756 1458.575,54.468115 1460.5,56.569725 1462.425,58.671335 1464,61.241832 1464,62.28194 1464,63.322047 1462.6121,66.105611 1460.9159,68.467637 L 1457.8317,72.762228 1461.4159,77.457711 C 1463.3871,80.040226 1465,82.536472 1465,83.004926 1465,84.208693 1457.7751,96.347512 1456.5306,97.234687 1455.0678,98.277481 1454,98.170069 1454,96.980128 z M 1465.7115,99.378205 C 1465.3696,99.036218 1466.3071,97.535953 1467.7949,96.044283 1469.2827,94.552613 1471.0994,91.660824 1471.8321,89.618085 1473.0724,86.15989 1472.997,85.683415 1470.738,82.702007 1465.686,76.034556 1465.5926,75.393666 1468.949,70.420396 1470.6271,67.934033 1472,65.103295 1472,64.129867 1472,63.156438 1470.425,60.519964 1468.5,58.271034 1466.575,56.022105 1465,53.697866 1465,53.106058 1465,52.514251 1466.35,49.836016 1468,47.154424 1472.2502,40.24692 1472.1119,39.191326 1465.6393,29.135086 1463.8478,26.351811 1463.1771,24.422935 1463.7881,23.811886 1464.3992,23.200837 1465.5885,24.238947 1467.0704,26.6768 1468.3486,28.77956 1469.6883,30.725 1470.0475,31 1470.4067,31.275 1471.2338,32.5125 1471.8855,33.75 1473.502,36.819655 1476.277,36.573696 1480.3472,33 1484.3524,29.483394 1485.5531,29.296367 1486.9821,31.96648 1488.33,34.485075 1488.5617,43.838264 1487.3073,45.092683 1486.6979,45.702062 1484.2654,45.095249 1480.6111,43.422233 1477.4546,41.977116 1474.7549,40.95343 1474.6118,41.147374 1472.5519,43.939778 1467.9728,52.389294 1468.1992,52.980039 1469.1446,55.446711 1475.5242,62 1476.9801,62 1477.926,62 1480.5851,60.63437 1482.8893,58.965266 1485.1934,57.296162 1487.4518,56.161189 1487.9079,56.443103 1489.384,57.355374 1490.0141,64.66097 1488.8939,67.874462 1487.5114,71.840289 1485.2166,71.879252 1481.5,68 1479.9192,66.35 1478.0566,65 1477.3609,65 1475.1848,65 1469.7423,73.859897 1470.4107,76.314289 1471.1252,78.937535 1476.5046,85 1478.1179,85 1478.7482,85 1480.7529,84.079774 1482.5727,82.955052 1485.8685,80.918122 1485.8857,80.9179 1486.9457,82.898629 1488.4198,85.652956 1488.5419,92.118988 1487.1682,94.685644 1485.6797,97.466926 1482.6419,96.710232 1479.9135,92.878563 1478.7862,91.295353 1477.2952,90 1476.6003,90 1475.9054,90 1473.8789,92.25 1472.0969,95 1469.0887,99.642568 1467.242,100.90871 1465.7115,99.378205 z M 1485.496,38.25 C 1485.1992,33.102317 1485.165,33 1483.7398,33 1482.5693,33 1477,37.551872 1477,38.508532 1477,39.270472 1482.4525,41.91874 1484.1061,41.959962 1485.3396,41.990712 1485.662,41.130048 1485.496,38.25 z M 1485,88.5 C 1485,83.540505 1484.3307,83.101877 1480.9456,85.842942 1478.6819,87.675969 1478.68,87.700012 1480.5848,90.311518 1483.5045,94.314293 1485,93.700695 1485,88.5 z M 1486.9847,64.75 C 1486.9628,61.537038 1485.4729,59.604543 1483.5782,60.331602 1479.8281,61.770682 1481.039,67 1485.1224,67 1486.4074,67 1486.9952,66.289859 1486.9847,64.75 z"/>
</svg>
