<svg xmlns="http://www.w3.org/2000/svg"
     width="55.7" height="64.0"
     viewBox="-2.5593 13.1075 77.9795 89.5583">
  <path d="M 33,97.111291 C 33,96.500081 32.05246,96 30.894356,96 29.736252,96 27.451725,94.875 25.817631,93.5 22.495258,90.704408 19.496543,90.263646 18.658437,92.447715 18.35289,93.243958 16.751543,94.594242 15.099887,95.448346 9.7666565,98.206267 5.248726,93.999366 2.9433063,84.128665 1.4406815,77.695147 4.0473018,76.179125 9.1823694,80.5 12.828976,83.568418 12.840911,83.568479 16.945959,80.53987 20.25301,78.100005 22.80485,78.25719 24.503323,81.005377 26.070527,83.541166 27.818646,81.781975 28.235066,77.25 28.605005,73.223892 28.288721,72.082658 26.159692,69.761506 22.603295,65.884181 20.282117,65.415305 16.926299,67.896369 13.16332,70.678459 8.9076155,70.595015 6.174314,67.685549 4.3895041,65.785706 4,64.173456 4,58.685549 4,52.98846 4.258738,51.998667 5.75,51.990985 6.7125,51.986027 8.6809354,53.418765 10.124301,55.174848 L 12.748602,58.367726 17.157734,56.683863 C 22.589486,54.609458 24.399749,54.571816 26,56.5 27.930653,58.826294 30,58.308958 30,55.5 30,54.125 29.55,53 29,53 28.45,53 27.999755,52.2125 27.999457,51.25 27.998792,49.110922 19.877863,40.588985 14.75,37.34629 11.194719,35.098045 11.000194,34.702956 11.003738,29.737455 11.00845,23.1358 13.952994,17.7115 17.275561,18.183799 19.497361,18.499625 19.526129,18.589109 19.908107,26.372445 20.035075,28.959592 22.289789,27.01643 24.454802,22.454004 25.35627,20.554302 26.467622,19 26.924473,19 29.87257,19 31.32847,27.649215 29.085756,31.839763 27.738532,34.357074 28.274676,35.431796 33,39.686033 35.891415,42.289191 37.173685,42.477017 40.263569,40.75 45.691637,37.71611 48,34.722567 48,30.717201 48,25.771516 50.430625,21.62157 54.661967,19.342842 58.812715,17.107516 60.580291,18.343519 59.037161,22.40226 56.918547,27.974636 58.330031,28.516123 62.944805,23.901349 67.241056,19.605098 69.423264,20.55246 68.761184,26.426416 68.116964,32.141917 64.947226,36.463361 59.162232,39.513095 56.598004,40.864904 52.076341,44.168418 49.114091,46.854237 44.007028,51.484719 43.763451,51.925546 44.409404,55.368772 45.148245,59.307133 46.390791,59.815435 49.668024,57.519971 51.571694,56.186589 52.030474,56.236131 54.29826,58.019971 55.682719,59.108987 57.497454,60 58.331004,60 60.378377,60 65.744308,55.380974 66.51394,52.95608 67.323656,50.404889 69.621037,50.442843 70.294597,53.018538 71.236209,56.61927 69.439551,65.573967 67.12266,68.82774 64.509924,72.49699 60.566581,73.038474 56.019412,70.352396 53.320009,68.757819 53.099728,68.798049 49.17512,71.602396 45.145511,74.481771 44.039802,76.441405 44.013655,80.75 43.997738,83.372703 44.870517,83.565172 47.55887,81.531803 50.173539,79.554167 52.021858,79.670464 55,82 58.517136,84.751143 61.174131,84.47146 64.5,81 67.415073,77.957319 69.421278,77.254591 70.44835,78.916428 71.420172,80.48887 68.950143,89.793666 66.853258,92.459423 64.267555,95.746611 57.495276,96.031437 54,93 52.731689,91.9 51.298382,91 50.814872,91 49.023925,91 42.668542,94.068352 41.602485,95.447701 40.189952,97.275349 33,98.665776 33,97.111291 z M 16.5,65 C 18.825541,62.430306 22.04047,62.457393 25.367855,65.074715 27.723753,66.927864 28.072407,66.974886 28.632611,65.515017 29.286962,63.809805 24.583071,58 22.5481,58 21.955355,58 19.791177,58.9 17.738815,60 15.686454,61.1 13.400362,62 12.658612,62 11.916862,62 10.495486,61.1 9.5,60 7.0442015,57.286373 6,57.486639 6,60.671259 6,66.370197 12.7439,69.150444 16.5,65 z M 16.81907,90.273821 C 19.043354,87.22037 22.62818,86.925732 26.296175,89.494895 29.229726,91.549635 30.197515,91.384815 29.819551,88.894844 29.626589,87.623638 27.746148,85.807504 25.072716,84.310342 L 20.645432,81.830996 16.858211,83.959534 C 13.275075,85.973369 12.902407,86.000893 9.9425647,84.470299 8.2219307,83.580525 6.531961,83.134706 6.1870764,83.47959 5.8421919,83.824475 6.6215432,86.107656 7.9189683,88.553327 10.742961,93.876605 13.768566,94.46149 16.81907,90.273821 z M 38.536651,88.75 C 42.245579,79.762177 43.5627,64.436814 41.523322,53.998592 40.867472,50.64173 41.117,50.249549 47.567766,44.498592 51.26846,41.199366 56.119371,37.6 58.347569,36.5 62.166328,34.614783 66.939822,28.606488 65.646422,27.313089 65.320436,26.987103 64.029133,27.461406 62.77686,28.367097 61.524587,29.272787 59.473456,30.746656 58.218792,31.642362 55.240831,33.768329 54.646178,33.001659 54.815326,27.254367 L 54.955251,22.5 52.914761,24.938419 C 51.49595,26.633921 50.956827,28.520235 51.145238,31.129727 51.463213,35.533682 50.12478,37.293053 42.41923,42.600068 37.184405,46.205431 37.023452,46.245386 34.471238,44.573112 33.038507,43.63435 30.065094,41.065094 27.863653,38.863653 23.962779,34.962779 23.902435,34.797848 25.489757,32.375289 26.385554,31.00813 26.979321,28.519427 26.809239,26.844839 L 26.5,23.800133 23.219123,28.473108 C 21.414641,31.043244 19.39394,32.964647 18.728675,32.742892 18.06341,32.521137 16.986888,30.575768 16.336403,28.41985 15.59614,25.966379 15.083545,25.248181 14.966161,26.5 14.460802,31.889272 15.393233,33.526043 23.097593,40.773752 30.726283,47.950276 34.82778,53.851607 33.584734,55.862897 32.19274,58.115191 31.291322,74.619574 32.14403,82.241244 33.435154,93.781553 35.565318,95.950416 38.536651,88.75 z M 64.193013,90.25 C 68.078297,85.72618 66.89456,83.702017 62,86.5 58.520453,88.489089 57.583514,88.361874 54.095284,85.426722 50.689336,82.560806 49.080451,82.725422 44.5,86.408481 40.526412,89.603573 41.594063,90.357655 47.326097,88.404555 51.945056,86.830717 52.021936,86.840671 55.072404,89.40747 58.651046,92.418699 62.05997,92.733603 64.193013,90.25 z M 50.272871,67 C 51.671294,65.9 53.348502,65 54,65 54.651498,65 56.328706,65.9 57.727129,67 62.427852,70.697589 65.61854,69.125512 66.679233,62.58923 67.29349,58.804004 66.157915,57.899871 64.021962,60.473538 62.319653,62.524694 56.101591,63.544538 53.854409,62.14115 52.84941,61.513517 51.487535,61 50.82802,61 48.931023,61 45,65.1646 45,67.174314 45,69.561838 47.104466,69.492268 50.272871,67 z"/>
</svg>
