<svg xmlns="http://www.w3.org/2000/svg"
     width="30.4" height="64.0"
     viewBox="207.7464 12.0765 44.5290 93.6276">
  <path d="M 225.53125,52.5 226.65625,53.34375 226,59.03125 225.34375,64.65625 224.5625,65.34375 C 224.67849,65.561578 224.77746,65.808502 224.84375,66.21875 225.07713,67.66317 224.03347,69.338727 221.59375,71.4375 217.86909,74.64165 213.61833,82.916416 212.5,89.09375 211.74643,93.256244 214.09739,100 216.3125,100 217.17319,100 218.21274,98.126914 218.9375,95.25 221.42969,85.357317 226.51503,78.52801 229.53125,81.03125 232.46015,83.46202 234,87.843235 234,93.78125 234,97.016897 234.30937,99.965622 234.6875,100.34375 236.04788,101.70413 237.53159,100.23363 240.21875,94.90625 241.72203,91.925932 242.97162,87.925 242.96875,86 242.96329,82.32489 239.97874,74.72749 238.09375,73.5625 237.40496,73.136807 237,69.053257 237,62.6875 237,52.599347 237.04239,52.397522 240.65625,47.03125 246.59326,38.215298 248.2754,30.022387 245.84375,21.90625 244.69211,18.062421 243.11947,16.631739 241.375,17.84375 240.85452,18.205364 239.86422,21.821458 239.1875,25.875 237.9566,33.248071 234.84671,39.38602 232.65625,38.75 231.06683,38.288496 225.17652,26.129958 224.8125,22.5625 224.15068,16.076535 219.76026,19.215429 217.90625,27.5 216.16342,35.287769 218.00796,43.195453 222.625,47.8125 224.48333,49.670827 226,51.608522 226,52.125 226,52.182625 225.60799,52.410527 225.53125,52.5 z M 222.09375,27 C 222.8374,27.100091 223.7785,28.736125 225.0625,31.96875 227.3741,37.788506 231.11107,43 232.96875,43 234.78392,43 240.11147,35.354194 241.15625,31.25 242.38621,26.418413 244,25.599898 244,29.8125 244,34.854818 241.12745,42.489381 238.03125,45.65625 235.09403,48.66051 234.97708,49.127636 234.34375,60.90625 233.72997,72.321156 233.81781,73.185187 235.78125,75.28125 238.54915,78.236096 240,82.260229 240,87 240,92.049871 238.41653,92.989831 237.5625,88.4375 236.86531,84.721157 230.72751,77 228.46875,77 227.75006,77 225.6877,78.468552 223.90625,80.25 222.1248,82.031448 219.72994,85.635949 218.5625,88.28125 217.39505,90.92655 216.11217,92.768415 215.71875,92.375 213.10134,89.757591 219.22009,76.247409 224.40625,73.1875 227.71922,71.232799 227.82804,70.948191 228.4375,63.34375 228.78305,59.032308 229.25792,54.261802 229.5,52.75 229.8464,50.586675 229.20897,49.340111 226.5,46.875 222.16088,42.92649 219.54168,36.286309 220.34375,31.34375 220.82968,28.349346 221.3501,26.899909 222.09375,27 z"/>
</svg>
