<svg xmlns="http://www.w3.org/2000/svg"
     width="45.6" height="64.0"
     viewBox="1980.0000 12.8572 66.5625 93.4713">
  <path d="M 2042.5625,54.8125 C 2040.6729,54.645205 2038.6716,53.482225 2036.375,51 2034.3395,48.8 2032.2593,47 2031.75,47 2031.2408,47 2028.8328,48.41367 2026.4062,50.15625 2023.9797,51.89883 2021.7312,53.074964 2021.4062,52.75 2020.5554,51.899159 2020.557,43.530287 2021.4062,42.15625 2021.931,41.307113 2022.6735,41.300206 2024.1562,42.09375 2025.2701,42.689799 2026.4487,42.895156 2026.7812,42.5625 2027.8943,41.449464 2024.3982,38.933678 2021.4375,38.71875 L 2018.5,38.5 2018.2188,46.78125 C 2017.8852,56.268223 2019.1191,57.903568 2023.8125,54.125 2029.9453,49.187516 2030.652,49.204685 2035.7188,54.34375 2038.8173,57.486611 2040.3021,58.517094 2042.4375,58.25 L 2042.5625,54.8125 z M 2042.0938,67.40625 2042.0312,67.4375 2038.75,65.59375 C 2036.9552,64.566497 2034.4983,62.816074 2033.2812,61.71875 2031.2217,59.861901 2030.9124,59.834276 2028.6562,61.3125 2027.323,62.186071 2025.2175,64.498671 2024,66.46875 2021.3216,70.802497 2021.8523,73.923518 2026.0625,78.71875 2029.5557,82.697217 2029.5557,82.536508 2026.9375,89.21875 2024.1429,96.3513 2022.5947,97.697526 2023.25,92.4375 2023.8067,87.96894 2023.1614,86.385421 2018.125,80.21875 2014.2019,75.415278 2013.3547,75.573983 2006.9062,82.21875 2003.1233,86.116755 2003.0061,86.459617 2003.625,91.125 2004.0121,94.042914 2003.8632,96 2003.2812,96 2002.423,96 1997,87.096133 1997,85.6875 1997,85.384783 1999.475,82.695836 2002.5,79.71875 2008.8302,73.488842 2009.5795,69.923226 2005.75,64.3125 2001.7781,58.493028 1995.5089,58.227374 1989.875,63.625 1988.3108,65.123542 1986.7505,66.094207 1986.4375,65.78125 1985.604,64.947713 1988.6823,58.129736 1991.5938,54.3125 1994.728,50.203419 1996.8911,50.149792 2003.25,54.0625 2005.9874,55.746789 2008.864,56.885778 2009.625,56.59375 2010.4154,56.290452 2011.0861,54.441278 2011.1875,52.28125 2011.7216,40.898362 2011.5437,36.871509 2010.5312,36.03125 2009.0257,34.781843 2000.9795,36.868027 2000.2812,38.6875 1999.4273,40.912622 2000.4376,41.142417 2004.2188,39.5625 2006.1584,38.752088 2008.0301,38.373892 2008.375,38.71875 2009.2058,39.549613 2009.0375,49.023958 2008.1562,51.25 2007.5049,52.895452 2007.2584,52.880413 2003.75,51 1997.7565,47.787677 1993.7018,48.309361 1990.1875,52.75 1986.9054,56.897087 1984,63.208331 1984,66.15625 1984,69.300009 1987.0368,69.644967 1989.5,66.78125 1994.343,61.151007 1998.6614,60.625614 2002.5,65.1875 2006.2572,69.652664 2005.3406,73.218302 1998.9688,79.09375 1996.2287,81.620489 1994,84.383039 1994,85.25 1994,86.116962 1995.6156,90.01245 1997.5938,93.90625 1999.5719,97.80005 2001.8033,101 2002.5625,101 2005.1797,101 2007.2532,96.366426 2006.5312,92.09375 2005.8005,87.768921 2006.9567,84.696168 2010.4062,81.8125 2013.5086,79.219203 2014.6954,79.573767 2017.5625,83.90625 2019.7448,87.203926 2020.0533,88.498107 2019.5,92.1875 2018.9764,95.67913 2019.2133,97.071091 2020.75,98.96875 2023.4705,102.32842 2025.4795,101.06866 2027.4688,94.8125 2028.3994,91.885777 2029.8171,88.076871 2030.5938,86.34375 2032.4133,82.283057 2032.5464,82.843216 2028.5,78 2026.575,75.695925 2024.998,72.841713 2025,71.65625 2025.0047,68.987864 2028.5485,63 2030.125,63 2030.7639,63 2033.2133,64.575 2035.5625,66.5 2038.055,68.542395 2040.1196,69.579288 2042.0312,69.78125 L 2042.0938,67.40625 z M 2013.5312,17.375 C 2012.4423,17.547615 2011.384,17.971495 2010.3438,18.625 2004.5859,22.24223 2000.0133,26.205236 2000.5625,27.09375 2001.4269,28.492407 2003.0041,28.16851 2003.6562,26.46875 2004.3916,24.552773 2012.0446,20 2014.5312,20 2016.3394,20 2024.1761,24.747506 2024.8438,26.25 2025.0271,26.6625 2026.1521,26.990588 2027.3438,26.96875 2029.1829,26.935046 2028.7695,26.257004 2024.6875,22.5 2020.3667,18.52318 2016.7982,16.857156 2013.5312,17.375 z M 2014.6562,25.4375 C 2014.0972,25.548504 2013.4853,25.807735 2012.7188,26.125 2006.3029,28.780331 1999.6724,34.017568 2002.75,34 2003.1625,33.997645 2005.525,32.645291 2008,31 2010.475,29.354709 2013.249,28.002355 2014.1562,28 2015.0634,27.997646 2018.1692,29.584234 2021.0625,31.53125 2024.6495,33.945145 2026.646,34.760316 2027.3438,34.0625 2027.9067,33.499651 2028.1759,32.882333 2027.9375,32.6875 2027.6992,32.492668 2024.8935,30.638471 2021.7188,28.5625 2017.6059,25.873152 2016.3334,25.104488 2014.6562,25.4375 z"/>
</svg>
