<svg xmlns="http://www.w3.org/2000/svg"
     width="30.9" height="64.0"
     viewBox="1415.6040 16.1541 43.3960 89.8834">
  <path d="M 1427.7825,99.42744 C 1420.8428,94.38599 1419.604,82.240247 1424.8497,70.671302 1426.4456,67.151515 1428.2573,63.959002 1428.8757,63.576828 1430.4889,62.579793 1430.2612,59.946074 1428.3822,57.8698 1426.2362,55.498563 1425.7125,44.208854 1427.414,37 1428.8758,30.806822 1432.448,22.459169 1434.0639,21.460509 1436.1778,20.15406 1436.0075,21.801639 1433.5317,26.608741 1429.1683,35.081192 1427.5646,49.960908 1430.4718,55 1434.126,61.333924 1434.2201,62.160112 1431.5997,64.908297 1423.7884,73.100751 1422.5624,91.862346 1429.5396,96.434016 1434.0407,99.383232 1442.6339,97.566087 1447.5811,92.618918 1450.9723,89.227705 1455,88.124529 1455,90.5869 1455,91.391331 1453.969,92.441485 1452.7089,92.920575 1451.4488,93.399666 1449.7914,94.546418 1449.0258,95.468912 1446.9054,98.023828 1440.5009,100.97398 1435.7532,101.58274 1432.2069,102.03746 1430.8821,101.67924 1427.7825,99.42744 z M 1434.1042,86.104167 C 1432.9469,84.946875 1432,83.170448 1432,82.15655 1432,79.400249 1435.6674,69.274253 1438.0787,65.372634 1440.0739,62.144423 1440.1012,61.803379 1438.5539,59.441983 1435.2913,54.462524 1437.0187,35.665861 1441.543,26.916761 1443.7257,22.696029 1445.2084,24.275661 1443.2843,28.771841 1438.804,39.241338 1438.2094,53.676621 1442.0371,59.052073 L 1444.1196,61.976671 1441.6387,65.238335 C 1438.3463,69.566916 1434.8244,78.688248 1435.1995,81.915113 1435.4505,84.074388 1435.967,84.467052 1438.3365,84.299897 1439.8965,84.189841 1442.3204,82.952341 1443.7228,81.549897 1448.39,76.88277 1449.6778,78.823811 1445.25,83.851654 1441.6033,87.992569 1436.9358,88.935834 1434.1042,86.104167 z M 1443,90.035184 C 1443,89.504535 1443.9939,88.538465 1445.2086,87.888363 1446.4233,87.238261 1448.1914,85.759928 1449.1376,84.603179 1450.4121,83.045168 1451.1537,82.790245 1451.9987,83.619724 1452.8483,84.453622 1452.1701,85.538496 1449.3419,87.869724 1445.5544,90.991691 1443,91.863898 1443,90.035184 z"/>
</svg>
