<svg xmlns="http://www.w3.org/2000/svg"
     width="64.0" height="38.4"
     viewBox="326.8177 71.0178 51.5619 30.9694">
  <path d="M 362.6875,81.3125 361.34375,82.65625 359.65625,82.90625 C 359.63726,82.930236 359.61286,83.237253 359.59375,83.25 358.29565,84.116102 356.51791,84.102477 355.21875,83.59375 L 352.65625,84 350.46875,83.40625 C 350.1833,83.616105 349.83896,83.750672 349.40625,83.8125 348.72413,83.909965 348.32361,83.578695 348.03125,82.75 L 345.34375,82 345.03125,81.59375 C 345.02104,81.622679 345.01028,81.952114 345,81.96875 344.05661,83.495182 341.0919,82.093283 336.09375,77.75 333.14187,75.184889 332.58952,75.017779 331.8125,76.40625 330.81765,78.183932 333.84882,86.069764 336.78125,89.3125 338.58849,91.310978 344.80098,94.759413 349,96.09375 354.95845,97.987186 365.4752,93.872435 369.40625,88.09375 372.33966,83.781615 374.37954,77 372.75,77 372.15014,77 370.96206,77.655351 370.09375,78.4375 369.22544,79.219649 367.19582,80.162544 365.59375,80.5625 L 362.6875,81.3125 z M 334.28125,79.15625 C 334.56355,79.163186 335.1292,79.681782 336.25,80.71875 337.4875,81.863691 340.41869,83.811722 342.78125,85.03125 346.49835,86.949973 348.01901,87.145693 353.9375,86.5625 357.69925,86.191826 362.49932,85.02501 364.625,83.9375 367.85749,82.283742 368.55164,82.179097 368.8125,83.40625 369.27376,85.576046 366.25555,89.69088 362.46875,92.03125 360.63858,93.162359 356.96292,94.320543 354.3125,94.625 350.28156,95.088039 348.59471,94.699585 344,92.28125 338.35588,89.310572 334,84.268455 334,80.6875 334,79.678069 333.99895,79.149314 334.28125,79.15625 z"/>
</svg>
