<svg xmlns="http://www.w3.org/2000/svg"
     width="34.8" height="64.0"
     viewBox="2837.5380 15.5000 48.4620 89.0270">
  <path d="M 2846,99.099806 C 2842.2574,98.600949 2841.538,98.163395 2841.7258,96.5 2841.85,95.4 2842.1558,77.625 2842.4054,57 L 2842.8591,19.5 2849.1796,19.833123 C 2853.4949,20.060567 2855.8965,20.676365 2856.75,21.774252 2857.5727,22.832581 2858.0108,27.162605 2858.0316,34.44113 L 2858.0632,45.5 2860.2816,42.822572 C 2862.8622,39.708035 2866.8815,33.272689 2869.9652,27.318115 2873.3619,20.759334 2874.1705,20.49241 2878.3493,24.550762 2880.3572,26.500794 2882,28.815767 2882,29.695146 2882,31.152553 2876.1968,39.092644 2873.3721,41.5 2870.2303,44.177695 2858,60.581529 2858,62.117842 2858,63.094572 2863.0921,68.393881 2869.5,74.08583 2875.825,79.704132 2881,85.04314 2881,85.950294 2881,86.857447 2879.7666,89.501858 2878.2591,91.826762 2875.3999,96.236336 2872.7792,96.952429 2872.1776,93.488516 2871.8343,91.511908 2856.8994,76.804403 2856.0615,77.617881 2855.8204,77.852031 2855.5559,81.071296 2855.4738,84.771804 2855.2501,94.860325 2853.567,100.52698 2851,99.834494 2850.725,99.760309 2848.475,99.4297 2846,99.099806 z M 2852.1495,94.75 C 2852.8765,93.409119 2853.4327,87.853394 2853.5261,81 2853.6123,74.675 2854.169,63.2 2854.7632,55.5 2855.3574,47.8 2855.6738,39.25 2855.4663,36.5 2855.2588,33.75 2855.069,29.5875 2855.0445,27.25 L 2855,23 2850.5674,23 C 2847.1777,23 2846.0328,23.411747 2845.7012,24.75 2845.4627,25.7125 2845.1963,39.325 2845.1091,55 2845.0219,70.675 2844.6877,86.280336 2844.3664,89.678524 L 2843.7823,95.857047 2847.1412,96.268487 C 2848.9885,96.494778 2850.5967,96.751943 2850.7148,96.839963 2850.833,96.927983 2851.4786,95.9875 2852.1495,94.75 z M 2878,87.005645 C 2878,86.079237 2876.3125,83.762188 2874.25,81.856648 2867.6086,75.720713 2856.8572,66.809129 2856.5187,67.159685 2854.1961,69.565287 2858.1773,77.012974 2864.1845,81.5 2866.3935,83.15 2869.5598,86.208192 2871.2209,88.295983 2874.1,91.91488 2874.3286,92.012614 2876.1204,90.390996 2877.1542,89.455462 2878,87.932054 2878,87.005645 z M 2864.4345,48.75 C 2867.4668,44.7625 2871.9845,39.099418 2874.4739,36.165374 2876.9632,33.23133 2879,30.41883 2879,29.915374 2879,29.411918 2878.0277,28.027694 2876.8393,26.83932 L 2874.6786,24.67864 2873.0893,26.739309 C 2872.2152,27.872678 2869.7,31.797247 2867.5,35.460575 2865.3,39.123903 2862.2625,43.730785 2860.75,45.69809 2859.0044,47.968576 2858,50.503126 2858,52.637505 2858,54.486877 2858.2073,56 2858.4606,56 2858.714,56 2861.4022,52.7375 2864.4345,48.75 z"/>
</svg>
