<svg xmlns="http://www.w3.org/2000/svg"
     width="31.1" height="64.0"
     viewBox="2494.1938 14.3862 45.6058 93.7512">
  <path d="M 2517.9375,19.0625 C 2517.6006,19.160316 2517.1323,19.487229 2516.5938,20.0625 2513.3689,23.507491 2510.9079,36.012923 2512.5938,40.40625 2513.8929,43.791762 2514.75,41.669271 2515.25,33.65625 2515.5962,28.105984 2516.3335,24.405255 2517.5,22.625 2518.9447,20.420115 2518.9482,18.769053 2517.9375,19.0625 z M 2509.6562,19.125 C 2509.4302,18.386232 2507.199,20.188947 2505.5938,22.9375 2503.2339,26.97827 2502.2677,39.22289 2503.9062,44.1875 2504.9187,47.255393 2504.7216,48.358257 2502.2812,53.59375 2498.1938,62.362445 2498.3735,71.267335 2502.7812,79.8125 2505.3046,84.704382 2505.784,86.503917 2505,87.96875 2503.8841,90.053959 2503.6887,96.256345 2504.625,99.75 2505.8008,104.13745 2508.6217,102.36814 2511.5938,95.375 2513.1415,91.733167 2515.2655,87.674773 2516.3125,86.34375 2518.1888,83.958432 2518.1687,83.854858 2516.0938,79.03125 2512.4396,70.53709 2513.8168,58 2518.4062,58 2519.0602,58 2520.0884,58.676059 2521.125,59.5625 L 2523.25,57.4375 C 2523.0784,57.304181 2523.0006,57.170321 2522.8125,57.03125 2518.5821,53.903604 2515.7022,54.916101 2512.9688,60.5625 2510.4883,65.686339 2510.6851,72.575405 2513.5,79.3125 2514.9752,82.84316 2514.9196,83.079633 2511.25,89.71875 2508.2597,95.128637 2507.4441,96.026998 2507.1875,94.21875 2507.0105,92.971705 2507.3792,90.412294 2508,88.53125 2509.0277,85.417103 2508.8092,84.5445 2505.5625,78.53125 2500.6493,69.431714 2500.7964,62.193622 2506.1562,51.6875 2507.7067,48.648582 2507.9225,47.216307 2507.1562,44.6875 2504.5024,35.928038 2505.128,28.218398 2509.125,20.75 2509.5932,19.875119 2509.7316,19.371256 2509.6562,19.125 z M 2529.5,51.1875 2531.25,49.4375 C 2528.717,46.679249 2528.1554,45.588587 2529.5938,44.5 2530.641,43.70733 2531.7373,43.048742 2532.0312,43.03125 2532.3252,43.013759 2533.3338,41.697703 2534.2812,40.09375 2535.6275,37.814534 2535.7996,36.572092 2535,34.46875 2534.1126,32.134862 2533.5231,31.84482 2530.7188,32.28125 2528.9401,32.558041 2526.4875,33.103505 2525.25,33.5 2523.3445,34.11053 2523.0127,33.879302 2523.0312,31.875 2523.0432,30.573353 2523.9433,27.553812 2525.0312,25.15625 2527.3925,19.952382 2527.4762,18.878619 2525.5312,19.625 2523.2322,20.507191 2519.7499,30.88706 2520.4688,34.71875 2521.168,38.446101 2522.4149,38.722543 2527.4688,36.3125 2531.6251,34.330464 2532.7133,35.039532 2531.4062,38.78125 2530.7077,40.780884 2529.3182,41.858836 2526.2188,42.84375 2523.8911,43.583441 2522,44.547049 2522,45 2522,45.452951 2523.5343,46.780633 2525.4062,47.9375 2526.5059,48.617112 2528.0149,49.848307 2529.5,51.1875 z"/>
</svg>
