<svg xmlns="http://www.w3.org/2000/svg"
     width="44.7" height="64.0"
     viewBox="523.8533 14.1746 65.3618 93.5000">
  <path d="M 561.46662,98.935445 C 559.9091,95.923536 559.91456,94.453024 561.50212,89.379162 561.98763,87.827472 561.3106,86.284405 558.97926,83.629162 557.22672,81.633123 555.18009,80 554.4312,80 552.43791,80 546,85.942643 546,87.782594 546,88.64907 546.53236,90.830222 547.18302,92.6296 549.42434,98.827841 544.70809,103.67459 540.74088,99.25 539.34897,97.697622 534.98621,86.305189 535.00867,84.281545 535.01344,83.851695 536.51471,81.920698 538.34481,79.990441 542.78461,75.30767 544,72.838194 544,68.5 544,63.858382 542.46212,61 539.96482,61 537.52926,61 537.39164,59.447429 539.74707,58.543564 541.88439,57.723397 545.95342,62.056683 546.09689,65.305764 546.40951,72.385319 545.77519,75.609195 543.69758,77.5 542.48891,78.6 540.46462,80.678361 539.19915,82.11858 L 536.8983,84.737161 539.07845,89.61858 C 542.47793,97.230117 542.66264,97.531051 543.60899,97 544.65347,96.413879 544.628,93.621176 543.54262,89.722462 542.86049,87.272252 543.35536,86.35893 547.74182,81.972462 550.47668,79.237608 553.39626,77 554.22978,77 555.06331,77 557.65444,79.071192 559.98785,81.602649 564.08654,86.049193 564.20839,86.371398 563.58077,91.102649 563.22346,93.796192 563.3251,96 563.80663,96 564.97051,96 570,86.690565 570,84.536252 570,83.605052 568.2,81.061061 566,78.882938 563.8,76.704815 562,74.584648 562,74.171456 562,71.217721 565.37733,61.265608 566.72435,60.25 569.18393,58.395568 569.64014,58.583249 575.11027,63.699914 579.19966,67.525062 580.3165,68.129965 581.1108,66.949914 583.55022,63.325753 578.77551,48 575.20698,48 574.18173,48 571.22113,49.405393 568.62787,51.123096 566.03462,52.840799 563.6421,53.97543 563.31117,53.644499 562.98023,53.313567 562.79401,47.647486 562.89734,41.053207 L 563.08521,29.063609 559.65798,25.323849 556.23074,21.58409 552.6222,24.042045 C 548.52183,26.835015 548.29283,28.187428 550.4912,36.627514 552.26846,43.450867 552.25074,52.547011 550.4573,54.035435 549.49948,54.830358 547.88916,53.954126 544.06332,50.55624 539.70044,46.681385 538.67674,46.184929 537.09128,47.175065 533.99339,49.109731 532.18611,53.221526 531.44212,60.027643 L 530.73461,66.5 533.3673,64.075686 C 535.32526,62.272703 536,62.040763 536,63.170698 536,64.006328 535.11149,65.494117 534.02553,66.476896 532.93957,67.459675 531.78425,69.10442 531.45814,70.131884 531.13204,71.159348 530.16258,72 529.30378,72 528.00216,72 527.85325,71.126414 528.40891,66.75 529.80387,55.763147 531.41607,50.879694 534.79814,47.396629 538.73068,43.346647 540.71748,43.164554 544.59446,46.498779 546.19251,47.873107 547.8375,48.998107 548.25,48.998779 549.33238,49.000541 549.16188,41.106819 547.99084,37 546.47483,31.683402 545.34451,30.255485 543.84164,31.758359 541.98857,33.611426 537.54332,33.257843 535.5925,31.102207 533.41215,28.692946 533.75607,21.169657 536.11408,19.692697 537.82802,18.619157 538.73509,18.894896 543.5,21.937924 547.55477,24.527436 549.31823,24.444555 552.81763,21.5 555.73728,19.043277 559,18.174596 559,19.853977 559,20.323665 560.1236,21.920344 561.4969,23.402152 L 563.9938,26.09635 568.69738,22.504896 C 574.34192,18.194971 577.07478,18.244496 578.34111,22.679659 579.5041,26.752878 578.35816,32.92533 576.29175,33.718288 575.4129,34.055535 572.85418,33.840431 570.6057,33.240279 568.35723,32.640127 566.39126,32.275409 566.23687,32.429794 565.60733,33.059334 565.04389,50 565.65249,50 566.01479,50 567.78617,48.875 569.58889,47.5 575.04237,43.340429 578.78494,44.511921 581.47585,51.220827 585.21509,60.543432 585.09796,72 581.26341,72 580.35998,72 577.49486,69.69959 574.89647,66.887979 572.29808,64.076367 569.5709,61.968716 568.83606,62.204309 568.10123,62.439902 566.69726,65.023383 565.71614,67.945379 L 563.93228,73.258097 568.46614,77.727916 C 570.95976,80.186316 573,82.974045 573,83.92287 573,85.941059 565.22027,101.35238 563.96856,101.81378 563.50038,101.98636 562.37451,100.69111 561.46662,98.935445 z M 542.75,29.056438 C 543.9875,28.024075 544.99443,26.801546 544.98762,26.339707 544.9682,25.022382 538.03289,20.861641 536.96088,21.524179 535.43921,22.46462 535.84367,27.700809 537.57143,29.428571 539.54214,31.399286 539.97927,31.367874 542.75,29.056438 z M 576,28.081787 C 576,24.646291 575.1166,22 573.96974,22 573.52078,22 571.74988,23.181025 570.03441,24.6245 567.07066,27.118329 566.99988,27.342381 568.61267,29.1245 569.54619,30.156025 571.59023,31 573.15499,31 575.63173,31 576,30.622251 576,28.081787 z"/>
</svg>
