<svg xmlns="http://www.w3.org/2000/svg"
     width="43.2" height="64.0"
     viewBox="199.5242 10.8896 64.6151 95.7290">
  <path d="M 222.93,100.52234 C 221.5165,99.753664 219.53566,97.296681 218.52813,95.062375 217.5206,92.828069 216.17059,91 215.52812,91 214.88565,91 212.4494,92.635401 210.11422,94.634225 204.66502,99.298535 203.52418,98.253398 205.54912,90.452087 206.68644,86.070406 208.13702,83.434649 211.04703,80.462148 213.22116,78.24133 215,75.444458 215,74.246877 215,73.049296 213.64438,69.931863 211.98751,67.319248 207.26289,59.869298 205.14421,49 208.41667,49 209.19583,49 209.98333,49.3375 210.16667,49.75 210.35,50.1625 212.85247,52.446007 215.72772,54.824461 221.20261,59.353395 223.30614,59.634631 226.19922,56.224471 228.08202,54.005153 227.46818,45 225.4341,45 222.90237,45 217.24062,39.09282 216.78283,35.973715 215.54129,27.514534 228.38564,14.889571 232.77978,20.25 233.34335,20.9375 234.3158,23.4125 234.94077,25.75 235.56575,28.0875 236.51684,30 237.05431,30 237.59178,30 240.79285,27.990729 244.16781,25.534953 247.54277,23.079177 250.68567,21.305735 251.15205,21.59397 252.65791,22.524642 252.00938,31.382661 250.13298,35.513132 249.13028,37.720354 246.66516,40.780755 244.65494,42.314023 241.24848,44.912258 241,45.466728 241,50.469852 241,55.863206 243.42581,61.981004 245.56939,61.993677 246.15756,61.997155 249.06098,60.192805 252.02143,57.984012 254.98188,55.775218 257.87565,54.122373 258.45204,54.311023 259.02842,54.499673 259.64034,56.072829 259.81186,57.806925 260.13928,61.117081 256.50014,67.402048 250.8061,73.360314 247.33953,76.987742 247.25234,79.280097 250.5,81.408043 251.875,82.308978 253,83.710732 253,84.523053 253,86.435923 252.08959,86.391057 249.85417,84.368023 248.16443,82.838836 247.98325,82.913867 246.97746,85.559284 246.38709,87.112065 246.03815,89.533955 246.20203,90.941261 246.50285,93.524465 245.37019,94.700971 237.5,99.980171 233.96494,102.35144 226.78481,102.61862 222.93,100.52234 z M 211.56672,90.381311 C 214.30987,88.289013 215,87.068195 215,84.307987 215,81.598153 214.63438,80.923763 213.30414,81.179944 211.40638,81.545419 208.49142,86.070251 207.46108,90.25 206.61931,93.664798 207.23599,93.684521 211.56672,90.381311 z M 218.10566,64.329031 220.37445,60.658062 215.93722,56.831736 C 210.79077,52.393824 209.99645,52.18186 210.00977,55.25 210.01933,57.452423 214.45566,68 215.37244,68 215.62788,68 216.85783,66.348064 218.10566,64.329031 z M 239.68624,94.635323 C 243.51916,90.464891 246,82.706918 246,74.891162 246,70.270172 245.31482,67.830787 242.5,62.430511 239.58502,56.838061 239,54.66663 239,49.439408 239,43.307251 239.08301,43.111816 242.61473,40.929092 246.51084,38.521166 249,33.883381 249,29.032119 249,25.408018 248.5266,25.333116 244.08043,28.253738 235.54243,33.862225 235.60609,33.873603 233.08929,26.289292 231.70714,22.1242 231.1837,21.54468 229.07316,21.842817 223.65234,22.608566 219,28.005086 219,33.527263 219,36.715472 223.96127,42 226.95446,42 229.39955,42 229.63254,42.551729 230.42019,50.207121 230.88692,54.743389 230.67779,56.179484 229.40079,57.207121 220.1518,64.650032 218.95212,66.333479 217.86179,73.399076 216.91978,79.503598 217.04991,81.173538 218.99177,87.899076 221.84148,97.76896 223.67608,99.413707 231,98.66464 235.63443,98.190646 237.00144,97.556526 239.68624,94.635323 z M 227.46609,88.962526 C 223.53059,84.613847 224.87223,68.840708 229.50464,64.996151 231.66538,63.202894 234.46849,64.662208 236.31962,68.544065 239.23091,74.6491 238.31536,84.288656 234.42559,88.485787 231.60184,91.53267 229.89768,91.649408 227.46609,88.962526 z M 232.54163,85.247902 C 232.20152,84.36158 232.81449,82.889843 233.97346,81.810098 237.91552,78.137511 235.94904,67 231.35854,67 228.96085,67 228.77455,67.399666 227.51186,75.252352 226.81765,79.569648 230.17705,88.626648 232.04452,87.472487 232.64502,87.101354 232.86873,86.10029 232.54163,85.247902 z M 257.15949,60.556999 C 257.70712,57.582505 255.72749,57.754752 251.21353,61.074354 246.79374,64.324706 245.92126,67.11584 248.06999,71.130787 249.05675,72.974551 249.43869,72.712961 252.97948,67.768301 255.0912,64.819317 256.97221,61.574231 257.15949,60.556999 z"/>
</svg>
