<svg xmlns="http://www.w3.org/2000/svg"
     width="34.7" height="64.0"
     viewBox="108.4259 16.0000 49.0228 90.4952">
  <path d="M 146.35497,100.76534 C 145.96498,100.13432 146.17557,99.441476 146.82295,99.225684 148.69109,98.602969 148.18942,93.189415 146.06686,91.066864 142.87662,87.876615 139.10242,85.746719 137.6364,86.309285 136.87793,86.600339 135.94315,88.090381 135.55911,89.62049 134.95708,92.019197 135.42158,92.904953 138.93044,96.0492 143.4242,100.07601 143.85426,100.9956 141.25,101.00901 140.2875,101.01397 138.32194,99.584758 136.88209,97.832981 134.33104,94.729274 134.17781,94.683829 130.88209,96.053494 127.11425,97.619368 124.80467,97.465267 120.76693,95.378584 114.66057,92.222851 113.33408,82.096132 117.09543,67.349539 119.11243,59.441749 119.12956,58.864812 117.55314,51.933822 116.6524,47.973564 115.25946,43.163392 114.45771,41.244552 112.42589,36.381719 112.62557,34.179679 115.43201,30.500247 119.41714,25.275479 124.87227,20 126.28983,20 127.58887,20 134,28.237653 134,29.906792 134,30.373367 134.68819,31.326259 135.52932,32.024329 136.79,33.070602 137.44871,32.948883 139.27932,31.331392 142.57254,28.421557 146.72868,26 148.42963,26 151.9759,26 153.22366,35.135618 150.55103,41.532119 148.82687,45.658612 147.48938,45.821325 142.59514,42.5 140.56896,41.125 138.6832,40 138.40456,40 137.50345,40 134.95333,46.973107 133.98269,52.091295 133.20574,56.188105 133.40904,58.266191 135.12683,63.786668 136.27577,67.479001 137.39317,71.101722 137.60996,71.837159 137.89384,72.800201 138.86446,72.450388 141.07913,70.586867 144.46006,67.742004 148.17515,66.469499 150.49776,67.360768 152.86318,68.268465 152.25128,70 149.5651,70 143.62746,70 138.01292,75.220516 138.00374,80.75 137.9991,83.542408 137.99583,83.542544 144,80.5 146.71343,79.125 149.62347,78 150.46676,78 153.44871,78 151.94213,79.750385 147.5,81.44685 145.025,82.392061 143,83.495398 143,83.898709 143,84.30202 144.55159,86.005672 146.44797,87.684602 150.16408,90.9746 151.57125,94.587833 150.61704,98.389699 149.93836,101.09376 147.42408,102.4952 146.35497,100.76534 z M 129.92543,94.039909 C 130.9121,93.511859 132.73216,90.725547 133.97,87.848104 135.86913,83.433446 136.11869,81.581921 135.56792,75.992546 135.20894,72.349432 134.21826,67.148245 133.36642,64.434351 131.37322,58.084186 131.55452,51.609533 133.94017,43.94442 L 135.846,37.820964 133.173,33.077777 C 129.91236,27.291839 126.54076,23 125.25605,23 124.73019,23 121.98203,25.664952 119.14904,28.922116 L 113.99814,34.844232 117.14866,42.672116 C 119.60828,48.783357 120.31603,52.072168 120.37602,57.669077 120.41828,61.612069 120.83881,64.599623 121.31052,64.308086 121.78224,64.016549 122.01785,64.840464 121.8341,66.139009 121.65034,67.437554 120.87035,68.5 120.10078,68.5 117.94451,68.5 117.14695,71.744157 117.07029,80.826923 117.00349,88.739983 117.14528,89.299128 119.92308,92.076923 122.93849,95.092331 126.61191,95.81325 129.92543,94.039909 z M 149.17223,38.5 C 150.09861,35.055654 149.23854,29 147.82297,29 145.12542,29 139.08606,34.007959 139.02224,36.297749 139.01001,36.736511 140.21216,38.218887 141.69368,39.591919 145.18109,42.823937 148.12488,42.394123 149.17223,38.5 z"/>
</svg>
