<svg xmlns="http://www.w3.org/2000/svg"
     width="64.0" height="59.2"
     viewBox="1209.1728 11.9403 103.7936 95.9993">
  <path d="M 1256.0312,16 C 1255.7112,16 1252.8024,18.663813 1249.5938,21.90625 L 1243.7812,27.78125 1245.5625,33.15625 C 1247.6165,39.280786 1248.2274,57.16654 1246.4375,58.96875 1245.6681,59.743394 1244.2372,59.306199 1241.4375,57.40625 1237.6126,54.810637 1237.4398,54.782825 1233.3125,56.3125 1229.4129,57.757799 1229.0437,57.744765 1228.5625,56.1875 1227.4767,52.673242 1226.0079,36.123398 1226,27.34375 1225.9935,20.149886 1225.6786,18.077293 1224.5,17.625 1221.3784,16.427149 1217.7946,25.604024 1216.0312,39.3125 1213.1728,61.533828 1221.0918,77.750317 1231,70 1234.5895,67.192272 1236.3595,67.50988 1240,71.65625 1243.0487,75.128523 1243.213,75.637206 1242.5938,80.90625 1242.2338,83.968402 1241.5108,86.895434 1241,87.40625 1239.4415,88.964688 1231.8632,88.131861 1228.25,86 1226.3742,84.893261 1224.4453,84.248677 1223.9375,84.5625 1221.1226,86.302234 1225.862,95.422245 1231,98.15625 1236.2754,100.96336 1240.3081,100.63852 1248.75,96.71875 1250.566,95.875565 1251.4399,96.048237 1253.25,97.6875 1254.4855,98.806391 1256.4,100.23536 1257.5,100.84375 1263.0974,103.93956 1273.963,100.82139 1277.25,95.1875 1279.3718,91.550793 1279.3748,91.530999 1277.5,89.65625 1276.3866,88.542803 1275.2241,88.36214 1273,89 1269.6461,89.961895 1264.0964,88.754886 1262.8438,86.78125 1262.4011,86.083701 1262.0084,83.221292 1262,80.4375 1261.9887,76.711256 1262.5302,74.798725 1264.0312,73.1875 1266.5338,70.501274 1266.9879,70.491764 1272.5625,73.03125 1276.2607,74.71601 1277.6817,74.905548 1280.8125,74.0625 1288.3786,72.025154 1292.7953,64.512311 1295.5625,49 1297.3581,38.933973 1298.9697,35.46053 1305.1562,28.3125 1307.2716,25.868327 1308.9664,22.89155 1308.9375,21.6875 1308.8857,19.524161 1308.8881,19.523608 1307.5,21.5 1306.7274,22.6 1304.1857,25.525 1301.875,28 1297.1469,33.064161 1294.0639,39.123313 1294.0312,43.34375 1293.9994,47.444081 1290.1357,62.069478 1288.3125,65 1284.5355,71.070704 1280.1873,72.26653 1272.0625,69.4375 1269.6203,68.58715 1266.6953,68.113267 1265.5625,68.40625 1262.6746,69.15315 1259.9141,74.561415 1259.2812,80.6875 1258.786,85.482509 1258.9584,86.11466 1261.7812,88.9375 1264.6954,91.851731 1266.9972,92.497244 1272.75,92.03125 1277.7153,91.629049 1274.0518,96.302469 1267.9688,98.125 1262.7039,99.702373 1256.6668,97.984696 1254.3125,94.21875 1253.3812,92.728994 1252.4811,91.325086 1252.3125,91.09375 1252.1439,90.862415 1250.9853,91.569853 1249.75,92.6875 1245.4897,96.541922 1236.2043,98.252265 1231.9375,95.96875 1230.8794,95.402445 1229.2886,93.550037 1228.4062,91.84375 1226.8172,88.770983 1226.8347,88.733902 1229.1562,89.3125 1240.5154,92.143488 1243.3447,90.825828 1245.2188,81.78125 1246.3843,76.155544 1246.3348,75.990139 1243.3125,71.78125 1241.6222,69.427428 1239.0613,66.91591 1237.5938,66.1875 1235.2462,65.022387 1234.4993,65.112581 1231.4062,66.9375 1225.4877,70.429558 1222.8394,69.313515 1220.0312,62.21875 1217.6274,56.144981 1218.9729,31.770026 1222.0312,26.03125 1222.8553,24.485207 1223.8392,29.051489 1223.75,34 1223.6829,37.718906 1224.9685,53.106077 1225.5938,56.1875 1226.5041,60.67396 1228.4339,61.562092 1232.9375,59.53125 L 1236.8438,57.75 1241.5625,60.9375 C 1244.1502,62.68395 1246.8264,63.914747 1247.5,63.65625 1250.439,62.528479 1251.049,41.441407 1248.375,33.59375 L 1246.75,28.84375 1250.5938,24.90625 C 1252.6975,22.751741 1254.9586,21 1255.625,21 1256.2913,21 1257.9829,23.040543 1259.375,25.53125 1261.707,29.703684 1261.7969,30.352462 1260.5938,33.78125 1257.1602,43.56589 1256.3127,59.83629 1259.1562,61.59375 1259.693,61.925484 1262.0977,61.149408 1264.5,59.875 1268.7474,57.621742 1268.9714,57.613439 1272.4688,59.28125 1280.4246,63.07516 1282.7563,60.946687 1287.5,45.625 1291.1031,33.987421 1291.1632,33.67985 1289.5938,29.625 1287.7015,24.73623 1281.5269,17.143439 1280.375,18.28125 1279.9321,18.718764 1280.2028,20.068764 1280.9688,21.28125 1281.7349,22.493737 1283.6729,25.61433 1285.2812,28.1875 L 1288.2188,32.84375 1285.4688,42.6875 C 1281.7686,55.899655 1280.6134,58.008378 1277.2188,57.96875 1275.7203,57.951258 1273.6301,57.276258 1272.5625,56.46875 1270.0548,54.572059 1267.5183,54.616059 1264.5,56.59375 1260.4658,59.23708 1259.6456,57.64571 1260.3438,48.5625 1261.0418,39.482117 1263.5272,31 1265.4688,31 1266.1679,31 1267.9409,31.941111 1269.4062,33.09375 1272.5451,35.562751 1274.6387,35.049231 1276,31.46875 1277.6361,27.165489 1277.1786,22.178661 1274.9375,19.9375 L 1272.9062,17.90625 1268.0625,21.4375 C 1265.4033,23.389513 1263.0091,25 1262.75,25 1262.491,25 1261.0019,22.975 1259.4375,20.5 1257.8731,18.025 1256.3513,16 1256.0312,16 z M 1289.5625,16.375 C 1289.3152,16.809715 1290.1547,18.705507 1292.125,21.875 1293.8783,24.695536 1295.5367,27 1295.8438,27 1297.1067,27 1304,19.474051 1304,18.09375 1304,17.132386 1302.7158,17.843788 1300.4062,20.0625 L 1296.8125,23.5 1293.4062,19.59375 C 1291.1234,16.97379 1289.8098,15.940285 1289.5625,16.375 z M 1272.5,22.375 C 1273.05,22.537245 1273.5,24.616667 1273.5,27 1273.5,32.237574 1272.1692,32.925486 1268.375,29.59375 L 1265.5,27.0625 1268.5,24.5625 C 1270.15,23.189223 1271.95,22.212755 1272.5,22.375 z"/>
</svg>
