<svg xmlns="http://www.w3.org/2000/svg"
     width="50.4" height="64.0"
     viewBox="415.3295 9.9061 77.7239 98.7516">
  <path d="M 447.07692,99.923077 C 445.38462,98.230769 444,96.037019 444,95.048077 444,93.841722 442.93047,93.000407 440.75,92.491557 436.45713,91.489743 434.85852,91.806478 432.72232,94.082091 430.70762,96.228284 426.71462,97.488204 424.55452,96.659295 422.78267,95.979374 419.59725,90.068744 420.51134,89.15707 420.87368,88.795681 422.2604,89.766703 423.59293,91.314895 426.27701,94.433384 428.30951,94.309706 433.14652,90.733555 434.94551,89.4035 436.84958,88.897693 438.91586,89.200958 441.98856,89.651935 442,89.636154 442,84.948127 442,80.622966 441.74796,80.138244 438.88176,78.951022 436.92274,78.139569 435.30198,78.001529 434.52202,78.579701 428.70027,82.895286 428.2506,83.071349 425.87283,81.966152 423.18801,80.718234 419.32951,76 420.99381,76 421.59176,76 423.38453,76.963756 424.97776,78.141679 L 427.87454,80.283358 431.11269,77.558635 C 434.25984,74.910481 436.02373,74.701948 440.25,76.478393 441.7166,77.094856 442.02429,76.629857 442.15,73.606989 442.2325,71.623145 442.345,69.4589 442.4,68.797555 442.455,68.13621 440.57321,66.240913 438.21825,64.585784 L 433.9365,61.576458 429.39548,64.038229 424.85446,66.5 422.41294,63.677626 C 421.07011,62.12532 420.23539,60.428148 420.55801,59.906131 420.88064,59.384114 421.98804,59.979183 423.01891,61.228505 424.85354,63.451906 424.95959,63.462947 428.02765,61.75 432.0646,59.496111 434.18746,59.544824 439.00366,62.001865 442.87622,63.977499 442.94121,63.97836 443.96382,62.067607 445.70728,58.809923 445.12842,55.467473 442.38035,52.924314 440.93954,51.590941 438.68706,48.817499 437.37482,46.761109 436.06258,44.704718 433.50841,42.403613 431.69887,41.64754 427.01141,39.688994 424.64629,35.698965 425.49408,31.179862 426.86081,23.894565 431.46804,18 435.79555,18 437.70744,18 438.06262,18.366533 437.49132,19.75 435.9726,23.427787 434.95188,29.351144 435.70919,30.091873 436.95533,31.310711 439.68532,28.747716 442.19535,24.002482 443.46291,21.606157 445.03732,19.471179 445.69404,19.258084 447.52378,18.664367 449.00396,25.854756 448.06784,30.789457 447.28998,34.889859 447.45225,35.319582 451.74954,40.539457 454.22202,43.542755 456.82484,46 457.53358,46 458.24233,46 459.87471,44.685252 461.16111,43.078339 462.4475,41.471425 464.52547,38.883925 465.77883,37.328339 467.36952,35.354074 467.87967,33.745074 467.46823,32 465.92652,25.460999 465.85742,23.758441 467.01981,20.952165 468.52813,17.310776 472.59185,13.906149 474.53833,14.653083 475.63332,15.073268 475.81094,16.515404 475.33205,21.097206 474.94465,24.803616 475.09001,27 475.72268,27 477.05948,27 482.0401,23.098703 484.32258,20.263744 485.325,19.018685 486.5625,18 487.07258,18 488.47642,18 488.18344,23.758902 486.75,24.340536 485.77042,24.738013 485.7868,25.049353 486.82575,25.779703 489.05339,27.345668 485.20832,34.153556 480.90839,36.256688 477.61868,37.86571 475.61762,40.037012 466.96388,51.387505 462.40699,57.364447 463.16696,67.217956 467.95592,64.25 470.74556,62.521123 474.99605,62.686454 477.11752,64.606357 478.75601,66.089169 479.13182,66.042323 482.00384,63.997266 486.01374,61.141966 487.37301,62.418742 483.69424,65.585072 480.41494,68.407571 477.88454,68.625682 474.45892,66.381124 472.38126,65.01979 471.51188,64.959547 468.9941,66.002444 466.23483,67.145371 466,67.63367 466,72.228309 466,76.59501 466.21726,77.121062 467.75,76.46556 471.48243,74.869322 474.63046,74.849803 475.92933,76.414844 477.59136,78.417471 481.37086,78.46299 483,76.5 484.54619,74.636952 486,74.561844 486,76.345012 486,80.25424 477.62058,82.657602 475,79.5 473.50768,77.701865 468.87627,77.523734 467.2,79.2 466.54,79.86 466,82.46964 466,84.999199 466,89.597544 466.0006,89.59833 469.25,89.227063 471.53008,88.966548 473.159,89.47413 474.70819,90.927864 477.58408,93.626566 479.20346,93.541126 482.81763,90.5 486.09611,87.741342 487,87.442733 487,89.118312 487,90.955 480.66871,95.966814 478.32673,95.984027 477.13142,95.992812 474.79175,94.854208 473.12746,93.453795 L 470.10146,90.907589 466.08417,92.957061 C 463.87465,94.08427 461.53576,95.998931 460.88661,97.211862 457.49932,103.54108 451.81158,104.65773 447.07692,99.923077 z M 455.87123,99.416994 C 463.12845,95.130049 465.93959,80.200824 462.49315,64.249721 461.31849,58.813072 461.04737,55.61332 461.69002,54.771232 462.2236,54.072054 465.9369,49.1125 469.94179,43.75 474.26044,37.967371 477.9287,34 478.95671,34 481.19513,34 483.66066,31.235355 484.5305,27.75 485.40708,24.237624 484.81126,24.293127 479.32204,28.235188 474.96926,31.361117 474.76995,31.405867 473.42039,29.560233 472.4201,28.19226 472.20204,26.132265 472.65215,22.302583 473.17289,17.871848 473.03172,17.050599 471.82866,17.512257 469.05773,18.575561 466.8007,28.14076 469,29.5 469.55,29.839919 470,31.165981 470,32.446805 470,36.075102 459.83163,50 457.18214,50 456.58346,50 453.36661,46.831533 450.03359,42.958962 445.36644,37.536287 444.17407,35.525124 444.84593,34.208962 446.283,31.39376 446.92499,26.496669 446.04389,25.071015 445.42287,24.066181 444.75938,24.448622 443.35988,26.61811 439.64159,32.382164 434.88771,34.755726 433.62934,31.47647 433.3078,30.638529 433.29356,27.826029 433.59772,25.22647 L 434.15073,20.5 431.60961,23.265945 C 430.212,24.787215 428.56705,27.894131 427.95417,30.170202 426.9848,33.770162 427.08964,34.643098 428.76007,36.880453 429.81619,38.29502 431.76473,39.705862 433.09015,40.015659 434.51195,40.347983 436.79589,42.552107 438.66067,45.391499 440.39903,48.038414 443.06919,51.506555 444.59435,53.098478 L 447.36736,55.992884 445.54804,63.710064 C 442.31684,77.416086 444.25719,95.96545 449.29091,99.491207 451.98581,101.37879 452.56117,101.3723 455.87123,99.416994 z"/>
</svg>
