<svg xmlns="http://www.w3.org/2000/svg"
     width="40.8" height="64.0"
     viewBox="341.0312 20.0000 43.3281 68.0000">
  <path d="M 355.875,24 C 355.52377,24 353.99461,25.6875 352.46875,27.75 350.9429,29.8125 348.83687,32.204053 347.78125,33.0625 345.99156,34.517894 345.84814,36.181953 345.8125,57.6875 345.79199,70.060145 345.4358,80.447049 345.03125,81.59375 L 345.34375,82 348.03125,82.75 C 347.43373,81.056328 347.47307,76.060425 347.78125,59.84375 L 348.25,35.5625 351.375,31.8125 C 353.09365,29.74141 354.95,28.040181 355.5,28.03125 356.05,28.022319 357.74788,29.979073 359.28125,32.40625 L 362.0625,36.84375 361.375,59.65625 C 360.94239,74.040072 360.3455,82.035441 359.65625,82.90625 L 361.34375,82.65625 362.6875,81.3125 363.3125,61.46875 C 363.66325,50.565464 364.33567,41.25808 364.8125,40.78125 365.30178,40.291967 367.78784,40.631086 370.53125,41.5625 375.30985,43.184875 375.42089,43.181672 377.1875,41 380.35932,37.082962 378.46503,24 374.71875,24 373.95318,24 371.18268,26.025 368.5625,28.5 365.94231,30.975 363.38085,33 362.875,33 362.36916,33 360.71371,30.975 359.21875,28.5 357.7238,26.025 356.22623,24 355.875,24 z M 373.28125,27.15625 C 375.22215,26.599644 376,29.187626 376,35.09375 376,39.567803 375.7968,39.998883 373.75,39.875 364.93957,39.341745 363.662,37.327871 368.4375,31.5 370.52898,28.94762 372.11671,27.490214 373.28125,27.15625 z M 350.46875,83.40625 352.65625,84 355.21875,83.59375 C 354.47343,83.301894 353.82831,82.899107 353.65625,82.25 353.40111,81.2875 353.3269,78.475 353.46875,76 354.70574,54.417717 354.90233,43.97208 354.125,41 353.42819,38.335761 353.15853,40.843043 353,51.5 352.88547,59.2 352.51051,69.55 352.15625,74.5 351.70901,80.749134 351.42421,82.703819 350.46875,83.40625 z"/>
</svg>
