<svg xmlns="http://www.w3.org/2000/svg"
     width="31.5" height="64.0"
     viewBox="2288.9688 12.3341 46.0880 93.5721">
  <path d="M 2293.1875,87.75 2293.1562,91.40625 C 2293.8365,91.535557 2294.5212,91.65345 2294.9062,91.53125 2298.2366,90.474246 2307.6045,80.191193 2308.8125,76.28125 2309.8965,72.772617 2313,45.677406 2313,39.6875 2313,38.221686 2311.7334,35.615364 2310.125,33.78125 2308.5407,31.974612 2307.0532,29.593684 2306.8438,28.5 2306.393,26.146312 2303,25.125788 2303,27.34375 2303,28.166951 2304.6096,30.963016 2306.5938,33.5625 L 2310.2188,38.3125 2309.5625,47.90625 C 2309.2054,53.186394 2308.6784,61.1 2308.375,65.5 2307.7489,74.579889 2305.401,79.693861 2299.5,84.875 2297.0359,87.038488 2295.2149,87.857145 2293.1875,87.75 z M 2293,99.5625 2292.9688,101.90625 C 2297.0154,101.6523 2304.1589,97.029243 2310.625,90.40625 2317.642,83.218909 2320.503,74.554016 2321.875,56.25 2322.7917,44.019726 2323.093,42.813713 2327,34.78125 2330.2273,28.146016 2331.0568,25.321002 2330.8125,22.09375 2330.4043,16.702044 2328.8474,16.334103 2328.5938,21.5625 2328.4719,24.074395 2327.0116,28.073525 2324.7812,32.0625 2320.7186,39.328821 2320.5133,40.292998 2318.5938,59 2316.8204,76.280693 2314.4936,82.694385 2307.6562,89.25 2304.8774,91.914265 2300.1931,95.441171 2297.25,97.125 L 2293,99.5625 z M 2317.125,17 C 2316.2715,17 2315.9109,18.37766 2314.4688,27.75 2313.6426,33.118228 2315.4821,33.490779 2316.9375,28.25 2318.2137,23.654568 2318.3343,17 2317.125,17 z M 2324.0625,18.28125 C 2323.4707,18.896016 2322.6217,20.768942 2321.6875,23.75 2320.6966,26.911738 2319.6675,30.0625 2319.375,30.75 2319.0826,31.4375 2319.4933,32 2320.3125,32 2321.9071,32 2325,24.29396 2325,20.3125 2325,18.301901 2324.6543,17.666484 2324.0625,18.28125 z"/>
</svg>
