<svg xmlns="http://www.w3.org/2000/svg"
     width="42.2" height="64.0"
     viewBox="0.7600 19.9843 55.1990 83.7694">
  <path d="M 18.534306,96.848325 C 14.935654,94.017625 12.001556,86.983092 11.993677,81.167095 11.988076,77.032662 11.645682,76.305578 8.9936774,74.79651 5.7753874,72.965209 4.7600272,70.277226 7.75,71.504098 11.433721,73.015635 12.494703,72.554718 12.809161,69.306274 13.070186,66.609819 12.642003,65.866233 10.059161,64.530594 6.8314578,62.861483 5.6674541,60.207557 8.75,61.545707 9.7125,61.963534 11.625,62.349179 13,62.402696 15.35953,62.494533 15.516992,62.172178 15.802421,56.665627 15.968753,53.456722 15.693302,50.306722 15.190309,49.665627 14.687315,49.024532 13.983278,47.274955 13.625782,45.777677 13.268286,44.2804 12.055131,42.197631 10.929882,41.149302 L 8.8839754,39.24325 13.799199,33.371625 C 16.502572,30.142231 19.618579,26.697144 20.723658,25.715876 22.673696,23.984318 22.817852,24.029209 25.616447,27.239514 27.202401,29.058783 29.198383,31.61419 30.051963,32.918198 L 31.603925,35.28912 36.404024,31.625123 C 42.748141,26.782548 44.358125,25.985265 45.885994,26.92954 47.627941,28.006123 48.456974,38.81166 47.07117,42.377022 46.063719,44.968969 45.607502,45.197991 42.466956,44.688351 40.549679,44.377219 37.633416,43.163095 35.986372,41.990296 32.643148,39.609711 32.420179,39.844839 31.709868,46.5 31.321352,50.140148 31.869462,52.279428 36.153611,63.843959 L 37.021944,66.187917 40.545768,63.093959 C 44.84863,59.315996 46.256158,59.238899 48.92742,62.634859 51.304492,65.656816 51.959037,74.493726 49.75,73.74038 49.0625,73.505922 48.648423,72.298346 48.829828,71.056876 49.011234,69.815407 48.61914,67.494736 47.958508,65.89983 46.408263,62.157207 42.900804,62.039355 40.07258,65.634859 37.72146,68.623823 37.335546,72 39.345012,72 41.038927,72 44.546134,75.787199 43.666667,76.666667 43.306744,77.026589 42.106744,76.501589 41,75.5 38.51035,73.246897 38.159979,73.580574 37.500013,78.833226 36.576067,86.186897 34.02632,90.932688 28.765004,95.091519 23.044164,99.613583 22.227946,99.753743 18.534306,96.848325 z M 27.932512,93.056504 C 34.072889,87.91549 35.467895,83.755904 34.726408,72.798678 34.338436,67.065478 33.330818,62.490571 31.467017,58 29.105055,52.309181 28.847041,50.655881 29.394434,44.71935 30.05056,37.603598 29.266012,34.878905 25.228128,30.25 22.566847,27.19919 21.596481,27.388385 17.534738,31.75 12.966349,36.655667 12.493028,38.370076 14.481585,42.808786 17.533498,49.621041 17.847476,50.488312 18.313283,53.392702 18.568445,54.983688 17.980936,59.069847 17.007705,62.473056 16.034475,65.876264 14.924861,72.224548 14.541896,76.580354 13.95184,83.29158 14.149496,85.206987 15.837278,89.133396 17.473675,92.940266 21.084346,97 22.833726,97 23.047518,97 25.341972,95.225427 27.932512,93.056504 z M 45.393011,41.418213 C 46.299087,39.057017 46.096852,31.701345 45.081778,30.098079 44.351248,28.944238 43.401428,29.160743 39.714251,31.321572 32.779515,35.385599 32.711322,38.655611 39.499613,41.614086 43.483766,43.350462 44.666624,43.311148 45.393011,41.418213 z"/>
</svg>
