<svg xmlns="http://www.w3.org/2000/svg"
     width="63.8" height="64.0"
     viewBox="970.6343 9.8014 97.2032 97.5262">
  <path d="M 987.87238,100.25 C 987.80218,99.8375 987.63861,98.487205 987.50888,97.249345 987.37915,96.011485 986.7105,92.348024 986.02299,89.108321 984.46942,81.787559 985.59347,77.7556 990.51884,72.981743 994.3682,69.250798 994.74167,67.334913 992.47432,62.95034 990.1034,58.365492 987.77452,59.146842 982.4931,66.299091 978.77159,71.338851 975.63571,71.131463 975.19359,65.816348 974.63431,59.092737 976.79502,53.911491 982.56807,48.132811 988.92619,41.768492 990.77139,41.766478 997.32913,48.116702 1003.6111,54.19984 1004.7909,54.622273 1006.1929,51.290242 1007.7406,47.612075 1007.8572,32.463036 1006.3495,30.952046 1005.4811,30.081685 1004.0792,30.455314 1000.6308,32.476229 L 996.0625,35.153414 993.53125,32.622161 C 990.43908,29.52999 990.3077,26.061545 993.06686,20.361893 996.07862,14.140413 998.49184,13.801355 1003.2738,18.92782 L 1007.1739,23.108991 1012.544,19.054495 C 1015.4976,16.824523 1018.3668,15 1018.92,15 1019.4731,15 1021.7541,16.902821 1023.9889,19.228492 1026.9652,22.325996 1028.4069,23.195268 1029.3791,22.478492 1035.7276,17.797718 1039.0488,15.912123 1039.9566,16.473159 1041.6378,17.512233 1045.0004,24.676151 1044.9963,27.210162 1044.9921,29.733409 1041.5401,36 1040.1542,36 1039.6729,36 1037.5832,34.849144 1035.5105,33.442543 1033.4377,32.035941 1031.1485,31.112768 1030.4233,31.391046 1028.4428,32.151045 1026.7113,39.881017 1027.336,45.173646 1028.4777,54.845773 1032.3051,56.384363 1039.8612,50.208728 1048.1979,43.395204 1051.8618,42.948951 1056.7023,48.157548 1061.6973,53.532482 1063.8375,65.230124 1060.3546,68.120647 1058.9387,69.295785 1058.5552,69.223071 1057.6046,67.599139 1056.9971,66.561264 1055.5148,64.539373 1054.3106,63.106047 1052.5202,60.974908 1051.7912,60.700085 1050.3106,61.597962 1049.3148,62.201842 1048.0682,64.400337 1047.5405,66.483508 1046.6889,69.845349 1046.9401,70.919313 1049.7757,76.037952 L 1052.9703,81.804813 1051.0874,86.652406 C 1050.0518,89.318583 1048.5793,93.3 1047.8151,95.5 1045.096,103.32758 1038.211,99.786273 1039.5742,91.261306 1040.1373,87.740175 1039.847,86.870268 1037.1129,83.88471 L 1034.0133,80.5 1030.0066,84.711277 C 1026.7078,88.178648 1026,89.625555 1026,92.90226 1026,98.351158 1024.3192,98.976193 1023.7353,93.74443 1023.1647,88.631703 1025.7523,83.948235 1031.7897,79.166523 L 1035.7536,76.027114 1039.3768,80.677666 C 1042.5376,84.734721 1043.0041,86.041084 1043.0318,90.91411 1043.0589,95.68047 1043.2523,96.251748 1044.3497,94.80792 1045.057,93.877276 1046.5017,90.568219 1047.5601,87.45446 L 1049.4845,81.79308 1046.2598,75.879819 C 1043.0388,69.973297 1043.0369,69.961255 1044.6142,65.315273 1047.3408,57.284485 1051.5586,55.537667 1056.75,60.289249 L 1059,62.348628 1059,60.142195 C 1059,56.979892 1056.625,51.810842 1054.1652,49.619572 1051.2104,46.987437 1046.973,48.055169 1040.7686,52.99515 1038.0022,55.197817 1034.8381,57 1033.7374,57 1032.2088,57 1025.4149,53.664182 1024.9155,52.668441 1024.8691,52.575798 1024.6292,49.657318 1024.3826,46.182928 1024.0929,42.10233 1024.5118,37.807302 1025.5656,34.051333 1027.4591,27.303213 1026.8977,25.549194 1021.5353,21.459103 L 1018.0974,18.836909 1013.438,22.042651 C 1008.919,25.151787 1008.8036,25.357656 1009.6085,28.874196 1010.0649,30.868388 1010.4013,36.325 1010.356,41 1010.2634,50.561754 1008.1752,57 1005.1666,57 1003.5529,57 997.73937,52.655196 992.72128,47.698848 990.47563,45.480827 987.64097,46.209031 984.29448,49.863634 979.90243,54.660049 976.14491,65 978.79394,65 979.23061,65 981.29356,63.2 983.37828,61 986.03848,58.192688 988.00152,57 989.96189,57 993.28677,57 994.47623,58.264031 996.47066,63.916845 997.78841,67.65175 997.7924,68.500779 996.50387,70.99252 995.69854,72.549844 993.58082,74.96572 991.79781,76.361133 988.9936,78.555756 988.56982,79.478834 988.65849,83.199124 988.71487,85.564606 989.15991,89.3 989.64747,91.5 990.78591,96.637008 993.38797,96.952602 993.76994,92 994.23317,85.993918 994.93303,84.145871 998.11804,80.51834 999.9956,78.379916 1002.1232,77 1003.5428,77 1005.6881,77 1013.7851,82.99949 1016.75,86.78592 1018.0167,88.403637 1018.5,96.166715 1017.4022,97.264432 1015.7922,98.874517 1014.1318,96.531945 1014.1844,92.724325 1014.2282,89.549221 1013.7016,88.189532 1011.8705,86.75018 1010.5667,85.725272 1008.2022,83.774929 1006.6161,82.416085 1003.9023,80.091188 1003.59,80.038629 1001.3215,81.525028 998.58181,83.320116 997,86.794898 997,91.018047 997,92.606363 996.50038,95.002445 995.88973,96.342675 994.47026,99.458065 988.2532,102.488 987.87238,100.25 z M 1002.7418,27.234767 C 1004.9304,25.815231 1004.9423,25.710115 1003.2418,22.801849 1000.6496,18.3686 998.45056,17.518647 996.55917,20.218988 995.01936,22.417367 994.40674,29.073409 995.63148,30.29815 996.26571,30.932381 998.57444,29.937694 1002.7418,27.234767 z M 1016.7315,75.330482 C 1012.249,72.970859 1010.7212,69.814444 1011.6902,64.914752 1013.0726,57.924382 1019.9398,54.319187 1024.4544,58.213704 1029.625,62.674096 1029.3275,71.555941 1023.8797,75.371698 1021.1555,77.279805 1020.4266,77.275602 1016.7315,75.330482 z M 1023.8114,71.961045 C 1026.5285,69.429754 1026.7134,64.102531 1024.1923,60.989102 1022.7181,59.168654 1021.7938,58.886373 1019.1839,59.4596 1015.545,60.258855 1014,62.490889 1014,66.948957 1014,69.351184 1014.7155,70.465673 1017.25,72.01096 1021.2499,74.449726 1021.1392,74.450567 1023.8114,71.961045 z M 1041.4618,29.173724 C 1042.112,26.213691 1040.855,21.646427 1039.0899,20.555579 1037.773,19.741702 1033.3708,22.591306 1032.5201,24.808301 1032.0813,25.95164 1032.8663,27.384846 1034.9519,29.248309 1038.8717,32.750642 1040.6808,32.729916 1041.4618,29.173724 z"/>
</svg>
