<svg xmlns="http://www.w3.org/2000/svg"
     width="35.7" height="64.0"
     viewBox="722.8915 15.0000 50.7794 90.9263">
  <path d="M 727.48966,96.38645 C 733.26275,82.913881 734.26863,78.47791 734.7201,64.5 734.99041,56.130699 734.71137,48.086843 734.02631,44.5 731.55552,31.56343 731.40965,32.685683 736.48665,25.570912 739.06555,21.95691 741.81664,19 742.6002,19 743.38375,19 745.62542,21.50211 747.58169,24.560244 749.53795,27.618379 751.48261,29.980879 751.90314,29.810244 752.32367,29.63961 755.24523,28.15 758.39549,26.5 L 764.12324,23.5 766.06162,25.860784 C 769.67091,30.256596 767.9864,44 763.83832,44 763.26177,44 760.77997,42.643415 758.32321,40.985367 755.86645,39.327318 753.4907,38.196734 753.04376,38.472956 751.61756,39.354393 750.07616,50.987741 749.00132,68.982282 L 747.95708,86.464565 750.50395,91.373541 C 751.90473,94.073478 752.7761,96.556451 752.44034,96.891259 751.45461,97.874177 747.17171,92.281405 746.19146,88.731254 745.09557,84.762269 746.5658,53.419259 748.14897,47 751.0988,35.03942 751.09461,34.954729 747.24293,28.714525 745.04561,25.154588 743.08059,23.030415 742.1504,23.209553 741.31735,23.369983 739.08585,25.658994 737.19151,28.296243 L 733.74726,33.091242 735.47021,38.795621 C 736.55377,42.38311 737.38807,49.528325 737.71838,58.049817 738.17105,69.72816 737.9485,72.766758 736.10704,80.049817 733.73381,89.436038 730.24343,97.182664 728.09065,97.84155 727.04782,98.160723 726.89152,97.78231 727.48966,96.38645 z M 732,100.44136 C 732,99.225824 738.40578,92 739.48337,92 740.50103,92 747,98.56792 747,99.596387 747,99.818374 746.15175,100 745.11501,100 744.07827,100 742.43914,98.79296 741.4725,97.317688 L 739.71498,94.635376 736.87159,97.817688 C 734.31405,100.68007 732,101.92634 732,100.44136 z M 765.18503,37.43484 C 766.16964,33.795784 765.18357,28.007674 763.46678,27.348878 762.7624,27.078584 760.35371,28.014166 758.11414,29.427949 754.4907,31.715326 754.15584,32.246382 755.07409,34.249232 756.22822,36.766558 761.95984,41.180053 763.4359,40.688035 763.96118,40.51294 764.74829,39.049002 765.18503,37.43484 z"/>
</svg>
