<svg xmlns="http://www.w3.org/2000/svg"
     width="32.2" height="64.0"
     viewBox="160.8477 17.5027 43.6069 86.6669">
  <path d="M 184.23124,68.364402 184.5,36.291277 181,31.147572 C 179.075,28.318534 176.94796,26.002996 176.27325,26.001933 175.59854,26.00087 173.19364,28.344054 170.92902,31.20901 L 166.81154,36.41802 167.49384,66.095563 C 167.99961,88.094726 167.87741,95.95773 167.02154,96.486689 166.38651,96.879159 165.68649,97.019827 165.46595,96.799284 165.24541,96.578741 165.01607,82.8521 164.95631,66.295638 L 164.84766,36.192979 167.69264,32.265597 C 172.81924,25.188541 175.84539,22 177.43544,22 178.29595,22 179,22.382483 179,22.849962 179,23.31744 180.36756,25.587784 182.03902,27.895169 L 185.07804,32.090416 190.71353,27.06759 C 196.9572,21.502698 198.45779,21.592837 199.58483,27.600483 200.4546,32.236749 199.29121,37.708785 196.93476,40.065242 195.11214,41.887858 194.7387,41.917661 191.36841,40.509465 189.38145,39.679259 187.58832,39 187.38367,39 187.17903,39 186.99758,46.0875 186.98044,54.75 186.9201,85.262746 186.39848,98.001519 185.15866,99.241342 184.23041,100.16959 184.02267,93.253335 184.23124,68.364402 z M 174.49932,95.25 C 174.6989,93.7375 174.89321,79.760942 174.9311,64.190983 174.97883,44.581611 175.32464,36.082605 176.0564,36.534855 177.72873,37.568413 177.10543,98 175.42244,98 174.59823,98 174.26675,97.012506 174.49932,95.25 z M 196.02266,36.957664 C 197.32889,34.51695 196.93347,27.796585 195.45513,27.312344 194.18918,26.89767 188,32.771012 188,34.38704 188,35.471034 192.6679,38.915806 194.21482,38.973391 194.60797,38.988026 195.42149,38.080949 196.02266,36.957664 z"/>
</svg>
