<svg xmlns="http://www.w3.org/2000/svg"
     width="19.6" height="64.0"
     viewBox="2938.1250 15.4860 25.8938 84.7489">
  <path d="M 2942.125,50.28125 2942.3438,54.28125 C 2942.7366,54.435104 2942.9691,54.856598 2942.9375,55.75 2942.9315,55.919683 2942.5922,56.266691 2942.4688,56.5 L 2942.6562,60 2942.625,61.125 C 2943.3621,61.413056 2943.9157,63.913669 2944.25,68.75 2944.9067,78.250292 2947.7926,91.982392 2949.6562,94.53125 2950.856,96.17199 2951.1992,96.234884 2952.375,94.96875 2954.4976,92.683147 2956.9583,83.797472 2958.6562,72.28125 2959.9431,63.554393 2960.0188,59.229671 2959.1562,47.59375 2957.7575,28.726545 2955.2394,19.486024 2952.0312,21.46875 2949.097,23.28225 2945.0226,35.132704 2943.3438,46.75 2943.1032,48.41511 2942.6268,49.585151 2942.125,50.28125 z M 2952.9375,25.46875 C 2953.4466,25.78336 2954.6289,29.46003 2955.5625,33.65625 2956.962,39.946902 2957.1728,44.306197 2956.6562,58.40625 2956.3117,67.811779 2955.5919,77.31521 2955.0625,79.53125 2952.9425,88.404602 2950,92.390418 2950,86.40625 2950,85.167339 2949.2546,81.325672 2948.3438,77.84375 2946.7667,71.814611 2945.9188,48.410326 2946.9375,39 2947.4289,34.461818 2951.744,24.731085 2952.9375,25.46875 z"/>
</svg>
