<svg xmlns="http://www.w3.org/2000/svg"
     width="26.4" height="64.0"
     viewBox="2258.3995 13.5806 38.7880 93.8715">
  <path d="M 2293.1875,87.75 C 2291.9379,87.683961 2290.6311,87.34348 2289,86.5 2285.5914,84.73737 2285.3505,83.639737 2284.5312,66.3125 2283.8001,50.845576 2284.4672,46.13809 2287.625,44.9375 2288.9228,44.444063 2290,43.795444 2290,43.5 2290,42.283955 2278.9366,35.991029 2276.8125,36 2275.5486,36.005338 2272.5086,37.580338 2270.0938,39.5 2267.6788,41.419662 2265.3164,43 2264.8438,43 2264.3711,43 2264,43.456328 2264,44.03125 2264,44.678052 2265.3065,44.862681 2267.4062,44.46875 L 2270.7812,43.8125 2271.4375,48.65625 C 2271.8032,51.318981 2272.1124,61.375 2272.125,71 2272.1466,87.470399 2272.021,88.862271 2269.6562,94.46875 2268.2743,97.745075 2267.3701,100.78712 2267.6562,101.25 2268.4754,102.57532 2270.7261,100.19786 2271.4688,97.21875 2271.8401,95.72881 2272.8368,93.017703 2273.6875,91.21875 2274.9972,88.44916 2275.1614,84.771303 2274.625,67.21875 2274.2766,55.817703 2273.8821,44.925 2273.75,43 2273.5184,39.628428 2273.6183,39.507312 2276.8125,39.65625 2281.3039,39.865674 2284.3029,42.577581 2282.9062,45.1875 2281.339,48.115712 2282.3567,84.507159 2284.0625,86.5625 2285.72,88.559616 2290.3387,90.870643 2293.1562,91.40625 L 2293.1875,87.75 z M 2293,99.5625 2291.9062,100.1875 2288.1875,97.78125 C 2281.7121,93.546322 2282.1119,93.525592 2275.5938,98.71875 2274.0682,99.934172 2273.1152,101.39667 2273.4688,101.96875 2274.3855,103.45203 2274.8606,103.29936 2278.1875,100.5 2281.767,97.487988 2282.6283,97.435906 2286.5,100 2288.15,101.09275 2290.8827,101.99638 2292.5625,102 2292.6755,102.00024 2292.8502,101.91369 2292.9688,101.90625 L 2293,99.5625 z M 2277.7188,18.28125 C 2277.0483,18.538546 2273.9358,20.830787 2270.8125,23.375 2267.6892,25.919214 2264.6496,28 2264.0625,28 2263.4755,28 2263,28.45 2263,29 2263,31.217425 2266.5801,29.75661 2271.5625,25.5 2274.4595,23.025 2277.151,21 2277.5625,21 2277.974,21 2280.7248,22.870588 2283.6875,25.15625 2287.2244,27.884961 2289.4157,28.959355 2290.0625,28.3125 2291.2677,27.107352 2279.5446,17.580571 2277.7188,18.28125 z M 2277.7812,27 C 2277.0486,27 2274.7825,28.392571 2272.7188,30.09375 2270.6549,31.79493 2267.7444,33.514943 2266.2812,33.90625 2264.818,34.297557 2263.4345,35.227754 2263.1875,35.96875 2262.3995,38.33287 2268.9138,36.28589 2272.6562,33 2274.5367,31.349001 2276.6128,29.994662 2277.2812,30 2277.9497,30.005338 2280.4914,31.580338 2282.9062,33.5 2285.3212,35.419662 2287.6536,37 2288.0938,37 2289.4459,37 2290.4359,34.645323 2289.25,34.25 2288.6364,34.045486 2286.1009,32.327945 2283.625,30.4375 2281.1492,28.547054 2278.514,27 2277.7812,27 z"/>
</svg>
