<svg xmlns="http://www.w3.org/2000/svg"
     width="39.1" height="64.0"
     viewBox="2635.0312 13.6541 58.3126 95.3661">
  <path d="M 2688.5,87.875 2689.3438,85.34375 2689.125,84.53125 C 2689.1161,84.534871 2689.0065,84.591251 2689,84.59375 2688.725,84.699272 2686.5875,82.638341 2684.25,80.03125 2679.2251,74.426798 2678.9227,71.136969 2682.4688,60.40625 L 2682,58.65625 2683.0625,49.0625 C 2682.3193,48.470076 2682,47.889038 2682,47.125 2682,46.067237 2680.6409,42.616356 2678.9688,39.4375 2676.7054,35.134943 2676.086,32.888023 2676.5625,30.71875 2677.5047,26.428967 2676.137,18.993379 2674.2812,18.28125 2672.6471,17.65414 2672.2364,18.108866 2668.0625,24.96875 2666.7144,27.184331 2665.2668,29 2664.8438,29 2664.4208,29 2663.0352,27.195764 2661.7812,25 2659.2686,20.600144 2657.3247,20.089821 2653.3125,22.71875 2648.436,25.913956 2645,31.809484 2645,37 2645,47.546869 2654.7789,51.244728 2662.8125,43.71875 2664.7722,41.88283 2665.2561,41.776943 2666.0625,43.03125 2669.2082,47.923784 2669.3391,57.952998 2666.3438,62.75 2664.6271,65.499051 2663.6013,65.573935 2661.2812,63.09375 2660.2973,62.041973 2657.552,60.41249 2655.1875,59.46875 2650.9308,57.769766 2650.873,57.770218 2648.3125,60.125 2642.8479,65.150553 2639.0312,78.656182 2642.1875,81.8125 2644.4519,84.076914 2646.5041,82.918989 2649.5,77.71875 2651.15,74.854718 2653.2692,72.367938 2654.2188,72.1875 2655.1685,72.007062 2657.1249,73.031131 2658.5625,74.46875 L 2661.1875,77.09375 2656.5938,81.375 C 2651.7254,85.908671 2650.8572,88.911971 2653.375,92.53125 2654.1297,93.616128 2655.0901,96.075 2655.5,98 2655.91,99.925 2656.4447,101.8375 2656.6875,102.25 2658.318,105.02028 2663.0581,100.451 2665.0625,94.1875 2666.3695,90.103745 2669.6642,86 2671.625,86 2674.0526,86 2675.9956,90.181515 2675.375,94.0625 2674.6445,98.63083 2677.2562,103.26756 2680.3125,102.8125 2681.8607,102.582 2682.7555,100.98127 2684.1562,96 2685.3051,91.91465 2686.4437,89.693498 2688.5,87.875 z M 2673.125,24 C 2674.3374,24 2674.2326,28.700975 2672.9688,31.0625 2671.976,32.917372 2673.057,36.633173 2675,38 2675.3909,38.275 2676.5258,40.068603 2677.5,41.96875 2680.0678,46.977583 2680.5738,56.383304 2678.625,62.9375 2676.0036,71.753546 2676.4288,75.351869 2680.6562,80.03125 L 2684.3125,84.0625 2682.9688,89.59375 C 2682.2426,92.620237 2681.0893,95.841091 2680.375,96.78125 2679.2442,98.269662 2679.0589,97.952319 2679.0312,94.28125 2678.9919,89.060644 2676.357,83.323084 2673.6875,82.625 2671.4896,82.050222 2667.0961,83.993483 2665.0938,86.40625 2664.3935,87.250085 2663.2495,89.829712 2662.5625,92.15625 2661.8756,94.482787 2660.8488,96.56083 2660.2812,96.75 2659.7137,96.939171 2658.2977,95.249952 2657.125,93 2654.5951,88.146243 2655.0978,86.681065 2660.9688,82.03125 2664.8835,78.930697 2664.9345,78.774159 2663.5,76 2661.4233,71.984249 2657.0817,68.834706 2654.0938,69.1875 2652.481,69.377927 2650.4731,71.00689 2648.5312,73.6875 2645.0248,78.528168 2644,78.969739 2644,75.59375 2644,71.767721 2647.6416,64.291013 2650.375,62.5 2653.2174,60.637607 2655.5109,61.390524 2660.1562,65.71875 2661.6143,67.077348 2663.6274,68.035858 2664.625,67.84375 2667.7787,67.236396 2670.7949,61.407008 2671.5312,54.53125 2672.1331,48.911612 2671.9466,47.612793 2669.875,43.90625 2666.457,37.790369 2664.381,36.827722 2661.9062,40.1875 2659.3918,43.601139 2653.8901,45.544563 2651.0625,44.03125 2648.5232,42.672254 2647.063,37.44436 2648.125,33.5 2648.9844,30.308088 2655.6599,23.725264 2657.4375,24.3125 2658.0206,24.505131 2659.175,25.987847 2660,27.59375 2660.825,29.199653 2661.9016,30.779912 2662.375,31.125 2664.0153,32.320733 2667.0974,30.72998 2669.6562,27.375 2671.0704,25.520987 2672.6403,24 2673.125,24 z"/>
</svg>
