<svg xmlns="http://www.w3.org/2000/svg"
     width="57.2" height="64.0"
     viewBox="2198.0341 45.0516 54.3384 60.8049">
  <path d="M 2235.125,63.25 2234,64.65625 2231.625,64.53125 C 2231.8099,65.473618 2232.0125,66.325066 2232.2188,66.53125 2233.4707,67.783186 2236.7114,65.927665 2241.4062,61.25 L 2246.1562,56.5 2245.5,60.5 C 2245.1297,62.7 2243.6757,66.841283 2242.2812,69.6875 L 2239.75,74.84375 2241.9062,79.28125 C 2243.0846,81.715517 2244.2063,85.89095 2244.4062,88.5625 L 2244.75,93.40625 2242.125,90.25 C 2240.6781,88.510917 2238.4669,85.706701 2237.1875,84.03125 2235.9082,82.355799 2234.5087,81 2234.0938,81 2233.6788,81 2231.6249,83.920166 2229.5312,87.5 2225.3029,94.730157 2224.2468,94.807904 2222,88 2219.8185,81.389882 2218.3886,80.930104 2214.1562,85.53125 2212.1521,87.71017 2209.7452,90.625 2208.8125,92 L 2207.0938,94.5 2207.0625,90.78125 C 2207.007,86.83638 2209.639,79 2211.0312,79 2211.4844,79 2212.1571,78.111491 2212.5,77.03125 2212.9484,75.618467 2212.2196,74.292302 2209.9688,72.28125 2207.2768,69.875911 2206.768,68.618643 2206.2812,63.25 2205.9588,59.694719 2206.1303,57 2206.6562,57 2207.1638,57 2210.0126,59.475 2213,62.5 2215.9874,65.525 2219.0005,68 2219.6875,68 2220.8224,68 2221.6813,66.51634 2222.4375,64.125 L 2220,64 2219.5,62.84375 C 2218.2428,63.209643 2216.0234,61.617369 2212.0938,57.5 2204.0307,49.051614 2202.0341,50.240902 2203.75,62.46875 2204.412,67.18644 2205.5594,70.83265 2207,72.78125 L 2209.2188,75.78125 2206.625,82.3125 C 2204.1307,88.54709 2203.012,98.699556 2204.6562,100.34375 2206.1691,101.85655 2207.6231,100.66544 2209.7188,96.1875 2213.9094,87.233342 2218.579,84.554224 2220.0938,90.21875 2221.0963,93.967249 2224.9367,99.159946 2226.1562,98.40625 2226.7097,98.064192 2228.0017,95.901909 2229.0312,93.625 2230.0608,91.348091 2231.5393,88.7125 2232.3125,87.75 2233.9725,85.683345 2237,85.42059 2237,87.34375 2237,88.083507 2237.9071,89.510938 2239,90.5 2240.0929,91.489061 2241.5199,93.810069 2242.1875,95.65625 2242.8551,97.502432 2243.9666,99 2244.6562,99 2247.6851,99 2247.6336,81.452609 2244.5938,78.09375 2242.5144,75.796091 2242.5738,75.214996 2245.4375,68.875 2247.6634,63.947085 2248.3725,60.354473 2248.0938,55.75 2247.9044,52.625085 2244.9828,53.889051 2239.9688,59.25 2237.7236,61.650509 2236.1797,62.981763 2235.125,63.25 z M 2227.25,68 C 2223.5269,68.020731 2222.3394,68.947226 2220.5938,73.125 2218.7366,77.569713 2219.4846,80.65766 2222.875,82.5 2226.588,84.517635 2227.233,84.374542 2230.8125,80.875 2236.1509,75.655723 2234.0222,67.96229 2227.25,68 z M 2227.9688,70.53125 C 2228.9011,70.60015 2229.8175,70.94253 2230.5312,71.65625 2232.5363,73.661239 2232.3939,75.252256 2229.9375,78.375 2226.5313,82.705348 2222,81.317425 2222,75.9375 2222,72.724955 2225.1717,70.324549 2227.9688,70.53125 z"/>
</svg>
