<svg xmlns="http://www.w3.org/2000/svg"
     width="37.8" height="64.0"
     viewBox="2422.8981 15.2215 47.9779 81.3319">
  <path d="M 2447.8569,90.25 C 2447.0577,89.2875 2445.119,86.025 2443.5487,83 2441.9784,79.975 2440.5516,77.326544 2440.378,77.114542 2440.2044,76.90254 2438.8968,77.49285 2437.4721,78.426343 2431.584,82.284356 2426.8981,77.764257 2428.9425,70.198503 2430.2935,65.198826 2432.265,64.024829 2435.0609,66.55509 2437.2694,68.553746 2437.0933,68.6795 2442.3264,61.366023 2446.4001,55.672885 2446.527,55.099315 2444.7807,50.270147 2443.6197,47.059439 2443.3808,46.928823 2439.7807,47.537047 2437.5038,47.921727 2436,47.778556 2436,47.177104 2436,46.137044 2444.812,41.478651 2445.4924,42.159033 2445.7058,42.372421 2446.9937,46.052871 2448.3544,50.33781 2450.4325,56.881894 2450.5966,58.217586 2449.3795,58.684625 2447.1868,59.526041 2442,67.555004 2442,70.10781 2442,71.343913 2444.025,76.340804 2446.5,81.212012 2448.975,86.08322 2451,90.503284 2451,91.034377 2451,92.553333 2449.4478,92.165972 2447.8569,90.25 z M 2437.5,75.400103 C 2439.4683,73.888196 2439.4531,73.825981 2436.5442,71.480251 2433.2273,68.805492 2431,69.599134 2431,73.455778 2431,77.332064 2433.868,78.189973 2437.5,75.400103 z M 2432.991,41.75 C 2432.986,41.0625 2434.4164,39.320992 2436.1696,37.879983 L 2439.3572,35.259966 2436.6786,29.602648 C 2435.2054,26.491122 2434,23.28263 2434,22.472665 2434,19.221457 2436.1005,21.362282 2439.4407,28.017792 L 2442.9626,35.035583 2439.365,39.017792 C 2435.8004,42.963292 2433.0084,44.160115 2432.991,41.75 z M 2444.6169,26.928329 C 2440.5006,20.018307 2440.4948,20 2442.4351,20 2443.2245,20 2445.137,21.790392 2446.6851,23.978649 2449.849,28.450627 2451.3886,28.824894 2455,26 2456.375,24.924459 2458.3878,24.034466 2459.4729,24.022236 2461.1784,24.003013 2461.0375,24.372582 2458.4325,26.75 2454.8402,30.028453 2450.4278,33 2449.1521,33 2448.647,33 2446.6062,30.267748 2444.6169,26.928329 z M 2452.0904,81.547104 C 2449.8407,77.448011 2448,72.944102 2448,71.538417 2448,69.832321 2449.8285,66.993648 2453.5,63 2456.525,59.709556 2459,56.415172 2459,55.679146 2459,54.943119 2457.8344,51.094649 2456.4097,47.12699 2454.985,43.159331 2454.064,39.275704 2454.3629,38.496707 2455.0557,36.691366 2462.8655,31 2464.65,31 2466.876,31 2466.1456,32.354663 2462.4934,35 2457.8491,38.364005 2457.4993,40.002781 2459.9276,47.01968 2463.0196,55.95427 2462.7449,57.344339 2456.5045,64.339675 2453.482,67.727854 2451.007,70.994684 2451.0045,71.599297 2451.002,72.20391 2452.575,75.666514 2454.5,79.293972 2456.425,82.92143 2458,86.589246 2458,87.444675 2458,90.698479 2456.0388,88.741227 2452.0904,81.547104 z"/>
</svg>
