<svg xmlns="http://www.w3.org/2000/svg"
     width="27.3" height="64.0"
     viewBox="1096.2233 13.0000 38.3705 90.0000">
  <path d="M 1130.5938,35.25 C 1128.4891,35.660574 1126.4261,36.230138 1124.8125,37.09375 1120.2865,39.51599 1118.9157,32.113052 1121.625,19.75 1121.9923,18.073814 1121.8153,17 1121.1562,17 1117.7219,17 1115.7573,32.091807 1118.375,38.34375 1119.3566,40.688268 1120.4777,41.979536 1121.25,41.65625 1121.9453,41.365172 1125.5856,40.137318 1129.3438,38.9375 1129.5667,38.866336 1129.6912,38.847352 1129.9062,38.78125 L 1130.5938,35.25 z M 1129.0312,43.28125 C 1123.5087,45.048336 1116.0676,52.768731 1113.2188,60.71875 1110.7803,67.523784 1108.7359,80.262619 1108.8438,88 1108.9153,93.14117 1108.8347,93.336896 1107.5938,91 1103.3444,82.998163 1102.9814,60.131864 1106.9375,50.15625 1108.9878,44.986397 1108.9981,44.610551 1107.4062,38.9375 1105.7833,33.153127 1105.8122,23.635772 1107.4688,19.75 1107.9329,18.661328 1107.7829,18 1107.0625,18 1105.3758,18 1102.9905,24.33152 1103.0312,28.71875 1103.0506,30.798916 1103.6522,35.257667 1104.375,38.625 1105.5506,44.100991 1105.4963,45.368004 1103.8438,50.625 1100.2233,62.142239 1100.4432,84.825991 1104.25,92.5 1105.9264,95.879381 1109.268,99 1111.1875,99 1112.6008,99 1113,98.221413 1113,95.5625 1113,93.673304 1112.5344,90.925337 1111.9688,89.4375 1111.2596,87.572344 1111.2912,84.216651 1112.0312,78.625 1114.361,61.022986 1117.8226,53.159577 1125.7188,47.6875 1126.8115,46.930262 1127.6731,46.419082 1128.5,46 L 1129.0312,43.28125 z M 1113.0312,17 C 1110.5418,17 1108.9997,32.243337 1111.0938,36.15625 1111.6884,37.267198 1112.3867,37.956956 1112.6562,37.6875 1113.3845,36.959157 1113.7468,17 1113.0312,17 z"/>
</svg>
