<svg xmlns="http://www.w3.org/2000/svg"
     width="64.0" height="56.9"
     viewBox="2532.6462 17.7955 93.6499 83.1976">
  <path d="M 2549.384,95.050928 C 2546.9189,94.017205 2540.9246,86.752874 2539.1947,82.702947 2536.6462,76.736423 2538.0272,68.188407 2542.7624,60.619244 2545.1576,56.790569 2545.1688,56.662196 2543.5951,51.05364 2540.8138,41.141273 2542.2064,32.40808 2547.555,26.220717 2550.3415,22.997201 2551.2298,22.610996 2556.7816,22.209418 2562.5036,21.795525 2563.5616,22.082053 2572.2124,26.388212 2577.3206,28.930947 2582.5135,31.73933 2583.7521,32.629063 2585.9118,34.180352 2586.1376,34.102281 2589.2521,30.727175 2593.5949,26.021147 2599.3107,23.71119 2604.4868,24.57035 2609.1427,25.343176 2614,27.617991 2614,29.02568 2614,30.432918 2612.3417,30.228051 2608.7662,28.379101 2606.4807,27.197241 2604.1242,26.90947 2600.0659,27.316673 2595.0331,27.82165 2594.1013,28.312154 2590.3376,32.437571 2588.0483,34.946907 2585.5876,37 2584.8694,37 2584.1513,37 2582.6325,35.916294 2581.4943,34.591764 2578.398,30.988297 2563.0134,24 2558.1768,24 2552.6122,24 2548.4839,27.631275 2546.5165,34.25655 2544.5539,40.865051 2544.6425,44.275326 2546.9504,50.961081 2548.7643,56.215731 2548.768,56.518133 2547.0484,58.961081 2544.0672,63.19615 2541.3083,69.29104 2540.5966,73.214187 2540.0898,76.007753 2540.4554,77.990681 2542.0714,81.214187 2544.6292,86.316174 2548.6712,90.878819 2551.6649,92.043532 2554.7908,93.25968 2560.4843,91.391652 2564.5609,87.812368 2568.609,84.258131 2570.2951,84.788378 2567.3763,88.697746 2563.7489,93.556247 2554.0155,96.993173 2549.384,95.050928 z M 2583.2,92.8 C 2580.1186,89.718576 2583.5937,77.382817 2588.8919,72.595012 2590.0514,71.547269 2591,70.045834 2591,69.25849 2591,67.616088 2585.0428,59 2583.9072,59 2583.4926,59 2581.8666,60.082854 2580.2937,61.406343 2576.232,64.824039 2573.8678,65.000219 2572.3274,62 2570.9202,59.259383 2571.2382,57.376862 2574.0501,51.800148 L 2575.9156,48.100296 2571.7078,43.477236 C 2568.3829,39.824256 2566.652,38.742799 2563.4585,38.323386 2560.404,37.92222 2559.0704,38.210223 2557.9977,39.502715 2555.8799,42.054575 2556.4412,51.984427 2558.9853,56.97113 L 2561.0685,61.054549 2556.6074,65.114487 C 2551.3736,69.877644 2549.5264,75.955735 2552.4305,78.858121 2553.954,80.380669 2554.3677,80.330669 2558.1235,78.170166 2560.3511,76.888757 2562.4545,76.121171 2562.7978,76.46442 2563.92,77.586714 2557.5685,81.927178 2554.75,81.964037 2551.5259,82.0062 2548,78.870014 2548,75.960162 2548,73.059729 2551.7177,66.148311 2554.6307,63.633374 L 2557.1017,61.5 2555.5656,55 C 2552.6891,42.827588 2553.686,37.864817 2559.4951,35.437597 2565.1939,33.056506 2572.2084,36.763122 2577.1678,44.776272 2579.0994,47.897108 2579.1148,48.175923 2577.4916,50.653169 2575.1474,54.230897 2574.0508,58.46424 2575.0497,60.080449 2575.6988,61.130609 2576.7916,60.698604 2579.9919,58.126731 2584.4088,54.577263 2586.4319,54.601807 2588.0405,58.224374 2588.5963,59.475968 2590.1646,62.029047 2591.5255,63.897883 2594.7632,68.343739 2594.6488,71.004269 2591.0726,74.430475 2586.1721,79.125464 2582.5548,90 2585.8935,90 2586.2673,90 2588.2529,87.75 2590.3059,85 2594.4292,79.476988 2596.1622,78.906861 2598.7598,82.218765 2601.5529,85.779929 2607.0649,91 2608.0322,91 2609.5627,91 2613.1608,86.671754 2615.0983,82.5 2616.1229,80.294053 2616.9659,76.223488 2616.978,73.424314 2616.9958,69.314658 2616.5339,67.910756 2614.5511,66.047975 2612.1704,63.811446 2610.0586,63.65882 2605.8958,65.422425 2604.7732,65.898057 2602.8529,64.600735 2599.4981,61.100159 2593.2633,54.594521 2591.0147,51.099037 2591.0066,47.900038 2590.9993,45.023897 2595.5826,38.106179 2599.1519,35.60619 2602.7147,33.110688 2610,33.684216 2610,36.460196 2610,37.349934 2608.5961,37.571516 2605.092,37.234821 2600.2707,36.771549 2600.1295,36.838547 2597.092,41.031652 2592.3286,47.607318 2592.8042,50.176451 2600.2983,58.352307 2603.6181,61.97404 2604.0759,62.162968 2607.9478,61.508825 2617.0683,59.967921 2622.2961,69.429901 2618.5158,80.636419 2615.7211,88.921317 2611.5566,94 2607.5576,94 2605.8394,94 2603.7074,92.369287 2600.3669,88.5 2597.7553,85.475 2595.2981,83 2594.9065,83 2594.5149,83 2592.5517,85.475 2590.5438,88.5 2586.8365,94.085218 2585.3535,94.953546 2583.2,92.8 z M 2556,86 C 2556,85.45 2556.4155,85 2556.9233,85 2557.4311,85 2559.2501,83.819006 2560.9655,82.375568 2565.1813,78.828186 2566.3514,80.403353 2562.2335,84.082645 2558.983,86.986983 2556,87.904521 2556,86 z"/>
</svg>
