<svg xmlns="http://www.w3.org/2000/svg"
     width="22.4" height="64.0"
     viewBox="660.0915 12.0950 35.4857 101.3804">
  <path d="M 671.34375,67.84375 671.34375,71.34375 669.8125,73.375 C 669.89114,73.340232 670.30579,73 670.34375,73 671.34678,73 671.12124,78.12414 669.9375,82 669.35069,83.921369 668.45937,88.2 667.96875,91.5 667.47813,94.8 666.64784,99.213655 666.125,101.3125 664.09154,109.47539 671.85145,105.65809 676.59375,96.15625 678.14268,93.052765 679.72524,90.275 680.09375,90 681.01938,89.309246 685.46251,77.758205 687.59375,70.5 691.57726,56.933702 688.50346,33.540623 681.5,24 678.17979,19.476965 673.59255,16.094954 672.40625,17.28125 672.07467,17.61283 672.34919,21.164085 673.03125,25.1875 674.22812,32.247702 673.78749,61.551808 672.40625,66.5 672.32262,66.799592 671.74061,67.374939 671.34375,67.84375 z M 675.71875,22.5 678.5,25 C 681.07571,27.325224 684,32.616444 684,34.9375 684,35.491041 682.68519,36.629626 681.0625,37.46875 677.15813,39.48778 677.01011,39.44995 677,36.25 676.99522,34.7375 676.69121,31.025 676.34375,28 L 675.71875,22.5 z M 683.96875,39.09375 C 684.68657,39.1541 685,39.762699 685,40.9375 685,42.005041 685.47113,43.165768 686.0625,43.53125 687.38976,44.351542 683.64586,48.599255 679.8125,50.59375 676.32923,52.406092 676,52.377263 676,50.15625 676,46.674885 678.13985,42.129403 680.53125,40.5625 682.12032,39.521299 683.25093,39.0334 683.96875,39.09375 z M 678.0625,87.1875 C 678.56897,87.358405 677.16174,90.5375 674.9375,94.25 672.71327,97.9625 670.45069,101 669.90625,101 668.99774,101 669.36128,96.465942 670.65625,91.75 671.1602,89.914727 676.46095,86.647068 678.0625,87.1875 z M 685.6875,49.84375 C 686.47472,49.974087 686.72318,50.972823 687.125,52.9375 688.38931,59.119259 687.17134,62.622642 683.125,64.5625 681.12595,65.520862 678.70504,66.687176 677.75,67.15625 674.58514,68.710697 674.68839,69.277719 676.5,57.78125 676.97147,54.789288 677.83378,53.668197 680.96875,51.90625 683.57754,50.440029 684.90028,49.713413 685.6875,49.84375 z M 684.125,67.375 C 684.94005,67.234372 685.53988,67.196133 685.71875,67.375 685.87154,67.52779 685.0082,70.92899 683.8125,74.90625 682.13443,80.488037 681.05066,82.427201 679.0625,83.4375 677.64585,84.157381 675.41178,85.092703 674.09375,85.5 671.92576,86.169956 671.78566,86.013547 672.4375,83.875 672.83379,82.57488 673.38559,79.369747 673.6875,76.78125 674.00052,74.097406 675.03384,71.399677 676.0625,70.46875 677.26458,69.380888 681.67986,67.796884 684.125,67.375 z"/>
</svg>
