<svg xmlns="http://www.w3.org/2000/svg"
     width="46.2" height="64.0"
     viewBox="184.0736 10.9911 72.3823 100.3475">
  <path d="M 205.40463,106.23469 C 204.80218,105.83061 204.05241,103.87062 203.73846,101.87915 203.42452,99.887686 202.19449,96.122058 201.00505,93.511091 199.79319,90.850883 199.08527,87.796394 199.39478,86.563188 199.69857,85.352809 202.20836,82.143436 204.97209,79.431249 207.73582,76.719062 209.99772,73.66127 209.99853,72.636155 210.0005,70.134097 205.92241,63 204.49017,63 202.96815,63 200.06558,66.36216 196.07295,72.75 190.98196,80.895104 188.07359,79.157921 189.97911,69.110129 191.22098,62.561771 193.11799,58.624376 197.49996,53.5 200.55312,49.929571 201.3857,49.509771 205.25271,49.59098 207.63546,49.641019 210.8174,50.489475 212.3237,51.476438 213.82999,52.463401 215.2966,53.036737 215.58282,52.750517 216.26636,52.066977 216.31671,39.983373 215.63884,39.305506 215.35081,39.017477 213.71333,39.779999 212,41 210.28667,42.220001 208.66497,42.998307 208.39624,42.729569 208.1275,42.460832 209.81784,40.836169 212.15254,39.119208 215.06102,36.980288 216.72128,36.321279 217.426,37.026003 218.59177,38.191771 218.85014,56.483197 217.71684,57.616492 217.3111,58.022229 215.74633,57.17813 214.23957,55.740716 211.49488,53.122349 207.11202,51 204.44954,51 203.66839,51 201.02062,53.0667 198.56561,55.592667 195.18201,59.074068 193.82031,61.443857 192.93797,65.386588 190.91008,74.44815 192.00063,75.30815 196.72798,68.375357 202.68979,59.632196 205.60333,58.827276 209.41768,64.869593 212.03141,69.010013 213.83871,76 212.2955,76 211.78561,76 209.26053,78.107895 206.68421,80.684211 201.7207,85.647722 200.82275,88.844663 203.35771,92.527494 204.10445,93.612372 205.26435,96.1875 205.93526,98.25 208.07745,104.83545 210.2817,102.4576 208.73919,95.225242 207.71334,90.415362 208.39736,88.886568 214.6934,81.91761 218.46197,77.746255 221.65226,76.883205 222.70604,79.75 223.05983,80.7125 224.58914,83.026733 226.1045,84.892741 228.69481,88.082439 228.82451,88.705245 228.27167,95.299519 227.83719,100.48197 227.98608,102.12664 228.84182,101.59776 229.47882,101.20407 230,99.993564 230,98.907739 230,97.821915 231.125,94.713432 232.5,92 235.71248,85.660469 235.65167,84.272433 231.84308,77.006721 229.20998,71.983496 228.86526,70.591129 229.76556,68.615193 231.51495,64.775708 237.06194,59 239,59 241.40763,59 246.93901,65.445054 247.67055,69.102742 249.00083,75.754138 251.39769,72.31138 250.48637,65.058208 249.8792,60.225708 248.68311,57.524386 245.70072,54.25 243.30916,51.624287 237.90355,51.206358 236,53.5 235.31531,54.325 234.20496,55 233.53254,55 232.86013,55 231.48558,55.910949 230.47798,57.024331 229.47038,58.137713 228.22197,58.907324 227.70373,58.734577 226.33833,58.279444 225.8385,51.586838 226.54892,43.272144 L 227.16649,36.044289 231.08324,38.042468 C 233.82026,39.438788 235,40.69373 235,42.208885 L 235,44.377123 232.96104,42.188561 C 231.83962,40.984853 230.52537,40 230.0405,40 228.60599,40 227.81126,45.558604 228.54562,50.455675 L 229.22855,55.00974 235.1362,51.761989 C 240.67182,48.718769 241.2076,48.608254 243.64381,50.007119 245.07377,50.828204 247.59749,53.382355 249.25206,55.68301 251.84687,59.291054 252.27684,60.803035 252.38018,66.68301 252.45593,70.99251 251.94826,74.576327 251,76.426158 248.93852,80.447635 247.00142,80.886346 246.99442,77.333333 246.98532,72.707623 245.09466,67.265951 242.37268,64.031055 239.4037,60.502631 238.06407,60.276369 235.79976,62.920894 231.28509,68.193645 230.9579,71.79142 234.47391,77.5 237.52187,82.44865 237.61845,85.867408 234.86289,91.268752 233.68748,93.572743 232.44998,97.717316 232.11289,100.47891 231.6041,104.64713 231.12931,105.55277 229.31766,105.81068 225.93997,106.29154 224.67478,102.86118 225.47474,95.391245 226.10815,89.47663 225.95919,88.758424 223.32768,85.039198 221.77246,82.841126 219.96291,81.033095 219.30646,81.021351 218.65002,81.009608 216.62502,82.773978 214.80646,84.942173 211.75969,88.574729 211.5,89.430305 211.5,95.8357 211.5,101.26764 211.08361,103.24748 209.59501,104.89353 207.51963,107.18841 207.05045,107.33858 205.40463,106.23469 z M 205,37.215608 C 205,36.784192 206.28614,35.671474 207.85809,34.742902 209.43003,33.81433 212.90928,31.242306 215.58976,29.027294 218.27023,26.812282 221.14659,25.007403 221.98167,25.01645 222.81675,25.025498 225.3,26.133622 227.5,27.478947 229.7,28.824273 232.5125,30.380732 233.75,30.937746 236.19336,32.037532 236.79947,34 234.69578,34 233.97846,34 231.26283,32.65 228.66105,31 226.05927,29.35 223.02985,28 221.92901,28 220.82817,28 216.9919,30.25 213.40397,33 207.11663,37.81898 205,38.880728 205,37.215608 z M 206.58503,28.137588 C 206.23027,27.563573 208.31601,25.212425 211.22001,22.912817 221.22369,14.991127 220.16342,15.215438 228.38599,19.281187 235.96031,23.026392 238.82583,25.371574 237.11766,26.427284 236.57895,26.760221 235.84862,26.564079 235.49469,25.991414 235.14077,25.418749 231.77606,23.401592 228.01756,21.508843 L 221.18393,18.067481 218.68423,20.033741 C 217.3094,21.115183 215.82449,22 215.38443,22 214.94437,22 212.92961,23.615782 210.90719,25.590627 208.74075,27.706095 206.96506,28.752478 206.58503,28.137588 z"/>
</svg>
