<svg xmlns="http://www.w3.org/2000/svg"
     width="46.8" height="64.0"
     viewBox="726.4991 14.8656 73.6270 100.7819">
  <path d="M 746.40185,107.60481 C 745.45152,105.12831 747.99998,98.06962 751.13251,94.501861 753.87255,91.381133 754.10918,90.598612 753.47218,86.76499 752.63386,81.719778 750.94847,78.168329 748.22123,75.700214 746.3532,74.009664 746.13858,74.00428 744.5351,75.607752 742.57445,77.568408 741.93019,79.060787 737.47327,91.965982 735.67523,97.172273 733.72478,101.59174 733.13893,101.78702 731.44421,102.35193 730.4991,97.212968 730.51139,87.5 730.52448,77.155792 733.33437,67.994574 738.03858,62.9587 741.34687,59.417165 744.11208,59.226773 748.33155,62.25 752.8025,65.453403 755.90374,66.973085 756.35547,66.181911 756.56961,65.80686 756.5235,61.858121 756.25301,57.406935 L 755.7612,49.313871 751.2991,49.406935 C 747.43624,49.487502 746.43198,49.046776 743.82102,46.125116 740.90046,42.857023 740.81602,42.48775 741.15251,34.455083 741.45129,27.322782 741.83985,25.798264 743.92431,23.579967 748.35424,18.865617 757.36432,21.477509 760.97429,28.522505 761.81343,30.160127 762.60061,31.675607 762.72357,31.890239 762.84654,32.10487 764.64654,30.747121 766.72357,28.87302 772.63641,23.537885 777.45474,20.969132 782.68106,20.365751 787.10197,19.855354 787.74084,20.063235 790.41589,22.882574 794.5208,27.208893 795.19743,35.09715 791.95803,40.860894 789.04549,46.04306 787.24332,46.745771 785.88151,43.230288 783.72711,37.668755 782.39385,35.507724 780.96563,35.262303 780.15953,35.123788 777.30249,36.939973 774.61665,39.29827 L 769.73331,43.586084 769.24822,54.793042 C 768.83712,64.29092 768.99128,66 770.25913,66 771.08192,66 772.33994,65.295329 773.05472,64.434063 775.40931,61.596959 779.97333,59.835233 783.15712,60.53451 786.9553,61.36873 790.89729,67.350565 793.9926,76.976979 795.87297,82.824947 796.1261,85.161864 795.54772,91.334039 794.39601,103.62454 788.73997,109.91054 787.5253,100.25 785.44585,83.711653 783.67262,79 779.52784,79 776.97625,79 773.7098,82.589249 770.51035,88.908625 769.08928,91.71544 768.97966,92.951326 769.88949,95.908625 773.38556,107.2722 770.26593,111.64749 764.12024,104 762.35227,101.8 760.5511,100 760.11764,100 759.68417,100 757.27551,102.025 754.76504,104.5 750.11515,109.08421 747.36179,110.10639 746.40185,107.60481 z M 755.10956,100.51065 C 759.13131,96.371565 761.50938,96.106557 764.17866,99.5 767.99317,104.34936 769.28351,101.77814 766.25,95.372519 764.89902,92.519753 764.79068,91.579092 765.77486,91.246972 766.47604,91.010355 767.72746,89.19471 768.5558,87.212206 772.06377,78.816461 778.03223,73.876514 782.06221,76.033293 784.68037,77.43449 787.42665,83.210716 789.05919,90.75 789.80354,94.1875 790.71175,97 791.07745,97 792.44374,97 792.99435,87.066261 791.91554,81.879636 791.30011,78.920836 789.42668,73.679592 787.75236,70.232426 783.4777,61.431572 780.68863,61.060372 772.03742,68.140909 770.02042,69.791709 768.20414,70.604144 767.68692,70.08692 766.4223,68.822301 765.9608,49.215856 767.09219,44.820117 767.78825,42.115753 769.65916,39.786732 774.14973,36.034505 779.73506,31.367511 780.43774,31.046706 782.32706,32.301166 783.46387,33.055981 785.28035,35.381534 786.36368,37.469062 788.22319,41.052253 788.41239,41.159275 789.746,39.382284 791.69589,36.784095 790.91414,27.667593 788.51402,25.015497 784.67119,20.769213 777.33773,23.070624 765.8561,32.126085 761.43472,35.613185 760,35.742899 760,32.655539 760,28.866347 755.87303,24.926785 751.25466,24.307331 747.63253,23.821502 747.00574,24.061609 745.36692,26.562765 744.08994,28.51168 743.52786,31.256032 743.51642,35.597785 743.50263,40.833609 743.88879,42.247925 745.92431,44.41683 748.8323,47.51537 751.83682,47.702794 755.27287,45 756.67129,43.9 758.02805,43 758.28788,43 759.1637,43 758.9852,69.891112 758.10578,70.434626 757.62689,70.730594 756.0987,70.078881 754.70981,68.986375 753.32091,67.893869 751.74812,67 751.21472,67 750.68131,67 749.7087,66.353925 749.05335,65.564279 747.29192,63.44189 742.20563,62.584455 740.37744,64.101716 736.95893,66.938828 733.22297,76.441565 732.50222,84.133015 731.63754,93.360481 733.16763,95.56173 735.77232,88.837494 738.68019,81.330533 743.43228,72.64434 745.21363,71.579997 746.56315,70.773665 747.58057,71.182042 750.00211,73.502022 753.75968,77.102007 755.56891,80.592362 756.59236,86.215891 757.61484,91.834136 757.33979,93.107712 754.58735,95.5 752.24039,97.539855 749.44674,104 750.91157,104 751.35572,104 753.24481,102.42979 755.10956,100.51065 z"/>
</svg>
