<svg xmlns="http://www.w3.org/2000/svg"
     width="38.0" height="64.0"
     viewBox="1117.0059 30.5011 44.8117 75.4578">
  <path d="M 1130.5938,35.25 1129.9062,38.78125 C 1137.5331,36.437002 1140.3616,37.24489 1142.5312,42.4375 1143.3193,44.323661 1144.3578,46.105948 1144.8438,46.40625 1146.4309,47.387228 1147.034,58.328545 1145.9688,66.75 1143.893,83.160805 1138.3463,94.783774 1134.4375,90.875 1133.4999,89.937371 1132.6975,86.665957 1132.375,82.40625 1131.8699,75.734297 1132.2096,73.918485 1136.1562,61 1139.1102,51.330864 1137.8889,45.051442 1132.6875,43.0625 1131.6636,42.670971 1130.3909,42.846189 1129.0312,43.28125 L 1128.5,46 C 1131.5639,44.447255 1133.0994,45.172735 1134.6562,48.4375 1136.1789,51.630372 1136.1961,52.302974 1134.5625,58.1875 1132.5362,65.486889 1130.9257,67.648432 1126.9062,68.53125 1122.6798,69.459539 1122.075,71.251697 1126.125,70.84375 1129.9162,70.461871 1130.6249,71.836913 1129.5625,77.5 1129.0544,80.208132 1128.1925,81.116334 1124.8125,82.46875 1121.752,83.693314 1121.0059,84.380854 1121.8438,85.21875 1122.6817,86.056645 1123.5985,86.000917 1125.4688,85 1128.5293,83.36203 1128.9271,83.699801 1130.125,89.03125 1130.9651,92.770277 1130.7882,93.603551 1128.5312,96.5625 1127.1393,98.387499 1126,100.1258 1126,100.4375 1126,101.9589 1128.1736,100.68157 1130.1562,98 1132.9762,94.185923 1134.2364,94.239646 1137.375,98.25 1139.1905,100.5698 1140.2259,101.18036 1141,100.40625 1141.7741,99.632138 1141.6362,98.948266 1140.5312,98.03125 1138.5614,96.396429 1138.5777,94.584735 1140.5625,92.9375 1141.8609,91.859941 1142.6289,91.937437 1145.0625,93.375 1148.5905,95.459058 1149.0884,93.791425 1145.9375,90.4375 1144.2306,88.620557 1144.0445,87.668583 1144.7812,84.875 1145.5823,81.837943 1145.9875,81.529682 1148.8438,81.8125 1152.7019,82.19451 1153.0398,80.330862 1149.375,78.9375 1146.9549,78.017369 1146.797,77.623282 1147.4062,73.8125 1148.2965,68.245422 1148.7213,67.790515 1152.0938,68.53125 1156.0423,69.398503 1155.9144,67.230126 1151.9375,65.84375 1149.1182,64.86096 1148.9086,64.444014 1149.1875,60.625 1149.4802,56.615901 1149.621,56.484881 1153.5,56 1157.8176,55.460305 1157.4027,54.636392 1152.25,53.53125 1150.0777,53.065347 1149,52.270667 1149,51.09375 1149,47.584799 1142.8952,36.997149 1140,35.5 1138.0683,34.501089 1134.2555,34.535647 1130.5938,35.25 z M 1132.375,54 C 1130.2637,54 1124,57.853103 1124,59.15625 1124,59.707225 1124.3566,60.027084 1124.7812,59.84375 1133.035,56.27931 1135.9872,54 1132.375,54 z"/>
</svg>
