<svg xmlns="http://www.w3.org/2000/svg"
     width="51.8" height="64.0"
     viewBox="2732.4717 15.9633 71.8086 88.7575">
  <path d="M 2761,76.12161 C 2761,75.638495 2758.525,73.33377 2755.5,71 2752.475,68.66623 2750,66.136505 2750,65.37839 2750,63.143413 2751.744,63.773936 2755.8683,67.5 2757.9991,69.425 2760.1877,71 2760.7319,71 2762.9079,71 2763.7866,50.640718 2761.8584,44.899223 2760.4629,40.743891 2758.2004,38 2756.1696,38 2755.3334,38 2751.3594,39.625537 2747.3384,41.612305 2738.6159,45.922198 2736.4717,45.643044 2737.3371,40.310236 2738.024,36.07705 2742.9384,30.541563 2750.5,25.483653 2757.677,20.683018 2760.0193,19.963307 2763.5432,21.475933 2766.5655,22.773216 2774,29.663116 2774,31.166667 2774,32.730191 2776.7878,32.002166 2784.1462,28.517058 2788.1908,26.60144 2792.9277,24.752143 2794.6727,24.407509 2797.6786,23.813853 2797.9019,23.983868 2798.9172,27.64045 2800.2803,32.549751 2800.2801,35.897995 2798.9164,39.809917 2797.5133,43.834876 2794.8081,44.638139 2790.7348,42.239251 2786.8554,39.954495 2779.2092,37.457451 2778.4419,38.224725 2778.1405,38.526192 2777.703,44.336457 2777.4699,51.136424 2777.2367,57.936391 2776.771,65.1875 2776.4351,67.25 2775.6519,72.057614 2776.9464,72.109089 2783.3918,67.526626 2789.7294,63.020763 2791.5058,64.131109 2785.8607,69.069782 2780.7561,73.535522 2776.702,75.483346 2774.3723,74.589377 2772.9189,74.03164 2772.7981,72.848691 2773.4162,65.225496 2773.8053,60.426473 2774.3354,52.14751 2774.5942,46.8278 2775.1168,36.083354 2775.6333,37.264177 2766.2315,27.706695 2763.0781,24.501051 2761.9996,23.987318 2759.27,24.390587 2754.1489,25.147158 2741,36.081745 2741,39.583853 2741,41.433689 2740.8192,41.473668 2748.1602,38.000789 2755.4498,34.552233 2757.9911,34.299674 2760.7458,36.75 2764.8006,40.356748 2766.3413,47.346457 2765.6287,58.902799 2764.7606,72.982841 2764.0371,77 2762.3692,77 2761.6161,77 2761,76.604724 2761,76.12161 z M 2743,94.529313 C 2743,93.720435 2745.0174,90.907935 2747.4831,88.279313 2749.9487,85.650691 2751.9718,83.275 2751.9788,83 2751.9857,82.725 2750.1818,80.113159 2747.9701,77.195908 2742.4637,69.932915 2744.0223,68.334047 2750.148,74.961835 2755.5834,80.842804 2756.1511,83.569976 2752.6287,86.879075 2751.3245,88.104312 2749.4222,90.657753 2748.4013,92.553389 2746.5364,96.016322 2743,97.310018 2743,94.529313 z M 2772.6859,94.561407 2767.3828,88.998004 2762.1097,93.499002 C 2759.2096,95.974551 2755.9734,98 2754.9183,98 2753.8633,98 2753,97.807412 2753,97.572027 2753,96.934963 2767.226,86 2768.0548,86 2768.4467,86 2770.3647,87.768132 2772.3171,89.929183 2774.2694,92.090233 2776.7968,94.356066 2777.9334,94.964367 2779.07,95.572667 2780,96.702977 2780,97.476167 2780,100.72076 2777.6732,99.793516 2772.6859,94.561407 z M 2785.0707,91.820028 C 2780.4138,85.936236 2777.971,81.856004 2778.5471,80.923865 2778.8661,80.407623 2780.786,79.178612 2782.8136,78.192727 2784.8411,77.206843 2787.6958,75.610712 2789.1574,74.645769 2794.053,71.413657 2793.1243,74.738453 2788.1016,78.425407 2782.4405,82.581073 2782.3852,83.753484 2787.5653,89.805231 2790.7431,93.51778 2791.0507,95.070687 2788.5833,94.944671 2787.9875,94.91424 2786.4068,93.50815 2785.0707,91.820028 z M 2796.4257,37.440123 C 2796.779,36.032191 2796.7777,33.332191 2796.4228,31.440123 2795.6608,27.37855 2794.2072,27.124964 2787.6931,29.91724 2780.2934,33.089131 2780.4262,34.996759 2788.2635,38.10985 2794.2907,40.503902 2795.6854,40.389459 2796.4257,37.440123 z"/>
</svg>
