<svg xmlns="http://www.w3.org/2000/svg"
     width="31.3" height="64.0"
     viewBox="974.0345 12.0128 45.9805 93.9872">
  <path d="M 996.71176,22.559543 C 994.67029,20.117291 993,17.867291 993,17.559543 993,16.012825 996.45355,17.30688 998.17866,19.5 1000.6238,22.608546 1001.2112,22.610247 1004.145,19.517277 1005.4403,18.151779 1007.3294,17.026779 1008.3431,17.017277 1009.8161,17.003469 1009.3456,18.004093 1006,22 1003.6976,24.75 1001.501,27 1001.1186,27 1000.7363,27 998.75323,25.001794 996.71176,22.559543 z M 986.51792,58.018356 C 982.16935,53.565012 982.43794,51.129267 986.81515,55.322902 988.35201,56.795306 989.92231,58 990.30472,58 990.68712,58 991,53.79215 991,48.649223 991,43.506296 991.47869,37.925289 992.06375,36.246985 992.98408,33.6069 992.70981,32.368109 990.02929,27.058021 987.207,21.46709 986.85136,19 988.86771,19 989.28004,19 991.09334,22.185578 992.89727,26.079063 995.92926,32.623116 996.07598,33.397775 994.83857,36.329063 993.95222,38.428743 993.54826,43.300657 993.64285,50.75 993.80967,63.888106 993.02811,64.685396 986.51792,58.018356 z M 993.07597,99.369453 C 990.08742,95.570127 988.73986,89.738162 988.49177,79.529955 L 988.27376,70.559909 983.88688,67.204236 C 979.11621,63.554992 978.03451,62 980.26663,62 981.8875,62 988.76356,66.772473 990.92708,69.39911 992.06031,70.774917 992.12537,71.787322 991.24304,74.315834 990.63192,76.067125 990.36298,79.075 990.6454,81 990.92781,82.925 991.25781,85.175 991.37872,86 991.94389,89.856309 994.47727,96.121948 996.04494,97.54067 997.64547,98.989126 997.94884,98.880587 999.87993,96.168623 1001.0333,94.548912 1002.6551,90.29931 1003.484,86.725062 1004.8067,81.021822 1004.8139,79.724056 1003.543,76.121867 1002.3177,72.648957 1002.3011,71.515829 1003.4355,68.758652 1006.2105,62.01394 1007.4138,47.33495 1005.8917,38.797371 L 1004.6966,32.094742 1009.4608,25.057882 C 1012.0811,21.187609 1014.6391,18.276923 1015.1451,18.589691 1016.015,19.127333 1014.04,23.026932 1009.7205,29.30011 1007.9623,31.853544 1007.8984,32.661974 1008.9956,38.476894 1010.4018,45.92925 1009.5907,59.105495 1007.2839,66.285916 1006.2716,69.43674 1005.9787,72.511559 1006.4267,75.285916 1007.3374,80.926683 1007.3466,80.666246 1005.9973,87.481406 1004.4211,95.442443 1000.5731,102 997.47756,102 996.14987,102 994.25383,100.86686 993.07597,99.369453 z"/>
</svg>
