<svg xmlns="http://www.w3.org/2000/svg"
     width="32.1" height="64.0"
     viewBox="838.2603 11.6131 48.7104 97.1309">
  <path d="M 857.25512,101.75 C 856.66887,100.5125 853.43404,96.426797 850.06661,92.67066 L 843.94401,85.84132 847.15484,80.17066 C 848.92079,77.051797 850.84261,73.710945 851.42554,72.746544 852.18865,71.484051 852.14882,70.504061 851.28328,69.246544 848.28084,64.884369 843,55.043121 843,53.810021 843,53.059266 843.62054,51.557385 844.37898,50.472506 847.04193,46.663395 850,40.925302 850,39.568806 850,38.815108 848.21598,34.709973 846.0355,30.446284 843.85503,26.182595 842.26033,22.387802 842.49171,22.01341 842.7231,21.639019 844.78109,20.037704 847.06503,18.454933 851.14152,15.629923 851.24499,15.613124 852.70889,17.538584 853.52908,18.617363 855.79109,22.7625 857.73559,26.75 859.68008,30.7375 861.77255,33.998073 862.38552,33.995719 862.99848,33.993364 865.525,32.645291 868,31 873.60486,27.274092 874.57033,27.268434 876.47432,30.95034 878.38754,34.650107 878.40853,38.086476 876.54515,42.546177 874.34886,47.802643 872.44002,47.932783 867.79105,43.143009 865.57938,40.864354 863.39364,39 862.93386,39 862.47407,39 860.46567,41.918674 858.47074,45.485943 L 854.84359,51.971886 860.04607,58.968157 C 863.10203,63.077809 865.71301,65.691491 866.37427,65.302913 866.99342,64.93908 869.36671,63.130396 871.64825,61.283615 L 875.7965,57.92583 877.87197,60.564362 C 880.28275,63.62918 881.49001,68.911511 880.59483,72.478197 879.63822,76.28962 875.88976,76.711479 870.58792,73.604394 868.14369,72.171977 865.68046,71 865.11408,71 863.98613,71 859,78.992105 859,80.800071 859,82.174969 866.23555,92.97099 867.16835,92.987891 867.53594,92.994551 870.21659,90.968552 873.12536,88.485672 876.03413,86.002792 878.85237,84.117458 879.38812,84.296041 880.81045,84.77015 882.8394,90.951287 882.90169,95 882.97075,99.489466 880.12551,103.25 876.65969,103.25 875.20596,103.25 872.40008,102.01706 870.4244,100.51013 L 866.83224,97.770263 863.61851,100.88513 C 859.79434,104.59167 858.67349,104.74401 857.25512,101.75 z M 862.38083,97.131678 C 863.98538,95.358674 863.84268,94.921911 859.58374,88.570728 854.63189,81.18622 854.6248,80.588872 859.40532,73.544381 860.83239,71.44147 862,69.09287 862,68.32527 862,66.846546 859.36514,62.185509 857.56997,60.488593 856.98149,59.932318 855.45571,57.995045 854.17936,56.18354 L 851.85872,52.889894 855.58409,44.951272 859.30945,37.012649 857.46584,32.756325 C 852.40058,21.062249 849.30635,17.971509 846.74192,22.044506 846.03261,23.171076 846.74775,25.568471 849.38474,30.904203 851.37313,34.927558 853,38.921144 853,39.77884 853,40.636535 851.65,43.730355 850,46.653995 845.98111,53.775073 846.16326,56.519072 851.15064,63.987734 L 855.30129,70.203374 851.46142,78.079129 C 849.34949,82.410794 847.97117,86.302535 848.39847,86.727442 848.82578,87.152349 851.48191,90.0875 854.30097,93.25 857.12004,96.4125 859.71083,99 860.05829,99 860.40574,99 861.45089,98.159255 862.38083,97.131678 z M 874.08021,40.289033 C 875.29086,37.10477 874.52381,33.138237 872.55099,32.381193 870.93521,31.76116 866,34.72116 866,36.310291 866,37.599479 871.01474,43 872.21184,43 872.67255,43 873.51332,41.780065 874.08021,40.289033 z M 876.98469,68.75 C 876.95733,61.158402 874.65132,60.446844 869.14752,66.331713 L 866.79504,68.847071 870.64752,70.879339 C 876.29391,73.857937 877.00223,73.619935 876.98469,68.75 z M 878.96482,99.065741 C 880.11124,96.923636 880.33221,92.029307 879.39301,89.581787 878.44246,87.104702 876.71018,87.688388 872.63919,91.857457 L 868.87248,95.714914 872.01297,98.357457 C 875.74616,101.49873 877.56362,101.6839 878.96482,99.065741 z"/>
</svg>
