<svg xmlns="http://www.w3.org/2000/svg"
     width="33.4" height="64.0"
     viewBox="2226.4185 16.3364 46.7519 89.6636">
  <path d="M 2232.0352,100.06574 C 2230.4185,97.044929 2230.7907,94.346483 2233.5847,88.832831 2236.0919,83.8851 2236.1219,83.607719 2234.5847,79.582641 2232.4696,74.044391 2232.5876,69.123367 2235,62.259676 2237.7068,54.558469 2237.5426,49.601088 2234.3733,43.337161 2231.1155,36.898269 2231.506,35.0809 2237.7198,27.761301 2243.8186,20.577292 2246.0674,20.336374 2249.7885,26.468392 2251.2798,28.926007 2252.8847,30.951007 2253.355,30.968392 2253.8252,30.985776 2256.2103,29.65 2258.6551,28 2265.1403,23.62322 2266.6105,23.956395 2267.9283,30.101502 2269.1704,35.892789 2267.9056,42.715266 2265.4126,43.671906 2264.5972,43.984807 2261.9079,43.174134 2259.4363,41.870409 2255.5468,39.81877 2254.814,39.701718 2253.9866,41 2252.6282,43.131389 2252.7757,47.441815 2254.4826,55.500374 2256.3896,64.503296 2256.3811,69.843541 2254.4526,74.459176 2253.1181,77.653179 2253.07,79.522291 2254.1032,88.047347 2255.0641,95.975051 2255.0492,98.235795 2254.0282,99.466047 2253.328,100.30972 2252.2198,101 2251.5656,101 2250.2991,101 2246.7969,96.660974 2245.7139,93.75 2245.0681,92.014256 2242,91.245969 2242,92.820001 2242,94.013989 2235.0033,102 2233.9573,102 2233.4695,102 2232.6045,101.12958 2232.0352,100.06574 z M 2252,94.942629 C 2252,93.811074 2251.4822,89.749749 2250.8493,85.917462 2249.8515,79.875528 2249.9381,78.158724 2251.5008,72.997245 2253.0889,67.752372 2253.1557,66.239806 2252.0628,60.272412 2250.0231,49.135224 2249.662,42.23032 2250.9557,39.106938 2251.9759,36.643918 2251.8497,35.650136 2250.0986,32.359259 2247.5722,27.611299 2245.5551,25 2244.4141,25 2243.1878,25 2236.1073,33.12841 2235.393,35.356239 2235.0446,36.44263 2235.9044,39.245688 2237.466,42.114906 2240.9814,48.573815 2240.9551,56.076595 2237.3871,64.616031 2235.418,69.328616 2235.6664,74.259887 2238.1281,79.326672 L 2240.2561,83.706847 2237.6281,88.191281 C 2235.1301,92.453766 2234.2336,96 2235.6541,96 2236.0138,96 2237.8489,94.2 2239.732,92 2241.6151,89.8 2243.7332,88 2244.439,88 2245.1447,88 2246.7963,90.025 2248.1093,92.5 2250.6928,97.369873 2252,98.190564 2252,94.942629 z M 2265.5276,38.913061 C 2266.1332,37.004823 2265.4006,30.457185 2264.4003,28.838702 2263.909,28.043715 2258.32,30.673289 2257.4257,32.12016 2256.2802,33.973673 2257.907,37.49284 2260.7093,39.223391 2264.3096,41.446752 2264.7321,41.419543 2265.5276,38.913061 z"/>
</svg>
