<svg xmlns="http://www.w3.org/2000/svg"
     width="52.1" height="64.0"
     viewBox="2152.9271 14.5393 71.8721 88.3714">
  <path d="M 2198.4786,97.981356 C 2197.377,97.573847 2194.6042,95.368859 2192.3167,93.081382 2187.4394,88.204084 2185.8072,88.266215 2177.6479,93.639766 2171.8469,97.460144 2171.0474,97.590853 2166.5459,95.454754 2163.2016,93.867765 2162.0379,92.185878 2159.9025,85.853156 2157.3621,78.319263 2161.5239,63.458914 2169.3676,52.05618 2171.3654,49.151848 2173,45.869821 2173,44.762788 2173,43.044339 2172.5457,42.840859 2169.8934,43.371324 2163.495,44.651009 2156.9271,38.969482 2158.6184,33.617918 2160.5252,27.584648 2170.4778,19.494652 2175.1554,20.175794 2176.7517,20.408254 2177.6329,21.490458 2178.2692,24 2179.5672,29.119455 2180.6049,29.719801 2183.4828,27.016146 2184.8629,25.719595 2186.2639,24.930616 2186.5962,25.262859 2187.4797,26.146329 2186.098,28 2184.556,28 2183.8267,28 2182.4614,29.173106 2181.5219,30.606902 2179.5391,33.633064 2178.2042,32.866103 2176.5507,27.750744 2175.7686,25.330844 2174.8328,24.422571 2172.8896,24.197053 2169.5521,23.809713 2164.2485,28.160897 2162.2614,32.916698 2160.843,36.3114 2160.8831,36.502711 2163.4804,38.736821 2165.817,40.746637 2166.8248,40.959477 2171.2347,40.374484 L 2176.3033,39.702105 2175.7534,43.801748 C 2175.4359,46.168911 2173.2924,50.986026 2170.6812,55.200696 2166.1764,62.471718 2163.667,69.445704 2162.4777,78 2161.4233,85.583408 2166.1084,94 2171.3842,94 2172.2178,94 2175.5099,92.426157 2178.6999,90.502571 2186.4467,85.831288 2188.778,85.973942 2195,91.5 2197.7867,93.975 2200.4806,96 2200.9863,96 2202.6881,96 2207.4825,93.633703 2209.6608,91.718652 2211.9729,89.685938 2215.0685,89.701874 2215.7505,91.75 2215.9963,92.488271 2215.2972,93 2214.0428,93 2212.8747,93 2210.6997,93.900096 2209.2095,95.000214 2205.6749,97.609527 2200.991,98.910753 2198.4786,97.981356 z M 2192.2628,84 C 2190.2878,81.8 2188.1921,80 2187.6057,80 2187.0192,80 2183.9014,81.628266 2180.6772,83.618369 2175.7186,86.678993 2174.4546,87.072516 2172.4767,86.171345 2169.4259,84.781311 2168.1878,77.48578 2169.91,71.046862 2171.1834,66.285451 2176.3652,56.510351 2178.2251,55.360887 2178.8315,54.986131 2180.4108,55.989122 2181.7347,57.589756 2190.2864,67.929046 2192.8939,69.253473 2199.1467,66.433831 2206.2126,63.24756 2213.5786,52.310349 2216.1442,41.195539 2217.8278,33.90207 2216.6613,29.625647 2211.9571,25.845245 2207.7199,22.440208 2207.0246,21 2209.6176,21 2212.4345,21 2218.7716,28.265728 2219.5435,32.380427 2220.7992,39.073615 2216.9133,50.396019 2209.655,61.193152 2206.4503,65.96018 2198.6531,71 2194.4824,71 2192.3298,71 2183.5838,65.180722 2181.5441,62.391222 2179.5636,59.682646 2177.1406,61.433112 2174.4504,67.516146 2171.6912,73.755314 2171.214,81.102761 2173.4476,82.956501 2174.6144,83.924905 2176.2144,83.374726 2181.6976,80.119513 L 2188.5,76.081135 2193.218,81.021468 C 2198.4546,86.504892 2199.1551,86.554336 2205.1914,81.866651 2209.6286,78.420781 2211.5642,78.077244 2209.9922,81.014598 2208.4954,83.811419 2201.5725,88 2198.4467,88 2196.6866,88 2194.7002,86.715066 2192.2628,84 z M 2188.3605,57.182093 C 2184.8575,53.98263 2182.7218,48.465473 2182.59,42.275332 2182.5147,38.741058 2183.0215,37.574069 2185.6902,35.136202 2188.976,32.134656 2192,26.231492 2192,22.818859 2192,21.63396 2191.5614,21.153045 2190.8703,21.580179 2190.1845,22.003985 2189.9225,21.73242 2190.2036,20.889196 2190.9869,18.539317 2193.2827,19.348178 2194.2745,22.323437 2195.5006,26.001946 2192.7588,33.456698 2189.3608,35.683149 2185.5556,38.176419 2184.9029,40.215156 2186.0216,46.113705 2186.99,51.220235 2189.5587,55.13713 2193.241,57.122173 2195.7347,58.466498 2200.0815,55.944259 2203.2411,51.319586 2207.0019,45.815023 2207.2395,42.041713 2204,39.267972 2202.9,38.326122 2202,37.205527 2202,36.777759 2202,35.202554 2204.7142,36.066859 2206.8257,38.314451 2210.8821,42.632265 2209.0155,49.259546 2201.7868,56.204857 2196.814,60.98274 2192.8385,61.272096 2188.3605,57.182093 z M 2208.25,33.325576 C 2207.0125,32.46234 2206,31.360943 2206,30.878028 2206,29.352521 2208.6236,29.926574 2210.345,31.828741 2213.3463,35.145083 2212.1172,36.023208 2208.25,33.325576 z M 2207,89.756153 C 2207,88.997133 2208.35,87.378019 2210,86.158121 2212.287,84.467251 2213,84.287545 2213,85.401968 2213,86.205982 2211.65,87.825096 2210,89 2207.8145,90.556199 2207,90.7615 2207,89.756153 z"/>
</svg>
