<svg xmlns="http://www.w3.org/2000/svg"
     width="28.7" height="64.0"
     viewBox="890.5523 13.8595 40.4477 90.1405">
  <path d="M 901.52931,94.470365 C 898.44562,87.72872 898.31647,82.278796 901.05387,74.40655 902.98689,68.847569 903.02086,68.117509 901.63121,62 898.91039,50.022445 898.87221,48.624409 901.07142,41.504206 903.41577,33.91408 903.21149,32.967933 897.66003,25.703886 894.71137,21.845589 894.5523,20.507235 897.16137,21.508429 899.08974,22.248414 905.98848,33.018953 905.99492,35.29966 905.99771,36.289473 905.25232,38.539473 904.3385,40.29966 902.13863,44.53697 902.21053,52.903083 904.52344,61.820613 906.31563,68.730476 906.31756,69.110275 904.57913,72.739741 901.58646,78.98778 901.34452,87.014511 903.98449,92.467971 907.09972,98.90316 909.39867,98.385182 912.71897,90.5 914.93766,85.230966 915.18354,83.502394 914.73722,76.311337 L 914.22898,68.122674 919.67701,65.457197 C 922.67344,63.991184 925.35354,63.020207 925.6328,63.299468 925.91206,63.57873 924.02719,65.26125 921.44418,67.038402 L 916.74782,70.269586 917.2545,76.581802 C 917.64944,81.501843 917.24418,84.472428 915.41704,90.050634 912.52446,98.881584 911.62403,100 907.40686,100 904.31782,100 903.86282,99.571935 901.52931,94.470365 z M 905.5228,23.89356 C 902.84195,20.926179 902.11568,19.484324 902.90449,18.695506 903.69331,17.906689 904.89814,18.470662 907.24805,20.728695 910.3375,23.697348 910.63742,23.780605 913.25,22.394811 914.7625,21.592534 916,20.548642 916,20.075052 916,18.873742 918.96372,17.859545 920.21478,18.632739 921.33096,19.322577 912.25751,27.927808 910.36636,27.972944 909.74286,27.987825 907.56326,26.152102 905.5228,23.89356 z M 913.52756,62.044598 C 913.2028,61.519127 914.12793,58.259895 915.5834,54.801859 917.70022,49.772502 918.12366,47.48712 917.69973,43.379606 917.40825,40.555403 916.62178,37.36723 915.95202,36.294777 914.89153,34.596666 915.35327,33.54778 919.5276,28.172431 923.90022,22.541747 926,20.77979 926,22.741341 926,23.149078 924.37755,25.838399 922.39457,28.71761 918.82124,33.905921 918.80001,33.997901 920.01115,39.046473 921.13509,43.731584 920.92231,48.417081 919.28789,54.972658 918.67468,57.432229 918.68533,57.436199 921.30053,55.722658 924.53853,53.601037 927,53.504876 927,55.5 927,56.325 926.4375,57.008189 925.75,57.018197 925.0625,57.028206 922.51978,58.378206 920.09952,60.018197 915.35268,63.234697 914.43749,63.516887 913.52756,62.044598 z"/>
</svg>
