<svg xmlns="http://www.w3.org/2000/svg"
     width="29.1" height="64.0"
     viewBox="1607.0457 14.3459 41.1461 90.5251">
  <path d="M 1624.1496,99.392216 C 1621.4925,97.53113 1618,90.923622 1618,87.757766 1618,86.480716 1618.61,83.084309 1619.3555,80.210194 L 1620.711,74.984531 1617.3429,72.902888 C 1614.1386,70.922545 1611.0457,66.985965 1612.7148,67.012466 1613.1467,67.019323 1615.4581,68.843348 1617.8513,71.065855 1621.6844,74.625609 1622.1341,75.487411 1621.6281,78.303389 1619.8603,88.140041 1619.914,89.464211 1622.2444,93.5 1626.5006,100.87103 1632.0531,98.87832 1634.0491,89.263461 1634.9988,84.688736 1634.9162,82.76211 1633.5637,77.94188 1631.997,72.357926 1632.0158,71.889874 1634.052,65.845604 1636.3708,58.96239 1636.9599,45.068376 1635.1758,39.340999 1634.3446,36.672375 1634.565,35.632798 1636.5959,32.644053 1637.9182,30.698183 1639.01,28.744733 1639.0222,28.303054 1639.0345,27.861374 1639.9245,26.375 1641,25 1644.1918,20.919527 1643.4824,25.093762 1639.9724,31.046726 1637.0287,36.039285 1636.9758,36.352014 1638.062,42.340733 1639.371,49.558478 1638.5786,58.935677 1635.9988,66.755694 1634.3472,71.761934 1634.3154,72.699223 1635.6457,77.178717 1636.6142,80.44012 1636.8705,83.680858 1636.4052,86.783805 1635.1203,95.35169 1633.4278,97.826157 1626.913,100.66114 1626.5901,100.80164 1625.3466,100.23062 1624.1496,99.392216 z M 1617.8773,62.998099 C 1615.5636,60.797053 1613.9714,58.695279 1614.3392,58.327489 1614.707,57.959699 1616.1311,58.713996 1617.5039,60.003704 L 1620,62.348628 1620.0349,56.924314 C 1620.0696,51.534993 1622.1753,38.063901 1623.4951,34.787919 1623.9549,33.64678 1623.3743,32.312868 1621.7542,30.787919 1618.4596,27.686806 1615.5772,23.089514 1616.4071,22.25958 1617.2746,21.392047 1624.781,29.842306 1625.5383,32.539033 1625.8532,33.660501 1625.6686,35.741548 1625.1279,37.163581 1623.2158,42.192887 1621.6923,59.25825 1622.799,63.25 1623.3709,65.3125 1623.444,67 1622.9615,67 1622.479,67 1620.1911,65.199144 1617.8773,62.998099 z M 1626.3849,24.304583 C 1624.5232,22.272103 1623,20.231271 1623,19.769399 1623,18.345911 1626.8887,20.92354 1628.0694,23.12963 1629.1608,25.168912 1629.2571,25.143182 1632.5773,21.925065 1634.4433,20.116467 1636.247,18.913621 1636.5854,19.252073 1637.1579,19.824589 1631.2068,28 1630.2175,28 1629.9712,28 1628.2465,26.337062 1626.3849,24.304583 z"/>
</svg>
