<svg xmlns="http://www.w3.org/2000/svg"
     width="35.9" height="64.0"
     viewBox="2380.7407 14.0000 50.9049 90.6542">
  <path d="M 2392.3594,95.75 C 2385.9598,88.511699 2384.7407,75.430214 2389.4019,64.016379 2392.0085,57.633793 2392.0258,57.437105 2390.5103,51.394457 2387.297,38.581527 2393.4466,18 2400.4883,18 2403.5478,18 2403.945,18.704814 2402.9133,22.302345 2401.6479,26.714561 2402.4204,28.305988 2407.1062,30.939546 L 2411.1907,33.235139 2414.0548,31.11757 C 2417.6218,28.480432 2422.1428,28.395376 2424.4298,30.922384 2427.1354,33.912086 2427.6456,40.645676 2425.4723,44.68128 2423.3675,48.589694 2420.6784,48.745543 2420.1492,44.989784 2419.6769,41.637798 2417.9807,40.782645 2415.2949,42.542455 2412.4814,44.385931 2409.0558,44.356813 2406.5589,42.468197 2403.8883,40.44825 2400.9918,40.596033 2401.0356,42.75 2401.0552,43.7125 2401.7138,47.19135 2402.4991,50.480778 2403.878,56.25661 2403.8425,56.639997 2401.4634,61.668853 2400.1086,64.532866 2399,67.264346 2399,67.738809 2399,68.213272 2400.9802,69.56354 2403.4005,70.739404 2407.7501,72.852598 2407.8213,72.854904 2409.5555,70.93867 2410.5205,69.872401 2412.5932,69 2414.1616,69 2419.3698,69 2424.0214,77.18335 2421.934,82.67367 2420.8485,85.528646 2418.8946,85.645987 2416.5,83 2414.1646,80.419398 2412.1913,80.471658 2409.2969,83.19076 L 2406.965,85.381521 2402.4518,83.188863 C 2396.8874,80.485471 2396.2112,81.447033 2397.8695,89.704426 2399.4595,97.6214 2396.6953,100.65419 2392.3594,95.75 z M 2394.2014,83.61649 C 2393.8492,76.905306 2394.2065,73.763525 2395.9928,67.86649 2397.2201,63.81492 2398.8455,59.508276 2399.6049,58.296168 2400.7106,56.531224 2400.7477,55.535487 2399.7911,53.296168 2399.0681,51.603697 2398.5776,45.072611 2398.5483,36.749949 2398.5217,29.187421 2398.4033,22.999921 2398.2852,22.999949 2397.5631,23.00012 2395.5419,28.17105 2394.4032,32.931737 2392.6763,40.151095 2392.7187,49.463599 2394.5012,54.468475 2395.6782,57.773317 2395.6923,58.693062 2394.5858,59.968475 2391.062,64.029959 2390.0895,67.500663 2389.7823,77.111072 2389.5833,83.336009 2392.0217,92 2393.9726,92 2394.3405,92 2394.4435,88.22742 2394.2014,83.61649 z M 2408.268,80 C 2410.19,77.755236 2415.8679,77.267922 2417.7833,79.183333 2418.4342,79.834167 2419.2829,80.050386 2419.6695,79.663821 2420.7951,78.538281 2418.6927,73.856565 2416.3739,72.324948 2414.4558,71.05799 2413.9324,71.186024 2411.0235,73.63365 2407.909,76.254352 2407.692,76.293032 2404.6496,74.770006 2399.2801,72.082051 2398.2372,71.984945 2397.6786,74.12094 2397.2928,75.5962 2398.2016,76.857876 2401.2301,79.051743 2406.0621,82.551975 2406.0807,82.554493 2408.268,80 z M 2413,39.5 C 2414.572,37.605816 2416.724,37.607616 2420.3643,39.506161 2424.0533,41.43013 2424,41.445859 2424,38.434259 2424,31.792443 2420.0599,30.300485 2413.8622,34.595485 L 2410.1169,37.190969 2406.7141,34.595485 C 2402.5119,31.390345 2401,31.316112 2401,34.314932 2401,36.117253 2402.0518,37.091647 2405.75,38.715253 2411.6847,41.320776 2411.505,41.301325 2413,39.5 z"/>
</svg>
