<svg xmlns="http://www.w3.org/2000/svg"
     width="36.5" height="64.0"
     viewBox="560.8835 10.3489 59.1647 103.6511">
  <path d="M 608.63477,106.02429 C 607.18772,103.83765 604.88577,101.31604 603.51933,100.42071 601.14694,98.866259 600.89145,98.913556 597.85391,101.46948 596.10436,102.94162 593.81385,105.23823 592.76388,106.57305 590.32307,109.67604 588.20579,109.66813 587.42397,106.55311 586.49891,102.86735 588.89751,96.880162 592.69687,93.391334 L 596.08223,90.282668 593.99933,84.891334 C 592.85374,81.9261 590.97102,78.70087 589.81552,77.724155 587.80299,76.023029 587.6319,76.023029 585.74921,77.724155 583.76755,79.514706 580.26061,85.704556 576.52631,94.002831 573.29941,101.17358 573.08113,101.38339 570.90072,99.410155 564.88346,93.964603 574.56288,62.916608 582.96263,60.720023 584.11707,60.418131 587.07951,61.224383 589.71113,62.556678 592.29105,63.862799 594.48706,64.834369 594.59116,64.715722 595.71395,63.436029 598,53.963021 598,50.590053 598,42.991117 596.94343,39.937629 593.60434,37.886658 588.11872,34.517213 580.6142,38.150665 577.36342,45.75 575.74051,49.543865 573.74204,49.897493 571.5567,46.777494 569.70643,44.135863 569.55367,40.0737 571.17109,36.523837 572.1582,34.357372 572.00109,33.346678 570.17109,30.09063 567.34812,25.067835 567.43312,22.827146 570.58889,19.076725 574.56713,14.34886 582.25459,15.184683 585.74954,20.725074 587.34304,23.25118 588.05694,23.50847 593.71113,23.594463 603.91151,23.749597 610.16327,29.616221 611.64451,40.423084 612.40798,45.993199 610.45223,59.673485 607.79296,67.364353 L 605.76525,73.228707 607.91337,77.864353 C 609.19327,80.626365 610.15011,84.886605 610.28075,88.404811 610.46582,93.389135 610.94101,94.753475 613.329,97.156887 615.7124,99.55568 616.04817,100.51573 615.46069,103.25208 614.61275,107.20156 613.21809,110 612.0977,110 611.64014,110 610.08182,108.21093 608.63477,106.02429 z M 613,102.02439 C 613,100.07714 612.1459,98.544644 610.31893,97.213793 607.88263,95.439067 607.62495,94.621993 607.49634,88.26366 607.39105,83.057787 606.79741,80.321808 605.17741,77.576113 602.87072,73.666569 602.44249,71.010826 603.86709,69.45 607.44147,65.533819 610.21761,44.077717 608.13655,36.452371 607.52899,34.226175 605.65135,31.082096 603.96402,29.465529 601.09711,26.718852 600.37729,26.526316 592.97551,26.526316 585.28292,26.526316 585.03862,26.452341 584.49055,23.956977 583.66826,20.213116 578.95701,17.685646 575.35407,19.055481 573.80672,19.643784 572.20094,20.65947 571.78566,21.312561 570.29318,23.659765 571.04606,27.570112 573.5,30.216574 576.36158,33.30266 576.64429,35.220398 574.5,37 573.67352,37.685919 573,39.865994 573,41.855269 L 573,45.465648 577.51365,40.305873 C 583.03634,33.992605 586.99853,32.411771 592.51369,34.321165 597.83795,36.164471 599.77169,39.255818 600.47271,47.044709 600.92516,52.071821 600.59009,55.11647 599.0277,60.174899 596.60307,68.024926 594.83767,69.980528 592.38757,67.530425 585.50266,60.645516 580.85916,62.513083 575.44198,74.345766 572.24803,81.322269 570.08648,93.486476 571.74585,95.145847 572.55526,95.955264 574.06297,93.866381 577.3536,87.376455 581.52437,79.150699 586.01533,73 587.85063,73 591.9189,73 600.52896,90.452785 597.97741,93.527215 597.30515,94.337247 596.1286,95 595.36286,95 593.66274,95 590.00889,100.76323 590.00374,103.45295 590.00058,105.10112 590.58522,104.84829 593.75,101.83288 599.19932,96.640746 600.93437,95.914702 604.04672,97.524161 605.4814,98.26606 607.73072,100.44266 609.04523,102.36106 611.74958,106.3078 613,106.20136 613,102.02439 z"/>
</svg>
