<svg xmlns="http://www.w3.org/2000/svg"
     width="29.9" height="64.0"
     viewBox="1454.1550 10.7994 46.1906 98.7326">
  <path d="M 1467.7894,103.4048 C 1467.0802,102.52744 1465.6,100.79825 1464.5,99.56217 1458.155,92.432167 1458.3835,93.776565 1462.3944,87.173792 1464.3775,83.909315 1466,80.426819 1466,79.434914 1466,77.349609 1462.2656,69.282175 1460.9135,68.446526 1458.7919,67.135341 1460.1459,61.675407 1464,56 1466.2,52.760356 1468,49.702565 1468,49.204908 1468,48.707251 1466.6297,46.408401 1464.9548,44.096353 1459.7587,36.923315 1459.6151,35.708999 1463.1346,28.705767 1469.4068,16.225075 1471.5175,14.799421 1476.3129,19.804719 1479.7482,23.390345 1479.6906,25.448195 1476,31 1474.3547,33.475 1473.0066,35.973849 1473.0043,36.552997 1472.9971,38.331302 1479.0898,46 1480.5099,46 1481.2452,46 1483.9102,44.425 1486.4321,42.5 1493.172,37.355279 1494.6556,37.724952 1495.4712,44.752272 1496.3456,52.286013 1494.9061,56.417042 1491.7492,55.433611 1486.942,53.936065 1485.3696,53.150299 1484.0865,51.604176 1483.3542,50.721879 1482.1553,50 1481.4222,50 1480.2476,50 1472,62.522459 1472,64.305852 1472,65.935114 1479.3183,75 1480.6336,75 1481.429,75 1483.9195,74.061368 1486.1683,72.914152 1489.7815,71.07083 1490.4293,71.00071 1491.7397,72.311087 1492.5552,73.126617 1493.4638,75.935225 1493.7588,78.552437 1494.1896,82.374668 1493.9438,83.567937 1492.5094,84.616756 1491.307,85.495977 1490.1545,85.61785 1488.981,84.989848 1488.0226,84.476886 1485.0824,83.325231 1482.4474,82.430615 1477.7066,80.821089 1477.6376,80.82865 1475.8628,83.15202 1472.0759,88.109411 1471.6106,90.644456 1473.8983,93.857112 1476.6653,97.743135 1476.5529,99.096139 1473.1953,102.31291 1469.9224,105.44849 1469.5089,105.53202 1467.7894,103.4048 z M 1471.9707,99.535247 C 1472.9469,98.359078 1472.774,97.491333 1471.0932,95.130877 1468.3189,91.234797 1468.4114,90.484593 1472.5026,83.69992 1474.4262,80.509876 1476,77.363773 1476,76.708579 1476,76.053386 1474.387,73.175249 1472.4155,70.312719 1468.2904,64.323388 1468.3385,63.880662 1474.0794,54.998467 L 1478.0873,48.797403 1474.0437,43.441608 C 1471.8196,40.495921 1470,37.553775 1470,36.903506 1470,36.253236 1471.35,33.527168 1473,30.845576 1476.4952,25.165223 1476.6547,23.902481 1474.1623,21.646892 1472.4466,20.094211 1472.2217,20.100518 1470.7746,21.741904 1469.9221,22.708857 1467.7973,26.352609 1466.0529,29.83913 L 1462.8812,36.17826 1466.9406,42.408848 C 1469.1733,45.835671 1471,49.038513 1471,49.526274 1471,50.014036 1469.2,52.979189 1467,56.115505 1464.8,59.25182 1463,62.676513 1463,63.725932 1463,64.775352 1464.35,68.273682 1466,71.5 1467.65,74.726318 1469,78.155958 1469,79.121423 1469,80.086888 1467.65,83.336694 1466,86.343215 1464.35,89.349735 1463,92.393529 1463,93.107201 1463,94.450621 1468.8697,101 1470.0737,101 1470.4485,101 1471.3021,100.34086 1471.9707,99.535247 z M 1491,79.122445 C 1491,74.736274 1489.0469,73.734628 1485.2195,76.157945 1481.2839,78.649819 1481.1946,79.539193 1484.75,80.837719 1489.6763,82.636975 1491,82.273706 1491,79.122445 z M 1492.9847,48.25 C 1492.9594,42.05703 1491.8056,41.283732 1487.4957,44.571078 L 1483.7746,47.409331 1486.443,49.704666 C 1487.9107,50.9671 1489.9864,52 1491.0558,52 1492.6385,52 1492.9972,51.302732 1492.9847,48.25 z"/>
</svg>
