<svg xmlns="http://www.w3.org/2000/svg"
     width="62.9" height="64.0"
     viewBox="348.6203 13.1985 93.5660 95.2300">
  <path d="M 366.69217,99.490499 C 366.37894,97.560273 365.14752,94.611547 363.95569,92.937774 361.00192,88.789585 361.92826,82.859467 366.5442,76.367053 370.64168,70.603857 371.21854,64.704801 368.06052,60.860784 L 366.12104,58.5 362.32707,60.5 C 360.24038,61.6 357.62565,63.945166 356.51655,65.71148 355.40745,67.477794 354.1625,68.940294 353.75,68.96148 352.62026,69.019504 352.86024,60.043583 354.10865,55.546924 354.71228,53.372732 356.74733,50.052667 358.631,48.169 361.70246,45.097535 362.47719,44.800667 366.13935,45.291865 368.38527,45.593106 372.43873,47.217045 375.14703,48.900617 L 380.07121,51.961657 383.5277,48.730828 386.98419,45.5 385.97983,38.634661 C 385.42743,34.858725 384.72943,31.371225 384.42872,30.884661 383.53489,29.43842 380.71469,29.876581 377.22583,32.003738 371.26511,35.637988 368.05651,34.123105 367.8097,27.558093 367.54216,20.441553 374.59604,17.439975 380.95194,21.96578 L 384.13099,24.229462 388.00686,21.114731 C 392.85032,17.222419 395.07396,17.198476 398.66199,21 401.84686,24.37438 404.10693,24.781584 406.12756,22.345096 407.3335,20.890954 412.91658,18 414.51891,18 416.09864,18 418.08777,25.521014 417.47199,29.165767 416.33574,35.891173 411.51415,37.413728 406.2761,32.701191 404.5043,31.107156 403.94594,30.984978 403.52953,32.100203 402.30824,35.371062 401.30597,43.158489 401.77601,45.724691 402.35737,48.89858 405.65385,54 407.12343,54 407.66641,54 411.61822,51.75 415.90523,49 420.19223,46.25 424.35814,44 425.1628,44 430.47382,44 438.18624,62.912761 433.94431,65.534419 433.36368,65.893268 430.51309,64.943125 427.60968,63.42299 421.73679,60.348143 419.47895,60.610057 417.98499,64.539474 415.99754,69.766869 416.75136,72.368641 421.37258,76.231496 427.43563,81.299577 427.65363,83.663904 422.89159,92.705836 420.75122,96.769885 419,100.74864 419,101.54751 419,104.42847 415.86401,102.91879 414.35718,99.312437 413.28166,96.738334 413.00751,94.09545 413.44927,90.55972 413.90386,86.921309 413.67984,84.944416 412.65397,83.541451 411.27953,81.661799 410.96768,81.793548 404.36291,87.044168 396.77309,93.077873 393.70581,95 391.66721,95 389.11024,95 384.1421,91.925868 381.10045,88.461631 377.92609,84.846226 374.61308,83.959967 373.65039,86.468676 373.34042,87.276447 373.35672,90.216345 373.68662,93.001782 374.20653,97.391616 373.97772,98.394811 371.9689,100.53311 368.79472,103.91187 367.36378,103.62914 366.69217,99.490499 z M 371.23281,92.892874 C 370.87109,85.592181 371.49796,83.549776 374.52357,82.171217 376.80115,81.133479 377.37541,81.302029 379.54754,83.6458 380.89639,85.101235 382,86.639633 382,87.064463 382,88.422783 388.64794,92 391.17225,92 394.19511,92 401.37186,87.448321 405.94617,82.629999 407.84156,80.633499 409.96284,79 410.66012,79 411.3574,79 413.03153,80.624147 414.38042,82.609217 416.48064,85.699955 416.75302,86.99284 416.27657,91.609217 415.92624,95.003569 416.10194,97 416.75098,97 417.31791,97 419.28618,94.098376 421.12491,90.551947 L 424.46807,84.103895 422.40046,81.301947 C 421.26328,79.760876 418.89052,77.6 417.12767,76.5 414.17584,74.65809 413.96244,74.172241 414.42792,70.353504 414.70592,68.072932 415.67222,64.360432 416.57526,62.103504 418.5433,57.184883 420.50154,56.881631 426.85207,60.512045 429.24571,61.88042 431.60821,63 432.10207,63 433.49203,63 433.16749,59.472592 431.34488,54.770236 427.96644,46.05384 424.91463,45.036137 417.8938,50.284639 409.41975,56.619519 407.96244,57.303916 405.41698,56.144129 402.52988,54.828675 399,48.138745 399,43.982467 399,42.279001 399.52148,37.727557 400.15885,33.868146 L 401.3177,26.851036 397.70888,23.24221 C 394.43529,19.968625 393.8618,19.741939 391.5353,20.801964 387.45,22.66335 386.46911,25.994939 387.8307,33.384577 389.98882,45.097136 389.59645,47.270327 384.5817,51.379538 380.27144,54.911473 378,55.867466 378,54.149614 378,53.681901 375.18098,51.868366 371.7355,50.119536 366.14175,47.280296 365.12133,47.061744 362.20512,48.07834 358.51188,49.365811 356.5692,52.498574 355.50897,58.876555 354.72527,63.59103 355.24971,63.71958 359.54807,59.866619 360.67452,58.856902 363.01241,57.747517 364.74341,57.401319 367.53247,56.843506 368.13084,57.154735 370.001,60.135934 372.92234,64.792822 372.2534,70.972339 368.11465,77.561464 363.58562,84.771926 363.16397,88.679216 366.40022,93.448109 367.8301,95.555151 369,97.703798 369,98.22288 369,98.741963 369.5625,98.96846 370.25,98.726207 371.08851,98.430742 371.41204,96.510474 371.23281,92.892874 z M 377.01987,29.487455 C 379.20894,28.105556 381,26.467665 381,25.847698 381,22.732827 373.65232,20.74768 371.2,23.2 368.8023,25.597696 369.7833,31.047371 372.76987,31.921053 372.9183,31.964474 374.8308,30.869355 377.01987,29.487455 z M 389,80.293772 C 384.04759,78.483389 381.24635,72.707813 382.51631,66.92572 383.41568,62.830942 388.64154,56.988114 391.35359,57.045104 397.1936,57.167824 404,64.091576 404,69.90955 404,72.614931 401.2381,77.147761 398.02349,79.718197 396.46198,80.966793 391.67617,81.272062 389,80.293772 z M 397.84061,76.399086 C 401.62297,73.74982 402.27814,70.50083 400.02665,65.558511 397.88214,60.851012 396.57286,60 391.47492,60 387.20595,60 385,62.941396 385,68.633613 385,72.083195 385.54284,73.278986 388.07673,75.411106 391.60997,78.38414 394.5778,78.684446 397.84061,76.399086 z M 414.42279,29.559877 C 415.2179,25.321583 414.23115,21 412.46832,21 410.75031,21 405,25.851779 405,27.301329 405,28.848762 410.13243,32.920007 412.13871,32.964037 413.22584,32.987895 413.99464,31.842082 414.42279,29.559877 z"/>
</svg>
