<svg xmlns="http://www.w3.org/2000/svg"
     width="28.0" height="64.0"
     viewBox="1409.8890 14.6218 40.9648 93.7249">
  <path d="M 1420.4062,50.4375 1421.3438,52 1420.875,57.03125 C 1421.3702,57.241316 1421.651,57.576503 1421.7812,58.21875 1421.9474,59.038213 1421.3466,60.172248 1420.5,61.28125 L 1420,66.65625 1419.5938,67.28125 C 1420.26,67.503005 1420.4181,68.040315 1420.2812,69 1419.5708,73.983029 1420.0585,89.320781 1421.0625,93.90625 1422.3492,99.782107 1425.9053,104.34668 1428.4375,103.375 1430.2261,102.68864 1435.255,94.121924 1436.9062,88.9375 1438.7426,83.171443 1439.777,71.872269 1438.8438,67.71875 1438.05,64.185904 1438.2582,63.525566 1441.5312,59.53125 1446.0892,53.968919 1444.7707,53.087016 1439.25,58 L 1435,61.78125 1435.8438,67.875 C 1436.3036,71.237045 1436.3052,76.750726 1435.8438,80.125 1434.6351,88.963012 1428.5029,101.81534 1426.4688,99.78125 1426.1987,99.511128 1425.2607,96.652003 1424.4062,93.40625 1423.1948,88.803727 1423.005,84.85889 1423.5312,75.5 1423.9024,68.9 1424.3495,56.975 1424.5,49 L 1424.75,34.5 1420.75,27.75 C 1416.8147,21.099991 1415.7144,20.05423 1414.5312,21.96875 1413.889,23.007883 1415.6232,26.491677 1419.4375,31.75 1421.5913,34.719224 1421.773,35.734889 1421.3125,43.25 1421.0976,46.757499 1420.8263,48.93173 1420.4062,50.4375 z M 1421.6562,18.96875 C 1421.2515,19.084414 1421,19.373092 1421,19.84375 1421,20.30938 1422.6111,22.33438 1424.5625,24.34375 1426.514,26.353121 1428.5689,28 1429.1562,28 1429.7436,28 1432.4649,26.373578 1435.1875,24.375 1438.5789,21.885538 1439.7984,20.423308 1439.0938,19.71875 1438.3893,19.014192 1436.8506,19.519908 1434.2188,21.34375 1429.4739,24.631888 1428.6535,24.643714 1426.5938,21.5 1425.4462,19.74875 1422.8704,18.621758 1421.6562,18.96875 z M 1444.9688,23.5 C 1444.6679,22.967367 1442.9714,24.060454 1440.0625,27.1875 L 1435.0938,32.5 1435.3125,42.75 C 1435.5421,54.599701 1436.1623,55.177121 1442.5938,49.59375 1446.6622,46.061732 1446.8538,43.597461 1442.8438,46.40625 1441.5858,47.287349 1440.2468,48 1439.875,48 1439.5032,48 1438.8878,44.830093 1438.5,40.96875 1437.7969,33.967389 1437.8126,33.948107 1441.4062,29.5625 1444.1737,26.185156 1445.2696,24.032633 1444.9688,23.5 z"/>
</svg>
