<svg xmlns="http://www.w3.org/2000/svg"
     width="64.0" height="63.8"
     viewBox="2459.5720 22.0000 72.1979 72.0000">
  <path d="M 2491.3267,85.75 C 2488.1874,79.490699 2487,76.176834 2487,73.675188 2487,70.238891 2480.2786,65.459408 2476.9375,66.519852 2474.4889,67.296997 2474.5009,68.45635 2476.9993,72.498938 2478.7464,75.325727 2478.8722,76.400697 2477.9966,81.017781 2476.738,87.654751 2475.4294,89.312711 2472.0742,88.521645 2463.572,86.51706 2463.9981,71.794029 2472.7367,65.628513 2476.7037,62.829589 2476.8887,62.798001 2480.0569,64.378513 2485.4766,67.082216 2485.6257,66.862727 2485.2363,56.75 2484.9979,50.558883 2485.3812,45.681205 2486.3951,42 2487.7982,36.906404 2487.7796,36.31993 2486.1442,34.063051 2483.9624,31.052189 2479.2973,29.30268 2477.7027,30.897312 2476.8729,31.727061 2477.0673,32.843957 2478.4484,35.181884 2481.2444,39.915153 2481.0937,46.694877 2478.1392,49.087857 2474.9946,51.634861 2473.4091,51.50002 2470.3331,48.423972 2468.1354,46.22631 2467.8295,45.205243 2468.2502,41.472253 2468.8333,36.299551 2474.5564,27.656712 2477.7047,27.194495 2478.8492,27.026467 2481.9199,27.892212 2484.5284,29.118372 L 2489.2712,31.347754 2491.219,28.673877 C 2492.4263,27.016588 2494.1106,26 2495.6491,26 2498.7949,26 2502,27.68766 2502,29.344054 2502,30.044582 2502.6435,31.491249 2503.4301,32.55887 2504.8174,34.441956 2504.9594,34.404886 2508.1801,31.319174 2510.006,29.56972 2512.7645,27.826661 2514.31,27.445709 2516.8018,26.831504 2517.6742,27.361558 2522.0146,32.126535 2525.9829,36.483016 2526.9178,38.200821 2526.9546,41.202947 2527.0493,48.923717 2522.1362,53.62971 2517.2936,50.456746 2512.3511,47.218301 2510.7134,37.142586 2514.6046,33.913184 2516.5367,32.309691 2516.349,31 2514.1871,31 2513.19,31 2511.0525,32.379903 2509.4371,34.066452 L 2506.5,37.132904 2506.4658,51.566452 C 2506.447,59.504903 2506.6985,66 2507.0247,66 2507.3509,66 2508.4912,65.339312 2509.5589,64.531803 2511.5717,63.00934 2515.7072,62.566685 2518.3704,63.588633 2521.2782,64.704462 2527.1985,72.995708 2527.4423,76.293541 2527.7699,80.726887 2524.5649,87.855471 2521.781,88.88531 2518.9301,89.939917 2514.282,88.395446 2512.9789,85.960558 2510.948,82.165861 2512.4355,72.647471 2515.6416,68.921259 2517.6176,66.624757 2517.3315,66 2514.3038,66 2509.8619,66 2504.1503,70.648039 2503.4037,74.87023 2502.5234,79.849443 2496.8842,90 2494.9983,90 2494.1513,90 2492.499,88.0875 2491.3267,85.75 z M 2476.174,79.972279 C 2476.4888,76.671365 2476.052,75.294226 2473.8673,72.700118 L 2471.1723,69.5 2469.9453,72.5 C 2468.2025,76.761356 2468.5449,83.194083 2470.5944,84.692674 2473.3156,86.682448 2475.7288,84.640831 2476.174,79.972279 z M 2476.8,46.8 C 2478.4368,45.163231 2478.3108,40.800759 2476.5586,38.44113 2475.4077,36.891344 2474.7525,36.721941 2473.3086,37.600862 2470.8404,39.103235 2470.4434,43.727527 2472.58,46.088434 2474.6021,48.322821 2475.1798,48.420224 2476.8,46.8 z M 2498.8363,80.182151 C 2499.8305,78.156968 2501.4719,71.245187 2502.4837,64.822637 2504.089,54.633091 2504.1672,52.02118 2503.0972,44.322637 2501.7544,34.660916 2499.5211,29.664151 2496.3377,29.198578 2493.8692,28.837564 2491.9833,32.355177 2489.4745,42 2487.3562,50.143476 2487.9299,63.128782 2490.9057,74.392002 2493.9832,86.040239 2495.4387,87.102855 2498.8363,80.182151 z M 2523.4743,83.04966 C 2526.7412,76.732176 2524.0697,68.890948 2519.1792,70.443121 2515.4464,71.627871 2513.3164,81.266471 2516.0575,84.569323 2518.1175,87.05147 2521.7945,86.298078 2523.4743,83.04966 z M 2523.3878,45.680825 C 2524.4159,41.847425 2524.0461,38.708451 2522.345,36.828741 2520.5145,34.806097 2517.4807,34.413121 2516.459,36.066312 2514.9885,38.445702 2515.8417,44.202626 2518.0065,46.506869 2520.5164,49.17859 2522.5327,48.869082 2523.3878,45.680825 z"/>
</svg>
