<svg xmlns="http://www.w3.org/2000/svg"
     width="33.4" height="64.0"
     viewBox="1095.4261 12.5459 47.6677 91.3159">
  <path d="M 1138.7188,87.875 C 1138.1117,87.903029 1137.6216,88 1136.9375,88 1131.283,88 1130.8376,87.002616 1133.5938,80.40625 1136.025,74.587406 1135.1809,64.386584 1131.8438,59.34375 1129.4412,55.713276 1129.2637,54.764112 1129.7188,47.4375 1130.1881,39.882622 1130.4304,39.298752 1134.125,35.28125 1138.2906,30.751652 1138.9342,28.035424 1136.4062,25.9375 1135.2189,24.952023 1134.1465,24.869639 1132.0625,25.65625 1128.1756,27.12339 1120.0782,33.246974 1120.0312,34.75 1119.9725,36.634282 1121.5457,36.278504 1124.6875,33.65625 1128.6853,30.319464 1133.7671,27.852768 1134.4375,28.9375 1134.7488,29.441142 1134.4425,30.424099 1133.75,31.15625 1126.2298,39.106407 1126,39.633286 1126,48.21875 1126,55.491544 1126.2994,56.831693 1128.75,60.375 1131.137,63.826432 1131.4861,65.287269 1131.4375,71.4375 1131.4015,75.993717 1130.7768,79.722695 1129.6875,81.90625 1127.464,86.363411 1127.5513,87.569181 1130.2188,89.4375 1132.2709,90.874859 1135.4549,91.199304 1138.8125,90.84375 L 1138.7188,87.875 z M 1139,96.5625 C 1133.8659,97.115775 1132.3869,96.869441 1127.125,94.375 1123.7962,92.796969 1120.835,90.955273 1120.5625,90.28125 1120.29,89.607228 1120.7287,87.483312 1121.5312,85.5625 1123.738,80.280802 1123.4519,71.852727 1120.9688,69.1875 1116.5529,64.447647 1110.0661,65.901486 1105.9688,72.53125 1102.9003,77.495973 1102.3353,76.118186 1104.5,68.96875 1105.9852,64.063598 1107.0955,62.358451 1110.4062,59.90625 1113.4571,57.646542 1115.1964,57.031398 1117.2812,57.4375 1120.8188,58.12661 1121.1748,57.150158 1120.25,49 L 1119.5,42.5 1114.8438,42.5 C 1109.9966,42.5 1106.5957,40.488249 1105.4688,36.9375 1104.2758,33.178872 1112.2416,22.257633 1115.4062,23.3125 1115.9955,23.508908 1116.9888,25.437832 1117.5938,27.59375 1118.8216,31.969975 1120.6119,32.359602 1120.2812,28.1875 1119.3649,16.623828 1112.1636,16.545893 1105.1875,28.03125 1101.7327,33.719255 1101.3751,38.342864 1104.125,41.65625 1105.9019,43.797292 1112.1375,46.197873 1114.6875,45.71875 1117.1451,45.256991 1118,46.639348 1118,51.125 1118,54.076513 1117.667,54.365175 1113,55.40625 1106.5031,56.855519 1099.4261,68.193631 1100.2812,75.78125 1101.1857,83.80483 1103.5382,83.847939 1107.5625,75.90625 1111.236,68.656999 1118.1536,66.762556 1119.625,72.625 1120.4637,75.966654 1119.3768,83.337119 1117.5312,86.90625 1116.1581,89.561363 1116.2085,90.009708 1118.0938,92.40625 1119.2191,93.836836 1120.8708,95 1121.75,95 1122.6293,95 1124.038,95.621768 1124.9062,96.375 1125.7746,97.128232 1127.85,98.202903 1129.5,98.78125 1132.4327,99.809229 1135.3567,99.861823 1139.0938,99.4375 L 1139,96.5625 z"/>
</svg>
