<svg xmlns="http://www.w3.org/2000/svg"
     width="48.4" height="64.0"
     viewBox="1019.7042 10.9147 70.6178 93.4432">
  <path d="M 1041.5105,99.01701 C 1040.4642,97.32401 1042.2005,90.666652 1044.7414,86.629412 1046.5679,83.727205 1047.0198,81.975878 1046.5475,79.629412 1045.6501,75.170267 1041.7151,67.5 1040.325,67.5 1037.841,67.5 1033.8062,75.567865 1031.2583,85.629613 1029.1744,93.859144 1028.2695,96 1026.8751,96 1024.0462,96 1023.7042,94.378748 1023.8998,81.893657 1024.0513,72.228146 1024.5244,68.847926 1026.4804,63.455278 1029.0992,56.235276 1033.2893,50 1035.5224,50 1036.6488,50 1043.307,52.802592 1049.3029,55.800492 1049.7445,56.021291 1049.9695,53.578829 1049.8029,50.3728 L 1049.5,44.543656 1046.0708,44.269434 C 1038.7795,43.686369 1033.5341,37.327855 1034.4377,30.167545 1035.9891,17.872475 1045.1074,14.914665 1050.5622,24.937015 L 1053.245,29.866183 1063.5517,24.74032 C 1075.1904,18.951996 1077.2055,19.008508 1080.9986,25.229608 1084.5977,31.132642 1082.7402,45 1078.3505,45 1077.6804,45 1075.8477,43.0875 1074.2779,40.75 1068.9671,32.842451 1064.0389,36.713557 1063.2225,49.433965 1062.6612,58.181667 1062.93,58.376562 1070.2122,54.5 1076.7565,51.016149 1078.2279,51.256564 1080.9219,56.25 1085.1167,64.025078 1086.2848,69.772957 1086.3055,82.741706 1086.322,93.134633 1086.0537,95.283149 1084.5288,96.968125 1082.0672,99.688189 1081.2947,98.87063 1080.542,92.748883 1079.686,85.787003 1077.8337,77.730949 1076.8175,76.55 1076.3679,76.0275 1075.985,74.9025 1075.9667,74.05 1075.9484,73.1975 1075.0677,71.461382 1074.0094,70.191959 1071.4074,67.070607 1069.1157,68.39674 1065.6852,75.008966 1063.1647,79.86705 1063.1044,80.314106 1064.5139,83.68757 1066.2381,87.814005 1066.456,94.279496 1064.9648,97.065741 1063.3337,100.11357 1060.2204,99.462999 1058.6683,95.75 1057.9211,93.9625 1056.5056,91.833013 1055.5227,91.017807 1053.8901,89.663824 1053.4012,89.923327 1049.8705,94.017807 1047.7447,96.483013 1046.0042,98.8375 1046.0027,99.25 1045.9987,100.35789 1042.218,100.1618 1041.5105,99.01701 z M 1057.4931,88.513832 C 1058.8378,90.156225 1060.2152,92.312271 1060.5539,93.305047 1061.6501,96.518067 1063.5032,94.447121 1063.411,90.112067 1063.3543,87.447868 1062.5026,84.818498 1061.0675,82.877381 1058.8472,79.874303 1058.8417,79.795139 1060.7085,77.663999 1061.7511,76.4738 1063.4807,73.759973 1064.552,71.633273 1067.1512,66.473895 1070.1527,64.47617 1073.0088,66.004686 1075.4931,67.334247 1080.4475,77.770149 1081.4713,83.830045 1081.8578,86.117756 1082.6572,88.28813 1083.2477,88.653099 1084.695,89.547573 1083.4815,70.905339 1081.7406,65.5 1079.8999,59.784819 1077.1502,54.99626 1075.7243,55.022713 1075.0509,55.035205 1071.7143,56.546963 1068.3095,58.382175 1063.9508,60.731524 1061.8054,61.405412 1061.0595,60.659462 1059.4297,59.029741 1059.7367,43.409861 1061.4641,40.069456 1063.1299,36.848201 1068.5177,32 1070.4317,32 1071.1348,32 1072.9939,34.031267 1074.5632,36.513928 1076.1325,38.996588 1077.8852,40.873372 1078.4582,40.684559 1079.0312,40.495746 1079.6318,37.649652 1079.7928,34.359907 1080.0308,29.497972 1079.6897,27.875249 1077.9702,25.689276 1076.8068,24.210174 1075.188,23 1074.3729,23 1073.5578,23 1068.5775,25.25 1063.3055,28 1053.1198,33.313144 1051,33.912364 1051,31.47856 1051,28.594573 1045.8395,22 1043.5827,22 1040.9109,22 1037.6716,27.156175 1037.7873,31.225028 1037.9089,35.501719 1042.4446,41 1045.8509,41 1047.3629,41 1049.1325,40.4675 1049.7833,39.816667 1050.4342,39.165833 1051.1505,38.828333 1051.3752,39.066667 1052.3532,40.103929 1052.7983,60.006642 1051.8565,60.588661 1051.304,60.930143 1049.8672,60.284372 1048.6635,59.153615 1045.5602,56.238213 1037.2894,52.773381 1035.0955,53.469686 1033.9898,53.820641 1031.9226,57.090359 1029.9583,61.595616 1027.0676,68.225463 1026.6486,70.30161 1026.4822,78.817145 1026.3781,84.142715 1026.5235,88.910047 1026.8051,89.411216 1027.0868,89.912385 1027.9337,87.91396 1028.687,84.970273 1030.7561,76.885452 1037.3355,64.562769 1039.7807,64.192832 1042.4862,63.783516 1046.1451,68.882618 1048.3162,76.087892 1050.49,83.302033 1050.4637,83.660249 1047.5,87.182369 1046.125,88.816464 1045,91.339508 1045,92.789133 1045,95.329806 1045.1811,95.246431 1050.0241,90.476241 L 1055.0482,85.527665 1057.4931,88.513832 z"/>
</svg>
