<svg xmlns="http://www.w3.org/2000/svg"
     width="27.4" height="64.0"
     viewBox="552.2621 19.6608 35.7379 83.3392">
  <path d="M 565.20912,97.433918 C 559.20774,93.230392 556.2621,80.604933 557.99849,66.528122 560.07804,49.669356 561.28274,44.6667 565.09918,37.041678 569.29521,28.658268 572.09918,25.495937 576.25,24.465722 579.49319,23.660777 579.70698,24.695765 577.64418,31.215053 573.29969,44.945371 573.17442,42.825412 578.87788,52.093227 581.69505,56.670966 584,61.148259 584,62.042767 584,62.937276 580.85,66.680163 577,70.360294 L 570,77.051443 570.07029,84.275721 C 570.10894,88.249075 570.50241,92.4 570.94465,93.5 571.86132,95.780024 570.53976,99 568.68732,99 568.00405,99 566.43886,98.295263 565.20912,97.433918 z M 568.03624,86 C 567.26945,75.164527 568.35428,59.485973 570.49255,50.5 571.40868,46.65 572.78399,40.847444 573.54879,37.605431 575.57871,29.00054 574.02733,27.467062 569.66313,33.764609 565.68245,39.508733 563.06366,48.279431 561.3818,61.5 559.27451,78.064718 560.6784,88.672191 565.71451,94.23703 568.21079,96.995393 568.69322,95.28383 568.03624,86 z M 575.58465,68.484146 C 581.53684,63.606775 581.74029,62.196094 577.45716,55.500483 575.46358,52.384022 573.615,50.051667 573.3492,50.317471 571.55263,52.114034 569.00635,72 570.57287,72 570.9695,72 573.2248,70.417866 575.58465,68.484146 z"/>
</svg>
