<svg xmlns="http://www.w3.org/2000/svg"
     width="34.9" height="64.0"
     viewBox="888.6875 18.5000 46.5278 85.3042">
  <path d="M 893.3125,56.40625 893.125,61.40625 C 893.64135,61.835814 894,62.605189 894,63.90625 894,65.194522 893.59106,66.13392 892.875,67 L 892.6875,71.34375 C 892.8503,71.291528 893.43999,71 893.5,71 893.82687,71 893.94405,77.074503 893.78125,84.5 893.51858,96.480263 893.69736,98.000801 895.15625,98 896.65208,97.999178 896.76712,95.265462 896.5,67.5625 L 896.1875,37.09375 901.59375,31.5625 C 904.55124,28.508998 907.15235,26 907.375,26 907.59765,26 909.68905,28.936311 912.03125,32.53125 915.84174,38.379819 916.27233,39.668649 916.1875,44.78125 916.01351,55.267771 913.98993,90.456168 913.375,93.75 912.9118,96.231053 913.11536,97 914.25,97 916.32994,97 916.97451,92.8867 917.59375,75.5 918.20916,58.220606 919.47327,42.182973 920.28125,41.375 920.5872,41.06905 922.20476,41.827639 923.875,43.0625 927.89937,46.037848 929.54959,44.637808 930.4375,37.53125 931.21533,31.305674 929.22494,26 926.09375,26 925.0706,26 922.56093,27.6875 920.53125,29.75 916.39168,33.956505 916.90989,34.178136 911.65625,26 910.41962,24.075 908.92977,22.5 908.34375,22.5 907.75773,22.5 904.23869,25.34639 900.5,28.84375 L 893.6875,35.21875 893.875,45.53125 894.0625,55.84375 893.3125,56.40625 z M 924.875,30 C 926.75873,30 928.18712,34.097707 927.53125,37.59375 927.18099,39.460837 926.60632,40.986174 926.21875,40.96875 924.79563,40.904771 919.999,36.787138 920.03125,35.65625 920.07641,34.07271 923.5671,30 924.875,30 z M 904.5625,36.09375 C 903.73421,35.279946 903.32732,41.036596 903.84375,50 904.23985,56.875 904.27308,70.6 903.90625,80.5 903.53942,90.4 903.44362,98.883328 903.71875,99.34375 903.99388,99.804173 904.74957,99.657452 905.375,99.03125 906.61184,97.792867 906.71732,45.707609 905.5,39.21875 905.15189,37.363154 904.8386,36.365018 904.5625,36.09375 z"/>
</svg>
