<svg xmlns="http://www.w3.org/2000/svg"
     width="46.8" height="64.0"
     viewBox="2105.7138 13.0861 71.9112 98.3799">
  <path d="M 2173.625,50.375 C 2172.0653,50.665748 2170.399,51.485255 2168.375,53.09375 L 2164.5,56.1875 2160.5,51.59375 C 2158.2984,49.066377 2156.0113,46.995525 2155.4062,47 2154.8013,47.004475 2152.4389,48.346551 2150.1562,50 2147.8737,51.65345 2145.9357,52.89095 2145.875,52.75 2145.8143,52.609051 2145.6615,49.8 2145.5312,46.5 2145.2519,39.4258 2146.1696,36.420986 2149.4062,33.875 2152.0599,31.787657 2154.5836,23.378031 2153.5312,20.0625 2152.5866,17.086066 2149.2768,17.514269 2146.3438,21 2143.4464,24.443284 2140.0239,24.871748 2138.25,22.03125 2136.798,19.706216 2130.0799,17.703255 2126.6562,18.5625 2125.321,18.897649 2122.9477,20.514388 2121.375,22.15625 2119.0451,24.588482 2118.5141,25.982626 2118.5938,29.65625 2118.7319,36.034865 2122.32,39.539293 2128.5312,39.40625 2131.1626,39.349888 2132.9935,39.76211 2133,40.40625 2133.0061,41.00899 2133.2736,43.075 2133.5625,45 2134.4866,51.158205 2132.9906,51.674291 2126.5625,47.40625 2119.9393,43.008695 2119.3353,43.161576 2114.0312,50.53125 2111.1807,54.492106 2110.5083,56.40049 2110.1875,61.4375 2109.7138,68.877131 2111.8407,75 2114.9062,75 2116.4366,75 2117.0757,74.111218 2117.5938,71.25 2118.4942,66.277221 2120.7392,62 2122.4375,62 2124.3441,62 2130,68.66367 2130,70.90625 2130,71.920302 2127.536,74.8704 2124.5312,77.4375 2117.7787,83.206308 2116.9973,86.165759 2119.9375,94.53125 2121.0791,97.779276 2122,101.68719 2122,103.21875 2122,107.46597 2124.311,106.67783 2128.5,101 2130.3756,98.457771 2131,96.376353 2131,92.625 2131,87.521229 2133.6595,83 2136.6562,83 2137.9965,83 2140.9675,87.883373 2141.0312,90.1875 2141.1305,93.773749 2149.6525,100 2154.4688,100 2157.2598,100 2156.0476,97.176237 2152.9688,96.5 2148.944,95.615986 2144.3673,91.644084 2143.5312,88.3125 2142.5276,84.314021 2139.1278,80 2136.9688,80 2135.9254,80 2133.5135,81.376876 2131.5938,83.0625 2128.3528,85.908031 2128.0545,86.617003 2127.7812,92.75 2127.6184,96.408145 2127.0146,99.517956 2126.4062,99.71875 2125.2857,100.08856 2121,90.153657 2121,87.1875 2121,86.288739 2123.7222,82.807768 2127.0625,79.4375 2132.7661,73.682738 2133.1215,73.094334 2132.5,69.78125 2132.0688,67.482701 2130.3059,64.753238 2127.4688,61.96875 2123.2002,57.779552 2123.0596,57.72804 2120.5938,59.34375 2119.1743,60.273788 2117.5566,62.756295 2116.875,65.03125 2115.4553,69.769906 2113.6509,69.755742 2113.1875,65 2112.6706,59.695286 2113.8032,55.561778 2117.0625,51.0625 L 2120.0938,46.90625 2123.7812,49.125 C 2125.819,50.353512 2129.1934,52.695195 2131.2812,54.3125 2133.3692,55.929805 2135.2652,57.078804 2135.4688,56.875 2136.1507,56.192207 2136.3861,35.042224 2135.7188,34.375 2135.3565,34.012771 2134.3305,34.32131 2133.4375,35.0625 2131.3421,36.801526 2126.0806,36.393407 2123.7812,34.3125 2122.6601,33.297817 2122,31.264164 2122,28.90625 2122,21.781814 2130.4773,18.383597 2135.5625,23.46875 2140.662,28.568273 2143.3697,28.373141 2148.1562,22.53125 2149.0714,21.414334 2150.111,20.799951 2150.4688,21.15625 2151.6289,22.311467 2149.7908,29.216309 2147.875,30.875 2141.6642,36.252342 2142,35.39756 2142,45.5 2142,50.725 2141.9665,55.3375 2141.9375,55.75 2141.7994,57.710008 2145.4115,56.830424 2148.9062,54.0625 2151.0418,52.37102 2153.3694,51 2154.0625,51 2154.7556,51 2156.8356,52.8 2158.7188,55 2162.8221,59.793784 2165.0996,60.000804 2169.6562,56 2171.2112,54.634743 2172.3954,53.915671 2173.5,53.53125 L 2173.625,50.375 z M 2173.125,63.34375 C 2171.2035,63.77988 2168.9249,65.027716 2165.5625,67.40625 L 2162.875,69.3125 2158.4062,64.90625 2153.9375,60.53125 2151.5,63.53125 C 2150.1567,65.172319 2148.2924,68.486169 2147.3438,70.90625 L 2145.625,75.3125 2149.1875,81.78125 C 2152.5516,87.903257 2157.0938,92.250073 2158.5938,90.75 2158.9664,90.377281 2157.9324,88.792428 2156.2812,87.25 2154.6301,85.707572 2152.2645,82.479958 2151.0312,80.0625 2149.1103,76.297086 2148.9514,75.145527 2149.875,72.0625 2150.4681,70.083146 2151.6115,67.558191 2152.4375,66.46875 2153.9038,64.534875 2154.0197,64.570936 2156.5625,67.75 2160.9213,73.199491 2162.1812,73.430088 2167.125,69.5 2169.5546,67.568611 2171.402,66.565215 2173,66.3125 L 2173.125,63.34375 z"/>
</svg>
