<svg xmlns="http://www.w3.org/2000/svg"
     width="35.8" height="64.0"
     viewBox="1179.5407 14.7131 51.0843 91.2004">
  <path d="M 1225.0625,79.59375 C 1224.2905,79.841035 1223.495,79.851197 1222.5938,79.625 1220.2396,79.034129 1220.1164,78.68366 1220.6562,74.125 1221.3755,68.052491 1219.8133,63.151984 1215.9688,59.46875 1213.3312,56.941833 1213,55.958806 1213,50.78125 1213,45.081414 1213.1231,44.819109 1218,40.09375 1222.2786,35.948083 1223,34.7001 1223,31.4375 1223,27.091716 1219.7717,21.681371 1216.2188,20.0625 1213.257,18.713065 1209.0169,20.763158 1206,25 1203.3934,28.660678 1202.3787,28.738195 1199.0312,25.53125 1197.6062,24.16602 1195.0386,22.74523 1193.3438,22.40625 1190.584,21.854304 1190.1617,22.107473 1189.2188,24.8125 1188.3124,27.412574 1188.5224,28.422737 1190.7812,31.90625 1192.2667,34.197094 1195.2983,36.927447 1197.75,38.21875 L 1202.0625,40.5 1201.7812,46.46875 1201.5,52.40625 1197.4688,53.46875 C 1192.3893,54.787332 1189.955,56.588175 1187.3125,61 1183.7257,66.988213 1183.5407,70.202648 1186.5938,73.03125 1189.1386,75.389149 1189.2875,75.433436 1190.375,73.625 1194.3039,67.091467 1200,63.479431 1200,67.53125 1200,68.373511 1200.7388,69.347448 1201.625,69.6875 1202.5112,70.027551 1203.796,71.669376 1204.5,73.34375 1205.6837,76.158744 1205.5711,76.668738 1202.8438,80.0625 1198.8014,85.092718 1197.9569,93.027244 1200.9688,97.8125 1203.5499,101.91342 1205.2953,101.50635 1206.0938,96.59375 1206.7472,92.574314 1208.9133,90.049142 1213.1875,88.25 1215.5299,87.263978 1216.3477,87.484722 1219.9062,90.0625 1222.3011,91.797299 1224.4895,92.665052 1226.625,92.84375 L 1226.25,89.6875 C 1224.4515,89.471498 1222.5752,88.653906 1220.1562,86.875 L 1215.875,83.75 1211.875,85.5625 C 1209.6708,86.556444 1206.805,88.636577 1205.5,90.1875 1204.195,91.738422 1202.873,93 1202.5625,93 1202.252,93 1202,91.207802 1202,89.03125 1202,85.707151 1202.5601,84.626997 1205.5,82.28125 1208.9908,79.495942 1209.7823,76.749818 1208.1875,72.84375 1206.885,69.653553 1199.9199,63 1197.875,63 1196.7422,63 1194.2375,64.575 1192.3125,66.5 1190.3875,68.425 1188.4568,70 1188.0312,70 1186.8419,70 1188.2548,64.880222 1190.4688,61.21875 1192.8138,57.34049 1198.971,54.911099 1201.375,56.90625 1203.4353,58.616107 1203.8175,57.47132 1204.5938,47.1875 L 1205.2812,38.03125 1201.4062,36.40625 C 1196.6486,34.44875 1192,30.245076 1192,27.875 1192,24.807985 1193.5956,24.961672 1197.6562,28.4375 1202.6119,32.679288 1205.3834,33.328251 1205.8125,30.3125 1205.9847,29.10143 1207.7092,26.71334 1209.625,25.03125 1212.3468,22.641408 1213.4905,22.179774 1214.9062,22.9375 1218.2974,24.752352 1219.927,28.416898 1219.0625,32.25 1217.9613,37.132547 1217.348,37.835732 1213.6875,38.78125 L 1210.5,39.625 1209.8125,48.375 1209.1562,57.15625 1213.0625,61.0625 C 1217.1083,65.108276 1217.3307,65.850943 1217.4375,76 1217.4949,81.45834 1217.5395,81.493886 1221.0938,82.375 1222.9535,82.836043 1224.1816,82.748208 1225.4062,82.34375 L 1225.0625,79.59375 z"/>
</svg>
