<svg xmlns="http://www.w3.org/2000/svg"
     width="20.1" height="64.0"
     viewBox="448.2164 19.8633 26.4196 84.2808">
  <path d="M 452.55084,97.954301 C 452.21643,97.104167 452.59347,91.254167 453.38871,84.954301 454.3043,77.701076 454.81105,64.965396 454.77037,50.230267 454.73504,37.431914 454.97784,26.688822 455.30994,26.356729 457.80335,23.863314 463.04279,33.870902 465.98428,46.745273 468.23418,56.592631 470.63601,89.796255 469.52632,95.711417 468.69474,100.14407 466.01262,100.0164 462.47296,95.375655 L 459.70853,91.751311 456.4337,95.625655 C 453.89549,98.628531 453.02211,99.152321 452.55084,97.954301 z M 467.39212,93.420537 C 467.72547,92.551832 467.78512,90.864332 467.52468,89.670537 467.26423,88.476742 466.81571,81.875 466.52797,75 465.721,55.719323 462.14196,36.713391 458.66304,33.234465 457.38698,31.958408 457.18807,34.617128 457.06167,54.638711 456.9823,67.21242 456.57376,80.550317 456.15383,84.278483 455.73389,88.006648 455.60346,91.27013 455.864,91.530665 456.12453,91.791199 457.21849,91.215882 458.29501,90.252182 460.18089,88.563942 460.34807,88.618493 462.87616,91.747 465.83958,95.414235 466.52902,95.669729 467.39212,93.420537 z"/>
</svg>
