<svg xmlns="http://www.w3.org/2000/svg"
     width="19.9" height="64.0"
     viewBox="2033.5024 18.9524 27.4099 88.0821">
  <path d="M 2038.9572,99.833333 C 2038.9337,99.65 2038.7116,84.321086 2038.4636,65.76908 2038.2156,47.217074 2037.9566,31.692074 2037.8879,31.26908 2037.5024,28.892925 2038.126,25 2038.8921,25 2040.1617,25 2040.9245,40.289395 2041.2328,71.914642 2041.4398,93.148919 2041.2182,99.423673 2040.25,99.747975 2039.5625,99.978255 2038.9808,100.01667 2038.9572,99.833333 z M 2053.8549,98.75 C 2053.2116,94.9238 2053.6913,23.975344 2054.365,23.301644 2054.7143,22.952406 2055.3375,23.003908 2055.75,23.416091 2056.1625,23.828275 2056.6015,41.453275 2056.7255,62.582758 2056.9123,94.40307 2056.7177,101 2055.5921,101 2054.8447,101 2054.0629,99.9875 2053.8549,98.75 z M 2045.6532,101.24791 C 2045.3976,100.83426 2045.199,83.284258 2045.2121,62.247908 2045.231,31.631186 2045.494,24 2046.53,24 2047.2562,24 2048.0777,25.645871 2048.4019,27.75 2048.8474,30.641864 2048.641,76.332273 2048.0812,98.75 2048.0063,101.74969 2046.7574,103.03452 2045.6532,101.24791 z"/>
</svg>
