<svg xmlns="http://www.w3.org/2000/svg"
     width="47.4" height="64.0"
     viewBox="2169.0000 11.3693 74.1093 100.1373">
  <path d="M 2173.625,50.375 2173.5,53.53125 C 2175.3245,52.896305 2176.8476,53.435234 2178.9375,55.375 2183.2561,59.383387 2186.1633,59.445951 2191.6562,55.625 2194.935,53.344365 2196.3984,51.639069 2196.2188,50.375 2194.3018,36.896314 2197.7113,22 2202.6875,22 2206.5012,22 2208.9017,36.753994 2206.5625,45.78125 2205.7059,49.086977 2205,52.012421 2205,52.28125 2205,52.550079 2207.6083,54.297356 2210.7812,56.1875 2217.2475,60.039458 2224.1247,62.159832 2226.1562,60.90625 2227.0538,60.352426 2227.7099,56.802343 2228.1562,50.28125 2228.9006,39.407093 2230.0363,33.422901 2232.5312,27.1875 2235.7465,19.151776 2237.2543,23.164956 2236.4375,37.65625 2235.7082,50.593904 2233.2854,58.860674 2228.1875,65.84375 2225.866,69.023765 2225.5161,69.144425 2221.2188,68.5 2218.7325,68.127172 2214.8064,66.916936 2212.4688,65.78125 2210.1312,64.645565 2207.5097,63.984969 2206.6562,64.3125 2204.4647,65.153499 2202,74.25777 2202,81.5 2202,86.652283 2202.4316,88.127085 2204.6562,90.8125 2208.2947,95.204368 2211.8447,95.094683 2215.9062,90.46875 2217.6133,88.524612 2219,86.52466 2219,86.03125 2219,84.262264 2224.5403,81.109771 2226.0312,82.03125 2227.2591,82.790095 2227.2389,83.354449 2225.75,85.875 2223.4127,89.831678 2223.5435,94.609112 2226.0938,97.84375 2227.8938,100.12695 2227.9594,100.5357 2226.5938,100.8125 2225.7194,100.98972 2223.6054,100.13843 2221.875,98.90625 2219.1211,96.945321 2218.5962,96.861927 2217.625,98.1875 2215.967,100.4506 2210.4881,103.00424 2207.3125,103 2202.8224,102.99401 2198.0712,99.441664 2195.8438,94.40625 2193.6445,89.434551 2193.4565,87.490491 2194,75.21875 2194.2958,68.539495 2194.0749,66.637438 2192.75,65.3125 2191.2283,63.790839 2190.775,63.829706 2186.625,66.03125 L 2182.1562,68.40625 2179.4375,65.71875 C 2177.2837,63.564994 2175.4848,62.808137 2173.125,63.34375 L 2173,66.3125 C 2174.8126,66.02584 2176.3201,66.711809 2178,68.5 2180.8304,71.512807 2183.4941,71.653002 2187.5,69 2191.6216,66.270373 2192.3088,66.480628 2191.625,70.25 2191.3008,72.0375 2190.7722,76.875 2190.4375,81 2189.9276,87.284716 2190.1851,89.391208 2192,94 2194.6612,100.75795 2196.3673,102.76805 2201.5,105.125 2206.6864,107.50662 2207.4576,107.47056 2213.9062,104.46875 2219.0924,102.05463 2219.4884,101.99836 2222.7188,103.53125 2226.3555,105.25699 2231.0705,104.81204 2232.9375,102.5625 2234.459,100.72917 2233.4558,98.771663 2229.9688,96.78125 2226.1397,94.595564 2226.0177,90.707256 2229.5938,85.4375 2232.055,81.810696 2232.1016,81.552152 2230.4062,80.3125 2225.8663,76.992801 2220.2897,79.444259 2214.625,87.25 2213.1282,89.3125 2211.2113,91 2210.375,91 2205.9575,91 2203.4591,83.378645 2205.125,75 2206.6815,67.171676 2207.229,66.758399 2212.75,69.125 2224.2948,74.073677 2228.4537,72.584531 2233.8125,61.59375 2238.2283,52.537205 2239.1093,47.46066 2238.7812,33.09375 2238.5421,22.625414 2238.2184,20.549476 2236.75,19.625 2235.384,18.764944 2234.6185,18.93724 2233.125,20.5 2229.3054,24.496803 2224.6063,44.251159 2225.7188,51.625 2225.9789,53.349338 2225.7003,55.710385 2225.0938,56.84375 2224.1153,58.672062 2223.6281,58.768868 2220.75,57.78125 2216.9508,56.477517 2210.4772,52.549959 2209.5,50.96875 2209.1257,50.363121 2209.371,47.041506 2210.0625,43.5625 2211.0781,38.453194 2211.0687,36.076454 2210.0312,31.1875 2207.4159,18.863686 2202.2992,15.369326 2197.6562,22.75 2193.9268,28.678292 2192.9087,33.136382 2193.0938,42.53125 2193.2543,50.675942 2193.0896,51.422051 2190.875,53.125 2187.5379,55.691088 2183.3217,55.452781 2179.8125,52.5 2177.5788,50.620449 2175.6924,49.989597 2173.625,50.375 z"/>
</svg>
