<svg xmlns="http://www.w3.org/2000/svg"
     width="31.9" height="64.0"
     viewBox="1384.8360 18.0259 41.8202 83.9729">
  <path d="M 1422.625,71.8125 C 1420.8809,74.340475 1417.3936,77.02874 1411.875,79.90625 1404.129,83.945194 1402.1953,81.499525 1401.2812,66.5 1400.6815,56.658971 1402.2657,44.661028 1404.5625,41.5625 1405.9689,39.665234 1406.0315,39.669621 1408.3125,41.8125 1411.4293,44.740611 1412.3063,44.585863 1415.375,40.5625 1417.5595,37.698528 1417.8276,36.707801 1417,34.53125 1415.8639,31.543 1409.8543,25.600193 1405.6875,23.375 1403.1832,22.03762 1402.5739,22.025851 1400.5625,23.34375 1399.3141,24.161764 1397.1444,27.301416 1395.7188,30.3125 1390.5697,41.187453 1388.836,56.881714 1390.9062,73.71875 1392.4452,86.234788 1393.7351,89.999956 1397.8438,93.78125 1402.4263,97.998768 1404.5143,97.70291 1413.9688,91.53125 1417.7777,89.044866 1421.1895,87 1421.5625,87 1421.6319,87 1421.6434,87.204912 1421.6875,87.28125 L 1422,86.65625 1422.25,81.21875 C 1421.341,82.786107 1419.2246,84.613637 1414.9688,87.59375 1405.4137,94.284572 1403.219,94.873502 1399.7812,91.6875 1396.6084,88.746896 1395.2563,84.373774 1393.8438,72.5 1391.9239,56.362839 1393.2233,43.664308 1397.875,32.8125 1401.2712,24.889335 1404.0048,24.561806 1411.25,31.28125 1415.565,35.283104 1415.7506,36.01079 1413,38.5 1411.0504,40.264419 1410.9217,40.255246 1408.6875,38.15625 1405.2449,34.922103 1403.4778,35.457989 1401.7188,40.25 1397.6521,51.329151 1397.0255,73.032823 1400.5625,80.28125 1403.5728,86.45006 1406.5746,86.273749 1418.2188,79.25 1420.5756,77.828392 1421.8321,77.133663 1422.4375,77.1875 L 1422.6562,72.65625 1422.625,71.8125 z"/>
</svg>
