<svg xmlns="http://www.w3.org/2000/svg"
     width="35.4" height="64.0"
     viewBox="1134.7188 20.9410 45.6647 82.4965">
  <path d="M 1138.7188,87.875 1138.8125,90.84375 C 1143.1603,90.383333 1147.8507,88.704155 1151.0938,85.8125 1158.1693,79.50342 1165.0954,64.907063 1162.9375,60.875 1162.2137,59.522459 1161.1605,58.984516 1159.9062,59.3125 1157.5568,59.926864 1157.3642,57.787877 1159.5938,55.9375 1161.7306,54.164009 1168.521,40.492603 1170,35 1171.0329,31.164102 1171.3413,30.844995 1172.25,32.46875 1173.5874,34.858491 1172.5528,52.062414 1170.5312,61.375 1168.6333,70.118186 1162.7106,82.231841 1157.5312,87.90625 1152.6981,93.20136 1147.5956,95.637588 1139.3438,96.5625 1139.1899,96.57974 1139.1474,96.546613 1139,96.5625 L 1139.0938,99.4375 C 1140.3529,99.294529 1141.336,99.303714 1142.9375,99 1150.1827,97.625974 1154.0073,95.617661 1159.1875,90.4375 1163.8578,85.767113 1169.9818,74.732531 1172.4688,66.46875 1174.4104,60.017479 1176.3835,39.005996 1175.5625,33.53125 1174.2751,24.946708 1169.9348,24.941018 1167.4375,33.53125 1164.9436,42.110056 1159.6089,52.135106 1155.5938,55.78125 1150.5405,60.370059 1150.7848,61.394031 1157.0625,62.5 1158.9245,62.828039 1160.6309,63.318367 1160.875,63.5625 1161.1192,63.806633 1160.4585,66.529096 1159.4062,69.625 1158.0842,73.514588 1155.9035,76.920194 1152.3438,80.625 1147.0306,86.154705 1144.2436,87.619922 1138.7188,87.875 z"/>
</svg>
