<svg xmlns="http://www.w3.org/2000/svg"
     width="41.9" height="64.0"
     viewBox="-0.7368 14.5928 57.8995 88.4072">
  <path d="M 41.568589,94.75 C 37.112912,83.836522 35.207384,82.532235 32.731658,88.701336 31.109615,92.743199 26.776452,98 25.066801,98 24.501018,98 23.767953,96.7625 23.437769,95.25 23.107584,93.7375 22.460588,91.375 22,90 21.539412,88.625 20.892416,86.2625 20.562231,84.75 19.516608,79.960238 17.312713,81.654891 11.783858,91.5 9.4578723,95.641831 7.8082269,97.5 6.4571773,97.5 4.7320767,97.5 4.4645144,96.681025 4.2007385,90.593317 3.8157194,81.707427 5.1307435,75.774881 9.5494568,66.46333 L 13.115168,58.949308 9.5587136,51.555134 C 5.4461237,43.004707 3.2631831,31.068175 4.9842383,26.541457 6.3343808,22.990313 7.5280269,23.93379 12.550636,32.522062 14.632149,36.081288 17.155441,39.735685 18.157952,40.642944 19.887516,42.208179 20.112995,41.993359 22.568604,36.44079 29.935802,19.782248 32.688805,18.592835 35.69275,30.770607 36.721664,34.941749 38.050311,38.51677 38.645299,38.7151 39.240288,38.913429 41.595324,35.931007 43.878712,32.087495 48.631298,24.087707 49.484304,23.327121 51.669577,25.140737 52.962994,26.214178 53.162666,28.012457 52.764269,34.999737 52.339433,42.450728 51.739314,44.656665 48.080953,52.214828 44.03656,60.570533 43.929461,61.03953 45.117539,65.191917 45.795484,67.561363 46.672608,69.95 47.066703,70.5 48.569015,72.596627 50.13339,83.270823 49.528144,87.295147 48.707454,92.751976 46.023442,99 44.5,99 43.842062,99 42.522927,97.0875 41.568589,94.75 z M 30.715968,87.32737 C 32.212788,84.270466 34.030791,81.541679 34.755975,81.2634 36.694808,80.519399 40.018201,83.891573 42.23896,88.85622 45.025536,95.085786 46.5,92.954652 46.5,82.697476 46.5,77.145143 45.965854,73.370628 44.844647,71 42.119539,65.238162 40.527282,58.917772 41.612816,58.171399 43.12735,57.130062 46.941628,50.174916 49.071954,44.570033 51.090367,39.259592 51.710152,29 50.012545,29 49.469444,29 47.912678,30.762173 46.553065,32.91594 45.193451,35.069707 43.612806,37.121265 43.04052,37.474957 42.468234,37.828649 41.985029,38.878976 41.966731,39.809017 41.927967,41.779282 38.648986,46 37.157095,46 35.974218,46 35.398004,44.263071 34.503152,38 33.547453,31.311065 31.956478,26.847841 30.679545,27.273485 29.346694,27.717769 22.624775,40.374562 21.641927,44.290539 21.26791,45.780742 20.5999,47 20.15746,47 19.270958,47 10.527442,34.538385 9.4575132,31.75 7.9522782,27.827145 6.7346862,30.137451 7.2591445,35.921269 7.6441505,40.167184 9.0494433,44.368657 12.225924,50.770698 L 16.655782,59.698858 14.327891,62.405193 C 13.047551,63.893677 12,65.707054 12,66.434921 12,67.162787 10.8949,70.175193 9.5442218,73.129157 7.1424332,78.381923 5.316353,93 7.0619696,93 7.4733623,93 8.9594328,91.0875 10.364348,88.75 14.152225,82.447727 19.50171,76.574006 20.750634,77.345884 21.353155,77.718262 22.137433,79.480275 22.493474,81.261468 23.753442,87.564796 26.178021,94.008011 27.080182,93.450445 27.583044,93.139659 29.219149,90.384275 30.715968,87.32737 z M 24.534647,69.625556 C 21.572978,66.663887 20.261485,59.197146 21.975946,55.058071 23.434992,51.535623 24.78461,50.92851 29.466891,51.68834 33.42327,52.330372 38,56.850847 38,60.116563 38,63.972964 34.194398,69.736582 30.886759,70.889631 26.837788,72.30111 27.302724,72.393633 24.534647,69.625556 z M 33.25,65.80232 C 37.222105,61.208551 34.271177,54 28.418545,54 24.20283,54 22.71649,56.809082 23.976398,62.395354 25.518324,69.232052 29.135387,70.560901 33.25,65.80232 z"/>
</svg>
