<svg xmlns="http://www.w3.org/2000/svg"
     width="31.2" height="64.0"
     viewBox="1286.0000 20.2870 37.3653 76.7130">
  <path d="M 1290,80.9375 1290,84.6875 C 1290.0819,84.669577 1290.1687,84.676659 1290.25,84.65625 1292.9389,83.981376 1300.1062,77.103513 1304,71.46875 1310.5671,61.965659 1312.3611,51.126428 1306.875,54.0625 1304.3393,55.419547 1304.5202,53.981342 1307.4062,49.90625 1308.7298,48.037414 1311.0923,44.052817 1312.6562,41.0625 L 1315.5,35.625 1315.8125,42.5625 C 1316.1274,49.712386 1315.4171,53.357714 1311.4375,65.65625 1307.9394,76.466621 1303.1148,83.293787 1295.7812,87.8125 1294.3134,88.716925 1292.2175,89.283553 1290,89.6875 L 1290,93 C 1292.5333,92.574014 1294.9437,92.050844 1296.3125,91.34375 1300.684,89.085579 1306.8773,83.081835 1309.5625,78.5 1315.1559,68.955551 1319.03,53.440408 1319.1875,39.9375 1319.3653,24.6977 1317.9952,24.287024 1311.4062,37.5625 1308.796,42.821443 1304.8753,48.934058 1302.7188,51.15625 1298.4237,55.582079 1298.6417,56.535197 1304.2188,57.71875 L 1307.9062,58.5 1306,62.75 C 1303.7093,67.85579 1298.4316,74.904037 1294.3438,78.34375 1292.762,79.674702 1291.3473,80.450688 1290,80.9375 z"/>
</svg>
