<svg xmlns="http://www.w3.org/2000/svg"
     width="55.2" height="64.0"
     viewBox="366.3090 16.0336 80.5948 93.4453">
  <path d="M 402.27103,94.5 C 404.51996,92.575 406.91035,91 407.583,91 408.25566,91 410.1269,92.646525 411.74132,94.658945 413.62123,97.002314 415.12344,98.041741 415.91934,97.54985 417.5652,96.532652 416.44706,92.137943 413.82844,89.331839 411.71936,87.071755 411.80996,83.921262 414.15984,77.807959 415.28686,74.875969 423.72643,67.7557 425.43985,68.291283 427.4078,68.906431 432.92817,78.097611 433.5611,81.812816 434.70034,88.499976 436.06378,93 436.95065,93 438.32831,93 439.27152,85.296298 438.51309,80.238735 437.47494,73.315875 434.19231,63.404494 432.46201,61.968471 431.22302,60.940197 429.83839,60.940967 425.21519,61.972498 422.07183,62.673844 418.61237,63.866946 417.52749,64.623836 413.86906,67.176229 413.496,66.352205 413.61387,55.979232 413.70814,47.68298 414.05235,45.59254 415.61387,43.832966 417.78807,41.382993 427.40806,35 428.92628,35 430.58114,35 433,40.611352 433,44.45034 433,48.759077 434.00387,48.956332 436.28439,45.095708 438.21899,41.820698 438.63049,32.046606 436.96482,28.934259 435.11937,25.486016 432.35848,26.309144 417.33324,34.787191 412.14398,37.71525 411.24438,37.933755 409.09912,36.787191 407.77451,36.079236 406.10678,34.103316 405.39306,32.396258 402.7811,26.149068 396.06698,24.170902 392.03657,28.461071 390.21252,30.402683 389.70727,32.115068 389.64282,36.573943 389.57001,41.610956 389.87433,42.495153 392.44044,44.702431 394.9419,46.854089 396.10353,47.134555 401.29197,46.839559 L 407.26419,46.5 407.06885,56.479908 C 406.96142,61.968858 406.67923,66.654103 406.44177,66.891564 406.20431,67.129026 403.87027,66.160536 401.25501,64.739366 398.63975,63.318196 394.48309,61.462112 392.01797,60.614734 386.4308,58.694163 384.67847,59.630441 379.63908,67.228814 374.84833,74.452293 372.38383,83.555179 373.6892,89.205276 374.27152,91.72573 374.91144,92.880308 375.23817,92 375.54437,91.175 376.80513,87.662868 378.03985,84.195261 380.87937,76.220703 387.56097,68.834198 391.14771,69.704527 395.61318,70.78808 399.74209,74.794839 401.39642,79.650025 403.6744,86.335542 403.4284,88.30715 400,90.841879 398.075,92.265095 397,93.944978 397,95.529937 397,96.888472 397.26597,98 397.59104,98 397.91611,98 400.0221,96.425 402.27103,94.5 z M 394.66667,102.33333 C 393.33374,101.00041 393.99113,93.252247 395.54668,91.961259 396.39735,91.255262 397.95478,89.467878 399.00762,87.989295 400.63685,85.701254 400.7639,84.728772 399.86084,81.458183 398.60832,76.921928 393.73592,72 390.49784,72 385.81348,72 380.12277,81.221075 377.96453,92.308664 376.9696,97.419938 376.57369,98.08027 374.66692,97.808664 372.88349,97.554626 372.28862,96.438145 371.30559,91.5 370.309,86.493749 370.36687,84.589064 371.65499,80 374.53045,69.755913 383.0445,57 387.00655,57 388.9749,57 400.74137,61.540469 402.4519,62.960081 404.42194,64.595069 405,63.091731 405,56.333333 L 405,50 400.64788,50 C 395.72209,50 390.32675,46.947479 388.22229,42.969985 387.44611,41.50297 387.06829,38.359183 387.29183,35.227873 388.26784,21.556644 401.79479,20.033561 408.42177,32.848724 410.31519,36.510191 410.89558,36.643895 414.11514,34.160312 417.54732,31.512716 428.01541,25.89355 431.31755,24.926231 435.53923,23.689543 438.62341,25.328897 440.01652,29.550047 442.90381,38.298634 438.70693,50.457652 433.02863,49.795061 430.79777,49.534746 430.46313,48.970088 430.18687,45 430.01465,42.525 429.51665,40.137008 429.08022,39.693351 427.95494,38.549446 419.5931,42.820651 418.01697,45.344428 416.46472,47.829988 415.35774,60.489343 416.62537,61.258864 417.10641,61.550888 420.2,60.934413 423.5,59.888919 427.84071,58.513712 430.11097,58.255165 431.70927,58.954014 436.59678,61.091057 441.71357,77.898846 440.63068,88.259362 439.62569,97.874574 434.03952,105.47887 433.96487,97.333333 433.88195,88.284846 428.80606,72.907029 425.48113,71.631132 423.69591,70.946078 418.40995,75.306556 416.46408,79.069456 414.50781,82.852479 414.61928,85.646236 416.85417,88.84563 420.11297,93.510807 420.30108,96.547305 417.52598,99.689686 L 415.04414,102.5 411.17894,98.13086 C 406.76474,93.141136 405.75685,93.260036 400.33533,99.410078 397.19475,102.97269 395.94863,103.61529 394.66667,102.33333 z"/>
</svg>
