<svg xmlns="http://www.w3.org/2000/svg"
     width="48.1" height="64.0"
     viewBox="930.7788 19.0767 64.5024 85.7369">
  <path d="M 991.28125,52.09375 985.25,55.9375 C 978.23065,60.414512 970.80081,63.250635 968.4375,62.34375 967.68317,62.054284 965.98315,59.51057 964.65625,56.71875 961.89764,50.914569 962.33098,47.409849 966.34375,43.0625 972.25625,36.657036 974.9355,26.984552 971,26.25 970.175,26.096015 967.10115,28.041446 964.1875,30.59375 961.27386,33.146053 958.77266,35.078022 958.59375,34.875 957.51569,33.651636 955,27.865317 955,26.59375 955,24.755137 952.06258,23.076729 950,23.75 947.73911,24.488001 942.99911,29.138534 941.40625,32.1875 940.63036,33.672687 940,37.006277 940,39.59375 940,43.781478 940.43938,44.737866 944,48.125 946.2,50.21781 948,52.322991 948,52.8125 948,53.302009 946.75309,55.448728 945.21875,57.59375 937.60191,68.242146 935.00001,74.806798 934.875,83.6875 934.77883,90.519474 936.51515,94.739514 940.71875,97.875 944.65844,100.81363 947.87997,100.49697 955.96875,96.4375 963.40545,92.705278 965.46977,92.648344 968.53125,96.03125 969.51403,97.117209 971.44291,98 972.8125,98 975.52477,98 983.69422,93.268369 984.46875,91.25 985.20723,89.325547 982.22465,89.775348 980.09375,91.90625 977.02111,94.978887 972.74026,95.418986 968.875,93.0625 964.37179,90.317078 962.15007,90.45934 954.65625,94 951.16401,95.65 947.39049,97 946.28125,97 943.49835,97 939.37508,92.625397 938.625,88.875 936.54223,78.461141 939.24368,70.022985 949.03125,56.5 952.76637,51.339386 952.79711,49.165996 949.09375,47.875 945.2721,46.542764 942.56916,41.046169 943.34375,36.125 943.89262,32.637893 948.91308,27 951.46875,27 952.04296,27 953.43853,29.561699 954.5625,32.6875 955.68647,35.8133 957.07185,38.523952 957.65625,38.71875 958.24064,38.913548 961.30293,36.990901 964.4375,34.4375 967.57206,31.884098 970.34331,30.030809 970.625,30.3125 971.47044,31.157944 968.46196,36.211523 964.25,41 962.07298,43.475 959.97548,46.477041 959.59375,47.6875 958.55229,50.989945 960.56466,57.026518 964.15625,61.375 967.26141,65.134527 967.48686,65.227775 972.3125,64.65625 975.04392,64.332754 978.03837,63.37323 978.96875,62.53125 979.89912,61.68927 980.96277,61 981.34375,61 981.72474,61 983.86305,59.788707 986.09375,58.3125 989.46717,56.080076 990.30375,55.869762 991.0625,57.0625 L 991.28125,52.09375 z M 990.8125,62.46875 C 990.63842,62.76345 990.37019,63 989.96875,63 989.39527,63 986.58277,64.712443 983.71875,66.8125 980.85474,68.912556 977.73397,70.908063 976.8125,71.25 974.19902,72.219803 968.6135,70.281564 962.8125,66.375 958.48265,63.459149 957.03532,62.942072 955,63.65625 952.13498,64.661564 948.67733,70.417452 946.875,77.15625 945.78985,81.21358 945.85718,82.137449 947.34375,84.40625 949.25753,87.32705 953.2675,87.863248 956.53125,85.65625 960.40813,83.034649 961.77178,83.115728 965.90625,86.15625 L 970,89.15625 975.25,85.375 C 981.04134,81.180765 982.43128,79.65985 980.96875,79.15625 980.43474,78.972371 978.11922,80.209871 975.8125,81.90625 970.75497,85.625605 969.6123,85.699104 965.5,82.5625 L 962.3125,80.125 957.03125,82.65625 C 952.32788,84.907199 951.59406,85.031556 950.25,83.6875 946.86622,80.303724 951.84432,66.895638 956.75,66.1875 957.96569,66.012015 960.43969,67.001622 962.28125,68.40625 966.39076,71.540723 972.13193,74 975.34375,74 976.67591,74 980.5442,71.975 983.90625,69.5 987.12249,67.132336 989.94733,65.35269 990.6875,65.1875 L 990.8125,62.46875 z M 983.5625,82.25 C 983.03795,81.725445 977,87.445505 977,88.46875 977,88.817153 978.336,88.33949 979.96875,87.375 982.83826,85.67994 984.54857,83.236069 983.5625,82.25 z"/>
</svg>
