<svg xmlns="http://www.w3.org/2000/svg"
     width="35.4" height="64.0"
     viewBox="140.6300 18.0663 48.3504 87.4632">
  <path d="M 147.61923,100.27113 144.73846,99.841918 145.36686,92.670959 C 146.20133,83.148381 146.25547,31.356905 145.43514,27.350671 144.63002,23.418732 146.0999,22.845138 154.5,23.813284 L 160.5,24.504808 160.17136,27.861951 C 159.99061,29.708379 160.21561,31.033568 160.67136,30.806815 165.87915,28.215748 170.14295,26.665552 173.20173,26.251137 180.54779,25.255861 184.98044,33.44461 183.7918,45.814947 183.54322,48.401984 182.70087,51.823984 181.91992,53.419391 178.6789,60.040441 170.42164,62.528854 163.46355,58.981415 161.35863,57.908268 159.47413,57.192537 159.27576,57.390902 159.0774,57.589267 159.0467,61.397902 159.20755,65.854536 L 159.5,73.957506 163.89073,70.478753 C 168.74693,66.631214 171.54242,66.214501 176.5515,68.591465 180.67916,70.550166 182.44355,75.073817 182.36639,83.5 182.25155,96.040602 176.35658,101.52947 166.28503,98.473536 160.29372,96.655634 159,96.641334 159,98.393011 159,100.81867 155.34384,101.42203 147.61923,100.27113 z M 156.13918,94.75 C 156.21573,92.9625 156.37162,81.6 156.4856,69.5 156.59958,57.4 157.03084,42.952527 157.44395,37.394505 L 158.19505,27.289011 154.97253,26.644505 C 147.6181,25.17362 148.23943,22.066273 148.09081,61.060861 148.01732,80.344334 148.21838,96.544334 148.53761,97.060861 148.85685,97.577387 150.66648,98 152.55902,98 155.74593,98 156.01028,97.760036 156.13918,94.75 z M 176.92172,94.853651 C 178.97662,92.647976 180.67871,85.434085 180.19045,81 179.5264,74.969603 177.79096,71.810604 174.35297,70.374121 171.30754,69.10166 170.53216,69.128168 167.40602,70.611623 162.89819,72.750727 158.99176,77.872473 159.02931,81.594391 L 159.05863,84.5 161.94562,81.327889 C 170.54771,71.876277 177.70533,74.096249 175.5567,85.549432 174.33901,92.040285 168.25025,93.81813 162.43328,89.381311 L 159,86.762622 159,89.206997 C 159,95.587242 172.32648,99.786059 176.92172,94.853651 z M 178.31155,55.041593 C 181.40519,51.365012 182.45078,44.413106 181.02244,37.017508 179.50221,29.146143 177.9009,27.995215 170.5,29.454606 164.50689,30.636393 160,33.695477 160,36.581559 160,39.535888 161.86124,39.683591 165.27287,37 168.72355,34.285693 173.45883,34.38929 175.4433,37.222506 177.21839,39.756812 177.50185,46.193775 175.96482,49.065741 174.54528,51.718176 167.54859,51.681274 163.5,49 159.43569,46.308314 159,46.451231 159,50.47611 159,53.474337 159.51554,54.224382 162.75,55.931914 164.87117,57.051717 168.52458,57.930805 171.16111,57.955804 175.12583,57.993397 176.19413,57.558007 178.31155,55.041593 z M 174.29105,46.913241 C 175.60842,44.807692 174.33697,38.343283 172.46412,37.624604 170.67576,36.938345 166.16017,38.54507 163.75183,40.724591 161.104,43.12084 161.63747,45.454171 165.25,47.277477 169.14318,49.242432 172.92919,49.089905 174.29105,46.913241 z M 173.0314,85.924192 C 174.44571,82.509736 173.66254,78.468219 171.4198,77.607597 169.72152,76.955909 165.58428,79.720807 163.2316,83.079728 162.07337,84.733338 162.05525,85.361643 163.12849,86.65482 166.40396,90.601515 171.24184,90.244581 173.0314,85.924192 z"/>
</svg>
