<svg xmlns="http://www.w3.org/2000/svg"
     width="46.0" height="64.0"
     viewBox="2224.6006 15.0236 61.8988 86.0529">
  <path d="M 2243,93.147883 C 2243,91.579219 2244.1154,88.766719 2245.4786,86.897883 2249.8845,80.857917 2250.3633,79.376966 2249.3979,74.777653 2248.615,71.04802 2248.1267,70.457432 2245.5858,70.167732 2242.1809,69.779522 2240.9874,71.314611 2239.4963,78 2238.1258,84.144953 2235.1316,84.692482 2232.7252,79.238211 2228.6006,69.889507 2229.6696,63.534435 2235.9968,59.789299 2238.1241,58.530184 2242.1607,56.15 2244.9672,54.5 2250.0114,51.534376 2250.0666,51.448435 2249.7849,47 L 2249.5,42.5 2245,42.428867 C 2237.6362,42.312466 2237.1172,42.12736 2235.5257,39.04966 2233.4715,35.077288 2233.6055,31.69355 2236.0033,26.993598 2240.0693,19.023566 2245.8531,19.192089 2254.8736,27.543418 2258.1151,30.544538 2261.0399,33 2261.3731,33 2261.7062,33 2264.4923,30.72375 2267.5644,27.941667 2270.6365,25.159584 2273.6788,23.056739 2274.325,23.268678 2276.1072,23.853158 2276.3042,29.513415 2274.6528,32.686322 2273.8473,34.233845 2271.9887,36.85 2270.5225,38.5 2261.0573,49.152053 2260.8684,51.221056 2269,55.172973 2272.025,56.643108 2276.3,59.405285 2278.5,61.311143 2282.4576,64.739636 2282.4994,64.849022 2282.44,71.63817 2282.3722,79.392236 2281.4439,84 2279.9496,84 2279.3928,84 2278.6882,83.2125 2278.3838,82.25 2276.3589,75.846517 2274.5658,73.163356 2271.2569,71.58545 2267.9942,70.029582 2267.5511,70.020015 2266.094,71.473971 2265.2173,72.348715 2264.0001,74.512421 2263.3892,76.282207 2262.4459,79.014613 2262.5777,79.926642 2264.2631,82.328355 2266.7749,85.907846 2267.3066,95.022712 2265,94.959697 2264.175,94.937159 2261.942,93.587007 2260.0378,91.959359 2255.4984,88.079335 2252.9025,88.208049 2249.1341,92.5 2245.3322,96.830123 2243,97.076453 2243,93.147883 z M 2249.5,89 C 2251.695,86.574547 2255.0441,86.452576 2259.6346,88.630909 2264.1823,90.788944 2264.9524,89.708716 2262.2337,84.984869 2259.3144,79.912471 2259.4108,78.320652 2262.978,72.695781 2266.9206,66.478858 2270.1329,66.623065 2277.75,73.358932 L 2280,75.348628 2279.9863,71.924314 C 2279.9788,70.040941 2279.7245,67.6 2279.4211,66.5 2278.703,63.896276 2270.2754,58.164095 2264.7974,56.553516 2257.6435,54.450168 2258.1493,49.474029 2266.5202,39.606953 2271.3798,33.878728 2274.6354,27 2272.4868,27 2272.0671,27 2269.7709,28.8 2267.3842,31 2264.9975,33.2 2262.3082,35 2261.4081,35 2260.508,35 2257.1456,32.725077 2253.9361,29.944615 2246.516,23.516511 2242.5102,22.187936 2239.8893,25.285771 2237.273,28.378009 2236.5647,31.669166 2237.6075,35.887212 L 2238.5008,39.5 2244.5004,39.615373 C 2247.8002,39.678828 2251.0625,39.791328 2251.75,39.865373 2252.5836,39.955154 2253,41.848017 2253,45.547749 2253,50.243995 2252.5992,51.466973 2250.3885,53.515748 2248.9522,54.846885 2246.8147,56.237047 2245.6385,56.604996 2243.2211,57.361251 2234.9153,62.810622 2233.7057,64.434001 2232.4116,66.170896 2233.5869,75.015465 2235.3455,76.774073 2236.8452,78.273722 2237.0184,78.157882 2237.5961,75.269448 2238.3313,71.593748 2241.2394,68.698116 2245.6885,67.211976 2249.3379,65.992949 2250.3131,66.720319 2251.4372,71.5 2253.3728,79.730318 2253.2872,80.356325 2249.5907,85.006881 2247.6265,87.478096 2246.015,89.8375 2246.0097,90.25 2245.9919,91.624184 2247.6686,91.02372 2249.5,89 z"/>
</svg>
