<svg xmlns="http://www.w3.org/2000/svg"
     width="63.3" height="64.0"
     viewBox="1984.2587 19.1842 86.6866 87.7018">
  <path d="M 2023.1332,98.050226 C 2021.8349,93.716988 2019.7734,91.958711 2010.157,86.982684 L 2003.814,83.700488 2001.424,86.600244 C 2000.1095,88.19511 1998.5005,91.3 1997.8485,93.5 1997.1964,95.7 1996.377,97.839186 1996.0277,98.253747 1994.6421,99.898016 1991.7656,96.127673 1990.9095,91.545021 1989.7488,85.332125 1991.2426,79.603589 1995.0042,75.841983 1998.6843,72.161847 2004.4273,72.048821 2013.5358,75.477269 L 2020.1173,77.954537 2019.518,68.227269 C 2018.556,52.61182 2018.0829,50.251933 2015.2361,46.868779 2012.6516,43.797248 2007.562,41 2004.5578,41 2002.3002,41 1999.9448,46.402851 1999.18,53.335674 1998.3615,60.755202 1996.6344,61.39073 1993.2983,55.5 1988.2587,46.601523 1992.4914,30.899989 2001.1346,26.430414 2007.412,23.18421 2011.2205,24.547136 2021.0761,33.566855 2028.5987,40.451399 2029.6883,40.379579 2040.2289,32.304477 2047.0267,27.096683 2052.4524,24.645733 2055.4934,25.40898 2056.7085,25.713958 2059.0017,27.837933 2060.5893,30.128926 2065.7125,37.521585 2064.9853,54 2059.536,54 2057.5804,54 2056.8944,52.623066 2055.6097,46.1185 2054.6074,41.043915 2054.2317,40.46917 2051.7288,40.181533 2050.1532,40.000463 2047.4714,40.7816 2045.5128,41.992112 2041.4808,44.484014 2041.3306,45.131145 2040.5727,63.274727 L 2040.0391,76.049455 2042.2695,74.899764 C 2043.4963,74.267434 2045.4873,72.851505 2046.6941,71.753256 2051.0302,67.806996 2060.0373,72.061576 2063.7036,79.787884 2066.9453,86.619228 2064.7216,102.05734 2060.6863,100.73563 2060.0338,100.52193 2058.4697,97.481126 2057.2104,93.978288 2054.3887,86.12936 2053.4827,85 2050.0082,85 2046.4093,85 2037.7557,91.887796 2035.5713,96.490912 2034.1601,99.464919 2032,101.26083 2032,99.460162 2032,97.285353 2036.7008,90.559629 2040.2583,87.644523 2049.5101,80.063425 2054.0355,80.590761 2058.5799,89.779481 2060.2738,93.20459 2061.9613,95.705387 2062.3299,95.336809 2063.3327,94.334007 2063.1277,88.000105 2061.956,83.781055 2059.6087,75.329123 2051.4197,70.474782 2046.6941,74.733975 2045.4873,75.821621 2043.0419,77.545838 2041.2598,78.565568 2036.6372,81.210651 2035.4639,79.726818 2036.8965,73.04723 2037.5034,70.21711 2038,63.228002 2038,57.515879 2038,51.803755 2038.4188,46.028797 2038.9306,44.682639 2040.2551,41.19871 2045.4781,37.813154 2050.3807,37.260561 2055.4587,36.688194 2056.5654,37.758332 2058.2561,44.87591 2058.9256,47.69416 2059.7773,50 2060.1488,50 2061.5239,50 2062.1015,42.09078 2061.0198,38.073458 2060.4049,35.789975 2058.6181,32.484895 2057.049,30.728836 L 2054.1962,27.536002 2050.7137,29.196719 C 2048.7983,30.110113 2043.737,33.364513 2039.4664,36.428718 2035.1958,39.492923 2030.7436,42 2029.5726,42 2027.3173,42 2024.8642,40.40076 2015.3849,32.750629 2008.3981,27.111965 2004.8024,26.612479 2000.0408,30.619116 1996.4316,33.656076 1994.5295,37.049071 1993.6224,42.068594 1992.9582,45.743826 1993.756,52 1994.8889,52 1995.2402,52 1996.7121,49.320352 1998.1596,46.045227 2000.1555,41.529328 2001.4173,39.933368 2003.3816,39.440351 2007.1035,38.50622 2014.7265,41.866262 2017.742,45.770049 2019.9915,48.682167 2020.3551,50.384252 2021.0644,61.320296 2021.5025,68.074406 2022.42,74.827591 2023.1033,76.327374 2024.0385,78.379964 2024.0618,79.338178 2023.1975,80.202473 2021.9723,81.427659 2021.0658,81.215883 2009.5598,77.016684 2002.4537,74.423237 1997.7486,74.927818 1995.3838,78.536939 1993.4668,81.46273 1992.5713,87.155657 1993.4668,90.723756 1994.0946,93.225091 1994.2145,93.147409 1997.1868,88.314177 2002.1168,80.297464 2002.8896,80.130494 2012.3719,85.033461 2016.8424,87.344955 2021.4402,90.093592 2022.5894,91.141543 2024.7792,93.138424 2027.2842,99.731119 2026.398,101.165 2025.3344,102.88603 2024.2809,101.88099 2023.1332,98.050226 z"/>
</svg>
