<svg xmlns="http://www.w3.org/2000/svg"
     width="59.7" height="64.0"
     viewBox="2294.3715 16.1256 83.6285 89.6947">
  <path d="M 2372.625,53.1875 C 2371.8954,54.036171 2370.8878,54.895244 2369.0312,56.28125 2366.2947,58.324245 2362.0359,60.969767 2359.5938,62.15625 L 2355.1562,64.3125 2350.0625,61.03125 C 2345.0348,57.805007 2344.1563,57.700655 2338.25,59.53125 2336.0323,60.218598 2336.0089,60.114272 2336.0312,51.375 L 2336.0312,42.5 2341.5625,36.53125 C 2347.389,30.218478 2348.6148,27.56848 2347.5938,23.5 2346.7468,20.125583 2344.5377,20.348581 2341.7812,24.09375 2339.5098,27.180096 2332.4055,32 2330.125,32 2329.4653,32 2326.9679,29.975 2324.5625,27.5 2321.0435,23.879199 2319.4981,23 2316.7188,23 2309.5136,23 2304.7784,30.70914 2306.9688,38.84375 2308.3186,43.856739 2312.0757,46.597909 2318.9688,47.59375 2325.2226,48.497233 2326,49.400532 2326,55.65625 L 2326,61.0625 2323.1875,59.59375 C 2321.6349,58.790891 2319.7773,57.423765 2319.0625,56.5625 2317.5335,54.720177 2310.907,54.466837 2307.6875,56.125 2301.2804,59.424836 2298.3715,65.245329 2299.4688,72.5625 2299.926,75.611148 2300.7855,77.341212 2302.25,78.125 2304.0758,79.102142 2304.7334,78.866813 2306.9375,76.375 2308.3481,74.780327 2310.175,72.477606 2311,71.25 2311.825,70.022395 2313.9198,68.74142 2315.6562,68.40625 2318.3348,67.889238 2319.0737,68.211526 2320.5938,70.53125 2322.3785,73.255181 2322.3782,73.262715 2319.2812,75.875 2317.5716,77.317203 2314.6807,79.392569 2312.8438,80.5 2308.8855,82.886138 2308.177,86.12106 2310.4375,91.53125 2311.2936,93.580097 2312,96.542168 2312,98.125 2312,101.78936 2313.8308,101.82026 2317.2812,98.21875 2319.2805,96.13188 2319.9177,94.51804 2319.8125,91.71875 2319.7122,89.052339 2320.33,87.277644 2322,85.5 2325.2644,82.02519 2326.5208,82.331663 2329.5312,87.46875 2334.719,96.32096 2340.768,99.092548 2346,95 2349.1819,92.511103 2351.1414,92.514044 2355.2188,95 2358.9384,97.267858 2362.0578,97.567198 2363.8125,95.8125 2365.8298,93.795233 2365.1552,93.012701 2361.9375,93.65625 2359.6845,94.106846 2358.0934,93.695793 2355.9688,92.125 2352.2389,89.367436 2350.7985,89.433664 2345.4062,92.59375 2341.2755,95.014542 2340.811,95.088625 2338.625,93.65625 2337.3314,92.808673 2334.4927,89.509875 2332.3125,86.3125 2330.1203,83.097377 2327.4644,80.38111 2326.375,80.21875 2325.1915,80.042357 2322.9096,81.341907 2320.6875,83.5 2317.5148,86.581265 2317,87.743322 2317,91.5625 2317,97.034901 2315.8519,97.233342 2313.5625,92.15625 2310.938,86.336285 2311.7265,84.063497 2317.8125,80.03125 2324.5402,75.573937 2325.5137,73.900021 2323.5938,70.1875 2322.7846,68.622678 2321.4099,66.760521 2320.5312,66.03125 2317.8767,63.828242 2312.0892,66.335181 2308,71.46875 2306.075,73.885408 2304.05,75.738292 2303.5,75.59375 2301.8295,75.154745 2301.764,66.363416 2303.4062,63.1875 2304.9019,60.295377 2310.2582,57 2313.4688,57 2314.3864,57 2317.1018,58.35 2319.5,60 2323.9559,63.065746 2327.39,63.815414 2328.5312,61.96875 2329.3429,60.655335 2329.3214,49.525451 2328.5,46.9375 2327.9851,45.31505 2326.9333,45 2322.375,45 2316.5315,45 2311.6423,43.119791 2310.625,40.46875 2309.6247,37.862062 2309.912,32.051239 2311.1562,29.6875 2313.8626,24.545728 2318.2418,24.657914 2323.125,30 2328.5629,35.949026 2333.132,35.505855 2341,28.28125 2343.7013,25.800837 2345,25.41502 2345,27.0625 2345,29.450131 2341.8988,33.748843 2337.5625,37.34375 L 2332.9375,41.15625 2333.2188,51.34375 2333.5,61.5 2339.2812,61.25 C 2343.8631,61.042688 2346.0381,61.50743 2349.7812,63.5 2352.3758,64.881204 2355.287,66 2356.2812,66 2358.6678,66 2363.6404,63.403283 2368.1875,59.75 2370.639,57.780356 2372.2494,57.240122 2373.1562,57.875 L 2372.6562,53.34375 2372.625,53.1875 z M 2373.5312,61.09375 C 2372.5511,62.411557 2369.9573,64.258883 2365.4062,66.9375 2355.932,72.51375 2354.3755,72.856997 2350.875,70.15625 2349.5633,69.144277 2347.1116,67.830763 2345.4062,67.25 2336.8111,64.322804 2330.1698,78.294837 2336.9375,85.0625 2340.5188,88.643787 2343.5697,88.786389 2347,85.5 L 2349.5938,83 2353.7188,86 C 2358.1456,89.255559 2361.0148,89.112955 2364.0312,85.4375 2365.3517,83.828521 2365.3103,83.711903 2363.5,84.21875 2362.4,84.526728 2360.7956,85.050075 2359.9375,85.40625 2359.0295,85.78316 2356.8297,85.006165 2354.6562,83.53125 2350.1545,80.476307 2349.5359,80.439883 2346.2812,83 2344.8828,84.1 2343.0325,85 2342.1875,85 2336.8815,85 2334.9382,75.29125 2339.4062,71.09375 2342.0612,68.599555 2344.4665,68.828044 2349.0625,72.0625 2353.5813,75.242614 2356.0997,75.233754 2361.5,72.03125 2367.8883,68.242794 2373.1132,65.769472 2373.625,66.28125 2373.6728,66.329022 2373.8542,67.820078 2373.9375,68.1875 L 2374,65.34375 2373.5312,61.09375 z"/>
</svg>
