<svg xmlns="http://www.w3.org/2000/svg"
     width="64.0" height="61.7"
     viewBox="33.9452 21.3929 88.4388 85.2934">
  <path d="M 59.375995,99.25 C 59.011834,97.7375 57.653261,94.37746 56.356943,91.783244 53.267495,85.600585 53.383078,83.151713 57,78.158697 58.65,75.880939 60,73.092967 60,71.963204 60,69.621136 55.800958,65 53.672815,65 51.915361,65 44.733695,72.680509 42.559138,76.885641 40.570326,80.731577 39.235309,80.86117 38.805641,77.25 37.945173,70.018145 42.816359,57.612281 48,53.833943 50.424766,52.066539 50.695608,52.071483 57,53.998211 65.41036,56.56856 66.667627,56.519029 67.226527,53.595334 67.838383,50.394612 66.859397,48.867565 62.065915,45.545679 57.454081,42.349676 55.98894,37.855128 57.986711,33.032083 60.776447,26.297064 68.961126,25.392936 75.462891,31.101562 77.278518,32.695703 79.154623,33.991811 79.632015,33.981803 80.109407,33.971794 82.480216,32.621794 84.900481,30.981803 90.245641,27.359877 90.791369,27.320568 91.589356,30.5 92.630466,34.648114 91.210587,37.788309 85.470794,44.031769 81.424521,48.433102 80,50.750679 80,52.932295 80,56.833173 80.820212,57.172538 85.964581,55.400159 90.217722,53.934833 90.344711,53.956072 93.097202,56.593125 95.417947,58.81654 96.511385,59.178698 99.459294,58.700319 101.41713,58.382605 104.32387,57.193506 105.91872,56.057877 107.51356,54.922248 109.46584,54.241528 110.2571,54.545165 112.24826,55.309245 115.42474,59.831374 116.82767,63.899223 118.34449,68.297323 118.38397,79 116.88337,79 116.25925,79 115.99731,78.118295 116.28949,77.000993 116.577,75.901539 116.26699,72.356096 115.60057,69.122231 113.49136,58.887095 109.5256,55.474397 105,60 101.95796,63.042038 95.366257,62.725079 91.862525,59.368291 89.141824,56.761693 89.0767,56.752151 85.03757,58.368291 78.278174,61.072865 77.994067,60.864871 78.046305,53.25 78.091849,46.61089 78.156408,46.450715 81.976074,43.5 86.059087,40.345848 89.90266,34.569327 88.711155,33.377821 88.325531,32.992198 85.731752,33.916677 82.947201,35.43222 L 77.884381,38.187752 74.394053,34.593876 C 71.691676,31.811327 70.109616,31 67.386121,31 61.780827,31 60,32.464387 60,37.07366 60,40.75005 60.367508,41.298372 64.500546,43.788476 69.587772,46.853467 70.520379,49.044195 69.535063,55.614751 68.755039,60.816326 69.710251,60.704582 57.142563,57.064459 51.627642,55.467109 49.447731,55.213453 48.437857,56.051574 44.532651,59.292607 39.289252,73 41.954687,73 42.529609,73 43.007624,72.6625 43.016943,72.25 43.026262,71.8375 45.038976,69.3625 47.489641,66.75 52.685016,61.211539 55.449683,60.73899 59.190722,64.75 63.65736,69.53897 64.130967,71.27063 62.019417,75.092617 56.061286,85.877064 56.333552,84.679054 58.787709,89.312609 60.007524,91.615674 61.004305,94.0625 61.002778,94.75 61.00125,95.4375 61.45,96 62,96 63.311733,96 63.284827,91.400722 61.958597,88.922638 60.556662,86.303098 63.066027,81.066633 67.181288,78.024089 L 70.286473,75.728326 72.175019,78.114163 C 76.194194,83.191667 77.243179,86.199953 76.639878,90.918521 L 76.054104,95.5 78.466429,92.559609 C 82.050899,88.190486 82.413556,85.405215 79.922726,81.374968 77.369388,77.243581 77.753488,73.934859 81.469839,68.047778 84.80062,62.77148 87.74747,62.076782 92.654373,65.411109 97.331585,68.589356 97.535362,68.591774 101.56678,65.516861 L 104.82234,63.033722 107.0117,66.744396 C 108.21584,68.785267 109.65539,72.94018 110.2107,75.977535 110.76601,79.014891 111.56386,83.075 111.9837,85 L 112.74704,88.5 113.97135,85.25 C 115.45969,81.299095 117.29442,80.919173 116.38596,84.75 114.84788,91.235854 111.05321,98 108.95273,98 108.54722,98 108.45565,93.293559 108.74923,87.541243 109.26659,77.404299 108.02389,68.750835 105.85862,67.41262 105.38175,67.117898 103.17056,67.900234 100.94487,69.151144 97.65913,70.99783 96.578641,71.199858 95.199075,70.225482 89.745128,66.373403 87.92177,65.821238 85.62496,67.326166 84.402505,68.127149 82.878868,70.488046 82.239099,72.572603 81.217314,75.901882 81.337826,76.828772 83.230262,80.195906 L 85.38464,84.029105 83.094564,89.264553 C 81.835022,92.144049 80.322977,95.9625 79.734463,97.75 78.584517,101.24274 76.097106,102.02686 74.037953,99.545731 73.214455,98.553476 73.032732,96.091339 73.465949,91.795731 74.037601,86.127451 73.863005,85.209618 71.714087,82.586353 L 69.327294,79.672706 67.058419,81.941581 C 64.992288,84.007712 64.851605,84.789972 65.484058,90.695736 66.113819,96.576354 65.967524,97.405667 63.914972,99.590508 61.006616,102.68631 60.18857,102.62494 59.375995,99.25 z"/>
</svg>
