<svg xmlns="http://www.w3.org/2000/svg"
     width="40.5" height="64.0"
     viewBox="726.5912 26.6453 50.3043 79.4102">
  <path d="M 738.90625,35.09375 739.15625,38.09375 C 739.36338,37.990562 739.46977,37.953159 739.6875,37.84375 745.02819,35.160051 746.35375,34.83183 748.4375,35.78125 751.89079,37.354673 753.86755,40.819804 754.625,46.5625 754.98301,49.276772 756.85273,54.65 758.78125,58.5 760.70977,62.35 762.64376,67.012919 763.0625,68.84375 764.09011,73.336669 761.80994,79.742781 757.4375,84.625 753.03761,89.537855 751.22676,95.013584 752.84375,98.5625 754.43524,102.05543 756,100.72192 756,95.875 756,92.572486 757.07859,88.910652 758.5625,87.15625 758.71977,86.970319 760.19022,87.80874 761.84375,89.03125 763.79215,90.471762 765.50659,91.020114 766.6875,90.5625 768.41695,89.892328 768.39821,89.792253 766.5,88.46875 761.26489,84.818635 761.23698,84.750544 764,80.21875 765.75572,77.339082 766.28068,77.07545 768.125,78.0625 771.28876,79.755691 772.67444,77.675869 769.6875,75.71875 768.35767,74.847412 767.02683,73.178091 766.71875,72 766.27372,70.2982 766.73727,69.623079 769.0625,68.8125 772.6138,67.574509 772.89549,66 769.5625,66 768.22678,66 766.42596,65.30096 765.5625,64.4375 763.57225,62.447245 762.33536,57.731962 763.6875,57.28125 764.24637,57.094959 765.55412,56.291446 766.59375,55.53125 769.2021,53.623973 767.60688,52.416698 764.40625,53.875 760.72346,55.552992 759.39356,54.076744 758.125,46.875 757.54062,43.557434 756.10722,39.29889 754.9375,37.40625 751.30854,31.534467 747.65238,30.645277 741.15625,34.03125 740.28947,34.483039 739.65395,34.740197 738.90625,35.09375 z M 739.46875,41.625 739.75,44.875 C 740.57562,44.558149 741.6495,44.078997 742.09375,44.0625 743.95036,43.993556 746,47.979367 746,51.65625 746,54.045208 745.76076,54.174221 742.5,53.5625 738.49296,52.810775 737.95407,54.007845 741.25,56.34375 L 743.5,57.9375 741.125,59.96875 C 739.82656,61.083788 737.91406,62 736.875,62 734.34049,62 734.47648,63.63624 737.0625,64.3125 738.77258,64.759694 739.07332,65.518472 738.8125,68.6875 738.54712,71.912019 737.98861,72.732116 735.25,73.9375 730.59124,75.988024 731.18584,77.345348 736.40625,76.5625 740.34546,75.971779 740.92299,76.146065 741.53125,78.0625 742.04134,79.669675 741.41159,81.014845 739.09375,83.40625 734.9212,87.711225 735.0888,89.807911 739.34375,86.5625 741.18317,85.15951 743.18273,84 743.78125,84 745.73061,84 746.07141,87.572221 744.53125,91.9375 743.70203,94.287768 743.25877,96.602314 743.5625,97.09375 744.45883,98.544046 744.84471,98.194714 746.96875,94.03125 749.85816,88.367524 749.53477,84.709682 745.4375,77.71875 741.14775,70.399401 741.31546,67.457616 746.5625,58.84375 750.3929,52.555535 750.48686,51.978442 748.71875,47 746.82837,41.677303 746.14346,40.986607 742.6875,41.03125 741.73396,41.043567 740.64272,41.28564 739.46875,41.625 z"/>
</svg>
