<svg xmlns="http://www.w3.org/2000/svg"
     width="48.5" height="64.0"
     viewBox="1650.5000 21.7845 64.5182 85.2050">
  <path d="M 1660.2812,85.25 1658.9375,88.34375 C 1660.1208,88.888269 1661.4938,89 1663.8438,89 1667.8199,89 1669.3883,88.512367 1671.0312,86.75 1674.0014,83.563932 1680,71.457064 1680,68.65625 1680,67.363985 1680.5108,64.855575 1681.125,63.09375 1682.0533,60.430776 1681.8745,58.769169 1680.0312,53.3125 1677.0052,44.353966 1677.7748,37.430476 1682.4062,32.375 1686.5219,27.882494 1689.5531,28.077057 1692.4375,33 1695.1569,37.641507 1695.3317,51.810922 1692.7188,56.6875 1691.7757,58.447687 1691,60.135187 1691,60.4375 1691,61.800966 1696.1116,60.773962 1700.5938,58.5 1706.3622,55.573481 1707,55.488612 1707,57.5625 1707,59.65594 1697.1207,64.083601 1690.6875,64.875 L 1685.5938,65.5 1684.4688,71.09375 C 1683.8524,74.172231 1682.5663,78.616081 1681.625,80.96875 1679.9611,85.127111 1680.1198,87.328237 1681.9375,85.4375 1683.1129,84.214899 1687,72.213908 1687,69.8125 1687,68.786074 1687.5625,67.782242 1688.25,67.59375 1688.9375,67.405258 1691.975,66.692898 1695,66 1706.1779,63.439625 1711.0182,59.296916 1708.7188,54.25 1707.4648,51.497857 1705.8714,51.389506 1703.5938,53.90625 1701.7822,55.90795 1696.2569,58.600648 1695.5,57.84375 1695.2576,57.601293 1695.5011,55.720737 1696.0625,53.6875 1696.9156,50.597952 1697.9096,49.627881 1702.0312,47.75 1704.7438,46.514162 1706.9575,45.1625 1706.9688,44.75 1707.0035,43.46802 1703.476,43.926946 1701.4375,45.46875 1698.5605,47.644818 1698,47.344044 1698,43.65625 1698,40.646339 1698.3953,40.189674 1702,39 1704.2,38.273935 1706,37.305718 1706,36.84375 1706,35.724166 1704.7044,35.784773 1701.3438,37.0625 1699.0476,37.935508 1698.3363,37.817757 1697.2812,36.375 1695.1996,33.528277 1695.7994,31.140048 1699.0312,29.46875 1702.8009,27.519372 1702.059,25.784543 1698.0938,27.28125 1695.8996,28.109466 1694.2074,28.069804 1691.25,27.09375 1687.8599,25.97494 1686.8771,26.014305 1684.125,27.4375 1681.962,28.556028 1679.8256,28.879657 1677.4688,28.4375 1673.5123,27.695259 1673.078,28.42701 1676.0625,30.84375 1677.8047,32.254477 1677.9715,32.941002 1677.0938,35.25 1676.2759,37.400751 1675.4075,38 1673.0312,38 1669.3571,38 1669.1133,39.269418 1672.5,40.8125 1674.4929,41.72054 1675,42.691967 1675,45.5625 1675,49.043252 1674.8999,49.136926 1672,48.5 1667.7812,47.573395 1668.1799,49.57425 1672.5,51 1676.057,52.17391 1678,54.48827 1678,57.5625 1678,58.978245 1677.3439,59.159703 1674,58.625 1668.9872,57.823418 1668.6575,59.53401 1673.4375,61.53125 1675.3249,62.319852 1677.1158,63.342697 1677.4062,63.8125 1678.0514,64.856481 1675.5018,73.817718 1672.75,80.1875 1670.5016,85.392353 1667.0229,87.533436 1662.6562,86.4375 1661.8805,86.242799 1661.107,85.852871 1660.2812,85.25 z M 1655.6562,95.84375 1654.5,98.4375 C 1658.4217,101.36868 1662.4628,102.94227 1666.7188,102.96875 1670.062,102.98955 1671.1847,102.53819 1672.125,100.78125 1672.777,99.563003 1674.5914,97.200501 1676.1562,95.53125 1679.098,92.39323 1679.6744,91 1678.0625,91 1677.5496,91 1676.8451,91.881605 1676.5,92.96875 1675.6421,95.671783 1669.0128,100.9957 1666.5312,100.96875 1663.5788,100.93668 1659.3777,98.744882 1655.6562,95.84375 z"/>
</svg>
