<svg xmlns="http://www.w3.org/2000/svg"
     width="44.0" height="64.0"
     viewBox="2391.3526 20.7500 58.6474 85.2883">
  <path d="M 2446,81.375 C 2443.0457,86.038845 2439.3809,91.566081 2436.8438,94.875 2435.8381,96.186672 2435,97.649172 2435,98.125 2435,100.33373 2436.9973,98.420318 2441.6562,91.71875 2443.3096,89.340559 2444.4863,87.324919 2446,85 L 2446,81.375 z M 2424.0938,24.75 2419.8125,27.28125 C 2417.4475,28.672243 2414.3959,30.978911 2413.0625,32.40625 2411.7291,33.833589 2410.0717,35 2409.375,35 2407.7558,35 2406.6963,36.69957 2407.5,38 2408.3301,39.34314 2411.3953,37.670058 2416.9062,32.84375 2419.3211,30.728852 2422.03,29 2422.9375,29 2423.8449,29 2427.4787,31.468015 2431.0312,34.46875 2437.3296,39.788681 2438.9904,40.665856 2440.2812,39.375 2440.9445,38.711721 2433.0187,31.160975 2427.4062,27.125 L 2424.0938,24.75 z M 2423.6562,36 C 2422.8726,36 2419.6562,38.017909 2416.5,40.46875 2413.3438,42.919591 2410.2475,45.088639 2409.625,45.3125 2409.0025,45.536361 2408.8471,46.098823 2409.2812,46.5625 2410.0619,47.396112 2417,44.250394 2417,43.0625 2417,42.724181 2418.5432,41.613912 2420.4375,40.59375 L 2423.875,38.75 2431.125,43.375 C 2439.2592,48.579214 2438.6811,48.336955 2439.4688,47.0625 2440.1326,45.988534 2425.856,36 2423.6562,36 z M 2417.75,47 C 2416.5125,47.002732 2414.15,48.150275 2412.5,49.5625 2409.4927,52.136461 2410.4601,52.471893 2415.25,50.5 2416.8615,49.836578 2417,50.763036 2417,62.21875 2417,69.060927 2417.2733,74.960786 2417.625,75.3125 2419.4167,77.104252 2420,73.633125 2420,60.9375 2420,47.145379 2419.976,46.995086 2417.75,47 z M 2431.4688,47.75 C 2430.661,47.526671 2430.0556,47.538203 2429.7812,47.8125 2429.2799,48.313795 2428.7604,53.265893 2428.5938,58.84375 2428.3535,66.881543 2428.546,69 2429.625,69 2430.6728,69 2431,66.926318 2431,60 2431,55.05 2431.2175,51 2431.5,51 2431.7824,51 2432.9212,51.545023 2434,52.21875 2435.4141,53.10187 2436.2465,53.159829 2437.0312,52.375 2437.8161,51.590171 2437.0813,50.672131 2434.4062,49.09375 2433.2895,48.434874 2432.2765,47.973329 2431.4688,47.75 z M 2428.875,81.03125 C 2427.5299,81.046709 2415.9698,97.723677 2416.0312,99.5625 2416.0795,101.00405 2423.5071,91.551451 2428.4688,83.75 2429.825,81.617499 2429.9335,81.019084 2428.875,81.03125 z M 2398.8211,97.389031 C 2403.422,91.222058 2405.9399,88.606606 2406.6208,89.287458 2407.0109,89.677572 2405.5422,92.106207 2403.3569,94.684426 2398.9338,99.90288 2395.3526,102.03832 2398.8211,97.389031 z"/>
</svg>
