<svg xmlns="http://www.w3.org/2000/svg"
     width="64.0" height="54.9"
     viewBox="507.0000 17.2330 88.8434 76.2365">
  <path d="M 584,86.907729 C 584,86.30698 584.87718,84.700309 585.94928,83.337349 590.05372,78.119406 589.30363,63.789663 584.64242,58.370675 L 582.44122,55.811632 577.70981,58.110331 C 573.36519,60.22111 572.59096,60.305722 568.2392,59.145332 561.07032,57.233764 554.87653,53.805436 553.88626,51.20084 552.19692,46.757537 552.82945,41.135064 555.25603,39.02518 559.05363,35.723211 568.54949,30.349831 569.83179,30.777263 571.53974,31.346579 574,36.43098 574,39.391323 574,42.645515 575.61922,43.580011 576.94983,41.09375 579.24298,36.808955 577.78454,29.056823 574.18606,26.403296 572.50109,25.160794 567.73318,26.717159 557.30609,31.913353 553.89944,33.611009 550.43447,35 549.60617,35 548.77786,35 545.49012,33.426157 542.30008,31.502571 534.60674,26.863513 531.66576,26.904146 529.1497,31.684259 525.34444,38.913664 529.38495,42.611287 544.25,45.503121 546.59551,45.959415 547,46.530274 547,49.384193 547,52.85458 544.24413,57.263796 540.98478,59.008143 539.60132,59.74855 536.82873,59.234434 530.16483,57.001822 525.23692,55.35082 520.49424,54 519.62555,54 514.71834,54 512.50635,67.896336 515.89038,77.465341 518.39278,84.541334 518.51746,86.135798 516.50809,85.364732 514.76036,84.694062 511,73.232569 511,68.576166 511,64.229179 513.8201,54.920626 515.81596,52.679717 517.66751,50.600829 520.18268,50.843982 531.26984,54.173715 539.19762,56.55461 542.69522,56.062503 543.60487,52.4382 543.9543,51.045963 544.00484,49.671506 543.71718,49.383851 543.42953,49.096196 540.56299,48.182918 537.34709,47.354344 530.12663,45.493996 527.49069,43.84956 525.47215,39.946145 524.14706,37.383704 524.09784,36.334139 525.15604,33.205563 528.22881,24.120931 532.57179,23.007498 542.98845,28.633773 L 549.71613,32.267546 561.05521,27.063083 C 573.75734,21.233003 575.35144,21.247797 578.99856,27.229608 581.45092,31.251833 581.69179,39.567312 579.44872,42.769757 575.58573,48.284937 571,47.573679 571,41.459343 571,34.298461 569.33001,33.550213 562.40524,37.608402 557.11589,40.708167 555.80904,42.795214 556.61962,46.848095 557.44491,50.974554 560.45231,53.416385 567.3039,55.523109 573.04067,57.287046 573.15214,57.282774 576.94006,55.153845 579.0478,53.96923 581.6929,53 582.81806,53 586.1825,53 589.04728,58.289405 590.45939,67.10867 591.8434,75.752344 591.37026,79.871743 588.41983,84.866435 586.62302,87.90819 584,89.119629 584,86.907729 z M 535.55233,88.084672 C 535.24119,87.581242 536.11464,85.828782 537.49331,84.190316 540.52366,80.588957 540.52779,80.485676 537.9206,73.517329 536.22027,68.972801 535.13374,67.598713 531.96044,65.979817 524.13112,61.985598 521.5749,64.450738 522.17581,75.415827 522.61275,83.389036 520.42802,84.273881 519.45876,76.516263 518.64031,69.965556 520.65583,63.510378 524.35619,60.83113 526.56625,59.230939 526.91388,59.304713 532.80356,62.623828 538.7558,65.978198 539.00879,66.288628 540.97301,72.648033 543.63469,81.265563 543.54506,82.608785 540.07692,86.076923 536.90452,89.249325 536.40823,89.469549 535.55233,88.084672 z M 580.47293,81.956195 C 580.11812,81.382102 580.34835,80.285195 580.98454,79.518623 582.61198,77.55768 581.20289,69.202894 578.84747,66.847473 577.0003,65.000303 576.88255,65.007879 573.03667,67.221282 569.47737,69.269758 568.80294,69.355343 565.80563,68.138903 559.2056,65.460329 558.43713,65.559034 556.65518,69.314217 555.74483,71.23264 555,73.91665 555,75.278684 555,76.640719 554.325,78.315311 553.5,79 552.21631,80.06537 552,79.750829 552,76.818789 552,72.584031 556.51453,63.256694 558.80853,62.751891 559.73884,62.547172 562.36452,63.260606 564.64337,64.337298 L 568.78674,66.294921 572.42426,64.046807 C 576.57227,61.483197 580.31911,61.859237 582.00444,65.008289 583.93738,68.620023 585.12574,77.539067 584.05075,80.366505 583.00807,83.108978 581.57807,83.744351 580.47293,81.956195 z"/>
</svg>
