<svg xmlns="http://www.w3.org/2000/svg"
     width="57.2" height="64.0"
     viewBox="1427.8535 14.4059 77.4519 86.6321">
  <path d="M 1452,94.467881 C 1452,90.74576 1454.2324,86.069257 1458.355,81.155386 1462.5013,76.213308 1462.6164,75.364846 1460.3597,66.380974 L 1458.7194,59.850916 1453.6097,60.529915 C 1450.5843,60.931944 1447.5748,62.06015 1446.2319,63.295742 1443.3638,65.934656 1441,73.789703 1441,80.681501 1441,83.606676 1440.5604,86 1440.0231,86 1438.1285,86 1435.8257,81.029896 1434.7145,74.542497 1431.8535,57.840206 1440.6124,49.03016 1460.5,48.606511 1464.9693,48.511305 1465.5357,48.247282 1465.8367,46.119008 1466.0219,44.809462 1465.889,42.221962 1465.5414,40.369008 1464.9859,37.407823 1464.5357,37 1461.8227,37 1457.8234,37 1452.1571,33.474201 1451.4169,30.525107 1450.6659,27.532723 1453.1427,22.796749 1456.3589,21.075492 1460.0128,19.120025 1466.621,20.262711 1469.9163,23.41981 1471.3975,24.838914 1473.2487,26 1474.03,26 1475.3955,26 1487.2227,21.81797 1491.6308,19.776443 1494.5902,18.40589 1497.9357,19.700704 1499.0573,22.650669 1501.3054,28.563713 1499.4765,38.703058 1495.5787,41.935698 1494.0744,43.183295 1493.7285,43.183295 1492.9391,41.935698 1492.4394,41.146064 1492.0237,39.332244 1492.0153,37.904988 1491.9912,33.817279 1488.8879,31.674196 1484.1515,32.474399 1478.3478,33.454931 1476.954,35.569224 1476.2856,44.406105 1475.9698,48.582747 1475.9904,52 1476.3315,52 1476.6726,52 1478.425,51.101682 1480.2258,50.003738 1482.0266,48.905794 1484.7222,48.005794 1486.2161,48.003738 1490.2218,47.998225 1495.6423,50.919617 1496.9495,53.788485 1499.2888,58.922672 1500.6692,68.444312 1499.8819,74.01478 1498.7304,82.161558 1496.679,89.059119 1495.521,88.677813 1494.9595,88.492905 1494.2422,84.777253 1493.9271,80.420809 1493.3201,72.028512 1491.2731,65.984042 1487.778,62.263647 1484.7666,59.058217 1483.5521,59.396956 1479.6275,64.536837 1475.2556,70.262553 1474.1906,75.774598 1476.5114,80.665287 1478.8054,85.499494 1479.6981,95.450537 1477.9355,96.539883 1477.1296,97.03795 1476.4495,96.848531 1476.184,96.052051 1475.7374,94.712116 1475.165,94.160025 1468.7241,88.856504 L 1464.9483,85.74739 1459.322,91.373695 C 1456.2275,94.468163 1453.3141,97 1452.8478,97 1452.3815,97 1452,95.860547 1452,94.467881 z M 1476.1643,88.412749 C 1475.9797,86.810737 1474.9947,83.592442 1473.9754,81.260982 1471.4788,75.550284 1472.3271,71.182602 1477.4035,63.610489 1481.9488,56.830565 1484.2448,55.831541 1488.1756,58.92346 1491.267,61.355167 1495.9853,70.661862 1496.2839,74.916969 1496.6007,79.430283 1497.8362,78.674859 1498.1925,73.75 1498.5287,69.102833 1496.6376,58.859783 1494.7627,55.172571 1493.37,52.43375 1491.7536,51.488673 1487,50.633868 1484.1597,50.123108 1482.9524,50.475248 1480.5945,52.502243 1477.4519,55.203784 1474.4815,55.746567 1473.7661,53.75 1473.5198,53.0625 1473.6836,48.475476 1474.1303,43.556614 1475.101,32.866049 1476.2969,31.225915 1483.7662,30.34128 1488.6839,29.758851 1489.0964,29.896439 1492.4315,33.231536 1494.3575,35.157525 1496.1733,36.493333 1496.4667,36.2 1497.6761,34.99052 1496.9151,25.323789 1495.4452,23.22518 1493.9845,21.139725 1493.7151,21.095988 1490.9948,22.502674 1489.4023,23.326203 1487.4865,24 1486.7375,24 1485.9885,24 1483.5129,24.9 1481.2361,26 1475.0724,28.977988 1470.4101,28.650487 1467,25 1465.2528,23.129572 1463.202,22 1461.5533,22 1458.6806,22 1454,25.975562 1454,28.41559 1454,30.619292 1458.0207,34 1460.6415,34 1461.8869,34 1464.0521,34.522232 1465.4529,35.160515 1468.1132,36.372589 1468.4391,37.941024 1468.0173,47.5 1467.7885,52.683493 1467.0151,53.353103 1463.3618,51.530585 1460.7335,50.219426 1459.5146,50.206011 1453.6924,51.42417 1444.5863,53.32943 1440.5409,56.016717 1438.4204,61.569289 1437.0182,65.240875 1436.9237,66.537179 1437.9019,68.684007 L 1439.098,71.309134 1441.0831,67.29683 C 1444.2896,60.815923 1446.6817,59.190759 1454.1394,58.426703 L 1460.7618,57.748215 1461.8323,61.124107 C 1462.421,62.980848 1463.3923,67.300694 1463.9906,70.723766 1465.2337,77.835445 1464.3757,80.411097 1459.0893,85.437091 1454.8537,89.464004 1455.2053,90.612088 1459.7321,87.536051 1464.7282,84.141111 1467.0754,84.337615 1471.1096,88.488585 1475.0456,92.538573 1476.6371,92.514697 1476.1643,88.412749 z"/>
</svg>
