<svg xmlns="http://www.w3.org/2000/svg"
     width="64.0" height="62.7"
     viewBox="1508.3755 13.1788 89.7083 87.8212">
  <path d="M 1532.25,96.284111 C 1529.5072,95.294988 1532.417,86.643495 1536.8369,82.646308 1540.3085,79.506762 1540.3782,76.029382 1537.1154,68.75723 1534.1741,62.20166 1531.9284,60 1528.1831,60 1526.3004,60 1523.563,64.606419 1520.0317,73.716844 1519.3459,75.486109 1518.1896,77.427664 1517.4622,78.031411 1513.593,81.242503 1512.3755,64.813116 1515.8978,56.922215 1520.3464,46.956144 1524.2189,44.740007 1532.3569,47.502936 1534.9328,48.377493 1537.4813,48.820548 1538.0202,48.487503 1538.5591,48.154458 1539,46.341104 1539,44.457829 1539,41.371113 1538.5257,40.793364 1534.1872,38.594854 1528.3652,35.644608 1527.0643,34.187532 1526.3702,29.83923 1525.9751,27.363833 1526.4492,25.594577 1528.203,23 1531.4948,18.129991 1533.9004,18.100302 1538.8631,22.868438 1545.2578,29.012481 1547.8745,29.122021 1555.9784,23.584906 1559.9638,20.861774 1563.3704,19.20492 1564.2723,19.551016 1566.2354,20.304314 1567.0995,23.61023 1566.0514,26.357322 1565.1953,28.601069 1556.6901,36.193909 1553.8536,37.246658 1551.9518,37.952512 1550.2094,47.609445 1551.7127,49.112697 1552.2808,49.680756 1554.1582,49.503191 1556.5694,48.653368 1561.2224,47.01339 1563.9755,47.787417 1566.3434,51.40131 1567.2799,52.83059 1568.7099,54 1569.5212,54 1571.8995,54 1576.8085,45.084917 1577.4895,39.529064 1577.8285,36.763079 1578.356,33.202398 1578.6617,31.61644 1579.3624,27.981846 1589.5788,17.178812 1590.9853,18.585296 1592.5406,20.140576 1594.0838,30.019251 1593.3838,33.93873 1592.7113,37.704088 1580.9591,61.275553 1578.2714,64.25 1575.848,66.931832 1570.0402,66.44036 1563.5,63 1560.3633,61.35 1557.1456,60 1556.3496,60 1554.3911,60 1551.0491,67.636404 1551.022,72.173275 1551.0066,74.743479 1551.8258,76.827863 1553.75,79.114368 1556.1789,82.000653 1556.5089,83.235537 1556.5758,89.691093 1556.6207,94.02075 1556.2377,97 1555.6362,97 1555.0778,97 1552.4949,94.69959 1549.8965,91.887979 1547.2981,89.076367 1544.5709,86.970533 1543.8361,87.208348 1543.1012,87.446164 1541.6,89.028183 1540.5,90.723947 1538.2511,94.190883 1534.136,96.964258 1532.25,96.284111 z M 1539.5551,88.389871 C 1544.4712,83.331607 1543.5067,83.295194 1550.8978,88.818094 1553.9802,91.121378 1554,91.12277 1554,89.035976 1554,86.13938 1551.6511,80.783051 1549.6549,79.127555 1547.1046,77.012536 1547.5717,69.903164 1550.75,62.461284 1552.2625,58.919777 1553.95,56.019387 1554.5,56.015973 1555.05,56.012558 1558.5648,57.582567 1562.3107,59.504882 1566.0782,61.438273 1570.6116,63 1572.4565,63 1576.35,63 1578.2574,60.399643 1587.0507,43.103203 1592.2809,32.815418 1592.3235,32.658432 1591.1125,28.130925 1590.4395,25.614409 1589.6738,23.340468 1589.4111,23.077721 1589.1483,22.814975 1587.3677,24.165589 1585.4542,26.079087 1582.3753,29.157998 1581.813,30.559664 1580.5657,38.264999 1579.7022,43.59938 1578.3513,48.102239 1577.0781,49.890282 1575.9352,51.495434 1575,53.285942 1575,53.869187 1575,55.186498 1571.7319,57 1569.3579,57 1568.3824,57 1565.9343,55.388808 1563.9176,53.419573 L 1560.2509,49.839145 1555.1587,52.419573 C 1552.358,53.838808 1549.6015,55 1549.0332,55 1547.7025,55 1547.6645,42.012723 1548.985,38.539474 1549.5267,37.114575 1550.7642,35.654902 1551.735,35.295756 1554.2628,34.360562 1562.3435,28.12162 1563.3536,26.325292 1565.1098,23.202211 1562.2607,22.561787 1558.2904,25.187163 1550.1368,30.578716 1548.3434,31.170319 1544.7298,29.660482 1542.9168,28.902958 1539.8856,26.869453 1537.9939,25.141583 1533.8304,21.33882 1532.5468,21.235864 1530.3874,24.531475 1529.1132,26.47615 1528.9412,27.809011 1529.6452,30.281475 1530.5092,33.315637 1532.0064,34.437474 1539.8396,37.920073 1540.613,38.263898 1541.3037,40.492638 1541.4737,43.19248 1541.711,46.963758 1541.3386,48.272745 1539.55,49.95299 1537.4601,51.916378 1537.1222,51.94902 1533.6981,50.518343 1528.5209,48.355132 1525.2764,48.632697 1522.4264,51.482643 1517.6575,56.251641 1514.0816,68.696332 1516.9677,70.480066 1517.5,70.809021 1519.5307,67.910579 1521.4803,64.039083 1524.5746,57.894746 1525.3731,57.000475 1527.7626,57.003738 1531.9484,57.009454 1536.9308,60.573313 1538.6227,64.771897 1539.4489,66.822353 1540.8111,70.00064 1541.6496,71.834755 1543.5822,76.061731 1542.784,79.33539 1538.5626,84.495433 1535.4373,88.315568 1533.183,93 1534.4699,93 1534.8025,93 1537.0908,90.925442 1539.5551,88.389871 z"/>
</svg>
