<svg xmlns="http://www.w3.org/2000/svg"
     width="41.5" height="64.0"
     viewBox="1712.8281 19.7479 46.2121 71.2521">
  <path d="M 1728.6303,84.75 C 1728.2986,83.5125 1728.0212,80.625826 1728.0137,78.335169 1728.0011,74.49937 1727.605,73.880371 1723,70.5 1717.7639,66.656321 1716.8281,64.12757 1719.392,60.75 1721.0675,58.54288 1723.0328,58.537935 1726.8544,60.731223 1728.5135,61.683396 1730.0231,62.245896 1730.2092,61.981223 1730.3952,61.716551 1730.3884,58.263333 1730.1939,54.307406 L 1729.8404,47.114812 1726.6702,46.784699 1723.5,46.454586 1727.4035,44.714166 C 1729.5505,43.756936 1731.491,43.157658 1731.7158,43.382439 1731.9406,43.60722 1732.3636,48.563127 1732.6558,54.395566 1733.1488,64.234234 1733.054,64.997441 1731.3436,64.964565 1730.3296,64.945075 1728.375,64.286021 1727,63.5 1723.7105,61.619565 1721.3533,61.636868 1720.6204,63.546829 1720.2075,64.622789 1721.3731,65.916525 1724.4493,67.796829 1729.8072,71.071795 1730.6795,72.696105 1731.4057,80.75 1731.8472,85.645584 1731.6729,87 1730.6013,87 1729.8489,87 1728.9619,85.9875 1728.6303,84.75 z M 1743.892,32.893809 C 1735.5232,26.610018 1735.6242,26.63531 1730.2676,29.483156 1727.6454,30.877233 1724.7341,32.560411 1723.798,33.223551 1722.8618,33.886691 1721.7544,34.087763 1721.337,33.670377 1720.3229,32.656227 1725.397,28.663436 1731.1542,25.945261 L 1735.8084,23.74786 1743.4042,28.998828 C 1747.5819,31.88686 1751,34.617034 1751,35.065881 1751,37.253781 1748.8057,36.583228 1743.892,32.893809 z M 1741.2334,38.316999 1734.9668,34.872222 1729.4724,38.015784 C 1722.4782,42.017473 1720.1109,41.395827 1726.2525,37.170257 1733.3864,32.262029 1734.7781,31.989213 1740.1013,34.455499 1746.7327,37.527867 1750.1577,39.935745 1749.4728,41.043932 1748.6699,42.343204 1748.388,42.249935 1741.2334,38.316999 z M 1742.6667,85.333333 C 1742.3,84.966667 1742,81.585818 1742,77.820337 L 1742,70.974006 1746.5,68.787737 C 1750.6965,66.748908 1751.8737,65.207001 1750.3766,63.709913 1750.0337,63.367032 1748.2215,64.254784 1746.3494,65.682695 1744.4773,67.110607 1742.7938,68.103646 1742.6083,67.889449 1742.4228,67.675252 1741.9699,62.266449 1741.6019,55.869886 1741.021,45.773482 1741.1419,44.159513 1742.5188,43.631165 1744.1447,43.007228 1749,45.572865 1749,47.055993 1749,48.689319 1747.2018,48.948071 1745.9909,47.48899 1743.519,44.510567 1742.8789,46.000536 1743.5161,53.25 1744.4003,63.309937 1744.3756,63.265326 1747.9254,61.228058 1750.729,59.618967 1751.0434,59.614841 1752.5953,61.166777 1755.0402,63.611594 1753.6974,67.214368 1749.2775,70.069267 1745.5894,72.451413 1745.493,72.668789 1745.2043,79.254577 1744.9291,85.531763 1744.3213,86.987923 1742.6667,85.333333 z"/>
</svg>
