<svg xmlns="http://www.w3.org/2000/svg"
     width="48.0" height="64.0"
     viewBox="444.0000 26.8759 53.7972 71.6786">
  <path d="M 459.68582,93.352491 C 459.3596,93.026265 460.42183,90.126332 462.04634,86.908194 465.3921,80.280289 465.88732,74.059424 463.52019,68.394085 462.26105,65.380523 461.70187,64.958481 459.77019,65.563764 458.52159,65.955011 456.42681,67.113219 455.11514,68.137561 451.96176,70.600169 448,70.614217 448,68.162792 448,67.152327 449.8,63.811913 452,60.739648 456.34965,54.665435 457.01391,50.861368 454.55519,46.106721 453.76054,44.570043 452.81145,41.059372 452.4461,38.305229 451.66212,32.395304 453.37411,30.875935 457.16901,34.113694 462.4866,38.650584 466,42.218317 466,43.081244 466,45.278474 468.00869,43.660893 470.44713,39.5 473.39815,34.464465 474.64785,33.94975 475.90999,37.25 476.38326,38.4875 477.76925,40.399896 478.98997,41.499769 L 481.20946,43.499538 486.60473,37.703143 C 489.57213,34.515126 492.05182,32.26523 492.11515,32.703374 492.67178,36.554018 490.14749,45.764779 487.41468,49.854748 L 485.17312,53.209497 488.44038,57.489833 C 492.0869,62.267038 493.79722,69.334486 491.86902,71.657822 490.86603,72.866353 490.08854,72.515883 486.9296,69.431253 483.0243,65.617837 481.03087,65.577045 480.95611,69.309017 480.88511,72.852733 478.53401,78.495958 474.00721,85.988071 469.99767,92.62409 467.98818,94.554575 468.0095,91.75 468.01473,91.0625 469.83246,87.641361 472.04891,84.14747 477.55591,75.46655 478.97798,69.387631 478.44176,56.819989 478.20176,51.194777 477.7487,45.783579 477.43497,44.795104 476.93089,43.206909 473.10851,40.307824 472.654,41.16898 472.55791,41.351041 471.01935,43.388724 469.23498,45.697163 463.48017,53.142174 462.51199,58.929885 465.83869,66 468.97592,72.667437 468.70339,79.66363 465.02238,86.955669 462.00567,92.931726 460.75919,94.425859 459.68582,93.352491 z M 456.98507,64.25 C 460.87772,62.103083 461.97767,60.951743 462.00077,59 462.01705,57.625 462.63359,54.482129 463.37088,52.015842 464.59524,47.920239 464.53983,47.269952 462.73138,44.511138 460.50084,41.108404 456.15377,37.5129 455.30115,38.365518 454.99201,38.674654 455.49969,41.081377 456.42932,43.713792 460.6686,55.7181 460.69189,55.255479 455.59169,60.355682 451.55116,64.396213 449.94749,67 451.49948,67 451.77419,67 454.24271,65.7625 456.98507,64.25 z M 486.25385,48.735333 C 487.06997,47.489766 488.06619,44.97514 488.46765,43.147275 489.13162,40.124247 489.0305,39.914444 487.3488,40.825886 483.89636,42.697022 479.72032,47.82879 480.33872,49.440302 481.21923,51.734889 484.54844,51.338112 486.25385,48.735333 z M 487.52586,60.445022 C 486.08066,58.55026 484.28362,57 483.53244,57 480.67317,57 481.39059,59.657289 485.36986,63.805754 489.06769,67.660812 489.5342,67.890571 489.82676,66.000776 490.00647,64.839874 488.97107,62.339785 487.52586,60.445022 z"/>
</svg>
