<svg xmlns="http://www.w3.org/2000/svg"
     width="20.2" height="64.0"
     viewBox="1301.3120 12.9184 28.6880 91.0816">
  <path d="M 1326,63.21875 1326,62.65625 1325.8438,59.1875 C 1325.2206,58.578089 1325,57.909986 1325,56.78125 1325,55.411067 1325.1474,54.761814 1325.5938,54.5 L 1325.3438,49.59375 C 1324.1607,48.343641 1323.9925,46.822942 1324,44.125 1324.0114,40.031119 1322.104,28.946902 1320.1875,22.09375 1319.8156,20.763693 1318.9986,19.488247 1318.375,19.28125 1311.2558,16.918373 1305.312,62.196337 1309.4688,87.15625 1310.4168,92.848849 1311.6544,98.0625 1312.2188,98.75 1312.783,99.4375 1314.1244,100 1315.1875,100 1318.6487,100 1322.1086,90.342059 1323.7812,76.0625 1324.5916,69.145903 1325.4053,63.336993 1325.5938,63.125 1325.6039,63.113626 1325.9718,63.224007 1326,63.21875 z M 1316.9688,25 C 1317.395,25 1318.5682,28.2625 1319.5938,32.25 1322.3195,42.848397 1322.1975,78.314834 1319.4062,88.5 1318.0589,93.416518 1316.9823,95.580353 1315.75,95.8125 1313.7944,96.180875 1313.5745,95.754746 1312.0312,88.09375 1310.1867,78.936436 1309.7359,66.004371 1310.8438,54.5 1311.9695,42.810669 1315.6743,25 1316.9688,25 z"/>
</svg>
