<svg xmlns="http://www.w3.org/2000/svg"
     width="38.5" height="64.0"
     viewBox="1934.1250 21.0000 51.3082 85.2420">
  <path d="M 1938.125,88.46875 1938.2188,91.5625 C 1939.6545,91.414053 1941.4886,91.29401 1943.4688,91.28125 1952.4655,91.223273 1954.8851,89.930482 1957.9375,83.625 1959.9184,79.533052 1960.0987,77.74504 1959.9375,62.5 1959.7923,48.770621 1959.4789,45.752827 1958.25,45.28125 1956.0118,44.422378 1951.5672,46.309699 1951.1875,48.28125 1950.8999,49.774695 1951.2244,49.857686 1953.5625,48.96875 1955.0545,48.401506 1956.5304,48.18665 1956.8438,48.5 1957.1571,48.81335 1957.7159,54.281004 1958.0625,60.625 1959.1489,80.509819 1956.7926,87.314262 1948.4688,88.5625 1946.0124,88.93084 1942.4358,88.925645 1940.5,88.5625 1939.598,88.393293 1938.8618,88.435585 1938.125,88.46875 z M 1938.3438,96.09375 1938.4688,100 C 1939.8563,99.524993 1941.2904,99.700853 1944.5938,100.46875 1952.2223,102.24204 1954.6057,101.45268 1960.7812,95.09375 1969.5354,86.079715 1972.0762,77.834321 1972.1562,58.40625 1972.1994,47.952367 1972.8665,46.272723 1975.7812,49.1875 1976.4322,49.838334 1977.2971,50.018883 1977.7188,49.59375 1978.5607,48.74484 1973.1932,44.007968 1971.375,44 1969.5601,43.992046 1968.9734,47.948774 1969.625,56 1970.2712,63.984483 1968.9169,75.543783 1966.4375,83.125 1964.7393,88.317288 1956.0255,97.458166 1951.75,98.53125 1950.3059,98.893706 1946.7344,98.394547 1943.5,97.375 1940.6687,96.482497 1939.2668,96.049002 1938.3438,96.09375 z M 1963.4688,25 C 1962.5436,25 1958.8098,26.443657 1955.1562,28.21875 1949.7854,30.828087 1948.9659,31.524103 1950.875,31.8125 1952.1738,32.008692 1955.404,31.035522 1958.0625,29.65625 L 1962.875,27.15625 1969.1875,31.03125 C 1974.8045,34.484882 1979,35.945672 1979,34.46875 1979,33.457159 1965.1261,25 1963.4688,25 z M 1963.375,34.21875 C 1962.725,34.169541 1962.092,34.206279 1961.4375,34.3125 1957.7348,34.913367 1949,39.676352 1949,41.09375 1949,42.670899 1951.6206,42.063813 1955.125,39.6875 1960.9857,35.713321 1961.7906,35.704191 1968.4688,39.375 1971.8873,41.254119 1975.5476,42.988523 1976.5938,43.21875 1981.4332,44.283621 1979.2472,41.871119 1971.375,37.46875 1967.4891,35.295653 1965.3251,34.366378 1963.375,34.21875 z"/>
</svg>
