<svg xmlns="http://www.w3.org/2000/svg"
     width="64.0" height="58.1"
     viewBox="774.7232 16.0861 99.7251 90.5630">
  <path d="M 818.46329,99.959435 C 816.78609,98.106152 816.72947,97.372418 817.84639,91.964855 819.22106,85.309319 818.85137,84.098325 814.04968,79.52806 810.46605,76.117148 809.39865,76.426602 804.6929,82.240711 801.88977,85.70407 801.83252,85.991839 802.9293,91.105962 804.00772,96.134452 803.94249,96.512057 801.58873,98.865818 799.50943,100.94512 798.86604,101.13371 797.55729,100.04754 796.70078,99.336705 796,97.970897 796,97.012414 796,96.053931 795.1746,94.196531 794.16578,92.884859 791.78752,89.792637 789,84.077779 789,82.294185 789,81.524988 792.15,77.567605 796,73.5 802.82849,66.285554 803.74262,64.658039 802.23469,62.399704 800.07164,59.160238 792.20394,57.844419 790.10674,60.371388 789.48076,61.125652 788.28156,64.056263 787.44185,66.883857 786.10469,71.386575 785.68665,71.90267 784.07521,71.040249 778.72321,68.175949 780.41359,57.195551 787.06859,51.595736 789.98436,49.142279 790.98712,48.856808 794.95457,49.350714 797.45456,49.661937 800.7375,50.212804 802.25,50.574864 804.93498,51.217589 804.99897,51.129905 804.95623,46.866577 804.90088,41.34466 802.04731,33.004373 799.72764,31.584707 798.34795,30.740314 797.08554,30.998482 794.02952,32.75 788.62022,35.850273 784.23605,35.751069 783.00016,32.500429 781.70896,29.104302 782.83289,24.187815 785.06221,23.480255 786.06544,23.161844 788.69392,23.823527 790.90329,24.950663 796.15507,27.629919 799.1431,27.535643 805.18693,24.5 807.9245,23.125 810.68985,22.018288 811.33216,22.040641 811.97447,22.062993 814.058,23.412993 815.96223,25.040641 820.41109,28.843337 824.73969,28.974672 828.07569,25.408178 833.01308,20.129631 835.89872,20.086074 838.47543,25.251197 840.4731,29.255637 840.39884,31.285891 838.15322,34.059104 836.33868,36.299971 836.23361,36.310631 832.13299,34.669888 826.64147,32.472618 822.40415,32.50443 821.54267,34.749395 820.43192,37.643967 819.65617,52.002757 820.6126,51.964565 821.10067,51.945075 822.61534,51.311702 823.97854,50.557068 826.80544,48.992168 829.98859,50.119933 833.40735,53.897621 834.59932,55.21473 836.52707,56 838.56848,56 841.21701,56 842.3816,55.245832 844.7898,51.971193 846.41935,49.75535 848.53164,45.165963 849.48378,41.772556 L 851.21495,35.602724 848.38008,30.362091 C 845.75275,25.50512 845.52214,22.968598 847.83803,24.399896 848.37213,24.729988 850.15917,27.392224 851.80923,30.315976 L 854.80935,35.63189 852.02588,43.754126 C 846.60936,59.559681 839.39181,63.96253 831.13168,56.5 826.62216,52.425922 825.43755,52.240319 822.36533,55.126514 820.97344,56.434132 819.45438,57.004603 818.42063,56.607915 816.94538,56.041811 816.80728,54.70975 817.293,45.731402 817.59742,40.104131 818.10507,34.6 818.42109,33.5 818.86262,31.963181 818.03189,30.838321 814.83406,28.642893 810.75692,25.843795 810.60274,25.819014 807.24052,27.422344 804.62823,28.668062 803.97959,29.469802 804.52452,30.779451 806.79297,36.23139 808,42.051074 808,47.536486 808,55.533223 806.78974,56.68321 801.21067,53.987696 796.69726,51.807055 792.86872,51.464706 790.02364,52.98735 787.47036,54.353825 783.99172,60.243419 784.04004,63.118034 784.07805,65.379639 784.16017,65.34841 785.6652,62.5 788.44367,57.241468 790.07466,56 794.20465,56 798.09312,56 803.84499,58.289023 805.23469,60.389532 805.63877,61.00029 805.97627,62.947837 805.98469,64.717416 805.99737,67.38211 804.88336,69.002621 799.5,74.150481 795.49646,77.978885 793,81.180803 793,82.487285 793,84.574614 798.37544,94 799.56587,94 799.90133,94 799.8723,92.203624 799.50136,90.008054 798.7095,85.321096 800.52711,81.783359 806.92512,75.558676 L 810.97619,71.617352 815.45157,76.288117 C 823.01779,84.184654 823.36939,85.017043 821.62288,90.898183 820.05785,96.168205 821.02476,98.752002 823.07479,94.778008 823.72111,93.525104 825.06033,91.6 826.05083,90.5 829.65543,86.496913 829.38496,83.988751 824.54115,76.5 819.40827,68.564325 819.02413,66.265413 822.31445,63.174314 825.29694,60.372411 827.14396,60.434519 832,63.5 834.17814,64.875 837.0942,66 838.48013,66 840.0763,66 841,66.561354 841,67.531385 841,70.278896 838.45565,70.132855 832.59283,67.048829 828.08624,64.678226 826.41603,64.242165 824.91651,65.044682 823.86243,65.608809 823,66.526882 823,67.084844 823,68.682867 826.0532,74.22661 828.64069,77.326725 831.95991,81.303534 831.77497,86.69139 828.1118,92.734977 826.52329,95.35574 824.91797,98.5125 824.54441,99.75 823.69842,102.55258 820.89736,102.64905 818.46329,99.959435 z M 790.55931,30.904039 C 791.53244,29.329474 788.45546,26.611245 786.53442,27.348419 785.24621,27.842752 785.13495,28.38364 785.99206,29.985163 787.16638,32.179398 789.48304,32.645482 790.55931,30.904039 z M 836.65267,30.462755 C 836.97711,29.61727 836.43692,28.035287 835.45225,26.947237 833.6713,24.979314 833.64974,24.980421 831.33097,27.158796 828.4176,29.89576 828.40097,30.745519 831.25,31.294267 835.43377,32.100095 836.06143,32.003493 836.65267,30.462755 z M 849.52161,80.25 C 849.92618,79.2875 850.46462,77.55111 850.71815,76.391354 851.33608,73.564672 848.30274,72.41605 845.9184,74.573851 843.01176,77.204323 841.65817,75.288802 844.04999,71.929794 846.61549,68.326878 848.17088,68.26582 852.53776,71.596601 L 855.94208,74.193202 853.95072,78.096601 C 851.98082,81.957914 847.98766,83.89936 849.52161,80.25 z M 854,84.889887 C 854,84.187658 855.64677,80.23514 857.65949,76.106513 L 861.31898,68.599918 856.15913,64.049959 C 853.32121,61.547482 850.99944,59.094852 850.99964,58.599672 850.99984,58.104491 852.13667,55.376063 853.52594,52.536499 854.91521,49.696935 856.57731,44.54834 857.21949,41.095178 858.25473,35.52847 858.87046,34.420622 862.6508,31.322915 868.20455,26.772035 870.44833,27.926687 865.64751,32.865027 862.93123,35.659112 861.61603,38.350661 859.96217,44.5 858.7788,48.9 857.17821,53.496668 856.40529,54.714817 854.20973,58.175144 854.67352,59.384873 859.5,62.786892 865.11609,66.745477 865.19861,68.426629 860.25,78.067063 856.76057,84.864866 854,87.878444 854,84.889887 z M 854.07258,27.365141 C 852.0696,24.81876 851.25358,21 852.71244,21 853.10427,21 854.36477,22.178746 855.51354,23.619436 L 857.6022,26.238873 861.74991,24.234916 C 865.69139,22.330601 867,22.310463 867,24.154122 867,25.272424 859.39209,30 857.59245,30 856.79644,30 855.2125,28.814314 854.07258,27.365141 z"/>
</svg>
