<svg xmlns="http://www.w3.org/2000/svg"
     width="24.3" height="64.0"
     viewBox="688.6495 17.9743 35.7912 94.0844">
  <path d="M 700.69397,102.97391 C 697.5106,100.46988 696.79875,98.366875 697.83241,94.5201 698.39358,92.431742 698.0875,90.104188 696.80938,86.740456 694.22197,79.930936 692.64955,59.276965 693.35687,41.391234 693.96186,26.093155 694.4365,23 696.17895,23 696.76608,23 696.87288,25.16926 696.45171,28.540172 695.60578,35.310829 695.28643,64.61895 696.05027,65.383259 696.35291,65.686094 697.92791,65.58064 699.55027,65.148917 702.96967,64.238984 703.20875,63.042489 704.52545,40.25 704.95578,32.800805 705.71919,27 706.2692,27 706.89494,27 707.01422,33.625195 706.6002,45.383651 L 705.95289,63.767302 709.72645,65.294872 C 711.8019,66.135035 713.81886,66.521028 714.20859,66.152635 715.18389,65.230704 716.54309,42.538509 716.30308,31.184362 716.15844,24.341654 716.42294,21.974315 717.29947,22.26649 720.44073,23.313577 720.27478,48.091272 716.99651,67.5 714.81096,80.439365 714.05519,85.468721 713.38999,91.5 712.05144,103.63649 707.15822,108.05869 700.69397,102.97391 z M 707.5,75.533298 C 712.03091,75.503124 712.53236,75.270711 712.84497,73.056028 713.30839,69.772895 710.65352,68 705.27369,68 699.19627,68 696.21942,70.134946 696.79821,74.078477 697.20886,76.876424 697.48668,77.082484 699.87481,76.360381 701.31867,75.9238 704.75,75.551613 707.5,75.533298 z M 710.76087,85.25 C 711.36467,82.6375 711.49497,80.126988 711.05043,79.671084 709.64293,78.227614 702.37491,77.728986 700.14416,78.92285 697.71364,80.223623 697.45576,82.363137 699.29112,86 700.43384,88.264346 702.51177,89.129558 708.58152,89.868359 709.17636,89.940761 710.15707,87.8625 710.76087,85.25 z M 708.90217,98.850777 C 709.50598,97.118704 710,95.144779 710,94.464276 710,92.879217 703.89715,91.914787 702.25,93.239548 700.26739,94.834112 700.79509,98.743071 703.22251,100.4433 706.46749,102.71617 707.67247,102.37831 708.90217,98.850777 z"/>
</svg>
