<svg xmlns="http://www.w3.org/2000/svg"
     width="27.0" height="64.0"
     viewBox="2972.7614 16.0319 36.6469 87.0122">
  <path d="M 2999.875,27.65625 C 2998.8293,27.107086 2997.8025,26.058038 2996.5,24.0625 2993.8691,20.031922 2991.9844,20.212052 2988.3125,24.78125 2978.3401,37.190639 2976.7614,51.669571 2983.4375,69.40625 L 2985.8438,75.78125 2983.5,79.1875 C 2981.0095,82.852598 2978,91.904257 2978,95.6875 2978,99.044107 2980.4851,98.566346 2982.8438,94.75 2983.9536,92.95439 2986.3322,90.387983 2988.125,89.0625 L 2991.4062,86.65625 2996.625,92.40625 C 2999.5093,95.580152 3002.3447,97.909602 3002.9062,97.5625 3005.4083,96.016146 3005.2779,89.800655 3002.5625,81.78125 L 2999.8438,73.78125 3001.6562,67.125 C 3003.6112,60.036365 3004.113,45.632364 3002.7188,36.3125 L 3002.0312,31.65625 2999.875,27.65625 z M 2992.1875,26.0625 C 2994.699,25.979881 2997.7878,31.005418 2999.625,38.15625 3001.8866,46.959475 3001.0889,63.125244 2998.0938,69.3125 L 2995.9688,73.6875 2998.4062,79.1875 C 2999.7454,82.215676 3001.3665,86.616327 3002,88.96875 3003.4373,94.306502 3002.0515,96.045213 2999.625,91.9375 2998.6343,90.260431 2996.4418,87.480754 2994.75,85.75 L 2991.6562,82.59375 2986.3438,88.46875 C 2980.9749,94.37654 2979.2565,95.023012 2980.375,90.78125 2980.9229,88.703354 2985.3198,80.84341 2988.125,76.9375 2988.9731,75.756501 2988.7653,74.335245 2987.2188,70.9375 2984.1961,64.296836 2982,54.937479 2982,48.59375 2982,39.092377 2987.8279,26.205918 2992.1875,26.0625 z"/>
</svg>
