<svg xmlns="http://www.w3.org/2000/svg"
     width="49.6" height="64.0"
     viewBox="1403.0000 12.5525 73.6113 95.0581">
  <path d="M 1471.875,50.15625 C 1471.3211,50.479959 1470.911,50.856582 1470.0938,51.125 1468.1143,51.775131 1463.7327,53.591119 1460.3438,55.15625 1450.47,59.716285 1447.1901,58.873548 1436.8125,49.15625 1433.6521,46.197013 1433.1864,45.245638 1433.6875,42.59375 1434.5082,38.25118 1435.8353,36 1437.5312,36 1439.8372,36 1444.1929,28.474086 1444.75,23.53125 1445.3864,17.885131 1444.1581,17.722267 1439.5312,22.84375 1437.6271,24.951495 1434.243,27.488545 1432,28.5 1426.7896,30.849552 1425.2412,29.559111 1424.8125,22.5 1424.5616,18.368652 1424.1372,17.457796 1422.4688,17.21875 1417.8183,16.552458 1407,26.69139 1407,31.71875 1407,34.677671 1410.1094,37 1414.0938,37 1416.8748,37 1418.2947,37.587141 1419.4375,39.21875 1421.8506,42.66389 1421.3483,46.303811 1416.9688,56.59375 1409.9969,72.974406 1409.1168,89.677424 1414.9062,95.875 1418.0966,99.290238 1424.0037,100.85306 1427.3125,99.125 1428.5079,98.500693 1431.4323,96.419799 1433.8125,94.5 1439.4161,89.980406 1442.319,89.961205 1445.25,94.46875 1450.17,102.03518 1462.6206,103.6106 1469.0312,97.46875 1470.6618,95.906612 1472,93.9846 1472,93.1875 1472,92.238082 1471.0515,92.664657 1469.25,94.46875 1464.4879,99.237652 1459.8537,100.11104 1453.25,97.46875 1450.7939,96.486008 1448.7641,94.731265 1447.5625,92.5 1444.3279,86.493809 1440.358,86.625987 1431.875,93 1425.772,97.585739 1423.3354,97.909927 1418.5625,94.78125 1410.5312,89.516549 1411.1863,73.015078 1420.125,54.375 1424.0788,46.130045 1424.2034,45.574721 1423.0312,41.625 1421.3478,35.951974 1420.3247,35 1416.0625,35 1414.035,35 1411.5052,34.348617 1410.4375,33.5625 1408.5296,32.157648 1408.5237,32.090817 1410.375,28.625 1412.1354,25.329246 1418.676,20 1420.9688,20 1421.5306,20 1422,22.025 1422,24.5 1422,28.79589 1424.4097,33 1426.875,33 1428.3392,33 1434.275,30.11009 1438.1875,27.5 L 1441.875,25.0625 1440.875,27.96875 C 1440.3152,29.574761 1437.916,32.477749 1435.5625,34.40625 1432.0017,37.324092 1431.1729,38.667508 1430.6562,42.4375 1430.0477,46.877576 1430.1377,47.051588 1435.0938,51.6875 1445.9516,61.843732 1451.099,63.096192 1460.7188,57.875 1466.4978,54.738363 1469.9481,53.369863 1471.3125,53.71875 L 1471.875,50.15625 z M 1470.5625,58.46875 C 1469.6548,59.476497 1468.3395,60.187578 1466.75,60.53125 1464.9579,60.918721 1461.3755,62.317766 1458.7812,63.625 1451.4889,67.299642 1444.1569,66.415091 1437.3125,61.03125 1433.5555,58.075974 1432.3442,58.467513 1429,63.75 1423.9467,71.732424 1421.0206,85.426957 1423.7812,88.1875 1425.3734,89.779757 1430.4421,88.18611 1433.625,85.09375 1435.2145,83.549449 1438.0437,81.504236 1439.9375,80.53125 L 1443.375,78.75 1446.1562,82.125 C 1454.4109,92.129268 1456.6562,92.434232 1464.75,84.65625 1467.8103,81.715405 1469.839,79.032183 1469.2812,78.6875 1468.7234,78.342817 1466.2457,80.070723 1463.75,82.53125 1458.3929,87.812594 1455.0043,88.348404 1452.2812,84.375 1446.1539,75.434499 1442.9634,74.926517 1434.2188,81.5 1426.0389,87.648982 1424.5706,87.525534 1425.2812,80.75 1426.0438,73.477718 1429.7196,64.02642 1432.1562,63.125 1433.4923,62.630807 1436.2473,63.452807 1440.6875,65.6875 1448.7586,69.749688 1451.5095,69.798628 1459.4688,66 1462.9128,64.356276 1466.8203,62.893776 1468.125,62.75 1468.7529,62.68081 1469.1683,62.715969 1469.5312,62.84375 L 1470,62 1470.5625,58.46875 z M 1471.1875,85 C 1469.737,85 1462.9125,91.568729 1463.625,92.28125 1464.3192,92.975464 1465.4536,92.247478 1469.6875,88.375 1472.0747,86.191577 1472.6113,85 1471.1875,85 z"/>
</svg>
