<svg xmlns="http://www.w3.org/2000/svg"
     width="56.1" height="64.0"
     viewBox="2711.1032 15.0276 79.8656 91.0440">
  <path d="M 2778.875,46.78125 C 2772.6204,57.395627 2770.1523,59.526398 2765.7188,58.0625 2763.9469,57.477453 2761.2707,55.705452 2759.75,54.09375 2757.2551,51.449489 2756.6693,51.249179 2753.75,52.15625 2747.7704,54.01424 2747.5468,53.903944 2747.875,49 2748.2495,43.40554 2748.5195,43 2751.6562,43 2753.0515,43 2755.4963,42.074952 2757.0938,40.9375 2760.8178,38.285746 2761.0808,32.895251 2757.7188,27.90625 2755.6483,24.833791 2746.4987,19.231773 2743.2812,19.0625 2742.6186,19.027641 2741.8316,20.6875 2741.5,22.75 2740.0085,32.026657 2739.2825,32.714195 2735,29 2732.5345,26.86168 2729.4084,26.465178 2727.0312,27.96875 2724.524,29.554561 2728.1842,35.441802 2734,39.21875 2738.6304,42.225877 2739.026,42.788111 2738.7812,46 2738.4947,49.757775 2738.8546,49.656055 2730.9375,48.375 2727.6377,47.841059 2727.0533,48.161732 2722.8438,52.84375 2717.6115,58.663377 2715.1032,65.447545 2716.9375,68.875 2718.6612,72.09572 2720.5443,71.459959 2723.6562,66.5625 2727.1438,61.073742 2728.4788,60.478743 2731.1562,63.15625 2733.8983,65.8983 2733.2037,71.544434 2729.0312,80.46875 2727.3708,84.020205 2726,87.632714 2726,88.5 2726,91.00584 2729.1059,95.063736 2733.375,98.15625 2738.78,102.0716 2741.7936,101.81875 2747.625,97 2750.2873,94.8 2752.7389,93 2753.0625,93 2753.3861,93 2755.4454,94.545106 2757.6562,96.4375 2762.4563,100.5462 2765.576,101.48006 2769.4688,100 2772.9405,98.680069 2777.4487,94.404484 2776.1875,93.625 2775.6932,93.319565 2773.8077,94.174523 2771.9688,95.53125 2767.4778,98.844547 2765.109,98.635687 2759.9062,94.5 2754.5678,90.256298 2752.066,90.121798 2747.7812,93.84375 2740.9438,99.783162 2739.2016,99.71587 2732.25,93.25 2727.3604,88.702089 2727.0403,86.693646 2730.4375,81.6875 2733.1932,77.626742 2734.9918,71.993226 2735,67.375 2735.0061,63.984234 2731.685,59 2729.4375,59 2727.3266,59 2722.5475,62.298512 2722.1875,64 2721.7743,65.952969 2719.2305,68.542943 2718.4688,67.78125 2717.3047,66.617208 2720.5566,59.318061 2724.0938,55.1875 2728.0784,50.534549 2730.2353,50.083862 2735.6562,52.65625 2739.8703,54.655972 2740.7369,53.884762 2741.0312,48 2741.4047,40.532576 2741.2257,40.147609 2736.0625,37.53125 2733.3532,36.158325 2730.8347,34.090288 2730.4688,32.9375 2729.6053,30.216709 2730.6653,29.264982 2732.8125,30.78125 2736.6759,33.509455 2740.2445,35.114068 2741.4375,34.65625 2742.1358,34.388291 2743.0151,31.962991 2743.375,29.25 2743.7349,26.53701 2744.3074,24.005017 2744.6562,23.65625 2745.7776,22.534874 2754.7195,28.120189 2755.875,30.65625 2758.5925,36.620471 2755.8022,41 2749.2812,41 2746.5597,41 2745.9986,41.381664 2745.9688,43.25 2745.9488,44.4875 2745.6638,48.0875 2745.3438,51.25 2744.6858,57.74984 2745.1584,58.084391 2751.3438,55.5 2756.0043,53.552684 2755.5961,53.437639 2759.375,57.5625 2761.7766,60.184046 2763.7321,61.286896 2766.7188,61.6875 2770.4125,62.182944 2771.1075,61.902893 2774.1562,58.65625 2775.7837,56.923145 2778.6312,52.431177 2781,48.15625 L 2778.875,46.78125 z M 2785.5312,51.09375 C 2785.3147,51.503263 2785.1253,51.787335 2784.9062,52.21875 2781.2433,59.433348 2776.4676,64.920171 2772.3125,66.65625 2768.6091,68.203649 2762.407,68.428841 2761.5625,67.0625 2761.2488,66.554815 2759.643,65.860866 2758,65.5 2756.357,65.139135 2754.3531,63.910002 2753.5625,62.78125 2751.7521,60.196479 2749.3314,61.021225 2747.9375,64.6875 2747.3638,66.196445 2745.4012,69.2511 2743.5938,71.46875 2738.9706,77.140809 2738,79.297357 2738,83.875 2738,91.269829 2743.718,92.379178 2749.4062,86.09375 2751.9136,83.323196 2754.1328,83.447986 2757,86.5 2760.2451,89.954255 2764.1097,89.765325 2767.9375,85.9375 2772.8226,81.052424 2771.953,79.174622 2766.8125,83.5 2763.2217,86.521461 2760.908,86.660851 2758.5,84 2755.7772,80.991306 2751.1409,81.42837 2746.6562,85.125 2742.2458,88.760516 2740.6073,88.051256 2740.8125,82.59375 2740.9008,80.243851 2742.4275,76.910205 2745.5625,72.3125 2748.1154,68.568462 2750.3353,65.366422 2750.4688,65.21875 2750.6024,65.071078 2753.9896,66.355921 2758,68.0625 2765.4713,71.241828 2768.8335,71.411321 2774.4688,68.84375 2777.4713,67.475644 2783.2362,60.4119 2784.9688,56 2785.448,54.779487 2786.1877,53.414399 2786.9688,52.03125 L 2785.5312,51.09375 z M 2774.8125,87.46875 C 2773.8491,86.502904 2766.8621,90.96048 2767.5625,92.09375 2767.8734,92.596775 2768.5131,93 2769,93 2770.5116,93 2775.5494,88.20745 2774.8125,87.46875 z"/>
</svg>
