<svg xmlns="http://www.w3.org/2000/svg"
     width="58.2" height="64.0"
     viewBox="2265.1747 19.0000 82.1977 90.3984">
  <path d="M 2293.8185,96.720265 C 2294.0027,95.121703 2293.1944,92.432647 2291.9002,90.338464 2289.7352,86.835543 2289.7231,86.675627 2291.5228,85.359649 2292.5455,84.611842 2293.9189,84 2294.5748,84 2295.2306,84 2297.3946,82.198704 2299.3836,79.997119 2302.5182,76.527567 2303,75.331137 2303,71.017356 2303,68.28007 2302.3641,64.343866 2301.5869,62.270236 2298.134,53.057332 2299.14,46.635102 2304.6679,42.601652 2307.4983,40.536418 2312.6126,40.212786 2314.387,41.986623 2314.9992,42.598552 2315.5335,46.287662 2315.5744,50.184645 2315.6344,55.891963 2316.0119,57.535553 2317.5156,58.635035 2320.8299,61.058568 2321.9984,60.310512 2322.022,55.75 2322.0458,51.141353 2325.2249,43 2327.0008,43 2329.0497,43 2333.871,45.977952 2335.4913,48.244289 L 2337.104,50.5 2338.9148,48.308631 C 2341.7163,44.918445 2342.3008,38.79368 2340.3009,33.78556 2338.5373,29.369381 2335.5157,26.091651 2333.1544,26.033269 2331.3088,25.987639 2326.384,29.610341 2322.4377,33.916525 L 2319.1571,37.496239 2316.7387,35.224238 C 2311.5765,30.374624 2304.3133,30.820446 2300.7863,36.203416 2299.8961,37.56201 2298.3784,42.34703 2297.4136,46.836793 2296.4488,51.326557 2295.3065,55 2294.8752,55 2294.4438,55 2292.9659,53.875 2291.5909,52.5 2288.4291,49.338215 2283.7511,49.227562 2279.3962,52.211553 2276.0348,54.514808 2273,59.649732 2273,63.033927 2273,65.556271 2273.7595,65.51857 2275.8875,62.890594 2278.1068,60.149863 2284.0614,58.108646 2286.8394,59.136305 2288.0208,59.573319 2289.9149,61.408929 2291.0485,63.215438 2295.2573,69.922579 2291.1947,80.804693 2283.123,84.44452 2280.8554,85.467096 2279,86.831206 2279,87.475877 2279,88.120547 2280.6875,89.532148 2282.75,90.612766 2284.9044,91.741539 2287.351,94.164142 2288.5,96.306427 2290.8076,100.60889 2293.3474,100.80651 2293.8185,96.720265 z M 2291.141,103.11789 C 2290.3936,102.63906 2288.8186,100.53882 2287.641,98.450677 2286.4635,96.362538 2283.475,93.231762 2281,91.493398 2275.0944,87.345455 2274.7762,85.402318 2279.673,83.388112 2288.0357,79.948306 2291.9799,73.352694 2290.0221,66.082095 2288.6796,61.096295 2286.2037,59.525911 2282.3071,61.188762 2277.9718,63.038896 2276,65.083333 2276,67.728312 2276,71.434896 2272.8087,70.200582 2271.7412,66.081137 2269.1747,56.176562 2281.7495,44.233492 2290.1634,48.584477 2293.7029,50.41484 2294.6478,49.913934 2295.5318,45.738532 2297.5679,36.121439 2303.2777,29 2308.9523,29 2310.2331,29 2313.2182,29.967535 2315.5861,31.150078 L 2319.8912,33.300155 2325.5262,28.150078 C 2328.6254,25.317535 2331.8157,23 2332.6158,23 2337.6717,23 2343.3724,31.602054 2343.2876,39.103331 2343.1611,50.290271 2338.3246,54.990873 2332.9713,49.129752 2329.3596,45.175433 2327.4765,45.177857 2325.4279,49.139462 2324.2102,51.494251 2323.9718,53.61873 2324.4742,57.639462 2325.0997,62.646214 2325.0039,63 2323.0223,63 2319.5927,63 2314.992,60.109249 2313.9156,57.277889 2313.3664,55.833413 2313.0124,52.561126 2313.129,50.006139 2313.2456,47.451152 2313.0127,44.829549 2312.6115,44.180354 2311.3809,42.189205 2307.0421,42.866958 2304.4545,45.454545 2301.3713,48.53781 2301.232,53.454649 2304,61.5 2307.4794,71.613056 2306.1029,77.098753 2298.3801,83.89665 2294.0414,87.715697 2293.7767,88.214564 2294.8451,90.559446 2297.4143,96.198176 2294.7007,105.39837 2291.141,103.11789 z"/>
</svg>
