<svg xmlns="http://www.w3.org/2000/svg"
     width="42.2" height="64.0"
     viewBox="1465.5312 13.0000 62.3290 94.5800">
  <path d="M 1471.875,50.15625 1471.3125,53.71875 C 1471.7673,53.835046 1472,54.131657 1472,54.625 1472,56.102776 1471.4892,57.439848 1470.5625,58.46875 L 1470,62 1469.5312,62.84375 C 1470.3908,63.146365 1470.6796,64.179289 1471.0312,67 1471.7113,72.454533 1473.8221,76.63267 1477.9375,80.65625 1480.9873,83.638006 1481.0298,83.72586 1479.5312,87.3125 1477.038,93.279542 1477.5302,97.407821 1481.0938,100.40625 1484.8656,103.58 1486.2534,102.953 1485.4062,98.4375 1483.9689,90.775866 1487.3908,87.716668 1496.2812,88.71875 1500.1331,89.152901 1501.3723,89.871252 1504.0625,93.21875 1507.7421,97.797517 1512.2236,100 1517.9062,100 1522.7558,100 1523.8602,98.573098 1521.2188,95.6875 1517.2406,91.341734 1515.2582,85.811588 1515.5,79.6875 1515.6264,76.486739 1516.2532,73.340489 1516.875,72.71875 1518.8119,70.781829 1518.1114,69 1515.4375,69 1511.9413,69 1507.7399,71.341182 1504.6875,74.96875 1500.103,80.417098 1494.2767,78.655916 1488.9062,70.1875 1484.7031,63.559739 1484.7713,56.016378 1489.125,49.90625 1492.2267,45.553122 1496.8056,41.100808 1498.25,41.03125 1498.6607,41.01147 1501.1618,43.25 1503.8125,46 1506.4631,48.75 1509.4643,51 1510.4688,51 1512.1004,51 1512.207,50.363236 1511.6562,45.09375 1510.8723,37.592697 1513.0218,30.80716 1517.6875,25.90625 1520.7191,22.721802 1520.9219,22.185395 1519.5312,21.03125 1517.1445,19.050446 1506.8648,20.442066 1502.2188,23.375 1500.1317,24.692568 1497.175,27.38383 1495.6562,29.375 1493.2251,32.562343 1492.3805,33 1488.5312,33 1485.0264,33 1483.5755,32.419158 1481.2188,30.0625 1477.4895,26.333151 1476.3601,21.38108 1478.6562,18.84375 1480.2161,17.120186 1480.1862,17 1478.3438,17 1473.4766,17 1470.7077,23.157859 1471.375,32.53125 1471.7023,37.12863 1472.3144,38.834432 1474.0625,40.25 1476.1606,41.948906 1476.2156,42.316511 1475,46 1474.2484,48.27732 1473.2846,49.332444 1471.875,50.15625 z M 1515.1875,22.09375 C 1516.2907,22.06071 1517,22.162728 1517,22.4375 1517,22.808124 1515.7001,24.782251 1514.125,26.8125 1510.6638,31.273918 1508,37.927949 1508,42.09375 1508,45.891677 1506.2646,45.56063 1503.5,41.21875 1502.4,39.49114 1500.825,38.05038 1500,38.03125 1495.3622,37.923708 1487.6425,46.151049 1484.4062,54.625 1482.9402,58.463657 1482.8668,59.824154 1483.9062,64.46875 1486.095,74.249358 1492.732,81 1500.1562,81 1502.2749,81 1503.9952,80.6625 1504,80.25 1504.0147,78.980806 1511.052,71.997175 1512.3125,72 1513.13,72.001832 1513.51,74.587986 1513.5312,80.28125 1513.5551,86.61959 1514.0455,89.5258 1515.6562,92.78125 1516.8116,95.116286 1517.4738,97.190682 1517.125,97.40625 1516.7762,97.621818 1514.8067,97.238312 1512.75,96.53125 1508.9995,95.241884 1505.5815,92.020305 1504.4688,88.75 1504.1412,87.7875 1503.3379,86.96545 1502.6875,86.9375 1483.7395,86.123308 1472.2748,75.649296 1473.4062,60.125 1473.67,56.505295 1474.36,53.379998 1474.9375,53.1875 1475.515,52.995002 1476.0177,51.622916 1476.0312,50.15625 1476.0842,44.452185 1486.7995,34.100794 1492.7812,33.96875 1493.7269,33.947876 1495.7305,32.152494 1497.2188,30 1498.7071,27.847505 1501.1814,25.451198 1502.7188,24.65625 1504.9918,23.480764 1511.878,22.192871 1515.1875,22.09375 z M 1474.5,25.78125 C 1474.9822,25.76353 1475.6424,26.5433 1476.4375,28.21875 1477.3605,30.163853 1479.1941,32.775068 1480.5312,34.03125 1482.3883,35.775979 1482.7229,36.634593 1481.875,37.65625 1480.6184,39.170361 1479.4219,39.242153 1476.3438,38 1474.6731,37.325817 1474.1251,36.070302 1473.7812,32.3125 1473.3938,28.076127 1473.6963,25.810783 1474.5,25.78125 z M 1484.5625,85.84375 C 1487.4052,86.348209 1487.4505,86.637392 1485.125,89.59375 1483.9623,91.071887 1483,93.324172 1483,94.625 1483,96.934966 1481.9931,97.6806 1480.6562,96.34375 1478.2634,93.950924 1481.4849,85.297617 1484.5625,85.84375 z"/>
</svg>
