<svg xmlns="http://www.w3.org/2000/svg"
     width="19.3" height="64.0"
     viewBox="2019.9907 21.0000 25.3830 84.1431">
  <path d="M 2026.3673,99.514674 C 2025.9867,98.523083 2026.4417,95.644316 2027.3782,93.117414 2031.9748,80.715167 2031.6052,56.160401 2026.5288,36.679072 2024.0946,27.337578 2023.9907,25 2026.0101,25 2027.8158,25 2034.5219,38.751713 2036.7385,47 2040.3947,60.6055 2041.3737,72.576814 2039.4933,80.685138 2037.7315,88.281769 2034.6572,94.094175 2030.1188,98.408784 2027.3552,101.03602 2026.9921,101.14306 2026.3673,99.514674 z M 2033.3894,91.75 C 2034.75,89.4125 2036.1812,86.15 2036.5698,84.5 2036.9585,82.85 2037.5219,81.071809 2037.8218,80.548465 2038.1218,80.02512 2038.2483,75.172482 2038.1031,69.764823 2037.9087,62.526724 2037.0739,57.255581 2034.9387,49.785526 2031.9159,39.20997 2029.1023,33.960539 2030.4978,41.5 2033.1017,55.568039 2032.5081,83.994611 2029.3962,94.25 2028.3876,97.57404 2030.9237,95.986307 2033.3894,91.75 z"/>
</svg>
