<svg xmlns="http://www.w3.org/2000/svg"
     width="32.4" height="64.0"
     viewBox="1194.0067 12.0000 47.9933 94.6773">
  <path d="M 1199.6562,51.75 1199.9688,56 C 1200.0403,56.000525 1200.0825,56 1200.1562,56 1203.4024,56 1205.2948,55.11393 1210.0938,51.34375 L 1216,46.71875 1216,40.46875 1216,34.25 1210.0312,33.8125 C 1206.7428,33.574637 1203.7589,33.071378 1203.4062,32.71875 1201.2179,30.530297 1208.903,19.955067 1212.625,20.03125 1213.66,20.052436 1215.3926,21.521051 1216.5,23.28125 1217.6073,25.041449 1219.2411,26.611026 1220.125,26.78125 1221.0089,26.951475 1224.2915,25.881014 1227.4062,24.40625 1230.5211,22.931487 1233.3386,22.026017 1233.6875,22.375 1235.0026,23.690018 1231.461,28.159013 1226.8438,31 1221.9309,34.022879 1221.5241,34.783472 1220.625,42.90625 1220.1766,46.956809 1220.4185,47.554925 1223.6562,50.40625 1227.9465,54.184397 1229.403,56.889878 1230.875,63.84375 1232.4102,71.096101 1231.0423,75.786905 1225.4688,82.0625 1221.8087,86.183466 1221,87.760322 1221,90.96875 1221,96.613819 1219.2954,96.823611 1217,91.46875 1215.9045,88.912941 1215,86.596455 1215,86.3125 1215,86.028544 1217.1738,83.676942 1219.8438,81.0625 L 1224.7188,76.28125 1223.8438,69.96875 C 1222.6413,61.17623 1220.2848,57.451579 1216.0625,57.65625 1214.142,57.749349 1211.7152,58.828641 1210.1562,60.28125 1206.0876,64.072105 1203.4261,65.469642 1200.5938,64.5 L 1200.875,68.09375 C 1204.0565,68.465562 1207.2561,66.915226 1211.1562,63.28125 1214.3149,60.338126 1216.9932,60.589443 1218.7188,64 1221.7715,70.033626 1219.3814,78.788057 1214.0312,81.15625 1212.3687,81.892188 1211,83.02954 1211,83.6875 1211,85.893946 1216.2491,99.503264 1217.375,100.21875 1221.2438,102.67731 1224.9756,98.265822 1225,91.21875 1225.0122,87.667163 1225.6651,86.233189 1228.875,82.71875 1233.7676,77.36197 1235.4312,72.329452 1234.5625,65.625 1233.4858,57.315255 1231.9728,53.427649 1227.875,48.46875 1224.8743,44.837577 1224,42.92453 1224,39.9375 1224,36.516656 1224.4913,35.746318 1228.4375,33.03125 1230.8758,31.353648 1233.1512,29.09882 1233.5,28 1233.8487,26.90118 1234.4815,26 1234.9062,26 1235.9597,26 1238,21.337744 1238,18.9375 1238,16.360131 1235.792,16.479287 1231.2188,19.28125 1222.1506,24.837312 1219.7836,24.781506 1218.5,18.9375 1217.9327,16.354685 1217.4084,16 1214.2188,16 1211.1633,16 1209.8757,16.801258 1205.875,21.0625 1200.134,27.177432 1198.0067,32.444199 1200.3438,34.78125 1201.2287,35.66617 1204.2903,36.520254 1207.4375,36.78125 L 1213,37.25 1213,40.96875 C 1213,45.139263 1211.663,46.666793 1205.2812,49.875 1202.4697,51.288387 1200.9757,51.959367 1199.6562,51.75 z"/>
</svg>
