<svg xmlns="http://www.w3.org/2000/svg"
     width="53.5" height="64.0"
     viewBox="583.4660 19.8986 72.7769 87.0361">
  <path d="M 599.69678,93.363442 C 599.34667,93.013335 601.07167,90.489666 603.53011,87.755288 605.98855,85.020911 607.9897,82.269862 607.97712,81.641846 607.96453,81.013831 606.9331,76.675 605.68505,72 603.47103,63.706644 603.34396,63.502621 600.45793,63.607808 598.83107,63.667102 596.04443,64.059466 594.2654,64.479728 587.46595,66.085968 590.10635,59.342824 598.78824,52.929159 600.59678,51.593122 602.70503,49.341402 603.47325,47.925339 604.71924,45.628614 604.65563,45.034885 602.88403,42.425339 597.39232,34.3361 594.42959,26.001022 598.48882,30.060252 601.27897,32.850402 607,43.269392 607,45.560593 607,47.123054 604.6363,50.179027 599.75,54.933962 L 592.5,61.989046 598.52854,61.375214 C 603.02486,60.917393 604.82867,61.109405 605.62567,62.130691 606.21339,62.883811 607.74037,67.860982 609.01895,73.19107 L 611.34364,82.882141 606.5945,88.44107 C 601.90729,93.927506 600.94649,94.613154 599.69678,93.363442 z M 629.33305,98.398718 C 625.57487,96.418013 621.01715,93.679591 619.20478,92.313337 616.01191,89.906394 615.82555,89.88259 613.20478,91.546966 611.71715,92.491716 609.4875,94.183579 608.25,95.306661 606.80168,96.621067 606,96.889054 606,96.058791 606,95.34938 607.9123,93.020939 610.24956,90.884477 614.41662,87.075406 617.29583,86.051606 618.47505,87.959624 619.55301,89.703807 635.25849,98.048003 639.07923,98.906468 642.40621,99.653989 643.17703,99.431199 645.91454,96.930872 649.70827,93.465841 650.05285,89.058787 646.76924,85.999644 643.27378,82.743126 640.59597,83.732229 640,88.5 639.61681,91.565556 639.02166,92.568454 637.45241,92.793026 634.67307,93.190772 617.06508,80.139423 617.02773,77.653907 616.97685,74.266956 620.17685,64.823152 621.98965,63.010353 623.35515,61.644855 624.8184,61.33792 628.1646,61.715085 632.0716,62.15546 632.69648,61.935647 633.89294,59.700044 635.54687,56.609645 634.91372,55.506795 630.06568,53.033508 624.96797,50.432851 620,46.156073 620,44.368265 620,43.568594 621.96214,40.796096 624.36031,38.207159 626.75848,35.618222 629.24931,32.4875 629.89549,31.25 630.95697,29.217172 630.84015,29 628.68522,29 626.42372,29 618.95378,33.647732 617.54082,35.93395 617.17845,36.520278 615.65565,37 614.15682,37 612.19234,37 609.9758,35.525807 606.21584,31.718555 603.34713,28.81376 601,26.11376 601,25.718555 601,23.898562 603.90651,25.415194 608.27931,29.516943 610.90793,31.982624 613.64659,34 614.3652,34 615.08382,34 617.65813,32.454894 620.08589,30.56643 622.51365,28.677967 625.73504,26.665041 627.24453,26.093262 629.64497,25.183999 630.1886,25.358214 631.58072,27.482855 633.3815,30.231181 633.34372,30.3227 627.09216,38.358524 L 622.53444,44.217048 625.51722,46.627947 C 627.15775,47.953942 630.8625,50.383954 633.75,52.027973 636.6375,53.671992 638.99832,55.350751 638.99626,55.758549 638.98796,57.405145 634.975,62.943011 633.0395,63.978862 631.87093,64.604261 629.45445,64.800679 627.48179,64.430606 624.22354,63.819354 623.89978,63.99926 622.60973,67.137922 621.84971,68.987065 620.9056,72.009104 620.51173,73.853565 619.86298,76.89158 620.1506,77.503189 623.56847,80.353565 628.13826,84.1646 635.21883,88.989832 636.25,88.995719 636.6625,88.998073 637,88.350094 637,87.555764 637,86.761434 638.07816,84.858092 639.39591,83.326116 641.49702,80.883434 642.13919,80.662869 644.61497,81.533554 648.72315,82.978321 652.2429,88.617595 651.40827,92.417632 650.50767,96.518043 649.16308,98.472453 645.92791,100.38351 641.60923,102.93462 636.86218,102.36686 629.33305,98.398718 z"/>
</svg>
