<svg xmlns="http://www.w3.org/2000/svg"
     width="23.3" height="64.0"
     viewBox="1119.0938 25.4558 29.0974 79.9574">
  <path d="M 1125.0938,31 1124.5,34.84375 C 1125.8226,33.486329 1133.9617,32.728616 1135.5312,34.03125 1137.3863,35.570837 1137.4051,41.299399 1135.5625,46.5 1133.9748,50.981036 1134.2703,53.465816 1137.2188,60 1140.4462,67.152386 1141.4455,78.178405 1139.4375,84.5625 1137.5798,90.468529 1133.087,96.518598 1131.0625,95.84375 1130.0163,95.495031 1130.0747,95.081523 1131.3438,93.8125 1132.23,92.926152 1133.894,89.822775 1135.0312,86.9375 1136.9145,82.159735 1136.9804,81.013521 1135.9375,74.09375 1134.7906,66.484603 1133.1602,62.426792 1129.625,58.3125 1128.328,56.802962 1127.945,55.313772 1128.375,53.5625 1128.7194,52.159413 1129.2879,49.896088 1129.625,48.53125 1130.4906,45.027656 1129.3229,41.243184 1127,40 1125.9548,39.440619 1124.9037,39.303789 1123.75,39.65625 L 1123.0938,43.75 C 1124.0673,43.427732 1124.9623,43.524774 1125.8125,44.375 1127.0832,45.645669 1127.0355,46.429079 1125.5312,50.65625 L 1123.8125,55.5 1127.9062,62.5 C 1132.4823,70.369171 1134.2881,77.770693 1133.0312,83.34375 1132.0991,87.47655 1130.8598,89.435028 1127.125,92.6875 1124.8008,94.711505 1124.7097,95.0288 1126.1562,96.6875 1127.0205,97.678385 1127.5303,99.0625 1127.2812,99.75 1126.6787,101.41325 1129.4639,101.33297 1132.8125,99.59375 1136.2062,97.831052 1138.9644,94.040178 1141.9375,87.03125 1143.9313,82.331069 1144.1912,80.410555 1143.75,73.53125 1143.4572,68.964927 1142.2874,62.916086 1141.0312,59.5 1139.8179,56.2 1138.8477,53.05 1138.875,52.5 1138.9022,51.95 1139.292,48.806836 1139.75,45.5 1140.7578,38.224831 1139.8398,33.110426 1137.1562,30.9375 1135.5552,29.640948 1134.1169,29.455806 1129.8438,30.09375 1128.0102,30.367474 1126.6535,30.679695 1125.0938,31 z"/>
</svg>
