<svg xmlns="http://www.w3.org/2000/svg"
     width="26.0" height="64.0"
     viewBox="813.4375 17.0000 36.9769 90.8951">
  <path d="M 817.4375,90.90625 817.59375,90.5625 820.5625,93.9375 C 822.183,95.782435 825.26123,98.584729 827.40625,100.15625 831.88848,103.4401 836.89905,103.89508 839.25,101.25 842.0125,98.141876 843.86092,92.280074 844.40625,84.8125 845.59028,68.598749 846.41445,47.9101 846.28125,37.75 846.16015,28.513392 845.82949,26.569281 844,24 842.69873,22.172542 840.98828,21 839.59375,21 837.63641,21 837.04794,21.892682 835.625,27.25 833.70339,34.484793 832.01266,56.133656 832,73.625 831.98874,89.184079 831.20814,90.152657 824.0625,83.46875 L 820.0625,79.71875 820,80 819.0625,84 C 820.06509,84.277425 821.72554,85.332237 824.125,87.5 828.66362,91.600367 830.04755,91.787264 833.3125,88.75 835.57836,86.642157 835.68105,86.02917 835.09375,79.1875 834.32659,70.250457 836.41538,35.164191 838.0625,29.28125 839.44615,24.339326 840.29668,24.009032 842.625,27.5625 844.12881,29.857601 844.23052,32.459136 843.59375,52.3125 842.65525,81.573128 841.78988,90.742794 839.4375,95.5625 836.11983,102.35997 831.72931,101.28484 822.6875,91.5 820.36366,88.985191 819.22886,87.235787 818.625,85.90625 L 817.4375,90.90625 z"/>
</svg>
