<svg xmlns="http://www.w3.org/2000/svg"
     width="21.8" height="64.0"
     viewBox="2421.0000 18.4777 28.5720 83.9560">
  <path d="M 2425.3438,53.1875 2425.3438,56.3125 2426,55.96875 2426,58.21875 C 2425.9995,58.824735 2425.7537,59.451003 2425.3438,60.0625 L 2425.3438,63.34375 2425,64.84375 C 2425.8179,64.688345 2426.2793,64.813513 2426.4062,65.28125 2426.5884,65.952398 2427.3084,68.975 2428,72 2430.0797,81.096843 2433.7872,89.238464 2438,94 2441.8194,98.316894 2442.0345,98.433663 2443.4688,96.59375 2444.3717,95.435362 2444.6251,94.247273 2444.0938,93.59375 2442.9875,92.232797 2439.3617,72.95071 2438.3438,63 2437.1358,51.192083 2437.8958,43.376873 2441.1562,34.5 2445.572,22.477661 2445.489,23 2443.1875,23 2438.2648,23 2428.757,38.229724 2427.375,48.3125 2427.0229,50.88156 2426.601,52.060091 2425.3438,53.1875 z M 2441.5312,26.40625 C 2442.0162,26.427381 2441.9606,27.219867 2441.125,28.78125 2438.9192,32.90279 2436.9389,40.126099 2436,47.53125 2435.012,55.323981 2435.1775,57.395759 2438.6562,79.65625 2439.528,85.234001 2440.0783,90.238478 2439.875,90.8125 2439.4599,91.98498 2434,84.78312 2434,83.0625 2434,82.455414 2433.5831,81.205037 2433.0625,80.25 2429.2861,73.323087 2427.6519,57.840961 2429.5938,47.21875 2430.5267,42.114899 2435.3764,32.095049 2438.5625,28.6875 2439.998,27.152254 2441.0463,26.385119 2441.5312,26.40625 z"/>
</svg>
