<svg xmlns="http://www.w3.org/2000/svg"
     width="47.9" height="64.0"
     viewBox="302.3277 25.6953 59.6723 79.6906">
  <path d="M 346.25184,53.25 C 344.64792,51.1875 343.00347,48.929293 342.59752,48.231763 341.8047,46.869498 345.54668,40 347.08156,40 348.43066,40 348.20266,41.761074 346.52135,44.327071 345.16389,46.39882 345.25894,46.887684 347.68106,50.291887 350.57178,54.354679 351.5364,54.665224 354.44113,52.468197 356.70915,50.752751 358,50.588261 358,52.014698 358,53.164609 352.11236,56.990561 350.33403,56.996262 349.69275,56.998318 347.85576,55.3125 346.25184,53.25 z M 329.77558,41.25 C 327.92302,39.137142 325,33.505818 325,32.04966 325,29.695286 327.07074,31.264576 329.55287,35.5 332.46764,40.473679 333.81654,40.965186 336.47866,38.023581 337.46241,36.936551 338.69405,36.310913 339.21564,36.633275 340.50585,37.430664 335.04058,43 332.9679,43 332.05604,43 330.6195,42.2125 329.77558,41.25 z M 317.28459,98.75 C 316.14937,97.5125 313.49329,93.8 311.38219,90.5 306.32769,82.598979 306.3504,78.811289 311.50841,69.446368 313.61267,65.625866 316.83411,60.41471 318.66717,57.866023 320.50023,55.317336 322,52.340522 322,51.250882 322,49.170523 319.62822,45.610482 314.74763,40.365076 312.87475,38.352206 311.95051,36.411677 312.16537,34.943404 312.55768,32.262482 315,31.042872 315,33.527886 315,34.45989 316.8019,37.374605 319.00421,40.00503 323.16102,44.969879 325.98321,49.669752 325.99384,51.64504 325.99723,52.274812 324.86111,53.849812 323.46914,55.14504 319.52084,58.81893 310,76.326448 310,79.912949 310,82.039941 311.64921,85.398775 315.20482,90.513255 318.06746,94.630965 320.77711,98 321.22625,98 321.6754,98 322.55015,96.886666 323.17014,95.525924 324.08525,93.517486 323.89301,91.995085 322.1487,87.43694 319.09424,79.455135 319.37684,76.710716 323.98272,69.626095 330.8278,59.097224 333.10125,56 333.98467,56 334.45489,56 337.20177,58.475 340.08884,61.5 345.6885,67.367198 347.23195,67.926688 350.84216,65.398001 352.10011,64.516902 353.39748,64.064143 353.7252,64.39187 354.79462,65.461289 350.86539,68.870655 347.78333,69.547588 345.11162,70.134395 344.17552,69.617444 339.43841,64.939177 333.0905,58.670115 333.15792,58.643396 326.44919,70.086665 L 321.8078,78.003617 324.49461,85.575715 C 327.52838,94.125663 326.99033,97.772116 322.38536,99.87028 319.2683,101.29051 319.70263,101.3859 317.28459,98.75 z"/>
</svg>
