<svg xmlns="http://www.w3.org/2000/svg"
     width="19.2" height="64.0"
     viewBox="725.3838 16.0906 27.2765 91.0774">
  <path d="M 736.09745,99.75 C 733.1835,92.064218 732,87.418258 732,83.665053 732,81.319274 731.54219,78.942194 730.98265,78.382653 729.3838,76.783801 729.6979,52.609802 731.44506,42.794636 733.2751,32.513869 736.59825,23.091397 738.67515,22.294416 744.41818,20.090606 748.66026,42.642405 747.73264,70.445992 747.2003,86.401779 746.55512,89.813233 742.423,98.52102 740.50471,102.56352 737.39334,103.16802 736.09745,99.75 z M 741.31866,94.25 C 744.66646,87.53006 745.4999,81.479182 745.41638,64.5 745.33515,47.987605 743.98901,37.325563 740.99744,29.5 739.9042,26.640243 739.78516,26.58911 738.45085,28.40618 736.48674,31.080923 734.2082,39.382373 732.89933,48.632136 731.93887,55.419708 732.13434,65.481881 733.48929,79 734.0727,84.820635 737.91771,97 739.17186,97 739.59909,97 740.56515,95.7625 741.31866,94.25 z"/>
</svg>
