<svg xmlns="http://www.w3.org/2000/svg"
     width="32.7" height="64.0"
     viewBox="2141.0671 20.2641 44.2317 86.5243">
  <path d="M 2153.9062,56.53125 2154,56.65625 2154,59.96875 C 2154.104,60.001341 2154.4227,59.862944 2154.4688,59.9375 2154.9712,60.75039 2154.6794,61.814117 2154,62.78125 L 2154,66.96875 2154.625,66.84375 2156.4375,78.09375 C 2158.1875,89.040662 2158.1871,89.388769 2156.375,90.65625 2155.3501,91.373103 2152.8125,93.662118 2150.75,95.71875 2148.2116,98.249897 2147,98.924106 2147,97.84375 2147,95.412192 2150.9342,87.065781 2153.0938,84.90625 2154.1476,83.852402 2154.5309,83 2153.9688,83 2152.6436,83 2147.3785,91.321226 2145.9375,95.6875 2145.3225,97.5509 2145.0671,99.728934 2145.375,100.53125 2146.2411,102.78838 2147.0363,102.37355 2152.0312,96.96875 2157.2031,91.372492 2158.872,91.235202 2161.0938,96.28125 2161.8698,98.043897 2162.9522,99.5 2163.5,99.5 2164.0479,99.5 2165.6688,97.28982 2167.125,94.59375 L 2169.7812,89.6875 2172.1562,92.09375 C 2173.4524,93.41482 2175.1994,95.574871 2176.0625,96.90625 2179.2792,101.86806 2181.2988,96.14556 2178.875,88.90625 2178.249,87.036677 2176.6118,83.989219 2175.25,82.15625 2172.8674,78.94902 2172.7559,78.22656 2172.625,62.4375 2172.5329,51.332241 2172.8508,45.878634 2173.5938,45.59375 2175.1653,44.991198 2178.914,36.686625 2178.875,33.875 2178.8167,29.673435 2177.9437,24.987266 2177.2188,25 2176.8312,25.006808 2175.4926,26.581808 2174.25,28.5 2171.4778,32.779529 2168.9903,32.951125 2166.6562,29 2164.3706,25.130725 2161.6027,25.130725 2160,29 2158.326,33.041286 2156.5558,32.790528 2153.4062,28.03125 2151.9563,25.840271 2150.3579,24.264062 2149.875,24.5625 2148.0032,25.719297 2149.0927,32.860535 2152,38.59375 2155.2176,44.938672 2156.011,54.395159 2153.9062,56.53125 z M 2149.875,26.5 2153.4375,30.5 C 2155.4841,32.78783 2156.8976,35.361928 2156.75,36.5 2156.6081,37.594382 2155.825,38.593982 2155,38.75 2153.3177,39.068145 2151.37,35.302079 2150.4688,30 L 2149.875,26.5 z M 2163.0625,28 C 2164.9366,28 2168.832,38.189519 2170.0312,46.25 2172.1199,60.288464 2170.4095,84.146474 2166.7812,91.6875 2165.5806,94.183024 2163.3341,95.369076 2162.4688,93.96875 2162.1492,93.451649 2160.8249,88.847337 2159.5,83.75 2156.5491,72.396294 2155.257,53.196637 2156.875,44.5 2158.1275,37.76795 2161.7933,28 2163.0625,28 z M 2177,28.59375 2177,32.84375 C 2177,35.178955 2176.3079,38.439813 2175.4688,40.0625 2173.593,43.689798 2172.2452,43.794884 2170.9688,40.4375 2169.4722,36.501003 2169.7319,35.652205 2173.5,32 L 2177,28.59375 z M 2171.375,81.71875 C 2171.7276,81.448776 2172.1955,81.571646 2172.9375,81.96875 2175.0405,83.094281 2178,88.898702 2178,91.90625 2178,94.811228 2177.0308,94.466683 2173.2188,90.25 2170.5793,87.330429 2170.0371,86.062259 2170.5312,83.8125 2170.7861,82.652016 2171.0224,81.988724 2171.375,81.71875 z"/>
</svg>
