<svg xmlns="http://www.w3.org/2000/svg"
     width="35.7" height="64.0"
     viewBox="2818.0000 16.0892 49.5313 88.7831">
  <path d="M 2827.275,97.75 C 2824.5552,94.79871 2822,87.012291 2822,81.675152 2822,75.663747 2824.5053,66.558652 2828.174,59.237315 L 2831.3121,52.97463 2828.6561,47.550265 C 2825.3853,40.870605 2825.308,36.027964 2828.3672,29.458425 2830.5225,24.829898 2835.4225,20.089163 2836.7151,21.381791 2837.013,21.679669 2836.7268,24.027724 2836.0792,26.599691 2835.0195,30.808034 2835.1612,33.990945 2836.6424,39.251061 2836.9136,40.214145 2838.024,41.477644 2839.1099,42.058837 2842.5201,43.883915 2849.3517,37.276677 2858.7468,23.066667 2858.9044,22.828333 2859.5157,23.115736 2860.1053,23.705339 2863.5313,27.131332 2859.2994,43.41956 2853.3421,49.736116 2849.5353,53.772532 2849.4001,54.257268 2851.578,56.064741 2856.4398,60.099669 2860.6186,76.004437 2859.3521,85.653502 2858.5394,91.845031 2855.4873,98 2853.2297,98 2851.7216,98 2851.5,96.876404 2851.5,89.228973 2851.5,81.287829 2851.1782,79.797619 2848.0985,73.478973 2844.1711,65.420953 2841.2706,61 2839.9113,61 2839.3874,61 2837.5362,63.018181 2835.7976,65.484847 2834.0589,67.951513 2832.46,69.793332 2832.2444,69.577777 2831.4922,68.825535 2834.8452,63.477456 2837.8746,60.597548 2840.5632,58.041593 2841.13,57.862522 2842.6223,59.097548 2843.5544,59.868897 2845.0421,62.075 2845.9284,64 2846.8147,65.925 2848.7275,69.3 2850.1791,71.5 2851.8582,74.044867 2853.2482,78.138475 2854,82.752877 2855.2252,90.272833 2856.2938,91.280766 2857.3647,85.926396 2858.7913,78.793576 2855.117,65.290762 2849.6334,57.514176 2847.0115,53.795853 2847.3758,51.38554 2851.0832,47.922277 2855.8448,43.474288 2860.7795,30 2857.6468,30 2856.8152,30 2855.8469,30.906924 2855.4951,32.015388 2854.7291,34.428856 2841.5407,46 2839.5559,46 2837.4675,46 2833.928,39.606966 2833.6291,35.294724 2833.4844,33.207626 2833.6862,30.0375 2834.0777,28.25 2834.8751,24.608692 2834.0965,24.130889 2831.6931,26.786598 2826.2193,32.835115 2826.3509,40.043004 2832.0797,47.951307 L 2835.1653,52.210851 2832.0826,56.046787 C 2830.3872,58.156552 2829,60.478275 2829,61.206171 2829,61.934067 2828.0276,64.322954 2826.8392,66.514809 2824.2047,71.373641 2823.7154,84.135186 2825.9101,90.75 2827.9524,96.905855 2829.1488,95.964645 2828.4523,88.75 2827.9822,83.880816 2828.3036,81.174417 2829.9071,76.5 2831.0391,73.2 2831.718,71.85 2831.4158,73.5 2829.5717,83.570078 2829.9448,91.48064 2832.589,98.371247 2833.5487,100.87225 2829.7424,100.42726 2827.275,97.75 z"/>
</svg>
