<svg xmlns="http://www.w3.org/2000/svg"
     width="23.0" height="64.0"
     viewBox="1743.1875 20.0095 30.8125 85.7318">
  <path d="M 1747.1875,58.15625 1747.3438,58.65625 1749.375,64 1750.6562,67.34375 1750.2188,68.4375 C 1750.6209,68.418451 1751.258,68.262888 1751.4688,68.34375 1752.2502,68.643592 1753.6371,70.056384 1754.5625,71.46875 1756.207,73.978579 1756.1552,74.169035 1752.2188,80.03125 1747.7356,86.707834 1747.7033,88.402544 1751.9688,92.96875 1753.4665,94.572178 1755.4531,97.030516 1756.375,98.4375 1758.3711,101.48384 1760.6399,101.74122 1761.5,99.03125 1761.8414,97.95566 1763.8918,94.939328 1766.0625,92.3125 1768.2332,89.685672 1770,87.160152 1770,86.6875 1770,86.214848 1768.5058,84.09312 1766.6875,81.96875 1764.8691,79.84438 1762.7602,76.920612 1762,75.5 1760.677,73.027991 1760.8254,72.744646 1765.3125,68.625 1767.8912,66.257524 1770,63.648541 1770,62.84375 1770,62.038958 1768.5375,59.197 1766.75,56.53125 1760.1508,46.689742 1760.3937,48.088762 1764.0625,42.1875 L 1767.375,36.875 1765.4688,33.1875 C 1762.4838,27.399497 1759.9728,24.009454 1758.6875,24.0625 1757.1752,24.124916 1748,36.972016 1748,39.03125 1748,39.88554 1749.8036,42.293727 1752,44.375 1756.5166,48.654896 1756.4748,48.950477 1750.3125,55.625 1749.5536,56.446971 1748.3332,57.307496 1747.1875,58.15625 z M 1758.5,28 C 1759.2548,28 1761.0138,29.873672 1762.375,32.15625 1765.0183,36.588899 1764.7314,39.437579 1761.2812,43.25 1760.4092,44.213507 1758.9547,45 1758.0625,45 1755.6191,45 1749.7403,39.242244 1750.6562,37.75 1754.3042,31.806405 1757.3536,28 1758.5,28 z M 1759.2812,51.5625 C 1761.2217,52.307092 1767,61.030135 1767,63.21875 1767,64.067821 1765.4508,65.934721 1763.5625,67.375 1761.6742,68.815279 1759.3117,69.986134 1758.3125,69.96875 1756.333,69.934308 1751,62.021698 1751,59.125 1751,56.560648 1757.3065,50.804691 1759.2812,51.5625 z M 1758.6875,76.03125 C 1759.7428,76.070204 1767.0234,86.092019 1766.9688,87.4375 1766.9452,88.013727 1765.2442,90.409424 1763.1875,92.75 L 1759.4375,97 1754.625,92.125 C 1749.8565,87.283738 1749.8213,87.225748 1751.375,84.375 1753.2586,80.918894 1757.5773,75.990268 1758.6875,76.03125 z"/>
</svg>
