<svg xmlns="http://www.w3.org/2000/svg"
     width="36.1" height="64.0"
     viewBox="1151.7261 12.7836 53.1489 94.2436">
  <path d="M 1199.6562,51.75 C 1198.3789,51.547321 1197.2607,50.537224 1195.3125,48.53125 1193.3016,46.46071 1190.0627,44.498528 1187.2812,43.6875 1182.1479,42.190698 1179.8203,39.773414 1181.6875,37.90625 1182.5348,37.05897 1183.7092,37.088954 1186.375,37.96875 1190.8858,39.457458 1192,38.752039 1192,34.40625 1192,29.562069 1189.6587,24.481727 1185.8125,20.96875 1181.2303,16.783574 1179.4672,17.124984 1176.7812,22.6875 1175.5331,25.272311 1173.9725,27.579392 1173.3125,27.78125 1172.6525,27.983109 1170.114,26.299169 1167.6875,24.0625 1162.54,19.317742 1159.3868,18.832739 1157.9688,22.5625 1155.7261,28.461131 1157.1514,31.683239 1164.6562,37.75 1166.2258,39.018811 1166.9225,40.9365 1167.25,44.78125 1167.6701,49.712904 1167.494,50.229581 1164.5938,52.65625 1161.3283,55.388535 1160.3008,57.278518 1158.9375,62.96875 1157.9194,67.218062 1159.8848,71.884545 1164.2188,75.53125 1166.3331,77.310469 1167.0072,78.553242 1166.5,79.78125 1164.5163,84.583987 1164.1348,88.908086 1165.2188,95 1165.8547,98.575 1166.8553,101.81651 1167.4375,102.21875 1168.6076,103.02717 1171,100.39034 1171,98.28125 1171,95.53459 1176.3136,86.588866 1180.7812,81.8125 1184.7026,77.620178 1185.2249,76.615189 1184.1875,75.1875 1179.9908,69.411966 1178.8484,62.307793 1181.6562,59.5 1184.0822,57.073949 1187.751,58.398823 1193.0938,63.625 1195.8912,66.3614 1198.3822,67.802425 1200.875,68.09375 L 1200.5938,64.5 C 1198.6303,63.827821 1196.5699,62.062429 1193.9062,59 1187.4392,51.564608 1184.6906,51.10411 1180.0625,56.71875 1176.3217,61.257021 1176.0573,65.973857 1179.125,72.5 L 1181.2188,77 1177.7188,80.875 C 1175.7954,83.003968 1173.0219,86.831465 1171.5312,89.375 1170.0405,91.918536 1168.5836,94 1168.3125,94 1167.1881,94 1169.4147,85.162781 1171.6562,80.71875 L 1174.0625,75.90625 1169.5625,73.9375 C 1164.2921,71.606154 1161.9948,68.740518 1162,64.53125 1162.0042,61.125419 1165.1119,55.334387 1168.2812,52.84375 1169.9383,51.541585 1170.4769,49.845778 1170.75,44.84375 1170.9406,41.352593 1170.7174,38.013906 1170.2812,37.4375 1169.8452,36.861093 1167.3625,35.165528 1164.75,33.65625 1160.3457,31.111801 1160,30.638582 1160,26.96875 1160,24.791935 1160.2265,23 1160.5,23 1160.7734,23 1163.7053,24.989109 1167.0312,27.4375 1170.5107,29.998888 1173.7097,31.671016 1174.5625,31.34375 1175.3777,31.03092 1177.1902,28.801231 1178.5938,26.40625 1181.0647,22.189988 1181.2374,22.111237 1183.5,23.59375 1185.7555,25.071615 1189,31.50998 1189,34.5 1189,35.610274 1188.2304,35.786018 1185.75,35.28125 1178.7546,33.857657 1178.4917,34.020236 1178.625,39.4375 L 1178.75,44.375 1184.0625,46.125 C 1187.9055,47.377801 1190.3374,48.995432 1192.7812,51.9375 1195.6474,55.387923 1196.6827,55.975923 1199.9688,56 L 1199.6562,51.75 z"/>
</svg>
