<svg xmlns="http://www.w3.org/2000/svg"
     width="21.0" height="64.0"
     viewBox="138.9321 17.4078 28.9068 87.9882">
  <path d="M 145.66667,99.333333 C 144.44953,98.116198 144.97694,94.165919 146.56915,92.573704 148.6082,90.53466 150,85.574083 150,80.345696 150,75.268023 146.77176,64.510262 144.49211,61.991286 142.93206,60.267446 142.99641,59.660766 145.51249,52.371015 148.24227,44.462147 148.46075,38.46314 146.44131,26.868112 145.65466,22.351407 146.95421,21.407839 151.04678,23.52419 157.65486,26.941361 160.4546,38.337116 157.81994,51.092886 156.7083,56.474948 156.79738,57.157121 159.35669,62.860008 163.8389,72.847716 162.88665,84.70405 156.90061,93.440104 153.53655,98.349618 147.72936,101.39602 145.66667,99.333333 z M 156.57801,88.846058 C 159.97966,82.133215 159.91447,73.126916 156.40063,64.343717 154.09341,58.576572 153.92483,57.355626 154.90063,53.480341 157.37148,43.667704 155.90215,31.655135 151.81594,28.261407 150.7434,27.370633 150.5,28.956309 150.5,36.83424 150.5,43.387372 149.92183,48.302849 148.7046,52.098454 L 146.90919,57.696907 150.02608,67.078504 C 153.23446,76.73546 153.45913,82.280167 151.02304,91.682561 149.34698,98.151504 152.74072,96.418576 156.57801,88.846058 z"/>
</svg>
