<svg xmlns="http://www.w3.org/2000/svg"
     width="61.3" height="64.0"
     viewBox="1866.9852 19.0063 84.0417 87.6891">
  <path d="M 1871,54.231351 C 1871,53.769891 1872.5518,51.888245 1874.4485,50.049914 1878.7255,45.904529 1880.1042,40.096684 1878.9701,31.003402 1878.5245,27.430273 1878.3734,24.293305 1878.6343,24.032362 1879.6604,23.006308 1880.7551,26.474025 1881.3221,32.546705 1882.2766,42.768007 1879.1528,50.628515 1872.75,54.116923 1871.7875,54.641317 1871,54.69281 1871,54.231351 z M 1887.1973,100.44092 C 1885.2419,99.618714 1883.3603,97.726484 1882.3117,95.527545 1880.8019,92.361414 1880.7436,91.002194 1881.8032,83.673774 1883.3783,72.779727 1883.3143,66.688071 1881.5813,62.54025 1880.4652,59.869158 1879.7255,59.259026 1878.114,59.680433 1876.9873,59.975066 1875.5457,60.8425 1874.9103,61.608065 1874.275,62.373629 1873.0227,62.986809 1872.1276,62.970687 1870.9852,62.950112 1871.4931,62.038296 1873.8313,59.912112 1882.8818,51.682348 1887.0797,61.46456 1883.6222,82.727125 1882.3157,90.761473 1882.3385,91.033845 1884.5926,94.351112 1886.7204,97.482456 1888.8274,99 1891.0473,99 1891.5334,99 1893.2966,97.665167 1894.9655,96.033704 1897.5138,93.542651 1897.9981,92.300988 1897.9881,88.283704 1897.9816,85.652667 1897.3119,81.025 1896.5,78 1894.7195,71.366488 1894.6185,66.400552 1896.1413,60.353248 1897.4343,55.218028 1897.3676,55.225874 1907.2325,59.04843 1912.412,61.055431 1913.4043,61.146738 1917.5183,59.994889 1922.0945,58.713617 1924.0509,56.72136 1929.052,48.25 1931.4812,44.135169 1933.4821,44.135169 1936.086,48.25 1937.9139,51.138726 1938.0768,52.528242 1937.5511,60.75 1937.2258,65.8375 1937.1873,70 1937.4656,70 1937.7439,70 1939.1111,68.278188 1940.5037,66.173751 1945.5616,58.530774 1944.8051,41.748355 1938.9715,32.183799 1935.6599,26.75424 1933.3425,28.032734 1928.429,38 1926.1243,42.675 1922.4781,48.47811 1920.3262,50.8958 L 1916.4136,55.2916 1912.4568,54.034835 C 1905.5845,51.852048 1899.9977,48.063129 1898.2513,44.40072 1896.8394,41.439903 1896.7653,39.998392 1897.7347,34.339296 1899.3865,24.696398 1900.7574,24.477603 1900.2094,33.944348 1899.8561,40.046094 1900.1088,42.517102 1901.2666,44.284132 1902.9476,46.849693 1912.1315,52 1915.0253,52 1917.6736,52 1923.2265,44.754491 1927.6643,35.508314 1930.5937,29.40486 1932.1426,27.294363 1934.2197,26.575922 1938.2739,25.173649 1940.6001,27.924699 1943.6607,37.741006 1947.0269,48.537556 1946.6542,58.903782 1942.624,66.572649 1939.7653,72.012404 1932.3218,80.655084 1931.3405,79.673851 1930.9975,79.330819 1931.9055,76.30921 1933.3584,72.959164 1935.4376,68.164922 1936,65.271487 1936,59.368345 1936,46.431301 1933.2905,44.749607 1927.5171,54.103259 1921.9387,63.141039 1915.4532,65.120274 1904.9643,60.985928 1902.1539,59.878188 1899.4954,59.193824 1899.0564,59.465118 1897.1825,60.623285 1897.0449,67.09959 1898.6998,76.25 1899.6697,81.6125 1900.7575,86 1901.1173,86 1901.477,86 1903.0603,85.327772 1904.6357,84.506161 1908.9704,82.245446 1911.2573,82.662356 1915.5683,86.499218 1919.7909,90.257315 1921.009,90.600734 1924.1514,88.91898 1927.1489,87.314761 1927.8618,88.878812 1925.1392,91.08608 1921.6493,93.915421 1919.0022,93.44302 1914.1351,89.122293 1909.2144,84.754048 1907.5608,84.739601 1902.9735,89.024777 1898.83,92.895321 1899.2218,93.781194 1904.838,93.241542 1909.1589,92.82636 1910.0549,93.109277 1913.22,95.888335 1916.7475,98.985446 1920.3254,99.90062 1921.4967,98.005377 1921.8348,97.458335 1922.9863,96.542502 1924.0557,95.970194 1927.5857,94.080986 1926.2977,97.6529 1922.632,99.918441 1918.1388,102.69537 1916.7013,102.55467 1912.578,98.934345 1908.5467,95.394791 1904.3713,94.871485 1900.4839,97.418583 1895.1968,100.88282 1890.6877,101.90852 1887.1973,100.44092 z M 1886.6471,37.897326 C 1886.2962,34.540855 1886.3305,29.928355 1886.7233,27.647326 L 1887.4373,23.5 1888.1311,28.5 C 1889.1332,35.722592 1889.1393,44 1888.1425,44 1887.6708,44 1886.9979,41.253797 1886.6471,37.897326 z"/>
</svg>
