<svg xmlns="http://www.w3.org/2000/svg"
     width="52.3" height="64.0"
     viewBox="164.6977 19.4261 74.4408 91.0955">
  <path d="M 187.36441,105.23469 C 185.79266,104.21782 180.16253,94.495758 179.41073,91.500343 178.92476,89.564072 179.66064,88.056377 182.87277,84.407203 187.50061,79.149695 188.73071,74.744094 187.01898,69.557503 185.13723,63.855764 180.40475,62.331676 176.36533,66.126514 175.01428,67.395761 173.44445,68.000792 172.47124,67.627339 168.69767,66.179283 174.11589,55.437278 179.80938,53.078956 182.39991,52.005926 182.81475,51.233296 183.37926,46.430159 184.28178,38.751154 186.63954,33.512314 190.52769,30.546679 193.62436,28.184731 194.56422,28.009513 202.87351,28.245052 211.08596,28.477846 212.05043,28.304485 213.9727,26.25 216.45821,23.593547 217.5658,23.426113 218.39301,25.581787 219.75666,29.135392 218.95363,33.570447 216.45953,36.260218 213.59634,39.348044 213.77128,39.304849 205.26345,39.024652 199.5017,38.834895 198.79222,39.053931 195.94449,41.90166 193.09251,44.75364 192.90456,45.365466 193.43021,50.086176 193.74268,52.892338 194.25027,55.595924 194.55818,56.094145 195.39482,57.447843 198.60011,57.18677 199.86568,55.661846 200.47649,54.925861 202.8101,53.774255 205.05148,53.102722 209.0355,51.909081 209.21638,51.962758 213.13263,55.500859 215.33589,57.491368 217.87989,58.977198 218.78597,58.802703 221.29554,58.319403 223.86855,48.705998 223.93891,39.55 223.98409,33.670923 224.29245,31.892446 225.12266,32.722662 226.82784,34.427839 225.69763,51.580673 223.53756,56.779173 220.74768,63.493417 218.99555,63.816434 212.39543,58.833296 L 206.78653,54.598538 203.15507,56.549269 C 198.68634,58.949755 197.68611,62 201.36766,62 202.75053,62 204.16008,61.55 204.5,61 205.92795,58.689527 209.12919,60.383235 214.80772,66.453604 L 220.84475,72.907209 219.08069,78.703604 C 216.95274,85.695666 213.62846,92.371536 210.93193,95.068069 208.95181,97.048185 208.93605,97.046829 204.63556,94.526578 199.43438,91.478479 198.54225,91.428304 195.27287,94 191.64333,96.854995 190.5394,96.522578 188.47941,91.954348 L 186.65508,87.908697 190.45669,84.775089 C 196.73987,79.59596 199.49733,71.068485 197.00696,64.518318 196.46079,63.081783 194.71506,60.516645 193.12755,58.818012 190.83986,56.370196 189.19451,55.629018 185.19519,55.244733 180.76119,54.818682 179.83696,55.072126 177.57461,57.334485 174.41696,60.492135 173.99227,63.609688 176.93426,62.035184 183.85699,58.330251 191.6801,65.759671 190.30134,74.729583 189.59882,79.300015 188.61116,81.35125 184.72805,86.304584 L 181.74548,90.109168 183.44578,93.879771 C 184.38095,95.953604 186.20796,98.966541 187.50579,100.57519 189.5301,103.08429 190.12378,103.32459 191.68275,102.26589 192.68224,101.58713 195.41057,99.858005 197.74571,98.423386 L 201.99141,95.814988 204.99031,98.338394 C 210.21377,102.73364 212.00511,102.75867 215.69684,98.487976 220.10397,93.389674 223.06654,85.068089 223.70278,76 224.01163,71.598071 225.40938,65.091932 227.08654,60.249538 228.65819,55.711784 230.36964,48.571307 230.88977,44.381811 231.4099,40.192314 232.36788,36.255022 233.01862,35.632272 235.13849,33.60359 233.11903,48.809128 230.04794,58 228.48581,62.675 226.7416,70.775 226.17193,76 225.02574,86.5127 220.73023,97.034197 215.43088,102.3093 212.28289,105.44289 209.70587,105.35088 204.90662,101.93351 201.26762,99.342311 200.01948,99.478866 195.1587,103 190.91552,106.07374 189.35353,106.52158 187.36441,105.23469 z M 190.36971,50.75 C 190.70135,49.5125 190.97884,47.4425 190.98635,46.15 190.99407,44.821081 192.4865,42.313502 194.42115,40.37885 197.7783,37.021696 197.98644,36.96188 205.54817,37.181103 212.53669,37.383708 213.42839,37.189182 215.12702,35.091468 218.06915,31.458091 217.35385,27.046154 214.31528,30.08472 212.98076,31.419237 203.92782,31.725761 198.44211,30.62217 194.87073,29.903697 194.00867,30.121829 191.25184,32.441548 186.1577,36.727978 183.1334,49.813423 186.75,51.919901 189.27789,53.392261 189.698,53.256479 190.36971,50.75 z M 210.75064,90.75 C 213.35145,87.962439 217,78.869551 217,75.175388 217,73.202849 215.6041,71.04991 212.0651,67.564122 207.28707,62.85794 207.03277,62.743786 204.0651,63.973034 201.65259,64.972331 201,65.853252 201,68.110594 201,72.289918 197.68218,80.350867 194.1009,84.872607 192.20588,87.265265 191.22744,89.429112 191.60071,90.401838 192.37184,92.411395 194.37656,92.456127 196,90.5 197.69472,88.457984 200.32271,88.61653 204.22583,90.996262 208.29044,93.474453 208.20572,93.47765 210.75064,90.75 z"/>
</svg>
