<svg xmlns="http://www.w3.org/2000/svg"
     width="24.2" height="64.0"
     viewBox="1835.2159 18.8221 32.5397 86.1754">
  <path d="M 1845.658,98.004602 C 1840.4256,93.410468 1839.6353,90.488852 1840.3025,78.206037 1840.6223,72.317717 1841.563,65.364501 1842.3928,62.754446 1843.718,58.586569 1843.7251,57.586204 1842.4508,54.536564 1839.2159,46.794275 1842.09,30.151652 1847.2911,26.508644 1852.5544,22.822134 1856.0251,26.354247 1853.3351,32.659539 1850.785,38.636978 1851.0454,47.644744 1853.914,52.685651 1855.9458,56.255915 1856.1293,57.285075 1855.1625,59.685651 1852.8609,65.400671 1850.9386,76.155827 1851.5942,79.65051 1852.1849,82.799222 1852.5469,83.139195 1854.879,82.735991 1856.3206,82.486768 1858.2926,81.944112 1859.2613,81.530089 1862.1216,80.307665 1860.3187,83.533738 1857.3979,84.86455 1854.1442,86.347067 1851.4905,86.304618 1850.2369,84.75 1848.8854,83.073879 1849.5817,72.695403 1851.4613,66.5 1853.4335,59.999677 1853.3879,57.061678 1851.25,52.903638 1848.971,48.471068 1849.0327,39.821463 1851.3873,33.655975 1853.4447,28.26877 1853.1735,27.488658 1849.5587,28.395903 1845.4354,29.430782 1842.6811,36.045611 1842.7304,44.795009 1842.7617,50.359816 1843.196,52.559068 1844.5612,54.067657 1846.2737,55.959945 1846.2754,56.285101 1844.5994,61.601853 1843.6361,64.65796 1842.3464,71.131325 1841.7335,75.987109 1840.3798,86.711903 1841.6054,91.568317 1846.8215,96.148155 1850.5823,99.450135 1853.2417,99.522507 1859.3237,96.48838 1862.8288,94.73983 1863.7556,95.101578 1861.5139,97.343265 1859.9111,98.946065 1853.9219,100.98422 1850.7848,100.99442 1849.8414,100.99749 1847.5344,99.652071 1845.658,98.004602 z M 1854,91.968615 C 1854,91.401354 1854.7875,90.653127 1855.75,90.30589 1856.7125,89.958653 1858.8001,88.772584 1860.389,87.670182 1862.4062,86.270688 1863.1374,86.093461 1862.8119,87.082907 1862.3281,88.553868 1856.347,93 1854.8521,93 1854.3835,93 1854,92.535877 1854,91.968615 z"/>
</svg>
