<svg xmlns="http://www.w3.org/2000/svg"
     width="33.3" height="64.0"
     viewBox="990.3438 26.0000 40.7978 78.4255">
  <path d="M 994.34375,33.15625 994.8125,36.25 C 994.94804,36.143666 995.08623,36.077985 995.21875,35.96875 998.03389,33.648268 999.50842,33.10174 1001.4688,33.59375 1004.6876,34.401634 1008.2617,39.330946 1008.1875,42.84375 1008.1092,46.55023 1011.7803,59.99415 1013.6562,62.875 1016.4491,67.163584 1016.8952,70.648904 1015.4375,76.71875 1014.336,81.305396 1014.2839,83.586148 1015.1875,87.78125 1016.1262,92.138679 1016.0741,93.332466 1014.9062,94.5 1012.916,96.48965 1010.5112,94.756058 1010.4375,91.28125 1010.3131,85.415766 1008.7915,79.958799 1007,79 1002.6966,76.696884 1002.2228,66.452665 1006.1562,60.84375 1007.9206,58.328052 1007.9267,57.845247 1006.4375,51.84375 1004.2581,43.060387 1000.8033,40.318355 995.8125,43.40625 L 996.1875,46.09375 C 998.90244,44.078514 1001.2201,45.480481 1003.1562,50.6875 L 1005.0938,55.875 1002.5625,60.90625 C 999.49553,66.958627 999.30694,72.217724 1002,77.5 1003.1,79.657586 1004,81.57768 1004,81.75 1004,81.92232 1002.875,82.477226 1001.5,83 1000.125,83.522774 999,84.405137 999,84.96875 999,86.376608 999.66847,86.260486 1002.5938,84.34375 1005.715,82.29859 1006.9513,83.448733 1006.2812,87.75 1005.8736,90.367364 1005.297,91 1003.375,91 1002.0624,91 1001,91.45 1001,92 1001,92.55 1002.2882,93 1003.875,93 1005.8378,93 1007.2762,93.791766 1008.375,95.46875 1010.9917,99.462351 1013.6598,100.42553 1015.6562,98.09375 1016.9131,96.625853 1017.8091,96.358258 1019.125,97.0625 1021.4253,98.293602 1022.75,96.315529 1020.7188,94.6875 1019.9067,94.036594 1018.974,92.073708 1018.6562,90.34375 1018.1869,87.788258 1018.4437,87.102669 1020.0312,86.6875 1022.7688,85.971619 1022.4806,84.154342 1019.5,83.40625 1016.7025,82.704125 1016.5541,82.271941 1018,78.46875 1018.837,76.267383 1019.451,75.89198 1021.5,76.40625 1024.4668,77.150866 1024.6498,76.351616 1022.125,73.5625 1021.0972,72.427052 1019.9736,70.288888 1019.625,68.8125 1019.0623,66.429297 1019.3904,65.999461 1022.5,64.875 1027.1416,63.196581 1026.933,62 1022,62 1018.4514,62 1018,61.740822 1018,59.625 1018,58.131003 1019.0088,56.557837 1020.7188,55.4375 1024.2596,53.11737 1022.0821,52.372844 1017.9688,54.5 1016.2303,55.39896 1014.599,55.942673 1014.3438,55.6875 1014.0885,55.432326 1013.7143,53.309693 1013.5,50.96875 1013.2858,48.627807 1012.642,46.235688 1012.0625,45.65625 1011.4831,45.076812 1011,43.317313 1011,41.75 1011,35.655044 1005.6287,30 999.84375,30 998.62646,30 996.17219,31.417099 994.34375,33.15625 z M 997.21875,72.4375 C 996.93618,72.517428 996.67273,72.689265 996.5,72.96875 996.15454,73.527722 996.58004,74 997.4375,74 999.19403,74 999.44954,73.38849 998.0625,72.53125 997.8065,72.373035 997.50132,72.357572 997.21875,72.4375 z"/>
</svg>
