<svg xmlns="http://www.w3.org/2000/svg"
     width="43.8" height="64.0"
     viewBox="456.1250 38.1861 46.0168 67.1983">
  <path d="M 460.34375,90.375 460.4375,93.8125 C 461.45657,94.504797 462.41499,95.073543 463.59375,96.09375 469.70656,101.38435 473.06288,101.34786 478,96 483.22946,90.335478 486.14884,84.402026 491.3125,69 496.03358,54.918106 498.14185,44 496.125,44 495.51163,44 495,44.233063 495,44.53125 495,50.670425 485.48751,81.256611 481.90625,86.625 480.8554,88.200248 479.07453,90.955638 477.9375,92.71875 474.5687,97.94256 469.86163,98.264091 464.9375,93.65625 463.25815,92.084765 461.85728,91.074236 460.34375,90.375 z M 460.125,79.1875 460.1875,83.125 C 464.19933,86.116896 468.98799,88.20878 471.15625,87.65625 475.24911,86.613282 484.05139,70.233422 482.125,67.25 481.77558,66.708849 480.00238,65.523774 478.1875,64.59375 L 474.90625,62.90625 477.125,59.1875 C 478.34014,57.153282 480.39157,54.043444 481.6875,52.28125 484.31495,48.708462 486.13052,42.186082 484.15625,43.40625 483.51253,43.804086 482.00693,46.012316 480.84375,48.3125 479.68056,50.612683 476.53198,55.3125 473.84375,58.75 471.15551,62.1875 469.07197,65.049488 469.21875,65.09375 469.36553,65.138012 471.525,65.700512 474,66.34375 477.78127,67.326479 478.552,67.932517 478.8125,70.1875 479.17066,73.287892 477.37256,77.057069 473.1875,82 470.32308,85.383129 470.1639,85.441338 467.375,84 465.79512,83.183501 462.56713,81.0375 460.1875,79.25 460.16322,79.231759 460.14935,79.205672 460.125,79.1875 z"/>
</svg>
