<svg xmlns="http://www.w3.org/2000/svg"
     width="29.1" height="64.0"
     viewBox="1654.5882 20.7819 42.4118 93.3793">
  <path d="M 1670.9935,109.06566 C 1662.8176,106.57865 1660.7064,103.85776 1659.4344,94.168606 1658.5882,87.722194 1660.5992,71.076144 1662.9819,64.805645 1664.8521,59.883607 1664.8726,59.298762 1663.3762,53.556834 1662.3938,49.78727 1662.0143,45.644376 1662.3711,42.586192 1662.9853,37.323134 1666.8353,27 1668.184,27 1669.3214,27 1669.3047,27.062115 1666.4216,33.581453 1663.6043,39.951734 1663.5091,45.806513 1666.0683,55.307508 1667.2287,59.615461 1667.171,60.440562 1665.5126,63.247934 1661.5651,69.930581 1660.2889,89.305206 1663.1727,98.77146 1664.299,102.46861 1670.1502,107 1673.7979,107 1676.7364,107 1679.9215,105.31771 1682.1225,102.60318 1683.0604,101.44643 1684.1684,100.83927 1684.5845,101.25394 1685.5438,102.20968 1681.349,106.74828 1677.7997,108.59501 1674.8195,110.14559 1674.5948,110.16113 1670.9935,109.06566 z M 1671.9158,89.842681 C 1670.0248,86.309366 1671.3167,73.38459 1674.2011,66.979355 1675.8542,63.308214 1676.428,60.795595 1675.9138,59.479355 1673.8128,54.101272 1675.349,40.011738 1678.9526,31.608465 1681.8801,24.781879 1682.5707,26.449212 1679.7852,33.618499 1677.9988,38.216174 1677.5135,41.412514 1677.5617,48.26167 1677.6372,58.993139 1678.5628,60.333563 1683.3673,56.669003 1685.2701,55.217695 1687.5524,53.304745 1688.4391,52.418003 1691.1306,49.726519 1693,51.399922 1693,56.500734 1693,60.90849 1690.8016,68 1689.4352,68 1689.0685,68 1686.5315,67.2125 1683.7974,66.25 L 1678.8265,64.5 1676.509,67.396367 C 1673.8463,70.724143 1672.9937,74.135471 1673.0153,81.375 1673.0378,88.909793 1674.1879,90.152254 1677.8723,86.622321 1682.0991,82.572802 1683.6297,83.780349 1679.9415,88.254776 1676.4643,92.473192 1673.6243,93.035095 1671.9158,89.842681 z M 1678,96.452034 C 1678,95.601546 1683.3849,91.067082 1684.4371,91.031601 1684.9525,91.014221 1684.0808,92.35 1682.5,94 1679.8432,96.773147 1678,97.777477 1678,96.452034 z M 1690.0674,63.874134 C 1691.327,61.520404 1691.7622,55.428861 1690.7434,54.4101 1689.6578,53.324476 1681.8742,60.108384 1682.2093,61.84818 1682.4848,63.278594 1686.3583,65.94697 1688.2148,65.985258 1688.608,65.993366 1689.4416,65.04336 1690.0674,63.874134 z"/>
</svg>
