<svg xmlns="http://www.w3.org/2000/svg"
     width="25.5" height="64.0"
     viewBox="755.2577 16.0000 36.6162 92.0000">
  <path d="M 766.80653,99.159974 C 763.33794,96.49796 760.36832,93.644703 760.20738,92.819404 760.04644,91.994105 762.40894,88.660186 765.45738,85.410696 768.50582,82.161206 771,78.95404 771,78.283661 771,77.613282 768.56357,75.22527 765.58572,72.976969 762.60787,70.728667 759.91677,68.225493 759.60551,67.414359 759.25768,66.507934 761.15158,63.642245 764.51979,59.978473 767.53391,56.699869 770,53.494446 770,52.855311 770,52.216176 767.75,49.314203 765,46.406484 761.76162,42.982379 760,40.244806 760,38.636457 760,34.972315 771.72351,20 774.59257,20 777.57294,20 787,34.692699 787,39.337788 787,40.042207 784.525,42.755309 781.5,45.366904 778.475,47.9785 776,50.498075 776,50.965961 776,51.433847 778.06953,54.357223 780.59894,57.462351 784.98576,62.847625 785.13969,63.248553 783.93606,66.154367 783.24205,67.829848 781.17349,70.996969 779.33924,73.192413 L 776.00426,77.18413 781.49763,83.342065 C 786.99401,89.503357 787.87393,91 786,91 785.45,91 785,91.483837 785,92.075193 785,94.084464 776.53503,104 774.8197,104 773.88105,104 770.27512,101.82199 766.80653,99.159974 z M 774.16395,72.509419 C 775.1569,72.89045 776.61895,71.714355 778.46643,69.048439 L 781.26486,65.010302 778.88243,61.511984 C 775.91658,57.156984 774.57969,57.094836 773.24675,61.25 L 772.20418,64.5 772.10209,61.25 C 772.04529,59.441898 771.46655,58 770.79761,58 768.98643,58 763,64.158586 763,66.021853 763,68.873105 770.86804,74.831549 772.0684,72.889326 772.39372,72.36294 773.33672,72.191982 774.16395,72.509419 z M 774.2054,31 C 774.7984,31 774.9149,34.0772 774.50826,39 774.11857,43.717598 774.22748,47 774.77368,47 776.74795,47 783.99938,40.896072 783.98808,39.243728 783.97213,36.911862 777.7921,25.902223 775.79031,24.639527 774.64474,23.91692 773.45946,24.124155 771.53829,25.382951 768.45829,27.401046 763,35.565012 763,38.153674 763,39.122836 764.89922,41.847235 767.22049,44.207893 L 771.44098,48.5 772.34136,39.75 C 772.83656,34.9375 773.67538,31 774.2054,31 z M 780.35628,95.478137 784.13609,90.956273 782.10033,87.662343 C 780.98066,85.850681 779.12257,83.515913 777.97124,82.473969 775.1613,79.931015 774.14211,81.652654 774.50257,88.333276 774.65345,91.129761 774.55396,93.998791 774.28146,94.708897 773.45968,96.850444 771.84395,96.159507 772.03913,93.75 772.59069,86.940744 771.9962,84 770.06809,84 768.01131,84 764,88.817736 764,91.288008 764,93.505505 771.67168,100 774.29112,100 775.7774,100 777.89809,98.418921 780.35628,95.478137 z"/>
</svg>
