<svg xmlns="http://www.w3.org/2000/svg"
     width="40.7" height="64.0"
     viewBox="849.6099 15.9241 59.6303 93.6665">
  <path d="M 867.45873,43.045599 C 868.94265,41.405893 869.04811,40.576772 868.11372,37.896376 867.50117,36.139223 867,33.643704 867,32.350777 867,29.502833 865.45277,29.285468 864.03518,31.934259 862.23531,35.297353 862.91614,45 864.952,45 865.35791,45 866.48594,44.12052 867.45873,43.045599 z M 898.58793,95.25 C 895.65284,89.957712 893.92005,84.528428 893.31328,78.723166 892.63925,72.274458 891.93981,72.312562 888.23174,79 886.52577,82.076695 885.88038,82.461566 882.89553,82.182214 866.24744,80.624125 861.94172,62.038472 875.47588,50.15532 877.45242,48.419894 879.46713,47 879.95301,47 880.43889,47 881.52569,46.735505 882.36812,46.412233 883.43699,46.002071 884.33103,46.856506 885.32688,49.239911 886.26312,51.480653 888.02798,53.259924 890.45818,54.413133 892.49552,55.37991 894.36184,55.971494 894.60557,55.727763 894.8493,55.484033 894.36276,52.651033 893.52436,49.43221 891.57878,41.962622 891.59302,36.26864 893.57185,30.440127 894.43636,27.893756 894.8996,25.566268 894.60127,25.267932 893.6749,24.341562 888.15123,30.93979 886.85711,34.518621 885.76668,37.534142 884.88615,38.150454 879.06389,39.973362 875.45375,41.103671 871.05993,43.273611 869.29984,44.795451 861.22331,51.778732 856.47128,71.157152 860.78009,79.538296 863.82183,85.454836 867.85411,88.745929 874.01273,90.338608 878.70109,91.551062 879.89539,91.55576 882.21573,90.370878 884.82398,89.038969 885.10986,89.16249 889.43941,93.492043 892.83366,96.886294 894.709,98 897.03022,98 900.0964,98 900.10482,97.985125 898.58793,95.25 z M 860,98.076725 C 860,97.568924 861.19346,95.735108 862.65213,94.001578 L 865.30425,90.849706 862.68243,88.227883 C 861.24043,86.785881 859.78201,85.884658 859.4415,86.225166 858.30277,87.363896 856.93081,95.206654 857.53651,97.115021 858.14549,99.033758 860,99.757726 860,98.076725 z M 857.73616,103.75 C 853.95396,100.87792 853.60989,91.334487 857.05635,84.894709 857.85779,83.397198 857.8399,80.979477 856.99008,75.941163 855.6452,67.967808 856.49645,62.456817 860.45585,53.503919 862.74111,48.336529 862.83749,47.606076 861.48821,45.679712 860.6697,44.511113 860,41.871996 860,39.815006 860,32.346908 866.42617,19.924106 868.91876,22.573629 869.39809,23.083133 869.9712,26.536247 870.19235,30.247216 870.70512,38.851858 871.48942,39.666373 877.54276,37.880807 881.45624,36.726439 882.80059,35.63132 885.74048,31.202857 889.4802,25.569589 894.21454,21.39736 897.5,20.839558 899.95378,20.422958 899.80495,22.351401 896.83455,29.4624 894.21406,35.735729 894.66804,45.736369 897.86589,52.181436 899.86354,56.207584 899.89383,56.584639 898.31319,57.75 897.38069,58.4375 896.0143,59 895.27675,59 892.49568,59 886.72785,55.920173 883.9601,52.957285 881.40961,50.22698 880.83327,50.018863 878.81459,51.09923 872.18648,54.646488 868.54185,64.460637 871.42416,71 874.17235,77.2351 876.34235,79.006005 881.16029,78.945508 885.20386,78.894735 885.71041,78.570602 888.58341,74.195508 891.43761,69.849045 896.25164,65.918311 897.36144,67.028108 897.6226,67.289269 897.35267,69.616333 896.76159,72.199361 895.29265,78.618638 897.81529,88.942307 902.17996,94.373555 905.18034,98.107135 905.24017,98.351215 903.47189,99.644215 901.2227,101.28886 895.66862,101.41026 892.68426,99.880006 891.48292,99.264009 889.1428,97.477791 887.48399,95.910633 884.97909,93.544124 883.7081,93.098167 879.98399,93.279077 877.5178,93.39888 873.84359,93.14554 871.81909,92.7161 868.70083,92.054647 867.80296,92.284164 865.94504,94.217649 864.73881,95.472942 862.88666,98.4125 861.82915,100.75 859.6392,105.59064 859.90424,105.39637 857.73616,103.75 z"/>
</svg>
