<svg xmlns="http://www.w3.org/2000/svg"
     width="30.1" height="64.0"
     viewBox="1706.2805 18.9733 41.1573 87.5609">
  <path d="M 1713.9465,45.335121 1718.003,39.670242 1715.8493,36.085121 C 1710.9523,27.933174 1710.572,27.096834 1711.4057,26.314557 1711.8832,25.866551 1712.4383,25.95 1712.6394,26.5 1712.8405,27.05 1714.7978,30.139173 1716.9889,33.364828 L 1720.9727,39.229657 1718.8254,42.364828 C 1715.9156,46.613579 1711.8175,51 1710.7579,51 1710.2805,51 1711.7154,48.450804 1713.9465,45.335121 z M 1723.5306,94.641279 C 1717.6711,82.167627 1717.7113,81.50097 1724.8808,72.233164 1728.2464,67.882592 1731,63.632029 1731,62.787469 1731,60.969998 1726.2925,52.298811 1724.8076,51.381087 1724.24,51.030301 1722.104,52.684161 1720.061,55.056331 1718.0179,57.4285 1716.0912,58.948759 1715.7795,58.434683 1714.8951,56.976349 1724.7405,46.336312 1725.888,47.51029 1727.657,49.320038 1734,61.168667 1734,62.663322 1734,64.096359 1730.9971,68.188983 1724.1214,76.126685 1720.0495,80.827447 1720.1966,83.591266 1725.0421,93.434032 1726.7846,96.973444 1727.9879,100.46123 1727.7162,101.18466 1727.4445,101.9081 1725.561,98.963576 1723.5306,94.641279 z M 1724.0714,32.768142 C 1718.9169,26.490708 1717.9641,25 1719.1064,25 1719.8127,25 1721.6548,26.211221 1723.2,27.691603 L 1726.0094,30.383205 1729.5047,26.995436 C 1733.6545,22.97328 1733.9467,23.515598 1730.4261,28.705591 1727.3156,33.290889 1725.4697,34.470997 1724.0714,32.768142 z M 1734.3817,99.859653 C 1732.89,97.919369 1729,85.411485 1729,82.555726 1729,81.234475 1730.0646,78.881424 1731.3657,77.326725 1732.6669,75.772026 1735.1772,72.142938 1736.9441,69.262085 L 1740.1567,64.02417 1737.5755,58.262085 C 1736.1559,55.092938 1733.8544,50.33317 1732.4611,47.684821 L 1729.9278,42.869643 1732.9703,37.551996 C 1735.7519,32.690192 1739,28.833623 1739,30.392704 1739,30.74338 1737.65,33.422366 1736,36.346005 1732.3955,42.732914 1732.3626,43.254393 1735.3083,47.316722 1736.5779,49.067525 1738.8309,53.5539 1740.3151,57.286443 1743.4378,65.139415 1743.3701,65.398175 1735.5836,75.37032 1733.0626,78.598996 1731,81.458919 1731,81.725706 1731,81.992492 1732.1571,86.004434 1733.5714,90.641132 1736.1295,99.027899 1736.4377,102.53418 1734.3817,99.859653 z"/>
</svg>
