<svg xmlns="http://www.w3.org/2000/svg"
     width="27.7" height="64.0"
     viewBox="384.5938 24.9143 30.8172 71.1783">
  <path d="M 388.59375,34.375 389.5,37.15625 C 390.41163,35.552175 391.59405,34.514983 393.53125,33.25 397.75411,30.4925 399.61956,30.416515 400.96875,32.9375 402.86975,36.489564 402.20898,40.818758 399.5,42.59375 398.125,43.494685 397,44.627777 397,45.125 397,45.622223 398.125,45.751353 399.5,45.40625 401.80518,44.827686 402,45.065696 402,48.25 402,50.433429 401.2645,52.355641 400,53.5 398.9,54.495486 398,55.768993 398,56.34375 398,56.984329 398.45192,56.923084 399.1875,56.1875 401.20499,54.170005 402,54.853216 402,58.5625 402,61.154113 401.25874,62.78029 399.25,64.625 L 396.5,67.15625 399.25,66.5625 C 401.90927,65.989587 402,66.105328 402,70.1875 402,73.57706 401.36717,75.051753 398.8125,77.6875 395.43685,81.170289 395.59912,83.577753 399,80.5 400.10337,79.501462 400.99249,79.096007 401,79.59375 401.00751,80.091494 401.27931,81.453287 401.59375,82.625 401.99929,84.13623 401.35506,85.547101 399.34375,87.46875 L 396.5,90.1875 399.78125,89.5 C 401.85764,89.072352 403.62669,89.285847 404.5625,90.0625 407.00853,92.092531 407.39331,90.28993 405.125,87.40625 401.93536,83.35128 402.45405,77.860298 405.71875,81.125 406.33082,81.737077 407.35428,81.899077 408,81.5 408.80178,81.004476 408.18701,79.755429 406.03125,77.53125 403.25471,74.666586 402.95846,73.813582 403.5625,70.59375 404.12507,67.595023 404.58246,67.041669 406.125,67.53125 408.40473,68.254809 408.58282,66.749204 406.4375,64.96875 402.28104,61.519188 402.38548,56.568791 406.59375,57.625 409.72546,58.41101 409.67637,56.674989 406.5,54.59375 404.52701,53.300996 404,52.107343 404,48.96875 404,45.716107 404.33865,45 405.90625,45 406.96041,45 408.00296,45.540122 408.21875,46.1875 408.43455,46.834878 409.11898,47.046242 409.75,46.65625 411.41098,45.629709 410.35107,43.6429 407.09375,41.71875 405.02698,40.49788 404.10493,38.993394 403.65625,36.1875 403.31745,34.068772 402.12555,31.52158 401.03125,30.53125 399.30752,28.971294 398.65243,28.914274 396.03125,30 394.36721,30.689266 393,31.57376 393,31.96875 393,32.363741 391.83281,33.225014 390.40625,33.875 389.67931,34.206215 389.11835,34.32904 388.59375,34.375 z"/>
</svg>
