<svg xmlns="http://www.w3.org/2000/svg"
     width="43.6" height="64.0"
     viewBox="108.4802 21.0442 57.3495 84.1139">
  <path d="M 122,99.02417 C 122,98.487463 122.89832,96.574963 123.99626,94.77417 126.64928,90.422828 126.57324,89.904179 122.5,84.567943 118.4109,79.21093 118.35091,78.721617 121.03835,72.646214 L 123.0767,68.038191 119.15062,63.071333 C 114.42697,57.09547 112.48019,50.07986 113.39223,42.319838 114.34306,34.229767 119.63958,25.044209 121.88429,27.592382 122.32403,28.091572 123.49486,31.65 124.48613,35.5 127.45856,47.044663 129.95531,53.000217 131.82185,52.998067 134.36474,52.995138 139.62496,44.499691 143.15883,34.688415 145.10185,29.293928 146.67514,26.275135 147.24602,26.846017 148.66705,28.267046 148.25361,43.870837 146.64578,49.5 145.86031,52.25 144.30022,56.784338 143.1789,59.576306 L 141.14015,64.652612 143.29693,68.899516 C 145.63438,73.502155 145.27844,73.436463 154.24416,70.919927 160.59019,69.138694 161.82969,70.266029 160.06926,76.217904 158.85062,80.338062 156.45796,84 154.98456,84 154.59655,84 152.6769,82.912724 150.71867,81.58383 147.30602,79.267946 147.09075,79.242237 145.5322,80.964414 144.63788,81.952629 143.03973,84.460633 141.98075,86.537759 140.19069,90.04886 140.16558,90.546682 141.62363,93.619287 144.07967,98.795016 142.65368,99.995751 139.66794,95.26604 138.20057,92.941577 137,90.613053 137,90.091543 137,89.570032 138.64523,86.381484 140.65607,83.005881 L 144.31213,76.86842 141.06526,70.820228 137.8184,64.772036 140.92525,57.370603 C 143.58342,51.038057 146.44701,38.244894 145.45141,37.149864 144.65846,36.277734 143.34694,38.210322 141.51073,42.956642 140.41663,45.784712 137.64133,50.213904 135.3434,52.799293 131.5516,57.065422 131.01777,57.35678 129.56922,55.950835 128.69135,55.098795 126.67098,49.84608 125.0795,44.278136 121.28855,31.01513 120.90555,30.3419 118.60031,32.889157 117.62244,33.969696 116.42306,36.574175 115.93504,38.676887 113.70566,48.282348 115.77465,55.545594 122.96103,63.341897 L 127.07329,67.803176 124.53665,71.541135 C 123.14149,73.597012 122,76.12524 122,77.159419 122,79.137847 126.18178,86.376276 127.95948,87.474957 129.6324,88.508876 129.18342,90.614815 126.25728,95.459242 123.64916,99.777169 122,101.15813 122,99.02417 z M 157.42446,76.747177 C 157.93291,74.694804 158.09405,72.76072 157.78255,72.449214 156.87117,71.537833 150,74.778955 150,76.120233 150,78.061683 153.22562,81.1029 154.93849,80.776406 155.79884,80.612414 156.91511,78.803179 157.42446,76.747177 z"/>
</svg>
