<svg xmlns="http://www.w3.org/2000/svg"
     width="27.4" height="64.0"
     viewBox="2185.5625 19.0955 35.7741 83.5878">
  <path d="M 2209.0304,82.75 C 2208.9951,80.719023 2207.9013,80.49873 2206.2167,82.183333 2203.6939,84.706052 2203.7961,81.822242 2206.3229,79.18485 2208.2386,77.185287 2209,75.339585 2209,72.695281 2209,68.856709 2208.2343,68.165683 2206.2167,70.183333 2205.5658,70.834167 2204.6883,71.020884 2204.2667,70.598262 2203.845,70.175639 2204.7375,68.764724 2206.25,67.462894 2208.5057,65.521396 2209,64.272106 2209,60.512782 2209,56.23951 2208.8648,56.002003 2207,57 2205.9,57.588702 2205,57.665221 2205,57.170042 2205,56.674864 2205.9,55.125553 2207,53.727129 2208.1,52.328706 2209,49.762695 2209,48.024883 2209,45.3203 2208.7119,44.956649 2207,45.5 2205.9,45.849126 2205,45.724195 2205,45.222375 2205,44.720555 2205.9,43.495486 2207,42.5 2208.5703,41.078918 2209,39.420033 2209,34.779271 2209,31.528356 2208.5342,27.998101 2207.9648,26.934259 2206.8765,24.900804 2202.5667,24.274061 2201.5033,25.994623 2201.1652,26.541665 2199.9012,27.465453 2198.6943,28.047485 2197.1583,28.788249 2197.4,28.341347 2199.5,26.55783 2202.7296,23.814921 2208.3186,23.095526 2209.6605,25.25 2210.0888,25.9375 2210.742,29.406629 2211.1121,32.959176 2211.6588,38.206211 2212.2744,39.839251 2214.3925,41.66121 2215.8266,42.894782 2217,44.652407 2217,45.567044 2217,47.104705 2216.8143,47.10832 2214.5352,45.61501 2211.1554,43.400509 2211,43.492284 2211,47.702393 2211,50.512167 2211.7706,52.199813 2214.1962,54.702393 2217.3366,57.942458 2216.7445,59.003983 2212.9343,56.964816 2211.1562,56.013242 2211,56.290068 2211,60.392236 2211,63.96128 2211.5006,65.248598 2213.5,66.82134 2216.6523,69.30092 2216.9538,71.580837 2213.9144,69.954163 2211.4305,68.624838 2211.419,68.634114 2210.5541,72.673707 2209.9628,75.43551 2210.2721,76.141298 2212.9373,78.111766 2214.6218,79.357159 2216,80.966491 2216,81.688058 2216,83.263875 2215.4632,83.318282 2212.9876,81.993389 2211.537,81.217041 2210.8728,81.388604 2210.0838,82.743389 2209.1119,84.412226 2209.0593,84.412556 2209.0304,82.75 z M 2204,97.382015 C 2204,97.042123 2205.2375,95.354623 2206.75,93.632015 L 2209.5,90.5 2212.4491,93.217526 C 2216.0002,96.489653 2215.5173,97.398985 2211.1118,95.736087 2208.2673,94.662404 2207.7318,94.727839 2206.878,96.253477 2205.945,97.920695 2204,98.683374 2204,97.382015 z M 2189.5625,32.59375 2190,38 2191.375,40.0625 C 2192.1945,36.9284 2193.6278,34.155523 2195.75,31.53125 2196.6475,30.421359 2195.8695,31.025881 2194.0312,32.875 L 2190.6875,36.21875 2189.5625,32.59375 z"/>
</svg>
