<svg xmlns="http://www.w3.org/2000/svg"
     width="32.0" height="64.0"
     viewBox="2224.7089 17.4656 44.2660 88.5295">
  <path d="M 2234.75,99.516365 C 2231.9248,97.029783 2231.2242,94.597523 2233.0143,93.491168 2233.5721,93.146392 2234.9512,91.055877 2236.0788,88.845579 2237.9672,85.144011 2238.0047,84.656118 2236.5538,82.663427 2228.9445,72.212214 2228.7089,70.908044 2233.0181,63.090231 2234.6582,60.114858 2236,57.131878 2236,56.461385 2236,55.790893 2234.425,52.626762 2232.5,49.429983 2230.575,46.233203 2229,43.238075 2229,42.774141 2229,42.310207 2231.025,38.361844 2233.5,34 2235.975,29.638156 2238,25.405323 2238,24.593705 2238,21.465636 2240.0176,22.140145 2243.6464,26.481369 2245.7238,28.966616 2248.1857,31 2249.1171,31 2250.0486,31 2252.6961,29.42486 2255.0004,27.499688 2257.3047,25.574517 2259.5644,24.230784 2260.022,24.513616 2260.4797,24.796448 2261.3676,26.583808 2261.9952,28.485526 2264.2864,35.427829 2258.463,40.539007 2252.7897,36.565246 2249.332,34.143368 2247.3879,34.677313 2245.014,38.700914 2242.3969,43.136495 2242.7974,46.341378 2246.7486,52.581659 2249.6912,57.22895 2252.0692,58.018611 2255.4411,55.468197 2260.0894,51.952388 2264.0942,56.07782 2262.4241,62.661513 2260.9908,68.31129 2258.9642,68.931754 2254.2192,65.173571 2249.8092,61.680852 2248.4973,61.359819 2246.5582,63.298897 2245.033,64.824112 2242,70.493814 2242,71.819712 2242,72.325179 2243.8039,75.004372 2246.0087,77.773474 2250.1313,82.951214 2252.4184,83.610682 2255.0897,80.391935 2255.725,79.626371 2257.0576,79 2258.051,79 2262.925,79 2264.9749,87.503345 2260.805,90.424036 2258.7759,91.845276 2258.2696,91.761993 2254.1063,89.322154 2249.9518,86.887466 2249.5211,86.815985 2248.5513,88.400221 2242.3541,98.523734 2239.853,101.9951 2238.7754,101.9684 2238.0739,101.95102 2236.2625,100.8476 2234.75,99.516365 z M 2242.2788,94.701172 C 2243.6626,92.886817 2245.2523,89.745841 2245.8113,87.721226 2246.7012,84.498128 2246.5302,83.633233 2244.4366,80.770054 2243.1215,78.971524 2241.3044,76.095096 2240.3986,74.377991 2238.7616,71.274807 2238.777,71.218691 2242.9512,65.071797 L 2247.1508,58.887613 2244.4452,53.693806 C 2242.9571,50.837213 2241.1475,47.647198 2240.424,46.604883 2239.2872,44.967312 2239.5195,43.919919 2242.1332,38.897761 2245.1132,33.172007 2245.1309,33.048483 2243.329,30.574302 2242.3231,29.193003 2240.9676,28.048709 2240.3169,28.031425 2239.0617,27.998087 2232,40.509102 2232,42.766135 2232,43.498506 2233.9,46.791909 2236.2222,50.084808 2239.7474,55.083454 2240.2481,56.354878 2239.2552,57.785948 2238.6011,58.728677 2236.6793,61.84279 2234.9846,64.706199 2231.9479,69.837122 2231.9278,69.960024 2233.5951,73.206199 2234.5256,75.01779 2236.3291,77.474146 2237.603,78.664769 2240.7915,81.644895 2241.6604,85.612818 2239.6185,87.869035 2238.7283,88.852681 2238,90.036615 2238,90.5 2238,90.963385 2237.2629,92.157011 2236.362,93.152502 2235.0266,94.628072 2234.9569,95.24309 2235.9844,96.481242 2237.8969,98.785644 2239.5117,98.328974 2242.2788,94.701172 z M 2260.8268,86.194958 C 2261.1768,83.725498 2259.4744,80.978776 2257.6276,81.033269 2257.0074,81.051567 2255.391,81.989341 2254.0356,83.11721 L 2251.5711,85.167882 2254.0356,87.083793 C 2257.256,89.587434 2260.4043,89.175389 2260.8268,86.194958 z M 2259.8271,62.659422 C 2260.0196,61.659735 2259.9094,59.775313 2259.5823,58.471817 2259.0166,56.218149 2258.8299,56.168085 2255.7768,57.45182 2251.6785,59.175002 2251.3453,60.312104 2254.1678,62.941706 2256.8036,65.397293 2259.324,65.271573 2259.8271,62.659422 z M 2259.8282,32.628178 C 2260.3436,28.117467 2258.4401,27.105307 2255.3164,30.229078 2253.042,32.503415 2252.8517,33.116325 2253.9925,34.490972 2256.1159,37.049473 2259.4443,35.986997 2259.8282,32.628178 z"/>
</svg>
