<svg xmlns="http://www.w3.org/2000/svg"
     width="29.2" height="64.0"
     viewBox="1386.8647 16.0000 40.4165 88.6309">
  <path d="M 1420.125,79.84375 C 1418.0164,82.851369 1414.7194,85.113595 1412.125,84.8125 1407.9119,84.32355 1406.8376,77.908365 1408.5938,63.78125 1409.3658,57.571768 1409.995,50.76245 1410,48.65625 1410.0088,44.92284 1410.0752,44.857615 1413,45.5 1414.6776,45.86846 1416,45.745856 1416,45.21875 1416,44.145278 1406.4624,35 1405.3438,35 1403.8447,35 1391,43.25464 1391,44.21875 1391,44.769765 1392.125,45.012848 1393.5,44.75 L 1396,44.28125 1396.0312,65.875 C 1396.0766,88.25528 1396.7571,92.857622 1400.5625,97.0625 1403.7919,100.63089 1410.5633,99.152616 1419.6875,92.875 1422.0509,91.248914 1423.1355,90.165836 1423.2812,89.65625 L 1423.2188,89.46875 C 1422.8703,89.010965 1420.2658,89.951504 1416.1875,92.46875 1412.9706,94.454358 1408.7074,96.328453 1406.6875,96.65625 1403.0879,97.240379 1402.9567,97.158418 1400.75,92.375 1398.6126,87.741667 1398.497,86.38326 1398.625,65.21875 1398.7448,45.409888 1398.9583,42.706747 1400.5312,40.96875 1402.4619,38.83544 1405.0097,38.416031 1406.5938,40 1407.2706,40.676823 1407.1898,44.534273 1406.3438,51.75 1404.5531,67.020667 1404.6409,80.407072 1406.5312,84.0625 1407.8189,86.552424 1408.666,87 1411.9062,87 1414.2316,87 1416.7414,86.211246 1418.2812,85 1419.6197,83.947144 1420.4982,83.476454 1421.25,83.34375 L 1420.125,79.84375 z M 1405.5312,20 C 1404.6267,20 1401.0982,21.913008 1397.6875,24.25 1394.2769,26.586992 1391.3229,28.611992 1391.0938,28.75 1390.8647,28.888008 1390.9248,29.268532 1391.25,29.59375 1392.2072,30.550991 1395.539,29.120562 1398.625,26.4375 1403.0909,22.554669 1405.1247,22.467539 1410.3125,25.96875 1412.8577,27.686433 1415.2095,29.541767 1415.5312,30.0625 1416.246,31.219012 1419,31.316412 1419,30.1875 1419,28.160884 1408.2076,20 1405.5312,20 z M 1405.7812,27.3125 C 1405.0051,27.347402 1403.9173,27.860768 1401.8125,28.90625 1396.5555,31.517451 1391.3367,35.68051 1392.2188,36.5625 1392.5747,36.91838 1395.5369,35.738273 1398.8125,33.9375 L 1404.7812,30.65625 1409.6562,34.25 C 1412.3282,36.229519 1415.0625,37.897786 1415.75,37.9375 1418.216,38.079948 1416.9249,35.453599 1413.3125,33 1411.2882,31.625 1408.8368,29.653548 1407.875,28.625 1407.0218,27.712542 1406.5574,27.277598 1405.7812,27.3125 z"/>
</svg>
