<svg xmlns="http://www.w3.org/2000/svg"
     width="29.0" height="64.0"
     viewBox="1023.1208 17.1558 39.9627 88.1030">
  <path d="M 1036.25,97.472975 C 1034.4027,96.170544 1034,94.944767 1034,90.624797 1034,87.73081 1034.6903,83.038546 1035.534,80.197544 1036.9257,75.511091 1036.9192,74.744353 1035.4634,71.929257 1032.954,67.076524 1032.3755,52.660055 1034.4095,45.663428 L 1036.0869,39.893306 1032.0434,33.704994 C 1028.0311,27.564322 1027.1208,25 1028.9533,25 1029.9725,25 1031.2897,26.697379 1036.1831,34.316405 L 1039.2764,39.13281 1037.5049,44.983665 C 1035.4064,51.914603 1035.8003,63.823567 1038.3698,71.130263 1039.811,75.228749 1039.8324,76.156969 1038.5557,79.212424 1037.7624,81.110969 1036.8117,84.938667 1036.443,87.718419 1035.8621,92.096834 1036.064,93.064047 1037.9532,94.95317 1039.6845,96.684456 1040.4277,96.889961 1041.5597,95.950424 1043.6632,94.20472 1045.2296,87.318683 1044.5024,83.014475 1043.8764,79.308932 1043.9553,79.19531 1049.9251,75.208859 1057.1866,70.35978 1059.0835,71.315522 1052.1229,76.316228 1047.2516,79.815919 1047.2438,79.830831 1046.8255,86.39978 1046.1836,96.479871 1041.6195,101.25879 1036.25,97.472975 z M 1037.6871,27.195281 C 1034.1489,23.502162 1034.1114,21.155832 1037.6349,23.92742 1040.7468,26.375264 1042.8421,26.575101 1043.6384,24.5 1044.2185,22.988285 1047.0271,22.355706 1046.9684,23.75 1046.9208,24.878489 1042.2227,30 1041.2351,30 1040.7616,30 1039.165,28.737877 1037.6871,27.195281 z M 1044.0108,69.25 C 1044.0168,68.2875 1044.6918,65.290981 1045.5108,62.591069 1047.2435,56.879412 1047.4271,49.078035 1045.9537,43.772655 1045.0306,40.449031 1045.288,39.24555 1048.33,32.661547 1051.732,25.29833 1054,22.42154 1054,25.4695 1054,26.342643 1052.6101,29.810467 1050.9113,33.175775 1047.9993,38.94429 1047.893,39.546296 1049.0541,43.693279 1050.249,47.96115 1049.8754,59.216086 1048.3467,65 1047.7058,67.425169 1047.7455,67.447618 1049.6717,65.75 1052.081,63.626789 1053,63.537714 1053,65.42742 1053,67.292243 1048.2528,71 1045.8651,71 1044.7514,71 1044.0044,70.295025 1044.0108,69.25 z"/>
</svg>
