<svg xmlns="http://www.w3.org/2000/svg"
     width="31.3" height="64.0"
     viewBox="1416.1250 15.8615 43.1593 88.1218">
  <path d="M 1420.125,79.84375 1421.25,83.34375 C 1422.5164,83.120215 1423.2561,84.141657 1424.0938,86.9375 1425.4378,91.423277 1433.4659,99.98322 1434.9062,98.46875 1435.4346,97.913113 1435.46,95.411713 1434.9688,92.5 1433.7835,85.475168 1433.817,70.21542 1435.0312,65.84375 1435.5918,63.825263 1436.8909,61.128904 1437.9062,59.875 L 1439.75,57.59375 1441.2812,60.5625 C 1444.0101,65.839349 1445.3026,75.559433 1444.7188,86.15625 L 1444.1875,96.1875 1446.5312,93.96875 C 1450.0453,90.667528 1454.1644,79.519242 1454.75,71.75 1455.2843,64.660698 1453.0229,55.644468 1448.9688,48.65625 1445.9243,43.408426 1445.4719,35.317012 1447.9062,29.65625 1450.154,24.429215 1450.5262,22 1449.0625,22 1448.5521,22 1447.1308,24.5875 1445.875,27.75 1442.557,36.105544 1442.8665,44.087544 1446.7812,50.5625 1453.4149,61.534547 1454.7625,74.67615 1450.1875,83.59375 L 1448.2812,87.375 1447.5625,77.9375 C 1447.1734,72.747706 1445.884,65.575 1444.6875,62 1442.7843,56.313442 1442.1871,55.5 1440,55.5 1437.9938,55.5 1436.9265,56.588482 1434.5625,61 1431.7369,66.273039 1431.603,67.033229 1431.5625,79.6875 1431.5227,92.10112 1431.4316,92.777741 1429.8125,91.3125 1426.7206,88.514348 1424.6892,80.426426 1425.4375,73.8125 1425.8092,70.527462 1426.48,66.848436 1426.9375,65.65625 1430.0534,57.535931 1431.5534,54.291719 1432.875,52.71875 1434.2235,51.113882 1434.2036,50.220814 1432.6875,44.53125 1430.5517,36.515674 1430.61,33.833898 1432.9688,27 1434.0108,23.980875 1434.6262,21.280875 1434.3438,21 1433.1991,19.861467 1430.0389,25.392979 1428.875,30.59375 1427.8205,35.305641 1427.9049,37.166487 1429.3125,43.03125 L 1430.9688,49.9375 1428.125,56.21875 C 1426.5635,59.671087 1424.7538,64.75 1424.0938,67.5 1423.4337,70.25 1422.465,74.165533 1421.9375,76.1875 1421.6034,77.46818 1420.931,78.694064 1420.125,79.84375 z M 1440.5625,22.28125 C 1440.3316,22.347351 1439.9657,22.613541 1439.5,23 1436.5662,25.434837 1434.5631,37.319632 1436.0938,43.25 1436.6977,45.590278 1437.6714,47 1438.6562,47 1439.809,47 1440.0758,46.393539 1439.625,44.75 1438.0001,38.826194 1437.9361,35.017085 1439.4062,29.34375 1440.8717,23.688649 1441.2552,22.082946 1440.5625,22.28125 z"/>
</svg>
