<svg xmlns="http://www.w3.org/2000/svg"
     width="26.4" height="64.0"
     viewBox="1909.1592 18.0000 35.9970 87.2829">
  <path d="M 1941.125,24.15625 C 1938.9374,25.465614 1936.8855,27.080012 1935.6562,28.9375 1933.1759,32.685455 1933.1714,32.763935 1933.6875,51.09375 1934.229,70.330287 1932.7629,84.847095 1929.5,92.65625 1925.8955,101.28294 1923.0906,91.475651 1923.0312,70 1923.005,60.492316 1923.5816,51.213891 1924.5,46 1925.3235,41.325 1925.9993,36.971364 1926,36.34375 1926.0017,34.914094 1918.6359,25.931553 1916.4688,24.71875 1913.1592,22.866564 1913.9015,25.076145 1918.375,30.3125 1923.2941,36.070399 1923.9337,38.817096 1922.0625,46 1920.716,51.168833 1920.0916,74.50897 1921.0938,82 1922.6184,93.396377 1923.0569,95.056906 1925.125,97.125 1927.01,99.009973 1927.2829,99.05699 1928.9688,97.53125 1932.9744,93.906135 1934.3724,84.10722 1934.6875,57.5 1934.9535,35.042357 1935.185,32.245764 1936.8438,30 1937.8695,28.611339 1939.4744,27.176096 1941.1562,25.9375 L 1941.125,24.15625 z M 1931.8125,22 C 1930.952,22 1929.6516,22.702143 1928.9375,23.5625 1928.1135,24.555419 1926.7878,24.901519 1925.3125,24.53125 1922.7841,23.896664 1922.2892,24.914191 1924.1875,26.8125 1926.0309,28.655887 1927.3735,28.263351 1930.5,25 1932.573,22.836213 1932.9411,22 1931.8125,22 z"/>
</svg>
