<svg xmlns="http://www.w3.org/2000/svg"
     width="26.6" height="64.0"
     viewBox="1504.5312 18.0000 34.4688 83.0632">
  <path d="M 1509.125,82.65625 1508.9688,86.40625 C 1511.2419,86.311053 1513.7919,84.334186 1515.5,81.03125 1518.2152,75.780615 1520.7011,60.431427 1520.9688,47.28125 1521.0343,44.065721 1524.1402,42.696968 1526.9375,44.65625 1528.5461,45.782951 1528.8727,46.533473 1528.0938,47.3125 1527.4381,47.968214 1527,53.035074 1527,60.125 1527,73.858785 1525.6829,80.731191 1521.7812,87.15625 1518.3557,92.797496 1514.2691,94.722164 1508.6562,93.34375 L 1508.5312,96.0625 C 1514.9039,97.063164 1520.0653,94.280922 1523.4375,87.78125 1527.0779,80.764499 1529,70.809319 1529,59.09375 1529,48.843789 1529.4143,47.269663 1531.6875,49.15625 1532.6274,49.936337 1533.402,49.972967 1534.0938,49.28125 1534.7855,48.589532 1533.5987,46.935105 1530.4062,44.125 1527.8202,41.848644 1525.3369,40 1524.875,40 1524.1997,40 1513.6997,46.293024 1512.0938,47.65625 1510.8021,48.752811 1513.3797,49.153543 1515.5,48.1875 L 1518,47.03125 1518,56.40625 C 1518,66.50825 1515.5504,76.870816 1512.1562,81.0625 1511.1079,82.357196 1510.0351,82.763784 1509.125,82.65625 z M 1523.0312,22 1516.0625,26.25 C 1512.2162,28.58636 1509.0476,30.8375 1509.0312,31.25 1508.9738,32.696661 1511.3766,31.987699 1516.7812,28.9375 1523.1703,25.331783 1525.2444,25.56655 1529.5,30.40625 1532.189,33.464278 1535,34.993262 1535,33.40625 1535,31.772781 1530.3326,26.600406 1526.9062,24.4375 L 1523.0312,22 z M 1524.0312,30.875 1517.25,34.625 C 1509.2286,39.043785 1509.5168,38.829421 1510.2812,39.59375 1511.1002,40.412728 1519.6987,37.087193 1521.0938,35.40625 1522.0262,34.282789 1522.6258,34.29057 1524.8438,35.4375 1526.3022,36.191706 1528.3598,37.749941 1529.4062,38.90625 1531.6076,41.338761 1535,41.695402 1535,39.5 1535,38.675 1534.4745,38 1533.8438,38 1533.2128,38 1530.7619,36.393435 1528.375,34.4375 L 1524.0312,30.875 z"/>
</svg>
