<svg xmlns="http://www.w3.org/2000/svg"
     width="53.0" height="64.0"
     viewBox="1213.0000 15.2635 74.0746 89.4255">
  <path d="M 1230.4366,97.25 C 1230.1057,95.7375 1228.922,92.142799 1227.8062,89.261776 1225.318,82.83782 1225.8951,80.080123 1230.4555,76.60177 1232.7529,74.84939 1234.3059,72.577641 1235.0205,69.923787 1236.3386,65.028643 1235.8163,63.156257 1232.1537,59.64724 L 1229.3304,56.942344 1226.6677,59.605038 C 1225.2032,61.06952 1223.5077,64.119992 1222.8999,66.383866 1222.2921,68.64774 1221.3596,71.316555 1220.8277,72.314567 1219.2542,75.266754 1217,72.464209 1217,67.555694 1217,57.588047 1223.8946,47.135858 1229.6759,48.338937 1231.2292,48.66216 1234.0279,49.228795 1235.8952,49.598125 L 1239.2905,50.269635 1238.7625,45.58542 C 1238.1455,40.111431 1237.5772,39.276113 1235.5911,40.924402 1234.4338,41.884887 1233.5972,41.782159 1231.5263,40.425286 1229.021,38.783771 1226.2552,35 1227.5605,35 1227.9075,35 1229.5076,35.777479 1231.1162,36.72773 1233.5117,38.142756 1234.3969,38.233252 1236.007,37.22773 1239.6023,34.982369 1240.9993,35.686809 1241.0087,39.75 1241.0135,41.8125 1241.3086,45.925745 1241.6646,48.890545 L 1242.3119,54.281089 1238.5552,53.576337 C 1236.4891,53.188723 1233.2723,52.143783 1231.407,51.254249 1228.1208,49.687176 1227.9344,49.712479 1225.4104,52.068457 1221.6887,55.542332 1218.9941,61.309383 1219.0365,65.710162 L 1219.073,69.5 1221.5137,64.458926 C 1222.8561,61.686335 1225.3446,58.086335 1227.0436,56.458926 L 1230.1328,53.5 1234.5664,58.19179 C 1237.4626,61.256675 1239,63.781792 1239,65.473909 1239,69.620049 1236.4725,74.540035 1232.4479,78.228376 1229.0925,81.3033 1228.779,82.008372 1229.3688,85.152231 1229.7299,87.077397 1230.6804,89.518213 1231.4809,90.576267 1232.8319,92.361917 1232.9387,92.205794 1232.9682,88.4012 1232.9957,84.858481 1233.64,83.671377 1237.7177,79.6512 1240.3124,77.09304 1243.0415,75 1243.7823,75 1245.0543,75 1249.4506,79.510383 1251.3852,82.800273 1251.8721,83.628194 1252.3221,86.149327 1252.3852,88.402792 1252.5316,93.627789 1254.0307,94.21131 1256.202,89.888474 1258.7227,84.869881 1258.3818,82.288034 1254.5,77 1252.1191,73.756505 1251.0053,71.155826 1251.0165,68.866023 1251.0354,64.989743 1254.852,57.631199 1257.0271,57.277334 1257.8372,57.145534 1260.975,59.288974 1264,62.040533 1271.7461,69.086434 1272.7482,68.690604 1276.7605,57 1279.7323,48.340836 1279.9832,46.686683 1279.5942,38.310916 1279.171,29.195334 1277.9705,24.620736 1276.5884,26.85698 1276.2098,27.469576 1275.2191,33.939864 1274.3868,41.235396 1271.9427,62.65949 1271.3321,63.764046 1265.8939,56.599099 1261.2545,50.48656 1259.463,49.817364 1254.3561,52.289465 1247.73,55.496991 1247,54.624326 1247,43.496201 1247,34.663927 1247.1343,34.007793 1248.75,34.94793 1254.1368,38.082445 1256.0583,41.734886 1251.75,40.650498 1249.5938,40.107792 1249.5143,40.311742 1249.8425,45.54209 1250.031,48.54394 1250.3135,51 1250.4704,51 1250.6274,51 1252.3713,50.325 1254.3458,49.5 1259.4716,47.358299 1260.5156,47.567558 1265.0235,51.640239 1267.2397,53.64237 1269.2069,55.10487 1269.3952,54.890239 1269.5835,54.675607 1270.7591,48.2 1272.0076,40.5 1274.5727,24.679873 1275.3505,22 1277.3774,22 1281.1164,22 1283.0746,39.511213 1280.6479,51.245726 1278.8814,59.787386 1275.4138,67.819837 1272.8151,69.389763 1270.6803,70.679429 1267.2183,68.914558 1261.7141,63.730699 1259.499,61.644583 1257.2495,60.083511 1256.715,60.261651 1255.0896,60.803482 1252.7464,67.853565 1253.3683,70.331398 1253.6895,71.611206 1255.5337,74.647699 1257.4665,77.079161 1261.5553,82.223003 1261.6814,83.2445 1259,89.5 1257.9,92.066196 1257,95.253503 1257,96.582905 1257,98.265652 1256.4395,99 1255.155,99 1252.0045,99 1249.8354,95.452658 1249.0827,89.069642 1248.5751,84.76463 1247.6899,82.298829 1246.0101,80.510732 1243.7367,78.090847 1243.5563,78.060094 1241.0752,79.66959 1238.2847,81.479857 1235.3739,85.060881 1235.7487,86.222671 1236.806,89.500516 1236.0953,96.237255 1234.5069,97.992419 1232.0665,100.68898 1231.1523,100.52224 1230.4366,97.25 z M 1229.646,32.547749 C 1227.0807,30.170293 1226.1891,28 1227.7778,28 1228.2055,28 1229.3261,28.9 1230.268,30 1232.6696,32.804855 1234.8908,32.498192 1238.6642,28.840803 L 1241.9237,25.681607 1246.5137,28.090803 C 1249.0382,29.415862 1251.8276,31.290259 1252.7124,32.256131 1255.5911,35.398718 1253.1907,35.330894 1248.2005,32.128644 1245.5189,30.40789 1242.886,29 1242.3495,29 1241.8131,29 1240.0808,30.35 1238.5,32 1235.0116,35.641102 1233.1107,35.758701 1229.646,32.547749 z M 1249.5,26.361459 C 1248.4,25.495246 1246.0554,24.160987 1244.2897,23.396441 1241.3128,22.107378 1240.8121,22.187808 1237.4002,24.503178 1235.3766,25.87643 1233.2088,27 1232.583,27 1230.6269,27 1227,23.960553 1227,22.321324 1227,20.921954 1227.2385,20.929462 1229.25,22.392157 1233.2137,25.274415 1233.8881,25.255299 1238.1234,22.140627 1241.5849,19.595056 1242.6375,19.263489 1244.3917,20.16614 1247.9211,21.982193 1253,26.044202 1253,27.050891 1253,28.409736 1251.8012,28.173601 1249.5,26.361459 z"/>
</svg>
