<svg xmlns="http://www.w3.org/2000/svg"
     width="28.7" height="64.0"
     viewBox="1572.4900 18.6443 40.5100 90.4157">
  <path d="M 1585.5,103.99986 C 1579.3319,101.64425 1577.7552,95.635544 1579.0711,79.5 1581.1805,53.634497 1581.2265,49.774361 1579.4939,44 1576.49,33.988763 1576.5267,32.871208 1580.0029,28.489928 1584.4751,22.85325 1585.2413,22.644259 1589.0309,26.027622 L 1592.3517,28.992417 1597.6607,25.996208 C 1600.5807,24.348294 1603.6745,23 1604.5359,23 1606.169,23 1609,28.576601 1609,31.793567 1609,34.086195 1604.9868,38 1602.6359,38 1601.6815,38 1599.5213,37.286706 1597.8354,36.414902 1592.8129,33.817625 1592.4464,35.078915 1592.9273,53.305839 1593.7668,85.118857 1593.5703,96.333291 1592.1128,99.788217 1590.4815,103.65528 1588.2759,105.05999 1585.5,103.99986 z M 1589.1512,99.25 C 1591.5218,95.130221 1592.0797,82.380883 1590.6626,64.715364 1589.8373,54.427651 1589.6943,46.105637 1590.2519,40.818366 L 1591.1074,32.706003 1587.9201,29.417513 C 1584.9061,26.30793 1584.6061,26.211986 1582.4054,27.653971 1578.999,29.885923 1578.7595,31.887234 1581.1035,38.536093 1583.4953,45.32061 1583.8725,56.939104 1582.0979,69.165893 1581.0534,76.36302 1580.5025,86.565414 1580.8379,92.5 1581.0395,96.067323 1584.4317,102 1586.2697,102 1586.9842,102 1588.2809,100.7625 1589.1512,99.25 z M 1605.3544,33.802769 C 1606.8616,31.40942 1605.0101,26.579586 1602.4433,26.208412 1601.2781,26.039924 1599.3868,27.025225 1597.9634,28.542291 L 1595.5,31.167759 1598.3652,33.635016 C 1601.5157,36.347894 1603.7184,36.400764 1605.3544,33.802769 z"/>
</svg>
