<svg xmlns="http://www.w3.org/2000/svg"
     width="43.9" height="64.0"
     viewBox="47.9990 21.6329 60.0010 87.4053">
  <path d="M 86.901568,102.24341 C 85.472431,101.28453 83.528464,99.713176 82.581641,98.751501 79.32621,95.445006 76.187725,95.494225 69.435039,98.957674 63.623889,101.93821 62.833205,102.10006 59.48376,100.99464 54.562076,99.370338 52.008533,95.000029 52.003738,88.19282 51.999043,81.527475 53.736792,74.31421 56.198637,70.780112 57.866207,68.386234 57.951019,67.547204 56.906216,63.780112 55.376072,58.2631 55.431805,39.628506 56.994044,34.414217 57.658079,32.197863 59.046065,29.285474 60.078455,27.942241 61.830774,25.662317 61.965253,25.632925 62.101843,27.5 62.182316,28.6 62.156486,31.774074 62.044442,34.553499 61.794436,40.755335 63.586258,51.064521 65.675786,55.446305 67.214489,58.673001 71.532716,62 74.182051,62 78.650614,62 82.918096,50.555059 83.306612,37.528882 83.607293,27.447619 84.183044,25.754473 86.516864,28.088293 90.533154,32.104583 90.988166,55.916178 87.231758,65.5 84.649101,72.089201 81.62098,73.713768 75.247709,71.929363 70.823116,70.690553 70.62768,70.731528 68.354148,73.374668 62.426793,80.265628 65.063363,89.444758 71.55887,84.531803 72.626492,83.724295 75.135137,83.049295 77.133638,83.031803 80.113153,83.005725 81.406302,83.707326 84.317056,86.929183 90.286288,93.536409 92.248155,93.928908 98.307575,89.728183 101.69259,87.381507 102.44186,87.742735 100.12252,90.603179 97.377324,93.988828 94.218828,95.212766 90.046224,94.50781 87.038905,93.999726 85.575474,92.936754 83.058952,89.43256 79.601683,84.618399 76.296011,83.705173 72.55887,86.531803 70.211753,88.307074 65.847115,88.447115 64.2,86.8 61.152037,83.752037 63.824729,72.471398 68.287667,69.547169 70.375259,68.179326 71.411607,68.117765 75.21699,69.13555 77.678023,69.793775 80.456305,70.038877 81.39095,69.68022 85.530509,68.091722 88.712606,53.097028 87.547869,40.667557 87.145023,36.368586 86.628268,33.038399 86.399524,33.267142 86.170781,33.495885 85.522541,37.241855 84.958991,41.591519 83.228201,54.950309 78.6758,65 74.355202,65 73.566019,65 71.197786,64.121227 69.092461,63.04717 64.485153,60.696697 61.52983,55.088778 60.482987,46.710129 60.088782,43.555021 59.303113,40.687334 58.737054,40.337491 57.42545,39.526875 58.350931,61.410587 59.78117,65.026428 60.569806,67.020207 60.394718,68.029268 58.950705,69.81255 54.751888,74.997868 52.6165,89.706488 55.294006,95 55.989494,96.375 57.856933,98.122557 59.443872,98.88346 62.105529,100.15967 62.821832,100.024 68.683541,97.13346 72.178421,95.410057 76.109163,94 77.418523,94 78.727884,94 82.194753,95.8 85.122678,98 91.837072,103.0451 95.496587,103.25891 100.4652,98.896408 102.40934,97.189432 104,96.242816 104,96.792816 104,97.342816 102.40934,99.189432 100.4652,100.89641 96.344848,104.51413 91.067097,105.03826 86.901568,102.24341 z"/>
</svg>
