<svg xmlns="http://www.w3.org/2000/svg"
     width="20.5" height="64.0"
     viewBox="2118.2188 18.8519 26.9189 84.1481">
  <path d="M 2122.2188,24.40625 C 2123.7269,23.765917 2125.0463,24.431251 2126.75,26.25 2131.941,31.79154 2132.3892,38.965578 2127.8125,43.6875 2126.0546,45.501184 2125.1246,47 2125.75,47 2126.3754,47 2127.1601,46.55 2127.5,46 2127.8399,45.45 2128.77,45 2129.5625,45 2130.6391,45 2131,46.374339 2131,50.40625 2131,55.321565 2130.688,56.075923 2127.5,58.875 2123.632,62.271177 2122.96,63.624731 2125.9375,62.03125 2130.5278,59.574581 2131.3241,60.504734 2130.75,67.65625 2130.4045,71.961176 2129.6837,74.602473 2128.75,75.125 2127.9564,75.56912 2126.2317,76.867551 2124.9062,78.03125 2122.7565,79.918624 2122.7159,80.100081 2124.5,79.6875 2125.6,79.433115 2127.2875,78.896243 2128.25,78.5 2129.7292,77.891026 2130.0269,78.396024 2130.125,81.65625 2130.1888,83.777594 2130.4542,84.6 2130.7188,83.5 2131.4704,80.375198 2132.5983,79.722706 2134.8438,81.125 2138.3553,83.317952 2138.6155,81.080812 2135.2188,77.90625 2132.243,75.125209 2132,74.409026 2132,68.4375 2132,64.890377 2132.2514,62 2132.5625,62 2132.8737,62 2134.0306,62.47683 2135.125,63.0625 2139.0261,65.150306 2139.2509,63.344659 2135.5625,59.65625 2133.224,57.317748 2132.0404,55.328448 2132.4062,54.375 2132.7288,53.534293 2133,50.811219 2133,48.34375 L 2133,43.875 2136.0625,46.03125 C 2140.4759,49.173861 2141.1377,47.375122 2136.9375,43.65625 2133.9456,41.007168 2133.1977,39.466171 2132.2188,34 2131.3508,29.153527 2130.3954,26.927625 2128.4688,25.25 2126.4648,23.505024 2124.2127,22.851947 2122.2188,23.21875 L 2122.2188,24.40625 z M 2129.6875,86.5 C 2129.5329,86.356531 2129.4404,87.071868 2129.25,88.5 2129.03,90.15 2127.6574,92.801223 2126.1875,94.375 L 2123.5,97.21875 2126.7188,96.53125 C 2128.952,96.05662 2130.6314,96.347569 2132.1875,97.4375 2133.4235,98.303213 2135.0161,99 2135.7188,99 2137.9297,99 2137.1054,97.185262 2134.0938,95.40625 2131.9708,94.152263 2131.0095,92.594708 2130.4375,89.59375 2130.066,87.644218 2129.8421,86.643469 2129.6875,86.5 z"/>
</svg>
