<svg xmlns="http://www.w3.org/2000/svg"
     width="25.1" height="64.0"
     viewBox="639.0000 24.3916 27.6111 70.2646">
  <path d="M 648.1875,88.46875 651.09375,90.65625 C 652.1835,87.5907 653,84.084444 653,81.53125 653,79.214089 654.02504,77.404971 657,74.5 660.73051,70.857252 662.11863,68 660.15625,68 659.69149,68 658.49549,68.9 657.5,70 654.92744,72.84265 654,72.478411 654,68.65625 654,65.96783 654.78836,64.699809 658.03125,62.09375 662.28369,58.676402 662.61107,55.702873 658.4375,58.4375 654.84942,60.788504 654,60.362656 654,56.1875 654,53.256309 654.69374,51.709541 657,49.5 659.89067,46.730564 660.94695,44 659.125,44 658.64235,44 657.68469,44.675 657,45.5 654.91824,48.008361 654,47.207533 654,42.875 654,39.543871 654.67597,37.976295 657.5625,34.78125 661.05487,30.915611 661.65572,28.391614 658.4375,31.0625 656.35096,32.794175 650.05159,32.370096 647.8125,30.34375 645.90977,28.621801 643,29.166871 643,31.25 643,31.97003 643.93201,33.344547 645.0625,34.3125 646.49216,35.536612 646.90077,36.727888 646.4375,38.1875 645.84676,40.048777 646.07128,40.211041 648.40625,39.625 651.46821,38.856496 652.58973,40.562953 651.59375,44.53125 651.06256,46.647664 650.63522,46.889668 649.03125,46.03125 646.69747,44.782248 644,44.697714 644,45.875 644,46.351912 645.8,47.919109 648,49.375 651.43656,51.649209 652,52.529996 652,55.625 652,59.375201 651.62706,59.507795 646.75,57.5 643.92489,56.336953 644.68456,58.866487 648,61.65625 650.25366,63.552577 651,65.031261 651,67.59375 651,71.138369 650.21429,71.808041 648.28125,69.875 647.65822,69.25197 646.36168,69.039618 645.40625,69.40625 643.90503,69.982324 644.13056,70.569755 647.21875,73.78125 650.45638,77.148159 650.77209,77.922938 650.375,82 649.96438,86.21607 649.63051,87.691376 648.1875,88.46875 z"/>
</svg>
