<svg xmlns="http://www.w3.org/2000/svg"
     width="31.2" height="64.0"
     viewBox="300.0034 20.9979 41.7153 85.6883">
  <path d="M 336.65625,29.125 C 336.37814,28.884137 336.09382,28.55055 335.75,28 334.04272,25.266217 331.99777,25.49282 327.15625,29 324.87849,30.65 322.36882,32 321.5625,32 320.75619,32 318.8172,30.424984 317.28125,28.5 315.7453,26.575017 313.825,24.997897 313,25 312.175,25.002103 309.8125,27.107516 307.75,29.65625 304.31819,33.897111 304.00342,34.781525 304.03125,40.375 304.05555,45.260411 304.28868,46.118232 305.15625,44.625 305.75322,43.597508 305.98045,40.96532 305.6875,38.78125 305.21679,35.271829 305.58164,34.378645 308.71875,30.90625 L 312.28125,26.96875 316.71875,31.6875 321.15625,36.375 320.5625,66.75 C 320.22802,83.449811 320.21983,97.570539 320.5625,98.125 320.90518,98.679462 321.3555,98.956997 321.5625,98.75 321.7695,98.543002 322.23141,85.354595 322.5625,69.4375 322.89358,53.520406 323.32356,39.950779 323.53125,39.28125 323.81894,38.353797 324.76193,38.413328 327.4375,39.53125 334.37718,42.430835 337,41.225576 337,35.15625 337,34.319633 337.28619,33.5477 337.71875,32.8125 L 336.65625,29.34375 336.65625,29.125 z M 332.5,28.65625 C 333.00821,28.804212 333.3415,29.422849 333.875,30.59375 334.50166,31.969113 335,34.438379 335,36.0625 335,38.527678 334.603,39 332.5625,39 331.21817,39 328.86905,37.937005 327.34375,36.625 324.90632,34.528411 324.74297,34.039472 325.96875,32.5625 326.73581,31.638239 328.55535,30.231968 330.03125,29.46875 331.28775,28.818991 331.99179,28.508288 332.5,28.65625 z M 314.15625,39 C 313.18302,39 312.60444,99.543576 313.5625,101.09375 313.91642,101.6664 314.35566,101.95684 314.5625,101.75 314.92031,101.39219 315.32373,58.458057 315.09375,45.25 315.0339,41.8125 314.61586,39 314.15625,39 z M 305.34375,52.90625 C 305.25348,53.129363 305.19769,53.675 305.1875,54.5 305.16712,56.15 305.38232,56.958282 305.65625,56.28125 305.93017,55.604217 305.94104,54.254217 305.6875,53.28125 305.56073,52.794766 305.43402,52.683137 305.34375,52.90625 z M 305.71875,63.4375 C 305.50615,63.295626 305.27316,63.706856 304.96875,64.5625 304.28867,66.474102 304.77805,96.351932 305.53125,98.75 306.76756,102.6862 307.18151,98.100082 306.90625,82.75 306.66493,69.29295 306.35656,63.863121 305.71875,63.4375 z"/>
</svg>
