<svg xmlns="http://www.w3.org/2000/svg"
     width="30.1" height="64.0"
     viewBox="1416.2203 20.1229 38.9883 82.9084">
  <path d="M 1422.125,24.25 1422.0312,29.375 C 1422.0938,29.35707 1422.4609,29.060774 1422.5,29.0625 1423.8085,29.120313 1430,36.859217 1430,38.4375 1430,40.109567 1424.0292,49 1422.9062,49 1420.2203,49 1422.7387,53.227718 1428,57.5625 1431.2961,60.278124 1433.9961,63.04156 1434,63.71875 1434.004,64.395941 1431.075,68.054062 1427.5,71.84375 1423.925,75.633439 1421.0058,79.141879 1421.0312,79.625 1421.0728,80.411975 1422.405,81.499742 1430.8125,87.78125 L 1433.125,89.53125 1430.625,93.25 C 1427.3078,98.138154 1429.0001,99.03134 1432.8125,94.40625 L 1435.8125,90.78125 1438.8125,93.03125 C 1442.533,95.78197 1444.4835,95.156149 1446.7188,90.46875 1448.2638,87.228887 1448.2888,86.602926 1446.9375,84.1875 1444.8789,80.507701 1441.7262,80.255587 1439.125,83.5625 1436.7694,86.557155 1434.7734,86.428072 1429.2188,83 1424.0863,79.83246 1424.19,78.548759 1430.125,72.21875 1433.0754,69.071999 1435.8004,66.361707 1436.1875,66.1875 1436.5746,66.013292 1438.21,66.846476 1439.8125,68.03125 1443.7148,70.916358 1446.948,70.269729 1449.3438,66.15625 1451.1817,63.000551 1451.2086,62.630149 1449.6562,59.375 1447.3664,54.572901 1445.6141,54.266552 1441.4688,57.90625 1438.3,60.688379 1437.6718,60.874257 1435.5938,59.75 1432.2723,57.95292 1426,52.262387 1426,51.03125 1426,50.223688 1431.6748,41.349232 1433.6562,39.0625 1433.8597,38.827597 1435.2757,39.840097 1436.8125,41.3125 1438.3494,42.784904 1440.3353,44 1441.2188,44 1442.8281,44 1448,38.639201 1448,36.96875 1448,35.704381 1441.9805,29 1440.8438,29 1440.3228,29 1438.3772,30.641282 1436.5312,32.65625 L 1433.1875,36.3125 1430.5938,33.40625 C 1429.1664,31.803782 1427.0499,29.0375 1425.9062,27.25 1424.4929,25.040816 1423.1771,24.122931 1422.125,24.25 z M 1440.3438,31.71875 1442.7188,34.46875 C 1444.9698,37.085719 1445.0229,37.338683 1443.4062,39.125 1441.2294,41.530432 1440.8175,41.486975 1438.1875,38.6875 L 1436,36.375 1438.1875,34.03125 1440.3438,31.71875 z M 1445.3125,59 C 1447.4417,59 1448.5102,63.201263 1447.0625,65.90625 1446.4464,67.057478 1445.5958,68 1445.1875,68 1443.7069,68 1440,64.850175 1440,63.59375 1440,61.838485 1443.2857,59 1445.3125,59 z M 1442.625,84.46875 C 1443.057,84.451539 1443.4182,84.798958 1444,85.5 1444.9906,86.69355 1445.0203,87.634897 1444.1562,89.53125 1442.9037,92.28022 1441.9661,92.591136 1440.1875,90.8125 1438.498,89.122959 1438.6924,87.571968 1440.8438,85.625 1441.6808,84.86743 1442.193,84.485961 1442.625,84.46875 z"/>
</svg>
