<svg xmlns="http://www.w3.org/2000/svg"
     width="23.1" height="64.0"
     viewBox="1945.8532 19.0000 30.2692 84.0000">
  <path d="M 1958.5219,95.319594 C 1953.3894,90.034837 1953.1474,87.858521 1956.8558,80.338313 1959.9393,74.085219 1960,73.685002 1960,59.606066 1960,41.068004 1959.7037,39.731428 1954.8866,36.543629 1951.1668,34.082024 1949.8532,32 1952.0199,32 1952.5808,32 1954.8475,33.141212 1957.0571,34.536027 1961.2125,37.159243 1961.9638,37.085278 1965.7461,33.680624 1969.4668,30.331273 1969.6227,32.761999 1965.9316,36.57436 L 1962.5,40.118759 1962.6735,56.355986 1962.8471,72.593213 1966.4326,78.037641 C 1968.4047,81.032077 1970.2819,84.312727 1970.6041,85.327974 1972.1224,90.111694 1967.8131,99 1963.9756,99 1962.942,99 1960.4878,97.343817 1958.5219,95.319594 z M 1957.039,27.811439 C 1955.1166,25.747994 1954.2903,23 1955.5923,23 1955.918,23 1957.3281,23.899549 1958.7259,24.998999 L 1961.2672,26.997998 1964.6336,24.917439 C 1967.3679,23.227523 1968,23.118518 1968,24.336881 1968,25.834253 1962.241,30 1960.1709,30 1959.5698,30 1958.1604,29.015147 1957.039,27.811439 z M 1966.9022,92.850777 C 1967.506,91.118704 1968,88.859056 1968,87.829336 1968,85.779262 1963.2108,78 1961.9487,78 1960.6731,78 1957,84.556365 1957,86.833238 1957,89.22541 1962.5471,96 1964.5058,96 1965.22,96 1966.2984,94.58285 1966.9022,92.850777 z"/>
</svg>
