<svg xmlns="http://www.w3.org/2000/svg"
     width="24.4" height="64.0"
     viewBox="1310.1875 24.0000 30.0950 79.0787">
  <path d="M 1314.1875,30.1875 1314.4375,33 C 1319.5008,29.76737 1321.515,30.159399 1323.4688,33.9375 1326.192,39.203819 1325.4939,43.936525 1321.3125,48.21875 1317.7676,51.84901 1318.432,53.720145 1322.0938,50.40625 1323.0649,49.527371 1324.3485,49.104705 1324.9375,49.46875 1326.8077,50.624561 1325.2535,54.800467 1321.8125,57.875 1318.0845,61.205902 1318.5608,63.185543 1322.4688,60.625 L 1325,58.96875 1325,63.1875 C 1325,66.713871 1324.3839,68.0421 1321.3125,71.1875 1317.4087,75.185301 1317.3127,77.285931 1321.1562,74.59375 1322.4143,73.712651 1323.7912,73 1324.2188,73 1325.2175,73 1325.2485,79.992223 1324.25,80.03125 1322.981,80.080849 1316.775,86.11874 1317.375,86.71875 1317.6854,87.029091 1319.0647,86.524502 1320.4375,85.625 1323.8284,83.403191 1324,83.512114 1324,87.4375 1324,90.172441 1323.2606,91.476177 1320.3125,93.90625 1315.8594,97.576835 1316.5333,99.078735 1321.3125,96.125 L 1324.7188,94 1327.2812,96 C 1328.6791,97.09945 1330.3056,98 1330.9062,98 1332.8102,98 1332.0903,95.850044 1329.5,93.8125 1327.812,92.484756 1327,90.866692 1327,88.8125 1327,85.814375 1327.0252,85.794462 1329.4375,87.375 1333.2477,89.871559 1333.7715,87.299273 1330.125,83.96875 1327.7146,81.767162 1327,80.283333 1327,77.4375 1327,73.880421 1327.1013,73.764007 1330,74.34375 1333.7578,75.095318 1333.8057,74.032903 1330.1562,70.78125 1327.8785,68.751867 1327.4135,67.629783 1327.7812,65.125 1328.2759,61.755149 1330.0003,61.090553 1332,63.5 1333.5818,65.406007 1335,65.414777 1335,63.53125 1335,62.729697 1333.425,60.817197 1331.5,59.28125 1328.6188,56.982289 1328.0001,55.83709 1328,52.75 1328,48.473398 1328.706,48.187687 1332.2812,51 1333.6797,52.1 1335.0806,53 1335.4062,53 1336.2825,53 1336.1282,50.005755 1335.25,49.96875 1334.8375,49.951369 1333.2127,48.802161 1331.625,47.40625 1329.4333,45.479261 1328.3991,43.253446 1327.3438,38.21875 1325.7884,30.799006 1323.8447,28 1320.2812,28 1318.4789,28 1316.5823,28.774227 1314.1875,30.1875 z"/>
</svg>
