<svg xmlns="http://www.w3.org/2000/svg"
     width="21.7" height="64.0"
     viewBox="1105.4900 18.0000 29.3538 86.7452">
  <path d="M 1130.8438,65.125 1130.6562,64.65625 1130.3438,61.21875 C 1129.4806,60.528351 1129,59.822318 1129,59.03125 1129,57.889564 1129.2715,57.294894 1129.9375,57.15625 L 1129.3438,50.65625 1129.3438,50.40625 C 1128.5366,48.320783 1127.8384,44.959583 1126.4688,38.03125 1124.8438,29.811013 1121.7689,22 1120.1562,22 1113.923,22 1109.49,46.269556 1111.7812,67.75 1113.8189,86.854395 1118.3745,100.74518 1121.9062,98.5625 1124.5529,96.926832 1127.458,85.996502 1129.5312,69.75 1129.8646,67.1375 1130.2654,65 1130.4375,65 1130.453,65 1130.7995,65.114633 1130.8438,65.125 z M 1119.2188,26.71875 C 1121.5815,26.960729 1124.3987,37.115358 1126.0312,52 1127.6018,66.317657 1126.2121,83.813526 1122.8438,92.25 1121.2948,96.129647 1120.387,95.694428 1118.625,90.25 1114.7639,78.319091 1113.7054,69.029526 1114.3125,52.5 1114.8748,37.188021 1115.9976,29.982334 1118.25,27.21875 1118.5643,26.833167 1118.8812,26.684182 1119.2188,26.71875 z"/>
</svg>
