<svg xmlns="http://www.w3.org/2000/svg"
     width="52.1" height="64.0"
     viewBox="478.9498 18.4478 71.9015 88.3346">
  <path d="M 530.375,82.5 C 529.01412,83.059182 527.18323,84.276214 525.5,86 522.75779,88.808273 520.74114,90 518.75,90 516.2165,90 515.56043,89.232504 512.46875,82.78125 508.61276,74.735146 508.19262,70.185112 510.125,57.6875 511.33801,49.842351 513.98047,43.603828 516.53125,42.625 519.5095,41.482139 523.4571,41.97456 526.625,43.90625 531.2705,46.738933 533.42704,53.209944 532.6875,62.03125 532.36564,65.87041 532.432,68.986241 532.8125,68.96875 534.43326,68.894242 536.85476,66.209983 538.875,62.25 540.52245,59.020719 541.62799,58 543.46875,58 544.80011,58 546.16008,57.55 546.5,57 546.85127,56.431636 546.00354,56 544.53125,56 541.64143,56 541.71213,56.174318 539.96875,46.59375 538.84634,40.425671 538.91081,39.539394 540.375,38.46875 542.5842,36.853348 542.43574,35.735348 540.125,36.46875 538.86012,36.870208 536.83094,35.86314 533.875,33.40625 528.60398,29.025133 528.25999,28.283435 530.65625,26.53125 533.41141,24.51663 531.74753,23.726263 528.40625,25.46875 524.28604,27.617454 519.34753,27.413239 517.28125,25 515.15328,22.514709 514,22.447812 514,24.8125 514,25.905284 512.59673,27.29774 510.46875,28.3125 506.01686,30.435462 506.36009,30.497351 504.5,27.25 L 502.90625,24.5 503.4375,29 C 503.87155,32.745805 503.54876,33.983478 501.53125,36.4375 499.27742,39.178975 498.9365,39.301777 496.5625,38.03125 492.87655,36.058585 492.09017,37.67468 495.4375,40.34375 497.88784,42.297578 498.10223,42.924029 497.125,44.75 496.50076,45.916414 496.00842,48.138842 496,49.6875 495.98111,53.1604 494.60915,55.479754 493.125,54.5625 491.23714,53.395734 491.88593,55.586789 494,57.5 495.46031,58.821559 496,60.594901 496,64.03125 496,68.512121 495.88023,68.70501 493.5,68.25 490.24524,67.627813 490.19475,69.73586 493.4375,70.96875 496.12281,71.989705 497.70427,77.174427 496.5,80.96875 495.83327,83.069427 495.13064,83.084187 490.25,81.25 487.65408,80.274428 489.12965,83.015684 492,84.5 495.33775,86.226017 495.51484,86.769863 493.84375,90.4375 492.50513,93.375454 491.05469,93.597834 486.9375,91.46875 483.53179,89.707587 482.94978,91.160353 486.15625,93.40625 487.96118,94.670476 488.10263,95.177826 487.03125,96.46875 485.93289,97.7922 486.10588,98 488.28125,98 491.26652,98 496.57204,91.916054 498.0625,86.78125 498.58584,84.978266 498.9205,75.175 498.78125,65 498.53766,47.20082 498.61895,46.32953 500.90625,42 507.79784,28.95524 515.52294,25.918453 527,31.75 534.37096,35.495218 538.0224,42.164878 538,51.875 537.97782,61.484763 536.54404,62.654932 535,54.34375 533.92645,48.565133 533.13273,46.948558 529.96875,43.90625 525.41809,39.530588 519.09806,38.029304 515.375,40.46875 510.32548,43.777319 507,54.662125 507,67.78125 507,79.011499 512.40941,91.86867 517.25,92.125 521.4129,92.345442 522.47956,91.83913 526.625,87.8125 L 530.5,84.09375 530.375,82.5 z M 531.1875,93.28125 C 530.27721,93.508543 529.48169,93.906792 528.9375,94.5625 527.29213,96.545049 520.60355,100 518.40625,100 517.49378,100 514.12278,98.391439 510.90625,96.4375 504.41275,92.492904 503.62237,92.589745 498.5625,97.90625 495.01689,101.63169 495.91506,101.9256 500.40625,98.5 502.20897,97.125 504.20654,96 504.84375,96 505.48096,96 508.13912,97.359388 510.75,99.03125 516.6081,102.78245 522.15483,102.65428 527.4375,98.625 528.87685,97.527151 530.13709,96.92774 531.40625,96.5625 L 531.1875,93.28125 z"/>
</svg>
