<svg xmlns="http://www.w3.org/2000/svg"
     width="22.0" height="64.0"
     viewBox="1865.5700 18.7136 30.7389 89.2864">
  <path d="M 1879.25,55.21875 1879.3438,55.34375 1879.5312,58.59375 C 1879.7352,58.680469 1879.9996,58.593382 1880.1875,58.78125 1880.7044,59.298106 1880.3628,60.220014 1879.6875,61.25 L 1879.9688,66.375 C 1880.0172,66.372454 1880.4531,66.14021 1880.4688,66.15625 1880.6612,66.352752 1881.1037,70.55 1881.4688,75.5 L 1882.1562,84.5 1878.5625,89.96875 C 1874.4258,96.297437 1874.2324,97.777134 1877.0625,101.375 1878.2024,102.82417 1880.1132,104 1881.2812,104 1884.2242,104 1890.9114,99.156583 1891.5625,96.5625 1892.3089,93.588804 1890.4876,89.245646 1887.1562,86.125 1884.3673,83.512416 1884.336,83.351343 1883.0312,64 1881.2101,36.988567 1881.0669,38.209004 1886.1875,33.78125 1888.5546,31.73446 1889.9019,30.047663 1889.1562,30.03125 1888.4107,30.014837 1886.4466,31.125 1884.8125,32.5 1881.1839,35.553272 1878.7719,35.631056 1874.3125,32.875 1872.4312,31.712263 1870.6365,31.051016 1870.3125,31.375 1869.57,32.117565 1873.8393,35.711881 1876.5,36.59375 1879.5511,37.605016 1879.9834,38.883554 1880,47.125 L 1880,54.71875 1879.25,55.21875 z M 1883.0625,87.71875 C 1883.7188,87.456367 1884.2054,87.783933 1885.0312,88.53125 1886.0075,89.414779 1887.3938,91.529208 1888.0938,93.21875 1889.2537,96.019168 1889.1518,96.464446 1887.0625,98.15625 1884.4585,100.26484 1879.9717,100.59666 1878.1875,98.8125 1876.213,96.838008 1876.8111,94.274221 1880.125,90.5 1881.5828,88.839715 1882.4062,87.981133 1883.0625,87.71875 z M 1874.625,23.09375 C 1874.1133,23.067068 1874,23.533676 1874,24.46875 1874,25.276184 1875.2375,26.616955 1876.75,27.4375 1880.4179,29.427381 1881.2801,29.371957 1884.375,26.9375 1888.0979,24.009108 1887.6363,22.713579 1883.5625,24.65625 1880.3724,26.177506 1879.9384,26.192518 1877.5938,24.65625 1876.0433,23.640325 1875.1367,23.120432 1874.625,23.09375 z"/>
</svg>
