<svg xmlns="http://www.w3.org/2000/svg"
     width="31.2" height="64.0"
     viewBox="1702.0000 18.6250 41.1633 84.3750">
  <path d="M 1726.25,78.71875 C 1725.8903,78.20389 1725.6571,77.697762 1725.5312,77.125 1724.8986,74.244526 1725.7747,39.881492 1726.5,39.15625 1726.7364,38.91979 1728.5348,39.50494 1730.5,40.4375 1732.4652,41.370059 1735.0643,41.985559 1736.2812,41.8125 1738.1533,41.546283 1738.5564,40.78717 1738.8125,36.8125 1739.1633,31.367249 1736.8466,26 1734.1562,26 1733.1733,26 1731.0808,27.35 1729.5,29 1727.9192,30.65 1726.2141,32 1725.7188,32 1725.2234,32 1722.9253,29.88769 1720.5938,27.3125 L 1716.3438,22.625 1713.2812,27.0625 C 1711.5999,29.50019 1709.289,32.358506 1708.125,33.40625 1706.054,35.270383 1706,35.994181 1706,67.15625 1706,88.562655 1706.3311,99 1707.0312,99 1707.715,99 1708.0556,93.247657 1708,82.25 1707.9534,73.0375 1707.9449,58.911647 1707.9688,50.875 L 1708,36.28125 1711.75,31.65625 C 1713.8125,29.107516 1716.0694,27.002119 1716.75,27 1718.1289,26.995706 1723.3221,34.656459 1723.5312,37 1723.6048,37.825 1723.7497,51.8875 1723.8438,68.25 1723.9534,87.302633 1724.3596,98 1725,98 1725.55,98 1726,96.875 1726,95.5 1726,94.041552 1726.4258,93.262635 1727.25,93.125 L 1726.9062,89.125 C 1726.2847,88.422524 1726.001,87.731192 1726,86.75 1725.9989,85.73089 1726.2016,85.006235 1726.4688,84.53125 L 1726,79.34375 1726.25,78.71875 z M 1733.5938,29 C 1735.3216,29 1737,32.967175 1737,37.0625 1737,39.440905 1736.5734,40.004025 1734.75,40 1733.5125,39.997268 1731.2644,38.984768 1729.75,37.75 L 1727,35.5 1729.5625,32.25 C 1730.9793,30.4625 1732.7951,29 1733.5938,29 z M 1716.9062,40.90625 C 1716.3857,40.084313 1716.0091,51.68692 1716,69.25 1715.9902,88.300406 1716.3637,99 1717,99 1718.2553,99 1718.1644,42.893143 1716.9062,40.90625 z"/>
</svg>
