<svg xmlns="http://www.w3.org/2000/svg"
     width="63.8" height="64.0"
     viewBox="1227.7377 13.9688 90.6998 90.9154">
  <path d="M 1314.1875,30.1875 C 1312.5308,31.165214 1310.8076,32.270776 1308,34.375 1301.2329,39.446773 1301.8794,38.541311 1297,50.0625 1290.2666,65.9613 1286.2188,68.61765 1276.5938,63.5 1274.0078,62.125 1271.4552,61 1270.9062,61 1270.3573,61 1269.2731,62.524524 1268.5,64.375 1266.9225,68.150378 1267.921,73.833697 1270.5312,76 1272.6097,77.724981 1272.3757,81.837701 1269.8438,88.125 1266.6063,96.163815 1265.6715,96.450287 1266.2812,89.25 1266.7435,83.792269 1266.5065,82.56363 1264.4062,79.46875 1263.0833,77.519417 1262,75.494325 1262,74.96875 1262,72.579628 1258.8171,74.385461 1256.0938,78.34375 1253.6829,81.847862 1253.055,83.950296 1252.8125,89.03125 1252.4687,96.232372 1251.0765,97.497718 1248.8125,92.75 1245.3554,85.500511 1245.525,83.509203 1249.9375,77.21875 1252.1791,74.023049 1254,70.249835 1254,68.84375 1254,66.359038 1249.39,58.991863 1246.875,57.4375 1245.1086,56.345776 1239.187,63.494375 1238.4062,67.65625 1237.4795,72.596167 1235.9924,71.724473 1236,66.25 1236.0072,61.033089 1237.8641,57.479148 1242.4062,53.90625 1244.9732,51.887081 1245.5653,51.78635 1248.375,52.9375 1255.2541,55.755926 1255.4856,55.53332 1255.6875,45.28125 1255.7875,40.203033 1255.4686,35.77765 1254.9688,35.46875 1253.7515,34.716504 1246.2477,36.782789 1245.4375,38.09375 1244.4174,39.744342 1245.4025,40.022539 1248.75,39.0625 1252.4871,37.990707 1253,38.867863 1253,46.1875 1253,50.564652 1252.7743,51.120961 1251.25,50.53125 1245.3067,48.231984 1244.055,48.569205 1239.0312,53.78125 1233.301,59.726338 1231.7377,65.426601 1234.1562,71.78125 1236.1771,77.091137 1239.3194,76.945125 1240,71.5 1240.5067,67.446356 1243.4543,60.971948 1244.7812,61 1246.9726,61.046327 1251,66.459788 1251,69.34375 1251,70.385184 1249.4941,73.326313 1247.6562,75.875 1245.8183,78.423687 1244.0253,81.274442 1243.6875,82.21875 1243.028,84.06257 1245.3061,92.749764 1247.625,97.25 1249.4976,100.88411 1251.5683,100.72341 1254.0625,96.75 1255.5948,94.308989 1256.003,92.379861 1255.6562,89 1255.1852,84.408594 1257.2603,79 1259.5,79 1261.9791,79 1263.7305,84.441162 1263.25,90.625 1262.8193,96.167069 1262.9916,96.871378 1265.0938,98.34375 1266.3696,99.237404 1267.7027,99.657402 1268.0625,99.25 1269.076,98.10253 1275.0041,80.692217 1275,78.875 1274.998,77.986672 1274.1284,76.167579 1273.0625,74.8125 1270.6481,71.743145 1269.6863,67.949628 1270.875,66.125 1271.6424,64.946973 1272.5363,64.965039 1276.6562,66.28125 1279.3268,67.134418 1282.85,68.216948 1284.5,68.6875 1288.3441,69.783786 1289.0506,73.857532 1286.0625,77.65625 1283.0596,81.473823 1283.2913,84.021946 1286.375,81.125 1288.4619,79.164446 1288.8227,79.091966 1289.375,80.53125 1290.7651,84.153737 1289.9187,87.482688 1286.8125,90.6875 1282.8835,94.741116 1283.8978,96.432733 1287.9375,92.5625 L 1290.875,89.75 1293.6562,91.9375 C 1297.3589,94.849993 1298.0912,92.742876 1294.625,89.125 1292.6366,87.049548 1292,85.377368 1292,82.09375 L 1292,77.78125 1294.5,79.40625 C 1296.8813,80.966558 1297,80.949517 1297,79.03125 1297,77.829574 1295.5811,76.098067 1293.5,74.75 1290.749,72.96797 1290.0097,71.841985 1290,69.375 1289.9932,67.654844 1290.7212,65.661672 1291.5938,64.9375 1293.391,63.445945 1300.1255,50.336352 1301.875,44.9375 1302.7124,42.353107 1304.903,39.973801 1309.7812,36.28125 1311.6491,34.867375 1313.0846,33.86377 1314.4375,33 L 1314.1875,30.1875 z M 1256.0312,17.96875 1248.8438,21.5625 C 1243.8315,24.086558 1242.0933,25.420225 1243.0312,26 1243.8758,26.521883 1246.557,25.723736 1250.2812,23.84375 L 1256.1875,20.875 1259.8438,23.375 C 1261.8504,24.75846 1264.625,26.332218 1266,26.875 1273.9716,30.021802 1272.1024,26.641028 1263.2188,21.84375 L 1256.0312,17.96875 z M 1294.6562,23.5625 C 1294.2131,23.32892 1294.0471,23.604463 1294.0312,24.3125 1294.009,25.311697 1295.1641,27.657026 1296.5938,29.53125 1299.084,32.796194 1299.3039,32.890178 1301.8438,31.5 1304.729,29.92074 1310,25.443372 1310,24.5625 1310,23.270725 1307.174,24.153535 1305.5312,25.96875 1302.3015,29.537675 1300.0709,29.506695 1296.9375,25.84375 1295.8213,24.53903 1295.0994,23.79608 1294.6562,23.5625 z M 1286.9062,25.90625 C 1286.7552,25.9118 1286.6154,26.040826 1286.4375,26.21875 1286.1265,26.529762 1287.2992,29.599974 1289.0312,33.03125 L 1292.1562,39.28125 1289.5312,46.53125 C 1287.1404,53.086896 1284.5753,57 1282.6562,57 1282.271,57 1279.6582,55.2 1276.875,53 1274.0918,50.8 1271.4779,49 1271.0625,49 1270.6471,49 1269.4955,49.9 1268.5,51 1267.5045,52.1 1266.3085,53 1265.8438,53 1265.3791,53 1265,49.593687 1265,45.4375 L 1265,37.875 1267.2188,39.4375 C 1269.6344,41.129512 1272,41.482145 1272,40.15625 1272,39.6983 1270.1656,37.847019 1267.9062,36.03125 1264.604,33.377583 1263.5916,33.012513 1262.8438,34.125 1261.982,35.40685 1262.6892,56.936439 1263.625,57.9375 1263.8469,58.174906 1265.507,56.937406 1267.3125,55.1875 1269.1179,53.437594 1270.8532,52 1271.1875,52 1271.5218,52 1273.6959,53.575 1276,55.5 1278.3041,57.425 1280.9613,59 1281.9062,59 1284.3562,59 1288.6018,54.18562 1290.2812,49.5 1294.4479,37.875278 1294.4255,38.502147 1290.9062,32.25 1288.0126,27.109264 1287.3593,25.889601 1286.9062,25.90625 z M 1258.2812,26 C 1256.4435,26.000187 1244,33.052922 1244,34.09375 1244,35.66743 1245.9706,35.100664 1251.9062,31.8125 L 1257.6562,28.625 1262.2188,30.75 C 1268.7846,33.836308 1272,34.541879 1272,32.84375 1272,31.537477 1260.9035,25.999733 1258.2812,26 z"/>
</svg>
