<svg xmlns="http://www.w3.org/2000/svg"
     width="28.9" height="64.0"
     viewBox="121.6792 24.0000 37.3208 82.7297">
  <path d="M 154.09375,76.53125 C 152.75754,77.135974 150.71567,78.59511 148.625,80.65625 144.95101,84.278346 143.6217,85.032622 142.6875,84.09375 140.87237,82.269538 141.59571,71.94948 144.375,59.71875 146.57444,50.039772 147.24044,48.44569 150.90625,44.46875 153.15451,42.029682 155,39.426194 155,38.65625 155,36.13842 152.21976,34.720144 148.5625,35.40625 145.7041,35.94249 144.91733,35.714036 144,34 143.38983,32.859876 143.15747,31.047975 143.5,29.96875 143.84844,28.870903 143.68028,28 143.09375,28 141.21806,28 140.60073,33.207378 142.15625,35.9375 143.62671,38.518345 145.3254,38.853794 149.75,37.46875 154.60277,35.949673 150.88379,43.54191 145.96875,45.1875 145.44865,45.361633 143.87229,50.9 142.5,57.5 138.32353,77.586666 138.04716,86.030764 141.46875,87.34375 143.62615,88.171624 147.58815,85.786983 151.375,81.40625 L 154.09375,78.28125 154.09375,76.53125 z M 154.21875,88.40625 C 151.56197,88.881516 148.30214,91.04412 144.5625,94.90625 139.13845,100.50796 136.49368,100.39684 133.84375,94.40625 132.07229,90.401569 131.90157,88.628692 132.5,80.65625 132.87785,75.622354 133.63447,69.475 134.15625,67 136.59596,55.427548 136.46337,53.667802 132.625,45.6875 129.91368,40.050428 129,36.881378 129,33.03125 129,29.861128 128.6171,28.118613 128,28.5 125.67924,29.934307 126.97947,39.175962 130.625,47.25 L 134.21875,55.25 132.625,63.375 C 131.74387,67.844145 130.7352,76.06501 130.375,81.65625 129.77471,90.97423 129.90258,92.183637 131.96875,96.15625 133.20855,98.54001 134.74765,100.83203 135.375,101.25 137.5959,102.7297 141.54386,100.75957 147.15625,95.40625 150.24683,92.458341 153.4099,90.084382 154.25,90.03125 L 154.21875,88.40625 z M 135.125,28 C 132.58248,28 132.24218,37.485449 134.6875,40.1875 136.80013,42.521933 139.00362,40.914206 137,38.5 136.27213,37.622967 135.75071,34.928598 135.84375,32.46875 135.93642,30.018907 135.6206,28 135.125,28 z"/>
</svg>
