<svg xmlns="http://www.w3.org/2000/svg"
     width="19.5" height="64.0"
     viewBox="1540.6473 20.0000 24.3527 79.8802">
  <path d="M 1545,95.235891 C 1545,94.697943 1546.5719,93.187298 1548.4932,91.878902 1551.5601,89.790249 1551.9872,88.981459 1551.9932,85.25 1552.0003,80.801968 1550.8928,79.964335 1548.3571,82.5 1547.5321,83.325 1546.3268,83.995149 1545.6786,83.989221 1545.0304,83.983292 1546.4125,82.149457 1548.75,79.914031 1552.6245,76.208736 1553,75.414483 1553,70.92481 1553,65.653509 1552.026,64.909387 1548.5589,67.531803 1544.6473,70.490354 1544.8657,68.891679 1548.8736,65.228117 1552.2964,62.099373 1553,60.820557 1553,57.728117 1553,53.41472 1552.4842,53.196504 1549.3184,56.17061 1545.6391,59.627122 1545.7481,57.788002 1549.4706,53.603879 1551.757,51.033901 1552.8336,48.850712 1552.778,46.896823 1552.6797,43.440204 1551.4397,43.238279 1548.3184,46.17061 1547.0476,47.364445 1545.7339,48.067189 1545.3989,47.732262 1545.064,47.397335 1546.4122,45.698945 1548.395,43.95806 1551.7695,40.995164 1552,40.415869 1552,34.896408 1552,30.333333 1551.5477,28.547747 1550,27 1547.5004,24.500439 1547.4946,24 1549.9648,24 1552.7218,24 1554,26.965919 1554,33.36283 1554,38.955015 1554.9987,40.85856 1559.078,43.041732 1560.1351,43.607481 1561,44.729535 1561,45.535184 1561,47.395332 1560.5006,47.374115 1557.4648,45.38499 1555.0029,43.771881 1555,43.774204 1555,47.35931 1555,50.336041 1555.512,51.213414 1558,52.5 1559.7965,53.428996 1561,54.843405 1561,56.02568 1561,58.374821 1559.7235,58.57665 1558,56.5 1555.8456,53.904105 1554.8743,54.852887 1555.1925,59.242532 1555.4458,62.736685 1555.9851,63.716504 1558.25,64.797098 1559.858,65.564285 1561,66.91701 1561,68.054566 1561,70.082173 1558.5739,70.737533 1557.5,69 1556.2152,66.921072 1555.1959,68.144666 1554.7927,72.25 1554.4342,75.89977 1554.7724,76.874432 1557.1876,79.15121 1560.7158,82.477205 1560.6987,82.756164 1557,82.213308 1554.2569,81.810711 1554,82.020601 1554,84.663994 1554,86.254041 1553.244,88.634348 1552.32,89.953567 1550.8432,92.061966 1550.8313,92.278726 1552.2214,91.74527 1553.2145,91.364205 1553.9665,91.763801 1554.2425,92.819197 1554.5821,94.117777 1553.9791,94.513565 1551.591,94.559652 1549.891,94.592461 1547.7125,94.978106 1546.75,95.416641 1545.7327,95.880157 1545,95.804483 1545,95.235891 z"/>
</svg>
