<svg xmlns="http://www.w3.org/2000/svg"
     width="20.4" height="64.0"
     viewBox="2193.9595 18.3996 27.1398 85.2148">
  <path d="M 2205.375,50.15625 2205.8438,54.8125 C 2206.6941,54.897564 2207,55.71438 2207,57.46875 2207,57.996143 2206.7153,58.514733 2206.2812,59.0625 L 2206.6562,62.65625 2206.0625,63.28125 C 2206.1587,63.303909 2206.2883,63.27922 2206.375,63.3125 2207.7166,63.827332 2208,65.499453 2208,72.65625 2208,80.73661 2207.8005,81.591934 2205.3438,84.15625 2202.3111,87.321676 2201.5144,94.498648 2203.875,97.34375 2205.759,99.614326 2210.2052,99.430869 2213.375,96.9375 2217.0993,94.008016 2216.9666,88.639391 2213.0625,83.25 L 2210.125,79.21875 2209.4688,57.75 2208.7812,36.3125 2212,33.78125 C 2213.7746,32.392395 2214.8004,30.996407 2214.25,30.65625 2213.6996,30.316094 2212.1076,30.907494 2210.7188,32 2207.5567,34.487229 2206.5276,34.496572 2202.4375,31.96875 2199.971,30.444351 2198.9721,30.24072 2198.4062,31.15625 2197.9595,31.879035 2198.3815,32.808795 2199.4375,33.4375 2204.4429,36.417382 2205.7798,38.134702 2206.4062,42.3125 2206.9053,45.640624 2206.5683,48.072889 2205.375,50.15625 z M 2209.6562,84.15625 C 2209.9649,84.216773 2210.2914,84.370359 2210.6562,84.59375 2213.3752,86.258479 2214.4568,92.85588 2212.375,95.15625 2210.1335,97.63311 2207.4574,97.486575 2205.5625,94.78125 2203.3929,91.6837 2203.6058,89.569486 2206.4375,86.3125 2207.9333,84.592036 2208.7303,83.974682 2209.6562,84.15625 z M 2211.3125,22.59375 C 2210.8797,22.658475 2210.2541,22.902408 2209.4375,23.4375 2207.7148,24.566289 2205.9095,24.933128 2203.9375,24.5 2200.6683,23.781964 2199.9308,25.264236 2202.75,26.90625 2205.3051,28.394436 2207.2132,28.178775 2209.75,26.0625 2212.1519,24.058771 2212.6109,22.399576 2211.3125,22.59375 z"/>
</svg>
