<svg xmlns="http://www.w3.org/2000/svg"
     width="28.4" height="64.0"
     viewBox="2505.3125 30.1324 32.0015 72.0805">
  <path d="M 2511.3438,34.6875 2510.9375,36.75 C 2512.2896,36.495582 2513.5118,36.601665 2515.4375,37.40625 2517.3197,38.192692 2519.6626,40.077394 2520.6562,41.59375 2522.3906,44.240763 2522.5454,46.080163 2521.875,56.5 2521.684,59.468807 2522.6099,62.562387 2525.5,68.5 2530.6973,79.177371 2531.2966,85.947002 2527.5938,91.8125 2526.1588,94.085716 2525,96.168832 2525,96.4375 2525,98.212832 2528.4492,95.064844 2530.1562,91.71875 2533.314,85.529035 2532.4177,76.667331 2527.6562,66.78125 2524.0808,59.357406 2523.9595,58.781571 2524.5312,51.28125 2525.0496,44.481277 2524.8549,43.077094 2523.0312,40.1875 2520.4784,36.142278 2515.9068,34.132354 2511.3438,34.6875 z M 2509.8438,42.5 2509.3125,45.1875 C 2510.8468,45.407228 2512.3055,45.886389 2513.1562,46.65625 2515.2418,48.54363 2515.5974,54.004568 2513.8438,57.28125 2511.959,60.802807 2512.6622,64.29453 2516.3125,69.71875 2520.8626,76.480306 2522.5743,83.589059 2521.0938,89.46875 2520.4837,91.891077 2520,94.131051 2520,94.4375 2520,94.743949 2520.3513,95 2520.7812,95 2522.394,95 2524.2175,85.979027 2523.5625,81.25 2522.6709,74.813003 2521.1567,71.11617 2517.8125,67.21875 2514.5788,63.450078 2514.4312,62.294991 2516.5,57.34375 2517.325,55.369247 2518,52.508659 2518,51 2518,46.58338 2514.2404,43.202706 2509.8438,42.5 z"/>
</svg>
