<svg xmlns="http://www.w3.org/2000/svg"
     width="38.2" height="64.0"
     viewBox="1901.3076 20.0382 51.3103 85.9618">
  <path d="M 1918,98 C 1919.1224,95.8 1920.5694,94 1921.2156,94 1921.8618,94 1923.648,95.204694 1925.1849,96.677098 1926.7217,98.149501 1928.1733,99.160017 1928.4106,98.922687 1928.648,98.685358 1927.7232,94.668164 1926.3556,89.99559 1923.446,80.054994 1923.7202,73.170787 1927.5016,61.22305 L 1929.8047,53.946099 1926.7573,44.22305 C 1923.3376,33.31227 1921.987,30 1920.9575,30 1919.5235,30 1906.8242,52.214091 1907.3279,53.841505 1907.6102,54.753677 1909.296,58.875 1911.0741,63 1914.2163,70.289365 1914.3098,70.91872 1914.4035,85.409176 1914.4626,94.542783 1914.1126,100.45036 1913.5,100.65912 1912.8677,100.87459 1912.457,95.760349 1912.383,86.749941 1912.2733,73.394999 1912.0692,71.969819 1909.133,64.058597 1905.6329,54.628016 1905.3076,51.239554 1907.4963,47.007091 1908.4401,45.181971 1908.6248,43.886127 1907.9963,43.497734 1907.4483,43.159062 1907,41.953424 1907,40.818538 1907,39.12535 1907.2613,38.971957 1908.4562,39.963645 1910.3248,41.514459 1911.4316,40.786534 1913.0142,36.965821 1913.9711,34.655638 1914.0035,33.603519 1913.1444,32.744365 1912.515,32.114964 1912,30.720256 1912,29.645012 1912,27.803693 1912.1079,27.787717 1913.8566,29.370241 1915.8366,31.162099 1916.9802,30.489738 1918.3134,26.75 1919.2801,24.038207 1921.7826,24.678888 1923.5464,28.089747 1925.0853,31.065574 1925.2155,31.114961 1927.0782,29.429211 1929.6294,27.120449 1930.6327,28.258635 1928.602,31.157839 1926.7814,33.757162 1926.4727,38.556104 1928.063,39.538944 1928.6477,39.900282 1930.0004,39.404599 1931.0691,38.437425 1933.8345,35.934793 1934.7769,37.544111 1932.1706,40.318394 1929.7143,42.932997 1929.5342,44.365412 1931.0978,48.850777 1932.3594,52.469845 1934.8265,52.954165 1937.4173,50.091375 1939.6491,47.625236 1944.5395,45.609326 1946.482,46.354734 1948.2786,47.044143 1948.6179,55.976952 1946.9648,59.065741 1945.6062,61.604326 1944.419,61.511417 1938.1226,58.373784 1935.2113,56.923055 1932.5052,56.13976 1932.0766,56.623784 1929.9644,59.009301 1927.7263,67.336842 1927.2722,74.5 1926.8391,81.333607 1927.1467,83.633013 1929.3826,90.271054 1932.6458,99.95954 1932.6376,100.64183 1929.25,101.30603 1927.1879,101.71034 1925.8147,101.19489 1923.7604,99.245514 1920.7966,96.432949 1920.8278,96.429562 1919.1003,99.75 1918.4564,100.9875 1917.4863,102 1916.9445,102 1916.4027,102 1916.8776,100.2 1918,98 z M 1918.229,60.274526 C 1914.1026,58.79667 1912.7635,48.540259 1916.0033,43.226629 1917.9424,40.046091 1918.0688,39.998998 1920.4605,41.566089 1923.0288,43.248892 1923.4886,44.206985 1924.513,50.010406 1925.5514,55.892838 1922.0344,61.637418 1918.229,60.274526 z M 1921.7971,52.860749 C 1922.1198,47.991516 1920.6906,43 1918.9737,43 1916.9091,43 1914.9978,49.505544 1916.0177,53.061577 1917.8715,59.525379 1921.3635,59.404035 1921.7971,52.860749 z M 1945.5071,55.977529 C 1945.8602,54.86517 1945.8604,52.640814 1945.5076,51.034515 1944.7796,47.720113 1943.4084,47.876231 1938.4372,51.839478 L 1935.5028,54.178955 1937.8622,56.089478 C 1940.9951,58.626337 1944.6836,58.572324 1945.5071,55.977529 z"/>
</svg>
