<svg xmlns="http://www.w3.org/2000/svg"
     width="25.2" height="64.0"
     viewBox="332.6562 22.9043 30.0922 76.4661">
  <path d="M 336.65625,29.125 336.65625,29.34375 337.71875,32.8125 C 338.61675,31.286213 340.38213,29.946509 343.21875,28.78125 345.98693,27.644107 348,31.605991 348,38.1875 348,43.196523 347.6078,44.387506 344.875,47.5 341.63052,51.19526 341.57879,53.582715 344.8125,50.65625 347.52993,48.19701 348,48.580957 348,53.21875 348,56.72224 347.39562,58.061356 344.3125,61.21875 341.97067,63.617007 341.14325,65 342.09375,65 342.92037,65 344.13042,64.463333 344.78125,63.8125 346.30948,62.284275 346.68162,62.743092 347.5,67.125 348.0864,70.264777 347.73787,71.221145 344.96875,74.375 343.2143,76.37321 342.26923,78 342.84375,78 343.41827,78 344.16008,77.55 344.5,77 346.02162,74.537969 347,76.478929 347,81.9375 347,86.85094 346.55377,88.385312 344.40625,90.9375 341.4517,94.448777 341.53709,94.52282 346.125,92.59375 349.08388,91.349633 349.81821,91.363214 352.21875,92.78125 356.60179,95.370377 356.86295,93.124598 352.59375,89.53125 349.23626,86.705278 348.69157,85.685594 348.8125,82.46875 348.98846,77.788302 349.4981,77.249243 351.8125,79.34375 353.80426,81.14627 356,81.53365 356,80.09375 356,79.59875 354.425,77.6125 352.5,75.6875 349.85922,73.046723 349,71.371726 349,68.78125 349,64.136394 349.73277,63.664347 353.5625,66.03125 358.39362,69.017042 358.74845,66.697092 354.03125,62.90625 350.35054,59.948345 350,59.27701 350,54.90625 350,49.499815 350.85753,48.428836 353.59375,50.5 356.029,52.343346 357,52.365485 357,50.5625 357,49.768595 355.6507,48.318846 354,47.34375 350.55774,45.310357 350.40014,44.88587 349.5,35.6875 348.91997,29.760252 348.49885,28.748941 346.375,27.78125 344.45033,26.904308 343.20921,27.005664 340.46875,28.3125 338.10479,29.439795 337.33823,29.715637 336.65625,29.125 z"/>
</svg>
