<svg xmlns="http://www.w3.org/2000/svg"
     width="15.8" height="64.0"
     viewBox="1568.1567 20.0000 20.9371 85.0000">
  <path d="M 1585.0938,76.96875 C 1584.4486,74.037825 1584.6102,68.998943 1584.6875,57.78125 1584.846,34.777961 1584.1296,26.344834 1581.9062,24.9375 1581.1262,24.44382 1578.8716,24.008422 1576.875,24 L 1573.25,24 1573.0938,45.25 C 1573.0101,56.9375 1572.7182,73.829005 1572.4375,82.78125 1572.1567,91.733496 1572.2005,99.495996 1572.5312,100.03125 1572.8621,100.5665 1575.0538,101 1577.4375,101 1581.7839,101 1583.4968,99.55529 1582.4688,96.75 1582.2169,96.0625 1582.4527,94.843047 1582.9688,94.03125 1583.1146,93.80184 1583.2338,93.669566 1583.375,93.53125 L 1583.3438,93.34375 1583.7188,88.96875 C 1583.2456,88.18608 1583.0009,87.385967 1583,86.3125 1582.9985,84.557459 1583.3855,82.865042 1583.875,82.5625 1583.9224,82.533197 1584.1691,82.633822 1584.25,82.625 L 1584.6562,78 1585.0938,76.96875 z M 1578.9375,26.15625 C 1581.7231,26.492004 1582.1572,30.50628 1582.6562,48.6875 1583.0603,63.404672 1582.7874,72.170199 1581.5938,82.71875 1580.7095,90.532493 1580,97.394993 1580,97.96875 1580,98.542507 1578.65,99 1577,99 1574.8369,99 1573.9894,98.51178 1573.9375,97.25 1573.7048,91.593419 1574.3497,52.323191 1574.875,40.5 1575.4615,27.299645 1575.6255,26.468721 1577.5938,26.1875 1578.0937,26.116067 1578.5396,26.108285 1578.9375,26.15625 z"/>
</svg>
