<svg xmlns="http://www.w3.org/2000/svg"
     width="55.9" height="64.0"
     viewBox="2068.2758 17.3701 75.7242 86.6299">
  <path d="M 2139.8438,52.5 C 2139.7712,54.206545 2139.5305,55.023099 2138.9062,55.03125 2138.1399,55.041259 2135.475,56.40677 2133,58.09375 L 2128.5,61.15625 2123.4688,55.59375 C 2120.7069,52.521762 2118.0168,50 2117.4688,50 2116.9207,50 2114.743,51.185769 2112.625,52.625 2107.6939,55.975819 2106.8049,54.797705 2107.6562,46 2108.4875,37.4098 2109.5235,34.71357 2111.75,35.375 2119.1608,37.576572 2120.0555,37.182629 2121.75,30.96875 2122.7083,27.454314 2121.8594,23 2120.2188,23 2119.7452,23 2117.2609,24.378634 2114.7188,26.0625 2109.6346,29.43013 2108.4336,29.266859 2104.0625,24.59375 2101.0613,21.385178 2100.4883,21.370059 2096.3438,24.53125 2090.96,28.637635 2090.659,30.018333 2093.6562,36.65625 2097.0477,44.167364 2097.6731,56.216119 2094.6875,56.8125 2093.6841,57.012936 2092.0534,56.427969 2091.0625,55.53125 2088.0524,52.80711 2082.8845,52.507751 2079.875,54.875 2074.8159,58.854527 2072.2758,68.913896 2075.0312,74.0625 2076.4117,76.641919 2077.4358,76.515373 2078.7812,73.5625 2079.3951,72.215351 2081.0931,69.246878 2082.5312,66.96875 2085.1017,62.897052 2085.1899,62.848434 2087.1875,64.65625 2092.6375,69.58845 2093.3046,75.441028 2089,80.34375 2085.3149,84.540806 2085.284,85.86516 2088.7188,93.75 2090.2198,97.195934 2092.0936,100 2092.875,100 2095.3658,100 2096.9361,96.656157 2096.9688,91.3125 2096.9939,87.21211 2097.524,85.527402 2099.5,83.3125 L 2102,80.5 2104.0938,83 C 2105.7144,84.920009 2106.0908,86.368522 2105.6875,89.375 2105.1111,93.6727 2106.4534,97.563491 2108.8125,98.46875 2111.2394,99.400042 2111.4108,98.999899 2114.9375,85.28125 2115.5577,82.868897 2115.3295,81.194979 2113.9688,78.65625 2110.8039,72.751335 2110.5788,68.913404 2113.1875,65.0625 2114.461,63.182727 2115.95,61.549885 2116.5,61.40625 2117.05,61.262614 2118.8623,63.011266 2120.5312,65.3125 2124.3345,70.556622 2127.3393,71.035321 2134.4375,67.5625 2137.1091,66.255431 2139.2877,65.347308 2140,65.1875 L 2140,60.90625 C 2139.6709,61.422694 2139.3011,62 2138.9688,62 2138.5141,62 2135.8654,63.402017 2133.0938,65.125 2128.3221,68.091217 2127.9106,68.185079 2125.625,66.6875 2124.2974,65.817604 2122.2383,63.515587 2121.0312,61.5625 2119.8242,59.609414 2118.2973,58 2117.625,58 2116.1773,58 2110.72,63.576935 2109.125,66.6875 2107.4493,69.955446 2107.7419,72.057684 2110.6562,77.90625 L 2113.2812,83.21875 2111.5938,88.625 C 2109.6078,94.925393 2108.0106,94.969805 2108.7188,88.6875 2109.1506,84.856119 2108.8296,83.879015 2106,80.65625 2104.2315,78.642091 2102.4156,77 2101.9688,77 2101.522,77 2099.6725,78.878555 2097.8438,81.1875 2095.4226,84.244361 2094.3707,86.745954 2094,90.34375 L 2093.5,95.28125 2091.25,91.03125 C 2088.328,85.533297 2088.4055,84.437645 2092,80.34375 2095.2474,76.645139 2095.8359,72.810886 2093.75,68.875 2091.2962,64.245174 2087.5852,60 2086,60 2085.1146,60 2082.6961,62.7 2080.5938,66 2078.4913,69.3 2076.5355,72 2076.25,72 2074.6794,72 2077.2364,61.383726 2079.5312,58.375 2082.6635,54.268562 2084.5051,54.178003 2090.9375,57.75 2095.4899,60.278007 2096.0412,60.384633 2097.5312,58.90625 2100.6909,55.771327 2099.8949,45.143865 2095.7812,35.21875 L 2093.5312,29.78125 2096.5312,27.40625 C 2098.1701,26.094917 2099.8029,25.002732 2100.1875,25 2100.5721,24.997268 2102.2961,26.4625 2104,28.25 2106.6152,30.993435 2107.003,32.045532 2106.5312,35 2104.9506,44.901039 2104.8585,54.536747 2106.3125,56.46875 2107.7632,58.396523 2107.8421,58.383659 2111.6875,55.71875 2113.8394,54.227471 2116.0845,53 2116.6562,53 2117.2281,53 2119.5874,55.25 2121.9062,58 2124.6196,61.217801 2126.8913,63 2128.3125,63 2130.3943,63 2137.7958,58.729537 2139.125,56.75 2139.4287,56.297693 2139.7296,56.501425 2140,56.90625 L 2140,52.65625 2139.8438,52.5 z M 2119,26.90625 C 2119.7492,27.250128 2119.8305,28.535222 2119.375,30.8125 2118.8436,33.469421 2118.2944,34 2116,34 2114.4861,34 2112.7388,33.395894 2112.125,32.65625 2111.2537,31.606404 2111.8229,30.716695 2114.7188,28.65625 2116.8428,27.144919 2118.2508,26.562372 2119,26.90625 z"/>
</svg>
