<svg xmlns="http://www.w3.org/2000/svg"
     width="35.1" height="64.0"
     viewBox="57.5052 24.5960 44.0874 80.3243">
  <path d="M 95.5625,80.03125 C 92.962955,83.107801 85.552999,87.213638 82.78125,86.8125 79.856347,86.389197 79.214406,83.694132 79.09375,71.125 78.975796,58.83741 80.276049,53.628948 84.1875,50.84375 88.337864,47.88843 91.257934,41.788923 90.03125,38.5625 88.857851,35.476229 88.598691,35.442249 84.875,38.09375 80.545803,41.176411 79,40.070277 79,33.84375 79,30.170756 78.679028,28.914722 77.9375,29.65625 76.778818,30.814932 76.421627,40.243218 77.46875,41.9375 78.436299,43.503026 82.232723,43.235085 84.84375,41.40625 86.101696,40.525151 87.374036,40.061536 87.6875,40.375 88.952212,41.639713 85.585192,47.012543 82.0625,49.34375 78.557392,51.663321 78.213793,52.31035 77,59.40625 75.589295,67.653308 76.100107,80.400993 78.03125,85.75 79.045715,88.559931 79.649056,89 82.625,89 84.518107,89 87.893613,88.075868 90.125,86.9375 97.592644,83.127792 96.526788,87.053664 88.40625,93.25 82.945051,97.417141 77.803737,98.911932 75.5,97 70.796403,93.096361 66.127567,63.200744 68.90625,54.78125 69.974111,51.545601 69.836687,50.851202 67.5625,47.5 64.592017,43.122749 63.529706,38.338957 64.4375,33.5 65.156787,29.665871 63.604231,28.596013 62.625,32.25 61.505239,36.428373 62.019014,41.470965 64.03125,45.90625 65.658731,49.493475 66.109359,53.04764 66.4375,64.90625 66.961466,83.841771 70.097631,96.041062 75.28125,99.4375 77.544272,100.92029 78.062145,100.90269 82.125,99.15625 84.538893,98.118625 88.454212,95.625575 90.84375,93.625 93.219477,91.635986 95.717959,90.018768 96.4375,90 L 96,81.34375 95.5625,80.03125 z M 71.875,28.84375 C 71.389626,28.970057 70.795792,30.964465 70.34375,34.78125 69.96315,37.99482 70.214306,41.071916 71,42.96875 72.591835,46.811779 74.513482,47.033653 73.4375,43.25 73.007381,41.7375 72.697045,37.665703 72.71875,34.1875 72.741872,30.482331 72.360374,28.717443 71.875,28.84375 z"/>
</svg>
