<svg xmlns="http://www.w3.org/2000/svg"
     width="36.3" height="64.0"
     viewBox="2662.4085 17.0000 50.1497 88.3665">
  <path d="M 2669.9908,98.982739 C 2669.397,97.873246 2668.8577,93.485746 2668.7923,89.232739 2668.6958,82.952739 2669.174,80.29307 2671.3375,75.075667 2673.8202,69.088647 2673.8947,68.488261 2672.4319,66.255725 2667.643,58.947009 2666.4085,41.11161 2670.0517,31.868721 2672.8047,24.884464 2675.7055,21 2678.1681,21 2683.6511,21 2689.9544,32.377664 2692.0873,46.124653 2693.0148,52.102563 2692.9092,54.377841 2691.4088,60.749334 L 2689.6319,68.294723 2692.5659,70.642394 C 2696.3442,73.665573 2697.0423,73.609053 2700.5,70 2702.0808,68.35 2703.8938,67 2704.5288,67 2707.4086,67 2708.5582,79.918946 2705.8285,81.606007 2705.3262,81.916421 2702.7392,81.387875 2700.0795,80.431461 2694.5145,78.430316 2692.8227,78.814834 2690.3083,82.652277 2688.98,84.679483 2688.5,87.354856 2688.5,92.731199 2688.5,98.696586 2688.2226,99.997864 2687,99.766552 2683.33,99.072177 2685.4501,84.389712 2690.1794,77.748035 L 2692.168,74.955351 2689.0426,71.395745 C 2685.8764,67.789641 2685.6931,65.434379 2688.3235,62.155223 2688.9168,61.415595 2689.3789,57.119694 2689.3504,52.608776 2689.2938,43.651745 2686.5953,33.663049 2682.651,27.810065 2679.3665,22.936204 2677.5994,23.123288 2674.3265,28.691407 2671.6317,33.275932 2671.5,34.082468 2671.5,46 2671.5,58.01557 2671.6146,58.700216 2674.4559,63.666268 L 2677.4118,68.832537 2674.4559,74.666268 C 2671.8923,79.725772 2671.5144,81.525466 2671.6083,88.226788 2671.6711,92.706628 2672.2325,96.575251 2672.9444,97.432983 2674.1903,98.934191 2673.6295,101 2671.9762,101 2671.478,101 2670.5845,100.09223 2669.9908,98.982739 z M 2676.3308,99.75 C 2675.1411,97.861053 2675.583,83.647716 2676.9084,81.171191 2678.7442,77.740863 2679.8755,78.629335 2678.9185,82.75 2677.6627,88.158168 2677.8169,93.125521 2679.3308,96.026214 2680.0559,97.415632 2680.4656,99.103132 2680.2413,99.776214 2679.7112,101.36649 2677.3388,101.35059 2676.3308,99.75 z M 2704.9847,75.690983 C 2704.9763,74.485942 2704.55,72.836792 2704.0374,72.026205 2703.2515,70.783479 2702.7051,70.928398 2700.5527,72.950519 2697.3279,75.980071 2697.3536,76.610413 2700.75,77.781721 2704.1299,78.947326 2705.0044,78.515535 2704.9847,75.690983 z"/>
</svg>
