<svg xmlns="http://www.w3.org/2000/svg"
     width="64.0" height="57.3"
     viewBox="-0.5461 17.5838 98.8197 88.4162">
  <path d="M 16.31829,96.25 C 14.903881,93.0875 13.531306,88.686736 13.268123,86.470525 12.848716,82.93879 13.247986,81.892407 16.500431,77.999484 19.921066,73.90525 20.162804,73.20444 19.591697,69.037756 19.203266,66.203848 18.073224,63.618679 16.562511,62.107966 L 14.152883,59.698337 12.687402,63.205727 C 11.881387,65.134792 10.911234,68.127666 10.531505,69.856559 9.7317558,73.497793 6.6943959,74.166008 5.0351838,71.065741 3.4538671,68.111024 3.9032789,57.032694 5.8043836,52.104401 8.2373619,45.797316 9.8352717,45.11098 16.011344,47.720295 19.607283,49.239536 21.214194,49.524674 21.461412,48.687382 21.654234,48.034322 22.372836,44.575 23.058306,41 24.579287,33.067471 27.05301,27.890063 30.68843,25.030441 33.018548,23.19757 34.192252,22.974883 38.46633,23.55474 44.329277,24.350158 50.402694,26.572684 54.134901,29.28855 L 56.769803,31.205925 62.858686,27.852962 C 68.607942,24.687022 69.098921,24.583841 71.661025,26.003119 75.0394,27.87457 76.327351,32.434993 75.698548,40.299325 75.063364,48.243468 73.860577,49.226438 69.704339,45.198053 64.287783,39.94812 63,41.092364 63,51.155112 63,56.276249 62.750884,57.098673 61.285168,56.816402 58.622319,56.303584 55.001882,50.146848 54.984687,46.102117 54.976265,44.120953 54.638765,42.00029 54.234687,41.389532 52.982947,39.497548 47.689027,37.225872 42.835563,36.49805 38.934724,35.913083 37.87419,36.12581 36.16367,37.83633 33.689145,40.310855 32.051296,45.817509 32.731495,49.375738 33.340365,52.560834 33.484117,52.563281 38.5,49.473914 40.7,48.118897 43.252435,47.007941 44.172077,47.005123 46.299337,46.998605 52.354693,54.035526 55.097646,59.70171 57.588542,64.847214 61.516964,67.246607 65.986894,66.352621 69.409738,65.668052 77.13529,58.572845 79.557044,53.889688 81.656844,49.829124 82.325154,50.286034 80.538958,54.561002 77.087482,62.821548 69.961097,68.551364 63.321801,68.404087 58.030553,68.286713 56.319873,66.838009 51.102744,58.056281 45.409785,48.473612 44.985231,48.232573 39.481161,51.458173 36.974495,52.927176 33.92828,53.987544 32.711794,53.814544 30.766945,53.537963 30.463964,52.811369 30.201418,47.794288 29.869166,41.445188 31.659384,36.787843 35.150276,34.919575 38.785542,32.974039 48.280717,34.258229 52.909568,37.321457 56.502622,39.699227 57,40.489794 57,43.823059 57,45.910134 57.63457,48.485567 58.410156,49.546243 59.737423,51.361389 59.853824,51.26976 60.390463,47.987373 60.704047,46.069318 61.081977,43.379597 61.230307,42.010216 61.609602,38.508592 64.437707,38.333741 68.655907,41.551119 71.529287,43.742752 72.386034,44.000029 73.093108,42.883588 75.040272,39.809098 73.219358,28.681889 70.60489,27.678624 68.716977,26.954163 63.921133,29.54595 61.335543,32.687997 L 59.171086,35.318277 54.335543,32.248995 C 43.574008,25.418288 34.288356,23.935254 30.112479,28.380272 27.42079,31.245443 25.343031,37.763799 24.419509,46.240281 24.044408,49.683127 23.548274,52.832219 23.316989,53.238265 23.085705,53.64431 20.164262,52.597314 16.824894,50.911607 13.485526,49.225899 10.413181,48.21868 9.9974604,48.673342 7.7014593,51.184414 5.440012,64.18507 6.8621712,66.697558 7.7358109,68.240993 8.1974206,67.745586 10.074534,63.25 11.782324,59.159936 12.755301,58 14.478338,58 17.336981,58 19.570062,60.529973 21.47367,65.925373 23.637815,72.059214 23.472451,72.925051 19,78.877322 16.8,81.805247 15,84.634715 15,85.165029 15,86.922433 19.23165,96 20.050891,96 20.493423,96 20.64475,93.6375 20.387174,90.75 19.928987,85.613611 20.026247,85.380979 24.881593,80 L 29.844333,74.5 32.849508,77.36748 C 37.246382,81.562892 38.463602,85.131987 37.19801,90.118026 36.185413,94.107347 36.483721,97 37.907723,97 39.02259,97 43.00172,88.156688 42.981803,85.723249 42.971794,84.500462 41.621794,81.519784 39.981803,79.099519 36.00448,73.229871 35.822963,70.227506 39.061618,63.879219 41.487273,59.124542 44.033698,58.129775 45.958345,61.184996 47.81966,64.139683 56.90854,73.174465 59.397971,74.544628 60.627922,75.221583 61.354242,76.805427 61.461583,79.044628 61.789217,85.879231 62.04577,87.52307 63.015313,89 64.651671,91.492707 65.967223,88.301398 65.984687,81.796794 L 66,76.093589 70.27734,74.201518 C 78.139768,70.723592 85.943457,59.059439 89.452872,45.539901 92.224633,34.86207 90.815704,32.373439 87.02416,41.25 84.116254,48.057836 83.374848,46.130136 85.984179,38.545986 87.09288,35.323488 88,30.507347 88,27.84345 88,22.039393 89.510309,21.583756 91.663931,26.7381 94.273561,32.983824 93.098963,44.806711 88.926912,54.287486 84.833127,63.590405 77.840354,72.742798 72.719751,75.5 69.286279,77.348762 69.004085,77.840286 68.98796,82 68.966373,87.569 67.132035,91.401768 64.292629,91.810684 61.5341,92.207954 60.226915,89.782038 59.397671,82.726468 58.796111,77.60813 58.42766,76.999619 53.869686,73.596775 51.183779,71.591559 47.97682,68.39254 46.74311,66.487843 45.509399,64.583146 44.005843,63.019187 43.401874,63.012379 42.797905,63.00557 41.535185,64.70437 40.595829,66.78749 38.665657,71.067847 39.197375,73.453307 43.489603,79.769888 44.870321,81.801797 46.001857,84.147308 46.004128,84.982135 46.011297,87.618764 39.555633,100.99777 38.27568,100.99891 35.790141,101.00112 33.94389,95.328758 34.603491,89.716582 35.15365,85.03559 34.939697,84.04142 32.862434,81.626458 30.032279,78.336207 28.337065,78.755192 25.25,83.50793 23.557691,86.11335 23,88.444898 23,92.914547 23,96.983574 22.504563,99.35258 21.428571,100.42857 20.564286,101.29286 19.639523,102 19.373542,102 19.107562,102 17.732699,99.4125 16.31829,96.25 z"/>
</svg>
