<svg xmlns="http://www.w3.org/2000/svg"
     width="64.0" height="55.3"
     viewBox="2741.1424 67.1077 42.0706 36.3559">
  <path d="M 2769.7812,73.8125 2765.9375,77.84375 C 2765.9644,78.030395 2765.9718,79.970702 2766,79.96875 2766.275,79.949691 2767.625,79.286021 2769,78.5 2774.9389,75.105028 2776.4797,77.700145 2773.1875,85.53125 2768.4171,96.878669 2761.3491,99.134298 2755.2812,91.25 2752.5847,87.746149 2749.1415,77.514764 2750.2812,76.375 2750.5618,76.094388 2752.6663,76.413282 2754.9375,77.09375 2757.2585,77.789122 2758.6619,77.833401 2759.5,77.46875 L 2757.75,74.375 C 2757.7463,74.38366 2757.7857,74.558013 2757.7812,74.5625 2757.6103,74.733544 2755.2906,74.179776 2752.6562,73.3125 2745.9591,71.107704 2745.1424,72.181713 2747.4688,80.21875 2751.1132,92.808932 2753.8689,96.556247 2760.5,98 2767.222,99.463561 2772.816,94.640764 2775.9375,84.6875 2779.213,74.243157 2778.5652,72.648794 2771.6875,74.375 2770.6916,74.624958 2770.1661,74.560261 2769.7812,73.8125 z"/>
</svg>
