<svg xmlns="http://www.w3.org/2000/svg"
     width="24.6" height="64.0"
     viewBox="1022.1293 17.2439 32.9688 85.7379">
  <path d="M 1034.4705,94.866081 C 1029.4001,90.192357 1026.7212,85.889988 1027.545,83.743446 1027.8369,82.982661 1030.0837,80.681759 1032.5379,78.630329 1034.992,76.578899 1037,74.474293 1037,73.953426 1037,73.432559 1034.7664,70.853461 1032.0364,68.222097 1026.1293,62.528387 1026.1839,61.198736 1032.5837,54.917901 1038.5765,49.036329 1038.558,46.167988 1032.5,42 1026.5809,37.927549 1026.5334,35.209068 1032.25,27.67973 1034.5875,24.600987 1037.0938,21.840681 1037.8195,21.545718 1038.5622,21.243872 1041.2945,23.222338 1044.0695,26.071365 1050.5062,32.67965 1050.5553,35.053784 1044.3973,41.903009 1039.2006,47.682982 1039.2213,49.017998 1044.5565,52.165827 1051.0981,56.025504 1050.9026,60.701491 1043.8613,68.784796 1042.2876,70.591434 1041,72.637608 1041,73.331848 1041,74.026089 1042.8,76.351757 1045,78.5 1047.9434,81.374152 1049,83.213797 1049,85.464385 1049,89.050601 1043.2953,98.319445 1040.7913,98.801671 1039.856,98.981794 1037.0196,97.215706 1034.4705,94.866081 z M 1038,61.5 C 1038,57.989919 1037.599,54.870201 1037.1089,54.567294 1036.6188,54.264387 1034.5224,55.893088 1032.4504,58.18663 L 1028.6829,62.356706 1032.5536,65.606289 C 1034.6824,67.39356 1036.7787,68.636743 1037.2121,68.368919 1037.6454,68.101095 1038,65.010081 1038,61.5 z M 1037.8708,85.489428 C 1037.7744,82.539197 1037.4141,79.669959 1037.07,79.113343 1036.1635,77.646532 1030,82.764077 1030,84.983584 1030,87.110947 1035.7132,92.295311 1037.1077,91.433428 1037.6238,91.114459 1037.9672,88.439658 1037.8708,85.489428 z M 1044.5316,38.547496 C 1047.6577,34.448908 1047.3456,32.920715 1042.2958,27.602043 L 1038.5949,23.704086 1035.1965,27.602043 C 1029.8776,33.70291 1029.3269,36.024261 1032.5422,38.789998 1036.3336,42.051149 1037.5,41.159455 1037.5,35 1037.5,31.647605 1037.9608,29.53249 1038.75,29.261898 1039.6668,28.947566 1040,30.588099 1040,35.416667 1040,39.0375 1040.4271,42 1040.9491,42 1041.4711,42 1043.0832,40.446373 1044.5316,38.547496 z M 1045.166,89.67469 C 1046.8804,86.314064 1046.9955,85.360168 1045.9274,83.3644 1044.3116,80.345282 1040.0339,77.397925 1039.9224,79.226947 1039.5171,85.875655 1039.4304,94.656001 1039.7638,95.298558 1040.4357,96.59372 1042.9958,93.9286 1045.166,89.67469 z M 1046.9851,59.32258 C 1046.9989,57.302138 1042.8346,53 1040.8651,53 1040.3893,53 1040.0169,56.7125 1040.0375,61.25 L 1040.0751,69.5 1043.5227,65.5 C 1045.4188,63.3 1046.9769,60.520161 1046.9851,59.32258 z"/>
</svg>
