<svg xmlns="http://www.w3.org/2000/svg"
     width="38.5" height="64.0"
     viewBox="2740.7714 14.0344 40.8391 67.8093">
  <path d="M 2768.625,20.125 C 2768.187,20.216945 2767.6556,20.445231 2767.1875,20.78125 2762.2882,24.298457 2760.9758,24.475351 2756.6562,22.1875 2748.8149,18.034432 2747.5915,20.050506 2755,24.90625 2757.475,26.528446 2760.175,27.855125 2761,27.875 2762.945,27.921857 2770.561,21.217284 2769.625,20.28125 2769.4284,20.084734 2769.063,20.033055 2768.625,20.125 z M 2775.8438,24.03125 C 2775.6263,24.097792 2775.4227,24.318952 2775.3125,24.625 2775.0921,25.237097 2772.8106,28.574626 2770.2188,32.0625 L 2765.5,38.40625 2765.5,59.21875 C 2765.5,69.48443 2765.7015,76.208099 2765.9375,77.84375 L 2769.7812,73.8125 C 2769.2485,72.777447 2769.0311,70.222982 2768.6562,63.71875 2767.3756,41.492824 2767.5503,39.756217 2771.5625,34.5 2775.8554,28.875948 2777.6105,25.256948 2776.5312,24.25 2776.3115,24.044912 2776.0612,23.964708 2775.8438,24.03125 z M 2757.75,74.375 2759.5,77.46875 C 2759.6561,77.400817 2759.9578,77.44847 2760.0625,77.34375 2760.7294,76.676909 2760.5253,72.185843 2759.4375,63.90625 2758.3802,55.859322 2758.0438,48.898055 2758.4688,44.09375 L 2759.125,36.6875 2753.3438,30.84375 C 2750.1673,27.633871 2747.2109,25 2746.7812,25 2744.7714,25 2746.4208,28.105054 2750.625,32.25 L 2755.25,36.8125 2755.5,48.65625 C 2755.6475,55.170723 2756.3052,63.592561 2756.9375,67.375 2757.5531,71.058205 2757.8888,74.053595 2757.75,74.375 z"/>
</svg>
