<svg xmlns="http://www.w3.org/2000/svg"
     width="25.4" height="64.0"
     viewBox="1900.1795 20.0905 33.7538 84.9095">
  <path d="M 1911.1951,95.518978 C 1904.7615,88.731241 1904.6189,86.679028 1910.1973,81.155802 1912.5059,78.870111 1914.7559,77 1915.1973,77 1917.3679,77 1915.4913,73.15541 1911.006,68.412813 1905.0984,62.166392 1905.1761,61.402223 1912.3847,54.851814 L 1917.5,50.203628 1911.7419,44.851814 C 1904.2094,37.850769 1904.1795,36.011872 1911.4855,29.102129 1915.9941,24.838082 1917.3007,24.09054 1918.8218,24.904619 1921.6039,26.39359 1928,33.792215 1928,35.521511 1928,36.355174 1925.9753,39.616377 1923.5006,42.768631 1918.4527,49.1988 1917.9727,51.399931 1921.25,53.089779 1929.5024,57.344871 1929.9333,61.479507 1922.8698,68.631816 1916.8336,74.743958 1916.7683,77.457626 1922.5712,81.044009 1927.2625,83.943361 1928.4867,87.17213 1926.4901,91.379644 1924.5495,95.469174 1919.5256,101 1917.7514,101 1917.0027,101 1914.0523,98.53354 1911.1951,95.518978 z M 1920.7007,95.75 C 1925.7731,90.180968 1926.2316,86.01313 1922.0956,83.068094 1920.4982,81.930642 1918.9232,81 1918.5956,81 1918.268,81 1918,83.448442 1918,86.440983 1918,89.433524 1917.55,92.160081 1917,92.5 1916.3722,92.888028 1916,90.677051 1916,86.559017 1916,82.951558 1915.6034,80 1915.1187,80 1913.9064,80 1908,86.140251 1908,87.400521 1908,88.401306 1916.944,97.729188 1918.0757,97.90869 1918.3923,97.95891 1919.5736,96.9875 1920.7007,95.75 z M 1916,38.559017 C 1916,35.566476 1916.45,32.839919 1917,32.5 1917.5751,32.144598 1918.0058,33.075653 1918.0137,34.690983 1918.0329,38.658565 1919.0555,42 1920.2503,42 1921.4646,42 1925.997,36.908307 1925.9988,35.542163 1926.0005,34.177001 1918.8204,27 1917.4529,27 1915.8302,27 1908,35.114588 1908,36.796136 1908,38.300085 1913.6223,44 1915.1058,44 1915.5976,44 1916,41.551558 1916,38.559017 z M 1916,61.449109 1916,54.898217 1912.5,57.567798 C 1910.575,59.036067 1909,60.954564 1909,61.831124 1909,63.337407 1913.6361,67.886649 1915.25,67.964037 1915.6625,67.983817 1916,65.052099 1916,61.449109 z M 1922.4652,65.896408 C 1926.5597,62.301359 1926.8414,60.524546 1923.8257,57.314451 1921.083,54.394978 1919.401,54.374113 1918.6303,57.25 1917.9195,59.902255 1917.7917,69 1918.4652,69 1918.7211,69 1920.5211,67.603384 1922.4652,65.896408 z"/>
</svg>
