<svg xmlns="http://www.w3.org/2000/svg"
     width="50.7" height="64.0"
     viewBox="309.6430 17.6139 72.3570 91.3861">
  <path d="M 340.16989,100.54615 C 333.49597,95.633088 331.83494,93.291239 331.71385,88.624134 331.63689,85.657884 332.12397,84.428595 336.25063,77.174322 337.67189,74.675885 337.7859,73.62421 336.85661,71.58463 335.19102,67.929059 328.59552,63.633719 325.7461,64.348878 322.88328,65.067399 321,71.283556 321,80.014351 321,85.159229 320.74162,86 319.16052,86 316.67389,86 314.87272,81.762226 314.27269,74.5 313.64302,66.879034 315.25586,60.917125 319.14567,56.48687 322.87745,52.236607 325.85021,52.015332 332.40398,55.5 334.98999,56.875 337.59444,58 338.19162,58 338.93352,58 339.09627,55.228737 338.70547,49.25 338.04067,39.079211 336.50953,33.132755 334.34124,32.300703 333.49741,31.976896 330.34222,32.733561 327.3297,33.98218 323.13115,35.722381 321.5778,35.977796 320.6762,35.076198 319.40645,33.80645 319.04576,25.620904 320.20833,24.458333 321.62257,23.044094 325.91195,23.801118 329.01859,26.013238 332.04205,28.166132 332.35066,28.19863 335.34851,26.679808 337.08183,25.80164 339.717,24.297645 341.20444,23.337595 343.875,21.613922 343.96124,21.634126 348.08744,24.950025 L 352.26599,28.307999 359.38299,25.915583 C 363.29735,24.599754 367.0625,23.372458 367.75,23.188259 369.41211,22.742936 369.4564,32.143595 367.8,33.8 364.94558,36.654425 353.82802,33.652579 347.57,28.337707 345.4085,26.501968 343.2961,25 342.87577,25 342.45543,25 340.93935,26.0125 339.50669,27.25 336.92792,29.477478 336.9174,29.543948 338.45613,33.890473 339.91894,38.022577 341.97368,52.17903 341.9918,58.25 342.00281,61.940721 339.76089,61.849662 331.60569,57.828148 325.40251,54.769225 325.08215,54.716155 322.60756,56.337566 318.21823,59.213566 316.52571,63.646453 316.54076,72.227157 316.54907,76.966879 317.02708,80.427084 317.77716,81.177157 318.74095,82.140948 319,81.202454 319,76.747053 319,70.639029 320.24503,66.789393 323.36516,63.25 326.02777,60.229594 328.28819,60.41418 333.628,64.088066 338.9953,67.780867 342.05344,73.218777 340.21666,75.803873 335.84328,81.959013 333.33619,87.307848 333.76736,89.563364 334.35945,92.660688 343.70777,101 346.58777,101 349.59983,101 359,90.85084 359,87.598774 359,86.096138 357.18227,82.846145 354.5,79.553041 352.025,76.514409 350,73.336844 350,72.491785 350,69.642181 357.81239,62.257778 361.57367,61.552157 366.90724,60.551573 368.46995,61.528328 371.93418,68.027885 373.68489,71.312548 375.37706,74 375.69457,74 377.2074,74 374.67419,64.137363 372.27046,60.668775 368.05204,54.581592 366.08789,53.647505 361.51988,55.556142 359.4356,56.427008 356.47345,58.068749 354.93733,59.204456 353.27811,60.431166 351.45535,61.004978 350.44699,60.618031 348.95285,60.044675 348.80138,58.621632 349.18202,48.733342 349.42415,42.443002 350.15093,36.619941 350.83368,35.5 351.81684,33.88727 351.92735,35.658645 351.40442,44.648021 351.04774,50.779432 351.07138,56.306478 351.45695,56.930345 351.93967,57.711404 353.9015,57.120324 357.75658,55.032324 365.01182,51.102715 367.48003,51.168915 371.4706,55.400149 375.99213,60.194366 378,64.981327 378,70.966871 378,78.552548 375.02617,83.002288 373.46674,77.75 372.30553,73.838987 367.86294,65.131137 366.41627,63.930512 365.65161,63.295896 363.90371,63.058336 362.53205,63.402599 360.01511,64.034312 353,70.320011 353,71.943536 353,72.425814 354.8329,75.139194 357.0731,77.973269 362.64335,85.020162 363.06284,88.386528 359.00792,93.5 356.37375,96.821828 347.4796,105 346.50113,105 346.34652,105 343.49746,102.99577 340.16989,100.54615 z M 326.8684,31.379622 329.18181,29.759245 326.34091,27.886212 C 322.44238,25.315883 322,25.480345 322,29.5 322,33.412699 323.26725,33.901966 326.8684,31.379622 z M 343.25,93.01096 C 338.75768,90.271938 338.80972,86.266564 343.40086,81.399086 L 346.80172,77.793533 349.8908,80.077387 C 353.66377,82.866861 354.27173,84.565725 353.03733,88.869846 351.17189,95.374259 348.78351,96.384806 343.25,93.01096 z M 350.44148,88.697231 C 352.22871,83.594783 347.7722,80.08621 343.9256,83.567335 341.55151,85.715855 341.48026,87.768217 343.69483,90.21528 346.04558,92.812833 349.25267,92.091214 350.44148,88.697231 z M 366.57509,30.556835 C 367.71315,26.022463 366.68989,25.767535 358.75,28.60735 356.38717,29.45245 356.54861,30.476675 359.25,31.779505 363.20877,33.688749 365.90185,33.239233 366.57509,30.556835 z"/>
</svg>
