<svg xmlns="http://www.w3.org/2000/svg"
     width="33.4" height="64.0"
     viewBox="2143.5000 19.3117 43.8257 83.9073">
  <path d="M 2147.5,89.28125 2152.9062,93.4375 C 2156.6138,96.290364 2160.2413,98.187582 2162.7812,98.59375 2166.691,99.218931 2166.8495,99.128453 2169.3125,94.875 2173.3113,87.969169 2176.2084,71.802621 2176.1875,56.65625 2176.171,44.723433 2176.3564,43.578223 2178.5938,40.28125 2183.3257,33.308348 2180.689,25.140801 2173.25,23.71875 2171.1206,23.31168 2169.8918,23.895654 2167.4062,26.53125 2163.4788,30.695602 2162.7575,34.221415 2164.6875,39.90625 2165.9463,43.613782 2166.0262,46.260904 2165.1562,56.03125 2164.0865,68.047317 2161.2744,81 2159.7188,81 2159.2362,81 2156.807,79.550182 2154.3438,77.78125 L 2150.7188,75.15625 2150.6562,75.34375 2150.0312,78.0625 C 2150.4984,78.117698 2152.8043,79.670857 2155.3125,81.625 2157.865,83.613706 2160.5498,84.999397 2161.2812,84.71875 2163.2274,83.971904 2165.7448,73.933404 2166.9688,61.96875 2167.5577,56.211991 2168.3969,49.211496 2168.8438,46.40625 2169.5681,41.85866 2169.3873,41.005825 2167.3125,38.59375 2166.0327,37.105827 2164.998,35.11933 2165,34.1875 2165.0051,31.870952 2168.6516,26.077039 2170.5625,25.34375 2172.7456,24.505997 2176.5845,26.451537 2178.5,29.375 2179.8718,31.468506 2179.9316,32.452803 2178.9062,35.875 2178.2416,38.09312 2177.023,40.056245 2176.1875,40.21875 2174.9151,40.46621 2174.649,43.099518 2174.4688,56.5 2174.2834,70.279105 2173.8861,73.62295 2171.75,80.65625 2170.3858,85.148054 2168.4199,90.304707 2167.375,92.09375 2166.3302,93.882793 2165.045,95.475056 2164.5,95.65625 2162.7707,96.231231 2154.8474,91.777351 2150.8438,87.96875 2149.444,86.637256 2148.9364,85.935873 2148.4375,85.1875 L 2147.5,89.28125 z"/>
</svg>
