<svg xmlns="http://www.w3.org/2000/svg"
     width="31.5" height="64.0"
     viewBox="2826.8750 33.8493 35.1289 71.4714">
  <path d="M 2830.875,83.03125 2831.0312,85.65625 C 2837.1833,86.992681 2841.4981,82.735322 2844.7188,72.5 2846.6838,66.255203 2846.4212,64.958529 2843.25,65.125 2841.7375,65.204397 2839.9441,65.233879 2839.25,65.15625 2838.5558,65.078621 2840.6805,61.583526 2844,57.40625 2847.3196,53.228974 2850.7362,48.503974 2851.5625,46.90625 2855.015,40.229817 2856.1038,46.191558 2853.5938,58.03125 2850.8086,71.168809 2842.8095,91.262741 2838.4375,96.09375 2836.6113,98.111722 2834.4538,98.330622 2831.6875,97.0625 L 2831.9062,100.71875 C 2834.6352,101.32073 2837.5145,100.57923 2839.5,98.59375 2843.4684,94.625332 2853.5974,72.493388 2852.875,69.375 2852.764,68.896079 2853.2394,67.15 2853.9375,65.5 2855.0189,62.943959 2857.9784,46.853551 2858,43.375 2858.0039,42.748431 2857.1816,41.227597 2856.1875,40 2854.4902,37.903885 2854.2757,37.849315 2852.6875,39.4375 2851.7574,40.367626 2850.7014,42.33846 2850.3438,43.8125 2849.5653,47.022213 2845.4543,52.646431 2838.7188,59.65625 2835.9958,62.490031 2834.058,65.280156 2834.4062,65.84375 2834.7547,66.407344 2836.6459,67.378097 2838.625,68.03125 2841.9342,69.12338 2842.1903,69.469306 2841.7188,72.375 2840.9601,77.050012 2837.1386,82.939241 2834.4062,83.625 2833.4586,83.862838 2832.2837,83.599663 2830.875,83.03125 z"/>
</svg>
