<svg xmlns="http://www.w3.org/2000/svg"
     width="51.8" height="64.0"
     viewBox="506.3125 14.4025 73.4390 90.7443">
  <path d="M 510.3125,58.875 510.4375,61.6875 C 511.52744,61.285626 513.98761,59.464771 516.59375,57 L 521.90625,51.96875 528.4375,55.5625 C 532.02661,57.535324 535.74682,58.999676 536.71875,58.8125 539.75409,58.227947 540.97429,46.607498 538.6875,40 537.42001,36.337675 536.26066,35.957059 530.84375,37.4375 528.66346,38.033374 528.05835,37.790446 527.5,36.03125 526.7463,33.656544 528.66813,24.318583 530.09375,23.4375 530.59228,23.129388 534.23482,25.152692 538.1875,27.9375 542.14017,30.722308 545.93049,33 546.59375,33 547.25701,33 550.13946,31.425 553,29.5 562.24699,23.277237 569,25.856677 569,35.625 569,40.687511 567.75632,41.271378 566,37.03125 563.98682,32.170992 563.01959,31.895142 555.9375,34.09375 552.39044,35.194919 548.84753,36.720074 548.0625,37.5 547.1402,38.416307 546.50092,41.873896 546.21875,47.25 545.65337,58.021894 546.79638,59.362889 553.28125,55.5625 555.69826,54.146038 558.78795,53 560.15625,53 565.35521,53 569.47277,60.444377 571.0625,72.78125 572.0399,80.366264 570.89653,90 569.03125,90 568.61174,90 567.97257,86.168811 567.59375,81.5 566.86534,72.522813 564.1351,64.652414 561.21875,63.125 557.18126,61.010392 551.28045,67.115092 548.53125,76.25 547.33038,80.24016 547.38264,81.146852 549.09375,84.96875 551.04831,89.334394 551.64371,95 550.15625,95 549.69831,95 547.89297,93.2 546.125,91 544.35703,88.8 542.24584,87 541.4375,87 540.62917,87 537.93449,89.114104 535.46875,91.6875 531.3412,95.995249 530.99656,96.173729 531,93.9375 531.00413,91.252291 534.46733,84.938752 536.625,83.6875 538.79201,82.430831 538.25518,79.474738 534.59375,72.21875 530.85739,64.81425 526.92958,60 524.59375,60 523.76085,60 520.78672,62.025 518,64.5 515.2205,66.968585 512.20586,68.825994 510.84375,68.9375 L 510.96875,71.4375 C 513.14832,71.488249 515.28426,70.043181 518.8125,66.9375 521.274,64.770802 523.64261,63 524.09375,63 526.26931,63 535,76.555392 535,79.9375 535,80.487104 533.62851,82.864024 531.96875,85.21875 528.12703,90.669034 526.70532,99.583828 529.5,100.65625 530.77844,101.14683 531.89447,100.49584 533.40625,98.40625 534.56451,96.805307 536.68134,94.18676 538.125,92.5625 L 540.75,89.59375 545.03125,94.3125 C 547.38467,96.898452 549.90394,99 550.625,99 553.9605,99 554.99402,91.625284 552.5,85.65625 550.43105,80.704566 550.63158,76.136498 553.09375,72 559.59221,61.082422 563.44736,64.901921 565.25,84.0625 565.8671,90.621678 566.71725,96 567.125,96 568.60352,96 572.02881,90.649073 573.125,86.625 575.75155,76.983034 571.7737,57.333704 566.34375,53.0625 562.16517,49.775628 560.19094,49.634957 554.84375,52.28125 L 549.875,54.75 549.0625,52.625 C 548.06881,50.010053 549.24025,41.626001 550.875,39.65625 551.53327,38.863085 554.17418,37.679851 556.75,37.03125 561.87813,35.739974 561.757,35.688888 565.21875,41.9375 567.44999,45.964987 568.75244,45.794167 570.625,41.3125 572.82279,36.052431 571.68041,29.524161 567.875,25.71875 565.2396,23.083354 564.44866,22.819808 560.78125,23.40625 558.51709,23.768304 554.69554,25.401867 552.28125,27.03125 549.86696,28.660632 547.46859,30 546.9375,30 546.4064,30 543.14758,27.965708 539.71875,25.46875 530.01537,18.402513 526.16227,20.410555 525.21875,33.03125 524.69326,40.060291 526.27396,41.851441 531.59375,40.21875 534.87089,39.212969 535.18034,39.335981 536.0625,41.65625 536.58278,43.024695 537,46.587294 537,49.59375 537,56.592249 535.56926,57.215482 529,53 524.50172,50.113462 523.68167,49.878492 521.125,50.9375 519.5561,51.587359 516.7676,53.674317 514.9375,55.5625 513.1074,57.450683 511.1026,59 510.5,59 510.47242,59 510.34784,58.883452 510.3125,58.875 z"/>
</svg>
