<svg xmlns="http://www.w3.org/2000/svg"
     width="21.7" height="64.0"
     viewBox="283.0000 17.2876 30.5752 89.9762">
  <path d="M 295.63863,96.230143 C 295.29949,94.178565 295.01706,89.993773 295.01101,86.930606 295.00127,82.001629 294.54005,80.744733 291,76 288.8,73.051334 287,70.327264 287,69.946512 287,69.565761 287.9387,67.13215 289.086,64.538489 291.12725,59.923894 291.13515,59.67236 289.45393,52.812003 287.23878,43.772884 288.00107,35.606024 291.69309,28.822569 295.06692,22.623728 297.26384,21.287628 300.54625,23.438346 304.41002,25.969989 306.0966,30.486422 306.7092,39.941927 307.15533,46.828142 306.88721,49.950376 305.4601,54.487531 L 303.64294,60.264779 306.32147,65.029769 C 309.54134,70.757772 309.57515,71.303057 306.93212,74.877941 305.27795,77.115322 304.85829,79.191374 304.83451,85.254798 304.81816,89.423744 305.10946,94.221892 305.48185,95.91735 305.99269,98.243189 305.80665,99 304.72406,99 303.68227,99 303.11458,97.150922 302.65171,92.25 301.61946,81.320145 301.87676,78.323189 304.18301,74.414386 L 306.36603,70.714452 303.59399,65.589961 300.82194,60.465469 302.91097,54.26428 C 304.05994,50.853626 304.99466,46.136395 304.98813,43.781545 304.97042,37.393622 302.40414,28.949598 299.64055,26.186009 L 297.19809,23.743545 294.41578,27.947894 C 292.07064,31.491644 291.56423,33.471562 291.19276,40.548993 290.8752,46.599366 291.20585,50.333163 292.37602,53.910769 294.43417,60.203197 294.41688,60.654563 292,63.727129 289.15755,67.340722 289.4934,69.513029 293.66636,74.505223 297.27519,78.822546 297.3381,79.04808 297.67619,88.880585 298.01965,98.869377 296.80134,103.26386 295.63863,96.230143 z"/>
</svg>
