<svg xmlns="http://www.w3.org/2000/svg"
     width="30.7" height="64.0"
     viewBox="1057.0000 16.1471 33.9277 70.7904">
  <path d="M 1080.6562,21 C 1080.0151,20.813579 1078.4926,21.742453 1076.5625,23.53125 L 1073.875,26.03125 1071.2812,24.03125 C 1066.3434,20.147105 1065.4848,21.90617 1069.9375,26.78125 1071.5565,28.553823 1073.244,29.978664 1073.6875,29.96875 1074.5419,29.949652 1081,22.527354 1081,21.5625 1081,21.249821 1080.87,21.06214 1080.6562,21 z M 1061.2812,24.0625 C 1061.0689,24.234223 1061,24.665104 1061,25.34375 1061,26.089658 1062.6124,28.84251 1064.5938,31.4375 1067.3555,35.054462 1068.0849,36.761345 1067.6562,38.8125 1067.3486,40.284101 1066.537,44.077346 1065.875,47.21875 1064.9598,51.561711 1064.9414,55.635425 1065.7812,64.21875 1066.3887,70.427346 1067.1928,76.7375 1067.5625,78.25 1067.639,78.562997 1067.5873,78.7103 1067.625,78.96875 L 1071.1562,82.9375 C 1071.3833,82.06844 1071.1505,80.534845 1070.4062,77.75 1069.6349,74.863955 1068.7472,68.9 1068.4375,64.5 1068.1278,60.1 1067.7201,55.601359 1067.5,54.5 1067.1591,52.794471 1068.4269,45.868401 1070.6562,37.28125 1071.0638,35.711752 1070.2438,33.813564 1067.875,30.78125 1063.7261,25.47006 1061.9182,23.547332 1061.2812,24.0625 z M 1078.6875,80.78125 1081.5312,78.9375 C 1081.0441,77.443532 1081.0527,73.683792 1081.3125,63.5625 1081.5445,54.52546 1081.2762,44.647948 1080.75,41.59375 1079.8279,36.241276 1079.9215,35.893586 1082.9062,32.125 1085.9744,28.251145 1086.9277,25 1085,25 1084.45,25 1084,25.384011 1084,25.84375 1084,26.30349 1082.4603,28.657784 1080.5625,31.09375 L 1077.0938,35.53125 1078.1562,43 C 1078.7858,47.412381 1078.9934,57.376038 1078.6562,67.25 1078.4053,74.600538 1078.3776,78.38504 1078.6875,80.78125 z"/>
</svg>
