<svg xmlns="http://www.w3.org/2000/svg"
     width="64.0" height="61.6"
     viewBox="1978.8466 17.1100 94.7206 91.1280">
  <path d="M 2010.5938,21.8125 2004.3125,25.15625 C 2000.8523,26.993868 1998.0047,28.8375 1998,29.25 1997.9841,30.664239 2001.4944,30.000229 2005.625,27.8125 L 2009.75,25.625 2016.625,28.71875 C 2023.0196,31.585953 2025.7412,32.03948 2024.5,30.03125 2024.2141,29.568674 2020.9644,27.524538 2017.2812,25.5 L 2010.5938,21.8125 z M 2062.6562,22.53125 C 2062.1662,22.633598 2061.505,23.018774 2060.6562,23.78125 2057.1012,26.974789 2056.4317,27.031857 2053,24.5 2048.4051,21.110027 2047.1273,22.532751 2051.0938,26.625 2055.1195,30.778591 2057.7921,30.89882 2061.4375,27.09375 2063.9139,24.508953 2064.1263,22.224205 2062.6562,22.53125 z M 2040.2812,24.09375 C 2039.906,24.445154 2041.0023,26.349606 2043.9062,29.5 2048.5195,34.504862 2048.6485,35.434501 2046.5312,47.3125 2045.0105,55.843405 2042.9424,60 2040.1875,60 2039.2118,60 2036.6117,58.138255 2034.4375,55.875 2029.5392,50.775851 2025.7946,49.085951 2020.8438,49.75 L 2017,50.25 2017,45.71875 C 2017,41.67303 2017.217,41.252479 2019,41.71875 2022.032,42.511628 2021.3845,40.264238 2018.0938,38.5625 2013.8459,36.365909 2012.8279,38.127753 2013.4688,46.53125 2013.7526,50.252707 2014.1834,53.527161 2014.4375,53.78125 2014.6916,54.035339 2016.3336,53.738591 2018.0938,53.125 2023.7558,51.151219 2025.5374,51.741159 2031.5,57.5625 2036.2885,62.237598 2037.6902,63.069796 2040.3125,62.8125 2046.0387,62.250648 2049.671,53.651903 2050.25,39.28125 L 2050.5,33.0625 2045.5,28 C 2042.4927,24.946384 2040.6565,23.742346 2040.2812,24.09375 z M 2068.25,27.03125 C 2067.8375,27.041164 2065.9489,28.885346 2064.0625,31.15625 L 2060.625,35.28125 2063.5625,37.59375 C 2065.0756,38.787801 2066.1057,39.776405 2067.125,40.75 L 2069.125,38.3125 C 2065.7152,34.920972 2065.2438,32.872479 2067.5,31 2069.0541,29.710175 2069.5672,26.999592 2068.25,27.03125 z M 2061.6562,47.4375 2063.2188,45.53125 C 2060.8248,41.265245 2057.3447,39.493251 2056.5625,43.25 2056.3048,44.4875 2055.4446,49.008175 2054.625,53.28125 2053.8055,57.554326 2052.1138,63.08208 2050.875,65.5625 2047.408,72.504361 2043.7454,72.537324 2036.9375,65.6875 2033.5233,62.252298 2029.9785,61 2023.5625,61 2016.8393,61 2015.4671,62.39252 2016.9375,67.6875 2018.8551,74.593083 2018.3282,76.744506 2013.5,81.90625 2008.2553,87.513229 2007.8862,90.074974 2011.9062,92.9375 2015.9857,95.842281 2017.0246,95.580726 2021.1875,90.75 L 2024.8438,86.5 2027.7812,88.21875 C 2031.4164,90.354316 2036.5097,89.215249 2040,85.5 2042.2275,83.128877 2042.2548,83 2040.375,83 2039.2843,83 2037.5052,83.661241 2036.4375,84.46875 2033.9648,86.339056 2031.0352,86.339056 2028.5625,84.46875 2025.6341,82.253864 2024.4213,82.622611 2020.125,87.09375 2017.0888,90.253594 2015.7117,91.044774 2014.0938,90.53125 2012.9395,90.164893 2012,89.443181 2012,88.9375 2012,88.431819 2014.3141,85.700691 2017.125,82.875 2022.6559,77.314829 2022.3872,78.571188 2020.4062,67.625 2019.8536,64.571147 2020.0424,64.182951 2022.7188,63.25 2027.1146,61.717561 2030.3219,62.728687 2035.875,67.46875 2038.6277,69.818411 2042.1175,72.059148 2043.625,72.4375 2049.3267,73.868532 2054.715,66.293995 2057.5312,52.90625 2058.3768,48.886502 2059.262,45.394326 2059.5312,45.125 2060.226,44.430234 2060.981,45.638144 2061.6562,47.4375 z M 2043.625,88 C 2041.9522,88 2037,91.783585 2037,93.0625 2037,94.327333 2038.7232,94.245082 2039.5312,92.9375 2039.8921,92.353574 2041.2722,91.471211 2042.5938,90.96875 2045.1787,89.986001 2045.8656,88 2043.625,88 z M 2026.8438,93.46875 C 2024.9795,93.632168 2023.2769,94.774227 2021,97 2019.3199,98.642305 2017.7118,100 2017.4375,100 2017.1632,100 2014.7134,98.875 2012,97.5 2009.2866,96.125 2006.4951,95 2005.8125,95 2004.464,95 1997,101.90763 1997,103.15625 1997,104.23802 2000.1289,103.01805 2002.5,101 2006.1074,97.929704 2006.9266,97.860686 2010.7188,100.4375 2016.0755,104.07755 2019.3687,103.79089 2023.5,99.28125 L 2026.9062,95.5625 2031.5,98.78125 C 2037.1863,102.78934 2039.0168,102.81506 2043.4688,98.90625 2049.1419,93.925152 2047.5845,91.930726 2041.5938,96.5 L 2038.3438,98.96875 2033.5312,95.90625 C 2030.7243,94.126131 2028.708,93.305332 2026.8438,93.46875 z M 2010.2188,30 C 2007.7901,29.989555 2000,34.688742 2000,36.15625 2000,37.092743 2006.5094,34.641399 2008.5625,32.9375 2009.4164,32.228808 2011.4683,32.696106 2015.3438,34.46875 2021.3976,37.237878 2023,37.562755 2023,35.96875 2023,34.609806 2013.1657,30.012674 2010.2188,30 z M 2006.7188,36.4375 C 2005.9787,36.560669 2005.0225,37.04713 2003.5312,37.96875 1999.2352,40.623852 1999.0847,41.346721 2002.9375,40.78125 2005.2561,40.440955 2005.9672,40.802778 2006.4062,42.4375 2007.2964,45.752024 2007.0774,52.841501 2006.0625,53.46875 2005.5503,53.785297 2003.4663,52.898028 2001.4062,51.5 1996.0005,47.831555 1993.292,47.39307 1990.2188,49.6875 1985.3399,53.330148 1983.6076,56.652444 1983.1875,63.25 1982.8466,68.603492 1983.0896,69.790481 1984.875,71.40625 1986.5822,72.951247 1987.2234,73.033523 1988.4688,72 1989.3041,71.306749 1990,70.091545 1990,69.28125 1990,66.713631 1993.3565,62 1995.1875,62 1999.2477,62 2002.8625,73.042764 2001.0312,79.84375 2000.4161,82.128371 1999.3463,84 1998.625,84 1997.9037,84 1995.4341,82.65 1993.1562,81 1987.9009,77.1931 1985,77.03532 1985,80.5625 1985,83.561944 1986.4343,86.58837 1989.3438,89.78125 1991.1317,91.743246 1991.2428,92.483627 1990.2812,95.03125 1989.2905,97.656039 1989.3882,98 1991.0312,98 1992.951,98 1996,94.513094 1996,92.3125 1996,91.624002 1994.6719,90.348434 1993.0312,89.5 1990.5366,88.209932 1987,83.572403 1987,81.5625 1987,80.363974 1989.2807,81.121377 1992.7812,83.5 1997.4896,86.699384 1999.3543,86.649304 2002.0312,83.25 2003.9129,80.86059 2004.1452,79.479941 2003.8438,72.8125 2003.5485,66.281351 2003.1244,64.770933 2001,62.5 1995.7798,56.91981 1993.5587,57.039103 1989.5312,63.125 1986.6471,67.483387 1985,67.424782 1985,63 1985,56.36761 1989.4794,50 1994.1562,50 1995.9778,50 1998.3752,51.241549 2000.875,53.5 2003.0058,55.425 2005.2423,57 2005.8438,57 2007.7581,57 2008.9881,53.315083 2009.625,45.78125 2010.1331,39.770134 2009.9692,38.214673 2008.6562,37.125 2007.9804,36.564047 2007.4588,36.314331 2006.7188,36.4375 z"/>
</svg>
