<svg xmlns="http://www.w3.org/2000/svg"
     width="47.8" height="64.0"
     viewBox="1427.0629 11.2379 70.7065 94.7621">
  <path d="M 1453.6783,92.669743 C 1453.1857,89.075568 1453.5268,87.673185 1455.6848,84.419743 1458.7239,79.837905 1462.0665,76 1463.0178,76 1463.3858,76 1465.6622,78.34255 1468.0764,81.205667 1472.203,86.099509 1472.4485,86.728471 1472.1756,91.705667 1472.0159,94.61755 1472.2486,96.99232 1472.6926,96.982934 1473.1367,96.973547 1474.5584,94.5205 1475.852,91.531718 L 1478.2041,86.097569 1474.602,80.167974 C 1472.6209,76.906696 1471.0064,73.397243 1471.0141,72.369189 1471.0219,71.341135 1473.3215,67.898517 1476.1242,64.718926 1480.3255,59.95281 1481.4758,59.149978 1482.676,60.146094 1484.7572,61.87334 1486.6148,65.872905 1487.4848,70.5 1488.1596,74.088795 1488.3375,74.281577 1489.2154,72.375291 1490.7367,69.071695 1488.4338,59.942087 1485.0644,55.919435 L 1482.2003,52.5 1476.6656,55.382105 C 1468.8066,59.474527 1467.9967,58.856477 1468.0153,48.781385 1468.0319,39.820483 1468.3239,38.919012 1471.8035,37.085882 1474.6422,35.590408 1477.9912,30.27477 1477.9963,27.256605 1477.9998,25.1147 1477.793,25.171249 1473.4234,28.506605 1470.9063,30.427972 1467.9916,32 1466.9465,32 1464.5797,32 1462.36,28.660595 1461.4627,23.75 1460.608,19.072788 1459.0671,19.020641 1455.1036,23.534796 1452.6284,26.353875 1452,27.969029 1452,31.511743 1452,35.094161 1452.4634,36.257496 1454.3941,37.522576 1455.9165,38.520085 1457.7371,38.853116 1459.3941,38.437221 1462.3872,37.686014 1462.2981,37.360996 1462.0135,48 1461.9031,52.125 1461.3498,56.0625 1460.784,56.75 1459.2848,58.571377 1455.8662,58.241987 1453,56 1449.615,53.352252 1447.347,53.508676 1443.0944,56.683165 1436.3296,61.732983 1434.0381,64.91769 1434.6821,68.374269 1435.5113,72.824534 1436.6906,73.666453 1437.4481,70.348837 1439.592,60.958821 1450.0761,59.352867 1454.3525,67.759418 1457.4211,73.791597 1457.3107,74.496712 1452.5288,79.416932 1447.6126,84.475357 1447.1406,86.406797 1449.625,91.29966 1453.1243,98.191441 1454.4988,98.656051 1453.6783,92.669743 z M 1449.1498,96.75 C 1443.7958,87.371115 1443.9886,84.901974 1450.6169,77.959197 L 1453.9973,74.418393 1451.7487,69.959197 C 1449.9161,66.325222 1448.9354,65.444755 1446.4489,65.201476 1442.0722,64.773255 1439.6538,67.828687 1439.3632,74.15344 1439.2357,76.93017 1438.9143,79.419081 1438.649,79.684353 1437.6488,80.6845 1434.0886,75.981268 1433.0705,72.314933 1431.0629,65.085021 1431.5596,63.552451 1437.6788,58.098523 1445.1695,51.422185 1448.9698,50.130224 1452.8953,52.925443 1457.992,56.554616 1459,55.841793 1459,48.608408 1459,42.467893 1458.892,42.190004 1456.25,41.534278 1448.5224,39.616334 1446.6607,31.874603 1451.9916,23.826447 1454.889,19.452187 1461.958,15.237945 1464.138,16.585268 1464.6121,16.878289 1465,19.286376 1465,21.936572 1465,28.309802 1466.9658,30.144543 1470.7962,27.346238 1472.2833,26.259819 1474.3131,23.736426 1475.3069,21.738696 1477.5013,17.32761 1479.6689,17.718259 1480.6022,22.693012 1481.5896,27.956276 1479.5104,33.40725 1475.0636,37.213526 1471.5842,40.191829 1471.1539,41.070906 1470.9974,45.522115 1470.657,55.199812 1471.055,55.582302 1477.7388,52 1482.6447,49.370622 1483.0553,49.430068 1486.8205,53.31484 1492.2525,58.919201 1493.7694,69.585787 1490.011,75.75 1487.2595,80.262798 1485.0015,80.037752 1484.9944,75.25 1484.9875,70.572892 1483.2959,64.300924 1481.7905,63.370549 1480.3748,62.495583 1474.0354,69.800518 1474.0149,72.330532 1474.0067,73.337325 1475.6012,76.573343 1477.5582,79.521682 L 1481.1163,84.882299 1477.4395,93.44115 C 1475.4172,98.148517 1473.1569,102 1472.4165,102 1470.233,102 1469,98.524636 1469,92.37046 1469,87.480922 1468.5935,86.185161 1466.3129,83.804719 1462.8803,80.22182 1461.7846,80.278803 1458.4748,84.212371 1456.1013,87.033066 1455.8415,88.013941 1456.344,92.257098 1456.9498,97.371853 1455.5574,102 1453.4129,102 1452.7165,102 1450.7981,99.6375 1449.1498,96.75 z"/>
</svg>
