<svg xmlns="http://www.w3.org/2000/svg"
     width="44.5" height="64.0"
     viewBox="1708.8786 18.0000 61.7293 88.7888">
  <path d="M 1722.7407,98.25 C 1718.6733,94.002584 1715.9962,86.8281 1714.7736,76.898625 1713.5272,66.775978 1714.0712,64.164679 1719.1438,55.920702 1720.7147,53.367657 1722,50.810521 1722,50.238177 1722,49.665833 1720.4448,48.27998 1718.5441,47.158502 1714.9339,45.028437 1712.8786,40.365531 1713.846,36.5 1714.4834,33.953065 1726.6406,22 1728.5936,22 1730.871,22 1731.2084,24.256868 1729.5313,28.270747 1727.396,33.381235 1727.5,38.001883 1729.75,37.993411 1732.003,37.984927 1736.6854,34.894183 1738.6118,32.143889 1740.7474,29.094903 1742.6481,29.490386 1743.3771,33.13541 1744.2395,37.447558 1742.5209,43.162022 1739.5112,45.989444 1738.1301,47.286995 1737,48.702657 1737,49.135359 1737,50.973309 1749.0633,60 1751.5196,60 1752.6389,60 1755.1784,55.046165 1756.496,50.292536 1756.8325,49.078431 1757.4913,43.293137 1757.9601,37.436329 1758.8846,25.885161 1759.9186,23.490734 1762.7571,26.327464 1766.6079,30.175781 1765.2646,56.112576 1760.7598,64.891294 1757.6519,70.947881 1755.2446,71.215114 1746.1571,66.512335 1742.3225,64.527911 1737.6321,62.652275 1735.734,62.344255 1732.4179,61.806128 1732.1908,61.974264 1729.929,66.642109 1727.1117,72.456563 1726.7982,81.226722 1729.3176,83.746149 1730.7735,85.202093 1731.2928,84.984806 1735.3957,81.20294 1737.863,78.928598 1741.11,76.759502 1742.6112,76.382726 1745.3996,75.682903 1747.1524,77.113639 1752.1511,84.169426 1753.7932,86.487277 1753.8195,86.489915 1756.9703,84.652567 1761.385,82.078225 1762.1619,83.572674 1758.2335,87.082645 1753.6304,91.195513 1751.9396,90.811987 1747.9527,84.750748 1746.0537,81.863659 1743.705,79.354221 1742.7334,79.174218 1741.6491,78.973353 1739.0768,80.807775 1736.0738,83.92347 1733.3826,86.715561 1730.7599,89 1730.2454,89 1729.7309,89 1728.4527,88.05148 1727.405,86.892178 1724.5294,83.710455 1724.7581,71.033868 1727.795,65.266 1731.3331,58.546357 1734.0354,58.54623 1747.641,65.265067 1754.2136,68.510807 1756.039,68.432185 1758.352,64.803744 1761.439,59.961061 1763.8976,38.159733 1762.0513,32 1761.3945,29.808686 1761.226,30.055635 1760.6866,34 1760.3481,36.475 1759.8,41.2 1759.4686,44.5 1758.6059,53.090219 1757.2594,57.58685 1754.6371,60.635476 1751.6402,64.119581 1749.2567,63.508848 1741.5896,57.292231 1733.0373,50.35794 1732.8301,49.794642 1737.1698,45.276093 1742.8988,39.310868 1743.5117,30.761055 1737.8008,36.471897 1734.8044,39.468314 1730.365,41.250632 1727.8702,40.458816 1724.9301,39.525664 1724.6193,35.755683 1727.022,30.170481 1728.2207,27.384071 1729.0303,24.590873 1728.8211,23.963373 1728.3008,22.402362 1716.0133,35.079415 1716.0059,37.1849 1715.9932,40.79679 1718.1075,44.083628 1721.4773,45.690557 1726.1789,47.932581 1726.076,50.636485 1721,58.237858 1717.4095,63.61474 1717.0018,64.856016 1717.0174,70.363953 1717.0541,83.350683 1721.8124,96.853519 1726.9237,98.475795 1729.4802,99.287175 1731.359,98.22867 1737.3888,92.579883 1742.8569,87.45738 1746.2683,86.714422 1748.087,90.25 1749.7046,93.394774 1754.1406,98 1755.5522,98 1756.2002,98 1757.9397,97.048698 1759.4178,95.885996 1762.3025,93.616878 1763.4126,93.761172 1762.4462,96.279636 1761.6174,98.439337 1755.3654,101.25075 1753.0357,100.51134 1750.9501,99.849384 1745,93.521366 1745,91.965204 1745,89.757399 1742.1257,91.303708 1737.5,96 1731.4716,102.12048 1727.0872,102.78885 1722.7407,98.25 z"/>
</svg>
