<svg xmlns="http://www.w3.org/2000/svg"
     width="31.6" height="64.0"
     viewBox="901.1899 14.5703 44.9013 90.8297">
  <path d="M 919.86012,99.485722 C 912.05054,95.242912 905.18987,71.286322 906.3937,52.462703 906.74675,46.942189 907.46582,39.782132 907.99162,36.551464 909.12587,29.58239 913.07928,23 916.13069,23 918.13128,23 918.19781,23.326581 917.50584,29.75 915.4816,48.54051 916.71866,64.588873 921.27416,78.636331 925.25489,90.91144 927.4691,87.24681 931.50921,61.696767 931.83997,59.604989 932.10697,49.830908 932.10254,39.976587 932.09438,21.82242 932.75019,18.570303 935.62615,22.503405 939.25259,27.462862 942.09113,47.503716 941.57444,64.5 941.04916,81.779083 936.19995,96.681886 930.02802,99.985006 927.38412,101.39998 922.9861,101.18402 919.86012,99.485722 z M 930.46886,95.893197 C 937.08956,90.080143 940.32548,72.414911 938.86911,50.035251 938.16687,39.244107 936.18499,26.481675 935.34233,27.324334 935.13671,27.529961 934.74465,35.078607 934.47111,44.099101 934.19756,53.119595 933.49469,63.875 932.90916,68 931.47601,78.096561 928.20471,88.707466 926.29978,89.438456 919.80619,91.930283 914.47957,70.534994 914.61388,42.5 L 914.69533,25.5 912.4907,30.5 C 905.43371,46.504927 908.27355,79.79017 917.81051,92.852566 919.70286,95.444446 924.14856,98.49403 926.7152,98.960858 926.83357,98.982386 928.52271,97.601939 930.46886,95.893197 z"/>
</svg>
