<svg xmlns="http://www.w3.org/2000/svg"
     width="49.1" height="64.0"
     viewBox="833.0000 17.7446 65.9078 85.9951">
  <path d="M 858.00977,96.75 C 858.01514,96.0625 859.12892,93.117037 860.48483,90.204527 862.8992,85.018445 862.9193,84.770557 861.45771,78.204527 860.63688,74.517037 859.75889,70.564648 859.50662,69.421439 859.02165,67.223694 855.22265,65 851.95295,65 850.26647,65 849.997,65.716327 849.97804,70.25 849.95585,75.5551 847.30481,83.075547 844.94217,84.535738 842.90229,85.796458 840,81.287185 840,76.857097 840,72.557979 842.14797,66.59896 844.72343,63.753112 846.04656,62.291074 847.26856,62.054511 850.93529,62.550572 853.44588,62.890223 856.21838,63.363678 857.0964,63.602695 858.46816,63.97612 858.78012,62.381232 859.31336,52.268636 859.65468,45.795886 860.37847,38.998846 860.9218,37.164102 862.18438,32.900509 860.90604,30.758576 855.33505,27.803171 851.21221,25.616012 851.08939,25.609127 849.05404,27.451097 847.22316,29.10802 847.05302,30.061142 847.6128,35.524913 848.39122,43.122803 846.89633,48.270575 843.45634,49.837937 839.71523,51.542504 837,48.414941 837,42.401129 837,36.262606 839.49312,31.345068 844.07011,28.45574 846.13908,27.149655 848.12127,25.612806 848.47496,25.04052 849.56988,23.268897 854.31531,23.948939 858.40887,26.464098 L 862.31774,28.865776 864.23145,26.432888 C 866.87801,23.068328 868.64941,23.388458 870.13616,27.5 871.71718,31.87224 873.71647,31.979176 879.49886,28.000784 888.59189,21.744613 894,24.64434 894,35.776026 894,39.635318 893.49758,41.123375 891.58921,42.916191 888.2964,46.009628 885.75941,45.26443 884.28729,40.77137 883.3049,37.773037 883.34542,36.170118 884.50062,32.331691 885.28494,29.725589 885.73361,27.40028 885.49767,27.164338 885.26173,26.928397 882.36113,28.4824 879.05188,30.617677 L 873.03508,34.5 873.62368,44.5 C 873.94741,50 874.35607,55.4 874.53183,56.5 874.70758,57.6 874.88482,60.0176 874.92569,61.872445 874.99155,64.861444 875.18376,65.092384 876.61617,63.903589 882.2451,59.231989 891.34894,59.754199 892.72647,64.8277 894.9078,72.861672 892.33878,82.5 888.01606,82.5 883.42576,82.5 881.88087,74.589284 884.61851,65.102648 885.26297,62.869409 885.11145,62.753808 882.40516,63.413946 877.15784,64.693913 874.90607,67.998596 873.74528,76.123102 872.73767,83.175563 872.80805,83.729434 875.34566,88.716756 877.97786,93.889992 878.69339,97.001665 877.25,96.998199 876.8375,96.997208 875.07058,94.099621 873.32351,90.559116 870.21171,84.25294 870.16825,83.972936 871.18969,76.810917 873.17967,62.857705 870.56168,31.170312 867.13522,27.736787 865.32805,25.925896 860.22143,51.226976 861.54282,55.444702 861.72466,56.025116 862.10212,60.775 862.38164,66 862.66115,71.225 863.60434,77.510779 864.47762,79.968397 866.05603,84.410455 866.04604,84.476709 862.7827,91.208081 859.68354,97.600777 857.98773,99.569805 858.00977,96.75 z M 844.7914,44.921031 C 846.22545,42.23259 845.83235,34.432351 844.17953,32.779527 842.35499,30.954987 838.90656,37.87185 839.58263,42 840.71311,48.902819 842.21747,49.746452 844.7914,44.921031 z M 846.60553,77.401674 C 848.26765,73.423671 848.13169,66.861775 846.37522,66.285707 844.5799,65.696898 841.76468,73.932077 842.47213,77.703137 843.27636,81.990038 844.73277,81.883817 846.60553,77.401674 z M 862.64695,99.237774 C 862.33673,98.735823 863.33264,96.828166 864.86008,94.998535 L 867.63725,91.671934 870.81863,94.024025 C 873.98981,96.368585 875.05281,99 872.82874,99 872.18455,99 870.82983,98.250988 869.81826,97.33553 868.09347,95.774617 867.83072,95.810404 865.59502,97.910735 864.2838,99.142557 862.95717,99.739724 862.64695,99.237774 z M 889.96482,78.065741 C 891.21153,75.736238 891.31111,67.039282 890.11273,65.148155 888.5556,62.690917 886,67.915362 886,73.55584 886,80.162497 887.76699,82.172415 889.96482,78.065741 z M 890.96482,40.065741 C 893.20773,35.874813 891.258,27.71106 888.55078,29.95786 885.66435,32.35338 885.68233,42 888.57322,42 889.31925,42 890.39547,41.129584 890.96482,40.065741 z"/>
</svg>
