<svg xmlns="http://www.w3.org/2000/svg"
     width="25.6" height="64.0"
     viewBox="2052.8500 34.3125 29.1500 72.7453">
  <path d="M 2069.125,38.3125 2067.125,40.75 C 2071.379,44.813319 2071.9845,48.108679 2072,59.875 2072.0089,66.653329 2072.4129,68.917347 2074.125,71.6875 2077.1555,76.591014 2076.9025,82.813911 2073.5625,85.6875 2071.461,87.495513 2071,88.799578 2071,92.84375 2071,98.756163 2069.1597,101.00353 2066.5,98.34375 2065.1544,96.99823 2064.898,95.575788 2065.3438,91.8125 2065.856,87.486488 2065.6633,86.812915 2063.4688,85.375 2062.0578,84.450433 2060.5577,82.084505 2059.9375,79.78125 2058.8094,75.592055 2059.7054,73.606319 2064.25,70.1875 2065.6519,69.132851 2066.0045,67.350616 2066,61.1875 2065.997,56.956187 2065.5059,51.7 2064.9062,49.5 2064.4969,47.998027 2063.8772,46.704653 2063.2188,45.53125 L 2061.6562,47.4375 C 2063.0334,51.107048 2064.0712,58.135733 2063.375,62.90625 2063.0199,65.33913 2061.3652,69.226526 2059.7188,71.5625 2057.2292,75.094347 2056.85,76.40935 2057.4062,79.375 2057.7737,81.333857 2059.1782,84.266914 2060.5312,85.875 2062.3121,87.991526 2062.9889,90.00321 2063,93.15625 2063.0169,97.955698 2063.593,99.181631 2066.4062,100.71875 2070.6872,103.05777 2074,99.270075 2074,92.09375 2074,89.565782 2074.6688,87.704741 2076,86.5 2077.5654,85.083292 2078,83.418771 2078,78.84375 2078,74.332071 2077.5438,72.543771 2076,71 2074.257,69.257028 2074,67.666667 2074,58.625 2074,45.110123 2073.3774,42.479831 2069.3438,38.5625 2069.2496,38.471106 2069.2149,38.401967 2069.125,38.3125 z"/>
</svg>
