<svg xmlns="http://www.w3.org/2000/svg"
     width="47.5" height="64.0"
     viewBox="2631.6441 17.8466 65.3431 88.1212">
  <path d="M 2687.75,82.8125 C 2686.4954,83.182929 2685.3457,84.019181 2684.1562,85.53125 2681.2025,89.286358 2677.6738,90.532437 2674.125,89.0625 2669.7692,87.258259 2669.6485,85.492991 2673.5312,80.40625 2678.0985,74.422791 2678.6008,71.947161 2676.625,65.15625 2675.3303,60.706088 2675.1168,57.680106 2675.7188,51 L 2676.5,42.5 2681.75,39.84375 C 2689.6903,35.836145 2692.9872,31.051777 2691.5938,25.5 2690.7492,22.135273 2688.87,22.362235 2683.5312,26.4375 2676.4485,31.843803 2675.5953,31.850647 2669.875,26.5 2665.273,22.195291 2664.5753,21.84657 2661.1875,22.4375 2652.9426,23.875653 2648.9591,34.021471 2654.4688,39.53125 2655.8187,40.88125 2657.8005,42 2658.9062,42 2660.0119,42 2661.3994,42.873657 2661.9688,43.9375 2663.1013,46.053722 2663.4109,56 2662.3438,56 2661.9796,56 2659.6691,54.811039 2657.2188,53.375 2653.5691,51.236173 2652.191,50.937794 2649.625,51.65625 2647.0365,52.380966 2645.7648,53.934097 2642.2812,60.53125 2635.6441,73.10104 2636.896,76.757363 2645,68.5 2647.429,66.025 2650.202,64 2651.1562,64 2655.414,64 2657.7122,74.101444 2654.5,78.6875 2653.6759,79.864038 2650.9777,81.616276 2648.5,82.5625 2643.1494,84.605918 2640.2805,88.635116 2639.3438,95.46875 2638.7562,99.755842 2638.8724,100.15392 2640.5938,99.8125 2641.9108,99.551264 2642.4062,98.77216 2642.1875,97.21875 2642.014,95.98626 2642.6476,93.207115 2643.5938,91.0625 2644.9228,88.050103 2646.5518,86.545813 2650.7188,84.4375 2653.9275,82.814058 2656.6992,80.575751 2657.5625,78.90625 2659.7027,74.767539 2659.4014,67.780163 2656.9688,64.6875 2653.7438,60.587681 2651.5096,60.428327 2647,64 2643.6236,66.674168 2643.0172,66.897688 2643.0312,65.34375 2643.0534,62.868559 2647.0643,55.952128 2649.2812,54.59375 2650.6982,53.725482 2652.0999,54.071176 2656.0312,56.25 2661.6535,59.36591 2664.5224,59.709615 2665.4062,57.40625 2666.1846,55.377674 2666.1395,48.565129 2665.3438,43.75 2664.7952,40.432025 2664.4136,40 2661.875,40 2655.7302,40 2652.5296,31.470395 2657,27 2660.7693,23.230728 2667.5925,25.593589 2670.9375,31.84375 2672.6407,35.026264 2675.9611,34.492955 2682.375,30 2688.6529,25.60231 2690.3803,26.240712 2687.9688,32.0625 2686.7482,35.009173 2680.8097,39 2677.625,39 2674.6952,39 2672.9932,42.008876 2672.9688,47.3125 2672.9557,50.160714 2672.5494,54.215097 2672.0625,56.3125 2671.3681,59.304308 2671.6334,61.381622 2673.2812,65.90625 2675.7477,72.678558 2675.1331,75.129576 2669.4688,81.3125 2665.4594,85.68888 2665.8368,87.66637 2671.3125,91.09375 2675.7704,93.884029 2680.3886,93.002247 2685.0312,88.46875 L 2687.8438,85.71875 2687.75,82.8125 z M 2649.9375,90 C 2648.5945,90 2647,93.54031 2647,96.5 2647,98.389327 2647.4458,99.04397 2648.5938,98.8125 2649.6983,98.589813 2650.3148,97.177159 2650.5312,94.25 2650.7041,91.9125 2650.4229,90 2649.9375,90 z M 2688.0938,92.6875 C 2687.2552,93.009247 2686.4823,93.406474 2685.4688,94.25 2681.7728,97.326045 2678.6096,99 2676.5312,99 2675.6483,99 2672.5772,97.425 2669.7188,95.5 2663.5023,91.313619 2660.8307,91.105754 2658.0625,94.625 2655.1129,98.374737 2655.3522,101.36563 2658.3125,97.75 2661.2222,94.196271 2662.5123,94.27519 2668.5312,98.4375 2671.271,100.3322 2674.6377,101.9072 2676.0312,101.9375 2677.4248,101.96781 2681.0249,100.39204 2684.0312,98.4375 2685.8673,97.243903 2687.0741,96.670191 2688.2188,96.1875 L 2688.0938,92.6875 z"/>
</svg>
