<svg xmlns="http://www.w3.org/2000/svg"
     width="31.8" height="64.0"
     viewBox="583.1053 17.9395 44.2141 89.0454">
  <path d="M 623.125,80.96875 C 622.43229,79.007925 622.4578,75.454183 622.78125,64.25 623.31938,45.609726 622.09538,33.270717 619.03125,26.34375 617.59312,23.092609 616.56284,21.939503 615.28125,22.1875 613.66521,22.500215 613.49458,24.185554 613.375,41.5 613.20455,66.182131 610.67051,83.55877 606.75,86.8125 604.51736,88.665434 603.191,86.411985 600.25,75.78125 597.88703,67.239902 597.64964,64.783195 597.53125,45 597.4082,24.43872 597.32251,23.5 595.46875,23.5 594.21493,23.5 592.68133,25.05368 591.125,27.875 589.09531,31.554429 588.61978,34.213672 588.03125,44.875 587.10527,61.649096 589.8131,87.899738 593.15625,94.59375 595.9988,100.28542 597.21011,101.2463 602.34375,101.96875 609.56465,102.98495 612.75086,101.50813 617.3125,95 L 619.0625,92.5 619.53125,92.75 621.0625,87.4375 C 621.09342,87.010126 621.19035,86.658159 621.34375,86.46875 L 622.65625,82 623.125,80.96875 z M 594.21875,27 C 594.87711,27 594.98266,30.394916 594.53125,36.75 593.28905,54.238111 597.47337,83.659843 602,89.25 603.53915,91.15077 604.01838,91.243528 606.71875,90.125 611.3401,88.210773 611.81506,86.64106 614.96875,62.71875 615.53364,58.433783 616,49.546283 616,42.96875 616,31.624224 616.98288,27.82933 618.4375,33.625 619.89472,39.431043 620.76084,60.992509 619.90625,70.5 618.39363,87.328003 615.90427,94.846033 610.6875,98.5 605.71244,101.98467 598.05029,98.661362 595.03125,91.71875 592.16128,85.118912 589.6057,58.989158 590.4375,44.71875 591.13241,32.796967 592.37854,27 594.21875,27 z"/>
</svg>
