<svg xmlns="http://www.w3.org/2000/svg"
     width="28.2" height="64.0"
     viewBox="2468.5426 18.9070 38.1136 86.4340">
  <path d="M 2480.4062,48.6875 2479.7188,54.46875 C 2479.9088,54.754653 2480,55.208172 2480,55.90625 2480,56.324368 2479.7025,56.88186 2479.375,57.4375 L 2478.6562,63.34375 2478.625,63.4375 C 2478.8693,63.825968 2479.2613,67.122249 2479.5312,71.09375 2480.2078,81.048654 2482.5965,91.797677 2485,95.75 2488.4001,101.34098 2493.0294,99.493524 2495.0312,91.71875 2495.6268,89.406001 2496.6074,85.925 2497.2188,84 2499.3375,77.329109 2497.8117,48.693802 2494.8438,39.375 2494.6487,38.762296 2496.3,35.984305 2498.5,33.1875 2499.8559,31.46373 2501.2472,30.125781 2502.6562,29 L 2502.4062,26.46875 C 2500.1699,27.842494 2497.8991,29.626266 2495.6875,32.25 L 2491.6875,36.96875 2494,48.9375 C 2495.8907,58.754685 2496.1691,62.808641 2495.6875,71.6875 2495.047,83.496794 2491.8921,96 2489.5312,96 2487.6856,96 2484.4978,87.191587 2483.125,78.3125 2481.5768,68.299296 2481.7728,60.150109 2483.9062,48.5 2485.7323,38.528892 2485.7272,38.491332 2483.6562,35.5 2479.6172,29.665789 2475.4847,25.049051 2474.2812,25.03125 2472.5426,25.005531 2473.7499,27.797438 2477.5,32.5 2482.4416,38.696582 2482.8268,39.923844 2481.5938,45.28125 2481.2558,46.7495 2480.8869,47.762767 2480.4062,48.6875 z M 2495.0625,23.65625 C 2494.7629,23.167997 2493.3853,23.650669 2491.1875,25.5 2487.5916,28.525792 2486.5529,28.573483 2483.2812,26 2479.3491,22.906966 2478.2261,24.917477 2482.0938,28.125 2486.5157,31.792328 2488.0972,31.716695 2492.4688,27.59375 2494.5797,25.602867 2495.3621,24.144503 2495.0625,23.65625 z"/>
</svg>
