<svg xmlns="http://www.w3.org/2000/svg"
     width="55.0" height="64.0"
     viewBox="1825.3438 18.2312 75.4573 87.7508">
  <path d="M 1829.3438,68.5625 C 1830.2073,68.328267 1831.5011,68.779346 1833.375,69.9375 1838.2092,72.925232 1840.0647,72.528228 1844.9688,67.53125 1849.2602,63.158655 1849.3858,63.11197 1852,64.65625 1853.4659,65.52218 1855.2438,67.139144 1855.9375,68.25 1857.0091,69.965879 1856.8812,70.654451 1855.0938,72.875 1853.9365,74.312578 1851.7625,77.222429 1850.2812,79.34375 L 1847.5938,83.21875 1849.375,87.84375 C 1854.823,101.98205 1854.6112,101.66309 1857.2188,99.3125 1858.9565,97.745822 1859.1476,96.716321 1858.625,91.6875 1858.0806,86.448073 1858.2768,85.516252 1860.625,82.4375 1862.0613,80.554498 1863.6231,79 1864.0938,79 1866.0749,79 1868.2176,85.387053 1867.7188,89.8125 1867.1195,95.128301 1868.6142,100.24151 1870.6562,99.8125 1872.1558,99.497489 1878.3325,82.914997 1878.1875,79.59375 1878.142,78.553403 1876.8681,76.433406 1875.375,74.875 L 1872.6875,72.0625 1874.5625,67.875 C 1876.3215,63.974332 1880.9242,60.008514 1883.7188,60 1885.8736,59.993435 1888.2631,64.899182 1888.4688,69.78125 1888.7131,75.580539 1890.6962,76.073548 1893.3125,71 1896.8011,64.234791 1894.2457,51.839063 1888.8438,49.25 1885.9568,47.866365 1882.4066,48.92857 1876.5,52.9375 1871.7347,56.171837 1870.9937,55.689695 1871,49.25 1871.006,42.989326 1872.2539,37.386045 1874.25,34.65625 1875.4423,33.025649 1875.8215,33.095304 1880.5,35.46875 1883.2434,36.860538 1886.0507,37.997698 1886.7188,38 1889.3922,38.00921 1890.8264,31.665705 1889.375,26.25 1888.5904,23.322316 1886.8444,23.419818 1881.0312,26.6875 L 1876.25,29.375 1872.4062,26.1875 C 1867.7692,22.365175 1865.9996,22.231235 1861.2812,25.4375 1857.818,27.790872 1857.5485,27.823915 1854.0938,26.3125 1846.8649,23.149968 1846.1926,23.300003 1843.9062,28.46875 1840.0376,37.21468 1843.499,41.126249 1850.5938,36.03125 1852.9208,34.360031 1855.5282,33 1856.375,33 1858.5166,33 1859.9933,39.015763 1860,47.75 1860.0063,55.849881 1859.6628,56.140289 1853.3438,53.5 1847.7204,51.150401 1845.4686,51.612781 1841.125,56 1838.9468,58.2 1836.7994,59.984872 1836.3438,59.96875 1834.7628,59.912807 1831.321,56.373728 1829.3438,53.21875 L 1829.3438,58.8125 C 1829.7336,58.701189 1830.6335,59.031237 1831.9062,59.9375 1836.1549,62.962853 1838.4169,62.524059 1842,58 1845.627,53.420564 1846.9471,53.208936 1853.4688,56.09375 1856.324,57.356719 1859.134,57.928874 1860.5938,57.5625 1862.8613,56.993366 1863,56.521683 1863,49.78125 1863,45.839368 1862.2876,39.764621 1861.4062,36.25 1859.8193,29.922432 1859.8079,29.837407 1862.0625,27.4375 1864.9431,24.37128 1866.8463,24.370638 1870.1875,27.46875 L 1872.8438,29.9375 1870.9375,36.21875 C 1867.4057,47.837066 1867.5008,57.102141 1871.1875,57.8125 1872.0425,57.977244 1874.7617,56.751898 1877.2188,55.09375 1883.7587,50.679979 1886.3774,49.869446 1888.75,51.53125 1891.0595,53.148934 1893.3284,60.39036 1892.8438,64.59375 L 1892.5,67.5 1890,63.21875 C 1887.1059,58.26057 1884.4238,57.200445 1880.2188,59.375 1876.2447,61.430024 1871,68.171933 1871,71.21875 1871,72.55623 1872.125,74.708255 1873.5,76 1874.9649,77.376245 1876,79.45507 1876,81.03125 1876,82.510654 1874.6583,86.612776 1873.0312,90.125 L 1870.0938,96.5 1870.2812,89.9375 C 1870.4661,84.107715 1870.1716,82.948326 1867.6875,79.6875 1866.147,77.665314 1864.4968,76 1864,76 1863.5032,76 1861.4814,78.102159 1859.5312,80.65625 1856.6635,84.411909 1856.0097,86.181004 1856,89.90625 L 1855.9688,94.5 1853.5,90.15625 C 1852.1316,87.76261 1851,84.979159 1851,83.96875 1851,82.958341 1852.8,80.041901 1855,77.5 1860.2088,71.481689 1860.293,68.352479 1855.3438,64.125 1853.3302,62.405011 1850.7847,61 1849.6875,61 1848.5903,61 1845.9379,62.8 1843.7812,65 1841.6248,67.2 1839.0376,69 1838.0625,69 1835.9329,69 1831.3332,65.763855 1829.3438,63.375 L 1829.3438,68.5625 z M 1886.0312,26 C 1887.2171,26 1888.0924,30.766414 1887.4062,33.5 1887.0611,34.875 1886.2842,35.981273 1885.6562,35.96875 1883.4008,35.923762 1877.9259,32.678285 1878.2812,31.59375 1878.6686,30.41197 1884.7856,26 1886.0312,26 z M 1846.3438,26.3125 C 1847.1045,25.551795 1855,28.972739 1855,30.0625 1855,30.481388 1853.1208,32.208669 1850.8125,33.90625 1848.5041,35.60383 1846.1991,37 1845.6875,37 1844.6909,37 1845.2805,27.375698 1846.3438,26.3125 z"/>
</svg>
