<svg xmlns="http://www.w3.org/2000/svg"
     width="46.9" height="64.0"
     viewBox="2778.8230 15.5198 65.3505 89.1989">
  <path d="M 2830.875,83.03125 C 2829.7531,82.578556 2828.5191,81.972441 2826.9062,80.9375 2821.8955,77.722054 2821.7813,77.58537 2822.3125,73.625 2822.6106,71.402377 2823.6391,69.01055 2824.5938,68.3125 2826.2012,67.137094 2826.2296,66.888328 2824.7188,65.21875 2823.7109,64.105126 2823.291,62.553024 2823.6562,61.15625 2824.0475,59.659703 2823.5765,58.144876 2822.25,56.6875 2818.8003,52.897528 2818,50.35754 2818,43.15625 2818,36.305142 2818.0712,36.135649 2821.375,34.09375 2828.648,29.598806 2833,32.238591 2833,41.15625 2833,45.639901 2833.3379,47 2834.4688,47 2836.3352,47 2838.5912,42.679057 2839.4062,37.5 2840.1735,32.623904 2837.746,23.029365 2835.3125,21.25 2832.9464,19.519849 2828.1026,20.524569 2818.875,24.625 2814.6808,26.48877 2810.5917,28 2809.7812,28 2808.9708,28 2806.3265,26.671242 2803.9062,25.03125 2797.9354,20.98532 2792.9202,20.954784 2788.9375,24.9375 2784.0253,29.849672 2785.3519,34.837453 2792.25,37.40625 2794.5938,38.279058 2798.525,38.887421 2801,38.75 L 2805.5,38.5 2805.7812,46.25 C 2806.1074,54.903113 2805.6935,55.33795 2800.2188,52 2792.9451,47.565204 2787.6934,50.466873 2784.4688,60.71875 2782.8878,65.744916 2782.823,67.302247 2783.875,73.4375 2785.2637,81.5353 2789.2697,89.30835 2791.8125,88.78125 2792.839,88.568464 2793.3824,87.672009 2793.1875,86.46875 2793.0128,85.389823 2792.8506,80.608314 2792.8438,75.84375 2792.8344,69.368329 2793.2641,66.527633 2794.5312,64.59375 2795.4636,63.170814 2796.6223,62 2797.0938,62 2798.5923,62 2805.6932,73.832498 2807,78.5 2808.1828,82.724546 2808.1128,83.182823 2805.7812,86.25 2801.7343,91.573875 2799.695,96.101231 2800.8438,97.25 2801.5326,97.938925 2802.3345,97.153195 2803.3125,94.8125 2804.1063,92.912622 2806.1562,89.738859 2807.875,87.78125 2809.5938,85.823642 2811.0004,83.402392 2811,82.375 2810.9979,77.618695 2802.2736,60.742128 2799.1875,59.53125 2795.4856,58.078808 2791.5829,63.449032 2790.5312,71.5 2790.1729,74.242754 2789.6237,77.625 2789.3125,79 2788.7647,81.42054 2788.7308,81.388756 2787.4688,78 2785.3211,72.233402 2785.6899,64.177933 2788.4062,58.34375 2791.4487,51.809609 2793.5724,51.09403 2799.4375,54.53125 2801.9084,55.979251 2804.9616,56.990813 2806.2188,56.8125 2808.4255,56.499473 2808.5,56.155184 2808.5,46.5 L 2808.5,36.5 2801,35.9375 C 2791.9388,35.259911 2790.1795,34.548121 2789.3438,31.21875 2788.84,29.211769 2789.2812,28.140387 2791.4062,26.3125 2794.6663,23.508278 2797.4833,23.915786 2803.8125,28.125 2806.1776,29.697876 2808.4276,31.004734 2808.8125,31 2809.1975,30.995265 2813.1,29.268881 2817.5,27.15625 2821.9,25.04362 2827.1509,23.002711 2829.1875,22.625 2832.3583,22.036969 2833.1328,22.260917 2834.4062,24.21875 2835.2242,25.476325 2836.1973,28.979502 2836.5938,32 L 2837.3125,37.46875 2833.7812,33.75 C 2829.3732,29.076055 2826.2526,28.913272 2819.5938,33.09375 L 2814.7188,36.1875 2815.3125,44.59375 C 2815.8296,51.921488 2816.292,53.479781 2818.875,56.75 L 2821.8438,60.5 2820.4375,67 C 2818.1284,77.767501 2818.3138,78.471106 2824.25,82.46875 2826.7391,84.145054 2828.9806,85.210773 2831.0312,85.65625 L 2830.875,83.03125 z M 2831.6875,97.0625 C 2829.9942,96.28627 2828.1116,95.076997 2825.7812,93 2822.6957,90.25 2819.2045,88 2818.0312,88 2815.3703,88 2803.9837,99.150834 2805.9688,99.8125 2806.7067,100.05848 2809.2506,98.174347 2811.625,95.625 2813.9995,93.075652 2816.6477,91 2817.5,91 2818.3523,91 2820.956,92.728272 2823.2812,94.84375 2825.6066,96.959228 2828.4,99.194702 2829.5,99.8125 2830.2716,100.24586 2831.0811,100.53673 2831.9062,100.71875 L 2831.6875,97.0625 z"/>
</svg>
