<svg xmlns="http://www.w3.org/2000/svg"
     width="29.7" height="64.0"
     viewBox="1941.7576 18.8511 40.6675 87.6042">
  <path d="M 1953.5,100.79218 C 1949.8418,98.694205 1949.0253,96.668573 1949.1497,90 1949.2165,86.425 1948.7162,81.217459 1948.0381,78.427686 1946.9928,74.126895 1947.0707,72.073482 1948.5507,64.927686 1951.5734,50.332242 1951.5604,45.622997 1948.4755,37.760077 L 1945.7576,30.832587 1949.5817,26.916294 C 1951.685,24.762332 1953.8796,23 1954.4586,23 1955.0375,23 1956.8244,24.575 1958.4295,26.5 1960.0345,28.425 1961.832,29.995632 1962.4239,29.990294 1963.0157,29.984956 1965.5182,28.376463 1967.9848,26.415865 L 1972.4696,22.851142 1974.7367,25.675571 C 1978.3893,30.226146 1978.4251,31.67546 1974.992,36.010158 L 1971.8396,39.990314 1967.5819,37.495157 C 1965.2402,36.122821 1963.0612,35 1962.7397,35 1962.4182,35 1961.6522,36.523946 1961.0374,38.386546 1959.8628,41.945652 1960.3278,46.179505 1963.5209,61 1965.0838,68.253833 1965.0663,68.73779 1962.9891,75.744771 1961.1569,81.925471 1961.0166,83.520269 1962.034,86.603017 1963.5692,91.254779 1962.6708,96.657091 1959.8653,99.643396 1957.3917,102.27641 1956.4001,102.45538 1953.5,100.79218 z M 1958.7621,97.75 C 1960.7457,95.287614 1961.1705,90.230312 1959.6419,87.274349 1958.303,84.685332 1958.346,83.720729 1960.0784,77.473002 1962.4713,68.843703 1962.4688,67.152773 1960.049,57.691619 1957.4521,47.53769 1957.0309,43.21689 1958.0869,37.564045 1958.7571,33.976717 1958.614,32.154279 1957.4917,29.984025 1955.2575,25.663445 1954.075,25.46342 1950.7029,28.835599 1947.7968,31.741661 1947.7145,32.02704 1949.2827,33.759866 1951.6711,36.399081 1954,43.583198 1954,48.31194 1954,50.545208 1953.0529,55.747604 1951.8954,59.87282 1949.3408,68.976972 1949.5723,78.764904 1952.4166,81.90784 1954.1224,83.792678 1954.1403,84.192141 1952.6826,87.83518 1950.4669,93.372732 1952.139,99 1956,99 1956.9653,99 1958.2082,98.4375 1958.7621,97.75 z M 1973.4433,34.777494 C 1975.4812,31.867969 1975.4078,30.704501 1973.0067,27.860784 L 1971.0134,25.5 1968.0067,28.765777 C 1964.3056,32.785774 1964.2764,33.543577 1967.75,35.428025 1971.383,37.398964 1971.6266,37.371125 1973.4433,34.777494 z"/>
</svg>
