<svg xmlns="http://www.w3.org/2000/svg"
     width="16.9" height="64.0"
     viewBox="1547.7968 17.0625 24.1720 91.7993">
  <path d="M 1567.5938,70.375 1567.3438,69.34375 1567.5625,64.375 C 1567.178,63.738843 1567,63.043353 1567,62.03125 1567,60.357895 1567.2167,59 1567.5,59 1567.5151,59 1567.7845,59.14877 1567.8125,59.15625 L 1567.9688,55.4375 1567,54.84375 1567,39.03125 C 1567,27.577926 1566.6561,22.988533 1565.75,22.28125 1565.0625,21.744596 1561.9809,21.248294 1558.9062,21.1875 L 1553.3125,21.0625 1552.6562,48.1875 C 1551.7968,83.525236 1551.8175,103.50495 1552.7188,104.40625 1553.1173,104.80476 1554.3547,104.86184 1555.4688,104.5625 1556.5828,104.26316 1559.6805,104.00751 1562.3438,104 L 1567.1875,104 1566.9688,98.75 C 1566.8498,95.8625 1566.8068,87.962064 1566.875,81.1875 1566.9377,74.965903 1566.8944,71.760302 1567.5938,70.375 z M 1560.375,24 C 1564.1547,24 1565,25.191942 1565,30.5 1565,32.335034 1564.7401,34.536266 1564.4062,35.40625 1563.8079,36.965467 1562.6441,37.156843 1558.2812,36.3125 1555.5718,35.788149 1554.1682,30.114764 1555.8438,26.4375 1556.6984,24.561643 1557.7321,24 1560.375,24 z M 1558.1875,38 C 1562.375,38 1564,39.835061 1564,44.53125 L 1564,49 1560.1562,49 C 1555.4901,49 1555,48.547006 1555,44.40625 1555,39.824963 1555.9218,38 1558.1875,38 z M 1555.8438,51.59375 C 1556.3079,51.306928 1558.3329,51.329923 1560.3438,51.65625 L 1564,52.25 1564,58.625 1564,65 1560.75,64.90625 C 1558.9625,64.862829 1556.9375,64.621163 1556.25,64.34375 1554.8267,63.769422 1554.4658,52.445325 1555.8438,51.59375 z M 1557.75,67 C 1562.9495,67.021232 1564.1958,68.07948 1563.8125,72.09375 1563.5292,75.060857 1563.1218,75.536046 1560.5,75.75 1556.0258,76.115124 1554,74.447069 1554,70.4375 1554,67.11442 1554.1383,66.985252 1557.75,67 z M 1564,77.875 1564,83.9375 1564,90 1559.5312,90 C 1555.2649,90 1555.0741,89.851568 1554.4688,86.625 1554.1212,84.772046 1553.9711,82.184546 1554.1562,80.875 1554.4496,78.801211 1555.1129,78.452966 1559.25,78.1875 L 1564,77.875 z M 1559.1875,92.03125 C 1560.0062,92.012 1560.9439,92.153377 1561.9375,92.46875 1563.5558,92.982367 1564,93.963941 1564,96.9375 1564,100.40202 1563.7184,100.80632 1560.875,101.375 1554.6809,102.61383 1554.1363,102.16694 1554.8125,96.375 1555.1349,93.613029 1556.7314,92.088999 1559.1875,92.03125 z"/>
</svg>
