<svg xmlns="http://www.w3.org/2000/svg"
     width="49.5" height="64.0"
     viewBox="1229.1580 13.7180 70.0608 90.5931">
  <path d="M 1294.875,58.125 1294.7188,58.3125 1291.2812,54.15625 C 1287.2928,49.354651 1284.0424,48.792225 1278.7812,52 1276.9804,53.097944 1274.9375,53.997944 1274.25,54 1272.3634,54.005642 1272.7014,44.55765 1274.8438,37.5 1276.6518,31.543774 1276.7036,31.511857 1280.0938,31.90625 1288.6056,32.896482 1289.4684,32.688771 1289.8125,29.6875 1289.9899,28.139815 1289.3334,24.923727 1288.3438,22.53125 1286.3531,17.718002 1285.6124,17.72757 1279.6875,22.65625 1275.8868,25.817866 1274.2086,25.609753 1270.0312,21.53125 L 1266.5,18.09375 1261.1562,22.15625 C 1256.7524,25.514706 1255.9588,26.611038 1256.5312,28.375 1259.8248,38.524218 1260.922,44.7362 1260.3438,49.65625 1259.697,55.159781 1258.7902,55.968484 1255.25,54.09375 1248.3766,50.45381 1244.5656,48.991688 1243.0625,49.46875 1240.3292,50.336272 1235.1432,58.305825 1234.4375,62.71875 1233.158,70.720391 1238.4514,74.181538 1241.375,67.25 1244.9752,58.714479 1247.3127,58.283004 1253.4375,65.0625 1257.4114,69.461085 1257.239,71.30008 1252.5938,74.34375 1251.2331,75.235323 1248.9104,77.559067 1247.4062,79.53125 L 1244.6562,83.125 1248.5625,91.09375 C 1252.7436,99.669474 1253.9259,100.31108 1257.2812,95.8125 1258.9923,93.518596 1259.1224,92.56192 1258.25,89.125 1257.369,85.654382 1257.5336,84.721738 1259.375,82.09375 1262.51,77.619452 1264.0735,77.402479 1267.3438,81.0625 1269.9334,83.96087 1270.1471,84.749281 1269.5625,89.15625 1268.9859,93.50331 1269.2114,94.305151 1271.5,96.59375 1272.9103,98.004028 1274.5735,98.965124 1275.2188,98.75 1275.8642,98.534875 1276.9328,96.247421 1277.5938,93.65625 1278.2548,91.06508 1279.5282,87.83998 1280.4062,86.5 1282.6782,83.032427 1282.4283,81.848037 1278.5,76.90625 1276.5803,74.491348 1275.0053,71.896347 1275,71.15625 1274.9864,69.264756 1278.7706,64.197494 1281.125,62.9375 1283.3666,61.737828 1287.7417,63.971259 1291.9375,68.4375 1293.104,69.679142 1294.4309,70.581944 1295.2188,70.8125 L 1295.0938,66.5 C 1294.2073,66.118716 1292.4299,64.91889 1290.25,63 1287.7506,60.8 1284.9788,59.011761 1284.0938,59.03125 1281.6645,59.084744 1278.5267,61.156941 1275.7812,64.5 1270.8759,70.473078 1270.8415,70.899135 1275.0938,76.53125 1277.2349,79.367214 1279,82.219194 1279,82.875 1279,85.11874 1273.9408,94.081467 1273,93.5 1272.4834,93.180713 1272.3213,90.912018 1272.6562,88.46875 1273.1938,84.546111 1272.8631,83.436101 1269.875,79.03125 1268.0138,76.287629 1265.9661,74.045433 1265.3125,74.03125 1263.7947,73.998314 1258.7828,78.691038 1256.5,82.28125 1255.224,84.287957 1254.9249,86.091606 1255.375,88.90625 1255.8514,91.885689 1255.6252,92.919225 1254.4375,93.375 1252.3779,94.165337 1247.6841,84.43157 1248.9688,82.03125 1249.4452,81.140811 1252.1456,78.267752 1254.9375,75.65625 1257.7294,73.044747 1260,70.270126 1260,69.46875 1260,67.305568 1252.9329,59.883104 1249.5,58.4375 1245.6871,56.831851 1243.7687,57.85127 1240.875,63 1239.6389,65.19926 1238.2612,67 1237.8125,67 1235.9395,67 1237.1543,59.962997 1239.6875,56.09375 1242.3783,51.984009 1244.4465,51.171339 1247.75,52.9375 1251.7491,55.075556 1258.7143,58 1259.7812,58 1263.5327,58 1263.9197,42.756753 1260.4375,32.5 L 1258.7812,27.5625 1262.125,24.78125 1265.4375,21.96875 1269.4375,25.96875 1273.4062,29.9375 1272.0938,36.71875 C 1268.4046,55.597238 1269.9865,61.696541 1277.125,56.15625 1283.6553,51.088078 1285.5042,51.2063 1289.5625,57.0625 1291.5245,59.893668 1293.1331,60.93835 1294.9375,60.5625 L 1294.875,58.125 z M 1284.9688,23.21875 C 1286.1934,23.775376 1287,25.469031 1287,28.09375 1287,30.424638 1283.3502,30.70077 1280.4688,28.59375 1278.577,27.210434 1278.5498,27.144972 1280.4062,25.09375 1282.0893,23.233997 1283.7441,22.662124 1284.9688,23.21875 z"/>
</svg>
