<svg xmlns="http://www.w3.org/2000/svg"
     width="62.6" height="64.0"
     viewBox="1196.1631 12.0000 44.0104 44.9688">
  <path d="M 1216.2812,52.96875 C 1217.3116,50.972609 1218.2018,49.073151 1218.5312,47.75 1219.417,44.193184 1220.7083,43.448389 1222.8125,45.28125 1223.7404,46.089454 1225.5043,47.247333 1226.7188,47.875 1230.2332,49.691398 1231.4217,46.409658 1229.3125,40.71875 L 1227.6562,36.21875 1231.3125,31.9375 C 1234.9422,27.696996 1236.1735,22.862652 1233.9688,21.5 1233.4086,21.153882 1231.4674,21.798841 1229.625,22.9375 1227.7826,24.076158 1225.736,25 1225.0938,25 1224.4517,25 1223.0609,22.975 1222,20.5 1220.9391,18.025 1219.6354,16 1219.0938,16 1218.5523,16 1216.8538,17.6875 1215.3438,19.75 1213.8336,21.8125 1212.2953,23.875026 1211.9062,24.34375 1211.5172,24.812474 1209.8202,24.199053 1208.1562,22.96875 1204.8605,20.532155 1201.9817,20.885002 1202.0312,23.71875 1202.0484,24.698512 1203.1409,27.276034 1204.4688,29.4375 L 1206.9062,33.375 1203.875,36.78125 C 1200.1631,41.008828 1200.3906,43.99033 1204.5,45.3125 1208.32,46.541575 1208.2491,46.386269 1206.9375,49.25 L 1209.4375,50.25 C 1211.0703,46.851228 1212.2468,42.104615 1212.2188,37.625 1212.1812,31.633768 1212.514,30.392327 1214.5938,28.3125 1216.5157,26.390587 1217.3839,26.137288 1218.9375,26.96875 1222.8058,29.039012 1222.8032,36.46066 1218.9375,41.375 1217.8286,42.784813 1216.2677,46.121846 1215.4688,48.8125 1215.1854,49.766788 1214.5681,50.935594 1214,52.0625 L 1216.2812,52.96875 z M 1218.5938,19.53125 C 1218.9007,19.602923 1219.135,19.936968 1219.375,20.5625 1219.716,21.451171 1219.7468,22.593383 1219.4375,23.09375 1218.5614,24.511292 1216,24.161533 1216,22.625 1216,21.867344 1216.6142,20.725133 1217.375,20.09375 1217.9105,19.649322 1218.2868,19.459577 1218.5938,19.53125 z M 1205.8438,24 C 1206.7122,24 1209.1445,26.531917 1210.4062,28.75 1211.5183,30.704634 1208.5318,30.228658 1206.6562,28.15625 1204.8871,26.201426 1204.4543,24 1205.8438,24 z M 1208.6875,37 C 1209.5212,37.103239 1210.0101,38.032809 1209.8125,39.75 1209.564,41.909969 1208.91,42.563969 1206.75,42.8125 1203.6107,43.173719 1203.3514,42.375539 1205.5625,39.21875 1206.6851,37.616099 1207.8538,36.896761 1208.6875,37 z M 1224.8438,39.53125 C 1225.2028,39.704147 1225.5531,40.160867 1225.9688,40.9375 1227.6674,44.111429 1226.7632,45.494286 1224.5625,43.0625 1223.1974,41.554079 1222.9405,40.653307 1223.7188,39.875 1224.1079,39.485847 1224.4847,39.358353 1224.8438,39.53125 z M 1231.25,25.25 C 1233.0408,24.399539 1231.7669,28.295503 1229.5312,30.53125 1226.4519,33.61063 1225,33.651946 1225,30.65625 1225,28.534213 1225.8646,27.807489 1231.25,25.25 z"/>
</svg>
