<svg xmlns="http://www.w3.org/2000/svg"
     width="32.3" height="64.0"
     viewBox="370.0938 19.8354 42.1161 83.4623">
  <path d="M 374.09375,26.8125 376.15625,30.71875 C 376.31658,30.358474 376.65301,30.027107 377.28125,29.5625 381.91732,26.13397 397.99473,27.151412 401.5625,31.09375 404.23931,34.051597 405.94758,50.621248 405.96875,73.84375 405.9826,89.040364 406.33325,95.045168 407.125,94.78125 407.90115,94.522534 408.20987,87.352928 408.15625,70.96875 408.04905,38.211713 406.47514,28.084427 401.28125,26.65625 391.49668,23.965758 389.01491,23.835414 380.46875,25.53125 L 374.09375,26.8125 z M 378.40625,35.0625 380.65625,39.34375 380.6875,40 C 382.49394,38.815407 384.12498,38 385.3125,38 387.40022,38 388.14735,38.820092 389.65625,42.75 391.62575,47.879546 391.74487,51.11552 391.09375,79.78125 390.73764,95.45915 391.04607,99.297683 392.5,97.84375 392.77327,97.570477 393.11077,85.212144 393.25,70.40625 393.48702,45.201054 393.37261,43.245227 391.5,39.5 389.70627,35.912542 389.13903,35.526481 386,35.65625 384.075,35.73583 381.7016,35.96083 380.71875,36.15625 379.9856,36.302023 379.17835,35.806861 378.40625,35.0625 z M 395.21875,34.40625 C 395.08741,34.695202 395.16663,35.662239 395.40625,37.5 397.29614,51.994844 399,79.969734 399,96.75 399,96.944252 399.45,96.839919 400,96.5 400.58477,96.138593 400.99916,90.401169 401,82.6875 401.00127,71.085565 400.58709,64.898126 398.375,42.375 398.09744,39.549008 397.19637,36.399008 396.375,35.375 395.68886,34.519599 395.35009,34.117298 395.21875,34.40625 z"/>
</svg>
