<svg xmlns="http://www.w3.org/2000/svg"
     width="23.9" height="64.0"
     viewBox="2100.5978 18.9983 31.4022 84.0017">
  <path d="M 2128,23.875 C 2127.0605,23.378285 2126.1442,22.998326 2125.4062,23 2120.2998,23.011584 2114.1322,28.503149 2114.0312,33.125 2114.0118,34.017452 2111.9543,36.64884 2109.4375,38.96875 2106.9207,41.288659 2105.0948,43.438656 2105.4062,43.75 2105.7175,44.061343 2107.0833,43.117455 2108.4375,41.65625 2111.6105,38.232547 2112.6878,38.301919 2113.5,42 2114.0624,44.560423 2113.5706,45.706369 2110.0938,49.65625 2105.3658,55.027396 2104.5978,57.717546 2109,53.5 2112.3639,50.277147 2112.7249,50.375013 2113.5938,54.71875 2114.1241,57.37084 2113.6258,58.470107 2109.9688,62.4375 2105.406,67.387542 2105.1828,69.594706 2109.5938,66.125 2113.3912,63.137877 2114,63.434406 2114,68.28125 2114,72.399404 2112.6879,75.194772 2108.7812,79.4375 2105.3603,83.152825 2106.9667,84.33924 2110.6875,80.84375 2111.9583,79.649915 2113.227,78.883301 2113.5,79.15625 2113.7729,79.4292 2114.0953,81.974443 2114.2188,84.8125 2114.4269,89.597184 2114.1346,90.277817 2110.5,94 2107.0052,97.578976 2106.8173,98 2108.75,98 2109.9422,98 2111.4113,97.1 2112,96 2113.4266,93.334317 2115.1618,93.478917 2118,96.5 2119.2917,97.875 2120.7334,99 2121.1875,99 2122.8542,99 2121.9316,96.284381 2119.5,94 2117.4403,92.064996 2117,90.700264 2117,86.3125 2117,81.373114 2118.0248,79.613095 2119.5,82 2120.5451,83.691037 2122,83.109085 2122,81 2122,79.9 2121.6338,79 2121.1875,79 2120.7412,79 2119.3912,78.090175 2118.1875,76.96875 2115.5606,74.521465 2114.9517,66 2117.4062,66 2118.1853,66 2119.0291,66.5625 2119.2812,67.25 2119.6447,68.241212 2120.044,68.240256 2121.125,67.21875 2122.2636,66.142751 2121.9548,65.491807 2119.25,63.375 2116.6964,61.376503 2116,60.109307 2116,57.34375 2116,53.96735 2116.1117,53.865623 2119,54.5 2120.65,54.862401 2122,54.929967 2122,54.65625 2122,53.005516 2120.597,51 2119.4375,51 2117.59,51 2116,47.787104 2116,44.03125 2116,41.275333 2116.2184,41.048741 2117.9375,41.96875 2121.8619,44.069056 2122.1211,42.501024 2118.5,38.59375 2115.6727,35.542996 2115.5914,35.193128 2117.0312,31.40625 2118.364,27.901058 2120.7913,26.071327 2124.1875,26.03125 2125.3991,26.016952 2126.6125,26.711442 2128,27.9375 L 2128,23.875 z"/>
</svg>
