<svg xmlns="http://www.w3.org/2000/svg"
     width="64.0" height="56.2"
     viewBox="2824.3437 12.0983 106.8884 93.8621">
  <path d="M 2840.2376,99.453898 C 2832.1863,93.814518 2828.3437,72.033903 2833.0082,58.476269 2835.2204,52.046389 2837.4677,48.97436 2839.905,49.048555 2840.7822,49.07526 2843.5051,51.55026 2845.9557,54.548555 2848.4063,57.54685 2851.1306,60 2852.0095,60 2852.8885,60 2855.1342,58.425 2857,56.5 2860.9161,52.459587 2864.0474,52.051159 2868.5,55 2873.3058,58.182771 2874.0142,57.689181 2873.8817,51.25 2873.8166,48.0875 2873.4757,44.155704 2873.1241,42.512676 2872.538,39.774039 2872.0309,39.460043 2867.0335,38.740845 2859.0464,37.591383 2857,35.921786 2857,30.554686 2857,24.599661 2862.0748,17.647851 2866.7567,17.189285 2869.4497,16.925521 2870.6568,17.641488 2874.7447,21.927457 L 2879.5604,26.976344 2884.2409,24.484722 C 2886.8151,23.11433 2890.5768,20.869652 2892.6002,19.49655 2897.6078,16.09834 2901.194,16.253446 2904.3505,20.004754 2907.9815,24.319864 2908.7769,31.014718 2906.355,36.876726 2904.8255,40.578876 2903.9026,41.563043 2901.7225,41.816422 2899.108,42.120288 2899,41.950384 2899,37.535038 2899,34.518476 2898.5189,32.752632 2897.6012,32.400472 2895.714,31.676261 2886.4132,36.480939 2885.5999,38.600194 2885.2426,39.53133 2885.2503,44.267759 2885.617,49.125591 L 2886.2838,57.958014 2889.6767,54.979007 C 2891.5428,53.340553 2893.7513,52 2894.5845,52 2896.7711,52 2901.2,54.458507 2903.4073,56.897621 2905.92,59.674029 2909.165,59.55222 2914,56.5 2918.9982,53.34478 2920.3551,53.364629 2922.924,56.630547 2926.1099,60.680742 2927.2321,66.46779 2926.6133,75.656692 2925.8605,86.836726 2920.4804,98 2915.845,98 2914.8303,98 2914.0058,97.8875 2914.0129,97.75 2914.02,97.6125 2914.9208,94.644731 2916.0148,91.154957 2918.557,83.044958 2919.5391,72.386388 2918.0876,68.66043 L 2916.9814,65.820861 2912.5626,68.41043 C 2907.0305,71.652501 2905.55,71.651636 2902.7434,68.404689 2901.5095,66.977267 2899.2584,65.16361 2897.741,64.374338 2893.9562,62.405787 2891.3787,63.950823 2888.9343,69.653244 2886.5986,75.102182 2886.4523,81.04011 2888.5535,85.103424 2890.9516,89.74092 2891.5643,97.286781 2889.6703,98.858644 2888.3396,99.963042 2887.3886,99.378816 2883.1244,94.837479 L 2878.1354,89.524186 2875.624,91.883478 C 2874.2428,93.181088 2872.3912,95.763146 2871.5094,97.621385 2869.6904,101.45462 2867.5844,101.96048 2865.9738,98.951031 2864.5345,96.261595 2866.1238,91.377584 2870.0433,86.445549 2873.1897,82.486341 2873.2181,81.206126 2870.3309,73.5 2868.5371,68.712235 2866.2754,66 2864.0767,66 2863.1893,66 2860.2851,67.8 2857.6228,70 2851.5491,75.01898 2848.9443,75.104599 2845.3583,70.403125 2842.8158,67.069747 2842.5191,66.937234 2841.3074,68.594255 2839.3465,71.276042 2839.7557,76.351743 2842.8877,88.192042 2844.8765,95.710564 2845.4019,99.198098 2844.658,99.942042 2843.2684,101.33161 2842.853,101.28574 2840.2376,99.453898 z M 2840.4565,87.219328 C 2838.5448,78.692826 2838.4207,70.960989 2840.1278,66.75 2841.6106,63.092303 2843.216,63.283281 2846.4322,67.5 2849.811,71.929843 2852.1072,71.920062 2857.3252,67.453597 2860.6495,64.608155 2862.1633,63.96578 2864.9842,64.203597 2868.1257,64.468446 2868.7973,65.076994 2871.2924,69.919932 2872.8283,72.900895 2874.3422,77.217161 2874.6566,79.511634 2875.1629,83.205437 2874.8144,84.225887 2871.6142,88.418298 2868.1267,92.98718 2867.0422,96 2868.885,96 2869.3717,96 2870.5268,94.844911 2871.4519,93.433136 2873.9068,89.686342 2876.8019,87 2878.3849,87 2879.1466,87 2881.6216,88.907873 2883.8849,91.239717 L 2888,95.479435 2888,92.474908 C 2888,90.822419 2887.1,87.791177 2886,85.738815 2884.9,83.686454 2884,80.869376 2884,79.478642 2884,75.160797 2887.8513,65.610797 2890.5446,63.25 2894.167,60.074845 2897.3604,60.427357 2901.8683,64.5 2906.346,68.545323 2908.084,68.788411 2912.0974,65.930675 2919.2782,60.81746 2922.2214,66.592372 2920.1863,81.802313 2919.5556,86.516141 2919.2498,90.583098 2919.5067,90.839995 2920.3848,91.718177 2923.292,83.507302 2923.7685,78.802822 2924.4899,71.681273 2923.0966,61.340835 2921.0801,58.85054 L 2919.3162,56.672295 2913.7864,59.836147 C 2910.745,61.576266 2907.8076,63 2907.2589,63 2906.7102,63 2904.0006,61.2 2901.2375,59 2898.4744,56.8 2895.319,55 2894.2255,55 2893.1285,55 2891.0408,56.568783 2889.5678,58.5 2884.6104,64.999457 2883.5091,63.500949 2882.5857,49 2881.9049,38.308826 2882.7922,36.438023 2890.517,32.278116 2898.5589,27.947476 2899.679,28.051169 2901.0153,33.25 2901.6161,35.5875 2902.235,37.95 2902.3905,38.5 2902.546,39.05 2903.2478,37.763789 2903.9499,35.641754 2906.152,28.986588 2903.2835,20 2898.9571,20 2897.8588,20 2895.1781,21.125 2893,22.5 2890.8219,23.875 2888.7744,25 2888.45,25 2888.1257,25 2885.8512,26.382317 2883.3956,28.071815 2880.94,29.761313 2878.5475,30.998813 2878.0789,30.821815 2877.6103,30.644817 2875.7133,28.517583 2873.8634,26.094629 2869.3017,20.119769 2867.751,19.260138 2864.5879,20.952934 2861.7964,22.446921 2858.3854,29.955939 2859.3529,32.477302 2860.1668,34.598162 2864.2405,36 2869.5899,36 2874.8364,36 2875.5506,37.157092 2876.5948,47.348854 2877.3245,54.471074 2875.7738,61 2873.3526,61 2872.5319,61 2869.863,59.62578 2867.4218,57.946177 2862.8873,54.82636 2861.5908,54.865466 2859.1893,58.194505 2857.365,60.723338 2852.2412,63.211315 2850.1949,62.561867 2849.2571,62.264217 2846.5354,59.518266 2844.1467,56.459754 2841.7579,53.401243 2839.2854,51.071526 2838.6522,51.282607 2838.0189,51.493687 2836.6191,53.878952 2835.5414,56.583195 2832.6001,63.964027 2832.7716,81.592061 2835.8516,88.463464 2838.364,94.06853 2841.2532,97.740399 2841.818,96.046055 2842.021,95.436986 2841.4083,91.464959 2840.4565,87.219328 z"/>
</svg>
