<svg xmlns="http://www.w3.org/2000/svg"
     width="61.0" height="64.0"
     viewBox="424.9484 11.3725 89.0437 93.4356">
  <path d="M 440.02931,99.25 C 440.07743,98.018972 445.88588,92 447.02574,92 447.60541,92 449.90524,92.931334 452.13649,94.069631 460.48189,98.327136 465.79554,95.993567 466.73503,87.658467 467.01806,85.147413 466.95277,82.319294 466.58993,81.373758 466.00903,79.859953 465.73228,79.943991 464.27308,82.077301 462.01579,85.377379 460.99194,85.967476 457.5,85.980949 449.97453,86.009984 444.36921,78.97384 445.3462,70.724728 446.43822,61.504296 451.37709,56.511352 459.25,56.668689 463.46981,56.75302 463.67514,56.408903 461.36931,53.116873 458.98871,49.718092 453.53201,47.644911 450.80633,49.10365 449.03504,50.051616 448.42523,49.934435 447.32917,48.435482 444.16721,44.111253 447.07964,33.650913 452.11027,31.263552 454.22956,30.25781 455.64787,30.300196 459.65066,31.488897 464.57212,32.950414 467.1502,35.133775 472.35846,42.251051 473.86817,44.31413 476.43012,46.688186 478.05169,47.526732 480.74785,48.920967 480.99913,49.498168 480.98988,54.27568 480.98431,57.149056 481.96798,62.313788 483.17582,65.752863 L 485.37188,72.005726 482.9599,75.252863 C 479.23598,80.266192 479.91046,93 483.89992,93 484.26019,93 485.81945,90.097436 487.36494,86.549857 488.91043,83.002278 490.80472,79.577028 491.57448,78.93819 494.28923,76.685142 497.78338,78.781625 501.27624,84.759235 503.1212,87.916656 505.0513,90.409959 505.56536,90.299909 508.67185,89.634862 508.33423,70.869273 505.14491,66.930625 L 503.42725,64.809407 499.46362,66.812437 C 492.72411,70.218271 491.27067,70.367455 489.86105,67.798058 489.16763,66.534126 488.55524,61.84524 488.50017,57.378311 488.40011,49.262138 488.39685,49.252629 483.70976,43.378311 481.13011,40.14524 477.71873,35.665428 476.12892,33.423174 472.04103,27.657668 465.14998,23.367477 458.75309,22.605433 451.46245,21.736919 448.8921,22.430882 442.07692,27.107811 434.41662,32.364699 432.45984,36.626324 433.9658,44.772811 434.53231,47.837329 435.71702,51.445358 436.59849,52.790652 438.08868,55.064979 438.06647,55.421337 436.28202,57.868321 433.44651,61.756611 431.68283,69.163202 432.47538,73.854295 432.85094,76.077223 434.52421,79.958253 436.19376,82.478805 L 439.22929,87.061628 436.49426,91.00828 C 434.98999,93.178938 433.12753,95.479197 432.35545,96.119966 429.76658,98.268534 429.7972,96.192343 432.4111,92.345635 435.55143,87.724226 435.55062,87.748778 432.75,82.065724 429.83658,76.153778 429.67419,66.266531 432.39154,60.240525 434.18534,56.262593 434.19764,55.765081 432.63948,50.211871 428.94844,37.057089 431.77646,30.037975 443.76333,22.602599 455.41931,15.372468 471.3953,19.924148 479.78653,32.865879 481.79572,35.964646 485.1407,40.587451 487.2198,43.13878 490.94398,47.708819 491,47.905634 491,56.420165 491,66.633771 491.82494,67.455259 498.7183,64.106204 502.85199,62.097902 503.41759,62.043595 505.56257,63.449039 508.67306,65.487109 509.98846,70.700736 509.99069,81 509.99214,87.715816 509.57659,90.182188 508.01096,92.75 505.46121,96.9319 503.44363,96.874237 502.02606,92.57895 501.40508,90.697373 499.54349,87.289424 497.88919,85.00573 495.28254,81.407358 494.668,81.030046 493.28155,82.17678 491.37779,83.751387 487.02366,92.786386 487.00977,95.190983 486.99061,98.508213 484.68352,98.322353 481.39965,94.739029 476.72394,89.636943 476.14878,85.214493 479.19513,77.788264 481.54821,72.052069 481.59052,71.573697 480.18059,66.647358 479.37034,63.816311 478.49842,59.267701 478.24298,56.539336 477.84003,52.235301 477.16447,50.977814 473.13928,47.039336 470.58768,44.542701 467.29321,40.875033 465.81825,38.888962 462.90946,34.97221 457.02504,32.706745 453.32015,34.077272 450.84301,34.993627 448.7856,40.297598 449.61911,43.618534 450.1244,45.63177 450.83674,46 454.22606,46 457.53822,46 458.89903,46.663734 462.05279,49.817495 468.69661,56.461313 468.47315,62.657685 461.67835,60.200652 456.84081,58.451374 455.37179,58.687461 452.0378,61.75 448.09266,65.373917 446.66235,71.592719 448.77209,75.948853 451.6436,81.877878 458.14715,84.93748 460.87973,81.644913 461.49828,80.899615 462.60239,78.562443 463.33332,76.451198 465.1478,71.210201 466.40734,71.159619 468.35125,76.249682 471.26055,83.867575 469.98852,91.720692 465.08422,96.41931 462.64077,98.760288 461.52185,99.145837 458.32789,98.747358 456.22255,98.484695 453.05285,97.666224 451.28411,96.928533 448.34169,95.701332 447.86851,95.774896 445.71966,97.793639 443.46302,99.913648 439.96842,100.80804 440.02931,99.25 z"/>
</svg>
