<svg xmlns="http://www.w3.org/2000/svg"
     width="23.2" height="64.0"
     viewBox="2436.0110 16.2509 33.5415 92.4513">
  <path d="M 2450,53.6875 2450,58.21875 C 2450.0415,58.206702 2450.4507,58 2450.4688,58 2450.7576,58 2451,59.35 2451,61 2451,62.591815 2450.6283,63.308445 2450,63.65625 L 2450,66.9375 2451,66.75 2451,78.875 C 2451,85.619932 2450.5761,91 2450.0625,91 2449.5547,91 2447.8216,89.875 2446.1875,88.5 2444.5534,87.125 2442.7018,86 2442.0938,86 2440.011,86 2440.4314,90.833793 2443.0312,96.78125 2444.4816,100.09891 2445.8906,101.47717 2449.2188,102.96875 2452.8544,104.59817 2453.8063,104.70218 2455.5,103.59375 2459.517,100.96485 2465.5525,87.514017 2463.9062,84.875 2463.2989,83.901439 2462.6314,83.797518 2461.6562,84.5 2456.2243,88.412939 2454.874,89.217784 2454.4062,88.75 2454.1145,88.458238 2453.5082,77.013991 2453.0625,63.34375 2452.1703,35.975845 2452.3196,35.141904 2458.3438,32.1875 2459.8068,31.469989 2461,30.457489 2461,29.9375 2461,28.329501 2457.9502,28.900539 2455.2812,31 2451.7546,33.774029 2449.7493,33.51948 2446.125,29.8125 2443.8325,27.467642 2442.6912,26.902485 2441.875,27.71875 2441.0587,28.535016 2442.1193,30.142315 2445.875,33.78125 L 2451,38.75 2451,45.625 C 2450.9916,49.406008 2450.6541,52.968153 2450.25,53.53125 2450.2354,53.551547 2450.0215,53.663712 2450,53.6875 z M 2460.5625,89.25 C 2461.5931,90.28061 2457.2861,98.766391 2455.1562,99.90625 2452.1266,101.52766 2451.1418,101.26685 2447.9375,98.0625 2444.4978,94.622778 2444.0178,91.938881 2447,92.71875 2448.1,93.006406 2449,93.639148 2449,94.125 2449,95.722457 2450.8893,95.040447 2455.4688,91.8125 2457.9515,90.0625 2460.2332,88.920709 2460.5625,89.25 z M 2459.0312,20.53125 C 2458.3757,20.250902 2456.9788,20.651398 2455.3438,21.9375 2452.0614,24.519385 2450.5408,24.512292 2446.9688,21.96875 2445.2193,20.723097 2443.8884,20.340336 2443.5,20.96875 2442.6161,22.398924 2443.7036,23.842871 2447.3438,26.0625 2449.0712,27.115865 2450.6476,27.997944 2450.8125,28 2451.8943,28.013495 2456.807,24.851093 2458.3125,23.1875 2459.6078,21.756149 2459.6868,20.811598 2459.0312,20.53125 z"/>
</svg>
