<svg xmlns="http://www.w3.org/2000/svg"
     width="54.9" height="64.0"
     viewBox="2466.0104 11.2504 82.6458 96.3818">
  <path d="M 2544.5,50.375 C 2543.9008,52.228893 2542.8378,53.234463 2540.125,55.28125 2532.9555,60.690623 2532.0015,60.698204 2527.6562,55.5 2525.5873,53.024923 2523.1682,51 2522.2812,51 2521.3943,51 2518.5159,52.399087 2515.875,54.09375 2513.234,55.788414 2510.5763,56.844234 2509.9688,56.46875 2509.2227,56.007632 2509.083,53.646884 2509.5625,49.15625 2510.1562,43.596582 2510.8673,41.785086 2513.8125,38.1875 2515.7495,35.821312 2518.146,33.446913 2519.1562,32.90625 2521.9671,31.401892 2524.8216,33.477816 2525.5938,37.59375 2526.4782,42.308331 2528.6995,43.062398 2531.6562,39.625 2535.8175,34.78726 2534.0543,22.614951 2528.5312,18.03125 2525.1805,15.250398 2521.1598,16.409978 2511,23.125 2502.4578,28.770898 2501.8451,28.782639 2496.5,23.4375 2492.5983,19.535805 2491.4463,18.909366 2489.1875,19.4375 2487.7111,19.782697 2485.198,21.48066 2483.625,23.1875 2480.9983,26.037534 2480.8196,26.762093 2481.2188,32.28125 2481.5561,36.945583 2482.1302,38.70621 2483.8438,40.09375 2485.889,41.749813 2486.4319,41.768694 2491.125,40.375 2493.9114,39.547512 2496.4122,39.068402 2496.6562,39.3125 2496.9004,39.556598 2496.9422,43.41255 2496.7812,47.875 L 2496.5,55.96875 2494,54.71875 C 2492.625,54.033322 2489.765,52.892305 2487.6562,52.15625 2484.1092,50.918194 2483.6581,50.970779 2481.5312,52.96875 2475.8828,58.275314 2470.0731,75.010642 2470.0312,86.0625 2470.0104,91.56765 2472.5637,99.627215 2474.5938,100.40625 2476.1899,101.01871 2477.9903,97.464061 2478,93.6875 2478.0153,87.684333 2486.2312,68 2488.7188,68 2489.4888,68 2491.6283,71.361394 2493.5,75.46875 L 2496.9062,82.9375 2493.5938,87.84375 C 2489.9883,93.201339 2488.4113,99.584995 2490.1562,101.6875 2491.7703,103.63223 2492.1381,103.44429 2497.5312,97.96875 L 2502.4688,92.9375 2506.25,97.03125 C 2511.0037,102.17947 2513.3769,102.02655 2513.8438,96.5 2514.0291,94.304575 2513.6274,90.243256 2512.9688,87.46875 2511.8228,82.641785 2511.9243,82.122204 2515.0312,75.75 2516.817,72.087302 2519.3251,68.096168 2520.625,66.875 L 2523,64.65625 2525.25,66.71875 C 2529.1647,70.301774 2531.3766,70.328014 2538.0312,66.96875 2540.833,65.554427 2543.049,64.792518 2544.0625,64.6875 L 2544.6562,63.34375 2544.6562,58.4375 C 2543.8055,59.937631 2539.2811,63.367474 2535.25,65.40625 2532.2946,66.901011 2531.7281,66.910759 2529,65.5 2527.35,64.646752 2526,63.570782 2526,63.09375 2526,62.616718 2525.3254,61.941722 2524.5,61.625 2521.9749,60.65602 2516.7475,66.318311 2512.125,75 L 2507.75,83.21875 2509.5625,88.5625 C 2511.707,94.871322 2510.9929,96.357701 2507.5625,92.65625 2504.2781,89.112301 2502.0633,89.307772 2498,93.5 2494.5308,97.079352 2493,97.827844 2493,95.9375 2493,94.116158 2495.1257,90.645605 2498.2188,87.375 L 2501.1875,84.21875 2497.9375,76.875 C 2492.683,64.894581 2490.8012,62.510982 2487.8438,64.09375 2485.9991,65.081004 2479.3335,78.038639 2476.375,86.375 2474.7874,90.848456 2474.5737,91.048187 2473.7812,88.90625 2471.0356,81.484155 2478.6276,57.221967 2484.25,55.4375 2485.2044,55.134579 2488.6382,56.064596 2491.9062,57.53125 2495.1745,58.997904 2498.3475,59.895878 2498.9375,59.53125 2499.5941,59.125429 2500,54.684911 2500,48.0625 2500,35.204891 2499.3056,34.008957 2493.3438,36.5 2488.1815,38.656905 2485.4126,37.812923 2484.625,33.875 2483.4995,28.247568 2483.9197,26.087221 2486.4375,24.4375 2489.3262,22.544793 2490.8802,23.21053 2495.875,28.4375 2497.7398,30.388913 2499.7648,32.005373 2500.375,32 2501.9442,31.986185 2510.5126,27.571151 2517,23.4375 2520.025,21.510036 2523.3877,20.063455 2524.4688,20.21875 2527.5641,20.663387 2531,26.651717 2531,31.59375 2531,33.954955 2530.55,36.160081 2530,36.5 2529.45,36.839919 2529,36.665261 2529,36.125 2529,35.58474 2527.8302,33.754699 2526.4062,32.0625 2522.7422,27.708018 2519.8747,28.062777 2514.4375,33.5 2511.9625,35.975 2509.5705,38 2509.0938,38 2507.522,38 2507,41.05648 2507,50.46875 2507,62.276446 2507.7838,63.093993 2514.5312,58.46875 2517.2639,56.595563 2520.2233,55.050694 2521.0938,55.03125 2521.9642,55.011806 2524.1526,56.833809 2525.9688,59.09375 2528.9589,62.814491 2529.5873,63.164422 2532.7188,62.65625 2534.6207,62.347592 2537.6942,60.963782 2539.5312,59.5625 2542.2001,57.526895 2543.967,56.711705 2544.6562,57.1875 L 2544.6562,50.65625 2544.5,50.375 z"/>
</svg>
