<svg xmlns="http://www.w3.org/2000/svg"
     width="18.9" height="64.0"
     viewBox="879.7188 16.4949 25.2812 85.6613">
  <path d="M 900.1875,63.96875 900,63.34375 900.375,58.25 C 899.21529,56.983925 898.87627,55.71748 899.78125,54.8125 899.95274,54.641004 900.33736,54.701216 900.625,54.65625 L 901,49.5625 C 899.35167,47.121511 898.96793,42.924674 898.78125,33.96875 L 898.5,20.53125 892.65625,20.5 C 889.44133,20.494907 886.31065,20.802432 885.6875,21.1875 884.90714,21.669712 884.7018,25.249054 885.03125,32.6875 885.69248,47.6175 885.53987,63.667013 884.5625,82.3125 L 883.71875,98.15625 891.125,97.4375 C 895.18814,97.050139 898.56666,96.690896 898.65625,96.625 898.74584,96.559104 898.93443,89.975 899.0625,82 899.19056,74.025 899.49952,66.502883 899.75,65.28125 899.88222,64.636392 900.01087,64.247895 900.1875,63.96875 z M 887.5,24 891.6875,24 C 895.85045,23.999497 895.87655,24.026152 896.5,28.25 897.2171,33.108418 896.76032,92.601506 896,93.3125 895.725,93.56966 893.63795,94.06392 891.375,94.4375 L 887.28125,95.125 887.375,59.5625 887.5,24 z"/>
</svg>
