<svg xmlns="http://www.w3.org/2000/svg"
     width="64.0" height="63.5"
     viewBox="2646.0000 12.5849 96.4153 95.6004">
  <path d="M 2728.5765,89.123799 C 2727.9037,88.035244 2732.8473,83.782421 2734.2441,84.248043 2735.9498,84.816613 2735.179,86.284142 2732.1759,88.185589 2730.4271,89.292845 2728.9232,89.684833 2728.5765,89.123799 z M 2718.0442,33.883508 C 2716.0218,30.607506 2715.9085,26.876628 2717.645,20.735479 2718.6197,17.288528 2719.9402,20.157253 2719.3525,24.444941 2718.936,27.483407 2719.2511,29.796907 2720.393,32.086002 2722.7236,36.757773 2720.7507,38.267612 2718.0442,33.883508 z M 2698.369,89.940815 C 2696.0176,89.070964 2689.2204,78.351989 2688.3912,74.206145 2687.6683,70.591734 2690.0583,66.538329 2694.1642,64.415081 2696.9134,62.993418 2697.2219,63.077848 2701.6595,66.466193 2704.205,68.409787 2706.6943,70 2707.1914,70 2707.6885,70 2710.221,67.8625 2712.8191,65.25 2716.104,61.947016 2718.5697,58.06292 2720.9134,52.5 2724.0886,44.963139 2725.2489,43.430796 2731.5143,38.5 2734.3422,36.274434 2735.6908,32 2733.565,32 2732.839,32 2731.6847,32.675 2731,33.5 2728.9596,35.95855 2726.991,35.222812 2725.3961,31.405552 2723.6366,27.194394 2723.9022,19.852195 2725.8372,19.215336 2726.7705,18.908122 2727.116,19.639544 2726.9812,21.637615 2726.6809,26.088778 2726.9501,28.372614 2727.964,29.975994 2728.7606,31.235719 2729.3385,31.125825 2731.9082,29.225994 2733.5641,28.001697 2735.3569,27 2735.8921,27 2738.4153,27 2738.2394,35.626114 2735.6444,39.146592 2734.9769,40.052218 2732.8308,41.461691 2730.8753,42.278754 2727.7523,43.583598 2726.9177,44.76191 2724.0143,51.964515 2721.5158,58.162641 2719.334,61.609494 2715.0778,66.082354 2708.5224,72.971324 2706.4127,73.391612 2700.5719,68.97218 2695.9931,65.507697 2694.8986,65.349616 2692.655,67.828741 2690.707,69.981269 2690.5198,74.6494 2692.2647,77.561505 2697.3672,86.076888 2698.2304,87 2701.0911,87 2703.066,87 2704.86,86.01677 2706.7423,83.902675 2710.7952,79.350632 2712.5033,78.691799 2715.8138,80.403713 2717.3713,81.209141 2719.2305,82.572798 2719.9453,83.434063 2721.8206,85.693683 2724.4113,85.366253 2727.9028,82.428331 2731.2523,79.609935 2733.6529,79.911536 2732.0285,82.946667 2730.9104,85.035922 2724.6113,89 2722.4095,89 2721.5976,89 2719.3583,87.425 2717.4333,85.5 2715.5083,83.575 2713.5911,82 2713.1727,82 2712.7544,82 2710.7588,83.744795 2708.738,85.877321 2704.9177,89.90887 2701.6959,91.171481 2698.369,89.940815 z M 2667.4016,100.37201 C 2666.5226,98.242402 2664.7226,95.067525 2663.4017,93.316722 2660.5873,89.586437 2660.3433,86.785797 2662.6661,84.872445 2665.9454,82.171203 2672,73.785541 2672,71.944999 2672,69.582104 2666.3755,63.093255 2663.3206,61.931777 2660.1176,60.71401 2658.569,61.541723 2655.569,66.075055 2651.8308,71.723907 2650,71.283172 2650,64.734398 2650,58.372993 2652.4195,53.376216 2657.0201,50.236097 2660.9264,47.569903 2662.5391,47.898045 2668.7214,52.617102 2671.1682,54.484794 2673.5176,55.798146 2673.9423,55.53566 2674.9935,54.885969 2675.9517,46.114567 2675.3247,42.880855 2674.9344,40.867925 2673.9012,39.98736 2670.8606,39.076385 2662.9305,36.700458 2660.9458,28.278244 2667.0133,22.75 2671.5737,18.59496 2675.3472,19.0056 2678.5,24 2679.8888,26.2 2681.3291,28 2681.7007,28 2683.2083,28 2689.0012,23.36626 2690.1298,21.257535 2692.6305,16.584942 2695,19.06712 2695,26.359281 2695,30.735375 2693.1885,34.211036 2689.2859,37.32258 2687.2297,38.962015 2687,39.992003 2687,47.57258 2687,56.879938 2687.494,57.444984 2692.1824,53.5 2693.8165,52.125 2695.875,51 2696.7568,51 2697.6387,51 2700.3471,53.13358 2702.7755,55.741288 L 2707.1908,60.482576 2709.0196,58.224145 C 2710.0254,56.982007 2711.8219,53.040228 2713.0118,49.464636 L 2715.1752,42.963558 2712.1552,39.523976 C 2707.738,34.493118 2706.7989,25.558133 2710.2357,21.26101 2712.0618,18.977725 2713.0104,21.079247 2711.485,24.028923 2709.4334,27.996373 2710.9006,34.260627 2714.8442,38.370703 L 2717.8467,41.5 2715.5772,48.5 C 2712.6784,57.44146 2709.3579,63 2706.9154,63 2705.8242,63 2703.9209,61.326435 2702.4024,59.031914 2699.0801,54.011523 2697.1155,53.409274 2692.652,56.042841 2690.688,57.201627 2688.0503,58.003536 2686.7905,57.824862 2684.6091,57.515475 2684.4865,57.044826 2684.2161,47.944579 L 2683.9323,38.389158 2687.9661,35.147456 C 2691.2705,32.491974 2692,31.28254 2692,28.459482 L 2692,25.01321 2687.4234,28.506605 C 2681.5836,32.964232 2679.7215,32.918894 2676.8843,28.25 2673.3095,22.367129 2671.3498,21.650239 2668,25 2663.4669,29.533053 2667.669,37.916191 2673.8542,36.679151 2676.4216,36.165685 2676.9528,36.471785 2678.037,39.089425 2679.2434,42.001823 2678.8341,53.66271 2677.3938,57.416082 2676.4035,59.996824 2672.3345,59.236999 2667.1329,55.5 2664.4534,53.575 2661.3199,52 2660.1695,52 2656.1746,52 2651.4043,59.863694 2652.1782,65.173354 2652.4624,67.12341 2652.8168,66.901047 2655.2115,63.270311 2656.7028,61.009205 2658.8178,58.8752 2659.9115,58.528079 2663.716,57.32059 2671.721,63.451208 2673.9116,69.25 2675.3601,73.084297 2673.9405,76.230451 2667.99,82.373745 2665.2591,85.193185 2663.0191,87.992756 2663.0123,88.595012 2663.0055,89.197269 2663.9461,90.546207 2665.1024,91.592652 2666.2587,92.639097 2667.8529,94.748554 2668.645,96.280336 2670.7074,100.26865 2671.7901,98.871239 2671.2216,92.954775 2670.7474,88.019158 2670.8753,87.702809 2675.0738,83.424847 2681.0448,77.3408 2683.8352,77.412096 2687.7996,83.75 2695.886,96.677712 2700.9717,98.785288 2708.8907,92.490294 2711.3056,90.570632 2713.8313,89 2714.5032,89 2715.1752,89 2717.4237,90.35 2719.5,92 2724.2687,95.789685 2726.6056,95.773757 2731.2813,91.919699 2733.3366,90.225533 2735.4497,88.988033 2735.977,89.169699 2738.3605,89.990737 2728.7476,98 2725.3787,98 2723.9752,98 2720.8891,96.608354 2718.5207,94.907453 2713.7654,91.492506 2712.5042,91.673726 2708.0757,96.408178 2706.2302,98.381213 2704.673,99 2701.5535,99 2696.5612,99 2692.3313,95.809111 2686.5,87.643996 2684.3,84.56352 2681.825,82.049609 2681,82.057528 2680.175,82.065447 2678.15,83.177086 2676.5,84.527837 2673.6775,86.838446 2673.5,87.405019 2673.5,94.10413 2673.5,100.37429 2673.2313,101.40479 2671.25,102.73426 2669.0873,104.18539 2668.9378,104.09366 2667.4016,100.37201 z"/>
</svg>
