<svg xmlns="http://www.w3.org/2000/svg"
     width="30.7" height="64.0"
     viewBox="1770.1662 16.8518 45.4581 94.7384">
  <path d="M 1788.3089,102.29523 C 1780.9237,98.140517 1778.4671,91.865305 1776.4579,72.022918 1774.1662,49.389962 1776.0185,32.670843 1781.6399,25.25 1784.5543,21.402632 1788.0278,20.851771 1787.9455,24.25 1787.9155,25.4875 1787.2954,30.325 1786.5676,35 1784.8877,45.789783 1785.296,63.315747 1787.4523,72.976511 1789.2255,80.920711 1791.6687,87 1793.0883,87 1795.1933,87 1799.2253,74.998668 1800.4794,65 1801.4433,57.314384 1801.1413,38.742916 1799.928,31.094096 1798.7296,23.539537 1799.9257,21.012402 1802.9493,24.71054 1808.1116,31.024407 1811.6243,60.207981 1809.3034,77.5 1806.6858,97.002203 1797.7209,107.59015 1788.3089,102.29523 z M 1797.5219,99.216731 C 1801.0489,96.222084 1803.7557,91.639143 1805.6364,85.477905 1808.9509,74.619659 1807.9042,44.390935 1803.9058,35.5 1803.3306,34.221113 1803.1767,36.829411 1803.4788,42.734092 1804.3029,58.839092 1799.7087,85.507067 1795.5098,88.991857 1787.2186,95.872968 1780.8731,68.610862 1783.4083,37 L 1784.09,28.5 1782.1137,30.775921 C 1779.4019,33.898921 1778.477,41.645196 1778.6247,60 1778.8127,83.384692 1781.8791,94.516026 1789.3952,99.099278 1793.1955,101.41664 1794.9019,101.4413 1797.5219,99.216731 z"/>
</svg>
