<svg xmlns="http://www.w3.org/2000/svg"
     width="37.7" height="64.0"
     viewBox="2238.2279 18.0000 53.7247 91.1539">
  <path d="M 2257.3728,100.42212 C 2254.9401,97.232685 2254.2832,96.911898 2251.3219,97.467432 2247.3463,98.213265 2246.814,96.497499 2250.5,94.818046 2252.6076,93.857758 2253,92.997849 2253,89.339485 2253,84.565812 2251.9292,83.960439 2248.1578,86.601999 2246.8999,87.483098 2245.5623,87.894816 2245.1853,87.516927 2244.3131,86.642469 2249.6442,82 2251.5206,82 2253.4082,82 2255,78.827691 2255,75.065741 2255,71.480414 2253.172,71.047484 2250.5,74 2248.0334,76.725572 2245.5541,76.51163 2244.1605,73.452947 2242.2279,69.211322 2242.8162,67.671914 2247.9644,63.5 2251.6273,60.531772 2252.9133,58.800333 2252.9502,56.787513 2253.0143,53.296598 2249.5047,43.911329 2246.8942,40.59265 2245.7295,39.1119 2245.19,37.484487 2245.6237,36.759656 2248.3484,32.20536 2257.5114,22 2258.8758,22 2259.7836,22 2262.4593,24.475 2264.8219,27.5 2267.1845,30.525 2269.474,33 2269.9098,33 2270.3456,33 2272.7747,30.75 2275.3079,28 2277.8411,25.25 2280.5384,23 2281.3018,23 2283.5377,23 2285.7644,26.160226 2287.004,31.092756 2287.9526,34.867124 2287.8859,36.337201 2286.6301,39.342756 2285.7897,41.35424 2284.5237,43 2283.8169,43 2283.11,43 2280.1789,41.768157 2277.3033,40.262571 2271.1215,37.025982 2270.5843,37.336419 2268.4964,45.352347 2266.1269,54.449556 2266.4347,56.732342 2270.25,58.357701 2274.3372,60.098903 2277.4573,63.456917 2279.4751,68.286257 2280.8782,71.644223 2280.8831,72.107643 2279.5208,72.630378 2278.6821,72.952214 2276.1877,72.49204 2273.9777,71.607768 2271.7677,70.723495 2269.7436,70 2269.4798,70 2269.2159,70 2269,71.851985 2269,74.115523 2269,77.664818 2269.5847,78.77996 2273.25,82.220717 2277.3333,86.053944 2277.3922,86.192094 2274.75,85.743866 2272.178,85.307545 2272,85.507586 2272,88.833953 2272,91.336374 2272.8151,93.259691 2274.75,95.322818 L 2277.5,98.255073 2273.8841,97.607375 C 2270.5913,97.017562 2270.0282,97.274278 2267.5832,100.47984 2264.0181,105.15389 2260.9688,105.13665 2257.3728,100.42212 z M 2266.4111,97.923275 C 2269.2473,94.552604 2269.7522,90.02228 2267.9636,83.993398 2266.7167,79.790848 2265.0942,67.77592 2265.6439,66.81675 2265.8593,66.440963 2268.0769,66.829074 2270.572,67.67922 2273.067,68.529365 2275.3486,68.984702 2275.6423,68.691079 2276.6731,67.660263 2271.6834,62.111832 2268.6082,60.869366 2266.8987,60.178666 2265.1694,59.138 2264.7653,58.556774 2263.4514,56.666879 2263.9556,51.697072 2266.1745,44.666583 2267.5693,40.246894 2268.0175,37.340297 2267.4245,36.5594 2266.916,35.889864 2264.9509,33.240098 2263.0575,30.671031 2261.1641,28.101964 2259.1078,26 2258.4878,26 2257.3161,26 2255.0931,28.386095 2251.2468,33.772324 L 2248.9936,36.927638 2251.9757,42.795904 C 2253.6158,46.023451 2255.5072,51.044909 2256.1789,53.9547 L 2257.4001,59.245228 2253.9501,62.398037 C 2252.0525,64.132081 2249.4774,66.263832 2248.2276,67.135262 2246.7586,68.159507 2246.1777,69.299561 2246.5846,70.35984 2247.4395,72.587734 2248.2469,72.430499 2251,69.5 2254.0717,66.230342 2256.778,66.267135 2257.6119,69.589892 2257.9694,71.014332 2257.7576,76.614628 2257.1413,82.034993 2256.5249,87.455358 2256.307,92.702407 2256.6569,93.695101 2257.3829,95.754524 2262.0082,101 2263.0982,101 2263.4964,101 2264.9872,99.615474 2266.4111,97.923275 z M 2284.3151,37.621335 C 2284.873,36.167254 2283.7452,30.014708 2282.5729,28.117947 2281.3392,26.121853 2279.1559,26.929083 2276.5509,30.344391 2275.1479,32.183806 2274,33.99042 2274,34.359089 2274,35.401342 2280.3054,38.992081 2282.143,38.996262 2283.0467,38.998318 2284.0241,38.379601 2284.3151,37.621335 z"/>
</svg>
