<svg xmlns="http://www.w3.org/2000/svg"
     width="52.0" height="64.0"
     viewBox="1692.9323 19.0000 71.5342 88.0886">
  <path d="M 1717.5221,101.03582 C 1716.7612,99.804633 1718.3023,94.704439 1721.5597,87.673673 L 1723.8081,82.820755 1721.576,76.203723 C 1719.6085,70.370971 1718.9738,69.490784 1716.2212,68.777511 1714.5037,68.332461 1712.8247,67.525456 1712.4902,66.984165 1712.1557,66.442874 1710.7835,66 1709.441,66 1707.0942,66 1706.9999,66.260611 1706.9984,72.75 1706.9966,80.585005 1704.6947,86.329606 1701.3667,86.804253 1698.3895,87.228877 1696.9323,82.744644 1698.0694,76.657667 1700.1511,65.515255 1704.7852,61.827203 1713.4338,64.430051 L 1717.7049,65.71544 1718.3869,52.10772 C 1718.762,44.623474 1719.3199,37.102953 1719.6266,35.395451 1720.1446,32.512068 1719.8913,32.173682 1716.0719,30.645451 1708.637,27.670579 1707.9943,28.067545 1708.6176,35.25 1709.3346,43.512114 1707.3761,49.372263 1703.7525,49.807092 1700.6758,50.176291 1698,46.911411 1698,42.78822 1698,39.291418 1701.3529,30.372518 1703.6016,27.887787 1705.6998,25.569251 1711.3158,25.398363 1716.3458,27.5 1721.3607,29.595361 1722.3238,29.414655 1724.3409,26 1725.3156,24.35 1726.7831,23 1727.602,23 1729.1088,23 1732.2515,25.960233 1735.0062,29.974131 L 1736.5125,32.16889 1740.2246,29.218879 C 1742.2662,27.596372 1745.345,25.685524 1747.0663,24.972549 1750.0641,23.730791 1750.3075,23.816972 1752.8479,27.020163 1756.0359,31.039857 1757.8229,35.438069 1757.9183,39.5 1758.0331,44.384563 1756.067,49.893756 1753.7704,51.122865 1751.9399,52.102522 1751.306,51.894465 1749.4118,49.692402 1745.9979,45.723518 1745.4439,40.045632 1747.9235,34.440122 1749.0656,31.858225 1750,29.352967 1750,28.872882 1750,27.071997 1746.1839,28.10528 1741.5852,31.151391 L 1736.8274,34.302782 1737.5962,41.401391 C 1738.019,45.305626 1738.2877,53.7875 1738.1934,60.25 1738.0991,66.7125 1738.2902,72 1738.6181,72 1738.946,72 1742.268,70.329997 1746.0003,68.288882 1754.0715,63.874915 1754.8292,64.179096 1757.4673,72.892122 1760.4665,82.79762 1757.4511,90.529561 1751.6243,87.874697 1747.3697,85.936164 1745.9807,77.425806 1748.7437,70.225505 1749.2117,69.00585 1748.1222,69.31178 1744.4351,71.435308 1741.7208,72.998556 1738.7125,74.959867 1737.75,75.793777 1735.5538,77.696544 1735.5117,81.713964 1737.6432,85.986614 1738.547,87.798254 1739.3345,91.804891 1739.3932,94.890252 1739.4876,99.84721 1739.2585,100.53452 1737.4245,100.79668 1735.8927,101.01565 1734.5911,99.894255 1732.4554,96.51555 1730.8156,93.921294 1728.9267,92.060041 1728.0962,92.219999 1727.29,92.375242 1725.4468,94.526243 1724,97 1721.384,101.47294 1718.7908,103.08856 1717.5221,101.03582 z M 1704.0248,81.4349 C 1705.2421,78.233066 1705.2685,70.972634 1704.0697,69.078584 1702.829,67.118227 1700,73.983903 1700,78.955457 1700,84.539403 1702.3046,85.959166 1704.0248,81.4349 z M 1705.9648,46.065741 C 1706.5342,45.001899 1706.9939,42.189399 1706.9863,39.815741 1706.9558,30.155816 1704.1969,28.038929 1701.594,35.678139 1699.6755,41.308638 1699.6042,43.393367 1701.2405,46.013569 1702.8114,48.528901 1704.6358,48.549049 1705.9648,46.065741 z M 1734.9076,86.802795 C 1732.6827,82.0524 1732.6766,81.920027 1734.3295,74.228083 1736.186,65.588559 1736.502,50.636023 1735.0193,41.581869 1733.847,34.423621 1730.1552,26.62111 1727.7281,26.172453 1724.9793,25.664329 1722.3235,33.009869 1720.9509,44.917178 1719.5089,57.426494 1720.1239,64.529969 1723.4809,74.138511 1726.416,82.539284 1726.5423,84.242694 1724.4654,87.412489 1722.6441,90.192135 1720.8506,96.005259 1721.8198,95.987621 1722.1939,95.980813 1723.5166,94.405813 1724.7592,92.487621 1726.0017,90.56943 1727.4058,89 1727.8792,89 1728.3527,89 1730.4861,90.9125 1732.62,93.25 L 1736.5,97.5 1736.8281,94.551865 C 1737.0086,92.930391 1736.1444,89.44331 1734.9076,86.802795 z M 1753.9324,47.581469 C 1755.5527,45.629144 1755.6136,37.015132 1754.0282,34.052607 L 1752.7262,31.619897 1750.8631,33.920732 C 1748.8196,36.444366 1748.404,42.302174 1749.9752,46.4349 1751.0751,49.327603 1752.2102,49.656522 1753.9324,47.581469 z M 1755.9733,83.57027 C 1756.9894,80.8977 1756.323,75.056209 1754.5045,70.695716 1753.426,68.109617 1753.2247,68.02432 1751.9175,69.599411 1749.914,72.013493 1749.9767,83.74217 1752,85.021162 1754.2843,86.465177 1754.9675,86.215711 1755.9733,83.57027 z"/>
</svg>
