<svg xmlns="http://www.w3.org/2000/svg"
     width="44.4" height="64.0"
     viewBox="2323.4162 14.0000 64.4415 92.9886">
  <path d="M 2341.25,94.58234 C 2339.4625,89.980482 2338,85.301404 2338,84.184388 2338,82.130153 2342.013,76.589306 2345.2322,74.198715 2349.8635,70.759523 2349.081,63.981538 2343.7221,61.117124 2340.2538,59.263289 2338.3358,60.191805 2336.2814,64.719185 2333.1443,71.632499 2330.9721,74.221757 2329.4024,72.918997 2327.4162,71.270576 2327.6624,66.387886 2330.0952,59.184219 2333.1321,50.191235 2336.7008,48.305732 2344.5095,51.568404 2346.574,52.431027 2348.6445,52.755453 2349.1106,52.289351 2349.5768,51.82325 2349.6799,49.092468 2349.3398,46.220947 2348.7359,41.122331 2348.6452,41 2345.4665,41 2341.5047,41 2336,36.298313 2336,32.914515 2336,27.554867 2342.7884,18 2346.5963,18 2347.3259,18 2348.3778,19.689326 2348.9338,21.754058 2349.9362,25.476955 2352.9669,29 2355.167,29 2355.7963,29 2357.7037,27.963777 2359.4056,26.697282 2365.3645,22.26289 2370.3265,19.865026 2372.419,20.408548 2373.5636,20.705838 2375.5685,22.532562 2376.8744,24.467935 2378.8644,27.417169 2379.1744,28.883887 2378.7892,33.528588 2378.1129,41.684171 2376.6824,42.453358 2372.1148,37.117596 2368.6266,33.042748 2368.1956,32.824967 2365.9731,34.014417 2360.9984,36.676787 2359.8879,39.005577 2360.3501,45.80601 2360.5858,49.274315 2360.985,52.318291 2361.2371,52.5704 2361.4892,52.82251 2364.2262,51.870148 2367.3194,50.454042 2372.7588,47.963798 2373.0577,47.933532 2376.4257,49.531766 2381.3323,51.860103 2382.1116,53.138963 2382.7213,59.863468 2383.8577,72.395448 2380.5058,77.719244 2376.8168,69.241616 2373.792,62.290246 2372.3299,60.892571 2369.4538,62.203016 2366.4387,63.576771 2364.7505,68.213494 2366.0351,71.592341 2366.5615,72.976971 2368.5935,76.20692 2370.5506,78.770007 2373.1733,82.204962 2373.953,84.051153 2373.516,85.792148 2372.2415,90.870144 2366.6609,102 2365.3892,102 2362.6004,102 2360.8659,97.491848 2361.5808,92.102171 2362.1629,87.714393 2361.9245,86.51063 2359.8788,83.506746 2358.5705,81.585552 2357.0128,80.010591 2356.4174,80.006833 2355.8219,80.003075 2353.9358,81.740762 2352.226,83.868359 2349.3409,87.458506 2349.1592,88.142822 2349.7001,93.383321 2350.173,97.965622 2349.9443,99.404075 2348.4865,101.01496 2347.4984,102.10673 2346.1973,102.9886 2345.595,102.97468 2344.9928,102.96075 2343.0375,99.184198 2341.25,94.58234 z M 2368.0269,91.75 C 2370.728,85.799376 2370.4881,83.44137 2366.6414,78.133977 2362.3807,72.255264 2361.529,68.81157 2363.4277,65.139871 2366.9987,58.234338 2373.7967,57.40872 2376.7139,63.526255 2377.625,65.436815 2378.7371,67 2379.1852,67 2380.5269,67 2380.1062,59.189939 2378.5659,55.503473 2376.1841,49.80297 2373.0637,49.821177 2363.2934,55.592583 2361.2007,56.828749 2359.7688,57.141672 2359.1716,56.493378 2358.6682,55.94702 2357.9866,51.772055 2357.6568,47.215677 2357.1111,39.673996 2357.2416,38.777554 2359.1127,37.215677 2360.2431,36.272055 2362.3677,34.48805 2363.834,33.251221 2365.3003,32.014393 2366.9624,31.001893 2367.5275,31.001221 2368.7479,30.999771 2373.2062,33.949542 2374.1956,35.413075 2375.3283,37.088634 2376.4,35.183368 2376.4,31.494008 2376.4,27.974206 2372.897,23 2370.4182,23 2369.74,23 2365.7038,24.81197 2361.4489,27.026599 2354.543,30.62105 2353.4867,30.90814 2351.6064,29.701597 2350.4479,28.958216 2348.825,26.930986 2348,25.19664 2346.1713,21.352235 2344.64,21.20641 2341.5144,24.579015 2338.0043,28.366458 2337.3425,32.647458 2339.769,35.869841 2341.3787,38.007511 2342.5688,38.5 2346.1248,38.5 L 2350.5,38.5 2351.6536,44 C 2352.9467,50.165579 2353.2824,55.384277 2352.4399,56.226727 2351.9293,56.73741 2348.1787,55.314783 2343.7636,52.935679 2342.8085,52.421055 2340.6786,52 2339.0304,52 2336.4561,52 2335.6981,52.66962 2333.6532,56.75 2331.4505,61.145181 2329.3328,69 2330.3504,69 2330.593,69 2332.2444,66.735877 2334.0201,63.968615 2338.0836,57.636217 2339.7141,56.721118 2343.5892,58.597884 2347.4705,60.477671 2352.2197,67.69906 2351.3865,70.454162 2351.0462,71.579373 2348.8321,74.406433 2346.4663,76.736519 2340.9789,82.141021 2340.3475,85.164984 2343.4878,91 L 2345.9096,95.5 2345.9548,91.341668 C 2345.9919,87.925925 2346.8134,86.184785 2350.5549,81.591668 2353.0602,78.516251 2355.73,76 2356.488,76 2357.246,76 2359.5332,78.034482 2361.5708,80.521071 2365.0904,84.816349 2365.2472,85.315773 2364.71,90.521071 2364.0252,97.156243 2365.3501,97.647136 2368.0269,91.75 z"/>
</svg>
