<svg xmlns="http://www.w3.org/2000/svg"
     width="64.0" height="63.9"
     viewBox="531.5232 16.3684 86.7554 86.6316">
  <path d="M 551.01529,94.535679 C 549.9628,92.080303 548.56218,88.270712 547.9028,86.069922 546.73025,82.15628 546.7965,81.948513 550.92255,76.600385 554.68643,71.721701 555.01191,70.882622 553.94208,68.816142 550.71902,62.590487 547.58766,61.400618 545.87296,65.75 542.89501,73.303654 541.9081,75 540.49143,75 539.64392,75 538.51164,73.845705 537.97525,72.4349 535.5232,65.985535 538.23351,57.106106 543.88173,53.084215 547.6814,50.378613 549.16674,50.45648 551.81305,53.5 554.28988,56.348608 557.4888,56.774543 558.40838,54.378166 558.75067,53.486157 558.73668,49.886157 558.37727,46.378166 L 557.72381,40 554.11191,39.984687 C 552.12536,39.976265 550.00487,39.638765 549.3997,39.234687 547.3889,37.892038 545.88009,33.953153 546.55819,31.816652 547.45009,29.006535 554.89653,21 556.61817,21 557.36806,21 558.99825,22.56943 560.24081,24.487621 563.09004,28.886118 565.0114,28.887933 569.87195,24.496719 573.00682,21.664553 573.96255,21.249944 574.86092,22.33242 576.42544,24.217548 573.81282,33.861993 571.18065,35.918093 569.54801,37.193413 569.03898,39.098921 568.55415,45.75 568.19525,50.673602 568.33282,54 568.89535,54 569.41376,54 571.20543,53.215159 572.87683,52.255908 L 575.91573,50.511817 579.75003,54.255908 C 581.85889,56.315159 584.34527,58 585.27532,58 587.25905,58 592,49.28784 592,45.642448 592,44.309226 591.10988,41.256766 590.02196,38.859204 586.83047,31.82579 587.88857,21 591.7675,21 592.80323,21 592.97187,21.49694 592.36138,22.75 591.89246,23.7125 591.50681,27.491027 591.50439,31.146726 591.50101,36.259457 591.93496,38.273687 593.38468,39.874285 596.01409,42.77736 595.06985,48.574871 590.79374,55.78229 587.62758,61.118876 584.58668,63.318568 583.09905,61.348393 582.74672,60.881777 580.81279,58.980717 578.80143,57.123816 L 575.14441,53.747632 571.43185,56.042117 C 567.90627,58.221046 567.65368,58.246861 566.41634,56.554706 565.47386,55.265787 565.26327,52.383474 565.65515,46.136405 566.12418,38.659261 566.52176,37.202273 568.61706,35.28196 570.90175,33.18807 573.08027,27 571.53273,27 571.13823,27 569.67129,27.9 568.27287,29 564.67116,31.833109 561.75557,31.513233 559.15812,28 556.35596,24.209869 554.82962,24.22534 551.58889,28.076725 546.73766,33.842085 548.90425,37.586781 556.43757,36.457091 558.94691,36.080793 561.02667,36.161507 561.05926,36.636456 562.06199,51.249174 561.46263,57.718392 559.03464,58.489005 557.36112,59.020161 552.14221,57.131623 548.85099,54.803902 544.16828,51.492045 537.00309,63.632565 539.61827,70.447603 540.17375,71.895175 540.37361,71.878094 541.58646,70.27939 542.32892,69.300726 542.9507,67.773186 542.9682,66.884859 543.01521,64.497411 546.88057,60 548.88549,60 551.90525,60 558.12602,68.089139 557.97162,71.8151 557.95601,72.191795 556.15601,74.508694 553.97162,76.963765 549.6173,81.857657 549.28908,83.362774 551.44897,88.532119 553.53379,93.521777 555,92.840591 555,86.882353 555,82.270945 555.38404,81.380663 558.88235,77.882353 562.89282,73.871888 564.83113,73.086603 565.37977,75.25 567.11669,82.099003 574.88986,93.818133 577.77942,93.944187 578.4831,93.974884 581.33601,92.2 584.11922,90 586.90242,87.8 590.00137,86 591.00577,86 592.01016,86 594.25757,87.8 596,90 599.70724,94.680767 602.31725,95.073725 608.10266,91.822146 611.87313,89.703024 613.88436,89.760058 612.53229,91.947759 611.41672,93.752778 604.25204,97 601.385,97 599.54207,97 597.4876,95.73567 594.88522,93 592.79241,90.8 590.72459,89.004783 590.29006,89.010628 589.85552,89.016474 587.25,90.811691 584.5,93 578.74501,97.579525 577.00153,97.875013 574.17439,94.75 569.63105,89.727973 566.33404,85.303996 564.50196,81.771375 562.72741,78.349714 562.40075,78.153518 560.53411,79.388224 558.97703,80.418161 558.35829,82.230658 557.89575,87.116849 557.28551,93.563267 555.41345,99 553.80395,99 553.32269,99 552.06779,96.991056 551.01529,94.535679 z M 576.76824,84.75 C 573.38465,80.296354 569,71.877766 569,69.83488 569,67.808526 574.59149,62 576.54213,62 577.30568,62 579.46797,63.35 581.34722,65 585.86554,68.967136 587.97826,68.786446 592.73898,64.025722 596.82083,59.943871 600.22949,52.281644 601.48066,44.375534 602.03726,40.858406 602.58678,40.121035 605.21245,39.368001 608.25744,38.494711 610.97638,35.643047 609.84386,34.510523 609.52188,34.188551 608.026,34.48666 606.51968,35.172987 604.12577,36.263725 603.60582,36.181413 602.39045,34.519298 600.71511,32.228128 600.6259,29.371594 602.09783,25.149223 603.76442,20.368416 604.97887,21.382811 604.31359,27 603.6686,32.446006 604.69073,33.30486 608.44113,30.468197 611.13499,28.43066 611.90234,28.612938 613.02137,31.556202 614.27855,34.862829 612.21801,39.030264 608.33531,41.033768 604.836,42.83944 604.03489,43.889201 604.01531,46.694599 603.99092,50.190736 597.5404,63.242958 594.3823,66.186382 591.84246,68.553578 587.15736,71.004411 585.1849,70.997654 584.80821,70.996363 582.925,69.647419 581,68 579.075,66.352581 577.24735,65.003637 576.93856,65.002346 576.20777,64.999292 572,68.919182 572,69.603032 572,71.409616 577.18633,80.878406 579.19811,82.744779 L 581.61779,84.989558 585.00506,81.494779 C 589.58033,76.774298 592.86487,76.826848 596.7605,81.682856 L 599.71499,85.365712 603.41466,83.182856 C 607.78213,80.605985 608,80.569664 608,82.418441 608,83.95117 602.1271,88 599.90385,88 599.1558,88 596.82868,86.123719 594.73246,83.830487 L 590.92115,79.660974 586.67272,83.830487 C 584.33609,86.123719 581.70724,88 580.83084,88 579.95443,88 578.12627,86.5375 576.76824,84.75 z M 596.05017,35.09375 C 593.91468,31.103544 595.61337,23.280701 598.84711,22.213267 599.94377,21.851265 599.9692,22.189031 598.98389,24.030108 598.28277,25.340162 597.97101,28.346453 598.24286,31.175738 598.74917,36.44493 597.73916,38.249656 596.05017,35.09375 z M 604,89.068094 C 604,87.353258 610.08106,83.681061 611.15025,84.750245 611.81179,85.411786 610.99047,86.460806 608.70517,87.8732 604.90034,90.224712 604,90.453357 604,89.068094 z"/>
</svg>
