<svg xmlns="http://www.w3.org/2000/svg"
     width="27.1" height="64.0"
     viewBox="2531.0000 13.5427 36.9688 87.4573">
  <path d="M 2563.9062,24.5625 C 2562.6438,25.833499 2561.2993,27.314142 2559.8125,29.125 2555.005,34.980484 2554.1956,36.548301 2554.5312,39.28125 2556.3133,53.789843 2557.1718,69.562995 2556.625,77.75 2556.0874,85.800601 2556.1792,87.151176 2557.2188,85.5 2558.7267,83.104605 2558.936,61.389952 2557.5938,46.84375 2556.763,37.84068 2556.8581,36.950845 2558.875,33.6875 2560.0237,31.828847 2561.9806,29.659154 2563.9688,27.71875 L 2563.9062,24.5625 z M 2559.375,17.90625 C 2558.4124,18.124376 2556.5336,19.313849 2553.9062,21.6875 2550.9712,24.339097 2549.4489,25.114069 2548.4688,24.4375 2547.7182,23.919376 2545.2492,22.195459 2543,20.59375 2540.2513,18.636254 2538.584,18.009732 2537.9062,18.6875 2537.2285,19.365267 2538.1671,20.634965 2540.7188,22.5625 2542.8066,24.139693 2545.0857,26.011313 2545.8125,26.71875 2548.1295,28.974047 2551.3803,28.061628 2555.75,23.9375 2560.0475,19.881533 2560.9794,17.542707 2559.375,17.90625 z M 2535.375,25.15625 C 2535.1333,25.326906 2535,25.686922 2535,26.21875 2535,27.352671 2535.7958,28.305145 2541.8125,34.46875 L 2544.125,36.84375 2542.4062,50.46875 C 2540.9525,62.092094 2540.8816,65.577099 2541.9062,74.03125 2543.1951,84.666397 2545.3354,92.428052 2547.7812,95.25 2548.6155,96.2125 2550.0413,97 2550.9375,97 2552.8205,97 2556.0224,92.058603 2555.9062,89.34375 2555.8461,87.939809 2555.7007,87.859022 2555.2812,89 2554.5454,91.001057 2551.8818,94 2550.8438,94 2549.4614,94 2546.8376,86.925328 2545.4375,79.5 2543.6379,69.954983 2543.6862,60.611944 2545.625,47.15625 2547.2364,35.972601 2547.2303,35.780563 2545.2188,33.65625 2544.0965,32.471018 2541.8118,30.0375 2540.1562,28.25 2537.829,25.737341 2536.1001,24.644282 2535.375,25.15625 z"/>
</svg>
