<svg xmlns="http://www.w3.org/2000/svg"
     width="60.8" height="64.0"
     viewBox="611.5249 15.0860 80.7222 84.9173">
  <path d="M 670.75,94.241774 C 669.2375,93.304019 668,92.206826 668,91.803567 668,91.400307 667.1146,90.596515 666.03244,90.017362 664.47515,89.183924 663.06324,89.523595 659.26117,91.64637 654.81688,94.127707 654.23457,94.222569 651.47873,92.914191 649.42626,91.939755 647.41164,89.401876 645,84.752727 643.075,81.041727 640.95333,78.004227 640.28518,78.002727 638.25186,77.998162 637,81.578757 637,87.399075 637,92.986302 635.62402,95 631.80622,95 630.57515,95 626,83.022429 626,79.799524 626,79.033029 627.76279,76.684582 629.9173,74.580754 633.3936,71.186241 633.7756,70.347201 633.31055,67.127806 632.80054,63.597163 628.88056,59.01595 626.36013,59.004967 625.15026,58.999695 621,67.022592 621,69.366657 621,70.130306 620.35638,71.289266 619.56974,71.942122 617.29092,73.833377 615.52487,69.264899 615.88931,62.421445 616.05167,59.372722 621.5686,51.517587 624.47873,50.191645 627.03815,49.025495 629.56328,49.610395 633.20204,52.212243 635.51311,53.864743 635.89779,53.239775 636.61433,46.668556 L 637.23244,41 633.18132,41 C 626.48861,41 623.99645,39.578273 624.02196,35.774751 624.06712,29.041228 630.64,19.401102 634.66079,20.171298 635.67236,20.365067 637.4,22.318294 638.5,24.511802 639.6,26.705311 640.59154,28.666543 640.70343,28.870096 641.45802,30.242903 646.20879,27.398233 647.99896,24.501678 650.97448,19.687193 653,19.905158 653,25.039838 653,29.243123 650.2901,35.684422 647.57309,37.939342 646.44201,38.878053 646,41.044087 646,45.648125 L 646,52.05136 649.03088,50.484033 C 652.00122,48.948009 652.15104,48.989869 656.53208,52.579799 661.94966,57.019099 663.24545,56.403391 665.61111,48.265788 666.94541,43.67597 667.0023,42.079878 665.96384,38.370851 665.28284,35.938546 664.33738,33.708513 663.86283,33.415222 662.28872,32.442369 662.88482,23.258035 664.63571,21.507143 667.05682,19.086033 668.29353,21.104324 666.54122,24.61691 665.36072,26.983279 665.27304,28.422376 666.11872,31.55148 666.70565,33.723166 667.59404,35.9275 668.09293,36.45 670.33632,38.799563 667.62737,53.452856 664.24765,57.25 662.03982,59.730504 660.91089,59.471541 656.14378,55.391079 L 651.92757,51.782158 647.98523,54.391079 C 643.09864,57.624867 641.57315,57.72237 642.36971,54.75 642.70135,53.5125 642.97884,49.260309 642.98635,45.300686 642.99891,38.674175 643.23089,37.878539 645.90192,35.300686 647.49798,33.760309 649.12519,31.418527 649.51795,30.096727 L 650.23207,27.693454 646.748,29.846727 C 641.3445,33.186277 639.34388,32.709784 636.895,27.5 634.55306,22.517756 634.64681,22.583472 631.94461,24.029644 629.24165,25.476222 627,30.246224 627,34.551247 L 627,38.201815 633.25,37.850907 C 638.69341,37.545286 639.48925,37.725844 639.41667,39.25 639.37083,40.2125 639.25833,43.613992 639.16667,46.80887 639.075,50.003749 638.38677,53.456381 637.63727,54.481386 636.31549,56.289025 636.14721,56.278667 632.03777,54.136707 629.55116,52.840611 626.99312,52.184797 625.84526,52.549112 623.19614,53.389912 618,60.742367 618,63.650038 618,67.278868 619.84232,66.434554 621.62032,61.990885 625.04341,53.435743 634.63126,56.909536 636.28624,67.304522 636.83481,70.750099 636.51966,71.492664 632.94598,75.175104 628.50812,79.748009 628.32566,80.667401 630.64875,86.750318 632.75674,92.270016 634.60468,91.76449 634.17053,85.786893 633.886,81.869295 634.2752,80.756161 637.02413,77.625303 638.77481,75.631386 640.59738,74 641.0743,74 641.55121,74 643.07062,76.3625 644.45078,79.25 649.20667,89.200095 650.68133,91 654.07757,91 655.78641,91 658.32871,90.1 659.72713,89 663.16916,86.292496 665.32913,86.481738 669.2152,89.831285 674.1968,94.125103 675.72333,94.352181 680.55842,91.518634 685.31126,88.733282 686,88.539481 686,89.987455 686,91.5099 678.32067,96.003293 675.76987,95.973391 674.52144,95.958755 672.2625,95.179528 670.75,94.241774 z M 676,88.16898 C 676,87.711919 677.12432,86.736241 678.49849,86.000806 679.87266,85.265372 680.78081,84.447477 680.5166,84.183262 680.25238,83.919047 677.96546,84.782225 675.43456,86.101435 L 670.83292,88.5 667.44493,84.616332 664.05695,80.732664 661.38821,82.616332 C 659.9204,83.652349 658.14531,84.923905 657.44355,85.442011 655.51426,86.86642 653.26211,84.475186 649.54678,77.05756 644.35956,66.701342 644.34119,66.458812 648.43382,62.366176 652.00851,58.79149 652.0255,58.786608 654.75907,60.548346 656.26658,61.519911 657.85986,62.918991 658.29969,63.657414 659.84737,66.255787 664.72204,65.230987 667.37796,61.748892 670.36323,57.834997 673.45173,50.827253 674.36859,45.887288 675.09585,41.96889 676.72238,40.14162 681.75,37.594909 683.81847,36.547137 685,35.206125 685,33.906226 L 685,31.863812 682.09563,33.931906 C 678.7859,36.288642 676.92315,36.523145 675.2,34.8 672.78761,32.38761 674.76207,22 677.63301,22 678.74421,22 678.83547,22.438917 678.03518,23.934259 676.93387,25.99209 676.59409,33 677.59563,33 677.92323,33 679.50083,32.067505 681.10141,30.927789 684.86191,28.250075 687.41083,28.745713 687.81396,32.233049 688.24702,35.979283 686.81375,38.156497 682.37176,40.5 679.03082,42.262614 678.27927,43.390197 676.03982,50 673.41183,57.756605 671.02454,61.793367 666.65313,65.872303 663.74889,68.582235 660.66086,68.287802 656.0228,64.858736 649.09298,59.735299 646.64115,66.850636 652.04003,76.416928 653.773,79.487583 655.52061,82.203723 655.92362,82.452795 656.32663,82.701867 658.32021,81.72181 660.35379,80.27489 L 664.05123,77.644127 667.77561,81.200897 C 671.65448,84.905194 672.82972,84.99695 676.81382,81.906547 679.26328,80.00654 682,80.332185 682,82.523655 682,83.243978 682.5237,84.0079 683.16378,84.221259 683.80386,84.434619 682.65313,85.597119 680.60662,86.804593 676.48717,89.235124 676,89.379415 676,88.16898 z M 668.66667,34.333333 C 666.90007,32.566735 668.81633,23.349581 671.26482,21.836335 673.37955,20.529354 673.84725,21.998928 672.30221,25.096026 671.35617,26.992413 670.97923,29.484564 671.32043,31.587123 671.8482,34.839428 670.53338,36.200051 668.66667,34.333333 z"/>
</svg>
