<svg xmlns="http://www.w3.org/2000/svg"
     width="19.5" height="64.0"
     viewBox="1271.1025 15.0068 26.2441 85.9932">
  <path d="M 1282.127,93.977928 C 1277.2723,88.662641 1275.8315,79.391595 1277.9931,67.377679 1279.1013,61.218886 1279.0532,59.274509 1277.6373,53.005013 1275.1025,41.780434 1275.4543,35.411539 1279.0011,28.313716 1282.7717,20.768092 1284.6704,19.006805 1288.2803,19.706129 1292.9742,20.615457 1293.3466,22.896646 1290.5294,33.484696 1287.4336,45.119585 1287.3776,48.682382 1290.1874,55.214098 L 1292.3749,60.298959 1290.1491,66.505074 C 1287.668,73.423249 1287.0768,81.381836 1288.3482,90.75 1289.1618,96.745229 1289.1085,97 1287.0418,97 1285.8568,97 1283.6452,95.640068 1282.127,93.977928 z M 1287.3903,66.608388 C 1289.3788,61.849167 1289.3936,60.278367 1287.4845,56.617691 1284.9537,51.764871 1284.7959,46.910764 1286.8469,37 1287.9283,31.775 1289.1267,26.716293 1289.5102,25.758429 1290.6774,22.843311 1287.2473,22.42092 1284.3541,25.123486 1278.479,30.611484 1277.4847,37.31066 1280.4433,51.47103 1281.3593,55.855096 1282.2472,59.580516 1282.4164,59.74974 1282.5856,59.918964 1282.1182,62.632001 1281.3777,65.77871 1279.7272,72.792103 1279.7021,79.066743 1281.3008,85 1283.6803,93.830773 1284.4644,93.11195 1285.1403,81.480512 1285.5154,75.0243 1286.4471,68.865609 1287.3903,66.608388 z"/>
</svg>
