<svg xmlns="http://www.w3.org/2000/svg"
     width="40.4" height="64.0"
     viewBox="0.9980 19.0000 53.1421 84.1304">
  <path d="M 44.690476,96.357143 C 44.310714,95.977381 44,94.223244 44,92.45906 44,87.768245 37.55387,71.078378 35.174069,69.607581 34.283254,69.057027 29.38862,72.248172 27.722868,74.465526 27.295445,75.034487 26.678713,76.727408 26.352353,78.227574 25.559047,81.874126 23,84.104371 23,81.149196 23,77.538327 27.060838,70.501632 30.176618,68.713419 35.687918,65.550367 36.674088,66.203077 41.151653,75.97739 43.413527,80.914954 45.707058,84.681048 46.248387,84.346488 47.549422,83.542404 46.357211,70.890826 44.41281,64.867608 43.590331,62.319793 41.991398,59.397203 40.859625,58.372963 38.841686,56.546753 38.68898,56.572264 32.96999,59.691032 25.75981,63.622998 24.98229,62.979219 25.732388,53.698363 26.272487,47.015792 26.349078,46.862561 30.10762,44.945097 34.383251,42.763832 36,40.428499 36,36.433775 36,31.806035 30.764431,25 27.204524,25 26.694697,25 25.290564,27.579193 24.08423,30.73154 21.709228,36.937803 19.476099,40 17.325141,40 16.574454,40 14.190812,38.882999 12.028159,37.517776 7.5387617,34.683744 6.4763263,35.395042 7.4496124,40.583103 7.9290473,43.138711 9.0864369,44.660748 11.901814,46.438018 15.18482,48.510488 15.79482,49.486396 16.353083,53.559371 17.22912,59.950757 17.169865,61.223016 16.028991,60.517917 15.494936,60.187853 14.759338,57.666515 14.394329,54.914944 13.845347,50.776516 13.246072,49.661489 10.926043,48.461755 6.8068882,46.331658 4.9980266,43.138459 5.0153128,38.027494 5.0400174,30.723133 5.9526711,30.246399 11.97748,34.390738 14.854595,36.369844 17.618094,37.736031 18.118589,37.426708 19.522815,36.558849 23,29.302416 23,27.239838 23,24.621148 24.962677,23 28.13305,23 30.143452,23 31.804432,24.14511 34.414859,27.330792 37.97707,31.678001 38.4517,33.075069 38.158444,38.35 38.006667,41.080073 33.084641,47.152118 30.263736,48.089286 29.583792,48.315179 28.735126,50.6375 28.377813,53.25 27.604186,58.906382 28.46436,59.204898 35.581587,55.75 L 40.216677,53.5 43.135798,56.995117 C 46.393769,60.895947 47.705756,64.912754 48.863821,74.532146 50.140145,85.133848 47.463743,99.130409 44.690476,96.357143 z"/>
</svg>
