<svg xmlns="http://www.w3.org/2000/svg"
     width="16.7" height="64.0"
     viewBox="1333.8255 14.3090 22.7995 87.6362">
  <path d="M 1352.375,88.09375 1352,86 1352.2188,81.1875 C 1352.1952,81.150822 1352.0492,81.064777 1352.0312,81.03125 1350.8011,78.732606 1350.7748,77.922759 1351.875,76.1875 1352.0395,75.928061 1352.207,75.746408 1352.4375,75.65625 L 1352.625,71.6875 1350.9062,70.625 1351.0625,45.78125 C 1351.1609,32.109015 1351.0113,20.667579 1350.7188,20.375 1349.7827,19.438969 1338.9226,18.308953 1338.4375,19.09375 1337.8255,20.084059 1339.013,96.209086 1339.6562,97.25 1340.0859,97.945187 1348.5521,97.440181 1351.5938,96.53125 1352.2552,96.333595 1352.4988,94.215455 1352.25,91.09375 1352.1183,89.442517 1352.3077,89.026665 1352.375,88.09375 z M 1341.0312,22 1344.5,22 C 1346.4164,22 1348.0352,22.3375 1348.0625,22.75 1348.0898,23.1625 1348.2968,39.297976 1348.5312,58.625 L 1348.9375,93.78125 1345.9375,94.21875 C 1344.2766,94.462524 1342.7063,94.353102 1342.4688,93.96875 1342.2313,93.584399 1341.811,77.223947 1341.5312,57.625 L 1341.0312,22 z"/>
</svg>
