<svg xmlns="http://www.w3.org/2000/svg"
     width="25.0" height="64.0"
     viewBox="2755.1562 17.0000 35.5971 91.1285">
  <path d="M 2760.1875,84.25 2761.625,89.3125 C 2762.0198,89.228352 2762.4657,89.217202 2762.875,89.34375 2763.7754,89.622141 2765.9411,90.290483 2767.7188,90.84375 2770.3147,91.651803 2771.3514,91.532988 2772.9688,90.1875 2774.8873,88.591586 2775.0105,87.004719 2775.5,57.0625 2775.7826,39.778301 2776.1997,25.456498 2776.4375,25.21875 2777.3204,24.335835 2779.849,32.028825 2780.9062,38.84375 2783.1728,53.452443 2781.5419,87.832222 2778.25,94.71875 2777.2915,96.723951 2776.05,98.462398 2775.5,98.59375 2774.0376,98.943001 2768.7351,96.961571 2766.9062,95.375 2766.0379,94.621768 2764.6331,94 2763.7812,94 2762.6877,94 2761.6309,93.227696 2760.9688,92.3125 L 2759.1562,95.1875 2765.25,98.03125 C 2778.2796,104.12854 2782.0539,100.53629 2783.9688,80.34375 2786.7533,50.979917 2783.4933,21 2777.5312,21 2775.4598,21 2773.0033,23.820552 2772.9062,26.3125 2772.8596,27.510714 2772.6375,41.768258 2772.4062,57.96875 2772.1748,74.169241 2771.6447,87.761432 2771.2188,88.1875 2770.7926,88.613568 2768.6521,88.494501 2766.4688,87.90625 2764.5264,87.382944 2762.2751,85.932183 2760.1875,84.25 z"/>
</svg>
