<svg xmlns="http://www.w3.org/2000/svg"
     width="21.5" height="64.0"
     viewBox="2610.6562 14.7884 29.9696 89.2116">
  <path d="M 2616.375,84.5 2618.1875,88.84375 C 2618.8684,88.693501 2619.7442,88.828883 2621.5,89.5625 2628.5885,92.524291 2629.6867,89.481314 2627.4062,73.21875 2625.6313,60.560791 2625.8548,32.886623 2627.75,29.5 2628.5873,28.003972 2629.0498,28.569965 2630.625,33.09375 2632.284,37.858318 2632.5,41.649855 2632.5,65.53125 2632.5,89.73798 2632.3058,92.859669 2630.7188,95.28125 2628.6457,98.444535 2626.8293,98.617386 2621.9375,96.03125 2618.9804,94.467957 2617.3535,93.125257 2616.75,91.90625 L 2614.6562,94 2614.7188,95.25 C 2616.0123,95.287386 2617.7074,95.993291 2620.4062,97.5 2622.8691,98.875 2626.4554,100 2628.375,100 2632.1196,100 2632.9113,98.877713 2633.5312,92.625 2633.7013,90.909371 2634.3308,85.9 2634.9375,81.5 2636.6258,69.254555 2635.4305,40.463213 2632.8125,30.5 2630.2929,20.911189 2628.8054,18.788399 2626.3438,21.25 2624.9222,22.671491 2624.6282,25.700039 2624.4375,41.71875 2624.3006,53.224035 2624.7537,64.572915 2625.5938,71 2627.9124,88.742759 2627.5513,89.632984 2619.4688,86.34375 2618.5049,85.951511 2617.4272,85.25047 2616.375,84.5 z"/>
</svg>
