<svg xmlns="http://www.w3.org/2000/svg"
     width="51.8" height="64.0"
     viewBox="843.5688 14.0000 58.2903 72.0000">
  <path d="M 862.96875,18 C 861.59916,18 861.76006,20.068497 863.5,25 865.46013,30.555608 865.39913,37.442034 863.375,40.53125 861.3323,43.648809 859.54944,43.64443 855.8125,40.5 851.74874,37.080568 850.2833,37.354123 849.0625,41.75 847.56884,47.1284 847.74934,51.624342 849.5625,53.4375 851.65912,55.534119 851.90666,55.468792 855.4375,52.0625 L 858.5,49.125 861.84375,51.875 C 865.54387,54.907967 866.07369,57.593982 863.9375,62.71875 862.7055,65.674358 862.79205,66.212107 864.96875,69.15625 866.40502,71.098907 867.50102,74.271118 867.78125,77.1875 867.98427,79.300315 868.04479,80.51112 867.84375,81.1875 L 868.65625,82 871.34375,82 C 871.11336,81.465887 871,80.786592 871,79.25 871,77.063131 869.8487,73.082546 868.34375,70.0625 865.96481,65.28858 865.82177,64.364379 866.9375,61.59375 869.30891,55.704924 869.25262,55.334696 865.59375,51.78125 863.62312,49.867395 862,47.837562 862,47.28125 862,46.724938 863.41357,44.513127 865.125,42.375 868.1095,38.646404 868.19177,38.216903 867.6875,31.375 867.1739,24.406557 864.91758,18 862.96875,18 z M 871.21875,18 C 869.95253,18 869.81872,19.20385 870.40625,25.6875 870.78957,29.917531 871.35,33.742531 871.625,34.1875 872.84666,36.164176 874,34.666654 874,31.125 874,23.640025 872.79889,18 871.21875,18 z M 853.15625,42.15625 C 853.61109,42.259918 854.20102,42.765718 855.15625,43.71875 L 857.40625,45.9375 855.03125,48.46875 C 853.72674,49.857336 852.26662,51 851.8125,51 850.67749,51 850.79759,44.845777 851.96875,43 852.37637,42.357592 852.70141,42.052582 853.15625,42.15625 z M 876.375,80.46875 880,78.65625 880.28125,78.40625 C 880.1143,77.687636 879.99773,76.888234 880,75.25 880.00406,72.319927 880.70539,69.413959 881.84375,67.6875 883.84179,64.65722 883.64867,60.992059 881.28125,57.34375 880.00522,55.377319 880.15507,54.869263 882.71875,52 L 885.53125,48.84375 889.5,52 893.46875,55.15625 895.21875,52.96875 C 897.85913,49.708022 897.57051,38 894.84375,38 894.32035,38 892.12137,39.426354 889.96875,41.15625 885.35153,44.866747 884.05766,44.310208 881.46875,37.53125 879.82108,33.216897 879.80638,25.226774 881.46875,20.25 882.02845,18.574394 881.84982,18 880.71875,18 878.95602,18 877.29296,22.199706 876.4375,28.84375 875.92978,32.787058 876.31759,34.432139 878.90625,39.5 882.62536,46.780957 882.66152,47.430251 879.5,51.1875 876.43155,54.834147 876.39952,56.24929 879.21875,60.0625 881.40494,63.01948 881.37656,63.073238 879.5,66.25 878.43479,68.053242 877.37906,72.292374 877.0625,75.96875 876.84963,78.440975 876.64699,79.490793 876.375,80.46875 z M 892.84375,42.59375 C 893.28027,42.815649 893.59085,43.435431 894.03125,44.59375 894.59006,46.063528 894.79482,48.097645 894.46875,49.125 893.70275,51.538463 891.76773,51.502537 889.53125,49.03125 887.48296,46.767917 887.98145,44.613283 890.9375,43.03125 891.83299,42.552003 892.40723,42.371851 892.84375,42.59375 z"/>
</svg>
