<svg xmlns="http://www.w3.org/2000/svg"
     width="56.2" height="64.0"
     viewBox="1684.8388 17.7566 79.1612 90.2126">
  <path d="M 1757.0938,55.96875 C 1756.4742,56.388704 1754.6633,57.587129 1752,59.375 1748.975,61.405643 1745.5149,63.741321 1744.3125,64.59375 1742.2453,66.059377 1741.892,65.952031 1737.8125,62.25 1732.0381,57.009764 1730.4349,56.536463 1726.3125,58.96875 1724.4296,60.0797 1722.4561,61 1721.9375,61 1721.419,61 1721,57.848724 1721,54 1721,47.431851 1721.2217,46.780582 1724.375,43.4375 1726.2227,41.478561 1728.2471,38.158125 1728.875,36.0625 1730.0506,32.13864 1729.4805,26.405854 1727.8125,25.375 1727.2934,25.054139 1724.5227,27.085946 1721.6875,29.90625 L 1716.5312,35.0625 1714.8125,32.78125 C 1713.8637,31.530752 1712.7075,28.918468 1712.25,27 1711.6532,24.497182 1710.6558,23.24373 1708.7188,22.5625 1706.4273,21.756625 1705.4464,22.082139 1702.25,24.65625 1698.0191,28.063597 1694.0561,34.364669 1694.0312,37.6875 1693.9878,43.507214 1699.8071,48.146686 1705.0938,46.46875 1706.4434,46.040378 1707.5829,46.300611 1708.125,47.15625 1709.1817,48.823906 1709.291,62.009145 1708.25,62 1707.8375,61.996376 1706.15,61.092752 1704.5,60 1702.85,58.907248 1700.5323,58.003624 1699.3438,58 1696.3423,57.990849 1692.4108,63.041611 1690.375,69.5 1688.9271,74.093112 1688.8388,75.541379 1689.875,79 1691.9062,85.779265 1695.9656,85.367093 1696,78.375 1696.0152,75.287146 1699.2489,70 1701.125,70 1702.2716,70 1706.9227,75.101918 1706.9688,76.40625 1706.9861,76.899212 1704.9458,79.47472 1702.4375,82.15625 1697.409,87.532129 1697.3911,87.880935 1701.625,95.84375 1702.931,98.299933 1704,100.91317 1704,101.65625 1704,103.9692 1706.7817,103.12725 1708.875,100.1875 1710.3634,98.097212 1710.7269,96.373604 1710.3438,93.4375 1709.9386,90.332708 1710.2973,89.021726 1711.9688,87.25 1713.1362,86.0125 1714.4017,85 1714.8125,85 1715.2233,85 1718.1359,88.15 1721.2812,92 1727.4182,99.512055 1728.9104,100.12006 1734.2188,97.375 1737.0919,95.889219 1737.5473,95.889219 1740.0625,97.375 1743.2949,99.284417 1747.1362,99.488793 1748.8125,97.8125 1750.8648,95.760206 1750.1146,94.815923 1747,95.5 1744.808,95.981444 1743.2536,95.60044 1741.0938,94.0625 L 1738.125,91.96875 1734.2188,94 C 1732.0617,95.124337 1729.5995,95.794734 1728.75,95.46875 1727.9005,95.142766 1725.0869,92.225243 1722.5,89 1717.0387,82.191051 1715.5757,81.402857 1712.375,83.5 1708.5377,86.014287 1706.6659,89.645749 1707.2812,93.4375 1707.5839,95.302731 1707.5808,97.106695 1707.25,97.4375 1706.2709,98.416598 1701.1438,88.827976 1701.7188,87.09375 1702.0086,86.219081 1704.0795,83.891075 1706.3125,81.90625 1710.2046,78.446712 1710.2944,78.148705 1709.0938,75.25 1708.4049,73.586939 1706.5897,71.02431 1705.0312,69.53125 1701.3269,65.982182 1698.7935,66.791703 1695.375,72.625 1693.9314,75.088352 1692.5702,76.913919 1692.3438,76.6875 1691.4637,75.807337 1693.3313,67.980867 1695.125,65.03125 1697.7448,60.723357 1699.4108,60.396789 1704.9688,63 1707.6209,64.24216 1710.2995,64.937437 1710.9062,64.5625 1712.0946,63.828085 1712.2142,51.618034 1711.0938,46.5 1710.4471,43.546136 1710.3731,43.519683 1704.8125,43.84375 1699.9828,44.125222 1698.984,43.878103 1698.0625,42.15625 1695.7069,37.754731 1697.9638,31.590445 1703.7812,26.46875 1707.0545,23.587154 1707.8792,23.456193 1708.6562,25.75 1708.9822,26.7125 1710.2862,29.8625 1711.5625,32.75 1714.418,39.210463 1716.2005,39.427103 1721.5,34 1723.9671,31.473467 1725.6574,30.418812 1726.0938,31.125 1727.3865,33.216656 1724.8339,39.480832 1721.4062,42.6875 L 1718,45.90625 1718,55.875 C 1718,61.49418 1718.4345,66.150518 1719,66.5 1719.5531,66.841794 1721.9526,65.521835 1724.3438,63.5625 1726.7349,61.603164 1728.975,60 1729.3125,60 1729.65,60 1732.2133,62.025 1735,64.5 1737.7867,66.975 1740.8998,69 1741.9062,69 1742.9127,69 1746.8094,66.739253 1750.5625,63.96875 1754.3156,61.198248 1758.0843,59.054432 1758.9375,59.21875 1759.345,59.297226 1759.4838,59.50782 1759.75,59.65625 L 1757.0938,55.96875 z M 1760,62.25 C 1759.3798,63.165237 1758.4136,64.163118 1756.7812,65.1875 1754.4314,66.662115 1750.5249,69.242284 1748.0938,70.9375 1743.0897,74.426746 1741.6575,74.312835 1735.5625,69.875 1730.3725,66.096122 1727.8273,66.235644 1722.9688,70.625 1719.8448,73.447338 1719.1136,74.736211 1719.625,76.375 1720.5674,79.39471 1729.9285,90 1731.6562,90 1732.4541,90 1734.438,89.308837 1736.0625,88.46875 1738.8134,87.046227 1739.211,87.092928 1741.875,89.0625 1744.8752,91.280657 1749.0489,91.378981 1749.75,89.25 1750.0202,88.429436 1749.1072,88 1747.0625,88 1745.2524,88 1743.7011,87.380844 1743.375,86.53125 1742.4554,84.134616 1739.4376,83.80976 1735.5,85.6875 L 1731.8125,87.46875 1727.875,82.96875 C 1721.7408,75.964113 1721.5349,75.371233 1724.4062,72.5 1727.668,69.23816 1729.9075,69.356682 1734.5312,73.03125 1736.6232,74.693677 1739.3256,76.291158 1740.5312,76.59375 1743.2963,77.287714 1748.2433,75.009682 1753.8125,70.5 1757.221,67.740019 1759.0052,66.722353 1759.3125,67.375 L 1760,66 1760,62.25 z"/>
</svg>
