<svg xmlns="http://www.w3.org/2000/svg"
     width="63.3" height="64.0"
     viewBox="2791.8782 15.0000 87.3487 88.3638">
  <path d="M 2812.9432,95.893859 C 2810.653,91.614618 2814.8735,80.813626 2821.99,72.741303 2826.0948,68.085238 2826.1701,67.869567 2825.4807,62.741303 2824.6028,56.21138 2823.6407,55 2819.3321,55 2817.0142,55 2815.102,54.192865 2813.4091,52.5 2812.0341,51.125 2810.592,50.014224 2810.2045,50.031608 2809.817,50.048993 2808.3196,52.01006 2806.8769,54.389535 2804.1701,58.853988 2799.4524,61.515663 2796.9678,59.980122 2795.8782,59.306702 2795.8967,57.886249 2797.0741,51.832256 2798.6547,43.704552 2798.955,29.467865 2797.6637,23.883079 2796.8699,20.450292 2796.9717,20.23708 2799.6637,19.69498 2801.3088,19.363688 2802.92,19.622784 2803.5,20.311901 2804.05,20.965356 2806.6731,23.246816 2809.3292,25.381813 L 2814.1583,29.263626 2817.2544,25.50758 C 2820.5335,21.529371 2825.2807,19 2829.4679,19 2832.0201,19 2832.8511,20.355981 2831,21.5 2828.5894,22.989851 2831.3123,34 2834.0914,34 2836.3496,34 2839.0648,31.766223 2842.0103,27.485006 2843.7075,25.018253 2845.7336,23 2846.5129,23 2849.894,23 2850.8896,29.753668 2848.8858,39.097051 2848.077,42.868416 2846.654,45.504922 2843.6946,48.71553 2840.0958,52.619732 2839.5684,53.818033 2839.1985,58.931853 L 2838.7795,64.72519 2845.9162,69.612595 C 2856.5295,76.880859 2859.0232,78.310114 2859.7768,77.556543 2860.1522,77.181123 2860.7533,69.801366 2861.1125,61.157084 2861.7158,46.639962 2863.9295,32.070743 2866.1977,27.68967 2867.6485,24.88743 2870.0346,26.094846 2871.7516,30.5 2875.2269,39.416291 2873.1208,73.806523 2868.2303,88 2866.2876,93.638225 2864.6326,95 2859.723,95 2856.3074,95 2855.1285,94.292468 2850.142,89.25 2843.2121,82.242468 2837.7401,79.06116 2835.2351,80.583453 2834.2808,81.163353 2832.6741,83.297128 2831.6646,85.325175 2830.6552,87.353222 2829.3933,88.743044 2828.8603,88.413668 2827.0402,87.288759 2835.0599,77 2837.7569,77 2839.6976,77 2846.5126,81.854068 2853,87.857088 2856.025,90.656211 2859.2548,92.958462 2860.1774,92.973201 2864.656,93.044752 2867.8899,83.296035 2870.0616,63.176989 2871.2985,51.718259 2870.7775,36.206869 2869.0526,33.134986 2867.9932,31.248368 2867.8523,31.533613 2866.1549,39 2865.1447,43.444001 2863.2001,64.681997 2863.2708,70.5 2863.3427,76.421738 2861.9006,83 2860.5304,83 2859.7895,83 2856.7796,81.071847 2853.8417,78.715216 2850.9038,76.358585 2845.6792,72.646085 2842.2315,70.465216 L 2835.963,66.5 2836.2315,58.010579 C 2836.4847,50.004486 2836.6459,49.451373 2839.0635,48.295401 2843.2987,46.270306 2845.109,43.468014 2845.8874,37.732282 2847.0776,28.961167 2846.204,28.197496 2841.0211,33.478452 2835.424,39.181491 2832.1013,39.518002 2829.1139,34.684358 2827.9869,32.860755 2826.8533,29.663872 2826.5949,27.580174 2826.3364,25.496477 2825.9109,23.577559 2825.6492,23.315914 2824.6865,22.353208 2819.7249,26.475505 2817.385,30.18212 2816.0595,32.281954 2814.342,34 2813.5685,34 2812.795,34 2810.8047,34.779051 2809.1456,35.731223 2805.2264,37.980539 2803.6772,36.439016 2807.245,33.840045 2810.4798,31.48371 2809.8865,29.499782 2805.1119,26.707297 L 2802.0468,24.914594 2802.1767,35.772487 C 2802.2757,44.052931 2801.8798,47.747754 2800.5089,51.337484 2799.5202,53.926392 2798.9627,56.296016 2799.27,56.603315 2800.449,57.782297 2803.9409,54.835446 2806.1846,50.768092 2807.4728,48.432873 2809.2671,46.379666 2810.1719,46.20541 2811.0767,46.031155 2813.2237,47.263651 2814.943,48.944291 2817.2043,51.154767 2819.0212,52 2821.5114,52 2826.0348,52 2827.5711,54.486254 2828.7192,63.664202 L 2829.6155,70.828404 2825.0577,74.758004 C 2819.1801,79.825604 2815.7968,86.545188 2815.8471,93.050943 2815.8878,98.299083 2814.8002,99.363781 2812.9432,95.893859 z M 2820,92.559017 C 2820,90.665827 2821.4319,89.844752 2823.4098,90.603744 2825.9456,91.576825 2825.2965,94 2822.5,94 2820.99,94 2820,93.429399 2820,92.559017 z"/>
</svg>
