<svg xmlns="http://www.w3.org/2000/svg"
     width="58.8" height="64.0"
     viewBox="687.1367 16.6093 79.8633 86.9333">
  <path d="M 751.54909,93.565418 C 752.42645,92.226397 753.62246,87.909168 754.20688,83.971574 755.14039,77.681995 755.00138,75.719153 753.06251,67.813373 749.91984,54.999039 750.66288,51.576053 757.84972,45.759787 762.80347,41.750747 758.65975,32 752.00229,32 748.95642,32 744,35.688099 744,37.954545 744,38.529545 743.09073,39 741.97939,39 740.69202,39 738.7869,37.283925 736.72939,34.270967 734.95323,31.669998 732.26623,28.26411 730.75828,26.702327 L 728.01657,23.86272 723.87355,26.18136 C 718.96756,28.926998 717.32078,31.213308 714.84608,38.714608 712.3237,46.360454 712.43699,50.492244 715.22251,52.443296 718.47451,54.721086 718.80903,54.474914 719.56184,49.25 720.79406,40.69772 724.49157,34 727.98067,34 730.06486,34 733.08133,37.384235 735.20833,42.108841 736.59452,45.187934 737.44661,45.815799 741.01304,46.386094 744.49684,46.943176 745.06308,47.341448 744.41269,48.777253 743.98349,49.724764 743.45136,52.81143 743.23019,55.636512 742.90046,59.84819 743.42615,62.098827 746.14986,68.136512 748.88567,74.201022 749.47416,76.734856 749.48583,82.5 749.49362,86.35 749.12675,90.9625 748.67054,92.75 747.6658,96.686812 749.21612,97.125978 751.54909,93.565418 z M 712,85.51342 C 712,82.467216 712.44662,81.840232 715.53599,80.549409 725.34748,76.449908 722.99668,59.989652 711.74742,54.021937 707.71986,51.885319 706.95049,51.777869 704.10845,52.95508 699.77929,54.748273 696.81352,59.276526 696.32355,64.841338 L 695.91337,69.5 697.94857,65.81239 C 701.87484,58.698303 708.14385,56.824831 711.92742,61.634859 714.89327,65.405329 714.50017,69.048455 710.5,74.863681 706.52702,80.639375 706.30776,82.019546 708.71561,86.095708 710.98716,89.941148 712,89.761583 712,85.51342 z M 711.242,96.25 C 710.20019,94.7375 707.66129,90.386501 705.59999,86.581114 702.68613,81.201787 702.14677,79.483632 703.17609,78.859602 707.72675,76.100744 711,71.0536 711,66.79563 711,58.560684 703.37721,59.576976 700.09136,68.25 698.75055,71.789091 695.37862,71.925081 693.81939,68.502949 691.13672,62.61513 699.31179,50 705.80998,50 709.40275,50 710.43104,48.555489 711.50487,42 713.19189,31.701172 722.5056,20.609348 728.50364,21.755946 730.94683,22.222989 738,29.607198 738,31.698004 738,32.243616 738.81912,33.431316 739.82026,34.337338 741.52713,35.882031 741.81621,35.801269 744.4608,33.040913 751.99403,25.177923 763,30.288465 763,41.64945 763,44.562702 762.23985,45.925894 758.92642,48.954666 753.8233,53.619375 752.91741,58.288323 755.59205,66.139974 758.40976,74.411613 758.13999,86.187706 754.98951,92.442648 752.07198,98.23508 750.29803,99.5426 746.61196,98.617455 743.11662,97.740181 742.29089,95.441044 744.56762,92.925281 745.72254,91.649105 746.52789,88.8501 746.79243,85.192894 747.13955,80.394002 746.62036,77.94158 743.60353,70.130016 740.95776,63.279257 740,59.263505 740,55.020968 740,49.569397 739.83372,49.173765 737.0595,48.024646 735.14447,47.231413 733.31359,45.183859 731.8095,42.153326 727.49773,33.465705 723.85238,36.585626 722.13296,50.435125 721.29521,57.183014 721.41493,58.683771 723.09373,62.478987 726.1979,69.496481 724.0894,77.656037 718.01045,82.150392 715.08292,84.314815 715.06001,84.408123 715.6737,91.668122 716.2041,97.942743 716.06583,99 714.71483,99 713.84658,99 712.2838,97.7625 711.242,96.25 z"/>
</svg>
