<svg xmlns="http://www.w3.org/2000/svg"
     width="22.6" height="64.0"
     viewBox="214.1780 20.7500 28.9079 81.9255">
  <path d="M 238.78125,25.375 C 237.90892,25.030643 237.0585,24.75 236.3125,24.75 233.13085,24.75 229.477,28.802532 228.5625,33.375 228.22413,35.066882 226.55168,37.924373 224.8125,39.71875 221.5165,43.119355 221.64456,45.33377 225.03125,43.21875 226.83621,42.091533 227,42.263165 227,45.625 227,48.49107 226.25964,49.959826 223.5,52.5625 219.88409,55.972737 220.42347,58.73078 224.0625,55.4375 225.95162,53.727877 226,53.796762 226,58.25 226,62.136572 225.53543,63.1989 222.875,65.4375 219.58807,68.203273 219.70503,70.296009 223.03125,68.21875 224.09877,67.55207 225.21754,67 225.5,67 226.32556,67 226.07652,75.994587 225.25,76.03125 224.8375,76.049548 223.46695,76.933664 222.1875,78 219.12761,80.550198 220.27288,82.530442 223.5625,80.375 L 226,78.78125 226,82.625 C 225.99273,85.522478 225.1048,87.598278 222.5,90.875 218.17804,96.311849 219.10242,98.675513 223.5,93.4375 L 226.6875,89.625 229.03125,92.3125 C 233.04566,96.929474 234.82592,94.582616 231,89.71875 229.74392,88.121909 229,85.681636 229,83.125 229,79.143861 229.05095,79.071638 231.5,80.1875 234.74464,81.665857 236.02667,80.413607 233.25,78.46875 229.16427,75.606997 228,73.851769 228,70.5 228,66.822375 229.52609,65.119837 231.28125,66.875 231.89333,67.487078 232.9725,68 233.6875,68 235.97784,68 235.09331,65.443233 232,63.15625 229.66915,61.432975 229,60.16482 229,57.46875 229,54.124504 230.21674,52.923645 231.5,55 232.21469,56.156394 236.00981,56.36874 235.96875,55.25 235.95361,54.8375 234.39472,53.375 232.5,52 230.06909,50.235884 229.05067,48.711382 229.03125,46.8125 228.99407,43.177924 230.25901,42.622703 233.28125,45 234.67015,46.092506 236.3055,47 236.90625,47 239.08592,47 237.9217,44.448928 234.5,41.71875 230.65492,38.650755 229.90111,34.706149 232.28125,30 233.72448,27.146365 235.85285,26.753651 238.71875,28.46875 L 238.78125,25.375 z"/>
</svg>
