<svg xmlns="http://www.w3.org/2000/svg"
     width="27.7" height="64.0"
     viewBox="234.7188 17.8174 36.9364 85.2626">
  <path d="M 238.78125,25.375 238.71875,28.46875 C 240.06434,29.274018 241.51827,30.391656 243.25,32.21875 245.8625,34.975114 248.0042,37.975015 248,38.875 247.99581,39.774985 247.13098,46.821496 246.09375,54.5625 244.27617,68.127376 244.48607,81.419332 246.625,88.5 247.70203,92.065375 252.03485,97 254.09375,97 257.43154,97 260.82358,88.138118 261.5,77.59375 261.81372,72.703193 262.30581,68.3409 262.59375,67.875 262.66427,67.760902 263.08555,67.874255 263.34375,67.875 L 263.34375,63.4375 C 262.04135,62.115371 261.72365,60.870102 262.75,59.84375 262.90102,59.692728 263.15348,59.755846 263.34375,59.6875 L 263.34375,55.34375 263.625,54.3125 C 262.49649,52.069071 261.57546,48.950142 260.96875,44.78125 L 259.6875,36.09375 263.34375,30.78125 C 267.10169,25.32488 267.6552,24 266.125,24 265.6396,24 263.31677,26.958622 260.96875,30.5625 256.87411,36.8472 256.74601,37.266124 257.90625,40.8125 259.75972,46.477758 260.42437,68.200169 259.0625,78.40625 256.30386,99.080069 249.77427,97.736422 247.75,76.0625 246.91237,67.094017 247.06239,63.479086 248.78125,52 L 250.8125,38.5 248.375,34.28125 C 246.00903,30.173221 242.10441,26.686834 238.78125,25.375 z M 245.3125,22 C 242.82564,22 243.98438,24.859312 247.71875,27.9375 249.76907,29.627542 252.25186,31 253.21875,31 255.18629,31 260.70506,23.3586 259.5625,22.21875 259.16022,21.81743 257.77058,22.7375 256.46875,24.25 253.54227,27.650067 252.00745,27.701286 249,24.5 247.70825,23.125 246.04162,22 245.3125,22 z"/>
</svg>
