<svg xmlns="http://www.w3.org/2000/svg"
     width="24.7" height="64.0"
     viewBox="1297.2644 15.0305 32.7356 84.9695">
  <path d="M 1308.8255,90.9139 C 1305.8339,87.760753 1304,84.923093 1304,83.44728 1304,82.043862 1305.8437,78.99085 1308.4918,76.00921 L 1312.9836,70.95166 1308.4918,65.436917 C 1306.0213,62.403808 1304,59.197736 1304,58.312314 1304,57.426891 1306.025,54.242706 1308.5,51.236346 1310.975,48.229987 1313,45.23356 1313,44.57762 1313,43.921679 1310.9882,41.966984 1308.5294,40.233853 1301.6247,35.366928 1301.2644,30.489319 1307.3118,23.75 1311.1737,19.446202 1313.8977,19.030534 1318.7704,22.001441 1325.2013,25.922408 1325.4161,30.54811 1319.5254,38.262962 1317.5864,40.802343 1316,43.64419 1316,44.578178 1316,45.512166 1317.8,48.229108 1320,50.615826 1322.2,53.002544 1324,55.814873 1324,56.865445 1324,57.916017 1322.425,61.065223 1320.5,63.863681 1318.575,66.662139 1317,69.234016 1317,69.578963 1317,69.923911 1319.025,72.458428 1321.5,75.211224 1325.2674,79.401511 1326,80.875082 1326,84.26299 1326,87.690294 1325.3813,88.898207 1321.9579,92.154836 1319.7347,94.269676 1316.9562,96 1315.7834,96 1314.5189,96 1311.687,93.929936 1308.8255,90.9139 z M 1312.2878,32.5 C 1311.9342,29.073282 1312.1028,27 1312.7351,27 1313.7988,27 1315,31.574285 1315,35.625 1315,38.947573 1316.6744,38.582308 1319.011,34.75 1321.5844,30.529188 1321.5236,27.565673 1318.8114,25.038955 1314.6627,21.173812 1308.2964,23.459888 1305.9386,29.661503 1304.494,33.461032 1307.3193,37.949472 1311.1777,37.984687 1312.6146,37.997802 1312.774,37.210371 1312.2878,32.5 z M 1313.8079,59.020283 C 1313.5887,51.067837 1312.8728,50.146049 1309.6308,53.64238 1308.1839,55.202831 1307,56.851687 1307,57.306504 1307,58.55722 1312.1126,65 1313.105,65 1313.5823,65 1313.8986,62.309127 1313.8079,59.020283 z M 1318.9088,91.547158 C 1324.3217,88.74805 1324.9524,81.919832 1320.2754,76.75183 1317.3026,73.466948 1316.4867,74.674505 1316.7832,81.920172 1316.9469,85.918681 1316.6302,89.110524 1316.0332,89.479464 1315.3973,89.872473 1314.9578,88.653286 1314.8904,86.309017 1314.709,80.007393 1314.2603,75.927001 1313.6856,75.352256 1312.9496,74.616268 1307.0661,81.174885 1307.0293,82.772343 1307.0027,83.926019 1314.675,93 1315.677,93 1315.9093,93 1317.3636,92.346221 1318.9088,91.547158 z M 1319.204,62.25 C 1321.9152,59.116054 1322.0138,56.1274 1319.5021,53.209298 1316.7175,49.974101 1316.2775,50.258754 1315.9616,55.5 1315.4421,64.117026 1316.2085,65.712493 1319.204,62.25 z"/>
</svg>
