<svg xmlns="http://www.w3.org/2000/svg"
     width="24.4" height="64.0"
     viewBox="1922.3606 15.3129 34.1499 89.6186">
  <path d="M 1935.2351,95.614941 C 1933.1789,93.273113 1931.7797,90.214465 1930.9799,86.312922 1930.3244,83.115815 1929.3617,79.15 1928.8404,77.5 1928.3192,75.85 1927.6321,70 1927.3137,64.5 1926.3606,48.039833 1930.8243,30.351297 1937.7633,23.090242 1941.2882,19.401786 1942.0231,19.312881 1944.7087,22.25 1950.0427,28.083511 1952.3612,38.947857 1952.4446,58.5 1952.5105,73.970924 1950.8015,83.817964 1946.5767,92.309331 1942.6911,100.11888 1939.903,100.93148 1935.2351,95.614941 z M 1936.1434,55.079422 1940.7867,52.705079 1944.3751,54.922828 C 1950.3262,58.600809 1952.5041,54.284861 1947.024,49.67361 1942.4733,45.844459 1938.4105,45.308586 1935.5429,48.159286 1934.2479,49.446679 1932.471,51.080242 1931.5942,51.789427 1930.0349,53.050603 1929.2689,58.514151 1930.75,57.810216 1931.1625,57.614168 1933.5895,56.38531 1936.1434,55.079422 z M 1936.2608,67.953965 C 1937.8245,65.450148 1940.0108,65.483789 1944.4099,68.079358 1946.3483,69.223004 1948.399,69.871447 1948.9671,69.520341 1951.9997,67.646094 1947.5957,59.393628 1942.0257,56.513307 1939.2619,55.084076 1938.9935,55.162737 1934.8274,58.622835 1932.4473,60.599599 1930.3537,62.351895 1930.175,62.516826 1929.9962,62.681757 1930.1582,64.872285 1930.535,67.384668 1931.1508,71.491404 1931.4129,71.849407 1933.1303,70.930283 1934.1809,70.367989 1935.5897,69.028646 1936.2608,67.953965 z M 1935.5,45 C 1937.68,42.591165 1939.6663,42.487934 1943.8336,44.566888 1945.5611,45.428677 1947.379,45.883823 1947.8733,45.578325 1948.9678,44.90189 1946.7779,32.797511 1944.6318,27.661093 1943.7904,25.647492 1942.5166,24.000805 1941.801,24.001788 1939.9257,24.004365 1935.4484,31.602396 1933.5926,37.931501 1931.0239,46.692041 1931.7003,49.19864 1935.5,45 z M 1938,83 C 1940.8336,80.783488 1943.0859,80.485851 1944.7129,82.112868 1946.2486,83.648638 1947.6632,82.542087 1948.2785,79.323701 1948.9254,75.939435 1946.8814,72.717578 1942.4159,70.082854 L 1938.9957,68.064899 1935.3892,71.231438 C 1932.0134,74.195446 1931.8211,74.67837 1932.3836,78.781918 1933.3266,85.661813 1933.9747,86.148601 1938,83 z M 1943.4433,92.777494 C 1945.3817,90.010079 1945.4308,86.970341 1943.578,84.44113 1942.1752,82.526124 1942.118,82.528266 1939.328,84.600326 1935.9149,87.135166 1935.2227,90.483665 1937.5746,93.082465 1939.8463,95.592664 1941.5329,95.505022 1943.4433,92.777494 z"/>
</svg>
