<svg xmlns="http://www.w3.org/2000/svg"
     width="32.2" height="64.0"
     viewBox="1458.0000 13.0000 44.0000 87.5765">
  <path d="M 1475.2193,94.156684 C 1472.1065,92.181423 1470,83.214778 1470,71.939614 1470,60.141094 1469.1851,57.276013 1464.4955,52.586406 1463.123,51.213882 1462,49.682346 1462,49.182992 1462,48.683638 1463.3874,44.950683 1465.0831,40.887538 1466.7789,36.824392 1468.8449,31.25 1469.6743,28.5 1471.7821,21.511609 1473.8118,17 1474.8478,17 1477.0942,17 1481.1094,25.3029 1483.5523,35 1485.0072,40.775 1486.4038,45.836137 1486.6559,46.246971 1486.908,46.657805 1488.8406,46.000398 1490.9506,44.786067 1495.7944,41.998316 1498,43.334707 1498,49.057345 1498,57.91299 1494.7377,60.174541 1488.9674,55.31915 L 1485.7814,52.638301 1483.913,55.06915 C 1481.7035,57.943555 1481.6856,58.159897 1483.0806,65.11351 1485.2768,76.060347 1485.7916,82.513878 1484.7998,86.66622 1483.2136,93.30763 1479.0326,96.576475 1475.2193,94.156684 z M 1482,81.49618 C 1482,77.490942 1481.2895,70.778383 1480.4211,66.579382 L 1478.8423,58.944835 1481.5291,54.36006 C 1484.1178,49.942909 1484.1721,49.550884 1483.0141,43.637642 1481.4727,35.766553 1478.1478,25.907579 1476.4143,24.068211 1475.261,22.84444 1474.7729,23.280296 1473.0545,27.068211 1471.9487,29.505695 1471.034,32.000258 1471.022,32.611685 1471.0099,33.223111 1469.6751,36.645417 1468.0557,40.216809 1465.3436,46.198336 1464.8891,51 1467.0351,51 1467.4761,51 1468.8456,52.632118 1470.0784,54.626929 1472.0526,57.821177 1472.3448,59.759752 1472.5278,70.876929 1472.7351,83.470281 1473.6493,87.849958 1476.7963,91.327368 1478.3969,93.096017 1478.5137,93.083788 1480.2267,90.968414 1481.5616,89.319812 1482,86.978205 1482,81.49618 z M 1495,51.166667 C 1495,45.166928 1494.2826,44.385921 1491.3242,47.165168 1488.5773,49.745752 1488.3933,51.672103 1490.655,54.171259 1493.5923,57.416952 1495,56.443522 1495,51.166667 z"/>
</svg>
