<svg xmlns="http://www.w3.org/2000/svg"
     width="22.6" height="64.0"
     viewBox="1152.4371 17.0000 29.5629 83.7262">
  <path d="M 1178,23.4375 C 1176.2526,22.041459 1174.5608,21 1173.5,21 1170.6668,21 1167.0702,25.642579 1166.375,30.1875 1165.8621,33.540195 1164.7619,35.42562 1161.375,38.625 1158.9759,40.891391 1157,43.028891 1157,43.375 1157,44.590723 1159.7686,43.983775 1161,42.5 1163.0835,39.989554 1164,40.809543 1164,45.15625 1164,48.689014 1163.4469,49.768279 1160.25,52.59375 1156.4371,55.963705 1157.5033,57.44004 1161.6562,54.53125 1163.6242,53.152888 1163.7939,53.208138 1164.25,55.59375 1165.0114,59.576928 1163.4104,64.965008 1160.5625,67.9375 1157.7335,70.890325 1158.106,72.540874 1161.2188,70.875 1163.6863,69.554401 1164.1029,70.021255 1164.2188,74.09375 1164.2917,76.662714 1163.581,77.975498 1160.9688,80.15625 1157.5249,83.03135 1157.5729,85.37857 1161.0312,83.21875 1163.9742,81.380799 1165,81.744374 1165,84.625 1165,86.112152 1163.6853,88.732329 1161.9688,90.6875 1160.3066,92.580537 1159.2116,94.545429 1159.5312,95.0625 1160.5594,96.726175 1162.0243,96.066318 1163,93.5 1164.146,90.485669 1165.9151,90.320378 1168.9688,92.96875 1172.543,96.068704 1173.4087,94.208703 1170.125,90.46875 1166.7756,86.654032 1166.7711,82.466786 1170.125,83.53125 1172.8237,84.387787 1172.4793,81.984271 1169.5625,79.53125 1166.6873,77.113276 1164.8863,69 1167.2188,69 1167.982,69 1169.1066,69.512922 1169.7188,70.125 1170.3308,70.737077 1171.3529,70.899889 1172,70.5 1172.7817,70.016832 1171.9459,68.766135 1169.5,66.75 1165.9643,63.83563 1165.8421,63.514372 1166.5,59.09375 1167.3474,53.399719 1167.5226,53.26091 1170.0312,55.53125 1171.4141,56.782801 1172.3658,57.040416 1173.0625,56.34375 1173.7591,55.647085 1172.9473,54.436603 1170.5312,52.59375 1167.4064,50.210308 1167,49.358061 1167,45.4375 1167,40.551528 1167.4541,40.219557 1170.8438,42.59375 1174.5106,45.162153 1174.6417,43.286619 1171.0625,39.59375 1168.0342,36.46939 1167.843,35.848513 1168.5,31.84375 1169.2256,27.421069 1171.4045,24 1173.4688,24 1174.2257,24 1175.9341,25.399004 1177.7188,27.09375 L 1178,23.4375 z"/>
</svg>
