<svg xmlns="http://www.w3.org/2000/svg"
     width="35.9" height="64.0"
     viewBox="442.5186 17.0089 46.4814 82.8420">
  <path d="M 461.51962,87.443587 C 460.42832,82.538382 459.42824,80.059597 458.66924,80.378611 458.02616,80.648901 455.75799,81.436848 453.62886,82.129604 450.14552,83.262986 449.6196,83.200261 448.37886,81.503451 446.51861,78.959399 446.64302,75.412901 448.71561,71.904292 450.8546,68.283261 453.8373,68.150776 457.81763,71.5 459.45173,72.875 461.23153,74 461.77275,74 462.83585,74 469.97859,64.991644 471.96712,61.142938 473.0483,59.050387 472.76596,58.177504 469.45122,53.364653 467.39767,50.38298 465.27693,47.671152 464.73848,47.338369 464.20002,47.005586 462.65597,48.143314 461.30726,49.866654 459.95854,51.589994 458.19026,53 457.37775,53 455.80631,53 462.33266,44.47006 464.55724,43.616407 465.51846,43.247553 472.08156,51.786118 475.40504,57.729333 476.30315,59.335385 474.96759,61.717482 468.41182,70.202372 462.50797,77.843498 462.22883,79.090334 464.37766,88.22129 465.1182,91.367999 465.48617,94.180499 465.19538,94.47129 463.81569,95.850981 463.07505,94.434962 461.51962,87.443587 z M 455.43105,79.133754 C 459.46376,76.767187 459.53402,75.770934 455.85979,73.054461 452.81257,70.801552 452.63307,70.781316 451.34323,72.545286 449.29433,75.347318 449.69511,81.20526 451.91667,80.926912 452.2375,80.886713 453.81897,80.079792 455.43105,79.133754 z M 451.67083,49.276416 C 451.32189,48.711806 452.4907,46.326497 454.26819,43.975729 456.04569,41.624962 457.91615,39.143761 458.42478,38.46195 459.0645,37.604397 457.90504,35.571002 454.66314,31.865024 452.08562,28.918526 450.47306,26.342312 451.07969,26.140104 452.39041,25.703197 459.20676,32.149297 461.02337,35.543662 462.18483,37.713881 461.94886,38.353386 458.39981,42.653842 456.25492,45.252853 454.00619,48.037141 453.40264,48.841149 452.71136,49.762038 452.07051,49.923106 451.67083,49.276416 z M 462.214,27.818215 C 460.4463,25.518233 459,23.268233 459,22.818215 459,21.008932 461.01675,22.196967 463.91583,25.71405 L 466.97726,29.4281 470.97027,25.529027 C 473.16643,23.384537 475.26222,21.928883 475.62757,22.294241 476.41396,23.080627 468.00642,32 466.47877,32 465.90085,32 463.9817,30.118197 462.214,27.818215 z M 471.77734,91.75 C 470.97837,90.5125 469.61874,87.405945 468.75593,84.846544 466.87502,79.26707 467.20879,78.421295 475.44612,67.893623 478.51146,63.975995 481.28706,59.70446 481.61412,58.401324 482.20133,56.061707 480.1048,51.663995 474.38178,43.23065 473.0718,41.300291 472,39.373053 472,38.947899 472,37.710841 482.19229,25.858955 482.76425,26.430918 483.04927,26.715935 481.35905,29.442228 479.00822,32.489346 L 474.73397,38.029562 478.24166,43.764781 C 482.90078,51.382641 485,55.594141 485,57.32352 485,58.106082 481.64037,63.398832 477.53416,69.085187 469.44124,80.292396 469.35803,80.65472 473.1419,88.210162 474.16385,90.250751 475,92.388251 475,92.960162 475,94.74215 473.29606,94.102293 471.77734,91.75 z"/>
</svg>
