<svg xmlns="http://www.w3.org/2000/svg"
     width="24.6" height="64.0"
     viewBox="197.1562 19.4547 30.0613 78.0862">
  <path d="M 201.15625,27.375 201.34375,30.65625 201.4375,32.65625 C 201.9321,31.238847 202.75424,30.360821 204.25,29 207.93989,25.642987 210.46899,25.208148 211.46875,27.75 211.84732,28.7125 212.41533,32.688675 212.71875,36.59375 213.19865,42.769958 213.01298,43.876048 211.375,45.09375 210.33935,45.863675 208.825,47.372023 208,48.4375 206.39177,50.514504 206.25369,50.529218 211.5,48.40625 212.70969,47.91674 213,48.710798 213,52.59375 213,56.797277 212.54532,57.908047 209.3125,61.21875 206.69226,63.902126 206.08673,65 207.25,65 208.15416,65 209.16008,64.55 209.5,64 210.90783,61.722082 212,63.270302 212,67.5625 212,71.329626 211.47489,72.681359 208.96875,75.1875 205.77493,78.381314 205.63555,80.531355 208.8125,77.65625 211.27695,75.425951 211.90556,76.331213 211.25,81.21875 210.86354,84.100045 209.77771,86.111139 207.59375,88.0625 204.28026,91.023105 204.45544,92.991033 207.84375,90.875 209.55806,89.804397 210.19858,89.848955 211.78125,91.28125 213.81158,93.118668 216,93.540876 216,92.09375 216,91.602594 215.28893,90.951724 214.4375,90.625 213.22091,90.15815 212.95326,88.671946 213.1875,83.75 L 213.5,77.5 217,77.75 220.5,78 217.25,75 C 214.51565,72.492541 214,71.310729 214,67.5625 214,62.575322 215.09661,61.252859 217.34375,63.5 219.27408,65.430329 221,65.425471 221,63.5 221,62.675 220.66812,62 220.25,62 219.83188,62 218.34961,60.967912 216.96875,59.6875 214.82672,57.701303 214.52224,56.636328 214.84375,52.59375 215.15701,48.655134 215.47718,47.984862 216.84375,48.5625 217.74797,48.944707 219.625,49.47253 221,49.75 223.21754,50.197492 223.01982,49.811113 219.25,46.28125 216.20112,43.426437 214.97868,41.489254 214.9375,39.40625 214.82373,33.651426 213.97922,27.825575 212.96875,25.9375 211.64,23.454693 209.34393,23.48368 205.0625,26.09375 202.62661,27.57873 201.88973,27.969318 201.15625,27.375 z"/>
</svg>
