<svg xmlns="http://www.w3.org/2000/svg"
     width="33.2" height="64.0"
     viewBox="898.0000 16.0000 45.9849 88.5286">
  <path d="M 902,27.875 902,28 904.25,32.5 C 904.48791,31.343581 905.09098,30.460351 906.3125,29.1875 909.89245,25.457112 917.36471,21.560341 919.40625,22.34375 922.16538,23.40253 924.13336,29.813003 924.71875,39.625 925.24675,48.475029 925.16246,49.002068 922.71875,51.90625 920.48963,54.555408 918,62.268081 918,66.5 918,67.278707 918.70727,69.980967 919.5625,72.5 921.0253,76.808565 920.99566,77.426924 919.0625,82.59375 916.83985,88.534319 916.38088,95.00589 918,98.03125 919.33655,100.5286 921.62401,99.559052 922.34375,96.1875 923.13509,92.480492 926.7023,87 928.3125,87 929.82196,87 933,93.086291 933,95.96875 933,98.93822 934.98191,99.455593 937.34375,97.09375 939.86723,94.570274 939.98488,89.552967 937.71875,80.875 936.60093,76.594393 936.50608,74.186686 937.3125,70.25 938.70609,63.446963 936.98503,57.735031 932,52.75 928.51131,49.261309 928.13343,48.371143 927.53125,41.71875 926.06066,25.473115 923.82461,20 918.65625,20 917.37129,20 913.24848,21.974334 909.46875,24.40625 L 902.59375,28.84375 902,27.875 z M 926.03125,52.25 C 927.11911,51.910795 928.39994,52.513494 930.25,53.96875 935.22399,57.88129 936.86803,66.308634 933.8125,72.28125 933.18166,73.514345 933.52089,75.776274 934.9375,79.5625 937.111,85.371702 937.67931,92 936,92 935.45,92 935,91.562112 935,91.03125 935,89.774351 929.04121,83 927.9375,83 927.4709,83 925.70284,85.025 924,87.5 921.16004,91.627743 919,93.226088 919,91.1875 919,89.190746 922.42026,80.324202 923.8125,78.71875 925.20249,77.115891 925.15542,76.595192 923.1875,73.09375 920.47674,68.270595 920.38284,61.946891 922.96875,56.25 924.04324,53.882844 924.94339,52.589205 926.03125,52.25 z"/>
</svg>
