<svg xmlns="http://www.w3.org/2000/svg"
     width="28.4" height="64.0"
     viewBox="1455.1278 13.6494 40.2160 90.6148">
  <path d="M 1491.3438,72.15625 C 1491.037,73.112725 1490.6533,73.890937 1490.125,74.5625 1487.8069,77.509435 1481.1382,83 1479.875,83 1478.5069,83 1476.2052,76.581046 1475.4688,70.6875 1474.8853,66.01766 1476.0344,51.386026 1477.5312,44.34375 1477.7846,43.151678 1479.5487,41.198595 1481.4375,40.03125 1484.9773,37.843541 1488.8878,30.206912 1487.5625,28.0625 1486.6962,26.660763 1483.6987,26.707625 1482.2812,28.125 1480.2894,30.116795 1479.0013,27.986168 1478.9688,22.6875 1478.9394,17.905634 1478.8212,17.649356 1477.4688,19.4375 1475.7652,21.689689 1475.5337,27.264149 1477.0312,30.0625 1478.1957,32.238148 1481.9518,32.641969 1483.8125,30.78125 1484.782,29.811685 1484.7956,30.234321 1483.875,32.875 1483.1842,34.856645 1481.3732,37.026904 1479.4062,38.1875 1477.5814,39.264121 1475.8646,40.889938 1475.5938,41.8125 1472.366,52.80677 1471.8413,73.027882 1474.5938,80 1477.5235,87.421821 1480.0291,87.849437 1486.375,82 1488.6125,79.9375 1490.5185,78.455811 1491.0625,78.25 L 1491.3438,72.15625 z M 1490.75,85.21875 C 1490.5701,85.361454 1490.476,85.635727 1490.25,85.71875 1489.2875,86.072276 1486.0881,88.533288 1483.1562,91.1875 1480.2244,93.841713 1477.2579,96 1476.5625,96 1474.4728,96 1471.9507,92.480598 1470.3438,87.34375 1465.449,71.697471 1464.6483,57.214397 1468.0625,45.75 1470.1195,38.842885 1470.1206,38.781936 1468.1875,36.65625 1464.9097,33.051938 1464,30.357136 1464,24.46875 1464,20.531336 1463.6458,18.940999 1462.8125,19.21875 1459.1278,20.446987 1460.3323,32.050982 1464.5938,36.3125 L 1466.9688,38.71875 1464.8438,48.59375 C 1462.9246,57.539658 1462.8447,59.510311 1463.8438,69 1465.1966,81.850771 1469.1652,95.308087 1472.25,97.46875 1476.241,100.26414 1478.5089,99.30361 1486.2812,91.53125 1488.1769,89.635661 1490.0651,88.165152 1490.625,88.09375 L 1490.6562,87.34375 1490.75,85.21875 z M 1472,19.125 C 1471.5755,18.647008 1470.943,19.413037 1470.3438,21.75 1469.227,26.10566 1469.4941,30.66053 1470.9688,32.4375 1471.8738,33.528054 1472.6459,33.760417 1473.3125,33.09375 1473.9792,32.427084 1473.8944,31.571347 1473.0312,30.53125 1472.1535,29.473586 1471.9125,27.346343 1472.3125,23.96875 1472.6272,21.311517 1472.4245,19.602992 1472,19.125 z"/>
</svg>
