<svg xmlns="http://www.w3.org/2000/svg"
     width="18.2" height="64.0"
     viewBox="1178.0573 15.2166 24.5677 86.3387">
  <path d="M 1197.3438,91.28125 1197.8438,87 C 1197.8003,86.944491 1197.6242,86.830969 1197.5938,86.78125 1196.4922,84.981607 1196.8447,84.075615 1198.1875,83.96875 L 1198.625,80.375 1197.9375,80.09375 1198.125,60.78125 C 1198.3369,40.469803 1197.9174,33.937008 1195.9062,26.84375 1194.2298,20.930888 1192.624,19.216598 1190.4375,21.03125 1188.4074,22.716096 1187.3428,25.348823 1184.75,35 1182.2267,44.392633 1182.0573,64.525683 1184.4062,76.5 1185.9066,84.148815 1189.3857,94.473611 1191.125,96.4375 1192.115,97.555309 1196,94.291626 1196,92.34375 1196,91.401839 1196.3497,91.061514 1197.3438,91.28125 z M 1191.9062,24.6875 C 1192.6073,25.157208 1193.3139,26.973433 1194.1562,30.25 1195.6508,36.063395 1196.1054,83.291921 1194.7188,88.25 1193.961,90.959777 1192.6,91.784261 1191.5938,90.15625 1191.3108,89.698542 1189.9094,85.761042 1188.4688,81.40625 1186.1435,74.377534 1185.843,71.759514 1185.6875,58 1185.5122,42.487087 1186.5403,34.281691 1189.5938,27.1875 1190.4998,25.082326 1191.2052,24.217792 1191.9062,24.6875 z"/>
</svg>
