<svg xmlns="http://www.w3.org/2000/svg"
     width="40.4" height="64.0"
     viewBox="1887.6285 15.4346 57.5731 91.1114">
  <path d="M 1929.6809,99.25 C 1929.4404,98.8375 1929.2317,95.205297 1929.217,91.178438 1929.2022,87.151578 1928.9157,83.582337 1928.5801,83.24679 1928.2446,82.911244 1926.4788,84.0821 1924.6561,85.848694 L 1921.3422,89.060682 1914.1988,85.530341 C 1910.27,83.588653 1906.8622,82 1906.6259,82 1906.3897,82 1905.8771,84.8125 1905.4868,88.25 1905.0965,91.6875 1904.3299,95.05333 1903.7831,95.729623 1902.5499,97.254935 1893.3204,97.166838 1892.2643,95.619674 1891.8439,95.003854 1891.6285,77.697467 1891.7855,57.161038 L 1892.0709,19.822076 1897.2855,20.500861 C 1903.1454,21.263663 1905,22.940589 1905,27.476498 1905,30.281189 1905.5929,30.863133 1911.3365,33.695418 1914.8216,35.413993 1918.1301,36.523078 1918.6888,36.16005 1919.2474,35.797023 1921.6735,32.184012 1924.0802,28.131138 1926.4868,24.078263 1929.0976,20.516058 1929.8818,20.215127 1931.9158,19.434585 1937.642,26.048112 1938.9213,30.655575 1941.2016,38.867549 1939.4522,51.066258 1935.6548,53.433079 1933.3829,54.849154 1932.426,53.244433 1931.6536,46.723108 1930.7701,39.262908 1929.5386,38.710151 1925.0302,43.75 1920.5553,48.75225 1918.6666,48.989063 1911.1507,45.490231 1908.2086,44.120604 1905.6606,43 1905.4886,43 1904.4505,43 1903.9024,52.448942 1904.5014,60.018199 L 1905.2036,68.889164 1911.5388,71.944582 C 1915.0231,73.625062 1918.4648,74.996776 1919.187,74.992835 1919.9091,74.988894 1922.7219,72.288894 1925.4375,68.992835 1928.1531,65.696776 1930.881,63 1931.4994,63 1935.5704,63 1939.8097,76.975212 1938.4723,85.986825 1937.2878,93.968097 1931.602,102.54597 1929.6809,99.25 z M 1902.3197,91.25 C 1902.9523,88.103389 1902.1486,31.174861 1901.4021,26.25 1900.9603,23.336178 1900.5665,23 1897.5951,23 L 1894.2809,23 1894.5901,58.25 C 1894.7602,77.6375 1894.922,93.6125 1894.9497,93.75 1894.9773,93.8875 1896.5225,94 1898.3834,94 1901.2737,94 1901.8474,93.599203 1902.3197,91.25 z M 1937.3266,42.89018 C 1938.1166,36.219812 1936.4681,28.797084 1933.4807,25.573655 1930.7888,22.669114 1929.4633,22.350347 1928.6703,24.416869 1927.1952,28.260722 1919.3446,38.998797 1918.0156,38.990231 1917.182,38.984858 1914.0928,37.859858 1911.1507,36.490231 1908.2086,35.120604 1905.6211,34 1905.4007,34 1905.1803,34 1905,35.119355 1905,36.487455 1905,39.1876 1909.5149,42.631377 1916,44.877761 1919.4832,46.084323 1919.5226,46.064751 1924.2182,40.795068 1926.8132,37.88278 1928.9507,35.1625 1928.9682,34.75 1928.9857,34.3375 1929.6135,34 1930.3634,34 1931.2319,34 1932.1933,36.268247 1933.0125,40.25 1933.7197,43.6875 1934.4827,46.8375 1934.7082,47.25 1935.7768,49.205371 1936.7756,47.54225 1937.3266,42.89018 z M 1935.5,81.101388 C 1935.5,71.172746 1934.0947,66 1931.3974,66 1930.7018,66 1928.0115,68.7 1925.4188,72 1922.8262,75.3 1920.3342,78 1919.881,78 1919.4278,78 1916.4809,76.860727 1913.3324,75.468282 1906.9719,72.655366 1904.7008,72.871886 1905.1799,76.245529 1905.4119,77.879746 1907.2622,79.394146 1911.9052,81.75 1915.428,83.5375 1919.2932,85 1920.4945,85 1921.728,85 1924.1013,83.436605 1925.9473,81.407984 1929.8215,77.150565 1931.0854,77.818972 1931.5263,84.358232 1931.9665,90.887779 1932.9184,93.481586 1934.3493,92.050663 1935.0603,91.339687 1935.5,87.155789 1935.5,81.101388 z"/>
</svg>
