<svg xmlns="http://www.w3.org/2000/svg"
     width="20.9" height="64.0"
     viewBox="2740.2070 15.0146 28.0336 86.0108">
  <path d="M 2764.1562,77.375 C 2763.8736,75.611389 2763.7183,71.571511 2763.8438,66.5 2764.2406,50.460082 2762.4647,32.946989 2759.875,27.4375 2757.687,22.782882 2752.6104,19.014626 2750.875,20.75 2750.376,21.248956 2749.7975,31.052152 2749.5938,42.5625 2749.3726,55.055991 2748.5926,67.328713 2747.6562,73 2745.1264,88.323843 2744.207,95.464382 2744.6562,96.21875 2745.1365,97.025377 2747.9743,96.131188 2748.0312,95.15625 2748.052,94.802594 2749.6103,92.734189 2751.4688,90.5625 L 2754.8438,86.59375 2757.125,91.3125 C 2758.3805,93.896689 2759.7666,96 2760.2188,96 2760.6709,96 2761.5692,94.7625 2762.2188,93.25 2762.8684,91.7375 2763.4947,90.352184 2763.5938,90.1875 2763.6038,90.17075 2763.9568,90.399473 2764,90.40625 L 2764,85.90625 C 2763.3882,85.127596 2763,84.440055 2763,83.9375 2763,82.840223 2763.3602,82.518616 2764,82.46875 L 2764,78 2764.1562,77.375 z M 2753.875,24.21875 C 2756.2029,24.667054 2758.8436,30.968715 2759.9688,38.75 2760.5065,42.468851 2760.9579,53.88125 2760.9688,64.125 2760.9937,87.607352 2760.1098,92.913961 2757.1875,86.5 2755.8449,83.553466 2754.5628,83.352919 2752.4375,85.75 2751.5842,86.7125 2749.9849,88.625 2748.875,90 L 2746.875,92.5 2747.4062,89.875 C 2749.8365,78.427057 2752.3563,49.181854 2752.3125,32.71875 2752.2924,25.169851 2752.4957,23.953114 2753.875,24.21875 z"/>
</svg>
