<svg xmlns="http://www.w3.org/2000/svg"
     width="17.0" height="64.0"
     viewBox="862.1618 16.8086 23.2008 87.5239">
  <path d="M 868,52 867.625,56.65625 C 867.88006,57.035401 868.08743,57.618326 868.25,58.46875 868.49918,59.772252 868.20117,60.908331 867.15625,62.15625 L 866.78125,66.375 C 866.90271,66.327068 867.49302,66 867.53125,66 867.78674,66 868,73.188101 868,81.96875 868,96.72924 868.14915,98.011657 869.9375,98.96875 872.16322,100.15992 877.97291,100.3325 879.65625,99.25 881.18449,98.267234 881.36258,25.525456 879.84375,22.6875 878.93641,20.992118 878.02494,20.808602 872.8125,21.28125 869.5265,21.579215 866.65072,22.036775 866.40625,22.28125 866.16177,22.525724 866.70249,28.81333 867.625,36.25 868.54751,43.68667 869.06464,50.430072 868.75,51.25 868.67682,51.440711 868.22427,51.754018 868,52 z M 869.71875,24 873.25,24 C 876.14134,24 876.8885,24.436621 877.375,26.375 878.15808,29.495059 878.24549,95.774456 877.46875,97.03125 876.73236,98.22275 873.97268,98.276116 872.15625,97.125 871.10021,96.455761 870.83948,92.701492 871,79.875 871.43589,45.045653 871.39689,40.245079 870.5625,32.25 L 869.71875,24 z"/>
</svg>
