<svg xmlns="http://www.w3.org/2000/svg"
     width="52.4" height="64.0"
     viewBox="1271.8431 10.0000 76.1569 93.0000">
  <path d="M 1333.5625,50.59375 C 1331.6963,52.204455 1329.8264,53.125306 1328.375,52.84375 1327.4315,52.660714 1325.2387,50.475 1323.5,48 1319.9797,42.988731 1317.5672,42.141462 1313.1875,44.40625 1310.4143,45.840352 1310.1956,45.82334 1309.7188,44 1308.8573,40.706356 1310.7096,34.916664 1313.5938,31.90625 1315.7229,29.683793 1316.4262,27.813071 1316.7812,23.53125 1317.0332,20.49408 1316.8641,18 1316.4062,18 1315.9484,18 1313.4207,20.26406 1310.7812,23.03125 1306.8088,27.196169 1305.661,27.884545 1304.125,27.0625 1301.8083,25.822632 1299.5642,20.600617 1300.4062,18.40625 1301.1079,16.577907 1299.43,14 1297.5312,14 1295.4842,14 1287.7684,19.643563 1286.375,22.15625 1285.6563,23.452336 1285.0508,25.943929 1285.0312,27.71875 1284.986,31.848561 1287.8653,33.852595 1294.5312,34.28125 L 1299.5,34.59375 1299.8125,39.375 1300.125,44.1875 1296.8125,43.34375 C 1291.2885,41.96149 1286.2697,42.422041 1283.9375,44.53125 1278.7654,49.208825 1275.8431,61.240958 1279.5312,62.65625 1281.1921,63.293567 1285,60.421327 1285,58.53125 1285,57.894393 1286.3613,56.068717 1288.0312,54.46875 1290.4686,52.133675 1291.4058,51.757836 1292.7812,52.625 1296.4092,54.912219 1296.1408,68.994371 1292.4062,72.09375 1290.8658,73.372231 1287.8052,71.979916 1283.6562,68.125 L 1280.8438,65.5 1278.9062,67.875 C 1276.1952,71.205432 1276.4364,72.047143 1281.5,77.5625 1283.975,80.258286 1286,82.751783 1286,83.09375 1286,84.008209 1280.3069,91.699686 1279.0625,92.46875 1278.4762,92.83112 1278,93.544959 1278,94.0625 1278,98.120473 1287.37,89.082461 1288.5,83.9375 1289.0201,81.569582 1288.4789,80.478869 1285.0625,77.0625 1281.5514,73.551333 1280.0124,71 1281.4062,71 1281.6305,71 1284.1135,72.176046 1286.9062,73.625 1291.1806,75.842573 1292.2321,76.072821 1293.5625,74.96875 1296.3263,72.674938 1298.0554,68.121658 1298.6562,61.6875 1299.1946,55.923071 1299.034,55.192963 1296.5312,52.21875 1295.0394,50.445689 1293.037,49 1292.0938,49 1290.3539,49 1285.6653,53.462839 1282.6562,57.96875 L 1281,60.4375 1281,56.4375 C 1281,52.549126 1282.815,48.843935 1285.9688,46.21875 1287.0031,45.357849 1289.1548,45.125626 1292.5,45.5 1303.6579,46.748738 1302.5591,47.424264 1302.1562,39.5 1301.9605,35.65 1301.3431,32.225765 1300.7812,31.875 1300.2193,31.524234 1298.0818,31.443701 1296.0312,31.71875 1287.8465,32.816562 1285.3162,27.111543 1291.0938,20.53125 1294.8643,16.23689 1298,15.811092 1298,19.59375 1298,22.584511 1300.5358,28.35459 1302.5938,30.0625 1304.1957,31.392043 1307.6687,29.555157 1311.6875,25.21875 1312.9712,23.833639 1314.2772,22.933461 1314.5938,23.25 1315.5944,24.250631 1311.7943,31.081835 1309.3438,32.6875 1307.2564,34.055203 1307,35.000703 1307,41.0625 1307,44.816785 1307.4341,48.138291 1307.9688,48.46875 1308.5035,48.799209 1310.8339,48.220906 1313.1562,47.15625 1318.068,44.904561 1319.024,45.097011 1321.2188,48.8125 1325.4042,55.897922 1329.976,56.922872 1335.2188,52.1875 L 1333.5625,50.59375 z M 1296.0625,87.03125 C 1295.2092,87.051791 1291.8636,89.526791 1288.625,92.53125 1284.2698,96.571584 1283.2247,98 1284.6562,98 1285.7207,98 1288.3518,96.2 1290.5,94 1292.6482,91.8 1295.0309,90 1295.8125,90 1296.594,90 1299.0401,92.025 1301.2188,94.5 1303.6275,97.236449 1306.0228,99 1307.3438,99 1308.5383,99 1311.9828,96.975 1315,94.5 1318.0172,92.025 1321.0111,90 1321.6562,90 1322.3015,90 1324.2576,91.8 1326,94 1328.4294,97.067314 1329.8651,98 1332.1562,98 1335.7269,98 1344,93.394447 1344,91.40625 1344,89.490362 1343.4698,89.611312 1339.2188,92.5 1334.1747,95.927516 1332.0459,95.655444 1327.5,91 1325.3518,88.8 1322.9133,87.016595 1322.0625,87.03125 1321.2116,87.045905 1317.8209,89.070905 1314.5625,91.53125 1311.3042,93.991595 1308.0858,96 1307.4062,96 1306.7267,96 1304.265,93.975 1301.9062,91.5 1299.5474,89.025 1296.9157,87.010708 1296.0625,87.03125 z M 1338.1875,55.0625 C 1335.262,58.46092 1332.1013,61.405501 1330.1562,62.125 1328.5384,62.723512 1326.891,62.006599 1322.9688,58.90625 L 1317.9062,54.875 1314.6875,56.71875 C 1312.9276,57.739987 1310.6336,60.211349 1309.5625,62.1875 1307.7901,65.457791 1307.738,66.144789 1309,69.96875 1310.6165,74.866539 1309.9896,76.36499 1304.9062,79.8125 1303.0329,81.083044 1301.3948,82.442284 1301.25,82.84375 1300.8898,83.841985 1307.5255,91 1308.8125,91 1309.3813,91 1312.4492,88.745113 1315.6562,86 1318.8633,83.254887 1321.8426,81.004887 1322.25,81 1322.6575,80.995113 1324.0075,82.6065 1325.25,84.5625 1327.2834,87.763484 1327.8357,88.066594 1330.9375,87.59375 1332.833,87.304813 1335.5309,85.937896 1336.9062,84.5625 1339.5816,81.887256 1339.0225,79.745999 1336.1875,81.78125 1330.9292,85.556211 1329.8664,85.614836 1327.0312,82.21875 1325.5521,80.447006 1323.5257,79 1322.5,79 1321.4743,79 1317.9971,81.067254 1314.7812,83.59375 1309.9958,87.353445 1308.668,87.964056 1307.4688,86.96875 1305.3619,85.220197 1305.6478,83.693113 1308.5938,80.9375 1312.7876,77.014775 1313.2713,75.388694 1311.9062,70.0625 1310.7688,65.624382 1310.8501,65.012639 1312.9062,62.125 1315.6783,58.23196 1317.5793,58.198313 1322.5625,61.96875 1327.0571,65.369588 1330.3869,65.745615 1334.0938,63.25 1335.8203,62.087637 1338.0489,59.753405 1340.2812,57.0625 L 1338.1875,55.0625 z M 1339.8125,85 C 1338.4393,85 1334,88.965503 1334,90.1875 1334,91.709754 1336.3515,91.007145 1338.6875,88.8125 1341.227,86.426779 1341.6479,85 1339.8125,85 z"/>
</svg>
