<svg xmlns="http://www.w3.org/2000/svg"
     width="28.5" height="64.0"
     viewBox="2421.2333 15.3392 36.7713 82.6608">
  <path d="M 2448.5753,89.167035 C 2446.1459,83.779474 2446.0279,68.196312 2448.3676,61.728971 2449.803,57.761045 2449.9174,56.004757 2449.0468,51.295312 2447.0599,40.547111 2448.4914,24.496939 2451.6724,21.856956 2452.8539,20.876397 2452.9497,21.382241 2452.2862,25.097511 2450.9367,32.654577 2451.3201,52.480082 2452.8515,54.322999 2454.0046,55.710707 2453.8578,56.650264 2451.8515,60.724705 2449.854,64.781058 2449.5258,66.85499 2449.6715,74.5 2449.7716,79.755512 2450.4997,85.32054 2451.4215,87.875727 2453.3286,93.16246 2453.3213,93 2451.6519,93 2450.9104,93 2449.526,91.275166 2448.5753,89.167035 z M 2440.2879,91.792382 C 2436.4914,87.016126 2435.9707,67.296207 2439.3886,57.730106 2440.8496,53.640918 2440.9251,52.107707 2439.9176,46.986467 2438.5525,40.047947 2439.0973,26.527335 2440.8751,23.221992 2442.9635,19.339172 2443.7928,21.680919 2442.2919,27.222838 2440.5684,33.587113 2441.1176,44.952413 2443.4145,50.449496 2444.8738,53.942217 2444.8744,54.371364 2443.4212,55.433926 2441.2429,57.02679 2439.0345,67.052204 2439.0156,75.434276 2439.0042,80.485474 2439.5772,83.560806 2441.1253,86.75893 2442.495,89.58824 2442.9066,91.493399 2442.283,92.117036 2441.6593,92.740672 2440.95,92.625236 2440.2879,91.792382 z M 2429.237,89.75 C 2425.2333,81.559061 2425.6036,70.479926 2430.2423,59.670207 2432.2222,55.056434 2432.2432,54.609171 2430.7113,49.670207 2428.3079,41.921345 2427.7168,33.244915 2429.2063,27.576996 2430.7008,21.889694 2433.4575,19.702944 2432.2411,25.169643 2431.8335,27.001339 2431.5027,32.55 2431.506,37.5 2431.5107,44.478194 2431.96,47.398581 2433.506,50.5 L 2435.5,54.5 2433.255,59 C 2428.5065,68.518395 2427.9283,81.823583 2431.9659,88.666709 2434.3419,92.693826 2434.5112,94 2432.6572,94 2431.9187,94 2430.3796,92.0875 2429.237,89.75 z"/>
</svg>
