<svg xmlns="http://www.w3.org/2000/svg"
     width="40.4" height="64.0"
     viewBox="383.2028 16.0000 59.2519 93.7947">
  <path d="M 393.13207,99.440772 C 388.06752,93.002234 387.2028,79.415605 391.16286,68.5 393.56456,61.879892 393.62066,61.282919 392.1967,57.5 389.95852,51.554054 390.05947,37.683303 392.38592,31.5 394.82383,25.020432 398.59654,20 401.02784,20 404.33519,20 406.34311,24.355839 405.60403,29.927287 405.00968,34.407747 405.17871,34.995412 407.61239,36.909745 413.40606,41.467051 418.14743,38.926471 425.60472,27.26885 427.45846,24.370983 429.57731,22 430.31326,22 434.88214,22 438.45473,31.946605 437.83367,42.93787 437.50753,48.709748 436.91934,50.653899 434.42588,54.201657 432.76839,56.559974 430.70304,58.626091 429.8362,58.793029 428.4906,59.052167 428.3281,58.102423 428.72495,52.298276 428.99003,48.421391 428.70176,44.244225 428.05414,42.577727 L 426.91851,39.655453 422.20925,44.212133 C 415.11287,51.078599 414.0627,51.406662 408.55429,48.47781 405.99122,47.115014 403.69298,46 403.44709,46 402.35053,46 403.15807,54.779445 404.48942,57.332036 405.74504,59.739431 405.76415,60.564112 404.61691,62.832036 403.87462,64.299416 402.97671,67.107813 402.62156,69.072918 402.02205,72.389999 402.281,72.888579 406.23791,76.035895 408.58206,77.900427 410.65,79.780114 410.83333,80.212977 411.01667,80.64584 412.21247,81 413.49066,81 415.03032,81 417.40197,79.228145 420.51784,75.75 423.10459,72.8625 425.80761,70.161783 426.52457,69.748406 428.70925,68.488774 430.98229,70.044952 433.14241,74.279143 434.87021,77.665921 435.08964,79.338632 434.51275,84.725497 433.24208,96.590866 427.0269,105.79466 427.84537,94.59894 428.17031,90.154206 426.56861,84 425.08689,84 424.71813,84 422.42903,86.025 420,88.5 417.57097,90.975 414.65674,93 413.52393,93 411.18198,93 404.1549,88.545397 402.1933,85.817299 399.87724,82.596237 399.09377,83.848294 398.79381,91.25 398.35784,102.00789 396.47349,99.811188 396.63217,88.730035 396.73389,81.626479 397.44512,77.273231 399.7193,69.834657 401.96807,62.479179 402.42233,59.730859 401.62011,58.334657 400.30722,56.04966 400.55311,40.305599 401.95947,36.606599 403.36968,32.897469 403.28521,23.294303 401.83449,22.397708 399.95082,21.233535 396.26676,26.835002 394.41371,33.680715 392.44355,40.959089 392.89826,53.085141 395.32367,57.946988 396.69634,60.698575 396.61289,61.365866 394.16575,67.206139 390.48826,75.982737 390.56091,87.606912 394.341,95.24508 397.20633,101.03486 396.4502,103.65909 393.13207,99.440772 z M 431.98469,84.297053 C 432.00138,76.446528 430.58577,72 428.06976,72 427.1847,72 424.70661,74.214271 422.56289,76.920602 415.74989,85.52167 413.72968,85.698723 405.2927,78.434179 L 401.0854,74.811544 400.38393,77.606444 C 399.75972,80.093496 400.27821,80.928757 405.09123,85.18964 412.11094,91.40407 414.38122,91.440734 419.85326,85.428035 425.92402,78.75746 427.89008,79.772076 429.5473,90.430814 430.49132,96.502454 431.96663,92.789792 431.98469,84.297053 z M 434.69486,47.299084 C 436.07202,42.930224 436.17052,41.034871 435.26845,36.262205 433.2021,25.32963 430.56574,22.100845 427.90983,27.25 427.27153,28.4875 424.9684,31.839911 422.79176,34.699801 417.93793,41.077268 413.65906,42.909291 409.11089,40.557344 405.22076,38.54568 403.99958,38.591728 404.00179,40.75 404.00351,42.438965 411.53314,48 413.81827,48 414.42798,48 417.8409,45.274028 421.40254,41.942285 L 427.87826,35.884569 429.39737,38.203023 C 431.1604,40.89374 431.66084,46.788433 430.61114,52.5 429.92082,56.256154 429.97221,56.380325 431.45408,54.536879 432.32203,53.457163 433.78037,50.200155 434.69486,47.299084 z"/>
</svg>
