<svg xmlns="http://www.w3.org/2000/svg"
     width="22.2" height="64.0"
     viewBox="24.7361 16.9062 31.2014 90.0938">
  <path d="M 51.25,84.875 C 50.098895,83.397828 48.052366,81.074966 46.46875,79.5 40.804453,73.866641 40.681416,73.5482 43.28125,70.375 44.570875,68.800962 46.642164,65.821632 47.875,63.78125 50.397661,59.606166 50.118127,58.55064 44.71875,51.8125 L 41.75,48.09375 45.90625,42.875 C 49.431291,38.447736 49.985541,37.159773 49.4375,34.5625 48.641721,30.791145 45.92294,26.227038 42.6875,23.1875 L 40.25,20.90625 37.25,24.6875 C 33.514328,29.434256 30,36.313871 30,38.84375 30,39.898317 30.701234,41.347713 31.5625,42.0625 32.423765,42.777286 33.75572,44.594041 34.53125,46.09375 35.841309,48.627126 35.697286,49.277289 32.4375,55.53125 29.439925,61.282153 29.141763,62.495416 30.28125,63.875 31.01481,64.763126 33.036452,67.184965 34.78125,69.25 38.383932,73.513913 38.271242,74.335942 33.09375,82.5 28.736116,89.371275 29.028419,91.450556 35.21875,97.71875 38.087462,100.62355 40.674962,102.99998 40.96875,103 41.262538,103.00003 42.85,101.41904 44.5,99.5 L 47.5,96.03125 48,96.25 48,96 49.96875,93.71875 C 49.688197,93.327899 49.5,92.921322 49.5,92.46875 49.5,91.310475 50.315645,90.969554 51.9375,90.84375 L 51.25,84.875 z M 39.9375,25.3125 C 42.060225,25.78894 45.870037,30.840105 46.5625,34.53125 47.175734,37.800069 46.892227,38.555789 43.4375,42.09375 41.331545,44.250444 39.264487,46 38.875,46 37.482153,46 33,39.794139 33,37.875 33,35.523016 37.491849,26.434906 39.15625,25.40625 39.376066,25.270396 39.634254,25.244437 39.9375,25.3125 z M 39,50 C 40.187651,50 47.005453,58.684958 46.96875,60.15625 46.950478,60.888687 45.712978,63.250339 44.21875,65.40625 42.724521,67.562162 40.987293,69.516398 40.375,69.71875 38.630181,70.295385 33,63.202339 33,60.4375 33,57.963557 37.575763,50 39,50 z M 39.125,77 C 39.589514,77 41.55123,78.6875 43.46875,80.75 47.695184,85.295985 47.950807,88.564819 44.5,94.03125 43.118101,96.22032 41.623121,98 41.1875,98 39.430859,98 33,91.106279 33,89.21875 33,86.809493 37.915476,77 39.125,77 z"/>
</svg>
