<svg xmlns="http://www.w3.org/2000/svg"
     width="58.5" height="64.0"
     viewBox="1569.0312 52.7812 45.8672 50.2188">
  <path d="M 1579.3125,57.15625 1579.3125,57.1875 1579,60.5625 C 1579.3801,60.535545 1579.9071,60.435223 1580.0625,60.53125 1580.522,60.815254 1580.274,62.483396 1579.5312,64.25 1579.1472,65.163382 1578.0764,66.366505 1576.6875,67.625 L 1573.3438,72.65625 1573.0312,73.375 1574,72.8125 1574,78.25 C 1574,81.246582 1574.3029,86.46307 1574.6562,89.84375 1575.0646,93.751276 1575.7368,96 1576.5312,96 1577.4847,96 1577.6533,93.557138 1577.25,85.65625 1576.7374,75.612656 1576.8176,75.114499 1579.75,69.34375 1581.9571,65.000403 1582.4153,62.314444 1582.5625,57.0625 L 1579.3438,57.15625 1579.3125,57.15625 z M 1586,72 C 1585.3827,72 1585,77.166667 1585,85.5 1585,93.833333 1585.3827,99 1586,99 1586.6173,99 1587,93.833333 1587,85.5 1587,77.166667 1586.6173,72 1586,72 z M 1589.1562,56.875 C 1589.2668,61.985025 1589.7031,64.138006 1592.1562,68.125 1595.2918,73.22091 1595.3295,73.364762 1595.0938,85.125 1594.8806,95.752695 1595.0311,97 1596.5625,97 1598.0376,97 1598.1875,96.277412 1597.6562,91.75 1597.3173,88.8625 1597.3176,84.802687 1597.6562,82.71875 1598.2619,78.991648 1598.3337,78.912569 1602.4375,79.125 1604.7321,79.243776 1607.1475,79.047883 1607.7812,78.65625 1610.8984,76.729683 1609.7588,64 1606.4688,64 1605.7055,64 1603.5354,65.35 1601.6562,67 1599.7769,68.65 1597.8261,70 1597.3125,70 1596.7989,70 1595.3888,68.262385 1594.1875,66.125 1592.7753,63.612192 1592.352,60.999158 1592.1875,56.78125 L 1589.1562,56.875 z M 1605.0625,67.53125 C 1605.5612,67.454105 1605.8652,67.781165 1606.25,68.46875 1606.731,69.32825 1606.9839,71.505603 1606.8125,73.28125 1606.5009,76.508104 1604.389,77.656824 1601.25,76.34375 1599.0512,75.423955 1599.8739,71.244399 1602.6875,69.03125 1603.8699,68.101218 1604.5638,67.608395 1605.0625,67.53125 z"/>
</svg>
