<svg xmlns="http://www.w3.org/2000/svg"
     width="55.9" height="64.0"
     viewBox="1509.7360 20.0089 73.5765 84.1947">
  <path d="M 1573.0312,73.375 1573.3438,72.65625 1576.6875,67.625 C 1572.8854,71.070001 1566.5154,75 1563.9375,75 1562.9159,75 1560.142,73.153225 1557.7812,70.90625 1552.9961,66.351585 1552.4,66.449621 1547.7812,72.15625 1545.0032,75.588679 1544.9678,75.68307 1546.4688,79.9375 1548.2371,84.949652 1548.4095,88.366288 1547,91 1545.7789,93.281602 1547.2862,94.545668 1548.9062,92.59375 1550.4102,90.7815 1550.5556,82.891836 1549.125,80.21875 1548.5071,79.064136 1548,77.433482 1548,76.59375 1548,75.129061 1551.6911,71 1553,71 1553.3473,71 1555.4697,72.575 1557.7188,74.5 1562.611,78.687532 1563.8056,78.780032 1569.5625,75.40625 L 1573.0312,73.375 z M 1579,60.5625 1579.3125,57.1875 1571.1875,60.65625 1562.8438,64.25 1558.875,60.375 1554.9062,56.5 1551.0625,58.71875 1547.2188,60.9375 1546.625,58.71875 C 1545.6676,55.1475 1545.8986,49 1547,49 1547.5574,49 1548.9052,49.554545 1549.9688,50.21875 1551.6468,51.266657 1552.3548,50.924214 1555.4375,47.75 1557.3915,45.738056 1559,43.864761 1559,43.5625 1559,42.147362 1556.118,43.247557 1554.0312,45.46875 1551.794,47.850117 1551.5942,47.869069 1548.9062,46.28125 1546.5979,44.917689 1545.8586,44.861795 1544.5625,45.9375 1542.5359,47.619394 1542.3751,59.776636 1544.3438,62.46875 1545.6403,64.24205 1545.832,64.223444 1549.8438,61.96875 L 1554.0312,59.625 1557.8125,63.3125 C 1562.1684,67.565965 1563.0987,67.720166 1567.5,65 1571.0066,62.832803 1576.6967,60.725839 1579,60.5625 z M 1538.9375,24.03125 C 1538.0718,24.008897 1535.147,25.564632 1532.4688,27.46875 L 1527.625,30.9375 1524.4375,28.96875 C 1520.6625,26.63568 1520,26.549656 1520,28.40625 1520,29.177239 1521.4625,30.730255 1523.25,31.875 1525.0375,33.019745 1526.867,33.959485 1527.3125,33.96875 1527.758,33.978016 1530.1977,32.425 1532.7188,30.5 1535.2399,28.575 1537.8083,27 1538.4375,27 1539.0667,27 1541.127,28.341103 1543.0312,29.96875 1544.9355,31.596398 1547.3206,32.946398 1548.3125,32.96875 1550.5042,33.018141 1556.9999,27.990326 1557,26.25 1557,24.343784 1555.4629,24.743948 1552.1875,27.5 1550.5534,28.875 1548.8038,30 1548.3125,30 1547.8211,30 1545.873,28.658897 1543.9688,27.03125 1542.0646,25.403602 1539.8032,24.053602 1538.9375,24.03125 z M 1539.9062,33.75 C 1538.3808,33.660967 1536.9525,34.572807 1534.4688,36.46875 1531.934,38.403628 1529.5348,40 1529.1562,40 1528.7778,40 1526.8107,39.118985 1524.7812,38.03125 1522.3881,36.748586 1520.8561,36.4165 1520.4375,37.09375 1520.0825,37.668076 1519.9637,38.238433 1520.1562,38.375 1520.3488,38.511568 1522.075,39.619926 1524,40.8125 1528.6679,43.704344 1529.5943,43.58238 1534.5,39.5625 1538.5442,36.248605 1538.7912,36.174888 1541.5938,37.625 1543.1929,38.452424 1545.4755,40.05013 1546.6562,41.15625 L 1548.7812,43.15625 1552.9062,40.5625 C 1557.0263,37.961598 1558.1923,36 1555.625,36 1554.8674,36 1553.6847,36.675 1553,37.5 1551.327,39.515815 1548.7621,39.396961 1545.875,37.15625 1543.0315,34.949386 1541.4317,33.839033 1539.9062,33.75 z M 1520,43.125 C 1519.33,42.942599 1519,43.360641 1519,44.40625 1519,45.182359 1520.441,47.030435 1522.1875,48.5 1525.3049,51.123124 1526.1394,51.207688 1531.75,49.46875 1533.917,48.797105 1534,49.005916 1534,55 1534,60.538686 1533.8074,61.11841 1532.25,60.46875 1525.432,57.624663 1525.2457,57.626582 1522.625,59.34375 1517.1105,62.956988 1513.736,75.876158 1517.5,79 1518.7567,80.043028 1519.6212,79.533617 1522.8125,75.9375 1525.5255,72.880314 1527.1336,71.848095 1528.3438,72.3125 1531.0624,73.355717 1531.3426,75.698268 1529.125,78.8125 1527.9929,80.402422 1526.807,83.451651 1526.4688,85.59375 1525.6243,90.94239 1528.9509,95.857401 1535.0312,98.1875 1540.2392,100.18329 1540.3284,100.20358 1542.4062,99.40625 1545.2049,98.332306 1544.1227,97.289855 1539.5,96.65625 1528.5956,95.161626 1525.236,87.073108 1532.2812,79.28125 1534.03,77.347181 1534.1063,76.720425 1533.0312,74.125 1532.3553,72.49323 1530.9403,70.370297 1529.875,69.40625 1528.0075,67.716143 1527.7779,67.801629 1523.5,72 1519.6239,75.804135 1518.9855,76.122301 1518.375,74.53125 1517.9906,73.529653 1518.1738,71.390231 1518.7812,69.78125 1519.3885,68.172269 1519.6778,66.334914 1519.4375,65.6875 1519.1973,65.040087 1520.7723,63.660077 1522.9375,62.625 1526.8207,60.768665 1526.9285,60.773096 1530.7812,62.78125 1532.9294,63.900981 1535.107,64.515904 1535.625,64.15625 1536.1429,63.796597 1536.6983,59.568618 1536.8438,54.75 1537.1359,45.078969 1536.1152,43.392535 1531.8125,46.40625 1528.5766,48.672734 1525.7054,48.379745 1523,45.5 1521.6801,44.095101 1520.67,43.307401 1520,43.125 z M 1538.5,80 C 1534.1387,80 1531.4006,87.244377 1534.5625,90.40625 1535.7665,91.610305 1537.0712,91.95271 1538.875,91.5 1543.0162,90.460614 1544.2527,88.951429 1543.5938,85.65625 1542.8086,81.731032 1541.2435,80 1538.5,80 z M 1538.0938,82.59375 C 1538.9993,82.66244 1539.9962,83.606684 1540.8438,85.375 1542.0046,87.796869 1542.0244,88.365529 1540.875,89.09375 1537.5902,91.174869 1534.9554,88.98115 1535.9688,85 1536.3943,83.328244 1537.1882,82.52506 1538.0938,82.59375 z"/>
</svg>
