<svg xmlns="http://www.w3.org/2000/svg"
     width="17.5" height="64.0"
     viewBox="1813.0000 16.1123 23.0225 84.1667">
  <path d="M 1818.75,94.919901 C 1817.2217,94.029745 1817,92.210259 1817,80.557299 1817,70.799543 1817.3359,67.087899 1818.25,66.744787 1818.9375,66.486732 1822.0487,66.491097 1825.1639,66.754487 1832.0225,67.334391 1831.9675,67.205721 1831.9863,82.714816 1831.9986,92.787007 1831.8029,94.035103 1830.0657,94.964816 1827.6101,96.279051 1821.0387,96.252968 1818.75,94.919901 z M 1826,48.281586 C 1824.625,48.105052 1822.0433,47.725168 1820.2628,47.4374 L 1817.0256,46.914185 1817.2113,34.414809 C 1817.3206,27.060065 1817.8298,21.591751 1818.4485,21.129017 1819.0268,20.696488 1821.4017,20.28979 1823.726,20.225242 1827.7921,20.112322 1827.988,20.247669 1828.9054,23.803942 1829.9191,27.733666 1830.0646,47.912972 1829.0823,48.345913 1828.762,48.487067 1827.375,48.45812 1826,48.281586 z M 1827.9102,93.608171 C 1828.6786,92.682355 1828.9707,88.245971 1828.7827,80.358171 L 1828.5,68.5 1823.75,68.195209 C 1821.1375,68.027574 1818.9413,68.252574 1818.8696,68.695209 1818.3319,72.015085 1818.2335,80.615686 1818.6696,86.198783 1819.148,92.324955 1819.4195,92.980675 1821.8463,93.869835 1825.5822,95.238608 1826.5933,95.194978 1827.9102,93.608171 z M 1826.9437,45.055969 C 1828.0635,44.347489 1828.3338,42.0513 1828.1486,34.821281 1827.8301,22.386544 1827.6778,22 1823.0965,22 L 1819.3277,22 1819.1531,33.078088 C 1819.0571,39.171036 1819.2349,44.571036 1819.5483,45.078088 1820.2787,46.259972 1825.0633,46.245661 1826.9437,45.055969 z"/>
</svg>
