<svg xmlns="http://www.w3.org/2000/svg"
     width="16.4" height="64.0"
     viewBox="1398.0312 12.9790 22.5938 88.1248">
  <path d="M 1402.5938,73.125 1402.6562,73.34375 1402.4062,79.21875 1403,78.65625 1403,80.8125 C 1403,81.635813 1402.6701,82.256134 1402.25,82.625 L 1402.0312,87.375 C 1402.6311,87.696288 1402.9932,88.390678 1403,89.75 1403.0329,96.391722 1403.7511,97.103782 1409.875,96.78125 L 1415.5,96.5 1415.2812,92.25 C 1415.1537,89.9125 1415.251,88 1415.5,88 1415.5559,88 1416.3866,88.585604 1416.625,88.71875 L 1416.4062,84.0625 C 1415.587,83.073156 1415.08,82.23125 1415.0625,81.75 1415.02,80.584408 1415.1486,80.160962 1416.25,80.34375 L 1416.0938,76.4375 C 1416.0351,76.382077 1415.8235,76.300924 1415.7812,76.25 1414.8061,75.074044 1414.5,67.866318 1414.5,46.09375 L 1414.5,17.5 1409.75,17.1875 C 1406.4976,16.978965 1404.8526,17.295707 1404.5625,18.1875 1404.329,18.905365 1403.9395,31.727126 1403.7188,46.65625 1403.4583,64.276047 1403.3039,70.103917 1402.5938,73.125 z M 1409.375,19 C 1411.2237,19 1411.8434,19.619753 1412.125,21.75 1412.3249,23.2625 1412.3702,40.1375 1412.2188,59.25 L 1411.9375,94 1408.875,94 1405.8125,94 1406.375,59.75 C 1406.6893,40.9125 1406.955,24.0375 1406.9688,22.25 1406.99,19.498213 1407.3543,19 1409.375,19 z"/>
</svg>
