<svg xmlns="http://www.w3.org/2000/svg"
     width="53.1" height="64.0"
     viewBox="131.0000 14.8767 74.4407 89.7434">
  <path d="M 201.15625,27.375 C 200.90043,27.167717 200.63611,26.84881 200.3125,26.40625 199.59187,25.420738 199,24.257379 199,23.8125 199,23.367622 198.37893,23 197.625,23 196.65712,23 196.06127,25.09454 195.5625,30.15625 194.55498,40.381007 189.07619,54 185.96875,54 185.47228,54 182.99565,52.531128 180.46875,50.75 L 175.875,47.53125 171.8125,49.75 C 169.58129,50.972155 167.35796,51.735987 166.875,51.4375 164.97727,50.264635 166.48595,34.092488 168.6875,31.96875 169.14276,31.529586 171.84254,31.641691 174.71875,32.21875 183.1448,33.909278 186.54597,30.407207 184.375,22.3125 183.47349,18.951107 181.68068,18.876683 175.375,21.96875 169.31975,24.938016 167.92822,24.865269 163.8125,21.28125 162.32591,19.986706 161.72283,20.110106 158.34375,22.40625 153.86829,25.447401 153.08701,25.527957 149.28125,23.34375 145.33772,21.080475 139.30401,22.195227 137.8125,25.46875 136.32024,28.743901 137.58255,32.841209 140.46875,34.15625 142.48636,35.075532 143.62724,34.819154 147.53125,32.53125 150.70059,30.673893 152.52536,30.119109 153.21875,30.8125 155.55111,33.144859 157.02548,50.248188 155,51.5 154.44469,51.843201 152.78761,51.198241 151.34375,50.0625 146.68193,46.395513 142.73592,47.606611 137.96875,54.1875 135.43376,57.686956 135,59.213389 135,64.53125 135,72.532077 137.03268,74.896415 139.71875,70 142.7709,64.436277 145.45892,60.663474 146.625,60.28125 147.24363,60.078473 148.47539,61.751673 149.375,64 151.2922,68.791551 150.78085,70.212869 144.84375,76.71875 140.9729,80.960438 140.29815,82.795476 141.84375,84.5625 142.30077,85.085 143.50884,88.348911 144.53125,91.84375 145.55366,95.33859 147.00716,98.452952 147.78125,98.75 148.58369,99.057925 150.21557,98.056422 151.5625,96.40625 153.50998,94.020329 153.89028,92.456266 153.78125,87.5 153.6679,82.346614 154.01287,81.096459 156.1875,78.75 159.41288,75.269753 160.95022,75.297559 164.4375,78.9375 167.11949,81.736893 167.22642,82.175363 166.5625,88.375 165.88144,94.734603 166.75486,98.490663 169.3125,100.15625 169.86779,100.51786 170.80637,100.62008 171.40625,100.375 172.60756,99.884218 179,84.124984 179,81.65625 179,80.805912 177.71346,77.733876 176.125,74.8125 173.08782,69.226702 173.14172,66.766511 176.4375,64.03125 177.8796,62.834419 178.71812,62.96082 182.59375,64.84375 187.47511,67.215296 188.90436,66.928588 192.625,62.84375 197.53237,57.456005 199.93557,50.446674 200.5625,39.71875 200.77384,36.102344 200.94387,34.121174 201.4375,32.6875 201.44066,32.678327 201.43432,32.665377 201.4375,32.65625 L 201.34375,30.65625 201.15625,27.375 z M 180.625,23.03125 C 181.65594,23.218144 182.00276,24.276736 181.8125,26.25 181.48017,29.69677 180.35248,30.195923 174.75,29.3125 171.11668,28.739581 171.28774,27.619817 175.375,25.09375 177.88683,23.541353 179.59406,22.844356 180.625,23.03125 z M 161.875,24.125 C 163.09281,23.977864 164.12343,24.443793 165,25.5 165.98295,26.684376 165.89392,28.665328 164.5625,35.375 163.13526,42.567603 163.04849,44.694301 164.125,49.90625 164.81779,53.260394 165.66689,56 166,56 166.3331,56 168.13629,54.875 170,53.5 174.33435,50.302216 175.39834,50.355415 180,54 184.6717,57.700056 185.92737,57.734488 189.1875,54.25 192.88554,50.29746 194.64339,46.279774 195.40625,40 195.77418,36.971254 196.68455,32.246254 197.4375,29.5 L 198.8125,24.5 198.875,31 C 198.98343,43.924753 195.70955,56.291838 190.71875,61.75 188.19293,64.512356 187.0021,64.54697 182.25,62 177.52301,59.466481 176.82305,59.507086 174.1875,62.3125 170.40624,66.337461 170.34538,70.205027 173.96875,76.09375 L 177.15625,81.3125 174.09375,87.90625 C 169.68395,97.397429 168.12506,97.453864 169.9375,88.0625 170.4286,85.517781 170.41757,82.594883 169.90625,81.25 168.92218,78.661707 162.10708,72.007569 160.4375,72 159.19741,71.994378 154.03882,77.401548 151.78125,81.0625 150.68807,82.835231 150.36286,85.030088 150.71875,88.1875 151.57592,95.792273 148.39464,95.077838 146,87.125 145.56766,85.689163 144.89672,83.770659 144.53125,82.875 144.08773,81.788098 145.08644,79.959005 147.5,77.375 154.20638,70.195009 154.80253,67.421836 151.1875,60.25 148.75357,55.421356 145.97085,55.930684 141.875,61.96875 137.11039,68.992701 136.2059,68.525049 137.65625,59.75 138.26933,56.040637 143.11632,50 145.5,50 146.12261,50 148.40202,51.334051 150.5625,52.96875 152.72298,54.603449 155.02361,55.953449 155.65625,55.96875 156.28889,55.984051 157.34788,53.780866 158,51.0625 159.31401,45.585107 157.93709,32.822781 155.75,30.1875 154.80059,29.043535 155.14375,28.285257 157.53125,26.375 159.24203,25.006188 160.65719,24.272136 161.875,24.125 z M 145.28125,24.375 C 147.68178,24.581365 150,25.712209 150,26.96875 150,27.461947 148.69115,28.800048 147.09375,29.9375 142.36943,33.30151 140,32.614601 140,27.90625 140,25.671679 140.55081,25.024205 142.9375,24.5 143.67579,24.337846 144.48107,24.306212 145.28125,24.375 z"/>
</svg>
