<svg xmlns="http://www.w3.org/2000/svg"
     width="64.0" height="63.7"
     viewBox="2185.3438 13.9654 85.6562 85.2846">
  <path d="M 2217.9359,89.378618 C 2214.1652,84.306958 2214.1726,84.441289 2217.3089,78 2219.2665,73.979606 2219.4879,72.007893 2219.3867,59.5 2219.2964,48.337721 2218.8157,43.818654 2217.015,37.20502 2215.7729,32.642781 2214.9239,28.792083 2215.1283,28.647912 2215.3327,28.503741 2217.4701,26.865584 2219.8779,25.007563 2224.0799,21.765103 2224.3113,21.705262 2225.6372,23.518479 2227.2657,25.745631 2228.7989,30.805132 2229.6668,36.816305 2230.2351,40.752338 2230.8189,41.47629 2236.2935,45.03357 2239.5954,47.179098 2242.638,48.723736 2243.0549,48.466099 2244.0181,47.870797 2247,39.186681 2247,36.976849 2247,36.060068 2246.1169,34.510817 2245.0376,33.534068 2242.4922,31.230467 2240.6432,25.557623 2241.424,22.446893 2242.4238,18.463125 2244,19.654629 2244,24.394245 2244,27.920579 2244.6076,29.4389 2247.0762,32.081526 2250.5869,35.839738 2250.5133,38.216132 2246.6452,46 2244.1242,51.073228 2241.9471,51.522658 2236.9904,47.993138 2233.4425,45.466849 2232,45.468832 2232,48 2232,49.1 2232.4343,50 2232.9652,50 2233.4961,50 2235.5705,51.44 2237.575,53.2 2240.1124,55.4279 2242.2299,56.4 2244.5452,56.4 2246.3743,56.4 2247.6483,56.76 2247.3764,57.2 2246.3155,58.916531 2241.2894,57.851506 2237,55.001256 L 2232.5,52.011074 2231.701,63.123216 C 2231.2616,69.234894 2231.12,74.453302 2231.3863,74.719678 2231.6527,74.986054 2232.8999,74.483098 2234.1578,73.601999 2237.5796,71.205284 2239.4662,71.628005 2242.924,75.56622 L 2246.0552,79.13244 2250.2246,76.06622 C 2256.3278,71.577853 2258.3915,72.30185 2253,77.039933 2247.5768,81.805935 2244.8304,82.042236 2241.8419,78 2239.2247,74.460109 2238.3036,74.352617 2233.2333,76.995389 2230.5841,78.376236 2229.0065,80.09319 2228.1108,82.570256 2226.5011,87.021732 2227.0007,87.568102 2230.8574,85.573736 2235.7343,83.051784 2238.3016,83.592376 2242.3797,88 2244.4152,90.2 2246.4,91.989779 2246.7903,91.977287 2247.1806,91.964795 2250.3388,90.424703 2253.8084,88.55486 2258.4245,86.06717 2260.034,85.569841 2259.8084,86.700988 2259.3933,88.781897 2249.4328,94 2245.8758,94 2243.6616,94 2242.4397,93.110396 2240.3813,90 2238.9254,87.8 2237.1734,86 2236.488,86 2234.1493,86 2224.1929,91.054901 2223.627,92.52951 2222.7151,94.906087 2221.5768,94.275914 2217.9359,89.378618 z M 2225.04,84.642428 C 2230.2213,72.929264 2231.0609,55.494698 2227.3332,37.019821 2225.0573,25.739604 2224.0759,24.498446 2220.0259,27.777967 L 2217.8302,29.555934 2219.6023,36.027967 C 2220.9272,40.866498 2221.3891,46.412105 2221.4326,58 2221.4845,71.808104 2221.2477,74.09543 2219.2636,78.954929 L 2217.0364,84.409858 2219.1925,86.704929 C 2220.3784,87.967218 2221.7455,89 2222.2305,89 2222.7156,89 2223.9799,87.039093 2225.04,84.642428 z M 2248,85.227404 C 2248,84.596851 2251.0656,82.745015 2256.25,80.243802 2256.6625,80.044792 2257,80.321822 2257,80.859424 2257,81.976036 2250.841,86 2249.132,86 2248.5094,86 2248,85.652332 2248,85.227404 z M 2250.6852,29.466073 C 2248.8121,25.538156 2248.4623,20.450345 2250,19.5 2250.6093,19.12345 2251,20.615467 2251,23.318538 2251,26.042207 2251.5791,28.235746 2252.5,29 2253.325,29.684689 2254,30.864789 2254,31.622445 2254,34.106548 2252.4025,33.067353 2250.6852,29.466073 z M 2255.9092,44.610708 C 2258.0066,38.647508 2259.3269,36.384631 2261.3169,35.341943 2263.9001,33.988456 2266,31.174241 2266,29.065741 2266,27.463659 2263.8974,27.782907 2261.7702,29.707962 2260.3829,30.963482 2259.4562,31.146734 2258.2719,30.399736 2256.365,29.196874 2253.7309,22.143525 2254.4697,20.218332 2255.3342,17.965421 2256.7014,19.73125 2257.3805,23.977837 2258.0867,28.394237 2260.0082,29.207509 2263.1082,26.402039 2265.4028,24.325485 2267,25.386038 2267,28.986213 2267,31.035008 2266.0225,32.660814 2263.5782,34.677196 2261.4231,36.455042 2259.3869,39.558159 2258.0775,43.059818 2254.7554,51.944525 2252.8506,53.306948 2255.9092,44.610708 z M 2189.3438,52.4375 2189.3438,57.34375 C 2190.1281,57.717837 2190.116,58.775635 2189.3438,60.09375 L 2189.3438,63.84375 C 2190.485,63.717662 2190.8394,65.348394 2191.5,70.5 2192.4369,77.806517 2195.9255,89.060319 2198.2812,92.375 L 2200.3125,95.25 2204.625,90.375 C 2206.9905,87.690981 2208.9475,85.100596 2208.9688,84.59375 2208.9898,84.086903 2207.7908,80.711903 2206.3125,77.09375 2203.8682,71.111367 2203.6166,69.276758 2203.5625,57 2203.517,46.681983 2203.9371,41.9306 2205.375,36.8125 L 2207.2812,30.09375 2204.5,26.8125 C 2200.0718,21.50868 2199.3322,21.432388 2196.9062,26.1875 2194.291,31.314037 2191.4974,40.81958 2190.5312,47.84375 2190.2566,49.840592 2189.9086,51.266186 2189.3438,52.4375 z M 2200,26.0625 C 2200.4674,26.106708 2201.0432,26.651475 2202.125,27.71875 L 2204.3438,29.90625 2202.625,38.96875 C 2199.6237,54.567311 2200.5444,70.61352 2205.0625,81.59375 2206.1789,84.306791 2206.0806,85.016808 2204.4062,87.3125 2203.3549,88.754072 2201.9546,89.951466 2201.2812,89.96875 2197.8009,90.058081 2192.7966,70.289324 2192.8125,56.46875 2192.8235,46.916084 2195.9915,30.748736 2198.5,27.375 2199.1703,26.473429 2199.5326,26.018292 2200,26.0625 z"/>
</svg>
