<svg xmlns="http://www.w3.org/2000/svg"
     width="20.7" height="64.0"
     viewBox="2502.7728 15.6968 27.2592 84.4496">
  <path d="M 2524.625,74.90625 2523.8438,74.5 2524.6562,69.5 C 2526.032,61.259765 2525.3573,40.816373 2523.5,34.3125 2521.3275,26.704936 2518.8154,21.189475 2517.1875,20.53125 2515.1239,19.696826 2511.2012,29.54134 2509.375,40.09375 2506.7728,55.130542 2508.862,85.2763 2513.0625,93.125 2514.6795,96.146382 2517.2695,94.984763 2519.4688,90.25 2520.5546,87.9125 2521.9682,86 2522.5938,86 2522.6185,86 2522.9029,86.180557 2522.9375,86.1875 L 2523.5625,81.90625 C 2522.7856,80.696837 2522.7338,79.609996 2523.5625,78.78125 2523.599,78.744717 2523.9329,78.824777 2524.0312,78.8125 L 2524.625,74.90625 z M 2516.5312,25.03125 C 2517.8721,24.866237 2519.3769,28.678331 2521.5312,36.4375 2523.1834,42.388212 2523.8951,68.754709 2522.4688,71.0625 2522.1244,71.61958 2521.4549,74.638291 2521,77.78125 2520.5451,80.92421 2519.712,84.7375 2519.125,86.25 2517.2373,91.114173 2514.5778,89.789658 2513.125,83.25 2510.8818,73.152176 2510.5006,47.81667 2512.4375,37.5625 2513.9893,29.347229 2515.1904,25.196263 2516.5312,25.03125 z"/>
</svg>
