<svg xmlns="http://www.w3.org/2000/svg"
     width="55.8" height="64.0"
     viewBox="790.0000 15.3386 82.0000 94.0767">
  <path d="M 868,52 C 866.03747,54.152515 859.14013,58 856.84375,58 855.80074,58 852.90786,56.1184 850.40625,53.8125 846.00521,49.755763 845.7638,49.661848 842.6875,50.9375 840.9389,51.662596 838.375,52.306697 837,52.375 834.76633,52.485959 834.45485,52.052397 834.1875,48.40625 834.01004,45.986186 834.77887,41.993318 836.0625,38.5625 L 838.21875,32.78125 841.875,33.375 C 843.87407,33.702968 846.69235,34.252982 848.15625,34.59375 850.30107,35.093024 851.16594,34.69392 852.5625,32.5625 854.04639,30.297794 854.10824,29.354817 853.09375,25.96875 851.66002,21.183398 849.67416,20.880124 844.0625,24.59375 839.74157,27.453201 838.33723,27.163851 834.0625,22.59375 831.01772,19.3386 830.6001,19.368404 826.09375,22.9375 L 822.40625,25.84375 818.0625,22.9375 C 815.66831,21.329539 813.1173,20 812.40625,20 808.69912,20 806.37479,30.406305 809.5,33 810.70449,33.999635 811.81002,33.829501 815.25,32.1875 820.74484,29.56466 821.8301,30.572983 823.59375,39.6875 825.20006,47.988872 825.32946,52.659038 823.96875,53.5 823.40682,53.847294 820.71508,52.752334 817.96875,51.0625 815.22242,49.372666 811.89649,48 810.59375,48 807.22324,48 801.27291,54.892829 800.5,59.6875 800.16223,61.782816 799.69717,64.426109 799.46875,65.5625 799.00071,67.891079 801.47452,72 803.34375,72 804.0189,72 805.90009,69.1875 807.53125,65.75 811.31066,57.785297 813.34859,57.231595 816.09375,63.4375 819.37352,70.851961 818.56631,80.515057 814.28125,85.25 811.87214,87.912036 809.73551,87.385873 805.125,83 802.81232,80.8 800.29318,79 799.53125,79 797.97606,79 794,83.62477 794,85.4375 794,86.831051 797.25387,90.469147 799.75,91.875 801.41452,92.812482 801.39498,93.146513 799.84375,97.5 798.35681,101.67305 798.3531,102.08754 799.78125,101.8125 800.72931,101.62992 801.86848,99.593042 802.59375,96.75 803.80004,92.021359 803.79293,92.004798 800.40625,89.03125 796.89405,85.9475 796.37072,84.539118 797.9375,82.0625 798.6758,80.89547 799.83073,81.529559 803.875,85.3125 806.63852,87.897453 809.77716,90 810.84375,90 814.07064,90 818.70336,83.720314 819.96875,77.625 821.66836,69.438014 819.84114,61.893044 815.125,57.625 813.17606,55.861231 812.88936,55.829905 810.53125,57.375 809.14923,58.280533 807.13047,60.782861 806.03125,62.9375 802.84865,69.175915 801.66182,69.151518 802.1875,62.8125 802.7051,56.570908 805.77378,51.34147 809.5,50.40625 811.19565,49.980666 813.56818,50.844372 817.71875,53.40625 824.52611,57.607988 826.96193,57.954436 827.125,54.75 827.47862,47.800866 827.0206,42.663293 825.59375,37.09375 823.40584,28.55351 823.53451,27.449652 827.0625,24.9375 L 830.15625,22.75 833.0625,25.5625 C 836.43287,28.791523 836.60542,29.905608 834.375,34.21875 832.46847,37.905573 830.90045,49.22099 831.71875,53.3125 832.49207,57.17909 834.2371,57.5926 839.03125,55.09375 841.25185,53.936311 843.56202,53 844.15625,53 844.75049,53 847.37234,54.8 850,57 855.5762,61.668654 857.4104,61.890279 862.40625,58.5 865.72236,56.249629 866.95726,55.663627 867.625,56.65625 L 868,52 z M 812.53125,22.34375 C 814.38499,21.6324 818,24.669102 818,26.9375 818,28.551722 812.63115,31.287398 811.5625,30.21875 810.30598,28.962226 811.04773,22.913026 812.53125,22.34375 z M 848.625,25 C 850.18582,25 851.20237,27.844803 850.46875,30.15625 849.64296,32.758072 843,32.1434 843,29.46875 843,27.972587 846.75103,25 848.625,25 z M 842.15625,92.375 C 840.62947,92.125449 839.47263,92.987886 835.9375,95.96875 L 830.9375,100.1875 826.71875,98.03125 C 824.40244,96.851943 821.39558,95.288422 820.0625,94.53125 817.79209,93.241691 817.30166,93.425122 812.3125,97.6875 809.38308,100.19018 807,102.92472 807,103.75 807,105.41527 807.36869,105.1974 814.34375,99.65625 L 817.9375,96.8125 823.34375,99.90625 C 826.31687,101.6073 829.4328,103 830.28125,103 831.12969,103 833.77164,101.21655 836.15625,99.03125 838.54086,96.845953 841.01167,95.045953 841.625,95.03125 842.23833,95.016546 843.89988,95.926758 845.34375,97.0625 848.49245,99.539268 850.95586,98.713698 848.5,96 847.59941,95.004859 845.53189,93.642113 843.90625,92.96875 843.21112,92.68082 842.66518,92.458184 842.15625,92.375 z M 867.15625,62.15625 C 866.12714,63.385289 864.36189,64.723056 861.65625,66.40625 858.08668,68.626897 855.38412,67.987932 849.09375,63.46875 846.43602,61.559364 843.67991,60 842.96875,60 842.25758,60 839.47146,61.398695 836.78125,63.125 833.17424,65.439608 832.05931,66.686802 832.5625,67.875 835.15131,73.988123 834.15799,78.365404 829.875,79.59375 828.13325,80.093278 825.74972,81.794287 824.59375,83.34375 L 822.5,86.15625 826.21875,89.5625 C 830.28381,93.289377 831.39545,93.254036 836.6875,89.34375 840.43952,86.571386 840.61643,86.554926 844.40625,88.53125 846.36678,89.553636 847.66785,89.738393 848.34375,89.0625 849.01964,88.386606 847.78635,87.349741 844.59375,85.9375 L 839.84375,83.84375 836.125,86.40625 C 831.86252,89.360149 829.79464,89.63115 828,87.46875 826.96849,86.225858 827.06392,85.590122 828.53125,83.96875 829.5174,82.879067 831.12293,82 832.125,82 835.26571,82 837.32288,77.574402 836.78125,71.9375 836.35257,67.4762 836.56828,66.709473 838.78125,64.96875 841.88731,62.525525 843.47795,62.504542 846.84375,64.875 848.30365,65.903179 851.40642,67.720149 853.75,68.90625 L 858.03125,71.0625 862.53125,68.53125 C 864.64736,67.349837 866.09095,66.647422 866.78125,66.375 L 867.15625,62.15625 z"/>
</svg>
