<svg xmlns="http://www.w3.org/2000/svg"
     width="37.8" height="64.0"
     viewBox="606.3913 14.6087 54.6475 92.4296">
  <path d="M 612.68521,97.466073 C 610.39127,92.655632 610.54287,86.475713 613.05451,82.411797 615.00418,79.25717 615.0297,78.853864 613.55451,74.508816 611.55396,68.616337 611.57693,60.867907 613.61539,53.967928 615.43396,47.81228 615.76174,43.336315 614.58336,40.75 614.01815,39.509479 614.21991,39 615.27638,39 616.09608,39 617.03238,40.0125 617.35705,41.25 L 617.94735,43.5 620.72368,40.72198 623.5,37.943959 621.25,34.023862 C 620.0125,31.867808 619,28.730417 619,27.051882 619,21.426313 617.1671,23.926142 616.46161,30.513902 615.72989,37.346546 614.59139,39.438679 613.49122,35.972348 611.8575,30.824938 616.34579,19.942253 620.42655,19.15637 622.08542,18.8369 622.22489,19.312449 621.73832,23.629286 621.16988,28.672471 623.78559,36 626.1543,36 629.78736,36 634.90207,33.526306 635.40401,31.526444 636.81762,25.894179 643.91843,20.676304 651.90823,19.398683 656.84828,18.608739 657.03876,19.435851 653.26036,25.269872 650.72999,29.176883 650.51994,30.282827 650.51036,39.748484 650.50466,45.38515 650.1625,49.99765 649.75,49.998484 649.3375,49.999318 648.56566,50 648.0348,50 647.50393,50 645.49256,48.61535 643.56508,46.923 639.75048,43.573733 638.04139,43.606398 633.58246,47.113795 630.15154,49.812556 630.3227,51.38937 634.5,55.566667 636.425,57.491667 638,59.696539 638,60.466384 638,61.236228 635.99273,63.510907 633.5394,65.521226 631.08607,67.531544 628.81468,70.008525 628.49187,71.025627 627.788,73.243311 629.62782,76.462857 632.46744,77.982573 634.26172,78.942842 635.20824,78.43161 639.76132,74.043019 642.63895,71.269358 645.89486,69 646.99668,69 649.32765,69 649.32888,69.004779 647.9375,72.664387 646.29551,76.983153 646.6686,87.636987 648.65531,93.161848 650.71437,98.887889 650.05855,99.838722 644.49781,99.189538 642.16754,98.917492 639.36078,97.366585 636.23445,94.623533 631.88515,90.807439 625.27132,87 622.99175,87 621.62107,87 619,92.494968 619,95.368553 619,101.82341 615.34243,103.03831 612.68521,97.466073 z M 618.36394,89.895486 C 620.98271,85.046664 621.03488,84.696024 619.40542,82.895486 617.05153,80.294476 616.11066,80.507207 614.65483,83.969588 613.56264,86.567153 613.37352,88.927049 613.87105,93.75 614.1261,96.222407 615.65551,94.910308 618.36394,89.895486 z M 646.49132,95.25 C 644.61283,90.700976 643.85955,84.91758 644.34605,78.779401 644.8318,72.650638 644.72994,72.151846 643.18935,73.115369 642.26021,73.696481 640.17618,75.93325 638.55817,78.085968 636.94017,80.238686 635.11594,82 634.50434,82 632.46167,82 627.10294,75.543203 625.59241,71.261921 623.91029,66.494282 624.63945,59.192691 627.47573,52.402921 629.17143,48.343607 633.65106,43 635.35835,43 635.89964,43 637.17456,42.24701 638.19151,41.326688 639.941,39.743416 640.22154,39.851035 643.40512,43.326688 645.25566,45.34701 646.99473,47 647.26972,47 647.5447,47 647.54823,44.1875 647.27755,40.75 646.90309,35.994551 647.28931,33.073518 648.8927,28.534659 650.05171,25.253721 651,22.461183 651,22.329018 651,22.196853 649.13831,22.745562 646.8629,23.548371 642.21123,25.189576 638.00306,29.464205 638.00122,32.55 637.99961,35.24834 636.1479,37 633.29705,37 630.44279,37 622.84513,41.644828 620.21124,45 615.33691,51.209164 612.79755,66.186374 615.51602,72.692585 618.62599,80.135793 626.12387,86.947469 631.30716,87.03852 632.66767,87.062419 634.26111,88.296012 635.50521,90.28852 638.49998,95.084855 648.23946,99.483336 646.49132,95.25 z M 635,60.488551 C 635,58.589989 629.85721,54.742785 628.77113,55.82887 628.2837,56.316297 627.61299,59.349684 627.28065,62.569729 L 626.6764,68.424357 630.8382,65.128149 C 633.12719,63.315235 635,61.227416 635,60.488551 z"/>
</svg>
