<svg xmlns="http://www.w3.org/2000/svg"
     width="29.9" height="64.0"
     viewBox="953.5199 14.0000 42.5531 91.1864">
  <path d="M 962.05858,94.855935 C 959.33172,90.371961 958.52414,84.713588 958.51109,70 958.47669,31.221099 962.78551,18 975.45816,18 977.96702,18 979.46278,18.761273 981.34201,20.994604 984.08613,24.255807 984.0028,24.044942 986.93535,35.148381 990.65769,49.242131 992.07301,70.87923 990.07169,83.096069 989.02905,89.460721 985.34334,98.000618 983.63987,97.998749 982.83747,97.997869 982.47157,93.18688 982.40399,81.748749 982.35118,72.811937 982.00909,61.990234 981.64378,57.700519 980.67946,46.376679 976.4594,32 974.09977,32 973.09426,32 969.63305,42.257334 967.85717,50.5 967.04613,54.264417 966.55246,64.106658 966.53224,76.915231 966.49764,98.823108 965.90835,101.18636 962.05858,94.855935 z M 964.50822,74.75 C 964.50235,61.717157 964.98067,54.028831 966.18143,47.855669 968.25299,37.205659 971.68008,29.617059 974.60687,29.199205 976.44678,28.936524 977.09996,30.076914 979.76176,38.199205 981.43817,43.314642 983.06451,49.75 983.37585,52.5 984.14787,59.319112 985.41162,82.579781 985.2774,87.5 L 985.16828,91.5 986.67726,88.028807 C 990.47755,79.28683 989.25357,51.029061 984.33732,34.006709 980.82574,21.847965 979.87361,20.641426 974.28717,21.271099 971.76225,21.555695 968.94036,22.615191 967.87814,23.677416 961.34751,30.20805 957.51988,77.426661 962.54602,89.455903 963.36047,91.405156 964.137,93 964.27164,93 964.40629,93 964.51275,84.7875 964.50822,74.75 z"/>
</svg>
