<svg xmlns="http://www.w3.org/2000/svg"
     width="57.9" height="64.0"
     viewBox="269.3702 11.9456 84.2471 93.1032">
  <path d="M 318.65499,98.171259 C 317.47974,96.87263 317,94.496719 317,89.97501 317,84.724061 316.53777,82.940503 314.364,79.803751 312.9142,77.711688 311.39156,76 310.98036,76 309.37512,76 302.99647,84.130029 302.93616,86.252881 302.76582,92.249072 302.07436,95.260356 300.45759,97.046858 298.28859,99.443581 296,99.584302 296,97.320947 296,96.397468 295.00628,92.556483 293.79173,88.785425 291.65656,82.155958 291.64161,81.822531 293.3402,78.714478 294.30641,76.946515 296.63296,74.375 298.5103,73 303.07415,69.657356 303.28166,68.770323 300.41024,64.878343 296.86322,60.070618 295.78865,59.779578 291.74068,62.530246 289.76391,63.873492 286.68369,65.091197 284.89574,65.236256 282.06349,65.466041 281.2704,64.948902 278.73614,61.219878 274.7665,55.378774 273.3702,45.813572 274.833,34.481729 276.68422,20.140796 280.57233,15.945575 288.09418,20.173086 290.24238,21.380444 292,22.960419 292,23.684141 292,25.479946 291.25078,25.34242 288.27287,23 285.14373,20.53862 283.8397,20.49947 281.02056,22.782267 276.10784,26.760348 275.57713,51.779214 280.2379,59.678631 282.90886,64.205582 285.10846,64.357436 290.90971,60.415385 295.67261,57.178911 296.97582,57.348691 301.15398,61.75 306.86216,67.763048 306.80981,68.548736 300.3006,74.558672 L 294.56356,79.855668 296.44916,87.427834 C 297.48624,91.592525 298.65319,95 299.04238,95 299.92091,95 301,89.811559 301,85.587408 301,83.134614 302.07378,81.367185 305.78435,77.712408 308.41574,75.120584 311.1101,73 311.7718,73 312.43351,73 314.08732,74.762173 315.44694,76.91594 316.80655,79.069707 318.38719,81.121265 318.95948,81.474957 319.53177,81.828649 320,85.214919 320,89 320,92.785081 320.39012,96.123073 320.86693,96.417759 321.85105,97.025978 326,85.138927 326,81.711136 326,80.475359 324.87032,77.801797 323.4896,75.769888 318.92484,69.052235 318.78113,67.691622 322.1522,63.107678 325.4855,58.575093 326.32225,58.316315 330.65533,60.477942 336.2101,63.249027 338.31129,62.886068 340.30303,58.811396 345.65003,47.872578 347.85095,29.982525 344.25,26.728643 343.2875,25.85891 340.28744,24.326478 337.58319,23.323239 332.76888,21.53719 330.30693,19 333.38815,19 336.3399,19 345.72884,23.774778 347.36201,26.10645 349.22247,28.762627 349.61726,39.376042 348.04357,44.429002 347.51753,46.118051 346.07137,50.805478 344.82988,54.845507 343.40787,59.472983 341.70383,62.874404 340.22471,64.037882 337.93374,65.839956 337.7416,65.83301 332.30219,63.751469 L 326.72759,61.61819 324.86379,63.919879 C 322.32699,67.052702 322.50366,68.853357 326,75.5 329.50821,82.169222 329.67675,84.1583 327.09148,88.381966 326.04179,90.096885 324.67445,93.4125 324.05294,95.75 322.83159,100.34345 321.25911,101.04879 318.65499,98.171259 z M 284.72459,55.24817 C 281.34322,51.511798 280.73007,46.363355 282.5811,37.25 283.09728,34.708633 285.3517,34.367063 289.6849,36.17369 L 292.5,37.34738 289,37.92369 C 285.98413,38.420283 285.3765,38.999734 284.60715,42.112788 283.62092,46.103441 284.18333,49.502202 286.31136,52.411651 287.66755,54.265852 287.82024,54.238892 291.39206,51.514531 294.93929,48.808924 295.22928,48.755661 299.28727,50.064374 305.32364,52.011118 305.43711,51.960191 306.11494,47 306.78534,42.094213 304.8805,33.001118 302.3828,29.183944 300.95416,27.000579 301.07549,26.61386 304.50062,22.433944 306.49892,19.995275 308.58057,18 309.12649,18 310.95742,18 319,25.404071 319,27.089638 319,28.006001 318.325,30.371254 317.5,32.345757 316.00411,35.925921 315.45535,46.417088 316.60699,49.418213 317.37248,51.413044 319.38128,51.450443 321,49.5 322.88236,47.23189 325.32043,47.678497 329.59327,51.07412 L 333.46154,54.14824 335.1569,52.054562 C 336.08935,50.90304 337.60208,47.703392 338.51852,44.944233 340.47956,39.040099 339.69132,37.40792 334.39952,36.415171 332.52978,36.064407 331,35.363376 331,34.857324 331,32.937155 333.77335,33.012204 338.39708,35.057496 343.12259,37.147817 343.17983,37.228308 342.50783,40.838666 342.13301,42.8524 340.62792,46.975 339.16317,50 335.97335,56.587636 332.90916,57.66111 329.04273,53.545479 326.16951,50.487086 323.67351,50.325054 320.30086,52.977987 318.4692,54.418768 317.30797,54.700006 316.02523,54.013503 312.65087,52.207598 311.94695,40.490237 314.70062,31.964004 L 316.40124,26.69834 312.98839,23.84917 C 311.11133,22.282126 309.2728,21 308.90278,21 308.53276,21 307.44511,22.197931 306.48576,23.662069 304.80909,26.220998 304.82933,26.592025 307.00824,33.238309 308.83867,38.821632 309.15629,41.423404 308.65839,46.755338 307.88955,54.988678 307.08707,55.888811 302.47609,53.689987 297.64311,51.385301 295.30837,51.562734 291.81763,54.5 288.30314,57.457249 286.8614,57.609322 284.72459,55.24817 z M 288.75179,31.094985 C 285.57026,29.248516 285.20447,28 287.84501,28 289.88334,28 293.61029,31.539837 292.31514,32.245708 291.86681,32.490053 290.2633,31.972227 288.75179,31.094985 z M 332.66667,30.333333 C 331.13756,28.804231 332.20127,27.89316 335.17299,28.186642 339.31082,28.595286 340.23139,31 336.25,31 334.64583,31 333.03333,30.7 332.66667,30.333333 z"/>
</svg>
