<svg xmlns="http://www.w3.org/2000/svg"
     width="28.2" height="64.0"
     viewBox="2049.8802 18.0831 37.3586 84.6808">
  <path d="M 2057.75,96.399078 C 2054.734,94.794618 2053.8802,92.325041 2056.75,93.506465 2061.6652,95.529945 2062,95.398114 2062,91.439457 2062,88.384965 2061.3667,87.114567 2058.75,84.920373 2056.9625,83.421469 2055.845,81.843697 2056.2667,81.414213 2056.6883,80.984729 2057.5658,81.165833 2058.2167,81.816667 2060.7969,84.396944 2061.5785,83.050181 2061.0017,77.01733 2060.5888,72.699652 2059.8828,70.621234 2058.4648,69.549133 2057.3842,68.732094 2056.1625,68.049295 2055.75,68.031803 2054.889,67.995292 2054.7069,65 2055.5657,65 2055.8769,65 2057.0725,65.503596 2058.2225,66.119103 2060.2845,67.222644 2060.3046,67.128786 2059.6652,59.369103 2059.1583,53.217796 2058.5783,51.137564 2057.0084,49.839707 2054.4529,47.727148 2054.4378,46.619727 2056.9735,47.282832 2058.6061,47.709744 2059.0497,47.168289 2059.5409,44.149463 2059.8676,42.142258 2060.3733,39.225672 2060.6648,37.668161 2061.0511,35.604212 2060.5799,34.181675 2058.9268,32.422104 2056.3686,29.698957 2056.8358,28.306564 2059.7792,29.881845 2061.4791,30.791566 2061.9618,30.411197 2063.535,26.922311 2065.6908,22.141744 2067.8755,22.083148 2069.9305,26.750784 2071.4393,30.1779 2072.83,30.769962 2074.7833,28.816667 2075.4342,28.165833 2076.3108,27.97751 2076.7315,28.39817 2077.1522,28.818831 2076.2604,30.063342 2074.7498,31.163751 2072.5558,32.761925 2072.1222,33.701274 2072.5945,35.832248 2073.8434,41.466053 2074.1946,42.138999 2075.5903,41.572321 2080.1623,39.716123 2080.3445,39.869979 2077.3996,43.099723 2074.4077,46.381143 2074.3155,46.753425 2074.7625,53.75 2075.2604,61.543967 2075.9907,62.296837 2079.6855,58.825686 2080.9585,57.629813 2082,57.133197 2082,57.722094 2082,58.310991 2080.425,60.175684 2078.5,61.865856 2075.3009,64.674723 2075,65.409257 2075,70.410432 2075,73.419775 2075.4137,76.13766 2075.9194,76.450174 2076.9255,77.071974 2080,74.418636 2080,72.928571 2080,72.417857 2080.45,72 2081,72 2083.2388,72 2081.7657,75.094038 2078.1394,78.008184 2074.5595,80.885123 2074.2352,81.578628 2073.6776,87.549781 2073.1226,93.493422 2071.4306,98.763983 2070.4065,97.739809 2070.1692,97.502492 2070.4827,92.641626 2071.1032,86.937883 2072.4826,74.257707 2071.6793,41.909346 2069.776,33.5 2068.0591,25.91382 2066.0361,25.556079 2064.1211,32.5 2062.2005,39.464005 2061.9719,61.350397 2063.6597,76.66545 2065.3352,91.868149 2065.1617,94.844728 2062.5,96.567531 2060.8445,97.639079 2060.0264,97.610066 2057.75,96.399078 z"/>
</svg>
