<svg xmlns="http://www.w3.org/2000/svg"
     width="35.2" height="64.0"
     viewBox="463.4387 14.5363 49.3184 89.5903">
  <path d="M 468.4309,95.483335 C 467.706,91.619288 469.21563,86.744457 472.16184,83.435549 473.17283,82.300101 474,79.958071 474,78.231038 474,76.504005 475.06671,72.15223 476.37046,68.560427 478.4798,62.749279 478.5725,61.890531 477.21198,60.764938 474.59441,58.59934 472.04491,51.712985 472.02196,46.746376 472.009,43.941047 471.18029,40.463351 470,38.261185 467.43867,33.482299 467.44667,27.631368 470.02024,23.467258 472.05206,20.179701 474.29275,18.626083 475.40223,19.735568 475.73101,20.064339 476,22.183206 476,24.44416 476,34.650958 483.99688,35.800157 489.51383,26.38618 490.89788,24.024493 493.02359,21.396458 494.23764,20.546102 496.96434,18.63625 502.98363,18.536325 505.477,20.35952 507.27669,21.675489 507.26612,21.817527 505.14708,24.79345 502.28854,28.8079 499.83471,35.847573 500.48553,38.166734 500.76849,39.17503 501.25532,40.9 501.56739,42 502.29968,44.581282 500.29998,44.581282 497,42 495.625,40.924459 493.78224,40.034466 492.90499,40.022236 488.6854,39.963411 486.29284,48.149978 489.57143,51.428571 491.66719,53.524331 491.68207,53.519957 496.13168,49.5 498.26242,47.575 500.95325,46 502.11129,46 503.94551,46 504.10841,46.354351 503.37553,48.75 502.28985,52.298909 502.26354,62.573512 503.32946,66.75 504.1034,69.782516 503.98863,70 501.61425,70 500.17535,70 497.47951,68.603892 495.41037,66.787163 L 491.75115,63.574325 489.38054,66.537163 C 486.64648,69.954253 486.30836,74.56753 488.5567,77.777494 490.75671,80.918443 493.06708,80.542515 496.27541,76.521556 497.80188,74.608445 499.98845,72.541364 501.13445,71.928044 503.16693,70.840297 503.20137,70.956917 502.53743,76.677531 501.98764,81.414566 502.27882,83.691706 504.05188,88.521073 505.25919,91.809483 506.64142,94.9275 507.12349,95.45 508.75709,97.220576 508.01092,99 505.63486,99 503.25751,99 498.80093,96.086442 495.98766,92.693005 494.73194,91.178317 493.99975,91.049595 491.67256,91.934391 488.24521,93.237467 483.31808,93.323684 482.55802,92.09388 481.53988,90.446488 477.9449,92.205689 475.33376,95.629067 471.90334,100.12658 469.29163,100.07144 468.4309,95.483335 z M 475.72646,32.741474 C 474.78092,30.958663 473.72587,28.044804 473.38189,26.266231 472.45525,21.474847 471,23.350681 471,29.336511 471,32.530629 471.62906,35.453094 472.62161,36.870166 474.1086,38.993134 474.37616,39.05241 475.84443,37.584145 477.31269,36.115881 477.3029,35.713835 475.72646,32.741474 z M 476.15043,91.342624 C 478.02766,89.217978 477.01658,85 474.63005,85 473.15145,85 471,89.850725 471,93.184407 471,94.675247 471.36898,94.872895 472.76119,94.127808 473.72984,93.6094 475.255,92.356067 476.15043,91.342624 z M 503.29753,93.75 C 501.88792,91.890084 500,84.700886 500,81.192997 500,77.002139 498.42453,76.343441 497.14943,80.001187 496.01798,83.246883 495.83525,83.317051 491.02172,82.354345 485.04276,81.158551 481.99761,72.341858 485.70908,66.972506 488.46684,62.982871 489.71067,62.007867 492.84129,61.381741 495.22241,60.905518 495.92325,61.182808 496.43806,62.804829 496.78972,63.912838 497.6386,65.285099 498.32444,65.854298 499.30452,66.667692 499.57143,64.986533 499.57143,58 499.57143,50.524853 499.35033,49.294288 498.18154,50.264299 497.4171,50.898728 496.39967,52.448799 495.92058,53.708903 494.76123,56.758221 491.88703,56.617267 487.96709,53.318855 485.04648,50.861321 484.82338,50.259366 485.29205,46.101295 485.91877,40.541066 490.56599,35.688798 494.7851,36.189391 497.07978,36.461652 497.54953,35.9958 498.58992,32.41611 499.24273,30.16997 500.53523,26.865652 501.46216,25.073179 503.51507,21.103278 503.09706,20.571608 498.58798,21.417517 494.84026,22.120593 491.63504,25.621603 490.46268,30.292653 489.97126,32.250663 488.86525,33.219311 486.31794,33.922658 474.11674,37.291572 470.85125,49.684819 479.69183,59.070219 483.00116,62.583497 483.02373,62.668547 481.1073,64.402891 478.64489,66.631341 476.60005,74.9815 477.27834,80.038538 477.92135,84.832526 481.34112,89.796528 484.55676,90.603601 486.10591,90.992414 488.51169,90.413995 491.22278,89.000897 495.16829,86.944383 495.53597,86.909594 496.48242,88.50324 498.85578,92.499548 501.24686,95 502.69502,95 503.77351,95 503.95676,94.619822 503.29753,93.75 z"/>
</svg>
