<svg xmlns="http://www.w3.org/2000/svg"
     width="32.6" height="64.0"
     viewBox="213.6789 16.0000 46.3978 91.1594">
  <path d="M 238.375,93.875 C 239.68968,87.301585 237.98492,74 235.82778,74 235.4112,74 234.59293,73.107893 234.00939,72.017541 233.16329,70.436599 233.45209,69.272023 235.43531,66.267541 238.72702,61.280759 241,54.62897 241,49.982682 241,46.82994 241.39515,46.11764 243.42703,45.60767 245.00257,45.212236 246.88797,43.156879 248.80102,39.749262 254.12089,30.273256 253.84584,24.973838 248.36628,31.373013 243.6239,36.911291 238.99846,40.398465 237.87929,39.279288 237.32927,38.729267 236.08308,34.953919 235.10998,30.889625 233.52116,24.253699 233.07889,23.468745 230.77379,23.193559 227.44072,22.795654 222.40307,28.037892 221.5018,32.842097 220.68393,37.201724 223.34912,41.182628 227.67854,42.068089 232.9649,43.149266 233.28954,43.711031 232.77447,50.886045 232.23955,58.337461 229.7599,64.002055 225.09158,68.437091 221.32865,72.011988 221.19044,74.218041 224.56322,76.871066 228.16178,79.701695 232.6771,86.646248 234.56254,92.25 236.4227,97.778599 237.50225,98.238741 238.375,93.875 z M 233.63199,100.75 C 232.45172,95.916715 228.64781,85.484964 227.67816,84.422357 227.03017,83.712253 224.5875,81.113667 222.25,78.647721 219.9125,76.181774 218,73.650303 218,73.02223 218,72.394157 220.17176,69.544716 222.82614,66.690139 229.04971,59.997164 230.45643,56.339617 230.11069,47.75 230.02739,45.68046 229.49283,45 227.95034,45 224.18758,45 220.20675,42.156474 219.04609,38.639656 217.67892,34.497092 219.24437,29.168302 223.44729,23.657994 225.9045,20.436428 226.75591,20 230.58351,20 235.10494,20 236.99325,21.671373 237.00558,25.684259 237.01475,28.671844 239.02867,35 239.97028,35 241.78406,35 247.16156,29.603634 249.06417,25.874209 250.15123,23.743394 251.71764,22 252.54507,22 254.61057,22 256.07668,26.319649 255.34501,30.249571 254.42274,35.203267 248.9378,44.98611 245.76927,47.328705 244.21633,48.476843 243.16854,49.996831 243.44085,50.706455 244.14893,52.551674 240.27952,64.523132 238.49683,66.002635 236.37269,67.765509 236.64136,71.277835 239.23684,75.676845 242.48077,81.174894 242.4381,92.938799 239.15496,98.25 236.85828,101.96538 234.22036,103.15944 233.63199,100.75 z"/>
</svg>
