<svg xmlns="http://www.w3.org/2000/svg"
     width="49.5" height="64.0"
     viewBox="2555.8281 18.0000 65.9083 85.2369">
  <path d="M 2583.2413,95.630317 C 2582.2484,93.451098 2581.9063,91.478413 2580.4073,79.290285 2579.9953,75.940456 2579.1348,74.486826 2576.1948,72.173801 2574.1626,70.575078 2571.5072,68.957893 2570.2939,68.580056 2568.1327,67.90707 2568.0911,68.062177 2568.2511,76.19654 2568.3781,82.651673 2567.9788,85.390389 2566.4572,88.5 2565.3808,90.7 2564.0561,92.5 2563.5135,92.5 2561.5605,92.5 2559.8281,86.742017 2559.8766,80.41239 2559.9323,73.165037 2562.1468,67.345857 2565.4162,65.856245 2567.9479,64.702693 2573.5894,66.783784 2576.4253,69.917446 2579.6759,73.50929 2580.215,72.425319 2579.4925,63.75 2579.0943,58.967959 2579.2979,51.377014 2579.9769,45.691744 2580.8767,38.156489 2580.8742,35.553339 2579.9659,34.458862 2578.7916,33.043961 2571.9715,30.695187 2571.2198,31.446828 2571.0039,31.662768 2570.7536,35.813071 2570.6636,40.669723 2570.5065,49.14818 2570.3614,49.672379 2567.0212,53.826502 L 2563.5423,58.153004 2561.6562,55.826502 C 2560.1154,53.925908 2559.8768,52.476091 2560.3533,47.906942 2560.9767,41.929042 2564.2973,33 2565.8971,33 2566.4296,33 2567.1509,32.1 2567.5,31 2568.278,28.54862 2572.1989,28.349506 2577.3458,30.5 2579.3203,31.325 2581.108,32 2581.3184,32 2581.5289,32 2583.0997,29.75 2584.8092,27 2586.5187,24.25 2588.5621,22 2589.3501,22 2590.879,22 2594,28.725573 2594,32.020236 2594,34.945915 2595.8908,34.453273 2601.7703,29.995697 2604.6689,27.798064 2607.6738,26 2608.4477,26 2612.1467,26 2616.6888,36.51505 2615.5687,42.485494 2614.7575,46.809346 2612.464,49.824067 2611.0466,48.429329 2609.2732,46.684137 2606,36.794026 2606,33.180784 2606,29.435876 2606.1935,29.426465 2599.956,33.474691 L 2595.4119,36.423806 2595.456,55.210681 C 2595.5041,75.732915 2595.7371,76.431286 2600.9453,71.659158 2602.3504,70.371696 2605.1391,68.339931 2607.1424,67.144127 L 2610.7847,64.969937 2612.6829,68.234969 C 2613.7268,70.030736 2615.3287,73.847476 2616.2426,76.716614 2617.6956,81.278003 2617.7364,82.580466 2616.5676,87.086242 2613.4157,99.236912 2607.6987,93.306764 2607.5661,77.749144 2607.5297,73.486173 2607.229,69.998673 2606.8979,69.999144 2606.5667,69.999615 2604.7667,71.129059 2602.8979,72.50902 2601.029,73.888981 2598.2625,75.562638 2596.75,76.228258 2595.2375,76.893877 2594,78.013027 2594,78.715256 2594,81.105296 2589.7248,92.48999 2587.7908,95.25 2585.4327,98.615198 2584.6318,98.682149 2583.2413,95.630317 z M 2565.9089,81.926261 C 2566.8966,75.704397 2566.2672,69.744282 2564.6783,70.273894 2563.1658,70.778075 2560.9684,79.960594 2561.6347,82.992374 2562.8163,88.368096 2563.2054,89.194557 2564.1231,88.276924 2564.6315,87.768503 2565.4351,84.910705 2565.9089,81.926261 z M 2567.1599,49.962309 C 2569.0947,46.35457 2569.7616,35.588721 2568.1133,34.570027 2566.3036,33.45154 2563.4832,40.158575 2562.5325,47.841705 2561.646,55.006734 2563.9004,56.039904 2567.1599,49.962309 z M 2588.862,89.182151 C 2592.3315,82.214134 2593.5002,73.339472 2593.4953,54 2593.4913,38.487109 2593.1954,34.73304 2591.6626,30.75 2590.6572,28.1375 2589.2991,26 2588.6447,26 2586.8174,26 2584.3574,31.798916 2583.1298,39 2581.6078,47.928399 2581.5067,65.220289 2582.896,79 2584.5717,95.619263 2585.1583,96.620499 2588.862,89.182151 z M 2611.8048,33.278547 C 2611.0871,31.781271 2610.05,30.768577 2609.5,31.028114 2607.9897,31.74082 2608.8976,39.912023 2610.8141,42.854167 L 2612.5,45.442441 2612.8048,40.721653 C 2612.9724,38.12522 2612.5224,34.775822 2611.8048,33.278547 z M 2614.566,86.5 C 2615.5579,81.212473 2613.1152,71 2610.8585,71 2608.4055,71 2608.6534,83.87082 2611.1844,87.923646 2613.0149,90.854703 2613.812,90.519115 2614.566,86.5 z"/>
</svg>
