<svg xmlns="http://www.w3.org/2000/svg"
     width="28.2" height="64.0"
     viewBox="2267.4691 17.1757 38.6332 87.7385">
  <path d="M 2280.1027,92.668087 C 2279.4962,89.185535 2279,85.165859 2279,83.735475 2279,82.074234 2278.3252,80.920594 2277.1319,80.541858 2274.7428,79.783583 2271.4691,76.197598 2272.3561,75.310536 2272.7286,74.938074 2273.5658,75.165833 2274.2167,75.816667 2276.8992,78.499185 2278,77.097706 2278,71 2278,66.640617 2277.6322,65 2276.655,65 2275.9152,65 2274.4527,64.043775 2273.405,62.875055 L 2271.5,60.75011 2274.75,61.45451 2278,62.158911 2278,55.316584 C 2278,49.248662 2277.7527,48.362535 2275.8147,47.487128 2272.4756,45.978828 2272.3909,44.071879 2275.6733,44.302733 2278.3384,44.490178 2278.5378,44.20126 2279.6778,38.5 2280.8496,32.64006 2280.8165,32.436049 2278.2617,29.760431 2275.1371,26.488153 2275.7976,25.166053 2279.3832,27.515421 2281.9396,29.190444 2281.9401,29.190146 2283.5882,25.071053 2284.9132,21.759578 2285.5067,21.175654 2286.6137,22.094355 2287.3711,22.72295 2288.5141,24.983872 2289.1537,27.118627 2290.3811,31.215432 2291.9404,31.981639 2294,29.5 2296.6517,26.304956 2296.9515,28.197066 2294.3367,31.625146 2292.2645,34.341952 2291.6459,36.158561 2291.8679,38.875146 2292.27,43.796167 2293.1855,44.428518 2296.3287,41.9561 2299.9208,39.130568 2299.7354,40.921253 2296.0726,44.430489 2293.1548,47.225864 2293.147,47.265427 2293.7097,56.36758 2294.0203,61.390411 2294.4394,65.689274 2294.6411,65.92061 2294.8428,66.151945 2296.0476,65.364445 2297.3184,64.17061 2300.5161,61.166525 2301.8806,61.433793 2299,64.5 2297.7083,65.875 2296.0548,67 2295.3257,67 2294.3221,67 2294,69.206454 2294,76.081559 L 2294,85.163119 2297.5,83 C 2302.1023,80.15561 2301.9371,81.158607 2297.0805,85.546211 2294.3492,88.01382 2292.9702,90.216947 2292.5314,92.814063 2292.1851,94.863829 2291.4983,97.193673 2291.0053,97.991495 2289.1989,100.9142 2288.9072,98.010249 2290.188,89.85466 2292.7861,73.310603 2290.6284,35.457217 2286.6946,28.567666 2285.5751,26.606991 2285.4961,26.655234 2285.1685,29.5 2284.9785,31.15 2284.4358,32.968403 2283.9626,33.540895 2280.0031,38.330916 2279.324,77.200805 2282.8932,94.75 2283.5504,97.981286 2283.4517,99 2282.4814,99 2281.6971,99 2280.7804,96.560017 2280.1027,92.668087 z"/>
</svg>
