<svg xmlns="http://www.w3.org/2000/svg"
     width="29.9" height="64.0"
     viewBox="2905.8733 20.5542 36.8491 78.7794">
  <path d="M 2914.75,60.75 2915,65.40625 C 2916.3196,65.341995 2916.1049,66.361113 2915.125,67.75 L 2915.3125,71.625 C 2916.2601,72.038834 2916.8354,73.926483 2917.3438,78.21875 2917.9212,83.09528 2920.511,89.52248 2923.5,93.4375 2924.9477,95.333622 2925.0276,95.330294 2927.375,93.125 2931.876,88.89656 2933.5,81.172007 2933.5,64 2933.5,51.559756 2933.1247,47.46198 2931.6562,43.25 L 2929.8438,38 2933.4062,33.8125 C 2938.7224,27.601853 2937.7898,25.511739 2932.375,31.5 2927.4163,36.983804 2927.4485,36.938644 2930.5,47.96875 2932.339,54.616155 2932.3563,67.691436 2930.5625,78.5 2929.8323,82.9 2929.367,86.659767 2929.5312,86.84375 2929.91,87.267993 2926.7383,91 2926,91 2925.189,91 2922.251,85.152107 2920.4688,80 2918.1243,73.222512 2917.6256,59.047003 2919.3125,47.5 2920.7092,37.939695 2920.6794,37.371243 2918.8125,34.28125 2916.4505,30.371749 2911.3914,26.526426 2910.5,27.96875 2909.8733,28.982732 2914.2218,35.502832 2916.9375,37.625 2918.1576,38.57844 2918.1965,39.773729 2917.1875,45.25 2916.5302,48.817328 2916,53.607163 2916,55.90625 2916,58.030073 2915.5154,59.455398 2914.75,60.75 z M 2916.6875,24.6875 C 2916.3228,24.554209 2916.011,24.582787 2915.7812,24.8125 2915.1686,25.425172 2915.7938,27.249483 2917.5312,29.875 2919.0279,32.136499 2920.8459,34 2921.5625,34 2923.1392,34 2932.2432,25.899461 2931.5,25.15625 2931.2112,24.867448 2929.1217,26.398237 2926.875,28.5625 2923.0727,32.225146 2922.7236,32.385951 2921.6562,30.65625 2919.4663,27.107003 2917.7815,25.087372 2916.6875,24.6875 z"/>
</svg>
