<svg xmlns="http://www.w3.org/2000/svg"
     width="55.4" height="64.0"
     viewBox="2843.5788 19.1442 75.7337 87.4179">
  <path d="M 2914.75,60.75 C 2914.4096,61.325661 2914.1622,61.931558 2913.625,62.46875 2910.7126,65.381187 2902.8321,67.996323 2902.25,66.25 2901.3812,63.643715 2897.7325,60 2896,60 2894.9822,60 2892.7466,61.181562 2891.0312,62.625 2889.3158,64.068437 2887.7067,65.050315 2887.4688,64.8125 2886.8638,64.207608 2885.6361,51.230969 2885.7812,47 2885.8757,44.246843 2886.6811,42.876158 2889.5625,40.5625 2893.3666,37.507909 2897,30.594083 2897,26.40625 2897,23.144173 2895.4669,23.381883 2890.5938,27.34375 2888.337,29.178388 2885.2603,31.460281 2883.75,32.4375 L 2881,34.21875 2876.375,29.0625 C 2872.209,24.428923 2871.3644,23.916502 2868.125,24.1875 2864.9683,24.451583 2864.2172,25.067723 2862.25,28.96875 2857.579,38.231707 2860.7441,44 2870.4688,44 L 2876,44 2876,54 C 2876,63.231981 2875.8544,64 2874.0625,64 2872.995,64 2871.8447,63.55786 2871.5,63 2870.4548,61.308867 2863.2459,58 2860.5938,58 2857.6809,58 2854.3562,62.00154 2851.0312,69.5 2847.5788,77.286238 2847.9374,94 2851.5625,94 2853.2945,94 2853.4205,92.826865 2851.8438,91.25 2851.1866,90.592773 2850.6616,86.885299 2850.625,82.71875 2850.5689,76.330412 2850.9933,74.478673 2853.875,68.625 2857.855,60.540454 2860.2244,59.050448 2865.125,61.53125 2866.9887,62.474728 2870.0052,64.373054 2871.8438,65.75 2874.6649,67.862888 2875.3827,68.032571 2876.5,66.875 2877.9806,65.341182 2878.4068,60.473174 2878.1562,48.125 2877.9896,39.912466 2877.9586,39.793306 2875.75,40.5625 2874.5125,40.993495 2871.5499,41.345582 2869.1562,41.375 2861.7902,41.46553 2860.1794,36.025166 2865.3125,28.34375 2867.3107,25.35357 2867.5717,25.238517 2869.9688,26.5625 2871.3646,27.333538 2873.85,29.755138 2875.5,31.9375 2877.15,34.119862 2879.2994,35.943283 2880.2812,35.96875 2882.362,36.02272 2886.3663,33.693122 2890.25,30.15625 2893.405,27.282915 2894.5221,27.770316 2893.5625,31.59375 2892.9669,33.966796 2891.6171,35.54112 2884.75,41.78125 2883.2514,43.142997 2883.0597,44.5618 2883.5312,51.4375 2884.5142,65.767808 2884.9605,68 2886.8125,68 2887.7431,68 2889.7864,66.65 2891.3438,65 2892.9011,63.35 2894.791,62 2895.5625,62 2896.334,62 2898.1242,63.833447 2899.5312,66.0625 2902.3596,70.542671 2902.7953,70.549093 2910.8125,66.78125 2912.7431,65.873941 2914.1239,65.448909 2915,65.40625 L 2914.75,60.75 z M 2915.125,67.75 C 2914.1943,69.06915 2912.6257,70.720132 2909.7188,72.8125 L 2905.125,76.09375 2901.0625,74.03125 C 2898.8297,72.892157 2897,71.507572 2897,70.96875 2897,70.429928 2896.1159,70 2895.0312,70 2893.7137,70 2891.7222,72.046238 2889.0312,76.1875 2886.816,79.59686 2885,82.986573 2885,83.6875 2885,84.388427 2885.9838,86.959853 2887.1875,89.4375 2889.6609,94.528523 2889.2049,95.948018 2885.8438,93.59375 2882.7287,91.411879 2881.2368,91.578352 2877.4062,94.5 2875.6035,95.875 2873.8742,97 2873.5625,97 2872.0492,97 2873.3139,93.715532 2876,90.65625 2877.65,88.777004 2879,86.668287 2879,85.96875 2879,83.352268 2871.8115,71.961745 2868.625,69.53125 2864.3775,66.291546 2862.852,66.355575 2860.25,69.875 2855.6852,76.049253 2853.1553,87.741887 2856,89.5 2856.6155,89.880396 2857,88.219014 2857,85.15625 2857,79.883983 2859.6629,72.355169 2862.3125,70.15625 2864.4473,68.384512 2867.5534,70.719407 2871.8438,77.34375 2876.455,84.463654 2876.7541,86.58792 2873.6875,89.8125 2870.9744,92.665341 2869.3857,97.18521 2870.4688,98.9375 2871.5453,100.67956 2874.0382,100.14993 2877.1875,97.5 2880.9507,94.333411 2883.4186,94.333524 2887.2188,97.53125 2893.1977,102.56209 2894.5402,98.717129 2889.9375,89.65625 L 2886.7188,83.3125 2890.0938,77.65625 C 2891.9538,74.546583 2893.8133,72 2894.2188,72 2894.6241,72 2896.9991,73.45596 2899.5,75.21875 L 2904.0312,78.40625 2907.2812,76.5625 C 2909.059,75.545377 2911.546,73.768754 2912.8125,72.625 2913.9447,71.602462 2914.6878,71.352203 2915.3125,71.625 L 2915.125,67.75 z"/>
</svg>
