<svg xmlns="http://www.w3.org/2000/svg"
     width="61.9" height="64.0"
     viewBox="1832.6004 18.9927 85.3856 88.3235">
  <path d="M 1903.8125,57.90625 1898,61.75 C 1894.425,64.089748 1891.05,65.997555 1890.5,66 1889.95,66.002446 1888.2547,64.424983 1886.7188,62.5 1883.6072,58.600348 1882.0693,58.265863 1878.4688,60.625 1873.95,63.585854 1872.7997,61.942539 1873.5625,53.75 1874.2127,46.76639 1874.3797,46.343558 1878.5312,42.71875 1880.9044,40.646817 1883.7985,37.467985 1884.9375,35.625 1887.1355,32.068582 1887.7209,27 1885.9375,27 1884.9206,27 1878.0631,31.729975 1876.9688,33.1875 1876.6827,33.56872 1875.2631,34.323482 1873.8125,34.875 1871.389,35.79644 1870.6486,35.344629 1864.5,29.375 1858.2447,23.301724 1857.6752,22.992727 1855.6875,24.3125 1852.7276,26.277813 1849,33.665297 1849,37.59375 1849,45.701222 1853.4503,49.605093 1859.4375,46.75 1861.2919,45.865703 1863.0752,45.387706 1863.4062,45.71875 1864.3473,46.659728 1864.0874,59.336767 1863.0938,60.90625 1862.3781,62.036584 1861.2095,61.592046 1857.125,58.59375 1850.4684,53.707376 1848.2706,54.035772 1844.8125,60.5 1839.1183,71.144053 1836.6004,87.225145 1839.4062,95 1841.4655,100.70606 1843.4127,99.463522 1844.0938,92 1844.8204,84.036823 1850.421,70 1852.875,70 1853.2245,70 1855.4817,72.877019 1857.875,76.40625 L 1862.2188,82.84375 1858.625,87.53125 C 1855.0868,92.165027 1853.1871,97.863798 1854.4688,99.9375 1855.7313,101.98041 1857.7468,100.9715 1860.375,97 1863.4843,92.301604 1867.4325,91.502245 1869,95.25 1870.4596,98.739751 1872.5757,101 1874.375,101 1876.484,101 1876.5586,94.601186 1874.5,91 1871.7394,86.17079 1873.2231,79.25109 1878.4688,72.5625 1879.9725,70.645281 1880.0396,70.655237 1882.75,72.8125 1884.2615,74.015442 1886.781,75.693801 1888.3438,76.5625 1891.0559,78.07026 1891.3623,78.023369 1895.0938,75.4375 1897.2436,73.947646 1899,72.3502 1899,71.875 1899,70.319537 1901.8629,70.958718 1902.9062,72.75 1904.2478,75.053345 1904.3056,73.435269 1902.9688,70.9375 1901.5134,68.218163 1899.3039,68.523021 1895.3438,72 1893.4645,73.65 1891.2867,75 1890.5,75 1889.7133,75 1887.5354,73.65 1885.6562,72 1883.7769,70.35 1881.3149,69 1880.1875,69 1877.7078,69 1874.822,72.874228 1872.0625,79.875 L 1870,85.0625 1872,89 C 1873.1003,91.156853 1874.002,94.409339 1874,96.21875 L 1874,99.5 1871.875,96 C 1870.7079,94.075 1869.2432,92.154078 1868.625,91.75 1866.1791,90.151497 1862.7035,91.097121 1859.875,94.125 1858.2631,95.850486 1856.7765,97.088978 1856.5625,96.875 1855.8379,96.150398 1859.8526,88.449361 1861.9375,86.5625 1864.4957,84.247361 1864.5081,83.386814 1862.0625,78.4375 1859.1789,72.601702 1854.5907,67.74565 1852.375,68.15625 1849.5602,68.677882 1844.0306,80.833303 1842.7188,89.34375 1841.7802,95.432961 1841.4865,96.049111 1840.9062,93.5 1838.9915,85.087314 1840.558,75.724399 1845.9375,63.3125 1849.2639,55.637364 1851.1808,55.572909 1859.125,62.75 1862.074,65.414191 1863.3732,66.033069 1864.2188,65.1875 1865.5214,63.884833 1866.5531,48.384917 1865.5938,44.5625 1864.8816,41.724654 1862.5384,41.223374 1860.0938,43.40625 1858.5367,44.796739 1856.6506,45.356729 1854.2812,45.125 1853.615,45.059834 1852.5565,43.111215 1851.9375,40.8125 1850.9501,37.145588 1851.1024,36.06006 1853.0625,31.875 1854.2913,29.25147 1855.9956,26.825453 1856.8438,26.5 1857.8729,26.105095 1860.2539,27.936982 1864.0312,31.96875 1867.1443,35.291447 1870.3604,38 1871.1562,38 1871.952,38 1875.0318,36.457886 1878.0312,34.5625 1881.0309,32.667113 1883.6416,31.516898 1883.8125,32 1884.4912,33.918292 1880.8044,39.016718 1876.7812,41.71875 1873.3592,44.016999 1872.3796,45.335517 1871.8125,48.53125 1870.7563,54.483274 1870.8787,64.806991 1872,65.5 1872.5423,65.835158 1875.0503,64.896762 1877.5938,63.40625 L 1882.2188,60.6875 1885.7188,64.375 C 1889.2816,68.151433 1889.5843,68.192178 1895.5,65.96875 1896.6,65.555311 1898.3584,64.28812 1899.4062,63.125 1902.7775,59.382389 1905.3355,60.370356 1908.5,66.625 1910.8984,71.365352 1911.3766,73.508996 1911.4375,80.375 1911.5053,88.025634 1909.0668,98.027788 1907.1562,98 1906.7892,97.994662 1906.4074,94.173621 1906.3125,89.53125 1906.2176,84.88888 1905.7676,80.438745 1905.3125,79.625 1904.719,78.563873 1904.3878,98.212769 1904.9375,101.84375 1905.1605,103.31623 1907.8262,100.57281 1909.625,97 1912.6486,90.994576 1913.986,82.688526 1913.0938,75.5 1912.8136,73.243095 1912.8005,70.792858 1912.9062,68.6875 L 1903.8125,57.90625 z"/>
</svg>
