<svg xmlns="http://www.w3.org/2000/svg"
     width="24.5" height="64.0"
     viewBox="77.9997 18.1027 33.8678 88.3938">
  <path d="M 86.299277,99.75 C 82.951395,96.074331 81.999676,93.428914 82.005792,87.815741 82.01438,79.933893 83.622774,71.518399 86.236586,65.679232 88.324121,61.01575 88.435789,60.051888 87.357971,56 84.953869,46.962151 86.512042,27.087958 89.889529,23.710471 91.497275,22.102725 91.339073,25.924851 89.623906,30.127876 87.698556,34.845955 87.645827,45.661193 89.509005,53.695062 91.075375,60.449115 91.070618,60.506807 88.533952,65.520439 86.934785,68.681135 85.570862,73.765686 84.873938,79.164558 83.923132,86.530182 84.000532,88.485526 85.410995,92.732031 87.490462,98.992721 90.079056,100.59434 95.680522,99.086026 97.883165,98.492916 101.33113,96.409263 103.34266,94.455685 106.02505,91.850584 107,91.351585 107,92.583785 107,95.066265 100.63908,100.62218 96.952844,101.35943 91.267506,102.4965 88.407292,102.06441 86.299277,99.75 z M 91.928684,86.866745 C 90.372089,83.95822 91.433147,78.212945 95.114301,69.617702 97.550819,63.928598 98.030931,61.697158 97.506362,58.5 95.343962,45.320558 95.327577,44.392195 97.096204,35.260071 98.950648,25.68483 99.527387,24 100.95067,24 101.40861,24 100.94361,27.7125 99.917323,32.25 97.521545,42.842405 97.520796,49.710208 99.914755,55.783733 101.80124,60.569777 101.80122,60.686185 99.913661,63.667382 95.626628,70.438287 92.484437,83.945296 94.855434,85.410654 95.325923,85.701432 97.59744,84.324506 99.90325,82.350819 102.20906,80.377132 104.41161,79.083659 104.79782,79.476434 105.62183,80.31447 96.069689,88.94922 94.285184,88.979433 93.617035,88.990745 92.55661,88.040035 91.928684,86.866745 z M 99,91.050891 C 99,89.73129 105.37976,84.991746 107.09439,85.037547 107.86748,85.058197 106.7,86.626503 104.5,88.52267 100.38674,92.067862 99,92.705315 99,91.050891 z"/>
</svg>
