<svg xmlns="http://www.w3.org/2000/svg"
     width="23.7" height="64.0"
     viewBox="884.0000 13.9898 32.5004 87.8523">
  <path d="M 898.17748,94.25 C 896.66299,92.953399 895.56608,89.52052 893.94372,81 892.10655,71.351375 891.8431,67.326647 892.30728,56 892.61157,48.575 893.35973,40.824597 893.96985,38.776882 895.20523,34.630666 893.98724,31.108401 890.10238,27.592652 888.94607,26.546207 888,24.781328 888,23.670698 888,21.723194 888.08737,21.733451 890.45644,23.959076 891.80748,25.228313 894.10132,27.981704 895.55386,30.077723 L 898.19485,33.888666 896.40142,40.694333 C 893.78027,50.640996 893.98963,71.614713 896.82291,82.920313 900.05628,95.822381 902.85154,95.734755 905.05755,82.662174 906.47171,74.281993 905.87447,39.385012 904.26775,36.513966 903.48713,35.119072 903.80924,33.585947 905.61725,30.09087 908.59429,24.335925 910.39918,22 911.86879,22 912.50036,22 911.60736,24.497912 909.88436,27.550915 906.95489,32.741645 906.79442,33.536518 907.41126,39.800915 908.67611,52.646312 908.228,80.120872 906.64459,86.806578 904.46689,96.001612 902.37326,97.842123 898.17748,94.25 z M 896.16342,24.25 C 894.43732,22.1875 893.01942,20.1625 893.01253,19.75 892.99118,18.47197 894.69119,18.922982 896.04531,20.554596 896.75492,21.409624 898.2374,22.591866 899.3397,23.1818 901.03746,24.090416 901.75314,23.752968 904.02066,20.974689 905.59961,19.040082 907.17453,17.989829 907.8607,18.41391 909.14372,19.206859 902.34847,27.909096 900.40089,27.967206 899.79638,27.985243 897.88952,26.3125 896.16342,24.25 z"/>
</svg>
