<svg xmlns="http://www.w3.org/2000/svg"
     width="28.5" height="64.0"
     viewBox="845.6882 13.1541 40.5000 90.9679">
  <path d="M 858.67017,95.056675 C 854.30339,90.223172 852.74356,84.935858 852.60569,74.5 852.52036,68.040772 852.92619,65.689257 854.71286,62.290456 L 856.92573,58.080912 854.42338,52.422671 C 851.26085,45.271623 849.68821,33.713094 851.15499,28.400832 852.40892,23.859499 857.74414,18.434744 861.84173,17.534763 863.57488,17.154098 866.32925,17.548053 868.77413,18.526303 872.20521,19.899149 873.39386,21.220952 876.48195,27.097613 879.94903,33.695478 880.70208,37.99883 878.5,38.629943 877.95,38.787573 876.6,37.489012 875.5,35.744253 874.28214,33.812551 872.18511,32.195424 870.13771,31.609118 867.16127,30.756765 866.56134,30.924772 864.90995,33.073135 860.88447,38.310029 863.14737,47.900636 870.24803,55.696951 871.95985,57.57648 872.05037,58.113278 870.87448,59.412247 867.31447,63.34488 866.37894,64.706801 864.75,68.328037 861.43571,75.695926 863.27758,85 868.05043,85 870.13905,85 875.31516,78.652974 877.63276,73.25 878.3995,71.4625 879.75223,70 880.63882,70 882.02779,70 882.18817,71.141376 881.79806,78.25 881.2119,88.931128 878.87414,93.709499 872.73454,96.775762 866.03442,100.12197 862.90026,99.738877 858.67017,95.056675 z M 873.56432,93.829547 C 877.41946,91.55496 880.32224,84.39746 879.81341,78.420921 L 879.5,74.739733 874.75104,80.869867 C 869.52631,87.614145 866.63156,88.631562 863,85 861.48051,83.48051 861,81.666667 861,77.45034 861,71.467855 862.46125,67.806188 867.31062,61.636905 869.92541,58.310408 870.12842,57.651373 868.77214,56.892358 867.90585,56.40756 865.80273,53.54027 864.09854,50.520602 859.87674,43.039992 859.77883,36.398283 863.8236,31.871393 866.3363,29.059198 867.04847,28.786512 870.29146,29.394899 872.29579,29.770915 874.62517,30.768031 875.46785,31.610711 877.50633,33.649183 877.3995,32.695169 875.08708,28.210162 871.13111,20.537444 867.19222,18.121397 861.63135,19.956651 854.44925,22.326956 852.04773,27.343696 852.99397,38 853.63903,45.264555 858.06656,57 860.16226,57 861.81206,57 860.95675,59.246183 858.60148,61.098837 850.65379,67.350489 854.56184,92.127493 864.09072,95.900597 866.87973,97.004947 868.9492,96.552535 873.56432,93.829547 z"/>
</svg>
