<svg xmlns="http://www.w3.org/2000/svg"
     width="24.5" height="64.0"
     viewBox="2238.4551 18.0329 32.2016 83.9671">
  <path d="M 2244.2812,84.46875 2244.9688,87.84375 C 2245.1099,87.870695 2245.3551,88 2245.4688,88 2245.7725,88 2247.122,85.513998 2248.4688,82.46875 2250.4874,77.903953 2250.7314,76.455622 2249.8438,74.21875 2248.9035,71.849456 2248.4545,48.43222 2249.1562,38 2249.3903,34.520231 2245.4783,25 2243.8125,25 2242.4551,25 2242.8655,26.568342 2245.625,32.0625 2247.9702,36.731682 2248.1586,37.897984 2247.4062,42.90625 2246.3328,50.052735 2246.5984,67.287413 2247.875,72.96875 2248.6947,76.617223 2248.5383,77.988541 2246.9062,81.1875 2245.9458,83.070132 2245.1548,84.032853 2244.2812,84.46875 z M 2246.375,94.5625 2247.0938,98 C 2249.4644,98 2252.2506,94.261653 2256.4688,85.375 2259.7997,78.357538 2259.919,77.667527 2258.875,73.21875 2257.3491,66.716997 2257.3896,49.895508 2258.9375,41.78125 2259.6757,37.911774 2261.4302,33.123157 2263.0938,30.5 2265.9235,26.037834 2266.6567,24 2265.375,24 2263.187,24 2257.9747,34.125433 2256.375,41.5 2254.76,48.944913 2254.6482,62.932333 2256.125,71.875 L 2257.2188,78.625 2253.2812,86.5625 C 2250.9354,91.274782 2248.6067,94.641074 2247.5625,94.84375 2247.3492,94.885156 2246.7637,94.649429 2246.375,94.5625 z M 2260.6875,22.34375 C 2260.3767,22.032908 2259.0185,22.938794 2257.6875,24.375 2254.7847,27.507176 2253.4274,27.667042 2252,25 2250.9601,23.056999 2248.9925,22.237671 2249,23.75 2249.0021,24.1625 2249.9102,25.9625 2251,27.75 2252.0899,29.5375 2253.3944,31 2253.9062,31 2255.1705,31 2261.3968,23.053028 2260.6875,22.34375 z"/>
</svg>
