<svg xmlns="http://www.w3.org/2000/svg"
     width="27.4" height="64.0"
     viewBox="685.8195 11.3614 39.6805 92.6386">
  <path d="M 700.95195,97.746602 C 693.53832,92.75056 689.94259,80.49851 689.87406,60 689.81951,43.681553 691.09047,35.213528 694.85278,26.828339 698.13125,19.521497 699.52782,18.113161 704.25598,17.345886 709.62245,16.475027 713.74876,19.174872 716.44351,25.320189 720.60186,34.80324 721.5,40.607852 721.5,58 721.5,73.434581 721.31623,75.060618 718.65395,83.182214 715.45933,92.927784 710.37777,100 706.56996,100 705.31915,100 702.79105,98.985971 700.95195,97.746602 z M 710.851,94.516918 C 717.55077,86.886303 721.11299,64.914502 718.57142,46.897292 717.76475,41.178781 716.17062,33.486856 715.02891,29.804124 710.95965,16.678209 703.20235,15.361354 697.53537,26.834476 693.27496,35.459909 692.07497,42.072952 692.03562,57.143036 691.97767,79.33798 695.99956,93.353385 703.34348,96.548437 707.6022,98.401242 707.39014,98.458627 710.851,94.516918 z M 703.29514,88.494172 C 702.17821,87.71184 700.98327,85.666365 700.63973,83.948673 699.77747,79.637357 701.86554,71.847924 704.03563,71.280432 706.099,70.740847 706.97241,63.346627 706.21808,52.803877 705.84399,47.575427 705.34751,45.927682 704.0192,45.506094 701.21336,44.615554 699.90382,40.593953 701.18037,36.788025 702.48859,32.887678 704.80096,30 706.61603,30 707.33436,30 708.87831,31.0125 710.04703,32.25 711.79695,34.102915 712.06764,35.281273 711.58086,38.926915 711.25576,41.361719 710.33429,44.078121 709.53315,44.963366 707.68873,47.00143 707.90144,71.25755 709.79378,74.684259 711.64336,78.033523 711.32255,85.41302 709.25,87.192908 706.24704,89.771821 705.38743,89.959665 703.29514,88.494172 z M 708.39301,85.418213 C 709.42589,82.726566 709.06235,76.462351 707.8,75.2 705.80724,73.207236 704.25385,73.833042 703.12008,77.085382 701.22631,82.517867 706.38042,90.662934 708.39301,85.418213 z M 709.11262,41.25 C 710.51123,37.632182 709.10538,33.5 706.47592,33.5 703.86436,33.5 702.00788,40.099641 703.95834,42.449805 705.90034,44.789773 707.92652,44.318123 709.11262,41.25 z"/>
</svg>
