<svg xmlns="http://www.w3.org/2000/svg"
     width="57.6" height="64.0"
     viewBox="0.5852 16.0000 81.9148 91.0169">
  <path d="M 5.8721921,98.238811 C 6.3905999,97.270157 7.7564326,95.625413 8.9073758,94.583824 11.95062,91.829725 11.736463,94.959501 8.6855488,97.825686 5.8899297,100.45203 4.5851722,100.64363 5.8721921,98.238811 z M 11.130828,82.182275 C 9.7518601,71.429658 9.7130631,68.295371 10.949474,67.531227 11.985545,66.8909 12.605841,70.010087 13.42907,80 13.723672,83.575 14.250134,87.5125 14.598986,88.75 15.052388,90.358373 14.80956,91 13.747459,91 12.630885,91 11.980639,88.808749 11.130828,82.182275 z M 12,101.81357 C 12,101.02635 12.634357,99.514725 13.409681,98.454405 14.792997,96.562608 14.858459,96.561932 16.909681,98.418263 18.979768,100.29166 19.742495,103 18.2,103 17.76,103 16.879072,102.47907 16.242382,101.84238 15.365557,100.96556 14.710641,100.99526 13.542382,101.96483 12.27472,103.01689 12,102.98995 12,101.81357 z M 21.608291,95.75 C 18.82833,91.399709 16.954989,82.829378 17.628824,77.544371 18.347109,71.910737 20.40382,67.166006 22.471497,66.372564 24.047944,65.767625 27.935648,68.036085 33.12539,72.589069 35.119355,74.338383 38.761059,76.947742 41.218067,78.387644 45.074976,80.647943 46.10773,80.858406 48.776692,79.928001 50.476929,79.335295 52.588015,77.751521 53.467994,76.408503 55.300845,73.611219 61.962601,56.81228 64.03964,49.75 65.543545,44.636474 66.335302,44.268582 71.67835,46.200652 76.57675,47.971937 77.556833,46.524853 75.99249,39.830861 75.307306,36.898887 73.892446,32.5875 72.848357,30.25 70.952269,26.005051 69,24.630188 69,27.539838 69,30.603194 64.992121,37 63.072794,37 62.033757,37 59.305606,34.753793 57,32 54.69757,29.25 52.405667,27 51.906882,27 48.982752,27 53.397135,39.071805 57.032777,41.017542 58.96264,42.050373 59.176771,42.808511 58.760939,47.136161 58.208217,52.888439 51.727497,66.27095 48.115141,69.119441 42.759175,73.342841 35.879815,69.855592 26.252352,58.036871 21.853081,52.636305 21.77602,52.417027 22.349415,46.931079 23.086949,39.874739 23.972009,37.336676 25.073582,39.119059 25.793464,40.283851 25.646932,42.54606 24.461815,48.563764 24.204993,49.867835 25.55395,52.628663 28.126359,56.063764 34.809773,64.98855 40.731266,69.535248 44.454285,68.60083 48.233726,67.65225 56,53.450897 56,47.488417 56,46.129306 54.46457,43.005784 52.587934,40.547257 50.711298,38.088729 48.875543,34.709835 48.508479,33.038603 47.70145,29.364225 48.641206,24.542662 50.458333,23.034581 51.900418,21.837756 52.632058,22.377431 56.709316,27.645453 57.924439,29.215454 59.772679,31.594742 60.816514,32.932759 L 62.714397,35.365518 64.389333,32.809243 C 65.310548,31.403291 66.33749,27.946049 66.671426,25.126483 67.044553,21.976006 67.766745,20 68.545055,20 69.241615,20 71.180793,22.067215 72.854341,24.59381 75.973106,29.302286 78.230955,37.402436 78.403026,44.5 L 78.5,48.5 73.16829,48.5 C 67.174068,48.5 67.24447,48.411227 62.858569,61.5 58.405242,74.789991 52.03577,83.051094 46.29966,82.976641 44.417631,82.952212 38.650614,79.777342 30.383094,74.214221 23.354381,69.48468 21.692548,70.063063 20.683958,77.589904 19.894224,83.483479 20.752366,87.731337 24.453623,96.25 25.572454,98.825054 23.320453,98.429318 21.608291,95.75 z"/>
</svg>
