<svg xmlns="http://www.w3.org/2000/svg"
     width="56.9" height="64.0"
     viewBox="1778.9978 13.4038 82.3460 92.6274">
  <path d="M 1857.3438,55.65625 C 1855.1616,58.196986 1847.1583,62.987085 1844.75,63 1843.7875,63.005161 1843,62.548415 1843,62 1843,60.453008 1835.9361,53 1834.4688,53 1833.7499,53 1831.129,54.55005 1828.6562,56.4375 1823.3135,60.515677 1823,60.134898 1823,49.78125 1823,42.790733 1823.0433,42.706691 1827.375,38.375 1829.7777,35.972368 1832.4557,34 1833.3438,34 1834.2797,34 1836.043,36.125608 1837.5312,39.0625 1838.9434,41.849069 1840.6336,43.965874 1841.2812,43.75 1843.6518,42.959774 1845.2031,34.896678 1844.0312,29.4375 1841.834,19.201384 1837.5512,17.403759 1829.6875,23.40625 1827.2385,25.275629 1823.4337,27.85024 1821.2188,29.125 L 1817.1875,31.4375 1812.2812,26.21875 C 1805.4626,18.955918 1799.7131,19.304653 1798.0938,27.0625 1796.4463,34.954639 1800.7458,43.074734 1807.4688,44.84375 1810.4813,45.63644 1810.5076,45.70163 1810.2812,51.96875 1810.1558,55.44427 1809.8024,58.541329 1809.5,58.84375 1809.1976,59.146172 1806.4886,58.138264 1803.5,56.625 1800.5114,55.111735 1796.5287,53.621431 1794.625,53.3125 1791.2912,52.77151 1791.062,52.941613 1788.5938,57.8125 1786.0849,62.763723 1783.0083,77.736932 1783,85.0625 1782.9978,87.025174 1783.7061,90.990909 1784.5625,93.875 1785.7352,97.823783 1786.5378,99.05781 1787.8125,98.8125 1789.1749,98.550314 1789.5226,97.212275 1789.6562,91.96875 1789.9379,80.929263 1794.8765,64 1797.8125,64 1798.8463,64 1806.1593,71.727401 1808.8438,75.65625 1811.7329,79.884462 1811.5505,82.254876 1808,87.15625 1805.7398,90.276381 1805.0591,92.260291 1805.1562,95.375 1805.2269,97.639398 1805.4575,99.8375 1805.6875,100.25 1806.6805,102.03111 1808.9059,100.74047 1809.9375,97.78125 1811.3216,93.810924 1814.795,90 1817.0312,90 1818.8676,90 1822.6068,93.133618 1825.2188,96.875 1826.3363,98.475861 1827.4194,99.063668 1828.5625,98.625 1831.0293,97.678397 1829.8596,89.29085 1826.5,83.96875 1823.9279,79.894338 1823.8971,79.739496 1825.4375,75.21875 1827.0192,70.576679 1830.4631,66 1832.375,66 1832.9434,66 1835.0983,67.646761 1837.1562,69.65625 1841.687,74.080328 1845.1035,74.29283 1851.4688,70.5625 1854.7185,68.658015 1856.2952,68.008909 1857.125,68.4375 L 1857.3438,68 1857.3438,63.15625 C 1856.678,64.339566 1855.3358,65.723531 1852.75,67.40625 1844.5548,72.739335 1843.9105,72.725064 1838.0625,67.53125 1835.2499,65.033237 1832.7344,63 1832.5,63 1831.331,63 1826.5635,69.065203 1824.3438,73.375 1821.5962,78.709349 1821.7551,81.448886 1825.0625,86.09375 1826.1259,87.587201 1827,90.058262 1827,91.59375 L 1827,94.40625 1823.6875,91.1875 C 1819.3617,86.99473 1815.7643,86.963679 1811.9062,91.09375 1810.3106,92.801916 1809,94.601916 1809,95.09375 1809,95.585585 1808.5159,96 1807.9062,96 1806.3253,96 1807.6236,91.416405 1810.2188,87.90625 1811.3978,86.311425 1812.7409,85 1813.1875,85 1815.0677,85 1813.7637,79.972274 1810.4375,74.4375 1799.5076,56.250326 1793.6234,58.242258 1788.8125,81.78125 1785.4514,98.226744 1783.3408,88.971088 1786.4375,71.375 1788.1112,61.864958 1790.2466,56.220468 1792.5312,55.34375 1793.4308,54.998529 1797.4031,56.144859 1801.3438,57.875 1805.282,59.604106 1809.0337,61.001359 1809.6875,61 1811.1635,60.996931 1812.2385,54.147371 1811.8125,47.5 1811.5035,42.680172 1811.3775,42.486837 1808.2812,42.1875 1804.6426,41.835731 1800.0543,37.207059 1799.875,33.6875 1799.281,22.025358 1803.4815,19.891945 1811.0938,28 1813.6757,30.75 1816.3647,33 1817.0625,33 1818.7292,33 1826.5581,28.421056 1831.1562,24.75 1836.6628,20.353803 1839.0813,21.158402 1841.375,28.21875 1843.1595,33.712069 1843.0226,39 1841.0938,39 1840.6086,39 1839.2608,37.425 1838.125,35.5 1835.5421,31.122248 1832.8841,31.004754 1827.5625,35.03125 1820.253,40.561799 1819.217,43.706776 1820.6562,55.6875 1821.0203,58.718251 1821.8458,61.095239 1822.6562,61.40625 1823.4201,61.699396 1826.0886,60.381048 1828.5938,58.46875 1831.0989,56.556452 1833.5546,55 1834.0625,55 1835.3733,55 1838.3916,58.199933 1840.5625,61.875 1842.8571,65.759414 1845.9106,65.911379 1851.5,62.46875 1854.7881,60.443559 1856.5143,59.834585 1857.3438,60.40625 L 1857.3438,55.65625 z"/>
</svg>
