<svg xmlns="http://www.w3.org/2000/svg"
     width="57.9" height="64.0"
     viewBox="1118.5938 20.4195 77.8247 86.0273">
  <path d="M 1124.6875,68.28125 C 1125.3611,68.481882 1126.5004,69.014334 1127.7812,69.9375 1132.9832,73.68666 1135.2024,73.538493 1139.3438,69.0625 1141.4075,66.832108 1143.668,65 1144.375,65 1146.8254,65 1151.8651,71.928495 1153.875,78.0625 1154.9361,81.300986 1154.7565,82.118222 1152.0312,87.0625 1148.9418,92.667529 1148.0294,99.279303 1150.1562,100.59375 1150.8123,100.99917 1152.0614,100.27525 1153.0625,98.90625 1159.1599,90.568289 1160.7627,90.398225 1165.8125,97.5625 1167.5733,100.06054 1169.4581,101.83495 1170,101.5 1171.6778,100.46307 1171.044,92.704425 1168.9375,88.5 1165.6516,81.941876 1164.0157,79.414078 1164,80.875 1163.9919,81.632507 1165.3696,85.061193 1167.0625,88.5 1168.8762,92.184068 1170.0058,95.875925 1169.8125,97.5 1169.5112,100.0321 1169.2203,99.761881 1166.0625,94.125 1161.9626,86.80657 1160.0957,86.408886 1156.25,91.96875 1154.7427,94.147876 1153.1125,95.947876 1152.6562,95.96875 1150.9362,96.047448 1155.107,83.510908 1157.3438,81.875 1159.8186,80.064938 1147.8305,62 1144.1562,62 1143.3718,62 1140.7852,64.101654 1138.4062,66.65625 L 1134.0938,71.28125 1131.2812,69.5 C 1127.7777,67.276329 1125.1874,64.846596 1123.9062,62.75 L 1124.6562,68 1124.6875,68.28125 z M 1123.3125,58.6875 C 1123.8057,57.703941 1124.7925,57.84785 1125.6875,59.375 1126.1273,60.125486 1128.0285,61.508455 1129.9062,62.46875 L 1133.3125,64.21875 1137.25,60.125 C 1139.4012,57.864219 1141.6772,56 1142.3125,56 1142.9478,56 1146.0829,57.619545 1149.2812,59.59375 1156.8946,64.292971 1158.0257,63.782719 1157.875,55.78125 1157.8099,52.326488 1157.484,48.15 1157.125,46.5 1156.5298,43.764901 1156.1394,43.52871 1152.875,43.8125 1150.6325,44.007461 1147.7544,43.323025 1145.1562,41.96875 1141.7185,40.176912 1141,39.287314 1141,36.84375 1141,34.032747 1143.4529,28 1144.5938,28 1146.357,28 1149.3085,30.588071 1152,34.5 1154.6192,38.306906 1155.5936,39 1158.4375,39 1161.2677,39 1170.9998,34.787849 1174.4688,32.0625 1176.8368,30.202107 1183.1954,28.789214 1184.2812,29.875 1186.303,31.896764 1186.8978,41.211613 1185.2188,44.5 L 1183.6875,47.5 1182.0938,42.78125 C 1179.7337,35.796448 1178.9066,35.337627 1173.8125,37.9375 1166.1545,41.845993 1164.293,42.967691 1163.125,44.375 1161.7075,46.082942 1162.7288,59.245616 1164.4688,61.625 1165.5471,63.099764 1166.0755,63.064741 1170.5312,61.09375 1173.2188,59.904872 1176.1878,58.223189 1177.125,57.375 1180.1849,54.605827 1183.2714,56.042782 1186,61.5 1188.1896,65.87925 1188.5056,67.741501 1188.4375,76.5 1188.3186,91.795865 1183.5847,102.44677 1183.4375,87.75 1183.3455,78.561245 1181.5459,71.210405 1178.5,67.4375 L 1176.125,64.5 1172.375,66.5 C 1168.7291,68.43338 1165.928,72.075408 1164.5312,76.75 1164.1285,78.097937 1164.2981,79 1164.9375,79 1165.5246,79 1165.998,78.2125 1166,77.25 1166.0062,74.36066 1169.8053,69.009547 1172.625,67.9375 1176.2684,66.55229 1178.4896,68.778135 1180.5625,75.875 1182.0621,81.009349 1182.1653,88.615781 1180.8125,97.46875 1180.2941,100.86084 1183.7371,100.47305 1185.9062,96.90625 1191.7468,87.302154 1192.4185,70.370056 1187.375,60.28125 1183.8413,53.212434 1181.9917,52.722686 1174.625,56.9375 1171.6736,58.626147 1168.5814,60 1167.75,60 1165.9215,60 1165.0182,57.056059 1165,50.90625 1164.9846,45.749791 1165.9779,44.50464 1172.875,40.9375 1176.9533,38.828205 1177.3489,38.769568 1178.5,40.34375 1179.1811,41.275137 1180.0301,43.811815 1180.375,45.96875 1181.1264,50.668192 1182.4997,51.771568 1184.9062,49.59375 1189.0506,45.843144 1189.8514,34.731384 1186.375,29.25 1183.9211,25.380619 1180.2041,26.199312 1168.0312,33.25 1164.4649,35.315621 1160.6101,37 1159.4688,37 1158.1957,37 1155.5381,34.874252 1152.625,31.5 1147.0634,25.058065 1144.2574,24.419519 1141.0625,28.90625 1138.057,33.127192 1137.4836,37.25156 1139.4688,40.28125 1141.3296,43.121231 1147.5748,46 1151.9062,46 1154.3037,46 1154.8501,46.500729 1155.375,49.125 1156.3671,54.085711 1156.1173,60 1154.9062,60 1154.2985,60 1151.7885,58.65 1149.3438,57 1143.3898,52.981707 1141.1894,53.166173 1136.6875,58.0625 L 1132.9375,62.125 1127.7188,57.96875 C 1124.9992,55.808635 1123.5683,54.566074 1122.5938,52.3125 L 1122.6562,54 1123.3125,58.6875 z"/>
</svg>
