<svg xmlns="http://www.w3.org/2000/svg"
     width="29.3" height="64.0"
     viewBox="484.0312 24.5308 37.5312 81.9626">
  <path d="M 493.1875,83.96875 492.65625,84.65625 488.03125,94.5625 C 489.50845,94.599552 492.69306,95.46929 496.1875,96.9375 500.18637,98.617648 504.35834,99.99158 505.46875,100 506.57917,100.00842 508.175,100.44706 509,100.96875 511.41108,102.49339 513.05627,99.913881 515.125,91.34375 516.6631,84.97187 517.02753,79.680994 517.03125,63.25 L 517.03125,43 517.5625,42.46875 517,39.78125 C 516.98019,39.788818 516.76206,40 516.75,40 516.44208,40 515.66012,37.751696 515,35 514.33988,32.248304 513.41914,29.77836 512.96875,29.5 511.40054,28.530793 509.04337,32.120385 506.875,38.78125 504.92762,44.763277 504.67856,47.769946 504.59375,66.65625 504.54146,78.298752 504.18732,88.156436 503.8125,88.53125 503.05251,89.291244 496.1945,87.293343 494.25,85.75 493.7455,85.34958 493.3845,84.646884 493.1875,83.96875 z M 511.09375,33.4375 C 511.54142,33.160825 512.50558,34.864654 513.21875,37.21875 515.06829,43.323891 514.99523,83.539209 513.125,91 512.36671,94.025 511.46671,96.970468 511.125,97.53125 510.30794,98.872138 502.50453,97.809969 498,95.75 496.075,94.869678 493.69372,93.896426 492.71875,93.59375 490.44212,92.886981 489.39757,90.196176 490.84375,88.75 491.67239,87.92136 493.42831,88.223974 497.5625,89.9375 506.42513,93.610855 506.48684,93.47927 506.53125,67.71875 506.56167,50.067597 506.89581,45.44181 508.4375,40.21875 509.45655,36.766329 510.64608,33.714174 511.09375,33.4375 z"/>
</svg>
