<svg xmlns="http://www.w3.org/2000/svg"
     width="24.0" height="64.0"
     viewBox="2063.5969 14.8707 33.7053 89.9700">
  <path d="M 2080.3577,95.313701 C 2077.7399,89.048306 2077.5026,74.91077 2079.8273,63.703722 2081.6433,54.948662 2081.7073,53.543771 2080.4296,50.48584 2077.6375,43.803237 2079.394,21.368679 2082.7982,20.233938 2084.3736,19.708784 2084.3142,20.857955 2082.5,26 2080.453,31.801835 2080.616,41.587983 2082.8808,48.864944 2084.7304,54.80764 2084.7293,55.004407 2082.8117,60.704039 2079.6359,70.143327 2080.0515,88.152854 2083.6624,97.562546 2084.9203,100.84068 2081.7718,98.698103 2080.3577,95.313701 z M 2069.8313,96.25 C 2068.0546,91.884554 2068.4235,74.420538 2070.4385,67.5 2073.3119,57.63164 2073.3675,56.281819 2071.116,51.047902 2067.5969,42.867601 2068.8552,20.513341 2072.9093,19.187874 2073.8795,18.870681 2074.1218,19.240174 2073.6869,20.373635 2072.0917,24.530442 2070.8005,35.81713 2071.335,40.930997 2071.6595,44.035933 2072.8416,48.648441 2073.9619,51.181016 L 2075.9988,55.785697 2073.402,65.642848 C 2071.1685,74.121299 2070.8756,76.898681 2071.3082,85.5 2071.5849,91 2072.1268,96.2875 2072.5126,97.25 2072.933,98.298966 2072.7606,99 2072.0822,99 2071.4598,99 2070.4469,97.7625 2069.8313,96.25 z M 2089.367,94.25 C 2087.3153,87.264563 2087.0462,69.812005 2088.8757,62.382783 2089.9353,58.079617 2089.8848,56.050317 2088.5579,49.626378 2086.7395,40.822972 2087.7152,27.124893 2090.5056,22.281646 2092.0864,19.537922 2092.0976,19.568165 2091.3276,24.5 2089.8152,34.187392 2090.4111,50.55578 2092.4464,55.232074 2092.8723,56.210664 2092.5041,59.007024 2091.6001,61.660213 2089.5668,67.627785 2089.5036,83.314827 2091.48,91.5 2093.2184,98.699628 2093.3022,100 2092.0279,100 2091.4933,100 2090.2959,97.4125 2089.367,94.25 z"/>
</svg>
