<svg xmlns="http://www.w3.org/2000/svg"
     width="48.0" height="64.0"
     viewBox="620.6857 21.0116 66.7318 89.0423">
  <path d="M 628.28836,101.79289 C 626.47682,99.513936 624.68574,92.652716 624.84453,88.60037 624.93641,86.255591 626.35349,82.203716 628.35544,78.561613 631.07394,73.615916 631.53475,71.983468 630.77863,69.977281 626.89381,59.66984 627.20165,39 631.23997,39 632.17667,39 631.35916,44.411743 630.05953,46.814245 629.19551,48.411468 630.37191,58.060372 632.5622,67.341473 634.12028,73.94361 634.10804,74.258458 632.21253,76.341473 627.22198,81.8257 625.50798,90.813198 628.27276,97 L 629.83685,100.5 629.9989,96 C 630.40785,84.644004 635.17479,77.150034 640.25871,79.870864 643.03202,81.355098 648.32181,89.078376 650.10718,94.25 651.71496,98.907175 652.7212,99.003055 653.55131,94.578175 654.74898,88.194082 651.19794,78.57021 645.95833,74 643.79979,72.117233 642.58699,69.540079 641.04608,63.561663 639.92073,59.195578 639,53.698345 639,51.34559 639,45.88642 641.72616,40.106834 644.64697,39.373758 647.70052,38.607364 653.27183,40.575301 655.70293,43.279021 657.86637,45.685078 664,54.578156 664,55.308855 664,56.135744 658.535,57.925188 655.12739,58.214078 L 651.75478,58.5 653.66685,60.849106 C 654.98973,62.474348 656.97541,63.355617 660.11084,63.709025 L 664.64275,64.219838 664.59609,70.359919 C 664.5607,75.017272 665.21032,77.923788 667.28623,82.396005 669.8603,87.941421 674.00959,93 675.98413,93 677.44605,93 678.21987,89.117599 678.25373,81.613158 678.28663,74.31858 676.5375,68.520898 673.55778,66.047949 671.2354,64.120545 671.65585,62.160461 674.99425,59.351385 678.10702,56.732162 681.08044,49.023623 680.23098,45.775272 679.82567,44.225367 679.16347,44.44373 674.99949,47.500375 672.3774,49.425169 669.75507,51 669.1721,51 668.58913,51 666.90363,48.30706 665.42655,45.015688 660.86199,34.844498 650.10376,26.753205 643.38632,28.439175 642.00722,28.785308 638.88112,31.066252 636.43943,33.507938 633.99774,35.949625 632,37.546015 632,37.055472 632,34.750232 633.61383,32.622919 637.77027,29.449243 643.03298,25.430863 647.14217,25.011558 652.8288,27.912658 657.42176,30.255814 665.41172,38.994591 667.69701,44.174323 668.62535,46.278445 669.66087,48 669.99817,48 671.08304,48 677.41512,43.0096 678.27117,41.479934 679.71056,38.907886 681.75349,39.872457 682.42279,43.440123 683.41758,48.742815 681.10059,55.938927 676.92276,60.522156 675.12378,62.495704 675.15063,62.685388 678.03973,68.413078 680.45941,73.210123 681,75.530712 681,81.120685 681,89.125107 678.68748,96 675.99501,96 671.41434,96 662.95547,81.497596 662.19561,72.341463 661.77537,67.277648 661.68565,67.151666 657.3096,65.480435 652.91818,63.803338 647,57.413936 647,54.349962 647,52.676017 646.97858,52.675278 651.34576,54.5 655.43741,56.209603 656.93087,56.329949 658.86311,55.105765 659.96188,54.409629 659.69915,53.34278 657.50829,49.604366 654.19904,43.957551 651.57444,42 647.31268,42 644.98447,42 643.72067,42.634338 642.83,44.25 639.41633,50.442295 643.32339,68.390057 649.41007,74.476738 653.09922,78.165883 656.00302,85.421215 655.99442,90.928139 655.97808,101.39341 651.16867,106.05383 648.93719,97.766746 646.37525,88.252426 640.06045,79.608537 637.03686,81.477216 634.57089,83.001275 632.66361,88.835876 632.45296,95.5 632.28845,100.70415 631.85769,102.57514 630.77388,102.79289 629.97209,102.95398 628.85361,102.50398 628.28836,101.79289 z"/>
</svg>
