<svg xmlns="http://www.w3.org/2000/svg"
     width="64.0" height="50.7"
     viewBox="235.4379 21.9802 105.1237 83.2394">
  <path d="M 329.875,88 C 324.26343,89.41583 314.49318,87.613227 308.78125,84.0625 302.86856,80.386967 301.85064,80.324211 296.59375,83.375 290.03986,87.178487 288.79385,87.282074 285.625,84.34375 282.81915,81.742023 282.78425,81.563626 283.1875,72.34375 283.6066,62.761192 284.81648,59.640674 287.375,61.53125 296.38569,68.189551 299.65368,69.324726 305.84375,67.9375 311.65511,66.635148 315.67513,63.358156 319.5,56.84375 321.99405,52.595939 323.36267,51.336404 326.34375,50.5 333.72418,48.429261 336.56166,38.092642 331.71875,30.90625 328.39907,25.980168 326.81481,26.183892 323.21875,31.96875 319.51135,37.9327 316.36726,38.651155 312.75,34.34375 306.25038,26.604076 305,26.548174 305,34.0625 305,38.535186 305.38103,39.365675 309.09375,42.96875 L 313.21875,46.96875 311.28125,50.21875 C 309.47014,53.280116 309.02369,53.505739 304.15625,53.375 298.39675,53.2203 293.15899,51.50317 291.25,49.15625 290.5625,48.311034 290,44.972192 290,41.75 290,34.455188 287.91355,30 284.5,30 281.78049,30 279.88009,32.418942 278.03125,38.25 277.3773,40.3125 276.54122,42 276.15625,42 275.10278,42 271.96009,39.654711 267.5,35.53125 265.3,33.497296 262.22708,31.183173 260.6875,30.375 258.11688,29.025596 257.58604,29.089929 254.1875,31.125 252.15208,32.343827 249.66415,34.04562 248.65625,34.90625 244.15184,38.75248 242.67145,49.52579 245.53125,57.5 246.89669,61.307339 246.81734,61.851388 243.96875,68.71875 240.33799,77.471764 239.43793,83.194381 240.875,88.53125 242.25957,93.673154 247.94448,100 251.1875,100 254.19752,100 262,94.38287 262,92.21875 262,90.999283 261.3452,91.251202 259.25,93.25 253.11253,99.105086 248.24352,98.530587 244.625,91.53125 241.3365,85.170267 241.67463,78.894077 245.75,70.3125 248.30893,64.92413 249.04571,62.264733 248.5625,60.25 245.40818,47.098073 245.6447,42.77923 249.71875,37.9375 252.32706,34.837691 256.86626,32 259.25,32 259.9986,32 261.49629,32.7875 262.5625,33.75 271.13429,41.488027 274.59913,44 276.65625,44 278.22808,44 279.01662,43.415945 279.03125,42.25 279.04333,41.2875 279.90772,38.5875 280.96875,36.25 284.74868,27.922642 288.6433,32.652291 287.53125,44.21875 L 286.875,50.9375 290.6875,52.5625 C 301.9763,57.382412 308.80974,57.503498 312.21875,52.9375 314.80507,49.473406 315.77744,43 313.71875,43 311.89945,43 307,37.48882 307,35.4375 307,34.654699 307.675,34 308.5,34 309.325,34 310,34.472351 310,35.03125 310,35.590148 311.55193,36.757087 313.4375,37.65625 317.8785,39.774016 322.07395,38.229896 325.09375,33.34375 326.2593,31.457856 327.74819,30.074711 328.375,30.28125 332.08644,31.504182 333.00843,43.429072 329.65625,46.78125 328.76307,47.67443 326.57736,48.376631 324.78125,48.34375 321.76703,48.288569 321.29058,48.743903 318.6875,54.15625 314.66892,62.511717 310.40746,65.5 302.5625,65.5 297.08465,65.5 295.92877,65.115712 291.34375,61.75 288.53406,59.6875 285.75582,58 285.1875,58 283.07601,58 280.57597,67.254191 280.53125,75.25 280.48832,82.923672 280.60657,83.221147 283.78125,86.0625 287.83435,89.690046 289.09894,89.724153 296.375,86.15625 L 302.1875,83.28125 309.125,86.84375 C 315.35938,90.042402 316.85095,90.384586 324.34375,90.4375 326.95803,90.455962 328.61911,90.410162 330.03125,90.28125 L 329.875,88 z M 330.5625,97.3125 C 328.36401,98.004616 326.2637,98.314107 323.1875,98.25 316.12008,98.102719 310.86134,96.656999 306.71875,93.75 301.85421,90.336376 297.14518,90.399486 292,93.90625 289.525,95.59312 286.2828,96.958741 284.8125,96.96875 281.38249,96.992098 276.3447,92.739779 274.46875,88.25 272.46082,83.444345 272.68301,72.176693 274.96875,62.53125 276.00815,58.145184 276.54261,53.971647 276.15625,53.28125 275.30914,51.767548 268.94454,47 267.78125,47 267.32631,47 265.15264,45.809666 262.9375,44.34375 259.32694,41.954395 258.74303,41.819475 257.375,43.1875 254.83799,45.724512 253.72562,52.894768 255.09375,57.78125 256.19621,61.718864 256.07356,62.451266 253.71875,66.78125 247.9512,77.386533 248.01579,85.95302 253.84375,84.53125 255.31105,84.17329 257.38403,83.002823 258.46875,81.9375 260.18173,80.255157 260.22583,80 258.78125,80 257.86649,80 256.83992,80.45 256.5,81 256.16008,81.55 255.00504,82 253.9375,82 252.56893,82 252,81.306925 252,79.65625 252,75.947188 254.55288,68.424024 256.96875,65.03125 259.03642,62.127482 259.09212,61.687401 257.75,58.21875 256.93784,56.119748 256.49683,52.652187 256.75,50.25 257.30637,44.970977 258.87018,44.791768 266.4375,49.0625 274.45848,53.58926 274.5066,53.66179 272.625,63 270.16391,75.214093 270.45669,84.993479 273.46875,90.9375 274.88868,93.739594 277.37169,96.675516 279.3125,97.875 283.1936,100.27366 285.28642,99.928888 293.84375,95.4375 L 299.15625,92.625 305.34375,96.03125 C 308.73552,97.899236 313.3,99.728765 315.5,100.09375 322.28631,101.21961 326.01055,101.21319 330.71875,99.59375 L 330.5625,97.3125 z M 261.1875,83.5 259.21875,85.59375 C 258.13756,86.737045 255.84134,88.226569 254.125,88.9375 252.40866,89.648432 251,90.641727 251,91.125 251,92.520518 254.23361,92.001815 257.5,90.09375 259.25178,89.070444 260.64731,87.353204 260.84375,85.9375 L 261.1875,83.5 z"/>
</svg>
