<svg xmlns="http://www.w3.org/2000/svg"
     width="52.1" height="64.0"
     viewBox="2954.0000 45.2190 47.0000 57.7810">
  <path d="M 2971.4062,58.4375 C 2971.1332,60.550905 2970.7923,61.73211 2970.2812,62.15625 2969.065,63.165655 2968.4691,62.946835 2966.9375,60.9375 2965.91,59.58961 2964.785,57.237164 2964.4375,55.6875 2962.9868,49.218972 2958,51.733066 2958,58.9375 2958,62.521067 2958.7472,64.769813 2961.0938,68.3125 L 2964.1562,72.96875 2961.9688,76.0625 C 2959.3764,79.703049 2960.0849,80.938895 2965.7812,82.53125 L 2969.5,83.5625 2969.7812,90.03125 C 2969.9319,93.590724 2970.2554,97.0625 2970.5,97.75 2970.7447,98.4375 2971.4016,99 2971.9688,99 2973.3153,99 2973.3435,85.479061 2972,82.96875 2971.4434,81.928576 2969.4184,80.797378 2967.5,80.4375 2963.4617,79.679906 2962.8608,77.340876 2966,74.5 2967.1025,73.502234 2969.2276,70.257215 2970.7188,67.3125 2974.0871,60.659969 2978.7683,55.361985 2980.0938,56.6875 2980.6218,57.21549 2982.1706,60.717272 2983.5312,64.46875 2984.8919,68.220229 2986.6526,72.64522 2987.4688,74.28125 2989.2247,77.801322 2988.7228,79 2985.5,79 2981.7637,79 2980,81.551382 2980,86.9375 2980,93.479132 2981.0265,98.143221 2982.375,97.6875 2983.0838,97.447945 2983.3994,94.974226 2983.2188,90.90625 2983.0621,87.379923 2983.2863,83.980116 2983.7188,83.34375 2984.1512,82.707383 2986.0758,81.786508 2988,81.28125 2991.3511,80.401288 2991.5,80.142204 2991.5,75.78125 2991.5,73.018979 2992.1412,70.510588 2993.125,69.375 2995.9132,66.156745 2997,63.272953 2997,59.125 2997,53.378097 2995.3453,53.073518 2990.6875,57.96875 2986.9382,61.909187 2986.5559,62.095257 2985.3438,60.4375 2984.7494,59.624723 2984.4713,56.626328 2984.3438,53.125 L 2982,50 2978.625,52.6875 C 2978.469,52.872788 2978.3651,53.059342 2978.1875,53.25 2976.7784,54.7625 2975.2051,56 2974.6875,56 2974.6765,56 2974.6669,55.848214 2974.6562,55.84375 L 2971.4062,58.4375 z M 2961.4375,57 C 2961.6773,57 2962.8885,58.8 2964.125,61 2965.3614,63.2 2966.7388,65 2967.1875,65 2967.6363,65 2968,65.617345 2968,66.375 2968,67.132656 2967.3626,68.268205 2966.5938,68.90625 2964.4497,70.685619 2961,65.735199 2961,60.875 2961,58.749173 2961.1977,57 2961.4375,57 z M 2993.4062,60.15625 C 2994.843,60.284165 2994.8273,62.766104 2992.375,66.375 2989.5715,70.50062 2989.7759,70.400918 2988.1875,68.8125 2986.4704,67.095424 2986.7263,65.865917 2989.4688,62.75 2991.1469,60.843309 2992.5442,60.079501 2993.4062,60.15625 z"/>
</svg>
