<svg xmlns="http://www.w3.org/2000/svg"
     width="49.1" height="64.0"
     viewBox="1631.9871 13.0000 73.3552 95.6377">
  <path d="M 1639.6395,103.30615 C 1638.5175,102.18422 1638.9826,92.592738 1640.2835,90.021529 1641.0363,88.533815 1643.3001,86.892014 1645.9465,85.91441 1648.3715,85.018653 1651.6768,82.806999 1653.2916,80.999622 1655.876,78.107223 1656.166,77.165398 1655.7122,73.139182 1655.3209,69.667003 1654.4534,67.900796 1652.1119,65.808631 1650.4152,64.292694 1648.3875,63.29779 1647.6059,63.597735 1645.9478,64.234019 1642,72.922404 1642,75.935381 1642,78.788416 1640.5744,78.517097 1638.3987,75.25 1636.2153,71.971349 1635.9871,62.77278 1637.9951,58.986973 1639.6985,55.775482 1643.8992,52.103987 1646.7005,51.378176 1648.014,51.037852 1651.2086,51.864519 1654.626,53.42905 1661.3523,56.508462 1661.9618,56.084427 1661.9847,48.309017 1662.0015,42.595896 1661.0937,41.49125 1656.6591,41.829151 1648.2889,42.466936 1640.2473,31.840872 1642.9356,23.695215 1644.1166,20.116748 1648.4327,17 1652.2073,17 1655.7117,17 1664.6375,23.5856 1666.9242,27.858421 1668.5171,30.834777 1670.9673,30.275384 1680.3567,24.791684 1692.0757,17.9474 1698.9468,18.869122 1700.5665,27.502723 1701.3423,31.638223 1700.2742,40 1698.9701,40 1698.4711,40 1698.3218,40.675 1698.6384,41.5 1699.7187,44.315204 1696.2578,43.057686 1693.1341,39.5 1689.6478,35.529267 1686.4431,35.010875 1682.9364,37.850418 L 1680.6512,39.700835 1685.8635,43.592148 C 1689.5674,46.357365 1690.9924,48.064628 1690.7879,49.49173 1690.4694,51.713473 1687.8218,51.998566 1680.3254,50.618318 1676.6321,49.938292 1676.0153,50.102869 1674.9754,52.045952 1673.0064,55.725072 1673.5583,60.420318 1676.3085,63.38787 1679.3268,66.64467 1682,72.03422 1682,74.862746 1682,75.996014 1679.9621,79.020048 1677.4714,81.582821 L 1672.9428,86.242409 1676.4714,89.669342 C 1679.679,92.784479 1680.9084,95 1679.4294,95 1678.5096,95 1669,86.757484 1669,85.960257 1669,85.560588 1670.9977,83.71853 1673.4393,81.866793 1680.1676,76.763925 1680.7889,75.021843 1677.7373,69.814745 1676.3458,67.440296 1674.2606,64.640869 1673.1036,63.593795 1670.7408,61.455437 1670.3627,56.835052 1672.0526,50.75 1673.2186,46.551372 1674.2296,46.273618 1681.5955,48.128361 1686.6325,49.3967 1688.5098,48.564996 1685.4984,46.399252 1684.3993,45.608778 1682.7606,44.341162 1681.8569,43.582328 1680.9532,42.823495 1679.2657,41.901714 1678.1069,41.533928 1674.8563,40.502232 1675.5964,38.41231 1680.0308,36.100967 1684.2024,33.926613 1691,33.244344 1691,35 1691,35.55 1691.675,36 1692.5,36 1693.325,36 1694,36.401855 1694,36.893011 1694,38.427221 1697.2978,39.134343 1698.1547,37.78387 1700.1208,34.685308 1698.4525,24.543838 1695.6874,22.785665 1692.8252,20.965685 1687.5379,22.161333 1683,25.654751 1682.175,26.289865 1678.6586,28.245939 1675.1857,30.001584 1669.1327,33.061591 1668.7914,33.121183 1666.9357,31.441846 1665.8711,30.478344 1665,29.089142 1665,28.354729 1665,26.128022 1655.8274,20.052221 1652.4243,20.024791 1648.8214,19.99575 1645,23.506976 1645,26.84657 1645,30.556159 1647.5704,35.488516 1650.506,37.411994 1652.5921,38.77887 1654.3655,39.084691 1657.6192,38.638713 1662.5822,37.958461 1663.4789,38.889002 1664.5967,45.87965 1665.2557,50.000318 1663.5557,58.538547 1661.8687,59.581141 1661.3974,59.872431 1659.476,58.939335 1657.5988,57.507595 1650.6854,52.234427 1643.3244,53.586027 1640.3636,60.672285 1638.9167,64.135206 1638.4878,72.026535 1639.75,71.961149 1640.1625,71.939781 1641.5828,69.697792 1642.9062,66.978951 1645.6633,61.31481 1647.6929,60.27269 1651.8152,62.404424 1658.6028,65.914463 1660.1726,78.986686 1654.3784,83.749609 1652.7953,85.050937 1649.7994,86.81875 1647.7208,87.678082 1643.0867,89.593988 1642.0959,91.32812 1641.8621,97.932728 1641.686,102.9094 1640.9711,104.63775 1639.6395,103.30615 z M 1648.418,97.787542 C 1649.0963,93.545328 1649.6329,92.299553 1650.4358,93.102475 1651.2679,93.934531 1649.7311,102 1648.7405,102 1648.13,102 1648.0052,100.3691 1648.418,97.787542 z M 1655,101.93426 C 1655,98.603921 1660.4804,92 1663.2441,92 1664.2867,92 1667.1744,93.399918 1669.6612,95.110929 1672.1481,96.82194 1675.3499,98.533974 1676.7762,98.915449 1678.2026,99.296924 1679.5718,100.21531 1679.8188,100.95631 1680.6147,103.34416 1674.1321,101.2825 1668.8006,97.452227 1662.8924,93.207612 1660.7951,93.521214 1657.9629,99.07271 1655.9561,103.00642 1655,103.92979 1655,101.93426 z"/>
</svg>
