<svg xmlns="http://www.w3.org/2000/svg"
     width="17.0" height="64.0"
     viewBox="773.0640 22.8484 22.0298 82.7823">
  <path d="M 791.09375,69.59375 790.4375,65.21875 C 789.80169,64.492284 789.27096,63.796602 789.1875,63.21875 788.97089,61.718988 789.15463,61.26533 789.84375,61.34375 L 789.40625,58.46875 C 788.12307,57.929892 787.86413,56.817945 788.0625,52.75 788.51188,43.534617 787.99324,30.556982 787.125,29.1875 786.66269,28.458296 784.42551,27.58562 782.15625,27.28125 778.92904,26.848389 777.89303,27.106471 777.40625,28.375 777.06397,29.26698 777.27183,39.108405 777.875,50.25 778.47817,61.391595 779.053,76.8 779.125,84.5 779.19699,92.2 779.70055,99.0625 780.25,99.75 781.75306,101.63071 789.65556,101.3625 790.40625,99.40625 790.74187,98.531617 790.83739,97.519117 790.625,97.15625 789.84646,95.826118 788.89402,69 789.625,69 789.74445,69 790.70528,69.454425 791.09375,69.59375 z M 781.625,29.53125 C 783.32709,29.489635 785.11848,30.657069 785.46875,32.375 785.70767,33.546779 786.14396,47.1 786.46875,62.5 786.79353,77.9 787.22778,92.079298 787.4375,94 787.65313,95.974826 787.31628,97.798867 786.65625,98.21875 782.43722,100.90276 781.98988,98.062589 780.46875,59 780.30812,54.875 779.88367,46.831907 779.5,41.125 778.98215,33.422282 779.09765,30.557679 780,30 780.49534,29.693864 781.05764,29.545122 781.625,29.53125 z"/>
</svg>
