<svg xmlns="http://www.w3.org/2000/svg"
     width="61.2" height="64.0"
     viewBox="2447.1992 14.0000 90.8008 94.8948">
  <path d="M 2534,48.15625 2532.1875,49.96875 C 2530.5231,51.633121 2529.5284,53 2529.9688,53 2530.4091,53 2531.3153,52.325 2532,51.5 2532.9073,50.406776 2533.5245,50.107744 2534,50.3125 L 2534,48.15625 z M 2534,60.59375 2527.375,63.65625 C 2518.7922,67.621735 2518.3125,67.564034 2511.625,61.4375 2507.0943,57.286796 2506.1172,57.206766 2502.8125,60.75 2499.2651,64.553344 2497.8505,67.55947 2496.4375,74.3125 2495.2692,79.896353 2495.3058,80.231959 2497.6875,83.0625 2500.7023,86.645272 2501.4082,86.680074 2505.1875,83.5 2509.2364,80.093058 2512.0547,80.362718 2517.1562,84.625 2521.317,88.101152 2521.7114,88.203901 2527.25,87.625 2529.9324,87.344642 2531.4124,87.351754 2532.2188,87.59375 L 2533.3438,83.34375 2532.625,82.5625 C 2532.31,82.979212 2531.9443,83.313396 2531.4688,83.625 2530.2339,84.434081 2527.6894,85.309892 2525.8438,85.59375 2522.9996,86.031158 2521.7743,85.504947 2517.6562,82.0625 2511.9783,77.315928 2509.8938,77.075494 2505.2812,80.59375 2503.4148,82.017267 2501.2356,82.931255 2500.4375,82.625 2496.9938,81.303523 2500.3,65.344641 2504.5938,62.53125 2506.7562,61.114337 2507.1775,61.297399 2512.375,65.53125 2515.3994,67.994968 2518.3679,70 2518.9688,70 2519.5696,70 2523.2324,68.3978 2527.125,66.4375 2530.616,64.679475 2533.1005,63.701279 2533.875,63.625 L 2534,63.34375 2534,60.59375 z M 2531.2188,91.4375 C 2530.4229,92.108324 2529.4672,92.744949 2527.9688,93.375 2524.166,94.973922 2522.7529,94.526058 2518.375,90.46875 2514.5842,86.955569 2511.6731,87.346872 2506.625,92 2501.9091,96.34702 2500.5107,96.749391 2498.0938,94.53125 2492.8746,89.741516 2491.9312,89 2491.1562,89 2490.6847,89 2488.0312,91.25 2485.2812,94 2482.5312,96.75 2479.845,99 2479.3125,99 2478.7801,99 2475.7498,96.975 2472.5625,94.5 2469.3752,92.025 2465.8888,90 2464.8438,90 2463.7201,90 2461.6282,91.873887 2459.7188,94.59375 L 2456.5,99.1875 2456.1875,96.0625 C 2455.8505,92.716895 2458.3812,87.400936 2461.1562,85.65625 2462.3863,84.882871 2464.6652,85.236313 2469.9375,87.03125 2478.379,89.905146 2479.8577,89.402928 2481.75,82.90625 2483.1308,78.165618 2482.5832,71.660059 2480.375,66.375 2478.4993,61.885967 2474.1357,57 2472,57 2469.9869,57 2465.3113,62.05424 2463.9062,65.75 2462.4485,69.584375 2460.6785,67.321406 2461.3438,62.46875 2462.1254,56.766513 2464.767,51.464874 2467.5625,49.96875 2470.3838,48.458861 2473.5394,49.197298 2478.4062,52.5 2480.4664,53.898028 2482.5503,54.785297 2483.0625,54.46875 2484.6525,53.486077 2484.1089,41.779544 2482.125,34.625 L 2480.2188,27.8125 2483.2188,24.40625 2486.2188,21 2489.125,24.65625 C 2492.8523,29.346504 2493.4862,31.9956 2491.9688,36.59375 2490.3771,41.416781 2490.2989,51.88372 2491.8438,54.75 2493.4734,57.773599 2496.0201,57.583267 2501.8438,54 2504.5254,52.35 2506.9292,51 2507.1875,51 2507.4459,51 2509.6629,52.807764 2512.0938,55 2516.8334,59.274492 2519.478,59.878116 2522.5625,57.46875 2524.3658,56.060173 2524.3083,56.044415 2521.7812,57.125 2519.2622,58.202166 2518.6293,57.930959 2513.4062,53.46875 2508.9762,49.683941 2507.4129,48.874895 2506.125,49.65625 2499.807,53.489426 2495.9555,55.193358 2494.7188,54.71875 2491.5529,53.503874 2492.1101,36.968223 2495.4688,32.375 2496.6737,30.727282 2496.9545,30.792596 2499.875,33.25 2504.308,36.980164 2507.0633,37.658683 2508.6875,35.4375 2510.2645,33.280852 2510.3659,29.790029 2509,25 2507.2024,18.69561 2506.8262,18.590088 2501.0625,22.46875 2498.1668,24.417406 2495.1813,26 2494.4375,26 2493.6937,26 2491.6429,24.2 2489.875,22 2488.107,19.8 2486.3718,18 2486,18 2485.6281,18 2483.3988,20.260567 2481.0625,23.03125 2477.9892,26.676034 2477.1043,28.421482 2477.8438,29.3125 2479.7489,31.608163 2482.2469,43.820411 2481.5625,47.46875 L 2480.9062,51 2477,49 C 2471.8281,46.361507 2467.8615,46.444397 2465.2812,49.25 2461.1495,53.742441 2459.0038,58.444604 2459,63.03125 2458.9939,70.439407 2463.9767,75.228135 2465.4688,69.25 2466.4542,65.301838 2469.9296,60 2471.5312,60 2473.299,60 2477.4164,65.549677 2478.875,69.90625 2481.2722,77.066042 2479.7086,86 2476.0625,86 2474.9645,86 2471.5244,84.896447 2468.4375,83.53125 2463.2889,81.254289 2462.612,81.165387 2460.0312,82.5 2454.7463,85.232902 2451.1992,96.770656 2454.0312,102.0625 2455.5471,104.89483 2456.7278,104.45706 2458.875,100.25 2459.9276,98.1875 2461.7305,95.659989 2462.875,94.625 2464.7734,92.908152 2465.1426,92.856625 2467.2188,94.25 2468.4704,95.089986 2470.4278,96.666893 2471.5625,97.75 2474.1264,100.1974 2477.3952,102 2479.3125,102 2480.1142,102 2483.0563,99.943649 2485.8438,97.4375 2491.2829,92.547278 2492.4136,92.494547 2496.4062,96.90625 2499.4117,100.22726 2503.1362,99.581343 2507.375,95 2509.4105,92.8 2511.9413,91 2513,91 2514.0587,91 2516.4645,92.35 2518.3438,94 2521.8062,97.040092 2526.0736,97.874517 2528.9375,96.0625 2529.3395,95.808163 2529.703,95.783284 2530.0625,95.8125 L 2531.2188,91.4375 z M 2504.9375,21.96875 2506.4688,24.9375 C 2507.3142,26.572534 2508,29.261396 2508,30.90625 2508,34.745467 2507.1815,35.172149 2503.5,33.28125 2500.5955,31.78942 2496.4457,28.111026 2497.1562,27.65625 2497.3492,27.532866 2499.1768,26.1901 2501.2188,24.6875 L 2504.9375,21.96875 z M 2528,53 C 2527.9484,52.948384 2527.5431,53.253065 2526.75,53.875 2525.7875,54.629844 2525,55.417344 2525,55.625 2525,56.448034 2525.8186,55.915748 2527.125,54.25 2527.7469,53.456972 2528.0516,53.051616 2528,53 z"/>
</svg>
