<svg xmlns="http://www.w3.org/2000/svg"
     width="39.4" height="64.0"
     viewBox="2325.4062 15.8818 53.9933 87.7303">
  <path d="M 2329.4062,91.21875 C 2329.8937,91.244535 2330.413,91.44944 2331.2188,91.96875 2341.8099,98.794868 2347.4416,99.61208 2351.375,94.9375 2355.6851,89.815274 2357.1365,82.959853 2359.4375,56.15625 2359.6905,53.20922 2360.0816,50.605857 2360.3125,50.375 2360.5433,50.144143 2361.8557,50.376113 2363.25,50.90625 2365.0378,51.585961 2366.3004,51.502176 2367.5,50.625 2369.0022,49.526591 2369.05,48.90059 2367.9375,45.1875 2366.7894,41.355313 2366.8549,40.78876 2368.7188,38.75 2371.631,35.564591 2373.6523,31.163533 2374.4688,26.25 2375.3995,20.647827 2373.955,20.709374 2368.5625,26.5 2366.2577,28.975 2363.5793,31 2362.625,31 2361.4833,31 2360.0691,29.118938 2358.4688,25.5 2357.1309,22.475 2355.6399,20 2355.1562,20 2354.6726,20 2353.3304,22.25 2352.1875,25 2351.0447,27.75 2349.706,30 2349.2188,30 2348.7315,30 2346.8612,27.942147 2345.0625,25.4375 2341.7566,20.834164 2338.8241,19.881816 2338.1875,23.1875 2337.7494,25.46222 2339.7028,32.087058 2341.5,34.4375 2343.4001,36.922444 2344.6598,35.681518 2343.2188,32.75 2342.6108,31.513329 2341.8361,29.427572 2341.4688,28.125 2340.5079,24.717421 2342.9953,25.822726 2345.3438,29.84375 2347.4155,33.391136 2346.9163,38 2344.4688,38 2343.6007,38 2343.0022,38.931214 2343,40.25 2342.9979,41.4875 2342.072,44.01407 2340.9375,45.875 2338.146,50.453836 2339.5773,51.874516 2344.9062,49.78125 2349.7106,47.894073 2350.3506,48.724015 2349.5,55.875 2349.1976,58.417388 2348.774,62.525 2348.5938,65 2347.8383,75.369302 2345.5739,84.216509 2343.2812,85.71875 2341.2735,87.034314 2340.7255,86.983329 2337.7188,85.125 2334.8565,83.356045 2332.9348,81.638036 2331.8438,79.90625 L 2331.3438,80.65625 2330.6562,84.375 C 2331.4385,83.874716 2332.9726,84.500813 2335.5938,86.5 2339.5344,89.505632 2343.0601,89.692904 2345.4688,87.03125 2347.3009,85.006828 2350.345,69.276034 2351.5625,55.5 2352.2995,47.161083 2350.8328,43.940832 2347.2188,45.875 2344.5101,47.324665 2343.2283,45.564324 2345.25,43.1875 2346.0393,42.259657 2348.4417,38.010141 2350.5938,33.75 2352.746,29.489859 2354.7964,26.002359 2355.1562,26 2356.1896,25.993225 2363.1657,40.002781 2362.75,41.25 2362.5445,41.866556 2363.1906,43.190625 2364.1875,44.1875 2366.1074,46.107442 2366.6323,49 2365.0625,49 2364.5483,49 2362.9685,48.565822 2361.5625,48.03125 2357.6124,46.529449 2355.7243,47.744898 2356.2812,51.40625 2356.5413,53.115366 2356.1472,61.229883 2355.4062,69.4375 2354.2951,81.74257 2353.6179,85.294943 2351.4688,89.6875 2349.1171,94.494266 2348.5537,94.994695 2345.6875,94.9375 2340.1961,94.82792 2331.4421,90.008568 2330.25,86.71875 L 2329.4062,91.21875 z M 2370.4688,29 C 2371.6577,29 2370.8806,31.55779 2368.75,34.6875 2366.1625,38.48824 2364.4109,38.906107 2363.4688,35.9375 2363.1065,34.796052 2362.9686,33.75416 2363.1562,33.65625 2363.3439,33.55834 2364.9536,32.485641 2366.7188,31.25 2368.484,30.014358 2370.1715,29 2370.4688,29 z"/>
</svg>
