<svg xmlns="http://www.w3.org/2000/svg"
     width="57.9" height="64.0"
     viewBox="2155.3747 17.0000 40.6253 44.8750">
  <path d="M 2162.5938,56.65625 2165.6875,56.65625 C 2165.6416,56.292842 2165.4946,55.864313 2165.5625,55.59375 2165.8607,54.405513 2165.1928,48.349346 2164.0938,42.125 L 2162.125,30.8125 2164.3125,27.40625 C 2165.5197,25.54197 2166.95,24.031398 2167.5,24.03125 2168.05,24.031102 2170.1863,26.521707 2172.25,29.5625 L 2176,35.09375 2175.375,46.78125 C 2175.0471,52.856839 2174.7045,55.888885 2174.125,57.875 L 2178.25,56.96875 C 2177.9032,54.377981 2177.8097,51.811717 2177.9062,47 2178.0782,38.433305 2178.9555,37.051662 2182.5625,39.59375 2184.0616,40.650261 2185.9052,41.95 2186.6875,42.5 2188.647,43.877596 2192,39.703847 2192,35.875 2192,31.083892 2189.7353,25.066 2188.0312,25.34375 2187.1957,25.479964 2184.4703,27.041376 2182,28.84375 L 2177.5312,32.125 2175.2188,29.3125 C 2173.9522,27.763609 2172.1693,25.2625 2171.25,23.75 2170.3306,22.2375 2169.0464,21 2168.4062,21 2167.4008,21 2161.5575,27.424529 2159.7188,30.5625 2159.3747,31.149445 2159.7705,33.513819 2160.5625,35.8125 2161.3544,38.11118 2162.283,43.710625 2162.625,48.25 2162.937,52.390892 2162.9864,54.607525 2162.5938,56.65625 z M 2188.3125,27.75 C 2189.4155,29.622161 2190.0399,34.974674 2189.4375,37.375 2189.0746,38.820591 2188.2548,40 2187.5938,40 2186.3418,40 2179.9939,34.22857 2180.0312,33.125 2180.0691,32.004709 2187.8459,26.958035 2188.3125,27.75 z M 2168.8125,36.1875 C 2168.4101,36.551664 2168.2975,39.254253 2168.375,45.3125 2168.4715,52.852472 2168.8424,55.999928 2169.6875,56 2171.2071,56.00013 2170.8893,39.380186 2169.3125,36.5625 2169.1092,36.199193 2168.9466,36.066112 2168.8125,36.1875 z"/>
</svg>
