<svg xmlns="http://www.w3.org/2000/svg"
     width="47.4" height="64.0"
     viewBox="861.6294 20.1331 63.4643 85.7294">
  <path d="M 920.4375,65.65625 C 918.72213,64.96141 916.75025,62.950063 913.875,59.40625 908.356,52.603962 907.17948,52.146736 901.75,54.46875 900.22767,55.119799 900,54.617948 900,50.59375 900,46.127352 900.08594,45.972173 902.5625,46.59375 904.54197,47.090565 905.79762,46.607389 908.0625,44.4375 909.67671,42.890991 911,41.0346 911,40.3125 911,38.338253 910.00466,38.704633 907.78125,41.53125 905.99633,43.8004 905.32206,44.024713 901.40625,43.4375 L 897,42.78125 897,50.3125 C 897,54.70739 897.45669,58.168774 898.09375,58.5625 898.69603,58.934734 900.48836,58.249413 902.09375,57.0625 L 905.03125,54.90625 908.40625,57.5 C 910.26087,58.914587 912.97697,61.816114 914.46875,63.96875 915.96053,66.121386 917.93532,68.102635 918.84375,68.34375 919.49857,68.517552 920.0838,68.608933 920.625,68.71875 L 920.4375,65.65625 z M 920.9375,73.3125 C 917.73641,72.686988 914.00394,70.003935 908.96875,64.96875 906.79182,62.791822 904.36986,61 903.59375,61 901.75662,61 897.16079,66.462876 896.375,69.59375 896.0377,70.937635 896.26254,74.036473 896.875,76.46875 897.48745,78.901026 898,81.126598 898,81.4375 898,81.748402 896.2,82.744734 894,83.625 891.8,84.505265 890,85.603469 890,86.09375 890,87.46283 892.08807,87.147379 896.75,85.03125 901.10331,83.05521 901.83693,81.428241 899.96875,77.9375 897.94767,74.161076 898.4999,69.031355 901.21875,66.3125 L 903.75,63.78125 911.375,70 C 915.90465,73.717701 918.6318,75.601606 921.09375,75.96875 L 920.9375,73.3125 z M 892.84375,24.1875 C 891.28311,24.241924 889.68718,25.166602 887.15625,27 882.25105,30.553309 881.51902,30.616352 877.125,27.9375 872.48944,25.111387 871.74201,26.532669 876,30.0625 877.92149,31.655388 880.0866,32.953955 880.8125,32.96875 881.53841,32.983546 884.10181,31.65 886.5,30 891.95449,26.24721 893.6297,26.243074 898.1875,30 L 901.84375,33 904.65625,30.65625 C 906.2141,29.366585 908.4,27.819754 909.5,27.21875 911.29033,26.24057 911.31762,26.079989 909.8125,25.5 908.80852,25.113124 906.95584,25.723863 905.1875,27.03125 L 902.21875,29.21875 898.375,26.59375 C 895.93217,24.933804 894.40439,24.133076 892.84375,24.1875 z M 892.875,32.375 C 892.51401,32.471412 892.14781,32.669546 891.71875,32.9375 890.61859,33.624562 888.14581,35.073883 886.21875,36.15625 L 882.71875,38.125 877.84375,35.09375 C 871.75228,31.30708 871.2911,33.360641 877.25,37.71875 879.5875,39.428306 881.8616,40.861604 882.3125,40.90625 882.76341,40.950896 885.10181,39.65 887.5,38 892.84642,34.32157 894.00541,34.299981 898.03125,37.6875 901.20708,40.359787 901.18856,40.348238 904.5625,38.53125 908.38359,36.473458 911.62249,33.278745 910.75,32.40625 910.42947,32.085729 908.43919,32.982357 906.34375,34.40625 901.63817,37.603769 901.49632,37.606417 897.21875,34.34375 894.97866,32.635147 893.95796,32.085765 892.875,32.375 z M 874.21875,39.84375 C 874.06534,39.91169 874,40.049722 874,40.3125 874,42.712325 880.05243,47.240359 882.4375,46.625 883.57852,46.33061 885.78224,45.781021 887.34375,45.40625 L 890.1875,44.71875 889.625,50 C 889.31268,52.894919 889.29961,55.69226 889.625,56.21875 890.85609,58.210697 891.81668,55.252117 892.1875,48.25 892.62307,40.025141 892.3129,39.762821 885.90625,43.03125 L 881.90625,45.09375 877.9375,41.96875 C 875.85423,40.31877 874.67897,39.639931 874.21875,39.84375 z M 880.5625,51.0625 C 875.8483,50.767557 869.43011,54.005602 867.5,58.625 865.65673,63.036564 865.6294,67.909298 867.40625,70.25 869.32124,72.772692 871.99546,72.480808 872,69.75 872.00482,66.846762 875.58123,61 877.34375,61 881.22758,61 885.15122,72.034271 883.125,77.25 881.70888,80.895253 877.34587,80.972771 873.53125,77.4375 872.01872,76.035738 870.28654,75.071411 869.65625,75.28125 866.37435,76.373881 868.77139,85.8039 873.3125,89.625 875.94089,91.836642 876.13614,92.374538 875.125,94.59375 874.49949,95.966598 874,97.313379 874,97.5625 874,98.760144 875.76407,97.7276 878.25,95.09375 881.27329,91.890562 881.75288,90 879.5625,90 877.03511,90 872,84.960688 872,82.4375 872,80.289105 872.25318,80.153249 874.5625,81.03125 875.9733,81.567637 878.48274,82 880.125,82 882.6212,82 883.36819,81.395258 884.65625,78.3125 886.8707,73.012567 885.69543,64.541442 882.3125,61.40625 877.26978,56.732816 873.65932,57.566907 870.96875,64.0625 869.32716,68.025657 867.56496,67.86267 868.375,63.8125 869.8591,56.391988 876.46099,51.607937 882.21875,53.78125 885.9635,55.194732 886.67445,54.830694 884.46875,52.625 883.50063,51.656886 882.1339,51.160815 880.5625,51.0625 z M 888.34375,93.03125 C 887.30052,92.998524 881,99.43468 881,100.53125 881,101.86251 883.36553,100.6799 885.375,98.34375 L 887.65625,95.6875 890.8125,97.53125 C 892.53784,98.550436 894.27958,99.064177 894.6875,98.65625 895.50989,97.833866 890.15641,93.088113 888.34375,93.03125 z"/>
</svg>
