<svg xmlns="http://www.w3.org/2000/svg"
     width="41.6" height="64.0"
     viewBox="2368.8849 16.2680 57.6151 88.7444">
  <path d="M 2422.1562,89.0625 C 2418.8465,90.195519 2417.3576,89.238478 2415.625,84.6875 2413.8755,80.091973 2414.2818,74.459746 2416.7188,69.625 2418.4059,66.277515 2417.2707,64.47036 2414.125,65.46875 2412.9873,65.829835 2409.5466,68.911388 2406.4688,72.3125 L 2400.875,78.46875 2398.9375,76 C 2394.2899,70.001363 2394.2604,60.461497 2398.875,54.65625 2404.5301,47.542028 2406.8349,46.679868 2410.0312,50.53125 2411.5433,52.353019 2419.0143,52.537097 2418.9688,50.75 2418.9513,50.0625 2418.2763,48.630122 2417.4688,47.5625 2415.0332,44.342451 2415.5924,33.468866 2418.5,27.53125 2421.3683,21.673961 2420.6115,20.268019 2415.5625,22.09375 2410.8953,23.781436 2406.6716,27.979325 2403.9688,33.5625 2401.7471,38.15167 2396.4394,41.760226 2393.5625,40.65625 2391.6456,39.920669 2390.0069,33.75427 2390,27.25 2389.9953,22.815688 2389.7145,22 2388.1562,22 2381.9904,22 2379.4808,35.149721 2383.7188,45.21875 2385.2048,48.749394 2385.1414,49.201523 2382.9062,54.21875 2381.0966,58.281093 2380.5117,61.514306 2380.375,68.1875 2380.2164,75.925648 2379.9056,77.252409 2377.5,80.40625 2373.7842,85.277929 2372.8849,94.403153 2375.75,97.9375 L 2377.7188,100.34375 2381.3438,94.6875 C 2385.2484,88.583657 2386.6717,87.997807 2391.6875,90.5 2393.3397,91.324247 2396.899,92.300262 2399.5938,92.65625 2402.2885,93.012237 2405.7149,94.127481 2407.1875,95.15625 2408.66,96.185019 2411.81,97.921083 2414.1875,99 2417.4482,100.47973 2420.0027,101.01246 2422.5,100.71875 L 2422.4375,97.96875 C 2418.8996,98.28056 2415.1935,97.248334 2411.4375,94.875 2408.7173,93.156216 2406.2559,91.385971 2405.9688,90.9375 2405.6815,90.489028 2403.6565,90.137376 2401.4688,90.15625 2393.1061,90.228393 2386.8428,85.588088 2384.4688,77.59375 2382.7993,71.972315 2382.5456,63.247555 2383.9375,59.8125 2384.4494,58.549121 2385.1076,56.350777 2385.4062,54.9375 2386.1965,51.197892 2392.0882,45.605095 2398.5625,42.4375 2401.6637,40.920248 2404.4211,38.966391 2404.6875,38.09375 2406.3139,32.766253 2412.237,25 2414.6875,25 2416.3736,25 2416.3403,25.939366 2414.5,30.34375 2412.7524,34.526266 2412.5343,43.242384 2414.0938,46.15625 2416.054,49.819061 2413.1709,49.664009 2407.8125,45.8125 2405.4389,44.106365 2401.5865,46.318369 2397.3438,51.875 2392.8237,57.794719 2391.6894,62.420501 2393.0938,68.96875 2394.2231,74.235104 2398.9666,81 2401.5312,81 2402.2544,81 2403.8448,79.376543 2405.0625,77.40625 2407.3442,73.714357 2411.9198,69 2413.2188,69 2413.6232,69 2413.5051,70.151695 2412.9688,71.5625 2410.2266,78.774961 2413.6101,90.373934 2418.8438,91.6875 2419.8134,91.930877 2420.9913,91.738698 2422.2188,91.375 L 2422.1562,89.0625 z M 2386.6562,26.71875 C 2386.9193,27.0423 2387.0982,28.231435 2387.4375,30.59375 2387.8245,33.287547 2389.0367,37.246438 2390.125,39.375 2391.2133,41.503561 2391.9443,43.365561 2391.7812,43.5 2391.618,43.634438 2390.5139,44.2505 2389.3125,44.875 2386.3348,46.422924 2386.3356,46.406253 2385.0938,42.84375 2383.6121,38.593511 2383.7775,31.032797 2385.4062,28.09375 2386.0472,26.937236 2386.3932,26.3952 2386.6562,26.71875 z M 2381.3125,79.75 2383.125,82.125 C 2385.4421,85.138166 2385.4475,85.618578 2382.9688,88.84375 2381.8451,90.305739 2380.0984,92.590988 2379.0938,93.9375 L 2377.25,96.40625 2376.5625,94.15625 C 2375.4974,90.800425 2376.8602,84.53149 2379.2188,82 L 2381.3125,79.75 z"/>
</svg>
