<svg xmlns="http://www.w3.org/2000/svg"
     width="32.4" height="64.0"
     viewBox="54.0000 23.8344 43.0607 84.9543">
  <path d="M 58,49.5 C 58,48.675 58.3375,47.998944 58.75,47.997654 59.1625,47.996363 61.011059,46.703816 62.85791,45.125327 66.444843,42.059602 66.528081,40.249327 63.315972,35.163236 62.504294,33.878016 62.071212,32.595455 62.353566,32.313101 63.303143,31.363523 65.015118,33.109309 67.054553,37.106933 L 69.080527,41.078169 67.00049,43.999312 C 65.054761,46.731836 59.930504,51 58.59563,51 58.268033,51 58,50.325 58,49.5 z M 70.160081,102.76008 C 67.26857,99.86857 70.023459,86.422335 75.866921,74.905778 L 79.863801,67.028546 75.912121,58.942023 71.960441,50.855499 68.903495,53.42775 C 67.222175,54.842487 65.148202,56 64.294666,56 62.558292,56 70.800919,48.107922 72.607174,48.041013 73.21612,48.018456 75.623839,52.336874 77.957661,57.637498 L 82.200974,67.274996 78.160502,75.887498 C 73.043005,86.795745 71.641195,92.237544 72.425565,98.150416 73.068643,102.99817 72.188676,104.78868 70.160081,102.76008 z M 73.220034,34.29263 C 69.279094,29.551639 70.202198,27.834406 74.468734,31.969696 L 77.712013,35.113205 80.750362,32.556603 C 82.421455,31.150471 84.623752,30.014256 85.644356,30.03168 87.129929,30.057042 86.908531,30.503886 84.534198,32.272287 82.903007,33.487197 80.890499,35.272941 80.061957,36.240607 77.878912,38.790219 76.673326,38.446974 73.220034,34.29263 z M 79.335689,98.432407 C 77.449884,93.518079 81.202702,81.241891 88.069447,69.862605 L 90.264406,66.22521 84.957893,55.78804 C 81.774406,49.526564 79.902434,44.696636 80.278889,43.71561 81.04687,41.714283 89.089339,35.754871 89.909681,36.579261 90.234357,36.905538 88.8125,38.527329 86.75,40.183241 84.6875,41.839153 83,43.918373 83,44.803731 83,45.689089 85.263647,50.979941 88.030328,56.56118 L 93.060656,66.708888 89.607467,71.840305 C 84.596777,79.28616 81.685687,87.496271 81.661578,94.25 81.641789,99.793436 80.586292,101.69143 79.335689,98.432407 z"/>
</svg>
