<svg xmlns="http://www.w3.org/2000/svg"
     width="23.9" height="64.0"
     viewBox="1983.1356 13.9113 34.3672 92.1196">
  <path d="M 1988.25,55 1989.0938,58.15625 C 1989.831,58.221194 1990.0073,58.867923 1989.8125,60.21875 1989.8032,60.282988 1989.7041,60.370663 1989.6875,60.4375 L 1991.125,65.8125 C 1991.6148,66.308196 1992.5206,67.848709 1993.4062,69.8125 L 1995.1875,73.71875 1992.0625,79.25 C 1987.9048,86.617085 1987.1356,93.336141 1989.9688,97.84375 1992.6005,102.03093 1993.9559,101.13722 1996.5625,93.46875 1998.8768,86.660344 2001.1124,84.2008 2002.9688,86.4375 2003.6538,87.262933 2005.1625,90.746579 2006.3438,94.15625 2007.5251,97.565922 2009.0128,100.51925 2009.625,100.71875 2011.7318,101.40532 2013.5028,94.726973 2013.2812,87 2013.0073,77.442014 2013.0047,71.387507 2013.2188,56.5 2013.407,43.395139 2012.2169,38.029192 2006.125,24.59375 2003.5189,18.846179 2002.7281,17.911287 2000.7812,18.1875 1996.2943,18.824111 1990,37.019133 1990,49.375 1990,52.439304 1989.6763,53.697009 1988.25,55 z M 2000.4688,21 C 2002.2559,21 2007.9337,34.240873 2009.6875,42.5 2011.4037,50.582417 2011.0837,69.176329 2009.1562,72.75 2008.1809,74.558414 2008.2394,75.421364 2009.4375,77.25 2010.9473,79.554196 2011.5487,84.49671 2011.1875,91.25 2010.9568,95.563347 2009.5134,96.194689 2008.5625,92.40625 2007.6524,88.779922 2002.9857,82 2001.4062,82 2000.6812,82 1998.4679,84.925 1996.4688,88.5 1994.4695,92.075 1992.409,95 1991.9062,95 1989.0841,95 1992.3616,81.351798 1996.1562,77.3125 1998.0596,75.286445 1998.1496,74.757147 1996.9688,71.78125 1996.251,69.972219 1995.3268,68.030214 1994.9062,67.46875 1994.4857,66.907285 1993.6313,62.587492 1993,57.84375 1992.0396,50.62701 1992.1174,47.752256 1993.4688,40.34375 1995.3182,30.204579 1998.6367,21 2000.4688,21 z"/>
</svg>
