<svg xmlns="http://www.w3.org/2000/svg"
     width="53.2" height="64.0"
     viewBox="1016.5652 11.0604 77.3098 92.9396">
  <path d="M 1087.9688,50.1875 C 1087.146,52.825735 1085.4802,54.208143 1081.8438,55.75 1078.9793,56.964525 1077.4157,55.804167 1073.6562,49.75 1071.57,46.390535 1069.5121,46.275774 1064.9688,49.3125 1058.6141,53.559982 1058,53.515601 1058,48.53125 1058,43.159268 1059.8734,34 1060.9688,34 1061.4059,34 1062.3153,34.675 1063,35.5 1065.3545,38.336993 1070.6761,36.50632 1073.375,31.9375 1075.001,29.184834 1074.9693,28.854141 1073,24.53125 1071.8484,22.003281 1070.2683,20 1069.4062,20 1068.5566,20 1065.8634,21.371913 1063.4062,23.0625 L 1058.9375,26.15625 1054.1562,21.0625 C 1048.9448,15.511543 1047.4548,15.060419 1043.875,17.875 1042.5633,18.906287 1039.7359,20.593787 1037.5625,21.625 1033.526,23.540155 1030.5986,27.394781 1029,32.96875 1027.7721,37.250463 1029.701,37.81918 1034.5,34.5625 1039.9162,30.886919 1042.6398,31.17286 1044.5,35.625 1045.9953,39.203814 1046.5795,49.076725 1045.375,50.28125 1044.787,50.869267 1037.5207,47.41484 1033.75,44.75 1029.0824,41.451241 1020.7026,53.067014 1020.625,62.9375 1020.5652,70.549123 1021.6413,74.224634 1023.7812,73.8125 1024.9653,73.584468 1025.6691,72.093344 1026.125,68.90625 1026.8915,63.547794 1029.4527,58.146092 1031.625,57.3125 1033.5578,56.570806 1037.5264,59.538958 1040.125,63.6875 L 1042.125,66.90625 1039.9062,68.6875 C 1031.4298,75.508596 1030.724,77.585372 1033.9688,86.125 1035.0476,88.964116 1036.2038,93.264466 1036.5625,95.65625 1036.9211,98.048034 1037.6062,100 1038.0625,100 1040.102,100 1042,95.253011 1042,90.15625 1042,84.485572 1044.5648,78.768041 1047.625,77.59375 1049.9069,76.71808 1050.6523,77.473541 1052.3438,82.4375 1053.5308,85.921257 1053.6013,87.663926 1052.75,90.4375 1051.512,94.471368 1052.9437,99 1055.4375,99 1056.2755,99 1058.6023,95.528167 1060.875,90.90625 L 1064.8438,82.84375 1062.4375,77.65625 C 1061.1136,74.812854 1060.0053,71.559379 1060,70.40625 1059.9894,68.148127 1066.3334,61.002412 1068.3125,61.03125 1068.9736,61.040882 1070.4,62.953382 1071.5,65.28125 1073.2834,69.055389 1073.9294,69.529682 1077.375,69.8125 1080.1065,70.036707 1081.865,69.574711 1083.375,68.21875 1086.2261,65.658357 1087.5097,65.101873 1088.0625,66.46875 L 1088.6562,64.65625 1089.875,59.71875 C 1087.8665,62.124338 1084.772,64.852721 1081.6875,66.5 1077.2378,68.876384 1075.7721,68.203959 1072.5625,62.46875 1071.3383,60.281148 1069.585,58.362206 1068.6875,58.1875 1067.7901,58.012794 1064.7544,60.021376 1061.9375,62.65625 1057.0455,67.23217 1056.8318,67.618544 1057.4375,71.40625 1057.7863,73.58726 1059.0292,77.06407 1060.1875,79.125 1062.5488,83.326215 1062.0047,85.919275 1057.5938,91.34375 L 1055.2812,94.1875 1055.75,89.1875 C 1056.1327,85.204821 1055.7128,83.069635 1053.625,78.65625 1052.184,75.610279 1050.6224,72.881789 1050.1562,72.59375 1049.3571,72.099849 1047.0874,74.28355 1042.5,79.96875 1041.1316,81.664646 1040.3421,84.501479 1040,88.96875 1039.4314,96.394197 1038.8981,96.092207 1036.625,87.15625 1034.2544,77.837101 1034.4392,76.82445 1039.5,72.21875 1041.975,69.966301 1044,67.288075 1044,66.28125 1044,63.679503 1038.8632,57.767943 1034.5938,55.46875 L 1030.9688,53.53125 1028.5,56.5 C 1027.1566,58.144019 1025.795,61.075 1025.4688,63 1024.1325,70.881859 1023.9136,71.47268 1022.9062,69.9375 1021.6274,67.988606 1022.772,59.477429 1025,54.34375 1025.9944,52.052638 1027.9927,49.384153 1029.4375,48.4375 1031.926,46.806976 1032.2631,46.828949 1035.9688,48.5 1038.1202,49.470183 1040.899,51.319918 1042.125,52.625 1043.3511,53.930083 1044.6838,55 1045.0938,55 1046.5948,55 1049.2328,44.77042 1048.7188,40.9375 1047.9772,35.409825 1044.8699,29.549515 1042.5,29.21875 1041.4,29.065224 1038.725,29.861041 1036.5625,30.96875 1034.4,32.07646 1032.3986,32.742341 1032.125,32.46875 1031.8514,32.195159 1032.3338,30.509035 1033.1875,28.71875 1034.2901,26.406515 1036.5479,24.545148 1040.9375,22.28125 1048.2055,18.532862 1050.3207,18.972885 1054.5625,25.09375 1057.1304,28.799225 1057.1625,29.126862 1056.4062,38.6875 1055.6447,48.317638 1055.5591,50.680677 1055.8438,54.3125 1056.0191,56.549781 1058.7404,55.93666 1064.2188,52.40625 1068.8482,49.422925 1070.3521,49.390783 1072.25,52.25 1073.0715,53.4875 1074.8988,55.739475 1076.3125,57.25 L 1078.9062,60 1082.6875,57.8125 C 1084.7781,56.619995 1087.2596,55.00315 1088.1875,54.21875 1088.6008,53.869383 1088.9933,53.703265 1089.375,53.5625 L 1087.9688,50.1875 z M 1067.1562,23.71875 C 1069.4513,23.018319 1070.7273,24.447127 1071.5625,28.25 1072.0851,30.629411 1071.8228,31.674508 1070.4375,32.6875 1067.8045,34.612762 1065.6506,34.309309 1063.1875,31.6875 1060.2858,28.598809 1060.4091,27.910934 1064.5,25.125 1065.5183,24.431503 1066.3912,23.952227 1067.1562,23.71875 z"/>
</svg>
