<svg xmlns="http://www.w3.org/2000/svg"
     width="29.4" height="64.0"
     viewBox="537.7433 14.1371 39.3817 85.8629">
  <path d="M 548.40625,48.59375 548.65625,48.65625 547.46875,55.46875 C 547.83023,55.712344 548,56.188785 548,57.1875 548,57.897925 547.47771,58.902314 546.6875,60 L 546,64 545.4375,65.53125 C 545.6228,65.436003 546.26184,65 546.3125,65 546.54561,65 547.0556,68.2625 547.4375,72.25 547.8223,76.26776 549.1455,81.729131 550.40625,84.5 553.0107,90.22403 557.55754,96 559.46875,96 561.51122,96 562.01153,90.489827 561.15625,77.21875 559.74403,55.305653 561.83733,47.605128 571.53125,39.09375 572.03268,38.653492 572.38792,38.457737 572.8125,38.125 L 572.875,35.3125 C 570.86415,36.771175 568.59145,38.850217 566.3125,41.34375 558.66446,49.711919 557.57672,54.332005 558.40625,74.625 558.82703,84.918883 558.70017,91 558.09375,91 556.03074,91 552.55868,84.365884 551.34375,78.09375 549.60321,69.108132 549.69188,61.249284 551.625,52.75 552.73964,47.849289 552.9253,45.464683 552.1875,45.21875 549.28659,44.251777 545.94102,40.485016 544.90625,37.03125 543.96392,33.886037 544.04346,32.345367 545.375,28.4375 547.25013,22.934295 547.3597,22 546.09375,22 544.15512,22 541.74326,30.88248 542.25,36.15625 542.67107,40.538388 543.26917,41.783358 546.125,44.125 548.91939,46.41627 549.28981,46.895649 548.40625,48.59375 z M 573.03125,29.40625 573.125,26.1875 C 572.00816,26.874427 570.81041,27.635209 569.71875,28.46875 565.7071,31.531876 564.97118,31.806616 564.1875,30.40625 563.66557,29.473624 563.66436,26.851693 564.15625,24.21875 565.12441,19.036445 564.75744,18.137123 562.4375,20.0625 561.1476,21.133025 560.88022,22.811894 561.1875,28.25 561.69706,37.267906 563.13965,38.247814 568.5,33.09375 570.13135,31.52518 571.61991,30.371923 573.03125,29.40625 z M 555,21.0625 C 554.24504,21.466379 553.16736,22.721952 552.4375,24.46875 550.74727,28.514048 550.54843,35.291826 552.03125,38.0625 552.6006,39.126343 553.43601,40 553.875,40 555.64249,40 555.74189,38.708357 554.1875,36 552.53345,33.117977 552.66152,31.894939 555.65625,22.75 556.19476,21.105566 555.75496,20.658621 555,21.0625 z"/>
</svg>
