<svg xmlns="http://www.w3.org/2000/svg"
     width="36.1" height="64.0"
     viewBox="970.7990 14.2997 50.9317 90.2302">
  <path d="M 977.44652,95.896582 C 975.37518,91.891052 975.93105,83.838662 978.47277,81.030087 980.16752,79.157407 980.12896,78.895764 977.4959,74.402797 975.01445,70.168522 974.79898,69.033946 975.22263,62.432659 975.56511,57.096051 976.44232,53.654479 978.49328,49.600827 980.60394,45.429178 981.02332,43.733023 980.19182,42.731133 978.03622,40.133791 977.65051,33.203644 979.40575,28.607607 982.75611,19.834824 987.87276,18.463032 987.75323,26.369618 987.68183,31.092464 990.03644,36 992.37383,36 995.28686,36 1000,33.717365 1000,32.306545 1000,30.660222 1003.5409,25.251034 1005.9633,23.196874 1006.8085,22.480154 1009.0217,21.211872 1010.8816,20.37847 1015.5207,18.299719 1017.0948,19.876646 1014.5987,24.1022 1011.6892,29.027554 1012.371,46.403157 1015.5782,49.064877 1017.7307,50.851314 1017.2893,52 1014.4503,52 1010.826,52 1006.5109,49.526207 1004.0107,46.015089 1002.8299,44.35679 1001.5255,43 1001.1119,43 999.10823,43 991.63601,50.78478 989.39519,55.206823 986.40478,61.108117 987.04342,64.386104 992.22511,69.732257 996.00403,73.631106 997.8861,73.8146 1000.9245,70.580406 1003.7106,67.614714 1008.0528,65.724215 1011.0591,66.168007 L 1013.308,66.5 1010.7986,69.5 C 1007.3463,73.627099 1006.6607,80.660958 1009.015,87.797442 1010.0082,90.808024 1011.4236,93.660202 1012.1604,94.135614 1014.4935,95.641061 1011.2163,96.838171 1007.2258,95.938166 1002.3465,94.837698 998.85703,92.089763 996.62031,87.586403 994.90239,84.127562 994.4724,83.85552 991.62379,84.425243 987.30568,85.288863 985.14558,87.781578 983.71953,93.546613 982.21166,99.642382 979.84251,100.52991 977.44652,95.896582 z M 1006.3779,89.75 C 1005.8982,87.9625 1005.5568,82.458702 1005.6193,77.519338 L 1005.7329,68.538676 1002.0234,72.845713 998.31391,77.152749 994.62404,74.648736 C 992.59461,73.271528 990.59231,71.99966 990.17449,71.822361 988.40261,71.070482 985,64.014566 985,61.092128 985,54.551348 993.70612,43.521307 1000.7007,41.200434 1003.781,40.178367 1003.9691,40.276899 1005.7007,43.819204 1006.8793,46.230332 1008.1887,47.5 1009.4965,47.5 1011.2417,47.5 1011.4305,46.996752 1010.9965,43.5 1010.7234,41.3 1010.5532,35.824177 1010.6182,31.331504 1010.7345,23.292758 1010.7018,23.178729 1008.5643,24.152668 1005.9389,25.348861 1003.8698,28.464478 1003.0443,32.46463 1002.5497,34.861205 1001.5767,35.737448 997.96624,37.037667 985.84439,41.403056 980.40064,47.099707 978.12639,57.799221 976.39189,65.959386 976.72384,68.738262 980.00233,73.503393 984.1575,79.542718 987.70979,81.81697 993.56692,82.187732 998.09745,82.474518 998.52554,82.721474 998.81296,85.214081 998.98796,86.731764 1000.4544,89.046023 1002.1397,90.464081 1006.2811,93.948845 1007.4517,93.751612 1006.3779,89.75 z M 984.21296,85.771464 C 985.75342,83.444046 985.77016,83.054137 984.37914,81.899696 981.95491,79.887761 979.62443,82.062932 978.5907,87.30239 977.89231,90.842143 978.00742,92.304014 979.08695,93.604764 980.3647,95.144361 980.58377,94.982893 981.49625,91.828932 982.04831,89.920752 983.27083,87.194891 984.21296,85.771464 z M 985.85396,39.655457 C 988.01799,37.351953 988.0338,36.468703 986,31.5 985.54975,30.4 984.89618,28.625214 984.54763,27.55603 983.97779,25.808048 983.75517,25.908867 982.33946,28.55603 980.76572,31.498681 980.24076,38.962505 981.46788,40.948021 982.445,42.529041 983.42594,42.239961 985.85396,39.655457 z"/>
</svg>
