<svg xmlns="http://www.w3.org/2000/svg"
     width="26.5" height="64.0"
     viewBox="568.8125 18.9799 32.1875 77.6177">
  <path d="M 572.8125,38.125 C 575.9439,35.670948 577.21881,35.963561 578.15625,39.46875 578.7202,41.577445 578.26796,43.689684 576.40625,47.625 573.29662,54.198234 573.89028,59.146161 578.25,63.21875 L 581.15625,65.9375 580.4375,74.96875 C 579.85002,82.478512 580.03017,84.368594 581.40625,86.46875 585.42205,92.597637 590.83103,87.081544 591.375,76.3125 591.62731,71.317493 592.44319,68.181066 594.375,64.59375 595.82597,61.899333 597,58.398249 597,56.8125 597,53.27284 594.70937,47.636003 591.625,43.5625 590.35325,41.882895 589.0166,38.635162 588.65625,36.34375 587.35751,28.085395 582.24597,22.979912 576.6875,24.375 575.95216,24.559558 574.61018,25.274019 573.125,26.1875 L 573.03125,29.40625 C 580.02368,24.621847 584.3547,27.112289 585.9375,37.125 586.44555,40.338923 587.64317,43.065507 589.3125,44.8125 594.44036,50.178929 595.27864,61.061906 590.96875,66.03125 589.8804,67.286121 588.9793,68.577905 588.9375,68.90625 588.89571,69.234594 588.7136,72.797111 588.5625,76.8125 588.27743,84.388393 587.23759,86.68278 584.5625,85.65625 583.24524,85.150772 582.38371,81.103291 582.875,77.78125 584.47719,66.947226 584.36115,65.961387 581.21875,62.6875 577.08317,58.378893 576.33777,53.62977 578.96875,48.53125 580.09306,46.352457 581,43.389134 581,41.9375 581,38.490808 579.05753,33 577.84375,33 576.66382,33 574.90578,33.839373 572.875,35.3125 L 572.8125,38.125 z"/>
</svg>
