<svg xmlns="http://www.w3.org/2000/svg"
     width="21.6" height="64.0"
     viewBox="1806.0942 17.9240 28.6173 84.8501">
  <path d="M 1823.3438,34.90625 1821.6875,32.8125 C 1820.6795,31.542686 1818.9957,29.491683 1817.9375,28.25 1816.8793,27.008317 1816,25.350857 1816,24.5625 1816,22.700813 1814.7263,21.923972 1813.1875,22.875 1812.2502,23.45432 1812.1624,27.316374 1812.8438,39.5625 1813.8811,58.204818 1812.5772,87.69946 1810.375,95.25 1810.0942,96.2125 1810.2976,97 1810.8125,97 1811.3274,97 1812.5159,92.8375 1813.4688,87.75 1814.8964,80.125836 1815.133,74.06238 1814.8438,53.25 1814.6506,39.362184 1814.841,27.999684 1815.25,28 1816.0498,28.000617 1821.6202,35.39175 1822.25,37.28125 1822.4243,37.804075 1823.1541,37.512677 1824.0625,36.875 L 1823.3438,35.34375 1823.3438,34.90625 z M 1826.4375,41.96875 C 1825.4851,43.002563 1825.248,43.846052 1825.5,45 1827.7234,55.179306 1828.1826,63.279877 1827.2188,74.5 1826.6517,81.1 1826.4321,88.3 1826.7188,90.5 L 1827.25,94.5 1824.7188,92.15625 C 1821.4368,89.120982 1819.0655,89.666598 1816.7188,94 L 1814.8125,97.5 1817,94.75 C 1819.8236,91.176406 1820.9008,91.270654 1825,95.5 1827.7468,98.333964 1828.6635,98.774032 1829.6875,97.75 1830.7115,96.725968 1830.6799,95.43457 1829.5,91 1828.347,86.666654 1828.2203,83.823723 1829,77.53125 1830.4525,65.807754 1830.2454,51.952424 1828.5312,47.09375 1828.2189,46.20843 1828.2907,46.030278 1828.125,45.46875 L 1828,45.34375 1826.4375,41.96875 z"/>
</svg>
