<svg xmlns="http://www.w3.org/2000/svg"
     width="39.0" height="64.0"
     viewBox="2322.3438 18.2712 53.6562 88.0006">
  <path d="M 2326.7812,47.6875 2326.8438,49.9375 C 2329.4914,49.837721 2334,48.003315 2334,46.96875 2334,46.584902 2336.475,44.633487 2339.5,42.625 2345.0885,38.914447 2346.0262,37.1831 2343.7188,34.8125 2343.0112,34.085714 2341.1081,31.753391 2339.5,29.625 2337.8919,27.496609 2336.4233,26.261611 2336.2188,26.875 2336.0144,27.488389 2337.4362,29.885998 2339.4062,32.1875 2341.3762,34.489001 2342.983,36.848999 2342.9688,37.4375 2342.9546,38.026 2340.592,40.076941 2337.7188,42 2334.8455,43.923058 2331.9143,46.060558 2331.1875,46.75 2330.0585,47.820951 2328.6116,48.094194 2326.7812,47.6875 z M 2327.0312,57.0625 2327.125,60.96875 2330.5,57.8125 C 2334.3128,54.22464 2335.0065,53.63347 2339.375,50.25 2343.3972,47.134645 2344.5615,47.420478 2346.4062,52.03125 2348.3911,56.991701 2348.3728,63.225994 2346.4062,68.5 2345.5858,70.7 2344.6474,75.7625 2344.3125,79.75 2343.8812,84.885276 2343.3039,87 2342.3438,87 2341.5981,87 2341,86.575436 2341,86.0625 2341,85.549563 2339.9875,84.828701 2338.75,84.4375 2337.5125,84.0463 2335.1082,82.639612 2333.4062,81.34375 2330.9035,79.438091 2328.7937,78.934683 2326.3438,79.53125 L 2326.4688,81.0625 C 2326.4964,81.060386 2326.5679,81 2326.5938,81 2327.5398,81 2329.791,82.125 2331.5938,83.5 2333.3965,84.875 2335.2383,86.021242 2335.6875,86.03125 2336.1367,86.041259 2338.4605,87.363863 2340.875,89 2345.7428,92.298489 2348.6812,96.725034 2347.0625,98.34375 2345.9332,99.473055 2344.4882,98.85178 2336,93.53125 2331.3798,90.635265 2329.5165,89.810728 2327.375,90.53125 L 2327.5938,92.65625 C 2327.785,92.574109 2328.7228,91.999893 2328.7812,92 2329.1743,92.000718 2331.9966,93.746783 2335.0625,95.875 2343.912,102.01797 2344.5934,102.27183 2347.75,100.65625 2349.2674,99.879592 2352.4617,98.927145 2354.8438,98.53125 2357.4045,98.105654 2360.4838,96.625384 2362.4062,94.9375 L 2365.6562,92.09375 2365.7188,92.15625 2366.25,88.75 C 2366.1089,88.372617 2366,87.985869 2366,87.53125 2366,86.474353 2366.2752,85.896512 2366.7188,85.53125 L 2367.3125,81.625 C 2366.4344,80.886522 2366.0403,80.192112 2366.0312,79.375 2366.0183,78.201451 2364.2,72.911063 2362,67.625 2357.8357,57.619167 2357.3922,55.493746 2358.9688,53 2359.7485,51.766563 2360.6002,52.176442 2363.8438,55.34375 2369.5118,60.878384 2370.5105,58.116676 2364.9062,52.40625 2362.5275,49.982552 2360.2354,48 2359.8125,48 2358.1296,48 2355.8586,53.113667 2355.7188,57.1875 2355.6179,60.125321 2356.7458,64.399398 2359.2812,70.625 2363.9867,82.178694 2364.277,88.325749 2360.3438,93 2357.9793,95.810087 2357.29,96.097173 2354.0938,95.5 2349.3147,94.60705 2348.4602,93.764372 2346.9688,88.4375 2345.6197,83.619084 2346.3405,77.390496 2349.5,66 2351.3482,59.336859 2350.1606,50.87034 2346.9062,47.40625 2344.2162,44.542844 2341.1887,45.468412 2335.1875,51.03125 2330.723,55.169715 2328.6054,56.798109 2327.0312,57.0625 z M 2361.4375,22.375 C 2360.5936,22.271246 2359.432,23.151382 2357.2188,25.3125 2352.7528,29.67351 2351.1617,29.865526 2348,26.5 2345.7803,24.137273 2343,23.146585 2343,24.71875 2343,25.114303 2344.6875,27.126145 2346.75,29.1875 2348.8125,31.248855 2350.9842,32.950658 2351.5625,32.96875 2352.1407,32.986842 2354.5475,30.975 2356.9062,28.5 2359.265,26.025 2361.6708,24 2362.2812,24 2363.0435,24 2363.0128,23.637745 2362.1875,22.8125 2361.9537,22.57867 2361.7188,22.409585 2361.4375,22.375 z M 2369.8125,25.75 C 2369.436,25.549525 2367.5878,27.096806 2364.4688,30.5 2361.4443,33.8 2359.1043,37.061602 2359.25,37.75 2359.3957,38.438398 2361.975,41.683259 2365,44.96875 2368.025,48.254241 2370.8375,50.955139 2371.25,50.96875 2371.6625,50.982361 2372,50.1 2372,49 2372,47.9 2371.5431,47 2371,47 2370.4569,47 2368.7694,45.126026 2367.25,42.84375 2365.7306,40.561474 2364.0913,38.164197 2363.5938,37.5 2362.9904,36.694867 2363.907,34.691229 2366.3438,31.5 2369.0927,27.899732 2370.189,25.950475 2369.8125,25.75 z"/>
</svg>
