<svg xmlns="http://www.w3.org/2000/svg"
     width="21.2" height="64.0"
     viewBox="1083.9688 17.0554 27.1717 81.9446">
  <path d="M 1087.9688,50.1875 1089.375,53.5625 C 1090.8515,53.017972 1092,53.927035 1092,56.03125 1092,56.922595 1091.0835,58.271275 1089.875,59.71875 L 1088.6562,64.65625 1088.0625,66.46875 C 1088.448,67.422021 1088.5292,69.158474 1088.2812,72.4375 1087.9772,76.458911 1088.0259,81.410634 1088.4062,83.4375 1089.1008,87.140129 1095.206,94.999851 1097.375,95 1098.1461,95.000053 1098.5,91.722311 1098.5,84.75 1098.5,73.287534 1100.3454,66.024777 1104.75,60.25 1106.8742,57.465087 1107.1405,56.504729 1106.1875,55.15625 1101.5728,48.626996 1098.8664,36.990588 1100.0312,28.75 1100.5115,25.351781 1100.6767,22.364298 1100.4062,22.09375 1100.1357,21.823201 1098.8391,21.456385 1097.5312,21.28125 1095.8449,21.055421 1094.6044,21.75221 1093.25,23.71875 1089.6756,28.908578 1088.6744,33.05356 1088.75,42.03125 1088.7832,45.970477 1088.5463,48.33532 1087.9688,50.1875 z M 1097.0625,23.0625 C 1097.3636,23.032069 1097.4109,25.866504 1097.1875,29.375 1096.6919,37.158193 1098.2043,44.691772 1101.7188,51.875 1104.3434,57.239517 1104.3524,57.325883 1102.5312,60.40625 1097.6351,68.687359 1096,74.744547 1096,84.625 1096,87.57493 1095.5947,90 1095.0938,90 1094.5929,90 1093.1924,87.934013 1091.9688,85.40625 1090.113,81.572968 1089.8211,79.762618 1090.3125,74.5 1090.6366,71.029698 1091.9704,65.538631 1093.2812,62.3125 L 1095.6875,56.46875 1093.5938,52.46875 C 1091.9017,49.242833 1091.5,46.703661 1091.5,38.96875 1091.5,30.300704 1091.7285,29.116373 1094,26.25 1095.375,24.514914 1096.7614,23.092931 1097.0625,23.0625 z"/>
</svg>
