<svg xmlns="http://www.w3.org/2000/svg"
     width="24.7" height="64.0"
     viewBox="2730.3206 19.0000 32.4294 84.0000">
  <path d="M 2758.6562,77.53125 C 2758.1489,78.547286 2757.6524,79.623234 2757.125,80.25 2754.7272,83.099542 2754.7018,83.23792 2756.7812,82.125 2757.7936,81.583216 2758.3554,81.337508 2758.6562,81.53125 L 2758.6562,77.53125 z M 2758.6562,84.40625 C 2757.7895,87.35318 2752.7279,92.691668 2748.125,95.1875 2745.9876,96.346462 2745.5435,96.195792 2743.4688,93.59375 2742.2079,92.012425 2740.8864,89.300748 2740.5312,87.59375 2739.2634,81.49972 2737.0015,57.385161 2737.0938,51 2737.217,42.466335 2740.1816,25.76044 2741.6562,25.28125 2743.4792,24.688869 2743.9348,28.971268 2744.5,52.375 2745.0218,73.981076 2745.2173,76.37001 2747.1562,82.75 2747.9072,85.221303 2748.7341,86 2750.5312,86 2751.8311,86 2753.1688,85.524092 2753.5312,84.9375 2754.5493,83.290401 2753.2316,82.572861 2751.625,83.90625 2748.1408,86.797868 2746.924,79.413294 2746.4062,52.21875 2745.9449,27.992442 2745.3029,23 2742.6562,23 2740.4577,23 2739.4038,24.968326 2737.5938,32.5 2734.3206,46.118613 2735.6273,82.693419 2739.7188,91.75 2741.5606,95.826878 2743.8872,99 2745.0312,99 2745.4298,99 2748.3752,96.975 2751.5625,94.5 2754.7498,92.025 2757.9024,90 2758.5625,90 2758.6202,90 2758.6901,90.134947 2758.75,90.15625 L 2758.6562,89.34375 2758.6562,84.40625 z"/>
</svg>
