<svg xmlns="http://www.w3.org/2000/svg"
     width="64.0" height="50.8"
     viewBox="2886.0000 18.0000 109.2427 86.7786">
  <path d="M 2929.8125,22 C 2929.2405,22 2927.2646,23.302081 2925.4375,24.90625 2923.6105,26.510418 2921.3272,28.279597 2920.375,28.8125 2918.768,29.711787 2918.8326,30.14608 2921.1875,35.125 2923.196,39.371751 2926,48.948682 2926,51.5625 2926,52.782267 2923.1062,51.774863 2921.5,50 2918.6911,46.896171 2913.1791,45.595787 2908.3125,46.90625 2903.6012,48.174859 2901.6966,51.274336 2899.8438,60.5 2898.0065,69.648482 2902.1323,75.185922 2904.5,66.75 2905.0553,64.771758 2906.4774,61.865175 2907.6562,60.3125 L 2909.7812,57.5 2914.5,59.9375 C 2921.1462,63.38583 2922.3243,65.587459 2921.8125,73.625 2921.4481,79.34704 2920.9972,80.584465 2918.625,82.625 2915.0789,85.675154 2911.7326,85.619239 2906.25,82.40625 2903.4838,80.785142 2901.0159,80.020648 2899.6562,80.375 2897.5449,80.92533 2890,87.277659 2890,88.5 2890,89.298616 2891.6934,88.312408 2896.1562,84.84375 2900.6146,81.378536 2901.5617,81.33546 2906.2188,84.5 2909.8446,86.963864 2916.581,87.8741 2920.4062,86.40625 2922.5883,85.568917 2924.2647,78.716349 2924.1562,71.09375 2924.0777,65.573868 2923.7115,64.281217 2921.4062,61.875 2918.5379,58.881199 2913.2193,56 2910.5938,56 2909.7092,56 2907.7573,57.789623 2906.25,59.96875 2904.7427,62.147876 2903.1122,63.947876 2902.625,63.96875 2901.3517,64.023292 2902.6781,55.491871 2904.5,51.96875 2905.6999,49.648444 2906.773,48.964579 2909.2812,48.875 2915.0545,48.668811 2916.412,49.142166 2921.375,53.09375 2924.0671,55.237188 2926.6119,57 2927.0312,57 2928.46,57 2928.8011,54.36191 2927.9688,49.90625 2927.2037,45.811589 2926.4799,43.493401 2923,34.1875 2921.8446,31.097751 2921.9472,30.667248 2924.5625,27.9375 2928.1057,24.239108 2929.0963,24.252533 2933,28.15625 2935.9111,31.067329 2936.1262,31.688038 2935.5312,35.90625 2934.2731,44.827347 2933.852,57.258228 2934.7812,58.1875 2935.3664,58.772653 2938.1436,57.588184 2942.125,55.0625 2945.6385,52.833679 2949.175,51.045373 2950,51.0625 2950.825,51.079627 2953.0646,52.403602 2954.9688,54.03125 2956.8729,55.658897 2959.1929,57 2960.125,57 2962.1828,57 2968.9302,49.118605 2971.9375,43.1875 2974.0346,39.051559 2974.0329,38.646153 2972.5312,34.125 2970.827,28.994188 2968.4127,25 2967,25 2966.5101,25 2967.4452,27.883513 2969.0938,31.40625 L 2972.0938,37.8125 2970.0312,42.21875 C 2968.8889,44.649015 2966.1876,48.363059 2964.0312,50.46875 L 2960.0938,54.3125 2955.3125,51.1875 2950.5312,48.09375 2944.3438,51.53125 C 2940.9429,53.433109 2937.6918,55 2937.0938,55 2935.4779,55 2935.7258,43.565254 2937.4375,39.46875 L 2938.9062,36 2944,38 C 2951.7342,41.048537 2953.5688,40.749326 2954.7188,36.21875 2955.7177,32.283583 2954.0271,23.752793 2952,22.5 2951.4699,22.172376 2948.5752,23.743174 2945.5625,25.96875 2942.5499,28.194327 2939.5333,30 2938.875,30 2938.2168,30 2936.1644,28.2 2934.2812,26 2932.3982,23.8 2930.3845,22 2929.8125,22 z M 2972.4688,24 C 2970.3187,24 2970.6327,25.195304 2974,29.84375 2975.6534,32.126271 2977.5659,33.986842 2978.25,33.96875 2979.9014,33.925072 2987.5557,26.243181 2986.75,25.4375 2986.4041,25.091561 2984.5942,25.975707 2982.7188,27.40625 2978.3619,30.729435 2977.3972,30.668756 2975.5,27 2974.6468,25.35 2973.2796,24 2972.4688,24 z M 2949.6875,26 C 2951.4652,26 2953.1906,30.606558 2952.8125,34.375 2952.4479,38.009348 2951.5923,38.298722 2946.625,36.53125 2940.2907,34.277403 2939.9722,33.273175 2944.4062,29.40625 2946.5604,27.527643 2948.9405,26 2949.6875,26 z M 2990.7812,31.6875 C 2990.3198,31.485438 2988.367,32.511854 2985.2812,34.96875 2981.2001,38.218184 2980.0026,39.885697 2979.0312,43.75 2977.646,49.260003 2975.2117,53.578474 2969.7188,60.25 2964.4127,66.694475 2962.2747,67.074642 2956.4062,62.59375 2953.8183,60.617644 2951.162,59 2950.5,59 2949.838,59 2947.2069,60.9125 2944.6562,63.25 2937.5795,69.735227 2935.625,77.47009 2939.2188,84.75 2940.7154,87.781827 2945.3117,87.664302 2950.5,84.46875 2955.582,81.338673 2958.3321,81.346801 2960.8125,84.5 2961.8964,85.878016 2964.274,87.641121 2966.0938,88.40625 2968.3434,89.352138 2970.1645,89.489677 2971.7812,88.875 2975.748,87.366864 2983,82.869813 2983,81.90625 2983,80.551176 2982.4414,80.735056 2976.6562,84 2973.7326,85.65 2970.3783,87 2969.2188,87 2968.0591,87 2965.0419,85.2 2962.5,83 2959.9581,80.8 2957.3968,79 2956.8125,79 2956.2283,79 2953.1411,80.426309 2949.9375,82.1875 2944.134,85.377979 2944.085,85.412206 2941.9375,83.46875 2940.1232,81.826857 2939.8567,80.678997 2940.2188,76.3125 2940.5634,72.156969 2941.4102,70.218767 2944.4062,66.5625 2948.8,61.200445 2950.8036,60.910218 2955.8438,64.875 2961.7639,69.532074 2963.341,69.593149 2967.9062,65.46875 2973.2341,60.655375 2979.0111,51.786434 2981.25,45 2982.5642,41.016196 2984.2294,38.483469 2987.2812,35.84375 2990.2041,33.315551 2991.2427,31.889562 2990.7812,31.6875 z M 2985.6562,86.15625 C 2984.6972,86.405294 2983.1556,87.178379 2980.8438,88.5 2978.45,89.868375 2977.0423,90.993375 2977.7188,91 2979.8066,91.02045 2987,87.849315 2987,86.90625 2987,86.184987 2986.6153,85.907206 2985.6562,86.15625 z M 2930.7812,88.84375 2928.125,91.25 C 2924.1655,94.880586 2919.3673,98 2917.7188,98 2916.9129,98 2913.9552,96.15971 2911.125,93.90625 2904.1184,88.327551 2899.7127,87.803388 2895.1562,92.03125 2891.18,95.720826 2891.6358,97.090137 2895.8438,94.09375 2899.8762,91.222339 2903.5087,91.460167 2907.8438,94.84375 2909.8479,96.408047 2912.4,98.193521 2913.5,98.8125 2916.994,100.77858 2919.9568,100.09641 2925.375,96.09375 L 2930.625,92.21875 2936.0312,95.59375 C 2938.9938,97.461754 2942.4425,99 2943.7188,99 2944.995,99 2948.3409,97.405436 2951.1562,95.46875 2956.0221,92.121684 2956.4081,92.037715 2958.6875,93.53125 2963.8996,96.946301 2970.4052,100 2972.4688,100 2978.8031,100 2990.0317,93.381076 2986.9375,91.46875 2986.2119,91.020288 2985.0505,91.617429 2984.0312,92.96875 2983.0507,94.268685 2980.2329,95.769057 2977.4062,96.5 2971.9003,97.923761 2969.6842,97.354157 2962.0938,92.5625 2958.3651,90.208755 2957.4447,89.987192 2954.7188,90.9375 2953.0028,91.535691 2950.5691,93.006907 2949.3125,94.1875 2945.9319,97.363393 2941.9872,96.895093 2936,92.59375 L 2930.7812,88.84375 z"/>
</svg>
