<svg xmlns="http://www.w3.org/2000/svg"
     width="28.7" height="64.0"
     viewBox="2550.9375 17.1001 38.9653 86.8604">
  <path d="M 2554.9375,89 2555.0312,90.8125 C 2558.0125,91.806354 2558.6875,91.71963 2560.9375,89.5625 2563.9876,86.638368 2566.4739,80.040983 2568.3438,69.90625 2569.3789,64.296164 2569.5318,58.028489 2568.9688,44 2568.1426,23.421361 2568.2993,25 2567.2188,25 2566.781,25 2566.4434,35.6875 2566.4688,48.75 2566.5114,70.811801 2566.3497,73.009929 2564.2188,79.75 2561.5969,88.042495 2559.0003,90.557527 2554.9375,89 z M 2555.25,96.28125 2555.375,99.0625 C 2557.0958,99.467663 2558.7428,99.85552 2559,99.90625 2559.275,99.960493 2560.85,99.158712 2562.5,98.125 2568.1332,94.595845 2574.229,87.713558 2577.0938,81.65625 2583.0125,69.141023 2585.9028,42.910611 2582.9062,28.9375 2581.2253,21.100087 2579.6185,24.176949 2581.0625,32.46875 2583.6187,47.147727 2580.2575,72.230475 2574.25,83.28125 2570.5157,90.150581 2562.9017,97 2559,97 2557.8772,97 2556.5722,96.698322 2555.25,96.28125 z M 2573.75,24.34375 C 2573.1219,23.95557 2573.0484,26.029881 2573.5312,30.125 2575.5042,46.857316 2574.0578,69.994725 2570.5312,78.25 2569.11,81.577148 2571.6236,79.975951 2573.2812,76.5 2577.5461,67.556647 2577.9134,26.916882 2573.75,24.34375 z"/>
</svg>
