<svg xmlns="http://www.w3.org/2000/svg"
     width="25.1" height="64.0"
     viewBox="310.8851 14.4790 34.4745 88.0268">
  <path d="M 320.04671,92.827547 C 315.50965,82.544779 314.88507,60.182542 318.48331,36.852948 320.89261,21.231962 322.98998,18.47895 327.1325,25.5 329.42212,29.38062 330.45627,29.794001 331.81242,27.370703 332.31391,26.47459 333.24072,25.913575 333.87201,26.124003 334.60223,26.367409 334.10776,27.848787 332.51283,30.195924 330.41191,33.287709 330.17287,34.32448 331.03693,36.597144 L 332.06799,39.309039 335.02357,36.477422 C 339.33778,32.344142 339.76955,34.142444 335.57712,38.782961 332.55817,42.124578 332.09656,43.232801 332.62438,45.871889 333.36736,49.586793 333.67037,49.658302 336.68161,46.82939 340.12588,43.593667 340.51056,45.241938 337.15057,48.838812 332.94254,53.343526 332.67047,56.358337 336.11904,60.26913 339.63494,64.256274 339.72357,65.219707 336.5,64.410644 334.25037,63.846023 334,64.082968 334,66.776582 334,68.854662 334.75369,70.263816 336.46482,71.38499 339.32351,73.258078 341.35954,76.609235 340.49185,78.013191 340.1615,78.547712 338.82199,77.750912 337.51517,76.242524 334.91092,73.236598 333.67587,73.7247 332.62927,78.173462 332.15037,80.209094 332.65393,81.623706 334.73996,84.102802 L 337.4796,87.35868 334.9898,86.615319 C 330.33165,85.22457 329.87448,85.49317 327.52698,91 324.53375,98.021599 322.55209,98.505748 320.04671,92.827547 z M 326.32481,88.25 C 332.60432,75.60315 333.19667,56.353518 327.93988,35.764401 323.57573,18.671442 321.7874,22.24212 319.05723,53.5 317.8821,66.954109 318.97679,83.615355 321.4201,89.463022 322.23292,91.40836 323.13833,93 323.43213,93 323.72593,93 325.02764,90.8625 326.32481,88.25 z"/>
</svg>
