<svg xmlns="http://www.w3.org/2000/svg"
     width="41.3" height="64.0"
     viewBox="674.5931 16.0000 56.0944 86.8313">
  <path d="M 722.625,73.9375 C 721.59405,76.529291 713.43661,83.833302 710.53125,84.5625 707.27287,85.380302 704.39812,83.043879 703.46875,78.8125 702.92208,76.323515 703.3256,75.258287 705.96875,72.53125 710.02673,68.344475 711.48094,61 708.25,61 707.14493,61 705.68469,61.675 705,62.5 702.49588,65.517277 701.23449,64.247165 701.75,59.25 702.34395,53.492428 704.21835,50.275389 707.8125,48.84375 709.29623,48.252741 709.96951,47.557611 709.3125,47.3125 708.65549,47.067389 707.21933,47.351831 706.125,47.9375 703.12743,49.54175 703,49.37644 703,44.0625 703,39.695324 703.36958,38.863864 706.25,36.59375 709.72116,33.858059 708.92318,32.980342 705.28125,35.53125 703.28725,36.9279 703.02305,36.888548 702.0625,35.09375 700.11847,31.461288 700.83301,28.274741 704.21875,25.625 705.98948,24.239198 707.18676,22.843013 706.875,22.53125 706.56323,22.219487 705.08996,22.948086 703.59375,24.125 L 700.875,26.25 699.3125,24.03125 C 698.11803,22.325899 697.10376,21.916748 694.96875,22.34375 693.17441,22.702616 691.74777,22.407411 690.96875,21.46875 690.30344,20.667094 689.35765,20 688.875,20 687.17326,20 688.0153,22.906673 690.15625,24.40625 692.22175,25.85298 692.26267,26.199562 691.0625,31.5625 L 689.8125,37.1875 687.875,35.09375 C 684.13365,31.077881 683.80884,33.425806 687.5,37.8125 689.27828,39.925869 690,41.985851 690,44.90625 690,49.653432 689.2463,49.953513 686.03125,46.53125 684.75543,45.173202 683.33988,44.306437 682.875,44.59375 681.71655,45.309712 685.93911,50.84889 688.1875,51.5625 689.74524,52.056907 690,53.270651 690,60.0625 690,64.425436 689.621,68 689.15625,68 688.69149,68 687.53962,67.138918 686.59375,66.09375 684.31994,63.581211 681.34103,62.877754 679.96875,64.53125 678.59313,66.188772 679.82554,68.729374 685.09375,75 687.4803,77.840648 689.2803,81.296547 689.96875,84.375 691.42484,90.885957 692.53255,92.757699 696.3125,95.0625 702.49352,98.831337 710.41861,97.016257 719.5,89.78125 722.0167,87.776232 723.24261,86.952317 723.9375,86.84375 L 725.34375,84 726.6875,80.4375 C 726.2147,81.036841 725.75889,81.57892 724.375,82.78125 717.95961,88.354989 712.68972,92.095747 709.125,93.59375 702.51142,96.372974 696.14457,94.426673 694.125,89.03125 693.49907,87.359032 692.51726,84.71699 691.9375,83.15625 691.35775,81.59551 691.02025,79.889208 691.1875,79.375 691.35476,78.860792 689.59526,76.749084 687.28125,74.65625 683.20498,70.969602 681.18359,67.472653 682.40625,66.25 682.73363,65.922613 684.08249,66.662637 685.40625,67.90625 686.73002,69.149863 688.64468,70.03728 689.65625,69.84375 691.33847,69.521913 691.55595,67.91054 692.0625,51 692.58368,33.600874 693.92694,25 696.15625,25 697.68945,25 700.19392,35.738224 700.71875,44.59375 701.02498,49.760821 700.76259,56.627964 700.09375,60.46875 699.44577,64.189724 699.07951,67.42326 699.3125,67.65625 699.54549,67.889239 701.38068,67.114176 703.375,65.9375 L 707,63.8125 707,66.34375 C 707,69.178553 704.84211,71.732424 701.34375,73.0625 L 699,73.9375 701,79 C 702.09768,81.784854 703,84.246117 703,84.4375 703,84.628884 704.12994,85.508551 705.5,86.40625 707.77508,87.896941 708.31688,87.896514 711.75,86.46875 713.81744,85.608945 717.55989,82.864 720.09375,80.375 723.40189,77.125422 724.40676,76.269728 725.40625,76.75 L 722.625,73.9375 z"/>
</svg>
