<svg xmlns="http://www.w3.org/2000/svg"
     width="24.9" height="64.0"
     viewBox="2588.9358 17.4645 33.0642 85.0014">
  <path d="M 2614.875,82.09375 C 2614.1142,82.695633 2613.2479,83 2611.9062,83 2606.7713,83 2606.242,80.768238 2605.7188,57 2605.2931,37.662203 2605.0143,34.929521 2602.9688,29.71875 2599.7284,21.464511 2598.0649,22.253927 2595.1875,33.5 2593.1349,41.522253 2592.9358,44.118619 2593.375,57.5 2594.0476,77.993669 2596.7843,90.55087 2601.7812,96.25 2603.669,98.403017 2606.2004,98.465884 2610.0625,96.46875 2614.1913,94.333624 2613.76,92.669458 2609.5938,94.65625 2607.7188,95.550379 2605.4751,96.01373 2604.625,95.6875 2602.284,94.789196 2599.157,87.901504 2597.4062,79.78125 2595.3407,70.200541 2594.3563,45.477073 2595.8125,39.8125 2596.421,37.445687 2597.1914,34.0375 2597.5312,32.25 2598.2868,28.276334 2599.4075,28.106025 2600.8125,31.75 2602.4283,35.940626 2602.8836,40.885048 2603.5,60.78125 2603.8115,70.836869 2604.4814,80.12438 2604.9688,81.40625 2606.0236,84.180802 2607.8603,85 2612.9688,85 2614.3005,85 2615.2677,85.280683 2616.0312,85.6875 L 2614.875,82.09375 z M 2617.0312,88.875 C 2616.7672,89.374783 2616.4734,89.862618 2615.875,90.375 2613.2754,92.600839 2613.456,94.326416 2616.125,92.75 2617.0617,92.196703 2617.6095,92.001159 2618,92.0625 L 2618,92 2617.0312,88.875 z"/>
</svg>
