<svg xmlns="http://www.w3.org/2000/svg"
     width="64.0" height="57.0"
     viewBox="1583.5315 16.0804 100.2138 89.2256">
  <path d="M 1606.2324,92.732056 C 1604.9852,88.754425 1603.9747,84.825 1603.9867,84 1603.9988,83.175 1605.8484,80.0733 1608.0969,77.107333 1611.849,72.158187 1612.0778,71.51384 1610.8784,69.27287 1609.1867,66.111887 1603.3566,61 1601.4432,61 1599.8814,61 1594,69.451534 1594,71.695781 1594,73.745696 1591.1878,73.219422 1589.9686,70.941348 1587.5315,66.387476 1592.8017,55.015919 1598.6397,52.231994 1601.9316,50.662181 1602.4098,50.6713 1606.818,52.38795 1609.3931,53.390741 1612.625,54.276186 1614,54.355604 1616.3868,54.493462 1616.5135,54.216406 1616.7981,48.237055 1617.0509,42.924666 1616.8232,41.890514 1615.2981,41.423318 1609.6108,39.681152 1606.9406,37.533772 1605.8229,33.803335 1604.8561,30.576332 1604.9396,29.349887 1606.3237,26.447352 1608.2748,22.355813 1612.3047,20.080442 1614.8277,21.645853 1615.7474,22.21656 1617.1052,24.554715 1617.8449,26.841752 1619.5917,32.242771 1621.368,32.180254 1627.555,26.5 1630.2508,24.025 1632.8578,22 1633.3484,22 1633.839,22 1634.0483,24.656003 1633.8135,27.902229 1633.5008,32.224221 1632.7072,34.700776 1630.8491,37.152229 1628.8827,39.746574 1628.1771,42.131634 1627.714,47.75 1627.3853,51.7375 1627.3296,55 1627.5903,55 1627.851,55 1629.7321,54.30314 1631.7705,53.451423 1636.8777,51.317507 1638.9119,52.11431 1643.2742,57.957518 1645.3447,60.730883 1647.4479,63 1647.948,63 1650.4696,63 1654.2857,56.76835 1656.6599,48.77357 1658.0962,43.937069 1658.0683,43.705374 1655.6238,40.151754 1654.2422,38.143289 1652.6127,35.17019 1652.0026,33.544867 1650.6164,29.851357 1651.6301,23.355927 1653.7178,22.554799 1655.6269,21.822187 1656.8931,22.829982 1655.3003,23.81439 1651.8224,25.963891 1653.1894,35.298675 1657.6892,40.126248 1659.762,42.350084 1660.0306,43.346059 1659.4421,46.626248 1657.9574,54.901364 1651.7963,65 1648.2324,65 1647.3031,65 1644.2125,62.4125 1641.3644,59.25 L 1636.1862,53.5 1631.6627,55.852036 C 1629.1748,57.145655 1626.6807,57.92068 1626.1202,57.574313 1625.4767,57.176557 1625.3263,53.731264 1625.7121,48.222277 1626.2327,40.789352 1626.7243,38.98262 1629.0379,36 1632.4947,31.543686 1633.3829,28.084176 1631.2778,27.276349 1630.4159,26.945629 1629.2134,27.316844 1628.6054,28.101272 1626.8691,30.341573 1622.2631,33 1620.1179,33 1618.7293,33 1617.6762,31.718926 1616.4714,28.564275 1615.5397,26.124626 1614.1275,23.87916 1613.3332,23.574351 1611.4627,22.856575 1607,27.319228 1607,29.907492 1607,34.889009 1612.0582,40.074402 1616.5286,39.675781 1618.3708,39.51152 1618.4908,40.109906 1618.3599,48.806779 1618.2828,53.925508 1617.9401,58.393246 1617.5982,58.735085 1617.2564,59.076924 1614.3945,58.123545 1611.2384,56.616463 1603.547,52.94375 1599.7319,52.924651 1595.9583,56.539968 1592.1345,60.203424 1589.2535,70 1592,70 1592.55,70 1593,69.425178 1593,68.722618 1593,68.020058 1594.9378,65.243096 1597.3062,62.551592 L 1601.6124,57.657948 1604.5562,59.44389 C 1607.3905,61.163378 1615.0169,70.149289 1614.984,71.730643 1614.9752,72.153789 1613.5701,74.075 1611.8615,76 1605.621,83.030965 1605.5797,83.187079 1608.1736,89.926388 1609.4531,93.250731 1610.9005,95.977252 1611.3899,95.985324 1611.8793,95.993396 1612.012,93.4125 1611.6847,90.25 L 1611.0895,84.5 1616.7271,79.25 C 1619.8278,76.3625 1622.7241,74 1623.1633,74 1623.6025,74 1624.2314,75.2375 1624.5608,76.75 1626.9821,87.866898 1630.8025,96 1633.6033,96 1634.5013,96 1636.7735,94.65 1638.6528,93 1643.2571,88.957393 1647.3996,88.938367 1649.4743,92.950298 1652.0593,97.949055 1655.2239,98.402957 1662.3474,94.796668 1665.6919,93.103487 1665.2981,94.848005 1661.8628,96.943204 1656.363,100.29758 1652.3014,100.63177 1649.4613,97.963614 1648.1265,96.709642 1646.7713,94.854841 1646.4498,93.841833 1645.6234,91.238178 1643.5841,91.551275 1639.7848,94.865081 1632.4003,101.30604 1628.2297,99.105895 1624.8757,87 1623.7328,82.875 1622.4889,79.168161 1622.1114,78.762581 1621.734,78.357001 1619.7545,79.402262 1617.7126,81.085385 1614.1003,84.062911 1614,84.327399 1614,90.872804 1614,97.675 1612.9849,100.01603 1610.05,99.982056 1609.0073,99.969985 1607.7579,97.597199 1606.2324,92.732056 z M 1647.6047,86.596362 C 1645.6356,81.8836 1642.7548,81.187113 1638.8435,84.478202 1632.8056,89.558828 1630.288,86.940696 1630.0997,75.384859 1630.0219,70.610443 1630.4544,68.692033 1632.0726,66.634859 1633.2125,65.185686 1634.6059,64 1635.1691,64 1635.7323,64 1638.238,65.8 1640.7373,68 1646.4863,73.060474 1651.2287,73.469203 1655.2408,69.25 1658.568,65.751095 1664.317,55.05276 1666.5257,48.25 1667.8858,44.060762 1668.6671,43 1670.3926,43 1673.2441,43 1676.6187,40.56619 1677.2815,38.031587 1678.0206,35.205334 1676.5143,34.616909 1673.536,36.568391 1672.1497,37.476723 1670.3166,37.951751 1669.4626,37.624009 1667.1506,36.736826 1664.7795,30.280544 1665.5228,26.896409 1666.4118,22.848579 1668,23.277696 1668,27.565741 1668,31.485049 1669.4787,35 1671.1275,35 1671.7089,35 1673.3451,34.087094 1674.7636,32.97132 1677.4895,30.827101 1678.6254,31.223592 1679.1431,34.5 1679.7453,38.311556 1677.0391,42.678615 1672.9255,44.533597 1669.6891,45.993013 1668.8057,47.029943 1667.9253,50.403081 1666.627,55.377071 1659.5061,68.175938 1656.4283,71.067328 1655.2009,72.220467 1652.3582,73.410526 1650.1113,73.711903 1646.4649,74.200981 1645.4381,73.816081 1640.5559,70.129931 1637.5473,67.858469 1634.6294,66 1634.0715,66 1631.4195,66 1631.2855,81.676889 1633.9149,84.312901 1634.3609,84.759997 1636.4253,83.972497 1638.5024,82.562901 1640.5796,81.153305 1642.8306,80 1643.5047,80 1645.3784,80 1649.8044,83.808238 1650.5083,86.026085 1651.31,88.552206 1652.3883,88.512153 1656.0282,85.821034 1657.6492,84.622603 1659.3009,83.967518 1659.6986,84.365288 1660.8935,85.560121 1654.7065,89.92536 1651.7634,89.964037 1649.5808,89.99272 1648.739,89.311033 1647.6047,86.596362 z M 1658.8608,89.966731 C 1661.3535,87.890083 1663,87.441688 1663,88.839485 1663,89.659177 1658.5999,92.032845 1657.2029,91.966731 1656.8163,91.948433 1657.5624,91.048433 1658.8608,89.966731 z M 1661.1166,36.894811 C 1659.0052,34.628447 1658.2174,28.203006 1659.607,24.581787 1660.8057,21.457871 1661.6049,23.099391 1661.5529,28.579066 1661.5111,32.991228 1661.9071,34.456115 1663.4463,35.582813 1664.8395,36.602649 1665.0857,37.314285 1664.3129,38.087119 1663.54,38.859952 1662.6318,38.521141 1661.1166,36.894811 z"/>
</svg>
