<svg xmlns="http://www.w3.org/2000/svg"
     width="20.2" height="64.0"
     viewBox="396.5000 13.8071 29.0878 92.3749">
  <path d="M 400.5,59.499989 C 400.5,19.126294 400.65423,17.807108 404.70332,23.54689 409.89521,30.906655 409.58222,30.688057 411.91074,28.580777 415.09466,25.699373 415.73947,27.61872 412.66547,30.827288 410.46767,33.121299 410.09374,34.218711 410.61753,36.837666 411.43136,40.906823 412.44215,41.504144 415.22075,39.557933 419.10703,36.835874 419.51291,37.875593 415.98495,41.51553 413.03368,44.560464 412.61799,45.597894 412.87956,49.26553 413.04566,51.594488 413.33033,53.652125 413.51217,53.838056 413.694,54.023987 415.22262,53.155953 416.90909,51.909091 421.51948,48.500482 421.58782,50.176881 417.02451,54.740196 414.81103,56.953676 413,59.735034 413,60.92099 413,62.106947 414.8159,64.967087 417.03534,67.276858 421.11916,71.526897 420.75188,73.994435 416.61407,70.107161 413.53897,67.218258 413,67.435924 413,71.566722 413,73.880764 413.92701,76.348816 415.63945,78.59394 418.5738,82.441078 418.14149,84.343014 414.9825,81.484165 412.69339,79.41255 411.76729,80.014328 410.25643,84.555129 409.48467,86.874613 409.59222,88.282686 410.70309,90.402844 L 412.16627,93.19543 409.14309,92.531429 C 406.48106,91.946747 405.9305,92.233719 404.53428,94.933714 400.78607,102.18196 400.5,99.669393 400.5,59.499989 z M 405.24608,89.75 C 408.39399,83.735094 409.13909,80.54731 410.07337,69.097442 411.38439,53.03047 409.59132,38.953233 404.93418,28.75 403.11125,24.75619 401.7164,25.361938 402.46964,29.820292 403.38442,35.234816 403.46685,83.639168 402.57,88.75 401.68212,93.809685 402.886,94.259552 405.24608,89.75 z"/>
</svg>
