<svg xmlns="http://www.w3.org/2000/svg"
     width="28.4" height="64.0"
     viewBox="2788.6051 21.0000 39.0831 88.1592">
  <path d="M 2807,102.27847 C 2801.093,100.05887 2795.9815,92.847206 2796.022,86.789838 2796.0509,82.460956 2799.4866,75 2801.4511,75 2802.7273,75 2803,73.513626 2803,66.556536 2803,58.182718 2802.9746,58.098171 2799.9184,56.306536 2795.6157,53.784149 2792.6051,46.898126 2793.3688,41.326139 2794.5025,33.054811 2801.9752,25 2808.515,25 2812.1343,25 2819.1932,30.780051 2821.4932,35.626828 2823.4558,39.762784 2823.6882,48.860077 2821.94,53.12028 2820.3814,56.918741 2815,59.022463 2815,55.833333 2815,55.375 2815.8842,55 2816.9648,55 2819.4607,55 2820.5625,52.831558 2821.3968,46.277521 2821.9601,41.852582 2821.6729,40.287974 2819.5163,36.032096 2816.5003,30.080461 2810.35,25.44435 2806.6893,26.363133 2800.9232,27.810328 2795.0731,35.796158 2795.022,42.289838 2794.9898,46.370348 2798.4635,52.494614 2802.0245,54.635789 L 2805.1249,56.5 2805.3125,66.454819 C 2805.4978,76.291171 2805.4705,76.416599 2803.0222,76.994661 2801.0867,77.451638 2800.2453,78.638592 2799.178,82.417676 2797.9714,86.689683 2798.0052,87.685106 2799.4668,90.926486 2802.7263,98.154572 2810.6429,102.27028 2815.979,99.510867 2819.6079,97.634288 2821.2055,94.877634 2822.0705,89 L 2822.7328,84.5 2822.8626,89 C 2823.1247,98.079044 2814.6666,105.15924 2807,102.27847 z M 2803.1743,46.685549 C 2800.6739,44.023947 2800.5436,42.904248 2802.2009,38.320998 2803.5693,34.53678 2806.1662,34.000362 2811.0048,36.502489 2814.8008,38.465458 2816.1174,44.107758 2813.4638,47.039994 2810.9894,49.774158 2805.9116,49.59924 2803.1743,46.685549 z M 2812.8068,42.810252 C 2813.0552,39.822377 2812.654,38.819394 2810.6977,37.537567 2806.9198,35.062229 2803.0471,37.149715 2803.0153,41.678571 2802.9925,44.9278 2805.7575,47.156013 2809.3754,46.804003 2812.189,46.530258 2812.5305,46.132757 2812.8068,42.810252 z M 2805.4545,91.545455 C 2802.6238,88.714747 2802.3721,86.114811 2804.5257,81.95034 2806.5065,78.11995 2808.4269,78.2269 2812.6,82.4 2816.3455,86.145476 2816.7931,88.422683 2814.4433,91.777494 2812.3843,94.717176 2808.5267,94.617595 2805.4545,91.545455 z M 2812.8,90.8 C 2816.113,87.486956 2812.1962,81.231972 2807.5403,82.400531 2804.3274,83.206906 2804.163,86.480151 2807.1743,89.685549 2809.6117,92.280044 2811.0375,92.562494 2812.8,90.8 z M 2817.9034,77.070074 C 2814.5236,73.533669 2814.2731,72.815318 2813.748,65.153408 2813.0367,54.776332 2814.5237,54.424279 2815.4904,64.740866 2816.1033,71.280946 2816.6644,72.992696 2819.1079,75.775662 2820.6986,77.587324 2822,79.503934 2822,80.034796 2822,81.349647 2821.9787,81.334268 2817.9034,77.070074 z"/>
</svg>
