<svg xmlns="http://www.w3.org/2000/svg"
     width="64.0" height="50.9"
     viewBox="1170.8128 14.2139 111.6742 88.7861">
  <path d="M 1244.2613,93.5 C 1241.4906,90.475 1238.4791,88 1237.569,88 1236.6589,88 1233.7245,90.048279 1231.0481,92.551732 1228.1412,95.270828 1225.9175,96.675459 1225.525,96.040426 1224.8904,95.013718 1234.6606,85.024937 1236.3157,85.008233 1237.9039,84.992205 1241.5415,87.279255 1244.735,90.301641 1246.5143,91.98555 1248.2273,93.106003 1248.5418,92.791537 1249.2928,92.040571 1245.2313,83.43687 1243.4138,81.928462 1241.4448,80.294322 1241.6481,77.358354 1244.0779,72.339062 1246.4428,67.453836 1251.2219,63 1254.0991,63 1255.1692,63 1257.9975,64.8 1260.3842,67 1262.7709,69.2 1265.4096,71 1266.2479,71 1270.7386,71 1275.5989,50.31827 1275.1194,33.25 1274.9189,26.111922 1273,28.456879 1273,35.840037 1273,42.575777 1270.2776,55.562166 1267.7677,60.798857 1265.9772,64.534643 1263.3233,64.710351 1260.0018,61.313022 1258.4582,59.734219 1256.0384,57.823342 1254.6245,57.066627 1252.2851,55.814607 1251.709,55.929694 1248.2231,58.345391 1246.1163,59.805426 1244.0792,61 1243.6962,61 1242.8493,61 1242.9862,46.68052 1243.8731,42.5 1244.3695,40.16006 1245.1183,39.429917 1247.2766,39.181469 1248.8253,39.003192 1250.7213,37.828737 1251.5827,36.514163 1254.5272,32.020306 1250.7771,23.005728 1246,23.094373 1245.175,23.109682 1243.133,25.00432 1241.4622,27.304679 1237.8153,32.325886 1235.7843,32.910988 1232.7671,29.809574 1231.5202,28.527816 1229.7125,26.866206 1228.75,26.117107 1227.1969,24.908328 1227,25.011415 1227,27.033486 1227,28.495554 1228.8373,31.000966 1232.128,34.026279 L 1237.256,38.740696 1236.5292,50.372378 C 1236.1295,56.769803 1235.4442,62.22548 1235.0063,62.496104 1234.5684,62.766729 1231.4832,61.167139 1228.1502,58.941461 1222.1186,54.913746 1222.0771,54.903023 1219.2951,56.654517 1217.7578,57.622377 1215.1978,59.471402 1213.6063,60.763461 1212.0148,62.055521 1210.3578,62.749812 1209.9241,62.30633 1209.4904,61.862849 1209.0247,57.675 1208.8891,53 1208.7536,48.325 1208.2843,43.192114 1207.8463,41.593587 1207.1648,39.106688 1207.5515,38.131974 1210.5249,34.840707 1212.8631,32.252633 1214,30.013713 1214,27.997119 1214,24.502604 1213.5328,24.381107 1209.5,26.826975 1207.85,27.827699 1204.9791,29.172981 1203.1201,29.816489 1199.8257,30.956935 1199.6403,30.872947 1195.7851,26.493253 1193.6098,24.021964 1191.3058,22.014971 1190.665,22.033269 1188.2694,22.101681 1185.1233,25.828293 1184.0284,29.89453 1181.8346,38.04186 1184.9783,41.028974 1192.9891,38.408774 1199.715,36.208851 1200.5139,37.038631 1201.5013,47.249397 1202.9973,62.720689 1202.4503,65.351911 1198.6424,61 1195.0554,56.900523 1188.3641,52.811032 1185.8306,53.169882 1184.0897,53.416477 1182.6837,55.144566 1180.2736,60 1177.2454,66.100783 1177.0458,67.163868 1177.0236,77.309017 1176.9983,88.88768 1178.3015,90.957398 1179.343,80.992752 1180.0411,74.313146 1183.1818,66.050477 1185.9877,63.51112 1187.6846,61.975426 1188.0485,62.220781 1192.185,67.689816 1199.9017,77.892577 1200.192,78.516223 1198.1042,80.405715 1196.2591,82.075514 1193.9963,88.263406 1194.0048,91.61602 1194.0086,93.113844 1194.6934,92.755521 1197.3458,89.86783 1202.89,83.832028 1204.6741,83.852112 1210.1917,90.012433 1214.4357,94.750851 1215.3752,97 1213.1105,97 1212.6862,97 1210.8848,94.975 1209.1074,92.5 1204.6784,86.332768 1201.9749,86.393311 1197.9436,92.75 1196.2868,95.3625 1194.3842,97.5 1193.7156,97.5 1191.4893,97.5 1191.702,88.563399 1194.0588,83.08498 L 1196.2225,78.055346 1193.6293,73.777673 C 1189.6679,67.24323 1188.2268,65.698987 1186.6535,66.302729 1184.6437,67.073966 1180.9664,78.668172 1180.1669,86.754661 1179.6857,91.621471 1179.1023,93.5 1178.0719,93.5 1176.02,93.5 1175.0519,88.826783 1174.9139,78.255219 1174.8128,70.50389 1175.2311,67.809917 1177.5037,61.578963 1180.8832,52.312839 1183.3888,49.677529 1187.6557,50.901266 1189.3354,51.382981 1192.6875,53.212324 1195.1048,54.966473 1200.227,58.6834 1200.3284,58.513531 1199.2613,48 L 1198.5,40.5 1195,40.678426 C 1193.075,40.776561 1190.0599,41.161841 1188.2999,41.534606 1185.4272,42.143013 1184.8904,41.868964 1183.0536,38.85618 1179.8344,33.575936 1180.6858,27.112696 1185.2409,22.25 1188.5089,18.761422 1192.1675,19.336162 1196.381,24 1198.3686,26.2 1200.6571,28 1201.4666,28 1203.2452,28 1210.8094,24.257405 1213.2736,22.158194 1217.9036,18.213949 1217.8666,29.628164 1213.2316,35.136621 1210.9664,37.828584 1210.7313,38.908935 1210.9074,45.815783 1211.1289,54.505592 1211.7793,58 1213.1751,58 1213.7022,58 1215.6084,56.875 1217.4111,55.5 1221.544,52.347731 1223.4471,52.356957 1227.239,55.547644 1232.2594,59.772001 1233.3739,58.708648 1234.4048,48.71106 L 1235.3096,39.936187 1229.9361,35.123342 C 1224.9113,30.62281 1224.5738,30.03092 1224.7344,26.002126 1224.8289,23.632522 1225.2984,21.301603 1225.7777,20.822305 1226.273,20.327037 1228.6332,21.963298 1231.2454,24.612802 1236.5395,29.982592 1237.7661,29.914804 1241.4698,24.047771 1242.8913,21.796108 1244.796,20.015958 1245.7625,20.035963 1247.8944,20.08009 1252.3449,23.728833 1253.8716,26.684259 1256.6644,32.09041 1254.1165,40.066548 1249.0304,41.839563 1246.0724,42.870733 1246,43.052428 1246,49.44798 1246,56.334676 1246.4069,56.915867 1249.5589,54.531803 1252.6005,52.231226 1254.3021,52.700948 1258.5,57 1260.6482,59.2 1263.0125,61 1263.754,61 1266.7808,61 1270.5239,46.54004 1271.3475,31.665019 1271.6165,26.805779 1272.0875,22.579154 1272.3941,22.272518 1273.8329,20.83379 1275.791,24.622766 1276.9445,31.077559 1278.487,39.708589 1277.7129,48.309841 1274.3485,59.923323 1269.9233,75.198814 1267.3979,76.956898 1259.8357,70.026734 1257.451,67.841437 1254.7525,66.041437 1253.8389,66.026734 1252.0062,65.997239 1247.7791,70.592722 1245.391,75.210806 1244.046,77.811656 1244.0355,78.388576 1245.3067,79.840927 1247.2092,82.014548 1250.0311,87.621755 1251.1023,91.356811 1251.9831,94.427905 1251.3482,99 1250.041,99 1249.6328,99 1247.0319,96.525 1244.2613,93.5 z M 1215,89.829026 C 1215,89.184991 1213.6169,85.818887 1211.9263,82.348795 1210.2157,78.837373 1209.1051,75.244265 1209.4219,74.246158 1210.2557,71.619079 1221.8493,61.728192 1223.3982,62.322545 1225.7217,63.214181 1231.7928,76.327886 1230.9441,78.62207 1230.1543,80.757226 1217.8057,91 1216.0215,91 1215.4597,91 1215,90.473062 1215,89.829026 z M 1223.0792,84.25 C 1229.1323,79.611723 1229.7954,77.497269 1226.9629,71.865726 1222.7932,63.575836 1222.477,63.485595 1216.9081,68.996185 1214.1425,71.732833 1212,74.766106 1212,75.944865 1212,77.989282 1216.7312,88 1217.6974,88 1217.9657,88 1220.3875,86.3125 1223.0792,84.25 z"/>
</svg>
