<svg xmlns="http://www.w3.org/2000/svg"
     width="31.5" height="64.0"
     viewBox="2856.8750 17.3363 42.5107 86.5075">
  <path d="M 2860.875,86.625 2861.9375,89.6875 C 2863.3628,89.285581 2866.1522,87.164938 2869.3125,83.84375 2874.2021,78.705246 2875.0757,77.253248 2874.5938,75.09375 2872.9749,67.842706 2871.9397,54.730038 2872.5,48.75 2873.0701,42.66514 2872.8854,41.694752 2870.7188,38.75 2867.182,33.943496 2865.7322,29.55843 2866.5,26.0625 2866.9269,24.11878 2866.7781,23 2866.0938,23 2865.4708,23 2864.9928,25.009184 2865,27.75 2865.0093,31.272346 2865.8936,34.011387 2868.3438,38.3125 2871.4423,43.752189 2871.5605,44.402109 2870.625,48.96875 2869.8837,52.587371 2870.0545,56.73766 2871.2188,65.09375 2872.9828,77.753475 2872.6238,79.059522 2866.3438,84.34375 2864.0241,86.295623 2862.4958,86.978307 2860.875,86.625 z M 2874.0938,23.65625 C 2873.5933,23.325382 2873.0022,23.872915 2872.5938,25.5 2871.976,27.961449 2873.4719,35.880839 2875.1875,39.25 2875.6776,40.2125 2876.5006,41 2877.0312,41 2878.4454,41 2878.2129,37.755894 2876.5,33.65625 2875.675,31.681747 2875,28.728956 2875,27.09375 2875,25.196658 2874.5942,23.987118 2874.0938,23.65625 z M 2864.4688,97.1875 2865.375,99.84375 C 2867.5464,99.510531 2874.7846,91.673349 2880.375,83.5 L 2884.4688,77.5 2884.4688,62.75 2884.5,48.03125 2888.8438,43.78125 C 2893.711,39.056841 2895.3857,35.685242 2894.5312,32.28125 2893.7562,29.192962 2891.8439,29.409306 2888,33 2886.2337,34.65 2884.4614,36 2884.0625,36 2882.4582,36 2880.625,30.614469 2880.625,25.9375 2880.625,22.715187 2880.2887,21.336272 2879.6562,21.96875 2878.2029,23.422079 2878.4656,31.124453 2880.0938,34.53125 2881.9358,38.385452 2884.8951,38.727375 2888.3438,35.53125 2891.9474,32.191594 2893.3853,32.274327 2892.5625,35.75 2891.9278,38.430667 2890.5231,40.016829 2885.3125,43.8125 2881.9676,46.249046 2880.8023,53.261563 2881.5938,66.5 L 2882.1875,76.5 2876.0938,85.1875 C 2870.7725,92.757258 2867.5936,96.411113 2864.4688,97.1875 z"/>
</svg>
