<svg xmlns="http://www.w3.org/2000/svg"
     width="29.7" height="64.0"
     viewBox="2361.7188 17.8879 40.7090 87.8327">
  <path d="M 2365.7188,92.15625 2369.125,94.4375 C 2376.9857,99.779015 2389.1182,101.72054 2392.3438,98.15625 2396.8472,93.180042 2398.4278,76.412573 2396.875,50.03125 2395.7651,31.174792 2394.5192,24.016836 2392.2188,23.25 2388.1323,21.88788 2384.2863,59.896757 2386.4688,80.0625 2387.5523,90.075631 2385.5977,90.578325 2371.2812,83.9375 2369.3943,83.062256 2368.1403,82.321196 2367.3125,81.625 L 2366.7188,85.53125 C 2367.6236,84.786115 2369.5388,85.345917 2373.5312,87.46875 2380.5558,91.203764 2384.72,91.717511 2387.2812,89.15625 2389.3098,87.127628 2389.3566,86.733347 2388.125,78.03125 2387.4232,73.072694 2386.8568,66.418859 2386.875,63.25 2386.9262,54.326641 2388.8732,36.047347 2390.375,30.5 2391.6555,25.770005 2391.7815,25.635003 2392.7188,28 2395.113,34.041064 2395.979,77.144497 2393.9062,87.0625 2393.2196,90.348171 2391.7802,93.585915 2390.2188,95.25 2386.7342,98.963742 2383.9433,98.749064 2374.1875,94.03125 2368.5912,91.324913 2366.7872,90.187224 2366.25,88.75 L 2365.7188,92.15625 z"/>
</svg>
