<svg xmlns="http://www.w3.org/2000/svg"
     width="25.8" height="64.0"
     viewBox="2610.8750 18.7047 34.2925 85.2296">
  <path d="M 2614.875,82.09375 2616.0312,85.6875 C 2617.3443,86.387127 2617.7218,87.568214 2617.0312,88.875 L 2618,92 2618,92.0625 C 2618.3367,92.115391 2618.5626,92.353748 2618.75,92.875 2619.4192,94.736394 2622.7645,98 2624,98 2624.55,98 2625,97.325 2625,96.5 2625,95.675 2624.5671,95 2624.0312,95 2623.4953,95 2622.2889,93.5375 2621.3438,91.75 2619.0851,87.477722 2619.1091,76.363701 2621.4062,68.75 2623.095,63.152576 2623.0785,62.856766 2621.0625,57.46875 2618.4571,50.505172 2618.2258,37.011539 2620.5938,31.09375 2621.4654,28.915335 2621.985,26.307715 2621.75,25.3125 2621.134,22.704744 2619.2278,27.654849 2617.3125,36.90625 2615.632,45.023433 2616.0565,51.492659 2618.75,59.125 2620.2813,63.464279 2620.2752,64.27553 2618.5312,72.125 2617.1198,78.478004 2616.269,80.990991 2614.875,82.09375 z M 2631.2269,97.75 C 2626.7423,92.243603 2625.1057,74.469492 2628.365,66.668853 2629.3904,64.214835 2629.6396,62.171569 2629.091,60.716126 2626.5693,54.025149 2625.9031,50.275944 2625.8201,42.307088 2625.7246,33.147456 2627.2947,25 2629.1552,25 2629.818,25 2629.9583,25.86664 2629.5195,27.25 2629.1269,28.4875 2628.5803,33.55 2628.3048,38.5 2627.8811,46.11243 2628.1961,48.886532 2630.3477,56.493267 2632.8708,65.413145 2632.8757,65.503435 2630.9458,67.557718 2627.0585,71.695509 2629.05,93.769617 2633.5372,96.280732 2634.3417,96.730989 2635,97.52702 2635,98.04969 2635,99.42262 2632.4223,99.217884 2631.2269,97.75 z M 2638.7599,97.256131 C 2634.9125,92.928226 2633.7517,77.566426 2636.558,68.116736 2637.9988,63.264934 2637.9837,62.524058 2636.3564,58.263286 2633.2569,50.14726 2634.5628,25 2638.0839,25 2638.722,25 2638.7994,26.373214 2638.2953,28.75 2636.8138,35.735413 2637.5156,54.17692 2639.4152,58.180131 2640.9825,61.482944 2641.0049,62.219033 2639.659,66.183361 2638.8438,68.584592 2637.866,74.138158 2637.4861,78.524618 2636.9046,85.239097 2637.1258,87.437423 2638.8851,92.429325 2641.1675,98.905634 2641.1408,99.934349 2638.7599,97.256131 z"/>
</svg>
