<svg xmlns="http://www.w3.org/2000/svg"
     width="43.5" height="64.0"
     viewBox="232.0723 57.0000 29.2480 43.0000">
  <path d="M 249.96463,69.310495 C 250.61408,68.742405 248.58755,65.69585 247.26752,65.25584 246.16686,64.888955 242,68.741241 242,70.125691 242,70.850421 249.02631,70.131264 249.96463,69.310495 z M 247.92859,92.038217 C 249.78615,91.044081 252.66154,85.328207 251.75841,84.425075 251.47747,84.144137 249.62674,84.687218 247.64568,85.631922 244.21176,87.269441 243.94943,87.264211 242.02187,85.519794 240.05091,83.736098 240,83.745432 240,85.890467 240,87.865517 243.98673,93 245.52029,93 245.85644,93 246.94018,92.567198 247.92859,92.038217 z M 250.03456,75.064567 C 248.69047,72.553119 244.90026,72.364022 241.43361,74.635458 236.07229,78.14833 237.11111,72.42747 243.06221,65.666668 245.32148,63.100001 247.53728,61 247.98621,61 249.36012,61 252.62983,67.331504 253.25939,71.211025 253.99853,75.765824 251.80968,78.381414 250.03456,75.064567 z M 240.5712,92.631923 C 237.61211,89.84114 237,88.565743 237,85.19094 237,80.197651 238.43464,79.120247 241.38848,81.895231 244.17605,84.514017 245.50692,84.533017 248.72713,82 251.36608,79.924203 254.49974,79.381543 255.40349,80.843846 257.3203,83.945308 249.57957,96 245.6712,96 244.83036,96 242.53536,94.484365 240.5712,92.631923 z"/>
</svg>
