<svg xmlns="http://www.w3.org/2000/svg"
     width="39.0" height="64.0"
     viewBox="2506.5502 17.1607 52.8248 86.6272">
  <path d="M 2554.9375,89 C 2554.7155,88.914905 2554.5438,88.953608 2554.3125,88.84375 2548.4396,86.054799 2546.3444,76.670221 2550,69.5 2552.3392,64.911728 2552.331,65 2550.9062,65 2550.2995,65 2547.487,67.07728 2544.6562,69.625 2535.9701,77.442443 2533.9297,77.592444 2530.5938,70.5625 2528.3847,65.907069 2528.6529,60.455517 2531.4375,54 2534.4421,47.034459 2536.1629,45.871266 2539.2188,48.65625 2542.3038,51.468011 2545.4132,53 2548.0625,53 2550.0115,53 2550.1874,52.641404 2549.5625,49.75 2547.209,38.860338 2547.7636,32.083128 2551.5312,26.53125 2554.6049,22.001915 2553.1654,21.160744 2546.9062,23.84375 2542.9856,25.524337 2537.8587,30.133473 2535.3438,34.25 2534.4754,35.671376 2528.0124,39 2526.125,39 2524.0975,39 2521.822,31.718277 2522.2812,26.6875 2522.6852,22.263127 2522.5365,21.91015 2520.5938,22.1875 2519.1339,22.395906 2517.4772,24.498888 2515.1875,29 2511.4364,36.37411 2511.5086,39.891005 2515.4688,45.71875 L 2517.75,49.125 2515.875,54.0625 C 2513.8317,59.440054 2513.3605,70.176224 2514.9688,74.40625 2515.7222,76.387976 2515.3741,78.167055 2513.375,82.6875 2511.1691,87.675297 2510.9717,88.943099 2511.9062,92.0625 2512.5006,94.046258 2513.8846,96.487504 2514.9688,97.46875 2517.5314,99.787983 2520.4244,98.7813 2519.6562,95.84375 2518.9554,93.163976 2521.5249,88 2523.5625,88 2524.4007,88 2526.396,88.67057 2528,89.5 2529.6039,90.32943 2533.5842,91.197367 2536.8438,91.4375 2541.4432,91.776351 2543.7766,92.58297 2547.25,95.03125 2549.7115,96.766268 2553.2647,98.56088 2555.125,99 2555.2454,99.028432 2555.2559,99.034451 2555.375,99.0625 L 2555.25,96.28125 C 2552.4874,95.409834 2549.5263,93.799879 2547.25,91.71875 2545.6682,90.272575 2543.3126,89.55393 2539.25,89.3125 2531.2235,88.835502 2527.7358,87.475434 2523.1562,83.03125 2510.5502,70.797413 2515.8217,45.700165 2532.5,38.53125 2535.1488,37.392689 2537.6444,35.1357 2539.9062,31.84375 2543.0037,27.335398 2548.4608,23.148312 2549.6562,24.34375 2549.9185,24.606007 2549.1138,26.765452 2547.8438,29.15625 2545.9678,32.687603 2545.5276,35.047838 2545.5312,41.75 2545.5336,46.2875 2545.2004,50 2544.7812,50 2544.3621,50 2542.1595,48.348168 2539.9062,46.3125 L 2535.8125,42.59375 2533.875,45.0625 C 2524.4126,57.008126 2524.5935,72.548656 2534.25,77.96875 2536.8506,79.428432 2537.0558,79.357238 2540.75,75.75 2542.8544,73.695133 2545.0045,71.998297 2545.5312,72 2546.0581,72.001703 2546.4943,74.139203 2546.5,76.75 2546.5149,83.602349 2549.6214,88.998475 2554.5,90.6875 2554.7653,90.779333 2554.7986,90.734956 2555.0312,90.8125 L 2554.9375,89 z M 2519.0312,26.1875 C 2519.6535,26.097919 2520,27.344183 2520,29.96875 2520,32.15762 2520.7537,35.806728 2521.6562,38.0625 2523.2234,41.979241 2523.1786,42.258855 2521.3125,44.125 2519.3893,46.048141 2519.3584,46.037209 2517.6562,44.15625 2514.9837,41.203239 2514.4724,35.645559 2516.4375,30.5 2517.4981,27.722738 2518.409,26.277081 2519.0312,26.1875 z M 2516.5625,81.09375 C 2517.4098,81.112825 2518.3394,81.889852 2519.3125,83.375 2520.744,85.55973 2520.6888,86.082076 2518.5312,90.34375 2516.8381,93.688086 2515.9254,94.605762 2515.2188,93.71875 2513.6971,91.808873 2513.1494,85.735544 2514.2812,83.25 2514.9407,81.801606 2515.7152,81.074675 2516.5625,81.09375 z"/>
</svg>
