<svg xmlns="http://www.w3.org/2000/svg"
     width="64.0" height="59.2"
     viewBox="1389.7371 15.6246 99.7996 92.3180">
  <path d="M 1428.8493,21 C 1428.337,21 1425.3368,22.814138 1422.193,25.03125 L 1416.4743,29.0625 1410.8493,26.03125 C 1403.5478,22.076664 1401.9855,22.637539 1402.0055,29.34375 1402.0139,32.172406 1402.4142,35.108129 1402.8805,35.84375 1403.8743,37.41155 1408.1638,37.046713 1408.7243,35.34375 1408.9735,34.586142 1408.371,34.353493 1406.9743,34.71875 1403.6063,35.599486 1401.6534,30.680952 1403.943,27.0625 1405.3138,24.896289 1413.0055,27.574778 1413.0055,30.21875 1413.0055,31.432087 1413.6396,32.051011 1414.7555,31.9375 1418.3464,31.572228 1419.1587,32.090163 1420.6617,35.6875 1422.2652,39.525322 1423.8406,58 1422.568,58 1422.1679,58 1419.4462,56.389414 1416.5055,54.4375 1408.8904,49.382827 1406.0152,48.770547 1402.0993,51.25 1397.935,53.886643 1394.8937,59.961781 1394.2555,67 1393.7371,72.716584 1395.151,77.451499 1397.1617,76.78125 1397.7223,76.594413 1399.0373,74.051752 1400.068,71.125 1402.5009,64.216485 1403.5732,63 1407.4117,63 1409.7856,63 1411.5569,63.982709 1414.4117,66.90625 1416.5114,69.056604 1417.9379,71.30766 1417.568,71.90625 1417.198,72.504841 1414.4362,75.325412 1411.443,78.15625 1408.4498,80.987088 1406.0055,84.091665 1406.0055,85.0625 1406.0055,86.033335 1407.3559,89.669366 1409.0055,93.15625 1410.6551,96.643133 1412.0051,100.30968 1412.0055,101.3125 1412.0066,103.92284 1415.1417,103.06198 1416.7555,100 1417.5954,98.406421 1417.8726,95.796009 1417.5055,92.75 1416.9432,88.08324 1417.0436,87.868149 1422.0055,82.90625 1424.79,80.121726 1427.5608,78.018441 1428.1617,78.21875 1428.7627,78.419059 1430.5133,80.803136 1432.068,83.53125 1434.4724,87.75047 1434.8213,89.242865 1434.3493,93.5 1433.9033,97.522328 1434.1596,98.973894 1435.7243,100.90625 1438.1829,103.9426 1439.6678,103.06504 1441.0055,97.71875 1441.5846,95.404472 1442.726,92.02491 1443.5367,90.21875 1445.7572,85.272947 1445.3397,81.837429 1441.943,77.21875 1438.3175,72.28874 1438.5805,70.46518 1443.6305,66.03125 1447.7035,62.455102 1449.6291,62.626447 1454.7867,67.125 1459.3805,71.131854 1461.6127,70.791283 1466.818,65.25 1471.5819,60.178669 1474.4187,54.823111 1475.5367,48.75 1476.0358,46.038765 1477.3048,44.150737 1480.0993,41.9375 1481.8244,40.571139 1483.3494,39.783068 1484.2243,39.625 L 1484.3493,39.34375 1485.5367,36.25 C 1484.796,33.895543 1484.0055,31.315965 1484.0055,30.59375 1484.0055,25.182999 1477.1878,19.624575 1473.318,21.875 1471.648,22.846146 1471.6939,22.940902 1473.7867,22.96875 1477.547,23.018789 1480.7537,25.784799 1481.4743,29.625 1482.4533,34.844176 1481.2585,38.753599 1478.2555,40.21875 1476.2657,41.189605 1475.0388,43.280781 1473.068,49.09375 1470.2995,57.259757 1468.2829,60.814623 1463.8493,65.40625 1460.7264,68.640428 1460.0167,68.514619 1453.0993,63.46875 1451.2305,62.105525 1448.9367,61 1448.0055,61 1445.8706,61 1437.0055,69.286443 1437.0055,71.28125 1437.0055,72.099031 1438.5805,75.076542 1440.5055,77.875 1442.4305,80.673458 1444.0055,83.36301 1444.0055,83.875 1444.0055,84.386989 1442.6489,87.805938 1441.0055,91.46875 1437.5547,99.160054 1435.4921,99.430861 1436.5055,92.0625 1437.0936,87.786962 1436.7833,86.785294 1433.318,81.1875 1431.2175,77.794449 1429.2095,75.006056 1428.8493,75 1428.4891,74.993944 1425.2073,77.891335 1421.5367,81.4375 L 1414.8493,87.90625 1415.5367,93.4375 C 1415.9553,96.786587 1415.8636,99 1415.2867,99 1414.7609,99 1412.8801,96.057153 1411.1305,92.46875 1407.4042,84.826396 1407.4722,84.615739 1415.4117,77.34375 1418.4851,74.528832 1420.9836,71.849014 1420.9743,71.375 1420.9648,70.900986 1418.9561,68.3625 1416.5055,65.75 1412.6895,61.682079 1411.5118,61 1408.2243,61 1403.8633,61 1401.0354,63.125304 1399.068,67.875 1398.357,69.59134 1397.3638,71 1396.8805,71 1395.339,71 1395.978,63.643053 1397.8805,59.5 1401.4371,51.754792 1405.9006,49.75001 1411.3805,53.46875 1413.4194,54.852405 1415.3716,56 1415.7243,56 1416.0768,56 1417.3076,56.853908 1418.443,57.90625 1424.541,63.557834 1426.8964,59.191122 1424.9743,45.78125 1424.0661,39.444865 1422.9608,35.746581 1421.2243,33.1875 L 1418.7867,29.5625 1422.6305,26.3125 C 1424.7565,24.513671 1427.287,23.008182 1428.2243,23 1430.5537,22.979664 1437.2758,31.927502 1436.443,33.9375 1432.7953,42.742132 1432.2467,61 1435.6305,61 1436.429,61 1437.3104,60.377465 1437.5993,59.625 1438.0972,58.32746 1447.0694,52 1448.4117,52 1448.7597,52 1451.0517,53.863145 1453.5055,56.125 1459.6429,61.782252 1461.4405,61.140098 1466.2867,51.71875 1471.1847,42.196794 1471.8994,38.127898 1469.0993,35.59375 1466.4452,33.191897 1466.4536,30.422479 1469.1305,26.03125 1470.8664,23.183695 1470.9289,22.824031 1469.4743,24.03125 1468.4987,24.84096 1467.1399,26.849787 1466.443,28.5 1465.3118,31.178728 1465.4273,32.014732 1467.693,36.1875 L 1470.2555,40.84375 1465.8805,49.09375 C 1463.476,53.628082 1460.9893,57.515825 1460.3805,57.71875 1459.7717,57.921675 1457.3653,56.476613 1455.0367,54.53125 1450.3306,50.599399 1447.4454,50.141801 1443.8805,52.75 1441.3168,54.625613 1437.2906,57 1436.6617,57 1436.4508,57 1436.0347,54.976918 1435.7555,52.5 1435.1217,46.877397 1437.2034,35.364507 1439.2243,33.34375 1440.5774,31.990456 1441.1659,32.038776 1444.6305,33.78125 1446.7636,34.854105 1450.1864,36.036586 1452.2243,36.40625 1455.6295,37.023937 1456.0351,36.814293 1457.4743,34.03125 1459.197,30.699755 1458.6805,26.246136 1456.3493,24.375 1454.6039,22.974107 1450.0367,23.900078 1444.2867,26.84375 1441.9712,28.029223 1439.5796,29 1438.943,29 1438.3064,29 1435.9555,27.2 1433.7555,25 1431.5555,22.8 1429.3615,21 1428.8493,21 z M 1453.0993,25.1875 C 1453.8935,25.14278 1454.5433,25.209805 1454.9117,25.4375 1456.2891,26.288715 1456.9111,31.324383 1455.8805,33.25 1454.7646,35.33517 1453.7739,35.364611 1448.6305,33.53125 1442.8366,31.466016 1442.0467,30.235535 1445.0055,28 1446.9634,26.520685 1450.7165,25.32166 1453.0993,25.1875 z M 1411.7243,31.34375 C 1411.543,31.274519 1411.2805,31.330041 1411.0055,31.5 1410.4555,31.839919 1410.0055,32.575 1410.0055,33.125 1410.0055,33.675 1410.4555,33.839919 1411.0055,33.5 1411.5555,33.160081 1412.0055,32.425 1412.0055,31.875 1412.0055,31.6 1411.9055,31.412981 1411.7243,31.34375 z"/>
</svg>
