<svg xmlns="http://www.w3.org/2000/svg"
     width="25.6" height="64.0"
     viewBox="1830.9348 15.4818 35.0592 87.5492">
  <path d="M 1844.909,97.334882 C 1843.4808,96.448337 1841.2308,93.740352 1839.909,91.317137 1837.8446,87.532926 1837.5147,85.612434 1837.5707,77.705645 1837.6126,71.799395 1838.2538,66.662691 1839.36,63.373722 1841.0526,58.340935 1841.044,58.179575 1838.8883,54.525954 1836.3594,50.23976 1834.9348,36.779764 1836.8827,35.575924 1837.5002,35.194247 1838.0055,33.773876 1838.0055,32.419543 1838.0055,29.131802 1842.4476,22.57523 1845.6697,21.107153 1849.2369,19.481798 1855.4569,21.41843 1854.4795,23.850175 1852.4362,28.93395 1850.9717,35.329143 1850.3935,41.692471 1849.8217,47.98691 1850.0113,49.344721 1851.9127,52.56737 L 1854.0854,56.249798 1852.0662,62.374899 C 1850.9556,65.743704 1849.7507,71.0875 1849.3885,74.25 1848.6447,80.746159 1849.4844,81.355054 1855.1481,78.426264 1859.1179,76.373415 1859.8392,77.199082 1856.4233,79.885996 1853.5222,82.168032 1849.0725,82.666988 1847.3131,80.907556 1845.9357,79.530238 1846.6241,73.526444 1849.1763,64.6573 1851.0501,58.145881 1851.0632,57.641279 1849.4466,54.234619 1848.0872,51.370011 1847.8617,48.940668 1848.318,42.077319 1848.6317,37.359794 1849.5699,31.7 1850.403,29.5 1852.8303,23.090126 1852.5445,21.821318 1848.7555,22.186642 1846.1448,22.438358 1844.8802,23.43567 1842.3266,27.256498 1836.975,35.264105 1836.8535,47.817625 1842.0594,54.859008 L 1844.0387,57.536137 1841.5221,63.957682 C 1838.0485,72.821236 1838.0418,82.164702 1841.5042,88.997338 1842.8784,91.709306 1844.9298,94.424304 1846.0628,95.030668 1848.8097,96.500782 1853.1944,95.430112 1856.6708,92.440376 1860.4317,89.205899 1861.994,89.314439 1858.9298,92.597318 1856.6356,95.055214 1850.0046,99.030974 1848.2953,98.973391 1847.8609,98.958755 1846.3371,98.221427 1844.909,97.334882 z M 1851.0137,88.25 C 1851.0276,86.99159 1858.9554,83.109945 1859.5493,84.070815 1859.8546,84.564924 1858.6197,85.874444 1856.805,86.980859 1853.4172,89.046367 1850.9992,89.576272 1851.0137,88.25 z"/>
</svg>
