<svg xmlns="http://www.w3.org/2000/svg"
     width="51.9" height="64.0"
     viewBox="1939.3150 12.6686 72.0757 88.9001">
  <path d="M 1950.0915,95.603576 C 1947.1029,92.002638 1951.6128,79.804912 1956.7801,77.512872 1958.6673,76.675769 1959.0055,75.738313 1959.0055,71.344659 1959.0055,68.495063 1959.2721,65.468834 1959.5979,64.619707 1960.3247,62.725728 1955.3061,57.801108 1953.0691,58.213161 1952.1771,58.377472 1950.8929,60.541044 1950.0792,63.250586 1948.5736,68.263904 1946.7596,69.277482 1945.0407,66.065741 1943.315,62.841343 1943.8636,58.638687 1946.7555,52.929315 1950.2174,46.094441 1952.9051,45.458782 1959.4122,49.935839 1961.8617,51.621127 1964.2639,53 1964.7505,53 1965.237,53 1966.3642,51.470947 1967.2554,49.602104 1968.6953,46.582639 1968.7211,45.541155 1967.4869,40.250728 1965.7568,32.83455 1964.0467,29 1962.4694,29 1961.8011,29 1958.7105,30.125 1955.6014,31.5 1952.4923,32.875 1949.0699,34 1947.996,34 1945.5755,34 1944.5483,30.44551 1945.3156,24.724685 1946.2708,17.603465 1950.4486,16.668642 1956.7903,22.157136 1958.5969,23.720711 1960.6219,24.995632 1961.2903,24.990294 1961.9587,24.984956 1964.4813,23.409956 1966.8962,21.490294 1971.5753,17.770795 1973.4162,17.243351 1974.7154,19.25 1975.1606,19.9375 1976.9495,21.789656 1978.6908,23.365903 L 1981.8569,26.231806 1987.3029,23.115903 C 1990.2982,21.402156 1993.6951,20 1994.8515,20 1998.7481,20 2001.8744,30.230347 1998.7555,32.77491 1997.895,33.476958 1995.2474,33.306483 1990.2584,32.227788 1986.2725,31.365981 1982.7352,30.93693 1982.3978,31.274341 1982.0604,31.611753 1981.3129,35.175558 1980.7367,39.193908 1979.8023,45.710187 1979.8977,46.905415 1981.6191,50.250254 L 1983.5492,54.000508 1987.3097,50.900753 C 1989.5337,49.067551 1992.6682,47.586675 1994.981,47.276464 1998.4568,46.810263 1999.2309,47.123373 2001.9423,50.091967 2006.1725,54.723431 2007.3907,58.855831 2006.023,63.934911 2005.421,66.17071 2004.325,68 2003.5874,68 2002.8499,68 2000.5871,65.975 1998.559,63.5 1994.6503,58.729972 1991.9015,57.879165 1988.9701,60.532077 1987.5802,61.789919 1987.3636,63.356127 1987.7605,69.282077 1988.1947,75.767439 1988.539,76.737914 1991.1524,78.844171 1994.3501,81.421398 1998.0055,87.824855 1998.0055,90.849378 1998.0055,91.910358 1997.1136,93.840785 1996.0234,95.139216 L 1994.0414,97.5 1989.7734,92.681211 1985.5055,87.862421 1982.0406,91.450531 C 1977.9479,95.688787 1972.3478,97.568715 1968.7281,95.919477 1967.3845,95.3073 1965.2098,93.062085 1963.8954,90.930111 1962.5809,88.798137 1961.2085,87.041691 1960.8455,87.026897 1960.4826,87.012104 1958.2104,89.292522 1955.7964,92.094492 1951.9177,96.596542 1951.2542,97.004616 1950.0915,95.603576 z M 1949.5055,59 C 1952.3593,54.47924 1953.6512,54.146843 1957.2784,57 1960.3717,59.433227 1961.5939,59.515018 1962.4268,57.344543 1963.6546,54.144823 1955.1625,47.958319 1951.4814,49.370877 1948.7987,50.40033 1944.187,63 1946.493,63 1946.7611,63 1948.1167,61.2 1949.5055,59 z M 1955.5376,29.551027 C 1957.445,28.754091 1959.0055,27.651992 1959.0055,27.101918 1959.0055,25.490558 1952.5107,21 1950.1802,21 1947.7204,21 1946.4196,24.529547 1947.4161,28.5 1948.1469,31.411594 1950.3899,31.70187 1955.5376,29.551027 z M 1955.9444,88.75 C 1959.8618,84.599315 1961.087,80.786432 1958.9315,79.454248 1956.4259,77.905693 1951.0355,86.273758 1951.0111,91.75 1951.0024,93.696823 1951.6436,93.306877 1955.9444,88.75 z M 1979.4367,90.641621 C 1983.6488,86.175469 1985.3721,80.168379 1985.1523,70.717637 1984.9962,64.007562 1984.4914,61.993628 1981.4884,56.101079 1977.5414,48.35622 1977.0103,42.624614 1979.4795,34.420253 L 1980.9534,29.522645 1976.7713,25.261322 C 1972.1103,20.512105 1970.1783,20.046642 1967.484,23.023802 1965.706,24.988421 1965.7154,25.229681 1967.8037,31.273802 1971.1826,41.053245 1971.6906,47.574169 1969.3261,50.817923 1968.2508,52.293065 1965.8806,56.580021 1964.059,60.344491 1961.0971,66.465134 1960.8022,67.839965 1961.2705,73.344491 1961.8527,80.188933 1964.418,88.601024 1966.7137,91.193609 1968.0376,92.688724 1969.9711,93.317127 1974.8874,93.850168 1975.6475,93.932576 1977.6947,92.48873 1979.4367,90.641621 z M 2004.0055,60.012185 C 2004.0055,56.991989 2003.2661,55.358371 2000.6374,52.571202 1996.189,47.854552 1993.5729,48.021333 1987.2555,53.424314 1984.488,55.791206 1984.1079,59.608326 1986.7555,58.445148 1987.718,58.022292 1990.0821,57.487454 1992.0091,57.256619 1995.1051,56.885754 1995.9079,57.307921 1998.9089,60.884895 2000.7768,63.111281 2002.6877,64.696416 2003.1553,64.407418 2003.6229,64.118419 2004.0055,62.140565 2004.0055,60.012185 z M 1998.0055,28.610784 C 1998.0055,25.1528 1994.8375,21.598799 1992.4434,22.371084 1989.5878,23.292265 1984.3942,27.708475 1985.2048,28.526285 1986.1097,29.439368 1991.735,30.766598 1995.2555,30.897639 1997.5167,30.981807 1998.0055,30.57535 1998.0055,28.610784 z M 1995.0055,91.0651 C 1995.0055,88.146253 1993.3275,84.321986 1991.0454,82.039934 1988.3392,79.333666 1987.356,79.467262 1986.5573,82.649818 1986.0102,84.829451 1986.5593,85.982816 1989.6518,89.149818 1993.8737,93.473415 1995.0055,93.878324 1995.0055,91.0651 z"/>
</svg>
