<svg xmlns="http://www.w3.org/2000/svg"
     width="31.5" height="64.0"
     viewBox="2272.4985 12.6286 38.5070 78.1138">
  <path d="M 2282.1719,76.25 C 2280.6884,66.503539 2280.7198,63.062438 2282.3638,55.21632 L 2283.6805,48.932641 2280.1589,42.21632 C 2277.1562,36.489452 2276.6277,34.483072 2276.5714,28.597178 2276.4985,20.963078 2277.9105,19.082796 2279.7974,24.301133 2281.0258,27.698238 2286.9059,36 2288.0836,36 2288.4412,36 2289.4828,34.0875 2290.3982,31.75 2295.7532,18.076712 2307.0055,16.628639 2307.0055,29.612794 2307.0055,34.171554 2305.766,36.474974 2300.2392,42.187313 L 2295.7042,46.874626 2296.2809,56.541139 C 2297.0343,69.170257 2294.2586,83 2290.9703,83 2289.7333,83 2289.6636,83.399683 2292.1103,76.465341 2293.9271,71.316046 2294.1506,68.91339 2293.7439,58.90179 2293.2164,45.919087 2293.4362,45.202599 2299.6478,39.658856 2304.0622,35.719028 2305.6559,31.237736 2304.5054,25.999701 2303.1819,19.973828 2297.2806,21.550119 2293.5419,28.928166 2292.1469,31.681106 2291.0055,34.848472 2291.0055,35.966756 2291.0055,37.333333 2290.3497,38 2289.0055,38 2286.8806,38 2285.2176,36.598914 2280.6855,30.989998 L 2277.8655,27.5 2278.5101,31 C 2279.1823,34.650239 2280.7226,38.203308 2284.0712,43.828633 2285.9357,46.960672 2285.9722,47.610347 2284.6894,54.828633 2283.3004,62.64382 2283.286,65.326809 2284.5686,77.25 2285.5897,86.742434 2283.6455,85.931218 2282.1719,76.25 z"/>
</svg>
