<svg xmlns="http://www.w3.org/2000/svg"
     width="26.1" height="64.0"
     viewBox="1140.8754 16.8562 35.5989 87.4317">
  <path d="M 1146.943,46.3125 1147.0055,46.65625 1146.4117,53 C 1146.731,53.470663 1147.0055,54.397674 1147.0055,55.5 1147.0055,56.288252 1146.6694,56.943312 1146.0055,57.625 L 1145.6617,61.34375 1145.2555,62.6875 C 1146.206,64.235395 1145.7594,68.823097 1145.3805,78.53125 1144.8754,91.472485 1144.9943,96 1145.8493,96 1146.5848,96 1147.0171,93.912495 1147.0367,90.25 1147.0537,87.0875 1147.2699,81.35 1147.5055,77.5 1147.7411,73.65 1148.1633,65.55 1148.4743,59.5 1149.3386,42.684141 1151.2904,25 1152.2555,25 1153.6415,25 1156.0174,31.604858 1158.1617,41.40625 1159.6493,48.204811 1160.1179,53.78248 1160.0055,63.5 1159.9227,70.65 1159.8649,77.352067 1159.8805,78.375 1159.9105,80.326393 1167.7803,88.986871 1169.5055,88.96875 1169.6788,88.966929 1170.161,88.538693 1170.568,88.21875 L 1170.0993,85.375 1169.5055,85.84375 1165.693,82.1875 1161.9117,78.5 1162.568,67.5 C 1163.3466,54.492127 1162.0683,43.923885 1158.4117,33.15625 1155.5194,24.639286 1152.7743,20.856168 1150.8805,22.75 1150.2422,23.3883 1149.1592,29.197189 1148.4743,35.6875 1147.9377,40.771321 1147.3891,43.993844 1146.943,46.3125 z M 1172.4743,99.9375 1171.9117,96.5 C 1169.4946,96.923605 1167.1116,95.621187 1163.568,92.59375 1160.6143,90.070324 1157.8115,88.019507 1157.3493,88.03125 1156.8869,88.042994 1155.2023,89.955494 1153.5993,92.28125 L 1150.6617,96.5 1154.2243,93.15625 C 1156.5558,90.965664 1158.0147,90.225196 1158.4743,90.96875 1158.8592,91.591707 1161.4416,93.856409 1164.193,96.03125 1167.8386,98.912917 1170.1885,100.28791 1172.4743,99.9375 z"/>
</svg>
