<svg xmlns="http://www.w3.org/2000/svg"
     width="29.8" height="64.0"
     viewBox="1581.1857 46.9084 25.9022 55.6925">
  <path d="M 1593.3787,85.649153 C 1594.1536,82.561596 1593.0411,82.275334 1589.4391,84.635458 1585.1857,87.422424 1585.6486,85.382324 1589.956,82.357433 1594.0107,79.510001 1594.35,78.859993 1595.4932,71.75 1596.0201,68.472928 1595.8456,68 1594.1098,68 1593.0174,68 1591.8454,68.45 1591.5055,69 1591.1656,69.55 1590.3916,70 1589.7855,70 1589.1793,70 1590.2896,68.7625 1592.2526,67.25 1596.1195,64.270526 1597.7555,58.836332 1596.4051,53.456151 1595.9156,51.505675 1596.0483,50.908397 1596.8597,51.409864 1597.5501,51.836572 1598.0055,54.995962 1598.0055,59.359017 1598.0055,66.730268 1599.0721,69.29541 1601.7154,68.281099 1602.8021,67.864092 1603.0879,68.337219 1602.8198,70.109244 1602.4573,72.504591 1601.915,72.69729 1598.8722,71.511873 1597.575,71.006523 1597.1482,71.652139 1596.7983,74.648796 1596.447,77.657914 1596.8284,78.858163 1598.6817,80.575685 1601.7991,83.464812 1601.608,84.291241 1598.0055,83.5 1595.4446,82.93754 1595.0055,83.136838 1595.0055,84.861528 1595.0055,85.972769 1594.4899,87.200642 1593.8597,87.590136 1593.0533,88.088522 1592.9108,87.513539 1593.3787,85.649153 z M 1592.5692,96.46908 C 1590.1708,94.556704 1589.2562,94.329662 1587.5697,95.227985 1585.6963,96.225803 1585.636,96.169326 1586.9167,94.61704 1587.6928,93.676319 1589.6571,91.960158 1591.2817,90.803348 L 1594.2355,88.700056 1593.5724,90.789124 C 1593.092,92.302908 1593.4734,93.180032 1594.9574,93.97428 1596.9881,95.061057 1597.6983,97.453781 1596.255,98.345797 1595.8422,98.600905 1594.1836,97.756382 1592.5692,96.46908 z"/>
</svg>
