<svg xmlns="http://www.w3.org/2000/svg"
     width="64.0" height="57.3"
     viewBox="2558.0055 18.0000 79.0000 70.6861">
  <path d="M 2571.6549,81.241733 C 2571.2942,80.658046 2571.2535,79.517359 2571.5645,78.706872 2571.9167,77.789064 2570.2206,75.353808 2567.0677,72.250246 2564.2835,69.509588 2562.0055,66.508062 2562.0055,65.580187 2562.0055,63.453681 2567.0838,57.000069 2568.7572,57.000029 2569.4456,57.000013 2571.6253,59.25 2573.601,62 2577.1839,66.987196 2578.8612,68.117288 2579.1669,65.75 2579.2557,65.0625 2579.3863,58.2 2579.4571,50.5 2579.5979,35.206763 2580.2209,32.977247 2585.8481,27.628185 2591.5158,22.240631 2601.7049,22.399666 2609.3126,27.994427 L 2613.2611,30.898229 2616.3531,27.806258 C 2619.1042,25.055134 2624.5662,22 2626.7336,22 2627.1694,22 2628.7588,23.143211 2630.2657,24.540469 2632.5534,26.661694 2633.0055,27.912332 2633.0055,32.118888 2633.0055,36.693263 2632.6268,37.531724 2628.8905,41.230937 2624.9626,45.119762 2624.8039,45.512786 2625.4016,49.873384 2627.0172,61.660365 2627.2594,70.972903 2626.0276,73.946634 2625.332,75.625985 2624.4627,77 2624.0959,77 2623.7291,77 2623.4442,72.8375 2623.4629,67.75 2623.4816,62.6625 2623.1867,54.766723 2622.8075,50.203829 2622.1489,42.277648 2622.216,41.869851 2624.3118,41.059928 2625.5184,40.593677 2627.5728,39.064617 2628.8773,37.662018 2630.7902,35.605164 2631.125,34.450511 2630.6077,31.693207 2629.7711,27.233573 2626.9908,24.714589 2623.7916,25.517559 2620.5485,26.331526 2616.0055,30.623696 2616.0055,32.873802 2616.0055,36.129505 2614.8123,35.956012 2610.1328,32.019923 2604.6547,27.412093 2601.3031,26 2595.8447,26 2590.9267,26 2587.1597,28.101713 2584.1159,32.543772 2581.9325,35.730346 2581.8208,36.748404 2581.8785,52.94884 L 2581.9392,70 2579.5564,70 C 2577.9314,70 2576.1361,68.648279 2573.9116,65.75 2572.1175,63.4125 2570.2903,61.083133 2569.8512,60.573629 2568.8834,59.45076 2565.0055,62.720934 2565.0055,64.659929 2565.0055,65.402404 2567.2555,68.213025 2570.0055,70.905754 2572.7555,73.598482 2575.0055,76.43525 2575.0055,77.209682 2575.0055,79.378197 2572.4235,82.485339 2571.6549,81.241733 z M 2595.2468,80.602323 C 2592.1817,77.467439 2591.0953,75.018054 2592.7555,74.985123 2593.168,74.976941 2595.2516,73.4929 2597.3857,71.687254 L 2601.2659,68.404262 2599.61,65.202131 C 2598.6993,63.440959 2597.6707,62 2597.3242,62 2596.9777,62 2595.1512,63.176935 2593.2653,64.615411 2590.9022,66.417847 2589.5146,66.909127 2588.8014,66.195903 2587.3266,64.721067 2587.7868,49.044519 2589.469,43.454862 2592.2147,34.331612 2598.5491,31.402653 2605.2362,36.164273 2606.9079,37.354624 2609.9024,38.890895 2611.8906,39.57821 2615.32,40.76374 2615.4889,41.031433 2615.1812,44.794262 2615.0029,46.975775 2615.5366,51.049419 2616.3674,53.846803 2618.3864,60.645647 2619.5281,72.55901 2618.237,73.356922 2617.6304,73.731843 2616.9552,71.354604 2616.5236,67.323984 2616.1318,63.665569 2615.1848,58.608548 2614.4192,56.08616 2613.6536,53.563772 2613.0137,49.7 2612.9972,47.5 2612.9682,43.639097 2612.739,43.366538 2606.4049,39.662033 2599.0556,35.363806 2596.3198,35.345228 2593.5485,39.574733 2591.4991,42.702539 2589.7688,52.974281 2590.1958,59.478029 L 2590.5055,64.194372 2594.393,61.097186 C 2596.5311,59.393734 2598.5561,58.009149 2598.893,58.020332 2599.5674,58.042718 2604.0055,67.392938 2604.0055,68.79128 2604.0055,69.271975 2602.2069,71.110678 2600.0086,72.877287 L 2596.0117,76.089304 2598.2017,79.051517 C 2601.4932,83.50344 2599.2398,84.686086 2595.2468,80.602323 z"/>
</svg>
