<svg xmlns="http://www.w3.org/2000/svg"
     width="64.0" height="63.4"
     viewBox="902.3492 17.8070 86.2197 85.3824">
  <path d="M 906.47423,60.28125 C 906.47895,60.274553 906.53289,60.129012 906.53673,60.125 906.72708,59.925977 908.8937,61.388477 911.31798,63.375 913.74227,65.361523 916.1799,67 916.75548,67 917.33107,67 920.14494,65.425 923.00548,63.5 925.86602,61.575 928.5463,60 928.97423,60 929.94392,60 938.28544,69.730203 939.84923,72.6875 942.93139,78.516202 942.98792,79.703026 940.34923,82.65625 937.04097,86.358866 934.06438,92.787417 934.03673,96.25 934.02465,97.7625 934.30587,99 934.66173,99 935.01758,99 937.15508,97.495744 939.41173,95.65625 943.95701,91.951184 947.26895,90 949.03673,90 949.67738,90 952.14905,92.066006 954.53673,94.59375 956.92441,97.121495 959.36016,98.891454 959.94298,98.53125 962.48046,96.963003 960.51806,89.210311 955.75548,82 954.2123,79.663691 954.2266,79.237059 955.91173,75.5 957.63738,71.673066 964.37027,62.820465 966.03673,62.1875 966.47436,62.021278 967.84661,63.708778 969.09923,65.9375 970.35184,68.166222 971.77156,70 972.25548,70 973.32762,70 969.12908,62.351502 967.16173,60.71875 966.02475,59.775136 964.90327,60.51714 961.41173,64.53125 955.30712,71.549517 951.27655,79.725316 952.84923,81.875 953.5089,82.776701 955.18033,85.913049 956.56798,88.875 959.62883,95.408381 959.48962,99.189379 956.38048,94 955.23135,92.08201 952.93014,89.709615 951.25548,88.75 948.22047,87.010877 948.21347,87.03278 943.03673,90.59375 940.1803,92.558627 937.56763,93.905904 937.25548,93.59375 936.34416,92.682428 940.04152,85.307209 942.63048,82.875 945.55016,80.132107 945.61449,78.13125 942.91173,72.71875 940.14283,67.173802 931.14605,57.979118 928.53673,58.03125 927.41794,58.053602 924.94096,59.403602 923.03673,61.03125 921.13251,62.658897 918.73743,64 917.69298,64 915.89769,64 909.43274,59.013078 907.09923,56.21875 L 906.34923,60 906.47423,60.28125 z M 980.50548,67.34375 C 979.8679,67.131204 979.62364,71.288013 979.84923,78.90625 980.24374,92.229417 978.74036,98.575685 977.72423,87.84375 977.08079,81.048031 973.74862,69.417359 973.22423,72.125 973.05074,73.020797 973.5905,76.761667 974.44298,80.4375 975.29546,84.113332 976.00548,89.571629 976.00548,92.5625 976.00548,95.697137 976.46213,98 977.06798,98 981.28356,98 984.56888,68.698358 980.50548,67.34375 z M 907.38048,51.71875 C 908.12608,51.28996 909.36616,51.844095 912.31798,53.875 917.7346,57.601735 919.9288,57.77203 923.69298,54.71875 925.24768,53.457672 927.8209,51.5859 929.44298,50.5625 L 932.41173,48.6875 936.63048,53.34375 C 938.94773,55.903228 941.24084,58 941.75548,58 942.27013,58 943.51877,56.219368 944.50548,54.03125 945.8581,51.031672 946.13374,48.645506 945.69298,44.375 944.95715,37.245485 944.04229,36.239768 939.69298,37.8125 934.6494,39.636283 932.3552,39.268432 930.00548,36.28125 928.33892,34.162561 928.00569,32.775281 928.50548,30.03125 929.43959,24.90265 930.96674,23.703928 935.59923,24.5625 938.23722,25.051417 940.79448,26.598972 943.50548,29.34375 945.96019,31.829046 948.26052,33.272967 949.44298,33.09375 951.28189,32.815039 955.94798,30.228221 957.00548,28.90625 958.13601,27.492986 969.86124,24.136377 971.84923,24.65625 974.58927,25.372785 976.50415,31.478542 975.56798,36.46875 974.75097,40.823784 973.12778,40.681727 970.91173,36.0625 968.52955,31.096969 966.84931,30.579801 961.00548,33.09375 952.42484,36.785041 951.11426,39.86661 952.66173,52.75 953.34358,58.426679 954.81453,59.370214 958.56798,56.53125 959.6356,55.723742 961.07696,55.048742 961.78673,55.03125 962.4965,55.013759 964.3862,54.049079 965.97423,52.875 967.56225,51.700921 969.53927,50.989695 970.38048,51.3125 972.14117,51.988141 977.00548,59.302777 977.00548,61.28125 977.00548,62.012059 977.66672,63.494879 978.47423,64.5625 979.86733,66.404343 979.94405,66.326582 979.97423,63.375 979.99416,61.42498 978.61481,58.160153 976.28673,54.625 971.8653,47.911144 969.76943,47.522004 963.06798,52.0625 957.55204,55.799764 955.65799,55.552764 955.00548,51 953.92167,43.437964 954.93032,40.070628 959.25548,36.9375 965.08322,32.715903 967.34269,33.034616 969.91173,38.5 973.64941,46.45158 978.19298,43.346884 978.19298,32.84375 978.19298,28.988973 977.62464,26.051807 976.50548,24.34375 974.94145,21.956733 974.38123,21.807002 969.84923,22.34375 966.80829,22.703904 961.88746,24.553156 957.06798,27.15625 948.41191,31.831573 949.35721,31.897276 941.94298,25.9375 938.68873,23.32164 932.23987,21.814316 929.84923,23.09375 927.56825,24.314495 925.80258,30.798008 926.63048,34.9375 927.57641,39.667136 930.88236,41.396072 937.44298,40.625 942.81535,39.993583 942.84426,40.020739 943.50548,43.03125 944.23119,46.335374 943.2453,54 942.09923,54 941.70546,54 939.87126,52.425 938.00548,50.5 936.1397,48.575 934.01732,47 933.28673,47 932.55614,47 929.02375,48.86354 925.44298,51.125 L 918.94298,55.21875 915.22423,52.625 C 909.73662,48.786755 907.64273,47.02211 906.50548,44.6875 L 906.34923,45.34375 907.38048,51.71875 z"/>
</svg>
