<svg xmlns="http://www.w3.org/2000/svg"
     width="45.0" height="64.0"
     viewBox="2122.3263 15.2132 58.8520 83.7868">
  <path d="M 2134.7967,91.805815 2131.0878,88.716897 2133.1053,86.108448 C 2135.4377,83.092957 2141.564,73.381376 2144.9418,67.345241 L 2147.2667,63.190481 2143.4772,54.345241 C 2138.7166,43.233318 2138.6296,43.098309 2133.9803,39.603913 2127.1171,34.44552 2126.3263,27.08946 2132.1662,22.729356 2134.3564,21.094146 2135.468,20.910709 2138.6406,21.661009 2143.3419,22.772829 2145.677,25.988213 2149.4008,36.477731 2150.8976,40.694008 2152.9372,45.48371 2153.9332,47.121514 L 2155.7441,50.099338 2158.3751,46.972597 C 2161.7966,42.906338 2162.4712,39.941194 2160.9935,35.463588 2159.4294,30.724228 2160.3872,26.254821 2163.7104,22.786177 2166.7822,19.579888 2169.9835,19.213242 2172.3242,21.799646 2174.8999,24.645787 2177.1783,32.154736 2176.5309,35.663865 2175.8489,39.360274 2170.6261,49.582188 2167.8957,52.564451 2166.8561,53.699899 2166.0055,55.102391 2166.0055,55.681099 2166.0055,56.259806 2165.0816,58.956367 2163.9525,61.673455 L 2161.8994,66.613614 2166.5801,76.556807 C 2169.1545,82.025563 2171.4212,86.7829 2171.6172,87.128668 2172.0078,87.817754 2163.1493,95 2161.9088,95 2161.4861,95 2160.8391,93.9875 2160.4711,92.75 2159.4501,89.317432 2154.6733,80 2153.9344,80 2153.5751,80 2150.6375,83.375 2147.4064,87.5 2144.1753,91.625 2140.8508,94.976315 2140.0186,94.947366 2139.1864,94.918418 2136.8365,93.504719 2134.7967,91.805815 z M 2152.7016,54.073644 C 2153.0367,52.739148 2152.7344,50.264148 2152.0299,48.573644 2151.3254,46.88314 2149.3363,41.589559 2147.6098,36.810131 2143.9183,26.590959 2141.2029,23 2137.1671,23 2133.9008,23 2131.4673,25.273841 2130.474,29.253981 2129.8662,31.689473 2130.5455,32.770526 2136.3482,38.601859 2141.2219,43.499597 2143.3474,46.521044 2144.6111,50.347878 2145.5469,53.181545 2147.0017,56.560668 2147.8441,57.857041 2149.3138,60.118696 2149.4308,60.13893 2150.7341,58.357041 2151.4811,57.335668 2152.3665,55.40814 2152.7016,54.073644 z M 2146.1582,85.202887 C 2152.1153,77.44087 2152.8315,74.949025 2150.4021,70.437858 2149.3838,68.547036 2148.2337,67 2147.8462,67 2146.5677,67 2141.1411,75.49583 2136.7675,84.344838 2134.9527,88.016641 2134.9463,88.277084 2136.6248,90.131862 2139.2181,92.997388 2140.8065,92.176127 2146.1582,85.202887 z M 2157.421,67.868851 C 2158.8693,64.965788 2158.8399,64.414092 2157.0179,60.295213 2154.9095,55.528853 2153.8489,55.46836 2151.5151,59.981368 2150.2399,62.447381 2150.2289,63.289435 2151.4341,66.167956 2153.8858,72.023924 2155.1667,72.387809 2157.421,67.868851 z M 2166.949,89.246795 2169.1142,87.49359 2164.9023,78.246795 C 2162.5858,73.161058 2160.3443,69 2159.9212,69 2159.097,69 2156.0055,74.701324 2156.0055,76.221344 2156.0055,78.231198 2162.5806,90.912031 2163.6447,90.954517 2164.2713,90.979533 2165.7582,90.211058 2166.949,89.246795 z M 2163.1948,57.239829 C 2164.8572,53.559385 2169.8064,44.624766 2172.5866,40.285183 2174.7813,36.859368 2174.3736,29.839061 2171.7555,25.974976 2168.934,21.810639 2167.8821,21.469614 2165.0164,23.790128 2163.1895,25.269429 2162.7238,26.645733 2162.7211,30.573001 2162.7193,33.28285 2163.032,36.625 2163.416,38 2163.9445,39.892302 2163.2503,41.927156 2160.5599,46.371154 2158.605,49.600289 2157.0055,52.885136 2157.0055,53.670814 2157.0055,55.514875 2159.8367,61.003091 2160.7812,60.989829 2161.1796,60.984235 2162.2657,59.296735 2163.1948,57.239829 z"/>
</svg>
