<svg xmlns="http://www.w3.org/2000/svg"
     width="32.0" height="64.0"
     viewBox="2523.2761 32.0000 24.7294 49.5162">
  <path d="M 2538.8343,41.75 2535.2256,37.5 2532.126,40.427098 C 2530.4212,42.037001 2528.6842,43.005605 2528.2659,42.579551 2527.2761,41.571248 2533.9216,36 2536.1141,36 2538.0873,36 2544.0055,42.400703 2544.0055,44.534796 2544.0055,46.961372 2542.6304,46.220878 2538.8343,41.75 z M 2541.0055,56.188058 C 2541.0055,55.741491 2539.6555,54.378019 2538.0055,53.158121 L 2535.0055,50.940125 2532.0178,53.149028 C 2530.3746,54.363925 2528.6938,55.02162 2528.2827,54.610573 2527.5232,53.850991 2530.6404,51.096378 2534.7974,48.853654 2536.8597,47.741065 2537.4484,47.976251 2540.673,51.200852 2542.644,53.171877 2543.9486,55.283013 2543.5721,55.892267 2542.7781,57.176895 2541.0055,57.381187 2541.0055,56.188058 z M 2538.7327,65.868275 C 2536.1428,63.936436 2535.7986,63.905524 2533.5178,65.399956 2529.5376,68.007935 2528.4143,67.226506 2531.5055,64 2533.0863,62.35 2534.9887,61 2535.7331,61 2537.6996,61 2543.0055,65.149941 2543.0055,66.688058 2543.0055,68.489095 2541.9832,68.292952 2538.7327,65.868275 z M 2530.5486,76.06974 C 2530.0152,75.206697 2535.3713,71.007476 2537.0055,71.007476 2538.2746,71.007476 2544.0055,75.082831 2544.0055,75.985302 2544.0055,77.516155 2541.4182,77.202255 2540.0055,75.5 2538.4162,73.584959 2536.5445,73.600745 2533.5629,75.554337 2532.0121,76.570479 2530.9684,76.748939 2530.5486,76.06974 z"/>
</svg>
