<svg xmlns="http://www.w3.org/2000/svg"
     width="29.2" height="64.0"
     viewBox="1711.0055 15.8353 37.0000 81.1647">
  <path d="M 1721.068,53.3125 1720.2243,58.53125 C 1721.6207,58.883559 1722.0003,60.929161 1722.0055,65.21875 1722.0211,78.200416 1725.9885,93 1729.443,93 1731.4432,93 1734.0234,90.183355 1735.693,86.1875 1737.0954,82.831024 1739.195,60.291661 1738.2555,58.65625 1737.9892,58.192644 1737.5537,53.206314 1737.2867,47.5625 L 1736.7867,37.28125 1740.4117,30.625 C 1742.3927,26.956123 1744.0055,23.474913 1744.0055,22.90625 1744.0055,20.785924 1742.0068,23.255304 1738.4117,29.78125 L 1734.693,36.5 1735.0993,47 C 1735.9308,68.772493 1735.3431,81.632798 1733.3493,85.65625 1730.8793,90.640231 1729.391,90.881975 1727.5993,86.59375 1724.787,79.862945 1723.6854,67.395687 1724.3805,50.4375 L 1725.0367,34.3125 1720.8493,29.15625 C 1717.1292,24.583031 1715.0055,22.895788 1715.0055,24.53125 1715.0055,24.829735 1716.8055,27.52197 1719.0055,30.5 1722.0876,34.672061 1723.0055,36.823036 1723.0055,39.875 1723.0055,42.313746 1722.7809,43.826061 1722.1617,45.125 L 1722.3493,45.34375 1721.5367,50.46875 C 1721.8309,50.759835 1721.9544,51.252382 1721.818,52.1875 1721.7705,52.512962 1721.3012,52.944591 1721.068,53.3125 z M 1722.443,20.25 C 1722.0192,20.664669 1722.5992,22.014669 1723.7243,23.25 1724.8493,24.485331 1726.2736,26.5125 1726.9117,27.75 1727.5498,28.9875 1728.4018,30 1728.818,30 1729.9762,30 1738.4425,21.124474 1737.8493,20.53125 1737.5627,20.244705 1735.5637,21.51482 1733.4117,23.375 L 1729.5055,26.75 1726.3493,23.125 C 1724.6145,21.127335 1722.8668,19.835331 1722.443,20.25 z"/>
</svg>
