<svg xmlns="http://www.w3.org/2000/svg"
     width="64.0" height="60.5"
     viewBox="1056.9782 18.9911 94.0273 88.8869">
  <path d="M 1146.943,46.3125 C 1146.8196,46.953979 1146.5899,49.042714 1146.5055,49.25 1146.1161,50.206529 1144.008,51.472789 1141.818,52.0625 1139.628,52.652211 1135.6948,54.446239 1133.068,56.0625 1130.4413,57.67876 1127.3588,59 1126.2243,59 1125.0898,59 1122.0899,57.425 1119.568,55.5 1117.0462,53.575 1114.3701,52 1113.5993,52 1112.8284,52 1109.3362,53.34617 1105.8493,55 L 1099.5055,58 1099.193,55.5625 C 1098.7109,51.76369 1100.8712,41.543424 1102.2555,41.09375 1105.4428,40.058415 1109.7834,33.96747 1110.1617,30 1110.7265,24.077519 1109.6908,22.991138 1106.318,26.09375 1102.4192,29.680318 1096.6383,33 1094.2867,33 1092.0354,33 1089.9124,30.852311 1087.8493,26.5 1086.6691,24.010466 1085.9312,23.542552 1083.4743,23.8125 1076.2913,24.601708 1068.81,33.709404 1070.8805,39.125 1072.6617,43.784142 1075.7123,45.486663 1082.3493,45.53125 L 1088.5055,45.59375 1088.2867,51.40625 C 1088.1743,54.612733 1087.895,57.422914 1087.6617,57.65625 1087.4284,57.889587 1084.9267,56.729609 1082.0993,55.0625 1073.6525,50.082077 1067.5629,51.024493 1064.068,57.875 1061.6662,62.583038 1060.9782,68.888768 1062.2243,74.75 1063.0925,78.834294 1065.6393,80.656964 1066.4117,77.75 1066.5945,77.0625 1067.2852,74.242897 1067.943,71.5 1069.184,66.325565 1071.3987,63 1073.5993,63 1074.3006,63 1077.2147,65.160062 1080.0993,67.8125 1086.3711,73.579495 1086.2443,74.600748 1078.5367,79.53125 1073.0683,83.029376 1071.5301,86.016663 1073.8805,88.5625 1074.3629,89.085 1075.5401,91.975 1076.5055,95 1077.4709,98.025 1078.7564,101.09794 1079.3493,101.84375 1080.2243,102.94419 1080.8472,102.71346 1082.7243,100.53125 1084.6956,98.239477 1084.9458,97.150187 1084.4117,93.125 1083.8143,88.621579 1083.9742,88.233169 1087.443,85.1875 1089.4438,83.430745 1091.3934,82.034888 1091.7867,82.0625 1092.1802,82.090111 1093.7266,84.677842 1095.2243,87.84375 1100.8322,99.698239 1108.338,103.87808 1114.693,98.6875 1119.5599,94.712343 1125.0112,92 1128.1305,92 1129.8771,92 1130.8651,91.581838 1130.5055,91 1128.8346,88.296432 1121.5576,90.630107 1115.7555,95.71875 1113.5485,97.65439 1110.9266,99 1109.3805,99 1105.9736,99 1100.8411,93.597734 1096.9743,85.9375 1095.362,82.743765 1093.6506,79.895809 1093.1617,79.59375 1091.7878,78.744575 1083.0431,86.01569 1082.4117,88.53125 1082.1031,89.761439 1081.9806,92.234767 1082.1617,94.03125 1082.7004,99.371443 1080.6628,98.42705 1078.2555,92.21875 1077.0205,89.033726 1076.0055,85.944274 1076.0055,85.34375 1076.0055,84.190637 1081.4662,79.753918 1084.0367,78.8125 1084.8707,78.507093 1086.151,77.077591 1086.9117,75.65625 1088.2034,73.242562 1088.0866,72.820458 1084.9117,69.21875 1080.7671,64.517003 1075.7161,61 1073.0993,61 1071.011,61 1067.867,64.822913 1065.5367,70.1875 L 1064.0993,73.5 1064.0367,68.1875 C 1063.9775,60.171172 1067.718,54.102111 1072.7555,54.03125 1075.4468,53.993393 1083.4068,57.592122 1085.068,59.59375 1087.0575,61.990877 1089.7954,61.278397 1090.4743,58.1875 1091.111,55.288369 1090.3888,43.070729 1089.5367,42.21875 1089.2736,41.955566 1087.6704,42.297444 1085.9743,43 1081.2781,44.945222 1075.2849,42.87385 1073.5055,38.6875 1072.3174,35.892374 1072.3604,35.127707 1073.8805,32.5 1075.6812,29.387138 1081.3452,25 1083.568,25 1084.2704,25 1085.9143,26.873851 1087.193,29.15625 1091.2043,36.316188 1092.5227,36.578783 1100.4117,31.96875 1104.1618,29.777371 1107.4165,28 1107.6305,28 1107.8445,28 1108.0055,29.028628 1108.0055,30.28125 1108.0055,33.530385 1105.2624,36.997903 1101.443,38.59375 1098.2977,39.907953 1098.1516,40.240766 1097.5367,46.71875 1097.1832,50.442671 1096.6658,54.737046 1096.3805,56.25 1095.5766,60.512914 1098.2966,60.798954 1105.193,57.15625 1108.4712,55.42466 1111.8406,54 1112.693,54 1113.5454,54 1115.7509,55.314628 1117.5993,56.9375 1121.8741,60.690778 1126.8598,61.726028 1130.6617,59.625 1137.5688,55.808255 1145.568,52.234166 1146.2555,52.65625 1146.3226,52.697417 1146.3498,52.908641 1146.4117,53 L 1147.0055,46.65625 1146.943,46.3125 z M 1146.0055,57.625 C 1144.9758,58.682271 1142.9698,59.851124 1138.7555,61.875 1134.218,64.05407 1129.528,66.118237 1128.318,66.46875 1125.8176,67.19305 1121.4188,65.209314 1118.5993,62.09375 1115.9596,59.176959 1114.6527,59.400865 1106.2867,64.1875 1101.4115,66.976855 1098.7617,69.168572 1098.3805,70.6875 1097.6068,73.770149 1101.3927,85.80964 1104.2555,89.34375 1108.0893,94.076612 1113.532,93.2526 1122.9117,86.46875 1126.8062,83.652162 1129.2246,83.354105 1131.0055,85.5 1132.5896,87.408771 1134.0055,87.421442 1134.0055,85.53125 1134.0055,83.769733 1130.9617,82 1127.943,82 1126.7387,82 1123.0501,83.8 1119.7555,86 1116.461,88.2 1112.7752,90 1111.568,90 1107.4733,90 1104.664,86.266587 1101.4743,76.65625 L 1099.5367,70.8125 1102.0055,68.8125 C 1103.3697,67.707841 1106.628,65.706418 1109.2555,64.375 1113.0044,62.475285 1114.4811,62.167412 1116.0367,63 1117.127,63.583522 1118.0055,64.400435 1118.0055,64.8125 1118.0055,66.136466 1123.7271,69 1126.3805,69 1127.7936,69 1131.9971,67.501108 1135.7243,65.6875 1141.6736,62.792507 1144.2503,61.050671 1145.2555,62.6875 L 1145.6617,61.34375 1146.0055,57.625 z"/>
</svg>
