<svg xmlns="http://www.w3.org/2000/svg"
     width="38.6" height="64.0"
     viewBox="1872.8286 15.0000 51.8644 85.9205">
  <path d="M 1918.9117,46.21875 1919.0055,46 1919.4117,42.21875 1914.443,37 C 1911.4771,33.890506 1907.8925,30.742329 1906.5055,30 1904.2256,28.779861 1903.7514,28.905208 1901.4117,31.09375 1899.9885,32.425254 1896.3175,36.812447 1893.2555,40.875 1888.6819,46.943056 1887.9045,48.549461 1888.8493,49.875 1892.3941,54.849245 1895.0819,61.721064 1896.068,68.1875 1896.7362,72.568785 1897.9458,76.303533 1899.0367,77.5 1900.0398,78.6 1901.5862,81.404622 1902.5055,83.71875 1903.8971,87.221674 1903.9973,88.526193 1903.0055,91.53125 1902.3503,93.516473 1902.0728,95.411018 1902.4117,95.75 1903.5823,96.920451 1905.1714,94.215104 1905.7243,90.09375 1906.1978,86.562688 1905.7521,85.112427 1902.693,80.15625 1900.2808,76.248108 1898.7652,72.266483 1898.068,67.9375 1897.4986,64.401626 1895.6956,58.744322 1894.0367,55.375 1892.3781,52.005678 1891.0055,48.737242 1891.0055,48.09375 1891.0055,46.990912 1895.8355,40.168205 1901.318,33.53125 L 1903.7867,30.53125 1908.6305,34.875 C 1914.5155,40.129468 1917.5094,43.418248 1918.9117,46.21875 z M 1920.1305,35.21875 1920.693,29.8125 C 1919.9576,29.658353 1916.7211,27.426374 1913.0993,24.5 1909.3553,21.475 1905.5811,19 1904.7243,19 1903.8672,19 1901.6814,20.652236 1899.8493,22.6875 1898.0172,24.722765 1893.5346,29.560265 1889.9117,33.4375 1878.3143,45.849345 1878.0828,46.845373 1883.5993,60 1888.7046,72.173806 1888.7508,72.551331 1885.2243,74.375 1881.1022,76.506604 1876.8286,81.821647 1877.193,84.375 1877.5671,86.995726 1881.1773,87.703234 1883.318,85.5625 1884.1723,84.708231 1885.5964,84 1886.4743,84 1888.5297,84 1890.3047,88.708305 1889.5993,92.25 1889.1999,94.254638 1889.4616,95 1890.5367,95 1892.8768,95 1892.7848,88.40232 1890.3805,83.75 1888.7039,80.505715 1886.0268,80.214014 1883.5055,83 1881.1918,85.556602 1880.0055,85.525667 1880.0055,82.9375 1880.0055,80.251408 1884.4763,76.202542 1887.8493,75.8125 1890.2718,75.532356 1890.4974,75.155948 1890.2867,71.65625 1890.1591,69.537174 1889.1466,66.327093 1888.0367,64.53125 1886.9269,62.735406 1886.0089,60.635081 1886.0055,59.875 1886.0022,59.114919 1885.3691,57.287952 1884.5993,55.8125 1882.2801,51.367483 1881.7706,47.330059 1883.193,44.625 1883.9165,43.249074 1887.0752,39.28422 1890.2243,35.8125 1893.3732,32.340779 1897.7211,27.490617 1899.8805,25.03125 1903.5271,20.878292 1903.9809,20.642978 1906.1617,21.84375 1907.4534,22.554843 1911.2649,25.689226 1914.6305,28.8125 1918.308,32.22515 1919.6575,33.667525 1920.1305,35.21875 z M 1895.8805,81.65625 C 1895.4267,81.537326 1895.4395,82.571948 1895.7555,85.375 1896.0828,88.279186 1895.8211,90.52365 1895.0367,91.46875 1894.3541,92.291185 1894.0969,93.780496 1894.4743,94.75 1895.0966,96.348701 1895.3259,96.291831 1897.068,94.15625 1898.5681,92.317257 1898.8632,90.893676 1898.3805,87.65625 1898.0405,85.376336 1897.2017,82.900436 1896.5055,82.15625 1896.2481,81.881116 1896.0318,81.695891 1895.8805,81.65625 z"/>
</svg>
