<svg xmlns="http://www.w3.org/2000/svg"
     width="53.7" height="64.0"
     viewBox="240.6976 19.5386 58.3079 69.4654">
  <path d="M 268.52709,82.25 C 268.93166,81.2875 269.46997,79.551796 269.72334,78.392881 270.2725,75.880989 266.5552,66.807461 264.04701,64.53758 262.39703,63.044371 261.9449,63.230988 257.55717,67.216277 254.3553,70.124466 252.61369,72.621936 252.13341,74.993962 251.16768,79.763528 248.7621,79.981312 247.12269,75.447599 244.69755,68.74098 248.96665,57.343301 255.44044,53.240807 259.47399,50.684714 259.58049,50.33114 257.51164,46.364307 254.66256,40.90144 256.06011,25.960485 259.54528,24.623101 262.37152,23.538571 269.48092,27.849436 274.00548,33.391202 276.48048,36.422631 279.02993,38.92474 279.67092,38.951445 280.31191,38.97815 283.40918,36.069509 286.55375,32.487798 293.10152,25.029788 295.00548,25.083723 295.00548,32.727218 295.00548,38.704943 291.03848,46.440329 285.37809,51.5 L 280.90319,55.5 280.31222,65.603151 C 279.8986,72.674304 280.064,75.918136 280.86337,76.412168 282.23577,77.26036 282.37932,79 281.07691,79 280.56619,79 279.43861,78.290277 278.57117,77.422838 277.36113,76.212796 277.11638,74.525194 277.51971,70.172838 278.91991,55.06323 278.99962,54.804554 283.72874,50.022845 290.46124,43.215473 294.29344,34.358674 291.95964,31 291.07446,29.726092 290.66321,29.87682 289.23123,32 285.88224,36.965484 281.20275,40.999937 278.85548,40.945508 277.18973,40.906883 275.60884,39.523816 273.42607,36.195508 267.91074,27.78571 259.7473,24.196189 258.39453,29.586044 257.15327,34.531615 258.61887,44.959572 260.89585,47.383309 263.9658,50.651116 263.55984,51.685393 258.1266,54.438625 252.37942,57.350938 248.00548,63.82878 248.00548,69.42807 248.00548,73.773085 249.18728,73.957795 251.97136,70.047919 254.04773,67.131918 262.22781,61 264.04142,61 265.47391,61 269.62608,67.908436 271.57864,73.540511 273.2464,78.351109 273.24513,78.70461 271.55079,81.290511 269.57654,84.303598 267.36951,85.003937 268.52709,82.25 z"/>
</svg>
