<svg xmlns="http://www.w3.org/2000/svg"
     width="35.2" height="64.0"
     viewBox="1201.4968 19.7847 48.2208 87.5935">
  <path d="M 1213.0596,98.834905 C 1207.3177,94.932966 1205.4968,90.722736 1205.5625,81.5 1205.6201,73.409965 1206.2853,71.385371 1211.3951,63.75 1213.1335,61.15237 1213.1418,60.857037 1211.5449,58.419772 1205.825,49.690172 1206.2493,30.507406 1212.2759,25.370919 1213.4832,24.341914 1213.9749,24.175 1213.3686,25 1211.4678,27.586271 1209.8972,33.668947 1209.4874,40.031187 1209.0587,46.686769 1211.362,54.640906 1215.0905,59.380928 L 1217.0939,61.927844 1214.9646,63.213922 C 1213.7934,63.921265 1211.7485,66.62254 1210.4204,69.216756 1208.4942,72.978956 1208.0055,75.468107 1208.0055,81.516416 1208.0055,86.255421 1208.5606,90.172703 1209.4855,91.961364 1214.652,101.95223 1226.2813,101.20857 1231.1092,90.578599 1233.4071,85.518947 1233.4596,82.249666 1231.3628,74.776567 1229.2939,67.403295 1230.1129,65.369305 1236.9289,60.952714 1241.6986,57.86202 1243.3338,54.938978 1241.0743,53.542494 1240.5621,53.225947 1238.4743,54.09939 1236.4347,55.483477 1230.4065,59.574335 1227.77,58.646772 1226.5332,52 1225.2548,45.129302 1229.8997,25.145409 1233.0055,24.153709 1234.1611,23.784712 1234.2571,23.999058 1233.4233,25.087379 1232.3757,26.454892 1231.3418,30.855863 1229.0775,43.585678 1227.681,51.436608 1229.0716,56.429658 1232.3647,55.388833 1233.5422,55.0167 1235.898,53.651976 1237.5999,52.356114 1241.525,49.367509 1242.223,49.407318 1243.7555,52.707167 1245.7176,56.932162 1245.3764,57.612075 1239.0758,62.031698 1235.8145,64.319388 1232.9067,66.815202 1232.614,67.577952 1232.3213,68.340703 1232.7433,70.839695 1233.5518,73.131269 1235.5369,78.757462 1235.6147,86.929363 1233.7178,90.55404 1228.9342,99.694807 1219.7453,103.37821 1213.0596,98.834905 z M 1220.1507,56.674988 C 1217.775,53.81242 1216.6107,45.224456 1217.7604,39.04278 1219.0211,32.263395 1222.4013,24 1223.9137,24 1224.4751,24 1224.0164,26.1375 1222.8943,28.75 1219.5097,36.630207 1219.3367,48.597413 1222.4968,56.25 1223.3455,58.305152 1221.7444,58.595192 1220.1507,56.674988 z"/>
</svg>
