<svg xmlns="http://www.w3.org/2000/svg"
     width="64.0" height="48.5"
     viewBox="0.3198 21.5605 42.0190 31.8586">
  <path d="M 38.245059,34.172421 38.338809,30.672421 C 38.017749,30.892379 37.62233,31.073006 37.229434,31.156796 36.461279,31.320614 35.240614,31.778012 34.510684,32.172421 31.717256,33.681816 27.918953,32.41725 25.776309,29.266171 25.262619,28.510712 24.461903,27.891962 24.010684,27.891171 23.001042,27.889402 20.113719,29.19427 16.948184,31.078671 15.060503,32.202383 14.416932,32.373628 13.854434,31.906796 13.463606,31.582438 13.263052,31.017088 13.401309,30.656796 13.747949,29.753467 12.29149,26.435891 11.401309,26.094296 10.010131,25.560451 7.6233791,27.356193 6.3388091,29.891171 4.3197991,33.875495 4.5630201,37.467338 7.2138091,42.922421 9.4275441,47.478084 11.357788,49.419067 12.510684,48.266171 13.407163,47.369692 13.196276,46.489666 11.901309,45.641171 10.10919,44.46693 7.5194381,38.955719 7.4013091,36.078671 7.3094051,33.840345 8.0835931,31.113001 9.2919341,29.469296 10.109041,28.357787 11.088809,30.256811 11.088809,32.953671 11.088809,36.569311 11.753302,37.913274 16.026309,42.922421 17.359157,44.484888 17.860917,44.792781 18.401309,44.344296 19.348744,43.557996 19.258972,42.5724 18.166934,41.797421 17.660577,41.438078 16.957442,40.578671 16.604434,39.891171 16.251427,39.203671 15.523881,38.145813 14.979434,37.547421 14.434988,36.949028 14.123175,36.242354 14.291934,35.969296 14.603529,35.465124 20.53581,31.964559 22.291934,31.250546 23.001845,30.961907 23.653646,31.2341 24.791934,32.313046 27.265142,34.657319 29.084252,35.350371 32.291934,35.156796 33.871069,35.061499 35.830933,34.699731 36.651309,34.359921 37.396271,34.051347 37.870178,34.019501 38.245059,34.172421 z"/>
</svg>
