<svg xmlns="http://www.w3.org/2000/svg"
     width="64.0" height="55.5"
     viewBox="576.8303 16.2404 94.1751 81.7035">
  <path d="M 665.38048,57.875 665.66173,56 666.06798,52.75 C 664.59029,54.577981 651.53916,61 649.22423,61 648.09603,61 644.93055,59.875 642.19298,58.5 635.45608,55.116245 630.89502,55.232166 626.81798,58.875 623.94408,61.442823 623.56593,62.41132 623.25548,68.125 622.74933,77.440298 626.0393,82.074856 634.09923,83.4375 637.10379,83.945464 638.30052,83.553398 641.47423,81.03125 645.9896,77.442888 648.08126,77.263091 652.03673,80.1875 656.07011,83.169508 655.91344,85.028637 651.69298,84.34375 649.64915,84.012082 646.89266,84.47182 644.44298,85.5625 637.95851,88.449591 633.61087,89.984024 631.75548,90 630.79372,90.008281 627.28622,87.88449 623.97423,85.3125 L 617.97423,80.65625 614.72423,83.71875 C 609.97048,88.21756 607.41884,89.256193 602.94298,88.5 600.78703,88.135756 598.75332,87.408393 598.44298,86.90625 597.495,85.372373 590.3497,85.867511 588.94298,87.5625 587.81177,88.925525 587.96384,89.043791 590.13048,88.5 591.49686,88.157061 594.62581,88.58715 597.06798,89.4375 603.89234,91.813704 608.10327,91.432547 612.75548,88.0625 614.98309,86.448827 617.11431,84.644855 617.47423,84.0625 617.86097,83.436726 619.99238,84.86885 622.69298,87.53125 629.05377,93.802059 630.55572,93.943971 640.59923,89.46875 647.80982,86.255831 649.43628,85.886722 651.53673,86.84375 652.89266,87.461555 654.00548,88.406959 654.00548,88.96875 654.00548,89.530542 654.70591,90 655.56798,90 656.68029,90 656.95595,89.419321 656.50548,88 656.05501,86.580679 656.33067,86 657.44298,86 659.97861,86 659.25959,84.258735 654.78673,79.40625 651.19633,75.511127 650.1815,74.921045 647.75548,75.40625 646.19283,75.718781 643.44459,77.085061 641.63048,78.46875 637.21105,81.839616 633.02404,81.734997 629.19298,78.15625 624.02545,73.32906 623.63636,62.784123 628.50548,59.59375 631.96371,57.327833 634.13423,57.58916 640.34923,61 643.35576,62.65 646.74192,64 647.88048,64 649.01904,64 652.87774,62.425 656.44298,60.5 660.00823,58.575 663.58027,57 664.38048,57 664.75654,57 665.0732,57.410522 665.38048,57.875 z M 666.47423,49.46875 667.00548,45.34375 667.00548,45.125 C 666.5373,46.222452 665.95262,47 665.22423,47 664.33312,47 659.9385,48.397031 655.44298,50.09375 L 647.25548,53.15625 643.19298,51.09375 C 640.96064,49.95489 638.85026,48.557859 638.50548,48 637.44402,46.282523 630.67015,46.904124 627.50548,49 622.52875,52.295956 622.00548,51.784576 622.00548,43.625 622.00548,32.664475 622.70741,30.231241 626.03673,29.5 628.09158,29.04868 630.27043,29.688482 634.25548,31.9375 637.23719,33.620275 640.15615,35 640.75548,35 642.30493,35 643.32048,29.490271 642.53673,25.3125 641.90609,21.950873 641.69193,21.800483 638.53673,22.3125 636.70844,22.609192 632.67343,24.030889 629.56798,25.5 623.45816,28.390407 623.25629,28.369112 618.22423,23.3125 615.16707,20.240426 611.27977,20.370895 607.81798,23.6875 604.10776,27.242118 602.20617,27.391151 597.97423,24.46875 596.03557,23.129987 593.04109,21.750874 591.31798,21.40625 587.22319,20.587293 585.52834,23.400739 586.44298,29.5 587.61548,37.318779 592.01986,38.658634 596.66173,32.625 597.90954,31.003052 599.87061,30.065183 602.69298,29.71875 606.49217,29.252415 606.94659,29.43585 607.88048,31.84375 609.878,36.994102 610.99998,42.568711 611.00548,47.34375 L 611.00548,52.15625 606.75548,49.78125 C 604.41798,48.462637 601.52785,46.737203 600.31798,45.96875 593.81942,41.841159 583.61935,56.6332 586.94298,65.375 588.25894,68.836238 589.48516,68.696266 591.06798,64.875 592.42111,61.608267 596.70457,55.997604 597.84923,56 598.21284,56.000762 600.33004,57.688262 602.56798,59.75 607.82785,64.59576 609.93094,71.819022 607.66173,77.25 606.85854,79.172305 605.77571,81.022228 605.25548,81.34375 603.66197,82.328594 597.4736,80.133229 594.41173,77.5 592.81751,76.12896 590.87122,75.000672 590.09923,75 588.3584,74.998486 580.83034,83.005826 581.28673,84.375 581.95208,86.371032 583.78068,86.019642 584.41173,83.78125 584.76736,82.519795 586.33317,80.519209 587.88048,79.3125 L 590.69298,77.125 594.22423,79.625 C 598.99737,83.021136 604.30786,84.176936 606.88048,82.375 609.89731,80.261933 611.31787,74.689639 610.50548,68.1875 609.88764,63.242496 609.24284,61.973489 605.41173,58.25 602.98736,55.893733 600.08004,54 598.88048,54 597.61806,54 595.08828,55.730925 592.84923,58.15625 L 589.00548,62.34375 589.00548,59.09375 C 589.00548,53.616962 593.65462,46.984534 597.44298,47.03125 598.58461,47.045328 601.97472,48.620328 604.97423,50.53125 610.98484,54.360469 612.50794,54.723604 613.34923,52.53125 614.66702,49.097144 612.28731,36.336265 609.19298,30.25 607.93528,27.776221 607.80261,26.564608 608.63048,25.25 610.34903,22.521036 612.66144,22.641639 616.53673,25.6875 L 620.09923,28.5 619.44298,37.71875 C 618.27882,53.732923 619.92046,56.727163 627.00548,51.5 631.43008,48.235636 634.19491,48.346229 639.50548,52 644.78743,55.634081 647.12213,55.717209 654.25548,52.5625 660.25778,49.908001 664.99989,48.766432 666.47423,49.46875 z M 590.25548,23 C 590.78069,23.004647 591.49265,23.350726 592.72423,24.03125 596.05318,25.870705 596.82683,29.459627 594.44298,32.09375 593.48854,33.148394 592.37164,34 591.97423,34 589.5102,34 587.24603,26.540265 588.94298,24 589.38768,23.334306 589.73027,22.995353 590.25548,23 z M 638.81798,24.15625 C 639.96376,24.091231 640.00548,24.920856 640.00548,27.90625 640.00548,30.165874 639.66798,31.972362 639.25548,31.9375 637.51446,31.790358 634.33306,30.123708 633.19298,28.75 631.70234,26.953887 633.06312,25.520966 637.25548,24.46875 637.92022,24.30191 638.43605,24.177923 638.81798,24.15625 z"/>
</svg>
