<svg xmlns="http://www.w3.org/2000/svg"
     width="29.1" height="64.0"
     viewBox="1163.1620 16.8467 39.6389 87.0908">
  <path d="M 1172.4743,99.9375 C 1174.7804,99.583956 1177.0109,97.483071 1180.443,93.4375 1183.5024,89.831201 1186.0123,86.118701 1186.0055,85.1875 1185.9987,84.256299 1186.1726,76.525 1186.4117,68 1186.9831,47.643133 1188.593,39.803057 1193.8805,31.6875 1197.9951,25.372134 1198.8009,23.529578 1197.1305,24.15625 1195.344,24.826487 1187.0939,37.971214 1186.068,41.78125 1184.634,47.10652 1183.2714,68.779191 1183.7867,78.03125 L 1184.193,85.5625 1179.568,90.71875 C 1176.3779,94.266841 1174.1399,96.109516 1171.9117,96.5 L 1172.4743,99.9375 z M 1170.568,88.21875 C 1171.4525,87.523444 1172.6103,86.435711 1173.8805,84.90625 1177.0825,81.050963 1177.23,80.465461 1177.0367,73.65625 1176.9249,69.711902 1176.699,64.925 1176.5367,63 1176.1897,58.885334 1177.5739,43.210058 1178.4743,40.9375 1178.8701,39.938372 1177.0335,36.541637 1173.443,31.625 1170.3362,27.37086 1167.599,24.062731 1167.3805,24.28125 1167.162,24.499768 1169.2841,28.100939 1172.068,32.28125 1176.9792,39.655752 1177.09,39.994332 1176.0367,43.90625 1175.4344,46.142988 1175.0048,55.375127 1175.068,64.625 L 1175.1617,81.28125 1172.3493,83.5625 1170.0993,85.375 1170.568,88.21875 z M 1172.8493,20.96875 C 1171.8597,20.84669 1173.1074,23.945411 1176.693,28.75 1178.0269,30.5375 1179.8997,32 1180.8493,32 1183.0611,32 1193.0855,23.092681 1190.943,23.03125 1190.0834,23.006603 1188.0863,24.35 1186.5055,26 1182.6883,29.984317 1180.7953,29.785059 1177.0055,25 1174.8412,22.267354 1173.443,21.041986 1172.8493,20.96875 z"/>
</svg>
