<svg xmlns="http://www.w3.org/2000/svg"
     width="32.0" height="64.0"
     viewBox="2086.5993 13.2731 41.6740 83.3125">
  <path d="M 2090.943,24.90625 C 2091.018,24.807646 2091.051,24.653902 2091.1305,24.5625 2094.6485,20.516438 2100.0737,18.653984 2104.7243,19.90625 2107.9813,20.783282 2109.1652,21.81568 2111.0367,25.34375 L 2113.3493,29.71875 2111.0993,33.34375 C 2109.8603,35.348589 2108.417,37 2107.9117,37 2107.4066,37 2107.0055,37.7596 2107.0055,38.6875 2107.0055,40.00649 2107.6601,39.747074 2110.0055,37.5 L 2113.0055,34.625 2113.0055,38.8125 C 2113.0055,42.348894 2112.4329,43.514661 2109.2555,46.46875 2107.193,48.386271 2106.0103,49.953869 2106.6305,49.96875 2107.2506,49.983632 2108.3208,49.325 2109.0055,48.5 2111.3615,45.661143 2113.0055,46.737753 2113.0055,51.125 2113.0055,54.439041 2112.3148,56.015412 2109.5055,59.125 2107.5805,61.255745 2106.0194,63.564084 2106.0367,64.25 2106.0542,64.935915 2107.143,64.2625 2108.4743,62.75 2111.9408,58.811563 2113.0055,59.298933 2113.0055,64.875 2113.0055,69.304203 2112.6359,70.095149 2109.0055,73.375 2106.8039,75.363999 2105.6212,77 2106.3805,77 2107.1397,77 2108.3368,76.312068 2109.0367,75.46875 2113.3964,70.215732 2113.2743,80.616788 2108.9117,86.125 2105.6052,90.299948 2105.4002,91 2107.5055,91 2108.3305,91 2109.0055,90.355041 2109.0055,89.5625 2109.0055,86.851872 2111.1725,86.781846 2113.9117,89.40625 2117.2303,92.585633 2118.6669,91.747637 2116.0993,88.125 2114.7331,86.197633 2114.321,84.117492 2114.5367,80.1875 2114.8731,74.06634 2115.3525,73.21318 2117.5055,75 2118.3571,75.706751 2119.391,75.958192 2119.7867,75.5625 2120.1824,75.166808 2119.0359,73.657683 2117.2555,72.1875 2114.3518,69.789635 2114.0705,69.113931 2114.6305,65.75 2115.3073,61.683615 2116.0774,61.176734 2118.0055,63.5 2119.5912,65.410712 2121.0055,65.426138 2121.0055,63.53125 2121.0055,62.722716 2119.6555,61.063648 2118.0055,59.84375 2115.378,57.901142 2115.0055,57.004138 2115.0055,52.6875 2115.0055,47.330726 2114.5354,47.57066 2121.2555,49.6875 2124.2733,50.638112 2123.1178,48.61897 2118.9743,45.6875 2115.6776,43.355103 2115.0055,42.29747 2115.0055,39.5 2115.0055,35.157152 2116.13,34.536902 2119.3805,37.09375 2123.4775,40.316441 2122.4536,37.356395 2118.0055,33.125 2115.8055,31.03219 2114.0055,28.443436 2114.0055,27.375 2114.0055,24.050797 2108.8671,18.965774 2104.5367,18 2101.2775,17.273106 2099.7387,17.514962 2095.7867,19.40625 2092.2173,21.114533 2091.0055,21.35167 2091.0055,20.34375 2091.0055,19.599025 2090.8293,19 2090.5993,19 L 2090.943,24.90625 z"/>
</svg>
