<svg xmlns="http://www.w3.org/2000/svg"
     width="28.7" height="64.0"
     viewBox="1610.1748 14.4139 38.2685 85.4201">
  <path d="M 1639.7243,46.625 C 1639.2296,45.136704 1638.8296,43.230624 1638.568,40.5 1637.9314,33.853201 1638.0385,33.262053 1640.943,28.71875 1644.2278,23.580513 1644.4433,23 1643.1617,23 1642.705,23 1640.95,24.921752 1639.2555,27.28125 L 1636.193,31.59375 1636.7243,53.53125 C 1637.2917,76.934426 1636.4262,85.555984 1633.1305,90 1628.8041,95.833984 1624.5962,90.758278 1623.5993,78.5 1622.9471,70.481267 1624.5444,51.985371 1626.5367,44.28125 1628.472,36.797894 1627.7051,34.202667 1621.818,28.5 1615.366,22.250175 1614.1748,24.146039 1620.443,30.6875 1625.3228,35.780046 1626.2231,39.647677 1623.9743,45.5625 1623.4135,47.037601 1622.4524,53.737701 1621.818,60.46875 1620.3349,76.205718 1621.6195,88.89169 1625.068,92.5625 1627.7584,95.4263 1631.1065,95.712651 1633.0993,93.25 1637.489,87.824872 1638.3968,84.56299 1638.818,72.75 1639.1188,64.315049 1639.4382,61.271363 1640.943,61.1875 L 1640.5367,56.5 C 1639.5474,55.508823 1639.0055,54.671878 1639.0055,54 1639.0055,52.628722 1639.2401,52.110075 1640.193,52.34375 L 1639.7243,46.625 z M 1635.7867,20.1875 C 1634.5592,20.398353 1632.6959,21.71824 1631.943,23.125 1630.5403,25.746016 1628.0994,25.456221 1624.818,22.3125 1620.7488,18.413903 1620.0158,20.383648 1624.0055,24.5 1625.8633,26.416761 1627.8634,27.983632 1628.443,27.96875 1629.7436,27.935357 1637.3287,20.979426 1636.7243,20.375 1636.5167,20.167429 1636.1959,20.117216 1635.7867,20.1875 z"/>
</svg>
