<svg xmlns="http://www.w3.org/2000/svg"
     width="25.1" height="64.0"
     viewBox="2068.0055 15.0000 33.1562 84.6080">
  <path d="M 2090.943,24.90625 2090.5993,19 C 2088.8431,19 2086.7253,20.709919 2084.943,23.59375 2082.4149,27.684312 2081.6955,27.809771 2080.1305,24.375 2079.4716,22.928926 2078.6717,21.990146 2078.3493,22.3125 2078.0269,22.634854 2078.1038,23.732529 2078.5367,24.71875 2078.9697,25.70497 2079.3642,26.789583 2079.4117,27.15625 2079.4592,27.522916 2079.843,28.18125 2080.2555,28.59375 2081.4331,29.771368 2081.1404,32.423669 2079.5993,34.53125 2078.2159,36.423047 2078.1504,36.450081 2076.0993,34.59375 2072.9402,31.734877 2073.3318,35.018442 2076.5055,38 2078.0669,39.466824 2079.0055,41.454791 2079.0055,43.28125 L 2079.0055,46.1875 2075.5055,44.125 C 2073.0658,42.685546 2072.0055,42.450032 2072.0055,43.34375 2072.0055,44.048924 2073.8055,45.638531 2076.0055,46.875 2078.5206,48.288579 2080.0055,49.84517 2080.0055,51.0625 2080.0055,53.11868 2078.5375,53.669797 2077.5055,52 2077.1656,51.45 2076.348,51.012952 2075.693,51.03125 2074.1135,51.075371 2078.8727,55 2080.5055,55 2081.2023,55 2082.3388,55.69019 2083.0367,56.53125 2084.0759,57.783301 2083.9647,58.777023 2082.4117,62.0625 2080.6192,65.854827 2080.3187,66.057352 2077.068,65.46875 2074.0133,64.915621 2073.7778,65.00225 2074.943,66.40625 2075.6646,67.275732 2076.8729,68 2077.6305,68 2079.187,68 2079.259,68.482689 2078.3805,72.875 2077.8544,75.505435 2077.3005,76 2074.8805,76 2073.2993,76 2072.0055,76.45 2072.0055,77 2072.0055,77.55 2072.8478,78 2073.8805,78 2076.4608,78 2077.8944,79.997126 2078.2243,84.0625 2078.4804,87.218969 2078.2973,87.505971 2075.7555,87.46875 2074.2356,87.446492 2073.1531,87.896492 2073.3493,88.46875 2073.5452,89.041007 2075.0199,89.5 2076.6305,89.5 2078.4465,89.5 2080.6896,90.563773 2082.5367,92.28125 2086.1145,95.607956 2088.6215,95.464336 2088.2555,91.96875 2087.0556,80.506995 2089.4197,68.857344 2094.5367,61.125 L 2097.1617,57.15625 2094.5055,52.59375 C 2088.9247,43.070662 2087.2637,29.74386 2090.943,24.90625 z M 2089.4743,22.25 C 2089.8006,22.66318 2089.535,24.009188 2088.5055,26 2085.3727,32.058196 2086.7641,44.153921 2091.5993,52.90625 L 2094.0367,57.28125 2092.0055,60.71875 C 2090.8926,62.605025 2089.0148,67.110741 2087.8493,70.71875 2086.6835,74.326758 2085.4181,80.687767 2085.0367,84.875 L 2084.3493,92.5 2082.6617,88.71875 C 2081.6511,86.474119 2080.8948,82.123272 2080.818,77.96875 2080.7064,71.922985 2081.1414,70.143615 2083.9743,64.5625 L 2087.2555,58.125 2084.9117,54.34375 C 2082.9788,51.21618 2082.5602,49.169248 2082.5367,42.53125 2082.5061,33.83579 2083.9144,27.908734 2086.943,24 2088.2315,22.337063 2089.1479,21.83682 2089.4743,22.25 z"/>
</svg>
