<svg xmlns="http://www.w3.org/2000/svg"
     width="40.3" height="64.0"
     viewBox="661.3805 16.5435 52.9334 84.0625">
  <path d="M 665.38048,57.875 C 665.8414,58.571718 666.24629,59.602242 666.50548,61.25 668.81794,75.951038 674.66364,89.123442 680.66173,93.09375 682.86184,94.550059 684.69443,94.863883 688.84923,94.46875 695.86505,93.801524 699.76059,90.757057 703.78673,82.78125 709.6886,71.089593 710.31386,67.708465 709.75548,50.25 709.18111,32.291477 707.36772,25.557678 702.53673,23.15625 701.05312,22.418762 699.6608,22.000931 699.44298,22.21875 699.22517,22.436569 698.83695,30.730149 698.56798,40.65625 697.8359,67.673352 694.14807,82.074481 687.78673,82.8125 685.69479,83.055199 684.81341,82.506752 683.69298,80.3125 680.4636,73.988124 678.80158,62.569795 678.25548,42.75 677.71259,23.046333 677.16336,20.543509 674.25548,24.25 673.12271,25.693867 668.55826,38.952806 667.53673,43.75 667.41247,44.333537 667.19246,44.686694 667.00548,45.125 L 667.00548,45.34375 666.47423,49.46875 C 666.78499,49.616784 667.00906,49.806231 667.00548,50.125 666.99706,50.87371 666.65956,52.00279 666.25548,52.625 666.23757,52.652585 666.09235,52.719848 666.06798,52.75 L 665.66173,56 665.38048,57.875 z M 675.53673,26 C 675.74254,26 675.8968,33.689505 675.91173,43.09375 675.94009,60.969465 676.22554,63.972874 678.72423,73 680.80332,80.511226 682.66071,83.902804 685.41173,85.15625 688.90732,86.748951 691.803,84.670274 694.59923,78.5625 698.43382,70.186653 699.96876,58.783866 700.06798,37.75 700.11148,28.529652 700.40568,26 701.47423,26 703.66299,26 705.827,34.617446 706.78673,47.21875 707.84212,61.076115 706.85369,70.006521 703.44298,77.71875 702.0979,80.760198 701.00548,83.607852 701.00548,84.03125 701.00548,85.215069 695.76869,90.53516 693.31798,91.84375 684.39936,96.605971 675.45927,86.852791 670.69298,67.1875 668.09634,56.473984 668.06822,55.978745 669.44298,46.84375 670.65601,38.783388 674.39493,26 675.53673,26 z"/>
</svg>
