<svg xmlns="http://www.w3.org/2000/svg"
     width="64.0" height="61.5"
     viewBox="2699.3813 15.9988 63.4913 61.0012">
  <path d="M 2714.8122,71.25 C 2714.0935,70.2875 2711.7154,68.517209 2709.5275,67.31602 2704.9203,64.786574 2703.3813,62.289491 2707.1216,63.412379 2712.2005,64.937118 2712.503,64.747004 2712.5507,60 2712.5873,56.362455 2712.0516,54.949602 2709.7559,52.628205 2706.6842,49.522316 2706.8737,47.812094 2710.0684,49.807194 2711.7997,50.888407 2712.1602,50.723314 2713.0229,48.45424 2714.5609,44.408959 2714.1913,41.170298 2711.8265,37.971806 2709.2914,34.542825 2710.0754,32.848298 2712.9806,35.477476 2715.3327,37.606089 2717.1007,36.598515 2718.9817,32.057572 2719.8913,29.861491 2719.8976,28.666869 2719.0082,27.005081 2717.5143,24.213622 2718.5625,23.128424 2720.694,25.25988 2722.2151,26.78099 2722.5473,26.721903 2725.2472,24.450065 2729.2103,21.115383 2732.2146,20.539661 2735.8481,22.418624 2739.7165,24.419041 2741.4528,24.408277 2744.5719,22.364542 2748.1824,19.998848 2748.7123,21.417589 2745.1906,24.021244 L 2742.2186,26.218601 2744.862,30.626776 C 2747.3454,34.768014 2747.7138,34.998719 2750.9451,34.4366 2753.9983,33.905454 2754.2373,34.01581 2753.0726,35.419124 2752.351,36.288606 2751.1407,37 2750.3831,37 2748.7649,37 2748.7569,37.139227 2750.038,43 2752.2031,52.905011 2751.8419,52.282715 2755.0535,51.640397 2758.8726,50.876576 2758.787,51.554875 2754.7555,54.002657 2752.3757,55.447539 2751.2297,57.097521 2750.4755,60.164616 2749.2098,65.312196 2746.638,66.892306 2747.7644,61.830357 2749.1508,55.600047 2748.3667,44.774148 2746.1003,38.852906 2743.5953,32.30829 2737.1595,24.506442 2733.5103,23.590553 2730.865,22.926628 2725.0055,25.287347 2725.0055,27.017027 2725.0055,27.548144 2723.4346,30.040659 2721.5147,32.555951 2716.3722,39.292898 2714.6565,46.304662 2715.231,58.235402 2715.4936,63.689154 2716.2201,68.614642 2716.8558,69.250257 2718.2434,70.637919 2718.3735,73 2717.0622,73 2716.5434,73 2715.5309,72.2125 2714.8122,71.25 z M 2721.8508,67.75 C 2721.1297,66.425706 2720.6009,61.385751 2720.5656,55.5 2720.4992,44.451285 2722.1831,39.449726 2727.2408,35.673639 2729.8184,33.749152 2729.8652,33.750181 2733.1892,35.804544 2737.9887,38.770753 2740.4973,41.907609 2741.8356,46.61602 2743.272,51.669694 2743.3952,65 2742.0055,65 2741.4555,65 2740.9757,64.4375 2740.9392,63.75 2740.9027,63.0625 2740.7506,59.575 2740.6011,56 2740.4516,52.425 2739.5601,47.656377 2738.62,45.403061 2736.5312,40.396272 2731.7681,36.591782 2728.5878,37.38998 2726.2579,37.974759 2723.6082,42.851494 2722.5514,48.5 2722.0203,51.338567 2723.082,61.241833 2724.5615,67.25 2725.3937,70.629768 2723.599,70.960808 2721.8508,67.75 z"/>
</svg>
