<svg xmlns="http://www.w3.org/2000/svg"
     width="26.5" height="64.0"
     viewBox="358.1562 18.9981 34.3438 83.0019">
  <path d="M 386.53125 32.5 C 385.00058 32.158656 383.42471 30.525672 381.125 27.46875 C 379.27326 25.007302 377.02326 22.998146 376.125 23 C 375.22673 23.001853 371.70957 25.893569 368.3125 29.40625 L 362.15625 35.78125 L 362.5625 63.125 C 362.78538 78.172965 362.95707 91.9625 362.96875 93.75 C 362.98322 95.962779 363.47872 97 364.5 97 C 365.7992 97 366.01117 93.017476 366.03125 67.25 L 366.03125 37.5 L 370.59375 32.75 C 373.08625 30.1375 375.45251 28 375.875 28 C 377.46471 28 385 38.375128 385 40.5625 C 385 41.817624 385.5625 43.018609 386.25 43.25 C 387.19602 43.568404 387.2074 44.02465 386.34375 45.09375 C 385.60316 46.010508 384.99109 55.052032 384.5625 70.84375 C 383.94269 93.681574 384.01376 95.160065 385.65625 94.84375 C 387.70138 94.449894 387.55488 96.530456 387.8125 63.625 L 388 38.75 L 388.5 38.84375 L 386.5625 32.78125 L 386.53125 32.5 z M 375.90625 34.875 C 374.40423 34.854942 374.08805 42.034141 374.125 67.03125 C 374.16126 91.565618 374.4507 98 375.46875 98 C 376.17551 98 376.96939 96.7625 377.25 95.25 C 377.88812 91.810574 377.30628 35.993772 376.625 35.3125 C 376.3595 35.047 376.12082 34.877865 375.90625 34.875 z "/>
</svg>
