<svg xmlns="http://www.w3.org/2000/svg"
     width="63.5" height="64.0"
     viewBox="915.6121 9.6908 97.3955 98.1437">
  <path d="M 997,100.7691 C 997,98.442571 1002.8625,90 1004.478,90 1006.619,90 1006.265,91.805889 1003.1062,96.99887 1000.4318,101.39533 997,103.51429 997,100.7691 z M 978.59912,101.16037 C 978.05775,100.28442 978.34038,99.708099 988.48604,81 991.91617,74.675 996.85866,65.366992 999.46934,60.315538 1003.9831,51.58183 1007,48.113814 1007,51.658881 1007,53.143839 997.76737,72.240992 995.94426,74.527028 995.49378,75.091894 992.2924,81.166894 988.83007,88.027028 981.95632,101.64644 980.25181,103.8345 978.59912,101.16037 z M 962,100.42825 C 962,99.782227 964.17812,95.204543 977.66768,67.5 985.67607,51.052552 1003.3894,17.473836 1004.4253,16.776332 1009.0076,13.690811 1002.8052,27.950044 984.75427,62 981.10962,68.875 977.18824,76.975 976.0401,80 972.94578,88.152576 965.66757,100.44034 963.70967,100.8174 962.76935,100.99848 962,100.82337 962,100.42825 z M 940,99.773324 C 940,99.017996 940.39906,97.9725 940.88679,97.45 941.37453,96.9275 946.39292,87.5 952.03876,76.5 957.68461,65.5 963.99569,53.492562 966.06338,49.816805 968.13107,46.141047 970.13239,42.158234 970.51076,40.966109 970.88912,39.773985 972.8887,36.031422 974.95427,32.649305 977.01984,29.267187 979.9191,24.3625 981.39708,21.75 984.08818,16.993147 986,15.657073 986,18.533244 986,20.199237 982.04562,28.370803 978.52211,33.986004 977.30935,35.918702 971.09966,47.625 964.72281,60 947.57264,93.281807 943.51585,100.46543 941.66871,100.82332 940.75092,101.00115 940,100.52865 940,99.773324 z M 937.00179,68.823324 C 937.00278,68.095496 940.60054,60.525 944.99682,52 949.3931,43.475 955.04334,32.3375 957.55291,27.25 961.9893,18.25639 963.17852,16.861793 964.53696,19.059799 965.07915,19.937081 959.49273,32.513159 956.12354,38 955.61695,38.825 951.84915,46.25 947.75067,54.5 943.24826,63.563055 939.64603,69.627971 938.64943,69.823324 937.74225,70.001152 937.00081,69.551152 937.00179,68.823324 z M 920.53233,61.052309 C 919.61209,59.563329 942.46445,17.572501 944.41044,17.176676 946.93043,16.664097 946.32398,20.09758 942.95667,25.407267 941.28284,28.046622 937.44304,34.997224 934.42377,40.853048 923.6462,61.755987 922.23523,63.807658 920.53233,61.052309 z"/>
</svg>
