<svg xmlns="http://www.w3.org/2000/svg"
     width="57.1" height="64.0"
     viewBox="2357.0000 13.1974 84.0000 94.2019">
  <path d="M 2361,69.837858 C 2361,68.511669 2364.659,62.005469 2369.8621,54.079887 2371.8191,51.098824 2374.1132,47.372098 2374.9602,45.798273 2380.5,35.50357 2390.317,20.07789 2391.0432,20.526682 2391.521,20.822015 2391.5943,21.836829 2391.206,22.781825 2389.5033,26.925515 2377.8567,47.074753 2371.2427,57.319321 2368.8212,61.069948 2366.195,65.682448 2365.4066,67.569321 2364.057,70.799449 2361,72.373186 2361,69.837858 z M 2362.0037,101.25 C 2362.0071,100.57387 2363.5946,97.964363 2368,91.393223 2368.825,90.162653 2371.5666,85.633262 2374.0924,81.327911 2378.365,74.045145 2382.6222,66.826263 2393.747,48 2403.4311,31.611874 2410.5615,20.614594 2411.75,20.233812 2413.4543,19.687786 2413.3284,21.979661 2411.5459,23.949301 2410.7461,24.833032 2408.3442,28.693465 2406.2083,32.528042 2403.0218,38.248706 2398.0838,46.550223 2391.0567,58 2388.016,62.95441 2379.2136,78.76971 2378.7153,80.173889 2378.1844,81.669708 2376.5836,84.232968 2370.7618,92.909508 2369.8058,94.334279 2368.26,96.9625 2367.3266,98.75 2365.8431,101.59103 2361.993,103.39931 2362.0037,101.25 z M 2363.3733,33.530346 C 2362.7669,31.950114 2370.6586,19.924097 2372.75,19.241384 2374.9088,18.536649 2374.1353,20.922563 2369.886,28.07517 2365.723,35.082538 2364.3956,36.194433 2363.3733,33.530346 z M 2384.0001,100.25 C 2384.0001,99.8375 2386.6682,95 2389.9292,89.5 2393.1902,84 2397.5244,76.575 2399.5607,73 2401.597,69.425 2404.7244,64.25 2406.5105,61.5 2408.2966,58.75 2414.1366,48.625 2419.4883,39 2429.735,20.571355 2432,17.197425 2432,20.362528 2432,22.120177 2422.5708,39.935129 2418.878,45.15437 2417.8451,46.614274 2417,48.087198 2417,48.427534 2417,48.76787 2412.4216,56.798403 2406.8258,66.273163 2401.23,75.747923 2394.4419,87.4375 2391.7411,92.25 2389.0404,97.0625 2386.1938,101 2385.4154,101 2384.6369,101 2384,100.6625 2384.0001,100.25 z M 2403,100.86803 C 2403,99.478287 2405.0179,96.119588 2415.8376,79.5 2428.9819,59.309861 2430.6193,56.716496 2432.299,53.427167 2433.8148,50.458719 2437,47.064344 2437,48.417393 2437,50.333892 2428.8713,64.652236 2420.2056,78 2412.9676,89.148692 2408.6724,95.867669 2406.6215,99.25 2404.9217,102.05304 2403,102.91165 2403,100.86803 z M 2422,102.43526 C 2422,101.50058 2432.3123,84.925025 2433.2571,84.341126 2433.7389,84.043358 2434.335,84.001697 2434.5819,84.248548 2435.9,85.566647 2425.5298,103 2423.4276,103 2422.6424,103 2422,102.74587 2422,102.43526 z"/>
</svg>
