<svg xmlns="http://www.w3.org/2000/svg"
     width="48.6" height="64.0"
     viewBox="2163.5174 20.9947 56.2050 74.0053">
  <path d="M 2171.2551,38.75 C 2168.2828,34.996199 2167.5174,30 2169.9145,30 2170.7205,30 2174,37.092963 2174,38.83602 2174,40.368764 2172.4997,40.321746 2171.2551,38.75 z M 2174.0294,32.054952 C 2173.3937,30.86708 2173.03,29.131268 2173.2213,28.197593 2173.4992,26.840804 2173.9432,27.06239 2175.4331,29.301347 2176.7418,31.26797 2176.9826,32.417355 2176.2413,33.158706 2175.4999,33.900056 2174.8409,33.571168 2174.0294,32.054952 z M 2196.9856,55.75 C 2196.9643,52.8625 2196.8997,47.8 2196.8421,44.5 2196.6589,34.006942 2196.912,31.804181 2198.25,32.247636 2199.0208,32.50312 2199.7762,35.679267 2200.2206,40.533095 2200.6169,44.86223 2201.1727,49.007699 2201.4557,49.745249 2202.3335,52.032649 2205.2151,49.633462 2209.4414,43.096373 2213.4043,36.966891 2215,35.666278 2215,38.565741 2215,40.44702 2213.4917,43.392306 2211.0212,46.335462 2210.0219,47.525958 2206.8919,51.3125 2204.0657,54.75 2201.2394,58.1875 2198.499,61 2197.9757,61 2197.4525,61 2197.0069,58.6375 2196.9856,55.75 z M 2195,87.2 C 2195,86.76 2195.3718,85.9725 2195.8261,85.45 2196.2805,84.9275 2197.2643,82.551842 2198.0123,80.17076 2199.1123,76.669365 2199.1394,74.970269 2198.1538,71.285294 2196.7616,66.079942 2197.2573,65.172703 2204.075,60.448042 2206.5455,58.735937 2208.9504,55.756704 2210.6253,52.333332 2213.2078,47.054922 2215.7224,45.668805 2215.278,49.768565 2214.9653,52.653743 2209.686,60.190456 2205.2477,64.087672 2201.6821,67.218645 2201.5165,67.635015 2201.8404,72.658944 2202.2887,79.611697 2199.598,88 2196.9196,88 2195.8638,88 2195,87.64 2195,87.2 z M 2183.2845,87.25 C 2180.2526,80.202836 2180.4493,73.400899 2183.9387,64.636727 2185.6605,60.311927 2187.3018,54.686927 2187.5859,52.136727 2189.3788,36.045464 2190.375,30.227635 2191.6944,28.143098 2193.6872,24.994675 2195.3347,26.659418 2194.0894,30.563125 2193.5741,32.178406 2192.6431,37.828071 2192.0206,43.117935 2190.8191,53.326832 2189.5147,58.814197 2185.9868,68.5 2183.5901,75.080177 2183.7844,81.495879 2186.5062,85.649855 2188.4386,88.599015 2188.4129,91 2186.449,91 2185.5959,91 2184.1719,89.3125 2183.2845,87.25 z"/>
</svg>
