<svg xmlns="http://www.w3.org/2000/svg"
     width="39.7" height="64.0"
     viewBox="1443.0000 16.0000 56.8592 91.7167">
  <path d="M 1465.6542,102.24945 C 1465.1101,101.36905 1476.6644,82.657252 1478.0551,82.166667 1480.9715,81.137854 1476.1775,92.403393 1470.7853,99.25 1467.8702,102.95141 1466.561,103.71672 1465.6542,102.24945 z M 1451.4903,54.984242 C 1451.1091,54.367511 1452.8526,50.631257 1455.3646,46.681456 1457.8766,42.731655 1462.4777,35.3375 1465.5892,30.25 1468.7007,25.1625 1471.8963,21 1472.6906,21 1475.286,21 1472.5585,27.243483 1465.3869,37.718632 1462.9426,41.288922 1460.2669,45.400303 1459.441,46.855034 1454.3771,55.773614 1452.9071,57.276667 1451.4903,54.984242 z M 1449,28.05716 C 1449,26.566051 1453.1071,20 1454.0398,20 1456.016,20 1455.915,22.160571 1453.7848,25.448499 1451.649,28.745319 1449,30.189513 1449,28.05716 z M 1447,99.971651 C 1447,97.96305 1453.5788,86.366269 1472.2287,55.5 1473.8903,52.75 1477.0444,47.125 1479.2379,43 1487.124,28.169502 1492.4225,20 1494.155,20 1495.8592,20 1494.8666,22.37491 1488.5872,33.32114 1485.0602,39.469513 1481.5993,45.85 1480.8964,47.5 1480.1934,49.15 1478.8884,51.4 1477.9962,52.5 1477.104,53.6 1473.2891,59.9 1469.5186,66.5 1465.748,73.1 1460.6032,81.65 1458.0856,85.5 1455.568,89.35 1452.6063,94.276946 1451.5041,96.448768 1449.5327,100.33317 1447,102.3141 1447,99.971651 z"/>
</svg>
