<svg xmlns="http://www.w3.org/2000/svg"
     width="33.9" height="64.0"
     viewBox="890.0064 20.0000 46.4311 87.6432">
  <path d="M 932.4375,37.625 932.4375,31.40625 C 930.79678,34.422722 928.15813,38.678205 926.375,41.125 924.51762,43.673687 923,46.534104 923,47.46875 923,51.210988 926.93953,46.823599 932.4375,37.625 z M 906.625,24 C 903.25323,24 895,42.200667 895,49.625 895,54.407345 897.17688,51.456069 899.90625,42.96875 901.40602,38.305014 903.83681,32.424323 905.3125,29.90625 908.37503,24.680437 908.5197,24 906.625,24 z M 907.96875,64.75 C 904.57688,64.361925 904.50971,66.639354 907.875,67.8125 909.49931,68.378739 911.83964,70.209972 913.09375,71.90625 915.49165,75.149579 916.5016,75.646694 917.5,74.03125 918.99657,71.609752 912.48538,65.266763 907.96875,64.75 z M 925.9375,66.125 C 924.91767,66.270735 924.30545,68.541174 924.125,72.8125 923.85482,79.207759 922.68362,84.282544 921.375,84.71875 920.2761,85.08505 913.99025,80.384603 908.5,75.09375 904.95725,71.679663 901.89037,70 899.1875,70 898.11019,70 896.92593,69.228336 896.5625,68.28125 895.14632,64.590733 894.00645,69.532019 894.5625,77 895.38055,87.986896 896.82261,93.453072 900.09375,97.96875 902.98424,101.95895 906,103.30895 906,100.59375 906,99.814587 905.65112,99.027084 905.21875,98.84375 902.18593,97.557768 898.71381,88.80605 897.5,79.375 896.91293,74.813649 897.06782,74.214414 898.84375,73.75 900.22655,73.38839 901.84061,74.284294 904.15625,76.6875 905.99001,78.590605 910.425,82.225223 914,84.75 917.575,87.274777 920.68063,89.476266 920.90625,89.65625 921.66374,90.26052 918.94,98 917.96875,98 917.44083,98 917,98.675 917,99.5 917,103.64324 921.36181,99.162805 923.9375,92.375 926.51756,85.575669 928.65205,68.245801 927.09375,66.6875 926.6682,66.261948 926.27744,66.076422 925.9375,66.125 z"/>
</svg>
