<svg xmlns="http://www.w3.org/2000/svg"
     width="34.7" height="64.0"
     viewBox="2441.0079 15.8095 50.7066 93.4551">
  <path d="M 2462.6667,103.33333 C 2460.3245,100.99119 2463.4564,91.35932 2467.6268,88.078881 2470.6031,85.737723 2470.7755,80.304808 2468.0631,74.330682 2464.0663,65.528043 2455.5129,66.061776 2450.4685,75.428576 2449.376,77.457249 2447.7795,79 2446.7726,79 2445.3184,79 2445.0079,78.146718 2445.0439,74.25 2445.138,64.064986 2450.8632,56.378449 2459.7572,54.496326 2465.0668,53.372703 2466.1506,51.191942 2463.9907,45.977528 2463.0733,43.762643 2461.9524,42.998811 2458.8509,42.474814 2456.6694,42.106243 2453.673,40.762016 2452.1922,39.487644 2449.8814,37.498847 2449.5108,36.428929 2449.5762,31.935166 2449.6429,27.358407 2450.0537,26.34118 2452.842,23.849863 2457.364,19.809484 2462.7396,19.893446 2466.9158,24.069685 2470.4954,27.649196 2472.3048,27.427294 2477.6246,22.756414 2480.62,20.126445 2481.3157,19.889606 2482.5061,21.094656 2485.0085,23.628008 2483.2447,30.440472 2478.7703,35.523624 2474.8135,40.01883 2474.8079,40.037119 2475.5055,46.263249 2475.9698,50.407336 2477.1505,54.05645 2479.0244,57.138676 2483.8942,65.148837 2485.3157,74.721541 2482.9177,83.357801 2482.0088,86.630785 2482.1732,87.975167 2484.0019,92.226141 2487.7145,100.85624 2484.6488,105.26456 2478.6173,99.968869 2474.0318,95.942687 2470.7909,96.096583 2467.4322,100.5 2464.7348,104.03644 2463.8787,104.54542 2462.6667,103.33333 z M 2472.0061,93.498049 C 2474.1475,92.818401 2477.3671,94.218044 2480.75,97.299277 2482.9391,99.293122 2483,99.29609 2483,97.408847 2483,96.341967 2481.9597,93.524082 2480.6882,91.146881 2478.4443,86.951747 2478.4213,86.652285 2479.9045,80.959388 2481.9481,73.115346 2480.449,65.516402 2475.6401,59.344003 2472.5889,55.427654 2472.1603,54.085102 2471.5244,46.450452 2470.8141,37.923773 2471.535,35.021849 2474.3724,34.985592 2474.9926,34.977668 2476.7374,32.727668 2478.2497,29.985592 2479.762,27.243517 2480.5387,25 2479.9756,25 2479.4125,25 2476.6419,26.588922 2473.8187,28.530938 2470.9955,30.472953 2468.1939,31.902224 2467.5928,31.707096 2466.9918,31.511967 2465.9292,30.181979 2465.2316,28.751567 2462.0298,22.186736 2453,25.422141 2453,33.134173 2453,36.742169 2453.1993,36.973213 2457.25,38.060325 2466.8235,40.629639 2467.5147,41.452828 2468.1419,51.03074 2468.4609,55.90243 2468.2815,56.521619 2466.5,56.697864 2457.9511,57.543622 2451.638,61.384031 2448.9054,67.401069 2445.837,74.157644 2446.9341,76.76737 2450.3862,70.923404 2452.3875,67.5354 2457.4639,64.009571 2460.3489,64.003738 2467.7248,63.988825 2472.7238,71.605006 2473.2169,83.608462 2473.487,90.183459 2473.3991,90.48949 2471.303,90.271182 2468.7473,90.005 2465,94.588695 2465,97.981096 2465,99.987907 2465.1939,99.923063 2467.5439,97.130173 2468.9431,95.467371 2470.9511,93.832915 2472.0061,93.498049 z"/>
</svg>
