<svg xmlns="http://www.w3.org/2000/svg"
     width="31.1" height="64.0"
     viewBox="429.8336 26.9013 41.7852 86.1008">
  <path d="M 443.4113,107.10905 C 436.20981,102.71762 433.83356,96.792994 435.1958,86.625584 436.15791,79.44459 440.15735,69 441.94497,69 443.46767,69 443.29616,70.075646 440.3958,78.715668 436.71951,89.667157 437.28117,96.036702 442.33125,100.66476 446.57737,104.55603 449.83445,104.89691 452.70072,101.75 457.04743,96.977717 457.50537,95.01501 457.36714,81.75 457.26419,71.87011 457.52769,69 458.53769,69 461.65755,69 462.34643,87.4302 459.54214,95.873127 457.60818,101.69575 451.4074,109.00215 448.40484,108.99626 447.35718,108.99421 445.11009,108.14496 443.4113,107.10905 z M 442,54.511709 C 442,52.333327 448.94988,35.74643 450.56942,34.059524 453.60153,30.901308 453.06437,34.459325 448.92249,44.968464 446.52711,51.046219 443.99662,56 443.28736,56 442.57931,56 442,55.330269 442,54.511709 z M 460.03886,55.464286 C 460.09372,51.279054 464.52615,36.657951 465.87651,36.207831 467.61878,35.627072 467.22143,40.443849 464.87527,48.344763 462.39643,56.692543 459.97605,60.255492 460.03886,55.464286 z"/>
</svg>
