<svg xmlns="http://www.w3.org/2000/svg"
     width="34.0" height="64.0"
     viewBox="1838.9274 16.0000 48.0726 90.5369">
  <path d="M 1843.059,99.75 C 1843.1306,98.233361 1845.8952,92.930113 1852.3922,81.846172 1855.083,77.255777 1857.9785,72.15 1858.8268,70.5 1859.6751,68.85 1861.7686,65.475 1863.4791,63 1865.1895,60.525 1868.0905,56.025 1869.9256,53 1871.7606,49.975 1873.5903,47.275 1873.9915,47 1874.3927,46.725 1875.4555,45.066035 1876.3534,43.313412 1878.038,40.024855 1879.7542,38.420902 1880.6403,39.306934 1881.3347,40.001396 1878.8824,44.57187 1873.752,52.144966 1871.3842,55.640235 1867.4778,61.875 1865.0712,66 1862.6646,70.125 1859.7373,75.075 1858.566,77 1857.3947,78.925 1855.8704,81.625 1855.1786,83 1854.4868,84.375 1853.3761,86.4 1852.7104,87.5 1852.0447,88.6 1850.0045,92.0875 1848.1766,95.25 1845.0372,100.68168 1842.9274,102.53685 1843.059,99.75 z M 1848,27.368034 C 1848,26.082166 1852.1947,20 1853.0816,20 1854.5857,20 1854.1337,22.003476 1851.9319,25.09563 1850.0438,27.747216 1848,28.928415 1848,27.368034 z M 1848.4819,58.970728 C 1847.7731,57.823811 1853.1171,48.697887 1861.055,37.5 1863.7841,33.65 1867.2097,28.3625 1868.6675,25.75 1870.1252,23.1375 1871.9305,21 1872.6793,21 1874.5557,21 1871.4956,26.832148 1863.5592,38.381631 1860.1129,43.396734 1855.8343,50.087486 1854.0512,53.249969 1850.5139,59.523575 1849.48,60.585605 1848.4819,58.970728 z M 1861,100.39005 C 1861,99.704434 1871.9858,81.270584 1877.1395,73.30827 1878.9878,70.452818 1881.0625,68.090318 1881.75,68.05827 1882.4375,68.026221 1883,68.195705 1883,68.4349 1883,70.178156 1880.0618,75.5649 1874.5586,83.911114 1871.0217,89.275182 1867.3408,95.314572 1866.3787,97.331982 1865.3134,99.565994 1863.9201,101 1862.8148,101 1861.8167,101 1861,100.72552 1861,100.39005 z"/>
</svg>
