<svg xmlns="http://www.w3.org/2000/svg"
     width="38.0" height="64.0"
     viewBox="1388.9231 13.9361 57.3947 96.7708">
  <path d="M 1430.5834,99.25 C 1430.2801,98.2875 1430.0965,93.449113 1430.1754,88.498029 1430.3087,80.133214 1428.8041,72 1427.1233,72 1426.2926,72 1424.4912,76.901345 1423.4481,82 1423.0543,83.925 1421.5736,87.8625 1420.1577,90.75 1415.8392,99.557024 1412.0621,96.998453 1411.9424,85.1849 1411.9107,82.058205 1411.5732,77.847955 1411.1924,75.828788 1410.5195,72.261 1410.4418,72.205003 1408.4328,73.841054 1405.4947,76.233805 1399.0237,86.631706 1398.3375,90.062681 1397.6134,93.683183 1395.3643,95.764254 1393.8318,94.231755 1393.1397,93.53967 1392.9231,89.960642 1393.2321,84.324136 1393.6868,76.033089 1395.2232,69.705015 1398.5674,62.348871 1400.4729,58.157466 1400.4116,57.735321 1397.5,55 1396.125,53.708255 1395,51.81569 1395,50.794301 1395,48.053171 1397.8754,47.377155 1399.5239,49.730723 1400.292,50.827226 1402.2883,52.290977 1403.9602,52.983503 1407.042,54.260049 1407.7632,55.825194 1406.0642,57.55 1402.629,61.03752 1394.0365,84.454973 1395.6506,85.930387 1395.9934,86.243674 1396.457,85.990703 1396.6808,85.368229 1398.905,79.183568 1411.8435,62.44355 1413.2852,63.885245 1413.7417,64.341746 1414.3417,70.506724 1414.6185,77.585197 1414.8953,84.66367 1415.2834,90.616783 1415.481,90.814338 1416.5765,91.909818 1419.3445,84.954026 1421.8032,74.926948 1424.864,62.444633 1426.4642,60.549473 1429.1586,66.215512 1432.3083,72.839023 1434.1655,81.323467 1433.8421,87.611715 1433.6655,91.045195 1433.7911,94.124426 1434.1211,94.454449 1434.8529,95.186251 1437.7427,85.1564 1438.5981,78.915869 1439.6293,71.391844 1437.3976,63.347515 1432.9625,58.602428 L 1429.1281,54.5 1425.8141,57.646589 C 1418.2176,64.859196 1408.7821,61.930822 1407.5214,51.969318 1407.2927,50.161992 1406.7206,48.417035 1406.25,48.091635 1404.4921,46.876023 1400.883,39.998305 1401.4887,39.018237 1402.5809,37.25105 1403.8978,37.901647 1405.5,41 1406.9793,43.860737 1410,45.168998 1410,42.948973 1410,41.489557 1416.2997,39 1419.9926,39 1422.3588,39 1423.2712,38.416782 1424.0309,36.418718 1425.1745,33.410762 1427.5366,33.712138 1427.4206,36.851209 1427.3182,39.623671 1428.7014,39.584763 1431.0187,36.75 1432.3396,35.134201 1433.1677,34.803761 1433.9567,35.577673 1434.7513,36.357083 1434.2174,37.709779 1432.0277,40.465178 1429.1345,44.105777 1428.2688,46.93551 1429.6315,48.29815 1430.8582,49.52482 1433.5799,47.119402 1434.9679,43.581906 1436.37,40.008471 1439,38.652876 1439,41.503624 1439,42.330618 1438.1,44.686454 1437,46.738815 1434.5216,51.362919 1434.5097,52.502713 1436.9046,55.865989 1440.677,61.163884 1442.3178,68.498042 1441.7036,77.316379 1440.7271,91.333513 1432.933,106.70688 1430.5834,99.25 z M 1408.2711,27.871108 C 1407.4326,27.032586 1407.808,25.736116 1409.7307,22.830721 1412.9698,17.936071 1414.6065,19.20992 1412.2578,24.797642 1410.3615,29.309218 1409.9932,29.593162 1408.2711,27.871108 z M 1423.6855,54.825686 C 1426.5458,52.138624 1426.6139,49.670939 1423.9319,45.90437 1421.6562,42.708409 1416.833,41.929454 1413.6883,44.25 1411.1965,46.088742 1411.0829,53.856242 1413.5217,55.639546 1416.3085,57.677256 1421.0547,57.297201 1423.6855,54.825686 z M 1430.5128,26.020667 C 1429.8055,24.87633 1431.259,21.859855 1433.3564,20.119197 1435.5018,18.338651 1436.0195,20.048268 1434.4589,23.759906 1433.0911,27.013032 1431.6399,27.84441 1430.5128,26.020667 z"/>
</svg>
