<svg xmlns="http://www.w3.org/2000/svg"
     width="23.7" height="64.0"
     viewBox="1940.5873 18.1750 32.9584 88.8291">
  <path d="M 1955.7834,96.27882 C 1950.2386,90.583357 1947.3175,83.130404 1945.9543,71.200975 1944.5873,59.237793 1945.2632,50.979918 1948.3188,42.313153 1951.4959,33.301388 1955.9061,27.577451 1961.6197,25.050071 1968.1194,22.174952 1969.5457,22.84114 1967.3519,27.72739 1966.4204,29.802326 1964.4105,35.1 1962.8856,39.5 1960.3283,46.879057 1960.1102,48.703078 1960.0764,63 1960.0561,71.525 1960.5503,81.65 1961.1744,85.5 1963.6005,100.46511 1962.3306,103.00404 1955.7834,96.27882 z M 1958.9761,92.25 C 1958.963,91.2875 1958.5214,88.7 1957.9947,86.5 1957.468,84.3 1957.0275,75.3 1957.0157,66.5 1956.9985,53.542463 1957.3865,48.978769 1959.0564,42.5 1960.1905,38.1 1961.3693,33.4875 1961.6758,32.25 1963.0168,26.836447 1956.4055,31.838347 1952.6485,39.07974 1948.9855,46.139965 1947.3468,57.407106 1948.8163,65.428121 1949.4282,68.767655 1950.2257,73.975 1950.5886,77 1951.3694,83.50792 1952.3521,86.369515 1955.3081,90.743167 1957.7523,94.359633 1959.012,94.877099 1958.9761,92.25 z"/>
</svg>
