<svg xmlns="http://www.w3.org/2000/svg"
     width="64.0" height="63.9"
     viewBox="2548.9855 17.9011 40.6987 40.6302">
  <path d="M 2557.5,22 C 2555.2659,22 2552.9855,28.52655 2553,34.875 2553.0085,38.60008 2553.806,42.149769 2555.3125,45.40625 2557.026,49.110431 2557.3915,50.119112 2556.7188,52.59375 L 2560.6562,52.25 C 2561.3382,51.119302 2562.0881,50.066174 2563.0312,49.1875 2564.9291,47.419408 2565.0857,46.808237 2564,45.5 2562.2639,43.408131 2563.2745,29.753385 2565.4062,26.5 2567.3274,23.567954 2565.548,21.901057 2563.4375,24.65625 2560.8499,28.034175 2559.7463,34.258681 2560.375,41.8125 2561.0533,49.963608 2560.0422,50.498561 2557.5938,43.3125 2555.6044,37.473891 2555.5795,33.443235 2557.5,28 2559.3684,22.704494 2559.3565,22 2557.5,22 z M 2572.25,53.8125 2576.6875,54.53125 C 2576.661,54.443518 2576.6185,54.029441 2576.5938,53.96875 2576.2054,53.018081 2577.4516,50.779481 2579.9688,47.96875 2584.088,43.369102 2585.6842,39.927818 2584.5312,38.0625 2583.3022,36.073763 2580.7135,37.000889 2576.375,41 2571.5006,45.493074 2570.5015,45.786775 2569.0938,43.15625 2568.1848,41.457766 2569.0086,36.38249 2571.5312,28.25 2572.7406,24.351674 2570.1898,25.74249 2567.9062,30.21875 2564.9914,35.932298 2564.7352,44.582508 2567.4375,46.5625 2570.2727,48.639842 2572.6965,48.347657 2576.5938,45.375 2582.7981,40.642666 2582.0768,44.873814 2575.6875,50.6875 L 2572.25,53.8125 z"/>
</svg>
