<svg xmlns="http://www.w3.org/2000/svg"
     width="64.0" height="51.1"
     viewBox="1692.0000 13.6316 118.0000 94.1898">
  <path d="M 1696,88.590937 C 1696,88.285297 1697.7139,85.214801 1699.8087,81.767613 1701.9035,78.320426 1705.8349,71.45 1708.5451,66.5 1711.2554,61.55 1713.929,56.763798 1714.4864,55.863995 1715.0439,54.964192 1717.4681,50.914192 1719.8736,46.863995 1722.279,42.813798 1725.7084,37.25 1727.4943,34.5 1729.2803,31.75 1731.9437,27.3625 1733.4129,24.75 1735.8998,20.328094 1738,18.626359 1738,21.033244 1738,22.531191 1733.1821,31.84031 1729.9953,36.5 1726.4765,41.645063 1715,60.869824 1715,61.619256 1715,61.933858 1713.9998,63.595873 1712.7774,65.312623 1711.555,67.029373 1709.3033,70.92384 1707.7736,73.966994 1703.2968,82.873573 1699.4934,88.47389 1697.6848,88.822194 1696.7581,89.000644 1696,88.896578 1696,88.590937 z M 1696.036,57.445781 C 1696.0162,56.31596 1697.35,53.262832 1699,50.661052 1700.65,48.059272 1702,45.678138 1702,45.369642 1702,45.061146 1702.8397,43.614274 1703.866,42.15437 1704.8923,40.694467 1707.4276,36.35 1709.5001,32.5 1715.8982,20.614328 1717.1717,18.771691 1718.2458,19.845787 1718.902,20.502037 1718.2252,22.642963 1716.2469,26.168987 1714.6017,29.101044 1710.5026,36.45 1707.1377,42.5 1703.7727,48.55 1699.9064,54.85 1698.5458,56.5 1696.3455,59.168291 1696.0679,59.272866 1696.036,57.445781 z M 1708.6935,102.31308 C 1708.1642,101.45669 1713.5794,90.639894 1720.6151,78.5 1721.5713,76.85 1726.8095,67.625 1732.2554,58 1737.7014,48.375 1743.856,37.8 1745.9323,34.5 1748.0085,31.2 1750.9171,26.3625 1752.3958,23.75 1754.9086,19.310489 1757,17.631625 1757,20.054051 1757,21.184308 1751.7855,30.87937 1748.9613,35 1747.2751,37.460212 1736.824,55.972716 1729.5942,69.305828 1727.5644,73.049034 1724.4604,78.449034 1722.6963,81.305828 1720.9322,84.162623 1718.1414,89.09776 1716.4944,92.272799 1712.7423,99.506261 1709.5211,103.65217 1708.6935,102.31308 z M 1728,101.3606 C 1728,100.45893 1729.418,97.421428 1731.1512,94.610599 1735.1012,88.204449 1736.5959,85.587235 1745.4917,69.5 1749.4455,62.35 1756.6433,49.525 1761.4869,41 1766.3306,32.475 1770.931,24.271446 1771.7101,22.769881 1773.213,19.873412 1774.8039,18.470588 1775.639,19.305617 1776.3645,20.031212 1771.3988,30.621696 1767.5767,36.5 1765.7886,39.25 1763.9929,42.175 1763.5862,43 1763.1795,43.825 1761.4187,47.007482 1759.6734,50.072181 1757.928,53.136881 1754.9879,58.536881 1753.1398,62.072181 1751.2916,65.607482 1748.7452,69.878594 1747.4811,71.563542 1746.2169,73.24849 1744.4959,76.270624 1743.6566,78.279394 1741.2837,83.958692 1729.9234,103 1728.9081,103 1728.4086,103 1728,102.26227 1728,101.3606 z M 1746.6215,102.19663 C 1745.8156,100.8926 1747.9577,96.714805 1755.1825,85.5 1759.5736,78.683788 1768.7472,62.721894 1786.0451,31.799449 1790.9252,23.075699 1794.2959,18.387671 1794.7369,19.710811 1795.1653,20.995992 1787.6274,36.311819 1784.4937,40.523198 1783.2565,42.185957 1779.7143,48.485957 1776.6223,54.523198 1773.5302,60.560439 1767.8483,70.675 1763.9959,77 1747.915,103.40188 1747.6257,103.82144 1746.6215,102.19663 z M 1765,101.15628 C 1765,100.69224 1766.7375,97.654739 1768.8611,94.406284 1770.9847,91.157828 1776.0015,82.875 1780.0095,76 1784.0175,69.125 1788.5355,61.475 1790.0495,59 1791.5635,56.525 1794.8712,50.5443 1797.3998,45.709556 1799.9285,40.874812 1802.898,35.952459 1803.9987,34.770994 1805.9868,32.637051 1806,32.636428 1806,34.67658 1806,35.806116 1805.181,37.803469 1804.1801,39.115141 1803.1791,40.426814 1800.7437,44.875 1798.768,49 1796.7923,53.125 1792.9101,60.325 1790.1409,65 1787.3716,69.675 1782.7439,77.55 1779.857,82.5 1771.1532,97.423872 1768.0114,102 1766.4693,102 1765.6612,102 1765,101.62033 1765,101.15628 z M 1785.7356,101.40223 C 1784.8919,100.55858 1785.7957,98.523142 1790.7,90.2212 1793.065,86.217861 1795,82.530877 1795,82.027904 1795,81.524931 1795.8235,80.525391 1796.8299,79.806704 1797.8364,79.088017 1799.4631,77.2625 1800.4449,75.75 1802.1228,73.1651 1805,71.968905 1805,73.856198 1805,74.327106 1803.5023,76.689606 1801.6719,79.106198 1799.8414,81.522789 1796.1289,87.658067 1793.4219,92.740148 1788.8874,101.25303 1787.3354,103.00206 1785.7356,101.40223 z M 1801,102.54705 C 1801,101.27122 1803.4336,97 1804.1605,97 1805.4257,97 1805.1679,100.43208 1803.8,101.8 1802.6108,102.98924 1801,103.419 1801,102.54705 z"/>
</svg>
