<svg xmlns="http://www.w3.org/2000/svg"
     width="29.9" height="64.0"
     viewBox="1063.0000 13.2402 44.2284 94.7923">
  <path d="M 1067,36.300609 C 1067,34.019445 1073.4237,21.723205 1075.5275,19.977169 1078.8253,17.240235 1078.2466,20.519638 1073.9767,28.765537 1069.5954,37.226768 1067,40.029816 1067,36.300609 z M 1067,68.826689 C 1067,67.539702 1069.475,62.338121 1072.5,57.26762 1075.525,52.197119 1078,47.829955 1078,47.562811 1078,45.787846 1093.5643,19 1094.5956,19 1097.0396,19 1096.8545,20.61308 1093.7869,26.046222 1092.0933,29.0458 1088.9306,34.875 1086.7588,39 1084.5869,43.125 1080.1136,51.225 1076.818,57 1073.5225,62.775 1070.4956,68.148216 1070.0916,68.940481 1068.8425,71.390179 1067,71.322361 1067,68.826689 z M 1067,101.13955 C 1067,100.1163 1068.0644,97.710627 1069.3653,95.793612 1070.6662,93.876598 1071.9037,91.901302 1072.1153,91.404066 1072.3269,90.90683 1074.1213,88.025 1076.1028,85 1079.38,79.997074 1082.9924,74.036807 1091.501,59.594032 1097.5633,49.303697 1099.2275,47 1100.5988,47 1103.2284,47 1103.0596,47.375779 1092.0609,66 1086.2966,75.760753 1073.8105,95.951258 1071.4985,99.25 1068.6251,103.3499 1067,104.03249 1067,101.13955 z M 1087,100.65004 C 1087,99.90756 1088.3894,97.382004 1090.0877,95.037693 1092.2369,92.070734 1093.4933,91.093258 1094.2215,91.821466 1094.9497,92.549674 1094.4543,94.255379 1092.5917,97.433811 1090.0419,101.78462 1087,103.53427 1087,100.65004 z"/>
</svg>
