<svg xmlns="http://www.w3.org/2000/svg"
     width="26.7" height="64.0"
     viewBox="1656.7277 18.8454 35.4074 85.0197">
  <path d="M 1681.111,97.336931 1677.9958,94.5 1679.8834,88.5 C 1680.9216,85.2 1682.1842,78.781084 1682.6892,74.235741 1683.7936,64.295095 1682.7403,60.959376 1677.5256,57.882574 1673.9967,55.800524 1673.9671,55.726735 1674.6162,50.639547 1675.4598,44.028137 1677.257,40.551991 1680.9635,38.362478 1684.4841,36.282828 1684.9692,35.289729 1684.2647,31.604474 1683.4337,27.257284 1681.0654,27.159745 1677.4653,31.324436 1674.0005,35.332645 1672.403,35.772086 1669.4411,33.531803 1668.3735,32.724295 1667.1137,32.049295 1666.6416,32.031803 1665.2551,31.980434 1666.9789,37.318457 1669.0741,39.564451 1670.4944,41.086948 1671,43.081188 1671,47.16105 1671,52.130394 1670.6439,53.059829 1667.5,56.297033 1665.575,58.279143 1664,60.823173 1664,61.950434 1664,64.279947 1662.2131,64.719034 1661.3963,62.590257 1660.7277,60.848033 1663.0833,56.139622 1665.8976,53.592652 1669.0029,50.782399 1668.7996,43.738989 1665.5,39.817631 1663.6055,37.566204 1663,35.702479 1663,32.123275 1663,24.695228 1666.0791,22.845368 1669.5,28.21815 1672.2313,32.507767 1673.6896,32.70899 1675.7489,29.080392 1678.9907,23.368236 1685.2589,23.656377 1686.898,29.592902 1688.1351,34.073259 1687.1993,36.536581 1682.5776,40.964893 1680.5206,42.93579 1678.5066,46.118756 1677.9066,48.346865 1676.9,52.08521 1677.0122,52.429032 1680.3664,55.881972 1686.6467,62.347176 1687.438,68.565522 1683.9647,84.158545 L 1681.9294,93.295915 1684.1514,95.661201 C 1685.7345,97.346279 1686.0647,98.335259 1685.2998,99.100175 1684.5349,99.865091 1683.3303,99.358017 1681.111,97.336931 z"/>
</svg>
