<svg xmlns="http://www.w3.org/2000/svg"
     width="43.3" height="64.0"
     viewBox="1097.3666 12.5263 64.0632 94.6785">
  <path d="M 1107.0042,99.158017 C 1105.4411,97.594926 1103.6546,94.431113 1103.0343,92.127321 1101.3666,85.933979 1103.383,69.907068 1107.251,58.611662 1109.768,51.261549 1110.4814,47.269624 1110.9408,37.963318 1111.4236,28.182497 1111.9036,25.67123 1114.0944,21.463318 1116.364,17.104196 1117.0329,16.526284 1119.5893,16.71592 1121.1902,16.834675 1123.2524,17.853652 1124.1719,18.980313 1126.6796,22.052729 1127.5572,32.995232 1125.8023,39.308354 1123.7579,46.662948 1125.0524,51.344558 1130.0441,54.647866 1132.1431,56.036965 1134.6565,57.020224 1135.6292,56.832885 1138.1239,56.352448 1146.4667,41.427292 1150.1724,30.815319 1152.5121,24.115064 1153.6815,21.983733 1154.8915,22.214132 1157.1766,22.649271 1157.4298,26.139159 1155.9636,36.990876 1154.5838,47.203242 1149.4389,60.570213 1144.5111,66.746068 1142.2732,69.550727 1141.2938,70 1137.4175,70 1134.8938,70 1131.2,69.12237 1129,68 1119.9507,63.383373 1116,66.708815 1116,78.942655 1116,86.792642 1117.4181,87.944185 1123.4747,85.012245 1125.9636,83.807383 1128,82.455752 1128,82.008619 1128,81.059449 1133.5042,79 1136.0411,79 1138.1703,79 1148,87.658146 1148,89.533652 1148,92.518936 1145.7821,91.87636 1141.1585,87.55148 1138.4822,85.048166 1135.6643,83.002965 1134.8963,83.006589 1134.1283,83.010213 1132.15,83.928605 1130.5,85.04746 1128.85,86.166315 1125.4856,88.021005 1123.0236,89.168994 1119.0296,91.031344 1118.2757,91.103841 1116.0272,89.84181 1114.0511,88.73261 1113.3224,87.26603 1112.6506,83.04585 1111.579,76.313657 1114.1143,65.733808 1117.3406,63.473992 1120.2923,61.406503 1125.9537,61.651411 1129.5,64 1131.2861,65.182906 1134.1921,65.989488 1136.6819,65.993411 1140.1113,65.998814 1141.2178,65.502858 1142.8312,63.237106 1148.2104,55.682692 1156.4001,34 1153.8743,34 1153.3543,34 1152.0567,36.034925 1150.9905,38.522055 1147.198,47.369814 1138.7835,60.016246 1136.2692,60.647289 1132.7647,61.526852 1126.8562,58.463335 1123.9892,54.280157 1121.3271,50.396155 1121.054,46.785501 1122.493,34.5 1123.2924,27.674765 1122.0958,21.642125 1119.857,21.210975 1117.0326,20.667047 1114.6977,28.156029 1114.5405,38.263378 1114.4164,46.244181 1113.8385,49.13153 1110.2904,59.5 1105.0453,74.82722 1103.8562,86.837637 1106.978,92.956834 1108.0744,95.105942 1109.5275,97.207962 1110.2071,97.62799 1112.5201,99.057479 1116.6472,98.000421 1124.3834,93.997099 1128.6317,91.798694 1132.8939,90 1133.855,90 1136.5012,90 1148,97.832439 1148,99.634911 1148,100.66397 1147.449,101.00256 1146.4182,100.60699 1145.5482,100.27314 1144.4578,100 1143.9949,100 1143.5321,100 1141.8512,98.904221 1140.2595,97.564936 1135.2547,93.353646 1133.0556,93.403347 1124.5299,97.92043 1115.095,102.9192 1111.0509,103.20478 1107.0042,99.158017 z"/>
</svg>
