<svg xmlns="http://www.w3.org/2000/svg"
     width="41.9" height="64.0"
     viewBox="1275.4062 13.9178 62.4586 95.2987">
  <path d="M 1279.4062,82.6875 C 1280.9105,79.906272 1282.5731,76.811496 1283.6562,75 1286.5567,70.149058 1294.4836,56.333184 1304,39.46875 1307.2726,33.669348 1310.6259,27.953331 1311.4688,26.75 1313.2827,24.160161 1313.5153,19.651151 1311.8125,20.21875 1310.7473,20.573814 1303,32.474042 1303,33.75 1303,34.703092 1289.8574,58.115843 1282.3125,70.625 1280.7089,73.28369 1280.6157,73.681389 1279.4062,75.78125 L 1279.4062,82.6875 z M 1332.0625,21 C 1331.0718,21 1324,32.130088 1324,33.6875 1324,34.19791 1322.3776,37.294856 1320.4062,40.5625 1318.4348,43.830145 1313.8743,52.35 1310.25,59.5 1302.6829,74.428543 1297.0702,84.623289 1291.1562,94.21875 1288.8742,97.921311 1287,101.46224 1287,102.0625 1287,102.66277 1287.7456,102.99033 1288.6562,102.8125 1290.8788,102.37853 1302.3791,83.032306 1311.625,64.15625 1315.7585,55.717624 1320.8997,45.908561 1323.0625,42.375 1325.2253,38.841439 1327,35.552462 1327,35.03125 1327,34.510038 1328.35,31.94553 1330,29.34375 1332.9637,24.670555 1333.8648,21 1332.0625,21 z M 1279.4062,44.59375 C 1280.7117,42.318587 1281.1567,41.449677 1282.625,38.9375 1289.8701,26.541868 1293.2708,17.917804 1289.75,20.8125 1288.9785,21.446913 1284.4346,28.990829 1279.4062,37.84375 L 1279.4062,44.59375 z M 1319.8438,84.21875 C 1318.5427,84.652409 1310.0194,99.830687 1310,101.75 1309.965,105.21655 1313.0761,102.1369 1316.8125,95 1321.011,86.980337 1321.9858,83.50475 1319.8438,84.21875 z"/>
</svg>
