<svg xmlns="http://www.w3.org/2000/svg"
     width="27.5" height="64.0"
     viewBox="1589.8125 28.1332 32.9006 76.6094">
  <path d="M 1593.8125 35.90625 L 1593.8125 36.09375 L 1595.1562 43.375 C 1595.6365 42.102451 1596.2558 41.066974 1597.3125 39.75 C 1600.8425 35.350584 1602.7694 35.061221 1606 38.5 L 1608.375 41.03125 L 1606.5625 48.03125 C 1604.8022 54.818367 1604.7923 57.165511 1606.5938 68.25 C 1606.9861 70.664028 1606.6301 73.441127 1605.5938 76.03125 C 1604.7086 78.243259 1604 82.640354 1604 85.8125 C 1604 90.660578 1604.4337 92.094202 1606.7812 94.90625 C 1611.6537 100.74258 1616.0128 97.051647 1616.75 86.4375 C 1617.2067 79.862178 1615.2748 73.427794 1612.5312 72.375 C 1611.6814 72.048888 1611 70.973988 1611 70 C 1611 69.026012 1610.325 66.630753 1609.5 64.65625 C 1607.7063 60.363364 1607.5639 53.09459 1609.1875 49.53125 C 1610.7797 46.036724 1612.228 46.810841 1613.9062 52.03125 C 1614.9965 55.42263 1615.092 57.522709 1614.2812 61.4375 C 1613.0417 67.422763 1613.5083 68.745956 1616.0938 66.40625 C 1618.288 64.420412 1618.7131 56.081575 1616.9375 49.6875 C 1615.7878 45.547463 1606.3374 33 1604.375 33 C 1603.7064 33 1602.5117 32.741792 1601.7188 32.4375 C 1600.9257 32.133208 1598.9045 33.050262 1597.2188 34.46875 C 1595.3787 36.017021 1594.5337 36.644057 1593.8125 35.90625 z M 1610.4375 76.28125 C 1612.461 76.933761 1614.3644 85.009326 1613.4062 88.875 C 1612.2312 93.615613 1609.5997 94.136383 1608.125 89.90625 C 1607.5114 88.146096 1607 85.448298 1607 83.90625 C 1607 80.332615 1609.0327 75.828228 1610.4375 76.28125 z "/>
</svg>
