<svg xmlns="http://www.w3.org/2000/svg"
     width="42.4" height="64.0"
     viewBox="514.7635 18.4403 57.2243 86.3379">
  <path d="M 549.48194,95.797766 C 548.37201,93.537876 546.2907,90.812971 544.85682,89.742421 541.34938,87.123739 538.49779,88.672886 535.96985,94.570339 533.98468,99.201555 532.63052,100.08549 531.60699,97.418213 529.59588,92.177343 532.44547,82.610001 537.36808,78.075686 538.81564,76.742313 540,75.342055 540,74.964001 540,74.585948 538.63611,71.268637 536.96913,67.5922 L 533.93827,60.907768 530.82032,63.127947 C 529.10544,64.349045 527.03622,67.04395 526.22205,69.116625 524.7997,72.737596 522.6821,74.539592 521.04111,73.525407 520.61299,73.260813 519.97133,71.222166 519.6152,68.995082 518.7635,63.668824 522.02771,55.94705 526.79059,52.021083 L 530.29663,49.131109 529.0118,44.542137 C 526.84004,36.785365 529.45682,24.913141 533.69689,23.286072 535.90099,22.440279 538,25.633114 538,29.831598 538,34.119872 541.72639,41.77462 544.7917,43.783084 546.77904,45.085242 547.44505,45.100374 549.70495,43.894716 552.77658,42.255998 556.97614,33.884719 556.99023,29.372445 557.00323,25.20953 558.9669,23.588086 561.68758,25.493727 564.39671,27.391276 565.26474,35.817117 563.38798,41.999246 561.47816,48.290268 561.60837,49.313007 565,54.661052 567.35015,58.366859 567.98777,60.486384 567.94356,64.445781 567.82319,75.224485 562.90653,81.53083 561.57033,72.620394 560.74243,67.099567 557.41806,62.408151 555.47599,64.01993 554.75018,64.622293 553.85701,66.886872 553.49116,69.052328 553.12531,71.217783 552.41513,73.243435 551.91299,73.553777 550.32988,74.532194 550.91378,77.929643 553.5,82.787849 556.37008,88.179287 556.76546,94.462137 554.4433,97.777494 552.34152,100.77819 551.82727,100.57299 549.48194,95.797766 z M 541.49808,85.411125 C 544.61666,84.628413 548.38674,86.943234 551.00474,91.248187 552.58559,93.847683 553.02594,94.095965 553.56484,92.691617 554.52766,90.182546 553.25736,86.23441 549.93231,81.401611 547.10186,77.287703 547.04116,76.973594 548.46417,73.805129 549.28058,71.987308 550.41743,68.7 550.9905,66.5 552.47796,60.789667 554.38029,58.627646 557.27745,59.354788 559.88287,60.008706 561.49895,62.812261 562.57411,68.543359 563.67551,74.414315 565.36922,70.008394 564.72825,62.939695 564.27854,57.980202 563.72482,56.7184 560.8518,54.106173 559.00831,52.430023 556.9375,51.045436 556.25,51.029313 554.43765,50.986812 554.71499,49.688515 556.94415,47.779846 559.26385,45.79366 562,37.155614 562,31.818499 562,26.753734 560.42623,26.933023 559.60132,32.091766 557.53042,45.042416 547.7979,51.951748 541.08387,45.237711 537.91178,42.065624 534,32.415638 534,27.762487 534,22.590697 531.96139,25.973998 531.31729,32.214745 530.87941,36.457376 531.25301,39.061265 532.95185,43.607195 535.94575,51.618583 535.9257,52.191195 532.6193,53.102749 528.26648,54.302797 525.1278,57.830546 523.48193,63.372787 521.7241,69.292074 521.75016,69 522.97968,69 523.5185,69 524.86247,67.229737 525.96629,65.066082 528.24529,60.598861 531.43111,58 534.62825,58 536.34288,58 537.49402,59.448822 539.99136,64.75 544.31004,73.917372 544.87855,77.586385 542.11618,78.463126 539.39308,79.327405 534.1477,86.951278 533.35104,91.202787 L 532.7332,94.5 535.8574,90.271362 C 537.57571,87.94561 540.11402,85.758504 541.49808,85.411125 z"/>
</svg>
