<svg xmlns="http://www.w3.org/2000/svg"
     width="45.4" height="64.0"
     viewBox="621.1194 14.2146 66.7322 94.0716">
  <path d="M 625.45458,45.926508 C 625.11937,45.384129 626.38561,42.591282 628.26846,39.720182 630.1513,36.849082 633.61725,31.229381 635.97059,27.231958 640.29312,19.889598 641.64863,18.3153 642.723,19.389669 643.28455,19.951221 640.81001,26.811408 638.89575,30 638.40046,30.825 637.55744,32.5125 637.02236,33.75 636.48729,34.9875 635.70086,36.00893 635.27475,36.019844 634.84864,36.030758 633.17926,38.264555 631.56503,40.983837 628.56377,46.039641 626.53748,47.678682 625.45458,45.926508 z M 628,74.177582 C 628,73.349451 631.59237,66.748563 637.07636,57.5 638.70699,54.75 641.63783,49.412284 643.58934,45.638409 647.88225,37.336672 659.97194,19 661.15251,19 662.59618,19 662.0956,21.109726 659.75688,24.881966 658.52317,26.871885 656.83567,29.699455 656.00688,31.165456 655.1781,32.631457 652.75102,36.44881 650.61337,39.648462 648.47572,42.848114 646.39746,46.61414 645.99501,48.017408 645.59256,49.420677 643.26141,53.703324 640.81469,57.534403 638.36797,61.365481 635.04624,66.862042 633.43306,69.748983 630.87953,74.318756 628,76.665924 628,74.177582 z M 632.55303,101.08581 C 632.198,100.51135 632.42763,99.019533 633.06334,97.770667 634.15101,95.6339 646.54255,74.443248 649.88741,69 655.03359,60.625375 664,45.592448 664,45.339082 664,45.173946 665.51465,42.667597 667.3659,39.769417 669.21714,36.871238 672.35594,31.270982 674.341,27.324405 677.86559,20.317028 679.54793,18.214597 680.70482,19.371484 681.33613,20.002796 674.46889,34.202963 670.48701,40.5 669.09586,42.7 667.66276,45.175 667.30233,46 666.94191,46.825 664.77034,50.425 662.47663,54 658.51585,60.173296 655.0086,66.204235 650.84577,74 649.81785,75.925 646.52633,81.472271 643.53127,86.32727 640.53622,91.182268 637.82995,95.960421 637.51733,96.945386 636.68662,99.562725 633.33788,102.35571 632.55303,101.08581 z M 651,100.19684 C 651,99.755108 655.24297,92.706527 660.42882,84.533331 665.61466,76.360135 672.25216,65.24798 675.17882,59.839652 678.10547,54.431325 681.09282,50.004905 681.81739,50.003165 683.85153,49.998278 682.50464,53.125575 674.2817,67.5 662.95514,87.299858 654.01876,101 652.4302,101 651.64359,101 651,100.63858 651,100.19684 z M 670,100.95951 C 670,100.38724 670.86043,98.699737 671.91207,97.209507 672.9637,95.719278 674.99435,92.5875 676.42461,90.25 680.9356,82.87762 682.8386,85.458488 678.54973,93.132111 674.74202,99.944831 670,104.28622 670,100.95951 z"/>
</svg>
