<svg xmlns="http://www.w3.org/2000/svg"
     width="43.0" height="64.0"
     viewBox="424.6613 19.3464 58.7802 87.5195">
  <path d="M 475.46875 35.03125 L 474.09375 30.9375 L 474.0625 30.90625 L 471.9375 27.90625 C 470.75259 26.242204 469.13802 25.020877 468.34375 25.1875 C 467.54947 25.354122 465.80218 28.65 464.46875 32.5 C 461.9809 39.683172 458.4515 44 455.03125 44 C 452.14209 44 447.11854 37.150793 445.15625 30.5 C 443.77891 25.831782 442.91218 24.429679 441.25 24.1875 C 435.4773 23.346418 433.73934 36.746421 438.1875 47.65625 L 440.6875 53.78125 L 437.03125 57.21875 C 431.82418 62.12247 428.66134 69.312744 429.28125 74.8125 C 429.89266 80.236988 431.69134 82.362303 433.34375 79.59375 C 435.87026 75.360684 441.35763 70 443.15625 70 C 445.32632 70 446.5134 72.556185 447.53125 79.34375 C 448.02218 82.617479 447.87937 84 447.0625 84 C 445.42886 84 442.0576 91.862379 442.03125 95.71875 C 442.01652 97.874576 442.62599 99.252325 443.90625 99.9375 C 445.51721 100.79966 446.13918 100.44199 447.875 97.5 C 449.00641 95.582391 450.55419 94 451.3125 94 C 453.04624 94 455.54016 96.805427 456.4375 99.75 C 457.38704 102.8659 460.79973 102.67666 462.03125 99.4375 C 463.44181 95.727452 463.22059 91.32517 461.46875 87.9375 C 460.06379 85.220601 460.13237 84.414333 462.125 77.75 C 463.31663 73.764579 464.47122 70.126707 464.71875 69.6875 C 465.48955 68.319829 468.00025 71.12934 470.0625 75.65625 C 472.37237 80.726737 474.34345 81.172377 476.46875 77.0625 C 479.44157 71.313701 477.72187 61.538288 472.8125 56.3125 L 470.71875 54.0625 L 472.875 49.09375 C 474.09924 46.247941 475 42.009839 475 39.1875 C 475 37.145227 475.10615 35.972618 475.46875 35.03125 z M 440.84375 28.03125 C 441.39972 28.243578 441.96293 29.627849 442.34375 32.40625 C 443.64321 41.886834 452.50882 50.929995 457.75 48.125 C 460.78535 46.50053 465.92425 40.246106 466.5 37.46875 C 468.27513 28.905695 468.05573 29.365954 469.25 31.5 C 471.06101 34.736099 471.82509 41.008367 470.84375 44.5625 C 470.33637 46.400075 468.35264 49.20812 466.40625 50.8125 L 462.84375 53.75 L 465.5625 55.875 C 467.05101 57.045865 468.60768 58 469.03125 58 C 470.53981 58 475 66.918414 475 69.9375 C 475 73.715492 473.55517 73.897126 471.8125 70.34375 C 469.98927 66.62611 465.31402 63.279724 463.90625 64.6875 C 463.30779 65.285953 461.50467 69.680861 459.90625 74.4375 C 457.16268 82.601974 457.08675 83.273872 458.5 86.65625 C 459.32336 88.626831 460 91.962127 460 94.0625 C 460 99.375144 458.6551 99.642958 456.9375 94.6875 C 455.03183 89.189426 452.48821 88.697916 448.875 93.125 C 445.58363 97.157754 444.70155 96.698386 446.09375 91.65625 C 446.75289 89.269043 448.00658 87.490176 449.5625 86.78125 C 451.33258 85.974747 452 84.886655 452 82.78125 C 452 78.574703 449.02729 69.84474 446.71875 67.28125 C 444.89901 65.260547 444.489 65.212888 442 66.5 C 440.5051 67.273043 437.90234 69.484404 436.1875 71.4375 C 432.53634 75.595941 432.00173 75.77493 432.03125 72.75 C 432.09266 66.458579 439.60117 57 444.53125 57 C 447.98682 57 448.33954 55.55035 445.65625 52.34375 C 441.6929 47.607446 439 40.981316 439 35.90625 C 439 30.611249 439.91713 27.677371 440.84375 28.03125 z "/>
</svg>
