<svg xmlns="http://www.w3.org/2000/svg"
     width="32.1" height="64.0"
     viewBox="297.0000 19.3336 40.1400 80.0271">
  <path d="M 310.16008,90.760081 C 309.52204,90.122037 308.99345,88.4525 308.98545,87.05 308.96744,83.894795 306.74895,77.411494 303.4796,70.959735 302.11582,68.268449 301,65.162816 301,64.058329 301,62.953841 302.59717,59.092087 304.54927,55.476653 307.73141,49.583095 308.00977,48.468528 307.24033,44.701568 306.20557,39.635714 308.24336,27.328067 310.48863,25.082799 311.83712,23.734305 311.99091,23.836998 311.91562,26.035714 311.86921,27.391071 311.49561,31.2 311.0854,34.5 310.67098,37.83392 310.76506,42.176288 311.29713,44.272479 312.139,47.589178 311.88405,48.740347 309.18692,53.800675 303.96769,63.592951 303.85273,64.232457 306.43009,69.135924 312.09687,79.917041 314.76079,95.360788 310.16008,90.760081 z M 318.92349,91.75 C 318.88141,90.5125 318.68253,88.6 318.48154,87.5 318.28055,86.4 317.83308,83.925 317.48717,82 316.78191,78.075156 312.48122,68.316766 310.41798,65.95977 308.72332,64.023844 310.15047,60.986624 316.08592,53.897379 319.47327,49.851563 320.59478,49.111175 322.58081,49.609639 324.35493,50.054914 325.16048,49.72779 325.66774,48.356069 326.04525,47.335231 326.68876,46.270492 327.09777,45.989983 327.50679,45.709474 328.16955,44.172632 328.57059,42.574779 L 329.29974,39.669592 325.80548,42.334796 C 320.41708,46.444732 319.84541,45.994821 320.61527,38.25 321.41302,30.224565 322.42094,27.159436 324.52812,26.350836 327.24134,25.309674 327.44419,26.906021 325.18861,31.548691 323.07319,35.902848 322.26783,41 323.69528,41 324.07769,41 325.65565,39.787967 327.20187,38.306593 330.27037,35.36679 331.74566,35.867019 332.5147,40.108018 333.13999,43.556322 329.74487,48.596132 324.74957,51.634765 322.41231,53.056518 318.97553,56.258605 317.1123,58.750514 L 313.7246,63.281258 316.4686,68.700478 C 320.94427,77.539634 323.1064,87.953199 321.39301,92.418213 320.49997,94.74543 319.01165,94.342715 318.92349,91.75 z M 314.59777,47.264432 C 312.75753,45.424194 314.48696,29.875026 316.96195,26.008359 318.67398,23.333647 320.2599,26.195627 318.94508,29.587161 318.324,31.189222 317.80728,35.733542 317.79681,39.685649 317.78374,44.61919 317.37312,47.02658 316.48665,47.366748 315.77654,47.639245 314.92654,47.593203 314.59777,47.264432 z"/>
</svg>
