<svg xmlns="http://www.w3.org/2000/svg"
     width="46.7" height="64.0"
     viewBox="838.0000 15.1584 64.8704 88.8416">
  <path d="M 842,38.030679 C 842,36.708355 851.76556,20.262923 853.00603,19.496272 853.55271,19.158404 854,19.418573 854,20.074425 854,21.687399 847.17838,35.063862 845.24094,37.25 843.53659,39.173132 842,39.543266 842,38.030679 z M 863.9844,98.14626 C 861.00982,96.563749 860.2997,95.464017 859.13102,90.630036 857.66494,84.565908 857.71746,84.229773 862.8386,66.903212 L 864.78839,60.306424 861.97934,55.403212 C 860.43436,52.706445 858.28184,48.643021 857.19595,46.373379 854.83213,41.432689 853.40565,32.485361 854.8404,31.598636 855.90396,30.941325 857.27446,34.485105 858.98634,42.318997 859.62117,45.224088 861.67304,49.301737 864.15272,52.586054 L 868.26605,58.034114 866.97969,64.267057 C 866.27219,67.695176 864.86233,72.654159 863.84667,75.28702 860.48253,84.0077 862.10772,94.01039 867.10091,95.316137 868.46561,95.673014 871.52157,94.755907 875.26583,92.865812 881.57988,89.678488 882.50169,89.712967 891.25,93.463689 894.14225,94.703701 893.40295,90.460343 890.33772,88.227481 887.6716,86.285341 887.65296,85.359989 890.20827,81.797964 892.59801,78.466716 889.84444,78.663151 883.10197,82.304914 875.328,86.50381 873.19682,86.790536 869.86078,84.086362 867.91693,82.510683 867.52705,81.318598 867.65317,77.336362 867.83001,71.752554 871.19636,62.522222 874.24936,59.25 876.9696,56.334439 879.84443,56.40521 884.40486,59.5 888.98898,62.610868 889.55574,62.607664 891.61868,59.459217 894.53812,55.003592 897.30139,33.922339 895.141,32.587144 894.49902,32.190377 893.82192,33.053745 893.47685,34.709102 889.78353,52.426574 885.9585,55.889001 875.38391,51.086884 870.54869,48.891119 867.15713,44.733633 863.58678,36.62557 860.61884,29.885554 860.3831,28 862.50838,28 863.4261,28 865.54832,31.31507 867.92797,36.465797 872.28705,45.901011 875.78703,48.989728 882.12686,48.996262 885.5067,48.999745 885.89027,48.676497 887.75884,44.25 888.86166,41.6375 890.06054,37.423261 890.42301,34.885025 890.78548,32.346789 891.69794,29.427763 892.45071,28.3983 893.76899,26.595445 893.89245,26.592694 895.80503,28.323554 898.43975,30.707947 898.8704,34.411636 897.82952,45.734747 896.9534,55.265503 895.46735,59.639391 891.70871,63.75 889.17703,66.518758 887.98164,66.559995 884.71597,63.991222 883.31141,62.886395 880.8523,61.720459 879.25128,61.400255 876.48155,60.84631 876.21079,61.11676 873.67016,66.974947 870.6341,73.975519 870.29315,78.150297 872.57143,80.428571 874.34674,82.203886 876.58684,82.477525 877.4824,81.028472 877.81264,80.494132 879.9767,79.204106 882.29142,78.161747 884.60614,77.119388 887.54895,75.334684 888.83099,74.195738 890.11303,73.056792 891.80442,72.371453 892.58962,72.672764 894.67925,73.474632 895.42708,77.701814 894.19151,81.727669 893.32107,84.563818 893.4164,85.705874 894.68523,87.642349 896.20682,89.964587 896.10505,97.228283 894.52884,98.80449 894.17722,99.156113 891.71056,98.218948 889.04738,96.721902 883.37503,93.533314 880.17535,93.301293 876.88486,95.839952 875.10778,97.210991 868.87302,100 867.58518,100 867.52117,100 865.90082,99.165817 863.9844,98.14626 z"/>
</svg>
