<svg xmlns="http://www.w3.org/2000/svg"
     width="22.7" height="64.0"
     viewBox="1086.5540 26.2415 26.1892 73.7585">
  <path d="M 1103.4073,91.75 C 1104.5204,87.840374 1106.0066,60.777858 1105.4805,54 1105.203,50.425 1104.4766,43.992232 1103.8663,39.70496 1102.7552,31.898712 1102.9637,30.241514 1104.9063,31.442086 1107.0404,32.761057 1108.0734,40.450374 1108.4371,57.72357 1108.7432,72.264459 1107.7495,87.361259 1106.0659,93.75 1106.0296,93.8875 1105.2725,94 1104.3834,94 1103.1837,94 1102.932,93.419634 1103.4073,91.75 z M 1096,55.6875 1096,59.6875 C 1096.0266,59.709779 1096.1004,59.69416 1096.125,59.71875 1096.9416,60.535362 1096.7369,61.869121 1096,63 L 1096,63.4375 1095.125,69.5625 C 1096.5174,70.772223 1096.0534,74.578936 1093.5,84.40625 1090.5933,95.593416 1090.554,96 1092.375,96 1096.4803,96 1101.8311,62.058595 1099.9062,48.21875 1099.3348,44.110304 1098.4492,39.685062 1097.9375,38.375 1097.4258,37.064937 1096.5393,34.808311 1095.9688,33.34375 1095.2185,31.417232 1094.6346,30.990365 1093.8438,31.78125 1093.0529,32.572134 1093.3129,35.16836 1094.8125,41.1875 1097.4661,51.838727 1097.7359,54.974884 1096,55.6875 z"/>
</svg>
