<svg xmlns="http://www.w3.org/2000/svg"
     width="56.5" height="64.0"
     viewBox="1025.7365 18.7291 74.2635 84.1273">
  <path d="M 1096 55.6875 C 1095.7177 55.803384 1095.5203 56 1095.125 56 C 1094.0922 56 1091.6308 56.675 1089.6562 57.5 C 1087.6817 58.325 1085.7698 59 1085.4062 59 C 1085.0426 59 1082.3376 56.488348 1079.4062 53.4375 L 1074.0938 47.90625 L 1071.0312 49.5 C 1068.2738 50.92586 1067.9115 50.929343 1067.375 49.53125 C 1067.0477 48.678113 1067.0851 45.446329 1067.4688 42.375 C 1068.1479 36.93958 1068.2493 36.825344 1070.8438 37.46875 C 1077.2883 39.066929 1079.0946 39.166342 1080.5 38 C 1082.4934 36.345601 1082.3606 33.381605 1080.0312 28.25 C 1077.6816 23.073471 1075.2378 22.72912 1071.1562 27 C 1069.5794 28.65 1067.8127 30 1067.25 30 C 1066.6873 30 1065.0308 28.425 1063.5625 26.5 C 1062.0942 24.575 1060.0717 23 1059.0625 23 C 1058.0532 23 1055.5997 24.654417 1053.625 26.6875 L 1050.0625 30.40625 L 1047.7812 28.3125 C 1043.9639 24.834321 1041.2265 23.793907 1039.0312 24.96875 C 1036.3377 26.410326 1035.2832 32.62349 1037.1562 35.9375 C 1038.4257 38.183644 1039.2591 38.5 1043.9688 38.5 L 1049.3125 38.5 L 1051.2812 43.21875 C 1053.4425 48.447485 1053.058 51.685304 1050.4375 50.21875 C 1048.846 49.328101 1043.4374 50.21108 1037.625 52.3125 C 1033.1292 53.937911 1029.7365 62.216668 1030.2812 70.21875 C 1030.8716 78.889632 1033.262 79.086977 1035.9688 70.6875 C 1038.1027 64.065685 1046.2948 60.731856 1049.4375 65.21875 C 1051.6908 68.435851 1051.4776 69.29203 1046.5 76.5625 C 1044.025 80.177609 1042 84.033344 1042 85.125 C 1042 86.216655 1043.5818 89.56392 1045.5 92.5625 C 1049.2885 98.484903 1049.9872 98.856443 1052.5312 96.3125 C 1053.8724 94.971375 1054.1174 93.533329 1053.625 89.34375 C 1053.0854 84.751931 1053.2775 83.810712 1055.1875 82.03125 C 1057.953 79.454803 1058.5206 79.481968 1060.4375 82.21875 C 1061.4021 83.595948 1062 86.611217 1062 90.125 C 1062 94.242959 1062.4107 95.956993 1063.5 96.375 C 1065.9909 97.330839 1067.5832 96.120095 1069.8438 91.59375 C 1072.3237 86.628299 1072.5374 82.564104 1070.5 79 C 1068.6342 75.736055 1068.6478 72.579762 1070.5312 68.9375 C 1072.4731 65.18249 1074.0803 65.236437 1077.9688 69.125 C 1080.7939 71.950057 1081.4737 72.1708 1085.2812 71.5625 C 1087.5945 71.192912 1089.915 70.459348 1090.4375 69.9375 C 1090.96 69.415652 1092.4225 69 1093.6875 69 C 1094.3314 69 1094.7554 69.241409 1095.125 69.5625 L 1096 63.4375 L 1096 63 C 1095.279 64.106559 1094.0403 65.012274 1092.7188 65.03125 C 1091.5006 65.048742 1089.6301 65.723742 1088.5625 66.53125 C 1085.5633 68.799707 1083.3367 68.295891 1079.0312 64.40625 L 1075.0938 60.84375 L 1072.0625 62.625 C 1069.0568 64.400504 1064.9929 71.373359 1065 74.75 C 1065.0021 75.718494 1065.9021 77.980456 1067 79.78125 C 1069.3307 83.603962 1069.5065 87.489914 1067.5 91 C 1066.0801 93.483925 1066.057 93.474279 1066 89.5 C 1065.9428 85.513606 1063.5907 79.298677 1060.6875 75.5 C 1059.1718 73.516715 1059.1522 73.506559 1056.5312 75.96875 C 1051.4803 80.713826 1049.8156 84.487704 1050.5625 89.46875 C 1051.4338 95.279062 1050.0163 95.259919 1047.1875 89.4375 C 1044.6738 84.263524 1044.7885 83.909894 1050.9375 76.46875 C 1055.2204 71.285876 1055.7053 69.285884 1053.9062 64.125 C 1051.0482 55.92625 1040.3148 57.72147 1035.3438 67.21875 L 1033.0938 71.5 L 1033.0312 67.1875 C 1032.9813 62.438936 1035.0662 57.561177 1037.75 56.125 C 1041.1787 54.290138 1048.7133 53.758326 1052.4062 55.09375 C 1056.9076 56.721429 1058.34 55.612636 1057.0625 51.46875 C 1051.6277 33.840752 1051.6535 33.944009 1053.75 31.125 C 1056.6157 27.271691 1059.3357 27.28293 1062.0938 31.15625 C 1064.2305 34.15715 1064.3932 35.26156 1064.125 45.09375 C 1063.803 56.901969 1064.4802 58.34739 1068.6562 55.0625 C 1072.3815 52.132275 1074.5159 52.492105 1076.8438 56.4375 C 1077.9594 58.328371 1080.2927 60.616075 1082.0625 61.53125 C 1085.1437 63.124632 1085.4905 63.091568 1090.1562 60.90625 C 1093.5134 59.333844 1095.2009 59.017762 1096 59.6875 L 1096 55.6875 z M 1041.625 29 C 1043.6493 29 1045.9524 31.969571 1045.2812 33.71875 C 1044.7595 35.078373 1041.7913 35.478908 1040.6562 34.34375 C 1039.2664 32.954026 1039.9817 29 1041.625 29 z M 1075.4375 29.34375 C 1077.1254 29.991462 1079.0637 33.974067 1078.3125 35.25 C 1077.5734 36.505213 1075.6295 36.06131 1073 34.03125 C 1070.6619 32.226167 1070.6233 31.981639 1072.1875 30.40625 C 1073.1174 29.46964 1074.547 29.002025 1075.4375 29.34375 z "/>
</svg>
