<svg xmlns="http://www.w3.org/2000/svg"
     width="33.6" height="64.0"
     viewBox="470.0938 21.7616 41.0844 78.2384">
  <path d="M 492.21399,95.132255 C 491.35139,94.599138 491.87277,93.538011 493.99753,91.502366 496.41875,89.182693 497,87.796951 497,84.344294 497,80.949337 496.6894,80.181959 495.5,80.638374 493.29143,81.48588 493.63527,78.640053 496,76.5 497.35079,75.277555 498,73.420033 498,70.777625 498,67.3203 497.76737,66.939059 496,67.5 494.67662,67.920025 494,67.6797 494,66.789629 494,66.049798 494.9,64.673878 496,63.732028 497.29484,62.623354 498,60.78209 498,58.509787 498,55.666667 497.62011,55 496,55 493.64423,55 493.36565,52.771355 495.5,51 496.325,50.315311 497,48.235211 497,46.377555 497,43.769017 496.58258,43 495.16667,43 492.29443,43 491.91896,41.945766 493.71086,38.912336 495.07041,36.610799 495.1557,35.637146 494.18451,33.505599 492.53422,29.883617 492.69415,29 495,29 496.1,29 497,29.653382 497,30.451959 497,31.250537 499.025,33.297155 501.5,35 503.975,36.702845 506,38.449463 506,38.881374 506,40.492861 504.72015,40.844098 502.25849,39.908178 498.99993,38.669275 498.72726,39.029231 499.56036,43.470031 500.03965,46.024885 500.95483,47.412529 502.56404,48.024347 505.52782,49.151176 507.17815,52.123401 505.91193,54.053882 505.10549,55.283385 504.80891,55.237866 503.93201,53.75 502.26367,50.91926 501,51.731817 501,55.635329 501,58.228501 501.71669,59.934862 503.5,61.58758 506.22977,64.117445 506.42372,64.781978 505.0609,66.935698 504.308,68.125538 503.88251,68.147382 502.57622,67.063253 501.17773,65.902615 501,66.307653 501,70.655314 501,74.371261 501.49963,75.983316 503.06737,77.325654 505.48216,79.393263 505.15237,81.5 502.41391,81.5 500.86737,81.5 500.4397,82.341847 500.18586,85.885864 500.01309,88.298088 500.35059,90.750588 500.93586,91.335864 501.97381,92.373806 502.44898,96 501.54705,96 501.29793,96 499.96126,95.48384 498.57667,94.852978 496.75543,94.023165 495.69608,94.007345 494.74608,94.795776 494.02384,95.395176 492.8844,95.546592 492.21399,95.132255 z M 475.46875,35.03125 C 475.92218,33.85406 476.80808,33.082723 478.75,31.8125 480.8125,30.463409 483.35178,29.048276 484.40625,28.65625 485.91758,28.094372 486.05964,27.678276 485.09375,26.71875 484.13025,25.761589 482.8479,26.077838 479,28.21875 L 474.09375,30.9375 475.46875,35.03125 z"/>
</svg>
