<svg xmlns="http://www.w3.org/2000/svg"
     width="23.4" height="64.0"
     viewBox="722.2071 14.9614 31.7929 87.0937">
  <path d="M 750,95.125 750,90.84375 C 748.91552,92.614677 747.68454,94.694536 747.125,95.75 746.14658,97.59559 746.18971,98 747.375,98 747.67686,98 748.68772,96.854733 750,95.125 z M 750,59 750,53.71875 C 749.96933,53.779031 749.87104,53.945289 749.84375,54 749.15797,55.375 747.31759,58.388404 745.78125,60.6875 744.24491,62.986597 743,65.113167 743,65.4375 743,65.761833 741.8025,67.939194 740.34375,70.25 737.35114,74.990603 728.24912,92.28225 726.875,95.84375 726.20708,97.574873 726.31778,98.055149 727.25,97.75 728.49784,97.341536 732.26842,90.968334 738,79.59375 739.63913,76.340829 741.60835,72.965829 742.375,72.09375 743.14166,71.221671 745.12813,67.8 746.78125,64.5 747.58318,62.89916 748.83987,60.998135 750,59 z M 741.5,19 C 740.36275,18.96144 738.50412,52.290961 739.5,54.875 740.96891,58.686424 741.81994,52.807507 742.15625,36.28125 742.3809,25.242067 742.14071,19.021724 741.5,19 z M 729.40625,19.28125 C 728.64919,20.03831 727.83795,66.952646 728.5625,68.125 730.27536,70.89647 730.89295,65.692607 731.4375,43.8125 731.848,27.318897 731.6907,19.934252 730.9375,19.46875 730.3427,19.101143 729.66685,19.020642 729.40625,19.28125 z"/>
</svg>
