<svg xmlns="http://www.w3.org/2000/svg"
     width="54.0" height="64.0"
     viewBox="934.8748 6.4409 79.7301 94.5799">
  <path d="M 979.29861,92.5 C 977.08263,87.853054 973.00299,87.651321 969.18709,92 964.78146,97.020741 963.4625,95.883174 963.96952,87.5 964.06931,85.85 965.24199,82.900812 966.57548,80.946249 969.57155,76.554747 969.58914,74.972148 966.72537,67.46375 964.71035,62.180681 963.91128,61.231027 959.72433,59.143408 955.00766,56.791664 952.2751,56.819871 951.59523,59.227319 951.39755,59.927293 950.68497,62.525 950.01171,65 949.33845,67.475 948.39223,70.4 947.909,71.5 946.32675,75.101712 948.17212,63.745781 949.94028,59 951.49659,54.82281 951.85044,54.518834 954.87286,54.762543 956.66365,54.906942 959.86413,55.910359 961.98502,56.99236 965.14925,58.606626 966.23539,59.995034 968.03797,64.729817 970.57205,71.385981 971.71468,78.913172 970.33374,79.853403 968.39171,81.175663 966,85.518469 966,87.722506 966,90.512489 966.48693,90.548742 969.72713,88 973.09666,85.349529 976.14179,85.475297 979.29226,88.395052 980.71363,89.712331 982.12934,90.537331 982.43828,90.228385 983.59175,89.07492 982.9287,85.395324 980.99626,82.22583 979.89832,80.425037 979,78.015842 979,76.872064 979,74.187169 985.25027,62.288113 988.50346,58.779694 991.50299,55.544838 993.00423,55.936653 996.3387,60.824653 1000.189,66.468851 1001.2771,72.128478 1000.4951,82.44407 999.86533,90.750536 999.94165,91.371827 1001.4173,89.951256 1003.8345,87.624203 1007,75.333053 1007,68.274181 1007,61.517869 1003.6364,49.276208 1001.2409,47.314093 1000.1953,46.457629 999.05785,46.415051 997.14652,47.160824 995.69094,47.728775 992.33568,48.765971 989.6904,49.465704 983.16214,51.192569 982,49.970529 982,41.378912 982,32.690707 983.79131,29.471049 990.31506,26.433623 995.938,23.815608 999.48606,23.359415 1000.571,25.114958 1000.95,25.728185 1001.3141,28.16578 1001.3801,30.531836 1001.6302,39.503073 1004.7926,35.914757 1005.1753,26.225557 1005.5916,15.684075 1002.6563,14.682356 991.08789,21.418067 980.80576,27.404862 979.19617,27.528616 976.57856,22.533615 973.89767,17.417835 970.13528,15.21466 966.35202,16.545162 959.81855,18.842858 961.68265,29.634753 969.25184,33.333236 973.86597,35.587809 974.44583,37.663396 972.79059,46 971.20556,53.982938 969.96868,54.400115 960.77049,50.054175 951.90024,45.863183 950.14414,46.056992 946.61993,51.615883 944.17281,55.475825 943.66452,57.480029 943.2387,64.948138 942.76411,73.271708 943.76316,80.586148 946.25068,87 947.17244,89.376674 947.2607,89.401339 948.03985,87.5 948.71044,85.863573 948.87221,86.104135 948.92971,88.823324 948.98558,91.464681 948.64089,92.0803 947.25,91.823324 944.50829,91.316775 942.02025,84.968933 940.98198,75.831423 938.87478,57.286702 945.10169,42.78115 954.51402,44.308563 956.32363,44.602222 960.3546,46.091288 963.47174,47.617601 970.09186,50.859159 970.95992,50.318224 970.98469,42.935855 970.99889,38.703446 970.6813,38.132914 966.61514,35.086273 961.56802,31.304624 960,28.460562 960,23.087806 960,15.911848 967.08428,10.440864 972.64967,13.318837 976.24035,15.175649 978.5634,17.72146 979.91787,21.283987 981.139,24.495789 980.50871,24.714832 994,16.390044 999.69737,12.874487 1002.4743,12.642903 1005.6897,15.415161 1008.3016,17.667075 1008.485,18.311099 1008.287,24.536653 1008.0527,31.907106 1005.4906,38.268629 1002.523,38.848393 1000.209,39.300465 999.03812,37.356786 999,33 998.94755,27.006182 997.91311,26.399437 992.38493,29.119963 986.65397,31.940286 985.03463,34.696978 985.01474,41.666667 984.99728,47.785483 985.68804,48.205559 992.5,46.21872 1001.138,43.69927 1003.2545,43.996016 1005.2047,48 1010.5769,59.029687 1010.6049,75.382992 1005.2717,87.091339 1002.2847,93.648911 999.39832,96.262528 997.87156,93.792177 997.43797,93.090618 997.37997,91.387877 997.74267,90.008308 998.10537,88.628738 998.42414,83.225 998.45106,78 998.49375,69.713075 998.18918,67.957309 996.06586,64.25 993.61312,59.967535 991.15497,58.90342 989.18851,61.272855 988.60751,61.972924 986.75241,65.16862 985.06607,68.3744 982.02601,74.153639 981.18862,78.380504 982.877,79.423985 983.35936,79.722095 984.26567,81.997996 984.89104,84.481541 985.80975,88.130088 985.74716,89.669365 984.56506,92.498539 982.71801,96.919153 981.40613,96.919517 979.29861,92.5 z"/>
</svg>
