<svg xmlns="http://www.w3.org/2000/svg"
     width="31.5" height="64.0"
     viewBox="482.6223 9.6382 46.2028 93.7747">
  <path d="M 489.61,86.177976 C 488.30107,84.060088 486.70171,64.454154 486.65877,50 486.62228,37.7195 486.98039,33.411967 488.38282,29.261762 490.02779,24.393822 491.54007,22.206742 492.55756,23.224223 492.79103,23.457695 492.25469,26.315255 491.36569,29.574358 489.51181,36.370767 489.35224,56.441495 491.02806,72.040611 491.58699,77.243275 492.14683,82.579456 492.27215,83.898791 492.50229,86.321723 490.66892,87.891353 489.61,86.177976 z M 498.65799,98.324657 C 497.44155,97.108214 497.98458,94.984685 500.55221,90.91729 501.95593,88.693658 502.99166,86.115101 502.85384,85.187162 502.71601,84.259223 503.34802,82.097552 504.2583,80.383448 508.37786,72.626073 510.13822,45.027164 507.55745,28.659247 506.61735,22.696833 506.07415,17.592514 506.35035,17.316317 507.00679,16.659877 510,22.462346 510,24.391323 510,28.7363 515.18047,26.408443 518.10349,20.75 521.77729,13.638176 524.82508,17.322741 523.63616,27.438605 522.64565,35.866299 520.39377,40.107461 514.23559,45.143516 512.62312,46.462169 512.186,48.142308 512.02419,53.643516 511.66767,65.764323 511.98222,68.352171 514.08396,70.58937 518.31537,75.093502 521.31243,87.416288 519.39301,92.418213 518.49127,94.768109 517.1591,94.376458 512.86832,90.5 510.73758,88.575 508.39746,87 507.66806,87 506.93866,87 505.28133,89.264297 503.98512,92.03177 501.4963,97.345511 499.74621,99.412874 498.65799,98.324657 z M 517.52479,86.280475 C 516.72369,82.010212 512.18969,73.764734 511.03506,74.478331 510.60901,74.741648 509.69218,76.328933 508.99767,78.005631 507.78319,80.937646 507.90244,81.219068 512.11746,85.368048 514.52786,87.740679 516.88758,89.75349 517.36129,89.840961 517.835,89.928433 517.90858,88.326214 517.52479,86.280475 z M 518.09742,35.272721 C 520.01695,30.794653 520.6546,25 519.22784,25 518.80316,25 516.76582,26.392931 514.70043,28.095402 511.2824,30.912828 510.99953,31.518998 511.5505,34.845402 511.88343,36.855431 512.32873,39.054914 512.54006,39.733141 513.26606,42.063147 516.19406,39.713098 518.09742,35.272721 z"/>
</svg>
