<svg xmlns="http://www.w3.org/2000/svg"
     width="34.6" height="64.0"
     viewBox="525.6434 11.1447 41.0363 75.8553">
  <path d="M 543.44041,61.75 C 543.71292,55.0125 543.95031,48.7125 543.96794,47.75 543.98557,46.7875 544.48543,46 545.07873,46 545.8013,46 546.08683,49.87945 545.94356,57.75 545.71036,70.560343 545.27019,74 543.86407,74 543.3283,74 543.1516,68.890715 543.44041,61.75 z M 548,76.2 C 548,75.21 548.40914,73.9725 548.90921,73.45 549.40928,72.9275 550.5122,70.13015 551.36016,67.233666 552.95689,61.779511 552.82139,56.299332 550.83034,45.804397 549.75107,40.115502 549.75421,40.102794 553.48914,35.014788 556.97987,30.259467 559.44929,23.782624 558.2347,22.568038 557.94205,22.275387 555.96823,23.602859 553.84843,25.517973 551.72862,27.433088 549.54553,29 548.99712,29 547.28296,29 547.90331,27.222432 550.28051,25.32258 551.53479,24.320161 553.8382,21.8125 555.3992,19.75 558.7155,15.368271 559.6532,15.144747 561.12915,18.384119 562.67976,21.787326 560.65448,30.304985 556.90556,36.147169 554.04467,40.605486 553.94793,41.085483 555.08561,45.177877 557.57362,54.127603 555.70724,71.893029 551.76873,76.75 550.27013,78.598079 548,78.266782 548,76.2 z M 535.56799,78.923374 C 531.13685,72.227477 529.64341,57.478979 532.55107,49.129727 533.38815,46.726077 534.82146,43.351077 535.73621,41.629727 538.23518,36.927249 538.41418,40.483057 536.02768,47.419544 532.70633,57.073218 533.74367,69.465492 538.50441,77.006992 540.86825,80.751554 541.0819,83 539.07387,83 538.62942,83 537.05177,81.165518 535.56799,78.923374 z"/>
</svg>
