<svg xmlns="http://www.w3.org/2000/svg"
     width="45.3" height="64.0"
     viewBox="-1.0297 10.8943 66.0377 93.2628">
  <path d="M 4.4008599,73.397759 C 4.7390205,72.516527 6.8870265,69.029027 9.1742066,65.647759 17.797358,52.899667 18.81954,51.331048 22.858715,44.647796 25.136422,40.879084 27,37.57198 27,37.298677 27,36.146541 37.980898,18.260743 39.42308,17.063838 42.03719,14.89432 41.420106,19.342321 38.644867,22.673275 37.349544,24.227974 35.741715,27.181232 35.071912,29.236072 34.402109,31.290911 33.477354,33.204979 33.016899,33.489556 32.556445,33.774132 30.537295,36.994974 28.5299,40.646981 25.103574,46.880417 18.293666,57.688882 10.193451,69.75 6.9033348,74.648941 2.970327,77.125668 4.4008599,73.397759 z M 4.7016717,43.368338 C 3.9242792,42.590946 7.5206642,36.293217 15.409704,24.617209 18.710677,19.731673 21.576081,16.228243 21.777269,16.831808 22.195451,18.086352 21.69881,19.083816 13.5,33.456064 7.9325876,43.215557 6.3414641,45.008131 4.7016717,43.368338 z M 5.1544965,18.448034 C 5.3445234,17.467768 6.1054766,16.464117 6.8455035,16.217698 7.7061298,15.931122 8.0664983,16.41195 7.8455035,17.551966 7.6554766,18.532232 6.8945234,19.535883 6.1544965,19.782302 5.2938702,20.068878 4.9335017,19.58805 5.1544965,18.448034 z M 9,98.009716 C 9,97.46506 10.953481,94.16608 13.341068,90.678651 15.728656,87.191222 18.736519,82.46185 20.025209,80.168936 21.313899,77.876021 22.735419,76 23.184141,76 23.632863,76 24,75.616721 24,75.148269 24,74.679817 26.051947,71.192317 28.559882,67.398269 31.067817,63.604221 37.62349,52.317144 43.128043,42.315876 48.632596,32.314608 53.780649,23.597008 54.568161,22.943432 55.355672,22.289855 56,21.190311 56,20.5 56,19.809689 56.669675,18.689108 57.488167,18.009821 60.434972,15.56419 60.388501,19.815979 57.419693,24.27477 55.872381,26.598647 53.632905,30.3 52.44308,32.5 51.253255,34.7 48.889733,38.75 47.190808,41.5 45.491884,44.25 43.220191,48.376443 42.142602,50.669873 41.065013,52.963302 38.342096,57.551111 36.091675,60.865003 33.841254,64.178895 32,67.145042 32,67.45644 32,67.767838 30.246036,70.60503 28.102303,73.761309 25.95857,76.917589 22.692182,81.975 20.843664,85 15.42669,93.864584 11.58987,98.921369 10.25,98.962049 9.5625,98.982922 9,98.554372 9,98.009716 z M 31.55694,96.09213 C 31.248338,95.592802 34.115328,90.011527 37.928028,83.689297 41.740729,77.367066 45.766976,70.463108 46.875243,68.347166 49.393435,63.53935 53.915958,58.07044 53.964037,59.774964 54.011128,61.444444 45.238146,78.302081 39.535488,87.5 33.402277,97.392366 32.776814,98.065929 31.55694,96.09213 z M 50,97.57826 C 50,96.796302 51.9125,93.254462 54.25,89.707502 56.5875,86.160543 59.036037,82.412826 59.691193,81.379243 60.813977,79.607921 60.885762,79.632065 60.941193,81.79966 61.007979,84.411352 59.040637,88.567687 54.811333,94.75 51.860512,99.063451 50,100.15712 50,97.57826 z"/>
</svg>
