<svg xmlns="http://www.w3.org/2000/svg"
     width="27.1" height="64.0"
     viewBox="1087.8375 10.4873 38.8187 91.6689">
  <path d="M 1122.6562,81.9375 C 1122.6342,81.920263 1122.616,81.923784 1122.5938,81.90625 1121.16,80.778438 1120,79.407352 1120,78.875 1120,78.342649 1119.0959,76.70898 1118,75.21875 1116.2629,72.85647 1115.9453,70.449579 1115.5312,56.5 1114.9295,36.232249 1111.0915,17.000646 1107.3438,15.5625 1104.5419,14.487309 1104.0096,16.086618 1105.9062,19.8125 1109.0322,25.953332 1111.9262,44.091124 1112.0938,58.5 1112.2654,73.268918 1113.5254,77.287568 1120,84.09375 1120.6473,84.774234 1121.2308,85.28557 1121.8438,85.84375 L 1122.6562,81.9375 z M 1120.0625,94.6875 C 1117.688,94.956103 1116.9472,94.336906 1113.9375,89.84375 1111.9731,86.910948 1109.692,84.37615 1108.875,84.21875 1108.058,84.06135 1105.6581,85.077916 1103.5625,86.5 1101.467,87.922084 1099.507,88.850766 1099.1875,88.53125 1098.868,88.211733 1099.1812,86.038918 1099.875,83.71875 1103.8055,70.573375 1105.0981,58.708129 1104.7188,39.46875 1104.4869,27.713525 1103.8921,19.683605 1103.1875,18.46875 1102.5601,17.386908 1102.011,16.725 1101.9688,17 1101.9265,17.275 1101.7542,27.4 1101.5625,39.5 1101.3707,51.6 1100.7515,64.2 1100.1875,67.5 1098.6875,76.277362 1096.4179,85.334317 1095.125,87.75 1091.8375,93.892762 1095.2035,95.259165 1102.0312,90.5625 1104.8894,88.596462 1107.5236,87 1107.875,87 1108.2264,87 1109.4006,88.851052 1110.5,91.125 1111.7207,93.64989 1113.8404,95.971018 1115.9375,97.09375 1117.028,97.677618 1118.1676,98.000443 1119.3438,98.15625 L 1120.0625,94.6875 z"/>
</svg>
