<svg xmlns="http://www.w3.org/2000/svg"
     width="24.0" height="64.0"
     viewBox="1296.0074 24.0738 29.9926 80.0877">
  <path d="M 1307.0212,95.716279 C 1303.9408,94.157663 1300.0384,87.447666 1300.0165,83.671868 1300.0074,82.116396 1301.5749,77.569307 1303.4999,73.567226 1306.7194,66.8735 1306.9519,65.778505 1306.4027,59.895358 1305.9062,54.577719 1303.4561,40.888044 1301.2758,31.25 1300.5573,28.073761 1302.6569,28.435846 1304.3899,31.787034 1306.4555,35.781471 1308.9974,48.927152 1309.0153,55.707842 1309.0332,62.479379 1309.573,63.603752 1313.2492,64.526417 1314.7503,64.903159 1317.3333,66.754495 1318.9892,68.640497 1321.7693,71.806889 1322,72.649076 1322,79.633667 1322,93.511583 1315.8065,100.16148 1307.0212,95.716279 z M 1315.1504,93.919509 C 1318.1425,92.318182 1320.0029,86.869985 1319.9778,79.782119 1319.9621,75.345422 1319.448,72.873426 1318.2278,71.36704 1315.9826,68.595301 1312.5296,66.859552 1310.6759,67.570873 1308.5967,68.368743 1303,79.245801 1303,82.488848 1303,86.856819 1306.0403,92.109002 1309.421,93.581015 1313.2196,95.235069 1312.7447,95.207008 1315.1504,93.919509 z M 1308.6257,86.482862 C 1306.7095,84.566605 1306.6238,83.377628 1308.0974,79.15041 1309.2779,75.764125 1311.5277,75.874023 1310.6385,79.274532 1309.8984,82.104381 1311.6585,85 1314.1185,85 1317.041,85 1315.8952,87.434358 1312.7986,87.804291 1311.3977,87.971651 1309.5199,87.377008 1308.6257,86.482862 z"/>
</svg>
