<svg xmlns="http://www.w3.org/2000/svg"
     width="31.4" height="64.0"
     viewBox="671.5028 13.0389 43.0052 87.6834">
  <path d="M 696.94428,93.47969 C 695.04993,92.093519 692.90686,90.181019 692.18191,89.22969 690.95827,87.623957 690.70745,87.687879 688.68191,90.121644 685.48302,93.965225 682.62597,95.18849 679.56547,94.024894 676.62966,92.908698 676.5207,92.636549 678.28291,90.821429 684.06039,84.870502 687.01998,75.969345 684.95786,70.746088 684.25302,68.96074 682.90179,66.6 681.95513,65.5 675.50285,58.002524 675.50909,48.977607 681.97224,40.762073 683.78547,38.457224 684.01656,37.270896 683.43323,33.262073 683.05211,30.642933 682.12373,27.284847 681.37015,25.79966 680.61657,24.314473 680,22.332228 680,21.394672 680,19.851255 680.19885,19.869981 682.10238,21.592652 687.24314,26.24498 688.60025,35.759881 684.94176,41.5 679.21252,50.489096 679.18469,54.369947 684.78796,62.948835 690.199,71.233392 690.5012,76.661733 686.03102,85.277574 682.46236,92.155834 684.36752,93.42396 688.6187,87 691.58126,82.523266 692.58034,82.102397 693.48424,84.950349 694.14074,87.018801 700.39359,91.394395 701.8903,90.832712 702.37792,90.64972 701.68864,87.35 700.35857,83.5 697.52666,75.302804 697.8014,72.621758 702.07138,66.785713 705.03144,62.740024 705.17693,62.126935 704.66915,55.838802 704.36418,52.062142 703.23676,47.424256 702.06563,45.12864 700.92953,42.90171 700,40.187471 700,39.096998 700,36.33819 703.90086,30 705.59878,30 707.58764,30 707.33784,31.624029 704.82651,35.020787 L 702.65302,37.960589 705.38673,43.36366 C 710.50806,53.48579 709.90239,61.715084 703.3363,71.223205 700.54165,75.270031 700.5474,76.064818 703.44913,86.826835 704.38736,90.306594 704.90926,93.794094 704.60889,94.576835 703.78561,96.722264 700.78951,96.293389 696.94428,93.47969 z M 693.32239,29.800188 C 692.76919,29.085085 691.58179,26.606987 690.68371,24.293304 687.86785,17.038898 692.54297,17.577085 695.58493,24.85752 696.82545,27.826481 696.84201,28.586565 695.69126,29.737314 694.57686,30.85171 694.1447,30.863181 693.32239,29.800188 z"/>
</svg>
