<svg xmlns="http://www.w3.org/2000/svg"
     width="37.1" height="64.0"
     viewBox="1162.6680 42.6875 35.0881 60.4631">
  <path d="M 1173.75,46.6875 1170.3438,46.96875 C 1170.1329,47.725449 1169.8268,48.643998 1169.3125,49.9375 1166.668,56.588605 1166.8736,70.107117 1169.6875,75.5 1171.5884,79.143144 1171.6298,79.687115 1170.25,81.75 1168.0818,84.991569 1166.8153,92.763381 1168.0625,95.09375 1169.3612,97.520368 1171.6774,97.551245 1172.4375,95.15625 1173.3764,92.198091 1177.4782,88.943269 1180.5312,88.71875 1183.3696,88.510024 1184.0774,89.54904 1186.6875,98 1187.0429,99.150643 1187.701,98.839789 1189.5625,96.6875 1192.4484,93.35075 1192.6827,89.370174 1190.3438,82.84375 1188.7322,78.347199 1188.7541,78.013804 1190.8438,73.15625 1193.2692,67.518363 1193.7561,57.458826 1191.875,52.0625 1191.5086,51.011443 1191.3778,50.310331 1191.375,49.65625 L 1187.2812,48.96875 C 1187.2448,49.494893 1187.3211,50.020419 1187.5,50.6875 1187.913,52.22776 1188.4386,56.998722 1188.6875,61.28125 1189.0714,67.885143 1188.8243,69.607699 1187.0625,72.59375 1184.4944,76.946349 1184.5118,77.611849 1187.0312,82.3125 1189.349,86.636852 1190.8059,95 1189.25,95 1188.694,95 1188.0053,93.71421 1187.6875,92.125 1187.3697,90.53579 1186.0283,87.959865 1184.7188,86.4375 L 1182.3438,83.6875 1178.2812,85.96875 C 1176.0464,87.224768 1173.6898,89.373368 1173.0625,90.75 1172.4353,92.126632 1171.6255,92.938075 1171.25,92.5625 1169.848,91.160522 1171.2823,84.459927 1173.5625,81.75 1175.7498,79.150575 1175.9276,76 1173.9062,76 1173.4306,76 1172.3146,73.436997 1171.4062,70.3125 1169.4764,63.673756 1169.9989,55.169338 1172.6875,49.53125 1173.2695,48.310906 1173.5787,47.472695 1173.75,46.6875 z"/>
</svg>
