<svg xmlns="http://www.w3.org/2000/svg"
     width="61.8" height="64.0"
     viewBox="174.0000 13.6642 89.2035 92.3358">
  <path d="M 178,58.582607 C 178,55.614892 181.73061,49.601507 186.3741,45.084367 190.39487,41.172997 191.39498,40.687609 195.13163,40.834026 197.45174,40.924937 200.44437,41.716366 201.78191,42.592757 203.37972,43.639681 204.55189,43.848109 205.19954,43.200457 206.50131,41.898691 204.44011,38 202.45012,38 200.22036,38 197.00797,31.98722 197.00374,27.805764 196.9988,22.929935 200.31193,19.121636 205.24154,18.33677 209.46607,17.664162 212,19.123627 212,22.229434 212,23.75157 211.59224,24.031244 210.25,23.429729 209.2875,22.998393 206.925,22.612748 205,22.572741 L 201.5,22.5 201.19968,27.693978 C 200.92508,32.44324 201.13913,33.040613 203.69968,34.67088 205.23986,35.651488 206.83061,36.914198 207.23469,37.476902 208.29636,38.955354 208.16866,47.77773 207.0758,48.453152 206.56749,48.767304 204.02547,47.893862 201.42686,46.512169 194.11792,42.625969 191.99088,43.067742 186.07999,49.699617 183.28599,52.834407 181,55.929307 181,56.577173 181,57.225039 180.325,58.315311 179.5,59 178.26898,60.021656 178,59.946809 178,58.582607 z M 195.25,100.34923 C 194.54755,100.05932 194,98.100222 194,95.876829 194,93.700751 193.1,90.156178 192,88 188.52697,81.192295 189.6532,76.852124 197.26504,67.709968 203.47633,60.249949 203.76639,64.222642 197.60023,72.300746 193.17853,78.093488 192.7189,80.492675 195.05036,85.610552 196.12266,87.964398 197,90.553156 197,91.363349 197,93.858134 198.15976,96.0193 199.16511,95.397957 199.73452,95.046042 199.84974,91.701795 199.45024,87.122035 L 198.77984,79.436669 203.29242,74.468334 207.80499,69.5 210.42021,71.940958 C 213.90496,75.193498 218.49482,84.905183 217.1723,86.227699 216.22231,87.177692 215.26584,85.975315 209.633,76.75 207.46366,73.197113 206.64807,73.283779 203.50781,77.400877 200.98287,80.711236 200.94568,80.974598 202.11039,87.295707 203.19985,93.208429 203.13173,94.089668 201.34933,97.141562 199.41714,100.44993 197.69211,101.35713 195.25,100.34923 z M 225.71677,77.302786 C 225.07293,76.194836 225.88855,74.437539 230.39214,67.229449 236.85227,56.889865 238.48103,60.1718 232.22322,70.919068 228.61818,77.110421 226.69913,78.993272 225.71677,77.302786 z M 226.63746,48.22241 C 226.37314,47.794736 227.92158,45.690646 230.07844,43.546655 232.2353,41.402664 234.00223,39.16508 234.00495,38.574245 234.00767,37.98341 233.26928,35.433433 232.36408,32.907628 229.73896,25.582634 232.22809,17.722342 236.63706,19.414222 238.1228,19.984354 238.07099,20.295535 236.1498,22.340549 233.47404,25.188766 233.43635,27.929987 236,33.236136 237.1,35.512873 238,37.88563 238,38.508929 238,39.906632 229.39802,49 228.07584,49 227.54905,49 226.90177,48.650085 226.63746,48.22241 z M 229,57.231378 C 229,55.988387 243.66838,42.014414 245.14816,41.847686 245.89167,41.763913 246.95,41.59082 247.5,41.463035 248.05,41.335251 249.03036,41.178792 249.67857,41.11535 251.39972,40.946897 254,38.092658 254,36.371867 254,35.079593 253.7112,35.088874 251.77749,36.443296 248.93202,38.436344 247.11118,38.41059 244.82874,36.345012 243.62037,35.251456 243,35.105432 243,35.914563 243,36.61247 242.03235,37.001674 240.75,36.819551 238.80369,36.543131 238.46328,35.825128 238.22793,31.5 238.00717,27.442897 238.41457,25.934262 240.3883,23.5 243.64156,19.487639 244.80608,20.959666 241.98706,25.520939 240.03745,28.675469 239.90759,29.495172 240.98855,31.823538 242.21813,34.472019 242.24602,34.4425 243.65634,29 244.99125,23.848544 247.32909,19.995758 248.44371,21.110377 248.71394,21.380608 248.43885,23.218431 247.8324,25.194429 247.22595,27.170427 247.03597,30.007191 247.41023,31.498349 247.97254,33.738754 248.47353,34.089301 250.29535,33.51708 256.11797,31.688238 258.85559,33.454927 257.64893,38.262626 256.9247,41.148208 251.43086,45 248.03937,45 246.63479,45 243.41891,47.395904 239.31481,51.5 233.68177,57.133045 229,59.734448 229,57.231378 z M 231.62,99.194166 C 231.02249,98.22738 231.40542,97.501838 241.094,81.243465 245.2707,74.234559 250.88979,64.45 253.58088,59.5 257.51156,52.269865 258.54299,50.971585 258.82583,52.898072 259.20347,55.470247 253.50053,67.159478 244.39356,82.479685 241.44443,87.440858 237.9105,93.4125 236.54037,95.75 234.13483,99.853976 232.66406,100.88349 231.62,99.194166 z M 249,100.94513 C 249,100.36495 250.91112,97.102452 253.24693,93.695131 256.87264,88.406185 257.54191,87.835683 257.82236,89.794898 258.21184,92.515724 252.44081,102 250.39575,102 249.62809,102 249,101.52531 249,100.94513 z"/>
</svg>
