<svg xmlns="http://www.w3.org/2000/svg"
     width="54.8" height="64.0"
     viewBox="44.9065 16.4234 76.3875 89.2079">
  <path d="M 105.78141,39.25 C 103.98901,37.197927 101.5498,30.116867 102.35721,29.309459 103.60535,28.06132 105.85414,30.059422 106.49739,32.988098 106.97861,35.179116 107.67834,36.010222 108.84168,35.772572 110.15333,35.504627 110.47124,34.343212 110.36241,30.216904 110.28674,27.347607 110.53424,25 110.91241,25 114.44324,25 115.27631,35.723691 112,39 109.53857,41.461433 107.77495,41.532334 105.78141,39.25 z M 89.77694,100.41233 C 89.47898,99.910549 88.926001,98.057898 88.548098,96.295329 87.339951,90.660437 82.135392,91.115059 78.559949,97.1678 75.945541,101.59364 73.257811,100.90201 72.462539,95.598762 71.650547,90.184006 72.360927,87.797456 76.027811,83.621106 L 78.879139,80.373624 75.89199,74.436812 C 71.567052,65.841207 70.666177,65.126758 67.260898,67.591837 63.431221,70.364137 57.313279,83.182603 56.446706,90.25 55.263343,99.901014 51.963877,97.164461 50.026598,84.925208 48.906529,77.848888 48.97555,77.171091 51.495531,70.5 55.09167,60.980023 58.243992,55.814013 62.383726,52.656484 67.241676,48.951145 70.293325,49.328677 75.763244,54.311719 78.492555,56.798094 79.530612,55.933639 80.340439,50.5 81.042672,45.788282 80.408362,44.485957 76.730108,43.087487 73.362836,41.807252 70.008738,36.518904 70.003738,32.482135 69.998926,28.597108 74.341288,22.20343 77.527856,21.403653 81.433316,20.423444 85,21.722924 85,24.126041 85,25.72234 84.587935,26.044338 83.25,25.493535 78.030351,23.344703 75.226758,24.827803 74.355147,30.19891 73.911855,32.930597 74.337316,34.247427 76.489643,36.805322 77.968122,38.562395 80.007461,40 81.021506,40 83.989774,40 84.27886,43.151043 82.530023,56.442832 81.459752,64.577271 80.813239,64.74971 74.207159,58.662715 71.618222,56.277208 68.724685,54.046007 67.777078,53.704491 64.863203,52.654333 59.946627,57.873001 56.219857,65.971828 52.858186,73.277242 52.43285,75.947336 52.90057,86.809017 53.069905,90.741412 54.600114,88.386181 56.486779,81.289284 57.479466,77.555178 59.106308,72.869106 60.101983,70.875791 62.239823,66.595889 67.379874,62 70.028685,62 72.199272,62 76.485965,67.867788 80.429867,76.237532 83.14093,81.990948 83.140003,84 80.426285,84 78.447125,84 75.008338,89.866023 75.003738,93.25 75.001682,94.7625 75.276359,96 75.61413,96 75.951902,96 77.864402,94.164321 79.86413,91.920713 83.156783,88.2265 83.751516,87.9379 86.164431,88.863429 87.629868,89.42553 89.122693,90.81121 89.481819,91.942716 89.840945,93.074222 90.554451,94 91.067388,94 92.925879,94 91.940396,88.521492 89.430381,84.89954 L 86.860762,81.191578 88.729793,77.345789 C 91.639862,71.35792 96.294746,63.576573 97.451988,62.765313 99.95109,61.013369 102.8915,62.088368 105.01983,65.53208 107.77139,69.984196 110.97756,80.40824 111.00767,85 111.0203,86.925 111.44282,89.15153 111.9466,89.947845 113.57109,92.515584 114.30351,86.515416 113.6453,76.031706 112.96934,65.265141 110.88362,59.019232 106.65967,55.112464 104.28733,52.918261 103.81195,52.829955 100.78915,54.021942 98.980117,54.735299 96.289364,56.430644 94.809698,57.789375 93.330032,59.148105 91.462379,60.007673 90.659359,59.699526 87.330041,58.421946 87.535967,42.029572 90.934052,37.833115 92.549379,35.838271 92.608003,36.166265 92.191854,44.870374 91.706922,55.013149 92.117537,55.564665 97.5,52 106.28481,46.182049 114.38162,54.799028 116.18557,71.885997 117.29406,82.385695 116.5529,89.561693 113.91132,93.905422 112.27412,96.597587 111.66122,96.963727 110.46028,95.967037 109.57274,95.230442 108.99077,92.94013 108.97646,90.127555 108.96352,87.5824 108.08195,82.225631 107.01742,78.223623 103.80809,66.158416 100.21669,62.175128 97.486075,67.652206 96.900788,68.826175 95.883009,70.43604 95.224344,71.229682 94.565679,72.023325 93.336747,74.628406 92.493384,77.018751 91.04816,81.114953 91.08401,81.664038 93.116922,86.568803 94.452921,89.792141 95.036261,92.719387 94.649608,94.259937 93.865887,97.382529 90.500817,101.63138 89.77694,100.41233 z"/>
</svg>
