<svg xmlns="http://www.w3.org/2000/svg"
     width="51.0" height="64.0"
     viewBox="576.0000 9.6244 75.8437 95.0853">
  <path d="M 619,97.964817 C 619,96.459867 622.07677,92 623.11501,92 624.69393,92 624.05046,95.644359 622.17126,97.345012 620.07392,99.243079 619,99.452971 619,97.964817 z M 600,97.759985 C 600,96.986311 603.7125,89.949923 608.25,82.123567 612.7875,74.297212 617.625,65.906936 619,63.47851 620.375,61.050084 623.03892,56.461472 624.91983,53.281595 628.27871,47.60304 635.44403,34.288024 641.45465,22.555645 644.62035,16.376369 647.84367,13.624357 646.65038,18.119623 645.50634,22.42933 628.89045,53.129583 614.91676,76.752048 612.39598,81.013422 608.57098,87.618146 606.41676,91.429214 602.64732,98.097801 600,100.70965 600,97.759985 z M 584.64664,21.237267 C 583.72247,19.741927 586.01379,15 587.66052,15 589.55699,15 589.32062,17.382488 587.15934,20.051547 585.99109,21.494277 585.07318,21.927429 584.64664,21.237267 z M 582.55647,60.091378 C 581.74737,58.782213 585.75619,50.706889 593.02685,39 595.93029,34.325 599.84201,27.8 601.71954,24.5 603.59707,21.2 605.77826,17.841071 606.56662,17.035714 607.81995,15.755357 608,15.864625 608,17.905618 608,19.964813 601.62602,31.764958 594.17491,43.5 592.77803,45.7 590.33952,49.975 588.75599,53 585.28998,59.621081 583.5183,61.647636 582.55647,60.091378 z M 580,97.02678 C 580,96.35734 581.40446,93.264952 583.12102,90.154808 584.83758,87.044664 589.60097,78.236828 593.70631,70.581841 597.81166,62.926854 604.70498,50.974373 609.0248,44.020773 613.34462,37.067173 618.74533,27.917845 621.02637,23.688932 624.90769,16.493228 627,14.256956 627,17.304294 627,18.021656 624.01691,23.759156 620.37091,30.054294 613.65106,41.656694 599.27852,67.535818 593.46552,78.5 586.16906,92.262215 584.19417,95.459123 582.15087,96.815822 580.57667,97.861052 580,97.917612 580,97.02678 z"/>
</svg>
