<svg xmlns="http://www.w3.org/2000/svg"
     width="52.7" height="64.0"
     viewBox="766.3869 11.1126 78.8270 95.6835">
  <path d="M 773.13637,27.315599 C 776.47637,20.959847 780.43825,16.282056 781.30015,17.676636 782.13917,19.034202 773.70632,32.432876 771.77931,32.803985 770.38695,33.072129 770.63192,32.081361 773.13637,27.315599 z M 772,97.076784 C 772,96.295229 778.03709,84.845402 781.00398,80 784.92763,73.592063 791.08742,62.801194 792.70606,59.5 793.78476,57.3 796.91425,51.675 799.66049,47 802.40673,42.325 807.39195,33.788208 810.73877,28.02935 816.47527,18.158588 819.02151,15.112603 818.98333,18.166667 818.96818,19.378277 814.07525,28.179522 807.67929,38.5 806.31588,40.7 802.39328,47.9 798.96241,54.5 795.53153,61.1 791.2771,68.75 789.50811,71.5 787.73912,74.25 785.66362,77.677029 784.89588,79.11562 779.18148,89.823335 777.51301,92.739669 775.69317,95.201137 773.62706,97.9957 772,98.822034 772,97.076784 z M 773.06893,59.871194 C 773.69555,58.700351 776.97388,53.576835 780.35412,48.485604 788.8332,35.714608 793.29301,28.418264 796.41295,22.212986 799.40247,16.267125 801.88925,15.93086 799.44126,21.803497 798.59377,23.836573 796.12279,28.231373 793.95019,31.569718 791.77758,34.908063 790,38.115463 790,38.697273 790,39.279084 789.3441,40.299456 788.54245,40.964768 787.7408,41.630079 784.5046,46.635179 781.3509,52.087212 777.36401,58.979634 775.05515,62 773.77326,62 772.20233,62 772.09815,61.685126 773.06893,59.871194 z M 793,96.698994 C 793,95.812954 794.35,92.798407 796,90 797.65,87.201593 799,84.76131 799,84.577148 799,83.968266 807.68058,70.0606 816.63035,56.330532 818.48366,53.487325 820,50.820258 820,50.403717 820,49.987176 821.52287,47.363436 823.38416,44.573185 825.24545,41.782933 829.31078,34.679584 832.41823,28.787964 838.1745,17.874241 839.40012,16.220363 840.46032,17.935788 841.21391,19.155127 830.57074,39.638036 827.43665,43 826.15484,44.375 824.40034,47.189526 823.53775,49.254502 822.67515,51.319478 820.28878,55.520303 818.2347,58.589667 816.18061,61.659032 812.7,67.282835 810.5,71.087008 808.3,74.891181 804.30509,81.810068 801.62242,86.462314 796.34812,95.608926 793,99.58387 793,96.698994 z M 810.01958,99.25 C 810.03034,98.8375 811.79556,95.575 813.94229,92 816.08902,88.425 821.72876,78.424504 826.47504,69.776675 831.22133,61.128846 835.53111,53.789788 836.05233,53.467658 837.4813,52.584505 837.18922,56.278068 835.6522,58.527494 834.91091,59.612372 833.49978,62.6375 832.51634,65.25 831.53291,67.8625 830.32828,70 829.83939,70 829.3505,70 828.48981,71.211692 827.92676,72.692648 826.42823,76.634072 813.86587,98.37399 812.5895,99.234687 811.17361,100.18947 809.99487,100.19649 810.01958,99.25 z M 828.50811,101.01313 C 827.93356,100.08349 834.19472,89.615721 835.98838,88.50718 837.76109,87.411586 837.07962,90.909374 834.54639,95.908453 832.13987,100.65749 829.61008,102.79614 828.50811,101.01313 z"/>
</svg>
