<svg xmlns="http://www.w3.org/2000/svg"
     width="25.2" height="64.0"
     viewBox="588.9466 16.7950 34.6014 87.7995">
  <path d="M 602.78732,97.173947 C 598.72256,94.246423 597.50833,90.391787 601,91.5 604.11294,92.488009 603.3588,90.511045 599.5,87.567798 595.61181,84.602133 594.67748,81.445475 598,82.5 601.65781,83.660943 600.53043,78.371546 596.25,74.289439 593.78059,71.93444 592.94662,70.556366 593.80786,70.25397 594.52719,70.001403 595.91371,70.516919 596.88902,71.39956 597.86432,72.282202 598.92847,72.738195 599.25379,72.412878 600.32314,71.343529 598.77161,64.541546 596.99267,62.5 594.91677,60.117667 593,56.548678 593,55.065741 593,53.444371 595.707,53.794064 596.36163,55.5 597.35165,58.079961 598.88217,57.144988 599.55697,53.548014 600.05038,50.917907 599.70404,49.393099 598.10228,47.143644 595.17614,43.034261 595.2998,40.607446 598.39574,41.384477 602.40975,42.391928 603.3393,36.903093 600.05471,31.588525 597.57779,27.580785 598.82837,24.552929 601.47567,28.148155 602.42814,29.44167 603.38649,30.05 603.60536,29.5 605.42041,24.938784 607.79332,21.451169 609.26887,21.175979 611.31188,20.794957 613.39136,25.045998 615.7866,34.5 619.54807,49.346533 616.28605,88.809717 610.57717,97.522572 608.56441,100.59442 607.46842,100.54537 602.78732,97.173947 z M 611.72787,83.922035 C 615.69728,65.352977 614.72246,34.82399 609.87064,25.758283 608.98437,24.10227 608.60177,23.966556 607.98693,25.090097 606.45023,27.898204 603.97987,39.352563 602.97554,48.326447 602.41087,53.371901 601.74752,58.175 601.50142,59 601.08832,60.384882 603.05195,79.202907 604.5797,88.5 605.30978,92.942854 606.73215,95.253176 608.40009,94.70534 609.00504,94.506641 610.50254,89.654154 611.72787,83.922035 z"/>
</svg>
