<svg xmlns="http://www.w3.org/2000/svg"
     width="24.6" height="64.0"
     viewBox="492.6230 21.2778 32.5293 84.7989">
  <path d="M 509.33533,98.628706 C 505.72957,95.594659 499.42734,82.485251 497.97605,75 496.62302,68.021593 497.63249,49.171654 499.71651,42.5 501.76566,35.939982 506.7645,26 508.0144,26 509.39515,26 509.28069,26.529482 506.8846,31.226193 501.27233,42.227169 499.52213,53.136619 500.89423,68.565832 501.65788,77.153152 502.33427,79.723628 505.49914,86.065832 507.53952,90.154625 510.37394,94.740467 511.79787,96.256593 515.44436,100.13922 513.43303,102.07669 509.33533,98.628706 z M 515.73829,92.876921 C 512.94801,86.719127 512.47416,84.980997 510.50101,73.666123 507.82878,58.342424 507.73348,52.727271 509.97043,42.402492 512.02769,32.907098 514.61115,25.277812 515.4763,26.142962 515.72382,26.390486 515.22146,29.047079 514.35995,32.046503 511.71508,41.254786 511.05077,49.854632 512.08476,61.5 513.18954,73.94262 515.11265,82.075908 518.77985,89.81509 521.06287,94.633134 521.15234,95.276236 519.73656,96.692011 518.32079,98.107786 517.94688,97.751014 515.73829,92.876921 z"/>
</svg>
