<svg xmlns="http://www.w3.org/2000/svg"
     width="46.1" height="64.0"
     viewBox="730.0000 17.0000 64.6486 89.6603">
  <path d="M 734,100.99508 C 734,99.154441 743.95733,79.642672 745.87558,77.724421 746.40716,77.19284 747.00433,77.197987 747.33747,77.737019 748.03779,78.870164 736.65422,101.28193 735.11829,101.7939 734.50323,101.99892 734,101.63945 734,100.99508 z M 752.63948,64.306147 C 752.28777,63.954433 752,62.935295 752,62.041397 752,61.147498 749.97569,58.184998 747.50153,55.458063 741.9976,49.391805 740.70197,45.717374 740.64549,36.014161 740.59508,27.352099 741.49043,23 743.32289,23 745.04593,23 750.41594,28.640893 754.32285,34.554833 756.07028,37.199949 758.01991,39.530508 758.65536,39.733853 759.99557,40.162727 761.54995,35.635786 762.51263,28.5 763.17566,23.585339 764.41206,21 766.09939,21 767.7306,21 770.22354,26.012262 771.90383,32.670319 772.83299,36.352066 774.06281,39.520937 774.63676,39.712255 775.21072,39.903572 778.03273,36.896581 780.90791,33.030052 783.78309,29.163524 786.53918,26 787.03257,26 788.98732,26 790.23041,30.478554 789.70058,35.612173 789.12558,41.183366 782.5212,55.313355 779.00481,58.495648 776.97138,60.335876 774.77016,59.762522 775.59693,57.607994 775.8772,56.877619 774.91755,54.86703 773.46436,53.140019 771.38522,50.669096 770.04208,50.001404 767.16111,50.006589 760.82646,50.01799 755.0878,55.073031 755.0318,60.690983 755.00035,63.847246 753.87745,65.544115 752.63948,64.306147 z M 755.1933,53.25 C 757.46061,50.213502 764.49888,46 767.30375,46 769.84653,46 770,45.73463 770,41.337892 770,36.612651 767.20147,26 765.95543,26 765.19162,26 763,36.09982 763,39.619728 763,42.732189 760.95186,47 759.45817,47 758.78674,47 756.96004,45.3125 755.39885,43.25 753.83766,41.1875 752.19338,39.05 751.74491,38.5 751.29643,37.95 749.60527,35.3625 747.98677,32.75 743.5736,25.62648 742.5853,26.443461 743.36381,36.571583 744.09022,46.021927 745.54448,49.748486 749.722,52.864518 753.13921,55.41343 753.55596,55.442793 755.1933,53.25 z M 755,99.608162 C 755,98.877174 756.17121,96.553214 757.6027,94.443805 759.03418,92.334396 762.19734,86.665022 764.63195,81.845196 768.99913,73.199422 771,70.517864 771,73.310765 771,74.857757 763.86218,88.929096 761.01245,93 760.04992,94.375 758.96122,96.470929 758.59313,97.657619 757.83227,100.11053 755,101.64804 755,99.608162 z M 782.7968,46.761191 C 786.23264,39.782021 787.82486,32.627825 786.16993,31.605021 785.59489,31.249629 784.30892,32.152542 783.3122,33.611494 782.31549,35.070447 779.28587,38.691715 776.5797,41.658757 L 771.6594,47.053378 774.98815,50.487777 C 776.81897,52.376697 778.6256,53.73139 779.0029,53.498207 779.3802,53.265023 781.08745,50.233366 782.7968,46.761191 z M 774,99.97529 C 774,98.605654 787.06616,75.077147 788.22423,74.36142 790.6486,72.863075 789.38088,77.202311 785.40829,84 784.60474,85.375 782.11847,89.7625 779.88326,93.75 776.18398,100.34931 774,102.66025 774,99.97529 z"/>
</svg>
