<svg xmlns="http://www.w3.org/2000/svg"
     width="26.4" height="64.0"
     viewBox="521.0000 16.5069 36.6808 88.9900">
  <path d="M 541.08121,96.75 C 536.94824,86.052537 536.91175,86 533.61393,86 529.93941,86 526,83.582878 526,81.328286 526,79.932548 526.25714,79.938464 528.46482,81.38499 529.82047,82.273246 532.07047,83 533.46482,83 535.78312,83 535.99869,82.636422 535.98469,78.75 535.96689,73.810657 535.3092,72.52193 532.33246,71.593566 529.19351,70.614611 525,67.088131 525,65.42742 525,63.437175 526.73641,63.6475 529.72713,66 533.9813,69.346329 535,68.660089 535,62.44798 535,57.212332 534.83366,56.837975 532.0809,55.878359 530.25642,55.242341 528.53293,53.535487 527.48472,51.32656 525.09125,46.28269 527.08049,44.776367 529.87657,49.515369 531.05865,51.518851 532.5825,52.974125 533.2629,52.749311 533.97761,52.513164 534.85643,49.31533 535.34408,45.176441 536.15087,38.328774 536.07357,37.876146 533.59408,34.929436 530.96933,31.810102 530.19719,29 531.96482,29 532.49547,29 533.4113,29.9 534,31 535.70185,34.179941 537.59618,33.345911 539.40008,28.622464 541.33003,23.568969 544.27257,20.506882 546.41047,21.32727 551.04627,23.106195 553.68081,37.03594 553.48668,58.7418 553.34989,74.036343 552.55898,80.084089 549.33341,90.5 546.85104,98.515987 542.91518,101.49691 541.08121,96.75 z M 546.08939,91.264883 C 546.66133,89.760569 547.91896,85.138395 548.88413,80.993386 551.87802,68.135786 550.73184,36.315476 546.91301,26.271209 545.99029,23.844271 545.86738,23.81004 544.03387,25.469348 542.80267,26.583572 541.87476,29.22017 541.4359,32.851325 541.06043,35.958096 540.2743,39.097855 539.68896,39.828566 537.85413,42.119082 537.57497,73.397748 539.31705,81.5 542.00308,93.992468 543.97265,96.832346 546.08939,91.264883 z"/>
</svg>
