<svg xmlns="http://www.w3.org/2000/svg"
     width="20.7" height="64.0"
     viewBox="562.9900 17.0205 26.1898 80.9449">
  <path d="M 568.00137,90.833333 C 568.00212,90.1 568.6765,85.675 569.5,81 571.79467,67.973153 571.53491,41.376184 569.01535,31.37663 567.9238,27.044484 567.0238,23.210645 567.01535,22.856989 566.99005,21.797293 569.88985,21.020499 571.52651,21.648545 574.51109,22.793839 580.46947,35.924723 581.58866,43.823207 584.19711,62.231939 585.1798,88.220196 583.33711,90.062886 582.17814,91.221861 581.6659,86.31986 580.50917,63 580.0264,53.267449 578.8489,45.459559 576.48574,36.321128 573.89734,26.311728 570.59633,23.480373 572.94905,33.287637 574.57681,40.072891 573.73744,79.161561 571.80806,86.423004 570.60716,90.942683 567.99816,93.965411 568.00137,90.833333 z"/>
</svg>
