<svg xmlns="http://www.w3.org/2000/svg"
     width="52.4" height="64.0"
     viewBox="420.8928 17.0000 71.9952 88.0000">
  <path d="M 482.77071,30.980658 C 482.92862,30.145019 482.45226,28.633177 481.71214,27.621008 480.42253,25.857359 480.24803,25.882583 477.52299,28.226562 475.78485,29.721653 474.97265,31.146726 475.4336,31.89257 476.48816,33.598871 482.41518,32.862215 482.77071,30.980658 z M 468.72253,74.600558 C 467.8616,66.258884 470.5397,57.881337 474.5605,56.338409 476.75571,55.496029 480.80994,56.809944 483.10877,59.108769 485.71566,61.715657 484.86459,62.718993 481.84216,60.601999 475.50466,56.16304 471.46413,60.992527 471.6787,72.75 471.77452,78.000689 471.462,80 470.54541,80 469.74967,80 469.07291,77.995393 468.72253,74.600558 z M 471.77514,95.441198 C 468.36642,93.591352 466.49469,90.430335 468.18828,89.383637 468.84481,88.977881 469.56168,89.185039 469.78133,89.843989 470.34362,91.530867 475.84245,94.215408 477.11917,93.426346 477.74499,93.039571 477.91931,91.383412 477.54449,89.385479 476.88962,85.894699 477.70481,85.104814 479.8,87.2 481.45561,88.855609 481.30174,92.124189 479.4433,94.777494 477.64485,97.345135 475.60834,97.521402 471.77514,95.441198 z M 446,99.19113 C 446,96.706122 448.50858,93.395853 449.35451,94.764593 450.19777,96.12901 448.3778,101 447.02475,101 446.46114,101 446,100.18601 446,99.19113 z M 449.02876,32.177792 C 451.2166,30.406193 451.23036,30.281214 449.52454,27.677792 447.44576,24.505176 446.92962,24.426657 443.96003,26.831282 442.20937,28.248878 441.8498,29.265426 442.3683,31.331282 443.16367,34.500306 445.75401,34.829525 449.02876,32.177792 z M 452.64228,82.308946 C 452.2622,81.928866 452.20912,78.441366 452.52433,74.558946 453.02938,68.338152 452.81738,67.025055 450.73882,63.5 448.42121,59.569521 448.29001,59.504865 443.19011,59.779933 437.01609,60.112934 436.35297,58.573746 441.94821,56.89737 449.48097,54.640501 454.00781,58.49523 455.96898,68.836437 457.12435,74.928701 454.77529,84.441958 452.64228,82.308946 z M 426,99.610784 C 426,97.889507 429.9207,93.03862 429.96673,94.702947 430.01706,96.522853 427.79362,101 426.83948,101 426.37777,101 426,100.37485 426,99.610784 z M 425.99387,81.492613 C 425.13742,80.460649 424.89278,77.182611 425.19244,70.753623 425.56775,62.701379 426.07011,60.602923 429.06187,54.590262 430.95284,50.789906 433.76917,46.740897 435.32038,45.592465 439.23546,42.693948 445.69755,43.042858 450.66923,46.421203 452.7565,47.839541 454.98602,49 455.62373,49 458.38334,49 458.00282,39.613564 455.05754,35.033665 454.25034,33.778459 453.54677,33.886447 450.17113,35.783665 448.00224,37.002649 445.5799,38 444.78816,38 442.79162,38 439.2793,34.028309 438.50099,30.890527 437.95406,28.685547 438.513,27.716736 442.10686,24.640527 444.44609,22.638237 446.7061,21 447.12911,21 447.55212,21 449.08981,22.562254 450.54619,24.471676 L 453.19417,27.943353 457.74089,24.471676 C 460.24158,22.562254 463.11684,21 464.13034,21 465.14385,21 467.44164,22.597209 469.23654,24.549354 L 472.5,28.098707 475.94428,25.549354 C 480.43077,22.228586 482.60252,22.330677 484.47432,25.95034 487.791,32.364088 486.01144,35.380201 478.80961,35.551253 474.10218,35.66306 473.35091,35.981566 472.1854,38.359625 471.46236,39.834869 470.78736,42.269962 470.6854,43.770943 L 470.5,46.5 476.82706,46.148084 C 482.31159,45.843031 483.47678,46.099283 485.57706,48.072398 487.96931,50.319798 488.88796,54 487.0567,54 486.53789,54 485.52539,53.171415 484.8067,52.158699 482.15507,48.422228 479.32653,47.730812 473.97037,49.50984 471.26138,50.409622 468.58483,50.861443 468.02247,50.513887 466.54855,49.602953 466.76044,45.831448 468.67178,38.956737 470.22476,33.370995 470.2268,32.698806 468.70048,29.49809 466.41936,24.714523 462.68208,23.863375 459.209,27.33645 L 456.60804,29.937412 458.81414,36.218706 C 462.1246,45.644358 461.43704,54 457.35097,54 455.41394,54 448,49.925668 448,48.861172 448,47.707084 441.37242,46.689713 438.51922,47.405819 433.10482,48.764748 429,59.661972 429,72.676866 429,81.979327 428.24219,84.201673 425.99387,81.492613 z"/>
</svg>
