<svg xmlns="http://www.w3.org/2000/svg"
     width="33.7" height="64.0"
     viewBox="279.4172 13.0219 47.0682 89.2971">
  <path d="M 283.70678,94.986712 C 283.41721,93.879404 283.5184,86.116904 283.93165,77.736712 284.34489,69.35652 284.4031,54.85 284.061,45.5 283.7189,36.15 283.61981,27.920735 283.84079,27.212744 284.06177,26.504753 285.73631,25.301364 287.56199,24.538546 289.38767,23.775728 291.88924,21.992493 293.12104,20.575802 296.21112,17.021897 297.86601,17.327198 302.08879,22.230217 L 305.73212,26.460433 310.28436,22.730217 C 312.78809,20.678597 315.76299,19 316.89524,19 319.61355,19 322.25117,23.180003 322.38921,27.706643 322.48541,30.860922 321.93701,31.772692 318.22566,34.628978 313.82523,38.015582 312.1469,38.111457 308.72637,35.171629 307.503,34.120186 306.63137,33.968633 305.91687,34.683132 305.26083,35.339173 304.79991,46.312569 304.65987,64.609504 304.53826,80.499277 304.05878,94.110543 303.59438,94.856763 301.43964,98.319046 301.05028,91.56851 301.65859,61.2948 L 302.30572,29.089599 299.60197,25.5448 C 298.11491,23.59516 296.33745,22 295.65206,22 294.96667,22 292.7924,23.6875 290.82035,25.75 L 287.23481,29.5 287.49494,43.5 C 287.79494,59.646077 286.02055,97 284.95356,97 284.5574,97 283.99634,96.09402 283.70678,94.986712 z M 294.5563,62.856502 C 294.80034,44.627578 295,29.462578 295,29.156502 295,28.850426 295.45891,29.058908 296.01979,29.619795 297.96675,31.566749 296.89101,96 294.91155,96 294.47213,96 294.31227,81.085426 294.5563,62.856502 z M 316.09571,32.284392 C 319.31781,30.381052 319.92547,26.804763 317.55754,23.681055 316.23986,21.942805 315.99727,21.976634 312.08934,24.4436 307.60712,27.273104 306.56126,31.062631 309.75,32.919901 312.14759,34.316371 312.7596,34.255079 316.09571,32.284392 z"/>
</svg>
