<svg xmlns="http://www.w3.org/2000/svg"
     width="30.4" height="64.0"
     viewBox="407.7812 14.3974 41.7165 87.9598">
  <path d="M 412.4375 84.28125 L 412.25 87.9375 C 412.3752 87.940813 412.43116 88 412.5625 88 C 419.54266 88 424.48193 83.469279 426.21875 75.5 C 429.54166 60.253045 430.22201 56.740413 431 50.5 C 431.47998 46.65 431.90349 39.81933 431.9375 35.3125 C 431.99085 28.240765 432.31533 26.728097 434.3125 24.40625 C 436.28008 22.118801 436.93264 21.887856 438.71875 22.84375 C 443.00982 25.14026 443.9772 37.166496 441.53125 58 C 439.25141 77.418714 435.55904 86.601528 428.0625 91.5625 C 425.23434 93.434091 422.47417 94.220956 417.375 94.59375 C 414.73512 94.786748 413.19857 94.809812 411.90625 94.65625 L 411.78125 97.46875 C 417.40626 98.357153 423.67951 97.162982 428.875 93.5625 C 433.10459 90.631397 439.54976 80.547705 441.03125 74.5 C 441.57017 72.3 442.73578 68.327819 443.625 65.6875 C 444.84928 62.05228 445.27551 56.558935 445.375 43.03125 C 445.49778 26.336621 445.36906 24.993219 443.40625 22.34375 C 442.25107 20.784444 440.30635 19.36722 439.09375 19.1875 C 433.76262 18.397366 430.48601 25.467239 429 41.03125 C 428.39715 47.345282 427.49614 54.658041 426.96875 57.3125 C 426.44136 59.96696 426 63.193644 426 64.46875 C 426 68.926636 421.86926 80.108684 419.0625 83.25 C 416.48213 86.137936 415.99572 86.31316 413.59375 85.21875 C 413.13128 85.008033 412.83224 84.584189 412.4375 84.28125 z "/>
</svg>
