<svg xmlns="http://www.w3.org/2000/svg"
     width="56.6" height="64.0"
     viewBox="137.7500 12.5341 85.2588 96.4666">
  <path d="M 194.71527,55.038986 C 192.08367,53.367544 189.67363,52 189.35963,52 189.04562,52 187.45173,53.125 185.81763,54.5 180.74111,58.771613 179.90598,58.017635 180.55639,49.75 181.37474,39.34774 181.5999,38.667563 184.86313,36.739924 186.48313,35.782966 188.07665,35 188.40429,35 189.89055,35 188.76569,37.843059 186.5,39.813051 184.64475,41.426166 184,42.977103 184,45.82672 184,50.645563 184.50644,51.137455 187.74039,49.459661 190.50404,48.025864 191.80407,48.396255 197.15437,52.141783 201.3308,55.06553 203.45933,54.525401 205.48777,50.027126 206.78428,47.151986 207.10783,44.803375 206.65877,41.527126 206.01066,36.798652 207.14143,35.527237 208.96482,38.934259 210.69046,42.158657 210.14185,46.361313 207.25,52.070685 203.84186,58.79937 201.50651,59.352394 194.71527,55.038986 z M 181.19236,97.704761 C 178.77054,95.126847 178.43222,92.34025 180.09736,88.685665 180.95843,86.795825 180.83951,85.59032 179.54507,83.087163 177.39928,78.937653 175.26891,78.171059 173.37952,80.86854 171.68622,83.286075 170,83.66843 170,81.634859 170,79.386236 174.00514,75 176.05839,75 177.18094,75 179.05975,76.644273 180.60459,78.978684 183.0211,82.630271 183.18014,83.493499 182.53919,89.478684 182.15508,93.065408 182.0633,96 182.33524,96 183.38821,96 190,86.142925 190,84.573116 190,83.660705 188.2,80.530104 186,77.616225 181.77589,72.021425 181.30274,70.222341 183.12496,66.684259 186.7059,59.731419 190.84838,58.49482 198.34994,62.139357 204.58922,65.170635 207.05785,64.263622 210.22924,57.77471 213.80116,50.466267 215.75906,42.813715 216.30162,34.040487 216.74666,26.844172 216.66127,26.486001 213.88147,23.889277 210.61025,20.833502 210.18295,18.992851 212.75,19.015313 217.24769,19.054668 219.00884,22.92844 218.96438,32.684259 218.8921,48.542931 212.22507,65.901472 205.56429,67.573219 204.08378,67.944805 201.167,67.191441 197.65667,65.53079 192.45103,63.068127 191.9074,62.996526 189.16859,64.41282 184.10347,67.032095 183.75579,70.246174 188.0208,75.023298 189.68224,76.884231 191.54384,80.083135 192.15769,82.131972 193.16921,85.508141 193.00451,86.308825 190.39962,90.678565 188.81884,93.330354 187.06975,96.364464 186.51274,97.421031 185.02319,100.24651 183.64906,100.31979 181.19236,97.704761 z M 162.60699,73.418213 C 162.27314,72.548229 162,70.727775 162,69.372758 162,68.017741 160.875,65.784091 159.5,64.409091 156.41477,61.323866 156.30357,59.759712 159.19936,60.180449 161.92411,60.576334 164.67985,65.145701 165.57683,70.755098 166.1253,74.185058 165.96365,75 164.7348,75 163.89835,75 162.94083,74.288196 162.60699,73.418213 z M 152,104.52673 C 152,103.47788 161.10807,88.051245 162.08311,87.448638 164.07185,86.219524 162.75335,90.845244 159.21839,97.498974 157.13223,101.42566 154.73181,104.64032 153.75,104.8223 152.7875,105.00069 152,104.86769 152,104.52673 z M 166.90968,53.9326 C 162.55288,49.160439 158.67056,48.723441 154.18237,52.5 148.5055,57.276771 146.94692,55.00981 152.5348,50.103592 156.81708,46.343701 162.33266,45.900629 166.27287,49 169.60925,51.624395 170.65194,51.522923 171.41064,48.5 172.42769,44.447753 171.12525,41.246674 168.16334,40.518936 159.39614,38.364842 158.49439,32.693283 165.50022,23.769155 169.9808,18.06172 172.67603,16.534082 177.14829,17.16712 179.21952,17.460299 179.5,18.036698 179.5,22 179.5,25.904288 179.79763,26.542272 181.74827,26.819325 182.98482,26.994953 185.27686,26.226987 186.84168,25.112733 190.07838,22.808001 192,23.771832 192,27.7 192,30.130173 191.03453,30.634532 189.43825,29.038252 188.82259,28.422589 186.7456,28.692476 183.66641,29.788252 179.01332,31.444131 178.80971,31.436644 177.42816,29.55887 176.64267,28.491249 176,25.872451 176,23.739319 176,20.306385 175.74569,19.897603 173.786,20.180449 171.00937,20.581207 163.87031,29.787501 164.23276,32.5 164.39684,33.727943 166.22154,35.368133 168.95962,36.748883 171.41242,37.985768 173.82251,39.718359 174.31539,40.599085 175.15533,42.099971 174.4154,53.753899 173.29476,56.674264 172.46142,58.845892 170.70795,58.092975 166.90968,53.9326 z M 151.25,73.78125 C 149.81323,74.778444 145.70504,81.296715 141.75,88.21875 L 142.0625,93.84375 C 143.77765,90.961031 145.58233,87.847427 146.75,85.5 147.84434,83.3 149.49722,80.044169 150.4375,78.25 151.37778,76.45583 151.96724,74.432995 151.75,73.78125 151.6854,73.587451 151.51684,73.596046 151.25,73.78125 z"/>
</svg>
