<svg xmlns="http://www.w3.org/2000/svg"
     width="51.9" height="64.0"
     viewBox="688.0000 17.5000 70.6562 87.1138">
  <path d="M 754.65625,94.5 754.65625,88.40625 C 754.13866,89.345912 753.75776,90.119223 753.21875,91.09375 750.90755,95.272365 749.32862,98.984865 749.6875,99.34375 750.95754,100.61379 751.80415,99.957713 753.71875,96.25 753.83322,96.028318 754.47866,94.835919 754.65625,94.5 z M 754.65625,60.4375 754.65625,54.875 C 751.34965,61.024774 747.55822,68.44972 746,72 744.28515,75.907123 740.20583,83.527271 736.9375,88.9375 733.66917,94.347729 731,99.03707 731,99.375 731,100.5702 732.71189,99.977138 734.21875,98.25 735.05849,97.2875 737.20899,93.8 739,90.5 740.79101,87.2 742.82571,83.825 743.53125,83 744.2368,82.175 746.02281,78.8 747.5,75.5 750.49601,68.806982 752.63065,64.334801 754.65625,60.4375 z M 752.125,21.5 C 751.37361,21.5 747.84114,27.125 744.28125,34 740.72135,40.875 736.65318,48.525 735.21875,51 730.91227,58.430536 710,98.752469 710,99.625 710,99.836931 710.5625,99.977693 711.25,99.96875 712.41315,99.953619 716.25212,93.226999 731.5,64.4375 734.8,58.206775 740.96298,46.826763 745.1875,39.15625 753.20708,24.595012 754.41365,21.5 752.125,21.5 z M 732.5,21.8125 C 731.95,21.638933 729.75208,25.1 727.625,29.5 725.49792,33.9 723.28338,38.4 722.6875,39.5 722.09162,40.6 719.6067,45.325 717.1875,50 711.07615,61.80991 706.04478,70.863695 703.3125,74.96875 702.03777,76.883923 701,78.796423 701,79.21875 701,79.641076 701.5625,80.004537 702.25,80 703.44866,79.992091 705.09173,77.450762 710.96875,66.5 712.44462,63.75 716.16013,57 719.21875,51.5 722.27737,46 725.80074,39.025 727.0625,36 728.32426,32.975 730.14481,29.35364 731.09375,27.96875 733.22925,24.852209 733.82199,22.229689 732.5,21.8125 z M 696.625,22 C 694.96222,22 692,25.668062 692,27.71875 692,28.421372 692.60704,29 693.34375,29 694.48389,29 695.3616,27.780285 697.8125,22.75 698.01348,22.3375 697.46464,22 696.625,22 z M 713.15625,22 C 711.42872,22 694,52.424679 694,55.4375 694,57.951397 695.36825,57.194859 697.125,53.71875 698.01931,51.949161 699.77897,48.475 701.03125,46 702.28354,43.525 705.71535,37.640819 708.65625,32.90625 713.84472,24.553319 714.88174,22 713.15625,22 z"/>
</svg>
