<svg xmlns="http://www.w3.org/2000/svg"
     width="38.7" height="64.0"
     viewBox="639.8473 17.0000 53.7295 88.9357">
  <path d="M 683.03518,99.065741 C 682.46583,98.001899 682,95.7993 682,94.171077 682,86.668202 674.06286,67.76937 669.79149,65.101859 667.81812,63.869464 667.40036,64.010472 665.28873,66.621717 661.06612,71.843397 657.32792,79.362802 653.99605,89.337026 652.18872,94.74739 650.08349,99.414466 649.31776,99.708307 648.55202,100.00215 646.9943,99.400486 645.85616,98.371281 643.96771,96.66358 643.84733,95.805589 644.47904,88.556236 645.45814,77.320194 648.70368,69.233093 656.21259,59.319079 660.0118,54.302968 660.08483,54.059104 658.50832,51.653047 657.61275,50.286235 656.23201,48.919273 655.44001,48.615352 654.648,48.311432 654,47.428747 654,46.65383 654,45.878912 653.34802,44.703793 652.55115,44.042453 650.57443,42.401919 648.66869,36.302751 649.47852,34.208759 650.00584,32.845265 650.47889,33.220526 651.81969,36.065973 653.7103,40.078251 658.06329,45.881828 665.27115,54 667.95695,57.025 671.14612,60.625 672.35821,62 676.8691,67.117188 678.82742,70.710862 681.48588,78.75 684.61789,88.221147 686.52676,89.642784 685.51407,81.75 683.90071,69.175793 679.74332,60.092668 671.05107,50.151053 662.37604,40.229125 660,36.825769 660,34.321861 660,31.011315 661.645,31.452892 663.45758,35.25 664.31086,37.0375 667.52015,41.148634 670.58933,44.385853 L 676.16966,50.271706 680.66238,45.135853 C 683.13337,42.311134 685.5702,40 686.07755,40 687.99277,40 686.86648,42.421191 683,46.615826 680.8,49.002544 679,51.908437 679,53.073365 679,55.09997 681.19494,59.815662 683.6204,63 687.30225,67.83383 689.57686,90.065043 687.12472,97.25 685.69599,101.4363 684.57115,101.93573 683.03518,99.065741 z M 651.49328,89 C 653.64287,82.201923 660.28041,68.632217 663.55796,64.335118 666.48157,60.502069 666.54657,59.804611 664.17974,57.662662 662.47413,56.119104 662.2007,56.188073 659.83856,58.757674 656.23417,62.678642 651.70693,69.908836 650.24997,74.071086 648.11939,80.157703 646.29845,92.781915 647.29438,94.561544 648.51756,96.747254 649.42262,95.548484 651.49328,89 z M 656,24 C 656,22.888889 656.66667,22 657.5,22 659.18305,22 659.25069,22.183146 658.39301,24.418213 657.53559,26.652613 656,26.384246 656,24 z M 672.49578,27.993176 C 671.79538,26.859902 675.62673,21 677.06809,21 678.41451,21 678.217,22.679682 676.47432,26.04966 674.89898,29.096022 673.57662,29.742 672.49578,27.993176 z"/>
</svg>
