<svg xmlns="http://www.w3.org/2000/svg"
     width="48.3" height="64.0"
     viewBox="750.6562 16.8350 68.0000 90.0453">
  <path d="M 754.65625,94.5 C 756.13098,91.710563 759.15133,86.136062 762.5,80 766.25194,73.125 772.66766,60.975 776.78125,53 780.89484,45.025 785.09809,37.303653 786.125,35.84375 787.1519,34.383846 788,32.673408 788,32.03125 788,31.389093 789.13184,28.887898 790.53125,26.5 792.28783,23.502621 792.74992,21.951537 791.96875,21.46875 791.49656,21.176918 791.21703,20.835029 790.78125,21.03125 789.47392,21.619913 786.72014,27.135233 772.96875,54 766.41367,66.806029 761.2753,76.38955 754.65625,88.40625 L 754.65625,94.5 z M 811.65625,21.3125 C 811.36978,21.330438 810.84963,21.731093 810.0625,22.53125 808.09328,24.533057 799.27194,40.920166 787.46875,64.5 780.80535,77.811806 778.40359,82.205497 772.34375,92.25 770.43643,95.411495 769.17277,98.482462 769.53125,99.0625 770.59111,100.77738 772.32012,99.585837 773.34375,96.4375 773.86905,94.821875 775.06507,92.375 776,91 776.93494,89.625 778.99881,86.025 780.59375,83 782.1887,79.975 783.72081,77.275 784,77 784.2792,76.725 786.23644,72.9 788.34375,68.5 790.45107,64.1 792.65247,59.6 793.25,58.5 793.84754,57.4 795.67776,54.025 797.3125,51 798.94723,47.975 800.87709,44.774558 801.625,43.90625 802.37291,43.037943 803,41.884197 803,41.3125 803,40.740804 805.025,36.387279 807.5,31.65625 811.13715,24.703748 812.51565,21.258685 811.65625,21.3125 z M 754.65625,60.4375 C 756.34606,57.186263 757.95117,54.32543 760,51 762.54146,46.875 764.95688,42.966713 765.34375,42.3125 765.80212,41.537389 765.33399,41.180764 764,41.28125 762.47648,41.396013 760.3048,44.42637 755.53125,53.15625 755.20905,53.745485 754.9886,54.256879 754.65625,54.875 L 754.65625,60.4375 z M 772.78125,22 C 771.54264,22 764,35.773474 764,38.03125 764,40.693302 766.2197,38.341118 769.4375,32.28125 773.92333,23.833405 774.51318,22 772.78125,22 z M 814.65625,47.9375 C 805.21203,66.035111 797.72301,80.154743 792.84375,88.6875 789.63665,94.296024 787,99.133524 787,99.4375 787,102.88032 794.6579,90.624562 805.09375,70.5 808.17861,64.55113 812.42872,56.504833 814.65625,52.3125 L 814.65625,47.9375 z"/>
</svg>
