<svg xmlns="http://www.w3.org/2000/svg"
     width="26.3" height="64.0"
     viewBox="1250.8427 16.7228 36.5635 89.0554">
  <path d="M 1283.4062 49.5625 L 1282.9688 41.5 C 1282.3892 30.636662 1280.7978 26.231978 1276.4375 23.375 C 1272.3898 20.722801 1269.6824 22.708212 1265.4688 31.46875 C 1260.2861 42.243652 1258.8456 54.344294 1261.1562 67.625 C 1261.9904 72.419204 1261.8433 73.100036 1258.875 77.875 C 1256.2736 82.059901 1255.601 84.326355 1255.2188 90.28125 C 1254.8427 96.141257 1255.0831 97.834093 1256.375 98.90625 C 1258.378 100.56861 1260.9939 99.649088 1261.0312 97.28125 C 1261.0467 96.301488 1262.5419 92.455975 1264.3438 88.71875 C 1267.4688 82.237158 1267.6889 81.990467 1269.2812 83.75 C 1271.3854 86.075078 1274 93.409842 1274 96.96875 C 1274 98.457934 1274.3019 99.989323 1274.6875 100.375 C 1276.0908 101.77824 1278.3211 100.42217 1280.2188 97 C 1282.1955 93.434874 1282.2432 88.740024 1280.4688 72.5 C 1279.935 67.614312 1280.368 65.657241 1282.1562 65.78125 L 1282 65.34375 L 1282.5312 59.21875 C 1281.9085 57.841329 1281.9613 56.638607 1282.7812 56.25 L 1283.3438 50 L 1283.4062 49.5625 z M 1272.6875 26.46875 C 1274.2522 26.035646 1275.7643 27.311768 1277.5 30.25 C 1280.2913 34.975436 1280.9271 49.314704 1278.4688 52.03125 C 1276.9973 53.657209 1276.8758 54.444104 1277.8125 56.5 C 1278.6923 58.43096 1278.6145 60.688954 1277.4062 66.53125 C 1276.1792 72.464644 1276.0811 74.417672 1277.0312 75.5625 C 1277.6961 76.363559 1278.4679 81.052209 1278.75 86 C 1279.0321 90.947791 1278.9731 95 1278.5938 95 C 1277.8428 95 1275.5114 89.844251 1274.5 85.9375 C 1273.4917 82.042855 1269.4506 77.619231 1267.5625 78.34375 C 1266.6608 78.689751 1264.2945 82.388876 1262.3125 86.5625 C 1258.612 94.354618 1256.509 95.084919 1258.0938 88.03125 C 1259.385 82.284493 1260.5658 79.813808 1263.7812 76.03125 C 1266.5004 72.832461 1266.6347 72.335889 1265.4688 69.53125 C 1262.2077 61.687301 1263.3483 41.224205 1267.5 33.03125 C 1269.515 29.054827 1271.1228 26.901854 1272.6875 26.46875 z "/>
</svg>
