<svg xmlns="http://www.w3.org/2000/svg"
     width="35.5" height="64.0"
     viewBox="193.3552 18.9351 48.8008 88.0649">
  <path d="M 220.49652,67.994377 C 219.80782,66.880029 234.82384,42 236.18509,42 238.15596,42 236.53348,45.753574 229.92332,56.486416 222.51778,68.510708 221.54761,69.695068 220.49652,67.994377 z M 197.71705,71.383712 C 197.35517,71.021836 197.83329,69.548031 198.77955,68.108588 200.87745,64.917241 202.51418,62.365667 204.77865,58.756323 206.3554,56.24313 209.03406,54.962548 208.97538,56.75 208.92934,58.15228 200.50535,71.356108 199.4375,71.699749 198.85312,71.887804 198.07892,71.745587 197.71705,71.383712 z M 201.49704,48.990669 C 200.17693,44.831372 200.75981,33.859048 202.50667,29.985219 204.88053,24.720917 209.09678,22.935147 212.73636,25.652484 214.1713,26.723821 215.6477,28.252786 216.01724,29.050185 216.38679,29.847583 217.20473,31.499416 217.83489,32.720924 219.40661,35.767565 220.58146,49 219.28024,49 218.72642,49 217.693,46.1875 216.98376,42.75 215.44656,35.299571 213.14925,30.083239 210.75,28.59543 206.34066,25.861132 202.78748,33.430884 203.7003,43.614232 204.24747,49.718412 202.82765,53.18307 201.49704,48.990669 z M 212.28235,99.75 C 205.41689,88.099656 200.72324,74.074413 204.06231,75.187437 204.81057,75.436857 206.187,78.084219 207.12104,81.070464 209.32722,88.123935 213.75476,96.5 215.27699,96.5 216.88732,96.5 218.21026,87.121582 217.78086,78.75 217.52413,73.744971 217.76622,72 218.71731,72 219.42279,72 220.06005,72.7875 220.13345,73.75 221.20134,87.753299 218.77438,103 215.47746,103 214.77351,103 213.33571,101.5375 212.28235,99.75 z"/>
</svg>
