<svg xmlns="http://www.w3.org/2000/svg"
     width="39.4" height="64.0"
     viewBox="589.0000 16.4650 55.0053 89.4392">
  <path d="M 636.39301,23.418213 C 636.72686,22.548229 637,21.648229 637,21.418213 637,21.188196 637.72314,21 638.60699,21 639.66151,21 640.0053,21.543804 639.60699,22.581787 639.27314,23.451771 639,24.351771 639,24.581787 639,24.811804 638.27686,25 637.39301,25 636.33849,25 635.9947,24.456196 636.39301,23.418213 z M 631.02224,98.25 C 631.03447,97.8375 631.92446,96.375 633,95 634.5034,93.078008 634.96067,92.885696 634.97776,94.168213 635.014,96.8864 633.88333,99 632.39301,99 631.62686,99 631.01001,98.6625 631.02224,98.25 z M 614,98.830857 C 614,96.638033 628.87071,71 630.1426,71 630.61417,71 631,71.242927 631,71.539838 631,72.532963 626.78366,80.480929 625.4456,82.010106 624.71885,82.840665 622.26834,87.228165 620.00003,91.760106 616.24973,99.25297 614,101.90417 614,98.830857 z M 616.70185,66.368517 C 616.35453,66.021201 616.61703,64.783701 617.28518,63.618517 618.96818,60.683543 618.93042,33.671129 617.23687,29.063125 616.33258,26.602605 616.28068,25.324236 617.0542,24.563125 621.21914,20.464951 623.81916,43.378186 621.04693,59.75 619.91744,66.420403 618.6636,68.330271 616.70185,66.368517 z M 593,99.06936 C 593,96.790321 605.36292,77 606.78662,77 607.82422,77 607.54677,78.107828 605.72223,81.25 604.36494,83.5875 601.83983,88.024405 600.11088,91.10979 596.80887,97.002384 593,101.26584 593,99.06936 z M 604.45032,70.919618 C 602.85244,68.334185 603.94961,50.099661 606.42056,38.175165 607.82521,31.396506 609.23177,25.434006 609.54625,24.925165 610.79225,22.909094 612.20488,24.112812 611.68779,26.75 607.68705,47.154139 605.80469,63.858104 606.983,68.5 607.75366,71.535993 605.91619,73.291441 604.45032,70.919618 z"/>
</svg>
