<svg xmlns="http://www.w3.org/2000/svg"
     width="25.2" height="64.0"
     viewBox="874.4134 18.0000 33.9110 86.0000">
  <path d="M 878.90376,97.570427 C 878.41338,97.080044 878.72435,29.899591 879.21883,29.504159 884.46393,25.309716 889.47328,22 890.5766,22 893.30839,22 891.96095,23.831448 886.62182,27.37536 881.10055,31.040166 879.63552,33.782418 881.0934,37.72345 882.12513,40.512476 881.31261,97.395796 880.23592,97.754693 879.76241,97.912529 879.16294,97.829609 878.90376,97.570427 z M 889.54367,98.253216 C 888.81948,96.365996 889.02891,37.315018 889.76712,35.25 891.30954,30.93536 891.73547,37.656579 891.77914,67 891.80616,85.15 891.46505,100 891.02112,100 890.57719,100 889.91234,99.213947 889.54367,98.253216 z M 901.96071,93.75 C 901.9391,90.3125 901.73395,74.351789 901.50482,58.281753 901.23004,39.009419 901.43626,28.848411 902.11065,28.431617 902.67297,28.084079 903.30162,27.968289 903.50764,28.174308 903.91566,28.582322 904.32435,68.060117 904.1244,87.75 904.04908,95.167068 903.60547,100 903,100 902.44419,100 901.98255,97.223807 901.96071,93.75 z"/>
</svg>
