<svg xmlns="http://www.w3.org/2000/svg"
     width="32.0" height="64.0"
     viewBox="411.0000 17.8813 45.2559 90.4452">
  <path d="M 415,102.03367 C 415,99.339606 429.54736,75 431.15756,75 432.89114,75 431.25741,78.574713 423.91411,90.849164 423.04188,92.307124 421.22066,95.494573 419.86696,97.932384 417.47404,102.24169 415,104.32651 415,102.03367 z M 444.70207,60.013696 C 445.71237,47.962809 441.42886,26 438.06822,26 435.41937,26 431.20032,38.656525 430.90119,47.5 430.78957,50.8 431.04926,56.3125 431.47829,59.75 432.01523,64.052155 431.92054,66 431.17448,66 428.13208,66 427.48149,42.965631 430.2667,33.860121 431.21553,30.758187 433.34789,26.768594 435.00527,24.994357 437.78107,22.022855 438.18862,21.881293 440.17347,23.199185 445.81066,26.94214 450.54791,55.168285 447.07289,64.30828 445.19224,69.254768 444.0941,67.265561 444.70207,60.013696 z M 437,100.39682 C 437,99.323326 437.63841,97.533559 438.41868,96.41956 442.11856,91.137244 447.48317,80.958046 449.3453,75.686618 450.32698,72.907618 452.25594,74.826213 451.52951,77.859094 451.18161,79.311593 449.41911,82.975 447.61285,86 445.80658,89.025 443.76858,92.91805 443.08396,94.651223 442.39933,96.384396 440.75037,98.825337 439.41959,100.07554 437.12965,102.22683 437,102.24404 437,100.39682 z"/>
</svg>
