<svg xmlns="http://www.w3.org/2000/svg"
     width="39.6" height="64.0"
     viewBox="1382.6562 13.9736 52.0000 84.0963">
  <path d="M 1386.6562,45.375 1386.6562,51.90625 C 1389.8203,46.03985 1393.9418,38.454191 1396.5312,33.6875 1402.068,23.49526 1404.3887,17.973646 1403.1875,18 1401.6201,18.034385 1400.1987,19.709132 1398.4688,23.5 1397.4647,25.7 1395.8276,28.65969 1394.8438,30.09375 1394.0725,31.217804 1390.2397,38.517346 1386.6562,45.375 z M 1423.6562,18 C 1422.9246,18 1420.6836,21.255589 1418.6562,25.25 1416.6288,29.24441 1413.9823,34.08191 1412.7812,36 1408.0667,43.529402 1400,58.346377 1400,59.46875 1400,61.146491 1402.1418,59.477705 1404.1562,56.25 1408.3519,49.527385 1408.9251,48.538624 1411,44.28125 1412.1281,41.966531 1413.4941,39.800699 1414.0312,39.46875 1414.5683,39.136801 1416.8553,35.190832 1419.0938,30.6875 1421.3324,26.184168 1423.5538,22.085 1424.0625,21.5625 1425.4298,20.158085 1425.184,18 1423.6562,18 z M 1430.6562,41.40625 1430.6562,35.4375 C 1427.2477,41.165087 1423.5615,47.206081 1422.4062,48.90625 1421.0796,50.858526 1420,52.796423 1420,53.21875 1420,54.751659 1423.0681,53.9542 1423.7188,52.25 1424.0863,51.2875 1424.7904,50.05 1425.2812,49.5 1426.4394,48.202209 1428.455,45.073413 1430.6562,41.40625 z M 1422.5938,70.375 C 1422.1141,70.123288 1421.5961,70.138971 1421.0625,70.46875 1420.1704,71.020088 1420.1234,71.529657 1420.9062,72.3125 1423.4771,74.88348 1422.1184,79.563542 1417.375,84.375 1414.825,86.961473 1412.2375,88.920907 1411.625,88.71875 1410.9612,88.499705 1410.298,84.52027 1410,78.90625 1409.4238,68.050016 1408.022,70.041511 1408,81.75 1407.9912,86.372046 1407.6114,89 1406.9062,89 1404.9606,89 1397.9954,82.883555 1396.375,79.75 1395.0764,77.238842 1395.0141,76.333899 1396.0625,74.375 1396.7578,73.075726 1397.0086,71.663328 1396.5938,71.25 1395.7176,70.377123 1392,74.625815 1392,76.5 1392,80.131727 1395.4605,85.235436 1400.7188,89.34375 1403.8943,91.824776 1407.0889,93.894771 1407.8125,93.9375 1410.0551,94.069914 1413.2849,91.896084 1418.8125,86.5625 1423.0366,82.486665 1424.2512,80.618713 1424.6562,77.46875 1425.0798,74.174832 1424.0326,71.130136 1422.5938,70.375 z"/>
</svg>
