<svg xmlns="http://www.w3.org/2000/svg"
     width="64.0" height="28.2"
     viewBox="1185.0000 13.2358 205.6562 90.6998">
  <path d="M 1386.6562,45.375 C 1385.668,47.266285 1385.4373,47.585299 1384.4062,49.59375 1379.6365,58.88469 1375.0112,67.622641 1374.125,69 1373.2389,70.37736 1371.9715,72.40236 1371.3125,73.5 1370.127,75.474591 1363.2157,86.510192 1359.6875,92.0625 1358.6832,93.642949 1358.1477,95.441909 1358.5312,96.0625 1359.0101,96.83737 1359.809,96.614795 1361.0312,95.34375 1363.1702,93.11949 1377.221,69.423084 1385.3438,54.34375 1385.7224,53.64089 1386.2336,52.689949 1386.6562,51.90625 L 1386.6562,45.375 z M 1276.9062,17.46875 C 1275.6951,18.167565 1273.7271,21.325616 1270.25,28 1267.528,33.225 1262.044,43.8 1258.0312,51.5 1254.0184,59.2 1250.1235,66.225442 1249.375,67.09375 1248.6266,67.962057 1248,68.939048 1248,69.28125 1248,69.623452 1244.4,75.853158 1240,83.125 1235.6,90.396842 1232,96.73235 1232,97.1875 1232,98.577647 1233.6094,98.097186 1235.1875,96.25 1236.7307,94.443633 1246,79.254474 1246,78.53125 1246,78.307523 1247.7735,75.281764 1249.9375,71.8125 1256.6223,61.095286 1278.6726,18.328879 1277.9062,17.5625 1277.6365,17.292713 1277.31,17.235812 1276.9062,17.46875 z M 1319.6562,17.96875 C 1317.9836,17.405739 1310.4643,29.783056 1297.375,54.6875 1294.2495,60.634181 1290.9209,66.625 1289.9688,68 1288.4292,70.223223 1275,96.825517 1275,97.65625 1275,97.83858 1275.3981,98 1275.875,98 1277.0577,98 1282,90.410259 1282,88.59375 1282,87.789417 1282.4344,86.86149 1282.9688,86.53125 1283.5032,86.201009 1284.8455,84.033469 1285.9375,81.71875 1287.0294,79.404031 1289.9999,73.9 1292.5312,69.5 1295.0627,65.1 1298.6643,58.35 1300.5625,54.5 1302.4607,50.65 1305.0684,45.7 1306.3438,43.5 1307.619,41.3 1311.225,35.107724 1314.3438,29.75 1317.4625,24.392275 1320,19.554775 1320,19 1320,18.39043 1319.8952,18.04918 1319.6562,17.96875 z M 1297.3438,18.1875 C 1295.8515,18.481258 1287.9269,31.826599 1284.4062,40 1281.1889,47.469416 1271.5642,65.86637 1265.5938,75.9375 1257.0619,90.329404 1254,95.89093 1254,97.03125 1254,99.459548 1257.8505,96.538158 1259.3125,93 1259.6534,92.175 1261.2846,89.25 1262.9375,86.5 1264.5903,83.75 1267.5612,78.575 1269.5312,75 1271.5012,71.425 1274.6447,65.8 1276.5312,62.5 1278.4178,59.2 1280.6881,54.925 1281.5625,53 1282.4369,51.075 1283.9712,47.7 1284.9688,45.5 1288.9441,36.732889 1290.211,34.184933 1294.5,26.1875 1297.767,20.095745 1298.5278,17.954426 1297.3438,18.1875 z M 1221.125,18 C 1220.8195,18.037844 1220.2631,18.366719 1219.5,19 1217.1889,20.918022 1210.118,31.965941 1201.9062,46.5 1197.8664,53.65 1193.3135,61.261229 1191.7812,63.40625 1190.2489,65.551272 1189,67.913772 1189,68.65625 1189,73.042996 1195.0513,65.736872 1200.25,55.0625 1201.2041,53.103421 1202.4078,50.825 1202.9375,50 1203.4673,49.175 1206.0868,44.675 1208.7812,40 1211.4756,35.325 1215.5569,28.620406 1217.8438,25.09375 1220.8996,20.380866 1222.0416,17.886467 1221.125,18 z M 1240.0312,18 C 1238.177,18 1228.9093,32.765954 1220.875,48.5 1218.6282,52.9 1215.6934,57.954505 1214.3438,59.75 1212.9942,61.545495 1210.6862,65.595495 1209.25,68.75 1207.8137,71.904505 1205.8745,75.625 1204.9375,77 1201.022,82.746115 1194,95.352699 1194,96.625 1194,99.825982 1196.2062,97.436021 1201.2812,88.75 1204.2539,83.6625 1208.3703,76.430705 1210.4062,72.6875 1212.4423,68.944294 1215.5816,63.544294 1217.4062,60.6875 1219.2311,57.830705 1222.3725,52.35 1224.375,48.5 1226.3776,44.65 1228.3975,40.825 1228.875,40 1229.3524,39.175 1230.744,36.562038 1231.9688,34.1875 1233.1934,31.812963 1235.7248,27.556671 1237.5938,24.71875 1241.1526,19.314831 1241.6274,18 1240.0312,18 z M 1357.125,18 C 1355.6606,17.763204 1352.6498,23.399645 1332.0312,62.5 1330.001,66.35 1325.633,74 1322.3125,79.5 1314.9087,91.763665 1313,95.435414 1313,97.4375 1313,99.935647 1314.9399,99.231839 1316.25,96.25 1316.9145,94.7375 1317.7631,93.275 1318.125,93 1318.4868,92.725 1319.5011,90.925 1320.375,89 1322.7837,83.693844 1327.7686,74.986053 1330.375,71.5625 1331.6538,69.882759 1333.9466,66.025 1335.4375,63 1336.9284,59.975 1339.2122,55.7 1340.5312,53.5 1341.8502,51.3 1343.624,47.925 1344.4688,46 1345.3133,44.075 1346.9163,40.925 1348.0312,39 1352.3686,31.510766 1358.2746,18.930918 1357.7188,18.375 1357.5258,18.182085 1357.3342,18.033828 1357.125,18 z M 1381.5312,18.15625 C 1381.3874,18.085711 1381.2147,18.105503 1380.9688,18.1875 1380.2428,18.429443 1379.3194,19.270236 1378.9062,20.0625 1378.4931,20.854765 1376.5821,24.2 1374.6875,27.5 1369.904,35.831604 1366.0038,42.989439 1360.2188,54.03125 1354.7862,64.400098 1347.3546,77.974798 1341.6562,87.875 1339.6423,91.374191 1337.7046,95.311691 1337.375,96.625 1336.6087,99.678227 1338.4995,99.752912 1340.3438,96.75 1344.5061,89.973166 1355.8282,69.453771 1360.9062,59.5 1363.1511,55.1 1366.8029,48.35 1369,44.5 1371.1972,40.65 1373.3839,36.604353 1373.875,35.5 1374.3662,34.395647 1376.1684,31.113095 1377.875,28.21875 1381.1102,22.731764 1382.538,18.650023 1381.5312,18.15625 z M 1201.625,18.0625 C 1200.867,17.658752 1198.9993,19.611807 1196.2812,23.75 1192.8996,28.898664 1189,35.834537 1189,36.6875 1189,36.864291 1189.6297,37 1190.4062,37 1191.8636,37 1202,21.481697 1202,19.25 1202,18.583305 1201.8777,18.197083 1201.625,18.0625 z M 1259.4062,18.6875 C 1258.0701,19.206959 1253.6642,25.831487 1248.125,35.75 1242.3525,46.086359 1236.558,56.497039 1226.5312,74.5 1222.2426,82.2 1217.4509,90.266648 1215.875,92.4375 1214.2992,94.608351 1213,96.745851 1213,97.1875 1213,97.629148 1213.667,98 1214.4688,98 1215.2707,98 1217.1217,95.8625 1218.5938,93.25 1220.0659,90.6375 1223.1296,85.575 1225.4062,82 1227.6829,78.425 1230.6479,73.25 1232,70.5 1233.3521,67.75 1235.9439,63.15608 1237.75,60.28125 1239.5562,57.40642 1241.4874,53.86814 1242.0312,52.4375 1242.5753,51.00686 1245.0277,46.510168 1247.5,42.4375 1249.9722,38.364832 1252,34.763205 1252,34.4375 1252,34.111795 1253.8419,30.75924 1256.0938,26.96875 1258.3457,23.17826 1260.0032,19.509647 1259.7812,18.84375 1259.7206,18.661738 1259.5971,18.613292 1259.4062,18.6875 z M 1337.4062,19.09375 C 1336.5266,18.218084 1333.1423,22.745192 1329.9375,29.09375 1328.3814,32.17643 1324.4979,38.92476 1321.2812,44.09375 1318.0645,49.26274 1314.8898,54.625 1314.2188,56 1313.5478,57.375 1312.0734,59.988629 1310.9688,61.8125 1309.8641,63.63637 1306.4084,69.93637 1303.2812,75.8125 1300.1543,81.688629 1296.3513,88.49232 1294.8125,90.9375 1293.2736,93.382679 1292,96.195179 1292,97.1875 1292,98.17982 1292.1829,99 1292.4062,99 1293.742,99 1301.1764,86.68816 1308.5938,72.21875 1313.3117,63.014868 1319.7746,51.45 1322.9375,46.5 1330.0163,35.421664 1338.2062,19.890009 1337.4062,19.09375 z"/>
</svg>
