<svg xmlns="http://www.w3.org/2000/svg"
     width="56.7" height="64.0"
     viewBox="800.9751 11.6192 81.6811 92.2080">
  <path d="M 878.65625,76.53125 878.65625,70.65625 C 878.14942,71.512345 877.59141,72.571571 877.15625,73.28125 874.8739,77.003438 873,80.715938 873,81.53125 873,84.339674 874.76056,82.986487 877.9375,77.75 878.23433,77.260746 878.37261,77.000198 878.65625,76.53125 z M 878.65625,42.15625 878.65625,36.5 C 877.10577,38.935256 875.24769,42.131382 874.4375,43.875 873.57261,45.736344 871.51106,49.111344 869.875,51.375 864.26894,59.131572 862,63.077377 862,65.03125 862,66.106825 862.3585,67 862.8125,67 863.64577,67 870.93598,55.887092 874.9375,48.5 875.73352,47.030485 877.26859,44.486444 878.65625,42.15625 z M 846.3125,16 C 844.49641,16 835.86913,23.991161 836.53125,25.0625 836.81708,25.524982 839.12293,24.482371 841.625,22.71875 L 846.15625,19.5 849.84375,23.59375 C 853.50751,27.673518 859.16556,32.160383 862,33.25 864.75376,34.308603 869.58827,34.008435 871.4375,32.65625 872.94672,31.552675 873.19906,30.34895 872.8125,25.6875 872.26789,19.12024 869.86691,15.619213 866.59375,16.625 865.44853,16.976908 862.55257,18.544133 860.1875,20.125 857.82243,21.705868 855.47784,23 854.96875,23 854.45966,23 852.62671,21.425 850.875,19.5 849.12329,17.575 847.06141,16 846.3125,16 z M 867.65625,20.40625 C 868.19327,20.691368 868.5664,21.328297 869,22.46875 870.48109,26.364326 870.21527,29.712064 868.40625,30.40625 867.53627,30.740094 866.29877,30.978016 865.65625,30.96875 864.14116,30.946901 858,27.010187 858,26.0625 858,24.643158 862.55549,21.137474 865.25,20.46875 866.41832,20.178796 867.11923,20.121132 867.65625,20.40625 z M 812.03125,16.125 C 811.67379,16.170759 811.18269,16.41747 810.59375,16.90625 808.5232,18.624653 804.97513,26.159868 805.6875,27.3125 806.34273,28.372684 808.91937,25.318255 811.65625,20.28125 813.06556,17.687525 813.10364,15.987723 812.03125,16.125 z M 832.59375,17.84375 C 831.84223,17.786309 830.14362,19.365051 828.625,21.75 821.93583,32.25517 811,50.121885 811,50.53125 811,51.691942 812.82866,50.802606 814.65625,48.75 818.55121,44.375505 833,20.522072 833,18.46875 833,18.054061 832.84426,17.862897 832.59375,17.84375 z M 841.125,36.03125 C 840.81227,35.950715 840.32385,36.044324 839.625,36.3125 837.26643,37.217569 825,57.893903 825,60.96875 825,63.74628 827.74866,60.892649 831.28125,54.4375 833.36566,50.628621 836.68196,45.095463 838.625,42.15625 841.26746,38.159042 842.06319,36.272856 841.125,36.03125 z M 857.46875,39.125 C 856.35873,38.045352 847,52.880433 847,55.71875 847,58.855069 849.44847,56.05461 853.6875,48.09375 856.12347,43.519017 857.83056,39.476901 857.46875,39.125 z M 848.6875,65.5 C 848.41027,65.558788 848.1782,65.711669 848,66 847.3845,66.995902 847.66878,68.131747 848.875,69.5 851.36126,72.32024 856.46199,80.847679 858,84.78125 858.9924,87.31939 859.0129,88.676271 858.125,90.625 857.49102,92.016432 857.21681,93.553714 857.53125,94.0625 858.68175,95.924043 859.92057,94.911794 860.9375,91.25 862.43746,85.848886 862.3514,85.389877 858.4375,77.46875 854.78515,70.076984 850.62809,65.088487 848.6875,65.5 z M 833.125,71.53125 C 831.9014,71.953306 830.06323,73.861014 827.15625,77.65625 820.42546,86.443701 817.94261,96.008476 821.6875,98.75 822.70506,99.494927 824.59504,99.82721 826,99.5 828.5196,98.913195 829.38964,98.113369 836.3125,89.65625 838.40238,87.103213 840.46583,85 840.90625,85 841.34666,85 843.10301,87.25 844.8125,90 847.59289,94.472716 851,96.681322 851,94 851,92.132761 842.8388,81 841.46875,81 840.72376,81 837.9567,83.539695 835.3125,86.65625 828.10186,95.154996 827.17508,96 825,96 820.72489,96 824.31489,85.322247 831.625,76.3125 833.4918,74.011654 834.63201,71.887785 834.15625,71.59375 833.86966,71.416625 833.53287,71.390565 833.125,71.53125 z"/>
</svg>
