<svg xmlns="http://www.w3.org/2000/svg"
     width="53.1" height="64.0"
     viewBox="308.0000 20.2268 68.8714 82.9725">
  <path d="M 312,88.990496 C 312,88.435269 313.82905,86.747769 316.06455,85.240496 323.9054,79.953856 325.03778,78.628014 326.50755,73.01339 L 327.94381,67.52678 324.58209,64.01339 C 320.99272,60.262079 318,55.065615 318,52.584456 318,51.007795 323.66143,44 324.93518,44 325.33557,44 327.0813,46.188544 328.81457,48.863431 333.20081,55.632559 334.19062,56.325902 337.38808,54.869042 340.03351,53.663702 340.69433,50.757684 340.10799,42.907977 340.0015,41.482365 340.60864,39.739765 341.45719,39.035532 342.8248,37.900515 343,38.626136 343,45.425304 343,52.45404 342.77654,53.302598 340.32794,55.571882 335.88339,59.690945 333.29715,59.766935 329.96421,55.876393 328.37335,54.019377 326.79215,51.686908 326.45043,50.69313 325.67436,48.436188 322.64393,48.894879 322.17293,51.340578 321.53735,54.640868 322.94843,57.789468 326.57681,61.167102 330.10708,64.453407 330.14805,64.58299 329.50781,70.436485 328.61691,78.581683 327.12108,80.979528 319.91041,85.821378 313.49444,90.129592 312,90.728304 312,88.990496 z M 358.42469,98.234687 C 357.83327,97.830609 356.49874,96.0375 355.45908,94.25 354.41942,92.4625 353.07946,91 352.4814,91 351.88333,91 349.4971,92.395 347.17866,94.1 342.38555,97.624894 337.41962,98.160191 333.47709,95.576947 330.83672,93.84691 330.07827,90 332.37756,90 333.13521,90 334.27867,90.630849 334.91857,91.401887 337.46876,94.474677 340.8594,94.200231 346.48585,90.465608 352.57374,86.4247 354.18251,86.63883 357.99855,91.997966 360.14646,95.01443 362.36541,95.835802 363.4827,94.027993 363.8131,93.493389 362.7376,90.343443 361.09269,87.028113 358.19311,81.183969 358.14933,80.886856 359.65625,77.280283 360.64801,74.906675 361.0268,71.930121 360.70285,69.056072 360.21741,64.74926 360.38814,64.37841 364.59758,60.595887 367.01891,58.420126 369,56.031844 369,55.288594 369,52.749744 366.0281,52.793487 361.58427,55.397746 353.95673,59.867782 351.60051,58.431801 350.55581,48.676539 349.74341,41.090489 351.10194,37.037071 355.97748,32.5 357.75057,30.85 359.59486,28.4875 360.07589,27.25 361.07606,24.676988 363,24.226775 363,26.565741 363,28.804838 361.14615,31.965616 357.78043,35.464998 353.78904,39.614891 352.81014,42.522081 353.5892,47.91226 354.69365,55.553709 355.9667,56.016579 362.98213,51.32746 367.45996,48.334479 369.40045,48.38871 370.83948,51.547053 372.8714,56.006622 372.20364,58.314367 367.97636,61.441827 364.14344,64.277534 364,64.591044 364,70.13281 364,73.294846 363.55,76.160081 363,76.5 361.24262,77.586122 361.92267,82.45213 364.57597,87.776612 367.50606,93.65653 367.15355,96.610921 363.34933,98.057284 360.39897,99.179009 359.83649,99.199272 358.42469,98.234687 z M 339.00936,81.627324 C 334.9146,80.295665 333.3995,77.014483 334.40484,71.655536 335.48358,65.905366 338.82748,62.727273 343.7989,62.727273 348.76142,62.727273 350.12801,63.699648 351.84718,68.453918 353.00477,71.655174 352.92598,72.383704 351.10323,75.332975 347.16743,81.701221 344.11755,83.288559 339.00936,81.627324 z M 348.58838,75.505456 C 350.78262,72.156618 349.61968,67.186102 346.35117,65.943416 342.27682,64.394351 338.32754,67.101818 337.49782,72.012919 336.733,76.539863 337.8573,78.665162 341.32262,79.243017 344.20664,79.723938 346.64678,78.468708 348.58838,75.505456 z"/>
</svg>
