<svg xmlns="http://www.w3.org/2000/svg"
     width="45.0" height="64.0"
     viewBox="155.4881 11.7714 63.1682 89.8066">
  <path d="M 214.65625,57.03125 C 214.11104,57.680331 213.53171,58.221831 212.8125,58.59375 209.20796,60.457726 204.97797,60.373295 202.125,58.375 200.00272,56.888501 199.86782,56.278545 200.5,51.21875 201.46292,43.511804 201.95239,42.530225 206.65625,39.125 211.50968,35.611504 213.62182,30.75755 212.0625,26.65625 211.50961,25.202027 210.70736,23.997646 210.28125,24 209.85514,24.002355 207.475,25.354709 205,27 200.03483,30.300665 198,30.765825 198,28.5625 198,26.430672 200.168,22 201.21875,22 201.717,22 201.98653,20.7625 201.8125,19.25 201.55359,16.9998 200.93912,16.432144 198.4375,16.1875 194.18232,15.771366 185.5923,22.179 183.53125,27.28125 181.52172,32.255981 181.45311,32.002773 185.53125,37.34375 189.41578,42.431162 189.46293,43.484453 186.3125,54.75 185.00837,59.41339 184.5672,60.00332 182.1875,60 177.5053,59.993467 173.22389,56.557252 171.9375,51.78125 170.99137,48.268533 171.09836,46.041971 172.5,39.5 173.44272,35.1 174.65887,30.318037 175.1875,28.875 176.35954,25.675614 175.23235,19 173.53125,19 170.77393,19 167.29951,25.138689 163.34375,37 159.86524,47.430285 159.48807,62.458799 162.59375,66.65625 163.74893,68.217522 165.66143,69.636747 166.84375,69.8125 169.52348,70.210845 169.60109,68.85693 167.03125,66.53125 165.95195,65.554502 164.54205,63.176474 163.90625,61.25 162.2891,56.349989 163.61903,43.061635 166.46875,35.5625 170.42135,25.16111 171.4134,23 172.21875,23 173.56413,23 173.08429,27.145493 170.5,37.8125 167.50707,50.166138 167.49419,50.633282 169.875,56.1875 171.97039,61.075831 175.07633,63.023721 180.8125,63 187.00015,62.974413 187.83678,61.697381 190.5,48.75 L 192.3125,39.96875 188.65625,36.3125 C 186.60687,34.263121 185,31.670473 185,30.40625 185,26.079725 194.0625,18.036648 197.46875,19.34375 198.44538,19.718518 198.168,21.093818 196.28125,24.90625 194.90601,27.685113 194.02227,30.630984 194.34375,31.46875 195.23143,33.782015 200.08215,33.310895 204.21875,30.5 208.61074,27.515567 210,27.372538 210,29.875 210,32.394582 206.28413,36.932687 203.3125,38.0625 200.29354,39.210304 198.31044,43.818424 197.53125,51.53125 196.85709,58.204513 197.56529,59.697006 202.6875,62.34375 206.30021,64.210504 209.58101,64.48696 210.5,63 210.83992,62.45 211.7678,62 212.5625,62 212.78697,62 212.94073,62.165249 213.09375,62.34375 L 214.65625,60 214.65625,57.03125 z M 212,73.59375 C 212,72.799767 209.52952,72.377458 204.5,72.28125 L 197,72.125 197,76.9375 C 197,82.371312 195.02458,88.764999 192.03125,92.96875 190.91967,94.529815 190,96.078654 190,96.40625 190,97.57796 191.73008,96.969519 193.28125,95.25 194.99333,93.352096 198.43998,84.471026 199.5,79.25 200.12246,76.184096 200.40701,76 204.5,76 209.61433,76 212,75.228438 212,73.59375 z M 182.1875,72.34375 C 181.6851,72.209562 181.28333,72.310415 180.9375,72.65625 180.24583,73.347921 180.42157,74.099666 181.46875,74.96875 183.59479,76.733204 183.35609,82.582519 180.96875,87.84375 179.88083,90.241312 179,92.876729 179,93.6875 179,96.749953 181.58329,94.157359 183.71875,88.9375 186.58549,81.930116 186.67804,75.920626 183.96875,73.46875 183.28179,72.84706 182.6899,72.477938 182.1875,72.34375 z"/>
</svg>
