<svg xmlns="http://www.w3.org/2000/svg"
     width="51.7" height="64.0"
     viewBox="1426.6562 13.3042 73.3438 90.7338">
  <path d="M 1430.6562,41.40625 C 1436.2047,32.162825 1443.2047,18.872253 1442.4688,18.15625 1441.5928,17.304166 1440.2282,19.273457 1431.875,33.4375 1431.3752,34.284999 1431.1617,34.588194 1430.6562,35.4375 L 1430.6562,41.40625 z M 1496,32.96875 1496,27.21875 C 1492.9404,32.401275 1490,37.924598 1490,39.03125 1490,41.882872 1491.8715,41.444988 1493.0625,38.3125 1493.3349,37.595949 1494.9516,34.883074 1496,32.96875 z M 1462.3125,18.03125 C 1462.0857,17.935168 1461.7051,18.067035 1461.1562,18.40625 1460.0235,19.106324 1450,36.820155 1450,38.125 1450,38.59952 1450.4569,39 1451,39 1452.1942,39 1455.6335,33.65112 1459.9375,25.125 1462.2084,20.626411 1462.9928,18.319496 1462.3125,18.03125 z M 1484.5312,18.09375 C 1484.283,18.043456 1483.9235,18.087797 1483.4375,18.1875 1481.5761,18.569358 1469.6929,38.705815 1470.5312,40.0625 1471.5956,41.784664 1472.593,41.021231 1474.7812,36.75 1477.0591,32.303515 1481.1875,25.057244 1483.5938,21.28125 1484.9544,19.145884 1485.2761,18.244633 1484.5312,18.09375 z M 1453.5,47 C 1452.6585,47 1452,47.890589 1452,49.03125 1452,51.863439 1456.6192,60.665495 1458.75,61.90625 1461.5313,63.525806 1463.7449,63.202454 1467.7812,60.53125 1471.1754,58.285054 1479,49.938596 1479,48.5625 1479,46.850787 1475.8293,48.437004 1473.9375,51.09375 1471.4451,54.593975 1464.38,60 1462.3125,60 1460.6544,60 1455,51.345838 1455,48.8125 1455,47.82018 1454.325,47 1453.5,47 z M 1484.7188,58.0625 C 1484.1645,57.629077 1482.9416,58.734364 1482.0938,60.78125 1481.0813,63.225737 1476.8072,67.917847 1469.25,74.90625 1468.0125,76.050605 1467,77.41817 1467,77.9375 1467,82.163124 1478.7711,87.589522 1485.1562,86.3125 1488.3213,85.679499 1488.5514,86.10607 1486.8438,89.3125 1485.1811,92.434092 1483.1418,93.71756 1477.875,95 1471.1417,96.639535 1465.9305,94.961687 1460.3125,89.34375 1455.4008,84.431995 1453.4446,84.201689 1448.875,87.90625 1445.7416,90.446522 1446.9562,91.504941 1450.625,89.4375 1453.4971,87.818966 1453.5377,87.828405 1458.375,92.375 1461.3967,95.215123 1464.9897,97.484001 1467.875,98.34375 1473.5608,100.03799 1477.0441,99.527977 1483.375,96.125 1487.778,93.758323 1488.5551,92.780447 1491.2812,86.21875 1492.9423,82.220772 1494.0205,78.676709 1493.6875,78.34375 1493.3546,78.010791 1491.6842,78.931563 1489.9688,80.375 1486.5915,83.216853 1482.9171,83.655702 1476.8438,81.96875 1470.0577,80.083845 1470.0123,78.616197 1476.4688,72.3125 1481.6013,67.301415 1485,62.011985 1485,59.03125 1485,58.51943 1484.9035,58.206974 1484.7188,58.0625 z M 1445.2188,48.25 C 1442.3125,47.281265 1442.5233,60.207438 1445.5312,67.40625 1447.0503,71.041648 1447.0167,71.168105 1444.0312,74.9375 1442.3604,77.047048 1441,79.297898 1441,79.90625 1441,82.085417 1442.8065,80.913654 1446.5,76.40625 L 1450.2812,71.84375 1448.5938,66.15625 C 1447.6812,63.038535 1446.818,57.829465 1446.6562,54.5625 1446.4918,51.242637 1445.8577,48.463001 1445.2188,48.25 z"/>
</svg>
