<svg xmlns="http://www.w3.org/2000/svg"
     width="47.6" height="64.0"
     viewBox="0.9656 14.8604 71.6906 96.3584">
  <path d="M 68.65625,26.375 C 68.283909,27.056842 67.967068,27.520588 67.59375,28.25 64.989934,33.3375 61.435384,40.032692 59.6875,43.125 52.927303,55.084956 45.358933,68.562196 42.4375,73.90625 38.188622,81.678542 35.694578,85.959893 31.03125,93.34375 28.814764,96.853307 27,100.44069 27,101.34375 27,105.28495 30.290655,101.78364 35.96875,91.78125 36.814512,90.291377 39.488147,85.566377 41.90625,81.28125 44.324354,76.996124 47.268348,72.15 48.46875,70.5 49.669151,68.85 52.580903,63.675 54.9375,59 57.294097,54.325 59.569371,50.05 60,49.5 60.742269,48.551974 64.818207,40.717779 68.65625,33.09375 L 68.65625,26.375 z M 63.6875,67.5 C 62.048498,67.021826 59.510374,71.380091 46.90625,94.75 44.75476,98.739181 43,102.22668 43,102.5 43,102.77332 43.469256,103 44.03125,103 45.128339,103 53,91.342183 53,89.71875 53,89.182206 54.492301,86.665686 56.3125,84.125 61.779246,76.494356 65.460751,69.054501 64.34375,67.9375 64.118711,67.712461 63.921643,67.568311 63.6875,67.5 z M 68.65625,92.96875 C 65.79516,96.971459 62.897843,102.02569 63.5,103 63.845097,103.55838 64.272403,104 64.46875,104 64.837738,104 66.730454,100.96041 68.65625,97.625 L 68.65625,92.96875 z M 17.15625,19.75 C 16.266617,18.860367 4.9656225,38.95577 5.03125,41.3125 5.0750873,42.886727 9,38.158316 9,36.53125 9,35.841353 9.8730175,34.165771 10.9375,32.8125 14.402819,28.407062 18.086375,20.680125 17.15625,19.75 z M 52.25,20.21875 C 51.334933,20.586615 50.35073,21.634159 49.96875,23.0625 48.938021,26.916712 39.219571,45.952263 31.3125,59.59375 27.461785,66.237105 23.105491,74.112105 21.625,77.09375 20.14451,80.075395 16.469811,86.775 13.46875,92 10.46769,97.225 8.0018691,102.0625 8,102.75 7.9878504,107.21877 13.413863,99.780318 20.9375,85 27.438977,72.227734 34.16309,59.687296 35.40625,58 38.698807,53.531132 54,23.438579 54,21.4375 54,20.162718 53.165067,19.850885 52.25,20.21875 z M 32.90625,21.09375 C 32.638015,21.163031 32.409299,21.46163 32.21875,22 30.833638,25.913444 17.213432,51.029701 11.78125,59.6875 7.7492646,66.113668 5.7276408,71.383891 6.84375,72.5 8.052597,73.708847 11.604033,67.971689 20.6875,50.21875 25.675731,40.469635 30.953566,30.275251 32.40625,27.5625 34.366525,23.90187 34.754356,22.354943 33.90625,21.5625 33.496111,21.179279 33.174485,21.024469 32.90625,21.09375 z"/>
</svg>
