<svg xmlns="http://www.w3.org/2000/svg"
     width="64.0" height="25.5"
     viewBox="874.6562 11.9352 235.3438 93.7801">
  <path d="M 1106,81.9375 C 1105.3022,82.98948 1104.6265,83.960616 1103.875,85.25 1101.551,89.2375 1099.1107,93.175 1098.4688,94 1097.8268,94.825 1097.0288,96.2875 1096.6875,97.25 1096.3138,98.303777 1096.5475,98.985855 1097.2812,98.96875 1097.9514,98.953127 1100.975,94.816374 1104,89.78125 1105.0935,87.9611 1105.237,87.537806 1106,86.21875 L 1106,81.9375 z M 878.65625,76.53125 C 885.76259,64.782273 889.05901,58.874079 897,43.5 901.82944,34.15 906.4905,25.15 907.375,23.5 908.25951,21.85 908.99661,19.9375 909,19.25 909.01634,15.935177 906.60958,18.940477 901.40625,28.75 898.27004,34.6625 894.1169,42.425 892.1875,46 890.2581,49.575 887.03198,55.65 885,59.5 883.35544,62.615952 880.80769,67.022222 878.65625,70.65625 L 878.65625,76.53125 z M 878.65625,42.15625 C 879.34605,40.997928 879.87886,40.004417 880.5,39 887.98323,26.899176 892.45096,18 891.03125,18 889.80264,18 886.52968,22.340198 884,27.3125 882.82639,29.619321 880.54645,33.525 878.9375,36 878.83574,36.156538 878.76094,36.335576 878.65625,36.5 L 878.65625,42.15625 z M 929.40625,17.125 C 928.28412,17.37767 925.70842,20.947866 922.90625,26.34375 920.57277,30.837113 916.6563,37.875 914.21875,42 906.5235,55.022484 892,81.870799 892,83.0625 892,83.691693 890.9956,85.575863 889.78125,87.28125 886.60854,91.736914 884,97.145339 884,99.21875 884,100.20246 884.40852,101 884.90625,101 885.94993,101 894.43485,86.682577 895.5,83.125 896.09276,81.145197 900.07756,73.580104 904,67 904.49179,66.175 906.56484,62.35 908.59375,58.5 910.62267,54.65 914.17871,48.125 916.5,44 923.45997,31.631906 930,19.054846 930,18.03125 930,17.324894 929.78029,17.040777 929.40625,17.125 z M 949.03125,17.90625 C 948.67765,17.851116 948.09827,18.066846 947.3125,18.5625 945.79715,19.518364 944.06119,22.689815 929.125,51.5 925.41819,58.65 921.24156,66.3 919.84375,68.5 918.44593,70.7 915.55771,75.875 913.4375,80 911.31728,84.125 908.31907,89.49232 906.78125,91.9375 905.24343,94.382679 904,97.243096 904,98.28125 904,99.345267 904.54537,99.983206 905.25,99.75 906.60833,99.300442 918.83531,78.309425 918.9375,76.25 918.97189,75.55686 920.575,72.738719 922.5,70 924.425,67.261281 926,64.676285 926,64.25 926,63.437749 926.65673,62.121961 934.5,47.5 941.8877,33.727363 942.31075,32.965541 946.40625,25.6875 949.21888,20.689222 950.09206,18.071653 949.03125,17.90625 z M 1085.2188,18 C 1083.6876,18 1082.5053,19.787283 1076.625,31.03125 1073.615,36.786824 1070.1268,43.357205 1068.8438,45.625 1053.4682,72.799088 1050.3262,78.12639 1043.25,89.21875 1040.3625,93.745046 1038,98.019223 1038,98.71875 1038,101.14411 1040.8062,99.983856 1042.75,96.75 1043.8245,94.9625 1047.014,89.765373 1049.8438,85.1875 1052.6736,80.609627 1055,76.657687 1055,76.4375 1055,76.217313 1058.375,70.17888 1062.5,63 1066.625,55.82112 1070,49.667253 1070,49.3125 1070,48.957748 1070.6412,47.962057 1071.4062,47.09375 1072.1713,46.225442 1074.7164,41.675 1077.0625,37 1079.4087,32.325 1082.1166,27.346047 1083.0938,25.9375 1085.2944,22.76569 1086.5641,18 1085.2188,18 z M 1104.5938,18 C 1103.1332,18 1101.0965,21.176959 1094.2812,34 1083.7606,53.794772 1080.9163,59.09746 1078.9062,62.65625 1077.7111,64.772291 1075.4309,68.890814 1073.8438,71.8125 1072.2564,74.734186 1068.032,81.602851 1064.4688,87.09375 1060.9055,92.584648 1058,97.731334 1058,98.53125 1058,99.331166 1058.3724,100 1058.8438,100 1059.755,100 1073.9212,78.562398 1078,71 1079.3349,68.525 1081.4299,64.7 1082.6562,62.5 1083.8828,60.3 1087.3109,53.775 1090.2812,48 1093.2515,42.225 1098.0021,33.1125 1100.8438,27.75 1104.3548,21.124782 1105.5534,18 1104.5938,18 z M 1024.6875,18.25 C 1023.4312,19.038098 1021.0916,22.914924 1015.0312,33.71875 1010.4672,41.855072 1005.9874,49.625 1005.0625,51 1004.1376,52.375 1002.3542,55.525 1001.125,58 998.65553,62.972392 997.96638,64.216366 993.40625,71.5 991.68453,74.25 989.01084,79.19031 987.46875,82.46875 985.92666,85.747191 983.33122,90.531075 981.71875,93.125 980.10628,95.718926 979.10403,98.347366 979.46875,98.9375 979.83347,99.527633 980.43246,99.983013 980.8125,99.96875 981.74718,99.933673 990.57675,85.132109 991.53125,82 991.95028,80.625 993.42187,77.7 994.8125,75.5 996.20314,73.3 999.08019,68.200969 1001.1875,64.15625 1003.2948,60.111531 1005.8447,55.611531 1006.8438,54.15625 1011.2766,47.699383 1026.3653,19.021502 1025.6875,18.34375 1025.4076,18.063849 1025.1063,17.987301 1024.6875,18.25 z M 1043.375,18.3125 C 1042.1505,18.524927 1040.3765,20.960631 1038.4375,25.28125 1036.9164,28.670745 1034.2005,33.80248 1032.375,36.65625 1030.5494,39.51002 1024.2751,50.748281 1018.4375,61.65625 1012.5998,72.564218 1005.578,85.216148 1002.8438,89.75 1000.1096,94.283853 998.17113,98.44857 998.53125,99.03125 999.66783,100.87028 1001.1453,99.588285 1003.9688,94.25 1005.4754,91.401462 1007.1549,88.487578 1007.7188,87.78125 1008.7124,86.536575 1010.5309,83.221047 1022.3125,61 1025.3744,55.225 1031.6982,43.556488 1036.375,35.0625 1041.0518,26.568512 1044.6655,19.263241 1044.4062,18.84375 1044.1317,18.399474 1043.7832,18.241691 1043.375,18.3125 z M 1065.0312,18.46875 C 1063.9156,18.875152 1061.7834,22.345894 1057.875,29.90625 1054.919,35.624259 1052.0521,41.024259 1051.5,41.90625 1049.8268,44.578797 1042.501,57.953444 1037.5,67.5 1034.907,72.45 1029.8822,81.304356 1026.3125,87.1875 1022.7429,93.070645 1020.1108,98.358145 1020.4688,98.9375 1020.8269,99.516856 1021.2779,100 1021.4688,100 1022.0756,100 1029.0395,89.986238 1031.3125,85.84375 1032.5154,83.651408 1035.1581,78.858254 1037.1875,75.1875 1039.2168,71.516745 1041.7718,66.7 1042.875,64.5 1043.9781,62.3 1046.465,57.8 1048.375,54.5 1050.2851,51.2 1053.658,45.037888 1055.875,40.8125 1058.092,36.587112 1060.3366,32.312112 1060.875,31.3125 1063.4823,26.472061 1066.1441,19.903717 1065.8438,19.03125 1065.6696,18.525365 1065.4031,18.333283 1065.0312,18.46875 z M 983.71875,19.125 C 982.39693,20.059466 979.58507,25.484723 966.71875,50 963.97652,55.225 960.01106,62.875 957.90625,67 955.80144,71.125 952.78992,76.75 951.21875,79.5 944.48286,91.289773 941.792,97.030907 942.34375,98.46875 942.66778,99.313151 943.135,100 943.375,100 944.1739,100 949.31438,90.680899 958.1875,73.125 963.01692,63.569778 967.39653,55.214331 967.9375,54.5625 970.43843,51.549061 985.75341,19.44566 984.84375,19.125 984.41715,18.974622 984.15936,18.813511 983.71875,19.125 z M 1004.5625,19.125 C 1003.6221,19.210584 1001.0237,23.822935 995.21875,35.25 983.59947,58.122566 975.51416,73.206584 968.21875,85.625 964.53386,91.897489 962.15426,96.974024 962.5,97.875 963.30729,99.978762 966.58715,95.839016 972.1875,85.59375 974.56623,81.242106 978.3926,74.267106 980.71875,70.09375 987.28604,58.311346 1005,22.112005 1005,20.46875 1005,19.579701 1004.876,19.096472 1004.5625,19.125 z M 967.34375,20.1875 C 965.76415,20.491703 958,32.872238 958,35.09375 958,35.536126 956.59446,38.307046 954.875,41.21875 953.15555,44.130453 948.88752,52.22776 945.375,59.21875 941.86248,66.20974 936.74197,75.65974 934,80.21875 931.25802,84.77776 929.00105,88.880501 929,89.34375 928.99895,89.806999 928.1,91.320327 927,92.71875 925.9,94.117174 925,96.372089 925,97.71875 925,101.71529 926.95432,99.899071 931.1875,91.96875 933.37938,87.862533 936.43925,82.475 937.96875,80 939.49824,77.525 941.40217,74.15 942.21875,72.5 943.03532,70.85 945.82529,65.225 948.40625,60 950.98721,54.775 953.69865,49.375 954.4375,48 965.52744,27.361496 969.01131,19.866356 967.34375,20.1875 z M 1100.4375,63.28125 C 1099.4894,62.727855 1096.7429,67.070015 1085.0312,86.78125 1081.6699,92.438454 1079.2182,97.536747 1079.5625,98.09375 1080.2723,99.242387 1083,97.405876 1083,95.78125 1083,95.240858 1084.2741,92.936013 1085.8125,90.65625 1087.351,88.376486 1088.9357,85.825 1089.3438,85 1089.7519,84.175 1090.6399,82.6 1091.3125,81.5 1097.7608,70.95379 1101.0624,64.718361 1100.75,63.78125 1100.6672,63.532856 1100.5729,63.360306 1100.4375,63.28125 z"/>
</svg>
