<svg xmlns="http://www.w3.org/2000/svg"
     width="64.0" height="41.2"
     viewBox="521.3438 10.9535 150.0000 96.6387">
  <path d="M 525.34375,74.96875 C 528.27163,69.769829 531.54962,64.44664 532.21875,64.15625 532.64119,63.972916 533,63.389109 533,62.84375 533,62.298392 535.06254,58.662854 537.59375,54.75 540.12497,50.837146 542.48747,46.920954 542.84375,46.0625 543.20004,45.204046 546.7625,39.046593 550.75,32.375 557.39563,21.256026 559.66568,15.26769 556.90625,16.1875 556.30831,16.386815 553.81242,20.340234 551.34375,24.96875 548.87507,29.597266 545.36107,35.656998 543.53125,38.4375 539.99936,43.804357 530.43102,60.477881 528,65.5 527.43035,66.67681 526.33236,68.329364 525.34375,69.84375 L 525.34375,74.96875 z M 618.59375,16.84375 C 617.81823,16.812514 615.97097,19.349738 613.6875,23.75 611.76094,27.4625 608.30943,34.1 606,38.5 603.69057,42.9 599.1071,51.675 595.8125,58 592.5179,64.325 588.83318,70.85 587.625,72.5 584.63952,76.577242 573,97.613501 573,98.9375 573,101.14293 575.06671,99.866322 577.34375,96.25 578.64241,94.1875 581.67302,88.851258 584.09375,84.40625 588.05368,77.134933 592.29422,69.811017 598.6875,59.15625 599.89268,57.147745 601.66875,53.7 602.625,51.5 603.58124,49.3 607.66455,40.975 611.6875,33 615.71044,25.025 618.99687,18.1625 619,17.75 619.00464,17.139059 618.85226,16.854162 618.59375,16.84375 z M 599.84375,17.1875 C 599.56363,17.185597 599.11573,17.492082 598.5,18.15625 597.24784,19.506907 587.9402,37.316339 586.03125,42 585.47083,43.375 584.55859,45.175 584.03125,46 583.50391,46.825 580.32334,52.225 576.9375,58 573.55167,63.775 568.87532,71.425 566.5625,75 559.67773,85.641986 552,98.79676 552,99.9375 552,103.59221 559.03639,95.084669 563.9375,85.5 565.34634,82.744861 567.31479,79.369861 568.3125,78 575.42023,68.241002 586,49.362965 586,46.4375 586,45.463584 586.6539,43.962057 587.4375,43.09375 588.89658,41.476938 593.15776,33.775454 598.03125,24 600.04916,19.952411 600.68412,17.19321 599.84375,17.1875 z M 577.65625,17.375 C 576.97586,17.071799 575.18789,19.869573 571.96875,26.1875 569.68663,30.666411 566.80286,35.936156 565.5625,37.90625 564.32213,39.876343 561.36146,45.1 559,49.5 556.63854,53.9 553.86549,58.563327 552.84375,59.875 551.82201,61.186672 551,62.823345 551,63.5 551,64.176655 550.17783,65.813328 549.15625,67.125 548.13466,68.436673 545.14241,73.55 542.53125,78.5 539.9201,83.45 536.27351,90.028054 534.40625,93.125 532.53898,96.221946 531,99.034446 531,99.375 531,100.76268 534.12056,99.871357 534.71875,98.3125 535.07335,97.388432 536.85936,94.36964 538.6875,91.59375 540.51564,88.81786 542,86.191862 542,85.75 542,85.308139 543.9125,81.833106 546.25,78.03125 548.5875,74.229393 551.85,68.608 553.5,65.5625 555.15,62.517 560.08694,53.629573 564.46875,45.78125 574.71701,27.425462 577.94101,20.92735 577.96875,18.6875 577.97841,17.907651 577.88305,17.476067 577.65625,17.375 z M 525.34375,47.03125 C 527.16295,43.695364 530.40572,38.468 532.78125,35.0625 537.64761,28.086194 540.93396,21.52228 540.96875,18.75 541.01639,14.953527 538.81017,17.382394 535.03125,25.25 532.85182,29.7875 530.26304,34.85 529.28125,36.5 528.33994,38.081962 526.68626,40.675431 525.34375,42.875 L 525.34375,47.03125 z M 667.34375,30.46875 C 666.19047,32.572536 665.37668,33.767254 664,36.5 660.67085,43.108446 654.53857,54.35 650.375,61.5 639.92207,79.450565 630.00891,98.696409 630.8125,99.5 631.18036,99.867862 631.9487,99.406551 632.5,98.46875 633.0513,97.53095 634.52652,95.187792 635.78125,93.28125 637.03598,91.374708 639.45642,87.054844 641.15625,83.6875 642.85608,80.320156 645.28618,75.928067 646.5625,73.90625 647.83882,71.884432 650.77222,66.698529 653.0625,62.375 655.35277,58.051471 657.74594,53.825 658.40625,53 659.06656,52.175 662.21657,46.347927 665.40625,40.0625 666.28759,38.325772 666.51793,38.1162 667.34375,36.5625 L 667.34375,30.46875 z M 665.65625,75.0625 C 664.99521,74.790047 663.23166,77.268383 660.09375,82.78125 657.67815,87.025114 655.00742,91.625 654.125,93 651.7008,96.777383 650.09578,100.75204 650.75,101.40625 651.91587,102.57213 652.64643,101.92168 654.78125,97.75 655.97744,95.4125 658.96351,89.9 661.4375,85.5 663.91149,81.1 665.95434,76.9375 665.96875,76.25 665.98318,75.561401 665.8766,75.153318 665.65625,75.0625 z M 635.6875,17.125 C 634.63403,17.732336 632.88904,20.846559 628.6875,29.03125 625.72797,34.79649 621.30741,43.325 618.875,48 616.44259,52.675 613.28591,58.975 611.84375,62 607.01639,72.125588 599.92914,85.435396 595.4375,92.84375 592.98976,96.880978 591.25331,100.59348 591.5625,101.09375 592.37562,102.40941 592.38122,102.39993 595.6875,97.75 598.62844,93.613888 613.04812,66.246564 614.3125,62.40625 614.65995,61.350954 615.37388,59.825 615.90625,59 616.43863,58.175 618.02358,54.979889 619.40625,51.90625 620.78892,48.832611 622.58658,45.737456 623.4375,45.03125 624.28843,44.325045 625,42.682656 625,41.375 625,40.067345 625.94533,38.054675 627.09375,36.90625 629.60106,34.398946 637.46818,18.124439 636.59375,17.25 636.3361,16.992356 636.03866,16.922555 635.6875,17.125 z M 657.75,18.65625 C 656.78473,18.736639 653.00795,23.00623 653,24.3125 652.99727,24.761697 651.89532,26.561697 650.5625,28.3125 647.54003,32.282851 642.28142,41.208607 637.1875,51 633.97296,57.178889 629.46079,65.443661 621.96875,78.84375 620.46809,81.527803 611,101.16461 611,101.59375 611,101.8108 611.601,102 612.34375,102 613.09328,102 618.02619,93.433989 623.4375,82.75 628.79994,72.1625 633.72096,62.825 634.375,62 635.02904,61.175 636.3373,58.925 637.28125,57 641.25609,48.894127 649.13868,34.52543 649.875,34.03125 651.19408,33.14594 658.00743,20.416222 657.96875,18.90625 657.96413,18.725921 657.8879,18.644766 657.75,18.65625 z"/>
</svg>
