<svg xmlns="http://www.w3.org/2000/svg"
     width="41.3" height="64.0"
     viewBox="411.0000 12.0405 58.0357 89.9595">
  <path d="M 452.54348,32.070355 C 452.22748,31.55905 453.24072,28.97155 454.79514,26.320355 456.34956,23.66916 457.91742,20.7125 458.27929,19.75 458.91083,18.07023 462,17.223867 462,18.730611 462,19.132447 460.5375,22.496059 458.75,26.205304 455.69915,32.536134 453.8887,34.246971 452.54348,32.070355 z M 458.97307,85.949688 C 458.36956,84.822016 457.23799,82.0917 456.45848,79.88232 455.10662,76.05074 455.18065,75.557673 458.0618,69.203428 459.72314,65.539418 461.40138,60.377463 461.79121,57.732416 462.70904,51.504905 464.41543,51.189508 464.80177,57.175966 465.03573,60.801291 464.41783,63.210296 462.05177,67.897449 458.44885,75.034779 458.38195,75.868206 461,81 462.1,83.156178 463,85.613251 463,86.460162 463,88.695744 460.2566,88.347976 458.97307,85.949688 z M 415,32.507583 C 415,30.514963 423.85993,17 425.16622,17 426.77619,17 425.92615,19.559602 422.17857,25.996291 420.09832,29.569251 417.63213,32.639747 416.69815,32.819615 415.76417,32.999484 415,32.859069 415,32.507583 z M 420.19258,60.25 C 423.83613,47.002178 433.30009,39.714152 443.80313,42.067932 447.53456,42.904163 448.5733,42.791145 450.13352,41.37917 452.11979,39.581618 452.46688,40.153185 452.0287,44.5 451.68246,47.934675 450.34715,48.325695 445.23809,46.488501 439.11263,44.285817 432.21189,45.062955 429.2334,48.290894 426.40235,51.359056 423.37178,57.030833 422.54005,60.817643 422.15562,62.567939 421.23812,64 420.50115,64 419.43609,64 419.37279,63.230715 420.19258,60.25 z M 434.07581,95.699385 C 432.55269,91.693298 434.10484,87.768035 439.1585,82.845616 443.69713,78.424857 444,77.810987 444,73.032805 444,67.305958 441.87517,61.273065 439.54292,60.378095 436.7747,59.31583 432.72557,61.048226 429.34159,64.742673 425.45463,68.986241 424.26317,68.740762 426.98928,64.258023 429.60062,59.96402 433.00897,57.935701 438.0109,57.699029 444.42504,57.395536 446.13591,60.270349 446.77139,72.419481 447.12534,79.186224 446.93965,82 446.13914,82 445.51578,82 443.15671,83.67051 440.89675,85.712244 437.0586,89.179784 436.8196,89.707128 437.27103,93.712244 437.63636,96.953409 437.41213,98 436.35241,98 435.58136,98 434.55689,96.964723 434.07581,95.699385 z M 435,30.484851 C 435,28.827109 440.68111,18.31512 442.02634,17.483719 444.36145,16.040544 443.80679,19.795488 440.83626,25.540388 437.69996,31.605887 435,33.893285 435,30.484851 z M 442,96.196167 C 442,94.949865 448.44714,89 449.79761,89 451.89274,89 451.08111,90.402731 447.04923,93.75 443.02109,97.094164 442,97.588844 442,96.196167 z"/>
</svg>
