<svg xmlns="http://www.w3.org/2000/svg"
     width="47.7" height="64.0"
     viewBox="1207.3438 10.9862 72.0000 96.6700">
  <path d="M 1211.3438,70.59375 1211.3438,77 C 1212.3991,75.01742 1213.9485,72.040993 1214.7812,70.5 1217.2199,65.987366 1218.7045,60.003985 1217.375,60.03125 1216.9282,60.040414 1214.2601,64.777053 1211.3438,70.59375 z M 1235.5,61.40625 C 1234.9699,61.602454 1233.8137,63.377721 1232.3438,66.59375 1230.86,69.840002 1226.5616,78.229527 1222.8125,85.25 1219.0634,92.270472 1216,98.505889 1216,99.09375 1216,99.681611 1216.5307,100.00018 1217.1875,99.78125 1218.4653,99.355304 1232.6064,72.022729 1234.8438,65.65625 1235.9232,62.584785 1236.0301,61.210046 1235.5,61.40625 z M 1275.3438,70.0625 1275.3438,64 C 1274.949,64.750768 1274.6594,65.276758 1274.2812,66 1270.3995,73.425 1265.1273,83.410682 1262.5938,88.1875 1260.0601,92.964319 1258,97.634474 1258,98.5625 1258,101.47241 1260.336,98.618352 1263.5312,91.8125 1265.158,88.347513 1266.7566,85.275 1267.0625,85 1267.4933,84.61275 1271.8118,76.558777 1275.3438,70.0625 z M 1275.3438,29.6875 1275.3438,23.875 C 1271.1728,31.257065 1264,45.023231 1264,46.125 1264,48.070058 1265.6572,46.689293 1268.25,42.59375 1270.9164,38.381816 1273.2769,33.89739 1275.3438,29.6875 z M 1241.2812,15 C 1232.1422,15.017936 1222.9063,22.718864 1220.625,32.21875 1219.5283,36.785743 1221.5558,42.931078 1225.4375,46.90625 1227.4051,48.921231 1229,51.116939 1229,51.78125 1229,53.861916 1230.7288,53.101073 1231.3438,50.75 1231.7901,49.042591 1230.9822,47.53914 1227.9688,44.46875 1221.2378,37.610349 1221.6166,28.216161 1228.8438,22.53125 1234.9678,17.714121 1239.9633,16.068155 1242.8125,17.875 1243.8277,18.518866 1243.3172,20.025364 1240.5625,24.59375 1238.6049,27.840267 1237.0014,31.565537 1237,32.875 1236.9976,35.033176 1237.3281,35.197157 1240.4688,34.6875 1242.3744,34.378267 1246.6824,32.525231 1250.0312,30.5625 1253.3801,28.59977 1256.5419,27 1257.0625,27 1257.583,27 1258,28.593893 1258,30.53125 1258,33.450127 1257.1644,34.8638 1253.0625,38.78125 1246.0938,45.436538 1243.5963,52.332993 1246.5,57.03125 1247.1225,58.038454 1247.7361,56.58379 1248.5312,52.1875 1249.5028,46.8146 1250.3322,45.204275 1254.2188,41.1875 1256.7188,38.603629 1259.2614,35.513843 1259.875,34.3125 1262.1902,29.779409 1260.7389,24 1257.2812,24 1256.5579,24 1253.6291,25.544088 1250.75,27.4375 1241.4158,33.576198 1237.8007,33.192149 1242.0312,26.5 1248.3973,16.429734 1248.3135,14.986198 1241.2812,15 z M 1251.6562,69.375 C 1251.2951,68.583719 1249.0701,72.207347 1245.3438,79.75 1242.6971,85.107149 1239.3035,91.644547 1237.7812,94.28125 1236.2591,96.917954 1235,99.73045 1235,100.53125 1235,103.65621 1236.7399,101.66515 1240.9062,93.75 1247.9489,80.369976 1250.6405,74.66557 1251.375,71.65625 1251.6833,70.393132 1251.7766,69.63876 1251.6562,69.375 z"/>
</svg>
