<svg xmlns="http://www.w3.org/2000/svg"
     width="46.5" height="64.0"
     viewBox="890.0000 12.4362 56.6562 77.8993">
  <path d="M 942.65625,35.34375 942.65625,29.15625 C 938.85031,35.420435 935,42.115816 935,42.96875 935,45.853981 938.43383,42.195619 942.65625,35.34375 z M 894,46.7 C 894,45.985 894.45536,44.944645 895.0119,44.388099 895.56845,43.831554 896.84517,41.829054 897.84906,39.938099 905.49057,25.544342 912,16.43624 912,20.137869 912,21.013696 911.18362,22.803469 910.18583,24.115141 909.18804,25.426814 907.64192,28.082144 906.75001,30.015876 905.85811,31.949608 903.97448,35.232092 902.56418,37.310285 901.15388,39.388478 900,41.458148 900,41.90955 900,43.168103 895.97564,48 894.92742,48 894.41734,48 894,47.415 894,46.7 z M 911.37599,79.25 C 911.73339,75.5375 912.31033,67.873681 912.65808,62.21929 913.00584,56.5649 913.72678,51.668857 914.26019,51.339194 914.87819,50.957251 915.0228,55.231016 914.65883,63.119904 914.34468,69.928957 914.06792,77.8625 914.04382,80.75 914.00895,84.927311 913.66554,86 912.36309,86 910.9447,86 910.81293,85.098903 911.37599,79.25 z M 914,43.924473 C 914,41.686986 927.80674,19 929.16841,19 930.60771,19 930.07436,21.635283 928.13317,24.115141 927.10641,25.426814 924.1513,30.6625 921.56625,35.75 918.93567,40.927123 916.23516,45 915.43308,45 914.64489,45 914,44.516013 914,43.924473 z M 918.65539,84.25 C 918.1102,83.366191 919.90154,57.765124 920.55424,57.112427 922.44735,55.219316 922.77794,63.343014 921.41443,78.25 920.85686,84.345792 919.94188,86.335556 918.65539,84.25 z M 928.53523,77.25 C 928.18085,72.4375 927.50976,65.8 927.04391,62.5 926.17301,56.330677 927.06148,53.354044 928.79222,56.642641 929.88684,58.722513 930.63652,64.336817 931.54393,77.25 932.06106,84.609212 931.92202,86 930.66917,86 929.51225,86 929.03563,84.045681 928.53523,77.25 z"/>
</svg>
