<svg xmlns="http://www.w3.org/2000/svg"
     width="24.4" height="64.0"
     viewBox="823.3611 19.3532 29.6389 77.6632">
  <path d="M 844.78349,89.25 C 840.12594,83.910487 839.73247,78.365679 843.13111,65.964345 L 845.33537,57.921199 843.2242,52.710599 C 839.2191,42.825594 837.74687,28.229846 840.65852,27.274461 841.41394,27.026587 841.9813,28.913344 842.28916,32.697162 842.80422,39.027694 844.77252,47.912721 846.0115,49.5 846.44081,50.05 847.26989,52.250212 847.8539,54.38936 848.75755,57.699286 848.54957,59.326787 846.45787,65.313691 843.23136,74.54868 843.24379,80.422874 846.5,85.214812 847.875,87.238306 849,89.367767 849,89.946946 849,91.598805 846.46711,91.180145 844.78349,89.25 z M 829.66667,91.333333 C 828.25047,89.917132 829.91433,73.089027 832.47312,62.949212 832.84085,61.492024 832.01995,55.539364 830.55841,49.064822 828.07643,38.06978 827.36112,29.828472 828.60699,26.581787 829.8459,23.353229 830.6789,25.178819 830.73705,31.25 830.76997,34.6875 831.80896,41.325 833.0459,46 835.70136,56.036241 835.89274,65.084532 833.63454,73.830767 832.73555,77.312689 832,82.825189 832,86.080767 832,91.55277 831.34979,93.016457 829.66667,91.333333 z"/>
</svg>
