<svg xmlns="http://www.w3.org/2000/svg"
     width="39.9" height="64.0"
     viewBox="759.9518 21.0573 50.2313 80.6026">
  <path d="M 800.87604,84.75 C 799.6855,82.4125 797.65136,79.107524 796.35571,77.405609 793.43831,73.573404 793.44296,73.309767 796.60077,63.5 798.66457,57.08879 799.19298,53.39006 799.26146,44.875862 799.31506,38.211998 798.85931,33.074568 798.03885,31.093797 796.41759,27.179735 797.5601,25.745104 799.9505,28.693356 803.91364,33.58137 803.65067,50.95002 799.4132,64.180153 L 796.95333,71.860306 800.97666,78.085189 C 804.78061,83.970629 806.18308,89 804.02032,89 803.4815,89 802.06657,87.0875 800.87604,84.75 z M 779.33902,62.75 C 778.91055,62.0625 778.38334,57.154462 778.16744,51.84325 777.84549,43.923481 778.15762,41.045525 779.90277,35.84325 781.07311,32.354462 782.44929,28.838032 782.96096,28.02896 784.84028,25.057265 785.07189,27.944486 783.41127,33.642515 782.18274,37.857949 781.72898,42.934088 781.79262,51.75 781.87487,63.14497 781.27137,65.850615 779.33902,62.75 z M 775,94.966756 C 775,93.009869 779.18009,83.816613 781.23188,81.26101 781.77898,80.579566 782.61237,80.26043 783.08385,80.55182 783.55532,80.843209 782.6321,83.875754 781.03223,87.290809 779.43236,90.705864 777.88474,94.2875 777.59307,95.25 776.86282,97.659824 775,97.456346 775,94.966756 z M 773.77749,74.443296 C 774.99987,73.587109 776,72.112117 776,71.165537 776,68.938496 772.44114,65.893487 770.6442,66.583038 768.37609,67.453396 767.15051,71.204571 768.30263,73.75 769.50313,76.402317 770.75438,76.560767 773.77749,74.443296 z M 766.20284,77.744406 C 763.95179,75.032064 763.97444,71.515955 766.26881,67.5 769.84383,61.242453 773.68078,61.672677 777.75,68.787349 779.38926,71.653449 779.33332,72.313795 777.25,74.690013 773.70506,78.733333 768.27059,80.235892 766.20284,77.744406 z"/>
</svg>
