<svg xmlns="http://www.w3.org/2000/svg"
     width="64.0" height="18.4"
     viewBox="1271.3438 10.4106 335.6562 96.6592">
  <path d="M 1275.3438,70.0625 C 1277.1314,66.77453 1277.5125,66.337194 1279.5312,62.5 1287.1235,48.069197 1289.6269,43.51345 1291.4375,40.75 1293.4552,37.670616 1301,20.478129 1301,18.96875 1301,18.427603 1300.5258,18 1299.9375,18 1299.3493,18 1296.6917,22.6125 1294.0312,28.25 1291.3709,33.8875 1287.411,41.65 1285.25,45.5 1283.2995,48.974986 1279.0013,57.043181 1275.3438,64 L 1275.3438,70.0625 z M 1275.3438,29.6875 C 1279.4299,21.364447 1281.7285,14.774302 1278.5938,18.03125 1278.2696,18.36804 1276.4308,21.951108 1275.3438,23.875 L 1275.3438,29.6875 z M 1602.6562,15.09375 C 1601.9789,14.568403 1600.3604,16.255642 1598.375,19.75 1596.8906,22.3625 1593.3323,28.325 1590.4688,33 1587.6052,37.675 1584.5893,42.85 1583.75,44.5 1581.2648,49.386172 1578.5308,54.330319 1576.8438,57 1575.9749,58.375 1571.304,66.25 1566.4688,74.5 1561.6334,82.75 1556.3523,91.381212 1554.7188,93.6875 1552.7909,96.409173 1551.9693,98.486513 1552.4062,99.625 1553.0005,101.17351 1553.2755,101.10625 1554.7812,98.84375 1555.7193,97.434198 1557.7507,94.385238 1559.2812,92.09375 1560.8117,89.802261 1563.0617,86.134936 1564.2812,83.9375 1567.5499,78.047911 1570.0324,73.996612 1574.4062,67.40625 1576.5588,64.162853 1581.7007,55.2 1585.8125,47.5 1589.9244,39.8 1594.2731,32.15 1595.4688,30.5 1598.6762,26.073604 1603,17.952178 1603,16.375 1603,15.694383 1602.882,15.268866 1602.6562,15.09375 z M 1600.4375,52.90625 C 1599.827,53.014532 1598.6218,54.278132 1596.8438,57 1588.7074,69.454895 1572.093,98.314884 1572.5938,99.125 1573.6164,100.77964 1575.8657,99.993195 1576.5312,97.75 1576.8983,96.5125 1578.2126,93.925 1579.4375,92 1582.2352,87.603286 1590.7439,73.484639 1593,69.5 1593.9343,67.85 1596.1596,63.927667 1597.9375,60.78125 1600.7652,55.776816 1601.4549,52.72578 1600.4375,52.90625 z M 1584.5312,15.28125 C 1583.598,15.359806 1581.3065,18.963263 1577.9062,25.75 1575.4961,30.560368 1570.5592,39.45 1566.9375,45.5 1563.3158,51.55 1558.9871,58.975 1557.3125,62 1552.5931,70.525446 1546.274,80.796964 1540.9062,88.65625 1538.2154,92.596135 1536,96.533635 1536,97.40625 1536,100.56186 1537.7207,98.828265 1544.125,89.25 1554.4924,73.744642 1557.6039,68.736475 1561.0312,61.90625 1562.7988,58.38371 1567.0607,51 1570.5,45.5 1577.1675,34.837475 1585,19.121645 1585,16.40625 1585,15.638344 1584.8423,15.255065 1584.5312,15.28125 z M 1564.25,15.53125 C 1563.904,15.608808 1563.5466,15.85714 1563.25,16.21875 1562.2093,17.487247 1556.3665,28.135006 1550.75,39 1549.1863,42.025 1547.0901,45.85 1546.0938,47.5 1543.8871,51.154192 1542.4949,53.544832 1531.8125,72 1527.1963,79.975 1521.7591,88.982341 1519.7188,92 1517.6785,95.017658 1516,98.280158 1516,99.25 1516,101.6345 1518.6996,101.4859 1519.4688,99.0625 1519.8072,97.995838 1522.114,94.120131 1524.5625,90.46875 1527.0111,86.81737 1529,83.691584 1529,83.5 1529,83.308415 1531.25,79.480746 1534,75 1536.75,70.519254 1539,66.713041 1539,66.53125 1539,66.116932 1545.5941,54.525791 1548.125,50.5 1549.1624,48.85 1551.1709,45.25 1552.5938,42.5 1554.0166,39.75 1556.2606,35.7 1557.5625,33.5 1562.0651,25.891847 1566.0499,16.643681 1565.1875,15.78125 1564.9464,15.540167 1564.596,15.453692 1564.25,15.53125 z M 1545.0938,16 C 1543.6955,16 1535.5769,29.614898 1524.5,50.5 1516.3632,65.841534 1513.7276,70.506191 1511.875,72.875 1510.8492,74.186672 1510,75.682821 1510,76.1875 1510,76.692179 1507.5746,80.803851 1504.625,85.3125 1498.0498,95.363002 1496.877,97.564597 1497.6875,98.375 1499.2106,99.898184 1499.7051,99.285853 1510.5625,82 1512.1171,79.525 1514.9249,74.575 1516.8125,71 1518.7002,67.425 1520.7874,63.825 1521.4375,63 1522.0877,62.175 1523.1491,60.375 1523.8125,59 1524.4759,57.625 1526.2765,54.25 1527.8125,51.5 1529.3486,48.75 1531.8945,44.025 1533.4688,41 1535.043,37.975 1536.8764,34.825 1537.5312,34 1538.186,33.175 1539.2138,31.036002 1539.8125,29.25 1540.4113,27.463999 1542.0334,24.497164 1543.4375,22.65625 1545.9797,19.323236 1546.8092,16 1545.0938,16 z M 1506.25,16.03125 C 1504.7738,16.507271 1501.2191,22.196744 1496.375,32 1493.8134,37.184009 1482.3452,58.092723 1480.4688,61 1479.2263,62.925 1476.5416,67.65 1474.5,71.5 1472.4584,75.35 1468.8186,81.320134 1466.4062,84.78125 1460.5247,93.219645 1458.7405,96.864456 1459.5,98.84375 1460.0439,100.2612 1460.3888,100.13787 1462.0312,98 1463.085,96.628589 1463.9565,95.184627 1463.9688,94.8125 1463.9809,94.440373 1466.1592,90.840373 1468.8125,86.8125 1471.4658,82.784627 1474.3501,78.15 1475.2188,76.5 1476.0876,74.85 1477.9771,71.270437 1479.4062,68.5625 1480.8354,65.854563 1482.6435,62.929563 1483.4062,62.0625 1484.169,61.195437 1486.4298,57.35 1488.4375,53.5 1490.4451,49.65 1494.2895,42.45 1497,37.5 1505.1881,22.546813 1507,18.913303 1507,17.34375 1507,16.303515 1506.7421,15.872576 1506.25,16.03125 z M 1525.5625,16.34375 C 1524.9992,16.122931 1523.845,16.738944 1522.5625,18.34375 1521.3183,19.900524 1518.1921,25.300524 1515.625,30.34375 1508.0152,45.293829 1505.7078,49.381631 1489.125,77.5 1485.557,83.55 1481.365,90.474455 1479.8125,92.90625 1478.26,95.338044 1477,97.925544 1477,98.65625 1477,99.386955 1477.3791,100 1477.8438,100 1479.3652,100 1481.1166,97.574004 1487.9688,86 1488.4573,85.175 1491.419,80 1494.5625,74.5 1497.7061,69 1501.2985,62.925 1502.5312,61 1503.764,59.075 1507.1137,53 1509.9688,47.5 1518.5075,31.050992 1523.5442,21.616171 1525.0312,19.28125 1526.1054,17.594743 1526.1258,16.564569 1525.5625,16.34375 z M 1465.75,16.0625 C 1464.5655,16.108963 1457.9865,25.926601 1451.0625,38 1449.3277,41.025 1447.5045,44.175 1447,45 1441.0106,54.7937 1434.5782,65.643416 1431.9062,70.5 1422.9616,86.757684 1417,98.670268 1417,100.25 1417,103.06975 1418.8547,102.26758 1420.4688,98.75 1421.289,96.9625 1424.2083,91.45 1426.9688,86.5 1429.7293,81.55 1433.8474,74.125 1436.0938,70 1442.0593,59.045416 1444.6096,54.603398 1453.5,39.84375 1468.8195,14.410565 1468.0222,15.973368 1465.75,16.0625 z M 1484.7812,16.28125 C 1484.4634,16.293941 1484.0071,16.576111 1483.4375,17.15625 1482.7108,17.896528 1479.3896,23.9 1476.0625,30.5 1467.9415,46.609481 1461.5715,58.382745 1459.0625,61.90625 1457.9258,63.502672 1457,65.168905 1457,65.59375 1457,66.018595 1455.4932,68.647249 1453.6562,71.4375 1445.905,83.21109 1438.0575,96.937853 1438.0312,98.75 1437.9821,102.13603 1441.3601,99.273611 1444.5312,93.25 1446.4858,89.5375 1450.0844,83.35 1452.5312,79.5 1454.9781,75.65 1457.5382,71.375 1458.2188,70 1458.8992,68.625 1460.8484,65.25 1462.5625,62.5 1464.2765,59.75 1468.1255,52.55 1471.0938,46.5 1474.0621,40.45 1477.7324,33.623514 1479.25,31.34375 1480.7676,29.063987 1482,26.803944 1482,26.3125 1482,25.821057 1482.8865,23.685141 1483.9688,21.5625 1485.5218,18.516369 1485.7348,16.243177 1484.7812,16.28125 z M 1427.4062,16.40625 C 1426.3036,16.860614 1423.7325,20.400163 1420.9688,25.5 1419.1804,28.8 1416.6096,33.525 1415.25,36 1411.4653,42.889415 1401.429,59.686802 1396.4375,67.5 1393.9779,71.35 1390.2365,77.875 1388.0938,82 1385.951,86.125 1382.818,91.515453 1381.1562,93.96875 1379.4945,96.422047 1378.3567,98.784547 1378.625,99.21875 1378.8934,99.652953 1379.4845,100 1379.9375,100 1380.9049,100 1387.1373,90.417399 1392.625,80.5 1397.1759,72.27561 1397.0663,72.471103 1403.5,62.0625 1406.25,57.613472 1409.85,51.563509 1411.5,48.59375 1413.15,45.62399 1416.026,40.555527 1417.9062,37.34375 1423.0854,28.496484 1427.9478,18.680496 1427.9688,17.03125 1427.9763,16.43614 1427.7738,16.254795 1427.4062,16.40625 z M 1445.4688,17 C 1444.6186,17 1441.5973,21.85482 1438.1562,28.75 1434.9311,35.2125 1431.0422,42.75 1429.5,45.5 1424.0522,55.214304 1421.6793,59.53302 1420.1875,62.5 1417.3102,68.222714 1405.6199,88.528727 1402.8125,92.6875 1401.2604,94.986597 1400.0114,97.911597 1400.0312,99.1875 L 1400.0625,101.5 1402.125,99 C 1404.7979,95.769644 1418.923,71.829686 1424.25,61.5 1426.519,57.1 1430.5447,49.962314 1433.1875,45.65625 1435.8303,41.350187 1438,37.090308 1438,36.15625 1438,35.222192 1438.6666,33.47112 1439.5,32.28125 1440.3334,31.091379 1442.3501,27.170008 1443.9688,23.5625 1446.23,18.522609 1446.582,17 1445.4688,17 z M 1321.5938,16.46875 C 1320.8338,16.194831 1319.1547,18.202296 1317.9062,21.28125 1317.1889,23.050514 1314.9689,27.2 1312.9688,30.5 1306.508,41.159412 1291,70.722654 1291,72.375 1291,72.685172 1288.5168,76.993718 1285.5,81.96875 1280.0411,90.971387 1276,98.439931 1276,99.46875 1276,99.765661 1276.675,100 1277.5,100 1278.325,100 1279,99.558332 1279,99 1279,98.003405 1282.367,92.0321 1288.7188,81.71875 1290.4815,78.856524 1292.862,74.475 1294.0312,72 1295.2004,69.525 1296.5608,66.825 1297.0312,66 1297.5017,65.175 1299.0211,62.25 1300.4062,59.5 1301.7914,56.75 1305.0109,50.675 1307.5625,46 1319.6986,23.76429 1322,19.192849 1322,17.53125 1322,16.885421 1321.8471,16.560056 1321.5938,16.46875 z M 1382.5312,16.96875 C 1381.5645,17.174109 1379.0582,21.180454 1374.4688,29.75 1370.7131,36.7625 1365.7553,45.65 1363.4688,49.5 1361.1823,53.35 1359.0329,57.175 1358.6875,58 1358.3421,58.825 1356.7168,61.75 1355.0625,64.5 1353.4081,67.25 1349.1331,75.187248 1345.5625,82.15625 1341.992,89.125252 1338.5991,95.117792 1338.0312,95.46875 1337.4634,95.819708 1337,96.769959 1337,97.5625 1337,101.74792 1340.8887,97.265619 1345.75,87.5 1348.63,81.714651 1352.4773,74.856174 1358.25,65.125 1359.7581,62.582812 1361.4763,59.388226 1362.0625,58.03125 1362.6487,56.674274 1363.6569,54.924912 1364.3125,54.15625 1366.9016,51.12112 1383,19.974847 1383,18 1383,17.249608 1382.8535,16.900297 1382.5312,16.96875 z M 1360.4688,17 C 1359.3614,17.305636 1356.4363,22.423535 1350.7812,33.75 1346.1816,42.9625 1341.2364,52.525 1339.8125,55 1327.0473,77.189138 1320,89.871187 1320,90.625 1320,91.119815 1318.875,93.195255 1317.5,95.21875 1316.125,97.242244 1315,99.133321 1315,99.4375 1315,100.57356 1316.7427,99.94124 1318.25,98.25 1319.1078,97.2875 1321.7058,92.9 1324.0312,88.5 1326.3568,84.1 1328.8499,79.825 1329.5625,79 1330.2752,78.175 1331.7756,75.475 1332.9062,73 1334.0369,70.525 1336.7592,65.575 1338.9375,62 1343.8809,53.886855 1361,19.936818 1361,18.25 1361,17.333914 1360.8379,16.898121 1360.4688,17 z M 1340.4062,17.0625 C 1339.1899,17.668853 1335.9022,23.145339 1328.9688,35.75 1323.2961,46.0625 1316.1014,59 1312.9688,64.5 1309.836,70 1305.4766,78.1 1303.2812,82.5 1301.0859,86.9 1298.3341,92.202021 1297.1562,94.28125 1295.9784,96.360479 1295,98.722979 1295,99.53125 1295,100.33952 1295.3375,101.00507 1295.75,101 1296.4524,100.99137 1298.5444,97.264882 1309.75,76 1312.2135,71.325 1314.6761,66.951056 1315.2188,66.28125 1317.4013,63.587677 1323,53.69128 1323,52.53125 1323,51.849635 1324.0436,49.744859 1325.3125,47.875 1326.5815,46.00514 1328.3098,43.144391 1329.1562,41.5 1330.0028,39.855609 1331.9355,36.25 1333.4688,33.5 1337.6811,25.944554 1341,19.124261 1341,18 1341,17.208002 1340.8117,16.860382 1340.4062,17.0625 z M 1404.0938,17.4375 C 1403.3009,17.927498 1395.6636,31.530182 1391.1562,40.5 1390.3271,42.15 1386.978,48.225 1383.6875,54 1380.3969,59.775 1377.0536,65.625 1376.2812,67 1375.509,68.375 1374.0307,70.85 1373,72.5 1368.5896,79.560495 1359,97.5317 1359,98.71875 1359,99.430321 1359.3882,100 1359.875,100 1361.1993,100 1363.4974,96.317227 1372,80.46875 1374.3515,76.085574 1377.0993,71.303653 1378.125,69.84375 1379.1506,68.383846 1380,66.859289 1380,66.4375 1380,66.015711 1380.6213,64.962057 1381.375,64.09375 1382.6033,62.678684 1386.4932,55.395073 1400.6562,28.125 1404.8036,20.139507 1406.0706,16.215715 1404.0938,17.4375 z M 1601.625,79.28125 C 1600.8866,78.685109 1599.1555,80.614372 1597.0938,84.5625 1595.6726,87.283799 1593.2625,91.311583 1591.75,93.5 1590.2375,95.688417 1589,98.021423 1589,98.71875 1589,100.50662 1590.4336,100.30604 1592.2188,98.25 1595.1584,94.864218 1602,82.593425 1602,80.71875 1602,79.937962 1601.8711,79.479964 1601.625,79.28125 z"/>
</svg>
