<svg xmlns="http://www.w3.org/2000/svg"
     width="64.0" height="19.8"
     viewBox="-0.0167 15.3734 314.4716 97.4405">
  <path d="M 299,104.06346 C 299,103.4567 300.2187,101.0567 301.70823,98.730128 303.75036,95.540404 304.50739,94.936345 304.78619,96.274114 304.98955,97.249877 304.32923,99.463752 303.3188,101.19384 301.43652,104.41675 299,106.03569 299,104.06346 z M 279,103.30052 C 279,102.83515 280.51989,100.14656 282.37754,97.325865 284.23518,94.505175 286.41732,90.915436 287.22674,89.348669 290.61142,82.797036 292.57595,80.012281 293.81739,80.006323 294.7114,80.002032 294.91525,80.691664 294.45169,82.152225 293.71917,84.460166 288.18939,94.171006 287.13559,95 286.78602,95.275 285.6,97.294689 284.5,99.488198 282.73812,103.00156 279,105.59263 279,103.30052 z M 261,103.14673 C 261,102.59677 263.25,98.480746 266,94 268.75,89.519254 271,85.53846 271,85.153791 271,84.769122 272.52577,82.137622 274.39061,79.306015 276.25544,76.474407 278.97417,71.759668 280.43223,68.828818 283.89782,61.862618 288.9307,53.174202 291.75,49.290629 292.9875,47.585975 294,45.898213 294,45.540045 294,45.181878 296.475,40.683448 299.5,35.543535 302.525,30.403621 305,25.773379 305,25.254106 305,24.734834 305.9,23.495486 307,22.5 310.45489,19.373363 309.48921,23.177469 304.38533,32.799889 301.84726,37.58495 298.91176,43.1875 297.86199,45.25 296.81222,47.3125 295.62632,49.000107 295.22666,49.000238 294.827,49.000368 292.95411,52.262868 291.06469,56.250238 287.71645,63.316234 281.78037,72.912899 277.58242,78.046595 276.43709,79.447223 273.7496,84.172223 271.61023,88.546595 264.95666,102.15111 264.16297,103.49073 262.55913,103.82332 261.70161,104.00115 261,103.69668 261,103.14673 z M 240.42152,103.65609 C 240.13788,102.91694 242.14387,98.754439 244.87926,94.406089 249.86528,86.480013 260.30755,68.430303 264.78416,60 266.09842,57.525 268.03464,54.570997 269.08686,53.435549 270.13909,52.300101 271,50.673287 271,49.820407 271,48.967528 271.83924,47.196531 272.86498,45.884859 273.89071,44.573186 276.02821,41.058582 277.61498,38.074626 284.90356,24.368224 286.58312,21.574565 287.75,21.216695 289.69679,20.619637 289.24767,25.098204 287.12637,27.435549 286.09587,28.570997 283.47253,32.875 281.29672,37 276.30784,46.458174 272.83333,52.60361 267.34311,61.680032 264.9544,65.62905 263,69.200047 263,69.615581 263,70.031115 262.17205,71.300101 261.16011,72.435549 258.92092,74.948039 252.05066,86.747136 246.7114,97.25 242.83031,104.88448 241.43732,106.30321 240.42152,103.65609 z M 218,104.77332 C 218,104.018 218.40759,102.9725 218.90576,102.45 219.40393,101.9275 220.69257,99.925 221.76939,98 224.10068,93.832449 229.47336,84.88166 232.57384,80 233.79646,78.075 236.69844,73.125 239.02268,69 246.45151,55.81551 247.20777,54.551318 249.12149,52.118418 250.15467,50.804944 251,49.183486 251,48.51518 251,47.846873 252.27745,45.536607 253.83878,43.381255 255.40011,41.225903 257.80762,37.445886 259.1888,34.981217 260.56998,32.516548 262.89252,28.749704 264.35002,26.610453 265.80751,24.471202 267,22.333702 267,21.860453 267,21.387204 267.45,21 268,21 269.79693,21 269.05205,24.63223 266.54355,28.102117 265.1925,29.970953 263.37168,33.075 262.49728,35 261.62288,36.925 259.75687,40.166164 258.35059,42.202587 256.94431,44.239009 255.05263,47.273505 254.14686,48.945912 253.24109,50.618318 249.82306,56.377154 246.55125,61.743325 235.98613,79.071407 232,85.947261 232,86.843432 232,87.326043 230.78604,89.471202 229.30232,91.610453 227.8186,93.749704 225.4195,97.75 223.97099,100.5 221.47108,105.2461 218,107.73029 218,104.77332 z M 200.50601,103.84192 C 200.89054,102.55386 202.93234,98.8 205.04336,95.5 207.15437,92.2 209.35714,88.375 209.9384,87 210.51965,85.625 211.44033,83.825 211.98434,83 212.52836,82.175 217.06522,74.3 222.06626,65.5 227.0673,56.7 232.4525,47.65535 234.03338,45.400778 235.61426,43.146206 238.54655,38.196206 240.54959,34.400778 246.72158,22.705819 247.09845,22.057191 248.07039,21.456498 249.43164,20.615201 250.40734,23.79497 249.23832,25.262735 248.69633,25.943231 246.5705,29.65 244.51425,33.5 242.458,37.35 239.51246,42.3 237.9686,44.5 236.42474,46.7 233.49566,51.65 231.45952,55.5 229.42338,59.35 227.18945,63.175 226.49523,64 225.80102,64.825 224.26536,67.3 223.08265,69.5 221.89995,71.7 219.62705,75.525 218.03177,78 216.43648,80.475 213.95072,84.973674 212.50785,87.997054 211.06497,91.020434 209.03461,94.398713 207.99592,95.504341 206.95724,96.609968 205.52074,99.305147 204.8037,101.49363 204.01043,103.91478 202.77702,105.6119 201.65344,105.82826 200.13784,106.12011 199.93219,105.76409 200.50601,103.84192 z M 180,105.43018 C 180,105.11677 181.26109,102.97927 182.80242,100.68018 184.34375,98.381079 187.43223,93.35 189.66569,89.5 191.89916,85.65 195.99253,78.66004 198.76207,73.966755 201.53161,69.273471 205.03246,63.198471 206.54175,60.466755 208.05104,57.73504 210.02791,54.375 210.93481,53 211.8417,51.625 213.83429,48.025 215.36279,45 218.83975,38.118845 224.75577,27.222271 226.62847,24.25 228.17198,21.800223 230.00183,21.256989 229.99692,23.25 229.99252,25.032953 223.55682,37.57547 220.71792,41.333792 219.40252,43.075206 216.39628,48.1 214.03739,52.5 211.67849,56.9 207.62138,64.325 205.02158,69 202.42178,73.675 198.65877,80.488457 196.65934,84.141016 194.65991,87.793575 191.55611,92.544216 189.76201,94.697995 187.9679,96.851775 185.61017,100.27582 184.5226,102.30698 183.43502,104.33814 181.97252,106 181.2726,106 180.57267,106 180,105.74358 180,105.43018 z M 162.09562,102.75 C 162.73691,101.5125 164.69062,98.475 166.4372,96 168.18379,93.525 169.95002,90.6 170.36216,89.5 170.77431,88.4 174.01142,82.49818 177.55576,76.384844 181.10009,70.271509 184,64.819695 184,64.269703 184,63.719711 185.0125,61.98282 186.25,60.409945 189.32792,56.497884 194.43484,48.070507 199.52726,38.5 206.89364,24.655886 208.46567,22.049263 209.75,21.549334 210.4375,21.281724 211,21.782746 211,22.662716 211,24.55553 203.26684,39.331845 200.98848,41.792451 200.11889,42.731603 197.696,46.969529 195.60429,51.210065 193.51257,55.450601 191.1709,59.443201 190.40058,60.08251 189.63026,60.721819 189,61.784627 189,62.444305 189,63.103984 187.66252,65.411384 186.02782,67.571861 184.39312,69.732337 183.03311,71.95 183.00558,72.5 182.97805,73.05 182.07554,74.625 181,76 179.92446,77.375 179.03447,79.115928 179.02224,79.868729 178.98751,82.006148 163.65587,104.87853 162.21482,104.94274 161.20245,104.98784 161.17714,104.52238 162.09562,102.75 z M 142,105.21169 C 142,104.77811 144.73826,99.940613 148.08501,94.461686 154.44326,84.052683 165.63693,64.426465 180.43009,37.75 185.23379,29.0875 189.62596,22 190.19046,22 191.80994,22 190.16769,27.009134 186.91195,32 185.29742,34.475 182.9042,38.768009 181.59369,41.540021 180.28318,44.312032 178.48848,47.179632 177.60547,47.912465 176.72246,48.645299 176,49.907823 176,50.718074 176,51.528326 175.17323,53.385726 174.16273,54.84563 173.15222,56.305533 172.03675,58.175 171.6839,59 171.33105,59.825 169.90825,62.3 168.52212,64.5 167.136,66.7 165.10714,70.3 164.01356,72.5 161.87183,76.808586 161.74686,77.014402 155,87.344896 152.525,91.134508 149.88608,95.419701 149.13574,96.867549 145.6725,103.55018 142,107.84459 142,105.21169 z M 124,105.13181 C 124,103.07143 137.2746,78.964121 143.15989,70.336522 144.72195,68.04661 146,65.897163 146,65.559974 146,65.222786 148.3625,61.175153 151.25,56.565234 154.1375,51.955316 157.39463,46.679762 158.48807,44.841782 159.58151,43.003802 161.7187,39.475 163.23737,37 164.75605,34.525 167.15659,30.1375 168.57192,27.25 169.98725,24.3625 171.78756,22 172.57262,22 174.75344,22 174.34244,23.457038 170,31.120205 167.8,35.002578 166,38.368391 166,38.599788 166,38.831186 164.49098,41.167412 162.64662,43.791402 157.13701,51.62999 149.47096,64.311491 146.6953,70.178756 145.26474,73.202719 143.44648,76.214494 142.65472,76.871591 141.86297,77.528687 140.64404,79.513891 139.94599,81.283156 139.24794,83.05242 136.53167,87.700011 133.90984,91.611136 131.28801,95.522261 128.4587,100.35976 127.62247,102.36114 126.25727,105.62851 124,107.355 124,105.13181 z M 103,105.4573 C 103,104.60882 104.71823,101.57132 106.81828,98.7073 108.91834,95.843285 110.95233,92.825 111.33826,92 111.72419,91.175 113.04346,88.852096 114.26997,86.837992 119.54973,78.167909 121.93475,74.117941 125.36366,68 129.88797,59.927601 133.39282,53.830327 136.86012,48 140.08005,42.585632 141.59688,39.86841 147.04782,29.75 151.15307,22.129559 153.34284,19.821241 152.26535,24.25 151.96428,25.4875 151.15963,27.175 150.47725,28 149.79487,28.825 148.89669,30.625 148.48128,32 148.06588,33.375 146.51341,36.3 145.03136,38.5 143.5493,40.7 142.01448,43.175 141.62065,44 141.22681,44.825 139.80428,47.3 138.45946,49.5 137.11464,51.7 135.36043,54.889843 134.56121,56.588541 133.76199,58.287238 130.78398,63.462238 127.9434,68.088541 125.10283,72.714843 120.05515,81.675 116.72635,88 113.39754,94.325 109.62233,100.77203 108.33699,102.32673 107.05164,103.88142 106,105.56892 106,106.07673 106,106.58453 105.325,107 104.5,107 103.675,107 103,106.30579 103,105.4573 z M 84,104.62244 C 84,103.86479 84.675,102.68469 85.5,102 86.325,101.31531 87,100.31924 87,99.786504 87,99.25377 88.721505,96.27137 90.825567,93.158948 96.283568,85.085232 103.75178,72.362458 104.57447,69.736456 104.95983,68.506405 106.1541,66.375 107.2284,65 108.30271,63.625 109.83201,61.15 110.62687,59.5 113.47427,53.589186 115.28636,50.468627 117.01447,48.5 117.98008,47.4 119.10315,45.405653 119.51018,44.068118 120.57793,40.559392 132.09121,22 133.2001,22 135.17379,22 130.15858,32.01246 122.31224,43.73674 120.55898,46.356533 117.50994,51.65 115.5366,55.5 113.56326,59.35 110.84593,64.3 109.4981,66.5 108.15026,68.7 106.5756,71.571273 105.99884,72.880606 105.42208,74.189939 104.05192,76.522708 102.95405,78.064536 101.85617,79.606363 100.29787,82.738605 99.491154,85.025073 98.684441,87.31154 97.006413,90.449091 95.762202,91.997408 94.517991,93.545725 91.980013,97.329711 90.122252,100.40627 86.942405,105.67226 84,107.69859 84,104.62244 z M 65.020996,104.75 C 65.032544,104.0625 66.945044,100.63862 69.270996,97.141377 77.568801,84.665007 84.001569,74.388235 88.138056,67 90.44754,62.875 93.539893,57.7 95.009953,55.5 96.480012,53.3 98.178913,50.042775 98.785288,48.261723 99.391663,46.48067 101.19217,43.10567 102.78642,40.761723 104.38066,38.417775 107.16768,33.4625 108.9798,29.75 110.79191,26.0375 112.88778,23 113.63728,23 114.38677,23 115,23.3633 115,23.807334 115,25.191346 108.29523,38.016296 106.58196,39.909432 105.68671,40.89868 103.24587,45.036249 101.15787,49.104032 99.069879,53.171814 94.295913,61.675 90.549059,68 86.802205,74.325 83.233363,80.406334 82.618299,81.514075 82.003234,82.621816 80.4875,84.941283 79.25,86.668445 78.0125,88.395608 77,90.014424 77,90.265814 77,90.517204 74.733671,94.160238 71.963713,98.361444 67.223647,105.55072 64.972756,107.62195 65.020996,104.75 z M 45,105.05979 C 45,104.54268 46.398865,101.50518 48.108588,98.309793 49.818312,95.114407 51.92581,91.15 52.791917,89.5 53.658025,87.85 56.383937,83.35 58.849501,79.5 61.315064,75.65 65.116781,69.125 67.297761,65 69.47874,60.875 72.736702,54.8 74.537675,51.5 76.338648,48.2 79.281897,42.8 81.078228,39.5 82.87456,36.2 85.436087,32.175366 86.770511,30.55637 88.104936,28.937373 89.591334,26.574873 90.073618,25.30637 90.555902,24.037866 91.411636,23 91.975249,23 93.56102,23 93.177793,26.216068 91.244735,29.130528 90.285131,30.577318 87.82767,34.274842 85.78371,37.347248 83.739751,40.419653 80.814751,45.259008 79.28371,48.101369 77.75267,50.94373 75.825,54.448794 75,55.890399 74.175,57.332004 71.11189,62.783912 68.193088,68.00575 65.274287,73.227587 61.933228,79.075 60.768513,81 57.553441,86.313758 50.190221,100.14723 48.925383,103.25 47.877837,105.81973 45,107.14655 45,105.05979 z M 24,106.07887 C 24,105.57224 26.320822,101.18474 29.157382,96.328867 31.993942,91.47299 35.156599,85.925 36.18551,84 37.21442,82.075 40.732582,76.225 44.003647,71 47.274712,65.775 50.875022,59.925 52.004335,58 53.133647,56.075 57.639165,48.65 62.016597,41.5 66.394028,34.35 70.739406,27.0375 71.672994,25.25 72.606581,23.4625 73.962079,22 74.685212,22 76.511233,22 76.327888,22.89944 73.564079,27.5 72.242418,29.7 69.02681,35.325 66.418282,40 63.809755,44.675 59.948517,51.062809 57.837753,54.195131 55.726989,57.327452 54,60.094732 54,60.344641 54,60.594551 52.375802,63.206742 50.39067,66.149511 45.041075,74.079779 31.695555,96.796311 29.917761,100.99817 28.100476,105.29337 24,108.81383 24,106.07887 z M 7.6770127,103.32265 C 8.4989515,101.08667 16.708098,86.774752 24.49614,74 32.160177,61.428654 49.329087,31.479627 51.583198,26.75 53.314304,23.117753 56,21.637743 56,24.316027 56,25.564626 41.095723,51.824312 38.58462,55 37.032474,56.962935 31.295945,66.708527 26.517747,75.5 24.425257,79.35 22.215246,83.108468 21.60661,83.852151 20.997975,84.595834 18.224646,89.544554 15.443657,94.849307 12.54687,100.37494 9.6654535,104.63333 8.6971638,104.8198 7.4345289,105.06297 7.1764867,104.68427 7.6770127,103.32265 z M 5,45.155036 C 5,44.140306 6.7125493,40.652806 8.8056651,37.405036 10.898781,34.157266 13.681644,29.5875 14.989806,27.25 17.576017,22.628807 19,21.842346 19,25.035183 19,27.14317 16.808093,31.075107 13.75797,34.438561 12.791086,35.50477 12,36.877195 12,37.488393 12,38.984051 6.7551687,47 5.7765604,47 5.3494522,47 5,46.169766 5,45.155036 z M 4.1666667,76.136019 C 4.5542855,75.131333 12.384156,62.481479 15.918986,57.1491 19.46245,51.803697 24.665605,42.718675 30.035968,32.5 32.637411,27.55 35.493545,23.354504 36.382932,23.176676 37.272319,22.998848 38,23.395444 38,24.058002 38,25.307037 30.348759,39.041843 23.827039,49.5 21.769155,52.8 18.877089,57.525 17.400226,60 12.809209,67.693853 5.9477953,77 4.8661408,77 4.2980967,77 3.9833333,76.611209 4.1666667,76.136019 z"/>
</svg>
