<svg xmlns="http://www.w3.org/2000/svg"
     width="33.6" height="64.0"
     viewBox="606.0000 19.9666 45.2095 86.1436">
  <path d="M 619.19467,94.355754 C 618.52799,90.332512 616.49729,84.565278 614.04684,79.735813 611.82108,75.349181 610,71.296444 610,70.729731 610,69.09784 615.09267,58.917192 618.26717,54.203012 621.03316,50.095478 621.10721,49.697165 619.94665,45.168901 618.92765,41.192982 618.99401,39.53242 620.35962,34.834901 622.01863,29.128095 625.29226,23.966632 626.49382,25.163236 626.86011,25.528016 626.47378,26.878016 625.63531,28.163236 623.02016,32.171763 621.89137,39.395044 623.04182,44.759392 624.05625,49.489539 623.98982,49.718967 619.72548,56.211538 617.33215,59.855453 614.77852,64.641046 614.05076,66.84619 612.78595,70.678593 612.87113,71.109943 615.9807,76.619796 621.28479,86.018134 624.7673,101 621.64783,101 620.75774,101 619.91941,98.729421 619.19467,94.355754 z M 627.67054,97.75 C 629.42488,90.876117 628.64962,84.758551 625.11437,77.579136 L 621.72875,70.703574 624.4725,65.109176 C 628.42916,57.041695 632.68759,52 635.54507,52 638.30969,52 642,48.447295 642,45.785758 642,44.062478 641.81228,44.045712 638.97063,45.515187 635.26685,47.430487 634.25911,46.89809 633.4528,42.600068 632.74271,38.814971 635.90853,30.297744 639.0986,27.410767 641.85723,24.914245 642.75412,26.568374 640.14673,29.343815 637.56311,32.093948 635.94514,37.074214 636.69889,39.956568 637.30622,42.278974 639.12885,42.560989 641.98861,40.775041 647.20953,37.514519 646.74924,46.978028 641.42809,52.299179 640.01242,53.714848 637.54311,55.161076 635.94073,55.513019 632.77048,56.209321 630.03038,59.48016 627.06081,66.112913 L 625.15436,70.371104 627.46026,74.935552 C 631.79738,83.520731 632.92415,95.74696 629.74717,99.75 627.87399,102.11022 626.81744,101.09265 627.67054,97.75 z M 627.41616,46.864344 C 624.92975,42.841242 628.05174,29.691729 632.33788,26.134544 634.65602,24.210661 635.20941,26.464057 633.08276,29.167659 630.18291,32.854225 628.6652,39.600843 629.92365,43.210813 630.9805,46.242495 630.64154,48 629,48 628.51492,48 627.80219,47.488955 627.41616,46.864344 z"/>
</svg>
