<svg xmlns="http://www.w3.org/2000/svg"
     width="33.5" height="64.0"
     viewBox="701.0927 18.2081 44.9073 85.7919">
  <path d="M 714,99.63649 C 714,96.466139 711.33097,87.384101 708.9061,82.303248 705.09268,74.312949 705.34875,72.421373 711.60199,62.38846 L 716.21046,54.99446 713.60523,48.486709 C 712.17235,44.907446 711.01975,40.521192 711.04389,38.739479 711.09939,34.643214 713.28392,28.44874 715.55991,25.933804 717.74059,23.524179 719.87464,23.348537 717.79313,25.75 713.38956,30.830461 712.79332,40.870248 716.45883,48.217925 718.85615,53.023472 718.3696,55.25731 713,64.098016 710.25,68.625716 708,72.695761 708,73.14256 708,73.589358 709.28059,76.327564 710.84576,79.22746 714.06769,85.196939 715.55082,89.591305 716.42227,95.75 716.9021,99.141061 716.71809,100 715.51182,100 714.68032,100 714,99.83642 714,99.63649 z M 722.77028,98.436947 C 722.4606,98.127268 722.44521,96.099615 722.73607,93.931051 723.14438,90.886879 722.52175,88.283712 720.00431,82.509875 716.12096,73.603284 716.30308,71.6434 721.91922,61.902336 724.06639,58.178121 726.39745,53.542861 727.09936,51.601758 728.22351,48.492976 728.16039,47.834706 726.56952,46.07682 725.57619,44.979207 724.56036,42.150399 724.3121,39.79058 723.93721,36.226981 724.4232,34.579678 727.18036,30.068333 730.51481,24.612437 733,22.573721 733,25.294222 733,26.097711 732.299,27.336888 731.44222,28.047949 729.50688,29.654145 726.99251,35.52719 727.02224,38.372124 727.03447,39.542456 727.86444,41.56624 728.86662,42.869422 L 730.68876,45.238844 734.6721,42.946324 C 739.47783,40.180502 742,40.812155 742,44.781524 742,49.153528 736.07181,53.787885 729.67259,54.418467 728.29318,54.554395 721.16094,68.256618 720.52112,72 720.10134,74.455943 720.5311,76.753591 721.9618,79.702424 724.95278,85.867173 726.30106,93.077948 725.0688,96.319031 724.00933,99.105657 723.7125,99.379165 722.77028,98.436947 z M 720.16008,48.760081 C 718.00331,46.603314 718.7773,35.020303 721.46376,29.25 724.47707,22.77767 726.68017,22.208124 723.83656,28.636586 721.42832,34.080795 720.11012,45 721.86111,45 723.17221,45 723.41836,48.623407 722.16008,49.401064 721.69813,49.686568 720.79813,49.398126 720.16008,48.760081 z M 740,45.325686 C 740,43.479421 737.02326,43.668977 734.82874,45.654988 732.71062,47.571856 732.45313,49.633812 734.25,50.289386 735.76109,50.840695 740,47.181446 740,45.325686 z"/>
</svg>
