<svg xmlns="http://www.w3.org/2000/svg"
     width="64.0" height="9.8"
     viewBox="-20.3164 -25.5977 871.7559 134.0664">
  <path d="m 847.43945,28.929688 c -2.26588,3.72586 -5.07453,8.629196 -8.17383,14.570312 -4.8776,9.35 -12.21946,22.71861 -16.3164,29.707031 -4.09694,6.98842 -8.12905,13.96342 -8.96094,15.5 -0.83189,1.536579 -3.19439,5.551882 -5.25,8.923828 C 806.68267,101.00281 805,104.04031 805,104.38086 c 0,1.37602 2.10692,0.50149 2.72461,-1.13086 0.36422,-0.9625 2.07687,-3.775 3.80469,-6.25 1.72782,-2.475 4.08519,-6.370221 5.24023,-8.65625 1.15505,-2.286029 3.72368,-6.282529 5.70703,-8.880859 1.98335,-2.598331 5.64883,-8.82811 8.14649,-13.84375 C 833.1207,60.6035 837.5736,52 840.51758,46.5 c 3.88591,-7.259734 4.94369,-9.461979 6.85742,-13.181641 z m -0.47656,32.943359 C 845.37463,64.739871 842,70.4893 842,70.640625 c 0,0.217167 -2.28392,4.075321 -5.07422,8.574219 C 831.38778,88.143929 823,103.35558 823,104.46875 c 0,2.35346 2.87172,-1.11145 6.2168,-7.501953 2.13705,-4.082676 6.50964,-11.70829 9.71679,-16.945313 3.20715,-5.237023 6.60046,-11.187407 7.54102,-13.224609 0.12445,-0.269561 0.29157,-0.512152 0.42969,-0.783203 z m -0.51758,35.923828 C 844.68119,101.09052 844,102.70005 844,103.42383 c 0,0.86654 0.21065,1.57617 0.46875,1.57617 0.22538,0 0.969,-0.9686 1.90625,-2.33008 z M 813.04883,21 C 811.93451,21 806,29.359694 806,30.929688 c 0,2.26594 2.02685,0.890981 4.95117,-3.359376 C 814.07759,23.026219 814.72547,21 813.04883,21 Z m 20.82812,0.207031 c -0.61785,0.205948 -2.15633,2.305276 -3.41797,4.664063 -1.26165,2.358786 -2.93325,5.040385 -3.71484,5.958984 -0.78159,0.918598 -3.56722,5.719922 -6.19141,10.669922 -2.6242,4.95 -5.77783,10.35 -7.00781,12 -1.22998,1.65 -5.8326,9.525 -10.22656,17.5 -4.39395,7.975 -9.63655,17.355367 -11.65234,20.845703 C 789.65023,96.33604 788,99.823536 788,100.5957 c 0,0.77216 0.16224,1.4043 0.35938,1.4043 0.87657,0 8.47448,-12.385477 13.25,-21.597656 5.27022,-10.166521 8.58717,-16.055226 10.08203,-17.902344 0.44512,-0.55 2.13091,-3.475 3.74609,-6.5 1.61518,-3.025 5.32973,-9.325 8.25586,-14 2.92613,-4.675 6.22995,-10.394265 7.3418,-12.708984 1.11185,-2.314719 2.4598,-4.478353 2.99414,-4.808594 1.35592,-0.838002 1.22119,-3.733238 -0.15235,-3.275391 z"/>
</svg>
