<svg xmlns="http://www.w3.org/2000/svg"
     width="21.5" height="64.0"
     viewBox="649.8096 12.4902 31.7901 94.5098">
  <path d="M 655.66667,85.333333 C 653.8096,83.476269 656.98177,67.350973 660.98403,58.303188 662.63625,54.568084 662.87896,52.547401 662.35392,46.898213 661.86338,41.620154 662.11466,38.988293 663.44062,35.516303 665.29691,30.655677 667.47382,29.169491 666.02783,33.75 664.21491,39.492881 663.94736,46.629776 665.41346,50.138645 666.78623,53.424149 666.71571,53.810986 663.92731,58.290957 662.31729,60.877685 661,64.1047 661,65.462102 661,66.819504 660.27629,70.061733 659.39176,72.667056 658.35843,75.710679 657.99412,78.940419 658.37263,81.702003 658.80885,84.884559 658.62067,86 657.64754,86 656.92472,86 656.03333,85.7 655.66667,85.333333 z M 665.56026,100.75 C 666.99579,96.102859 673,87.099566 673,89.59414 673,91.394822 666.883,103 665.93387,103 665.28637,103 665.13914,102.11328 665.56026,100.75 z M 667,79.700442 C 667,79.455029 667.95908,77.08607 669.1313,74.436089 670.94206,70.342549 671.48106,68.096886 671.93616,62.75 671.97127,62.3375 672.45,62 673,62 676.07717,62 671.84163,79.170325 668.60338,79.823324 667.72152,80.001152 667,79.945856 667,79.700442 z M 673,21.19113 C 673,19.720422 675.82358,16.490247 676.50955,17.176212 677.59974,18.266403 675.9922,22 674.43261,22 673.64468,22 673,21.636008 673,21.19113 z"/>
</svg>
