<svg xmlns="http://www.w3.org/2000/svg"
     width="31.4" height="64.0"
     viewBox="461.3438 44.0000 30.2993 61.7243">
  <path d="M 479.3125,48 476.09375,50.15625 476.25,50.28125 C 478.30588,52.05446 480.68018,55.221135 481.53125,57.3125 484.56707,64.772596 484.50771,76.957842 481.375,95.25 480.26621,101.72433 482.45802,99.320216 484.34375,92 487.11269,81.251288 487.64301,67.482916 485.53125,61.125 L 483.8125,55.9375 484.3125,55.28125 482.21875,51.0625 C 481.58684,50.527585 480.89028,49.999099 479.84375,48.6875 L 479.3125,48 z M 465.34375,80.3125 465.34375,86.34375 C 467.82862,81.359931 470,76.397573 470,75.1875 470,74.206261 470.51313,72.893125 471.125,72.28125 471.73687,71.669375 472.04568,70.60578 471.8125,69.90625 471.3909,68.641451 467.83205,74.454812 465.34375,80.3125 z"/>
</svg>
