<svg xmlns="http://www.w3.org/2000/svg"
     width="18.0" height="64.0"
     viewBox="683.6994 12.8644 26.0575 92.6250">
  <path d="M 700.92764,79.75 C 700.88784,79.6125 700.71073,76.973167 700.53407,73.884815 700.19729,67.997486 697.18878,59.928043 694.05717,56.512457 692.60006,54.923211 692.12744,52.449615 691.8098,44.75 691.58857,39.3875 691.75003,35 692.1686,35 693.92136,35 695,39.337028 695,46.384568 695,51.748069 695.3978,54.129646 696.389,54.70031 700.7644,57.219361 705.75691,80 701.93358,80 701.42011,80 700.96744,79.8875 700.92764,79.75 z M 690.16053,78.25 C 688.68245,75.407022 687.69945,65 688.90899,65 689.48809,65 690.23914,66.2375 690.578,67.75 690.91686,69.2625 691.59792,72.075 692.09147,74 692.58503,75.925 692.99136,78.0625 692.99442,78.75 693.00262,80.587579 691.21156,80.271572 690.16053,78.25 z M 688,98.837858 C 688,97.065857 692.95384,89 694.04215,89 695.37338,89 695.31972,89.199131 692.44738,94.917838 690.05763,99.675711 688,101.48936 688,98.837858 z M 688,25.97856 C 688,24.503664 693.19772,16.864383 693.7949,17.46157 694.44355,18.110217 689.74332,27 688.75172,27 688.33827,27 688,26.540352 688,25.97856 z"/>
</svg>
