<svg xmlns="http://www.w3.org/2000/svg"
     width="64.0" height="5.6"
     viewBox="-56.5645 -41.0000 1356.2378 117.6635">
  <path d="m 1295.6733,72.663477 v -5.197265 c -0.9802,1.705528 -2.2025,3.950073 -2.6836,4.658203 -0.9342,1.375 -3.8504,6.775 -6.4805,12 -2.63,5.225 -5.1799,9.926719 -5.666,10.449219 -0.486,0.5225 -0.8828,1.573151 -0.8828,2.333984 0,2.792266 2.4008,0.457818 5.4863,-5.335937 1.7419,-3.270779 5.0867,-9.547266 7.4336,-13.947266 0.8542,-1.601388 1.7753,-3.130208 2.793,-4.960938 z m 0,-32.46289 v -5.337891 c -1.519,2.471702 -2.7129,4.548338 -2.7129,5.03125 0,0.580451 -1.575,3.44813 -3.5,6.371094 -1.925,2.922964 -3.5,5.709964 -3.5,6.193359 0,0.483395 -1.3626,2.597276 -3.0273,4.699219 -1.6648,2.101943 -3.5423,5.317327 -4.1739,7.144531 -0.9785,2.83107 -2.7054,6.095586 -7.8359,14.822266 -3.7642,6.402715 -9.9629,18.433761 -9.9629,19.335938 0,2.783777 4.6625,-4.345999 14.6074,-22.335938 5.9289,-10.725 12.5245,-22.65 14.6563,-26.5 1.6462,-2.973117 3.6956,-6.459602 5.4492,-9.423828 z m -52.5645,59.251953 c 0.6889,0.67156 3.7221,-4.244401 8.17,-13.328125 4.6325,-9.460951 10.1871,-19.339743 19.3593,-34.435547 9.2096,-15.157274 17.3223,-29.556228 17.3223,-30.744143 0,-2.69974 -2.8586,0.73633 -8.0977,9.730471 -8.1194,13.939175 -9.5705,16.343632 -12.9375,21.449219 -1.6321,2.475 -3.9355,6.525 -5.1171,9 -1.1817,2.475 -4.0958,7.714747 -6.4766,11.644531 -5.0314,8.304645 -12.3711,23.759431 -12.3711,26.048828 0,0.328138 0.05,0.538828 0.1484,0.634766 z m -20.0742,-1.214844 c 1.3635,-0.09832 4.1087,-4.804479 12.9512,-21.613281 11.0291,-20.965279 15.1064,-28.386729 20.3301,-37 2.0013,-3.3 3.6411,-6.415183 3.6426,-6.921875 10e-4,-0.506693 0.6035,-1.631693 1.3378,-2.5 0.7343,-0.868308 2.3446,-3.265625 3.5801,-5.328125 3.8054,-6.35223 0.6098,-4.13876 -3.6094,2.5 -5.1851,8.158676 -13.3066,21.874588 -13.3066,22.472656 0,0.257945 -1.0041,1.877402 -2.2305,3.59961 -1.2263,1.722209 -3.6987,6.0666 -5.4941,9.654296 -1.7954,3.587697 -4.3874,8.323438 -5.7598,10.523438 -1.3724,2.2 -2.9607,5.125 -3.5312,6.5 -0.5705,1.375 -2.1497,4.58161 -3.5078,7.126953 -4.8452,9.08059 -5.3961,10.287557 -4.916,10.767578 0.1521,0.15216 0.3188,0.232797 0.5136,0.21875 z m 1.6016,-35.826172 c 0.5422,-0.190303 1.7679,-1.642254 3.6484,-4.582031 2.0212,-3.159622 3.6758,-5.926373 3.6758,-6.148437 0,-0.222064 3.2704,-6.175712 7.2676,-13.230469 3.9971,-7.054756 7.8286,-14.098126 8.5137,-15.652344 1.1132,-2.525618 1.0582,-2.791228 -0.5176,-2.499998 -0.9697,0.17922 -2.9531,2.671013 -4.4063,5.537108 -1.4532,2.866092 -4.5471,8.716093 -6.875,13 -2.3278,4.283906 -6.0051,11.072505 -8.1738,15.085937 -3.0385,5.623186 -4.0365,8.807407 -3.1328,8.490234 z"/>
</svg>
