<svg xmlns="http://www.w3.org/2000/svg"
     width="64.0" height="7.2"
     viewBox="-449.1386 -63.8613 1520.9369 171.7846">
  <path d="m 1067.7983,70.73379 -0.021,-5.605469 c -1.5714,2.492641 -3.5859,5.643635 -6.0547,9.291016 -3.1557,4.662258 -6.0535,9.31659 -6.4394,10.341797 -0.386,1.025208 -1.9659,4.0215 -3.5118,6.658203 -2.7213,4.641569 -3.7182,8.385273 -1.9414,7.287109 0.8582,-0.530377 9.116,-13.554136 17.9688,-27.972656 z m -0.1504,-36.939453 -0.025,-5.884766 c -0.5683,0.866625 -1.6621,2.372724 -1.6621,2.50586 0,0.287233 -2.6896,4.951155 -5.9766,10.365234 -3.2869,5.41408 -7.8262,13.44375 -10.0878,17.84375 -2.2616,4.4 -4.4739,8.45 -4.9161,9 -0.7667,0.953805 -3.6067,6.150437 -12.164,22.259766 -4.0521,7.628117 -5.186,11.998429 -2.3867,9.199218 1.3912,-1.391221 10.7119,-18.016692 21.8398,-38.958984 2.7763,-5.225 6.092,-10.891835 7.3691,-12.59375 1.2772,-1.701915 2.3223,-3.380564 2.3223,-3.730469 0,-0.349906 1.575,-3.098163 3.5,-6.107422 1.197,-1.871228 1.5509,-2.700202 2.1875,-3.898437 z M 121.0092,103.92324 c 0.1316,0.22275 0.5313,-0.0508 1.2852,-0.67187 0.9163,-0.75485 1.666,-2.18926 1.666,-3.18945 0,-1.000201 0.4506,-2.098686 1.002,-2.439458 0.5514,-0.340773 3.4173,-5.438753 6.3691,-11.330078 4.5884,-9.15766 9.2641,-17.735623 21.5801,-39.59375 1.2163,-2.158681 3.7339,-6.304329 5.5957,-9.214844 4.0748,-6.369853 8.4531,-14.869938 8.4531,-16.410155 0,-3.37991 -4.7903,2.752557 -8.6328,11.05078 -0.382,0.825 -4.4465,7.876062 -9.0313,15.669922 -4.5849,7.793859 -8.3359,14.474467 -8.3359,14.845703 0,0.371237 -0.8357,1.870174 -1.8574,3.330078 -2.9974,4.282782 -17,32.3787 -17.7696,35.654302 -0.3189,1.35771 -0.4557,2.07608 -0.3242,2.29882 z m 101.0254,-0.2539 c 0.9503,0.58733 2.7436,-2.2752 8.8262,-14.085941 2.8211,-5.477842 6.4035,-12.208984 7.9609,-14.958984 1.5573,-2.75 4.964,-9.05 7.5703,-14 2.6064,-4.95 6.4891,-11.7 8.627,-15 6.0699,-9.36959 12.9414,-22.034814 12.9414,-23.85156 0,-0.90672 -0.3421,-1.64844 -0.7598,-1.64844 -0.9967,0 -2.6752,2.714218 -8.039,13 -2.4379,4.675 -5.0549,9.209817 -5.8164,10.078125 -0.7615,0.868307 -1.3848,1.859552 -1.3848,2.201172 0,0.34162 -1.2903,2.554849 -2.8672,4.919922 -5.8337,8.749581 -28.1211,52.689026 -27.0586,53.345706 z M 60.843204,103.12442 c 0.8925,0 14.2728,-20.13145 15.3594,-23.10938 0.3229,-0.884894 5.6425,-10.559894 11.8223,-21.5 C 103.155,31.730033 107.7879,23.243058 108.4975,21.007225 c 0.3991,-1.25743 0.1118,-1.88281 -0.8652,-1.88281 -0.8044,0 -2.7126,2.3625 -4.2403,5.25 -1.5277,2.8875 -4.076096,7.725 -5.663996,10.75 -1.5879,3.025 -3.9098,7.3 -5.1582,9.5 -1.2484,2.2 -3.9581,7.15 -6.0215,11 -2.0634,3.85 -4.2772,7.675 -4.9199,8.5 -1.287,1.65195 -1.2861,1.651886 -8.1797,14.5 -2.6558,4.95 -5.1738,9.233337 -5.5957,9.519531 -0.4219,0.286194 -1.2622,1.636194 -1.8672,3 -0.6051,1.363806 -2.2015,4.280469 -3.5469,6.480469 -2.6343,4.307885 -2.9804,5.500005 -1.5957,5.500005 z m -54.6348002,0 c 1.2789,0 2.2045,-1.37461 6.4024002,-9.500005 0.8524,-1.65 3.7078,-6.825 6.3457,-11.5 2.6379,-4.675 6.5964,-11.875 8.7969,-16 8.0228,-15.039482 22.4542,-40.539944 23.8125,-42.078125 0.7667,-0.868307 1.3945,-2.330805 1.3945,-3.249995 0,-3.4722 -3.1218,-1.47339 -5.5879,3.57812 -5.1344,10.517106 -8.9913,17.502435 -23.8828,43.25 -5.4078,9.35 -10.7355,19.025 -11.8379,21.5 -1.1024,2.475 -2.7961002,5.625 -3.7637002,7 -2.5686,3.649968 -3.3719,7.000005 -1.6797,7.000005 z m 16.9375002,-0.29883 c 0.2732,1.40217 4.9216,-6.419155 13.4922,-22.701175 1.3028,-2.475 3.611,-6.75 5.1289,-9.5 1.5179,-2.75 4.9468,-9.05 7.6211,-14 6.1109,-11.310922 6.685,-12.330942 9,-16 1.041,-1.65 2.8778,-4.575 4.0821,-6.5 1.2044,-1.925 3.6072,-5.71508 5.3398,-8.421875 1.7325,-2.706794 3.1504,-5.326225 3.1504,-5.822265 0,-4.19397 -8.1213,5.849992 -14.752,18.24414 -1.0299,1.925 -3.3075,6.0875 -5.0605,9.25 -8.3045,14.981617 -14.9995,27.40381 -16.8418,31.25 -0.7903,1.65 -2.07,4.125 -2.8437,5.5 -4.2968,7.635882 -8.5909,17.292905 -8.3165,18.701175 z M 161.6655,102.64395 c 0.9187,-0.32286 2.0929,-2.09347 4.4238,-6.37891 4.9915,-9.176938 7.8676,-14.211022 18.3633,-32.140625 19.9527,-34.084843 24.5078,-42.204 24.5078,-43.68945 0,-0.81211 -0.5163,-1.30446 -1.1484,-1.09375 -1.0199,0.33997 -3.9016,4.981375 -11.3457,18.2832 -1.2312,2.2 -7.3136,12.775 -13.5176,23.5 -6.2041,10.725 -13.5131,23.775 -16.2422,29 -2.7291,5.225 -5.3851,10.021625 -5.9023,10.660155 -0.5829,0.71944 -0.5854,1.38205 -0.01,1.74024 0.2828,0.17477 0.5609,0.22676 0.8672,0.11914 z M 43.710404,102.11856 c 0.4125,-0.004 1.5916,-1.46598 2.6191,-3.250004 3.7404,-6.494473 16.2868,-29.4099 19.5704,-35.744141 1.8533,-3.575 4.1996,-7.694394 5.2148,-9.154297 1.0152,-1.459904 1.8457,-2.970417 1.8457,-3.355469 0,-0.385053 3.6,-7.102824 8,-14.929687 4.4,-7.826862 8,-14.755807 8,-15.396487 0,-0.64069 -0.3943,-1.16406 -0.877,-1.16406 -1.1483,0 -2.319,1.53194 -5.3476,7 -1.3708,2.475 -3.5418,6.3 -4.8242,8.5 -1.2824,2.2 -4.2956,7.825 -6.6953,12.5 -7.3554,14.329613 -12.6537,24.172695 -17.0391,31.654297 -2.3067,3.935263 -4.6448,8.341061 -5.1953,9.789062 -0.5506,1.448001 -2.131,4.294262 -3.5117,6.326172 -2.4194,3.560491 -3.3147,7.237724 -1.7598,7.224614 z m 340.999996,-0.002 c 0.9856,-0.0108 3.0632,-3.850586 17.8516,-32.992192 12.2975,-24.233127 13.8565,-27.170905 18.0507,-34 4.275,-6.960641 6.3477,-11.090849 6.3477,-12.652344 0,-1.285916 -0.2817,-1.358526 -1.4668,-0.374996 -1.3461,1.117187 -3.5009,4.724397 -11.0625,18.52734 -1.5065,2.75 -3.0867,5.45 -3.5117,6 -1.0688,1.383076 -17.7324,34.775802 -18.9434,37.960938 -0.5405,1.421758 -2.5662,5.059021 -4.5,8.082031 -3.2588,5.094383 -4.5389,9.468723 -2.7656,9.449223 z m -117.9766,-0.0156 c 0.2403,0.0342 0.5989,-0.0891 1.0743,-0.38282 0.9029,-0.55806 3.3842,-5.009231 15.9335,-28.593746 2.4876,-4.675 6.5301,-12.1 8.9844,-16.5 2.4544,-4.4 7.1736,-12.95 10.4883,-19 3.3147,-6.05 6.6392,-11.887778 7.3867,-12.972656 0.7476,-1.084879 1.3594,-2.322375 1.3594,-2.750004 0,-1.33993 -1.626,-0.85034 -3.2305,0.97266 -0.8472,0.9625 -2.4158,3.55 -3.4863,5.75 -3.1395,6.452057 -10.7297,20.078559 -14.5898,26.193359 -1.3273,2.102629 -3.2919,5.618715 -4.3672,7.814453 -2.4309,4.963974 -15.9714,30.797246 -18.5332,35.359376 -1.4024,2.497288 -1.7405,4.006908 -1.0196,4.109378 z m 175.3789,0.92974 c 0.1371,0.002 0.3485,-0.12858 0.6407,-0.40625 1.3081,-1.24331 15.22,-25.55885 17.7363,-31.000005 1.0174,-2.2 4.1781,-8.275 7.0234,-13.5 2.8453,-5.225 7.325,-13.55 9.9532,-18.5 2.6282,-4.95 5.8397,-10.567248 7.1367,-12.482422 1.2971,-1.915173 2.3574,-3.827673 2.3574,-4.25 0,-1.226598 -2.6569,-0.886798 -3.7734,0.482422 -1.6413,2.012767 -11.8595,20.903045 -21.2305,39.25 -4.7756,9.35 -10.9891,21.135955 -13.8066,26.191406 -4.302,7.71873 -6.9964,14.202699 -6.0372,14.214849 z m -196.5996,-0.0215 c 0.9304,0.9303 3.1633,-2.38201 8.6875,-12.884771 3.0376,-5.775 10.6776,-19.725 16.9766,-31 13.9568,-24.982217 19.7832,-35.938029 19.7832,-37.195314 0,-0.52348 -0.7207,-0.80674 -1.6016,-0.62891 -0.8809,0.17782 -4.1648,5.27422 -7.2988,11.32422 -3.134,6.05 -7.641,14.6 -10.0137,19 -2.3727,4.4 -6.5988,12.275 -9.3925,17.5 -2.7938,5.225 -6.083,11.3 -7.3086,13.5 -5.1039,9.161952 -10.2939,19.922885 -9.8321,20.384765 z m 38.918,-0.082 c 0.7911,0.79103 3.4275,-2.53643 6.0508,-7.636723 1.0368,-2.015866 3.8522,-6.974701 6.2558,-11.019532 2.4036,-4.04483 7.7124,-13.864996 11.7969,-21.822265 4.0846,-7.957269 8.4874,-16.348585 9.7852,-18.646485 1.2977,-2.297901 4.4507,-8.115234 7.0058,-12.927734 2.9481,-5.552911 4.164,-8.75 3.3282,-8.75 -1.9397,0 -5.0385,4.632021 -10.1368,15.150391 -2.4927,5.14274 -4.9224,10.024609 -5.4004,10.849609 -0.4778,0.825 -2.8473,5.448248 -5.2636,10.273438 -6.5579,13.095969 -9.5078,18.543227 -18.4356,34.044921 -3.11,5.400008 -5.3531,10.1176 -4.9863,10.48438 z m 234.3711,-0.30274 2.0293,-2.5 c 1.1157,-1.375005 2.3024,-3.582367 2.6367,-4.904302 0.3343,-1.321935 1.8529,-4.246935 3.375,-6.5 1.5221,-2.253065 6.287,-10.395703 10.5879,-18.095703 4.301,-7.7 11.0766,-19.625 15.0566,-26.5 7.5866,-13.105008 11.4727,-20.434505 11.4727,-21.634766 0,-1.151864 -4.9967,3.875951 -5.0273,5.058594 -0.015,0.591627 -1.3653,2.84343 -3,5.003906 -1.6347,2.160477 -2.9727,4.341083 -2.9727,4.845704 0,0.504618 -0.84,2.112361 -1.8672,3.572265 -1.0273,1.459903 -4.3385,7.154297 -7.3574,12.654297 -3.0189,5.5 -8.5522,15.4 -12.2969,22 -8.9844,15.834943 -11.2694,20.397259 -12.0156,24 z M 81.479904,102.4877 c 0.071,0.30327 0.4003,0.11845 1.0254,-0.40039 0.8,-0.66391 1.4551,-1.58224 1.4551,-2.04102 0,-1.717157 17.582996,-33.336345 33.289096,-59.861328 6.0051,-10.14151 11.1452,-19.029007 11.4218,-19.749997 0.2782,-0.72481 -0.1722,-1.31055 -1.0078,-1.31055 -0.8688,0 -3.0859,3.081766 -5.2148,7.25 -2.0367,3.9875 -5.1674,9.5 -6.9571,12.25 -1.7896,2.75 -5.8791,9.5 -9.0878,15 -3.2087,5.5 -6.3743,10.675 -7.035196,11.5 -2.005,2.502911 -16.3417,31.264637 -17.3633,34.833984 -0.4102,1.433311 -0.5967,2.226031 -0.5254,2.529301 z m 18.695296,-0.2168 c 0.4505,1.35176 6.3064,-7.839007 10.375,-16.283204 1.4214,-2.950271 3.1088,-6.263281 3.7481,-7.363281 0.6393,-1.1 3.4009,-6.05 6.1367,-11 2.7359,-4.95 5.7689,-10.35 6.7402,-12 0.9714,-1.65 3.7481,-7.05 6.17,-12 2.4219,-4.95 6.0264,-11.673761 8.0097,-14.941406 1.9834,-3.267644 3.6055,-6.530146 3.6055,-7.250004 0,-3.23453 -2.8887,-0.77116 -5.7949,4.94141 -1.7488,3.4375 -3.8241,7.375 -4.6113,8.75 -0.7874,1.375 -2.3048,4.3 -3.3731,6.5 -3.5294,7.268258 -10.4138,19.974432 -11.6484,21.5 -1.2775,1.578444 -7.7067,13.705383 -10.8692,20.5 -1.0239,2.2 -2.2786,4.675 -2.7871,5.5 -2.7643,4.484969 -6.057496,12.077755 -5.7012,13.146485 z m 78.5,-0.0312 c 0.9113,0.91129 5.0359,-5.429866 16.334,-25.115235 0.4735,-0.825 2.3369,-3.975 4.1407,-7 3.9575,-6.637169 6.4725,-11.116458 11.789,-21 2.2189,-4.125 4.456,-8.175 4.9727,-9 2.9701,-4.74248 8.8973,-15.827546 9.4902,-17.75 1.0958,-3.55314 -1.7901,-2.78717 -3.7676,1 -0.9333,1.7875 -3.3914,6.4 -5.4629,10.25 -2.0716,3.85 -5.6875,10.674566 -8.0351,15.166016 -2.3476,4.491449 -4.9233,8.70965 -5.7227,9.373046 -0.7993,0.663396 -1.4531,1.667301 -1.4531,2.232422 0,0.56512 -1.8584,4.223872 -4.1309,8.128907 -11.1137,19.097439 -13.8691,23.915637 -13.8691,24.263671 0,0.20787 -1.1974,2.188018 -2.6602,4.398438 -1.8329,2.769677 -2.3382,4.339525 -1.625,5.052735 z m 147.9336,-0.0996 c 0.2189,0.0709 0.5908,-0.0446 1.1192,-0.37109 1.1863,-0.73322 10.6567,-17.440289 19.2422,-33.945317 3.7763,-7.259469 10.7185,-19.944159 15.4277,-28.1875 4.7092,-8.243341 8.5625,-15.592039 8.5625,-16.332031 0,-3.120458 -2.6543,0.05396 -8.252,9.86914 -6.6985,11.745603 -17.584,32.450763 -24.9453,47.451172 -2.6991,5.5 -5.2215,10.494385 -5.6054,11.099609 -0.3838,0.605224 -1.9674,3.011464 -3.5196,5.345703 -1.9687,2.960614 -2.6857,4.857664 -2.0293,5.070314 z m -21.3437,-0.37695 c 0.615,0.61499 4.6953,-3.675821 4.6953,-4.937504 0,-0.507409 2.1775,-4.586118 4.8398,-9.0625 2.6624,-4.476382 5.7465,-9.938672 6.8536,-12.138672 2.8021,-5.568214 12.3275,-22.891377 16.2207,-29.5 1.7821,-3.025 3.6378,-6.175 4.123,-7 4.6801,-7.958669 7.8445,-13.903454 8.4473,-15.869141 1.317,-4.295279 -1.8127,-1.813469 -4.5117,3.578125 -1.3897,2.775932 -3.0109,5.665536 -3.6036,6.419922 -0.5927,0.754387 -2.5755,4.296094 -4.4062,7.871094 -1.8306,3.575 -4.372,7.932791 -5.6465,9.683594 -1.2745,1.750803 -2.3164,3.483397 -2.3164,3.849609 0,0.366212 -2.4138,4.783421 -5.3652,9.816406 -7.6517,13.048326 -19.9149,36.704347 -19.3301,37.289067 z m 119.2187,-0.0937 c 0.9438,0.52235 3.2949,-3.277203 9.1778,-14.544926 3.8766,-7.425 8.6615,-16.2 10.6328,-19.5 1.9712,-3.3 6.1341,-10.95 9.2519,-17 3.1178,-6.05 7.8614,-14.64698 10.5411,-19.105469 2.6798,-4.458488 4.873,-8.429879 4.873,-8.824219 0,-2.179622 -3.6513,0.519707 -5.543,4.097657 -1.2119,2.292241 -3.1603,5.511634 -4.33,7.154297 -1.1697,1.642662 -2.127,3.509144 -2.127,4.148437 0,0.639294 -1.0737,2.5949 -2.3848,4.345703 -1.3112,1.750803 -2.7156,4.308594 -3.1211,5.683594 -0.6926,2.348377 -2.8346,6.269508 -11.6308,21.291016 -5.3462,9.129887 -16.0125,30.76745 -15.6641,31.77539 0.084,0.24187 0.1894,0.40389 0.3242,0.47852 z m -282.7558,0.43164 c 0.2278,0.0505 0.5985,-0.0842 1.1133,-0.40235 0.5578,-0.34476 4.9214,-7.928751 9.6972,-16.85156 16.7474,-31.289762 19.448,-36.209611 22.7539,-41.476562 1.2933,-2.060365 4.6889,-8.133594 7.5469,-13.496094 4.417,-8.28758 4.9184,-9.75 3.3438,-9.75 -1.1565,0 -2.5223,1.40872 -3.6368,3.75 -0.9818,2.0625 -4.5274,8.475 -7.8789,14.25 -6.4884,11.179865 -7.9013,13.805145 -20.4433,38 -4.4191,8.525 -9.2149,17.709374 -10.6563,20.410156 -1.9153,3.58892 -2.5234,5.41483 -1.8398,5.56641 z m 437.6992,-0.18555 c 0.9247,-0.40409 3.1942,-3.951114 6.5547,-10.291016 5.9157,-11.160592 9.1077,-16.749024 10.5664,-18.5 0.6873,-0.825 3.6736,-6 6.6367,-11.5 2.963,-5.5 8.9072,-16.075 13.20899,-23.5 4.30179,-7.425 8.01663,-13.8375 8.25391,-14.25 0.23728,-0.4125 -0.27634,-0.75 -1.14062,-0.75 -1.80265,0 -6.18475,6.569162 -13.00782,19.5 -2.61196,4.95 -5.35866,9.68951 -6.10356,10.533203 -0.745,0.843692 -2.5161,4.16159 -3.9355,7.371094 -1.4194,3.209503 -3.6379,7.24304 -4.9316,8.964844 -2.9656,3.946886 -16.5684,30.026639 -16.5684,31.765625 0,0.57643 0.1586,0.79095 0.4668,0.65625 z m -176.293,-0.0508 c 0.8038,0.63818 4.3193,-4.620396 9.1035,-13.740234 3.0295,-5.775 7.5812,-14.000957 10.1153,-18.279297 2.5341,-4.278339 4.6074,-8.033947 4.6074,-8.345703 0,-0.311757 1.0125,-1.973624 2.25,-3.693359 1.2375,-1.719734 3.3966,-5.389128 4.7969,-8.154297 1.4004,-2.76517 5.1129,-9.821953 8.25,-15.681641 3.1372,-5.859688 5.7031,-10.922188 5.7031,-11.25 0,-0.327812 -0.5625,-0.595057 -1.25,-0.59375 -0.6875,0.0013 -2.5725,2.588807 -4.1895,5.75 -1.617,3.161193 -5.892,11.044653 -9.5,17.517578 -3.608,6.472925 -7.5786,13.672925 -8.8222,16 -1.2435,2.327075 -3.3844,6.030469 -4.7578,8.230469 -1.3735,2.2 -3.8463,6.475 -5.4961,9.5 -1.6498,3.025 -3.3798,6.175 -3.8438,7 -3.3308,5.922458 -7.1406,13.979124 -7.1406,15.099614 0,0.33775 0.059,0.54945 0.1738,0.64062 z m -201.9492,-0.0156 c 1.1274,-0.39436 2.7754,-1.908606 2.7754,-2.865234 0,-0.492594 1.6985,-3.699392 3.7754,-7.126953 2.0769,-3.427562 4.6079,-7.991225 5.623,-10.140625 1.0151,-2.149401 4.6022,-8.311377 7.9727,-13.693359 16.6511,-26.588573 27.5013,-45.12801 27.5937,-47.148438 0.1055,-2.306 -3.503,0.13617 -4.3867,2.96875 -0.6949,2.227204 -5.7574,10.733765 -14.1504,23.78125 -2.4766,3.85 -5.1205,8.35 -5.875,10 -0.7546,1.65 -2.3523,4.247633 -3.5527,5.773438 -1.2003,1.525802 -5.5985,8.950803 -9.7734,16.5 -10.2398,18.515875 -11.5762,21.208971 -10.875,21.910161 0.1797,0.17974 0.4972,0.17247 0.873,0.041 z m 165.0059,-0.0859 c 0.2428,0.0584 0.5054,0.025 0.7324,-0.11523 0.8122,-0.50196 22.0371,-40.201599 22.0371,-41.218754 0,-0.286975 2.8959,-5.565694 6.4355,-11.730469 7.6164,-13.265065 13.5645,-24.935091 13.5645,-26.615232 0,-3.00034 -3.5372,2.201388 -9.1602,13.470708 -3.3124,6.638729 -6.6143,12.745312 -7.3378,13.570312 -0.7235,0.825 -4.1271,7.125 -7.5625,14 -3.4355,6.875 -7.0234,13.625 -7.9727,15 -3.1892,4.619371 -11.8634,22.360455 -11.3438,23.201175 0.1414,0.2288 0.3647,0.37915 0.6075,0.4375 z m 581.14255,-0.60352 c 0.71782,0.3333 2.3787,-1.483296 4.16797,-4.785152 3.13261,-5.780811 6.08547,-10.973439 12.93945,-22.75 2.88091,-4.95 7.03284,-12.375 9.22656,-16.5 10.57355,-19.88214 13.79761,-25.788575 15.95508,-29.230462 1.28599,-2.051571 2.33789,-4.225269 2.33789,-4.832031 0,-0.606763 -0.5515,-0.919681 -1.22461,-0.695312 -1.23415,0.411383 -4.85747,6.049534 -9.80469,15.257812 -1.47747,2.75 -4.62642,8.6 -6.99804,13 -2.37163,4.4 -5.19639,9.8 -6.27735,12 -1.08096,2.2 -3.16302,5.8 -4.62695,8 -1.46393,2.2 -4.16787,6.925 -6.00781,10.5 -1.83994,3.575 -3.90311,7.175 -4.58594,8 -1.65196,1.995903 -5.47461,9.649569 -5.47461,10.960935 0,0.61325 0.13377,0.96312 0.37305,1.07422 z m -37.05664,-0.0351 c 0.72419,0 2.89018,-3.037505 4.8125,-6.750005 1.92231,-3.7125 5.23659,-10.125 7.36523,-14.25 2.12865,-4.125 5.59256,-10.069505 7.69727,-13.208984 2.10471,-3.139479 4.28046,-6.902268 4.83593,-8.363282 0.55548,-1.461014 1.93856,-3.843461 3.07227,-5.292968 3.06651,-3.920666 8.90039,-13.428612 8.90039,-14.50586 0,-0.516632 1.05807,-2.333241 2.35156,-4.035156 2.6531,-3.490857 5.0463,-7.961649 6.11914,-11.435547 0.59147,-1.915223 0.39363,-2.278703 -1.08398,-1.994143 -1.12954,0.21753 -2.06506,1.611238 -2.4961,3.718752 -0.37921,1.854137 -1.64172,4.551599 -2.80468,5.994141 -1.16296,1.442542 -2.64633,3.748047 -3.29688,5.123047 -0.65055,1.375 -2.66969,4.586079 -4.48633,7.134766 -1.81665,2.548687 -3.30273,4.921366 -3.30273,5.273437 0,0.352072 -1.4625,2.840692 -3.25,5.529297 -5.79994,8.72378 -10.33732,16.365463 -15.77148,26.5625 -2.93103,5.5 -6.37583,11.678899 -7.6543,13.730469 -2.59922,4.170949 -2.98612,6.769536 -1.00781,6.769536 z m -18.43946,0 c 0.60182,0 2.15055,-1.687505 3.44141,-3.750005 4.44002,-7.094116 9.4451,-15.75731 11.41016,-19.75 1.08275,-2.2 3.69806,-6.925 5.8125,-10.5 2.11444,-3.575 5.3496,-9.397806 7.1875,-12.939453 1.83791,-3.541648 3.75428,-6.937806 4.25976,-7.546875 0.50548,-0.609069 2.52832,-4.236263 4.4961,-8.060547 1.96778,-3.824283 4.87934,-8.978125 6.46874,-11.453125 1.58942,-2.475 2.92552,-4.871395 2.96876,-5.32422 0.0432,-0.45283 -0.66532,-0.67783 -1.57422,-0.5 -0.90889,0.17782 -3.80053,4.14922 -6.42578,8.82422 -2.62524,4.675 -6.7193,11.98557 -9.09766,16.246094 -2.37836,4.260525 -6.65836,11.685525 -9.51172,16.5 -2.85336,4.814476 -7.54026,13.028906 -10.41406,18.253906 -2.87379,5.225 -6.02926,10.625 -7.01367,12 -2.28033,3.185116 -3.48917,8.000005 -2.00782,8.000005 z m -194.5332,-0.002 c 0.63601,-7.4e-4 2.73125,-3.028687 4.65625,-6.728521 1.925,-3.699834 4.22625,-7.861116 5.11328,-9.248047 2.62656,-4.106781 11.74475,-20.700044 17.94531,-32.658203 3.17629,-6.125678 6.87483,-12.883605 8.22071,-15.015625 1.34589,-2.13202 3.64225,-6.231526 5.10156,-9.111328 1.4593,-2.879755 2.23498,-5.236281 1.72461,-5.236281 -1.24439,0 -6.10547,5.843889 -6.10547,7.339844 0,0.652642 -1.5949,3.555562 -3.54492,6.451172 -1.95001,2.89561 -5.03309,8.06428 -6.84961,11.486328 -6.19627,11.672847 -16.79026,31.20768 -21.54297,39.722656 -5.18893,9.296477 -6.53331,13.000145 -4.71875,12.998045 z M 462.312,101.07164 c 0.6882,0.44388 2.3349,-1.412554 4.4863,-5.197271 1.6414,-2.8875 4.9581,-9.103269 7.3711,-13.8125 2.413,-4.709231 5.3087,-9.884231 6.4336,-11.5 1.1249,-1.615769 3.7371,-6.3125 5.8066,-10.4375 2.0695,-4.125 5.9647,-11.16229 8.6563,-15.638672 2.6916,-4.476382 4.8945,-8.421046 4.8945,-8.765625 0,-0.344579 1.6203,-3.065758 3.5996,-6.046875 1.9794,-2.981118 3.2971,-5.905607 2.9297,-6.5 -0.3673,-0.594393 -1.091,-0.818427 -1.6094,-0.498047 -1.0455,0.646147 -6.6806,9.278225 -9.1054,13.949219 -0.8566,1.65 -2.8093,5.25 -4.3399,8 -1.5305,2.75 -5.0293,9.275 -7.7754,14.5 -2.7461,5.225 -6.0517,11.067248 -7.3457,12.982422 -1.294,1.915173 -2.3535,3.870781 -2.3535,4.345703 0,0.474922 -0.9023,2.131796 -2.0059,3.681641 -2.7583,3.873655 -9.9941,18.145531 -9.9941,19.71289 0,0.672695 0.1221,1.076645 0.3516,1.224615 z m 18.9472,-0.043 c 0.5896,0.48706 2.0225,-1.305266 4.0508,-5.154302 1.5215,-2.8875 5.0441,-9.3 7.8281,-14.25 6.191,-11.00765 9.9381,-17.827503 13.6641,-24.873047 1.5628,-2.95509 3.7458,-6.66759 4.8516,-8.25 3.6142,-5.17155 13.3066,-23.359926 13.3066,-24.970656 0,-3.17472 -2.3103,-0.642126 -6.5039,7.128906 -2.3643,4.381195 -5.908,10.664844 -7.875,13.964844 -1.9669,3.3 -4.9486,8.7 -6.625,12 -1.6763,3.3 -3.4848,6.675 -4.0195,7.5 -1.3879,2.141681 -11.2817,19.940441 -16.6192,29.898438 -1.2969,2.419416 -2.3574,5.006917 -2.3574,5.75 0,0.677017 0.1023,1.093507 0.2988,1.255857 z m 351.97268,-0.16602 c 0.35411,-0.11472 0.76313,-0.36916 1.17969,-0.79688 0.77161,-0.792211 2.93201,-4.366355 4.80078,-7.941355 5.20316,-9.953812 12.73291,-22.999724 16.16211,-28 1.69719,-2.474765 4.66094,-7.469244 6.58594,-11.099609 1.925,-3.630365 6.0875,-11.08456 9.25,-16.564453 3.1625,-5.479893 5.75,-10.722914 5.75,-11.650391 0,-2.213646 -1.87752,-2.16915 -2.73438,0.06445 -0.36923,0.9625 -2.94273,5.467037 -5.71874,10.009766 -2.77601,4.54273 -6.84688,11.559868 -9.04688,15.59375 -2.2,4.033881 -5.30388,9.541845 -6.89648,12.240234 -10.56893,17.90725 -17.46639,30.254189 -18.10547,32.406253 -0.40832,1.375 -1.20262,3.072646 -1.76367,3.773438 -1.1057,1.381057 -0.52521,2.308987 0.5371,1.964847 z m -333.80078,-0.0273 c 0.9594,-0.12022 3.4458,-4.17194 7.9883,-12.888673 3.0605,-5.873035 8.3715,-15.383763 11.8027,-21.134766 3.4312,-5.751003 7.4922,-12.646304 9.0235,-15.322266 1.5314,-2.675962 5.6993,-9.590234 9.2636,-15.365234 3.5644,-5.775 6.9408,-11.2875 7.502,-12.25 0.7841,-1.344964 0.67,-1.75 -0.4922,-1.75 -0.8316,0 -2.1269,1.0125 -2.877,2.25 -0.7501,1.2375 -4.3082,6.975 -7.9082,12.75 -3.6001,5.775 -8.9127,14.775 -11.8046,20 -2.8921,5.225 -6.2821,10.885517 -7.5333,12.578125 -3.5582,4.813399 -15.4355,27.873838 -15.4355,29.96875 0,0.806524 0.1509,1.204134 0.4707,1.164064 z m 100.8828,0.0996 c 1.1248,-0.6183 2.928,-3.133952 5.3086,-7.425782 1.5608,-2.813775 5.1531,-8.888775 7.98243,-13.5 2.82932,-4.611225 6.96111,-11.87253 9.18164,-16.134766 2.22054,-4.262237 4.91504,-8.987237 5.98828,-10.5 1.07325,-1.512764 2.85492,-4.325 3.95899,-6.25 1.10407,-1.925 4.30687,-7.457278 7.11718,-12.294922 2.81033,-4.837644 5.10938,-9.225144 5.10938,-9.75 0,-2.042607 -1.84972,-0.800043 -3.41602,2.294922 -0.90461,1.7875 -3.39388,5.95 -5.53125,9.25 -2.13738,3.3 -5.50776,8.7 -7.49023,12 -1.98246,3.3 -4.03002,6.675 -4.54883,7.5 -0.51882,0.825 -3.26755,5.775 -6.10742,11 -2.83986,5.225 -6.84067,12.2 -8.89063,15.5 -6.05452,9.746592 -10.18812,17.659548 -9.55662,18.291018 0.2202,0.2202 0.5196,0.22563 0.8945,0.0195 z m 56.83986,-0.008 c 0.88135,0.52947 4.58567,-4.637732 7.44726,-10.667969 1.94882,-4.106737 4.65731,-9.229961 6.01758,-11.384766 1.36027,-2.154804 5.76448,-10.067688 9.78711,-17.583984 4.02264,-7.516266 9.00035,-16.815986 11.0625,-20.665986 2.06214,-3.85 4.17947,-7.542742 4.70508,-8.205078 1.32366,-1.667964 4.78711,-8.544821 4.78711,-9.50586 0,-0.433707 -0.60213,-0.789062 -1.33789,-0.789062 -0.73575,0 -2.56151,2.3625 -4.05859,5.25 -1.49708,2.8875 -5.39887,9.75 -8.66993,15.25 -3.27105,5.5 -6.39505,11.125 -6.9414,12.5 -0.54634,1.375 -1.51689,3.4 -2.15821,4.5 -0.64133,1.1 -2.58257,4.7 -4.3125,8 -1.72994,3.3 -4.2752,7.8 -5.65625,10 -3.05688,4.869611 -10.86523,21.192357 -10.86523,22.712895 0,0.32227 0.0675,0.5142 0.19336,0.58984 z m -36.93945,-0.53906 c 0.42438,1.27313 6.21659,-6.738772 7.70898,-10.664066 0.53349,-1.403187 5.1081,-9.200246 10.16602,-17.326171 9.404,-15.108213 12.29074,-20.127892 19.13867,-33.273438 2.14884,-4.125 4.97753,-9.354055 6.28515,-11.619141 1.30761,-2.265086 2.12398,-4.370169 1.81446,-4.679687 -1.06348,-1.063472 -2.95064,0.35656 -4.08789,3.076172 -0.62633,1.497798 -2.27449,4.747656 -3.66211,7.222656 -1.38761,2.475 -3.21989,6.075 -4.07227,8 -0.85238,1.925 -3.68566,6.968733 -6.29687,11.208984 -19.99755,32.47334 -27.64843,46.091798 -26.99414,48.054691 z m 19.56836,-0.12305 c 0.29904,-0.01 0.81877,-0.395702 1.5664,-1.199219 1.31781,-1.416322 7.16172,-12.663074 13.74024,-26.441406 4.29373,-8.992955 10.94598,-21.000457 16.89648,-30.5 2.58389,-4.125 5.73027,-9.3 6.99414,-11.5 1.26388,-2.2 3.19661,-4.728972 4.29492,-5.621094 1.21952,-0.990575 1.75455,-2.255813 1.37305,-3.249996 -0.82893,-2.16015 -3.60568,-2.08241 -4.30664,0.12109 -1.04363,3.280692 -4.74644,9.738906 -9.89063,17.25 -5.53038,8.074995 -16.49023,26.768675 -16.49023,28.126983 0,0.735032 -3.74517,9.334049 -6.16797,14.162109 -0.4937,0.983837 -2.72124,5.407672 -4.95117,9.830079 -2.86817,5.688143 -3.95574,9.051024 -3.05859,9.021484 z m 349.58007,0.62698 c 0.7532,0.56765 2.40787,-1.26397 3.59766,-4.455075 0.825,-2.212724 2.02176,-4.651122 2.66016,-5.417969 0.63841,-0.766847 3.96225,-6.794531 7.38474,-13.394531 3.4225,-6.6 6.773,-12.675 7.4453,-13.5 0.6724,-0.825 3.8314,-6.225 7.0215,-12 3.1902,-5.775 6.6729,-11.753134 7.7383,-13.285156 1.1133,-1.600877 1.6624,-3.502861 1.291,-4.470703 -0.3554,-0.926213 -0.338,-1.375131 0.039,-0.998047 0.3771,0.377084 1.4418,-0.310448 2.3653,-1.529297 3.0056,-3.967109 6.9986,-11.438867 6.4218,-12.015627 -0.9446,-0.94463 -3.3672,0.42549 -3.3672,1.9043 0,0.764886 -1.5154,3.528804 -3.3671,6.142577 -3.2425,4.576818 -10.8822,17.825304 -16.8438,29.210937 -1.5722,3.002704 -3.5182,6.189475 -4.3242,7.080078 -0.806,0.890605 -1.4649,1.956263 -1.4649,2.369141 0,0.412878 -3.825,7.589827 -8.5,15.949219 -4.675,8.359392 -8.5,16.011149 -8.5,17.003906 0,0.761297 0.15128,1.217037 0.40234,1.406247 z m -19.15039,-0.76757 c 1.59004,0 8.1496,-9.479796 9.05469,-13.085943 0.35348,-1.40839 1.77903,-4.23453 3.16797,-6.28125 1.38894,-2.046717 2.52539,-4.18093 2.52539,-4.742187 0,-1.304696 8.36329,-17.185752 11,-20.888672 1.10042,-1.545394 2,-3.128865 2,-3.517578 0,-0.388714 2.25,-4.43161 5,-8.984375 2.75,-4.552765 5,-8.689921 5,-9.193359 0,-0.503439 1.35,-3.044705 3,-5.646485 1.65,-2.60178 3,-5.425612 3,-6.277346 0,-3.44161 -2.7633,-0.2393 -7.5,8.693362 -2.75,5.186061 -5.9,10.936021 -7,12.777344 -1.1,1.841323 -3.51975,5.8909 -5.37695,8.998046 -4.92716,8.243317 -18.11954,34.426271 -18.1211,35.964844 -7.3e-4,0.724197 -1.07096,2.749197 -2.37695,4.5 -3.80719,5.10391 -4.9397,7.683599 -3.37305,7.683599 z m -97.32422,0 c 1.48759,0 4.85458,-4.811387 6.16797,-8.812505 0.66575,-2.028134 2.20211,-5.2625 3.41211,-7.1875 1.20999,-1.925 3.4658,-6.178011 5.01367,-9.451172 2.50199,-5.290785 9.84645,-18.516573 12.52149,-22.548828 0.54732,-0.825 1.55089,-2.625 2.23047,-4 1.50498,-3.045077 6.04938,-10.916131 9.81445,-17 1.53167,-2.475 3.25265,-5.7375 3.82422,-7.25 1.31922,-3.49092 -0.99561,-3.91235 -2.74609,-0.5 -2.01524,3.928457 -4.86245,8.680087 -6.08594,10.154297 -0.65072,0.784068 -2.75283,4.500219 -4.67188,8.259765 -1.91905,3.759549 -4.36291,8.185938 -5.43164,9.835938 -1.06874,1.65 -3.10319,5.25 -4.51953,8 -1.41635,2.75 -4.04748,7.7 -5.84765,11 -6.96464,12.767212 -9.60536,18.044835 -9.60743,19.205078 -10e-4,0.663075 -1.12695,2.864449 -2.50195,4.890625 -2.64982,3.904726 -3.08598,5.404302 -1.57227,5.404302 z m -95.29687,-0.0508 c 0.24781,0.11027 0.66465,-0.0132 1.25,-0.375005 1.17889,-0.728595 6.13882,-9.539375 14.11719,-25.074219 3.10715,-6.05 7.58914,-14.375 9.95898,-18.5 8.72934,-15.194468 15.96833,-30.0324 15.38867,-31.542969 -0.7465,-1.945361 -2.58954,-1.401027 -2.92187,0.863281 -0.13824,0.941872 -1.64057,4.174159 -3.33789,7.181641 -1.69732,3.007482 -3.08594,5.994754 -3.08594,6.638671 0,0.643916 -1.04114,2.56371 -2.31445,4.265625 -3.26791,4.367932 -10.20559,17.16713 -26.75586,49.363281 -2.26893,4.413874 -3.04227,6.848856 -2.29883,7.179684 z m -429.35156,-0.043 c 0.9959,-0.442014 2.4358,-2.715004 4.6309,-7.220708 1.6863,-3.461242 5.1332,-10.09491 7.6601,-14.740235 2.5268,-4.645323 6.5145,-12.720312 8.8613,-17.945312 2.3467,-5.225 7.7099,-15.500207 11.918,-22.833984 4.2081,-7.333776 7.6504,-13.746276 7.6504,-14.25 0,-2.481526 -1.9018,-0.230054 -5.3516,6.333984 -2.0956,3.9875 -4.7437,8.825 -5.8847,10.75 -1.9626,3.311419 -8.2215,15.323019 -23.9141,45.902344 -3.7829,7.371493 -6.6758,13.603527 -6.4297,13.849609 0.2449,0.244832 0.5274,0.301632 0.8594,0.154302 z m 449.9707,-0.148443 c 1.16818,-0.382342 6.51495,-9.287304 8.78906,-14.638671 0.55641,-1.309333 1.83381,-3.559333 2.83985,-5 1.00604,-1.440667 4.01931,-6.894141 6.69531,-12.119141 2.676,-5.225 8.18986,-15.125 12.2539,-22 9.12544,-15.437223 12.2676,-21.572245 11.46094,-22.378906 -1.369,-1.368999 -2.38754,-0.376745 -5.26758,5.128906 -3.96861,7.586614 -6.95219,12.768399 -10.50586,18.25 -3.78986,5.845956 -5.74982,9.39085 -13.08789,23.677734 -3.33949,6.50182 -7.95199,15.291203 -10.25,19.53125 -4.35695,8.038963 -5.03041,10.237031 -2.92773,9.548828 z m 208.1816,1.007813 c 1.0465,1.04643 3.8196,-2.308494 7.2012,-8.708984 1.9055,-3.606658 5.3554,-9.764236 7.666,-13.685547 2.3106,-3.921311 7.3207,-12.696311 11.1328,-19.5 3.8122,-6.803689 7.9191,-13.721094 9.127,-15.371094 1.2079,-1.65 4.4954,-7.6125 7.3066,-13.25 3.717,-7.453965 4.7056,-10.25 3.6231,-10.25 -0.8188,0 -1.4883,0.63685 -1.4883,1.41602 0,0.779159 -0.3375,1.566662 -0.75,1.749996 -0.7847,0.348747 -2.3708,2.984804 -6.8203,11.333984 -1.4656,2.75 -4.0871,7.025 -5.8262,9.5 -1.739,2.475 -5.3377,8.775 -7.9961,14 -2.6584,5.225 -5.9077,10.932791 -7.2207,12.683594 -1.313,1.750803 -2.3867,3.57567 -2.3867,4.054687 0,0.479018 -1.2801,2.890615 -2.8457,5.359375 -4.6632,7.353103 -11.2815,20.109119 -10.7227,20.667969 z m -445.1386,-0.004 c 0.6146,0.12194 2.2775,-2.769743 5.7461,-9.761719 2.3192,-4.675 5.0384,-9.404868 6.041,-10.511719 1.0027,-1.106851 2.8035,-4.230324 4.0019,-6.939453 1.1984,-2.70913 3.4704,-6.707679 5.0489,-8.886719 1.5785,-2.17904 2.8691,-4.311175 2.8691,-4.738281 0,-0.427106 2.2994,-4.521736 5.1094,-9.099609 2.8101,-4.577873 6.2017,-10.349219 7.5371,-12.824219 1.3354,-2.475 3.2632,-5.85 4.2851,-7.5 1.0219,-1.65 2.1615,-4.0125 2.5313,-5.25 0.4594,-1.537614 0.2558,-2.244875 -0.6445,-2.234375 -0.7246,0.0084 -3.6985,4.39595 -6.6075,9.75 -2.909,5.354049 -8.416,15.134375 -12.2382,21.734375 -3.8223,6.6 -8.1542,14.45028 -9.625,17.445312 -1.4708,2.995034 -3.7675,7.045033 -5.1055,9 -3.5437,5.177653 -9.2422,16.726199 -9.2422,18.730469 0,0.669868 0.088,1.045288 0.293,1.085938 z m -20.9082,-1.050781 c 0.9738,-0.187995 5.0521,-7.038817 13.6562,-22.710938 6.19,-11.275 13.5019,-24.55 16.2481,-29.5 10.0392,-18.095259 12.6597,-23.017762 12.6855,-23.833984 0.014,-0.458334 -0.4909,-0.65992 -1.123,-0.449219 -1.1627,0.387582 -5.7954,8.089812 -13.1016,21.783203 -5.0689,9.500416 -12.9363,23.586998 -17.9043,32.060547 -2.1154,3.608062 -3.8457,7.007929 -3.8457,7.554687 0,0.546759 -1.3418,3.110321 -2.9824,5.697266 -1.6406,2.586945 -3.2724,5.937078 -3.625,7.445312 -0.3129,1.337932 -0.3325,2.01579 -0.01,1.953126 z m 136.6152,0.966791 c 0,0.21617 0.85628,-0.0652 1.90234,-0.625 1.04606,-0.559836 2.9711,-3.163141 4.2793,-5.785157 1.30821,-2.622015 3.91864,-7.457459 5.80078,-10.74414 1.88215,-3.286682 4.46138,-7.786682 5.73047,-10 1.26909,-2.21332 4.14511,-7.848438 6.39063,-12.523438 2.24552,-4.675 4.66554,-9.175 5.3789,-10 0.71335,-0.825 3.66604,-6 6.56055,-11.5 2.89451,-5.5 6.12098,-11.235394 7.17187,-12.744141 1.05089,-1.508746 1.58621,-3.2709 1.1875,-3.916015 -1.07001,-1.731324 -4.73798,3.214016 -9.76172,13.160156 -2.3613,4.675 -5.45,10.330237 -6.86328,12.566406 -1.41328,2.236169 -4.3322,7.636169 -6.48632,12 -4.51217,9.140766 -12.16734,23.465679 -13.32422,24.933594 -0.91659,1.163023 -7.9668,14.594555 -7.9668,15.177735 z m 139.33594,-0.008 c 0.77693,0.77692 4.66406,-3.938837 4.66406,-5.658216 0,-0.886292 0.39559,-2.04 0.87891,-2.5625 0.48332,-0.5225 3.47993,-5.899219 6.66015,-11.949219 6.45657,-12.282852 10.47375,-19.654104 15.05078,-27.621094 10.35281,-18.020575 15.41016,-27.392338 15.41016,-28.554687 0,-2.719679 -2.04766,-1.173793 -4.53906,3.425781 -1.41509,2.6125 -4.4024,7.9 -6.63867,11.75 -12.41494,21.373737 -32.41921,60.23705 -31.48633,61.169925 z m -79.89063,-0.976564 c 0.52364,0.155284 1.51932,-0.21682 2.54492,-1.248047 1.0636,-1.069456 5.81367,-9.145324 10.55665,-17.945324 8.32306,-15.442423 17.33417,-31.224154 21.98242,-38.5 4.82566,-7.55354 9.4707,-16.796888 9.4707,-18.845703 0,-3.173627 -1.56478,-2.620267 -3.09766,1.095703 -1.40163,3.397779 -14.86429,26.624567 -20.43164,35.25 -1.775,2.75 -6.94111,12.2 -11.47851,21 -4.5374,8.8 -8.70591,16.572646 -9.26367,17.273438 -0.85988,1.08037 -0.80684,1.764638 -0.28321,1.919921 z m 193.6875,-0.169921 c 0.23351,0.187855 0.67056,0.05517 1.33008,-0.492188 0.80472,-0.667863 3.3191,-4.886066 5.58789,-9.373047 4.33705,-8.577407 22.02874,-41.313925 25.44922,-47.091797 4.95525,-8.370415 11.5,-20.638736 11.5,-21.556636 0,-1.27204 -0.644,-1.27071 -3.0293,0.006 -1.0771,0.57646 -1.65561,1.641986 -1.33984,2.464849 0.30587,0.797088 -0.38576,2.771747 -1.53711,4.388672 -1.15135,1.616764 -2.09375,3.163011 -2.09375,3.435385 0,0.272373 -1.78498,3.35298 -3.9668,6.845703 -5.52131,8.838703 -10.23524,17.296628 -17.75,31.849609 -3.55006,6.875 -6.86635,12.926719 -7.36914,13.449219 -0.50279,0.5225 -0.91406,1.520897 -0.91406,2.216797 0,0.695899 -1.35,3.39236 -3,5.99414 -2.43775,3.843931 -3.56772,7.299714 -2.86719,7.863282 z M 756.26313,99.212318 c 0.30565,0.498079 1.50221,-0.419939 3.34961,-3.140625 2.67629,-3.941403 15.89682,-27.03696 17.71485,-30.947266 0.38357,-0.825 2.2148,-3.975 4.07031,-7 1.8555,-3.025 5.48791,-9.55 8.07227,-14.5 2.58436,-4.95 5.29609,-9.675946 6.02539,-10.501953 1.8333,-2.076392 3.59729,-6.973378 2.91211,-8.082031 -1.01638,-1.644539 -1.91335,-0.892149 -4.03125,3.378906 -4.10519,8.278696 -9.92551,19.214097 -10.48829,19.705078 -1.46145,1.275003 -13.19112,21.580835 -17.90625,31 -2.89091,5.775 -6.36771,12.405821 -7.72656,14.736328 -1.71354,2.938822 -2.29783,4.853484 -1.99219,5.351563 z m 98.01368,-0.0879 c 0.72405,0 2.96064,-3.4875 4.9707,-7.75 2.01005,-4.2625 6.19523,-12.25 9.30078,-17.75 3.10554,-5.5 7.00479,-12.475 8.66406,-15.5 1.65927,-3.025 4.25075,-7.3 5.75782,-9.5 1.50706,-2.2 4.39889,-7.15 6.42773,-11 2.02884,-3.85 4.60579,-8.469636 5.72656,-10.265625 1.12076,-1.795989 1.78208,-3.933489 1.46875,-4.75 -0.93634,-2.440065 -2.23074,-1.705685 -3.99414,2.265625 -1.7855,4.02108 -4.09732,8.126846 -11.69531,20.773438 -2.65133,4.413031 -5.30885,9.309558 -5.90625,10.880859 -0.59741,1.571302 -2.0366,4.190311 -3.19727,5.820312 -1.16066,1.630001 -3.33315,5.283476 -4.82812,8.119141 -4.54804,8.626745 -14.01172,27.652914 -14.01172,28.169922 0,0.267272 0.59236,0.486328 1.31641,0.486328 z M 716.43696,98.934962 c 1.12492,1.124928 3.50828,-2.490731 9.00586,-13.666016 3.07253,-6.245736 7.35697,-13.961967 9.51953,-17.146484 2.16257,-3.184518 5.04731,-8.199785 6.41211,-11.144531 1.3648,-2.944746 3.7967,-7.603516 5.40235,-10.353516 10.80276,-18.501907 13.18359,-22.760723 13.18359,-23.578125 0,-2.825325 -2.97769,-0.05661 -6.27148,5.833984 -3.73334,6.676666 -10.28722,17.951705 -13.80274,23.744141 -8.3984,13.837836 -24.37318,45.386588 -23.44922,46.310547 z M 4.7534038,67.372462 c 0.6329,0.23337 2.169,-0.984984 4.0703,-3.855469 1.7250002,-2.604287 3.1367002,-5.113875 3.1367002,-5.576172 0,-0.462298 2.0984,-4.097217 4.6621,-8.078125 9.8579,-15.307735 11.2013,-17.408772 14.7402,-23.044922 2.0053,-3.19374 3.3358,-6.309039 2.9571,-6.921879 -0.8871,-1.43533 -2.922,1.16204 -10.3653,13.22852 -3.2231,5.225 -6.8186,10.730328 -7.9902,12.234375 -1.1717,1.504046 -3.3603,5.104046 -4.8633,8 -1.5030002,2.895953 -3.7523002,7.015343 -4.9980002,9.154297 -1.7123,2.940176 -1.9826,4.626005 -1.3496,4.859375 z m 1.457,-32.255859 c 1.1919,-0.0083 7.8963002,-9.555863 9.2988002,-13.242188 0.7234,-1.90126 0.4391,-2.06581 -1.9668,-1.14258 -0.87,0.33384 -1.582,1.15487 -1.582,1.824221 0,0.669344 -1.575,3.431117 -3.5000002,6.138671 -3.7881,5.328001 -4.1756,6.435349 -2.25,6.421876 z"/>
</svg>
