<svg xmlns="http://www.w3.org/2000/svg"
     width="64.0" height="6.5"
     viewBox="-26.7994 -43.4053 1210.4782 123.4506">
  <path d="m 1179.6788,20.874415 c 1.02,1.5125 2.457,4.55 3.1935,6.75 1.7104,5.109956 7.9964,16.5 9.1061,16.5 0.4652,0 1.889,-1.460701 3.1639,-3.246003 2.3964,-3.355592 2.7072,-3.86794 9.2084,-15.179262 3.6515,-6.353125 4.0686,-6.732945 6.796,-6.187475 1.5981,0.31963 4.4671,1.77206 6.3754,3.227627 l 3.4698,2.646483 -1.7658,2.813597 c -0.9711,1.547479 -3.3817,5.201171 -5.3569,8.119316 -1.9751,2.918144 -5.7441,9.424156 -8.3755,14.457804 l -4.7844,9.152086 2.5625,3.359717 c 1.4095,1.847844 4.4384,7.179405 6.7309,11.847913 2.2926,4.668508 4.7578,9.163197 5.4784,9.988197 0.7205,0.825 1.5941,3.075 1.9412,5 0.6014,3.335539 0.3923,3.661169 -4.4498,6.929942 -6.0958,4.115163 -5.7955,4.317003 -12.5442,-8.429942 -5.1688,-9.76289 -6.3008,-11.5 -7.4937,-11.5 -0.4295,0 -2.3558,3.0375 -4.2807,6.75 -7.391,14.254796 -9.2417,17.232215 -10.6935,17.203165 -0.825,-0.0165 -3.7161,-1.982841 -6.4247,-4.369637 l -4.9247,-4.33963 3.4247,-4.871949 c 4.3688,-6.215037 5.8023,-8.505684 6.4908,-10.371949 0.4914,-1.331901 2.0771,-4.492611 7.2014,-14.354533 1.3705,-2.637525 1.3074,-3.169682 -0.8297,-7 -1.2722,-2.280007 -3.8036,-6.278352 -5.6254,-8.885211 -1.8218,-2.60686 -3.3124,-5.102712 -3.3124,-5.546338 0,-0.443626 -1.5635,-3.260741 -3.4744,-6.260256 -1.9109,-2.999514 -3.4859,-5.81044 -3.5,-6.246503 -0.034,-1.051206 9.0232,-10.707159 10.0432,-10.707159 0.4372,0 1.6296,1.2375 2.6496,2.75 z m -6.4959,3.806704 c -2.5049,1.754518 -2.934,5.607903 -0.8198,7.362504 0.7714,0.640254 2.5843,3.507854 4.0287,6.372445 1.4443,2.864591 4.5615,8.358347 6.927,12.208347 4.2056,6.844874 12.7165,22.516715 19.2791,35.5 1.807,3.575 3.9469,7.331211 4.7553,8.347136 1.4219,1.787054 1.5696,1.788173 4.5385,0.03439 1.6878,-0.997009 3.0687,-2.233191 3.0687,-2.747072 0,-0.513881 -1.7602,-3.987375 -3.9116,-7.718875 -2.1513,-3.7315 -4.5072,-8.431644 -5.2351,-10.444764 -0.728,-2.013121 -2.7089,-5.305104 -4.4022,-7.315518 -7.3363,-8.710542 -17.0598,-25.516149 -22.7994,-39.405299 -1.7354,-4.199443 -2.2615,-4.412005 -5.4292,-2.193296 z m 33.5475,2.193296 c -6.8636,10.287454 -13.77,21.215081 -13.77,21.787767 0,1.013761 5.4235,8.417139 6.1835,8.440882 0.3759,0.01174 2.5206,-3.691149 4.766,-8.228649 2.2454,-4.5375 5.645,-10.95 7.5546,-14.25 3.7346,-6.453761 4.1735,-8.422438 2.2959,-10.3 -2.1328,-2.132758 -4.4717,-1.284335 -7.03,2.55 z M 1179.5,76.045327 c -3.561,7.106502 -6.9393,13.208059 -7.5071,13.559017 -1.9749,1.220529 -0.9607,3.031342 2.7277,4.870187 3.4573,1.723665 3.7803,1.735116 4.7254,0.167543 0.5579,-0.925414 2.5395,-4.007966 4.4034,-6.850115 1.864,-2.842149 4.4218,-7.475822 5.6841,-10.297051 l 2.2951,-5.129507 -2.1256,-4.620493 c -1.1691,-2.541271 -2.4863,-4.620493 -2.927,-4.620493 -0.4407,0 -3.7149,5.81441 -7.276,12.920912 z"/>
</svg>
